<svg xmlns="http://www.w3.org/2000/svg" viewBox="0 0 130 130"><circle cx="65" cy="65" r="64" fill="#FAD553"/><path fill="#FAB941" d="M82.668 19.707h11.045a1.005 1.005 0 0 1 0 2.01H82.668c-.553 0-1.005-.452-1.005-1.005s.452-1.005 1.005-1.005zm19.488 1.006c0 .555-.45 1.005-1.005 1.005h-4.124c-.553 0-1.005-.453-1.005-1.005s.452-1.006 1.005-1.006h4.124c.555 0 1.005.45 1.005 1.006zm-72.454-1.006a1.005 1.005 0 1 0 0-2.01h-7.81a64.393 64.393 0 0 0-2.109 2.01h9.92zm9.097-1.005c0 .555-.45 1.005-1.005 1.005h-4.123c-.553 0-1.005-.452-1.005-1.005s.452-1.005 1.005-1.005h4.123c.555 0 1.005.45 1.005 1.005zm-26.83 70.27H5.66c.274.677.559 1.347.855 2.011h5.454a1.005 1.005 0 1 0 0-2.01zm4.52 2.011h-.947a1.005 1.005 0 0 1 0-2.01h.946a1.005 1.005 0 0 1 0 2.01zm87.617-29.637c0-.556.45-1.006 1.005-1.006h16.008c.553 0 1.005.453 1.005 1.006s-.452 1.005-1.005 1.005H105.11c-.555 0-1.005-.45-1.005-1.005zm-1.561 0c0 .555-.45 1.005-1.005 1.005h-4.808a1.005 1.005 0 1 1 0-2.01h4.808c.555 0 1.005.45 1.005 1.005zM79.269 111.59h12.75a1.005 1.005 0 0 1 0 2.01H79.27a1.008 1.008 0 0 1-1.005-1.005c0-.553.452-1.005 1.005-1.005zm16.368 1.005c0-.555.45-1.005 1.005-1.005h1.08a1.005 1.005 0 0 1 0 2.01h-1.08c-.555 0-1.005-.45-1.005-1.005zM35.732 47.052c0 .555-.45 1.005-1.005 1.005H21.041a1.005 1.005 0 0 1 0-2.01h13.686c.555 0 1.005.45 1.005 1.005zM9.636 46.047h7.512a1.005 1.005 0 0 1 0 2.01H9.636a1.008 1.008 0 0 1-1.005-1.005c0-.553.453-1.005 1.005-1.005zm57.61-15.74c0 .555-.45 1.005-1.006 1.005H52.555a1.005 1.005 0 1 1 0-2.01H66.24c.556 0 1.006.45 1.006 1.005zM41.15 29.302h7.511a1.005 1.005 0 0 1 0 2.01H41.15c-.553 0-1.005-.452-1.005-1.005s.452-1.005 1.005-1.005zm69.065 8.367c0-.555.45-1.005 1.005-1.005h1.671a1.005 1.005 0 1 1 0 2.01h-1.671c-.555 0-1.005-.45-1.005-1.005zm7.346 1.005h5.771a63.383 63.383 0 0 0-.944-2.01h-4.827a1.005 1.005 0 1 0 0 2.01zM23.103 70.312c0 .555-.45 1.005-1.005 1.005h-1.966a1.008 1.008 0 0 1-1.005-1.005c0-.553.452-1.005 1.005-1.005h1.966c.555 0 1.005.45 1.005 1.005zm1.632 0c0-.555.45-1.005 1.006-1.005h5.92a1.005 1.005 0 0 1 0 2.01h-5.92c-.555 0-1.006-.45-1.006-1.005zm34.273-58.79c0 .555-.45 1.005-1.005 1.005h-1.966a1.008 1.008 0 0 1-1.005-1.005c0-.553.452-1.006 1.005-1.006h1.966c.555 0 1.005.45 1.005 1.006zm1.633 0c0-.555.45-1.006 1.005-1.006h5.92a1.005 1.005 0 0 1 0 2.01h-5.92c-.555 0-1.005-.45-1.005-1.004zm-15.81 107.1c0 .555-.45 1.006-1.005 1.006H41.86a1.008 1.008 0 0 1-1.005-1.006c0-.553.452-1.005 1.005-1.005h1.966c.555 0 1.005.45 1.005 1.005zm1.632 0c0-.555.45-1.005 1.005-1.005h5.92a1.005 1.005 0 0 1 0 2.01h-5.92c-.555 0-1.005-.45-1.005-1.005zm60.959-36.051c0 .555-.45 1.005-1.005 1.005h-1.966a1.008 1.008 0 0 1-1.006-1.005c0-.553.453-1.005 1.006-1.005h1.965c.556 0 1.006.45 1.006 1.005zm1.632 0c0-.555.45-1.005 1.005-1.005h5.92a1.005 1.005 0 0 1 0 2.01h-5.92c-.555 0-1.005-.45-1.005-1.005z"/><path fill="#FAB941" d="M111.216 60.02h-3.056c-1.3 0-2.415-.902-2.712-2.174a35.502 35.502 0 0 0-.706-2.638 2.789 2.789 0 0 1 1.272-3.223l2.647-1.533a2.788 2.788 0 0 0 1.013-3.808l-3.985-6.9a2.783 2.783 0 0 0-3.808-1.023l-2.656 1.542a2.782 2.782 0 0 1-3.428-.52 38.271 38.271 0 0 0-1.941-1.941 2.782 2.782 0 0 1-.52-3.427l1.542-2.657a2.783 2.783 0 0 0-1.022-3.808l-6.901-3.985a2.783 2.783 0 0 0-3.808 1.022l-1.523 2.647a2.785 2.785 0 0 1-3.233 1.263 37.015 37.015 0 0 0-2.647-.705 2.79 2.79 0 0 1-2.164-2.713v-3.055a2.783 2.783 0 0 0-2.787-2.787h-7.978a2.783 2.783 0 0 0-2.786 2.787v3.046a2.79 2.79 0 0 1-2.165 2.712c-.9.205-1.783.437-2.647.706a2.785 2.785 0 0 1-3.232-1.263l-1.523-2.638a2.783 2.783 0 0 0-3.809-1.022l-6.9 3.985a2.783 2.783 0 0 0-1.022 3.808l1.532 2.647a2.782 2.782 0 0 1-.52 3.428 38.184 38.184 0 0 0-1.932 1.94 2.784 2.784 0 0 1-3.427.521l-2.657-1.533a2.783 2.783 0 0 0-3.808 1.022l-3.984 6.901a2.783 2.783 0 0 0 1.021 3.808l2.638 1.524a2.785 2.785 0 0 1 1.263 3.232 40.71 40.71 0 0 0-.705 2.638 2.77 2.77 0 0 1-2.703 2.173h-3.065a2.783 2.783 0 0 0-2.787 2.787v7.978a2.783 2.783 0 0 0 2.787 2.787h3.055c1.3 0 2.425.9 2.713 2.164.204.9.436 1.783.705 2.656a2.777 2.777 0 0 1-1.263 3.223l-2.638 1.523a2.783 2.783 0 0 0-1.021 3.809l3.984 6.9a2.783 2.783 0 0 0 3.808 1.022l2.648-1.523a2.769 2.769 0 0 1 3.418.52c.631.669 1.281 1.31 1.95 1.941a2.782 2.782 0 0 1 .52 3.428l-1.532 2.638a2.793 2.793 0 0 0 1.021 3.808l6.901 3.984a2.783 2.783 0 0 0 3.809-1.021l1.523-2.638a2.777 2.777 0 0 1 3.223-1.263c.873.27 1.755.501 2.656.706a2.783 2.783 0 0 1 2.165 2.712v3.056a2.783 2.783 0 0 0 2.786 2.786h7.978a2.783 2.783 0 0 0 2.787-2.786v-3.066c0-1.3.9-2.414 2.173-2.702a40.73 40.73 0 0 0 2.638-.706 2.785 2.785 0 0 1 3.233 1.263l1.523 2.638a2.783 2.783 0 0 0 3.808 1.021l6.901-3.984a2.785 2.785 0 0 0 1.022-3.808l-1.533-2.647a2.782 2.782 0 0 1 .52-3.428 38.416 38.416 0 0 0 1.942-1.941 2.782 2.782 0 0 1 3.427-.52l2.647 1.532a2.783 2.783 0 0 0 3.808-1.021l3.985-6.901a2.783 2.783 0 0 0-1.022-3.809l-2.638-1.523a2.785 2.785 0 0 1-1.263-3.232c.27-.864.502-1.746.706-2.647a2.79 2.79 0 0 1 2.712-2.164h3.047a2.783 2.783 0 0 0 2.786-2.787v-7.978a2.783 2.783 0 0 0-2.786-2.787zM66.799 92.805c-14.369 0-26.006-11.637-26.006-26.007 0-14.357 11.637-26.006 26.006-26.006 14.358 0 26.007 11.649 26.007 26.006 0 14.37-11.649 26.007-26.007 26.007z"/><path fill="#168DE2" d="M109.416 58.22h-3.056c-1.3 0-2.415-.901-2.712-2.174a35.503 35.503 0 0 0-.706-2.638 2.789 2.789 0 0 1 1.272-3.223l2.648-1.532a2.788 2.788 0 0 0 1.012-3.808l-3.984-6.901a2.783 2.783 0 0 0-3.809-1.022l-2.656 1.542a2.782 2.782 0 0 1-3.428-.52 38.271 38.271 0 0 0-1.94-1.942 2.782 2.782 0 0 1-.52-3.427l1.541-2.656a2.783 2.783 0 0 0-1.022-3.809l-6.9-3.984a2.783 2.783 0 0 0-3.809 1.021l-1.523 2.648a2.785 2.785 0 0 1-3.232 1.263 37.015 37.015 0 0 0-2.648-.706 2.79 2.79 0 0 1-2.164-2.712v-3.056a2.783 2.783 0 0 0-2.786-2.787h-7.979a2.783 2.783 0 0 0-2.786 2.787v3.046a2.79 2.79 0 0 1-2.164 2.713c-.901.204-1.783.436-2.647.706a2.785 2.785 0 0 1-3.233-1.264l-1.523-2.638a2.783 2.783 0 0 0-3.808-1.021l-6.901 3.984a2.783 2.783 0 0 0-1.022 3.809l1.533 2.647a2.782 2.782 0 0 1-.52 3.427 38.188 38.188 0 0 0-1.932 1.941 2.784 2.784 0 0 1-3.428.52l-2.656-1.532a2.783 2.783 0 0 0-3.808 1.022l-3.985 6.9a2.783 2.783 0 0 0 1.022 3.809l2.638 1.523a2.785 2.785 0 0 1 1.263 3.232 40.71 40.71 0 0 0-.706 2.638 2.77 2.77 0 0 1-2.703 2.174h-3.065a2.783 2.783 0 0 0-2.786 2.786v7.979a2.783 2.783 0 0 0 2.786 2.786h3.056c1.3 0 2.424.9 2.712 2.164.204.901.436 1.783.706 2.657a2.777 2.777 0 0 1-1.263 3.223l-2.638 1.523a2.783 2.783 0 0 0-1.022 3.808l3.985 6.901a2.783 2.783 0 0 0 3.808 1.022l2.647-1.523a2.769 2.769 0 0 1 3.418.52c.631.668 1.282 1.31 1.95 1.94a2.782 2.782 0 0 1 .52 3.428l-1.532 2.638a2.793 2.793 0 0 0 1.022 3.808l6.9 3.985a2.783 2.783 0 0 0 3.81-1.022l1.522-2.638a2.777 2.777 0 0 1 3.223-1.263c.874.27 1.756.502 2.657.706a2.783 2.783 0 0 1 2.164 2.712v3.056a2.783 2.783 0 0 0 2.786 2.786h7.979a2.783 2.783 0 0 0 2.786-2.786v-3.065c0-1.3.901-2.415 2.174-2.703a40.743 40.743 0 0 0 2.638-.706 2.785 2.785 0 0 1 3.232 1.263l1.523 2.638a2.783 2.783 0 0 0 3.808 1.022l6.901-3.985a2.785 2.785 0 0 0 1.022-3.808l-1.532-2.647a2.782 2.782 0 0 1 .52-3.427 38.416 38.416 0 0 0 1.941-1.942 2.782 2.782 0 0 1 3.427-.52l2.647 1.533a2.783 2.783 0 0 0 3.809-1.022l3.984-6.901a2.783 2.783 0 0 0-1.022-3.808l-2.638-1.523a2.785 2.785 0 0 1-1.263-3.233c.27-.864.502-1.746.706-2.647a2.79 2.79 0 0 1 2.712-2.164h3.047a2.783 2.783 0 0 0 2.786-2.786v-7.979a2.783 2.783 0 0 0-2.786-2.786z"/><path fill="#FFF" d="M65 91.82c-14.82 0-26.82-12-26.82-26.82 0-14.807 12-26.82 26.82-26.82 14.807 0 26.82 12.013 26.82 26.82 0 14.82-12.013 26.82-26.82 26.82z"/><path fill="#39ACE5" d="M81.662 34.969a.993.993 0 0 1-.473-.12A34.252 34.252 0 0 0 65 30.783a1 1 0 1 1 0-2c5.98 0 11.905 1.49 17.138 4.306a1 1 0 0 1-.475 1.88zM38.179 43.175a1 1 0 0 1-.762-1.648C42.44 35.628 49.34 31.43 56.845 29.703a1 1 0 1 1 .45 1.95c-7.091 1.63-13.609 5.597-18.355 11.17a.999.999 0 0 1-.761.35zM30.708 57.95a1 1 0 0 1-.975-1.228A35.943 35.943 0 0 1 34.38 45.65a1 1 0 1 1 1.69 1.07 33.925 33.925 0 0 0-4.39 10.459 1 1 0 0 1-.972.772zM33.911 82.567a.998.998 0 0 1-.883-.53A36.3 36.3 0 0 1 28.782 65a1 1 0 1 1 2 0c0 5.613 1.387 11.18 4.01 16.096a.999.999 0 0 1-.881 1.47z"/><path fill="#EDEDED" d="M56.512 70.51c.151 0 .282.054.392.164a.54.54 0 0 1 .166.393v1.467a.54.54 0 0 1-.166.392.536.536 0 0 1-.392.165h-9.07a.536.536 0 0 1-.393-.165.536.536 0 0 1-.165-.392V59.187c0-.151.055-.282.165-.393a.536.536 0 0 1 .392-.165h8.905c.152 0 .283.055.393.165a.54.54 0 0 1 .165.393v1.467a.54.54 0 0 1-.165.392.536.536 0 0 1-.393.165h-6.673v3.286h6.22c.15 0 .281.054.392.165a.54.54 0 0 1 .165.392v1.467a.54.54 0 0 1-.165.393.536.536 0 0 1-.393.165h-6.22v3.43h6.84zm9.007-11.88c1.722 0 3.03.398 3.926 1.197.895.799 1.342 1.908 1.342 3.326 0 1.006-.23 1.864-.691 2.573-.462.71-1.14 1.236-2.035 1.58l2.85 5.103a.509.509 0 0 1 .063.228.44.44 0 0 1-.134.32.44.44 0 0 1-.32.134h-1.757c-.276 0-.478-.065-.61-.196s-.223-.251-.278-.361l-2.706-4.815H62.42v4.815a.536.536 0 0 1-.165.392.536.536 0 0 1-.392.165h-1.674a.536.536 0 0 1-.393-.165.536.536 0 0 1-.165-.392V59.187c0-.151.055-.282.165-.393s.242-.165.393-.165h5.33zm-3.099 6.507h2.996c.785 0 1.411-.137 1.88-.413.469-.275.702-.799.702-1.57 0-.772-.233-1.289-.702-1.55s-1.095-.393-1.88-.393H62.42v3.926zm17.148-6.508c1.667 0 2.961.393 3.884 1.178.923.784 1.385 1.935 1.385 3.45 0 1.515-.462 2.672-1.385 3.471-.923.8-2.217 1.198-3.884 1.198h-3.305v4.608a.536.536 0 0 1-.166.392.536.536 0 0 1-.392.165H74.03a.536.536 0 0 1-.392-.165.536.536 0 0 1-.166-.392V59.187c0-.151.055-.282.166-.393a.536.536 0 0 1 .392-.165h5.537zm-3.305 6.715h3.201c.786 0 1.413-.156 1.881-.465.468-.31.703-.85.703-1.622 0-.772-.235-1.305-.703-1.602-.468-.296-1.095-.444-1.88-.444h-3.202v4.133z"/><path fill="#2E6BCE" d="m90.472 27.313-1.541 2.656a2.782 2.782 0 0 0 .52 3.427 38.37 38.37 0 0 1 1.94 1.942c.112.119.251.192.378.288-.667-.879-.801-2.069-.233-3.051l1.542-2.657a2.783 2.783 0 0 0-1.022-3.808l-1.274-.736c.128.641.043 1.327-.31 1.939zm14.796 14.926a2.789 2.789 0 0 1-1.012 3.808l-2.647 1.532a2.788 2.788 0 0 0-1.272 3.223c.269.865.501 1.747.705 2.639a2.772 2.772 0 0 0 2.48 2.132 34.58 34.58 0 0 0-.58-2.165 2.788 2.788 0 0 1 1.273-3.223l2.647-1.532a2.789 2.789 0 0 0 1.012-3.808l-3.985-6.901a2.764 2.764 0 0 0-1.87-1.332l3.25 5.627zm4.312 15.997c.004.056.017.108.017.164v7.979a2.782 2.782 0 0 1-2.787 2.786h-3.046c-1.3 0-2.415.901-2.713 2.164a34.596 34.596 0 0 1-.705 2.648 2.784 2.784 0 0 0 1.263 3.232l1.315.759c-.095-.451-.115-.92.027-1.386.27-.864.502-1.746.706-2.647a2.79 2.79 0 0 1 2.713-2.164h3.046a2.782 2.782 0 0 0 2.786-2.786v-7.979a2.775 2.775 0 0 0-2.622-2.77zm-32.362 43.363a2.784 2.784 0 0 0-3.232-1.263c-.864.26-1.746.502-2.638.706a2.77 2.77 0 0 0-2.173 2.703v3.065a2.783 2.783 0 0 1-2.787 2.787H58.41c-.056 0-.109-.013-.164-.017a2.775 2.775 0 0 0 2.77 2.623h7.978a2.783 2.783 0 0 0 2.787-2.787v-3.065c0-1.3.9-2.415 2.173-2.703a40.654 40.654 0 0 0 2.638-.706c.466-.142.935-.122 1.385-.027l-.759-1.316zm29.634-20.261-1.274-.736a2.77 2.77 0 0 1-.31 1.938l-3.984 6.901a2.783 2.783 0 0 1-3.808 1.022l-2.647-1.532a2.782 2.782 0 0 0-3.428.52 38.182 38.182 0 0 1-1.941 1.94 2.782 2.782 0 0 0-.52 3.428l1.532 2.647a2.786 2.786 0 0 1-1.021 3.809l-6.901 3.984a2.767 2.767 0 0 1-1.939.31l.736 1.274a2.782 2.782 0 0 0 3.808 1.022l6.901-3.985a2.785 2.785 0 0 0 1.022-3.808l-1.533-2.647a2.782 2.782 0 0 1 .52-3.427 38.57 38.57 0 0 0 1.942-1.941 2.782 2.782 0 0 1 3.427-.52l2.647 1.532a2.784 2.784 0 0 0 3.808-1.022l3.985-6.901a2.783 2.783 0 0 0-1.022-3.808zM53.46 101.042a36 36 0 0 1-2.657-.706 2.776 2.776 0 0 0-3.222 1.263l-1.524 2.638a2.783 2.783 0 0 1-3.808 1.022l-5.622-3.246c.154.757.608 1.45 1.327 1.867l6.901 3.985a2.782 2.782 0 0 0 3.808-1.022l1.523-2.638a2.777 2.777 0 0 1 3.223-1.263c.715.22 1.443.402 2.175.578-.104-1.195-.94-2.208-2.124-2.478zm-17.821-9.248c-.099-.132-.176-.277-.3-.393a48.055 48.055 0 0 1-1.95-1.94 2.769 2.769 0 0 0-3.419-.521l-2.647 1.523a2.77 2.77 0 0 1-1.938.31l.736 1.274a2.783 2.783 0 0 0 3.808 1.022l2.647-1.523c.99-.573 2.185-.433 3.063.248z"/><path fill="#F34B50" d="M55.652 69.649c.151 0 .282.055.392.165a.54.54 0 0 1 .165.392v1.467a.54.54 0 0 1-.165.393.536.536 0 0 1-.392.165h-9.07a.536.536 0 0 1-.393-.165.536.536 0 0 1-.165-.393V58.327c0-.152.054-.282.165-.393a.536.536 0 0 1 .392-.165h8.905c.152 0 .283.055.393.165a.54.54 0 0 1 .165.393v1.466a.54.54 0 0 1-.165.393.537.537 0 0 1-.393.165h-6.673v3.286h6.219c.151 0 .282.054.392.165a.54.54 0 0 1 .166.392v1.467a.54.54 0 0 1-.166.393.536.536 0 0 1-.392.165h-6.22v3.43h6.84zm9.007-11.88c1.722 0 3.03.399 3.926 1.198.895.799 1.342 1.907 1.342 3.326 0 1.006-.23 1.864-.691 2.572-.463.71-1.14 1.237-2.036 1.581l2.852 5.103a.509.509 0 0 1 .062.227.44.44 0 0 1-.134.32.44.44 0 0 1-.32.135h-1.757c-.276 0-.479-.065-.61-.196s-.223-.251-.278-.362l-2.707-4.814H61.56v4.814a.536.536 0 0 1-.165.393.536.536 0 0 1-.393.165H59.33c-.152 0-.282-.055-.393-.165s-.165-.241-.165-.393V58.327c0-.152.055-.282.165-.393s.241-.165.393-.165h5.33zm-3.099 6.508h2.996c.785 0 1.411-.138 1.88-.413.468-.276.702-.799.702-1.571 0-.771-.234-1.288-.702-1.55s-1.095-.392-1.88-.392H61.56v3.926zm17.148-6.508c1.667 0 2.96.392 3.884 1.177.923.785 1.384 1.936 1.384 3.451 0 1.515-.46 2.672-1.384 3.471-.923.799-2.217 1.198-3.884 1.198h-3.306v4.607c0 .152-.054.282-.165.393s-.241.165-.392.165H73.17a.536.536 0 0 1-.393-.165.536.536 0 0 1-.165-.393V58.327c0-.152.055-.282.165-.393a.536.536 0 0 1 .393-.165h5.537zm-3.306 6.715h3.202c.786 0 1.412-.156 1.881-.466.467-.31.702-.85.702-1.621 0-.772-.235-1.305-.702-1.602-.469-.296-1.095-.444-1.88-.444h-3.203v4.133z"/></svg>