<svg width="10" height="19" viewBox="0 0 10 19" fill="none" xmlns="http://www.w3.org/2000/svg">
<path d="M2.78246 14.7244C2.78246 13.4745 2.77644 12.2185 2.78849 10.9686C2.78849 10.783 2.74028 10.7335 2.56553 10.7397C1.8605 10.7458 1.15547 10.7458 0.450437 10.7273C0.119012 10.7211 0.00451943 10.5973 0.00451943 10.2508C-0.00150648 9.2794 -0.00150648 8.30177 0.00451943 7.33033C0.00451943 6.96526 0.149141 6.84151 0.540826 6.83532C1.21573 6.82914 1.89063 6.82914 2.57156 6.83532C2.74631 6.83532 2.79452 6.79201 2.80054 6.60639C2.80657 5.72776 2.76439 4.84294 2.8367 3.96431C3.01748 1.81105 4.57819 0.208485 6.66918 0.0414215C7.62127 -0.0328288 8.57337 0.0166714 9.53149 0.0104839C9.85688 0.0104839 9.99548 0.152797 9.99548 0.499298C10.0015 1.40268 10.0015 2.30606 9.99548 3.20943C9.99548 3.53737 9.88099 3.66112 9.56161 3.6735C8.94697 3.69825 8.33233 3.69825 7.71166 3.70444C6.99458 3.71681 6.71738 4.00144 6.71136 4.73775C6.70533 5.35651 6.71738 5.97526 6.69931 6.59401C6.69328 6.7982 6.76559 6.83532 6.94034 6.82914C7.71166 6.81676 8.489 6.82295 9.26032 6.82295C9.7665 6.82295 9.86894 6.92814 9.86894 7.4417C9.86894 8.36364 9.86894 9.2794 9.86894 10.2013C9.86894 10.5973 9.78457 10.7087 9.39892 10.7149C8.58542 10.7335 7.77795 10.7397 6.96445 10.7211C6.72341 10.7149 6.68123 10.7953 6.68726 11.0181C6.69328 13.4127 6.69328 15.8134 6.69328 18.208C6.69328 18.9319 6.63302 19 5.92196 19C5.06629 19 4.21061 19 3.35493 19C2.90901 19 2.79452 18.8762 2.79452 18.4246C2.78246 17.1994 2.78246 15.9619 2.78246 14.7244Z" fill="#3D6AD5"/>
</svg>
