<svg xmlns="http://www.w3.org/2000/svg" enable-background="new 0 0 512 512" viewBox="0 0 512 512"><polygon fill="#6e83b7" points="471 204 41 204 256 10"/><polygon fill="#466089" points="448.5 204 63.5 204 256 30.359"/><polygon fill="#edeff1" points="256 46.147 81 204 81 439 431 439 431 204"/><polygon fill="#80d6fb" points="151 167.21 151 185.25 131 185.25"/><polygon fill="#80d6fb" points="213.5 110.84 213.5 185.25 173.5 185.25 173.5 146.92"/><polygon fill="#80d6fb" points="276 90.54 276 185.25 236 185.25 236 90.54 256 72.5"/><polygon fill="#80d6fb" points="338.5 146.92 338.5 185.25 298.5 185.25 298.5 110.84"/><polygon fill="#80d6fb" points="381 185.25 361 185.25 361 167.21"/><rect width="40" height="70" x="111" y="213.375" fill="#80d6fb"/><rect width="40" height="70" x="173.5" y="213.375" fill="#80d6fb"/><rect width="40" height="70" x="236" y="213.375" fill="#80d6fb"/><rect width="40" height="70" x="298.5" y="213.375" fill="#80d6fb"/><rect width="40" height="70" x="361" y="213.375" fill="#80d6fb"/><g><rect width="40" height="70" x="111" y="311.5" fill="#80d6fb"/><rect width="40" height="70" x="361" y="311.5" fill="#80d6fb"/></g><g><polygon fill="#466089" points="338.5 311.5 338.5 439 273.024 439 260.267 439 173.5 439 173.5 311.5"/><rect width="67.5" height="117.5" x="183.5" y="321.5" fill="#6e83b7"/><rect width="67.5" height="117.5" x="261" y="321.5" fill="#6e83b7"/></g><g><path fill="#ffb0aa" d="M37.5,394.5h-25c-1.381,0-2.5-1.119-2.5-2.5v-15c0-1.381,1.119-2.5,2.5-2.5h25V394.5z"/><polygon fill="#ff7b7b" points="33.902 374.5 28 394.5 37.5 394.5 37.5 374.5"/><path fill="#ffb0aa" d="M228.5,394.5h25c1.381,0,2.5-1.119,2.5-2.5v-15c0-1.381-1.119-2.5-2.5-2.5h-25V394.5z"/><polygon fill="#ff7b7b" points="232.098 374.5 238 394.5 228.5 394.5 228.5 374.5"/><path fill="#ffb0aa" d="M236,394.5h-1.5l-23.436-79.415c-0.627-2.126-2.579-3.585-4.796-3.585H133H59.731c-2.216,0-4.168,1.459-4.796,3.585L31.5,394.5H30c-8.284,0-15,6.716-15,15V462h236v-52.5C251,401.216,244.284,394.5,236,394.5z"/><path fill="#80d6fb" d="M40.864,387.5l19.833-67.208c0.314-1.063,1.29-1.792,2.398-1.792h139.81c1.108,0,2.084,0.73,2.398,1.792l19.833,67.208H40.864z"/><polygon fill="#46bee8" points="42.34 382.5 40.864 387.5 225.136 387.5 223.66 382.5"/><path fill="#edeff1" d="M253.5,477h-241c-1.381,0-2.5-1.119-2.5-2.5v-10c0-1.381,1.119-2.5,2.5-2.5h241c1.381,0,2.5,1.119,2.5,2.5v10C256,475.881,254.881,477,253.5,477z"/><circle cx="46.5" cy="428.221" r="16.5" fill="#ffb236"/><circle cx="46.5" cy="428.221" r="12.5" fill="#ffe352"/><circle cx="219.5" cy="428.221" r="16.5" fill="#ffb236"/><circle cx="219.5" cy="428.221" r="12.5" fill="#ffe352"/><g><rect width="11.5" height="38" x="127.25" y="409.25" fill="#ff7b7b"/><rect width="11.5" height="38" x="153.125" y="409.25" fill="#ff7b7b"/><rect width="11.5" height="38" x="179" y="409.25" fill="#ff7b7b"/><rect width="11.5" height="38" x="75.5" y="409.25" fill="#ff7b7b"/><rect width="11.5" height="38" x="101.375" y="409.25" fill="#ff7b7b"/></g><path fill="#6e83b7" d="M75.5 502h-39c-2.761 0-5-2.239-5-5v-20h49v20C80.5 499.761 78.261 502 75.5 502zM229.5 502h-39c-2.761 0-5-2.239-5-5v-20h49v20C234.5 499.761 232.261 502 229.5 502z"/></g><g><circle cx="434" cy="294" r="56" fill="#ffe352"/><circle cx="434" cy="294" r="50" fill="#ffb236"/><circle cx="434" cy="294" r="44.5" fill="#ffe352"/><path fill="#6e83b7" d="M434,288c-3.859,0-7-3.14-7-7s3.141-7,7-7s7,3.14,7,7h12c0-8.378-5.458-15.494-13-18.014v-6.872h-12v6.872c-7.542,2.519-13,9.635-13,18.014c0,10.477,8.523,19,19,19c3.859,0,7,3.14,7,7s-3.141,7-7,7s-7-3.14-7-7h-12c0,8.378,5.458,15.494,13,18.014v6.872h12v-6.872c7.542-2.519,13-9.635,13-18.014C453,296.523,444.477,288,434,288z"/><rect width="112" height="38" x="378" y="350" fill="#ffe352"/><polygon fill="#ffb236" points="475.6 378 475.6 363 465.6 363 465.6 378 451.2 378 451.2 363 441.2 363 441.2 378 426.8 378 426.8 363 416.8 363 416.8 378 402.4 378 402.4 363 392.4 363 392.4 378 378 378 378 388 490 388 490 378"/><rect width="112" height="38" x="378" y="388" fill="#ffe352"/><polygon fill="#ffb236" points="475.6 416 475.6 401 465.6 401 465.6 416 451.2 416 451.2 401 441.2 401 441.2 416 426.8 416 426.8 401 416.8 401 416.8 416 402.4 416 402.4 401 392.4 401 392.4 416 378 416 378 426 490 426 490 416"/><rect width="112" height="38" x="378" y="426" fill="#ffe352"/><polygon fill="#ffb236" points="475.6 454 475.6 439 465.6 439 465.6 454 451.2 454 451.2 439 441.2 439 441.2 454 426.8 454 426.8 439 416.8 439 416.8 454 402.4 454 402.4 439 392.4 439 392.4 454 378 454 378 464 490 464 490 454"/><g><rect width="112" height="38" x="378" y="464" fill="#ffe352"/><polygon fill="#ffb236" points="475.6 492 475.6 477 465.6 477 465.6 492 451.2 492 451.2 477 441.2 477 441.2 492 426.8 492 426.8 477 416.8 477 416.8 492 402.4 492 402.4 477 392.4 477 392.4 492 378 492 378 502 490 502 490 492"/></g><g><rect width="112" height="38" x="256" y="426" fill="#ffe352"/><polygon fill="#ffb236" points="353.6 454 353.6 439 343.6 439 343.6 454 329.2 454 329.2 439 319.2 439 319.2 454 304.8 454 304.8 439 294.8 439 294.8 454 280.4 454 280.4 439 270.4 439 270.4 454 256 454 256 464 368 464 368 454"/><rect width="112" height="38" x="256" y="464" fill="#ffe352"/><polygon fill="#ffb236" points="353.6 492 353.6 477 343.6 477 343.6 492 329.2 492 329.2 477 319.2 477 319.2 492 304.8 492 304.8 477 294.8 477 294.8 492 280.4 492 280.4 477 270.4 477 270.4 492 256 492 256 502 368 502 368 492"/></g></g></svg>