<svg width="19" height="19" viewBox="0 0 19 19" fill="none" xmlns="http://www.w3.org/2000/svg">
<path d="M0.996094 5.25533C1.16824 4.84045 1.39908 4.46182 1.64948 4.0993C3.11666 1.9685 5.08464 0.611067 7.58081 0.163961C10.48 -0.355649 13.0818 0.353276 15.308 2.38338C15.3901 2.45991 15.394 2.50019 15.3158 2.58075C14.5098 3.40246 13.7078 4.2282 12.9096 5.05796C12.8235 5.14658 12.7844 5.13047 12.7022 5.05796C11.6107 4.05902 10.3235 3.60789 8.87584 3.74081C6.50487 3.96235 4.93597 5.29964 4.05566 7.54323C4.04001 7.57948 4.02436 7.6117 4.01262 7.64796C3.77005 7.45058 3.52356 7.25724 3.27707 7.0639C2.79584 6.68124 2.31851 6.29053 1.83337 5.9119C1.55558 5.69036 1.29344 5.44868 0.996094 5.25533Z" fill="#C34131"/>
<path d="M15.3197 16.7289C14.8463 17.1881 14.3142 17.5708 13.743 17.889C12.6631 18.4932 11.505 18.8275 10.2804 18.9483C8.90324 19.0893 7.55343 18.9604 6.24275 18.4892C4.09479 17.7118 2.4359 16.314 1.26998 14.296C1.16434 14.1148 1.05479 13.9416 0.988281 13.7402C1.02349 13.716 1.06262 13.6999 1.09392 13.6717C1.62602 13.2487 2.15811 12.8218 2.69412 12.3988C3.13232 12.0484 3.57052 11.702 4.00872 11.3516C4.20434 11.8873 4.43909 12.4029 4.77165 12.8701C5.71456 14.1993 6.96265 15.0251 8.55111 15.2345C9.88136 15.4077 11.1529 15.1701 12.3071 14.4249C12.3345 14.4088 12.3658 14.3927 12.3932 14.3766C12.5771 14.5176 12.7649 14.6545 12.9448 14.7995C13.5669 15.295 14.189 15.7904 14.8072 16.2939C14.9872 16.4389 15.1789 16.5517 15.3197 16.7289Z" fill="#61A053"/>
<path d="M14.2618 11.4719C14.2618 11.4599 14.2579 11.4478 14.2579 11.4397C14.2149 11.3672 14.1445 11.3874 14.0819 11.3874C12.5443 11.3874 11.0067 11.3874 9.46905 11.3874C9.28125 11.3874 9.28125 11.3874 9.28125 11.198C9.28125 10.1266 9.28125 9.05515 9.28125 7.97968C9.28125 7.78231 9.28125 7.77828 9.47687 7.77828C12.2195 7.77828 14.9583 7.77828 17.7009 7.77828C17.7244 7.77828 17.7479 7.77828 17.7713 7.77828C17.8535 7.77023 17.8887 7.81453 17.9005 7.89107C17.9122 7.99579 17.9161 8.10052 17.9357 8.20122C18.01 8.5718 18.0257 8.95043 18.0374 9.32503C18.0491 9.73991 18.0648 10.1548 18.0139 10.5656C17.9748 10.8798 17.967 11.198 17.9044 11.5082C17.8535 11.77 17.8105 12.0359 17.744 12.2977C17.6853 12.5313 17.6383 12.7649 17.5601 12.9945C17.4583 13.2926 17.3566 13.5907 17.2236 13.8767C17.1101 14.1224 17.0045 14.3681 16.8754 14.6057C16.8167 14.7145 16.7228 14.8152 16.7345 14.9562C16.5702 15.0246 16.5389 15.1857 16.488 15.3308C16.3198 15.4395 16.2376 15.6167 16.1516 15.7899C16.1359 15.798 16.1124 15.798 16.1007 15.8101C15.9129 16.0075 15.7525 16.229 15.5451 16.4062C15.4982 16.4465 15.4278 16.4666 15.4043 16.5392C15.3808 16.6197 15.3339 16.6117 15.2791 16.5714C15.0952 16.4304 14.9035 16.2975 14.7274 16.1444C14.2501 15.7336 13.7454 15.367 13.2642 14.9682C13.0568 14.795 12.8416 14.6379 12.6303 14.4728C12.556 14.4164 12.513 14.3681 12.6225 14.2835C12.9159 14.0579 13.1781 13.8001 13.405 13.5061C13.4637 13.4295 13.5459 13.3611 13.538 13.2483C13.5967 13.2443 13.628 13.204 13.6515 13.1556C13.761 12.9381 13.9058 12.7488 13.9958 12.5152C14.121 12.193 14.2227 11.8667 14.301 11.5324C14.3088 11.4921 14.2931 11.48 14.2618 11.4719Z" fill="#557BE8"/>
<path d="M4.01274 11.3523C3.57454 11.7027 3.13634 12.0491 2.69814 12.3996C2.16604 12.8225 1.63395 13.2495 1.09794 13.6724C1.06664 13.6966 1.02751 13.7167 0.9923 13.7409C0.839713 13.5153 0.753639 13.2575 0.655827 13.0078C0.299791 12.1015 0.0963414 11.1589 0.0259167 10.1842C-0.0718954 8.84284 0.108079 7.54583 0.550189 6.28104C0.663652 5.9588 0.792764 5.64059 0.941438 5.33447C0.957088 5.30627 0.964913 5.27002 0.996213 5.25391C1.29356 5.44725 1.5557 5.68893 1.83348 5.90644C2.31863 6.28507 2.79595 6.67578 3.27719 7.05844C3.51976 7.25179 3.76625 7.44513 4.01274 7.63847C3.88754 8.10169 3.77408 8.56894 3.74278 9.0523C3.69191 9.76928 3.76234 10.4701 3.96579 11.1549C3.98535 11.2234 3.99709 11.2878 4.01274 11.3523Z" fill="#DFB32B"/>
<path d="M16.7307 14.9612C16.719 14.8202 16.8129 14.7195 16.8716 14.6108C17.0007 14.3731 17.1063 14.1234 17.2198 13.8817C17.3528 13.5957 17.4584 13.2976 17.5562 12.9996C17.6306 12.774 17.6775 12.5363 17.7401 12.3027C17.8066 12.0409 17.8497 11.7751 17.9005 11.5132C17.9631 11.2031 17.971 10.8849 18.0101 10.5707C18.061 10.1598 18.0453 9.74495 18.0336 9.33007C18.0218 8.95546 18.0062 8.57683 17.9318 8.20626C17.9123 8.10556 17.9084 8.00083 17.8966 7.8961C17.8888 7.81554 17.8497 7.77526 17.7675 7.78332C17.744 7.78735 17.7206 7.78332 17.6971 7.78332C14.9544 7.78332 12.2157 7.78332 9.47306 7.78332C9.27743 7.78332 9.27743 7.78332 9.27743 7.98472C9.27743 9.05616 9.27743 10.1276 9.27743 11.2031C9.27743 11.3924 9.27743 11.3924 9.46523 11.3924C11.0028 11.3924 12.5404 11.3924 14.078 11.3924C14.1406 11.3924 14.2111 11.3682 14.2541 11.4448C13.4481 11.4448 12.6422 11.4407 11.8362 11.4407C11.0107 11.4407 10.189 11.4367 9.36351 11.4448C9.25396 11.4448 9.22266 11.4166 9.22266 11.2997C9.22657 10.1518 9.22657 9.0038 9.22266 7.8518C9.22266 7.74304 9.25396 7.71484 9.35568 7.71484C12.157 7.71887 14.9584 7.71887 17.7597 7.71484C17.8614 7.71484 17.924 7.72693 17.9436 7.85985C18.1901 9.46702 18.1353 11.0621 17.7167 12.633C17.5054 13.4306 17.1924 14.1878 16.7777 14.9008C16.7698 14.9209 16.7503 14.937 16.7307 14.9612Z" fill="#6282CA"/>
<path d="M13.5409 13.2461C13.5487 13.3589 13.4665 13.4274 13.4079 13.5039C13.1809 13.7979 12.9188 14.0557 12.6254 14.2813C12.5158 14.3659 12.5588 14.4142 12.6332 14.4706C12.8445 14.6357 13.0636 14.7969 13.267 14.966C13.7482 15.3688 14.2569 15.7354 14.7303 16.1422C14.9063 16.2953 15.0981 16.4282 15.2819 16.5692C15.3367 16.6135 15.3837 16.6175 15.4071 16.537C15.4306 16.4645 15.501 16.4443 15.548 16.404C15.7553 16.2268 15.9158 16.0053 16.1036 15.8079C16.1153 15.7958 16.1349 15.7958 16.1544 15.7878C16.1309 15.8925 16.0488 15.9529 15.9862 16.0254C15.7788 16.2711 15.5636 16.5088 15.3211 16.7222C15.1802 16.545 14.9846 16.4282 14.8124 16.2913C14.1943 15.7878 13.5722 15.2923 12.9501 14.7969C12.7701 14.6519 12.5823 14.5149 12.3984 14.3739C12.8366 14.0597 13.2161 13.6811 13.5409 13.2461Z" fill="#6282CA"/>
<path d="M14.2629 11.4688C14.2942 11.4728 14.3098 11.4889 14.302 11.5251C14.2237 11.8595 14.122 12.1898 13.9968 12.508C13.9068 12.7376 13.7621 12.9309 13.6525 13.1484C13.629 13.1968 13.5977 13.237 13.5391 13.2411C13.7621 12.8624 13.9851 12.4838 14.1064 12.0568C14.1611 11.8635 14.2081 11.6661 14.2629 11.4688Z" fill="#6282CA"/>
<path d="M16.1523 15.7951C16.2384 15.6219 16.3167 15.4447 16.4888 15.3359C16.4027 15.5091 16.2971 15.6662 16.1523 15.7951Z" fill="#6282CA"/>
<path d="M16.4844 15.3355C16.5352 15.1905 16.5665 15.0294 16.7309 14.9609C16.6643 15.0939 16.5939 15.2308 16.4844 15.3355Z" fill="#6282CA"/>
</svg>
