<svg xmlns="http://www.w3.org/2000/svg" xmlns:v="https://svgstorm.com"
viewBox = "0 0 80 88"
width="80"
height="88">
<g fill="None" fill-opacity="0.0" stroke="#F77A1E" stroke-opacity="1.00" stroke-width="0.3"><path d="
M 0.00 88.00 
L 80.00 88.00
L 80.00 0.00
L 0.00 0.00
L 0.00 88.00
M 71.00 77.00 
C 55.01 84.63 38.68 70.53 34.22 55.78 C 31.12 48.36 26.05 35.27 39.22 37.22 C 45.99 36.94 57.17 29.97 52.74 22.26 C 47.06 17.55 33.20 16.38 28.70 22.70 C 27.16 31.21 22.58 38.56 21.02 47.02 C 17.12 53.38 19.41 65.95 10.99 67.99 C -3.69 71.20 6.51 57.73 6.33 50.33 C 8.99 42.56 11.24 34.19 14.32 26.32 C 17.22 18.81 17.72 8.25 28.67 9.67 C 43.79 6.08 75.60 7.97 65.08 31.08 C 60.45 38.22 52.55 40.46 45.26 42.26 C 42.71 50.01 42.98 60.76 48.75 67.25 C 53.61 75.78 65.30 73.43 71.00 77.00 Z"/>
</g>
<g fill="None" fill-opacity="0.0" stroke="#FEFFFF" stroke-opacity="1.00" stroke-width="0.3"><path d="
M 71.00 77.00 
C 65.30 73.43 53.61 75.78 48.75 67.25 C 42.98 60.76 42.71 50.01 45.26 42.26 C 52.55 40.46 60.45 38.22 65.08 31.08 C 75.60 7.97 43.79 6.08 28.67 9.67 C 17.72 8.25 17.22 18.81 14.32 26.32 C 11.24 34.19 8.99 42.56 6.33 50.33 C 6.51 57.73 -3.69 71.20 10.99 67.99 C 19.41 65.95 17.12 53.38 21.02 47.02 C 22.58 38.56 27.16 31.21 28.70 22.70 C 33.20 16.38 47.06 17.55 52.74 22.26 C 57.17 29.97 45.99 36.94 39.22 37.22 C 26.05 35.27 31.12 48.36 34.22 55.78 C 38.68 70.53 55.01 84.63 71.00 77.00 Z"/>
</g>
<g fill="#F77A1E" fill-opacity="1.00" stroke="None"><path d="
M 0.00 88.00 
L 80.00 88.00
L 80.00 0.00
L 0.00 0.00
L 0.00 88.00 Z"/>
</g>
<g fill="#FEFFFF" fill-opacity="1.00" stroke="None"><path d="
M 71.00 77.00 
C 65.30 73.43 53.61 75.78 48.75 67.25 C 42.98 60.76 42.71 50.01 45.26 42.26 C 52.55 40.46 60.45 38.22 65.08 31.08 C 75.60 7.97 43.79 6.08 28.67 9.67 C 17.72 8.25 17.22 18.81 14.32 26.32 C 11.24 34.19 8.99 42.56 6.33 50.33 C 6.51 57.73 -3.69 71.20 10.99 67.99 C 19.41 65.95 17.12 53.38 21.02 47.02 C 22.58 38.56 27.16 31.21 28.70 22.70 C 33.20 16.38 47.06 17.55 52.74 22.26 C 57.17 29.97 45.99 36.94 39.22 37.22 C 26.05 35.27 31.12 48.36 34.22 55.78 C 38.68 70.53 55.01 84.63 71.00 77.00 Z"/>
</g>
</svg>