<svg xmlns="http://www.w3.org/2000/svg" data-name="Layer 1" viewBox="0 0 512 512"><path fill="#d7d0d6" d="m419.59 153.42.19-.09a6.29 6.29 0 0 0 .94-.61l.08-.05.08-.07a3.9 3.9 0 0 0 .38-.33l.17-.15c.14-.14.27-.28.4-.43l.09-.09a7.47 7.47 0 0 0 1.8-4.87v-40.06a7.5 7.5 0 1 0-15 0v19.9A211.91 211.91 0 0 0 350 82.89a210.7 210.7 0 0 0-188 0 212.2 212.2 0 0 0-58.74 43.68v-19.9a7.5 7.5 0 1 0-15 0v40.06a7.44 7.44 0 0 0 1.8 4.86l.1.12c.13.14.25.28.39.41l.18.16c.12.11.24.22.37.32l.08.07.18.12a3.62 3.62 0 0 0 .32.22 2.85 2.85 0 0 0 .37.23l.22.13.5.23.12.06.62.23a7.68 7.68 0 0 0 2.6.33h39.68a7.5 7.5 0 0 0 0-15h-23.9a195.24 195.24 0 0 1 288.12 0h-23.9a7.5 7.5 0 0 0 0 15H417.02a4.5 4.5 0 0 0 .51-.08 6.21 6.21 0 0 0 .85-.21l.33-.12a6.81 6.81 0 0 0 .88-.39zM86.36 367.7a7.5 7.5 0 0 0-13 7.44c2 3.54 4.18 7.07 6.41 10.5a7.5 7.5 0 1 0 12.57-8.19c-2.1-3.18-4.1-6.45-5.98-9.75zm23.24 32.47a7.5 7.5 0 1 0-11.24 9.92c2.7 3.06 5.53 6.09 8.4 9a7.5 7.5 0 0 0 10.65-10.57c-2.67-2.7-5.3-5.52-7.81-8.35zm38.7 33.69c-3.17-2.1-6.32-4.32-9.35-6.59a7.5 7.5 0 1 0-9 12c3.26 2.45 6.65 4.84 10.06 7.1a7.5 7.5 0 0 0 8.29-12.51zM373.37 427c-3 2.28-6.16 4.5-9.32 6.6a7.5 7.5 0 0 0 8.32 12.49c3.39-2.27 6.77-4.66 10-7.12a7.5 7.5 0 1 0-9-12zm-189.68 25.41c-3.52-1.41-7.06-2.94-10.5-4.56a7.5 7.5 0 0 0-6.37 13.58c3.71 1.74 7.52 3.39 11.31 4.91a7.61 7.61 0 0 0 2.78.53 7.5 7.5 0 0 0 2.78-14.46zm252.39-87.9a7.49 7.49 0 0 0-10.22 2.81c-1.88 3.31-3.88 6.6-5.95 9.78a7.5 7.5 0 0 0 12.59 8.16c2.22-3.42 4.37-7 6.4-10.52a7.51 7.51 0 0 0-2.82-10.23zm-22.83 34.67a7.5 7.5 0 0 0-10.58.68c-2.52 2.86-5.14 5.67-7.8 8.37a7.5 7.5 0 1 0 10.67 10.54c2.86-2.9 5.69-5.93 8.39-9a7.5 7.5 0 0 0-.68-10.59zM262.2 466.14h-.2c-3.8.12-7.63.12-11.44 0a7.5 7.5 0 0 0-.41 15c2 .06 3.93.08 5.88.08 2.13 0 4.29 0 6.42-.09a7.5 7.5 0 0 0-.22-15zm77.01-18.47c-3.43 1.61-6.95 3.15-10.45 4.56a7.5 7.5 0 0 0 2.79 14.46 7.69 7.69 0 0 0 2.8-.54c3.78-1.52 7.57-3.18 11.26-4.92a7.5 7.5 0 0 0-6.4-13.56zm-117.09 15.64c-3.73-.66-7.5-1.43-11.19-2.3a7.5 7.5 0 0 0-3.45 14.6c4 .93 8 1.77 12.06 2.47a7.13 7.13 0 0 0 1.3.11 7.5 7.5 0 0 0 1.28-14.88zm79.44-2.42c-3.68.88-7.45 1.66-11.18 2.33a7.5 7.5 0 0 0 1.3 14.88 8.6 8.6 0 0 0 1.32-.1c4-.72 8.08-1.56 12.05-2.51a7.5 7.5 0 1 0-3.49-14.59z"/><ellipse cx="256" cy="87.47" fill="#fedf30" rx="78.67" ry="79.97"/><path fill="#fed402" d="M294.14 17.53a80.57 80.57 0 0 1 10.53 39.94c0 44.16-35.22 80-78.67 80a77.32 77.32 0 0 1-38.14-10 78.4 78.4 0 0 0 68.14 40c43.45 0 78.67-35.8 78.67-80a80.14 80.14 0 0 0-40.53-69.94Z"/><path fill="#fe9738" d="M279.29 65.77h-6.08a32.77 32.77 0 0 0-4.44-10.4h10.52a7.5 7.5 0 0 0 0-15h-46.58a7.5 7.5 0 1 0 0 15h8.47a17.93 17.93 0 0 1 16.24 10.4h-24.71a7.5 7.5 0 0 0 0 15h24.71a17.93 17.93 0 0 1-16.24 10.4h-8.47a7.5 7.5 0 0 0-5.42 12.68l33.87 35.46A7.5 7.5 0 1 0 272 129l-22.73-23.79a33 33 0 0 0 23.94-24.39h6.07a7.5 7.5 0 0 0 0-15Z"/><path fill="#fe860a" d="M266.59 141.63A7.49 7.49 0 0 0 272 129l-3.83-4a78.44 78.44 0 0 1-13.92 7.14l6.9 7.22a7.45 7.45 0 0 0 5.44 2.27Z"/><path fill="#60b7ff" d="M303.73 504.5h-95.46a23.48 23.48 0 0 1-23.48-23.5A71.21 71.21 0 0 1 256 409.81 71.21 71.21 0 0 1 327.21 481a23.48 23.48 0 0 1-23.48 23.5Z"/><path fill="#26a6fe" d="M271.93 411.63A71 71 0 0 1 297.21 466a23.48 23.48 0 0 1-23.48 23.48h-87.35a23.47 23.47 0 0 0 21.89 15h95.46A23.48 23.48 0 0 0 327.21 481a71.21 71.21 0 0 0-55.28-69.37Z"/><path fill="#fed2a4" d="M256 419.69a38 38 0 0 1-38-38v-18l15-28.34c0-12.3-5-7.28 7.28-7.28h16.44c12.31 0 22.28-5 22.28 7.28l15 28.34v18a38 38 0 0 1-38 38Z"/><path fill="#ffbd86" d="M279 335.33c0-8.33-4.58-8.71-11.35-8.1L279 348.67v18a38 38 0 0 1-38 38 37.8 37.8 0 0 1-18.3-4.67 38 38 0 0 0 33.3 19.69 38 38 0 0 0 38-38v-18Z"/><path fill="#fd4755" d="M126.44 366.72H31a23.48 23.48 0 0 1-23.5-23.48A71.21 71.21 0 0 1 78.71 272a71.2 71.2 0 0 1 71.2 71.2 23.47 23.47 0 0 1-23.47 23.52Z"/><path fill="#fb2b3a" d="M94.64 273.85a71 71 0 0 1 25.27 54.39 23.47 23.47 0 0 1-23.47 23.48H9.08a23.49 23.49 0 0 0 21.9 15h95.46a23.47 23.47 0 0 0 23.47-23.48 71.22 71.22 0 0 0-55.27-69.39Z"/><path fill="#fed2a4" d="M78.71 281.91a38 38 0 0 1-38-38v-18l15-28.35c0-12.3-5-7.27 7.27-7.27h31.45c12.3 0 7.28-5 7.28 7.27l15 28.35v18a38 38 0 0 1-38 38Z"/><path fill="#ffbd86" d="M101.71 197.55c0-12.3 5-7.27-7.28-7.27h-3.64l10.92 20.62v18a38 38 0 0 1-38 38 37.84 37.84 0 0 1-18.31-4.69 38 38 0 0 0 33.31 19.69 38 38 0 0 0 38-38v-18Z"/><path fill="#fe7d43" d="M481 366.72h-95.44a23.47 23.47 0 0 1-23.47-23.48 71.2 71.2 0 0 1 71.2-71.2 71.21 71.21 0 0 1 71.21 71.2 23.48 23.48 0 0 1-23.5 23.48Z"/><path fill="#fd6930" d="M449.22 273.85a71 71 0 0 1 25.28 54.39 23.48 23.48 0 0 1-23.5 23.48h-87.33a23.47 23.47 0 0 0 21.89 15H481a23.48 23.48 0 0 0 23.48-23.48 71.22 71.22 0 0 0-55.26-69.39Z"/><path fill="#fed2a4" d="M433.29 281.91a38 38 0 0 1-38-38v-18l15-28.35c0-12.3-5-7.27 7.28-7.27H449c12.3 0 7.27-5 7.27 7.27l15 28.35v18a38 38 0 0 1-37.98 38Z"/><path fill="#ffbd86" d="M456.29 197.55c0-12.3 5-7.27-7.27-7.27h-3.64l10.91 20.62v18a38 38 0 0 1-38 38 37.83 37.83 0 0 1-18.3-4.69 38 38 0 0 0 33.3 19.69 38 38 0 0 0 38-38v-18Z"/><path fill="#7a6d79" d="M449 175.28h-31.43a22.28 22.28 0 0 0-22.28 22.27v28.35l32.21-10.61a40.48 40.48 0 0 1 35.26 4.86l8.53 5.75v-28.35A22.27 22.27 0 0 0 449 175.28Z"/><path fill="#685e68" d="M449 175.28h-15a22.27 22.27 0 0 1 22.27 22.27v19.07a40.67 40.67 0 0 1 6.47 3.53l8.53 5.75v-28.35A22.27 22.27 0 0 0 449 175.28Z"/><path fill="#7a6d79" d="M271.72 313.05h-31.44A22.28 22.28 0 0 0 218 335.33v28.34l32.2-10.61a40.48 40.48 0 0 1 35.26 4.87l8.54 5.74v-28.34a22.28 22.28 0 0 0-22.28-22.28Z"/><path fill="#685e68" d="M271.72 313.05h-15A22.28 22.28 0 0 1 279 335.33v19.07a39.38 39.38 0 0 1 6.46 3.53l8.54 5.74v-28.34a22.28 22.28 0 0 0-22.28-22.28Z"/><path fill="#7a6d79" d="M94.43 175.28H63a22.27 22.27 0 0 0-22.27 22.27v28.35l32.2-10.61a40.48 40.48 0 0 1 35.26 4.86l8.54 5.75v-28.35a22.28 22.28 0 0 0-22.3-22.27Z"/><path fill="#685e68" d="M94.43 175.28h-15a22.28 22.28 0 0 1 22.28 22.27v19.07a41 41 0 0 1 6.46 3.53l8.54 5.75v-28.35a22.28 22.28 0 0 0-22.28-22.27Z"/><path fill="#d7d0d6" d="M289.63 249.42a7.49 7.49 0 0 0-10.6 0L263.5 265v-67.57a7.5 7.5 0 0 0-15 0V265L233 249.42A7.5 7.5 0 0 0 222.37 260l28.33 28.33c.17.16.34.32.52.46l.26.2a4 4 0 0 0 .33.24l.32.2.31.18.33.16.33.15.33.12.36.13.34.09.38.09.39.06h2.15l.38-.06.39-.1.33-.08.36-.13.33-.12.34-.15c.11-.06.22-.1.32-.16l.32-.19.31-.19a3.81 3.81 0 0 0 .32-.24 2.69 2.69 0 0 0 .27-.2 4.69 4.69 0 0 0 .47-.42l.08-.07 28.36-28.3a7.5 7.5 0 0 0 0-10.58Z"/></svg>