<svg xmlns="http://www.w3.org/2000/svg" xmlns:xlink="http://www.w3.org/1999/xlink" viewBox="0 0 136 136"><pattern id="a" width="21.5" height="21.5" x="-438" y="-1898" overflow="visible" patternUnits="userSpaceOnUse" viewBox="0 -21.5 21.5 21.5"><path fill="none" d="M0-21.5h21.5V0H0z"/><path fill="#fff" d="M0-21.5h21.5V0H0z"/></pattern><path fill="#f37c5a" d="M127 67.4c0 34-27.5 61.5-61.5 61.5C31.7 128.9 4 101.5 4 67.4 4 33.6 31.5 6 65.5 6 99.4 6 127 33.5 127 67.4z"/><path fill="#f3f3f3" d="M81.1 16.4c-3.6 0-6.5 2.9-6.5 6.5v91H28.9L6.4 91.3V22.9c0-3.6 2.9-6.5 6.5-6.5h68.2z"/><path fill="#dad9d8" d="M94.1 38H74.6V22.9c0-3.6 2.9-6.5 6.5-6.5s6.5 2.9 6.5 6.5v8.6c0 3.5 2.9 6.5 6.5 6.5z"/><path fill="#f3f3f3" d="M107.1 16.4c-3.6 0-6.5 2.9-6.5 6.5v8.6c0 3.6-2.9 6.5-6.5 6.5s-6.5-2.9-6.5-6.5v-8.6c0-3.6-2.9-6.5-6.5-6.5h26z"/><path fill="#dad9d8" d="M113.7 22.9h-13c0-3.6 2.9-6.5 6.5-6.5 3.5 0 6.5 2.9 6.5 6.5zM28.9 91.3v22.5L6.4 91.3z"/><path fill="#7dcedc" d="M12.3 24.7h56.4v9.2H12.3z"/><path fill="#dad9d8" d="M12.3 38h27v2.3h-27z"/><path fill="#7dcedc" d="M41.6 38h27v2.3h-27zM12.3 42.7h27V45h-27z"/><path fill="#dad9d8" d="M41.6 42.7h27V45h-27zM12.3 47.5h27v2.3h-27z"/><path fill="#7dcedc" d="M41.6 47.5h27v2.3h-27zM12.3 52.2h27v2.3h-27z"/><path fill="#dad9d8" d="M41.6 52.2h27v2.3h-27zM12.3 57h27v2.3h-27z"/><path fill="#7dcedc" d="M41.6 57h27v2.3h-27zM12.3 61.7h27V64h-27z"/><path fill="#dad9d8" d="M41.6 61.7h27V64h-27zM12.3 66.5h27v2.3h-27z"/><path fill="#7dcedc" d="M41.6 66.5h27v2.3h-27zM12.3 71.3h27v2.3h-27z"/><path fill="#dad9d8" d="M41.6 71.3h27v2.3h-27zM12.3 76h27v2.3h-27z"/><path fill="#7dcedc" d="M41.6 76h27v2.3h-27zM12.3 80.8h27v2.3h-27z"/><path fill="#dad9d8" d="M41.6 80.8h27v2.3h-27zM12.3 85.5h27v2.3h-27z"/><path fill="#7dcedc" d="M41.6 85.5h27v2.3h-27z"/><path fill="#25313b" d="M95.9 54.1H82.4l2.3-9.7h8.9zM82.4 120.4h13.5l-2.3 9.6h-8.9zM78.5 55.1l-11.8 6.8-2.8-9.5 7.7-4.5zM99.9 119.3l11.7-6.8 2.8 9.6-7.7 4.4zM63.9 64.8l-6.8 11.7-7.2-6.8 4.4-7.7zM114.5 109.6l6.8-11.7 7.2 6.9-4.5 7.7zM56 80.5V94l-9.7-2.3v-8.9zM122.3 94V80.5l9.7 2.3v8.9zM57.1 97.9l6.8 11.7-9.6 2.9-4.4-7.7zM121.3 76.5l-6.8-11.7L124 62l4.5 7.7zM66.7 112.5l11.8 6.8-6.9 7.2-7.7-4.4zM111.6 61.9l-11.7-6.8 6.8-7.2 7.7 4.5z"/><circle cx="89.2" cy="87.2" r="36.5" fill="#474f59"/><path fill="#f3f3f3" d="M121 87.2c0 17.6-14.3 31.8-31.8 31.8-8.5 0-16.3-3.3-22-8.8l-.3-.3c-5.9-5.8-9.6-13.9-9.6-22.8 0-17.6 14.3-31.8 31.8-31.8 8.9 0 17 3.7 22.8 9.6l.3.3c5.5 5.8 8.8 13.5 8.8 22z"/><pattern id="b" patternTransform="translate(10.935 3.909)" xlink:href="#a"/><path fill="url(#b)" d="M121 87.2c0 17.6-14.3 31.8-31.8 31.8-8.5 0-16.3-3.3-22-8.8l-.3-.3c-5.4-5.7-8.8-13.4-8.8-22 0-17.6 14.3-31.8 31.8-31.8 8.5 0 16.3 3.3 22 8.8l.3.3c5.5 5.8 8.8 13.5 8.8 22z"/><path fill="#25313b" d="m89.2 94.7 1.1-7.5-1.1-22.3-1.1 22.3 1.1 7.5z"/><path fill="#474f59" d="m84.3 87.2 4.9 1.1 14.7-1.1-14.7-1.1-4.9 1.1z"/><path fill="#dad9d8" d="M88.7 56.9h1V61h-1zM88.7 113.4h1v4.1h-1zM115.4 86.7h4.1v1h-4.1zM58.9 86.7H63v1h-4.1z"/><path fill="#dad9d8" d="M74.9 60.7h.4v4.1h-.4z" transform="rotate(-30 75.049 62.752)"/><path fill="#dad9d8" d="M103.1 109.6h.4v4.1h-.4z" transform="rotate(-30 103.301 111.691)"/><path fill="#dad9d8" d="M64.5 71h.4v4.1h-.4z" transform="rotate(-60 64.72 73.092)"/><path fill="#dad9d8" d="M113.5 99.3h.4v4.1h-.4z" transform="rotate(-60 113.659 101.348)"/><path fill="#dad9d8" d="M62.7 101.1h4.1v.4h-4.1z" transform="rotate(-30 64.721 101.334)"/><path fill="#dad9d8" d="M111.6 72.9h4.1v.4h-4.1z" transform="rotate(-30 113.66 73.082)"/><path fill="#dad9d8" d="M73 111.5h4.1v.4H73z" transform="rotate(-60 75.068 111.67)"/><path fill="#dad9d8" d="M101.3 62.5h4.1v.4h-4.1z" transform="rotate(-60 103.324 62.73)"/><path fill="#f37c5a" d="m82.3 94 5.5-5.1 22.3-22.6-22.6 22.3-5.2 5.4z"/><circle cx="89.2" cy="87.2" r=".8" fill="#db674c"/></svg>