<?xml version="1.0" encoding="utf-8"?>
<!-- Generator: Adobe Illustrator 24.3.0, SVG Export Plug-In . SVG Version: 6.00 Build 0)  -->
<svg version="1.1" id="Layer_1" xmlns="http://www.w3.org/2000/svg" xmlns:xlink="http://www.w3.org/1999/xlink" x="0px" y="0px"
	 viewBox="0 0 672 204" style="enable-background:new 0 0 672 204;" xml:space="preserve">
<style type="text/css">
	.st0{font-family:'Poppins-SemiBold';}
	.st1{font-size:122.7333px;}
	.st2{fill:#FF9103;}
	.st3{font-family:'MicrosoftSansSerif';}
	.st4{font-size:39.9727px;}
	.st5{fill-rule:evenodd;clip-rule:evenodd;}
	.st6{fill:none;stroke:#231F20;stroke-width:0.75;stroke-miterlimit:2.6131;}
	.st7{font-family:'ArialMT';}
	.st8{font-size:16.1614px;}
</style>
<text transform="matrix(1 0 0 1 126.8984 114.2031)"><tspan x="0" y="0" class="st0 st1">oad</tspan><tspan x="244.48" y="0" class="st2 st0 st1">map</tspan></text>
<g>
	<text transform="matrix(1 0 0 1 93.4609 178.4678)" class="st3 st4">Integrate Innovate Succeed</text>
	<path class="st5" d="M200.74,129.18c-61.73,1.02-104.58-14.82-105.15-61.62c18.31-3.05,29.22-11.41,32.72-25.08
		c1.76-6.87,0.52-12.11-3.72-15.72c-4.25-3.61-11.69-5.41-22.32-5.41H59.46c-7.37,27.6-17.1,60.57-26.41,85.04h21.98
		c1.16-4.16,2.75-9.8,4.78-16.93c2.02-7.13,4-14.11,5.94-20.94c1.95-6.83,3.65-12.75,5.13-17.76c1.48-5.01,3.05-10.4,4.72-16.17
		c6.07-0.51,11.31-0.76,15.71-0.76c6.32,0,10.82,0.84,13.5,2.54c2.67,1.7,3.49,4.59,2.45,8.66c-1.02,3.99-3.67,7.49-7.94,10.5
		c-3.2,2.26-7.31,3.7-12.32,4.31c-4.61,0.56-8.86-0.09-13.45-0.43c3.08,10.04,4.86,22.89,9.34,32.15
		c15.75,32.49,60.34,42.94,118.01,40.81 M365.96,105.62l0.01-0.06h0.01C365.97,105.58,365.97,105.6,365.96,105.62z"/>
	<path class="st6" d="M651.8,15c5.28,0,9.57,4.28,9.57,9.57c0,5.28-4.29,9.57-9.57,9.57c-5.28,0-9.57-4.29-9.57-9.57
		C642.24,19.28,646.52,15,651.8,15L651.8,15z"/>
	<text transform="matrix(1 0 0 1 646.4727 29.7822)" class="st7 st8">R</text>
	<path class="st5" d="M200,129c0,0,75.97-0.81,194.99-32.9c0,0,151.01-42.1,188.78-54.7c0,0,44.23-12.39,57.58-14.82
		c0,0-104.35,30.43-109.33,32.05c0,0-120.07,37.33-139.54,40.36c0,0-120.47,32.34-192.47,33.02V129z"/>
</g>
</svg>
