<?xml version="1.0" encoding="utf-8"?>
<!-- Generator: Adobe Illustrator 24.3.0, SVG Export Plug-In . SVG Version: 6.00 Build 0)  -->
<svg version="1.0" id="Layer_1" xmlns="http://www.w3.org/2000/svg" xmlns:xlink="http://www.w3.org/1999/xlink" x="0px" y="0px"
	 viewBox="0 0 672 204" style="enable-background:new 0 0 672 204;" xml:space="preserve">
<style type="text/css">
	.st0{font-family:'Poppins-Italic';}
	.st1{font-size:122.7333px;}
	.st2{fill:#FF9103;}
	.st3{font-family:'MicrosoftSansSerif';}
	.st4{font-size:39.9727px;}
	.st5{fill-rule:evenodd;clip-rule:evenodd;}
	.st6{fill:none;stroke:#231F20;stroke-width:0.75;stroke-miterlimit:2.6131;}
	.st7{font-family:'ArialMT';}
	.st8{font-size:16.1614px;}
</style>
<text transform="matrix(1 0 0 1 126.8984 114.2031)"><tspan x="0" y="0" class="st0 st1">oad</tspan><tspan x="244.5" y="0" class="st2 st0 st1">map</tspan></text>
<g>
	<text transform="matrix(1 0 0 1 93.4609 178.4678)" class="st3 st4">Integrate Innovate Succeed</text>
	<path class="st5" d="M200.7,129.2c-61.7,1-104.6-14.8-105.1-61.6c18.3-3,29.2-11.4,32.7-25.1c1.8-6.9,0.5-12.1-3.7-15.7
		c-4.2-3.6-11.7-5.4-22.3-5.4H59.5C52.1,49,42.4,81.9,33,106.4h22c1.2-4.2,2.8-9.8,4.8-16.9c2-7.1,4-14.1,5.9-20.9
		c2-6.8,3.7-12.8,5.1-17.8c1.5-5,3-10.4,4.7-16.2c6.1-0.5,11.3-0.8,15.7-0.8c6.3,0,10.8,0.8,13.5,2.5c2.7,1.7,3.5,4.6,2.5,8.7
		c-1,4-3.7,7.5-7.9,10.5c-3.2,2.3-7.3,3.7-12.3,4.3c-4.6,0.6-8.9-0.1-13.5-0.4c3.1,10,4.9,22.9,9.3,32.2
		c15.7,32.5,60.3,42.9,118,40.8 M366,105.6L366,105.6L366,105.6C366,105.6,366,105.6,366,105.6z"/>
	<path class="st6" d="M651.8,15c5.3,0,9.6,4.3,9.6,9.6c0,5.3-4.3,9.6-9.6,9.6c-5.3,0-9.6-4.3-9.6-9.6C642.2,19.3,646.5,15,651.8,15
		L651.8,15z"/>
	<text transform="matrix(1 0 0 1 646.4727 29.7822)" class="st7 st8">R</text>
	<path class="st5" d="M200,129c0,0,76-0.8,195-32.9c0,0,151-42.1,188.8-54.7c0,0,44.2-12.4,57.6-14.8c0,0-104.3,30.4-109.3,32.1
		c0,0-120.1,37.3-139.5,40.4c0,0-120.5,32.3-192.5,33V129z"/>
</g>
</svg>
