<svg width="492" height="136" viewBox="0 0 492 136" fill="none" xmlns="http://www.w3.org/2000/svg">
<path d="M53.3257 105.228V127.891H50.5815V105.228H53.3257ZM61.0855 117.666V127.891H58.474V110.894H60.997V113.55H61.2183C61.6166 112.687 62.2215 111.993 63.033 111.469C63.8445 110.938 64.892 110.673 66.1757 110.673C67.3265 110.673 68.3334 110.909 69.1966 111.381C70.0597 111.846 70.731 112.554 71.2105 113.505C71.69 114.45 71.9298 115.645 71.9298 117.091V127.891H69.3183V117.268C69.3183 115.932 68.9716 114.892 68.2781 114.147C67.5847 113.395 66.633 113.019 65.4232 113.019C64.5896 113.019 63.8445 113.199 63.1879 113.561C62.5388 113.922 62.0261 114.45 61.6498 115.143C61.2736 115.837 61.0855 116.678 61.0855 117.666ZM84.0936 110.894V113.107H75.2854V110.894H84.0936ZM77.8526 106.822H80.4641V123.022C80.4641 123.76 80.5711 124.313 80.785 124.682C81.0063 125.043 81.2866 125.287 81.626 125.412C81.9727 125.53 82.3379 125.589 82.7215 125.589C83.0092 125.589 83.2452 125.574 83.4297 125.545C83.6141 125.508 83.7616 125.478 83.8723 125.456L84.4034 127.802C84.2264 127.869 83.9793 127.935 83.662 128.001C83.3448 128.075 82.9428 128.112 82.4559 128.112C81.7182 128.112 80.9952 127.953 80.287 127.636C79.5862 127.319 79.0034 126.836 78.5387 126.187C78.0813 125.537 77.8526 124.719 77.8526 123.73V106.822ZM94.9656 128.245C93.3278 128.245 91.9151 127.883 90.7274 127.16C89.5471 126.43 88.636 125.412 87.9942 124.106C87.3598 122.793 87.0426 121.266 87.0426 119.525C87.0426 117.784 87.3598 116.25 87.9942 114.922C88.636 113.587 89.5287 112.546 90.6721 111.801C91.8229 111.049 93.1655 110.673 94.7 110.673C95.5852 110.673 96.4594 110.82 97.3225 111.115C98.1856 111.41 98.9713 111.89 99.6795 112.554C100.388 113.21 100.952 114.081 101.373 115.165C101.793 116.25 102.003 117.585 102.003 119.171V120.278H88.9016V118.02H99.3475C99.3475 117.061 99.1557 116.205 98.7721 115.453C98.3959 114.701 97.8574 114.107 97.1565 113.671C96.4631 113.236 95.6442 113.019 94.7 113.019C93.6598 113.019 92.7598 113.277 92 113.793C91.2475 114.302 90.6684 114.966 90.2627 115.785C89.8569 116.604 89.6541 117.482 89.6541 118.419V119.923C89.6541 121.207 89.8754 122.295 90.318 123.188C90.768 124.073 91.3914 124.748 92.1881 125.213C92.9848 125.67 93.9106 125.899 94.9656 125.899C95.6516 125.899 96.2713 125.803 96.8246 125.611C97.3852 125.412 97.8684 125.117 98.2742 124.726C98.6799 124.328 98.9934 123.833 99.2147 123.243L101.738 123.951C101.472 124.807 101.026 125.56 100.399 126.209C99.7717 126.851 98.9971 127.352 98.075 127.714C97.1528 128.068 96.1164 128.245 94.9656 128.245ZM112.836 134.619C111.575 134.619 110.491 134.456 109.583 134.132C108.676 133.814 107.92 133.394 107.315 132.87C106.717 132.354 106.241 131.801 105.887 131.21L107.968 129.75C108.204 130.06 108.502 130.414 108.864 130.812C109.225 131.218 109.72 131.568 110.347 131.863C110.981 132.166 111.811 132.317 112.836 132.317C114.209 132.317 115.341 131.985 116.234 131.321C117.126 130.657 117.573 129.617 117.573 128.201V124.748H117.351C117.159 125.058 116.886 125.442 116.532 125.899C116.186 126.349 115.684 126.751 115.027 127.105C114.378 127.452 113.5 127.625 112.394 127.625C111.022 127.625 109.79 127.301 108.698 126.651C107.614 126.002 106.754 125.058 106.12 123.819C105.493 122.579 105.179 121.074 105.179 119.304C105.179 117.563 105.485 116.047 106.098 114.756C106.71 113.457 107.562 112.454 108.654 111.746C109.745 111.03 111.007 110.673 112.438 110.673C113.545 110.673 114.423 110.857 115.072 111.226C115.728 111.587 116.23 112.001 116.577 112.465C116.931 112.923 117.204 113.299 117.396 113.594H117.661V110.894H120.184V128.378C120.184 129.838 119.852 131.026 119.188 131.941C118.532 132.863 117.646 133.538 116.532 133.966C115.426 134.401 114.194 134.619 112.836 134.619ZM112.748 125.279C113.795 125.279 114.681 125.039 115.404 124.56C116.127 124.08 116.676 123.391 117.052 122.491C117.429 121.591 117.617 120.514 117.617 119.26C117.617 118.035 117.432 116.954 117.064 116.017C116.695 115.08 116.149 114.346 115.426 113.815C114.703 113.284 113.81 113.019 112.748 113.019C111.641 113.019 110.719 113.299 109.982 113.86C109.251 114.42 108.702 115.173 108.333 116.117C107.971 117.061 107.791 118.109 107.791 119.26C107.791 120.44 107.975 121.484 108.344 122.391C108.72 123.291 109.273 123.999 110.004 124.516C110.741 125.025 111.656 125.279 112.748 125.279ZM124.964 127.891V110.894H127.487V113.461H127.664C127.974 112.62 128.535 111.938 129.346 111.414C130.158 110.89 131.073 110.628 132.091 110.628C132.282 110.628 132.522 110.632 132.81 110.639C133.098 110.647 133.315 110.658 133.463 110.673V113.328C133.374 113.306 133.171 113.273 132.854 113.229C132.544 113.177 132.216 113.151 131.869 113.151C131.043 113.151 130.305 113.325 129.656 113.671C129.014 114.011 128.505 114.483 128.129 115.088C127.76 115.685 127.576 116.368 127.576 117.135V127.891H124.964ZM141.56 128.289C140.483 128.289 139.505 128.086 138.628 127.68C137.75 127.267 137.053 126.673 136.536 125.899C136.02 125.117 135.762 124.173 135.762 123.066C135.762 122.092 135.953 121.303 136.337 120.698C136.721 120.086 137.233 119.606 137.875 119.26C138.517 118.913 139.225 118.655 140 118.485C140.782 118.308 141.567 118.168 142.357 118.064C143.389 117.932 144.227 117.832 144.869 117.766C145.518 117.692 145.99 117.57 146.285 117.401C146.587 117.231 146.739 116.936 146.739 116.515V116.427C146.739 115.335 146.44 114.487 145.842 113.882C145.252 113.277 144.356 112.974 143.153 112.974C141.907 112.974 140.929 113.247 140.221 113.793C139.513 114.339 139.015 114.922 138.727 115.542L136.248 114.656C136.691 113.623 137.281 112.819 138.019 112.244C138.764 111.661 139.576 111.255 140.453 111.027C141.339 110.791 142.209 110.673 143.065 110.673C143.611 110.673 144.238 110.739 144.946 110.872C145.662 110.997 146.351 111.259 147.015 111.657C147.687 112.056 148.244 112.657 148.686 113.461C149.129 114.265 149.35 115.342 149.35 116.692V127.891H146.739V125.589H146.606C146.429 125.958 146.134 126.353 145.721 126.773C145.308 127.194 144.758 127.551 144.072 127.846C143.386 128.142 142.549 128.289 141.56 128.289ZM141.958 125.943C142.991 125.943 143.862 125.74 144.57 125.335C145.285 124.929 145.824 124.405 146.185 123.763C146.554 123.121 146.739 122.446 146.739 121.738V119.348C146.628 119.481 146.385 119.603 146.008 119.713C145.639 119.817 145.212 119.909 144.725 119.99C144.245 120.064 143.777 120.13 143.319 120.189C142.869 120.241 142.504 120.285 142.224 120.322C141.545 120.41 140.911 120.554 140.321 120.753C139.738 120.945 139.266 121.237 138.904 121.628C138.55 122.011 138.373 122.535 138.373 123.199C138.373 124.106 138.709 124.792 139.38 125.257C140.059 125.714 140.918 125.943 141.958 125.943ZM161.508 110.894V113.107H152.7V110.894H161.508ZM155.267 106.822H157.879V123.022C157.879 123.76 157.986 124.313 158.2 124.682C158.421 125.043 158.702 125.287 159.041 125.412C159.388 125.53 159.753 125.589 160.136 125.589C160.424 125.589 160.66 125.574 160.845 125.545C161.029 125.508 161.177 125.478 161.287 125.456L161.818 127.802C161.641 127.869 161.394 127.935 161.077 128.001C160.76 128.075 160.358 128.112 159.871 128.112C159.133 128.112 158.41 127.953 157.702 127.636C157.001 127.319 156.418 126.836 155.954 126.187C155.496 125.537 155.267 124.719 155.267 123.73V106.822ZM172.38 128.245C170.743 128.245 169.33 127.883 168.142 127.16C166.962 126.43 166.051 125.412 165.409 124.106C164.775 122.793 164.457 121.266 164.457 119.525C164.457 117.784 164.775 116.25 165.409 114.922C166.051 113.587 166.944 112.546 168.087 111.801C169.238 111.049 170.58 110.673 172.115 110.673C173 110.673 173.874 110.82 174.737 111.115C175.6 111.41 176.386 111.89 177.094 112.554C177.803 113.21 178.367 114.081 178.787 115.165C179.208 116.25 179.418 117.585 179.418 119.171V120.278H166.316V118.02H176.762C176.762 117.061 176.571 116.205 176.187 115.453C175.811 114.701 175.272 114.107 174.571 113.671C173.878 113.236 173.059 113.019 172.115 113.019C171.075 113.019 170.175 113.277 169.415 113.793C168.662 114.302 168.083 114.966 167.678 115.785C167.272 116.604 167.069 117.482 167.069 118.419V119.923C167.069 121.207 167.29 122.295 167.733 123.188C168.183 124.073 168.806 124.748 169.603 125.213C170.4 125.67 171.325 125.899 172.38 125.899C173.066 125.899 173.686 125.803 174.239 125.611C174.8 125.412 175.283 125.117 175.689 124.726C176.095 124.328 176.408 123.833 176.63 123.243L179.153 123.951C178.887 124.807 178.441 125.56 177.814 126.209C177.187 126.851 176.412 127.352 175.49 127.714C174.568 128.068 173.531 128.245 172.38 128.245ZM195.253 105.228V127.891H192.509V105.228H195.253ZM203.013 117.666V127.891H200.401V110.894H202.924V113.55H203.146C203.544 112.687 204.149 111.993 204.96 111.469C205.772 110.938 206.819 110.673 208.103 110.673C209.254 110.673 210.261 110.909 211.124 111.381C211.987 111.846 212.658 112.554 213.138 113.505C213.617 114.45 213.857 115.645 213.857 117.091V127.891H211.246V117.268C211.246 115.932 210.899 114.892 210.205 114.147C209.512 113.395 208.56 113.019 207.35 113.019C206.517 113.019 205.772 113.199 205.115 113.561C204.466 113.922 203.953 114.45 203.577 115.143C203.201 115.837 203.013 116.678 203.013 117.666ZM221.241 117.666V127.891H218.629V110.894H221.152V113.55H221.373C221.772 112.687 222.377 111.993 223.188 111.469C224 110.938 225.047 110.673 226.331 110.673C227.482 110.673 228.488 110.909 229.352 111.381C230.215 111.846 230.886 112.554 231.366 113.505C231.845 114.45 232.085 115.645 232.085 117.091V127.891H229.473V117.268C229.473 115.932 229.127 114.892 228.433 114.147C227.74 113.395 226.788 113.019 225.578 113.019C224.745 113.019 224 113.199 223.343 113.561C222.694 113.922 222.181 114.45 221.805 115.143C221.429 115.837 221.241 116.678 221.241 117.666ZM243.762 128.245C242.227 128.245 240.881 127.88 239.723 127.149C238.572 126.419 237.672 125.397 237.023 124.084C236.381 122.771 236.06 121.237 236.06 119.481C236.06 117.71 236.381 116.165 237.023 114.844C237.672 113.524 238.572 112.498 239.723 111.768C240.881 111.038 242.227 110.673 243.762 110.673C245.296 110.673 246.639 111.038 247.79 111.768C248.948 112.498 249.848 113.524 250.49 114.844C251.139 116.165 251.463 117.71 251.463 119.481C251.463 121.237 251.139 122.771 250.49 124.084C249.848 125.397 248.948 126.419 247.79 127.149C246.639 127.88 245.296 128.245 243.762 128.245ZM243.762 125.899C244.927 125.899 245.886 125.6 246.639 125.003C247.391 124.405 247.948 123.619 248.31 122.646C248.671 121.672 248.852 120.617 248.852 119.481C248.852 118.345 248.671 117.286 248.31 116.305C247.948 115.324 247.391 114.531 246.639 113.926C245.886 113.321 244.927 113.019 243.762 113.019C242.596 113.019 241.637 113.321 240.885 113.926C240.132 114.531 239.575 115.324 239.214 116.305C238.852 117.286 238.672 118.345 238.672 119.481C238.672 120.617 238.852 121.672 239.214 122.646C239.575 123.619 240.132 124.405 240.885 125.003C241.637 125.6 242.596 125.899 243.762 125.899ZM268.74 110.894L262.454 127.891H259.799L253.513 110.894H256.346L261.038 124.438H261.215L265.907 110.894H268.74ZM276.671 128.289C275.594 128.289 274.616 128.086 273.738 127.68C272.861 127.267 272.163 126.673 271.647 125.899C271.131 125.117 270.872 124.173 270.872 123.066C270.872 122.092 271.064 121.303 271.448 120.698C271.831 120.086 272.344 119.606 272.986 119.26C273.628 118.913 274.336 118.655 275.111 118.485C275.893 118.308 276.678 118.168 277.468 118.064C278.5 117.932 279.338 117.832 279.979 117.766C280.629 117.692 281.101 117.57 281.396 117.401C281.698 117.231 281.85 116.936 281.85 116.515V116.427C281.85 115.335 281.551 114.487 280.953 113.882C280.363 113.277 279.467 112.974 278.264 112.974C277.018 112.974 276.04 113.247 275.332 113.793C274.624 114.339 274.126 114.922 273.838 115.542L271.359 114.656C271.802 113.623 272.392 112.819 273.13 112.244C273.875 111.661 274.686 111.255 275.564 111.027C276.45 110.791 277.32 110.673 278.176 110.673C278.722 110.673 279.349 110.739 280.057 110.872C280.772 110.997 281.462 111.259 282.126 111.657C282.797 112.056 283.354 112.657 283.797 113.461C284.24 114.265 284.461 115.342 284.461 116.692V127.891H281.85V125.589H281.717C281.54 125.958 281.245 126.353 280.831 126.773C280.418 127.194 279.869 127.551 279.183 127.846C278.497 128.142 277.659 128.289 276.671 128.289ZM277.069 125.943C278.102 125.943 278.972 125.74 279.681 125.335C280.396 124.929 280.935 124.405 281.296 123.763C281.665 123.121 281.85 122.446 281.85 121.738V119.348C281.739 119.481 281.495 119.603 281.119 119.713C280.75 119.817 280.322 119.909 279.836 119.99C279.356 120.064 278.888 120.13 278.43 120.189C277.98 120.241 277.615 120.285 277.335 120.322C276.656 120.41 276.022 120.554 275.431 120.753C274.849 120.945 274.377 121.237 274.015 121.628C273.661 122.011 273.484 122.535 273.484 123.199C273.484 124.106 273.82 124.792 274.491 125.257C275.17 125.714 276.029 125.943 277.069 125.943ZM296.619 110.894V113.107H287.811V110.894H296.619ZM290.378 106.822H292.99V123.022C292.99 123.76 293.097 124.313 293.311 124.682C293.532 125.043 293.812 125.287 294.152 125.412C294.498 125.53 294.864 125.589 295.247 125.589C295.535 125.589 295.771 125.574 295.955 125.545C296.14 125.508 296.287 125.478 296.398 125.456L296.929 127.802C296.752 127.869 296.505 127.935 296.188 128.001C295.871 128.075 295.469 128.112 294.982 128.112C294.244 128.112 293.521 127.953 292.813 127.636C292.112 127.319 291.529 126.836 291.064 126.187C290.607 125.537 290.378 124.719 290.378 123.73V106.822ZM307.491 128.245C305.854 128.245 304.441 127.883 303.253 127.16C302.073 126.43 301.162 125.412 300.52 124.106C299.886 122.793 299.568 121.266 299.568 119.525C299.568 117.784 299.886 116.25 300.52 114.922C301.162 113.587 302.054 112.546 303.198 111.801C304.349 111.049 305.691 110.673 307.226 110.673C308.111 110.673 308.985 110.82 309.848 111.115C310.711 111.41 311.497 111.89 312.205 112.554C312.913 113.21 313.478 114.081 313.898 115.165C314.319 116.25 314.529 117.585 314.529 119.171V120.278H301.427V118.02H311.873C311.873 117.061 311.681 116.205 311.298 115.453C310.922 114.701 310.383 114.107 309.682 113.671C308.989 113.236 308.17 113.019 307.226 113.019C306.186 113.019 305.286 113.277 304.526 113.793C303.773 114.302 303.194 114.966 302.788 115.785C302.383 116.604 302.18 117.482 302.18 118.419V119.923C302.18 121.207 302.401 122.295 302.844 123.188C303.294 124.073 303.917 124.748 304.714 125.213C305.511 125.67 306.436 125.899 307.491 125.899C308.177 125.899 308.797 125.803 309.35 125.611C309.911 125.412 310.394 125.117 310.8 124.726C311.206 124.328 311.519 123.833 311.74 123.243L314.263 123.951C313.998 124.807 313.552 125.56 312.924 126.209C312.297 126.851 311.523 127.352 310.601 127.714C309.679 128.068 308.642 128.245 307.491 128.245ZM340.013 110.894C339.88 109.773 339.342 108.902 338.397 108.282C337.453 107.663 336.295 107.353 334.923 107.353C333.92 107.353 333.042 107.515 332.289 107.84C331.544 108.164 330.961 108.611 330.541 109.179C330.128 109.747 329.921 110.392 329.921 111.115C329.921 111.72 330.065 112.24 330.353 112.676C330.648 113.103 331.024 113.461 331.481 113.749C331.939 114.029 332.418 114.262 332.92 114.446C333.422 114.623 333.883 114.767 334.303 114.878L336.605 115.497C337.195 115.652 337.852 115.866 338.574 116.139C339.305 116.412 340.002 116.785 340.666 117.257C341.337 117.721 341.89 118.319 342.326 119.049C342.761 119.78 342.979 120.676 342.979 121.738C342.979 122.963 342.658 124.069 342.016 125.058C341.381 126.046 340.452 126.832 339.227 127.415C338.01 127.998 336.531 128.289 334.79 128.289C333.167 128.289 331.762 128.027 330.574 127.503C329.394 126.98 328.464 126.249 327.786 125.312C327.114 124.376 326.734 123.287 326.646 122.048H329.479C329.552 122.904 329.84 123.612 330.342 124.173C330.851 124.726 331.493 125.139 332.267 125.412C333.049 125.678 333.89 125.81 334.79 125.81C335.838 125.81 336.778 125.641 337.612 125.301C338.445 124.955 339.106 124.475 339.593 123.863C340.079 123.243 340.323 122.52 340.323 121.694C340.323 120.942 340.113 120.329 339.692 119.857C339.272 119.385 338.718 119.001 338.032 118.706C337.346 118.411 336.605 118.153 335.808 117.932L333.02 117.135C331.249 116.626 329.847 115.899 328.815 114.955C327.782 114.011 327.265 112.775 327.265 111.248C327.265 109.979 327.608 108.873 328.295 107.928C328.988 106.977 329.918 106.239 331.083 105.715C332.256 105.184 333.565 104.919 335.011 104.919C336.472 104.919 337.77 105.18 338.906 105.704C340.043 106.221 340.943 106.929 341.606 107.829C342.278 108.729 342.632 109.751 342.669 110.894H340.013ZM357.848 120.942V110.894H360.459V127.891H357.848V125.014H357.671C357.273 125.877 356.653 126.611 355.812 127.216C354.971 127.813 353.909 128.112 352.625 128.112C351.563 128.112 350.618 127.88 349.792 127.415C348.966 126.943 348.317 126.235 347.845 125.29C347.373 124.339 347.136 123.14 347.136 121.694V110.894H349.748V121.517C349.748 122.756 350.095 123.745 350.788 124.482C351.489 125.22 352.382 125.589 353.466 125.589C354.115 125.589 354.775 125.423 355.447 125.091C356.125 124.759 356.693 124.25 357.151 123.564C357.616 122.878 357.848 122.004 357.848 120.942ZM372.147 128.245C370.554 128.245 369.182 127.869 368.031 127.116C366.88 126.364 365.995 125.327 365.375 124.007C364.756 122.686 364.446 121.178 364.446 119.481C364.446 117.755 364.763 116.231 365.397 114.911C366.039 113.583 366.932 112.546 368.075 111.801C369.226 111.049 370.569 110.673 372.103 110.673C373.298 110.673 374.375 110.894 375.334 111.337C376.293 111.779 377.079 112.399 377.691 113.196C378.304 113.992 378.684 114.922 378.831 115.984H376.22C376.02 115.21 375.578 114.523 374.892 113.926C374.213 113.321 373.298 113.019 372.147 113.019C371.129 113.019 370.237 113.284 369.47 113.815C368.71 114.339 368.116 115.08 367.688 116.039C367.268 116.991 367.057 118.109 367.057 119.392C367.057 120.705 367.264 121.849 367.677 122.823C368.097 123.796 368.688 124.553 369.447 125.091C370.215 125.63 371.115 125.899 372.147 125.899C372.826 125.899 373.442 125.781 373.995 125.545C374.549 125.309 375.017 124.969 375.401 124.527C375.784 124.084 376.057 123.553 376.22 122.933H378.831C378.684 123.937 378.318 124.84 377.736 125.644C377.16 126.441 376.397 127.076 375.445 127.548C374.501 128.012 373.402 128.245 372.147 128.245ZM389.554 128.245C387.96 128.245 386.588 127.869 385.437 127.116C384.286 126.364 383.401 125.327 382.782 124.007C382.162 122.686 381.852 121.178 381.852 119.481C381.852 117.755 382.169 116.231 382.804 114.911C383.445 113.583 384.338 112.546 385.482 111.801C386.632 111.049 387.975 110.673 389.509 110.673C390.705 110.673 391.782 110.894 392.741 111.337C393.7 111.779 394.485 112.399 395.098 113.196C395.71 113.992 396.09 114.922 396.237 115.984H393.626C393.427 115.21 392.984 114.523 392.298 113.926C391.619 113.321 390.705 113.019 389.554 113.019C388.536 113.019 387.643 113.284 386.876 113.815C386.116 114.339 385.522 115.08 385.094 116.039C384.674 116.991 384.464 118.109 384.464 119.392C384.464 120.705 384.67 121.849 385.083 122.823C385.504 123.796 386.094 124.553 386.854 125.091C387.621 125.63 388.521 125.899 389.554 125.899C390.232 125.899 390.848 125.781 391.402 125.545C391.955 125.309 392.423 124.969 392.807 124.527C393.191 124.084 393.464 123.553 393.626 122.933H396.237C396.09 123.937 395.725 124.84 395.142 125.644C394.566 126.441 393.803 127.076 392.851 127.548C391.907 128.012 390.808 128.245 389.554 128.245ZM407.181 128.245C405.543 128.245 404.131 127.883 402.943 127.16C401.763 126.43 400.852 125.412 400.21 124.106C399.575 122.793 399.258 121.266 399.258 119.525C399.258 117.784 399.575 116.25 400.21 114.922C400.852 113.587 401.744 112.546 402.888 111.801C404.039 111.049 405.381 110.673 406.916 110.673C407.801 110.673 408.675 110.82 409.538 111.115C410.401 111.41 411.187 111.89 411.895 112.554C412.603 113.21 413.168 114.081 413.588 115.165C414.009 116.25 414.219 117.585 414.219 119.171V120.278H401.117V118.02H411.563C411.563 117.061 411.371 116.205 410.988 115.453C410.611 114.701 410.073 114.107 409.372 113.671C408.679 113.236 407.86 113.019 406.916 113.019C405.875 113.019 404.975 113.277 404.216 113.793C403.463 114.302 402.884 114.966 402.478 115.785C402.073 116.604 401.87 117.482 401.87 118.419V119.923C401.87 121.207 402.091 122.295 402.534 123.188C402.984 124.073 403.607 124.748 404.404 125.213C405.2 125.67 406.126 125.899 407.181 125.899C407.867 125.899 408.487 125.803 409.04 125.611C409.601 125.412 410.084 125.117 410.49 124.726C410.896 124.328 411.209 123.833 411.43 123.243L413.953 123.951C413.688 124.807 413.241 125.56 412.614 126.209C411.987 126.851 411.213 127.352 410.291 127.714C409.368 128.068 408.332 128.245 407.181 128.245ZM425.318 128.245C423.68 128.245 422.267 127.883 421.08 127.16C419.899 126.43 418.988 125.412 418.346 124.106C417.712 122.793 417.395 121.266 417.395 119.525C417.395 117.784 417.712 116.25 418.346 114.922C418.988 113.587 419.881 112.546 421.024 111.801C422.175 111.049 423.518 110.673 425.052 110.673C425.937 110.673 426.812 110.82 427.675 111.115C428.538 111.41 429.323 111.89 430.032 112.554C430.74 113.21 431.304 114.081 431.725 115.165C432.145 116.25 432.355 117.585 432.355 119.171V120.278H419.254V118.02H429.7C429.7 117.061 429.508 116.205 429.124 115.453C428.748 114.701 428.209 114.107 427.509 113.671C426.815 113.236 425.996 113.019 425.052 113.019C424.012 113.019 423.112 113.277 422.352 113.793C421.6 114.302 421.021 114.966 420.615 115.785C420.209 116.604 420.006 117.482 420.006 118.419V119.923C420.006 121.207 420.227 122.295 420.67 123.188C421.12 124.073 421.743 124.748 422.54 125.213C423.337 125.67 424.263 125.899 425.318 125.899C426.004 125.899 426.623 125.803 427.177 125.611C427.737 125.412 428.221 125.117 428.626 124.726C429.032 124.328 429.346 123.833 429.567 123.243L432.09 123.951C431.824 124.807 431.378 125.56 430.751 126.209C430.124 126.851 429.349 127.352 428.427 127.714C427.505 128.068 426.468 128.245 425.318 128.245ZM442.746 128.245C441.33 128.245 440.079 127.887 438.995 127.171C437.91 126.448 437.062 125.43 436.45 124.117C435.837 122.797 435.531 121.237 435.531 119.437C435.531 117.651 435.837 116.102 436.45 114.789C437.062 113.476 437.914 112.462 439.006 111.746C440.098 111.03 441.359 110.673 442.79 110.673C443.897 110.673 444.771 110.857 445.413 111.226C446.062 111.587 446.556 112.001 446.896 112.465C447.242 112.923 447.512 113.299 447.703 113.594H447.925V105.228H450.536V127.891H448.013V125.279H447.703C447.512 125.589 447.239 125.98 446.884 126.452C446.53 126.917 446.025 127.334 445.369 127.703C444.712 128.064 443.838 128.245 442.746 128.245ZM443.1 125.899C444.148 125.899 445.033 125.626 445.756 125.08C446.479 124.527 447.028 123.763 447.405 122.789C447.781 121.808 447.969 120.676 447.969 119.392C447.969 118.123 447.785 117.013 447.416 116.062C447.047 115.103 446.501 114.357 445.778 113.826C445.055 113.288 444.162 113.019 443.1 113.019C441.994 113.019 441.071 113.303 440.334 113.871C439.603 114.431 439.054 115.195 438.685 116.161C438.323 117.12 438.143 118.197 438.143 119.392C438.143 120.602 438.327 121.701 438.696 122.69C439.072 123.671 439.625 124.453 440.356 125.036C441.094 125.611 442.008 125.899 443.1 125.899Z" fill="white"/>
<path fill-rule="evenodd" clip-rule="evenodd" d="M21.33 6.57H54.7C62.99 6.57 68.79 7.97 72.1 10.79C75.41 13.6 76.38 17.69 75 23.04C72.27 33.69 63.76 40.21 49.49 42.59C50.25 105.06 147.65 96.76 250.08 72.92C250.08 72.92 250.19 72.89 250.32 72.86H245.43L248.09 65.12H247.87C241.34 71.08 233.82 74.05 225.31 74.05C220.53 74.05 216.59 73.02 213.5 70.97C210.41 68.92 208.36 66.21 207.36 62.83C206.36 59.46 206.39 55.69 207.46 51.52C209.13 45.04 212.05 39.61 216.23 35.25C220.41 30.88 225.32 27.62 230.95 25.47C236.58 23.32 242.6 22.24 249.02 22.24C252.9 22.24 256.55 22.57 259.96 23.23C262.19 15.69 263.77 10.13 264.69 6.56H280.7C279.08 11.12 276.92 17.53 274.21 25.76C271.5 34 269.14 41.44 267.14 48.09C265.31 54.15 263.2 61.56 260.81 70.29C260.8 70.32 260.8 70.34 260.79 70.37V70.36C353.26 48 447.09 14.6 474.96 10.62C451.32 14.23 356.12 48.97 260.28 72.25L260.12 72.84H257.86C159.98 96.43 62.08 107.69 39.6 61.3C36.1 54.08 34.72 44.07 32.31 36.24C35.89 36.51 39.2 37.01 42.8 36.57C46.71 36.09 49.91 34.97 52.41 33.21C55.74 30.86 57.8 28.13 58.6 25.02C59.41 21.85 58.78 19.6 56.69 18.27C54.6 16.95 51.1 16.29 46.17 16.29C42.74 16.29 38.65 16.49 33.92 16.89C32.61 21.39 31.39 25.59 30.24 29.49C29.09 33.39 27.76 38.01 26.24 43.33C24.72 48.66 23.18 54.1 21.6 59.65C20.02 65.21 18.78 69.61 17.88 72.85H0.740005C8.00001 53.79 15.59 28.08 21.33 6.57ZM260.26 72.26L260.27 72.21C260.27 72.23 260.27 72.24 260.26 72.26ZM113.95 22.25C123.43 22.25 130.17 24.5 134.17 29C138.17 33.5 139.28 39.65 137.5 47.46C135.81 54.6 131.59 60.82 124.82 66.12C118.05 71.41 109.4 74.06 98.87 74.06C92.3 74.06 87.06 72.95 83.15 70.74C79.24 68.52 76.66 65.54 75.42 61.81C74.17 58.07 74.13 53.95 75.28 49.46C77.32 41.52 81.79 35 88.69 29.91C95.61 24.79 104.03 22.25 113.95 22.25ZM111.46 31.97C106.38 31.97 102.03 33.49 98.42 36.53C94.8 39.58 92.21 44.01 90.64 49.83C89.55 54.06 90 57.54 92 60.25C93.99 62.96 97.26 64.32 101.82 64.32C106.97 64.32 111.29 62.63 114.77 59.26C118.25 55.89 120.6 51.82 121.82 47.06C122.92 42.76 122.68 39.17 121.11 36.29C119.54 33.41 116.31 31.97 111.46 31.97ZM158.21 25.23C167.53 23.25 175.81 22.25 183.05 22.25C197.98 22.25 204.22 26.58 201.77 35.25C200.48 39.42 199.06 43.85 197.52 48.55C195.98 53.25 194.65 57.41 193.53 61.05C192.41 64.69 191.31 68.63 190.22 72.86H174.66C176.72 67.17 179.5 58.64 183.02 47.26C181.5 48.25 179.16 49.15 176 49.94C172.85 50.73 169.75 51.54 166.7 52.37C163.65 53.2 161.09 54.22 159.02 55.45C156.95 56.67 155.66 58.28 155.15 60.26C154.22 63.9 156.7 65.85 162.61 66.12C166.84 65.92 170.04 65.39 172.2 64.53L167.16 73.26C162.24 73.79 158.82 74.05 156.88 74.05C150.16 74.05 145.45 72.76 142.76 70.18C140.06 67.6 139.25 64.22 140.32 60.06C141.47 55.56 144.14 52.15 148.32 49.84C152.5 47.53 157.04 45.84 161.93 44.78C166.83 43.72 171.92 42.51 177.2 41.16C182.47 39.81 185.41 37.97 186 35.65C186.9 32.14 183.92 30.39 177.05 30.39C173.39 30.39 169.4 30.8 165.09 31.63C160.77 32.46 157.17 33.4 154.29 34.46L158.21 25.23ZM256.73 33.16C254.4 32.37 251.96 31.97 249.42 31.97C242.25 31.97 236.41 33.79 231.89 37.43C227.38 41.07 224.44 45.5 223.11 50.73C222.01 55.03 222.4 58.37 224.29 60.75C226.18 63.13 229.18 64.32 233.29 64.32C237.47 64.32 241.15 62.91 244.33 60.1C247.52 57.29 250.01 53.53 251.81 48.84C253.65 44.01 255.29 38.79 256.73 33.16Z" fill="#174991"/>
<path fill-rule="evenodd" clip-rule="evenodd" d="M276.43 53.4L276.69 52.63L276.96 51.85L277.23 51.06L277.5 50.26L277.77 49.45L278.04 48.63L278.31 47.8L278.59 46.96L278.87 46.11L279.15 45.25L279.43 44.38L279.71 43.5L280 42.61L280.29 41.72L280.58 40.81L280.87 39.9L281.16 38.98L281.45 38.05L281.75 37.11L282.05 36.16L282.35 35.2L282.65 34.23L282.96 33.25L283.27 32.26L283.58 31.26L283.89 30.26L284.2 29.24L284.52 28.22L284.84 27.18L285.16 26.14L285.48 25.08L285.8 24.02L286.33 22.29H294.33L292.26 28.62L292.53 28.39L292.85 28.12L293.18 27.85L293.51 27.59L293.84 27.34L294.17 27.09L294.5 26.84L294.83 26.6L295.16 26.37L295.49 26.14L295.82 25.91L296.15 25.69L296.48 25.47L296.81 25.26L297.14 25.06L297.47 24.86L297.81 24.66L298.15 24.47L298.48 24.28L298.82 24.1L299.16 23.92L299.5 23.75L299.84 23.59L300.18 23.42L300.52 23.27L300.86 23.12L301.2 22.97L301.54 22.83L301.88 22.7L302.22 22.57L302.57 22.44L302.92 22.32L303.27 22.21L303.62 22.1L303.97 22L304.32 21.9L304.68 21.8L305.04 21.71L305.4 21.62L305.76 21.54L306.12 21.46L306.48 21.39L306.84 21.32L307.2 21.26L307.56 21.2L307.92 21.15L308.28 21.1L308.65 21.06L309.02 21.02L309.39 20.99L309.76 20.96L310.13 20.93L310.5 20.92L310.87 20.91L311.24 20.9H311.61H312.03L312.44 20.91L312.85 20.92L313.25 20.94L313.64 20.96L314.02 20.99L314.4 21.02L314.78 21.06L315.15 21.1L315.52 21.15L315.88 21.2L316.23 21.25L316.57 21.31L316.91 21.37L317.24 21.44L317.57 21.51L317.89 21.59L318.21 21.68L318.52 21.77L318.82 21.86L319.12 21.96L319.41 22.06L319.69 22.17L319.97 22.28L320.24 22.4L320.51 22.53L320.77 22.66L321.02 22.8L321.27 22.94L321.51 23.09L321.75 23.24L321.99 23.4L322.43 23.73L322.85 24.09L323.25 24.47L323.63 24.88L323.99 25.31L324.33 25.76L324.65 26.24L324.95 26.74L325.23 27.26L325.49 27.81L325.73 28.38L325.95 28.97L326.15 29.58L326.25 29.93L326.39 29.8L326.72 29.5L327.05 29.21L327.38 28.92L327.71 28.63L328.04 28.35L328.37 28.07L328.7 27.8L329.03 27.53L329.36 27.27L329.69 27.02L330.02 26.77L330.35 26.53L330.69 26.29L331.02 26.06L331.36 25.83L331.69 25.61L332.03 25.39L332.37 25.18L332.71 24.98L333.05 24.78L333.39 24.58L333.73 24.39L334.07 24.21L334.41 24.03L334.75 23.86L335.09 23.69L335.43 23.53L335.77 23.37L336.11 23.22L336.45 23.07L336.79 22.93L337.14 22.79L337.49 22.66L337.85 22.53L338.2 22.4L338.56 22.28L338.92 22.16L339.28 22.05L339.64 21.95L340 21.85L340.37 21.76L340.74 21.67L341.11 21.58L341.48 21.5L341.85 21.42L342.22 21.35L342.59 21.29L342.97 21.23L343.35 21.18L343.73 21.13L344.11 21.08L344.49 21.04L344.88 21L345.27 20.97L345.66 20.94L346.05 20.92L346.45 20.91L346.84 20.9L347.24 20.89H347.64L348.15 20.9L348.65 20.91L349.14 20.93L349.62 20.96L350.09 21L350.55 21.04L351.01 21.09L351.46 21.15L351.9 21.22L352.33 21.3L352.75 21.38L353.16 21.47L353.56 21.57L353.95 21.68L354.33 21.8L354.7 21.93L355.07 22.07L355.43 22.21L355.78 22.36L356.12 22.52L356.45 22.69L356.77 22.87L357.08 23.06L357.38 23.26L357.67 23.46L357.95 23.68L358.22 23.91L358.48 24.14L358.73 24.38L358.97 24.63L359.2 24.89L359.42 25.16L359.63 25.44L359.82 25.73L360.01 26.02L360.18 26.32L360.34 26.63L360.49 26.95L360.63 27.27L360.76 27.6L360.87 27.94L360.97 28.28L361.06 28.63L361.14 28.99L361.21 29.35L361.27 29.72L361.32 30.09L361.36 30.47L361.38 30.86L361.39 31.25V31.65L361.38 32.06L361.36 32.47L361.33 32.89L361.29 33.31L361.24 33.74L361.18 34.17L361.11 34.61L361.03 35.06L360.94 35.52L360.84 35.98L360.72 36.45L360.59 36.92L360.46 37.4L360.44 37.48L360.41 37.57L360.37 37.68L360.33 37.81L360.28 37.96L360.23 38.12L360.17 38.31L360.11 38.51L360.04 38.73L359.96 38.97L359.87 39.23L359.78 39.51L359.69 39.81L359.59 40.13L359.48 40.46L359.36 40.82L359.24 41.19L359.11 41.58L358.98 42L358.84 42.43L358.7 42.88L358.55 43.35L358.39 43.83L358.23 44.34L358.06 44.86L357.88 45.4L357.7 45.96L357.51 46.54L357.31 47.14L357.11 47.76L356.9 48.4L356.69 49.05L356.47 49.71L356.25 50.37L356.03 51.03L355.82 51.68L355.61 52.33L355.4 52.98L355.19 53.63L354.99 54.28L354.79 54.92L354.59 55.56L354.39 56.2L354.19 56.84L353.99 57.48L353.79 58.11L353.6 58.74L353.4 59.37L353.21 59.99L353.02 60.61L352.83 61.23L352.64 61.85L352.45 62.47L352.08 63.7L351.89 64.31L351.71 64.92L351.53 65.53L351.35 66.14L351.17 66.75L350.99 67.35L350.81 67.95L350.64 68.55L350.46 69.15L349.36 72.97H339.67L340.42 71.18L340.63 70.66L340.85 70.15L341.06 69.64L341.27 69.13L341.48 68.62L341.69 68.11L341.9 67.6L342.29 66.63L342.51 66.08L342.71 65.57L342.91 65.07L343.11 64.57L343.31 64.07L343.51 63.57L343.71 63.07L343.9 62.57L344.28 61.58L344.47 61.08L344.66 60.59L344.85 60.09L345.04 59.6L345.22 59.11L345.4 58.62L345.58 58.13L345.76 57.64L345.94 57.15L346.12 56.67L346.3 56.18L346.48 55.7L346.66 55.22L346.83 54.74L347 54.26L347.17 53.78L347.34 53.31L347.51 52.84L347.67 52.37L347.83 51.9L347.99 51.43L348.15 50.96L348.31 50.5L348.47 50.04L348.62 49.58L348.77 49.12L348.92 48.66L349.07 48.21L349.22 47.76L349.36 47.31L349.51 46.87L349.65 46.42L349.79 45.98L349.93 45.54L350.07 45.1L350.21 44.66L350.35 44.23L350.48 43.8L350.61 43.37L350.74 42.94L350.87 42.51L351 42.09L351.12 41.67L351.24 41.25L351.38 40.75L351.52 40.26L351.65 39.78L351.76 39.31L351.87 38.85L351.97 38.4L352.06 37.96L352.15 37.53L352.23 37.11L352.3 36.7L352.36 36.3L352.41 35.91L352.45 35.53L352.49 35.16L352.52 34.8L352.54 34.45L352.55 34.11V33.78V33.46L352.54 33.15L352.52 32.85L352.49 32.56L352.46 32.28L352.42 32.01L352.37 31.75L352.31 31.51L352.25 31.27L352.19 31.05L352.11 30.83L352.03 30.63L351.94 30.44L351.85 30.27L351.64 29.92L351.4 29.59L351.13 29.29L350.83 29.01L350.5 28.75L350.13 28.51L349.73 28.29L349.3 28L348.82 27.82L348.3 27.66L347.74 27.52L347.14 27.41L346.51 27.32L345.84 27.26L345.13 27.22L344.38 27.21L343.81 27.22L343.25 27.24L342.69 27.28L342.14 27.33L341.59 27.4L341.05 27.49L340.52 27.59L339.99 27.7L339.47 27.84L338.95 27.99L338.44 28.16L337.93 28.34L337.42 28.54L336.92 28.75L336.42 28.98L335.93 29.22L335.45 29.48L334.97 29.76L334.5 30.05L334.03 30.36L333.56 30.69L333.1 31.03L332.65 31.39L332.2 31.76L331.75 32.15L331.31 32.56L330.87 32.98L330.44 33.42L330.01 33.88L329.59 34.35L329.17 34.84L328.76 35.35L328.35 35.88L327.94 36.43L327.53 37L327.12 37.59L326.72 38.2L326.32 38.83L325.92 39.48L325.52 40.15L325.12 40.85L324.73 41.57L324.34 42.31L323.95 43.07L323.56 43.85L323.18 44.65L322.8 45.48L322.42 46.32L322.04 47.19L321.66 48.08L321.28 48.99L320.91 49.92L320.54 50.87L320.17 51.84L319.8 52.84L319.44 53.86L319.07 54.9L318.71 55.96L318.35 57.04L317.99 58.14L317.63 59.26L317.27 60.4L316.92 61.57L316.57 62.76L316.47 63.13L316.35 63.53L316.23 63.95L316.1 64.4L315.97 64.87L315.83 65.36L315.69 65.88L315.54 66.43L315.39 67L315.23 67.6L315.07 68.22L314.9 68.87L314.73 69.54L314.55 70.24L314.36 70.96L314.17 71.72L314.14 71.81L314.12 71.88L314.1 71.95L314.08 72.02L314.06 72.08L314.05 72.14L314.03 72.19L313.83 72.91H304.25L305 71.11L305.22 70.59L305.44 70.07L305.66 69.55L305.87 69.03L306.09 68.51L306.3 67.99L306.51 67.47L306.72 66.95L306.93 66.43L307.14 65.91L307.34 65.39L307.55 64.87L307.75 64.35L307.95 63.83L308.15 63.31L308.35 62.79L308.55 62.27L308.75 61.75L308.95 61.23L309.15 60.71L309.34 60.19L309.53 59.67L309.72 59.15L309.91 58.63L310.1 58.11L310.29 57.6L310.48 57.08L310.67 56.57L310.86 56.05L311.05 55.53L311.23 55.02L311.42 54.5L311.6 53.99L311.78 53.48L311.96 52.97L312.14 52.46L312.32 51.95L312.5 51.44L312.67 50.93L312.85 50.42L313.02 49.91L313.19 49.4L313.36 48.89L313.53 48.39L313.7 47.88L313.87 47.38L314.03 46.88L314.19 46.38L314.35 45.88L314.51 45.38L314.67 44.88L314.83 44.38L314.99 43.88L315.14 43.38L315.29 42.88L315.44 42.39L315.59 41.89L315.74 41.4L315.89 40.91L316.04 40.42L316.18 39.93L316.33 39.44L316.47 38.96L316.68 38.19L316.86 37.45L317.01 36.74L317.13 36.05L317.21 35.4L317.27 34.77L317.3 34.17V33.6L317.26 33.06L317.2 32.54L317.11 32.05L317 31.59L316.86 31.16L316.69 30.75L316.5 30.36L316.28 30L316.03 29.66L315.76 29.34L315.46 29.04L315.13 28.76L314.77 28.51L314.38 28.27L313.96 28.05L313.51 27.86L313.03 27.69L312.52 27.54L311.97 27.41L311.39 27.3L310.78 27.21L310.13 27.15L309.45 27.11L308.73 27.1L308.16 27.11L307.6 27.13L307.04 27.17L306.49 27.22L305.94 27.29L305.4 27.38L304.87 27.48L304.34 27.6L303.82 27.74L303.3 27.89L302.79 28.05L302.28 28.23L301.78 28.43L301.28 28.64L300.79 28.87L300.31 29.11L299.83 29.37L299.36 29.65L298.89 29.94L298.42 30.25L297.96 30.57L297.5 30.91L297.05 31.27L296.6 31.64L296.16 32.03L295.73 32.44L295.3 32.87L294.87 33.31L294.45 33.77L294.03 34.24L293.62 34.73L293.21 35.24L292.81 35.77L292.41 36.32L292.01 36.89L291.61 37.49L291.21 38.11L290.81 38.76L290.41 39.43L290.01 40.12L289.61 40.84L289.22 41.58L288.83 42.35L288.44 43.14L288.05 43.95L287.66 44.79L287.27 45.65L286.88 46.54L286.49 47.45L286.1 48.38L285.71 49.33L285.33 50.31L284.94 51.31L284.56 52.34L284.18 53.39L283.8 54.47L283.42 55.57L283.04 56.69L282.66 57.83L282.29 59L281.91 60.19L281.54 61.41L281.17 62.65L280.8 63.91L280.75 64.1L280.69 64.3L280.63 64.51L280.57 64.74L280.51 64.97L280.45 65.21L280.39 65.46L280.32 65.73L280.25 66L280.18 66.29L280.11 66.58L280.03 66.89L279.95 67.21L279.87 67.54L279.79 67.88L279.71 68.23L279.63 68.58L279.55 68.91L279.47 69.23L279.4 69.54L279.33 69.83L279.26 70.11L279.2 70.37L279.14 70.62L279.1 71L279.05 71.22L279 71.42L278.95 71.61L278.91 71.79L278.87 71.95L278.83 72.09L278.63 72.93H269.05L269.79 71.23L269.97 70.8L270.16 70.36L270.35 69.91L270.54 69.45L270.73 68.98L270.93 68.5L271.13 68L271.33 67.49L271.53 66.97L271.73 66.44L271.94 65.9L272.15 65.35L272.37 64.78L272.58 64.21L272.8 63.62L273.02 63.02L273.25 62.41L273.48 61.79L273.71 61.16L273.94 60.51L274.17 59.85L274.41 59.18L274.65 58.5L274.89 57.81L275.14 57.1L275.39 56.39L275.64 55.66L275.89 54.92L276.14 54.17L276.43 53.4ZM398.9 60.59L399.03 60.24L399.15 59.9L399.27 59.57L399.39 59.25L399.5 58.94L399.61 58.64L399.71 58.36L403.77 46.2L403.5 46.35L403.22 46.5L402.94 46.65L402.65 46.8L402.35 46.94L402.05 47.08L401.73 47.22L401.4 47.36L401.06 47.5L400.7 47.64L400.33 47.77L399.95 47.9L399.55 48.03L399.14 48.16L398.72 48.29L398.29 48.42L397.84 48.55L397.38 48.68L396.91 48.81L396.42 48.94L395.92 49.07L395.41 49.2L384.31 52.17L383.86 52.29L383.42 52.41L382.99 52.53L382.57 52.65L382.15 52.77L381.74 52.89L381.34 53.01L380.94 53.14L380.55 53.26L380.17 53.39L379.8 53.52L379.43 53.65L379.07 53.78L378.72 53.91L378.35 54L378.01 54.13L377.68 54.26L377.36 54.39L377.04 54.52L376.73 54.65L376.43 54.78L376.14 54.91L375.85 55.04L375.57 55.18L375.29 55.31L375.02 55.44L374.77 55.58L374.52 55.72L374.28 55.86L374.04 56L373.81 56.14L373.59 56.28L373.16 56.56L372.76 56.84L372.38 57.13L372.02 57.42L371.69 57.72L371.38 58.02L371.09 58.33L370.82 58.64L370.57 58.96L370.34 59.28L370.13 59.61L369.94 59.94L369.77 60.28L369.62 60.62L369.49 60.97L369.37 61.33L369.26 61.74L369.18 62.14L369.12 62.52L369.09 62.88L369.08 63.23L369.09 63.56L369.13 63.88L369.19 64.18L369.27 64.47L369.37 64.75L369.5 65.01L369.65 65.26L369.82 65.51L370.01 65.75L370.23 65.98L370.47 66.21L370.74 66.43L371.03 66.63L371.35 66.82L371.69 67L372.06 67.17L372.45 67.32L372.87 67.46L373.32 67.59L373.79 67.71L374.29 67.81L374.82 67.9L375.37 67.97L375.95 68.02L376.56 68.06L377.19 68.08L377.85 68.09H378.3H378.75L379.2 68.08L379.65 68.07L380.11 68.05L380.57 68.03L381.03 68L381.49 67.96L381.95 67.92L382.41 67.88L382.87 67.83L383.33 67.78L383.79 67.73L384.26 67.67L384.73 67.61L385.2 67.55L385.67 67.47L386.14 67.39L386.61 67.31L387.09 67.22L387.56 67.13L388.04 67.04L388.52 66.94L389 66.84L389.48 66.73L389.96 66.62L390.45 66.5L390.93 66.38L391.42 66.25L391.91 66.12L392.4 65.98L394.74 65.32L391.55 72.89L390.46 73.04L389.9 73.12L389.35 73.19L388.81 73.27L388.28 73.34L387.76 73.41L387.25 73.47L386.76 73.53L386.27 73.59L385.8 73.65L385.34 73.71L384.89 73.76L384.44 73.81L384.01 73.86L383.59 73.9L383.18 73.94L382.78 73.98L382.39 74.02L382 74.05L381.62 74.08L381.24 74.11L380.87 74.14L380.51 74.16L380.15 74.18L379.8 74.2L379.46 74.22L379.12 74.23L378.79 74.24L378.46 74.25H378.14H377.83H377.52H376.96L376.41 74.24L375.87 74.22L375.34 74.2L374.82 74.17L374.3 74.13L373.79 74.09L373.29 74.04L372.8 73.98L372.32 73.92L371.85 73.85L371.39 73.77L370.94 73.68L370.49 73.59L370.05 73.49L369.62 73.38L369.2 73.27L368.79 73.14L368.39 73.01L368 72.87L367.61 72.73L367.24 72.58L366.87 72.42L366.51 72.25L366.16 72.08L365.82 71.9L365.49 71.71L365.17 71.51L364.86 71.3L364.55 71.09L364.26 70.87L363.97 70.64L363.44 70.16L362.95 69.66L362.5 69.13L362.11 68.58L361.76 68.01L361.46 67.41L361.21 66.79L361.02 66.15L360.88 65.49L360.79 64.81L360.75 64.12L360.76 63.41L360.82 62.69L360.93 61.95L361.08 61.2L361.28 60.44L361.47 59.85L361.68 59.28L361.92 58.71L362.18 58.16L362.46 57.62L362.77 57.09L363.11 56.57L363.47 56.06L363.86 55.56L364.27 55.08L364.7 54.61L365.16 54.15L365.64 53.7L366.15 53.26L366.68 52.84L367.23 52.43L367.52 52.23L367.81 52.03L368.11 51.83L368.41 51.64L368.72 51.45L369.04 51.26L369.36 51.07L369.69 50.89L370.03 50.71L370.37 50.53L370.71 50.35L371.07 50.18L371.43 50.01L371.79 49.85L372.16 49.68L372.54 49.52L372.92 49.36L373.31 49.2L373.7 49.05L374.1 48.9L374.51 48.75L374.93 48.6L375.35 48.46L375.78 48.32L376.21 48.18L376.65 48.04L377.1 47.9L377.55 47.77L378.01 47.64L378.47 47.51L378.94 47.39L379.41 47.27L393.29 43.69L393.7 43.58L394.11 43.46L394.52 43.34L394.92 43.22L395.31 43.1L395.7 42.98L396.08 42.86L396.45 42.74L396.82 42.61L397.18 42.48L397.54 42.35L397.89 42.22L398.23 42.09L398.56 41.96L398.89 41.83L399.21 41.7L399.53 41.57L399.84 41.43L400.14 41.29L400.44 41.15L400.73 41.01L401.01 40.87L401.29 40.73L401.56 40.59L401.83 40.45L402.09 40.31L402.34 40.17L402.58 40.02L402.82 39.87L403.05 39.72L403.28 39.57L403.49 39.43L403.91 39.12L404.31 38.8L404.69 38.48L405.05 38.15L405.39 37.81L405.71 37.47L406.01 37.11L406.29 36.75L406.56 36.38L406.8 36L407.03 35.62L407.24 35.22L407.43 34.82L407.6 34.41L407.75 33.99L407.89 33.56L408 33.13L408.08 32.72L408.14 32.33L408.17 31.96V31.61L408.15 31.28L408.11 30.97L408.04 30.67L407.95 30.39L407.84 30.12L407.7 29.86L407.54 29.62L407.35 29.38L407.13 29.15L406.89 28.93L406.62 28.71L406.32 28.51L405.99 28.32L405.63 28.13L405.24 27.95L404.81 27.79L404.35 27.64L403.86 27.5L403.34 27.37L402.79 27.26L402.21 27.16L401.59 27.08L400.94 27.01L400.26 26.96L399.55 26.92L398.81 26.9L398.04 26.89H397.54L397.04 26.9L396.53 26.91L396.02 26.93L395.5 26.96L395 26.98L394.47 27.02L393.94 27.07L393.4 27.12L392.86 27.18L392.31 27.24L391.76 27.31L391.2 27.38L390.64 27.46L390.07 27.55L389.5 27.64L388.93 27.74L388.35 27.84L387.77 27.95L387.19 28.06L386.61 28.17L386.03 28.3L385.44 28.43L384.85 28.56L384.26 28.7L383.67 28.84L383.07 28.99L382.47 29.14L381.87 29.3L381.27 29.46L380.67 29.63L378.12 30.37L381.49 23.08L382.52 22.86L383.09 22.74L383.66 22.62L384.23 22.5L384.8 22.39L385.37 22.28L385.93 22.18L386.5 22.08L387.06 21.99L387.62 21.9L388.18 21.81L388.74 21.73L389.29 21.65L389.84 21.57L390.39 21.5L390.94 21.43L391.49 21.37L392.03 21.31L392.57 21.26L393.1 21.21L393.64 21.16L394.17 21.12L394.7 21.08L395.23 21.04L395.75 21.01L396.27 20.98L396.79 20.95L397.31 20.93L397.83 20.92L398.34 20.91L398.85 20.9H399.36H400.01L400.64 20.91L401.26 20.92L401.87 20.94L402.46 20.97L403.04 21L403.61 21.04L404.17 21.08L404.72 21.13L405.25 21.18L405.77 21.24L406.28 21.31L406.78 21.39L407.26 21.47L407.73 21.56L408.19 21.65L408.63 21.75L409.06 21.86L409.48 21.97L409.89 22.09L410.28 22.22L410.66 22.35L411.03 22.49L411.39 22.64L411.74 22.79L412.07 22.95L412.39 23.12L412.7 23.3L413 23.48L413.28 23.67L413.55 23.87L413.81 24.08L414.06 24.3L414.3 24.53L414.52 24.77L414.73 25.02L414.93 25.28L415.12 25.55L415.29 25.83L415.45 26.12L415.6 26.41L415.74 26.71L415.86 27.02L415.97 27.34L416.06 27.67L416.14 28L416.21 28.34L416.27 28.69L416.32 29.05L416.35 29.41L416.37 29.78L416.38 30.15V30.53L416.37 30.92L416.34 31.31L416.3 31.71L416.25 32.12L416.19 32.53L416.12 32.95L416.04 33.38L415.94 33.82L415.84 34.26L415.72 34.71L415.59 35.16L415.47 35.56L415.36 35.93L415.26 36.27L415.17 36.59L415.08 36.88L415 37.15L414.92 37.39L414.85 37.61L414.78 37.81L414.7 38L414.63 38.19L414.57 38.38L414.5 38.56L414.44 38.74L414.38 38.92L414.32 39.07L405.93 64.09L405.86 64.29L405.79 64.5L405.71 64.73L405.62 64.98L405.53 65.26L405.43 65.56L405.33 65.88L405.22 66.23L405.16 66.42L405.1 66.64L405.03 66.88L404.87 67.42L404.77 67.75L404.67 68.09L404.57 68.46L404.45 68.86L404.2 69.7L404.07 70.16L403.93 70.65L403.65 71.6L403.27 72.92H394.13L394.85 71.15L395.05 70.65L395.25 70.16L395.45 69.67L395.64 69.18L395.83 68.7L396.02 68.22L396.21 67.75L396.4 67.28L396.58 66.82L396.76 66.36L396.94 65.9L397.11 65.45L397.28 65L397.44 64.56L397.61 64.12L397.77 63.69L397.93 63.27L398.08 62.86L398.23 62.45L398.38 62.06L398.52 61.68L398.66 61.3L398.8 60.93L398.9 60.59ZM409.29 88.15L409.56 87.5L409.84 86.84L410.12 86.16L410.4 85.46L410.69 84.75L410.98 84.03L411.27 83.29L411.56 82.54L411.86 81.78L412.16 81L412.46 80.21L412.77 79.4L413.08 78.58L413.4 77.75L413.72 76.9L414.04 76.04L414.36 75.17L414.68 74.28L415.01 73.38L415.34 72.46L415.68 71.53L416.02 70.59L416.36 69.63L416.7 68.66L417.05 67.68L417.4 66.68L417.76 65.65L418.12 64.6L418.49 63.53L418.86 62.44L419.24 61.33L419.62 60.2L420.01 59.04L420.41 57.86L420.81 56.66L421.22 55.44L421.63 54.2L422.05 52.94L422.47 51.66L422.9 50.35L423.34 49.02L423.78 47.67L424.23 46.3L424.69 44.91L425.15 43.49L425.61 42.05L426.08 40.59L426.56 39.11L427.04 37.61L427.53 36.08L428.02 34.54L428.52 32.97L429.03 31.38L429.54 29.77L430.06 28.14L430.58 26.49L431.26 24.33L432.15 24.1L432.54 24L432.93 23.9L433.32 23.81L433.71 23.71L434.1 23.62L434.49 23.53L434.87 23.44L435.25 23.35L435.63 23.26L436.01 23.17L436.39 23.08L436.77 23L437.15 22.92L437.53 22.84L437.9 22.76L438.28 22.69L438.65 22.61L439.02 22.54L439.39 22.47L439.76 22.4L440.13 22.33L440.5 22.26L440.87 22.2L441.24 22.14L441.6 22.08L441.96 22.02L442.32 21.96L442.68 21.91L443.04 21.85L443.4 21.8L443.76 21.75L444.11 21.7L444.47 21.65L444.82 21.6L445.18 21.55L445.53 21.51L445.88 21.47L446.23 21.43L446.58 21.39L446.93 21.35L447.27 21.31L447.61 21.28L447.96 21.24L448.3 21.21L448.64 21.18L448.98 21.15L449.32 21.12L449.66 21.09L450 21.06L450.34 21.04L450.68 21.02L451.02 21L451.35 20.98L451.68 20.97L452.01 20.96L452.34 20.95L452.67 20.94L453 20.93L453.33 20.92H453.66L453.99 20.91H454.32H454.65L455.48 20.92L456.3 20.94L457.1 20.97L457.89 21.01L458.66 21.07L459.42 21.13L460.16 21.21L460.89 21.3L461.6 21.41L462.29 21.53L462.96 21.66L463.62 21.8L464.27 21.96L464.9 22.13L465.51 22.31L466.11 22.5L466.69 22.71L467.26 22.93L467.81 23.16L468.34 23.41L468.86 23.67L469.36 23.94L469.85 24.23L470.32 24.53L470.78 24.85L471.22 25.18L471.64 25.52L472.05 25.88L472.44 26.25L472.81 26.63L473.17 27.03L473.51 27.44L473.83 27.86L474.13 28.29L474.41 28.74L474.68 29.2L474.93 29.67L475.16 30.15L475.37 30.64L475.57 31.15L475.74 31.67L475.9 32.2L476.04 32.74L476.16 33.29L476.26 33.86L476.35 34.43L476.42 35.02L476.47 35.62L476.51 36.23L476.53 36.85V37.48L476.51 38.12L476.47 38.77L476.42 39.43L476.36 40.1L476.27 40.78L476.17 41.48L476.05 42.19L475.91 42.91L475.76 43.64L475.59 44.38L475.41 45.13L475.21 45.89L474.99 46.67L474.75 47.47L474.5 48.26L474.24 49.04L473.97 49.8L473.69 50.56L473.4 51.3L473.1 52.04L472.79 52.76L472.47 53.47L472.14 54.17L471.8 54.86L471.45 55.55L471.09 56.22L470.72 56.88L470.34 57.53L469.95 58.17L469.54 58.8L469.12 59.42L468.7 60.03L468.27 60.63L467.82 61.22L467.36 61.8L466.89 62.37L466.41 62.93L465.92 63.48L465.43 64.01L464.92 64.53L464.4 65.04L463.87 65.54L463.33 66.03L462.78 66.51L462.24 67L461.67 67.46L461.1 67.9L460.52 68.33L459.94 68.74L459.34 69.14L458.74 69.53L458.13 69.9L457.52 70.26L456.9 70.6L456.28 70.93L455.65 71.24L455.01 71.54L454.37 71.82L453.72 72.09L453.07 72.34L452.41 72.58L451.75 72.81L451.08 73.02L450.41 73.21L449.73 73.39L449.04 73.55L448.35 73.7L447.65 73.84L446.95 73.96L446.24 74.07L445.53 74.16L444.81 74.24L444.09 74.3L443.36 74.35L442.62 74.39L441.88 74.41L441.13 74.42H440.73L440.34 74.41L439.95 74.4L439.57 74.38L439.19 74.35L438.81 74.32L438.43 74.29L438.06 74.25L437.69 74.21L437.33 74.16L436.97 74.11L436.61 74.05L436.26 73.99L435.92 73.92L435.58 73.84L435.24 73.76L434.91 73.67L434.58 73.58L434.25 73.48L433.93 73.38L433.61 73.27L433.3 73.15L432.99 73.03L432.69 72.91L432.39 72.78L432.1 72.64L431.81 72.5L431.52 72.35L431.24 72.2L430.96 72.04L430.69 71.88L430.42 71.71L429.9 71.36L429.39 70.98L428.9 70.58L428.43 70.16L428 69.73L427.56 69.27L427.14 68.78L426.74 68.27L426.36 67.74L425.99 67.19L425.64 66.62L425.31 66.02L425.15 65.7L420.72 79.06L420.63 79.32L420.57 79.51L420.51 79.68L420.45 79.86L420.33 80.22L420.25 80.46L420.18 80.68L420.1 80.91L420.02 81.15L419.94 81.4L419.85 81.66L419.76 81.93L419.67 82.21L419.57 82.51L419.44 82.9L419.31 83.29L419.18 83.67L419.05 84.05L418.92 84.42L418.8 84.79L418.68 85.16L418.56 85.52L418.44 85.88L418.32 86.24L418.21 86.59L418.1 86.94L417.99 87.28L417.88 87.61L417.78 87.94L417.68 88.27L417.58 88.59L417.48 88.91L417.38 89.22L417.28 89.53L417.19 89.84L417.09 90.15L417 90.45L416.91 90.74L416.82 91.03L416.73 91.32L416.64 91.6L416.56 91.88L416.48 92.15L416.4 92.42L416.32 92.69L416.05 93.62H406.85L407.69 91.76L407.94 91.19L408.19 90.61L408.45 90.01L408.71 89.4L408.98 88.78L409.29 88.15ZM438.43 29.19L438.34 29.39L438.08 29.97L437.83 30.55L437.58 31.13L437.33 31.71L437.08 32.29L436.84 32.87L436.6 33.46L436.36 34.05L436.12 34.64L435.88 35.23L435.65 35.82L435.42 36.41L435.19 37L434.97 37.6L434.75 38.2L434.54 38.79L434.32 39.39L434.11 39.98L433.9 40.58L433.7 41.18L433.5 41.78L433.3 42.37L433.1 42.96L432.91 43.55L432.72 44.14L432.53 44.73L432.34 45.32L432.16 45.91L431.98 46.5L431.8 47.09L431.63 47.67L431.44 48.34L431.26 49L431.09 49.65L430.94 50.29L430.8 50.91L430.67 51.52L430.55 52.12L430.44 52.71L430.34 53.29L430.25 53.86L430.17 54.41L430.11 54.96L430.06 55.49L430 56.03L429.97 56.54L429.95 57.04L429.94 57.52V57.99L429.95 58.45L429.98 58.9L430.02 59.34L430.07 59.76L430.13 60.17L430.2 60.57L430.28 60.96L430.37 61.33L430.47 61.69L430.58 62.04L430.7 62.38L430.83 62.71L430.97 63.03L431.12 63.33L431.28 63.62L431.45 63.91L431.63 64.18L431.82 64.45L432.02 64.71L432.23 64.95L432.46 65.19L432.69 65.42L432.94 65.64L433.2 65.85L433.47 66.05L433.75 66.24L434.04 66.42L434.34 66.6L434.66 66.77L434.99 66.92L435.33 67.07L435.69 67.21L436.06 67.34L436.44 67.46L436.83 67.57L437.24 67.67L437.66 67.76L438.09 67.84L438.53 67.92L438.99 67.98L439.46 68.03L439.94 68.08L440.44 68.12L440.95 68.14L441.47 68.15H442H442.56L443.12 68.13L443.67 68.1L444.22 68.06L444.76 68.01L445.3 67.95L445.83 67.88L446.36 67.8L446.88 67.71L447.4 67.61L447.91 67.5L448.42 67.37L448.92 67.23L449.42 67.08L449.91 66.92L450.39 66.76L450.87 66.58L451.35 66.39L451.82 66.19L452.29 65.98L452.75 65.76L453.21 65.53L453.66 65.29L454.11 65.04L454.55 64.77L454.99 64.49L455.42 64.2L455.85 63.9L456.27 63.59L456.69 63.27L457.1 62.94L457.51 62.6L457.91 62.25L458.31 61.88L458.7 61.51L459.08 61.13L459.46 60.74L459.83 60.34L460.19 59.93L460.55 59.51L460.9 59.08L461.24 58.64L461.57 58.19L461.9 57.73L462.22 57.26L462.54 56.79L462.85 56.31L463.15 55.82L463.44 55.32L463.73 54.81L464.01 54.29L464.29 53.76L464.56 53.22L464.82 52.67L465.07 52.11L465.31 51.54L465.55 50.97L465.78 50.38L466.01 49.78L466.23 49.18L466.45 48.57L466.65 47.95L466.85 47.32L467.04 46.68L467.22 46.04L467.39 45.41L467.54 44.79L467.68 44.18L467.81 43.58L467.93 43L468.03 42.43L468.12 41.87L468.2 41.32L468.26 40.78L468.31 40.25L468.35 39.73L468.38 39.22L468.39 38.73V38.25L468.38 37.78L468.35 37.32L468.31 36.87L468.26 36.43L468.2 36L468.12 35.58L468.03 35.17L467.93 34.77L467.82 34.39L467.7 34.02L467.57 33.66L467.42 33.31L467.26 32.97L467.09 32.64L466.91 32.32L466.72 32.01L466.52 31.71L466.3 31.42L466.07 31.14L465.83 30.87L465.58 30.6L465.31 30.35L465.03 30.1L464.74 29.86L464.44 29.63L464.12 29.41L463.79 29.2L463.45 29L463.09 28.8L462.72 28.62L462.33 28.44L461.93 28.27L461.52 28.11L461.09 27.96L460.65 27.82L460.19 27.69L459.72 27.57L459.24 27.46L458.74 27.36L458.23 27.27L457.71 27.18L457.17 27.11L456.62 27.05L456.05 26.99L455.47 26.95L454.88 26.91L454.27 26.88L453.65 26.87H453.02H452.56L452.1 26.88L451.64 26.89L451.18 26.9L450.71 26.93L450.25 26.96L449.79 26.99L449.33 27.03L448.87 27.07L448.41 27.12L447.95 27.17L447.48 27.22L447.02 27.28L446.55 27.34L446.08 27.41L445.62 27.48L445.15 27.56L444.68 27.64L444.21 27.73L443.74 27.82L443.27 27.92L442.8 28.02L442.33 28.13L441.86 28.24L441.39 28.36L440.92 28.48L440.45 28.61L439.98 28.74L439.51 28.88L439.04 29.02L438.56 29.16L438.43 29.19Z" fill="#F48220"/>
<path d="M483.09 1.62C487.21 1.62 490.55 4.96 490.55 9.08C490.55 13.2 487.21 16.54 483.09 16.54C478.97 16.54 475.63 13.2 475.63 9.08C475.64 4.95 478.97 1.62 483.09 1.62Z" stroke="white" stroke-miterlimit="2.6131"/>
<path d="M480.047 12.5422V3.37958H483.143C483.859 3.37958 484.446 3.50187 484.906 3.74644C485.365 3.98803 485.705 4.3206 485.926 4.74413C486.146 5.16766 486.257 5.64936 486.257 6.18921C486.257 6.72907 486.146 7.20778 485.926 7.62534C485.705 8.04291 485.366 8.371 484.91 8.60961C484.454 8.84524 483.871 8.96305 483.161 8.96305H480.655V7.96089H483.125C483.614 7.96089 484.008 7.88931 484.306 7.74614C484.607 7.60297 484.825 7.40016 484.959 7.13768C485.096 6.87223 485.165 6.55607 485.165 6.18921C485.165 5.82235 485.096 5.50172 484.959 5.22731C484.822 4.95291 484.603 4.74115 484.302 4.59202C484 4.4399 483.602 4.36385 483.107 4.36385H481.156V12.5422H480.047ZM484.36 8.42618L486.615 12.5422H485.326L483.107 8.42618H484.36Z" fill="white"/>
</svg>
