<?xml version="1.0" encoding="utf-8"?>
<!-- Generator: Adobe Illustrator 24.3.0, SVG Export Plug-In . SVG Version: 6.00 Build 0)  -->
<svg version="1.1" id="Layer_1" xmlns="http://www.w3.org/2000/svg" xmlns:xlink="http://www.w3.org/1999/xlink" x="0px" y="0px"
	 viewBox="0 0 556.71 192.86" style="enable-background:new 0 0 556.71 192.86;" xml:space="preserve">
<style type="text/css">
	.st0{fill:#231F20;}
	.st1{font-family:'MicrosoftSansSerif';}
	.st2{font-size:31.1607px;}
	.st3{fill-rule:evenodd;clip-rule:evenodd;fill:#174991;}
	.st4{fill-rule:evenodd;clip-rule:evenodd;fill:#F48220;}
	.st5{fill:none;stroke:#231F20;stroke-miterlimit:2.6131;}
	.st6{font-family:'ArialMT';}
	.st7{font-size:12.5986px;}
</style>
<g>
	<text transform="matrix(1 0 0 1 86.8372 152.0514)" class="st0 st1 st2">Integrate Innovate Succeed</text>
	<path class="st3" d="M60.33,29.57H93.7c8.29,0,14.09,1.4,17.4,4.22c3.31,2.81,4.28,6.9,2.9,12.25
		c-2.73,10.65-11.24,17.17-25.51,19.55c0.76,62.47,98.16,54.17,200.59,30.33c0,0,0.11-0.03,0.24-0.06h-4.89l2.66-7.74h-0.22
		c-6.53,5.96-14.05,8.93-22.56,8.93c-4.78,0-8.72-1.03-11.81-3.08c-3.09-2.05-5.14-4.76-6.14-8.14c-1-3.37-0.97-7.14,0.1-11.31
		c1.67-6.48,4.59-11.91,8.77-16.27c4.18-4.37,9.09-7.63,14.72-9.78c5.63-2.15,11.65-3.23,18.07-3.23c3.88,0,7.53,0.33,10.94,0.99
		c2.23-7.54,3.81-13.1,4.73-16.67h16.01c-1.62,4.56-3.78,10.97-6.49,19.2c-2.71,8.24-5.07,15.68-7.07,22.33
		c-1.83,6.06-3.94,13.47-6.33,22.2c-0.01,0.03-0.01,0.05-0.02,0.08v-0.01c92.47-22.36,186.3-55.76,214.17-59.74
		c-23.64,3.61-118.84,38.35-214.68,61.63l-0.16,0.59l-2.26,0C198.98,119.43,101.08,130.69,78.6,84.3
		c-3.5-7.22-4.88-17.23-7.29-25.06c3.58,0.27,6.89,0.77,10.49,0.33c3.91-0.48,7.11-1.6,9.61-3.36c3.33-2.35,5.39-5.08,6.19-8.19
		c0.81-3.17,0.18-5.42-1.91-6.75c-2.09-1.32-5.59-1.98-10.52-1.98c-3.43,0-7.52,0.2-12.25,0.6c-1.31,4.5-2.53,8.7-3.68,12.6
		s-2.48,8.52-4,13.84c-1.52,5.33-3.06,10.77-4.64,16.32c-1.58,5.56-2.82,9.96-3.72,13.2H39.74C47,76.79,54.59,51.08,60.33,29.57
		L60.33,29.57z M299.26,95.26l0.01-0.05l0,0C299.27,95.23,299.27,95.24,299.26,95.26L299.26,95.26z M152.95,45.25
		c9.48,0,16.22,2.25,20.22,6.75c4,4.5,5.11,10.65,3.33,18.46c-1.69,7.14-5.91,13.36-12.68,18.66c-6.77,5.29-15.42,7.94-25.95,7.94
		c-6.57,0-11.81-1.11-15.72-3.32c-3.91-2.22-6.49-5.2-7.73-8.93c-1.25-3.74-1.29-7.86-0.14-12.35c2.04-7.94,6.51-14.46,13.41-19.55
		C134.61,47.79,143.03,45.25,152.95,45.25L152.95,45.25z M150.46,54.97c-5.08,0-9.43,1.52-13.04,4.56
		c-3.62,3.05-6.21,7.48-7.78,13.3c-1.09,4.23-0.64,7.71,1.36,10.42c1.99,2.71,5.26,4.07,9.82,4.07c5.15,0,9.47-1.69,12.95-5.06
		c3.48-3.37,5.83-7.44,7.05-12.2c1.1-4.3,0.86-7.89-0.71-10.77S155.31,54.97,150.46,54.97L150.46,54.97z M197.21,48.23
		c9.32-1.98,17.6-2.98,24.84-2.98c14.93,0,21.17,4.33,18.72,13c-1.29,4.17-2.71,8.6-4.25,13.3c-1.54,4.7-2.87,8.86-3.99,12.5
		c-1.12,3.64-2.22,7.58-3.31,11.81h-15.56c2.06-5.69,4.84-14.22,8.36-25.6c-1.52,0.99-3.86,1.89-7.02,2.68
		c-3.15,0.79-6.25,1.6-9.3,2.43c-3.05,0.83-5.61,1.85-7.68,3.08c-2.07,1.22-3.36,2.83-3.87,4.81c-0.93,3.64,1.55,5.59,7.46,5.86
		c4.23-0.2,7.43-0.73,9.59-1.59l-5.04,8.73c-4.92,0.53-8.34,0.79-10.28,0.79c-6.72,0-11.43-1.29-14.12-3.87
		c-2.7-2.58-3.51-5.96-2.44-10.12c1.15-4.5,3.82-7.91,8-10.22c4.18-2.31,8.72-4,13.61-5.06c4.9-1.06,9.99-2.27,15.27-3.62
		c5.27-1.35,8.21-3.19,8.8-5.51c0.9-3.51-2.08-5.26-8.95-5.26c-3.66,0-7.65,0.41-11.96,1.24c-4.32,0.83-7.92,1.77-10.8,2.83
		L197.21,48.23L197.21,48.23z M295.73,56.16c-2.33-0.79-4.77-1.19-7.31-1.19c-7.17,0-13.01,1.82-17.53,5.46
		c-4.51,3.64-7.45,8.07-8.78,13.3c-1.1,4.3-0.71,7.64,1.18,10.02c1.89,2.38,4.89,3.57,9,3.57c4.18,0,7.86-1.41,11.04-4.22
		c3.19-2.81,5.68-6.57,7.48-11.26C292.65,67.01,294.29,61.79,295.73,56.16L295.73,56.16z"/>
	<path class="st4" d="M315.43,76.4l0.26-0.77l0.27-0.78l0.27-0.79l0.27-0.8l0.27-0.81l0.27-0.82l0.27-0.83l0.28-0.84l0.28-0.85
		l0.28-0.86l0.28-0.87l0.28-0.88l0.29-0.89l0.29-0.89l0.29-0.91l0.29-0.91l0.29-0.92l0.29-0.93l0.3-0.94l0.3-0.95l0.3-0.96l0.3-0.97
		l0.31-0.98l0.31-0.99l0.31-1l0.31-1l0.31-1.02l0.32-1.02l0.32-1.04l0.32-1.04l0.32-1.06l0.32-1.06l0.53-1.73h8l-2.07,6.33
		l0.27-0.23l0.32-0.27l0.33-0.27l0.33-0.26l0.33-0.25l0.33-0.25l0.33-0.25l0.33-0.24l0.33-0.23l0.33-0.23l0.33-0.23l0.33-0.22
		l0.33-0.22l0.33-0.21l0.33-0.2l0.33-0.2l0.34-0.2l0.34-0.19l0.33-0.19l0.34-0.18l0.34-0.18l0.34-0.17l0.34-0.16l0.34-0.17
		l0.34-0.15l0.34-0.15l0.34-0.15l0.34-0.14l0.34-0.13l0.34-0.13l0.35-0.13l0.35-0.12l0.35-0.11l0.35-0.11l0.35-0.1l0.35-0.1
		l0.36-0.1l0.36-0.09l0.36-0.09l0.36-0.08l0.36-0.08l0.36-0.07l0.36-0.07l0.36-0.06l0.36-0.06l0.36-0.05l0.36-0.05l0.37-0.04
		l0.37-0.04l0.37-0.03l0.37-0.03l0.37-0.03l0.37-0.01l0.37-0.01l0.37-0.01l0.37,0l0.42,0l0.41,0.01l0.41,0.01l0.4,0.02l0.39,0.02
		l0.38,0.03l0.38,0.03l0.38,0.04l0.37,0.04l0.37,0.05l0.36,0.05l0.35,0.05l0.34,0.06l0.34,0.06l0.33,0.07l0.33,0.07l0.32,0.08
		l0.32,0.09l0.31,0.09l0.3,0.09l0.3,0.1l0.29,0.1l0.28,0.11l0.28,0.11l0.27,0.12l0.27,0.13l0.26,0.13l0.25,0.14l0.25,0.14l0.24,0.15
		l0.24,0.15l0.24,0.16l0.44,0.33l0.42,0.36l0.4,0.38l0.38,0.41l0.36,0.43l0.34,0.45l0.32,0.48l0.3,0.5l0.28,0.52l0.26,0.55
		l0.24,0.57l0.22,0.59l0.2,0.61l0.1,0.35l0.14-0.13l0.33-0.3l0.33-0.29l0.33-0.29l0.33-0.29l0.33-0.28l0.33-0.28l0.33-0.27
		l0.33-0.27l0.33-0.26l0.33-0.25l0.33-0.25l0.33-0.24l0.34-0.24l0.33-0.23l0.34-0.23l0.33-0.22l0.34-0.22l0.34-0.21l0.34-0.2
		l0.34-0.2l0.34-0.2l0.34-0.19l0.34-0.18l0.34-0.18l0.34-0.17l0.34-0.17l0.34-0.16l0.34-0.16l0.34-0.15l0.34-0.15l0.34-0.14
		l0.35-0.14l0.35-0.13l0.36-0.13l0.35-0.13l0.36-0.12l0.36-0.12l0.36-0.11l0.36-0.1l0.36-0.1l0.37-0.09l0.37-0.09l0.37-0.09
		l0.37-0.08l0.37-0.08l0.37-0.07l0.37-0.06l0.38-0.06l0.38-0.05l0.38-0.05l0.38-0.05l0.38-0.04l0.39-0.04l0.39-0.03l0.39-0.03
		l0.39-0.02l0.4-0.01l0.39-0.01l0.4-0.01l0.4,0l0.51,0.01l0.5,0.01l0.49,0.02l0.48,0.03l0.47,0.04l0.46,0.04l0.46,0.05l0.45,0.06
		l0.44,0.07l0.43,0.08l0.42,0.08l0.41,0.09l0.4,0.1l0.39,0.11l0.38,0.12l0.37,0.13l0.37,0.14l0.36,0.14l0.35,0.15l0.34,0.16
		l0.33,0.17l0.32,0.18l0.31,0.19l0.3,0.2l0.29,0.2l0.28,0.22l0.27,0.23l0.26,0.23l0.25,0.24l0.24,0.25l0.23,0.26l0.22,0.27
		l0.21,0.28l0.19,0.29l0.19,0.29l0.17,0.3l0.16,0.31l0.15,0.32l0.14,0.32l0.13,0.33l0.11,0.34l0.1,0.34l0.09,0.35l0.08,0.36
		l0.07,0.36l0.06,0.37l0.05,0.37l0.04,0.38l0.02,0.39l0.01,0.39l0,0.4l-0.01,0.41l-0.02,0.41l-0.03,0.42l-0.04,0.42l-0.05,0.43
		l-0.06,0.43l-0.07,0.44l-0.08,0.45l-0.09,0.46l-0.1,0.46l-0.12,0.47l-0.13,0.47l-0.13,0.48l-0.02,0.08l-0.03,0.09l-0.04,0.11
		l-0.04,0.13l-0.05,0.15l-0.05,0.16l-0.06,0.19l-0.06,0.2l-0.07,0.22l-0.08,0.24l-0.09,0.26l-0.09,0.28l-0.09,0.3l-0.1,0.32
		l-0.11,0.33l-0.12,0.36l-0.12,0.37l-0.13,0.39L397.98,65l-0.14,0.43l-0.14,0.45l-0.15,0.47l-0.16,0.48l-0.16,0.51l-0.17,0.52
		l-0.18,0.54l-0.18,0.56l-0.19,0.58l-0.2,0.6l-0.2,0.62l-0.21,0.64l-0.21,0.65l-0.22,0.66l-0.22,0.66l-0.22,0.66l-0.21,0.65
		l-0.21,0.65l-0.21,0.65l-0.21,0.65l-0.2,0.65l-0.2,0.64l-0.2,0.64l-0.2,0.64l-0.2,0.64l-0.2,0.64l-0.2,0.63l-0.19,0.63l-0.2,0.63
		l-0.19,0.62l-0.19,0.62l-0.19,0.62l-0.19,0.62l-0.19,0.62l-0.37,1.23l-0.19,0.61l-0.18,0.61l-0.18,0.61l-0.18,0.61l-0.18,0.61
		l-0.18,0.6l-0.18,0.6l-0.17,0.6l-0.18,0.6l-1.1,3.82h-9.69l0.75-1.79l0.21-0.52l0.22-0.51l0.21-0.51l0.21-0.51l0.21-0.51l0.21-0.51
		l0.21-0.51l0.39-0.97l0.22-0.55l0.2-0.51l0.2-0.5l0.2-0.5l0.2-0.5l0.2-0.5l0.2-0.5l0.19-0.5l0.38-0.99l0.19-0.5l0.19-0.49l0.19-0.5
		l0.19-0.49l0.18-0.49l0.18-0.49l0.18-0.49l0.18-0.49l0.18-0.49l0.18-0.48l0.18-0.49l0.18-0.48l0.18-0.48l0.17-0.48l0.17-0.48
		l0.17-0.48l0.17-0.47l0.17-0.47l0.16-0.47l0.16-0.47l0.16-0.47l0.16-0.47l0.16-0.46l0.16-0.46l0.15-0.46l0.15-0.46l0.15-0.46
		l0.15-0.45l0.15-0.45l0.14-0.45l0.15-0.44l0.14-0.45l0.14-0.44l0.14-0.44l0.14-0.44l0.14-0.44l0.14-0.43l0.13-0.43l0.13-0.43
		l0.13-0.43l0.13-0.43l0.13-0.42l0.12-0.42l0.12-0.42l0.14-0.5l0.14-0.49l0.13-0.48l0.11-0.47l0.11-0.46l0.1-0.45l0.09-0.44
		l0.09-0.43l0.08-0.42l0.07-0.41l0.06-0.4l0.05-0.39l0.04-0.38l0.04-0.37l0.03-0.36l0.02-0.35l0.01-0.34l0-0.33l0-0.32l-0.01-0.31
		l-0.02-0.3l-0.03-0.29l-0.03-0.28l-0.04-0.27l-0.05-0.26l-0.06-0.24l-0.06-0.24l-0.06-0.22l-0.08-0.22l-0.08-0.2l-0.09-0.19
		l-0.09-0.17l-0.21-0.35l-0.24-0.33l-0.27-0.3l-0.3-0.28l-0.33-0.26l-0.37-0.24l-0.4-0.22L388.3,51l-0.48-0.18l-0.52-0.16
		l-0.56-0.14l-0.6-0.11l-0.63-0.09l-0.67-0.06l-0.71-0.04l-0.75-0.01l-0.57,0.01l-0.56,0.02l-0.56,0.04l-0.55,0.05l-0.55,0.07
		l-0.54,0.09l-0.53,0.1l-0.53,0.11l-0.52,0.14l-0.52,0.15l-0.51,0.17l-0.51,0.18l-0.51,0.2l-0.5,0.21l-0.5,0.23l-0.49,0.24
		l-0.48,0.26l-0.48,0.28l-0.47,0.29l-0.47,0.31l-0.47,0.33l-0.46,0.34l-0.45,0.36l-0.45,0.37l-0.45,0.39l-0.44,0.41l-0.44,0.42
		l-0.43,0.44l-0.43,0.46l-0.42,0.47l-0.42,0.49l-0.41,0.51l-0.41,0.53l-0.41,0.55l-0.41,0.57l-0.41,0.59l-0.4,0.61l-0.4,0.63
		l-0.4,0.65l-0.4,0.67l-0.4,0.7l-0.39,0.72l-0.39,0.74l-0.39,0.76l-0.39,0.78l-0.38,0.8l-0.38,0.83l-0.38,0.84l-0.38,0.87
		l-0.38,0.89l-0.38,0.91l-0.37,0.93l-0.37,0.95l-0.37,0.97l-0.37,1l-0.36,1.02l-0.37,1.04l-0.36,1.06l-0.36,1.08l-0.36,1.1
		l-0.36,1.12l-0.36,1.14l-0.35,1.17l-0.35,1.19l-0.1,0.37l-0.12,0.4l-0.12,0.42l-0.13,0.45l-0.13,0.47l-0.14,0.49l-0.14,0.52
		l-0.15,0.55l-0.15,0.57l-0.16,0.6l-0.16,0.62l-0.17,0.65l-0.17,0.67l-0.18,0.7l-0.19,0.72l-0.19,0.76l-0.03,0.09l-0.02,0.07
		l-0.02,0.07l-0.02,0.07l-0.02,0.06l-0.01,0.06l-0.02,0.05l-0.2,0.72h-9.58l0.75-1.8l0.22-0.52l0.22-0.52l0.22-0.52l0.21-0.52
		l0.22-0.52l0.21-0.52l0.21-0.52l0.21-0.52l0.21-0.52l0.21-0.52l0.2-0.52l0.21-0.52l0.2-0.52l0.2-0.52l0.2-0.52l0.2-0.52l0.2-0.52
		l0.2-0.52l0.2-0.52l0.2-0.52l0.19-0.52l0.19-0.52l0.19-0.52l0.19-0.52l0.19-0.52l0.19-0.51l0.19-0.52l0.19-0.51l0.19-0.52
		l0.19-0.52l0.18-0.51l0.19-0.52l0.18-0.51l0.18-0.51l0.18-0.51l0.18-0.51l0.18-0.51l0.18-0.51l0.17-0.51l0.18-0.51l0.17-0.51
		l0.17-0.51l0.17-0.51l0.17-0.5l0.17-0.51l0.17-0.5l0.16-0.5l0.16-0.5l0.16-0.5l0.16-0.5l0.16-0.5l0.16-0.5l0.16-0.5l0.15-0.5
		l0.15-0.5l0.15-0.49l0.15-0.5l0.15-0.49l0.15-0.49l0.15-0.49l0.14-0.49l0.15-0.49l0.14-0.48l0.21-0.77l0.18-0.74l0.15-0.71
		l0.12-0.69l0.08-0.65l0.06-0.63l0.03-0.6l0-0.57l-0.04-0.54l-0.06-0.52l-0.09-0.49l-0.11-0.46l-0.14-0.43l-0.17-0.41l-0.19-0.39
		l-0.22-0.36l-0.25-0.34l-0.27-0.32l-0.3-0.3l-0.33-0.28l-0.36-0.25l-0.39-0.24l-0.42-0.22l-0.45-0.19l-0.48-0.17l-0.51-0.15
		l-0.55-0.13l-0.58-0.11l-0.61-0.09l-0.65-0.06l-0.68-0.04l-0.72-0.01l-0.57,0.01l-0.56,0.02l-0.56,0.04l-0.55,0.05l-0.55,0.07
		l-0.54,0.09l-0.53,0.1l-0.53,0.12l-0.52,0.14l-0.52,0.15l-0.51,0.16l-0.51,0.18l-0.5,0.2l-0.5,0.21l-0.49,0.23l-0.48,0.24
		l-0.48,0.26l-0.47,0.28l-0.47,0.29l-0.47,0.31l-0.46,0.32l-0.46,0.34l-0.45,0.36l-0.45,0.37l-0.44,0.39l-0.43,0.41l-0.43,0.43
		l-0.43,0.44l-0.42,0.46l-0.42,0.47l-0.41,0.49l-0.41,0.51l-0.4,0.53l-0.4,0.55l-0.4,0.57l-0.4,0.6l-0.4,0.62l-0.4,0.65l-0.4,0.67
		l-0.4,0.69l-0.4,0.72l-0.39,0.74l-0.39,0.77l-0.39,0.79l-0.39,0.81l-0.39,0.84l-0.39,0.86l-0.39,0.89l-0.39,0.91l-0.39,0.93
		l-0.39,0.95l-0.38,0.98l-0.39,1l-0.38,1.03l-0.38,1.05l-0.38,1.08l-0.38,1.1l-0.38,1.12l-0.38,1.14l-0.37,1.17l-0.38,1.19
		l-0.37,1.22l-0.37,1.24l-0.37,1.26l-0.05,0.19l-0.06,0.2l-0.06,0.21l-0.06,0.23l-0.06,0.23l-0.06,0.24l-0.06,0.25l-0.07,0.27
		l-0.07,0.27l-0.07,0.29l-0.07,0.29l-0.08,0.31l-0.08,0.32l-0.08,0.33l-0.08,0.34l-0.08,0.35l-0.08,0.35l-0.08,0.33l-0.08,0.32
		l-0.07,0.31l-0.07,0.29l-0.07,0.28l-0.06,0.26l-0.06,0.25L318.1,94l-0.05,0.22l-0.05,0.2l-0.05,0.19l-0.04,0.18l-0.04,0.16
		l-0.04,0.14l-0.2,0.84h-9.58l0.74-1.7l0.18-0.43l0.19-0.44l0.19-0.45l0.19-0.46l0.19-0.47l0.2-0.48l0.2-0.5l0.2-0.51l0.2-0.52
		l0.2-0.53l0.21-0.54l0.21-0.55l0.22-0.57l0.21-0.57l0.22-0.59l0.22-0.6l0.23-0.61l0.23-0.62l0.23-0.63l0.23-0.65l0.23-0.66
		l0.24-0.67l0.24-0.68l0.24-0.69l0.25-0.71l0.25-0.71l0.25-0.73l0.25-0.74l0.25-0.75L315.43,76.4L315.43,76.4z M437.9,83.59
		l0.13-0.35l0.12-0.34l0.12-0.33l0.12-0.32l0.11-0.31l0.11-0.3l0.1-0.28l4.06-12.16l-0.27,0.15l-0.28,0.15l-0.28,0.15l-0.29,0.15
		l-0.3,0.14l-0.3,0.14l-0.32,0.14l-0.33,0.14l-0.34,0.14l-0.36,0.14l-0.37,0.13l-0.38,0.13l-0.4,0.13l-0.41,0.13l-0.42,0.13
		l-0.43,0.13l-0.45,0.13l-0.46,0.13l-0.47,0.13l-0.49,0.13l-0.5,0.13l-0.51,0.13l-11.1,2.97l-0.45,0.12l-0.44,0.12l-0.43,0.12
		l-0.42,0.12l-0.42,0.12l-0.41,0.12l-0.4,0.12l-0.4,0.13l-0.39,0.12l-0.38,0.13l-0.37,0.13l-0.37,0.13l-0.36,0.13l-0.35,0.13
		L417.35,77l-0.34,0.13l-0.33,0.13l-0.32,0.13l-0.32,0.13l-0.31,0.13l-0.3,0.13l-0.29,0.13l-0.29,0.13l-0.28,0.14l-0.28,0.13
		l-0.27,0.13l-0.25,0.14l-0.25,0.14l-0.24,0.14L413.04,79l-0.23,0.14l-0.22,0.14l-0.43,0.28l-0.4,0.28l-0.38,0.29l-0.36,0.29
		l-0.33,0.3l-0.31,0.3l-0.29,0.31l-0.27,0.31l-0.25,0.32l-0.23,0.32l-0.21,0.33l-0.19,0.33l-0.17,0.34l-0.15,0.34l-0.13,0.35
		l-0.12,0.36l-0.11,0.41l-0.08,0.4l-0.06,0.38l-0.03,0.36l-0.01,0.35l0.01,0.33l0.04,0.32l0.06,0.3l0.08,0.29l0.1,0.28l0.13,0.26
		l0.15,0.25l0.17,0.25l0.19,0.24l0.22,0.23l0.24,0.23l0.27,0.22l0.29,0.2l0.32,0.19l0.34,0.18l0.37,0.17l0.39,0.15l0.42,0.14
		l0.45,0.13l0.47,0.12l0.5,0.1l0.53,0.09l0.55,0.07l0.58,0.05l0.61,0.04l0.63,0.02l0.66,0.01l0.45,0l0.45,0l0.45-0.01l0.45-0.01
		l0.46-0.02l0.46-0.02l0.46-0.03l0.46-0.04l0.46-0.04l0.46-0.04l0.46-0.05l0.46-0.05l0.46-0.05l0.47-0.06l0.47-0.06l0.47-0.06
		l0.47-0.08l0.47-0.08l0.47-0.08l0.48-0.09l0.47-0.09l0.48-0.09l0.48-0.1l0.48-0.1l0.48-0.11l0.48-0.11l0.49-0.12l0.48-0.12
		l0.49-0.13l0.49-0.13l0.49-0.14l2.34-0.66l-3.19,7.57l-1.09,0.15l-0.56,0.08l-0.55,0.07l-0.54,0.08l-0.53,0.07l-0.52,0.07
		l-0.51,0.06l-0.49,0.06l-0.49,0.06l-0.47,0.06l-0.46,0.06l-0.45,0.05l-0.45,0.05l-0.43,0.05l-0.42,0.04l-0.41,0.04l-0.4,0.04
		l-0.39,0.04l-0.39,0.03l-0.38,0.03l-0.38,0.03l-0.37,0.03l-0.36,0.02l-0.36,0.02l-0.35,0.02l-0.34,0.02l-0.34,0.01l-0.33,0.01
		l-0.33,0.01l-0.32,0l-0.31,0l-0.31,0l-0.56,0l-0.55-0.01l-0.54-0.02l-0.53-0.02l-0.52-0.03l-0.52-0.04l-0.51-0.04l-0.5-0.05
		l-0.49-0.06l-0.48-0.06l-0.47-0.07l-0.46-0.08l-0.45-0.09l-0.45-0.09l-0.44-0.1l-0.43-0.11l-0.42-0.11l-0.41-0.13l-0.4-0.13
		l-0.39-0.14l-0.39-0.14l-0.37-0.15l-0.37-0.16l-0.36-0.17l-0.35-0.17l-0.34-0.18l-0.33-0.19l-0.32-0.2l-0.31-0.21l-0.31-0.21
		l-0.29-0.22l-0.29-0.23l-0.53-0.48l-0.49-0.5l-0.45-0.53l-0.39-0.55l-0.35-0.57l-0.3-0.6l-0.25-0.62l-0.19-0.64l-0.14-0.66
		l-0.09-0.68l-0.04-0.69l0.01-0.71l0.06-0.72l0.11-0.74l0.15-0.75l0.2-0.76l0.19-0.59l0.21-0.57l0.24-0.57l0.26-0.55l0.28-0.54
		l0.31-0.53l0.34-0.52l0.36-0.51l0.39-0.5l0.41-0.48l0.43-0.47l0.46-0.46l0.48-0.45l0.51-0.44l0.53-0.42l0.55-0.41l0.29-0.2
		l0.29-0.2l0.3-0.2l0.3-0.19l0.31-0.19l0.32-0.19l0.32-0.19l0.33-0.18l0.34-0.18l0.34-0.18l0.34-0.18l0.36-0.17l0.36-0.17l0.36-0.16
		l0.37-0.17l0.38-0.16l0.38-0.16l0.39-0.16l0.39-0.15l0.4-0.15l0.41-0.15l0.42-0.15l0.42-0.14l0.43-0.14l0.43-0.14l0.44-0.14
		l0.45-0.14l0.45-0.13l0.46-0.13l0.46-0.13l0.47-0.12l0.47-0.12l13.88-3.58l0.41-0.11l0.41-0.12l0.41-0.12l0.4-0.12l0.39-0.12
		l0.39-0.12l0.38-0.12l0.37-0.12l0.37-0.13l0.36-0.13l0.36-0.13l0.35-0.13l0.34-0.13l0.33-0.13l0.33-0.13l0.32-0.13l0.32-0.13
		l0.31-0.14l0.3-0.14l0.3-0.14l0.29-0.14l0.28-0.14l0.28-0.14l0.27-0.14l0.27-0.14l0.26-0.14l0.25-0.14l0.24-0.15l0.24-0.15
		l0.23-0.15l0.23-0.15l0.21-0.14l0.42-0.31l0.4-0.32l0.38-0.32l0.36-0.33l0.34-0.34l0.32-0.34l0.3-0.36l0.28-0.36l0.27-0.37
		l0.24-0.38l0.23-0.38l0.21-0.4l0.19-0.4l0.17-0.41l0.15-0.42l0.14-0.43l0.11-0.43l0.08-0.41l0.06-0.39l0.03-0.37l0-0.35l-0.02-0.33
		l-0.04-0.31l-0.07-0.3l-0.09-0.28l-0.11-0.27l-0.14-0.26l-0.16-0.24l-0.19-0.24l-0.22-0.23l-0.24-0.22l-0.27-0.22l-0.3-0.2
		l-0.33-0.19l-0.36-0.19l-0.39-0.18l-0.43-0.16l-0.46-0.15l-0.49-0.14l-0.52-0.13l-0.55-0.11l-0.58-0.1l-0.62-0.08l-0.65-0.07
		l-0.68-0.05l-0.71-0.04l-0.74-0.02l-0.77-0.01l-0.5,0l-0.5,0.01l-0.51,0.01l-0.51,0.02l-0.52,0.03L434,49.98l-0.53,0.04l-0.53,0.05
		l-0.54,0.05l-0.54,0.06l-0.55,0.06l-0.55,0.07l-0.56,0.07l-0.56,0.08l-0.57,0.09l-0.57,0.09l-0.57,0.1l-0.58,0.1l-0.58,0.11
		l-0.58,0.11l-0.58,0.11l-0.58,0.13l-0.59,0.13l-0.59,0.13l-0.59,0.14l-0.59,0.14l-0.6,0.15l-0.6,0.15l-0.6,0.16l-0.6,0.16
		l-0.6,0.17l-2.55,0.74l3.37-7.29l1.03-0.22l0.57-0.12l0.57-0.12l0.57-0.12l0.57-0.11l0.57-0.11l0.56-0.1l0.57-0.1l0.56-0.09
		l0.56-0.09l0.56-0.09l0.56-0.08l0.55-0.08l0.55-0.08l0.55-0.07l0.55-0.07l0.55-0.06l0.54-0.06l0.54-0.05l0.53-0.05l0.54-0.05
		l0.53-0.04l0.53-0.04l0.53-0.04l0.52-0.03l0.52-0.03l0.52-0.03l0.52-0.02l0.52-0.01l0.51-0.01l0.51-0.01l0.51,0l0.65,0l0.63,0.01
		l0.62,0.01l0.61,0.02l0.59,0.03l0.58,0.03l0.57,0.04l0.56,0.04l0.55,0.05l0.53,0.05l0.52,0.06l0.51,0.07l0.5,0.08l0.48,0.08
		l0.47,0.09l0.46,0.09l0.44,0.1l0.43,0.11l0.42,0.11l0.41,0.12l0.39,0.13l0.38,0.13l0.37,0.14l0.36,0.15l0.35,0.15l0.33,0.16
		l0.32,0.17l0.31,0.18l0.3,0.18l0.28,0.19l0.27,0.2l0.26,0.21l0.25,0.22l0.24,0.23l0.22,0.24l0.21,0.25l0.2,0.26l0.19,0.27
		l0.17,0.28l0.16,0.29l0.15,0.29l0.14,0.3l0.12,0.31l0.11,0.32l0.09,0.33l0.08,0.33l0.07,0.34l0.06,0.35l0.05,0.36l0.03,0.36
		l0.02,0.37l0.01,0.37l0,0.38l-0.01,0.39l-0.03,0.39l-0.04,0.4l-0.05,0.41l-0.06,0.41l-0.07,0.42l-0.08,0.43l-0.1,0.44l-0.1,0.44
		l-0.12,0.45l-0.13,0.45l-0.12,0.4l-0.11,0.37l-0.1,0.34l-0.09,0.32l-0.09,0.29l-0.08,0.27l-0.08,0.24l-0.07,0.22l-0.07,0.2
		L453.7,61l-0.07,0.19l-0.06,0.19l-0.07,0.18l-0.06,0.18l-0.06,0.18l-0.06,0.15l-8.39,25.02l-0.07,0.2l-0.07,0.21l-0.08,0.23
		l-0.09,0.25l-0.09,0.28l-0.1,0.3l-0.1,0.32l-0.11,0.35l-0.06,0.19l-0.06,0.22l-0.07,0.24l-0.16,0.54l-0.1,0.33l-0.1,0.34l-0.1,0.37
		l-0.12,0.4l-0.25,0.84l-0.13,0.46l-0.14,0.49l-0.28,0.95l-0.38,1.32h-9.14l0.72-1.77l0.2-0.5l0.2-0.49l0.2-0.49l0.19-0.49
		l0.19-0.48l0.19-0.48l0.19-0.47l0.19-0.47l0.18-0.46l0.18-0.46l0.18-0.46l0.17-0.45l0.17-0.45l0.16-0.44l0.17-0.44l0.16-0.43
		l0.16-0.42l0.15-0.41l0.15-0.41l0.15-0.39l0.14-0.38l0.14-0.38l0.14-0.37L437.9,83.59L437.9,83.59z M448.29,111.15l0.27-0.65
		l0.28-0.66l0.28-0.68l0.28-0.7l0.29-0.71l0.29-0.72l0.29-0.74l0.29-0.75l0.3-0.76l0.3-0.78l0.3-0.79l0.31-0.81l0.31-0.82l0.32-0.83
		l0.32-0.85l0.32-0.86l0.32-0.87l0.32-0.89l0.33-0.9l0.33-0.92l0.34-0.93l0.34-0.94l0.34-0.96l0.34-0.97l0.35-0.98l0.35-1l0.36-1.03
		l0.36-1.05l0.37-1.07l0.37-1.09l0.38-1.11l0.38-1.13l0.39-1.16l0.4-1.18l0.4-1.2l0.41-1.22l0.41-1.24l0.42-1.26l0.42-1.28
		l0.43-1.31l0.44-1.33l0.44-1.35l0.45-1.37l0.46-1.39l0.46-1.42l0.46-1.44l0.47-1.46l0.48-1.48l0.48-1.5l0.49-1.53l0.49-1.54
		l0.5-1.57l0.51-1.59l0.51-1.61l0.52-1.63l0.52-1.65l0.68-2.16l0.89-0.23l0.39-0.1l0.39-0.1l0.39-0.09l0.39-0.1l0.39-0.09l0.39-0.09
		l0.38-0.09l0.38-0.09l0.38-0.09l0.38-0.09l0.38-0.09l0.38-0.08l0.38-0.08l0.38-0.08l0.37-0.08l0.38-0.07l0.37-0.08l0.37-0.07
		l0.37-0.07l0.37-0.07l0.37-0.07l0.37-0.07l0.37-0.06l0.37-0.06l0.36-0.06l0.36-0.06l0.36-0.06l0.36-0.05l0.36-0.06l0.36-0.05
		l0.36-0.05l0.35-0.05l0.36-0.05l0.35-0.05l0.36-0.05l0.35-0.04l0.35-0.04l0.35-0.04l0.35-0.04l0.35-0.04l0.34-0.04l0.34-0.03
		l0.35-0.04l0.34-0.03l0.34-0.03l0.34-0.03l0.34-0.03l0.34-0.03l0.34-0.03l0.34-0.02l0.34-0.02l0.34-0.02l0.33-0.02l0.33-0.01
		l0.33-0.01l0.33-0.01l0.33-0.01l0.33-0.01l0.33-0.01l0.33,0l0.33-0.01h0.33l0.33,0l0.83,0.01l0.82,0.02l0.8,0.03l0.79,0.04
		l0.77,0.06l0.76,0.06l0.74,0.08l0.73,0.09l0.71,0.11l0.69,0.12l0.67,0.13l0.66,0.14l0.65,0.16l0.63,0.17l0.61,0.18l0.6,0.19
		l0.58,0.21l0.57,0.22l0.55,0.23l0.53,0.25l0.52,0.26l0.5,0.27l0.49,0.29l0.47,0.3l0.46,0.32l0.44,0.33l0.42,0.34l0.41,0.36
		l0.39,0.37l0.37,0.38l0.36,0.4l0.34,0.41l0.32,0.42l0.3,0.43l0.28,0.45l0.27,0.46l0.25,0.47l0.23,0.48l0.21,0.49l0.2,0.51
		l0.17,0.52l0.16,0.53l0.14,0.54l0.12,0.55l0.1,0.57l0.09,0.57l0.07,0.59l0.05,0.6l0.04,0.61l0.02,0.62v0.63l-0.02,0.64l-0.04,0.65
		l-0.05,0.66l-0.06,0.67l-0.09,0.68l-0.1,0.7l-0.12,0.71l-0.14,0.72l-0.15,0.73l-0.17,0.74l-0.18,0.75l-0.2,0.76l-0.22,0.78
		l-0.24,0.8l-0.25,0.79l-0.26,0.78l-0.27,0.76l-0.28,0.76l-0.29,0.74l-0.3,0.74l-0.31,0.72l-0.32,0.71l-0.33,0.7l-0.34,0.69
		l-0.35,0.69l-0.36,0.67l-0.37,0.66l-0.38,0.65l-0.39,0.64l-0.41,0.63l-0.42,0.62l-0.42,0.61l-0.43,0.6l-0.45,0.59l-0.46,0.58
		l-0.47,0.57l-0.48,0.56l-0.49,0.55l-0.49,0.53l-0.51,0.52l-0.52,0.51l-0.53,0.5l-0.54,0.49l-0.55,0.48L501.24,90l-0.57,0.46
		l-0.57,0.44l-0.58,0.43l-0.58,0.41l-0.6,0.4l-0.6,0.39l-0.61,0.37l-0.61,0.36l-0.62,0.34l-0.62,0.33l-0.63,0.31l-0.64,0.3
		l-0.64,0.28l-0.65,0.27l-0.65,0.25l-0.66,0.24l-0.66,0.23l-0.67,0.21l-0.67,0.19l-0.68,0.18l-0.69,0.16l-0.69,0.15l-0.7,0.14
		l-0.7,0.12l-0.71,0.11l-0.71,0.09l-0.72,0.08l-0.72,0.06l-0.73,0.05l-0.74,0.04l-0.74,0.02l-0.75,0.01h-0.4l-0.39-0.01l-0.39-0.01
		l-0.38-0.02l-0.38-0.03l-0.38-0.03l-0.38-0.03l-0.37-0.04l-0.37-0.04l-0.36-0.05l-0.36-0.05l-0.36-0.06l-0.35-0.06l-0.34-0.07
		l-0.34-0.08l-0.34-0.08l-0.33-0.09l-0.33-0.09l-0.33-0.1l-0.32-0.1l-0.32-0.11l-0.31-0.12l-0.31-0.12l-0.3-0.12l-0.3-0.13
		l-0.29-0.14l-0.29-0.14l-0.29-0.15l-0.28-0.15l-0.28-0.16l-0.27-0.16l-0.27-0.17l-0.52-0.35l-0.51-0.38l-0.49-0.4l-0.47-0.42
		L467,92.73l-0.44-0.46l-0.42-0.49l-0.4-0.51l-0.38-0.53l-0.37-0.55l-0.35-0.57l-0.33-0.6l-0.16-0.32l-4.43,13.36l-0.09,0.26
		l-0.06,0.19l-0.06,0.17l-0.06,0.18l-0.12,0.36l-0.08,0.24l-0.07,0.22l-0.08,0.23l-0.08,0.24l-0.08,0.25l-0.09,0.26l-0.09,0.27
		l-0.09,0.28l-0.1,0.3l-0.13,0.39l-0.13,0.39l-0.13,0.38l-0.13,0.38l-0.13,0.37l-0.12,0.37l-0.12,0.37l-0.12,0.36l-0.12,0.36
		l-0.12,0.36l-0.11,0.35l-0.11,0.35l-0.11,0.34l-0.11,0.33l-0.1,0.33l-0.1,0.33l-0.1,0.32l-0.1,0.32l-0.1,0.31l-0.1,0.31l-0.09,0.31
		l-0.1,0.31l-0.09,0.3l-0.09,0.29l-0.09,0.29l-0.09,0.29l-0.09,0.28l-0.08,0.28l-0.08,0.27l-0.08,0.27l-0.08,0.27l-0.27,0.93h-9.2
		l0.84-1.86l0.25-0.57l0.25-0.58l0.26-0.6l0.26-0.61l0.27-0.62L448.29,111.15L448.29,111.15z M477.43,52.19l-0.09,0.2l-0.26,0.58
		l-0.25,0.58l-0.25,0.58l-0.25,0.58l-0.25,0.58l-0.24,0.58l-0.24,0.59l-0.24,0.59l-0.24,0.59l-0.24,0.59l-0.23,0.59l-0.23,0.59
		l-0.23,0.59l-0.22,0.6l-0.22,0.6l-0.21,0.59l-0.22,0.6l-0.21,0.59l-0.21,0.6l-0.2,0.6l-0.2,0.6l-0.2,0.59l-0.2,0.59l-0.19,0.59
		l-0.19,0.59l-0.19,0.59l-0.19,0.59l-0.18,0.59l-0.18,0.59l-0.18,0.59l-0.17,0.58l-0.19,0.67l-0.18,0.66l-0.17,0.65l-0.15,0.64
		l-0.14,0.62l-0.13,0.61l-0.12,0.6l-0.11,0.59l-0.1,0.58l-0.09,0.57l-0.08,0.55l-0.06,0.55l-0.05,0.53L469,79.03l-0.03,0.51
		l-0.02,0.5l-0.01,0.48l0,0.47l0.01,0.46l0.03,0.45l0.04,0.44l0.05,0.42l0.06,0.41l0.07,0.4l0.08,0.39l0.09,0.37l0.1,0.36l0.11,0.35
		l0.12,0.34l0.13,0.33l0.14,0.32l0.15,0.3l0.16,0.29l0.17,0.29l0.18,0.27l0.19,0.27l0.2,0.26l0.21,0.24l0.23,0.24l0.23,0.23
		l0.25,0.22l0.26,0.21l0.27,0.2l0.28,0.19l0.29,0.18l0.3,0.18l0.32,0.17l0.33,0.15l0.34,0.15l0.36,0.14l0.37,0.13l0.38,0.12
		l0.39,0.11l0.41,0.1l0.42,0.09l0.43,0.08l0.44,0.08l0.46,0.06l0.47,0.05l0.48,0.05l0.5,0.04l0.51,0.02l0.52,0.01l0.53,0l0.56,0
		l0.56-0.02l0.55-0.03l0.55-0.04l0.54-0.05l0.54-0.06l0.53-0.07l0.53-0.08l0.52-0.09l0.52-0.1l0.51-0.11l0.51-0.13l0.5-0.14
		l0.5-0.15l0.49-0.16l0.48-0.16l0.48-0.18l0.48-0.19l0.47-0.2l0.47-0.21l0.46-0.22l0.46-0.23l0.45-0.24l0.45-0.25l0.44-0.27
		l0.44-0.28l0.43-0.29l0.43-0.3l0.42-0.31l0.42-0.32l0.41-0.33l0.41-0.34l0.4-0.35l0.4-0.37l0.39-0.37l0.38-0.38l0.38-0.39l0.37-0.4
		l0.36-0.41l0.36-0.42l0.35-0.43l0.34-0.44l0.33-0.45l0.33-0.46l0.32-0.47l0.32-0.47l0.31-0.48l0.3-0.49l0.29-0.5l0.29-0.51
		l0.28-0.52l0.28-0.53l0.27-0.54l0.26-0.55l0.25-0.56l0.24-0.57l0.24-0.57l0.23-0.59l0.23-0.6l0.22-0.6l0.22-0.61l0.2-0.62l0.2-0.63
		l0.19-0.64l0.18-0.64l0.17-0.63l0.15-0.62l0.14-0.61l0.13-0.6l0.12-0.58l0.1-0.57l0.09-0.56l0.08-0.55l0.06-0.54l0.05-0.53
		l0.04-0.52l0.03-0.51l0.01-0.49v-0.48l-0.01-0.47l-0.03-0.46l-0.04-0.45l-0.05-0.44l-0.06-0.43l-0.08-0.42l-0.09-0.41l-0.1-0.4
		l-0.11-0.38l-0.12-0.37l-0.13-0.36l-0.15-0.35l-0.16-0.34l-0.17-0.33l-0.18-0.32l-0.19-0.31l-0.2-0.3l-0.22-0.29l-0.23-0.28
		l-0.24-0.27l-0.25-0.27l-0.27-0.25l-0.28-0.25l-0.29-0.24l-0.3-0.23l-0.32-0.22l-0.33-0.21l-0.34-0.2l-0.36-0.2l-0.37-0.18
		l-0.39-0.18l-0.4-0.17l-0.41-0.16l-0.43-0.15l-0.44-0.14l-0.46-0.13l-0.47-0.12l-0.48-0.11l-0.5-0.1l-0.51-0.09l-0.52-0.09
		l-0.54-0.07l-0.55-0.06l-0.57-0.06l-0.58-0.04l-0.59-0.04l-0.61-0.03l-0.62-0.01l-0.63,0h-0.46l-0.46,0.01l-0.46,0.01l-0.46,0.01
		l-0.47,0.03l-0.46,0.03l-0.46,0.03l-0.46,0.04l-0.46,0.04l-0.46,0.05l-0.46,0.05l-0.47,0.05l-0.46,0.06l-0.47,0.06l-0.47,0.07
		l-0.46,0.07l-0.47,0.08l-0.47,0.08l-0.47,0.09l-0.47,0.09l-0.47,0.1l-0.47,0.1l-0.47,0.11l-0.47,0.11l-0.47,0.12l-0.47,0.12
		l-0.47,0.13l-0.47,0.13l-0.47,0.14l-0.47,0.14l-0.48,0.14L477.43,52.19L477.43,52.19z"/>
	<path class="st5" d="M522.09,24.62c4.12,0,7.46,3.34,7.46,7.46c0,4.12-3.34,7.46-7.46,7.46c-4.12,0-7.46-3.34-7.46-7.46
		C514.64,27.95,517.97,24.62,522.09,24.62L522.09,24.62z"/>
	<text transform="matrix(1 0 0 1 517.9373 36.1408)" class="st0 st6 st7">R</text>
</g>
</svg>
