<svg xmlns="http://www.w3.org/2000/svg" version="1.1" viewBox="0.97 1.53 1252.99 560.47" width="472.84329965243336" height="211.48655394610788"><path d="M 488 264.839 L 488 362 504.750 361.995 C 513.962 361.992, 525.888 361.699, 531.250 361.344 L 541 360.698 541 328.349 L 541 296 611 296 L 681 296 681 272.500 L 681 249 610.500 249 L 540 249 540 238.500 L 540 228 616 228 L 692 228 692 198.500 L 692 169 620.750 168.998 C 581.563 168.997, 535.663 168.700, 518.750 168.337 L 488 167.677 488 264.839 M 1.235 198.250 L 1.500 227.500 48.250 227.760 L 95 228.020 95 294.510 L 95 361 122 361 L 149 361 149 294.500 L 149 228 196.500 228 L 244 228 244 198.500 L 244 169 122.485 169 L 0.970 169 1.235 198.250 M 248.498 264.657 C 217.699 316.182, 192.355 358.938, 192.177 359.670 C 191.913 360.753, 197.045 361, 219.773 361 L 247.693 361 260.096 339.509 L 272.500 318.017 330.389 318.259 L 388.278 318.500 400.389 339.202 L 412.500 359.904 443.250 359.952 C 460.163 359.978, 473.981 359.663, 473.958 359.250 C 473.934 358.837, 450.409 316.425, 421.679 265 L 369.442 171.500 336.969 171.237 L 304.497 170.973 248.498 264.657 M 711 266 L 711 361 812.500 361 L 914 361 914 332.908 L 914 304.817 839.500 305.158 L 765 305.500 765 297.101 L 765 288.702 833 289.434 L 901 290.166 900.989 270.833 C 900.983 260.200, 900.699 249.813, 900.358 247.750 L 899.738 244 857.531 244 C 834.318 244, 803.776 243.703, 789.662 243.340 L 764 242.679 764 235.340 L 764 228 839 228 L 914 228 914 199.500 L 914 171 812.500 171 L 711 171 711 266 M 325.281 228.205 C 323.040 230.997, 297.930 270.263, 298.207 270.541 C 298.370 270.703, 312.831 271.165, 330.344 271.567 L 362.186 272.299 359.150 266.899 C 357.480 263.930, 351.858 253.850, 346.655 244.500 L 337.196 227.500 331.758 227.205 C 328.195 227.012, 325.961 227.356, 325.281 228.205" stroke="none" fill="#fc0404" fill-rule="evenodd"/><path d="M 1237 2.567 C 1235.075 3.411, 1231.925 5.590, 1230 7.409 C 1228.075 9.227, 1207.642 24.381, 1184.592 41.084 C 1156.887 61.161, 1141.718 72.787, 1139.832 75.391 C 1138.262 77.557, 1135.978 82.293, 1134.754 85.915 C 1132.569 92.384, 1132.525 93.548, 1132.221 152.250 C 1132.051 185.113, 1131.702 212, 1131.446 212 C 1131.189 212, 1113.702 198.717, 1092.585 182.481 L 1054.191 152.963 1052.995 147.978 C 1052.337 145.237, 1051.417 142.758, 1050.950 142.469 C 1048.709 141.084, 1048.002 146.971, 1048.043 166.684 L 1048.086 187.500 1090 220 L 1131.914 252.500 1131.957 277.250 C 1131.981 290.863, 1131.776 302, 1131.502 302 C 1131.227 302, 1116.490 291.037, 1098.752 277.637 C 1081.013 264.237, 1064.925 252.314, 1063 251.141 C 1056.856 247.396, 1051.301 248.583, 1048.362 254.268 C 1046.872 257.148, 1046.724 262.622, 1046.908 307.773 C 1047.122 360.234, 1047.247 361.869, 1051.540 368.421 C 1052.464 369.831, 1071.170 384.506, 1093.110 401.033 L 1133 431.082 1133 438.541 C 1133 442.643, 1132.708 446, 1132.350 446 C 1130.567 446, 1084.452 412.245, 1066 397.432 C 1045.097 380.653, 1042.311 377.746, 1040.020 370.329 C 1038.075 364.032, 1038 361.193, 1038 293.895 C 1038 255.453, 1038.223 224, 1038.496 224 C 1038.769 224, 1047.336 229.458, 1057.534 236.129 C 1067.732 242.800, 1076.229 248.087, 1076.416 247.879 C 1076.604 247.670, 1076.924 240.571, 1077.128 232.102 L 1077.500 216.704 1074.500 216.562 C 1072.358 216.461, 1066.710 212.883, 1054.750 204.051 C 1038.560 192.095, 1037.998 191.561, 1037.952 188.091 C 1037.925 186.116, 1037.530 174.413, 1037.074 162.086 L 1036.244 139.671 1025.181 129.086 C 1016.057 120.354, 1013.927 117.756, 1013.021 114.250 C 1011.822 109.611, 1009.398 108.543, 1008.483 112.250 C 1008.177 113.487, 1008.056 175.025, 1008.213 249 C 1008.482 375.196, 1008.610 383.775, 1010.279 387.957 C 1014.672 398.966, 1016.541 400.740, 1055.875 431.225 C 1076.569 447.264, 1102.162 467.113, 1112.750 475.336 L 1132 490.285 1132 526.143 L 1132 562 1148 562 L 1164 562 1164 497.360 C 1164 442.405, 1164.215 432.554, 1165.434 431.610 C 1166.223 431, 1185.806 416.133, 1208.952 398.573 L 1251.036 366.647 1250.768 343.587 C 1250.538 323.833, 1250.281 320.484, 1248.971 320.232 C 1247.884 320.023, 1246.874 321.746, 1245.471 326.204 L 1243.500 332.469 1204.500 361.049 L 1165.500 389.630 1165.178 379.065 C 1165.001 373.254, 1165.155 362.650, 1165.519 355.500 L 1166.182 342.500 1201.733 315.500 C 1221.287 300.650, 1239.647 286.362, 1242.534 283.748 C 1251.805 275.357, 1251.458 277.737, 1251.793 220.321 C 1252.111 165.827, 1251.979 164.314, 1246.674 161.897 C 1244.763 161.027, 1243.524 161.141, 1240.872 162.433 C 1239.017 163.337, 1221.300 175.103, 1201.500 188.581 L 1165.500 213.086 1165.226 159.293 C 1164.921 99.156, 1164.827 100.092, 1171.808 93.801 C 1173.839 91.971, 1184.998 83.804, 1196.608 75.650 C 1217.170 61.209, 1217.788 60.673, 1220.542 54.913 C 1222.096 51.661, 1223.735 49, 1224.184 49 C 1225.416 49, 1225.176 84.197, 1223.919 87.802 C 1223.131 90.062, 1216.081 96.512, 1197.919 111.587 L 1173 132.272 1173.015 154.886 C 1173.035 183.792, 1173.800 185.321, 1181.038 170.924 L 1185.022 163 1216.995 136.349 C 1243.515 114.243, 1249.355 108.913, 1251.234 105.099 C 1253.467 100.566, 1253.505 99.873, 1253.816 56.839 C 1254.123 14.279, 1254.079 13.075, 1252.053 9.103 C 1248.627 2.388, 1242.991 -0.059, 1237 2.567 M 1192.534 234.007 C 1178.252 243.906, 1165.981 252.590, 1165.265 253.306 C 1164.253 254.319, 1164.023 259.971, 1164.232 278.747 L 1164.500 302.886 1191.377 283.284 C 1224.157 259.376, 1222.212 262.179, 1222.789 238 C 1223.183 221.476, 1222.432 215.994, 1219.775 216.005 C 1219.074 216.008, 1206.815 224.109, 1192.534 234.007 M 1076.607 307.582 C 1076.273 308.452, 1076 316.570, 1076 325.622 C 1076 343.401, 1076.800 346.783, 1082.153 351.622 C 1085.495 354.645, 1130.851 389, 1131.499 389 C 1131.794 389, 1131.916 378.345, 1131.768 365.322 L 1131.500 341.645 1106.727 323.822 C 1082.355 306.289, 1078.003 303.943, 1076.607 307.582" stroke="none" fill="#2b843c" fill-rule="evenodd"/></svg>