<svg width="451" height="276" viewBox="0 0 451 276" fill="none" xmlns="http://www.w3.org/2000/svg">
<rect width="450" height="276" fill="white"/>
<path d="M409.356 3H231.353V151.096H409.356V3Z" fill="white"/>
<path opacity="0.5" d="M55.0417 252.243C55.0417 253.938 45.4176 255.312 33.5454 255.312C21.6731 255.312 12.049 253.938 12.049 252.243C12.049 250.548 21.6731 249.174 33.5454 249.174C45.4176 249.174 55.0417 250.548 55.0417 252.243Z" fill="url(#paint0_linear_1_358)"/>
<path opacity="0.5" d="M450.43 253.223C450.43 254.918 440.806 256.292 428.934 256.292C417.061 256.292 407.437 254.918 407.437 253.223C407.437 251.528 417.061 250.154 428.934 250.154C440.806 250.154 450.43 251.528 450.43 253.223Z" fill="url(#paint1_linear_1_358)"/>
<path d="M216.467 3H38.4649V151.096H216.467V3Z" fill="white"/>
<path d="M409.356 54.462H390.358V91.6682H366.944V102.182H347.843V45.5813H324.886V115.946H302.863V54.5935H285.61V105.187H281.298V94.6719H258.896V115.7H250.489V42.3935H231.388V102.182H231.353V151.096H409.356V54.462Z" fill="#EFF2F7"/>
<path d="M216.468 54.462H201.309V91.6682H177.895V102.182H158.794V45.5813H135.837V115.946H113.813V54.5935H96.5602V105.187H92.2479V94.6719H69.8468V115.7H61.4395V42.3935H38.4649V131.221V151.096H216.468V54.462Z" fill="#EFF2F7"/>
<path d="M16.8698 157.175C16.8698 157.175 10.1992 187.288 20.761 207.742C31.3239 228.197 31.3239 228.197 31.3239 228.197C31.3239 228.197 34.1033 177.06 16.8698 157.175Z" fill="#5BB59B"/>
<path d="M17.8133 235.704L17.8133 235.704L43.0428 246.793L42.5732 246.621C42.5732 246.621 42.5732 246.621 42.5732 246.621C41.7378 248.906 40.7107 251.125 38.8268 252.258L38.8268 252.258C37.3807 253.129 35.6018 253.252 33.7665 253.302L33.7665 253.302C32.1037 253.347 30.4809 253.349 28.9363 252.967C25.5473 252.129 22.7564 249.44 21.0115 246.244C19.2656 243.046 18.4535 239.391 17.8133 235.704Z" fill="white" stroke="black"/>
<path d="M29.0324 228.294C33.1305 228.539 37.5704 227.897 40.1501 226.477C40.6658 226.193 41.125 225.828 40.881 225.481C40.5928 225.069 39.5016 224.901 38.5504 224.8C33.6246 224.28 28.1697 224.046 23.3479 224.881C16.2841 226.107 25.2832 228.071 29.0324 228.294Z" fill="#524F63"/>
<path d="M26.8768 149.788C26.8768 149.788 23.5415 207.174 31.3239 228.196C31.3239 228.196 36.3268 177.06 26.8768 149.788Z" fill="#63A590"/>
<path d="M30.3408 227.777H32.1464C34.8033 216.417 42.7514 179.619 38.5504 162.445C38.5504 162.445 25.2081 210.74 28.5434 221.535C29.3587 224.365 29.9331 226.362 30.3408 227.777Z" fill="#5BB59B"/>
<path d="M413.202 159.136C413.202 159.136 406.531 189.249 417.093 209.703C427.656 230.158 427.656 230.158 427.656 230.158C427.656 230.158 430.436 179.022 413.202 159.136Z" fill="#5BB59B"/>
<path d="M414.146 237.667L414.146 237.667C414.786 241.353 415.598 245.008 417.344 248.206C419.089 251.402 421.879 254.091 425.268 254.929C426.813 255.311 428.436 255.309 430.098 255.263L430.099 255.263C431.934 255.213 433.713 255.09 435.159 254.219L435.159 254.219C437.043 253.086 438.07 250.867 438.905 248.582C438.905 248.582 438.905 248.582 438.905 248.582L439.375 248.754C440.784 244.899 441.854 240.915 442.567 236.865C442.979 234.528 443.245 231.992 442.177 229.883L414.146 237.667ZM414.146 237.667C413.798 235.668 413.57 233.32 413.941 231.259C414.31 229.21 415.255 227.512 417.21 226.663L417.21 226.663C419.6 225.625 422.541 225.202 425.55 225.152C428.553 225.101 431.59 225.423 434.151 225.85L434.151 225.85C437.246 226.365 440.404 227.486 441.731 230.108L414.146 237.667Z" fill="white" stroke="black"/>
<path d="M425.365 230.256C429.462 230.501 433.903 229.859 436.482 228.439C436.998 228.155 437.457 227.79 437.213 227.443C436.925 227.031 435.834 226.863 434.883 226.762C429.957 226.242 424.502 226.008 419.68 226.843C412.616 228.068 421.616 230.032 425.365 230.256Z" fill="#524F63"/>
<path d="M423.209 151.75C423.209 151.75 419.874 209.135 427.656 230.158C427.656 230.158 432.659 179.022 423.209 151.75Z" fill="#63A590"/>
<path d="M426.673 229.738H428.479C431.136 218.378 439.084 181.58 434.883 164.406C434.883 164.406 421.54 212.701 424.876 223.496C425.691 226.326 426.265 228.323 426.673 229.738Z" fill="#5BB59B"/>
<path opacity="0.5" d="M67.2444 268.136C94.0092 268.136 115.706 265.282 115.706 261.761C115.706 258.24 94.0092 255.386 67.2444 255.386C40.4796 255.386 18.7825 258.24 18.7825 261.761C18.7825 265.282 40.4796 268.136 67.2444 268.136Z" fill="url(#paint2_linear_1_358)"/>
<path opacity="0.5" d="M438.146 266.665C438.146 270.185 416.449 273.039 389.684 273.039C362.919 273.039 341.222 270.185 341.222 266.665C341.222 263.143 362.919 260.289 389.684 260.289C416.449 260.29 438.146 263.144 438.146 266.665Z" fill="url(#paint3_linear_1_358)"/>
<path opacity="0.5" d="M178.563 266.664C205.327 266.664 227.025 263.81 227.025 260.289C227.025 256.768 205.327 253.914 178.563 253.914C151.798 253.914 130.101 256.768 130.101 260.289C130.101 263.81 151.798 266.664 178.563 266.664Z" fill="url(#paint4_linear_1_358)"/>
<path opacity="0.5" d="M354.657 258.328C354.657 261.848 332.96 264.703 306.195 264.703C279.43 264.703 257.733 261.848 257.733 258.328C257.733 254.807 279.43 251.952 306.195 251.952C332.96 251.952 354.657 254.807 354.657 258.328Z" fill="url(#paint5_linear_1_358)"/>
<path opacity="0.5" d="M229.841 254.034C245.829 254.034 258.789 251.18 258.789 247.66C258.789 244.139 245.829 241.285 229.841 241.285C213.853 241.285 200.893 244.139 200.893 247.66C200.893 251.18 213.853 254.034 229.841 254.034Z" fill="url(#paint6_linear_1_358)"/>
<path d="M75.8925 90.9612L94.1771 93.9912L85.4775 85.8722L89.6363 81.1315L105.451 95.5872C107.632 97.9281 106.076 101.802 102.916 101.903L80.7617 102.61L75.8925 90.9612Z" fill="#E0E4ED"/>
<path d="M83.5288 138.857L83.1644 260.846L76.8849 261.304L72.5233 157.809L66.6926 158.268L60.7354 260.387L54.4559 259.929L55.2486 136.648L83.5288 138.857Z" fill="#524F63"/>
<path d="M75.8925 90.9612L54.7751 90.0532C52.5927 89.9596 50.4896 90.9012 49.0772 92.6046L55.2486 142.023L84.1104 142.618L81.4751 97.32C81.4751 97.32 76.6605 90.9949 75.8925 90.9612Z" fill="#E0E4ED"/>
<path d="M85.4075 81.4955C84.2473 82.4361 82.7711 83.3072 82.5385 84.8012C82.3367 86.0942 83.2683 87.382 84.4645 87.8502C85.6607 88.3183 87.0278 88.0932 88.1972 87.5587C90.081 86.6971 91.6354 84.9517 91.9824 82.8727C92.2366 81.3482 91.5716 78.4182 89.8391 77.8837C87.875 77.2777 86.8301 80.3414 85.4075 81.4955Z" fill="white"/>
<path d="M54.4559 259.929L42.2357 263.659L42.6835 264.728L60.4616 262.743L60.7354 260.387L54.4559 259.929Z" fill="#424051"/>
<path d="M14.9582 91.3441L13.0208 87.9785L15.1517 83.4251C15.1517 83.4251 16.3139 80.2572 16.3139 79.2672C16.3139 78.2772 15.3452 76.8916 14.3766 78.6738C13.4079 80.456 12.4392 81.8416 12.4392 81.8416L6.69606 73.1314C6.53238 72.8841 6.25959 72.7358 5.96723 72.7358C5.30223 72.7358 4.87914 73.4607 5.19311 74.0583L6.50768 76.557C6.94415 77.3871 5.99503 78.2561 5.23532 77.7217L4.97179 77.5365C3.52545 76.5191 1.54897 76.8747 0.528816 78.334L0.429993 78.476L0.526758 81.4376C0.588523 83.3367 1.445 85.1158 2.88207 86.3215C6.27297 89.1663 12.3002 94.1459 12.4392 93.7198C12.6337 93.1253 14.9582 91.3441 14.9582 91.3441Z" fill="#EEBCC5"/>
<path d="M80.4837 71.9026C79.6911 71.5017 78.6576 71.8899 78.1604 72.638C77.6631 73.386 77.6446 74.3897 77.9401 75.2419C78.4908 76.8316 80.1842 77.9615 81.8168 77.7111C83.4495 77.4618 84.7713 75.7637 84.5304 74.0951C84.3574 72.8989 83.4588 71.8773 82.3552 71.4386C81.2517 70.9998 79.9834 71.104 78.8954 71.5774" fill="#EEBCC5"/>
<path d="M80.0648 73.7763L89.5673 81.4071C89.5673 81.4071 89.7938 85.5692 87.5311 86.0321C86.8528 86.494 78.0286 77.0147 78.0286 77.0147L80.0648 73.7763Z" fill="#EEBCC5"/>
<path d="M76.8849 261.304L77.1937 263.354L92.5815 265.949C92.5815 265.949 93.3288 264.728 92.88 264.575C92.4322 264.423 83.1654 260.847 83.1654 260.847L76.8849 261.304Z" fill="#424051"/>
<path d="M61.8688 80.5234L62.3536 93.9702C62.3536 95.5304 63.4644 96.8582 64.9714 97.1023C66.6947 97.3811 68.3037 96.1533 68.5322 94.3868L69.1993 82.7591L61.8688 80.5234Z" fill="#EEBCC5"/>
<path d="M81.3638 69.3412L74.6915 68.0725L72.0746 82.4484L78.7469 83.7171L81.3638 69.3412Z" fill="#524F63"/>
<path d="M80.6229 69.2005L74.6904 68.0725L72.0735 82.4484L78.006 83.5764L80.6229 69.2005Z" fill="#524F63"/>
<path d="M61.106 91.9975C61.106 91.9975 60.1435 92.8413 60.0745 93.1222C60.0055 93.4031 63.7876 99.4474 63.7876 99.4474L66.3323 95.3011L69.4957 99.4474L70.8021 91.927L68.6701 91.4346L66.2634 94.2458L61.9995 90.7318L61.106 91.9975Z" fill="white"/>
<path d="M66.3323 95.3L64.7511 97.9713L65.8516 100.009L65.2319 101.556L65.8516 121.374L68.0515 123.904L70.0454 121.515L67.9825 101.485L66.8141 99.8682L68.2584 97.8303L66.3323 95.3Z" fill="#FFA412"/>
<path d="M56.383 66.1402C55.0489 69.2913 55.1971 72.9052 55.8992 76.2635C56.662 79.9121 58.1577 83.5734 60.9855 85.9333C63.8133 88.2931 68.2007 88.9633 71.115 86.715C72.8506 85.3767 73.8306 83.2536 74.4915 81.1368C75.805 76.9252 76.0727 72.2182 74.3618 68.1571C71.2241 60.7114 60.1301 57.2911 56.383 66.1402Z" fill="#EEBCC5"/>
<path d="M51.6631 106.807L28.9922 114.287L12.5164 95.9418L16.6227 92.4762L31.8098 105.201L49.0772 92.6046L52.0203 97.8671L51.6631 106.807Z" fill="#E0E4ED"/>
<path d="M9.92123 94.7088L11.6651 97.481L19.4125 92.9276L16.3139 89.7597L9.92123 94.7088Z" fill="white"/>
<path d="M52.5031 72.1098C51.5252 72.5496 51.0434 73.7584 51.1515 74.8442C51.2596 75.931 51.8422 76.9073 52.497 77.7701C52.8603 78.2488 53.2587 78.7138 53.7631 79.0315C54.2521 79.3398 54.8203 79.4965 55.3906 79.5744C56.0906 79.6691 56.9152 79.5933 57.3249 79.0063C57.5411 78.6959 57.5957 78.3014 57.6409 77.9237C57.8551 76.1319 57.4021 75.4218 56.3882 74.1246C55.4576 72.9346 54.2356 71.3323 52.5031 72.1098Z" fill="#EEBCC5"/>
<path d="M58.9874 72.2318C58.8413 74.1025 57.9745 76.0162 56.3686 76.9263C55.1703 75.3576 54.5383 73.3923 54.3252 71.4144C54.0617 68.9693 54.4518 66.3717 55.8498 64.3696C57.4454 62.0844 60.1991 60.8345 62.9383 60.6315C65.6776 60.4284 68.4107 61.1691 70.9524 62.2349C72.0538 62.6967 73.4672 63.167 74.3062 62.3033C74.7447 63.147 74.9794 64.1013 74.9836 65.0566C74.9866 65.7909 74.8467 66.5453 74.4483 67.1555C73.7761 68.1855 72.6869 69.3365 71.5041 69.6069C62.5616 71.649 58.4058 66.6884 58.3646 66.8252C58.2185 67.3144 58.5057 67.9235 58.6158 68.4201C58.8958 69.6679 59.0873 70.9483 58.9874 72.2318Z" fill="#524F63"/>
<path d="M190.536 174.76L187.996 124.181C187.996 124.181 175.273 123.401 171.486 123.401C169.423 123.401 165.9 124.402 163.118 125.313C160.505 126.169 158.334 126.094 157.064 128.58L136.197 169.457L149.018 170.704L153.292 165.712L151.118 162.344L158.913 143.554L158.786 175.383L190.536 174.76Z" fill="#EAD18C"/>
<path opacity="0.5" d="M158.636 136.102L144.804 161.643L149.111 166.799C149.111 166.799 150.862 167.159 152.526 166.608L153.29 165.713L151.116 162.345L158.911 143.555L158.636 136.102Z" fill="url(#paint7_linear_1_358)"/>
<path d="M169.665 164.534C169.13 164.352 164.847 161.799 161.635 161.799C158.423 161.799 154.497 165.264 154.497 165.264C154.497 165.264 153.962 167.088 156.103 166.723C158.244 166.358 159.672 166.176 159.672 166.176C159.672 166.176 155.924 168.183 158.422 168.548C160.92 168.913 171.449 168.548 171.449 168.548L169.665 164.534Z" fill="#91616A"/>
<path d="M168.877 171.953H127.649V168.864H168.877C169.712 168.864 170.388 169.556 170.388 170.409C170.388 171.262 169.711 171.953 168.877 171.953Z" fill="#F09400"/>
<path d="M157.566 171.953H117.809C116.051 171.953 114.513 170.744 114.061 169.007L107.045 141.989C106.392 139.474 108.247 137.009 110.793 137.009H145.509C147.267 137.009 148.805 138.218 149.257 139.955L157.566 171.953Z" fill="#FF9103"/>
<path d="M110.792 137.009C108.246 137.009 106.391 139.474 107.044 141.989L114.06 169.007C114.276 169.841 114.748 170.548 115.369 171.062L139.536 137.009H110.792Z" fill="url(#paint8_linear_1_358)"/>
<path d="M134.152 156.874C134.588 158.636 133.503 160.065 131.728 160.065C129.955 160.065 128.163 158.636 127.728 156.874C127.292 155.111 128.377 153.683 130.152 153.683C131.926 153.683 133.717 155.111 134.152 156.874Z" fill="white"/>
<path d="M170.201 117.113C170.558 117.842 173.056 127.874 173.056 127.874C173.056 127.874 173.949 129.515 176.09 129.333C178.231 129.151 179.124 126.051 179.124 126.051L175.376 113.465L170.201 117.113Z" fill="#91616A"/>
<path d="M183.409 110.935C183.409 117.845 176.231 125.493 169.47 125.493C162.709 125.493 158.925 117.845 158.925 110.935C158.925 104.025 164.406 98.4237 171.167 98.4237C177.929 98.4226 183.409 104.025 183.409 110.935Z" fill="#91616A"/>
<path d="M172.164 124.773L170.736 128.603L171.628 132.616L174.484 128.421L177.34 133.163L180.552 127.326L178.411 123.496C178.411 123.496 177.341 126.05 175.02 126.597C172.699 127.144 172.164 124.773 172.164 124.773Z" fill="white"/>
<path d="M174.484 128.421L172.343 131.156L173.413 132.798L171.807 136.263L172.164 159.062L174.305 163.622L177.34 158.515L176.625 136.81L175.019 132.616L176.268 130.792L174.484 128.421Z" fill="#FF9103"/>
<path d="M189.502 134.735L190.276 174.725L171.875 174.527L189.502 134.735Z" fill="url(#paint9_linear_1_358)"/>
<path d="M187.995 124.181L189.693 161.871L172.65 165.42L174.974 169.973L199.369 171.423L196.037 134.144C195.693 130.302 193.421 126.92 190.037 125.211L187.995 124.181Z" fill="#EAD18C"/>
<path d="M169.665 164.534L173.056 164.899L176.09 170.006L170.388 170.409L169.665 164.534Z" fill="white"/>
<path d="M152.673 181.594L122.509 189.436L137.855 251.093L143.148 248.389L138.649 195.386L165.638 186.732L150.027 195.926L150.292 246.226H155.055C155.055 246.226 168.285 197.008 169.608 197.008C170.931 197.008 193.157 181.864 193.157 181.864L152.673 181.594Z" fill="#524F63"/>
<path d="M121.623 255.948L142.601 254.424L143.177 247.67L120.756 252.886L121.623 255.948Z" fill="#524F63"/>
<path d="M138.649 259.747L142.883 260.288L154.79 255.69L155.055 246.226H150.292L148.175 252.175L141.757 256.139L138.649 259.747Z" fill="#524F63"/>
<path d="M158.5 106.487C158.021 107.385 157.531 108.434 157.888 109.39C158.324 110.557 159.746 110.915 160.962 111.061C163.06 111.313 165.174 111.424 167.286 111.396C168.687 111.377 170.096 111.295 171.461 110.968C173.692 110.433 175.722 109.269 177.718 108.118C179.141 107.297 180.716 106.263 180.975 104.615C181.231 102.98 180.071 101.503 178.988 100.272C178.372 99.5726 177.751 98.8677 177.01 98.3111C175.198 96.9497 172.796 96.5962 170.576 96.9613C165.062 97.8682 161.073 101.664 158.5 106.487Z" fill="#4A4549"/>
<path d="M178.53 110.536C178.72 109.877 179.528 109.535 180.167 109.752C180.807 109.967 181.24 110.623 181.34 111.303C181.44 111.983 181.251 112.678 180.958 113.298C180.815 113.6 180.645 113.894 180.569 114.219C180.504 114.492 180.508 114.776 180.513 115.058C180.533 116.281 180.552 117.503 180.572 118.726C181.559 118.342 182.136 117.315 182.633 116.362C183.724 114.269 184.847 112.041 184.721 109.673C184.616 107.712 183.661 105.916 182.695 104.22C182.487 103.855 182.267 103.48 181.929 103.237C181.449 102.893 180.802 102.877 180.241 103.052C179.68 103.226 179.186 103.568 178.702 103.906C178.226 104.238 177.751 104.568 177.276 104.899C176.814 105.221 176.332 105.565 176.082 106.077C175.63 107.001 176.259 107.392 176.787 107.952C177.057 108.236 176.582 114.313 178.53 110.536Z" fill="#4A4549"/>
<path d="M160.532 121.005C158.914 121.005 157.107 119.599 156.506 117.87C156.186 116.95 156.252 116.061 156.686 115.432C157.07 114.875 157.701 114.57 158.464 114.57C160.083 114.57 161.889 115.977 162.49 117.705C162.81 118.625 162.745 119.514 162.31 120.143C161.926 120.699 161.295 121.005 160.532 121.005ZM158.464 115.06C157.862 115.06 157.37 115.293 157.079 115.715C156.735 116.212 156.692 116.938 156.958 117.705C157.498 119.254 159.1 120.514 160.532 120.514C161.135 120.514 161.627 120.282 161.918 119.86C162.262 119.363 162.305 118.638 162.038 117.87C161.499 116.321 159.896 115.06 158.464 115.06Z" fill="#EFF2F7"/>
<path d="M168.651 121.005C167.033 121.005 165.226 119.599 164.625 117.87C164.305 116.95 164.371 116.061 164.805 115.432C165.189 114.875 165.82 114.57 166.583 114.57C168.202 114.57 170.008 115.977 170.609 117.705C170.929 118.625 170.864 119.514 170.429 120.143C170.045 120.699 169.414 121.005 168.651 121.005ZM166.583 115.06C165.981 115.06 165.489 115.293 165.198 115.715C164.854 116.212 164.811 116.938 165.077 117.705C165.617 119.254 167.219 120.514 168.651 120.514C169.254 120.514 169.746 120.282 170.037 119.86C170.381 119.363 170.424 118.638 170.157 117.87C169.618 116.321 168.015 115.06 166.583 115.06Z" fill="#EFF2F7"/>
<path d="M213.384 91.3904C213.51 93.3558 214.564 95.3095 214.034 97.2022C213.6 98.753 212.183 99.8619 211.747 101.413C211.252 103.173 212.125 105 212.973 106.614C213.682 107.964 214.674 109.499 216.173 109.505C216.829 109.509 217.443 109.201 218.028 108.9C219.455 108.169 220.882 107.438 222.309 106.707C222.924 106.391 223.551 106.068 224.049 105.581C224.79 104.855 225.176 103.839 225.526 102.852C226.623 99.763 227.606 96.5268 227.352 93.2506C227.099 89.9743 225.346 86.6255 222.358 85.4104C220.686 84.7296 215.794 84.1237 214.358 85.5861C213.717 86.2373 214.037 86.9306 213.956 87.7607C213.836 89.0075 213.301 90.1016 213.384 91.3904Z" fill="#524F63"/>
<path d="M216.85 101.204L215.392 101.612C209.333 105.642 205.789 111.243 205.024 118.59L201.937 169.708L206.58 167.585L216.85 101.204Z" fill="#EEBCC5"/>
<path d="M247.488 100.816L222.748 99.7861C220.658 99.6999 216.976 100.461 214.972 101.075L211.82 102.578L217.371 129.665C212.316 138.421 209.792 148.462 210.091 158.625L213.028 195.56H240.759L244.291 156.603C244.59 148.627 243.149 140.683 240.073 133.347L238.564 129.748L247.488 100.816Z" fill="#FF9103"/>
<path d="M217.769 111.684C218.439 112.975 219.378 114.15 220.608 114.895C222.257 115.894 224.305 116.034 226.18 115.63C228.056 115.226 229.791 114.321 231.445 113.33C234.425 111.544 237.259 109.415 239.427 106.667C240.951 104.735 242.133 101.983 240.896 99.8482C240.102 98.4794 238.538 97.8029 237.034 97.3895C229.002 95.1843 211.634 99.8619 217.769 111.684Z" fill="url(#paint10_linear_1_358)"/>
<path d="M236.84 87.6229C236.84 94.3437 229.829 103.468 223.253 103.468C216.678 103.468 213.028 94.3437 213.028 87.6229C213.028 80.9032 218.358 75.4544 224.934 75.4544C231.509 75.4555 236.84 80.9032 236.84 87.6229Z" fill="#EEBCC5"/>
<path d="M247.488 100.816L264.649 123.677C266.447 126.073 265.818 129.533 263.298 131.109L243.237 143.653L240.76 139.699L254.522 128.423C255.523 127.603 255.734 126.134 255.006 125.054L244.569 109.938L247.488 100.816Z" fill="#EEBCC5"/>
<path d="M192.445 171.963H203.219C204.944 171.963 206.374 170.599 206.495 168.841L206.58 167.585L192.445 171.963Z" fill="#EEBCC5"/>
<path d="M221.726 95.805C221.567 95.3989 224.57 103.835 224.57 103.835C224.57 103.835 225.248 107.296 228.092 106.465C230.937 105.634 229.176 93.3126 228.769 93.1738C228.364 93.0359 221.997 96.4973 221.726 95.805Z" fill="#EEBCC5"/>
<path d="M228.789 86.0237C223.277 89.4525 217.479 92.977 211.04 93.3789C212.488 91.5409 212.198 88.9149 212.463 86.5708C212.899 82.7339 215.117 79.1494 218.322 77.1031C221.527 75.0567 225.652 74.5917 229.217 75.8753C230.548 76.354 231.839 77.0989 232.662 78.2719C235.03 81.6513 231.348 84.4319 228.789 86.0237Z" fill="#524F63"/>
<path d="M228.289 99.5315C228.656 101.34 229.78 102.942 229.982 104.777C230.113 105.968 229.844 107.163 229.576 108.33C229.253 109.74 228.931 111.15 228.608 112.561C230.525 112.171 232.271 111.147 233.8 109.902C239.316 105.413 242.164 97.7409 240.953 90.6424C240.607 88.6171 239.96 86.6581 239.253 84.7328C238.707 83.2483 238.11 81.7543 237.132 80.5223C236.154 79.2914 234.732 78.3414 233.18 78.3003C231.326 78.2519 229.641 79.5008 228.554 81.0358C227.813 82.0826 227.271 83.3293 227.295 84.6213C227.32 85.9133 227.762 90.31 228.92 90.8265C230.386 89.9186 232.58 90.7224 233.149 92.3763C234.044 94.9854 231.759 95.4852 230.234 96.3795C228.341 97.4905 227.878 97.5105 228.289 99.5315Z" fill="#524F63"/>
<path d="M240.937 91.5977C242.104 92.4952 243.438 93.1811 244.465 94.2427C245.492 95.3042 246.177 96.9129 245.633 98.2985C245.291 99.1707 244.537 99.7883 243.888 100.453C243.239 101.119 242.638 101.977 242.742 102.911C242.811 103.529 243.178 104.063 243.514 104.582C244.391 105.937 245.146 107.525 244.887 109.129C244.677 110.421 243.799 111.547 242.676 112.179C241.553 112.81 240.213 112.973 238.946 112.785C238.21 112.675 237.482 112.451 236.739 112.484C234.779 112.57 233.236 114.382 231.287 114.615C230.183 114.748 229.027 114.32 228.261 113.495C227.495 112.67 227.139 111.468 227.327 110.347C227.635 108.513 229.206 107.223 230.651 106.091C232.096 104.959 233.641 103.612 233.855 101.764C234.014 100.385 233.378 99.0034 233.544 97.6252C233.782 95.6493 235.579 94.2016 236.011 92.2605C236.257 91.1569 235.863 88.3678 237.557 88.4036C238.85 88.4309 239.978 90.8613 240.937 91.5977Z" fill="#524F63"/>
<path d="M226.719 89.3936C226.37 90.0617 225.924 90.6719 225.48 91.2779C224.856 92.1332 224.23 92.9886 223.604 93.8429C224.056 92.2006 224.207 90.472 224.047 88.7728C224.023 88.514 223.992 88.2479 224.053 87.9954C224.168 87.5156 224.585 87.1831 224.987 86.9096C225.562 86.5203 227.038 85.2641 227.623 86.0721C228.082 86.7076 227.027 88.8034 226.719 89.3936Z" fill="#524F63"/>
<path d="M241.234 135.981L240.1 137.009L244.038 141.714L241.234 135.981Z" fill="#524F63"/>
<path d="M324.885 174.76L322.346 124.181C322.346 124.181 309.622 121.44 305.836 121.44C303.773 121.44 300.249 122.441 297.468 123.352C294.854 124.208 292.683 126.094 291.414 128.581L270.546 169.458L283.368 170.706L287.642 165.713L285.468 162.345L293.263 143.555L293.136 175.384L324.885 174.76Z" fill="#D98E9D"/>
<path d="M323.183 109.541C323.183 116.451 317.702 122.053 310.941 122.053C307.199 122.053 304.603 118.083 302.357 115.378C300.546 113.196 299.119 112.58 299.119 109.494C299.119 102.584 304.179 97.0286 310.941 97.0286C317.702 97.0286 323.183 102.631 323.183 109.541Z" fill="#EEBCC5"/>
<path d="M291.915 171.953H249.176L240.1 137.009H282.84L291.915 171.953Z" fill="#524F63"/>
<path d="M291.915 171.953H250.51L241.234 135.981L283.123 137.009L291.915 171.953Z" fill="white"/>
<path d="M278.825 169.421H249.521V171.953H278.825V169.421Z" fill="#524F63"/>
<path d="M307.67 166.068L324.046 158.071L322.691 131.096L319.859 131.272L298.633 154.039C298.633 154.039 295.466 162.486 293.16 169.138L293.135 175.384L315.146 174.952L307.67 166.068Z" fill="url(#paint11_linear_1_358)"/>
<path d="M280.533 163.874H257.725L252.615 144.059L275.69 144.625L280.533 163.874Z" fill="#FF9103"/>
<path d="M287.023 181.594L256.859 189.436L272.206 251.093L277.498 248.389L272.999 195.386L299.989 186.732L284.378 195.926L284.642 246.226H289.405C289.405 246.226 302.635 197.008 303.958 197.008C305.281 197.008 327.507 181.864 327.507 181.864L287.023 181.594Z" fill="#FFA412"/>
<path d="M255.974 255.948L276.951 254.424L277.527 247.67L255.105 252.885L255.974 255.948Z" fill="#524F63"/>
<path d="M303.234 126.723C303.424 129.148 303.869 131.552 304.558 133.88C304.711 134.393 304.895 134.933 305.308 135.263C306.156 135.94 307.387 135.371 308.27 134.742C309.809 133.645 311.241 132.377 312.437 130.899C313.206 129.949 313.89 128.881 314.126 127.672C314.363 126.463 314.075 125.09 313.162 124.285C311.751 123.041 308.713 123.086 306.937 123.044C304.439 122.984 303.026 124.039 303.234 126.723Z" fill="#EFF2F7"/>
<path d="M272.999 259.747L277.233 260.288L289.14 255.69L289.404 246.226H284.642L282.525 252.175L276.107 256.139L272.999 259.747Z" fill="#524F63"/>
<path d="M306.332 115.849L305.427 126.397C305.427 126.397 306.151 130.838 308.686 130.097C311.221 129.357 311.583 127.321 311.583 127.321L312.669 114.74L306.332 115.849Z" fill="#EEBCC5"/>
<path d="M315.498 105.487C317.425 105.409 319.408 105.273 321.146 104.417C322.884 103.562 324.339 101.817 324.307 99.845C324.275 97.8745 322.285 96.0165 320.45 96.6256C320.031 96.7645 319.65 97.0118 319.221 97.1138C318.554 97.2727 317.862 97.0654 317.207 96.8676C312.256 95.3758 306.718 94.3836 302.096 96.7298C301.237 97.1664 300.397 97.7461 299.945 98.611C299.593 99.2843 299.511 100.067 299.443 100.827C299.26 102.87 299.139 104.919 299.082 106.971C300.42 106.229 301.749 105.349 303.141 104.72C304.5 104.107 305.373 104.713 306.819 105.02C309.667 105.626 312.605 105.605 315.498 105.487Z" fill="#4A4549"/>
<path opacity="0.7" d="M304.001 102.142C302.74 101.905 301.41 102.323 300.426 103.157C299.506 104.737 298.913 106.535 298.751 108.465C298.869 109.144 299.015 109.828 298.998 110.475C298.988 110.887 299.154 111.516 299.413 112.22C300.116 113.303 301.243 114.037 302.357 115.379C302.403 115.434 302.449 115.492 302.495 115.548C303.681 113.455 305.611 108.681 305.973 108.201C306.524 107.466 308.305 105.259 307.984 104.282C307.674 103.342 304.879 102.306 304.001 102.142Z" fill="#4A4549"/>
<path d="M304.017 107.238C303.922 107.095 303.819 106.95 303.673 106.864C303.494 106.757 303.276 106.755 303.068 106.755C302.263 106.755 301.335 106.814 300.85 107.472C300.646 107.75 300.555 108.099 300.489 108.441C300.334 109.257 300.295 110.097 300.378 110.925C300.503 112.198 301.104 113.625 302.322 113.914C303.048 114.085 303.826 113.783 304.377 113.271C306.293 111.49 305.27 109.129 304.017 107.238Z" fill="#EEBCC5"/>
<path d="M319.492 113.777C320.119 113.627 320.775 113.495 321.402 113.644C322.029 113.795 322.618 114.307 322.66 114.965C322.68 115.286 322.572 115.598 322.52 115.915C322.359 116.899 322.743 117.88 323.079 118.816C323.812 120.864 324.295 123.309 323.081 125.101C321.937 126.786 319.688 127.254 317.683 127.161C311.736 126.882 306.171 122.536 304.348 116.744C303.712 114.725 303.508 112.505 304.153 110.488C304.348 109.875 304.859 109.172 305.454 109.383C305.799 111.732 307.3 113.871 309.365 114.958C313.017 116.882 315.975 114.615 319.492 113.777Z" fill="#4A4549"/>
<path d="M242.578 137.066L282.32 138.041L290.587 170.901H251.302L242.578 137.066ZM241.234 135.981L250.51 171.953H291.915L283.124 137.009L241.234 135.981Z" fill="#524F63"/>
<path d="M308.297 171.953H249.522V169.421H308.297C308.982 169.421 309.536 169.988 309.536 170.687C309.536 171.386 308.981 171.953 308.297 171.953Z" fill="white"/>
<path d="M278.546 171.953H249.521V169.421H278.546C279.23 169.421 279.784 169.988 279.784 170.687C279.785 171.386 279.23 171.953 278.546 171.953Z" fill="#F09400"/>
<path d="M322.345 124.181L311.655 153.063L284.393 156.773L285.467 162.345L320.355 161.181L329.777 135.787C330.241 134.536 330.334 133.154 329.947 131.876C329.076 129.001 327.084 126.572 324.385 125.211L322.345 124.181Z" fill="#D98E9D"/>
<path d="M284.393 156.773L269.69 148.745C269.69 148.745 268.899 149.941 270.062 150.931C271.225 151.921 274.947 154.735 274.947 154.735V156.922C276.174 161.025 279.965 162.963 284.139 162.495L285.468 162.346L284.393 156.773Z" fill="#EEBCC5"/>
<path d="M344.294 171.891H326.735C326.735 171.891 326.227 170.591 329.026 170.071C331.825 169.551 339.713 169.29 339.713 169.29L341.749 166.95L344.548 167.73L344.294 171.891Z" fill="#75454F"/>
<path d="M358.711 117.04L339.999 168.646L344.618 169.826L373.365 119.537C373.365 119.537 372.539 116.28 367.655 113.159C362.77 110.039 358.711 117.04 358.711 117.04Z" fill="#F09400"/>
<path d="M359.226 93.3884C355.575 87.5671 347.999 85.8733 342.304 89.604C339.113 91.6945 337.066 95.4294 336.697 99.2538C336.509 101.193 336.501 101.871 337.27 103.662C338.05 105.481 340.199 107.966 338.968 111.576C338.679 112.421 338.918 113.715 339.884 114.108C340.843 114.5 341.688 113.434 342.619 113.39C344.385 113.308 347.855 116.073 349.118 117.16C349.659 117.626 350.242 118.113 350.944 118.204C351.545 118.283 352.145 118.057 352.683 117.772C355.37 116.346 357.008 113.497 358.351 110.724C359.607 108.128 360.74 105.38 360.929 102.507C361.504 99.4642 360.99 96.2027 359.226 93.3884Z" fill="#91616A"/>
<path d="M358.761 117.582C359.278 118.125 359.926 118.699 360.66 118.587C360.997 118.535 361.296 118.343 361.577 118.143C362.325 117.611 363.022 117.004 363.655 116.332C364.039 115.925 364.419 115.444 364.43 114.879C364.437 114.561 364.322 114.253 364.196 113.962C362.957 111.111 360.418 108.938 359.521 105.957C359.114 104.605 359.072 103.156 358.618 101.821C358.164 100.486 357.11 99.1959 355.728 99.1391C354.911 99.1065 354.135 99.5115 353.48 100.01C351.346 101.637 350.117 104.427 350.34 107.138C350.541 109.598 351.923 111.852 353.898 113.24C355.786 114.569 357.137 115.877 358.761 117.582Z" fill="#91616A"/>
<path d="M342.303 89.604C340.032 91.0916 338.356 93.4168 337.437 96.0091C339.784 97.1948 345.774 94.5604 347.401 93.5546C347.221 97.7598 349.459 101.982 353.003 104.127C355.154 105.428 357.692 105.997 359.844 107.261C360.407 105.72 360.823 104.134 360.93 102.507C361.504 99.4642 360.99 96.2027 359.226 93.3884C355.575 87.5682 347.999 85.8733 342.303 89.604Z" fill="#4A4549"/>
<path d="M348.869 102.299C348.18 101 348.865 99.2127 350.159 98.5562C351.454 97.8997 353.119 98.3037 354.151 99.3379C355.182 100.372 355.617 101.925 355.516 103.398C355.387 105.259 354.062 107.268 352.239 107.172C351.235 107.119 350.348 106.428 349.787 105.577C349.226 104.726 348.935 103.722 348.654 102.736" fill="#91616A"/>
<path d="M365.482 111.121L361.992 106.978L356.475 117.336L358.502 123.895L365.82 115.494L365.482 111.121Z" fill="white"/>
<path d="M369.472 111.686L402.233 148.955L382.172 166.961L357.601 128.383C355.092 124.688 358.931 116.538 361.44 112.844C363.275 110.139 366.976 109.606 369.472 111.686Z" fill="#FFA412"/>
<path d="M401.097 263.236L392.292 212.514L382.171 166.961L402.233 148.955L401.085 211.943L405.982 260.74L401.097 263.236Z" fill="#37354C"/>
<path d="M402.233 148.955L385.719 264.85L380.706 264.02L382.171 166.961L402.233 148.955Z" fill="#524F63"/>
<path d="M371.523 268.536L384.755 268.017L385.519 263.856L381.702 263.335L368.978 266.976L369.233 268.796L371.523 268.536Z" fill="#524F63"/>
<path d="M405.982 260.74L406.364 264.655L391.056 265.624L390.921 264.379L404.467 259.948L405.982 260.74Z" fill="#37354C"/>
<path d="M337.751 171.891H320.192C320.192 171.891 319.684 170.591 322.483 170.071C325.282 169.551 333.775 169.356 333.775 169.356L335.207 166.95L339.038 168.449L337.751 171.891Z" fill="#91616A"/>
<path d="M362.751 115.016L349.428 140.718L333.455 169.236L338.651 169.433L352.891 149.371L371.745 124.742C374.176 122.766 374.921 119.321 373.532 116.483C371.457 112.237 365.843 111.474 362.751 115.016Z" fill="#FFA412"/>
<path d="M370.352 148.403C369.983 143.184 368.187 126.945 368.187 126.945L362.698 136.386L370.352 148.403Z" fill="url(#paint12_linear_1_358)"/>
<path d="M225.14 191.157C224.243 191.157 217.073 194.21 217.073 194.21L222.676 241.227C221.406 241.839 219.644 242.197 218.452 242.547C215.7 243.351 213.233 243.641 210.803 245.297C210.606 245.44 210.546 246.154 210.51 246.398C210.43 246.937 211.147 247.177 211.68 247.2C215 247.348 218.325 247.363 221.646 247.244C223.763 247.168 225.493 246.064 227.379 245.075C228.474 244.5 228.89 242.798 228.828 242.003C228.808 241.761 225.987 191.157 225.14 191.157Z" fill="#EEBCC5"/>
<path d="M218.979 245.48C222.177 245.18 226.481 243.72 228.974 241.65C229.197 243.819 228.572 245.902 224.532 246.961C219.868 248.184 214.873 249.538 210.256 248.14C209.763 247.99 209.195 247.671 209.206 247.146C209.212 246.909 209.343 246.695 209.483 246.505C210.305 245.385 212.733 243.388 214.176 243.875C214.927 244.129 215.464 245.015 216.319 245.283C217.167 245.547 218.103 245.562 218.979 245.48Z" fill="#524F63"/>
<path d="M242.262 242.003C242.243 241.76 239.422 191.156 238.576 191.156C237.679 191.156 230.508 194.209 230.508 194.209L236.111 241.226C237.054 243.762 237.862 246.179 239.239 248.499C240.614 250.819 242.455 252.918 244.808 254.173C245.061 254.309 245.382 254.431 245.618 254.265C245.754 254.169 245.821 254.001 245.866 253.838C246.262 252.443 245.68 250.974 245.108 249.644C244.066 247.219 242.467 244.644 242.262 242.003Z" fill="#EEBCC5"/>
<path d="M237.579 248.214C239.008 250.923 240.766 253.684 243.511 254.951C243.979 255.166 244.498 255.337 245 255.231C245.678 255.088 246.18 254.452 246.35 253.767C246.521 253.082 246.413 252.356 246.238 251.672C245.973 250.64 245.554 249.649 245 248.744C244.868 248.53 244.702 248.3 244.457 248.261C244.142 248.21 243.882 248.489 243.624 248.679C242.914 249.202 241.901 249.106 241.138 248.668C240.375 248.229 239.813 247.506 239.297 246.782C238.257 245.319 237.331 242.632 235.886 241.788C235.436 243.982 236.573 246.308 237.579 248.214Z" fill="#524F63"/>
<path d="M158.949 259.333C160.84 259.333 162.373 257.766 162.373 255.833C162.373 253.901 160.84 252.334 158.949 252.334C157.058 252.334 155.525 253.901 155.525 255.833C155.525 257.766 157.058 259.333 158.949 259.333Z" fill="#524F63"/>
<path d="M200.155 259.333C202.046 259.333 203.579 257.766 203.579 255.833C203.579 253.901 202.046 252.334 200.155 252.334C198.264 252.334 196.731 253.901 196.731 255.833C196.731 257.766 198.264 259.333 200.155 259.333Z" fill="#524F63"/>
<path d="M182.103 255.833C182.103 257.766 180.57 259.333 178.679 259.333C176.788 259.333 175.255 257.766 175.255 255.833C175.255 253.901 176.788 252.334 178.679 252.334C180.57 252.334 182.103 253.901 182.103 255.833Z" fill="#524F63"/>
<path d="M158.949 255.833V254.02C158.949 249.969 162.162 246.686 166.125 246.686H179.592V211.042" stroke="#524F63" stroke-miterlimit="10"/>
<path d="M199.775 255.833V254.02C199.775 249.969 196.562 246.686 192.599 246.686H179.132V211.042" stroke="#524F63" stroke-miterlimit="10"/>
<path d="M178.68 255.833V246.686" stroke="#524F63" stroke-miterlimit="10"/>
<path d="M182.63 228.674H175.034V246.374H182.63V228.674Z" fill="#524F63"/>
<path d="M181.11 211.352H176.248V231.469H181.11V211.352Z" fill="#524F63"/>
<path d="M290.271 259.333C292.162 259.333 293.695 257.766 293.695 255.833C293.695 253.901 292.162 252.334 290.271 252.334C288.38 252.334 286.847 253.901 286.847 255.833C286.847 257.766 288.38 259.333 290.271 259.333Z" fill="#524F63"/>
<path d="M331.478 259.333C333.369 259.333 334.901 257.766 334.901 255.833C334.901 253.901 333.369 252.334 331.478 252.334C329.587 252.334 328.054 253.901 328.054 255.833C328.054 257.766 329.587 259.333 331.478 259.333Z" fill="#524F63"/>
<path d="M310.002 259.333C311.893 259.333 313.426 257.766 313.426 255.833C313.426 253.901 311.893 252.334 310.002 252.334C308.111 252.334 306.578 253.901 306.578 255.833C306.578 257.766 308.111 259.333 310.002 259.333Z" fill="#524F63"/>
<path d="M290.271 255.833V254.02C290.271 249.969 293.484 246.686 297.447 246.686H310.914V211.042" stroke="#524F63" stroke-miterlimit="10"/>
<path d="M331.098 255.833V254.02C331.098 249.969 327.885 246.686 323.922 246.686H310.455V211.042" stroke="#524F63" stroke-miterlimit="10"/>
<path d="M310.002 255.833V246.686" stroke="#524F63" stroke-miterlimit="10"/>
<path d="M313.952 228.674H306.356V246.374H313.952V228.674Z" fill="#524F63"/>
<path d="M312.433 211.352H307.571V231.469H312.433V211.352Z" fill="#524F63"/>
<path d="M338.903 175.698H103.837V213.762H338.903V175.698Z" fill="#BCBACE"/>
<path d="M108.13 175.997H104.174V273.043H108.13V175.997Z" fill="#524F63"/>
<path d="M341.559 175.997H337.603V273.043H341.559V175.997Z" fill="#524F63"/>
<path d="M341.542 198.174L103.551 175.943H341.542V198.174Z" fill="url(#paint13_linear_1_358)"/>
<path d="M350.263 171.953H94.6784V178.423H350.263V171.953Z" fill="#E0E4ED"/>
<defs>
<linearGradient id="paint0_linear_1_358" x1="57.5791" y1="235.868" x2="-13.6366" y2="282.322" gradientUnits="userSpaceOnUse">
<stop stop-color="#4A50C2" stop-opacity="0.02"/>
<stop offset="1" stop-color="#444BCC" stop-opacity="0.64"/>
</linearGradient>
<linearGradient id="paint1_linear_1_358" x1="452.967" y1="236.848" x2="381.751" y2="283.302" gradientUnits="userSpaceOnUse">
<stop stop-color="#4A50C2" stop-opacity="0.02"/>
<stop offset="1" stop-color="#444BCC" stop-opacity="0.64"/>
</linearGradient>
<linearGradient id="paint2_linear_1_358" x1="121.39" y1="224.869" x2="-39.0555" y2="329.528" gradientUnits="userSpaceOnUse">
<stop stop-color="#4A50C2" stop-opacity="0.02"/>
<stop offset="1" stop-color="#444BCC" stop-opacity="0.64"/>
</linearGradient>
<linearGradient id="paint3_linear_1_358" x1="443.83" y1="229.772" x2="283.385" y2="334.431" gradientUnits="userSpaceOnUse">
<stop stop-color="#4A50C2" stop-opacity="0.02"/>
<stop offset="1" stop-color="#444BCC" stop-opacity="0.64"/>
</linearGradient>
<linearGradient id="paint4_linear_1_358" x1="232.709" y1="223.397" x2="72.2629" y2="328.056" gradientUnits="userSpaceOnUse">
<stop stop-color="#4A50C2" stop-opacity="0.02"/>
<stop offset="1" stop-color="#444BCC" stop-opacity="0.64"/>
</linearGradient>
<linearGradient id="paint5_linear_1_358" x1="360.341" y1="221.435" x2="199.896" y2="326.095" gradientUnits="userSpaceOnUse">
<stop stop-color="#4A50C2" stop-opacity="0.02"/>
<stop offset="1" stop-color="#444BCC" stop-opacity="0.64"/>
</linearGradient>
<linearGradient id="paint6_linear_1_358" x1="262.399" y1="225.476" x2="165.922" y2="288.408" gradientUnits="userSpaceOnUse">
<stop stop-color="#4A50C2" stop-opacity="0.02"/>
<stop offset="1" stop-color="#444BCC" stop-opacity="0.64"/>
</linearGradient>
<linearGradient id="paint7_linear_1_358" x1="144.804" y1="151.509" x2="158.913" y2="151.509" gradientUnits="userSpaceOnUse">
<stop stop-color="#EAD18C" stop-opacity="0"/>
<stop offset="1" stop-color="#524F63" stop-opacity="0.7"/>
</linearGradient>
<linearGradient id="paint8_linear_1_358" x1="106.912" y1="154.035" x2="139.537" y2="154.035" gradientUnits="userSpaceOnUse">
<stop stop-color="#484EC2" stop-opacity="0"/>
<stop offset="1" stop-color="#444BCC" stop-opacity="0.5018"/>
</linearGradient>
<linearGradient id="paint9_linear_1_358" x1="152.351" y1="169.905" x2="222.294" y2="142.836" gradientUnits="userSpaceOnUse">
<stop stop-color="#EAD18C" stop-opacity="0"/>
<stop offset="1" stop-color="#524F63" stop-opacity="0.7"/>
</linearGradient>
<linearGradient id="paint10_linear_1_358" x1="221.311" y1="124.9" x2="234.846" y2="89.87" gradientUnits="userSpaceOnUse">
<stop stop-color="#484EC2" stop-opacity="0"/>
<stop offset="1" stop-color="#444BCC" stop-opacity="0.5018"/>
</linearGradient>
<linearGradient id="paint11_linear_1_358" x1="293.136" y1="153.241" x2="324.047" y2="153.241" gradientUnits="userSpaceOnUse">
<stop stop-color="#B6567A" stop-opacity="0"/>
<stop offset="1" stop-color="#C45771"/>
</linearGradient>
<linearGradient id="paint12_linear_1_358" x1="365.08" y1="151.487" x2="369.645" y2="123.989" gradientUnits="userSpaceOnUse">
<stop stop-color="#484EC2" stop-opacity="0"/>
<stop offset="1" stop-color="#444BCC" stop-opacity="0.5018"/>
</linearGradient>
<linearGradient id="paint13_linear_1_358" x1="221.302" y1="192.928" x2="238.642" y2="114.622" gradientUnits="userSpaceOnUse">
<stop stop-color="#676475" stop-opacity="0"/>
<stop offset="1" stop-color="#524F63" stop-opacity="0.7"/>
</linearGradient>
</defs>
</svg>
