<svg width="3556" height="2000" viewBox="0 0 3556 2000" fill="none" xmlns="http://www.w3.org/2000/svg">
<g clip-path="url(#clip0_2_2)">
<mask id="mask0_2_2" style="mask-type:luminance" maskUnits="userSpaceOnUse" x="0" y="0" width="3556" height="2000">
<path d="M3556 0H0V2000H3556V0Z" fill="white"/>
</mask>
<g mask="url(#mask0_2_2)">
<path d="M3556 0H0V2000H3556V0Z" fill="url(#paint0_linear_2_2)"/>
<path fill-rule="evenodd" clip-rule="evenodd" d="M1432 1822C1433.3 1822 1434.6 1822.5 1435.5 1823.5C1436.4 1824.4 1436.9 1825.7 1436.9 1827C1436.9 1828.3 1436.4 1829.6 1435.5 1830.5C1434.6 1831.4 1433.3 1831.9 1432 1831.9C1430.7 1831.9 1429.4 1831.4 1428.5 1830.5C1427.5 1829.6 1427 1828.3 1427 1827C1427 1825.7 1427.5 1824.4 1428.5 1823.5C1429.4 1822.5 1430.7 1822 1432 1822ZM1496 1822C1498.7 1822 1500.9 1824.2 1500.9 1827C1500.9 1829.7 1498.7 1831.9 1496 1831.9C1493.2 1831.9 1491 1829.7 1491 1827C1491 1824.2 1493.2 1822 1496 1822ZM1560 1822C1562.7 1822 1564.9 1824.2 1564.9 1827C1564.9 1829.7 1562.7 1831.9 1560 1831.9C1557.2 1831.9 1555 1829.7 1555 1827C1555 1824.2 1557.2 1822 1560 1822ZM1624 1822C1626.7 1822 1629 1824.2 1629 1827C1629 1829.7 1626.7 1831.9 1624 1831.9C1621.3 1831.9 1619 1829.7 1619 1827C1619 1824.2 1621.3 1822 1624 1822ZM1688 1822C1690.7 1822 1693 1824.2 1693 1827C1693 1829.7 1690.7 1831.9 1688 1831.9C1685.3 1831.9 1683 1829.7 1683 1827C1683 1824.2 1685.3 1822 1688 1822ZM1752 1822C1754.8 1822 1757 1824.2 1757 1827C1757 1829.7 1754.8 1831.9 1752 1831.9C1749.3 1831.9 1747 1829.7 1747 1827C1747 1824.2 1749.3 1822 1752 1822ZM1816 1822C1818.8 1822 1821 1824.2 1821 1827C1821 1829.7 1818.8 1831.9 1816 1831.9C1813.3 1831.9 1811.1 1829.7 1811.1 1827C1811.1 1824.2 1813.3 1822 1816 1822ZM1880 1822C1881.3 1822 1882.6 1822.5 1883.5 1823.5C1884.5 1824.4 1885 1825.7 1885 1827C1885 1828.3 1884.5 1829.6 1883.5 1830.5C1882.6 1831.4 1881.3 1831.9 1880 1831.9C1878.7 1831.9 1877.4 1831.4 1876.5 1830.5C1875.6 1829.6 1875.1 1828.3 1875.1 1827C1875.1 1825.7 1875.6 1824.4 1876.5 1823.5C1877.4 1822.5 1878.7 1822 1880 1822ZM1432 1878C1433.3 1878 1434.6 1878.6 1435.5 1879.5C1436.4 1880.4 1436.9 1881.7 1436.9 1883C1436.9 1884.3 1436.4 1885.6 1435.5 1886.5C1434.6 1887.4 1433.3 1888 1432 1888C1430.7 1888 1429.4 1887.4 1428.5 1886.5C1427.5 1885.6 1427 1884.3 1427 1883C1427 1881.7 1427.5 1880.4 1428.5 1879.5C1429.4 1878.6 1430.7 1878 1432 1878ZM1496 1878C1498.7 1878 1500.9 1880.2 1500.9 1883C1500.9 1885.7 1498.7 1888 1496 1888C1493.2 1888 1491 1885.7 1491 1883C1491 1880.2 1493.2 1878 1496 1878ZM1560 1878C1562.7 1878 1564.9 1880.2 1564.9 1883C1564.9 1885.7 1562.7 1888 1560 1888C1557.2 1888 1555 1885.7 1555 1883C1555 1880.2 1557.2 1878 1560 1878ZM1624 1878C1626.7 1878 1629 1880.2 1629 1883C1629 1885.7 1626.7 1888 1624 1888C1621.3 1888 1619 1885.7 1619 1883C1619 1880.2 1621.3 1878 1624 1878ZM1688 1878C1690.7 1878 1693 1880.2 1693 1883C1693 1885.7 1690.7 1888 1688 1888C1685.3 1888 1683 1885.7 1683 1883C1683 1880.2 1685.3 1878 1688 1878ZM1752 1878C1754.8 1878 1757 1880.2 1757 1883C1757 1885.7 1754.8 1888 1752 1888C1749.3 1888 1747 1885.7 1747 1883C1747 1880.2 1749.3 1878 1752 1878ZM1816 1878C1818.8 1878 1821 1880.2 1821 1883C1821 1885.7 1818.8 1888 1816 1888C1813.3 1888 1811.1 1885.7 1811.1 1883C1811.1 1880.2 1813.3 1878 1816 1878ZM1880 1878C1881.3 1878 1882.6 1878.6 1883.5 1879.5C1884.5 1880.4 1885 1881.7 1885 1883C1885 1884.3 1884.5 1885.6 1883.5 1886.5C1882.6 1887.4 1881.3 1888 1880 1888C1878.7 1888 1877.4 1887.4 1876.5 1886.5C1875.6 1885.6 1875.1 1884.3 1875.1 1883C1875.1 1881.7 1875.6 1880.4 1876.5 1879.5C1877.4 1878.6 1878.7 1878 1880 1878ZM1432 1934C1433.3 1934 1434.6 1934.6 1435.5 1935.5C1436.4 1936.4 1436.9 1937.7 1436.9 1939C1436.9 1940.3 1436.4 1941.6 1435.5 1942.5C1434.6 1943.4 1433.3 1944 1432 1944C1430.7 1944 1429.4 1943.4 1428.5 1942.5C1427.5 1941.6 1427 1940.3 1427 1939C1427 1937.7 1427.5 1936.4 1428.5 1935.5C1429.4 1934.6 1430.7 1934 1432 1934ZM1496 1934C1498.7 1934 1500.9 1936.3 1500.9 1939C1500.9 1941.8 1498.7 1944 1496 1944C1493.2 1944 1491 1941.8 1491 1939C1491 1936.3 1493.2 1934 1496 1934ZM1560 1934C1562.7 1934 1564.9 1936.3 1564.9 1939C1564.9 1941.8 1562.7 1944 1560 1944C1557.2 1944 1555 1941.8 1555 1939C1555 1936.3 1557.2 1934 1560 1934ZM1624 1934C1626.7 1934 1629 1936.3 1629 1939C1629 1941.8 1626.7 1944 1624 1944C1621.3 1944 1619 1941.8 1619 1939C1619 1936.3 1621.3 1934 1624 1934ZM1688 1934C1690.7 1934 1693 1936.3 1693 1939C1693 1941.8 1690.7 1944 1688 1944C1685.3 1944 1683 1941.8 1683 1939C1683 1936.3 1685.3 1934 1688 1934ZM1752 1934C1754.8 1934 1757 1936.3 1757 1939C1757 1941.8 1754.8 1944 1752 1944C1749.3 1944 1747 1941.8 1747 1939C1747 1936.3 1749.3 1934 1752 1934ZM1816 1934C1818.8 1934 1821 1936.3 1821 1939C1821 1941.8 1818.8 1944 1816 1944C1813.3 1944 1811.1 1941.8 1811.1 1939C1811.1 1936.3 1813.3 1934 1816 1934ZM1880 1934C1881.3 1934 1882.6 1934.6 1883.5 1935.5C1884.5 1936.4 1885 1937.7 1885 1939C1885 1940.3 1884.5 1941.6 1883.5 1942.5C1882.6 1943.4 1881.3 1944 1880 1944C1878.7 1944 1877.4 1943.4 1876.5 1942.5C1875.6 1941.6 1875.1 1940.3 1875.1 1939C1875.1 1937.7 1875.6 1936.4 1876.5 1935.5C1877.4 1934.6 1878.7 1934 1880 1934ZM1432 1990.1C1433.3 1990.1 1434.6 1990.6 1435.5 1991.5C1436.4 1992.4 1436.9 1993.7 1436.9 1995C1436.9 1996.3 1436.4 1997.6 1435.5 1998.5C1434.6 1999.5 1433.3 2000 1432 2000C1430.7 2000 1429.4 1999.5 1428.5 1998.5C1427.5 1997.6 1427 1996.3 1427 1995C1427 1993.7 1427.5 1992.4 1428.5 1991.5C1429.4 1990.6 1430.7 1990.1 1432 1990.1ZM1496 1990.1C1498.7 1990.1 1500.9 1992.3 1500.9 1995C1500.9 1997.8 1498.7 2000 1496 2000C1493.2 2000 1491 1997.8 1491 1995C1491 1992.3 1493.2 1990.1 1496 1990.1ZM1560 1990.1C1562.7 1990.1 1564.9 1992.3 1564.9 1995C1564.9 1997.8 1562.7 2000 1560 2000C1557.2 2000 1555 1997.8 1555 1995C1555 1992.3 1557.2 1990.1 1560 1990.1ZM1624 1990.1C1626.7 1990.1 1629 1992.3 1629 1995C1629 1997.8 1626.7 2000 1624 2000C1621.3 2000 1619 1997.8 1619 1995C1619 1992.3 1621.3 1990.1 1624 1990.1ZM1688 1990.1C1690.7 1990.1 1693 1992.3 1693 1995C1693 1997.8 1690.7 2000 1688 2000C1685.3 2000 1683 1997.8 1683 1995C1683 1992.3 1685.3 1990.1 1688 1990.1ZM1752 1990.1C1754.8 1990.1 1757 1992.3 1757 1995C1757 1997.8 1754.8 2000 1752 2000C1749.3 2000 1747 1997.8 1747 1995C1747 1992.3 1749.3 1990.1 1752 1990.1ZM1816 1990.1C1818.8 1990.1 1821 1992.3 1821 1995C1821 1997.8 1818.8 2000 1816 2000C1813.3 2000 1811.1 1997.8 1811.1 1995C1811.1 1992.3 1813.3 1990.1 1816 1990.1ZM1880 1990.1C1881.3 1990.1 1882.6 1990.6 1883.5 1991.5C1884.5 1992.4 1885 1993.7 1885 1995C1885 1996.3 1884.5 1997.6 1883.5 1998.5C1882.6 1999.5 1881.3 2000 1880 2000C1878.7 2000 1877.4 1999.5 1876.5 1998.5C1875.6 1997.6 1875.1 1996.3 1875.1 1995C1875.1 1993.7 1875.6 1992.4 1876.5 1991.5C1877.4 1990.6 1878.7 1990.1 1880 1990.1Z" fill="white"/>
<path fill-rule="evenodd" clip-rule="evenodd" d="M5 0C6.3 0 7.6 0.5 8.5 1.5C9.4 2.4 9.8999 3.7 9.8999 5C9.8999 6.3 9.4 7.6 8.5 8.5C7.6 9.4 6.3 9.9 5 9.9C3.7 9.9 2.4 9.4 1.5 8.5C0.5 7.6 0 6.3 0 5C0 3.7 0.5 2.4 1.5 1.5C2.4 0.5 3.7 0 5 0ZM69 0C71.7 0 73.8999 2.2 73.8999 5C73.8999 7.7 71.7 9.9 69 9.9C66.2 9.9 64 7.7 64 5C64 2.2 66.2 0 69 0ZM133 0C135.7 0 137.9 2.2 137.9 5C137.9 7.7 135.7 9.9 133 9.9C130.2 9.9 128 7.7 128 5C128 2.2 130.2 0 133 0ZM197 0C199.7 0 202 2.2 202 5C202 7.7 199.7 9.9 197 9.9C194.3 9.9 192 7.7 192 5C192 2.2 194.3 0 197 0ZM261 0C263.7 0 266 2.2 266 5C266 7.7 263.7 9.9 261 9.9C258.3 9.9 256 7.7 256 5C256 2.2 258.3 0 261 0ZM325 0C327.8 0 330 2.2 330 5C330 7.7 327.8 9.9 325 9.9C322.3 9.9 320 7.7 320 5C320 2.2 322.3 0 325 0ZM389 0C391.8 0 394 2.2 394 5C394 7.7 391.8 9.9 389 9.9C386.3 9.9 384.1 7.7 384.1 5C384.1 2.2 386.3 0 389 0ZM453 0C454.3 0 455.6 0.5 456.5 1.5C457.5 2.4 458 3.7 458 5C458 6.3 457.5 7.6 456.5 8.5C455.6 9.4 454.3 9.9 453 9.9C451.7 9.9 450.4 9.4 449.5 8.5C448.6 7.6 448.1 6.3 448.1 5C448.1 3.7 448.6 2.4 449.5 1.5C450.4 0.5 451.7 0 453 0ZM5 56C6.3 56 7.6 56.6 8.5 57.5C9.4 58.4 9.8999 59.7 9.8999 61C9.8999 62.3 9.4 63.6 8.5 64.5C7.6 65.4 6.3 66 5 66C3.7 66 2.4 65.4 1.5 64.5C0.5 63.6 0 62.3 0 61C0 59.7 0.5 58.4 1.5 57.5C2.4 56.6 3.7 56 5 56ZM69 56C71.7 56 73.8999 58.2 73.8999 61C73.8999 63.7 71.7 66 69 66C66.2 66 64 63.7 64 61C64 58.2 66.2 56 69 56ZM133 56C135.7 56 137.9 58.2 137.9 61C137.9 63.7 135.7 66 133 66C130.2 66 128 63.7 128 61C128 58.2 130.2 56 133 56ZM197 56C199.7 56 202 58.2 202 61C202 63.7 199.7 66 197 66C194.3 66 192 63.7 192 61C192 58.2 194.3 56 197 56ZM261 56C263.7 56 266 58.2 266 61C266 63.7 263.7 66 261 66C258.3 66 256 63.7 256 61C256 58.2 258.3 56 261 56ZM325 56C327.8 56 330 58.2 330 61C330 63.7 327.8 66 325 66C322.3 66 320 63.7 320 61C320 58.2 322.3 56 325 56ZM389 56C391.8 56 394 58.2 394 61C394 63.7 391.8 66 389 66C386.3 66 384.1 63.7 384.1 61C384.1 58.2 386.3 56 389 56ZM453 56C454.3 56 455.6 56.6 456.5 57.5C457.5 58.4 458 59.7 458 61C458 62.3 457.5 63.6 456.5 64.5C455.6 65.4 454.3 66 453 66C451.7 66 450.4 65.4 449.5 64.5C448.6 63.6 448.1 62.3 448.1 61C448.1 59.7 448.6 58.4 449.5 57.5C450.4 56.6 451.7 56 453 56ZM5 112C6.3 112 7.6 112.6 8.5 113.5C9.4 114.4 9.8999 115.7 9.8999 117C9.8999 118.3 9.4 119.6 8.5 120.5C7.6 121.4 6.3 122 5 122C3.7 122 2.4 121.4 1.5 120.5C0.5 119.6 0 118.3 0 117C0 115.7 0.5 114.4 1.5 113.5C2.4 112.6 3.7 112 5 112ZM69 112C71.7 112 73.8999 114.3 73.8999 117C73.8999 119.8 71.7 122 69 122C66.2 122 64 119.8 64 117C64 114.3 66.2 112 69 112ZM133 112C135.7 112 137.9 114.3 137.9 117C137.9 119.8 135.7 122 133 122C130.2 122 128 119.8 128 117C128 114.3 130.2 112 133 112ZM197 112C199.7 112 202 114.3 202 117C202 119.8 199.7 122 197 122C194.3 122 192 119.8 192 117C192 114.3 194.3 112 197 112ZM261 112C263.7 112 266 114.3 266 117C266 119.8 263.7 122 261 122C258.3 122 256 119.8 256 117C256 114.3 258.3 112 261 112ZM325 112C327.8 112 330 114.3 330 117C330 119.8 327.8 122 325 122C322.3 122 320 119.8 320 117C320 114.3 322.3 112 325 112ZM389 112C391.8 112 394 114.3 394 117C394 119.8 391.8 122 389 122C386.3 122 384.1 119.8 384.1 117C384.1 114.3 386.3 112 389 112ZM453 112C454.3 112 455.6 112.6 456.5 113.5C457.5 114.4 458 115.7 458 117C458 118.3 457.5 119.6 456.5 120.5C455.6 121.4 454.3 122 453 122C451.7 122 450.4 121.4 449.5 120.5C448.6 119.6 448.1 118.3 448.1 117C448.1 115.7 448.6 114.4 449.5 113.5C450.4 112.6 451.7 112 453 112ZM5 168.1C6.3 168.1 7.6 168.6 8.5 169.5C9.4 170.4 9.8999 171.7 9.8999 173C9.8999 174.3 9.4 175.6 8.5 176.5C7.6 177.5 6.3 178 5 178C3.7 178 2.4 177.5 1.5 176.5C0.5 175.6 0 174.3 0 173C0 171.7 0.5 170.4 1.5 169.5C2.4 168.6 3.7 168.1 5 168.1ZM69 168.1C71.7 168.1 73.8999 170.3 73.8999 173C73.8999 175.8 71.7 178 69 178C66.2 178 64 175.8 64 173C64 170.3 66.2 168.1 69 168.1ZM133 168.1C135.7 168.1 137.9 170.3 137.9 173C137.9 175.8 135.7 178 133 178C130.2 178 128 175.8 128 173C128 170.3 130.2 168.1 133 168.1ZM197 168.1C199.7 168.1 202 170.3 202 173C202 175.8 199.7 178 197 178C194.3 178 192 175.8 192 173C192 170.3 194.3 168.1 197 168.1ZM261 168.1C263.7 168.1 266 170.3 266 173C266 175.8 263.7 178 261 178C258.3 178 256 175.8 256 173C256 170.3 258.3 168.1 261 168.1ZM325 168.1C327.8 168.1 330 170.3 330 173C330 175.8 327.8 178 325 178C322.3 178 320 175.8 320 173C320 170.3 322.3 168.1 325 168.1ZM389 168.1C391.8 168.1 394 170.3 394 173C394 175.8 391.8 178 389 178C386.3 178 384.1 175.8 384.1 173C384.1 170.3 386.3 168.1 389 168.1ZM453 168.1C454.3 168.1 455.6 168.6 456.5 169.5C457.5 170.4 458 171.7 458 173C458 174.3 457.5 175.6 456.5 176.5C455.6 177.5 454.3 178 453 178C451.7 178 450.4 177.5 449.5 176.5C448.6 175.6 448.1 174.3 448.1 173C448.1 171.7 448.6 170.4 449.5 169.5C450.4 168.6 451.7 168.1 453 168.1Z" fill="white"/>
<path d="M3360.87 137.95L3343.28 120.35C3341.58 118.55 3341.58 115.75 3343.28 113.95C3345.08 112.25 3347.87 112.25 3349.67 113.95L3367.17 131.55L3384.78 113.95C3386.58 112.25 3389.37 112.25 3391.07 113.95C3392.87 115.75 3392.87 118.55 3391.07 120.35L3373.57 137.95L3390.87 155.35C3392.67 157.15 3392.67 159.95 3390.87 161.75C3389.97 162.65 3388.87 163.05 3387.67 163.05C3386.57 163.05 3385.37 162.65 3384.57 161.75L3367.17 144.35L3349.87 161.75C3348.97 162.65 3347.87 163.05 3346.67 163.05C3345.57 163.05 3344.37 162.65 3343.57 161.75C3341.77 159.95 3341.77 157.15 3343.57 155.35L3360.87 137.95ZM3409.78 1.35C3411.58 -0.45 3414.37 -0.45 3416.17 1.35L3433.67 18.95L3451.28 1.35C3453.08 -0.45 3455.87 -0.45 3457.67 1.35C3459.37 3.15 3459.37 5.94999 3457.67 7.74999L3440.07 25.35L3457.37 42.75C3459.17 44.55 3459.17 47.35 3457.37 49.15C3456.47 50.05 3455.38 50.45 3454.28 50.45C3453.08 50.45 3451.97 50.05 3451.07 49.15L3433.67 31.75L3416.37 49.15C3415.47 50.05 3414.37 50.45 3413.17 50.45C3412.07 50.45 3410.87 50.05 3410.07 49.15C3408.27 47.35 3408.27 44.55 3410.07 42.75L3427.37 25.35L3409.78 7.74999C3408.08 5.94999 3408.08 3.15 3409.78 1.35Z" fill="#FF9103"/>
<path d="M161.9 1877.9L144.3 1860.3C142.6 1858.5 142.6 1855.7 144.3 1853.9C146.1 1852.2 148.9 1852.2 150.7 1853.9L168.2 1871.5L185.8 1853.9C187.6 1852.2 190.4 1852.2 192.1 1853.9C193.9 1855.7 193.9 1858.5 192.1 1860.3L174.6 1877.9L191.9 1895.3C193.7 1897.1 193.7 1899.9 191.9 1901.7C191 1902.6 189.9 1903 188.7 1903C187.6 1903 186.4 1902.6 185.6 1901.7L168.2 1884.3L150.9 1901.7C150 1902.6 148.9 1903 147.7 1903C146.6 1903 145.4 1902.6 144.6 1901.7C142.8 1899.9 142.8 1897.1 144.6 1895.3L161.9 1877.9Z" fill="white"/>
<path d="M3364.9 1618.9L3347.3 1601.3C3345.6 1599.5 3345.6 1596.7 3347.3 1594.9C3349.1 1593.2 3351.9 1593.2 3353.7 1594.9L3371.2 1612.5L3388.8 1594.9C3390.6 1593.2 3393.4 1593.2 3395.1 1594.9C3396.9 1596.7 3396.9 1599.5 3395.1 1601.3L3377.6 1618.9L3394.9 1636.3C3396.7 1638.1 3396.7 1640.9 3394.9 1642.7C3394 1643.6 3392.9 1644 3391.7 1644C3390.6 1644 3389.4 1643.6 3388.6 1642.7L3371.2 1625.3L3353.9 1642.7C3353 1643.6 3351.9 1644 3350.7 1644C3349.6 1644 3348.4 1643.6 3347.6 1642.7C3345.8 1640.9 3345.8 1638.1 3347.6 1636.3L3364.9 1618.9ZM3413.8 1482.3C3415.6 1480.5 3418.4 1480.5 3420.2 1482.3L3437.7 1499.9L3455.3 1482.3C3457.1 1480.5 3459.9 1480.5 3461.7 1482.3C3463.4 1484.1 3463.4 1486.9 3461.7 1488.7L3444.1 1506.3L3461.4 1523.7C3463.2 1525.5 3463.2 1528.3 3461.4 1530.1C3460.5 1531 3459.4 1531.4 3458.3 1531.4C3457.1 1531.4 3456 1531 3455.1 1530.1L3437.7 1512.7L3420.4 1530.1C3419.5 1531 3418.4 1531.4 3417.2 1531.4C3416.1 1531.4 3414.9 1531 3414.1 1530.1C3412.3 1528.3 3412.3 1525.5 3414.1 1523.7L3431.4 1506.3L3413.8 1488.7C3412.1 1486.9 3412.1 1484.1 3413.8 1482.3Z" fill="#FF9103"/>
<path opacity="0.8" d="M2646 1350.58C2852.88 1350.58 3020.58 1182.88 3020.58 976C3020.58 769.124 2852.88 601.417 2646 601.417C2439.12 601.417 2271.42 769.124 2271.42 976C2271.42 1182.88 2439.12 1350.58 2646 1350.58Z" stroke="white" stroke-width="2"/>
<path opacity="0.75" d="M2646 1413.15C2887.43 1413.15 3083.15 1217.43 3083.15 976C3083.15 734.567 2887.43 538.848 2646 538.848C2404.57 538.848 2208.85 734.567 2208.85 976C2208.85 1217.43 2404.57 1413.15 2646 1413.15Z" stroke="white" stroke-width="2"/>
<path opacity="0.65" d="M2646 1475.72C2921.99 1475.72 3145.72 1251.99 3145.72 976C3145.72 700.011 2921.99 476.278 2646 476.278C2370.01 476.278 2146.28 700.011 2146.28 976C2146.28 1251.99 2370.01 1475.72 2646 1475.72Z" stroke="white" stroke-width="2"/>
<path opacity="0.5" d="M2646 1538.29C2956.54 1538.29 3208.29 1286.54 3208.29 976C3208.29 665.455 2956.54 413.709 2646 413.709C2335.46 413.709 2083.71 665.455 2083.71 976C2083.71 1286.54 2335.46 1538.29 2646 1538.29Z" stroke="white" stroke-width="2"/>
<path opacity="0.35" d="M2646 1600.86C2991.1 1600.86 3270.86 1321.1 3270.86 976C3270.86 630.899 2991.1 351.139 2646 351.139C2300.9 351.139 2021.14 630.899 2021.14 976C2021.14 1321.1 2300.9 1600.86 2646 1600.86Z" stroke="white" stroke-width="2"/>
<path opacity="0.25" d="M2646 1663.43C3025.66 1663.43 3333.43 1355.66 3333.43 976C3333.43 596.343 3025.66 288.57 2646 288.57C2266.34 288.57 1958.57 596.343 1958.57 976C1958.57 1355.66 2266.34 1663.43 2646 1663.43Z" stroke="white" stroke-width="2"/>
<path opacity="0.1" d="M2646 1726C3060.21 1726 3396 1390.21 3396 976C3396 561.786 3060.21 226 2646 226C2231.79 226 1896 561.786 1896 976C1896 1390.21 2231.79 1726 2646 1726Z" stroke="white" stroke-width="2"/>
<path d="M2128 0C2128 92.8258 2091.13 181.85 2025.49 247.487C1959.85 313.125 1870.83 350 1778 350C1685.17 350 1596.15 313.125 1530.51 247.487C1464.87 181.85 1428 92.8258 1428 5.28485e-05L1431.5 5.232e-05C1431.5 91.8976 1468.01 180.031 1532.99 245.013C1597.97 309.994 1686.1 346.5 1778 346.5C1869.9 346.5 1958.03 309.994 2023.01 245.012C2087.99 180.031 2124.5 91.8975 2124.5 0H2128Z" fill="white"/>
</g>
</g>
<defs>
<linearGradient id="paint0_linear_2_2" x1="3556" y1="987.619" x2="3.16307e-05" y2="1012.38" gradientUnits="userSpaceOnUse">
<stop stop-color="#FFEDD5"/>
<stop offset="0.216346" stop-color="#FFE3BF"/>
<stop offset="1" stop-color="#FF9103"/>
</linearGradient>
<clipPath id="clip0_2_2">
<rect width="3556" height="2000" fill="white"/>
</clipPath>
</defs>
</svg>
