<svg width="2362" height="1906" viewBox="0 0 2362 1906" fill="none" xmlns="http://www.w3.org/2000/svg">
<path d="M2128.4 1257.3V1704.6C2128.4 1741.5 2098.5 1771.3 2061.7 1771.3H1400.7C1363.9 1771.3 1334 1741.5 1334 1704.6V1257.3" stroke="#FEFEFE" stroke-width="8.3" stroke-linecap="round" stroke-linejoin="round" stroke-dasharray="34.26 34.26"/>
<path d="M1334 211.3C1334 174.5 1288.6 144.6 1232.6 144.6H828.9C772.9 144.6 727.5 174.5 727.5 211.3V536.1C727.5 572.9 772.9 602.8 828.9 602.8H1232.6C1288.6 602.8 1334 572.9 1334 536.1V211.3Z" stroke="#FEFEFE" stroke-width="8.3" stroke-linecap="round" stroke-linejoin="round" stroke-dasharray="34.26 34.26"/>
<path fill-rule="evenodd" clip-rule="evenodd" d="M2000.5 382.5V387C2000.5 389.1 1999.2 390 1996 390H1868.6C1865.3 390 1864 389.1 1864 387V382.5C1864 380.3 1865.3 379.4 1868.6 379.4H1875.5C1875.1 379 1874.9 378.4 1874.9 377.5V373C1874.9 370.9 1876 370 1878.8 370H1882.6C1882.6 369.933 1882.6 369.867 1882.6 369.8V316.5C1880.5 316.1 1880 314.7 1880 311.8V306.6C1879.53 306.6 1879.03 306.6 1878.5 306.6H1874.9C1872.1 306.6 1869.7 306.5 1866.4 306.2C1865.3 306.1 1864.5 305.5 1864.1 304.5C1863.6 303.2 1864.1 301.5 1865.2 300.4C1866.1 299.5 1866.9 298.7 1867.7 298C1868.6 297.1 1869.5 296.3 1870.4 295.3C1875.67 289.767 1880.93 284.267 1886.2 278.8C1890.6 274.067 1895.03 269.367 1899.5 264.7L1923.2 239.9C1925.3 237.6 1928.2 236.3 1931.3 236.3C1934.4 236.3 1937.3 237.6 1939.5 239.9L1939.9 240.3C1942.4 242.9 1954.6 255.8 1960.9 262.4C1967.8 269.6 1974.9 276.5 1981.8 283.2C1987.3 288.5 1993 294 1998.5 299.6C1998.63 299.733 1998.77 299.867 1998.9 300C1999.9 300.9 2001.8 302.7 2000.3 305.4C1999.7 306.3 1998.6 306.7 1997.9 306.8C1996.6 307.1 1995.2 307.2 1993.4 307.2C1992.1 307.2 1990.8 307.2 1989.5 307.1C1988.2 307 1986.9 306.9 1985.7 306.9C1985.3 306.9 1984.87 306.9 1984.4 306.9V311.8C1984.4 314.7 1984 316.1 1981.8 316.5V369.8C1981.8 369.867 1981.8 369.933 1981.8 370H1985.8C1988.5 370 1989.7 370.9 1989.7 373V377.5C1989.7 378.4 1989.4 379 1989 379.4H1996C1999.2 379.4 2000.5 380.3 2000.5 382.5ZM1921.6 311.8V306.6C1918.67 306.6 1915.73 306.6 1912.8 306.6H1904C1903.13 306.6 1902.27 306.6 1901.4 306.6V311.8C1901.4 314.7 1900.9 316.1 1898.8 316.5V369.8C1898.8 369.867 1898.8 369.933 1898.8 370H1924.2C1924.2 369.933 1924.2 369.867 1924.2 369.8V316.5C1922 316.1 1921.6 314.7 1921.6 311.8ZM1963.1 311.8V306.7C1959.5 306.633 1955.9 306.6 1952.3 306.6H1942.9V311.8C1942.9 314.7 1942.5 316.1 1940.3 316.5V369.8C1940.3 369.867 1940.3 369.933 1940.3 370H1965.7C1965.7 369.933 1965.7 369.867 1965.7 369.8V316.5C1963.5 316.1 1963.1 314.7 1963.1 311.8Z" fill="white"/>
<path d="M537.2 187.3C537.2 193.4 532.3 198.4 526.2 198.4C520.1 198.4 515.1 193.4 515.1 187.3C515.1 181.2 520.1 176.3 526.2 176.3C532.3 176.3 537.2 181.2 537.2 187.3Z" fill="white"/>
<path d="M537.2 280.5C537.2 286.6 532.3 291.5 526.2 291.5C520.1 291.5 515.1 286.6 515.1 280.5C515.1 274.4 520.1 269.4 526.2 269.4C532.3 269.4 537.2 274.4 537.2 280.5Z" fill="white"/>
<path d="M571.8 219.5C566.6 222.6 559.8 220.9 556.7 215.6C553.5 210.4 555.2 203.6 560.5 200.5C565.7 197.4 572.5 199.1 575.6 204.3C578.8 209.5 577.1 216.3 571.8 219.5Z" fill="white"/>
<path d="M491.9 267.3C486.6 270.4 479.9 268.7 476.7 263.5C473.6 258.3 475.3 251.5 480.5 248.4C485.8 245.2 492.5 246.9 495.7 252.2C498.8 257.4 497.1 264.2 491.9 267.3Z" fill="white"/>
<path d="M571.9 248C566.7 244.9 559.9 246.6 556.8 251.9C553.7 257.2 555.5 263.9 560.8 267C566 270.1 572.8 268.3 575.9 263.1C579 257.8 577.2 251.1 571.9 248Z" fill="white"/>
<path d="M491.6 200.8C486.3 197.7 479.6 199.5 476.5 204.7C473.4 210 475.1 216.7 480.4 219.8C485.7 222.9 492.4 221.2 495.5 215.9C498.6 210.6 496.9 203.9 491.6 200.8Z" fill="white"/>
<path d="M849.7 1621.5C849.7 1627.6 844.7 1632.5 838.6 1632.5C832.5 1632.5 827.6 1627.6 827.6 1621.5C827.6 1615.4 832.5 1610.4 838.6 1610.4C844.7 1610.4 849.7 1615.4 849.7 1621.5Z" fill="white"/>
<path d="M849.7 1714.7C849.7 1720.8 844.7 1725.7 838.6 1725.7C832.5 1725.7 827.6 1720.8 827.6 1714.7C827.6 1708.6 832.5 1703.6 838.6 1703.6C844.7 1703.6 849.7 1708.6 849.7 1714.7Z" fill="white"/>
<path d="M884.3 1653.6C879 1656.8 872.3 1655.1 869.1 1649.8C866 1644.6 867.7 1637.8 872.9 1634.7C878.2 1631.5 885 1633.2 888.1 1638.5C891.2 1643.7 889.5 1650.5 884.3 1653.6Z" fill="white"/>
<path d="M804.3 1701.5C799.1 1704.6 792.3 1702.9 789.2 1697.7C786.1 1692.5 787.8 1685.7 793 1682.5C798.2 1679.4 805 1681.1 808.1 1686.3C811.3 1691.6 809.6 1698.4 804.3 1701.5Z" fill="white"/>
<path d="M884.4 1682.1C879.1 1679.1 872.4 1680.8 869.3 1686.1C866.2 1691.3 868 1698.1 873.2 1701.2C878.5 1704.3 885.3 1702.5 888.3 1697.3C891.4 1692 889.7 1685.2 884.4 1682.1Z" fill="white"/>
<path d="M804.1 1635C798.8 1631.9 792 1633.6 788.9 1638.9C785.8 1644.2 787.6 1650.9 792.9 1654C798.1 1657.1 804.9 1655.3 808 1650.1C811.1 1644.8 809.3 1638.1 804.1 1635Z" fill="white"/>
<path fill-rule="evenodd" clip-rule="evenodd" d="M279 1259.6C272 1298.4 241.9 1296.3 211.6 1290.9C181.3 1285.4 152.3 1276.8 159.3 1238C162.5 1220.3 175.5 1194.6 192.3 1172.4C199.5 1163.1 206.5 1155.4 213.2 1149.6C212.9 1149.5 212.7 1149.5 212.4 1149.4C211.3 1149 210.7 1147.8 211.1 1146.7C211.4 1145.6 212.7 1145 213.8 1145.4C210.2 1138 208.8 1122.7 209.9 1118.2C210 1117.8 210.5 1117.4 211 1117.4C213 1117.5 215.3 1118.7 217.6 1119.8C219.8 1121 222.2 1122.1 223.4 1121.9C226.3 1121.4 227.1 1118.5 227.9 1115.4C228.3 1113.9 228.8 1112.3 229.5 1111.1C230.433 1109.37 231.5 1108.6 232.7 1108.8C235 1109.3 236.2 1113.2 237.3 1117.2C237.433 1117.6 237.533 1117.9 237.6 1118.1C238.4 1120.8 239.6 1122.6 240.7 1122.9L240.9 1123C243.4 1123.4 246.4 1120.8 248.5 1118.9C248.9 1118.57 249.267 1118.27 249.6 1118C250.267 1117.47 250.9 1116.9 251.5 1116.3C253.1 1114.8 254.8 1113.3 256.8 1112.3C257.667 1111.9 258.4 1111.73 259 1111.8C261.9 1112.4 261.3 1116.6 260.8 1120.7C260.6 1122.3 260.3 1124.5 260.6 1125C261.1 1126.4 262.5 1127 264.9 1127C265.767 1127 266.667 1127 267.6 1127C269.6 1127 271.6 1126.9 273.1 1127.2C273.7 1127.3 275.6 1127.6 276.2 1129.2C276.8 1130.9 275.6 1133.3 272.5 1136.9C271.9 1137.6 270.5 1139.4 269 1141.5C267.4 1143.6 266 1145.5 264.6 1147.2C267.9 1145.4 272.3 1143.7 276.4 1144.9C277.9 1145.3 279.3 1146.6 280.1 1148.1C280.7 1149.3 280.9 1150.7 280.4 1151.8C279.4 1154.4 276.6 1155.5 273.5 1155.9C275.5 1156.9 277.5 1158 279.4 1159.3C282.2 1161.3 288.3 1166.4 286 1171.6C284.7 1174.7 282 1176.1 278.6 1175.5C274.3 1174.7 269.4 1170.9 265.9 1167.6C268.4 1173.3 270.7 1179.8 272.7 1186.9C279.8 1212.1 282.3 1241.3 279 1259.6ZM242 1240.6C242.733 1236.67 242.333 1233.27 240.8 1230.4C239.2 1227.6 235.833 1224.5 230.7 1221.1C230 1220.7 229.1 1220.1 228.1 1219.5C229.1 1214.3 230 1209.3 230.7 1205C231.3 1205.33 231.833 1205.73 232.3 1206.2C233.2 1207.1 233.8 1208.2 234.4 1209.4C235 1210.6 234.9 1212.6 236.7 1212.7C237.6 1212.7 244.5 1211.4 245.2 1211.1C246.3 1210.7 245.9 1209.3 245.7 1208.5C244.8 1205.3 243 1202.3 240.6 1200.1C238.467 1198.03 235.733 1196.5 232.4 1195.5C232.9 1192.8 233.2 1191.2 233.2 1191.2C233.7 1188.3 230.6 1188 228.5 1187.9C227.2 1187.9 226.5 1188.8 226.3 1190C226.3 1190 226 1191.6 225.5 1194.3C221.3 1194 217.6 1194.7 214.4 1196.6C210.333 1198.87 207.9 1202.33 207.1 1207C206.567 1209.73 206.7 1212.3 207.5 1214.7C208.233 1217.1 209.6 1219.2 211.6 1221C213.2 1222.5 215.9 1224.4 219.6 1226.7C218.6 1232.6 217.5 1238.4 216.6 1243.3C215.8 1242.8 215 1242.2 214.4 1241.5C213.5 1240.6 213 1239.6 212.4 1238.5C211.8 1237.6 211.5 1236.9 211.3 1235.9C211.1 1235.1 210.9 1234.2 210 1234C208.8 1233.7 200.5 1235.9 200 1236.6C199.867 1236.73 199.8 1236.9 199.8 1237.1C199.8 1237.7 200.2 1238.4 200.3 1239C200.6 1240.2 201.2 1241.3 201.7 1242.4C202.9 1244.6 204.5 1246.7 206.3 1248.3C208.6 1250.5 211.5 1252.1 214.9 1253.2C214.3 1256.3 214 1258.2 214 1258.2C213.6 1260.4 215.3 1260.9 217.1 1261.2C218.8 1261.5 220.5 1261.5 220.9 1259.4C220.9 1259.4 221.2 1257.6 221.8 1254.6C226.8 1255.1 231 1254.4 234.5 1252.3C238.567 1249.83 241.067 1245.93 242 1240.6ZM264.9 1152.1C265.167 1152.1 265.467 1152.1 265.8 1152.1H266.9C274.3 1152 276.2 1151.1 276.4 1150.4C276.5 1150.1 275.9 1149.2 275.2 1149C275 1148.93 274.833 1148.87 274.7 1148.8C272.2 1148.4 268.5 1149.6 264.9 1152.1ZM265 1160.4C266.7 1162.8 274.4 1170.4 279.3 1171.3C281 1171.6 281.7 1171 282.1 1169.9C282.8 1168.4 280.7 1165.4 277 1162.8C273.3 1160.1 268.7 1158.2 262.7 1156.7C263.1 1157.7 263.9 1158.9 265 1160.4Z" fill="white"/>
<path d="M217.7 1208.1C217.3 1210.2 218.7 1212.6 221.7 1215.1C222.5 1210.8 223.2 1206.8 223.9 1203.2C222.6 1203.3 221.5 1203.5 220.5 1204C218.967 1204.87 218.033 1206.23 217.7 1208.1Z" fill="white"/>
<path d="M226.1 1230.6C225.2 1235.8 224.3 1240.8 223.5 1245.1C225.2 1245.1 226.7 1244.8 227.9 1244.1C229.833 1243.1 231 1241.47 231.4 1239.2C231.733 1237.4 231.4 1235.77 230.4 1234.3C229.6 1233.23 228.167 1232 226.1 1230.6Z" fill="white"/>
<path d="M414 586.4C420.3 573.2 426.1 560.3 431.1 548C435.7 536.6 435.2 533 430.1 530.1C424.9 527.3 421.1 529.6 418.6 534.1L407.4 551.2C406 549.6 407.4 551.2 405.8 549.6L419.1 523.2C421.6 518.7 419.5 512.8 414.3 509.9C409.2 507.1 403 508.4 400.5 512.9L387.1 533.4C385.8 532.4 386.6 533 385.3 532L398.4 506.4C400.9 502 398.7 496 393.6 493.1C388.4 490.3 382.2 491.6 379.7 496.1L365.3 519.1C364.233 518.567 363.167 518.167 362.1 517.9L393.2 461.9C395.7 457.4 393.6 451.5 388.4 448.6C383.3 445.8 377.1 447.1 374.6 451.6C373.4 453.733 372.2 455.867 371 458C368.067 463.2 365.167 468.433 362.3 473.7C358.633 480.3 354.933 486.933 351.2 493.6C347.733 499.8 344.3 506 340.9 512.2C336.5 520.3 331.6 528.1 327.2 536.3C325.933 538.7 324.667 541.1 323.4 543.5C323.2 543.9 322.6 544.7 322.5 545.2C323.7 537.1 325.4 529.6 325.4 524.4C325.3 514 323.1 508.8 321.1 504.2C317.8 496.5 303.6 492.6 303 499.8C302.6 503.6 303.3 521.2 303.6 525.6C304.2 534.9 302 543.4 298.5 551.9C295.7 558.5 293.7 567 294.4 574.4C294.8 578.7 295.5 591.6 300.9 598.1C315.1 615.5 361.8 637 365.9 637.3C373.7 637.9 381.6 630.9 385.8 628.4C389.6 626.1 395.5 619 398.1 615.3C404.3 606.4 409.8 595.3 414 586.4Z" fill="white"/>
<path d="M1534.7 212.3C1545.9 221.6 1556.6 230.9 1566.2 240C1575.2 248.4 1576.3 251.9 1572.8 256.7C1569.3 261.4 1564.9 260.9 1560.7 257.8L1543.4 247C1542.8 249 1543.4 247 1542.6 249.1L1565.8 267.5C1569.9 270.5 1570.5 276.8 1567 281.6C1563.5 286.3 1557.3 287.7 1553.2 284.7L1532.4 271.6C1531.6 273.2 1532.1 272.3 1531.3 273.7L1553.9 291.4C1558.1 294.5 1558.6 300.8 1555.1 305.5C1551.7 310.3 1545.5 311.6 1541.3 308.6L1518.6 293.8C1517.87 294.667 1517.07 295.467 1516.2 296.2L1567.9 334C1572.1 337 1572.6 343.4 1569.1 348.1C1565.6 352.9 1559.5 354.2 1555.3 351.2C1553.37 349.733 1551.4 348.3 1549.4 346.9C1544.6 343.367 1539.77 339.833 1534.9 336.3C1528.77 331.767 1522.63 327.267 1516.5 322.8C1510.77 318.667 1505.03 314.467 1499.3 310.2C1491.9 304.8 1484.2 299.7 1476.9 294.1C1474.7 292.433 1472.53 290.8 1470.4 289.2C1470 288.9 1469.1 288.4 1468.8 288C1473.3 294.8 1478 301 1480.2 305.7C1484.4 315.1 1484.6 320.8 1484.7 325.9C1485 334.2 1473.7 343.6 1470.1 337.4C1468.2 334.1 1461.4 317.8 1459.9 313.7C1456.5 305 1451 298.2 1444.2 292C1438.9 287.1 1433.6 280.2 1431.1 273.2C1429.6 269.2 1424.9 257.2 1427.1 248.9C1432.7 227.3 1466.1 188.1 1469.7 186.1C1476.5 182.4 1486.6 185.4 1491.5 185.9C1495.9 186.4 1504.2 190.4 1508.2 192.7C1517.5 198.1 1527.1 205.9 1534.7 212.3Z" fill="white"/>
<path d="M173.4 1147.2C169.7 1055.5 170.1 976.1 171.6 930.6C178.7 710.9 422.1 769 599.3 775" stroke="#FEFEFE" stroke-width="8.3" stroke-linecap="round" stroke-linejoin="round" stroke-dasharray="27.77 27.77"/>
<path d="M1626.9 499.3C1697.4 499.7 1919.7 483.2 1921.4 547.1C1922.9 600.8 1921.5 619.3 1921.5 646.9" stroke="#FEFEFE" stroke-width="8.3" stroke-linecap="round" stroke-linejoin="round" stroke-dasharray="27.77 27.77"/>
<path d="M2152.5 1233.1C2152.5 1246.4 2141.7 1257.3 2128.4 1257.3C2115 1257.3 2104.2 1246.4 2104.2 1233.1C2104.2 1219.8 2115 1208.9 2128.4 1208.9C2141.7 1208.9 2152.5 1219.8 2152.5 1233.1Z" fill="white"/>
<path d="M1517.2 1092.5C1503.7 1085.5 1498.3 1077.7 1506.8 1061.3L1743.9 602.3C1752.4 585.9 1761.8 585.8 1775.3 592.7L1987.5 702.3C2001 709.3 2006.4 717.1 1997.9 733.5L1760.8 1192.6C1752.3 1208.9 1742.9 1209.1 1729.4 1202.1L1517.2 1092.5Z" fill="#5F7C45" stroke="#418901" stroke-width="6" stroke-linecap="round" stroke-linejoin="round"/>
<path d="M1706.8 1166.2C1716.9 1146.6 1741.6 1148.4 1758.2 1159.8L1969.6 750.7C1950.6 743.7 1934.9 724.7 1945 705.1C1945.7 703.7 1946.6 702.4 1947.4 701.2L1800.6 625.4C1800.3 626 1800.1 626.7 1799.7 627.4C1789.4 647.3 1764.1 645.1 1747.4 633.1L1535.8 1042.9C1554.6 1049.9 1570.1 1068.9 1560 1088.4C1559.1 1090.2 1558 1091.8 1556.8 1093.3L1705.2 1170C1705.6 1168.7 1706.2 1167.5 1706.8 1166.2Z" fill="#6FA400" stroke="#7D945C" stroke-width="6" stroke-linecap="round" stroke-linejoin="round"/>
<path d="M1714.7 965.9C1661.2 938.3 1633.9 884.8 1653.7 846.5C1673.5 808.1 1732.9 799.5 1786.4 827.1C1839.9 854.7 1867.2 908.2 1847.4 946.5C1827.6 984.8 1768.2 993.5 1714.7 965.9Z" fill="#5F7C45" stroke="#5F7C45" stroke-width="6" stroke-linecap="round" stroke-linejoin="round"/>
<path d="M1664.2 1072.5C1644.9 1062.6 1635.2 1043.1 1642.5 1029.1C1649.7 1015 1671.2 1011.7 1690.4 1021.6C1709.7 1031.6 1719.4 1051 1712.1 1065.1C1704.9 1079.1 1683.4 1082.5 1664.2 1072.5Z" fill="#5F7C45" stroke="#5F7C45" stroke-width="6" stroke-linecap="round" stroke-linejoin="round"/>
<path d="M1818.1 774.4C1798.9 764.5 1789.2 745 1796.5 731C1803.7 716.9 1825.2 713.6 1844.4 723.5C1863.6 733.5 1873.3 752.9 1866.1 767C1858.8 781 1837.4 784.4 1818.1 774.4Z" fill="#5F7C45" stroke="#5F7C45" stroke-width="6" stroke-linecap="round" stroke-linejoin="round"/>
<path fill-rule="evenodd" clip-rule="evenodd" d="M1703.2 926.3C1692.13 920.567 1685.3 912.467 1682.7 902C1680.5 892.933 1681.67 883.133 1686.2 872.6C1680 869.4 1676.3 867.5 1676.3 867.5C1671.9 865.2 1673.2 861.6 1675 858C1676.8 854.3 1679 850.7 1683.7 853.2C1683.7 853.2 1687.6 855.2 1694 858.5C1698.7 851.9 1704.1 846.7 1710.3 843.1C1715.2 840.2 1720.7 838 1726.3 837C1729.1 836.5 1732 836.1 1734.8 836.3C1736.1 836.3 1737.9 836 1739.1 836.4C1739.57 836.533 1739.93 836.767 1740.2 837.1C1741.4 838.7 1740.7 858.2 1739.2 860.7C1738.1 862.5 1735.9 862.3 1734.1 862.2C1731.8 862.1 1730 862.3 1727.7 862.8C1724.9 863.4 1722.3 864 1719.8 865.2C1717.7 866.2 1716 867.5 1714.3 869C1724.5 874.2 1736.4 880.4 1748.5 886.6C1756 879.9 1762 875.3 1766.4 872.9C1771.6 869.833 1777.1 868.267 1782.9 868.2C1788.63 868.067 1794.33 869.467 1800 872.4C1809.67 877.4 1815.63 885.067 1817.9 895.4C1819.8 903.6 1818.9 912.2 1815.5 921.2C1821 924.1 1824.3 925.8 1824.3 925.8C1826.7 927 1828.3 929.3 1827.3 932C1825.7 936.7 1822.9 943.2 1816.9 940.1C1816.9 940.1 1813.6 938.4 1808.1 935.5C1803.7 942.033 1798.53 946.967 1792.6 950.3C1786 954.1 1778.5 956 1770.9 955.7C1768.8 955.7 1765.7 955.7 1765.5 953C1765.3 951.2 1767.1 935.3 1767.7 933.3C1769.1 929.4 1773.4 930.9 1776.5 930.5C1779.4 930.1 1782.2 929.3 1784.8 928C1786.1 927.3 1787.4 926.4 1788.5 925.4C1779.6 920.9 1769.4 915.5 1758.7 910C1756.6 911.8 1754.8 913.3 1753.4 914.5C1742.6 923.5 1733.57 928.767 1726.3 930.3C1719.1 931.833 1711.4 930.5 1703.2 926.3ZM1772.5 899C1781.3 903.6 1789.7 907.9 1797.1 911.7C1797.8 909 1798 906.3 1797.5 903.9C1796.7 899.9 1794.33 896.9 1790.4 894.9C1786.1 892.6 1780.1 894.1 1772.5 899ZM1713.4 904.1C1717.13 905.967 1720.9 906.267 1724.7 905C1727.7 904 1731.3 901.7 1735.6 898.1C1725 892.6 1714.8 887.3 1705.9 882.7C1704.8 886.4 1704.4 889.9 1705 893.1C1705.93 897.967 1708.73 901.633 1713.4 904.1Z" fill="#97AA6F" stroke="#7D945C" stroke-width="6" stroke-linecap="round" stroke-linejoin="round"/>
<g style="mix-blend-mode:hard-light" opacity="0.6">
<path d="M1777.9 601.1C1796.3 610.5 1814 621.2 1832.5 630.5C1869 648.7 1907.7 670.2 1945 689.1C1969.3 701.5 1984.8 708.4 1990.6 716.1C1995.6 722.7 1990.2 736.6 1984.9 753.6C1984.77 754.067 1984.63 754.533 1984.5 755L1996.2 732.5C2004.2 716.9 1999 710.5 1986.6 704.1L1774.4 594.5C1764 589.1 1756.5 587.9 1749.6 596.9C1760.4 590.3 1769.6 596.8 1777.9 601.1Z" fill="#EFEFEF"/>
</g>
<g style="mix-blend-mode:hard-light" opacity="0.2">
<path d="M1748.7 598.1C1747.7 599.567 1746.7 601.267 1745.7 603.2L1508.5 1062.3C1500.5 1077.9 1505.7 1084.3 1518.1 1090.7L1730.3 1200.3C1737.9 1204.2 1743.2 1205.3 1747.7 1203.7L1748.7 598.1Z" fill="#9A9C9E"/>
</g>
<path d="M1510.5 1155.7C1500.6 1144.1 1498.6 1134.9 1512.6 1122.9L1906.4 788.3C1920.4 776.4 1929.2 779.8 1939 791.4L2093.7 973.4C2103.5 985 2105.5 994.2 2091.5 1006.1L1697.8 1340.8C1683.8 1352.7 1675 1349.2 1665.1 1337.6L1510.5 1155.7Z" fill="#5F7C45" stroke="#459300" stroke-width="6" stroke-linecap="round" stroke-linejoin="round"/>
<path d="M1657.9 1295.9C1674.7 1281.6 1696.8 1292.6 1707.8 1309.5L2058.7 1011.3C2043.8 997.7 2036.5 974.1 2053.3 959.8C2054.5 958.8 2055.8 957.9 2057 957.1L1950 831.2C1949.5 831.7 1949 832.2 1948.4 832.7C1931.3 847.3 1908.7 835.6 1897.9 818.2L1546.5 1116.9C1561.2 1130.5 1568.3 1153.9 1551.6 1168.2C1550 1169.5 1548.4 1170.6 1546.7 1171.5L1654.9 1298.8C1655.8 1297.8 1656.8 1296.8 1657.9 1295.9Z" fill="#6FA400" stroke="#4D8300" stroke-width="6" stroke-linecap="round" stroke-linejoin="round"/>
<path d="M1741.3 1113.6C1702.3 1067.7 1697.3 1007.9 1730.2 980C1763 952 1821.3 966.6 1860.3 1012.4C1899.3 1058.3 1904.2 1118.1 1871.4 1146.1C1838.5 1174 1780.2 1159.5 1741.3 1113.6Z" fill="#5F7C45" stroke="#5F7C45" stroke-width="6" stroke-linecap="round" stroke-linejoin="round"/>
<path d="M1654 1193C1640 1176.5 1638.4 1154.9 1650.4 1144.6C1662.5 1134.4 1683.6 1139.4 1697.6 1155.9C1711.6 1172.4 1713.2 1194.1 1701.2 1204.3C1689.1 1214.6 1668 1209.5 1654 1193Z" fill="#5F7C45" stroke="#5F7C45" stroke-width="6" stroke-linecap="round" stroke-linejoin="round"/>
<path d="M1909.6 975.7C1895.6 959.2 1894 937.6 1906.1 927.3C1918.1 917.1 1939.2 922.2 1953.3 938.7C1967.3 955.1 1968.9 976.8 1956.8 987.1C1944.8 997.3 1923.6 992.2 1909.6 975.7Z" fill="#5F7C45" stroke="#5F7C45" stroke-width="6" stroke-linecap="round" stroke-linejoin="round"/>
<path fill-rule="evenodd" clip-rule="evenodd" d="M1745.6 1072.6C1737.53 1063.13 1734.3 1053.03 1735.9 1042.3C1737.3 1033.1 1742.1 1024.5 1750.3 1016.4C1745.8 1011.2 1743.1 1008 1743.1 1008C1739.9 1004.2 1742.5 1001.3 1745.4 998.7C1748.5 996 1752 993.5 1755.4 997.5C1755.4 997.5 1758.2 1000.9 1762.9 1006.4C1769.7 1002.1 1776.7 999.3 1783.8 998.3C1789.4 997.5 1795.4 997.6 1800.9 998.8C1803.7 999.4 1806.5 1000.1 1809 1001.3C1810.2 1001.9 1812 1002.2 1813 1003.1C1813.4 1003.37 1813.63 1003.7 1813.7 1004.1C1814.2 1006.1 1806.1 1023.8 1803.8 1025.6C1802.2 1026.9 1800.2 1025.8 1798.6 1025.1C1796.5 1024 1794.7 1023.6 1792.4 1023.2C1789.6 1022.7 1787 1022.2 1784.1 1022.4C1781.9 1022.5 1779.8 1023 1777.7 1023.8C1785.1 1032.5 1793.8 1042.7 1802.6 1053.1C1812.1 1049.8 1819.4 1047.8 1824.3 1047.2C1830.37 1046.33 1836.07 1046.97 1841.4 1049.1C1846.73 1051.17 1851.47 1054.63 1855.6 1059.5C1862.67 1067.77 1865.3 1077.13 1863.5 1087.6C1862.1 1095.8 1858 1103.5 1851.4 1110.6C1855.5 1115.3 1857.8 1118.1 1857.8 1118.1C1859.6 1120.2 1860.2 1122.9 1858.3 1125C1855 1128.7 1849.9 1133.7 1845.6 1128.5C1845.6 1128.5 1843.2 1125.7 1839.1 1121C1832.57 1125.33 1825.93 1127.93 1819.2 1128.8C1811.7 1129.8 1804 1128.7 1797.1 1125.6C1795.2 1124.7 1792.3 1123.5 1793.1 1121C1793.7 1119.2 1801.3 1105.2 1802.7 1103.6C1805.4 1100.5 1808.8 1103.5 1811.8 1104.3C1814.7 1105 1817.6 1105.4 1820.5 1105.2C1822 1105 1823.4 1104.7 1824.9 1104.2C1818.4 1096.6 1810.9 1087.8 1803.1 1078.6C1800.5 1079.5 1798.3 1080.2 1796.5 1080.8C1783.1 1085 1772.77 1086.43 1765.5 1085.1C1758.23 1083.77 1751.6 1079.6 1745.6 1072.6ZM1820.1 1073.7C1826.5 1081.2 1832.7 1088.5 1838 1094.8C1839.8 1092.5 1841 1090.1 1841.4 1087.7C1842.13 1083.7 1841.1 1080.03 1838.3 1076.7C1835.1 1073 1829 1072 1820.1 1073.7ZM1763.5 1055.9C1766.23 1059.1 1769.6 1060.83 1773.6 1061.1C1776.7 1061.3 1781 1060.5 1786.3 1058.8C1778.6 1049.7 1771.1 1041 1764.6 1033.3C1762.2 1036.3 1760.6 1039.4 1759.9 1042.6C1758.9 1047.47 1760.1 1051.9 1763.5 1055.9Z" fill="#97AA6F" stroke="#7D945C" stroke-width="6" stroke-linecap="round" stroke-linejoin="round"/>
<g style="mix-blend-mode:hard-light" opacity="0.6">
<path d="M1938.2 800.1C1951.6 815.8 1964 832.5 1977.6 848.1C2004.5 878.8 2032.1 913.4 2059.4 945C2077.2 965.7 2088.9 978 2091.3 987.3C2093.5 995.3 2083.2 1006.1 2071.8 1019.9C2071.53 1020.23 2071.23 1020.6 2070.9 1021L2090.2 1004.6C2103.6 993.3 2101.2 985.3 2092.2 974.7L1937.5 792.7C1929.9 783.8 1923.4 779.8 1913.7 785.5C1926.2 783.6 1932.2 793 1938.2 800.1Z" fill="#EFEFEF"/>
</g>
<g style="mix-blend-mode:hard-light" opacity="0.2">
<path d="M1912.4 786.3C1910.87 787.233 1909.27 788.4 1907.6 789.8L1513.9 1124.5C1500.6 1135.8 1502.9 1143.7 1512 1154.4L1666.6 1336.3C1672.2 1342.9 1676.7 1345.9 1681.4 1346.2L1912.4 786.3Z" fill="#9A9C9E"/>
</g>
<path d="M1629.5 1053.9C1629.5 1088.3 1616.6 1101.2 1582.2 1101.2H633.6C599.2 1101.2 578.8 1088.3 578.8 1053.9V502.6C578.8 468.2 599.2 455.3 633.6 455.3H1582.2C1616.6 455.3 1629.5 468.2 1629.5 502.6V1053.9Z" fill="#ECECEC" stroke="#B7B9BB" stroke-width="11.2" stroke-linecap="round" stroke-linejoin="round"/>
<g style="mix-blend-mode:hard-light" opacity="0.7">
<g style="mix-blend-mode:hard-light" opacity="0.5">
<path d="M592.5 970.3C592.8 949.2 593.5 928.1 593 907.4C592.6 893.2 592.3 878.9 592.5 864.7C593.6 788.9 594 713.1 594.8 637.2C595 616.1 592.8 598.7 592.9 577.6C593.1 542.7 586.9 508.9 603.6 480.9C609.1 471.8 624.3 463.8 632.5 459.1C598 459.3 582.6 472.8 582.6 502.6V1053.9C582.6 1084.1 598.3 1097.5 633.6 1097.5H647.5C627.2 1097.5 602.6 1087.4 595.5 1066.9C592.3 1057.4 593.3 1046.8 593.4 1036.9C593.5 1024.6 592.8 1012.3 592.3 1000C592 990 592.3 980.2 592.5 970.3Z" fill="#EFEFEF"/>
</g>
</g>
<path d="M1757.2 1452.9C1757.3 1487.3 1744.4 1500.3 1710 1500.4L507 1504.3C472.6 1504.4 452.2 1491.6 452.1 1457.2C463.6 1429.5 475.1 1401.7 486.5 1373.9C507.7 1322.1 577.8 1131.9 587.1 1120C597.6 1106.4 616.9 1103.7 632.9 1103.6C633 1103.6 1580.1 1100.5 1581.5 1100.5C1597.3 1100.5 1617.3 1103.3 1624 1119.7C1630.5 1135.8 1636.7 1153.7 1642.7 1170.1C1658.1 1212.5 1673.5 1253.9 1691 1295.6C1709.1 1338.8 1727.4 1382 1745.6 1425.3C1749.5 1434.5 1753.3 1443.7 1757.2 1452.9Z" fill="#DEDEDF" stroke="#B7B9BB" stroke-width="11.2" stroke-linecap="round" stroke-linejoin="round"/>
<path d="M452.4 1455.1C452.133 1455.77 451.867 1456.4 451.6 1457C451.6 1491.4 472 1504.3 506.4 1504.3H1709.4C1743.8 1504.3 1756.7 1491.4 1756.7 1457C1756.43 1456.4 1756.17 1455.77 1755.9 1455.1H452.4Z" fill="#DEDEDF" stroke="#B7B9BB" stroke-width="11.2" stroke-linecap="round" stroke-linejoin="round"/>
<path d="M1585.4 1028.5C1585.4 1058.4 1573.6 1069.6 1542.1 1069.6H673C641.5 1069.6 622.9 1058.4 622.9 1028.5V548.9C622.9 519 641.5 507.7 673 507.7H1542.1C1573.6 507.7 1585.4 519 1585.4 548.9V1028.5Z" fill="#FFD9A9" stroke="#FF9E22" stroke-width="11.2" stroke-linecap="round" stroke-linejoin="round"/>
<g style="mix-blend-mode:hard-light" opacity="0.3">
<path d="M632.8 1051.7C639.8 1061.4 653 1065.9 673 1065.9H1542.1C1571.7 1065.9 1581.7 1056.5 1581.7 1028.5V548.9C1581.7 536.5 1579.8 527.8 1575 521.9C1569.1 514.4 628.6 1045.9 632.8 1051.7Z" fill="#9EA0A1" fill-opacity="0.65"/>
</g>
<path d="M1120 481.3C1120 490.1 1112.9 497.2 1104.1 497.2C1095.4 497.2 1088.2 490.1 1088.2 481.3C1088.2 472.5 1095.4 465.4 1104.1 465.4C1112.9 465.4 1120 472.5 1120 481.3Z" fill="#4C5855"/>
<g style="mix-blend-mode:hard-light" opacity="0.5">
<path d="M1101 472.1C1104.7 470.1 1108.6 469.4 1112.5 469.5C1110.1 467.8 1107.3 466.8 1104.1 466.8C1096.2 466.8 1089.7 473.3 1089.7 481.3C1089.7 485.6 1091.6 489.4 1094.6 492.1C1091.7 485.1 1094.1 475.8 1101 472.1Z" fill="#9EA0A1"/>
</g>
<path d="M1247.3 1428.8H961L987.6 1360.2H1228L1247.3 1428.8Z" fill="#A6A9AB"/>
<g style="mix-blend-mode:hard-light" opacity="0.4">
<path d="M1229.1 1416.9H991.6L1104.1 1394.5L1217.9 1373.3L1229.1 1416.9Z" fill="#CDCECF"/>
</g>
<g style="mix-blend-mode:multiply" opacity="0.5">
<path d="M1730 1400.6C1715.8 1366.7 1701.6 1332.8 1687.5 1298.8C1669.2 1254.7 1653 1210.2 1639.2 1172L1635.4 1161.5C1630.6 1148 1625.7 1134 1620.5 1121.3C1617.6 1114.1 1611.7 1109.3 1602.4 1106.6C1610.7 1122.5 1617.2 1139.5 1623 1156.6C1636.5 1197 1652.8 1236.3 1666 1276.7C1677.9 1313.3 1693.5 1350.3 1702.9 1387.6C1708.4 1409.4 1713.6 1437.2 1697.8 1456.1C1674.5 1483.9 1629.5 1474.8 1598.6 1475.7C1546.7 1477.2 1488.7 1480.7 1437.6 1483.3C1360.6 1487.2 1285.2 1497.5 1208.1 1502L1710 1500.4C1726.6 1500.3 1737.3 1497.2 1743.9 1490.5C1750.4 1483.9 1753.4 1473.3 1753.4 1457L1730 1400.6Z" fill="#DDDDDB"/>
</g>
<path d="M1332.5 1153.1L1329.3 1134.5C1300.8 1134.5 1269.8 1134.5 1237.3 1134.5L1238.5 1153.1H1332.5Z" fill="#A6A9AB"/>
<path d="M1437.6 1153.1L1432.6 1134.5C1410.6 1134.5 1382.5 1134.5 1350.2 1134.5L1353.5 1153.1H1437.6Z" fill="#A6A9AB"/>
<path d="M1521.5 1153.1C1518.9 1144.6 1516.9 1135.7 1514.7 1134.4C1511.9 1132.7 1494.2 1134.5 1484 1134.5C1483.8 1134.5 1472.8 1134.5 1453.9 1134.5L1458.9 1153.1H1521.5Z" fill="#A6A9AB"/>
<path d="M1217.9 1153.1L1216.6 1134.5C1188.7 1134.5 1159.9 1134.5 1130.9 1134.5V1153.1H1217.9Z" fill="#A6A9AB"/>
<path d="M1110.3 1153.1V1134.5C1079.9 1134.5 1049.5 1134.5 1019.8 1134.5L1018.8 1153.1H1110.3Z" fill="#A6A9AB"/>
<path d="M1471 1198.9H1541.3C1537.5 1188.8 1534 1179.9 1531.2 1173.1H1464.2L1471 1198.9Z" fill="#A6A9AB"/>
<path d="M998.1 1153.1L999.2 1134.5C965.1 1134.5 932.2 1134.5 901.8 1134.5L899.1 1153.1H998.1Z" fill="#A6A9AB"/>
<path d="M1495.3 1290.1H1574C1571.4 1282.7 1568.2 1273.8 1564.8 1264.1H1488.4L1495.3 1290.1Z" fill="#A6A9AB"/>
<path d="M1483 1244.1H1557.7C1554.7 1235.7 1551.6 1227.2 1548.6 1218.9H1476.3L1483 1244.1Z" fill="#A6A9AB"/>
<path d="M1131.1 1244.1H1224L1222.3 1218.9H1131.1V1244.1Z" fill="#A6A9AB"/>
<path d="M1340.6 1198.9L1336.1 1173.1H1239.9L1241.6 1198.9H1340.6Z" fill="#A6A9AB"/>
<path d="M1016.2 1198.9H1110.4V1173.1H1017.6L1016.2 1198.9Z" fill="#A6A9AB"/>
<path d="M1013.6 1244.1H1110.5V1218.9H1015L1013.6 1244.1Z" fill="#A6A9AB"/>
<path d="M868.8 1218.9H759.5L752.3 1244.1H865.2L868.8 1218.9Z" fill="#A6A9AB"/>
<path d="M1220.9 1198.9L1219.2 1173.1H1131V1198.9H1220.9Z" fill="#A6A9AB"/>
<path d="M1369.5 1244.1H1461.8L1455.1 1218.9H1365.1L1369.5 1244.1Z" fill="#A6A9AB"/>
<path d="M878.3 1153.1L881 1134.5C843.2 1134.5 809.9 1134.5 783.8 1134.5L778.4 1153.1H878.3Z" fill="#A6A9AB"/>
<path d="M765.3 1198.9H871.7L875.4 1173.1H772.7L765.3 1198.9Z" fill="#A6A9AB"/>
<path d="M1244.6 1244.1H1348.6L1344.2 1218.9H1242.9L1244.6 1244.1Z" fill="#A6A9AB"/>
<path d="M1246 1264.1L1247.7 1290.1H1356.8L1352.2 1264.1H1246Z" fill="#A6A9AB"/>
<path d="M1442.9 1173.1H1357L1361.6 1198.9H1449.8L1442.9 1173.1Z" fill="#A6A9AB"/>
<path d="M1131.2 1264.1V1290.1H1227.1L1225.3 1264.1H1131.2Z" fill="#A6A9AB"/>
<path d="M1373.1 1264.1L1377.7 1290.1H1474L1467.1 1264.1H1373.1Z" fill="#A6A9AB"/>
<path d="M886 1244.1H993L994.4 1218.9H889.6L886 1244.1Z" fill="#A6A9AB"/>
<path d="M892.5 1198.9H995.5L997 1173.1H896.2L892.5 1198.9Z" fill="#A6A9AB"/>
<path d="M991.8 1264.1H883.1L879.4 1290.1H990.4L991.8 1264.1Z" fill="#A6A9AB"/>
<path d="M1012.5 1264.1L1011 1290.1H1110.6V1264.1H1012.5Z" fill="#A6A9AB"/>
<path d="M862.3 1264.1H746.5L739.1 1290.1H858.5L862.3 1264.1Z" fill="#A6A9AB"/>
<path d="M738.1 1218.9H665.7C664.5 1222.4 663.2 1225.8 662 1229.2C660.267 1234.13 658.567 1239.1 656.9 1244.1H730.9L738.1 1218.9Z" fill="#A6A9AB"/>
<path d="M1131.2 1310.1L1131.3 1337C1164.7 1337 1197.9 1337 1230.2 1337L1228.4 1310.1H1131.2Z" fill="#A6A9AB"/>
<path d="M751.3 1173.1H682.9C679.7 1181.8 676.5 1190.3 673.2 1198.9H743.9L751.3 1173.1Z" fill="#A6A9AB"/>
<path d="M1110.6 1310.1H1005.3H1000.2H877L872.6 1337C912 1337 954.5 1337 998.5 1337C1000.2 1337 1001.9 1337 1003.6 1337C1038.8 1337 1074.7 1337 1110.7 1337L1110.6 1310.1Z" fill="#A6A9AB"/>
<path d="M725.1 1264.1H649.9C646.9 1272.83 643.833 1281.5 640.7 1290.1H717.7L725.1 1264.1Z" fill="#A6A9AB"/>
<path d="M733.3 1310.1L725.6 1337C758 1337 801.6 1337 851.8 1337L855.7 1310.1H733.3Z" fill="#A6A9AB"/>
<path d="M633 1310.1C631.2 1314.4 624.8 1333.6 626.9 1335.1C628.9 1336.6 653.3 1337 664.1 1337C664.3 1337 678.9 1337 704.2 1337L711.9 1310.1H633Z" fill="#A6A9AB"/>
<path d="M1249.1 1310.1L1250.9 1337C1291.2 1337 1329.8 1337 1365.1 1337L1360.3 1310.1H1249.1Z" fill="#A6A9AB"/>
<path d="M1381.2 1310.1L1386 1337C1425 1337 1459.3 1337 1486.5 1337L1479.3 1310.1H1381.2Z" fill="#A6A9AB"/>
<path d="M1507.7 1337C1536.6 1337 1553.4 1337 1553.4 1337C1565.5 1337 1584.1 1337.8 1586.9 1335C1589.2 1332.6 1584.3 1320.1 1581.5 1310.1H1500.6L1507.7 1337Z" fill="#A6A9AB"/>
<path d="M762.4 1134.5C737.9 1134.5 723.6 1134.5 723.6 1134.5C713.1 1134.5 701.5 1134.1 699.1 1135.6C697.2 1136.9 693.3 1143.4 689.8 1153.1H757L762.4 1134.5Z" fill="#A6A9AB"/>
<g style="mix-blend-mode:multiply">
<path d="M1238.2 1148.5L1238.5 1153.1H1332.5L1329.3 1134.5C1328.2 1134.5 1327.1 1134.5 1326 1134.5L1328.5 1148.5H1238.2Z" fill="#D4D4D4"/>
<path d="M1352.7 1148.5L1353.5 1153.1H1437.6L1432.6 1134.5C1431.7 1134.5 1430.7 1134.5 1429.8 1134.5L1433.5 1148.5H1352.7Z" fill="#D4D4D4"/>
<path d="M1457.6 1148.5L1458.9 1153.1H1521.5C1518.9 1144.6 1516.9 1135.7 1514.7 1134.4C1514.37 1134.2 1513.8 1134.03 1513 1133.9C1514.4 1137.6 1515.8 1143.1 1517.4 1148.5H1457.6Z" fill="#D4D4D4"/>
<path d="M1130.9 1148.5V1153.1H1217.9L1216.6 1134.5C1215.4 1134.5 1214.1 1134.5 1212.9 1134.5L1213.8 1148.5H1130.9Z" fill="#D4D4D4"/>
<path d="M1019 1148.5L1018.8 1153.1H1110.3V1134.5C1108.97 1134.5 1107.63 1134.5 1106.3 1134.5V1148.5H1019Z" fill="#D4D4D4"/>
<path d="M1469.8 1194.4L1471 1198.9H1541.3C1537.5 1188.8 1534 1179.9 1531.2 1173.1H1529C1531.4 1179.1 1534.2 1186.4 1537.2 1194.4H1469.8Z" fill="#D4D4D4"/>
<path d="M899.8 1148.5L899.1 1153.1H998.1L999.2 1134.5C997.733 1134.5 996.3 1134.5 994.9 1134.5L994 1148.5H899.8Z" fill="#D4D4D4"/>
<path d="M1574 1290.1C1571.4 1282.7 1568.2 1273.8 1564.8 1264.1H1562.3C1565.1 1272 1567.7 1279.3 1570 1285.5H1494.1L1495.3 1290.1H1574Z" fill="#D4D4D4"/>
<path d="M1481.8 1239.5L1483 1244.1H1557.7C1554.7 1235.7 1551.6 1227.2 1548.6 1218.9H1546.2C1548.7 1225.8 1551.2 1232.7 1553.6 1239.5H1481.8Z" fill="#D4D4D4"/>
<path d="M1131.1 1239.5V1244.1H1224L1222.3 1218.9H1218.5L1219.9 1239.5H1131.1Z" fill="#D4D4D4"/>
<path d="M1241.3 1194.4L1241.6 1198.9H1340.6L1336.1 1173.1H1332.8L1336.6 1194.4H1241.3Z" fill="#D4D4D4"/>
<path d="M1016.4 1194.4L1016.2 1198.9H1110.4V1173.1H1106.3L1106.4 1194.4H1016.4Z" fill="#D4D4D4"/>
<path d="M1013.9 1239.5L1013.6 1244.1H1110.5V1218.9H1106.4L1106.5 1239.5H1013.9Z" fill="#D4D4D4"/>
<path d="M864.1 1218.9L861.1 1239.5H753.6L752.3 1244.1H865.2L868.8 1218.9H864.1Z" fill="#D4D4D4"/>
<path d="M1131 1194.4V1198.9H1220.9L1219.2 1173.1H1215.5L1216.9 1194.4H1131Z" fill="#D4D4D4"/>
<path d="M1368.7 1239.5L1369.5 1244.1H1461.8L1455.1 1218.9H1452.2L1457.7 1239.5H1368.7Z" fill="#D4D4D4"/>
<path d="M779.8 1148.5L778.4 1153.1H878.3L881 1134.5C879.4 1134.5 877.9 1134.5 876.3 1134.5L874.2 1148.5H779.8Z" fill="#D4D4D4"/>
<path d="M766.6 1194.4L765.3 1198.9H871.7L875.4 1173.1H870.7L867.6 1194.4H766.6Z" fill="#D4D4D4"/>
<path d="M1244.3 1239.5L1244.6 1244.1H1348.6L1344.2 1218.9H1340.9L1344.6 1239.5H1244.3Z" fill="#D4D4D4"/>
<path d="M1247.4 1285.5L1247.7 1290.1H1356.8L1352.2 1264.1H1348.9L1352.7 1285.5H1247.4Z" fill="#D4D4D4"/>
<path d="M1360.7 1194.4L1361.6 1198.9H1449.8L1442.9 1173.1H1440L1445.7 1194.4H1360.7Z" fill="#D4D4D4"/>
<path d="M1131.2 1285.5V1290.1H1227.1L1225.3 1264.1H1221.6L1223 1285.5H1131.2Z" fill="#D4D4D4"/>
<path d="M1376.9 1285.5L1377.7 1290.1H1474L1467.1 1264.1H1464.2L1469.9 1285.5H1376.9Z" fill="#D4D4D4"/>
<path d="M886.7 1239.5L886 1244.1H993L994.4 1218.9H990.1L988.9 1239.5H886.7Z" fill="#D4D4D4"/>
<path d="M893.2 1194.4L892.5 1198.9H995.5L997 1173.1H992.7L991.5 1194.4H893.2Z" fill="#D4D4D4"/>
<path d="M990.4 1290.1L991.8 1264.1H987.5L986.3 1285.5H880L879.4 1290.1H990.4Z" fill="#D4D4D4"/>
<path d="M1011.3 1285.5L1011 1290.1H1110.6V1264.1H1106.5V1285.5H1011.3Z" fill="#D4D4D4"/>
<path d="M854.5 1285.5H740.4L739.1 1290.1H858.5L862.3 1264.1H857.6L854.5 1285.5Z" fill="#D4D4D4"/>
<path d="M658.4 1239.5C657.867 1241.03 657.367 1242.57 656.9 1244.1H730.9L738.1 1218.9H732.7L726.8 1239.5H658.4Z" fill="#D4D4D4"/>
<path d="M1224.7 1310.1L1226.2 1332.4C1195.2 1332.4 1163.3 1332.4 1131.3 1332.4V1337C1164.7 1337 1197.9 1337 1230.2 1337L1228.4 1310.1H1224.7Z" fill="#D4D4D4"/>
<path d="M674.9 1194.4C674.367 1195.87 673.8 1197.37 673.2 1198.9H743.9L751.3 1173.1H745.9L739.8 1194.4H674.9Z" fill="#D4D4D4"/>
<path d="M1106.6 1310.1V1332.4C1070.7 1332.4 1034.7 1332.4 999.5 1332.4C997.833 1332.4 996.133 1332.4 994.4 1332.4C952.2 1332.4 911.4 1332.4 873.3 1332.4L872.6 1337C912 1337 954.5 1337 998.5 1337C1000.2 1337 1001.9 1337 1003.6 1337C1038.8 1337 1074.7 1337 1110.7 1337L1110.6 1310.1H1106.6Z" fill="#D4D4D4"/>
<path d="M719.7 1264.1L713.6 1285.5H642.3C641.8 1287 641.2 1288.6 640.7 1290.1H717.7L725.1 1264.1H719.7Z" fill="#D4D4D4"/>
<path d="M847.7 1332.4C800.2 1332.4 758.7 1332.4 726.9 1332.4L725.6 1337C758 1337 801.6 1337 851.8 1337L855.7 1310.1H850.9L847.7 1332.4Z" fill="#D4D4D4"/>
<path d="M700.1 1332.4C674.9 1332.4 660.2 1332.4 660 1332.4C651.5 1332.4 634.4 1332.1 626.7 1331.3C626.4 1333.3 626.4 1334.7 626.9 1335.1C628.9 1336.6 653.3 1337 664.1 1337C664.3 1337 678.9 1337 704.2 1337L711.9 1310.1H706.5L700.1 1332.4Z" fill="#D4D4D4"/>
<path d="M1357.1 1310.1L1361 1332.4C1326.8 1332.4 1289.5 1332.4 1250.6 1332.4L1250.9 1337C1291.2 1337 1329.8 1337 1365.1 1337L1360.3 1310.1H1357.1Z" fill="#D4D4D4"/>
<path d="M1476.5 1310.1L1482.4 1332.4C1456 1332.4 1422.8 1332.4 1385.2 1332.4L1386 1337C1425 1337 1459.3 1337 1486.5 1337L1479.3 1310.1H1476.5Z" fill="#D4D4D4"/>
<path d="M1581.5 1310.1H1578.8C1581.5 1319 1584.8 1328.3 1582.8 1330.4C1580 1333.3 1561.4 1332.4 1549.3 1332.4C1549.3 1332.4 1533.6 1332.4 1506.5 1332.4L1507.7 1337C1536.6 1337 1553.4 1337 1553.4 1337C1565.5 1337 1584.1 1337.8 1586.9 1335C1589.2 1332.6 1584.3 1320.1 1581.5 1310.1Z" fill="#D4D4D4"/>
<path d="M691.6 1148.5C691 1150 690.4 1151.5 689.8 1153.1H757L762.4 1134.5C760.5 1134.5 758.8 1134.5 757 1134.5L753 1148.5H691.6Z" fill="#D4D4D4"/>
</g>
<g style="mix-blend-mode:hard-light" opacity="0.8">
<g style="mix-blend-mode:hard-light" opacity="0.8">
<path d="M476.4 1438.8C495.9 1395.2 513 1346.2 531.9 1302.4C550.5 1259.5 571.2 1193.5 602 1113C597 1115.3 593 1118.4 590 1122.3C584.3 1129.6 550.4 1218.5 525.6 1283.4C511.1 1321.3 497.4 1357.1 489.9 1375.4C482.5 1393.5 475 1411.6 467.5 1429.7L455.9 1458C456.2 1485.8 470.2 1499.1 501.1 1500.5C476.3 1488.4 463.2 1468.4 476.4 1438.8Z" fill="#EFEFEF"/>
</g>
</g>
<path d="M560.1 1480.7C560.1 1487.7 554.5 1493.3 547.5 1493.3C540.5 1493.3 534.9 1487.7 534.9 1480.7C534.9 1473.7 540.5 1468.1 547.5 1468.1C554.5 1468.1 560.1 1473.7 560.1 1480.7Z" fill="#A6A9AB"/>
<path d="M599.9 1480.7C599.9 1487.7 594.2 1493.3 587.3 1493.3C580.3 1493.3 574.6 1487.7 574.6 1480.7C574.6 1473.7 580.3 1468.1 587.3 1468.1C594.2 1468.1 599.9 1473.7 599.9 1480.7Z" fill="#A6A9AB"/>
<path d="M639.6 1480.7C639.6 1487.7 634 1493.3 627 1493.3C620 1493.3 614.4 1487.7 614.4 1480.7C614.4 1473.7 620 1468.1 627 1468.1C634 1468.1 639.6 1473.7 639.6 1480.7Z" fill="#A6A9AB"/>
<path d="M1932.2 1320.4C1933.8 1361.7 1880.6 1390.4 1817.7 1390.4C1754.8 1390.4 1703.4 1358.3 1703.4 1319.6C1703.4 1315 1702.6 1293.7 1704 1289.3C1714.3 1257.2 1762.3 1250.5 1817.7 1250.5C1872.7 1250.5 1920.9 1258.2 1931.6 1290.1C1933.1 1294.6 1932 1315.6 1932.2 1320.4Z" fill="#F19850" stroke="#EF8848" stroke-width="4.6" stroke-linecap="round" stroke-linejoin="round"/>
<path d="M1720.9 1355.3V1304.8" stroke="#EF8848" stroke-width="6.9" stroke-linecap="round" stroke-linejoin="round"/>
<path d="M1751.9 1376.1V1325.6" stroke="#EF8848" stroke-width="6.9" stroke-linecap="round" stroke-linejoin="round"/>
<path d="M1795.8 1387.4V1336.9" stroke="#EF8848" stroke-width="6.9" stroke-linecap="round" stroke-linejoin="round"/>
<path d="M1842.6 1387.4V1336.9" stroke="#EF8848" stroke-width="6.9" stroke-linecap="round" stroke-linejoin="round"/>
<path d="M1885.6 1375.5V1325.1" stroke="#EF8848" stroke-width="6.9" stroke-linecap="round" stroke-linejoin="round"/>
<path d="M1923 1347.6V1315.5" stroke="#EF8848" stroke-width="6.9" stroke-linecap="round" stroke-linejoin="round"/>
<path d="M1931.6 1293.4C1931.6 1332 1880.6 1363.4 1817.7 1363.4C1754.8 1363.4 1703.8 1332 1703.8 1293.4C1703.8 1254.8 1754.8 1223.5 1817.7 1223.5C1880.6 1223.5 1931.6 1254.8 1931.6 1293.4Z" fill="#F3AB56" stroke="#ED9A50" stroke-width="4.6" stroke-linecap="round" stroke-linejoin="round"/>
<path d="M1908.1 1292.3C1908.1 1320.2 1867.6 1342.8 1817.7 1342.8C1767.8 1342.8 1727.3 1320.2 1727.3 1292.3C1727.3 1264.4 1767.8 1241.8 1817.7 1241.8C1867.6 1241.8 1908.1 1264.4 1908.1 1292.3Z" fill="#F7C679"/>
<path d="M1787 1305.1C1787.8 1304.4 1799.7 1301.9 1801.6 1302C1802.9 1302.1 1803.4 1303.1 1803.8 1303.9C1804.4 1304.9 1805.1 1305.6 1806 1306.4C1807.2 1307.5 1808.3 1308.4 1809.8 1309.3C1812.7 1310.8 1816.2 1311.6 1820.2 1311.6C1824.8 1311.6 1828.4 1310.8 1831 1309.3C1833.6 1307.8 1834.7 1305.8 1834.6 1303.5C1834.47 1301.63 1833.43 1300.1 1831.5 1298.9C1829.6 1297.8 1826.2 1296.7 1821.4 1295.5C1820.73 1295.3 1819.77 1295.07 1818.5 1294.8C1810.2 1292.6 1804.5 1290.3 1801.4 1288.6C1798.4 1286.9 1796.2 1284.8 1794.8 1282.4C1793.4 1279.9 1792.9 1277.3 1793.2 1274.4C1793.7 1269.6 1796.5 1266 1801.3 1263.3C1806 1260.6 1811.8 1259.5 1818.9 1259.5C1825.1 1259.5 1830.3 1260.3 1834.7 1262.2C1838.3 1263.8 1841.5 1266.1 1843.6 1269C1844.2 1269.7 1845.2 1270.9 1844 1271.7C1843.2 1272.3 1834.8 1275.6 1833.5 1275.8C1831.1 1276.2 1830.6 1274.2 1829.5 1273.1C1828.5 1272.1 1827.3 1271.1 1826 1270.4C1823.7 1269.3 1821 1268.7 1817.8 1268.7C1814.7 1268.7 1812.2 1269.2 1810.4 1270.2C1808.5 1271.3 1807.5 1272.8 1807.4 1274.8C1807.3 1277.8 1811.7 1281.1 1821.1 1283.8C1824 1284.6 1826.3 1285.2 1827.9 1285.7C1836 1287.8 1841.7 1289.7 1844.9 1292C1848.1 1294.2 1850 1297.4 1850.6 1301.5C1851.3 1307 1849.1 1311.7 1843.8 1315.5C1838.5 1319.2 1831.2 1322.3 1821.1 1322.3C1812.4 1322.4 1804.7 1320.9 1798.9 1318C1795.7 1316.4 1792.7 1313.3 1790.6 1311.1C1789.5 1309.9 1788.5 1308.8 1787.9 1307.5C1787.6 1306.9 1786.9 1306.2 1786.8 1305.6C1786.8 1305.4 1786.87 1305.23 1787 1305.1Z" fill="#F3AB56"/>
<path d="M1824.9 1326.2C1825 1328.4 1822.2 1328.7 1819.3 1328.8C1816.3 1328.8 1813.3 1328.6 1813.3 1326.2L1814.8 1255.2C1814.8 1254 1815.5 1252.9 1817 1252.7C1819.6 1252.5 1823.3 1252.2 1823.4 1255.2L1824.9 1326.2Z" fill="#F3AB56"/>
<path d="M1914 1281.9C1915.6 1323.1 1862.4 1351.8 1799.6 1351.8C1736.7 1351.8 1685.2 1319.7 1685.2 1281.1C1685.2 1276.5 1684.5 1255.1 1685.9 1250.8C1696.1 1218.6 1744.2 1211.9 1799.6 1211.9C1854.6 1211.9 1902.8 1219.7 1913.4 1251.5C1914.9 1256.1 1913.9 1277.1 1914 1281.9Z" fill="#F19850" stroke="#EF8848" stroke-width="4.6" stroke-linecap="round" stroke-linejoin="round"/>
<path d="M1702.8 1316.7V1266.3" stroke="#EF8848" stroke-width="6.9" stroke-linecap="round" stroke-linejoin="round"/>
<path d="M1733.8 1337.6V1287.1" stroke="#EF8848" stroke-width="6.9" stroke-linecap="round" stroke-linejoin="round"/>
<path d="M1777.7 1348.8V1298.3" stroke="#EF8848" stroke-width="6.9" stroke-linecap="round" stroke-linejoin="round"/>
<path d="M1824.5 1348.8V1298.3" stroke="#EF8848" stroke-width="6.9" stroke-linecap="round" stroke-linejoin="round"/>
<path d="M1867.4 1337V1286.5" stroke="#EF8848" stroke-width="6.9" stroke-linecap="round" stroke-linejoin="round"/>
<path d="M1904.9 1309.1V1277" stroke="#EF8848" stroke-width="6.9" stroke-linecap="round" stroke-linejoin="round"/>
<path d="M1913.4 1254.9C1913.4 1293.5 1862.4 1324.8 1799.6 1324.8C1736.7 1324.8 1685.7 1293.5 1685.7 1254.9C1685.7 1216.2 1736.7 1184.9 1799.6 1184.9C1862.4 1184.9 1913.4 1216.2 1913.4 1254.9Z" fill="#F3AB56" stroke="#ED9A50" stroke-width="4.6" stroke-linecap="round" stroke-linejoin="round"/>
<path d="M1890 1253.7C1890 1281.6 1849.5 1304.3 1799.6 1304.3C1749.6 1304.3 1709.1 1281.6 1709.1 1253.7C1709.1 1225.8 1749.6 1203.2 1799.6 1203.2C1849.5 1203.2 1890 1225.8 1890 1253.7Z" fill="#F7C679"/>
<path d="M1768.9 1266.5C1769.6 1265.9 1781.6 1263.3 1783.4 1263.4C1784.8 1263.6 1785.3 1264.5 1785.7 1265.3C1786.3 1266.3 1786.9 1267 1787.9 1267.9C1789 1268.9 1790.1 1269.9 1791.6 1270.7C1794.5 1272.3 1798 1273.1 1802.1 1273.1C1806.7 1273.1 1810.3 1272.2 1812.8 1270.7C1815.4 1269.2 1816.6 1267.3 1816.5 1264.9C1816.37 1263.03 1815.33 1261.53 1813.4 1260.4C1811.4 1259.2 1808 1258.1 1803.2 1256.9C1802.53 1256.77 1801.6 1256.53 1800.4 1256.2C1792 1254 1786.4 1251.8 1783.3 1250.1C1780.2 1248.4 1778 1246.3 1776.6 1243.8C1775.2 1241.4 1774.7 1238.7 1775 1235.9C1775.6 1231 1778.4 1227.4 1783.1 1224.8C1787.9 1222.1 1793.7 1220.9 1800.7 1220.9C1807 1220.9 1812.2 1221.8 1816.5 1223.7C1820.2 1225.3 1823.3 1227.5 1825.5 1230.4C1826.1 1231.2 1827.1 1232.3 1825.9 1233.1C1825 1233.7 1816.6 1237.1 1815.4 1237.2C1813 1237.6 1812.5 1235.6 1811.4 1234.5C1810.4 1233.5 1809.2 1232.6 1807.8 1231.9C1805.6 1230.7 1802.9 1230.2 1799.7 1230.1C1796.6 1230.1 1794.1 1230.6 1792.2 1231.7C1790.4 1232.77 1789.43 1234.3 1789.3 1236.3C1789.1 1239.3 1793.5 1242.6 1802.9 1245.2C1805.83 1246 1808.13 1246.63 1809.8 1247.1C1817.8 1249.3 1823.5 1251.2 1826.8 1253.4C1830 1255.7 1831.9 1258.8 1832.4 1262.9C1833.1 1268.5 1831 1273.2 1825.7 1276.9C1820.4 1280.6 1813 1283.7 1803 1283.8C1794.3 1283.8 1786.6 1282.4 1780.8 1279.5C1777.6 1277.9 1774.6 1274.8 1772.4 1272.5C1771.4 1271.4 1770.4 1270.2 1769.7 1269C1769.4 1268.4 1768.8 1267.7 1768.7 1267.1C1768.63 1266.9 1768.7 1266.7 1768.9 1266.5Z" fill="#F3AB56"/>
<path d="M1806.8 1287.7C1806.8 1289.9 1804 1290.2 1801.2 1290.2C1798.2 1290.3 1795.1 1290.1 1795.2 1287.7L1796.6 1216.6C1796.7 1215.4 1797.4 1214.3 1798.9 1214.2C1801.5 1213.9 1805.1 1213.6 1805.2 1216.6C1805.2 1216.6 1806.8 1287.6 1806.8 1287.7Z" fill="#F3AB56"/>
<path d="M1907.2 1247.6C1908.8 1288.9 1855.6 1317.6 1792.7 1317.6C1729.8 1317.6 1678.3 1285.5 1678.3 1246.8C1678.3 1242.2 1677.6 1220.9 1679 1216.5C1689.3 1184.4 1737.3 1177.7 1792.7 1177.7C1847.7 1177.7 1895.9 1185.4 1906.5 1217.3C1908.1 1221.8 1907 1242.8 1907.2 1247.6Z" fill="#F19850" stroke="#EF8848" stroke-width="4.6" stroke-linecap="round" stroke-linejoin="round"/>
<path d="M1695.9 1282.5V1232" stroke="#EF8848" stroke-width="6.9" stroke-linecap="round" stroke-linejoin="round"/>
<path d="M1726.9 1303.3V1252.8" stroke="#EF8848" stroke-width="6.9" stroke-linecap="round" stroke-linejoin="round"/>
<path d="M1770.8 1314.6V1264.1" stroke="#EF8848" stroke-width="6.9" stroke-linecap="round" stroke-linejoin="round"/>
<path d="M1817.6 1314.6V1264.1" stroke="#EF8848" stroke-width="6.9" stroke-linecap="round" stroke-linejoin="round"/>
<path d="M1860.6 1302.7V1252.3" stroke="#EF8848" stroke-width="6.9" stroke-linecap="round" stroke-linejoin="round"/>
<path d="M1898 1274.8V1242.7" stroke="#EF8848" stroke-width="6.9" stroke-linecap="round" stroke-linejoin="round"/>
<path d="M1906.5 1220.6C1906.5 1259.3 1855.6 1290.6 1792.7 1290.6C1729.8 1290.6 1678.8 1259.3 1678.8 1220.6C1678.8 1182 1729.8 1150.7 1792.7 1150.7C1855.6 1150.7 1906.5 1182 1906.5 1220.6Z" fill="#F3AB56" stroke="#ED9A50" stroke-width="4.6" stroke-linecap="round" stroke-linejoin="round"/>
<path d="M1883.1 1219.5C1883.1 1247.4 1842.6 1270 1792.7 1270C1742.7 1270 1702.3 1247.4 1702.3 1219.5C1702.3 1191.6 1742.7 1169 1792.7 1169C1842.6 1169 1883.1 1191.6 1883.1 1219.5Z" fill="#F7C679"/>
<path d="M1762 1232.3C1762.7 1231.6 1774.7 1229.1 1776.5 1229.2C1777.9 1229.4 1778.4 1230.3 1778.8 1231.1C1779.4 1232.1 1780 1232.8 1781 1233.7C1782.2 1234.7 1783.3 1235.6 1784.8 1236.5C1787.6 1238 1791.2 1238.9 1795.2 1238.8C1799.8 1238.8 1803.4 1238 1806 1236.5C1808.5 1235 1809.7 1233 1809.6 1230.7C1809.5 1228.8 1808.4 1227.3 1806.5 1226.2C1804.5 1225 1801.1 1223.9 1796.3 1222.7C1795.7 1222.5 1794.77 1222.27 1793.5 1222C1785.1 1219.8 1779.5 1217.6 1776.4 1215.8C1773.33 1214.13 1771.1 1212.07 1769.7 1209.6C1768.3 1207.2 1767.8 1204.5 1768.2 1201.6C1768.7 1196.8 1771.5 1193.2 1776.2 1190.5C1781 1187.8 1786.8 1186.7 1793.9 1186.7C1800.1 1186.7 1805.3 1187.5 1809.6 1189.4C1813.3 1191 1816.4 1193.3 1818.6 1196.2C1819.2 1197 1820.2 1198.1 1819 1198.9C1818.2 1199.5 1809.7 1202.8 1808.5 1203C1806.1 1203.4 1805.6 1201.4 1804.5 1200.3C1803.5 1199.3 1802.3 1198.4 1801 1197.6C1798.7 1196.5 1796 1195.9 1792.8 1195.9C1789.7 1195.9 1787.2 1196.4 1785.4 1197.5C1783.5 1198.5 1782.5 1200 1782.4 1202C1782.3 1205 1786.6 1208.3 1796.1 1211C1799 1211.8 1801.3 1212.4 1802.9 1212.9C1810.9 1215 1816.7 1217 1819.9 1219.2C1823.1 1221.4 1825 1224.6 1825.6 1228.7C1826.3 1234.2 1824.1 1238.9 1818.8 1242.7C1813.5 1246.4 1806.1 1249.5 1796.1 1249.5C1787.4 1249.6 1779.7 1248.1 1773.9 1245.3C1770.7 1243.6 1767.7 1240.5 1765.6 1238.3C1764.5 1237.2 1763.5 1236 1762.9 1234.7C1762.6 1234.1 1761.9 1233.4 1761.8 1232.8C1761.8 1232.6 1761.87 1232.43 1762 1232.3Z" fill="#F3AB56"/>
<path d="M1799.9 1253.4C1799.9 1255.6 1797.2 1255.9 1794.3 1256C1791.3 1256.1 1788.3 1255.8 1788.3 1253.4L1789.8 1182.4C1789.8 1181.2 1790.5 1180.1 1792 1179.9C1794.6 1179.7 1798.3 1179.4 1798.3 1182.4L1799.9 1253.4Z" fill="#F3AB56"/>
<path d="M1914 1213.3C1915.6 1254.5 1862.4 1283.2 1799.6 1283.2C1736.7 1283.2 1685.2 1251.1 1685.2 1212.5C1685.2 1207.9 1684.5 1186.5 1685.9 1182.2C1696.1 1150 1744.2 1143.3 1799.6 1143.3C1854.6 1143.3 1902.8 1151 1913.4 1182.9C1914.9 1187.5 1913.9 1208.4 1914 1213.3Z" fill="#F19850" stroke="#EF8848" stroke-width="4.6" stroke-linecap="round" stroke-linejoin="round"/>
<path d="M1702.8 1248.1V1197.7" stroke="#EF8848" stroke-width="6.9" stroke-linecap="round" stroke-linejoin="round"/>
<path d="M1733.8 1268.9V1218.5" stroke="#EF8848" stroke-width="6.9" stroke-linecap="round" stroke-linejoin="round"/>
<path d="M1777.7 1280.2V1229.7" stroke="#EF8848" stroke-width="6.9" stroke-linecap="round" stroke-linejoin="round"/>
<path d="M1824.5 1280.2V1229.7" stroke="#EF8848" stroke-width="6.9" stroke-linecap="round" stroke-linejoin="round"/>
<path d="M1867.4 1268.4V1217.9" stroke="#EF8848" stroke-width="6.9" stroke-linecap="round" stroke-linejoin="round"/>
<path d="M1904.9 1240.5V1208.3" stroke="#EF8848" stroke-width="6.9" stroke-linecap="round" stroke-linejoin="round"/>
<path d="M1913.4 1186.2C1913.4 1224.9 1862.4 1256.2 1799.6 1256.2C1736.7 1256.2 1685.7 1224.9 1685.7 1186.2C1685.7 1147.6 1736.7 1116.3 1799.6 1116.3C1862.4 1116.3 1913.4 1147.6 1913.4 1186.2Z" fill="#F3AB56" stroke="#ED9A50" stroke-width="4.6" stroke-linecap="round" stroke-linejoin="round"/>
<g style="mix-blend-mode:hard-light" opacity="0.4">
<path d="M1857.4 1129.2C1858.4 1129.4 1860.8 1129.9 1861 1129.8C1843.3 1122.7 1822.2 1118.6 1799.6 1118.6C1738 1118.6 1688 1148.9 1688 1186.2C1688 1217.2 1722.4 1243.3 1769.1 1251.3C1758.1 1246.3 1736 1238.5 1727.4 1232.2C1706.9 1217.3 1687.2 1198.6 1699.4 1170.9C1721.5 1120.5 1799.6 1116.3 1857.4 1129.2Z" fill="#9EA0A1"/>
</g>
<path d="M1890 1185.1C1890 1213 1849.5 1235.7 1799.6 1235.7C1749.6 1235.7 1709.1 1213 1709.1 1185.1C1709.1 1157.2 1749.6 1134.6 1799.6 1134.6C1849.5 1134.6 1890 1157.2 1890 1185.1Z" fill="#F7C679"/>
<path d="M1768.9 1197.9C1769.6 1197.3 1781.6 1194.7 1783.4 1194.8C1784.8 1195 1785.3 1195.9 1785.7 1196.7C1786.3 1197.7 1786.9 1198.4 1787.9 1199.3C1789 1200.3 1790.1 1201.3 1791.6 1202.1C1794.5 1203.7 1798 1204.5 1802.1 1204.5C1806.7 1204.4 1810.3 1203.6 1812.8 1202.1C1815.4 1200.6 1816.6 1198.7 1816.5 1196.3C1816.37 1194.43 1815.33 1192.93 1813.4 1191.8C1811.4 1190.6 1808 1189.5 1803.2 1188.3C1802.53 1188.17 1801.6 1187.93 1800.4 1187.6C1792 1185.4 1786.4 1183.2 1783.3 1181.4C1780.23 1179.73 1778 1177.67 1776.6 1175.2C1775.2 1172.8 1774.7 1170.1 1775 1167.3C1775.6 1162.4 1778.4 1158.8 1783.1 1156.1C1787.9 1153.5 1793.7 1152.3 1800.7 1152.3C1807 1152.3 1812.2 1153.1 1816.5 1155.1C1820.2 1156.6 1823.3 1158.9 1825.5 1161.8C1826.1 1162.6 1827.1 1163.7 1825.9 1164.5C1825 1165.1 1816.6 1168.4 1815.4 1168.6C1813 1169 1812.5 1167 1811.4 1165.9C1810.4 1164.9 1809.2 1164 1807.8 1163.3C1805.6 1162.1 1802.9 1161.5 1799.7 1161.5C1796.6 1161.5 1794.1 1162 1792.2 1163.1C1790.4 1164.2 1789.4 1165.7 1789.3 1167.6C1789.1 1170.7 1793.5 1173.9 1802.9 1176.6C1805.8 1177.4 1808.1 1178 1809.8 1178.5C1817.8 1180.6 1823.5 1182.6 1826.8 1184.8C1830 1187.1 1831.9 1190.2 1832.4 1194.3C1833.1 1199.8 1831 1204.6 1825.7 1208.3C1820.4 1212 1813 1215.1 1803 1215.2C1794.3 1215.2 1786.6 1213.8 1780.8 1210.9C1777.6 1209.3 1774.6 1206.2 1772.4 1203.9C1771.4 1202.8 1770.4 1201.6 1769.7 1200.4C1769.4 1199.8 1768.8 1199 1768.7 1198.5C1768.63 1198.23 1768.7 1198.03 1768.9 1197.9Z" fill="#F3AB56"/>
<path d="M1806.8 1219.1C1806.8 1221.3 1804 1221.6 1801.2 1221.6C1798.2 1221.7 1795.1 1221.4 1795.2 1219.1L1796.6 1148C1796.7 1146.8 1797.4 1145.7 1798.9 1145.6C1801.5 1145.3 1805.1 1145 1805.2 1148C1805.2 1148 1806.8 1219 1806.8 1219.1Z" fill="#F3AB56"/>
<path d="M1841.4 1532.3C1843 1573.6 1789.8 1602.2 1726.9 1602.2C1664.1 1602.2 1612.6 1570.1 1612.6 1531.5C1612.6 1526.9 1611.9 1505.6 1613.3 1501.2C1623.5 1469 1671.6 1462.3 1726.9 1462.3C1782 1462.3 1830.2 1470.1 1840.8 1501.9C1842.3 1506.5 1841.3 1527.5 1841.4 1532.3Z" fill="#F19850" stroke="#EF8848" stroke-width="4.6" stroke-linecap="round" stroke-linejoin="round"/>
<path d="M1630.2 1567.1V1516.7" stroke="#EF8848" stroke-width="6.9" stroke-linecap="round" stroke-linejoin="round"/>
<path d="M1661.1 1588V1537.5" stroke="#EF8848" stroke-width="6.9" stroke-linecap="round" stroke-linejoin="round"/>
<path d="M1705.1 1599.2V1548.7" stroke="#EF8848" stroke-width="6.9" stroke-linecap="round" stroke-linejoin="round"/>
<path d="M1751.9 1599.2V1548.7" stroke="#EF8848" stroke-width="6.9" stroke-linecap="round" stroke-linejoin="round"/>
<path d="M1794.8 1587.4V1536.9" stroke="#EF8848" stroke-width="6.9" stroke-linecap="round" stroke-linejoin="round"/>
<path d="M1832.3 1559.5V1527.4" stroke="#EF8848" stroke-width="6.9" stroke-linecap="round" stroke-linejoin="round"/>
<path d="M1840.8 1505.3C1840.8 1543.9 1789.8 1575.2 1726.9 1575.2C1664.1 1575.2 1613.1 1543.9 1613.1 1505.3C1613.1 1466.6 1664.1 1435.3 1726.9 1435.3C1789.8 1435.3 1840.8 1466.6 1840.8 1505.3Z" fill="#F3AB56" stroke="#ED9A50" stroke-width="4.6" stroke-linecap="round" stroke-linejoin="round"/>
<path d="M1817.4 1504.1C1817.4 1532.1 1776.9 1554.7 1726.9 1554.7C1677 1554.7 1636.5 1532.1 1636.5 1504.1C1636.5 1476.2 1677 1453.6 1726.9 1453.6C1776.9 1453.6 1817.4 1476.2 1817.4 1504.1Z" fill="#F7C679"/>
<path d="M1696.3 1516.9C1697 1516.3 1709 1513.7 1710.8 1513.9C1712.2 1514 1712.7 1515 1713.1 1515.7C1713.6 1516.7 1714.3 1517.4 1715.3 1518.3C1716.4 1519.3 1717.5 1520.3 1719 1521.1C1721.9 1522.7 1725.4 1523.5 1729.5 1523.5C1734.1 1523.5 1737.7 1522.6 1740.2 1521.1C1742.8 1519.6 1744 1517.7 1743.8 1515.3C1743.73 1513.43 1742.73 1511.93 1740.8 1510.8C1738.8 1509.6 1735.4 1508.5 1730.6 1507.3C1729.93 1507.17 1729 1506.93 1727.8 1506.6C1719.4 1504.4 1713.8 1502.2 1710.7 1500.5C1707.63 1498.77 1705.4 1496.67 1704 1494.2C1702.6 1491.8 1702.1 1489.1 1702.4 1486.3C1703 1481.4 1705.8 1477.8 1710.5 1475.2C1715.3 1472.5 1721 1471.3 1728.1 1471.3C1734.4 1471.3 1739.5 1472.2 1743.9 1474.1C1747.6 1475.7 1750.7 1478 1752.9 1480.8C1753.5 1481.6 1754.5 1482.7 1753.2 1483.5C1752.4 1484.1 1744 1487.5 1742.8 1487.6C1740.4 1488 1739.9 1486 1738.8 1484.9C1737.8 1483.9 1736.6 1483 1735.2 1482.3C1733 1481.1 1730.3 1480.6 1727.1 1480.5C1723.9 1480.5 1721.5 1481 1719.6 1482.1C1717.8 1483.17 1716.83 1484.7 1716.7 1486.7C1716.5 1489.7 1720.9 1493 1730.3 1495.6C1733.2 1496.5 1735.5 1497.1 1737.2 1497.5C1745.2 1499.7 1750.9 1501.6 1754.2 1503.9C1757.4 1506.1 1759.3 1509.2 1759.8 1513.3C1760.5 1518.9 1758.4 1523.6 1753.1 1527.3C1747.8 1531 1740.4 1534.1 1730.4 1534.2C1721.7 1534.2 1713.9 1532.8 1708.2 1529.9C1705 1528.3 1701.9 1525.2 1699.8 1522.9C1698.8 1521.8 1697.8 1520.6 1697.1 1519.4C1696.8 1518.8 1696.1 1518.1 1696.1 1517.5C1696.03 1517.3 1696.1 1517.1 1696.3 1516.9Z" fill="#F3AB56"/>
<path d="M1734.1 1538.1C1734.2 1540.3 1731.4 1540.6 1728.6 1540.6C1725.6 1540.7 1722.5 1540.5 1722.6 1538.1C1722.6 1538.1 1724 1467.1 1724 1467C1724.1 1465.8 1724.8 1464.7 1726.3 1464.6C1728.8 1464.3 1732.5 1464 1732.6 1467C1732.6 1467 1734.1 1538 1734.1 1538.1Z" fill="#F3AB56"/>
<path d="M1834.6 1498C1836.1 1539.3 1783 1568 1720.1 1568C1657.2 1568 1605.7 1535.9 1605.7 1497.3C1605.7 1492.6 1605 1471.3 1606.4 1466.9C1616.7 1434.8 1664.7 1428.1 1720.1 1428.1C1775.1 1428.1 1823.3 1435.8 1833.9 1467.7C1835.4 1472.2 1834.4 1493.2 1834.6 1498Z" fill="#F19850" stroke="#EF8848" stroke-width="4.6" stroke-linecap="round" stroke-linejoin="round"/>
<path d="M1623.3 1532.9V1482.4" stroke="#EF8848" stroke-width="6.9" stroke-linecap="round" stroke-linejoin="round"/>
<path d="M1654.3 1553.7V1503.3" stroke="#EF8848" stroke-width="6.9" stroke-linecap="round" stroke-linejoin="round"/>
<path d="M1698.2 1565V1514.5" stroke="#EF8848" stroke-width="6.9" stroke-linecap="round" stroke-linejoin="round"/>
<path d="M1745 1565V1514.5" stroke="#EF8848" stroke-width="6.9" stroke-linecap="round" stroke-linejoin="round"/>
<path d="M1788 1553.1V1502.7" stroke="#EF8848" stroke-width="6.9" stroke-linecap="round" stroke-linejoin="round"/>
<path d="M1825.4 1525.3V1493.1" stroke="#EF8848" stroke-width="6.9" stroke-linecap="round" stroke-linejoin="round"/>
<path d="M1833.9 1471C1833.9 1509.7 1783 1541 1720.1 1541C1657.2 1541 1606.2 1509.7 1606.2 1471C1606.2 1432.4 1657.2 1401.1 1720.1 1401.1C1783 1401.1 1833.9 1432.4 1833.9 1471Z" fill="#F3AB56" stroke="#ED9A50" stroke-width="4.6" stroke-linecap="round" stroke-linejoin="round"/>
<path d="M1810.5 1469.9C1810.5 1497.8 1770 1520.4 1720.1 1520.4C1670.1 1520.4 1629.6 1497.8 1629.6 1469.9C1629.6 1442 1670.1 1419.4 1720.1 1419.4C1770 1419.4 1810.5 1442 1810.5 1469.9Z" fill="#F7C679"/>
<path d="M1689.4 1482.7C1690.1 1482 1702.1 1479.5 1703.9 1479.6C1705.3 1479.8 1705.8 1480.7 1706.2 1481.5C1706.8 1482.5 1707.4 1483.2 1708.4 1484.1C1709.6 1485.1 1710.6 1486 1712.1 1486.9C1715 1488.5 1718.5 1489.3 1722.6 1489.2C1727.2 1489.2 1730.8 1488.4 1733.4 1486.9C1735.9 1485.4 1737.1 1483.4 1737 1481.1C1736.9 1479.2 1735.8 1477.7 1733.9 1476.6C1731.9 1475.4 1728.5 1474.3 1723.7 1473.1C1723.1 1472.9 1722.17 1472.67 1720.9 1472.4C1712.5 1470.2 1706.9 1468 1703.8 1466.2C1700.7 1464.5 1698.5 1462.4 1697.1 1460C1695.7 1457.6 1695.2 1454.9 1695.6 1452.1C1696.1 1447.2 1698.9 1443.6 1703.6 1440.9C1708.4 1438.3 1714.2 1437.1 1721.3 1437.1C1727.5 1437.1 1732.7 1437.9 1737 1439.8C1740.7 1441.4 1743.8 1443.7 1746 1446.6C1746.6 1447.4 1747.6 1448.5 1746.4 1449.3C1745.6 1449.9 1737.1 1453.2 1735.9 1453.4C1733.5 1453.8 1733 1451.8 1731.9 1450.7C1730.9 1449.7 1729.7 1448.8 1728.3 1448C1726.1 1446.9 1723.4 1446.3 1720.2 1446.3C1717.1 1446.3 1714.6 1446.8 1712.8 1447.9C1710.93 1448.97 1709.93 1450.47 1709.8 1452.4C1709.7 1455.5 1714 1458.7 1723.4 1461.4C1726.3 1462.2 1728.6 1462.8 1730.3 1463.3C1738.3 1465.4 1744.1 1467.4 1747.3 1469.6C1750.5 1471.9 1752.4 1475 1752.9 1479.1C1753.6 1484.6 1751.5 1489.4 1746.2 1493.1C1740.9 1496.8 1733.5 1499.9 1723.5 1500C1714.8 1500 1707.1 1498.5 1701.3 1495.7C1698.1 1494.1 1695.1 1491 1693 1488.7C1691.9 1487.6 1690.9 1486.4 1690.2 1485.1C1690 1484.6 1689.3 1483.8 1689.2 1483.2C1689.13 1483 1689.2 1482.83 1689.4 1482.7Z" fill="#F3AB56"/>
<path d="M1727.3 1503.8C1727.3 1506.1 1724.6 1506.4 1721.7 1506.4C1718.7 1506.5 1715.7 1506.2 1715.7 1503.8L1717.2 1432.8C1717.2 1431.6 1717.9 1430.5 1719.4 1430.3C1722 1430.1 1725.7 1429.8 1725.7 1432.8L1727.3 1503.8Z" fill="#F3AB56"/>
<path d="M1841.4 1463.7C1843 1504.9 1789.8 1533.6 1726.9 1533.6C1664.1 1533.6 1612.6 1501.5 1612.6 1462.9C1612.6 1458.3 1611.9 1436.9 1613.3 1432.6C1623.5 1400.4 1671.6 1393.7 1726.9 1393.7C1782 1393.7 1830.2 1401.4 1840.8 1433.3C1842.3 1437.9 1841.3 1458.8 1841.4 1463.7Z" fill="#F19850" stroke="#EF8848" stroke-width="4.6" stroke-linecap="round" stroke-linejoin="round"/>
<path d="M1630.2 1498.5V1448.1" stroke="#EF8848" stroke-width="6.9" stroke-linecap="round" stroke-linejoin="round"/>
<path d="M1661.1 1519.3V1468.9" stroke="#EF8848" stroke-width="6.9" stroke-linecap="round" stroke-linejoin="round"/>
<path d="M1705.1 1530.6V1480.1" stroke="#EF8848" stroke-width="6.9" stroke-linecap="round" stroke-linejoin="round"/>
<path d="M1751.9 1530.6V1480.1" stroke="#EF8848" stroke-width="6.9" stroke-linecap="round" stroke-linejoin="round"/>
<path d="M1794.8 1518.8V1468.3" stroke="#EF8848" stroke-width="6.9" stroke-linecap="round" stroke-linejoin="round"/>
<path d="M1832.3 1490.9V1458.8" stroke="#EF8848" stroke-width="6.9" stroke-linecap="round" stroke-linejoin="round"/>
<path d="M1840.8 1436.7C1840.8 1475.3 1789.8 1506.6 1726.9 1506.6C1664.1 1506.6 1613.1 1475.3 1613.1 1436.7C1613.1 1398 1664.1 1366.7 1726.9 1366.7C1789.8 1366.7 1840.8 1398 1840.8 1436.7Z" fill="#F3AB56" stroke="#ED9A50" stroke-width="4.6" stroke-linecap="round" stroke-linejoin="round"/>
<path d="M1817.4 1435.5C1817.4 1463.4 1776.9 1486.1 1726.9 1486.1C1677 1486.1 1636.5 1463.4 1636.5 1435.5C1636.5 1407.6 1677 1385 1726.9 1385C1776.9 1385 1817.4 1407.6 1817.4 1435.5Z" fill="#F7C679"/>
<path d="M1696.3 1448.3C1697 1447.7 1709 1445.1 1710.8 1445.2C1712.2 1445.4 1712.7 1446.3 1713.1 1447.1C1713.6 1448.1 1714.3 1448.8 1715.3 1449.7C1716.4 1450.7 1717.5 1451.7 1719 1452.5C1721.9 1454.1 1725.4 1454.9 1729.5 1454.9C1734.1 1454.8 1737.7 1454 1740.2 1452.5C1742.8 1451 1744 1449.1 1743.8 1446.7C1743.73 1444.83 1742.73 1443.33 1740.8 1442.2C1738.8 1441 1735.4 1439.9 1730.6 1438.7C1729.93 1438.57 1729 1438.33 1727.8 1438C1719.4 1435.8 1713.8 1433.6 1710.7 1431.8C1707.63 1430.13 1705.4 1428.07 1704 1425.6C1702.6 1423.2 1702.1 1420.5 1702.4 1417.7C1703 1412.8 1705.8 1409.2 1710.5 1406.5C1715.3 1403.9 1721 1402.7 1728.1 1402.7C1734.4 1402.7 1739.5 1403.6 1743.9 1405.5C1747.6 1407 1750.7 1409.3 1752.9 1412.2C1753.5 1413 1754.5 1414.1 1753.2 1414.9C1752.4 1415.5 1744 1418.8 1742.8 1419C1740.4 1419.4 1739.9 1417.4 1738.8 1416.3C1737.8 1415.3 1736.6 1414.4 1735.2 1413.7C1733 1412.5 1730.3 1411.9 1727.1 1411.9C1723.9 1411.9 1721.5 1412.4 1719.6 1413.5C1717.8 1414.57 1716.83 1416.1 1716.7 1418.1C1716.5 1421.1 1720.9 1424.4 1730.3 1427C1733.2 1427.9 1735.5 1428.5 1737.2 1428.9C1745.2 1431.1 1750.9 1433 1754.2 1435.2C1757.4 1437.5 1759.3 1440.6 1759.8 1444.7C1760.5 1450.2 1758.4 1455 1753.1 1458.7C1747.8 1462.4 1740.4 1465.5 1730.4 1465.6C1721.7 1465.6 1713.9 1464.2 1708.2 1461.3C1705 1459.7 1701.9 1456.6 1699.8 1454.3C1698.8 1453.2 1697.8 1452 1697.1 1450.8C1696.8 1450.2 1696.1 1449.5 1696.1 1448.9C1696.03 1448.63 1696.1 1448.43 1696.3 1448.3Z" fill="#F3AB56"/>
<path d="M1734.1 1469.5C1734.2 1471.7 1731.4 1472 1728.6 1472C1725.6 1472.1 1722.5 1471.8 1722.6 1469.5L1724 1398.4C1724.1 1397.2 1724.8 1396.1 1726.3 1396C1728.8 1395.7 1732.5 1395.4 1732.6 1398.4C1732.6 1398.4 1734.1 1469.4 1734.1 1469.5Z" fill="#F3AB56"/>
<path d="M1823.3 1425.1C1824.9 1466.4 1771.7 1495.1 1708.8 1495.1C1645.9 1495.1 1594.5 1463 1594.5 1424.3C1594.5 1419.7 1593.7 1398.4 1595.1 1394C1605.4 1361.9 1653.4 1355.2 1708.8 1355.2C1763.8 1355.2 1812 1362.9 1822.7 1394.8C1824.2 1399.3 1823.1 1420.3 1823.3 1425.1Z" fill="#F19850" stroke="#EF8848" stroke-width="4.6" stroke-linecap="round" stroke-linejoin="round"/>
<path d="M1612 1460V1409.5" stroke="#EF8848" stroke-width="6.9" stroke-linecap="round" stroke-linejoin="round"/>
<path d="M1643 1480.8V1430.3" stroke="#EF8848" stroke-width="6.9" stroke-linecap="round" stroke-linejoin="round"/>
<path d="M1686.9 1492.1V1441.6" stroke="#EF8848" stroke-width="6.9" stroke-linecap="round" stroke-linejoin="round"/>
<path d="M1733.7 1492.1V1441.6" stroke="#EF8848" stroke-width="6.9" stroke-linecap="round" stroke-linejoin="round"/>
<path d="M1776.7 1480.2V1429.8" stroke="#EF8848" stroke-width="6.9" stroke-linecap="round" stroke-linejoin="round"/>
<path d="M1814.1 1452.3V1420.2" stroke="#EF8848" stroke-width="6.9" stroke-linecap="round" stroke-linejoin="round"/>
<path d="M1822.7 1398.1C1822.7 1436.7 1771.7 1468.1 1708.8 1468.1C1645.9 1468.1 1594.9 1436.7 1594.9 1398.1C1594.9 1359.5 1645.9 1328.2 1708.8 1328.2C1771.7 1328.2 1822.7 1359.5 1822.7 1398.1Z" fill="#F3AB56" stroke="#ED9A50" stroke-width="4.6" stroke-linecap="round" stroke-linejoin="round"/>
<path d="M1799.2 1397C1799.2 1424.9 1758.7 1447.5 1708.8 1447.5C1658.9 1447.5 1618.4 1424.9 1618.4 1397C1618.4 1369.1 1658.9 1346.5 1708.8 1346.5C1758.7 1346.5 1799.2 1369.1 1799.2 1397Z" fill="#F7C679"/>
<path d="M1678.1 1409.8C1678.9 1409.1 1690.8 1406.6 1692.7 1406.7C1694 1406.8 1694.5 1407.8 1694.9 1408.6C1695.5 1409.6 1696.2 1410.3 1697.1 1411.1C1698.3 1412.2 1699.4 1413.1 1700.9 1413.9C1703.8 1415.5 1707.3 1416.3 1711.3 1416.3C1715.9 1416.3 1719.5 1415.5 1722.1 1414C1724.7 1412.5 1725.8 1410.5 1725.7 1408.2C1725.6 1406.3 1724.5 1404.8 1722.6 1403.6C1720.7 1402.5 1717.3 1401.4 1712.5 1400.2C1711.83 1400 1710.87 1399.77 1709.6 1399.5C1701.3 1397.3 1695.7 1395 1692.5 1393.3C1689.5 1391.6 1687.3 1389.5 1685.9 1387.1C1684.5 1384.6 1684 1382 1684.3 1379.1C1684.9 1374.3 1687.6 1370.7 1692.4 1368C1697.1 1365.3 1702.9 1364.2 1710 1364.2C1716.2 1364.2 1721.4 1365 1725.8 1366.9C1729.4 1368.5 1732.6 1370.8 1734.8 1373.7C1735.3 1374.4 1736.3 1375.6 1735.1 1376.4C1734.3 1377 1725.9 1380.3 1724.6 1380.5C1722.2 1380.9 1721.7 1378.9 1720.6 1377.8C1719.6 1376.8 1718.4 1375.8 1717.1 1375.1C1714.8 1374 1712.1 1373.4 1708.9 1373.4C1705.8 1373.4 1703.3 1373.9 1701.5 1374.9C1699.63 1376.03 1698.63 1377.57 1698.5 1379.5C1698.4 1382.5 1702.8 1385.8 1712.2 1388.5C1715.07 1389.3 1717.37 1389.93 1719.1 1390.4C1727.1 1392.5 1732.8 1394.4 1736 1396.7C1739.2 1398.9 1741.2 1402.1 1741.7 1406.2C1742.4 1411.7 1740.2 1416.4 1734.9 1420.2C1729.6 1423.9 1722.3 1427 1712.2 1427C1703.5 1427.1 1695.8 1425.6 1690 1422.7C1686.8 1421.1 1683.8 1418 1681.7 1415.8C1680.6 1414.6 1679.6 1413.5 1679 1412.2C1678.7 1411.6 1678 1410.9 1677.9 1410.3C1677.9 1410.1 1677.97 1409.93 1678.1 1409.8Z" fill="#F3AB56"/>
<path d="M1716 1430.9C1716.1 1433.1 1713.3 1433.4 1710.4 1433.5C1707.4 1433.5 1704.4 1433.3 1704.4 1430.9L1705.9 1359.9C1705.9 1358.7 1706.6 1357.6 1708.1 1357.4C1710.7 1357.2 1714.4 1356.9 1714.5 1359.9L1716 1430.9Z" fill="#F3AB56"/>
<path d="M1816.4 1390.9C1818 1432.1 1764.8 1460.8 1701.9 1460.8C1639 1460.8 1587.6 1428.7 1587.6 1390.1C1587.6 1385.5 1586.9 1364.2 1588.3 1359.8C1598.5 1327.6 1646.6 1320.9 1701.9 1320.9C1756.9 1320.9 1805.2 1328.7 1815.8 1360.5C1817.3 1365.1 1816.2 1386.1 1816.4 1390.9Z" fill="#F19850" stroke="#EF8848" stroke-width="4.6" stroke-linecap="round" stroke-linejoin="round"/>
<path d="M1605.2 1425.7V1375.3" stroke="#EF8848" stroke-width="6.9" stroke-linecap="round" stroke-linejoin="round"/>
<path d="M1636.1 1446.6V1396.1" stroke="#EF8848" stroke-width="6.9" stroke-linecap="round" stroke-linejoin="round"/>
<path d="M1680.1 1457.8V1407.3" stroke="#EF8848" stroke-width="6.9" stroke-linecap="round" stroke-linejoin="round"/>
<path d="M1726.8 1457.8V1407.3" stroke="#EF8848" stroke-width="6.9" stroke-linecap="round" stroke-linejoin="round"/>
<path d="M1769.8 1446V1395.5" stroke="#EF8848" stroke-width="6.9" stroke-linecap="round" stroke-linejoin="round"/>
<path d="M1807.2 1418.1V1386" stroke="#EF8848" stroke-width="6.9" stroke-linecap="round" stroke-linejoin="round"/>
<path d="M1815.8 1363.9C1815.8 1402.5 1764.8 1433.8 1701.9 1433.8C1639 1433.8 1588.1 1402.5 1588.1 1363.9C1588.1 1325.2 1639 1293.9 1701.9 1293.9C1764.8 1293.9 1815.8 1325.2 1815.8 1363.9Z" fill="#F3AB56" stroke="#ED9A50" stroke-width="4.6" stroke-linecap="round" stroke-linejoin="round"/>
<path d="M1792.3 1362.7C1792.3 1390.7 1751.9 1413.3 1701.9 1413.3C1652 1413.3 1611.5 1390.7 1611.5 1362.7C1611.5 1334.8 1652 1312.2 1701.9 1312.2C1751.9 1312.2 1792.3 1334.8 1792.3 1362.7Z" fill="#F7C679"/>
<path d="M1671.2 1375.5C1672 1374.9 1683.9 1372.3 1685.8 1372.5C1687.1 1372.6 1687.6 1373.6 1688.1 1374.3C1688.6 1375.3 1689.3 1376 1690.2 1376.9C1691.4 1377.9 1692.5 1378.9 1694 1379.7C1696.9 1381.3 1700.4 1382.1 1704.5 1382.1C1709 1382.1 1712.7 1381.2 1715.2 1379.7C1717.8 1378.2 1719 1376.3 1718.8 1373.9C1718.67 1372.03 1717.63 1370.53 1715.7 1369.4C1713.8 1368.2 1710.4 1367.1 1705.6 1365.9C1704.93 1365.77 1704 1365.53 1702.8 1365.2C1694.4 1363 1688.8 1360.8 1685.7 1359.1C1682.63 1357.37 1680.4 1355.27 1679 1352.8C1677.6 1350.4 1677.1 1347.7 1677.4 1344.9C1678 1340 1680.8 1336.4 1685.5 1333.8C1690.2 1331.1 1696 1329.9 1703.1 1329.9C1709.3 1329.9 1714.5 1330.8 1718.9 1332.7C1722.5 1334.3 1725.7 1336.6 1727.9 1339.4C1728.5 1340.2 1729.4 1341.3 1728.2 1342.1C1727.4 1342.7 1719 1346.1 1717.7 1346.2C1715.4 1346.6 1714.9 1344.6 1713.8 1343.5C1712.7 1342.5 1711.6 1341.6 1710.2 1340.9C1707.9 1339.7 1705.2 1339.2 1702 1339.1C1698.9 1339.1 1696.5 1339.6 1694.6 1340.7C1692.8 1341.8 1691.8 1343.3 1691.7 1345.3C1691.5 1348.3 1695.9 1351.6 1705.3 1354.2C1708.2 1355.1 1710.5 1355.7 1712.2 1356.1C1720.2 1358.3 1725.9 1360.2 1729.1 1362.5C1732.3 1364.7 1734.3 1367.8 1734.8 1371.9C1735.5 1377.5 1733.4 1382.2 1728 1385.9C1722.7 1389.6 1715.4 1392.7 1705.4 1392.8C1696.6 1392.8 1688.9 1391.4 1683.2 1388.5C1679.9 1386.9 1676.9 1383.8 1674.8 1381.5C1673.7 1380.4 1672.7 1379.2 1672.1 1378C1671.8 1377.4 1671.1 1376.7 1671 1376.1C1671 1375.9 1671.07 1375.7 1671.2 1375.5Z" fill="#F3AB56"/>
<path d="M1709.1 1396.7C1709.2 1398.9 1706.4 1399.2 1703.5 1399.2C1700.6 1399.3 1697.5 1399.1 1697.6 1396.7C1697.6 1396.7 1699 1325.7 1699 1325.6C1699 1324.4 1699.8 1323.3 1701.3 1323.2C1703.8 1322.9 1707.5 1322.6 1707.6 1325.6C1707.6 1325.6 1709.1 1396.6 1709.1 1396.7Z" fill="#F3AB56"/>
<path d="M1823.3 1356.5C1824.9 1397.8 1771.7 1426.5 1708.8 1426.5C1645.9 1426.5 1594.5 1394.4 1594.5 1355.7C1594.5 1351.1 1593.7 1329.8 1595.1 1325.4C1605.4 1293.2 1653.4 1286.6 1708.8 1286.6C1763.8 1286.6 1812 1294.3 1822.7 1326.2C1824.2 1330.7 1823.1 1351.7 1823.3 1356.5Z" fill="#F19850" stroke="#EF8848" stroke-width="4.6" stroke-linecap="round" stroke-linejoin="round"/>
<path d="M1612 1391.4V1340.9" stroke="#EF8848" stroke-width="6.9" stroke-linecap="round" stroke-linejoin="round"/>
<path d="M1643 1412.2V1361.7" stroke="#EF8848" stroke-width="6.9" stroke-linecap="round" stroke-linejoin="round"/>
<path d="M1686.9 1423.4V1373" stroke="#EF8848" stroke-width="6.9" stroke-linecap="round" stroke-linejoin="round"/>
<path d="M1733.7 1423.4V1373" stroke="#EF8848" stroke-width="6.9" stroke-linecap="round" stroke-linejoin="round"/>
<path d="M1776.7 1411.6V1361.1" stroke="#EF8848" stroke-width="6.9" stroke-linecap="round" stroke-linejoin="round"/>
<path d="M1814.1 1383.7V1351.6" stroke="#EF8848" stroke-width="6.9" stroke-linecap="round" stroke-linejoin="round"/>
<path d="M1822.7 1329.5C1822.7 1368.1 1771.7 1399.4 1708.8 1399.4C1645.9 1399.4 1594.9 1368.1 1594.9 1329.5C1594.9 1290.9 1645.9 1259.5 1708.8 1259.5C1771.7 1259.5 1822.7 1290.9 1822.7 1329.5Z" fill="#F3AB56" stroke="#ED9A50" stroke-width="4.6" stroke-linecap="round" stroke-linejoin="round"/>
<g style="mix-blend-mode:hard-light" opacity="0.4">
<path d="M1766.6 1272.5C1767.7 1272.7 1770 1273.1 1770.2 1273.1C1752.6 1266 1731.5 1261.8 1708.8 1261.8C1647.3 1261.8 1597.2 1292.2 1597.2 1329.5C1597.2 1360.4 1631.6 1386.5 1678.4 1394.6C1667.4 1389.5 1645.2 1381.8 1636.6 1375.5C1616.2 1360.6 1596.5 1341.8 1608.6 1314.2C1630.8 1263.7 1708.8 1259.5 1766.6 1272.5Z" fill="#9EA0A1"/>
</g>
<path d="M1799.2 1328.4C1799.2 1356.3 1758.7 1378.9 1708.8 1378.9C1658.9 1378.9 1618.4 1356.3 1618.4 1328.4C1618.4 1300.5 1658.9 1277.8 1708.8 1277.8C1758.7 1277.8 1799.2 1300.5 1799.2 1328.4Z" fill="#F7C679"/>
<path d="M1678.1 1341.2C1678.9 1340.5 1690.8 1338 1692.7 1338.1C1694 1338.2 1694.5 1339.2 1694.9 1339.9C1695.5 1340.9 1696.2 1341.7 1697.1 1342.5C1698.3 1343.6 1699.4 1344.5 1700.9 1345.3C1703.8 1346.9 1707.3 1347.7 1711.3 1347.7C1715.9 1347.7 1719.5 1346.9 1722.1 1345.4C1724.7 1343.9 1725.8 1341.9 1725.7 1339.6C1725.6 1337.7 1724.5 1336.2 1722.6 1335C1720.7 1333.9 1717.3 1332.8 1712.5 1331.6C1711.83 1331.4 1710.87 1331.17 1709.6 1330.9C1701.3 1328.7 1695.7 1326.4 1692.5 1324.7C1689.5 1322.97 1687.3 1320.9 1685.9 1318.5C1684.5 1316 1684 1313.4 1684.3 1310.5C1684.9 1305.7 1687.6 1302 1692.4 1299.4C1697.1 1296.7 1702.9 1295.5 1710 1295.5C1716.2 1295.5 1721.4 1296.4 1725.8 1298.3C1729.4 1299.9 1732.6 1302.2 1734.8 1305C1735.3 1305.8 1736.3 1307 1735.1 1307.7C1734.3 1308.4 1725.9 1311.7 1724.6 1311.8C1722.2 1312.3 1721.7 1310.3 1720.6 1309.2C1719.6 1308.1 1718.4 1307.2 1717.1 1306.5C1714.8 1305.3 1712.1 1304.8 1708.9 1304.8C1705.8 1304.8 1703.3 1305.3 1701.5 1306.3C1699.6 1307.4 1698.6 1308.9 1698.5 1310.9C1698.4 1313.9 1702.8 1317.2 1712.2 1319.9C1715.07 1320.7 1717.37 1321.3 1719.1 1321.7C1727.1 1323.9 1732.8 1325.8 1736 1328.1C1739.2 1330.3 1741.2 1333.4 1741.7 1337.6C1742.4 1343.1 1740.2 1347.8 1734.9 1351.5C1729.6 1355.2 1722.3 1358.4 1712.2 1358.4C1703.5 1358.5 1695.8 1357 1690 1354.1C1686.8 1352.5 1683.8 1349.4 1681.7 1347.2C1680.6 1346 1679.6 1344.8 1679 1343.6C1678.7 1343 1678 1342.3 1677.9 1341.7C1677.9 1341.5 1677.97 1341.33 1678.1 1341.2Z" fill="#F3AB56"/>
<path d="M1716 1362.3C1716.1 1364.5 1713.3 1364.8 1710.4 1364.9C1707.4 1364.9 1704.4 1364.7 1704.4 1362.3L1705.9 1291.3C1705.9 1290 1706.6 1289 1708.1 1288.8C1710.7 1288.5 1714.4 1288.2 1714.5 1291.3L1716 1362.3Z" fill="#F3AB56"/>
<path d="M979.9 881C989.3 900 981.5 923 962.6 932.4L452 1186C433 1195.4 410 1187.6 400.6 1168.7L257.9 881.2C248.4 862.2 256.2 839.2 275.1 829.8L785.7 576.3C804.7 566.9 827.7 574.6 837.1 593.6L979.9 881Z" fill="#FF9E22" stroke="#FFCC84" stroke-width="8.3" stroke-linecap="round" stroke-linejoin="round"/>
<g style="mix-blend-mode:multiply" opacity="0.5">
<path d="M936.8 818.7C949.7 851.7 958.1 877.1 933.1 905.9C900.4 943.5 854.8 961.8 812.2 985.9C784.8 1001.5 756.6 1021.2 730 1038.2C717.8 1045.9 702.9 1056.4 692.2 1065.6L965.4 929.9C982.9 921.2 990.1 899.8 981.4 882.3L884.6 687.4C898.9 731.1 920 775.4 936.8 818.7Z" fill="#D7D7D8" fill-opacity="0.79"/>
</g>
<path d="M910.1 895.9C911 904.2 906.5 912.9 901.9 915.2C901.8 915.2 819.2 956.2 818.8 956.5C797.8 966.9 770.9 910.5 791 900.5C791 900.5 873.2 859.7 874.1 859.2C889.6 851.5 907.8 876.6 910.1 895.9Z" fill="white" stroke="#F58649" stroke-width="0.4" stroke-linecap="round" stroke-linejoin="round"/>
<path d="M736.6 987.4C738.8 991.8 737.5 996.8 733.9 998.6L471.4 1129C467.7 1130.8 462.9 1128.8 460.8 1124.4C458.6 1120.1 459.8 1115.1 463.5 1113.2L726 982.9C729.7 981 734.5 983.1 736.6 987.4Z" fill="white" stroke="#F58649" stroke-width="0.4" stroke-linecap="round" stroke-linejoin="round"/>
<path d="M752.7 929.3C754.8 933.7 753.2 938.9 749 941L452.3 1088.3C448.1 1090.4 442.9 1088.6 440.8 1084.2C438.6 1079.9 440.3 1074.7 444.4 1072.6L741.2 925.2C745.4 923.1 750.5 925 752.7 929.3Z" fill="white" stroke="#F58649" stroke-width="0.4" stroke-linecap="round" stroke-linejoin="round"/>
<g style="mix-blend-mode:hard-light" opacity="0.4">
<path d="M484.2 1166.8L450.8 1183.5C450.533 1183.63 450.267 1183.73 450 1183.8C448.7 1184.4 447.6 1184.9 446.4 1185.2C441.1 1187.1 435.6 1187.6 430.1 1186.8C429.7 1186.73 429.3 1186.67 428.9 1186.6C428.7 1186.6 428.6 1186.6 428.5 1186.6C424.8 1185.9 421.2 1184.6 418 1182.8C417.9 1182.8 417.8 1182.7 417.7 1182.7C411.4 1179.2 406.3 1174 403.1 1167.4L260.4 880C251.6 862.4 258.8 841 276.4 832.3L293.8 823.7C277.8 839.4 263.8 853.6 272.7 878.9C297.9 950.3 337.3 1013.5 348 1037.8C348.7 1038.8 349.1 1039.8 349.6 1040.9C354.6 1050.6 359.5 1060.4 364 1070.3C369.9 1083.2 375.3 1096.4 382.2 1108.8C390.4 1123.7 405.9 1160.3 423.1 1172.5C438.1 1183.3 476.7 1168.6 484.2 1166.8Z" fill="#9EA0A1"/>
</g>
<path d="M503.4 860.3C505.4 864.4 503.7 869.4 499.6 871.5L388.5 926.6C384.4 928.7 379.4 927 377.3 922.9L346.3 860.3C344.2 856.2 345.9 851.2 350 849.1L461.1 794C465.3 791.9 470.3 793.6 472.3 797.7L503.4 860.3Z" fill="#AFB5B9" stroke="#8E9494" stroke-width="8.3" stroke-linecap="round" stroke-linejoin="round"/>
<path d="M356.7 874.8L477.6 814.8" stroke="#8E9494" stroke-width="8.3" stroke-linecap="round" stroke-linejoin="round"/>
<path d="M370 901.6L490.8 841.5" stroke="#8E9494" stroke-width="8.3" stroke-linecap="round" stroke-linejoin="round"/>
<path d="M405.6 821.6L444.1 899" stroke="#8E9494" stroke-width="8.3" stroke-linecap="round" stroke-linejoin="round"/>
<path fill-rule="evenodd" clip-rule="evenodd" d="M631.2 722.1L643.2 716.1C648.333 713.567 652.6 712.333 656 712.4C661.133 712.467 665.067 715.233 667.8 720.7C669.4 724.033 669.8 727.2 669 730.2C668.533 731.933 667.433 733.933 665.7 736.2C672.967 734.8 678.267 737.433 681.6 744.1C684.467 749.9 684.533 754.933 681.8 759.2C679.733 762.4 675.767 765.467 669.9 768.4L657.3 774.7C656.633 775.033 656.167 775.133 655.9 775C655.567 774.867 655.233 774.467 654.9 773.8L630.4 724.5C629.867 723.433 630.133 722.633 631.2 722.1ZM650.8 739.5L653.1 738.3C658.7 735.5 660.3 731.7 657.9 726.9C655.767 722.633 652.2 721.733 647.2 724.2L644 725.8L650.8 739.5ZM662.1 762.3L664.9 760.9C667.967 759.367 670 757.8 671 756.2C672.4 754.133 672.367 751.6 670.9 748.6C669.433 745.733 667.5 744.2 665.1 744C663.233 743.867 660.767 744.567 657.7 746.1L654.8 747.5L662.1 762.3Z" fill="white"/>
<path fill-rule="evenodd" clip-rule="evenodd" d="M725.7 739L721 744.3C720.267 744.9 720 745.167 720.2 745.1C719.867 745.233 719.2 744.9 718.2 744.1C717.2 743.367 716.333 742.533 715.6 741.6C714.067 746.2 711.5 749.367 707.9 751.1C704.433 752.9 701.133 753.233 698 752.1C694.867 751.033 692.4 748.667 690.6 745C687.8 739.467 688.5 734.4 692.7 729.8C694.967 727.333 698.8 724.767 704.2 722.1L703 719.7C701.933 717.7 700.833 716.433 699.7 715.9C698.5 715.433 696.833 715.733 694.7 716.8C693.033 717.6 691.233 718.967 689.3 720.9C687.367 722.833 686.367 723.8 686.3 723.8C685.967 724 685.6 723.867 685.2 723.4L681.3 719.5C681.033 719.233 680.8 718.967 680.6 718.7C680.2 717.833 681.3 716.267 683.9 714C686.5 711.733 689.333 709.867 692.4 708.4C701.2 704 707.633 705.933 711.7 714.2L719.1 729C720.567 731.933 722.867 734.933 726 738C726.133 738.267 726.033 738.6 725.7 739ZM711.5 736.9L707.3 728.4C704.5 729.8 702.533 731 701.4 732C698.733 734.4 698.1 737.033 699.5 739.9C700.233 741.433 701.333 742.433 702.8 742.9C704.267 743.433 705.733 743.333 707.2 742.6C709.067 741.667 710.5 739.767 711.5 736.9Z" fill="white"/>
<path d="M752 692.7L765.3 719.7C765.7 720.433 765.533 720.967 764.8 721.3L757.2 725.1C756.467 725.433 755.933 725.233 755.6 724.5L743.8 700.9C741.667 696.567 739.167 695.133 736.3 696.6C734.1 697.667 732.4 699.833 731.2 703.1L744.5 730C744.9 730.733 744.733 731.267 744 731.6L736.4 735.4C735.667 735.733 735.133 735.567 734.8 734.9L723.3 711.7C721.1 707.3 719.3 704.3 717.9 702.7C716.5 701.033 715.833 700.267 715.9 700.4C715.7 700.067 715.833 699.667 716.3 699.2L721.2 694.3C721.533 693.967 721.867 693.7 722.2 693.5C723 693.1 724.7 694.467 727.3 697.6C729.5 692.133 732.533 688.433 736.4 686.5C743.067 683.167 748.267 685.233 752 692.7Z" fill="white"/>
<path d="M784.6 685L806.9 694.8C807.567 695.067 807.967 695.367 808.1 695.7C808.3 695.967 808.3 696.233 808.1 696.5L803.3 703.4C803.033 703.8 802.767 704.067 802.5 704.2C802.3 704.267 801.867 704.167 801.2 703.9L778 692.5L786.3 709.3C786.633 710.033 786.433 710.567 785.7 710.9L778.2 714.7C777.467 715.033 776.9 714.833 776.5 714.1L750.9 662.5C750.567 661.833 750.833 661.133 751.7 660.4L757.5 655.9C757.9 655.5 758.267 655.233 758.6 655.1C759 654.9 759.467 655.333 760 656.4L775.1 686.8L782.5 664.6C782.633 663.867 782.867 663.433 783.2 663.3C783.4 663.167 784 663.2 785 663.4L790.4 664.7C790.733 664.833 791 665.033 791.2 665.3C791.267 665.5 791.2 665.967 791 666.7L784.6 685Z" fill="white"/>
<g style="mix-blend-mode:hard-light" opacity="0.3">
<path d="M838.6 594.8L842.1 601.8L459.8 1174.5C453.7 1175.6 447.3 1177 442.2 1176.4L833.8 587.5C835.6 589.7 837.3 592.1 838.6 594.8Z" fill="#9EA0A1" fill-opacity="0.75"/>
</g>
<g style="mix-blend-mode:hard-light" opacity="0.3">
<path d="M820.2 579.7L427.7 1174.9C420.9 1172.6 413.3 1165.4 403 1148L776.9 583.8L787 578.8C797.9 573.3 810.3 574.1 820.2 579.7Z" fill="#9EA0A1" fill-opacity="0.75"/>
</g>
<path d="M950.7 1253.2C950.7 1272.5 935 1288.1 915.7 1288.1H395.2C375.9 1288.1 360.3 1272.5 360.3 1253.2V960.1C360.3 940.8 375.9 925.1 395.2 925.1H915.7C935 925.1 950.7 940.8 950.7 960.1V1253.2Z" fill="#F69354" stroke="#F58649" stroke-width="5.1" stroke-linecap="round" stroke-linejoin="round"/>
<g style="mix-blend-mode:multiply" opacity="0.5">
<path d="M941.5 1183.1C938.6 1215.3 935.2 1239.5 903 1252.9C861.1 1270.3 816.3 1266.7 771.7 1269.2C743 1270.8 711.9 1275.5 683.3 1278.5C670.2 1280 653.7 1282.5 641.2 1285.6H919.7C937.6 1285.6 952.1 1271 952.1 1253.2V1054.5C946.1 1096 945.3 1140.9 941.5 1183.1Z" fill="#D7D7D8" fill-opacity="0.78"/>
</g>
<path d="M950.7 1048.3V984.5H360.3V1048.3H950.7Z" fill="#493F3E" stroke="#F58649" stroke-width="5.1" stroke-linecap="round" stroke-linejoin="round"/>
<path d="M700.2 1119.6C698.9 1125.8 693.8 1130.6 687.1 1130.6C687.1 1130.6 407.6 1130.6 407.2 1130.6C389 1130.6 390.1 1082.7 407.2 1082.7C407.2 1082.7 686.2 1082.7 687.1 1082.7C695 1082.7 699.3 1090.6 700.1 1097.1C700.8 1102.1 701.9 1111.9 700.2 1119.6Z" fill="white" stroke="#F58649" stroke-width="0.4" stroke-linecap="round" stroke-linejoin="round"/>
<path d="M924.6 1120.2C922.4 1126.1 916.4 1130.6 912.4 1130.6C912.3 1130.6 738.9 1130.6 738.5 1130.6C720.6 1130.6 721.3 1082.7 738.5 1082.7C738.6 1082.7 911.6 1082.7 912.4 1082.7C925.7 1082.7 929.6 1106.1 924.6 1120.2Z" fill="white" stroke="#F58649" stroke-width="0.4" stroke-linecap="round" stroke-linejoin="round"/>
<path d="M922.1 1175.1C922.1 1179.5 918.9 1183.1 915.1 1183.1H640C636.2 1183.1 633 1179.5 633 1175.1C633 1170.7 636.2 1167.1 640 1167.1H915.1C918.9 1167.1 922.1 1170.7 922.1 1175.1Z" fill="white" stroke="#F58649" stroke-width="0.4" stroke-linecap="round" stroke-linejoin="round"/>
<path d="M925.3 1227.1C925.3 1231.7 920.6 1235.5 918.8 1235.5H789.7C787.9 1235.5 783.6 1231.7 783.6 1227.1C783.6 1222.4 787.9 1218.6 789.7 1218.6H918.8C920.6 1218.6 925.3 1222.4 925.3 1227.1Z" fill="white" stroke="#F58649" stroke-width="0.4" stroke-linecap="round" stroke-linejoin="round"/>
<path d="M771.7 1227.1C771.7 1231.7 767.6 1235.5 765.9 1235.5H645C643.3 1235.5 638.4 1231.7 638.4 1227.1C638.4 1222.4 643.3 1218.6 645 1218.6H765.9C767.6 1218.6 771.7 1222.4 771.7 1227.1Z" fill="white" stroke="#F58649" stroke-width="0.4" stroke-linecap="round" stroke-linejoin="round"/>
<path d="M600.7 1227.1C600.6 1231.3 597.6 1235.5 593.8 1235.5H398.9C396.2 1235.5 391.8 1231.7 391.8 1227.1C391.8 1222.4 396.2 1218.6 398.9 1218.6C398.9 1218.6 593.4 1218.6 593.8 1218.6C597.7 1218.6 600.7 1222.8 600.7 1227.1Z" fill="white" stroke="#F58649" stroke-width="0.4" stroke-linecap="round" stroke-linejoin="round"/>
<g style="mix-blend-mode:hard-light" opacity="0.4">
<path d="M429.4 1285.6H395.2C395 1285.6 394.767 1285.57 394.5 1285.5C393.2 1285.5 392.1 1285.4 390.9 1285.2C385.9 1284.6 381.1 1282.8 377 1279.9C376.667 1279.7 376.367 1279.5 376.1 1279.3C375.967 1279.23 375.867 1279.17 375.8 1279.1C373 1277 370.6 1274.5 368.7 1271.8C368.7 1271.7 368.6 1271.6 368.6 1271.6C364.8 1266.1 362.8 1259.8 362.8 1253.1V960.1C362.8 942.2 377.3 927.7 395.2 927.7H413C393.6 934 376.3 940 373.3 964.2C364.9 1032.9 371.5 1100.5 370.4 1124.8C370.5 1125.9 370.4 1126.9 370.4 1127.9C370.6 1137.9 370.6 1147.9 370.3 1157.8C369.8 1170.8 368.9 1183.8 369.5 1196.8C370.2 1212.2 368 1248.4 377.1 1265.4C385 1280.3 422.5 1283.9 429.4 1285.6Z" fill="#9EA0A1"/>
</g>
<g style="mix-blend-mode:hard-light" opacity="0.3">
<path d="M948.1 960.1V967.3L403 1280.3C397.6 1278.7 391.7 1277.3 387.8 1274.7L947.1 952.2C947.8 954.7 948.1 957.4 948.1 960.1Z" fill="#9EA0A1" fill-opacity="0.75"/>
</g>
<g style="mix-blend-mode:hard-light" opacity="0.3">
<path d="M942.5 941.9L379.9 1269.2C375.3 1264.6 372 1255.6 370.6 1237.2L905.4 927.7H915.7C926.8 927.7 936.7 933.3 942.5 941.9Z" fill="#9EA0A1" fill-opacity="0.75"/>
</g>
<path d="M849.583 601C848.505 601 848.153 600.506 848.527 599.518L859.533 570.61C859.997 569.397 860.701 568.791 861.645 568.791H864.789C865.732 568.791 866.436 569.397 866.9 570.61L877.906 599.518C878.281 600.506 877.929 601 876.851 601H873.279C872.291 601 871.602 600.483 871.213 599.45L868.922 593.408H857.512L855.221 599.45C854.831 600.483 854.143 601 853.154 601H849.583ZM859.601 587.838H866.833L864.07 580.695C863.741 579.857 863.539 579.25 863.464 578.876C863.404 578.487 863.337 577.918 863.262 577.169H863.172C863.097 577.918 863.022 578.487 862.947 578.876C862.887 579.25 862.693 579.857 862.363 580.695L859.601 587.838ZM880.242 584.896C880.242 579.729 881.552 575.627 884.173 572.587C886.793 569.547 890.574 568.027 895.516 568.027C898.361 568.027 900.771 568.469 902.748 569.353C904.725 570.236 906.117 571.516 906.926 573.193C907.465 574.301 907.375 575.05 906.656 575.439L903.961 576.877C903.018 577.386 902.239 577.102 901.625 576.023C901.236 575.335 900.509 574.713 899.446 574.159C898.398 573.605 897.163 573.328 895.74 573.328C892.596 573.328 890.395 574.324 889.137 576.315C887.879 578.292 887.25 581.152 887.25 584.896C887.25 588.639 887.879 591.507 889.137 593.498C890.395 595.475 892.596 596.463 895.74 596.463C897.432 596.463 898.855 596.081 900.008 595.317C901.176 594.554 901.984 593.827 902.434 593.139C903.167 592.016 903.946 591.731 904.77 592.285L907.465 594.082C908.199 594.576 908.273 595.325 907.689 596.328C906.821 597.826 905.331 599.106 903.22 600.169C901.108 601.232 898.54 601.764 895.516 601.764C890.649 601.764 886.883 600.244 884.218 597.204C881.567 594.164 880.242 590.062 880.242 584.896ZM912.092 584.896C912.092 579.729 913.402 575.627 916.022 572.587C918.643 569.547 922.424 568.027 927.365 568.027C930.21 568.027 932.621 568.469 934.598 569.353C936.574 570.236 937.967 571.516 938.775 573.193C939.314 574.301 939.225 575.05 938.506 575.439L935.811 576.877C934.867 577.386 934.089 577.102 933.475 576.023C933.085 575.335 932.359 574.713 931.296 574.159C930.248 573.605 929.012 573.328 927.59 573.328C924.445 573.328 922.244 574.324 920.986 576.315C919.729 578.292 919.1 581.152 919.1 584.896C919.1 588.639 919.729 591.507 920.986 593.498C922.244 595.475 924.445 596.463 927.59 596.463C929.282 596.463 930.704 596.081 931.857 595.317C933.025 594.554 933.834 593.827 934.283 593.139C935.017 592.016 935.796 591.731 936.619 592.285L939.314 594.082C940.048 594.576 940.123 595.325 939.539 596.328C938.671 597.826 937.181 599.106 935.069 600.169C932.958 601.232 930.39 601.764 927.365 601.764C922.499 601.764 918.733 600.244 916.067 597.204C913.417 594.164 912.092 590.062 912.092 584.896ZM943.941 584.896C943.941 579.729 945.274 575.627 947.939 572.587C950.605 569.547 954.408 568.027 959.35 568.027C964.291 568.027 968.094 569.547 970.76 572.587C973.425 575.627 974.758 579.729 974.758 584.896C974.758 590.062 973.425 594.164 970.76 597.204C968.094 600.244 964.291 601.764 959.35 601.764C954.408 601.764 950.605 600.244 947.939 597.204C945.274 594.164 943.941 590.062 943.941 584.896ZM950.949 584.896C950.949 588.639 951.616 591.507 952.948 593.498C954.296 595.475 956.43 596.463 959.35 596.463C962.27 596.463 964.396 595.475 965.729 593.498C967.076 591.507 967.75 588.639 967.75 584.896C967.75 581.152 967.076 578.292 965.729 576.315C964.396 574.324 962.27 573.328 959.35 573.328C956.43 573.328 954.296 574.324 952.948 576.315C951.616 578.292 950.949 581.152 950.949 584.896ZM980.283 587.591V570.026C980.283 569.203 980.807 568.791 981.855 568.791H985.27C986.318 568.791 986.842 569.203 986.842 570.026V587.366C986.842 591.409 987.433 593.94 988.616 594.958C989.814 595.961 991.162 596.463 992.659 596.463C994.157 596.463 995.497 595.961 996.68 594.958C997.878 593.94 998.477 591.409 998.477 587.366V570.026C998.477 569.203 999.001 568.791 1000.05 568.791H1003.46C1004.51 568.791 1005.04 569.203 1005.04 570.026V587.591C1005.04 592.832 1003.93 596.508 1001.71 598.619C999.495 600.715 996.478 601.764 992.659 601.764C988.841 601.764 985.824 600.715 983.607 598.619C981.391 596.508 980.283 592.832 980.283 587.591ZM1013.79 601C1012.75 601 1012.22 600.438 1012.22 599.315V570.476C1012.22 569.353 1012.75 568.791 1013.79 568.791H1017.12C1018.41 568.791 1019.38 569.315 1020.04 570.363L1031.49 588.759H1031.65C1031.58 587.86 1031.54 586.962 1031.54 586.063V570.476C1031.54 569.353 1032.06 568.791 1033.11 568.791H1036.53C1037.57 568.791 1038.1 569.353 1038.1 570.476V599.315C1038.1 600.438 1037.57 601 1036.53 601H1033.43C1032.14 601 1031.16 600.476 1030.51 599.428L1018.83 580.695H1018.67C1018.74 581.594 1018.78 582.492 1018.78 583.391V599.315C1018.78 600.438 1018.26 601 1017.21 601H1013.79ZM1044.14 574.541C1043.02 574.541 1042.46 574.054 1042.46 573.081V570.251C1042.46 569.278 1043.02 568.791 1044.14 568.791H1067.23C1068.35 568.791 1068.91 569.278 1068.91 570.251V573.081C1068.91 574.054 1068.35 574.541 1067.23 574.541H1058.96V599.765C1058.96 600.588 1058.59 601 1057.84 601H1053.53C1052.78 601 1052.41 600.588 1052.41 599.765V574.541H1044.14ZM1073.65 598.597C1072.72 597.893 1072.5 597.182 1072.98 596.463L1074.71 593.857C1075.28 593.004 1076.11 592.959 1077.2 593.723C1078.04 594.307 1079.13 594.913 1080.48 595.542C1081.84 596.156 1083.27 596.463 1084.77 596.463C1085.82 596.463 1086.83 596.343 1087.8 596.104C1088.78 595.864 1089.52 595.4 1090.03 594.711C1090.54 594.022 1090.79 593.206 1090.79 592.263C1090.79 591.589 1090.68 590.997 1090.45 590.488C1090.23 589.979 1089.86 589.56 1089.35 589.23C1088.84 588.901 1088.32 588.624 1087.78 588.399C1086.84 588.01 1085.65 587.628 1084.21 587.254C1082.79 586.865 1081.38 586.4 1079.99 585.861C1078.74 585.382 1077.61 584.723 1076.57 583.885C1075.54 583.046 1074.74 582.103 1074.17 581.055C1073.6 580.007 1073.32 578.606 1073.32 576.854C1073.32 574.773 1073.99 572.991 1075.34 571.509C1076.69 570.026 1078.24 569.076 1079.99 568.656C1081.74 568.237 1083.51 568.027 1085.29 568.027C1087.06 568.027 1088.87 568.297 1090.75 568.836C1092.63 569.375 1094.06 570.049 1095.01 570.857C1095.96 571.651 1096.19 572.37 1095.71 573.014L1093.89 575.462C1093.28 576.3 1092.45 576.368 1091.42 575.664C1090.76 575.215 1089.86 574.713 1088.7 574.159C1087.56 573.605 1086.37 573.328 1085.13 573.328C1084.25 573.328 1083.43 573.403 1082.68 573.553C1081.95 573.702 1081.3 574.062 1080.73 574.631C1080.16 575.2 1079.88 575.904 1079.88 576.742C1079.88 577.551 1080.08 578.21 1080.5 578.719C1080.92 579.213 1081.39 579.587 1081.9 579.842C1082.41 580.081 1082.92 580.284 1083.45 580.448C1085.06 580.972 1086.51 581.437 1087.78 581.841C1089.05 582.23 1090.23 582.664 1091.31 583.144C1092.81 583.817 1093.95 584.491 1094.74 585.165C1095.54 585.839 1096.19 586.76 1096.7 587.928C1097.22 589.096 1097.48 590.488 1097.48 592.105C1097.48 594.501 1096.72 596.485 1095.19 598.058C1093.67 599.615 1091.97 600.618 1090.09 601.067C1088.24 601.532 1086.43 601.764 1084.66 601.764C1082.05 601.764 1079.93 601.509 1078.3 601C1076.67 600.506 1075.12 599.705 1073.65 598.597ZM1119.95 601C1118.9 601 1118.37 600.438 1118.37 599.315V570.476C1118.37 569.353 1118.9 568.791 1119.95 568.791H1130.34C1134.97 568.791 1138.35 569.51 1140.47 570.947C1142.6 572.37 1143.66 574.691 1143.66 577.91C1143.66 580.306 1142.8 582.215 1141.08 583.638C1139.36 585.06 1137.17 586.004 1134.52 586.468V586.513C1135.96 587.052 1137.05 587.8 1137.78 588.759C1138.51 589.717 1139.11 590.556 1139.58 591.274L1144.52 599.068C1145.34 600.356 1145.06 601 1143.66 601H1139.76C1138.93 601 1138.26 600.558 1137.73 599.675L1133.2 592.105C1132.7 591.297 1131.8 590.413 1130.48 589.455C1129.18 588.482 1127.88 587.995 1126.59 587.995H1124.93V599.315C1124.93 600.438 1124.41 601 1123.36 601H1119.95ZM1124.93 582.425H1128.95C1131.95 582.425 1134.07 582.088 1135.33 581.414C1136.6 580.725 1137.24 579.64 1137.24 578.157C1137.24 576.54 1136.63 575.492 1135.4 575.013C1134.19 574.519 1132.4 574.271 1130.03 574.271H1124.93V582.425ZM1152.02 601C1150.97 601 1150.45 600.438 1150.45 599.315V570.476C1150.45 569.353 1150.97 568.791 1152.02 568.791H1171.29C1172.41 568.791 1172.98 569.278 1172.98 570.251V572.901C1172.98 573.875 1172.41 574.361 1171.29 574.361H1157.01V581.504H1170.1C1171.22 581.504 1171.79 581.991 1171.79 582.964V585.614C1171.79 586.588 1171.22 587.074 1170.1 587.074H1157.01V595.43H1172.01C1173.13 595.43 1173.69 595.916 1173.69 596.89V599.54C1173.69 600.513 1173.13 601 1172.01 601H1152.02ZM1177.54 584.896C1177.54 579.729 1178.85 575.627 1181.47 572.587C1184.09 569.547 1187.87 568.027 1192.81 568.027C1195.65 568.027 1198.06 568.469 1200.04 569.353C1202.02 570.236 1203.41 571.516 1204.22 573.193C1204.76 574.301 1204.67 575.05 1203.95 575.439L1201.25 576.877C1200.31 577.386 1199.53 577.102 1198.92 576.023C1198.53 575.335 1197.8 574.713 1196.74 574.159C1195.69 573.605 1194.46 573.328 1193.03 573.328C1189.89 573.328 1187.69 574.324 1186.43 576.315C1185.17 578.292 1184.54 581.152 1184.54 584.896C1184.54 588.639 1185.17 591.507 1186.43 593.498C1187.69 595.475 1189.89 596.463 1193.03 596.463C1194.73 596.463 1196.15 596.081 1197.3 595.317C1198.47 594.554 1199.28 593.827 1199.73 593.139C1200.46 592.016 1201.24 591.731 1202.06 592.285L1204.76 594.082C1205.49 594.576 1205.57 595.325 1204.98 596.328C1204.11 597.826 1202.62 599.106 1200.51 600.169C1198.4 601.232 1195.83 601.764 1192.81 601.764C1187.94 601.764 1184.18 600.244 1181.51 597.204C1178.86 594.164 1177.54 590.062 1177.54 584.896ZM1212.62 601C1211.57 601 1211.05 600.438 1211.05 599.315V570.476C1211.05 569.353 1211.57 568.791 1212.62 568.791H1231.89C1233.01 568.791 1233.58 569.278 1233.58 570.251V572.901C1233.58 573.875 1233.01 574.361 1231.89 574.361H1217.61V581.504H1230.7C1231.82 581.504 1232.38 581.991 1232.38 582.964V585.614C1232.38 586.588 1231.82 587.074 1230.7 587.074H1217.61V595.43H1232.61C1233.73 595.43 1234.29 595.916 1234.29 596.89V599.54C1234.29 600.513 1233.73 601 1232.61 601H1212.62ZM1241.37 601C1240.32 601 1239.8 600.438 1239.8 599.315V570.476C1239.8 569.353 1240.32 568.791 1241.37 568.791H1244.78C1245.83 568.791 1246.36 569.353 1246.36 570.476V599.315C1246.36 600.438 1245.83 601 1244.78 601H1241.37ZM1251.48 570.273C1251.1 569.285 1251.45 568.791 1252.53 568.791H1256.1C1257.11 568.791 1257.8 569.308 1258.17 570.341L1265.04 589.096C1265.39 590.054 1265.59 590.698 1265.65 591.027C1265.71 591.342 1265.78 591.873 1265.85 592.622H1265.94C1266.02 591.873 1266.08 591.342 1266.14 591.027C1266.2 590.698 1266.41 590.054 1266.75 589.096L1273.62 570.341C1274 569.308 1274.69 568.791 1275.69 568.791H1279.26C1280.34 568.791 1280.69 569.285 1280.32 570.273L1269.58 599.181C1269.13 600.394 1268.43 601 1267.47 601H1264.32C1263.37 601 1262.66 600.394 1262.21 599.181L1251.48 570.273ZM1278.36 601C1277.28 601 1276.93 600.506 1277.31 599.518L1288.31 570.61C1288.78 569.397 1289.48 568.791 1290.42 568.791H1293.57C1294.51 568.791 1295.22 569.397 1295.68 570.61L1306.69 599.518C1307.06 600.506 1306.71 601 1305.63 601H1302.06C1301.07 601 1300.38 600.483 1299.99 599.45L1297.7 593.408H1286.29L1284 599.45C1283.61 600.483 1282.92 601 1281.93 601H1278.36ZM1288.38 587.838H1295.61L1292.85 580.695C1292.52 579.857 1292.32 579.25 1292.24 578.876C1292.18 578.487 1292.12 577.918 1292.04 577.169H1291.95C1291.88 577.918 1291.8 578.487 1291.73 578.876C1291.67 579.25 1291.47 579.857 1291.14 580.695L1288.38 587.838ZM1312.48 601C1311.28 601 1310.68 600.438 1310.68 599.315V570.476C1310.68 569.353 1311.28 568.791 1312.48 568.791H1320.12C1325.87 568.791 1329.75 569.502 1331.75 570.925C1333.77 572.332 1334.78 574.504 1334.78 577.438C1334.78 579.49 1334.03 581.077 1332.52 582.2C1331.02 583.323 1329.57 583.975 1328.16 584.154V584.222C1329.52 584.312 1331.12 585 1332.96 586.288C1334.81 587.576 1335.73 589.395 1335.73 591.746C1335.73 594.501 1334.6 596.732 1332.36 598.439C1330.11 600.146 1326.41 601 1321.24 601H1312.48ZM1317.24 595.52H1320.52C1323.7 595.52 1325.85 595.243 1326.99 594.688C1328.14 594.134 1328.72 593.011 1328.72 591.319C1328.72 589.732 1328.05 588.639 1326.72 588.04C1325.4 587.426 1323.34 587.119 1320.52 587.119H1317.24V595.52ZM1317.24 581.818H1320.18C1322.12 581.818 1323.92 581.481 1325.6 580.808C1327.29 580.134 1328.14 579.086 1328.14 577.663C1328.14 576.555 1327.66 575.716 1326.72 575.147C1325.79 574.563 1323.61 574.271 1320.18 574.271H1317.24V581.818ZM1343.25 601C1342.2 601 1341.68 600.438 1341.68 599.315V570.476C1341.68 569.353 1342.2 568.791 1343.25 568.791H1346.89C1347.79 568.791 1348.24 569.353 1348.24 570.476V595.43H1361.33C1362.46 595.43 1363.02 595.916 1363.02 596.89V599.54C1363.02 600.513 1362.46 601 1361.33 601H1343.25ZM1369.35 601C1368.3 601 1367.78 600.438 1367.78 599.315V570.476C1367.78 569.353 1368.3 568.791 1369.35 568.791H1388.62C1389.75 568.791 1390.31 569.278 1390.31 570.251V572.901C1390.31 573.875 1389.75 574.361 1388.62 574.361H1374.34V581.504H1387.43C1388.56 581.504 1389.12 581.991 1389.12 582.964V585.614C1389.12 586.588 1388.56 587.074 1387.43 587.074H1374.34V595.43H1389.34C1390.46 595.43 1391.03 595.916 1391.03 596.89V599.54C1391.03 600.513 1390.46 601 1389.34 601H1369.35Z" fill="black"/>
</svg>
