<svg xmlns="http://www.w3.org/2000/svg" viewBox="0 0 512 512"><defs><clipPath id="a"><rect width="512" height="512"/></clipPath></defs><g data-name="Add Icon"><g clip-path="url(#a)" data-name="Group 16"><path fill="#2e2e2e" d="M215.5,20C107.7,20,20,107.7,20,215.5S107.7,411,215.5,411,411,323.3,411,215.5,323.3,20,215.5,20m0-20C334.517,0,431,96.483,431,215.5S334.517,431,215.5,431,0,334.517,0,215.5,96.483,0,215.5,0Z" data-name="Ellipse 3" transform="translate(41 41)"/><path fill="#2e2e2e" d="M203,10H0A10,10,0,0,1-10,0,10,10,0,0,1,0-10H203A10,10,0,0,1,213,0,10,10,0,0,1,203,10Z" data-name="Line 4" transform="translate(154.445 256)"/><path fill="#2e2e2e" d="M0,213c-5.523,0-10-5.35-10-11.95V1.95C-10-4.65-5.523-10,0-10S10-4.65,10,1.95v199.1C10,207.65,5.523,213,0,213Z" data-name="Line 5" transform="translate(256 154.5)"/></g></g></svg>