<svg version="1.2" xmlns="http://www.w3.org/2000/svg" viewBox="0 0 64 64" width="64" height="64"><style>.a{fill:#fff}</style><path fill-rule="evenodd" class="a" d="m48.7 20.3q0.3 0.3 0.3 0.7v22q0 0.4-0.3 0.7l-5 5q-0.3 0.3-0.7 0.3h-22q-0.4 0-0.7-0.3l-5-5q-0.3-0.3-0.3-0.7v-22q0-0.4 0.3-0.7l5-5q0.3-0.3 0.7-0.3h22q0.4 0 0.7 0.3zm-1.7 1.1l-4.4-4.4h-21.2l-4.4 4.4v21.2l4.4 4.4h21.2l4.4-4.4z"/><path class="a" d="m41 19h-6c-0.6 0-1 0.4-1 1 0 0.6 0.4 1 1 1h5.6l2.4 2.4v17.2l-2.4 2.4h-17.2l-2.4-2.4v-17.2l2.4-2.4h3.6c0.6 0 1-0.4 1-1 0-0.6-0.4-1-1-1h-4q-0.4 0-0.7 0.3l-3 3q-0.3 0.3-0.3 0.7v18q0 0.4 0.3 0.7l3 3q0.3 0.3 0.7 0.3h18q0.4 0 0.7-0.3l3-3q0.3-0.3 0.3-0.7v-18q0-0.4-0.3-0.7l-3-3q-0.3-0.3-0.7-0.3z"/><path fill-rule="evenodd" class="a" d="m30 25c2.8 0 5 2.2 5 5v8c0 0.6-0.4 1-1 1-0.6 0-1-0.4-1-1v-3h-6v3c0 0.6-0.4 1-1 1-0.6 0-1-0.4-1-1v-8c0-2.8 2.2-5 5-5zm-3 5v3h6v-3c0-1.7-1.3-3-3-3-1.7 0-3 1.3-3 3zm11 9c-0.6 0-1-0.4-1-1v-12c0-0.6 0.4-1 1-1 0.6 0 1 0.4 1 1v12c0 0.6-0.4 1-1 1zm-7-27v-4c0-0.6 0.4-1 1-1 0.6 0 1 0.4 1 1v4c0 0.6-0.4 1-1 1-0.6 0-1-0.4-1-1zm-4 0v-4c0-0.6 0.4-1 1-1 0.6 0 1 0.4 1 1v4c0 0.6-0.4 1-1 1-0.6 0-1-0.4-1-1zm-4 0v-4c0-0.6 0.4-1 1-1 0.6 0 1 0.4 1 1v4c0 0.6-0.4 1-1 1-0.6 0-1-0.4-1-1zm12 0v-4c0-0.6 0.4-1 1-1 0.6 0 1 0.4 1 1v4c0 0.6-0.4 1-1 1-0.6 0-1-0.4-1-1zm4 0v-4c0-0.6 0.4-1 1-1 0.6 0 1 0.4 1 1v4c0 0.6-0.4 1-1 1-0.6 0-1-0.4-1-1zm18 20c0 0.6-0.4 1-1 1h-4c-0.6 0-1-0.4-1-1 0-0.6 0.4-1 1-1h4c0.6 0 1 0.4 1 1zm0-4c0 0.6-0.4 1-1 1h-4c-0.6 0-1-0.4-1-1 0-0.6 0.4-1 1-1h4c0.6 0 1 0.4 1 1zm-6-4c0-0.6 0.4-1 1-1h4c0.6 0 1 0.4 1 1 0 0.6-0.4 1-1 1h-4c-0.6 0-1-0.4-1-1zm6 12c0 0.6-0.4 1-1 1h-4c-0.6 0-1-0.4-1-1 0-0.6 0.4-1 1-1h4c0.6 0 1 0.4 1 1zm0 4c0 0.6-0.4 1-1 1h-4c-0.6 0-1-0.4-1-1 0-0.6 0.4-1 1-1h4c0.6 0 1 0.4 1 1zm-24 12v4c0 0.6-0.4 1-1 1-0.6 0-1-0.4-1-1v-4c0-0.6 0.4-1 1-1 0.6 0 1 0.4 1 1zm4 0v4c0 0.6-0.4 1-1 1-0.6 0-1-0.4-1-1v-4c0-0.6 0.4-1 1-1 0.6 0 1 0.4 1 1zm4 0v4c0 0.6-0.4 1-1 1-0.6 0-1-0.4-1-1v-4c0-0.6 0.4-1 1-1 0.6 0 1 0.4 1 1zm-12 0v4c0 0.6-0.4 1-1 1-0.6 0-1-0.4-1-1v-4c0-0.6 0.4-1 1-1 0.6 0 1 0.4 1 1zm-4 0v4c0 0.6-0.4 1-1 1-0.6 0-1-0.4-1-1v-4c0-0.6 0.4-1 1-1 0.6 0 1 0.4 1 1zm-12-20c0 0.6-0.4 1-1 1h-4c-0.6 0-1-0.4-1-1 0-0.6 0.4-1 1-1h4c0.6 0 1 0.4 1 1zm0 4c0 0.6-0.4 1-1 1h-4c-0.6 0-1-0.4-1-1 0-0.6 0.4-1 1-1h4c0.6 0 1 0.4 1 1zm0 4c0 0.6-0.4 1-1 1h-4c-0.6 0-1-0.4-1-1 0-0.6 0.4-1 1-1h4c0.6 0 1 0.4 1 1zm0-12c0 0.6-0.4 1-1 1h-4c-0.6 0-1-0.4-1-1 0-0.6 0.4-1 1-1h4c0.6 0 1 0.4 1 1zm0-4c0 0.6-0.4 1-1 1h-4c-0.6 0-1-0.4-1-1 0-0.6 0.4-1 1-1h4c0.6 0 1 0.4 1 1z"/><path class="a" d="m31 21c-0.6 0-1-0.4-1-1 0-0.6 0.4-1 1-1 0.6 0 1 0.4 1 1 0 0.6-0.4 1-1 1z"/></svg>