<svg version="1.2" xmlns="http://www.w3.org/2000/svg" viewBox="0 0 1179 867" width="1179" height="867"><style>.a{fill:#21253a}.b{fill:#004688}.c{fill:#fff}.d{fill:#ff9c0e}.e{fill:#1a7fd3}.f{fill:#fcba5b}.g{fill:#ffd89f}.h{fill:#1f1c2b}.i{fill:#f4579c}.j{fill:#0067bf}.k{fill:#c0e9ff}.l{fill:#66b1f6}.m{fill:#6bc5ff}.n{fill:#4987e5}.o{fill:#68b1f6}</style><g style="display:none"><path class="a" d="m1179 924h-1920v-1080h1920z"/></g><g style="display:none"><path class="b" d="m-124.4 924l-29.2-29.2h-348.2l-27.2-27.3h-212v56.5z"/><path class="c" d="m-67 924l-15.5-15.5h-214.3l-22.9-22.9h-421.3v-2.2h422.2l22.9 22.9h214.4l17.7 17.7z"/><path fill-rule="evenodd" class="c" d="m-510 803.9c-4.1 0-7.5-3-8-7h-108.9l-37.2-37.1h-76.9v-2.3h77.8l37.2 37.2h108c0.5-4 3.9-7 8-7 4.5 0 8.1 3.6 8.1 8.1 0 4.5-3.6 8.1-8.1 8.1zm0-14c-3.2 0-5.9 2.7-5.9 5.9 0 3.3 2.7 5.9 5.9 5.9 3.2 0 5.9-2.6 5.9-5.9 0-3.2-2.7-5.9-5.9-5.9z"/></g><g style="display:none"><path class="b" d="m562.4 924l29.2-29.2h348.2l27.2-27.3h212v56.5z"/><path class="c" d="m505 924l15.5-15.5h214.3l22.9-22.9h421.3v-2.2h-422.2l-22.9 22.9h-214.4l-17.7 17.7z"/><path fill-rule="evenodd" class="c" d="m939.9 795.8c0-4.5 3.6-8.1 8.1-8.1 4.1 0 7.5 3 8 7h108l37.2-37.2h77.8v2.3h-76.9l-37.2 37.1h-108.9c-0.5 4-3.9 7-8 7-4.5 0-8.1-3.6-8.1-8.1zm2.2 0c0 3.3 2.7 5.9 5.9 5.9 3.2 0 5.9-2.6 5.9-5.9 0-3.2-2.7-5.9-5.9-5.9-3.2 0-5.9 2.7-5.9 5.9z"/></g><g style="display:none"><path class="b" d="m562.4-156l29.2 29.2h348.2l27.2 27.3h212v-56.5z"/><path class="c" d="m505-156l15.5 15.5h214.3l22.9 22.9h421.3v2.2h-422.2l-22.9-22.9h-214.4l-17.7-17.7z"/><path fill-rule="evenodd" class="c" d="m948 83.8c4.1 0 7.5 3 8 7h108.9l37.2 37.2h76.9v2.2h-77.8l-37.2-37.2h-108c-0.5 4-3.9 7-8 7-4.5 0-8.1-3.6-8.1-8.1 0-4.5 3.6-8.1 8.1-8.1zm0 14c3.2 0 5.9-2.6 5.9-5.9 0-3.2-2.7-5.9-5.9-5.9-3.2 0-5.9 2.7-5.9 5.9 0 3.3 2.7 5.9 5.9 5.9z"/></g><g style="display:none"><path class="b" d="m-124.4-156l-29.2 29.2h-348.2l-27.2 27.3h-212v-56.5z"/><path class="c" d="m-67-156l-15.5 15.5h-214.3l-22.9 22.9h-421.3v2.2h422.2l22.9-22.9h214.4l17.7-17.7z"/><path fill-rule="evenodd" class="c" d="m-501.9 68.7c0 4.5-3.6 8.1-8.1 8.1-4.1 0-7.5-3-8-7h-108l-37.2 37.2h-77.8v-2.2h76.9l37.2-37.2h108.9c0.5-4 3.9-7 8-7 4.5 0 8.1 3.6 8.1 8.1zm-2.2 0c0-3.2-2.7-5.9-5.9-5.9-3.2 0-5.9 2.7-5.9 5.9 0 3.2 2.7 5.9 5.9 5.9 3.2 0 5.9-2.7 5.9-5.9z"/></g><path fill-rule="evenodd" class="d" d="m891.8 269.5l13.2 11-12.7 22.1-16.1-6c-5.8 5.3-12.8 9.4-20.5 11.8l-2.9 17h-25.4l-2.9-17c-7.7-2.4-14.7-6.5-20.5-11.8l-16.1 6-12.7-22.1 13.2-11c-0.9-3.8-1.4-7.7-1.4-11.8 0-4.1 0.5-8 1.4-11.8l-13.2-11 12.7-22 16.1 6c5.8-5.4 12.8-9.5 20.5-11.9l2.9-16.9h25.4l2.9 16.9c7.7 2.4 14.7 6.5 20.5 11.9l16.1-6 12.7 22-13.2 11c0.9 3.8 1.3 7.7 1.3 11.8 0 4.1-0.4 8-1.3 11.8zm-27.5-11.8c0-13.4-10.8-24.2-24.2-24.2-13.4 0-24.2 10.8-24.2 24.2 0 13.4 10.8 24.2 24.2 24.2 13.4 0 24.2-10.8 24.2-24.2z"/><path fill-rule="evenodd" class="d" d="m986.5 222.7l11.7-1.1 4.6 17-10.8 4.9c-0.2 5.4-1.6 10.8-4.2 15.7l6.8 9.6-12.3 12.4-9.7-6.8c-4.9 2.6-10.3 4-15.7 4.2l-4.9 10.7-16.9-4.5 1.1-11.8q-3.5-2.1-6.4-5.1-3-2.9-5.1-6.4l-11.8 1.1-4.5-16.9 10.7-4.9c0.2-5.4 1.6-10.8 4.2-15.7l-6.8-9.7 12.4-12.3 9.6 6.8c4.9-2.6 10.3-4 15.7-4.2l4.9-10.8 17 4.6-1.2 11.7q3.5 2.2 6.5 5.1 2.9 3 5.1 6.4zm-19.2 7.7c-6.5-6.6-17-6.6-23.5 0-6.5 6.5-6.5 17 0 23.5 6.5 6.5 17 6.5 23.5 0 6.5-6.5 6.5-17 0-23.5z"/><path fill-rule="evenodd" class="d" d="m937.9 305.4l7.2-5.8 10.2 9.1-4.9 7.8c2.2 3.6 3.6 7.7 4 12l8.5 3.4-2.8 13.3-9.1-0.3c-2.1 3.8-5 7-8.5 9.4l1.4 9.1-12.9 4.3-4.3-8.2q-3.2 0.1-6.4-0.5-3.2-0.7-6-2l-7.2 5.7-10.2-9.1 4.9-7.8c-2.2-3.6-3.5-7.7-3.9-12l-8.6-3.3 2.8-13.4 9.2 0.4c2-3.8 5-7 8.4-9.5l-1.4-9.1 13-4.2 4.3 8.1q3.1-0.1 6.3 0.6 3.2 0.7 6 2zm-9.1 13.1c-7.1-1.5-13.9 3-15.4 10-1.4 7 3.1 13.9 10.1 15.4 7 1.4 13.8-3.1 15.3-10.1 1.5-7-3-13.9-10-15.3z"/><path fill-rule="evenodd" class="d" d="m384.1 332.6l13.2 10.9-12.7 22.1-16.1-6c-5.8 5.4-12.8 9.5-20.5 11.8l-2.9 17h-25.4l-2.9-17c-7.7-2.3-14.7-6.4-20.5-11.8l-16.1 6-12.7-22.1 13.2-10.9c-0.9-3.8-1.3-7.8-1.3-11.9 0-4 0.4-8 1.3-11.8l-13.2-10.9 12.7-22.1 16.1 6c5.8-5.4 12.8-9.5 20.5-11.9l2.9-16.9h25.4l2.9 16.9c7.7 2.4 14.7 6.5 20.5 11.9l16.1-6 12.7 22.1-13.2 10.9c0.9 3.8 1.4 7.8 1.4 11.8 0 4.1-0.5 8.1-1.4 11.9zm-27.5-11.9c0-13.3-10.8-24.2-24.2-24.2-13.4 0-24.2 10.9-24.2 24.2 0 13.4 10.8 24.3 24.2 24.3 13.4 0 24.2-10.9 24.2-24.3z"/><path fill-rule="evenodd" class="d" d="m442.4 245l9.1 7.5-8.7 15.2-11.1-4.2c-4 3.7-8.8 6.6-14.1 8.2l-2 11.6h-17.5l-2-11.6c-5.3-1.6-10.1-4.5-14.1-8.2l-11.1 4.2-8.7-15.2 9.1-7.5q-0.9-4-0.9-8.2 0-4.2 0.9-8.1l-9.1-7.6 8.7-15.1 11.1 4.1c4-3.7 8.8-6.5 14.1-8.2l2-11.6h17.5l2 11.6c5.3 1.7 10.1 4.5 14.1 8.2l11.1-4.1 8.7 15.1-9.1 7.6q0.9 3.9 0.9 8.1 0 4.2-0.9 8.2zm-18.9-8.2c0-9.2-7.4-16.6-16.6-16.6-9.2 0-16.7 7.4-16.7 16.6 0 9.2 7.5 16.7 16.7 16.7 9.2 0 16.6-7.5 16.6-16.7z"/><path class="e" d="m288.7 461.8h-4.2v-7h4.2z"/><path class="d" d="m275.2 636.7h-13.9v-4.2h13.9zm-26.5 0h-11.4q-1.7 0-3.2-0.6l1.5-4q0.8 0.3 1.7 0.3h11.4zm-16.4-13.1h-4.2v-14h4.2zm0-26.5h-4.2v-13.9h4.2zm0-26.5h-4.2v-14h4.2zm0-26.5h-4.2v-13.9h4.2zm1.1-24.8l-3.3-2.7c1.8-2.2 4.4-3.4 7.2-3.4h7.6v4.2h-7.6c-1.5 0-2.9 0.7-3.9 1.9zm38-1.9h-13.9v-4.2h13.9zm13.5-1.8l-2.5-3.4c1.3-1 2.1-2.4 2.1-4v-7.3h4.2v7.3c0 2.9-1.4 5.7-3.8 7.4zm3.8-27.3h-4.2v-13.9h4.2z"/><path class="e" d="m294.9 636.7h-7.1v-4.2h7.1z"/><path class="e" d="m316.2 410.7h-4.3v-7.1h4.3z"/><path class="d" d="m316.2 391.3h-4.3v-13.8h4.3zm0-26.1h-4.3v-13.7h4.3zm0-26.1h-4.3v-13.7h4.3zm0-26.1h-4.3v-13.8h4.3zm0-26h-4.3v-13.8h4.3zm0-26.1h-4.3v-13.7h4.3zm3.6-21.7l-1.2-4.1q1.2-0.3 2.5-0.3h11.8v4.2h-11.8q-0.7 0-1.3 0.2zm248-0.2h-13.8v-4.2h13.8zm-26.1 0h-13.8v-4.3h13.8zm-26.1 0h-13.8v-4.2h13.8zm-26.1 0h-13.8v-4.3h13.8zm-26.1 0h-13.8v-4.2h13.8zm-26.1 0h-13.7v-4.2h13.7zm-26.1 0h-13.7v-4.3h13.7zm-26.1 0h-13.7v-4.2h13.7zm-26.1 0h-13.7v-4.3h13.7z"/><path class="e" d="m587.2 238.9h-7.1v-4.2h7.1z"/><path class="d" d="m985.3 334.8h-4.3v-12.4h4.3zm0-25.1h-4.3v-14.2h4.3zm0-26.9h-4.3v-14.1h4.3zm0-26.9h-4.3v-14.2h4.3zm-10-16.9h-14.1v-4.3h14.1zm-26.9 0h-14.1v-4.2h14.1zm-26.9 0h-14.1v-4.3h14.1zm-26.9 0h-14.1v-4.2h14.1zm-26.9 0h-14.1v-4.3h14.1zm-26.9 0h-14.2v-4.2h14.2zm-26.9 0h-14.2v-4.3h14.2zm-26.9 0h-14.2v-4.2h14.2zm-26.9 0h-14.2v-4.3h14.2zm-26.9 0h-14.2v-4.2h14.2z"/><path class="d" d="m965 461.9h-4.2v-14.1h4.2zm0-26.9h-4.2v-14.2h4.2zm20.3-14.4h-12v-4.2h7.7v-2.2h4.3zm0-19.2h-4.3v-14.2h4.3z"/><path class="f" d="m754.4 719.5h-226.5v-11.4h226.5z"/><path class="g" d="m710.6 708.1h-138.9l19-65.1h100.8z"/><path class="d" d="m691.5 643h-100.8l-6 20.5h112.9z"/><path class="d" d="m906.4 264.9c0-7.8-6.4-14.2-14.2-14.2h-504.1c-7.8 0-14.2 6.4-14.2 14.2v321.4h532.5z"/><path class="h" d="m380.6 586.3v-321.4c0-4.7 3.8-8.5 8.5-8.5h504.1c4.7 0 8.5 3.8 8.5 8.5v321.4z"/><path class="g" d="m374.9 586.3v42.5c0 7.8 6.4 14.2 14.2 14.2h504.1c7.8 0 14.2-6.4 14.2-14.2v-42.5z"/><path class="d" d="m653.4 614.7c0 6.7-5.5 12.2-12.3 12.2-6.7 0-12.2-5.5-12.2-12.2 0-6.8 5.5-12.3 12.2-12.3 6.8 0 12.3 5.5 12.3 12.3z"/><path class="g" d="m889 269.1h-495.7v17h495.7z"/><path class="c" d="m393.3 286.1v287.5h495.7v-287.5z"/><path class="i" d="m407.9 277.6c0 2.4-1.9 4.2-4.2 4.2-2.3 0-4.2-1.8-4.2-4.2 0-2.3 1.9-4.1 4.2-4.1 2.3 0 4.2 1.8 4.2 4.1z"/><path class="c" d="m419.2 277.6c0 2.4-1.8 4.2-4.2 4.2-2.3 0-4.1-1.8-4.1-4.2 0-2.3 1.8-4.1 4.1-4.1 2.4 0 4.2 1.8 4.2 4.1z"/><path class="j" d="m430.5 277.6c0 2.4-1.8 4.2-4.2 4.2-2.3 0-4.1-1.8-4.1-4.2 0-2.3 1.8-4.1 4.1-4.1 2.4 0 4.2 1.8 4.2 4.1z"/><path class="g" d="m674.9 427.2h-254.9c-3.9 0-7.1-3.1-7.1-7.1v-111.2c0-3.9 3.2-7.1 7.1-7.1h254.9c3.9 0 7.1 3.2 7.1 7.1v111.2c0 4-3.2 7.1-7.1 7.1z"/><path class="g" d="m784.4 360.9h-86.9c-3.9 0-7-3.2-7-7.1v-44.9c0-3.9 3.1-7.1 7-7.1h86.9c3.9 0 7.1 3.2 7.1 7.1v44.9c0 3.9-3.2 7.1-7.1 7.1z"/><path class="d" d="m762.4 327.2l-12.3 17.5-21.4-30.4-25.8 36.5h42.9 8.6 24.6z"/><path class="d" d="m756.4 317.6c0 3.2-2.6 5.8-5.8 5.8-3.2 0-5.7-2.6-5.7-5.8 0-3.1 2.5-5.7 5.7-5.7 3.2 0 5.8 2.6 5.8 5.7z"/><path class="g" d="m784.4 427.2h-86.9c-3.9 0-7-3.1-7-7.1v-44.9c0-3.9 3.1-7.1 7-7.1h86.9c3.9 0 7.1 3.2 7.1 7.1v44.9c0 4-3.2 7.1-7.1 7.1z"/><path class="c" d="m762.9 397.7c0 12.1-9.8 21.9-21.9 21.9-12.1 0-22-9.8-22-21.9 0-12.2 9.9-22 22-22 12.1 0 21.9 9.8 21.9 22z"/><path class="d" d="m753.8 397.7l-20.9-12.1v24.1z"/><path class="g" d="m865.2 427.2h-57c-3.9 0-7-3.1-7-7.1v-111.2c0-3.9 3.1-7.1 7-7.1h57c3.9 0 7.1 3.2 7.1 7.1v111.2c0 4-3.2 7.1-7.1 7.1z"/><path fill-rule="evenodd" class="c" d="m856.2 351.8c-0.9 0.8-2.2 0.8-3 0l-11-10.9c-6.2 4.7-15.2 4.3-20.9-1.4-6.2-6.2-6.2-16.3 0-22.5 6.2-6.2 16.3-6.2 22.5 0 5.7 5.7 6.2 14.6 1.4 20.9l11 10.9c0.8 0.8 0.8 2.2 0 3zm-15.4-31.8c-4.5-4.6-11.9-4.6-16.5 0-4.5 4.5-4.5 11.9 0 16.5 4.6 4.5 12 4.5 16.5 0 4.6-4.6 4.6-12 0-16.5z"/><path class="d" d="m836.7 367.1h-26.6v-4.8h26.6z"/><path class="d" d="m863.6 373.9h-53.5v-2.9h53.5z"/><path class="d" d="m863.6 378.8h-53.5v-2.8h53.5z"/><path class="d" d="m843.4 383.8h-33.3v-2.9h33.3z"/><path class="d" d="m863.6 391.2h-53.5v-2.8h53.5z"/><path class="d" d="m863.6 396.2h-53.5v-2.9h53.5z"/><path class="d" d="m863.6 401.1h-53.5v-2.8h53.5z"/><path class="d" d="m823.4 406.1h-13.3v-2.9h13.3z"/><path class="d" d="m863.6 413.6h-53.5v-2.9h53.5z"/><path class="d" d="m852.6 418.5h-42.5v-2.8h42.5z"/><path class="d" d="m456.7 441.4h-43.8v-2.8h43.8z"/><path class="d" d="m547.4 446.9h-134.5v-2.9h134.5z"/><path class="d" d="m547.4 452.4h-134.5v-2.9h134.5z"/><path class="d" d="m547.4 457.9h-134.5v-2.9h134.5z"/><path class="d" d="m509.8 463.4h-96.9v-2.9h96.9z"/><path class="d" d="m652.5 441.4h-78.6v-2.8h78.6z"/><path class="d" d="m708.4 446.9h-134.5v-2.9h134.5z"/><path class="d" d="m604 452.4h-30.1v-2.9h30.1z"/><path class="d" d="m708.4 457.9h-134.5v-2.9h134.5z"/><path class="d" d="m625.2 463.4h-51.3v-2.9h51.3z"/><path class="d" d="m791.5 441.4h-56.7v-2.8h56.7z"/><path class="d" d="m869.4 446.9h-134.6v-2.9h134.6z"/><path class="d" d="m869.4 452.4h-134.6v-2.9h134.6z"/><path class="d" d="m869.4 457.9h-134.6v-2.9h134.6z"/><path class="d" d="m762.9 463.4h-28.1v-2.9h28.1z"/><path class="d" d="m498.6 538.6h-85.7v-2.9h85.7z"/><path class="d" d="m547.4 544.1h-134.5v-2.9h134.5z"/><path class="d" d="m547.4 549.6h-134.5v-2.9h134.5z"/><path class="d" d="m547.4 555h-134.5v-2.8h134.5z"/><path class="d" d="m455.8 560.5h-42.9v-2.8h42.9z"/><path class="d" d="m600.5 538.6h-26.6v-2.9h26.6z"/><path class="d" d="m708.4 544.1h-134.5v-2.9h134.5z"/><path class="d" d="m708.4 549.6h-134.5v-2.9h134.5z"/><path class="d" d="m708.4 555h-134.5v-2.8h134.5z"/><path class="d" d="m661.7 560.5h-87.8v-2.8h87.8z"/><path class="d" d="m807.5 538.6h-72.7v-2.9h72.7z"/><path class="d" d="m869.4 544.1h-134.6v-2.9h134.6z"/><path class="d" d="m869.4 549.6h-134.6v-2.9h134.6z"/><path class="d" d="m869.4 555h-134.6v-2.8h134.6z"/><path class="d" d="m822 560.5h-87.2v-2.8h87.2z"/><path class="g" d="m550.5 527.8h-130.5c-3.9 0-7.1-3.2-7.1-7.1v-38.2c0-3.9 3.2-7.1 7.1-7.1h130.5c3.9 0 7.1 3.2 7.1 7.1v38.2c0 3.9-3.2 7.1-7.1 7.1z"/><path class="g" d="m706.4 527.8h-130.5c-3.9 0-7.1-3.2-7.1-7.1v-38.2c0-3.9 3.2-7.1 7.1-7.1h130.5c3.9 0 7.1 3.2 7.1 7.1v38.2c0 3.9-3.2 7.1-7.1 7.1z"/><path class="g" d="m862.3 527.8h-130.5c-3.9 0-7.1-3.2-7.1-7.1v-38.2c0-3.9 3.2-7.1 7.1-7.1h130.5c3.9 0 7.1 3.2 7.1 7.1v38.2c0 3.9-3.2 7.1-7.1 7.1z"/><path class="c" d="m420 513.6v-24.1c0-3.9 3.2-7 7.1-7h51.1c3.9 0 7.1 3.1 7.1 7v24.1c0 3.9-3.2 7.1-7.1 7.1h-51.1c-3.9 0-7.1-3.2-7.1-7.1z"/><path class="d" d="m467.7 498.7l-8.6 12.3-15.2-21.4-18.1 25.7h30.2 6.1 17.3z"/><path class="d" d="m463.5 491.9c0 2.3-1.8 4.1-4.1 4.1-2.2 0-4-1.8-4-4.1 0-2.2 1.8-4 4-4 2.3 0 4.1 1.8 4.1 4z"/><path class="c" d="m574.9 513.6v-24.1c0-3.9 3.1-7 7.1-7h51.1c3.9 0 7 3.1 7 7v24.1c0 3.9-3.1 7.1-7 7.1h-51.1c-4 0-7.1-3.2-7.1-7.1z"/><path class="d" d="m622.6 498.7l-8.7 12.3-15.1-21.4-18.1 25.7h30.2 6.1 17.3z"/><path class="d" d="m618.4 491.9c0 2.3-1.9 4.1-4.1 4.1-2.2 0-4-1.8-4-4.1 0-2.2 1.8-4 4-4 2.2 0 4.1 1.8 4.1 4z"/><path class="c" d="m642.1 513.6v-24.1c0-3.9 3.2-7 7.1-7h51.1c3.9 0 7.1 3.1 7.1 7v24.1c0 3.9-3.2 7.1-7.1 7.1h-51.1c-3.9 0-7.1-3.2-7.1-7.1z"/><path class="g" d="m686.8 501.6c0 6.6-5.4 12.1-12 12.1-6.7 0-12.1-5.5-12.1-12.1 0-6.7 5.4-12.1 12.1-12.1 6.6 0 12 5.4 12 12.1z"/><path class="d" d="m681.8 501.6l-11.5-6.7v13.3z"/><path class="d" d="m512.6 491.9h-18.3v-2.8h18.3z"/><path class="d" d="m550.5 497.4h-56.2v-2.9h56.2z"/><path class="d" d="m550.5 502.9h-56.2v-2.9h56.2z"/><path class="d" d="m550.5 508.4h-56.2v-2.9h56.2z"/><path class="d" d="m534.8 513.9h-40.5v-2.9h40.5z"/><path class="c" d="m731.8 513.6v-24.1c0-3.9 3.1-7 7-7h51.1c4 0 7.1 3.1 7.1 7v24.1c0 3.9-3.1 7.1-7.1 7.1h-51.1c-3.9 0-7-3.2-7-7.1z"/><path class="d" d="m779.5 498.7l-8.7 12.3-15.1-21.4-18.1 25.7h30.2 6.1 17.3z"/><path class="d" d="m775.2 491.9c0 2.3-1.8 4.1-4 4.1-2.2 0-4.1-1.8-4.1-4.1 0-2.2 1.9-4 4.1-4 2.2 0 4 1.8 4 4z"/><path class="d" d="m846.6 491.9h-40.5v-2.8h40.5z"/><path class="d" d="m862.3 497.4h-56.2v-2.9h56.2z"/><path class="d" d="m834.2 502.9h-28.1v-2.9h28.1z"/><path class="d" d="m862.3 508.4h-56.2v-2.9h56.2z"/><path class="d" d="m846.6 513.9h-40.5v-2.9h40.5z"/><path class="c" d="m407 618.6h-120.4v-71.9h120.4z"/><path class="d" d="m407 546.7l-120.4 71.9h120.4z"/><path class="g" d="m341.9 609.8l-9.5-11.3h-58.1v11.3 7.3 79.6h144.9v-86.9z"/><path class="g" d="m1021 445.4h-116.1c-3.9 0-7.1 3.1-7.1 7v80.4l-41 23.7 41 23.7v74.6c0 3.9 3.2 7.1 7.1 7.1h116.1c3.9 0 7.1-3.2 7.1-7.1v-202.4c0-3.9-3.2-7-7.1-7z"/><path class="c" d="m973.2 588v-66c9.6-4 16.3-13.4 16.3-24.5 0-11-6.7-20.4-16.3-24.4v20c0 5.7-4.6 10.3-10.3 10.3-5.6 0-10.2-4.6-10.2-10.3v-20c-9.6 4-16.3 13.4-16.3 24.4 0 11.1 6.7 20.5 16.3 24.5v66c-6.3 3.5-10.5 10.2-10.5 17.9 0 8.8 5.5 16.3 13.2 19.3v-16.3c0-4.1 3.4-7.5 7.5-7.5 4.2 0 7.5 3.4 7.5 7.5v16.3c7.7-3 13.2-10.5 13.2-19.3 0-7.7-4.2-14.4-10.4-17.9z"/><path class="d" d="m962.9 588.8c-2.5 0-4.5-2-4.5-4.5v-58.3c0-2.5 2-4.5 4.5-4.5 2.5 0 4.5 2 4.5 4.5v58.3c0 2.5-2 4.5-4.5 4.5z"/><path class="g" d="m422.2 440l-24.3-14.1v-31.6c0-3.9-3.2-7-7.1-7h-153.5c-3.9 0-7.1 3.1-7.1 7v88.5c0 3.9 3.2 7 7.1 7h153.5c3.9 0 7.1-3.1 7.1-7v-28.8z"/><path class="c" d="m289.6 438.6c0 5.2-4.2 9.4-9.4 9.4-5.2 0-9.4-4.2-9.4-9.4 0-5.2 4.2-9.5 9.4-9.5 5.2 0 9.4 4.3 9.4 9.5z"/><path class="c" d="m323.4 438.6c0 5.2-4.2 9.4-9.4 9.4-5.2 0-9.4-4.2-9.4-9.4 0-5.2 4.2-9.5 9.4-9.5 5.2 0 9.4 4.3 9.4 9.5z"/><path class="c" d="m357.3 438.6c0 5.2-4.2 9.4-9.4 9.4-5.2 0-9.4-4.2-9.4-9.4 0-5.2 4.2-9.5 9.4-9.5 5.2 0 9.4 4.3 9.4 9.5z"/><path class="g" d="m983.3 387.4c31.1 0 56.3-25.2 56.3-56.2 0-31.1-25.2-56.3-56.3-56.3-26.2 0-48.3 18.1-54.5 42.4l-23.9 13.9 23.9 13.8c6.2 24.4 28.3 42.4 54.5 42.4z"/><path class="c" d="m1012.3 310.4c-6.9-7-18.1-7-25 0l-4.1 4-4.1-4c-6.9-7-18.1-7-25.1 0-6.9 6.9-6.9 18.1 0 25l4.1 4.1 25.1 25 29.1-29.1c6.9-6.9 6.9-18.1 0-25z"/><path class="d" d="m993.5 722.3c0-1.6-1.3-2.8-2.9-2.8h-698.9c-1.6 0-2.9 1.2-2.9 2.8 0 1.6 1.3 2.9 2.9 2.9h93.9c1.6 0 2.9 1.3 2.9 2.9 0 1.6-1.3 2.9-2.9 2.9h-53.6c-1.6 0-2.9 1.3-2.9 2.9 0 1.6 1.3 2.9 2.9 2.9h573.1c1.6 0 2.9-1.3 2.9-2.9 0-1.6-1.3-2.9-2.9-2.9h-42.1c-1.6 0-2.9-1.3-2.9-2.9 0-1.6 1.3-2.9 2.9-2.9h127.6c1.6 0 2.9-1.3 2.9-2.9z"/><path class="d" d="m275.6 725.2h-23.3c-1.6 0-2.9-1.3-2.9-2.9 0-1.6 1.3-2.8 2.9-2.8h23.3c1.6 0 2.9 1.2 2.9 2.8 0 1.6-1.3 2.9-2.9 2.9z"/><path class="d" d="m972.3 736.8h-52.1c-1.6 0-2.9-1.3-2.9-2.9 0-1.6 1.3-2.9 2.9-2.9h52.1c1.6 0 2.9 1.3 2.9 2.9 0 1.6-1.3 2.9-2.9 2.9z"/><path class="d" d="m316.4 736.8h-12.2c-1.6 0-2.9-1.3-2.9-2.9 0-1.6 1.3-2.9 2.9-2.9h12.2c1.6 0 2.9 1.3 2.9 2.9 0 1.6-1.3 2.9-2.9 2.9z"/><path class="d" d="m1028 725.2h-9.1c-1.6 0-2.9-1.3-2.9-2.9 0-1.6 1.3-2.8 2.9-2.8h9.1c1.6 0 2.9 1.2 2.9 2.8 0 1.6-1.3 2.9-2.9 2.9z"/><path class="c" d="m703.2 200h-5c-9.3-23.4-32.1-40-58.8-40-33 0-60.1 25.4-62.9 57.7h-6.3c-12.1 0-22 9.9-22 22 0 12.2 9.9 22 22 22h19.2 41.7 20.1 38.3 13.7c17 0 30.9-13.8 30.9-30.9 0-17-13.9-30.8-30.9-30.8z"/><path class="g" d="m679.6 240.9l-38.5-46-38.4 46h19.8v30.7h37.3v-30.7z"/><path fill-rule="evenodd" class="d" d="m528.8 79.2c-5.4 0-9.7-4.3-9.7-9.7 0-5.4 4.3-9.7 9.7-9.7 5.3 0 9.7 4.3 9.7 9.7 0 5.4-4.4 9.7-9.7 9.7zm0-16.4c-3.7 0-6.7 3-6.7 6.7 0 3.7 3 6.7 6.7 6.7 3.7 0 6.7-3 6.7-6.7 0-3.7-3-6.7-6.7-6.7z"/><path fill-rule="evenodd" class="d" d="m556.9 52.5c-3.3 0-6-2.7-6-6 0-3.4 2.7-6 6-6 3.4 0 6.1 2.6 6.1 6 0 3.3-2.7 6-6.1 6zm0-9c-1.6 0-3 1.3-3 3 0 1.6 1.4 3 3 3 1.7 0 3.1-1.4 3.1-3 0-1.7-1.4-3-3.1-3z"/><path fill-rule="evenodd" class="d" d="m532.9 37.7c-3.1 0-5.6-2.5-5.6-5.6 0-3.1 2.5-5.6 5.6-5.6 3.1 0 5.6 2.5 5.6 5.6 0 3.1-2.5 5.6-5.6 5.6zm0-8.2c-1.5 0-2.6 1.1-2.6 2.6 0 1.4 1.1 2.6 2.6 2.6 1.4 0 2.6-1.2 2.6-2.6 0-1.5-1.2-2.6-2.6-2.6z"/><path fill-rule="evenodd" class="d" d="m1066.4 344c-6.1 0-11.1-5-11.1-11.1 0-6 5-11 11.1-11 6.1 0 11 5 11 11 0 6.1-4.9 11.1-11 11.1zm0-19.1c-4.5 0-8.1 3.6-8.1 8 0 4.5 3.6 8.1 8.1 8.1 4.4 0 8-3.6 8-8.1 0-4.4-3.6-8-8-8z"/><path fill-rule="evenodd" class="d" d="m1094.6 245.4c-5.7 0-10.3-4.6-10.3-10.3 0-5.6 4.6-10.2 10.3-10.2 5.6 0 10.2 4.6 10.2 10.2 0 5.7-4.6 10.3-10.2 10.3zm0-17.5c-4 0-7.3 3.3-7.3 7.2 0 4 3.3 7.3 7.3 7.3 4 0 7.2-3.3 7.2-7.3 0-3.9-3.2-7.2-7.2-7.2z"/><path fill-rule="evenodd" class="d" d="m1105.2 454.9c-6.7 0-12.1-5.4-12.1-12.1 0-6.7 5.4-12.1 12.1-12.1 6.6 0 12.1 5.4 12.1 12.1 0 6.7-5.5 12.1-12.1 12.1zm0-21.2c-5 0-9.1 4.1-9.1 9.1 0 5 4.1 9.1 9.1 9.1 5 0 9.1-4.1 9.1-9.1 0-5-4.1-9.1-9.1-9.1z"/><path fill-rule="evenodd" class="d" d="m177 534.1c-7.5 0-13.6-6.1-13.6-13.6 0-7.5 6.1-13.6 13.6-13.6 7.5 0 13.6 6.1 13.6 13.6 0 7.5-6.1 13.6-13.6 13.6zm0-24.2c-5.9 0-10.6 4.8-10.6 10.6 0 5.9 4.7 10.6 10.6 10.6 5.8 0 10.6-4.7 10.6-10.6 0-5.8-4.8-10.6-10.6-10.6z"/><path fill-rule="evenodd" class="d" d="m177 359.6c-4.9 0-8.8-3.9-8.8-8.8 0-4.9 3.9-8.8 8.8-8.8 4.9 0 8.8 3.9 8.8 8.8 0 4.9-3.9 8.8-8.8 8.8zm0-14.6c-3.2 0-5.8 2.6-5.8 5.8 0 3.2 2.6 5.8 5.8 5.8 3.2 0 5.8-2.6 5.8-5.8 0-3.2-2.6-5.8-5.8-5.8z"/><path fill-rule="evenodd" class="d" d="m250.1 168c-6.2 0-11.3-5.1-11.3-11.3 0-6.3 5.1-11.4 11.3-11.4 6.3 0 11.3 5.1 11.3 11.4 0 6.2-5 11.3-11.3 11.3zm0-19.7c-4.6 0-8.3 3.8-8.3 8.4 0 4.6 3.7 8.3 8.3 8.3 4.6 0 8.3-3.7 8.3-8.3 0-4.6-3.7-8.4-8.3-8.4z"/><path fill-rule="evenodd" class="d" d="m206.3 171.6c-4.1 0-7.5-3.3-7.5-7.4 0-4.1 3.4-7.4 7.5-7.4 4.1 0 7.4 3.3 7.4 7.4 0 4.1-3.3 7.4-7.4 7.4zm0-11.8c-2.5 0-4.5 1.9-4.5 4.4 0 2.4 2 4.4 4.5 4.4 2.4 0 4.4-2 4.4-4.4 0-2.5-2-4.4-4.4-4.4z"/><path fill-rule="evenodd" class="d" d="m242.4 109.6c-5.8 0-10.4-4.7-10.4-10.4 0-5.7 4.6-10.4 10.4-10.4 5.7 0 10.4 4.7 10.4 10.4 0 5.7-4.7 10.4-10.4 10.4zm0-17.8c-4.1 0-7.4 3.3-7.4 7.4 0 4.1 3.3 7.4 7.4 7.4 4.1 0 7.4-3.3 7.4-7.4 0-4.1-3.3-7.4-7.4-7.4z"/><path fill-rule="evenodd" class="d" d="m72.7 649.9c-4.6 0-8.3-3.7-8.3-8.3 0-4.6 3.7-8.3 8.3-8.3 4.5 0 8.3 3.7 8.3 8.3 0 4.6-3.8 8.3-8.3 8.3zm0-13.6c-3 0-5.3 2.4-5.3 5.3 0 2.9 2.3 5.3 5.3 5.3 2.9 0 5.3-2.4 5.3-5.3 0-2.9-2.4-5.3-5.3-5.3z"/><path fill-rule="evenodd" class="d" d="m155.7 809.7c-5.2 0-9.3-4.1-9.3-9.3 0-5.1 4.1-9.3 9.3-9.3 5.1 0 9.3 4.2 9.3 9.3 0 5.2-4.2 9.3-9.3 9.3zm0-15.6c-3.5 0-6.3 2.9-6.3 6.3 0 3.5 2.8 6.3 6.3 6.3 3.4 0 6.3-2.8 6.3-6.3 0-3.4-2.9-6.3-6.3-6.3z"/><path fill-rule="evenodd" class="d" d="m713.3 850.4c-6 0-10.9-4.9-10.9-10.9 0-6.1 4.9-11 10.9-11 6 0 10.9 4.9 10.9 11 0 6-4.9 10.9-10.9 10.9zm0-18.9c-4.4 0-7.9 3.6-7.9 8 0 4.3 3.5 7.9 7.9 7.9 4.4 0 7.9-3.6 7.9-7.9 0-4.4-3.5-8-7.9-8z"/><path fill-rule="evenodd" class="d" d="m1141.3 678.1c-5.5 0-10.1-4.5-10.1-10.1 0-5.6 4.6-10.2 10.1-10.2 5.6 0 10.2 4.6 10.2 10.2 0 5.6-4.6 10.1-10.2 10.1zm0-17.3c-3.9 0-7.1 3.2-7.1 7.2 0 3.9 3.2 7.1 7.1 7.1 4 0 7.2-3.2 7.2-7.1 0-4-3.2-7.2-7.2-7.2z"/><path fill-rule="evenodd" class="d" d="m118.8 593.3h-19.1l9.5-16.5zm-13.9-3h8.7l-4.3-7.5z"/><path fill-rule="evenodd" class="d" d="m40.2 741.6h-31.1l15.6-26.9zm-26-3h20.8l-10.4-18z"/><path fill-rule="evenodd" class="d" d="m312.2 816.3h-27.9l13.9-24.2zm-22.7-3h17.5l-8.7-15.2z"/><path fill-rule="evenodd" class="d" d="m787.4 806.8h-35.4l17.7-30.6zm-30.2-3h25l-12.5-21.6z"/><path fill-rule="evenodd" class="d" d="m1103.6 612h-27.7l13.9-24.1zm-22.6-3h17.4l-8.7-15z"/><path fill-rule="evenodd" class="d" d="m1113.7 375.4h-20.7l10.3-17.9zm-15.5-3h10.3l-5.1-9z"/><path fill-rule="evenodd" class="d" d="m1145.8 269h-30l15-26zm-24.8-3h19.6l-9.8-17z"/><path fill-rule="evenodd" class="d" d="m679.5 76.6h-24.6l12.3-21.3zm-19.4-3h14.2l-7.1-12.3z"/><path fill-rule="evenodd" class="d" d="m438.7 64.7h-22.1l11-19.2zm-16.9-3h11.8l-5.9-10.1z"/><g style="display:none"><path class="c" d="m-314-43v6h-8.1v-6h-2v14h2v-6.2h8.1v6.2h2v-14zm12.5 14.2c4.2 0 7.4-3.1 7.4-7.2 0-4.1-3.2-7.2-7.4-7.2-4.3 0-7.5 3.1-7.5 7.2 0 4.1 3.2 7.2 7.5 7.2zm0-1.8c-3.2 0-5.5-2.3-5.5-5.4 0-3.1 2.3-5.4 5.5-5.4 3.1 0 5.4 2.3 5.4 5.4 0 3.1-2.3 5.4-5.4 5.4zm25.4 1.6l-0.1-14h-1.6l-5.8 9.8-5.8-9.8h-1.6v14h1.9v-10.1l5 8.4h1l5-8.5v10.2zm6.2-1.7v-4.6h7.1v-1.7h-7.1v-4.3h7.9v-1.7h-9.9v14h10.2v-1.7z"/><path class="c" d="m-152.3-43v10.4l-8.4-10.4h-1.6v14h2v-10.4l8.4 10.4h1.6v-14zm8.2 12.3v-4.6h7.1v-1.7h-7.1v-4.3h7.9v-1.7h-9.9v14h10.2v-1.7zm29.1-12.3l-3.9 11.4-3.8-11.4h-1.9l-3.9 11.4-3.8-11.4h-2.1l4.7 14h2.2l3.8-11.2 3.8 11.2h2.1l4.7-14zm8.4 14.2c3.7 0 5.4-1.9 5.4-4 0-5.2-8.5-3-8.5-6.4 0-1.3 1.1-2.3 3.4-2.3 1.3 0 2.7 0.4 3.9 1.2l0.6-1.6c-1.1-0.8-2.8-1.3-4.5-1.3-3.6 0-5.3 1.9-5.3 4 0 5.2 8.5 3.1 8.5 6.5 0 1.2-1.1 2.2-3.5 2.2-1.8 0-3.6-0.7-4.6-1.7l-0.8 1.6c1.2 1 3.3 1.8 5.4 1.8z"/><path class="c" d="m10.1-29h2.1l-6.3-14h-2l-6.3 14h2l1.6-3.5h7.4zm-8.3-5.1l3-6.9 3.1 6.9zm17.9-8.9h-5.5v14h2v-4.2h3.5c3.6 0 5.8-1.9 5.8-4.9 0-3.1-2.2-4.9-5.8-4.9zm-0.1 8h-3.4v-6.3h3.4c2.6 0 3.9 1.2 3.9 3.2 0 2-1.3 3.1-3.9 3.1zm14.3-8h-5.4v14h2v-4.2h3.4c3.7 0 5.9-1.9 5.9-4.9 0-3.1-2.2-4.9-5.9-4.9zm0 8h-3.4v-6.3h3.4c2.5 0 3.9 1.2 3.9 3.2 0 2-1.4 3.1-3.9 3.1z"/><path class="c" d="m143.1-29h2.1l-6.4-14h-1.9l-6.4 14h2.1l1.5-3.5h7.5zm-8.3-5.1l3-6.9 3 6.9zm21.9-2.2c1.1-0.5 1.9-1.6 1.9-3.1 0-2.2-1.8-3.6-5-3.6h-6.3v14h6.7c3.5 0 5.3-1.4 5.3-3.8 0-1.8-1-3-2.6-3.5zm-3.3-5.1c2 0 3.2 0.8 3.2 2.3 0 1.4-1.2 2.2-3.2 2.2h-4.1v-4.5zm0.5 10.8h-4.6v-4.7h4.6c2.2 0 3.4 0.7 3.4 2.4 0 1.6-1.2 2.3-3.4 2.3zm14.8 1.8c4.3 0 7.5-3.1 7.5-7.2 0-4.1-3.2-7.2-7.5-7.2-4.3 0-7.4 3.1-7.4 7.2 0 4.1 3.1 7.2 7.4 7.2zm0-1.8c-3.1 0-5.4-2.3-5.4-5.4 0-3.1 2.3-5.4 5.4-5.4 3.1 0 5.5 2.3 5.5 5.4 0 3.1-2.4 5.4-5.5 5.4zm16.3 1.8c3.7 0 5.9-2.2 5.9-6.2v-8h-1.9v7.9c0 3.1-1.4 4.5-4 4.5-2.5 0-3.9-1.4-3.9-4.5v-7.9h-2v8c0 4 2.2 6.2 5.9 6.2zm12.6-0.2h1.9v-12.3h4.8v-1.7h-11.5v1.7h4.8zm20.1 0.2c3.7 0 5.9-2.1 5.9-6.2v-8h-1.9v7.9c0 3.1-1.5 4.5-4 4.5-2.5 0-3.9-1.4-3.9-4.5v-7.9h-2v8c0 4.1 2.2 6.2 5.9 6.2zm14.1 0c3.7 0 5.4-1.8 5.4-4 0-5.1-8.5-3-8.5-6.4 0-1.2 1.1-2.2 3.4-2.2 1.3 0 2.7 0.3 3.9 1.1l0.6-1.6c-1.1-0.8-2.8-1.2-4.5-1.2-3.6 0-5.3 1.8-5.3 4 0 5.2 8.5 3 8.5 6.4 0 1.3-1.1 2.2-3.5 2.2-1.8 0-3.6-0.7-4.6-1.6l-0.8 1.5c1.2 1.1 3.3 1.8 5.4 1.8z"/><path class="c" d="m345.7-28.8c2.1 0 4-0.8 5.3-2.2l-1.3-1.3c-1.1 1.1-2.4 1.7-3.9 1.7-3.2 0-5.5-2.3-5.5-5.4 0-3.1 2.3-5.4 5.5-5.4 1.5 0 2.8 0.5 3.9 1.7l1.3-1.3c-1.3-1.4-3.2-2.2-5.3-2.2-4.3 0-7.4 3.1-7.4 7.2 0 4.1 3.1 7.2 7.4 7.2zm14.2 0c4.2 0 7.4-3.1 7.4-7.2 0-4.1-3.2-7.2-7.4-7.2-4.3 0-7.5 3.1-7.5 7.2 0 4.1 3.2 7.2 7.5 7.2zm0-1.8c-3.2 0-5.5-2.3-5.5-5.4 0-3.1 2.3-5.4 5.5-5.4 3.1 0 5.4 2.3 5.4 5.4 0 3.1-2.3 5.4-5.4 5.4zm20.5-12.4v10.4l-8.4-10.4h-1.6v14h2v-10.4l8.4 10.4h1.6v-14zm9 14h2v-12.3h4.8v-1.7h-11.6v1.7h4.8zm18.7 0h2.1l-6.4-14h-1.9l-6.4 14h2.1l1.5-3.5h7.5zm-8.3-5.1l3-6.8 3 6.8zm18.5 5.3c2.2 0 4.1-0.8 5.4-2.2l-1.3-1.3c-1.1 1.2-2.4 1.7-4 1.7-3.1 0-5.5-2.3-5.5-5.4 0-3.1 2.4-5.3 5.5-5.3 1.6 0 2.9 0.5 4 1.6l1.3-1.2c-1.3-1.5-3.2-2.2-5.3-2.2-4.3 0-7.5 3-7.5 7.1 0 4.2 3.2 7.2 7.4 7.2zm10.9-0.2h1.9v-12.2h4.8v-1.8h-11.5v1.8h4.8z"/><path class="c" d="m550.9-41.3v-1.7h-9.9v14h2v-5.7h7v-1.7h-7v-4.9zm12.6 12.3h2.1l-6.3-14h-2l-6.3 14h2l1.6-3.5h7.4zm-8.3-5.1l3-6.9 3.1 6.9zm25.7 5.2c-0.7 0.8-1.6 1.2-2.6 1.2-0.9 0-1.7-0.4-2.6-1.4 3.2-0.7 5.5-3.4 5.5-6.9 0-4.1-3.2-7.2-7.5-7.2-4.3 0-7.4 3.1-7.4 7.2 0 3.9 2.9 6.9 6.9 7.1 2 2.1 3.4 2.8 5.1 2.8 1.4 0 2.6-0.6 3.5-1.6zm-12.6-7.2c0-3 2.3-5.3 5.5-5.3 3.1 0 5.4 2.3 5.4 5.3 0 3.1-2.3 5.4-5.4 5.4-3.2 0-5.5-2.3-5.5-5.4z"/><path class="k" d="m979.2-68.2h-168.8c-17.5 0-31.6 14.1-31.6 31.6 0 17.4 14.1 31.6 31.6 31.6h168.8c17.5 0 31.6-14.2 31.6-31.6 0-17.5-14.1-31.6-31.6-31.6z"/><path class="l" d="m1068.4-68.2h-168.9c-17.4 0-31.6 14.1-31.6 31.6 0 17.4 14.2 31.6 31.6 31.6h168.9c17.4 0 31.6-14.2 31.6-31.6 0-17.5-14.2-31.6-31.6-31.6z"/><path class="c" d="m948.4-36.3c1-0.6 1.8-1.6 1.8-3.1 0-2.2-1.8-3.6-5.2-3.6h-6.6v14h7c3.6 0 5.5-1.4 5.5-3.8 0-1.8-1-3-2.5-3.5zm-3.7-4.7c1.8 0 2.8 0.7 2.8 2 0 1.3-1 1.9-2.8 1.9h-3.7v-3.9zm0.6 10h-4.2v-4.1h4.2c1.9 0 3 0.6 3 2 0 1.4-1.1 2.1-3 2.1zm20.3 2l-3.2-4.6c1.9-0.7 3-2.3 3-4.4 0-3.1-2.3-5-6-5h-5.7v14h2.6v-4.1h3.1c0.2 0 0.4 0 0.6 0l2.8 4.1zm-2.8-9c0 1.7-1.2 2.8-3.5 2.8h-3v-5.6h3c2.3 0 3.5 1 3.5 2.8zm12 9.2c4.4 0 7.6-3 7.6-7.2 0-4.2-3.2-7.2-7.6-7.2-4.3 0-7.5 3.1-7.5 7.2 0 4.1 3.2 7.2 7.5 7.2zm0-2.3c-2.8 0-4.9-2-4.9-4.9 0-2.9 2.1-4.9 4.9-4.9 2.9 0 5 2 5 4.9 0 2.9-2.1 4.9-5 4.9zm27.9-11.9l-3.6 10.7-3.5-10.7h-2.4l-3.7 10.6-3.4-10.6h-2.7l4.6 14h2.8l3.5-10.4 3.5 10.4h2.7l4.7-14zm8.9 14.2c3.8 0 5.7-1.9 5.7-4.2 0-5.1-8.3-3.2-8.3-6.1 0-1.1 0.8-1.9 3-1.9 1.2 0 2.6 0.3 3.9 1.1l0.8-2.1c-1.2-0.8-3-1.2-4.7-1.2-3.8 0-5.6 1.9-5.6 4.2 0 5.2 8.3 3.2 8.3 6.2 0 1.1-0.9 1.8-3.1 1.8-1.7 0-3.5-0.6-4.6-1.5l-0.9 2c1.1 1 3.3 1.7 5.5 1.7zm10.8-2.4v-3.8h6.8v-2.2h-6.8v-3.6h7.7v-2.2h-10.3v14h10.5v-2.2z"/><path fill-rule="evenodd" class="c" d="m845.4-18c-1.3 1.3-3.3 1.3-4.6 0l-9.7-9.7c-6 3.9-14.2 3.2-19.4-2-6.1-6.1-6.1-16 0-22 6-6.1 15.9-6.1 22 0 5.2 5.3 5.9 13.4 2 19.4l9.7 9.7c1.3 1.3 1.3 3.3 0 4.6zm-31.4-31.4c-4.8 4.8-4.8 12.6 0 17.4 4.8 4.7 12.6 4.7 17.3 0 4.8-4.8 4.8-12.6 0-17.4-4.7-4.8-12.5-4.8-17.3 0z"/><path class="m" d="m-612.5 32.1l-49.5-49.4 49.5-49.5 49.5 49.5-24.7 24.7z"/><g style="opacity:.3"><path class="c" d="m-617.9-61.4l21.4 21.4h17.8l10.5 10.6v17.2l-7.8 7.9-49.5-49.5z"/></g><g style="opacity:.3"><path class="c" d="m-607 26.7l-21.4-21.4h-17.9l-10.5-10.6v-17.2l7.9-7.9 49.5 49.5z"/></g><g style="opacity:.3"><path class="c" d="m-590.3 10l-49.5-49.5 5.1-5.2 49.5 49.5z"/></g><path class="c" d="m-529.7-47.5h-8l-5 8.5-5-8.5h-8.7l9.2 15.5v9h8.3v-8.9zm12.8 25.1c8 0 13.8-5.4 13.8-12.8 0-7.5-5.8-12.8-13.8-12.8-8 0-13.8 5.3-13.8 12.8 0 7.4 5.8 12.8 13.8 12.8zm0-6.7c-3 0-5.5-2.3-5.5-6.1 0-3.9 2.5-6.2 5.5-6.2 3.1 0 5.5 2.3 5.5 6.2 0 3.8-2.4 6.1-5.5 6.1zm28.6 6.7c7.5 0 11.9-4.3 11.9-11.6v-13.5h-8.1v13.2c0 3.8-1.5 5.2-3.8 5.2-2.3 0-3.7-1.4-3.7-5.2v-13.2h-8.3v13.5c0 7.3 4.4 11.6 12 11.6zm30.3-0.6h8.9l-5.2-7.6c3-1.5 4.6-4.1 4.6-7.7 0-5.6-4.3-9.2-11.1-9.2h-11.8v24.5h8.2v-6.2h2.3zm-0.1-15.2c0 1.8-1 2.9-3.3 2.9h-3v-5.8h3c2.3 0 3.3 1.1 3.3 2.9z"/><path class="c" d="m-553.5 9h19.3v-6.4h-11v-18.1h-8.3zm34.1 0.6c8 0 13.8-5.4 13.8-12.8 0-7.5-5.8-12.9-13.8-12.9-8 0-13.8 5.4-13.8 12.9 0 7.4 5.8 12.8 13.8 12.8zm0-6.7c-3.1 0-5.5-2.3-5.5-6.1 0-3.9 2.4-6.2 5.5-6.2 3 0 5.5 2.3 5.5 6.2 0 3.8-2.5 6.1-5.5 6.1zm33-0.6c-1 0.4-2 0.6-3 0.6-3.5 0-5.8-2.5-5.8-6.1 0-3.8 2.3-6.2 5.9-6.2 2.2 0 4 0.9 5.5 2.7l5.3-4.6c-2.5-3.1-6.4-4.8-11.2-4.8-8.1 0-13.9 5.3-13.9 12.9 0 7.5 5.8 12.8 13.7 12.8 3.6 0 7.7-1.1 10.7-3.2v-10.3h-7.2zm23.6 7.3c8 0 13.8-5.4 13.8-12.8 0-7.5-5.8-12.9-13.8-12.9-8 0-13.8 5.4-13.8 12.9 0 7.4 5.8 12.8 13.8 12.8zm0-6.7c-3.1 0-5.5-2.3-5.5-6.1 0-3.9 2.4-6.2 5.5-6.2 3 0 5.5 2.3 5.5 6.2 0 3.8-2.5 6.1-5.5 6.1z"/><path class="c" d="m-503.4 503h10.5v-1.9h-8.3v-13.5h-2.2zm17.6 0.1c3.5 0 6-2.5 6-5.9 0-3.5-2.5-6-6-6-3.5 0-6.1 2.5-6.1 6 0 3.4 2.6 5.9 6.1 5.9zm0-1.8c-2.2 0-3.9-1.6-3.9-4.1 0-2.5 1.7-4.1 3.9-4.1 2.2 0 3.9 1.6 3.9 4.1 0 2.5-1.7 4.1-3.9 4.1zm11-8v-2h-2v11.7h2.1v-5.8c0-2.6 1.4-3.9 3.7-3.9 0.1 0 0.3 0 0.4 0v-2.1c-2 0-3.5 0.7-4.2 2.1zm17.3 3.9c0-3.5-2.4-6-5.8-6-3.4 0-5.8 2.5-5.8 6 0 3.4 2.5 5.9 6.2 5.9 2 0 3.6-0.6 4.6-1.9l-1.1-1.3c-0.9 0.9-2 1.4-3.4 1.4-2.3 0-4-1.4-4.2-3.4h9.4c0-0.2 0.1-0.5 0.1-0.7zm-5.8-4.2c2 0 3.5 1.4 3.7 3.4h-7.4c0.2-2 1.7-3.4 3.7-3.4zm23.3-1.8c-2 0-3.6 0.9-4.5 2.2-0.8-1.5-2.3-2.2-4.1-2.2-1.7 0-3.1 0.7-4 1.9v-1.8h-2v11.7h2.1v-6c0-2.5 1.4-3.9 3.5-3.9 1.9 0 3 1.1 3 3.4v6.5h2.1v-6c0-2.5 1.4-3.9 3.5-3.9 1.9 0 3 1.1 3 3.4v6.5h2.2v-6.7c0-3.4-2-5.1-4.8-5.1zm15.6-2.1c0.9 0 1.5-0.6 1.5-1.4 0-0.8-0.7-1.4-1.5-1.4-0.8 0-1.4 0.7-1.4 1.4 0 0.8 0.6 1.4 1.4 1.4zm-1 13.9h2.1v-11.7h-2.1zm12.3-11.7c-1.7 0-3.2 0.6-4.2 1.9v-1.8h-2v15.9h2.1v-6c1 1.2 2.4 1.9 4.1 1.9 3.4 0 5.9-2.4 5.9-6 0-3.6-2.5-5.9-5.9-5.9zm-0.2 10c-2.2 0-3.9-1.6-3.9-4.1 0-2.5 1.7-4.1 3.9-4.1 2.3 0 3.9 1.6 3.9 4.1 0 2.5-1.6 4.1-3.9 4.1zm12.4 1.9c3.1 0 5-1.4 5-3.5 0-4.5-7.4-2.3-7.4-5 0-0.9 0.9-1.6 2.7-1.6 1.2 0 2.4 0.2 3.4 0.9l0.9-1.7c-1-0.6-2.7-1-4.2-1-3 0-4.9 1.4-4.9 3.5 0 4.6 7.4 2.3 7.4 5 0 1-0.8 1.5-2.8 1.5-1.5 0-3.1-0.5-4.1-1.2l-0.9 1.7c1 0.8 2.9 1.4 4.9 1.4zm16.4-11.8v6c0 2.5-1.4 3.9-3.6 3.9-2 0-3.2-1.2-3.2-3.5v-6.4h-2.1v6.7c0 3.4 2 5.1 5 5.1 1.7 0 3.1-0.7 4-1.9v1.7h2v-11.6zm20.7-0.1c-2 0-3.6 0.8-4.5 2.1-0.7-1.4-2.2-2.1-4-2.1-1.8 0-3.2 0.6-4 1.8v-1.7h-2.1v11.6h2.1v-6c0-2.5 1.4-3.8 3.5-3.8 2 0 3.1 1.1 3.1 3.4v6.4h2.1v-6c0-2.5 1.4-3.8 3.5-3.8 1.9 0 3 1.1 3 3.4v6.4h2.1v-6.7c0-3.4-1.9-5-4.8-5zm23.5-4.6v6.4c-1-1.2-2.4-1.8-4.1-1.8-3.4 0-5.9 2.3-5.9 5.9 0 3.6 2.5 6 5.9 6 1.7 0 3.2-0.7 4.2-2v1.8h2v-16.3zm-3.9 14.6c-2.2 0-3.9-1.6-3.9-4.1 0-2.5 1.7-4.1 3.9-4.1 2.2 0 3.9 1.6 3.9 4.1 0 2.5-1.7 4.1-3.9 4.1zm15 1.9c3.5 0 6.1-2.5 6.1-6 0-3.5-2.6-5.9-6.1-5.9-3.5 0-6.1 2.4-6.1 5.9 0 3.5 2.6 6 6.1 6zm0-1.9c-2.2 0-3.9-1.6-3.9-4.1 0-2.5 1.7-4.1 3.9-4.1 2.3 0 3.9 1.6 3.9 4.1 0 2.5-1.6 4.1-3.9 4.1zm9 1.7h2.1v-16.3h-2.1zm11.1 0.1c3.5 0 6.1-2.4 6.1-5.9 0-3.5-2.6-6-6.1-6-3.5 0-6 2.5-6 6 0 3.5 2.5 5.9 6 5.9zm0-1.8c-2.2 0-3.9-1.6-3.9-4.1 0-2.5 1.7-4.1 3.9-4.1 2.3 0 3.9 1.6 3.9 4.1 0 2.5-1.6 4.1-3.9 4.1zm11-8v-1.9h-2v11.6h2.1v-5.8c0-2.5 1.4-3.9 3.7-3.9 0.1 0 0.3 0 0.5 0v-2.1c-2.1 0-3.5 0.8-4.3 2.1zm16.3 9.8c3.1 0 5-1.3 5-3.4 0-4.5-7.4-2.3-7.4-5 0-1 0.9-1.7 2.8-1.7 1.1 0 2.3 0.3 3.3 1l0.9-1.7c-1-0.7-2.7-1.1-4.2-1.1-3 0-4.9 1.5-4.9 3.5 0 4.7 7.4 2.4 7.4 5 0 1-0.8 1.6-2.8 1.6-1.5 0-3.1-0.5-4.1-1.2l-0.8 1.7c0.9 0.8 2.8 1.3 4.8 1.3zm8.7-14c0.9 0 1.4-0.6 1.4-1.4 0-0.7-0.6-1.3-1.4-1.3-0.8 0-1.4 0.6-1.4 1.3 0 0.8 0.6 1.4 1.4 1.4zm-1 13.9h2.1v-11.6h-2.1zm12-2.2c-0.4 0.3-1 0.5-1.7 0.5-1.1 0-1.8-0.7-1.8-2v-6.3h3.4v-1.7h-3.4v-2.6h-2.1v2.6h-2v1.7h2v6.4c0 2.4 1.3 3.7 3.7 3.7 0.9 0 1.9-0.3 2.6-0.8zm13.3-9.6c-1.8 0-3.6 0.5-4.8 1.5l0.9 1.6c0.9-0.8 2.3-1.3 3.7-1.3 2.1 0 3.1 1.1 3.1 2.8v0.5h-3.3c-3.5 0-4.7 1.5-4.7 3.4 0 2 1.7 3.4 4.3 3.4 1.8 0 3.1-0.6 3.8-1.7v1.6h2v-7.1c0-3.2-1.8-4.7-5-4.7zm-0.5 10.3c-1.6 0-2.5-0.7-2.5-1.9 0-1 0.6-1.8 2.7-1.8h3.2v1.6c-0.5 1.4-1.8 2.1-3.4 2.1zm24-10.3c-2 0-3.6 0.8-4.5 2.2-0.7-1.5-2.2-2.2-4-2.2-1.8 0-3.2 0.7-4 1.9v-1.8h-2.1v11.7h2.2v-6c0-2.6 1.3-3.9 3.5-3.9 1.9 0 3 1.1 3 3.4v6.5h2.1v-6c0-2.6 1.4-3.9 3.5-3.9 1.9 0 3 1.1 3 3.4v6.5h2.1v-6.7c0-3.5-1.9-5.1-4.8-5.1zm19.3 6c0-3.6-2.4-6-5.8-6-3.3 0-5.8 2.5-5.8 5.9 0 3.5 2.5 6 6.3 6 1.9 0 3.5-0.7 4.6-1.9l-1.2-1.4c-0.9 1-2 1.5-3.4 1.5-2.3 0-3.9-1.4-4.2-3.5h9.5c0-0.2 0-0.4 0-0.6zm-5.8-4.2c2.1 0 3.6 1.4 3.8 3.3h-7.5c0.2-2 1.7-3.3 3.7-3.3zm14.6 7.8c-0.4 0.3-1 0.5-1.6 0.5-1.2 0-1.9-0.7-1.9-1.9v-6.3h3.4v-1.8h-3.4v-2.5h-2.1v2.5h-1.9v1.8h1.9v6.4c0 2.3 1.4 3.6 3.7 3.6 1 0 1.9-0.3 2.6-0.8zm3.9-0.7c-0.8 0-1.4 0.6-1.4 1.5 0 0.7 0.3 1.2 0.9 1.4l-0.8 3.2h1.4l1-3c0.3-0.8 0.4-1.2 0.4-1.6 0-0.9-0.6-1.5-1.5-1.5zm15.5 3c2.1 0 3.8-0.9 4.8-2.5l-1.6-1c-0.8 1.1-1.9 1.7-3.2 1.7-2.3 0-4-1.6-4-4.1 0-2.5 1.7-4.1 4-4.1 1.3 0 2.4 0.5 3.2 1.6l1.6-1c-1-1.6-2.7-2.5-4.8-2.5-3.6 0-6.2 2.5-6.2 6 0 3.4 2.6 5.9 6.2 5.9zm12.3 0c3.5 0 6.1-2.5 6.1-5.9 0-3.5-2.6-6-6.1-6-3.5 0-6.1 2.5-6.1 6 0 3.4 2.6 5.9 6.1 5.9zm0-1.8c-2.2 0-3.9-1.7-3.9-4.1 0-2.5 1.7-4.1 3.9-4.1 2.2 0 3.9 1.6 3.9 4.1 0 2.4-1.7 4.1-3.9 4.1zm15.2-10.1c-1.8 0-3.3 0.7-4.2 1.9v-1.8h-2v11.7h2.1v-6c0-2.5 1.4-3.9 3.7-3.9 2 0 3.1 1.1 3.1 3.4v6.5h2.1v-6.7c0-3.5-2-5.1-4.8-5.1zm12.1 11.9c3.1 0 5-1.3 5-3.4 0-4.6-7.3-2.3-7.3-5.1 0-0.9 0.9-1.6 2.7-1.6 1.1 0 2.3 0.3 3.4 0.9l0.9-1.6c-1-0.7-2.8-1.1-4.3-1.1-3 0-4.8 1.4-4.8 3.5 0 4.7 7.3 2.4 7.3 5 0 1-0.8 1.6-2.7 1.6-1.6 0-3.1-0.5-4.1-1.2l-0.9 1.7c1 0.7 2.9 1.3 4.8 1.3zm18.2-5.9c0-3.6-2.4-6-5.7-6-3.4 0-5.9 2.5-5.9 6 0 3.4 2.5 5.9 6.3 5.9 1.9 0 3.5-0.6 4.6-1.9l-1.2-1.3c-0.8 0.9-2 1.4-3.4 1.4-2.3 0-3.9-1.4-4.2-3.4h9.5c0-0.2 0-0.5 0-0.7zm-5.7-4.2c2 0 3.5 1.4 3.7 3.3h-7.5c0.2-1.9 1.7-3.3 3.8-3.3zm13.7 10.1c2.1 0 3.9-0.9 4.8-2.5l-1.6-1c-0.8 1.1-1.9 1.7-3.2 1.7-2.3 0-4-1.6-4-4.1 0-2.5 1.7-4.1 4-4.1 1.3 0 2.4 0.5 3.2 1.6l1.6-1c-0.9-1.6-2.7-2.5-4.8-2.5-3.6 0-6.1 2.5-6.1 6 0 3.4 2.5 5.9 6.1 5.9zm13.6-2.3c-0.5 0.3-1.1 0.5-1.7 0.5-1.2 0-1.8-0.7-1.8-1.9v-6.3h3.3v-1.8h-3.3v-2.5h-2.1v2.5h-2v1.8h2v6.4c0 2.3 1.3 3.6 3.7 3.6 0.9 0 1.9-0.2 2.5-0.8zm13.4-3.6c0-3.5-2.4-6-5.8-6-3.4 0-5.8 2.5-5.8 6 0 3.5 2.5 5.9 6.2 5.9 2 0 3.6-0.6 4.6-1.9l-1.1-1.3c-0.9 0.9-2 1.4-3.4 1.4-2.3 0-4-1.4-4.2-3.4h9.4c0.1-0.2 0.1-0.5 0.1-0.7zm-5.8-4.2c2.1 0 3.5 1.4 3.8 3.4h-7.5c0.2-2 1.7-3.4 3.7-3.4zm14.6 7.8c-0.4 0.4-1 0.6-1.7 0.6-1.1 0-1.8-0.7-1.8-2v-6.3h3.4v-1.8h-3.4v-2.5h-2.1v2.5h-2v1.8h2v6.4c0 2.3 1.4 3.6 3.7 3.6 1 0 1.9-0.2 2.6-0.8zm11.9-9.4v6c0 2.5-1.4 3.9-3.6 3.9-2 0-3.1-1.2-3.1-3.5v-6.4h-2.1v6.7c0 3.4 2 5.1 5 5.1 1.6 0 3.1-0.7 3.9-1.9v1.7h2v-11.6zm8.2 1.9v-1.9h-2v11.6h2.1v-5.8c0-2.5 1.4-3.9 3.7-3.9 0.1 0 0.3 0 0.4 0v-2c-2 0-3.5 0.7-4.2 2zm-490.6 24c-1.8 0-3.6 0.5-4.8 1.5l0.9 1.5c0.9-0.7 2.3-1.2 3.7-1.2 2.1 0 3.1 1 3.1 2.8v0.4h-3.3c-3.5 0-4.7 1.6-4.7 3.4 0 2.1 1.6 3.5 4.3 3.5 1.8 0 3.1-0.7 3.8-1.7v1.5h2v-7c0-3.2-1.8-4.7-5-4.7zm-0.5 10.2c-1.6 0-2.5-0.7-2.5-1.9 0-1 0.6-1.8 2.6-1.8h3.3v1.7c-0.5 1.3-1.8 2-3.4 2zm18.4-14.8v6.4c-1-1.2-2.4-1.8-4.1-1.8-3.4 0-5.9 2.3-5.9 5.9 0 3.6 2.5 6 5.9 6 1.7 0 3.2-0.7 4.2-2v1.8h2v-16.3zm-3.9 14.6c-2.2 0-3.9-1.6-3.9-4.1 0-2.5 1.7-4.1 3.9-4.1 2.2 0 3.9 1.6 3.9 4.1 0 2.5-1.7 4.1-3.9 4.1zm11.1-12.2c0.8 0 1.4-0.6 1.4-1.4 0-0.7-0.6-1.3-1.4-1.3-0.8 0-1.5 0.6-1.5 1.4 0 0.7 0.7 1.3 1.5 1.3zm-1.1 13.9h2.1v-11.6h-2.1zm12.3-11.8c-1.7 0-3.2 0.7-4.1 2v-1.9h-2v15.9h2.1v-6c0.9 1.3 2.4 1.9 4 1.9 3.4 0 5.9-2.4 5.9-6 0-3.5-2.5-5.9-5.9-5.9zm-0.1 10.1c-2.3 0-4-1.7-4-4.2 0-2.4 1.7-4.1 4-4.1 2.2 0 3.9 1.7 3.9 4.1 0 2.5-1.7 4.2-3.9 4.2zm10-12.2c0.8 0 1.4-0.7 1.4-1.4 0-0.8-0.6-1.4-1.4-1.4-0.8 0-1.4 0.6-1.4 1.4 0 0.8 0.6 1.4 1.4 1.4zm-1 13.9h2.1v-11.7h-2.1zm9.4 0.1c3.1 0 5.1-1.3 5.1-3.4 0-4.5-7.4-2.3-7.4-5.1 0-0.9 0.9-1.6 2.7-1.6 1.2 0 2.3 0.3 3.4 1l0.9-1.7c-1-0.7-2.7-1.1-4.2-1.1-3 0-4.9 1.4-4.9 3.5 0 4.7 7.4 2.4 7.4 5 0 1-0.9 1.6-2.8 1.6-1.5 0-3.1-0.5-4.1-1.2l-0.9 1.7c1 0.7 2.9 1.3 4.8 1.3zm12.8 0c2.1 0 3.8-0.8 4.7-2.5l-1.6-1c-0.7 1.2-1.8 1.7-3.1 1.7-2.3 0-4-1.6-4-4.1 0-2.5 1.7-4.1 4-4.1 1.3 0 2.4 0.5 3.1 1.7l1.6-1.1c-0.9-1.6-2.6-2.5-4.7-2.5-3.6 0-6.2 2.5-6.2 6 0 3.5 2.6 5.9 6.2 5.9zm8.5-14c0.9 0 1.5-0.6 1.5-1.4 0-0.8-0.7-1.3-1.5-1.3-0.8 0-1.4 0.6-1.4 1.3 0 0.8 0.6 1.4 1.4 1.4zm-1 13.9h2.1v-11.7h-2.1zm12.3-11.7c-1.8 0-3.3 0.7-4.2 1.8v-1.7h-2v11.6h2.1v-6c0-2.5 1.5-3.8 3.7-3.8 2 0 3.2 1.1 3.2 3.4v6.4h2.1v-6.7c0-3.4-2-5-4.9-5zm18 0.1v1.8c-1-1.3-2.6-1.9-4.3-1.9-3.4 0-5.9 2.2-5.9 5.6 0 3.4 2.5 5.7 5.9 5.7 1.7 0 3.2-0.6 4.2-1.8v0.9c0 2.6-1.2 3.9-4 3.9-1.7 0-3.4-0.6-4.5-1.5l-1 1.6c1.3 1.2 3.4 1.7 5.6 1.7 3.9 0 6-1.8 6-5.9v-10.1zm-4.1 9.3c-2.3 0-4-1.5-4-3.8 0-2.3 1.7-3.8 4-3.8 2.4 0 4.1 1.5 4.1 3.8 0 2.3-1.7 3.8-4.1 3.8zm26.6-3.4c0-3.6-2.4-6-5.8-6-3.3 0-5.8 2.5-5.8 5.9 0 3.5 2.5 6 6.3 6 1.9 0 3.5-0.7 4.6-1.9l-1.2-1.4c-0.9 1-2 1.4-3.4 1.4-2.3 0-3.9-1.3-4.2-3.4h9.5c0-0.2 0-0.4 0-0.6zm-5.8-4.2c2.1 0 3.6 1.3 3.8 3.3h-7.5c0.2-2 1.7-3.3 3.7-3.3zm8.7 9.9h2.1v-16.3h-2.1zm7.2-13.9c0.9 0 1.5-0.6 1.5-1.4 0-0.7-0.7-1.3-1.5-1.3-0.8 0-1.4 0.6-1.4 1.4 0 0.7 0.6 1.3 1.4 1.3zm-1 13.9h2.1v-11.6h-2.1zm12-2.2c-0.4 0.3-1 0.5-1.7 0.5-1.1 0-1.8-0.7-1.8-1.9v-6.4h3.4v-1.7h-3.4v-2.5h-2.1v2.5h-2v1.7h2v6.4c0 2.4 1.4 3.7 3.7 3.7 1 0 1.9-0.3 2.6-0.8zm3.9 2.3c0.8 0 1.4-0.6 1.4-1.5 0-0.9-0.6-1.5-1.4-1.5-0.8 0-1.5 0.6-1.5 1.5 0 0.9 0.7 1.5 1.5 1.5zm16.7-15.5h-6v15.4h2.2v-4.7h3.8c4 0 6.4-2 6.4-5.3 0-3.4-2.4-5.4-6.4-5.4zm0 8.8h-3.8v-6.9h3.8c2.8 0 4.2 1.3 4.2 3.5 0 2.2-1.4 3.4-4.2 3.4zm15.8-5.2c-1.8 0-3.2 0.7-4.1 1.8v-6.3h-2.1v16.3h2.1v-6c0-2.6 1.5-3.9 3.7-3.9 2 0 3.1 1.1 3.1 3.4v6.5h2.2v-6.7c0-3.5-2-5.1-4.9-5.1zm13 0c-1.9 0-3.6 0.5-4.8 1.5l0.9 1.6c0.9-0.8 2.3-1.3 3.7-1.3 2.1 0 3.1 1.1 3.1 2.9v0.4h-3.3c-3.5 0-4.7 1.5-4.7 3.4 0 2 1.6 3.4 4.3 3.4 1.8 0 3.1-0.6 3.8-1.7v1.6h2v-7.1c0-3.1-1.8-4.7-5-4.7zm-0.5 10.3c-1.6 0-2.5-0.7-2.5-1.9 0-1 0.6-1.8 2.6-1.8h3.3v1.6c-0.5 1.4-1.8 2.1-3.4 2.1zm12.8 1.6c3.1 0 5-1.3 5-3.4 0-4.6-7.4-2.3-7.4-5.1 0-0.9 0.9-1.6 2.8-1.6 1.1 0 2.3 0.3 3.3 0.9l0.9-1.6c-1-0.7-2.7-1.1-4.2-1.1-3 0-4.9 1.4-4.9 3.5 0 4.7 7.4 2.4 7.4 5 0 1-0.8 1.6-2.8 1.6-1.5 0-3.1-0.5-4.1-1.2l-0.8 1.7c0.9 0.7 2.8 1.3 4.8 1.3zm18.2-5.9c0-3.6-2.4-6-5.8-6-3.3 0-5.8 2.5-5.8 6 0 3.4 2.5 5.9 6.2 5.9 2 0 3.6-0.6 4.6-1.9l-1.1-1.3c-0.9 0.9-2 1.4-3.4 1.4-2.3 0-4-1.4-4.2-3.4h9.4c0.1-0.2 0.1-0.5 0.1-0.7zm-5.8-4.2c2.1 0 3.5 1.4 3.8 3.3h-7.5c0.2-1.9 1.7-3.3 3.7-3.3zm8.7 10h2.1v-16.3h-2.1zm6.1 0h2.2v-16.4h-2.2zm14.9-11.6v6c0 2.5-1.4 3.9-3.6 3.9-2 0-3.1-1.2-3.1-3.5v-6.4h-2.1v6.7c0 3.4 2 5.1 5 5.1 1.6 0 3.1-0.7 4-1.9v1.7h2v-11.6zm9.4 11.8c3.1 0 5.1-1.4 5.1-3.5 0-4.5-7.4-2.3-7.4-5 0-0.9 0.9-1.6 2.7-1.6 1.2 0 2.3 0.2 3.4 0.9l0.9-1.7c-1-0.6-2.7-1-4.2-1-3 0-4.9 1.4-4.9 3.5 0 4.6 7.4 2.3 7.4 5 0 0.9-0.9 1.5-2.8 1.5-1.5 0-3.1-0.5-4.1-1.2l-0.9 1.7c1 0.8 2.9 1.4 4.8 1.4zm19.8-11.9c-1.7 0-3.2 0.6-4.1 1.9v-1.8h-2.1v15.9h2.1v-6c1 1.2 2.5 1.9 4.1 1.9 3.4 0 5.9-2.4 5.9-6 0-3.6-2.5-5.9-5.9-5.9zm-0.2 10c-2.2 0-3.9-1.6-3.9-4.1 0-2.5 1.7-4.1 3.9-4.1 2.3 0 4 1.6 4 4.1 0 2.5-1.7 4.1-4 4.1zm17.8-9.9v6c0 2.5-1.4 3.9-3.6 3.9-2 0-3.2-1.2-3.2-3.5v-6.4h-2.1v6.7c0 3.4 2 5.1 5 5.1 1.7 0 3.1-0.7 4-1.9v1.7h2v-11.6zm8.2 1.9v-1.9h-2.1v11.6h2.2v-5.8c0-2.5 1.4-3.9 3.6-3.9 0.2 0 0.3 0 0.5 0v-2c-2 0-3.5 0.7-4.2 2zm15.7-1.9v6c0 2.5-1.4 3.9-3.6 3.9-2 0-3.1-1.2-3.1-3.5v-6.4h-2.1v6.7c0 3.4 2 5.1 5 5.1 1.6 0 3.1-0.7 3.9-1.9v1.7h2v-11.6zm9.5 11.8c3.1 0 5.1-1.4 5.1-3.5 0-4.5-7.4-2.3-7.4-5 0-0.9 0.9-1.6 2.7-1.6 1.2 0 2.3 0.2 3.4 0.9l0.9-1.7c-1-0.6-2.8-1-4.3-1-3 0-4.8 1.4-4.8 3.5 0 4.6 7.3 2.3 7.3 5 0 0.9-0.8 1.5-2.7 1.5-1.6 0-3.1-0.5-4.1-1.2l-0.9 1.7c1 0.8 2.9 1.4 4.8 1.4zm13.6-0.2h2.1v-16.3h-2.1zm16.7-5.8c0-3.5-2.4-6-5.8-6-3.3 0-5.8 2.5-5.8 6 0 3.5 2.5 5.9 6.2 5.9 2 0 3.6-0.6 4.6-1.8l-1.1-1.4c-0.9 0.9-2 1.4-3.4 1.4-2.3 0-4-1.4-4.2-3.4h9.4c0.1-0.2 0.1-0.5 0.1-0.7zm-5.8-4.2c2.1 0 3.5 1.4 3.8 3.4h-7.5c0.2-2 1.7-3.4 3.7-3.4zm13.8 10.1c2.1 0 3.8-0.8 4.7-2.5l-1.6-1c-0.7 1.2-1.9 1.7-3.1 1.7-2.3 0-4-1.6-4-4.1 0-2.5 1.7-4.1 4-4.1 1.2 0 2.4 0.5 3.1 1.7l1.6-1.1c-0.9-1.6-2.6-2.5-4.7-2.5-3.6 0-6.2 2.5-6.2 6 0 3.5 2.6 5.9 6.2 5.9zm13.5-2.3c-0.4 0.4-1 0.6-1.6 0.6-1.2 0-1.9-0.7-1.9-2v-6.3h3.4v-1.7h-3.4v-2.6h-2.1v2.6h-1.9v1.7h1.9v6.4c0 2.3 1.4 3.6 3.7 3.6 1 0 1.9-0.2 2.6-0.8zm12-9.4v6c0 2.5-1.5 3.9-3.7 3.9-2 0-3.1-1.2-3.1-3.5v-6.4h-2.1v6.7c0 3.4 2 5.1 5 5.1 1.7 0 3.1-0.7 4-1.9v1.7h2v-11.6zm9.4 11.8c3.1 0 5.1-1.4 5.1-3.5 0-4.5-7.4-2.3-7.4-5 0-1 0.9-1.6 2.7-1.6 1.2 0 2.4 0.2 3.4 0.9l0.9-1.7c-1-0.6-2.7-1-4.2-1-3 0-4.9 1.4-4.9 3.5 0 4.6 7.4 2.3 7.4 5 0 0.9-0.8 1.5-2.8 1.5-1.5 0-3.1-0.5-4.1-1.2l-0.9 1.7c1 0.8 2.9 1.4 4.8 1.4zm8.3-3.1c-0.9 0-1.5 0.7-1.5 1.5 0 0.7 0.4 1.2 0.9 1.4l-0.8 3.3h1.4l1-3.1c0.3-0.8 0.4-1.1 0.4-1.6 0-0.8-0.6-1.5-1.4-1.5zm11.4-11c0.8 0 1.4-0.6 1.4-1.4 0-0.7-0.6-1.3-1.4-1.3-0.8 0-1.4 0.6-1.4 1.4 0 0.7 0.6 1.3 1.4 1.3zm-1.1 13.9h2.1v-11.6h-2.1zm10.4-11.8c-1.9 0-3.6 0.5-4.8 1.5l0.9 1.6c0.9-0.8 2.3-1.3 3.7-1.3 2.1 0 3.1 1.1 3.1 2.8v0.5h-3.3c-3.5 0-4.7 1.5-4.7 3.4 0 2 1.6 3.4 4.3 3.4 1.8 0 3.1-0.6 3.8-1.7v1.6h2v-7.1c0-3.2-1.8-4.7-5-4.7zm-0.5 10.3c-1.6 0-2.5-0.8-2.5-1.9 0-1 0.6-1.8 2.6-1.8h3.3v1.6c-0.5 1.3-1.8 2.1-3.4 2.1zm14.6 1.6c2.1 0 3.8-0.9 4.7-2.5l-1.6-1c-0.7 1.1-1.9 1.7-3.1 1.7-2.3 0-4-1.6-4-4.2 0-2.4 1.7-4.1 4-4.1 1.2 0 2.4 0.6 3.1 1.7l1.6-1c-0.9-1.6-2.6-2.5-4.7-2.5-3.6 0-6.2 2.5-6.2 5.9 0 3.5 2.6 6 6.2 6zm16.2-11.8v6c0 2.5-1.4 3.9-3.6 3.9-2 0-3.1-1.1-3.1-3.4v-6.5h-2.2v6.7c0 3.5 2 5.1 5.1 5.1 1.6 0 3.1-0.7 3.9-1.9v1.8h2v-11.7zm6.2 11.7h2.1v-16.4h-2.1zm7.2-13.9c0.8 0 1.4-0.6 1.4-1.4 0-0.7-0.6-1.3-1.4-1.3-0.9 0-1.5 0.6-1.5 1.4 0 0.7 0.6 1.3 1.5 1.3zm-1.1 13.9h2.1v-11.6h-2.1zm9.5 0.1c3.1 0 5-1.3 5-3.4 0-4.6-7.4-2.3-7.4-5.1 0-0.9 0.9-1.6 2.8-1.6 1.1 0 2.3 0.3 3.3 0.9l0.9-1.6c-1-0.7-2.7-1.1-4.2-1.1-3 0-4.9 1.4-4.9 3.5 0 4.7 7.4 2.4 7.4 5 0 1-0.8 1.6-2.8 1.6-1.5 0-3.1-0.5-4.1-1.2l-0.8 1.7c0.9 0.7 2.8 1.3 4.8 1.3zm19.8-11.9c-1.8 0-3.3 0.7-4.2 1.9v-1.8h-2v11.7h2.1v-6c0-2.6 1.4-3.9 3.7-3.9 2 0 3.1 1.1 3.1 3.4v6.5h2.1v-6.7c0-3.5-2-5.1-4.8-5.1zm13.8 11.9c3.5 0 6.1-2.5 6.1-5.9 0-3.5-2.6-6-6.1-6-3.5 0-6.1 2.5-6.1 6 0 3.4 2.6 5.9 6.1 5.9zm0-1.8c-2.2 0-3.9-1.7-3.9-4.1 0-2.5 1.7-4.1 3.9-4.1 2.3 0 3.9 1.6 3.9 4.1 0 2.4-1.6 4.1-3.9 4.1zm15.2-10.1c-1.8 0-3.3 0.7-4.2 1.9v-1.8h-2v11.7h2.1v-6c0-2.6 1.5-3.9 3.7-3.9 2 0 3.2 1.1 3.2 3.4v6.5h2.1v-6.7c0-3.5-2-5.1-4.9-5.1zm-442.4 24.1c0.6 0 1.2 0.2 1.6 0.5l0.6-1.6c-0.5-0.5-1.4-0.7-2.3-0.7-2.5 0-3.9 1.5-3.9 3.8v1h-2v1.8h2v9.9h2.1v-9.9h3.4v-1.8h-3.4v-1c0-1.3 0.6-2 1.9-2zm7.5 2.9c-1.9 0-3.6 0.5-4.8 1.5l0.9 1.6c0.9-0.8 2.3-1.3 3.7-1.3 2.1 0 3.1 1.1 3.1 2.9v0.4h-3.4c-3.4 0-4.6 1.5-4.6 3.4 0 2 1.6 3.4 4.3 3.4 1.8 0 3.1-0.6 3.8-1.7v1.6h2v-7.1c0-3.1-1.8-4.7-5-4.7zm-0.5 10.3c-1.6 0-2.6-0.7-2.6-1.9 0-1 0.6-1.8 2.7-1.8h3.3v1.6c-0.5 1.4-1.8 2.1-3.4 2.1zm14.6 1.6c2.1 0 3.8-0.9 4.7-2.5l-1.6-1c-0.7 1.1-1.9 1.7-3.2 1.7-2.2 0-4-1.6-4-4.1 0-2.5 1.8-4.1 4-4.1 1.3 0 2.5 0.5 3.2 1.6l1.6-1c-0.9-1.6-2.6-2.5-4.7-2.5-3.6 0-6.2 2.5-6.2 6 0 3.4 2.6 5.9 6.2 5.9zm8.5-14c0.8 0 1.4-0.6 1.4-1.4 0-0.8-0.6-1.4-1.4-1.4-0.8 0-1.4 0.6-1.4 1.4 0 0.8 0.6 1.4 1.4 1.4zm-1.1 13.9h2.2v-11.7h-2.2zm6.2 0h2.1v-16.3h-2.1zm7.2-13.9c0.8 0 1.4-0.6 1.4-1.4 0-0.8-0.6-1.4-1.4-1.4-0.8 0-1.5 0.7-1.5 1.4 0 0.8 0.7 1.4 1.5 1.4zm-1.1 13.9h2.1v-11.7h-2.1zm9.5 0.2c3.1 0 5-1.4 5-3.5 0-4.5-7.4-2.3-7.4-5 0-0.9 0.9-1.6 2.8-1.6 1.1 0 2.3 0.2 3.4 0.9l0.9-1.7c-1-0.6-2.8-1-4.3-1-3 0-4.8 1.4-4.8 3.5 0 4.6 7.3 2.3 7.3 5 0 1-0.8 1.5-2.7 1.5-1.6 0-3.1-0.5-4.1-1.2l-0.9 1.7c1 0.8 2.9 1.4 4.8 1.4zm8.7-14.1c0.9 0 1.5-0.6 1.5-1.4 0-0.7-0.7-1.3-1.5-1.3-0.8 0-1.4 0.6-1.4 1.4 0 0.7 0.6 1.3 1.4 1.3zm-1 13.9h2.1v-11.6h-2.1zm9.5 0.1c3.1 0 5-1.3 5-3.4 0-4.6-7.4-2.3-7.4-5.1 0-0.9 0.9-1.6 2.8-1.6 1.1 0 2.3 0.3 3.3 0.9l0.9-1.6c-1-0.7-2.7-1.1-4.2-1.1-3 0-4.9 1.4-4.9 3.5 0 4.7 7.4 2.4 7.4 5 0 1-0.8 1.6-2.8 1.6-1.5 0-3.1-0.5-4.1-1.2l-0.9 1.6c1 0.8 2.9 1.4 4.9 1.4zm19.7-11.9c-1.6 0-3.1 0.6-4 1.9v-6.4h-2.1v16.3h2v-1.9c0.9 1.4 2.4 2 4.1 2 3.4 0 5.9-2.4 5.9-5.9 0-3.6-2.5-6-5.9-6zm-0.1 10.1c-2.3 0-4-1.7-4-4.1 0-2.5 1.7-4.1 4-4.1 2.2 0 3.9 1.6 3.9 4.1 0 2.4-1.7 4.1-3.9 4.1zm10-12.2c0.9 0 1.4-0.6 1.4-1.4 0-0.8-0.6-1.4-1.4-1.4-0.8 0-1.4 0.6-1.4 1.4 0 0.8 0.6 1.4 1.4 1.4zm-1 13.9h2.1v-11.7h-2.1zm12.3-11.7c-1.7 0-3.1 0.6-4.1 1.8v-6.4h-2.1v16.3h2v-1.8c1 1.3 2.5 2 4.2 2 3.4 0 5.9-2.4 5.9-6 0-3.6-2.5-5.9-5.9-5.9zm-0.2 10c-2.2 0-3.9-1.6-3.9-4.1 0-2.5 1.7-4.1 3.9-4.1 2.2 0 3.9 1.6 3.9 4.1 0 2.5-1.7 4.1-3.9 4.1zm19.5-4c0-3.6-2.4-6-5.7-6-3.4 0-5.9 2.4-5.9 5.9 0 3.5 2.5 6 6.3 6 1.9 0 3.5-0.7 4.6-1.9l-1.2-1.4c-0.8 0.9-2 1.4-3.3 1.4-2.3 0-4-1.4-4.3-3.4h9.5c0-0.2 0-0.5 0-0.6zm-5.7-4.3c2 0 3.5 1.4 3.7 3.4h-7.5c0.3-2 1.8-3.4 3.8-3.4zm14.9-1.7c-1.9 0-3.4 0.6-4.2 1.8v-1.7h-2v11.6h2.1v-6c0-2.5 1.4-3.9 3.7-3.9 2 0 3.1 1.2 3.1 3.5v6.4h2.1v-6.7c0-3.4-2-5-4.8-5zm17.7-4.6v6.4c-1-1.2-2.4-1.8-4.1-1.8-3.4 0-5.9 2.3-5.9 5.9 0 3.6 2.5 6 5.9 6 1.7 0 3.2-0.7 4.2-2v1.8h2v-16.3zm-3.9 14.6c-2.2 0-3.9-1.6-3.9-4.1 0-2.5 1.7-4.1 3.9-4.1 2.2 0 3.9 1.6 3.9 4.1 0 2.5-1.7 4.1-3.9 4.1zm18.8-9.9v6c0 2.5-1.4 3.9-3.6 3.9-2 0-3.2-1.2-3.2-3.5v-6.4h-2.1v6.7c0 3.4 2 5.1 5 5.1 1.7 0 3.1-0.7 4-1.9v1.7h2v-11.6zm20.7-0.1c-2 0-3.6 0.8-4.5 2.1-0.7-1.4-2.2-2.1-4-2.1-1.8 0-3.2 0.6-4 1.8v-1.7h-2.1v11.6h2.1v-6c0-2.5 1.4-3.9 3.5-3.9 2 0 3.1 1.2 3.1 3.5v6.4h2.1v-6c0-2.5 1.4-3.9 3.5-3.9 1.9 0 3 1.2 3 3.5v6.4h2.1v-6.7c0-3.4-1.9-5-4.8-5zm9.2 8.8c-0.8 0-1.5 0.7-1.5 1.5 0 0.7 0.4 1.2 1 1.4l-0.8 3.3h1.3l1.1-3.1c0.3-0.8 0.3-1.1 0.3-1.6 0-0.8-0.5-1.5-1.4-1.5zm16.6-8.8c-1.7 0-3.2 0.6-4.2 1.9v-1.8h-2v15.9h2.1v-6c1 1.2 2.4 1.9 4.1 1.9 3.4 0 5.9-2.4 5.9-6 0-3.6-2.5-5.9-5.9-5.9zm-0.2 10c-2.2 0-3.9-1.6-3.9-4.1 0-2.5 1.7-4.1 3.9-4.1 2.3 0 3.9 1.6 3.9 4.1 0 2.5-1.6 4.1-3.9 4.1zm14 1.9c3.5 0 6.1-2.5 6.1-6 0-3.5-2.6-5.9-6.1-5.9-3.5 0-6.1 2.4-6.1 5.9 0 3.5 2.6 6 6.1 6zm0-1.9c-2.2 0-3.9-1.6-3.9-4.1 0-2.5 1.7-4.1 3.9-4.1 2.2 0 3.9 1.6 3.9 4.1 0 2.5-1.7 4.1-3.9 4.1zm11-8v-1.9h-2v11.6h2.1v-5.8c0-2.5 1.4-3.9 3.7-3.9 0.1 0 0.3 0 0.4 0v-2c-2 0-3.5 0.7-4.2 2zm13.2 7.5c-0.4 0.4-1 0.6-1.6 0.6-1.2 0-1.9-0.7-1.9-2v-6.3h3.4v-1.7h-3.4v-2.6h-2.1v2.6h-1.9v1.7h1.9v6.4c0 2.4 1.4 3.7 3.7 3.7 1 0 1.9-0.3 2.6-0.9zm7.4-9.5c-1.8 0-3.6 0.5-4.8 1.5l0.9 1.5c0.9-0.7 2.3-1.2 3.7-1.2 2.1 0 3.1 1 3.1 2.8v0.4h-3.3c-3.5 0-4.7 1.6-4.7 3.4 0 2.1 1.7 3.5 4.3 3.5 1.8 0 3.1-0.6 3.8-1.7v1.5h2v-7c0-3.2-1.8-4.7-5-4.7zm-0.4 10.2c-1.6 0-2.6-0.7-2.6-1.8 0-1 0.6-1.9 2.7-1.9h3.2v1.7c-0.5 1.3-1.8 2-3.3 2zm16.3-12.4c0.9 0 1.5-0.6 1.5-1.4 0-0.7-0.7-1.3-1.5-1.3-0.8 0-1.4 0.6-1.4 1.4 0 0.7 0.6 1.3 1.4 1.3zm-1 13.9h2.1v-11.6h-2.1zm12.3-11.8c-1.8 0-3.3 0.7-4.2 1.9v-1.8h-2v11.7h2.1v-6c0-2.6 1.5-3.9 3.7-3.9 2 0 3.2 1.1 3.2 3.4v6.5h2.1v-6.7c0-3.5-2-5.1-4.9-5.1zm19.7 11.9c3.5 0 6.1-2.5 6.1-6 0-3.4-2.6-5.9-6.1-5.9-3.5 0-6.1 2.5-6.1 5.9 0 3.5 2.6 6 6.1 6zm0-1.8c-2.2 0-3.9-1.7-3.9-4.2 0-2.4 1.7-4 3.9-4 2.2 0 3.9 1.6 3.9 4 0 2.5-1.7 4.2-3.9 4.2zm17.9-14.6v6.4c-1-1.3-2.5-1.9-4.1-1.9-3.4 0-5.9 2.4-5.9 5.9 0 3.6 2.5 6 5.9 6 1.7 0 3.2-0.6 4.2-2v1.9h2v-16.3zm-3.9 14.6c-2.3 0-4-1.7-4-4.2 0-2.4 1.7-4 4-4 2.2 0 3.9 1.6 3.9 4 0 2.5-1.7 4.2-3.9 4.2zm11-12.2c0.9 0 1.5-0.6 1.5-1.4 0-0.8-0.6-1.4-1.5-1.4-0.8 0-1.4 0.6-1.4 1.4 0 0.8 0.6 1.4 1.4 1.4zm-1 13.9h2.1v-11.7h-2.1zm11.1 0.2c3.5 0 6.1-2.5 6.1-6 0-3.5-2.6-6-6.1-6-3.5 0-6 2.5-6 6 0 3.5 2.5 6 6 6zm0-1.9c-2.2 0-3.9-1.6-3.9-4.1 0-2.5 1.7-4.1 3.9-4.1 2.3 0 3.9 1.6 3.9 4.1 0 2.5-1.6 4.1-3.9 4.1zm9.2 1.9c0.8 0 1.5-0.7 1.5-1.6 0-0.8-0.7-1.5-1.5-1.5-0.8 0-1.5 0.7-1.5 1.5 0 0.9 0.7 1.6 1.5 1.6z"/><path class="n" d="m-170 717h-216.7c-22.4 0-40.5 18.1-40.5 40.5 0 22.4 18.1 40.6 40.5 40.6h216.7c22.4 0 40.6-18.2 40.6-40.6 0-22.4-18.2-40.5-40.6-40.5z"/><path class="c" d="m-351 768.3c4.6 0 7.1-2.3 7.1-7.2v-12.7h-11.4v3.6h6.8v9.4c0 2.1-0.9 3.2-2.7 3.2-1.4 0-2.6-0.7-3.7-2.1l-2.5 3c1.4 1.8 3.8 2.8 6.4 2.8zm21 0c6.2 0 10.7-4.2 10.7-10.1 0-5.9-4.5-10.1-10.7-10.1-6.2 0-10.7 4.3-10.7 10.1 0 5.8 4.5 10.1 10.7 10.1zm0-3.8c-3.5 0-6.1-2.6-6.1-6.3 0-3.7 2.6-6.3 6.1-6.3 3.5 0 6.2 2.6 6.2 6.3 0 3.7-2.7 6.3-6.2 6.3zm14.2 3.5h4.5v-19.6h-4.5zm22.6-19.6v11.9l-9.7-11.9h-3.8v19.6h4.5v-11.9l9.8 11.9h3.7v-19.6zm30.6 0v11.9l-9.8-11.9h-3.7v19.6h4.5v-11.9l9.7 11.9h3.8v-19.6zm18.6 19.9c6.1 0 10.7-4.2 10.7-10.1 0-5.9-4.6-10.1-10.7-10.1-6.2 0-10.8 4.3-10.8 10.1 0 5.8 4.6 10.1 10.8 10.1zm0-3.8c-3.5 0-6.2-2.6-6.2-6.3 0-3.7 2.7-6.3 6.2-6.3 3.5 0 6.1 2.6 6.1 6.3 0 3.7-2.6 6.3-6.1 6.3zm38.8-16.1l-4.6 13.9-4.5-13.9h-4.2l-4.6 13.8-4.4-13.8h-4.7l6.4 19.6h4.8l4.5-13.3 4.3 13.3h4.9l6.4-19.6z"/><path class="m" d="m-391.2 643.6c0 5.9-4.8 10.7-10.6 10.7-5.9 0-10.7-4.8-10.7-10.7 0-5.8 4.8-10.6 10.7-10.6 5.8 0 10.6 4.8 10.6 10.6z"/><path class="m" d="m-308.9 643.6c0 5.9-4.7 10.7-10.6 10.7-5.9 0-10.6-4.8-10.6-10.7 0-5.8 4.7-10.6 10.6-10.6 5.9 0 10.6 4.8 10.6 10.6z"/><path class="m" d="m-226.5 643.6c0 5.9-4.8 10.7-10.6 10.7-5.9 0-10.7-4.8-10.7-10.7 0-5.8 4.8-10.6 10.7-10.6 5.8 0 10.6 4.8 10.6 10.6z"/><path class="m" d="m-144.2 643.6c0 5.9-4.7 10.7-10.6 10.7-5.9 0-10.6-4.8-10.6-10.7 0-5.8 4.7-10.6 10.6-10.6 5.9 0 10.6 4.8 10.6 10.6z"/><path class="c" d="m-614.3 198h24.1v-52.6h20.8v-18.6h-65.7v18.6h20.8zm97.3-71.2v25.2h-22.2v-25.2h-24v71.2h24v-26.2h22.2v26.2h24v-71.2zm59.2 53.1v-9.4h30.1v-17.3h-30.1v-8.3h34.3v-18.1h-57.9v71.2h59.2v-18.1zm133.3-35v-18.1h-57.9v71.2h24v-22.8h29.7v-18.1h-29.7v-12.2zm41.7 54.7c21.9 0 34.7-12.3 34.7-33.6v-39.2h-23.6v38.4c0 10.9-4.1 15-10.9 15-6.7 0-10.8-4.1-10.8-15v-38.4h-24.1v39.2c0 21.3 12.9 33.6 34.7 33.6zm60.2-1.6h24v-52.6h20.8v-18.6h-65.7v18.6h20.9zm84.1 1.6c21.9 0 34.7-12.3 34.7-33.6v-39.2h-23.6v38.4c0 10.9-4.2 15-10.9 15-6.7 0-10.9-4.1-10.9-15v-38.4h-24v39.2c0 21.3 12.8 33.6 34.7 33.6zm88.3-1.6h25.6l-14.9-22c8.5-4.3 13.4-12.1 13.4-22.4 0-16.4-12.6-26.8-32.4-26.8h-34.3v71.2h24v-17.9h6.5zm-0.1-44.4c0 5.2-3.2 8.4-9.8 8.4h-8.7v-16.7h8.7c6.6 0 9.8 3.2 9.8 8.3zm56.9 26.3v-9.4h30.1v-17.3h-30.1v-8.3h34.3v-18.1h-57.9v71.2h59.2v-18.1z"/><path class="o" d="m-638 286h24v-52.6h20.9v-18.6h-65.7v18.6h20.8zm74.7-18.1v-9.4h30.1v-17.3h-30.1v-8.3h34.3v-18.1h-57.9v71.2h59.2v-18.1zm81.7 19.7c14 0 24.9-5.1 32-14.2l-15.2-13.5c-4.2 5.2-9.2 8.3-15.6 8.3-9.9 0-16.6-6.9-16.6-17.8 0-10.9 6.7-17.8 16.6-17.8 6.4 0 11.4 3 15.6 8.3l15.2-13.5c-7.1-9.2-18-14.2-32-14.2-22.9 0-39.7 15.3-39.7 37.2 0 21.9 16.8 37.2 39.7 37.2zm85.1-72.8v25.2h-22.2v-25.2h-24v71.2h24v-26.2h22.2v26.2h24v-71.2zm82.4 0v32.3l-27.1-32.3h-19.7v71.2h23.4v-32.4l27 32.4h19.8v-71.2zm72.3 72.8c23.2 0 40.2-15.6 40.2-37.2 0-21.6-17-37.2-40.2-37.2-23.2 0-40.2 15.6-40.2 37.2 0 21.6 17 37.2 40.2 37.2zm0-19.4c-8.8 0-16-6.7-16-17.8 0-11.1 7.2-17.8 16-17.8 8.9 0 16 6.7 16 17.8 0 11.1-7.1 17.8-16 17.8zm49 17.8h56.1v-18.6h-32.1v-52.6h-24zm99 1.6c23.2 0 40.2-15.7 40.2-37.2 0-21.6-17-37.3-40.2-37.3-23.2 0-40.1 15.7-40.1 37.3 0 21.5 16.9 37.2 40.1 37.2zm0-19.4c-8.8 0-15.9-6.7-15.9-17.8 0-11.1 7.1-17.8 15.9-17.8 8.9 0 16 6.7 16 17.8 0 11.1-7.1 17.8-16 17.8zm96.1-1.7c-3 1.2-5.8 1.7-8.8 1.7-10.2 0-17-7.1-17-17.8 0-11 6.8-17.8 17.3-17.8 6.3 0 11.5 2.6 16 7.8l15.4-13.5c-7.2-8.9-18.5-13.8-32.6-13.8-23.5 0-40.3 15.4-40.3 37.3 0 21.9 16.8 37.2 39.8 37.2 10.5 0 22.4-3.1 31-9v-30.2h-20.8zm100.3-51.6h-23.2l-14.6 24.6-14.6-24.6h-25.3l26.8 45v26.2h24v-25.9z"/><path class="l" d="m-147.7 354.2c0-2.6-2.1-4.7-4.7-4.7-2.6 0-4.7 2.1-4.7 4.7 0 2.6 2.1 4.8 4.7 4.8 2.6 0 4.7-2.2 4.7-4.8z"/><path class="l" d="m-147.7 384c0-2.6-2.1-4.7-4.7-4.7-2.6 0-4.7 2.1-4.7 4.7 0 2.6 2.1 4.7 4.7 4.7 2.6 0 4.7-2.1 4.7-4.7z"/><path class="l" d="m-147.7 413.8c0-2.6-2.1-4.8-4.7-4.8-2.6 0-4.7 2.2-4.7 4.8 0 2.6 2.1 4.7 4.7 4.7 2.6 0 4.7-2.1 4.7-4.7z"/><path class="l" d="m-175.7 354.2c0-2.6-2.1-4.7-4.7-4.7-2.6 0-4.7 2.1-4.7 4.7 0 2.6 2.1 4.8 4.7 4.8 2.6 0 4.7-2.2 4.7-4.8z"/><path class="l" d="m-175.7 384c0-2.6-2.1-4.7-4.7-4.7-2.6 0-4.7 2.1-4.7 4.7 0 2.6 2.1 4.7 4.7 4.7 2.6 0 4.7-2.1 4.7-4.7z"/><path class="l" d="m-175.7 413.8c0-2.6-2.1-4.8-4.7-4.8-2.6 0-4.7 2.2-4.7 4.8 0 2.6 2.1 4.7 4.7 4.7 2.6 0 4.7-2.1 4.7-4.7z"/><path class="l" d="m-203.7 354.2c0-2.6-2.1-4.7-4.7-4.7-2.6 0-4.7 2.1-4.7 4.7 0 2.6 2.1 4.8 4.7 4.8 2.6 0 4.7-2.2 4.7-4.8z"/><path class="l" d="m-203.7 384c0-2.6-2.1-4.7-4.7-4.7-2.6 0-4.7 2.1-4.7 4.7 0 2.6 2.1 4.7 4.7 4.7 2.6 0 4.7-2.1 4.7-4.7z"/><path class="l" d="m-203.7 413.8c0-2.6-2.1-4.8-4.7-4.8-2.6 0-4.7 2.2-4.7 4.8 0 2.6 2.1 4.7 4.7 4.7 2.6 0 4.7-2.1 4.7-4.7z"/><path class="l" d="m-231.6 354.2c0-2.6-2.2-4.7-4.8-4.7-2.6 0-4.7 2.1-4.7 4.7 0 2.6 2.1 4.8 4.7 4.8 2.6 0 4.8-2.2 4.8-4.8z"/><path class="l" d="m-231.6 384c0-2.6-2.2-4.7-4.8-4.7-2.6 0-4.7 2.1-4.7 4.7 0 2.6 2.1 4.7 4.7 4.7 2.6 0 4.8-2.1 4.8-4.7z"/><path class="l" d="m-231.6 413.8c0-2.6-2.2-4.8-4.8-4.8-2.6 0-4.7 2.2-4.7 4.8 0 2.6 2.1 4.7 4.7 4.7 2.6 0 4.8-2.1 4.8-4.7z"/><path class="l" d="m-259.6 354.2c0-2.6-2.1-4.7-4.7-4.7-2.6 0-4.7 2.1-4.7 4.7 0 2.6 2.1 4.8 4.7 4.8 2.6 0 4.7-2.2 4.7-4.8z"/><path class="l" d="m-259.6 384c0-2.6-2.1-4.7-4.7-4.7-2.6 0-4.7 2.1-4.7 4.7 0 2.6 2.1 4.7 4.7 4.7 2.6 0 4.7-2.1 4.7-4.7z"/><path class="l" d="m-259.6 413.8c0-2.6-2.1-4.8-4.7-4.8-2.6 0-4.7 2.2-4.7 4.8 0 2.6 2.1 4.7 4.7 4.7 2.6 0 4.7-2.1 4.7-4.7z"/><path class="l" d="m-287.6 354.2c0-2.6-2.1-4.7-4.7-4.7-2.6 0-4.7 2.1-4.7 4.7 0 2.6 2.1 4.8 4.7 4.8 2.6 0 4.7-2.2 4.7-4.8z"/><path class="l" d="m-287.6 384c0-2.6-2.1-4.7-4.7-4.7-2.6 0-4.7 2.1-4.7 4.7 0 2.6 2.1 4.7 4.7 4.7 2.6 0 4.7-2.1 4.7-4.7z"/><path class="l" d="m-287.6 413.8c0-2.6-2.1-4.8-4.7-4.8-2.6 0-4.7 2.2-4.7 4.8 0 2.6 2.1 4.7 4.7 4.7 2.6 0 4.7-2.1 4.7-4.7z"/><path class="l" d="m-315.6 354.2c0-2.6-2.1-4.7-4.7-4.7-2.6 0-4.7 2.1-4.7 4.7 0 2.6 2.1 4.8 4.7 4.8 2.6 0 4.7-2.2 4.7-4.8z"/><path class="l" d="m-315.6 384c0-2.6-2.1-4.7-4.7-4.7-2.6 0-4.7 2.1-4.7 4.7 0 2.6 2.1 4.7 4.7 4.7 2.6 0 4.7-2.1 4.7-4.7z"/><path class="l" d="m-315.6 413.8c0-2.6-2.1-4.8-4.7-4.8-2.6 0-4.7 2.2-4.7 4.8 0 2.6 2.1 4.7 4.7 4.7 2.6 0 4.7-2.1 4.7-4.7z"/><path class="l" d="m-343.6 354.2c0-2.6-2.1-4.7-4.7-4.7-2.6 0-4.7 2.1-4.7 4.7 0 2.6 2.1 4.8 4.7 4.8 2.6 0 4.7-2.2 4.7-4.8z"/><path class="l" d="m-343.6 384c0-2.6-2.1-4.7-4.7-4.7-2.6 0-4.7 2.1-4.7 4.7 0 2.6 2.1 4.7 4.7 4.7 2.6 0 4.7-2.1 4.7-4.7z"/><path class="l" d="m-343.6 413.8c0-2.6-2.1-4.8-4.7-4.8-2.6 0-4.7 2.2-4.7 4.8 0 2.6 2.1 4.7 4.7 4.7 2.6 0 4.7-2.1 4.7-4.7z"/><path class="l" d="m-371.5 354.2c0-2.6-2.1-4.7-4.7-4.7-2.6 0-4.7 2.1-4.7 4.7 0 2.6 2.1 4.8 4.7 4.8 2.6 0 4.7-2.2 4.7-4.8z"/><path class="l" d="m-371.5 384c0-2.6-2.1-4.7-4.7-4.7-2.6 0-4.7 2.1-4.7 4.7 0 2.6 2.1 4.7 4.7 4.7 2.6 0 4.7-2.1 4.7-4.7z"/><path class="l" d="m-371.5 413.8c0-2.6-2.1-4.8-4.7-4.8-2.6 0-4.7 2.2-4.7 4.8 0 2.6 2.1 4.7 4.7 4.7 2.6 0 4.7-2.1 4.7-4.7z"/><path class="l" d="m-399.5 354.2c0-2.6-2.1-4.7-4.7-4.7-2.6 0-4.7 2.1-4.7 4.7 0 2.6 2.1 4.8 4.7 4.8 2.6 0 4.7-2.2 4.7-4.8z"/><path class="l" d="m-399.5 384c0-2.6-2.1-4.7-4.7-4.7-2.6 0-4.7 2.1-4.7 4.7 0 2.6 2.1 4.7 4.7 4.7 2.6 0 4.7-2.1 4.7-4.7z"/><path class="l" d="m-399.5 413.8c0-2.6-2.1-4.8-4.7-4.8-2.6 0-4.7 2.2-4.7 4.8 0 2.6 2.1 4.7 4.7 4.7 2.6 0 4.7-2.1 4.7-4.7z"/></g></svg>