<svg width="1200" height="700" viewBox="0 0 1200 700" fill="none" xmlns="http://www.w3.org/2000/svg">
<path fill-rule="evenodd" clip-rule="evenodd" d="M929.492 135.356L945.327 148.551L930.092 175.062L910.778 167.865C903.821 174.222 895.423 179.141 886.187 182.02L882.708 202.413H852.238L848.759 182.02C839.522 179.141 831.125 174.222 824.167 167.865L804.854 175.062L789.619 148.551L805.454 135.356C804.374 130.797 803.774 126.119 803.774 121.2C803.774 116.282 804.374 111.604 805.454 107.045L789.619 93.8496L804.854 67.4585L824.167 74.6561C831.125 68.1783 839.522 63.26 848.759 60.3809L852.238 40.1078H882.708L886.187 60.3809C895.423 63.26 903.821 68.1783 910.778 74.6561L930.092 67.4585L945.327 93.8496L929.492 107.045C930.572 111.604 931.051 116.282 931.051 121.2C931.051 126.119 930.572 130.797 929.492 135.356ZM896.503 121.2C896.503 105.126 883.547 92.1702 867.473 92.1702C851.398 92.1702 838.443 105.126 838.443 121.2C838.443 137.275 851.398 150.231 867.473 150.231C883.547 150.231 896.503 137.275 896.503 121.2Z" fill="white"/>
<path fill-rule="evenodd" clip-rule="evenodd" d="M1043.09 79.2146L1057.13 77.895L1062.65 98.2882L1049.69 104.166C1049.45 110.644 1047.77 117.122 1044.65 123L1052.81 134.516L1038.06 149.391L1026.42 141.234C1020.54 144.353 1014.06 146.032 1007.59 146.272L1001.71 159.108L981.434 153.709L982.754 139.554C979.955 137.875 977.396 135.835 975.077 133.436C972.677 131.117 970.638 128.558 968.959 125.759L954.803 127.078L949.405 106.805L962.241 100.927C962.481 94.4494 964.16 87.9716 967.279 82.0936L959.122 70.4575L973.997 55.7025L985.513 63.8598C991.391 60.7408 997.869 59.0614 1004.35 58.8215L1010.22 45.8658L1030.62 51.384L1029.18 65.4192C1031.98 67.1787 1034.58 69.218 1036.98 71.5372C1039.29 73.9364 1041.33 76.4955 1043.09 79.2146ZM1020.06 88.4515C1012.26 80.5341 999.668 80.5341 991.871 88.4515C984.074 96.2488 984.074 108.845 991.871 116.642C999.668 124.439 1012.26 124.439 1020.06 116.642C1027.86 108.845 1027.86 96.2488 1020.06 88.4515Z" fill="white"/>
<path fill-rule="evenodd" clip-rule="evenodd" d="M984.793 178.421L993.43 171.463L1005.67 182.38L999.787 191.736C1002.43 196.055 1004.11 200.973 1004.59 206.132L1014.78 210.21L1011.42 226.165L1000.51 225.805C997.988 230.363 994.509 234.202 990.311 237.081L991.99 247.997L976.515 253.156L971.357 243.319C968.798 243.399 966.239 243.199 963.68 242.719C961.12 242.159 958.721 241.36 956.482 240.32L947.845 247.158L935.609 236.241L941.487 226.885C938.848 222.566 937.289 217.648 936.809 212.489L926.492 208.531L929.851 192.456L940.887 192.936C943.287 188.378 946.885 184.539 950.964 181.54L949.284 170.624L964.879 165.585L970.037 175.302C972.517 175.222 975.036 175.462 977.595 176.022C980.154 176.582 982.553 177.381 984.793 178.421ZM973.876 194.136C965.359 192.336 957.202 197.734 955.402 206.132C953.723 214.529 959.121 222.806 967.518 224.605C975.916 226.285 984.073 220.887 985.872 212.489C987.672 204.092 982.273 195.815 973.876 194.136Z" fill="white"/>
<path fill-rule="evenodd" clip-rule="evenodd" d="M320.457 211.05L336.291 224.126L321.057 250.637L301.743 243.439C294.785 249.917 286.388 254.835 277.151 257.594L273.673 277.987H243.203L239.724 257.594C230.487 254.835 222.09 249.917 215.132 243.439L195.819 250.637L180.584 224.126L196.419 211.05C195.339 206.492 194.859 201.693 194.859 196.775C194.859 191.976 195.339 187.178 196.419 182.62L180.584 169.544L195.819 143.033L215.132 150.231C222.09 143.753 230.487 138.834 239.724 135.955L243.203 115.682H273.673L277.151 135.955C286.388 138.834 294.785 143.753 301.743 150.231L321.057 143.033L336.291 169.544L320.457 182.62C321.536 187.178 322.136 191.976 322.136 196.775C322.136 201.693 321.536 206.492 320.457 211.05ZM287.468 196.775C287.468 180.82 274.512 167.745 258.438 167.745C242.363 167.745 229.408 180.82 229.408 196.775C229.408 212.849 242.363 225.925 258.438 225.925C274.512 225.925 287.468 212.849 287.468 196.775Z" fill="white"/>
<path fill-rule="evenodd" clip-rule="evenodd" d="M390.393 105.966L401.309 114.963L390.873 133.196L377.557 128.158C372.759 132.597 367.001 136.075 360.643 137.995L358.244 151.91H337.251L334.852 137.995C328.494 136.075 322.736 132.597 317.938 128.158L304.622 133.196L294.186 114.963L305.102 105.966C304.382 102.767 304.022 99.4878 304.022 96.1289C304.022 92.7701 304.382 89.5312 305.102 86.4122L294.186 77.2953L304.622 59.1814L317.938 64.0998C322.736 59.6613 328.494 56.3024 334.852 54.2631L337.251 40.3478H358.244L360.643 54.2631C367.001 56.3024 372.759 59.6613 377.557 64.0998L390.873 59.1814L401.309 77.2953L390.393 86.4122C391.113 89.5312 391.473 92.7701 391.473 96.1289C391.473 99.4878 391.113 102.767 390.393 105.966ZM367.721 96.1289C367.721 85.0927 358.844 76.2157 347.807 76.2157C336.771 76.2157 327.774 85.0927 327.774 96.1289C327.774 107.165 336.771 116.162 347.807 116.162C358.844 116.162 367.721 107.165 367.721 96.1289Z" fill="white"/>
<path d="M206.015 366.038H200.977V357.641H206.015V366.038Z" fill="#1A7FD3"/>
<path d="M189.82 575.847H173.146V570.809H189.82V575.847ZM158.031 575.847H144.356C142.996 575.847 141.716 575.607 140.517 575.127L142.316 570.329C142.956 570.569 143.636 570.689 144.356 570.689H158.031V575.847ZM138.358 560.132H133.319V543.338H138.358V560.132ZM138.358 528.343H133.319V511.669H138.358V528.343ZM138.358 496.554H133.319V479.759H138.358V496.554ZM138.358 464.764H133.319V448.09H138.358V464.764ZM139.677 435.014L135.719 431.775C137.878 429.136 140.997 427.697 144.356 427.697H153.473V432.735H144.356C142.556 432.735 140.877 433.575 139.677 435.014ZM185.262 432.735H168.587V427.697H185.262V432.735ZM201.456 430.576L198.457 426.497C200.017 425.298 200.976 423.618 200.976 421.699V412.942H206.015V421.699C206.015 425.178 204.335 428.537 201.456 430.576ZM206.015 397.827H200.976V381.153H206.015V397.827Z" fill="black"/>
<path d="M213.453 575.847H204.936V570.809H213.453V575.847Z" fill="#1A7FD3"/>
<path d="M239.005 304.738H233.847V296.221H239.005V304.738Z" fill="#1A7FD3"/>
<path d="M239.005 281.466H233.847V264.912H239.005V281.466ZM239.005 250.157H233.847V233.722H239.005V250.157ZM239.005 218.847H233.847V202.413H239.005V218.847ZM239.005 187.538H233.847V170.984H239.005V187.538ZM239.005 156.349H233.847V139.794H239.005V156.349ZM239.005 125.039H233.847V108.605H239.005V125.039ZM243.323 99.0079L241.884 94.0896C242.844 93.8497 243.843 93.7297 244.883 93.7297H259.038V98.768H244.883C244.323 98.768 243.803 98.848 243.323 99.0079ZM540.823 98.768H524.269V93.7297H540.823V98.768ZM509.514 98.768H492.959V93.6097H509.514V98.768ZM478.204 98.768H461.65V93.7297H478.204V98.768ZM446.895 98.768H430.34V93.6097H446.895V98.768ZM415.585 98.768H399.031V93.7297H415.585V98.768ZM384.276 98.768H367.841V93.7297H384.276V98.768ZM352.966 98.768H336.532V93.6097H352.966V98.768ZM321.657 98.768H305.223V93.7297H321.657V98.768ZM290.348 98.768H273.913V93.6097H290.348V98.768Z" fill="black"/>
<path d="M564.094 98.648H555.577V93.6097H564.094V98.648Z" fill="#1A7FD3"/>
<path d="M1041.65 213.689H1036.5V198.814H1041.65V213.689ZM1041.65 183.579H1036.5V166.545H1041.65V183.579ZM1041.65 151.31H1036.5V134.396H1041.65V151.31ZM1041.65 119.041H1036.5V102.007H1041.65V119.041ZM1029.66 98.768H1012.74V93.6097H1029.66V98.768ZM997.388 98.768H980.474V93.7297H997.388V98.768ZM965.119 98.768H948.205V93.6097H965.119V98.768ZM932.85 98.768H915.936V93.7297H932.85V98.768ZM900.581 98.768H883.667V93.6097H900.581V98.768ZM868.312 98.768H851.278V93.7297H868.312V98.768ZM836.043 98.768H819.008V93.6097H836.043V98.768ZM803.774 98.768H786.739V93.7297H803.774V98.768ZM771.504 98.768H754.47V93.6097H771.504V98.768ZM739.235 98.768H722.201V93.7297H739.235V98.768Z" fill="black"/>
<path d="M1017.3 366.158H1012.26V349.243H1017.3V366.158ZM1017.3 333.888H1012.26V316.854H1017.3V333.888ZM1041.65 316.614H1027.26V311.576H1036.49V308.937H1041.65V316.614ZM1041.65 293.582H1036.49V276.548H1041.65V293.582Z" fill="black"/>
<path d="M764.667 675.173H492.959V661.498H764.667V675.173Z" fill="black"/>
<path d="M712.125 661.498H545.501L568.293 583.404H689.212L712.125 661.498Z" fill="#D4D4D4"/>
<path d="M688.753 583.3H567.834L560.637 607.891H696.071L688.753 583.3Z" fill="#868686"/>
<path d="M947.006 129.837C947.006 120.481 939.329 112.803 929.972 112.803H325.256C315.899 112.803 308.222 120.481 308.222 129.837V515.387H947.006V129.837Z" fill="black"/>
<path d="M316.258 515.387V129.838C316.258 124.199 320.816 119.641 326.454 119.641H931.17C936.808 119.641 941.367 124.199 941.367 129.838V515.387H316.258Z" fill="#5E5E5E"/>
<path d="M309.422 515.387V566.37C309.422 575.727 317.099 583.404 326.456 583.404H931.172C940.529 583.404 948.206 575.727 948.206 566.37V515.387H309.422Z" fill="white"/>
<path d="M643.508 549.456C643.508 557.493 636.91 564.091 628.753 564.091C620.716 564.091 614.118 557.493 614.118 549.456C614.118 541.298 620.716 534.701 628.753 534.701C636.91 534.701 643.508 541.298 643.508 549.456Z" fill="#5E5E5E"/>
<path d="M926.132 134.876H331.493V155.269H926.132V134.876Z" fill="#FFD89F"/>
<path d="M331.493 155.269V500.152H926.132V155.269H331.493Z" fill="#FFFCF6"/>
<path d="M349.007 145.072C349.007 147.951 346.728 150.111 343.969 150.111C341.21 150.111 338.931 147.951 338.931 145.072C338.931 142.313 341.21 140.154 343.969 140.154C346.728 140.154 349.007 142.313 349.007 145.072Z" fill="#F4579C"/>
<path d="M362.563 145.072C362.563 147.951 360.404 150.111 357.525 150.111C354.766 150.111 352.606 147.951 352.606 145.072C352.606 142.313 354.766 140.154 357.525 140.154C360.404 140.154 362.563 142.313 362.563 145.072Z" fill="white"/>
<path d="M376.119 145.072C376.119 147.951 373.959 150.111 371.08 150.111C368.321 150.111 366.162 147.951 366.162 145.072C366.162 142.313 368.321 140.154 371.08 140.154C373.959 140.154 376.119 142.313 376.119 145.072Z" fill="#0067BF"/>
<path d="M669.3 324.532H363.523C358.845 324.532 355.006 320.813 355.006 316.015V182.62C355.006 177.941 358.845 174.103 363.523 174.103H669.3C673.978 174.103 677.817 177.941 677.817 182.62V316.015C677.817 320.813 673.978 324.532 669.3 324.532Z" fill="#F9F9F9"/>
<path d="M800.655 244.999H696.41C691.731 244.999 688.013 241.16 688.013 236.481V182.62C688.013 177.941 691.731 174.103 696.41 174.103H800.655C805.333 174.103 809.172 177.941 809.172 182.62V236.481C809.172 241.16 805.333 244.999 800.655 244.999Z" fill="#F9F9F9"/>
<path d="M774.265 204.572L759.509 225.565L733.838 189.098L702.889 232.883H754.351H764.668H794.178L774.265 204.572Z" fill="#D2D2D2"/>
<path d="M767.067 193.056C767.067 196.895 763.948 200.014 760.109 200.014C756.27 200.014 753.271 196.895 753.271 193.056C753.271 189.337 756.27 186.218 760.109 186.218C763.948 186.218 767.067 189.337 767.067 193.056Z" fill="#D2D2D2"/>
<path d="M800.655 324.532H696.41C691.731 324.532 688.013 320.813 688.013 316.015V262.153C688.013 257.474 691.731 253.636 696.41 253.636H800.655C805.333 253.636 809.172 257.474 809.172 262.153V316.015C809.172 320.813 805.333 324.532 800.655 324.532Z" fill="#F9F9F9"/>
<path d="M774.863 289.144C774.863 303.659 763.107 315.415 748.592 315.415C734.077 315.415 722.201 303.659 722.201 289.144C722.201 274.508 734.077 262.752 748.592 262.752C763.107 262.752 774.863 274.508 774.863 289.144Z" fill="white"/>
<path d="M763.948 289.144L738.877 274.629V303.539L763.948 289.144Z" fill="#D2D2D2"/>
<path d="M897.583 324.532H829.206C824.527 324.532 820.809 320.813 820.809 316.015V182.62C820.809 177.941 824.527 174.103 829.206 174.103H897.583C902.261 174.103 906.1 177.941 906.1 182.62V316.015C906.1 320.813 902.261 324.532 897.583 324.532Z" fill="#F9F9F9"/>
<path fill-rule="evenodd" clip-rule="evenodd" d="M886.786 234.082C885.706 235.042 884.147 235.042 883.187 234.082L869.991 221.007C862.554 226.645 851.758 226.165 844.92 219.327C837.482 211.89 837.482 199.774 844.92 192.336C852.357 184.899 864.473 184.899 871.911 192.336C878.748 199.174 879.348 209.85 873.59 217.408L886.786 230.483C887.745 231.443 887.745 233.123 886.786 234.082ZM868.312 195.935C862.914 190.417 854.037 190.417 848.519 195.935C843.121 201.333 843.121 210.21 848.519 215.728C854.037 221.127 862.914 221.127 868.312 215.728C873.83 210.21 873.83 201.333 868.312 195.935Z" fill="white"/>
<path d="M863.394 252.436H831.484V246.678H863.394V252.436Z" fill="#D2D2D2"/>
<path d="M895.663 260.593H831.484V257.115H895.663V260.593Z" fill="#D2D2D2"/>
<path d="M895.663 266.471H831.484V263.112H895.663V266.471Z" fill="#D2D2D2"/>
<path d="M871.431 272.469H831.484V268.99H871.431V272.469Z" fill="#D2D2D2"/>
<path d="M895.663 281.346H831.484V277.988H895.663V281.346Z" fill="#D2D2D2"/>
<path d="M895.663 287.344H831.484V283.866H895.663V287.344Z" fill="#D2D2D2"/>
<path d="M895.663 293.222H831.484V289.864H895.663V293.222Z" fill="#D2D2D2"/>
<path d="M847.439 299.22H831.484V295.741H847.439V299.22Z" fill="#D2D2D2"/>
<path d="M895.663 308.217H831.484V304.738H895.663V308.217Z" fill="#D2D2D2"/>
<path d="M882.467 314.095H831.484V310.736H882.467V314.095Z" fill="#D2D2D2"/>
<path d="M407.548 341.566H355.006V338.207H407.548V341.566Z" fill="#D2D2D2"/>
<path d="M516.351 348.164H355.006V344.685H516.351V348.164Z" fill="#D2D2D2"/>
<path d="M516.351 354.762H355.006V351.283H516.351V354.762Z" fill="#D2D2D2"/>
<path d="M516.351 361.359H355.006V357.88H516.351V361.359Z" fill="#D2D2D2"/>
<path d="M471.247 367.957H355.006V364.478H471.247V367.957Z" fill="#D2D2D2"/>
<path d="M642.429 341.566H548.141V338.207H642.429V341.566Z" fill="#D2D2D2"/>
<path d="M709.486 348.164H548.141V344.685H709.486V348.164Z" fill="#D2D2D2"/>
<path d="M584.248 354.762H548.141V351.283H584.248V354.762Z" fill="#D2D2D2"/>
<path d="M709.486 361.359H548.141V357.88H709.486V361.359Z" fill="#D2D2D2"/>
<path d="M609.68 367.957H548.141V364.478H609.68V367.957Z" fill="#D2D2D2"/>
<path d="M809.171 341.566H741.154V338.207H809.171V341.566Z" fill="#D2D2D2"/>
<path d="M902.62 348.164H741.154V344.685H902.62V348.164Z" fill="#D2D2D2"/>
<path d="M902.62 354.762H741.154V351.283H902.62V354.762Z" fill="#D2D2D2"/>
<path d="M902.62 361.359H741.154V357.88H902.62V361.359Z" fill="#D2D2D2"/>
<path d="M774.863 367.957H741.154V364.478H774.863V367.957Z" fill="#D2D2D2"/>
<path d="M457.811 458.166H355.006V454.688H457.811V458.166Z" fill="#D2D2D2"/>
<path d="M516.351 464.764H355.006V461.285H516.351V464.764Z" fill="#D2D2D2"/>
<path d="M516.351 471.362H355.006V467.883H516.351V471.362Z" fill="#D2D2D2"/>
<path d="M516.351 477.84H355.006V474.481H516.351V477.84Z" fill="#D2D2D2"/>
<path d="M406.468 484.438H355.006V481.079H406.468V484.438Z" fill="#D2D2D2"/>
<path d="M580.05 458.166H548.141V454.688H580.05V458.166Z" fill="#D2D2D2"/>
<path d="M709.486 464.764H548.141V461.285H709.486V464.764Z" fill="#D2D2D2"/>
<path d="M709.486 471.362H548.141V467.883H709.486V471.362Z" fill="#D2D2D2"/>
<path d="M709.486 477.84H548.141V474.481H709.486V477.84Z" fill="#D2D2D2"/>
<path d="M653.465 484.438H548.141V481.079H653.465V484.438Z" fill="#D2D2D2"/>
<path d="M828.365 458.166H741.154V454.688H828.365V458.166Z" fill="#D2D2D2"/>
<path d="M902.62 464.764H741.154V461.285H902.62V464.764Z" fill="#D2D2D2"/>
<path d="M902.62 471.362H741.154V467.883H902.62V471.362Z" fill="#D2D2D2"/>
<path d="M902.62 477.84H741.154V474.481H902.62V477.84Z" fill="#D2D2D2"/>
<path d="M845.759 484.438H741.154V481.079H845.759V484.438Z" fill="#D2D2D2"/>
<path d="M520.07 445.211H363.523C358.845 445.211 355.006 441.372 355.006 436.694V390.869C355.006 386.191 358.845 382.352 363.523 382.352H520.07C524.749 382.352 528.587 386.191 528.587 390.869V436.694C528.587 441.372 524.749 445.211 520.07 445.211Z" fill="#F9F9F9"/>
<path d="M707.086 445.211H550.539C545.86 445.211 542.021 441.372 542.021 436.694V390.869C542.021 386.191 545.86 382.352 550.539 382.352H707.086C711.764 382.352 715.603 386.191 715.603 390.869V436.694C715.603 441.372 711.764 445.211 707.086 445.211Z" fill="#F9F9F9"/>
<path d="M894.103 445.211H737.556C732.878 445.211 729.039 441.372 729.039 436.694V390.869C729.039 386.191 732.878 382.352 737.556 382.352H894.103C898.782 382.352 902.62 386.191 902.62 390.869V436.694C902.62 441.372 898.782 445.211 894.103 445.211Z" fill="#F9F9F9"/>
<path d="M363.522 428.177V399.266C363.522 394.588 367.361 390.869 372.04 390.869H433.339C438.017 390.869 441.856 394.588 441.856 399.266V428.177C441.856 432.855 438.017 436.694 433.339 436.694H372.04C367.361 436.694 363.522 432.855 363.522 428.177Z" fill="white"/>
<path d="M420.744 410.303L410.427 425.058L392.193 399.386L370.48 430.216H406.708H414.026H434.779L420.744 410.303Z" fill="#D2D2D2"/>
<path d="M415.705 402.146C415.705 404.905 413.546 407.064 410.787 407.064C408.148 407.064 405.988 404.905 405.988 402.146C405.988 399.506 408.148 397.347 410.787 397.347C413.546 397.347 415.705 399.506 415.705 402.146Z" fill="#D2D2D2"/>
<path d="M549.34 428.177V399.266C549.34 394.588 553.059 390.869 557.857 390.869H619.156C623.835 390.869 627.553 394.588 627.553 399.266V428.177C627.553 432.855 623.835 436.694 619.156 436.694H557.857C553.059 436.694 549.34 432.855 549.34 428.177Z" fill="white"/>
<path d="M606.561 410.303L596.124 425.058L578.01 399.386L556.298 430.216H592.526H599.843H620.596L606.561 410.303Z" fill="#D2D2D2"/>
<path d="M601.521 402.146C601.521 404.905 599.242 407.064 596.603 407.064C593.964 407.064 591.805 404.905 591.805 402.146C591.805 399.506 593.964 397.347 596.603 397.347C599.242 397.347 601.521 399.506 601.521 402.146Z" fill="#D2D2D2"/>
<path d="M629.952 428.177V399.266C629.952 394.588 633.791 390.869 638.469 390.869H699.769C704.447 390.869 708.286 394.588 708.286 399.266V428.177C708.286 432.855 704.447 436.694 699.769 436.694H638.469C633.791 436.694 629.952 432.855 629.952 428.177Z" fill="white"/>
<path d="M683.574 413.782C683.574 421.699 677.096 428.297 669.179 428.297C661.142 428.297 654.664 421.699 654.664 413.782C654.664 405.744 661.142 399.267 669.179 399.267C677.096 399.267 683.574 405.744 683.574 413.782Z" fill="#F9F9F9"/>
<path d="M677.576 413.782L663.78 405.744V421.699L677.576 413.782Z" fill="#D2D2D2"/>
<path d="M474.605 402.145H452.652V398.787H474.605V402.145Z" fill="#D2D2D2"/>
<path d="M520.07 408.743H452.652V405.264H520.07V408.743Z" fill="#D2D2D2"/>
<path d="M520.07 415.341H452.652V411.862H520.07V415.341Z" fill="#D2D2D2"/>
<path d="M520.07 421.939H452.652V418.46H520.07V421.939Z" fill="#D2D2D2"/>
<path d="M501.236 428.537H452.652V425.058H501.236V428.537Z" fill="#D2D2D2"/>
<path d="M737.556 428.177V399.266C737.556 394.588 741.274 390.869 745.953 390.869H807.252C812.051 390.869 815.769 394.588 815.769 399.266V428.177C815.769 432.855 812.051 436.694 807.252 436.694H745.953C741.274 436.694 737.556 432.855 737.556 428.177Z" fill="white"/>
<path d="M794.777 410.303L784.34 425.058L766.226 399.386L744.514 430.216H780.741H788.059H808.812L794.777 410.303Z" fill="#D2D2D2"/>
<path d="M789.618 402.146C789.618 404.905 787.459 407.064 784.82 407.064C782.181 407.064 779.901 404.905 779.901 402.146C779.901 399.506 782.181 397.347 784.82 397.347C787.459 397.347 789.618 399.506 789.618 402.146Z" fill="#D2D2D2"/>
<path d="M875.269 402.145H826.686V398.787H875.269V402.145Z" fill="#D2D2D2"/>
<path d="M894.103 408.743H826.686V405.264H894.103V408.743Z" fill="#D2D2D2"/>
<path d="M860.394 415.341H826.686V411.862H860.394V415.341Z" fill="#D2D2D2"/>
<path d="M894.103 421.939H826.686V418.46H894.103V421.939Z" fill="#D2D2D2"/>
<path d="M875.269 428.537H826.686V425.058H875.269V428.537Z" fill="#D2D2D2"/>
<path d="M311.689 470.989L167.258 557.24H311.689V470.989Z" fill="#FF9C0E"/>
<path d="M233.597 546.684L222.2 533.128H152.504V546.684V555.441V650.929H326.325V546.684H233.597Z" fill="#FFD89F"/>
<path d="M1103.12 337.046H963.843C959.165 337.046 955.326 340.765 955.326 345.443V441.89L906.143 470.321L955.326 498.751V588.241C955.326 592.919 959.165 596.758 963.843 596.758H1103.12C1107.79 596.758 1111.63 592.919 1111.63 588.241V345.443C1111.63 340.765 1107.79 337.046 1103.12 337.046Z" fill="#FFD89F"/>
<path d="M1045.77 508.108V428.935C1057.29 424.137 1065.33 412.86 1065.33 399.545C1065.33 386.349 1057.29 375.073 1045.77 370.275V394.267C1045.77 401.104 1040.26 406.622 1033.42 406.622C1026.7 406.622 1021.18 401.104 1021.18 394.267V370.275C1009.67 375.073 1001.63 386.349 1001.63 399.545C1001.63 412.86 1009.67 424.137 1021.18 428.935V508.108C1013.63 512.307 1008.59 520.344 1008.59 529.581C1008.59 540.137 1015.19 549.134 1024.42 552.733V533.18C1024.42 528.261 1028.5 524.183 1033.42 524.183C1038.46 524.183 1042.42 528.261 1042.42 533.18V552.733C1051.65 549.134 1058.25 540.137 1058.25 529.581C1058.25 520.344 1053.21 512.307 1045.77 508.108Z" fill="#FF9103"/>
<path d="M366.162 339.887L337.012 322.972V285.065C337.012 280.387 333.173 276.668 328.495 276.668H144.357C139.679 276.668 135.84 280.387 135.84 285.065V391.229C135.84 395.908 139.679 399.626 144.357 399.626H328.495C333.173 399.626 337.012 395.908 337.012 391.229V356.681L366.162 339.887Z" fill="#FFD89F"/>
<path d="M207.094 338.207C207.094 344.445 202.056 349.483 195.818 349.483C189.58 349.483 184.542 344.445 184.542 338.207C184.542 331.969 189.58 326.811 195.818 326.811C202.056 326.811 207.094 331.969 207.094 338.207Z" fill="#FF9103"/>
<path d="M247.641 338.207C247.641 344.445 242.603 349.483 236.365 349.483C230.127 349.483 225.089 344.445 225.089 338.207C225.089 331.969 230.127 326.811 236.365 326.811C242.603 326.811 247.641 331.969 247.641 338.207Z" fill="#FF9103"/>
<path d="M288.308 338.207C288.308 344.445 283.27 349.483 277.032 349.483C270.794 349.483 265.756 344.445 265.756 338.207C265.756 331.969 270.794 326.811 277.032 326.811C283.27 326.811 288.308 331.969 288.308 338.207Z" fill="#FF9103"/>
<path d="M1039.25 276.788C1076.56 276.788 1106.79 246.558 1106.79 209.371C1106.79 172.063 1076.56 141.833 1039.25 141.833C1007.82 141.833 981.314 163.546 973.876 192.696L945.206 209.371L973.876 225.925C981.314 255.195 1007.82 276.788 1039.25 276.788Z" fill="#FFD89F"/>
<path d="M1074.04 184.419C1065.77 176.022 1052.33 176.022 1044.05 184.419L1039.13 189.217L1034.22 184.419C1025.94 176.022 1012.5 176.022 1004.11 184.419C995.829 192.696 995.829 206.132 1004.11 214.409L1009.02 219.327L1039.13 249.317L1074.04 214.409C1082.32 206.132 1082.32 192.696 1074.04 184.419Z" fill="#FF9103"/>
<path d="M1051.03 678.427C1051.03 676.508 1049.47 675.069 1047.55 675.069H209.155C207.235 675.069 205.676 676.508 205.676 678.427C205.676 680.347 207.235 681.906 209.155 681.906H321.797C323.716 681.906 325.275 683.466 325.275 685.385C325.275 687.304 323.716 688.864 321.797 688.864H257.498C255.579 688.864 254.019 690.423 254.019 692.343C254.019 694.262 255.579 695.822 257.498 695.822H944.986C946.905 695.822 948.465 694.262 948.465 692.343C948.465 690.423 946.905 688.864 944.986 688.864H894.483C892.564 688.864 891.004 687.304 891.004 685.385C891.004 683.466 892.564 681.906 894.483 681.906H1047.55C1049.47 681.906 1051.03 680.347 1051.03 678.427Z" fill="white"/>
<path d="M189.842 681.906H161.891C159.972 681.906 158.412 680.347 158.412 678.427C158.412 676.508 159.972 675.069 161.891 675.069H189.842C191.761 675.069 193.32 676.508 193.32 678.427C193.32 680.347 191.761 681.906 189.842 681.906Z" fill="white"/>
<path d="M1025.6 695.821H963.1C961.181 695.821 959.621 694.262 959.621 692.343C959.621 690.423 961.181 688.864 963.1 688.864H1025.6C1027.52 688.864 1029.08 690.423 1029.08 692.343C1029.08 694.262 1027.52 695.821 1025.6 695.821Z" fill="white"/>
<path d="M238.784 695.821H224.149C222.229 695.821 220.67 694.262 220.67 692.343C220.67 690.423 222.229 688.864 224.149 688.864H238.784C240.703 688.864 242.263 690.423 242.263 692.343C242.263 694.262 240.703 695.821 238.784 695.821Z" fill="white"/>
<path d="M1092.42 681.906H1081.5C1079.58 681.906 1078.02 680.347 1078.02 678.427C1078.02 676.508 1079.58 675.069 1081.5 675.069H1092.42C1094.33 675.069 1095.89 676.508 1095.89 678.427C1095.89 680.347 1094.33 681.906 1092.42 681.906Z" fill="white"/>
<path d="M703.248 51.9838H697.25C686.094 23.9133 658.743 4 626.714 4C587.127 4 554.618 34.4697 551.259 73.2166H543.702C529.187 73.2166 517.311 85.0926 517.311 99.6077C517.311 114.243 529.187 125.999 543.702 125.999H566.734H616.757H640.869H686.813H703.248C723.641 125.999 740.315 109.444 740.315 88.9313C740.315 68.5382 723.641 51.9838 703.248 51.9838Z" fill="#FFD89F"/>
<path d="M674.937 101.047L628.753 45.8658L582.688 101.047H606.44V137.875H651.185V101.047H674.937Z" fill="#FF9103"/>
<path fill-rule="evenodd" clip-rule="evenodd" d="M1138.94 224.726C1131.62 224.726 1125.62 218.728 1125.62 211.41C1125.62 204.212 1131.62 198.214 1138.94 198.214C1146.26 198.214 1152.14 204.212 1152.14 211.41C1152.14 218.728 1146.26 224.726 1138.94 224.726ZM1138.94 201.813C1133.54 201.813 1129.22 206.132 1129.22 211.41C1129.22 216.808 1133.54 221.127 1138.94 221.127C1144.22 221.127 1148.54 216.808 1148.54 211.41C1148.54 206.132 1144.22 201.813 1138.94 201.813Z" fill="#FF9C0E"/>
<path fill-rule="evenodd" clip-rule="evenodd" d="M1185.48 357.76C1177.45 357.76 1170.97 351.283 1170.97 343.245C1170.97 335.208 1177.45 328.73 1185.48 328.73C1193.4 328.73 1200 335.208 1200 343.245C1200 351.283 1193.4 357.76 1185.48 357.76ZM1185.48 332.329C1179.49 332.329 1174.57 337.247 1174.57 343.245C1174.57 349.243 1179.49 354.162 1185.48 354.162C1191.48 354.162 1196.4 349.243 1196.4 343.245C1196.4 337.247 1191.48 332.329 1185.48 332.329Z" fill="#FF9C0E"/>
<path fill-rule="evenodd" clip-rule="evenodd" d="M72.0215 452.768C63.0246 452.768 55.707 445.451 55.707 436.454C55.707 427.457 63.0246 420.14 72.0215 420.14C81.0185 420.14 88.336 427.457 88.336 436.454C88.336 445.451 81.0185 452.768 72.0215 452.768ZM72.0215 423.738C64.9439 423.738 59.3058 429.496 59.3058 436.454C59.3058 443.532 64.9439 449.17 72.0215 449.17C78.9792 449.17 84.7372 443.532 84.7372 436.454C84.7372 429.496 78.9792 423.738 72.0215 423.738Z" fill="#FF9C0E"/>
<path fill-rule="evenodd" clip-rule="evenodd" d="M72.0203 243.439C66.1423 243.439 61.4639 238.761 61.4639 232.883C61.4639 227.005 66.1423 222.326 72.0203 222.326C77.8983 222.326 82.5767 227.005 82.5767 232.883C82.5767 238.761 77.8983 243.439 72.0203 243.439ZM72.0203 225.925C68.1816 225.925 65.0627 229.044 65.0627 232.883C65.0627 236.721 68.1816 239.84 72.0203 239.84C75.859 239.84 78.978 236.721 78.978 232.883C78.978 229.044 75.859 225.925 72.0203 225.925Z" fill="#FF9C0E"/>
<path fill-rule="evenodd" clip-rule="evenodd" d="M145.237 99.0551C137.8 99.0551 131.682 92.9372 131.682 85.4997C131.682 77.9423 137.8 71.8243 145.237 71.8243C152.795 71.8243 158.792 77.9423 158.792 85.4997C158.792 92.9372 152.795 99.0551 145.237 99.0551ZM145.237 75.4231C139.719 75.4231 135.28 79.9816 135.28 85.4997C135.28 91.0179 139.719 95.4564 145.237 95.4564C150.755 95.4564 155.194 91.0179 155.194 85.4997C155.194 79.9816 150.755 75.4231 145.237 75.4231Z" fill="#FF9C0E"/>
<path fill-rule="evenodd" clip-rule="evenodd" d="M97.0038 22.279C92.0855 22.279 88.0068 18.3204 88.0068 13.402C88.0068 8.48368 92.0855 4.52502 97.0038 4.52502C101.922 4.52502 105.881 8.48368 105.881 13.402C105.881 18.3204 101.922 22.279 97.0038 22.279ZM97.0038 8.12381C94.0048 8.12381 91.6056 10.403 91.6056 13.402C91.6056 16.281 94.0048 18.6802 97.0038 18.6802C99.8828 18.6802 102.282 16.281 102.282 13.402C102.282 10.403 99.8828 8.12381 97.0038 8.12381Z" fill="#FF9C0E"/>
<path fill-rule="evenodd" clip-rule="evenodd" d="M145.193 29.4766C138.235 29.4766 132.717 23.8385 132.717 17.0008C132.717 10.1631 138.235 4.52502 145.193 4.52502C152.03 4.52502 157.668 10.1631 157.668 17.0008C157.668 23.8385 152.03 29.4766 145.193 29.4766ZM145.193 8.12381C140.274 8.12381 136.316 12.0825 136.316 17.0008C136.316 21.9191 140.274 25.8778 145.193 25.8778C150.111 25.8778 154.07 21.9191 154.07 17.0008C154.07 12.0825 150.111 8.12381 145.193 8.12381Z" fill="#FF9C0E"/>
<path fill-rule="evenodd" clip-rule="evenodd" d="M29.6211 510.372L15.7615 528.617L6.8935 507.569L29.6211 510.372ZM16.6691 521.473L22.982 513.162L12.6975 511.828L16.6691 521.473Z" fill="#FF9C0E"/>
<path fill-rule="evenodd" clip-rule="evenodd" d="M1183.57 546.217H1150.34L1167.01 517.306L1183.57 546.217ZM1156.45 542.618H1177.33L1166.89 524.624L1156.45 542.618Z" fill="#FF9C0E"/>
<path fill-rule="evenodd" clip-rule="evenodd" d="M1195.68 262.393H1170.85L1183.21 240.92L1195.68 262.393ZM1177.09 258.794H1189.44L1183.33 247.998L1177.09 258.794Z" fill="#FF9C0E"/>
</svg>
