<svg width="652" height="370" viewBox="0 0 652 370" fill="none" xmlns="http://www.w3.org/2000/svg">
<path d="M220.883 92.971V82.721C220.883 81.718 220.07 80.906 219.068 80.906H216.43C215.658 80.906 214.974 80.381 214.801 79.628C213.888 75.648 212.333 71.913 210.235 68.547C209.816 67.875 209.896 67.009 210.455 66.449L212.31 64.594C213.019 63.885 213.019 62.736 212.31 62.027L205.063 54.78C204.354 54.071 203.205 54.071 202.496 54.78L200.643 56.633C200.083 57.193 199.217 57.272 198.545 56.853C195.179 54.754 191.443 53.197 187.461 52.282C186.708 52.109 186.184 51.426 186.184 50.654V48.024C186.184 47.021 185.371 46.209 184.369 46.209H174.119C173.116 46.209 172.304 47.022 172.304 48.024V50.654C172.304 51.426 171.779 52.11 171.026 52.283C167.044 53.197 163.307 54.754 159.941 56.853C159.269 57.272 158.403 57.193 157.843 56.633L155.992 54.782C155.283 54.073 154.134 54.073 153.425 54.782L146.178 62.029C145.469 62.738 145.469 63.887 146.178 64.596L148.031 66.449C148.591 67.009 148.67 67.875 148.251 68.547C146.153 71.914 144.598 75.65 143.684 79.63C143.511 80.383 142.828 80.908 142.055 80.908H139.42C138.417 80.908 137.605 81.721 137.605 82.723V92.973C137.605 93.976 138.418 94.788 139.42 94.788H142.056C142.828 94.788 143.512 95.313 143.684 96.065C144.599 100.046 146.155 103.782 148.252 107.146C148.671 107.818 148.592 108.684 148.032 109.244L146.176 111.1C145.467 111.809 145.467 112.958 146.176 113.667L153.423 120.915C154.132 121.624 155.282 121.624 155.99 120.915L157.847 119.058C158.407 118.498 159.273 118.419 159.944 118.837C163.309 120.933 167.043 122.486 171.024 123.4C171.777 123.573 172.302 124.256 172.302 125.029V127.673C172.302 128.676 173.115 129.488 174.117 129.488H184.367C185.37 129.488 186.182 128.675 186.182 127.673V125.029C186.182 124.256 186.707 123.573 187.46 123.4C191.44 122.487 195.174 120.933 198.538 118.837C199.21 118.419 200.076 118.498 200.635 119.058L202.493 120.916C203.202 121.625 204.352 121.625 205.06 120.916L212.307 113.668C213.016 112.959 213.016 111.809 212.307 111.101L210.45 109.245C209.89 108.685 209.811 107.819 210.23 107.147C212.327 103.782 213.882 100.048 214.796 96.067C214.969 95.314 215.652 94.789 216.425 94.789H219.065C220.07 94.786 220.883 93.973 220.883 92.971ZM179.241 116.745C163.28 116.745 150.359 103.798 150.359 87.837C150.359 71.9 163.28 58.954 179.241 58.954C195.203 58.954 208.124 71.901 208.124 87.837C208.124 103.799 195.203 116.745 179.241 116.745Z" stroke="#FCF0DE" stroke-width="0.7896" stroke-miterlimit="10"/>
<path d="M268.024 127.667V120.682C268.024 119.999 267.47 119.445 266.787 119.445H264.989C264.462 119.445 263.997 119.087 263.879 118.574C263.257 115.862 262.197 113.316 260.767 111.022C260.482 110.564 260.536 109.974 260.917 109.593L262.181 108.329C262.664 107.846 262.664 107.063 262.181 106.579L257.242 101.64C256.759 101.157 255.976 101.157 255.492 101.64L254.229 102.903C253.847 103.285 253.257 103.338 252.799 103.053C250.505 101.622 247.959 100.561 245.246 99.938C244.733 99.82 244.376 99.355 244.376 98.828V97.036C244.376 96.353 243.822 95.799 243.139 95.799H236.154C235.471 95.799 234.917 96.353 234.917 97.036V98.828C234.917 99.354 234.559 99.82 234.046 99.938C231.332 100.561 228.785 101.622 226.491 103.052C226.033 103.337 225.443 103.283 225.061 102.902L223.8 101.641C223.317 101.158 222.534 101.158 222.05 101.641L217.111 106.58C216.628 107.063 216.628 107.846 217.111 108.33L218.374 109.593C218.755 109.974 218.809 110.565 218.524 111.023C217.094 113.317 216.034 115.864 215.412 118.576C215.294 119.089 214.829 119.447 214.302 119.447H212.506C211.823 119.447 211.269 120.001 211.269 120.684V127.669C211.269 128.352 211.823 128.906 212.506 128.906H214.303C214.829 128.906 215.295 129.264 215.413 129.777C216.036 132.49 217.097 135.036 218.526 137.329C218.811 137.787 218.757 138.377 218.376 138.759L217.112 140.024C216.629 140.507 216.629 141.29 217.112 141.773L222.051 146.712C222.534 147.195 223.318 147.195 223.801 146.712L225.067 145.446C225.448 145.065 226.039 145.01 226.496 145.296C228.789 146.724 231.334 147.783 234.047 148.405C234.56 148.523 234.918 148.988 234.918 149.515V151.317C234.918 152 235.472 152.554 236.155 152.554H243.14C243.823 152.554 244.377 152 244.377 151.317V149.515C244.377 148.988 244.735 148.523 245.248 148.405C247.96 147.783 250.505 146.724 252.798 145.296C253.256 145.011 253.846 145.065 254.227 145.446L255.493 146.713C255.976 147.196 256.76 147.196 257.243 146.713L262.182 141.774C262.665 141.291 262.665 140.507 262.182 140.024L260.916 138.759C260.534 138.378 260.48 137.787 260.766 137.329C262.195 135.036 263.255 132.491 263.878 129.778C263.996 129.265 264.461 128.907 264.988 128.907H266.787C267.47 128.905 268.024 128.351 268.024 127.667ZM239.646 142.759C229.383 142.759 221.074 134.434 221.074 124.17C221.074 113.922 229.383 105.597 239.646 105.597C249.91 105.597 258.219 113.922 258.219 124.17C258.219 134.434 249.91 142.759 239.646 142.759Z" fill="#FCF0DE"/>
<path d="M136.49 312.615C138.36 312.615 139.876 311.099 139.876 309.229C139.876 307.359 138.36 305.843 136.49 305.843C134.62 305.843 133.104 307.359 133.104 309.229C133.104 311.099 134.62 312.615 136.49 312.615Z" fill="#FFD5A4"/>
<path d="M590.122 220.094C591.992 220.094 593.508 218.578 593.508 216.708C593.508 214.838 591.992 213.322 590.122 213.322C588.252 213.322 586.736 214.838 586.736 216.708C586.736 218.578 588.252 220.094 590.122 220.094Z" fill="#FFD5A4"/>
<path d="M583.35 99.185C585.22 99.185 586.736 97.669 586.736 95.799C586.736 93.9289 585.22 92.413 583.35 92.413C581.48 92.413 579.964 93.9289 579.964 95.799C579.964 97.669 581.48 99.185 583.35 99.185Z" fill="#FFD5A4"/>
<path d="M461.606 56.827C462.779 56.827 463.73 55.876 463.73 54.703C463.73 53.5299 462.779 52.579 461.606 52.579C460.433 52.579 459.482 53.5299 459.482 54.703C459.482 55.876 460.433 56.827 461.606 56.827Z" fill="#FFD5A4"/>
<path d="M149.746 26.41C149.746 27.583 148.795 28.534 147.622 28.534C146.449 28.534 145.498 27.583 145.498 26.41C145.498 25.237 146.449 24.286 147.622 24.286C148.795 24.286 149.746 25.237 149.746 26.41Z" fill="#FFD5A4"/>
<path d="M196.756 157.206C196.756 158.379 195.805 159.33 194.632 159.33C193.459 159.33 192.508 158.379 192.508 157.206C192.508 156.033 193.459 155.082 194.632 155.082C195.805 155.082 196.756 156.033 196.756 157.206Z" fill="#FFD5A4"/>
<path d="M118.835 312.616C118.835 313.789 117.884 314.74 116.711 314.74C115.538 314.74 114.587 313.789 114.587 312.616C114.587 311.443 115.538 310.492 116.711 310.492C117.884 310.492 118.835 311.443 118.835 312.616Z" fill="#FFD5A4"/>
<path d="M540.451 314.616C542.321 314.616 543.837 313.1 543.837 311.23C543.837 309.36 542.321 307.844 540.451 307.844C538.581 307.844 537.065 309.36 537.065 311.23C537.065 313.1 538.581 314.616 540.451 314.616Z" fill="#FFD5A4"/>
<path d="M612.451 314.616C614.321 314.616 615.837 313.1 615.837 311.23C615.837 309.36 614.321 307.844 612.451 307.844C610.581 307.844 609.065 309.36 609.065 311.23C609.065 313.1 610.581 314.616 612.451 314.616Z" fill="#FFD5A4"/>
<path d="M208.124 20.563C209.994 20.563 211.51 19.047 211.51 17.177C211.51 15.307 209.994 13.791 208.124 13.791C206.254 13.791 204.738 15.307 204.738 17.177C204.738 19.047 206.254 20.563 208.124 20.563Z" fill="#FFD5A4"/>
<path d="M441.75 171.236C441.75 173.738 439.721 175.767 437.219 175.767C434.717 175.767 432.688 173.739 432.688 171.236C432.688 168.733 434.716 166.705 437.219 166.705C439.722 166.705 441.75 168.734 441.75 171.236Z" fill="#FFD5A4"/>
<path d="M107.583 115.21C107.583 117.712 105.555 119.741 103.052 119.741C100.55 119.741 98.521 117.712 98.521 115.21C98.521 112.708 100.549 110.679 103.052 110.679C105.555 110.68 107.583 112.708 107.583 115.21Z" fill="#FFD5A4"/>
<path d="M94.835 47.58H89.137C88.77 47.58 88.473 47.283 88.473 46.916V41.219C88.473 40.852 88.77 40.555 89.137 40.555H94.835C95.202 40.555 95.499 40.852 95.499 41.219V46.916C95.499 47.283 95.202 47.58 94.835 47.58Z" fill="white"/>
<path d="M104.233 47.58H98.535C98.168 47.58 97.871 47.283 97.871 46.916V41.219C97.871 40.852 98.168 40.555 98.535 40.555H104.233C104.6 40.555 104.897 40.852 104.897 41.219V46.916C104.897 47.283 104.6 47.58 104.233 47.58Z" fill="white"/>
<path d="M113.631 47.58H107.934C107.567 47.58 107.27 47.283 107.27 46.916V41.219C107.27 40.852 107.567 40.555 107.934 40.555H113.631C113.998 40.555 114.295 40.852 114.295 41.219V46.916C114.295 47.283 113.998 47.58 113.631 47.58Z" fill="white"/>
<path d="M573.414 294.313H567.716C567.349 294.313 567.052 294.016 567.052 293.649V287.952C567.052 287.585 567.349 287.288 567.716 287.288H573.414C573.781 287.288 574.078 287.585 574.078 287.952V293.649C574.078 294.016 573.781 294.313 573.414 294.313Z" fill="#FCF0DE"/>
<path d="M582.812 294.313H577.114C576.747 294.313 576.45 294.016 576.45 293.649V287.952C576.45 287.585 576.747 287.288 577.114 287.288H582.812C583.179 287.288 583.476 287.585 583.476 287.952V293.649C583.476 294.016 583.179 294.313 582.812 294.313Z" fill="#FCF0DE"/>
<path d="M592.21 294.313H586.512C586.145 294.313 585.848 294.016 585.848 293.649V287.952C585.848 287.585 586.145 287.288 586.512 287.288H592.21C592.577 287.288 592.874 287.585 592.874 287.952V293.649C592.874 294.016 592.577 294.313 592.21 294.313Z" fill="#FCF0DE"/>
<path d="M138.949 290.463H133.251C132.884 290.463 132.587 290.166 132.587 289.799V284.102C132.587 283.735 132.884 283.438 133.251 283.438H138.949C139.316 283.438 139.613 283.735 139.613 284.102V289.799C139.613 290.165 139.315 290.463 138.949 290.463Z" fill="#FCF0DE"/>
<path d="M148.346 290.463H142.648C142.281 290.463 141.984 290.166 141.984 289.799V284.102C141.984 283.735 142.281 283.438 142.648 283.438H148.346C148.713 283.438 149.01 283.735 149.01 284.102V289.799C149.01 290.165 148.713 290.463 148.346 290.463Z" fill="#FCF0DE"/>
<path d="M157.744 290.463H152.047C151.68 290.463 151.383 290.166 151.383 289.799V284.102C151.383 283.735 151.68 283.438 152.047 283.438H157.744C158.111 283.438 158.408 283.735 158.408 284.102V289.799C158.408 290.165 158.111 290.463 157.744 290.463Z" fill="#FCF0DE"/>
<path d="M393.651 350.849H258.349C246.558 350.849 237 341.291 237 329.5V28.338C237 16.547 246.558 6.98898 258.349 6.98898H393.651C405.442 6.98898 415 16.547 415 28.338V329.5C415 341.291 405.442 350.849 393.651 350.849Z" fill="black"/>
<path d="M392.967 345.962H259.033C248.705 345.962 240.333 337.59 240.333 327.262V28.7C240.333 18.372 248.705 9.99998 259.033 9.99998H392.968C403.296 9.99998 411.668 18.372 411.668 28.7V327.262C411.667 337.59 403.295 345.962 392.967 345.962Z" fill="white"/>
<path d="M404.167 28.114V326.329C404.167 333.323 398.497 338.993 391.503 338.993H260.497C253.503 338.993 247.833 333.323 247.833 326.329V28.114C247.833 21.12 253.503 15.45 260.497 15.45H282.343C283.555 15.45 284.664 16.135 285.207 17.219L287.527 21.85C288.584 23.987 290.766 25.325 293.139 25.325H358.861C361.234 25.325 363.416 23.987 364.473 21.85L366.793 17.219C367.336 16.135 368.444 15.45 369.657 15.45H391.503C398.497 15.45 404.167 21.119 404.167 28.114Z" fill="#FCF0DE"/>
<path d="M353.581 19.907H300.647C299.416 19.907 298.418 18.909 298.418 17.678C298.418 16.447 299.416 15.449 300.647 15.449H353.581C354.812 15.449 355.81 16.447 355.81 17.678C355.81 18.909 354.812 19.907 353.581 19.907Z" fill="#FCF0DE"/>
<path d="M383.371 328.642H265.579C260.951 328.642 257.2 324.891 257.2 320.263V278.671C257.2 274.043 260.951 270.292 265.579 270.292H383.371C387.999 270.292 391.75 274.043 391.75 278.671V320.263C391.75 324.891 387.999 328.642 383.371 328.642Z" stroke="#D16969" stroke-miterlimit="10" stroke-linecap="round" stroke-linejoin="round" stroke-dasharray="2.84 2.84"/>
<path d="M377.401 185.456H318.968C315.63 185.456 312.924 182.75 312.924 179.412V150.532C312.924 147.194 315.63 144.488 318.968 144.488H377.401C380.739 144.488 383.445 147.194 383.445 150.532V179.412C383.445 182.75 380.739 185.456 377.401 185.456Z" stroke="#D16969" stroke-miterlimit="10" stroke-linecap="round" stroke-linejoin="round" stroke-dasharray="2.84 2.84"/>
<path d="M389.981 260.586H269.299C265.322 260.586 262.098 257.362 262.098 253.385V202.484C262.098 198.507 265.322 195.283 269.299 195.283H389.981C393.958 195.283 397.182 198.507 397.182 202.484V253.385C397.182 257.362 393.958 260.586 389.981 260.586Z" fill="#FFD187"/>
<path d="M391.75 197.19V248.12C391.75 252.09 388.53 255.3 384.56 255.3H264.39C260.42 255.3 257.2 252.09 257.2 248.12V197.19C257.2 193.22 260.42 190 264.39 190H384.56C388.53 190 391.75 193.22 391.75 197.19Z" fill="#FFFBEC"/>
<path d="M303.68 249.993H268.277C265.592 249.993 263.416 247.817 263.416 245.132V209.729C263.416 207.045 265.592 204.868 268.277 204.868H303.68C306.365 204.868 308.541 207.044 308.541 209.729V245.132C308.541 247.817 306.365 249.993 303.68 249.993Z" fill="white"/>
<path d="M345.638 210.578H314.459C313.611 210.578 312.924 209.891 312.924 209.043C312.924 208.195 313.611 207.508 314.459 207.508H345.638C346.486 207.508 347.173 208.195 347.173 209.043C347.174 209.891 346.486 210.578 345.638 210.578Z" fill="#F9DEB2"/>
<path d="M331.43 216.708H314.459C313.611 216.708 312.924 216.021 312.924 215.173C312.924 214.325 313.611 213.638 314.459 213.638H331.43C332.278 213.638 332.965 214.325 332.965 215.173C332.965 216.02 332.278 216.708 331.43 216.708Z" fill="#F9DEB2"/>
<path d="M383.598 216.708H337.676C336.828 216.708 336.141 216.021 336.141 215.173C336.141 214.325 336.828 213.638 337.676 213.638H383.598C384.446 213.638 385.133 214.325 385.133 215.173C385.133 216.02 384.445 216.708 383.598 216.708Z" fill="#F9DEB2"/>
<path d="M340.717 222.837H314.46C313.612 222.837 312.925 222.15 312.925 221.302C312.925 220.454 313.612 219.767 314.46 219.767H340.717C341.565 219.767 342.252 220.454 342.252 221.302C342.252 222.15 341.564 222.837 340.717 222.837Z" fill="#F9DEB2"/>
<path d="M363.005 222.837H346.498C345.65 222.837 344.963 222.15 344.963 221.302C344.963 220.454 345.65 219.767 346.498 219.767H363.005C363.853 219.767 364.54 220.454 364.54 221.302C364.54 222.15 363.852 222.837 363.005 222.837Z" fill="#F9DEB2"/>
<path d="M383.598 222.837H368.397C367.549 222.837 366.862 222.15 366.862 221.302C366.862 220.454 367.549 219.767 368.397 219.767H383.598C384.446 219.767 385.133 220.454 385.133 221.302C385.133 222.15 384.445 222.837 383.598 222.837Z" fill="#F9DEB2"/>
<path d="M383.598 228.966H314.459C313.611 228.966 312.924 228.279 312.924 227.431C312.924 226.583 313.611 225.896 314.459 225.896H383.598C384.446 225.896 385.133 226.583 385.133 227.431C385.133 228.279 384.445 228.966 383.598 228.966Z" fill="#F9DEB2"/>
<path d="M352.511 235.095H314.46C313.612 235.095 312.925 234.408 312.925 233.56C312.925 232.712 313.612 232.025 314.46 232.025H352.511C353.359 232.025 354.046 232.712 354.046 233.56C354.046 234.408 353.358 235.095 352.511 235.095Z" fill="#F9DEB2"/>
<path d="M383.598 235.095H358.646C357.798 235.095 357.111 234.408 357.111 233.56C357.111 232.712 357.798 232.025 358.646 232.025H383.598C384.446 232.025 385.133 232.712 385.133 233.56C385.133 234.408 384.445 235.095 383.598 235.095Z" fill="#F9DEB2"/>
<path d="M336.816 241.224H314.459C313.611 241.224 312.924 240.537 312.924 239.689C312.924 238.841 313.611 238.154 314.459 238.154H336.816C337.664 238.154 338.351 238.841 338.351 239.689C338.351 240.537 337.664 241.224 336.816 241.224Z" fill="#F9DEB2"/>
<path d="M365.224 241.224H342.867C342.019 241.224 341.332 240.537 341.332 239.689C341.332 238.841 342.019 238.154 342.867 238.154H365.224C366.072 238.154 366.759 238.841 366.759 239.689C366.759 240.537 366.072 241.224 365.224 241.224Z" fill="#F9DEB2"/>
<path d="M383.598 241.224H370.625C369.777 241.224 369.09 240.537 369.09 239.689C369.09 238.841 369.777 238.154 370.625 238.154H383.598C384.446 238.154 385.133 238.841 385.133 239.689C385.133 240.537 384.445 241.224 383.598 241.224Z" fill="#F9DEB2"/>
<path d="M345.638 247.354H314.459C313.611 247.354 312.924 246.667 312.924 245.819C312.924 244.971 313.611 244.284 314.459 244.284H345.638C346.486 244.284 347.173 244.971 347.173 245.819C347.174 246.666 346.486 247.354 345.638 247.354Z" fill="#F9DEB2"/>
<path d="M383.598 210.578H352.419C351.571 210.578 350.884 209.891 350.884 209.043C350.884 208.195 351.571 207.508 352.419 207.508H383.598C384.446 207.508 385.133 208.195 385.133 209.043C385.133 209.891 384.445 210.578 383.598 210.578Z" fill="#F9DEB2"/>
<path d="M391.75 197.19V199.33H257.2V197.19C257.2 193.22 260.42 190 264.39 190H384.56C388.53 190 391.75 193.22 391.75 197.19Z" fill="#FFB222"/>
<path d="M366.389 194.833C366.389 195.754 365.643 196.5 364.722 196.5C363.801 196.5 363.055 195.754 363.055 194.833C363.055 193.913 363.801 193.166 364.722 193.166C365.643 193.166 366.389 193.913 366.389 194.833Z" fill="#FCF0DE"/>
<path d="M374.917 194.833C374.917 195.754 374.171 196.5 373.25 196.5C372.329 196.5 371.583 195.754 371.583 194.833C371.583 193.913 372.329 193.166 373.25 193.166C374.171 193.166 374.917 193.913 374.917 194.833Z" fill="#FCF0DE"/>
<path d="M383.445 194.833C383.445 195.754 382.699 196.5 381.778 196.5C380.857 196.5 380.111 195.754 380.111 194.833C380.111 193.913 380.857 193.166 381.778 193.166C382.698 193.167 383.445 193.913 383.445 194.833Z" fill="#FCF0DE"/>
<path d="M298.857 185.456H272.228C268.279 185.456 265.077 182.254 265.077 178.305V151.676C265.077 147.727 268.279 144.525 272.228 144.525H298.857C302.806 144.525 306.008 147.726 306.008 151.676V178.305C306.007 182.255 302.806 185.456 298.857 185.456Z" stroke="#FFC55A" stroke-width="0.8956" stroke-miterlimit="10"/>
<path d="M279.157 159.071L273.26 164.968L279.204 170.911" stroke="#FFC55A" stroke-width="1.6716" stroke-miterlimit="10" stroke-linecap="round" stroke-linejoin="round"/>
<path d="M291.926 159.071L297.823 164.968L291.88 170.911" stroke="#FFC55A" stroke-width="1.6716" stroke-miterlimit="10" stroke-linecap="round" stroke-linejoin="round"/>
<path d="M288.303 159.071L282.781 170.911" stroke="#FFC55A" stroke-width="1.6716" stroke-miterlimit="10" stroke-linecap="round" stroke-linejoin="round"/>
<path d="M391.75 44.62V127.89C391.75 132.41 388.09 136.07 383.57 136.07H265.38C260.87 136.07 257.2 132.41 257.2 127.89V44.62C257.2 40.1 260.87 36.44 265.38 36.44H383.57C388.09 36.44 391.75 40.1 391.75 44.62Z" fill="#F9DEB2"/>
<path d="M364.5 82.25C375.27 82.25 384 73.5195 384 62.75C384 51.9804 375.27 43.25 364.5 43.25C353.73 43.25 345 51.9804 345 62.75C345 73.5195 353.73 82.25 364.5 82.25Z" fill="#FFFAF0"/>
<path d="M336.29 136.07H265.38C260.87 136.07 257.2 132.41 257.2 127.89V114.78L288.23 61.03C289.85 58.22 293.91 58.22 295.53 61.03L318.96 101.61L336.36 131.75C337.2 133.19 337.07 134.83 336.29 136.07Z" fill="white"/>
<path d="M366.87 136.07H299.06L318.96 101.61L329.68 83.04C331.14 80.51 334.79 80.51 336.25 83.04L366.87 136.07Z" fill="#FFFAF0"/>
<path d="M501.368 290.8H449.092V369.363H501.368V290.8Z" fill="#FFC972"/>
<path d="M501.369 369.364H521.385V290.8H501.369V369.364Z" fill="#FFC55A"/>
<path d="M518.93 293.817H504.234V296.324H518.93V293.817Z" fill="#F9DEB2"/>
<path d="M518.93 299.204H504.234V301.711H518.93V299.204Z" fill="#F9DEB2"/>
<path d="M518.93 304.59H504.234V307.097H518.93V304.59Z" fill="#F9DEB2"/>
<path d="M518.93 309.976H504.234V312.483H518.93V309.976Z" fill="#F9DEB2"/>
<path d="M518.93 315.362H504.234V317.869H518.93V315.362Z" fill="#F9DEB2"/>
<path d="M518.93 320.749H504.234V323.256H518.93V320.749Z" fill="#F9DEB2"/>
<path d="M518.93 326.135H504.234V328.642H518.93V326.135Z" fill="#F9DEB2"/>
<path d="M518.93 331.521H504.234V334.028H518.93V331.521Z" fill="#F9DEB2"/>
<path d="M518.93 336.907H504.234V339.414H518.93V336.907Z" fill="#F9DEB2"/>
<path d="M518.93 342.294H504.234V344.801H518.93V342.294Z" fill="#F9DEB2"/>
<path d="M518.93 347.68H504.234V350.187H518.93V347.68Z" fill="#F9DEB2"/>
<path d="M518.93 353.066H504.234V355.573H518.93V353.066Z" fill="#F9DEB2"/>
<path d="M518.93 358.453H504.234V360.96H518.93V358.453Z" fill="#F9DEB2"/>
<path d="M518.93 363.839H504.234V366.346H518.93V363.839Z" fill="#F9DEB2"/>
<path d="M440.6 369.363H467.168C467.168 369.363 468.653 364.632 465.435 358.771C465.435 358.771 463.296 360.486 456.891 359.326C456.891 359.326 454.218 361.596 452.372 362.483C450.516 363.382 439.884 365.47 440.6 369.363Z" fill="#281616"/>
<path d="M442.453 294.448C444.169 304.687 452.087 339.328 455.491 359.793C461.712 360.323 464.7 359.609 466.283 359.244C465.973 352.108 465.359 335.039 465.431 327.553C465.549 314.902 466.143 298.219 460.574 289.063L441.848 290.537C441.962 291.526 442.065 292.33 442.157 292.905C442.247 293.457 442.35 293.966 442.453 294.448Z" fill="#002C54"/>
<path d="M392.544 369.363H419.112C419.112 369.363 420.597 364.632 417.379 358.771C417.379 358.771 415.24 360.486 408.835 359.326C408.835 359.326 406.162 361.596 404.316 362.483C402.46 363.382 391.828 365.47 392.544 369.363Z" fill="#281616"/>
<path d="M408.066 359.194C413.143 360.451 416.82 360.328 418.561 360.132C419.974 351.907 422.205 333.807 424.214 325.324C427.33 312.138 430.38 294.003 428.261 287.533L409.841 282.907C409.779 283.49 408.279 338.992 408.066 359.194Z" fill="#052635"/>
<path d="M481.378 264.025C481.008 260.385 480.582 257.726 480.582 257.726L460.002 262.763L442.52 266.746C436.039 268.19 428.21 269.928 421.308 271.488C413.563 273.248 408.421 279.131 410.117 286.887L412.058 296.294C422.891 296.146 473.824 291.264 478.18 289.064C483.102 286.578 484.583 277.79 481.378 264.025Z" fill="#052635"/>
<path d="M512.1 264.025C511.73 260.385 509.955 256.479 509.955 256.479L490.724 262.763L473.242 266.746C466.761 268.19 458.932 269.928 452.03 271.488C444.285 273.248 439.143 279.131 440.839 286.887L442.78 296.294C453.613 296.146 498.891 294.568 508.902 289.064C513.733 286.407 515.305 277.79 512.1 264.025Z" fill="#002C54"/>
<path d="M454.497 234.53C454.497 234.53 463.638 230.401 466.154 234.542C467.531 236.809 466.579 241.02 463.461 242.788C460.343 244.556 442.726 252.007 426.099 256.162C426.099 256.162 425.388 253.849 424.244 251.419C424.244 251.419 431.703 248.325 439.119 243.117C446.534 237.908 454.497 234.53 454.497 234.53Z" fill="#E58F8F"/>
<path d="M456.782 205.985L448.948 237.276C448.948 237.276 449.758 245.187 457.747 241.304C465.736 237.421 471.03 212.492 471.03 212.492L456.782 205.985Z" fill="#E58F8F"/>
<path d="M470.036 223.486C469.067 223.252 468.142 222.996 467.25 222.728C466.336 222.461 465.467 222.182 464.642 221.892C457.198 219.34 453.175 216.275 453.175 216.275C455.515 206.101 458.335 199.269 460.842 194.767C460.909 194.656 460.976 194.555 461.032 194.433C461.099 194.322 461.166 194.21 461.233 194.099C462.581 191.859 464.52 189.976 466.682 188.427C466.905 188.271 467.117 188.126 467.34 187.97L468.265 204.307L468.421 205.99L470.036 223.486Z" fill="white"/>
<path d="M470.036 223.486C469.067 223.252 468.142 222.996 467.25 222.728C466.336 222.461 465.467 222.182 464.642 221.892C466.205 210.887 467.618 203.973 467.618 203.973L468.42 205.99L470.036 223.486Z" fill="#C7E5F2"/>
<path d="M516.284 195.236C516.095 200.073 515.248 207.84 514.512 215.641C514.278 218.115 514.055 220.6 513.866 222.996C513.732 224.489 511.481 232.457 511.392 233.884C510.991 240.704 507.648 245.808 510.813 256.194C511.571 258.679 511.76 259.961 511.76 260.986C511.76 261.699 510.835 262.446 510.467 262.646C509.141 263.415 506.533 263.95 503.368 264.34H503.357C497.128 265.098 488.725 265.243 483.654 265.243C476.845 265.243 466.626 264.162 465.333 262.446C464.152 260.875 465.244 258.59 465.801 255.436C468.308 241.205 467.417 233.783 467.261 223.509C467.261 223.253 467.25 222.996 467.25 222.729C466.994 206.882 465.946 193.32 466.682 188.428C466.905 188.272 467.117 188.127 467.34 187.971C468.421 187.235 469.48 186.578 470.505 185.998C470.594 185.953 470.706 185.887 470.817 185.82C471.129 185.642 471.452 185.475 471.753 185.307C471.864 185.24 471.987 185.184 472.11 185.129C474.417 184.003 477.782 182.8 479.71 182.131C479.955 182.053 480.178 181.975 480.367 181.919C482.184 181.808 484.156 181.785 486.285 181.841C488.135 181.897 490.965 182.142 494.041 182.543C494.052 182.543 494.052 182.543 494.052 182.543C497.529 182.989 501.329 183.646 504.349 184.471C504.349 184.471 504.382 184.482 504.405 184.493C504.973 184.671 508.662 186.053 512.507 190.165C513.787 191.525 515.102 193.196 516.284 195.236Z" fill="white"/>
<path d="M510.812 256.193C511.57 258.678 511.759 259.96 511.759 260.985C511.759 261.698 510.834 262.445 510.466 262.645C509.14 263.414 506.532 263.949 503.367 264.339C504.671 264.183 506.922 262.114 506.922 260.249C506.922 258.943 505.228 250.119 505.696 244.425C506.164 238.742 507.089 229.693 505.328 222.449C503.556 215.205 501.896 205.677 501.896 205.677L511.825 211.672C511.825 211.672 513.107 213.466 514.511 215.639C514.277 218.113 514.054 220.598 513.865 222.994C513.732 224.488 507.647 245.807 510.812 256.193Z" fill="#C7E5F2"/>
<path d="M467.13 153.354C467.13 153.354 467.989 163.739 471.433 164.437C474.876 165.135 474.031 160.722 474.031 160.722L473.55 155.791L467.13 153.354Z" fill="#002C54"/>
<path d="M483.008 190.99C476.266 190.188 478.784 183.635 479.709 182.131C479.954 182.053 481.113 181.696 481.202 181.641C481.213 181.63 481.224 181.63 481.224 181.63C481.447 181.452 481.614 181.184 481.748 180.85C482.405 179.123 482.105 175.679 482.082 175.456C482.082 175.445 482.082 175.445 482.082 175.445V174.821C482.193 174.409 482.305 174.019 482.394 173.651L485.938 170.865L493.438 164.97C493.438 164.97 491.443 174.832 493.048 181.051C493.171 181.519 493.416 182.177 494.04 182.544C494.04 182.555 494.051 182.544 494.051 182.544C494.252 182.678 494.497 182.767 494.798 182.811C496.637 183.679 494.074 192.305 483.008 190.99Z" fill="#E58F8F"/>
<path d="M488.95 171.236C488.95 171.236 488.887 177.818 481.743 180.845C482.407 179.127 482.101 175.682 482.08 175.46L485.073 173.11L488.95 171.236Z" fill="#CC6362"/>
<path d="M468.776 154.832C468.776 154.832 470.334 176.379 476.152 178.21C476.152 178.21 483.565 178.908 488.887 171.749C490.42 169.687 492.358 169.223 492.991 166.732C494.019 162.686 495.469 155.224 493.619 150.727C490.985 144.322 469.026 139.237 468.776 154.832Z" fill="#E58F8F"/>
<path d="M493.708 147.171C493.612 143.257 489.651 141.794 489.651 141.794C485.707 139.948 477.511 140.745 469.061 142.63C467.08 143.072 464.594 141.856 463.21 142.816C461.538 143.976 463.203 149.276 463.203 149.276C466.462 159.147 478.456 155.937 482.061 154.719C482.918 157.26 482.807 160.794 484.944 162.616C486.162 163.654 488.278 163.684 490.43 163.325C490.695 163.829 491.69 164.272 491.892 164.964C492.57 167.272 492.473 170.879 492.452 173.663L493.469 173.166C493.602 172.413 504.122 147.494 493.708 147.171Z" fill="#002C54"/>
<path d="M474.744 162.089C475.048 163.878 474.166 165.521 472.773 165.758C471.38 165.995 470.004 164.737 469.7 162.947C469.396 161.158 470.278 159.515 471.671 159.278C473.064 159.041 474.44 160.299 474.744 162.089Z" stroke="white" stroke-width="0.501" stroke-miterlimit="10"/>
<path d="M481.774 160.775C482.078 162.564 481.196 164.207 479.803 164.444C478.41 164.681 477.034 163.423 476.73 161.633C476.426 159.844 477.308 158.201 478.701 157.964C480.094 157.727 481.47 158.986 481.774 160.775Z" stroke="white" stroke-width="0.501" stroke-miterlimit="10"/>
<path d="M474.744 162.089C474.744 162.089 475.052 161.589 476.671 161.729" stroke="white" stroke-width="0.501" stroke-miterlimit="10"/>
<path d="M481.835 161.204L487.844 160.244" stroke="white" stroke-width="0.501" stroke-miterlimit="10"/>
<path d="M488.286 167.872C492.424 169.458 493.717 159.271 489.787 158.82C486.807 158.478 486.685 162.636 486.685 162.636C486.685 162.636 485.923 166.967 488.286 167.872Z" fill="#E58F8F"/>
<g opacity="0.5">
<path d="M489.651 160.355C489.651 160.355 489.383 160.63 489.138 161.085C488.891 161.538 488.673 162.158 488.633 162.822C488.594 163.151 488.603 163.489 488.618 163.81C488.629 164.133 488.668 164.436 488.69 164.705C488.719 164.976 488.743 165.203 488.759 165.361C488.775 165.523 488.775 165.621 488.775 165.621C488.775 165.621 488.715 165.547 488.627 165.41C488.551 165.268 488.394 165.079 488.289 164.817C488.173 164.559 488.051 164.248 487.986 163.893C487.905 163.542 487.883 163.15 487.913 162.757C487.95 162.365 488.052 161.973 488.218 161.638C488.376 161.298 488.604 161.025 488.817 160.826C489.263 160.43 489.651 160.355 489.651 160.355Z" fill="#CC6362"/>
<path d="M490.297 162.289C490.297 162.289 490.128 162.307 489.896 162.395C489.664 162.477 489.378 162.64 489.162 162.86C488.941 163.076 488.799 163.342 488.728 163.551C488.652 163.757 488.628 163.903 488.628 163.903L487.946 163.659C487.946 163.659 488.026 163.485 488.193 163.255C488.354 163.023 488.624 162.745 488.947 162.569C489.266 162.386 489.615 162.303 489.872 162.285C490.129 162.26 490.297 162.289 490.297 162.289Z" fill="#CC6362"/>
</g>
<path d="M528.076 238.654C528.076 238.654 528.076 238.654 528.075 238.664C526.256 240.774 519.354 242.312 516.033 239.393C514.99 238.463 513.812 236.013 512.654 232.973C509.709 225.2 506.923 213.571 506.923 213.571L522.369 205.678C522.369 205.678 524.356 214.588 526.068 223.055C526.068 223.055 526.083 223.141 526.115 223.291C526.672 226.003 527.191 228.671 527.598 230.96C527.615 231.025 527.621 231.078 527.627 231.142C528.035 233.875 528.297 236.725 528.076 238.654Z" fill="#E58F8F"/>
<path d="M501.089 202.753C502.581 208.956 507.269 220.71 507.269 220.71C510.553 221.255 514.957 220.65 518.606 219.339C522.818 217.826 525.826 214.649 525.826 214.649C525.826 214.649 522.717 205.91 519.927 199.632C517.422 193.996 515.918 191.892 514.834 190.775C513.201 189.066 510.569 187.105 508.701 186.214L501.089 202.753Z" fill="white"/>
<path d="M520.621 206.804L511.557 202.893L504.415 184.491C504.415 184.491 505.724 184.889 507.447 185.585C507.447 185.585 507.447 185.585 507.455 185.585C507.488 185.602 507.563 185.626 507.687 185.676C507.728 185.693 507.778 185.709 507.82 185.734C509.361 186.455 515.335 189.976 519.469 202.769C519.502 202.877 519.535 202.984 519.568 203.092C520.007 204.567 520.33 205.752 520.504 206.365C520.521 206.423 520.537 206.481 520.554 206.547C520.58 206.63 520.597 206.721 520.621 206.804Z" fill="white"/>
<path d="M528.076 238.654C528.076 238.654 528.076 238.654 528.075 238.664C527.942 239.795 527.63 240.608 527.071 240.896C526.982 240.953 525.714 241.708 525.625 241.765C523.736 242.92 520.311 244.884 516.051 246.716C505.719 251.18 490.709 256.357 482.617 258.729C482.617 258.729 481.818 256.443 480.572 254.062C480.572 254.062 487.892 250.663 495.086 245.152C502.291 239.653 512.653 232.973 512.653 232.973L515.27 229.895C515.27 229.895 524.573 221.333 526.067 223.056C526.067 223.056 526.082 223.142 526.114 223.292C526.336 224.185 527.074 227.47 527.597 230.961C527.614 231.026 527.62 231.079 527.626 231.143C528.035 233.875 528.297 236.725 528.076 238.654Z" fill="#E58F8F"/>
<path d="M481.642 253.539C481.642 253.539 479.823 254.635 477.97 254.245C476.945 254.029 476.531 253.61 475.773 253.477C475.015 253.344 472.996 253.095 471.996 252.604C470.997 252.114 470.606 252.059 470.642 253.063C470.677 254.067 472.649 254.934 473.184 255.213C473.719 255.491 474.39 256.381 474.462 256.493C474.534 256.605 471.175 258.363 470.272 258.006C470.272 258.006 470.003 258.815 470.156 259.266C470.309 259.718 471 259.876 471.053 260.103C471.107 260.33 470.894 260.794 471.044 261.154C471.194 261.514 471.81 261.516 472.059 262.101C472.308 262.686 472.034 262.696 472.215 263.306C472.396 263.917 473.177 264.026 473.325 264.341C473.473 264.656 473.395 265.024 473.722 265.241C474.05 265.458 477.071 264.488 478.174 264.016C479.277 263.543 482.224 259.301 485.485 257.855L481.642 253.539Z" fill="#E58F8F"/>
<path d="M497.082 272.477H473.585V270.178H497.082C497.717 270.178 498.232 270.693 498.232 271.328C498.232 271.962 497.717 272.477 497.082 272.477Z" fill="#F87C00"/>
<path d="M484.369 272.477H425.536C424.832 272.477 424.213 272.007 424.025 271.329L411.984 227.982C411.718 227.023 412.439 226.073 413.435 226.073H470.328C471.654 226.073 472.817 226.957 473.172 228.234L485.17 271.425C485.315 271.954 484.917 272.477 484.369 272.477Z" fill="#F87C00"/>
<path d="M482.239 272.477H423.406C422.702 272.477 422.084 272.007 421.895 271.329L409.854 227.982C409.588 227.023 410.309 226.073 411.305 226.073H468.198C469.524 226.073 470.687 226.957 471.042 228.234L483.04 271.425C483.186 271.954 482.788 272.477 482.239 272.477Z" fill="#FF9E22"/>
<path d="M249.064 244.469L255.879 237.482C255.879 237.482 256.115 234.366 256.486 233.709C256.857 233.052 257.816 230.618 258.293 230.353C258.771 230.088 259.726 230.353 259.726 230.353C259.726 230.353 260.673 230.035 261.097 230.035C261.522 230.035 262.316 230.423 262.316 230.423C262.316 230.423 263.335 230.354 263.759 230.354C264.184 230.354 264.32 230.473 264.32 230.473C264.32 230.473 265.963 228.583 266.759 227.947C267.555 227.31 268.772 226.138 269.133 226.142C269.473 226.146 269.623 226.744 269.375 227.381C269.127 228.018 268.049 229.045 268.049 229.045L264.944 233.751C264.944 233.751 265.475 233.539 265.758 233.362C266.041 233.185 267.935 231.416 268.049 231.345C268.164 231.274 269.013 230.708 269.508 231.274C270.003 231.84 266.257 236.328 265.655 236.929C265.053 237.531 261.61 239.274 261.61 239.274C261.61 239.274 257.974 245.814 257.62 246.239C257.267 246.663 249.064 244.469 249.064 244.469Z" fill="#E49191"/>
<path d="M255.478 212.217C255.478 212.217 251.671 234.269 248.088 234.781C248.088 234.781 233.783 235.358 230.597 218.005C227.833 202.956 238.918 199.746 244.103 200.898C249.287 202.048 256.591 202.797 255.478 212.217Z" fill="#E49191"/>
<path d="M242.836 231.254C242.836 231.254 240.831 233.956 240.129 240.499C240.129 240.499 234.172 241.351 228.679 238.522C228.679 238.522 231.639 229.292 232.002 219.272" fill="#E49191"/>
<path d="M238.801 197.205C230.984 198.932 231.609 203.802 231.609 203.802C227.949 204.708 227.163 206.219 227.193 212.974C227.223 219.73 229.668 227.841 231.016 228.501C232.364 229.161 240.006 229.193 240.644 228.961C241.282 228.729 243.956 222.532 243.333 221.441C242.709 220.351 243.364 216.063 245.144 215.901C246.924 215.738 246.575 218.498 246.575 218.498L248.038 218.177L249.167 215.407C259.497 216.022 262.166 204.25 262.166 204.25C259.685 202.632 246.619 195.478 238.801 197.205Z" fill="#002C54"/>
<path d="M152.027 346.489L159.931 347.632L157.313 356.861L148.753 354.702C148.753 354.702 145.27 349.981 150.529 346.489C150.782 346.32 151.613 346.395 152.027 346.489Z" fill="#E58F8F"/>
<path d="M211.021 322.783L199.371 287.509C199.371 287.509 195.84 286.251 194.031 287.509C194.031 287.509 181.895 294.035 183.19 312.643C184.166 326.671 187.128 341.885 188.328 347.987L157.246 346.838C157.246 346.838 153.411 351.396 155.892 357.329C155.892 357.329 194.947 367.832 200.449 368.803C204.92 369.592 209.814 370.2 212.177 368.176C216.341 364.609 211.021 322.783 211.021 322.783Z" fill="black"/>
<path d="M188.828 346.489L196.732 347.632L194.114 356.861L185.554 354.702C185.554 354.702 182.071 349.981 187.33 346.489C187.583 346.32 188.414 346.395 188.828 346.489Z" fill="#E58F8F"/>
<path d="M185.96 351.328C185.783 353.145 187.373 354.782 187.082 355.235C186.791 355.688 181.478 364.602 181.478 364.602C181.478 364.602 185.489 366.349 184.842 368.872H174.684C174.684 368.872 172.031 366.478 172.096 363.049C172.096 363.049 172.786 359.102 174.598 355.608C176.41 352.114 180.528 344.226 180.528 344.226C180.528 344.226 181.777 343.721 183.914 344.291C186.416 344.958 188.828 346.489 188.828 346.489C188.828 346.489 186.397 346.838 185.96 351.328Z" fill="#FF9E22"/>
<path d="M267.331 360.765C264.823 351.407 241.226 311.456 233.243 300.669C216.846 293.55 199.371 287.509 199.371 287.509C192.144 289.235 188.584 303.798 192.683 313.506C195.495 320.167 213.335 336.93 224.26 346.799L193.943 346.762C193.943 346.762 190.372 352.101 193.608 357.171C193.608 357.171 244.03 368.636 248.452 369.283C252.875 369.93 262.799 369.283 262.799 369.283C262.799 369.283 269.442 368.643 267.331 360.765Z" fill="#002C54"/>
<path d="M149.159 351.328C148.982 353.145 150.572 354.782 150.281 355.235C149.99 355.688 144.677 364.602 144.677 364.602C144.677 364.602 148.688 366.349 148.041 368.872H137.883C137.883 368.872 135.23 366.478 135.295 363.049C135.295 363.049 135.985 359.102 137.797 355.608C139.609 352.114 143.727 344.226 143.727 344.226C143.727 344.226 144.976 343.721 147.113 344.291C149.614 344.958 152.027 346.489 152.027 346.489C152.027 346.489 149.596 346.838 149.159 351.328Z" fill="#FF9E22"/>
<path d="M305.291 237.679L289.03 266.282L277.385 254.674L267.746 269.022L270.545 270.366L269.538 271.204C269.538 271.204 292.012 282.149 294.705 279.734C297.398 277.32 309.946 240.93 309.946 240.93L305.291 237.679Z" fill="#E49191"/>
<path d="M279.46 256.49C279.46 256.49 276.39 269.44 270.25 275.58L254.54 269.6C254.54 269.6 247.25 281.86 240.12 291.26C237.38 294.89 236.47 300 233.25 300.67C233.05 300.6 232.86 300.54 232.66 300.49C223.93 297.87 211.05 300.65 200.42 296.7C188.68 292.33 190.96 289.87 190.96 289.87C190.96 289.87 198.08 277.04 202.12 263.45C203.92 257.44 205.17 251.87 206 247.52C207.49 239.82 213.66 233.8 221.44 232.75C221.53 232.74 221.61 232.72 221.7 232.71C230.6 231.58 253.9 234.33 258.43 236.27C262.96 238.21 279.46 256.49 279.46 256.49Z" fill="#4670DB"/>
<path d="M254.54 269.6C254.54 269.6 247.25 281.86 240.12 291.26C237.38 294.89 236.47 300 233.25 300.67C234.66 300.17 237 292.75 237.83 291.08C238.67 289.42 240 287.75 242.88 281.92C245.75 276.08 249.646 267.521 249.646 267.521L254.54 269.6Z" fill="#EFC059"/>
<path d="M224.26 346.799C224.26 346.799 224.507 346.744 224.943 346.688C225.379 346.643 226.004 346.552 226.755 346.523C228.258 346.441 230.269 346.501 232.259 346.777C233.252 346.921 234.242 347.096 235.156 347.327C236.072 347.543 236.916 347.799 237.624 348.058C238.337 348.301 238.909 348.572 239.309 348.751C239.709 348.934 239.931 349.052 239.931 349.052C239.931 349.052 239.678 349.023 239.247 348.949C238.821 348.858 238.201 348.775 237.469 348.65C236.004 348.405 234.063 348.093 232.113 347.832C231.141 347.681 230.162 347.575 229.246 347.447C228.326 347.332 227.468 347.224 226.732 347.132C225.249 346.932 224.26 346.799 224.26 346.799Z" fill="black"/>
<path d="M317.444 227.151C317.182 227.125 315.515 228.463 314.71 229.124L315.637 227.348C315.637 227.348 316.863 226.164 317.304 225.514C317.745 224.864 317.513 224.214 317.165 224.179C316.92 224.154 315.453 225.318 314.604 226.011L314.791 225.654C314.791 225.654 316.017 224.47 316.458 223.82C316.899 223.17 316.667 222.52 316.319 222.485C315.971 222.45 313.15 224.818 313.15 224.818L311.776 226.657L312.812 224.645C312.812 224.645 313.358 223.978 313.721 223.251C314.085 222.524 313.822 222.302 313.62 222.059C313.418 221.816 311.519 223.231 311.034 223.796C310.549 224.362 309.014 226.654 308.893 226.978L307.306 230.261C307.205 229.31 307.045 227.682 306.933 226.645C306.771 225.15 305.418 224.797 305.371 225.524C305.324 226.251 304.57 229.827 304.741 231.766C304.912 233.705 305.237 234.978 305.358 236.069C305.479 237.16 304.348 239.34 304.348 239.34C304.348 239.34 308.873 242.15 309.621 241.309C310.369 240.468 311.961 238.6 312.731 237.342C313.788 235.614 314.502 233.342 314.502 233.342L315.916 230.321C315.916 230.321 317.142 229.137 317.583 228.487C318.024 227.836 317.792 227.185 317.444 227.151Z" fill="#E49191"/>
<path d="M577.192 136.074H524.128C520.727 136.074 517.97 138.831 517.97 142.232V154.768C517.97 157.905 520.317 160.495 523.351 160.877C523.796 160.933 524.128 161.311 524.128 161.759V168.621C524.128 169.018 524.637 169.181 524.868 168.858L530.273 161.3C530.441 161.065 530.712 160.925 531.001 160.925H577.192C580.593 160.925 583.35 158.168 583.35 154.767V142.231C583.35 138.831 580.593 136.074 577.192 136.074Z" stroke="white" stroke-width="0.8956" stroke-miterlimit="10"/>
<path d="M532.269 148.481C532.269 149.601 531.361 150.508 530.242 150.508C529.122 150.508 528.215 149.6 528.215 148.481C528.215 147.361 529.123 146.454 530.242 146.454C531.361 146.454 532.269 147.361 532.269 148.481Z" stroke="white" stroke-width="0.8956" stroke-miterlimit="10"/>
<path d="M542.478 148.481C542.478 149.601 541.57 150.508 540.451 150.508C539.331 150.508 538.424 149.6 538.424 148.481C538.424 147.361 539.332 146.454 540.451 146.454C541.57 146.454 542.478 147.361 542.478 148.481Z" stroke="white" stroke-width="0.8956" stroke-miterlimit="10"/>
<path d="M552.688 148.481C552.688 149.601 551.78 150.508 550.661 150.508C549.541 150.508 548.633 149.6 548.633 148.481C548.633 147.361 549.541 146.454 550.661 146.454C551.78 146.454 552.688 147.361 552.688 148.481Z" stroke="white" stroke-width="0.8956" stroke-miterlimit="10"/>
<path d="M562.897 148.481C562.897 149.601 561.989 150.508 560.87 150.508C559.75 150.508 558.842 149.6 558.842 148.481C558.842 147.361 559.75 146.454 560.87 146.454C561.989 146.454 562.897 147.361 562.897 148.481Z" stroke="white" stroke-width="0.8956" stroke-miterlimit="10"/>
<path d="M573.106 148.481C573.106 149.601 572.198 150.508 571.078 150.508C569.958 150.508 569.051 149.6 569.051 148.481C569.051 147.361 569.959 146.454 571.078 146.454C572.197 146.454 573.106 147.361 573.106 148.481Z" stroke="white" stroke-width="0.8956" stroke-miterlimit="10"/>
<path d="M157.891 191.031H210.955C214.356 191.031 217.113 193.788 217.113 197.189V209.725C217.113 212.863 214.766 215.452 211.732 215.834C211.287 215.89 210.955 216.268 210.955 216.716V223.578C210.955 223.975 210.446 224.138 210.215 223.815L204.81 216.257C204.642 216.022 204.371 215.883 204.082 215.883H157.891C154.49 215.883 151.733 213.126 151.733 209.725V197.189C151.733 193.788 154.49 191.031 157.891 191.031Z" stroke="white" stroke-width="0.8956" stroke-miterlimit="10"/>
<path d="M202.814 203.438C202.814 204.558 203.722 205.465 204.841 205.465C205.961 205.465 206.869 204.557 206.869 203.438C206.869 202.318 205.961 201.411 204.841 201.411C203.722 201.41 202.814 202.318 202.814 203.438Z" stroke="white" stroke-width="0.8956" stroke-miterlimit="10"/>
<path d="M192.605 203.438C192.605 204.558 193.513 205.465 194.632 205.465C195.752 205.465 196.659 204.557 196.659 203.438C196.659 202.318 195.751 201.411 194.632 201.411C193.513 201.41 192.605 202.318 192.605 203.438Z" stroke="white" stroke-width="0.8956" stroke-miterlimit="10"/>
<path d="M182.395 203.438C182.395 204.558 183.303 205.465 184.422 205.465C185.542 205.465 186.449 204.557 186.449 203.438C186.449 202.318 185.541 201.411 184.422 201.411C183.303 201.41 182.395 202.318 182.395 203.438Z" stroke="white" stroke-width="0.8956" stroke-miterlimit="10"/>
<path d="M172.186 203.438C172.186 204.558 173.094 205.465 174.213 205.465C175.333 205.465 176.24 204.557 176.24 203.438C176.24 202.318 175.332 201.411 174.213 201.411C173.094 201.41 172.186 202.318 172.186 203.438Z" stroke="white" stroke-width="0.8956" stroke-miterlimit="10"/>
<path d="M161.977 203.438C161.977 204.558 162.885 205.465 164.005 205.465C165.125 205.465 166.032 204.557 166.032 203.438C166.032 202.318 165.124 201.411 164.005 201.411C162.884 201.41 161.977 202.318 161.977 203.438Z" stroke="white" stroke-width="0.8956" stroke-miterlimit="10"/>
<path d="M478.358 107.154H381.642C376.308 107.154 371.984 102.83 371.984 97.496C371.984 92.162 376.308 87.838 381.642 87.838H478.358C483.692 87.838 488.016 92.162 488.016 97.496C488.016 102.83 483.692 107.154 478.358 107.154Z" fill="white" stroke="#FFC55A" stroke-width="0.8956" stroke-miterlimit="10"/>
<path d="M476.941 96.831C476.941 99.668 474.642 101.967 471.805 101.967C468.968 101.967 466.669 99.668 466.669 96.831C466.669 93.994 468.968 91.695 471.805 91.695C474.642 91.695 476.941 93.994 476.941 96.831Z" stroke="#FFC55A" stroke-width="1.6716" stroke-miterlimit="10"/>
<path d="M475.436 100.462L478.272 103.298" stroke="#FFC55A" stroke-width="1.6716" stroke-miterlimit="10" stroke-linecap="round"/>
<path d="M331.851 369.829H307.52C303.263 369.829 299.812 366.378 299.812 362.121V337.79C299.812 333.533 303.263 330.082 307.52 330.082H331.851C336.108 330.082 339.559 333.533 339.559 337.79V362.121C339.559 366.378 336.108 369.829 331.851 369.829Z" fill="#3F2500"/>
<path d="M324.607 369.829H300.276C296.019 369.829 292.568 366.378 292.568 362.121V337.79C292.568 333.533 296.019 330.082 300.276 330.082H324.607C328.864 330.082 332.315 333.533 332.315 337.79V362.121C332.315 366.378 328.864 369.829 324.607 369.829Z" fill="#FFC55A"/>
<path d="M307.747 342.453L319.156 349.04C319.86 349.447 319.86 350.463 319.156 350.87L307.747 357.457C307.043 357.864 306.162 357.355 306.162 356.542V343.368C306.163 342.555 307.043 342.047 307.747 342.453Z" fill="white"/>
<path d="M583.535 369.829H551.728C546.163 369.829 541.652 365.318 541.652 359.753V327.946C541.652 322.381 546.163 317.87 551.728 317.87H583.535C589.1 317.87 593.611 322.381 593.611 327.946V359.753C593.611 365.317 589.1 369.829 583.535 369.829Z" fill="#3F2500"/>
<path d="M574.066 369.829H542.259C536.694 369.829 532.183 365.318 532.183 359.753V327.946C532.183 322.381 536.694 317.87 542.259 317.87H574.066C579.631 317.87 584.142 322.381 584.142 327.946V359.753C584.142 365.317 579.631 369.829 574.066 369.829Z" fill="#FFC55A"/>
<path d="M564.405 330.618C564.405 334.066 561.61 336.861 558.162 336.861C554.714 336.861 551.919 334.066 551.919 330.618C551.919 327.17 554.714 324.375 558.162 324.375C561.61 324.375 564.405 327.17 564.405 330.618Z" fill="white"/>
<path d="M571.176 351.754V360.969C571.176 361.802 570.501 362.477 569.668 362.477H546.655C545.822 362.477 545.147 361.802 545.147 360.969V351.754C545.147 344.567 550.973 338.74 558.161 338.74C565.35 338.741 571.176 344.567 571.176 351.754Z" fill="white"/>
<path d="M441.965 118.281H421.536C420.688 118.281 420.001 117.594 420.001 116.746C420.001 115.898 420.688 115.211 421.536 115.211H441.965C442.813 115.211 443.5 115.898 443.5 116.746C443.5 117.593 442.813 118.281 441.965 118.281Z" fill="#FFD9A9"/>
<path d="M462.402 118.281H447.618C446.77 118.281 446.083 117.594 446.083 116.746C446.083 115.898 446.77 115.211 447.618 115.211H462.402C463.25 115.211 463.937 115.898 463.937 116.746C463.938 117.593 463.25 118.281 462.402 118.281Z" fill="#FFD9A9"/>
<path d="M430.216 125.031H421.537C420.689 125.031 420.002 124.344 420.002 123.496C420.002 122.648 420.689 121.961 421.537 121.961H430.216C431.064 121.961 431.751 122.648 431.751 123.496C431.751 124.343 431.063 125.031 430.216 125.031Z" fill="#FFD9A9"/>
<path d="M462.402 125.031H435.368C434.52 125.031 433.833 124.344 433.833 123.496C433.833 122.648 434.52 121.961 435.368 121.961H462.402C463.25 121.961 463.937 122.648 463.937 123.496C463.938 124.343 463.25 125.031 462.402 125.031Z" fill="#FFD9A9"/>
<path d="M448.465 131.781H421.536C420.688 131.781 420.001 131.094 420.001 130.246C420.001 129.398 420.688 128.711 421.536 128.711H448.465C449.313 128.711 450 129.398 450 130.246C450 131.093 449.313 131.781 448.465 131.781Z" fill="#FFD9A9"/>
<path d="M462.402 131.781H453.722C452.874 131.781 452.187 131.094 452.187 130.246C452.187 129.398 452.874 128.711 453.722 128.711H462.402C463.25 128.711 463.937 129.398 463.937 130.246C463.938 131.093 463.25 131.781 462.402 131.781Z" fill="#FFD9A9"/>
<path d="M183.279 275.073H111.964C109.853 275.073 108.141 273.361 108.141 271.25V235.25C108.141 233.138 109.853 231.427 111.964 231.427H183.279C185.39 231.427 187.102 233.139 187.102 235.25V271.25C187.103 273.362 185.391 275.073 183.279 275.073Z" fill="#3F2500"/>
<path d="M111.497 237.323H183.747" stroke="white" stroke-width="0.8956" stroke-miterlimit="10" stroke-linecap="round"/>
<path d="M181.84 235.198C182.323 235.198 182.715 234.806 182.715 234.323C182.715 233.84 182.323 233.448 181.84 233.448C181.357 233.448 180.965 233.84 180.965 234.323C180.965 234.806 181.357 235.198 181.84 235.198Z" fill="white"/>
<path d="M177.277 235.198C177.76 235.198 178.152 234.806 178.152 234.323C178.152 233.84 177.76 233.448 177.277 233.448C176.794 233.448 176.402 233.84 176.402 234.323C176.402 234.806 176.794 235.198 177.277 235.198Z" fill="white"/>
<path d="M172.715 235.198C173.198 235.198 173.59 234.806 173.59 234.323C173.59 233.84 173.198 233.448 172.715 233.448C172.232 233.448 171.84 233.84 171.84 234.323C171.84 234.806 172.232 235.198 172.715 235.198Z" fill="white"/>
<path d="M124.965 243.198H112.705C112.038 243.198 111.497 242.657 111.497 241.99C111.497 241.323 112.038 240.782 112.705 240.782H124.965C125.632 240.782 126.173 241.323 126.173 241.99C126.173 242.657 125.632 243.198 124.965 243.198Z" fill="#D1A865"/>
<path d="M124.965 248.781H112.705C112.038 248.781 111.497 248.24 111.497 247.573C111.497 246.906 112.038 246.365 112.705 246.365H124.965C125.632 246.365 126.173 246.906 126.173 247.573C126.173 248.241 125.632 248.781 124.965 248.781Z" fill="#D1A865"/>
<path d="M124.965 254.365H112.705C112.038 254.365 111.497 253.824 111.497 253.157C111.497 252.49 112.038 251.949 112.705 251.949H124.965C125.632 251.949 126.173 252.49 126.173 253.157C126.173 253.824 125.632 254.365 124.965 254.365Z" fill="#D1A865"/>
<path d="M124.965 259.948H112.705C112.038 259.948 111.497 259.407 111.497 258.74C111.497 258.073 112.038 257.532 112.705 257.532H124.965C125.632 257.532 126.173 258.073 126.173 258.74C126.173 259.407 125.632 259.948 124.965 259.948Z" fill="#D1A865"/>
<path d="M124.965 265.531H112.705C112.038 265.531 111.497 264.99 111.497 264.323C111.497 263.656 112.038 263.115 112.705 263.115H124.965C125.632 263.115 126.173 263.656 126.173 264.323C126.173 264.991 125.632 265.531 124.965 265.531Z" fill="#D1A865"/>
<path d="M124.965 271.115H112.705C112.038 271.115 111.497 270.574 111.497 269.907C111.497 269.24 112.038 268.699 112.705 268.699H124.965C125.632 268.699 126.173 269.24 126.173 269.907C126.173 270.574 125.632 271.115 124.965 271.115Z" fill="#D1A865"/>
<path d="M182.538 243.198H129.705C129.038 243.198 128.497 242.657 128.497 241.99C128.497 241.323 129.038 240.782 129.705 240.782H182.538C183.205 240.782 183.746 241.323 183.746 241.99C183.747 242.657 183.206 243.198 182.538 243.198Z" fill="#FFBD61"/>
<path d="M182.538 248.781H129.705C129.038 248.781 128.497 248.24 128.497 247.573C128.497 246.906 129.038 246.365 129.705 246.365H182.538C183.205 246.365 183.746 246.906 183.746 247.573C183.747 248.241 183.206 248.781 182.538 248.781Z" fill="#FFBD61"/>
<path d="M182.538 254.365H129.705C129.038 254.365 128.497 253.824 128.497 253.157C128.497 252.49 129.038 251.949 129.705 251.949H182.538C183.205 251.949 183.746 252.49 183.746 253.157C183.747 253.824 183.206 254.365 182.538 254.365Z" fill="#FFBD61"/>
<path d="M182.538 259.948H129.705C129.038 259.948 128.497 259.407 128.497 258.74C128.497 258.073 129.038 257.532 129.705 257.532H182.538C183.205 257.532 183.746 258.073 183.746 258.74C183.747 259.407 183.206 259.948 182.538 259.948Z" fill="#FFBD61"/>
<path d="M182.538 265.531H129.705C129.038 265.531 128.497 264.99 128.497 264.323C128.497 263.656 129.038 263.115 129.705 263.115H182.538C183.205 263.115 183.746 263.656 183.746 264.323C183.747 264.991 183.206 265.531 182.538 265.531Z" fill="#FFBD61"/>
<path d="M182.538 271.115H129.705C129.038 271.115 128.497 270.574 128.497 269.907C128.497 269.24 129.038 268.699 129.705 268.699H182.538C183.205 268.699 183.746 269.24 183.746 269.907C183.747 270.574 183.206 271.115 182.538 271.115Z" fill="#FFBD61"/>
<path d="M553.484 47.0575C557.667 29.5992 546.905 12.0555 529.447 7.87271C511.988 3.68989 494.445 14.4518 490.262 31.9102C486.079 49.3685 496.841 66.9121 514.299 71.0949C531.758 75.2778 549.301 64.5158 553.484 47.0575Z" stroke="#FCF0DE" stroke-width="0.7896" stroke-miterlimit="10"/>
<path d="M533.307 65.3588C547.58 59.0439 554.032 42.3541 547.717 28.081C541.402 13.8079 524.712 7.3564 510.439 13.6712C496.166 19.986 489.715 36.6759 496.029 50.949C502.344 65.2221 519.034 71.6736 533.307 65.3588Z" fill="black"/>
<path d="M524.438 39.495C524.438 40.916 523.286 42.067 521.866 42.067C520.445 42.067 519.294 40.915 519.294 39.495C519.294 38.074 520.446 36.923 521.866 36.923C523.286 36.922 524.438 38.074 524.438 39.495Z" fill="white"/>
<path d="M521.585 38.989C521.196 39.204 520.707 39.064 520.491 38.675L512.18 23.684C511.965 23.295 512.105 22.806 512.494 22.59C512.883 22.375 513.372 22.515 513.588 22.903L521.899 37.894C522.114 38.284 521.974 38.774 521.585 38.989Z" fill="white"/>
<path d="M522.274 39.903C522.588 39.589 523.098 39.589 523.412 39.903L530.602 47.093C530.916 47.407 530.916 47.917 530.602 48.231C530.288 48.545 529.778 48.545 529.464 48.231L522.274 41.041C521.96 40.727 521.96 40.217 522.274 39.903Z" fill="white"/>
<path d="M522.038 16.875V13.625" stroke="white" stroke-width="2" stroke-miterlimit="10" stroke-linecap="round"/>
<path d="M544.485 39.668H547.735" stroke="white" stroke-width="2" stroke-miterlimit="10" stroke-linecap="round"/>
<path d="M521.692 62.114V65.364" stroke="white" stroke-width="2" stroke-miterlimit="10" stroke-linecap="round"/>
<path d="M499.245 39.322H495.995" stroke="white" stroke-width="2" stroke-miterlimit="10" stroke-linecap="round"/>
<g opacity="0.5">
<path d="M510.705 19.819L509.08 17.004" stroke="#FCF0DE" stroke-miterlimit="10" stroke-linecap="round"/>
<path d="M541.541 28.335L544.355 26.71" stroke="#FCF0DE" stroke-miterlimit="10" stroke-linecap="round"/>
<path d="M533.025 59.17L534.65 61.985" stroke="#FCF0DE" stroke-miterlimit="10" stroke-linecap="round"/>
<path d="M502.19 50.655L499.375 52.28" stroke="#FCF0DE" stroke-miterlimit="10" stroke-linecap="round"/>
</g>
<g opacity="0.5">
<path d="M502.362 28.035L499.548 26.41" stroke="#FCF0DE" stroke-miterlimit="10" stroke-linecap="round"/>
<path d="M533.325 19.992L534.95 17.177" stroke="#FCF0DE" stroke-miterlimit="10" stroke-linecap="round"/>
<path d="M541.368 50.954L544.182 52.579" stroke="#FCF0DE" stroke-miterlimit="10" stroke-linecap="round"/>
<path d="M510.406 58.997L508.781 61.812" stroke="#FCF0DE" stroke-miterlimit="10" stroke-linecap="round"/>
</g>
<path d="M135.658 203.078H99.963C94.678 203.078 90.394 198.794 90.394 193.509V157.814C90.394 152.529 94.678 148.245 99.963 148.245H135.658C140.943 148.245 145.227 152.529 145.227 157.814V193.509C145.227 198.793 140.943 203.078 135.658 203.078Z" fill="#3F2500"/>
<path d="M133.311 198.328H93.811C89.577 198.328 86.144 194.896 86.144 190.661V151.161C86.144 146.927 89.576 143.494 93.811 143.494H133.311C137.545 143.494 140.978 146.926 140.978 151.161V190.661C140.977 194.895 137.545 198.328 133.311 198.328Z" fill="#FDBE7E" stroke="#FCF0DE" stroke-miterlimit="10"/>
<path d="M123.055 164.633H122.769V161.492C122.769 156.336 118.576 152.142 113.42 152.142C108.264 152.142 104.071 156.336 104.071 161.492V164.633H104.008C102.559 164.633 101.384 165.808 101.384 167.257V179.094C101.384 180.543 102.559 181.718 104.008 181.718H123.055C124.504 181.718 125.679 180.543 125.679 179.094V167.257C125.679 165.807 124.504 164.633 123.055 164.633ZM106.439 161.492C106.439 157.643 109.572 154.511 113.42 154.511C117.268 154.511 120.401 157.643 120.401 161.492V164.633H106.438L106.439 161.492Z" fill="#FCF0DE"/>
<path d="M116.611 170.717C116.611 168.827 114.893 167.339 112.933 167.729C111.778 167.959 110.82 168.907 110.579 170.059C110.289 171.449 110.946 172.717 112.022 173.347C112.24 173.475 112.365 173.715 112.299 173.959L111.768 175.918C111.453 177.083 112.33 178.229 113.536 178.229C114.743 178.229 115.62 177.083 115.305 175.918L114.78 173.98C114.713 173.733 114.841 173.489 115.064 173.363C115.987 172.839 116.611 171.853 116.611 170.717Z" fill="#FDBE7E"/>
<path d="M124.554 185.868H102.51C101.889 185.868 101.385 185.364 101.385 184.743C101.385 184.122 101.889 183.618 102.51 183.618H124.554C125.175 183.618 125.679 184.122 125.679 184.743C125.679 185.365 125.175 185.868 124.554 185.868Z" fill="#FCF0DE"/>
<path d="M124.554 189.681H102.51C101.889 189.681 101.385 189.177 101.385 188.556C101.385 187.935 101.889 187.431 102.51 187.431H124.554C125.175 187.431 125.679 187.935 125.679 188.556C125.679 189.177 125.175 189.681 124.554 189.681Z" fill="#FCF0DE"/>
<path d="M567.573 267.532H546.559C543.448 267.532 540.925 265.01 540.925 261.898V240.884C540.925 237.773 543.447 235.251 546.559 235.251H567.573C570.684 235.251 573.206 237.773 573.206 240.884V261.898C573.206 265.01 570.684 267.532 567.573 267.532Z" fill="#3F2500"/>
<path d="M566.191 264.736H542.937C540.444 264.736 538.424 262.715 538.424 260.223V236.969C538.424 234.476 540.445 232.456 542.937 232.456H566.191C568.684 232.456 570.704 234.477 570.704 236.969V260.223C570.704 262.715 568.684 264.736 566.191 264.736Z" fill="#FDBE7E" stroke="#FCF0DE" stroke-miterlimit="10"/>
<path d="M548.042 258.235C547.951 258.235 547.86 258.223 547.769 258.197C547.237 258.048 546.928 257.495 547.079 256.964L551.961 239.683C552.111 239.15 552.666 238.839 553.194 238.993C553.726 239.142 554.035 239.695 553.884 240.226L549.002 257.507C548.879 257.948 548.477 258.235 548.042 258.235Z" fill="white"/>
<path d="M556.205 258.235C556.114 258.235 556.023 258.223 555.933 258.197C555.401 258.048 555.092 257.495 555.243 256.964L560.126 239.683C560.275 239.15 560.831 238.839 561.359 238.993C561.891 239.142 562.2 239.695 562.049 240.226L557.166 257.507C557.042 257.948 556.641 258.235 556.205 258.235Z" fill="white"/>
<path d="M563.204 245.679H545.923C545.37 245.679 544.923 245.232 544.923 244.679C544.923 244.126 545.37 243.679 545.923 243.679H563.204C563.757 243.679 564.204 244.126 564.204 244.679C564.204 245.232 563.757 245.679 563.204 245.679Z" fill="white"/>
<path d="M563.204 253.573H545.923C545.37 253.573 544.923 253.126 544.923 252.573C544.923 252.02 545.37 251.573 545.923 251.573H563.204C563.757 251.573 564.204 252.02 564.204 252.573C564.204 253.126 563.757 253.573 563.204 253.573Z" fill="white"/>
<path d="M177.873 164.991H165.375C164.618 164.991 164.005 164.377 164.005 163.621C164.005 162.864 164.619 162.251 165.375 162.251H177.873C178.63 162.251 179.243 162.865 179.243 163.621C179.243 164.377 178.63 164.991 177.873 164.991Z" fill="#FFFAF0"/>
<path d="M190.463 171.074H165.375C164.618 171.074 164.005 170.46 164.005 169.704C164.005 168.947 164.619 168.334 165.375 168.334H190.463C191.22 168.334 191.833 168.948 191.833 169.704C191.833 170.461 191.22 171.074 190.463 171.074Z" fill="#FFFAF0"/>
<path d="M168.338 177.158H165.375C164.618 177.158 164.005 176.545 164.005 175.788C164.005 175.031 164.619 174.418 165.375 174.418H168.338C169.095 174.418 169.708 175.031 169.708 175.788C169.708 176.544 169.095 177.158 168.338 177.158Z" fill="#FFFAF0"/>
<path d="M190.463 177.158H172.994C172.237 177.158 171.624 176.545 171.624 175.788C171.624 175.031 172.238 174.418 172.994 174.418H190.463C191.22 174.418 191.833 175.031 191.833 175.788C191.833 176.544 191.22 177.158 190.463 177.158Z" fill="#FFFAF0"/>
<path d="M190.463 164.991H182.887C182.13 164.991 181.517 164.377 181.517 163.621C181.517 162.864 182.131 162.251 182.887 162.251H190.463C191.22 162.251 191.833 162.865 191.833 163.621C191.833 164.377 191.22 164.991 190.463 164.991Z" fill="#FFFAF0"/>
<path d="M119.983 351.916C118.355 351.916 116.831 352.363 115.527 353.14C115.004 348.474 111.047 344.846 106.241 344.846C101.079 344.846 96.894 349.031 96.894 354.193C96.894 354.539 96.914 354.88 96.951 355.217C96.522 355.137 96.081 355.093 95.629 355.093C91.687 355.093 88.492 358.288 88.492 362.23C88.492 366.172 91.687 369.367 95.629 369.367H119.984C124.803 369.367 128.709 365.461 128.709 360.642C128.709 355.822 124.802 351.916 119.983 351.916Z" fill="white"/>
<path d="M58.043 314.44C57.807 313.135 57.839 311.8 58.168 310.515C59.269 306.212 60.529 298.12 57.729 289.377C53.058 274.792 34.126 261.874 34.126 261.874C34.126 261.874 39.265 283.397 43.49 292.562C46.583 299.272 51.994 306.908 54.997 310.928C55.83 312.044 56.401 313.329 56.649 314.699C59.71 331.636 59.267 344.747 59.259 344.95L60.68 345.005C60.687 344.801 61.137 331.556 58.043 314.44Z" fill="white"/>
<path d="M73.138 300.727C76.899 288.837 78.648 274.831 78.648 274.831C78.648 274.831 61.673 288.837 60.282 299.675C59.43 306.313 60.489 311.637 61.439 314.77C61.842 316.1 61.989 317.491 61.84 318.873C60.122 334.822 61.468 347.044 61.489 347.231L62.767 347.084C62.746 346.905 61.497 335.532 62.968 320.462C63.169 318.398 64.001 316.447 65.307 314.837C67.736 311.839 71.209 306.825 73.138 300.727Z" fill="#FDB823"/>
<path d="M90.394 274.278C90.394 274.278 72.102 281.066 67.319 296.001C64.408 305.091 65.783 313.493 66.921 317.845C67.24 319.066 67.223 320.341 66.917 321.566C62.632 338.753 62.566 356.544 62.566 356.78H64.022C64.022 356.548 64.088 339.181 68.226 322.326C68.637 320.652 69.367 319.078 70.395 317.693C73.515 313.491 78.824 305.931 81.898 299.262C86.226 289.878 90.394 274.278 90.394 274.278Z" fill="white"/>
<path d="M58.119 337.294C57.664 331.042 55.96 325.414 53.895 320.692C53.482 319.746 53.336 318.712 53.468 317.688C53.724 315.716 53.829 312.653 53.041 308.761C51.557 301.433 41.831 285.603 27.749 284.675C27.749 284.675 32.608 292.486 35.108 299.022C38.271 307.291 42.786 315.94 50.274 319.26C51.591 319.844 52.622 320.937 53.171 322.268C54.976 326.643 56.425 331.754 56.835 337.387L58.119 337.294Z" fill="#FDB823"/>
<path d="M48.598 369.363H71.836L77.865 332.518C78.132 330.887 76.873 329.406 75.221 329.406H45.213C43.561 329.406 42.302 330.887 42.569 332.518L48.598 369.363Z" fill="white"/>
<path d="M0.890015 369.363H651.11" stroke="white" stroke-width="1.1144" stroke-miterlimit="10" stroke-linecap="round"/>
</svg>
