<svg width="500" height="370" viewBox="0 0 500 370" fill="none" xmlns="http://www.w3.org/2000/svg">
<path d="M449.901 344.494H416.779V344.744H449.901V344.494Z" fill="#EBEBEB"/>
<path d="M331.22 347.208H322.527V347.458H331.22V347.208Z" fill="#EBEBEB"/>
<path d="M415.778 335.208H396.586V335.458H415.778V335.208Z" fill="#EBEBEB"/>
<path d="M95.652 336.888H52.459V337.138H95.652V336.888Z" fill="#EBEBEB"/>
<path d="M110.889 336.888H104.556V337.138H110.889V336.888Z" fill="#EBEBEB"/>
<path d="M225.147 341.111H131.471V341.361H225.147V341.111Z" fill="#EBEBEB"/>
<path d="M237.014 283.8H43.915C40.768 283.8 38.207 281.239 38.207 278.092V6.66C38.207 3.513 40.768 0.951996 43.915 0.951996H237.014C240.16 0.951996 242.721 3.513 242.721 6.66V278.092C242.721 281.239 240.16 283.8 237.014 283.8ZM43.915 1.203C40.905 1.203 38.457 3.651 38.457 6.661V278.093C38.457 281.103 40.905 283.551 43.915 283.551H237.014C240.023 283.551 242.471 281.103 242.471 278.093V6.66C242.471 3.651 240.023 1.202 237.014 1.202L43.915 1.203Z" fill="#EBEBEB"/>
<path d="M453.31 283.8H260.212C257.065 283.8 254.505 281.239 254.505 278.092V6.66C254.505 3.513 257.066 0.951996 260.212 0.951996H453.31C456.458 0.951996 459.018 3.513 459.018 6.66V278.092C459.019 281.239 456.458 283.8 453.31 283.8ZM260.212 1.203C257.203 1.203 254.755 3.651 254.755 6.661V278.093C254.755 281.103 257.203 283.551 260.212 283.551H453.31C456.32 283.551 458.768 281.103 458.768 278.093V6.66C458.768 3.651 456.32 1.202 453.31 1.202L260.212 1.203Z" fill="#EBEBEB"/>
<path d="M500 328.398H0V328.648H500V328.398Z" fill="#EBEBEB"/>
<path d="M412.849 238.758C401.499 247.51 398.218 266.665 397.648 280.169C397.596 281.4 395.676 281.406 395.728 280.169C396.331 265.867 399.586 246.579 411.879 237.1C412.857 236.346 413.814 238.013 412.849 238.758Z" fill="#F5F5F5"/>
<path d="M386.503 228.964C389.397 228.63 391.834 231.589 393.091 233.763C399.621 245.05 397.094 262.085 395.858 274.196C395.734 275.413 393.812 275.426 393.938 274.196C395.141 262.408 397.329 247.053 392.004 235.85C391.09 233.927 389.136 230.58 386.503 230.884C385.278 231.025 385.288 229.104 386.503 228.964Z" fill="#E6E6E6"/>
<path d="M379.469 244.47C391.61 241.473 393.125 268.39 393.484 274.196C393.56 275.43 391.64 275.425 391.564 274.196C391.078 266.342 390.69 255.09 385.009 248.787C383.861 247.513 381.866 245.855 379.979 246.321C378.78 246.618 378.268 244.767 379.469 244.47Z" fill="#E6E6E6"/>
<path d="M415.449 257.531C405.413 250.097 402.146 269.632 401.591 275.262C401.471 276.48 399.55 276.493 399.671 275.262C400.301 268.874 401.272 257.301 408.652 254.617C411.182 253.697 414.261 254.276 416.418 255.874C417.4 256.601 416.444 258.268 415.449 257.531Z" fill="#E6E6E6"/>
<path d="M375.525 261.057C377.032 259.532 379.349 258.519 381.499 258.88C387.621 259.908 389.321 269.146 390.249 273.94C390.483 275.147 388.633 275.664 388.398 274.45C387.597 270.313 383.739 255.478 376.883 262.414C376.013 263.295 374.655 261.937 375.525 261.057Z" fill="#F5F5F5"/>
<path d="M411.678 324.013H382.644C377.551 319.688 374.308 313.254 374.308 306.045C374.308 297.811 378.936 273.11 378.936 273.11H415.387C415.387 273.11 420.015 297.811 420.015 306.045C420.014 313.254 416.772 319.688 411.678 324.013Z" fill="#EBEBEB"/>
<path d="M416.298 267.004C407.542 267.004 398.974 263.455 397.161 259.077C395.348 254.699 400.976 251.15 409.731 251.15C412.622 251.15 415.487 251.543 418.101 252.219C420.155 251.543 422.694 251.15 425.585 251.15C434.341 251.15 442.909 254.699 444.722 259.077C446.535 263.455 440.908 267.004 432.152 267.004H416.298Z" fill="#F5F5F5"/>
<path d="M359.169 250.034C352.007 250.034 349.104 247.131 352.685 243.55C356.266 239.969 364.975 237.066 372.136 237.066C374.501 237.066 376.39 237.388 377.745 237.941C380.207 237.388 382.738 237.066 385.103 237.066C392.265 237.066 395.168 239.969 391.587 243.55C388.006 247.131 379.298 250.034 372.136 250.034H359.169Z" fill="#F0F0F0"/>
<path d="M425.035 243.55C416.025 243.55 405.068 239.898 400.563 235.392C396.058 230.887 399.71 227.234 408.72 227.234C411.695 227.234 414.881 227.639 417.978 228.334C419.684 227.638 422.06 227.234 425.035 227.234C434.046 227.234 445.002 230.886 449.508 235.392C454.014 239.898 450.361 243.55 441.35 243.55H425.035Z" fill="#EBEBEB"/>
<path d="M374.942 233.016C370.437 233.016 367.541 231.19 368.474 228.937C369.407 226.684 373.816 224.858 378.321 224.858C379.809 224.858 381.115 225.06 382.172 225.408C383.517 225.06 384.991 224.858 386.479 224.858C390.984 224.858 393.88 226.684 392.947 228.937C392.014 231.19 387.605 233.016 383.1 233.016H374.942Z" fill="#F0F0F0"/>
<path d="M369.747 265.65C365.242 265.65 360.833 263.824 359.9 261.571C358.967 259.318 361.863 257.492 366.368 257.492C367.856 257.492 369.33 257.694 370.675 258.042C371.732 257.694 373.038 257.492 374.526 257.492C379.031 257.492 383.44 259.318 384.373 261.571C385.306 263.824 382.41 265.65 377.905 265.65H369.747Z" fill="#EBEBEB"/>
<path d="M378.109 277.683C378.599 274.908 378.935 273.109 378.935 273.109H415.386C415.386 273.109 415.722 274.907 416.212 277.683H378.109Z" fill="#F5F5F5"/>
<path d="M376.525 239.517C376.525 239.517 366.525 242.85 363.358 248.35C363.358 248.35 363.858 240.35 376.525 239.517Z" fill="#FAFAFA"/>
<path d="M381.228 226.437C381.228 226.437 378.624 227.886 377.042 230.052C377.042 230.052 377.831 226.905 381.228 226.437Z" fill="#FAFAFA"/>
<path d="M420.014 230.053C420.014 230.053 430.849 234.017 437.516 241.517C437.516 241.517 432.345 231.089 420.014 230.053Z" fill="#FAFAFA"/>
<path d="M420.014 254.178C420.014 254.178 426.516 256.516 431.349 263.016C431.349 263.016 429.345 255.507 420.014 254.178Z" fill="#E6E6E6"/>
<path d="M370.849 259.679C370.849 259.679 373.349 260.767 373.682 264.017C373.682 264.017 371.349 262.007 370.849 259.679Z" fill="#FAFAFA"/>
<path d="M440.551 118.095V113.475L308.254 113.475V118.095L440.551 118.095Z" fill="#F5F5F5"/>
<path d="M343.511 118.095H321.38V122.845V123.715V128.465H332.445C332.445 125.842 334.572 123.715 337.195 123.715H343.51L343.511 118.095Z" fill="#E0E0E0"/>
<path d="M333.511 118.095H317.38V128.465H322.445C322.445 125.842 324.572 123.715 327.195 123.715H333.51L333.511 118.095Z" fill="#F5F5F5"/>
<path d="M405.294 118.095H427.425V122.845V123.715V128.465H416.36C416.36 125.842 414.233 123.715 411.61 123.715H405.295V118.095H405.294Z" fill="#EBEBEB"/>
<path d="M415.294 118.095H431.425V128.465H426.36C426.36 125.842 424.233 123.715 421.61 123.715H415.295V118.095H415.294Z" fill="#F5F5F5"/>
<path d="M390.23 113.924H401.75C403.771 112.208 405.057 109.655 405.057 106.795C405.057 103.528 403.221 84.122 403.221 84.122H388.759C388.759 84.122 386.923 103.528 386.923 106.795C386.923 109.655 388.21 112.208 390.23 113.924Z" fill="#EBEBEB"/>
<path d="M397.556 101.116C397.506 102.044 397.478 102.784 397.478 103.276C397.478 107.548 399.399 111.36 402.418 113.923H419.622C422.64 111.36 424.561 107.548 424.561 103.276C424.561 102.784 424.533 102.043 424.483 101.116H397.556Z" fill="#F5F5F5"/>
<path d="M390.207 101.248C390.186 100.015 389.181 99.023 387.948 99.023H374.476C373.243 99.023 372.238 100.015 372.217 101.248C372.216 101.305 372.215 101.358 372.214 101.414C371.72 101.256 371.211 101.166 370.714 101.166C368.504 101.166 367.02 102.891 367.02 105.459C367.02 107.916 369.603 109.752 371.911 109.752C372.154 109.752 372.384 109.723 372.608 109.682C373.151 111.35 374.144 112.814 375.452 113.924H386.972C388.993 112.208 390.279 109.655 390.279 106.795C390.279 105.905 390.25 103.816 390.207 101.248ZM371.912 108.313C370.348 108.313 368.459 107.04 368.459 105.459C368.459 104.79 368.622 102.605 370.715 102.605C371.198 102.605 371.711 102.727 372.19 102.941C372.162 104.715 372.145 106.111 372.145 106.796C372.145 107.306 372.2 107.802 372.278 108.29C372.163 108.304 372.041 108.313 371.912 108.313Z" fill="#E0E0E0"/>
<path d="M218.752 76.219H152.603V221.184H218.752V76.219Z" fill="#EBEBEB"/>
<path d="M152.604 76.219H86.455V221.184H152.604V76.219Z" fill="#EBEBEB"/>
<path d="M188.932 313.643H211.063V318.393V319.263V324.013H199.998C199.998 321.39 197.871 319.263 195.248 319.263H188.933L188.932 313.643Z" fill="#E0E0E0"/>
<path d="M116.275 313.643H94.145V318.393V319.263V324.013H105.21C105.21 321.39 107.337 319.263 109.96 319.263H116.275V313.643Z" fill="#E0E0E0"/>
<path d="M218.752 221.184H86.455V266.851H218.752V221.184Z" fill="#EBEBEB"/>
<path d="M218.752 266.851H86.455V312.518H218.752V266.851Z" fill="#EBEBEB"/>
<path d="M218.752 228.207V223.587L86.4549 223.587V228.207L218.752 228.207Z" fill="#E0E0E0"/>
<path d="M152.603 82.839V78.219L86.454 78.219V82.839L152.603 82.839Z" fill="#E0E0E0"/>
<path d="M218.752 82.8392V78.2192L152.603 78.2192V82.8392L218.752 82.8392Z" fill="#E0E0E0"/>
<path d="M218.752 273.517V268.897H86.4549V273.517H218.752Z" fill="#E0E0E0"/>
<path d="M218.752 73.909H216.442H88.765H86.455H84.145V314.513H86.455H88.765H216.442H218.752H221.062V73.909H218.752ZM216.442 224.018V264.645H88.765V224.018H216.442ZM154.913 219.397V78.529H216.441V219.397H154.913ZM150.293 78.529V219.397H88.765V78.529H150.293ZM88.765 309.893V269.265H216.442V309.893H88.765Z" fill="#F5F5F5"/>
<path d="M106.275 313.643H84.145V318.393V319.263V324.013H95.21C95.21 321.39 97.337 319.263 99.96 319.263H106.275V313.643Z" fill="#F5F5F5"/>
<path d="M198.932 313.643H221.063V318.393V319.263V324.013H209.998C209.998 321.39 207.871 319.263 205.248 319.263H198.933L198.932 313.643Z" fill="#F5F5F5"/>
<path d="M158.273 248.018C158.273 251.149 155.735 253.687 152.604 253.687C149.473 253.687 146.935 251.149 146.935 248.018C146.935 244.887 149.473 242.349 152.604 242.349C155.734 242.348 158.273 244.887 158.273 248.018Z" fill="#E0E0E0"/>
<path d="M158.273 244.018C158.273 247.149 155.735 249.687 152.604 249.687C149.473 249.687 146.935 247.149 146.935 244.018C146.935 240.887 149.473 238.349 152.604 238.349C155.734 238.348 158.273 240.887 158.273 244.018Z" fill="#F5F5F5"/>
<path d="M158.273 293.684C158.273 296.815 155.735 299.353 152.604 299.353C149.473 299.353 146.935 296.815 146.935 293.684C146.935 290.553 149.473 288.015 152.604 288.015C155.734 288.015 158.273 290.553 158.273 293.684Z" fill="#E0E0E0"/>
<path d="M158.273 289.684C158.273 292.815 155.735 295.353 152.604 295.353C149.473 295.353 146.935 292.815 146.935 289.684C146.935 286.553 149.473 284.015 152.604 284.015C155.734 284.015 158.273 286.553 158.273 289.684Z" fill="#F5F5F5"/>
<path d="M145.111 145.867C145.111 144.301 143.842 143.032 142.276 143.032C140.71 143.032 139.441 144.301 139.441 145.867C139.441 146.661 139.441 154.743 139.441 155.536C139.441 157.102 140.71 158.371 142.276 158.371C143.842 158.371 145.111 157.102 145.111 155.536C145.111 154.679 145.111 146.724 145.111 145.867Z" fill="#E0E0E0"/>
<path d="M145.111 141.867C145.111 140.301 143.842 139.032 142.276 139.032C140.71 139.032 139.441 140.301 139.441 141.867C139.441 142.661 139.441 150.743 139.441 151.536C139.441 153.102 140.71 154.371 142.276 154.371C143.842 154.371 145.111 153.102 145.111 151.536C145.111 150.679 145.111 142.724 145.111 141.867Z" fill="#F5F5F5"/>
<path d="M165.942 145.867C165.942 144.301 164.673 143.032 163.107 143.032C161.541 143.032 160.272 144.301 160.272 145.867C160.272 146.661 160.272 154.743 160.272 155.536C160.272 157.102 161.541 158.371 163.107 158.371C164.673 158.371 165.942 157.102 165.942 155.536C165.942 154.679 165.942 146.724 165.942 145.867Z" fill="#E0E0E0"/>
<path d="M165.942 141.867C165.942 140.301 164.673 139.032 163.107 139.032C161.541 139.032 160.272 140.301 160.272 141.867C160.272 142.661 160.272 150.743 160.272 151.536C160.272 153.102 161.541 154.371 163.107 154.371C164.673 154.371 165.942 153.102 165.942 151.536C165.942 150.679 165.942 142.724 165.942 141.867Z" fill="#F5F5F5"/>
<path d="M440.551 161.277V156.657L308.254 156.657V161.277L440.551 161.277Z" fill="#F5F5F5"/>
<path d="M343.511 161.277H321.38V166.027V166.897V171.647H332.445C332.445 169.024 334.572 166.897 337.195 166.897H343.51L343.511 161.277Z" fill="#E0E0E0"/>
<path d="M333.511 161.277H317.38V171.647H322.445C322.445 169.024 324.572 166.897 327.195 166.897H333.51L333.511 161.277Z" fill="#F5F5F5"/>
<path d="M405.294 161.277H427.425V166.027V166.897V171.647H416.36C416.36 169.024 414.233 166.897 411.61 166.897H405.295V161.277H405.294Z" fill="#EBEBEB"/>
<path d="M415.294 161.277H431.425V171.647H426.36C426.36 169.024 424.233 166.897 421.61 166.897H415.295V161.277H415.294Z" fill="#F5F5F5"/>
<path d="M379.255 142.467C379.255 134.784 385.484 128.555 393.167 128.555C400.85 128.555 407.079 134.784 407.079 142.467V156.863H379.255V142.467Z" fill="#F0F0F0"/>
<path d="M403.754 144.993C405.133 139.151 401.515 133.297 395.674 131.917C389.832 130.538 383.978 134.156 382.598 139.998C381.219 145.839 384.836 151.693 390.678 153.073C396.52 154.452 402.374 150.835 403.754 144.993Z" fill="#FAFAFA"/>
<path d="M393.167 133.314C398.88 133.314 403.554 137.724 403.993 143.325C404.015 143.041 404.036 142.757 404.036 142.467C404.036 136.464 399.17 131.598 393.167 131.598C387.164 131.598 382.298 136.464 382.298 142.467C382.298 142.757 382.319 143.041 382.341 143.325C382.78 137.725 387.454 133.314 393.167 133.314Z" fill="#E0E0E0"/>
<path d="M400.031 142.461C399.706 142.461 396.196 142.461 394.316 142.461C394.316 140.58 394.316 137.065 394.316 136.746C394.316 136.111 393.801 135.596 393.166 135.596C392.531 135.596 392.016 136.111 392.016 136.746C392.016 137.176 392.016 143.18 392.016 143.611C392.016 144.246 392.531 144.761 393.166 144.761C393.587 144.761 399.61 144.761 400.031 144.761C400.666 144.761 401.181 144.246 401.181 143.611C401.181 142.976 400.666 142.461 400.031 142.461Z" fill="#E0E0E0"/>
<path d="M400.031 143.617C400.666 143.617 401.181 143.102 401.181 142.467C401.181 141.832 400.666 141.317 400.031 141.317C399.601 141.317 393.597 141.317 393.166 141.317C392.531 141.317 392.016 141.832 392.016 142.467C392.016 143.102 392.531 143.617 393.166 143.617C393.588 143.617 399.61 143.617 400.031 143.617Z" fill="#F5F5F5"/>
<path d="M394.316 135.602C394.316 134.967 393.801 134.452 393.166 134.452C392.531 134.452 392.016 134.967 392.016 135.602C392.016 136.032 392.016 142.036 392.016 142.467C392.016 143.102 392.531 143.617 393.166 143.617C393.801 143.617 394.316 143.102 394.316 142.467C394.316 142.046 394.316 136.023 394.316 135.602Z" fill="#EBEBEB"/>
<path d="M245.178 369.714C352.26 369.714 439.067 364.645 439.067 358.391C439.067 352.137 352.26 347.068 245.178 347.068C138.096 347.068 51.289 352.137 51.289 358.391C51.289 364.645 138.096 369.714 245.178 369.714Z" fill="#EBEBEB"/>
<path d="M330.189 329.4H225.504C216.898 329.4 210.287 322.424 210.738 313.818L224.34 54.283C224.791 45.677 232.133 38.701 240.739 38.701H345.425C354.031 38.701 360.642 45.677 360.191 54.283L346.589 313.818C346.137 322.424 338.795 329.4 330.189 329.4Z" fill="#FF9E22"/>
<path d="M344.876 49.15H240.191C234.742 49.15 230.076 53.583 229.791 59.032L216.687 309.067C216.401 314.516 220.602 318.949 226.051 318.949H330.737C336.186 318.949 340.852 314.516 341.137 309.067L354.241 59.032C354.526 53.583 350.325 49.15 344.876 49.15Z" fill="#FF9E22"/>
<path opacity="0.8" d="M344.876 49.15H240.191C234.742 49.15 230.076 53.583 229.791 59.032L216.687 309.067C216.401 314.516 220.602 318.949 226.051 318.949H330.737C336.186 318.949 340.852 314.516 341.137 309.067L354.241 59.032C354.526 53.583 350.325 49.15 344.876 49.15Z" fill="white"/>
<path d="M353.974 38.7H345.424C354.03 38.7 360.641 45.676 360.19 54.282L346.588 313.817C346.137 322.423 338.795 329.399 330.189 329.399H338.739C347.345 329.399 354.687 322.423 355.138 313.817L368.74 54.282C369.191 45.677 362.58 38.7 353.974 38.7Z" fill="#FF9E22"/>
<path opacity="0.4" d="M353.974 38.7H345.424C354.03 38.7 360.641 45.676 360.19 54.282L346.588 313.817C346.137 322.423 338.795 329.399 330.189 329.399H338.739C347.345 329.399 354.687 322.423 355.138 313.817L368.74 54.282C369.191 45.677 362.58 38.7 353.974 38.7Z" fill="white"/>
<path opacity="0.4" d="M240.178 49.151L254.395 318.95H291.445L277.228 49.15H240.191C240.187 49.15 240.182 49.151 240.178 49.151Z" fill="white"/>
<path opacity="0.4" d="M298.095 318.95H306.43L292.213 49.15H283.878L298.095 318.95Z" fill="white"/>
<path d="M245.462 34.15C246.685 34.15 247.907 34.15 249.13 34.15C249.709 34.15 249.71 33.25 249.13 33.25C247.907 33.25 246.685 33.25 245.462 33.25C244.883 33.25 244.882 34.15 245.462 34.15Z" fill="#FF9E22"/>
<path d="M218.783 63.773C219.007 59.493 218.831 54.918 219.757 50.718C221.883 41.075 230.539 34.477 240.236 34.15C240.814 34.13 240.816 33.23 240.236 33.25C231.574 33.542 223.735 38.477 220.199 46.509C217.845 51.855 218.183 58.049 217.883 63.773C217.852 64.352 218.752 64.35 218.783 63.773Z" fill="#FF9E22"/>
<path d="M300.782 102.705H276.777C272.267 102.705 268.803 99.049 269.04 94.54L270.298 70.535C270.534 66.025 274.382 62.37 278.891 62.37H302.896C307.406 62.37 310.87 66.026 310.634 70.535L309.376 94.54C309.139 99.049 305.291 102.705 300.782 102.705Z" fill="white"/>
<path d="M285.46 86.159C283.92 84.6 282.882 82.219 282.653 79.463C282.619 79.466 282.585 79.47 282.55 79.47C281.579 79.47 280.847 78.403 280.916 77.088C280.985 75.772 281.828 74.706 282.799 74.706C282.885 74.706 282.968 74.717 283.05 74.733C283.105 74.517 283.167 74.305 283.231 74.094C289.016 73.779 292.278 71.866 293.999 70.311C294.762 71.715 295.964 73.127 297.8 73.577C297.893 73.952 297.97 74.338 298.029 74.733C298.112 74.717 298.197 74.706 298.283 74.706C299.254 74.706 299.985 75.773 299.916 77.088C299.847 78.404 299.004 79.47 298.033 79.47C297.998 79.47 297.965 79.466 297.931 79.463C297.446 82.044 296.286 84.295 294.743 85.85C295.605 86.18 296.933 86.395 298.981 86.276C304.827 85.936 301.742 73.911 298.594 69.601C296.664 66.958 295.608 65.726 294.496 66.222C293.282 65.554 285.953 62.527 281.212 71.416C276.29 80.649 274.831 89.047 285.46 86.159Z" fill="black"/>
<path d="M301.566 92.629L295.516 90.701C295.516 90.701 290.286 92.71 289.044 97.671C288.322 92.71 283.302 90.701 283.302 90.701L277.05 92.629C273.304 93.151 271.479 96.364 270.596 99.681C271.997 101.525 274.218 102.705 276.778 102.705H300.783C303.343 102.705 305.688 101.525 307.282 99.681C306.746 96.364 305.257 93.151 301.566 92.629Z" fill="black"/>
<path d="M318.15 99.165C318.175 98.684 318.164 98.211 318.124 97.747L320.507 95.692C320.279 94.683 319.929 93.725 319.472 92.832L316.403 92.988C315.87 92.23 315.23 91.555 314.502 90.982L314.819 87.922C313.953 87.418 313.015 87.018 312.021 86.737L309.847 89.013C309.387 88.949 308.916 88.913 308.434 88.913C307.953 88.913 307.478 88.949 307.011 89.013L305.076 86.737C304.053 87.018 303.073 87.418 302.154 87.922L302.15 90.982C301.362 91.555 300.651 92.23 300.039 92.988L296.987 92.832C296.436 93.725 295.986 94.683 295.652 95.692L297.82 97.747C297.731 98.211 297.671 98.683 297.646 99.165C297.621 99.646 297.632 100.119 297.672 100.583L295.289 102.638C295.517 103.647 295.867 104.605 296.324 105.498L299.392 105.342C299.925 106.1 300.565 106.775 301.293 107.348L300.976 110.408C301.842 110.912 302.78 111.312 303.774 111.593L305.948 109.317C306.408 109.381 306.879 109.417 307.361 109.417C307.842 109.417 308.317 109.381 308.784 109.317L310.719 111.593C311.742 111.312 312.722 110.912 313.641 110.408L313.645 107.348C314.433 106.775 315.144 106.1 315.756 105.342L318.808 105.498C319.359 104.605 319.809 103.646 320.143 102.638L317.975 100.583C318.064 100.12 318.125 99.647 318.15 99.165ZM307.73 102.38C305.954 102.38 304.59 100.941 304.683 99.165C304.776 97.389 306.291 95.95 308.067 95.95C309.843 95.95 311.206 97.389 311.113 99.165C311.02 100.941 309.505 102.38 307.73 102.38Z" fill="#FF9E22"/>
<path opacity="0.4" d="M318.15 99.165C318.175 98.684 318.164 98.211 318.124 97.747L320.507 95.692C320.279 94.683 319.929 93.725 319.472 92.832L316.403 92.988C315.87 92.23 315.23 91.555 314.502 90.982L314.819 87.922C313.953 87.418 313.015 87.018 312.021 86.737L309.847 89.013C309.387 88.949 308.916 88.913 308.434 88.913C307.953 88.913 307.478 88.949 307.011 89.013L305.076 86.737C304.053 87.018 303.073 87.418 302.154 87.922L302.15 90.982C301.362 91.555 300.651 92.23 300.039 92.988L296.987 92.832C296.436 93.725 295.986 94.683 295.652 95.692L297.82 97.747C297.731 98.211 297.671 98.683 297.646 99.165C297.621 99.646 297.632 100.119 297.672 100.583L295.289 102.638C295.517 103.647 295.867 104.605 296.324 105.498L299.392 105.342C299.925 106.1 300.565 106.775 301.293 107.348L300.976 110.408C301.842 110.912 302.78 111.312 303.774 111.593L305.948 109.317C306.408 109.381 306.879 109.417 307.361 109.417C307.842 109.417 308.317 109.381 308.784 109.317L310.719 111.593C311.742 111.312 312.722 110.912 313.641 110.408L313.645 107.348C314.433 106.775 315.144 106.1 315.756 105.342L318.808 105.498C319.359 104.605 319.809 103.646 320.143 102.638L317.975 100.583C318.064 100.12 318.125 99.647 318.15 99.165ZM307.73 102.38C305.954 102.38 304.59 100.941 304.683 99.165C304.776 97.389 306.291 95.95 308.067 95.95C309.843 95.95 311.206 97.389 311.113 99.165C311.02 100.941 309.505 102.38 307.73 102.38Z" fill="white"/>
<path d="M307.73 102.38C305.954 102.38 304.59 100.941 304.683 99.165C304.776 97.389 306.291 95.95 308.067 95.95C309.843 95.95 311.206 97.389 311.113 99.165C311.02 100.941 309.505 102.38 307.73 102.38Z" fill="white"/>
<path d="M287.107 213.374H283.703L284.01 207.515H287.414L287.107 213.374Z" fill="#FF9E22"/>
<path d="M302.624 213.374H299.22L299.726 203.715H303.13L302.624 213.374Z" fill="#FF9E22"/>
<path d="M318.14 213.374H314.736L315.441 199.915H318.845L318.14 213.374Z" fill="#FF9E22"/>
<path d="M333.657 213.374H330.253L331.157 196.115H334.561L333.657 213.374Z" fill="white"/>
<path d="M240.079 213.374C241.657 213.374 247.154 213.374 248.731 213.374C250.309 213.374 255.806 213.374 257.383 213.374C262.162 213.374 266.238 209.5 266.489 204.722C266.739 199.943 263.069 196.07 258.29 196.07C256.712 196.07 251.215 196.07 249.637 196.07C248.059 196.07 242.562 196.07 240.985 196.07C236.206 196.07 232.129 199.944 231.879 204.722C231.629 209.5 235.3 213.374 240.079 213.374Z" fill="white"/>
<path d="M240.886 197.969C242.464 197.969 247.961 197.969 249.539 197.969C251.117 197.969 256.614 197.969 258.191 197.969C262.648 197.969 266.139 201.34 266.385 205.671C266.435 205.359 266.473 205.042 266.489 204.721C266.739 199.942 263.069 196.069 258.29 196.069C256.712 196.069 251.215 196.069 249.637 196.069C248.059 196.069 242.562 196.069 240.985 196.069C236.206 196.069 232.13 199.943 231.879 204.721C231.862 205.042 231.866 205.359 231.884 205.671C232.585 201.34 236.429 197.969 240.886 197.969Z" fill="#FF9E22"/>
<path opacity="0.3" d="M240.886 197.969C242.464 197.969 247.961 197.969 249.539 197.969C251.117 197.969 256.614 197.969 258.191 197.969C262.648 197.969 266.139 201.34 266.385 205.671C266.435 205.359 266.473 205.042 266.489 204.721C266.739 199.942 263.069 196.069 258.29 196.069C256.712 196.069 251.215 196.069 249.637 196.069C248.059 196.069 242.562 196.069 240.985 196.069C236.206 196.069 232.13 199.943 231.879 204.721C231.862 205.042 231.866 205.359 231.884 205.671C232.585 201.34 236.429 197.969 240.886 197.969Z" fill="white"/>
<path d="M231.88 204.721C232.13 199.942 236.207 196.068 240.986 196.068C245.765 196.068 249.435 199.942 249.185 204.721C248.935 209.5 244.858 213.373 240.079 213.373C235.3 213.374 231.629 209.5 231.88 204.721Z" fill="#FF9E22"/>
<path d="M230.334 287.94H226.93L227.336 280.182H230.74L230.334 287.94Z" fill="#FF9E22"/>
<path d="M242.952 286.04H239.548L239.705 283.032H243.109L242.952 286.04Z" fill="#FF9E22"/>
<path d="M255.42 286.99H252.016L252.273 282.082H255.677L255.42 286.99Z" fill="#FF9E22"/>
<path d="M267.988 286.04H264.584L264.742 283.032H268.146L267.988 286.04Z" fill="#FF9E22"/>
<path d="M280.407 287.94H277.003L277.409 280.182H280.813L280.407 287.94Z" fill="#FF9E22"/>
<path d="M293.025 286.04H289.62L289.778 283.032H293.182L293.025 286.04Z" fill="#FF9E22"/>
<path d="M305.493 286.99H302.089L302.346 282.082H305.75L305.493 286.99Z" fill="#FF9E22"/>
<path d="M318.061 286.04H314.657L314.815 283.032H318.219L318.061 286.04Z" fill="#FF9E22"/>
<path d="M330.48 287.94H327.076L327.482 280.182H330.886L330.48 287.94Z" fill="#FF9E22"/>
<path d="M230.334 287.94H226.93L227.336 280.182H230.74L230.334 287.94Z" fill="#FF9E22"/>
<path d="M242.952 286.04H239.548L239.705 283.032H243.109L242.952 286.04Z" fill="#FF9E22"/>
<path d="M255.42 286.99H252.016L252.273 282.082H255.677L255.42 286.99Z" fill="#FF9E22"/>
<path d="M267.988 286.04H264.584L264.742 283.032H268.146L267.988 286.04Z" fill="#FF9E22"/>
<path d="M280.407 287.94H277.003L277.409 280.182H280.813L280.407 287.94Z" fill="#FF9E22"/>
<path d="M293.025 286.04H289.62L289.778 283.032H293.182L293.025 286.04Z" fill="#FF9E22"/>
<path d="M305.493 286.99H302.089L302.346 282.082H305.75L305.493 286.99Z" fill="#FF9E22"/>
<path d="M318.061 286.04H314.657L314.815 283.032H318.219L318.061 286.04Z" fill="#FF9E22"/>
<path d="M330.48 287.94H327.076L327.482 280.182H330.886L330.48 287.94Z" fill="#FF9E22"/>
<path d="M270.801 289.217C270.846 288.363 271.002 285.39 271.046 284.536C271.091 283.682 271.247 280.709 271.291 279.855C271.426 277.27 269.441 275.174 266.855 275.174C264.27 275.174 262.064 277.27 261.929 279.855C261.884 280.709 261.728 283.682 261.684 284.536C261.639 285.39 261.483 288.363 261.439 289.217C261.304 291.802 263.289 293.898 265.875 293.898C268.46 293.898 270.665 291.803 270.801 289.217Z" fill="#FF9E22"/>
<path d="M237.893 255.074C239.471 255.074 244.968 255.074 246.546 255.074C248.124 255.074 253.621 255.074 255.199 255.074C259.978 255.074 264.054 251.2 264.305 246.422C264.556 241.643 260.885 237.769 256.106 237.769C254.528 237.769 249.031 237.769 247.454 237.769C245.876 237.769 240.379 237.769 238.801 237.769C234.022 237.769 229.946 241.643 229.695 246.422C229.444 251.2 233.115 255.074 237.893 255.074Z" fill="white"/>
<path d="M238.701 239.669C240.279 239.669 245.776 239.669 247.353 239.669C248.931 239.669 254.428 239.669 256.006 239.669C260.463 239.669 263.954 243.04 264.2 247.372C264.251 247.06 264.288 246.743 264.304 246.422C264.555 241.643 260.884 237.77 256.105 237.77C254.527 237.77 249.03 237.77 247.453 237.77C245.875 237.77 240.378 237.77 238.8 237.77C234.021 237.77 229.944 241.644 229.694 246.422C229.677 246.743 229.681 247.06 229.699 247.372C230.4 243.04 234.243 239.669 238.701 239.669Z" fill="#FF9E22"/>
<path opacity="0.3" d="M238.701 239.669C240.279 239.669 245.776 239.669 247.353 239.669C248.931 239.669 254.428 239.669 256.006 239.669C260.463 239.669 263.954 243.04 264.2 247.372C264.251 247.06 264.288 246.743 264.304 246.422C264.555 241.643 260.884 237.77 256.105 237.77C254.527 237.77 249.03 237.77 247.453 237.77C245.875 237.77 240.378 237.77 238.8 237.77C234.021 237.77 229.944 241.644 229.694 246.422C229.677 246.743 229.681 247.06 229.699 247.372C230.4 243.04 234.243 239.669 238.701 239.669Z" fill="white"/>
<path d="M246.999 246.422C247.249 241.643 251.326 237.77 256.105 237.77C260.884 237.77 264.555 241.644 264.304 246.422C264.054 251.201 259.977 255.074 255.198 255.074C250.42 255.074 246.749 251.2 246.999 246.422Z" fill="#FF9E22"/>
<path d="M239.587 134.034C241.394 134.034 332.147 134.034 333.954 134.034C336.49 134.034 338.654 131.978 338.786 129.442C338.919 126.906 336.971 124.85 334.435 124.85C332.383 124.85 242.12 124.85 240.068 124.85C237.532 124.85 235.369 126.906 235.236 129.442C235.103 131.978 237.051 134.034 239.587 134.034Z" fill="white"/>
<path d="M240.068 126.85C242.12 126.85 332.383 126.85 334.435 126.85C336.547 126.85 338.232 128.284 338.666 130.225C338.724 129.969 338.772 129.71 338.786 129.442C338.919 126.906 336.971 124.85 334.435 124.85C332.383 124.85 242.12 124.85 240.068 124.85C237.532 124.85 235.369 126.906 235.236 129.442C235.214 129.866 235.269 130.269 235.356 130.659C235.843 128.498 237.801 126.85 240.068 126.85Z" fill="#FF9E22"/>
<path opacity="0.3" d="M240.068 126.85C242.12 126.85 332.383 126.85 334.435 126.85C336.547 126.85 338.232 128.284 338.666 130.225C338.724 129.969 338.772 129.71 338.786 129.442C338.919 126.906 336.971 124.85 334.435 124.85C332.383 124.85 242.12 124.85 240.068 124.85C237.532 124.85 235.369 126.906 235.236 129.442C235.214 129.866 235.269 130.269 235.356 130.659C235.843 128.498 237.801 126.85 240.068 126.85Z" fill="white"/>
<path d="M248.194 129.442C248.444 124.663 252.521 120.79 257.3 120.79C262.079 120.79 265.749 124.664 265.499 129.442C265.248 134.221 261.172 138.095 256.393 138.095C251.615 138.094 247.944 134.221 248.194 129.442Z" fill="#FF9E22"/>
<path d="M332.346 241.104C332.442 239.262 331.028 237.769 329.186 237.769H323.868H301.331C299.49 237.769 297.918 239.262 297.822 241.104L297.265 251.74C297.169 253.582 298.583 255.075 300.425 255.075H322.962H328.28C330.122 255.075 331.693 253.582 331.789 251.74L332.346 241.104Z" fill="#FF9E22"/>
<path d="M301.232 239.669H323.769H329.087C330.929 239.669 332.343 241.162 332.247 243.004L332.347 241.104C332.443 239.262 331.029 237.769 329.187 237.769H323.869H301.332C299.491 237.769 297.919 239.262 297.823 241.104L297.723 243.004C297.819 241.162 299.39 239.669 301.232 239.669Z" fill="#FF9E22"/>
<path opacity="0.3" d="M301.232 239.669H323.769H329.087C330.929 239.669 332.343 241.162 332.247 243.004L332.347 241.104C332.443 239.262 331.029 237.769 329.187 237.769H323.869H301.332C299.491 237.769 297.919 239.262 297.823 241.104L297.723 243.004C297.819 241.162 299.39 239.669 301.232 239.669Z" fill="black"/>
<path d="M315.127 241.104C315.223 239.262 313.809 237.769 311.967 237.769H306.649H301.331C299.49 237.769 297.918 239.262 297.822 241.104L297.265 251.74C297.169 253.582 298.583 255.075 300.425 255.075H305.743H311.061C312.903 255.075 314.474 253.582 314.57 251.74L315.127 241.104Z" fill="white"/>
<path d="M307.744 249.351H304.34L304.647 243.492H308.051L307.744 249.351Z" fill="#FF9E22"/>
<path d="M332.463 162.49C330.656 162.49 239.903 162.49 238.096 162.49C235.56 162.49 233.397 164.546 233.264 167.082C233.131 169.618 235.079 171.674 237.615 171.674C239.667 171.674 329.93 171.674 331.982 171.674C334.518 171.674 336.681 169.618 336.814 167.082C336.947 164.546 334.999 162.49 332.463 162.49Z" fill="#FF9E22"/>
<path opacity="0.3" d="M238.096 164.49C239.902 164.49 330.656 164.49 332.463 164.49C334.575 164.49 336.26 165.924 336.694 167.865C336.751 167.609 336.8 167.35 336.814 167.082C336.947 164.546 334.999 162.49 332.463 162.49C330.656 162.49 239.903 162.49 238.096 162.49C235.56 162.49 233.396 164.546 233.263 167.082C233.241 167.506 233.296 167.909 233.383 168.299C233.87 166.137 235.828 164.49 238.096 164.49Z" fill="black"/>
<path d="M317.818 175.734H310.588C307.806 175.734 305.669 173.479 305.814 170.696L306.193 163.466C306.339 160.684 308.712 158.428 311.495 158.428H318.725C321.507 158.428 323.644 160.683 323.499 163.466L323.12 170.696C322.974 173.479 320.601 175.734 317.818 175.734Z" fill="white"/>
<path d="M316.585 170.011H313.181L313.488 164.152H316.892L316.585 170.011Z" fill="#FF9E22"/>
<path d="M167.811 136.559L155.031 151.063C156.065 157.977 158.118 178.016 158.118 178.016C156.199 180.556 151.507 179.836 151.507 179.836C151.507 179.836 145.359 165.985 146.926 149.764C147.832 140.388 159.854 121.963 168.405 116.743C169.759 115.917 171.233 115.287 172.903 114.845L174.593 114.65L168.604 136.936L167.811 136.559Z" fill="black"/>
<path opacity="0.6" d="M167.811 136.559L155.031 151.063C156.065 157.977 158.118 178.016 158.118 178.016C156.199 180.556 151.507 179.836 151.507 179.836C151.507 179.836 145.359 165.985 146.926 149.764C147.832 140.388 159.854 121.963 168.405 116.743C169.759 115.917 171.233 115.287 172.903 114.845L174.593 114.65L168.604 136.936L167.811 136.559Z" fill="black"/>
<path d="M157.391 179.642L160.487 182.955C160.589 183.064 160.667 183.193 160.717 183.333L162.537 188.453C162.635 188.728 162.618 189.031 162.49 189.294L161.608 191.102C161.46 191.405 161.18 191.623 160.849 191.691L154.572 192.978C153.974 193.1 153.393 192.708 153.284 192.107L152.059 185.367C152.035 185.234 152.036 185.098 152.062 184.965L152.903 180.64C152.989 180.198 153.338 179.855 153.782 179.777L156.41 179.314C156.77 179.25 157.14 179.373 157.391 179.642Z" fill="#FAB27B"/>
<path d="M160.063 178.877L150.201 183.353L150.075 178.579L159.168 175.084L160.063 178.877Z" fill="black"/>
<path opacity="0.5" d="M160.063 178.877L150.201 183.353L150.075 178.579L159.168 175.084L160.063 178.877Z" fill="white"/>
<path d="M156.244 196.518C150.361 217.549 152.853 248.527 149.624 269.31C147.399 283.631 132.219 330.756 132.219 330.756L145.62 334.817C145.62 334.817 162.344 293.314 165.583 280.937C170.836 260.867 178.74 222.791 178.74 222.791C178.74 222.791 181.685 211.986 180.351 210.82C179.018 209.653 156.244 196.518 156.244 196.518Z" fill="#FF9E22"/>
<path opacity="0.3" d="M170.989 210.941L180.677 214.083L177.051 231.115C177.051 231.115 178.843 214.818 170.989 210.941Z" fill="black"/>
<path d="M134.912 330.152L132.514 337.76L139.006 340.68L142.229 332.595L134.912 330.152Z" fill="#FAB27B"/>
<path opacity="0.2" d="M133.49 334.664L140.35 337.309L141.264 335.016L134.049 332.889L133.49 334.664Z" fill="black"/>
<path d="M132.362 326.592L148.749 331.075L145.783 336.348L131.444 332.121L132.362 326.592Z" fill="#FF9E22"/>
<path opacity="0.5" d="M132.362 326.592L148.749 331.075L145.783 336.348L131.444 332.121L132.362 326.592Z" fill="white"/>
<path d="M140.4 341.716C140.332 341.671 140.297 341.59 140.312 341.51C140.328 341.429 140.393 341.368 140.474 341.356C140.618 341.334 143.885 340.856 145.025 341.708C145.239 341.863 145.384 342.096 145.43 342.356C145.51 342.656 145.392 342.974 145.135 343.15C144.659 343.435 143.608 343.224 142.657 342.852C141.872 342.539 141.117 342.159 140.4 341.716ZM141.082 341.703C142.437 342.437 144.372 343.181 144.922 342.822C144.998 342.78 145.088 342.69 145.042 342.412C145.021 342.249 144.926 342.104 144.786 342.019C144.686 341.943 144.575 341.882 144.457 341.838C143.35 341.581 142.205 341.535 141.082 341.703Z" fill="#FF9E22"/>
<path d="M140.308 341.668C140.267 341.611 140.26 341.536 140.291 341.472C140.339 341.38 141.352 339.396 142.64 338.977C143.013 338.85 143.421 338.881 143.77 339.063C144.25 339.309 144.307 339.622 144.244 339.837C144.07 340.761 141.581 341.7 140.507 341.747C140.479 341.75 140.451 341.741 140.429 341.724C140.383 341.721 140.34 341.701 140.308 341.668ZM143.514 339.359C143.285 339.267 143.031 339.26 142.799 339.341C141.97 339.777 141.294 340.457 140.863 341.289C142.031 341.1 143.745 340.274 143.902 339.737C143.907 339.685 143.937 339.546 143.621 339.39L143.514 339.359Z" fill="#FF9E22"/>
<path d="M140.038 340.338L131.685 337.065C131.37 336.941 131.012 337.053 130.823 337.333L126.65 343.537C126.276 344.085 126.416 344.832 126.964 345.206C127.034 345.254 127.109 345.294 127.188 345.326C130.219 346.454 132.962 347.338 136.708 348.812C141.131 350.547 139.801 350.636 144.973 352.749C148.09 354.019 150.06 350.681 148.8 349.985C143.019 346.836 143.107 344.753 141.614 341.657C141.269 341.039 140.708 340.569 140.038 340.338Z" fill="#263238"/>
<path d="M194.482 336.348L194.635 343.675L201.72 344.361L202.146 336.348H194.482Z" fill="#FAB27B"/>
<path opacity="0.2" d="M201.965 339.75L202.068 337.827L194.52 338.141L194.566 340.378L201.965 339.75Z" fill="black"/>
<path d="M156.244 196.518C158.461 185.943 167.318 176.556 167.318 176.556L201.294 178.741C201.294 178.741 203.435 200.582 203.935 207.883C204.944 222.624 209.07 245.505 209.181 260.292C209.33 280.278 204.748 333.359 204.748 333.359L191.912 334.879C191.912 334.879 192.103 285.792 190 267.276C188.407 253.25 178.83 214.823 178.83 214.823C178.83 214.823 152.526 214.258 156.244 196.518Z" fill="#FF9E22"/>
<path d="M189.72 332.773L206.677 331.734L205.57 337.682L190.633 338.303L189.72 332.773Z" fill="#FF9E22"/>
<path opacity="0.5" d="M189.72 332.773L206.677 331.734L205.57 337.682L190.633 338.303L189.72 332.773Z" fill="white"/>
<path d="M203.257 344.87C203.178 344.85 203.119 344.785 203.106 344.704C203.094 344.623 203.135 344.543 203.208 344.505C203.337 344.437 206.266 342.914 207.623 343.345C207.876 343.422 208.089 343.594 208.218 343.824C208.392 344.082 208.385 344.421 208.2 344.671C207.844 345.097 206.782 345.242 205.761 345.202C204.917 345.164 204.08 345.053 203.257 344.87ZM203.897 344.634C205.418 344.883 207.49 344.952 207.892 344.433C207.95 344.369 208.005 344.254 207.87 344.006C207.797 343.859 207.66 343.753 207.499 343.719C207.379 343.68 207.255 343.659 207.129 343.656C205.999 343.775 204.903 344.107 203.897 344.634Z" fill="#FF9E22"/>
<path d="M203.154 344.854C203.097 344.813 203.066 344.745 203.074 344.675C203.089 344.572 203.396 342.366 204.476 341.548C204.787 341.306 205.182 341.202 205.572 341.258C206.106 341.333 206.262 341.61 206.274 341.834C206.413 342.764 204.369 344.467 203.37 344.864C203.344 344.876 203.315 344.877 203.289 344.868C203.243 344.88 203.195 344.875 203.154 344.854ZM205.426 341.622C205.18 341.61 204.938 341.687 204.744 341.84C204.103 342.524 203.688 343.388 203.554 344.315C204.596 343.753 205.944 342.411 205.916 341.852C205.903 341.802 205.886 341.66 205.537 341.616L205.426 341.622Z" fill="#FF9E22"/>
<path d="M202.464 343.687L193.5 343.334C193.162 343.32 192.86 343.543 192.773 343.87L190.865 351.099C190.691 351.739 191.069 352.399 191.709 352.573C191.791 352.595 191.875 352.609 191.96 352.613C195.194 352.684 198.074 352.621 202.097 352.785C206.845 352.974 205.618 353.494 211.196 353.794C214.557 353.971 215.324 350.173 213.905 349.928C207.411 348.849 206.811 346.852 204.385 344.416C203.856 343.945 203.172 343.686 202.464 343.687Z" fill="#263238"/>
<path d="M191.835 106.277C191.241 108.169 189.756 111.362 191.86 114.21L181.647 113.221C181.647 113.221 182.741 105.69 183.374 103.237C183.784 101.649 184.312 99.924 189.679 101.424C192.729 102.277 192.232 105.01 191.835 106.277Z" fill="#FAB27B"/>
<path d="M182.623 103.487C177.004 99.154 165.12 87.392 176.519 77.124C186.015 68.57 194.727 73.569 197.704 79.35C201.035 85.818 208.582 103.106 191.835 106.277C188.748 106.862 185.54 105.737 182.623 103.487Z" fill="#FAB27B"/>
<path d="M174.592 113.552C174.592 113.552 182.468 106.632 197.436 115.764L197.229 117.902L174.735 115.724L174.592 113.552Z" fill="#FF9E22"/>
<path opacity="0.5" d="M174.592 113.552C174.592 113.552 182.468 106.632 197.436 115.764L197.229 117.902L174.735 115.724L174.592 113.552Z" fill="white"/>
<path opacity="0.1" d="M189.678 104.24C189.734 106.551 190.386 107.751 191.218 108.347C191.486 107.14 191.834 106.277 191.834 106.277C189.825 105.398 189.678 104.24 189.678 104.24Z" fill="black"/>
<path d="M195.683 115.493C192.416 114.752 189.147 114.32 185.873 113.934C180.068 113.249 175.644 112.799 172.438 114.21C167.335 116.456 166.685 117.903 166.685 117.903L167.697 134.428C167.697 134.428 168.907 143.961 168.129 158.43C168.125 158.5 167.728 174.183 159.261 182.598C159.261 182.598 164.38 187.059 171.4 188.267L176.18 176.835L177.685 188.876C177.685 188.876 194.901 193.98 209.103 189.275C209.103 189.275 201.326 176.853 203.829 164.153C205.035 158.036 205.917 155.176 206.599 150.351C207.247 145.762 206.628 142.537 206.628 142.537L203.435 120.737C203.435 120.737 197.762 115.964 195.683 115.493Z" fill="black"/>
<path opacity="0.6" d="M195.683 115.493C192.416 114.752 189.147 114.32 185.873 113.934C180.068 113.249 175.644 112.799 172.438 114.21C167.335 116.456 166.685 117.903 166.685 117.903L167.697 134.428C167.697 134.428 168.907 143.961 168.129 158.43C168.125 158.5 167.728 174.183 159.261 182.598C159.261 182.598 164.38 187.059 171.4 188.267L176.18 176.835L177.685 188.876C177.685 188.876 194.901 193.98 209.103 189.275C209.103 189.275 201.326 176.853 203.829 164.153C205.035 158.036 205.917 155.176 206.599 150.351C207.247 145.762 206.628 142.537 206.628 142.537L203.435 120.737C203.435 120.737 197.762 115.964 195.683 115.493Z" fill="black"/>
<path d="M205.573 156.49C205.981 154.282 206.338 152.199 206.599 150.35C207.247 145.761 206.628 142.536 206.628 142.536L202.064 137.402C202.064 137.402 206.402 143.58 205.573 156.49Z" fill="black"/>
<path d="M246.385 132.953L249.536 123.968C249.599 123.788 249.729 123.639 249.899 123.552L254.853 121.023C255.124 120.884 255.453 120.926 255.681 121.127L259.211 124.234C259.504 124.491 259.547 124.931 259.311 125.241L255.662 130.036C255.62 130.092 255.586 130.153 255.56 130.218C255.283 130.931 253.401 135.417 249.394 136.538C249.345 136.552 249.298 136.57 249.253 136.594L247.905 137.314C247.576 137.49 247.168 137.394 246.951 137.091L245.238 134.696C244.965 134.315 245.109 133.78 245.536 133.587L245.989 133.382C246.175 133.3 246.318 133.144 246.385 132.953Z" fill="#FAB27B"/>
<path d="M195.593 115.484C200.748 116.821 205.773 119.441 210.385 125.6C216.41 133.648 225.361 140.929 225.361 140.929C225.361 140.929 236.918 138.474 244.215 132.164L248.495 138.553C248.495 138.553 230.929 151.795 223.781 151.103C217.682 150.512 206.558 142.573 206.558 142.573L201.987 137.431L195.593 115.484Z" fill="black"/>
<path opacity="0.6" d="M195.593 115.484C200.748 116.821 205.773 119.441 210.385 125.6C216.41 133.648 225.361 140.929 225.361 140.929C225.361 140.929 236.918 138.474 244.215 132.164L248.495 138.553C248.495 138.553 230.929 151.795 223.781 151.103C217.682 150.512 206.558 142.573 206.558 142.573L201.987 137.431L195.593 115.484Z" fill="black"/>
<path d="M244.627 131.359L251.046 139.326L246.747 140.467L241.627 132.98L244.627 131.359Z" fill="#FF9E22"/>
<path opacity="0.5" d="M244.627 131.359L251.046 139.326L246.747 140.467L241.627 132.98L244.627 131.359Z" fill="white"/>
<path d="M201.869 93.17V96.274L203.964 95.977L201.869 93.17Z" fill="#E07F50"/>
<path d="M185.48 111.726C180.668 112.221 166.453 112.496 168.165 102.088C169.877 91.68 167.558 86.521 171.968 79.195C176.378 71.868 185.574 69.719 193.841 71.885C200.726 73.689 201.288 78.51 199.421 81.413C197.554 84.316 196.709 84.851 197.038 86.91C197.367 88.969 196.117 90.121 195.576 91.086C195.092 91.949 193.384 92.676 193.384 92.676C193.384 92.676 192.746 94.938 193.746 98.751C194.746 102.564 196.788 110.563 185.48 111.726Z" fill="black"/>
<path d="M191.88 71.965C194.149 72.216 196.5 72.832 198.533 73.873C200.165 74.708 201.792 75.966 202.16 77.869C202.692 80.624 200.562 83.233 198.873 85.134C198.603 85.438 199.117 85.805 199.385 85.504C202.374 82.141 204.705 77.421 200.296 74.202C197.954 72.492 194.798 71.653 191.941 71.337C191.537 71.291 191.476 71.92 191.88 71.965Z" fill="black"/>
<path d="M172.032 79.131C168.856 83.24 168.709 88.613 168.072 93.509C167.622 96.971 163.723 103.715 166.482 106.979C166.744 107.289 167.24 106.898 166.977 106.587C165.094 104.359 166.974 101.078 167.622 98.769C168.265 96.478 168.602 94.205 168.847 91.842C169.282 87.649 169.862 82.971 172.537 79.509C172.786 79.188 172.28 78.81 172.032 79.131Z" fill="black"/>
<path d="M199.717 87.267C199.663 87.399 199.767 87.173 199.786 87.139C199.852 87.022 199.928 86.912 200.017 86.812C200.33 86.462 200.725 86.347 201.182 86.465C201.556 86.561 201.716 85.983 201.342 85.886C200.359 85.633 199.508 86.2 199.139 87.107C198.992 87.465 199.573 87.62 199.717 87.267Z" fill="black"/>
<path d="M197.258 91.829C197.902 93.755 197.291 95.695 195.893 96.163C194.495 96.631 192.839 95.449 192.195 93.523C191.551 91.597 192.162 89.657 193.56 89.189C194.958 88.721 196.613 89.903 197.258 91.829Z" fill="#FAB27B"/>
<path d="M201.956 86.953C201.873 87.671 201.173 87.819 200.81 87.878C200.566 87.918 200.422 88.354 200.49 88.869C200.558 89.384 200.811 89.776 201.056 89.744C201.301 89.712 201.444 89.268 201.376 88.753C201.355 88.594 201.313 88.454 201.262 88.327C202.426 87.695 201.956 86.953 201.956 86.953Z" fill="black"/>
</svg>
