<svg version="1.2" xmlns="http://www.w3.org/2000/svg" viewBox="0 0 500 207" width="500" height="207"><style>.a{fill:none;stroke:#f59048;stroke-linecap:round;stroke-linejoin:round;stroke-width:8}</style><path fill-rule="evenodd" class="a" d="m221.9 49.9c0 0 60.3-55.6 35.8 103.5"/><path fill-rule="evenodd" class="a" d="m415 31.8c2.2 40.5 5 80.8 8 121"/><path fill-rule="evenodd" class="a" d="m108.5 36.2c-42.8 21.3-10.2 65.8 13.8 120.9"/><path fill-rule="evenodd" class="a" d="m405.3 142.3c5.7 4 14.1 15.9 21.4 7.7 6.1-6.9 9.4-15.7 13.9-23.2"/><path fill-rule="evenodd" class="a" d="m242 134.5c5.2 4.5 5 17.4 10.4 22.3 8 7.4 22-10.4 27.4-16.5"/><path fill-rule="evenodd" class="a" d="m101.4 157.3c4-1.4 13.7-0.2 18.9 1.1 8.7 2.2 10.2 5.3 7.2-4.9-1.5-5-2.4-9.9-2.4-15.1"/></svg>