<svg width="868" height="700" viewBox="0 0 868 700" fill="none" xmlns="http://www.w3.org/2000/svg">
<circle cx="431" cy="350" r="297.5" stroke="#FF9E22" stroke-width="5" stroke-linecap="round" stroke-linejoin="round" stroke-dasharray="25 25"/>
<path d="M667.544 414.527H667.26L659.882 195.442C659.598 184.705 649.666 176 637.748 176H234.221C222.303 176 212.371 184.705 212.087 195.442L204.709 414.527H204.425L203.006 455.733C202.722 468.501 212.371 478.947 224.857 478.947H385.473L385.189 534.662H329.285L329.002 548.3H542.683L542.4 534.662H486.78L486.212 478.947H647.112C659.314 478.947 669.247 468.501 668.679 455.733L667.544 414.527Z" fill="black"/>
<path d="M227.127 421.201L233.086 196.313C233.275 196.313 233.464 196.313 233.654 196.313H638.315C638.504 196.313 638.599 196.313 638.599 196.313L644.842 421.201H227.127Z" fill="#FFD9A9"/>
<g opacity="0.9">
<path d="M317.083 384.058H316.232V214.594H317.083V384.058Z" fill="white"/>
<path d="M351.42 384.929H350.568V379.416H351.42V384.929Z" fill="white"/>
<path d="M385.757 384.929H384.905V379.416H385.757V384.929Z" fill="white"/>
<path d="M420.093 384.929H419.242V379.416H420.093V384.929Z" fill="white"/>
<path d="M557.724 384.929H556.872V379.416H557.724V384.929Z" fill="white"/>
<path d="M557.156 365.197C556.967 365.39 556.778 365.68 556.588 366.067H582.979V365.197H557.156Z" fill="white"/>
<path d="M416.404 365.197H314.245V366.067H416.972C416.782 365.68 416.593 365.39 416.404 365.197Z" fill="white"/>
<path d="M408.458 347.496H314.245V348.366H408.742C408.742 347.979 408.648 347.689 408.458 347.496Z" fill="white"/>
<path d="M565.669 347.496C565.669 347.689 565.574 347.979 565.385 348.366H582.979V347.496H565.669Z" fill="white"/>
<path d="M405.337 330.956H314.245V331.826H405.337C405.337 331.439 405.337 331.149 405.337 330.956Z" fill="white"/>
<path d="M405.053 314.415H314.245V315.286H405.053C405.053 314.899 405.053 314.609 405.053 314.415Z" fill="white"/>
<path d="M408.175 296.424H314.245V297.295H407.891C408.08 297.101 408.175 296.811 408.175 296.424Z" fill="white"/>
<path d="M413.85 279.594H314.245V280.464H413.566C413.756 280.078 413.85 279.787 413.85 279.594Z" fill="white"/>
<path d="M563.399 263.054C563.588 263.247 563.777 263.537 563.966 263.924H582.979V263.054H563.399Z" fill="white"/>
<path d="M422.647 263.054H314.245V263.924H422.08C422.269 263.537 422.458 263.247 422.647 263.054Z" fill="white"/>
<path d="M434.849 247.094H314.245V247.964H433.998C434.376 247.771 434.66 247.481 434.849 247.094Z" fill="white"/>
<path d="M552.048 247.094C552.237 247.481 552.521 247.771 552.899 247.964H582.979V247.094H552.048Z" fill="white"/>
<path d="M458.686 229.393C459.065 229.393 459.349 229.296 459.538 229.103H314.245V229.973H457.551C457.93 229.78 458.308 229.586 458.686 229.393Z" fill="white"/>
<path d="M525.657 229.103C526.414 229.49 527.17 229.78 527.927 229.973H582.979V229.103H525.657Z" fill="white"/>
<path fill-rule="evenodd" clip-rule="evenodd" d="M307.719 381.157C307.719 380.383 307.908 379.706 308.286 379.125C308.665 378.739 309.138 378.545 309.705 378.545C310.083 378.545 310.462 378.739 310.84 379.125C311.219 379.706 311.408 380.383 311.408 381.157C311.408 381.93 311.219 382.608 310.84 383.188C310.462 383.575 310.083 383.768 309.705 383.768C309.138 383.768 308.665 383.575 308.286 383.188C307.908 382.608 307.719 381.93 307.719 381.157ZM308.57 381.157C308.57 381.737 308.665 382.221 308.854 382.608C309.043 382.994 309.327 383.188 309.705 383.188C309.894 383.188 310.083 382.994 310.273 382.608C310.462 382.221 310.556 381.737 310.556 381.157C310.556 380.576 310.462 380.093 310.273 379.706C310.083 379.319 309.894 379.125 309.705 379.125C309.327 379.125 309.043 379.319 308.854 379.706C308.665 380.093 308.57 380.576 308.57 381.157Z" fill="white"/>
<path d="M311.408 366.067H308.002V365.487L309.989 363.746C310.367 363.359 310.556 363.069 310.556 362.875C310.746 362.682 310.84 362.488 310.84 362.295C310.84 361.908 310.746 361.618 310.556 361.425C310.367 361.231 310.083 361.134 309.705 361.134C309.327 361.134 309.043 361.231 308.854 361.425C308.665 361.618 308.57 361.908 308.57 362.295C308.57 362.488 308.57 362.585 308.57 362.585H308.002V362.295C308.002 361.908 308.192 361.521 308.57 361.134C308.948 360.747 309.327 360.554 309.705 360.554C310.273 360.554 310.651 360.747 310.84 361.134C311.218 361.328 311.408 361.715 311.408 362.295C311.408 362.488 311.313 362.779 311.124 363.166C310.935 363.359 310.746 363.552 310.556 363.746L308.854 365.487H311.408V366.067Z" fill="white"/>
<path fill-rule="evenodd" clip-rule="evenodd" d="M310.84 348.366H310.273V347.206H307.719V346.916L310.273 343.143H310.84V346.916H311.408V347.206H310.84V348.366ZM310.273 346.916V343.724L308.286 346.916H310.273Z" fill="white"/>
<path fill-rule="evenodd" clip-rule="evenodd" d="M309.705 326.313H310.273L309.138 328.344C309.327 328.344 309.421 328.344 309.421 328.344C309.611 328.344 309.705 328.344 309.705 328.344C310.273 328.344 310.651 328.441 310.84 328.634C311.219 329.021 311.408 329.505 311.408 330.085C311.408 330.472 311.219 330.859 310.84 331.246C310.462 331.633 310.083 331.826 309.705 331.826C309.138 331.826 308.665 331.633 308.286 331.246C307.908 331.052 307.719 330.666 307.719 330.085C307.719 329.698 308.002 329.118 308.57 328.344L309.705 326.313ZM309.705 328.634C309.327 328.634 308.948 328.731 308.57 328.924C308.381 329.118 308.286 329.408 308.286 329.795C308.286 330.182 308.381 330.472 308.57 330.666C308.948 331.052 309.327 331.246 309.705 331.246C309.894 331.246 310.178 331.149 310.556 330.956C310.746 330.569 310.84 330.182 310.84 329.795C310.84 329.408 310.746 329.118 310.556 328.924C310.178 328.731 309.894 328.634 309.705 328.634Z" fill="white"/>
<path fill-rule="evenodd" clip-rule="evenodd" d="M308.854 312.094C308.665 312.094 308.475 311.997 308.286 311.804C308.286 311.61 308.286 311.417 308.286 311.223C308.286 310.837 308.381 310.45 308.57 310.063C308.948 309.869 309.327 309.773 309.705 309.773C310.083 309.773 310.462 309.869 310.84 310.063C311.029 310.45 311.124 310.837 311.124 311.223C311.124 311.417 311.029 311.61 310.84 311.804C310.84 311.997 310.746 312.094 310.556 312.094C310.746 312.287 310.935 312.481 311.124 312.674C311.313 312.868 311.408 313.158 311.408 313.545C311.408 314.125 311.218 314.512 310.84 314.706C310.462 315.093 310.083 315.286 309.705 315.286C309.137 315.286 308.759 315.093 308.57 314.706C308.192 314.512 308.002 314.125 308.002 313.545C308.002 313.158 308.097 312.868 308.286 312.674C308.286 312.481 308.475 312.287 308.854 312.094ZM308.57 313.545C308.57 313.932 308.665 314.222 308.854 314.415C309.043 314.609 309.327 314.706 309.705 314.706C310.083 314.706 310.367 314.609 310.556 314.415C310.746 314.222 310.84 313.932 310.84 313.545C310.84 313.158 310.746 312.868 310.556 312.674C310.367 312.481 310.083 312.384 309.705 312.384C309.327 312.384 309.043 312.481 308.854 312.674C308.665 312.868 308.57 313.158 308.57 313.545ZM308.854 310.933C308.854 311.32 308.948 311.61 309.137 311.804C309.137 311.804 309.327 311.804 309.705 311.804C309.894 311.804 310.083 311.804 310.273 311.804C310.462 311.61 310.556 311.32 310.556 310.933C310.556 310.74 310.462 310.546 310.273 310.353C310.083 310.159 309.894 310.063 309.705 310.063C309.516 310.063 309.327 310.159 309.137 310.353C308.948 310.546 308.854 310.74 308.854 310.933Z" fill="white"/>
<path d="M305.732 298.165H305.165V293.232H304.313V292.652H305.732V298.165Z" fill="white"/>
<path fill-rule="evenodd" clip-rule="evenodd" d="M307.719 296.134V294.683C307.719 294.296 307.813 294.006 308.002 293.813C308.002 293.619 308.097 293.426 308.286 293.232C308.286 293.039 308.475 292.942 308.854 292.942C309.043 292.749 309.327 292.652 309.705 292.652C310.083 292.652 310.462 292.845 310.84 293.232C311.219 293.619 311.408 294.103 311.408 294.683V296.134C311.408 296.521 311.408 296.811 311.408 297.005C311.219 297.198 311.124 297.392 311.124 297.585C310.935 297.779 310.746 297.875 310.556 297.875C310.178 298.069 309.894 298.165 309.705 298.165C309.327 298.165 309.043 298.069 308.854 297.875C308.475 297.875 308.192 297.779 308.002 297.585C308.002 297.392 308.002 297.198 308.002 297.005C307.813 296.811 307.719 296.521 307.719 296.134ZM308.286 296.424C308.286 296.811 308.381 297.101 308.57 297.295C308.948 297.488 309.327 297.585 309.705 297.585C310.083 297.585 310.367 297.488 310.556 297.295C310.746 297.101 310.84 296.811 310.84 296.424V294.393C310.84 294.006 310.746 293.716 310.556 293.523C310.367 293.329 310.083 293.232 309.705 293.232C309.327 293.232 308.948 293.329 308.57 293.523C308.381 293.716 308.286 294.006 308.286 294.393V296.424Z" fill="white"/>
<path d="M306.016 280.464H305.448V275.531H304.597V275.241H306.016V280.464Z" fill="white"/>
<path d="M311.408 280.464H308.002V279.884L309.989 278.143C310.367 277.756 310.556 277.466 310.556 277.272C310.746 277.079 310.84 276.886 310.84 276.692C310.84 276.305 310.746 276.015 310.556 275.822C310.367 275.628 310.083 275.531 309.705 275.531C309.327 275.531 309.043 275.628 308.854 275.822C308.665 276.015 308.57 276.305 308.57 276.692C308.57 276.886 308.57 276.982 308.57 276.982H308.002V276.692C308.002 276.305 308.192 275.918 308.57 275.531C308.948 275.144 309.327 274.951 309.705 274.951C310.273 274.951 310.651 275.144 310.84 275.531C311.218 275.725 311.408 276.112 311.408 276.692C311.408 276.886 311.313 277.176 311.124 277.563C310.935 277.756 310.746 277.95 310.556 278.143L308.854 279.884H311.408V280.464Z" fill="white"/>
<path d="M305.732 263.924H305.165V258.991H304.313V258.411H305.732V263.924Z" fill="white"/>
<path fill-rule="evenodd" clip-rule="evenodd" d="M310.84 263.924H310.273V262.764H307.719V262.473L310.273 258.411H310.84V262.473H311.408V262.764H310.84V263.924ZM310.273 262.473V259.281L308.286 262.473H310.273Z" fill="white"/>
<path d="M305.732 247.964H305.165V243.031H304.313V242.741H305.732V247.964Z" fill="white"/>
<path fill-rule="evenodd" clip-rule="evenodd" d="M309.705 242.741H310.273L309.138 244.482C309.327 244.482 309.421 244.482 309.421 244.482C309.611 244.482 309.705 244.482 309.705 244.482C310.273 244.482 310.651 244.676 310.84 245.063C311.219 245.45 311.408 245.837 311.408 246.223C311.408 246.804 311.219 247.287 310.84 247.674C310.462 247.868 310.083 247.964 309.705 247.964C309.138 247.964 308.665 247.868 308.286 247.674C307.908 247.287 307.719 246.804 307.719 246.223C307.719 245.837 308.002 245.353 308.57 244.773C308.57 244.579 308.57 244.482 308.57 244.482L309.705 242.741ZM309.705 245.063C309.327 245.063 308.948 245.159 308.57 245.353C308.381 245.74 308.286 246.127 308.286 246.514C308.286 246.901 308.381 247.191 308.57 247.384C308.948 247.578 309.327 247.674 309.705 247.674C309.894 247.674 310.178 247.578 310.556 247.384C310.746 247.191 310.84 246.901 310.84 246.514C310.84 246.127 310.746 245.74 310.556 245.353C310.178 245.159 309.894 245.063 309.705 245.063Z" fill="white"/>
<path d="M306.016 229.973H305.448V225.04H304.597V224.75H306.016V229.973Z" fill="white"/>
<path fill-rule="evenodd" clip-rule="evenodd" d="M308.854 227.071C308.665 226.878 308.475 226.685 308.286 226.491C308.286 226.298 308.286 226.104 308.286 225.911C308.286 225.524 308.381 225.234 308.57 225.04C308.948 224.653 309.327 224.46 309.705 224.46C310.083 224.46 310.462 224.653 310.84 225.04C311.029 225.234 311.124 225.524 311.124 225.911C311.124 226.104 311.029 226.298 310.84 226.491C310.84 226.685 310.746 226.878 310.556 227.071C310.746 227.265 310.935 227.458 311.124 227.652C311.313 227.845 311.408 228.039 311.408 228.232C311.408 228.813 311.218 229.296 310.84 229.683C310.462 229.877 310.083 229.973 309.705 229.973C309.137 229.973 308.759 229.877 308.57 229.683C308.192 229.296 308.002 228.909 308.002 228.522C308.002 228.135 308.097 227.845 308.286 227.652C308.286 227.458 308.475 227.265 308.854 227.071ZM308.57 228.522C308.57 228.909 308.665 229.199 308.854 229.393C309.043 229.586 309.327 229.683 309.705 229.683C310.083 229.683 310.367 229.586 310.556 229.393C310.746 229.006 310.84 228.716 310.84 228.522C310.84 228.135 310.746 227.845 310.556 227.652C310.367 227.458 310.083 227.362 309.705 227.362C309.327 227.362 309.043 227.458 308.854 227.652C308.665 227.845 308.57 228.135 308.57 228.522ZM308.854 225.911C308.854 226.104 308.948 226.298 309.137 226.491C309.137 226.685 309.327 226.781 309.705 226.781C309.894 226.781 310.083 226.685 310.273 226.491C310.462 226.298 310.556 226.104 310.556 225.911C310.556 225.717 310.462 225.524 310.273 225.33C310.083 225.137 309.894 225.04 309.705 225.04C309.516 225.04 309.327 225.137 309.137 225.33C308.948 225.524 308.854 225.717 308.854 225.911Z" fill="white"/>
<path d="M330.421 390.442H327.299V390.152L329.285 388.411C329.475 388.024 329.664 387.734 329.853 387.541C330.042 387.347 330.137 387.154 330.137 386.96C330.137 386.573 330.042 386.283 329.853 386.09C329.475 385.896 329.191 385.799 329.002 385.799C328.623 385.799 328.34 385.896 328.15 386.09C327.961 386.283 327.867 386.573 327.867 386.96H327.299C327.299 386.573 327.488 386.186 327.867 385.799C328.056 385.413 328.434 385.219 329.002 385.219C329.38 385.219 329.758 385.413 330.137 385.799C330.326 385.993 330.421 386.38 330.421 386.96C330.421 387.154 330.421 387.347 330.421 387.541C330.231 387.927 330.042 388.218 329.853 388.411L328.15 390.152H330.421V390.442Z" fill="white"/>
<path fill-rule="evenodd" clip-rule="evenodd" d="M331.272 388.701V387.25C331.272 386.863 331.272 386.573 331.272 386.38C331.272 386.186 331.366 386.09 331.556 386.09C331.745 385.703 331.934 385.509 332.123 385.509C332.312 385.316 332.596 385.219 332.974 385.219C333.542 385.219 333.92 385.413 334.11 385.799C334.488 386.186 334.677 386.67 334.677 387.25V388.701C334.677 389.088 334.677 389.378 334.677 389.572C334.488 389.572 334.393 389.669 334.393 389.862C334.204 390.055 334.015 390.249 333.826 390.442C333.447 390.636 333.164 390.733 332.974 390.733C332.596 390.733 332.312 390.636 332.123 390.442C331.934 390.249 331.745 390.055 331.556 389.862C331.366 389.862 331.272 389.765 331.272 389.572C331.272 389.378 331.272 389.088 331.272 388.701ZM331.839 388.701C331.839 389.282 331.934 389.669 332.123 389.862C332.312 390.055 332.596 390.152 332.974 390.152C333.353 390.152 333.637 390.055 333.826 389.862C334.015 389.669 334.11 389.282 334.11 388.701V386.96C334.11 386.573 334.015 386.283 333.826 386.09C333.637 385.896 333.353 385.799 332.974 385.799C332.596 385.799 332.312 385.896 332.123 386.09C331.934 386.283 331.839 386.573 331.839 386.96V388.701Z" fill="white"/>
<path d="M337.231 390.442H336.663V385.8H335.812V385.509H337.231V390.442Z" fill="white"/>
<path d="M341.204 390.442H340.92V385.8H339.785V385.509H341.204V390.442Z" fill="white"/>
<path d="M542.967 390.442H542.399V385.8H541.548V385.509H542.967V390.442Z" fill="white"/>
<path d="M546.089 390.442H545.521L547.508 385.8H545.237V385.509H548.075V385.8L546.089 390.442Z" fill="white"/>
<path d="M364.473 390.442H361.352V390.152L363.055 388.411C363.433 388.024 363.717 387.734 363.906 387.541C363.906 387.347 363.906 387.154 363.906 386.96C363.906 386.573 363.811 386.283 363.622 386.09C363.433 385.896 363.149 385.799 362.771 385.799C362.582 385.799 362.392 385.896 362.203 386.09C362.014 386.283 361.825 386.573 361.636 386.96C361.825 386.96 361.919 386.96 361.919 386.96H361.352C361.352 386.573 361.447 386.186 361.636 385.799C362.014 385.413 362.392 385.219 362.771 385.219C363.338 385.219 363.717 385.413 363.906 385.799C364.284 385.993 364.473 386.38 364.473 386.96C364.473 387.154 364.379 387.347 364.19 387.541C364.19 387.927 364 388.218 363.622 388.411L361.919 390.152H364.473V390.442Z" fill="white"/>
<path fill-rule="evenodd" clip-rule="evenodd" d="M365.041 388.701V387.25C365.041 386.863 365.136 386.573 365.325 386.38C365.325 386.186 365.325 386.09 365.325 386.09C365.514 385.703 365.798 385.509 366.176 385.509C366.365 385.316 366.554 385.219 366.744 385.219C367.311 385.219 367.784 385.413 368.162 385.799C368.352 386.186 368.446 386.67 368.446 387.25V388.701C368.446 389.088 368.446 389.378 368.446 389.572C368.446 389.572 368.352 389.669 368.162 389.862C368.162 390.055 367.973 390.249 367.595 390.442C367.406 390.636 367.122 390.733 366.744 390.733C366.554 390.733 366.365 390.636 366.176 390.442C365.798 390.249 365.514 390.055 365.325 389.862C365.325 389.862 365.325 389.765 365.325 389.572C365.136 389.378 365.041 389.088 365.041 388.701ZM365.608 388.701C365.608 389.282 365.703 389.669 365.892 389.862C366.081 390.055 366.365 390.152 366.744 390.152C367.122 390.152 367.5 390.055 367.879 389.862C368.068 389.669 368.162 389.282 368.162 388.701V386.96C368.162 386.573 368.068 386.283 367.879 386.09C367.5 385.896 367.122 385.799 366.744 385.799C366.365 385.799 366.081 385.896 365.892 386.09C365.703 386.283 365.608 386.573 365.608 386.96V388.701Z" fill="white"/>
<path d="M371.284 390.442H370.716V385.8H369.865V385.509H371.284V390.442Z" fill="white"/>
<path d="M376.392 390.442H373.27V390.152L375.257 388.411C375.446 388.024 375.635 387.734 375.824 387.541C376.014 387.347 376.108 387.154 376.108 386.96C376.108 386.573 376.014 386.283 375.824 386.09C375.446 385.896 375.162 385.799 374.973 385.799C374.595 385.799 374.311 385.896 374.122 386.09C373.933 386.283 373.838 386.573 373.838 386.96H373.27C373.27 386.573 373.46 386.186 373.838 385.799C374.027 385.413 374.405 385.219 374.973 385.219C375.351 385.219 375.73 385.413 376.108 385.799C376.297 385.993 376.392 386.38 376.392 386.96C376.392 387.154 376.392 387.347 376.392 387.541C376.203 387.927 376.014 388.218 375.824 388.411L374.122 390.152H376.392V390.442Z" fill="white"/>
<path d="M399.661 390.442H396.54V390.152L398.242 388.411C398.621 388.024 398.905 387.734 399.094 387.541C399.094 387.347 399.094 387.154 399.094 386.96C399.094 386.573 398.999 386.283 398.81 386.09C398.621 385.896 398.337 385.799 397.959 385.799C397.769 385.799 397.486 385.896 397.107 386.09C396.918 386.283 396.824 386.573 396.824 386.96H396.54C396.54 386.573 396.634 386.186 396.824 385.799C397.202 385.413 397.58 385.219 397.959 385.219C398.526 385.219 398.905 385.413 399.094 385.799C399.472 385.993 399.661 386.38 399.661 386.96C399.661 387.154 399.567 387.347 399.378 387.541C399.378 387.927 399.188 388.218 398.81 388.411L397.107 390.152H399.661V390.442Z" fill="white"/>
<path fill-rule="evenodd" clip-rule="evenodd" d="M400.229 388.701V387.25C400.229 386.863 400.324 386.573 400.513 386.38C400.513 386.186 400.513 386.09 400.513 386.09C400.702 385.703 400.986 385.509 401.364 385.509C401.553 385.316 401.742 385.219 401.932 385.219C402.499 385.219 402.972 385.413 403.35 385.799C403.54 386.186 403.634 386.67 403.634 387.25V388.701C403.634 389.088 403.634 389.378 403.634 389.572C403.634 389.572 403.54 389.669 403.35 389.862C403.35 390.055 403.161 390.249 402.783 390.442C402.594 390.636 402.31 390.733 401.932 390.733C401.742 390.733 401.553 390.636 401.364 390.442C400.986 390.249 400.702 390.055 400.513 389.862C400.513 389.862 400.513 389.765 400.513 389.572C400.324 389.378 400.229 389.088 400.229 388.701ZM400.796 388.701C400.796 389.282 400.891 389.669 401.08 389.862C401.269 390.055 401.553 390.152 401.932 390.152C402.31 390.152 402.594 390.055 402.783 389.862C403.161 389.669 403.35 389.282 403.35 388.701V386.96C403.35 386.573 403.161 386.283 402.783 386.09C402.594 385.896 402.31 385.799 401.932 385.799C401.553 385.799 401.269 385.896 401.08 386.09C400.891 386.283 400.796 386.573 400.796 386.96V388.701Z" fill="white"/>
<path d="M406.472 390.442H405.904V385.8H405.053V385.509H406.472V390.442Z" fill="white"/>
<path d="M409.026 388.991C409.026 389.378 409.121 389.669 409.31 389.862C409.499 390.055 409.783 390.152 410.161 390.152C410.35 390.152 410.539 390.055 410.729 389.862C411.107 389.669 411.296 389.378 411.296 388.991C411.296 388.605 411.107 388.314 410.729 388.121C410.539 387.927 410.256 387.831 409.877 387.831C409.688 387.831 409.593 387.831 409.593 387.831V387.25C409.593 387.25 409.688 387.25 409.877 387.25C410.256 387.25 410.445 387.25 410.445 387.25C410.634 387.057 410.729 386.863 410.729 386.67C410.729 386.283 410.729 385.993 410.729 385.799C410.539 385.799 410.35 385.799 410.161 385.799C409.783 385.799 409.593 385.799 409.593 385.799C409.404 385.993 409.31 386.283 409.31 386.67H408.742C408.742 386.283 408.931 385.896 409.31 385.509C409.499 385.316 409.783 385.219 410.161 385.219C410.539 385.219 410.823 385.316 411.012 385.509C411.202 385.896 411.296 386.283 411.296 386.67C411.296 386.863 411.296 386.96 411.296 386.96C411.107 387.154 410.918 387.347 410.729 387.541C411.107 387.734 411.391 387.927 411.58 388.121C411.58 388.314 411.58 388.605 411.58 388.991C411.58 389.378 411.485 389.765 411.296 390.152C410.918 390.539 410.539 390.733 410.161 390.733C409.593 390.733 409.121 390.539 408.742 390.152C408.553 389.959 408.458 389.572 408.458 388.991H409.026Z" fill="white"/>
<path d="M433.431 390.442H430.309V390.152L432.012 388.411C432.39 388.024 432.674 387.734 432.863 387.541C432.863 387.347 432.863 387.154 432.863 386.96C432.863 386.573 432.768 386.283 432.579 386.09C432.39 385.896 432.106 385.799 431.728 385.799C431.539 385.799 431.35 385.896 431.16 386.09C430.971 386.283 430.877 386.573 430.877 386.96H430.309C430.309 386.573 430.404 386.186 430.593 385.799C430.971 385.413 431.444 385.219 432.012 385.219C432.39 385.219 432.674 385.413 432.863 385.799C433.241 385.993 433.431 386.38 433.431 386.96C433.431 387.154 433.336 387.347 433.147 387.541C433.147 387.927 432.958 388.218 432.579 388.411L430.877 390.152H433.431V390.442Z" fill="white"/>
<path d="M567.939 390.442H565.102V390.152L566.804 388.411C567.183 388.024 567.372 387.734 567.372 387.541C567.561 387.347 567.656 387.154 567.656 386.96C567.656 386.767 567.561 386.477 567.372 386.09C567.183 385.896 566.899 385.8 566.52 385.8C566.142 385.8 565.858 385.993 565.669 386.38C565.48 386.573 565.385 386.767 565.385 386.96C565.385 387.154 565.385 387.25 565.385 387.25H565.102C565.102 386.67 565.196 386.186 565.385 385.8C565.764 385.606 566.142 385.509 566.52 385.509C566.899 385.509 567.277 385.606 567.656 385.8C567.845 386.186 567.939 386.573 567.939 386.96C567.939 387.347 567.939 387.637 567.939 387.831C567.75 388.024 567.561 388.218 567.372 388.411L565.669 390.152H567.939V390.442Z" fill="white"/>
<path d="M568.791 388.701V387.25C568.791 387.057 568.791 386.864 568.791 386.67C568.791 386.477 568.885 386.283 569.074 386.09C569.264 385.896 569.453 385.703 569.642 385.509C569.831 385.509 570.115 385.509 570.493 385.509C570.872 385.509 571.25 385.703 571.628 386.09C571.817 386.283 571.912 386.67 571.912 387.25V388.701C571.912 389.088 571.912 389.378 571.912 389.572C571.912 389.765 571.817 389.862 571.628 389.862C571.628 390.055 571.439 390.249 571.061 390.442C570.872 390.636 570.682 390.733 570.493 390.733C570.115 390.733 569.831 390.636 569.642 390.442C569.453 390.249 569.264 390.055 569.074 389.862C568.885 389.862 568.791 389.765 568.791 389.572C568.791 389.378 568.791 389.088 568.791 388.701Z" fill="white"/>
<path d="M569.358 388.992C569.358 389.378 569.453 389.669 569.642 389.862C569.831 390.056 570.115 390.152 570.493 390.152C570.872 390.152 571.155 390.056 571.345 389.862C571.534 389.669 571.628 389.378 571.628 388.992V387.25C571.628 386.864 571.534 386.573 571.345 386.38C571.155 385.993 570.872 385.8 570.493 385.8C570.115 385.8 569.831 385.993 569.642 386.38C569.453 386.573 569.358 386.864 569.358 387.25V388.992Z" fill="white"/>
<path d="M574.466 390.442H574.182V386.09H573.331V385.509H574.466V390.442Z" fill="white"/>
<path fill-rule="evenodd" clip-rule="evenodd" d="M577.304 387.831C577.115 387.637 577.02 387.444 577.02 387.25C576.831 387.057 576.736 386.864 576.736 386.67C576.736 386.477 576.831 386.186 577.02 385.8C577.399 385.606 577.777 385.509 578.155 385.509C578.534 385.509 578.817 385.606 579.007 385.8C579.385 386.186 579.574 386.477 579.574 386.67C579.574 386.864 579.48 387.057 579.29 387.25C579.29 387.444 579.196 387.637 579.007 387.831C579.196 388.024 579.385 388.218 579.574 388.411C579.574 388.605 579.574 388.798 579.574 388.992C579.574 389.572 579.48 389.959 579.29 390.152C578.912 390.539 578.534 390.733 578.155 390.733C577.588 390.733 577.209 390.539 577.02 390.152C576.642 389.959 576.453 389.572 576.453 388.992C576.453 388.798 576.547 388.605 576.736 388.411C576.926 388.218 577.115 388.024 577.304 387.831ZM577.02 388.992C577.02 389.378 577.115 389.669 577.304 389.862C577.493 390.055 577.777 390.152 578.155 390.152C578.344 390.152 578.534 390.055 578.723 389.862C579.101 389.669 579.29 389.378 579.29 388.992C579.29 388.798 579.196 388.605 579.007 388.411C578.817 388.218 578.534 388.121 578.155 388.121C577.777 388.121 577.493 388.218 577.304 388.411C577.115 388.605 577.02 388.798 577.02 388.992ZM577.304 386.67C577.304 386.864 577.399 387.057 577.588 387.25C577.588 387.444 577.777 387.541 578.155 387.541C578.344 387.541 578.534 387.444 578.723 387.25C578.912 387.25 579.007 387.057 579.007 386.67C579.007 386.477 578.912 386.283 578.723 386.09C578.534 385.896 578.344 385.8 578.155 385.8C577.966 385.8 577.777 385.896 577.588 386.09C577.399 386.283 577.304 386.477 577.304 386.67Z" fill="white"/>
<path d="M405.053 328.634L379.513 361.715L355.96 324.281L329.002 381.447H330.421L356.244 326.893L379.23 364.036L405.337 330.665C405.148 329.892 405.053 329.215 405.053 328.634Z" fill="white"/>
<path d="M429.458 381.447H314.245V382.317H430.593C430.214 382.124 429.836 381.834 429.458 381.447Z" fill="white"/>
<path d="M544.67 381.447C544.481 381.834 544.197 382.124 543.819 382.317H582.98V381.447H544.67Z" fill="white"/>
</g>
<g opacity="0.9">
<path d="M469.754 380.867H468.051V368.969H469.754V380.867Z" fill="white"/>
<path d="M544.102 380.867H542.116V368.969H544.102V380.867Z" fill="white"/>
<path d="M572.196 338.5H413.85C414.039 339.081 414.229 339.758 414.418 340.532H571.628C571.818 339.758 572.007 339.081 572.196 338.5Z" fill="white"/>
<path d="M570.777 300.487H406.188C406.188 301.067 406.188 301.648 406.188 302.228H571.345C571.155 301.648 570.966 301.067 570.777 300.487Z" fill="white"/>
<path d="M420.377 264.795C419.809 265.375 419.242 265.956 418.674 266.536H556.588C556.21 265.956 555.832 265.375 555.453 264.795H420.377Z" fill="white"/>
<path d="M442.228 389.862H443.079C443.268 390.636 443.552 391.313 443.93 391.893C444.498 392.28 445.16 392.474 445.917 392.474C446.484 392.474 447.052 392.184 447.619 391.603C448.187 391.023 448.471 390.346 448.471 389.572C448.471 388.798 448.187 388.121 447.619 387.541C447.052 386.96 446.39 386.67 445.633 386.67C445.255 386.67 444.876 386.767 444.498 386.96C444.119 387.347 443.741 387.734 443.363 388.121L442.511 387.541L443.646 382.027H448.471V383.188H444.498L443.93 386.38C444.309 386.187 444.592 385.993 444.782 385.8C445.16 385.8 445.538 385.8 445.917 385.8C446.863 385.8 447.714 386.09 448.471 386.67C449.227 387.444 449.606 388.411 449.606 389.572C449.606 390.733 449.227 391.7 448.471 392.474C447.714 393.248 446.768 393.635 445.633 393.635C444.687 393.635 443.93 393.248 443.363 392.474C442.606 391.893 442.228 391.023 442.228 389.862Z" fill="white"/>
<path d="M491.888 393.344H485.077V392.184L489.05 388.411C489.807 387.637 490.28 387.057 490.469 386.67C490.847 386.283 491.037 385.896 491.037 385.509C491.037 384.736 490.753 384.155 490.185 383.768C489.807 383.188 489.239 382.898 488.483 382.898C487.915 382.898 487.347 383.188 486.78 383.768C486.402 384.155 486.212 384.736 486.212 385.509C486.212 385.509 486.212 385.606 486.212 385.8H485.077C485.077 384.639 485.456 383.672 486.212 382.898C486.78 382.318 487.631 382.027 488.766 382.027C489.523 382.027 490.28 382.318 491.037 382.898C491.604 383.672 491.888 384.542 491.888 385.509C491.888 386.09 491.793 386.67 491.604 387.251C491.226 387.637 490.753 388.121 490.185 388.701L486.496 392.184H491.888V393.344Z" fill="white"/>
<path fill-rule="evenodd" clip-rule="evenodd" d="M493.591 389.282V386.09C493.591 385.316 493.591 384.736 493.591 384.349C493.78 383.962 493.969 383.672 494.158 383.478C494.537 382.898 495.01 382.511 495.577 382.318C495.955 382.124 496.523 382.027 497.28 382.027C498.415 382.027 499.266 382.318 499.834 382.898C500.59 383.672 500.969 384.736 500.969 386.09V389.572C500.969 390.152 500.874 390.636 500.685 391.023C500.685 391.41 500.59 391.7 500.401 391.893C500.023 392.474 499.55 392.861 498.982 393.054C498.415 393.441 497.847 393.635 497.28 393.635C496.523 393.635 495.955 393.441 495.577 393.054C495.01 392.861 494.537 392.474 494.158 391.893C493.969 391.7 493.78 391.41 493.591 391.023C493.591 390.636 493.591 390.056 493.591 389.282ZM494.442 389.572C494.442 390.539 494.726 391.313 495.293 391.893C495.672 392.28 496.334 392.474 497.28 392.474C498.036 392.474 498.604 392.28 498.982 391.893C499.55 391.313 499.834 390.539 499.834 389.572V385.8C499.834 384.832 499.55 384.155 498.982 383.768C498.604 383.188 498.036 382.898 497.28 382.898C496.334 382.898 495.672 383.188 495.293 383.768C494.726 384.155 494.442 384.832 494.442 385.8V389.572Z" fill="white"/>
<path d="M506.644 393.344H505.509V383.188H503.523V382.027H506.644V393.344Z" fill="white"/>
<path fill-rule="evenodd" clip-rule="evenodd" d="M514.874 382.027H516.293L513.739 386.09C513.928 386.09 514.117 386.09 514.306 386.09C514.495 386.09 514.685 386.09 514.874 386.09C515.82 386.09 516.576 386.38 517.144 386.96C517.901 387.734 518.279 388.701 518.279 389.862C518.279 390.829 517.901 391.7 517.144 392.474C516.387 393.248 515.536 393.635 514.59 393.635C513.455 393.635 512.509 393.248 511.752 392.474C511.185 391.7 510.901 390.829 510.901 389.862C510.901 388.895 511.279 387.734 512.036 386.38C512.225 386.187 512.32 386.09 512.32 386.09L514.874 382.027ZM514.59 386.96C513.833 386.96 513.266 387.154 512.887 387.541C512.32 388.121 512.036 388.798 512.036 389.572C512.036 390.346 512.32 391.023 512.887 391.603C513.266 392.184 513.833 392.474 514.59 392.474C515.347 392.474 516.009 392.184 516.576 391.603C516.955 391.023 517.144 390.346 517.144 389.572C517.144 388.798 516.955 388.121 516.576 387.541C516.009 387.154 515.347 386.96 514.59 386.96Z" fill="white"/>
<path d="M554.035 316.157L527.36 237.518C526.225 236.938 525.09 236.551 523.954 236.357L552.616 321.09L571.912 304.84C571.534 303.872 571.25 302.808 571.061 301.648L554.035 316.157Z" fill="white"/>
<path d="M486.496 233.746L465.497 321.67L427.471 255.219C423.782 261.893 418.674 267.116 412.999 271.179L409.877 275.241C409.31 277.369 408.837 279.497 408.458 281.625L426.336 258.701L466.632 329.505L489.334 233.455C488.388 233.649 487.442 233.746 486.496 233.746Z" fill="white"/>
<path d="M551.197 373.612H425.769C426.147 374.386 426.526 375.063 426.904 375.643H549.494C550.062 375.063 550.629 374.386 551.197 373.612Z" fill="white"/>
</g>
<g style="mix-blend-mode:screen" opacity="0.2">
<path d="M505.793 241.871C545.237 253.478 567.939 295.554 556.588 335.599C545.237 375.933 504.09 399.148 464.646 387.541C425.485 375.933 402.783 333.857 414.134 293.523C425.485 253.478 466.632 230.263 505.793 241.871Z" fill="white"/>
</g>
<path fill-rule="evenodd" clip-rule="evenodd" d="M512.036 220.397C562.831 235.197 592.344 289.75 577.588 341.982C562.831 393.925 509.766 424.103 458.686 409.014C407.607 393.925 378.378 339.661 393.135 287.429C407.607 235.197 460.957 205.308 512.036 220.397ZM414.134 293.523C402.783 333.857 425.485 375.933 464.646 387.541C504.09 399.148 545.237 375.933 556.588 335.599C567.939 295.554 545.237 253.478 505.793 241.871C466.632 230.263 425.485 253.478 414.134 293.523Z" fill="#FF9E22"/>
<path fill-rule="evenodd" clip-rule="evenodd" d="M510.333 225.911C558.007 240.13 585.817 291.201 571.912 340.241C558.007 388.992 508.063 417.429 460.389 403.21C412.431 388.992 384.905 337.92 398.526 289.17C412.431 240.13 462.375 211.982 510.333 225.911ZM414.418 293.813C403.067 333.858 425.769 375.643 464.929 386.96C504.09 398.567 544.954 375.643 556.021 335.599C567.372 295.554 544.954 253.768 505.793 242.161C466.632 230.554 425.769 253.768 414.418 293.813Z" fill="black"/>
<g style="mix-blend-mode:screen" opacity="0.3">
<path d="M456.984 257.83C471.456 261.893 477.699 284.817 470.889 308.902C464.078 332.987 446.768 348.947 432.579 344.884C418.107 340.532 411.864 317.607 418.674 293.523C425.485 269.728 442.795 253.478 456.984 257.83Z" fill="white"/>
</g>
<g style="mix-blend-mode:screen" opacity="0.1">
<path d="M451.876 366.648C447.335 370.13 437.971 364.616 430.877 354.75C423.498 344.594 421.228 333.857 425.485 330.665C429.741 327.474 439.106 332.697 446.484 342.853C453.579 352.719 456.132 363.456 451.876 366.648Z" fill="white"/>
</g>
<path d="M610.222 405.242L595.182 423.233L545.805 379.706L561.129 361.715L610.222 405.242Z" fill="black"/>
<path d="M581.277 419.46L623.559 456.893C630.937 463.277 642.288 462.697 648.815 454.862C655.342 447.318 654.49 435.71 647.112 429.036L604.546 391.603L581.277 419.46Z" fill="black"/>
<path d="M636.613 419.751L613.06 447.608L607.384 442.675L630.937 414.818L636.613 419.751Z" fill="white"/>
<path fill-rule="evenodd" clip-rule="evenodd" d="M775 242.312C775 244.656 773.069 247 770.365 247H600.021C597.318 247 595.386 244.656 595.386 242.312L595 20.398C595 19.3561 595.515 18.3143 596.545 17.2724C597.575 16.4911 598.734 16.1004 600.021 16.1004L770.365 15.7097C771.652 15.9701 772.811 16.4911 773.841 17.2724C774.614 18.3143 775 19.3561 775 20.398V242.312ZM603.498 239.186C603.498 238.014 602.725 236.842 601.567 236.842C600.021 236.842 599.249 238.014 599.249 239.186C599.249 240.358 600.021 241.14 601.567 241.14C602.725 241.14 603.498 240.358 603.498 239.186ZM603.498 228.247C603.498 227.075 602.725 226.293 601.567 226.293C600.021 226.293 599.249 227.075 599.249 228.247C599.249 229.809 600.021 230.591 601.567 230.591C602.725 230.591 603.498 229.809 603.498 228.247ZM603.498 217.698C603.498 216.526 602.725 215.745 601.567 215.745C600.021 215.745 599.249 216.526 599.249 217.698C599.249 218.87 600.021 220.042 601.567 220.042C602.725 220.042 603.498 218.87 603.498 217.698ZM603.498 207.149C603.498 205.977 602.725 204.805 601.567 204.805C600.021 204.805 599.249 205.977 599.249 207.149C599.249 208.321 600.021 209.493 601.567 209.493C602.725 209.493 603.498 208.321 603.498 207.149ZM603.498 196.601C603.498 195.428 602.725 194.256 601.567 194.256C600.021 194.256 599.249 195.428 599.249 196.601C599.249 197.773 600.021 198.554 601.567 198.554C602.725 198.554 603.498 197.773 603.498 196.601ZM603.498 186.052C603.498 184.489 602.725 183.708 601.567 183.708C600.021 183.708 599.249 184.489 599.249 186.052C599.249 187.224 600.021 188.005 601.567 188.005C602.725 188.005 603.498 187.224 603.498 186.052ZM603.498 175.112C603.498 173.94 602.725 173.159 601.567 173.159C600.021 173.159 599.249 173.94 599.249 175.112C599.249 176.675 600.021 177.457 601.567 177.457C602.725 177.457 603.498 176.675 603.498 175.112ZM603.498 164.564C603.498 163.392 602.725 162.61 601.567 162.61C600.021 162.61 599.249 163.392 599.249 164.564C599.249 165.736 600.021 166.908 601.567 166.908C602.725 166.908 603.498 165.736 603.498 164.564ZM603.498 154.015C603.498 152.843 602.725 151.671 601.567 151.671C600.021 151.671 599.249 152.843 599.249 154.015C599.249 155.187 600.021 156.359 601.567 156.359C602.725 156.359 603.498 155.187 603.498 154.015ZM603.498 143.466C603.498 142.294 602.725 141.122 601.567 141.122C600.021 141.122 599.249 142.294 599.249 143.466C599.249 144.638 600.021 145.42 601.567 145.42C602.725 145.42 603.498 144.638 603.498 143.466ZM603.498 132.918C603.498 131.355 602.725 130.573 601.567 130.573C600.021 130.573 599.249 131.355 599.249 132.918C599.249 134.09 600.021 134.871 601.567 134.871C602.725 134.871 603.498 134.09 603.498 132.918ZM603.498 121.978C603.498 120.806 602.725 120.025 601.567 120.025C600.021 120.025 599.249 120.806 599.249 121.978C599.249 123.541 600.021 124.322 601.567 124.322C602.725 124.322 603.498 123.541 603.498 121.978ZM603.498 111.429C603.498 110.257 602.725 109.476 601.567 109.476C600.021 109.476 599.249 110.257 599.249 111.429C599.249 112.602 600.021 113.774 601.567 113.774C602.725 113.774 603.498 112.602 603.498 111.429ZM603.498 100.881C603.498 99.7087 602.725 98.5366 601.567 98.5366C600.021 98.5366 599.249 99.7087 599.249 100.881C599.249 102.053 600.021 103.225 601.567 103.225C602.725 103.225 603.498 102.053 603.498 100.881ZM603.498 90.3321C603.498 89.16 602.725 87.9879 601.567 87.9879C600.021 87.9879 599.249 89.16 599.249 90.3321C599.249 91.5041 600.021 92.2855 601.567 92.2855C602.725 92.2855 603.498 91.5041 603.498 90.3321ZM603.498 79.7833C603.498 78.2206 602.725 77.4392 601.567 77.4392C600.021 77.4392 599.249 78.2206 599.249 79.7833C599.249 80.9554 600.021 81.7368 601.567 81.7368C602.725 81.7368 603.498 80.9554 603.498 79.7833ZM603.498 68.8439C603.498 67.6719 602.725 66.8905 601.567 66.8905C600.021 66.8905 599.249 67.6719 599.249 68.8439C599.249 70.016 600.021 71.1881 601.567 71.1881C602.725 71.1881 603.498 70.016 603.498 68.8439ZM603.498 58.2952C603.498 57.1231 602.725 55.9511 601.567 55.9511C600.021 55.9511 599.249 57.1231 599.249 58.2952C599.249 59.4673 600.021 60.6394 601.567 60.6394C602.725 60.6394 603.498 59.4673 603.498 58.2952ZM603.498 47.7465C603.498 46.5744 602.725 45.4024 601.567 45.4024C600.021 45.4024 599.249 46.5744 599.249 47.7465C599.249 48.9186 600.021 50.0907 601.567 50.0907C602.725 50.0907 603.498 48.9186 603.498 47.7465ZM603.498 37.1978C603.498 36.0257 602.725 34.8536 601.567 34.8536C600.021 34.8536 599.249 36.0257 599.249 37.1978C599.249 38.3699 600.021 39.1512 601.567 39.1512C602.725 39.1512 603.498 38.3699 603.498 37.1978ZM603.498 26.6491C603.498 25.0863 602.725 24.3049 601.567 24.3049C600.021 24.3049 599.249 25.0863 599.249 26.6491C599.249 27.8212 600.021 28.6025 601.567 28.6025C602.725 28.6025 603.498 27.8212 603.498 26.6491Z" fill="white"/>
<path d="M749.426 62.1613H630.41V37.9677H749.426V62.1613Z" fill="#FFD9A9"/>
<path d="M638.279 102.806H611.721V79.5806H638.279V102.806Z" fill="#FFD9A9"/>
<path opacity="0.6" d="M762.213 85.3871H648.115V82.4839H762.213V85.3871Z" fill="#D6D2C7"/>
<path opacity="0.6" d="M762.213 91.1935H648.115V89.2581H762.213V91.1935Z" fill="#D6D2C7"/>
<path opacity="0.6" d="M762.213 97.9677H648.115V95.0645H762.213V97.9677Z" fill="#D6D2C7"/>
<path opacity="0.6" d="M762.213 124.097H648.115V121.194H762.213V124.097Z" fill="#D6D2C7"/>
<path opacity="0.6" d="M762.213 129.903H648.115V127.968H762.213V129.903Z" fill="#D6D2C7"/>
<path opacity="0.6" d="M762.213 136.677H648.115V134.742H762.213V136.677Z" fill="#D6D2C7"/>
<path opacity="0.6" d="M762.213 162.806H648.115V160.871H762.213V162.806Z" fill="#D6D2C7"/>
<path opacity="0.6" d="M762.213 169.581H648.115V166.677H762.213V169.581Z" fill="#D6D2C7"/>
<path opacity="0.6" d="M762.213 175.387H648.115V173.452H762.213V175.387Z" fill="#D6D2C7"/>
<path opacity="0.6" d="M762.213 201.516H648.115V199.581H762.213V201.516Z" fill="#D6D2C7"/>
<path opacity="0.6" d="M762.213 208.29H648.115V205.387H762.213V208.29Z" fill="#D6D2C7"/>
<path opacity="0.6" d="M762.213 214.097H648.115V212.161H762.213V214.097Z" fill="#D6D2C7"/>
<path d="M638.279 140.548H611.721V118.29H638.279V140.548Z" fill="#FF9E22"/>
<path d="M638.279 179.258H611.721V156.032H638.279V179.258Z" fill="#FF9E22"/>
<path d="M638.279 217.968H611.721V193.774H638.279V217.968Z" fill="#FFD9A9"/>
<path d="M634.344 26.3548H614.672V7H634.344V26.3548Z" fill="black"/>
<path d="M663.852 26.3548H645.164V7H663.852V26.3548Z" fill="black"/>
<path d="M693.361 26.3548H674.672V7H693.361V26.3548Z" fill="black"/>
<path d="M723.852 26.3548H704.18V7H723.852V26.3548Z" fill="black"/>
<path d="M753.361 26.3548H733.688V7H753.361V26.3548Z" fill="black"/>
<path d="M276.205 46H23.7947C10.7309 46 0 54.6792 0 65.6226V226.377C0 237.321 10.7309 246 23.7947 246H276.205C289.269 246 300 237.321 300 226.377V65.6226C300 54.6792 289.269 46 276.205 46Z" fill="black"/>
<path d="M269.673 52.0378H30.3266C17.7294 52.0378 7.93164 60.3396 7.93164 70.5283V221.472C7.93164 231.66 17.7294 239.962 30.3266 239.962H269.673C282.271 239.962 292.068 231.66 292.068 221.472V70.5283C292.068 60.3396 282.271 52.0378 269.673 52.0378Z" fill="#FFD9A9"/>
<path d="M267.807 223.736H32.1929V68.2642H267.807V223.736Z" fill="white"/>
<path opacity="0.6" d="M151.166 80.3396H56.9207V81.8491H151.166V80.3396Z" fill="#D6D2C7"/>
<path opacity="0.6" d="M151.166 93.5472H56.9207V94.6793H151.166V93.5472Z" fill="#D6D2C7"/>
<path opacity="0.6" d="M151.166 106.377H56.9207V107.509H151.166V106.377Z" fill="#D6D2C7"/>
<path opacity="0.6" d="M151.166 119.208H56.9207V120.34H151.166V119.208Z" fill="#D6D2C7"/>
<path opacity="0.6" d="M151.166 132.038H56.9207V133.17H151.166V132.038Z" fill="#D6D2C7"/>
<path opacity="0.6" d="M200.156 205.245H105.91V208.264H200.156V205.245Z" fill="#D6D2C7"/>
<path d="M84.9146 197.698H97.5117V166.377C93.4682 167.132 89.2691 167.761 84.9146 168.264V197.698Z" fill="#FFD9A9"/>
<path d="M101.711 197.698H114.308V163.358C110.265 164.113 106.066 164.868 101.711 165.623V197.698Z" fill="#FF9284"/>
<path d="M118.507 197.698H131.104V159.208C127.061 160.214 122.862 161.22 118.507 162.226V197.698Z" fill="#FDB813"/>
<path d="M135.303 197.698H147.9V154.302C143.857 155.56 139.658 156.818 135.303 158.076V197.698Z" fill="#FFD9A9"/>
<path d="M152.566 197.698H164.697V148.642C160.964 150.151 156.921 151.535 152.566 152.792V197.698Z" fill="#FF9284"/>
<path d="M169.363 197.698H181.96V141.472C177.916 143.233 173.717 144.994 169.363 146.755V197.698Z" fill="#FDB813"/>
<path d="M186.159 139.585V197.698H198.756V133.17C196.89 134.176 194.868 135.308 192.691 136.566C190.513 137.572 188.336 138.579 186.159 139.585Z" fill="#FFD9A9"/>
<path d="M202.955 197.698H215.552V123.358C212.131 125.623 207.932 128.138 202.955 130.906V197.698Z" fill="#FF9284"/>
<path d="M231.415 121.849L229.549 98.0755L202.022 101.094L212.286 108.264C194.09 121.472 146.967 149.396 68.1183 156.566L69.0515 166.377C125.972 161.094 166.097 145.623 190.358 133.547C204.821 126.377 214.619 119.585 221.151 114.679L231.415 121.849Z" fill="black"/>
<path d="M844.178 456H591.822C578.498 456 568 464.824 568 475.608V636.719C568 647.503 578.498 656 591.822 656H844.178C857.098 656 868 647.503 868 636.719V475.608C868 464.824 857.098 456 844.178 456Z" fill="black"/>
<path d="M837.717 462.209H598.283C585.766 462.209 575.672 470.379 575.672 480.51V631.817C575.672 641.948 585.766 650.118 598.283 650.118H837.717C849.83 650.118 859.925 641.948 859.925 631.817V480.51C859.925 470.379 849.83 462.209 837.717 462.209Z" fill="#FFD9A9"/>
<path d="M835.698 633.778H600.301V478.549H835.698V633.778Z" fill="white"/>
<path d="M641.082 625.281H630.988V604.366H641.082V625.281Z" fill="#FF9E22"/>
<path d="M655.214 625.281H645.12V596.523H655.214V625.281Z" fill="#FDB813"/>
<path d="M669.346 625.281H659.252L658.848 587.372H669.346V625.281Z" fill="#FF9284"/>
<path d="M683.478 625.281H672.98V577.895H683.478V625.281Z" fill="#FF9E22"/>
<path d="M627.354 598.81L626.95 598.157L670.153 572.013L670.961 572.667L627.354 598.81Z" fill="black"/>
<path d="M670.557 575.935H669.346L670.153 572.667L665.712 572.013L666.116 571.359L671.365 572.013L670.557 575.935Z" fill="black"/>
<path d="M627.354 525.281C626.95 513.516 637.044 504.039 650.369 501.098L646.331 493.582C629.373 497.83 616.856 510.248 616.856 525.281C616.856 526.261 617.26 527.569 617.26 528.876H627.758C627.489 527.569 627.354 526.37 627.354 525.281Z" fill="#FF9E22"/>
<path d="M660.059 493.908C656.829 493.908 653.733 494.235 650.772 494.889L655.214 502.732C656.829 502.514 658.444 502.296 660.059 502.078C677.017 502.078 690.745 513.189 690.745 526.915C690.745 540.64 677.017 551.752 660.059 551.752C645.523 551.752 633.41 543.582 630.18 532.797H620.086C623.316 548.157 639.871 559.921 660.059 559.921C682.67 559.921 700.84 545.216 700.84 526.915C700.84 508.941 682.67 493.908 660.059 493.908Z" fill="#FDB813"/>
<path d="M737.986 623.647H732.737V590.64H737.986V623.647Z" fill="#FDB813"/>
<path d="M747.273 623.647H742.428V568.418H747.273V623.647Z" fill="#FF9E22"/>
<path d="M756.964 623.647H751.715V601.752H756.964V623.647Z" fill="#FF9284"/>
<path d="M766.654 623.647H761.405V587.699H766.654V623.647Z" fill="#FF9E22"/>
<path d="M775.941 623.647H770.692V580.837H775.941V623.647Z" fill="#FDB813"/>
<path d="M785.631 623.647H780.382V566.784H785.631V623.647Z" fill="#FDB813"/>
<path d="M794.918 623.647H790.073V591.621H794.918V623.647Z" fill="#FF9284"/>
<path d="M804.608 623.647H799.359V558.941H804.608V623.647Z" fill="#FF9E22"/>
<path d="M813.491 623.647H808.242V590.64H813.491V623.647Z" fill="#FDB813"/>
<path d="M742.832 624.954H742.428V623.974H742.832V624.954Z" fill="black"/>
<path d="M752.522 624.954H751.715V623.974H752.522V624.954Z" fill="black"/>
<path d="M761.809 624.954H761.405V623.974H761.809V624.954Z" fill="black"/>
<path d="M771.499 624.954H770.692V623.974H771.499V624.954Z" fill="black"/>
<path d="M780.786 624.954H780.382V623.974H780.786V624.954Z" fill="black"/>
<path d="M790.476 624.954H789.669V623.974H790.476V624.954Z" fill="black"/>
<path d="M799.763 624.954H799.359V623.974H799.763V624.954Z" fill="black"/>
<path d="M819.144 623.647H724.258V623.974H819.144V623.647Z" fill="black"/>
<path opacity="0.6" d="M809.05 505.346H714.972V506.653H809.05V505.346Z" fill="#D6D2C7"/>
<path opacity="0.6" d="M809.05 513.843H714.972V515.15H809.05V513.843Z" fill="#D6D2C7"/>
<path opacity="0.6" d="M809.05 522.34H714.972V523.647H809.05V522.34Z" fill="#D6D2C7"/>
<path opacity="0.6" d="M809.05 530.837H714.972V532.144H809.05V530.837Z" fill="#D6D2C7"/>
<path opacity="0.6" d="M809.05 539.333H714.972V540.641H809.05V539.333Z" fill="#D6D2C7"/>
<path opacity="0.6" d="M809.05 547.83H714.972V549.137H809.05V547.83Z" fill="#D6D2C7"/>
<path d="M290 447.8C290 446.429 289.674 445.4 288.696 444.371C287.717 443.343 286.739 443 285.435 443H114.565C113.587 443 112.283 443.343 111.304 444.371C110.652 445.4 110 446.429 110 447.8V678.2C110 680.943 112.283 683 114.891 683H285.435C288.044 683 290 680.943 290 678.2V447.8Z" fill="#253C68"/>
<path d="M283.478 454.657C283.478 453.286 282.826 452.257 282.174 451.229C281.196 450.543 280.218 449.857 278.913 449.857L121.087 450.2C119.783 450.2 118.804 450.543 118.152 451.229C117.174 452.257 116.848 453.286 116.848 454.657V671.343C116.848 674.086 118.804 676.143 121.087 676.143H278.913C281.522 676.143 283.478 674.086 283.478 671.343V454.657Z" fill="white"/>
<path d="M248.261 482.429H151.739V458.429H248.261V482.429Z" fill="#FFD9A9"/>
<path d="M170 600.028H123.695V576.028H170V600.028Z" fill="#FFD9A9"/>
<path d="M223.152 600.028H176.522V576.028H223.152V600.028Z" fill="#FF9E22"/>
<path d="M276.304 600.028H229.674V576.028H276.304V600.028Z" fill="#FFD9A9"/>
<path d="M180.761 563.686H125V496.486H180.761V563.686Z" fill="#FF9E22"/>
<path d="M275 502.657H192.5V499.914H275V502.657Z" fill="#BDB9B6"/>
<path d="M269.457 615.457H134.457V612.372H269.457V615.457Z" fill="#BDB9B6"/>
<path d="M269.457 626.772H134.457V624.029H269.457V626.772Z" fill="#BDB9B6"/>
<path d="M269.457 638.086H134.457V635.343H269.457V638.086Z" fill="#BDB9B6"/>
<path d="M269.457 649.4H134.457V646.657H269.457V649.4Z" fill="#BDB9B6"/>
<path d="M269.457 661.057H134.457V657.971H269.457V661.057Z" fill="#BDB9B6"/>
<path d="M275 514.314H192.5V511.572H275V514.314Z" fill="#BDB9B6"/>
<path d="M275 526.314H192.5V523.229H275V526.314Z" fill="#BDB9B6"/>
<path d="M275 537.971H192.5V534.885H275V537.971Z" fill="#BDB9B6"/>
<path d="M275 549.628H192.5V546.886H275V549.628Z" fill="#BDB9B6"/>
<path d="M275 561.286H192.5V558.543H275V561.286Z" fill="#BDB9B6"/>
</svg>
