<svg width="100" height="100" viewBox="0 0 100 100" fill="none" xmlns="http://www.w3.org/2000/svg">
<path d="M57.2875 2.0625C55.0899 0.730914 52.5695 0.0268936 50 0.0268936C47.4305 0.0268936 44.9101 0.730914 42.7125 2.0625L9.9 21.95C7.83227 23.2029 6.12249 24.9677 4.93573 27.0741C3.74897 29.1805 3.12533 31.5573 3.125 33.975V66.025C3.12533 68.4427 3.74897 70.8195 4.93573 72.9259C6.12249 75.0323 7.83227 76.7971 9.9 78.05L42.7125 97.9375C44.9101 99.2691 47.4305 99.9731 50 99.9731C52.5695 99.9731 55.0899 99.2691 57.2875 97.9375L90.1 78.05C92.1677 76.7971 93.8775 75.0323 95.0643 72.9259C96.251 70.8195 96.8747 68.4427 96.875 66.025V33.975C96.8747 31.5573 96.251 29.1805 95.0643 27.0741C93.8775 24.9677 92.1677 23.2029 90.1 21.95L57.2875 2.0625Z" fill="#FF9E22"/>
<path d="M50 18.75C32.7411 18.75 18.75 32.7411 18.75 50C18.75 67.2589 32.7411 81.25 50 81.25C67.2589 81.25 81.25 67.2589 81.25 50" stroke="#FFD9A9" stroke-width="2.91667" stroke-linecap="round" stroke-linejoin="round"/>
<path d="M50 34.375C41.3705 34.375 34.375 41.3705 34.375 50C34.375 58.6295 41.3705 65.625 50 65.625C58.6295 65.625 65.625 58.6295 65.625 50" stroke="#FFD9A9" stroke-width="2.91667" stroke-linecap="round" stroke-linejoin="round"/>
<path d="M50 50.0002L60.9375 39.0526" stroke="#FFD9A9" stroke-width="2.91667" stroke-linecap="round" stroke-linejoin="round"/>
<path d="M60.9375 28.1708V39.0625H71.9186L81.2502 29.6878H70.3182V18.75L60.9375 28.1708Z" fill="#FFD9A9" stroke="#FFD9A9" stroke-width="2.91667" stroke-linejoin="round"/>
</svg>
