<svg version="1.2" xmlns="http://www.w3.org/2000/svg" viewBox="0 0 32 32" width="32" height="32"><style>.a{fill:#fff}</style><path fill-rule="evenodd" class="a" d="m30 14q-0.1 1-0.6 2-0.5 0.9-1.3 1.6-0.8 0.7-1.7 1-1 0.4-2.1 0.4h-5.3q-0.4 0-0.7-0.3-0.3-0.3-0.3-0.7 0-0.4 0.3-0.7 0.3-0.3 0.7-0.3h5.3q0.7 0 1.3-0.2 0.7-0.2 1.2-0.7 0.5-0.4 0.8-1 0.3-0.6 0.4-1.3 0-0.3 0-0.7 0-0.4-0.2-0.7-0.1-0.4-0.3-0.7-0.1-0.3-0.4-0.6-0.4-0.4-0.8-0.6-0.5-0.3-1-0.4-0.5-0.1-1.1-0.1-0.5 0.1-1 0.3-0.2 0-0.4 0-0.3 0-0.4-0.1-0.2-0.1-0.4-0.2-0.1-0.2-0.2-0.4c-0.3-1.4-1.1-2.6-2.3-3.4-1.2-0.9-2.6-1.3-4-1.1-1.4 0.1-2.7 0.7-3.7 1.7-1 1-1.6 2.4-1.8 3.8q0 0.1 0 0.2 0 0.1-0.1 0.3-0.1 0.1-0.2 0.2-0.1 0-0.2 0.1-0.1 0.1-0.2 0.1-0.2 0-0.3 0-0.1 0-0.3 0-0.1 0-0.2-0.1-0.4-0.2-1-0.3-0.5-0.1-1 0-0.5 0-0.9 0.3-0.5 0.2-0.8 0.6-0.2 0.2-0.4 0.5-0.2 0.3-0.3 0.6-0.1 0.3-0.1 0.6 0 0.3 0 0.6 0.1 0.6 0.4 1.1 0.2 0.5 0.7 0.9 0.4 0.3 1 0.5 0.5 0.2 1.1 0.2h5.8q0.4 0 0.7 0.3 0.3 0.3 0.3 0.7 0 0.4-0.3 0.7-0.3 0.3-0.7 0.3h-5.8q-1 0-1.9-0.3-0.9-0.3-1.6-1-0.7-0.6-1.1-1.4-0.5-0.9-0.6-1.8c-0.1-0.8 0-1.6 0.3-2.4 0.3-0.7 0.8-1.4 1.4-1.9 0.6-0.5 1.3-0.9 2.1-1.1 0.8-0.2 1.6-0.1 2.4 0.1 0.4-1.7 1.3-3.2 2.6-4.3 1.3-1.1 2.9-1.8 4.6-1.9 1.7-0.1 3.4 0.3 4.9 1.2 1.4 1 2.5 2.3 3.1 3.9q0.7-0.1 1.5-0.1 0.7 0.1 1.3 0.3 0.7 0.2 1.3 0.6 0.6 0.4 1.1 0.9 0.4 0.4 0.7 0.9 0.2 0.5 0.4 1 0.2 0.6 0.3 1.2 0.1 0.5 0 1.1zm-10 9q0.4 0 0.7 0.3 0.3 0.3 0.3 0.7 0 0.4-0.3 0.7l-4 4q0 0-0.1 0.1 0 0 0 0-0.1 0.1-0.1 0.1-0.1 0-0.1 0-0.1 0.1-0.2 0.1-0.1 0-0.2 0-0.1 0-0.2 0-0.1 0-0.2-0.1 0 0-0.1 0 0 0-0.1-0.1 0 0 0 0-0.1-0.1-0.1-0.1l-4-4q-0.3-0.3-0.3-0.7 0-0.4 0.3-0.7 0.3-0.3 0.7-0.3 0.4 0 0.7 0.3l2.3 2.3v-14.6q0-0.4 0.3-0.7 0.3-0.3 0.7-0.3 0.4 0 0.7 0.3 0.3 0.3 0.3 0.7v14.6l2.3-2.3q0.3-0.3 0.7-0.3z"/></svg>