<svg version="1.2" xmlns="http://www.w3.org/2000/svg" viewBox="0 0 2880 2880" width="2880" height="2880"><style>.a{fill:#fff}</style><g style="opacity:.4"><path class="a" d="m1706.5 1191.6c-148.9-148.7-389.7-146.6-536.4 4.7-0.7 0.7-1.4 1.4-2 2.1-94.2 98.5-125.1 234.8-93.9 357.8 16.6 65.4 50.6 127.1 102 177.6 148.3 145.5 386 143.4 532.1-4.7 146.8-148.9 146.5-389.5-1.8-537.5z"/><path class="a" d="m1775.8 1120.7c-187.3-187.4-491.5-184.7-676 6q-7.5 7.7-14.4 15.5l9.5 6.5c4.2-4.7 8.6-9.3 13-13.9 180.1-186.1 477.1-188.8 659.9-5.9 181.8 181.9 181.7 478.2 1.5 660.5-179.2 181.3-471.4 183.9-653.2 5.8-67-65.6-110-146.8-128.8-232.6l-11.4 0.8c19.1 88.5 63.3 172.3 132.3 239.9 186.3 182.4 485.5 179.8 669.1-5.9 184.6-186.9 184.8-490.3-1.5-676.7z"/><path class="a" d="m1843.5 1051.6c-225-225.6-590.8-222.4-812.4 7.1-9.1 9.4-17.8 19-26.1 28.9l25.5 17.2q10.8-12.4 22.4-24.5c209.9-217.2 556.1-220.2 769.1-6.8 211.7 212.1 211 557.1 1.1 769.3-208.6 210.6-548.4 213.6-760 6.6-80.8-79-131.7-177.5-152.5-281.1l-30.3 2.1c21.6 110.8 75.6 216.1 161.8 300.5 223.4 218.3 582.1 215.1 802.3-7.1 221.7-223.8 222.6-588.2-0.9-812.2z"/><path class="a" d="m1982.4 909.6c-302.2-304.5-794.6-300-1092.3 9.5-294.9 306.9-284.9 795.5 17.2 1089.6 126.3 122.9 284.3 193.1 446.6 211.2l-1.9-63.8c-145.7-18.1-287-82.2-400.4-192.7-276.6-269.7-285.3-717.4-15-998.2 272.7-283.1 723.2-287.1 1000-8.8 178 179 239.7 430.7 186.5 660.1l60.6 21.5c61.4-252.4-5.1-530.9-201.3-728.4z"/><path fill-rule="evenodd" class="a" d="m859.1 2058c-329.9-320.6-341.4-853.8-19.7-1189 325-338.6 863-343.3 1193-10.5 326.6 329.4 322.8 862.8-2.3 1189.2-321.8 323-844.5 327.6-1171 10.3zm1184.1-1210.6c-162.3-163.7-378.9-253.2-609.3-251.1-230.3 2-445.6 95.2-605.5 261.9-159.1 165.7-243.7 383.7-239 613.1 4.7 227.7 97 439.8 259.3 597.4 161.4 156.8 373.5 241.7 597.8 239.8 224.2-2 435.1-90.7 594.2-250.4 159.9-160.4 249.1-373.9 250.5-601.8 1.3-229.4-86.5-445.9-248-608.9z"/><path class="a" d="m2528.8 1067.4l-26.3 8.1c111.9 329.2 68 699.3-128.1 994.8l21.4 15c123.7-185.1 191.6-402.8 194-631.6 1.4-133.3-19.5-263.6-61-386.3zm-312.2-478.8c-214.5-197.8-491.4-305.1-784.9-302.4-312.7 2.7-604.7 129.7-820.8 356.5-214.8 225.3-328 520.9-320.1 831.2 7.7 307.4 133.4 592.6 352.8 804.4 218 210.3 503.4 324.1 805 321.4 180.6-1.5 354.6-44.8 511.2-125l-12.9-22.8c-413.6 210.5-933.1 147.9-1285.2-192.1-444-428.8-463-1145.5-31.5-1597.9 424.2-444.7 1120.2-464.4 1567.3-53.8z"/><path class="a" d="m2380 503c-127.1-129.6-276.1-229.8-442.8-297.7-161.2-65.7-331.9-98.2-506.9-96.7-174.9 1.5-345 37-505.4 105.6-165.6 70.8-313.2 173.7-438.3 305.6-124.7 131.2-219.6 283.3-282.3 451.5-60.2 161.7-88.1 331.3-83.2 504.2 4.8 171.8 41.7 338.2 109.6 494.5q6.6 15.2 13.6 30.2l25.1-8.6c-218.7-470-144.7-1051.3 236.6-1452.6 504.1-530.8 1343-538.1 1854.9-16.4 503.7 513.4 491.5 1338.6-12.7 1839.8-309.9 308-737.1 426.3-1135.7 355.7l-6.1 25.5c79.9 14.3 161.2 21.1 243.4 20.4 167.9-1.5 331.5-34.4 486.4-97.7 160.8-65.8 305.5-161.8 430.3-285.8 125.2-124.3 223-269.6 290.6-431.9 65.6-157.5 100.1-324.5 102.4-496.4 2.3-172.9-28.1-342-90.6-502.5-65.1-167.2-162.3-317.5-288.9-446.7z"/><path class="a" d="m2467.1 414c-138.7-141.8-301.5-251.6-483.6-325.9-101.7-41.6-207-71-314.6-88.1l1.9 9c291 47 569.4 184.1 790.8 410.6 557.5 570 541.8 1484.2-17.2 2038.1-549.5 544.4-1436.1 552.3-1993.5 17.5-567.1-543.9-596.2-1457.6-47.1-2037.5 66.5-70.2 138.5-132.3 214.7-186l-1.9-8.6c-78.4 55.2-151.4 118.4-218.4 189.2-136 143.6-239.5 309.8-307.5 493.8-65.4 176.5-95.6 361.8-90 550.4 5.6 187.5 46.3 368.9 120.7 539.3 76.5 175.5 185.7 331.8 324.4 464.8 138.1 132.3 297.3 234 473.6 302.5 169.8 65.9 348.5 98.4 531.3 96.8 182.8-1.6 361-37.3 529.8-106.2 175.2-71.5 333-176 469.1-310.8 136.7-135.4 243.6-293.6 317.5-470.4 71.9-171.7 109.9-353.8 112.7-541.4 2.9-188.7-30-373.4-97.9-548.8-70.8-182.7-176.7-347-314.8-488.3z"/></g></svg>