<svg width="706" height="471" viewBox="0 0 706 471" fill="none" xmlns="http://www.w3.org/2000/svg">
<path d="M563.581 258.266V188.501C563.581 180.998 558.316 171.927 551.706 168.12L486.732 130.605C483.707 128.813 480.795 128.589 478.778 129.597C476.426 130.717 468.248 135.644 468.248 135.644L474.97 207.09C474.97 214.593 480.235 223.663 486.844 227.471L491.997 230.383L482.139 265.321L491.997 259.61L515.522 243.933L551.931 264.985C553.387 265.769 549.802 271.816 549.802 271.816C549.802 271.816 560.332 265.881 560.78 265.545C562.461 264.202 563.581 261.626 563.581 258.266Z" fill="black" stroke="black" stroke-width="2" stroke-miterlimit="10" stroke-linecap="round" stroke-linejoin="round"/>
<path d="M553.724 263.866V194.1C553.724 186.597 548.458 177.526 541.849 173.719L476.875 136.204C470.377 132.397 465 135.42 465 142.923V212.689C465 220.192 470.265 229.263 476.875 233.07L482.028 235.982V265.321L505.553 249.644L541.961 270.697C548.346 274.392 553.724 271.369 553.724 263.866Z" fill="white" stroke="black" stroke-width="2" stroke-miterlimit="10" stroke-linecap="round" stroke-linejoin="round"/>
<path d="M536.021 237.997L482.585 207.201C479.56 205.409 477.096 206.865 477.096 210.337C477.096 213.808 479.56 218.064 482.585 219.855L536.021 250.651C539.045 252.443 541.51 250.987 541.51 247.515C541.622 244.044 539.045 239.788 536.021 237.997Z" fill="#FF9431" stroke="black" stroke-width="2" stroke-miterlimit="10" stroke-linecap="round" stroke-linejoin="round"/>
<path d="M536.021 213.024L482.585 182.229C479.56 180.437 477.096 181.893 477.096 185.364C477.096 188.836 479.56 193.091 482.585 194.883L536.021 225.678C539.045 227.47 541.51 226.014 541.51 222.543C541.622 218.959 539.045 214.704 536.021 213.024Z" fill="#FF9431" stroke="black" stroke-width="2" stroke-miterlimit="10" stroke-linecap="round" stroke-linejoin="round"/>
<path d="M536.021 188.053L482.585 157.258C479.56 155.466 477.096 156.922 477.096 160.393C477.096 163.865 479.56 168.12 482.585 169.912L536.021 200.708C539.045 202.499 541.51 201.043 541.51 197.572C541.622 193.988 539.045 189.733 536.021 188.053Z" fill="#FF9431" stroke="black" stroke-width="2" stroke-miterlimit="10" stroke-linecap="round" stroke-linejoin="round"/>
<path d="M85.3984 259.3C86.1984 271.7 94.8984 286.1 105.498 292.2C108.798 294.1 111.998 295 114.798 295C119.098 295 124.298 293.6 129.298 290.4C130.198 289.8 130.998 289.1 131.798 288.4C139.498 282 144.598 272.9 145.798 262.9C147.198 251.4 147.198 238.5 142.898 226.4L85.3984 259.3Z" fill="white" stroke="black" stroke-width="2" stroke-miterlimit="10" stroke-linecap="round" stroke-linejoin="round"/>
<path d="M177.398 171.6C177.398 150.7 162.698 125.3 144.498 114.8C126.298 104.3 111.598 112.7 111.598 133.6C111.598 135.4 111.698 137.2 111.898 139C111.898 139 111.898 139 111.898 139.1C112.098 140.9 112.398 142.7 112.798 144.5C120.398 186 145.398 220.1 145.198 252.8C145.098 268.4 137.698 283.2 125.198 292.6C125.098 292.6 125.098 292.7 124.998 292.7L168.498 268.1L187.198 207L177.398 171.6Z" fill="#FCAF56" stroke="black" stroke-width="2" stroke-miterlimit="10" stroke-linecap="round" stroke-linejoin="round"/>
<path d="M338.799 88.7005C339.999 85.5005 340.599 81.7005 340.599 77.4005C340.599 56.5005 325.899 31.1005 307.699 20.6005C297.299 14.6005 288.099 14.8006 282.099 19.9006L123.699 111.301C129.399 109.301 136.599 110.301 144.499 114.801C162.699 125.301 177.399 150.701 177.399 171.601C177.399 174.601 177.099 177.301 176.499 179.801C176.199 180.901 175.899 181.901 175.599 182.901C163.699 223.401 162.199 262.501 164.499 299.101C165.499 317.801 177.699 340.601 193.999 350.001C210.299 359.401 223.499 351.901 223.499 333.201C223.499 321.701 218.499 308.601 210.799 298.101L292.699 225.201L327.699 205.001C327.299 202.501 326.999 200.001 326.699 197.501L326.599 196.801C322.899 162.401 327.899 126.201 338.799 88.7005Z" fill="white" stroke="black" stroke-width="2" stroke-miterlimit="10" stroke-linecap="round" stroke-linejoin="round"/>
<path d="M251.898 289.601C251.898 268.101 236.698 248.301 217.998 237.401C208.598 232.001 200.198 231.501 193.998 235.001C187.898 238.501 184.098 246.001 184.098 256.801C184.098 270.301 190.198 280.901 206.298 298.901C216.398 310.101 223.498 319.601 223.498 333.301C223.498 341.501 220.898 347.601 216.698 351.001C216.298 351.401 215.698 351.801 214.998 352.201C214.598 352.401 257.998 327.301 257.998 327.301L251.898 289.601Z" fill="#FCAF56" stroke="black" stroke-width="2" stroke-miterlimit="10" stroke-linecap="round" stroke-linejoin="round"/>
<path d="M194.498 234.701C194.298 234.801 194.098 234.901 193.998 235.001L194.498 234.701Z" fill="#FFE7C1" stroke="black" stroke-width="2" stroke-miterlimit="10" stroke-linecap="round" stroke-linejoin="round"/>
<path d="M460.898 316.601C436.098 302.301 415.898 267.501 415.898 239.001L415.098 201.701C415.098 180.201 399.898 154.001 381.198 143.201C371.798 137.801 363.398 137.301 357.198 140.801L357.698 140.501L194.498 234.701C200.598 231.501 208.798 232.201 217.898 237.401C236.598 248.201 251.798 274.401 251.798 295.901L252.598 333.201C252.598 361.701 272.698 396.401 297.598 410.801L398.998 469.501L562.198 375.301L460.898 316.601Z" fill="white" stroke="black" stroke-width="2" stroke-miterlimit="10" stroke-linecap="round" stroke-linejoin="round"/>
<path d="M304.998 153.301L194.598 217.001" stroke="black" stroke-width="2" stroke-miterlimit="10" stroke-linecap="round" stroke-linejoin="round"/>
<path d="M309.798 123.801L199.398 187.501" stroke="black" stroke-width="2" stroke-miterlimit="10" stroke-linecap="round" stroke-linejoin="round"/>
<path d="M310 96.5L199.398 159.301" stroke="black" stroke-width="2" stroke-miterlimit="10" stroke-linecap="round" stroke-linejoin="round"/>
<path d="M308.5 60.5L191.098 128.5" stroke="black" stroke-width="2" stroke-miterlimit="10" stroke-linecap="round" stroke-linejoin="round"/>
<path d="M285.002 38.5L168.299 105.4" stroke="black" stroke-width="2" stroke-miterlimit="10" stroke-linecap="round" stroke-linejoin="round"/>
<path d="M381.798 184.101L271.398 247.801" stroke="black" stroke-width="2" stroke-miterlimit="10" stroke-linecap="round" stroke-linejoin="round"/>
<path d="M388.798 216.001L278.398 279.701" stroke="black" stroke-width="2" stroke-miterlimit="10" stroke-linecap="round" stroke-linejoin="round"/>
<path d="M401.199 283.801L290.799 347.501" stroke="black" stroke-width="2" stroke-miterlimit="10" stroke-linecap="round" stroke-linejoin="round"/>
<path d="M420.599 315.601L310.199 379.401" stroke="black" stroke-width="2" stroke-miterlimit="10" stroke-linecap="round" stroke-linejoin="round"/>
<path d="M450.998 340.2L340.598 403.9" stroke="black" stroke-width="2" stroke-miterlimit="10" stroke-linecap="round" stroke-linejoin="round"/>
<path d="M484.599 362.2L374.199 425.9" stroke="black" stroke-width="2" stroke-miterlimit="10" stroke-linecap="round" stroke-linejoin="round"/>
<path d="M392.798 249.9L282.398 313.6" stroke="black" stroke-width="2" stroke-miterlimit="10" stroke-linecap="round" stroke-linejoin="round"/>
<path d="M77.3 346.5L88.8 327.7L85.6 350L113.6 343.3L89.1 358.3L113.6 373.3L85.6 366.6L92.3 394.6L77.3 370.1L57.9 401.7L68.9 366.6L41 373.3L65.5 358.3L41 343.3L68.9 350L62.2 322L77.3 346.5Z" fill="#FF9331" stroke="black" stroke-width="2" stroke-miterlimit="10" stroke-linecap="round" stroke-linejoin="round"/>
<path d="M525 58.9571C521.4 57.4664 518.571 52.9944 517.629 47.3825L516 38L514.371 47.3825C513.429 52.9944 510.6 57.4664 507 58.9571L501 61.5L507 64.0429C510.6 65.5336 513.429 70.0056 514.371 75.6175L516 85L517.629 75.6175C518.571 70.0056 521.4 65.5336 525 64.0429L531 61.5L525 58.9571Z" fill="white" stroke="black" stroke-width="2" stroke-miterlimit="10" stroke-linecap="round" stroke-linejoin="round"/>
<path d="M89.8 38.2C96.4 33.1 97 22.7 97.7 1C98.4 22.7 99 33 105.6 38.2C111.3 42.6 121.6 43.2 140.4 43.8C118.2 44.5 107.9 45.1 102.9 52.2C98.8 58 98.3 68.3 97.7 86.5C97 64.9 96.4 54.6 89.9 49.4C84.2 44.9 73.9 44.4 55 43.8C73.8 43.2 84.1 42.7 89.8 38.2Z" fill="#FDD95C" stroke="black" stroke-width="2" stroke-miterlimit="10" stroke-linecap="round" stroke-linejoin="round"/>
<path d="M628.983 317.122C650.161 322.717 661.129 312.607 670.203 304.984C676.886 299.356 682.343 289.988 678.404 282.164C675.469 276.313 667.533 273.817 661.539 276.471C655.545 279.125 652.053 286.076 652.943 292.576C653.832 299.076 658.675 304.703 664.771 307.069C671.789 309.783 679.913 308.53 686.61 305.164C694.152 301.369 700.192 294.826 703.821 287.167" stroke="black" stroke-width="2" stroke-miterlimit="10" stroke-linecap="round" stroke-linejoin="round"/>
<path d="M599.603 322.962C610.938 326.427 623.568 322.034 632.713 314.34C639.395 308.712 644.852 299.344 640.914 291.52C637.978 285.669 630.043 283.173 624.049 285.827C618.055 288.48 614.563 295.432 615.452 301.932C616.341 308.432 621.046 314.484 629.053 317.05" stroke="black" stroke-width="2" stroke-miterlimit="10" stroke-linecap="round" stroke-linejoin="round"/>
<path d="M61.891 199.053C41.2199 199.017 33.7144 187.234 27.2294 178.121C22.4614 171.381 19.7885 161.614 25.3183 155.431C29.3488 150.78 37.1882 150.49 42.099 154.314C46.8644 158.168 48.4021 165.44 46.1026 171.092C43.8032 176.744 37.9576 180.715 31.8718 181.394C24.7679 182.288 17.7063 179.071 12.4655 174.406C6.48921 169.136 2.64705 161.744 1.13184 153.86" stroke="black" stroke-width="2" stroke-miterlimit="10" stroke-linecap="round" stroke-linejoin="round"/>
<path d="M87.2719 211.311C76.1099 211.696 65.6533 204.639 59.1683 195.527C54.4004 188.786 51.7275 179.02 57.2572 172.836C61.2878 168.186 69.1272 167.895 74.038 171.719C78.8034 175.573 80.341 182.845 78.0416 188.497C75.7422 194.149 69.8434 198.587 62.0348 199.023" stroke="black" stroke-width="2" stroke-miterlimit="10" stroke-linecap="round" stroke-linejoin="round"/>
<path d="M398.112 96.6284C402.928 102.535 410.927 103.984 415.977 99.8658C421.028 95.7473 421.217 87.6205 416.401 81.7141C411.584 75.8077 403.586 74.3582 398.535 78.4767C393.485 82.5952 393.295 90.722 398.112 96.6284Z" fill="#FFE5BB" stroke="black" stroke-width="2" stroke-miterlimit="10"/>
<path d="M419.855 92.7953C420.356 89.1402 419.212 85.0386 416.438 81.6988C415.483 80.5997 414.48 79.6334 413.338 78.8424C410.293 78.9402 408.227 79.243 409.968 82.7342C411.969 86.5455 415.366 91.6914 419.855 92.7953Z" fill="#FFE5BB" stroke="black" stroke-width="2" stroke-miterlimit="10"/>
<path d="M415.957 99.8051C410.836 103.963 402.867 102.498 398.056 96.6883C397.318 95.8186 396.805 94.9549 396.339 93.9583C393.486 88.5585 394.287 82.0034 398.629 78.5403C403.751 74.382 411.719 75.8471 416.53 81.6571C421.341 87.467 420.988 95.6892 415.957 99.8051Z" fill="#FFE5BB" stroke="black" stroke-width="2" stroke-miterlimit="10"/>
<path d="M408.343 76.6516C408.301 76.561 408.349 76.4281 408.349 76.4281C408.221 72.8457 409.519 69.4803 412.309 67.1836C417.43 63.0254 425.399 64.4905 430.21 70.3004C434.973 76.2433 434.758 84.2902 429.637 88.4485C424.515 92.6067 416.546 91.1416 411.736 85.3316C410.998 84.462 410.484 83.5983 410.019 82.6016" fill="#FFE5BB"/>
<path d="M408.343 76.6516C408.301 76.561 408.349 76.4281 408.349 76.4281C408.221 72.8457 409.519 69.4803 412.309 67.1836C417.43 63.0254 425.399 64.4905 430.21 70.3004C434.973 76.2433 434.758 84.2902 429.637 88.4485C424.515 92.6067 416.546 91.1416 411.736 85.3316C410.998 84.462 410.484 83.5983 410.019 82.6016" stroke="black" stroke-width="2" stroke-miterlimit="10"/>
<path d="M422.197 65.4339C422.154 65.3433 422.203 65.2103 422.203 65.2103C422.075 61.6279 423.372 58.2625 426.162 55.9658C431.284 51.8076 439.253 53.2727 444.064 59.0826C448.826 65.0255 448.612 73.0725 443.49 77.2307C438.369 81.3889 430.4 79.9238 425.589 74.1139C424.852 73.2442 424.338 72.3805 423.872 71.3839" fill="#FFE5BB"/>
<path d="M422.197 65.4339C422.154 65.3433 422.203 65.2103 422.203 65.2103C422.075 61.6279 423.372 58.2625 426.162 55.9658C431.284 51.8076 439.253 53.2727 444.064 59.0826C448.826 65.0255 448.612 73.0725 443.49 77.2307C438.369 81.3889 430.4 79.9238 425.589 74.1139C424.852 73.2442 424.338 72.3805 423.872 71.3839" stroke="black" stroke-width="2" stroke-miterlimit="10"/>
<path d="M212.3 424.6C215.779 424.6 218.6 421.779 218.6 418.3C218.6 414.821 215.779 412 212.3 412C208.821 412 206 414.821 206 418.3C206 421.779 208.821 424.6 212.3 424.6Z" fill="#EEC481" stroke="black" stroke-width="2" stroke-miterlimit="10" stroke-linecap="round" stroke-linejoin="round"/>
<path d="M210.798 11.8C213.781 11.8 216.198 9.38234 216.198 6.4C216.198 3.41766 213.781 1 210.798 1C207.816 1 205.398 3.41766 205.398 6.4C205.398 9.38234 207.816 11.8 210.798 11.8Z" fill="#FFDA9F" stroke="black" stroke-width="2" stroke-miterlimit="10" stroke-linecap="round" stroke-linejoin="round"/>
<path d="M315.699 63.5C318.399 63.8 320.599 65.1 321.499 68.9" stroke="white" stroke-width="3" stroke-miterlimit="10" stroke-linecap="round" stroke-linejoin="round"/>
<path d="M482.132 390.233C499.332 410.133 529.432 412.233 549.232 395.033C569.132 377.833 571.232 347.733 554.032 327.933C536.832 308.033 506.732 305.933 486.932 323.133C467.132 340.233 464.932 370.333 482.132 390.233ZM491.832 381.833C479.232 367.333 480.832 345.333 495.332 332.733C509.832 320.133 531.832 321.733 544.432 336.233C557.032 350.733 555.432 372.733 540.932 385.333C526.432 397.933 504.432 396.333 491.832 381.833Z" fill="#EDA737" stroke="black" stroke-width="2" stroke-miterlimit="10" stroke-linecap="round" stroke-linejoin="round"/>
<path d="M559.634 381.733L574.134 391.733L566.034 403.433L551.634 393.433C550.634 392.933 550.034 391.633 550.134 389.833C550.434 386.633 552.934 382.833 555.834 381.533C557.434 380.933 558.734 381.033 559.634 381.733Z" fill="#FA8E12" stroke="black" stroke-width="2" stroke-miterlimit="10" stroke-linecap="round" stroke-linejoin="round"/>
<path d="M547.628 380.678C549.89 377.408 550.215 373.712 548.353 372.424C546.49 371.136 543.146 372.742 540.884 376.012C538.621 379.283 538.297 382.978 540.159 384.267C542.021 385.555 545.365 383.948 547.628 380.678Z" fill="#FA8E12" stroke="black" stroke-width="2.0001" stroke-miterlimit="10.0005" stroke-linecap="round" stroke-linejoin="round"/>
<path d="M485.333 379.132C472.333 364.132 473.933 341.332 488.933 328.332C503.933 315.332 526.733 316.932 539.733 331.932C552.733 346.932 551.133 369.732 536.133 382.732C521.133 395.732 498.433 394.132 485.333 379.132Z" fill="#EDA737" stroke="black" stroke-width="2" stroke-miterlimit="10" stroke-linecap="round" stroke-linejoin="round"/>
<path d="M560.833 405.333C559.233 404.433 558.333 402.433 558.533 399.633C558.933 394.533 563.133 388.533 567.733 386.433C570.233 385.233 572.433 385.433 573.833 386.633L616.433 416.433C618.033 417.333 619.033 419.333 618.733 422.133C618.333 427.233 614.133 433.233 609.533 435.333C607.033 436.533 604.933 436.333 603.533 435.133L560.833 405.333Z" fill="#FA8E12" stroke="black" stroke-width="2" stroke-miterlimit="10" stroke-linecap="round" stroke-linejoin="round"/>
<path d="M476.633 386.733C493.833 406.633 523.933 408.733 543.733 391.533C563.633 374.333 565.733 344.233 548.533 324.433C531.333 304.533 501.233 302.433 481.433 319.633C461.533 336.733 459.433 366.833 476.633 386.733ZM486.333 378.333C473.733 363.833 475.333 341.833 489.833 329.233C504.333 316.633 526.333 318.233 538.933 332.733C551.533 347.233 549.933 369.233 535.433 381.833C520.833 394.433 498.833 392.833 486.333 378.333Z" fill="#FDD95C" stroke="black" stroke-width="2.1559" stroke-miterlimit="10" stroke-linecap="round" stroke-linejoin="round"/>
<path d="M490.932 378.533C479.432 365.333 480.932 345.333 494.132 333.833C507.332 322.333 527.332 323.833 538.832 337.033C550.332 350.233 548.832 370.233 535.632 381.733C522.332 393.133 502.332 391.733 490.932 378.533Z" fill="white" stroke="black" stroke-width="2" stroke-miterlimit="10" stroke-linecap="round" stroke-linejoin="round"/>
<path d="M504.533 376.532C515.303 376.532 524.033 367.802 524.033 357.032C524.033 346.263 515.303 337.532 504.533 337.532C493.764 337.532 485.033 346.263 485.033 357.032C485.033 367.802 493.764 376.532 504.533 376.532Z" fill="black" stroke="black" stroke-width="2" stroke-miterlimit="10" stroke-linecap="round" stroke-linejoin="round"/>
<path d="M498.432 368.033C504.286 368.033 509.032 363.287 509.032 357.433C509.032 351.579 504.286 346.833 498.432 346.833C492.578 346.833 487.832 351.579 487.832 357.433C487.832 363.287 492.578 368.033 498.432 368.033Z" fill="white" stroke="black" stroke-width="2" stroke-miterlimit="10" stroke-linecap="round" stroke-linejoin="round"/>
<path d="M616.434 416.433C610.034 412.033 597.134 430.733 603.534 435.233L616.434 416.433Z" fill="#FA8E12"/>
<path d="M616.434 416.433C610.034 412.033 597.134 430.733 603.534 435.233" stroke="black" stroke-width="2" stroke-miterlimit="10" stroke-linecap="round" stroke-linejoin="round"/>
<path d="M602.043 182.433C599.993 182.286 598.236 181.115 597.357 179.359L578.761 146.278C577.15 143.351 578.175 139.691 581.103 137.935C584.032 136.325 587.693 137.349 589.45 140.277L603.068 164.429L630.889 126.81C632.646 124.029 636.453 123.151 639.382 124.907C642.164 126.664 643.043 130.47 641.286 133.397L608.046 179.652C606.875 181.408 604.825 182.579 602.775 182.433C602.336 182.579 602.189 182.433 602.043 182.433Z" fill="#F9BA54" stroke="black" stroke-width="2" stroke-miterlimit="10" stroke-linecap="round" stroke-linejoin="round"/>
<path d="M603.068 164.575L601.018 167.356" stroke="black" stroke-width="2" stroke-miterlimit="10" stroke-linecap="round" stroke-linejoin="round"/>
</svg>
