<svg version="1.2" xmlns="http://www.w3.org/2000/svg" viewBox="0 0 1000 792" width="1000" height="792"><style>.a{display:none;fill:#fff}.b{fill:#05cdff}.c{fill:#c8e6eb}.d{fill:#49999d}.e{fill:#78e9e1}.f{opacity:.4;mix-blend-mode:overlay}.g{fill:#97f4ec}.h{fill:#54b5b7}.i{fill:#ffa50a}.j{fill:#fffad7}.k{fill:#50555a}.l{fill:#ff6473}.m{opacity:.4;fill:#fff}.n{opacity:.3;mix-blend-mode:overlay}.o{fill:#fab9af}.p{fill:#50374b}.q{fill:#fa870a}.r{fill:none;stroke:#373c41;stroke-miterlimit:10;stroke-width:2.9}.s{fill:#0073aa}.t{fill:#177d74}.u{fill:#1c9585}.v{fill:#fa968c}.w{fill:#004f82}.x{fill:#69280f}.y{fill:#ff9669}.z{fill:#fff}.A{fill:#cd5014}.B{fill:#f2d59b}.C{fill:#aa321e}.D{fill:#ff3c3c}.E{fill:#ffebb4}.F{fill:#3c82af}.G{fill:#41b4e6}.H{fill:#ffa0aa}.I{fill:#b9b9be}.J{fill:#ffe65a}.K{fill:#ffd23c}.L{fill:#82878c}.M{fill:#a0a0a5}.N{fill:none;stroke:#fff;stroke-miterlimit:10;stroke-width:3}.O{opacity:.3;fill:#fff5aa}.P{fill:#fa503c}.Q{fill:#ffdcd7}.R{fill:#ffc305}.S{fill:#c8462d}.T{fill:#373c41}.U{fill:#a5b7c6}</style><g style="display:none"><path class="a" d="m1000 940h-1000v-1000h1000z"/></g><path class="b" d="m844.7 723.6c65-73 104.5-169.3 104.5-274.7 0-228.5-185.2-413.7-413.6-413.7-228.5 0-413.7 185.2-413.7 413.7 0 105.4 39.5 201.7 104.5 274.7z"/><path class="c" d="m864.8 762.8h-808.3c-13.5 0-24.5-11-24.5-24.5h857.3c0 13.5-11 24.5-24.5 24.5z"/><path class="d" d="m953.3 665.4c-1-2.8-3.1-5.2-6-7-6.4-3.8-8.3-12.2-3.8-18.1q2.4-3.3 4.7-6.6c27.6-39.1 28.3-89.6 25.8-118-1-12.1-12.7-20.4-24.4-17.3-27.6 7.3-74.9 24.9-102.5 64q-0.3 0.4-0.6 0.9c-5 7-15.2 6.9-20.3 0-2.4-3.1-5.2-5.1-8.4-5.7-14.6-2.9-32.2 23.6-39.3 59.3-10.4 51.9 2.4 93.6 31.2 114 28.6 20.1 56.4-5.9 90.6-18.1 34.3-12.1 58-33.4 53-47.4z"/><path class="e" d="m867.9 684.6l-25.9 4.7q-9.5 1.7-19 3.4l7.7-11.2 10.3-14.5q2.4-3.5 4.9-7c7.8-2.6 15.3-5.3 22.8-8.4 7.8-3.1 15.4-6.5 23-10.2 7.6-3.6 15-7.5 22.2-11.7 7.3-4.2 14.3-8.7 21.2-13.5-7.5 3.8-14.8 7.7-22.4 11.1-7.5 3.6-15.1 7-22.8 10.2-7.6 3.2-15.3 6.4-23.1 9.3-5.1 1.9-10.2 3.7-15.4 5.5l5.1-7 5.2-7.2c6.9-9.7 14-19.2 21-28.8l21.2-28.6c6.9-9.6 14.2-19 21.3-28.6-16 17.6-31.3 35.9-46 54.6-7.4 9.3-14.6 18.7-21.8 28.2-3.4 4.6-6.8 9.3-10.2 13.9 0.6-5.7 1.8-11.5 3.3-17.2 2.2-8.6 5.1-17.1 8.2-25.6 1.5-4.2 3.2-8.4 4.9-12.6q2.5-6.3 5.1-12.5c3.5-8.3 7.3-16.5 11-24.8-4.9 7.7-9.3 15.6-13.5 23.6-4.2 8.1-8.1 16.3-11.7 24.7-3.5 8.4-6.6 17-9.2 25.8-1.2 4.4-2.3 8.9-3 13.5-0.7 4.3-1.1 8.7-0.9 13.1q-2.5 3.5-5 7-9.3 13.2-18.3 26.7c-1.3-6.5-2-13.3-2.6-20-0.8-8.6-1.1-17.3-1.3-26-0.2-8.7-0.4-17.5-0.4-26.2 0-8.7 0.1-17.5 0.1-26.3-1.2 8.7-2.1 17.4-2.8 26.2-0.7 8.7-1.1 17.5-1.3 26.3-0.2 8.8-0.1 17.6 0.4 26.4 0.6 8.7 1.4 17.4 3.6 26q-8.6 13.1-16.9 26.3c-4 6.5-7.9 13-11.7 19.6h4.1c3.8-5.8 7.6-11.5 11.3-17.2l10-14.8q3.9-5.8 8-11.6c8.1-1.5 16.3-3 24.4-4.7 8.6-1.8 17.2-3.5 25.8-5.6 8.6-2 17.1-4.2 25.6-6.6 8.4-2.6 16.9-5.1 24.8-9-8.3 2.8-16.9 4.5-25.5 6.3-8.6 1.8-17.2 3.4-25.8 5z"/><path class="f" d="m906.2 572.7c-5.7-4.7-13-6.7-21.1-6.4-10.5 0.3-18.8-9-17.9-19.5q0.3-3.5 0.5-7.2c-7.6 6.6-14.6 14.2-20.6 22.8q-0.3 0.4-0.6 0.9c-5 7-15.2 6.9-20.3 0-2.4-3.1-5.2-5.1-8.4-5.7-14.6-2.9-32.2 23.6-39.3 59.3-5 25-4.6 47.6 0.3 66.7 2.6 1 5.3 2.3 7.9 3.7q-1.8 4.6-3.5 9.2 1.4 3.5 3.1 6.7 0-0.1 0.1-0.3c1.2-2.8 2.3-5.7 3.4-8.6l1.6-4.2c4.8 3 9.2 6.3 12.5 9 20 16.1 59 0.9 87.2-34.1 28.3-34.9 35-76.2 15.1-92.3z"/><path class="g" d="m867.9 684.6l-25.9 4.7q-9.5 1.7-19 3.4l7.7-11.2 10.3-14.5q2.4-3.5 4.9-7c7.8-2.6 15.3-5.3 22.8-8.4 7.8-3.1 15.4-6.5 23-10.2 6.6-3.1 13.1-6.6 19.5-10.2q0.8-1.9 1.4-3.8c-7.4 3.5-15 6.9-22.7 10.1-7.6 3.2-15.3 6.4-23.1 9.3-5.1 1.9-10.2 3.7-15.4 5.5l5.1-7 5.2-7.2c6.9-9.7 14-19.2 21-28.8l21.2-28.6c1.4-2 3-4 4.4-6.1q-0.7-0.7-1.6-1.5-14.1 16.5-27.5 33.6c-7.4 9.3-14.6 18.7-21.8 28.2-3.4 4.6-6.8 9.3-10.2 13.9 0.6-5.7 1.8-11.5 3.3-17.2 2.2-8.6 5.1-17.1 8.2-25.6 1.5-4.2 3.2-8.4 4.9-12.6q2.5-6.3 5.1-12.5c2.4-5.6 4.9-11.3 7.5-16.9q-0.5-0.3-1-0.6c-3.1 5.4-6.1 10.8-9 16.3-4.2 8.1-8.1 16.3-11.7 24.7-3.5 8.4-6.6 17-9.2 25.8-1.2 4.4-2.3 8.9-3 13.5-0.7 4.3-1.1 8.7-0.9 13.1q-2.5 3.5-5 7-9.3 13.2-18.3 26.7c-1.3-6.5-2-13.3-2.6-20-0.8-8.6-1.1-17.3-1.3-26-0.2-8.7-0.4-17.5-0.4-26.2 0-8.7 0.1-17.5 0.1-26.3-1.2 8.7-2.1 17.4-2.8 26.2-0.7 8.7-1.1 17.5-1.3 26.3-0.2 8.8-0.1 17.6 0.4 26.4 0.6 8.7 1.4 17.4 3.6 26q-1.9 2.9-3.8 5.9 2.4 1 4.9 1.7 1.8-2.7 3.7-5.3c8.1-1.5 16.3-3 24.4-4.7 7.4-1.5 14.8-3.1 22.2-4.8q3.9-2.8 7.8-6.1-2.6 0.5-5.1 1z"/><path class="h" d="m884.9 499.9c-6.7-3-14.2-3-22-0.7-10 3.1-20.5-3.7-22.4-14-5-27.3-15.8-67.8-34.4-67.8-21 0-38.1 39.2-38.1 87.5q0 0.2 0 0.3c0.1 12.1-10 21.6-22 20.8-6-0.3-11.8 0.6-17.3 3.1-23.4 10.4-31.2 44-17.4 75 13.8 31 44 47.7 67.4 37.3 9.9-4.4 30 2.5 40.7 7.3 23.5 10.3 57.1-14.6 75.2-55.7 18.1-41.1 13.8-82.8-9.7-93.1z"/><path class="e" d="m788.2 742.8c1.1-4.3 2.1-8.6 3-13l3.7-18.1c0.7-3 1.2-6 1.7-9l1.5-9.1c2.3-12.2 3.7-24.4 5.4-36.6 0.9-6.1 1.3-12.3 2-18.4 0.6-6.1 1.3-12.3 1.7-18.4 2-24.6 2.8-49.2 2.6-73.9-0.2-24.6-1.4-49.3-4.6-73.7 1 24.6 0.8 49.2 0.2 73.7q-0.4 18.4-1.4 36.8l-1 18.3-1.4 18.4c-2 24.4-4.4 48.8-7.8 73.1-2.1 16.7-4.7 33.3-7.5 49.9z"/><path class="e" d="m741 561.5c9 11.6 18.8 22.5 29.5 32.4 5.3 5 11 9.5 16.7 13.8 5.8 4.3 12 7.9 18.4 11.3l-2.4-0.1c4-2 8.2-4.7 12.1-7.3 4-2.7 7.8-5.6 11.6-8.6 7.4-6.1 14.5-12.7 20.8-20 6.4-7.2 12.3-14.8 17.4-23.1 5.3-8.1 9.5-16.8 13.7-25.7-1.6 4.6-2.9 9.4-4.8 13.9-2 4.5-3.9 9.1-6.3 13.4-2.2 4.4-4.9 8.5-7.6 12.7-1.3 2.1-2.9 4-4.3 6-1.4 2.1-2.9 4.1-4.5 5.9-6.3 7.7-13.3 14.8-21 21.1-3.8 3.2-7.8 6.2-11.8 9-4.2 2.8-8.4 5.4-13 7.7l-1.2 0.6-1.2-0.6c-6.7-3.6-13-7.6-18.9-12.2-5.8-4.6-11.4-9.6-16.5-15-5.1-5.3-10-10.9-14.4-16.8-4.5-5.9-8.7-12-12.3-18.4z"/><path class="e" d="m775.6 526.9c3.6 4.7 6.9 9.6 10.2 14.6 3.2 5 6.3 10 9.2 15.3q4.3 7.7 8 16c2.4 5.5 4.6 11.1 6.1 17.1l-5.2-0.7c3-5.5 6.2-10.9 9.4-16.3 3.2-5.4 6.5-10.8 9.9-16q5.1-7.9 10.7-15.6c3.7-5 7.5-10.1 12.2-14.4-3.7 5.1-6.8 10.5-9.9 16l-9.2 16.3-18.2 32.7-3.6 6.3-1.6-7c-1.2-5.5-3.3-11-5.4-16.4-2.1-5.4-4.6-10.7-7.1-16.1-4.9-10.6-10.3-21.2-15.5-31.8z"/><path class="i" d="m795.7 260.9v428.2h-53.6v-428.2z"/><path class="j" d="m795.7 260.9l-26.8-62.2-26.8 62.2z"/><path class="k" d="m759 221.8h19.9l-10-23.1z"/><path class="k" d="m795.7 689.1v27.6h-53.6v-27.6z"/><path class="l" d="m795.7 716.7v14c0 6.7-5.4 12.1-12 12.1h-29.6c-6.6 0-12-5.4-12-12.1v-14z"/><path class="m" d="m753.3 235l-11.2 25.9v469.8c0 6.3 4.9 11.5 11.2 12z"/><path class="n" d="m777.3 742.8h6.4c6.6 0 12-5.4 12-12.1v-469.8l-16.8-39.1-1.6-3.7z"/><path class="o" d="m86 580.5c8.9-1.4 78.5-14.1 77.4-16.9-1-2.5-71.5-3.4-80.4-2-8.9 1.4-15.3 6.7-14.7 12 0.9 7.2 8.7 8.3 17.7 6.9z"/><path class="o" d="m149 561.9l17-0.2 9.7-3.1c0.6-0.3 1.3 0.2 1.3 0.9l0.1 6.8h-2.1l2.2 3.2c0 0 1.2 17.4 0.2 18-3.5 2.3-5.1-7.8-8.1-15.1-3-7.4-31-1.8-31-1.8z"/><path class="p" d="m168.1 561c1.3 2.4 2.2 5.3 2.2 8.7q0 2.3-0.4 4.3c2.6 7.1 4.2 15.7 7.5 13.5 1-0.6-0.2-18-0.2-18l-2.2-3.2h2.1l-0.1-6.8c0-0.7-0.7-1.2-1.3-0.9z"/><path fill-rule="evenodd" class="i" d="m259.8 739.7h-189.7c-29.3 0-53-23.7-53-53v-28.5h161.1v-260.7h81.6zm-52.6-311.9c0 12.7 19.8 12.7 19.8 0 0-12.8-19.8-12.8-19.8 0z"/><path class="q" d="m259.8 397.5v342.2h-21.9v-342.2z"/><path class="d" d="m17.1 658.2v28.5c0 29.3 23.7 53 53 53h189.7l-81.6-81.5z"/><path class="r" d="m259.8 693.3h-28.5"/><path class="r" d="m259.8 657.5h-28.5"/><path class="r" d="m259.8 621.8h-28.5"/><path class="r" d="m259.8 586h-28.5"/><path class="r" d="m259.8 550.2h-28.5"/><path class="r" d="m259.8 514.5h-28.5"/><path class="r" d="m259.8 478.7h-28.5"/><path class="r" d="m259.8 443h-28.5"/><path class="o" d="m63.2 379c-7.2 8.7-34.9 52.2-29.2 57 5.7 4.7 42.7-31.1 49.9-39.8 7.2-8.6 8.4-19.5 2.7-24.3-5.7-4.7-16.2-1.5-23.4 7.1z"/><path class="s" d="m66.6 413.6c7.8-7.2 14.6-14.2 17.3-17.4 7.2-8.6 8.4-19.5 2.7-24.3-5.7-4.7-16.2-1.5-23.4 7.1-2.7 3.3-8.5 11.8-14.3 21.3 4.4 10 17.7 13.3 17.7 13.3z"/><path class="t" d="m145.6 560c-21.7-1-56.5 0.6-62.6 1.6-8.9 1.4-15.3 6.7-14.7 12 0.9 7.2 8.7 8.3 17.7 6.9 5.9-0.9 38.7-4.8 59.6-9.5z"/><path class="t" d="m68.1 491.1c-1.8 13-5.6 86.3 3.5 87.5 9.1 1.3 28.8-79.5 30.6-92.5 1.7-12.9-4.2-24.4-13.3-25.7-9.1-1.2-19 17.8-20.8 30.7z"/><path class="o" d="m103.7 566.4c1.2 9 12.8 78.8 15.7 77.6 2.5-0.9 4.5-71.3 3.2-80.3-1.2-8.9-6.5-15.6-11.7-14.9-5.2 0.8-8.5 8.6-7.2 17.6z"/><path class="u" d="m96.6 483.2c-0.3 13.1 4.2 95.9 13.3 96.1 9.2 0.2 19.7-72.7 19.9-85.8 0.3-13.1-6.9-33.4-16-33.6-9.2-0.2-16.9 10.2-17.2 23.3z"/><path class="o" d="m121.3 629.7v17.1l2.9 9.6c0.2 0.7-0.3 1.4-1 1.4h-6.7v-2.2l-3.3 2.2c0 0-17.4 0.9-18 0-2.2-3.7 7.9-5.1 15.3-7.9 7.4-2.9 2.3-31.1 2.3-31.1z"/><path class="p" d="m122 649.1c-2.4 1.1-5.1 1.8-8.3 1.8q-2.5 0-4.6-0.5c-7.2 2.5-16 4-13.9 7.4 0.6 0.9 18 0 18 0l3.3-2.2v2.2h6.7c0.7 0 1.2-0.7 1-1.4z"/><path class="v" d="m130.4 378.8l-48-8.8c-9.5-1.8-18 6.3-16.7 15.9l11.6 85.1c1.4 10.1 9.6 17.9 19.8 18.8 10.7 0.9 20.4-6.1 23-16.4l20.1-79.2c1.8-7-2.7-14.1-9.8-15.4z"/><path class="w" d="m130.4 378.8l-14.7-2.7c0.4 5.7-3.1 11.8-10.5 11.4-8.5-0.4-11.1-8.9-8.5-14.9l-14.3-2.6c-9.5-1.8-18 6.3-16.7 15.9l4.5 96.6c0 0 16.7 6.9 26.9 7.3 24.5 0.9 31.2-9.1 31.2-9.1l11.9-86.5c1.8-7-2.7-14.1-9.8-15.4z"/><path class="x" d="m87.4 344.4c1.8 17.5 16.7 23.1 26.5 22.1 9.8-1.1 7.7-18.6 7-26.1-0.8-7.6-9.1-10.8-18.9-9.8-9.8 1-15.4 6.2-14.6 13.8z"/><path class="v" d="m98.6 374.2l17.1 1.9 1.3-30.6-11.3 7.4z"/><path class="o" d="m127.4 419c6 19.9 19.2 33.6 24 32.1 5.1-1.5 4.5-20.2-0.9-39.6-5.6-20.1-13.6-34.8-20.9-32.6-7.2 2.2-8.3 20.1-2.2 40.1z"/><path class="s" d="m150.5 411.5c-5.6-20.1-13.6-34.8-20.9-32.6-6.9 2-8.1 18.3-3.1 37 0 0 18 1.8 24-4.4z"/><path class="o" d="m139.9 460.2c-1.2 8.3-4.1 46.2 0.6 46.9 4.7 0.6 14.2-37 15-45.3 1.4-15.4 0-26.7-4.7-27.4-4.7-0.7-9.7 17.5-10.9 25.8z"/><path class="o" d="m89.9 354.7c1.3 12.6 4.4 18.6 10.9 17.9 7.9-0.8 17-10.5 15.9-20.9-1.1-10.4-6.3-16-14.2-15.2-7.9 0.9-13.6 7.8-12.6 18.2z"/><path class="y" d="m116 347.6l-20 2.1c-2.1 0.2-4.1-0.3-5.9-1.2 1.3-6.9 6.2-11.3 12.4-12 6.8-0.7 11.6 3.4 13.5 11.1z"/><path class="x" d="m95.8 347.7l23-2.3-0.4-4.6c-0.6-5.5-5.5-9.5-11-8.9l-23.1 2.4 0.5 4.5c0.6 5.5 5.5 9.5 11 8.9z"/><path class="x" d="m113.1 353.9l-1.2-11.5-5 0.6 0.6 6.4c0.3 2.8 2.8 4.8 5.6 4.5z"/><path class="o" d="m110.9 351.9c0.4 3.4 1.7 6.1 4.5 5.8 2.8-0.3 4.2-5.2 3.8-8.6-0.3-3.5-2.2-4.1-5-3.9-2.8 0.3-3.6 3.2-3.3 6.7z"/><path class="z" d="m108.2 453.5l-25-2.8c-1.7-0.2-2.9-1.6-2.9-3.3l-0.2-35.4c0-2 1.7-3.6 3.7-3.4l24.9 2.8c1.7 0.2 3 1.6 3 3.3l0.1 35.5c0.1 1.9-1.7 3.5-3.6 3.3z"/><path class="o" d="m134.7 510.5c0 0 1.5-7.9 4-8.2 2.6-0.4 4.4-0.2 5 3.5 0.7 3.7-0.2 9.1-1.4 12.2-1.1 3.1-5.3 7.5-6 7.7-2.8 0.6-0.1-4.8 1.1-7.5 1.2-2.7 2.2-5.8 0.8-6-1.5-0.2-3.4 5.1-5.1 5.4-1.7 0.3 1.6-7.1 1.6-7.1z"/><path class="o" d="m45.4 444.9c7.9 2.3 47.7 11.9 48.9 7.5 0.2-0.4-0.2-3.8-1.1-4-9.6-2.2-36.2-17.1-43.3-19.1-7.9-2.3-15.3-0.6-16.5 3.7-1.2 4.3 4.2 9.7 12 11.9z"/><path class="o" d="m100.3 447c0 0-7.9-0.1-8.8 2.4-0.8 2.4-0.9 4.2 2.6 5.5 3.5 1.4 8.9 1.6 12.2 1 3.3-0.5 8.4-3.7 8.7-4.5 1.2-2.5-4.7-0.9-7.6-0.3-2.8 0.7-6.1 1.1-6-0.4 0-1.4 5.6-2.3 6.3-3.9 0.6-1.6-7.4 0.2-7.4 0.2z"/><path class="u" d="m112.1 627.4h10.9c1.3-21.7 0.5-57.6-0.4-63.7-1.2-8.9-6.5-15.6-11.7-14.9-5.2 0.8-8.5 8.6-7.2 17.6 0.8 6 4.1 40 8.4 61z"/><path class="A" d="m732.8 630.1v110.5h-476.2v-110.5z"/><path class="B" d="m347.7 630.1v110.5h-36.2v-110.5z"/><path class="B" d="m382.2 630.1v110.5h-17.7v-110.5z"/><path class="C" d="m639.9 630.1v110.5h-36.2v-110.5z"/><path class="C" d="m674.4 630.1v110.5h-17.8v-110.5z"/><path class="n" d="m732.8 706v34.6h-476.2v-34.6z"/><path class="z" d="m742.1 611.4c0 10.4-8.4 18.7-18.7 18.7h-407.8c-10.3 0-18.7-8.3-18.7-18.7v-76.5c0-10.3 8.4-18.6 18.7-18.6h407.8c10.3 0 18.7 8.3 18.7 18.6z"/><path class="c" d="m742.1 549.1v-14.2c0-10.3-8.4-18.6-18.7-18.6h-407.8c-10.3 0-18.7 8.3-18.7 18.6v14.2z"/><path class="p" d="m742.1 535.9v-1c0-10.3-8.4-18.6-18.7-18.6h-407.8c-10.3 0-18.7 8.3-18.7 18.6v1z"/><path class="p" d="m296.9 610.5v0.9c0 10.4 8.4 18.7 18.7 18.7h407.8c10.3 0 18.7-8.3 18.7-18.7v-0.9z"/><path class="c" d="m650.6 564v9.2h-55.8v-9.2z"/><path class="D" d="m681.7 598.8l-19.9-6.9-19.8 6.9v-34.8h39.7z"/><path class="j" d="m785.7 450.8c0 7.9-6.4 14.3-14.2 14.3h-442.1c-7.9 0-14.3-6.4-14.3-14.3v-58.3c0-7.9 6.4-14.3 14.3-14.3h442.1c7.8 0 14.2 6.4 14.2 14.3z"/><path class="E" d="m785.7 403.3v-10.8c0-7.9-6.4-14.3-14.2-14.3h-442.1c-7.9 0-14.3 6.4-14.3 14.3v10.8z"/><path class="i" d="m785.7 393.2v-0.7c0-7.9-6.4-14.3-14.2-14.3h-442.1c-7.9 0-14.3 6.4-14.3 14.3v0.7z"/><path class="i" d="m315.1 450.1v0.7c0 7.9 6.4 14.3 14.3 14.3h442.1c7.8 0 14.2-6.4 14.2-14.3v-0.7z"/><path class="F" d="m703.5 465.1v51.2h-454.4v-51.2z"/><path class="G" d="m329.1 465.1v51.2h-29.4v-51.2z"/><path class="G" d="m354.9 465.1v51.2h-11.5v-51.2z"/><path class="n" d="m703.5 500.2v16.1h-454.4v-16.1z"/><path class="l" d="m622.7 316.1v62.1h-356.8v-62.1z"/><path class="H" d="m572.1 316.1v62.1h-29.4v-62.1z"/><path class="H" d="m528.4 316.1v62.1h-11.5v-62.1z"/><path class="n" d="m622.7 358.7v19.5h-356.8v-19.5z"/><path class="I" d="m548.6 269.4c-6.3 0-11.4-5.1-11.4-11.4 0-6.3 5.1-11.4 11.4-11.4 6.3 0 11.4 5.1 11.4 11.4 0 6.3-5.1 11.4-11.4 11.4z"/><path class="J" d="m570.9 218.6c5.1 0 9.2-3.8 10-8.7 1.7-10.5 6.2-20.4 13.5-28.3 10-11 16.2-25.7 16.2-41.8 0-35.7-30.2-64.3-66.4-61.8-30.7 2.1-55.5 27.1-57.4 57.8-1.1 17.3 4.9 33.2 15.4 45 7.4 8.4 12.3 18.6 14.1 29.5 0.8 4.8 5.1 8.3 9.9 8.3z"/><path class="K" d="m592 95.6c4.1 8.7 6.5 18.3 6.9 28.3 1.7 36.9-32.6 68.4-68.3 68.4-8.1 0-15.7-1.4-22.8-4 4.3 6.7 7.2 14.2 8.5 22 0.8 4.8 5.1 8.3 9.9 8.3h44.7c5.1 0 9.2-3.8 10-8.7 1.7-10.5 6.2-20.4 13.5-28.3 10-11 16.2-25.7 16.2-41.8 0-17.3-7.1-32.9-18.6-44.2z"/><path class="L" d="m558.1 258.6h-19c-8.1 0-14.7-6.6-14.7-14.8v-25.2h48.4v25.2c0 8.2-6.6 14.8-14.7 14.8z"/><path class="I" d="m572.8 233.6h-48.4c-2.7 0-4.9-2.1-4.9-4.8 0-2.7 2.2-4.9 4.9-4.9h48.4c2.7 0 4.9 2.2 4.9 4.9 0 2.7-2.2 4.8-4.9 4.8z"/><path class="I" d="m572.8 249.2h-48.4c-2.7 0-4.9-2.2-4.9-4.8 0-2.7 2.2-4.9 4.9-4.9h48.4c2.7 0 4.9 2.2 4.9 4.9 0 2.6-2.2 4.8-4.9 4.8z"/><path class="M" d="m572.8 223.9h-40.1v9.7h40.1c2.7 0 4.9-2.1 4.9-4.8 0-2.7-2.2-4.9-4.9-4.9z"/><path class="M" d="m572.8 239.5h-40.1v9.7h40.1c2.7 0 4.9-2.2 4.9-4.8 0-2.7-2.2-4.9-4.9-4.9z"/><path class="N" d="m540 163.8h-11.8c-6.6 0-11.9-5.3-11.9-11.8 0-6.6 5.3-11.9 11.9-11.9 6.5 0 11.8 5.3 11.8 11.9z"/><path class="N" d="m557.2 163.8h11.8c6.6 0 11.9-5.3 11.9-11.8 0-6.6-5.3-11.9-11.9-11.9-6.5 0-11.8 5.3-11.8 11.9z"/><path class="N" d="m540 163.8v54.9"/><path class="N" d="m557.2 163.8v54.9"/><path class="O" d="m538.8 134.5c-6.9 11.9-21.1 16.5-31.7 10.4-10.6-6.2-13.7-20.8-6.8-32.6 6.8-11.9 21-16.6 31.6-10.4 10.7 6.1 13.7 20.7 6.9 32.6z"/><path class="P" d="m350.1 229.5c4.7-2 27.6-10.8 40.3-14-0.3 2.3-0.3 4.6 0.2 6.9-11.4 7.5-30.6 17.9-34.9 19.8-6.4 2.8-12.8 2.2-14.3-1.3-1.5-3.5 2.4-8.6 8.7-11.4z"/><path class="P" d="m327.7 209.1c8.1 5.6 39.5 32.8 36.2 37.5-3.2 4.7-39.8-14.8-47.9-20.3-8.1-5.6-12.1-14-8.8-18.7 3.2-4.7 12.4-4 20.5 1.5z"/><path class="Q" d="m361.4 226.8c-1.8 2.8-4.4 4.8-5.2 4.3-0.8-0.6 0.3-4.5 2.2-7.4 1.9-2.8 4.2-5.1 5-4.5 0.8 0.5-0.1 4.8-2 7.6z"/><path class="z" d="m352.6 253.3l32.3-6.6 15.8-47.6-32.2 6.6z"/><path class="Q" d="m336.1 267.1c12.1-1 54.4-4.7 55.4 7.5 0.9 12.2-43.6 36.2-60.7 37.5-23.2 1.8-32.4-16.3-33.3-28.5-1-12.3 26.4-15.5 38.6-16.5z"/><path class="R" d="m260.4 202.6c4.4-7.1 21.1-13.3 21.1-13.3l7.7-22.8c1.4-2.9 4.3-4.7 7.5-4.7h1.3c4.2 0 8.5-1.2 11.7-4.1 2-1.8 4.9-2.7 8-1.9 3.2 0.7 5.7 3.2 6.5 6.4 1.4 5.9-3 11.1-8.7 11.1-0.9 0-1.7-0.2-2.5-0.4v3.5h-19.8c5.3 1.9 9.5 6.6 10.6 12.3 1.5 7.8-2.4 14.7-8.6 18 1.7 3.8 2.4 8.2 1.3 12.9-1.8 8.4-9.1 14.8-17.6 15.7-12.3 1.4-22.7-8.2-22.7-20.2 0-4.7 2-8.8 4.2-12.5z"/><path class="o" d="m305.3 208.7l-17.2-1.8 8.9-17.6 8.3 1.7z"/><path class="S" d="m276.9 204.5h38.7c6.6 0 10.7 14.4 10.7 14.4l6.4 18.8c2.1 6.3-2.6 12.9-9.2 12.9h-0.4l5.2 18.8c2.1 7.2-2.9 14.6-10.4 15.5l-25.1 2.8-5.7-18.3-18.3-53.6c-1.9-5.5 2.2-11.3 8.1-11.3z"/><path class="P" d="m291.8 215.4c5.9 8.9 26.5 48.8 21.3 52.2-5.2 3.5-34.1-30.9-40-39.7-5.9-8.9-6.5-18.8-1.3-22.3 5.2-3.4 14.1 1 20 9.8z"/><path class="o" d="m397.4 318.8c-5.4 9.1-39.9 71-42.6 68.5-0.6-0.6 0.5-6 2.4-13.9 5.2-21.1 16.9-59.5 20.9-66.1 5.4-9.2 14.1-14 19.5-10.8 5.3 3.1 5.2 13.1-0.2 22.3z"/><path class="Q" d="m314.9 252.8c5.8-3.9 44.3-26.7 46.5-23.5 2.1 3.2-33.1 31.2-38.8 35.1-5.8 3.8-12.2 4.3-14.3 1.1-2.2-3.1 0.8-8.9 6.6-12.7z"/><path class="P" d="m314.9 252.8c3.8-2.5 21.4-13.8 33.6-19.8 0.2 2.6 2.3 8.1 3.6 10.3-10 9.2-25.9 18.6-29.5 21.1-5.8 3.8-12.2 4.3-14.3 1.1-2.2-3.1 0.8-8.9 6.6-12.7z"/><path class="o" d="m357.2 373.4c0 0-4.4 9.4-6.9 11.3-2.5 1.9-5.4 6.1-2.2 9 2.4 2.2 5 4.7 7 6.3 1.8 1.3 4 2 6.3 1.9 3.9-0.2 9.9-0.6 10.9-0.8 1.5-0.3-0.9-3.8-6.6-4.1-5.7-0.3-9.1-9.8-4.4-17.2z"/><path class="R" d="m315.2 182.5c-4.9 0-8.9-4-8.9-8.9 0-4.9 4-8.9 8.9-8.9 4.9 0 8.9 4 8.9 8.9 0 4.9-4 8.9-8.9 8.9z"/><path class="o" d="m340.1 280.1c14.1 2.5 63.1 10.9 61 23-2.2 12-59.2 22.5-79.1 18.9-26.7-4.8-32.3-24.9-30.2-37 2.2-12.1 34.2-7.4 48.3-4.9z"/><path class="T" d="m291.8 285c0.6-3.2 6.4-7.9 6.4-7.9 0 0 9.2-6.4 37.9-10 8.2-1 31.4-3 46.5 0.6-11.4 3.9-21.4 30.6-22 44.2q-0.1 4 0.3 7.9c-14.9 2.7-30.3 3.8-38.9 2.2-26.7-4.8-32.3-24.9-30.2-37z"/><path class="Q" d="m395.6 284.5c0.4 9.8 1.9 86.3-1.5 85.8-3-0.4-19.5-74.2-20-84-0.4-9.8 4-18.1 9.9-18.6 6-0.5 11.1 7 11.6 16.8z"/><path class="R" d="m315.7 174.8c0 14.7-12.2 18-20.4 18-8.3 0-7.7-12.2-7.7-18.5 0-6.3 6.6-9.6 14.8-9.6 8.2 0 13.3 3.8 13.3 10.1z"/><path class="Q" d="m315.3 179.4c0 8.7-2.9 22.6-9.5 22.6-6.6 0-13.8-9.9-13.8-18.6 0-8.7 3.9-13.8 10.5-13.8 6.6 0 12.8 1.1 12.8 9.8z"/><path class="o" d="m292.3 179.9h16.7c1.8 0 4.8-1.2 6.2-2.1 0-6.2-3.1-9.3-12.7-8.2-5.7 0.7-9.3 3.8-10.2 10.3z"/><path class="R" d="m309 178.3h-19.3v-3.8c0-4.6 3.8-8.3 8.3-8.3h19.4v3.8c0 4.6-3.8 8.3-8.4 8.3z"/><path class="R" d="m295.3 184.9v-9.6h4.1v5.4c0 2.3-1.8 4.2-4.1 4.2z"/><path class="Q" d="m296.8 183c0 2.9-0.9 5.2-3.2 5.2-2.3 0-3.3-3.3-3.3-6.2 0-2.9 1-4.2 3.3-4.2 2.3 0 3.2 2.3 3.2 5.2z"/><path class="Q" d="m395.4 350.9c0 0 2.1 12.1 4.3 16.7 2.2 4.6 15.5 18.2 9.3 19.3 0 0-15.2-8.4-18.6-11.6-4.3-3.9 1.3-9.4-0.9-19.4z"/><path class="S" d="m350.3 384.7q0.2-0.2 0.5-0.5c1.6 5.7 5.7 10.5 12.3 11.9 0.8 0.5 1.7 0.8 2.6 0.9 5.7 0.3 8.1 3.8 6.6 4.1-1 0.2-7 0.6-10.9 0.8-2.3 0.1-4.5-0.6-6.3-1.9-2-1.6-4.6-4.1-7-6.3-3.2-2.9-0.3-7.1 2.2-9z"/><path class="S" d="m405.3 375.5c3.8 5.2 7.5 10.7 3.7 11.4 0 0-15.2-8.4-18.6-11.6-2.9-2.6-1.4-5.9-0.7-10.7 2.2 6 7.4 10.7 15.6 10.9z"/><path class="Q" d="m396.8 223.4c-1.4 3.8-4.7 6.4-6 5.9-1.2-0.5-1.2-3.9 0.2-7.7 1.4-3.9 3.5-6.6 4.8-6.1 1.3 0.5 2.4 4.1 1 7.9z"/><path class="Q" d="m367.5 227.5c-1.3 3.8-6.5 7.2-9.4 6.8-1.4-0.1 0.6-4.1 2-7.9 1.4-3.8 4.6-6.1 5.9-5.6 1.3 0.5 2.9 2.9 1.5 6.7z"/><g style="display:none"><path class="U" d="m520.2 890.4q-1.3 1.3-2.2 2.9l-0.9-0.5c-0.2-0.6-0.7-1-1.4-0.9-0.6 0.1-1.1 0.7-1 1.3 0.1 0.7 0.7 1.2 1.3 1.1q0.2 0 0.4-0.1l0.9 0.5q-0.8 1.6-1.1 3.5l1.5 0.2c0.5-2.6 1.7-5 3.6-6.9z"/><path class="U" d="m531.2 885.8q-0.5 0-1 0l-0.2-1.2c0.4-0.3 0.6-0.8 0.5-1.3 0-0.8-0.8-1.3-1.5-1.3-0.8 0.1-1.4 0.9-1.3 1.6 0.1 0.5 0.4 1 0.8 1.2l0.2 1.2q-2.2 0.4-4.2 1.3l0.7 1.4q2.8-1.4 6-1.4 1.5 0 2.9 0.3l0.4-1.4q-1.7-0.4-3.3-0.4z"/><path class="U" d="m544.4 890.9c0.6-0.1 1.1-0.7 1-1.3 0-0.7-0.6-1.2-1.3-1.1-0.6 0.1-1.1 0.6-1.1 1.2l-0.8 0.8q-1.3-1.3-2.8-2.3l-0.8 1.3c2.2 1.4 4 3.4 5.1 5.8l1.4-0.6q-0.8-1.7-1.9-3.1l0.8-0.7q0.2 0 0.4 0z"/><path class="U" d="m530.1 906.2q-1.2 0.1-2.3 0.1c-1.8 0-3.5-0.1-5-0.4-0.8-0.1-1.7-0.3-2.5-0.5 2.1 3.7 6.1 6.2 10.8 6.2 5.7 0 10.5-3.8 11.9-9q-2.1 1.3-5 2.2c-2.3 0.8-5.1 1.3-7.9 1.4z"/><path fill-rule="evenodd" class="U" d="m543.2 899.2q0.1 0.6 0.1 1.2c-2.7 2.4-7.5 4-13.3 4.3-5.3 0.3-9.4-0.5-10.7-1.4q-0.3-1.3-0.3-2.6c0-6.5 5.5-11.9 12.2-11.9 6.1 0 11.3 4.5 12 10.4zm-12.6-1c0-2.1-1.7-3.7-3.7-3.7-2.1 0-3.7 1.6-3.7 3.7 0 2 1.6 3.7 3.7 3.7 2 0 3.7-1.7 3.7-3.7zm8.5-0.9c0-1.5-1.3-2.7-2.8-2.7-1.5 0-2.7 1.2-2.7 2.7 0 1.5 1.2 2.8 2.7 2.8 1.5 0 2.8-1.3 2.8-2.8z"/><path class="U" d="m563.2 892.6c-0.6-0.3-1.6-0.6-2.8-0.5-1.1 0.1-1.7 0.7-1.7 2v1.7h4.5v3.5h-4.5v10.9h-3.8v-10.9h-2.7v-3.5h2.7v-1.7c0-3.4 1.8-5.6 5.1-5.6 1.3 0 2.3 0.2 3.2 0.6z"/><path class="U" d="m572.6 899.2q-0.5 0-1.1-0.1c-1.7 0-3 1.1-3 3.3v7.8h-3.8v-14.4h3.7v1.6c0.9-1.3 2.3-1.9 4-1.9 0.9 0 1.7 0.2 2.2 0.6z"/><path fill-rule="evenodd" class="U" d="m587.9 903c0 0.4 0 1 0 1.3h-10.2c0.4 2.1 1.9 3 3.7 3 1.2 0 2.6-0.5 3.6-1.4l2.3 2.5c-1.7 1.5-3.7 2.2-6.1 2.2-4.4 0-7.5-3-7.5-7.5 0-4.6 3-7.6 7.3-7.6 4.1 0 6.9 3 6.9 7.5zm-10.2-1.3h6.4c-0.4-1.9-1.5-2.9-3.2-2.9-1.8 0-2.9 1.1-3.2 2.9z"/><path fill-rule="evenodd" class="U" d="m603.2 903c0 0.4 0 1 0 1.3h-10.2c0.4 2.1 1.9 3 3.7 3 1.2 0 2.6-0.5 3.6-1.4l2.3 2.5c-1.7 1.5-3.7 2.2-6.1 2.2-4.4 0-7.5-3-7.5-7.5 0-4.6 3-7.6 7.3-7.6 4.1 0 6.9 3 6.9 7.5zm-10.2-1.3h6.4c-0.4-1.9-1.5-2.9-3.2-2.9-1.8 0-2.9 1.1-3.2 2.9z"/><path fill-rule="evenodd" class="U" d="m619.9 903c0 4.3-3 7.6-6.9 7.6-1.9 0-3.3-0.8-4.2-1.9v7.4h-3.9v-20.3h3.8v1.6c0.9-1.1 2.3-1.9 4.3-1.9 3.9 0 6.9 3.2 6.9 7.5zm-11.3 0c0 2.3 1.5 4 3.7 4 2.2 0 3.7-1.8 3.7-4 0-2.2-1.5-3.9-3.7-3.9-2.2 0-3.7 1.6-3.7 3.9z"/><path class="U" d="m626.1 891.2c0 1.3-1 2.4-2.4 2.4-1.4 0-2.5-1.1-2.5-2.4 0-1.4 1.1-2.5 2.5-2.5 1.4 0 2.4 1.1 2.4 2.5zm-0.5 19h-3.8v-14.4h3.8z"/><path class="U" d="m632.1 901l5.4-5.2h4.7l-7 6.8 7 7.6h-4.7l-5.4-5.8v5.8h-3.9v-21.3h3.9z"/><path fill-rule="evenodd" class="U" d="m368.8 910.1v-2.1c-1 1.4-2.8 2.4-4.8 2.4-3.6 0-6.2-2.8-6.2-7.4 0-4.5 2.5-7.4 6.2-7.4 2 0 3.7 0.9 4.8 2.5v-7.6h2.2v19.6zm0-3.9v-6.4c-0.8-1.2-2.5-2.3-4.2-2.3-2.9 0-4.6 2.4-4.6 5.5 0 3.1 1.7 5.5 4.6 5.5 1.7 0 3.4-1 4.2-2.3z"/><path fill-rule="evenodd" class="U" d="m373.9 903c0-4.1 2.9-7.4 6.9-7.4 4.3 0 6.8 3.3 6.8 7.5v0.6h-11.4c0.2 2.7 2 4.9 5.1 4.9 1.6 0 3.2-0.6 4.3-1.8l1.1 1.4c-1.4 1.5-3.3 2.2-5.6 2.2-4.2 0-7.2-3-7.2-7.4zm6.9-5.6c-3 0-4.5 2.5-4.6 4.7h9.3c-0.1-2.1-1.5-4.7-4.7-4.7z"/><path class="U" d="m389.2 908.2l1.2-1.6c0.9 1.1 2.7 2 4.6 2 2.2 0 3.4-1 3.4-2.4 0-3.4-8.8-1.3-8.8-6.6 0-2.2 1.9-4 5.3-4 2.4 0 4.1 0.9 5.2 2l-1 1.5c-0.9-1-2.4-1.8-4.2-1.8-2 0-3.2 1-3.2 2.3 0 3.1 8.8 1 8.8 6.5 0 2.4-1.9 4.3-5.6 4.3-2.3 0-4.3-0.7-5.7-2.2z"/><path class="U" d="m403 892.4c0-0.8 0.6-1.5 1.4-1.5 0.8 0 1.5 0.7 1.5 1.5 0 0.8-0.7 1.5-1.5 1.5-0.8 0-1.4-0.7-1.4-1.5zm0.3 17.7v-14.2h2.2v14.2z"/><path fill-rule="evenodd" class="U" d="m409.2 913.7l1.1-1.6c1.1 1.4 2.6 1.9 4.6 1.9 2.3 0 4.5-1.2 4.5-4.3v-2c-1 1.5-2.7 2.5-4.7 2.5-3.7 0-6.3-2.7-6.3-7.3 0-4.5 2.6-7.3 6.3-7.3 1.9 0 3.6 0.9 4.7 2.5v-2.2h2.2v13.8c0 4.6-3.3 6.1-6.7 6.1-2.4 0-4.1-0.5-5.7-2.1zm10.2-7.7v-6.2c-0.7-1.2-2.4-2.3-4.2-2.3-2.8 0-4.5 2.3-4.5 5.4 0 3.1 1.7 5.4 4.5 5.4 1.8 0 3.5-1.1 4.2-2.3z"/><path class="U" d="m434.8 910.1v-9.3c0-2.5-1.2-3.3-3.1-3.3-1.8 0-3.4 1.1-4.2 2.2v10.4h-2.2v-14.2h2.2v2.1c1-1.2 2.9-2.4 5-2.4 3 0 4.5 1.5 4.5 4.5v10z"/><path fill-rule="evenodd" class="U" d="m439.9 903c0-4.1 2.9-7.4 6.9-7.4 4.3 0 6.8 3.3 6.8 7.5v0.6h-11.4c0.2 2.7 2 4.9 5.1 4.9 1.6 0 3.2-0.6 4.3-1.8l1.1 1.4c-1.4 1.5-3.3 2.2-5.6 2.2-4.2 0-7.2-3-7.2-7.4zm6.9-5.6c-3 0-4.5 2.5-4.6 4.7h9.3c-0.1-2.1-1.5-4.7-4.7-4.7z"/><path fill-rule="evenodd" class="U" d="m466.7 910.1v-2.1c-1.1 1.4-2.8 2.4-4.8 2.4-3.7 0-6.3-2.8-6.3-7.4 0-4.5 2.6-7.4 6.3-7.4 1.9 0 3.7 0.9 4.8 2.5v-7.6h2.2v19.6zm0-3.9v-6.4c-0.8-1.2-2.5-2.3-4.3-2.3-2.8 0-4.5 2.4-4.5 5.5 0 3.1 1.7 5.5 4.5 5.5 1.8 0 3.5-1 4.3-2.3z"/><path fill-rule="evenodd" class="U" d="m479.4 910.1v-19.6h2.2v7.6c1.1-1.6 2.8-2.5 4.8-2.5 3.6 0 6.3 2.9 6.3 7.4 0 4.6-2.7 7.4-6.3 7.4-2 0-3.8-1-4.8-2.4v2.1zm6.4-1.6c2.9 0 4.6-2.4 4.6-5.5 0-3.1-1.7-5.5-4.6-5.5-1.7 0-3.5 1.1-4.2 2.3v6.4c0.7 1.3 2.5 2.3 4.2 2.3z"/><path class="U" d="m495.1 913.6c0.3 0.2 0.8 0.2 1.2 0.2 0.9 0 1.6-0.3 2.1-1.5l0.9-2.1-5.9-14.3h2.4l4.7 11.6 4.7-11.6h2.4l-7.1 17c-0.9 2.1-2.3 2.9-4.2 2.9-0.5 0-1.2-0.1-1.6-0.2z"/></g></svg>