<svg width="50" height="50" viewBox="0 0 50 50" fill="none" xmlns="http://www.w3.org/2000/svg">
<path d="M45.0774 13.9657H42.7829V15.4057H45.0774C45.4653 15.4057 45.6115 15.8254 45.6115 16.2133V35.2102C45.6115 37.1499 44.2027 38.6 42.2631 38.6H28.1912C27.0273 38.6 25.9143 39.675 25.9143 40.8389V41.0685H23.0857V40.8389C23.0857 39.675 22.3192 38.6 21.1553 38.6H7.08346C5.14378 38.6 3.38857 37.1499 3.38857 35.2102V16.2133C3.38857 15.8254 3.88126 15.4057 4.26913 15.4057H6.21714V13.9657H4.26913C3.1052 13.9657 2 15.0493 2 16.2133V35.2102C2 37.926 4.36772 39.9885 7.08346 39.9885H21.1553C21.5432 39.9885 21.6971 40.451 21.6971 40.8389V41.1907C21.6971 41.9667 22.49 42.457 23.2661 42.457H26.0805C26.8565 42.457 27.3029 41.9667 27.3029 41.1907V40.8389C27.3029 40.451 27.8034 39.9885 28.1912 39.9885H42.263C44.9788 39.9885 47 37.9259 47 35.2102V16.2133C47 15.0493 46.2413 13.9657 45.0774 13.9657Z" fill="#FF9103"/>
<path d="M12.5428 13.9657H20.9771V15.4057H12.5428V13.9657ZM12.5428 17.1542H20.9771V18.5428H12.5428V17.1542ZM12.5428 20.2914H20.9771V21.7314H12.5428V20.2914ZM28.0228 13.9657H36.4571V15.4057H28.0228V13.9657ZM28.0228 17.1542H36.4571V18.5428H28.0228V17.1542ZM28.0228 20.2914H36.4571V21.7314H28.0228V20.2914Z" fill="#FF9103"/>
<path d="M41.2077 11.1886H40.3144V10.9364C40.3144 9.38456 39.2416 8 37.6898 8H29.2466C27.2913 8 25.5849 9.07136 24.6733 10.6555C23.7617 9.07136 22.0553 8 20.1 8H11.6569C10.1051 8 8.68579 9.38451 8.68579 10.9364V11.1886H8.13895C6.78124 11.1886 5.49722 12.5507 5.49722 14.1025V33.0995C5.49722 35.0391 7.17565 36.4914 9.01843 36.4914H21.859C23.0229 36.4914 23.9697 37.52 23.9697 38.6H25.3769C25.3769 37.52 26.3237 36.4914 27.4877 36.4914H40.3283C42.171 36.4914 43.503 35.0391 43.503 33.0995V14.1025C43.5029 12.5507 42.5653 11.1886 41.2077 11.1886ZM29.2466 9.38857H37.6897C38.4658 9.38857 38.9257 10.1603 38.9257 10.9364V30.9887C38.9257 31.7647 38.4658 32.2743 37.6897 32.2743H29.2466C27.717 32.2743 26.2743 33.054 25.1943 34.0972V13.3989C25.1943 11.2651 27.1128 9.38857 29.2466 9.38857ZM10.0743 10.9364C10.0743 10.1603 10.8808 9.38857 11.6568 9.38857H20.0999C22.2337 9.38857 23.8057 11.2651 23.8057 13.3989V34.0889C23.0857 33.0483 21.6273 32.2743 20.0999 32.2743H11.6569C10.8808 32.2743 10.0744 31.7648 10.0744 30.9887V10.9364H10.0743ZM9.01838 35.1029C7.95165 35.1029 6.88574 34.2634 6.88574 33.0995V14.1025C6.88574 13.3398 7.56686 12.5771 8.1389 12.5771H8.68574V30.9887C8.68574 32.5405 10.105 33.6629 11.6568 33.6629H20.0999C21.4427 33.6629 22.627 34.3674 23.3212 35.4089C22.8752 35.2039 22.381 35.1029 21.8589 35.1029H9.01838ZM42.0629 33.0995C42.0629 34.2634 41.3949 35.1029 40.3281 35.1029H27.4876C26.9655 35.1029 26.4713 35.2039 26.0252 35.4089C26.7194 34.3674 27.9038 33.6629 29.2466 33.6629H37.6897C39.2415 33.6629 40.3143 32.5405 40.3143 30.9887V12.5771H41.2076C41.7796 12.5771 42.0628 13.3398 42.0628 14.1025V33.0995H42.0629Z" fill="#262626"/>
<path d="M20.9771 26.9936C20.9771 27.3822 20.6621 27.6972 20.2735 27.6972H13.2464C12.8578 27.6972 12.5428 27.3822 12.5428 26.9936V24.1836C12.5428 23.795 12.8578 23.48 13.2464 23.48H20.2735C20.6621 23.48 20.9771 23.795 20.9771 24.1836V26.9936ZM36.4571 26.9936C36.4571 27.3822 36.1421 27.6972 35.7535 27.6972H28.7264C28.3378 27.6972 28.0228 27.3822 28.0228 26.9936V24.1836C28.0228 23.795 28.3378 23.48 28.7264 23.48H35.7535C36.1421 23.48 36.4571 23.795 36.4571 24.1836V26.9936Z" fill="#E0E0E0"/>
</svg>
