<svg version="1.2" xmlns="http://www.w3.org/2000/svg" viewBox="0 0 1000 750" width="1000" height="750"><defs><clipPath clipPathUnits="userSpaceOnUse" id="cp1"><path d="m423.1 506.43c-4.25 29.81-5.79 60.2-12.33 89.6-1.43 6.44-2.43 13.53-6.8 18.61 4.66-27.11 5.32-54.99-0.06-81.95-2.46-12.33-7.32-24.44-15.73-33.79-5.41-6.02-12.22-10.82-16.74-17.54-4.52-6.72-6.09-16.54-0.62-22.5-0.85 0.93-8.06-3.07-9.03-3.64-2.98-1.75-5.69-3.96-8.03-6.51-5.11-5.57-8.29-12.33-8.73-19.89-0.14-2.54 0.86-5.97 3.4-5.8-3.77-3.13-7.57-6.3-10.6-10.16-3.43-4.36-5.65-9.53-5.42-15.15 0.23-5.58 2.07-6.83 7.11-8.77-0.93-2.88-2.03-5.63-2.43-8.68-0.39-2.95-0.3-6.09 1.13-8.69 1.5-2.75 4.47-4.64 7.6-4.82 3.12-0.19 6.3 1.34 8.11 3.89 0.6-3.3 4.18-5.43 7.53-5.33 3.35 0.09 6.42 1.92 8.99 4.06 7.03 5.83 9.11 13.79 12.46 21.98 4.2-1.96 9.42-0.5 12.84 2.63 3.41 3.13 5.26 7.63 6.31 12.14 1.67 7.21 1.53 14.71 1.38 22.11 2.95-2.3 7.44-1.72 10.38 0.58 2.93 2.31 4.52 5.96 5.3 9.61 2.15 10.1-1.1 20.54-5.03 30.1 2.78-1.57 6.48-0.6 8.76 1.61 8.25 8 2.13 23.63 0.7 33.19q-0.23 1.55-0.45 3.11z"/></clipPath><clipPath clipPathUnits="userSpaceOnUse" id="cp2"><path d="m340.64 455.08c6.2 3.1 12.17 6.67 17.84 10.66 53.89 37.94 74.84 110.28 70.37 173.69-12.71-29.5-31.07-58.62-55.14-80.11-14.61-13.04-27.08-27.39-40.96-41.13-24.56-24.32-36.47-60.79-30.99-94.91 4.33 16.78 23.37 24.05 38.88 31.8z"/></clipPath><clipPath clipPathUnits="userSpaceOnUse" id="cp3"><path d="m550.42 518.36c12.5 22.88 22.98 47.05 37.2 68.9 3.12 4.79 6.08 10.23 11.17 13.02-12.01-20.57-21.01-42.96-24.84-66.46-1.75-10.74-1.49-22.03 2.49-32.16 2.56-6.53 6.62-12.49 8.25-19.31 1.62-6.82-0.08-15.26-6.34-18.43 0.98 0.5 5.61-4.94 6.23-5.7 1.88-2.32 3.4-4.93 4.53-7.71 2.45-6.06 2.97-12.51 1.03-18.78-0.65-2.1-2.51-4.57-4.51-3.66 2.1-3.69 4.22-7.41 5.5-11.45 1.46-4.59 1.69-9.45-0.2-13.93-1.88-4.46-3.76-4.92-8.43-4.96-0.12-2.61-0.06-5.18-0.66-7.77-0.58-2.51-1.61-5.03-3.56-6.71-2.05-1.77-5.03-2.4-7.62-1.6-2.59 0.8-4.71 3-5.4 5.62-1.49-2.49-5.04-3.13-7.73-2.03-2.68 1.09-4.61 3.5-6.05 6.02-3.93 6.86-3.2 13.94-3.43 21.6-3.99-0.31-7.79 2.46-9.6 6.03-1.82 3.58-1.95 7.79-1.43 11.76 0.83 6.36 3.22 12.39 5.59 18.34-3.09-0.96-6.55 0.87-8.23 3.63-1.68 2.76-1.86 6.2-1.38 9.39 1.32 8.85 7.12 16.33 13.21 22.88-2.72-0.42-5.43 1.48-6.61 3.97-4.26 8.99 5.45 19.8 9.51 27.12q0.66 1.19 1.31 2.38z"/></clipPath><clipPath clipPathUnits="userSpaceOnUse" id="cp4"><path d="m494.2 402.09c6.47 3.98 12.63 8.46 18.43 13.37 55.1 46.62 70.93 127.56 59.89 196.31-11-33.42-28.19-66.96-52.37-92.75-14.67-15.65-26.88-32.51-40.68-48.85-24.43-28.92-33.88-69.85-24.59-106.55 3.09 18.73 23.16 28.52 39.32 38.47z"/></clipPath><clipPath clipPathUnits="userSpaceOnUse" id="cp5"><path d="m600.01 445.51c-4.82 6.11-9.18 12.58-13.03 19.34-36.66 64.23-23.45 147.69 11.32 209.99-1.15-36.04 3.61-74.36 17.82-107.68 8.62-20.21 14.45-40.73 21.99-61.3 13.36-36.42 8.07-79.13-13.77-111.19 3.61 19.11-12.26 35.58-24.33 50.84z"/></clipPath><clipPath clipPathUnits="userSpaceOnUse" id="cp6"><path d="m479.79 457.71c-3.81 4.92-7.24 10.13-10.28 15.56-28.82 51.65-17.62 118.29 10.67 167.84-1.2-28.81 2.32-59.49 13.42-86.24 6.74-16.23 11.24-32.69 17.12-49.2 10.4-29.22 5.84-63.34-11.86-88.81 3.03 15.26-9.54 28.55-19.07 40.85z"/></clipPath><clipPath clipPathUnits="userSpaceOnUse" id="cp7"><path d="m410.48 544.49c6.1 26.45 9.82 53.63 17.94 79.54 1.78 5.67 3.22 11.96 7.54 16.19-6.27-24-9-48.98-6.23-73.61 1.27-11.27 4.7-22.52 11.54-31.56 4.4-5.82 10.14-10.66 13.69-17.04 3.54-6.38 4.21-15.32-1.17-20.26 0.84 0.78 7.01-3.37 7.84-3.96 2.54-1.8 4.8-3.99 6.71-6.46 4.16-5.39 6.5-11.71 6.31-18.54-0.06-2.29-1.22-5.29-3.49-4.94 3.14-3.1 6.31-6.24 8.74-9.94 2.75-4.18 4.34-8.99 3.7-14.02-0.63-5-2.38-5.98-7.05-7.34 0.61-2.65 1.39-5.2 1.52-7.98 0.12-2.68-0.2-5.49-1.68-7.72-1.56-2.35-4.38-3.82-7.2-3.75-2.82 0.08-5.56 1.69-6.99 4.12-0.79-2.92-4.17-4.56-7.17-4.21-3 0.34-5.62 2.22-7.77 4.34-5.86 5.77-7.12 13.08-9.5 20.69-3.92-1.44-8.5 0.28-11.33 3.35-2.82 3.08-4.14 7.26-4.74 11.39-0.95 6.61-0.25 13.32 0.45 19.96-2.82-1.83-6.81-0.98-9.27 1.32-2.46 2.3-3.61 5.7-4.03 9.03-1.15 9.25 2.56 18.37 6.83 26.66-2.62-1.2-5.87-0.05-7.75 2.12-6.79 7.81-0.1 21.38 1.92 29.86q0.32 1.38 0.64 2.76z"/></clipPath></defs><style>.a{opacity:.2;fill:#fa7c0d}.b{fill:none;stroke:#79bf4c;stroke-miterlimit:10;stroke-width:2}.c{fill:#008f57}.d{fill:none;stroke:#4fd3b9;stroke-miterlimit:10;stroke-width:2}.e{fill:#29baa3}.f{fill:none;stroke:#008f57;stroke-miterlimit:10;stroke-width:2}.g{fill:#79bf4c}.h{fill:none;stroke:#29baa3;stroke-miterlimit:10;stroke-width:2}.i{fill:#4fd3b9}.j{display:none;fill:#c3dddd}.k{fill:none;stroke:#fa7c0d;stroke-miterlimit:10;stroke-width:2}.l{fill:none;stroke:#fa7c0d;stroke-miterlimit:10;stroke-width:2;stroke-dasharray:10.01714,10.01714}.m{fill:#fab594}.n{fill:#eeaf35}.o{fill:#fff}.p{fill:#1f143f}.q{fill:#386e8a}.r{fill:#0091a2}.s{fill:#ffdb49}.t{fill:#d99d81}.u{fill:#fa7c0d}.v{opacity:.2;fill:#231f20}.w{fill:#dfdbda}.x{fill:#00a1dd}.y{fill:#3cb35e}.z{fill:#009364}.A{opacity:.1;fill:#231f20}.B{fill:#2e3a36}.C{fill:#d5bfb8}.D{fill:#938585}.E{fill:none;stroke:#b8a392;stroke-miterlimit:10;stroke-width:6}.F{fill:#eaeff2}.G{fill:#121212}</style><path class="a" d="m250.5 676.1c-30.9 4.6-62.2 6.4-93.5 5.4-18.2-0.6-36.8-2.1-53.8-8.9-31.4-12.4-54.9-43-58.6-76.6-1.3-11.1-0.5-22.2 0.7-33.3 1.2-11.6 3.1-23.2 7.7-33.9 11.9-27.4 39.2-43.3 56.6-66.7 19.8-26.7 22.9-55.5 20.2-88.5-3-36.1-11.3-72.8-3.3-108.2 3.5-15.7 10.6-31.2 22.7-41.8 31.5-27.7 83.6-14 118.6-37.2 41.3-27.2 44.7-95.9 90.9-113.6 22.2-8.5 47.3-1.7 69.1 7.8 21.8 9.6 43.1 21.9 66.7 24.6 27.4 3.1 54.2-7 81.4-11.1 29.3-4.4 60.1-1.7 86.8 11.2 26.7 12.8 48.8 36.4 56.7 64.9 4 14.1 4.5 29 9.2 42.8 6.9 20.1 22 35.6 38.6 48.3 16.7 12.7 35.6 18.9 52.5 30.7 33.4 23.4 55.6 62.2 58.9 102.9 1.4 16.8-0.2 33.7 1.8 50.5 2.8 22.1 12 43.1 24 61.9 8 12.4 17.2 23.9 25.5 36 13.3 19.4 24.5 41.1 26.5 64.5 2 23.5-6.9 48.9-26.6 61.7-18.7 12-42.8 10.9-64.8 7.7-28.3-4.1-56.1-10.8-84.5-14.4-27.9-3.5-56.1-2.5-84.1-1.4-62.2 2.6-124.5 4.3-186.7 4.3-44.7 0.2-89.4-1-134-1.2-19-0.1-38 0.7-57 1.3-17.6 0.5-32.6 4.2-49.9 7.3q-9.1 1.7-18.3 3z"/><g clip-path="url(#cp1)"><path class="b" d="m404 614.6c15.8-81.7 7.8-131.6-20.2-182.2-28.1-50.6-59.8-94.6-59.8-94.6"/><path class="c" d="m423.1 506.4c-4.3 29.8-5.8 60.2-12.3 89.6-1.5 6.5-2.5 13.6-6.8 18.6 4.6-27.1 5.3-54.9-0.1-81.9-2.5-12.3-7.3-24.4-15.7-33.8-5.4-6-12.2-10.8-16.8-17.5-4.5-6.8-6.1-16.6-0.6-22.5-0.8 0.9-8-3.1-9-3.7-3-1.7-5.7-3.9-8-6.5-5.1-5.6-8.3-12.3-8.8-19.9-0.1-2.5 0.9-5.9 3.4-5.8-3.7-3.1-7.5-6.3-10.6-10.1-3.4-4.4-5.6-9.6-5.4-15.2 0.2-5.6 2.1-6.8 7.1-8.8-0.9-2.8-2-5.6-2.4-8.6-0.4-3-0.3-6.1 1.1-8.7 1.5-2.8 4.5-4.7 7.6-4.9 3.1-0.1 6.3 1.4 8.1 3.9 0.6-3.3 4.2-5.4 7.6-5.3 3.3 0.1 6.4 1.9 9 4.1 7 5.8 9.1 13.8 12.4 21.9 4.2-1.9 9.4-0.5 12.8 2.7 3.5 3.1 5.3 7.6 6.4 12.1 1.6 7.2 1.5 14.7 1.3 22.1 3-2.3 7.5-1.7 10.4 0.6 3 2.3 4.5 6 5.3 9.6 2.2 10.1-1.1 20.6-5 30.1 2.8-1.5 6.5-0.6 8.8 1.6 8.2 8 2.1 23.7 0.7 33.2q-0.3 1.6-0.5 3.1z"/></g><g clip-path="url(#cp2)"><path class="d" d="m428.8 642.4c-10.1-44.9-33.1-85.5-59.9-122.5-24.8-34.2-62.7-67-71.9-109.9"/><path class="e" d="m340.6 455.1c6.2 3.1 12.2 6.7 17.9 10.6 53.9 38 74.8 110.3 70.4 173.7-12.8-29.5-31.1-58.6-55.2-80.1-14.6-13-27.1-27.4-40.9-41.1-24.6-24.3-36.5-60.8-31-94.9 4.3 16.8 23.3 24 38.8 31.8z"/></g><g clip-path="url(#cp3)"><path class="f" d="m598.8 600.3c-37.7-61.4-46.3-104.4-39-153.9 7.4-49.5 19.7-94.8 19.7-94.8"/><path class="g" d="m550.4 518.4c12.5 22.8 23 47 37.2 68.9 3.1 4.7 6.1 10.2 11.2 13-12-20.6-21-43-24.8-66.5-1.8-10.7-1.5-22 2.4-32.1 2.6-6.6 6.7-12.5 8.3-19.3 1.6-6.9-0.1-15.3-6.3-18.5 0.9 0.5 5.6-4.9 6.2-5.7 1.9-2.3 3.4-4.9 4.5-7.7 2.5-6.1 3-12.5 1-18.8-0.6-2.1-2.5-4.5-4.5-3.6 2.1-3.7 4.2-7.4 5.5-11.5 1.5-4.6 1.7-9.4-0.2-13.9-1.9-4.5-3.7-4.9-8.4-5-0.1-2.6-0.1-5.1-0.7-7.7-0.5-2.6-1.6-5.1-3.5-6.7-2.1-1.8-5.1-2.4-7.6-1.6-2.6 0.8-4.7 3-5.4 5.6-1.5-2.5-5.1-3.2-7.8-2.1-2.7 1.1-4.6 3.5-6 6.1-3.9 6.8-3.2 13.9-3.4 21.6-4-0.4-7.8 2.4-9.7 6-1.8 3.6-1.9 7.8-1.4 11.8 0.9 6.3 3.2 12.3 5.6 18.3-3.1-1-6.5 0.9-8.2 3.6-1.7 2.8-1.9 6.2-1.4 9.4 1.3 8.9 7.1 16.3 13.2 22.9-2.7-0.4-5.4 1.5-6.6 4-4.3 8.9 5.4 19.8 9.5 27.1q0.7 1.2 1.3 2.4z"/></g><g clip-path="url(#cp4)"><path class="h" d="m572.2 615c-6.6-50-27.8-96.4-53.4-139.4-23.8-39.8-61.9-79.3-67.8-127"/><path class="i" d="m494.2 402.1c6.5 4 12.6 8.5 18.4 13.4 55.1 46.6 71 127.5 59.9 196.3-11-33.4-28.2-67-52.4-92.8-14.6-15.6-26.8-32.5-40.6-48.8-24.5-28.9-33.9-69.9-24.6-106.6 3.1 18.8 23.1 28.5 39.3 38.5z"/></g><g clip-path="url(#cp5)"><path class="d" d="m599.8 654.8c-11.2-50.4-7.1-102.6 2.4-152.9 8.8-46.6 31.7-98.1 20.6-146"/><path class="e" d="m600 424.5c-4.8 6.1-9.2 12.6-13 19.4-36.7 64.2-23.5 147.6 11.3 209.9-1.1-36 3.6-74.3 17.8-107.6 8.6-20.2 14.5-40.8 22-61.3 13.4-36.5 8.1-79.2-13.8-111.2 3.7 19.1-12.2 35.6-24.3 50.8z"/></g><g clip-path="url(#cp6)"><path class="d" d="m481.4 643.5c-9.4-40.2-6.5-82 0.8-122.3 6.7-37.4 24.5-78.7 15.3-117"/><path class="e" d="m479.8 457.7c-3.8 4.9-7.3 10.1-10.3 15.6-28.8 51.6-17.6 118.3 10.7 167.8-1.2-28.8 2.3-59.5 13.4-86.2 6.7-16.3 11.2-32.7 17.1-49.2 10.4-29.2 5.9-63.4-11.8-88.8 3 15.2-9.6 28.5-19.1 40.8z"/></g><g clip-path="url(#cp7)"><path class="f" d="m436 640.2c-20.6-72.2-17.1-117.6 4.1-165.2 21.3-47.6 46.5-89.6 46.5-89.6"/><path class="g" d="m410.5 544.5c6.1 26.4 9.8 53.6 17.9 79.5 1.8 5.7 3.2 12 7.6 16.2-6.3-24-9-49-6.3-73.6 1.3-11.3 4.7-22.5 11.6-31.5 4.4-5.9 10.1-10.7 13.7-17.1 3.5-6.4 4.2-15.3-1.2-20.2 0.8 0.7 7-3.4 7.8-4 2.6-1.8 4.8-4 6.7-6.5 4.2-5.4 6.5-11.7 6.4-18.5-0.1-2.3-1.3-5.3-3.5-4.9 3.1-3.2 6.3-6.3 8.7-10 2.7-4.2 4.3-9 3.7-14-0.6-5-2.4-6-7.1-7.3 0.7-2.7 1.4-5.3 1.6-8 0.1-2.7-0.2-5.5-1.7-7.8-1.6-2.3-4.4-3.8-7.2-3.7-2.8 0.1-5.6 1.7-7 4.1-0.8-2.9-4.2-4.5-7.2-4.2-3 0.4-5.6 2.2-7.7 4.3-5.9 5.8-7.2 13.1-9.5 20.7-4-1.4-8.5 0.3-11.4 3.4-2.8 3.1-4.1 7.2-4.7 11.4-1 6.6-0.3 13.3 0.4 19.9-2.8-1.8-6.8-0.9-9.2 1.4-2.5 2.3-3.6 5.7-4.1 9-1.1 9.2 2.6 18.4 6.9 26.6-2.6-1.1-5.9 0-7.8 2.2-6.8 7.8-0.1 21.4 1.9 29.8q0.4 1.4 0.7 2.8z"/></g><path class="j" d="m1000 650.3h-1000v232.7h1000z"/><path class="k" d="m621.4 230.9q-2.5 0.3-4.9 0.5"/><path class="l" d="m606.5 232.4c-28.2 2.2-56.7 1.4-84.7-2.6-23.4-3.3-47.6-9.4-65-25.4-6.6-6.1-11.1-16.8-10-25.9 1-8.8 8-17 16.9-17.9 23.6-2.3 38.8 25.6 43 45.1 4.9 22.2 2.4 52.5-19.6 65.1-11.7 6.7-28.9 4.2-35.4-7.5-1.4-2.6-2.2-5.6-1.7-8.5 1-6 8.1-9.7 14.1-8.3 5.9 1.5 10.3 6.9 12 12.8 1.6 5.8 0.9 12.1-0.4 18.1-1.4 6.5-3.5 12.9-7.1 18.4-9.3 14.1-27.4 20.6-44.3 19.5-15.8-1-23.6-12.6-33.9-23.1-14.6-15-32.8-20.5-53.4-19.4-16.2 0.9-31.2 8.2-46.8 12.6-15.6 4.5-33.8 5.7-46.7-4.2-4.5-3.5-8.3-9-7.1-14.6 1.1-5.6 7-9.2 12.7-9.5 5.7-0.3 11.2 2.1 16.2 4.8 4.6 2.4 9.1 5.3 12.2 9.4 5.7 7.4 6 17.5 4.3 26.6-4.9 27-24.5 49.4-47.4 64.5-4.9 3.1-10.1 6.3-13.1 11.3-5.2 8.8-1.5 20.3 4.7 28.4 6.2 8.2 14.5 14.5 20.3 22.9 15.4 22.9 4.5 46.8-11.1 65.5-5.7 6.7-13.7 11.8-22.3 13.8"/><path class="k" d="m208 505.2q-2.5 0.2-5 0.1"/><path class="m" d="m167.8 470.6q0.3 0.3 0.5 0.6 4.7-6.8 9.3-13.6c3.6-5.2 7.3-10.6 12.8-13.7 1-0.6 2.3-1.1 3.4-0.6 3.9 2-0.4 10.5-1.6 12.8-4.6 9-9 18.8-14.7 27.2-5.5 8-14.6 1.3-19.5-3.6-6.8-6.8-17.8-14.2-19.8-24.3-0.6-2.7 0.9-6.1 3.7-6.1 1 0 2 0.5 3 1.1 8.4 5.4 16.1 12.9 22.9 20.2z"/><path class="n" d="m141.1 439.8c4.6 1.3 9 5.8 11.1 8.8 0.9 1.2 9.1 9.6 9.2 9.6-4.3 5-9.2 9.5-14.4 13.6-0.3 0.2-0.6 0.5-1 0.5-0.3 0-0.6-0.2-0.9-0.4-3.8-2.6-6.3-6.8-9.2-10.2-4.3-5.2-8.4-17.4-0.6-21.5 1.8-1 3.8-1 5.8-0.4z"/><path class="o" d="m178.9 415.5l27-16.9 23.2 39.6-22.8 18.2z"/><path class="m" d="m194.8 450.9c-0.5 0.3-0.9 0.8-1.3 1.2-1.1 1.3-3.8 5.1-5.9 3.1-0.6-0.6-0.8-1.5-1.3-2.2-0.8-0.7-1.7-1.3-2.6-1.7-0.2-0.1-0.4-0.2-0.4-0.4-0.1-0.1 0-0.3 0.1-0.5 1.2-1.6 2.5-3 3.6-4.7 0.8-1.4 0.7-2.6 0.7-4 0-4.7 1.8-9.2 3-13.6 0.3-1 0.9-3.6 2.5-3.2 0.3 0.1 0.7 0.4 0.9 0.7 0.2 0.3 0.3 0.7 0.4 1.1 0.5 2.8-1.4 5.1-1.7 7.8-0.1 1.7 1.1 3.3 2 4.7 1.6 2.2 3.1 4.5 5 6.4 0.1 0.2 0.3 0.4 0.3 0.6 0 0.3-0.1 0.6-0.3 0.8-0.6 0.8-1.2 1.9-2.1 2.5-0.8 0.6-2 0.7-2.9 1.4z"/><path class="p" d="m156.6 647.8c0.6 0 1.1 0.1 1.6 0.3 0.4 0.2 0.9 0.7 0.8 1.2 0 0.3-0.1 0.6-0.3 0.8-0.9 1.3-2.8 1.3-4.3 1.3q-8.7-0.2-17.3-0.5c-0.3 0-0.6 0-0.8-0.1-0.3-0.1-0.5-0.3-0.6-0.6-1.2-1.7-1.1-4-0.6-6 0.5-2 1.3-4 1.2-6-0.1-0.8-0.2-1.6 0.4-2.1 0.2-0.2 0.6-0.3 0.9-0.4q2.7-0.6 5.6-0.5c-0.2 0-0.1 5.9 0 6.5 1.7 5.1 8.9 5.7 13.4 6.1z"/><path class="p" d="m131.9 647.8c0.5 0 1 0.1 1.5 0.3 0.5 0.2 0.9 0.7 0.9 1.2 0 0.3-0.2 0.6-0.3 0.8-1 1.3-2.8 1.3-4.4 1.3q-8.6-0.2-17.3-0.5c-0.3 0-0.5 0-0.8-0.1-0.2-0.1-0.4-0.3-0.6-0.6-1.2-1.7-1-4-0.5-6 0.5-2 1.3-4 1.1-6 0-0.8-0.1-1.6 0.4-2.1 0.3-0.2 0.6-0.3 0.9-0.4q2.8-0.6 5.6-0.5c-0.2 0-0.1 5.9 0.1 6.5 1.7 5.1 8.9 5.7 13.4 6.1z"/><path class="q" d="m127.8 507.9c-3.5 0.3-7 1.1-10.2 2.5-8.5 3.7-2.4 22.3-0.5 28.9q3.5 12.7 7 25.4c3.8 13.7 5.7 27.9 6.7 42.1 0.2 2.7 1.9 32 2.1 32q5.9 0 11.7 0.1c1 0 2.3-15.5 2.4-17 0.5-5.8 0.6-11.6 0.9-17.4 1.7-26.5-0.1-53.6-1.1-80.2-0.2-4.4-0.9-8.9-3.7-12.5-1.1-1.5-4.2-1.8-5.9-2.4-2.5-1-4.5-1.7-7.3-1.6q-1 0-2.1 0.1z"/><path class="r" d="m103.1 508.7c-0.5 2.6-0.6 5.2-0.8 7.8-1.6 23.8 0.8 47.7 2.4 71.5 1.2 16.9 2.5 33.8 3.5 50.8q5.8 0 11.6 0.1c1.1 0 2.4-15.5 2.5-17 0.4-5.8 0.5-11.6 0.8-17.4 0-9.2 1-18.5 1.4-27.7 0.6-11 1.2-22 2.5-32.8 0.8-6.5 1.8-13 2.5-19.5 0.7-5.9 2.3-13-0.4-18.6-1.4-3-4-5.4-7.1-6.6-2.9-1-6-1.1-9.1-1-1.6 0-3.3 0.1-4.8 0.7-3.8 1.4-4.3 6.2-5 9.7z"/><path class="s" d="m143.6 446.9c1.9 6.1 1.5 13.4 1.7 19.3q0.6 23.6 1.2 47.2c0 0.9 0 1.9-0.5 2.7-0.6 1-1.7 1.4-2.8 1.7-8.8 2.6-18.1 2.3-27.3 2.1-4-0.2-8.2-0.3-12-1.8-0.7-0.3-1.4-0.7-1.8-1.3-0.5-0.7-0.5-1.6-0.4-2.4 0.4-13 1.4-26 3.1-38.9 1.4-10.1 0.8-21.1 5.4-30.5 4.5-9.1 15-11.9 24.1-8.5 2.7 1 5.2 2.7 6.8 5.1 1.1 1.6 1.9 3.4 2.5 5.3z"/><path class="t" d="m130.7 440.1c-1.9 1.4-4.9 1.2-7 0.8-3.7-0.8-3.8-5-3.3-8 0.4-2.4 1.6-9.2 4.5-9.6 3.1-0.4 6.6 1.4 7.6 4.3 0.5 1.4 0.5 2.9 0.4 4.4 0 2.3 0.1 6-1.7 7.7q-0.2 0.3-0.5 0.4z"/><path class="m" d="m120.8 415.2c0.6 2.6 0 5-1.4 5.4-1.5 0.3-3.2-1.5-3.9-4-0.7-2.6 0-5 1.4-5.4 1.5-0.4 3.2 1.4 3.9 4z"/><path class="m" d="m84.9 474.8q-1.9 3.8-3.5 7.7c-0.5 1.2-0.9 1.8-0.5 3.2 0.4 1.3 1 2.7 1.6 4 2.3 5.2 5.6 9.8 9 14.3 2.8 3.4 5.2 7.1 7.8 10.7 2.3 3.3 5.5 6.5 6.6 10.5 2.6 0.4 5.3-0.7 7.5-2.3q0.1 0 0.1-0.1c0.1-0.2-0.1-0.4-0.3-0.5-1.9-0.8-2.5-2.3-3.2-4q-1.5-3.4-3.1-6.6c-2.1-4.3-4.3-8.4-6.6-12.6q-2.9-5.4-5.8-10.9c-0.8-1.6-1.6-2.4-1-4.3 0.5-1.4 1.5-2.6 2.3-3.8q4.1-5.9 8.3-11.9c1.1-1.6 2.2-2.8 2.8-4.7 0.5-1.9 0.4-3.8-0.7-5.5-6-9.1-15.6 5.6-21.3 16.8z"/><path class="s" d="m122.5 448c-0.3 4.7-3.6 10-6.1 12.8-1 1.1-7.3 11-7.2 11.1-5.9-3.1-11.4-6.8-16.5-11-0.3-0.2-0.6-0.5-0.7-0.8-0.1-0.3 0-0.7 0.1-1 1.8-4.3 5.2-7.7 7.9-11.3 4.1-5.4 15.1-12 20.8-5.4 1.4 1.6 1.9 3.5 1.7 5.6z"/><path class="p" d="m112 395.1q0 0.8-0.3 1.6c-0.7 2.4-2.5 4.1-4 6.1-1.2 1.7-1.5 3.8-1.3 5.9 0.4 4.3 2.8 8.5 5.6 11.9 0.5 0.7 1.2 1.6 2 2.1 0.9 0.6 2.1 1 3.1 1.4 2.9 1.1 5.8 1.9 8.8 2.3q2.3 0.4 4.5 0.5c1.4 0.1 2.8-0.6 4-1.2 1.5-0.6 2.9-1.4 4.1-2.4 1.3-1.1 2.3-2.4 3.4-3.7 0.8-1 1.6-2.1 1.9-3.4 0.4-1.5 0.1-3.2 0.8-4.6 0.4-0.9 1.1-1.6 1.7-2.4 1.9-2.6-0.5-6.1 1.1-8.9 1-1.7 2.9-2.7 3.7-4.6 0.9-1.7 0.9-3.8 0.3-5.5-1.1-3-3.7-5.2-6.5-6.6-3.2-1.6-7.3-2.2-10.2-0.1-0.6 0.5-1.2 1-1.7 1.5-4.7 4-10.3 0.4-15.5 2.1-2.2 0.7-4.2 2.2-4.9 4.4-0.4 1.1-0.4 2.4-0.6 3.6z"/><path class="m" d="m115.6 416.2c0.5 5.6 3.3 11 8 14.3 3.5 2.5 8.8 4 12.9 1.8 5.4-3 6.8-10.7 7-16.3 0.1-6.6-2.1-14.1-8.4-17.4-4.4-2.3-11.4-2.8-14.8 1.3-3.6 4.3-5.2 10.5-4.7 16.3z"/><path class="p" d="m136.9 398.4c-1.4 0.1-2.8 0.5-3.9 1.2-2.4 1.5-3.9 4-6.1 5.7-2 1.6-4.5 2.6-6.9 3.6-0.5 0.2-1 0.4-1.3 0.7-0.4 0.5-0.5 1.2-0.5 1.8 0 3.6 2.3 6.8 0.3 10.3-0.2 0.3-0.5 0.7-0.8 0.9-2.1 1.4-3.8-2.5-4.4-3.9-1-2.1-1.5-4.4-1.6-6.8-0.3-4.6 0.9-10.7 4.8-13.7 3.8-2.8 8.4-4.6 13.2-4.4 1.6 0.1 3.2 0.4 4.8 0.9 0.9 0.3 1.5 0.7 2.2 1.3 0.4 0.4 0.8 0.7 1.1 1.2 0 0.1 0.5 1.2 0.5 1.2q-0.7 0-1.4 0z"/><path class="o" d="m128.4 423.3c2.1 0 4 0.1 6-0.2 2.1-0.4 4.1-1 6-1.9 0 0-0.3 2.2-0.4 2.4-0.3 0.8-0.8 1.6-1.3 2.3-1.9 2.3-5.8 2.8-8.2 1.1-0.6-0.4-1.2-1-1.5-1.7-0.1-0.1-0.8-1.9-0.6-2z"/><path class="p" d="m136.3 408.4c1.6-0.6 3.5-0.8 4.7 0.6 0.8 1 2.2-0.4 1.4-1.4-1.6-1.9-4.5-2-6.6-1.1-1.2 0.5-0.7 2.4 0.5 1.9z"/><path class="m" d="m118.2 420.3c1.1 2.3 0.9 4.7-0.5 5.4-1.3 0.7-3.4-0.6-4.5-2.8-1.2-2.2-1-4.6 0.4-5.3 1.4-0.7 3.4 0.5 4.6 2.7z"/><path class="p" d="m127.8 414.7c0.3 1.4-0.1 2.7-0.9 2.8-0.8 0.1-1.6-0.9-1.8-2.4-0.2-1.4 0.2-2.7 0.9-2.8 0.8-0.1 1.6 1 1.8 2.4z"/><path class="p" d="m140 412.9c0 1.4-0.6 2.6-1.3 2.7-0.8 0-1.5-1.2-1.5-2.6 0-1.5 0.6-2.7 1.3-2.7 0.8 0 1.4 1.1 1.5 2.6z"/><path class="p" d="m127.6 408c-2.8-0.5-5.4 1.1-6.5 3.6-0.6 1.1 1.2 2.1 1.7 1 0.7-1.6 2.3-3 4.2-2.7 1.3 0.2 1.8-1.8 0.6-1.9z"/><path class="u" d="m623.7 587.5c0 0 263.1 0 282.5 0 18.6-20.5 20.6-46.7 0-62.1-19.9 0-282.5 0-282.5 0v7.5h9v46.3h-9z"/><path class="o" d="m632.7 579.2c0 0 250 0 268.2 0 12.9-10.3 13.3-36.9 0-46.3-18.7 0-268.2 0-268.2 0z"/><path class="v" d="m894.1 541.5c-16.9 0-221.3 0-261.4 0v-8.6c0 0 249.5 0 268.2 0 13.3 9.4 12.9 36 0 46.3q-0.1 0-0.2 0c5.8-12.4 3.8-30.3-6.6-37.7z"/><path class="w" d="m890.3 550.6q-25.4 1.2-50.7 1.6c-16.9 0.3-33.8 0.4-50.7 0.4-16.9 0-33.7-0.1-50.6-0.4q-25.4-0.4-50.7-1.6 25.3-1.1 50.7-1.5c16.9-0.3 33.7-0.4 50.6-0.5 16.9 0.1 33.8 0.2 50.7 0.5q25.3 0.4 50.7 1.5z"/><path class="w" d="m860.8 564.7q-25.4 1.1-50.7 1.5c-16.9 0.3-33.8 0.4-50.7 0.5-16.8-0.1-33.7-0.2-50.6-0.5q-25.4-0.4-50.7-1.5 25.3-1.2 50.7-1.6c16.9-0.3 33.8-0.4 50.6-0.4 16.9 0 33.8 0.1 50.7 0.4q25.3 0.4 50.7 1.6z"/><path class="x" d="m902.8 463.6c0 0-263.2 0-282.5 0-18.6-20.5-20.7-46.6 0-62.1 19.9 0 282.5 0 282.5 0v7.5h-9v46.3h9z"/><path class="o" d="m893.8 455.3c0 0-250 0-268.2 0-12.9-10.3-13.3-36.9 0-46.3 18.7 0 268.2 0 268.2 0z"/><path class="v" d="m632.4 417.6c16.8 0 221.3 0 261.4 0v-8.6c0 0-249.5 0-268.2 0-13.3 9.4-12.9 36 0 46.3q0.1 0 0.2 0c-5.8-12.4-3.8-30.3 6.6-37.7z"/><path class="w" d="m636.2 426.7q25.3-1.1 50.7-1.5c16.8-0.3 33.7-0.4 50.6-0.4 16.9 0 33.8 0.1 50.7 0.4q25.3 0.4 50.7 1.5-25.4 1.2-50.7 1.6c-16.9 0.3-33.8 0.4-50.7 0.4-16.9 0-33.8-0.1-50.6-0.4q-25.4-0.4-50.7-1.6z"/><path class="w" d="m665.7 440.8q25.3-1.2 50.7-1.6c16.8-0.3 33.7-0.4 50.6-0.4 16.9 0 33.8 0.1 50.7 0.4q25.3 0.4 50.7 1.6-25.4 1.1-50.7 1.5c-16.9 0.3-33.8 0.4-50.7 0.5-16.9-0.1-33.8-0.2-50.6-0.5q-25.4-0.4-50.7-1.5z"/><path class="n" d="m634.8 649.5c0 0 263.1 0 282.4 0 18.7-20.4 20.7-46.6 0-62-19.8 0-282.4 0-282.4 0v7.4h8.9v46.3h-8.9z"/><path class="s" d="m601 649.5c0 0 263.1 0 282.5 0 18.6-20.4 20.6-46.6 0-62-19.9 0-282.5 0-282.5 0v7.4h9v46.3h-9z"/><path class="o" d="m610 641.2c0 0 250 0 268.2 0 12.9-10.2 13.3-36.9 0-46.3-18.7 0-268.2 0-268.2 0z"/><path class="v" d="m871.4 603.5c-16.9 0-221.3 0-261.4 0v-8.6c0 0 249.5 0 268.2 0 13.3 9.4 12.9 36.1 0 46.3q-0.1 0-0.2 0c5.8-12.3 3.8-30.3-6.6-37.7z"/><path class="w" d="m867.6 612.7q-25.3 1.2-50.7 1.5c-16.9 0.4-33.8 0.5-50.6 0.5-16.9 0-33.8-0.1-50.7-0.4q-25.3-0.4-50.7-1.6 25.4-1.2 50.7-1.6c16.9-0.3 33.8-0.4 50.7-0.4 16.8 0 33.7 0.1 50.6 0.4q25.4 0.4 50.7 1.6z"/><path class="w" d="m838.1 626.7q-25.3 1.2-50.7 1.6c-16.9 0.3-33.8 0.4-50.6 0.4-16.9 0-33.8-0.1-50.7-0.4q-25.3-0.4-50.7-1.6 25.4-1.2 50.7-1.6c16.9-0.3 33.8-0.4 50.7-0.4 16.8 0 33.7 0.1 50.6 0.5q25.4 0.3 50.7 1.5z"/><path class="y" d="m634.5 402.1c0 0 263.2 0 282.5 0 18.6-20.4 20.7-46.6 0-62-19.9 0-282.5 0-282.5 0v7.4h9v46.3h-9z"/><path class="z" d="m600.8 402.1c0 0 263.1 0 282.4 0 18.7-20.4 20.7-46.6 0-62-19.8 0-282.4 0-282.4 0v7.4h8.9v46.3h-8.9z"/><path class="o" d="m609.7 393.8c0 0 250.1 0 268.2 0 12.9-10.2 13.3-36.9 0-46.3-18.6 0-268.2 0-268.2 0z"/><path class="v" d="m871.1 356.2c-16.8 0-221.3 0-261.4 0v-8.7c0 0 249.6 0 268.2 0 13.3 9.4 12.9 36.1 0 46.3q-0.1 0-0.2 0c5.9-12.3 3.8-30.3-6.6-37.6z"/><path class="w" d="m867.3 365.3q-25.3 1.2-50.6 1.6c-16.9 0.3-33.8 0.4-50.7 0.4-16.9 0-33.8-0.1-50.7-0.4q-25.3-0.4-50.6-1.6 25.3-1.2 50.6-1.6c16.9-0.3 33.8-0.4 50.7-0.4 16.9 0 33.8 0.1 50.7 0.4q25.3 0.4 50.6 1.6z"/><path class="w" d="m837.8 379.3q-25.3 1.2-50.6 1.6c-16.9 0.3-33.8 0.4-50.7 0.4-16.9 0-33.8-0.1-50.7-0.4q-25.3-0.4-50.6-1.6 25.3-1.2 50.6-1.5c16.9-0.4 33.8-0.4 50.7-0.5 16.9 0.1 33.8 0.1 50.7 0.5q25.3 0.4 50.6 1.5z"/><path class="s" d="m609.9 525.8h301.6c2.2 0 4-1.8 4-4v-54.8c0-2.2-1.8-4-4-4h-301.6c-2.2 0-4 1.8-4 4v54.8c0 2.2 1.8 4 4 4z"/><path class="A" d="m910.4 477.3c0-1.7-1.3-3.1-3-3.1h-301.5v-8.2c0-1.7 1.4-3 3.1-3h303.5c1.6 0 3 1.3 3 3v56.8c0 1.6-1.4 3-3 3h-2.1z"/><path class="n" d="m838.1 525.4h37v-62.4h-37z"/><path class="n" d="m801.5 516.9h24v-45.4h-24z"/><path class="r" d="m609.9 340.1h301.6c2.2 0 4-1.8 4-4v-54.8c0-2.2-1.8-4-4-4h-301.6c-2.2 0-4 1.8-4 4v54.8c0 2.2 1.8 4 4 4z"/><path class="A" d="m910.4 291.6c0-1.7-1.3-3.1-3-3.1h-301.5v-8.2c0-1.7 1.4-3 3.1-3h303.5c1.6 0 3 1.3 3 3v56.8c0 1.6-1.4 3-3 3h-2.1z"/><path class="q" d="m838.1 339.7h37v-62.4h-37z"/><path class="q" d="m801.5 331.2h24v-45.4h-24z"/><path class="o" d="m688.2 607.7c-43.7 12.9-171.2-36.9-222.8 1.6-20 5.8-25.7-3.8-25.9-20.6 58.9-89.5 144.5-4.6 224.6-10.4 8.4 10.3 13.3 18.3 24.1 29.4z"/><path class="o" d="m688.2 607.7c-43.7 12.9-171.2-36.9-222.8 1.6-20 5.8-25.7-3.8-25.9-20.6 58.9-89.5 123.4-34.3 203.5-40 37 35.7 34.4 47.9 45.2 59z"/><path class="o" d="m660.4 553.6c-138.1 19.1-198.3 19.1-220.7 71.9 0-11.9 0-20.3-0.1-36.7 7.7-72.7 132.5-77 173-115.7 10.5 16.1 39.6 68.8 47.8 80.5z"/><path class="B" d="m688.2 647.3h-222.4v-26.7h222.4z"/><path class="C" d="m712.6 654.6c-44.1 12.7-195.2-40.1-245-12.3-21.5 6.2-38.6 11.3-27.9-21.7 63.5-94.6 165.5 0 251.9-6.1 5.6 12.9 12.3 27.8 21 40.1z"/><path class="D" d="m458.7 618c6.4-7.1 14.8-12.3 23.7-15.9 9-3.6 18.5-5.6 28.1-6.5 19.3-2 38.7 1.3 57.2 6 18.5 4.9 36.5 11.4 54.7 16.8 18.2 5.3 36.8 9.5 56 9.7-9.6 0.7-19.2 0.1-28.7-1-9.5-1.3-18.9-3.3-28.1-5.7-18.6-4.8-36.6-11.2-54.9-15.9-9.2-2.4-18.4-4.4-27.8-5.7-9.3-1.3-18.7-1.7-28.1-1.1-4.7 0.3-9.4 0.8-14 1.7-4.7 0.9-9.3 2-13.7 3.5-9 3-17.4 7.6-24.4 14.1z"/><path class="D" d="m464.7 630.3c3.7-2.8 7.9-5 12.2-6.8 4.4-1.7 8.9-3.3 13.4-4.4 9.1-2.3 18.5-3.6 27.9-4.1 18.8-1.2 37.6 0.9 56 4 18.5 3.2 36.6 7.6 54.8 11.1 18.3 3.6 36.7 6.4 55.4 6.9-18.7 1.1-37.5-0.7-55.9-3.8-18.5-3-36.7-7.2-55-10.3-18.2-3.2-36.7-5.3-55.2-4.8-9.2 0.2-18.5 1.1-27.6 2.9-9 1.8-18 4.5-26 9.3z"/><path class="o" d="m191.3 607.7c43.7 12.9 171.2-36.9 222.9 1.6 19.9 5.8 25.6-3.8 25.8-20.6-58.9-89.5-144.4-4.6-224.6-10.4-8.4 10.3-13.3 18.3-24.1 29.4z"/><path class="o" d="m219.1 553.6c138.1 19.1 198.4 19.1 220.7 71.9 0-11.9 0-20.3 0.2-36.7-7.8-72.7-132.5-77-173.1-115.7-10.4 16.1-39.5 68.8-47.8 80.5z"/><path class="B" d="m191.3 647.3h222.5v-26.7h-222.5z"/><path class="C" d="m167 654.6c44 12.7 195.2-40.1 244.9-12.3 21.5 6.2 38.6 11.3 27.9-21.7-63.5-94.6-165.5 0-251.8-6.1-5.6 12.9-12.3 27.8-21 40.1z"/><path class="D" d="m420.9 618c-7.1-6.5-15.5-11.1-24.5-14.1-4.4-1.5-9-2.6-13.6-3.5-4.7-0.9-9.3-1.4-14-1.7-9.4-0.6-18.9-0.2-28.2 1.1-9.3 1.3-18.6 3.3-27.7 5.7-18.4 4.7-36.4 11.1-54.9 15.9-9.3 2.4-18.7 4.4-28.2 5.7-9.5 1.1-19.1 1.7-28.6 1 19.1-0.2 37.7-4.4 55.9-9.7 18.2-5.4 36.2-11.9 54.7-16.8 18.6-4.7 37.9-8 57.2-6 9.6 0.9 19.1 2.9 28.1 6.5 8.9 3.6 17.3 8.8 23.8 15.9z"/><path class="D" d="m414.9 630.3c-8.1-4.8-17-7.5-26.1-9.3-9.1-1.8-18.3-2.7-27.6-2.9-18.5-0.5-36.9 1.6-55.2 4.8-18.3 3.1-36.5 7.3-55 10.3-18.4 3.1-37.2 4.9-55.8 3.8 18.6-0.5 37-3.3 55.3-6.9 18.2-3.5 36.4-7.9 54.8-11.1 18.4-3.1 37.3-5.2 56.1-4 9.3 0.5 18.7 1.8 27.8 4.1 4.6 1.1 9 2.7 13.4 4.4 4.3 1.8 8.5 4 12.3 6.8z"/><path class="B" d="m467.9 642.3l-17.4-17.4c-5.8-5.8-15.1-5.8-20.9 0l-17.4 17.4 27.8 15.1z"/><path class="E" d="m467.6 642.3l-17.4-17.4c-5.8-5.8-15.1-5.8-20.9 0l-17.4 17.4"/><path class="u" d="m712.6 649.6q-107.3-5.4-214.6-10.8-15.2-0.7-30.4-1.5c-2.3-0.1-4.1 1.7-4.8 3.7-2.2 6-15.8 8.4-23.1 8.6-6.4 0.2-6.4 10.2 0 10 11.8-0.3 28.1-3.2 32.7-16q-2.4 1.9-4.8 3.7 107.3 5.4 214.6 10.8 15.2 0.7 30.4 1.5c6.4 0.3 6.4-9.7 0-10z"/><path class="u" d="m166.9 659.6q107.3-5.4 214.6-10.8 15.2-0.7 30.4-1.5-2.4-1.8-4.8-3.7c4.6 12.8 20.9 15.7 32.6 16 6.5 0.2 6.5-9.8 0-10-7.2-0.2-20.8-2.6-23-8.6-0.7-2-2.5-3.8-4.8-3.7q-107.3 5.4-214.6 10.8-15.2 0.7-30.4 1.5c-6.4 0.3-6.4 10.3 0 10z"/><path class="p" d="m624.9 335.7c-0.5-0.2-1.1-0.3-1.6-0.3-0.5 0.1-1 0.4-1.2 0.9-0.1 0.3-0.1 0.6 0 0.9 0.5 1.5 2.2 2.1 3.7 2.6q8.2 2.8 16.4 5.5c0.3 0.1 0.5 0.1 0.8 0.1 0.3 0 0.5-0.1 0.8-0.3 1.7-1.2 2.3-3.4 2.5-5.5 0.2-2 0.2-4.2 1-6.1 0.3-0.7 0.7-1.4 0.3-2.1-0.1-0.3-0.4-0.5-0.7-0.6q-2.4-1.5-5.1-2.4c0.2 0.1-1.9 5.6-2.3 6.1-3.3 4.2-10.3 2.4-14.6 1.2z"/><path class="t" d="m700 180.6c0 0.1 0.1 0.3 0.2 0.4 0.1 0.1 0.3 0.2 0.5 0.2 4 0.7 8.1 0 12.1-0.9q-1.6-7-3.6-13.8c-0.1-0.2-0.1-0.3-0.2-0.4-0.2-0.1-0.4-0.1-0.5-0.1q-3.1 0.6-6.2 1.2c-1.7 0.4-3.4 0.6-5.1 1 0.6 2.1 1 4.1 1.5 6.3q0.6 3.1 1.3 6.1z"/><path class="p" d="m646.9 280.6c1.7-6 3.8-11.9 6.5-17.7 0.5-1.1 1-2.3 2-3 0.8-0.5 1.8-0.8 2.7-1q11.3-2.8 22.6-5.7c7.5-1.8 14.9-3.7 22.6-4.3 4.8-0.3 18.7-1.8 20.5 4 0.6 2-0.1 4.1-1.1 5.9-3.6 6.6-10.9 10.1-17.9 12.6-11.8 4.2-24.3 6.6-36.9 7.1-6.6 18.5-11.6 37.6-17.4 56.5l-14.8-4.1c0 0 4.3-22.7 4.9-25.1 2-8.5 3.8-16.9 6.3-25.2z"/><path class="p" d="m669.6 347.1c-0.5 0.2-1 0.5-1.3 0.9-0.3 0.5-0.4 1.1-0.2 1.5 0.2 0.3 0.4 0.5 0.7 0.6 1.4 0.7 3-0.1 4.4-0.9q7.6-4.2 15.1-8.4c0.3-0.2 0.5-0.3 0.7-0.5 0.1-0.2 0.2-0.5 0.3-0.8 0.2-2.1-1-4-2.4-5.6-1.3-1.5-3-2.9-3.8-4.8-0.3-0.7-0.6-1.5-1.3-1.7-0.3-0.1-0.7 0-1 0.1q-2.7 0.8-5.2 2.2c0.2-0.1 2.9 5.1 3 5.7 0.8 5.4-5.2 9.3-9 11.7z"/><path class="m" d="m689.7 172.2c2 1.9 4.3 3.1 6.6 2.7 3-0.4 5.8-1.7 8.3-3.5 4.8-3.5 9-9.2 9.9-15.3 1.2-8.9-6.5-16.2-14.8-17.5q-1.5-0.2-3-0.2c-5.2 0-10.4 1.4-13.5 5.8-3.5 4.9-2.4 12.4-0.3 17.7 1.1 2.9 3.6 7.4 6.8 10.3z"/><path class="p" d="m673.6 281.1c1.8 4.2 3 8.6 4.2 13 3.2 11.9 9.6 35.7 9.6 35.7l-13.3 4c-3.3-9.2-7.2-18.2-11.1-27.1q-2.1-4.7-4.1-9.5c-2.4-5.6-4.8-11.2-7.5-16.7-3.4-6.9-5.5-12.7-5-20.6 0.4-5 2.2-8.6 7.2-9.6 5.4-1.1 10.9-1.8 16.4-2.1 3.6-0.3 7.2-0.4 10.8-0.5q12.9-0.3 25.7-0.6 6.6-0.2 13.2-0.4c2.8 0 6.5-1 9.3-0.5 1.2 4.6 2.1 10.3 0.5 15-4 12.7-15.6 18.7-28.4 18.3-7.6-0.3-15-2.6-22-5.6-2.7-1.1-5.4-2.4-8.2-2.6-0.6 3.2 1.4 7 2.7 9.8z"/><path class="e" d="m690.4 247.5c6.8-0.2 39.3 0.2 39.2 0-1.1-10.2-0.3-20.9-0.4-31.3-0.2-8.5-1-17.2-4-25.3-2.7-7.2-7.1-14.8-15.7-14.7-1.6 0.1-3.1 0.4-4.6 0.9-7.3 2.4-10.9 9.8-13 16.7-2.6 8.9-2.7 18.4-2.5 27.6 0.2 4.9-0.2 9.8-0.1 14.7 0.2 3.8 0.7 7.6 1.1 11.4z"/><path class="p" d="m703.8 162.3c0.1 2.8 3.1 3.6 4.6 5.7 1.9 2.4 2.9 5.6 2.7 8.6-0.1 1.1-0.2 2.1 0 3.1 0.5 1.6 2.1 2.5 3.4 3.6 4.8 3.8 6.8 10.1 9 15.8 0.8 2.2 1.7 4.3 3.2 6 2.4 2.6 6 3.8 9.5 3.2 4.6-0.7 7.3-4.1 9.8-7.7 2.2-3.2 2.7-7.5 1.1-11.1-2.1-4.9-7.6-8.7-7.1-14 0.2-2.2 1.5-4.3 1.9-6.5 0.6-4.4-2.5-8.5-5.9-11.4-3.3-3-7.2-5.8-8.9-9.9-1.2-3.1-1-6.7-2.1-9.8-1.4-4.2-4.9-7.4-9-9.1-4.1-1.7-8.6-2-13-1.8-5 0.2-10 1.1-14.6 3.3-4.5 2.2-8.5 5.7-10.6 10.2-0.4 0.7-0.7 1.5-0.6 2.3 0 2.2 2.5 3.6 4.7 4.1 2.5 0.5 4.5 0.7 6.3 2.6 1.3 1.3 2 3.3 3.6 4.2 1.1 0.7 2.2 1.2 3.4 1.3 1.2 0.2 2-0.3 3.1-0.4-0.4-1.1 0.3-2.3 1.3-2.8 1.1-0.4 2.3-0.1 3.3 0.5 3.6 2.6 0.8 6.5 0.9 10z"/><path class="m" d="m713.4 213.8c0.6 1.8 1.2 3.7 2 5.6q2.4 6.1 4.9 12.1c0.6 1.5 1.4 3.2 2.9 3.7 0.9 0.3 1.9 0.1 2.8-0.3 1.7-0.8 2.9-2.6 3.4-4.5 1.2-4.4-0.5-8.9-1.8-13.1-2.4-7.5-5.3-14.8-8.7-22-0.9-1.9-1.7-3.8-2.8-5.5-1.2-1.8-2.7-3.3-4.6-4.1-1.9-0.8-4.3-0.7-5.9 0.6-1.9 1.5-1.6 3.9-0.9 5.9 1.7 4.8 3.6 9.5 5.8 14.1 1.2 2.5 2 5 2.9 7.5z"/><path class="m" d="m712.2 226.3c-9.7 0.9-19.3 3.4-28.8 5.8-0.8 0.2-1.6 0.4-2.2 1-1.5 1.2-1.4 4.4 0.6 5.2 0.5 0.2 1.1 0.2 1.6 0.2 4.7 0.2 9.5 0.5 14.1 0.1 5-0.5 9.9-1 14.8-1.7q2.9-0.4 5.9-0.8c2.5-0.4 5.2-0.4 7.4-1.7 0.3-0.1 0.5-0.3 0.6-0.5 0.2-0.2 0.2-0.5 0.3-0.7 0.2-1.1 0.3-2.2 0-3.2-1.1-3.4-4.7-4.1-7.8-4.1q-3.3 0.1-6.5 0.4z"/><path class="r" d="m643 251.6l40.5-3.9-0.5-4.7-40.4 3.9z"/><path class="r" d="m647.2 249.8l-15.7-37.5-4.4 1.8 15.7 37.5z"/><path class="m" d="m667.2 233.1c0.7-0.3 1.5-0.5 2.1-0.6q2.6-0.6 5.2-1.1c1.7-0.3 3.5-0.7 5.1-0.2 0.8 0.3 1.6 0.8 2.3 1.2q1.8 1.2 3.7 2.4c0.1 1.2-0.5 2.4-1.4 3.2-0.9 0.8-2 1.3-3.1 1.8-0.8 0.4-1.5 0.7-2.4 0.9-3.9 1.1-7.9-0.9-11.3-2.9q-0.4 2-0.9 4c-0.1 0.9-1.1 2.9-2.3 1.6-0.4-0.5-0.3-1.2-0.3-1.8q0.3-2.1 0.6-4.2c0.1-0.8 0.2-1.7 0.6-2.5 0.5-0.9 1.2-1.4 2.1-1.8z"/><path class="e" d="m702.8 197.9c1.2 3.8 2.1 8 4.1 11.5 1.5-0.6 17.8-6.7 18.1-5.9q-2.5-5.2-4.9-10.5c-1.3-2.8-2.7-5.6-4.9-7.7-2.3-2.1-5.6-3.3-8.4-2.1-1.9 0.7-3.3 2.4-4 4.3-1.2 3.3-1 7.2 0 10.4z"/><path class="o" d="m693.1 166.3c-1.9 0.9-3.6 1.8-5.5 2.4-0.3 0.1-0.6 0.1-0.8 0.2 0.8 1.2 1.8 2.4 2.9 3.3q0.3 0.4 0.7 0.6c1-0.5 1.9-1.3 2.5-2.3 0.3-0.6 0.5-1.4 0.6-2.2 0-0.1-0.2-2.1-0.4-2z"/><path class="p" d="m685 158.8c0.4 1.4 1.3 2.4 2 2.2 0.8-0.2 1-1.5 0.7-2.9-0.4-1.4-1.3-2.4-2.1-2.2-0.7 0.2-1 1.5-0.6 2.9z"/><path class="p" d="m683.6 154.2c1.5-1.1 3.6-0.7 4.9 0.5 1 0.8 2.4-0.6 1.5-1.5-2.1-1.7-5.1-2.3-7.4-0.8-1.1 0.8-0.1 2.5 1 1.8z"/><path fill-rule="evenodd" class="u" d="m584.4 574.9c-30.2 26.8-76.4 24.1-103.3-6.1-26.8-30.2-24-76.4 6.2-103.3 30.2-26.8 76.4-24 103.2 6.2 26.8 30.2 24.1 76.4-6.1 103.2zm-2.4-95.7c-22.6-25.5-61.7-27.9-87.2-5.2-25.6 22.7-27.9 61.8-5.2 87.3 22.6 25.5 61.7 27.9 87.3 5.2 25.5-22.7 27.8-61.8 5.1-87.3z"/><path class="u" d="m634.5 640.2l8.7-7.8-59.1-66.6-8.8 7.7z"/><g style="opacity:.2"><path class="F" d="m489.6 561.3c22.6 25.5 61.7 27.9 87.2 5.2 25.6-22.7 27.9-61.8 5.2-87.3-22.6-25.5-61.7-27.9-87.3-5.2-25.5 22.7-27.8 61.8-5.1 87.3z"/></g><g style="opacity:.2"><path class="F" d="m582.5 478.7c5.2 5.8 8.9 12.3 11.5 19.1-3.4 6.4-7.9 12.4-13.6 17.5-25.6 22.7-64.6 20.3-87.3-5.2-5.1-5.8-8.9-12.2-11.5-19 3.4-6.5 7.9-12.4 13.7-17.5 25.5-22.7 64.6-20.4 87.2 5.1z"/></g><path class="p" d="m663 674.4l10.9-9.6c1.6-1.5 1.8-4 0.3-5.6l-53.8-60.7c-1.5-1.6-4-1.8-5.7-0.3l-10.8 9.6c-1.7 1.5-1.8 4-0.4 5.7l53.9 60.6c1.4 1.7 4 1.8 5.6 0.3z"/><g style="display:none"><path class="G" d="m522.2 834.1q-1.3 1.4-2.3 2.9l-0.9-0.4c-0.1-0.6-0.7-1-1.3-1-0.7 0.1-1.1 0.7-1.1 1.4 0.1 0.6 0.7 1.1 1.4 1q0.2 0 0.3-0.1l0.9 0.5q-0.7 1.7-1 3.5l1.5 0.2c0.4-2.6 1.7-5 3.5-6.9z"/><path class="G" d="m533.1 829.5q-0.5 0-1 0.1l-0.1-1.3c0.3-0.3 0.6-0.8 0.5-1.3-0.1-0.8-0.8-1.3-1.6-1.2-0.8 0.1-1.3 0.8-1.3 1.6 0.1 0.5 0.4 0.9 0.9 1.1l0.1 1.2q-2.1 0.4-4.1 1.3l0.6 1.4q2.9-1.4 6-1.4 1.5 0 3 0.4l0.3-1.5q-1.6-0.4-3.3-0.4z"/><path class="G" d="m546.3 834.6c0.7-0.1 1.2-0.7 1.1-1.3-0.1-0.7-0.7-1.2-1.4-1.1-0.6 0.1-1 0.6-1 1.2l-0.9 0.8q-1.2-1.3-2.8-2.3l-0.8 1.3c2.3 1.4 4.1 3.4 5.2 5.8l1.3-0.6q-0.7-1.7-1.9-3.1l0.9-0.7q0.1 0 0.3 0z"/><path class="G" d="m532 849.9q-1.1 0.1-2.3 0.1c-1.7 0-3.4-0.1-4.9-0.3-0.8-0.2-1.7-0.4-2.6-0.6 2.1 3.7 6.2 6.2 10.8 6.2 5.7 0 10.5-3.8 11.9-9q-2.1 1.4-4.9 2.3c-2.4 0.7-5.1 1.2-8 1.3z"/><path fill-rule="evenodd" class="G" d="m545.2 843q0.1 0.5 0.1 1.1c-2.8 2.4-7.6 4-13.4 4.3-5.2 0.3-9.3-0.5-10.7-1.4q-0.2-1.3-0.2-2.6c0-6.5 5.4-11.8 12.1-11.8 6.1 0 11.3 4.4 12.1 10.4zm-12.7-1.1c0-2.1-1.7-3.7-3.7-3.7-2 0-3.7 1.6-3.7 3.7 0 2 1.7 3.7 3.7 3.7 2 0 3.7-1.7 3.7-3.7zm8.5-0.8c0-1.5-1.2-2.8-2.7-2.8-1.5 0-2.7 1.3-2.7 2.8 0 1.5 1.2 2.7 2.7 2.7 1.5 0 2.7-1.2 2.7-2.7z"/><path class="G" d="m565.1 836.3c-0.6-0.2-1.6-0.6-2.7-0.5-1.1 0.2-1.7 0.7-1.7 2v1.8h4.4v3.4h-4.4v10.9h-3.9v-10.9h-2.7v-3.4h2.7v-1.8c0-3.4 1.8-5.6 5.2-5.6 1.2 0 2.3 0.3 3.1 0.6z"/><path class="G" d="m574.5 843q-0.5-0.1-1-0.1c-1.8 0-3 1.1-3 3.2v7.8h-3.9v-14.3h3.8v1.5c0.9-1.3 2.2-1.9 4-1.9 0.8 0 1.7 0.2 2.2 0.7z"/><path fill-rule="evenodd" class="G" d="m589.9 846.7c0 0.5-0.1 1-0.1 1.3h-10.2c0.4 2.1 1.9 3 3.7 3 1.3 0 2.6-0.5 3.6-1.4l2.3 2.5c-1.6 1.5-3.7 2.2-6.1 2.2-4.4 0-7.4-3-7.4-7.5 0-4.5 2.9-7.6 7.2-7.6 4.1 0 7 3 7 7.5zm-10.3-1.3h6.4c-0.4-1.9-1.5-2.9-3.1-2.9-1.8 0-2.9 1.1-3.3 2.9z"/><path fill-rule="evenodd" class="G" d="m605.2 846.7c0 0.5 0 1-0.1 1.3h-10.2c0.5 2.1 1.9 3 3.7 3 1.3 0 2.6-0.5 3.7-1.4l2.2 2.5c-1.6 1.5-3.7 2.2-6.1 2.2-4.4 0-7.4-3-7.4-7.5 0-4.5 2.9-7.6 7.2-7.6 4.1 0 7 3 7 7.5zm-10.2-1.3h6.3c-0.4-1.9-1.5-2.9-3.1-2.9-1.8 0-2.9 1.1-3.2 2.9z"/><path fill-rule="evenodd" class="G" d="m621.9 846.7c0 4.3-3 7.6-7 7.6-1.9 0-3.3-0.8-4.2-1.9v7.4h-3.8v-20.2h3.7v1.5c1-1.1 2.3-1.9 4.3-1.9 4 0 7 3.2 7 7.5zm-11.4 0c0 2.3 1.5 4 3.7 4 2.3 0 3.7-1.8 3.7-4 0-2.2-1.4-3.9-3.7-3.9-2.2 0-3.7 1.7-3.7 3.9z"/><path class="G" d="m628.1 834.9c0 1.4-1.1 2.4-2.5 2.4-1.4 0-2.4-1-2.4-2.4 0-1.4 1-2.5 2.4-2.5 1.4 0 2.5 1.1 2.5 2.5zm-0.5 19h-3.9v-14.3h3.9z"/><path class="G" d="m634 844.7l5.4-5.1h4.7l-6.9 6.7 7 7.6h-4.8l-5.4-5.8v5.8h-3.9v-21.3h3.9z"/><path fill-rule="evenodd" class="G" d="m370.8 853.8v-2.1c-1.1 1.4-2.8 2.4-4.8 2.4-3.7 0-6.3-2.8-6.3-7.4 0-4.5 2.6-7.4 6.3-7.4 1.9 0 3.6 0.9 4.8 2.5v-7.6h2.2v19.6zm0-3.9v-6.4c-0.8-1.2-2.5-2.3-4.3-2.3-2.8 0-4.5 2.4-4.5 5.5 0 3.2 1.7 5.5 4.5 5.5 1.8 0 3.5-1 4.3-2.3z"/><path fill-rule="evenodd" class="G" d="m375.8 846.7c0-4.1 2.9-7.4 7-7.4 4.3 0 6.8 3.3 6.8 7.6v0.5h-11.5c0.2 2.7 2.1 4.9 5.1 4.9 1.6 0 3.3-0.6 4.4-1.8l1 1.5c-1.4 1.4-3.3 2.1-5.6 2.1-4.2 0-7.2-3-7.2-7.4zm7-5.6c-3.1 0-4.6 2.5-4.7 4.7h9.3c0-2.1-1.4-4.7-4.6-4.7z"/><path class="G" d="m391.2 851.9l1.1-1.6c0.9 1.1 2.7 2 4.7 2 2.1 0 3.3-1 3.3-2.4 0-3.4-8.8-1.3-8.8-6.6 0-2.1 1.9-4 5.3-4 2.4 0 4.1 0.9 5.3 2l-1.1 1.6c-0.8-1.1-2.4-1.8-4.2-1.8-1.9 0-3.1 0.9-3.1 2.2 0 3.1 8.7 1 8.7 6.6 0 2.3-1.9 4.2-5.5 4.2-2.3 0-4.3-0.7-5.7-2.2z"/><path class="G" d="m404.9 836.1c0-0.8 0.7-1.5 1.5-1.5 0.8 0 1.5 0.7 1.5 1.5 0 0.9-0.7 1.5-1.5 1.5-0.8 0-1.5-0.6-1.5-1.5zm0.4 17.7v-14.2h2.2v14.2z"/><path fill-rule="evenodd" class="G" d="m411.1 857.4l1.1-1.6c1.2 1.4 2.6 1.9 4.6 1.9 2.4 0 4.6-1.1 4.6-4.2v-2.1c-1.1 1.5-2.8 2.6-4.8 2.6-3.7 0-6.3-2.8-6.3-7.4 0-4.5 2.6-7.3 6.3-7.3 1.9 0 3.6 0.9 4.8 2.5v-2.2h2.2v13.8c0 4.7-3.3 6.1-6.8 6.1-2.4 0-4-0.4-5.7-2.1zm10.3-7.7v-6.2c-0.8-1.2-2.5-2.3-4.3-2.3-2.8 0-4.5 2.3-4.5 5.4 0 3.1 1.7 5.4 4.5 5.4 1.8 0 3.5-1.1 4.3-2.3z"/><path class="G" d="m436.8 853.8v-9.3c0-2.5-1.3-3.3-3.2-3.3-1.7 0-3.4 1.1-4.2 2.2v10.4h-2.2v-14.2h2.2v2.1c1-1.2 2.9-2.4 5.1-2.4 2.9 0 4.5 1.5 4.5 4.5v10z"/><path fill-rule="evenodd" class="G" d="m441.8 846.7c0-4.1 2.9-7.4 7-7.4 4.3 0 6.8 3.3 6.8 7.6v0.5h-11.5c0.2 2.7 2.1 4.9 5.1 4.9 1.6 0 3.3-0.6 4.4-1.8l1 1.5c-1.4 1.4-3.3 2.1-5.6 2.1-4.2 0-7.2-3-7.2-7.4zm7-5.6c-3.1 0-4.6 2.5-4.7 4.7h9.3c0-2.1-1.4-4.7-4.6-4.7z"/><path fill-rule="evenodd" class="G" d="m468.6 853.8v-2.1c-1 1.4-2.7 2.4-4.7 2.4-3.7 0-6.3-2.8-6.3-7.4 0-4.5 2.5-7.4 6.3-7.4 1.9 0 3.6 0.9 4.7 2.5v-7.6h2.2v19.6zm0-3.9v-6.4c-0.7-1.2-2.4-2.3-4.2-2.3-2.8 0-4.5 2.4-4.5 5.5 0 3.2 1.7 5.5 4.5 5.5 1.8 0 3.5-1 4.2-2.3z"/><path fill-rule="evenodd" class="G" d="m481.3 853.8v-19.6h2.2v7.6c1.2-1.6 2.9-2.5 4.8-2.5 3.7 0 6.3 2.9 6.3 7.4 0 4.6-2.6 7.4-6.3 7.4-2 0-3.7-1-4.8-2.4v2.1zm6.4-1.6c2.9 0 4.6-2.3 4.6-5.5 0-3.1-1.7-5.5-4.6-5.5-1.7 0-3.4 1.1-4.2 2.3v6.4c0.8 1.3 2.5 2.3 4.2 2.3z"/><path class="G" d="m497 857.3c0.3 0.2 0.9 0.3 1.2 0.3 1 0 1.6-0.4 2.1-1.5l1-2.2-6-14.3h2.4l4.7 11.6 4.7-11.6h2.4l-7.1 17c-0.8 2.1-2.3 2.9-4.1 2.9-0.5 0-1.2-0.1-1.6-0.2z"/></g></svg>