<svg version="1.2" xmlns="http://www.w3.org/2000/svg" viewBox="0 0 800 800" width="800" height="800"><defs><linearGradient id="P" gradientUnits="userSpaceOnUse"/><radialGradient id="g1" cx="0" cy="0" r="1" href="#P" gradientTransform="matrix(563.46,0,0,563.46,400,400)"><stop stop-color="#fff" stop-opacity="0"/><stop offset="1" stop-color="#1d1e1c" stop-opacity=".3"/></radialGradient><clipPath clipPathUnits="userSpaceOnUse" id="cp1"><path d="m613.09 171.52c0 12.33-10 22.32-22.33 22.32-12.33 0-22.33-9.99-22.33-22.32 0-12.34 10-22.33 22.33-22.33 12.33 0 22.33 9.99 22.33 22.33z"/></clipPath></defs><style>.a{display:none;fill:#2f2c52}.b{fill:none;stroke:#f1f1f1;stroke-linecap:round;stroke-linejoin:round;stroke-width:4}.c{mix-blend-mode:multiply;display:none;fill:url(#g1)}.d{fill:#fff}.e{fill:#f05a24}.f{fill:#f6921e}.g{fill:#cbcbcb}.h{fill:#f1f1f1}.i{fill:#808080}.j{fill:#c0272d}.k{opacity:.5;fill:#f6921e}.l{fill:#faaf3b}.m{fill:#b2b2b2}.n{fill:#989898}.o{opacity:.5;mix-blend-mode:multiply;fill:#f6921e}.p{fill:#666}.q{fill:#ec1c24}.r{opacity:.5;mix-blend-mode:multiply;fill:#c0272d}.s{opacity:.5;mix-blend-mode:multiply;fill:#f1f1f1}</style><path class="a" d="m800 800h-800v-800h800z"/><path class="b" d="m421 527.4v29.3h-88.8v20.2"/><path class="b" d="m431 527.4v31.4h149.9v57.3"/><path class="b" d="m547.3 502h125.7v69.8"/><path class="b" d="m673 524h62.1v-21.2"/><path class="b" d="m556.2 409.1h94.1v-75.1h67.4"/><path class="b" d="m707.5 254v45.3h-94.8v55.8h-25.2v52.8"/><path class="b" d="m490.7 332.8v-75.3h56.6 43.5v-82.8h-53.9v-37.6h-46.2"/><path class="b" d="m365.1 191.1v97.3h-103.4v-59.3h-70.3v114.3h12.7v135.6h80.2"/><path class="b" d="m300.4 510h-190.6-39.8v87.4"/><path class="b" d="m83.2 400.1v108.1"/><path class="b" d="m103.3 294.1v45.8h88.1"/><path class="b" d="m127.3 193.8h238"/><path class="c" d="m800 800h-800v-800h800z"/><g style="display:none"><path class="d" d="m398 771.6h0.7v-0.9q0-1.5 0.4-2.3 0.3-0.9 1.2-1.3 0.9-0.4 2.5-0.4 2.7 0 2.7 1.4 0 0.4-0.3 0.7-0.3 0.3-0.6 0.3-0.2 0-0.7-0.1-0.4 0-0.7 0-0.9 0-1.1 0.5-0.3 0.5-0.3 1.4v0.7h0.8q1.8 0 1.8 1.1 0 0.8-0.5 1-0.5 0.2-1.3 0.2h-0.8v8.3q0 0.9-0.4 1.4-0.5 0.5-1.2 0.5-0.6 0-1.1-0.5-0.4-0.5-0.4-1.4v-8.3h-0.9q-0.7 0-1-0.3-0.4-0.3-0.4-0.8 0-1.2 1.6-1.2z"/><path class="d" d="m408.2 779.6v2.6q0 1-0.4 1.4-0.5 0.5-1.2 0.5-0.7 0-1.1-0.5-0.4-0.5-0.4-1.4v-8.7q0-2.1 1.5-2.1 0.8 0 1.1 0.5 0.4 0.5 0.4 1.4 0.6-0.9 1.1-1.4 0.6-0.5 1.6-0.5 1 0 1.9 0.5 1 0.5 1 1.3 0 0.5-0.4 0.9-0.4 0.4-0.9 0.4-0.2 0-0.8-0.2-0.7-0.2-1.2-0.2-0.7 0-1.1 0.3-0.4 0.4-0.7 1.1-0.2 0.7-0.3 1.7-0.1 1-0.1 2.4z"/><path fill-rule="evenodd" class="d" d="m422.6 778.5h-6.1q0 1.1 0.4 1.9 0.4 0.8 1.1 1.2 0.7 0.4 1.5 0.4 0.6 0 1.1-0.1 0.4-0.1 0.9-0.4 0.4-0.3 0.8-0.6 0.3-0.3 0.9-0.9 0.3-0.2 0.7-0.2 0.5 0 0.8 0.3 0.3 0.2 0.3 0.7 0 0.4-0.3 1-0.4 0.6-1 1.1-0.7 0.5-1.7 0.9-1 0.3-2.4 0.3-3 0-4.6-1.7-1.7-1.7-1.7-4.7 0-1.4 0.4-2.6 0.4-1.2 1.2-2 0.8-0.8 1.9-1.3 1.2-0.5 2.6-0.5 1.8 0 3.2 0.8 1.3 0.8 1.9 2 0.7 1.3 0.7 2.5 0 1.2-0.7 1.6-0.7 0.3-1.9 0.3zm-6.1-1.8h5.7q-0.2-1.6-0.9-2.4-0.8-0.8-2-0.8-1.2 0-1.9 0.8-0.8 0.8-0.9 2.4z"/><path fill-rule="evenodd" class="d" d="m435.6 778.5h-6.1q0 1.1 0.4 1.9 0.4 0.8 1.1 1.2 0.7 0.4 1.6 0.4 0.5 0 1-0.1 0.5-0.1 0.9-0.4 0.4-0.3 0.8-0.6 0.4-0.3 1-0.9 0.2-0.2 0.6-0.2 0.5 0 0.8 0.3 0.3 0.2 0.3 0.7 0 0.4-0.3 1-0.3 0.6-1 1.1-0.7 0.5-1.7 0.9-1 0.3-2.3 0.3-3.1 0-4.7-1.7-1.7-1.7-1.7-4.7 0-1.4 0.4-2.6 0.4-1.2 1.2-2 0.8-0.8 2-1.3 1.1-0.5 2.5-0.5 1.9 0 3.2 0.8 1.3 0.8 1.9 2 0.7 1.3 0.7 2.5 0 1.2-0.7 1.6-0.7 0.3-1.9 0.3zm-6.1-1.8h5.7q-0.1-1.6-0.9-2.4-0.7-0.8-2-0.8-1.1 0-1.9 0.8-0.7 0.8-0.9 2.4z"/><path fill-rule="evenodd" class="d" d="m442.5 773.1v0.4q0.9-1.1 1.8-1.6 1-0.5 2.2-0.5 1.4 0 2.6 0.7 1.3 0.8 2 2.2 0.7 1.5 0.7 3.4 0 1.5-0.4 2.7-0.4 1.2-1.2 2-0.7 0.8-1.6 1.3-1 0.4-2.1 0.4-1.4 0-2.3-0.5-0.9-0.6-1.7-1.6v4.7q0 2.1-1.5 2.1-0.9 0-1.2-0.6-0.3-0.5-0.3-1.5v-13.6q0-0.8 0.4-1.3 0.4-0.4 1.1-0.4 0.6 0 1.1 0.4 0.4 0.5 0.4 1.3zm6.1 4.6q0-1.3-0.4-2.1-0.3-0.9-1-1.4-0.7-0.5-1.5-0.5-1.3 0-2.2 1-0.9 1.1-0.9 3 0 1.9 0.9 2.9 0.9 1.1 2.2 1.1 0.8 0 1.5-0.5 0.6-0.4 1-1.3 0.4-0.9 0.4-2.2z"/><path class="d" d="m454.9 769.9q-0.6 0-1.1-0.4-0.5-0.4-0.5-1.1 0-0.7 0.5-1.1 0.5-0.4 1.1-0.4 0.6 0 1.1 0.3 0.5 0.4 0.5 1.2 0 0.7-0.5 1.1-0.4 0.4-1.1 0.4zm1.6 3.2v9.1q0 0.9-0.5 1.4-0.4 0.5-1.1 0.5-0.7 0-1.1-0.5-0.5-0.5-0.5-1.4v-9q0-0.9 0.5-1.4 0.4-0.4 1.1-0.4 0.7 0 1.1 0.4 0.5 0.5 0.5 1.3z"/><path class="d" d="m466.6 782.7l-2.8-4.6-1.7 1.6v2.5q0 0.9-0.5 1.4-0.4 0.5-1.1 0.5-0.7 0-1.1-0.5-0.4-0.5-0.4-1.4v-13.4q0-1 0.4-1.5 0.4-0.6 1.1-0.6 0.8 0 1.2 0.5 0.4 0.5 0.4 1.5v7.6l3.5-3.7q0.7-0.7 1-1 0.4-0.2 0.9-0.2 0.5 0 0.9 0.3 0.4 0.4 0.4 1 0 0.7-1.2 1.8l-1.7 1.5 3.2 5.1q0.4 0.6 0.5 0.8 0.2 0.3 0.2 0.6 0 0.7-0.4 1.2-0.4 0.4-1.1 0.4-0.6 0-0.9-0.3-0.3-0.3-0.8-1.1z"/><path class="d" d="m473.4 784.1q-0.7 0-1.3-0.5-0.5-0.4-0.5-1.2 0-0.7 0.5-1.2 0.5-0.5 1.2-0.5 0.8 0 1.3 0.4 0.5 0.6 0.5 1.3 0 0.8-0.5 1.2-0.5 0.5-1.2 0.5z"/><path class="d" d="m488.9 780.2q0 0.6-0.3 1.3-0.4 0.6-1.1 1.2-0.7 0.6-1.8 1-1.1 0.4-2.4 0.4-2.9 0-4.6-1.7-1.6-1.7-1.6-4.5 0-2 0.7-3.5 0.8-1.4 2.2-2.2 1.4-0.9 3.4-0.9 1.2 0 2.2 0.4 1 0.4 1.7 0.9 0.7 0.6 1.1 1.2 0.4 0.7 0.4 1.2 0 0.6-0.4 1-0.5 0.4-1.1 0.4-0.3 0-0.6-0.2-0.3-0.3-0.6-0.7-0.6-0.9-1.2-1.3-0.6-0.4-1.6-0.4-1.3 0-2.2 1-0.9 1.1-0.9 3 0 0.9 0.3 1.6 0.2 0.8 0.6 1.3 0.4 0.5 1 0.8 0.6 0.3 1.3 0.3 0.9 0 1.6-0.5 0.7-0.4 1.2-1.3 0.3-0.5 0.6-0.8 0.3-0.3 0.8-0.3 0.6 0 1 0.4 0.3 0.4 0.3 0.9z"/><path fill-rule="evenodd" class="d" d="m502.5 777.7q0 1.4-0.5 2.6-0.4 1.2-1.2 2-0.9 0.9-2 1.4-1.2 0.4-2.6 0.4-1.4 0-2.6-0.5-1.1-0.4-1.9-1.3-0.8-0.8-1.3-2-0.4-1.2-0.4-2.6 0-1.4 0.4-2.6 0.5-1.2 1.3-2 0.8-0.8 1.9-1.3 1.2-0.4 2.6-0.4 1.4 0 2.6 0.4 1.1 0.5 2 1.3 0.8 0.9 1.2 2.1 0.5 1.1 0.5 2.5zm-3.2 0q0-1.9-0.8-2.9-0.9-1.1-2.3-1.1-0.9 0-1.6 0.5-0.7 0.4-1.1 1.4-0.4 0.9-0.4 2.1 0 1.3 0.4 2.2 0.4 0.9 1.1 1.4 0.7 0.5 1.6 0.5 1.4 0 2.3-1.1 0.8-1.1 0.8-3z"/><path class="d" d="m514.4 778v4.1q0 1-0.4 1.5-0.5 0.5-1.2 0.5-0.7 0-1.2-0.5-0.4-0.5-0.4-1.5v-5q0-1.1-0.1-1.8-0.1-0.6-0.4-1.1-0.4-0.4-1.2-0.4-1.5 0-2 1.1-0.5 1-0.5 3v4.2q0 1-0.4 1.5-0.5 0.5-1.2 0.5-0.7 0-1.1-0.5-0.5-0.5-0.5-1.5v-8.9q0-0.9 0.4-1.4 0.4-0.4 1.1-0.4 0.6 0 1.1 0.4 0.4 0.4 0.4 1.2v0.3q0.8-1 1.7-1.4 1-0.5 2.1-0.5 1.2 0 2 0.5 0.9 0.4 1.4 1.4 0.8-1 1.7-1.4 0.9-0.5 2-0.5 1.3 0 2.2 0.5 1 0.5 1.4 1.4 0.4 0.9 0.4 2.7v6.1q0 1-0.4 1.5-0.5 0.5-1.2 0.5-0.7 0-1.2-0.5-0.4-0.5-0.4-1.5v-5.2q0-1-0.1-1.7-0.1-0.6-0.5-1-0.3-0.4-1.1-0.4-0.6 0-1.2 0.4-0.5 0.3-0.9 1-0.3 0.8-0.3 2.8z"/><path class="d" d="m376.3 785.2c0 0-1.7-0.3-3.4-2.1-1.7-1.8-2-3.8-2-3.8 0 0 2.2 0.5 3.7 0.7 2.7 0.3 5.1 0.1 6.3 0 2.4-0.3 3.8-0.7 4.3-0.9 3.2-0.7 6.2-2.8 6.2-2.8 0 0 0.4 2.4-1.4 5-0.7 1.1-2.1 2.3-3.7 3.1-5.5 2.3-10 0.8-10 0.8z"/><path fill-rule="evenodd" class="d" d="m391.4 775.8c0 0-2.3 1.7-5.6 2.7-2.3 0.7-4.4 1.1-8.7 1.2-2.7 0-6.2-0.7-6.2-0.7 0 0-0.7-2.3-0.3-4.4 0.5-2.7 2.2-4.1 2.5-4.4 3.2-3 8.6-3.2 9.6-3.1 4 0.5 5.9 3.9 6.5 4.6 0.6 0.7 2.2 4.1 2.2 4.1zm-11.4-2.5c-0.1-1.8-1.7-3.1-3.5-3-1.8 0.1-3.2 1.7-3.1 3.5 0.1 1.8 1.7 3.1 3.5 3 1.8-0.1 3.2-1.7 3.1-3.5zm8-1c0-1.1-1-2-2.1-1.9-1.2 0.1-2 1-2 2.2 0.1 1.1 1.1 1.9 2.2 1.9 1.2-0.1 2-1.1 1.9-2.2z"/><path class="d" d="m387.7 769.4l1-1.3c0 0 1.4 0.7 2.4 2 0.9 1.4 1.5 2.6 1.5 2.6l-1.7 1c0 0-0.6-1.3-1.4-2.3-0.8-1-1.8-2-1.8-2z"/><path class="d" d="m390.9 770.2c0.3-0.1 0.7-0.2 0.7-0.5 0-0.4-0.3-1.2 0.5-1.4 0.7-0.3 0.3 0.2 0.1 0.5-0.3 0.4-0.2 0.6-0.2 1 0 0.5-0.3 0.7-0.8 0.9-0.5 0.3-0.5-0.3-0.3-0.5z"/><path class="d" d="m371.9 771c0 0-1.2 1.4-1.5 2.6-0.3 1.3-0.2 2.8-0.2 2.8l-1.8-0.6c0 0-0.1-1.7 0.7-3.1 0.9-1.6 2-2.3 2-2.3z"/><path class="d" d="m369.3 772.6c-0.3-0.2-0.3-0.7-0.6-1-0.2-0.3-0.2-0.1-0.8-0.1-0.5 0-0.5-0.2-0.7-0.4-0.1-0.1-0.2 0.4-0.2 0.4 0 0 0.1 0.5 0.7 0.5 0.5 0 0.5-0.2 0.8 0.3 0.2 0.5 0.7 0.9 0.7 0.9 0 0 0.4-0.4 0.1-0.6z"/><path class="d" d="m378.7 765.9c2.9-0.7 4.8 0.2 4.8 0.2l-0.2 0.8c0 0-2.1-0.1-3.8 0.1-1.7 0.3-2.5 0.8-2.5 0.8l-0.3-0.9c0 0 0.8-0.6 2-1z"/><path class="d" d="m379.6 764.8l0.4-0.2 0.5 1.5-0.4 0.1z"/><path class="d" d="m392.4 767.5c0.5-0.1 0.8 0.2 0.8 0.7 0.1 0.4-0.3 0.7-0.7 0.7-0.4 0.1-0.7-0.2-0.8-0.7 0-0.4 0.3-0.7 0.7-0.7z"/><path class="d" d="m366.8 770.3c0.4-0.1 0.8 0.3 0.8 0.7 0 0.4-0.3 0.7-0.7 0.8-0.4 0-0.7-0.3-0.8-0.7 0-0.4 0.3-0.8 0.7-0.8z"/><path class="d" d="m380 762.9c0.6 0 1.2 0.4 1.2 1.1 0.1 0.6-0.4 1.2-1.1 1.3-0.7 0-1.2-0.5-1.3-1.2 0-0.6 0.5-1.2 1.2-1.2z"/></g><g style="display:none"><path fill-rule="evenodd" class="d" d="m286.8 782.4c0 0.7-0.5 1.2-1.1 1.2-0.6 0-1-0.3-1.1-0.9-0.4 0.7-1.3 1-2 1-2.2 0-3.6-2.1-3.6-4.1 0-2.2 1.2-4.4 3.5-4.4 0.8 0 1.5 0.3 2.1 0.8v-3c0-0.7 0.4-1.2 1.1-1.2 0.6 0 1.1 0.5 1.1 1.2zm-3.9-5.1c-1.2 0-1.7 1.2-1.7 2.2 0 1 0.5 2.2 1.7 2.2 1.2 0 1.7-1.2 1.7-2.3 0-1-0.6-2.1-1.7-2.1z"/><path fill-rule="evenodd" class="d" d="m289.8 780.2c0.1 1.1 1 1.6 2.1 1.6 1.1 0 1.9-0.9 2.4-0.9 0.5 0 0.9 0.5 0.9 0.9 0 1-1.9 1.9-3.5 1.9-2.5 0-4.1-1.8-4.1-4.2 0-2.2 1.6-4.3 3.9-4.3 2.3 0 3.9 2.2 3.9 4 0 0.7-0.3 1-0.9 1zm3.4-1.5c-0.1-0.9-0.7-1.6-1.8-1.6-0.9 0-1.6 0.7-1.7 1.6z"/><path class="d" d="m300.8 777.8c-0.4 0-1.3-0.6-2-0.6-0.4 0-0.7 0.1-0.7 0.6 0 1 3.8 0.8 3.8 3.3 0 1.5-1.2 2.6-3.1 2.6-1.3 0-3.1-0.7-3.1-1.7 0-0.3 0.3-1 1-1 0.8 0 1.2 0.8 2.2 0.8 0.7 0 0.9-0.2 0.9-0.7 0-1-3.8-0.8-3.8-3.3 0-1.5 1.2-2.6 2.9-2.6 1.1 0 2.8 0.5 2.8 1.6 0 0.5-0.4 1-0.9 1z"/><path class="d" d="m305 773.2c0 0.7-0.6 1.3-1.3 1.3-0.6 0-1.2-0.6-1.2-1.3 0-0.6 0.6-1.2 1.2-1.2 0.7 0 1.3 0.6 1.3 1.2zm-2.4 3.3c0-0.7 0.5-1.2 1.1-1.2 0.7 0 1.1 0.5 1.1 1.2v5.9c0 0.7-0.4 1.2-1.1 1.2-0.6 0-1.1-0.5-1.1-1.2z"/><path fill-rule="evenodd" class="d" d="m313.5 782.9c0 2.6-1.7 3.9-4.2 3.9-0.9 0-3.5-0.4-3.5-1.6 0-0.4 0.5-1 0.9-1 0.7 0 1.5 0.7 2.8 0.7 1 0 1.8-0.6 1.8-1.7v-0.5c-0.5 0.6-1.2 1-2.2 1-2.3 0-3.4-2-3.4-4.2 0-2.2 1.4-4.3 3.6-4.3 0.8 0 1.6 0.4 2 1 0.2-0.5 0.5-0.9 1.1-0.9 0.7 0 1.1 0.5 1.1 1.2zm-3.9-5.6c-1.1 0-1.7 1.2-1.7 2.2 0 1.2 0.6 2.3 1.7 2.3 1.2 0 1.7-1.1 1.7-2.2 0-1.1-0.5-2.3-1.7-2.3z"/><path class="d" d="m314.8 776.5c0-0.7 0.4-1.2 1-1.2 0.6 0 1 0.3 1.1 0.8 0.4-0.6 1-0.9 2.1-0.9 1.7 0 3 1.1 3 3v4.2c0 0.7-0.5 1.2-1.1 1.2-0.7 0-1.1-0.5-1.1-1.2v-3.8c0-1.1-0.7-1.5-1.5-1.5-0.9 0-1.4 0.6-1.4 1.5v3.8c0 0.7-0.4 1.2-1.1 1.2-0.6 0-1-0.5-1-1.2z"/><path fill-rule="evenodd" class="d" d="m325 780.2c0.1 1.1 1 1.6 2 1.6 1.2 0 1.9-0.9 2.5-0.9 0.5 0 0.9 0.5 0.9 0.9 0 1-1.9 1.9-3.6 1.9-2.4 0-4.1-1.8-4.1-4.2 0-2.2 1.6-4.3 4-4.3 2.3 0 3.9 2.2 3.9 4 0 0.7-0.3 1-1 1zm3.5-1.5c-0.2-0.9-0.8-1.6-1.8-1.6-1 0-1.6 0.7-1.7 1.6z"/><path fill-rule="evenodd" class="d" d="m338.8 782.4c0 0.7-0.4 1.2-1.1 1.2-0.6 0-0.9-0.3-1-0.9-0.5 0.7-1.3 1-2.1 1-2.2 0-3.5-2.1-3.5-4.1 0-2.2 1.1-4.4 3.5-4.4 0.7 0 1.5 0.3 2.1 0.8v-3c0-0.7 0.4-1.2 1-1.2 0.7 0 1.1 0.5 1.1 1.2zm-3.9-5.1c-1.1 0-1.7 1.2-1.7 2.2 0 1 0.6 2.2 1.7 2.2 1.2 0 1.8-1.2 1.8-2.3 0-1-0.6-2.1-1.8-2.1z"/><path fill-rule="evenodd" class="d" d="m344.2 773c0-0.7 0.4-1.2 1.1-1.2 0.6 0 1.1 0.5 1.1 1.2v3c0.5-0.5 1.3-0.8 2-0.8 2.4 0 3.6 2.2 3.6 4.4 0 2-1.4 4.1-3.6 4.1-0.8 0-1.6-0.3-2-1-0.2 0.6-0.5 0.9-1.1 0.9-0.7 0-1.1-0.5-1.1-1.2zm3.9 8.6c1.1 0 1.7-1.1 1.7-2.2 0-1-0.6-2.2-1.7-2.2-1.2 0-1.7 1.1-1.7 2.2 0 1 0.5 2.2 1.7 2.2z"/><path class="d" d="m352.3 776.8q-0.1-0.2-0.1-0.5c0-0.6 0.6-1 1.1-1 0.5 0 0.9 0.3 1.1 0.8l1.5 4.1 1.6-4.1c0.2-0.5 0.5-0.8 1.1-0.8 0.4 0 1 0.4 1 1q0 0.3-0.1 0.5l-3.7 9.2c-0.1 0.4-0.5 0.8-1 0.8-0.7 0-1.1-0.5-1.1-0.9 0-0.2 0-0.5 0.1-0.7l1-2.3z"/></g><path class="e" d="m564.9 530.9h-289.6v-200.7h289.6z"/><path class="f" d="m562.4 527.4h-284.6v-197.2h284.6z"/><path class="g" d="m556.2 330.2h-135.2v193.1h135.2z"/><path class="h" d="m421 523.3c0 0 1.7-12.1 11-12.1 9.4 0 124.2 0 124.2 0v-190h-125.2c0 0-10 1.1-10 9.7 0 8.7 0 192.4 0 192.4z"/><path class="i" d="m536.9 492.2h-100.9v2.4h100.9z"/><path class="i" d="m536.9 485.6h-100.9v2.4h100.9z"/><path class="i" d="m536.9 479h-100.9v2.4h100.9z"/><path class="i" d="m536.9 472.4h-100.9v2.5h100.9z"/><path class="i" d="m536.9 465.9h-100.9v2.4h100.9z"/><path class="i" d="m536.9 459.3h-100.9v2.4h100.9z"/><path class="i" d="m536.9 452.7h-100.9v2.4h100.9z"/><path class="i" d="m536.9 446.2h-100.9v2.4h100.9z"/><path class="i" d="m536.9 439.6h-100.9v2.4h100.9z"/><path class="i" d="m536.9 433h-100.9v2.4h100.9z"/><path class="i" d="m536.9 426.4h-100.9v2.5h100.9z"/><path class="i" d="m536.9 419.9h-100.9v2.4h100.9z"/><path class="i" d="m536.9 413.3h-100.9v2.4h100.9z"/><path class="i" d="m536.9 406.7h-100.9v2.4h100.9z"/><path class="i" d="m536.9 400.1h-100.9v2.5h100.9z"/><path class="i" d="m536.9 393.6h-100.9v2.4h100.9z"/><path class="i" d="m536.9 387h-100.9v2.4h100.9z"/><path class="i" d="m536.9 380.4h-100.9v2.4h100.9z"/><path class="i" d="m536.9 373.8h-100.9v2.5h100.9z"/><path class="i" d="m536.9 367.3h-100.9v2.4h100.9z"/><path class="i" d="m536.9 360.7h-100.9v2.4h100.9z"/><path class="i" d="m536.9 354.1h-100.9v2.4h100.9z"/><path class="i" d="m536.9 347.6h-100.9v2.4h100.9z"/><path class="i" d="m536.9 341h-100.9v2.4h100.9z"/><path class="g" d="m285.7 330.2h135.3v193.1h-135.3z"/><path class="h" d="m421 523.3c0 0-1.8-12.1-11.1-12.1-9.3 0-124.2 0-124.2 0v-190h125.2c0 0 10.1 1.1 10.1 9.7 0 8.7 0 192.4 0 192.4z"/><path class="i" d="m305.1 492.2h100.9v2.4h-100.9z"/><path class="i" d="m305.1 485.6h100.9v2.4h-100.9z"/><path class="i" d="m305.1 479h100.9v2.4h-100.9z"/><path class="i" d="m305.1 472.4h100.9v2.5h-100.9z"/><path class="i" d="m305.1 465.9h100.9v2.4h-100.9z"/><path class="i" d="m305.1 459.3h100.9v2.4h-100.9z"/><path class="i" d="m305.1 452.7h100.9v2.4h-100.9z"/><path class="i" d="m305.1 446.2h100.9v2.4h-100.9z"/><path class="i" d="m305.1 439.6h100.9v2.4h-100.9z"/><path class="i" d="m305.1 433h100.9v2.4h-100.9z"/><path class="i" d="m305.1 426.4h100.9v2.5h-100.9z"/><path class="i" d="m305.1 419.9h100.9v2.4h-100.9z"/><path class="i" d="m305.1 413.3h100.9v2.4h-100.9z"/><path class="i" d="m305.1 406.7h100.9v2.4h-100.9z"/><path class="i" d="m305.1 400.1h100.9v2.5h-100.9z"/><path class="i" d="m305.1 393.6h100.9v2.4h-100.9z"/><path class="i" d="m305.1 387h100.9v2.4h-100.9z"/><path class="i" d="m353.3 380.4h52.7v2.4h-52.7z"/><path class="i" d="m353.3 373.8h52.7v2.5h-52.7z"/><path class="i" d="m353.3 367.3h52.7v2.4h-52.7z"/><path class="i" d="m353.3 360.7h52.7v2.4h-52.7z"/><path class="i" d="m353.3 354.1h52.7v2.4h-52.7z"/><path class="i" d="m353.3 347.6h52.7v2.4h-52.7z"/><path class="i" d="m353.3 341h52.7v2.4h-52.7z"/><path class="i" d="m348.9 382.8h-43.8v-41.8h43.8z"/><path class="f" d="m134 293.2c0-7.9-6.4-14.3-14.3-14.3-1.2 0-2.3 0.2-3.4 0.5-1.2-5.8-6.3-10.1-12.4-10.1-5.2 0-9.8 3.2-11.6 7.8-1.2-0.4-2.4-0.6-3.6-0.6-5.9 0-10.8 4.8-10.8 10.7q0.1 0.1 0.1 0.3c-4.8 0.8-8.4 4.9-8.4 9.9 0 5.5 4.5 10 10 10h40.8c7.5-0.4 13.6-6.6 13.6-14.2z"/><path class="h" d="m103.3 287.7c0-6 4.8-10.9 10.8-10.9 1 0 1.8 0.1 2.7 0.4 0.9-4.4 4.7-7.7 9.4-7.7 4 0 7.5 2.4 8.9 6 0.9-0.4 1.8-0.6 2.7-0.6 4.6 0 8.2 3.7 8.2 8.2q0 0.1 0 0.2c3.6 0.6 6.4 3.8 6.4 7.6 0 4.2-3.4 7.7-7.6 7.7h-31.2v-0.1c-5.7-0.3-10.3-5-10.3-10.8z"/><path class="j" d="m207.1 423.9v-14.7h-6.4v14.7h-12.6v4.2h12.6 6.4 12.5v-4.2z"/><path fill-rule="evenodd" class="j" d="m241.8 376.6c0 8.7-7 15.8-15.7 15.8h-44.4c-8.7 0-15.8-7.1-15.8-15.8 0-8.7 0-15.8 0-15.8h75.9c0 0 0 7.1 0 15.8zm-72.3-12.2v12.2c0 6.7 5.5 12.2 12.2 12.2h44.4c6.7 0 12.2-5.5 12.2-12.2v-12.2z"/><path class="h" d="m180.6 355.1v36.3c0 12.9 10.5 23.4 23.5 23.4 12.9 0 23.4-10.5 23.4-23.4v-36.3z"/><path class="h" d="m227.5 442.6h-46.9v-14.5h46.9z"/><path class="j" d="m203.9 369l4.6 9.4 10.4 1.5-7.5 7.4 1.8 10.3-9.3-4.9-9.3 4.9 1.8-10.3-7.6-7.4 10.4-1.5z"/><path class="j" d="m200.7 414.5v9.4h-12.6v4.2h12.6 6.4 12.5v-4.2h-12.5v-9.3q-1.5 0.2-3 0.2-1.8 0-3.4-0.3z"/><path class="j" d="m180.6 388.7c-6.2-0.6-11.1-5.7-11.1-12.1v-12.2h11.1v-3.6h-14.7c0 0 0 7.1 0 15.8 0 8.4 6.5 15.1 14.8 15.7q-0.1-0.5-0.1-0.9z"/><path class="j" d="m227.5 360.8v3.6h10.8v12.2c0 6.2-4.7 11.3-10.8 12.1v2.7q0 0.4 0 0.8c8-0.7 14.3-7.4 14.3-15.6 0-8.7 0-15.8 0-15.8z"/><path fill-rule="evenodd" class="f" d="m227.5 391.4q0 0.4 0 0.8c-0.4 11.6-9.2 21-20.4 22.4q-1.5 0.2-3 0.2-1.8 0-3.4-0.3c-11.1-1.6-19.6-10.8-20-22.2q-0.1-0.5-0.1-0.9v-36.3h46.9zm-14.3 6.3l-1.8-10.3 7.5-7.4-10.4-1.5-4.6-9.4-4.7 9.4-10.4 1.5 7.6 7.4-1.8 10.3 9.3-4.9z"/><path class="f" d="m200.7 428.1h-12.6-7.5v14.5h46.9v-14.5h-7.9-12.5z"/><path class="j" d="m211.4 387.3l7.5-7.4-10.4-1.5-4.6-9.4-4.7 9.4-10.4 1.5 7.6 7.4-1.8 10.3 9.3-4.9 9.3 4.9z"/><g style="opacity:.5;mix-blend-mode:multiply"><path class="j" d="m207.1 423.9v-9.3q-1.5 0.2-3 0.2-0.2 0-0.3 0v13.3h15.8v-4.2z"/><path class="j" d="m227.5 360.8v3.6h10.8v12.2c0 6.2-4.7 11.3-10.8 12.1v2.7q0 0.4 0 0.8c8-0.7 14.3-7.4 14.3-15.6 0-8.7 0-15.8 0-15.8z"/><path class="k" d="m203.8 355.1v14.1l0.1-0.2 4.6 9.4 10.4 1.5-7.5 7.4 1.8 10.3-9.3-4.9-0.1 0.1v22q0.1 0 0.3 0 1.5 0 3-0.2c11.2-1.4 20-10.8 20.4-22.4q0-0.4 0-0.8v-36.3z"/><path class="k" d="m203.8 428.1v14.5h23.7v-14.5z"/><path class="j" d="m218.9 379.9l-10.4-1.5-4.6-9.4-0.1 0.2v23.6l0.1-0.1 9.3 4.9-1.8-10.3z"/></g><path class="l" d="m286.6 297c-1.3 0-2.3-1-2.3-2.3v-15.7c0-1.3 1-2.3 2.3-2.3h13.9c1.2 0 2.2 1 2.2 2.3v15.7c0 1.3-1 2.3-2.2 2.3z"/><path class="m" d="m295.5 297v-20.3h9.9v20.3z"/><path class="j" d="m305.7 297v-20.3h87.4v20.3z"/><path class="n" d="m305.7 298.6c-1.3 0-2.3-1-2.3-2.2v-19c0-1.3 1-2.3 2.3-2.3 1.3 0 2.3 1 2.3 2.3v19c0 1.2-1 2.2-2.3 2.2z"/><path class="n" d="m295.5 298.6c-1.3 0-2.3-1-2.3-2.2v-19c0-1.3 1-2.3 2.3-2.3 1.3 0 2.3 1 2.3 2.3v19c0 1.2-1 2.2-2.3 2.2z"/><path class="l" d="m393.1 276.7l17.4 10.2-17.4 10.1z"/><path class="j" d="m404.1 290.6l6.4-3.7-6.4-3.8z"/><g style="opacity:.5;mix-blend-mode:multiply"><path class="l" d="m302.7 294.7v-8h-18.4v8c0 1.3 1 2.3 2.3 2.3h13.9c1.2 0 2.2-1 2.2-2.3z"/><path class="m" d="m305.4 286.7h-9.9v10.3h9.9z"/><path class="j" d="m393.1 286.7h-87.4v10.3h87.4z"/><path class="n" d="m308 296.4v-9.7h-4.6v9.7c0 1.2 1 2.2 2.3 2.2 1.3 0 2.3-1 2.3-2.2z"/><path class="n" d="m297.8 296.4v-9.7h-4.6v9.7c0 1.2 1 2.2 2.3 2.2 1.3 0 2.3-1 2.3-2.2z"/><path class="l" d="m393.1 286.7v10.3l17.4-10.1-0.3-0.2z"/></g><path class="e" d="m711.8 471.2c-1 2.6-1.5 5.3-1.5 8.2 0 12.9 10.4 23.4 23.4 23.4 12.9 0 23.3-10.5 23.3-23.4 0-2.9-0.5-5.6-1.5-8.2z"/><path fill-rule="evenodd" class="h" d="m742.7 454.9c9.5 3.7 16.4 12.9 16.4 23.8 0 14-11.4 25.4-25.4 25.4-14.1 0-25.5-11.4-25.5-25.4 0-10.9 6.9-20.1 16.5-23.8v-31.1h18zm-13.7-26.7v29.7l-2.8 1.1c-8.2 3.1-13.6 11-13.6 19.7 0 11.6 9.4 21 21.1 21 11.6 0 21-9.4 21-21 0-8.7-5.4-16.6-13.6-19.7l-2.8-1.1v-29.7z"/><path class="h" d="m742.2 464.8c0 1.8-1.5 3.3-3.3 3.3-1.8 0-3.2-1.5-3.2-3.3 0-1.8 1.4-3.2 3.2-3.2 1.8 0 3.3 1.4 3.3 3.2z"/><path class="h" d="m736.5 445.8c0 1.3-1 2.3-2.3 2.3-1.2 0-2.2-1-2.2-2.3 0-1.2 1-2.3 2.2-2.3 1.3 0 2.3 1.1 2.3 2.3z"/><path class="h" d="m734.8 404.1c0 1.5-1.2 2.7-2.7 2.7-1.4 0-2.7-1.2-2.7-2.7 0-1.5 1.3-2.7 2.7-2.7 1.5 0 2.7 1.2 2.7 2.7z"/><path class="h" d="m741.9 413c0 2.2-1.8 4-4 4-2.1 0-3.9-1.8-3.9-4 0-2.2 1.8-3.9 3.9-3.9 2.2 0 4 1.7 4 3.9z"/><g style="opacity:.5;mix-blend-mode:multiply"><path class="e" d="m755.5 471.2h-21.6v31.6c12.8-0.2 23.1-10.6 23.1-23.4 0-2.9-0.5-5.6-1.5-8.2z"/><path class="h" d="m742.7 454.9v-31.1h-8.8v4.4h4.4v29.7l2.8 1.1c8.2 3.1 13.6 11 13.6 19.7 0 11.5-9.3 20.9-20.8 21v4.4c13.9-0.2 25.2-11.5 25.2-25.4 0-10.9-6.9-20.1-16.4-23.8z"/><path class="h" d="m742.2 464.8c0 1.8-1.5 3.3-3.3 3.3-1.8 0-3.2-1.5-3.2-3.3 0-1.8 1.4-3.2 3.2-3.2 1.8 0 3.3 1.4 3.3 3.2z"/><path class="h" d="m741.9 413c0 2.2-1.8 4-4 4-2.1 0-3.9-1.8-3.9-4 0-2.2 1.8-3.9 3.9-3.9 2.2 0 4 1.7 4 3.9z"/></g><path class="e" d="m112.6 559h-19v-110.4h19z"/><path class="f" d="m101.5 554.1h11.1v1.6h-11.1z"/><path class="f" d="m107.1 550.6h5.5v1.5h-5.5z"/><path class="f" d="m107.1 547.1h5.5v1.5h-5.5z"/><path class="f" d="m107.1 543.6h5.5v1.6h-5.5z"/><path class="f" d="m107.1 540.1h5.5v1.6h-5.5z"/><path class="f" d="m101.5 536.5h11.1v1.5h-11.1z"/><path class="f" d="m107.1 533h5.5v1.5h-5.5z"/><path class="f" d="m107.1 529.5h5.5v1.5h-5.5z"/><path class="f" d="m107.1 526h5.5v1.5h-5.5z"/><path class="f" d="m107.1 522.5h5.5v1.5h-5.5z"/><path class="f" d="m101.5 518.9h11.1v1.5h-11.1z"/><path class="f" d="m107.1 515.3h5.5v1.6h-5.5z"/><path class="f" d="m107.1 511.9h5.5v1.5h-5.5z"/><path class="f" d="m107.1 508.4h5.5v1.5h-5.5z"/><path class="f" d="m107.1 504.9h5.5v1.5h-5.5z"/><path class="f" d="m101.5 501.2h11.1v1.6h-11.1z"/><path class="f" d="m107.1 497.7h5.5v1.6h-5.5z"/><path class="f" d="m107.1 494.2h5.5v1.6h-5.5z"/><path class="f" d="m107.1 490.7h5.5v1.6h-5.5z"/><path class="f" d="m107.1 487.3h5.5v1.5h-5.5z"/><path class="f" d="m101.5 483.6h11.1v1.6h-11.1z"/><path class="f" d="m107.1 480.1h5.5v1.5h-5.5z"/><path class="f" d="m107.1 476.6h5.5v1.5h-5.5z"/><path class="f" d="m107.1 473.1h5.5v1.5h-5.5z"/><path class="f" d="m107.1 469.6h5.5v1.6h-5.5z"/><path class="f" d="m101.5 466h11.1v1.5h-11.1z"/><path class="f" d="m107.1 462.5h5.5v1.5h-5.5z"/><path class="f" d="m107.1 459h5.5v1.5h-5.5z"/><path class="f" d="m107.1 455.5h5.5v1.5h-5.5z"/><path class="f" d="m107.1 452h5.5v1.5h-5.5z"/><path fill-rule="evenodd" class="f" d="m191.4 559h-71.8v-71.8zm-62.8-8.9h39.6l-39.6-39.7z"/><path class="e" d="m120.9 496.3l-0.6-0.6 3.9-3.9 0.6 0.6z"/><path class="e" d="m124.3 495.7l-0.6-0.5 1.9-2 0.6 0.6z"/><path class="e" d="m125.6 497.1l-0.6-0.6 2-1.9 0.6 0.6z"/><path class="e" d="m127 498.5l-0.6-0.6 2-1.9 0.6 0.5z"/><path class="e" d="m128.4 499.9l-0.6-0.6 1.9-2 0.6 0.6z"/><path class="e" d="m128 503.4l-0.6-0.6 3.9-3.9 0.6 0.6z"/><path class="e" d="m131.3 502.8l-0.6-0.6 2-1.9 0.6 0.6z"/><path class="e" d="m132.7 504.2l-0.6-0.6 1.9-2 0.6 0.6z"/><path class="e" d="m134.1 505.6l-0.6-0.6 1.9-2 0.6 0.6z"/><path class="e" d="m135.4 506.9l-0.5-0.6 1.9-1.9 0.6 0.6z"/><path class="e" d="m135.1 510.4l-0.6-0.5 3.9-4 0.6 0.6z"/><path class="e" d="m138.4 509.9l-0.6-0.6 1.9-2 0.6 0.6z"/><path class="e" d="m139.8 511.2l-0.6-0.5 1.9-2 0.6 0.6z"/><path class="e" d="m141.1 512.6l-0.6-0.6 2-1.9 0.6 0.6z"/><path class="e" d="m142.5 514l-0.6-0.6 2-1.9 0.6 0.5z"/><path class="e" d="m142.1 517.5l-0.6-0.6 3.9-3.9 0.6 0.6z"/><path class="e" d="m145.4 516.9l-0.6-0.6 2-1.9 0.6 0.6z"/><path class="e" d="m146.8 518.3l-0.6-0.6 2-1.9 0.6 0.6z"/><path class="e" d="m148.2 519.7l-0.6-0.6 1.9-2 0.6 0.6z"/><path class="e" d="m149.6 521.1l-0.6-0.6 1.9-2 0.6 0.6z"/><path class="e" d="m149.2 524.6l-0.6-0.6 3.9-3.9 0.6 0.6z"/><path class="e" d="m152.5 524l-0.6-0.6 2-2 0.6 0.6z"/><path class="e" d="m153.9 525.4l-0.6-0.6 1.9-2 0.6 0.6z"/><path class="e" d="m155.3 526.7l-0.6-0.6 1.9-1.9 0.6 0.6z"/><path class="e" d="m156.6 528.1l-0.6-0.6 2-1.9 0.6 0.6z"/><path class="e" d="m156.2 531.6l-0.6-0.6 3.9-3.9 0.6 0.6z"/><path class="e" d="m159.6 531.1l-0.6-0.6 1.9-2 0.6 0.6z"/><path class="e" d="m160.9 532.4l-0.6-0.6 2-1.9 0.6 0.6z"/><path class="e" d="m162.3 533.8l-0.6-0.6 2-1.9 0.6 0.6z"/><path class="e" d="m163.7 535.2l-0.6-0.6 1.9-2 0.6 0.6z"/><path class="e" d="m163.3 538.7l-0.6-0.6 3.9-3.9 0.6 0.6z"/><path class="e" d="m166.6 538.1l-0.6-0.6 2-1.9 0.6 0.6z"/><path class="e" d="m168 539.5l-0.6-0.6 2-2 0.6 0.6z"/><path class="e" d="m169.4 540.9l-0.6-0.6 1.9-2 0.6 0.6z"/><path class="e" d="m170.8 542.2l-0.6-0.6 1.9-1.9 0.6 0.6z"/><path class="e" d="m170.4 545.8l-0.6-0.6 3.9-3.9 0.6 0.5z"/><path class="e" d="m173.7 545.2l-0.6-0.6 1.9-2 0.6 0.6z"/><path class="e" d="m175.1 546.6l-0.6-0.6 1.9-2 0.6 0.6z"/><path class="e" d="m176.4 547.9l-0.6-0.6 2-1.9 0.6 0.6z"/><path class="e" d="m177.8 549.3l-0.6-0.6 2-1.9 0.6 0.6z"/><path class="e" d="m177.4 552.8l-0.6-0.6 3.9-3.9 0.6 0.6z"/><path class="e" d="m180.8 552.2l-0.6-0.6 1.9-1.9 0.6 0.6z"/><path class="e" d="m182.1 553.6l-0.6-0.6 2-1.9 0.6 0.6z"/><path class="e" d="m183.5 555l-0.6-0.6 2-2 0.6 0.6z"/><path class="e" d="m184.9 556.4l-0.6-0.6 1.9-2 0.6 0.6z"/><path class="f" d="m233.5 217c0 0-8.3-11.6-19.8-6.5-11.4 5.2-14.1 29.1 19.8 45.3z"/><path class="f" d="m233.5 217c0 0 8.2-11.6 19.7-6.5 11.5 5.2 14.1 29.1-19.7 45.3z"/><path class="o" d="m233.5 217c0 0 8.2-11.6 19.7-6.5 11.5 5.2 14.1 29.1-19.7 45.3z"/><path fill-rule="evenodd" class="f" d="m496 241.6c-8.7-8.8-8.7-23 0-31.7 8.8-8.7 22.9-8.7 31.7 0 8.3 8.3 8.7 21.6 1.1 30.4l6.9 6.9-2.4 2.4-6.9-6.9c-8.8 7.6-22.1 7.2-30.4-1.1zm26.7-5c6-6 6-15.7 0-21.7-6-6-15.7-6-21.7 0-6 6-6 15.7 0 21.7 6 6 15.7 6 21.7 0z"/><path class="e" d="m556 278c0.9 1 2.4 1 3.3 0l4.9-4.8c0.9-1 0.9-2.4 0-3.4l-25.6-25.5c-0.9-0.9-2.4-0.9-3.3 0l-4.9 4.9c-0.9 0.9-0.9 2.4 0 3.3z"/><g style="opacity:.5;mix-blend-mode:multiply"><path class="f" d="m534.6 248.3l-11.8-11.8c5.9-6 5.9-15.7-0.1-21.6-6-6-15.7-6-21.6-0.1l-5-5c8.7-8.6 22.8-8.6 31.6 0.1 8.3 8.3 8.7 21.6 1.1 30.4l6.9 6.9z"/><path class="e" d="m532.9 246.7l2.4-2.4c0.9-0.9 2.4-0.9 3.3 0l25.6 25.5c0.9 1 0.9 2.4 0 3.4l-2.4 2.3z"/></g><path class="h" d="m738.1 338.4c0 0.8-0.7 1.5-1.6 1.5h-17.2c-0.9 0-1.6-0.7-1.6-1.5v-8.7c0-0.8 0.7-1.5 1.6-1.5h17.2c0.9 0 1.6 0.7 1.6 1.5z"/><path class="p" d="m735.8 332.8h-1.3v-3.2h1.3z"/><path class="p" d="m735.8 338.5h-1.3v-3.2h1.3z"/><path class="g" d="m738.1 334.2h-20.4v-0.3h20.4z"/><path class="f" d="m730.8 327.1h-26.9c-1.7 0-3.1 1.4-3.1 3.1v7.7c0 1.7 1.4 3.1 3.1 3.1h26.9z"/><g style="opacity:.5;mix-blend-mode:multiply"><path class="h" d="m717.7 334v4.4c0 0.8 0.7 1.5 1.6 1.5h17.2c0.9 0 1.6-0.7 1.6-1.5v-4.4z"/><path class="p" d="m735.8 338.5h-1.3v-3.2h1.3z"/><path class="g" d="m717.7 334v0.2h20.4v-0.2z"/><path class="f" d="m700.8 334v3.9c0 1.7 1.4 3.1 3.1 3.1h26.9v-7z"/></g><path class="h" d="m695.9 592.8c4.7-5.2 7.6-12 7.6-19.6 0-16.1-13-29.2-29.1-29.2-16.1 0-29.2 13.1-29.2 29.2 0 7.6 2.9 14.4 7.6 19.6q0.1 0.1 0.2 0.2 1.4 1.6 3.1 2.9c6.3 6.7 5.8 11.7 5.8 11.7h12.5 12.4c0 0-0.5-5 5.9-11.7q1.6-1.3 3.1-2.9 0.1-0.1 0.2-0.2z"/><path class="f" d="m664.6 585.4c0.8-0.7 1.2-1.8 1-3-0.4-1.5-2-2.5-3.6-2.1-1.6 0.4-2.5 2-2.1 3.6 0.3 1.1 1.1 1.9 2.2 2.1l5.4 21.6h2.6z"/><path class="f" d="m686.7 580.3c-1.6-0.4-3.2 0.6-3.6 2.1-0.2 1.2 0.2 2.3 1 3l-5.5 22.2h2.7l5.3-21.6c1.1-0.2 2-1 2.3-2.1 0.3-1.6-0.6-3.2-2.2-3.6z"/><path class="e" d="m670.1 607.6h-2.6-5.5v5.2c0 6.7 5.5 12.2 12.4 12.2 6.8 0 12.3-5.5 12.3-12.2v-5.2h-5.4-2.7z"/><g style="opacity:.5;mix-blend-mode:multiply"><path class="h" d="m703.5 573.2c0-16.1-13-29.2-29.1-29.2q-0.2 0-0.3 0v63.6h12.7c0 0-0.5-5 5.9-11.7q1.6-1.3 3.1-2.9 0.1-0.1 0.2-0.2h-0.1c4.7-5.2 7.6-12 7.6-19.6z"/><path class="f" d="m686.7 580.3c-1.6-0.4-3.2 0.6-3.6 2.1-0.2 1.2 0.2 2.3 1 3l-5.5 22.2h2.7l5.3-21.6c1.1-0.2 2-1 2.3-2.1 0.3-1.6-0.6-3.2-2.2-3.6z"/><path class="e" d="m674.1 607.6v17.4q0.1 0 0.3 0c6.8 0 12.3-5.5 12.3-12.2v-5.2z"/></g><path class="q" d="m207.6 299.3h-32.3v-6.3h32.3z"/><path class="f" d="m207.6 322.2h-32.3v-22.9h32.3z"/><path class="q" d="m199.6 314.3h8v7.9h-8z"/><path class="h" d="m199.6 314.3h8l-8 7.9z"/><g style="opacity:.5;mix-blend-mode:multiply"><path class="q" d="m191.2 293v6.3h16.4v-6.3z"/><path class="f" d="m191.2 299.3v22.9h16.4v-22.9z"/></g><path class="j" d="m107.5 420.1c0 0.9-0.7 1.6-1.6 1.6h-44.6c-0.9 0-1.5-0.7-1.5-1.6v-51.3c0-0.8 0.6-1.5 1.5-1.5h44.6c0.9 0 1.6 0.7 1.6 1.5z"/><path class="f" d="m76.9 400.1h-12.6v-12.6h12.6z"/><path class="f" d="m91.7 400.1h-12.6v-12.6h12.6z"/><path class="f" d="m102.9 416h-9.9v-28.5h9.9z"/><path class="f" d="m76.9 416h-12.6v-12.5h12.6z"/><path class="f" d="m91.7 416h-12.6v-12.5h12.6z"/><path class="e" d="m75.3 392.3h-3.2v-3.2h-3v3.2h-3.2v3h3.2v3.2h3v-3.2h3.2z"/><path class="e" d="m86.9 407h-3v-2h3z"/><path class="e" d="m86.9 414.4h-3v-1.9h3z"/><path class="e" d="m80.7 411.2v-3h9.4v3z"/><path class="e" d="m75 407.5l-2.1-2.2-2.3 2.3-2.3-2.3-2.1 2.2 2.3 2.2-2.3 2.3 2.1 2.1 2.3-2.2 2.3 2.2 2.1-2.1-2.3-2.3z"/><path class="e" d="m80.7 395.3v-3h9.4v3z"/><path class="e" d="m94.1 401.5v-3h7.8v3z"/><path class="e" d="m94.1 406v-3h7.8v3z"/><path class="h" d="m102.8 381.2c0 0.9-0.7 1.6-1.5 1.6h-35.5c-0.9 0-1.6-0.7-1.6-1.6v-7.6c0-0.9 0.7-1.6 1.6-1.6h35.5c0.8 0 1.5 0.7 1.5 1.6z"/><g style="opacity:.5;mix-blend-mode:multiply"><path class="j" d="m105.9 367.3h-22.7v54.4h22.7c0.9 0 1.6-0.7 1.6-1.6v-51.3c0-0.8-0.7-1.5-1.6-1.5z"/><path class="f" d="m83.2 387.5v12.6h8.5v-12.6z"/><path class="f" d="m102.9 416h-9.9v-28.5h9.9z"/><path class="f" d="m83.2 403.5v12.5h8.5v-12.5z"/><path class="e" d="m86.9 407h-3v-2h3z"/><path class="e" d="m86.9 414.4h-3v-1.9h3z"/><path class="e" d="m83.2 408.2v3h6.9v-3z"/><path class="e" d="m83.2 392.3v3h6.9v-3z"/><path class="e" d="m94.1 401.5v-3h7.8v3z"/><path class="e" d="m94.1 406v-3h7.8v3z"/><path class="h" d="m101.3 372h-18.1v10.8h18.1c0.8 0 1.5-0.7 1.5-1.6v-7.6c0-0.9-0.7-1.6-1.5-1.6z"/></g><path class="e" d="m632.4 282.8c0 10.8-17.3 34.7-19.4 34.7-2.2 0-19.5-23.9-19.5-34.7 0-10.7 8.7-19.4 19.5-19.4 10.7 0 19.4 8.7 19.4 19.4z"/><path class="h" d="m624.2 282.8c0 6.3-5 11.3-11.2 11.3-6.2 0-11.3-5-11.3-11.3 0-6.2 5.1-11.2 11.3-11.2 6.2 0 11.2 5 11.2 11.2z"/><g style="opacity:.5;mix-blend-mode:multiply"><path class="e" d="m613 263.4q-0.1 0-0.3 0v54.1q0.2 0 0.3 0c2.1 0 19.4-23.9 19.4-34.7 0-10.7-8.7-19.4-19.4-19.4z"/><path class="h" d="m613 271.6q-0.1 0-0.3 0v22.5q0.2 0 0.3 0c6.2 0 11.2-5 11.2-11.3 0-6.2-5-11.2-11.2-11.2z"/></g><path class="l" d="m575 160.6c-0.4 0-0.8-0.2-1.1-0.5-5.3-5.1-3.3-12.7-1.5-15.9 0.4-0.8 1.4-1.1 2.2-0.6 0.7 0.4 1 1.4 0.6 2.1-0.2 0.3-3.9 7.4 0.9 12.1 0.6 0.6 0.7 1.6 0 2.3-0.3 0.3-0.7 0.5-1.1 0.5z"/><path class="l" d="m561.4 182.6q-0.4 0-0.9-0.3c-0.7-0.5-0.9-1.5-0.4-2.2 4.1-5.9 10-9 10.3-9.2 0.8-0.4 1.7-0.1 2.1 0.7 0.5 0.8 0.1 1.8-0.6 2.2-0.1 0-5.6 2.9-9.1 8.1-0.3 0.5-0.8 0.7-1.4 0.7z"/><path class="l" d="m571.1 200c-0.7 0-1.4-0.5-1.6-1.3-1.9-9.6 4.1-15.8 4.3-16 0.7-0.7 1.7-0.7 2.3 0 0.7 0.6 0.7 1.6 0 2.3-0.2 0.2-5 5.2-3.4 13.1 0.2 0.9-0.4 1.7-1.3 1.9q-0.1 0-0.3 0z"/><path class="l" d="m606.5 160.6c-0.4 0-0.8-0.2-1.1-0.5-0.6-0.7-0.6-1.7 0-2.3 4.9-4.7 1-12 0.9-12-0.4-0.8-0.1-1.8 0.7-2.2 0.7-0.5 1.7-0.2 2.1 0.6 1.8 3.2 3.9 10.8-1.4 15.9-0.3 0.3-0.8 0.5-1.2 0.5z"/><path class="l" d="m620.1 182.6c-0.5 0-1-0.2-1.3-0.7-3.6-5.3-9.1-8.1-9.1-8.1-0.8-0.4-1.1-1.4-0.7-2.2 0.4-0.8 1.4-1.1 2.1-0.7 0.3 0.2 6.3 3.3 10.3 9.2 0.5 0.7 0.3 1.7-0.4 2.2q-0.4 0.3-0.9 0.3z"/><path class="l" d="m610.4 200q-0.1 0-0.3 0c-0.9-0.2-1.4-1-1.3-1.9 1.6-8-3.3-13.1-3.4-13.1-0.6-0.7-0.6-1.7 0-2.3 0.6-0.7 1.7-0.7 2.3 0 0.2 0.2 6.2 6.4 4.3 16-0.2 0.8-0.8 1.3-1.6 1.3z"/><path class="j" d="m613.1 171.5c0 12.3-10 22.3-22.3 22.3-12.4 0-22.4-10-22.4-22.3 0-12.3 10-22.3 22.4-22.3 12.3 0 22.3 10 22.3 22.3z"/><path class="f" d="m573.8 166c0 2.6-2.1 4.7-4.8 4.7-2.6 0-4.7-2.1-4.7-4.7 0-2.7 2.1-4.8 4.7-4.8 2.7 0 4.8 2.1 4.8 4.8z"/><path class="f" d="m583.5 190.6c0 2.7-2.2 4.8-4.9 4.8-2.6 0-4.8-2.1-4.8-4.8 0-2.7 2.2-4.8 4.8-4.8 2.7 0 4.9 2.1 4.9 4.8z"/><path class="f" d="m607.7 166c0 2.6 2.2 4.7 4.8 4.7 2.6 0 4.8-2.1 4.8-4.7 0-2.7-2.2-4.8-4.8-4.8-2.6 0-4.8 2.1-4.8 4.8z"/><path class="f" d="m598.1 190.6c0 2.7 2.1 4.8 4.8 4.8 2.7 0 4.8-2.1 4.8-4.8 0-2.7-2.1-4.8-4.8-4.8-2.7 0-4.8 2.1-4.8 4.8z"/><path class="f" d="m598.9 174.7c0 4.6-3.6 8.2-8.1 8.2-4.6 0-8.2-3.6-8.2-8.2 0-4.5 3.6-8.1 8.2-8.1 4.5 0 8.1 3.6 8.1 8.1z"/><path class="l" d="m607.7 146.6c0 9.4-7.6 17-16.9 17-9.4 0-17-7.6-17-17 0-9.4 7.6-17 17-17 9.3 0 16.9 7.6 16.9 17z"/><g clip-path="url(#cp1)"></g><path class="l" d="m468.2 180.4c1.3 0 3.9-0.3 6-2.1 2.2-1.9 3.3-4.8 3.3-8.7 0-4-1.1-7.1-3.3-9.1-2.8-2.6-6.4-2.3-6.6-2.3h-25.9c-0.9 0-1.5 0.6-1.5 1.5 0 0.8 0.6 1.5 1.5 1.5h26c0.2 0 2.7-0.2 4.5 1.6 1.5 1.4 2.3 3.7 2.3 6.8 0 2.9-0.8 5.1-2.2 6.4-2 1.7-4.8 1.3-4.8 1.3h-29.8c-0.7-0.1-2.1-1.5-2.1-6.1q0-2.9 1.4-4.1c1.5-1.3 3.6-1 3.6-1l22.2 0.2c0.5 0 3.3 0.2 3.3 3 0 2.9-3 3.1-3.3 3.2h-19.3c-0.9 0-1.5 0.7-1.5 1.5 0 0.9 0.7 1.5 1.5 1.5q0 0 0 0h19.4c2.2-0.2 6.2-1.6 6.2-6.2 0-4.4-3.8-6-6.3-6l-21.9-0.2c0 0-3.3-0.5-5.8 1.7-1.7 1.4-2.5 3.6-2.5 6.4 0 9 4.9 9.1 5.1 9.1h29.5c0 0 0.4 0.1 1 0.1z"/><path class="h" d="m494.1 191.3l-3.4-40.3h6.9z"/><path class="e" d="m484.1 118.9h20.1v24.7h-20.1z"/><path class="l" d="m483.3 118.9c-1.6 0-2.9-1.2-2.9-2.8 0-1.5 1.3-2.8 2.9-2.8h21.7c1.6 0 2.8 1.3 2.8 2.8 0 1.6-1.2 2.8-2.8 2.8h-0.8-20.1z"/><path class="l" d="m479.7 143.6h4.4 20.1 4.4c2 0 3.7 1.6 3.7 3.7 0 2-1.7 3.7-3.7 3.7h-11-6.9-11c-2 0-3.7-1.7-3.7-3.7 0-2.1 1.7-3.7 3.7-3.7z"/><g style="opacity:.5;mix-blend-mode:multiply"><path class="h" d="m494.1 151v40.3l-3.4-40.3z"/><path class="e" d="m494.1 118.9v24.7h-10v-24.7z"/><path class="l" d="m483.3 113.3h10.8v5.6h-10.8c-1.6 0-2.9-1.2-2.9-2.8 0-1.5 1.3-2.8 2.9-2.8z"/><path class="l" d="m479.7 143.6h14.4v7.4h-14.4c-2 0-3.7-1.7-3.7-3.7 0-2.1 1.7-3.7 3.7-3.7z"/></g><path class="f" d="m444.7 146h-4.4v-17.8h9.1v12.1c0 2.2-2.9 4.5-4.7 5.7z"/><path class="f" d="m458.5 140.3v-12.1h9.1v17.8h-4.4c-1.8-1.2-4.7-3.5-4.7-5.7z"/><path class="f" d="m452.4 128.2h3.1v12.1c0 2.2 1.4 4.2 2.9 5.7h-8.8c1.5-1.5 2.8-3.5 2.8-5.7z"/><path class="h" d="m463.2 146h-4.8c-1.5-1.5-2.9-3.5-2.9-5.7v-12.1-3.2l1.3-0.2c0.3-0.1 6.2-0.9 6.2-6q0-2-1.1-3c-1.7-1.7-5.2-1.7-7.6-1.7h-0.7c-2.3 0-5.9 0-7.6 1.7q-1 1-1 3c0 5 5.9 5.9 6.1 6l1.3 0.2v3.2 12.1c0 2.2-1.3 4.2-2.8 5.7h-4.9c1.8-1.2 4.7-3.5 4.7-5.7v-12.1-0.7c-3.1-0.9-7.4-3.4-7.4-8.7q0-3.2 1.9-5.2c2.6-2.5 6.9-2.5 9.7-2.5h0.7c2.9 0 7.2 0 9.7 2.5q2 2 2 5.2c0 5.3-4.4 7.8-7.5 8.7v0.7 12.1c0 2.2 2.9 4.5 4.7 5.7z"/><path class="e" d="m439.6 146h0.7 4.4 4.9 8.8 4.8 4.4 0.8c1.4 0 2.5 1.1 2.5 2.5 0 1.4-1.1 2.5-2.5 2.5h-28.8c-1.4 0-2.6-1.1-2.6-2.5 0-1.4 1.2-2.5 2.6-2.5z"/><g style="opacity:.5;mix-blend-mode:multiply"><path class="f" d="m444.7 146h-4.4v-17.8h9.1v12.1c0 2.2-2.9 4.5-4.7 5.7z"/><path class="f" d="m453.9 128.2v17.8h-4.3c1.5-1.5 2.8-3.5 2.8-5.7v-12.1z"/><path class="h" d="m449.4 127.5c-3.1-0.9-7.4-3.4-7.4-8.7q0-3.2 1.9-5.2c2.6-2.5 6.9-2.5 9.7-2.5h0.3v3h-0.3c-2.3 0-5.9 0-7.6 1.7q-1 1-1 3c0 5 5.9 5.9 6.1 6l1.3 0.2v15.3c0 2.2-1.3 4.2-2.8 5.7h-4.9c1.8-1.2 4.7-3.5 4.7-5.7z"/><path class="e" d="m439.6 146h14.3v5h-14.3c-1.4 0-2.6-1.1-2.6-2.5 0-1.4 1.2-2.5 2.6-2.5z"/></g><path fill-rule="evenodd" class="f" d="m398 216.1v1.7c0 9.5-7.8 17.3-17.3 17.3h-34.9c-9.5 0-17.3-7.8-17.3-17.3v-68.7h69.5v17.2c12.7 1.2 22.6 11.9 22.6 24.9 0 13-9.9 23.6-22.6 24.9zm13.9-24.9c0-8.2-6-15-13.9-16.2v32.3c7.9-1.2 13.9-7.9 13.9-16.1z"/><path fill-rule="evenodd" class="o" d="m420.6 191.2c0 13-9.9 23.6-22.6 24.9v1.7c0 9.5-7.8 17.3-17.3 17.3h-15.4v-86h32.7v17.2c12.7 1.2 22.6 11.9 22.6 24.9zm-8.7 0c0-8.2-6-15-13.9-16.2v32.3c7.9-1.2 13.9-7.9 13.9-16.1z"/><path class="j" d="m156.1 171.2c-15.8-7.6-28.3 6.3-28.3 6.3 0 0-12.5-13.9-28.4-6.3-15.8 7.5-12.5 46 0.7 56.9 13.3 10.9 20.5 15 27.7 1.4 7.2 13.6 14.4 9.5 27.6-1.4 13.3-10.9 16.6-49.4 0.7-56.9z"/><path class="r" d="m127.8 177.5c0 0 12.5-13.9 28.3-6.3 15.9 7.5 12.6 46-0.7 56.9-13.2 10.9-20.4 15-27.6 1.4z"/><path class="f" d="m109.7 146.1c0 0-5 19.8 16.5 27.8 0 0 7.3-23.8-16.5-27.8z"/><path class="h" d="m75.5 575.6l-13.3 58.2 46.1 10.5 10.8-47.6-8.2-13z"/><path class="f" d="m91.6 596.5l-15.6-3.6 1.9-8.2 15.6 3.5z"/><path class="j" d="m112.9 608.1l-38.3-8.7 0.4-2 38.4 8.7z"/><path class="j" d="m111.9 612.9l-38.4-8.8 0.4-2 38.4 8.8z"/><path class="j" d="m110.8 617.6l-38.4-8.7 0.5-2 38.3 8.7z"/><path class="j" d="m109.7 622.3l-38.4-8.7 0.5-2 38.4 8.7z"/><path class="j" d="m108.6 627.1l-38.4-8.8 0.5-2 38.4 8.8z"/><path class="j" d="m107.6 631.8l-38.4-8.7 0.4-2 38.4 8.7z"/><path class="g" d="m110.9 583.7l-2.4 10.6 10.6 2.4z"/><path class="h" d="m40.9 589.7l8.4 59.1 46.8-6.6-6.9-48.3-12.3-9.3z"/><path class="f" d="m63.4 603.5l-15.8 2.2-1.2-8.3 15.9-2.3z"/><path class="j" d="m87.5 606.7l-38.9 5.6-0.3-2 39-5.6z"/><path class="j" d="m88.2 611.5l-38.9 5.6-0.3-2 38.9-5.6z"/><path class="j" d="m88.9 616.4l-39 5.5-0.3-2 39-5.6z"/><path class="j" d="m89.6 621.2l-39 5.5-0.3-2 39-5.6z"/><path class="j" d="m90.3 626l-39 5.5-0.3-2 39-5.5z"/><path class="j" d="m91 630.8l-39 5.5-0.3-2 39-5.5z"/><path class="g" d="m76.9 584.6l1.5 10.8 10.8-1.5z"/><path class="f" d="m683.6 426.9c0 4.6-3.7 8.3-8.3 8.3h-50.4c-4.5 0-8.3-3.7-8.3-8.3v-50.7c0-4.6 3.8-8.3 8.3-8.3h50.4c4.6 0 8.3 3.7 8.3 8.3z"/><path class="h" d="m678.8 428.1h-57v-50.1h57z"/><path class="j" d="m683.6 376.2c0-4.6-3.7-8.3-8.3-8.3h-50.4c-4.5 0-8.3 3.7-8.3 8.3v1.8h6.1v3.5h2.4v-3.5h4.1v3.5h2.4v-3.5h4.2v3.5h2.4v-3.5h4.2v3.5h2.4v-3.5h4.1v3.5h2.4v-3.5h4.2v3.5h2.4v-3.5h4.1v3.5h2.4v-3.5h4.2v3.5h2.4v-3.5h4.2v3.5h2.4v-3.5h6z"/><path class="f" d="m632 388.4h-7.5v-2.7h7.5z"/><path class="f" d="m639.4 388.4h-7.4v-2.7h7.4z"/><path class="f" d="m646.9 388.4h-7.5v-2.7h7.5z"/><path class="f" d="m654.4 388.4h-7.5v-2.7h7.5z"/><path class="f" d="m661.8 388.4h-7.4v-2.7h7.4z"/><path class="f" d="m669.3 388.4h-7.5v-2.7h7.5z"/><path class="f" d="m676.7 388.4h-7.4v-2.7h7.4z"/><path fill-rule="evenodd" class="j" d="m632 397.2h-7.5v-8.8h7.5zm-6.9-8.2v7.7h6.4v-7.7z"/><path fill-rule="evenodd" class="j" d="m639.4 397.2h-7.4v-8.8h7.4zm-6.9-8.2v7.7h6.4v-7.7z"/><path fill-rule="evenodd" class="j" d="m646.9 397.2h-7.5v-8.8h7.5zm-6.9-8.2v7.7h6.4v-7.7z"/><path fill-rule="evenodd" class="j" d="m654.4 397.2h-7.5v-8.8h7.5zm-7-8.2v7.7h6.4v-7.7z"/><path fill-rule="evenodd" class="j" d="m661.8 397.2h-7.4v-8.8h7.4zm-6.9-8.2v7.7h6.4v-7.7z"/><path fill-rule="evenodd" class="j" d="m669.3 397.2h-7.5v-8.8h7.5zm-7-8.2v7.7h6.4v-7.7z"/><path fill-rule="evenodd" class="j" d="m676.7 397.2h-7.4v-8.8h7.4zm-6.9-8.2v7.7h6.4v-7.7z"/><path fill-rule="evenodd" class="j" d="m632 406h-7.5v-8.8h7.5zm-6.9-8.3v7.8h6.4v-7.8z"/><path fill-rule="evenodd" class="j" d="m639.4 406h-7.4v-8.8h7.4zm-6.9-8.3v7.8h6.4v-7.8z"/><path fill-rule="evenodd" class="j" d="m646.9 406h-7.5v-8.8h7.5zm-6.9-8.3v7.8h6.4v-7.8z"/><path fill-rule="evenodd" class="j" d="m654.4 406h-7.5v-8.8h7.5zm-7-8.3v7.8h6.4v-7.8z"/><path fill-rule="evenodd" class="j" d="m661.8 406h-7.4v-8.8h7.4zm-6.9-8.3v7.8h6.4v-7.8z"/><path fill-rule="evenodd" class="j" d="m669.3 406h-7.5v-8.8h7.5zm-7-8.3v7.8h6.4v-7.8z"/><path fill-rule="evenodd" class="j" d="m676.7 406h-7.4v-8.8h7.4zm-6.9-8.3v7.8h6.4v-7.8z"/><path fill-rule="evenodd" class="j" d="m632 414.8h-7.5v-8.8h7.5zm-6.9-8.3v7.8h6.4v-7.8z"/><path fill-rule="evenodd" class="j" d="m639.4 414.8h-7.4v-8.8h7.4zm-6.9-8.3v7.8h6.4v-7.8z"/><path fill-rule="evenodd" class="j" d="m646.9 414.8h-7.5v-8.8h7.5zm-6.9-8.3v7.8h6.4v-7.8z"/><path fill-rule="evenodd" class="j" d="m654.4 414.8h-7.5v-8.8h7.5zm-7-8.3v7.8h6.4v-7.8z"/><path fill-rule="evenodd" class="j" d="m661.8 414.8h-7.4v-8.8h7.4zm-6.9-8.3v7.8h6.4v-7.8z"/><path fill-rule="evenodd" class="j" d="m669.3 414.8h-7.5v-8.8h7.5zm-7-8.3v7.8h6.4v-7.8z"/><path fill-rule="evenodd" class="j" d="m676.7 414.8h-7.4v-8.8h7.4zm-6.9-8.3v7.8h6.4v-7.8z"/><path fill-rule="evenodd" class="j" d="m632 423.5h-7.5v-8.7h7.5zm-6.9-8.3v7.7h6.4v-7.7z"/><path fill-rule="evenodd" class="j" d="m639.4 423.5h-7.4v-8.7h7.4zm-6.9-8.3v7.7h6.4v-7.7z"/><path fill-rule="evenodd" class="j" d="m646.9 423.5h-7.5v-8.7h7.5zm-6.9-8.3v7.7h6.4v-7.7z"/><path fill-rule="evenodd" class="j" d="m654.4 423.5h-7.5v-8.7h7.5zm-7-8.3v7.7h6.4v-7.7z"/><path fill-rule="evenodd" class="j" d="m661.8 423.5h-7.4v-8.7h7.4zm-6.9-8.3v7.7h6.4v-7.7z"/><g style="opacity:.5;mix-blend-mode:multiply"><path class="f" d="m675.3 367.9h-25v67.3h25c4.6 0 8.3-3.7 8.3-8.3v-50.7c0-4.6-3.7-8.3-8.3-8.3z"/><path class="h" d="m650.3 378v50.1h28.5v-50.1z"/><path class="j" d="m675.3 367.9h-25v13.6h1v-3.5h4.2v3.5h2.4v-3.5h4.1v3.5h2.4v-3.5h4.2v3.5h2.4v-3.5h4.2v3.5h2.4v-3.5h6v-1.8c0-4.6-3.7-8.3-8.3-8.3z"/><path class="f" d="m661.8 388.4h-11.7v-2.7h11.7z"/><path class="f" d="m669.3 388.4h-7.5v-2.7h7.5z"/><path class="f" d="m676.7 388.4h-7.4v-2.7h7.4z"/><path class="j" d="m650.3 388.4v0.5h3.5v7.8h-3.5v0.5h4.1v-8.8z"/><path fill-rule="evenodd" class="j" d="m661.8 397.2h-7.4v-8.8h7.4zm-6.9-8.2v7.7h6.4v-7.7z"/><path fill-rule="evenodd" class="j" d="m669.3 397.2h-7.5v-8.8h7.5zm-7-8.2v7.7h6.4v-7.7z"/><path fill-rule="evenodd" class="j" d="m676.7 397.2h-7.4v-8.8h7.4zm-6.9-8.2v7.7h6.4v-7.7z"/><path class="j" d="m650.3 397.2v0.5h3.5v7.8h-3.5v0.5h4.1v-8.8z"/><path fill-rule="evenodd" class="j" d="m661.8 406h-7.4v-8.8h7.4zm-6.9-8.3v7.8h6.4v-7.8z"/><path fill-rule="evenodd" class="j" d="m669.3 406h-7.5v-8.8h7.5zm-7-8.3v7.8h6.4v-7.8z"/><path fill-rule="evenodd" class="j" d="m676.7 406h-7.4v-8.8h7.4zm-6.9-8.3v7.8h6.4v-7.8z"/><path class="j" d="m650.3 406v0.5h3.5v7.7h-3.5v0.6h4.1v-8.8z"/><path fill-rule="evenodd" class="j" d="m661.8 414.8h-7.4v-8.8h7.4zm-6.9-8.3v7.8h6.4v-7.8z"/><path fill-rule="evenodd" class="j" d="m669.3 414.8h-7.5v-8.8h7.5zm-7-8.3v7.8h6.4v-7.8z"/><path fill-rule="evenodd" class="j" d="m676.7 414.8h-7.4v-8.8h7.4zm-6.9-8.3v7.8h6.4v-7.8z"/><path class="j" d="m650.3 414.8v0.5h3.5v7.7h-3.5v0.5h4.1v-8.7z"/><path fill-rule="evenodd" class="j" d="m661.8 423.5h-7.4v-8.7h7.4zm-6.9-8.3v7.7h6.4v-7.7z"/></g><path fill-rule="evenodd" class="f" d="m746.3 230.8c0 21.4-17.4 38.8-38.8 38.8-21.4 0-38.7-17.4-38.7-38.8 0-21.4 17.3-38.7 38.7-38.7 21.4 0 38.8 17.3 38.8 38.7zm-8.4 0c0-16.7-13.6-30.3-30.4-30.3-16.7 0-30.3 13.6-30.3 30.3 0 16.8 13.6 30.4 30.3 30.4 16.8 0 30.4-13.6 30.4-30.4z"/><path fill-rule="evenodd" class="h" d="m737.9 230.8c0 16.8-13.6 30.4-30.4 30.4-16.7 0-30.3-13.6-30.3-30.4 0-16.7 13.6-30.3 30.3-30.3 16.8 0 30.4 13.6 30.4 30.3zm-32.1-24.9c0 1 0.8 1.7 1.7 1.7 1 0 1.8-0.7 1.8-1.7 0-0.9-0.8-1.7-1.8-1.7-0.9 0-1.7 0.8-1.7 1.7zm1.7 2.4c-0.8 0-1.5 0.6-1.5 1.5v20.4l-9.5 9.5c-0.6 0.6-0.6 1.6 0 2.2 0.3 0.3 0.7 0.4 1.1 0.4 0.4 0 0.8-0.1 1.1-0.4l9.9-10q0.2-0.2 0.4-0.5 0.1-0.3 0.1-0.6v-21c0-0.9-0.7-1.5-1.6-1.5zm-11.7 0.5c0.4 0.8 1.4 1.2 2.3 0.8 0.9-0.3 1.3-1.4 0.9-2.2-0.4-0.9-1.4-1.3-2.3-0.9-0.9 0.4-1.3 1.4-0.9 2.3zm-11.5 22c0-0.9-0.7-1.7-1.7-1.7-0.9 0-1.7 0.8-1.7 1.7 0 1 0.8 1.8 1.7 1.8 1 0 1.7-0.8 1.7-1.8zm3.8 12.7c-0.5-0.8-1.6-1.1-2.4-0.5-0.8 0.5-1 1.6-0.5 2.4 0.5 0.8 1.6 1 2.4 0.5 0.8-0.6 1-1.6 0.5-2.4zm-0.5-27.7c-0.8-0.5-1.9-0.3-2.4 0.5-0.5 0.8-0.3 1.9 0.5 2.4 0.8 0.5 1.9 0.3 2.4-0.5 0.5-0.8 0.3-1.9-0.5-2.4zm10.5 36.2c-0.9-0.4-1.9 0-2.3 0.9-0.4 0.9 0 1.9 0.9 2.3 0.9 0.4 1.9 0 2.3-0.9 0.4-0.9 0-1.9-0.9-2.3zm11.2 3.8c0-1-0.8-1.8-1.8-1.8-0.9 0-1.7 0.8-1.7 1.8 0 0.9 0.8 1.7 1.7 1.7 1 0 1.8-0.8 1.8-1.7zm10-2.9c-0.4-0.9-1.4-1.3-2.3-0.9-0.9 0.4-1.3 1.4-0.9 2.3 0.4 0.9 1.4 1.3 2.3 0.9 0.9-0.4 1.3-1.4 0.9-2.3zm-0.9-46.4c-0.9-0.4-1.9 0-2.3 0.9-0.4 0.8 0 1.9 0.9 2.2 0.9 0.4 1.9 0 2.3-0.8 0.4-0.9 0-1.9-0.9-2.3zm11 36.5c-0.8-0.6-1.9-0.3-2.4 0.5-0.5 0.8-0.3 1.8 0.5 2.4 0.8 0.5 1.9 0.3 2.4-0.5 0.5-0.8 0.3-1.9-0.5-2.4zm0.5-26.7c-0.5-0.8-1.6-1-2.4-0.5-0.8 0.5-1 1.6-0.5 2.4 0.5 0.8 1.6 1 2.4 0.5 0.8-0.5 1-1.6 0.5-2.4zm4.3 14.5c0-0.9-0.8-1.7-1.7-1.7-1 0-1.8 0.8-1.8 1.7 0 1 0.8 1.8 1.8 1.8 0.9 0 1.7-0.8 1.7-1.8z"/><path class="j" d="m707.5 207.6c1 0 1.8-0.7 1.8-1.7 0-0.9-0.8-1.7-1.8-1.7-0.9 0-1.7 0.8-1.7 1.7 0 1 0.8 1.7 1.7 1.7z"/><path class="j" d="m682.6 229.1c-0.9 0-1.7 0.8-1.7 1.7 0 1 0.8 1.8 1.7 1.8 1 0 1.7-0.8 1.7-1.8 0-0.9-0.7-1.7-1.7-1.7z"/><path class="j" d="m707.5 254c-0.9 0-1.7 0.8-1.7 1.8 0 0.9 0.8 1.7 1.7 1.7 1 0 1.8-0.8 1.8-1.7 0-1-0.8-1.8-1.8-1.8z"/><path class="j" d="m732.5 229.1c-1 0-1.8 0.8-1.8 1.7 0 1 0.8 1.8 1.8 1.8 0.9 0 1.7-0.8 1.7-1.8 0-0.9-0.8-1.7-1.7-1.7z"/><path class="j" d="m727.5 215.8c-0.8 0.5-1 1.6-0.5 2.4 0.5 0.8 1.6 1 2.4 0.5 0.8-0.5 1-1.6 0.5-2.4-0.5-0.8-1.6-1-2.4-0.5z"/><path class="j" d="m718.4 206.5c-0.9-0.4-1.9 0-2.3 0.9-0.4 0.8 0 1.9 0.9 2.2 0.9 0.4 1.9 0 2.3-0.8 0.4-0.9 0-1.9-0.9-2.3z"/><path class="j" d="m687.6 215.8c-0.8-0.5-1.9-0.3-2.4 0.5-0.5 0.8-0.3 1.9 0.5 2.4 0.8 0.5 1.9 0.3 2.4-0.5 0.5-0.8 0.3-1.9-0.5-2.4z"/><path class="j" d="m698.1 209.6c0.9-0.3 1.3-1.4 0.9-2.2-0.4-0.9-1.4-1.3-2.3-0.9-0.9 0.4-1.3 1.4-0.9 2.3 0.4 0.8 1.4 1.2 2.3 0.8z"/><path class="j" d="m729.4 243c-0.8-0.6-1.9-0.3-2.4 0.5-0.5 0.8-0.3 1.8 0.5 2.4 0.8 0.5 1.9 0.3 2.4-0.5 0.5-0.8 0.3-1.9-0.5-2.4z"/><path class="j" d="m717 252c-0.9 0.4-1.3 1.4-0.9 2.3 0.4 0.9 1.4 1.3 2.3 0.9 0.9-0.4 1.3-1.4 0.9-2.3-0.4-0.9-1.4-1.3-2.3-0.9z"/><path class="j" d="m685.7 243c-0.8 0.5-1 1.6-0.5 2.4 0.5 0.8 1.6 1 2.4 0.5 0.8-0.6 1-1.6 0.5-2.4-0.5-0.8-1.6-1.1-2.4-0.5z"/><path class="j" d="m698.1 252c-0.9-0.4-1.9 0-2.3 0.9-0.4 0.9 0 1.9 0.9 2.3 0.9 0.4 1.9 0 2.3-0.9 0.4-0.9 0-1.9-0.9-2.3z"/><path class="f" d="m707.5 208.3c-0.8 0-1.5 0.6-1.5 1.5v20.4l-9.5 9.5c-0.6 0.6-0.6 1.6 0 2.2 0.3 0.3 0.7 0.4 1.1 0.4 0.4 0 0.8-0.1 1.1-0.4l9.9-10q0.2-0.2 0.4-0.5 0.1-0.3 0.1-0.6v-21c0-0.9-0.7-1.5-1.6-1.5z"/><g style="opacity:.5;mix-blend-mode:multiply"><path class="f" d="m707.5 192.1v8.4c16.8 0 30.4 13.6 30.4 30.3 0 16.8-13.6 30.4-30.4 30.4v8.4c21.4 0 38.8-17.4 38.8-38.8 0-21.4-17.4-38.7-38.8-38.7z"/><path fill-rule="evenodd" class="h" d="m737.9 230.8c0 16.8-13.6 30.4-30.4 30.4v-3.7c1 0 1.8-0.8 1.8-1.7 0-1-0.8-1.8-1.8-1.8v-21l1.1-1.1q0.2-0.2 0.4-0.5 0.1-0.3 0.1-0.6v-21c0-0.9-0.7-1.5-1.6-1.5v-0.7c1 0 1.8-0.7 1.8-1.7 0-0.9-0.8-1.7-1.8-1.7v-3.7c16.8 0 30.4 13.6 30.4 30.3zm-18.6 22.1c-0.4-0.9-1.4-1.3-2.3-0.9-0.9 0.4-1.3 1.4-0.9 2.3 0.4 0.9 1.4 1.3 2.3 0.9 0.9-0.4 1.3-1.4 0.9-2.3zm-0.9-46.4c-0.9-0.4-1.9 0-2.3 0.9-0.4 0.8 0 1.9 0.9 2.2 0.9 0.4 1.9 0 2.3-0.8 0.4-0.9 0-1.9-0.9-2.3zm11 36.5c-0.8-0.6-1.9-0.3-2.4 0.5-0.5 0.8-0.3 1.8 0.5 2.4 0.8 0.5 1.9 0.3 2.4-0.5 0.5-0.8 0.3-1.9-0.5-2.4zm0.5-26.7c-0.5-0.8-1.6-1-2.4-0.5-0.8 0.5-1 1.6-0.5 2.4 0.5 0.8 1.6 1 2.4 0.5 0.8-0.5 1-1.6 0.5-2.4zm4.3 14.5c0-0.9-0.8-1.7-1.7-1.7-1 0-1.8 0.8-1.8 1.7 0 1 0.8 1.8 1.8 1.8 0.9 0 1.7-0.8 1.7-1.8z"/><path class="j" d="m732.5 229.1c-1 0-1.8 0.8-1.8 1.7 0 1 0.8 1.8 1.8 1.8 0.9 0 1.7-0.8 1.7-1.8 0-0.9-0.8-1.7-1.7-1.7z"/><path class="j" d="m727.5 215.8c-0.8 0.5-1 1.6-0.5 2.4 0.5 0.8 1.6 1 2.4 0.5 0.8-0.5 1-1.6 0.5-2.4-0.5-0.8-1.6-1-2.4-0.5z"/><path class="j" d="m718.4 206.5c-0.9-0.4-1.9 0-2.3 0.9-0.4 0.8 0 1.9 0.9 2.2 0.9 0.4 1.9 0 2.3-0.8 0.4-0.9 0-1.9-0.9-2.3z"/><path class="j" d="m729.4 243c-0.8-0.6-1.9-0.3-2.4 0.5-0.5 0.8-0.3 1.8 0.5 2.4 0.8 0.5 1.9 0.3 2.4-0.5 0.5-0.8 0.3-1.9-0.5-2.4z"/><path class="j" d="m717 252c-0.9 0.4-1.3 1.4-0.9 2.3 0.4 0.9 1.4 1.3 2.3 0.9 0.9-0.4 1.3-1.4 0.9-2.3-0.4-0.9-1.4-1.3-2.3-0.9z"/><path class="f" d="m707.5 208.3v24.7l1.1-1.1q0.2-0.2 0.4-0.5 0.1-0.3 0.1-0.6v-21c0-0.9-0.7-1.5-1.6-1.5z"/></g><path class="g" d="m481.6 662.2c0 5.2-4.3 9.5-9.5 9.5h-251.5c-5.2 0-9.5-4.3-9.5-9.5v-75.8c0-5.2 4.3-9.5 9.5-9.5h251.5c5.2 0 9.5 4.3 9.5 9.5z"/><path class="h" d="m472.4 664.1h-252.1v-79.6h252.1z"/><path class="f" d="m240.2 605.8h-11.4v-11.4h11.4z"/><path class="o" d="m240.2 605.8h-11.4v-5.7h11.4z"/><path class="f" d="m257.4 605.8h-11.3v-11.4h11.3z"/><path class="o" d="m257.4 605.8h-11.3v-5.7h11.3z"/><path class="f" d="m274.7 605.8h-11.4v-11.4h11.4z"/><path class="o" d="m274.7 605.8h-11.4v-5.7h11.4z"/><path class="f" d="m291.9 605.8h-11.3v-11.4h11.3z"/><path class="o" d="m291.9 605.8h-11.3v-5.7h11.3z"/><path class="f" d="m309.2 605.8h-11.4v-11.4h11.4z"/><path class="o" d="m309.2 605.8h-11.4v-5.7h11.4z"/><path class="f" d="m326.4 605.8h-11.3v-11.4h11.3z"/><path class="o" d="m326.4 605.8h-11.3v-5.7h11.3z"/><path class="f" d="m343.7 605.8h-11.4v-11.4h11.4z"/><path class="o" d="m343.7 605.8h-11.4v-5.7h11.4z"/><path class="f" d="m360.9 605.8h-11.4v-11.4h11.4z"/><path class="o" d="m360.9 605.8h-11.4v-5.7h11.4z"/><path class="f" d="m378.2 605.8h-11.4v-11.4h11.4z"/><path class="o" d="m378.2 605.8h-11.4v-5.7h11.4z"/><path class="f" d="m395.4 605.8h-11.4v-11.4h11.4z"/><path class="o" d="m395.4 605.8h-11.4v-5.7h11.4z"/><path class="f" d="m412.6 605.8h-11.3v-11.4h11.3z"/><path class="o" d="m412.6 605.8h-11.3v-5.7h11.3z"/><path class="f" d="m429.9 605.8h-11.4v-11.4h11.4z"/><path class="o" d="m429.9 605.8h-11.4v-5.7h11.4z"/><path class="f" d="m447.1 605.8h-11.3v-11.4h11.3z"/><path class="o" d="m447.1 605.8h-11.3v-5.7h11.3z"/><path class="f" d="m464.4 605.8h-11.4v-11.4h11.4z"/><path class="o" d="m464.4 605.8h-11.4v-5.7h11.4z"/><path class="f" d="m240.2 621.4h-11.4v-11.3h11.4z"/><path class="o" d="m240.2 621.4h-11.4v-5.7h11.4z"/><path class="f" d="m257.4 621.4h-11.3v-11.3h11.3z"/><path class="o" d="m257.4 621.4h-11.3v-5.7h11.3z"/><path class="f" d="m274.7 621.4h-11.4v-11.3h11.4z"/><path class="o" d="m274.7 621.4h-11.4v-5.7h11.4z"/><path class="f" d="m291.9 621.4h-11.3v-11.3h11.3z"/><path class="o" d="m291.9 621.4h-11.3v-5.7h11.3z"/><path class="f" d="m309.2 621.4h-11.4v-11.3h11.4z"/><path class="o" d="m309.2 621.4h-11.4v-5.7h11.4z"/><path class="f" d="m326.4 621.4h-11.3v-11.3h11.3z"/><path class="o" d="m326.4 621.4h-11.3v-5.7h11.3z"/><path class="f" d="m343.7 621.4h-11.4v-11.3h11.4z"/><path class="o" d="m343.7 621.4h-11.4v-5.7h11.4z"/><path class="f" d="m360.9 621.4h-11.4v-11.3h11.4z"/><path class="o" d="m360.9 621.4h-11.4v-5.7h11.4z"/><path class="f" d="m378.2 621.4h-11.4v-11.3h11.4z"/><path class="o" d="m378.2 621.4h-11.4v-5.7h11.4z"/><path class="f" d="m395.4 621.4h-11.4v-11.3h11.4z"/><path class="o" d="m395.4 621.4h-11.4v-5.7h11.4z"/><path class="f" d="m412.6 621.4h-11.3v-11.3h11.3z"/><path class="o" d="m412.6 621.4h-11.3v-5.7h11.3z"/><path class="f" d="m429.9 621.4h-11.4v-11.3h11.4z"/><path class="o" d="m429.9 621.4h-11.4v-5.7h11.4z"/><path class="f" d="m447.1 621.4h-11.3v-11.3h11.3z"/><path class="o" d="m447.1 621.4h-11.3v-5.7h11.3z"/><path class="f" d="m464.4 621.4h-11.4v-11.3h11.4z"/><path class="o" d="m464.4 621.4h-11.4v-5.7h11.4z"/><path class="f" d="m240.2 637h-11.4v-11.4h11.4z"/><path class="o" d="m240.2 637h-11.4v-5.7h11.4z"/><path class="f" d="m257.4 637h-11.3v-11.4h11.3z"/><path class="o" d="m257.4 637h-11.3v-5.7h11.3z"/><path class="f" d="m274.7 637h-11.4v-11.4h11.4z"/><path class="o" d="m274.7 637h-11.4v-5.7h11.4z"/><path class="f" d="m291.9 637h-11.3v-11.4h11.3z"/><path class="o" d="m291.9 637h-11.3v-5.7h11.3z"/><path class="f" d="m309.2 637h-11.4v-11.4h11.4z"/><path class="o" d="m309.2 637h-11.4v-5.7h11.4z"/><path class="f" d="m326.4 637h-11.3v-11.4h11.3z"/><path class="o" d="m326.4 637h-11.3v-5.7h11.3z"/><path class="f" d="m343.7 637h-11.4v-11.4h11.4z"/><path class="o" d="m343.7 637h-11.4v-5.7h11.4z"/><path class="f" d="m360.9 637h-11.4v-11.4h11.4z"/><path class="o" d="m360.9 637h-11.4v-5.7h11.4z"/><path class="f" d="m378.2 637h-11.4v-11.4h11.4z"/><path class="o" d="m378.2 637h-11.4v-5.7h11.4z"/><path class="f" d="m395.4 637h-11.4v-11.4h11.4z"/><path class="o" d="m395.4 637h-11.4v-5.7h11.4z"/><path class="f" d="m412.6 637h-11.3v-11.4h11.3z"/><path class="o" d="m412.6 637h-11.3v-5.7h11.3z"/><path class="f" d="m429.9 637h-11.4v-11.4h11.4z"/><path class="o" d="m429.9 637h-11.4v-5.7h11.4z"/><path class="f" d="m447.1 637h-11.3v-11.4h11.3z"/><path class="o" d="m447.1 637h-11.3v-5.7h11.3z"/><path class="f" d="m464.4 637h-11.4v-11.4h11.4z"/><path class="o" d="m464.4 637h-11.4v-5.7h11.4z"/><path class="f" d="m240.2 652.6h-11.4v-11.3h11.4z"/><path class="o" d="m240.2 652.6h-11.4v-5.7h11.4z"/><path class="f" d="m257.4 652.6h-11.3v-11.3h11.3z"/><path class="o" d="m257.4 652.6h-11.3v-5.7h11.3z"/><path class="f" d="m274.7 652.6h-11.4v-11.3h11.4z"/><path class="o" d="m274.7 652.6h-11.4v-5.7h11.4z"/><path class="f" d="m395.4 652.6h-114.8v-11.3h114.8z"/><path class="o" d="m395.4 652.6h-114.8v-5.7h114.8z"/><path class="f" d="m412.6 652.6h-11.3v-11.3h11.3z"/><path class="o" d="m412.6 652.6h-11.3v-5.7h11.3z"/><path class="f" d="m429.9 652.6h-11.4v-11.3h11.4z"/><path class="o" d="m429.9 652.6h-11.4v-5.7h11.4z"/><path class="f" d="m447.1 652.6h-11.3v-11.3h11.3z"/><path class="o" d="m447.1 652.6h-11.3v-5.7h11.3z"/><path class="f" d="m464.4 652.6h-11.4v-11.3h11.4z"/><path class="o" d="m464.4 652.6h-11.4v-5.7h11.4z"/><path class="h" d="m600.6 653.1c0 7.6-6.2 13.8-13.8 13.8h-10.5c-7.7 0-13.9-6.2-13.9-13.8v-38.8c0-7.7 6.2-13.9 13.9-13.9h10.5c7.6 0 13.8 6.2 13.8 13.9z"/><path class="f" d="m587.5 617.5c0 3.3-2.7 6-6 6-3.3 0-6-2.7-6-6 0-3.3 2.7-6 6-6 3.3 0 6 2.7 6 6z"/><path class="s" d="m586.8 600.4h-5.9v66.5h5.9c7.6 0 13.8-6.2 13.8-13.8v-38.8c0-7.7-6.2-13.9-13.8-13.9z"/><path class="o" d="m581.5 611.5q-0.3 0-0.6 0.1v11.9c0.2 0 0.4 0 0.6 0 3.3 0 6-2.7 6-6 0-3.3-2.7-6-6-6z"/></svg>