<?xml version="1.0" encoding="utf-8"?>
<!-- Generator: Adobe Illustrator 24.3.0, SVG Export Plug-In . SVG Version: 6.00 Build 0)  -->
<svg version="1.1" id="Layer_1" xmlns="http://www.w3.org/2000/svg" xmlns:xlink="http://www.w3.org/1999/xlink" x="0px" y="0px"
	 viewBox="0 0 268 380" style="enable-background:new 0 0 268 380;" xml:space="preserve">
<style type="text/css">
	.st0{opacity:0.54;fill:#231F20;}
	.st1{opacity:0.54;fill:#FFFFFF;}
	.st2{opacity:0.54;fill:#F2F2F2;}
	.st3{opacity:0.46;}
	.st4{opacity:0.54;}
	.st5{fill:#FFFFFF;}
	.st6{fill:#F7931E;}
	.st7{opacity:0.54;fill:#E6E6E6;}
	.st8{fill:#FF9103;stroke:#000000;stroke-miterlimit:10;}
	.st9{fill:#FFD19F;stroke:#000000;stroke-miterlimit:10;}
	.st10{fill:#001721;}
	.st11{fill:#FFFFFF;stroke:#000000;}
	.st12{fill:#FF9103;}
	.st13{fill:#FFD19F;}
	.st14{fill:#131313;}
	.st15{fill:#D6D6D6;}
	.st16{fill:none;stroke:#000000;}
	.st17{fill:#FF931E;stroke:#000000;}
	.st18{fill:#FF9103;stroke:#FFFFFF;stroke-miterlimit:10;}
	.st19{fill:none;stroke:#FFFFFF;stroke-linecap:round;}
	.st20{fill:#FF9103;stroke:#FFFFFF;}
</style>
<g>
	<path class="st0" d="M189.03,188.46c7.8,2.21,15.74,2.81,23.78,1.77c0.98-0.13,0.96-1.69-0.03-1.56
		c-7.92,1.02-15.69,0.45-23.38-1.73C188.43,186.68,188.06,188.19,189.03,188.46L189.03,188.46z"/>
	<path class="st0" d="M210.6,188.12c-5.32,5.22-9.67,11.08-13.1,17.7c-0.46,0.89,0.9,1.65,1.36,0.76
		c3.37-6.48,7.64-12.25,12.86-17.36C212.43,188.51,211.31,187.42,210.6,188.12L210.6,188.12z"/>
	<path class="st1" d="M116.04,190.56c-5.95,5.37-5.26,15.32,1.16,19.99c0.81,0.59,1.56-0.78,0.76-1.36
		c-5.65-4.11-5.93-12.92-0.8-17.54C117.89,190.98,116.78,189.89,116.04,190.56L116.04,190.56z"/>
	<path class="st2" d="M116.4,210.62c-1,14.53-10.06,31.63-20,42.23c-5.52,5.89-12.89,8.52-20.23,11.43
		c-7.2,2.85-14.48,5.3-22.11,6.7c-0.99,0.18-0.55,1.68,0.43,1.5c9.18-1.69,17.81-4.92,26.42-8.45c6.95-2.85,13.03-5.84,17.99-11.65
		c9.48-11.1,18.05-27.07,19.06-41.79C118.03,209.59,116.47,209.63,116.4,210.62L116.4,210.62z"/>
	<path class="st1" d="M161.98,217.7c0.26,6.7-5.34,12.39-12.04,12.27c-1-0.02-0.97,1.54,0.04,1.56c7.53,0.14,13.86-6.33,13.57-13.86
		C163.5,216.67,161.95,216.7,161.98,217.7L161.98,217.7z"/>
	<path class="st2" d="M147.44,229.62c-10.12,16.22-16.57,34.42-18.73,53.43c-1.02,8.96-1.1,18.01-0.17,26.99
		c0.79,7.66,1.55,16.02,7.02,21.87c0.69,0.73,1.78-0.38,1.09-1.11c-6.37-6.8-6.6-18.35-7.05-27.21c-0.44-8.87,0.07-17.78,1.51-26.54
		c2.73-16.61,8.79-32.39,17.7-46.66C149.33,229.53,147.97,228.77,147.44,229.62L147.44,229.62z"/>
	<path class="st1" d="M125.06,220.43c-5.04,7.12-8.59,14.75-10.79,23.17c-0.19,0.72,0.8,1.32,1.31,0.73
		c1.02-1.18,2.93-3.76,4.45-4.06c2.55-0.51,1.2,0.05,0.82,1.98c-0.8,4.13-3.37,8.51-4.99,12.45c-2.69,6.48-5.51,12.9-8.6,19.2
		c-6.49,13.21-14.21,25.69-23.9,36.8c0.41,0.31,0.82,0.62,1.23,0.92c19.71-27.19,38.59-54.95,56.64-83.26
		c0.54-0.84-0.82-1.6-1.36-0.76c-18.05,28.31-36.93,56.08-56.64,83.26c-0.51,0.71,0.66,1.58,1.24,0.92
		c18.66-21.38,29.54-47.6,39.7-73.76c0.2-0.53-0.46-1.14-0.97-0.93c-3.58,1.43-6.18,3.24-8.72,6.16c0.44,0.24,0.87,0.49,1.31,0.73
		c2.17-8.29,5.69-15.8,10.64-22.78C127,220.37,125.63,219.62,125.06,220.43L125.06,220.43z"/>
	<path class="st1" d="M123.65,203.5c-3.88,5.79-3.05,13.61,1.87,18.52c0.71,0.71,1.8-0.4,1.09-1.11c-4.46-4.45-5.09-11.44-1.6-16.65
		C125.57,203.43,124.21,202.68,123.65,203.5L123.65,203.5z"/>
	<path class="st1" d="M131.03,220.89c3.22,5.07,9.64,7.8,15.47,5.79c5.81-2,9.21-8.16,8.55-14.12c-0.11-0.99-1.66-0.97-1.56,0.03
		c1.35,12.24-14.46,18.01-21.13,7.51C131.83,219.25,130.49,220.04,131.03,220.89L131.03,220.89z"/>
	<path class="st3" d="M257.05,204.11c5.04-24.89,6.48-46.58,4.42-66.34c-0.37-4.91-0.89-9.38-1.56-13.31
		c-0.59-3.54-1.75-7.71-3.44-12.42c-1.12-3.81-2.36-7.47-3.72-10.93c4.34-14.61,7.37-28.02,9.26-40.93
		c1.85-12.63,2.62-25.14,2.3-37.16c-0.03-1.22-0.35-2.37-0.92-3.38c-1.12-3.89-3.76-7.2-7.46-9.26c-4.05-2.25-8.8-2.74-13.07-1.38
		c-0.75,0.15-1.47,0.42-2.14,0.8c-17.89,10.09-35.09,23.93-52.58,42.3c-2.77,2.9-5.62,6.01-8.51,9.26
		c-23.5,4.52-47.34,16.25-70.92,34.89c-5.92,4.68-11.34,9.59-17.64,15.53c-1.36,1.28-2.12,3-2.16,4.82
		c-1.37,6.34-0.76,12.91,1.78,19.11c0.03,0.28,0.08,0.56,0.15,0.84c0.45,1.86,1.68,3.46,3.36,4.4l0.44,0.24l0.39,0.15
		c3.67,1.46,7.53,2.4,11.42,3.05c-7.64,3.04-15.47,6.51-22.79,10.89c-1.62,0.96-2.73,2.55-3.11,4.35
		c-1.62,3.89-2.28,8.04-2.77,11.67c-0.51,3.74-0.75,7.83-0.78,12.87c-0.03,6.25,0.07,12.58,0.18,18.7c0.05,2.78,0.09,5.56,0.13,8.34
		c0.02,1.37,0.44,2.69,1.18,3.79c1.15,2.97,3.05,5.52,5.65,7.6c1.03,0.83,2.08,1.54,3.12,2.12c1.79,0.99,3.56,1.6,5.27,1.8
		l1.43,0.77l2.64-0.82c1.72-0.53,3.18-1.76,3.98-3.37c1.93-3.85,3.74-7.78,5.49-11.58l0.15-0.34l7.98-16.51
		c1.94,1.74,3.97,3.39,6.15,5.17c4.26,3.46,8.77,6.71,13.4,9.67c2.49,1.59,5.08,3.14,7.69,4.59c3.2,1.78,6.5,3.46,9.86,5.01
		c0.38,0.34,0.81,0.65,1.27,0.91c0.82,0.46,1.72,0.73,2.63,0.83c2.84,1.22,5.66,2.33,8.4,3.31c3,1.07,6.08,2.06,9.2,2.95
		c-0.42,0.69-0.85,1.37-1.27,2.04c-1.58,2.55-3.16,5.11-4.79,7.63c-1.34,2.08-2.71,4.15-4.07,6.21c-2.31,3.49-4.7,7.1-6.95,10.78
		c-0.95,1.54-1.23,3.43-0.77,5.17l0.79,2.78l1.36,0.75c1.08,1.33,2.51,2.5,4.27,3.49c1.04,0.58,2.2,1.09,3.45,1.54
		c3.15,1.11,6.32,1.38,9.45,0.79c1.32,0.04,2.66-0.29,3.84-1c2.37-1.43,4.75-2.85,7.13-4.27l1.1-0.66c3-1.66,8.69-4.92,13.93-8.47
		l0.97-0.6c4.14-2.6,7.41-4.91,10.27-7.24c3.12-2.55,6.31-5.36,8.72-8.72c1.32-1.26,2.08-3.04,2.06-4.91
		c-0.15-9.05-1.46-18-3.01-26.49c3.13,3.82,6.59,7.47,10.58,10.42l0.4,0.29l0.37,0.21c1.75,0.97,3.82,1.14,5.69,0.47
		c0.21-0.08,0.41-0.16,0.6-0.25c3.2-0.54,6.26-1.52,9.11-2.93c0.1-0.04,0.21-0.08,0.31-0.12c1.27-0.54,2.55-1.31,3.79-2.27
		c1.43-0.99,2.76-2.09,3.98-3.25C255.61,207.5,256.68,205.93,257.05,204.11z"/>
</g>
<path class="st7" d="M64,261.31l-0.67-0.35l-0.69-0.3l-0.71-0.25l-0.72-0.2l-0.73-0.15l-0.74-0.1l-0.74-0.05l-0.74-0.01l-0.74,0.04
	l-0.73,0.09l-0.72,0.13l-0.71,0.18l-0.69,0.23l-0.67,0.27l-0.65,0.32l-0.62,0.37l-0.61,0.42l-0.54,0.44l-0.53,0.48l-0.49,0.52
	l-0.46,0.55l-0.42,0.58l-0.38,0.6l-0.34,0.63l-0.3,0.65l-0.25,0.66l-0.21,0.68l-0.17,0.69l-0.12,0.69l-0.07,0.7l-0.02,0.7l0.03,0.69
	l0.05,1.08l-1.1-0.18l-1.99-0.33l-2-0.23l-2.01-0.13l-2.01-0.03l-2.01,0.08l-2,0.18l-1.98,0.29l-1.96,0.39l-1.94,0.5
	c-0.64,0.19-1.27,0.41-1.9,0.61c-0.62,0.23-1.24,0.48-1.86,0.72l-1.8,0.84l-1.74,0.96l-1.67,1.07l-1.59,1.18l-1.5,1.29l-1.41,1.43
	l-1.24,1.48L13.06,284l-1.02,1.69c-0.31,0.58-0.59,1.18-0.89,1.77c-0.26,0.6-0.5,1.22-0.75,1.83c-0.22,0.62-0.41,1.26-0.61,1.89
	c-0.17,0.64-0.31,1.29-0.46,1.93c-0.13,0.65-0.22,1.31-0.33,1.96c-0.08,0.66-0.11,1.32-0.17,1.98c-0.02,0.66,0,1.32,0,1.99
	c0.04,0.66,0.12,1.32,0.18,1.98l0.35,1.96l0.53,1.92l0.72,1.86l0.91,1.78l0.65,1.26l-1.31-0.42l-0.73-0.23l-0.75-0.16l-0.77-0.1
	l-0.78-0.03l-0.78,0.03l-0.78,0.1l-0.77,0.16l-0.76,0.21L4,309.63l-0.72,0.33l-0.7,0.39l-0.67,0.44l-0.63,0.49l-0.59,0.55l-0.54,0.6
	l-0.49,0.65l0.42-0.7l0.48-0.66l0.54-0.62l0.6-0.58l0.65-0.52l0.69-0.47l0.73-0.41l0.76-0.36l0.79-0.3l0.81-0.23l0.83-0.17l0.85-0.1
	l0.85-0.03l0.86,0.05l0.85,0.12l0.84,0.2l-0.66,0.85l-1.08-1.83l-0.89-1.94l-0.69-2.02c-0.16-0.69-0.34-1.38-0.48-2.08
	c-0.09-0.7-0.21-1.41-0.28-2.12c-0.03-0.71-0.08-1.42-0.09-2.14c0.03-0.71,0.04-1.42,0.09-2.14c0.09-0.71,0.15-1.42,0.27-2.12
	c0.15-0.7,0.28-1.4,0.45-2.09c0.2-0.68,0.39-1.37,0.61-2.05c0.25-0.67,0.49-1.34,0.77-2c0.31-0.65,0.6-1.3,0.92-1.94
	c0.36-0.62,0.7-1.25,1.07-1.87l1.23-1.77l1.4-1.7l1.48-1.51l1.62-1.41l1.72-1.29c0.6-0.39,1.2-0.79,1.81-1.16
	c0.63-0.34,1.25-0.69,1.89-1.02c0.65-0.3,1.29-0.6,1.95-0.89c0.66-0.25,1.33-0.52,2-0.76c0.68-0.21,1.35-0.44,2.04-0.63
	c0.69-0.17,1.38-0.35,2.07-0.51c0.7-0.13,1.39-0.27,2.09-0.38l2.11-0.25l2.12-0.14l2.12-0.03l2.12,0.09l2.1,0.21l2.09,0.32
	l2.07,0.43l-1.05,0.9l0-0.82l0.06-0.82l0.11-0.81l0.17-0.8l0.23-0.78l0.28-0.76l0.33-0.74l0.38-0.71l0.42-0.69l0.46-0.66l0.51-0.62
	l0.55-0.59l0.58-0.55l0.62-0.51L51.5,261l0.67-0.39l0.72-0.35l0.74-0.3l0.75-0.24l0.76-0.19l0.78-0.14l0.78-0.08l0.78-0.03
	l0.78,0.02l0.78,0.08l0.77,0.13l0.75,0.18l0.74,0.23l0.72,0.28l0.69,0.33l0.67,0.38L64,261.31z"/>
<path class="st7" d="M130.71,380.02l0.74-0.17l0.72-0.23l0.7-0.28l0.68-0.32l0.65-0.36l0.63-0.4l0.6-0.44l0.56-0.48l0.53-0.51
	l0.49-0.54l0.46-0.57l0.42-0.6l0.38-0.63l0.33-0.65l0.28-0.67l0.23-0.68l0.19-0.72l0.13-0.69l0.08-0.71l0.03-0.72l-0.01-0.72
	l-0.06-0.71l-0.11-0.71l-0.15-0.7l-0.2-0.68l-0.24-0.66l-0.29-0.65l-0.32-0.63l-0.36-0.6l-0.4-0.57l-0.44-0.54l-0.48-0.51
	l-0.74-0.79l0.95-0.58l1.72-1.05l1.67-1.14l1.6-1.21l1.54-1.29l1.47-1.37l1.4-1.44l1.31-1.51l1.23-1.58l1.14-1.64
	c0.36-0.56,0.69-1.14,1.04-1.7c0.32-0.58,0.62-1.18,0.93-1.76l0.81-1.81l0.69-1.86l0.57-1.9l0.44-1.93l0.29-1.96l0.14-2.01
	l-0.03-1.93l-0.19-1.96l-0.33-1.95c-0.15-0.64-0.32-1.28-0.48-1.92c-0.19-0.63-0.42-1.25-0.63-1.88c-0.24-0.62-0.51-1.22-0.77-1.83
	c-0.29-0.6-0.61-1.18-0.91-1.77c-0.33-0.57-0.69-1.13-1.03-1.7c-0.37-0.55-0.78-1.07-1.17-1.61c-0.42-0.51-0.87-1-1.3-1.51
	c-0.46-0.47-0.95-0.92-1.43-1.38l-1.54-1.26l-1.66-1.11l-1.76-0.94l-1.85-0.75l-1.31-0.53l1.26-0.54l0.7-0.3l0.68-0.37l0.64-0.43
	l0.61-0.48l0.57-0.53l0.53-0.58l0.48-0.62l0.44-0.66l0.39-0.69l0.33-0.72l0.28-0.75l0.21-0.77l0.16-0.79l0.09-0.8l0.02-0.81
	l-0.05-0.81l0.14,0.8l0.07,0.82l0,0.82l-0.08,0.82l-0.15,0.82l-0.22,0.81l-0.28,0.79l-0.34,0.77l-0.4,0.74l-0.47,0.71l-0.52,0.67
	l-0.58,0.63l-0.63,0.58l-0.68,0.53l-0.73,0.46l-0.77,0.4l-0.05-1.07l2.02,0.68l1.94,0.89l1.84,1.08c0.58,0.42,1.16,0.82,1.73,1.26
	c0.53,0.47,1.08,0.93,1.6,1.42c0.49,0.52,0.99,1.03,1.46,1.56c0.44,0.56,0.9,1.1,1.33,1.68c0.39,0.59,0.81,1.17,1.19,1.78
	c0.34,0.63,0.7,1.24,1.03,1.88c0.29,0.65,0.6,1.29,0.88,1.95c0.24,0.67,0.5,1.34,0.73,2.02c0.19,0.69,0.39,1.37,0.57,2.07
	c0.14,0.7,0.29,1.4,0.41,2.11l0.23,2.14l0.05,2.2l-0.13,2.11l-0.3,2.13l-0.46,2.1c-0.2,0.69-0.39,1.38-0.61,2.05
	c-0.25,0.67-0.5,1.34-0.76,2c-0.3,0.65-0.58,1.3-0.89,1.94c-0.34,0.63-0.66,1.26-1.01,1.88c-0.38,0.6-0.74,1.21-1.13,1.81
	c-0.41,0.58-0.81,1.17-1.23,1.74c-0.44,0.55-0.88,1.11-1.34,1.65l-1.43,1.57l-1.51,1.49l-1.59,1.4l-1.66,1.32l-1.73,1.22l-1.79,1.12
	l-1.85,1.02l0.21-1.36l0.54,0.62l0.49,0.66l0.44,0.69l0.39,0.71l0.34,0.74l0.28,0.76l0.23,0.77l0.18,0.79l0.13,0.79l0.08,0.8
	l0.02,0.8l-0.03,0.8l-0.09,0.8l-0.14,0.79l-0.2,0.8l-0.25,0.74l-0.31,0.73l-0.36,0.71l-0.41,0.68l-0.46,0.64l-0.5,0.61l-0.54,0.57
	l-0.57,0.53l-0.61,0.49l-0.64,0.45l-0.66,0.4l-0.69,0.36l-0.71,0.31l-0.73,0.25l-0.74,0.2l-0.75,0.15L130.71,380.02z"/>
<g>
	<path class="st11" d="M110.08,192.79c21,17.5,33.5,24,56.5,31l-15,24.5c-1,3.17-2,10.1,2,12.5c2.83,2.67,10.6,7.7,19,6.5
		c13.33-7.83,41.3-25.5,46.5-33.5l-2.5-29l12.5,11c5.5,0.17,18.2-2.2,25-13c2.33-13.67,6.7-45.9,5.5-65.5c-0.67-8-3.4-27.1-9-39.5
		c4.33-16.17,12.6-54.8,11-80c-1.47-4.91-7.88-14.37-21.77-13.55c-0.48,0.03-0.94,0.18-1.35,0.43
		c-12.05,7.33-40.58,27.47-63.38,52.63c-12,2.67-39.2,10.7-52,21.5c-10.5,6.33-33,21.6-39,32c-0.5,6.33-0.7,19.69,2.1,24.49
		c0.72,1.24,0.95,1.21,1.43,1.79c3.67,2,8.37,4.72,11.97,4.72c-6,2.17-19,7.5-23,11.5c-5,5-5.5,60-3.5,61.5s7.5,8.5,20,11
		C93.08,223.79,104.08,214.79,110.08,192.79z"/>
	<g>
		<path class="st12" d="M151.96,73.49c0,0,17.96-6.12,24.75-6.56L161.89,84.8c0,0-10.87,2.28-13.63,2.99
			C148.26,87.79,147.42,79.48,151.96,73.49z"/>
		<path class="st13" d="M150.67,73.92l-5.6,2.29l-11.7,6.35l-6.86,4.45l-9.41,6.79l-23.64,20.12L97,112.2l25.07-13.43l16.68-7.9
			l7.98-2.73l1.53-0.35l-0.24-3.2c0,0,0.22-5.87,1.6-7.23c1.38-1.36,1.78-3.08,1.78-3.08L150.67,73.92z"/>
	</g>
	<path class="st5" d="M148.83,103.39l13.06-18.59l18-21.39l19.6-19.79l10.58-9.32l1,1.92c0,0,6.22,9.07,9.57,10.43l1.87,1.35l9.42,5
		L238,55l12.08,1.57l-0.92,4.69l-3.6,16.39l-3.65,17.95c-0.19,0.95-0.46,1.89-0.79,2.8l-5.88,16.17l-7.9,20.8l-5.04,9.85h-2.3
		l-5.29,1.03l-6.99,0.4l-8.28-0.67L188,143l-5.08-2.4l-8.68-4.76l-9-8.04l-8.92-10.22l-6.08-9.42L148,104.7L148.83,103.39z"/>
	<path class="st14" d="M148,104.7c0,0,13.66,26.56,41.33,38.93l11.5,3.02l21.49-1.43l-18.22,31.44l-29.52,7.77
		c0,0-14.04-3.54-34.81-20.98L131.58,138C131.58,138,144,108.41,148,104.7z"/>
	<path class="st12" d="M136.07,136.75l2.53-1.7l3.59-1.43l2.68-0.32l3.39,0.87l3.2,3.82l1.12,6.22l-1.29,2.43l-4.09,5.91l-6.6,9.86
		l-1.53,1.88l-2.62,0.27l-2.94-1.89l-0.37-1.44l3.56-2.71l2.04-2.75l8.45-13.25l-1.39-2.71c0,0-3.21-2.32-10.01-3.06"/>
	<path class="st12" d="M176.08,184.42c0,0,2.08,3.15,6.5,0.36v-3.1l4.88-11.39l1.62-4l3.11-0.72l4.01,1.13l4.96,3.59l1.42,1.5
		l-1.05-4.79c0,0-2.42-4.37-3.47-4.69s-4.76-1.08-4.76-1.08l-5.32,1.44l-2.58,1.89L176.08,184.42z"/>
	<path class="st12" d="M238.75,13.46c0,0,0.91-1.08,2.33-1.02c1.42,0.06,4.49-0.4,4.49-0.4l3.13,1.42l2.89,2.9l1.5,4.4l-0.58,1.74
		h-7.26l-8.71-4.88L238.75,13.46z"/>
	<path class="st14" d="M210.08,34.29l7.78-5.74l20.72-15.26c0,0,1.64,6.29,8.03,8.5h6.47L251,43l-0.92,13.57c0,0-2.12,0.02-2.1,0.23
		C248,57,237.02,54.8,237.02,54.8L227,51l-5.76-3.93l-4.66-3.84L213,39L210.08,34.29z"/>
	<polygon class="st5" points="80.08,167.79 83.08,157.79 89.6,154.36 108.98,145.29 135.64,137.29 137.74,137.29 144.07,138.71 
		147,141 147,143.41 122.28,154.2 109.34,162.12 101.37,167.79 97.19,172.04 94.58,181.15 91,197 90.58,216.02 89.77,216.02 88,215 
		80.08,208.79 	"/>
	<polygon class="st12" points="182.58,181.68 189.33,166.23 191.56,189.79 192.98,206.83 193.24,218.08 192,225 187.38,229.84 
		172.65,244.13 159.08,253.56 161.64,249.07 171.27,234.19 180.6,219.53 181.77,202.64 	"/>
	<polygon class="st12" points="90.58,214.46 91.24,197.52 94.43,181.82 97.19,172.04 99.44,169.75 105.1,165.14 122.28,154.2 
		146.5,143.63 137,158 119.41,170.92 107.37,180.24 90.91,215.59 	"/>
	<polygon class="st5" points="189.33,168.16 189.33,166.23 193.3,165.57 198.61,168.16 202.91,172.38 207.38,200.44 210.49,229.95 
		206.79,234.34 199.22,240.55 186.17,249.27 170.02,258.43 164.73,258.13 159.4,254.73 159.08,253.56 163.65,250.95 175.33,241.77 
		192.18,225.09 193.24,218.08 192.91,203.83 189.88,172.42 	"/>
	<path class="st12" d="M233.29,120.29l8.63-24.69l1.9,3.36l1.75,6.78l3.31,18.5l0.17,1.55l-4.25,6.69l-6.22,6.69l-2.06-9.51
		C236.52,129.66,234.58,122.58,233.29,120.29z"/>
	<polygon class="st13" points="239.8,146.65 238.58,139.17 244.8,132.48 249.05,125.79 249.69,132.48 250.55,148.93 250.08,153.87 
		248.56,170.79 243.82,198.25 243.43,190.31 241.17,160.13 	"/>
	<path class="st15" d="M92.58,114.79l5.27-3.04c0,0,37.76-22.13,52.45-24.44l12.28-3.33L147,106.32l-14.42,28.45l-5,0.02l-30.5-2
		L92,130L92.58,114.79z"/>
	<path class="st15" d="M230.99,125.79l2.3-5.5c0,0,6.58,18.62,6.14,22.17L240,150l2.73,25.79l0.85,24l-5,4.27
		c0,0-4.96,2.38-6.27,2.16c-1.31-0.22-4.23-0.43-4.23-0.43l-10.17-14.19l-12.36-16.56L216,157l7.49-13.37l5.22-11.82L230.99,125.79z
		"/>
	<path class="st16" d="M147.08,143.29c0.8-4.8-6.67-6-10.5-6l-2.5,0.71 M147.08,143.29l-25,11c-7.83,4.5-23.8,14.4-25,18
		c-2,6.5-6,21.2-6,28l-0.5,16 M147.08,143.29l-10,15l-3.93,2.5 M90.58,216.29l-1.5-0.5l-9-7v-41l3-10l9.5-5l17.5-8l21.5-6.08
		 M90.58,216.29l17-36.5 M107.58,179.79l24-18l1.57-1 M107.58,179.79c15.83,15,32.5,32,73,40 M133.15,160.79
		c0.64,1.67,2.73,4.7,5.93,3.5l0.69-1 M134.08,138c14.4-11.03,18.33-0.07,18.5,6.79l-12.81,18.5 M134.08,138l-2.5,0.71
		 M180.58,219.79l0.5-7l1.5-22 M180.58,219.79l-22,34 M182.58,190.79l-6.5-1 M182.58,190.79v-8.5l6.5-16 M176.08,189.79l-1.5,20.5
		c-24-6-38.5-11.5-55-32 M176.08,189.79c-2.74-0.27-7.28-2.24-12.5-5.01 M119.08,177.79l15-11.5c3.14,2.21,7.38,5.08,12,8.06
		 M146.08,174.35l-5,6.94l9.5,7l2.75-3.87 M146.08,174.35c3.23,2.08,6.64,4.21,10,6.2 M156.08,180.55l-2.75,3.87 M156.08,180.55
		c2.57,1.52,5.11,2.96,7.5,4.23 M153.33,184.42l7.25,5.37l3-5.01 M150.58,159.29v-4h-3.5v4H150.58z M139.77,163.29
		c7.44,6.42,25.11,19.64,36.31,21.13l9.5-20.13c5-3.5,15.4-6.9,17,7.5 M202.58,171.79c-2.5-2.93-8.7-8.14-13.5-5.5 M202.58,171.79
		c0.4,0.4,0.89,2.21,1.43,5 M189.08,166.29c2.33,17.17,6.2,53,3,59c-7,7.67-23.5,24.1-33.5,28.5 M158.58,253.79
		c1.67,2.17,6.4,6.1,12,4.5c11.5-6.17,35.6-20.5,40-28.5c-1.46-14.81-4.41-41.8-6.57-53 M204.01,176.79
		c0.49-0.77,1.01-1.59,1.54-2.44 M242.08,95.79l-12,33c-0.61,2.46-3.61,8.62-7.54,16 M242.08,95.79l8-39 M242.08,95.79
		c3.49,5.81,5.68,18.11,6.97,30 M250.08,56.79l3-35 M250.08,56.79c-24.4-1.2-36.83-15.5-40-22.5 M253.08,21.79
		c-0.5-4.67-4.1-12.9-14.5-8.5 M253.08,21.79c-9.6,1.2-13.67-5.17-14.5-8.5 M238.58,13.29l-28.5,21 M210.08,34.29
		c-8.27,6.82-20.48,18.21-33,32.23 M131.58,138.71c0.42-1.3,0.87-2.61,1.35-3.91 M148.26,104.29c8.25,17.67,34.65,50.5,74.28,40.5
		 M148.26,104.29c-6.24,9.92-11.59,20.22-15.33,30.5 M148.26,104.29c4.33-6.89,9.09-13.6,14.03-20 M222.54,144.79
		c-5.14,9.65-11.88,21.37-16.99,29.56 M132.93,134.79l-35.85-2l-4.5-2.5v-15.5 M92.58,114.79c11.5-11.2,39.6-35.19,60-41.5
		 M92.58,114.79c13.45-8,43.42-24.6,55.68-27 M152.58,73.29c4.17-1.51,14.9-4.99,24.5-6.77 M152.58,73.29
		c-4.8,4.4-4.88,11.5-4.32,14.5 M177.08,66.52c-4.96,5.55-9.96,11.51-14.79,17.77 M148.26,87.79l14.03-3.5 M205.55,174.35
		l22.53,31.44c2.83,1,9.9,1.1,15.5-6.5 M243.58,199.29c2-8.67,6.2-31,7-51c-0.14-5.58-0.6-13.94-1.53-22.5 M243.58,199.29
		c0-13.84-1.41-40.41-5-60.12 M233.22,120.15c2.16,4.44,3.93,11.19,5.36,19.02 M238.58,139.17c2.15-1.79,7.25-6.98,10.47-13.38"/>
	<ellipse class="st12" cx="198.58" cy="102.29" rx="21" ry="20.5"/>
	<path class="st9" d="M224.58,102.29c0,14.08-11.42,25.5-25.5,25.5c-14.08,0-25.5-11.42-25.5-25.5c0-14.08,11.42-25.5,25.5-25.5
		C213.16,76.79,224.58,88.21,224.58,102.29z M178.72,102.29c0,11.25,9.12,20.36,20.36,20.36c11.24,0,20.36-9.12,20.36-20.36
		c0-11.25-9.12-20.36-20.36-20.36C187.84,81.93,178.72,91.05,178.72,102.29z"/>
	<path class="st17" d="M141.08,181.29c0.42,0.21,4.42-5.79,4.42-5.79l1-1l9.36,6.37l-4.78,7.08l-0.58,0.55L141.08,181.29z"/>
	<rect x="147.5" y="155.5" class="st18" width="3" height="4"/>
	<path class="st19" d="M150.58,159.29c0,0,9.08,11.79,24,13.5"/>
	<path class="st20" d="M176,175L176,175c-1.1,0-2-0.9-2-2v-1c0-1.1,0.9-2,2-2l0,0c1.1,0,2,0.9,2,2v1C178,174.1,177.1,175,176,175z"
		/>
</g>
</svg>
