<svg width="900" height="400" viewBox="0 0 900 400" fill="none" xmlns="http://www.w3.org/2000/svg">
<g clip-path="url(#clip0_38_2)">
<rect width="900" height="400" fill="white"/>
<rect y="-50" width="900" height="500" fill="#FF9103"/>
<path d="M1150 200C1150 338.071 1038.07 450 900 450C761.929 450 650 338.071 650 200C650 61.9288 761.929 -50 900 -50C1038.07 -50 1150 61.9288 1150 200ZM875.746 200C875.746 213.395 886.605 224.254 900 224.254C913.395 224.254 924.254 213.395 924.254 200C924.254 186.605 913.395 175.746 900 175.746C886.605 175.746 875.746 186.605 875.746 200Z" fill="white" fill-opacity="0.55"/>
<path d="M1100 200C1100 310.457 1010.46 400 900 400C789.543 400 700 310.457 700 200C700 89.5431 789.543 0 900 0C1010.46 0 1100 89.5431 1100 200ZM750 200C750 282.843 817.157 350 900 350C982.843 350 1050 282.843 1050 200C1050 117.157 982.843 50 900 50C817.157 50 750 117.157 750 200Z" fill="white" fill-opacity="0.65"/>
<path d="M1050 200C1050 282.843 982.843 350 900 350C817.157 350 750 282.843 750 200C750 117.157 817.157 50 900 50C982.843 50 1050 117.157 1050 200ZM801 200C801 254.676 845.324 299 900 299C954.676 299 999 254.676 999 200C999 145.324 954.676 101 900 101C845.324 101 801 145.324 801 200Z" fill="white" fill-opacity="0.75"/>
<path d="M1000 200C1000 255.228 955.228 300 900 300C844.772 300 800 255.228 800 200C800 144.772 844.772 100 900 100C955.228 100 1000 144.772 1000 200ZM850 200C850 227.614 872.386 250 900 250C927.614 250 950 227.614 950 200C950 172.386 927.614 150 900 150C872.386 150 850 172.386 850 200Z" fill="white" fill-opacity="0.85"/>
<circle cx="900" cy="200" r="50" fill="white"/>
</g>
<defs>
<clipPath id="clip0_38_2">
<rect width="900" height="400" fill="white"/>
</clipPath>
</defs>
</svg>
