<svg width="460" height="335" viewBox="0 0 460 335" fill="none" xmlns="http://www.w3.org/2000/svg">
<g clip-path="url(#clip0_38_291)">
<path d="M460 -0.429993H0V334.57H460V-0.429993Z" fill="#FFF5E8"/>
<path d="M26.3773 265.324H62.7671L54.4847 292.84H35.4125L26.3773 265.324Z" stroke="#E2DBD5" stroke-width="0.9871" stroke-miterlimit="10"/>
<path d="M27.5957 269.034H61.6504" stroke="#E2DBD5" stroke-width="0.9871" stroke-miterlimit="10"/>
<path d="M39.0676 265.324C39.0676 265.324 32.9219 231.593 46.3509 206.681C46.3509 206.681 56.0869 220.238 49.9303 265.324" stroke="#E2DBD5" stroke-width="0.9871" stroke-miterlimit="10"/>
<path d="M38.5571 261.438C38.5571 261.438 34.7793 251.54 6.40379 242.006C6.40379 242.006 10.1367 252.741 31.5888 265.324" stroke="#E2DBD5" stroke-width="0.9871" stroke-miterlimit="10"/>
<path d="M50.34 260.833C50.34 260.833 60.5945 243.878 82.1982 242.006C82.1982 242.006 74.866 252.318 57.9065 265.324" stroke="#E2DBD5" stroke-width="0.9871" stroke-miterlimit="10"/>
<path d="M37.6638 248.655C37.6638 248.655 31.7504 231.451 20.5966 220.831C20.5966 220.831 23.9207 238.593 32.4632 254.838" stroke="#E2DBD5" stroke-width="0.9871" stroke-miterlimit="10"/>
<path d="M51.5375 244.429C51.5375 244.429 59.762 229.079 70.9148 218.459C70.9148 218.459 66.6794 232.72 59.8637 250.485" stroke="#E2DBD5" stroke-width="0.9871" stroke-miterlimit="10"/>
<path d="M6 292.68H466" stroke="#E2DBD5" stroke-width="0.9974" stroke-miterlimit="10"/>
<path d="M414.888 46.8142C427.74 46.8142 438.158 36.3345 438.158 23.4071C438.158 10.4797 427.74 0 414.888 0C402.037 0 391.618 10.4797 391.618 23.4071C391.618 36.3345 402.037 46.8142 414.888 46.8142Z" stroke="#E2DBD5" stroke-width="0.9871" stroke-miterlimit="10"/>
<path d="M414.888 13.4V23.4071H430.599" stroke="#E2DBD5" stroke-width="0.9871" stroke-miterlimit="10"/>
<path d="M372.06 183.09H451.99" stroke="#E2DBD5" stroke-width="0.9871" stroke-miterlimit="10"/>
<path d="M449.491 183.09H375.727V277.833H449.491V183.09Z" stroke="#E2DBD5" stroke-width="0.9871" stroke-miterlimit="10"/>
<path d="M375.727 215.473H449.491" stroke="#E2DBD5" stroke-width="0.9871" stroke-miterlimit="10"/>
<path d="M375.727 245.995H449.491" stroke="#E2DBD5" stroke-width="0.9871" stroke-miterlimit="10"/>
<path d="M406.331 199.949H417.579" stroke="#E2DBD5" stroke-width="0.9871" stroke-miterlimit="10"/>
<path d="M406.331 230.462H417.579" stroke="#E2DBD5" stroke-width="0.9871" stroke-miterlimit="10"/>
<path d="M406.331 260.975H417.579" stroke="#E2DBD5" stroke-width="0.9871" stroke-miterlimit="10"/>
<path d="M382.671 292.76C385.209 292.76 387.266 290.69 387.266 288.138C387.266 285.585 385.209 283.515 382.671 283.515C380.133 283.515 378.076 285.585 378.076 288.138C378.076 290.69 380.133 292.76 382.671 292.76Z" stroke="#E2DBD5" stroke-width="0.9871" stroke-miterlimit="10"/>
<path d="M382.671 283.515V277.833" stroke="#E2DBD5" stroke-width="0.9871" stroke-miterlimit="10"/>
<path d="M442.638 292.76C445.175 292.76 447.233 290.69 447.233 288.138C447.233 285.585 445.175 283.515 442.638 283.515C440.1 283.515 438.042 285.585 438.042 288.138C438.042 290.69 440.1 292.76 442.638 292.76Z" stroke="#E2DBD5" stroke-width="0.9871" stroke-miterlimit="10"/>
<path d="M442.638 283.515V277.833" stroke="#E2DBD5" stroke-width="0.9871" stroke-miterlimit="10"/>
<path d="M58.2937 188.03L341.835 188.03V11.237L58.2937 11.237V188.03Z" fill="#E2DBD5"/>
<path d="M63.167 183.127L346.708 183.127V6.33493L63.167 6.33493V183.127Z" fill="white"/>
<path d="M76.0168 171.748L333.857 171.748V17.7151L76.0168 17.7151V171.748Z" stroke="#EFE9E4" stroke-width="1.0203" stroke-miterlimit="10"/>
<path d="M215.143 83.2282H204.024V116.287H215.143V83.2282Z" fill="#FF9E22"/>
<path d="M234.803 69.2646H223.684V116.287H234.803V69.2646Z" fill="#FF9E22"/>
<path d="M254.464 59.4932H243.345V116.287H254.464V59.4932Z" fill="#FF9E22"/>
<path d="M274.124 96.0134H263.005V116.287H274.124V96.0134Z" fill="#FFD9A9"/>
<path d="M293.785 87.8908H282.666V116.287H293.785V87.8908Z" fill="#5581E1"/>
<path d="M314.066 117.51H183.26C182.681 117.51 182.212 117.038 182.212 116.455V50.0005C182.212 49.4178 182.681 48.9465 183.26 48.9465C183.84 48.9465 184.309 49.4188 184.309 50.0005V115.401H314.067C314.646 115.401 315.116 115.873 315.116 116.456C315.115 117.039 314.645 117.51 314.066 117.51Z" fill="#2E353A"/>
<path d="M311.621 129.318H185.705C184.355 129.318 183.26 128.217 183.26 126.859C183.26 125.501 184.355 124.4 185.705 124.4H311.622C312.972 124.4 314.067 125.501 314.067 126.859C314.066 128.217 312.972 129.318 311.621 129.318Z" fill="#E2DBD5"/>
<path d="M263.798 138.886H185.704C184.354 138.886 183.259 137.785 183.259 136.427C183.259 135.069 184.354 133.968 185.704 133.968H263.798C265.148 133.968 266.242 135.069 266.242 136.427C266.242 137.785 265.149 138.886 263.798 138.886Z" fill="#E2DBD5"/>
<path d="M128.265 55.8957C122.191 55.8957 116.538 57.713 111.818 60.8361L128.265 84.9673L124.598 116.004C123.83 115.909 123.83 115.909 124.598 116.004C125.8 116.153 127.023 116.228 128.265 116.228C144.827 116.228 158.254 102.722 158.254 86.0625C158.255 69.402 144.827 55.8957 128.265 55.8957Z" fill="#FF9E22"/>
<path d="M98.2764 86.0615C98.2764 92.9686 100.586 99.3351 104.474 104.42L128.266 84.9673L111.819 60.8361C110.102 61.9704 108.508 63.2782 107.062 64.7314C103.298 68.5184 100.531 73.3064 99.1877 78.664C98.5914 81.0318 98.2764 83.5111 98.2764 86.0615Z" fill="#5581E1"/>
<path d="M104.25 104.123C104.324 104.224 104.398 104.322 104.473 104.42C109.247 110.682 116.414 115.001 124.598 116.004L128.265 84.9673L104.25 104.123Z" fill="#FFD9A9"/>
<path d="M149.871 130.147H107.896C106.546 130.147 105.451 129.046 105.451 127.688C105.451 126.33 106.546 125.228 107.896 125.228H149.871C151.221 125.228 152.316 126.33 152.316 127.688C152.316 129.046 151.221 130.147 149.871 130.147Z" fill="#E2DBD5"/>
<path d="M126.062 139.715H107.896C106.546 139.715 105.451 138.613 105.451 137.255C105.451 135.898 106.546 134.796 107.896 134.796H126.062C127.412 134.796 128.506 135.898 128.506 137.255C128.506 138.613 127.413 139.715 126.062 139.715Z" fill="#E2DBD5"/>
<path d="M63.8289 330.21C63.8289 332.856 91.7667 335 126.229 335C160.692 335 188.629 332.856 188.629 330.21C188.629 327.564 160.692 325.42 126.229 325.42C91.7667 325.42 63.8289 327.564 63.8289 330.21Z" fill="#E6DFDA"/>
<path d="M133.012 266.379C133.012 271.202 129.126 275.113 124.33 275.113H85.5333C80.7386 275.113 76.8521 271.202 76.8521 266.379V230.083C76.8521 225.26 80.7386 221.349 85.5333 221.349H124.33C129.125 221.349 133.012 225.259 133.012 230.083V266.379Z" fill="#FF9E22"/>
<path d="M138.167 266.379C138.167 271.202 134.279 275.113 129.484 275.113H90.688C85.8932 275.113 82.0058 271.202 82.0058 266.379V230.083C82.0058 225.26 85.8922 221.349 90.688 221.349H129.484C134.279 221.349 138.167 225.259 138.167 230.083V266.379Z" fill="#FF9E22"/>
<path d="M92.6601 326.644C92.6601 327.867 91.5414 328.859 90.1615 328.859C88.7816 328.859 87.663 327.867 87.663 326.644V304.653C87.663 303.429 88.7816 302.437 90.1615 302.437C91.5414 302.437 92.6601 303.429 92.6601 304.653V326.644Z" fill="#5D5D5D"/>
<path opacity="0.5" d="M92.6601 306.288V304.653C92.6601 303.429 91.5414 302.437 90.1615 302.437C88.7816 302.437 87.663 303.429 87.663 304.653V306.478C89.321 306.334 90.9881 306.287 92.6601 306.288Z" fill="#18181B"/>
<path d="M155.591 326.644C155.591 327.867 154.472 328.859 153.092 328.859C151.712 328.859 150.594 327.867 150.594 326.644V304.653C150.594 303.429 151.712 302.437 153.092 302.437C154.472 302.437 155.591 303.429 155.591 304.653V326.644Z" fill="#5D5D5D"/>
<path opacity="0.5" d="M155.591 306.288V304.653C155.591 303.429 154.472 302.437 153.092 302.437C151.712 302.437 150.594 303.429 150.594 304.653V306.478C152.252 306.334 153.92 306.287 155.591 306.288Z" fill="#18181B"/>
<path d="M81.0098 326.028C81.0098 327.22 79.92 328.187 78.575 328.187C77.23 328.187 76.1403 327.22 76.1403 326.028V304.596C76.1403 303.404 77.23 302.437 78.575 302.437C79.92 302.437 81.0098 303.404 81.0098 304.596V326.028Z" fill="#474747"/>
<path opacity="0.5" d="M81.0098 306.191V304.597C81.0098 303.405 79.919 302.438 78.575 302.438C77.23 302.438 76.1403 303.405 76.1403 304.597V306.377C77.7555 306.234 79.3806 306.189 81.0098 306.191Z" fill="#18181B"/>
<path d="M142.339 326.028C142.339 327.22 141.249 328.187 139.904 328.187C138.559 328.187 137.47 327.22 137.47 326.028V304.596C137.47 303.404 138.559 302.437 139.904 302.437C141.249 302.437 142.339 303.404 142.339 304.596V326.028Z" fill="#474747"/>
<path opacity="0.5" d="M142.339 306.191V304.597C142.339 303.405 141.249 302.438 139.904 302.438C138.559 302.438 137.47 303.405 137.47 304.597V306.377C139.085 306.234 140.71 306.189 142.339 306.191Z" fill="#18181B"/>
<path d="M160.864 301.019C160.864 303.153 159.144 304.882 157.024 304.882C154.902 304.882 153.182 303.152 153.182 301.019V248.989C153.182 246.854 154.902 245.124 157.024 245.124C159.145 245.124 160.864 246.854 160.864 248.989V301.019Z" fill="#F7E4AC"/>
<path d="M161.338 299.049C161.338 302.463 158.586 305.231 155.192 305.231H143.413C140.019 305.231 137.267 302.463 137.267 299.049V247.533C137.267 244.119 140.019 241.351 143.413 241.351H155.192C158.586 241.351 161.338 244.119 161.338 247.533V299.049Z" fill="#FF8E00"/>
<path d="M155.631 299.049C155.631 302.463 152.879 305.231 149.485 305.231H143.413C140.019 305.231 137.267 302.463 137.267 299.049V247.533C137.267 244.119 140.019 241.351 143.413 241.351H149.485C152.879 241.351 155.631 244.119 155.631 247.533V299.049Z" fill="#FF9E22"/>
<path d="M160.942 299.049C160.942 302.463 158.19 305.231 154.796 305.231H85.6589C82.265 305.231 79.5132 302.463 79.5132 299.049V277.412C79.5132 273.998 82.265 271.23 85.6589 271.23H154.797C158.191 271.23 160.943 273.998 160.943 277.412L160.942 299.049Z" fill="#FF8E00"/>
<path d="M97.8147 186.963C97.9095 187.394 98.4259 202.239 98.4259 202.239C98.4259 202.239 85.4316 200.379 85.4196 199.817C85.4077 199.254 83.5612 185.506 83.5612 185.506L97.8147 186.963Z" fill="#EAC1A4"/>
<path d="M97.9743 190.257C97.9743 190.257 93.035 192.016 90.1884 190.393C90.1884 190.393 90.675 193.912 98.1527 195.095L97.9743 190.257Z" fill="#CB9180"/>
<path d="M102.55 177.088C103.093 176.847 103.362 176.226 103.168 175.661C103.063 175.356 102.836 175.111 102.542 174.982L100.271 173.993C97.7778 168.912 94.5953 164.707 94.5953 164.707L80.6618 173.54L90.4786 194.404L99.9494 189.164C101.962 187.832 103.292 185.529 103.185 183.423C103.088 181.53 102.543 179.471 101.773 177.433L102.55 177.088Z" fill="#EAC1A4"/>
<path d="M96.6921 157.289C96.6921 157.289 92.357 152.882 86.1764 157.289C83.1544 159.443 81.3856 161.749 80.3627 163.545C79.8662 163.767 79.3776 163.898 78.918 163.872C74.0515 163.592 69.6565 170.076 73.7185 174.654C72.4602 176.581 71.4402 179.172 72.6108 181.677C74.877 186.528 82.0905 190.169 83.7087 195.86C83.7087 195.86 94.1287 188.299 89.3101 183.791C84.4914 179.283 87.3918 180.605 87.3918 180.605L89.9282 181.677C89.9282 181.677 91.3779 175.243 85.7347 171.223C85.7347 171.223 103.628 168.109 96.6921 157.289Z" fill="#1F2326"/>
<path d="M90.3839 180.666C91.0389 182.571 90.0349 184.649 88.1415 185.308C86.2482 185.967 84.1813 184.957 83.5263 183.053C82.8712 181.147 83.8752 179.069 85.7686 178.409C87.662 177.75 89.7278 178.76 90.3839 180.666Z" fill="#EAC1A4"/>
<path d="M85.619 180.685C85.619 180.685 88.8923 179.293 89.1645 182.699" stroke="#CB9180" stroke-width="0.6846" stroke-miterlimit="10" stroke-linecap="round" stroke-linejoin="round"/>
<path d="M88.0498 180.738C88.0498 180.738 86.3788 180.983 86.9471 182.951" stroke="#CB9180" stroke-width="0.6846" stroke-miterlimit="10" stroke-linecap="round" stroke-linejoin="round"/>
<path d="M98.6572 173.909C98.6762 174.385 98.3073 174.785 97.8357 174.803C97.3631 174.821 96.9653 174.451 96.9473 173.975C96.9294 173.5 97.2973 173.1 97.7699 173.082C98.2415 173.065 98.6393 173.435 98.6572 173.909Z" fill="#1F2326"/>
<path d="M94.5794 173.481C94.6212 173.465 94.6631 173.443 94.703 173.416L97.5116 171.478C97.8247 171.261 97.8975 170.787 97.6732 170.416C97.4488 170.046 97.0151 169.922 96.6991 170.138L93.8904 172.076C93.5774 172.292 93.5046 172.767 93.7289 173.138C93.9243 173.461 94.2823 173.596 94.5794 173.481Z" fill="#1F2326"/>
<path d="M102.39 179.555C102.39 179.555 101.547 181.326 99.3252 180.93" stroke="#CB9180" stroke-width="0.6846" stroke-miterlimit="10" stroke-linecap="round" stroke-linejoin="round"/>
<path d="M82.603 199.6L86.4266 197.95L99.4449 201.962L91.9263 214.302L82.603 199.6Z" fill="#EAC1A4"/>
<path d="M112.29 223.257C112.29 223.257 124.774 239.484 128.422 239.162C129.704 239.049 157.229 242.511 157.229 242.511L152.62 238.518L132.839 231.37L122.147 217.654L112.29 223.257Z" fill="#DBAA8C"/>
<path d="M63.3932 226.917C63.3932 226.917 63.7232 208.722 66.7961 206.791C69.8689 204.859 83.8882 199.063 83.8882 199.063C83.8882 199.063 90.5833 211.248 99.4439 201.961C99.4439 201.961 115 205.824 117.305 208.143C119.609 210.461 126.884 219.473 126.884 219.473L115.192 228.62L113.848 226.882L113.464 238.859L105.398 248.132L79.9639 242.08L77.3586 228.042L63.3932 226.917Z" fill="#2E353A"/>
<path d="M65.813 226.917L79.7296 227.61L80.7934 235.813C80.7934 235.813 102.241 229.846 108.448 231.563C116.13 233.688 116.514 237.745 116.514 237.745L104.608 235.813C104.608 235.813 92.7 248.563 72.3435 243.541C72.3435 243.541 66.1978 241.986 65.813 226.917Z" fill="#EAC1A4"/>
<path d="M147.919 254.478L166.626 255.117L168.18 245.821L142.767 243.07L147.919 254.478Z" fill="white"/>
<path d="M86.5543 263.632C86.5543 263.632 99.2295 233.496 108.448 234.268C117.667 235.041 151.467 241.995 157.229 241.995C157.229 241.995 161.07 252.814 156.845 256.291L115.363 252.428C115.363 252.428 158.256 254.958 157.998 261.701C157.614 271.746 156.077 313.087 156.077 313.087L143.018 315.405C143.018 315.405 137.641 287.587 141.482 271.746L88.8604 273.291L86.5543 263.632Z" fill="#E07F49"/>
<path d="M164.628 256.455C164.302 256.374 164.211 255.947 164.485 255.751C165.46 255.054 166.997 253.448 167.339 250.113C167.745 246.156 165.023 245.735 165.023 245.735L171.625 234.52L171.653 234.477C172.856 232.574 174.826 231.294 177.045 230.971L177.679 230.879L171.02 258.04L164.628 256.455Z" fill="#2E353A"/>
<path d="M177.666 230.867L171.008 258.028L173.047 258.534L179.705 231.372L177.666 230.867Z" fill="#060606"/>
<path d="M144.491 307.073L145.311 325.055L154.185 323.919L154.445 297.764L144.491 307.073Z" fill="white"/>
<path d="M133.783 254.144L139.228 254.651C127.861 253.138 116.899 251.655 116.899 251.655C116.899 251.655 110.143 267.019 100.741 272.943L141.482 271.747C137.641 287.588 143.018 315.406 143.018 315.406L156.077 313.088C156.077 313.088 157.614 271.747 157.998 261.702C158.138 258.014 145.378 255.587 133.783 254.144Z" fill="#C26632"/>
<path d="M144.093 321.144C144.093 320.806 144.484 320.615 144.738 320.836C145.644 321.621 147.563 322.736 150.864 322.273C154.78 321.722 154.535 318.962 154.535 318.962L166.94 322.725L166.989 322.742C169.114 323.461 170.821 325.078 171.664 327.168L171.904 327.765H144.093V321.144Z" fill="#2E353A"/>
<path d="M171.904 327.765H144.093V329.877H171.904V327.765Z" fill="#060606"/>
<path d="M104.608 235.814C104.608 235.814 103.201 241.9 107.954 243.07C112.706 244.241 115.97 242.696 116.514 237.746C117.059 232.796 104.932 234.254 104.932 234.254L104.608 235.814Z" fill="#EAC1A4"/>
<path d="M98.2504 299.049C98.2504 302.463 95.4986 305.231 92.1047 305.231H80.3258C76.9319 305.231 74.1801 302.463 74.1801 299.049V247.533C74.1801 244.119 76.9319 241.351 80.3258 241.351H92.1047C95.4986 241.351 98.2504 244.119 98.2504 247.533V299.049Z" fill="#FF8E00"/>
<path d="M92.3161 299.049C92.3161 302.463 89.5643 305.231 86.1704 305.231H74.3915C70.9976 305.231 68.2457 302.463 68.2457 299.049V247.533C68.2457 244.119 70.9976 241.351 74.3915 241.351H86.1704C89.5643 241.351 92.3161 244.119 92.3161 247.533V299.049Z" fill="#FF9E22"/>
<path d="M331.28 322.208C331.28 324.853 355.558 326.998 385.507 326.998C415.455 326.998 439.733 324.853 439.733 322.208C439.733 319.562 415.455 317.418 385.507 317.418C355.558 317.418 331.28 319.562 331.28 322.208Z" fill="#E6DFDA"/>
<path d="M407.164 315.002L398.089 315.849L397.881 300.321L406.956 299.473L407.164 315.002Z" fill="#E9BDA0"/>
<path d="M397.255 313.295C397.255 312.974 397.625 312.792 397.868 313.002C398.729 313.748 400.553 314.808 403.689 314.368C407.411 313.844 407.178 311.222 407.178 311.222L418.969 314.798L419.015 314.814C421.035 315.498 422.657 317.035 423.458 319.02L423.686 319.588H397.254V313.295H397.255Z" fill="#2E353A"/>
<path d="M423.687 319.588H397.255V321.596H423.687V319.588Z" fill="#060606"/>
<path d="M411.059 191.466L409.061 307.772L396.757 307.858L393.68 180.846L411.059 191.466Z" fill="#2E353A"/>
<path d="M408.711 303.136L396.633 303.085L396.635 302.522L408.713 302.575L408.711 303.136Z" fill="#060606"/>
<path d="M362.453 315.261L371.528 316.109L372.985 300.328L363.911 299.48L362.453 315.261Z" fill="#E9BDA0"/>
<path d="M373.189 191.015L361.756 307.753L374.272 307.745L391.398 176.378L373.189 191.015Z" fill="#2E353A"/>
<path d="M372.611 313.295C372.611 312.974 372.24 312.792 371.998 313.002C371.137 313.748 369.313 314.808 366.176 314.368C362.454 313.844 362.687 311.222 362.687 311.222L350.898 314.798L350.852 314.814C348.832 315.498 347.21 317.035 346.409 319.02L346.181 319.588H372.613V313.295H372.611Z" fill="#2E353A"/>
<path d="M346.179 321.595H372.612V319.587H346.179V321.595Z" fill="#060606"/>
<path d="M362.493 302.372L362.485 302.934L375.035 303.095L375.042 302.534L362.493 302.372Z" fill="#060606"/>
<path d="M375.284 170.959L373.189 191.015L411.06 191.466L411.12 171.414L375.284 170.959Z" fill="#2E353A"/>
<path d="M398.839 191.185H383.584V191.747H398.839V191.185Z" fill="#060606"/>
<path d="M411.017 186.29C409.038 185.984 407.502 185.056 406.451 183.531C403.874 179.79 405.08 173.802 405.132 173.548L405.68 173.663C405.667 173.723 404.47 179.671 406.911 183.212C407.871 184.603 409.281 185.452 411.101 185.733L411.017 186.29Z" fill="#060606"/>
<path d="M374.021 185.061L374.01 184.498C380.306 184.371 380.336 173.294 380.336 173.182L380.894 173.18C380.895 173.298 380.896 176.12 380.076 179.007C378.966 182.91 376.873 185.003 374.021 185.061Z" fill="#060606"/>
<path d="M394.062 174.108L393.662 191.475L394.221 191.488L394.621 174.121L394.062 174.108Z" fill="#060606"/>
<path d="M389.81 174.108L389.409 191.475L389.968 191.488L390.369 174.121L389.81 174.108Z" fill="#060606"/>
<path d="M340.35 140.554L349.783 149.683L345.984 155.969L336.02 145.052L340.35 140.554Z" fill="#E2B99C"/>
<path d="M340.35 140.554L340.307 128.968C340.305 128.381 339.896 127.874 339.325 127.752C338.682 127.613 338.043 128.004 337.868 128.641L337.002 131.802L329.589 123.72C328.965 123.039 327.859 123.18 327.423 123.996L324.956 128.611C324.752 128.991 324.739 129.44 324.925 129.829C326.206 132.509 331.492 143.083 336.021 145.052L340.35 140.554Z" fill="#E2B99C"/>
<path d="M382.821 121.454C382.821 121.454 385.319 127.145 373.358 156.001C373.358 156.001 366.799 168.011 363.957 168.382C359.3 168.989 346.255 161.962 336.349 147.577L343.852 141.979L358.532 150.5L367.141 128.151C367.141 128.151 372.181 113.242 382.821 121.454Z" fill="#EAB356"/>
<path d="M334.692 131.812C334.692 131.812 331.761 133.767 331.622 137.983" stroke="#CB9180" stroke-width="0.6625" stroke-miterlimit="10" stroke-linecap="round" stroke-linejoin="round"/>
<path d="M358.532 150.499C358.532 150.499 361.431 151.905 361.756 157.174" stroke="#D89B40" stroke-width="0.715" stroke-miterlimit="10"/>
<path d="M395.031 111.761L414.63 120.501C416.024 121.123 416.847 122.589 416.658 124.11L411.068 172.937C411.068 172.937 392.86 175.937 375.153 172.295L370.659 124.85C370.48 123.303 371.025 121.759 372.133 120.671L384.219 111.693L395.031 111.761Z" fill="#EAB356"/>
<path d="M397.76 113.375L393.957 121.926L387.965 117.169L382.025 120.087L383.584 112.244" stroke="#D89B40" stroke-width="0.715" stroke-miterlimit="10"/>
<path d="M387.965 120.168C387.965 120.168 387.616 131.911 386.997 136.081C384.385 153.673 387.965 166.479 387.965 166.479" stroke="#D89B40" stroke-width="0.715" stroke-miterlimit="10"/>
<path d="M375.724 123.484C375.724 123.484 372.344 135.695 374.233 152.482" stroke="#D89B40" stroke-width="0.715" stroke-miterlimit="10"/>
<path d="M394.135 161.966L407.221 161.672L408.976 168.813L394.254 168.227L394.135 161.966Z" fill="#E2B99C"/>
<path d="M394.135 161.966L385.935 153.83C385.52 153.418 384.874 153.351 384.385 153.672C383.835 154.033 383.659 154.764 383.985 155.338L385.602 158.184L378.48 157.777C377.56 157.743 376.88 158.631 377.148 159.517L378.663 164.532C378.788 164.944 379.095 165.27 379.499 165.411C382.292 166.386 389.673 170.069 394.254 168.226L394.135 161.966Z" fill="#E2B99C"/>
<path d="M415.384 120.965C415.384 120.965 421.013 123.438 431.167 151.794C431.167 151.794 435 162.705 433.123 164.796C430.048 168.222 414.875 173.47 397.963 169.524L397.759 160.227L416.458 157.373L408.105 135.831C408.105 135.831 402.009 121.914 415.384 120.965Z" fill="#EAB356"/>
<path d="M424.952 159.229C421.434 155.535 416.459 157.373 416.459 157.373L408.106 135.831C408.106 135.831 402.568 125.526 411.121 121.926" stroke="#D89B40" stroke-width="0.715" stroke-miterlimit="10"/>
<path d="M411.12 171.414C411.12 171.414 400.571 172.059 397.76 171.414V160.228L416.459 157.374" stroke="#D89B40" stroke-width="0.715" stroke-miterlimit="10"/>
<path d="M374.823 82.5472C374.823 82.5472 371.121 86.5248 375.724 92.761L379.507 83.9704L374.823 82.5472Z" fill="#1F2326"/>
<path d="M395.768 94.2583L383.747 102.617L383.584 112.244L387.965 117.169L397.76 113.375L397.988 99.0342L395.768 94.2583Z" fill="#E2B99C"/>
<path d="M383.607 109.767C383.607 109.767 395.237 111.672 394.344 95.7998L390.395 98.0875L383.531 105.799L383.607 109.767Z" fill="#CB9180"/>
<path d="M383.415 106.572L383.791 106.616C389.36 107.27 394.403 103.26 395.053 97.6572L396.383 86.2039C396.552 84.7537 395.52 83.4408 394.078 83.2714L380.805 81.7118C378.229 81.4089 375.898 83.2633 375.597 85.8539L374.506 95.2432C373.857 100.846 377.845 105.918 383.415 106.572Z" fill="#E2B99C"/>
<path d="M400.078 81.0088C399.044 74.0626 393.548 73.6283 392.07 73.518C390.593 73.4066 386.544 74.7696 384.658 73.3786C382.873 72.0637 380.672 69.1803 375.683 70.3066C372.256 71.0809 369.791 76.1998 373.218 81.3738C376.409 86.1908 390.748 85.7957 393.748 85.6583C393.199 87.8587 392.174 93.3286 394.834 95.5882C395.31 99.1125 397.975 101.273 397.975 101.273C413.839 83.4659 400.078 81.0088 400.078 81.0088Z" fill="#1F2326"/>
<path d="M393.115 93.5673C392.881 95.5852 394.316 97.4115 396.322 97.6472C398.328 97.8829 400.144 96.4387 400.378 94.4208C400.613 92.4029 399.177 90.5766 397.171 90.3409C395.165 90.1053 393.349 91.5495 393.115 93.5673Z" fill="#E2B99C"/>
<path d="M383.933 91.9647C383.915 92.424 384.271 92.8121 384.729 92.8302C385.186 92.8482 385.571 92.4902 385.588 92.0298C385.606 91.5705 385.25 91.1824 384.793 91.1643C384.336 91.1473 383.951 91.5053 383.933 91.9647Z" fill="#1F2326"/>
<path d="M376.901 91.1172C376.883 91.5765 377.239 91.9647 377.697 91.9827C378.153 92.0008 378.539 91.6427 378.557 91.1824C378.575 90.723 378.219 90.3349 377.762 90.3169C377.304 90.2988 376.919 90.6569 376.901 91.1172Z" fill="#1F2326"/>
<path d="M380.124 91.6578L379.522 95.0697C379.522 95.0697 379.523 96.3374 381.35 96.0546" stroke="#CB9180" stroke-width="0.6625" stroke-miterlimit="10" stroke-linecap="round" stroke-linejoin="round"/>
<path d="M387.244 89.8254C387.194 89.8284 387.143 89.8254 387.09 89.8174L383.383 89.2427C382.969 89.1786 382.686 88.7894 382.749 88.3722C382.813 87.956 383.197 87.6712 383.614 87.7344L387.322 88.309C387.736 88.3732 388.019 88.7623 387.956 89.1796C387.9 89.5436 387.597 89.8084 387.244 89.8254Z" fill="#1F2326"/>
<path d="M378.787 88.6751C378.737 88.6781 378.685 88.6751 378.633 88.6671L376.366 88.316C375.951 88.2518 375.668 87.8627 375.732 87.4465C375.795 87.0293 376.183 86.7445 376.596 86.8087L378.862 87.1597C379.277 87.2239 379.56 87.613 379.496 88.0302C379.443 88.3933 379.139 88.658 378.787 88.6751Z" fill="#1F2326"/>
<path d="M398.462 93.0338C398.462 93.0338 395.294 91.6868 395.031 94.9824" stroke="#CB9180" stroke-width="0.6625" stroke-miterlimit="10" stroke-linecap="round" stroke-linejoin="round"/>
<path d="M396.11 93.0849C396.11 93.0849 397.727 93.3216 397.178 95.2261" stroke="#CB9180" stroke-width="0.6625" stroke-miterlimit="10" stroke-linecap="round" stroke-linejoin="round"/>
<path d="M375.417 95.2161C375.228 95.2161 375.039 95.2061 374.847 95.183C372.139 94.8691 370.19 92.3979 370.502 89.675C370.814 86.9511 373.263 84.9853 375.978 85.3053C378.686 85.6192 380.634 88.0894 380.322 90.8133C380.034 93.3437 377.891 95.2161 375.417 95.2161ZM375.411 85.6994C373.147 85.6994 371.189 87.4094 370.925 89.7231C370.64 92.2134 372.423 94.473 374.896 94.7588C377.366 95.0516 379.617 93.2524 379.902 90.7642C380.187 88.2739 378.406 86.0153 375.931 85.7295C375.757 85.7084 375.582 85.6994 375.411 85.6994Z" fill="#1F2326"/>
<path d="M386.234 96.4698C386.043 96.4698 385.852 96.4587 385.659 96.4357C384.348 96.2832 383.174 95.6273 382.353 94.5873C380.659 92.44 381.018 89.3059 383.153 87.602C384.186 86.7756 385.475 86.4055 386.79 86.5579C388.101 86.7104 389.275 87.3673 390.096 88.4073C391.79 90.5535 391.431 93.6867 389.295 95.3916C388.414 96.0967 387.344 96.4698 386.234 96.4698ZM386.215 86.9521C385.201 86.9521 384.223 87.2931 383.417 87.9359C381.466 89.4945 381.138 92.3588 382.685 94.3215C383.435 95.2733 384.508 95.872 385.707 96.0114C386.909 96.1549 388.087 95.8108 389.032 95.0577C389.978 94.3025 390.574 93.2233 390.713 92.0168C390.852 90.8113 390.514 89.6238 389.764 88.6721C389.014 87.7203 387.941 87.1206 386.742 86.9812C386.566 86.9621 386.39 86.9521 386.215 86.9521Z" fill="#1F2326"/>
<path d="M393.188 92.6998L390.893 92.2535L390.957 91.8313L393.252 92.2776L393.188 92.6998Z" fill="#1F2326"/>
<path d="M380.151 90.5794L380.102 91.0028L381.516 91.1671L381.564 90.7437L380.151 90.5794Z" fill="#1F2326"/>
<path d="M384.761 98.0022C384.761 98.0022 382.74 99.5919 378.557 98.1727" stroke="#CB9180" stroke-width="0.6625" stroke-miterlimit="10" stroke-linecap="round" stroke-linejoin="round"/>
</g>
<defs>
<clipPath id="clip0_38_291">
<rect width="460" height="335" fill="white"/>
</clipPath>
</defs>
</svg>
