<svg width="500" height="500" viewBox="0 0 500 500" fill="none" xmlns="http://www.w3.org/2000/svg">
<g clip-path="url(#clip0_14_3070)">
<rect width="500" height="500" fill="white"/>
<path d="M500 0H0V500H500V0Z" fill="#FF9E22"/>
<path opacity="0.4" d="M178.709 411.123C152.558 411.123 130.566 421.656 124.148 435.946C117.985 424.47 99.8595 416.155 78.4437 416.155C51.9535 416.155 30.4783 428.873 30.4783 444.56C30.4783 460.248 51.9535 472.968 78.4437 472.968C99.862 472.968 117.987 464.65 124.15 453.177C130.568 467.47 152.56 478 178.712 478C209.895 478 235.176 463.028 235.176 444.56C235.173 426.092 209.893 411.123 178.709 411.123Z" fill="#D62B2B"/>
<path opacity="0.4" d="M484.909 397.646L248.056 253.754L179.822 264.842C173.563 274.875 168.439 287.634 178.204 315.469C191.656 353.816 379.886 462.567 379.886 462.567L484.909 397.646Z" fill="#D62B2B"/>
<path d="M442.418 207.609C448.919 165.866 422.029 126.482 382.359 119.642C342.688 112.802 305.259 141.096 298.759 182.839C292.258 224.581 319.148 263.965 358.818 270.805C398.489 277.645 435.918 249.351 442.418 207.609Z" fill="white"/>
<path d="M285.442 142.857C315.044 142.857 339.041 117.607 339.041 86.4588C339.041 55.3108 315.044 30.0602 285.442 30.0602C255.84 30.0602 231.843 55.3108 231.843 86.4588C231.843 117.607 255.84 142.857 285.442 142.857Z" fill="white"/>
<path d="M413.629 58.8989C415.372 47.6229 408.099 36.9944 397.382 35.1596C386.666 33.3248 376.565 40.9785 374.821 52.2546C373.078 63.5307 380.351 74.1592 391.068 75.994C401.784 77.8287 411.885 70.175 413.629 58.8989Z" fill="white"/>
<path d="M131.216 209.703C138.416 209.703 144.252 203.562 144.252 195.986C144.252 188.411 138.416 182.269 131.216 182.269C124.017 182.269 118.18 188.411 118.18 195.986C118.18 203.562 124.017 209.703 131.216 209.703Z" fill="white"/>
<path d="M148.567 114.686C156.392 79.412 135.559 44.1418 102.036 35.9083C68.5125 27.6747 34.993 49.5956 27.1682 84.87C19.3433 120.144 40.1761 155.415 73.6994 163.648C107.223 171.882 140.742 149.961 148.567 114.686Z" fill="white"/>
<path d="M443.564 170.69C442.926 170.69 442.384 170.174 442.335 169.489C442.28 168.776 442.79 168.146 443.47 168.091C445.863 167.891 448.255 167.48 450.578 166.863C451.249 166.694 451.912 167.113 452.08 167.808C452.243 168.508 451.843 169.214 451.182 169.388C448.723 170.036 446.192 170.474 443.663 170.682C443.631 170.687 443.596 170.69 443.564 170.69ZM436.154 170.674C436.117 170.674 436.085 170.671 436.048 170.669C433.514 170.445 430.986 169.997 428.539 169.338C427.876 169.161 427.478 168.451 427.648 167.756C427.817 167.061 428.487 166.636 429.153 166.818C431.468 167.441 433.856 167.862 436.256 168.076C436.936 168.133 437.443 168.766 437.384 169.482C437.332 170.161 436.79 170.674 436.154 170.674ZM457.892 166.91C457.417 166.91 456.961 166.618 456.759 166.129C456.486 165.47 456.771 164.702 457.397 164.416C459.596 163.403 461.727 162.195 463.733 160.813C464.302 160.422 465.069 160.591 465.445 161.19C465.816 161.794 465.658 162.598 465.084 162.992C462.964 164.449 460.707 165.73 458.384 166.798C458.223 166.873 458.058 166.91 457.892 166.91ZM421.837 166.831C421.668 166.831 421.498 166.795 421.337 166.719C419.024 165.644 416.775 164.353 414.652 162.88C414.08 162.484 413.922 161.677 414.298 161.078C414.677 160.474 415.446 160.31 416.01 160.703C418.024 162.096 420.152 163.32 422.339 164.34C422.965 164.629 423.247 165.4 422.97 166.056C422.764 166.54 422.312 166.831 421.837 166.831ZM470.262 158.42C469.928 158.42 469.594 158.277 469.352 157.998C468.892 157.47 468.921 156.645 469.426 156.16C471.19 154.455 472.835 152.581 474.315 150.587C474.735 150.019 475.517 149.918 476.052 150.36C476.591 150.805 476.687 151.62 476.267 152.188C474.703 154.294 472.964 156.275 471.098 158.076C470.861 158.306 470.562 158.42 470.262 158.42ZM409.496 158.274C409.194 158.274 408.892 158.16 408.655 157.925C406.789 156.108 405.062 154.117 403.516 152.013C403.098 151.443 403.197 150.628 403.739 150.188C404.275 149.748 405.055 149.847 405.473 150.423C406.938 152.414 408.573 154.296 410.337 156.02C410.839 156.509 410.869 157.332 410.401 157.858C410.159 158.136 409.827 158.274 409.496 158.274ZM479.357 146.166C479.157 146.166 478.954 146.114 478.766 146.007C478.167 145.664 477.944 144.875 478.271 144.24C479.416 142.024 480.391 139.689 481.173 137.299C481.396 136.617 482.098 136.258 482.744 136.49C483.392 136.724 483.734 137.463 483.511 138.143C482.687 140.671 481.655 143.141 480.446 145.484C480.22 145.919 479.795 146.166 479.357 146.166ZM400.46 145.981C400.02 145.981 399.592 145.731 399.372 145.294C398.172 142.943 397.153 140.47 396.336 137.953C396.116 137.271 396.465 136.531 397.11 136.3C397.756 136.073 398.459 136.432 398.682 137.114C399.448 139.502 400.416 141.842 401.551 144.065C401.876 144.698 401.648 145.487 401.047 145.828C400.859 145.929 400.658 145.981 400.46 145.981ZM484.162 131.465C484.095 131.465 484.026 131.46 483.959 131.447C483.286 131.33 482.828 130.661 482.94 129.953C483.328 127.464 483.526 124.92 483.526 122.393C483.526 121.674 484.08 121.091 484.763 121.091C485.446 121.091 486 121.674 486 122.393C486 125.061 485.792 127.748 485.379 130.374C485.28 131.012 484.755 131.465 484.162 131.465ZM395.718 131.265C395.124 131.265 394.597 130.809 394.5 130.171C394.107 127.617 393.909 124.999 393.911 122.39C393.911 121.674 394.466 120.989 395.148 120.989C395.831 120.989 396.386 121.471 396.386 122.19C396.383 124.861 396.571 127.341 396.942 129.755C397.054 130.463 396.593 131.132 395.92 131.247C395.849 131.26 395.784 131.265 395.718 131.265ZM484.214 116.332C483.615 116.332 483.09 115.874 482.994 115.231C482.623 112.734 482.051 110.256 481.289 107.863C481.074 107.181 481.425 106.445 482.071 106.215C482.719 105.992 483.42 106.356 483.637 107.038C484.439 109.566 485.045 112.188 485.438 114.827C485.545 115.535 485.08 116.202 484.407 116.314C484.342 116.327 484.281 116.332 484.214 116.332ZM395.787 115.718C395.718 115.718 395.646 115.712 395.577 115.699C394.904 115.577 394.451 114.905 394.565 114.197C394.993 111.558 395.633 108.944 396.467 106.434C396.69 105.755 397.4 105.395 398.043 105.635C398.689 105.872 399.028 106.614 398.803 107.293C398.016 109.667 397.41 112.138 397.007 114.635C396.9 115.27 396.378 115.718 395.787 115.718ZM479.543 101.587C479.1 101.587 478.672 101.334 478.452 100.894C477.331 98.6762 476.019 96.531 474.555 94.5213C474.139 93.9485 474.241 93.1337 474.782 92.6964C475.322 92.2564 476.101 92.3658 476.517 92.9359C478.066 95.0628 479.451 97.3303 480.636 99.6759C480.958 100.309 480.728 101.097 480.124 101.436C479.938 101.54 479.738 101.587 479.543 101.587ZM400.648 101.037C400.446 101.037 400.243 100.985 400.052 100.879C399.456 100.532 399.236 99.7384 399.565 99.1084C400.784 96.7732 402.2 94.5239 403.771 92.4282C404.194 91.8633 404.971 91.7696 405.508 92.2121C406.044 92.6573 406.136 93.4747 405.713 94.0397C404.226 96.0234 402.888 98.1504 401.735 100.366C401.507 100.793 401.084 101.037 400.648 101.037ZM470.557 89.2522C470.252 89.2522 469.951 89.135 469.711 88.9007C467.966 87.1799 466.064 85.5945 464.06 84.1913C463.493 83.7956 463.337 82.986 463.716 82.3872C464.092 81.7884 464.861 81.6296 465.43 82.0253C467.546 83.5066 469.557 85.1806 471.4 86.9977C471.898 87.4923 471.925 88.315 471.46 88.8382C471.215 89.1142 470.886 89.2522 470.557 89.2522ZM409.793 88.8252C409.456 88.8252 409.122 88.682 408.877 88.4009C408.417 87.8672 408.454 87.0445 408.959 86.5603C410.839 84.7614 412.866 83.1187 414.991 81.6713C415.56 81.2886 416.327 81.45 416.7 82.0565C417.069 82.6579 416.908 83.465 416.334 83.8555C414.323 85.2222 412.4 86.7816 410.624 88.4841C410.386 88.7132 410.09 88.8252 409.793 88.8252ZM458.248 80.6403C458.08 80.6403 457.907 80.6039 457.743 80.5258C455.559 79.4949 453.27 78.6514 450.942 78.0162C450.281 77.8339 449.883 77.1232 450.056 76.4282C450.227 75.7331 450.897 75.3191 451.565 75.4962C454.025 76.1704 456.447 77.0633 458.753 78.1515C459.376 78.4431 459.656 79.2137 459.376 79.8697C459.171 80.354 458.718 80.6403 458.248 80.6403ZM422.198 80.3904C421.72 80.3904 421.265 80.0989 421.062 79.6042C420.793 78.9456 421.08 78.1776 421.708 77.8938C424.031 76.8395 426.458 75.9778 428.93 75.3373C429.605 75.1655 430.266 75.5925 430.424 76.2902C430.588 76.9878 430.182 77.6934 429.519 77.8652C427.183 78.4692 424.885 79.284 422.688 80.2837C422.529 80.3592 422.361 80.3904 422.198 80.3904ZM443.955 76.7301C443.918 76.7301 443.881 76.7275 443.844 76.7249C441.432 76.501 438.997 76.4906 436.634 76.678C435.961 76.7249 435.36 76.1913 435.308 75.4753C435.256 74.7594 435.771 74.1346 436.451 74.0799C438.938 73.8821 441.513 73.8977 444.062 74.1346C444.742 74.1971 445.247 74.8297 445.185 75.5456C445.128 76.2198 444.589 76.7301 443.955 76.7301Z" fill="white"/>
<path d="M167.66 115.252H167.506C164.963 115.252 162.442 114.905 160.012 114.226C159.352 114.041 158.958 113.328 159.137 112.633C159.312 111.94 159.988 111.521 160.651 111.711C162.83 112.32 165.094 112.635 167.38 112.648L167.539 112.646C168.221 112.646 168.776 113.229 168.776 113.947C168.776 114.596 168.323 115.135 167.734 115.233L167.66 115.252ZM174.741 114.249C174.191 114.249 173.694 113.867 173.546 113.284C173.37 112.588 173.763 111.875 174.421 111.69C176.658 111.063 178.813 110.121 180.829 108.892C181.416 108.53 182.175 108.736 182.522 109.366C182.866 109.988 182.663 110.784 182.071 111.146C179.867 112.49 177.509 113.52 175.06 114.21C174.953 114.234 174.845 114.249 174.741 114.249ZM153.614 111.349C153.404 111.349 153.191 111.295 152.996 111.175C150.799 109.842 148.772 108.207 146.969 106.32C146.486 105.812 146.486 104.987 146.966 104.476C147.449 103.969 148.236 103.971 148.718 104.474C150.366 106.205 152.221 107.699 154.233 108.923C154.824 109.282 155.027 110.076 154.686 110.701C154.458 111.115 154.04 111.349 153.614 111.349ZM187.208 106.658C186.891 106.658 186.574 106.531 186.332 106.275C185.849 105.768 185.849 104.942 186.332 104.435C187.977 102.704 189.4 100.754 190.563 98.6373C190.906 98.0151 191.661 97.8015 192.252 98.1608C192.844 98.5201 193.047 99.3141 192.705 99.9389C191.436 102.253 189.88 104.383 188.083 106.275C187.841 106.533 187.524 106.658 187.208 106.658ZM143.409 100.644C142.983 100.644 142.567 100.413 142.337 99.9961C141.058 97.6792 140.078 95.1982 139.42 92.6235C139.242 91.9284 139.633 91.2151 140.291 91.0302C140.962 90.848 141.63 91.2568 141.805 91.9493C142.407 94.3027 143.307 96.5702 144.475 98.6919C144.819 99.3115 144.618 100.111 144.025 100.473C143.834 100.587 143.621 100.644 143.409 100.644ZM194.415 93.5269C194.311 93.5269 194.202 93.5113 194.096 93.4826C193.435 93.2978 193.042 92.5819 193.22 91.8894C193.816 89.5438 194.118 87.1044 194.118 84.6469C194.118 83.9284 194.672 83.2854 195.355 83.2854C196.038 83.2854 196.592 83.8087 196.592 84.5298V84.6495C196.592 87.3335 196.26 89.9994 195.61 92.5637C195.464 93.1442 194.964 93.5269 194.415 93.5269ZM139.66 85.9799C138.978 85.9799 138.423 85.4279 138.423 84.7094V84.6495C138.423 81.9837 138.75 79.3388 139.393 76.7901C139.569 76.095 140.234 75.6758 140.905 75.8659C141.568 76.0507 141.959 76.764 141.786 77.4565C141.197 79.7865 140.9 82.2076 140.9 84.6495C140.897 85.368 140.343 85.9799 139.66 85.9799ZM194.387 78.2557C193.841 78.2557 193.343 77.8757 193.195 77.2951C192.589 74.9417 191.688 72.6768 190.513 70.5577C190.167 69.9381 190.367 69.1389 190.958 68.777C191.545 68.41 192.304 68.6208 192.651 69.2456C193.937 71.5626 194.922 74.0409 195.582 76.613C195.761 77.3081 195.372 78.0214 194.712 78.2089C194.603 78.2401 194.494 78.2557 194.387 78.2557ZM143.354 71.3569C143.144 71.3569 142.931 71.3022 142.736 71.1851C142.144 70.8258 141.941 70.0292 142.28 69.4044C143.55 67.0901 145.098 64.9579 146.89 63.0601C147.37 62.5498 148.154 62.5498 148.639 63.0549C149.124 63.5599 149.124 64.3878 148.644 64.8955C147.003 66.6319 145.586 68.5844 144.425 70.7035C144.198 71.1226 143.782 71.3569 143.354 71.3569ZM187.133 65.1584C186.819 65.1584 186.503 65.0308 186.26 64.7783C184.607 63.0523 182.749 61.5606 180.738 60.3448C180.147 59.9855 179.941 59.1915 180.28 58.5667C180.622 57.9393 181.381 57.7284 181.97 58.0877C184.169 59.418 186.201 61.0477 188.007 62.9325C188.489 63.4376 188.494 64.2628 188.012 64.773C187.769 65.0308 187.453 65.1584 187.133 65.1584ZM153.515 60.6077C153.09 60.6077 152.677 60.376 152.447 59.9621C152.1 59.3399 152.301 58.5433 152.892 58.1814C155.094 56.8303 157.449 55.7968 159.896 55.1017C160.549 54.9169 161.237 55.3256 161.41 56.0181C161.588 56.7131 161.197 57.4265 160.537 57.6113C158.303 58.2465 156.148 59.1915 154.136 60.4255C153.943 60.5505 153.728 60.6077 153.515 60.6077ZM174.629 57.6139C174.525 57.6139 174.419 57.6009 174.313 57.5697C172.106 56.9553 169.82 56.6454 167.506 56.6454C166.824 56.6454 166.225 56.0623 166.225 55.3438C166.225 54.6253 166.737 54.0421 167.42 54.0421H167.504C170.027 54.0421 172.531 54.3832 174.944 55.0548C175.604 55.2371 175.998 55.953 175.822 56.6454C175.678 57.2286 175.179 57.6139 174.629 57.6139Z" fill="white"/>
<path d="M90.6064 88.9841L132.824 63.185V124.699L90.6064 150.376V88.9841Z" fill="#80A417"/>
<path d="M96.1038 93.618L127.327 74.5382V104.112C125.333 100.97 122.676 98.0332 119.917 98.3352C118.398 98.5018 117.53 99.3974 117.072 100.931C115.728 105.45 111.287 107.171 109.912 108.819C108.981 109.933 109.024 111.706 109.283 113.049C110.209 117.847 115.518 121.718 120.056 124.457L96.1013 139.025V93.618H96.1038Z" fill="white"/>
<path d="M109.286 113.047C109.026 111.703 108.984 109.93 109.914 108.816C111.292 107.171 115.731 105.45 117.074 100.928C117.53 99.3947 118.398 98.4966 119.92 98.3326C122.678 98.0306 125.335 100.967 127.329 104.109V120.031L120.061 124.452C115.521 121.716 110.209 117.845 109.286 113.047Z" fill="#65C2EA"/>
<path d="M120.402 107.207C120.402 107.983 120.889 108.613 121.491 108.613C122.092 108.613 122.579 107.983 122.579 107.207C122.579 106.429 122.092 105.802 121.491 105.802C120.889 105.802 120.402 106.432 120.402 107.207Z" fill="white"/>
<path d="M116.109 112.536C116.109 113.312 116.597 113.942 117.198 113.942C117.799 113.942 118.287 113.312 118.287 112.536C118.287 111.761 117.799 111.131 117.198 111.131C116.594 111.131 116.109 111.761 116.109 112.536Z" fill="white"/>
<path d="M119.754 115.148C121.782 114.754 124.687 112.609 123.636 110.001C123.549 109.787 123.851 109.431 124.002 109.813C124.868 112.021 124.091 113.008 123.596 113.7C122.715 114.934 121.251 115.439 119.818 115.64C119.447 115.692 119.385 115.218 119.754 115.148Z" fill="white"/>
<path d="M90.6064 150.376L87.2787 148.397V87.0055L90.6064 88.9841V150.376Z" fill="#748D26"/>
<path d="M129.497 61.2065L132.824 63.185L90.6064 88.9841L87.2787 87.0055L129.497 61.2065Z" fill="#B2C759"/>
<path d="M123.388 98.3118C123.388 98.3118 121.921 97.726 121.08 97.5412C120.06 97.3147 119.254 97.5412 119.254 97.5412C119.254 97.5412 118.878 95.2242 118.502 93.5295C118.126 91.8347 118.898 90.1399 119.504 90.4784C120.112 90.8168 120.164 92.0612 120.164 92.0612C120.164 92.0612 120.607 90.3924 121.486 90.4367C122.364 90.4809 121.943 92.5141 121.943 92.5141C121.943 92.5141 123.17 90.9886 123.868 91.327C124.566 91.6655 123.868 93.5295 123.868 93.5295C123.868 93.5295 124.996 93.0218 125.372 93.6987C125.748 94.3755 124.388 95.4507 124.388 95.4507C124.388 95.4507 124.019 97.5386 123.388 98.3118Z" fill="#65C2EA"/>
<path d="M111.953 119.289C111.953 119.289 112.972 120.307 113.564 120.927C114.155 121.549 115.12 122.338 115.12 122.338C115.12 122.338 114.14 123.887 113.334 124.202C112.527 124.52 111.468 124.824 111.468 124.824C111.468 124.824 111.307 126.324 111.146 126.761C110.986 127.198 110.028 127.141 110.05 126.407C110.073 125.673 110.342 124.993 110.342 124.993C110.342 124.993 109.86 125.842 109.375 126.123C108.892 126.404 108.031 126.181 108.462 125.501C108.892 124.824 109.375 124.09 109.375 124.09C109.375 124.09 108.304 124.663 107.871 124.881C107.188 125.228 106.421 124.486 107.012 124.033C107.603 123.582 108.356 123.161 108.356 123.161C108.356 123.161 107.067 123.476 106.423 123.161C105.78 122.846 105.726 122.338 106.478 122.111C107.23 121.885 108.464 121.435 108.732 121.263C109.001 121.099 111.953 119.289 111.953 119.289Z" fill="#65C2EA"/>
<path d="M115.038 99.301C115.038 99.301 114.095 94.2168 112.151 91.5666C109.167 87.5002 106.75 89.8665 109.818 93.6908C112.888 97.5151 115.038 99.301 115.038 99.301Z" fill="#FF514D"/>
<path d="M112.915 102.852C112.915 102.852 109.288 98.6138 104.951 96.5806C100.617 94.5474 97.8604 96.5806 103.031 99.098C107.43 101.238 112.915 102.852 112.915 102.852Z" fill="#FF514D"/>
<path d="M109.175 105.789C109.175 105.789 104.667 104.25 101.196 104.419C97.7244 104.588 99.1741 107.259 101.913 107.194C104.652 107.132 109.175 105.789 109.175 105.789Z" fill="#FF514D"/>
<path d="M107.227 116.465C107.227 116.465 103.2 116.465 101.267 117.821C99.335 119.178 100.461 121.888 102.717 120.534C104.973 119.177 107.227 116.465 107.227 116.465Z" fill="#FF514D"/>
<path d="M123.01 87.0055C123.01 87.0055 125.709 83.4155 123.96 82.0618C122.208 80.7055 122.683 84.8317 123.01 87.0055Z" fill="#FF514D"/>
<path d="M104.973 128.159C104.973 128.159 102.856 130.343 101.752 131.21C99.1569 133.243 98.9688 129.825 100.5 129.317C102.029 128.81 104.973 128.159 104.973 128.159Z" fill="#FF514D"/>
<path d="M20.9406 215.032L70.4919 184.927V74.7829L20.9406 104.885V215.032Z" fill="#65C2EA"/>
<path d="M34.1919 118.561C36.2553 116.236 36.8689 113.557 36.5423 110.933C39.6547 111.94 42.7424 109.61 43.9696 106.424C45.073 103.563 44.8974 99.9649 43.6851 96.9841L49.4794 93.4644C50.8352 96.6665 53.5393 99.4755 56.3029 100.483C59.6405 101.699 63.3863 100.184 65.5387 97.3928V167.711C61.7583 167.737 58.1313 169.398 56.6369 173.532C55.7982 175.852 56.0506 178.742 56.8571 181.579C54.4548 180.663 51.9758 180.478 49.8802 181.928C46.2012 184.477 44.6375 189.293 45.3105 193.807L37.9402 198.285C39.1327 192.917 38.5958 186.963 35.8471 182.967C34.8995 181.59 32.8757 180.765 30.7084 180.535C31.0547 178.578 31.0696 176.571 30.6663 174.753C30.0503 171.968 27.6899 168.677 25.0699 168.008V122.018C28.4 122.304 31.7129 121.351 34.1919 118.561Z" fill="white"/>
<path d="M56.3029 100.483C53.5393 99.4755 50.8376 96.6639 49.4794 93.4644L65.5363 83.7097V97.3928C63.3863 100.184 59.6405 101.699 56.3029 100.483Z" fill="#FF514D"/>
<path d="M43.9718 106.424C42.7422 109.61 39.6569 111.94 36.5445 110.933C36.8686 113.56 36.2575 116.238 34.1941 118.561C31.7151 121.351 28.4022 122.304 25.0721 122.02V108.296L43.6897 96.9867C44.8995 99.965 45.0752 103.563 43.9718 106.424Z" fill="#FF514D"/>
<path d="M49.8802 181.928C51.9757 180.478 54.4547 180.663 56.8571 181.579C56.0481 178.742 55.7982 175.852 56.6369 173.532C58.1313 169.398 61.7608 167.737 65.5387 167.711V181.519L45.3105 193.807C44.6375 189.296 46.1987 184.477 49.8802 181.928Z" fill="#FF514D"/>
<path d="M30.6663 174.753C31.0671 176.571 31.0547 178.578 30.7084 180.535C32.8757 180.765 34.8995 181.59 35.8471 182.967C38.5933 186.963 39.1302 192.917 37.9402 198.285L25.0699 206.103V168.008C27.6924 168.677 30.0527 171.968 30.6663 174.753Z" fill="#FF514D"/>
<path d="M20.9406 215.032L16.5862 212.476V102.331L20.9406 104.885V215.032Z" fill="#54ABDC"/>
<path d="M66.1375 72.229L70.4919 74.7828L20.9406 104.885L16.5862 102.331L66.1375 72.229Z" fill="#93BCED"/>
<path d="M33.7218 124.215C34.8426 122.288 36.3345 121.057 38.4671 120.763C47.8489 119.469 47.9702 115.632 51.3523 113.372C55.5137 110.592 59.497 113.453 59.3238 120.76C59.1951 126.173 59.5391 134.652 59.116 140.048C58.1957 151.756 57.6043 164.668 54.7195 167.324C51.1914 170.57 51.2113 166.181 48.2918 167.857C46.5204 168.875 46.5129 172.142 45.7162 172.733C37.5022 178.835 35.2508 157.738 34.4393 151.927C33.5907 145.846 30.4164 129.893 33.7218 124.215Z" fill="#65C2EA"/>
<path d="M49.6006 128.182C49.6006 129.195 50.2365 130.018 51.0207 130.018C51.805 130.018 52.4409 129.195 52.4409 128.182C52.4409 127.17 51.805 126.347 51.0207 126.347C50.2365 126.35 49.6006 127.17 49.6006 128.182Z" fill="white"/>
<path d="M41.7082 131.955C41.7082 132.949 42.3317 133.754 43.1011 133.754C43.8705 133.754 44.4941 132.949 44.4941 131.955C44.4941 130.96 43.8705 130.156 43.1011 130.156C42.3317 130.156 41.7082 130.96 41.7082 131.955Z" fill="white"/>
<path d="M43.9224 136.935C45.5999 137.458 47.4234 137.914 48.9425 136.81C50.0335 136.018 50.5852 134.941 51.0578 134.173C51.3992 133.618 51.7752 134.292 51.6095 134.644C49.9122 138.283 47.166 139.116 43.8557 137.882C43.0145 137.57 43.7121 136.87 43.9224 136.935Z" fill="white"/>
<path d="M51.3349 145.031C53.5665 143.027 55.6869 141.472 56.3969 138.27C56.4514 138.02 56.7952 138.088 56.8076 138.328C56.8868 139.97 56.058 141.249 55.0832 142.49C54.4473 143.303 52.7006 144.833 51.9386 145.422C50.516 146.52 50.1177 147.562 51.2755 148.134C51.9534 148.468 53.381 147.413 53.5937 146.994C53.7323 146.833 53.9797 146.965 53.8189 147.231C53.428 147.869 53.0544 149.53 53.3513 150.272C53.6507 151.014 54.3533 151.42 55.2786 150.602C55.7759 150.162 57.1985 148.876 57.5622 145.554C57.6216 145.005 57.8195 145.281 57.8269 145.354C58.0397 147.504 56.6864 151.633 54.0316 151.698C53.3191 151.717 53.042 151.37 52.7624 150.706C52.5942 150.303 52.7204 148.84 52.8416 148.337C52.3889 148.728 51.3572 149.017 50.8797 148.829C50.2785 148.595 49.9791 148.212 49.8752 147.543C49.702 146.432 50.6471 145.651 51.3349 145.031Z" fill="white"/>
<path d="M41.9432 146.96C40.867 146.666 39.8477 146.567 38.8209 146.07C37.1781 145.273 35.9163 144.024 34.8624 142.498C34.7609 142.35 34.9836 142.175 35.0999 142.306C36.9777 144.38 39.86 145.445 42.4306 146.273C43.3089 146.554 44.7044 146.848 44.9419 148.114C45.1175 149.061 44.6549 149.795 43.9374 150.196C43.5465 150.415 42.8389 150.589 42.2451 150.589C42.5148 150.774 42.7745 150.969 42.9724 151.1C44.6029 152.164 45.7484 154.877 43.0739 155.392C40.204 155.947 36.7303 153.341 35.6961 150.673C35.6417 150.535 35.8421 150.423 35.9312 150.527C37.2969 152.128 38.6601 153.677 40.7012 154.307C41.6537 154.601 45.4144 155.077 42.8908 151.875C42.2179 151.021 40.9412 150.595 40.2757 150.121C40.0481 149.959 40.1965 149.618 40.4563 149.67C42.1263 150.001 44.3753 149.86 44.4001 148.694C44.4347 147.218 43.163 147.293 41.9432 146.96Z" fill="white"/>
<path d="M306.741 68.6625L264.523 42.8634V104.378L306.741 130.054V68.6625Z" fill="#80A417"/>
<path d="M294.913 95.784C291.748 96.8331 288.557 95.5288 287.008 92.5923C284.964 88.7237 285.751 87.3778 282.456 84.3033C281.582 83.4884 280.961 82.7725 280.424 81.6296C277.181 74.7464 282.933 68.7171 288.302 65.39L270.023 54.2192V99.715L301.246 118.706V90.7934C299.52 93.1234 297.387 94.9639 294.913 95.784Z" fill="white"/>
<path d="M280.422 81.627C280.961 82.7699 281.58 83.4858 282.453 84.3006C285.751 87.3778 284.962 88.7238 287.005 92.5897C288.557 95.5263 291.748 96.8331 294.91 95.7814C297.384 94.9613 299.517 93.1207 301.241 90.7882V73.2964L288.297 65.3849C282.931 68.7145 277.178 74.7438 280.422 81.627Z" fill="#65C2EA"/>
<path d="M306.741 130.054L310.072 128.078V66.6839L306.741 68.6625V130.054Z" fill="#748D26"/>
<path d="M267.853 40.8849L264.523 42.8634L306.741 68.6625L310.072 66.6839L267.853 40.8849Z" fill="#B2C759"/>
<path d="M278.217 64.091C276.706 64.7366 277.067 66.3949 277.671 67.6575C276.006 67.1056 273.715 67.0015 272.7 68.5818C271.683 70.1594 273.413 71.5756 274.751 72.4477C273.314 73.1349 272.057 74.5981 272.455 76.3709C272.995 78.766 276.458 77.631 277.656 77.4748C277.616 73.4787 279.704 69.9276 282.938 67.7356C281.652 65.3874 280.006 63.3282 278.217 64.091Z" fill="#FF514D"/>
<path d="M282.997 88.3905C281.681 85.5216 280.647 84.8343 278.69 82.6085C277.223 83.3478 274.613 84.056 274.422 85.7325C274.222 87.5054 277.213 88.0287 277.203 87.6408C277.208 87.8178 275.394 89.3277 275.179 89.89C274.959 90.4653 274.798 91.288 275.1 91.8764C275.706 93.0609 277.186 92.8838 278.351 92.5923C277.71 93.7377 277.396 95.1878 278.477 96.1745C279.816 97.3928 283.21 94.5214 284.254 93.4748C284.187 92.332 284.027 90.6372 282.997 88.3905Z" fill="#FF514D"/>
<path d="M297.679 96.1432C293.369 100.085 287.933 97.7547 286.162 94.917C285.781 95.3987 281.973 99.7905 284.885 102.217C285.207 102.485 286.518 102.032 286.518 102.032C286.518 102.032 286.362 105.507 289.042 106.424C290.536 106.934 292.201 104.698 292.201 104.698C292.201 104.698 294.094 106.822 295.863 106.351C299.715 105.325 299.086 97.5855 297.679 96.1432Z" fill="#FF514D"/>
<path d="M287.109 78.011C286.372 78.011 285.773 77.4982 285.773 76.8656C285.773 76.2329 286.372 75.7201 287.109 75.7201C287.847 75.7201 288.445 76.2329 288.445 76.8656C288.445 77.4982 287.847 78.011 287.109 78.011Z" fill="white"/>
<path d="M291.667 85.8341C292.268 85.8341 292.755 85.2046 292.755 84.4282C292.755 83.6518 292.268 83.0224 291.667 83.0224C291.065 83.0224 290.578 83.6518 290.578 84.4282C290.578 85.2046 291.065 85.8341 291.667 85.8341Z" fill="white"/>
<path d="M289.727 74.52C289.7 74.5278 289.697 74.5772 289.727 74.5824C291.125 74.8115 292.691 75.3114 293.742 76.3579C295.093 77.7012 295.311 79.3804 295.022 81.2183C294.984 81.4578 295.254 81.4266 295.373 81.1688C297.097 77.3732 293.312 73.4161 289.727 74.52Z" fill="white"/>
<path d="M394.696 200.287C394.696 200.287 394.171 222.663 394.171 227.695C394.171 232.727 394.837 243.25 386.417 246.988C378 250.727 366.083 255.621 366.083 255.621L377.37 263.267C377.37 263.267 388.753 258.055 394.604 254.259C402.835 248.92 401.974 234.333 401.974 225.063C401.974 215.792 400.47 203.708 400.47 203.708L394.696 200.287Z" fill="#353535"/>
<path d="M366.083 304.282C363.604 304.282 361.577 302.15 361.577 299.542V255.79C361.577 253.181 363.606 251.049 366.083 251.049C368.562 251.049 370.588 253.184 370.588 255.79V299.542C370.588 302.15 368.559 304.282 366.083 304.282Z" fill="#353535"/>
<path d="M394.589 257.888C394.589 266.701 381.825 273.844 366.082 273.844C350.34 273.844 337.576 266.701 337.576 257.888C337.576 249.076 350.34 241.932 366.082 241.932C381.825 241.932 394.589 249.076 394.589 257.888Z" fill="#CDC3A7"/>
<path d="M394.587 254.879H337.574V258.352H394.587V254.879Z" fill="#CDC3A7"/>
<path d="M394.589 254.879C394.589 263.691 381.825 270.835 366.082 270.835C350.34 270.835 337.576 263.691 337.576 254.879C337.576 246.067 350.34 238.923 366.082 238.923C381.825 238.923 394.589 246.067 394.589 254.879Z" fill="#E2DBC4"/>
<path d="M393.241 253.148C393.241 261.543 381.081 268.351 366.08 268.351C351.08 268.351 338.92 261.543 338.92 253.148C338.92 244.752 351.08 237.947 366.08 237.947C381.083 237.944 393.241 244.752 393.241 253.148Z" fill="#80A417"/>
<path d="M340.362 243.382L338.922 253.148H393.241L391.798 243.382H340.362Z" fill="#80A417"/>
<path d="M392.175 245.793C392.175 253.861 380.492 260.398 366.08 260.398C351.669 260.398 339.986 253.858 339.986 245.793C339.986 237.728 351.669 231.188 366.08 231.188C380.494 231.188 392.175 237.728 392.175 245.793Z" fill="#B2C759"/>
<path d="M421.211 235.934V203.117C421.211 191.626 414.508 178.153 406.319 173.178L398.548 168.456C390.359 163.481 383.656 168.81 383.656 180.301V213.119L421.211 235.934Z" fill="#80A417"/>
<path d="M388.654 167.761L382.291 171.739L387.983 175.717L388.654 167.761Z" fill="#80A417"/>
<path d="M415.011 239.808L421.211 235.934L413.877 228.338L415.011 239.808Z" fill="#80A417"/>
<path d="M415.011 239.808V206.991C415.011 195.499 408.308 182.027 400.119 177.052L392.348 172.33C384.159 167.355 377.456 172.684 377.456 184.175V216.993L415.011 239.808Z" fill="#B2C759"/>
<path d="M339.357 326.843C339.357 329.782 337.658 333.197 335.562 334.473C333.467 335.746 331.767 334.395 331.767 331.453C331.767 328.514 333.467 325.099 335.562 323.826C337.658 322.552 339.357 323.904 339.357 326.843Z" fill="#353535"/>
<path d="M340.792 325.328L337.863 323.518L333.088 334.687L336.139 336.538L340.792 325.328Z" fill="#353535"/>
<path d="M342.423 328.707C342.423 331.648 340.723 335.061 338.628 336.334C336.532 337.608 334.832 336.256 334.832 333.315C334.832 330.375 336.532 326.96 338.628 325.687C340.726 324.416 342.423 325.768 342.423 328.707Z" fill="#565656"/>
<path d="M333.37 325.033C332.497 323.443 333.016 321.41 334.528 320.491L394.48 284.08C395.992 283.164 397.924 283.708 398.795 285.296C399.669 286.887 399.152 288.92 397.64 289.839L337.687 326.249C336.176 327.168 334.243 326.624 333.37 325.033Z" fill="#353535"/>
<path d="M394.478 326.252L334.526 289.842C333.014 288.925 332.497 286.889 333.368 285.299C334.241 283.708 336.173 283.164 337.682 284.083L397.635 320.493C399.147 321.412 399.664 323.445 398.79 325.036C397.922 326.624 395.99 327.168 394.478 326.252Z" fill="#353535"/>
<path d="M398.135 290.404C398.135 293.346 396.435 296.759 394.339 298.034C392.244 299.307 390.544 297.956 390.544 295.017C390.544 292.075 392.244 288.662 394.339 287.387C396.435 286.114 398.135 287.465 398.135 290.404Z" fill="#353535"/>
<path d="M399.57 288.889L396.643 287.082L391.868 298.25L394.916 300.099L399.57 288.889Z" fill="#353535"/>
<path d="M401.2 292.268C401.2 295.207 399.5 298.623 397.405 299.898C395.309 301.174 393.61 299.82 393.61 296.881C393.61 293.939 395.309 290.526 397.405 289.251C399.503 287.978 401.2 289.329 401.2 292.268Z" fill="#565656"/>
<path d="M394.438 327.775C394.438 330.714 392.739 334.129 390.643 335.402C388.548 336.676 386.848 335.324 386.848 332.383C386.848 329.443 388.548 326.028 390.643 324.755C392.739 323.484 394.438 324.836 394.438 327.775Z" fill="#353535"/>
<path d="M395.873 326.26L392.944 324.45L388.169 335.619L391.22 337.47L395.873 326.26Z" fill="#353535"/>
<path d="M397.504 329.639C397.504 332.581 395.804 335.993 393.709 337.266C391.613 338.54 389.913 337.188 389.913 334.249C389.913 331.31 391.613 327.894 393.709 326.621C395.804 325.348 397.504 326.7 397.504 329.639Z" fill="#565656"/>
<path d="M336.96 292.479C336.96 295.421 335.26 298.836 333.165 300.109C331.069 301.382 329.37 300.031 329.37 297.092C329.37 294.153 331.069 290.737 333.165 289.464C335.26 288.189 336.96 289.54 336.96 292.479Z" fill="#353535"/>
<path d="M338.398 290.964L335.468 289.157L330.693 300.325L333.744 302.174L338.398 290.964Z" fill="#353535"/>
<path d="M340.025 294.343C340.025 297.285 338.328 300.697 336.23 301.973C334.135 303.246 332.435 301.895 332.435 298.953C332.435 296.014 334.135 292.599 336.23 291.325C338.328 290.052 340.025 291.404 340.025 294.343Z" fill="#565656"/>
<path d="M329.159 255.29C329.159 255.29 320.005 263.347 320.663 271.86C321.022 276.502 320.492 278.577 321.193 284.349C321.853 289.792 322.212 311.52 321.915 318.681C321.618 325.843 317.14 332.289 315.465 334.796C313.793 337.303 318.54 341.598 322.462 338.019C326.383 334.437 326.809 333.721 328.979 332.648C331.148 331.576 332.952 326.559 331.539 320.832C330.127 315.102 331.458 304.001 333.684 294.332C335.023 288.527 334.877 281.43 334.803 276.062C334.753 272.49 347.255 261.09 347.725 259.947C348.903 257.079 329.159 255.29 329.159 255.29Z" fill="#FF9582"/>
<path d="M315.468 334.796C315.468 334.796 310.668 338.602 309.035 340.497C307.402 342.392 312.043 345.54 316.663 344.108C321.282 342.676 325.22 338.36 328.981 335.155C332.667 332.013 333.687 330.873 333.687 327.054C333.687 325.174 331.94 323.102 331.94 323.102C331.94 323.102 330.458 330.774 325.129 333.749C320.047 336.587 317.991 336.957 315.468 334.796Z" fill="#565656"/>
<path d="M337.193 267.823C335.025 270.108 332.769 274.708 333.687 279.639C334.538 284.211 335.211 287.696 335.233 292.539C335.258 298.026 336.253 320.649 335.956 327.811C335.659 334.973 331.181 341.419 329.506 343.926C327.833 346.433 332.581 350.728 336.502 347.149C340.424 343.569 340.849 342.851 343.019 341.778C345.189 340.703 346.99 335.689 345.58 329.962C344.167 324.232 345.498 313.131 347.725 303.462C349.954 293.793 347.087 280.785 348.989 278.39C352.827 273.555 360.853 269.353 361.127 264.451C361.469 258.354 355.687 248.305 349.957 251.044C348.044 251.955 344.34 260.286 337.193 267.823Z" fill="#FFBAA8"/>
<path d="M329.506 343.926C329.506 343.926 324.706 347.732 323.073 349.627C321.44 351.522 326.081 354.67 330.701 353.238C335.32 351.806 339.259 347.49 343.019 344.285C346.706 341.143 347.725 340.003 347.725 336.183C347.725 334.304 345.978 332.232 345.978 332.232C345.978 332.232 344.496 339.904 339.167 342.879C334.085 345.717 332.029 346.087 329.506 343.926Z" fill="#565656"/>
<path d="M378.594 232.415C378.594 232.415 382.795 246.592 377.691 256.287C373.48 264.285 353.487 279.733 353.487 279.733C353.487 279.733 349.477 269.041 339.454 265.279C333.576 263.074 326.302 258.281 326.302 258.281L348.987 227.893C348.987 227.893 360.778 243.203 378.594 232.415Z" fill="#54ABDC"/>
<path d="M347.369 193.656C347.369 193.656 347.218 197.936 347.871 199.826C340.651 205.934 333.046 217.5 331.012 218.919C328.776 216.779 324.189 214.595 324.189 214.595C324.189 214.595 328.333 206.108 334.486 197.293C342.472 185.854 353.136 173.259 355.239 171.708C358.96 168.964 364.999 174.876 364.999 174.876L347.369 193.656Z" fill="#54ABDC"/>
<path d="M342.472 231.376C342.472 231.376 348.094 240.141 360.447 239.42C372.797 238.699 372.795 235.117 372.795 235.117C372.795 235.117 370.593 231.798 369.935 231.373C369.277 230.954 342.472 231.376 342.472 231.376Z" fill="#E2DBC4"/>
<path d="M387.259 191.948C386.553 188.239 374.317 179.176 374.317 179.176C375.719 181.064 370.642 185.469 367.891 186.32C365.439 187.078 362.26 191.948 361.958 192.295C361.941 192.292 361.926 192.29 361.909 192.287C361.986 191.589 362.644 186.01 365.004 180.142C365.746 178.297 365.004 172.746 365.004 172.746C365.004 172.746 364.18 172.483 362.985 172.197C361.075 174.215 357.258 179.64 355.219 181.863C353.252 184.011 345.689 190.636 347.391 197.978C347.896 200.159 348.559 202.062 349.519 204.783C350.595 207.834 350.256 213.527 349.959 216.61C349.618 220.15 340.797 231.782 340.797 231.782C340.797 231.782 343.514 235.273 350.184 237.949C352.265 236.08 355.09 231.873 356.557 231.194C357.203 233.188 357.636 237.033 357.636 240.61C368.834 245.801 382.484 238.928 382.484 238.928C382.484 238.928 376.989 216.87 377.595 210.515C377.592 210.51 389.587 204.195 387.259 191.948Z" fill="#BDE2EF"/>
<path d="M411.985 278.192L233.971 170.45L196.204 193.573L433.645 337.769L471.447 314.711L411.985 278.192Z" fill="white"/>
<path d="M324.859 214.928C324.463 215.746 324.196 216.347 324.115 216.623C323.263 219.445 320.71 225.573 321.9 227.929C323.093 230.283 326.636 234.245 328.471 228.942C329.402 226.247 330.134 219.518 330.52 218.719C330.557 218.64 330.656 218.489 330.713 218.388C329.224 216.602 326.999 215.261 324.859 214.928Z" fill="#FFBAA8"/>
<path d="M375.192 206.944C375.192 206.944 373.028 212.504 371.701 216.376C370.375 220.244 367.05 222.985 365.115 224.175C363.572 225.125 356.54 227.895 352.762 228.942C351.973 229.16 344.835 230.738 343.393 230.322C337.205 228.53 333.684 229.642 330.896 231.355C328.108 233.068 327.85 235.984 335.035 236.421C342.22 236.859 347.495 237.137 351.649 236.991C355.939 236.84 361.483 236.158 368.626 234.281C375.766 232.407 377.968 228.049 379.943 224.636C381.917 221.223 386.192 210.81 386.192 210.81L375.192 206.944Z" fill="#FFBAA8"/>
<path d="M378.278 156.525C374.084 156.059 370.793 159.165 370.338 162.591C369.69 167.454 372.424 171.2 377.214 170.973C381.234 170.783 384.193 167.511 384.072 163.195C383.998 160.576 381.464 156.879 378.278 156.525Z" fill="#353535"/>
<path d="M370.588 188.507C372.926 186.383 374.317 180.548 374.317 180.548L373.631 168.55L364.338 173.561C364.338 173.561 364.126 179.872 362.908 183.183C362.636 183.587 357.631 191.24 359.091 194.521C363.05 193.123 370.031 189.012 370.588 188.507Z" fill="#FF9582"/>
<path d="M371.491 151.368C367.565 148.22 358.262 147.21 354.868 157.324C351.307 167.93 360.427 181.173 365.289 178.924C368.01 177.664 372.671 175.756 374.282 170.172C376.095 163.887 374.542 153.812 371.491 151.368Z" fill="#FFBAA8"/>
<path d="M379.289 156.738C379.131 155.062 379.181 151.175 375.051 147.772C374.317 145.974 372.607 144.443 371.115 143.834C367.001 142.152 361.392 144.56 358.688 146.663C352.695 151.321 352.092 158.688 352.092 161.968C352.092 161.968 356.934 164.184 360.348 162.341C360.348 164.187 362.626 166.399 363.485 167.003C366.476 169.102 368.413 167.532 370.531 167.763C371.912 167.914 373.856 169.763 373.762 171.622C376.469 168.472 380.22 166.589 379.289 156.738Z" fill="#565656"/>
<path d="M380.22 228.338C381.635 225.154 388.129 209.672 388.632 207.938C389.965 203.343 390.908 195.398 386.326 189.978C381.744 184.558 375.618 196.34 374.527 200.368C373.619 203.718 372.862 207.319 372.233 209.927C372.043 210.721 369.623 219.182 369.457 219.755C367.1 222.72 349.321 226.247 345.483 228.681C346.656 230.644 347.158 235.627 345.637 239.16C350.295 238.642 360.392 237.738 368.663 235.932C375.133 234.521 378.33 232.597 380.22 228.338Z" fill="#54ABDC"/>
<path d="M371.16 202.104L368.69 206.387L360.098 200.946L362.48 196.991L371.16 202.104Z" fill="#565656"/>
<path d="M356.129 149.191L355.043 134.576C355.043 134.576 359.299 129.703 367.607 132.871C375.917 136.039 380.244 140.637 384.047 146.226C385.472 148.319 388.652 154.341 388.652 154.341C380.217 161.888 374.982 161.888 374.982 161.888C374.982 161.888 375.054 152.565 365.761 146.997C359.734 143.386 356.129 149.191 356.129 149.191Z" fill="#BDE2EF"/>
<path d="M355.231 137.125C355.231 137.125 361.387 133.819 367.456 136.404C373.131 138.82 377.968 144.55 379.938 147.421C382.291 150.85 385.584 156.879 385.584 156.879L387.09 155.788C387.09 155.788 384.54 150.451 380.287 144.724C375.301 138.01 369.866 134.761 364.175 133.6C361.209 132.993 356.758 134.449 355.231 135.532C355.226 136.185 355.231 137.125 355.231 137.125Z" fill="#565656"/>
<path d="M360.692 177.664C360.692 177.664 358.581 181.426 356.362 184.636C354.143 187.846 353.262 190.764 353.262 190.764L359.091 194.518C359.091 194.518 362.49 184.571 362.908 183.18C363.324 181.79 363.782 180.476 364.148 179.163C362.255 178.799 360.692 177.664 360.692 177.664Z" fill="white"/>
<path d="M374.074 176.315C374.074 176.315 372.451 180.988 367.889 186.317C364.23 190.597 359.091 194.518 359.091 194.518L367.04 198.863C367.04 198.863 375.056 191.493 376.843 185.011C378.334 179.601 374.074 176.315 374.074 176.315Z" fill="white"/>
<path d="M376.14 178.861C376.14 178.861 376.471 181.496 375.709 184.49C374.947 187.481 371.687 192.079 370.232 193.758C368.775 195.437 365.63 198.095 365.63 198.095L367.04 198.866C367.04 198.866 371.847 195.728 375.709 188.58C378.869 182.727 376.14 178.861 376.14 178.861Z" fill="#565656"/>
<path d="M361.498 178.161C361.498 178.161 360.098 180.246 358.705 182.446C357.567 184.243 354.064 191.279 354.064 191.279L353.262 190.764C353.262 190.764 355.152 186.021 357.193 182.665C359.091 179.546 360.692 177.664 360.692 177.664L361.498 178.161Z" fill="#565656"/>
<path d="M292.409 228.874L279.309 220.913L274.417 228.874L282.089 235.885L292.409 228.874Z" fill="white"/>
<path d="M308.58 181.361V221.712C308.58 224.727 305.477 226.612 302.996 225.105L257.868 197.691C256.715 196.991 256.007 195.697 256.007 194.299V153.95C256.007 150.933 259.11 149.048 261.592 150.558L306.719 177.971C307.87 178.669 308.58 179.963 308.58 181.361Z" fill="#565656"/>
<path d="M306.739 225.102L304.243 226.62L301.323 223.41L307.105 219.69L306.739 225.102Z" fill="#565656"/>
<path d="M257.633 150.712L255.48 152.024L259.788 152.102L257.633 150.712Z" fill="#565656"/>
<path d="M306.167 182.845V223.194C306.167 226.211 303.065 228.093 300.583 226.586L255.456 199.173C254.303 198.472 253.595 197.179 253.595 195.781V155.432C253.595 152.417 256.698 150.529 259.179 152.039L304.307 179.453C305.457 180.153 306.167 181.444 306.167 182.845Z" fill="#353535"/>
<path d="M270.765 195.33V231.001L281.087 237.296V201.638L270.765 195.33Z" fill="#EDEDED"/>
<path d="M270.765 195.33L272.121 194.534L282.443 200.841L281.087 201.638L270.765 195.33Z" fill="white"/>
<path d="M282.443 200.841L281.087 201.638V237.296L282.443 236.499V200.841Z" fill="#CECECE"/>
<path d="M282.089 236.708L292.409 230.402V228.874L282.089 235.161V236.708Z" fill="#CECECE"/>
<path d="M178.65 254.548C172.418 264.537 165.183 278.176 177.039 304.951C188.979 331.917 233.518 362.506 265.065 382.895C296.612 403.284 377.825 451.397 377.825 451.397L440.251 413.474L178.65 254.548Z" fill="#EDEDED"/>
<path d="M387.877 305.722L170.688 170.872V280.891L387.877 415.744V305.722Z" fill="#EDEDED"/>
<path d="M440.249 302.176L377.827 340.101V451.894L440.249 413.968V302.176Z" fill="#CECECE"/>
<path d="M471.46 314.615L409.038 352.54V432.689L471.46 394.764V314.615Z" fill="#CECECE"/>
<path d="M178.65 149.098C172.418 159.087 165.183 172.725 177.039 199.501C188.979 226.466 233.518 257.055 265.065 277.445C296.612 297.834 377.825 345.946 377.825 345.946L440.251 308.021L178.65 149.098Z" fill="#444444"/>
<path d="M178.65 143.253C172.418 153.242 165.183 166.881 177.039 193.656C188.979 220.622 233.518 251.211 265.065 271.6C296.612 291.989 377.825 340.101 377.825 340.101L440.251 302.179L178.65 143.253Z" fill="#565656"/>
<path d="M440.249 302.176V308.021L377.822 345.946L377.827 340.101L440.249 302.176Z" fill="#353535"/>
<path d="M407.017 326.241V434.16L416.394 428.461V320.543L407.017 326.241Z" fill="#353535"/>
<path d="M349.286 325.926V433.842L339.907 428.144V320.228L349.286 325.926Z" fill="#444444"/>
<path d="M249.916 263.389L239.577 257.11V365.026L249.916 372.307V263.389Z" fill="#444444"/>
<path d="M182.611 206.387L174.491 191.282V298.607C174.491 298.607 176.472 303.897 177.321 305.581C178.501 307.924 182.611 314.711 182.611 314.711V206.387Z" fill="#444444"/>
<path d="M351.562 303.111L380.415 285.58L361.446 274.058L332.593 291.586L351.562 303.111Z" fill="#54ABDC"/>
<path d="M351.854 300.742L376.791 285.58L372.441 283.065L347.505 298.227L351.854 300.742Z" fill="#3B92CC"/>
<path d="M351.926 299.279L374.396 285.51L372.694 284.518L350.224 298.287L351.926 299.279Z" fill="white"/>
<path d="M359.249 288.423L370.264 281.766L361.854 276.89L350.84 283.549L359.249 288.423Z" fill="#3B92CC"/>
<path d="M351.562 304.93L380.415 287.402V285.58L351.562 303.111V304.93Z" fill="#3B92CC"/>
<path d="M332.593 291.586L351.562 303.111V304.93L332.593 293.408V291.586Z" fill="#3C75B1"/>
<path d="M351.562 300.346L380.415 282.815L361.446 271.293L332.593 288.821L351.562 300.346Z" fill="#54ABDC"/>
<path d="M351.854 297.977L376.791 282.815L372.441 280.3L347.505 295.462L351.854 297.977Z" fill="#3B92CC"/>
<path d="M351.926 296.514L374.396 282.745L372.694 281.753L350.224 295.522L351.926 296.514Z" fill="white"/>
<path d="M359.249 285.658L370.264 279.001L361.854 274.125L350.84 280.785L359.249 285.658Z" fill="#3B92CC"/>
<path d="M351.562 302.166L380.415 284.638V282.815L351.562 300.346V302.166Z" fill="#3B92CC"/>
<path d="M332.593 288.821L351.562 300.346V302.166L332.593 290.643V288.821Z" fill="#3C75B1"/>
<path d="M351.562 297.456L380.415 279.928L361.446 268.403L332.593 285.931L351.562 297.456Z" fill="#54ABDC"/>
<path d="M351.854 295.087L376.791 279.928L372.441 277.411L347.505 292.572L351.854 295.087Z" fill="#3B92CC"/>
<path d="M351.926 293.624L374.396 279.855L372.694 278.866L350.224 292.632L351.926 293.624Z" fill="white"/>
<path d="M359.249 282.771L370.264 276.114L361.854 271.238L350.84 277.895L359.249 282.771Z" fill="#353535"/>
<path d="M351.562 299.279L380.415 281.748V279.928L351.562 297.456V299.279Z" fill="#3B92CC"/>
<path d="M332.593 285.931L351.562 297.456V299.279L332.593 287.754V285.931Z" fill="#3C75B1"/>
<path d="M379.708 321.904L408.561 304.376L389.592 292.851L360.739 310.379L379.708 321.904Z" fill="#54ABDC"/>
<path d="M380 319.538L404.936 304.376L400.587 301.859L375.65 317.02L380 319.538Z" fill="#3B92CC"/>
<path d="M380.071 318.072L402.541 304.306L400.836 303.314L378.369 317.08L380.071 318.072Z" fill="white"/>
<path d="M387.395 307.219L398.409 300.562L389.997 295.686L378.985 302.343L387.395 307.219Z" fill="#3B92CC"/>
<path d="M379.708 323.727L408.561 306.198V304.376L379.708 321.904V323.727Z" fill="#3B92CC"/>
<path d="M360.739 310.379L379.708 321.904V323.727L360.739 312.202V310.379Z" fill="#3C75B1"/>
<path d="M379.708 319.139L408.561 301.611L389.592 290.086L360.739 307.617L379.708 319.139Z" fill="#54ABDC"/>
<path d="M380 316.773L404.936 301.611L400.587 299.094L375.65 314.256L380 316.773Z" fill="#3B92CC"/>
<path d="M380.071 315.307L402.541 301.541L400.836 300.549L378.369 314.316L380.071 315.307Z" fill="white"/>
<path d="M387.395 304.454L398.409 297.797L389.997 292.921L378.985 299.578L387.395 304.454Z" fill="#3B92CC"/>
<path d="M379.708 320.962L408.561 303.434V301.611L379.708 319.139V320.962Z" fill="#3B92CC"/>
<path d="M360.739 307.617L379.708 319.139V320.962L360.739 309.437V307.617Z" fill="#3C75B1"/>
<path d="M379.708 316.25L408.561 298.722L389.592 287.199L360.739 304.727L379.708 316.25Z" fill="#54ABDC"/>
<path d="M380 313.883L404.936 298.722L400.587 296.204L375.65 311.366L380 313.883Z" fill="#3B92CC"/>
<path d="M380.071 312.418L402.541 298.651L400.836 297.659L378.369 311.426L380.071 312.418Z" fill="white"/>
<path d="M387.395 301.564L398.409 294.908L389.997 290.032L378.985 296.688L387.395 301.564Z" fill="#353535"/>
<path d="M379.708 318.072L408.561 300.544V298.722L379.708 316.25V318.072Z" fill="#3B92CC"/>
<path d="M360.739 304.727L379.708 316.25V318.072L360.739 306.55V304.727Z" fill="#3C75B1"/>
<path d="M308.132 288.11L291.392 277.942C289.341 276.697 289.601 274.5 291.969 273.061L324.451 253.327C326.819 251.888 330.433 251.731 332.484 252.976L349.224 263.144C351.275 264.391 351.015 266.586 348.648 268.026L316.165 287.759C313.798 289.199 310.183 289.357 308.132 288.11Z" fill="#353535"/>
<path d="M292.112 273.558H290.009V275.771H292.112V273.558Z" fill="#353535"/>
<path d="M350.59 263.228H348.517V265.409H350.59V263.228Z" fill="#353535"/>
<path d="M308.132 286.062L291.392 275.893C289.341 274.646 289.601 272.451 291.969 271.012L324.451 251.278C326.819 249.839 330.433 249.683 332.484 250.927L349.224 261.096C351.275 262.343 351.015 264.537 348.648 265.977L316.165 285.71C313.798 287.15 310.183 287.309 308.132 286.062Z" fill="#6B6B6B"/>
<path d="M313.045 284.567L293.854 272.909L327.571 252.424L346.765 264.084L313.045 284.567Z" fill="white"/>
<path d="M304.812 284.041L292.28 276.434L298.08 273.027L310.779 280.535L304.812 284.041Z" fill="#CECECE"/>
<path d="M292.28 276.434V278.483L304.812 286.095V284.041L292.28 276.434Z" fill="#AC9C93"/>
<path d="M194.261 175.18L196.142 193.557C196.142 197.619 202.023 200.912 209.279 200.912C216.533 200.912 222.417 197.619 222.417 193.557L224.297 175.18H194.261Z" fill="white"/>
<path d="M209.277 166.777C200.983 166.777 194.259 170.539 194.259 175.183C194.259 179.825 200.981 183.587 209.277 183.587C217.57 183.587 224.294 179.825 224.294 175.183C224.294 170.539 217.57 166.777 209.277 166.777Z" fill="#E9DEDE"/>
<path d="M209.277 169.768C216.296 169.768 222.105 172.606 223.097 176.302C223.196 175.935 223.248 175.561 223.248 175.178C223.248 170.947 216.993 167.519 209.277 167.519C201.56 167.519 195.305 170.947 195.305 175.178C195.305 175.561 195.357 175.935 195.456 176.302C196.451 172.606 202.258 169.768 209.277 169.768Z" fill="#CECECE"/>
<path d="M209.277 182.837C216.296 182.837 222.105 179.999 223.097 176.302C222.105 172.606 216.296 169.768 209.277 169.768C202.258 169.768 196.448 172.606 195.456 176.302C196.451 179.999 202.258 182.837 209.277 182.837Z" fill="#353535"/>
<path d="M207.693 156.038C205.917 153.932 204.123 152.818 201.753 153.935C200.558 154.5 199.746 156.114 199.746 156.114C199.746 156.114 202.542 162.052 203.618 164.996C204.695 167.941 206.642 176.3 206.642 176.3L209.282 176.508C209.277 176.511 211.963 161.109 207.693 156.038Z" fill="#748D26"/>
<path d="M211.021 160.058C209.784 161.945 207.78 175.18 207.78 175.18L212.233 174.714L217.899 158.709C217.899 158.709 215.321 153.492 211.021 160.058Z" fill="#748D26"/>
<path d="M181.262 155.202C181.262 155.202 188.264 158.41 191.354 160.794C198.541 166.345 205.35 178.062 205.35 178.062L209.878 177.844C209.878 177.844 202.965 161.698 195.085 157.022C189.303 153.594 181.262 155.202 181.262 155.202Z" fill="#809B38"/>
<path d="M181.262 155.202C181.262 155.202 188.175 155.515 194.395 161.078C200.615 166.641 205.818 176.555 205.818 176.555L203.658 176.823C203.658 176.823 196.56 166.186 192.23 162.049C187.9 157.918 181.262 155.202 181.262 155.202Z" fill="#748D26"/>
<path d="M208.5 178.468C208.5 178.468 209.88 167.287 214.029 161.854C218.394 156.14 220.343 155.111 223.094 154.44C228.844 153.039 230.554 154.999 230.554 154.999C230.554 154.999 225.22 155.478 220.786 160.667C216.637 165.522 214.027 174.334 214.027 174.334L213.06 178.815L209.274 179.549L208.5 178.468Z" fill="#748D26"/>
<path d="M176.171 171.08C176.171 171.08 178.937 165.65 184.281 164.205C189.625 162.76 197.552 164.16 200.501 169.182C203.45 174.202 203.45 174.202 203.45 174.202C203.45 174.202 195.587 167.514 191.96 167.368C188.336 167.219 176.171 171.08 176.171 171.08Z" fill="#C5D66D"/>
<path d="M184.761 168.021C184.761 168.021 182.195 167.519 180.639 167.102C182.371 166.446 182.675 166.561 184.063 166.777C185.886 167.061 186.837 167.121 186.837 167.121C186.837 167.121 185.461 165.811 184.907 164.507C186.238 164.856 188.873 166.683 188.873 166.683C188.873 166.683 188.336 165.374 188.309 164.228C189.011 164.634 190.234 167.123 190.234 167.123L184.761 168.021Z" fill="#B2C759"/>
<path d="M193.663 167.519C198.363 168.82 201.661 172.843 204.032 176.302C204.888 177.552 205.81 178.75 206.639 179.773C208.072 179.82 209.279 179.549 209.279 179.549C209.279 179.549 204.875 170.01 196.763 166.928C188.653 163.846 176.171 171.083 176.171 171.083C176.171 171.083 178.793 170.299 182.195 169.641C185.33 168.383 190.535 166.654 193.663 167.519Z" fill="#809B38"/>
<path d="M191.96 168.833C198.255 169.427 200.343 176.698 203.45 178.88C204.368 179.523 205.565 179.736 206.637 179.773C205.808 178.75 205.368 177.148 204.509 175.899C202.141 172.439 198.361 168.82 193.66 167.519C190.533 166.654 185.33 168.383 182.193 169.638C185.268 169.044 188.974 168.552 191.96 168.833Z" fill="#748D26"/>
<path d="M219.225 168.529C219.225 168.529 224.799 163.991 229.977 164.97C235.156 165.949 235.903 170.487 236.764 175.183C229.052 167.519 219.225 168.529 219.225 168.529Z" fill="#C5D66D"/>
<path d="M236.761 175.18C236.761 175.18 234.305 168.966 229.052 167.519C224.836 166.358 218.198 165.926 214.349 171.71C212.401 174.639 210.348 178.914 210.348 178.914C210.348 178.914 211.256 179.187 212.471 179.226C212.661 178.643 212.886 177.987 213.154 177.255C214.537 173.473 218.512 170.781 223.094 169.768C228.325 168.612 231.264 170.737 232.635 172.267C235.388 173.561 236.761 175.18 236.761 175.18Z" fill="#809B38"/>
<path d="M223.097 169.768C218.512 170.781 214.537 173.475 213.156 177.255C212.889 177.987 212.664 178.64 212.473 179.226C213.992 179.275 215.989 178.955 217.295 177.255C217.295 177.255 220.019 170.632 225.559 170.695C228.505 170.729 230.858 171.429 232.64 172.265C231.264 170.737 228.327 168.612 223.097 169.768Z" fill="#748D26"/>
<path d="M212.839 151.242C208.052 159.758 208.181 178.065 208.181 178.065C208.181 178.065 209.445 178.702 209.88 178.421C209.9 178.268 209.922 178.114 209.945 177.96C211.558 166.149 215.242 155.884 217.327 152.112C220.789 145.848 223.097 142.175 223.097 142.175C223.097 142.175 216.664 144.437 212.839 151.242Z" fill="#809B38"/>
<path d="M219.161 145.757C219.161 145.757 217.75 148.801 217.896 151.081C218.045 153.359 217.622 153.937 217.622 153.937L216.184 155.205C216.184 155.205 215.002 152.56 216.184 149.803C217.369 147.044 219.161 145.757 219.161 145.757Z" fill="#748D26"/>
<path d="M214.636 150.868C214.636 150.868 213.549 153.935 214.029 156.744C214.462 159.266 215.353 160.175 215.353 160.175L214.029 161.854C214.029 161.854 212.471 160.118 212.471 156.757C212.471 152.826 214.636 150.868 214.636 150.868Z" fill="#748D26"/>
<path d="M211.021 160.058C211.021 160.058 209.912 163.689 211.021 166.217C212.129 168.745 212.839 169.367 212.839 169.367L213.309 167.284C213.309 167.284 211.028 164.509 211.021 160.058Z" fill="#748D26"/>
<path d="M217.327 152.11C215.242 155.882 211.558 166.147 209.945 177.958L210.769 178.062C210.769 178.062 214.836 164.205 215.65 161.851C216.82 158.467 219.514 153.107 220.789 149.426C222.063 145.744 223.097 142.17 223.097 142.17C223.097 142.17 220.789 145.846 217.327 152.11Z" fill="#C5D66D"/>
<path d="M202.423 178.864C202.423 178.864 201.419 177.997 199.546 178.062C197.671 178.127 194.261 179.59 194.261 179.59C194.261 179.59 196.567 175.899 198.962 175.803C201.36 175.706 203.524 178.065 203.524 178.065L202.423 178.864Z" fill="#809B38"/>
<path d="M194.261 179.59C194.261 179.59 196.876 177.219 199.546 177.263C202.218 177.307 204.071 179.231 204.071 179.231L203 179.572C203 179.572 201.535 178.317 199.746 178.208C197.463 178.065 194.261 179.59 194.261 179.59Z" fill="#748D26"/>
<path d="M220.38 177.586C217.35 176.326 213.547 179.179 213.547 179.179L213.854 179.515C214.843 178.739 217.006 178.177 219.205 178.817C222.063 179.65 223.176 181.918 223.176 181.918C223.176 181.918 223.951 179.07 220.38 177.586Z" fill="#B2C759"/>
<path d="M219.529 179.877C219.529 179.877 220.319 179.426 221.397 179.59C221.949 179.674 222.555 180.01 222.555 180.01C222.555 180.01 222.063 178.651 220.826 178.914C219.589 179.177 219.225 179.59 219.225 179.59L219.529 179.877Z" fill="#98AF47"/>
<path d="M218.243 179.426C218.243 179.426 218.896 178.578 219.527 178.427C220.158 178.276 220.697 178.231 220.697 178.231C220.697 178.231 219.524 177.825 218.762 178.218C218.003 178.612 217.622 179.426 217.622 179.426H218.243Z" fill="#98AF47"/>
<path d="M219.208 178.817C217.008 178.177 214.846 178.737 213.856 179.515C213.559 179.747 213.364 179.999 213.309 180.244C214.636 180.47 215.712 179.546 217.919 180.072C220.19 180.614 223.179 181.92 223.179 181.92C223.179 181.92 222.065 179.65 219.208 178.817Z" fill="#C5D66D"/>
<path d="M191.943 167.199C189.459 168.683 189.011 173.145 189.011 173.145C189.011 173.145 192.816 170.174 194.944 169.073C197.072 167.972 200.251 168.625 200.251 168.625C200.251 168.625 195.934 164.817 191.943 167.199Z" fill="#C5D66D"/>
<path d="M191.629 168.763C191.629 168.763 193.309 167.73 194.632 168.175C195.956 168.62 196.847 169.383 196.847 169.383L195.573 169.779C195.573 169.779 194.932 168.716 191.629 168.763Z" fill="#98AF47"/>
<path d="M195.305 167.287C195.305 167.287 197.574 168.904 198.722 169.203C199.87 169.505 200.251 168.935 200.251 168.935C200.251 168.935 197.46 167.003 195.305 167.287Z" fill="#98AF47"/>
<path d="M199.227 170.955C202.409 171.952 204.838 173.478 205.82 177.695C205.899 178.034 205.924 178.338 205.914 178.622L207.419 178.815C207.419 178.815 207.035 172.101 204.232 169.932C201.429 167.763 199.162 168.016 198.737 168.045C194.875 168.313 191.047 170.947 189.011 173.145C189.011 173.145 190.864 172.645 192.849 172.205C194.029 171.528 196.8 170.195 199.227 170.955Z" fill="#B2C759"/>
<path d="M203 174.334C204.173 175.581 205.481 178.567 205.481 178.567L205.914 178.622C205.924 178.338 205.899 178.034 205.82 177.695C204.838 173.478 202.406 171.95 199.227 170.955C196.8 170.195 194.031 171.531 192.849 172.207C193.865 171.984 194.917 171.775 195.77 171.658C196.043 171.619 199.962 171.101 203 174.334Z" fill="#98AF47"/>
<path d="M191.312 147.556C191.312 147.556 196.1 145.388 199.947 148.905C203.45 152.112 204.034 158.105 204.034 158.105L191.312 147.556Z" fill="#C5D66D"/>
<path d="M191.312 147.556C191.312 147.556 196.951 151.678 199.744 157.001C202.537 162.325 206.637 177.646 206.637 177.646L207.78 178.468C207.78 178.468 206.983 171.109 206.637 166.743C206.29 162.377 204.571 155.489 201.528 151.972C197.255 147.033 191.312 147.556 191.312 147.556Z" fill="#B2C759"/>
<path d="M206.637 177.646C209.009 177.768 212.97 176.532 213.995 179.492C214.173 180.007 213.616 181.655 213.616 181.655L201.53 180.947C201.53 180.947 201.265 177.365 206.637 177.646Z" fill="#B2C759"/>
<path d="M213.995 179.492C210.714 180.468 204.353 180.069 202.423 178.867C201.983 179.031 201.637 180.012 201.53 180.947C201.199 183.878 202.923 189.668 209.277 192.485C213.03 188.049 214.267 186.625 214.584 183.175C214.836 180.408 214.104 179.778 213.995 179.492Z" fill="#C5D66D"/>
<path d="M207.78 178.468C207.78 178.468 205.061 179.653 204.225 180.89C203.388 182.126 203 183.587 203 183.587C203 183.587 203.589 182.923 204.512 181.655C205.152 180.772 206.639 179.775 206.639 179.775C206.639 179.775 205.768 183.498 205.823 185.953C205.875 188.408 206.639 190.144 206.639 190.144C206.639 190.144 206.911 187.341 207.057 184.893C207.203 182.446 208.064 180.535 208.064 180.535C208.064 180.535 209.925 183.784 210.35 185.206C210.776 186.627 211.496 188.853 211.496 188.853C211.496 188.853 211.709 186.273 211.031 183.961C210.355 181.65 209.279 180.608 209.279 180.608C209.279 180.608 210.736 181.129 211.751 181.561C212.765 181.993 214.032 182.751 214.032 182.751C214.032 182.751 213.309 181.639 211.961 180.608C211.117 179.96 207.78 178.468 207.78 178.468Z" fill="#B2C759"/>
<path d="M157.113 237.499C157.113 237.499 154.485 243.458 152.147 252.671C149.812 261.887 149.854 271.964 149.854 271.964L137.171 273.401C137.171 273.401 138.921 280.68 142.595 285.642C146.269 290.604 149.809 290.276 152.147 291.836C154.485 293.395 158.877 292.861 161.081 288.493C163.286 284.122 166.811 247.019 166.811 247.019L157.113 237.499Z" fill="#FFBCAA"/>
<path d="M153.77 418.42C153.77 418.42 150.878 421.729 147.016 425.691C143.441 429.359 142.335 430.414 139.017 433.821C137.08 435.81 138.676 437.641 142.367 437.492C145.613 437.359 152.964 435.698 157.076 434.144C159.997 433.04 165.351 429.924 168.088 428.105C170.824 426.285 171.356 423.754 171.356 423.754V417.637L153.77 418.42Z" fill="#232323"/>
<path d="M194.412 439.848C194.412 439.848 193.742 446.12 193.331 453.997C192.918 461.875 193.977 468.831 196.265 469.698C198.554 470.565 205.071 470.456 208.777 459.519C212.483 448.582 210.274 437.974 210.274 437.974L194.412 439.848Z" fill="#232323"/>
<path d="M157.543 327.264C156.262 335.186 155.052 342.942 154.183 349.104C150.754 373.44 152.256 416.882 152.256 416.882C152.256 416.882 152.689 422.172 161.304 422.138C167.915 422.112 173.365 416.452 173.365 416.452L174.048 365.737L179.827 335.551C171.94 333.965 164.317 331.073 157.543 327.264Z" fill="#54ABDC"/>
<path d="M204.648 383.47C204.319 376.355 205.523 355.669 205.345 336.951C205.254 327.225 204.789 318.03 203.539 311.548C195.399 313.652 184.617 327.296 176.099 325.882C176.851 337.748 179.33 380.484 182.554 387.638C191.431 407.338 191.431 442.064 191.431 442.064C191.431 442.064 202.614 446.263 210.271 442.233C217.929 438.206 216.424 433.704 216.424 433.704C216.424 433.704 214.495 406.778 204.648 383.47Z" fill="#54ABDC"/>
<path d="M166.264 255.074C169.077 244.905 180.374 229.874 173.392 224.003C167.234 221.379 157.14 230.329 152.15 245.509C154.527 251.494 160.087 254.108 166.264 255.074Z" fill="#54ABDC"/>
<path d="M154.77 326.991C168.15 344.142 192.99 344.858 208.819 329.417C206.313 315.989 206.637 297.636 205.659 292.546C203.398 280.764 210.286 270.332 209.358 256.639C210.405 245.246 192.215 234.201 192.215 234.201L174.61 223.73C174.61 223.73 166.443 230.264 161.383 237.533C151.764 251.343 157.09 269.892 156.932 282.651C156.858 288.86 156.87 312.162 154.77 326.991Z" fill="#BDE2EF"/>
<path d="M182.108 307.984V311.548C182.108 311.548 188.237 313.165 191.933 312.873C196.325 312.527 200.258 311.548 200.258 311.548V307.896C200.258 307.896 195.456 309.286 191.183 309.163C186.458 309.028 182.108 307.984 182.108 307.984Z" fill="#54ABDC"/>
<path d="M156.583 302.83V303.064L156.464 305.644C156.464 305.644 157.697 306.519 159.681 307.297C162.125 308.255 164.238 308.299 164.238 308.299L164.565 305.443C164.565 305.443 159.226 304.636 156.583 302.83Z" fill="#54ABDC"/>
<path d="M174.068 250.935C174.068 250.935 172.786 256.933 172.309 266.214C172.061 271.004 173.937 300.177 174.555 307.739C175.174 315.305 171.561 338.743 171.561 338.743L168.578 337.67C168.578 337.67 171.91 315.615 171.561 306.659C171.213 297.706 168.578 276.518 169.305 265.904C169.837 258.151 172.007 249.269 172.007 249.269L174.068 250.935Z" fill="#54ABDC"/>
<path d="M175.634 237.08C175.634 237.08 173.177 238.754 172.009 241.407C170.841 244.059 172.306 250.935 172.306 250.935C172.306 250.935 175.683 249.753 178.249 248.412C180.817 247.071 183.697 245.759 183.697 245.759L175.634 237.08Z" fill="white"/>
<path d="M176.472 231.943C176.472 231.943 172.487 235.106 170.329 240.589C167.615 247.485 172.309 250.937 172.309 250.937C172.309 250.937 172.009 246.634 173.412 243.468C174.506 240.998 175.391 238.585 175.391 238.585L176.472 231.943Z" fill="#54ABDC"/>
<path d="M176.589 231.222C176.589 231.222 175.728 236.054 174.582 242.825C174.068 245.863 180.481 250.274 186.223 245.096C191.965 239.915 192.787 237.533 192.787 237.533L189.959 221.002L176.589 231.222Z" fill="#FFA48E"/>
<path d="M191.525 202.833C187.72 197.73 176.779 193.43 169.654 204.528C162.18 216.165 169.243 235.192 175.79 234.083C179.456 233.461 187.71 229.947 191.327 223.733C195.399 216.737 194.481 206.798 191.525 202.833Z" fill="#FFBCAA"/>
<path d="M166.445 208.459C167.882 211.093 171.388 214.082 177.531 214.673C182.556 215.157 186.594 213.736 186.594 213.736L186.176 219.395C186.176 219.395 186.839 219.135 187.683 218.862C188.447 216.201 190.718 216.459 191.441 217.956C192.284 219.708 191.33 223.733 191.33 223.733C191.33 223.733 197.329 220.171 197.606 212.07C197.777 207.019 193.987 195.913 185.238 194.409C176.49 192.904 169.562 197.538 167.234 202.39C166.064 204.822 165.794 207.266 166.445 208.459Z" fill="#232323"/>
<path d="M197.604 212.07C197.604 212.07 190.392 218.859 182.586 223.886C180.894 224.141 177.116 224.571 173.392 224.003C168.318 223.23 166.814 221.002 166.814 221.002C166.814 221.002 168.511 232.152 173.392 234.011C177.425 235.544 183.509 231.199 183.509 231.199V225.151C190.835 221.142 197.455 213.77 197.455 213.77L197.604 212.07Z" fill="#EBE5E0"/>
<path d="M172.87 295.655L157.001 286.015C152.036 282.997 148.01 278.522 145.423 273.141L135.046 251.562C134.376 250.167 135.84 248.709 137.127 249.49L154.658 260.14C158.1 262.231 160.888 265.331 162.682 269.062L174.629 293.905C175.196 295.082 173.959 296.313 172.87 295.655Z" fill="white"/>
<path d="M173.818 302.843L154.743 291.253C148.773 287.626 143.936 282.248 140.823 275.776L128.349 249.834C127.542 248.157 129.304 246.402 130.85 247.342L151.925 260.145C156.061 262.66 159.414 266.386 161.571 270.871L175.933 300.737C176.611 302.155 175.124 303.637 173.818 302.843Z" fill="#EDEDED"/>
<path d="M134.524 264.446C131.897 264.948 132.755 272.058 136.051 275.385C139.346 278.712 144.7 280.368 145.732 276.291C146.763 272.212 142.266 262.965 134.524 264.446Z" fill="#54ABDC"/>
<path d="M149.327 264.162L138.597 257.646L134.878 250.417L145.608 256.933L149.327 264.162Z" fill="#565656"/>
<path d="M134.878 250.417L138.344 248.412L149.045 254.874L145.608 256.933L134.878 250.417Z" fill="#565656"/>
<path d="M149.045 254.874L145.608 256.933L149.327 264.162L150.425 263.147L147.718 257.586L149.747 256.282L149.045 254.874Z" fill="#353535"/>
<path d="M224.275 294.296C223.114 288.118 221.256 283.747 220.91 283.029C218.174 277.364 213.171 265.066 213.171 265.066L197.611 266.924C200.553 280.43 208.769 294.293 208.769 294.293C208.769 294.293 204.432 300.51 201.1 305.826C203.505 306.362 207.305 308.01 210.14 312.954C213.416 309.26 218.114 304.051 219.92 302.491C222.29 300.442 225.054 298.446 224.275 294.296Z" fill="#FFBCAA"/>
<path d="M201.097 305.826C199.524 308.336 198.173 310.645 197.609 312.001C195.857 316.229 194.751 321.324 196.325 326.989C198.143 333.539 200.036 334.845 201.726 335.988C202.881 336.769 204.892 337.352 205.348 336.949C206.421 335.988 205.197 334.856 202.96 331.544C204.977 329.3 206.127 326.988 207.735 321.93C208.185 320.511 206.716 316.846 206.716 316.846C206.716 316.846 208.171 315.172 210.14 312.951C207.302 308.01 203.502 306.365 201.097 305.826Z" fill="#54ABDC"/>
<path d="M201.451 241.407C197.324 241.513 195.372 251.127 194.816 260.335C194.256 269.541 199.526 280.709 199.526 280.709C199.526 280.709 203.082 280.293 207.347 278.855C213.799 276.682 219.73 272.555 219.73 272.555C219.73 272.555 217.548 262.197 214.049 254.668C207.886 241.407 201.451 241.407 201.451 241.407Z" fill="#54ABDC"/>
<path d="M191.829 231.943C191.829 231.943 190.501 237.965 184.56 242.75C180.384 246.113 172.309 250.937 172.309 250.937C172.309 250.937 176.97 252.624 183.699 249.308C190.429 245.994 194.214 240.743 194.816 237.502C195.417 234.258 191.829 231.943 191.829 231.943Z" fill="#54ABDC"/>
<path d="M69.3538 453.253C63.849 445.497 61.2981 442.186 60.4643 433.199C59.9101 427.238 61.5381 409.103 62.3199 401.668C63.646 389.078 65.6426 384.212 65.7317 374.005C65.8208 363.797 65.0315 342.7 65.0315 342.7H44.3257L46.8914 378.657C46.8914 378.657 44.306 390.653 44.5088 399.247C44.6226 404.078 47.8514 428.815 49.1156 438.888C47.4728 446.182 49.3705 450.735 52.1464 452.11C54.9793 453.513 55.5359 454.448 60.6573 459.123C65.7861 463.799 71.63 456.455 69.3538 453.253Z" fill="#FFBCAA"/>
<path d="M87.9838 325.859C87.9838 325.859 93.3699 345.295 93.2808 355.503C93.1918 365.71 90.5445 373.539 87.9838 385.918C87.2836 389.299 85.3711 398.994 86.7764 419.477C87.1401 424.79 95.0177 437.359 95.0177 437.359L91.7939 445.422L75.9893 431.848L74.7844 422.994C74.7844 422.994 71.6374 387.37 71.4889 381.14C71.2836 372.547 73.6637 361.816 73.6637 361.816L67.5774 327.702L87.9838 325.859Z" fill="#FFBCAA"/>
<path d="M83.1494 436.073C89.3916 439.559 91.9176 440.015 95.0177 437.362C95.0177 437.362 100.913 442.038 102.917 444.365C104.924 446.692 99.2236 450.558 93.5481 448.798C87.8749 447.039 83.0356 441.738 78.4189 437.802C73.8913 433.941 72.6394 432.543 72.6394 427.852C72.6394 425.543 74.7844 422.999 74.7844 422.999C74.7844 422.999 76.6079 432.418 83.1494 436.073Z" fill="#3B92CC"/>
<path d="M82.8303 302.312L48.2942 296.214C48.2942 296.214 46.6144 297.948 44.7786 301.825C43.0467 305.482 41.1788 311.043 40.4489 318.918C39.1129 333.351 46.6885 375.244 46.8964 378.657C48.5021 379.862 51.5304 380.674 53.2821 381.281C57.3075 382.676 68.0822 381.515 72.9265 379.667C87.9393 373.942 90.9329 370.849 95.2477 365.398C94.1591 355.742 82.8303 302.312 82.8303 302.312Z" fill="#3B92CC"/>
<path d="M94.5278 310.616C97.4027 309.859 99.956 308.169 102.366 306.177C102.853 297.313 105.137 284.687 104.37 279.912C103.531 274.698 97.5981 254.782 97.5981 254.782L93.5975 255.751L91.257 271.496C91.257 271.496 90.3416 283.966 90.9577 288.022C91.309 290.334 92.885 301.288 94.5278 310.616Z" fill="#FFBCAA"/>
<path d="M84.7996 230.046C84.7996 230.046 93.8425 240.521 97.5981 249.209C101.354 257.899 100.619 258.091 101.762 261.952C97.5908 268.325 88.5182 268.325 88.5182 268.325L84.7996 230.046Z" fill="#54ABDC"/>
<path d="M84.3072 235.575C84.3072 235.575 90.4702 251.401 86.8407 254.113C81.6526 257.99 68.1835 243.927 65.4447 239.605C62.7059 235.284 64.6827 234.711 64.6827 234.711L69.8956 225.557L84.3072 235.575Z" fill="#FF9784"/>
<path d="M48.0938 268.328C47.5792 261.939 47.4036 256.35 54.4078 246.73C55.3603 245.423 59.3758 239.009 62.3348 236.905C65.6748 234.531 65.6699 232.977 65.6699 232.977C65.6699 232.977 72.5503 247.491 80.4279 250.758C84.5794 252.481 86.8383 247.165 83.1519 235.867C81.7491 231.566 85.3712 232.974 85.3712 232.974L87.6448 233.537C87.6448 233.537 90.6657 247.277 93.5975 255.753C95.3838 260.913 94.4783 264.717 91.2571 271.498C90.1833 273.758 87.9269 275.096 86.6602 278.598C82.8253 289.198 84.7971 306.097 84.7971 306.097C84.7971 306.097 68.9976 314.05 63.5075 314.05C50.5036 314.05 44.3258 309.58 43.0615 306.097C43.398 303.824 47.0695 295.644 48.0913 288.024C49.4818 277.681 48.2324 270.048 48.0938 268.328Z" fill="#BDE2EF"/>
<path d="M82.4616 242.458V251L85.3736 249.985L82.4616 242.458Z" fill="#54ABDC"/>
<path d="M84.2776 202.562C84.2776 202.562 94.6936 203.606 96.1484 216.834C97.6056 230.061 99.1519 237.457 94.2854 246.603C91.2373 252.328 88.8324 264.272 88.8324 264.272C88.8324 264.272 86.1926 260.947 83.8768 252.252C80.5417 239.72 84.1514 233.859 84.1514 233.859L84.2776 202.562Z" fill="#232323"/>
<path d="M69.2895 233.417C70.5983 234.739 70.2445 236.085 74.0966 242.458C76.3258 246.145 82.4615 250.997 82.4615 250.997C82.4615 250.997 78.7702 250.534 75.9893 250.794C73.8665 250.992 70.8927 253.265 70.8927 253.265C70.8927 253.265 65.5536 241.149 65.7392 237.455C65.9222 233.763 69.2895 233.417 69.2895 233.417Z" fill="#54ABDC"/>
<path d="M90.109 206.715C96.1928 213.371 93.7385 236.387 84.7996 237.897C79.0028 238.876 70.8605 233.453 67.9213 222.795C65.4596 213.866 78.5945 194.117 90.109 206.715Z" fill="#FFBCAA"/>
<path d="M63.9949 210.281C69.8808 198.6 79.9084 197.272 90.542 204.043C95.2503 207.043 94.4462 211.718 94.4462 211.718C94.4462 211.718 86.6255 210.245 82.9144 214.548C81.1429 216.602 79.75 228.208 73.5573 234.911C66.9193 242.094 57.9111 239.103 57.9111 239.103C57.9111 239.103 60.2318 217.745 63.9949 210.281Z" fill="#232323"/>
<path d="M62.1146 381.888C60.5014 382.846 57.1985 384.33 56.6468 386.917C56.0976 389.508 56.0976 389.508 56.0976 389.508C56.0976 389.508 60.0511 386.566 61.4639 385.163C62.879 383.759 62.1146 381.888 62.1146 381.888Z" fill="#FF9784"/>
<path d="M80.6159 459.959C81.9297 460.175 83.9782 459.253 85.4082 457.801C88.4044 454.755 94.2828 453.211 94.367 453.188C93.8598 450.295 92.3951 448.249 92.3951 448.249C92.3951 448.249 80.653 449.949 78.6317 449.686C76.9666 449.47 73.8294 449.293 72.058 451.446C72.0877 451.558 72.5652 453.333 73.6117 455.479C74.6929 457.694 79.3022 459.743 80.6159 459.959Z" fill="#C5D66D"/>
<path d="M75.4846 459.363C77.2116 460.539 81.9693 462.393 84.431 462.63C89.6637 463.138 93.0086 461.193 94.0107 458.316C94.6539 456.476 94.6367 454.718 94.3695 453.188C94.2853 453.211 88.4093 454.755 85.4107 457.801C83.9807 459.256 81.9296 460.175 80.6184 459.959C79.3046 459.743 74.6954 457.694 73.6142 455.479C72.5676 453.333 72.0902 451.558 72.0605 451.446C71.9615 451.566 71.8477 451.659 71.7586 451.795C71.7487 451.81 71.7363 451.829 71.724 451.844C71.4889 452.211 71.2861 452.631 71.1277 453.115C70.2395 455.872 73.7577 458.186 75.4846 459.363Z" fill="#B2C759"/>
<path d="M100.866 451.368C102.18 451.584 104.229 450.662 105.659 449.21C108.655 446.164 114.533 444.62 114.617 444.597C114.11 441.704 112.646 439.658 112.646 439.658C112.646 439.658 100.904 441.358 98.8822 441.095C97.2147 440.879 94.0775 440.702 92.3085 442.855C92.3382 442.967 92.8157 444.742 93.8622 446.888C94.9434 449.103 99.5552 451.152 100.866 451.368Z" fill="#C5D66D"/>
<path d="M95.7351 450.769C97.4621 451.946 102.22 453.799 104.681 454.036C109.914 454.544 113.259 452.599 114.261 449.723C114.904 447.882 114.887 446.125 114.62 444.594C114.536 444.617 108.66 446.161 105.661 449.207C104.231 450.662 102.183 451.581 100.869 451.365C99.5551 451.149 94.9459 449.1 93.8647 446.885C92.8181 444.74 92.3407 442.964 92.311 442.852C92.212 442.972 92.0982 443.066 92.0091 443.201C91.9992 443.217 91.9868 443.235 91.9745 443.251C91.7394 443.618 91.5366 444.037 91.3807 444.521C90.49 447.281 94.0082 449.592 95.7351 450.769Z" fill="#B2C759"/>
<path d="M57.4855 451.964C63.7277 455.45 66.2538 455.905 69.3538 453.253C69.3538 453.253 75.2496 457.928 77.2536 460.253C79.2601 462.581 73.5598 466.446 67.8866 464.687C62.2135 462.927 57.3742 457.626 52.7575 453.69C48.2299 449.829 46.978 448.431 46.978 443.74C46.978 441.431 49.1231 438.888 49.1231 438.888C49.1231 438.888 50.944 448.309 57.4855 451.964Z" fill="#3B92CC"/>
<path d="M74.1115 356.138C74.1115 356.138 72.4761 369.845 71.4914 381.14C70.6997 390.226 69.9278 399.856 71.056 407.265C71.6028 410.85 76.0759 452.573 76.0759 452.573C76.0759 452.573 81.8851 454.346 85.0273 453.854C93.0409 452.599 95.4184 449.132 95.4184 449.132L88.2288 404.784V377.449C88.2288 377.449 90.8043 397.612 91.2472 403.17C91.4674 405.942 93.8153 415.851 95.129 425.678C96.4527 435.563 97.7342 445.703 97.7342 445.703C97.7342 445.703 101.351 447.588 108.566 444.568C111.146 443.488 113.187 439.817 113.187 439.817C113.187 439.817 112.129 423.788 110.822 416.967C108.672 405.742 106.738 402.149 105.77 399.437C105.77 399.437 104.08 386.318 103.642 375.335C103.392 369.048 102.868 364.755 101.577 361.09C98.4591 352.236 74.1115 356.138 74.1115 356.138Z" fill="#232323"/>
<path d="M98.4616 301.544C98.4616 301.544 101.784 313.152 101.762 318.283C101.737 323.417 99.6096 328.113 99.6096 328.113L92.4421 319.884L90.0249 300.661L98.4616 301.544Z" fill="#B2C759"/>
<path d="M76.1798 290.617C81.1676 280.376 79.8836 283.919 81.2023 282.956C84.7848 280.339 91.6752 281.157 94.6639 287.801C96.319 291.479 93.981 301.372 93.6099 308.317L95.0944 317.153C95.0944 317.153 95.0944 317.153 90.5272 319.134C85.96 321.115 83.0233 317.741 83.0233 317.741L83.1717 309.197C83.1717 309.197 79.3022 308.448 78.226 307.976C76.2739 307.12 72.7903 297.576 76.1798 290.617Z" fill="#FFBCAA"/>
<path d="M104.526 365.187C102.232 368.158 94.461 370.909 85.3711 372.427C79.99 373.325 74.5914 368.876 72.058 364.51C72.058 347.945 71.2762 332.742 74.7251 325.153C78.174 317.564 78.4065 317.879 81.7094 316.656C85.2078 315.357 97.5783 315.693 97.5783 315.693C97.5783 315.693 102.655 317.585 102.368 329.24C101.762 353.876 103.481 355.05 104.526 365.187Z" fill="#C5D66D"/>
<path d="M96.9796 316.023C96.9796 316.023 93.1002 321.061 87.9813 319.629C82.8624 318.197 80.0271 317.023 80.0271 317.023C80.0271 317.023 80.8782 314.315 84.144 313.959C89.305 313.394 95.9925 311.415 95.9925 311.415L96.9796 316.023Z" fill="#B2C759"/>
<path d="M91.7939 277.937C90.8166 273.849 88.5033 273.961 86.1876 276.69C85.0025 273.508 81.5487 274.19 80.0271 277.143C77.1176 275.325 75.398 279.413 76.6944 281.925C73.8418 281.925 73.347 284.979 75.2273 286.421C73.4014 289.685 75.2026 291.555 76.4322 292.999C75.3956 294.853 75.8285 297.92 78.3521 298.206C78.0948 301.554 79.896 304.045 81.848 303.342C81.7392 305.501 83.2756 306.662 86.2965 305.865C87.4073 308.88 90.4034 308.094 91.7939 306.774C94.7133 308.695 96.4972 306.282 96.5467 304.504C99.8224 304.504 100.646 302.46 99.8223 300.664C103.341 300.075 103.341 296.67 101.943 295.421C104.318 293.83 103.345 290.878 101.403 290.084C104.533 286.905 101.943 284.406 99.8397 284.747C101.834 281.571 99.0282 279.184 96.9796 279.978C97.4497 275.963 93.6346 276.119 91.7939 277.937Z" fill="#232323"/>
<path d="M62.9261 321.805C62.9261 321.805 54.9941 316.658 52.8441 312.587C50.6942 308.515 47.2576 295.4 46.8642 289.857C46.2605 281.321 49.3458 279.897 49.3458 279.897C49.3458 279.897 55.4617 297.204 57.7008 301.728C59.9398 306.253 66.3403 314.37 66.3403 314.37L62.9261 321.805Z" fill="#FF9784"/>
<path d="M63.9924 308.796C63.9924 308.796 59.5564 310.392 58.1659 318.228C57.0798 324.346 59.7394 326.153 59.7394 326.153C59.7394 326.153 73.963 335.363 77.8672 335.345C81.7713 335.327 86.91 327.145 82.516 321.485C79.9182 318.137 63.9924 308.796 63.9924 308.796Z" fill="#B2C759"/>
<path d="M63.6362 270.59C63.6362 270.59 63.6312 291.443 65.0291 294.921C66.0583 297.482 74.7424 306.789 81.2987 312.553C83.6392 314.612 88.5058 314.391 91.7098 314.047C91.7098 315.367 90.396 316.625 86.9966 318.283C87.3479 322.349 90.7473 324.013 91.7098 327.423C93.1002 332.354 87.4444 331.393 85.005 329.909C82.1746 328.191 79.4482 323.563 74.7597 319.887C67.805 314.433 57.2752 305.264 55.1772 302.749C50.4492 297.076 47.8489 270.59 47.8489 270.59H63.6362Z" fill="#FFBCAA"/>
<path d="M58.881 239.722C65.1998 241.867 67.1618 251.45 66.5284 259.211C65.8035 268.07 65.4942 276.718 65.4942 276.718C65.4942 276.718 51.3275 280.194 45.3822 273.683C45.6395 263.009 45.9365 257.532 49.9123 248.422C53.8857 239.311 58.881 239.722 58.881 239.722Z" fill="#54ABDC"/>
<path d="M102.527 303.85C102.7 308.934 102.598 313.594 102.598 319.038C102.598 322.808 101.186 325.825 98.7486 327.181C96.3116 328.538 95.4754 323.872 95.8935 321.152C96.3116 318.434 97.5908 314.388 97.5908 314.388C97.5908 314.388 95.8935 314.388 94.4981 314.388C93.6916 314.388 93.2833 313.003 93.2833 313.003C93.2833 313.003 96.3611 311.54 96.9821 310.614C97.6031 309.687 99.0925 303.848 99.0925 303.848H102.527V303.85Z" fill="#FFBCAA"/>
</g>
<defs>
<clipPath id="clip0_14_3070">
<rect width="500" height="500" fill="white"/>
</clipPath>
</defs>
</svg>
