<svg width="50" height="50" viewBox="0 0 50 50" fill="none" xmlns="http://www.w3.org/2000/svg">
<path d="M5.35484 47.5923H44.2498" stroke="black"/>
<line x1="43.7903" y1="26.5538" x2="43.7903" y2="48.0923" stroke="black"/>
<line x1="5.85484" y1="26.5538" x2="5.85484" y2="48.0923" stroke="black"/>
<path d="M7.92903 4C7.92903 2.89543 8.82446 2 9.92903 2H39.8C40.9046 2 41.8 2.89543 41.8 4V6.30769H7.92903V4Z" fill="black"/>
<path d="M11.98 6.09231L9.04 24.7877H14.096C14.2011 25.8781 14.8203 26.8968 15.8296 27.64C16.839 28.3832 18.1641 28.7961 19.54 28.7961C20.9159 28.7961 22.241 28.3832 23.2504 27.64C24.2597 26.8968 24.8789 25.8781 24.984 24.7877H25C25 25.8502 25.531 26.8692 26.4762 27.6205C27.4214 28.3718 28.7033 28.7938 30.04 28.7938C31.3767 28.7938 32.6586 28.3718 33.6038 27.6205C34.549 26.8692 35.08 25.8502 35.08 24.7877H35.096C35.2011 25.8781 35.8202 26.8968 36.8296 27.64C37.839 28.3832 39.1641 28.7961 40.54 28.7961C41.9159 28.7961 43.241 28.3832 44.2504 27.64C45.2597 26.8968 45.8789 25.8781 45.984 24.7877H46V24.12L45.9622 23.9377C45.9493 23.8514 45.9331 23.7655 45.9135 23.68L45.8941 23.6012L45.8773 23.5344L42.6879 8.3244C42.5572 7.70078 42.1525 7.13422 41.5457 6.7255C40.9389 6.31678 40.1694 6.09241 39.3741 6.09231H11.98Z" fill="black"/>
<path d="M16.0038 5.75H15.7297H10.2427C10.2427 5.75 10.2427 5.75 10.2427 5.75C9.39447 5.74998 8.56801 5.9861 7.91428 6.42367C7.2601 6.86154 6.81423 7.4787 6.68184 8.17221C6.68184 8.17221 6.68184 8.17222 6.68184 8.17222L3.75444 23.5031L3.75 23.5263V23.55V24.2C3.75 25.3241 4.32595 26.3847 5.31914 27.1552C6.31087 27.9246 7.64516 28.35 9.02703 28.35C10.4089 28.35 11.7432 27.9246 12.7349 27.1552C13.7247 26.3874 14.3 25.3315 14.304 24.2117L15.9787 6.02292L16.0038 5.75ZM33.5733 5.97708L33.5524 5.75H33.3243H24.9459H24.6959V6V24.2C24.6959 25.3241 25.2719 26.3847 26.2651 27.1552C27.2568 27.9246 28.5911 28.35 29.973 28.35C31.3548 28.35 32.6891 27.9246 33.6809 27.1552C34.674 26.3847 35.25 25.3241 35.25 24.2V24.1885L35.2489 24.1771L33.5733 5.97708Z" fill="black" stroke="#FF9103" stroke-width="0.5"/>
<path d="M33.9026 5.8162L34.1761 5.81859L39.6769 5.86652C39.6769 5.86652 39.6769 5.86652 39.6769 5.86652C40.5284 5.87392 41.3543 6.12376 42.0036 6.57849C42.6534 7.0336 43.0898 7.66956 43.2121 8.37863L45.9299 24.1342L45.9339 24.1569L45.9336 24.1801L45.9244 24.847C45.9085 25.9956 45.3185 27.0767 44.312 27.8586C43.307 28.6392 41.9627 29.0645 40.576 29.0524C39.1894 29.0403 37.8571 28.5917 36.8739 27.7937C35.8925 26.9972 35.3329 25.9106 35.3448 24.7662L33.9233 6.08879L33.9026 5.8162ZM16.285 5.89029L16.3086 5.66289L16.5371 5.66488L24.9366 5.73807L25.1866 5.74025L25.1832 5.99023L24.9256 24.664C24.9098 25.8126 24.3198 26.8938 23.3133 27.6756C22.3083 28.4563 20.9639 28.8815 19.5773 28.8694C18.1907 28.8573 16.8584 28.4088 15.8752 27.6108C14.8905 26.8116 14.3304 25.7204 14.3463 24.5718L14.3464 24.5606L14.3476 24.5494L16.285 5.89029Z" fill="black" stroke="#FF9103" stroke-width="0.5"/>
<path d="M14.08 24.7877C14.08 25.8502 13.549 26.8692 12.6038 27.6205C11.6586 28.3718 10.3767 28.7939 9.04 28.7939C7.70331 28.7939 6.42136 28.3718 5.47618 27.6205C4.531 26.8692 4 25.8502 4 24.7877H14.08ZM35.08 24.7877C35.08 25.8502 34.549 26.8692 33.6038 27.6205C32.6586 28.3718 31.3767 28.7939 30.04 28.7939C28.7033 28.7939 27.4214 28.3718 26.4762 27.6205C25.531 26.8692 25 25.8502 25 24.7877H35.08Z" fill="#FF9103"/>
<path d="M14.0968 24.7877C14.2032 25.8773 14.8229 26.8949 15.832 27.6372C16.8412 28.3795 18.1655 28.7918 19.5404 28.7918C20.9153 28.7918 22.2397 28.3795 23.2488 27.6372C24.2579 26.8949 24.8776 25.8773 24.984 24.7877H14.0968ZM35.0968 24.7877C35.2032 25.8773 35.8229 26.8949 36.832 27.6372C37.8412 28.3795 39.1655 28.7918 40.5404 28.7918C41.9153 28.7918 43.2397 28.3795 44.2488 27.6372C45.2579 26.8949 45.8776 25.8773 45.984 24.7877H35.0968Z" fill="#FF9103"/>
<circle cx="25.25" cy="38.25" r="8.25" fill="#FF9103"/>
<line x1="25.45" y1="32" x2="25.45" y2="45" stroke="black" stroke-width="3.5"/>
<line x1="18.8" y1="38.55" x2="31.8" y2="38.55" stroke="black" stroke-width="3.5"/>
</svg>
