<svg version="1.2" xmlns="http://www.w3.org/2000/svg" viewBox="0 0 1000 1000" width="1000" height="1000"><defs><linearGradient id="P" gradientUnits="userSpaceOnUse"/><linearGradient id="g1" x2="1" href="#P" gradientTransform="matrix(593.297,593.297,-556.085,556.085,443.701,-214.988)"><stop stop-color="#ffeddc"/><stop offset="1" stop-color="#f9d8b7"/></linearGradient><linearGradient id="g2" x2="1" href="#P" gradientTransform="matrix(115.148,115.148,-97.762,97.762,805.664,228.987)"><stop stop-color="#ffeddc"/><stop offset="1" stop-color="#f9d8b7"/></linearGradient><linearGradient id="g3" x2="1" href="#P" gradientTransform="matrix(-148.23,-148.23,210.693,-210.693,252.545,362.57)"><stop stop-color="#ffeddc"/><stop offset="1" stop-color="#f9d8b7"/></linearGradient><linearGradient id="g4" x2="1" href="#P" gradientTransform="matrix(-62.185,-19.869,19.869,-62.185,208.386,235.823)"><stop stop-color="#ffeddc"/><stop offset="1" stop-color="#f9d8b7"/></linearGradient><linearGradient id="g5" x2="1" href="#P" gradientTransform="matrix(494.987,494.987,-494.987,494.987,388.422,174.423)"><stop stop-color="#59667c"/><stop offset="1" stop-color="#2e3d5b"/></linearGradient><linearGradient id="g6" x2="1" href="#P" gradientTransform="matrix(349.737,349.737,-349.737,349.737,395.633,241.528)"><stop stop-color="#78e4ea"/><stop offset="1" stop-color="#7fdef4"/></linearGradient><linearGradient id="g7" x2="1" href="#P" gradientTransform="matrix(109.133,109.133,-109.133,109.133,472.37,727.953)"><stop stop-color="#59667c"/><stop offset="1" stop-color="#2e3d5b"/></linearGradient><linearGradient id="g8" x2="1" href="#P" gradientTransform="matrix(0,-23.639,270.208,0,488.205,877.752)"><stop stop-color="#59667c"/><stop offset="1" stop-color="#2e3d5b"/></linearGradient><linearGradient id="g9" x2="1" href="#P" gradientTransform="matrix(-342.374,-342.374,342.279,-342.279,397.558,1115.269)"><stop stop-color="#34b2b2"/><stop offset="1" stop-color="#61dbdb"/></linearGradient><linearGradient id="g10" x2="1" href="#P" gradientTransform="matrix(-117.704,-92.42,135.062,-172.013,470.182,610.16)"><stop offset=".09" stop-color="#ffa683"/><stop offset="1" stop-color="#ffd3b3"/></linearGradient><linearGradient id="g11" x2="1" href="#P" gradientTransform="matrix(74.71,83.136,-55.758,50.107,533.482,471.905)"><stop offset=".09" stop-color="#ffa683"/><stop offset="1" stop-color="#ffd3b3"/></linearGradient><linearGradient id="g12" x2="1" href="#P" gradientTransform="matrix(17.467,0,0,44.211,503.48,451.33)"><stop stop-color="#ffeddc"/><stop offset="1" stop-color="#f9d8b7"/></linearGradient><linearGradient id="g13" x2="1" href="#P" gradientTransform="matrix(37.118,0,0,31.158,501.556,420.172)"><stop stop-color="#59667c"/><stop offset="1" stop-color="#2e3d5b"/></linearGradient><linearGradient id="g14" x2="1" href="#P" gradientTransform="matrix(5.484,0,0,10.851,520.234,488.785)"><stop stop-color="#59667c"/><stop offset="1" stop-color="#2e3d5b"/></linearGradient><linearGradient id="g15" x2="1" href="#P" gradientTransform="matrix(17.467,0,0,44.211,553.569,451.33)"><stop stop-color="#ffeddc"/><stop offset="1" stop-color="#f9d8b7"/></linearGradient><linearGradient id="g16" x2="1" href="#P" gradientTransform="matrix(37.118,0,0,31.158,535.841,420.172)"><stop stop-color="#59667c"/><stop offset="1" stop-color="#2e3d5b"/></linearGradient><linearGradient id="g17" x2="1" href="#P" gradientTransform="matrix(5.484,0,0,10.851,548.798,488.785)"><stop stop-color="#59667c"/><stop offset="1" stop-color="#2e3d5b"/></linearGradient><linearGradient id="g18" x2="1" href="#P" gradientTransform="matrix(118.69,0,0,102.713,422.492,355.052)"><stop stop-color="#59667c"/><stop offset="1" stop-color="#2e3d5b"/></linearGradient><linearGradient id="g19" x2="1" href="#P" gradientTransform="matrix(36.683,0,0,36.683,406.861,454.243)"><stop stop-color="#59667c"/><stop offset="1" stop-color="#2e3d5b"/></linearGradient><linearGradient id="g20" x2="1" href="#P" gradientTransform="matrix(101.836,101.836,-102.589,102.589,457.1,148.337)"><stop stop-color="#59667c"/><stop offset="1" stop-color="#2e3d5b"/></linearGradient><linearGradient id="g21" x2="1" href="#P" gradientTransform="matrix(0,59.548,-41.585,0,529.224,334.536)"><stop offset=".09" stop-color="#ffa683"/><stop offset="1" stop-color="#ffd3b3"/></linearGradient><linearGradient id="g22" x2="1" href="#P" gradientTransform="matrix(-113.309,-113.309,115.153,-115.153,489.177,401.948)"><stop stop-color="#ffa683"/><stop offset="1" stop-color="#ffd3b3"/></linearGradient><linearGradient id="g23" x2="1" href="#P" gradientTransform="matrix(-40.085,-40.085,33.336,-33.336,416.741,341.096)"><stop offset=".09" stop-color="#ffa683"/><stop offset="1" stop-color="#ffd3b3"/></linearGradient><linearGradient id="g24" x2="1" href="#P" gradientTransform="matrix(21.559,-21.559,17.997,17.997,484.266,246.412)"><stop offset=".09" stop-color="#ffa683"/><stop offset="1" stop-color="#ffd3b3"/></linearGradient><linearGradient id="g25" x2="1" href="#P" gradientTransform="matrix(14.019,0,0,10.174,478.495,310.18)"><stop stop-color="#59667c"/><stop offset="1" stop-color="#2e3d5b"/></linearGradient><linearGradient id="g26" x2="1" href="#P" gradientTransform="matrix(34.116,34.116,-34.116,34.116,481.13,246.384)"><stop stop-color="#59667c"/><stop offset="1" stop-color="#2e3d5b"/></linearGradient><linearGradient id="g27" x2="1" href="#P" gradientTransform="matrix(31.813,31.813,-34.957,34.957,484.763,246.65)"><stop stop-color="#59667c"/><stop offset="1" stop-color="#2e3d5b"/></linearGradient><linearGradient id="g28" x2="1" href="#P" gradientTransform="matrix(34.115,34.115,-34.115,34.115,447.773,246.384)"><stop stop-color="#59667c"/><stop offset="1" stop-color="#2e3d5b"/></linearGradient><linearGradient id="g29" x2="1" href="#P" gradientTransform="matrix(31.813,31.813,-34.956,34.956,451.405,246.65)"><stop stop-color="#59667c"/><stop offset="1" stop-color="#2e3d5b"/></linearGradient><linearGradient id="g30" x2="1" href="#P" gradientTransform="matrix(277.246,277.246,-313.926,313.926,614.187,124.638)"><stop stop-color="#f4aa16"/><stop offset="1" stop-color="#f98026"/></linearGradient><linearGradient id="g31" x2="1" href="#P" gradientTransform="matrix(-223.785,-223.785,223.785,-223.785,236.635,987.989)"><stop offset=".01" stop-color="#18ccde"/><stop offset="1" stop-color="#7fdef4"/></linearGradient><linearGradient id="g32" x2="1" href="#P" gradientTransform="matrix(181.148,0,0,168.067,130.103,691.803)"><stop stop-color="#f4aa16"/><stop offset="1" stop-color="#f98026"/></linearGradient><linearGradient id="g33" x2="1" href="#P" gradientTransform="matrix(236.269,236.269,-236.269,236.269,774.767,531.666)"><stop stop-color="#f4aa16"/><stop offset="1" stop-color="#f98026"/></linearGradient><linearGradient id="g34" x2="1" href="#P" gradientTransform="matrix(123.949,0,0,5.481,695.671,695.653)"><stop stop-color="#ffeddc"/><stop offset="1" stop-color="#f9d8b7"/></linearGradient><linearGradient id="g35" x2="1" href="#P" gradientTransform="matrix(123.949,0,0,5.481,695.671,715.676)"><stop stop-color="#ffeddc"/><stop offset="1" stop-color="#f9d8b7"/></linearGradient><linearGradient id="g36" x2="1" href="#P" gradientTransform="matrix(123.949,0,0,5.481,695.671,735.699)"><stop stop-color="#ffeddc"/><stop offset="1" stop-color="#f9d8b7"/></linearGradient><linearGradient id="g37" x2="1" href="#P" gradientTransform="matrix(123.949,0,0,5.481,695.671,755.722)"><stop stop-color="#ffeddc"/><stop offset="1" stop-color="#f9d8b7"/></linearGradient><linearGradient id="g38" x2="1" href="#P" gradientTransform="matrix(123.949,0,0,5.481,695.671,775.745)"><stop stop-color="#ffeddc"/><stop offset="1" stop-color="#f9d8b7"/></linearGradient><linearGradient id="g39" x2="1" href="#P" gradientTransform="matrix(123.949,0,0,5.481,695.671,795.768)"><stop stop-color="#ffeddc"/><stop offset="1" stop-color="#f9d8b7"/></linearGradient><linearGradient id="g40" x2="1" href="#P" gradientTransform="matrix(123.949,0,0,5.481,695.671,815.791)"><stop stop-color="#ffeddc"/><stop offset="1" stop-color="#f9d8b7"/></linearGradient><linearGradient id="g41" x2="1" href="#P" gradientTransform="matrix(123.949,0,0,5.481,695.671,835.814)"><stop stop-color="#ffeddc"/><stop offset="1" stop-color="#f9d8b7"/></linearGradient><linearGradient id="g42" x2="1" href="#P" gradientTransform="matrix(101.707,0,0,56.755,708.734,614.783)"><stop stop-color="#f4aa16"/><stop offset="1" stop-color="#f98026"/></linearGradient><linearGradient id="g43" x2="1" href="#P" gradientTransform="matrix(-101.392,-101.392,101.392,-101.392,734.474,943.61)"><stop offset=".01" stop-color="#18ccde"/><stop offset="1" stop-color="#7fdef4"/></linearGradient><linearGradient id="g44" x2="1" href="#P" gradientTransform="matrix(22.797,0,0,22.797,647.289,835.546)"><stop stop-color="#f4aa16"/><stop offset="1" stop-color="#f98026"/></linearGradient><linearGradient id="g45" x2="1" href="#P" gradientTransform="matrix(22.797,0,0,22.797,676.44,835.546)"><stop stop-color="#f4aa16"/><stop offset="1" stop-color="#f98026"/></linearGradient><linearGradient id="g46" x2="1" href="#P" gradientTransform="matrix(22.797,0,0,22.797,705.592,835.546)"><stop stop-color="#f4aa16"/><stop offset="1" stop-color="#f98026"/></linearGradient><linearGradient id="g47" x2="1" href="#P" gradientTransform="matrix(22.797,0,0,22.797,734.744,835.546)"><stop stop-color="#f4aa16"/><stop offset="1" stop-color="#f98026"/></linearGradient><linearGradient id="g48" x2="1" href="#P" gradientTransform="matrix(22.797,0,0,22.797,647.289,796.118)"><stop stop-color="#f4aa16"/><stop offset="1" stop-color="#f98026"/></linearGradient><linearGradient id="g49" x2="1" href="#P" gradientTransform="matrix(22.797,0,0,22.797,676.44,796.118)"><stop stop-color="#f4aa16"/><stop offset="1" stop-color="#f98026"/></linearGradient><linearGradient id="g50" x2="1" href="#P" gradientTransform="matrix(22.797,0,0,22.797,705.592,796.118)"><stop stop-color="#f4aa16"/><stop offset="1" stop-color="#f98026"/></linearGradient><linearGradient id="g51" x2="1" href="#P" gradientTransform="matrix(22.797,0,0,22.797,734.744,796.118)"><stop stop-color="#f4aa16"/><stop offset="1" stop-color="#f98026"/></linearGradient><linearGradient id="g52" x2="1" href="#P" gradientTransform="matrix(-147.301,-147.301,147.104,-147.104,488.861,1106.256)"><stop stop-color="#f4aa16"/><stop offset="1" stop-color="#f98026"/></linearGradient><linearGradient id="g53" x2="1" href="#P" gradientTransform="matrix(-134.992,-134.992,134.992,-134.992,662.867,922.09)"><stop stop-color="#f4aa16"/><stop offset="1" stop-color="#f98026"/></linearGradient><linearGradient id="g54" x2="1" href="#P" gradientTransform="matrix(0,-54.887,18.774,0,538.092,852.042)"><stop stop-color="#78e4ea"/><stop offset="1" stop-color="#7fdef4"/></linearGradient></defs><style>.a{display:none;fill:#fff}.b{display:none;fill:#fcfbfa}.c{fill:url(#g1)}.d{fill:url(#g2)}.e{fill:url(#g3)}.f{fill:url(#g4)}.g{fill:url(#g5)}.h{fill:url(#g6)}.i{fill:url(#g7)}.j{fill:#0d1e3a}.k{fill:url(#g8)}.l{fill:#fff}.m{fill:url(#g9)}.n{fill:#43c6c9}.o{fill:url(#g10)}.p{fill:url(#g11)}.q{opacity:.6;mix-blend-mode:multiply;fill:#dfe7e8}.r{fill:url(#g12)}.s{fill:url(#g13)}.t{fill:url(#g14)}.u{fill:url(#g15)}.v{fill:url(#g16)}.w{fill:url(#g17)}.x{fill:url(#g18)}.y{fill:url(#g19)}.z{fill:url(#g20)}.A{fill:url(#g21)}.B{fill:url(#g22)}.C{fill:url(#g23)}.D{fill:url(#g24)}.E{opacity:.3;mix-blend-mode:multiply;fill:#f48260}.F{fill:url(#g25)}.G{fill:url(#g26)}.H{fill:url(#g27)}.I{fill:url(#g28)}.J{fill:url(#g29)}.K{fill:url(#g30)}.L{fill:url(#g31)}.M{mix-blend-mode:multiply;fill:#18ccde}.N{fill:url(#g32)}.O{opacity:.3;mix-blend-mode:multiply;fill:#e04110}.P{fill:url(#g33)}.Q{fill:#f98026}.R{fill:url(#g34)}.S{fill:url(#g35)}.T{fill:url(#g36)}.U{fill:url(#g37)}.V{fill:url(#g38)}.W{fill:url(#g39)}.X{fill:url(#g40)}.Y{fill:url(#g41)}.Z{fill:url(#g42)}.a0{fill:url(#g43)}.a1{fill:url(#g44)}.a2{fill:url(#g45)}.a3{fill:url(#g46)}.a4{fill:url(#g47)}.a5{fill:url(#g48)}.a6{fill:url(#g49)}.a7{fill:url(#g50)}.a8{fill:url(#g51)}.a9{fill:#09b2ba}.aa{fill:url(#g52)}.ab{fill:url(#g53)}.ac{fill:#e04110}.ad{fill:url(#g54)}</style><path class="a" d="m1000 1000h-1000v-1000h1000z"/><path class="b" d="m1000 1000h-1000v-1000h1000z"/><path class="c" d="m825.7 420.4c-42.4-34.1-75.8-78.1-97.9-127.8-35.9-81.1-114.9-150.8-209.2-150.8-82.1 0-154.2 43.1-194.9 107.9-19.8 31.7-49 56.7-83.9 70.3-92.9 36.3-158.1 127.9-155.2 234.3 3.5 127.7 113.3 235.7 241 237.3q7.9 0.1 15.7-0.3c82.7-4.2 165.6 7.7 242.2 39.2 27.2 11.1 56.9 17.5 88.1 17.9 133.5 1.8 243.7-106.8 243.9-240.2 0.1-75.9-35-143.7-89.8-187.8z"/><path class="d" d="m847 364c16.5-14.6 16.1-42.2-1-61.8-17.2-19.6-44.5-23.7-61.1-9.2-16.6 14.6-16.2 42.2 1 61.8 17.1 19.6 44.5 23.7 61.1 9.2z"/><path class="e" d="m270.9 238.3c-10.1-15.9-37.3-16.8-60.9-1.9-23.7 14.8-34.7 39.8-24.6 55.7 10 15.9 37.3 16.8 60.9 1.9 23.6-14.8 34.6-39.8 24.6-55.7z"/><path class="f" d="m200.8 207.4c2.8 5.5-1 13.2-8.5 17.1-7.6 3.9-16.1 2.6-18.9-3-2.9-5.6 0.9-13.2 8.5-17.1 7.5-3.9 16-2.6 18.9 3z"/><path class="g" d="m782 769.9h-586v-374.9h586z"/><path class="h" d="m221.4 722.8v-302.4h535.3v302.4z"/><path class="i" d="m560.9 855.3h-143.7v-85.4h143.7z"/><path class="j" d="m560.9 788.6v-18.7h-143.7v36z"/><path class="k" d="m596 860.8v7.7c0 3-2.5 5.5-5.5 5.5h-202.9c-3 0-5.5-2.5-5.5-5.5v-7.7c0-3.1 2.5-5.6 5.5-5.6h202.9c3 0 5.5 2.5 5.5 5.6z"/><path class="l" d="m506 365.9l-46.6-0.4-96.1 184.8 9.5 35.4v137.1h108.7 108.8v-137.1l9.4-35.4z"/><path class="m" d="m549.5 722.8v-345.2c-22-6.4-40.4-10.8-43.4-11.6l-0.1-0.1-46.6-0.4c0 0-19.7 4.8-43.6 11.9v345.4h65.7z"/><path class="n" d="m506.1 366q-0.4-0.1-0.4-0.1h0.4z"/><path class="l" d="m647.4 612.5c-9.8 8.4-52.4 3.1-97.9-5.7-30.2-5.8-61.6-13.2-85.5-19.1-23.7-5.9-39.8-10.2-39.8-10.2l3.5-38.4 1.8-19.5 48.1 9 61 11.5 10.9 2.1 43.1 8.1-43.1-91.3v-81.4c34.2 9.9 77 24.3 83.9 36.5 0 0 36.8 178.7 14 198.4z"/><path class="o" d="m429.7 538.7l-54.5 11.4c2-4.6 9.5-21.3 16.5-24.4 17.2-7.6 37.2-6.4 37.2-6.4z"/><path class="p" d="m539 517.9c0 0 20-1.2 37.3 6.4 8.1 3.6 16.9 25.6 16.9 25.6l-55.5-9.7z"/><path class="l" d="m539.4 515.6l-0.8 24.5-0.7 23.8c0 0-33.2 11.5-73.9 23.8-15.5 4.6-32 9.4-48.2 13.7-44.5 11.7-86.4 19.5-96.2 11.1-22.8-19.7 14-198.4 14-198.4 6.9-12.1 48.7-26.7 82.2-36.7v82.8l-41.4 90.1 41.4-8.7 11.9-2.5 49.9-10.5z"/><path class="q" d="m537.8 563.9l-137.3 75.9v83h-27.7v-111.4c64-12.5 161.3-46.2 165-47.5z"/><path class="q" d="m590.3 722.8v-109.1c-12.7-1.7-26.6-4.1-40.8-6.9-21-4-42.5-8.8-61.8-13.4l-1.7-0.1 90.2 41.5v88z"/><path class="r" d="m520.9 495.5h-4.3c-7.2 0-13.1-5.9-13.1-13.1v-31.1h1.9v31.1c0 6.2 5 11.2 11.2 11.2h4.3z"/><path class="s" d="m507.3 451.3h-5.7c0-17.2 13.9-31.1 31.1-31.1h6v5.7h-6c-14 0-25.4 11.4-25.4 25.4z"/><path class="t" d="m521.7 499.6h-0.3c-0.6 0-1.2-0.5-1.2-1.1v-8.5c0-0.7 0.6-1.2 1.2-1.2h0.3c2.2 0 4 1.8 4 4v2.8c0 2.2-1.8 4-4 4z"/><path class="u" d="m557.9 495.5h-4.3v-1.9h4.3c6.2 0 11.2-5 11.2-11.2v-31.1h1.9v31.1c0 7.2-5.9 13.1-13.1 13.1z"/><path class="v" d="m573 451.3h-5.8c0-14-11.4-25.4-25.4-25.4h-6v-5.7h6c17.2 0 31.2 13.9 31.2 31.1z"/><path class="w" d="m552.8 499.6h0.3c0.7 0 1.2-0.5 1.2-1.1v-8.5c0-0.7-0.5-1.2-1.2-1.2h-0.3c-2.2 0-4 1.8-4 4v2.8c0 2.2 1.8 4 4 4z"/><path class="x" d="m428.3 457.8h-5.8v-43.4c0-32.7 26.6-59.3 59.3-59.3 32.8 0 59.4 26.6 59.4 59.3v9h-5.8v-9c0-29.5-24-53.6-53.6-53.6-29.5 0-53.5 24.1-53.5 53.6z"/><path class="y" d="m443.5 472.6c0 10.1-8.2 18.3-18.3 18.3-10.1 0-18.3-8.2-18.3-18.3 0-10.1 8.2-18.4 18.3-18.4 10.1 0 18.3 8.3 18.3 18.4z"/><path class="l" d="m432.6 472.6c0 4.1-3.3 7.4-7.4 7.4-4.1 0-7.4-3.3-7.4-7.4 0-4.1 3.3-7.4 7.4-7.4 4.1 0 7.4 3.3 7.4 7.4z"/><path class="z" d="m538 261.7c-2.7-4.2-6.4-3-8.7-1.6v-7.1c-6.5-2.1-16.3-16.4-16.3-16.4-29.6 11.4-58.1 0.2-58.1 0.2-8.5 11.6-16.9 18.5-16.9 18.5v4.9c-2.3-1.5-6.1-2.8-8.8 1.5-0.6 0.8-3.9-42.1 21.1-54.9 0 0 8.5-12 33.8-11.5 25.3-0.5 33.8 11.5 33.8 11.5 26.4 13.1 21.6 57.2 20.1 54.9z"/><path class="A" d="m505.5 366.2l-21.9 13.3-23.3-13.3v-51.4h45.2z"/><path class="B" d="m529.3 253v13.9 28c0 0-11.8 44.1-44.7 44.1-39.9 0-46.6-44.3-46.6-44.3v-39.4c0 0 8.4-6.9 16.9-18.5 0 0 28.5 11.2 58.1-0.2 0 0 9.8 14.3 16.3 16.4z"/><path class="C" d="m438 295.1c-10.5-6.4-12.7-27.5-8.8-33.4 2.7-4.3 6.5-3 8.8-1.5v34.5q0 0 0 0.4z"/><path class="D" d="m529.2 295q0.1-0.1 0.1-0.1v-34.8c2.3-1.4 6-2.6 8.7 1.6 3.8 5.9 1.6 26.8-8.8 33.3z"/><path class="E" d="m505.5 332.1v4.2c-9.1 7-24.8 14.9-45.2 8.3v-12.6c6.3 4.2 14.3 7 24.3 7 8.3 0 15.2-2.8 20.9-6.9z"/><path class="F" d="m483.6 320.4c-1.6 0-3.1-0.5-4.5-1.3-0.6-0.3-0.8-1.1-0.4-1.7 0.3-0.6 1.1-0.8 1.7-0.5 1 0.6 2.1 0.9 3.2 0.9 3.5 0 6.4-2.8 6.4-6.3 0-0.7 0.5-1.3 1.2-1.3 0.7 0 1.3 0.6 1.3 1.3 0 4.9-4 8.9-8.9 8.9z"/><path class="G" d="m503.2 271.9c0 1.8-1.3 3.2-3 3.2-1.6 0-2.9-1.4-2.9-3.2 0-1.7 1.3-3.1 2.9-3.1 1.7 0 3 1.4 3 3.1z"/><path class="H" d="m493.4 267.7c-0.3 0-0.6-0.1-0.8-0.3-0.4-0.5-0.4-1.2 0.1-1.6 7-6.5 14.3-0.9 14.4-0.8 0.5 0.3 0.6 1 0.2 1.5-0.4 0.5-1.1 0.6-1.6 0.2-0.2-0.2-5.9-4.4-11.5 0.7q-0.3 0.3-0.8 0.3z"/><path class="I" d="m469.8 271.9c0 1.8-1.3 3.2-2.9 3.2-1.7 0-3-1.4-3-3.2 0-1.7 1.3-3.1 3-3.1 1.6 0 2.9 1.4 2.9 3.1z"/><path class="J" d="m460.1 267.7c-0.3 0-0.6-0.1-0.8-0.3-0.5-0.5-0.4-1.2 0-1.6 7.1-6.5 14.4-0.9 14.4-0.8 0.5 0.3 0.6 1 0.2 1.5-0.3 0.5-1.1 0.6-1.5 0.2-0.3-0.2-5.9-4.4-11.6 0.7q-0.3 0.3-0.7 0.3z"/><path class="E" d="m489.6 294.2c0 2-3 4.6-6.7 4.6-3.7 0-6.7-2.6-6.7-4.6 0-2.1 3-0.6 6.7-0.6 3.7 0 6.7-1.5 6.7 0.6z"/><path class="K" d="m698.1 197.8h-120.6c-9.9 0-18 8.1-18 18v79.5q0 1.1 0.1 2.2c0.3 6.1-0.2 19.1-7.1 27.7-1.7 2.1 0.1 5.2 2.8 4.9 9.2-0.9 23.8-3.8 35-12.6 3.3-2.6 7.4-4.2 11.6-4.2h96.2c9.9 0 18-8.1 18-18v-79.5c0-9.9-8.1-18-18-18z"/><path class="l" d="m678.5 223.9h-80.8c-1.7 0-3.1 1.4-3.1 3.1v0.8c0 1.7 1.4 3.1 3.1 3.1h80.8c1.7 0 3.2-1.4 3.2-3.1v-0.8c0-1.7-1.5-3.1-3.2-3.1z"/><path class="l" d="m678.5 251.9h-80.8c-1.7 0-3.1 1.4-3.1 3.1v0.8c0 1.7 1.4 3.2 3.1 3.2h80.8c1.7 0 3.2-1.5 3.2-3.2v-0.8c0-1.7-1.5-3.1-3.2-3.1z"/><path class="l" d="m634 278.7h-36.3c-1.7 0-3.1 1.5-3.1 3.2v0.8c0 1.7 1.4 3.1 3.1 3.1h36.3c1.8 0 3.2-1.4 3.2-3.1v-0.8c0-1.7-1.4-3.2-3.2-3.2z"/><path class="L" d="m329 696.8l-108.3-22.5-108.3 22.5c0 0-7.2 169.5 108.3 180.4 115.5-10.9 108.3-180.4 108.3-180.4z"/><path class="M" d="m112.4 696.8c0 0-7.2 169.5 108.3 180.4v-202.9z"/><path class="N" d="m220.7 859.9c-39.4-4.1-66.6-30.9-80.8-79.7-8.3-28.5-9.7-56.8-9.8-69.6l90.6-18.8 90.6 18.8c-0.2 12.8-1.5 41.1-9.8 69.6-14.3 48.8-41.4 75.6-80.8 79.7z"/><path class="O" d="m220.7 859.9c39.4-4.1 66.5-30.9 80.8-79.7 8.3-28.5 9.6-56.8 9.8-69.6l-90.6-18.8 80.2 26.7c0 0 0.7 121.1-80.2 141.4z"/><path class="l" d="m254.4 768.7h-26.7v-26.6h-14.1v26.6h-26.6v14.1h26.6v26.6h14.1v-26.6h26.7z"/><path class="P" d="m858.5 647.1h-197.8v227.3h197.8z"/><path class="Q" d="m858.5 647.1h-197.8v227.3z"/><path class="l" d="m672.4 861.9v-202.3h174.3v202.3z"/><path class="R" d="m819.6 695.7h-123.9v5.4h123.9z"/><path class="S" d="m819.6 715.7h-123.9v5.5h123.9z"/><path class="T" d="m819.6 735.7h-123.9v5.5h123.9z"/><path class="U" d="m819.6 755.7h-123.9v5.5h123.9z"/><path class="V" d="m819.6 775.7h-123.9v5.5h123.9z"/><path class="W" d="m819.6 795.8h-123.9v5.4h123.9z"/><path class="X" d="m819.6 815.8h-123.9v5.5h123.9z"/><path class="Y" d="m819.6 835.8h-123.9v5.5h123.9z"/><path class="Z" d="m786.4 633.5c-3.3 0-6.2-2.1-7.4-5.2-2.9-7.9-10.5-13.5-19.4-13.5-8.9 0-16.6 5.6-19.5 13.5-1.1 3.1-4.1 5.2-7.4 5.2h-21c-1.6 0-3 1.3-3 2.9v32.2c0 1.6 1.4 2.9 3 2.9h95.8c1.6 0 2.9-1.3 2.9-2.9v-32.2c0-1.6-1.3-2.9-2.9-2.9z"/><path class="a0" d="m634.9 789.6v75.3c0 6 5 11 11.1 11h112.1c6.1 0 11-5 11-11v-75.3c0-6.1-4.9-11-11-11h-112.1c-6.1 0-11.1 4.9-11.1 11z"/><path class="a1" d="m658.7 835.5c6.3 0 11.4 5.1 11.4 11.4 0 6.3-5.1 11.4-11.4 11.4-6.3 0-11.4-5.1-11.4-11.4 0-6.3 5.1-11.4 11.4-11.4z"/><path class="l" d="m664.9 851.5l-1.6 1.6-10.8-10.7 1.6-1.6z"/><path class="a2" d="m687.8 835.5c6.3 0 11.4 5.1 11.4 11.4 0 6.3-5.1 11.4-11.4 11.4-6.3 0-11.4-5.1-11.4-11.4 0-6.3 5.1-11.4 11.4-11.4z"/><path class="l" d="m694 851.5l-1.6 1.6-10.8-10.7 1.7-1.6z"/><path class="a3" d="m717 835.5c6.3 0 11.4 5.1 11.4 11.4 0 6.3-5.1 11.4-11.4 11.4-6.3 0-11.4-5.1-11.4-11.4 0-6.3 5.1-11.4 11.4-11.4z"/><path class="l" d="m723.2 851.5l-1.6 1.6-10.8-10.7 1.6-1.6z"/><path class="a4" d="m746.1 835.5c6.3 0 11.4 5.1 11.4 11.4 0 6.3-5.1 11.4-11.4 11.4-6.3 0-11.4-5.1-11.4-11.4 0-6.3 5.1-11.4 11.4-11.4z"/><path class="l" d="m752.3 851.5l-1.6 1.6-10.7-10.7 1.6-1.6z"/><path class="a5" d="m658.7 796.1c6.3 0 11.4 5.1 11.4 11.4 0 6.3-5.1 11.4-11.4 11.4-6.3 0-11.4-5.1-11.4-11.4 0-6.3 5.1-11.4 11.4-11.4z"/><path class="l" d="m664.9 812.1l-1.6 1.6-10.8-10.8 1.6-1.6z"/><path class="a6" d="m687.8 796.1c6.3 0 11.4 5.1 11.4 11.4 0 6.3-5.1 11.4-11.4 11.4-6.3 0-11.4-5.1-11.4-11.4 0-6.3 5.1-11.4 11.4-11.4z"/><path class="l" d="m694 812.1l-1.6 1.6-10.8-10.8 1.7-1.6z"/><path class="a7" d="m717 796.1c6.3 0 11.4 5.1 11.4 11.4 0 6.3-5.1 11.4-11.4 11.4-6.3 0-11.4-5.1-11.4-11.4 0-6.3 5.1-11.4 11.4-11.4z"/><path class="l" d="m723.2 812.1l-1.6 1.6-10.8-10.8 1.6-1.6z"/><path class="a8" d="m746.1 796.1c6.3 0 11.4 5.1 11.4 11.4 0 6.3-5.1 11.4-11.4 11.4-6.3 0-11.4-5.1-11.4-11.4 0-6.3 5.1-11.4 11.4-11.4z"/><path class="l" d="m752.3 812.1l-1.6 1.6-10.7-10.8 1.6-1.6z"/><path class="a9" d="m649.2 827.2c0 0.6 0.8 1.1 1.9 1.1h103.6c1 0 1.9-0.5 1.9-1.1 0-0.6-0.9-1.1-1.9-1.1h-103.6c-1.1 0-1.9 0.5-1.9 1.1z"/><path class="aa" d="m625.5 711.5h-9.8l-9 9.3c-3.1 3.1-4.8 7.3-4.8 11.7v124.4c0 10.4 8.6 19.4 19.1 19.2 10.1-0.2 18.3-8.5 18.3-18.7v-124.9c0-4.4-1.7-8.6-4.8-11.7z"/><path class="ab" d="m615.7 659v52.5h9.8v-52.5c0-2.7-2.2-4.9-4.9-4.9-2.7 0-4.9 2.2-4.9 4.9z"/><path class="ac" d="m615.7 702v9.5h9.8v-9.5z"/><path class="l" d="m624.1 835.7v-96.3c0-1.9-1.6-3.5-3.5-3.5-2 0-3.5 1.6-3.5 3.5v96.3c-3.6 1.4-6.2 4.9-6.2 9 0 5.3 4.4 9.6 9.7 9.6 5.3 0 9.6-4.3 9.6-9.6 0-4.1-2.5-7.6-6.1-9z"/><path class="ad" d="m624.1 835.7v-37.8h-7v37.8c-3.6 1.4-6.2 4.9-6.2 9 0 5.3 4.4 9.6 9.7 9.6 5.3 0 9.6-4.3 9.6-9.6 0-4.1-2.5-7.6-6.1-9z"/></svg>