<svg width="16" height="16" viewBox="0 0 16 16" fill="none" xmlns="http://www.w3.org/2000/svg">
<g clip-path="url(#clip0_44_64)">
<path d="M8.5002 3.00004C6.8002 3.00004 5.2002 4.10004 4.7002 5.70004C4.6002 6.00004 4.3002 6.20004 4.1002 6.10004C3.8002 6.00004 3.7002 5.70004 3.7002 5.50004C4.6002 2.90004 7.4002 1.50004 10.0002 2.30004C11.7002 2.90004 13.0002 4.30004 13.3002 6.10004C15.0002 6.20004 16.2002 7.80004 16.0002 9.40004C15.8002 10.9 14.5002 12 13.0002 12H4.5002C4.2002 12 4.0002 11.8 4.0002 11.5C4.0002 11.2 4.2002 11 4.5002 11H13.0002C14.1002 11 15.0002 10.1 15.0002 9.00004C15.0002 7.90004 14.1002 7.00004 13.0002 7.00004C12.7002 7.00004 12.5002 6.80004 12.5002 6.60004C12.2002 4.50004 10.5002 3.00004 8.5002 3.00004Z" fill="#FF9103"/>
<path d="M0 7.5C0 7.2 0.2 7 0.5 7H5.5C5.8 7 6 7.2 6 7.5C6 7.8 5.8 8 5.5 8H0.5C0.2 8 0 7.8 0 7.5Z" fill="black"/>
<path d="M2 9.5C2 9.2 2.2 9 2.5 9H11.5C11.8 9 12 9.2 12 9.5C12 9.8 11.8 10 11.5 10H2.5C2.2 10 2 9.8 2 9.5Z" fill="black"/>
<path d="M0 13.5C0 13.2 0.2 13 0.5 13H9.5C9.8 13 10 13.2 10 13.5C10 13.8 9.8 14 9.5 14H0.5C0.2 14 0 13.8 0 13.5Z" fill="black"/>
</g>
<defs>
<clipPath id="clip0_44_64">
<rect width="16" height="16" fill="white"/>
</clipPath>
</defs>
</svg>
