<svg width="1000" height="667" viewBox="0 0 1000 667" fill="none" xmlns="http://www.w3.org/2000/svg">
<rect width="1000" height="667" fill="white"/>
<path d="M112.976 478.595C129.96 461.203 156.572 453.896 180.05 460.177C159.656 473.858 136.737 481.19 112.184 481.391" fill="#FF9E22"/>
<path d="M135.726 397.992C132.931 378.217 140.612 355.971 155.411 341.597C155.899 361.197 147.63 383.25 135.726 397.992Z" fill="#FF9E22"/>
<path d="M123.892 435.349C134.438 415.181 151.748 398.63 172.364 389.004C166.187 411.772 146.722 430.399 123.711 435.56" fill="#FF9E22"/>
<path d="M121.441 442.556C133.379 442.891 145.46 442.47 157.005 439.414C168.551 436.358 179.608 430.483 187.291 421.334C164.067 421.36 140.897 428.437 121.62 441.393" fill="#FF9E22"/>
<path d="M127.5 418.815C121.44 396.093 111.443 380.374 93.5923 367.641C92.2417 378.697 94.9577 390.204 101.108 399.488C107.26 408.771 116.796 415.755 127.5 418.815Z" fill="#FF9E22"/>
<path d="M82.439 458.001C82.1257 444.797 90.6324 431.821 102.862 426.848C101.87 438.583 92.6564 452.157 82.439 458.001Z" fill="#FF9E22"/>
<path d="M76.7346 438.843C75.3786 419.862 61.8986 402.301 43.9199 396.093C48.0426 415.081 59.0159 430.887 76.7346 438.843Z" fill="#FF9E22"/>
<path d="M85.3295 472.842C81.1188 466.816 74.2495 463.069 67.1415 461.208C60.0335 459.347 52.6055 459.183 45.2588 459.028C55.1695 469.938 70.0495 476.138 84.7708 475.492" fill="#FF9E22"/>
<path d="M93.863 521.274C80.619 517.184 65.859 518.242 53.3337 524.178C40.8084 530.114 30.6404 540.872 25.415 553.715C50.279 548.994 74.8137 537.946 93.863 521.274Z" fill="#FF9E22"/>
<path d="M121.151 504.441C117.02 516.657 117.814 531.422 126.995 541.949C130.731 529.415 128.523 515.244 121.151 504.441Z" fill="#FF9E22"/>
<path d="M137.278 497.657C138.428 513.363 148.465 528.116 162.648 534.946C163.352 535.285 164.168 535.61 164.89 535.314C166.009 534.858 166.112 533.331 165.973 532.13C164.176 516.481 152.586 501.345 137.278 497.657Z" fill="#FF9E22"/>
<path d="M147.814 496.069C154.798 503.62 164.984 508.105 175.266 508.157C185.549 508.209 195.78 503.829 202.841 496.349C185.349 494.435 165.168 493.158 147.814 496.069Z" fill="#FF9E22"/>
<path d="M150.434 356.173C150.444 356.177 150.39 356.35 150.274 356.685C150.143 357.048 149.966 357.539 149.74 358.164C149.246 359.493 148.536 361.397 147.63 363.831C146.688 366.282 145.603 369.305 144.344 372.816C143.711 374.571 143.035 376.447 142.318 378.434C141.627 380.434 140.899 382.547 140.134 384.764C137.035 393.625 133.594 404.262 129.879 416.104C126.232 427.967 122.4 441.064 118.632 454.882C114.914 468.718 111.619 481.964 108.812 494.055C106.087 506.164 103.742 517.096 102.048 526.328C101.614 528.634 101.199 530.829 100.807 532.908C100.454 534.99 100.119 536.956 99.8069 538.796C99.1735 542.471 98.6309 545.637 98.2669 548.235C97.8722 550.803 97.5642 552.81 97.3495 554.212C97.2415 554.869 97.1562 555.383 97.0949 555.763C97.0335 556.113 96.9962 556.29 96.9855 556.289C96.9735 556.287 96.9882 556.106 97.0269 555.754C97.0735 555.371 97.1362 554.853 97.2162 554.193C97.4015 552.787 97.6682 550.774 98.0095 548.197C98.3349 545.59 98.8402 542.416 99.4389 538.735C99.7362 536.891 100.052 534.922 100.388 532.834C100.766 530.752 101.164 528.551 101.583 526.242C103.218 516.99 105.516 506.042 108.211 493.916C110.986 481.809 114.266 468.55 117.986 454.706C121.756 440.879 125.608 427.779 129.29 415.92C133.039 404.081 136.528 393.454 139.686 384.608C140.467 382.395 141.211 380.287 141.916 378.29C142.651 376.308 143.343 374.438 143.992 372.686C145.284 369.186 146.406 366.175 147.386 363.738C148.343 361.322 149.091 359.433 149.614 358.115C149.866 357.499 150.063 357.016 150.208 356.66C150.347 356.334 150.423 356.169 150.434 356.173Z" fill="#263238"/>
<path d="M54.3601 406.23C54.3681 406.222 54.4707 406.318 54.6614 406.514C54.8747 406.738 55.1507 407.029 55.4974 407.394C56.2281 408.172 57.2867 409.338 58.6067 410.875C61.2467 413.947 64.9734 418.505 68.9041 424.612C72.8361 430.701 76.8667 438.458 79.6721 447.661C82.5574 456.836 84.3481 467.266 86.1307 478.166C89.6867 499.986 94.0507 519.529 97.2094 533.665C98.8014 540.698 100.093 546.405 100.997 550.4C101.428 552.345 101.765 553.872 102.005 554.956C102.108 555.45 102.188 555.842 102.252 556.145C102.304 556.413 102.325 556.552 102.313 556.554C102.303 556.557 102.259 556.423 102.185 556.159C102.107 555.861 102.004 555.474 101.875 554.985C101.605 553.908 101.227 552.391 100.744 550.459C99.7907 546.474 98.4281 540.785 96.7481 533.771C93.4707 519.66 89.0307 500.117 85.4694 478.274C83.6867 467.371 81.9187 456.976 79.0814 447.843C76.3241 438.685 72.3681 430.965 68.5027 424.866C64.6401 418.752 60.9787 414.16 58.4054 411.043C57.1174 409.482 56.0907 408.291 55.3934 407.484C55.0667 407.101 54.8081 406.795 54.6067 406.559C54.4361 406.348 54.3507 406.238 54.3601 406.23Z" fill="#263238"/>
<path d="M153.04 495.326C153.041 495.349 152.824 495.389 152.409 495.442C151.918 495.497 151.321 495.562 150.598 495.642C150.196 495.682 149.76 495.725 149.29 495.77C148.809 495.842 148.293 495.92 147.744 496.002C146.634 496.167 145.368 496.329 143.989 496.636C143.294 496.775 142.57 496.919 141.818 497.068C141.07 497.258 140.294 497.454 139.492 497.658C137.873 498.023 136.2 498.617 134.417 499.155C130.901 500.389 127.114 501.975 123.342 504.037C119.582 506.128 116.254 508.537 113.412 510.938C112.032 512.187 110.702 513.356 109.602 514.597C108.425 515.766 107.47 516.978 106.588 518.078C105.658 519.141 105.01 520.247 104.356 521.155C103.692 522.061 103.214 522.899 102.828 523.588C102.458 524.214 102.152 524.73 101.9 525.156C101.681 525.511 101.556 525.693 101.534 525.683C101.513 525.672 101.598 525.471 101.78 525.094C102.002 524.651 102.273 524.112 102.601 523.46C102.954 522.748 103.404 521.883 104.042 520.951C104.673 520.014 105.3 518.881 106.214 517.788C107.081 516.659 108.025 515.416 109.198 514.218C110.294 512.948 111.624 511.749 113.009 510.474C115.861 508.018 119.218 505.565 123.02 503.453C126.833 501.368 130.665 499.783 134.224 498.57C136.028 498.042 137.721 497.466 139.358 497.12C140.169 496.928 140.954 496.743 141.71 496.564C142.472 496.428 143.204 496.297 143.905 496.172C145.298 495.893 146.578 495.762 147.698 495.632C148.253 495.569 148.773 495.509 149.26 495.453C149.733 495.427 150.173 495.404 150.578 495.382C151.306 495.351 151.909 495.327 152.404 495.307C152.82 495.297 153.04 495.303 153.04 495.326Z" fill="#263238"/>
<path d="M158.021 406.649C158.052 406.683 157.601 407.114 156.761 407.862C155.812 408.685 154.605 409.734 153.161 410.987C150.102 413.603 145.846 417.182 141.12 421.102C136.392 425.024 132.088 428.546 128.952 431.069C127.454 432.256 126.201 433.248 125.217 434.029C124.326 434.716 123.82 435.079 123.79 435.043C123.761 435.007 124.213 434.576 125.054 433.826C126.004 433.003 127.212 431.954 128.656 430.702C131.714 428.086 135.968 424.508 140.694 420.589C145.418 416.669 149.72 413.15 152.856 410.628C154.354 409.441 155.608 408.447 156.592 407.666C157.484 406.977 157.992 406.614 158.021 406.649Z" fill="#263238"/>
<path d="M162.322 429.797C162.374 429.975 153.19 432.846 141.811 436.21C130.428 439.574 121.162 442.158 121.11 441.981C121.058 441.803 130.239 438.933 141.622 435.568C153.002 432.204 162.27 429.62 162.322 429.797Z" fill="#263238"/>
<path d="M128.411 420.582C128.371 420.606 128.035 420.134 127.463 419.263C126.816 418.277 126.006 417.042 125.042 415.572C122.988 412.463 120.074 408.224 116.627 403.708C113.175 399.196 109.854 395.264 107.406 392.456C106.248 391.134 105.274 390.023 104.498 389.136C103.812 388.35 103.448 387.899 103.482 387.869C103.515 387.837 103.942 388.226 104.687 388.958C105.435 389.688 106.484 390.774 107.756 392.141C110.3 394.875 113.691 398.773 117.158 403.304C120.618 407.837 123.483 412.138 125.439 415.318C126.418 416.91 127.183 418.212 127.684 419.128C128.191 420.042 128.451 420.558 128.411 420.582Z" fill="#263238"/>
<path d="M96.5165 433.43C96.5965 433.487 95.7338 434.817 94.3618 436.976C92.9898 439.133 91.1285 442.134 89.1991 445.521C87.2725 448.912 85.6458 452.046 84.4938 454.33C83.3405 456.612 82.6391 458.033 82.5485 457.994C82.4698 457.96 83.0178 456.469 84.0671 454.127C85.1138 451.784 86.6831 448.599 88.6191 445.192C90.5564 441.787 92.4911 438.811 93.9698 436.714C95.4458 434.613 96.4471 433.379 96.5165 433.43Z" fill="#263238"/>
<path d="M85.604 473.474C85.556 473.565 83.8053 472.708 80.9373 471.417C78.0706 470.124 74.0666 468.438 69.5413 466.851C65.0133 465.269 60.832 464.088 57.784 463.31C54.7373 462.53 52.8346 462.107 52.8546 462.006C52.8626 461.96 53.3493 462.014 54.2213 462.148C55.0947 462.279 56.3506 462.517 57.8933 462.849C60.98 463.512 65.208 464.627 69.7613 466.218C74.312 467.815 78.3107 469.581 81.1373 470.989C82.552 471.692 83.6813 472.289 84.4453 472.732C85.2133 473.171 85.6253 473.433 85.604 473.474Z" fill="#263238"/>
<path d="M94.1942 521.347C94.1996 521.37 94.0036 521.435 93.6276 521.539C93.1729 521.655 92.6289 521.794 91.9742 521.961C90.4262 522.318 88.3636 522.794 85.8662 523.371C80.7169 524.569 73.5436 526.064 65.9169 528.639C58.2876 531.237 51.7436 534.54 47.3036 537.387C45.0796 538.805 43.3449 540.056 42.1756 540.958C41.0009 541.855 40.3609 542.367 40.3262 542.326C40.3116 542.308 40.4529 542.159 40.7369 541.891C41.0249 541.628 41.4382 541.224 42.0129 540.754C43.1369 539.786 44.8382 538.468 47.0462 536.988C51.4502 534.019 58.0222 530.618 65.6996 528.004C73.3889 525.409 80.5902 523.986 85.7676 522.907C88.2849 522.414 90.3609 522.009 91.9209 521.703C93.3756 521.435 94.1849 521.302 94.1942 521.347Z" fill="#263238"/>
<path d="M125.26 533.148C125.077 533.175 123.984 526.73 122.817 518.754C121.65 510.775 120.853 504.288 121.037 504.263C121.22 504.236 122.313 510.679 123.48 518.658C124.645 526.633 125.442 533.121 125.26 533.148Z" fill="#263238"/>
<path d="M157.602 521.398C157.525 521.455 156.437 520.111 154.688 517.935C152.94 515.758 150.518 512.758 147.78 509.497C145.04 506.237 142.504 503.333 140.661 501.236C138.82 499.138 137.684 497.834 137.753 497.768C137.786 497.736 138.114 498.02 138.68 498.561C139.246 499.102 140.042 499.906 141.009 500.916C142.944 502.935 145.544 505.798 148.292 509.067C151.036 512.336 153.406 515.391 155.062 517.646C155.89 518.773 156.545 519.696 156.98 520.347C157.416 520.998 157.64 521.37 157.602 521.398Z" fill="#263238"/>
<path d="M72.0107 551.409V567.398H76.0067L90.2121 612.258H121.713L135.475 567.842L140.803 567.398V551.409H72.0107Z" fill="#263238"/>
<path d="M138.138 567.842C138.138 568.028 124.228 568.177 107.073 568.177C89.9115 568.177 76.0049 568.028 76.0049 567.842C76.0049 567.658 89.9115 567.508 107.073 567.508C124.229 567.509 138.138 567.658 138.138 567.842Z" fill="#455A64"/>
<path d="M160.796 464.995C160.806 465.04 160.086 465.232 158.778 465.541C157.359 465.883 155.496 466.332 153.248 466.873C148.588 468.028 142.19 469.781 135.247 472.113C128.306 474.453 122.147 476.925 117.736 478.823C115.618 479.75 113.863 480.519 112.526 481.104C111.298 481.65 110.608 481.931 110.588 481.89C110.568 481.849 111.219 481.487 112.414 480.87C113.607 480.247 115.359 479.397 117.546 478.391C121.916 476.378 128.07 473.827 135.034 471.48C141.999 469.14 148.44 467.453 153.139 466.414C155.488 465.893 157.398 465.511 158.724 465.286C160.051 465.055 160.787 464.95 160.796 464.995Z" fill="#263238"/>
<path d="M127.68 592.754C127.68 592.938 117.921 593.088 105.885 593.088C93.8452 593.088 84.0879 592.939 84.0879 592.754C84.0879 592.568 93.8452 592.419 105.885 592.419C117.921 592.419 127.68 592.569 127.68 592.754Z" fill="#FAFAFA"/>
<path d="M128.905 589.045C128.905 589.23 118.563 589.38 105.808 589.38C93.048 589.38 82.708 589.23 82.708 589.045C82.708 588.861 93.048 588.71 105.808 588.71C118.564 588.712 128.905 588.861 128.905 589.045Z" fill="#FAFAFA"/>
<path d="M911.395 611.277V183.291H906.103V611.367L862.321 614.661H906.103H911.395H955.175L911.395 611.277Z" fill="#EBEBEB"/>
<path d="M878.518 146L858.853 233.92H958.646L936.199 146.268L878.518 146Z" fill="#E0E0E0"/>
<path d="M896.804 269.547C896.576 269.547 896.417 258.756 896.446 245.448C896.475 232.136 896.684 221.348 896.912 221.348C897.14 221.348 897.3 232.138 897.271 245.45C897.242 258.758 897.032 269.548 896.804 269.547Z" fill="#E0E0E0"/>
<path d="M896.759 269.386C896.749 269.278 897.473 269.359 897.789 270.281C897.923 270.708 897.951 271.331 897.533 271.886C897.116 272.459 896.243 272.633 895.564 272.365C894.875 272.127 894.324 271.428 894.379 270.72C894.421 270.026 894.848 269.57 895.227 269.332C896.065 268.839 896.668 269.247 896.592 269.323C896.563 269.443 896.064 269.346 895.572 269.803C895.337 270.019 895.123 270.373 895.14 270.729C895.143 271.079 895.421 271.427 895.851 271.589C896.283 271.744 896.721 271.662 896.949 271.397C897.195 271.137 897.26 270.73 897.223 270.413C897.145 269.746 896.703 269.495 896.759 269.386Z" fill="#E0E0E0"/>
<path d="M338.997 82.0747L353.248 127.175H342.932L338.383 111.623L338.997 82.0747Z" fill="#EBEBEB"/>
<path d="M367.781 127.133H154.981V139.859H367.781V127.133Z" fill="#E0E0E0"/>
<path d="M194.931 137.072H184.637V156.607H194.931V137.072Z" fill="#E0E0E0"/>
<path d="M327.8 137.072H317.505V156.607H327.8V137.072Z" fill="#E0E0E0"/>
<path d="M162.211 68.1369C162.211 68.1369 152.66 75.4166 161.811 85.0347C161.967 85.1988 162.189 85.2922 162.416 85.2908L245.856 84.8039C245.856 84.8039 252.981 76.8079 247.069 67.594L162.211 68.1369Z" fill="#EBEBEB"/>
<path d="M227.414 75.7355C227.414 75.8289 217.023 75.9036 204.21 75.9036C191.391 75.9036 181.003 75.8275 181.003 75.7355C181.003 75.6421 191.391 75.5674 204.21 75.5674C217.024 75.5661 227.414 75.6421 227.414 75.7355Z" fill="#E0E0E0"/>
<path d="M214.434 78.7543C214.434 78.8476 209.549 78.9223 203.525 78.9223C197.498 78.9223 192.614 78.8463 192.614 78.7543C192.614 78.6609 197.498 78.5862 203.525 78.5862C209.55 78.5862 214.434 78.6622 214.434 78.7543Z" fill="#E0E0E0"/>
<path d="M235.945 84.5359C235.89 84.5212 236.129 83.5767 236.386 82.0306C236.646 80.4859 236.888 78.3288 236.868 75.9396C236.842 73.5491 236.561 71.3973 236.27 69.8579C235.982 68.3171 235.726 67.378 235.781 67.362C235.804 67.3553 235.889 67.5847 236.024 68.0049C236.162 68.4238 236.329 69.0415 236.504 69.8112C236.856 71.3493 237.178 73.521 237.204 75.9369C237.224 78.3515 236.942 80.5285 236.62 82.0746C236.46 82.8484 236.305 83.4673 236.173 83.8889C236.048 84.3118 235.968 84.5425 235.945 84.5359Z" fill="#E0E0E0"/>
<path d="M242.172 67.4887C242.192 67.478 242.324 67.6941 242.544 68.0956C242.657 68.2944 242.788 68.5439 242.914 68.8427C243.045 69.1401 243.209 69.475 243.34 69.8632C243.638 70.6276 243.912 71.5694 244.134 72.6339C244.338 73.7011 244.481 74.891 244.498 76.1463C244.502 77.4029 244.378 78.5955 244.192 79.6654C243.986 80.7326 243.728 81.6784 243.442 82.4481C243.317 82.839 243.158 83.1765 243.033 83.4766C242.91 83.7781 242.784 84.0289 242.674 84.2304C242.461 84.6359 242.333 84.8533 242.313 84.8427C242.254 84.8147 242.72 83.9155 243.217 82.3721C243.47 81.6024 243.701 80.6646 243.886 79.612C244.053 78.5555 244.165 77.3843 244.162 76.149C244.145 74.915 244.016 73.7451 243.83 72.6926C243.628 71.6427 243.382 70.7089 243.117 69.9446C242.594 68.4105 242.114 67.518 242.172 67.4887Z" fill="#E0E0E0"/>
<path d="M175.375 84.648C175.355 84.66 175.218 84.4612 174.986 84.089C174.866 83.9049 174.73 83.6741 174.597 83.3927C174.461 83.1125 174.287 82.8017 174.151 82.4335C173.839 81.7118 173.559 80.8154 173.338 79.8002C173.137 78.781 173.006 77.6391 173.014 76.4372C173.038 75.2353 173.199 74.0974 173.427 73.0835C173.677 72.0737 173.981 71.1852 174.311 70.4729C174.457 70.1087 174.639 69.8019 174.782 69.5257C174.922 69.2483 175.066 69.0215 175.19 68.8401C175.431 68.4745 175.574 68.2798 175.594 68.2931C175.651 68.3278 175.114 69.1349 174.53 70.5676C174.233 71.2799 173.957 72.1604 173.73 73.1542C173.522 74.152 173.374 75.2659 173.35 76.4439C173.342 77.6204 173.461 78.7383 173.641 79.7415C173.842 80.7407 174.093 81.6278 174.371 82.3481C174.918 83.7929 175.433 84.6133 175.375 84.648Z" fill="#E0E0E0"/>
<path d="M166.367 86.6835C166.347 86.6955 166.196 86.4701 165.937 86.0512C165.805 85.8431 165.652 85.583 165.501 85.2668C165.348 84.9533 165.153 84.6025 164.997 84.1903C164.643 83.3819 164.313 82.38 164.043 81.2435C163.792 80.1029 163.611 78.8263 163.572 77.4762C163.549 76.1262 163.675 74.8429 163.875 73.6917C164.096 72.5444 164.38 71.5279 164.699 70.7049C164.837 70.286 165.016 69.9271 165.155 69.607C165.291 69.2841 165.432 69.0187 165.556 68.8052C165.795 68.3744 165.936 68.1422 165.956 68.1543C166.016 68.1849 165.483 69.1361 164.923 70.7849C164.637 71.608 164.381 72.6138 164.18 73.745C164 74.8803 163.887 76.1422 163.908 77.4682C163.945 78.7942 164.115 80.0495 164.344 81.1754C164.595 82.296 164.895 83.2911 165.217 84.0995C165.849 85.7244 166.425 86.6502 166.367 86.6835Z" fill="#E0E0E0"/>
<path d="M242.793 110.227C242.793 110.86 242.793 126.203 242.793 126.203H211.897V110.227H242.793Z" fill="#EBEBEB"/>
<path d="M143.006 118.363C143.012 118.505 143.018 118.645 143.025 118.786C143.276 123.621 147.378 127.359 152.216 127.359H244.233V126.203H222.39C217.981 126.203 214.406 122.627 214.406 118.215C214.406 113.804 217.981 110.227 222.39 110.227H244.234V108.531L152.189 108.841C146.993 108.859 142.817 113.169 143.006 118.363Z" fill="#E0E0E0"/>
<path d="M242.793 118.429C242.793 118.522 236.44 118.597 228.605 118.597C220.768 118.597 214.416 118.521 214.416 118.429C214.416 118.335 220.768 118.261 228.605 118.261C236.441 118.261 242.793 118.335 242.793 118.429Z" fill="#E0E0E0"/>
<path d="M242.347 122.028C242.347 122.121 236.336 122.196 228.921 122.196C221.505 122.196 215.496 122.121 215.496 122.028C215.496 121.935 221.505 121.86 228.921 121.86C236.336 121.86 242.347 121.936 242.347 122.028Z" fill="#E0E0E0"/>
<path d="M242.793 125.32C242.793 125.414 237.389 125.488 230.724 125.488C224.056 125.488 218.653 125.412 218.653 125.32C218.653 125.227 224.057 125.152 230.724 125.152C237.389 125.152 242.793 125.227 242.793 125.32Z" fill="#E0E0E0"/>
<path d="M242.793 115.194C242.793 115.287 236.57 115.362 228.896 115.362C221.218 115.362 214.997 115.286 214.997 115.194C214.997 115.102 221.218 115.026 228.896 115.026C236.57 115.026 242.793 115.102 242.793 115.194Z" fill="#E0E0E0"/>
<path d="M242.346 111.96C242.346 112.053 236.808 112.128 229.977 112.128C223.144 112.128 217.606 112.052 217.606 111.96C217.606 111.868 223.144 111.792 229.977 111.792C236.808 111.791 242.346 111.867 242.346 111.96Z" fill="#E0E0E0"/>
<path d="M154.156 109.11C154.207 109.162 153.258 109.882 152.202 111.436C151.148 112.963 150.072 115.442 150.102 118.306C150.139 121.172 151.274 123.625 152.363 125.126C153.455 126.654 154.422 127.351 154.372 127.404C154.36 127.419 154.115 127.257 153.708 126.913C153.302 126.57 152.751 126.025 152.171 125.266C151.011 123.772 149.803 121.264 149.764 118.309C149.734 115.354 150.88 112.819 152.006 111.299C152.567 110.526 153.104 109.966 153.503 109.615C153.902 109.262 154.144 109.095 154.156 109.11Z" fill="#F5F5F5"/>
<path d="M151.044 108.768C151.095 108.82 150.145 109.54 149.089 111.094C148.035 112.622 146.96 115.1 146.989 117.965C147.027 120.83 148.161 123.283 149.251 124.784C150.343 126.313 151.309 127.009 151.26 127.062C151.248 127.077 151.003 126.916 150.596 126.572C150.189 126.229 149.639 125.683 149.059 124.924C147.899 123.43 146.691 120.922 146.652 117.967C146.621 115.012 147.768 112.478 148.893 110.957C149.455 110.185 149.992 109.626 150.391 109.274C150.789 108.921 151.032 108.753 151.044 108.768Z" fill="#F5F5F5"/>
<path d="M213.567 109.11C213.618 109.162 212.669 109.882 211.613 111.436C210.559 112.963 209.483 115.442 209.513 118.306C209.55 121.172 210.685 123.625 211.774 125.126C212.866 126.654 213.833 127.351 213.783 127.404C213.771 127.419 213.526 127.257 213.119 126.913C212.713 126.57 212.162 126.025 211.582 125.266C210.422 123.772 209.214 121.264 209.175 118.309C209.145 115.354 210.291 112.819 211.417 111.299C211.978 110.526 212.515 109.966 212.915 109.615C213.314 109.262 213.555 109.095 213.567 109.11Z" fill="#F5F5F5"/>
<path d="M210.457 108.768C210.509 108.82 209.558 109.54 208.502 111.094C207.448 112.622 206.373 115.1 206.402 117.965C206.44 120.83 207.574 123.283 208.664 124.784C209.756 126.313 210.722 127.009 210.673 127.062C210.661 127.077 210.416 126.916 210.009 126.572C209.602 126.229 209.052 125.683 208.472 124.924C207.312 123.43 206.104 120.922 206.065 117.967C206.034 115.012 207.181 112.478 208.306 110.957C208.868 110.185 209.405 109.626 209.804 109.274C210.202 108.921 210.445 108.753 210.457 108.768Z" fill="#F5F5F5"/>
<path d="M164.628 120.609C164.598 118.443 164.569 116.278 164.54 114.113C164.532 113.548 164.521 112.966 164.312 112.44C164.101 111.915 163.642 111.449 163.08 111.4C162.266 111.04 160.998 111.719 160.432 112.655C159.864 113.593 159.801 114.743 159.793 115.838C159.781 117.552 159.864 119.265 160.042 120.97C160.128 121.78 160.241 122.612 160.646 123.319C161.052 124.026 161.817 124.585 162.628 124.51C163.432 124.437 164.078 123.759 164.362 123.004C164.645 122.247 164.638 121.417 164.628 120.609Z" fill="#F5F5F5"/>
<path d="M200.365 118.741C200.365 118.834 193.713 118.909 185.509 118.909C177.302 118.909 170.651 118.833 170.651 118.741C170.651 118.649 177.302 118.573 185.509 118.573C193.713 118.573 200.365 118.647 200.365 118.741Z" fill="#F5F5F5"/>
<path d="M158.464 108.47L158.293 93.3281H166.532L166.816 108.47H158.464Z" fill="#F5F5F5"/>
<path d="M166.045 96.0216C166.045 96.115 164.33 96.1897 162.217 96.1897C160.102 96.1897 158.389 96.1136 158.389 96.0216C158.389 95.9296 160.102 95.8535 162.217 95.8535C164.331 95.8535 166.045 95.9282 166.045 96.0216Z" fill="#E0E0E0"/>
<path d="M166.045 98.3588C166.045 98.4521 164.33 98.5268 162.217 98.5268C160.102 98.5268 158.389 98.4508 158.389 98.3588C158.389 98.2667 160.102 98.1907 162.217 98.1907C164.331 98.1907 166.045 98.2654 166.045 98.3588Z" fill="#E0E0E0"/>
<path d="M166.045 100.696C166.045 100.789 164.33 100.864 162.217 100.864C160.102 100.864 158.389 100.788 158.389 100.696C158.389 100.603 160.102 100.528 162.217 100.528C164.331 100.528 166.045 100.603 166.045 100.696Z" fill="#E0E0E0"/>
<path d="M166.045 103.033C166.045 103.126 164.33 103.201 162.217 103.201C160.102 103.201 158.389 103.125 158.389 103.033C158.389 102.94 160.102 102.865 162.217 102.865C164.331 102.865 166.045 102.94 166.045 103.033Z" fill="#E0E0E0"/>
<path d="M166.045 105.37C166.045 105.464 164.33 105.538 162.217 105.538C160.102 105.538 158.389 105.462 158.389 105.37C158.389 105.277 160.102 105.202 162.217 105.202C164.331 105.202 166.045 105.277 166.045 105.37Z" fill="#E0E0E0"/>
<path d="M157.855 92.9268H249.167C250.294 97.9413 250.135 103.46 249.167 109.295H158.246V108.181H163.802C165.251 108.181 166.426 107.006 166.426 105.556V96.4979C166.426 95.0478 165.251 93.8726 163.802 93.8726H157.857L157.855 92.9268Z" fill="#EBEBEB"/>
<path d="M179.444 101.12H180.968C181.025 101.12 181.08 101.133 181.132 101.161C181.241 101.224 181.296 101.32 181.296 101.448C181.296 101.486 181.292 101.519 181.284 101.546C181.253 101.675 181.22 101.804 181.181 101.935C180.968 102.631 180.65 103.208 180.226 103.66C179.806 104.108 179.373 104.332 178.928 104.332C178.868 104.332 178.806 104.328 178.744 104.32C178.329 104.258 177.982 104.007 177.708 103.569C177.404 103.081 177.253 102.469 177.253 101.734C177.253 101.301 177.313 100.867 177.434 100.426C177.628 99.7153 177.93 99.127 178.34 98.6601C178.768 98.1745 179.225 97.9304 179.712 97.9304C179.917 97.9304 180.109 97.9744 180.289 98.0625C180.682 98.2559 180.98 98.6268 181.178 99.175C181.204 99.2244 181.214 99.2751 181.214 99.3271C181.214 99.3845 181.2 99.4392 181.169 99.4912C181.104 99.6006 181.009 99.6539 180.886 99.6539C180.853 99.6539 180.82 99.6486 180.784 99.6379C180.677 99.6019 180.608 99.5339 180.574 99.4325L180.558 99.4032C180.509 99.2698 180.448 99.1497 180.374 99.0416C180.174 98.7508 179.932 98.6068 179.645 98.6068C179.478 98.6068 179.31 98.6681 179.141 98.7908C178.821 99.0203 178.544 99.4192 178.309 99.9874C178.069 100.572 177.948 101.144 177.948 101.707C177.948 102.247 178.036 102.698 178.21 103.058C178.405 103.457 178.669 103.656 179.005 103.656C179.232 103.653 179.477 103.505 179.742 103.212C180.068 102.848 180.328 102.375 180.525 101.796C179.824 101.796 179.458 101.792 179.432 101.784C179.194 101.746 179.072 101.623 179.068 101.416C179.073 101.375 179.084 101.339 179.101 101.305C179.16 101.181 179.273 101.12 179.444 101.12Z" fill="#FAFAFA"/>
<path d="M184.627 98.1453C184.641 98.1746 184.654 98.212 184.669 98.256C184.733 98.4801 185.091 100.368 185.743 103.917C185.754 103.944 185.758 103.972 185.758 103.999C185.758 104.056 185.743 104.112 185.713 104.167C185.647 104.279 185.557 104.335 185.441 104.335C185.425 104.335 185.407 104.334 185.389 104.331C185.258 104.308 185.174 104.234 185.137 104.106L184.774 102.225H182.898L181.995 104.111C181.987 104.132 181.978 104.152 181.966 104.174C181.881 104.28 181.786 104.334 181.683 104.334C181.619 104.334 181.561 104.316 181.505 104.28C181.405 104.212 181.355 104.12 181.355 104.006C181.355 103.974 181.362 103.94 181.377 103.907C181.433 103.775 181.526 103.568 181.657 103.287C182.969 100.418 183.754 98.7269 184.011 98.2106C184.086 98.0612 184.191 97.9839 184.329 97.9812C184.458 97.9839 184.558 98.0386 184.627 98.1453ZM184.218 99.4099L183.203 101.546H184.635L184.218 99.4099Z" fill="#FAFAFA"/>
<path d="M189.72 104.334H186.968C186.905 104.334 186.845 104.316 186.792 104.28C186.713 104.223 186.661 104.108 186.636 103.936V103.932C186.636 103.82 186.889 101.942 187.396 98.2946C187.398 98.2533 187.404 98.2119 187.412 98.1746C187.469 98.0398 187.568 97.9731 187.708 97.9731C187.762 97.9731 187.813 97.9852 187.86 98.0105C187.974 98.0705 188.032 98.1679 188.032 98.3013C188.008 98.5494 187.945 99.0644 187.845 99.8461C187.53 102.253 187.366 103.524 187.352 103.656H189.69C189.753 103.656 189.812 103.668 189.866 103.689C190.006 103.747 190.076 103.849 190.076 103.996C190.076 104.032 190.07 104.068 190.06 104.103C190.013 104.23 189.9 104.306 189.72 104.334Z" fill="#FAFAFA"/>
<path d="M193.484 98.1454C193.497 98.1748 193.51 98.2121 193.525 98.2561C193.589 98.4803 193.948 100.368 194.6 103.918C194.61 103.944 194.614 103.972 194.614 103.999C194.614 104.056 194.6 104.112 194.569 104.167C194.504 104.279 194.413 104.335 194.297 104.335C194.281 104.335 194.264 104.334 194.245 104.331C194.114 104.308 194.03 104.234 193.993 104.106L193.63 102.225H191.754L190.853 104.112C190.845 104.134 190.836 104.154 190.824 104.175C190.738 104.282 190.644 104.335 190.541 104.335C190.477 104.335 190.418 104.318 190.362 104.282C190.262 104.214 190.213 104.122 190.213 104.007C190.213 103.975 190.22 103.942 190.234 103.908C190.29 103.776 190.384 103.569 190.513 103.288C191.825 100.42 192.61 98.7284 192.868 98.2121C192.941 98.0627 193.048 97.9853 193.184 97.9827C193.314 97.984 193.414 98.0387 193.484 98.1454ZM193.074 99.41L192.06 101.546H193.492L193.074 99.41Z" fill="#FAFAFA"/>
<path d="M197.868 101.394C198.083 101.99 198.248 102.45 198.365 102.773C198.649 103.557 198.791 103.971 198.791 104.015C198.791 104.075 198.773 104.13 198.737 104.182C198.672 104.282 198.58 104.332 198.463 104.332C198.34 104.33 198.249 104.256 198.191 104.111C198.169 104.052 198.152 104.006 198.139 103.972C197.99 103.629 197.743 102.982 197.403 102.031L195.845 104.16C195.759 104.272 195.663 104.33 195.555 104.332C195.496 104.332 195.439 104.318 195.385 104.287C195.281 104.224 195.229 104.132 195.229 104.012C195.229 103.986 195.231 103.963 195.234 103.943C195.242 103.893 195.296 103.805 195.398 103.676C195.919 103.001 196.496 102.198 197.127 101.265C197.06 101.083 196.997 100.909 196.937 100.745C196.352 99.1751 196.06 98.3627 196.06 98.3107C196.06 98.2506 196.074 98.1946 196.102 98.1426C196.162 98.0345 196.249 97.9785 196.368 97.9785C196.511 97.9812 196.612 98.0425 196.675 98.1599L197.593 100.639L199.429 98.1373C199.508 98.0359 199.605 97.9839 199.721 97.9812C199.776 97.9812 199.825 97.9932 199.872 98.0185C199.979 98.0772 200.031 98.1759 200.031 98.3107C200.031 98.3574 200.019 98.4081 199.997 98.4614L197.868 101.394Z" fill="#FAFAFA"/>
<path d="M204.679 98.0024C204.731 98.0024 204.781 98.0144 204.831 98.0398C204.94 98.0998 204.999 98.1945 205.007 98.3226C204.556 101.883 204.308 103.807 204.261 104.093C204.157 104.699 203.961 105.201 203.672 105.597C203.232 106.196 202.624 106.495 201.845 106.495C201.593 106.495 201.3 106.417 200.964 106.261C200.495 106.042 200.171 105.758 199.993 105.409C199.968 105.359 199.956 105.306 199.956 105.249C199.956 105.191 199.971 105.137 200.001 105.085C200.067 104.975 200.161 104.921 200.284 104.921C200.383 104.923 200.467 104.969 200.535 105.057C200.941 105.589 201.411 105.857 201.944 105.86C202.367 105.857 202.732 105.672 203.037 105.305C203.384 104.882 203.587 104.306 203.644 103.573C203.537 103.739 203.401 103.883 203.239 104.004C202.941 104.22 202.612 104.327 202.252 104.327C202.192 104.327 202.129 104.323 202.068 104.315C201.648 104.255 201.3 104.004 201.024 103.564C200.719 103.076 200.565 102.463 200.565 101.728C200.565 101.395 200.58 101.051 200.611 100.696C200.663 100.138 200.787 99.3484 200.983 98.3226C200.988 98.2892 200.997 98.2586 201.012 98.2279C201.069 98.0771 201.168 98.0024 201.307 98.0024C201.361 98.0024 201.415 98.0171 201.467 98.0478C201.576 98.1105 201.631 98.1972 201.631 98.3093C201.631 98.4787 201.58 98.8976 201.48 99.5659C201.335 100.549 201.263 101.188 201.263 101.486C201.263 102.096 201.345 102.594 201.508 102.978C201.696 103.426 201.968 103.649 202.323 103.649C202.359 103.649 202.395 103.645 202.433 103.636C202.7 103.581 202.976 103.362 203.257 102.977C203.58 102.535 203.805 102.028 203.937 101.459L204.355 98.3199C204.36 98.2719 204.373 98.2252 204.396 98.1812C204.452 98.0625 204.548 98.0024 204.679 98.0024Z" fill="#FAFAFA"/>
<path d="M245.738 109.507C245.645 109.507 245.57 105.748 245.57 101.111C245.57 96.4724 245.646 92.7131 245.738 92.7131C245.832 92.7131 245.906 96.4724 245.906 101.111C245.906 105.748 245.832 109.507 245.738 109.507Z" fill="#F5F5F5"/>
<path d="M171.018 109.507C170.924 109.507 170.85 105.748 170.85 101.111C170.85 96.4724 170.924 92.7131 171.018 92.7131C171.111 92.7131 171.186 96.4724 171.186 101.111C171.187 105.748 171.111 109.507 171.018 109.507Z" fill="#E0E0E0"/>
<path d="M247.341 109.507C247.248 109.507 247.173 105.748 247.173 101.111C247.173 96.4724 247.249 92.7131 247.341 92.7131C247.434 92.7131 247.509 96.4724 247.509 101.111C247.509 105.748 247.433 109.507 247.341 109.507Z" fill="#F5F5F5"/>
<path d="M169.52 109.507C169.426 109.507 169.352 105.748 169.352 101.111C169.352 96.4724 169.426 92.7131 169.52 92.7131C169.613 92.7131 169.688 96.4724 169.688 101.111C169.688 105.748 169.613 109.507 169.52 109.507Z" fill="#E0E0E0"/>
<path d="M223.598 95.48L223.583 95.4507C226.076 97.4637 229.466 100.198 233.234 103.241L233.319 103.311L233.212 103.339C232.804 103.447 232.368 103.561 231.928 103.677C228.998 104.447 226.222 105.176 223.78 105.817L223.764 105.821L223.748 105.815C220.72 104.53 218.166 103.447 216.363 102.681C215.47 102.298 214.762 101.995 214.272 101.785C214.035 101.68 213.851 101.6 213.72 101.544C213.662 101.518 213.615 101.496 213.579 101.48C213.547 101.466 213.532 101.456 213.532 101.456C213.532 101.456 213.55 101.46 213.582 101.472C213.618 101.487 213.666 101.506 213.726 101.528C213.856 101.582 214.043 101.658 214.283 101.755C214.775 101.958 215.486 102.253 216.384 102.625C218.191 103.381 220.751 104.451 223.784 105.721L223.752 105.718C226.194 105.074 228.967 104.342 231.898 103.568C232.338 103.452 232.774 103.337 233.182 103.231L233.16 103.328C229.399 100.276 226.018 97.5317 223.53 95.5134L223.516 95.5027L223.515 95.4854" fill="#E0E0E0"/>
<path d="M232.362 102.029L232.888 102.523L233.595 102.371L233.286 103.025L233.65 103.649L232.932 103.559L232.451 104.098L232.316 103.387L231.656 103.094L232.29 102.748L232.362 102.029Z" fill="#E0E0E0"/>
<path d="M223.104 105.098L223.464 105.398L223.913 105.272L223.74 105.706L224 106.095L223.533 106.064L223.244 106.431L223.128 105.979L222.689 105.816L223.085 105.566L223.104 105.098Z" fill="#E0E0E0"/>
<path d="M212.879 100.901L213.452 100.937L213.807 100.485L213.95 101.041L214.488 101.239L214.004 101.547L213.983 102.121L213.54 101.755L212.988 101.911L213.199 101.378L212.879 100.901Z" fill="#E0E0E0"/>
<path d="M236.689 95.6027L237.261 95.6387L237.616 95.1865L237.759 95.7428L238.297 95.9402L237.813 96.2484L237.792 96.822L237.349 96.4565L236.797 96.6139L237.008 96.079L236.689 95.6027Z" fill="#E0E0E0"/>
<path d="M223.131 95.2264L223.496 95.2491L223.722 94.9609L223.814 95.3158L224.158 95.4412L223.848 95.6386L223.835 96.0041L223.552 95.7707L223.2 95.8707L223.335 95.5305L223.131 95.2264Z" fill="#E0E0E0"/>
<path d="M237.493 96.0043C237.492 96.0416 234.369 95.9376 230.521 95.7735C226.671 95.6081 223.552 95.4453 223.555 95.408C223.556 95.3706 226.677 95.4747 230.528 95.6388C234.376 95.8042 237.495 95.9669 237.493 96.0043Z" fill="#E0E0E0"/>
<path d="M241 92.7852H148.391C147.177 90.0318 146.88 87.4159 148.391 85.072H240.999C242.215 87.8788 242.112 90.4294 241 92.7852Z" fill="#E0E0E0"/>
<path d="M217.74 87.2759H167.566V90.0826H217.74V87.2759Z" fill="#EBEBEB"/>
<path d="M151.945 92.8266C151.917 92.8506 151.585 92.5318 151.214 91.8941C150.842 91.2605 150.47 90.2853 150.369 89.1567C150.272 88.0282 150.468 87.0023 150.724 86.3126C150.978 85.619 151.249 85.2481 151.281 85.2668C151.33 85.2921 151.138 85.699 150.95 86.3847C150.76 87.069 150.612 88.0482 150.704 89.1261C150.801 90.2039 151.118 91.1417 151.425 91.7834C151.73 92.4264 151.989 92.7919 151.945 92.8266Z" fill="#E0E0E0"/>
<path d="M153.949 92.8266C153.921 92.8506 153.589 92.5318 153.217 91.8941C152.845 91.2605 152.473 90.2853 152.372 89.1567C152.275 88.0282 152.471 87.0023 152.727 86.3126C152.981 85.619 153.252 85.2481 153.284 85.2668C153.333 85.2921 153.141 85.699 152.953 86.3847C152.763 87.069 152.615 88.0482 152.707 89.1261C152.804 90.2039 153.121 91.1417 153.428 91.7834C153.735 92.4264 153.993 92.7919 153.949 92.8266Z" fill="#E0E0E0"/>
<path d="M237.252 92.6467C237.149 92.6106 237.906 91.0045 237.904 88.8754C237.93 86.7464 237.193 85.1322 237.296 85.0975C237.356 85.0428 238.265 86.6583 238.241 88.8781C238.241 91.0965 237.312 92.7013 237.252 92.6467Z" fill="#F5F5F5"/>
<path d="M235.529 92.6279C235.428 92.6038 235.817 90.9764 235.806 88.9353C235.812 86.893 235.418 85.2668 235.518 85.2428C235.596 85.2135 236.148 86.8396 236.142 88.9353C236.154 91.0297 235.606 92.6572 235.529 92.6279Z" fill="#F5F5F5"/>
<path d="M275.443 45H338.997V127.971H275.877L275.443 45Z" fill="#E0E0E0"/>
<path d="M270.829 127.534H334.014V45.4065H270.829V127.534Z" fill="white"/>
<path d="M334.328 45.0935V127.848H270.516V45.0935H334.328ZM333.701 127.221V45.7205H271.142V127.221H333.701Z" fill="#E0E0E0"/>
<path d="M325.794 54.3167H277.419V118.654H325.794V54.3167Z" fill="white"/>
<path d="M277.323 54.3021C277.323 54.3021 277.328 54.4102 277.331 54.6143C277.332 54.825 277.336 55.1265 277.34 55.5187C277.344 56.3218 277.349 57.497 277.357 59.0231C277.367 62.0873 277.38 66.5576 277.396 72.2191C277.413 83.5327 277.439 99.5967 277.469 118.64L277.321 118.493C291.832 118.488 308.301 118.482 325.691 118.477H325.696L325.533 118.64C325.544 94.681 325.555 72.4725 325.563 54.3021L325.696 54.4355C311.077 54.4062 299.001 54.3821 290.571 54.3661C286.353 54.3515 283.049 54.3395 280.789 54.3315C279.667 54.3248 278.804 54.3194 278.213 54.3168C277.632 54.3114 277.323 54.3021 277.323 54.3021C277.323 54.3021 277.612 54.2928 278.187 54.2874C278.772 54.2834 279.625 54.2794 280.737 54.2728C282.989 54.2647 286.284 54.2527 290.488 54.2381C298.94 54.2207 311.044 54.198 325.697 54.1687H325.831V54.3034C325.839 72.4739 325.849 94.6823 325.86 118.641V118.804H325.697H325.692C308.303 118.798 291.833 118.793 277.323 118.788H277.175V118.641C277.205 99.5594 277.231 83.462 277.248 72.1243C277.265 66.4775 277.279 62.0193 277.288 58.9618C277.296 57.4477 277.301 56.2818 277.305 55.4867C277.309 55.0998 277.312 54.805 277.313 54.5982C277.317 54.3981 277.323 54.3021 277.323 54.3021Z" fill="#E0E0E0"/>
<path d="M270.683 127.535C270.645 127.508 270.975 126.98 271.536 126.146C272.097 125.312 272.892 124.173 273.803 122.939C274.715 121.705 275.576 120.614 276.22 119.841C276.865 119.069 277.288 118.613 277.323 118.641C277.359 118.67 276.999 119.177 276.401 119.984C275.735 120.882 274.941 121.952 274.064 123.134C273.185 124.314 272.391 125.383 271.723 126.281C271.115 127.078 270.72 127.56 270.683 127.535Z" fill="#E0E0E0"/>
<path d="M270.829 45.4068C270.902 45.3535 272.414 47.3024 274.208 49.7583C276.001 52.2156 277.395 54.2486 277.322 54.3019C277.25 54.3553 275.737 52.4077 273.944 49.9504C272.152 47.4945 270.757 45.4602 270.829 45.4068Z" fill="#E0E0E0"/>
<path d="M325.697 54.6288C325.63 54.5687 327.437 52.4543 329.734 49.9091C332.032 47.3625 333.948 45.3468 334.014 45.4068C334.081 45.4669 332.274 47.5799 329.977 50.1279C327.68 52.6731 325.764 54.6888 325.697 54.6288Z" fill="#E0E0E0"/>
<path d="M334.015 127.535C333.948 127.595 332.116 125.674 329.923 123.242C327.73 120.81 326.006 118.79 326.072 118.73C326.139 118.67 327.971 120.591 330.164 123.023C332.358 125.453 334.082 127.473 334.015 127.535Z" fill="#E0E0E0"/>
<path d="M279.637 118.638C279.637 118.638 284.843 102.503 287.931 100.791C291.258 98.9443 296.242 97.1568 301.518 97.1114C308.678 97.0487 312.093 97.5783 316.294 100.47C321.143 103.808 324.429 118.477 324.429 118.477" fill="#E0E0E0"/>
<path d="M294.069 70.5969C289.62 70.7957 288.533 76.772 288.836 80.1817C288.98 81.7985 289.472 83.5541 288.656 84.9574C288.079 85.9513 286.94 86.5489 286.46 87.5934C285.877 88.8621 286.44 90.3281 286.861 91.6594C287.283 92.9908 287.465 94.6716 286.403 95.5774C288.928 96.2337 291.476 96.8927 294.083 97.0261C296.689 97.1595 299.392 96.73 301.605 95.348" fill="#E0E0E0"/>
<path d="M290.893 82.5255C287.963 75.7995 291.943 71.6854 294.539 70.206C296.084 69.3243 297.923 69.1348 299.701 69.0881C301.457 69.0414 303.232 69.1148 304.932 69.5524C306.633 69.9899 308.267 70.8117 309.468 72.0936C311.603 74.3681 312.099 77.7431 311.909 80.8567C311.685 84.5239 310.644 88.1443 308.839 91.3433C308.607 91.7541 308.344 92.177 307.932 92.4051C307.519 92.6332 306.915 92.5839 306.672 92.1797" fill="#E0E0E0"/>
<path d="M300.803 105.613C303.825 105.817 306.459 103.227 306.777 98.5695L308.387 74.9044L308.277 76.5399C308.293 75.5527 307.553 74.7176 306.571 74.6162L297.197 73.6518C293.966 73.3196 291.115 75.7475 290.921 78.9904C290.705 82.5936 290.582 87.0011 291.017 89.6878C291.89 95.0905 296.033 95.7655 296.033 95.7655L295.709 99.6874C295.455 102.74 297.75 105.408 300.803 105.613Z" fill="#F5F5F5"/>
<path d="M292.718 82.0398C292.706 82.4054 293.006 82.7175 293.389 82.7375C293.77 82.7562 294.089 82.4761 294.101 82.1105C294.113 81.745 293.813 81.4315 293.431 81.4129C293.049 81.3929 292.729 81.6743 292.718 82.0398Z" fill="#E0E0E0"/>
<path d="M291.882 81.281C291.969 81.3704 292.492 80.9808 293.238 80.9808C293.982 80.9702 294.532 81.3517 294.612 81.261C294.652 81.2209 294.564 81.0569 294.325 80.8848C294.09 80.7127 293.689 80.5459 293.225 80.5486C292.761 80.5526 292.37 80.7247 292.146 80.9008C291.917 81.0769 291.84 81.2396 291.882 81.281Z" fill="#E0E0E0"/>
<path d="M299.88 82.0398C299.868 82.4054 300.168 82.7175 300.55 82.7375C300.931 82.7562 301.25 82.4761 301.262 82.1105C301.274 81.745 300.974 81.4315 300.592 81.4129C300.211 81.3929 299.892 81.6743 299.88 82.0398Z" fill="#E0E0E0"/>
<path d="M299.21 81.3983C299.297 81.489 299.821 81.0981 300.566 81.0981C301.312 81.0875 301.86 81.469 301.94 81.3769C301.98 81.3369 301.892 81.1742 301.653 81.0007C301.418 80.8287 301.017 80.6619 300.553 80.6646C300.089 80.6686 299.698 80.8407 299.474 81.0168C299.245 81.1942 299.168 81.3583 299.21 81.3983Z" fill="#E0E0E0"/>
<path d="M296.521 86.9371C296.525 86.8944 296.061 86.8157 295.309 86.7223C295.118 86.7036 294.938 86.6663 294.906 86.5355C294.861 86.3981 294.939 86.1927 295.031 85.9699C295.209 85.5084 295.395 85.0255 295.59 84.5185C296.366 82.4522 296.927 80.7513 296.843 80.7206C296.759 80.69 296.063 82.3414 295.287 84.4078C295.101 84.9174 294.922 85.403 294.753 85.8685C294.682 86.0847 294.558 86.3314 294.657 86.6169C294.709 86.7597 294.849 86.8624 294.97 86.8944C295.093 86.9317 295.199 86.9331 295.294 86.9384C296.049 86.9771 296.518 86.9798 296.521 86.9371Z" fill="#E0E0E0"/>
<path d="M296.031 95.7654C296.031 95.7654 299.666 95.9895 303.261 93.8137C303.261 93.8137 301.333 97.5583 295.925 97.0673L296.031 95.7654Z" fill="#EBEBEB"/>
<path d="M296.841 88.7338C297.108 88.3777 297.577 88.1816 298.044 88.2309C298.368 88.2643 298.694 88.4204 298.892 88.6832C299.089 88.946 299.132 89.3208 298.953 89.5716C298.753 89.8557 298.333 89.9224 297.976 89.8224C297.62 89.7223 297.313 89.4889 297.021 89.2568C296.941 89.1927 296.858 89.1247 296.808 89.0367C296.757 88.9486 296.746 88.8326 296.808 88.7592" fill="#E0E0E0"/>
<path d="M298.716 87.4466C298.594 87.4399 298.596 88.2497 297.904 88.826C297.214 89.4049 296.352 89.3155 296.345 89.4289C296.334 89.4796 296.537 89.5863 296.901 89.5943C297.258 89.605 297.78 89.4889 298.202 89.1368C298.624 88.7833 298.804 88.3124 298.83 87.9802C298.862 87.6427 298.772 87.4426 298.716 87.4466Z" fill="#E0E0E0"/>
<path d="M298.87 80.0935C298.945 80.2962 299.689 80.1975 300.564 80.3002C301.441 80.3856 302.146 80.6391 302.262 80.4577C302.314 80.371 302.19 80.1802 301.905 79.9841C301.622 79.7893 301.17 79.6039 300.645 79.5465C300.12 79.4905 299.64 79.5759 299.321 79.7066C299 79.8374 298.838 79.9961 298.87 80.0935Z" fill="#E0E0E0"/>
<path d="M292.149 79.1212C292.281 79.2906 292.793 79.1132 293.412 79.1025C294.029 79.0705 294.553 79.2133 294.672 79.0358C294.724 78.9491 294.641 78.7797 294.412 78.621C294.186 78.4622 293.809 78.3328 293.385 78.3462C292.961 78.3608 292.593 78.5156 292.38 78.689C292.162 78.8638 292.092 79.0385 292.149 79.1212Z" fill="#E0E0E0"/>
<path d="M295.137 69.8846C300.369 66.9405 305.989 68.9975 310.223 73.2556C311.156 74.1934 311.999 75.298 313.215 75.8196C314.528 76.3839 316.28 76.2918 317.061 77.4898C317.975 78.8891 316.744 80.8648 317.411 82.3989C318.024 83.8116 319.96 84.2184 320.681 85.5791C321.247 86.6477 320.893 87.943 320.627 89.1222C320.359 90.3015 320.259 91.7169 321.145 92.5399L309.885 96.8181C309.381 97.0102 308.832 97.0955 308.303 96.9902C306.704 96.6713 306.588 95.1906 306.737 93.9647C306.849 93.0495 307.049 92.0757 306.663 91.238C306.207 90.2481 305.043 89.7159 304.632 88.7074C303.907 86.9251 305.921 85.0682 305.679 83.1579C305.527 81.9573 304.495 81.0395 303.387 80.5566C302.277 80.0737 301.057 79.9163 299.905 79.5468C297.249 78.697 295.064 76.2638 293.929 73.5545C293.356 72.1951 293.86 70.6223 295.137 69.8846Z" fill="#E0E0E0"/>
<path d="M810.083 47.8401H710.043V152.175H810.083V47.8401Z" fill="#E0E0E0"/>
<path d="M803.308 47.8401H703.268V152.175H803.308V47.8401Z" fill="#EBEBEB"/>
<path d="M789.86 61.8657H716.716V138.151H789.86V61.8657Z" fill="#FAFAFA"/>
<path d="M716.716 138.658C716.765 138.716 716.062 139.505 714.888 140.731C713.713 141.958 712.068 143.623 710.228 145.437C708.386 147.251 706.7 148.871 705.458 150.025C704.217 151.177 703.422 151.865 703.369 151.811C703.316 151.756 704.014 150.972 705.189 149.744C706.362 148.517 708.013 146.848 709.858 145.03C711.704 143.212 713.394 141.59 714.636 140.436C715.876 139.283 716.666 138.599 716.716 138.658Z" fill="#E0E0E0"/>
<path d="M789.86 138.469C789.919 138.42 790.707 139.123 791.932 140.298C793.159 141.474 794.823 143.12 796.636 144.961C798.449 146.803 800.068 148.49 801.221 149.732C802.375 150.974 803.06 151.769 803.007 151.823C802.953 151.876 802.168 151.177 800.941 150.003C799.715 148.828 798.047 147.178 796.229 145.332C794.412 143.485 792.791 141.794 791.637 140.552C790.485 139.311 789.801 138.519 789.86 138.469Z" fill="#E0E0E0"/>
<path d="M789.66 62.0699C789.61 62.0125 790.313 61.2228 791.488 59.9968C792.662 58.7695 794.308 57.1047 796.148 55.2905C797.989 53.4762 799.676 51.8567 800.917 50.7028C802.158 49.5489 802.953 48.8619 803.006 48.9166C803.06 48.97 802.361 49.7557 801.186 50.983C800.013 52.2103 798.362 53.8778 796.517 55.6973C794.672 57.5156 792.981 59.1391 791.74 60.2916C790.5 61.4429 789.709 62.1272 789.66 62.0699Z" fill="#E0E0E0"/>
<path d="M716.516 62.2566C716.457 62.3059 715.669 61.6029 714.444 60.4277C713.217 59.2524 711.553 57.6063 709.741 55.7653C707.928 53.9231 706.309 52.2356 705.156 50.9936C704.002 49.7517 703.316 48.9566 703.37 48.9032C703.424 48.8499 704.209 49.5489 705.436 50.7241C706.662 51.8994 708.33 53.5496 710.148 55.3958C711.965 57.2407 713.586 58.9336 714.74 60.1755C715.89 61.4162 716.574 62.2072 716.516 62.2566Z" fill="#E0E0E0"/>
<path d="M789.66 138.151C789.66 138.151 789.651 138.023 789.647 137.782C789.644 137.528 789.639 137.177 789.633 136.721C789.627 135.771 789.617 134.395 789.605 132.607C789.591 128.999 789.569 123.745 789.543 117.064C789.513 103.707 789.472 84.6666 789.421 61.8672L789.66 62.1073C768.368 62.118 743.361 62.13 716.724 62.142H716.717L716.992 61.8672C716.977 89.8665 716.964 116.062 716.953 138.151L716.716 137.915C738.584 137.964 756.789 138.007 769.545 138.035C775.924 138.061 780.937 138.081 784.376 138.096C786.081 138.108 787.392 138.117 788.297 138.124C788.732 138.129 789.067 138.133 789.309 138.137C789.537 138.141 789.66 138.151 789.66 138.151C789.66 138.151 789.555 138.16 789.335 138.164C789.097 138.168 788.772 138.172 788.348 138.177C787.453 138.184 786.157 138.192 784.472 138.204C781.045 138.219 776.051 138.239 769.695 138.265C756.903 138.295 738.645 138.336 716.716 138.385H716.48V138.149C716.469 116.06 716.455 89.8652 716.441 61.8659V61.5911H716.716H716.723C743.36 61.6044 768.368 61.6164 789.659 61.6271H789.899V61.8659C789.848 84.7293 789.807 103.822 789.777 117.216C789.751 123.873 789.729 129.11 789.715 132.704C789.703 134.473 789.693 135.834 789.687 136.771C789.681 137.217 789.676 137.56 789.673 137.808C789.669 138.04 789.66 138.151 789.66 138.151Z" fill="#E0E0E0"/>
<path d="M736.02 93.7351C736.02 93.7351 734.453 112.622 754.899 112.622C754.899 102.544 746.587 94.5862 736.02 93.7351Z" fill="#EBEBEB"/>
<path d="M773.429 93.7484C773.429 93.7484 754.552 92.1809 754.552 112.635C764.625 112.636 772.578 104.32 773.429 93.7484Z" fill="#EBEBEB"/>
<path d="M753.992 83.4114C753.992 83.4114 738.569 97.2623 754.836 112.622C762.401 104.603 761.76 92.0277 753.992 83.4114Z" fill="#E0E0E0"/>
<path d="M658.814 83H558.774V187.335H658.814V83Z" fill="#E0E0E0"/>
<path d="M652.04 83H552V187.335H652.04V83Z" fill="#EBEBEB"/>
<path d="M638.592 97.0256H565.448V173.31H638.592V97.0256Z" fill="#FAFAFA"/>
<path d="M638.392 97.2298C638.343 97.1711 639.045 96.3827 640.22 95.1567C641.395 93.9294 643.04 92.2646 644.88 90.4504C646.721 88.6361 648.408 87.0167 649.649 85.8628C650.891 84.7088 651.685 84.0218 651.739 84.0765C651.792 84.1299 651.093 84.9156 649.919 86.1429C648.745 87.3702 647.095 89.039 645.249 90.8572C643.404 92.6755 641.713 94.2976 640.472 95.4515C639.233 96.6041 638.441 97.2871 638.392 97.2298Z" fill="#E0E0E0"/>
<path d="M565.248 97.4165C565.189 97.4658 564.401 96.7628 563.176 95.5876C561.949 94.4137 560.285 92.7662 558.473 90.9252C556.66 89.083 555.041 87.3955 553.888 86.1535C552.735 84.9116 552.048 84.1165 552.103 84.0632C552.156 84.0098 552.941 84.7088 554.168 85.8841C555.395 87.0593 557.063 88.7095 558.88 90.5557C560.697 92.402 562.319 94.0935 563.472 95.3354C564.625 96.5774 565.307 97.3671 565.248 97.4165Z" fill="#E0E0E0"/>
<path d="M638.392 173.31C638.392 173.31 638.383 173.182 638.379 172.942C638.376 172.687 638.371 172.337 638.365 171.88C638.359 170.931 638.349 169.555 638.337 167.766C638.323 164.161 638.301 158.905 638.275 152.224C638.245 138.867 638.203 119.826 638.153 97.027L638.392 97.2671C617.1 97.2778 592.094 97.2898 565.456 97.3018H565.45L565.724 97.027C565.709 125.028 565.696 151.222 565.686 173.312L565.45 173.076C587.318 173.125 605.523 173.168 618.279 173.196C624.657 173.222 629.671 173.242 633.109 173.257C634.815 173.269 636.126 173.278 637.031 173.284C637.466 173.289 637.8 173.294 638.043 173.297C638.269 173.301 638.392 173.31 638.392 173.31C638.392 173.31 638.287 173.32 638.068 173.324C637.831 173.328 637.505 173.332 637.081 173.337C636.187 173.344 634.891 173.352 633.205 173.364C629.779 173.378 624.784 173.398 618.428 173.425C605.636 173.455 587.379 173.496 565.45 173.545H565.214V173.309C565.203 151.219 565.188 125.025 565.175 97.0243V96.7495H565.45H565.456C592.094 96.7629 617.102 96.7749 638.392 96.7855H638.632V97.0243C638.581 119.888 638.54 138.98 638.511 152.375C638.484 159.031 638.463 164.269 638.448 167.862C638.436 169.631 638.427 170.992 638.42 171.93C638.415 172.375 638.409 172.718 638.407 172.966C638.401 173.2 638.392 173.31 638.392 173.31Z" fill="#E0E0E0"/>
<path d="M585.112 131.417C585.112 131.417 583.545 150.304 603.99 150.304C603.99 140.226 595.678 132.268 585.112 131.417Z" fill="#EBEBEB"/>
<path d="M622.521 131.431C622.521 131.431 603.644 129.863 603.644 150.317C613.717 150.319 621.67 142.002 622.521 131.431Z" fill="#EBEBEB"/>
<path d="M603.084 121.094C603.084 121.094 587.661 134.944 603.928 150.304C611.493 142.285 610.852 129.71 603.084 121.094Z" fill="#E0E0E0"/>
<path d="M824 573.88H224V574.18H824V573.88Z" fill="#EBEBEB"/>
<path d="M763.881 593.188H724.137V593.488H763.881V593.188Z" fill="#EBEBEB"/>
<path d="M621.464 596.452H611.036V596.752H621.464V596.452Z" fill="#EBEBEB"/>
<path d="M722.936 582.052H699.908V582.352H722.936V582.052Z" fill="#EBEBEB"/>
<path d="M338.78 584.068H286.952V584.368H338.78V584.068Z" fill="#EBEBEB"/>
<path d="M357.068 584.068H349.472V584.368H357.068V584.068Z" fill="#EBEBEB"/>
<path d="M494.18 589.132H381.764V589.432H494.18V589.132Z" fill="#EBEBEB"/>
<path d="M508.4 520.36H276.692C274.876 520.357 273.137 519.634 271.854 518.349C270.572 517.064 269.852 515.323 269.852 513.508V187.792C269.867 185.987 270.595 184.262 271.875 182.99C273.156 181.718 274.887 181.003 276.692 181H508.4C510.217 181 511.96 181.722 513.245 183.007C514.53 184.292 515.252 186.035 515.252 187.852V513.508C515.252 515.325 514.53 517.068 513.245 518.353C511.96 519.638 510.217 520.36 508.4 520.36ZM276.692 181.24C274.956 181.243 273.293 181.935 272.066 183.163C270.84 184.392 270.152 186.056 270.152 187.792V513.508C270.152 515.244 270.84 516.908 272.066 518.137C273.293 519.365 274.956 520.057 276.692 520.06H508.4C510.136 520.057 511.801 519.366 513.029 518.137C514.257 516.909 514.948 515.245 514.952 513.508V187.792C514.948 186.055 514.257 184.391 513.029 183.163C511.801 181.934 510.136 181.243 508.4 181.24H276.692Z" fill="#EBEBEB"/>
<path d="M767.972 520.36H536.252C534.436 520.357 532.695 519.634 531.411 518.35C530.127 517.065 529.404 515.324 529.4 513.508V187.792C529.419 185.986 530.149 184.26 531.432 182.989C532.714 181.718 534.446 181.003 536.252 181H767.972C769.775 181.006 771.503 181.723 772.781 182.994C774.059 184.265 774.785 185.989 774.8 187.792V513.508C774.8 515.321 774.082 517.06 772.802 518.345C771.522 519.629 769.785 520.354 767.972 520.36ZM536.252 181.24C534.516 181.243 532.851 181.934 531.623 183.163C530.395 184.391 529.704 186.055 529.7 187.792V513.508C529.704 515.245 530.395 516.909 531.623 518.137C532.851 519.366 534.516 520.057 536.252 520.06H767.972C769.709 520.057 771.374 519.366 772.602 518.137C773.83 516.909 774.521 515.245 774.524 513.508V187.792C774.521 186.055 773.83 184.391 772.602 183.163C771.374 181.934 769.709 181.243 767.972 181.24H536.252Z" fill="#EBEBEB"/>
<path d="M760.688 281.332H604.16V289.372H760.688V281.332Z" fill="#E0E0E0"/>
<path d="M618.259 251.692H611.359V281.332H618.259V251.692Z" fill="#EBEBEB"/>
<path d="M651.608 251.692H644.708V281.332H651.608V251.692Z" fill="#EBEBEB"/>
<path d="M689.466 250.932L682.666 252.104L687.701 281.313L694.501 280.141L689.466 250.932Z" fill="#EBEBEB"/>
<path d="M626.804 255.604H619.904V281.344H626.804V255.604Z" fill="#EBEBEB"/>
<path d="M642.656 255.604H635.756V281.344H642.656V255.604Z" fill="#EBEBEB"/>
<path d="M682.664 255.604H675.764V281.344H682.664V255.604Z" fill="#EBEBEB"/>
<path d="M660.663 254.696L653.928 256.193L659.512 281.32L666.248 279.823L660.663 254.696Z" fill="#EBEBEB"/>
<path d="M632.767 250.216H629.323V281.332H632.767V250.216Z" fill="#EBEBEB"/>
<path d="M673.784 250.216H670.34V281.332H673.784V250.216Z" fill="#EBEBEB"/>
<path d="M745.663 257.872H712.063V281.068H745.663V257.872Z" fill="#EBEBEB"/>
<path d="M604.16 349.408H760.688V341.368H604.16V349.408Z" fill="#E0E0E0"/>
<path d="M746.577 341.38H753.477V311.74H746.577V341.38Z" fill="#EBEBEB"/>
<path d="M713.241 341.38H720.141V311.74H713.241V341.38Z" fill="#EBEBEB"/>
<path d="M670.358 340.202L677.157 341.374L682.192 312.165L675.392 310.993L670.358 340.202Z" fill="#EBEBEB"/>
<path d="M738.033 341.368H744.933V315.628H738.033V341.368Z" fill="#EBEBEB"/>
<path d="M722.192 341.368H729.092V315.628H722.192V341.368Z" fill="#EBEBEB"/>
<path d="M682.184 341.368H689.084V315.628H682.184V341.368Z" fill="#EBEBEB"/>
<path d="M698.618 339.858L705.354 341.355L710.938 316.228L704.202 314.731L698.618 339.858Z" fill="#EBEBEB"/>
<path d="M732.079 341.368H735.523V310.252H732.079V341.368Z" fill="#EBEBEB"/>
<path d="M691.064 341.368H694.508V310.252H691.064V341.368Z" fill="#EBEBEB"/>
<path d="M619.171 341.116H652.771V317.92H619.171V341.116Z" fill="#EBEBEB"/>
<path d="M287.6 434.2V574.6H294.8V448.6H422V574.6H430.4V434.2H287.6Z" fill="#E0E0E0"/>
<path d="M366.8 434.2V574.6H374V448.6H501.2V574.6H509.6V434.2H366.8Z" fill="#F5F5F5"/>
<path d="M412.256 381.88C410.648 379.24 408.008 381.544 408.008 381.544C408.38 376.468 403.724 373.012 403.724 373.012C403.724 373.012 409.136 373.012 409.892 367.84C410.648 362.668 408.008 365.08 405.524 365.044C403.04 365.008 400.448 372.244 403.724 376.324C407 380.404 406.124 387.364 398.564 394.048C396.755 395.738 395.397 397.855 394.616 400.204C395.192 394.06 395.516 385.396 393.704 379.624C390.632 369.796 396.488 367.156 398.18 362.248C399.872 357.34 393.704 353.176 393.704 353.176C393.704 353.176 399.512 350.536 396.668 347.512C393.824 344.488 387.992 344.896 387.992 348.856C387.992 352.816 391.952 354.316 391.952 354.316C391.952 354.316 396.488 359.032 396.488 361.516C396.488 364 391.952 369.256 391.952 369.256C391.952 369.256 394.028 364.732 389.876 364.54C385.724 364.348 384.392 369.82 386.096 372.28C387.8 374.74 390.632 372.652 390.632 372.652C390.805 375.517 391.239 378.361 391.928 381.148C392.348 382.564 392.156 388.108 391.796 393.868C391.006 391.788 389.745 389.919 388.112 388.408C380.564 381.724 379.712 374.764 382.952 370.684C386.192 366.604 383.636 359.368 381.152 359.404C378.668 359.44 376.028 357.004 376.784 362.2C377.54 367.396 382.952 367.372 382.952 367.372C382.952 367.372 378.296 370.828 378.68 375.904C378.68 375.904 376.028 373.6 374.42 376.24C371.564 380.968 378.2 383.896 379.316 381.568C379.316 381.568 393.404 391.54 390.008 405.892L390.8 407.092C390.692 408.292 390.632 408.952 390.632 408.952L391.736 408.484L392.936 410.332C392.893 412.417 393.001 414.502 393.26 416.572L396.62 411.592C393.224 397.192 407.312 387.268 407.312 387.268C408.476 389.536 415.124 386.608 412.256 381.88Z" fill="#E0E0E0"/>
<path d="M403.725 434.2L399.177 408.172L400.461 400.6H386.145L387.429 408.172L382.893 434.2H403.725Z" fill="#EBEBEB"/>
<path d="M584.882 243.748L547.916 223.785L521.847 272.06L558.813 292.023L584.882 243.748Z" fill="#FF9E22"/>
<path opacity="0.6" d="M584.882 243.748L547.916 223.785L521.847 272.06L558.813 292.023L584.882 243.748Z" fill="white"/>
<path d="M575.677 247.611L549.745 233.607L548.337 236.215L574.269 250.219L575.677 247.611Z" fill="#FF9E22"/>
<path d="M573.213 252.181L547.28 238.177L545.872 240.785L571.804 254.789L573.213 252.181Z" fill="#FF9E22"/>
<path d="M570.743 256.747L544.811 242.743L543.402 245.351L569.334 259.355L570.743 256.747Z" fill="#FF9E22"/>
<path d="M568.267 261.311L542.335 247.307L540.927 249.915L566.859 263.919L568.267 261.311Z" fill="#FF9E22"/>
<path d="M565.807 265.87L539.875 251.866L538.467 254.474L564.399 268.478L565.807 265.87Z" fill="#FF9E22"/>
<path d="M563.344 270.447L537.412 256.443L536.004 259.051L561.936 273.055L563.344 270.447Z" fill="#FF9E22"/>
<path d="M560.884 275.006L534.952 261.002L533.544 263.61L559.476 277.614L560.884 275.006Z" fill="#FF9E22"/>
<path d="M549.261 274.638L532.473 265.572L531.064 268.18L547.853 277.246L549.261 274.638Z" fill="#FF9E22"/>
<path d="M486.668 244.108C481.438 243.573 476.485 241.499 472.434 238.148C468.383 234.798 465.416 230.321 463.909 225.285C462.402 220.248 462.423 214.878 463.968 209.853C465.513 204.829 468.514 200.375 472.59 197.055C476.667 193.736 481.636 191.7 486.869 191.204C492.103 190.709 497.366 191.777 501.993 194.272C506.62 196.768 510.402 200.58 512.863 205.226C515.323 209.871 516.351 215.142 515.816 220.372C515.089 227.381 511.612 233.816 506.148 238.265C500.684 242.715 493.679 244.816 486.668 244.108Z" fill="#FF9E22"/>
<path opacity="0.3" d="M491.242 241.818C504.596 240.791 514.589 229.132 513.561 215.777C512.534 202.422 500.875 192.429 487.52 193.457C474.166 194.485 464.173 206.144 465.2 219.498C466.228 232.853 477.887 242.846 491.242 241.818Z" fill="white"/>
<path opacity="0.25" d="M493.877 226.156C503.256 221.292 507.591 211.05 503.56 203.278C499.53 195.506 488.66 193.148 479.282 198.011C469.904 202.874 465.569 213.117 469.599 220.889C473.63 228.661 484.499 231.019 493.877 226.156Z" fill="white"/>
<path d="M487.06 215.142L485.707 211.55L473.598 224.893L490.781 230.372L488.551 225.598L479.537 223.075L487.06 215.142Z" fill="white" stroke="white"/>
<path d="M492.255 213.309L491.704 209.52L508.838 215.662L496.365 228.444L496.013 223.207L502.727 216.811L492.255 213.309Z" fill="white" stroke="white"/>
<path d="M437.345 183.16L380.233 187.806L383.711 230.564L440.823 225.919L437.345 183.16Z" fill="#FF9E22"/>
<path d="M434.806 186.161L383.376 190.344L386.392 227.422L437.822 223.238L434.806 186.161Z" fill="#FF9E22"/>
<path opacity="0.5" d="M434.806 186.161L383.376 190.344L386.392 227.422L437.822 223.238L434.806 186.161Z" fill="white"/>
<path d="M437.408 218.2L437.816 223.24L386.384 227.428L384.92 209.404L394.772 199.252L411.776 213.328L419.624 206.572L437.408 218.2Z" fill="#FF9E22"/>
<path opacity="0.3" d="M437.408 218.2L437.816 223.24L386.384 227.428L384.92 209.404L394.772 199.252L411.776 213.328L419.624 206.572L437.408 218.2Z" fill="white"/>
<path d="M427.028 196.6C427.094 197.418 426.916 198.238 426.516 198.955C426.117 199.672 425.513 200.255 424.783 200.629C424.052 201.004 423.227 201.153 422.411 201.058C421.595 200.964 420.826 200.629 420.201 200.098C419.575 199.566 419.121 198.861 418.896 198.071C418.671 197.281 418.685 196.443 418.937 195.661C419.189 194.88 419.667 194.19 420.31 193.68C420.953 193.17 421.734 192.862 422.552 192.796C423.096 192.751 423.643 192.815 424.162 192.982C424.681 193.149 425.162 193.417 425.578 193.77C425.994 194.123 426.336 194.555 426.585 195.041C426.833 195.526 426.984 196.056 427.028 196.6Z" fill="#FF9E22"/>
<path opacity="0.3" d="M427.028 196.6C427.094 197.418 426.916 198.238 426.516 198.955C426.117 199.672 425.513 200.255 424.783 200.629C424.052 201.004 423.227 201.153 422.411 201.058C421.595 200.964 420.826 200.629 420.201 200.098C419.575 199.566 419.121 198.861 418.896 198.071C418.671 197.281 418.685 196.443 418.937 195.661C419.189 194.88 419.667 194.19 420.31 193.68C420.953 193.17 421.734 192.862 422.552 192.796C423.096 192.751 423.643 192.815 424.162 192.982C424.681 193.149 425.162 193.417 425.578 193.77C425.994 194.123 426.336 194.555 426.585 195.041C426.833 195.526 426.984 196.056 427.028 196.6Z" fill="white"/>
<path d="M327.668 233.644L325.46 232.288C325.068 232.046 324.625 231.899 324.167 231.86C323.708 231.82 323.247 231.889 322.82 232.06L313.016 236.2C312.604 236.367 312.242 236.639 311.966 236.988C311.691 237.337 311.511 237.752 311.444 238.192L311.084 240.592C311.023 241.031 310.846 241.445 310.572 241.793C310.298 242.141 309.936 242.41 309.524 242.572L303.668 244.972C303.333 245.108 303.031 245.312 302.781 245.572C302.53 245.832 302.337 246.142 302.214 246.481C302.09 246.82 302.04 247.182 302.065 247.542C302.09 247.902 302.19 248.253 302.36 248.572L317.96 280.54C318.29 281.202 318.856 281.717 319.547 281.981C320.239 282.246 321.004 282.241 321.692 281.968L368.084 262.6C368.42 262.467 368.725 262.264 368.978 262.005C369.231 261.745 369.426 261.436 369.551 261.096C369.675 260.756 369.727 260.393 369.701 260.032C369.676 259.671 369.575 259.319 369.404 259L353.804 227.044C353.476 226.379 352.91 225.862 352.219 225.595C351.527 225.329 350.761 225.332 350.072 225.604L330.308 233.872C329.881 234.043 329.419 234.112 328.961 234.072C328.502 234.033 328.059 233.886 327.668 233.644Z" fill="#FF9E22"/>
<path d="M356 226.792L313.508 244.6C312.642 244.975 311.943 245.655 311.545 246.511C311.147 247.367 311.077 248.34 311.348 249.244L320.648 278.68C320.779 279.102 320.999 279.491 321.291 279.822C321.584 280.153 321.943 280.418 322.346 280.599C322.749 280.781 323.186 280.875 323.627 280.875C324.069 280.875 324.506 280.781 324.908 280.6L367.412 262.816C368.276 262.437 368.971 261.756 369.369 260.901C369.766 260.047 369.839 259.076 369.572 258.172L360.26 228.736C360.134 228.311 359.918 227.918 359.626 227.583C359.335 227.248 358.976 226.98 358.572 226.796C358.169 226.612 357.73 226.516 357.287 226.515C356.843 226.515 356.405 226.609 356 226.792Z" fill="#FF9E22"/>
<path opacity="0.5" d="M356 226.792L313.508 244.6C312.642 244.975 311.943 245.655 311.545 246.511C311.147 247.367 311.077 248.34 311.348 249.244L320.648 278.68C320.779 279.102 320.999 279.491 321.291 279.822C321.584 280.153 321.943 280.418 322.346 280.599C322.749 280.781 323.186 280.875 323.627 280.875C324.069 280.875 324.506 280.781 324.908 280.6L367.412 262.816C368.276 262.437 368.971 261.756 369.369 260.901C369.766 260.047 369.839 259.076 369.572 258.172L360.26 228.736C360.134 228.311 359.918 227.918 359.626 227.583C359.335 227.248 358.976 226.98 358.572 226.796C358.169 226.612 357.73 226.516 357.287 226.515C356.843 226.515 356.405 226.609 356 226.792Z" fill="white"/>
<path d="M510.175 297.4C510.703 294.923 510.968 292.397 510.967 289.864C510.967 285.165 510.042 280.512 508.243 276.17C506.445 271.829 503.809 267.884 500.486 264.561C497.164 261.238 493.219 258.602 488.877 256.804C484.536 255.006 479.883 254.08 475.183 254.08C472.965 254.082 470.752 254.287 468.571 254.692C467.659 254.524 466.735 254.692 465.787 254.584C462.415 247.256 456.999 241.057 450.189 236.731C443.38 232.406 435.466 230.138 427.399 230.2H414.199C408.675 230.173 403.199 231.236 398.086 233.329C392.973 235.422 388.323 238.503 384.403 242.395C380.482 246.288 377.369 250.916 375.239 256.014C373.11 261.111 372.008 266.579 371.995 272.104C371.995 272.416 371.995 272.572 371.995 272.884C363.266 274.426 355.435 279.193 350.057 286.24C344.678 293.286 342.146 302.098 342.962 310.925C343.777 319.752 347.882 327.95 354.46 333.891C361.039 339.833 369.611 343.084 378.475 343H508.075C514.122 343.275 520.031 341.137 524.501 337.056C528.972 332.975 531.638 327.285 531.913 321.238C532.189 315.191 530.051 309.282 525.969 304.812C521.888 300.341 516.198 297.675 510.151 297.4H510.175Z" fill="#FF9E22"/>
<path opacity="0.5" d="M510.175 297.4C510.703 294.923 510.968 292.397 510.967 289.864C510.967 285.165 510.042 280.512 508.243 276.17C506.445 271.829 503.809 267.884 500.486 264.561C497.164 261.238 493.219 258.602 488.877 256.804C484.536 255.006 479.883 254.08 475.183 254.08C472.965 254.082 470.752 254.287 468.571 254.692C467.659 254.524 466.735 254.692 465.787 254.584C462.415 247.256 456.999 241.057 450.189 236.731C443.38 232.406 435.466 230.138 427.399 230.2H414.199C408.675 230.173 403.199 231.236 398.086 233.329C392.973 235.422 388.323 238.503 384.403 242.395C380.482 246.288 377.369 250.916 375.239 256.014C373.11 261.111 372.008 266.579 371.995 272.104C371.995 272.416 371.995 272.572 371.995 272.884C363.266 274.426 355.435 279.193 350.057 286.24C344.678 293.286 342.146 302.098 342.962 310.925C343.777 319.752 347.882 327.95 354.46 333.891C361.039 339.833 369.611 343.084 378.475 343H508.075C514.122 343.275 520.031 341.137 524.501 337.056C528.972 332.975 531.638 327.285 531.913 321.238C532.189 315.191 530.051 309.282 525.969 304.812C521.888 300.341 516.198 297.675 510.151 297.4H510.175Z" fill="white"/>
<path opacity="0.4" d="M510.176 297.4C510.703 294.923 510.968 292.397 510.968 289.864C510.968 285.165 510.042 280.512 508.244 276.17C506.445 271.829 503.81 267.884 500.487 264.561C497.164 261.238 493.219 258.602 488.877 256.804C484.536 255.006 479.883 254.08 475.184 254.08C472.966 254.082 470.752 254.287 468.572 254.692C467.66 254.524 466.736 254.692 465.788 254.584C462.415 247.256 456.999 241.057 450.189 236.731C443.38 232.406 435.466 230.138 427.4 230.2C421.875 230.173 416.399 231.236 411.286 233.329C406.173 235.422 401.524 238.503 397.603 242.395C393.683 246.288 390.569 250.916 388.44 256.014C386.311 261.111 385.208 266.579 385.196 272.104C385.196 272.416 385.196 272.572 385.196 272.884C376.466 274.426 368.635 279.193 363.257 286.24C357.878 293.286 355.346 302.098 356.162 310.925C356.977 319.752 361.082 327.95 367.661 333.891C374.239 339.833 382.811 343.084 391.676 343H508.076C514.122 343.275 520.031 341.137 524.502 337.056C528.972 332.975 531.638 327.285 531.914 321.238C532.189 315.191 530.051 309.282 525.97 304.812C521.888 300.341 516.198 297.675 510.152 297.4H510.176Z" fill="white"/>
<path d="M545.204 401.8H504.8C488.893 401.781 473.642 395.453 462.394 384.205C451.146 372.957 444.819 357.707 444.8 341.8V329.8H432.8V341.8C432.822 360.889 440.415 379.189 453.913 392.687C467.41 406.185 485.711 413.778 504.8 413.8H545.204V401.8Z" fill="#FF9E22"/>
<path d="M438.656 321.808L428.252 332.2H449.048L438.656 321.808Z" fill="#FF9E22"/>
<path d="M670.881 511L671.313 529.684L673.281 614.2H679.773L681.729 529.684L682.161 511H670.881Z" fill="#FF9E22"/>
<path opacity="0.4" d="M670.881 511L671.313 529.684L673.281 614.2H679.773L681.729 529.684L682.161 511H670.881Z" fill="white"/>
<path opacity="0.2" d="M670.881 511L671.313 530.2H681.729L682.161 511H670.881Z" fill="black"/>
<path d="M635.625 613.9L641.625 512.32H651.429L643.029 613.9H635.625Z" fill="#FF9E22"/>
<path opacity="0.5" d="M643.053 613.9H635.637L641.085 521.44L641.625 512.2H651.429L650.673 521.44L643.053 613.9Z" fill="white"/>
<path opacity="0.2" d="M651.428 512.2L650.672 521.8H641.084L641.624 512.2H651.428Z" fill="black"/>
<path d="M710.025 613.9L701.625 512.32H711.429L717.429 613.9H710.025Z" fill="#FF9E22"/>
<path opacity="0.5" d="M710.001 613.9L702.381 521.44L701.625 512.2H711.429L711.969 521.44L717.417 613.9H710.001Z" fill="white"/>
<path opacity="0.2" d="M701.625 512.2L702.381 521.8H711.969L711.429 512.2H701.625Z" fill="black"/>
<path d="M716.673 515.836H636.369V507.832C636.369 506.241 637.001 504.714 638.126 503.589C639.251 502.464 640.778 501.832 642.369 501.832H710.673C712.264 501.832 713.79 502.464 714.915 503.589C716.041 504.714 716.673 506.241 716.673 507.832V515.86V515.836Z" fill="#FF9E22"/>
<path d="M634.94 515.824H718.112C719.445 515.824 720.524 514.744 720.524 513.412V511.228C720.524 509.896 719.445 508.816 718.112 508.816H634.94C633.608 508.816 632.528 509.896 632.528 511.228V513.412C632.528 514.744 633.608 515.824 634.94 515.824Z" fill="#FF9E22"/>
<path opacity="0.6" d="M634.94 515.824H718.112C719.445 515.824 720.524 514.744 720.524 513.412V511.228C720.524 509.896 719.445 508.816 718.112 508.816H634.94C633.608 508.816 632.528 509.896 632.528 511.228V513.412C632.528 514.744 633.608 515.824 634.94 515.824Z" fill="white"/>
<path d="M647.708 388C647.708 388 647.372 388.912 646.76 390.4C646.148 391.888 645.212 394.156 644.072 396.628C641.312 402.628 637.304 410.26 633.116 414.376C632.064 415.483 630.799 416.365 629.396 416.968C624.932 418.684 613.736 418.996 603.74 418.9C593.744 418.804 585.2 418.3 585.2 418.3V410.728L618.068 401.968C618.068 401.968 635.396 370.696 645.668 366.064L647.708 388Z" fill="#263238"/>
<path opacity="0.2" d="M646.76 390.412C646.136 391.972 645.213 394.168 644.073 396.64C641.313 402.64 637.305 410.272 633.117 414.388C628.857 398.692 644.613 383.752 644.613 383.752L646.76 390.412Z" fill="black"/>
<path d="M642.513 605.536L632.949 604.228L631.629 581.5L641.169 582.82L642.513 605.536Z" fill="#EBB376"/>
<path opacity="0.2" d="M641.169 582.82L631.629 581.512L632.385 594.496L641.925 595.336L641.169 582.82Z" fill="black"/>
<path d="M642.128 471.952L644.456 457.336L698 454.132C698 454.132 703.7 484.54 699.32 492.64C691.508 507.1 649.388 499.84 637.052 501.22C644.468 531.4 643.748 590.2 643.748 590.2L626.144 591.544C626.144 591.544 612.608 528.1 609.86 497.944C608 477.64 624.872 478.144 642.128 471.952Z" fill="#FF9E22"/>
<path d="M645.812 591.076L624.656 592.456L622.844 583.396L646.088 582.328L645.812 591.076Z" fill="#FF9E22"/>
<path d="M620.456 597.052L610.832 597.76L604.808 575.812L614.42 575.116L620.456 597.052Z" fill="#EBB376"/>
<path d="M609.536 598.084H609.368C609.368 597.94 608.876 595.24 607.712 594.604C607.563 594.53 607.399 594.491 607.232 594.491C607.066 594.491 606.901 594.53 606.752 594.604C606.569 594.661 606.41 594.779 606.303 594.938C606.196 595.098 606.147 595.289 606.164 595.48C606.397 596.276 606.897 596.966 607.58 597.436C606.705 597.136 605.75 597.162 604.892 597.508C604.776 597.595 604.685 597.71 604.626 597.842C604.567 597.975 604.543 598.12 604.556 598.264C604.541 598.491 604.59 598.717 604.699 598.917C604.807 599.116 604.97 599.281 605.168 599.392C605.77 599.626 606.438 599.626 607.04 599.392C607.874 599.144 608.679 598.806 609.44 598.384H609.524C609.524 598.384 609.524 598.384 609.524 598.312C609.55 598.28 609.565 598.241 609.568 598.2C609.57 598.159 609.559 598.118 609.536 598.084ZM606.644 595.396C606.644 595.264 606.644 595.096 606.968 594.976H607.076C607.161 594.947 607.252 594.937 607.341 594.947C607.43 594.958 607.516 594.988 607.592 595.036C608.288 595.408 608.792 596.872 608.996 597.748L608.78 597.688C607.832 597.124 606.728 596.044 606.644 595.396ZM605.384 598.924C605.265 598.843 605.169 598.734 605.104 598.606C605.039 598.478 605.007 598.335 605.012 598.192C605.006 598.122 605.017 598.051 605.044 597.987C605.071 597.922 605.114 597.865 605.168 597.82C605.72 597.412 607.472 597.76 608.768 598.144C607.172 598.936 605.948 599.224 605.384 598.924Z" fill="#FF9E22"/>
<path opacity="0.2" d="M614.42 575.116L604.808 575.824L608.252 588.364L617.756 587.2L614.42 575.116Z" fill="black"/>
<path d="M601.545 586.816L618.489 581.8C618.489 581.8 608.373 524.704 598.089 504.904C598.857 504.652 599.877 504.328 601.137 503.956C603.405 503.272 606.417 502.42 609.957 501.436C634.581 494.608 684.489 481.804 684.489 481.804L661.689 460.528C661.689 460.528 570.873 474.376 568.989 498.304C568.113 509.8 601.545 586.816 601.545 586.816Z" fill="#FF9E22"/>
<path d="M620.671 582.208L600.271 587.98L596.611 579.496L619.123 573.604L620.671 582.208Z" fill="#FF9E22"/>
<path opacity="0.2" d="M601.16 503.992C603.428 503.308 606.44 502.456 609.98 501.472C609.272 495.664 609.26 489.004 612.056 485.608C617.612 478.84 631.904 474.868 640.04 473.428C646.844 472.228 669.704 469.828 669.704 469.828C669.704 469.828 640.04 466.984 609.704 475.828C594.728 480.22 597.644 494.872 601.16 503.992Z" fill="black"/>
<path d="M701.024 469.408C704.624 466.66 701.168 441.1 703.004 415.96C705.8 377.68 703.004 365.38 700.184 364.192C694.977 363.289 689.711 362.767 684.428 362.632C676.701 362.356 668.964 362.524 661.256 363.136C655.981 363.783 650.765 364.842 645.656 366.304C645.656 366.304 633.032 406.504 641.096 464.404L701.024 469.408Z" fill="#263238"/>
<path opacity="0.8" d="M704.001 396.256C703.845 401.884 703.509 408.412 702.957 415.948C701.121 441.088 704.553 466.648 700.977 469.396L641.037 464.392C637.458 439.26 637.438 413.75 640.977 388.612C645.849 381.004 655.305 372.328 659.649 368.524C661.091 370.104 663.047 371.121 665.169 371.392C669.837 372.304 675.165 370.192 679.569 367.504C683.049 370.972 689.649 377.992 692.541 383.908C692.843 384.521 693.111 385.15 693.345 385.792C695.181 390.928 700.785 384.592 703.641 376.336C704.131 382.964 704.251 389.615 704.001 396.256Z" fill="white"/>
<path d="M681.584 336.652C680.276 344.14 679.112 357.82 684.428 362.692C682.27 365.009 679.674 366.877 676.791 368.187C673.908 369.497 670.794 370.223 667.628 370.324C658.028 370.744 661.268 363.124 661.268 363.124C669.548 360.964 669.188 354.796 667.616 349.036L681.584 336.652Z" fill="#EBB376"/>
<path opacity="0.2" d="M675.883 341.728L667.615 349.096C668.003 350.434 668.272 351.803 668.419 353.188C671.587 352.672 675.871 349.084 676.147 345.748C676.306 344.403 676.217 343.041 675.883 341.728Z" fill="black"/>
<path d="M663.429 317.272C667.569 320.08 665.685 324.832 656.325 332.284C652.533 327.4 651.897 317.8 654.921 315.4C657.945 313 659.829 314.836 663.429 317.272Z" fill="#263238"/>
<path d="M681.201 325C680.757 335.116 680.997 341.044 675.993 346.324C668.457 354.256 655.905 349.84 653.325 339.796C651.021 330.772 652.125 315.796 661.953 311.56C664.112 310.624 666.475 310.257 668.816 310.492C671.158 310.728 673.4 311.559 675.329 312.906C677.258 314.253 678.811 316.072 679.839 318.189C680.867 320.306 681.335 322.651 681.201 325Z" fill="#EBB376"/>
<path d="M666.188 328C666.188 328.828 665.78 329.5 665.24 329.512C664.7 329.524 664.268 328.864 664.256 328.036C664.244 327.208 664.652 326.548 665.192 326.536C665.732 326.524 666.116 327.196 666.188 328Z" fill="#263238"/>
<path d="M656.841 328.18C656.841 328.996 656.433 329.668 655.893 329.68C655.353 329.692 654.909 329.044 654.897 328.204C654.885 327.364 655.305 326.704 655.845 326.704C656.385 326.704 656.829 327.4 656.841 328.18Z" fill="#263238"/>
<path d="M659.9 328.516C658.964 331.044 657.684 333.431 656.096 335.608C656.665 335.996 657.311 336.257 657.991 336.373C658.67 336.489 659.366 336.457 660.032 336.28L659.9 328.516Z" fill="#D58745"/>
<path d="M668.697 325C668.802 325.014 668.909 324.988 668.997 324.928C669.047 324.89 669.09 324.843 669.122 324.789C669.154 324.734 669.175 324.674 669.184 324.612C669.193 324.55 669.19 324.486 669.174 324.425C669.158 324.364 669.131 324.306 669.093 324.256C668.634 323.64 668.034 323.142 667.342 322.806C666.651 322.47 665.889 322.305 665.121 322.324C665.06 322.327 665 322.342 664.945 322.369C664.89 322.395 664.841 322.433 664.801 322.479C664.761 322.525 664.73 322.578 664.711 322.636C664.691 322.694 664.684 322.755 664.689 322.816C664.704 322.94 664.766 323.054 664.862 323.134C664.957 323.214 665.08 323.255 665.205 323.248C665.812 323.241 666.411 323.379 666.954 323.651C667.496 323.922 667.966 324.319 668.325 324.808C668.371 324.864 668.427 324.909 668.491 324.943C668.555 324.976 668.625 324.995 668.697 325Z" fill="#263238"/>
<path d="M652.533 325.096C652.625 325.097 652.716 325.071 652.794 325.022C652.873 324.973 652.936 324.903 652.977 324.82C653.213 324.262 653.579 323.768 654.044 323.38C654.51 322.991 655.061 322.72 655.653 322.588C655.779 322.567 655.893 322.498 655.969 322.395C656.045 322.292 656.078 322.163 656.061 322.036C656.043 321.911 655.976 321.797 655.875 321.721C655.774 321.644 655.646 321.611 655.521 321.628C654.77 321.785 654.067 322.12 653.472 322.604C652.877 323.089 652.407 323.709 652.101 324.412C652.047 324.527 652.041 324.658 652.084 324.777C652.127 324.896 652.215 324.994 652.329 325.048C652.391 325.083 652.462 325.099 652.533 325.096Z" fill="#263238"/>
<path d="M677.048 316.096C672.356 317.8 673.028 322.876 680.276 332.38C685.172 328.528 688.136 319.396 685.772 316.336C683.408 313.276 681.2 314.62 677.048 316.096Z" fill="#263238"/>
<path d="M686.181 332.98C685.854 334.199 685.291 335.341 684.523 336.342C683.755 337.342 682.797 338.182 681.705 338.812C678.765 340.468 676.497 338.032 676.629 334.852C676.761 331.972 678.441 327.652 681.717 327.292C684.993 326.932 686.973 329.956 686.181 332.98Z" fill="#EBB376"/>
<path d="M667.617 337.948C666.906 339.035 665.91 339.904 664.737 340.461C663.564 341.018 662.26 341.241 660.969 341.104" stroke="#263238" stroke-width="0.526291" stroke-linecap="round" stroke-linejoin="round"/>
<path d="M666.8 314.488C666.8 314.488 668.312 324.616 678.068 325.288C687.824 325.96 689.912 319.9 689.912 319.9C689.117 320.016 688.315 320.08 687.512 320.092C687.512 320.092 690.368 315.184 687.512 310.492C684.656 305.8 674.936 300.784 667.724 303.292C665.48 302.559 663.108 302.298 660.758 302.525C658.408 302.752 656.13 303.463 654.068 304.612C647.312 308.536 648.512 317.092 648.512 317.092C648.512 317.092 648.212 311.896 651.368 310.444C651.368 310.444 647.468 321.136 653.312 323.992C653.3 323.956 653.876 313.432 666.8 314.488Z" fill="#263238"/>
<path d="M650.203 410.2C650.203 410.2 615.403 409.408 613.435 409.216C611.467 409.024 603.223 404.416 601.435 404.164C599.647 403.912 594.979 411.364 594.391 413.092C593.803 414.82 607.591 419.5 608.923 419.296C610.465 418.885 611.964 418.327 613.399 417.628L648.919 422.2L650.203 410.2Z" fill="#EBB376"/>
<path d="M549.2 417.4V420.58C549.2 421.528 550.832 422.2 551.78 422.2H625.928C626.888 422.2 628.4 421.528 628.4 420.58V417.4H549.2Z" fill="#263238"/>
<path opacity="0.6" d="M549.2 417.4V420.58C549.2 421.528 550.832 422.2 551.78 422.2H625.928C626.888 422.2 628.4 421.528 628.4 420.58V417.4H549.2Z" fill="white"/>
<path opacity="0.2" d="M549.2 417.4V420.58C549.2 421.528 550.832 422.2 551.78 422.2H600.68C601.64 422.2 603.2 421.528 603.2 420.58V417.4H549.2Z" fill="black"/>
<path d="M537.308 378.412L546.14 418.6C546.296 419.255 546.66 419.843 547.176 420.275C547.693 420.708 548.335 420.962 549.008 421H597.2C597.509 420.973 597.808 420.876 598.076 420.719C598.343 420.561 598.572 420.345 598.746 420.088C598.919 419.83 599.033 419.537 599.079 419.23C599.125 418.923 599.102 418.609 599.012 418.312L590.192 378.568C590.012 377.961 589.629 377.434 589.107 377.076C588.585 376.717 587.955 376.549 587.324 376.6H539.132C537.836 376.6 537.02 377.104 537.308 378.412Z" fill="#263238"/>
<path opacity="0.6" d="M537.308 378.412L546.14 418.6C546.296 419.255 546.66 419.843 547.176 420.275C547.693 420.708 548.335 420.962 549.008 421H597.2C597.509 420.973 597.808 420.876 598.076 420.719C598.343 420.561 598.572 420.345 598.746 420.088C598.919 419.83 599.033 419.537 599.079 419.23C599.125 418.923 599.102 418.609 599.012 418.312L590.192 378.568C590.012 377.961 589.629 377.434 589.107 377.076C588.585 376.717 587.955 376.549 587.324 376.6H539.132C537.836 376.6 537.02 377.104 537.308 378.412Z" fill="white"/>
<path opacity="0.4" d="M537.308 378.412L546.14 418.6C546.296 419.255 546.66 419.843 547.176 420.275C547.693 420.708 548.335 420.962 549.008 421H595.58C595.889 420.972 596.189 420.876 596.456 420.718C596.724 420.56 596.954 420.345 597.128 420.088C597.303 419.831 597.418 419.538 597.465 419.231C597.513 418.924 597.492 418.61 597.404 418.312L588.584 378.568C588.404 377.961 588.021 377.434 587.499 377.076C586.977 376.717 586.347 376.549 585.716 376.6H539.132C537.836 376.6 537.02 377.104 537.308 378.412Z" fill="white"/>
<path opacity="0.2" d="M565.676 404.2C563.432 404.2 561.128 401.8 560.54 398.824C559.952 395.848 561.308 393.4 563.6 393.4C564.011 393.409 564.418 393.49 564.8 393.64C565.008 394.701 565.463 395.698 566.128 396.551C566.793 397.404 567.65 398.088 568.628 398.548C568.654 398.626 568.674 398.707 568.688 398.788C569.288 401.8 567.932 404.2 565.676 404.2Z" fill="black"/>
<path opacity="0.2" d="M704 396.256C698.828 404.656 691.592 413.596 684.38 413.176C676.832 412.732 684.44 397.324 692.552 383.908C692.853 384.521 693.122 385.15 693.356 385.792C695.192 390.928 700.796 384.592 703.652 376.336C704.138 382.964 704.254 389.615 704 396.256Z" fill="black"/>
<path d="M700.183 364.192C717.979 370.6 686.743 418.792 677.035 423.76C667.327 428.728 641.815 423.004 641.815 423.004L643.399 408.112C643.399 408.112 663.595 409.48 667.615 408.46C671.635 407.44 681.187 386.86 686.683 377.2C689.734 371.575 694.449 367.031 700.183 364.192Z" fill="#263238"/>
<path opacity="0.2" d="M645.812 591.076L624.656 592.456L622.844 583.396L646.088 582.328L645.812 591.076Z" fill="white"/>
<path opacity="0.2" d="M620.671 582.208L600.271 587.98L596.611 579.496L619.123 573.604L620.671 582.208Z" fill="white"/>
<path d="M609.896 596.776L620.312 593.872C620.484 593.818 620.67 593.833 620.831 593.914C620.993 593.994 621.116 594.134 621.176 594.304L623.996 602.416C624.114 602.854 624.054 603.32 623.829 603.713C623.604 604.107 623.233 604.395 622.796 604.516C619.136 605.464 617.348 605.716 612.752 606.988C609.932 607.768 604.436 609.568 600.416 610.024C596.396 610.48 596.06 606.496 597.716 605.956C601.652 604.636 606.368 600.532 608.408 597.748C608.782 597.267 609.306 596.925 609.896 596.776Z" fill="#263238"/>
<path d="M632 604.24C632 604.072 631.832 601.348 630.8 600.484C630.647 600.37 630.472 600.289 630.286 600.246C630.1 600.203 629.908 600.198 629.72 600.232C629.525 600.25 629.341 600.33 629.195 600.459C629.048 600.589 628.946 600.761 628.904 600.952C628.947 601.778 629.283 602.561 629.852 603.16C629.049 602.689 628.106 602.515 627.188 602.668C627.057 602.731 626.944 602.826 626.858 602.943C626.772 603.06 626.717 603.196 626.696 603.34C626.64 603.554 626.643 603.779 626.707 603.991C626.77 604.203 626.891 604.393 627.056 604.54C627.597 604.885 628.248 605.013 628.88 604.9C629.736 604.83 630.582 604.66 631.4 604.396C631.413 604.402 631.427 604.406 631.442 604.406C631.456 604.406 631.471 604.402 631.484 604.396V604.324C631.484 604.324 631.712 604.324 631.724 604.24C631.736 604.156 631.928 604.24 631.928 604.24H632ZM629.348 601C629.348 600.868 629.432 600.7 629.744 600.64H629.852C629.942 600.632 630.033 600.644 630.118 600.675C630.203 600.706 630.28 600.756 630.344 600.82C630.956 601.324 631.124 602.848 631.16 603.76L630.968 603.652C630.132 602.986 629.559 602.047 629.348 601ZM627.38 604.18C627.287 604.075 627.222 603.949 627.191 603.813C627.16 603.677 627.163 603.535 627.2 603.4C627.207 603.33 627.233 603.262 627.276 603.205C627.318 603.148 627.375 603.104 627.44 603.076C628.052 602.788 629.696 603.496 630.86 604.132C629.132 604.6 627.86 604.6 627.38 604.228V604.18Z" fill="#FF9E22"/>
<path d="M632.228 603.076L643.028 602.404C643.117 602.392 643.208 602.399 643.295 602.423C643.382 602.447 643.463 602.488 643.533 602.544C643.604 602.6 643.662 602.67 643.705 602.749C643.748 602.828 643.775 602.915 643.784 603.004L644.84 611.524C644.856 611.746 644.829 611.969 644.758 612.179C644.688 612.39 644.576 612.585 644.43 612.752C644.284 612.92 644.106 613.057 643.906 613.155C643.707 613.253 643.49 613.31 643.268 613.324C639.5 613.504 637.688 613.396 632.936 613.66C630.02 613.828 624.272 614.452 620.24 614.056C616.208 613.66 616.712 609.7 618.452 609.508C622.568 609.04 628.052 606.016 630.608 603.712C631.063 603.326 631.633 603.103 632.228 603.076Z" fill="#263238"/>
<path d="M584.133 614.2H591.477L592.689 430.3H582.933L584.133 614.2Z" fill="#FF9E22"/>
<path opacity="0.4" d="M582.92 430.6L583.112 460.276L584.12 614.2H591.476L592.484 460.276L592.676 430.6H582.92Z" fill="white"/>
<path opacity="0.2" d="M582.92 430.6L583.112 460.6H592.484L592.676 430.6H582.92Z" fill="black"/>
<path d="M506.084 614.2H513.428L526.64 430.3H516.884L506.084 614.2Z" fill="#FF9E22"/>
<path opacity="0.5" d="M506.071 614.2H513.427L525.991 439.444L526.639 430.6H516.883L516.355 439.444L506.071 614.2Z" fill="white"/>
<path opacity="0.2" d="M516.355 439H525.991L526.639 430.6H516.883L516.355 439Z" fill="black"/>
<path d="M662.18 614.2H669.524L658.724 430.3H648.968L662.18 614.2Z" fill="#FF9E22"/>
<path opacity="0.5" d="M648.968 430.6L649.616 439.444L662.18 614.2H669.524L659.252 439.444L658.724 430.6H648.968Z" fill="white"/>
<path opacity="0.2" d="M658.724 430.6H648.968L649.616 439H659.252L658.724 430.6Z" fill="black"/>
<path d="M663.86 434.908H511.748C511.408 434.908 511.071 434.841 510.756 434.711C510.442 434.581 510.156 434.39 509.915 434.149C509.675 433.908 509.484 433.623 509.353 433.308C509.223 432.994 509.156 432.657 509.156 432.316V425.704H666.452V432.316C666.452 433.004 666.179 433.663 665.693 434.149C665.207 434.635 664.548 434.908 663.86 434.908Z" fill="#FF9E22"/>
<path opacity="0.6" d="M663.86 434.908H511.748C511.408 434.908 511.071 434.841 510.756 434.711C510.442 434.581 510.156 434.39 509.915 434.149C509.675 433.908 509.484 433.623 509.353 433.308C509.223 432.994 509.156 432.657 509.156 432.316V425.704H666.452V432.316C666.452 433.004 666.179 433.663 665.693 434.149C665.207 434.635 664.548 434.908 663.86 434.908Z" fill="white"/>
<path opacity="0.2" d="M509.156 430.3H666.452V425.692H509.156V430.3Z" fill="black"/>
<path d="M504.596 426.904H671.012C671.7 426.901 672.36 426.625 672.845 426.137C673.331 425.649 673.604 424.989 673.604 424.3C673.604 423.613 673.331 422.953 672.845 422.467C672.359 421.981 671.699 421.708 671.012 421.708H504.596C503.908 421.708 503.249 421.981 502.763 422.467C502.277 422.953 502.004 423.613 502.004 424.3C502.004 424.989 502.277 425.649 502.762 426.137C503.248 426.625 503.907 426.901 504.596 426.904Z" fill="#FF9E22"/>
<path opacity="0.6" d="M504.596 426.904H671.012C671.7 426.901 672.36 426.625 672.845 426.137C673.331 425.649 673.604 424.989 673.604 424.3C673.604 423.613 673.331 422.953 672.845 422.467C672.359 421.981 671.699 421.708 671.012 421.708H504.596C503.908 421.708 503.249 421.981 502.763 422.467C502.277 422.953 502.004 423.613 502.004 424.3C502.004 424.989 502.277 425.649 502.762 426.137C503.248 426.625 503.907 426.901 504.596 426.904Z" fill="white"/>
<line x1="86.0012" y1="612.5" x2="947.001" y2="614.498" stroke="#E0E0E0"/>
</svg>
