<svg width="50" height="50" viewBox="0 0 50 50" fill="none" xmlns="http://www.w3.org/2000/svg">
<path d="M1 38.8571C1 33.3343 5.47715 28.8571 11 28.8571H15.6154C21.1382 28.8571 25.6154 33.3343 25.6154 38.8571V46H1V38.8571Z" fill="black"/>
<path d="M24.3846 38.8571C24.3846 33.3343 28.8618 28.8571 34.3846 28.8571H39C44.5229 28.8571 49 33.3343 49 38.8571V46H24.3846V38.8571Z" fill="black"/>
<path d="M12.0769 33.1429C12.0769 27.62 16.5541 23.1429 22.0769 23.1429H26.6923C32.2151 23.1429 36.6923 27.62 36.6923 33.1429V46H12.0769V33.1429Z" fill="#FF9103"/>
<ellipse cx="24.3846" cy="13.1429" rx="9.84615" ry="9.14286" fill="#FF9103"/>
<ellipse cx="39.1539" cy="23.1429" rx="4.92308" ry="4.57143" fill="black"/>
<ellipse cx="9.61537" cy="23.1429" rx="4.92308" ry="4.57143" fill="black"/>
</svg>
