<svg width="1598" height="1598" viewBox="0 0 1598 1598" fill="none" xmlns="http://www.w3.org/2000/svg">
<g clip-path="url(#clip0_69_1254)">
<path d="M1540.13 41.9102H518.247V526.994H1540.13V41.9102Z" fill="#DADADA"/>
<path d="M1540.13 41.9102H1166.36V526.994H1540.13V41.9102Z" fill="#FFD9A9"/>
<path d="M1188.49 32H500.142V544.992H1188.49V32H1188.49ZM1150.09 506.588H538.546V70.404H1150.09V506.588Z" fill="#C3C0D0"/>
<path d="M1556.12 32H867.77V544.992H1556.12V32ZM1517.72 506.588H906.174V70.404H1517.72V506.588Z" fill="#C3C0D0"/>
<path d="M1188.49 32H500.142V544.992H1188.49V32Z" stroke="#1F1F1F" stroke-miterlimit="10" stroke-linecap="round" stroke-linejoin="round"/>
<path d="M1556.12 32H1188.49V544.992H1556.12V32Z" stroke="#1F1F1F" stroke-miterlimit="10" stroke-linecap="round" stroke-linejoin="round"/>
<path d="M1150.09 70.4041H538.545V506.588H1150.09V70.4041Z" stroke="#1F1F1F" stroke-miterlimit="10" stroke-linecap="round" stroke-linejoin="round"/>
<path d="M1517.72 70.4041H1188.49V506.588H1517.72V70.4041Z" stroke="#1F1F1F" stroke-miterlimit="10" stroke-linecap="round" stroke-linejoin="round"/>
<path d="M906.174 70.4041H867.77V506.588H906.174V70.4041Z" stroke="#1F1F1F" stroke-miterlimit="10" stroke-linecap="round" stroke-linejoin="round"/>
<path d="M1176.43 245.423H1166.36V335.974H1176.43V245.423Z" stroke="#1F1F1F" stroke-miterlimit="10" stroke-linecap="round" stroke-linejoin="round"/>
<path d="M185.929 440.083C269.648 440.083 337.516 372.215 337.516 288.496C337.516 204.777 269.648 136.909 185.929 136.909C102.21 136.909 34.3418 204.777 34.3418 288.496C34.3418 372.215 102.21 440.083 185.929 440.083Z" fill="#DADADA"/>
<path d="M279.389 381.959C331.007 330.341 331.007 246.652 279.389 195.033C227.771 143.415 144.081 143.415 92.4629 195.033C40.8448 246.652 40.8448 330.341 92.4629 381.959C144.081 433.577 227.771 433.577 279.389 381.959Z" fill="#FFD9A9"/>
<path d="M178.002 288.496C178.002 292.876 181.553 296.423 185.929 296.423C190.309 296.423 193.856 292.872 193.856 288.496C193.856 284.12 190.309 280.569 185.929 280.569C181.553 280.569 178.002 284.116 178.002 288.496Z" fill="#1F1F1F"/>
<path d="M178.002 184.226C178.002 188.606 181.553 192.154 185.929 192.154C190.309 192.154 193.856 188.606 193.856 184.226C193.856 179.847 190.309 176.299 185.929 176.299C181.553 176.299 178.002 179.85 178.002 184.226Z" fill="#1F1F1F"/>
<path d="M178.002 392.762C178.002 397.142 181.553 400.689 185.929 400.689C190.309 400.689 193.856 397.142 193.856 392.762C193.856 388.382 190.309 384.835 185.929 384.835C181.553 384.835 178.002 388.386 178.002 392.762Z" fill="#1F1F1F"/>
<path d="M126.93 202.16C129.119 205.951 133.967 207.251 137.758 205.061C141.548 202.871 142.848 198.023 140.659 194.233C138.469 190.442 133.621 189.142 129.83 191.332C126.04 193.518 124.743 198.37 126.93 202.16Z" fill="#1F1F1F"/>
<path d="M231.199 382.756C233.389 386.546 238.237 387.846 242.027 385.656C245.817 383.467 247.118 378.619 244.928 374.828C242.738 371.038 237.89 369.738 234.1 371.927C230.309 374.117 229.009 378.965 231.199 382.756Z" fill="#1F1F1F"/>
<path d="M102.454 240.443C104.705 236.687 103.485 231.818 99.7294 229.567C95.9739 227.317 91.1048 228.536 88.854 232.292C86.6032 236.048 87.823 240.917 91.5786 243.167C95.3341 245.418 100.203 244.198 102.454 240.443Z" fill="#1F1F1F"/>
<path d="M272.264 347.496C276.055 349.685 280.906 348.385 283.092 344.595C285.279 340.804 283.982 335.953 280.192 333.767C276.401 331.577 271.55 332.877 269.363 336.667C267.174 340.458 268.474 345.306 272.264 347.496Z" fill="#1F1F1F"/>
<path d="M81.6629 296.423C86.0428 296.423 89.5902 292.872 89.5902 288.496C89.5902 284.12 86.0392 280.569 81.6629 280.569C77.2831 280.569 73.7356 284.116 73.7356 288.496C73.7356 292.876 77.2831 296.423 81.6629 296.423Z" fill="#1F1F1F"/>
<path d="M290.199 296.423C294.578 296.423 298.126 292.872 298.126 288.496C298.126 284.12 294.575 280.569 290.199 280.569C285.819 280.569 282.271 284.116 282.271 288.496C282.271 292.876 285.819 296.423 290.199 296.423Z" fill="#1F1F1F"/>
<path d="M99.5969 347.496C103.387 345.306 104.688 340.458 102.498 336.667C100.308 332.877 95.46 331.577 91.6696 333.767C87.8792 335.957 86.5789 340.804 88.7688 344.595C90.9587 348.385 95.803 349.685 99.5969 347.496Z" fill="#1F1F1F"/>
<path d="M280.192 243.226C283.983 241.036 285.283 236.188 283.093 232.398C280.903 228.607 276.055 227.307 272.265 229.497C268.474 231.687 267.174 236.535 269.364 240.325C271.554 244.115 276.402 245.416 280.192 243.226Z" fill="#1F1F1F"/>
<path d="M140.662 382.756C142.852 378.965 141.552 374.114 137.761 371.927C133.971 369.738 129.119 371.038 126.933 374.828C124.743 378.619 126.044 383.47 129.834 385.656C133.624 387.846 138.472 386.55 140.662 382.756Z" fill="#1F1F1F"/>
<path d="M244.928 202.16C247.118 198.37 245.818 193.518 242.027 191.332C238.237 189.142 233.386 190.442 231.199 194.233C229.009 198.023 230.31 202.875 234.1 205.061C237.89 207.247 242.742 205.951 244.928 202.16Z" fill="#1F1F1F"/>
<path d="M254.538 288.496H185.929V231.358" stroke="#45423F" stroke-miterlimit="10" stroke-linecap="round" stroke-linejoin="round"/>
<path d="M801.402 1566.62C1241.9 1566.62 1599 1470.78 1599 1352.56C1599 1234.34 1241.9 1138.5 801.402 1138.5C360.901 1138.5 3.80469 1234.34 3.80469 1352.56C3.80469 1470.78 360.901 1566.62 801.402 1566.62Z" fill="#DADADA"/>
<path d="M801.402 1484.93C1156.12 1484.93 1443.67 1425.67 1443.67 1352.56C1443.67 1279.45 1156.12 1220.19 801.402 1220.19C446.685 1220.19 159.131 1279.45 159.131 1352.56C159.131 1425.67 446.685 1484.93 801.402 1484.93Z" stroke="#1F1F1F" stroke-miterlimit="10" stroke-linecap="round" stroke-linejoin="round"/>
<path d="M1361.2 1111.47H1277.1C1211.19 1111.47 1157.76 1164.9 1157.76 1230.81V1434.25H1480.54V1230.81C1480.54 1164.9 1427.11 1111.47 1361.2 1111.47Z" fill="#C3C0D0"/>
<path d="M1480.54 1230.81H1157.76" stroke="#1F1F1F" stroke-miterlimit="10" stroke-linecap="round" stroke-linejoin="round"/>
<path d="M1095.27 484.024H1154.38C1204.23 484.024 1245.01 524.808 1245.01 574.651C1245.01 598.193 1235.91 619.707 1221.05 635.861L1245.01 700.648L1187.7 658.868C1177.37 662.987 1166.13 665.277 1154.38 665.277H1095.27C1045.43 665.277 1004.64 624.497 1004.64 574.651C1004.64 524.804 1045.43 484.024 1095.27 484.024Z" fill="white" stroke="#1F1F1F" stroke-miterlimit="10" stroke-linecap="round" stroke-linejoin="round"/>
<path d="M1124.83 627.766C1154.67 627.766 1178.86 603.574 1178.86 573.733C1178.86 543.891 1154.67 519.699 1124.83 519.699C1094.99 519.699 1070.79 543.891 1070.79 573.733C1070.79 603.574 1094.99 627.766 1124.83 627.766Z" fill="#FF9103" stroke="#1F1F1F" stroke-miterlimit="10" stroke-linecap="round" stroke-linejoin="round"/>
<path d="M1093.34 570.986C1093.34 588.376 1107.44 602.477 1124.83 602.477C1142.22 602.477 1156.32 588.376 1156.32 570.986" fill="#FF9103"/>
<path d="M1093.34 570.986C1093.34 588.376 1107.44 602.477 1124.83 602.477C1142.22 602.477 1156.32 588.376 1156.32 570.986" stroke="#1F1F1F" stroke-width="2" stroke-miterlimit="10" stroke-linecap="round" stroke-linejoin="round"/>
<path d="M1110.76 544.989V572.572" stroke="#1F1F1F" stroke-width="2" stroke-miterlimit="10" stroke-linecap="round" stroke-linejoin="round"/>
<path d="M1138.9 544.989V572.572" stroke="#1F1F1F" stroke-width="2" stroke-miterlimit="10" stroke-linecap="round" stroke-linejoin="round"/>
<path d="M1344.61 792.064C1294.63 771.997 1269.93 937.367 1269.93 937.367L1161.4 938.149C1158.07 932.551 1152.86 926.428 1144.65 921.091C1122.46 906.658 1119.24 890.224 1112.7 891.053C1106.17 891.882 1110.59 910.198 1124.15 926.042C1103.01 925.156 1088.13 896.816 1077.45 890.857C1074.92 889.446 1071.85 891.428 1071.75 894.329C1071.26 909.812 1075.31 930.129 1090.92 946.541C1107.97 964.467 1146.99 975.885 1146.99 975.885C1146.99 975.885 1298.2 1033.96 1326.58 990.864C1364.18 933.773 1394.58 812.127 1344.61 792.064Z" fill="white" stroke="#1F1F1F" stroke-miterlimit="10" stroke-linecap="round" stroke-linejoin="round"/>
<path d="M1194.58 1374.85C1194.58 1374.85 1155.12 1391.11 1121.52 1407.65C1087.92 1424.19 1121.12 1432.48 1121.12 1432.48L1231.88 1434.25C1241.96 1434.41 1250.26 1426.37 1250.42 1416.29L1251.1 1373.6L1194.58 1374.85Z" fill="#1F1F1F" stroke="#1F1F1F" stroke-miterlimit="10" stroke-linecap="round" stroke-linejoin="round"/>
<path d="M1049.96 1374.85C1049.96 1374.85 1010.5 1391.11 976.895 1407.65C943.296 1424.19 976.499 1432.48 976.499 1432.48L1087.26 1434.25C1097.33 1434.41 1105.64 1426.37 1105.8 1416.29L1106.48 1373.6L1049.96 1374.85Z" fill="#1F1F1F" stroke="#1F1F1F" stroke-miterlimit="10" stroke-linecap="round" stroke-linejoin="round"/>
<path d="M1411.04 1043.75C1411.04 1043.75 1320.7 990.775 1172 1046.68C1023.29 1102.59 1058.46 1157.44 1075.77 1182.79C1093.08 1208.13 1194.58 1374.85 1194.58 1374.85L1251.1 1373.6L1181.26 1176.3L1330.33 1148.27C1381.69 1142.08 1418.03 1095.02 1411.04 1043.75Z" fill="#787878" stroke="#1F1F1F" stroke-miterlimit="10" stroke-linecap="round" stroke-linejoin="round"/>
<path d="M1265.55 928.403C1265.55 928.403 1276.76 881.314 1291 827.988C1311.05 752.931 1367.08 742.863 1362.92 833.643C1358.75 924.42 1327.18 969.812 1327.18 969.812" fill="#FFBE6B"/>
<path d="M1265.55 928.403C1265.55 928.403 1276.76 881.314 1291 827.988C1311.05 752.931 1367.08 742.863 1362.92 833.643C1358.75 924.42 1327.18 969.812 1327.18 969.812" stroke="#1F1F1F" stroke-miterlimit="10" stroke-linecap="round" stroke-linejoin="round"/>
<path d="M1259.22 937.177C1259.22 937.177 1274.67 939.392 1304.37 989.242C1313.37 999.277 1345.68 971.487 1333.51 950.742C1321.33 929.997 1264.79 891.8 1259.22 937.177Z" fill="#FFBE6B" stroke="#1F1F1F" stroke-miterlimit="10" stroke-linecap="round" stroke-linejoin="round"/>
<path d="M1115.26 1122.88C1153.95 1085.01 1345.11 1043.69 1345.11 1043.69H1441.32C1428.17 1197.95 1181.25 1176.3 1181.25 1176.3L1106.48 1373.6L1049.96 1374.85C1049.96 1374.85 1076.57 1160.75 1115.26 1122.88Z" fill="#787878" stroke="#1F1F1F" stroke-miterlimit="10" stroke-linecap="round" stroke-linejoin="round"/>
<path d="M1461.68 840.256C1469.24 889.546 1468.7 971.798 1433.01 1099.75C1352.6 1078.95 1275.99 1022.29 1275.99 1022.29C1275.99 1022.29 1275.99 895.655 1306.58 814.42C1319.17 780.96 1354.07 761.408 1389.27 767.703C1389.72 767.785 1390.17 767.864 1390.62 767.946C1427.27 774.537 1456.03 803.442 1461.68 840.256Z" fill="#FFBE6B" stroke="#1F1F1F" stroke-miterlimit="10" stroke-linecap="round" stroke-linejoin="round"/>
<path d="M1363.78 815.424C1349.06 819.986 1333.65 810.73 1330.77 795.597L1311.15 692.781L1380.3 679.592L1395.98 761.801C1400.46 785.265 1386.6 808.351 1363.78 815.424Z" fill="white"/>
<mask id="mask0_69_1254" style="mask-type:luminance" maskUnits="userSpaceOnUse" x="1311" y="679" width="86" height="138">
<path d="M1363.78 815.424C1349.06 819.986 1333.65 810.73 1330.77 795.597L1311.15 692.781L1380.3 679.592L1395.98 761.801C1400.46 785.265 1386.6 808.351 1363.78 815.424Z" fill="white"/>
</mask>
<g mask="url(#mask0_69_1254)">
<path d="M1385.85 730.746C1365.25 779.331 1326.54 797.854 1294.27 784.175C1262.01 770.496 1248.4 729.799 1268.99 681.21C1289.59 632.624 1326.23 618.988 1358.5 632.667C1390.77 646.346 1406.44 682.16 1385.85 730.746Z" fill="#B0ADC3"/>
</g>
<path d="M1363.78 815.424C1349.06 819.986 1333.65 810.73 1330.77 795.597L1311.15 692.781L1380.3 679.592L1395.98 761.801C1400.46 785.265 1386.6 808.351 1363.78 815.424Z" stroke="#1F1F1F" stroke-miterlimit="10" stroke-linecap="round" stroke-linejoin="round"/>
<path d="M1402.62 699.501C1382.03 748.087 1343.32 766.61 1311.05 752.931C1278.78 739.252 1265.18 698.554 1285.77 649.965C1306.37 601.38 1343.01 587.744 1375.27 601.423C1407.54 615.105 1423.22 650.919 1402.62 699.501Z" fill="white" stroke="#1F1F1F" stroke-miterlimit="10" stroke-linecap="round" stroke-linejoin="round"/>
<path d="M1415.14 801.684C1365.17 781.618 1344.29 957.998 1344.29 957.998L1258.46 973.559C1254.8 968.204 1245.09 957.187 1225.53 954.068C1199.39 949.899 1189.76 936.191 1184.13 939.607C1178.5 943.022 1189.98 957.958 1208.81 966.925C1189.13 974.706 1164.02 954.854 1151.84 953.754C1148.95 953.493 1146.95 956.554 1148.05 959.241C1153.89 973.588 1165.84 990.507 1186.78 999.16C1204.5 1006.49 1232.63 1004.87 1244.41 1003.78C1276.41 1012.73 1373.51 1036.33 1397.11 1000.49C1434.71 943.394 1465.12 821.751 1415.14 801.684Z" fill="white" stroke="#1F1F1F" stroke-miterlimit="10" stroke-linecap="round" stroke-linejoin="round"/>
<path d="M1398.63 726.052C1398.63 726.052 1357.84 722.572 1391.29 638.541C1373.34 605.906 1315.23 609.2 1315.23 609.2C1315.23 609.2 1330.1 559.975 1390.47 596.404C1450.85 632.832 1428 663.448 1398.63 726.052Z" fill="#1F1F1F"/>
<path d="M1375.63 701.191C1380.93 688.705 1390.34 685.2 1398.64 688.716C1406.93 692.231 1410.96 701.437 1405.67 713.923C1400.37 726.409 1390.42 731.171 1382.13 727.655" fill="white"/>
<path d="M1375.63 701.191C1380.93 688.705 1390.34 685.2 1398.64 688.716C1406.93 692.231 1410.96 701.437 1405.67 713.923C1400.37 726.409 1390.42 731.171 1382.13 727.655" stroke="#1F1F1F" stroke-miterlimit="10" stroke-linecap="round" stroke-linejoin="round"/>
<path d="M1343.95 951.603C1343.95 951.603 1352.77 899.184 1362.75 844.901C1372.72 790.614 1445.48 766.067 1441.32 856.847C1437.15 947.627 1405.58 993.015 1405.58 993.015" fill="#FFBE6B"/>
<path d="M1343.95 951.603C1343.95 951.603 1352.77 899.184 1362.75 844.901C1372.72 790.614 1445.48 766.067 1441.32 856.847C1437.15 947.627 1405.58 993.015 1405.58 993.015" stroke="#1F1F1F" stroke-miterlimit="10" stroke-linecap="round" stroke-linejoin="round"/>
<path d="M1337.61 960.373C1337.61 960.373 1353.07 962.588 1382.77 1012.44C1391.77 1022.47 1424.08 994.683 1411.9 973.938C1399.73 953.196 1343.19 914.996 1337.61 960.373Z" fill="#FFBE6B" stroke="#1F1F1F" stroke-miterlimit="10" stroke-linecap="round" stroke-linejoin="round"/>
<path d="M974.551 960.373H1282.22C1287.07 960.373 1291.01 964.31 1291.01 969.165V970.558C1291.01 975.413 1287.07 979.35 1282.22 979.35H974.551V960.373Z" fill="#1F1F1F"/>
<path d="M922.437 827.992H1171.57L1212.21 979.347H963.088L922.437 827.992Z" fill="#1F1F1F"/>
<path d="M1067.33 1023.02H1032.59V1418.57H1067.33V1023.02Z" fill="#C3C0D0"/>
<path d="M1176.97 1438.24C1176.97 1416.52 1159.36 1398.91 1137.64 1398.91H962.273C940.552 1398.91 922.943 1416.52 922.943 1438.24H1176.97Z" fill="#323232"/>
<path d="M829.238 1029.76H1270.68C1284.28 1029.76 1295.41 1018.63 1295.41 1005.03C1295.41 991.433 1284.28 980.304 1270.68 980.304H829.238C815.638 980.304 804.51 991.433 804.51 1005.03C804.51 1018.63 815.638 1029.76 829.238 1029.76Z" fill="#323232"/>
<mask id="mask1_69_1254" style="mask-type:luminance" maskUnits="userSpaceOnUse" x="1043" y="777" width="50" height="492">
<path d="M1043.21 802.299V1243.74C1043.21 1257.34 1054.34 1268.47 1067.94 1268.47C1081.54 1268.47 1092.67 1257.34 1092.67 1243.74V802.299C1092.67 788.699 1081.54 777.57 1067.94 777.57C1054.34 777.57 1043.21 788.699 1043.21 802.299Z" fill="white"/>
</mask>
<g mask="url(#mask1_69_1254)">
<path d="M1326.38 1040.39V1005.65L773.53 1005.65V1040.39H1326.38Z" fill="#4D4D4D"/>
</g>
<path d="M52.5975 1052.92C52.5975 1052.92 51.4007 1018.17 38.2326 942.608C25.0645 867.05 -19.2198 724.831 17.8838 693.479C54.991 662.123 77.7298 757.233 77.7298 757.233V1073.12L52.5975 1052.92Z" fill="#3F9D00"/>
<path d="M100.29 1155.17C100.29 1155.17 101.486 1120.42 114.655 1044.86C127.823 969.305 172.107 827.085 135.003 795.733C97.8997 764.381 75.1538 859.488 75.1538 859.488V1175.38L100.29 1155.17Z" fill="#3F9D00"/>
<path d="M100.136 919.33C100.136 919.33 99.6788 884.537 109.217 807.597C118.756 730.657 156.16 583.464 117.666 556.706C94.9239 540.905 74.8252 572.829 67.3016 605.296C53.6476 664.213 66.8943 750.741 69.8416 812.62C70.3989 824.309 81.4557 937.313 76.0291 942.536L100.136 919.33Z" fill="#3F9D00"/>
<path d="M87.0717 1329.28C54.3478 1329.28 27.8223 1302.76 27.8223 1270.03V1000.18H146.321V1270.03C146.321 1302.76 119.795 1329.28 87.0717 1329.28Z" fill="#EFC43D"/>
<path d="M66.4192 723.559C66.4192 723.559 84.8746 796.769 87.9969 1000.18L66.4192 723.559Z" fill="#3F9D00"/>
<path d="M66.4192 723.559C66.4192 723.559 84.8746 796.769 87.9969 1000.18" stroke="#1F1F1F" stroke-miterlimit="10" stroke-linecap="round" stroke-linejoin="round"/>
<path d="M110.582 797.441C110.582 797.441 97.971 827.992 86.1426 929.09L110.582 797.441Z" fill="#3F9D00"/>
<path d="M110.582 797.441C110.582 797.441 97.971 827.992 86.1426 929.09" stroke="#1F1F1F" stroke-miterlimit="10" stroke-linecap="round" stroke-linejoin="round"/>
<path d="M27.8223 1000.18H146.321" stroke="#1F1F1F" stroke-miterlimit="10" stroke-linecap="round" stroke-linejoin="round"/>
<path d="M27.8223 1061.33H146.321" stroke="#1F1F1F" stroke-miterlimit="10" stroke-linecap="round" stroke-linejoin="round"/>
<path d="M27.8223 1073.12H146.321" stroke="#1F1F1F" stroke-miterlimit="10" stroke-linecap="round" stroke-linejoin="round"/>
<path d="M27.8223 1188.14H146.321" stroke="#1F1F1F" stroke-miterlimit="10" stroke-linecap="round" stroke-linejoin="round"/>
<path d="M505.111 941.986H421.015C355.103 941.986 301.673 995.42 301.673 1061.33V1264.77H624.456V1061.33C624.453 995.42 571.019 941.986 505.111 941.986Z" fill="#C3C0D0"/>
<path d="M624.453 1061.33H301.669" stroke="#1F1F1F" stroke-miterlimit="10" stroke-linecap="round" stroke-linejoin="round"/>
<path d="M557.15 1285.4C557.326 1304.66 534.533 1315.46 519.343 1303.61C511.284 1297.33 501.742 1288.02 491.203 1274.23C459.115 1232.25 427.031 1192.52 469.811 1174.19C512.591 1155.86 538.566 1224.57 552.32 1261.26C555.757 1270.43 557.086 1278.48 557.15 1285.4Z" fill="#1F1F1F" stroke="#1F1F1F" stroke-miterlimit="10" stroke-linecap="round" stroke-linejoin="round"/>
<path d="M704.172 889.746L583.034 844.211C583.034 844.211 601.214 671.815 547.963 679.863C494.712 687.912 499.17 797.68 510.002 865.178C520.837 932.676 690.372 919.569 690.372 919.569L704.172 889.746Z" fill="white" stroke="#1F1F1F" stroke-miterlimit="10" stroke-linecap="round" stroke-linejoin="round"/>
<path d="M495.691 797.44L594.409 796.604C594.409 796.604 601.725 674.64 550.325 674.487C498.924 674.33 495.691 797.44 495.691 797.44Z" fill="#C36E00" stroke="#1F1F1F" stroke-miterlimit="10" stroke-linecap="round" stroke-linejoin="round"/>
<path d="M430.014 652.577C457.172 653.259 496.948 656.024 540.786 664.877C562.349 669.232 577.893 685.961 578.8 705.839C582.576 788.581 528.518 955.615 528.518 955.615H387.327C387.327 955.615 352.034 776.766 371.915 689.009C378.553 659.725 396.833 651.744 430.014 652.577Z" fill="#C36E00" stroke="#1F1F1F" stroke-miterlimit="10" stroke-linecap="round" stroke-linejoin="round"/>
<path d="M376.516 906.122H541.882C541.882 906.122 656.458 896.601 671.056 964.403C476.224 990.018 290.902 986.552 290.902 986.552L284.611 911.384C284.611 911.384 303.927 888.524 376.516 906.122Z" fill="#787878" stroke="#1F1F1F" stroke-miterlimit="10" stroke-linecap="round" stroke-linejoin="round"/>
<path d="M284.608 911.385C199.133 961.353 364.81 1150.42 439.767 1203.01C471.326 1187.21 482.115 1167.5 482.115 1167.5C482.115 1167.5 436.502 1042.88 381.279 965.654" fill="#787878"/>
<path d="M284.608 911.385C199.133 961.353 364.81 1150.42 439.767 1203.01C471.326 1187.21 482.115 1167.5 482.115 1167.5C482.115 1167.5 436.502 1042.88 381.279 965.654" stroke="#1F1F1F" stroke-miterlimit="10" stroke-linecap="round" stroke-linejoin="round"/>
<path d="M219.421 1009.2C202.973 999.174 205.845 974.117 223.926 967.476C233.521 963.949 246.464 960.766 263.741 959.102C316.331 954.029 367.014 947.766 359.983 993.779C352.952 1039.79 280.885 1025.55 242.467 1017.85C232.864 1015.92 225.326 1012.8 219.421 1009.2Z" fill="#1F1F1F" stroke="#1F1F1F" stroke-miterlimit="10" stroke-linecap="round" stroke-linejoin="round"/>
<path d="M496.101 713.87C510.816 718.432 526.228 709.175 529.114 694.043L548.727 591.227L479.578 578.037L463.899 660.247C459.423 683.711 473.287 706.796 496.101 713.87Z" fill="white"/>
<mask id="mask2_69_1254" style="mask-type:luminance" maskUnits="userSpaceOnUse" x="463" y="578" width="86" height="138">
<path d="M496.101 713.87C510.816 718.432 526.228 709.175 529.114 694.043L548.727 591.227L479.578 578.037L463.899 660.247C459.423 683.711 473.287 706.796 496.101 713.87Z" fill="white"/>
</mask>
<g mask="url(#mask2_69_1254)">
<path d="M486.555 635.658C507.151 684.243 545.862 702.767 578.128 689.088C610.398 675.409 624.002 634.711 603.407 586.125C582.812 537.54 546.173 523.904 513.906 537.583C481.636 551.262 465.96 587.076 486.555 635.658Z" fill="#F5F5F5"/>
</g>
<path d="M496.101 713.87C510.816 718.432 526.228 709.175 529.114 694.043L548.727 591.227L479.578 578.037L463.899 660.247C459.423 683.711 473.287 706.796 496.101 713.87Z" stroke="#1F1F1F" stroke-miterlimit="10" stroke-linecap="round" stroke-linejoin="round"/>
<path d="M466.021 601.67C486.616 650.255 525.328 668.778 557.594 655.099C589.861 641.42 603.468 600.723 582.873 552.134C562.278 503.548 525.638 489.912 493.372 503.591C461.102 517.27 445.426 553.084 466.021 601.67Z" fill="white" stroke="#1F1F1F" stroke-miterlimit="10" stroke-linecap="round" stroke-linejoin="round"/>
<path d="M359.143 1021.81C359.143 1021.81 668.315 1076.67 671.03 977.697C673.749 878.725 437.22 927.121 352.981 962.993C349.726 998.131 359.143 1021.81 359.143 1021.81Z" fill="#787878" stroke="#1F1F1F" stroke-miterlimit="10" stroke-linecap="round" stroke-linejoin="round"/>
<path d="M578.136 887.86C565.925 887.095 538.089 902.893 519.83 892.208C539.8 886.206 553.425 873.191 548.374 868.961C543.326 864.732 531.73 876.814 505.258 876.953C493.986 877.014 485.502 880.093 479.447 883.605L378.371 850.06C378.371 850.06 455.229 667.41 401.906 659.858C348.584 652.306 307.493 790.349 298.523 858.119C289.552 925.889 471.233 912.721 471.233 912.721L471.591 912.32L473.666 921.788C473.666 921.788 512.663 933.284 536.702 927.421C558.712 922.055 573.099 907.151 581.055 893.862C582.541 891.372 581.03 888.046 578.136 887.86Z" fill="white"/>
<mask id="mask3_69_1254" style="mask-type:luminance" maskUnits="userSpaceOnUse" x="298" y="659" width="284" height="271">
<path d="M578.136 887.86C565.925 887.095 538.089 902.893 519.83 892.208C539.8 886.206 553.425 873.191 548.374 868.961C543.326 864.732 531.73 876.814 505.258 876.953C493.986 877.014 485.502 880.093 479.447 883.605L378.371 850.06C378.371 850.06 455.229 667.41 401.906 659.858C348.584 652.306 307.493 790.349 298.523 858.119C289.552 925.889 471.233 912.721 471.233 912.721L471.591 912.32L473.666 921.788C473.666 921.788 512.663 933.284 536.702 927.421C558.712 922.055 573.099 907.151 581.055 893.862C582.541 891.372 581.03 888.046 578.136 887.86Z" fill="white"/>
</mask>
<g mask="url(#mask3_69_1254)">
<path d="M420.09 764.688L301.191 728.549L304.742 769.382L408.976 808.69L420.09 764.688Z" fill="#F5F5F5"/>
</g>
<path d="M578.136 887.86C565.925 887.095 538.089 902.893 519.83 892.208C539.8 886.206 553.425 873.191 548.374 868.961C543.326 864.732 531.73 876.814 505.258 876.953C493.986 877.014 485.502 880.093 479.447 883.605L378.371 850.06C378.371 850.06 455.229 667.41 401.906 659.858C348.584 652.306 307.493 790.349 298.523 858.119C289.552 925.889 471.233 912.721 471.233 912.721L471.591 912.32L473.666 921.788C473.666 921.788 512.663 933.284 536.702 927.421C558.712 922.055 573.099 907.151 581.055 893.862C582.541 891.372 581.03 888.046 578.136 887.86Z" stroke="#1F1F1F" stroke-miterlimit="10" stroke-linecap="round" stroke-linejoin="round"/>
<path d="M742.562 910.309H419.032C414.055 910.309 410.022 914.342 410.022 919.319V920.269C410.022 925.246 414.055 929.279 419.032 929.279H742.562V910.309Z" fill="#1F1F1F"/>
<path d="M797.321 777.928H535.53L492.814 929.282H754.608L797.321 777.928Z" fill="#1F1F1F"/>
<path d="M470.094 627.763C470.094 627.763 510.166 629.567 485.691 547.168C498.745 521.875 537.002 509.811 558.666 515.845C587.674 481.084 527.3 421.528 453.057 465.584C378.814 509.636 394.118 589.262 470.094 627.763Z" fill="#1F1F1F"/>
<path d="M492.786 606.103C487.492 593.617 478.075 590.113 469.783 593.628C461.491 597.143 457.461 606.349 462.752 618.835C468.047 631.321 477.996 636.083 486.288 632.568" fill="white"/>
<path d="M492.786 606.103C487.492 593.617 478.075 590.113 469.783 593.628C461.491 597.143 457.461 606.349 462.752 618.835C468.047 631.321 477.996 636.083 486.288 632.568" stroke="#1F1F1F" stroke-miterlimit="10" stroke-linecap="round" stroke-linejoin="round"/>
<path d="M467.333 642.238L439.917 652.902L477.832 730.789L503.172 715.038L467.333 642.238Z" fill="#C36E00" stroke="#1F1F1F" stroke-miterlimit="10" stroke-linecap="round" stroke-linejoin="round"/>
<path d="M535.695 659.561L503.171 715.038L524.696 735.962L545.226 687.133L535.695 659.561Z" fill="#C36E00" stroke="#1F1F1F" stroke-miterlimit="10" stroke-linecap="round" stroke-linejoin="round"/>
<path d="M317.56 756.661L410.698 789.392C410.698 789.392 458.99 677.159 410.698 659.561C362.405 641.963 317.56 756.661 317.56 756.661Z" fill="#C36E00" stroke="#1F1F1F" stroke-miterlimit="10" stroke-linecap="round" stroke-linejoin="round"/>
<path d="M875.169 388.754H733.849C684.006 388.754 643.223 429.537 643.223 479.38C643.223 502.923 652.325 524.436 667.18 540.591L643.223 605.377L700.536 563.597C710.864 567.713 722.099 570.006 733.849 570.006H875.169C925.012 570.006 965.795 529.227 965.795 479.38C965.795 429.537 925.015 388.754 875.169 388.754Z" fill="white" stroke="#1F1F1F" stroke-miterlimit="10" stroke-linecap="round" stroke-linejoin="round"/>
<path d="M736.321 497.571C746.367 497.571 754.512 489.427 754.512 479.38C754.512 469.334 746.367 461.189 736.321 461.189C726.274 461.189 718.13 469.334 718.13 479.38C718.13 489.427 726.274 497.571 736.321 497.571Z" fill="#FF9103"/>
<path d="M876.901 497.571C886.948 497.571 895.093 489.427 895.093 479.38C895.093 469.334 886.948 461.189 876.901 461.189C866.855 461.189 858.71 469.334 858.71 479.38C858.71 489.427 866.855 497.571 876.901 497.571Z" fill="#FF9103"/>
<path d="M806.609 497.571C816.656 497.571 824.8 489.427 824.8 479.38C824.8 469.334 816.656 461.189 806.609 461.189C796.563 461.189 788.418 469.334 788.418 479.38C788.418 489.427 796.563 497.571 806.609 497.571Z" fill="#FF9103"/>
</g>
<defs>
<clipPath id="clip0_69_1254">
<rect width="1598" height="1598" fill="white"/>
</clipPath>
</defs>
</svg>
