<svg version="1.2" xmlns="http://www.w3.org/2000/svg" viewBox="0 0 3000 2000" width="3000" height="2000"><style>.a{fill:#fff}.b{opacity:.6;fill:#edf2ff}.c{fill:#102048}.d{fill:#708cd5}.e{fill:#ffcc84}.f{fill:#f9b384}.g{fill:#e28b6d}.h{opacity:.4;fill:#fc8879}.i{fill:#ee6f57}.j{fill:#6f3428}.k{fill:#1f3c88}.l{fill:#d3dfff}.m{opacity:.6;fill:#708cd5}.n{opacity:.3;fill:#708cd5}.o{fill:#edf2ff}.p{fill:#f5c7be}.q{opacity:.2;fill:#6f3428}.r{opacity:.1;fill:#6f3428}</style><g style="display:none"><path class="a" d="m3000 2000h-3000v-2000h3000z"/></g><path class="b" d="m2665.5 1473.4h-829.5c0 0-400.8-9.3-423.5 54.4h-1116.2c-211-408.7 239-600.6 238.4-716.3q0-1.2 0-2.4c0-282.7 255.3-511.9 570.2-511.9 33 0 65.3 2.5 96.8 7.3 97.5 15 196.7-9.3 276.3-69.7 74.7-56.6 165.2-89.8 262.7-89.8 182.5 0 340.4 116.1 416.2 285.1 50.8 112.9 150 193.7 267.6 217 199 39.5 360.8 176.4 410.4 373.3 39.6 157.1-43.7 376.3-169.4 453z"/><path class="b" d="m1227.2 244c-9.4-18.4 10.8-35.2 28.6-44.3 19.2-9.8 103.8-12.2 113.3 13.3 8.1 21.7-9.6 48.4-39.6 59.6-28.7 10.8-72.3 1.5-94.7-19-3.5-3.2-6-6.4-7.6-9.6z"/><path class="b" d="m160.5 854.5c-20.7-42.1 17.5-77.3 51.6-95.6 36.9-19.8 203.7-15.9 225.4 42.2 18.4 49.3-13.7 106.9-71.8 128.6-55.5 20.7-142.6-4.7-189.1-52.9-7.3-7.6-12.6-15-16.1-22.3z"/><path class="b" d="m1568.1 1707.9c-36.8-75.4 30.9-138.1 91.5-170.7 65.5-35.1 362.1-27.6 400.8 76.1 32.9 88.2-24 190.9-127.2 229.4-98.6 36.8-253.6-8.9-336.4-95.1-13-13.6-22.4-26.8-28.7-39.7z"/><path class="a" d="m1030 387l-31-53.5c11.5-18 18.1-39.3 18.1-62.1 0-63.9-51.7-115.6-115.6-115.6-63.8 0-115.6 51.7-115.6 115.6 0 63.8 51.8 115.6 115.6 115.6 27.2 0 52.2-9.4 72-25.1z"/><path fill-rule="evenodd" class="c" d="m1034.8 391.3l-61.1-27.1c-20.8 16.2-45.7 24.8-72.2 24.8-64.8 0-117.6-52.8-117.6-117.6 0-64.9 52.8-117.6 117.6-117.6 64.9 0 117.6 52.7 117.6 117.6 0 22-6.1 43.5-17.7 62.1zm-133.3-233.5c-62.7 0-113.7 50.9-113.7 113.6 0 62.6 51 113.6 113.7 113.6 25.9 0 50.4-8.5 70.7-24.7l0.9-0.7 52 23.1-28.5-49.3 0.7-1c11.6-18.2 17.8-39.3 17.8-61 0-62.7-51-113.6-113.6-113.6z"/><path class="d" d="m841.4 290.3c-8.3 0-15-6.7-15-15 0-8.3 6.7-15 15-15 8.3 0 15 6.7 15 15 0 8.3-6.7 15-15 15z"/><path class="d" d="m901.4 290.3c-8.3 0-15-6.7-15-15 0-8.3 6.7-15 15-15 8.3 0 15 6.7 15 15 0 8.3-6.7 15-15 15z"/><path class="d" d="m961.4 290.3c-8.3 0-15-6.7-15-15 0-8.3 6.7-15 15-15 8.3 0 15 6.7 15 15 0 8.3-6.7 15-15 15z"/><path class="a" d="m1668 506.9v554.3h-931.4v-554.3z"/><path class="e" d="m1668 504.9v118.2h-931.4v-118.2z"/><path fill-rule="evenodd" class="c" d="m1669.9 504.9v558.2h-935.2v-558.2zm-931.4 3.9v550.5h927.5v-550.5z"/><path fill-rule="evenodd" class="c" d="m809.9 593.2c-16.2 0-29.2-13-29.2-29.2 0-16.1 13-29.2 29.2-29.2 16.1 0 29.2 13.1 29.2 29.2 0 16.2-13.1 29.2-29.2 29.2zm25.2-29.2c0-13.9-11.3-25.2-25.2-25.2-14 0-25.2 11.3-25.2 25.2 0 14 11.2 25.2 25.2 25.2 13.9 0 25.2-11.2 25.2-25.2z"/><path class="a" d="m1686.7 578.3c-78.9 0-142.7-63.7-142.7-142.6 0-78.9 63.8-142.7 142.7-142.7 78.9 0 142.6 63.8 142.6 142.7 0 78.9-63.7 142.6-142.6 142.6z"/><path fill-rule="evenodd" class="c" d="m1686.7 580.3c-80 0-144.7-64.6-144.7-144.6 0-80 64.7-144.7 144.7-144.7 80 0 144.6 64.7 144.6 144.7 0 80-64.6 144.6-144.6 144.6zm140.6-144.6c0-77.8-62.8-140.7-140.6-140.7-77.8 0-140.7 62.9-140.7 140.7 0 77.8 62.9 140.6 140.7 140.6 77.8 0 140.6-62.8 140.6-140.6z"/><path class="c" d="m1685.8 438.5l-58.6-62.1 2.9-2.8 56.6 60.1 54-25 1.6 3.6z"/><path class="c" d="m1692 537v22h-8v-22z"/><path class="c" d="m1692 317.7v22h-8v-22z"/><path class="c" d="m1807 431.7v8h-22v-8z"/><path class="c" d="m1588.3 431.7v8h-22v-8z"/><path class="c" d="m1364 599.3l-91.3-7.4-93.4-5.3-59-5.8-0.3-35.3c0 0-11.6 19.2-19.9 33.3l-29.4-2.9c-23.4-32-12.7-54 11.3-66.6 24.6-13-14-60 24-80 0 0 30.9-11.4 39.3-28.7 14-28.7 39.4-89.3 114-54 2.2 1.1 10.3-1.4 12.8-1.6 10.1-0.5 20.4 0.6 30.1 3.5 12.7 3.8 24.1 11.1 32.8 21.2 15.3 17.8 14.2 43.3 30.6 60.4 7.7 8.1 16.6 17 21.8 27 7.6 14.7 0 30.2-2.5 45-3.3 19.3 8.7 33.8 10.4 52.4 2 22-11.5 37-31.3 44.8z"/><path class="f" d="m1154.5 649.9c12.5-35 19.3-81 14.5-140l110.5 39q0.4 2.4 0.7 4.7c3.4 21 8.8 43.7 16.1 64.3 5.1 14.6 11.2 28.1 18.2 39z"/><path class="g" d="m1296.3 617.9c-35.2-14.3-65-37-89.3-68.4l73.2 4.1c3.4 21 8.8 43.7 16.1 64.3z"/><path class="f" d="m1319 492.8c2.8 12.8 3.8 26.1 0 37.5-13.3 39-35.7 54.7-71.3 44-15.5-4.6-35.8-13.8-47.6-24.9-14.8-14-28.6-34.3-42.1-57.5l10.7-86.6 98-27.4 62 22.7 3.3 33.3-18.7 41.4c2.5 5.6 4.3 11.6 5.7 17.5z"/><path class="c" d="m1330.5 459.9c-7-33.5-58.3-58.8-90-51.5-18 52-56.5 73.5-92.5 56.2l0.7-30.7 15.3-42.6 57.3-22.7 64-4.7 40 22 16.7 30.7z"/><path class="c" d="m1279.2 479.8c0.2 3.9 1 7.6 2.5 11.2 1.5 3.7 3.7 6.6 6.1 9.8 1.8 2.6 4.1 6.2 1.9 9.2-1.8 2.4-5.3 3.4-8 4.1-2.5 0.6-1.5 4.4 1 3.8 6.3-1.5 13.4-5.5 11.6-13-1-4.3-4.4-7.4-6.7-11-2.6-4.3-4.1-9.1-4.4-14.1-0.1-2.5-4.1-2.5-4 0z"/><path class="c" d="m1254.9 488.7c-3.6 0-6.5-4.4-6.5-9.8 0-5.4 2.9-9.7 6.5-9.7 3.6 0 6.5 4.3 6.5 9.7 0 5.4-2.9 9.8-6.5 9.8z"/><path class="c" d="m1307.1 480.9c-0.5 4.9-3.5 8.7-6.9 8.4-3.3-0.3-5.6-4.6-5.1-9.5 0.4-5 3.5-8.8 6.8-8.5 3.3 0.3 5.6 4.6 5.2 9.6z"/><path class="c" d="m1282.9 536.6c-2 0-4.1-0.2-6.3-0.7-8.1-1.8-14.9-6.6-18.1-12.8-0.5-1-0.2-2.2 0.8-2.7 1-0.5 2.2-0.1 2.7 0.9 2.7 5.1 8.5 9.1 15.5 10.7 5.3 1.2 10.3 0.7 13-1.4 0.9-0.7 2.2-0.5 2.8 0.4 0.7 0.9 0.5 2.1-0.3 2.8-2.5 1.9-6.1 2.8-10.1 2.8z"/><path class="c" d="m1264.7 455.2c0.6 2.4-6.9 4-16 5-9 1-16.3 2.1-16.7-1.3-0.4-3.4 7-4 16-5 9.1-1 15.9-2.3 16.7 1.3z"/><path class="c" d="m1283.9 454c-0.5 2.4 6.3 4.1 14.3 5.3 8.1 1.1 14.6 2.3 14.9-1.1 0.3-3.5-6.3-4.1-14.3-5.3-8.1-1.1-14.2-2.5-14.9 1.1z"/><path class="h" d="m1229.1 526.7c-10.8 0-19.6-8.8-19.6-19.7 0-10.8 8.8-19.6 19.6-19.6 10.8 0 19.6 8.8 19.6 19.6 0 10.9-8.8 19.7-19.6 19.7z"/><path class="h" d="m1319 530.3c-8.1-2.4-14-9.9-14-18.8 0-8.8 5.9-16.3 14-18.7 2.8 12.8 3 25.8 0 37.5z"/><path class="f" d="m1136.1 472.8c-2.2 5.9-2.3 12.7 0.7 19.1 6.3 13.5 23.4 20.4 37.6 18.2 14.4-2.3 9.4-8.3 12.8-21.4 3.4-13-3.1-24.1-15.8-30.9-14.7-8-30.4 1.4-35.3 15z"/><path class="c" d="m1173 494.6c-1.1-13.1-11.8-23.1-25-22.9-2.6 0.1-2.6 4.1 0 4 10.9-0.1 20.1 8 21 18.9 0.3 2.6 4.3 2.6 4 0z"/><path class="i" d="m1008 1062.6l9.3-89.3-4-14.6-3.3-12.1-115.6-54.9 44.5-135.5c13.2-40.3 45.2-71.7 85.8-84.1l105.3-32.2 17.6-23.5c2.9-3.8 6.4-6.9 10.4-9.2 7.5-4.3 16.6-5.1 25-3.1 32 7.5 63.4 12.9 91.2 5 13.7-4 28.8 0.1 36.9 11.8 0.5 0.8 1.1 1.6 1.6 2.5l16.8 29.5 35.1 16.2c46.2 10.6 81.2 48.4 88 95.4l43.4 298.1z"/><path class="j" d="m1121.3 911.9c0 0-34.6 114.7-113.3 150.7l9.3-89.3-4-14.6z"/><path class="f" d="m1255.4 824.6c2.7 4.1 7.8 13.2 3.9 19.7q-0.9 1.7-2.7 3.1c0 0-2.8 13-13.8 19.6-45.1 26.8-93.1 11.4-93.1 11.4l-19.9-61 31.6-41.6 33.1-45.8c0 0 11.6-1.1 12.9 12.4 1.2 13.5-22.9 47.7-22.9 47.7 10.6-5.2 34.4-14.1 50.3-12.8 6.5 0.5 9.4 5.5 11.3 16.2 0.1 0.9 0.3 1.7 0.5 2.6 0 0 0.8 0.4 2.1 1.2 4.3 2.7 13.2 9.9 8.2 20.5-0.7 1.5-1.7 3.1-3 4.7 0 0 0.6 0.8 1.5 2.1z"/><path class="g" d="m1223 804.9q12.3-3 24.5-5.9c2.5-0.6 1.5-4.5-1-3.9q-12.3 2.9-24.5 5.9c-2.6 0.6-1.5 4.5 1 3.9z"/><path class="g" d="m1229 830.4q13.3-2.5 26.5-5c2.6-0.4 1.5-4.3-1-3.8q-13.3 2.5-26.5 5c-2.6 0.4-1.5 4.3 1 3.8z"/><path class="g" d="m1236 853.4q10.3-1.3 20.5-2.5c2.6-0.4 2.6-4.4 0-4q-10.2 1.2-20.5 2.5c-2.5 0.3-2.5 4.3 0 4z"/><path class="i" d="m1158.6 907.9l-37.3 4c0 0-94.6 100-157.3 97.4-15.8-0.7-29.3-4.7-40.6-10.2-32-15.7-46.8-53.2-35.7-87l6.7-20.4c54.2-38.2 125.2-65.2 194.9-82.4l29.4-19.6c5.3-3.6 12.7-1.1 14.7 5l33.4 100.4c2 5.9-2 12.1-8.2 12.8z"/><path class="j" d="m1129.8 642.9q8.8 6.8 17.5 13.5c2.1 1.6 4.1-1.9 2-3.5q-8.7-6.7-17.5-13.4c-2-1.6-4 1.9-2 3.4z"/><path class="j" d="m1303.5 664.9c9.8 0.5 19.3-3.3 26-10.5 1.8-1.8-1.1-4.7-2.8-2.8-6 6.4-14.4 9.8-23.2 9.3-2.6-0.2-2.6 3.8 0 4z"/><path class="j" d="m1172.7 630.8c-5.4 9.2-7.9 19.9-6.8 30.5 0.3 2.5 4.3 2.5 4 0-1-10 1.1-19.9 6.3-28.5 1.3-2.2-2.1-4.2-3.5-2z"/><path class="j" d="m1192.7 634.1c-3.1 10.7-3.7 21.8-2.1 32.8 0.4 2.5 4.2 1.4 3.9-1.1-1.6-10.3-0.8-20.7 2.1-30.7 0.7-2.5-3.2-3.5-3.9-1z"/><path class="j" d="m1223.9 636.6c-1.3 10.5-0.8 21 1.5 31.3 0.6 2.5 4.4 1.4 3.9-1.1-2.3-9.9-2.7-20.1-1.4-30.2 0.3-2.5-3.7-2.5-4 0z"/><path class="j" d="m1255.9 636.8c2.2 10.5 0.7 21.6-4.4 31.1-1.2 2.3 2.3 4.3 3.5 2 5.6-10.5 7.2-22.6 4.8-34.2-0.6-2.5-4.4-1.5-3.9 1.1z"/><path class="j" d="m1286.5 638.9c-0.2 9.7-3.6 19-9.8 26.4-1.6 2 1.2 4.8 2.9 2.8 6.8-8.3 10.6-18.4 10.9-29.2 0.1-2.5-3.9-2.5-4 0z"/><path class="j" d="m1089.9 809.9c9.5-9.5 21.5-15.9 34.6-18.6 2.6-0.6 1.5-4.4-1-3.9-13.8 2.9-26.4 9.7-36.4 19.6-1.8 1.8 1 4.7 2.8 2.9z"/><path class="j" d="m1130.7 795.7c13.4 28.1 23.5 57.7 30.1 88.1 0.6 2.5 4.4 1.4 3.9-1.1-6.7-30.7-17-60.6-30.5-89-1.2-2.3-4.6-0.3-3.5 2z"/><path class="j" d="m1127.9 912.9q15.4-2.8 30.8-5.6c2.5-0.4 1.4-4.3-1.1-3.8q-15.4 2.8-30.7 5.6c-2.6 0.4-1.5 4.3 1 3.8z"/><path class="j" d="m1098.1 826.5q12.4-5.2 24.8-10.5c2.3-1 0.3-4.5-2.1-3.5q-12.3 5.3-24.7 10.6c-2.3 1-0.3 4.4 2 3.4z"/><path class="j" d="m1109.7 846.2q9-3.6 18-7.3c2.4-1 1.4-4.8-1-3.9q-9 3.7-18 7.4c-2.4 0.9-1.4 4.8 1 3.8z"/><path class="j" d="m1124 870.4q9.4-3.4 18.7-6.7c2.4-0.9 1.4-4.7-1.1-3.8q-9.3 3.3-18.6 6.6c-2.4 0.9-1.4 4.8 1 3.9z"/><path class="j" d="m1129.4 890.7c6.1-5.8 13.6-9.8 21.8-11.6 2.5-0.6 1.4-4.4-1.1-3.9-8.9 2-16.9 6.4-23.5 12.7-1.9 1.8 1 4.6 2.8 2.8z"/><path class="j" d="m971.5 849.3c25.5-13.8 53.2-23.4 81.7-28.6 2.6-0.4 1.5-4.3-1-3.8-28.9 5.2-56.9 15-82.7 29-2.3 1.2-0.3 4.6 2 3.4z"/><path class="j" d="m1043.5 762c-2.6 19.8-5.3 39.6-8 59.4-0.3 2.6 3.7 2.6 4 0 2.7-19.8 5.4-39.6 8-59.4 0.4-2.6-3.6-2.6-4 0z"/><path class="j" d="m1402.2 797.8q7.5 93.7 15 187.4 2.1 26.4 4.2 52.8c0.2 2.5 4.2 2.6 4 0q-7.5-93.7-15-187.4-2.1-26.4-4.2-52.8c-0.2-2.6-4.2-2.6-4 0z"/><path class="j" d="m1405.3 786.4c6.4-14.9 9.4-30.9 8.7-47.1-0.1-2.6-4.1-2.6-4 0 0.7 15.4-2.1 30.8-8.2 45.1-1 2.3 2.5 4.3 3.5 2z"/><path class="j" d="m1412 778.6q5.9-7.4 11.9-14.7c1.6-2-1.2-4.9-2.8-2.9q-6 7.4-12 14.8c-1.6 2 1.3 4.8 2.9 2.8z"/><path class="j" d="m1258.1 1002.6c37.6-12 69.8-38.8 89.2-73.1 5.5-9.7 9.9-20.1 13.2-30.9 0.7-2.4-3.1-3.5-3.9-1-11.1 36.7-36.7 68.5-69.8 87.9-9.4 5.5-19.3 10-29.7 13.3-2.5 0.8-1.4 4.6 1 3.8z"/><path class="j" d="m1261.4 979.4c10.8-10.8 19.1-23.7 24.4-38 1-2.4-2.9-3.4-3.8-1-5.1 13.6-13.1 25.9-23.4 36.1-1.8 1.9 1 4.7 2.8 2.9z"/><path class="g" d="m1167.4 511.6c5.5 13.5 14 25.5 25.2 34.8 1.9 1.7 4.8-1.1 2.8-2.8-10.6-8.9-19-20.2-24.1-33.1-0.9-2.3-4.8-1.3-3.9 1.1z"/><path class="a" d="m1440 1176.7v616.6h-970.8v-616.6z"/><path class="e" d="m1440 1176.7v106.9h-970.8v-106.9z"/><path fill-rule="evenodd" class="c" d="m1442 1174.7v620.6h-974.8v-620.6zm-970.7 4v612.6h966.7v-612.6z"/><path fill-rule="evenodd" class="c" d="m1360 1256.8c-15.5 0-28-12.5-28-28 0-15.5 12.5-28 28-28 15.5 0 28 12.5 28 28 0 15.5-12.5 28-28 28zm24-28c0-13.3-10.7-24-24-24-13.3 0-24 10.7-24 24 0 13.3 10.7 24 24 24 13.3 0 24-10.7 24-24z"/><path fill-rule="evenodd" class="a" d="m1360.5 1254c6.8 0 13.2-2.7 18-7.5 4.8-4.8 7.5-11.2 7.5-18 0-6.8-2.7-13.2-7.5-18-4.8-4.8-11.2-7.5-18-7.5-6.8 0-13.2 2.7-18 7.5-4.8 4.8-7.5 11.2-7.5 18 0 6.8 2.7 13.2 7.5 18 4.8 4.8 11.2 7.5 18 7.5z"/><path fill-rule="evenodd" class="a" d="m810.5 589c6.8 0 13.2-2.7 18-7.5 4.8-4.8 7.5-11.2 7.5-18 0-6.8-2.7-13.2-7.5-18-4.8-4.8-11.2-7.5-18-7.5-6.8 0-13.2 2.7-18 7.5-4.8 4.8-7.5 11.2-7.5 18 0 6.8 2.7 13.2 7.5 18 4.8 4.8 11.2 7.5 18 7.5z"/><path class="k" d="m924 1499.7v294.6h-428v-294.6z"/><path class="f" d="m678.3 1322.7l182.3 4.1c-8.1-12-15.8-25.8-22.8-42.2-8.7-20.5-16.3-45.3-22.2-76.6l-60.5-18.9-67.2-21c7.1 54.1-1.4 135.5-9.6 154.6z"/><path class="g" d="m754.6 1220.3c0 0 27.8 41 80.6 57.3-8.7-20.6-13.7-38.3-19.6-69.6l-60.5-18.9z"/><path class="f" d="m855.1 1172.4c-3 31-26.3 62.3-63 61.7-15.7-0.3-35.3-4.8-48.1-14.4l-53.3-40.3-19.2-86.7 82.1-75.8 77.1 38.8c0 0 4 61.9 4 62 0.1 2.5 5.4 7.7 10.5 15.6 4.8 7.2 9.4 16.6 10.1 28.4 0.2 3.5 0.1 7.1-0.2 10.7z"/><path class="c" d="m795.1 1119.3c0.7 5.1 2.9 9.6 6.2 13.5 3.5 4.2 7.9 7.4 11.5 11.6 2.9 3.5 6.6 8.6 3.3 13.1-2.8 3.6-7.9 5.2-12.1 6.4-2.5 0.6-1.5 4.5 1 3.8 9.1-2.4 20.2-8.6 15.1-19.6-2.8-5.9-8-10.3-12.6-14.6-4.5-4.3-7.7-9.1-8.6-15.3-0.3-2.5-4.2-1.4-3.8 1.1z"/><path class="c" d="m807.3 1179.8c-9.1 1-18.2-2.2-24.6-9-1.8-1.8-4.6 1-2.8 2.9 7 7.4 17.3 11.2 27.4 10.1 2.6-0.3 2.6-4.3 0-4z"/><path class="c" d="m765.1 1123.5c0.7 4.7 4 8 7.4 7.5 3.3-0.6 5.4-4.7 4.7-9.3-0.7-4.6-4.1-7.9-7.4-7.4-3.4 0.5-5.5 4.6-4.7 9.2z"/><path class="c" d="m809.9 1121.3c1.1 4.4 4.7 7.3 7.8 6.5 3.2-0.8 4.9-5 3.7-9.4-1.1-4.4-4.6-7.3-7.8-6.5-3.2 0.8-4.9 5-3.7 9.4z"/><path class="c" d="m801.8 1099.5c-0.1 1.7 5.3 3.4 12 3.9 6.8 0.5 11.9 1.3 12.5-2.1 0.7-4-5.3-3.4-12-3.9-6.8-0.5-12.4 0.5-12.5 2.1z"/><path class="c" d="m779.7 1100.2c0.4 1.7-5 4.4-12 5.9-7 1.6-12.3 3.2-13.4-0.3-1.4-4.1 4.9-4.4 12-5.9 7-1.5 13-1.4 13.4 0.3z"/><path class="h" d="m727.2 1156.6c-1.7 11.2 6.1 21.5 17.5 23.2 11.4 1.7 22.1-5.9 23.8-17.1 1.7-11.1-6.1-21.5-17.5-23.2-11.4-1.6-22.1 6-23.8 17.1z"/><path class="h" d="m855.1 1172.4c-1.6 0.2-3.3 0.1-4.9-0.2-11.4-1.6-19.2-12-17.5-23.2 1.1-7.2 6.1-13 12.5-15.7 4.8 7.2 9.4 16.6 10.1 28.4 0.2 3.5 0.1 7.1-0.2 10.7z"/><path class="c" d="m693 1144c-5-39 3.7-63.8 35-82.3 79.3 31.4 131 21.1 140.7-52.7-26.6 10.4-48 12.3-79-5.1-3.4-1.9-86.2-54.2-117.2 33.9 0 0-51.4 23.3-10.7 96.9z"/><path class="k" d="m887.4 1316.7l95.7 36c62.5 23.5 97.3 90.3 80.7 155l-32.8 127.3h-587l-4-59 18.9-113.1c9.4-55.7 47.4-102.4 100.1-122.9l69.5-27 134.3-11.2z"/><path class="l" d="m641.5 1795.1h-206l-90-258.7h206z"/><path class="m" d="m558.1 1632.8h-147.9l-21.3-58.3h147.9z"/><path class="m" d="m568.7 1665.5h-147.8l-5.3-14.3h147.9z"/><path class="m" d="m578.1 1693.5h-147.9l-5.3-14.3h147.9z"/><path class="n" d="m587.4 1721.5h-147.9l-5.2-14.3h147.8z"/><path class="n" d="m596.7 1749.5h-147.8l-5.3-14.3h147.9z"/><path class="n" d="m606.1 1777.5h-147.9l-5.3-14.3h147.9z"/><path class="l" d="m762.8 1301.8l-40.3 60.5c-34.1-9.2-65.5-25.3-94-49.3l56.8-29.8c24.9 14.3 51.7 20 77.5 18.6q0 0 0 0z"/><path class="l" d="m887.4 1316.7q-35 33.7-88.5 44.7l-36.1-59.6c26.2-1.4 51.4-10 72.4-24.2z"/><path class="c" d="m938 1469c-32 25-91 149-91 149 0 0-191 24-231 64l12 48 207-11 107-38 43-133z"/><path class="f" d="m600.3 1679.7c-17.6-2.2-67-19.2-78.1-24.7-2.6-1.2-4.6-1.1-6.3-0.2-4.1 2.1-4.4 7.9-1.1 10.8 10.7 9.2 29.3 17.4 48.7 25.5-28.7 0.5-71.9-19.3-77-6.7-1.2 3 0.3 6.3 3 8.1 17.7 11.9 68.3 19.5 68.3 19.5l-0.9 3.7c-28.9 1.8-78.3-10.9-73.4 3.3 9 16.1 71 15.4 71 15.4l0.7 4.6c-22.1 0.7-45.8-0.9-45.5 9.2 0.2 7.9 57.6 12.1 57.6 12.1 39.6 20.8 77 3.5 77 3.5l17.4-57-30.1-38.1-31.6-42.1c0 0-10.8-0.8-11.8 11.8-0.9 12.6 12.1 41.3 12.1 41.3z"/><path class="k" d="m1031 1635l-32 89.6c-14.5 40.7-53.9 72.2-97 70.4-94.9 0.6-185.8-8.1-259.3-31.3 4.5-17.6 8.3-37.3 5.8-74.7 70.5-21 143.5-32.4 222.5-38l74.3-214z"/><path class="c" d="m798.9 1361.4l-3.7-1.2c-15.8-5.2-27.2-19-29.4-35.6l-3-22.8z"/><path class="c" d="m762.8 1301.8l-5.9 30.2c-2.1 10.9-9.6 20.1-19.9 24.3l-14.5 6z"/><path class="f" d="m644.9 1147.3c-1.7 14.3 12.4 39.8 45.6 32.2 14.7-3.3 8.8-8.6 10.7-21.2 2-12.7-6-22.6-20.1-28-15.6-5.9-34.7 4.3-36.2 17z"/><path class="c" d="m656.9 1151.5c10-4.8 22.2-0.2 26.3 10.1 1 2.4 4.8 1.3 3.9-1.1-5.2-12.8-19.7-18.5-32.2-12.5-2.4 1.1-0.3 4.6 2 3.5z"/><path class="g" d="m687.4 1181.6c11.4 12.9 24.3 24.3 38.4 34 2.1 1.5 4.1-2 2-3.4-13.8-9.6-26.4-20.8-37.6-33.4-1.7-1.9-4.5 0.9-2.8 2.8z"/><path class="c" d="m641.5 1766.9c44.3 14.1 90.3 22.5 136.6 26.2 13.3 1.1 26.6 1.8 39.9 2.2 2.5 0 2.5-4 0-4-46.3-1.3-92.5-6.6-137.5-17.6q-19.2-4.6-38-10.6c-2.4-0.8-3.5 3-1 3.8z"/><path class="c" d="m662.1 1749.6q10 3.3 20 6.7c2.5 0.8 3.5-3.1 1.1-3.9q-10-3.3-20-6.7c-2.4-0.8-3.5 3.1-1.1 3.9z"/><path class="c" d="m666.7 1720.5q8-0.5 16-1.1c2.5-0.2 2.6-4.2 0-4q-8 0.6-16 1.1c-2.6 0.2-2.6 4.2 0 4z"/><path class="c" d="m673.3 1695.8q12.7-0.5 25.4-1.1c2.5-0.1 2.5-4.1 0-4q-12.7 0.6-25.4 1.1c-2.6 0.1-2.6 4.1 0 4z"/><path class="c" d="m938.9 1453.4c9.4-24.4 22.8-47.2 39.6-67.2 1.6-2-1.2-4.8-2.9-2.9-17.2 20.7-30.9 44-40.5 69-1 2.4 2.9 3.5 3.8 1.1z"/><path class="c" d="m512.5 1403.6c23.9 11.8 43.6 31 56 54.6 1.2 2.3 4.6 0.3 3.4-2-12.6-24.1-32.9-44-57.3-56-2.3-1.2-4.4 2.3-2.1 3.4z"/><path class="c" d="m576.1 1488.9q3.3 35.4 6.5 70.7c0.2 2.6 4.2 2.6 4 0q-3.2-35.3-6.5-70.7c-0.2-2.5-4.2-2.5-4 0z"/><path class="a" d="m2604.3 948.6v652.7h-1041.1v-652.7z"/><path class="e" d="m2604.3 948.6v120.4h-1041.1v-120.4z"/><path fill-rule="evenodd" class="c" d="m2606.3 946.6v656.7h-1045.1v-656.7zm-1041.1 4v648.7h1037.1v-648.7z"/><path fill-rule="evenodd" class="c" d="m2514.2 1038.3c-16.4 0-29.5-13.2-29.5-29.5 0-16.3 13.1-29.5 29.5-29.5 16.3 0 29.4 13.2 29.4 29.5 0 16.3-13.1 29.5-29.4 29.5zm25.4-29.5c0-14.1-11.4-25.5-25.4-25.5-14.1 0-25.5 11.4-25.5 25.5 0 14.1 11.4 25.5 25.5 25.5 14 0 25.4-11.4 25.4-25.5z"/><path class="c" d="m2287.5 1194.4l-3-2.8c41.2-44.6 57.4-79.4 49.6-106.3-5.2-17.7-21.2-32.4-49-44.8-24.8-11.2-55.6-19.2-85.3-27-7.1-1.8-14.4-3.7-21.3-5.6l1-3.8c7 1.8 14.2 3.7 21.3 5.6 61.3 15.9 124.8 32.5 137.1 74.5 8.3 28.4-8.2 64.4-50.4 110.2z"/><path class="c" d="m1918.2 1135.2c-10.5-20.4-12.2-41.4-4.9-62.3 6.1-17.4 22-44.2 63.3-73.4 24.6-17.4 47-27.6 47.2-27.7l1.7 3.7c-0.9 0.4-88 40.3-108.4 98.7-6.9 19.8-5.3 39.8 4.7 59.2z"/><path class="c" d="m1958.7 1148.3c-52.7-44-21.4-114.6 71.3-180-69.3-68-24-152.8 89-146.3 93.7 5.7 161 79.5 77.5 182 118 42.4 159.5 163.7 84.2 184.3z"/><path class="d" d="m2251.6 1478.5c-2.9 29.7-13.2 87.9-18.6 125.3h-306.1c-10.5-64.4-29.5-173.5-36.6-248.2-4.1-43.3-5.5-87.1-1.6-127.9l364.6 5.3c2.5 30.6 3.9 60 4.5 88.1 1 57.1-1.5 109.3-6.2 157.4z"/><path class="k" d="m2248 1507.7c-56-59.4-40-226.7-40-226.7l49.8 40.1c1 57.1-2.5 140.6-9.8 186.6z"/><path class="f" d="m2482.5 1302.1l-0.1 1.1-21.6 168.8c-8.7 28.3-19.9 51.6-34.4 68.4q-0.2 0.3-0.5 0.6c-25.5 29.1-65.7 32.5-95.9 15.5-15.2-8.5-27.9-22.2-34.9-40.5l-56.5-148.3 43.6-63.9 77.8 10.5 11.1 39.5 47-75.3 3.6-5.6z"/><path class="f" d="m2428.2 1225.8c8.2-17.3 24.3-82.6 25.7-95.9 0.3-3 1.6-4.8 3.3-5.8 4.3-2.5 9.8 0.5 10.5 5.1 2.2 15.1-1 36.7-4.7 58.9 16.9-25.8 23.6-76.4 38.1-73.8 3.4 0.6 5.5 3.9 5.6 7.3 0.7 22.9-21.4 73.3-21.4 73.3l3.9 1.3c18.2-25.2 34.9-77.5 45-64.9 9.5 17.4-26.6 73.4-26.6 73.4l3.8 3.3c13.2-19.6 25.4-42.2 34.4-36.1 7.1 4.7-22 59.4-22 59.4-3.7 47.8-40.8 72-40.8 72l-61.9-16.8-17.5-49.2-20.1-52.9c0 0 5.5-10.3 17.4-3.9 12 6.3 27.3 45.3 27.3 45.3z"/><path class="g" d="m2373.8 1350c-18.5 25.6-31 55.3-36.4 86.3-0.4 2.6 3.4 3.6 3.9 1.1 5.3-30.8 17.6-60 35.9-85.3 1.5-2.1-1.9-4.1-3.4-2.1z"/><path class="g" d="m2434.3 1231.7c14.8 3.7 26.5 17 28 32.2 0.2 2.6 4.2 2.6 4 0-1.7-17-14.3-31.9-30.9-36-2.5-0.6-3.6 3.2-1.1 3.8z"/><path class="g" d="m2463.5 1191.9c17.8 0.1 35.2 6.9 48.3 19 1.9 1.8 4.7-1 2.8-2.8-13.9-12.8-32.2-20.1-51.1-20.2-2.6-0.1-2.6 3.9 0 4z"/><path class="h" d="m2426.5 1540.4q-0.2 0.3-0.5 0.6c-25.5 29.1-65.7 32.5-95.9 15.5 5.6-18.8 25-33.5 48.9-35.1 19.6-1.4 37.2 6.3 47.5 19z"/><path class="d" d="m2360 1314.3l-121.3 53.4-30.7-86.7-294.7-2.7-22.3 76.3-0.3 1.1-19-2.1-106.4-11.3 18.3-60.9c48.4-132.4 96-151.1 183.5-170.6l14.7-3.2 71.5-15.9 74.7 1.3 76.7 24.5 20.6 6.6c58.9 18.8 103.8 66.7 118.8 126.7z"/><path class="k" d="m1890.3 1355.6l-18.6-2c-1.7-32.6 3.9-74.4 17-125.9-3.9 40.8-2.5 84.6 1.6 127.9z"/><path class="f" d="m2204.7 1117.5c-37.3 61.1-117.6 96.5-163.1 92.5-62.8-5.4-66.2-62-59.8-102.4l71.5-15.9 74.7 1.3z"/><path class="f" d="m2169.3 1141l-168.6 8c7.3-10.5 14.1-22.4 20.3-36.6 7.6-17.8 14.2-39.2 19-66.1l55.5-17.6 61.8-19.7c-5.5 46.5 4.1 115.9 12 132z"/><path class="g" d="m2096.7 1055.3c0 0-27.2 41.9-75.7 57.1 7.6-17.8 14.2-39.2 19-66.1l55.5-17.6z"/><path class="g" d="m2008.7 1147.7q-0.5 0-0.9-0.2c-1-0.5-1.4-1.7-1-2.7 12.3-26.9 22.5-58.4 28.7-88.7 0.3-1.1 1.3-1.8 2.4-1.6 1.1 0.3 1.8 1.3 1.6 2.4-6.4 30.6-16.7 62.4-29 89.6-0.3 0.7-1.1 1.2-1.8 1.2z"/><path class="f" d="m2188 941.7l-30.7 80.6-60.6 33c-39 13.7-60.5 7.3-73.1-1.7-6-4.3-11.1-9.7-14.2-16-6.3-12.6-8-25.4-6-37.9 1.9-12.5 7.7-24.7 16.6-35.9 4.5-5.9 9.9-11.5 16-16.8l-10-46.7 18.7-30.6 77.3-12.7z"/><path class="c" d="m2179.3 979.7c-41.6-19.8-71.3-52.7-73.3-100-33.9-4.6-58.7 10.6-77.3 39.3l-8.7 8.5-2-38 25.5-33.5 89-13.5 64 73.5 9 55z"/><path class="f" d="m2205 998c-0.5 14-17.5 36.5-47.5 24.5-13.3-5.3-7-9.6-7-22 0-12.4 9-20.8 23-24 15.5-3.5 31.9 9.1 31.5 21.5z"/><path class="c" d="m2168.2 1011.2c-0.8 0-1.7-0.6-1.9-1.5-1.4-5.6 0.4-11.3 4.9-15.1 5.5-4.6 13.5-5.4 21.3-1.9 1.1 0.4 1.5 1.6 1.1 2.6-0.5 1-1.6 1.5-2.6 1-6.5-2.8-12.9-2.3-17.2 1.3-3.3 2.8-4.7 7-3.6 11.2 0.3 1-0.4 2.1-1.5 2.4q-0.2 0-0.5 0z"/><path class="c" d="m2062.7 950.2c0.9 6.5-6.9 9.7-11.6 11.7-4.6 2-9.5 4.4-11.8 9.1-5 10.1 3.4 19.8 12.2 23.8 2.3 1 4.3-2.4 2-3.5-4.6-2-9.2-5.2-10.9-10.1-1.9-5.5 0.4-10.3 5.2-13.2 4.3-2.6 9.5-3.8 13.5-7 3.7-2.9 5.9-7.1 5.2-11.8-0.3-2.6-4.2-1.5-3.8 1z"/><path class="c" d="m2047.5 1011.2c9.7 2.6 19.9 0.4 27.8-5.9 2-1.6-0.9-4.4-2.9-2.8-6.7 5.3-15.6 7.1-23.9 4.9-2.5-0.7-3.5 3.2-1 3.8z"/><path class="c" d="m2095.7 958c-1.4 4.3-5 7-8.1 6.1-3.1-1-4.4-5.3-3.1-9.6 1.4-4.4 5-7.1 8.1-6.1 3.1 1 4.4 5.3 3.1 9.6z"/><path class="c" d="m2053.9 949.4c-1.7 4.1-5.4 6.4-8.3 5.2-2.9-1.3-3.8-5.5-2.1-9.6 1.7-4 5.4-6.3 8.3-5.1 2.9 1.2 3.8 5.5 2.1 9.5z"/><path class="c" d="m2060 928.6c0.1 1.7-4 3.1-9 3.2-5.1 0.1-8.9 0.6-9.2-2.8-0.4-4 4-3.1 9-3.2 5.1-0.1 9.2 1.2 9.2 2.8z"/><path class="c" d="m2086.5 933.2c-0.9 1.8 2.6 4.7 7.7 6.5 5.1 1.9 8.7 3.7 10.8 0.1 2.5-4.2-2.5-4.7-7.6-6.5-5.1-1.8-10-1.8-10.9-0.1z"/><path class="h" d="m2107.8 1010.7c-10.9 0-19.8-8.9-19.8-19.9 0-10.9 8.9-19.8 19.8-19.8 11 0 19.9 8.9 19.9 19.8 0 11-8.9 19.9-19.9 19.9z"/><path class="h" d="m2031 981.5c0 10.9-8.9 19.8-19.8 19.8-2.8 0-5.4-0.5-7.8-1.6 1.9-12.5 7.7-24.7 16.6-35.9 6.5 3.2 11 9.9 11 17.7z"/><path class="k" d="m1978.3 1223.9c10.7 15.4 27.9 24.4 46.1 27.6 21.2 3.7 42.6-0.5 62.6-7.7 12.6-4.6 24.8-10.3 36.9-15.9 2.3-1.1 0.3-4.6-2-3.5-35.9 16.8-78.6 35.6-117.5 16.5-9-4.4-16.9-10.7-22.7-19-1.4-2.1-4.9-0.1-3.4 2z"/><path class="k" d="m2276.7 1160.5c-30.4 6.4-56.4 28.5-67.7 57.4-1 2.4 2.9 3.4 3.8 1.1 10.9-27.6 36-48.6 65-54.6 2.5-0.5 1.4-4.4-1.1-3.9z"/><path class="k" d="m2279.1 1168.1c-14.7 6.7-27 17.9-35.1 31.7-1.4 2.2 2.1 4.2 3.4 2 7.9-13.3 19.6-23.8 33.7-30.2 2.3-1.1 0.3-4.6-2-3.5z"/><path class="k" d="m2346.2 1306c-16.8 3.1-33 8.9-47.9 17.2-2.3 1.2-0.3 4.7 2 3.4 14.6-8.1 30.5-13.7 46.9-16.7 2.6-0.5 1.5-4.3-1-3.9z"/><path class="k" d="m1780.2 1331.2q27 3.7 54.1 7.5c2.5 0.4 3.6-3.5 1-3.9q-27-3.7-54-7.5c-2.6-0.3-3.6 3.5-1.1 3.9z"/><path class="k" d="m1990.4 1425.3c23.1 45.9 67 79.2 117.5 88.6 15 2.9 30.3 3.6 45.4 2.3 2.6-0.2 2.6-4.2 0-4-51.5 4.5-102.8-16.1-136.7-55-9-10.3-16.6-21.7-22.8-33.9-1.1-2.3-4.6-0.3-3.4 2z"/><path class="k" d="m2098.1 1465.8c12.3 15.4 27.7 28.3 45 37.7 2.3 1.2 4.3-2.3 2-3.5-17.1-9.2-32.1-21.8-44.1-37.1-1.6-2-4.5 0.9-2.9 2.9z"/><path class="k" d="m1952.4 1171.2c2.6 12.1 6.4 25.2 13.9 35.3 1.5 2.1 5 0.1 3.4-2-7.2-9.9-10.9-22.5-13.4-34.4-0.6-2.5-4.4-1.4-3.9 1.1z"/><path class="f" d="m2205 1603.5l-173.5 1.5-180-1.5c-33.4-1.7-60.8-10.3-80-25.5-22.6-17.7-34-44.5-31.1-79.9q0.5-5.7 1.5-11.7l23.4-144.1 125.4 13.4-28 134.6c95.3 26.7 143.3 40.7 169.6 54.7h103.7z"/><path class="g" d="m1891 1354.6l-9.7 46.1c-5.5-12.8-8.7-28.4-9.6-47.1l19 2.1z"/><path class="h" d="m1790.2 1543.5c0 13.8-7.2 26.2-18.7 34.5-22.6-17.7-34-44.5-31.1-79.9 27.9 1.7 49.8 21.3 49.8 45.4z"/><path class="g" d="m2009.2 1561.8q11.6-7 23.1-13.9c2.2-1.3 0.2-4.8-2-3.4q-11.6 6.9-23.1 13.8c-2.2 1.4-0.2 4.8 2 3.5z"/><path class="g" d="m2166.1 1599.9q-18-15-36-29.9c-1.9-1.7-4.8 1.1-2.8 2.8q18 15 36 29.9c1.9 1.7 4.8-1.1 2.8-2.8z"/><path class="g" d="m2106.1 1588.4q10.6 7.7 21.3 15.3c2.1 1.5 4.1-1.9 2-3.4q-10.6-7.7-21.3-15.3c-2.1-1.5-4.1 1.9-2 3.4z"/><path class="g" d="m2121.7 1049.7c13.4-6 25.6-14.6 36.2-24.8 1.9-1.8-1-4.6-2.8-2.8-10.4 10-22.3 18.3-35.4 24.2-2.4 1-0.4 4.5 2 3.4z"/><path class="c" d="m2374 937.9v9.1h-4v-9.1zm0-47v23.5h-4v-23.5zm0-46.9v23.5h-4v-23.5zm0-46.9v23.4h-4v-23.4zm0-47v23.5h-4v-23.5zm0-46.9v23.4h-4v-23.4zm-25.3-2.2v4h-23.5v-4zm-46.9 0v4h-23.5v-4zm-46.9 0v4h-23.5v-4zm-47 0v4h-23.4v-4zm-47 0v4h-23.4v-4zm-47 0v4h-23.5v-4zm-46.9 0v4h-23.5v-4zm-46.9 0v4h-23.5v-4zm-46.9 0v4h-23.5v-4zm-47 0v4h-23.4v-4zm-47 0v4h-23.4v-4zm-47 0v4h-23.5v-4zm-46.9 0v4h-23.5v-4zm-46.9 0v4h-23.5v-4zm-46.9 0v4h-23.5v-4z"/><path fill-rule="evenodd" class="a" d="m2514.5 1034c6.8 0 13.2-2.7 18-7.5 4.8-4.8 7.5-11.2 7.5-18 0-6.8-2.7-13.2-7.5-18-4.8-4.8-11.2-7.5-18-7.5-6.8 0-13.2 2.7-18 7.5-4.8 4.8-7.5 11.2-7.5 18 0 6.8 2.7 13.2 7.5 18 4.8 4.8 11.2 7.5 18 7.5z"/><path class="l" d="m2469.3 374.3v370.7h-536v-370.7z"/><path class="d" d="m2054.3 529.6v166.4h-42v-166.4z"/><path class="d" d="m2138.3 583.3v112.7h-42v-112.7z"/><path class="d" d="m2222.3 550.1v145.9h-42v-145.9z"/><path class="d" d="m2306.3 484.6v211.4h-42v-211.4z"/><path class="d" d="m2390.3 433.2v262.8h-42v-262.8z"/><path class="c" d="m468 1343v4h-23.5v-4zm-46.9 0v4h-23.5v-4zm-37-29.4v23.5h-4v-23.5zm0-46.9v23.5h-4v-23.5zm0-47v23.5h-4v-23.5zm0-46.9v23.5h-4v-23.5zm0-46.9v23.4h-4v-23.4zm0-47v23.5h-4v-23.5zm0-46.9v23.4h-4v-23.4zm0-47v23.5h-4v-23.5zm0-46.9v23.5h-4v-23.5zm0-47v23.5h-4v-23.5zm0-46.9v23.5h-4v-23.5zm0-47v23.5h-4v-23.5zm0-46.9v23.5h-4v-23.5zm0-46.9v23.4h-4v-23.4zm352-8.4v4h-8.3v-4zm-31.8 0v4h-23.4v-4zm-47 0v4h-23.5v-4zm-46.9 0v4h-23.5v-4zm-46.9 0v4h-23.5v-4zm-46.9 0v4h-23.5v-4zm-47 0v4h-23.4v-4zm-47 0v4h-23.4v-4z"/><path class="d" d="m584.4 374.3v477.1h-369.9v-477.1z"/><path class="o" d="m315.6 481.9v57h-57v-57z"/><path class="l" d="m456.3 481.9v21.4h-103.1v-21.4z"/><path class="o" d="m542.4 517.2v21.4h-189.1v-21.4z"/><path class="c" d="m282.1 529.6l-11.3-18.6 3.4-2 7.9 13.1 19.7-33.1 3.4 2z"/><path class="o" d="m315.6 591.2v57h-57v-57z"/><path class="l" d="m542.4 591.2v21.5h-189.1v-21.5z"/><path class="o" d="m477.1 626.5v21.5h-123.9v-21.5z"/><path class="o" d="m315.6 700.5v57h-57v-57z"/><path class="l" d="m530.4 700.5v21.5h-177.1v-21.5z"/><path class="o" d="m455.7 735.8v21.5h-102.4v-21.5z"/><path class="c" d="m284.5 640.3l-11.2-18.7 3.3-2 7.9 13.1 19.8-33.1 3.3 2z"/><path class="c" d="m284 750.3l-11.2-18.7 3.3-2 7.9 13.1 19.8-33.1 3.3 2z"/><path class="a" d="m440.6 1101.8h-117.9c-7 0-12.6-5.6-12.6-12.5v-68.9c0-6.9 5.6-12.6 12.6-12.6h117.9c6.9 0 12.5 5.7 12.5 12.6v68.9c0 6.9-5.6 12.5-12.5 12.5z"/><path fill-rule="evenodd" class="c" d="m440.6 1103.8h-117.9c-8 0-14.6-6.5-14.6-14.5v-68.9c0-8 6.6-14.6 14.6-14.6h117.9c8 0 14.5 6.6 14.5 14.6v68.9c0 8-6.5 14.5-14.5 14.5zm-117.9-94c-5.8 0-10.6 4.8-10.6 10.6v68.9c0 5.8 4.8 10.5 10.6 10.5h117.9c5.8 0 10.5-4.7 10.5-10.5v-68.9c0-5.8-4.7-10.6-10.5-10.6z"/><path class="c" d="m381.6 1065.1c-2.6 0-5.2-0.9-7.4-2.7l-61.6-48.9 2.1-2.7 61.7 48.9c3.2 2.6 7.2 2.6 10.4 0l61.9-49.2 2.2 2.8-61.9 49.1c-2.2 1.8-4.8 2.7-7.4 2.7z"/><path class="p" d="m1645.8 1390.9v319.4h-475.4v-319.4z"/><path class="q" d="m1333.3 1430.3v96h-113.3v-96z"/><path class="q" d="m1592.9 1430.3v96h-208.9v-96z"/><path class="q" d="m1592.5 1553v28h-372.5v-28z"/><path class="r" d="m1460 1595.7v28h-240v-28z"/><path class="r" d="m1417.4 1638.3v28h-197.4v-28z"/><path class="c" d="m1948 1794.9h-13.7v-4h9.7v-9.7h4zm-37.2-4v4h-23.5v-4zm-46.9 0v4h-23.5v-4zm-46.9 0v4h-23.5v-4zm-46.9 0v4h-23.5v-4zm-47 0v4h-23.4v-4zm-47 0v4h-23.4v-4zm-47 0v4h-23.5v-4zm-46.9 0v4h-23.5v-4zm-46.9 0v4h-23.5v-4zm-46.9 0v4h-23.5v-4zm-47 0v4h-1.4v-4zm506.7-56.7v23.4h-4v-23.4zm0-23.5h-4v-15.3h12.2v4h-8.2zm524-11.2h-22.9v-4h18.9v-0.6h4zm-46.4-4v4h-23.4v-4zm-47 0v4h-23.5v-4zm-46.9 0v4h-23.5v-4zm-46.9 0v4h-23.5v-4zm-46.9 0v4h-23.5v-4zm-47 0v4h-23.4v-4zm-47 0v4h-23.4v-4zm-47 0v4h-23.5v-4zm-46.9 0v4h-23.5v-4zm-46.9 0v4h-23.5v-4zm468.9-47.6v23.5h-4v-23.5zm0-46.9v23.4h-4v-23.4z"/><path class="c" d="m1946 1718c-11 0-19.8-8.9-19.8-19.9 0-11 8.8-19.9 19.8-19.9 11 0 19.9 8.9 19.9 19.9 0 11-8.9 19.9-19.9 19.9z"/></svg>