<svg version="1.2" xmlns="http://www.w3.org/2000/svg" viewBox="0 0 32 32" width="32" height="32"><style>.a{fill:#fff}</style><path fill-rule="evenodd" class="a" d="m28.8 13.7q0.3 0.1 0.6 0.4 0.3 0.3 0.5 0.7 0.1 0.3 0.1 0.7v5q0 0.4-0.2 0.8-0.1 0.4-0.4 0.6-0.3 0.3-0.6 0.5-0.4 0.1-0.8 0.1h-1v1q0 0.2-0.1 0.4-0.1 0.2-0.2 0.3-0.1 0.2-0.3 0.3-0.2 0-0.4 0h-3q-0.2 0-0.4 0-0.2-0.1-0.3-0.3-0.1-0.1-0.2-0.3-0.1-0.2-0.1-0.4v-11q0-0.2 0.1-0.4 0.1-0.1 0.2-0.3 0.1-0.1 0.3-0.2 0.2-0.1 0.4-0.1h2.9c-0.2-2.4-1.4-4.7-3.2-6.4-1.8-1.7-4.2-2.6-6.7-2.6-2.5 0-4.9 0.9-6.7 2.6-1.8 1.7-3 4-3.3 6.4h3q0.2 0 0.4 0.1 0.2 0.1 0.3 0.2 0.1 0.2 0.2 0.3 0.1 0.2 0.1 0.4v11q0 0.2-0.1 0.4-0.1 0.2-0.2 0.3-0.1 0.2-0.3 0.3-0.2 0-0.4 0h-3.1v2q0 0.1 0 0.2 0.1 0.1 0.1 0.2 0 0.1 0.1 0.2 0 0.1 0.1 0.1 0.1 0.1 0.2 0.2 0 0 0.1 0.1 0.1 0 0.2 0 0.1 0 0.2 0h1.5q0.2-0.4 0.4-0.8 0.3-0.3 0.7-0.6 0.4-0.3 0.8-0.4 0.4-0.2 0.9-0.2h3.8c0.8 0 1.6 0.4 2.1 0.9 0.6 0.6 0.9 1.3 0.9 2.1 0 0.8-0.3 1.6-0.9 2.2-0.5 0.5-1.3 0.8-2.1 0.8h-3.8q-0.5 0-0.9-0.1-0.4-0.1-0.8-0.4-0.4-0.3-0.7-0.7-0.2-0.3-0.4-0.8h-1.4q-0.3 0-0.6 0-0.3-0.1-0.6-0.2-0.2-0.1-0.5-0.3-0.2-0.1-0.4-0.4-0.2-0.2-0.4-0.4-0.2-0.3-0.3-0.5-0.1-0.3-0.2-0.6 0-0.3 0-0.6v-4q-0.4 0-0.8-0.2-0.3-0.1-0.6-0.4-0.3-0.3-0.4-0.6-0.2-0.4-0.2-0.8v-5q0-0.4 0.2-0.8 0.1-0.3 0.4-0.6 0.3-0.3 0.6-0.4 0.4-0.2 0.8-0.2v-1c0-3.2 1.3-6.2 3.5-8.5 2.3-2.2 5.3-3.5 8.5-3.5 3.2 0 6.2 1.3 8.5 3.5 2.2 2.3 3.5 5.3 3.5 8.5v1q0.4 0 0.8 0.2zm-18.3 14.1q-0.3 0.3-0.3 0.7 0 0.4 0.3 0.7 0.3 0.3 0.7 0.3h3.8q0.4 0 0.7-0.3 0.3-0.3 0.3-0.7 0-0.4-0.3-0.7-0.3-0.3-0.7-0.3h-3.8q-0.4 0-0.7 0.3zm-6.5-12.3v5h1v-5zm3 7h1v-9h-1zm18-9h-1v9h1zm3 2h-1v5h1z"/></svg>