<svg width="600" height="450" viewBox="0 0 600 450" fill="none" xmlns="http://www.w3.org/2000/svg">
<g clip-path="url(#clip0_1_152)">
<mask id="mask0_1_152" style="mask-type:luminance" maskUnits="userSpaceOnUse" x="0" y="0" width="600" height="450">
<path d="M600 0H0V450H600V0Z" fill="white"/>
</mask>
<g mask="url(#mask0_1_152)">
<path d="M191.217 119.06C191.268 121.21 193.327 172.09 147.634 180.927C94.7945 191.148 71.0109 212.881 73.8226 241.434C76.6342 269.988 104.391 365.989 275.573 380.125C443.881 394.024 492.066 306.186 513.89 264.854C534.58 225.667 553.757 141.171 507.362 110.577C460.967 79.9837 435.1 130.431 383.126 76.2293C310.188 0.165092 189.108 28.6394 191.217 119.06Z" fill="#FFF5E8"/>
<path d="M493.338 357.448C493.338 357.448 487.445 355.071 476.904 361.771C464.495 369.659 449.963 385.606 464.622 394.054C479.282 402.503 494.143 386.3 497.666 382.427C504.578 374.831 507.118 360.925 493.338 357.448Z" fill="#FFF5E8"/>
<path d="M45.1178 50.4715C45.1178 50.4715 21.937 75.6373 32.2394 101.433C42.5418 127.229 79.889 139.811 111.441 97.6585C142.993 55.5052 103.714 32.2267 103.714 32.2267C103.714 32.2267 72.1618 14.6101 45.1178 50.4715Z" fill="#FFF5E8"/>
<path d="M159.534 363.516V148.994C159.534 139.256 165.992 131.364 173.956 131.364H466.845C474.81 131.364 481.267 139.257 481.267 148.994V363.516C481.267 373.253 474.809 381.146 466.845 381.146H173.956C165.991 381.146 159.534 373.253 159.534 363.516Z" fill="black"/>
<path d="M455.947 364.23V148.28H186.032V364.23H455.947Z" fill="white"/>
<path d="M467.603 260.703C465.594 260.703 463.965 258.711 463.965 256.255C463.965 253.798 465.594 251.806 467.603 251.806C469.613 251.806 471.242 253.798 471.242 256.255C471.242 258.711 469.613 260.703 467.603 260.703Z" fill="white"/>
<path d="M179.369 256.365C179.407 251.749 176.378 247.968 172.602 247.921C168.826 247.873 165.734 251.577 165.695 256.193C165.656 260.808 168.686 264.589 172.461 264.636C176.237 264.684 179.33 260.981 179.369 256.365Z" fill="white"/>
<path d="M302.776 338.871H215.514C210.437 338.871 206.321 333.84 206.321 327.633V186.624C206.321 180.417 210.437 175.386 215.514 175.386H302.776C307.854 175.386 311.969 180.417 311.969 186.624V327.632C311.969 333.839 307.854 338.871 302.776 338.871Z" stroke="black" stroke-width="1.2" stroke-miterlimit="10"/>
<path d="M225.235 192.768L227.069 197.311L231.171 198.039L228.203 201.576L228.904 206.569L225.235 204.211L221.567 206.569L222.267 201.576L219.299 198.039L223.401 197.311L225.235 192.768Z" fill="#FF9E22"/>
<path d="M241.712 192.768L243.547 197.311L247.648 198.039L244.68 201.576L245.381 206.569L241.712 204.211L238.044 206.569L238.745 201.576L235.777 198.039L239.879 197.311L241.712 192.768Z" fill="#FF9E22"/>
<path d="M258.19 192.768L260.024 197.311L264.126 198.039L261.158 201.576L261.859 206.569L258.19 204.211L254.522 206.569L255.222 201.576L252.255 198.039L256.356 197.311L258.19 192.768Z" fill="#FF9E22"/>
<path d="M274.667 192.768L276.502 197.311L280.603 198.039L277.635 201.576L278.336 206.569L274.667 204.211L270.999 206.569L271.7 201.576L268.732 198.039L272.834 197.311L274.667 192.768Z" fill="black"/>
<path d="M291.144 192.768L292.979 197.311L297.08 198.039L294.113 201.576L294.814 206.569L291.144 204.211L287.477 206.569L288.177 201.576L285.21 198.039L289.311 197.311L291.144 192.768Z" fill="black"/>
<path d="M289.827 320.03H226.552C221.423 320.03 217.264 314.947 217.264 308.676C217.264 302.405 221.423 297.321 226.552 297.321H289.827C294.957 297.321 299.116 302.405 299.116 308.676C299.116 314.947 294.957 320.03 289.827 320.03Z" fill="#FF9E22"/>
<path d="M217.264 265.547H299.116" stroke="black" stroke-width="1.2" stroke-miterlimit="10"/>
<path d="M217.264 248.573H258.19" stroke="black" stroke-width="1.2" stroke-miterlimit="10"/>
<path d="M217.264 231.598H299.116" stroke="black" stroke-width="1.2" stroke-miterlimit="10"/>
<path d="M217.264 281.434H259.145" stroke="black" stroke-width="1.2" stroke-miterlimit="10"/>
<path d="M421.347 338.158H339.68C335.266 338.158 331.689 333.784 331.689 328.389V299.229C331.689 293.834 335.266 289.459 339.68 289.459H421.348C425.761 289.459 429.339 293.833 429.339 299.228V328.388C429.339 333.784 425.761 338.158 421.347 338.158Z" fill="black"/>
<path d="M345.98 305.865H409.65" stroke="white" stroke-width="1.2" stroke-miterlimit="10"/>
<path d="M345.98 321.752H378.499" stroke="white" stroke-width="1.2" stroke-miterlimit="10"/>
<path d="M399.178 268.131H338.77C334.859 268.131 331.688 264.255 331.688 259.474V217.304C331.688 212.523 334.859 208.646 338.77 208.646H399.178C403.089 208.646 406.259 212.523 406.259 217.304V259.474C406.259 264.255 403.089 268.131 399.178 268.131Z" stroke="#8D9BD9" stroke-width="1.2" stroke-miterlimit="10"/>
<path d="M395.888 250.517H341.267C340.02 250.517 339.009 249.282 339.009 247.757C339.009 246.234 340.02 244.998 341.267 244.998H395.888C397.135 244.998 398.146 246.234 398.146 247.757C398.146 249.282 397.136 250.517 395.888 250.517Z" fill="#FF9E22"/>
<path d="M395.888 232.351H341.267C340.02 232.351 339.009 231.116 339.009 229.591C339.009 228.068 340.02 226.831 341.267 226.831H395.888C397.135 226.831 398.146 228.066 398.146 229.591C398.146 231.115 397.136 232.351 395.888 232.351Z" fill="#FF9E22"/>
<path d="M351.385 228.858C351.778 231.994 349.6 234.656 347.035 234.176C345.436 233.877 344.13 232.28 343.885 230.326C343.492 227.19 345.67 224.528 348.235 225.007C349.834 225.306 351.141 226.904 351.385 228.858Z" fill="black"/>
<path d="M369.207 369.108L358.654 375.25L362.305 387.73L373.454 381.384L369.207 369.108Z" fill="#F09C98"/>
<path d="M358.911 370.644L351.099 374.059L342.831 358.284C340.747 355.292 337.43 354.053 334.333 355.108L332.514 355.691L346.548 403.381L364.876 390.513L358.911 370.644Z" fill="#FFD9A9"/>
<path d="M336.531 354.743L350.042 400.928" stroke="#4D2D3C" stroke-width="0.8665" stroke-miterlimit="10"/>
<path d="M356.13 392.148C353.885 393.13 351.414 391.7 350.612 388.956C349.808 386.211 350.977 383.19 353.223 382.21C355.468 381.228 357.939 382.658 358.742 385.402C359.545 388.145 358.376 391.166 356.13 392.148Z" stroke="#4D2D3C" stroke-width="0.8665" stroke-miterlimit="10"/>
<path d="M346.979 366.199L345.336 370.291" stroke="#4D2D3C" stroke-width="0.8665" stroke-miterlimit="10"/>
<path d="M349.128 370.308L347.485 374.4" stroke="#4D2D3C" stroke-width="0.8665" stroke-miterlimit="10"/>
<path d="M377.353 386.315L369.208 361.348L417.79 331.35C422.022 328.788 426.826 328.005 431.459 329.118L481.181 342.562L464.538 368.52L426.873 356.516L377.353 386.315Z" fill="#2D4482"/>
<path d="M376.534 391.663L363.256 361.287L374.074 354.082L387.603 384.228L376.534 391.663Z" fill="#485EA1"/>
<path d="M388.823 385.692L379.621 394.504L385.415 405.708L395.16 396.537L388.823 385.692Z" fill="#F09C98"/>
<path d="M379.049 389.94L372.036 395.359L361.149 382.173C358.581 379.81 355.123 379.487 352.29 381.344L350.618 382.399L372.835 425.19L388.421 407.738L379.049 389.94Z" fill="#FFD9A9"/>
<path d="M354.369 380.4L375.807 421.862" stroke="#4D2D3C" stroke-width="0.8665" stroke-miterlimit="10"/>
<path d="M380.178 411.668C378.163 413.226 375.496 412.49 374.222 410.027C372.948 407.563 373.55 404.303 375.565 402.746C377.58 401.188 380.247 401.924 381.521 404.387C382.795 406.851 382.194 410.111 380.178 411.668Z" stroke="#4D2D3C" stroke-width="0.8665" stroke-miterlimit="10"/>
<path d="M366.611 388.789L365.738 393.221" stroke="#4D2D3C" stroke-width="0.8665" stroke-miterlimit="10"/>
<path d="M369.443 392.224L368.57 396.656" stroke="#4D2D3C" stroke-width="0.8665" stroke-miterlimit="10"/>
<path d="M499.253 348.461L469.807 336.351L469.022 343.488L442.934 329.851C438.503 327.534 433.382 328.486 429.714 332.305L385.678 378.499L400.795 401.227L436.43 364.547L464.381 382.644C466.827 384.414 469.469 385.745 472.237 386.53C480.243 388.798 495.31 390.238 497.539 369.986C500.597 342.206 499.253 348.461 499.253 348.461Z" fill="#4354A2"/>
<path d="M399.136 406.593L381.216 380.015L390.66 370.344L408.787 396.634L399.136 406.593Z" fill="#5669B0"/>
<path d="M476.095 307.669C479.646 305.201 481.044 299.808 479.306 295.289C477.429 290.41 472.63 288.389 468.696 290.826C465.88 292.57 461.431 296.365 456.735 300.457L466.116 316.432L476.095 307.669Z" fill="white"/>
<path d="M466.231 316.33L456.735 300.456C450.52 305.874 447.74 308.487 443.856 310.907C439.477 313.637 437.936 320.352 440.512 325.471C442.89 330.195 447.902 331.767 451.846 329.025L466.231 316.33Z" fill="#FCA684"/>
<path d="M467.669 315.068L467.034 305.129L466.231 316.33L467.669 315.068Z" fill="#EDECEC"/>
<path d="M426.76 281.556L452.028 315.731C454.621 319.459 454.141 325.08 450.973 328.071C447.769 331.096 443.141 330.188 440.874 326.088L420.784 289.062L426.76 281.556Z" fill="#FCA684"/>
<path d="M419.296 291.22C422.389 294.282 426.926 293.701 429.432 289.92C431.937 286.14 431.461 280.592 428.369 277.53C425.276 274.467 420.738 275.049 418.233 278.829C415.728 282.61 416.204 288.157 419.296 291.22Z" fill="#FCA684"/>
<path d="M424.594 276.102C424.594 276.102 425.233 272.716 428.346 275.342C431.458 277.968 433.543 282.618 429.433 289.921L424.594 276.102Z" fill="#FCA684"/>
<path d="M426.883 259.376L418.969 258.203C418.528 258.138 418.157 258.556 418.139 259.136L417.361 284.043C417.343 284.623 417.685 285.146 418.125 285.211L426.04 286.384C426.48 286.449 426.852 286.031 426.87 285.451L427.648 260.544C427.666 259.964 427.324 259.441 426.883 259.376Z" fill="#37305E"/>
<path d="M428.41 259.601L420.495 258.429C420.055 258.363 419.683 258.781 419.665 259.362L418.888 284.268C418.869 284.848 419.211 285.371 419.652 285.437L427.566 286.609C428.007 286.674 428.378 286.256 428.396 285.676L429.174 260.77C429.192 260.189 428.849 259.666 428.41 259.601Z" fill="#261C42"/>
<path d="M428.198 262.04L421.243 261.01L420.609 281.308L427.564 282.339L428.198 262.04Z" fill="#E9E9E9"/>
<path d="M421.243 261.01L427.564 282.339L428.198 262.04L421.243 261.01Z" fill="white"/>
<path d="M475.882 288.825L469.691 290.885C468.696 291.222 466.516 297.475 466.426 298.734L469.584 340.2L497.262 345.84L497.914 296.671C498.21 294.427 497.033 291.486 495.215 291.011L484.386 288.986L475.882 288.825Z" fill="white"/>
<path d="M495.967 336.06L489.726 309.275V337.546L495.967 336.06Z" fill="#EDECEC"/>
<path d="M506.82 312.086L491.772 319.099C494.103 327.985 496.711 337.537 497.417 342.795C498.213 348.725 502.978 352.563 507.75 351.119C512.155 349.785 514.903 344.426 513.966 338.998L506.82 312.086Z" fill="#FCA684"/>
<path d="M503.278 298.744C502.433 293.859 498.656 290.59 494.606 291.241C490.235 291.943 489.023 303.952 489.726 309.273C490.229 313.083 490.011 312.384 491.773 319.097L506.821 312.085L503.278 298.744Z" fill="white"/>
<path d="M467.871 341.73L505.1 334.602C509.071 333.992 512.655 337.561 512.968 342.44C513.284 347.374 510.127 351.61 506.08 351.684L469.735 351.955L467.871 341.73Z" fill="#FCA684"/>
<path d="M470.398 354.658C474.188 353.171 476.275 348.212 475.06 343.579C473.844 338.946 469.787 336.395 465.997 337.88C462.207 339.366 460.12 344.326 461.335 348.959C462.55 353.592 466.607 356.143 470.398 354.658Z" fill="#FCA684"/>
<path d="M462.952 340.96C462.952 340.96 460.985 338.452 464.486 336.706C467.987 334.961 472.312 335.375 475.06 343.579L462.952 340.96Z" fill="#FCA684"/>
<path d="M470.51 248.852C470.51 248.852 487.861 247.065 491.506 254.638C495.152 262.211 492.354 274.705 484.354 278.798C476.732 282.698 478.431 252.056 478.431 252.056L470.51 248.852Z" fill="#611225"/>
<path d="M477.998 248.753C477.998 248.753 464.488 243.123 463.278 254.583C462.471 262.223 472.639 265.119 472.639 265.119L477.998 248.753Z" fill="#611225"/>
<path d="M472.449 267.836C472.662 270.358 471.163 272.613 469.101 272.875C467.038 273.136 465.193 271.305 464.979 268.783C464.765 266.261 466.264 264.005 468.326 263.743C470.389 263.482 472.235 265.314 472.449 267.836Z" fill="#D17A62"/>
<path d="M474.337 280.621L475.132 290.577C475.405 294.074 477.315 295.738 480.128 295.382C482.53 295.077 484.657 293.277 484.709 290.325L482.841 274.73L474.337 280.621Z" fill="#FCA684"/>
<path d="M474.924 288.923L484.149 277.111L474.238 279.601L474.924 288.923Z" fill="#D17A62"/>
<path d="M476.865 282.13C472.044 282.347 467.933 277.87 467.655 273.062L467.057 261.714C466.709 255.689 470.335 250.412 475.25 249.789C480.281 249.151 485.665 253.51 486.186 259.661L486.587 268.794C486.896 275.857 482.62 281.4 476.865 282.13Z" fill="#FCA684"/>
<path d="M469.243 253.637C469.243 253.637 468.226 261.195 485.412 262.047C485.776 262.065 491.675 250.23 477.998 248.753C477.998 248.753 473.378 247.252 469.243 253.637Z" fill="#611225"/>
<path d="M480.376 259.805L484.543 267.491L489.423 260.035L480.376 259.805Z" fill="#611225"/>
<path d="M491.052 267.306C491.265 269.828 489.766 272.083 487.704 272.345C485.641 272.606 483.796 270.775 483.582 268.253C483.368 265.731 484.866 263.475 486.929 263.213C488.992 262.952 490.839 264.785 491.052 267.306Z" fill="#FCA684"/>
<path d="M486.127 269.302C486.127 269.302 485.846 265.992 488.48 266.185" stroke="#611225" stroke-width="0.5094" stroke-miterlimit="10" stroke-linecap="round" stroke-linejoin="round"/>
<path d="M472.602 268.86L472.401 271.686L473.595 271.69" stroke="#611225" stroke-width="0.5094" stroke-miterlimit="10" stroke-linecap="round" stroke-linejoin="round"/>
<path d="M477.678 262.857C477.678 262.857 475.64 262.737 475.648 263.749C475.648 263.749 475.668 264.434 477.445 264.497C479.221 264.558 479.677 264.381 479.821 263.732C479.965 263.082 478.63 262.823 477.678 262.857Z" fill="#611225"/>
<path d="M469.504 263.467C469.504 263.467 471.175 263.185 471.338 264.13C471.338 264.13 471.435 264.77 469.971 264.975C468.507 265.181 468.023 264.973 467.87 264.459C467.697 263.878 468.707 263.515 469.504 263.467Z" fill="#611225"/>
<path d="M470.784 267.851C470.815 268.425 470.459 268.923 469.989 268.961C469.519 269 469.112 268.564 469.081 267.99C469.049 267.415 469.406 266.918 469.876 266.88C470.345 266.841 470.752 267.276 470.784 267.851Z" fill="#611225"/>
<path d="M477.934 267.268C477.966 267.843 477.61 268.34 477.14 268.379C476.67 268.417 476.263 267.982 476.232 267.407C476.2 266.833 476.556 266.335 477.026 266.297C477.497 266.258 477.904 266.694 477.934 267.268Z" fill="#611225"/>
<path d="M472.669 273.907C472.669 273.907 475.389 274.881 476.43 272.803" stroke="#611225" stroke-width="0.5094" stroke-miterlimit="10" stroke-linecap="round" stroke-linejoin="round"/>
<path d="M503.422 257.795C506.63 253.297 506.248 246.47 502.569 242.548C498.889 238.625 493.305 239.092 490.096 243.591C486.887 248.089 487.269 254.916 490.949 258.838C494.629 262.761 500.213 262.294 503.422 257.795Z" fill="#611225"/>
<path d="M86.7743 57.4724H59.6939C58.3071 57.4724 57.183 58.8665 57.183 60.5851V79.203C57.183 80.9216 58.3071 82.3157 59.6939 82.3157H70.7289L80.0066 94.9673V82.7757L86.8239 82.6064C88.1907 82.5725 89.2842 81.189 89.2842 79.4949V60.5851C89.2852 58.8665 88.161 57.4724 86.7743 57.4724Z" stroke="black" stroke-width="1.4001" stroke-miterlimit="10"/>
<path d="M24.0474 338.756C27.1664 338.756 29.6948 335.621 29.6948 331.755C29.6948 327.888 27.1664 324.754 24.0474 324.754C20.9284 324.754 18.4 327.888 18.4 331.755C18.4 335.621 20.9284 338.756 24.0474 338.756Z" fill="black"/>
<path d="M535.877 269.178C540.053 269.178 543.439 264.982 543.439 259.805C543.439 254.629 540.053 250.432 535.877 250.432C531.701 250.432 528.316 254.629 528.316 259.805C528.316 264.982 531.701 269.178 535.877 269.178Z" stroke="white" stroke-width="1.4001" stroke-miterlimit="10"/>
<path d="M484.49 44.1097C484.49 46.927 482.648 49.2096 480.376 49.2096C478.104 49.2096 476.261 46.9259 476.261 44.1097C476.261 41.2936 478.104 39.0098 480.376 39.0098C482.648 39.0098 484.49 41.2936 484.49 44.1097Z" fill="black"/>
<path d="M581.6 331.755C581.6 334.572 579.758 336.855 577.485 336.855C575.213 336.855 573.371 334.571 573.371 331.755C573.371 328.939 575.213 326.655 577.485 326.655C579.758 326.654 581.6 328.938 581.6 331.755Z" fill="black"/>
<path d="M292.977 85.4728H284.436V96.0602H292.977V85.4728Z" stroke="black" stroke-width="1.4001" stroke-miterlimit="10"/>
<path d="M333.087 54.7182H260.76C259.442 54.7182 258.373 53.4117 258.373 51.7993V28.1189C258.373 26.5065 259.442 25.2 260.76 25.2H333.087C334.406 25.2 335.475 26.5065 335.475 28.1189V51.7993C335.474 53.4117 334.405 54.7182 333.087 54.7182Z" fill="#FFD9A9"/>
<path d="M267.535 36.419H307.545" stroke="white" stroke-width="0.9797" stroke-miterlimit="10"/>
<path d="M267.535 43.4991H279.468" stroke="white" stroke-width="0.9797" stroke-miterlimit="10"/>
<path d="M267.535 51.3789V64.9868L279.37 51.3789H267.535Z" fill="#FFD9A9"/>
<path d="M532.196 212.22C546.358 212.22 557.839 198.186 557.839 180.873C557.839 163.56 546.358 149.525 532.196 149.525C518.033 149.525 506.553 163.56 506.553 180.873C506.553 198.186 518.033 212.22 532.196 212.22Z" fill="#FFD9A9"/>
<path d="M528.188 191.948C532.252 192.033 536.366 192.1 540.104 191.785C541.287 191.684 542.309 189.386 540.872 188.661C541.477 188.282 542.09 187.917 542.354 187.088C542.604 186.303 542.303 185.238 541.635 185.036C543.044 185.462 543.6 182.728 542.5 181.845C543.082 181.239 543.566 180.438 543.689 179.516C543.812 178.594 543.503 177.552 542.831 177.106C542.391 176.813 541.867 176.801 541.366 176.797C539.676 176.782 537.986 176.766 536.296 176.75C536.753 173.517 536.891 169.993 535.547 167.154C535.142 166.298 534.054 165.273 533.191 165.931C532.381 166.549 532.606 168.082 532.646 169.05C532.815 173.071 530.943 177.118 528.037 179.013C528.039 179.01 528.231 187.578 528.188 191.948Z" fill="#FEFEFE"/>
<path d="M526.714 179.01H520.572V191.935H526.714V179.01Z" fill="#FEFEFE"/>
<path d="M208.172 102.226H172.973C168.992 102.226 165.765 98.2809 165.765 93.4145V50.9855C165.765 47.1886 168.284 44.1097 171.39 44.1097H208.172C211.278 44.1097 213.796 47.1874 213.796 50.9855V95.3503C213.796 99.1472 211.278 102.226 208.172 102.226Z" fill="#FFD9A9"/>
<path d="M198.928 65.3744C196.764 62.786 193.3 62.8303 191.186 65.4737L189.79 67.2145L188.355 65.4865C186.201 62.8899 182.734 62.9249 180.612 65.5589C178.491 68.1941 178.517 72.4311 180.672 75.0255L185.998 81.4377C186.009 81.4517 186.017 81.468 186.027 81.4809C186.877 82.499 187.928 83.1084 189.021 83.3128C190.706 83.6292 192.487 82.9824 193.77 81.3805L199.01 74.8398C201.125 72.1988 201.089 67.9617 198.928 65.3744Z" fill="white"/>
<path d="M33.8589 206.843H61.6031V189.684C61.6031 188.262 60.6595 187.109 59.4962 187.109H33.8589C32.6957 187.109 31.752 188.262 31.752 189.684V204.267C31.752 205.689 32.6957 206.843 33.8589 206.843Z" fill="#FFD9A9"/>
<path d="M61.6012 202.76L61.6232 211.479L55.5326 202.783L61.6012 202.76Z" fill="#FFD9A9"/>
<path d="M41.6448 196.751C41.6476 197.659 41.0478 198.397 40.3048 198.399C39.5627 198.401 38.9591 197.668 38.9572 196.761C38.9543 195.854 39.5541 195.116 40.2971 195.113C41.0383 195.111 41.6419 195.844 41.6448 196.751Z" fill="white"/>
<path d="M47.4087 196.729C47.4106 197.636 46.8108 198.374 46.0687 198.377C45.3266 198.379 44.723 197.646 44.7211 196.739C44.7192 195.831 45.319 195.093 46.0611 195.091C46.8032 195.089 47.4068 195.822 47.4087 196.729Z" fill="white"/>
<path d="M53.1726 196.707C53.1745 197.614 52.5747 198.352 51.8326 198.354C51.0905 198.357 50.4869 197.624 50.485 196.716C50.4831 195.809 51.0829 195.071 51.825 195.069C52.5671 195.067 53.1707 195.8 53.1726 196.707Z" fill="white"/>
<path d="M438.069 187.45H349.702C347.032 187.45 344.867 184.803 344.867 181.538V75.0593C344.867 71.7949 347.032 69.148 349.702 69.148H438.069C440.739 69.148 442.904 71.7949 442.904 75.0593V181.538C442.904 184.804 440.739 187.45 438.069 187.45Z" fill="#FFD9A9"/>
<path d="M362.502 150.662H425.054" stroke="white" stroke-width="0.9797" stroke-miterlimit="10"/>
<path d="M362.502 165.017H381.321" stroke="white" stroke-width="0.9797" stroke-miterlimit="10"/>
<path d="M362.502 138.179H410.284" stroke="white" stroke-width="0.9797" stroke-miterlimit="10"/>
<path d="M410.896 103.224C410.896 115.452 402.788 125.365 392.785 125.365C382.783 125.365 374.674 115.452 374.674 103.224C374.674 90.9965 382.783 81.0839 392.785 81.0839C402.788 81.0839 410.896 90.9965 410.896 103.224Z" stroke="white" stroke-width="0.8895" stroke-miterlimit="10"/>
<path d="M399.888 96.7712C398.187 94.735 395.462 94.77 393.799 96.8495L392.701 98.219L391.572 96.86C389.879 94.8179 387.152 94.8459 385.483 96.916C383.814 98.9884 383.835 102.321 385.53 104.362L389.719 109.405C389.728 109.416 389.734 109.429 389.743 109.439C390.412 110.24 391.239 110.719 392.098 110.88C393.423 111.129 394.822 110.62 395.832 109.361L399.952 104.217C401.617 102.137 401.588 98.8051 399.888 96.7712Z" stroke="white" stroke-width="0.8895" stroke-miterlimit="10"/>
<path d="M110.375 209.492L88.7026 279.084C88.0006 284.681 88.4819 292.05 93.4035 296.967C94.1771 297.74 95.0472 298.359 95.9421 298.904L142.38 325.043L141.69 293.819L114.598 277.939L138.619 214.957L110.375 209.492Z" fill="#2D4482"/>
<path d="M130.897 314.034L141.724 312.662L141.699 300.318L130.298 301.644L130.897 314.034Z" fill="#F09C98"/>
<path d="M140.325 316.607L148.051 316.585L151.288 333.577C152.355 336.997 154.95 339.347 157.936 339.6L159.681 339.782L159.516 292.583L140.152 296.897L140.325 316.607Z" fill="#FFD9A9"/>
<path d="M155.914 339.084L155.825 293.405" stroke="#4D2D3C" stroke-width="0.8069" stroke-miterlimit="10"/>
<path d="M148.244 298.792C150.465 298.785 152.269 300.982 152.274 303.696C152.279 306.411 150.484 308.616 148.263 308.623C146.043 308.629 144.239 306.434 144.233 303.721C144.228 301.005 146.024 298.799 148.244 298.792Z" stroke="#4D2D3C" stroke-width="0.8069" stroke-miterlimit="10"/>
<path d="M149.664 325.051L152.149 322.085" stroke="#4D2D3C" stroke-width="0.8069" stroke-miterlimit="10"/>
<path d="M148.824 320.627L151.309 317.661" stroke="#4D2D3C" stroke-width="0.8069" stroke-miterlimit="10"/>
<path d="M133.63 346.02L134.725 359.259H144.822L143.767 345.318L133.63 346.02Z" fill="#F09C98"/>
<path d="M131.502 357.539V366.985L117.594 370.902C114.793 372.198 112.865 375.364 112.652 379.014L112.499 381.147L151.109 381.058L147.626 357.377L131.502 357.539Z" fill="#FFD9A9"/>
<path d="M113.078 376.543H150.444" stroke="#4D2D3C" stroke-width="0.8069" stroke-miterlimit="10"/>
<path d="M146.055 367.264C146.055 369.978 144.255 372.178 142.034 372.178C139.814 372.178 138.013 369.977 138.013 367.264C138.013 364.549 139.814 362.348 142.034 362.348C144.255 362.348 146.055 364.549 146.055 367.264Z" stroke="#4D2D3C" stroke-width="0.8069" stroke-miterlimit="10"/>
<path d="M124.572 368.936L126.992 371.981" stroke="#4D2D3C" stroke-width="0.8069" stroke-miterlimit="10"/>
<path d="M128.193 367.92L130.612 370.965" stroke="#4D2D3C" stroke-width="0.8069" stroke-miterlimit="10"/>
<path d="M117.951 209.492L118.111 211.89L109.892 211.043L120.034 240.643L127.258 348.676L149.418 347.673L150.63 209.492H117.951Z" fill="#4354A2"/>
<path d="M109.095 183.075C96.8762 173.925 79.7917 157.496 79.7917 157.496L73.3983 164.868L99.9706 198.43C103.727 202.348 109.479 201.056 111.853 195.762C113.849 191.309 112.637 185.727 109.095 183.075Z" fill="#FCA684"/>
<path d="M69.898 166.676C73.2599 169.252 77.6934 168.009 79.8003 163.898C81.9072 159.788 80.89 154.368 77.5272 151.792C74.1653 149.217 69.7318 150.46 67.6249 154.571C65.518 158.681 66.5352 164.101 69.898 166.676Z" fill="#FCA684"/>
<path d="M72.2838 150.633C72.2838 150.633 73.128 146.764 76.467 148.905C79.805 151.045 83.1497 156.067 79.8012 163.899L72.2838 150.633Z" fill="#FCA684"/>
<path d="M65.3413 131.478L57.2479 136.113C56.7981 136.371 56.6472 137.038 56.9127 137.603L68.2801 161.84C68.5446 162.405 69.1243 162.654 69.5751 162.396L77.6685 157.761C78.1183 157.503 78.2692 156.836 78.0037 156.271L66.6364 132.034C66.3708 131.469 65.7911 131.22 65.3413 131.478Z" fill="#37305E"/>
<path d="M66.2534 130.923L58.16 135.559C57.7102 135.817 57.5593 136.483 57.8248 137.047L69.1922 161.285C69.4568 161.85 70.0365 162.098 70.4863 161.84L78.5797 157.205C79.0295 156.947 79.1804 156.28 78.9149 155.716L67.5475 131.479C67.2839 130.914 66.7042 130.665 66.2534 130.923Z" fill="#261C42"/>
<path d="M67.2381 133.396L60.1265 137.469L69.3908 157.223L76.5024 153.149L67.2381 133.396Z" fill="#E9E9E9"/>
<path d="M60.1265 137.469L76.5024 153.149L67.2381 133.396L60.1265 137.469Z" fill="white"/>
<path d="M125.409 162.414L111.824 195.78C110.306 199.508 106.788 201.45 103.449 200.404C99.3804 199.127 97.1426 193.961 98.6077 189.228L109.324 154.614L125.409 162.414Z" fill="#FCA684"/>
<path d="M127.611 155.949L123.772 170.481L104.192 160.318L110.046 146.942C111.99 142.398 115.927 140.208 120.95 140.381L120.257 140.87C125.928 142.155 129.382 149.24 127.611 155.949Z" fill="white"/>
<path d="M112.4 164.578L113.013 153.214L108.392 162.498L112.4 164.578Z" fill="#EDEDED"/>
<path d="M120.95 140.381L147.808 140.371C151.768 140.371 148.481 144.035 148.897 148.848L150.578 215.388L109.892 211.043L113.24 149.012C113.592 144.127 116.939 140.381 120.95 140.381Z" fill="white"/>
<path d="M158.488 155.625L162.629 192.551C163.091 196.676 161.078 200.704 157.837 202.136C153.887 203.882 149.658 201.153 148.689 196.232L141.604 160.251L158.488 155.625Z" fill="#FCA684"/>
<path d="M157.33 148.767L160.851 163.419L139.871 166.059L138.666 153.413C138.181 148.319 140.469 143.433 144.308 141.366C149.586 138.527 155.704 142.004 157.33 148.767Z" fill="white"/>
<path d="M147.928 189.615C141.579 205.318 130.487 232.235 130.487 232.235L137.072 239.351L161.263 199.334C164.115 194.406 162.542 187.52 158.015 185.11C154.207 183.082 149.769 185.063 147.928 189.615Z" fill="#FCA684"/>
<path d="M138.861 243.449C140.655 239.123 139.241 233.838 135.702 231.644C132.164 229.451 127.84 231.179 126.045 235.505C124.251 239.831 125.665 245.116 129.204 247.31C132.743 249.504 137.066 247.775 138.861 243.449Z" fill="#FCA684"/>
<path d="M125.574 241.995C125.574 241.995 122.346 241.317 123.788 237.059C125.231 232.801 129.018 228.275 135.702 231.644L125.574 241.995Z" fill="#FCA684"/>
<path d="M120.706 120.1C121.222 122.637 119.958 125.205 117.882 125.834C115.807 126.465 113.707 124.919 113.192 122.382C112.676 119.844 113.941 117.277 116.016 116.648C118.09 116.018 120.191 117.564 120.706 120.1Z" fill="#D17A62"/>
<path d="M122.384 127.382L125.52 143.814C126.425 148.427 129.08 147.988 132.787 146.863C135.952 145.902 138.43 143.946 138.043 139.988L135.144 122.08L122.384 127.382Z" fill="#FCA684"/>
<path d="M124.921 140.71L133.114 128.437L123.123 131.313L124.921 140.71Z" fill="#D17A62"/>
<path d="M129.97 132.017L124.716 133.613C120.77 134.811 116.798 131.778 115.948 126.918L113.86 114.99C112.795 108.899 115.875 102.873 120.819 101.373C125.881 99.8349 131.891 103.336 133.148 109.524L135.143 122.082C135.861 126.549 133.585 130.92 129.97 132.017Z" fill="#FCA684"/>
<path d="M133.157 116.685C133.157 116.685 126.176 119.853 128.043 108.908C128.043 108.908 125.919 105.972 121.292 108.845C116.664 111.718 111.775 112.712 110.258 108.121C108.741 103.529 111.458 96.0485 121.535 97.7029C121.535 97.7029 125.101 98.2832 127.948 100.067C130.794 101.85 134.579 100.838 135.81 105.301C137.031 109.725 136.538 117.864 133.157 116.685Z" fill="#611225"/>
<path d="M139.065 114.986C139.581 117.523 138.316 120.091 136.241 120.72C134.165 121.351 132.065 119.805 131.55 117.268C131.035 114.731 132.299 112.163 134.375 111.534C136.449 110.904 138.549 112.45 139.065 114.986Z" fill="#FCA684"/>
<path d="M134.271 117.892C134.271 117.892 133.595 114.562 136.306 114.295" stroke="#611225" stroke-width="0.5157" stroke-miterlimit="10" stroke-linecap="round" stroke-linejoin="round"/>
<path d="M120.079 121.919L120.36 124.379L121.564 124.014" stroke="#611225" stroke-width="0.5157" stroke-miterlimit="10" stroke-linecap="round" stroke-linejoin="round"/>
<path d="M118.28 120.506C118.387 121.038 118.123 121.575 117.688 121.706C117.254 121.838 116.814 121.514 116.706 120.983C116.599 120.452 116.863 119.915 117.298 119.783C117.732 119.651 118.172 119.975 118.28 120.506Z" fill="#611225"/>
<path d="M124.636 118.577C124.743 119.108 124.479 119.645 124.044 119.776C123.61 119.908 123.17 119.584 123.063 119.053C122.955 118.522 123.219 117.985 123.654 117.853C124.088 117.722 124.528 118.045 124.636 118.577Z" fill="#611225"/>
<path d="M123.264 112.931C123.264 112.931 121.161 113.172 121.383 114.515C121.383 114.515 121.549 115.419 123.374 115.154C125.199 114.889 125.627 114.562 125.636 113.672C125.646 112.78 124.229 112.7 123.264 112.931Z" fill="#611225"/>
<path d="M115.932 115.08C115.932 115.08 117.577 114.379 117.943 115.6C117.943 115.6 118.178 116.431 116.728 116.991C115.279 117.551 114.741 117.37 114.475 116.719C114.175 115.981 115.13 115.3 115.932 115.08Z" fill="#611225"/>
<path d="M120.821 126.31L125.636 124.379C125.636 124.379 126.401 126.711 123.142 127.718C123.142 127.718 121.283 128.242 120.821 126.31Z" fill="white"/>
</g>
</g>
<defs>
<clipPath id="clip0_1_152">
<rect width="600" height="450" fill="white"/>
</clipPath>
</defs>
</svg>
