<svg version="1.2" xmlns="http://www.w3.org/2000/svg" viewBox="0 0 2832 1609" width="2832" height="1609"><defs><clipPath clipPathUnits="userSpaceOnUse" id="cp1"><path d="m-96-1186h3000v3000h-3000z"/></clipPath><clipPath clipPathUnits="userSpaceOnUse" id="cp2"><path d="m2904-1186h-3000v3000h3000z"/></clipPath></defs><style>.a{fill:#ecf0f1}.b{fill:#c2cbd6}.c{fill:#fff}.d{fill:#f7c19b}.e{fill:#333}.f{fill:#fbb03b}.g{fill:#53b4ed}.h{fill:#2b91cc}.i{fill:#faa951}.j{fill:#204f7f}.k{fill:#02bf96}.l{fill:#fa5669}.m{fill:#8a8bc4}.n{fill:#4bc8f1}.o{fill:#3a556a}.p{fill:#ffe683}.q{fill:#37424c}.r{fill:#667175}.s{fill:#2f3a3e}.t{fill:#3f3f3f}</style><g clip-path="url(#cp1)"><g clip-path="url(#cp2)"><g style="opacity:.4"></g><path class="a" d="m2304.9 145.6v1028.1c0 28.6-23.3 51.9-51.9 51.9h-1686.8c-28.7 0-51.9-23.3-51.9-51.9v-1028.1c0-28.6 23.2-51.9 51.9-51.9h1686.8c28.6 0 51.9 23.3 51.9 51.9z"/><path class="b" d="m1732 1431.9h-644.8c75.1-54.4 116.8-123.9 129.9-206.3h385.1c13 82.4 54.7 151.9 129.8 206.3z"/><path class="a" d="m1846.9 1481.2c0 13.6-5.5 25.9-14.4 34.8-8.9 8.9-21.2 14.4-34.8 14.4h-776.2c-27.2 0-49.2-22-49.2-49.2 0-13.6 5.5-26 14.4-34.9 8.9-8.9 21.3-14.4 34.8-14.4h776.2c27.2 0 49.2 22 49.2 49.3z"/><path class="c" d="m593.4 181h1632.4v862.5h-1632.4z"/><path class="b" d="m1409.6 1088.3c25 0 45.3 19.6 45.3 43.8 0 24.2-20.3 43.9-45.3 43.9-25 0-45.2-19.7-45.2-43.9 0-24.2 20.2-43.8 45.2-43.8z"/><path class="d" d="m401.4 574.3c0 0 8.7 84.5 54 81.8 45.2-2.8 0 3.2 0 3.2l-22.9 54c0 0-46.9-10.2-97.6-98.9l32.8-55.2z"/><path class="d" d="m389.2 1416.3l-2.4 61.6-48.7-0.9 1.5-59.2z"/><path class="e" d="m324.9 1508.8c0 12 9.9 21.6 21.9 21.6h98.7c8.7 0 15.8-7.1 15.8-15.8 0-1.6-1.6-4.9-2.8-5.9l-61.8-47.9c-2.2-1.7-5-0.9-7.2 0.7-14.5 10.9-35.2 10.5-55.7 9.3-7.6 13.4-9 26.1-8.9 38z"/><path class="d" d="m205.6 1416.3l-2.4 61.6-48.7-0.9 1.5-59.2z"/><path class="e" d="m141.3 1508.8c0.1 12 9.9 21.6 21.9 21.6h98.7c8.7 0 15.8-7.1 15.8-15.8 0-1.6-1.6-4.9-2.7-5.9l-61.9-47.9c-2.2-1.7-5-0.9-7.2 0.7-14.5 10.9-35.1 10.5-55.7 9.3-7.6 13.4-9 26.1-8.9 38z"/><path class="e" d="m346.3 747.7l71.7 296.4c5.2 21.8 7 44.3 5.3 66.7l-25.7 333.8h-67.6l-9.2-283c-1.2-20.7-5-41.1-11.3-60.8l-41.6-143.4-17 167.6q-0.6 7.6-1.6 15.2l-34.1 304.3h-69.6c-3.2-217.5-12.6-417.4-2.1-633l159.2-93.7z"/><path class="f" d="m156.5 609.7l1.1 0.6c-2.8 16.5-5.2 33.5-7.1 51.2 39.3 0.1 86.1-13.1 135.5-30.8 0 0 41.7-13.3 77.1 7.1 0.2-9.4 0.6-18.9 1.2-28.6 0 0 40.3-10.9 56.7-38.2l-51.5-84.1c-9.3-15.1-25.9-24.4-43.7-24.4l-27.7-3.6c0 0-28.5 27.7-55.3-3.5l-69.2 10.1c-18.9 2.9-35.3 14.8-43.8 31.9l-38.7 77.4 8.2 4.4z"/><path class="f" d="m138.7 873.3c71.5 33.5 156.4-1.5 240.3-24.3-10.2-50.8-16.7-137.1-16.1-198.2 0-4.3 0.1-8.6 0.2-13-35.4-20.4-77.1-7.1-77.1-7.1-49.4 17.7-96.2 30.9-135.5 30.8q-3.2 28.7-4.9 59.3c-1.7 29.1-7.2 121.2-6.9 152.5z"/><path class="g" d="m396.7 730.8h213.5l54-156.5h-212.7z"/><path class="h" d="m396.7 744.4h210l3.5-13.6h-213.5z"/><path class="g" d="m396.8 744.4h-150.8v-13.5h150.8z"/><path class="a" d="m511.3 652.6c0 10 8.1 18.2 18.2 18.2 10.1 0 18.2-8.2 18.2-18.2 0-10.1-8.1-18.3-18.2-18.3-10.1 0-18.2 8.2-18.2 18.3z"/><path class="d" d="m582.5 696.4c-2.4 1.6-3.1 4.8-1.8 7.3 4.1 8 11.9 20.7 11.9 20.7l-13.4-12.8c-2-1.9-5.3-1.8-7.1 0.4-1.6 1.9-1.5 4.7 0.1 6.5l11.4 12.4-13.6-5.3c-4.1-1.6-8.7 0.9-9.5 5.2-0.4 2.2 0.2 4.3 1.6 6 4.9 5.7 17.7 18.3 34.6 19.8 8.5 0.8 17.3-5.8 19.5-14l4-14.5c3.2-11.5 0.8-21.7-5.8-29l-6.6-7.4c-2.1-2.4-5.6-2.8-8.2-0.9-2.1 1.5-3.1 4.2-2.3 6.7l6 20.3-12.5-19.8c-1.8-2.8-5.6-3.6-8.3-1.6z"/><path class="d" d="m298.1 458.9l-0.1-15.1-23.2-8.4-30-11.2-2 5.7 0.3 29.4c0.1 14.7 11.8 26.8 26.6 27.3 15.5 0.5 28.4-12.1 28.4-27.7z"/><path class="e" d="m322.3 385.5c0 0 16.7-10.9 16.2-33.7 0 0 11.8-20.8 0.8-41.7-3.2-5.9-8-10.9-13.5-14.7-13.3-9.2-48-30-66-10.4 0 0-67.6-3.4-49.2 87.1 0 0 1.2 12.1 13.5 41.9l45.6-13.5z"/><path class="d" d="m330.2 339.9c0 0 19.8 104.6-28.7 112.3 0 0-48.8 8.2-71.9-37.4 0 0-15.1 3.9-19-16-0.9-4.5 0.4-9.3 3.8-12.3 4-3.5 10.5-4.5 19.6 10.2 0 0 19.9-27.9 16-47.8 0 0 37.1 0.9 49.6-15.1 9.2 7.2 19.6 8.5 30.6 6.1z"/><path class="d" d="m80.4 693.3c3.2 15.2 16.3 26.4 31.8 27.5 11.2 0.8 22.4 0.8 33.4 0 70.7-5 134-38.5 153.2-49.7 3.7-2.1 8.3-1.7 11.6 1l15.3 12.8c1.2 1 2.8 1.6 4.3 1.6 1.2 0 2.4-0.4 3.5-1 3-1.8 4-5.7 2.4-8.8l-10.6-20.2 21.1 14.1c1 0.6 2.1 0.9 3.2 0.9 1.8 0 3.6-0.8 4.7-2.4 1.4-2.1 1.3-5-0.4-7l-15.1-17.5 20.3 6.2q1 0.3 1.9 0.3c0.6 0 1.3-0.1 1.9-0.3 2.2-0.6 4-2.4 4.6-4.8 0.7-2.9-0.6-5.9-3.1-7.4q-0.7-0.4-1.3-0.8c-35.4-20.4-77.1-7.1-77.1-7.1-49.4 17.8-96.2 30.9-135.5 30.8-4 0-7.9-0.2-11.7-0.5l17.7-51.3-57.2-30.5c-25 51.3-23.9 90.6-18.9 114.1z"/><path class="i" d="m1086.8 511.8c-27.7 27.8-66 44.9-108.4 44.9-9.6 0-19-0.8-28.1-2.5l28.1-150.8z"/><path class="j" d="m950.3 554.2c-45.8-8.5-84.5-37.4-106.3-77l134.4-73.8"/><path class="k" d="m844 477.2c-12-21.9-18.9-47-18.9-73.8 0-84.6 68.7-153.3 153.3-153.3v153.3"/><path class="g" d="m1141.1 395.3l-153.3-0.1v-153.3c84.7 0 153.3 68.7 153.3 153.3z"/><path class="l" d="m978.4 403.4h153.3c0 42.4-17.1 80.7-44.9 108.4"/><path class="k" d="m198.4 286.8c-10.4-3-19.9-10.3-28.7-20.4q10.9-3.4 20.3-9.5c-0.7 10.3 2.4 20.3 8.4 29.9z"/><path class="k" d="m228 196.1c0 24.8-14.9 46.8-38 60.8q-9.4 6.1-20.3 9.5c-11.9 4.1-25.1 6.4-38.9 6.4-53.7 0-97.3-34.4-97.3-76.7 0-42.4 43.6-76.7 97.3-76.7 53.7 0 97.2 34.3 97.2 76.7z"/><path class="c" d="m74.3 187c5.5 0 9.9 4.4 9.9 9.9 0 5.5-4.4 10-9.9 10-5.5 0-10-4.5-10-10 0-5.5 4.5-9.9 10-9.9z"/><path class="c" d="m123.6 187c5.5 0 9.9 4.4 9.9 9.9 0 5.5-4.4 10-9.9 10-5.5 0-10-4.5-10-10 0-5.5 4.5-9.9 10-9.9z"/><path class="c" d="m172.9 187c5.5 0 10 4.4 10 9.9 0 5.5-4.5 10-10 10-5.5 0-9.9-4.5-9.9-10 0-5.5 4.4-9.9 9.9-9.9z"/><path class="a" d="m1409.6 866.8h120.9v120.9h-120.9z"/><path class="a" d="m2180.8 909.2h-611.3v-19.4h611.3z"/><path class="a" d="m1867.5 964.6h-297.9v-19.3h297.9z"/><path class="a" d="m1409.6 656.8h120.9v120.9h-120.9z"/><path class="a" d="m2180.8 699.2h-611.3v-19.4h611.3z"/><path class="a" d="m1867.5 754.7h-297.9v-19.4h297.9z"/><path class="a" d="m1409.6 446.8h120.9v120.9h-120.9z"/><path class="a" d="m2180.8 489.2h-611.3v-19.4h611.3z"/><path class="a" d="m1867.5 544.7h-297.9v-19.4h297.9z"/><path class="a" d="m1409.6 236.8h120.9v120.9h-120.9z"/><path class="a" d="m2180.8 279.2h-611.2v-19.3h611.2z"/><path class="a" d="m1867.5 334.7h-297.9v-19.4h297.9z"/><path class="m" d="m655.5 794h55.2v163.1h-55.2z"/><path class="n" d="m746.3 733.8h55.2v223.3h-55.2z"/><path class="o" d="m837.1 782.1h55.2v175h-55.2z"/><path class="i" d="m927.9 706.3h55.2v250.8h-55.2z"/><path class="l" d="m1018.8 744.2h55.1v212.9h-55.1z"/><path class="p" d="m1109.6 659.8h55.1v297.3h-55.1z"/><path class="h" d="m1200.4 697.7h55.2v259.4h-55.2z"/><path class="k" d="m1291.2 598.5h55.2v358.6h-55.2z"/><path class="b" d="m1356.8 999.1h-711.8c-4.1 0-7.5-3.4-7.5-7.6 0-4.2 3.4-7.5 7.5-7.5h711.8c4.2 0 7.5 3.3 7.5 7.5 0.1 4.2-3.3 7.6-7.5 7.6z"/><path class="k" d="m1503 270.9l6.5 6.6-54.9 54.8-24-23.9 6.6-6.6 17.4 17.5z"/><path class="k" d="m1503 480.9l6.5 6.5-54.9 54.9-24-24 6.6-6.5 17.4 17.5z"/><path class="k" d="m1503 690.9l6.5 6.5-54.9 54.9-24-24 6.6-6.5 17.4 17.5z"/><path class="j" d="m685.9 772.5l-5.7-5.7 93.4-94 90.5 74.2 90.8-111.2 90.6 72.3 92.4-127.1 89.1 73.5 88.4-130.2 6.7 4.6-93.4 137.4-89.3-73.6-92.3 127-91-72.6-90.8 111.4-91.1-74.8z"/><path class="k" d="m686.7 754c7.4 0 13.4 6 13.4 13.5 0 7.4-6 13.4-13.4 13.4-7.4 0-13.5-6-13.5-13.4 0-7.5 6.1-13.5 13.5-13.5z"/><path class="c" d="m686.7 758.6c4.9 0 8.9 3.9 8.9 8.9 0 4.9-4 8.8-8.9 8.8-4.9 0-8.9-3.9-8.9-8.8 0-5 4-8.9 8.9-8.9z"/><path class="k" d="m773.9 665c7.4 0 13.4 6 13.4 13.4 0 7.4-6 13.4-13.4 13.4-7.4 0-13.5-6-13.5-13.4 0-7.4 6.1-13.4 13.5-13.4z"/><path class="c" d="m773.9 669.5c4.9 0 8.9 4 8.9 8.9 0 4.9-4 8.9-8.9 8.9-4.9 0-8.9-4-8.9-8.9 0-4.9 4-8.9 8.9-8.9z"/><path class="k" d="m864.7 738.9c7.4 0 13.4 6 13.4 13.4 0 7.5-6 13.5-13.4 13.5-7.4 0-13.4-6-13.4-13.5 0-7.4 6-13.4 13.4-13.4z"/><path class="c" d="m864.7 743.5c4.9 0 8.9 3.9 8.9 8.8 0 4.9-4 8.9-8.9 8.9-4.9 0-8.9-4-8.9-8.9 0-4.9 4-8.8 8.9-8.8z"/><path class="k" d="m955.5 628.5c7.4 0 13.5 6.1 13.5 13.5 0 7.4-6.1 13.4-13.5 13.4-7.4 0-13.4-6-13.4-13.4 0-7.4 6-13.5 13.4-13.5z"/><path class="c" d="m955.5 633.1c4.9 0 8.9 4 8.9 8.9 0 4.9-4 8.9-8.9 8.9-4.9 0-8.9-4-8.9-8.9 0-4.9 4-8.9 8.9-8.9z"/><path class="k" d="m1046.3 699.3c7.5 0 13.5 6 13.5 13.4 0 7.5-6 13.5-13.5 13.5-7.4 0-13.4-6-13.4-13.5 0-7.4 6-13.4 13.4-13.4z"/><path class="c" d="m1046.3 703.8c5 0 8.9 4 8.9 8.9 0 5-3.9 8.9-8.9 8.9-4.9 0-8.9-3.9-8.9-8.9 0-4.9 4-8.9 8.9-8.9z"/><path class="k" d="m1137.2 576.2c7.4 0 13.4 6 13.4 13.4 0 7.4-6 13.4-13.4 13.4-7.5 0-13.5-6-13.5-13.4 0-7.4 6-13.4 13.5-13.4z"/><path class="c" d="m1137.2 580.7c4.9 0 8.8 4 8.8 8.9 0 4.9-3.9 8.9-8.8 8.9-5 0-8.9-4-8.9-8.9 0-4.9 3.9-8.9 8.9-8.9z"/><path class="k" d="m1228 646.4c7.4 0 13.4 6 13.4 13.4 0 7.5-6 13.5-13.4 13.5-7.5 0-13.5-6-13.5-13.5 0-7.4 6-13.4 13.5-13.4z"/><path class="c" d="m1228 650.9c4.9 0 8.9 4 8.9 8.9 0 4.9-4 8.9-8.9 8.9-4.9 0-8.9-4-8.9-8.9 0-4.9 4-8.9 8.9-8.9z"/><path class="k" d="m1318.8 516.5c7.4 0 13.4 6 13.4 13.4 0 7.4-6 13.4-13.4 13.4-7.4 0-13.5-6-13.5-13.4 0-7.4 6.1-13.4 13.5-13.4z"/><path class="c" d="m1318.8 521c4.9 0 8.9 4 8.9 8.9 0 4.9-4 8.9-8.9 8.9-4.9 0-8.9-4-8.9-8.9 0-4.9 4-8.9 8.9-8.9z"/><path class="k" d="m1503 900.9l6.5 6.5-54.9 54.9-24-24 6.6-6.5 17.4 17.5z"/><path class="d" d="m1948.3 1401l-2.9 57-45.8-2.3 2.8-57z"/><path class="q" d="m1918.3 1458.2c1 3.7 0 7.6-2.7 10.3l-57.1 57.2c-4.9 4.9-12.3 6.4-17.8 2.7q-0.1-0.1-0.3-0.1c-4.7-3.3-6.8-9.6-5.8-15.6l20.8-127.5c0.9-5.4 5.8-9.2 11-8.4l6.4 1.1c13.6 2.2 26.7 6.9 38.6 14 3.9 2.2 5.5 7 4.4 11.5q-1.2 4.6-2.1 9.1c-2.3 12.5-1.2 25.3 2.2 37.3z"/><path class="d" d="m2308.9 1435.7l56.8-6.1 4.9 45.6-56.8 6.1z"/><path class="q" d="m2369.9 1456.3c3.4-1.6 7.5-1.2 10.6 1.1l65.4 47.4c5.6 4.1 8.2 11.1 5.5 17.2q-0.1 0.1-0.1 0.3c-2.5 5.2-8.5 8.2-14.5 8.1l-129.1-0.5c-5.6-0.1-10.1-4.3-10.1-9.5l0.1-6.6c0-13.7 2.6-27.4 7.7-40.3 1.7-4.1 6.1-6.5 10.7-6.1q4.8 0.5 9.4 0.6c12.6 0.3 25.1-2.7 36.4-8z"/><path class="d" d="m2446.1 1057.4l8.2 2.7 4.5 1.8c0 0 59.3 48.2 82.9-12.1 9.2-23.5-16-46-38.1-33.9-0.3 0.2-0.7 0.4-1 0.5-0.7 0.5-1.5-0.5-1-1.1l14-15.7c2.3-2.7 2.2-6.7-0.5-9.2-1.3-1.3-3.1-1.9-4.9-1.8-1.3 0.1-2.6 0.6-3.7 1.4l-17.3 13.7c-3.9 3-8.9 4.5-13.8 3.9l-10.5-1.1-8.3-1.7z"/><path class="f" d="m2139.6 924.5c29.4 25 57.9 51.7 92.7 69 29.6 16.4 76.5 28.4 108.9 39.1l109.2 34.4 13.6-68.3-96.6-37.9-48.8-19.1-12.3-4.7c-12.4-4.5-23.9-12-32.5-22.1-6.3-7.1-31.1-32.7-39.9-39z"/><path class="r" d="m2404.6 1092.8c0 0.9 0 1.7 0 2.4l-18.9 344.2-87.1-0.3-11.4-134.3-11.8-139.7-131.2 93.9-74.7-24.2-4.7-1.5 2.9-36.3 1-12.5 3.5-43.4 1.1-14.2 77.2-37.5 140.6-68.3q2.1-1 4.2-1.9 5.1-2.2 10.5-3.5c29.1-7.6 60.7 2 80.6 25.9q3.2 3.8 5.8 8c8.3 12.9 12.6 27.9 12.4 43.2z"/><path class="r" d="m2336.1 1428.8q-0.3 0.4-0.6 0.7c-0.9 0.8-1.7 1.7-2.6 2.5q-0.4 0.4-0.8 0.8c-3.1 2.9-6.5 5.6-10 8q-4.1 2.8-8.6 5.1-0.4 0.1-0.6 0.3-0.2 0-0.3 0.1c-0.2 0.1-0.4 0.2-0.6 0.3-9.7 4.7-20.4 7.5-31.7 8.1l-338.5 15.4 0.1-16.9v-1.8l0.2-48.2v-1.8l0.1-19.9c-141.2-29.8-76.5-233.6-76.5-233.6l6.9 8.9c0 0 0.1 0 0.1 0l196.9 27.1h0.1l0.2 12.5 0.4 37.8 74.8 24.2 138.6 44.9c1.4 0.3 2.9 0.6 4.3 0.9 47.2 10.1 64.7 34.8 68.4 61.1 3.4 24.1-4.9 47-20.3 63.5z"/><path class="f" d="m2169.4 822c-4-2.8-10.2-6.6-18.7-10.3-53.8-23.1-116.3-2.7-148.3 46.4-54.5 83.7-100.3 180.8-139.8 281.7-2.5 6.3 0.7 13.5 7 15.9 70.7 26.1 145.1 36.5 222.7 42.6 5.1 0.4 9.9-2.4 12.1-7.1l137.5-299.5c8.1-22.2-67.1-65.9-72.5-69.7z"/><path class="s" d="m1942.2 1381.5c56.2 10.6 118.3 7.6 171.1-15.4q-85.5 13.5-171.1 15.4z"/><path class="d" d="m2119.5 797.2l13.4-28.7-0.9-44.6 28.9-15.9 9.7-17.9 28.1-5.5 62.5 31.2c12.4 26.8-6.5 52.5-6.5 52.5l5.8 21c0.7 2.5-0.8 5-3.4 5.5l-10 2c-17.3 55.2-67 26.1-67 26.1l-1.3 2.8c-8.4 16.7-29 23.2-45.4 14.1-15.1-8.3-21.2-26.9-13.9-42.6z"/><path class="t" d="m2132.9 768.5c0 0-53.5-123.6 53.4-131.2 31.6-1.4 49.9 9.5 65.4 23 6.1 5.4 13.4 9.2 21.4 10.8 15.7 3.1 40.1 14.5 17.3 55.4-4.1 7.3-13.4 10-20.7 5.8l-26.4-15.4-15.2 20.3-18.2 2.6-11.1 21.7-10.5-0.2 5.6-13.8c3.1-7.6 1.1-16.7-5.5-21.5-2.6-1.8-5.7-3.1-9.5-3.1-12.2 0.1-20.9 12.5-17.6 24.3q0.5 1.6 1.2 3.5z"/><path class="h" d="m2606.5 737l33.3 7.5-3 19.1 44 2.2-25-10.2 6.4-24.2z"/><path class="h" d="m2615.7 807.8l33.3 7.5-3 19 44 2.3-25-10.3 6.3-24.1z"/><path class="h" d="m2701.2 771.4l33.3 7.5-3 19.1 44 2.3-25.1-10.3 6.4-24.2z"/><path fill-rule="evenodd" class="g" d="m2419.9 850.6c-17.1 2.1-33.1-13-35.7-33.7-2.6-20.8 9.1-39.4 26.2-41.6 17-2.1 33.1 13 35.7 33.8 2.6 20.7-9.1 39.3-26.2 41.5zm-8.7-69.1c-13.7 1.7-23 17.2-20.8 34.6 2.2 17.3 15 30.1 28.7 28.3 13.7-1.7 23-17.2 20.8-34.6-2.2-17.3-15.1-30-28.7-28.3z"/><path class="g" d="m2574.8 829.9l-255.4-26.1-3.5-27.2 240.9-88.9z"/><path class="g" d="m2593 755.4c4.9 39.3-3.2 72.6-18.2 74.5-15 1.9-31.2-28.4-36.1-67.6-5-39.3 3.2-72.7 18.1-74.6 15-1.9 31.2 28.5 36.2 67.7z"/><path fill-rule="evenodd" class="h" d="m2573.5 832.9c-8 0-16.2-7-23.1-20-7-13.1-12.2-30.9-14.6-50.3-2.5-19.3-1.9-37.9 1.6-52.3 3.8-15.3 10.5-24.4 19.1-25.5 8.5-1 17.3 6 24.7 20 7 13.1 12.2 30.9 14.7 50.2 2.4 19.4 1.8 38-1.7 52.4-3.8 15.3-10.5 24.4-19 25.4q-0.9 0.1-1.7 0.1zm-15.3-142.3q-0.5 0-1 0c-5.9 0.8-11 8.4-14.1 21.1-3.3 13.7-3.9 31.6-1.5 50.2 2.3 18.6 7.3 35.8 14 48.2 6.1 11.5 13 17.7 18.8 16.9 5.9-0.7 11.1-8.4 14.1-21 3.4-13.7 3.9-31.6 1.6-50.2-2.4-18.7-7.3-35.8-14-48.3-5.8-10.8-12.3-16.9-17.9-16.9z"/><path class="d" d="m2398.5 916.4l3.8-6.1 3.2-3.6c0 0 66.5-37.9 18.7-81.7-18.5-17.1-48.6-1.7-45.3 23.3 0 0.4 0.1 0.7 0.1 1.1 0.2 0.8-1 1.2-1.4 0.5l-9.6-18.7c-1.7-3.2-5.5-4.5-8.7-2.9-1.7 0.8-3 2.2-3.5 4-0.4 1.2-0.4 2.5 0 3.9l6.5 21.1c1.4 4.7 0.9 9.9-1.3 14.2l-4.9 9.5-3.3 8.7z"/><path class="f" d="m2018.8 1159.8l109.3-39c36.3-13 73.7-24.3 106.1-45.6 29.1-17.5 62.9-52.1 88.4-74.8l83.1-83.5-55.9-35-76.2 59.9-41 32.7-10.2 8.2c-10.1 8.5-22.4 14.7-35.4 17.1-51.3 10.1-154.5 30.2-205.9 40z"/></g></g></svg>