<svg version="1.2" xmlns="http://www.w3.org/2000/svg" viewBox="0 0 1500 1000" width="1500" height="1000"><style>.a{fill:#bbcae5}.b{fill:#fef7e1}.c{fill:#ffa58b}.d{fill:#fefefe}.e{fill:#416c8c}.f{fill:#4c779e}.g{fill:#ef947f}.h{fill:#fafdfc}.i{fill:#1b333f}.j{fill:#db7d6e}.k{fill:#eaa747}.l{fill:#2e4f68}.m{fill:#f7b852}.n{fill:#f8f2f2}.o{display:none;fill:#f8f2f2}.p{fill:#fff}.q{fill:#e7eef2}.r{fill:#ccd7db}</style><g style="display:none"><path class="a" d="m0 0v1000h1500v-1000z"/></g><path class="b" d="m286.3 840.7c-8.1-58.9-15.2-123.1 15.1-174.2 26.8-45.4 93-64.3 125.3-105.9 43.1-55.6 74-91.4 80.7-186.2 7.1-100.6 80.8-129.9 152.5-139.8 85.9-11.8 113.4 24.1 127.6 39.5 29 31.2 52.5 49.2 67.2 52.1 32.6 6.4 82.4-30.6 109.9-12 24.8 16.7 33.7 49.5 32.7 79.4-1.1 29.9-10.1 58.9-12.9 88.7-2.8 29.8 1.8 62.7 23.2 83.6 28.2 27.5 75.3 25.2 106.3 49.5 32.1 25.2 38.1 73 26.6 112.2-8 27.5-23 52.6-29.7 80.3-9.3 38.4-1.5 80.5 20.9 113.1-90-11.2-181.1-13.1-271.4-5.6-33.9 2.8-67.8 6.9-101.8 8.4-66.5 2.7-133.5-4.8-199.6 3.2-28.7 3.4-57.3 9.7-86.1 8.3-25.7-1.2-50.6-8.5-76-12.3-15.7-2.4-31.6-3.4-47.5-3-10.9 0.2-36.3 8.1-45.7 3.8-16.4-7.4-15.1-66.5-17.3-83.1z"/><path class="c" d="m392.7 295.5q-16.1 0.2-32.2 1.8c-13.4 1.4-29.2 2.7-38.3-8-5.1-6.1-14.9-21.8-17.6-12.9-3.8 12.6 25.4 44.6 28.2 46.9 2.2 1.7 43.5 6.1 51.1 10.9 8.9 5.6 20.4 36 23.8 46.2 12.2-4.1 23.8-12.5 35.3-17.9-2.1-12.2-21.1-37.1-23.3-49.1-2.5-13.5-13-18.1-27-17.9z"/><path class="d" d="m440.5 354.8c0 0-10-25.8-10.5-28-0.5-2.3-35.4 5.2-47.2 12.7l9.7 26.5z"/><path class="e" d="m525.1 502.1c-9.3-4.1-56.4-105.9-84.6-161.1-17.5-1.2-34.8 7.4-57.7 15 15.9 65.1 73.7 196.9 78.7 200.1 46.3 29.9 109.9 43.7 161.9 62 13.4 4.8 56.9 14.8 65.8 3.7 20.8-26 16.4-60.9-7.3-71.7-41.3-19-115.1-29.8-156.8-48z"/><path class="f" d="m489.4 528.8q9.5-9.2 19.1-18.3c1.8-1.8-1-4.7-2.9-2.9q-9.5 9.2-19 18.4c-1.8 1.7 1 4.6 2.8 2.8z"/><path class="f" d="m511.5 518.3q-4 9.3-8 18.6c-1.1 2.4 2.4 4.4 3.4 2q4-9.3 8.1-18.6c1-2.3-2.5-4.4-3.5-2z"/><path class="c" d="m1055.8 256.5c4.1-0.8 17.6-7 21.7-7.4 9.5-1 8.3-3 7.5-7.1-9-1.3-23.8-1.1-34 4 10-17.9 31-22.5 33.5-28 0-8.5-5-5.3-14.4-1.7-9.5 3.6-17.2 10.7-24.6 17.6 4-12.9 18.5-24.9 27.5-33.3-0.3-8.7-11.9-1.9-21.2 6-9.3 7.9-16.3 18.6-26.7 25 2.8-9.7 30.4-31.5 27.4-37.6-5.5-5.1-23.4 12.5-35 27.1-5 6.2-16.4 14.7-19.7 20.5-3.5-10-2.6-28.9-13.3-26.8-5.4 1 3 58.4 3.3 60.7 1.7 11.8-2.9 34.4 14.9 36 14.7 1.4 14.3-16.1 21.9-25.6 11-13.6 13.9-25.8 31.2-29.4z"/><path class="d" d="m974.5 316.4c0 0 2-29.9 3-31.9 1-2 43.3 5 53.1 9l-4.1 33z"/><path class="f" d="m928.1 471.1c4.1-3.2 39.4-126.4 45.4-173.1 20.4 3.5 41.4 7.3 60.8 11.5-8.8 52.5-19 171-42.6 201.5-35.1 45.3-157.1 120.3-175.4 125.8-19.1 5.6-41.6-4.1-50.4-22-20.4-41.1 25.4-57.9 51.5-75.3 39.1-26 73.9-39.1 110.7-68.4z"/><path class="g" d="m1006 250.8c7.8 0.9 14.5 4.7 19.6 10.6 1.6 2 4.4-0.8 2.8-2.8-5.8-6.8-13.6-10.8-22.4-11.8-2.5-0.3-2.5 3.7 0 4z"/><path class="e" d="m946 481.6c9.9 4.6 19 10.6 27.1 18 1.9 1.7 4.8-1.1 2.9-2.9-8.4-7.5-17.7-13.8-27.9-18.6-2.4-1.1-4.4 2.4-2.1 3.5z"/><path class="e" d="m950.7 471.8c9.9 1.1 19 5.1 26.5 11.7 1.9 1.6 4.8-1.2 2.8-2.9-8.3-7.3-18.2-11.6-29.3-12.8-2.6-0.3-2.5 3.7 0 4z"/><path class="c" d="m1218.9 570c-4.7 0-12.3 9.4-19.5 13.1-0.7 2.7 19.5-24.1 14.4-33.7-5.1-2.9-16.6 25.6-19.4 26.6 1.8-9.9 8.5-26.5 6.8-36.4-0.3-1.8-0.5-4.6-2.3-4.8-5.2-0.4-8.5 20.7-8.9 23.4-0.3 2.6-2.7 7.7-3.8 8.8-1.2-7.5-2.7-18.7-5.9-25.1-0.5-1.1-1.1-2.1-2-2.9-0.9-0.7-2.2-1-3.2-0.4 0.8 9.9 4.5 22.4-1.2 28.9-6.7 3-11.5 4.4-18.8 5.1 4.3-4 24.4-15.8 11.3-25.6 0 0-7.1 7.4-9.3 9.8-2.3 2.3-12.4 6-20.8 9.2-14.2 5.4-15.5 14.6-22.2 26.5-6.8 11.9-29.7 27.9-38.8 38.3 9.6 9.3 9.8 18.6 19.4 27.9 8.3-8.6 19.8-15.6 28.1-24.2 5.9-6.1 13.6-14.9 21.2-18.5 7.2-3.4 13.2-2.8 20.8-5 11.8-3.5 12.7-2.4 25.2-8.5 1-0.5 40.5-28 28.9-32.5z"/><path class="h" d="m1089 609.5l21.5-16c0 0 22.1 20 21.6 41.5l-24.1 14.5c0 0-6.5-31-19-40z"/><path class="e" d="m978.3 678.1c35-23.5 118.1-81.2 121.3-79.1 2.4 1.6 21.7 27.8 24 47.5-20.7 22.2-129.2 102-133.6 100.3-42.6-15.9-109.6-58-174.3-97.6-5.8-3.6-12-6.8-16-12.3-11.7-16.2-8-53.9 3.7-69.2 12.7-16.7 0.8-11.2 17.7-3.6 52.2 23.5 125.3 74.7 157.2 114z"/><path class="g" d="m1148.8 581.1c4.9 4.1 8.3 9.3 10 15.5 0.6 2.5 4.5 1.4 3.8-1.1-1.8-6.8-5.5-12.7-11-17.2-1.9-1.6-4.8 1.2-2.8 2.8z"/><path class="c" d="m244.6 655.8c-11.9-1.8-16.4-2.3-28.9-6.5-1.8 12.8 12.3 17.1 22.7 19.6-7.3 3.9-19.7 6.4-28.2 2.9-10.1-4.2-10.7-7-19.5-20.1-5.9-9-10-4.3-5.4 9.6 6.6 10 11.1 20.1 21.2 24.6-10.7-0.3-29.4-15.3-33-19.3-4.7 3.8-1.2 11.7 3.1 16.3 9.1 9.9 24.9 15.9 37.7 19.5-17.5 6.4-33.4-4-36.1-1.1-2.8 5.8 10.6 12.8 18.6 14.2 8 1.5 16.2-0.1 24.1-1.6-5.5 6.7-22 14.7-19.4 16.8 3.7 2.9 8.8 0.4 12.7-1.9 26.6-15.2 60.1-18.2 89.6-7.7 1.4 0.5 2.9 1 4.4 0.6 2.8-0.9 3-4.8 3-7.8 0-10.5 3-21 8.6-29.7-13.5 1.6-22.4 2.1-33.1-5.9-15.1-11.4-23.6-19.6-42.1-22.5z"/><path class="h" d="m319.7 680.8c0 0-24.3-7.3-29-6.1 0 0-6.2 33.8-5.2 47.3l25.2 4.2z"/><path class="f" d="m489.5 689.9c-10.8 2.5-148.7-15.9-182.7-16.9-1.3 19.4-6 37.1-6 52.8 115.4 41 217.2 31 223.9 28.1 61.2-26.9 147.5-100.5 153-106.3 12.7-13.3-1.2-61.4-11.6-68.3-21.5-14-34.4-3.7-49.1 9.4-21.1 18.8-106.6 96.4-127.5 101.2z"/><path class="g" d="m237.7 675.5c-2.2 11.1-3.9 23.9 5.9 32 1.9 1.6 4.8-1.2 2.8-2.8-8.6-7.1-6.8-18.4-4.8-28.1 0.5-2.5-3.4-3.6-3.9-1.1z"/><path class="e" d="m491.6 703.8q4.6 11.3 9.2 22.7c1 2.3 4.9 1.3 3.9-1.1q-4.6-11.3-9.2-22.7c-1-2.3-4.8-1.3-3.9 1.1z"/><path class="e" d="m498.4 700.2q7.2 10.2 14.4 20.3c1.4 2 4.9 0 3.4-2.1q-7.2-10.1-14.3-20.2c-1.5-2.1-5-0.1-3.5 2z"/><path class="f" d="m618.9 583.3c-15.9 15.9-0.7 95.2 15.7 112.7 25.4 27.3 39.4 62 44.6 89.4 7.5 39.9-31.8 95.9-25.2 135.9 72.7 0 183.5 1.9 229.3-4 3.1-45.2-46.6-106-40-191.1 1.4-17.7 15-40.5 13.4-58.2-2.5-26.6-26-21.5-30-76-0.5-6.9-0.5-23.2-5.6-27.9-4.5-4.1-10.6-6-16.4-7.6-33.6-9.2-67.3-11.9-101.9-11.4-30.4 0.4-59.1 13.4-83.9 38.2z"/><path class="e" d="m685.3 724.6c11.9 11.4 32.4 16.5 48.2 11.2 17.7-5.9 25-24.3 30.9-40.4 0.9-2.4-3-3.4-3.9-1-5.2 14.3-11.5 31-26.9 37-14.5 5.7-34.4 1-45.4-9.7-1.9-1.8-4.7 1.1-2.9 2.9z"/><path class="e" d="m786.6 697.7c4.4 11.7 14.5 20.1 26.9 22 2.5 0.3 3.6-3.5 1.1-3.9-11-1.6-20.2-8.7-24.1-19.2-0.9-2.4-4.8-1.3-3.9 1.1z"/><path class="i" d="m653.3 445.1c0.4 17 1.4 59.9-14 82.1 17.3 8.2 53.6 10.5 92.7 11.5 16 0.4 63.2-3.5 79.3-8.3-11.3-21.6-0.9-59-0.7-81.4 0.2-17.3 0.2-35.3-7.5-50.8-7.8-15.8-22.8-27.2-39.1-33.8-16.1-6.5-34.1-7.8-51.1-3.9-43.6 10.2-60.3 47.7-59.6 84.6z"/><path class="h" d="m663.1 585.1q0.8 9.2 1.5 18.4c6.8-4.4 14.2-7.9 21.9-10.2q0.3 11.3 0.5 22.7c22.2-3.6 42.8 11.9 65.1 14.5 1.7 0.2 3.6 0.3 5.1-0.6 1.5-0.9 32.5-23.9 45.4-28.1-1.9-4.4-16.7-10.4-20.1-13.8q12.9-2.4 25.7-4.7c-1.1-14.5-4.5-21.9-17.6-37.6-4.4-5.3-14.6-13.8-32.8-16.2-26.1-3.4-42.5-1.1-68.7 3.5-25.3 4.5-27.8 30.4-26 52.1z"/><path class="g" d="m700 538.7c-4.1 6.2-9.7 11.7-9.7 11.7 0.2 4.4 2.8 8.4 5.3 12.1 15.4 23 32 47 56.8 59.3 14.3-15.6 20.9-45.6 23.5-71.7-12.9-3.1-15.1-8.5-15.9-16.2-1.6-14.9 1-30.5 0.8-47.4 0-1.7-48.8-4.6-60.8-9.6 3.5 19.5 3.7 56.1 0 61.8z"/><path class="c" d="m700 510.3c7.3 8.7 40.2 24.5 49.3 24.1 10.7-0.5 31.1-23.9 32.7-27.1 13.9-27.4 13.9-50.3 13.2-81-0.2-7-0.8-14.2-3.4-20.7-5-12.3-16.6-20.9-29.2-25.3-12.5-4.3-26-5-39.2-5.7-8-0.4-16.7-0.6-23.3 3.9-15.7 10.6-20.3 44.5-17.2 61.2 7.4 40.8 1 51.5 17.1 70.6z"/><path class="i" d="m706.7 411.4c6.5 7.1 8.6 15 8.6 23.6 14.7-4.3 20.8-8 29.7-25.5 2 9 5.9 14.3 5 25.5 15.2-1.6 17-9.8 26.7-21.6 0.2 5.1 3.4 10.4 0.7 21.8 16.1 0.6 16.5 0.6 22.6-4.5 5.5-4.7 3.5-14.9 2.3-22-1.3-7.1-5.4-13.4-10.2-18.8-13.4-14.9-33.2-23.8-53.3-23.9-9.4-0.1-18.6 1.7-27.8 3.5-6.5 1.2-13.2 2.5-18.8 6-8.4 5.2-13.3 14.4-17.5 23.4-4 8.4-9.7 20.8-5.5 30.1 4.9 10.8 11.2 38.5 16.6 30.9 7.9-10.9 12.7-23.8 20.9-48.5z"/><path class="c" d="m693 468.7c0 0 1.7-31.5-17.3-21.4-8 4.2-9.5 32.7 1 40.4 3.1 2.2 6.9 3.9 10.6 2.9 4.1-1.1 6.8-17.8 5.7-21.9z"/><path class="j" d="m745.3 459.7c-1.7 5-2 10.1-0.2 15.1 0.8 2.3 2 4.2 3.4 6.2 0.5 0.6 1 1.1 1.4 1.7 2.6 3.2 1.7 6.4-1.7 8.6-2.1 1.4-0.1 4.9 2 3.5 3.7-2.4 7.2-5.6 5.6-10.3-1.1-3.4-4.3-5.6-5.9-8.7-2.5-4.7-2.5-10.1-0.7-15 0.8-2.5-3-3.5-3.9-1.1z"/><path class="j" d="m682.8 452c-8-0.3-9.3 15.5-8.6 20.7 1 7 6.2 16.5 14.3 12.5 2.3-1.1 0.3-4.6-2-3.4-2.7 1.3-5.2-1.6-6.3-3.6-1.6-2.9-2.2-6-2.1-9.3 0.1-2 1.1-13 4.7-12.9 2.5 0.1 2.5-3.9 0-4z"/><path class="i" d="m714.6 446.7c4.2-5.1 10.7-7.2 17-5.3 2.5 0.8 3.6-3.1 1.1-3.8-7.6-2.3-15.8 0.1-20.9 6.2-1.6 2 1.2 4.9 2.8 2.9z"/><path class="i" d="m762.9 444.9c3.8-2.6 8.1-3.5 12.6-2.4 2.5 0.6 3.6-3.3 1.1-3.9-5.5-1.3-11.1-0.3-15.7 2.8-2.1 1.5-0.1 4.9 2 3.5z"/><path class="j" d="m726.9 501.2c7.5 4.9 16.2 6.9 25.1 6 2.5-0.2 2.5-4.2 0-4-8.3 0.9-16.1-0.9-23.1-5.4-2.2-1.4-4.2 2.1-2 3.4z"/><path class="i" d="m732.2 468.7c0 2.7-2.2 4.8-4.8 4.8-2.6 0-4.7-2.1-4.7-4.8 0-2.6 2.1-4.7 4.7-4.7 2.6 0 4.8 2.1 4.8 4.7z"/><path class="i" d="m773.7 468.5c0 2.6-2.1 4.7-4.7 4.7-2.7 0-4.8-2.1-4.8-4.7 0-2.6 2.1-4.7 4.8-4.7 2.6 0 4.7 2.1 4.7 4.7z"/><path class="c" d="m778 818.1c4-4.6 15.4 7.1 23.6 8.9 3.9-6.5-11.1-18.4-21.4-19.2 8.7-6.7 20-10 30.9-8.9 8.4-0.2 6.4-7.7-1.6-8.7-8.9-0.5-17.8 0.5-26.3 3 9.4-11.1 25-11.1 23.6-16.6-2.4-4.1-8.7-3.1-13.1-1.2-9.5 4.3-14.9 6.7-25.6 14.8-8.3 6.3-21.3 37-22.7 37q-9.7 0-19.4 0.1c-4.1 9.6-6.9 20.7-6.4 31.1 9.7 2.9 28.7 8.6 38.9 4.3 14.2-6 16.4-31.9 19.5-44.6z"/><path class="h" d="m717.5 819l24 4.8c0 0-3.5 29.7-10.6 44l-26.4-5.8z"/><path class="e" d="m609.8 798c4-27 10.5-53.6 19.3-79.5 12.2-35.9 29-74.3 16.3-110-4.2-12.2-14.3-24.2-26.5-25.2-17.5 11.6-36.1 26.8-44.5 61.7-3 12.5-41.5 141.3-29.9 203.3 38.3 22.3 131.5 23.7 175.1 22.3 6.4-12.3 11-42.4 13.5-53.8-43.9-11.9-79.6-6-123.3-18.8z"/><path class="f" d="m582.1 816.8q5.4-4 10.7-8c2.1-1.5 0.1-5-2-3.4q-5.3 3.9-10.7 7.9c-2 1.5-0.1 5 2 3.5z"/><path class="f" d="m598 826.6c2-5.6 5.4-10.3 9.8-14.2 2-1.7-0.9-4.5-2.8-2.8-5 4.3-8.6 9.7-10.9 15.9-0.9 2.4 3 3.5 3.9 1.1z"/><path class="k" d="m1130.8 174.3c-1.9 2.8 0.4 10.2 0.8 13.1 1.2 9.4 2.6 18.8 4.1 28.2 1.2 8 2.3 16 3.9 23.9 0.7 3.2 0.5 5.2 3.7 6.1 4.9 1.3 13.6-1.5 18.4-2.1 11-1.3 21.9-2.7 32.8-4 25.7-3.2 51.3-6.4 77-8.8 1.4-0.1 2.2-1.1 1.9-2.5-3.4-21.4-5-43.3-9-64.6-0.8-3.8-0.7-4.9-4.4-5.8-4.9-1.2-11.9 0.6-16.8 1.1-37.1 3.5-74.6 7.9-111.2 14.4-2.6 0.5-1.5 4.4 1 3.9 34.5-6.2 69.6-10.2 104.5-13.8 6.3-0.6 12.6-1.4 18.9-1.6 1 0 3.4-0.5 4.3 0-1.6-0.9 0 3.9 0.2 5.5 3.3 20.6 5.3 41.4 8.7 62q1-1.3 1.9-2.6c-41.1 3.8-81.9 10-122.9 14.4-1.5 0.1-3.8 0.7-5.3 0.5 1.9 0.3 0.6 1.3 0.4-2.2-0.4-6.9-2.5-14.2-3.6-21.1q-2.1-13.2-3.9-26.5c-0.4-2.7-2.9-14-2-15.5 1.4-2.2-2-4.2-3.4-2z"/><path class="k" d="m1131.5 177c22.9 16.6 49.1 27.6 72.6 43.2 0.7 0.5 1.8 0.3 2.4-0.3 19.8-18.5 37.8-38.8 56.4-58.4 1.8-1.9-1-4.7-2.8-2.8-10.5 11-20.9 22.3-31.4 33.3-4.5 4.7-9 9.4-13.5 14-2.3 2.2-4.4 4.7-6.9 6.7-3.9 3.2-2.8 2.7-7 1-10.7-4.4-21.2-12-31.4-17.6-12.5-6.9-24.8-14.2-36.4-22.6-2.1-1.5-4.1 2-2 3.5z"/><path class="k" d="m1144.1 245c13.4-12.8 27.2-25 40.3-38 1.8-1.8-1-4.7-2.8-2.9-13.2 13-27 25.3-40.4 38-1.8 1.8 1 4.6 2.9 2.9z"/><path class="k" d="m1224.2 202.6c14.9 9.1 30.4 17.4 44.1 28.2 2 1.6 4.9-1.2 2.9-2.8-14.1-11.1-29.8-19.5-45-28.8-2.2-1.4-4.2 2.1-2 3.4z"/><path class="d" d="m1059.6 98.9c4.8 19.4 11.8 38.2 17.2 57.4 0.4 1.1 1.4 1.6 2.5 1.4 36-5.1 72.3-15 107-25.7 1-0.3 1.7-1.4 1.4-2.4-3.6-12.4-6.9-24.8-10.3-37.2-1.2-4.6-2.9-20-7.8-21.6-1.8-0.6-5.7 0.9-7.5 1.3-6 1.1-12 2.4-17.9 3.7-16.3 3.5-32.6 7.1-48.9 11.1-11.4 2.7-23.5 5-34.3 9.5-2.4 1-1.3 4.8 1.1 3.9 23.2-9.7 50.2-13.5 74.6-18.8q9.3-2 18.5-4c3-0.6 9.5-3.2 12.5-2.4 3.1 0.8-0.6-1 1.2 1.9 3 5.1 3.9 13.6 5.5 19.4 3.1 11.4 6.1 22.9 9.4 34.2q0.7-1.2 1.4-2.4c-34.7 10.6-71 20.5-107 25.6q1.3 0.7 2.5 1.4c-5.5-19.2-12.4-38-17.2-57.4-0.7-2.5-4.5-1.4-3.9 1.1z"/><path class="d" d="m1060.1 99.7c6.9 5.4 14.3 9.9 21.8 14.2 3.3 1.9 7.2 5.1 11.1 5.5 2.4 0.2 5.9-1.3 8.3-1.8q9.9-2.1 19.9-4.2 10.2-2.1 20.4-4.2c3.7-0.8 9.3-1 12.6-2.7 2.5-1.3 2.6-2.2 3.9-5 4.1-9.4 8.4-18.7 13.3-27.7 1.3-2.2-2.2-4.2-3.4-2-4.5 8.2-8.5 16.5-12.2 25-0.9 1.9-1.5 4.7-2.8 6.4-0.6 0.7 2.3-1.1-0.1-0.5-9.9 2.3-19.9 4.2-29.9 6.3-9.6 2-19.7 5.2-29.5 6.2-2.3 0.2-0.5 0.2-0.5 0.3-2.1-0.6-4.3-2.4-6.2-3.4-8.2-4.6-16.4-9.4-23.9-15.2-2-1.6-4.8 1.3-2.8 2.8z"/><path class="d" d="m550 130.7c-30.7 29.2-29 61.4-25.4 74.5 21.4 77.2 117.3 65.7 199.2 67.6 3.7 11.7 16.8 34 23.5 53.5 10.9-19.5 35.5-55.2 35.5-55.2 6.3-2.1 45.9 9 79.9-19.3 16.5-13.7 24.8-30.9 25.1-52.5 0.6-39.4-25.1-85-105-101.2-126-25.7-207.2 7-232.8 32.6z"/><path class="f" d="m592.7 147.1q104.6-1.9 209.3-1.8c2.6 0 2.6-4 0-4q-104.7-0.1-209.3 1.8c-2.6 0-2.6 4 0 4z"/><path class="k" d="m579.3 186.7q122.7 0 245.4 0c2.5 0 2.5-4 0-4q-122.7 0-245.4 0c-2.5 0-2.5 4 0 4z"/><path class="f" d="m594 228q114.7 0 229.3 0c2.6 0 2.6-4 0-4q-114.6 0-229.3 0c-2.6 0-2.6 4 0 4z"/><path class="l" d="m347 116.8c-28 0.7-53.8 18.4-58.3 47.1-4.2 26.2 6.1 52.9 29.2 66.7 22.9 13.6 53.3 9.7 72.8-8 19.4-17.6 22.7-52.1 11.4-74.8-10.8-21.7-30.9-32.9-55.1-31-2.6 0.2-2.6 4.2 0 4 24.7-1.9 45.5 11 54 34.4 11.1 30.6-3 66.4-34.4 76.9-31.1 10.4-66-9-72.8-40.9-3.4-16.2-2.7-33.7 7.1-47.7 10.1-14.7 28.7-22.2 46.1-22.7 2.5 0 2.5-4 0-4z"/><path class="k" d="m269.4 173.8c0.3 24.4 7.5 47.9 25.7 64.9 17.1 16 37.8 22.1 61 19.4 23-2.7 43.9-13.1 57-32.7 12.5-18.7 14.6-41.9 11.8-63.7-0.3-2.5-4.3-2.5-4 0 2.4 19 1.3 38.8-7.9 56-11.5 21.6-33.1 33.5-56.9 36.4-49.3 5.9-82.1-33.6-82.7-80.3 0-2.5-4-2.5-4 0z"/><path class="k" d="m418.7 174.1c1.7-4.1 3.4-7.7 5.9-11.4q-1.5 0.2-3.1 0.4c2.5 3.2 5.6 5.4 7.6 9 1.3 2.2 4.8 0.2 3.5-2.1-2.2-3.8-5.6-6.2-8.3-9.7-0.8-1.1-2.5-0.5-3.1 0.4-2.7 3.9-4.6 7.9-6.4 12.3-0.9 2.4 2.9 3.5 3.9 1.1z"/><path class="k" d="m263.7 149.1c1.6 4.8 3 9.4 5.9 13.6 0.5 0.9 1.8 1.4 2.7 0.7 4.1-2.8 6.2-7.5 10.3-10.1 2.2-1.3 0.2-4.8-2-3.4-4.3 2.7-6.2 7.2-10.3 10.1q1.4 0.3 2.7 0.7c-2.6-4-3.9-8.2-5.5-12.6-0.8-2.5-4.7-1.4-3.8 1z"/><path class="k" d="m273.2 162.2c5.1-32.1 30.3-56.1 62.1-61.4 36.3-5.9 73.3 11.6 83.2 48.6 0.6 2.5 4.5 1.4 3.8-1.1-10.1-37.8-47.2-56.8-84.6-51.8-34.5 4.5-62.8 29.8-68.3 64.7-0.4 2.5 3.4 3.6 3.8 1z"/><path class="d" d="m347.2 175c2.4-0.1 4.6 2.1 4.5 4.6-0.1 2.2-2.2 3.3-4.2 3.3-5.3-0.1-4.4-7.3 0.2-8 2.5-0.3 1.5-4.2-1.1-3.8-4.1 0.6-7 4.8-6.8 8.8 0.2 4.3 4 7.2 8.2 7 4.2-0.2 7.9-3.4 7.7-7.8-0.2-4.4-4.1-8.2-8.5-8.1-2.6 0.1-2.6 4.1 0 4z"/><path class="d" d="m341.7 180.9c-6 3.5-12.6 6.4-18.4 10.2-2.2 1.4-0.2 4.9 2 3.5 5.9-3.9 12.4-6.7 18.4-10.3 2.2-1.3 0.2-4.8-2-3.4z"/><path class="d" d="m349.2 173c0.4-9.3 0.5-18.6 0.9-27.9 0.1-2.6-3.9-2.6-4 0-0.4 9.3-0.5 18.6-0.9 27.9-0.2 2.6 3.8 2.6 4 0z"/><path class="l" d="m350.7 137.2q0-4 0-8c0-2.6-4-2.6-4 0q0 4 0 8c0 2.5 4 2.5 4 0z"/><path class="l" d="m350.7 229.2q0-4 0-8c0-2.6-4-2.6-4 0q0 4 0 8c0 2.5 4 2.5 4 0z"/><path class="l" d="m390.7 181.2q4 0 8 0c2.6 0 2.6-4 0-4q-4 0-8 0c-2.5 0-2.5 4 0 4z"/><path class="l" d="m298.7 181.2q4 0 8 0c2.6 0 2.6-4 0-4q-4 0-8 0c-2.5 0-2.5 4 0 4z"/><path class="l" d="m371 143.5q2-3.4 3.9-6.9c1.3-2.3-2.2-4.3-3.4-2.1q-2 3.5-3.9 7c-1.3 2.3 2.2 4.3 3.4 2z"/><path class="l" d="m326 223.8q2-3.5 3.9-7c1.3-2.2-2.2-4.3-3.4-2q-2 3.5-3.9 7c-1.3 2.2 2.2 4.2 3.4 2z"/><path class="l" d="m384.4 201.4q3.5 2 6.9 4c2.3 1.2 4.3-2.2 2.1-3.5q-3.5-2-7-3.9c-2.3-1.3-4.3 2.2-2 3.4z"/><path class="l" d="m304.1 156.4q3.5 2 7 4c2.2 1.2 4.3-2.2 2-3.5q-3.5-2-7-3.9c-2.2-1.3-4.2 2.2-2 3.4z"/><path class="l" d="m329.9 141.5q-1.9-3.5-3.9-7c-1.2-2.2-4.7-0.2-3.4 2.1q1.9 3.5 3.9 6.9c1.2 2.3 4.7 0.3 3.4-2z"/><path class="l" d="m374.9 221.8q-1.9-3.5-3.9-7c-1.2-2.3-4.7-0.2-3.4 2q1.9 3.5 3.9 7c1.2 2.2 4.7 0.2 3.4-2z"/><path class="l" d="m311.1 198q-3.5 1.9-7 3.9c-2.2 1.3-0.2 4.7 2 3.5q3.5-2 7-4c2.3-1.2 0.3-4.7-2-3.4z"/><path class="l" d="m391.3 153q-3.4 1.9-6.9 3.9c-2.3 1.3-0.3 4.7 2 3.5q3.5-2 7-4c2.2-1.2 0.2-4.7-2.1-3.4z"/><path class="l" d="m920 154.9c7.7 10.3 15.2 20.8 23.1 30.9 4.1 5.2 4.8 6.3 10.3 3 23.2-13.8 45.7-28.6 68.8-42.4 2.2-1.3 0.2-4.8-2-3.4-21 12.6-41.8 25.7-62.7 38.6-2.4 1.5-5.7 4.5-8.4 5.2-2.6 0.6 1.8 1.2-0.1-0.1-1.6-1.1-3.3-4.1-4.4-5.5-7.2-9.3-14.1-18.8-21.1-28.3-1.5-2-5-0.1-3.5 2z"/><path class="l" d="m1022.2 143c-0.8-0.5-3.4-4.6-4.5-6.1q-4.7-6.3-9.2-12.7-6.3-8.6-12.5-17.3c-1.5-2-5 0-3.5 2.1q7.1 9.8 14.2 19.6c3 4.2 6.1 8.3 9.2 12.5 1.1 1.5 2.5 4.3 4.3 5.3 2.3 1.3 4.3-2.2 2-3.4z"/><path class="l" d="m922.8 155.6c24.2-15.1 48.7-30 72.5-45.9 2.1-1.5 0.1-4.9-2-3.5-23.8 15.9-48.3 30.8-72.5 46-2.2 1.3-0.2 4.8 2 3.4z"/><path class="l" d="m921.8 155.9c18.5 0.7 37.1 1.6 55.6 0 2.6-0.2 2.6-4.2 0-4-18.5 1.6-37.1 0.7-55.6 0-2.6-0.1-2.6 3.9 0 4z"/><path class="l" d="m979.4 154.6c4.2-15.6 10.1-30.8 16.6-45.6 1-2.4-2.4-4.4-3.5-2.1-6.6 15.2-12.7 30.7-17 46.7-0.6 2.5 3.2 3.5 3.9 1z"/><path class="l" d="m1265.6 73.9c-1.6 15.2-3.4 30.3-4.5 45.5-0.6 7.9-0.5 8.7 7 10.2 31.1 6.2 62.4 11.4 93.4 17.8 2.5 0.5 3.6-3.3 1.1-3.9-29.2-5.9-58.5-11.1-87.8-16.7-3-0.5-7.7-0.6-10.4-2-0.1-0.1-0.1 1.7 0.4-1.2 0.4-2.2 0.3-4.6 0.5-6.8 1.1-14.3 2.8-28.6 4.3-42.9 0.2-2.6-3.8-2.5-4 0z"/><path class="l" d="m1364 144.9c-0.5-1.8 0.6-6.7 0.8-9q1-9.2 2.1-18.4 1.4-12.9 3-25.8c0.3-2.5-3.7-2.5-4 0q-1.7 13.9-3.3 27.8c-0.6 5.9-1.3 11.9-1.9 17.9-0.3 2.5-1.3 6.1-0.6 8.6 0.7 2.5 4.6 1.4 3.9-1.1z"/><path class="l" d="m1267 75.8c33.4 6.2 66.8 12.7 100.4 17.8 2.5 0.4 3.6-3.4 1-3.8-33.5-5.1-66.9-11.7-100.3-17.8-2.5-0.5-3.6 3.4-1.1 3.8z"/><path class="l" d="m1266.6 75.6q24.8 16.7 48.6 34.6c2.1 1.6 4.1-1.9 2-3.4q-23.8-18-48.6-34.6c-2.2-1.5-4.2 2-2 3.4z"/><path class="l" d="m1316.6 110.6c18-3.8 35.4-9.9 52.3-17.2 2.4-1 0.3-4.4-2-3.4-16.6 7.1-33.7 13-51.3 16.8-2.6 0.5-1.5 4.3 1 3.8z"/><path class="d" d="m1185.3 273.8c0 31.3-0.6 62.6 0.6 93.8 0 2.5 4 2.5 4 0-1.2-31.2-0.6-62.5-0.6-93.8 0-2.5-4-2.5-4 0z"/><path class="l" d="m1200 273.6q0 8.6 0.1 17.1c0 1.1 0.9 2.1 2 2 20.7-0.8 41.6-0.3 62.4 0 1 0.1 2-0.9 2-2q0-9 0-18.1c0-1.1-1-2.1-2-2-20.9 0.3-41.7 0.7-62.5 1-2.5 0.1-2.6 4.1 0 4q19.9-0.3 39.9-0.6c6.2-0.1 13.3 0.7 19.4-0.4 1.5-0.2 3.8 0.8 2.1-0.9-1.7-1.7-0.9 5.3-0.9 7 0 2.5-0.8 6.7 0 9 0.5 1.7 1.4-1 1.5-1-0.7-0.1-1.5 0.2-2.1 0-5.8-1.6-14.3-0.2-20.2-0.2-9-0.1-17.9-0.1-26.9 0-1.6 0-10.3 1.2-11.2 0.2-0.8-0.8 0.4-13.6 0.4-15.1 0-2.5-4-2.5-4 0z"/><path class="k" d="m1200 299.2q0 8.6 0.1 17.2c0 1 0.9 2 2 2 30.7-0.9 61.5-0.4 92.3 0 1 0 2-1 2-2q0-9.1 0-18.2c0-1.1-1-2-2-2-30.8 0.3-61.6 0.7-92.4 1-2.5 0.1-2.6 4.1 0 4q43.2-0.4 86.4-1c1.4 0 3.6 0.4 4.9 0 0.3-0.1 0.7 0 1 0-3.1-0.1-1-2.9-1.9 0.9-0.8 3-0.5 8.5 0 11.7 0.1 1-0.1 2.2 0 3.3-0.2-1.6 3-1.1 1-1.8-4.1-1.3-10.8-0.1-15.1-0.1q-13.5-0.1-26.9-0.1c-10.8-0.1-21.6-0.1-32.3 0-3.8 0-9.6 1.2-13.2 0.2-2.8-0.9-2.1-0.3-1.8-4.2 0.2-3.6-0.1-7.3-0.1-10.9 0-2.5-4-2.5-4 0z"/><path class="l" d="m1200 324.8q0 8.6 0.2 17.2c0 1 0.9 2 2 2 44.3-0.9 88.7-0.4 133 0 1.1 0 2-1 2-2q0-9.1 0-18.2c0-1.1-0.9-2-2-2-44.4 0.3-88.8 0.7-133.2 1-2.5 0.1-2.6 4.1 0 4 40.5-0.3 81-0.6 121.5-0.9 2.7 0 5.5 0.2 8.2-0.1 5-0.5 1.3 0.9 1.5-1.8-0.3 4.5 0 9.1 0 13.5 0 0.7-0.4 2.3 0 2.9 1.7 2.5-4-0.3 2-0.4-0.4 0-1.3 0.1-1.6 0-1.6-0.9-6-0.1-7.8-0.1q-7.1 0-14.2-0.1-18.5-0.1-37-0.1-22.4-0.1-44.8 0-9.9 0-19.8 0.1c-1 0-2.4 0.3-3.3 0.1q-0.8 0-1.6 0-2.5 0.8-1-1.4c-1.4-2.6-0.1-10.7-0.1-13.7 0-2.5-4-2.5-4 0z"/><path class="d" d="m1200 350.5q0 8.5 0.1 17.1c0.1 1 1 2 2 2 36.7-0.9 73.3-0.4 109.9 0 1.1 0 2-1 2-2q0-9.1 0-18.2c0-1.1-0.9-2-2-2-36.6 0.3-73.3 0.7-110 1.1-2.5 0-2.6 4 0 4 33.9-0.3 67.8-0.7 101.6-1 1.7 0 4.9 0.5 6.5-0.1 0.5-0.2 1.1 0.1 1.6 0-1.3 0.2-0.5-2.4-1.7-0.4-1.3 2.1 0 9.7 0 12.1 0 1.3-0.2 2.9 0 4.2-0.3-1.7 3.1-1 1-1.7-4.6-1.7-12.8-0.1-17.7-0.2q-15.7-0.1-31.4-0.1-18.9-0.1-37.7 0c-5.4 0-11.2 0.7-16.6 0.2-3.9-0.4-3 1.1-3.5-2.8-0.6-3.9-0.1-8.3-0.1-12.2 0-2.6-4-2.6-4 0z"/><path class="k" d="m74.9 503.4c33.9 39.1 68.8 77.4 103.6 115.7 1.7 1.8 4.1 6 6.8 6.2 3.2 0.3 8-4.8 10.2-6.5 16-12.6 31.1-26.5 46.1-40.2 8.4-7.6 16.7-15.4 24.9-23.3 3.4-3.3 9.2-7.3 11.1-11.8 0.3-0.9 0.3-1.7-0.3-2.5-36-41.4-72.1-82.8-108.6-123.8-1.7-1.9-4.5 0.9-2.8 2.9 26.9 30.2 53.6 60.7 80.2 91.2 8.4 9.6 16.3 21.1 25.8 29.7 0.8 0.7 1.3 1.6 2 2.3 1.2 1.3 1-2.1-0.2-1.1-2.7 2.2-5.1 5.4-7.6 7.9-20.6 20.4-42.3 39.8-64.5 58.5-3.9 3.3-7.9 6.7-12.1 9.7-1.1 0.9-2.4 2.1-3.8 2.6-1.7 0.7 1.9 1.6 0 0.1-7.7-5.9-14.1-15.5-20.6-22.7-29.4-32.4-58.7-64.7-87.4-97.7-1.7-2-4.5 0.8-2.8 2.8z"/><path class="m" d="m77.7 503.4c8.6-7.1 16.8-14.5 24.6-22.4 1.8-1.9-1-4.7-2.8-2.8-7.8 7.9-16 15.3-24.6 22.4-2 1.6 0.8 4.4 2.8 2.8z"/><path class="m" d="m144.1 441.7c7.4-7.6 15.4-15.4 24.2-21.3 2.1-1.5 0.1-4.9-2-3.5-9.1 6.2-17.3 14.1-25 21.9-1.8 1.9 1 4.7 2.8 2.9z"/><path class="d" d="m107.7 487.8c-4.7 5.1-10.4 9.2-15.1 14.2-0.7 0.9-0.7 2 0 2.9 20.2 22.6 40 45.5 60.1 68.2 7.9 8.9 15.8 17.9 24 26.5 2.2 2.4 5.6 7.6 9.3 6.8 3.9-0.9 9.5-8.1 12.4-10.6 8.8-7.8 17.5-15.6 26.2-23.5 8-7.2 15.8-14.3 23.7-21.6 2.1-2 9.1-6.5 9.3-10 0.1-2-3.9-5.3-4.9-6.5q-5.5-6.6-11-13.2-12.7-15.1-25.4-30.2-24-28.4-47.8-56.9c-0.8-0.9-2.1-0.7-2.9 0-5.5 4.6-11 9.2-16.4 14-1.9 1.8 0.9 4.6 2.8 2.9 4.3-3.9 8.7-8.2 13.4-11.5 0.4-0.3 2-2.1 2.5-2.1-1.7 0.1 1.8 4.2 2 4.6 2.6 4.8 7.6 9 11.1 13.2q22 26.3 44.1 52.5 10.2 12.2 20.4 24.3c1.1 1.3 8.4 8.6 8.4 7.9 0 0.6-2 2-2.3 2.3-5.5 6.8-13.3 12.4-19.7 18.3-15.3 13.9-30.2 29-46.6 41.6-1.5 1.2 0.3 1.8-1.3-0.6-2.2-3.2-5.9-6-8.5-8.9-9-9.7-17.7-19.6-26.4-29.4-11.9-13.5-23.7-27-35.6-40.5-4.8-5.4-11.9-11.3-15.5-17.6 0.7 1.2-1.4-2.5-1.6-1.1 0.1-1.1 3.7-3.5 4.7-4.4 3.2-2.8 6.5-5.6 9.4-8.7 1.8-1.9-1-4.7-2.8-2.9z"/><path class="l" d="m124.6 512.7c16.4-14.1 33-27.9 49-42.4 1.9-1.8-0.9-4.6-2.8-2.9-16 14.5-32.6 28.4-49 42.5-2 1.7 0.9 4.5 2.8 2.8z"/><path class="k" d="m141.1 528.2c15.2-13.7 30.5-27.1 45.9-40.4 1.9-1.7-0.9-4.6-2.8-2.9-15.4 13.4-30.8 26.8-45.9 40.5-1.9 1.7 0.9 4.5 2.8 2.8z"/><path class="l" d="m158 544.7q21.9-19.1 43.8-38.1c1.9-1.7-0.9-4.5-2.8-2.8q-22 19-43.8 38.1c-1.9 1.7 0.9 4.5 2.8 2.8z"/><path class="k" d="m173.8 562q21.3-19.7 43.6-38.1c2-1.7-0.8-4.5-2.8-2.9q-22.3 18.5-43.6 38.2c-1.9 1.7 0.9 4.5 2.8 2.8z"/><path class="l" d="m189.2 579.8q21.3-19.7 43.6-38.2c2-1.6-0.8-4.4-2.8-2.8q-22.3 18.5-43.6 38.1c-1.9 1.8 0.9 4.6 2.8 2.9z"/><path class="l" d="m92.6 471.5c6.9 7.2 13.3 17 21.4 22.7 5.5 3.9 9.1-2.7 13.1-6.7 6-5.9 12-11.8 18.1-17.6 2.9-2.8 12.3-8.6 12.8-12.6 0.2-2.7-3.5-6-5.1-7.7-5.2-6-10.8-11.6-16.2-17.4-1.7-1.9-4.6 0.9-2.8 2.8 3.5 3.8 20.8 18.9 19.1 22.7-0.8 1.9-6.5 5.5-8.2 7.1q-3.6 3.3-7.2 6.8c-4.2 4-8.3 8.1-12.5 12.2-1.7 1.7-5.6 7.3-8 7.7 0.2 0-3.1-2.9-4.6-4.5-5.8-6-11.3-12.3-17.1-18.3-1.8-1.8-4.6 1-2.8 2.8z"/><path class="l" d="m95.4 471.5c3.6-4.3 8.4-7.2 12-11.6 0.6-0.8 0.8-2.1 0-2.8-3.6-3.3-7.9-7.8-5.9-13.1 1.5-4 5.7-7.5 9.6-7.3 4.8 0.3 8.7 4.3 11.8 7.8 0.6 0.6 1.8 0.8 2.5 0.3 3.8-3 7-6.5 10.9-9.5 2-1.5 0-5-2-3.4-2.6 1.9-5.7 4.1-7.6 6.7-3.8 5.3 0.5 2.4-2.3 1.6-1-0.3-2.6-2.5-3.4-3.1-3.5-2.8-8.5-6.3-13.2-4.8-4.5 1.3-9.2 7.4-10.7 11.6-2.1 6.4 3.1 12 7.4 16q0-1.4 0-2.8c-3.6 4.3-8.3 7.2-11.9 11.6-1.7 2 1.2 4.8 2.8 2.8z"/><path class="l" d="m108.5 443.7c-1.8 2.2-1.9 5.6 0.3 7.6 2.2 1.9 5.8 1.7 7.6-0.5 0.7-0.8 0.9-2 0-2.8-0.7-0.8-2.1-0.9-2.8 0-0.5 0.6-1.5 1-2.1 0.3-0.5-0.3-0.6-1.3-0.2-1.8 0.7-0.8 0.8-2 0-2.8-0.7-0.7-2.1-0.9-2.8 0z"/><path class="d" d="m109.3 471.3q2.7-2.4 5.5-4.8c1.9-1.6-0.9-4.5-2.9-2.8q-2.7 2.4-5.4 4.7c-2 1.7 0.9 4.5 2.8 2.9z"/><path class="d" d="m114.8 476.8q1.7-1.5 3.4-2.9c0.8-0.8 0.7-2.1 0-2.9-0.8-0.8-2-0.7-2.9 0q-1.6 1.5-3.3 2.9c-0.8 0.7-0.7 2.1 0 2.9 0.8 0.8 2 0.7 2.8 0z"/><path class="d" d="m120.4 480.7q0.2-0.2 0.5-0.4c0.8-0.7 0.7-2.1 0-2.8-0.9-0.8-2.1-0.7-2.9 0q-0.2 0.2-0.4 0.4c-0.8 0.7-0.7 2.1 0 2.8 0.8 0.8 2 0.7 2.8 0z"/><path class="d" d="m323.5 498.5c-14.5 37.7-26.8 76.3-39.8 114.6-0.4 1.1 0.4 2 1.4 2.4 18.7 7.9 37.9 14.6 57.1 21 6.2 2 14.4 7.6 17.9 0.7 7.1-13.7 10.7-30.5 15.6-45.1 7.5-22.7 14.8-45.5 21.5-68.5 0.3-1.1-0.4-2.1-1.4-2.5-22.6-9.1-46.3-14.8-68.9-23.9-2.4-0.9-3.4 2.9-1 3.9 22.6 9 46.3 14.7 68.8 23.9q-0.6-1.2-1.3-2.5c-10.7 36.7-22.4 73.3-35.5 109.2-0.6 1.7-1.2 3.4-1.9 5.1-0.7 1.7 2.2 0.5 0-0.3-5.5-1.9-11.2-3.4-16.8-5.2-17.8-6-35.7-12.3-53.1-19.6q0.7 1.2 1.4 2.4c13.1-38.2 25.4-76.8 39.9-114.6 0.9-2.4-3-3.4-3.9-1z"/><path class="l" d="m324.6 518.7c18.8 8.4 38.6 13.9 58.1 20.4q-0.7-1.2-1.4-2.4c-7.9 27.5-18.7 54-27.8 81.1q1.2-0.7 2.4-1.4c-12.1-3.7-24.2-7.8-36.1-12.2q-6.4-2.4-12.8-4.8c-1.8-0.7-5.9-2.5-5.6-1.4-0.7-2.1 2.1-7.9 2.8-9.9 1.7-5.8 3.6-11.6 5.6-17.4 4.1-12.5 8.3-24.8 12.5-37.2 1.1-3.3 7-14 5.1-17.5-1.3-2.3-4.7-0.3-3.5 2-0.9-1.7-0.2-1.1-0.9 0.8-0.6 1.6-1.1 3.3-1.7 5q-2.8 8.3-5.6 16.7c-4.5 13.3-9.1 26.6-13.4 40-1.2 3.9-6.9 15.1-4.6 19.2 2.1 3.6 14.4 5.9 18.2 7.3 12.9 4.7 25.8 9.3 39 13.3 1.1 0.3 2.1-0.4 2.4-1.4 9.2-27.1 19.9-53.7 27.8-81.2 0.3-1-0.4-2.1-1.4-2.4-19.1-6.4-38.6-11.8-57-20-2.4-1.1-4.4 2.4-2.1 3.4z"/><path class="l" d="m317.7 616c-1 3.4 1.7 6.3 4.7 7.7 2.6 1.2 6.8 1.8 8.6-1.1 2.3-3.8 0.6-8.5-3.2-10.3-1.8-0.9-3.9-1.4-5.9-0.8-2.2 0.6-3.4 2.5-4.2 4.5-0.9 2.3 3 3.4 3.9 1 0.9-2.3 3.2-2.1 5-0.8 0.8 0.5 1.4 1.2 1.4 2.3 0 0.5 0 1.7-0.5 2.1-1.7 1.1-6.5-1.5-5.9-3.6 0.7-2.5-3.1-3.5-3.9-1z"/><path class="d" d="m315.1 567.7q7.8 16.5 18.9 31.1c1.5 2 5 0 3.4-2q-11-14.6-18.8-31.1c-1.1-2.3-4.6-0.3-3.5 2z"/><path class="d" d="m325.8 546.2q11.1 17.7 22.1 35.4c1.4 2.2 4.8 0.2 3.5-2q-11.1-17.7-22.1-35.5c-1.4-2.1-4.8-0.1-3.5 2.1z"/><path class="d" d="m343.4 541.4q4.8 8.9 9.6 17.7c1.2 2.3 4.7 0.3 3.4-2q-4.8-8.9-9.6-17.7c-1.2-2.3-4.6-0.3-3.4 2z"/><path class="l" d="m350.4 519.4q6.4 2.3 12.7 4.5c2.5 0.9 3.5-3 1.1-3.8q-6.4-2.3-12.7-4.6c-2.5-0.8-3.5 3-1.1 3.9z"/><path class="d" d="m122.1 311.3c-2.1-9.5 2-24.7 14.5-24.1 8.3 0.4 13.7 12.8 15.4 19.5 3.3 12.7 1 25.8 0.6 38.6-0.5 20.2 5.4 38.9 26.1 46 16.3 5.6 44.9 5.9 55.6-10.2 9.3-13.9-2.8-30.7-18.8-27-2.5 0.5-1.4 4.4 1.1 3.8 9.7-2.2 19.4 6.2 16.6 16.3-2.8 10.4-14.3 14.1-23.6 15.4-11.8 1.7-25.2 1.2-35.8-4.7-24.3-13.6-15.3-43.2-16.1-65.6-0.5-13.4-5.9-35.2-22.7-36.3-14.1-1-19.1 18.7-16.7 29.4 0.5 2.5 4.4 1.5 3.8-1.1z"/><path class="d" d="m216.6 357.9c19.7-6.8 36.7-19.6 49.6-35.9 3.5-4.5 5.6-10 12.2-8.6 4.6 1 8 5.3 9.6 9.5 1.9 5.1 2 11.5-0.4 16.5-6.4 13.4-23.3 23.3-35.3 30.8-12.5 7.8-26.6 16.4-41.3 19.3-2.5 0.4-1.5 4.3 1.1 3.8 17.2-3.4 34.1-14.1 48.4-23.7 11.3-7.5 28.8-18.4 32.2-32.6 2.8-11.8-2.8-25.4-15.4-28-2.7-0.5-5-0.9-7.2 0.5-2 1.2-3.9 5.9-5.3 7.8-2.5 3.2-5.1 6.4-7.9 9.4-11.4 12.3-25.4 21.9-41.4 27.4-2.4 0.8-1.3 4.7 1.1 3.8z"/><path class="d" d="m118.2 311.9c0.5 8.2 9.3 14.8 17.2 10.2 9.7-5.6 3.5-22.8-7.4-20.2q1.2 1.5 2.3 3c3.9-5.2 8.7-9.1 14.4-12 2.3-1.2 0.3-4.6-2-3.5-6.4 3.2-11.6 7.7-15.9 13.4-1.1 1.5 0.8 3.4 2.3 3 7.7-1.9 10.4 12.9 1.4 13.5-4.8 0.3-8-2.7-8.3-7.4-0.2-2.6-4.2-2.6-4 0z"/><path class="d" d="m133 323c7.4-4.9 14.7-10 22-15.1 2.1-1.4 0.1-4.9-2-3.4-7.4 5-14.6 10.2-22 15-2.2 1.4-0.2 4.9 2 3.5z"/><path class="d" d="m130.5 287.8c12.9-9.1 26.7-17 40.6-24.5 15.8-8.5 35.5-21 52-6.5 10.6 9.3 6.7 22.6 8.1 34.8 0.6 5.8 1.7 11.7 3.3 17.3 3.4 11.8 10.5 22.6 24.1 20.8 2.5-0.3 2.6-4.3 0-4-19.4 2.5-23.5-25.4-23.8-39.8-0.2-9.2 1.2-19.1-4.4-27.1-4.8-6.9-12.9-11.3-21.1-12.5-13.3-1.9-25.7 5.8-37 11.8-15 7.9-30 16.4-43.9 26.2-2.1 1.5-0.1 5 2.1 3.5z"/><path class="l" d="m169.8 292.2c12.9-8.6 26.3-16.3 40.8-21.9 2.4-0.9 1.4-4.8-1-3.9-14.9 5.7-28.6 13.5-41.9 22.4-2.1 1.4-0.1 4.9 2.1 3.4z"/><path class="k" d="m175.2 315.1c12.6-8.4 26.3-17.1 40.4-22.7 2.3-0.9 1.3-4.8-1.1-3.8-14.4 5.7-28.4 14.5-41.3 23.1-2.1 1.4-0.1 4.9 2 3.4z"/><path class="l" d="m175.6 342c14.4-12.3 31.9-22.2 49.8-28.2 2.4-0.8 1.3-4.7-1.1-3.9-18.6 6.3-36.6 16.5-51.5 29.3-1.9 1.6 0.9 4.5 2.8 2.8z"/><path class="k" d="m181.6 364.8c13.6-11.9 30.8-22.1 46.6-30.7 2.3-1.3 0.2-4.7-2-3.5-16.1 8.8-33.6 19.2-47.4 31.3-2 1.7 0.9 4.5 2.8 2.9z"/><path class="d" d="m273.2 322.7c2.1 0.3 4.1 1.4 5.4 3.1 0.6 0.8 1.7 1.3 2.7 0.7 0.9-0.5 1.4-1.9 0.7-2.8-2.2-2.9-5.2-4.6-8.8-5-2.6-0.2-2.5 3.8 0 4z"/><path class="d" d="m268.7 327q2 1.3 4 2.5c2.2 1.3 4.2-2.1 2.1-3.5q-2.1-1.2-4.1-2.4c-2.2-1.4-4.2 2.1-2 3.4z"/><path class="d" d="m263.2 332.5q1.7 1.3 3.5 2.6c0.9 0.6 2.2 0.1 2.7-0.8 0.6-1 0.2-2.1-0.7-2.7q-1.7-1.3-3.5-2.5c-0.9-0.6-2.2-0.2-2.7 0.7-0.6 1-0.2 2.1 0.7 2.7z"/><path class="d" d="m258.7 338.8c2.6 0 2.6-4 0-4-2.6 0-2.6 4 0 4z"/><path class="d" d="m253.2 344.3c2.6 0 2.6-4 0-4-2.6 0-2.6 4 0 4z"/><path class="l" d="m1109.8 512.1c-0.3-15.4-0.9-30.8-1.5-46.2-0.2-3.6 1-11.3-0.6-14.5-0.5-0.9-2.4 0.2-0.6 1 1.8 0.8 6.1 0 8.1 0 4.6 0 12.8 1.7 17.1 0 2.6-1 0.4-1.9 0-0.8-0.6 1.5 0 4.9 0 6.5q0 28.4 0 56.8c0 2.6 4 2.6 4 0q0-32.2 0-64.5c0-1.1-0.9-2-2-2q-14.3 0-28.7 0c-1 0-2 0.9-2 2 0.9 20.6 1.8 41.1 2.2 61.7 0.1 2.6 4.1 2.6 4 0z"/><path class="k" d="m1161.6 514.9c0-20.1-0.6-40.1-0.8-60.2q-0.1-6.7-0.1-13.4c0-5.1 1.1-4.3 5.9-4.4q5.6-0.2 11.3-0.4c1.1 0 7.9 0.5 6.6-0.9 1.4 1.5 0.5 9.7 0.5 11.5 0.3 6.8 0.4 13.5 0.5 20.3 0.4 15.9 0.6 31.8 1 47.7 0.1 2.6 4.1 2.6 4 0-0.5-23.8-0.7-47.7-1.6-71.5-0.1-3 0.8-9-2.1-10.9-1.8-1.3-7-0.2-8.9-0.2-6.4 0.2-12.8 0.4-19.1 0.6-1.1 0.1-2 0.9-2 2-0.3 26.6 0.8 53.2 0.8 79.8 0 2.6 4 2.6 4 0z"/><path class="l" d="m1215.8 514.9c-0.2-16.6-2-33.2-2.1-49.9q-1 1-2 2c8.6 0.4 17.1-0.3 25.6 0q-1-1-2-2c1.7 16.7 2.9 33.2 3 49.9 0 2.6 4 2.6 4 0-0.1-16.7-1.3-33.2-3-49.9-0.1-1.1-0.8-1.9-2-2-8.5-0.3-17 0.4-25.6 0-1.1 0-2 1-2 2 0.1 16.7 1.9 33.3 2.1 49.9 0 2.6 4 2.6 4 0z"/><path class="l" d="m1106.3 498.1q13.3 8.1 26.6 16.3c2.2 1.3 4.2-2.1 2-3.5q-13.3-8.1-26.6-16.3c-2.2-1.3-4.2 2.1-2 3.5z"/><path class="l" d="m1105.9 484.1c8.8 6.1 18.6 10.8 27.4 17 2.1 1.5 4.1-2 2-3.5-8.8-6.1-18.6-10.8-27.4-17-2.1-1.5-4.1 2-2 3.5z"/><path class="l" d="m1106.3 468c8.7 6.3 18.3 11.3 27 17.6 2.1 1.5 4.1-1.9 2-3.4-8.7-6.4-18.3-11.3-27-17.7-2-1.5-4 2-2 3.5z"/><path class="l" d="m1104.6 452.1c9.2 5.7 19.3 9.9 28.3 15.9 2.2 1.4 4.2-2.1 2-3.5-9-6-19.1-10.1-28.3-15.8-2.2-1.4-4.2 2.1-2 3.4z"/><path class="k" d="m1160.6 499.5c9.3 5.1 18.4 11 26.9 17.3 2.1 1.5 4.1-1.9 2-3.4-8.5-6.4-17.5-12.2-26.9-17.3-2.3-1.2-4.3 2.2-2 3.4z"/><path class="k" d="m1157.7 476.7q14 10.7 28 21.4c2 1.5 4-2 2-3.5q-14-10.7-28-21.4c-2-1.5-4 1.9-2 3.5z"/><path class="k" d="m1157.7 458.1c9.6 7.3 19.5 14.1 28.6 21.8 2 1.7 4.8-1.2 2.8-2.8-9.4-8-19.5-15-29.3-22.4-2.1-1.6-4.1 1.9-2.1 3.4z"/><path class="k" d="m1157.7 440c9.9 6.6 18.8 14.6 28.7 21.3 2.1 1.4 4.1-2 2-3.5-9.9-6.6-18.8-14.6-28.6-21.3-2.2-1.4-4.2 2-2.1 3.5z"/><path class="l" d="m1213.4 506.3q7.2 5.3 14.3 10.5c2.1 1.5 4.1-1.9 2-3.4q-7.1-5.3-14.3-10.5c-2-1.5-4 1.9-2 3.4z"/><path class="l" d="m1212.8 492.6c8.4 6.2 16.2 13.2 24.4 19.8 2 1.6 4.8-1.2 2.8-2.8-8.4-6.9-16.5-14-25.2-20.5-2.1-1.5-4.1 2-2 3.5z"/><path class="l" d="m1211 477c9.3 6.5 17.3 14.5 26.6 21.1 2.1 1.4 4.1-2 2-3.5-9.3-6.5-17.3-14.5-26.6-21.1-2.1-1.4-4.1 2-2 3.5z"/><path class="l" d="m1215.1 466.9q10.6 7.1 21.2 14.1c2.2 1.5 4.2-2 2-3.4q-10.6-7.1-21.1-14.1c-2.2-1.5-4.2 2-2.1 3.4z"/><path class="d" d="m1112.9 432.3c7.3-11.7 15.4-25.7 29.1-30.4 15.7-5.4 28.2 1.4 39.5 11.5 7.9 7.1 16.1 12.6 27 13.6 12.4 1.1 22.1-5.2 31.5-12.6 2-1.6-0.8-4.4-2.8-2.8-15.5 12.1-32.3 16-48.7 2.7-8.1-6.6-14.6-14.6-25.2-17-26.4-6-41.3 12.9-53.8 33-1.4 2.2 2 4.2 3.4 2z"/><path class="d" d="m1234.1 404.5c2.6 5.7 6.1 10.7 10.5 15.2 0.8 0.8 2.6 0.8 3.1-0.4q4.3-9.4 8.5-18.7c0.7-1.7-0.5-3.3-2.3-3-6 1.2-11.6 3.7-17.9 3.9-2.5 0.1-2.5 4.1 0 4 6.7-0.2 12.5-2.8 19-4q-1.1-1.5-2.3-3-4.2 9.4-8.4 18.8 1.5-0.3 3.1-0.5c-4.1-4.2-7.4-9-9.9-14.3-1.1-2.4-4.5-0.3-3.4 2z"/><path class="d" d="m1082.2 424.9c1.7 29.8 0.3 59.7 1.1 89.5 0.1 1.1 0.9 2 2 2 59.7 0.2 119.4 2.5 179.1-0.4 2.6-0.1 2.6-4.1 0-4-43.8 2.1-87.6 1.5-131.5 0.9q-17-0.3-34.1-0.4c-7.9-0.1-11.5 1.5-11.7-7.6q-0.2-8-0.2-16c0-21.4 0.5-42.7-0.7-64-0.1-2.6-4.1-2.6-4 0z"/><path class="d" d="m1324.2 504.6c9.5-11.9 21.2-21.8 30.7-33.8 1.5-2-1.3-4.8-2.9-2.8-9.4 12-21.1 21.9-30.6 33.8-1.6 2 1.2 4.8 2.8 2.8z"/><path class="d" d="m1354.5 471.1c15.7-11.4 30.2-24.5 45.9-36 2.1-1.5 0.1-4.9-2-3.4-15.8 11.4-30.2 24.5-46 36-2 1.5 0 5 2.1 3.4z"/><path class="l" d="m1348.7 411c0.8 19.5 1.5 39 2.8 58.4 0.1 2.6 4.1 2.6 4 0-1.3-19.4-2-38.9-2.8-58.4-0.1-2.5-4.1-2.5-4 0z"/><path class="l" d="m1352.4 471.1c15.8 8.1 30.8 17.2 46 26.2 2.2 1.3 4.2-2.1 2-3.4-15.2-9-30.2-18.1-45.9-26.2-2.3-1.2-4.3 2.3-2.1 3.4z"/><path class="k" d="m1350.7 409c-23 3-42 16.7-48.8 39.4-6.9 22.8 1.2 50.2 21 64.2 22.3 15.9 58.7 9.7 76-11 13.1-15.9 15.9-39.6 8.1-58.5-9.7-23.3-32-33.7-56.3-34.1-2.6 0-2.6 4 0 4 23.9 0.4 45.6 11.1 53.8 34.6 9.3 27.1-4.3 57.4-31.8 66.5-15.5 5.1-34.1 4.8-47.8-4.9-13.6-9.6-21.4-27.1-21.6-43.5-0.2-27.9 20.2-49.2 47.4-52.7 2.5-0.3 2.6-4.3 0-4z"/><path class="n" d="m1390.7 938.3h-1279.5v-34h1279.5z"/><path class="l" d="m1007.7 884.1h-285.3v20.2h285.3z"/><path class="l" d="m1150.4 884.1h-285.4l53.3-194.2h285.3z"/><path class="i" d="m1150.4 884.1h-285.4v20.2h285.4z"/><path class="o" d="m1060.7 780.1c-0.9-6.5-7.3-12.3-13.8-11.1 0 0-21.1-0.2-21.1 16.9 0.1 8 6.5 15.8 14.5 16 4.6 0.2 9-1.8 12.6-4.6 5.1-4.1 8.7-10.7 7.8-17.2z"/><path class="p" d="m980.2 784.5c0.7 0.2 1.3 0.8 2 1.6 0.6 0.8 1.3 1.9 1.9 3.3 0 0 0.8 1.7 1.6 3.4 0.8 1.7 1.6 3.4 1.6 3.4 0 0-3.4 0-3.4 0 0 0-0.7-1.6-1.5-3.2-0.7-1.6-1.5-3.2-1.5-3.2-0.7-1.7-1.5-2.8-2.2-3.4-0.7-0.6-1.7-0.9-3-0.9 0 0-3.4-0.1-3.4-0.1 0 0 0 2.7 0 5.5 0 2.8 0 5.5 0 5.5 0 0-3.2 0.1-3.2 0.1 0 0 0-1.7 0-4.2 0-1.2 0-2.7 0-4.2 0-1.6 0-3.2 0-4.9 0-1.6 0-3.3 0-4.8 0-1.6 0-3 0-4.3 0-2.4 0-4.1 0-4.1 0 0 1.8 0.2 3.6 0.4 1.8 0.1 3.6 0.3 3.6 0.3 1.3 0.1 2.5 0.4 3.4 0.8 1 0.3 1.9 0.9 2.5 1.5 0.7 0.7 1.2 1.4 1.5 2.4 0.3 0.9 0.5 1.9 0.5 3.1 0 1.6-0.4 2.9-1 3.9-0.7 1-1.7 1.7-3 2.1zm-3.9-11c0 0-4-0.3-4-0.3 0 0 0 2.3 0 4.6 0 2.4 0 4.7 0 4.7 0 0 4 0.1 4 0.1 1.5 0.1 2.6-0.2 3.4-0.9 0.8-0.8 1.2-1.9 1.2-3.3 0-1.5-0.4-2.7-1.2-3.5-0.8-0.8-1.9-1.2-3.4-1.4zm24.5 1.3c-1.1 0-2.1 0.1-3.1 0.5-0.9 0.3-1.7 1-2.3 1.8-0.7 0.8-1.2 1.8-1.6 3-0.3 1.2-0.5 2.5-0.5 4 0 1.5 0.2 2.9 0.5 4.1 0.4 1.2 0.9 2.2 1.6 3.1 0.6 0.9 1.4 1.5 2.3 2 1 0.4 2 0.6 3.1 0.6 1.2 0 2.2-0.2 3.1-0.7 0.9-0.4 1.7-1 2.4-1.8 0.6-0.9 1.1-1.9 1.5-3 0.3-1.1 0.5-2.4 0.5-3.8 0-1.5-0.2-2.8-0.5-3.9-0.4-1.1-0.9-2.2-1.5-3-0.7-0.9-1.5-1.6-2.4-2-0.9-0.5-1.9-0.8-3.1-0.9zm0-2.5c1.7 0.1 3.1 0.5 4.4 1.1 1.4 0.6 2.5 1.5 3.5 2.6 1 1.1 1.7 2.4 2.2 3.8 0.5 1.5 0.7 3.1 0.7 4.9 0 1.7-0.2 3.3-0.7 4.7-0.5 1.4-1.2 2.7-2.2 3.8-1 1-2.1 1.8-3.5 2.4-1.3 0.5-2.7 0.8-4.4 0.9-1.6 0-3.1-0.3-4.4-0.8-1.3-0.6-2.5-1.4-3.4-2.5-1-1.1-1.8-2.5-2.2-4-0.5-1.5-0.8-3.3-0.8-5.2 0-1.9 0.3-3.6 0.8-5.1 0.4-1.5 1.2-2.8 2.2-3.8 0.9-1.1 2.1-1.9 3.4-2.3 1.3-0.5 2.8-0.7 4.4-0.5zm27.3 15.5c0 0-0.3-0.7-0.7-1.7-0.4-1-0.9-2.3-1.5-3.7-0.5-1.3-1-2.7-1.4-3.7-0.4-1-0.7-1.7-0.7-1.7 0 0-0.3 0.7-0.7 1.7-0.4 0.9-0.9 2.3-1.5 3.6-0.5 1.4-1 2.7-1.4 3.7-0.4 1-0.7 1.7-0.7 1.7 0 0 2.1 0 4.3 0.1 2.1 0 4.3 0 4.3 0zm-15 8.1c0 0 0.6-1.4 1.4-3.5 0.4-1.1 0.9-2.3 1.4-3.6 0.5-1.3 1.1-2.6 1.6-4 0.6-1.4 1.2-2.7 1.7-4 0.5-1.3 1-2.4 1.4-3.4 0.8-2.1 1.4-3.4 1.4-3.4 0 0 3.6 0.2 3.6 0.2 0 0 0.5 1.4 1.4 3.4 0.4 1 0.9 2.2 1.4 3.5 0.5 1.3 1.1 2.6 1.6 4 0.6 1.3 1.1 2.6 1.7 3.9 0.5 1.2 1 2.4 1.4 3.4 0.8 1.9 1.4 3.3 1.4 3.3 0 0-3.3 0-3.3 0 0 0-0.5-1.4-1.1-2.7-0.5-1.4-1-2.8-1-2.8 0 0-0.7 0-1.7 0-1 0-2.3 0-3.6 0-1.3 0-2.6 0-3.6 0-1 0-1.6 0-1.6 0 0 0-0.6 1.4-1.1 2.8-0.5 1.4-1.1 2.8-1.1 2.8 0 0-3.3 0.1-3.3 0.1zm31.8-18.6c0 0-3.9-0.1-3.9-0.1 0 0 0 1 0 2.5 0 0.8 0 1.7 0 2.6 0 0.9 0 2 0 3 0 1 0 2 0 2.9 0 1 0 1.8 0 2.6 0 1.5 0 2.5 0 2.5 0 0 3.9 0 3.9 0 1.6 0 3-0.2 4.1-0.5 1.2-0.3 2.2-0.8 2.9-1.4 0.8-0.6 1.3-1.5 1.7-2.4 0.4-1 0.6-2.2 0.6-3.6 0-1.3-0.2-2.5-0.6-3.5-0.4-1-0.9-1.8-1.7-2.5-0.7-0.6-1.7-1.1-2.9-1.5-1.1-0.3-2.5-0.5-4.1-0.6zm-7 18.3c0 0 0-1.3 0-3.2 0-1 0-2.1 0-3.4 0-1.2 0-2.5 0-3.8 0-1.3 0-2.6 0-3.8 0-1.2 0-2.4 0-3.4 0-1.9 0-3.2 0-3.2 0 0 1.6 0 3.2 0.1 1.7 0.1 3.3 0.1 3.3 0.1 1.1 0.1 2.2 0.2 3.1 0.3 1 0.1 1.9 0.3 2.8 0.6 1.6 0.4 3 1.1 4 1.9 1.1 0.8 1.9 1.9 2.4 3.2 0.3 0.6 0.5 1.3 0.6 2.1 0.1 0.7 0.2 1.5 0.2 2.4 0 0.8-0.1 1.6-0.2 2.4-0.1 0.7-0.3 1.4-0.6 2.1-0.5 1.2-1.3 2.3-2.4 3.1-1 0.8-2.4 1.4-4.1 1.8-0.8 0.2-1.7 0.4-2.7 0.5-0.9 0.1-2 0.2-3.1 0.2 0 0-1.6 0-3.3 0-1.6 0-3.2 0-3.2 0zm24.6-0.1c0 0 0-1.3 0-3.1 0-1 0-2 0-3.2 0-1.2 0-2.4 0-3.7 0-1.2 0-2.4 0-3.6 0-1.2 0-2.3 0-3.2 0-1.9 0-3.1 0-3.1 0 0 4.7 0.1 4.7 0.1 0 0 0.4 0.8 1 2.1 0.3 0.6 0.6 1.4 0.9 2.2 0.4 0.8 0.7 1.6 1.1 2.5 0.4 0.8 0.8 1.6 1.1 2.4 0.4 0.8 0.7 1.5 1 2.2 0.5 1.2 0.9 2.1 0.9 2.1 0 0 0.4-0.9 0.9-2.1 0.3-0.6 0.6-1.4 1-2.1 0.3-0.8 0.7-1.7 1.1-2.5 0.4-0.8 0.7-1.6 1.1-2.4 0.3-0.8 0.7-1.5 0.9-2.1 0.6-1.3 1-2.1 1-2.1 0 0 4.7 0 4.7 0 0 0 0 1.3 0 3.1 0 0.9 0 2 0 3.1 0 1.1 0 2.4 0 3.6 0 1.2 0 2.4 0 3.6 0 1.1 0 2.2 0 3.1 0 1.8 0 3 0 3 0 0-3.1 0-3.1 0 0 0 0-1 0-2.6 0-0.9 0-1.8 0-2.8 0-1 0-2.1 0-3.1 0-1.1 0-2.2 0-3.2 0-1 0-1.9 0-2.7 0-1.6 0-2.7 0-2.7 0 0-0.4 0.8-0.9 2.1-0.3 0.6-0.6 1.3-1 2.1-0.3 0.8-0.7 1.6-1.1 2.5-0.4 0.8-0.8 1.6-1.1 2.4-0.4 0.8-0.7 1.5-1 2.2-0.5 1.2-0.9 2.1-0.9 2.1 0 0-3.2 0-3.2 0 0 0-0.4-0.9-0.9-2.1-0.3-0.7-0.6-1.4-1-2.2-0.3-0.8-0.7-1.7-1.1-2.5-0.4-0.9-0.7-1.7-1.1-2.5-0.3-0.8-0.7-1.5-1-2.2-0.5-1.3-0.9-2.1-0.9-2.1 0 0 0 1.1 0 2.7 0 0.8 0 1.8 0 2.8 0 1 0 2.1 0 3.2 0 1.1 0 2.1 0 3.2 0 1 0 1.9 0 2.8 0 1.6 0 2.7 0 2.7 0 0-3.1 0-3.1 0zm39.7-7.3c0 0-0.2-0.6-0.6-1.5-0.4-0.9-1-2.1-1.5-3.3-0.5-1.2-1.1-2.4-1.5-3.3-0.4-0.9-0.6-1.5-0.6-1.5 0 0-0.3 0.6-0.7 1.5-0.4 0.9-1 2.1-1.5 3.3-0.5 1.2-1.1 2.4-1.5 3.3-0.4 0.9-0.6 1.5-0.6 1.5 0 0 2.1 0 4.3 0 2.1 0 4.2 0 4.2 0zm-14.9 7.2c0 0 0.5-1.2 1.4-3 0.4-0.9 0.9-2 1.4-3.1 0.5-1.2 1.1-2.4 1.6-3.6 0.6-1.2 1.1-2.4 1.7-3.6 0.5-1.1 1-2.2 1.4-3.1 0.8-1.8 1.4-3 1.4-3 0 0 3.5 0 3.5 0 0 0 0.6 1.2 1.4 3 0.5 0.9 0.9 2 1.5 3.1 0.5 1.2 1 2.4 1.6 3.6 0.5 1.2 1.1 2.4 1.6 3.6 0.5 1.1 1 2.2 1.4 3.1 0.9 1.8 1.4 3 1.4 3 0 0-3.2 0-3.2 0 0 0-0.6-1.2-1.1-2.5-0.5-1.2-1.1-2.5-1.1-2.5 0 0-0.6 0-1.6 0-1 0-2.3 0-3.6 0-1.3 0-2.7 0-3.6 0-1 0-1.7 0-1.7 0 0 0-0.5 1.3-1 2.5-0.6 1.3-1.1 2.5-1.1 2.5 0 0-3.3 0-3.3 0zm31.9-17.4c0 0-4 0-4 0 0 0 0 1.9 0 3.7 0 1.9 0 3.7 0 3.7 0 0 4 0 4 0 1.4 0 2.6-0.4 3.4-1 0.8-0.7 1.2-1.6 1.2-2.8 0-1.2-0.4-2.1-1.2-2.7-0.8-0.6-2-0.9-3.4-0.9zm-7.2 17.4c0 0 0-1.2 0-3 0-0.9 0-2 0-3.1 0-1.2 0-2.4 0-3.6 0-1.3 0-2.5 0-3.6 0-1.2 0-2.2 0-3.1 0-1.9 0-3.1 0-3.1 0 0 1.8 0 3.6 0 1.8-0.1 3.6-0.1 3.6-0.1 1.3 0 2.4 0.1 3.4 0.3 1 0.3 1.8 0.6 2.5 1.1 0.7 0.5 1.2 1.1 1.5 1.8 0.3 0.8 0.5 1.6 0.5 2.6 0 1-0.2 1.8-0.5 2.6-0.3 0.7-0.8 1.3-1.5 1.8-0.7 0.5-1.5 0.9-2.5 1.2-1 0.2-2.1 0.3-3.4 0.4 0 0-4 0-4 0 0 0 0 1.9 0 3.9 0 2 0 3.9 0 3.9 0 0-3.2 0-3.2 0z"/><path class="q" d="m236.7 726.2l-37.7 29.5 4 39.3h9.7l-9.7 6 4 24.5h11.2l-13.2 5.5 7.7 47.1h7.1l-7.1 7.2 2.4 19h80.9l-17.3-178.1z"/><path class="q" d="m407 729.8c0 0 13.1-13.9 19.7-30.8 0 0-32 23-77.4 5 0 0-28 24.9-49.3 23.5 0 0 95.3 10.4 107 2.3z"/><path class="d" d="m420.7 801.9h-39.3l39.3 7.4-3.7 76.9-1 18.1h-164.2l-3.2-26.2-2.4-20.3h27.1l-27.1-9.1-5.8-56.8h25l-27-6-1.7-59.7 190 4z"/><path class="q" d="m417 886.2l-1 18.1h-164.2l-3.2-26.2 39.1 16.1z"/><path class="q" d="m300 855.9q37.3-1.8 74.7-0.8c1.2 0.1 1.2-1.9 0-2q-37.4-1-74.7 0.8c-1.3 0-1.3 2 0 2z"/><path class="q" d="m270.7 825q62 0.5 124 1c1.3 0 1.3-2 0-2q-62-0.5-124-1c-1.3 0-1.3 2 0 2z"/><path class="q" d="m278.7 807.1c26.1-3 52.4-3.6 78.7-1.8 1.2 0.1 1.2-1.9 0-2-26.3-1.8-52.6-1.2-78.7 1.8-1.3 0.2-1.3 2.2 0 2z"/><path class="q" d="m278.7 776.3q60.6 0 121.3 0c1.3 0 1.3-2 0-2q-60.7 0-121.3 0c-1.3 0-1.3 2 0 2z"/><path class="q" d="m274.5 751.4c39.9 5.8 80.2 6.8 120.2 3 1.3-0.1 1.3-2.1 0-2-39.8 3.8-80 2.8-119.6-2.9-1.3-0.2-1.8 1.7-0.6 1.9z"/><path class="r" d="m208.4 766.7q10.2-6.7 20.4-13.4c1-0.7 0-2.5-1-1.8q-10.2 6.7-20.4 13.5c-1.1 0.7-0.1 2.4 1 1.7z"/><path class="r" d="m209.8 781.3q7.7-5.4 15.5-10.7c1-0.8 0-2.5-1-1.8q-7.8 5.4-15.5 10.7c-1.1 0.7-0.1 2.5 1 1.8z"/><path class="r" d="m209.6 812.5q9.3-7.5 20.8-11.2c1.2-0.4 0.7-2.4-0.6-2q-11.9 3.9-21.6 11.8c-1 0.8 0.4 2.2 1.4 1.4z"/><path class="r" d="m214.3 841.6q6.6-4.8 13.3-9.7c1-0.7 0-2.5-1.1-1.7q-6.6 4.8-13.2 9.7c-1 0.7 0 2.4 1 1.7z"/><path class="r" d="m218.5 854.9q8.5-5 17-10c1.1-0.7 0.1-2.4-1-1.8q-8.5 5-17 10c-1.1 0.7-0.1 2.4 1 1.8z"/><path class="r" d="m224.5 871.8c2.9-1.9 6.1-3.1 9.5-3.6 1.3-0.1 1.3-2.1 0-2-3.8 0.5-7.3 1.8-10.6 3.9-1 0.7 0 2.4 1.1 1.7z"/><path class="r" d="m218.3 895.1q6.5-2 13-4c1.2-0.4 0.7-2.3-0.5-1.9q-6.5 2-13 3.9c-1.3 0.4-0.7 2.4 0.5 2z"/><path class="q" d="m317.3 835.9c0 0 48.5 0.9 65.6 26.1 0 0 24.1-10.2 26.1-26.1z"/><path class="q" d="m349.3 787h-70.6c0 0-8.1 12.5-3.9 28.3 0 0 29.9-23.2 74.5-28.3z"/><path class="e" d="m1196.3 870.6c-2.8 0-5.1 2.2-5.1 5.1v23.5c0 2.8 2.3 5.1 5.1 5.1h150.7v-33.7z"/><path class="d" d="m1347 878.1h-147.8v18.7h147.8z"/><path class="k" d="m1187.3 835.9c-3.3 0-6.1 2.7-6.1 6.1v21.6c0 3.3 2.8 6.1 6.1 6.1h149.7v-33.8z"/><path class="d" d="m1337 843.4h-147.8v18.7h147.8z"/><path class="l" d="m1199.3 797.9c-4.4 0-8.1 3.7-8.1 8.1v21.6c0 4.5 3.7 8.1 8.1 8.1h147.7v-37.8z"/><path class="d" d="m1347 805.5h-147.8v22.7h147.8z"/><path class="k" d="m1208.3 758c-3.9 0-7.1 3.2-7.1 7.1v25.6c0 3.9 3.2 7.1 7.1 7.1h148.7v-39.8z"/><path class="d" d="m1357 765.5h-147.8v24.7h147.8z"/><path class="f" d="m1219.3 816.8l2.7 26.6 5.3-7.4 7.2 5.3-3.8-24.5z"/><path class="a" d="m1256.7 777l-2.7 24.9 5.1-4.1 4 4.1 5.4-24z"/><path class="q" d="m1277.3 779q39 0 78 0c1.3 0 1.3-2 0-2q-39 0-78 0c-1.3 0-1.3 2 0 2z"/><path class="q" d="m1216.7 778.3q17.3 0 34.6 0c1.3 0 1.3-2 0-2q-17.3 0-34.6 0c-1.3 0-1.3 2 0 2z"/><path class="q" d="m1219.3 772.3q43.7 0 87.4 0c1.3 0 1.3-2 0-2q-43.7 0-87.4 0c-1.3 0-1.3 2 0 2z"/><path class="q" d="m1282 786.3q14.7 0 29.3 0c1.3 0 1.3-2 0-2q-14.6 0-29.3 0c-1.3 0-1.3 2 0 2z"/><path class="q" d="m1240 815q43.3 0 86.7 0c1.3 0 1.3-2 0-2q-43.4 0-86.7 0c-1.3 0-1.3 2 0 2z"/><path class="q" d="m1256.7 824.3q40.6 0 81.3 0c1.3 0 1.3-2 0-2q-40.7 0-81.3 0c-1.3 0-1.3 2 0 2z"/><path class="q" d="m1206 812.3q7.7 0 15.3 0c1.3 0 1.3-2 0-2q-7.6 0-15.3 0c-1.3 0-1.3 2 0 2z"/><path class="q" d="m1208 822.3q3 0 6 0c1.3 0 1.3-2 0-2q-3 0-6 0c-1.3 0-1.3 2 0 2z"/><path class="q" d="m1204.7 851.7q48.6 0 97.3 0c1.3 0 1.3-2 0-2q-48.7 0-97.3 0c-1.3 0-1.3 2 0 2z"/><path class="q" d="m1245.3 857q36.7 0 73.4 0c1.3 0 1.3-2 0-2q-36.7 0-73.4 0c-1.3 0-1.3 2 0 2z"/><path class="q" d="m1213.3 886.3q46.4 0 92.7 0c1.3 0 1.3-2 0-2q-46.3 0-92.7 0c-1.3 0-1.3 2 0 2z"/><path class="k" d="m513.2 811.3h-62.6c-2.1 0-3.9 1.8-3.9 3.9v89.1h70.4v-89.1c0-2.1-1.8-3.9-3.9-3.9z"/><path class="k" d="m512.7 833.9c9-1.8 18.5-2.6 21.7 6.9 1.7 4.8 2.1 10.6 2.4 15.6 0.3 5.9 0.2 12.3-2.2 17.8-4.5 10.4-14.1 8.6-23.7 6.5-6.2-1.3-8.9 8.3-2.6 9.7 11.6 2.5 23.6 4.3 31.9-6.1 6.1-7.7 7-18.5 6.6-27.9-0.4-7-1.1-15.2-3.7-21.9-5.5-13.5-21.2-12.6-33.1-10.3-6.3 1.3-3.6 10.9 2.7 9.7z"/><path class="d" d="m463.4 804.3c5.1-4 11.3-9.6 8.6-16.9-1.7-4.4-6.4-5.7-9.7-8.6-6.9-5.9-9.8-15.8-2-22.5 2.9-2.5-1.4-6.8-4.3-4.3-5.9 5.2-8 12.9-5.4 20.4 1.1 3.3 3.1 6.3 5.5 8.9 5.6 5.8 15.1 9.6 4.2 17.8-3 2.3 0 7.5 3.1 5.2z"/><path class="d" d="m486.7 803.4c3-6.2 9.4-11.1 8.9-18.4-0.2-3.1-1.3-5.8-3-8.4-2.7-4.1-13.4-13.9-4.8-17.9 3.5-1.6 0.4-6.8-3.1-5.2-5.6 2.6-7.3 8.9-5.2 14.5 1.7 4.6 6.2 7.3 7.9 11.7 3.8 9.4-2.3 13.2-5.9 20.6-1.6 3.5 3.5 6.6 5.2 3.1z"/><path class="d" d="m505.2 803.1c4.4-4.8 9.4-11.7 8.9-18.6-0.2-3.5-8.9-18.7-1.6-20.3 3.7-0.8 2.1-6.6-1.6-5.8-5.7 1.3-8.2 8.3-7.2 13.6 0.6 3.4 2.7 6.5 3.6 9.9 1.7 6.6-1.9 12.2-6.3 17-2.6 2.8 1.6 7 4.2 4.2z"/><path class="k" d="m171.3 114.7c-10.7 1-20.3 11.3-19.1 22.4 1.1 10.9 10.4 20.8 21.8 20.3 26-1.2 24.2-44.7-2.7-42.7-2.5 0.2-2.6 4.2 0 4 21.2-1.6 23.7 32.7 3.3 34.6-21.3 2-25.3-32.4-3.3-34.6 2.6-0.3 2.6-4.3 0-4z"/><path class="d" d="m151.1 91.8c3.3 4.5 5.2 9.8 7.1 15 0.9 2.3 4.8 1.3 3.9-1.1-2-5.5-4.1-11.2-7.5-16-1.5-2-5 0-3.5 2.1z"/><path class="d" d="m132.3 104.7q5.9 5.5 11.8 11c1.9 1.8 4.7-1.1 2.8-2.8q-5.9-5.5-11.8-11c-1.9-1.8-4.7 1-2.8 2.8z"/><path class="d" d="m121.4 128q7.8 1.7 15.5 3.5c2.5 0.6 3.6-3.3 1.1-3.9q-7.8-1.7-15.5-3.5c-2.5-0.5-3.6 3.3-1.1 3.9z"/><path class="d" d="m126.2 153.1c4-0.9 7.8-3.1 12-2.9 2.5 0.1 2.5-3.9 0-4-4.6-0.2-8.7 2-13.1 3-2.5 0.6-1.5 4.4 1.1 3.9z"/><path class="d" d="m151.2 160.5q-4.4 6.2-8.8 12.5c-1.5 2.1 1.9 4.1 3.4 2q4.4-6.2 8.9-12.5c1.5-2.1-2-4.1-3.5-2z"/><path class="d" d="m168.7 169q-1.1 7.8-2.1 15.5c-0.4 2.5 3.5 3.6 3.8 1.1q1.1-7.8 2.1-15.5c0.4-2.5-3.5-3.6-3.8-1.1z"/><path class="d" d="m189.3 166.4q2.4 7.5 6.1 14.5c1.2 2.3 4.6 0.3 3.4-2q-3.4-6.5-5.7-13.6c-0.7-2.4-4.6-1.3-3.8 1.1z"/><path class="d" d="m202.7 155.9c5.3 2.4 10.8 4.5 15.6 7.9 2.1 1.6 4.1-1.9 2-3.4-4.7-3.5-10.3-5.6-15.6-8-2.3-1.1-4.3 2.4-2 3.5z"/><path class="d" d="m207.4 140.6c5.3-0.1 10.3-2.1 15.5-2.2 2.6-0.1 2.6-4.1 0-4-5.2 0.1-10.2 2.1-15.5 2.2-2.5 0.1-2.6 4.1 0 4z"/><path class="d" d="m201.8 125c5.3-3.8 11.7-4.6 17.4-7.6 2.3-1.3 0.2-4.7-2-3.5-5.7 3-12.1 3.8-17.4 7.6-2.1 1.5-0.1 5 2 3.5z"/><path class="d" d="m192.8 111.1c4.5-4.6 7.9-10 12.4-14.5 1.8-1.9-1.1-4.7-2.9-2.9-4.4 4.6-7.9 10-12.3 14.6-1.8 1.8 1 4.6 2.8 2.8z"/><path class="d" d="m178.5 104c0.1-6.2 1.4-12.3 1.4-18.4 0.1-2.6-3.9-2.6-4 0 0 6.1-1.3 12.2-1.4 18.4-0.1 2.6 3.9 2.6 4 0z"/><path class="d" d="m501.3 60.7c-15.2-5.8-30.8-5.2-43.8 5.4-13.7 11.3-18.2 29.6-10.1 45.5 10.7 20.9 39 33.9 58 14.7 1.9-1.8-1-4.7-2.8-2.8-15 15.1-38.5 7.2-48.9-8.9-9.9-15.3-8.1-33.5 6.4-45.3 12.1-9.8 26.1-10.1 40.1-4.8 2.4 0.9 3.5-2.9 1.1-3.8z"/><path class="d" d="m499 62.2c-15.4 7.6-31 17.7-27.8 37.7 2.5 14.9 18.7 24.3 32.3 26.9 2.5 0.5 3.6-3.4 1.1-3.9-12.8-2.4-28.8-11.3-29.6-25.9-1.1-17.3 12.7-24.8 26.1-31.4 2.3-1.1 0.2-4.6-2.1-3.4z"/><path class="k" d="m1280 563.7c-33.3 9.3-32.4 84.7 3.7 90 36 5.3 37.7-89.1-3.2-90.1-2.6 0-2.6 4 0 4 16.6 0.4 23 18.1 25 32.2 2.2 15.2-1.4 60.1-26.9 48.3-25.4-11.9-25.6-72.7 2.4-80.5 2.5-0.7 1.4-4.6-1-3.9z"/><path class="l" d="m1249 583.4c20.3 16.3 49.9 16.3 67.1-4.1 1.7-2-1.1-4.8-2.8-2.9-15.7 18.6-42.9 19.1-61.4 4.2-2-1.6-4.9 1.2-2.9 2.8z"/><path class="l" d="m1319.3 635.1c-9.5-6.8-20.7-9-32.2-8.9-2.6 0.1-2.6 4.1 0 4 10.9-0.1 21.2 2 30.2 8.3 2.1 1.5 4.1-2 2-3.4z"/><path class="l" d="m1287.1 626.2c-12.4 0.7-24 5.7-31 16.2-1.4 2.2 2.1 4.2 3.5 2 6.2-9.2 16.6-13.6 27.5-14.2 2.5-0.1 2.6-4.1 0-4z"/><path class="d" d="m1278.5 565.6c0.9 28.8 4.4 57.7 7.8 86.3 0.3 2.6 4.3 2.6 4 0-3.4-28.6-6.9-57.5-7.8-86.3-0.1-2.5-4.1-2.5-4 0z"/><path class="l" d="m1239.2 614.4c29.5-0.9 58.9-3.9 88.3-4.8 2.6-0.1 2.6-4.1 0-4-29.4 0.9-58.8 3.9-88.3 4.8-2.5 0.1-2.5 4.1 0 4z"/><path class="l" d="m1280 563.7c-20.7 2.9-38 16.2-42.1 37.4-2.6 13.9 1.7 29.1 11.5 39.4 14.9 15.5 41.6 17.7 59.7 6.7 18-10.9 24.5-33.8 18.1-53.4-6.8-20.9-25.6-30.3-46.7-30.2-2.6 0-2.6 4 0 4 20.7-0.1 38.7 9.7 43.8 30.7 7.8 32.1-20.1 57.2-51.3 50.5-17.5-3.8-30.1-18-31.7-35.8-2.3-24.5 16.7-42.3 39.7-45.4 2.6-0.4 1.5-4.2-1-3.9z"/></svg>