<svg width="1142" height="758" viewBox="0 0 1142 758" fill="none" xmlns="http://www.w3.org/2000/svg">
<path d="M549.5 17.8C268.4 17.8 40.4 245.8 40.4 526.9C40.4 609.7 60.1 687.8 95.1 756.8H1004C1039 687.8 1058.7 609.7 1058.7 526.9C1058.7 245.8 830.7 17.8 549.5 17.8Z" fill="#FFD9A9" fill-opacity="0.32"/>
<path d="M245.4 58.7C245.4 79.8 228.2 96.9 207.1 96.9C186 96.9 168.9 79.8 168.9 58.7C168.9 37.6 186 20.5 207.1 20.5C228.2 20.5 245.4 37.6 245.4 58.7Z" fill="#FFD9A9" fill-opacity="0.32"/>
<path d="M1141.5 624.5C1141.5 636.9 1131.5 646.9 1119.1 646.9C1106.8 646.9 1096.7 636.9 1096.7 624.5C1096.7 612.2 1106.8 602.1 1119.1 602.1C1131.5 602.1 1141.5 612.2 1141.5 624.5Z" fill="#FFD9A9" fill-opacity="0.32"/>
<path d="M683 104.9C683 110.9 678.1 115.7 672.1 115.7C666.1 115.7 661.3 110.9 661.3 104.9C661.3 98.9 666.1 94 672.1 94C678.1 94 683 98.9 683 104.9Z" fill="white"/>
<path d="M828 11.1C828 17.1 823.2 22 817.2 22C811.2 22 806.4 17.1 806.4 11.1C806.4 5.09999 811.2 0.299988 817.2 0.299988C823.2 0.299988 828 5.09999 828 11.1Z" fill="#FFD9A9" fill-opacity="0.32"/>
<path d="M1069.5 365.8C1069.5 386 1053.1 402.4 1032.9 402.4C1012.6 402.4 996.2 386 996.2 365.8C996.2 345.5 1012.6 329.1 1032.9 329.1C1053.1 329.1 1069.5 345.5 1069.5 365.8Z" fill="#FFD9A9" fill-opacity="0.32"/>
<path d="M103.5 512.7C103.5 517.1 100 520.6 95.7 520.6C91.3 520.6 87.8 517.1 87.8 512.7C87.8 508.4 91.3 504.8 95.7 504.8C100 504.8 103.5 508.4 103.5 512.7Z" fill="white"/>
<path d="M315.6 618C315.6 622.4 312.1 625.9 307.7 625.9C303.4 625.9 299.9 622.4 299.9 618C299.9 613.6 303.4 610.1 307.7 610.1C312.1 610.1 315.6 613.6 315.6 618Z" fill="white"/>
<path d="M150.1 657.8C150.1 697.4 118 729.4 78.5 729.4C38.9 729.4 6.90002 697.4 6.90002 657.8C6.90002 618.3 38.9 586.2 78.5 586.2C118 586.2 150.1 618.3 150.1 657.8Z" fill="#FFD9A9" fill-opacity="0.32"/>
<path d="M596.2 651C596.5 641.9 595.3 633.4 593.5 625.7C592 619.4 591.5 613 592.2 606.7C592.5 603.5 592.6 599.7 592.1 595.3C590.8 581 575.3 548.8 548.5 544.2C548.5 544.2 553.2 560.9 557.3 573.7C562.7 590.2 568.6 600.5 577.7 609.5C586.9 618.6 592.9 630.5 593.6 643.5C593.733 645.9 593.767 648.367 593.7 650.9L596.2 651Z" fill="white"/>
<path d="M602.5 625.7C602.2 619.5 602.8 613.2 604.5 607.3C606.8 599.5 608.7 588 606 575.2C600.6 549.1 570.1 523.3 570.1 523.3C570.1 523.3 575.1 561.5 580.8 578.2C583.8 587 588.8 596.9 593.1 604.5C597.4 612.3 599.9 620.9 600.2 629.8C601.1 654.1 598.7 671.4 598.7 671.7L601.1 672.1C601.2 671.8 603.9 652.3 602.5 625.7Z" fill="#F6DBB6"/>
<path d="M646.5 502.5C646.5 502.5 618.5 520.9 611.2 550.3C608.9 559.3 609.5 567.2 610.9 573.2C612.9 581.9 612.8 591 611.2 599.7C604.1 639.1 607.8 672.8 607.8 673.2L610.3 672.9C610.3 672.5 606.9 642.1 612.8 605.4C614.5 594.6 619 584.5 626 576.2C630.5 570.8 635.8 562.5 640.3 550.1C648.6 527.5 646.5 502.5 646.5 502.5Z" fill="white"/>
<path d="M614.7 592.2C611.5 604.2 612.4 613.9 614.1 620.5C615.5 626 615.8 631.7 614.8 637.3C610.2 664.6 611.3 690.6 611.3 691L613.8 690.8C613.8 690.5 612.8 666.6 616.8 640.7C617.9 633.6 620.9 627 625.5 621.5C629.8 616.4 634.7 609 638.5 600.6C648.7 577.6 652.3 548.7 652.3 548.7C652.3 548.7 621.7 566.5 614.7 592.2Z" fill="#F6DBB6"/>
<path d="M641.1 638.9H571.1C571.1 638.9 573.3 743.3 594.9 756H617.3C638.9 743.3 641.1 638.9 641.1 638.9Z" fill="white"/>
<path d="M956.4 432.7H976.3C982.3 432.7 987.3 437.6 987.3 443.6V757" stroke="white" stroke-width="2" stroke-miterlimit="10"/>
<path d="M956.4 504.1H976.3C982.3 504.1 987.3 509.1 987.3 515.1V757" stroke="white" stroke-width="2" stroke-miterlimit="10"/>
<path d="M956.4 575.6H976.3C982.3 575.6 987.3 580.5 987.3 586.6V757" stroke="white" stroke-width="2" stroke-miterlimit="10"/>
<path d="M956.4 647.1H976.3C982.3 647.1 987.3 652 987.3 658.1V757" stroke="white" stroke-width="2" stroke-miterlimit="10"/>
<path d="M956.4 718.6H976.3C982.3 718.6 987.3 723.5 987.3 729.5V757" stroke="white" stroke-width="2" stroke-miterlimit="10"/>
<path d="M514 521.3V756.8" stroke="white" stroke-width="2" stroke-miterlimit="10"/>
<path d="M546.8 113.3C546.8 132.2 531.5 147.5 512.7 147.5C493.8 147.5 478.5 132.2 478.5 113.3C478.5 94.4 493.8 79.1 512.7 79.1C531.5 79.1 546.8 94.4 546.8 113.3Z" fill="white"/>
<path d="M523.9 108.4C523.9 115.5 518.9 121.2 512.7 121.2C506.5 121.2 501.4 115.5 501.4 108.4C501.4 101.3 506.5 95.6 512.7 95.6C518.9 95.6 523.9 101.3 523.9 108.4Z" fill="#F9BA71"/>
<path d="M537.7 136.5C531.5 143.3 522.6 147.5 512.7 147.5C502.8 147.5 493.8 143.3 487.6 136.5C488.8 134.9 490.167 133.467 491.7 132.2C496.3 128.2 502 125.6 508.2 124.9C511.2 124.5 514.2 124.5 517.1 124.9C525.4 125.9 532.8 130.2 537.7 136.5Z" fill="#F9BA71"/>
<path d="M923.5 309.6C923.5 319 915.8 326.7 906.4 326.7C896.9 326.7 889.3 319 889.3 309.6C889.3 300.2 896.9 292.5 906.4 292.5C915.8 292.5 923.5 300.2 923.5 309.6Z" fill="white"/>
<path d="M912 307.2C912 310.7 909.5 313.6 906.4 313.6C903.3 313.6 900.7 310.7 900.7 307.2C900.7 303.6 903.3 300.8 906.4 300.8C909.5 300.8 912 303.6 912 307.2Z" fill="#F9BA71"/>
<path d="M918.9 321.2C915.8 324.6 911.3 326.7 906.4 326.7C901.4 326.7 896.9 324.6 893.8 321.2C894.4 320.4 895.1 319.7 895.9 319.1C898.2 317.1 901 315.8 904.1 315.4C905.633 315.2 907.133 315.2 908.6 315.4C912.7 315.9 916.4 318 918.9 321.2Z" fill="#F9BA71"/>
<path d="M106.2 428.2C106.2 441.1 95.7 451.6 82.8 451.6C69.8 451.6 59.4 441.1 59.4 428.2C59.4 415.2 69.8 404.7 82.8 404.7C95.7 404.7 106.2 415.2 106.2 428.2Z" fill="white"/>
<path d="M90.5 424.8C90.5 429.7 87 433.6 82.8 433.6C78.5 433.6 75.1 429.7 75.1 424.8C75.1 420 78.5 416.1 82.8 416.1C87 416.1 90.5 420 90.5 424.8Z" fill="#FF9E22"/>
<path d="M100 444.1C95.7 448.7 89.6 451.6 82.8 451.6C76 451.6 69.9 448.7 65.6 444.1C66.4667 443.033 67.4 442.033 68.4 441.1C71.5 438.4 75.5 436.6 79.8 436.1C81.8 435.9 83.8 435.9 85.8 436.1C91.5 436.8 96.6 439.7 100 444.1Z" fill="#FF9E22"/>
<path d="M409.9 125.8C409.9 131.2 405.5 135.6 400.1 135.6C394.7 135.6 390.2 131.2 390.2 125.8C390.2 120.3 394.7 115.9 400.1 115.9C405.5 115.9 409.9 120.3 409.9 125.8Z" fill="white"/>
<path d="M385.3 119C384.767 119 384.3 118.867 383.9 118.6C382.6 117.8 382.3 116.2 383 115C386.8 109.1 393.1 105.6 400.1 105.6C407 105.6 413.4 109.1 417.1 115C417.9 116.2 417.6 117.8 416.3 118.6C415.1 119.4 413.5 119 412.7 117.8C409.9 113.5 405.2 110.9 400.1 110.9C395 110.9 390.2 113.5 387.5 117.8C387 118.6 386.1 119 385.3 119Z" fill="white"/>
<path d="M380.1 112.3C379.5 112.3 378.9 112.1 378.5 111.7C377.3 110.8 377.1 109.1 378.1 108C383.5 101.3 391.5 97.5 400.1 97.5C408.7 97.5 416.7 101.3 422.1 108C423 109.1 422.9 110.8 421.7 111.7C420.6 112.6 418.9 112.4 418 111.3C413.6 105.9 407.1 102.7 400.1 102.7C393.1 102.7 386.6 105.9 382.2 111.3C381.6 112 380.9 112.3 380.1 112.3Z" fill="white"/>
<path d="M425.1 105.7C424.4 105.7 423.7 105.4 423.2 104.8C417.3 98.3 408.9 94.6 400.1 94.6C391.3 94.6 382.9 98.3 377 104.8C376 105.9 374.4 106 373.3 105C372.2 104 372.1 102.4 373.1 101.3C380 93.7 389.8 89.3 400.1 89.3C410.3 89.3 420.2 93.7 427.1 101.3C428.1 102.4 428 104 426.9 105C426.4 105.5 425.8 105.7 425.1 105.7Z" fill="white"/>
<path d="M430.1 99.2C429.4 99.2 428.8 98.9 428.2 98.4C420.8 90.7 410.8 86.5 400.1 86.5C389.4 86.5 379.4 90.7 371.9 98.4C370.9 99.4 369.3 99.4 368.2 98.4C367.2 97.4 367.1 95.7 368.2 94.7C376.6 86 388 81.2 400.1 81.2C412.2 81.2 423.6 86 432 94.7C433 95.7 433 97.4 432 98.4C431.5 98.9 430.8 99.2 430.1 99.2Z" fill="white"/>
<path d="M931 748.5H646C636.3 748.5 628.3 740.5 628.3 730.8V702.7C628.3 692.9 636.3 685 646 685H931C940.7 685 948.7 692.9 948.7 702.7V730.8C948.7 740.5 940.7 748.5 931 748.5Z" fill="black"/>
<path d="M666.8 734.3H646.6C645.2 734.3 644 733.2 644 731.8V701.7C644 700.3 645.2 699.1 646.6 699.1H666.8C668.2 699.1 669.4 700.3 669.4 701.7V731.8C669.4 733.2 668.2 734.3 666.8 734.3Z" fill="#F9BA71"/>
<path d="M699.1 734.3H678.9C677.5 734.3 676.3 733.2 676.3 731.8V701.7C676.3 700.3 677.5 699.1 678.9 699.1H699.1C700.5 699.1 701.7 700.3 701.7 701.7V731.8C701.7 733.2 700.5 734.3 699.1 734.3Z" fill="#F9BA71"/>
<path d="M850.6 734.3H711.2C709.7 734.3 708.6 733.2 708.6 731.8V701.7C708.6 700.3 709.7 699.1 711.2 699.1H850.6C852 699.1 853.2 700.3 853.2 701.7V731.8C853.2 733.2 852 734.3 850.6 734.3Z" fill="white"/>
<path d="M880.3 716.8C880.3 721.8 876.3 725.8 871.3 725.8C866.3 725.8 862.2 721.8 862.2 716.8C862.2 711.8 866.3 707.7 871.3 707.7C876.3 707.7 880.3 711.8 880.3 716.8Z" fill="#F2E3CB"/>
<path d="M905 716.8C905 721.8 901 725.8 896 725.8C891 725.8 886.9 721.8 886.9 716.8C886.9 711.8 891 707.7 896 707.7C901 707.7 905 711.8 905 716.8Z" fill="white"/>
<path d="M931.3 720.7H912.1C911.1 720.7 910.4 719.9 910.4 719V714.5C910.4 713.6 911.1 712.8 912.1 712.8H931.3C932.2 712.8 933 713.6 933 714.5V719C933 719.9 932.2 720.7 931.3 720.7Z" fill="#F2E3CB"/>
<path d="M679.4 756H656.7V748.5H679.4V756Z" fill="white"/>
<path d="M921.7 756H899V748.5H921.7V756Z" fill="white"/>
<path d="M953.4 724.9H948.7V708.6H953.4C955 708.6 956.4 709.9 956.4 711.6V721.8C956.4 723.5 955 724.9 953.4 724.9Z" fill="#F9BA71"/>
<path d="M931 677.4H646C636.3 677.4 628.3 669.5 628.3 659.8V631.7C628.3 621.9 636.3 614 646 614H931C940.7 614 948.7 621.9 948.7 631.7V659.8C948.7 669.5 940.7 677.4 931 677.4Z" fill="black"/>
<path d="M666.8 663.3H646.6C645.2 663.3 644 662.2 644 660.7V630.7C644 629.3 645.2 628.1 646.6 628.1H666.8C668.2 628.1 669.4 629.3 669.4 630.7V660.7C669.4 662.2 668.2 663.3 666.8 663.3Z" fill="#F2E3CB"/>
<path d="M699.1 663.3H678.9C677.5 663.3 676.3 662.2 676.3 660.7V630.7C676.3 629.3 677.5 628.1 678.9 628.1H699.1C700.5 628.1 701.7 629.3 701.7 630.7V660.7C701.7 662.2 700.5 663.3 699.1 663.3Z" fill="white"/>
<path d="M850.6 663.3H711.2C709.7 663.3 708.6 662.2 708.6 660.7V630.7C708.6 629.3 709.7 628.1 711.2 628.1H850.6C852 628.1 853.2 629.3 853.2 630.7V660.7C853.2 662.2 852 663.3 850.6 663.3Z" fill="white"/>
<path d="M880.3 645.8C880.3 650.8 876.3 654.8 871.3 654.8C866.3 654.8 862.2 650.8 862.2 645.8C862.2 640.8 866.3 636.7 871.3 636.7C876.3 636.7 880.3 640.8 880.3 645.8Z" fill="#F9BA71"/>
<path d="M905 645.8C905 650.8 901 654.8 896 654.8C891 654.8 886.9 650.8 886.9 645.8C886.9 640.8 891 636.7 896 636.7C901 636.7 905 640.8 905 645.8Z" fill="white"/>
<path d="M931.3 649.6H912.1C911.1 649.6 910.4 648.9 910.4 647.9V643.5C910.4 642.5 911.1 641.8 912.1 641.8H931.3C932.2 641.8 933 642.5 933 643.5V647.9C933 648.9 932.2 649.6 931.3 649.6Z" fill="white"/>
<path d="M679.4 685H656.7V677.4H679.4V685Z" fill="white"/>
<path d="M921.7 685H899V677.4H921.7V685Z" fill="white"/>
<path d="M953.4 653.9H948.7V637.5H953.4C955 637.5 956.4 638.9 956.4 640.6V650.8C956.4 652.5 955 653.9 953.4 653.9Z" fill="#F9BA71"/>
<path d="M931 606.4H646C636.3 606.4 628.3 598.5 628.3 588.7V560.6C628.3 550.9 636.3 543 646 543H931C940.7 543 948.7 550.9 948.7 560.6V588.8C948.7 598.5 940.7 606.4 931 606.4Z" fill="black"/>
<path d="M666.8 592.3H646.6C645.2 592.3 644 591.2 644 589.7V559.7C644 558.2 645.2 557.1 646.6 557.1H666.8C668.2 557.1 669.4 558.2 669.4 559.7V589.7C669.4 591.2 668.2 592.3 666.8 592.3Z" fill="#F2E3CB"/>
<path d="M699.1 592.3H678.9C677.5 592.3 676.3 591.2 676.3 589.7V559.7C676.3 558.2 677.5 557.1 678.9 557.1H699.1C700.5 557.1 701.7 558.2 701.7 559.7V589.7C701.7 591.2 700.5 592.3 699.1 592.3Z" fill="#F9BA71"/>
<path d="M850.6 592.3H711.2C709.7 592.3 708.6 591.2 708.6 589.7V559.7C708.6 558.2 709.7 557.1 711.2 557.1H850.6C852 557.1 853.2 558.2 853.2 559.7V589.7C853.2 591.2 852 592.3 850.6 592.3Z" fill="white"/>
<path d="M880.3 574.8C880.3 579.8 876.3 583.8 871.3 583.8C866.3 583.8 862.2 579.8 862.2 574.8C862.2 569.8 866.3 565.7 871.3 565.7C876.3 565.7 880.3 569.8 880.3 574.8Z" fill="#F9BA71"/>
<path d="M905 574.8C905 579.8 901 583.8 896 583.8C891 583.8 886.9 579.8 886.9 574.8C886.9 569.8 891 565.7 896 565.7C901 565.7 905 569.8 905 574.8Z" fill="#F2E3CB"/>
<path d="M931.3 578.6H912.1C911.1 578.6 910.4 577.9 910.4 576.9V572.5C910.4 571.5 911.1 570.8 912.1 570.8H931.3C932.2 570.8 933 571.5 933 572.5V576.9C933 577.9 932.2 578.6 931.3 578.6Z" fill="white"/>
<path d="M679.4 614H656.7V606.4H679.4V614Z" fill="white"/>
<path d="M921.7 614H899V606.4H921.7V614Z" fill="white"/>
<path d="M953.4 582.9H948.7V566.5H953.4C955 566.5 956.4 567.9 956.4 569.6V579.8C956.4 581.5 955 582.9 953.4 582.9Z" fill="#F9BA71"/>
<path d="M931 535.4H646C636.3 535.4 628.3 527.5 628.3 517.7V489.6C628.3 479.9 636.3 472 646 472H931C940.7 472 948.7 479.9 948.7 489.6V517.7C948.7 527.5 940.7 535.4 931 535.4Z" fill="black"/>
<path d="M666.8 521.3H646.6C645.2 521.3 644 520.1 644 518.7V488.7C644 487.2 645.2 486.1 646.6 486.1H666.8C668.2 486.1 669.4 487.2 669.4 488.7V518.7C669.4 520.1 668.2 521.3 666.8 521.3Z" fill="#F9BA71"/>
<path d="M699.1 521.3H678.9C677.5 521.3 676.3 520.1 676.3 518.7V488.7C676.3 487.2 677.5 486.1 678.9 486.1H699.1C700.5 486.1 701.7 487.2 701.7 488.7V518.7C701.7 520.1 700.5 521.3 699.1 521.3Z" fill="white"/>
<path d="M850.6 521.3H711.2C709.7 521.3 708.6 520.1 708.6 518.7V488.7C708.6 487.2 709.7 486.1 711.2 486.1H850.6C852 486.1 853.2 487.2 853.2 488.7V518.7C853.2 520.1 852 521.3 850.6 521.3Z" fill="white"/>
<path d="M880.3 503.7C880.3 508.7 876.3 512.8 871.3 512.8C866.3 512.8 862.2 508.7 862.2 503.7C862.2 498.7 866.3 494.7 871.3 494.7C876.3 494.7 880.3 498.7 880.3 503.7Z" fill="#F2E3CB"/>
<path d="M905 503.7C905 508.7 901 512.8 896 512.8C891 512.8 886.9 508.7 886.9 503.7C886.9 498.7 891 494.7 896 494.7C901 494.7 905 498.7 905 503.7Z" fill="#F2E3CB"/>
<path d="M931.3 507.6H912.1C911.1 507.6 910.4 506.9 910.4 505.9V501.5C910.4 500.5 911.1 499.7 912.1 499.7H931.3C932.2 499.7 933 500.5 933 501.5V505.9C933 506.9 932.2 507.6 931.3 507.6Z" fill="white"/>
<path d="M679.4 543H656.7V535.4H679.4V543Z" fill="white"/>
<path d="M921.7 543H899V535.4H921.7V543Z" fill="white"/>
<path d="M953.4 511.9H948.7V495.5H953.4C955 495.5 956.4 496.9 956.4 498.6V508.8C956.4 510.5 955 511.9 953.4 511.9Z" fill="#F9BA71"/>
<path d="M931 464.4H646C636.3 464.4 628.3 456.5 628.3 446.7V418.6C628.3 408.9 636.3 400.9 646 400.9H931C940.7 400.9 948.7 408.9 948.7 418.6V446.7C948.7 456.5 940.7 464.4 931 464.4Z" fill="black"/>
<path d="M666.8 450.3H646.6C645.2 450.3 644 449.1 644 447.7V417.6C644 416.2 645.2 415.1 646.6 415.1H666.8C668.2 415.1 669.4 416.2 669.4 417.6V447.7C669.4 449.1 668.2 450.3 666.8 450.3Z" fill="white"/>
<path d="M699.1 450.3H678.9C677.5 450.3 676.3 449.1 676.3 447.7V417.6C676.3 416.2 677.5 415.1 678.9 415.1H699.1C700.5 415.1 701.7 416.2 701.7 417.6V447.7C701.7 449.1 700.5 450.3 699.1 450.3Z" fill="white"/>
<path d="M850.6 450.3H711.2C709.7 450.3 708.6 449.1 708.6 447.7V417.6C708.6 416.2 709.7 415.1 711.2 415.1H850.6C852 415.1 853.2 416.2 853.2 417.6V447.7C853.2 449.1 852 450.3 850.6 450.3Z" fill="white"/>
<path d="M880.3 432.7C880.3 437.7 876.3 441.8 871.3 441.8C866.3 441.8 862.2 437.7 862.2 432.7C862.2 427.7 866.3 423.7 871.3 423.7C876.3 423.7 880.3 427.7 880.3 432.7Z" fill="white"/>
<path d="M905 432.7C905 437.7 901 441.8 896 441.8C891 441.8 886.9 437.7 886.9 432.7C886.9 427.7 891 423.7 896 423.7C901 423.7 905 427.7 905 432.7Z" fill="#F9BA71"/>
<path d="M931.3 436.6H912.1C911.1 436.6 910.4 435.8 910.4 434.9V430.4C910.4 429.5 911.1 428.7 912.1 428.7H931.3C932.2 428.7 933 429.5 933 430.4V434.9C933 435.8 932.2 436.6 931.3 436.6Z" fill="white"/>
<path d="M679.4 472H656.7V464.4H679.4V472Z" fill="white"/>
<path d="M921.7 472H899V464.4H921.7V472Z" fill="white"/>
<path d="M953.4 440.8H948.7V424.5H953.4C955 424.5 956.4 425.9 956.4 427.6V437.8C956.4 439.5 955 440.8 953.4 440.8Z" fill="#F9BA71"/>
<path d="M687.5 527.2C687.5 527.2 689.4 531.2 690.6 534.3C691.7 537.4 690.2 543 690.2 543H687.8C687.8 543 678.1 550.2 673.3 553.1C668.6 556 666.6 557.1 664.1 557.1C662.2 557.1 657.5 555.7 658 552.7C658.4 549.8 673.7 529.4 673.7 529.4C673.7 529.4 684.1 529.6 687.5 527.2Z" fill="#283770"/>
<path d="M636.6 454.9C636.6 454.9 638.9 457.5 641.3 461.1C643.8 464.7 644 472 644 472L606.7 489.7C606.7 489.7 600.2 485.6 606 478.7C613.6 469.7 621 460.7 621 460.7C621 460.7 630.2 459.8 636.6 454.9Z" fill="#283770"/>
<path d="M617.5 448.9L621 460.7C621 460.7 630.5 461.3 636.6 454.9L634.3 444.6" fill="#F4CFB3"/>
<path d="M653.5 358.5C653.5 358.5 667.6 360.4 675.6 359.5C684.9 358.4 676.3 349.6 676.3 349.6L654.5 354.9L653.5 358.5Z" fill="#F4CFB3"/>
<path d="M698.9 371.3L696.4 400.9H666.8C666.8 400.9 655.2 397.9 641.1 392.4C636.2 390.4 630.9 388.1 625.7 385.6C627.6 389.6 628.4 393.4 629.4 401.7C632.9 428.7 635.8 448.4 635.8 448.4C626.8 454.4 617.8 453.8 617.8 453.8C617.8 453.8 595.8 394 592.4 373C590.5 361.5 598.5 348.9 624 352.1C633.1 353.3 656.5 359.3 665 361.3C685.3 366.2 698.9 371.3 698.9 371.3Z" fill="#283770"/>
<path style="mix-blend-mode:multiply" opacity="0.5" d="M686.5 400.9H666.8C666.8 400.9 655.2 397.9 641.1 392.4C641.1 392.4 659.8 397.9 678.5 398C683.9 398 686 398.4 686.5 400.9Z" fill="#283770"/>
<path d="M671.4 518.6L673.7 529.4C673.7 529.4 684.1 531.3 687.5 527.2L686.8 519.6" fill="#F4CFB3"/>
<path d="M737 367C737 367 710 374.6 696.6 367.4C696.6 367.4 655 418.3 653.4 437.4C653 442.4 659.7 469.2 664.9 491.9C669.2 510.6 672 526.4 672 526.4C672 526.4 681.9 526.6 687.9 524.3C687.9 524.3 686.4 458.2 681.2 441.8C693.9 432.7 713.9 418.9 725.7 404.7C727.6 402.4 730.4 400.9 733.5 400.9C733.5 400.9 743.6 388.2 737 367Z" fill="#283770"/>
<path d="M674.4 318.8C673 318.4 671.633 318.033 670.3 317.7C656.8 313.7 653.1 309 653.1 309C661.5 285.2 666.9 279.9 670.9 275.5C678.2 267.4 672.6 293.2 671.8 293.6L674.4 318.8Z" fill="#F7CC6E"/>
<path style="mix-blend-mode:multiply" d="M671.5 295.2L668.4 309.6L675.9 307.7L671.5 295.2Z" fill="#F7C76E"/>
<path d="M737.6 364.7C738 368.5 740.3 370 740.3 374.4C740.3 375.4 736.6 380 727.4 381.6C727.4 381.6 707.7 390.4 688.7 374.6C679.5 367 669.3 362.3 669.3 362.3C668.8 362.1 668.9 361.3 669.4 360.6C669.8 360 672.1 356.6 672.2 356.3C675.9 336.4 672.8 334.4 672.6 319.1C672.6 318.767 672.567 318.4 672.5 318C672.1 294.5 669.8 282.7 670.9 275.5C676.3 269.4 691.3 264.6 692.3 264.4C692.3 264.4 708.1 264.3 711.6 264.4C719.4 266.4 733.4 270.6 740.3 282.4C739.9 291.9 740.5 303.3 739.4 318C739.2 320.3 735.6 348.3 737.6 364.7Z" fill="#F7CC6E"/>
<path d="M676.5 228.2C676.5 228.2 675.3 236.4 679.1 237.9L680.6 228.9" fill="#192139"/>
<path d="M696.4 276.1C687.2 275 691.3 265.5 692.3 264.3C692.3 264.3 693.8 254.3 694 253.8L709.6 247C709.6 247 710 264.1 711.6 264.3C713.9 265.4 710.8 277.8 696.4 276.1Z" fill="#F4CFB3"/>
<path style="mix-blend-mode:multiply" d="M704.2 252.7C704.2 252.7 700.8 260.1 692.7 261.6L694 253.8L704.2 252.7Z" fill="#F4CFB3"/>
<path d="M678.4 227.8C678.4 227.8 674.8 254.8 686.7 259.3C686.7 259.3 698.6 260.4 705.5 251.1C707.5 248.4 710 247.8 710.8 244.6C712.2 239.3 714 229.6 711.6 223.8C708.2 215.5 678.7 207.6 678.4 227.8Z" fill="#F4CFB3"/>
<path d="M686.3 208.9C686.3 208.9 689.1 202.5 697.6 205.5C703.6 207.7 706.7 212.1 706.7 212.1C706.7 212.1 709.1 210.2 711.2 213.1C712.7 215.1 711.8 219.2 711.8 219.2C726 221.8 711.6 252 711.4 252.9L709.9 253.8C709.5 249.4 709.7 245.4 709.4 242.3C709.3 241.4 707.8 240.8 707.5 240.2C704.7 240.6 702 240.6 700.4 239.2C697.6 236.9 697 233 696.8 230.4C694.1 231.2 672.4 234.7 673.5 222.3C673.5 222.3 672.5 220.4 672.2 218.5C669.7 203.1 686.3 208.9 686.3 208.9Z" fill="#192139"/>
<path d="M704.7 246.1C710.1 248.1 711.8 234.9 706.7 234.3C702.8 233.9 702.6 239.3 702.6 239.3C702.6 239.3 701.6 244.9 704.7 246.1Z" fill="#F4CFB3"/>
<path style="mix-blend-mode:multiply" d="M717.8 300.5L724 320.9L736.5 322.6L717.8 300.5Z" fill="#F7C76E"/>
<path d="M757.9 324.3C752.8 308.9 743.7 290.5 743.7 290.5L722.8 302.5C722.8 302.5 730.8 318.5 736.1 329.6C731 330.9 717.8 334.2 707.7 337.4C694.9 341.6 683 342.7 683 342.7C683.5 346.6 683.5 350.2 683.5 350.2C696 350.9 719.5 351.1 736.2 350C743 349.5 748.9 348.9 752 347.8C756.9 346.1 760.2 344.8 760.4 339.7C760.8 332.2 758 324.5 757.9 324.3Z" fill="#F4CFB3"/>
<path d="M707.5 356.3H678.5V353.4H707.5C708.3 353.4 708.9 354.1 708.9 354.9C708.9 355.6 708.3 356.3 707.5 356.3Z" fill="white"/>
<path d="M691.8 356.3H622.6C621.8 356.3 621 355.7 620.8 354.9L605.9 301.4C605.6 300.3 606.5 299.1 607.7 299.1H674.5C676.2 299.1 677.6 300.2 678 301.8L692.8 355C693 355.6 692.5 356.3 691.8 356.3Z" fill="white"/>
<path d="M689.2 356.3H620C619.1 356.3 618.4 355.7 618.1 354.9L603.3 301.4C603 300.3 603.9 299.1 605.1 299.1H671.9C673.5 299.1 675 300.2 675.4 301.8L690.2 355C690.4 355.6 689.9 356.3 689.2 356.3Z" fill="#F9BA71"/>
<path d="M628.1 356.3C628.1 356.3 629.3 359 634.8 359.5L634.4 356.3H628.1Z" fill="#F4CFB3"/>
<path d="M629.4 347.2C629.5 346.7 630.7 346.1 631.7 346.5C631.3 345.3 631 344.3 631 344.2C631.1 342.7 632.4 342.9 633.2 343.4C634.1 343.9 635.2 346.2 635.5 346.5C635.1 345.7 634.8 344.8 634.8 344.7C635 343.9 636.8 343.2 637.9 344.2C638.4 344.7 640.1 347.4 640.5 348.1C640.3 347.6 640.3 347.3 640.3 347.2C640.5 346.4 642.1 346.1 643.1 347.1C644.7 348.5 646.9 353.7 646.9 353.7C647.9 356 648.9 356.3 649.2 356.3C649.9 356.3 654.9 356.3 654.9 356.3C654.9 356.3 654.4 358.6 651.8 359.5C649.1 360.4 645 361 639.8 360.8C637.2 360.8 634.2 359.9 632.6 357.5C632.1 356.7 631 352.6 630.6 351.1C630.4 350.3 629.4 347.3 629.4 347.2Z" fill="#F4CFB3"/>
<path d="M740.3 282.4C740.3 282.4 744.9 288.2 753.2 308.2C753.2 308.2 740.8 315.5 725.6 318.5C725.6 318.5 722.4 312.1 714.9 293.3" fill="#F7CC6E"/>
<path d="M447.7 757.3H492.9V478.7H447.7V757.3Z" fill="#FFAE2C"/>
<path d="M445.1 757.3H486.9V478.7H445.1V757.3Z" fill="#F2E3CB"/>
<path style="mix-blend-mode:multiply" opacity="0.5" d="M486.9 533.4H445.1V523.5H486.9V533.4Z" fill="#FE9A0F"/>
<path d="M382.4 518.7L390.5 517.8L412.1 381.3C412.3 380 413.5 379 414.8 379H564.5L566 374.3L571.9 378.1C571.967 378.167 572.033 378.2 572.1 378.2C572.8 378.8 573.2 379.8 573.1 380.8L550.8 521.2C550.6 522.5 549.5 523.5 548.2 523.5H390.5C389.8 523.5 389.2 523.2 388.7 522.8L382.4 518.7Z" fill="#FFAE2C"/>
<path d="M384.1 519.4H541.8C543.1 519.4 544.3 518.4 544.5 517.1L566.7 376.7C567 375.1 565.7 373.6 564.1 373.6H406.4C405.1 373.6 404 374.5 403.8 375.8L381.5 516.3C381.2 517.9 382.5 519.4 384.1 519.4Z" fill="#F2EBDF"/>
<path d="M391.5 512.7H536.3C537.1 512.7 537.8 512.1 537.9 511.3L558.4 382.2C558.6 381.2 557.8 380.3 556.7 380.3H412C411.2 380.3 410.4 380.9 410.3 381.7L389.8 510.8C389.7 511.8 390.5 512.7 391.5 512.7Z" fill="white"/>
<path d="M441.6 451.9H489.7C490.8 451.9 491.7 451.1 491.9 450.1L498.6 407.5C498.8 406.2 497.8 405 496.5 405H448.4C447.3 405 446.4 405.8 446.3 406.8L439.5 449.4C439.3 450.7 440.3 451.9 441.6 451.9Z" fill="#F9BA71"/>
<path d="M450.8 446.1H447.5C447 446.1 446.6 445.7 446.7 445.2L450.7 420.2C450.8 419.7 451.2 419.3 451.7 419.3H455C455.5 419.3 455.9 419.7 455.8 420.2L451.8 445.2C451.7 445.7 451.3 446.1 450.8 446.1Z" fill="#FDF8EE"/>
<path d="M459.4 446.1H456C455.6 446.1 455.2 445.7 455.3 445.2L458.4 425.4C458.5 424.9 459 424.5 459.5 424.5H462.8C463.3 424.5 463.6 424.9 463.5 425.4L460.4 445.2C460.3 445.7 459.8 446.1 459.4 446.1Z" fill="#FDF8EE"/>
<path d="M467.9 446.1H464.6C464.1 446.1 463.8 445.7 463.9 445.2L467.6 421.7C467.7 421.2 468.1 420.8 468.6 420.8H472C472.4 420.8 472.8 421.2 472.7 421.7L469 445.2C468.9 445.7 468.4 446.1 467.9 446.1Z" fill="#FDF8EE"/>
<path d="M476.5 446.1H473.2C472.7 446.1 472.4 445.7 472.4 445.2L478 410C478.1 409.6 478.6 409.2 479.1 409.2H482.4C482.9 409.2 483.2 409.6 483.1 410L477.5 445.2C477.5 445.7 477 446.1 476.5 446.1Z" fill="#FDF8EE"/>
<path d="M485.1 446.1H481.8C481.3 446.1 480.9 445.7 481 445.2L485.5 417.3C485.5 416.9 486 416.5 486.5 416.5H489.8C490.3 416.5 490.6 416.9 490.5 417.3L486.1 445.2C486 445.7 485.6 446.1 485.1 446.1Z" fill="#FDF8EE"/>
<path d="M502.7 482H529.1C529.7 482 530.2 481.5 530.3 481L534 457.6C534.1 456.9 533.5 456.2 532.8 456.2H506.4C505.8 456.2 505.3 456.6 505.2 457.2L501.5 480.6C501.4 481.3 502 482 502.7 482Z" fill="#F9BA71"/>
<path opacity="0.5" d="M448.7 499.8H507.3C508.1 499.8 508.8 499.2 508.9 498.4L514 466.6C514.1 465.6 513.4 464.8 512.4 464.8H453.8C453 464.8 452.3 465.3 452.2 466.1L447.1 497.9C447 498.9 447.7 499.8 448.7 499.8Z" fill="#F9BA71"/>
<path d="M455.6 478.4L453.5 491.9H505.1L507.7 475.2C507.7 475.2 504.5 473.5 500.1 475.9C496.7 477.8 491.8 483.2 488.4 482.8C485 482.4 482.9 473.7 478.3 473.7C473.6 473.8 469.9 483.3 466.1 483.4C462.4 483.5 458 478.3 455.6 478.4Z" fill="white"/>
<path d="M510.1 416.6H538.6C539 416.6 539.3 416.3 539.4 415.9L541.8 400.4C541.9 400 541.5 399.5 541.1 399.5H512.6C512.2 399.5 511.8 399.8 511.8 400.2L509.3 415.7C509.3 416.1 509.6 416.6 510.1 416.6Z" fill="#F9BA71"/>
<g opacity="0.4">
<path d="M512.9 422H532.7C533.3 422 533.9 421.6 534 421C534.1 420.4 533.7 419.9 533.1 419.9H513.2C512.6 419.9 512.1 420.4 512 421C511.9 421.6 512.3 422 512.9 422Z" fill="#F9BA71"/>
<path d="M512.3 426H532.1C532.7 426 533.3 425.5 533.3 425C533.4 424.4 533 423.9 532.5 423.9H512.6C512 423.9 511.5 424.4 511.4 425C511.3 425.5 511.7 426 512.3 426Z" fill="#F9BA71"/>
<path d="M511.6 430H531.5C532.1 430 532.6 429.5 532.7 428.9C532.8 428.3 532.4 427.9 531.8 427.9H512C511.4 427.9 510.8 428.3 510.7 428.9C510.6 429.5 511 430 511.6 430Z" fill="#F9BA71"/>
<path d="M522 433.9H530.9C531.4 433.9 532 433.5 532.1 432.9C532.2 432.3 531.8 431.8 531.2 431.8H522.3C521.7 431.8 521.2 432.3 521.1 432.9C521 433.5 521.4 433.9 522 433.9Z" fill="#F9BA71"/>
</g>
<g opacity="0.4">
<path d="M412.3 480.5H440.2C441 480.5 441.8 479.8 441.9 479C442.1 478.2 441.5 477.5 440.7 477.5H412.8C412 477.5 411.2 478.2 411.1 479C410.9 479.8 411.5 480.5 412.3 480.5Z" fill="#F9BA71"/>
<path d="M411.4 486.1H439.3C440.2 486.1 440.9 485.4 441.1 484.6C441.2 483.8 440.6 483.1 439.8 483.1H411.9C411.1 483.1 410.3 483.8 410.2 484.6C410.1 485.4 410.6 486.1 411.4 486.1Z" fill="#F9BA71"/>
<path d="M410.6 491.6H438.5C439.3 491.6 440.1 491 440.2 490.1C440.3 489.3 439.8 488.7 438.9 488.7H411C410.2 488.7 409.4 489.3 409.3 490.1C409.2 491 409.7 491.6 410.6 491.6Z" fill="#F9BA71"/>
<path d="M425.1 497.2H437.6C438.4 497.2 439.2 496.5 439.3 495.7C439.4 494.9 438.9 494.2 438.1 494.2H425.6C424.8 494.2 424 494.9 423.9 495.7C423.7 496.5 424.3 497.2 425.1 497.2Z" fill="#F9BA71"/>
</g>
<g opacity="0.5">
<path opacity="0.4" d="M419 401.6H438C438.6 401.6 439.1 401.1 439.2 400.5C439.3 400 438.9 399.5 438.4 399.5H419.3C418.7 399.5 418.2 400 418.1 400.5C418 401.1 418.4 401.6 419 401.6Z" fill="#F9BA71"/>
<path opacity="0.4" d="M418.3 405.4H437.4C438 405.4 438.5 404.9 438.6 404.3C438.7 403.8 438.3 403.3 437.7 403.3H418.7C418.1 403.3 417.6 403.8 417.5 404.3C417.4 404.9 417.8 405.4 418.3 405.4Z" fill="#F9BA71"/>
<path opacity="0.4" d="M428.3 409.2H436.8C437.4 409.2 437.9 408.7 438 408.1C438.1 407.6 437.7 407.1 437.1 407.1H428.6C428.1 407.1 427.5 407.6 427.4 408.1C427.4 408.7 427.7 409.2 428.3 409.2Z" fill="#F9BA71"/>
</g>
<path d="M400.5 722.4L401.7 740.7C401.7 740.7 412.6 744.5 419.6 740.7L421.5 721.9" fill="#F4CFB3"/>
<path d="M444.9 756H399.7C399.7 754.5 399.4 750.5 399.9 747.2C400.4 743.4 401.7 740.7 401.7 740.7C410.2 742.5 419.6 740.7 419.6 740.7C419.6 740.7 434.2 745.1 440 748.4C444.4 751 445.1 754.5 444.9 756Z" fill="#283770"/>
<path d="M304 715.1L299 731.4C299 731.4 305.9 738.5 314.6 737.1L322.9 717" fill="#F4CFB3"/>
<path d="M331.1 756C331 756 330.7 756 330.7 756H312.9C312.567 756 312.267 756 312 756C307.4 751.9 290.5 737.5 290.8 736.7C291.1 735.8 292.6 732.9 295 729.4C297.6 725.6 301.3 723.8 301.3 723.8C308.4 729.8 317.5 730.1 317.5 730.1C317.5 730.1 321.9 741.8 324.4 744C327.3 744.4 334.3 748.3 331.1 756Z" fill="#283770"/>
<path d="M421.5 733.2C406.9 737.1 399.7 732.4 399.7 732.4C399.7 732.4 395.4 665.4 395.2 653.3C394.9 640.1 395.8 628.8 395.8 628.8C389.7 617.5 381.6 584.9 381.6 584.9C381.6 584.9 378.8 596.5 375.7 607.8C373.7 615.3 371.6 622.7 370.2 626.6C366 637.8 322.6 727.1 322.6 727.1C304.7 725.4 301.9 719.8 301.9 719.8C301.9 719.8 313.6 680.3 322.7 654.4C331.8 628.4 337.7 616.5 337.7 616.5L344.7 547.6C344.7 547.6 341.1 538.1 341.5 530.7C341.9 522.1 347.8 508.2 347.8 508.2L408.8 505.1L415.6 517.2C415.6 517.2 428.5 610.8 429.4 625C430.3 639.3 421.5 733.2 421.5 733.2Z" fill="#283770"/>
<path d="M428.2 348.4C427.9 352.1 426.1 356.8 425.1 362.4C424.4 366.4 423 371.8 420.8 376.2C418.6 380.5 416.2 383.8 413.6 384.4C408.3 385.6 389.8 380.1 384.6 360C378.5 336.2 395.7 329.7 404.1 330.9C412.6 332.1 429.1 335.8 428.2 348.4Z" fill="#F4CFB3"/>
<path d="M406.1 372.8C406.1 372.8 403.6 380.9 402.8 391.1C402.8 391.1 386.7 393.8 377.9 389C377.9 389 387 370.6 387.9 354.5" fill="#E9CDB2"/>
<path d="M346.9 431.9C346.9 431.9 340.4 454.5 341.3 463C341.6 466.1 360.6 474.3 360.6 474.3L364.2 442.1L346.9 431.9Z" fill="#F4CFB3"/>
<path d="M363.3 447.6C362.9 447.6 362.5 447.567 362.1 447.5C357.3 447.2 353.4 446.3 350.3 445.2C345.5 443.6 342.9 441.7 342.9 441.7C348.2 419.5 352.7 408.7 352.7 408.7L363.3 447.6Z" fill="#F7AF49"/>
<path style="mix-blend-mode:multiply" d="M362.1 447.5C357.3 447.2 353.4 446.3 350.3 445.2C351.4 438.4 352.4 428.9 352.4 428.9L354.5 431.8L362.1 447.5Z" fill="#F7C76E"/>
<path d="M416.4 512.8C416.8 515.6 415.6 517.2 415.6 517.2C390.7 510.1 366.6 546.8 338.1 523.5C336.9 522.6 346.3 506.1 351.2 477.9C352.8 468.8 353.1 457.5 353.4 446.4C353.7 431.1 349.6 417.3 352.7 409C356.8 398.1 370.4 390.7 376.5 389.7C376.5 389.6 386.9 387.3 400.5 391.2C412 394.5 421.1 409.5 421.1 409.5C421.5 416.7 418.6 429.2 416 443.1C414.3 452 412.7 461.5 412.3 470.5C412.3 470.967 412.3 471.467 412.3 472C411.9 486.1 415.4 504.1 416.4 512.8Z" fill="#F7AF49"/>
<path style="mix-blend-mode:multiply" d="M416 443.1C414.3 452 412.7 461.5 412.3 470.5C412.3 470.967 412.3 471.467 412.3 472L412.2 472.3L400.1 431.3L406.1 431.9L416 443.1Z" fill="#F7C76E"/>
<path d="M481.5 427.1C481.5 427.1 482.6 423.7 483.1 421.7C483.5 419.8 483.8 417.6 484.5 417.8C485.2 417.9 486 419.1 486.4 420.6C486.7 422.1 486.4 425.4 486.4 425.4L481.5 427.1Z" fill="#F4CFB3"/>
<path d="M498.4 419.7C498 419.6 496.8 420.2 495.6 420.8C493.9 421.5 492 422.3 492 422.3L488.1 424.8C488.8 424 489.7 423.2 490.6 422.5C491.9 421.3 493.2 420.4 493.5 420.1C495.6 418 494.2 416.7 492.9 417.4C491.7 418.1 488.9 419.5 488 420.2C486.4 421.4 482.8 425.1 482.5 425.4C482 425.9 477.9 434.5 477 435.7C476 437.1 472.5 439.1 472.5 439.1C461.8 443.6 440.1 452.3 440.1 452.3L431.6 434.8L407.5 440.2C407.5 440.2 424.4 470.4 429.5 473.9C440.6 481.4 471.3 449.8 481.1 444.6C481.1 444.6 486 442.4 488 440.5C489.1 439.4 489.8 438 490.1 437L491.1 435C491.1 435 491.3 437.8 491.5 439.1C491.7 440.3 493 440.9 493.5 440.4C493.8 440.2 493.8 438.6 494 436.8C494.3 434.7 494.6 432.3 494.4 432C494 431.5 492.9 430.1 492.9 430.1C492.9 430.1 493.1 429.2 492.7 428.9C492.3 428.6 491.4 427.9 490.8 427.7L494.1 425.1C494.1 425.1 495.4 424.3 497.3 423.1C499.3 421.8 499.1 419.8 498.4 419.7Z" fill="#F4CFB3"/>
<path d="M397.5 416.7C396.3 428.9 409.3 450.8 409.3 450.8C409.3 450.8 422.7 448.4 434.1 437.9C434.1 437.9 425.5 415.8 421.1 409.5C416.3 402.8 398.7 404.5 397.5 416.7Z" fill="#F7AF49"/>
<path d="M434.1 346.2C435.7 341.9 434.8 337.2 427 337.1C418 321.9 400.5 325.1 395.1 326.5C380.6 330 373 346.4 374.6 358.4C376.5 372.4 380.3 374.8 381.7 376.8C383.1 378.7 394.9 381.6 400.8 378.8C402.7 377.8 408.5 360.6 409.2 358.7C409.3 358.2 409.5 357.8 409.8 357.4C410.4 357 411.2 357.1 411.9 357.1C412.1 357.1 412.267 357.1 412.4 357.1C412.3 358.9 412.6 361.1 414.7 360.6C416.5 360.1 417.9 358.4 418.7 356.9C428.9 355 433.1 348.9 434.1 346.2Z" fill="#192139"/>
<path d="M414.7 360.3C414.7 360.3 414.8 353.4 409.7 354.3C405.2 355.1 404.2 368.1 408.4 369.1C412.6 370 415.1 365.7 414.7 360.3Z" fill="#F4CFB3"/>
<path d="M377.1 342.7C377.1 342.7 357.1 370.1 363.9 389C366.7 397 402.8 406.3 412.2 391.8C404.1 389.4 406.3 366.8 406.3 366.8L377.1 342.7Z" fill="#192139"/>
<path style="mix-blend-mode:multiply" opacity="0.5" d="M381.6 584.9C381.6 584.9 378.8 596.5 375.7 607.8V564.6L381.6 584.9Z" fill="#283770"/>
<path d="M168.5 722.9L167.7 741.9C167.7 741.9 175.9 745.3 182.3 741.9L187.1 723.9" fill="#F4CFB3"/>
<path d="M110.9 716.7L106.2 739.3C106.2 739.3 115.3 743.7 122.4 740.7L128.3 722" fill="#F4CFB3"/>
<path d="M165.1 756.3H205.1C205.6 756.3 206 755.9 205.9 755.4C205.5 753.7 203.1 751.1 198.6 748.8C193.9 746.3 182.3 741.9 182.3 741.9C182.3 741.9 174.1 743.3 167.7 741.9C167.7 741.9 165.4 744.2 164.9 747.6C164.4 751.1 165.1 755.5 165.1 756.3Z" fill="#283770"/>
<path d="M237.3 413.2L266.4 455.6C266.4 455.6 269.4 467.9 255.3 466.4C241.2 464.8 219.9 430.3 219.9 430.3" fill="#F4CFB3"/>
<path d="M247.5 427.2C247.5 427.2 239.6 439.8 226.7 447.3L206.8 428L206.2 384.2C206.2 384.2 217.6 388.8 229.1 402.3C233.6 407.7 238.4 413.7 247.5 427.2Z" fill="#F7AF49"/>
<path style="mix-blend-mode:multiply" d="M226 414.2L232.1 427.9L219.9 425.6L226 414.2Z" fill="#F7C76E"/>
<path d="M149.4 496.4C149.4 496.4 135.2 540.2 130.4 578.9C125.7 617.7 127.4 608.7 125.9 618.6C124.5 627.6 122.3 640.5 118.1 659.1C114 677.7 107.8 729.2 107.8 729.2C107.8 729.2 116.4 733 125.9 731.7C125.9 731.7 148.9 672.6 152.1 655.9C155.3 639.2 156.3 620.9 156.3 620.9C156.3 620.9 173.8 585.9 180.6 560.6L184.3 559.6L183.5 628.6C183.5 628.6 172.4 653.8 170.6 674.4C168.8 695.1 167.7 732.3 167.7 732.3C167.7 732.3 180.8 736.3 185.3 733.2C185.3 733.2 207.5 648.2 212.9 626.9C218.3 605.6 226.8 556.9 227.4 547.1C229.4 512.8 224.5 498.1 224.5 498.1L149.4 496.4Z" fill="#283770"/>
<path d="M122.7 739.9C122.7 739.9 113.9 741 106.3 738.7L105.3 741.9C105.3 741.9 97.9 744.4 95 747.5C90.7 752.2 92.6 756.3 92.6 756.3H124.9C124.9 756.3 126.7 748.3 122.7 739.9Z" fill="#283770"/>
<path d="M225.3 495.8C224.8 499.8 222.7 500.7 222.7 500.7C222.7 500.7 207 508.9 148.3 499.9C148.3 499.9 146.2 499.5 147 495.6C149.1 485.5 150.4 473.4 149.8 464.6C149.6 461.5 149.1 458.8 148.4 456.7C146.2 450.6 143 441.9 140.4 433C137.1 422.1 134.6 410.9 135.6 402.9C137.6 386.7 166.1 379.8 166.1 379.8L190.4 379.6C190.4 379.6 211.9 381.8 221.9 396.9C229.7 408.6 226 448.9 224.1 476.1C223.6 484.1 225.8 491.2 225.3 495.8Z" fill="#F7AF49"/>
<path style="mix-blend-mode:multiply" d="M157.1 430.1L152.8 464.6H149.8C149.6 461.5 149.1 458.8 148.4 456.7C146.2 450.6 143 441.9 140.4 433L157.1 430.1Z" fill="#F7C76E"/>
<path d="M200.8 325C200.8 325 204.8 340.2 198.9 343.1C194.1 345.4 193.7 338.6 193.7 338.6L192.6 331.2" fill="#192139"/>
<path d="M166 379.8C166 379.8 170 390.1 185.1 388.6C198.3 387.4 190.4 379.6 190.4 379.6C190.4 379.6 189.7 377.5 188.9 374.8C188.1 372.1 187.1 368.8 186.5 366.2L181.3 361.9L170.1 352.7C170.1 352.7 171.6 372.6 166 379.8Z" fill="#F4CFB3"/>
<path style="mix-blend-mode:multiply" d="M174.4 362C174.4 362 179 371.7 188.9 374.8C188.1 372.1 187.1 368.8 186.5 366.2L181.3 361.9L174.4 362Z" fill="#F4CFB3"/>
<path d="M198.5 333.9C198.5 333.9 204.8 364.3 196 369.1C196 369.1 186 372.8 175.5 364.3C172.5 361.9 170.1 358.8 168.3 355.4C165.2 349.8 160.3 339.5 161.4 332.2C162.8 321.8 192.3 311.1 198.5 333.9Z" fill="#F4CFB3"/>
<path d="M175.5 347.7C175.5 347.7 173.7 342.1 169.8 343.7C164.7 345.9 170.4 359.1 175.4 355.4" fill="#F4CFB3"/>
<path d="M159.4 323.7C166 310.7 178.2 316.9 191.8 315.6C196.4 311.1 201.3 310.9 203.7 312.2C207.1 313.9 207 320.7 206.7 323.6C204.8 341.5 185.1 340.1 179.3 339.3C179.1 340.7 178.8 342 178 343.1C177.2 344.2 175.9 344.9 174.4 345.4C173.7 344.4 172.6 343.4 171.3 343.4C170.833 343.4 170.333 343.5 169.8 343.7C168.8 344.2 168.2 345.1 167.9 346.2C167.5 348.5 168.8 352 170.4 354.1C170.5 358 170.2 361.5 170.2 363.8C170.2 363.8 167 358.6 165 356.3C163.9 355 160.8 350.8 158.9 345.4C158.9 345.4 158.9 345.367 158.9 345.3C157.7 343.4 150.1 329.9 159.4 323.7Z" fill="#192139"/>
<path d="M225.4 485.5L182.2 484.3C180.1 484.3 178.7 482.2 179.3 480.2L199.4 421C200.2 418.7 202.3 417.3 204.6 417.3L247.8 418.5C249.9 418.6 251.3 420.6 250.7 422.6L230.6 481.9C229.8 484.1 227.7 485.6 225.4 485.5Z" fill="#F7CC6E"/>
<path d="M207.7 452.9C207.3 451.9 205.4 452.3 204.8 452.5C204.3 452.7 203.6 453 202.6 453.5C202.333 453.567 202.067 453.667 201.8 453.8C203.4 452.9 204.5 452.2 204.1 451.3C203.7 450.3 201.8 450.7 201.2 450.9C200.7 451.1 200 451.4 199 451.9C197.5 452.5 195.3 453.4 194 454C191.7 454.4 188.9 455.1 188.9 455C189 454.2 189.6 453.1 189.7 452.2C190.1 451.3 191.5 448 190.6 446.9C189.6 445.6 188.9 446.1 188.2 447.7C187.4 449.3 185.1 451.6 184.3 452.5C183.5 453.4 183.4 454.4 182.3 455.7C181 457.2 179 457.9 177.9 458.2C175.8 458.7 157.1 459.4 144.1 459.7C147.9 447 150.4 428 150.4 428L126 418.7C126 418.7 116.8 473.5 119.8 478.5C121.9 482.1 127.4 483.9 133.1 483.2C140.7 482.4 156.8 476.4 180.6 469.7C184.4 469.2 186.8 468.7 191.7 468.1C193.2 467.9 194.7 467.5 195.9 467C195.967 467 196.033 467 196.1 467C196.167 466.933 196.267 466.867 196.4 466.8C197.2 466.5 199.1 465.6 200.8 464.6C203 463.2 205.6 461.5 205.1 460.3C204.9 459.7 204.1 459.6 203.4 459.7C205.4 458.5 207.1 457.4 206.7 456.3C206.5 455.9 205.9 455.7 205.4 455.7C207 454.7 208.1 453.9 207.7 452.9Z" fill="#F4CFB3"/>
<path d="M132.4 399.7C135.4 394.1 147.1 387.8 147.1 387.8L158.8 415.4C158.9 425.3 152.8 450.9 152.8 450.9C149.4 451.2 141.8 450.8 135.9 449.9C128.8 448.8 121.3 446.4 121.3 446.4C121.3 446.4 125.2 413.1 132.4 399.7Z" fill="#F7AF49"/>
<path d="M323.7 375.9L251.4 385C246.2 385.7 241.5 382 240.8 376.8L239.5 365.8C238.8 360.6 242.5 355.9 247.7 355.2L319.9 346.1C325.1 345.5 329.9 349.2 330.5 354.4L331.9 365.3C332.5 370.5 328.9 375.3 323.7 375.9Z" fill="white"/>
<path d="M258.4 377L252.5 377.8C249.8 378.1 247.3 376.2 246.9 373.4L246.2 367.5C245.8 364.8 247.8 362.3 250.5 361.9L256.4 361.2C259.2 360.8 261.7 362.8 262 365.5L262.8 371.5C263.1 374.2 261.2 376.7 258.4 377Z" fill="#F7CC6E"/>
<path d="M320.6 358.1L267 364.8C266.5 364.9 266.1 364.6 266.1 364.2V364.1C266 363.7 266.3 363.3 266.8 363.2L320.4 356.5C320.8 356.5 321.2 356.8 321.3 357.2C321.3 357.7 321 358.1 320.6 358.1Z" fill="#F7CC6E"/>
<path d="M289.7 365.9L267.5 368.7C267 368.7 266.6 368.4 266.6 368V367.9C266.5 367.5 266.8 367.1 267.3 367.1L289.5 364.3C289.9 364.2 290.3 364.5 290.4 365C290.4 365.4 290.1 365.8 289.7 365.9Z" fill="#F7CC6E"/>
<path d="M321.1 361.9L292.9 365.5C292.4 365.5 292 365.2 292 364.8C291.9 364.3 292.2 363.9 292.7 363.9L320.9 360.3C321.3 360.3 321.7 360.6 321.7 361V361.1C321.8 361.5 321.5 361.9 321.1 361.9Z" fill="#F7CC6E"/>
<path d="M296.9 368.9L267.9 372.5C267.5 372.5 267.1 372.2 267.1 371.8H267C267 371.3 267.3 370.9 267.7 370.9L296.7 367.2C297.1 367.2 297.5 367.5 297.6 367.9V368C297.6 368.4 297.3 368.8 296.9 368.9Z" fill="#F7CC6E"/>
<path d="M271 382.5C270.867 382.5 270.8 382.5 270.8 382.5C270.8 382.5 271.4 380.8 271.9 379C272.4 378.1 273.6 376.1 273.6 375C273.6 371.5 271 373.9 269.5 375.5C265.7 378.7 263 381.6 263 384.8C263 390.9 262.8 395.6 262.8 395.6C257.7 410.1 247.5 439.5 247.5 439.5L265.7 462.5C265.7 462.5 269.4 456.3 270.8 427C271.3 415.7 273.5 403.5 274.4 398.6C274.4 398.6 278.9 393.3 280.4 389.6C281.3 388.2 282.1 387 282.5 386.5C283.8 384.8 284.6 380.8 284.6 380.8L271 382.5Z" fill="#F4CFB3"/>
<path d="M603.4 286.9H502.4C497.2 286.9 492.9 282.7 492.9 277.4V257.1C492.9 251.9 497.2 247.6 502.4 247.6H603.4C608.6 247.6 612.9 251.9 612.9 257.1V277.4C612.9 282.7 608.6 286.9 603.4 286.9Z" fill="white"/>
<path d="M517.2 277.7H506.3C503.6 277.7 501.3 275.5 501.3 272.7V261.8C501.3 259.1 503.6 256.8 506.3 256.8H517.2C520 256.8 522.2 259.1 522.2 261.8V272.7C522.2 275.5 520 277.7 517.2 277.7Z" fill="#F2E3CB"/>
<path d="M599.4 263.3H528.8C528.2 263.3 527.7 262.8 527.7 262.2C527.7 261.7 528.2 261.2 528.8 261.2H599.4C599.9 261.2 600.4 261.7 600.4 262.2C600.4 262.8 599.9 263.3 599.4 263.3Z" fill="#F2E3CB"/>
<path d="M558 268.3H528.8C528.2 268.3 527.7 267.9 527.7 267.3C527.7 266.7 528.2 266.2 528.8 266.2H558C558.6 266.2 559.1 266.7 559.1 267.3C559.1 267.9 558.6 268.3 558 268.3Z" fill="#F2E3CB"/>
<path d="M599.4 268.3H562.3C561.7 268.3 561.2 267.9 561.2 267.3C561.2 266.7 561.7 266.2 562.3 266.2H599.4C599.9 266.2 600.4 266.7 600.4 267.3C600.4 267.9 599.9 268.3 599.4 268.3Z" fill="#F2E3CB"/>
<path d="M566.9 273.4H528.8C528.2 273.4 527.7 272.9 527.7 272.3C527.7 271.7 528.2 271.2 528.8 271.2H566.9C567.5 271.2 568 271.7 568 272.3C568 272.9 567.5 273.4 566.9 273.4Z" fill="#F2E3CB"/>
<path d="M340 271.7H275.5C268.5 271.7 262.8 266 262.8 259V225.1C262.8 218.1 268.5 212.4 275.5 212.4H340C347 212.4 352.7 218.1 352.7 225.1V259C352.7 266 347 271.7 340 271.7Z" fill="#F9BA71"/>
<path d="M302.1 231.1L317.1 239.7C319.6 241.1 319.6 244.7 317.1 246.1L302.1 254.8C299.6 256.2 296.5 254.4 296.5 251.6V234.3C296.5 231.4 299.6 229.6 302.1 231.1Z" fill="white"/>
<path d="M115 372H13.7C6.50001 372 0.700012 366.2 0.700012 359V260.5C0.700012 253.3 6.50001 247.5 13.7 247.5H115C122.2 247.5 128 253.3 128 260.5V359C128 366.2 122.2 372 115 372Z" fill="#F2E3CB"/>
<path d="M83.5 294.9H28C21.3 294.9 15.9 289.5 15.9 282.8C15.9 276.1 21.3 270.6 28 270.6H83.5C90.2 270.6 95.7 276.1 95.7 282.8C95.7 289.5 90.2 294.9 83.5 294.9Z" stroke="white" stroke-miterlimit="10"/>
<path d="M100.7 334H45.2C38.5 334 33.1 328.6 33.1 321.9C33.1 315.2 38.5 309.7 45.2 309.7H100.7C107.4 309.7 112.8 315.2 112.8 321.9C112.8 328.6 107.4 334 100.7 334Z" stroke="white" stroke-miterlimit="10"/>
<path d="M85.5 278.1H28.8C28 278.1 27.3 277.5 27.3 276.7C27.3 275.8 28 275.2 28.8 275.2H85.5C86.3 275.2 87 275.8 87 276.7C87 277.5 86.3 278.1 85.5 278.1Z" fill="white"/>
<path d="M85.5 284.2H28.8C28 284.2 27.3 283.6 27.3 282.8C27.3 282 28 281.3 28.8 281.3H85.5C86.3 281.3 87 282 87 282.8C87 283.6 86.3 284.2 85.5 284.2Z" fill="white"/>
<path d="M55.7 290.4H28.8C28 290.4 27.3 289.7 27.3 288.9C27.3 288.1 28 287.4 28.8 287.4H55.7C56.5 287.4 57.2 288.1 57.2 288.9C57.2 289.7 56.5 290.4 55.7 290.4Z" fill="white"/>
<path d="M43.7 317.2H100.5C101.3 317.2 101.9 316.6 101.9 315.8C101.9 314.9 101.3 314.3 100.5 314.3H43.7C42.9 314.3 42.3 314.9 42.3 315.8C42.3 316.6 42.9 317.2 43.7 317.2Z" fill="white"/>
<path d="M65.1 323.4H100.5C101.3 323.4 101.9 322.7 101.9 321.9C101.9 321.1 101.3 320.4 100.5 320.4H65.1C64.3 320.4 63.7 321.1 63.7 321.9C63.7 322.7 64.3 323.4 65.1 323.4Z" fill="white"/>
<path d="M43.7 323.4H58.9C59.7 323.4 60.3 322.7 60.3 321.9C60.3 321.1 59.7 320.4 58.9 320.4H43.7C42.9 320.4 42.3 321.1 42.3 321.9C42.3 322.7 42.9 323.4 43.7 323.4Z" fill="white"/>
<path d="M73.6 329.5H100.5C101.3 329.5 101.9 328.8 101.9 328C101.9 327.2 101.3 326.5 100.5 326.5H73.6C72.7 326.5 72.1 327.2 72.1 328C72.1 328.8 72.7 329.5 73.6 329.5Z" fill="white"/>
<path d="M21.6 350.2C21.6 351.8 20.3 353.1 18.7 353.1C17.2 353.1 15.9 351.8 15.9 350.2C15.9 348.7 17.2 347.4 18.7 347.4C20.3 347.4 21.6 348.7 21.6 350.2Z" fill="white"/>
<path d="M33 350.2C33 351.8 31.7 353.1 30.2 353.1C28.6 353.1 27.3 351.8 27.3 350.2C27.3 348.7 28.6 347.4 30.2 347.4C31.7 347.4 33 348.7 33 350.2Z" fill="white"/>
<path d="M44.5 350.2C44.5 351.8 43.2 353.1 41.6 353.1C40.1 353.1 38.8 351.8 38.8 350.2C38.8 348.7 40.1 347.4 41.6 347.4C43.2 347.4 44.5 348.7 44.5 350.2Z" fill="white"/>
<path d="M1096.3 580.4H1021C1015.1 580.4 1010.3 575.6 1010.3 569.7V500.8C1010.3 494.9 1015.1 490.1 1021 490.1H1096.3C1102.2 490.1 1107 494.9 1107 500.8V569.7C1107 575.6 1102.2 580.4 1096.3 580.4Z" fill="white"/>
<path d="M1093.3 574.1H1024.1C1020.2 574.1 1017.1 571 1017.1 567.1V503.5C1017.1 499.6 1020.2 496.4 1024.1 496.4H1093.3C1097.1 496.4 1100.3 499.6 1100.3 503.5V567.1C1100.3 571 1097.1 574.1 1093.3 574.1Z" fill="#FDF8EE"/>
<path d="M1076.2 574.1H1024.1C1021.1 574.1 1018.6 572.3 1017.6 569.6L1040.4 535.6C1042.8 532.1 1048 532.1 1050.4 535.6L1057.6 546.4L1076.2 574.1Z" fill="#F2E3CB"/>
<path d="M1100.3 536.1V567.1C1100.3 571 1097.1 574.1 1093.3 574.1H1039.1L1057.6 546.4L1078 516.2C1080.1 513 1084.8 513 1086.9 516.2L1100.3 536.1Z" fill="#F2E3CB"/>
<path d="M1057.5 515.3C1057.5 522.3 1051.8 528 1044.8 528C1037.8 528 1032.1 522.3 1032.1 515.3C1032.1 508.3 1037.8 502.6 1044.8 502.6C1051.8 502.6 1057.5 508.3 1057.5 515.3Z" fill="#F2E3CB"/>
<path d="M948.5 357.9L880.3 330.8L812.2 357.9C812.2 357.9 808.9 453.9 880.3 478.7C951.8 453.9 948.5 357.9 948.5 357.9Z" fill="#F2E3CB"/>
<path fill-rule="evenodd" clip-rule="evenodd" d="M943.5 361.3C943.2 377.7 938.7 451.8 880.3 473.4C822 451.8 817.5 377.7 817.2 361.3L880.3 336.1L943.5 361.3ZM823.4 365.4C824.4 385.7 831.4 447.3 880.4 467C929.5 447.2 936.5 385.7 937.4 365.4L880.4 342.7L823.4 365.4Z" fill="white"/>
<path d="M839.2 393.4C839.2 393.4 869.4 413.6 880.2 441.8C880.2 441.8 909.3 367.7 948.5 342.6C948.5 342.6 910.5 350.1 876.8 412.4C876.8 412.4 862 394.9 839.2 393.4Z" fill="#F9BA71"/>
<path d="M30.5 757H1069.5" stroke="#232230" stroke-width="2" stroke-linecap="round" stroke-linejoin="round"/>
<path d="M192.8 290.4V285.4" stroke="white" stroke-width="4" stroke-linecap="round" stroke-linejoin="round"/>
<path d="M192.8 273.4V225.9C192.8 193.8 218.8 167.8 250.9 167.8H730.4C762.5 167.8 788.5 193.8 788.5 225.9V369.3" stroke="white" stroke-width="4" stroke-linecap="round" stroke-linejoin="round" stroke-dasharray="10.01 10.01"/>
<path d="M788.5 375.3V380.3" stroke="white" stroke-width="4" stroke-linecap="round" stroke-linejoin="round"/>
<path d="M403.2 167.8V309.6" stroke="white" stroke-width="4" stroke-linecap="round" stroke-linejoin="round" stroke-dasharray="10 10"/>
<path d="M645.5 167.8V290.5" stroke="white" stroke-width="4" stroke-linecap="round" stroke-linejoin="round" stroke-dasharray="10 10"/>
</svg>
