<svg width="2052" height="1670" viewBox="0 0 2052 1670" fill="none" xmlns="http://www.w3.org/2000/svg">
<path d="M1637.3 576.9C1467.3 586.3 1220.5 661.1 922.3 370.9C676.8 132 253.1 269.6 157.5 586.8C56 923.7 305.4 1198.5 485.6 1304.6C707.7 1435.3 1148.2 1453.8 1388.9 1361.2C1630.4 1268.3 1799.5 1102.4 1854.5 973.8C1942 769 1850.8 565 1637.3 576.9Z" fill="url(#paint0_linear_1_2)"/>
<path d="M1870.2 610.9C1823.1 463.9 1636.9 349.8 1370.8 456.8C1104.8 563.8 992.5 499.5 797 376.9C538.1 214.6 202 287.4 143.5 576.8C79.1999 895.2 355.7 1145.6 507.7 1240.4C659.7 1335.2 1168.7 1521.8 1641.6 1182.6C1834 1044.5 1929.1 795.1 1870.2 610.9Z" fill="url(#paint1_linear_1_2)"/>
<path d="M1452.4 1075.5H1121.2C1107.3 1075.5 1096 1064.2 1096 1050.3V657.5C1096 643.6 1107.3 632.3 1121.2 632.3H1452.4C1466.3 632.3 1477.6 643.6 1477.6 657.5V1050.3C1477.6 1064.2 1466.3 1075.5 1452.4 1075.5Z" fill="#FFFAEE"/>
<path fill-rule="evenodd" clip-rule="evenodd" d="M1268.7 940.8C1229.4 954.9 1187 942.2 1161.5 912.2C1155.4 905 1150.3 896.9 1146.4 887.9C1145.53 885.9 1144.73 883.867 1144 881.8C1136.6 861.1 1136.6 839.4 1142.7 819.9C1151.6 791.7 1173 767.9 1203 757.1C1212.9 753.6 1223 751.8 1232.9 751.5C1274 750.2 1313.1 775.3 1327.7 816.1C1345.8 866.9 1319.4 922.7 1268.7 940.8ZM1304.7 824.4C1293.7 793.7 1264.5 774.9 1233.7 775.9C1226.2 776.1 1218.6 777.5 1211.2 780.1C1188.8 788.2 1172.7 806 1166 827.2C1161.5 841.8 1161.4 858 1167 873.6C1167.53 875.133 1168.13 876.667 1168.8 878.2C1171.7 884.9 1175.6 891 1180.1 896.4C1199.3 918.9 1231 928.4 1260.5 917.8C1298.5 904.2 1318.3 862.4 1304.7 824.4Z" fill="#FFE48C"/>
<path d="M1166 827.2L1142.7 819.9C1151.6 791.7 1173 767.9 1203 757.1C1212.9 753.6 1223 751.8 1232.9 751.5L1233.7 775.9C1226.2 776.1 1218.6 777.5 1211.2 780.1C1188.8 788.2 1172.7 806 1166 827.2Z" fill="#E59148"/>
<path d="M1168.8 878.2L1146.4 887.9C1145.53 885.9 1144.73 883.867 1144 881.8C1136.6 861.1 1136.6 839.4 1142.7 819.9L1166 827.2C1161.5 841.8 1161.4 858 1167 873.6C1167.53 875.133 1168.13 876.667 1168.8 878.2Z" fill="#F5C112"/>
<path d="M1161.5 912.2C1155.4 905 1150.3 896.9 1146.4 887.9L1168.8 878.2C1171.7 884.9 1175.6 891 1180.1 896.4L1161.5 912.2Z" fill="#FFCEA3"/>
<path fill-rule="evenodd" clip-rule="evenodd" d="M1431.4 929.4C1424.1 945 1408 953.7 1391.7 952.4C1387.9 952.1 1384 951.2 1380.2 949.7C1379.4 949.367 1378.57 949 1377.7 948.6C1369.5 944.7 1363.2 938.4 1359.2 930.9C1353.6 920.1 1352.9 906.8 1358.5 894.9C1360.4 891 1362.8 887.5 1365.6 884.5C1377.3 872.1 1396 868 1412.2 875.7C1432.4 885.2 1441 909.3 1431.4 929.4ZM1407.9 884.8C1395.8 879.1 1381.7 882.1 1373 891.4C1370.8 893.7 1369 896.3 1367.6 899.2C1363.4 908.2 1363.9 918.1 1368.2 926.2C1371.1 931.8 1375.9 936.6 1382 939.5C1382.67 939.833 1383.3 940.1 1383.9 940.3C1386.7 941.4 1389.6 942.1 1392.5 942.3C1404.7 943.3 1416.8 936.8 1422.3 925.1C1429.5 910 1423 892 1407.9 884.8Z" fill="#FFE5BD"/>
<path d="M1368.2 926.2L1359.2 930.9C1353.6 920.1 1352.9 906.8 1358.5 894.9C1360.4 891 1362.8 887.5 1365.6 884.5L1373 891.4C1370.8 893.7 1369 896.3 1367.6 899.2C1363.4 908.2 1363.9 918.1 1368.2 926.2Z" fill="#E59148"/>
<path d="M1383.9 940.3L1380.2 949.7C1379.4 949.367 1378.57 949 1377.7 948.6C1369.5 944.7 1363.2 938.4 1359.2 930.9L1368.2 926.2C1371.1 931.8 1375.9 936.6 1382 939.5C1382.67 939.833 1383.3 940.1 1383.9 940.3Z" fill="#F1B26B"/>
<path fill-rule="evenodd" clip-rule="evenodd" d="M1377.7 825.8C1362.1 818.4 1353.4 802.3 1354.8 786.1C1355.1 782.2 1356 778.3 1357.4 774.6C1357.73 773.733 1358.1 772.9 1358.5 772.1C1362.4 763.8 1368.7 757.5 1376.2 753.6C1387.1 747.9 1400.3 747.2 1412.2 752.9C1416.2 754.7 1419.6 757.1 1422.7 759.9C1435 771.6 1439.1 790.4 1431.4 806.6C1421.9 826.7 1397.9 835.3 1377.7 825.8ZM1422.3 802.3C1428.1 790.1 1425 776 1415.7 767.3C1413.5 765.2 1410.9 763.4 1407.9 762C1399 757.8 1389.1 758.3 1380.9 762.5C1375.3 765.5 1370.6 770.2 1367.6 776.4C1367.33 777 1367.07 777.6 1366.8 778.2C1365.7 781.1 1365.1 784 1364.8 786.9C1363.8 799.1 1370.3 811.1 1382 816.7C1397.1 823.8 1415.2 817.4 1422.3 802.3Z" fill="#F1CC52"/>
<path d="M1380.9 762.5L1376.2 753.6C1387.1 747.9 1400.3 747.2 1412.2 752.9C1416.2 754.7 1419.6 757.1 1422.7 759.9L1415.7 767.3C1413.5 765.2 1410.9 763.4 1407.9 762C1399 757.8 1389.1 758.3 1380.9 762.5Z" fill="#F1CC52"/>
<path d="M1366.8 778.2L1357.4 774.6C1357.73 773.733 1358.1 772.9 1358.5 772.1C1362.4 763.8 1368.7 757.5 1376.2 753.6L1380.9 762.5C1375.3 765.5 1370.6 770.2 1367.6 776.4C1367.33 777 1367.07 777.6 1366.8 778.2Z" fill="#E59148"/>
<path d="M1354.8 786.1C1355.1 782.2 1356 778.3 1357.4 774.6L1366.8 778.2C1365.7 781.1 1365.1 784 1364.8 786.9L1354.8 786.1Z" fill="#FFEBA9"/>
<path d="M1382.6 979H1307.3V977.5H1381.1V949H1382.6V979Z" fill="#E5F2FD"/>
<path d="M1240.7 979H1142.7V977.5H1239.2V930.9H1240.7V979Z" fill="#E5F2FD"/>
<path d="M1210.2 970.9H1142.7V961.9H1210.2V970.9Z" fill="#F1CC52"/>
<path d="M1346.9 970.9H1307.3V961.9H1346.9V970.9Z" fill="#F1CC52"/>
<path d="M1159.7 677.2H1127.5V670.3H1159.7V677.2Z" fill="#F1CC52"/>
<path d="M1312 703.2H1262V696.3H1312V703.2Z" fill="#F1CC52"/>
<path d="M1227.8 703.2H1197.2V696.3H1227.8V703.2Z" fill="#F1CC52"/>
<path d="M1188 703.2H1127.5V696.3H1188V703.2Z" fill="#F1CC52"/>
<path d="M1217.4 677.2H1169.6V670.3H1217.4V677.2Z" fill="#F1CC52"/>
<path d="M1250.5 703.2H1237.4V696.3H1250.5V703.2Z" fill="#F1CC52"/>
<path d="M1312 677.6H1276.3V670.7H1312V677.6Z" fill="#F1CC52"/>
<path d="M1355.2 703.2H1324.8V696.3H1355.2V703.2Z" fill="#F1CC52"/>
<path d="M1267 677.6H1229.1V670.7H1267V677.6Z" fill="#F1CC52"/>
<path d="M1563.1 612.6H677.6C651.8 612.6 630.8 591.7 630.8 565.9V295.8C630.8 270 651.8 249.1 677.6 249.1H1563.1C1588.9 249.1 1609.8 270 1609.8 295.8V565.9C1609.8 591.7 1588.9 612.6 1563.1 612.6Z" fill="#FFFAEE"/>
<path d="M1526.3 365.5H1406.7V353.5H1526.3V365.5Z" fill="#FEE699"/>
<path d="M1544.2 402.6H1406.7V390.6H1544.2V402.6Z" fill="#FEE699"/>
<path d="M1477.6 439.6H1406.5V427.6H1477.6V439.6Z" fill="#FEE699"/>
<path d="M1516.1 476.5H1406.5V464.5H1516.1V476.5Z" fill="#FEE699"/>
<path d="M1049.2 1049.8H682.1V1037.5H1049.2V1049.8Z" fill="white"/>
<path d="M954.7 992.5H682.1V980.2H954.7V992.5Z" fill="url(#paint2_linear_1_2)"/>
<path d="M976.7 1021.1H682.1V1008.8H976.7V1021.1Z" fill="url(#paint3_linear_1_2)"/>
<path d="M873.2 1049.8H682.1V1037.5H873.2V1049.8Z" fill="url(#paint4_linear_1_2)"/>
<path d="M865.2 592.3H758.6V579.2H865.2V592.3Z" fill="#D4D4D4"/>
<path d="M891.1 568.9H732.7V555.8H891.1V568.9Z" fill="#D4D4D4"/>
<path d="M839.7 375.5C839.7 390.7 827.4 403 812.2 403C796.9 403 784.6 390.7 784.6 375.5C784.6 360.3 796.9 347.9 812.2 347.9C827.4 347.9 839.7 360.3 839.7 375.5Z" fill="url(#paint5_linear_1_2)"/>
<path d="M861.8 465.2V517.6C846.6 524.5 829.7 528.4 811.9 528.4C794.1 528.4 777.2 524.5 762 517.6V465.2C762 437.7 784.3 415.3 811.9 415.3C839.5 415.3 861.8 437.7 861.8 465.2Z" fill="url(#paint6_linear_1_2)"/>
<path d="M1240.7 351.3H984.2V334.7H1240.7V351.3Z" fill="#FF9B29"/>
<path d="M1367.9 351.3H1268.2V334.7H1367.9V351.3Z" fill="#FF9B29"/>
<path d="M1104.7 313.6H984.2V297.1H1104.7V313.6Z" fill="#FF9B29"/>
<path fill-rule="evenodd" clip-rule="evenodd" d="M811.9 531.6C794 531.6 776.8 527.9 760.6 520.6C716.4 500.5 687.9 456.1 687.9 407.6C687.9 339.2 743.5 283.5 811.9 283.5C880.3 283.5 935.9 339.2 935.9 407.6C935.9 456.1 907.4 500.5 863.2 520.6C847 527.9 829.8 531.6 811.9 531.6ZM811.9 290.1C747.1 290.1 694.4 342.8 694.4 407.6C694.4 453.6 721.5 495.6 763.4 514.6C778.6 521.6 795 525.1 811.9 525.1C828.9 525.1 845.2 521.6 860.5 514.6C902.3 495.6 929.4 453.6 929.4 407.6C929.4 342.8 876.7 290.1 811.9 290.1Z" fill="url(#paint7_linear_1_2)"/>
<path d="M1009 541.4H1002.4V382.6H1009V541.4Z" fill="#CEDEFD"/>
<path d="M1039.1 541.4H1032.5V382.6H1039.1V541.4Z" fill="#CEDEFD"/>
<path d="M1069.2 541.4H1062.6V382.6H1069.2V541.4Z" fill="#CEDEFD"/>
<path d="M1099.3 541.4H1092.7V382.6H1099.3V541.4Z" fill="#CEDEFD"/>
<path d="M1129.4 541.4H1122.8V382.6H1129.4V541.4Z" fill="#CEDEFD"/>
<path d="M1159.4 541.4H1152.9V382.6H1159.4V541.4Z" fill="#CEDEFD"/>
<path d="M1189.5 541.4H1183V382.6H1189.5V541.4Z" fill="#CEDEFD"/>
<path d="M1219.6 541.4H1213.1V382.6H1219.6V541.4Z" fill="#CEDEFD"/>
<path d="M1249.7 541.4H1243.2V382.6H1249.7V541.4Z" fill="#CEDEFD"/>
<path d="M1279.8 541.4H1273.3V382.6H1279.8V541.4Z" fill="#CEDEFD"/>
<path d="M1309.9 541.4H1303.3V382.6H1309.9V541.4Z" fill="#CEDEFD"/>
<path d="M1340 541.4H1333.4V382.6H1340V541.4Z" fill="#CEDEFD"/>
<path d="M1009 541.4H1002.4V430.1H1009V541.4Z" fill="#FF9B29"/>
<path d="M1039.1 541.4H1032.5V468.6H1039.1V541.4Z" fill="#FF9B29"/>
<path d="M1069.2 541.4H1062.6V405.5H1069.2V541.4Z" fill="#FF9B29"/>
<path d="M1099.3 541.4H1092.7V501.8H1099.3V541.4Z" fill="#FF9B29"/>
<path d="M1129.4 541.4H1122.8V462H1129.4V541.4Z" fill="#FF9B29"/>
<path d="M1159.4 541.4H1152.9V432.3H1159.4V541.4Z" fill="#FF9B29"/>
<path d="M1189.5 541.4H1183V471H1189.5V541.4Z" fill="#FF9B29"/>
<path d="M1219.6 541.4H1213.1V422.2H1219.6V541.4Z" fill="#FF9B29"/>
<path d="M1249.7 541.4H1243.2V475.9H1249.7V541.4Z" fill="#FF9B29"/>
<path d="M1279.8 541.4H1273.3V436.6H1279.8V541.4Z" fill="#FF9B29"/>
<path d="M1309.9 541.4H1303.3V489H1309.9V541.4Z" fill="#FF9B29"/>
<path d="M1340 541.4H1333.4V436.6H1340V541.4Z" fill="#FF9B29"/>
<path d="M1038.1 1195.6H492.2C473 1195.6 457.5 1180.1 457.5 1161V666.9C457.5 647.8 473 632.3 492.2 632.3H1038.1C1057.2 632.3 1072.7 647.8 1072.7 667V1161C1072.7 1180.1 1057.2 1195.6 1038.1 1195.6Z" fill="#FFFAEE"/>
<path fill-rule="evenodd" clip-rule="evenodd" d="M574.9 855.3C538.7 842.3 516.4 807.7 517.5 771.2C517.8 762.4 519.4 753.4 522.6 744.6C532.1 718.1 553.2 699 578.2 691.2C595.6 685.7 614.8 685.7 633.2 692.3C635 692.967 636.8 693.667 638.6 694.4C646.6 697.9 653.8 702.4 660.1 707.8C686.7 730.5 698 768.1 685.5 802.9C669.4 847.9 619.9 871.4 574.9 855.3ZM665.1 795.6C674.5 769.5 666 741.3 646.1 724.4C641.3 720.3 635.9 716.9 629.9 714.3C628.633 713.7 627.3 713.167 625.9 712.7C612.1 707.8 597.7 707.8 584.7 711.9C566 717.7 550.1 732 543 751.9C540.6 758.5 539.4 765.2 539.2 771.8C538.3 799.2 555 825.2 582.2 834.9C615.9 846.9 653.1 829.4 665.1 795.6Z" fill="#FCE390"/>
<path d="M584.7 711.9L578.2 691.2C553.2 699 532.1 718.1 522.6 744.6C519.4 753.4 517.8 762.4 517.5 771.2L539.2 771.8C539.4 765.2 540.6 758.5 543 751.9C550.1 732 566 717.7 584.7 711.9Z" fill="#FF9B29"/>
<path d="M629.9 714.3L638.6 694.4C636.8 693.667 635 692.967 633.2 692.3C614.8 685.7 595.6 685.7 578.2 691.2L584.7 711.9C597.7 707.8 612.1 707.8 625.9 712.7C627.3 713.167 628.633 713.7 629.9 714.3Z" fill="#FFB62F"/>
<path d="M660.1 707.8C653.8 702.4 646.6 697.9 638.6 694.4L629.9 714.3C635.9 716.9 641.3 720.3 646.1 724.4L660.1 707.8Z" fill="#FFBD71"/>
<path d="M961 978.6H930.9V1081.5H961V978.6Z" fill="#F1CC52"/>
<path d="M916.3 1007.5H886.3V1081.5H916.3V1007.5Z" fill="#F1CC52"/>
<path d="M1004.3 930.9H974.2V1081.5H1004.3V930.9Z" fill="#F1CC52"/>
<path d="M902.6 718.6H988C993.4 718.6 997.7 714.3 997.7 708.9C997.7 703.5 993.4 699.1 988 699.1H902.6C897.2 699.1 892.8 703.5 892.8 708.9C892.8 714.3 897.2 718.6 902.6 718.6Z" fill="#E59148"/>
<path d="M902.6 752.7H988C993.4 752.7 997.7 748.3 997.7 742.9C997.7 737.6 993.4 733.2 988 733.2H902.6C897.2 733.2 892.8 737.6 892.8 742.9C892.8 748.3 897.2 752.7 902.6 752.7Z" fill="#F1CC52"/>
<path d="M902.6 786.8H988C993.4 786.8 997.7 782.4 997.7 777C997.7 771.6 993.4 767.2 988 767.2H902.6C897.2 767.2 892.8 771.6 892.8 777C892.8 782.4 897.2 786.8 902.6 786.8Z" fill="#F1CC52"/>
<path d="M748 735.5H699.1V733.7H747.2L772.9 707.9H804.4V709.8H773.7L748 735.5Z" fill="#FFE48C"/>
<path d="M794.3 820.9H731.4L711 800.5L712.4 799.2L732.2 819H794.3V820.9Z" fill="#FFE48C"/>
<path d="M842.7 728.3H777.6V720.3H842.7V728.3Z" fill="#FFB62F"/>
<path d="M810.1 809.9H757.7V801.9H810.1V809.9Z" fill="#FFB62F"/>
<path d="M720.3 1111.1H617V1117.2H720.3V1111.1Z" fill="#DCD0C8"/>
<path d="M630.8 1412.1H639.9V1133.2H630.8V1412.1Z" fill="#6D6865"/>
<path d="M775.9 1109.3H704.1V1118.1H775.9V1109.3Z" fill="#C6BBB5"/>
<path d="M753.6 1117.2H726.4V1034.6H753.6V1117.2Z" fill="#948C87"/>
<path d="M977.8 1133.2H579.9V1117.3H977.8V1133.2Z" fill="#A98E75"/>
<path d="M503.5 1021.3C503.5 1021.3 499.2 1082.3 511.1 1089.7C518.6 1094.2 548.4 1109.7 547.5 1112.5C546.6 1115.4 530.7 1138.3 530.7 1138.3C530.7 1138.3 473.5 1100.6 471.6 1088.8C469.8 1077.2 474.4 999.4 482.3 995.8C488.2 993.1 491.3 995.4 498.7 1000.9C509.1 1008.6 503.5 1021.3 503.5 1021.3Z" fill="#090CC0"/>
<path d="M573.9 1374C573.9 1374 572.2 1386.3 571.9 1388.2C571.7 1390 552.1 1387.1 552.1 1387.1L550.6 1372.4C550.6 1372.4 571.5 1372.2 573.9 1374Z" fill="#454971"/>
<path d="M572.1 1386.6C572.1 1386.6 578.3 1394.1 584.3 1397.3C590.3 1400.5 599.8 1401.8 603.3 1405.2C605.9 1407.6 612.6 1418 587.7 1417.8C562.8 1417.6 550.8 1419.3 548.1 1415.3C545.5 1411.3 552 1385.8 552 1385.8C552 1385.8 557.9 1387.9 572.1 1386.6Z" fill="#2E3048"/>
<path d="M699.3 1374.1C699.3 1374.1 697.5 1386.4 697.3 1388.3C697.1 1390.2 677.5 1387.2 677.5 1387.2L675.9 1372.5C675.9 1372.5 696.8 1372.4 699.3 1374.1Z" fill="#454971"/>
<path d="M697.5 1386.7C697.5 1386.7 703.7 1394.2 709.7 1397.4C715.7 1400.7 737.8 1403.3 741.3 1406.7C743.9 1409.1 748.1 1418.9 713.1 1417.9C688.2 1417.3 676.2 1419.4 673.5 1415.4C670.8 1411.4 677.4 1385.9 677.4 1385.9C677.4 1385.9 682.9 1388.2 697.5 1386.7Z" fill="#2E3048"/>
<path d="M510.8 1160.7C510.8 1160.7 582 1172.7 598 1175.2C614.1 1177.8 701.2 1199.5 712.1 1206.1C720.8 1211.3 707.6 1337.6 704.5 1385.8H670.2L667.7 1241.3C626.5 1242.3 597.1 1231.6 567.1 1236.2C537.1 1240.7 512.1 1247.2 493.1 1221.6C493.1 1221.6 492.4 1166.3 510.8 1160.7Z" fill="#2E3048"/>
<path d="M580.9 1385.9L547.5 1383.8L544.2 1241.3C526.5 1241.7 520.4 1240.6 506.1 1238.8L479.1 1176.1C502.8 1180.8 578.6 1199.9 588.7 1206.1C597.3 1211.3 584 1337.7 580.9 1385.9Z" fill="#2E3048"/>
<path d="M543.6 894C543.6 894 569.6 886.8 579.6 907.1C589.5 927.3 585 965.7 571.9 969.3C558.7 972.9 539.8 968.8 534.4 956.2C528.9 943.6 524.6 925.7 525.9 914.1C527.2 902.5 536.6 896.8 543.6 894Z" fill="#DBA585"/>
<path d="M565.1 965.3C565.1 965.3 564.8 980.7 566.5 983.9C568.2 987.2 530.2 986.4 530.2 986.4C530.2 986.4 536.2 967.9 532.8 952.2C529.4 936.6 565.1 965.3 565.1 965.3Z" fill="#DBA585"/>
<path d="M530.7 946.3C530.7 946.3 532.8 950.5 542.6 949.8C552.4 949.1 565.4 937.3 569.6 936.2C573.8 935.1 574 932.8 574 932.8L576.2 936.7L580.5 937.3C580.5 937.3 577.6 925.4 583.9 921.3C590.3 917.1 581.1 883.3 549 891.5C549 891.5 524.5 896 524.2 909.6C523.8 923.3 526 939.1 530.7 946.3Z" fill="#3E4148"/>
<path d="M568.5 983.5C568.5 983.5 568.4 977.3 565.5 976.7C562.7 976.1 535.7 972.4 532.2 973.7L530.7 982C530.7 982 537.4 986.1 568.5 983.5Z" fill="#DCD0C8"/>
<path d="M576.3 930C575.6 924.8 569.7 918.9 566.4 926.9C563 934.9 568.6 946.6 572.4 946C576.2 945.3 577.3 936.9 576.3 930Z" fill="#DBA585"/>
<path d="M681.7 1057.6C681.9 1057.73 681.9 1057.73 681.7 1057.6Z" fill="#363957"/>
<path d="M536 897.7C536 897.7 504.2 896.2 530.4 945.8L536 897.7Z" fill="#3E4148"/>
<path d="M465.1 1402.8L467.5 1409.5L567.4 1378.5L562.6 1365L465.1 1402.8Z" fill="#8C8581"/>
<path d="M570.8 1373.8H559.5V1265.1H570.8V1373.8Z" fill="#8C8581"/>
<path d="M598.7 1265.7H531.7V1259.3H598.7V1265.7Z" fill="#5D5955"/>
<path d="M666.1 1402.8L663.7 1409.5L563.8 1378.5L568.2 1364.2L666.1 1402.8Z" fill="#8C8581"/>
<path d="M595.7 1408.7V1416.5L563.8 1378.5L568.2 1364.2L595.7 1408.7Z" fill="#8C8581"/>
<path d="M675.4 1412.1C675.4 1417.2 671.3 1421.4 666.1 1421.4C660.9 1421.4 656.8 1417.2 656.8 1412.1C656.8 1406.9 660.9 1402.7 666.1 1402.7C671.3 1402.7 675.4 1406.9 675.4 1412.1Z" fill="#B9AFAA"/>
<path d="M596.5 1412.1C596.5 1417.2 592.3 1421.4 587.1 1421.4C582 1421.4 577.8 1417.2 577.8 1412.1C577.8 1406.9 582 1402.7 587.1 1402.7C592.3 1402.7 596.5 1406.9 596.5 1412.1Z" fill="#B9AFAA"/>
<path d="M474.5 1412.1C474.5 1417.2 470.3 1421.4 465.1 1421.4C460 1421.4 455.8 1417.2 455.8 1412.1C455.8 1406.9 460 1402.7 465.1 1402.7C470.3 1402.7 474.5 1406.9 474.5 1412.1Z" fill="#B9AFAA"/>
<path d="M633.9 1259.3H497.3C491.2 1259.3 486.2 1254.4 486.2 1248.3V1246.1C486.2 1240 491.2 1235.1 497.3 1235.1H633.9C640 1235.1 645 1240 645 1246.1V1248.3C645 1254.4 640 1259.3 633.9 1259.3Z" fill="#DCD0C8"/>
<path d="M926.9 1412.1H917.8V1133.2H926.9V1412.1Z" fill="#6D6865"/>
<path d="M846.4 1074.4H633.7C627.6 1074.4 622.6 1069.4 622.6 1063.3V919.8C622.6 913.7 627.6 908.7 633.7 908.7H846.4C852.5 908.7 857.4 913.7 857.4 919.8V1063.3C857.4 1069.4 852.5 1074.4 846.4 1074.4Z" fill="#B2A8A3"/>
<path d="M848.2 1048.4H631.8V917.7H848.2V1048.4Z" fill="#F4F6FF"/>
<path d="M838.6 1060.8C838.6 1064.5 834.7 1067.5 829.9 1067.5C825.1 1067.5 821.2 1064.5 821.2 1060.8C821.2 1057 825.1 1054 829.9 1054C834.7 1054 838.6 1057 838.6 1060.8Z" fill="#8C8480"/>
<path d="M788.6 1117.5V1114.6C788.6 1114.6 784.5 1096.2 755.2 1096.2C725.9 1096.2 726.4 1117.5 726.4 1117.5H788.6Z" fill="#948C87"/>
<path d="M726.1 1099C726.1 1099 732.5 1098.5 734.8 1097.1C737.1 1095.6 751.1 1086.3 754.4 1087.8C757.6 1089.3 779.5 1095.9 778.7 1099.1C777.9 1102.3 775.9 1102 774.4 1101.5C772.9 1100.9 757 1097.6 755.6 1098.1C755.6 1098.1 771.2 1103.8 771.2 1107.9C771.3 1112.1 768 1113.1 766.5 1114.7C765 1116.2 763.3 1120.1 759.2 1120.4C755.2 1120.7 735.7 1113.9 731.6 1113.6C727.6 1113.3 720.1 1113.8 719.6 1113.2C719.1 1112.5 726.1 1099 726.1 1099Z" fill="#DBA585"/>
<path d="M610.2 992.2C589.9 988.7 568.5 983.5 568.5 983.5L530.7 982C530.7 982 496 989.6 482.3 995.8C481 996.4 481 1026.8 477.4 1034.7L488.8 1058.7C488.8 1058.7 495.3 1106 496.7 1127.1C497.3 1136.7 494.9 1220.5 494.9 1220.5C494.9 1220.5 498.3 1222.2 524.1 1225C549.9 1227.9 614.4 1224 614.8 1221C615.2 1217.9 602.3 1107.5 601.7 1101.7C600.9 1093 604.3 1052.4 604.3 1052.4C609.2 1058.9 621.5 1088.4 634.5 1102.4C642.1 1110.7 679.7 1115.8 686.8 1116C702.2 1116.5 730.4 1119.6 731.2 1118.1C731.9 1117.2 733.7 1093.1 731.9 1092.5C730.4 1092 678.1 1089 664.7 1081.9C659.8 1079.3 645.1 1047.3 645.1 1047.3C645.1 1047.3 621.4 997.3 610.2 992.2Z" fill="#090CC0"/>
<path d="M537.4 1218.1H470.4C458.7 1218.1 449.2 1208.6 449.2 1196.8V1087.8C449.2 1076 458.7 1066.5 470.4 1066.5H537.4C549.1 1066.5 558.6 1076 558.6 1087.8V1196.8C558.6 1208.6 549.1 1218.1 537.4 1218.1Z" fill="#DCD0C8"/>
<path d="M539.2 1253.3C523.1 1253.3 510 1247.9 500.3 1237.2C478.4 1213 482.4 1170.6 482.6 1168.8C482.9 1165.4 485.9 1163 489.2 1163.3C492.6 1163.6 495 1166.6 494.7 1170C494.6 1170.4 491.1 1208.9 509.4 1229C516.7 1237.2 526.5 1241.1 539.2 1241.1C542.6 1241.1 545.3 1243.8 545.3 1247.2C545.3 1250.6 542.6 1253.3 539.2 1253.3Z" fill="#DCD0C8"/>
<path d="M709 935H648.7C647.9 935 647.1 934.3 647.1 933.4V929.7C647.1 928.8 647.9 928.1 648.7 928.1H709C709.8 928.1 710.5 928.8 710.5 929.7V933.4C710.5 934.3 709.8 935 709 935Z" fill="#DEDFE6"/>
<path d="M709 949.8H648.7C647.9 949.8 647.1 949.1 647.1 948.3V944.5C647.1 943.6 647.9 942.9 648.7 942.9H709C709.8 942.9 710.5 943.6 710.5 944.5V948.3C710.5 949.1 709.8 949.8 709 949.8Z" fill="#DEDFE6"/>
<path d="M705.2 1038H652.5C649.5 1038 647.1 1035.6 647.1 1032.7V965.2C647.1 962.3 649.5 959.9 652.5 959.9H705.2C708.2 959.9 710.5 962.3 710.5 965.2V1032.7C710.5 1035.6 708.2 1038 705.2 1038Z" fill="#DEDFE6"/>
<path d="M827.8 1038H731.8C727.1 1038 723.3 1034.2 723.3 1029.6V936.5C723.3 931.9 727.1 928.1 731.8 928.1H827.8C832.5 928.1 836.2 931.9 836.2 936.5V1029.6C836.2 1034.2 832.5 1038 827.8 1038Z" fill="#DEDFE6"/>
<path d="M1558.8 912.1L1496.8 946.1L1434.5 848.1L1509.8 822L1558.8 912.1Z" fill="#2E3048"/>
<path d="M1554.9 909.1L1496.9 941L1438.6 849.3L1509.1 824.9L1554.9 909.1Z" fill="#DCD0C8"/>
<path d="M1576.1 892C1576.1 892 1565.3 886.8 1560.6 884.1C1555.8 881.4 1543.6 877.7 1542.7 876.8C1541.7 876 1506.5 873.8 1504.4 871.9C1502.3 870.1 1500.2 876.3 1509.3 878.2C1518.4 880.2 1531.1 885.1 1531.8 888.7C1532.5 892.2 1522.4 893.1 1521.4 896C1520.4 899 1521.7 898.3 1523.1 898.9C1524.6 899.6 1535.1 893.7 1539.7 895.4C1544.3 897 1551.4 894.7 1554.9 896C1558.5 897.2 1575.7 903 1575.7 903L1576.1 892Z" fill="#DBA585"/>
<path d="M1493.8 933.9C1493.8 933.9 1484.7 925.7 1480.3 922.3C1475.9 918.9 1467.7 908.8 1466.5 908.2C1465.3 907.6 1449.5 875.4 1447 874.1C1444.4 872.8 1449.4 868.4 1454.8 876.2C1460.2 884.1 1469.8 894.1 1473.4 893.4C1477 892.6 1473.9 882.8 1476.3 880.7C1478.6 878.6 1478.5 880.1 1479.7 881.2C1480.8 882.3 1479.4 894.5 1482.8 898.2C1486.2 901.9 1486.8 909.5 1489.3 912.4C1491.8 915.2 1504 929.2 1504 929.2L1493.8 933.9Z" fill="#DBA585"/>
<path d="M1689 1370.1C1689 1370.1 1691 1383.7 1691.2 1385.7C1691.5 1387.8 1713.1 1384.5 1713.1 1384.5L1714.8 1368.3C1714.8 1368.3 1691.7 1368.1 1689 1370.1Z" fill="#454971"/>
<path d="M1691 1384C1691 1384 1684.2 1392.2 1677.6 1395.8C1671 1399.3 1660.6 1400.8 1656.7 1404.5C1653.8 1407.1 1646.4 1418.6 1673.8 1418.4C1701.3 1418.2 1714.5 1420 1717.5 1415.6C1720.4 1411.2 1713.2 1383.1 1713.2 1383.1C1713.2 1383.1 1706.7 1385.4 1691 1384Z" fill="#2E3048"/>
<path d="M1534.5 1370.1C1534.5 1370.1 1536.4 1383.7 1536.7 1385.7C1536.9 1387.8 1558.5 1384.5 1558.5 1384.5L1560.2 1368.3C1560.2 1368.3 1537.2 1368.1 1534.5 1370.1Z" fill="#454971"/>
<path d="M1536.4 1384C1536.4 1384 1529.6 1392.2 1523 1395.8C1516.4 1399.3 1492 1402.3 1488.1 1406C1485.3 1408.7 1480.6 1419.4 1519.3 1418.4C1546.7 1417.7 1560 1420 1562.9 1415.6C1565.8 1411.2 1558.6 1383.1 1558.6 1383.1C1558.6 1383.1 1552.5 1385.6 1536.4 1384Z" fill="#2E3048"/>
<path d="M1671.2 1020.2C1671.2 1020.2 1691.4 1052.4 1689.9 1081.5C1688.4 1110.7 1697.3 1142.4 1700.3 1172.9C1703.7 1206.8 1717.6 1287 1718.1 1305.2C1718.6 1323.3 1716 1381.2 1716 1381.2L1688.2 1381.9C1688.2 1381.9 1664.8 1241.5 1658.7 1227.2C1652.7 1212.9 1622.7 1110.8 1621.7 1099.4C1620.7 1087.9 1671.2 1020.2 1671.2 1020.2Z" fill="#2E3048"/>
<path d="M1564.5 1024.6C1564.5 1024.6 1549.2 1104.4 1547.2 1122.2C1545.1 1140 1543.8 1208.4 1542.8 1219.6C1541.8 1230.7 1536.1 1365.3 1530.7 1381.9H1566.2C1566.3 1381.9 1593.5 1284 1593.5 1237.7C1593.5 1191.4 1614.6 1137.1 1628.2 1106.5C1641.9 1076 1673 1075.2 1681.4 1018.6C1681.4 1018.6 1575.8 1006.6 1564.5 1024.6Z" fill="#2E3048"/>
<path d="M1637.3 749.4C1637.3 749.4 1610.1 739.3 1597.6 760C1585 780.7 1586.3 822.2 1600 827.3C1613.7 832.4 1634.3 829.7 1641.3 816.7C1648.3 803.8 1654.7 785 1654.4 772.5C1654.1 760 1644.5 753 1637.3 749.4Z" fill="#DBA585"/>
<path d="M1602.9 828.2C1602.9 828.2 1604.1 835.6 1602.2 839.2C1600.3 842.8 1637.4 842.9 1637.4 842.9C1637.4 842.9 1640.5 823.2 1646.2 806.6C1651.9 789.9 1602.9 828.2 1602.9 828.2Z" fill="#DBA585"/>
<path d="M1646.2 806.6C1646.2 806.6 1643.6 810.8 1633.1 809.2C1622.7 807.5 1609.9 793.6 1605.6 792.1C1601.2 790.5 1601.1 788 1601.1 788L1598.4 792L1593.8 792.3C1593.8 792.3 1598 779.8 1591.6 774.7C1585.2 769.7 1598.3 734.5 1631.8 746.2C1631.8 746.2 1657.5 753.3 1656.6 767.9C1655.7 782.6 1651.9 799.3 1646.2 806.6Z" fill="#3E4148"/>
<path d="M1600 838.7C1600 838.7 1600.1 831.8 1603.2 831.2C1606.4 830.5 1637.8 827.5 1641.7 829V837C1641.7 837 1634.3 841.6 1600 838.7Z" fill="#DCD0C8"/>
<path d="M1601.8 782.7C1602.4 780.2 1608.7 773.2 1611.1 780.7C1613.5 788.2 1607.5 798.3 1604.1 797.5C1600.8 796.6 1600.4 788.9 1601.8 782.7Z" fill="#DBA585"/>
<path d="M1475.1 920.4C1475.1 920.4 1475.13 920.4 1475.2 920.4C1474.93 920.533 1474.9 920.533 1475.1 920.4Z" fill="#363957"/>
<path d="M1694 1096.9C1694 1096.9 1677.4 1101.9 1648.9 1105C1620.4 1108.1 1549.3 1103.9 1548.9 1100.5C1548.4 1097.1 1564.2 975.3 1563.3 969C1562.4 962.8 1561.9 940.4 1561.9 940.4C1561.6 946.5 1555.3 971.6 1547.8 985.2C1545.1 990.1 1535.9 1005.6 1531.5 1002.1C1510.2 985.1 1477.3 921 1475.2 920.4C1476.9 919.7 1490.8 913.3 1492.8 912.6C1494.5 912.1 1509.8 928.3 1519.1 938.4C1523.3 942.9 1526.2 946.2 1526.2 946.2C1528.9 940.1 1538.7 902 1541.8 888.8C1548.6 859.1 1547.6 857.8 1547.6 857.8C1568.4 851.6 1600 838.7 1600 838.7L1641.7 837C1641.7 837 1679.9 845.5 1695 852.3C1696.4 852.9 1696.4 886.4 1700.4 895.2L1687.9 921.5C1687.9 921.5 1680.7 973.8 1679.2 997C1678.5 1007.6 1694 1096.9 1694 1096.9Z" fill="white"/>
<path d="M1702.1 938.7C1701 942.2 1696.1 945.2 1692.9 946.5C1690.8 947.3 1688.5 947.6 1686.2 947.1L1684.5 946.8L1656 941.5C1656 941.5 1649.7 869.5 1695 852.3C1696.2 852.7 1712.1 906.4 1702.1 938.7Z" fill="white"/>
<path d="M1692.9 946.5C1690.8 947.3 1688.5 947.6 1686.2 947.1L1684.5 946.8L1687.4 910L1692.9 946.5Z" fill="#0F0F0F"/>
<path d="M1526.2 946.2L1522.7 961C1522.7 961 1519 946.1 1519.1 938.4C1523.3 942.9 1526.2 946.2 1526.2 946.2Z" fill="#0F0F0F"/>
<path d="M1645.1 751.9C1645.1 751.9 1680.8 747.4 1645.7 807L1645.1 751.9Z" fill="#3E4148"/>
<path d="M1463.2 842.9L1459.5 836.7L1488.1 826.8L1491.7 833L1463.2 842.9Z" fill="#2E3048"/>
<defs>
<linearGradient id="paint0_linear_1_2" x1="48683.8" y1="479798" x2="3.24225e+06" y2="2.32361e+06" gradientUnits="userSpaceOnUse">
<stop stop-color="#FFE48C"/>
<stop offset="1" stop-color="#FF9B29"/>
</linearGradient>
<linearGradient id="paint1_linear_1_2" x1="-198307" y1="579055" x2="2.29078e+06" y2="3.06814e+06" gradientUnits="userSpaceOnUse">
<stop stop-color="#FF9B29"/>
<stop offset="1" stop-color="#FFB45F"/>
</linearGradient>
<linearGradient id="paint2_linear_1_2" x1="-356351" y1="-22149.1" x2="-499201" y2="-22149.1" gradientUnits="userSpaceOnUse">
<stop stop-color="#EEBE63"/>
<stop offset="1" stop-color="#DC3B57"/>
</linearGradient>
<linearGradient id="paint3_linear_1_2" x1="-356348" y1="-21014.1" x2="-510726" y2="-21014.1" gradientUnits="userSpaceOnUse">
<stop stop-color="#EEBE63"/>
<stop offset="1" stop-color="#DC3B57"/>
</linearGradient>
<linearGradient id="paint4_linear_1_2" x1="-356354" y1="-33875.7" x2="-456496" y2="-33875.7" gradientUnits="userSpaceOnUse">
<stop stop-color="#EEBE63"/>
<stop offset="1" stop-color="#DC3B57"/>
</linearGradient>
<linearGradient id="paint5_linear_1_2" x1="-101701" y1="231543" x2="-101701" y2="247783" gradientUnits="userSpaceOnUse">
<stop stop-color="#FFB62F"/>
<stop offset="1" stop-color="#6076FA"/>
</linearGradient>
<linearGradient id="paint6_linear_1_2" x1="-107215" y1="224884" x2="-107215" y2="254298" gradientUnits="userSpaceOnUse">
<stop stop-color="#FFB62F"/>
<stop offset="1" stop-color="#FF9B29"/>
</linearGradient>
<linearGradient id="paint7_linear_1_2" x1="-72233.7" y1="177863" x2="-72233.7" y2="241869" gradientUnits="userSpaceOnUse">
<stop stop-color="#FF9B29"/>
<stop offset="1" stop-color="white"/>
</linearGradient>
</defs>
</svg>
