<svg width="508" height="100" viewBox="0 0 508 100" fill="none" xmlns="http://www.w3.org/2000/svg">
<path d="M56.9053 66.1123V76H28.4873V66.1123H56.9053ZM33.0649 22.6797V76H20.2109V22.6797H33.0649ZM53.2432 43.8467V53.4048H28.4873V43.8467H53.2432ZM57.0151 22.6797V32.604H28.4873V22.6797H57.0151ZM62.1787 22.6797H83.1626C87.2642 22.6797 90.8286 23.29 93.856 24.5107C96.8833 25.7314 99.2148 27.5381 100.851 29.9307C102.511 32.3232 103.341 35.2773 103.341 38.793C103.341 41.8447 102.865 44.396 101.913 46.4468C100.96 48.4976 99.6299 50.1943 97.9209 51.5371C96.2363 52.8555 94.271 53.9419 92.0249 54.7964L87.8135 57.1768H70.1987L70.1255 47.2524H83.1626C84.7983 47.2524 86.1533 46.9595 87.2275 46.3735C88.3018 45.7876 89.1074 44.9575 89.6445 43.8833C90.2061 42.7847 90.4868 41.4785 90.4868 39.9648C90.4868 38.4268 90.2061 37.1084 89.6445 36.0098C89.083 34.9111 88.2529 34.0688 87.1543 33.4829C86.0801 32.897 84.7495 32.604 83.1626 32.604H75.0327V76H62.1787V22.6797ZM91.3657 76L79.5737 52.416L93.1968 52.3428L105.135 75.4507V76H91.3657ZM132.381 57.9092H119.125V47.9849H132.381C134.188 47.9849 135.653 47.6797 136.776 47.0693C137.899 46.459 138.717 45.6167 139.229 44.5425C139.767 43.4438 140.035 42.2109 140.035 40.8438C140.035 39.3789 139.767 38.0239 139.229 36.7788C138.717 35.5337 137.899 34.5327 136.776 33.7759C135.653 32.9946 134.188 32.604 132.381 32.604H123.958V76H111.104V22.6797H132.381C136.654 22.6797 140.328 23.4609 143.404 25.0234C146.505 26.5859 148.885 28.7344 150.545 31.4688C152.206 34.1787 153.036 37.2793 153.036 40.7705C153.036 44.2129 152.206 47.2158 150.545 49.7793C148.885 52.3428 146.505 54.3447 143.404 55.7852C140.328 57.2012 136.654 57.9092 132.381 57.9092Z" fill="black"/>
<path d="M191.488 22.6797V76H178.634V22.6797H191.488ZM223.312 22.6797L202.657 49.7061L190.572 62.9263L188.229 51.1343L195.956 39.4155L207.455 22.6797H223.312ZM208.114 76L194.344 51.9766L204.342 44.6157L223.312 76H208.114ZM239.059 36.376V76H226.681V36.376H239.059ZM225.948 26.1587C225.948 24.4009 226.583 22.9604 227.853 21.8374C229.122 20.7144 230.77 20.1528 232.796 20.1528C234.823 20.1528 236.471 20.7144 237.74 21.8374C239.01 22.9604 239.645 24.4009 239.645 26.1587C239.645 27.9165 239.01 29.3569 237.74 30.48C236.471 31.603 234.823 32.1646 232.796 32.1646C230.77 32.1646 229.122 31.603 227.853 30.48C226.583 29.3569 225.948 27.9165 225.948 26.1587ZM263.412 67.2109C264.559 67.2109 265.536 67.0034 266.341 66.5884C267.171 66.1489 267.794 65.5386 268.209 64.7573C268.648 63.9517 268.856 62.9873 268.832 61.8643H280.44C280.465 64.8428 279.732 67.4551 278.243 69.7012C276.778 71.9229 274.776 73.6562 272.237 74.9014C269.723 76.1221 266.878 76.7324 263.705 76.7324C260.604 76.7324 257.894 76.2319 255.575 75.231C253.255 74.2056 251.314 72.7896 249.752 70.9829C248.214 69.1519 247.054 67.0156 246.273 64.5742C245.516 62.1328 245.138 59.4839 245.138 56.6274V55.7852C245.138 52.9287 245.516 50.2798 246.273 47.8384C247.054 45.3726 248.214 43.2363 249.752 41.4297C251.314 39.5986 253.243 38.1826 255.538 37.1816C257.857 36.1562 260.555 35.6436 263.631 35.6436C266.927 35.6436 269.833 36.2661 272.347 37.5112C274.886 38.7563 276.876 40.563 278.316 42.9312C279.757 45.2993 280.465 48.168 280.44 51.5371H268.832C268.856 50.3408 268.673 49.2666 268.282 48.3145C267.892 47.3623 267.281 46.6055 266.451 46.0439C265.646 45.458 264.608 45.165 263.338 45.165C262.069 45.165 261.043 45.4458 260.262 46.0073C259.481 46.5688 258.883 47.3501 258.468 48.3511C258.077 49.3276 257.809 50.4507 257.662 51.7202C257.54 52.9897 257.479 54.3447 257.479 55.7852V56.6274C257.479 58.0923 257.54 59.4717 257.662 60.7656C257.809 62.0352 258.089 63.1582 258.504 64.1348C258.919 65.0869 259.518 65.8438 260.299 66.4053C261.08 66.9424 262.118 67.2109 263.412 67.2109ZM298.165 19.7134V76H285.824V19.7134H298.165ZM323.507 36.376L306.295 56.5542L297.286 65.563L291.903 57.7261L299.41 47.9482L308.712 36.376H323.507ZM310.287 76L299.703 57.9458L308.822 51.4639L324.422 76H310.287ZM354.781 61.8276C354.781 60.9976 354.659 60.2529 354.415 59.5938C354.171 58.9102 353.719 58.2754 353.06 57.6895C352.401 57.1035 351.449 56.5176 350.204 55.9316C348.983 55.3213 347.372 54.6865 345.37 54.0273C343.026 53.2461 340.768 52.3672 338.595 51.3906C336.422 50.3896 334.481 49.23 332.772 47.9116C331.063 46.5688 329.708 45.0063 328.707 43.2241C327.706 41.4175 327.206 39.3179 327.206 36.9253C327.206 34.6304 327.718 32.5674 328.744 30.7363C329.769 28.8809 331.197 27.3062 333.028 26.0122C334.884 24.6938 337.057 23.6929 339.547 23.0093C342.037 22.3013 344.759 21.9473 347.713 21.9473C351.62 21.9473 355.062 22.6309 358.041 23.998C361.043 25.3408 363.387 27.2573 365.072 29.7476C366.781 32.2134 367.635 35.1309 367.635 38.5H354.854C354.854 37.1572 354.574 35.9731 354.012 34.9478C353.475 33.9224 352.657 33.1167 351.559 32.5308C350.46 31.9448 349.081 31.6519 347.42 31.6519C345.809 31.6519 344.454 31.896 343.355 32.3843C342.257 32.8726 341.427 33.5317 340.865 34.3618C340.304 35.1675 340.023 36.0586 340.023 37.0352C340.023 37.8408 340.243 38.5732 340.682 39.2324C341.146 39.8672 341.793 40.4653 342.623 41.0269C343.478 41.5884 344.503 42.1255 345.699 42.6382C346.92 43.1509 348.287 43.6514 349.801 44.1396C352.633 45.043 355.147 46.0562 357.345 47.1792C359.566 48.2778 361.434 49.5352 362.948 50.9512C364.486 52.3428 365.646 53.9297 366.427 55.7119C367.232 57.4941 367.635 59.5083 367.635 61.7544C367.635 64.147 367.171 66.271 366.244 68.1265C365.316 69.9819 363.985 71.5566 362.252 72.8506C360.519 74.1201 358.443 75.0845 356.026 75.7437C353.609 76.4028 350.912 76.7324 347.933 76.7324C345.199 76.7324 342.501 76.3906 339.84 75.707C337.203 74.999 334.811 73.9248 332.662 72.4844C330.514 71.0195 328.792 69.1519 327.499 66.8813C326.229 64.5864 325.594 61.8643 325.594 58.7148H338.485C338.485 60.2773 338.692 61.5957 339.107 62.6699C339.522 63.7441 340.133 64.6108 340.938 65.27C341.744 65.9048 342.733 66.3687 343.905 66.6616C345.077 66.9302 346.419 67.0645 347.933 67.0645C349.569 67.0645 350.887 66.8325 351.888 66.3687C352.889 65.8804 353.622 65.2456 354.085 64.4644C354.549 63.6587 354.781 62.7798 354.781 61.8276ZM394.552 36.376V44.9453H370.675V36.376H394.552ZM375.692 26.5249H388.033V63.0728C388.033 64.1226 388.155 64.9404 388.399 65.5264C388.644 66.0879 389.059 66.4907 389.645 66.7349C390.255 66.9546 391.061 67.0645 392.062 67.0645C392.77 67.0645 393.355 67.0522 393.819 67.0278C394.283 66.979 394.723 66.918 395.138 66.8447V75.6704C394.088 76.0122 392.989 76.2686 391.842 76.4395C390.694 76.6348 389.474 76.7324 388.18 76.7324C385.543 76.7324 383.285 76.3174 381.405 75.4873C379.549 74.6572 378.133 73.3511 377.157 71.5688C376.18 69.7866 375.692 67.4673 375.692 64.6108V26.5249ZM420.04 66.0391V49.7061C420.04 48.583 419.881 47.6187 419.564 46.813C419.247 46.0073 418.746 45.3848 418.062 44.9453C417.379 44.4814 416.463 44.2495 415.316 44.2495C414.388 44.2495 413.595 44.4082 412.936 44.7256C412.276 45.043 411.776 45.519 411.434 46.1538C411.092 46.7886 410.921 47.5942 410.921 48.5708H398.58C398.58 46.7397 398.983 45.043 399.789 43.4805C400.619 41.8936 401.791 40.5142 403.304 39.3423C404.842 38.1704 406.673 37.2671 408.797 36.6323C410.946 35.9731 413.338 35.6436 415.975 35.6436C419.125 35.6436 421.932 36.1685 424.398 37.2183C426.888 38.2681 428.854 39.8428 430.294 41.9424C431.734 44.0176 432.455 46.6299 432.455 49.7793V66.0024C432.455 68.5903 432.601 70.5557 432.894 71.8984C433.187 73.2168 433.602 74.3765 434.139 75.3774V76H421.761C421.175 74.7793 420.736 73.29 420.443 71.5322C420.174 69.75 420.04 67.9189 420.04 66.0391ZM421.542 51.7935L421.615 58.3853H416.158C415.011 58.3853 414.034 58.5439 413.229 58.8613C412.447 59.1787 411.812 59.6182 411.324 60.1797C410.86 60.7168 410.519 61.3271 410.299 62.0107C410.104 62.6943 410.006 63.4146 410.006 64.1714C410.006 64.9038 410.177 65.563 410.519 66.1489C410.885 66.7104 411.373 67.1499 411.983 67.4673C412.594 67.7847 413.277 67.9434 414.034 67.9434C415.401 67.9434 416.561 67.687 417.513 67.1743C418.49 66.6372 419.234 65.9902 419.747 65.2334C420.26 64.4766 420.516 63.7686 420.516 63.1094L423.226 68.1631C422.738 69.1396 422.176 70.1284 421.542 71.1294C420.931 72.1304 420.162 73.0581 419.234 73.9126C418.331 74.7427 417.22 75.4263 415.902 75.9634C414.583 76.4761 412.984 76.7324 411.104 76.7324C408.663 76.7324 406.417 76.2319 404.366 75.231C402.34 74.23 400.716 72.8384 399.496 71.0562C398.275 69.2495 397.665 67.1743 397.665 64.8306C397.665 62.7798 398.031 60.9487 398.763 59.3374C399.52 57.7261 400.655 56.3589 402.169 55.2358C403.683 54.1128 405.611 53.2583 407.955 52.6724C410.299 52.0864 413.058 51.7935 416.231 51.7935H421.542ZM451.754 46.1904V76H439.413V36.376H450.948L451.754 46.1904ZM463.473 36.083L463.253 47.5454C462.765 47.4966 462.105 47.4355 461.275 47.3623C460.445 47.2891 459.75 47.2524 459.188 47.2524C457.748 47.2524 456.502 47.4233 455.453 47.7651C454.427 48.0825 453.573 48.5708 452.889 49.23C452.23 49.8647 451.742 50.6704 451.424 51.647C451.131 52.6235 450.997 53.7588 451.021 55.0527L448.788 53.5879C448.788 50.9268 449.044 48.5098 449.557 46.3369C450.094 44.1396 450.851 42.2476 451.827 40.6606C452.804 39.0493 453.988 37.8164 455.379 36.9619C456.771 36.083 458.333 35.6436 460.067 35.6436C460.677 35.6436 461.275 35.6802 461.861 35.7534C462.472 35.8267 463.009 35.9365 463.473 36.083ZM490.426 36.376V44.9453H466.549V36.376H490.426ZM471.566 26.5249H483.907V63.0728C483.907 64.1226 484.029 64.9404 484.273 65.5264C484.518 66.0879 484.933 66.4907 485.519 66.7349C486.129 66.9546 486.935 67.0645 487.936 67.0645C488.644 67.0645 489.229 67.0522 489.693 67.0278C490.157 66.979 490.597 66.918 491.012 66.8447V75.6704C489.962 76.0122 488.863 76.2686 487.716 76.4395C486.568 76.6348 485.348 76.7324 484.054 76.7324C481.417 76.7324 479.159 76.3174 477.279 75.4873C475.423 74.6572 474.007 73.3511 473.031 71.5688C472.054 69.7866 471.566 67.4673 471.566 64.6108V26.5249Z" fill="#FF9103"/>
</svg>
