<svg width="50" height="50" viewBox="0 0 50 50" fill="none" xmlns="http://www.w3.org/2000/svg">
<path d="M46.5938 36.75H42.375V7.21875C42.375 6.09987 41.9305 5.02681 41.1394 4.23564C40.3482 3.44447 39.2751 3 38.1562 3L7.21875 3C6.09987 3 5.02681 3.44447 4.23564 4.23564C3.44447 5.02681 3 6.09987 3 7.21875L3 15.6562C3 16.0292 3.14816 16.3869 3.41188 16.6506C3.6756 16.9143 4.03329 17.0625 4.40625 17.0625H8.625V43.7812C8.625 44.9001 9.06947 45.9732 9.86064 46.7644C10.6518 47.5555 11.7249 48 12.8438 48H43.7812C44.9001 48 45.9732 47.5555 46.7644 46.7644C47.5555 45.9732 48 44.9001 48 43.7812V38.1562C48 37.7833 47.8518 37.4256 47.5881 37.1619C47.3244 36.8982 46.9667 36.75 46.5938 36.75ZM5.8125 7.21875C5.8125 6.84579 5.96066 6.4881 6.22438 6.22438C6.4881 5.96066 6.84579 5.8125 7.21875 5.8125C7.59171 5.8125 7.9494 5.96066 8.21312 6.22438C8.47684 6.4881 8.625 6.84579 8.625 7.21875V14.25H5.8125V7.21875ZM14.25 38.1562V43.7812C14.2474 43.9683 14.2075 44.153 14.1326 44.3244C14.0578 44.4958 13.9495 44.6506 13.8141 44.7797C13.6894 44.9112 13.5388 45.0153 13.3717 45.0855C13.2047 45.1557 13.0249 45.1904 12.8438 45.1875C12.4708 45.1875 12.1131 45.0393 11.8494 44.7756C11.5857 44.5119 11.4375 44.1542 11.4375 43.7812V7.21875C11.4337 6.73902 11.3481 6.26345 11.1844 5.8125H38.1562C38.5292 5.8125 38.8869 5.96066 39.1506 6.22438C39.4143 6.4881 39.5625 6.84579 39.5625 7.21875V36.75H15.6562C15.2833 36.75 14.9256 36.8982 14.6619 37.1619C14.3982 37.4256 14.25 37.7833 14.25 38.1562ZM45.1875 43.7812C45.1849 43.9683 45.145 44.153 45.0701 44.3244C44.9953 44.4958 44.887 44.6506 44.7516 44.7797C44.6269 44.9112 44.4763 45.0153 44.3092 45.0855C44.1422 45.1557 43.9624 45.1904 43.7812 45.1875H16.8234C16.9824 44.7357 17.0632 44.2602 17.0625 43.7812V39.5625H45.1875V43.7812Z" fill="#FF9103"/>
<path d="M26.9062 29.7188H15.6562C15.2833 29.7188 14.9256 29.8669 14.6619 30.1306C14.3982 30.3944 14.25 30.752 14.25 31.125C14.25 31.498 14.3982 31.8556 14.6619 32.1194C14.9256 32.3831 15.2833 32.5312 15.6562 32.5312H26.9062C27.2792 32.5312 27.6369 32.3831 27.9006 32.1194C28.1643 31.8556 28.3125 31.498 28.3125 31.125C28.3125 30.752 28.1643 30.3944 27.9006 30.1306C27.6369 29.8669 27.2792 29.7188 26.9062 29.7188Z" fill="black"/>
<path d="M35.3438 29.7188H32.5312C32.1583 29.7188 31.8006 29.8669 31.5369 30.1306C31.2732 30.3944 31.125 30.752 31.125 31.125C31.125 31.498 31.2732 31.8556 31.5369 32.1194C31.8006 32.3831 32.1583 32.5312 32.5312 32.5312H35.3438C35.7167 32.5312 36.0744 32.3831 36.3381 32.1194C36.6018 31.8556 36.75 31.498 36.75 31.125C36.75 30.752 36.6018 30.3944 36.3381 30.1306C36.0744 29.8669 35.7167 29.7188 35.3438 29.7188Z" fill="black"/>
<path d="M17 43V45H43.5H44H44.5L45 44.5L45.1741 44.1375V39.5H22.5H17V41.5V43Z" fill="#FFA22B" stroke="#FFA22B" stroke-width="0.37"/>
<circle cx="26" cy="18" r="9" fill="black"/>
<path d="M27.7711 15.8615C27.7356 15.4709 27.5776 15.1673 27.2971 14.9506C27.0201 14.7305 26.6241 14.6204 26.1092 14.6204C25.7683 14.6204 25.4842 14.6648 25.2569 14.7536C25.0297 14.8423 24.8592 14.9648 24.7456 15.1211C24.6319 15.2738 24.5733 15.4496 24.5698 15.6484C24.5627 15.8118 24.5946 15.9556 24.6657 16.0799C24.7402 16.2042 24.8468 16.3143 24.9853 16.4102C25.1273 16.5025 25.2978 16.5842 25.4966 16.6552C25.6955 16.7262 25.9192 16.7884 26.1678 16.8416L27.1053 17.0547C27.6451 17.1719 28.1209 17.3281 28.5328 17.5234C28.9483 17.7188 29.2963 17.9513 29.5769 18.2212C29.861 18.4911 30.0758 18.8018 30.2214 19.1534C30.367 19.505 30.4416 19.8991 30.4451 20.3359C30.4416 21.0249 30.2676 21.6161 29.9231 22.1097C29.5787 22.6033 29.0833 22.9815 28.437 23.2443C27.7942 23.5071 27.0183 23.6385 26.1092 23.6385C25.1966 23.6385 24.4011 23.5018 23.7228 23.2283C23.0446 22.9549 22.5172 22.5394 22.1408 21.9819C21.7644 21.4244 21.5708 20.7195 21.5602 19.8672H24.085C24.1064 20.2188 24.2005 20.5117 24.3674 20.7461C24.5343 20.9805 24.7633 21.158 25.0545 21.2788C25.3493 21.3995 25.6902 21.4599 26.0772 21.4599C26.4324 21.4599 26.7342 21.4119 26.9828 21.3161C27.2349 21.2202 27.4284 21.087 27.5634 20.9165C27.6983 20.7461 27.7676 20.5508 27.7711 20.3306C27.7676 20.1246 27.7037 19.9489 27.5794 19.8033C27.4551 19.6541 27.2633 19.5263 27.0041 19.4197C26.7484 19.3097 26.4217 19.2085 26.024 19.1161L24.8841 18.8498C23.9395 18.6332 23.1955 18.2834 22.6522 17.8004C22.1088 17.3139 21.839 16.657 21.8425 15.8295C21.839 15.1548 22.0201 14.5636 22.3858 14.0558C22.7516 13.5479 23.2576 13.152 23.9039 12.8679C24.5502 12.5838 25.2871 12.4418 26.1145 12.4418C26.9597 12.4418 27.693 12.5856 28.3145 12.8732C28.9395 13.1573 29.4242 13.5568 29.7686 14.0717C30.1131 14.5866 30.2889 15.1832 30.296 15.8615H27.7711Z" fill="white"/>
<path d="M26 12.5V11.5V10.5" stroke="white" stroke-width="2"/>
<path d="M26.5 23.5V25.5" stroke="white" stroke-width="2"/>
</svg>
