<svg width="50" height="50" viewBox="0 0 50 50" fill="none" xmlns="http://www.w3.org/2000/svg">
<rect x="29.478" y="20.6" width="3.17736" height="4.4" fill="white"/>
<rect x="3" y="3" width="21.1824" height="44" fill="#FF9103"/>
<path d="M7.23648 5.2H10.4138V9.6H7.23648V5.2Z" fill="black"/>
<path d="M15.7094 5.2H18.8868V9.6H15.7094V5.2Z" fill="black"/>
<path d="M7.23648 11.8H10.4138V16.2H7.23648V11.8Z" fill="black"/>
<path d="M15.7094 11.8H18.8868V16.2H15.7094V11.8Z" fill="black"/>
<path d="M7.23648 18.4H10.4138V22.8H7.23648V18.4Z" fill="black"/>
<path d="M15.7094 18.4H18.8868V22.8H15.7094V18.4Z" fill="black"/>
<path d="M7.23648 25H10.4138V29.4H7.23648V25Z" fill="black"/>
<path d="M15.7094 25H18.8868V29.4H15.7094V25Z" fill="black"/>
<path d="M7.23648 31.6H10.4138V36H7.23648V31.6Z" fill="black"/>
<path d="M15.7094 31.6H18.8868V36H15.7094V31.6Z" fill="black"/>
<path d="M10.4138 41.9478C10.4138 40.4855 11.5993 39.3 13.0616 39.3C14.524 39.3 15.7094 40.4855 15.7094 41.9478V47H10.4138V41.9478Z" fill="black"/>
<mask id="path-14-inside-1_26_126" fill="white">
<path d="M16.7686 14H36.8918V47H16.7686V14Z"/>
</mask>
<path d="M16.7686 14H36.8918V47H16.7686V14Z" fill="black"/>
<path d="M16.7686 14V13H15.7686V14H16.7686ZM36.8918 14H37.8918V13H36.8918V14ZM16.7686 15H36.8918V13H16.7686V15ZM35.8918 14V47H37.8918V14H35.8918ZM17.7686 47V14H15.7686V47H17.7686Z" fill="white" mask="url(#path-14-inside-1_26_126)"/>
<path fill-rule="evenodd" clip-rule="evenodd" d="M46.1414 15.0529C46.3017 15.4195 46.2079 15.8409 45.9183 16.1258L44.1109 17.9258C44.1808 18.2791 44.2244 18.6433 44.2443 19.0119C44.2642 19.3805 44.2601 19.7474 44.2286 20.1067L46.2183 21.6856C46.5368 21.9351 46.6755 22.3461 46.5555 22.7259C46.3893 23.2471 46.1863 23.7519 45.9435 24.2375L45.7565 24.5966C45.493 25.0864 45.1921 25.5507 44.8602 25.9922C44.6176 26.3175 44.1939 26.4439 43.803 26.3465L41.318 25.73C40.7548 26.2065 40.1279 26.6128 39.4485 26.9327L39.0352 29.4126C38.967 29.811 38.6766 30.136 38.2777 30.224C37.678 30.3575 37.0579 30.4459 36.4231 30.4829C35.7882 30.5199 35.1625 30.5039 34.5522 30.4408C34.1463 30.3997 33.8228 30.1104 33.7151 29.7223L33.0346 27.3061C32.3251 27.067 31.6584 26.7361 31.0474 26.3279L28.6506 27.2347C28.2726 27.3769 27.8376 27.2943 27.5619 27.0053C27.1846 26.6052 26.8355 26.1756 26.521 25.7225L26.2966 25.3873C26.0029 24.9299 25.744 24.4551 25.5258 23.9563C25.3625 23.5899 25.4592 23.1652 25.7489 22.8833L27.5533 21.0835C27.4861 20.7239 27.4395 20.3599 27.4196 19.9913C27.3997 19.6227 27.4068 19.2556 27.4353 18.8965L25.4485 17.3174C25.1301 17.0679 24.9885 16.6602 25.1113 16.2771C25.2746 15.7561 25.4807 15.2542 25.7234 14.7655L25.9103 14.4064C26.1741 13.9196 26.4747 13.4523 26.8067 13.0108C27.0494 12.6885 27.473 12.5591 27.8639 12.6565L30.346 13.2762C30.9093 12.7997 31.5392 12.3933 32.2155 12.0735L32.6317 9.59039C32.697 9.19526 32.9873 8.86715 33.3893 8.78212C33.9887 8.64246 34.6058 8.55416 35.2436 8.51703C35.8785 8.48007 36.5042 8.49603 37.1145 8.5591C37.5204 8.60018 37.8441 8.89255 37.9516 9.27762L38.6321 11.6938C39.3387 11.9331 40.0083 12.2639 40.6193 12.672L43.0194 11.7712C43.3974 11.629 43.8324 11.7116 44.1081 12.0006C44.4855 12.4007 44.8344 12.8272 45.149 13.2834L45.3734 13.6185C45.6672 14.076 45.926 14.5508 46.1414 15.0529ZM36.0217 22.9355C36.9516 22.8813 37.8232 22.467 38.4441 21.7838C39.0682 21.1034 39.3907 20.2096 39.3414 19.2973C39.2924 18.3881 38.8757 17.5372 38.1822 16.9305C37.4919 16.3267 36.5812 16.0161 35.6513 16.0703C34.7214 16.1244 33.8468 16.5389 33.2257 17.2191C32.6019 17.9025 32.2794 18.7963 32.3284 19.7055C32.3777 20.6178 32.7943 21.4687 33.4876 22.0723C34.1781 22.6792 35.0918 22.9896 36.0217 22.9355Z" fill="white" stroke="black" stroke-miterlimit="100"/>
<rect x="21.005" y="20.6" width="3.17736" height="4.4" fill="white"/>
<rect x="21.005" y="28.3" width="3.17736" height="4.4" fill="white"/>
<rect x="29.478" y="28.3" width="3.17736" height="4.4" fill="white"/>
<path d="M25.2415 43.0887C25.2415 42.2113 25.9528 41.5 26.8302 41.5C27.7076 41.5 28.4189 42.2113 28.4189 43.0887V47H25.2415V43.0887Z" fill="white"/>
<rect x="21.005" y="36" width="3.17736" height="4.4" fill="white"/>
<rect x="29.478" y="36" width="3.17736" height="4.4" fill="white"/>
</svg>
