<svg width="1330" height="1038" viewBox="0 0 1330 1038" fill="none" xmlns="http://www.w3.org/2000/svg">
<path fill-rule="evenodd" clip-rule="evenodd" d="M1161.8 699.9L1121.6 739.4L1100.1 724.9C1089.2 731.1 1077.7 735.7 1065.9 738.7L1060.5 764.1L1032.3 763.8L1004.1 763.5L999.2 738C987.4 734.9 976 730.1 965.2 723.6L943.5 737.8L923.7 717.6L904 697.5L918.5 676C912.3 665.2 907.7 653.7 904.7 641.8L879.3 636.5L879.6 608.2L879.9 580L905.4 575.1C908.5 563.3 913.3 551.9 919.8 541.2L905.6 519.4L925.8 499.7L945.9 479.9L967.4 494.5C978.2 488.2 989.7 483.6 1001.6 480.7L1006.9 455.3L1035.2 455.5L1063.4 455.8L1068.3 481.3C1080.1 484.5 1091.5 489.3 1102.2 495.7L1124 481.6L1143.7 501.7L1163.5 521.8L1148.9 543.3C1155.2 554.2 1159.8 565.7 1162.7 577.5L1188.1 582.9L1187.9 611.1L1187.6 639.3L1162.1 644.2C1158.9 656 1154.1 667.4 1147.7 678.2L1161.8 699.9ZM1082.1 659C1109.4 632.2 1109.8 588.4 1083 561.2C1056.3 533.9 1012.5 533.5 985.2 560.2C957.9 587 957.5 630.8 984.3 658.1C1011 685.4 1054.8 685.8 1082.1 659Z" fill="url(#paint0_linear_0_385)"/>
<path fill-rule="evenodd" clip-rule="evenodd" d="M489.7 465.4L476.3 481.6L462.8 497.8L445.7 488.7C438.2 494.1 430 498.4 421.4 501.5L419.3 520.8L398.4 522.7L377.4 524.7L371.8 506.1C362.8 504.7 353.9 502 345.5 498L330.4 510.2L314.2 496.7L298 483.3L307.2 466.2C301.7 458.7 297.4 450.4 294.3 441.9L275 439.8L273.1 418.8L271.1 397.9L289.7 392.3C291.1 383.3 293.8 374.4 297.8 366L285.6 350.9L299.1 334.7L312.5 318.5L329.6 327.6C337.1 322.2 345.4 317.9 353.9 314.8L356 295.5L377 293.5L397.9 291.6L403.5 310.2C412.5 311.6 421.4 314.3 429.8 318.3L444.9 306.1L461.1 319.5L477.3 333L468.2 350.1C473.6 357.6 477.9 365.9 481 374.4L500.3 376.5L502.3 397.5L504.2 418.4L485.6 424C484.2 433 481.5 441.9 477.5 450.3L489.7 465.4ZM427.4 441.2C445.7 419.2 442.6 386.6 420.7 368.4C398.7 350.2 366.1 353.2 347.9 375.2C329.7 397.2 332.7 429.7 354.7 447.9C376.7 466.2 409.2 463.1 427.4 441.2Z" fill="url(#paint1_linear_0_385)"/>
<path d="M1100.1 874.7H1098.4V748.9C1098.4 721 1075.6 698.2 1047.6 698.2H918.3C889.3 698.2 865.8 674.7 865.8 645.7V410.7C865.8 382.7 843 360 815 360H485.2V358.2H815C844 358.2 867.5 381.7 867.5 410.7V645.7C867.5 673.7 890.3 696.4 918.3 696.4H1047.6C1076.6 696.4 1100.1 720 1100.1 748.9V874.7Z" fill="#FF9E22"/>
<path d="M569.7 278.5C569.7 278.5 589.7 358 541.8 379.8C493.8 401.5 503 361.7 503 361.7C503 361.7 483.4 356.3 536.9 325.9C562.1 311.6 569.7 278.5 569.7 278.5Z" fill="#BBD070"/>
<path d="M695.3 285.5C695.3 285.5 705.1 354.8 614.4 384.7C523.7 414.7 510.7 452.7 510.7 452.7C510.7 452.7 508 299.1 695.3 285.5Z" fill="#97A43C"/>
<path d="M510.3 424.5C483.4 414.2 547.4 359.1 596.5 360.6C645.6 362.1 678.9 380.3 711.9 372.6C711.9 372.6 642.8 475 510.3 424.5Z" fill="#48753A"/>
<path fill-rule="evenodd" clip-rule="evenodd" d="M597.7 562.2C595.2 572.6 595.7 596.9 595.7 596.9C595 619.9 597.6 643.5 598.2 656.7C598.267 657.1 598.3 657.5 598.3 657.9C598.5 661.1 598.7 664.4 598.9 667.7H426.8C426.867 664.5 426.933 661.233 427 657.9C427.3 638.5 427.6 617.1 427.7 601.9C388.3 591.5 345.9 578 346.7 568.1C347.5 557.9 378.1 407.7 386.7 401.5C392.5 397.3 429.2 382.6 448.2 375.4C457 372.1 463.7 369.7 465.1 369.6C469.4 369.4 523.1 374.5 523.1 374.5C523.1 374.5 530.8 377.1 538.6 380.8C552.1 386.9 573 396.5 588 403.7C592.8 406 598.9 409.1 603.9 411.8C603.3 430 602.233 449.567 600.7 470.5C600.7 470.5 597.9 516.1 597.7 562.2ZM427.1 579.6C425 551 416.4 501.9 415.5 498.4C415.4 498.4 411.4 502.2 411.4 502.2C411.4 502.2 410.1 502.4 410 502.4C410 502.3 408.8 502.8 408.8 502.8C408.8 502.8 382.8 539.2 382.5 558.8C382.4 568.1 402.7 574.8 427.1 579.6Z" fill="#DBD8E3"/>
<path d="M603.9 657.9C602.8 649.8 601.7 641.7 600.7 633.7C600.7 633.633 600.7 633.6 600.7 633.6C600.367 630.933 600.067 628.3 599.8 625.7C599.8 625.567 599.767 625.433 599.7 625.3C598.5 614.3 597.4 603.8 596.7 594.1C596.1 586.7 596.6 579.5 597.6 572.4C600.6 523.1 602.1 471.1 602.1 471.1C603.7 449.9 604.6 430 605.2 411.4C605.2 411.4 537.8 379.6 531.7 377.8C531.7 377.8 544.5 407.8 554.1 474.8C557.8 500.6 564.6 544 569.6 588.2C572.2 612.1 577.3 636.4 581.1 657.9C581.7 661.233 582.233 664.5 582.7 667.7H605.3C604.833 664.433 604.367 661.167 603.9 657.9Z" fill="#323657"/>
<path fill-rule="evenodd" clip-rule="evenodd" d="M540.8 593.5C535.7 605.6 518 635.4 518 635.4C518 635.4 505.3 632.3 486.5 627.5C485.2 638.1 484 648.1 482.8 657.9C482.4 661.167 482 664.433 481.6 667.7L418.9 667.9C419.1 663.7 420.2 661.7 420.9 658.4C425 640.3 423.8 622.9 424.2 610.6C379.3 597.7 335.2 583.3 335.9 576.5C336.9 566.3 370.7 408.8 379.2 402.7C384.2 399.1 420.8 386.1 438.8 379.1C442.1 377.8 453.3 373.5 456.2 372.4C460.1 376.7 486.3 405.7 495.6 515.3C496.8 528.9 494.4 553.8 491.7 578.7C519 586 541.7 591.5 540.8 593.5ZM418.2 554.4C415.5 532.6 412.4 510.6 410.2 502.9C410.2 502.9 410.1 518.6 410.7 541C410.8 545.5 409.1 549.8 418.2 554.4Z" fill="#323657"/>
<path d="M462.3 371.4C462.3 371.4 469.1 358.5 467.2 321.9C466.7 311.7 520.5 345.9 520.5 345.9C520.5 345.9 520.3 349.4 520.2 354.1C520.1 356.1 520.1 358.2 520.1 360.5C520.1 361.1 520.1 361.7 520.1 362.3C520.1 363.3 520.1 364.3 520.1 365.3C520.167 366.5 520.233 367.7 520.3 368.9C520.3 370.167 520.367 371.4 520.5 372.6C520.7 374.8 522 378.7 522.5 379.8C525 385.4 482.4 385.8 462.3 371.4Z" fill="#EEA987"/>
<path d="M507.4 394.6L517.3 408C517.3 408 511.5 415.7 501.2 410L507.4 394.6Z" fill="#FF9E22"/>
<path d="M514.6 408.5C514.6 408.5 550.9 497.2 543.2 609.9L531.7 630.7L518.8 612.9C518.8 612.9 516.7 463.3 506.4 408.1L514.6 408.5Z" fill="#FF9E22"/>
<path d="M518 382.2L507.4 394.6C507.4 394.6 490.3 391.3 485.3 382.4C480.3 373.5 518 382.2 518 382.2Z" fill="#EEA987"/>
<path d="M520.4 371.4C520.4 371.4 519.2 380.8 507.4 394.6L520.3 412L527.2 376L520.4 371.4Z" fill="#C4C1CC"/>
<path d="M465.5 360C465.5 360 490.1 387.8 507.4 394.6L499.4 414.5L460 371.1L465.5 360Z" fill="#C4C1CC"/>
<path d="M718.7 612C718.7 612 686 580.3 664.6 575C654.7 572.6 641.6 558.9 629.2 542.8C625.1 537.5 621.1 532 617.3 526.5C617.3 526.433 617.3 526.4 617.3 526.4C602.1 504.5 590.1 483.4 590.1 483.4C590.1 483.4 545.1 430.7 581.2 407.2C581.2 407.2 596.7 406.8 605.2 411.4C613.9 416.2 632.5 455 635.7 461.9C638.8 468.8 673 532.7 675.3 534.1C677.6 535.6 681.4 540.8 695.1 548.2C711.9 557.2 738.2 583.6 738.2 583.6L718.7 612Z" fill="#323657"/>
<path d="M561.8 648.7C561.8 648.7 557.2 648.5 555.3 647.5C555.3 647.5 551.8 645.3 549.3 643.9C548.5 643.4 547.8 643 547.3 642.9C545.3 642.1 540.6 640.9 536.3 637.6C532 634.3 518 621.2 518 621.2L527.1 607.3L531.3 593.5C531.3 593.5 563.9 596.8 568.3 599.4C568.7 599.6 569.1 599.867 569.5 600.2C573 602.7 574.5 606.1 576.2 607.6C576.8 608.2 582.5 614.3 582.2 616.8C581.7 620.2 580 622.4 577.9 623.4C577.9 623.4 576.7 630.1 573.3 633.1C573.3 633.1 572.4 639.3 567.1 641.8C567.1 641.8 565.5 648 561.8 648.7Z" fill="#EFAA88"/>
<path d="M509.8 227.4C509.8 227.4 568.8 213.2 556.4 288C543.9 362.7 529.8 368.8 493.8 353.9C457.8 339 460.3 291.2 458.2 267.8C456 244.4 490.9 228.5 509.8 227.4Z" fill="#EEA886"/>
<path d="M478.7 279.2C477.9 272.7 464.8 270.4 463.9 280.3C463 290.2 470.2 307.4 475.1 305.6C480 303.8 479.9 288.3 478.7 279.2Z" fill="#EEA886"/>
<path d="M461.6 306C461.6 306 462.8 282.5 471.4 281.6C479.9 280.8 481.4 290.2 481.4 290.2L490.1 291.7C490.1 291.7 487.1 271.2 495.6 267.4C504.1 263.7 551.3 278 558 271.8C564.8 265.7 561 223.9 548.5 218.4C535.9 212.9 501.4 200.6 476.5 218C476.5 218 456.8 216 454.1 231.9C451.5 247.8 456.1 294.3 461.6 306Z" fill="#16202E"/>
<path d="M542.4 593.5L518 635.4C518 635.4 453.4 618.8 438.4 614.6L472.8 573.5C472.8 573.5 523.6 585.1 542.4 593.5Z" fill="#323657"/>
<path d="M520.3 368.9H520.2C488.6 365.6 476.3 341.2 476.3 341.2C496.2 361 520.1 360.5 520.1 360.5C520.1 361.1 520.1 361.7 520.1 362.3C520.1 363.3 520.1 364.3 520.1 365.3C520.167 366.5 520.233 367.7 520.3 368.9Z" fill="#A77860"/>
<path fill-rule="evenodd" clip-rule="evenodd" d="M959.6 746.4C959.6 750.5 956.9 754 953.3 755.3C952.433 755.633 951.5 755.833 950.5 755.9C950.433 755.9 950.367 755.9 950.3 755.9C950.167 755.9 950.033 755.9 949.9 755.9C949.633 755.9 949.367 755.9 949.1 755.9C947.2 755.7 945.5 755 944.1 753.9C942.7 752.8 941.6 751.3 940.9 749.6C940.5 748.533 940.3 747.367 940.3 746.1C940.367 745.1 940.533 744.133 940.8 743.2C942.2 739.3 945.8 736.6 950.1 736.6C953.2 736.7 955.9 738.2 957.7 740.5C958.9 742.1 959.6 744.2 959.6 746.4ZM957.2 746.4C957.2 744.7 956.7 743.1 955.7 741.9C954.4 740.2 952.4 739.1 950.1 739C946.9 739 944.1 741.1 943.1 743.9C943.033 744.167 942.967 744.4 942.9 744.6C942.833 745.133 942.8 745.667 942.8 746.2C942.7 748.2 943.5 750 944.8 751.3C945.067 751.567 945.333 751.8 945.6 752C946.267 752.533 947.033 752.933 947.9 753.2C948.567 753.4 949.233 753.5 949.9 753.5C950.033 753.5 950.2 753.5 950.4 753.5C951.133 753.433 951.8 753.3 952.4 753.1C955.2 752.1 957.2 749.4 957.2 746.4Z" fill="#4DA8F2"/>
<path d="M588.3 559.1C625 596.9 673.5 644.5 673.5 644.5L692.4 608.5C692.4 608.5 649.4 558 620.1 524.3C611.2 528.7 594.8 539.1 588.3 559.1Z" fill="#EEA886"/>
<path d="M565.6 609.9C565.6 609.9 575.5 614.7 578 616.8C580.6 618.9 591.1 626.8 593.6 628.6C596.1 630.4 589.8 635.7 571.1 627.6C552.4 619.5 565.6 609.9 565.6 609.9Z" fill="#EEA886"/>
<path d="M566.4 501.7L549.2 661.9H776L793.2 501.7H566.4Z" fill="#FF9E22"/>
<path fill-rule="evenodd" clip-rule="evenodd" d="M788.9 654.5H560.4L577.8 492.6H806.3L788.9 654.5ZM562.4 652.7H787.3L804.4 494.3H579.4L562.4 652.7Z" fill="#FFC955"/>
<path d="M531.2 647.5H569V661.9H531.2V647.5Z" fill="#FF9E22"/>
<mask id="mask0_0_385" style="mask-type:luminance" maskUnits="userSpaceOnUse" x="166" y="661" width="618" height="11">
<path d="M166.84 661.57V671.33H783.08V661.57H166.84Z" fill="white"/>
</mask>
<g mask="url(#mask0_0_385)">
<path d="M176.3 661.6V671.3H166.8V661.6H176.3Z" fill="#FFD9A9"/>
<path d="M185.8 661.6V671.3H176.3V661.6H185.8Z" fill="#FFD9A9"/>
<path d="M195.3 661.6V671.3H185.8V661.6H195.3Z" fill="#FFD9A9"/>
<path d="M204.8 661.6V671.3H195.3V661.6H204.8Z" fill="#FFD9A9"/>
<path d="M214.2 661.6V671.3H204.8V661.6H214.2Z" fill="#FFD9A9"/>
<path d="M223.7 661.6V671.3H214.2V661.6H223.7Z" fill="#FFD9A9"/>
<path d="M233.2 661.6V671.3H223.7V661.6H233.2Z" fill="#FFD9A9"/>
<path d="M242.7 661.6V671.3H233.2V661.6H242.7Z" fill="#FFD9A9"/>
<path d="M252.2 661.6V671.3H242.7V661.6H252.2Z" fill="#FFD9A9"/>
<path d="M261.6 661.6V671.3H252.2V661.6H261.6Z" fill="#FFD9A9"/>
<path d="M271.1 661.6V671.3H261.6V661.6H271.1Z" fill="#FFD9A9"/>
<path d="M280.6 661.6V671.3H271.1V661.6H280.6Z" fill="#FFD9A9"/>
<path d="M290.1 661.6V671.3H280.6V661.6H290.1Z" fill="#FFD9A9"/>
<path d="M299.6 661.6V671.3H290.1V661.6H299.6Z" fill="#FFD9A9"/>
<path d="M309 661.6V671.3H299.6V661.6H309Z" fill="#FFD9A9"/>
<path d="M318.5 661.6V671.3H309V661.6H318.5Z" fill="#FFD9A9"/>
<path d="M328 661.6V671.3H318.5V661.6H328Z" fill="#FFD9A9"/>
<path d="M337.5 661.6V671.3H328V661.6H337.5Z" fill="#FFD9A9"/>
<path d="M347 661.6V671.3H337.5V661.6H347Z" fill="#FFD9A9"/>
<path d="M356.4 661.6V671.3H347V661.6H356.4Z" fill="#FFD9A9"/>
<path d="M365.9 661.6V671.3H356.4V661.6H365.9Z" fill="#FFD9A9"/>
<path d="M375.4 661.6V671.3H365.9V661.6H375.4Z" fill="#FFD9A9"/>
<path d="M384.9 661.6V671.3H375.4V661.6H384.9Z" fill="#FFD9A9"/>
<path d="M394.4 661.6V671.3H384.9V661.6H394.4Z" fill="#FFD9A9"/>
<path d="M403.9 661.6V671.3H394.4V661.6H403.9Z" fill="#FFD9A9"/>
<path d="M413.3 661.6V671.3H403.9V661.6H413.3Z" fill="#FFD9A9"/>
<path d="M422.8 661.6V671.3H413.3V661.6H422.8Z" fill="#FFD9A9"/>
<path d="M432.3 661.6V671.3H422.8V661.6H432.3Z" fill="#FFD9A9"/>
<path d="M441.8 661.6V671.3H432.3V661.6H441.8Z" fill="#FFD9A9"/>
<path d="M451.3 661.6V671.3H441.8V661.6H451.3Z" fill="#FFD9A9"/>
<path d="M460.7 661.6V671.3H451.3V661.6H460.7Z" fill="#FFD9A9"/>
<path d="M470.2 661.6V671.3H460.7V661.6H470.2Z" fill="#FFD9A9"/>
<path d="M479.7 661.6V671.3H470.2V661.6H479.7Z" fill="#FFD9A9"/>
<path d="M489.2 661.6V671.3H479.7V661.6H489.2Z" fill="#FFD9A9"/>
<path d="M498.7 661.6V671.3H489.2V661.6H498.7Z" fill="#FFD9A9"/>
<path d="M508.1 661.6V671.3H498.7V661.6H508.1Z" fill="#FFD9A9"/>
<path d="M517.6 661.6V671.3H508.1V661.6H517.6Z" fill="#FFD9A9"/>
<path d="M527.1 661.6V671.3H517.6V661.6H527.1Z" fill="#FFD9A9"/>
<path d="M536.6 661.6V671.3H527.1V661.6H536.6Z" fill="#FFD9A9"/>
<path d="M546.1 661.6V671.3H536.6V661.6H546.1Z" fill="#FFD9A9"/>
<path d="M555.5 661.6V671.3H546.1V661.6H555.5Z" fill="#FFD9A9"/>
<path d="M565 661.6V671.3H555.5V661.6H565Z" fill="#FFD9A9"/>
<path d="M574.5 661.6V671.3H565V661.6H574.5Z" fill="#FFD9A9"/>
<path d="M584 661.6V671.3H574.5V661.6H584Z" fill="#FFD9A9"/>
<path d="M593.5 661.6V671.3H584V661.6H593.5Z" fill="#FFD9A9"/>
<path d="M602.9 661.6V671.3H593.5V661.6H602.9Z" fill="#FFD9A9"/>
<path d="M612.4 661.6V671.3H602.9V661.6H612.4Z" fill="#FFD9A9"/>
<path d="M621.9 661.6V671.3H612.4V661.6H621.9Z" fill="#FFD9A9"/>
<path d="M631.4 661.6V671.3H621.9V661.6H631.4Z" fill="#FFD9A9"/>
<path d="M640.9 661.6V671.3H631.4V661.6H640.9Z" fill="#FFD9A9"/>
<path d="M650.3 661.6V671.3H640.9V661.6H650.3Z" fill="#FFD9A9"/>
<path d="M659.8 661.6V671.3H650.3V661.6H659.8Z" fill="#FFD9A9"/>
<path d="M669.3 661.6V671.3H659.8V661.6H669.3Z" fill="#FFD9A9"/>
<path d="M678.8 661.6V671.3H669.3V661.6H678.8Z" fill="#FFD9A9"/>
<path d="M688.3 661.6V671.3H678.8V661.6H688.3Z" fill="#FFD9A9"/>
<path d="M697.8 661.6V671.3H688.3V661.6H697.8Z" fill="#FFD9A9"/>
<path d="M707.2 661.6V671.3H697.8V661.6H707.2Z" fill="#FFD9A9"/>
<path d="M716.7 661.6V671.3H707.2V661.6H716.7Z" fill="#FFD9A9"/>
<path d="M726.2 661.6V671.3H716.7V661.6H726.2Z" fill="#FFD9A9"/>
<path d="M735.7 661.6V671.3H726.2V661.6H735.7Z" fill="#FFD9A9"/>
<path d="M745.2 661.6V671.3H735.7V661.6H745.2Z" fill="#FFD9A9"/>
<path d="M754.6 661.6V671.3H745.2V661.6H754.6Z" fill="#FFD9A9"/>
<path d="M764.1 661.6V671.3H754.6V661.6H764.1Z" fill="#FFD9A9"/>
<path d="M773.6 661.6V671.3H764.1V661.6H773.6Z" fill="#FFD9A9"/>
<path d="M783.1 661.6V671.3H773.6V661.6H783.1Z" fill="#FFD9A9"/>
</g>
<path d="M1159.7 879.6H625.7V869.8H1159.7V879.6Z" fill="#FFC955"/>
<path d="M658.6 579.2C656.8 588.2 660.9 596.5 667.9 598C674.9 599.4 682 593.3 683.8 584.4C685.6 575.5 681.5 567.1 674.5 565.7C667.5 564.2 660.4 570.3 658.6 579.2Z" fill="white"/>
<path d="M1091.1 515.8C1091.1 515.8 1096.3 524.6 1098.5 526.1C1101.5 528 1099.6 530 1098.2 530C1096.8 530 1089.5 530.6 1087.9 528.7C1086.3 526.9 1085.5 521.5 1084 520C1082.5 518.6 1081 513 1084.7 511.6C1088.1 510.4 1091.1 515.8 1091.1 515.8Z" fill="#6069A8"/>
<path d="M1088.8 511.9C1088.8 511.9 1094.8 522.2 1095.8 523.8C1096.9 525.3 1093.9 525.3 1092 524.6C1090.2 523.9 1085.6 516.4 1084.9 515.1C1084.1 513.4 1084.7 511.6 1084.7 511.6L1088.8 511.9Z" fill="#202338"/>
<path d="M1082.7 517.4L1084.1 528.1H1084.8L1084.6 520.5L1082.7 517.4Z" fill="#6069A8"/>
<path d="M1039.2 515.8C1039.2 515.8 1044.4 524.6 1046.6 526.1C1049.6 528 1047.8 530 1046.3 530C1044.9 530 1037.6 530.6 1036 528.7C1034.4 526.9 1033.6 521.5 1032.2 520C1030.7 518.6 1029.1 512.8 1032.9 511.6C1036.2 510.5 1039.2 515.8 1039.2 515.8Z" fill="#6069A8"/>
<path d="M1037.3 511.9C1037.3 511.9 1042.9 522.2 1044 523.8C1045 525.3 1042 525.3 1040.2 524.6C1038.3 523.9 1033.7 516.4 1033 515.1C1032.2 513.4 1032.9 511.6 1032.9 511.6L1037.3 511.9Z" fill="#202338"/>
<path d="M1030.9 517.4L1032.2 528.1H1033L1032.8 520.5L1030.9 517.4Z" fill="#6069A8"/>
<path d="M1016 435.1L1063.3 456.6C1063.3 456.6 1068.6 458.4 1069.2 464.2C1071 482.5 1084.7 511.6 1084.7 511.6C1089.1 513.7 1088.8 511.9 1088.8 511.9C1086 503 1082.7 466.3 1081.5 451.6C1081.2 448.5 1081 446.3 1081 445.7C1081 445.2 1080.5 444.6 1079.6 443.9C1073.1 438.6 1046.4 427.7 1046.4 427.7C1026.3 427.2 1016 435.1 1016 435.1Z" fill="#202338"/>
<path d="M1007.1 444.3C1008.5 457.1 1026.8 455.7 1026.8 455.7H1048.9C1048.9 455.7 1043.1 468.6 1040.9 479.5C1038.5 491.1 1032.9 511.6 1032.9 511.6C1032.9 511.6 1033.2 512.3 1037.2 511.9C1037.2 511.9 1054.6 477.3 1061.3 468.6C1062.7 466.7 1066.8 456.5 1067.5 450.4C1067.7 448.4 1067.6 446.8 1066.8 446.2C1066.1 445.5 1064.3 444.3 1062 442.8C1055 438.5 1043 431.7 1036.3 430.2C1027.3 428.2 1013.1 424.4 1013.1 424.4C1013.1 424.4 1005.6 431.5 1007.1 444.3Z" fill="#202338"/>
<path d="M1022.1 345.8C1022.1 345.8 1018.8 339.5 1020.4 332.8C1022.1 326.1 1028.3 319.4 1037.4 322.5C1046.5 325.6 1053.8 332.6 1048.4 340.8C1042.9 349 1053.3 352.7 1050.7 356.6C1048 360.4 1049 364.5 1050.1 365.4C1051.3 366.3 1054.9 369.5 1054.5 373.4C1054.1 377.2 1036.8 362.2 1036.8 362.2C1036.8 362.2 1027.4 343.3 1022.1 345.8Z" fill="#464240"/>
<path d="M1049.9 426.2C1049.9 426.2 1048.5 432.8 1013.2 424.4C1013.2 424.4 1025 420.5 1049.9 426.2Z" fill="#EB4747"/>
<path d="M1012.8 426.3C1012.2 427.367 1011.63 428.4 1011.1 429.4C1024.03 429.8 1036.97 430.2 1049.9 430.6C1047.8 423.7 1048.5 414.4 1048.8 407.4C1049.3 398.8 1054 392.8 1053.5 384.2C1056.1 384.6 1056.5 384.6 1059.1 385C1055.2 373.9 1053.8 368.4 1041.7 364.1C1037.7 362.7 1035.1 362.4 1030.8 362.7C1016.7 363.9 1012.5 364.1 1005.6 376.8C1016.4 378.6 1014.6 382.4 1017.9 393.2C1019.5 398.5 1021.2 404.3 1020.3 409.9C1019.5 415.3 1012.8 421.3 1012.8 426.3Z" fill="#5F8CC9"/>
<path d="M1035.2 366.8C1029.5 365.7 1030.7 362.5 1030.7 362.5C1030.7 362.5 1031 360.7 1031.1 358.4C1031.1 357.8 1031.1 357.167 1031.1 356.5C1031.1 355.6 1031.1 354.6 1030.9 353.7C1030.5 349.8 1041.4 352.1 1041.4 352.1C1041.4 352.1 1040.8 360 1042.3 362.3C1043.8 364.7 1041 367.9 1035.2 366.8Z" fill="#EEA886"/>
<path d="M1024.2 362.4C1024.2 362.4 1035.9 375.9 1040.2 379C1040.2 379 1045.1 374.5 1042.1 362.7C1042.1 362.7 1036.4 359.9 1024.2 362.4Z" fill="#EEA886"/>
<path d="M1024.5 330.1C1024.5 330.1 1018.5 341.8 1024.5 352.8C1030.5 363.8 1042.3 348 1043 346.1C1043.8 344.3 1047.8 333.8 1039.8 330.6C1031.8 327.4 1026.3 327 1024.5 330.1Z" fill="#EEA886"/>
<path d="M1026.6 334.3C1026.6 334.3 1022.4 339.7 1021.9 343.8C1021.9 343.8 1020.3 336.1 1024.9 328.8C1029.6 321.5 1041.5 328.4 1043.1 331.4C1044.7 334.3 1049.4 336.9 1041.5 349.5C1041.5 349.5 1027.4 339.7 1026.6 334.3Z" fill="#464240"/>
<path d="M1036.2 353.9C1036.2 353.9 1035.2 356.2 1031.1 358.4C1031.1 357.8 1031.1 357.167 1031.1 356.5C1031.1 356.5 1033.9 356.2 1036.2 353.9Z" fill="#A77860"/>
<path d="M975.2 415.8C975.2 415.8 972.3 417.1 970.9 416.5C969.6 415.9 967.5 415.8 966.8 415.8C965.9 415.8 963.1 414.8 963.2 415.9C963.2 417 967.7 417.8 968.6 418.1C969.5 418.4 965.9 420.5 965.5 421.3C965.2 422.2 969.3 428.1 971.6 426.4C974 424.8 975.2 421.4 975.7 421.2C976.2 421 977.4 420.1 977.4 420.1L975.2 415.8Z" fill="#EEA886"/>
<path d="M966 420.8C966 420.8 959.3 426.4 959.1 427.2C959 427.9 959.4 428.3 960 427.8C960.7 427.3 966.7 422.6 966.7 422.6C966.7 422.6 960 430.5 959.8 431.1C959.6 431.5 960.3 432.2 960.6 432C961 431.7 968.2 424.2 968.2 424.2C968.2 424.2 961.9 431.7 961.9 432.2C961.8 432.7 962.6 433.2 963.1 432.7C963.6 432.2 969.9 425.6 969.9 425.6C969.9 425.6 965.7 431.4 965.9 431.9C966.1 432.2 966.6 432.8 967.6 431.3C968.7 429.8 971.5 426.5 971.5 426.5L966 420.8Z" fill="#EEA886"/>
<path d="M1046.6 455.7H1026.8C1026.8 455.7 1008.5 457.1 1007.1 444.3C1005.6 431.5 1013.1 424.4 1013.1 424.4C1013.1 424.4 1022.7 427 1031.1 429C1035.4 428.1 1040.4 427.6 1046.4 427.7C1046.4 427.7 1082.1 439.5 1081 445.7C1081 445.7 1066.1 437.7 1046.6 455.7Z" fill="#FFC955"/>
<path d="M1033.7 433.5L1071.5 432.9L1052.4 442.6L1033.7 433.5Z" fill="#FF9E22"/>
<path d="M1045.5 428.7C1045.5 428.7 1037 432 1026.5 429L1026 425.1L1047.5 426.3L1045.5 428.7Z" fill="#5F8CC9"/>
<path d="M1052.4 442.6L1033.7 435.4V433.5L1053.9 440.8L1052.4 442.6Z" fill="#F58C04"/>
<path d="M1045.3 430.5C1045.2 431.9 1046.6 432.9 1047.9 432.3L1050.1 431.4C1050.8 431.1 1051.2 430.4 1051.1 429.7C1050.1 424 1048.2 401.7 1051 397.9C1052.1 396.5 1052.8 395.3 1053.1 394.2C1055 399.1 1057.4 405.3 1058.3 408.7L1076.2 432.5L1082.2 434C1074.7 416 1068.7 406.5 1068.7 406.5C1067.5 403.3 1064.2 393.8 1061.2 385.4C1059.3 380 1057.6 375.1 1056.7 372.4C1056.2 371.1 1055.3 370 1054.1 369.2C1051.3 367.6 1046.7 365 1042.5 363C1042.5 362.933 1042.5 362.9 1042.5 362.9C1042.37 362.833 1042.23 362.767 1042.1 362.7C1050 374.8 1046.9 408.7 1045.3 430.4C1045.3 430.467 1045.3 430.5 1045.3 430.5Z" fill="#EDDAD3"/>
<path d="M1015.8 363.8C1013.3 364.2 1007 370.3 1003.6 376.5C999.8 383.5 995.9 391.6 993 394.2C987.6 399.1 972.6 416.3 971.9 415.8C971.6 415.7 976 421 976.6 421.2C976.8 421.3 1001.3 400.2 1003.6 397C1005.8 393.9 1011.8 381.1 1013.5 381.4C1013.7 381.7 1015.8 386.4 1017.9 393.2C1017.9 393.333 1017.93 393.467 1018 393.6C1019.4 398.3 1019.3 403.5 1018.5 409.4C1017.9 413.8 1014.7 421 1012.7 424.5C1012.4 424.9 1012.5 425.7 1012.8 426.3C1012.9 426.7 1013.1 427 1013.4 427.1L1020.6 429.7L1022.3 430.3C1023.5 430.8 1024.7 430.5 1025.7 429.9C1026.5 429.3 1027 428.4 1027.2 427.4C1028.8 415.1 1030.8 402.6 1032.4 397.9C1039.4 377.2 1029.6 361.6 1029.6 361.6C1029.6 361.6 1018.1 362.9 1015.8 363.8Z" fill="#EDDAD3"/>
<path d="M1052.4 442.6L1063.7 411.9L1099.9 412.5L1089.2 440.8L1052.4 442.6Z" fill="#FF9E22"/>
<path d="M1075.3 425.5C1074.2 427.7 1074.5 430.1 1076 430.9C1077.5 431.7 1079.7 430.5 1080.8 428.3C1081.9 426.1 1081.5 423.7 1080 422.9C1078.5 422.1 1076.4 423.3 1075.3 425.5Z" fill="white"/>
<path d="M1037.1 341.7C1037.1 341.7 1039.4 345.3 1037.2 348.4C1035.1 351.6 1037.8 354.6 1038.3 357.9C1038.7 361.2 1029.3 370 1039.8 374.4C1050.2 378.8 1053.6 371.5 1050.9 367.5C1048.2 363.5 1046.3 360.2 1046.1 354.5C1045.9 348.8 1044 339.9 1037.1 341.7Z" fill="#464240"/>
<path d="M985.9 326.7H1007.7V342.6V345.9L1004.4 342.6H985.9V326.7Z" fill="#FF9E22"/>
<path d="M863.2 569.8C863.2 569.8 815.6 615.1 838.7 650.4C861.9 685.7 872.8 654.8 872.8 654.8C872.8 654.8 888.4 659.5 865.2 616C854.2 595.5 863.2 569.8 863.2 569.8Z" fill="#BBD070"/>
<path d="M775.1 520.6C775.1 520.6 738.8 563.4 787.4 622.6C836 681.8 828.5 713.1 828.5 713.1C828.5 713.1 896.2 610.2 775.1 520.6Z" fill="#97A43C"/>
<path d="M839.5 695.2C862.1 699.8 843.8 634 809.8 613.9C775.9 593.9 745.5 591.9 726.5 572.6C726.5 572.6 728 672.7 839.5 695.2Z" fill="#48753A"/>
<path d="M691.5 724.1C691.5 724.1 692.6 721.5 692.7 721.1C692.9 720.8 693.9 720.1 695.1 719.5C696.3 718.9 698.3 718.6 698.5 718.7C698.7 718.8 698.9 718.8 699.2 719.4C699.5 719.9 699.4 720.5 699.4 720.5C699.4 720.5 700 721 699.9 721.8C699.9 721.8 700.5 722.3 700.1 723.1C700.1 723.1 700.7 723.6 700.4 724.2C700.4 724.2 699.4 724.8 699.1 725.1C698.8 725.5 696.7 726.7 694.4 727.5C694.4 727.5 692 727.5 691.5 724.1Z" fill="#EEA886"/>
<path d="M695.2 722.7C695.2 722.7 695.2 724.1 695.1 724.5C694.9 724.9 697.9 725.8 697.9 725.8C697.9 725.8 696.9 722.7 695.2 722.7Z" fill="#CF8C6C"/>
<path d="M639 858.8L640.3 854.7L645.9 855.6L645 859.3L639 858.8Z" fill="#3B3F66"/>
<path d="M684.6 858.3L684.9 860.6L691 859.5L690.7 856.2L684.6 858.3Z" fill="#555C94"/>
<path d="M671.4 795.2C671.4 795.2 670.5 800.1 669.5 805.5C669.3 806.433 669.1 807.4 668.9 808.4C667.9 813.6 666.9 818.6 666.5 819.7C665.6 822 647 856.2 647 856.2C647 856.2 639.3 855.7 639.1 854.7C639.1 854.7 654.7 817.5 654.6 816.2C654.5 814.8 656.5 776.8 656.5 776.8C656.5 776.8 671 793 671.4 795.2Z" fill="#354C70"/>
<path d="M680 774.6C680 774.6 687.3 812 687.9 814.8C688.5 817.7 691.3 856 691.3 856C691.3 856 689.6 859.4 683.6 858.1C683.6 858.1 675.3 817 674.6 815.6C671.9 810.2 658.6 784.3 657.3 780.6C656.1 776.9 656.4 772.6 656.4 772.6C656.4 772.6 666.3 767.1 680 774.6Z" fill="#354C70"/>
<path d="M676.9 726.2C676.9 726.2 680.1 734.1 680.9 733.9C681.7 733.7 690.9 722.9 690.9 722.9C690.9 722.9 695.1 728.1 694.5 728.7C693.8 729.6 682.9 747.6 681.4 747.3C679.9 747 673.2 735.9 673.2 735.9C673.2 735.9 672.8 727.6 676.9 726.2Z" fill="#DEB135"/>
<path d="M663.2 710.9C663.2 710.9 671.5 717.3 673.8 719.8C676.1 722.3 682.4 732.7 681.9 735.9C680.2 747.9 679.4 758.2 679.3 766.4C679.3 773.6 681.5 775.4 680.1 775.5C678.5 775.6 657.6 783.2 654.5 784.1C654.5 784.1 656.5 758.9 657.6 756C658.6 753.1 654.3 722.6 663.2 710.9Z" fill="#F2C344"/>
<path d="M716.7 698.9L718.5 708.3L720.4 717.6C720.4 717.6 709.7 714.3 697.6 716.7L696.8 712.6L696 708.4C708.1 706 716.7 698.9 716.7 698.9Z" fill="#D9D0C4"/>
<path d="M684.9 860.6C684.9 860.6 689.5 859.7 689.7 859.5C689.9 859.4 690.8 857.6 691.6 857.9C692.3 858.2 692.3 860.4 693 860.8C693.7 861.2 699.2 864.9 699.8 865.6C700.5 866.2 704.7 865.8 705.1 867C705.6 868.2 705.7 871 699.5 870.3C693.3 869.7 686.2 870.7 684.8 869.9C683.5 869.2 684.5 862.3 684.9 860.6Z" fill="#84BDFF"/>
<path d="M638.9 858.7C638.9 858.7 643.6 858.6 643.8 858.4C644 858.3 645.2 856.7 645.9 857.1C646.5 857.5 646.2 859.7 646.8 860.2C647.4 860.7 652.3 865.2 652.8 866C653.4 866.8 657.5 867.1 657.8 868.3C658.1 869.5 657.7 872.3 651.7 870.6C645.7 869 638.5 868.9 637.3 867.9C636.1 867 638.2 860.4 638.9 858.7Z" fill="#84BDFF"/>
<path d="M675.3 776.3C675.3 776.3 675.9 778.6 676.8 779.1C677.6 779.6 672.6 784.5 672.6 784.5C672.6 784.5 670.5 779.9 670.5 779.5C670.6 779 675.3 776.3 675.3 776.3Z" fill="#EEA987"/>
<path d="M659.5 720.8C659.5 720.8 653.5 749.1 653 752C652.6 754.8 670.5 781 670.5 781L676.5 777.5C676.5 777.5 662 751.1 662 749.9C662.1 748.7 669 725.9 669 725.9C669 725.9 671.9 720.9 666.7 718.5C661.6 716.1 659.5 720.8 659.5 720.8Z" fill="#FFD255"/>
<path d="M678.8 778.3C678.8 778.3 680.7 787.9 680.6 790.9C680.5 793.8 669.5 786.2 670 783.3L678.8 778.3Z" fill="#3C5780"/>
<path d="M663.2 710.9C663.2 710.9 678.3 727.4 677.4 725.6C674.1 719.1 671.7 718 671.8 716.8C671.8 715.8 672.2 713.1 672.3 712.2C672.4 710.5 672.5 709.1 672.5 709.1C672.5 709.1 665 698.5 665.3 702.1C665.6 705.7 663.2 710.9 663.2 710.9Z" fill="#EEA886"/>
<path d="M677.6 691.5C677.6 691.5 679.7 696.3 679.7 697.5C679.7 698.6 679.4 699.5 679.6 700.8C679.8 702.2 680.9 705 680.8 705.8C680.6 706.8 678.6 706.3 678.3 707.9C678.1 709.4 676.6 712.4 675.9 712.5C674 712.6 666.8 709.7 666.4 708.2C665.9 706.7 663.3 698.3 662.5 696.7C661.7 695.1 675.1 686.4 676.4 688.9C677.6 691.5 677.6 691.5 677.6 691.5Z" fill="#EEA886"/>
<path d="M659.3 695.1C658.4 690.9 663.1 690.4 663.1 690.4C663.1 690.4 666.2 686.8 673.6 687.2C681.1 687.7 679.9 697.4 679.9 697.4C679.9 697.4 674.8 696.6 672.6 697.2C672.6 697.2 672.3 701.3 672.5 702.3L669.7 702.1C669.7 702.1 670 698.4 668.7 698.2C667.4 698 666.9 706 664.4 707.7C664.4 707.7 664.4 707.2 664.1 706.6C663.6 705.8 662.8 704.3 662.1 702.6C661 700.2 659.8 697.2 659.3 695.1Z" fill="#16202E"/>
<path d="M670.6 699.1C670.6 699.1 669.5 696.3 667.1 698.1C665.3 699.4 667.1 704.2 668.9 704.2C670.6 704.1 671.3 701.6 670.6 699.1Z" fill="#EEA886"/>
<path d="M666 706.9C666 706.9 666.3 708.4 666.7 708.7C667.1 709.1 669 710.6 672.3 711.6L672 714.6C672 714.6 665.6 712.1 666 706.9Z" fill="#C48A6F"/>
<mask id="mask1_0_385" style="mask-type:luminance" maskUnits="userSpaceOnUse" x="692" y="716" width="9" height="12">
<path d="M699.33 726.98L700.4 726.47L695.56 716.21L692.84 717.48L696.95 726.19C697.4 727.16 698.36 727.44 699.33 726.98Z" fill="white"/>
</mask>
<g mask="url(#mask1_0_385)">
<path d="M693 716.2V727.4H692.8V716.2H693Z" fill="#96CBFF"/>
<path d="M693.1 716.2V727.4H693V716.2H693.1Z" fill="#95CAFF"/>
<path d="M693.2 716.2V727.4H693.1V716.2H693.2Z" fill="#94C9FF"/>
<path d="M693.3 716.2V727.4H693.2V716.2H693.3Z" fill="#93C9FF"/>
<path d="M693.4 716.2V727.4H693.3V716.2H693.4Z" fill="#92C8FF"/>
<path d="M693.5 716.2V727.4H693.4V716.2H693.5Z" fill="#91C7FF"/>
<path d="M693.7 716.2V727.4H693.5V716.2H693.7Z" fill="#90C6FF"/>
<path d="M693.8 716.2V727.4H693.7V716.2H693.8Z" fill="#8FC6FF"/>
<path d="M693.9 716.2V727.4H693.8V716.2H693.9Z" fill="#8EC5FF"/>
<path d="M694 716.2V727.4H693.9V716.2H694Z" fill="#8DC4FF"/>
<path d="M694.1 716.2V727.4H694V716.2H694.1Z" fill="#8CC3FF"/>
<path d="M694.2 716.2V727.4H694.1V716.2H694.2Z" fill="#8BC2FF"/>
<path d="M694.4 716.2V727.4H694.2V716.2H694.4Z" fill="#8AC2FF"/>
<path d="M694.5 716.2V727.4H694.4V716.2H694.5Z" fill="#89C1FF"/>
<path d="M694.6 716.2V727.4H694.5V716.2H694.6Z" fill="#88C0FF"/>
<path d="M694.7 716.2V727.4H694.6V716.2H694.7Z" fill="#87BFFF"/>
<path d="M694.8 716.2V727.4H694.7V716.2H694.8Z" fill="#86BFFF"/>
<path d="M694.9 716.2V727.4H694.8V716.2H694.9Z" fill="#85BEFF"/>
<path d="M695.1 716.2V727.4H694.9V716.2H695.1Z" fill="#84BDFF"/>
<path d="M695.2 716.2V727.4H695.1V716.2H695.2Z" fill="#83BCFF"/>
<path d="M695.3 716.2V727.4H695.2V716.2H695.3Z" fill="#82BBFF"/>
<path d="M695.4 716.2V727.4H695.3V716.2H695.4Z" fill="#81BBFF"/>
<path d="M695.5 716.2V727.4H695.4V716.2H695.5Z" fill="#80BAFF"/>
<path d="M695.6 716.2V727.4H695.5V716.2H695.6Z" fill="#7FB9FF"/>
<path d="M695.7 716.2V727.4H695.6V716.2H695.7Z" fill="#7EB8FF"/>
<path d="M695.9 716.2V727.4H695.7V716.2H695.9Z" fill="#7DB7FF"/>
<path d="M696 716.2V727.4H695.9V716.2H696Z" fill="#7CB7FF"/>
<path d="M696.1 716.2V727.4H696V716.2H696.1Z" fill="#7BB6FF"/>
<path d="M696.2 716.2V727.4H696.1V716.2H696.2Z" fill="#7AB5FF"/>
<path d="M696.3 716.2V727.4H696.2V716.2H696.3Z" fill="#79B4FF"/>
<path d="M696.4 716.2V727.4H696.3V716.2H696.4Z" fill="#78B4FF"/>
<path d="M696.6 716.2V727.4H696.4V716.2H696.6Z" fill="#77B3FF"/>
<path d="M696.7 716.2V727.4H696.6V716.2H696.7Z" fill="#76B2FF"/>
<path d="M696.8 716.2V727.4H696.7V716.2H696.8Z" fill="#74B1FF"/>
<path d="M696.9 716.2V727.4H696.8V716.2H696.9Z" fill="#73B0FF"/>
<path d="M697 716.2V727.4H696.9V716.2H697Z" fill="#72B0FF"/>
<path d="M697.1 716.2V727.4H697V716.2H697.1Z" fill="#71AFFF"/>
<path d="M697.3 716.2V727.4H697.1V716.2H697.3Z" fill="#70AEFF"/>
<path d="M697.4 716.2V727.4H697.3V716.2H697.4Z" fill="#6FADFF"/>
<path d="M697.5 716.2V727.4H697.4V716.2H697.5Z" fill="#6EADFF"/>
<path d="M697.6 716.2V727.4H697.5V716.2H697.6Z" fill="#6DACFF"/>
<path d="M697.7 716.2V727.4H697.6V716.2H697.7Z" fill="#6CABFF"/>
<path d="M697.8 716.2V727.4H697.7V716.2H697.8Z" fill="#6BAAFF"/>
<path d="M698 716.2V727.4H697.8V716.2H698Z" fill="#6AA9FF"/>
<path d="M698.1 716.2V727.4H698V716.2H698.1Z" fill="#69A9FF"/>
<path d="M698.2 716.2V727.4H698.1V716.2H698.2Z" fill="#68A8FF"/>
<path d="M698.3 716.2V727.4H698.2V716.2H698.3Z" fill="#67A7FF"/>
<path d="M698.4 716.2V727.4H698.3V716.2H698.4Z" fill="#66A6FF"/>
<path d="M698.5 716.2V727.4H698.4V716.2H698.5Z" fill="#65A6FF"/>
<path d="M698.7 716.2V727.4H698.5V716.2H698.7Z" fill="#64A5FF"/>
<path d="M698.8 716.2V727.4H698.7V716.2H698.8Z" fill="#63A4FF"/>
<path d="M698.9 716.2V727.4H698.8V716.2H698.9Z" fill="#62A3FF"/>
<path d="M699 716.2V727.4H698.9V716.2H699Z" fill="#61A2FF"/>
<path d="M699.1 716.2V727.4H699V716.2H699.1Z" fill="#60A2FF"/>
<path d="M699.2 716.2V727.4H699.1V716.2H699.2Z" fill="#5FA1FF"/>
<path d="M699.3 716.2V727.4H699.2V716.2H699.3Z" fill="#5EA0FF"/>
<path d="M699.5 716.2V727.4H699.3V716.2H699.5Z" fill="#5D9FFF"/>
<path d="M699.6 716.2V727.4H699.5V716.2H699.6Z" fill="#5C9EFF"/>
<path d="M699.7 716.2V727.4H699.6V716.2H699.7Z" fill="#5B9EFF"/>
<path d="M699.8 716.2V727.4H699.7V716.2H699.8Z" fill="#5A9DFF"/>
<path d="M699.9 716.2V727.4H699.8V716.2H699.9Z" fill="#599CFF"/>
<path d="M700 716.2V727.4H699.9V716.2H700Z" fill="#589BFF"/>
<path d="M700.2 716.2V727.4H700V716.2H700.2Z" fill="#579BFF"/>
<path d="M700.3 716.2V727.4H700.2V716.2H700.3Z" fill="#569AFF"/>
<path d="M700.4 716.2V727.4H700.3V716.2H700.4Z" fill="#5599FF"/>
</g>
<path d="M698.1 718.8C698.1 718.8 695.1 720.5 695.3 721C695.5 721.5 695.9 721.6 695.9 721.6L695 722.9C695 722.9 694.8 724 696.2 723.9C696.2 723.9 695.9 724.9 697.2 724.6C697.2 724.6 697.3 725.4 697.9 725.4C698.5 725.3 700.4 724.2 700.4 724.2C700.4 724.2 700.7 723.7 700.1 723.1C700.1 723.1 700.5 722.3 699.9 721.8C699.9 721.8 700 721.1 699.4 720.5C699.4 720.5 699.7 719 698.5 718.7C698.5 718.7 698.3 718.8 698.1 718.8Z" fill="#DB9C7C"/>
<mask id="mask2_0_385" style="mask-type:luminance" maskUnits="userSpaceOnUse" x="687" y="707" width="13" height="12">
<path d="M689.27 718.44L699.95 716.45L698.21 707.7L687.62 710.11L689.27 718.44Z" fill="white"/>
</mask>
<g mask="url(#mask2_0_385)">
<path d="M687.8 707.7V718.4H687.6V707.7H687.8Z" fill="#96CBFF"/>
<path d="M688 707.7V718.4H687.8V707.7H688Z" fill="#95CAFF"/>
<path d="M688.2 707.7V718.4H688V707.7H688.2Z" fill="#94C9FF"/>
<path d="M688.4 707.7V718.4H688.2V707.7H688.4Z" fill="#93C9FF"/>
<path d="M688.6 707.7V718.4H688.4V707.7H688.6Z" fill="#92C8FF"/>
<path d="M688.8 707.7V718.4H688.6V707.7H688.8Z" fill="#91C7FF"/>
<path d="M688.9 707.7V718.4H688.8V707.7H688.9Z" fill="#90C6FF"/>
<path d="M689.1 707.7V718.4H688.9V707.7H689.1Z" fill="#8FC6FF"/>
<path d="M689.3 707.7V718.4H689.1V707.7H689.3Z" fill="#8EC5FF"/>
<path d="M689.5 707.7V718.4H689.3V707.7H689.5Z" fill="#8DC4FF"/>
<path d="M689.7 707.7V718.4H689.5V707.7H689.7Z" fill="#8CC3FF"/>
<path d="M689.9 707.7V718.4H689.7V707.7H689.9Z" fill="#8BC2FF"/>
<path d="M690.1 707.7V718.4H689.9V707.7H690.1Z" fill="#8AC2FF"/>
<path d="M690.3 707.7V718.4H690.1V707.7H690.3Z" fill="#89C1FF"/>
<path d="M690.5 707.7V718.4H690.3V707.7H690.5Z" fill="#88C0FF"/>
<path d="M690.7 707.7V718.4H690.5V707.7H690.7Z" fill="#87BFFF"/>
<path d="M690.8 707.7V718.4H690.7V707.7H690.8Z" fill="#86BFFF"/>
<path d="M691 707.7V718.4H690.8V707.7H691Z" fill="#85BEFF"/>
<path d="M691.2 707.7V718.4H691V707.7H691.2Z" fill="#84BDFF"/>
<path d="M691.4 707.7V718.4H691.2V707.7H691.4Z" fill="#83BCFF"/>
<path d="M691.6 707.7V718.4H691.4V707.7H691.6Z" fill="#82BBFF"/>
<path d="M691.8 707.7V718.4H691.6V707.7H691.8Z" fill="#81BBFF"/>
<path d="M692 707.7V718.4H691.8V707.7H692Z" fill="#80BAFF"/>
<path d="M692.2 707.7V718.4H692V707.7H692.2Z" fill="#7FB9FF"/>
<path d="M692.4 707.7V718.4H692.2V707.7H692.4Z" fill="#7EB8FF"/>
<path d="M692.5 707.7V718.4H692.4V707.7H692.5Z" fill="#7DB7FF"/>
<path d="M692.7 707.7V718.4H692.5V707.7H692.7Z" fill="#7CB7FF"/>
<path d="M692.9 707.7V718.4H692.7V707.7H692.9Z" fill="#7BB6FF"/>
<path d="M693.1 707.7V718.4H692.9V707.7H693.1Z" fill="#7AB5FF"/>
<path d="M693.3 707.7V718.4H693.1V707.7H693.3Z" fill="#79B4FF"/>
<path d="M693.5 707.7V718.4H693.3V707.7H693.5Z" fill="#78B4FF"/>
<path d="M693.7 707.7V718.4H693.5V707.7H693.7Z" fill="#77B3FF"/>
<path d="M693.9 707.7V718.4H693.7V707.7H693.9Z" fill="#76B2FF"/>
<path d="M694.1 707.7V718.4H693.9V707.7H694.1Z" fill="#74B1FF"/>
<path d="M694.3 707.7V718.4H694.1V707.7H694.3Z" fill="#73B0FF"/>
<path d="M694.4 707.7V718.4H694.3V707.7H694.4Z" fill="#72B0FF"/>
<path d="M694.6 707.7V718.4H694.4V707.7H694.6Z" fill="#71AFFF"/>
<path d="M694.8 707.7V718.4H694.6V707.7H694.8Z" fill="#70AEFF"/>
<path d="M695 707.7V718.4H694.8V707.7H695Z" fill="#6FADFF"/>
<path d="M695.2 707.7V718.4H695V707.7H695.2Z" fill="#6EADFF"/>
<path d="M695.4 707.7V718.4H695.2V707.7H695.4Z" fill="#6DACFF"/>
<path d="M695.6 707.7V718.4H695.4V707.7H695.6Z" fill="#6CABFF"/>
<path d="M695.8 707.7V718.4H695.6V707.7H695.8Z" fill="#6BAAFF"/>
<path d="M696 707.7V718.4H695.8V707.7H696Z" fill="#6AA9FF"/>
<path d="M696.2 707.7V718.4H696V707.7H696.2Z" fill="#69A9FF"/>
<path d="M696.3 707.7V718.4H696.2V707.7H696.3Z" fill="#68A8FF"/>
<path d="M696.5 707.7V718.4H696.3V707.7H696.5Z" fill="#67A7FF"/>
<path d="M696.7 707.7V718.4H696.5V707.7H696.7Z" fill="#66A6FF"/>
<path d="M696.9 707.7V718.4H696.7V707.7H696.9Z" fill="#65A6FF"/>
<path d="M697.1 707.7V718.4H696.9V707.7H697.1Z" fill="#64A5FF"/>
<path d="M697.3 707.7V718.4H697.1V707.7H697.3Z" fill="#63A4FF"/>
<path d="M697.5 707.7V718.4H697.3V707.7H697.5Z" fill="#62A3FF"/>
<path d="M697.7 707.7V718.4H697.5V707.7H697.7Z" fill="#61A2FF"/>
<path d="M697.9 707.7V718.4H697.7V707.7H697.9Z" fill="#60A2FF"/>
<path d="M698.1 707.7V718.4H697.9V707.7H698.1Z" fill="#5FA1FF"/>
<path d="M698.2 707.7V718.4H698.1V707.7H698.2Z" fill="#5EA0FF"/>
<path d="M698.4 707.7V718.4H698.2V707.7H698.4Z" fill="#5D9FFF"/>
<path d="M698.6 707.7V718.4H698.4V707.7H698.6Z" fill="#5C9EFF"/>
<path d="M698.8 707.7V718.4H698.6V707.7H698.8Z" fill="#5B9EFF"/>
<path d="M699 707.7V718.4H698.8V707.7H699Z" fill="#5A9DFF"/>
<path d="M699.2 707.7V718.4H699V707.7H699.2Z" fill="#599CFF"/>
<path d="M699.4 707.7V718.4H699.2V707.7H699.4Z" fill="#589BFF"/>
<path d="M699.6 707.7V718.4H699.4V707.7H699.6Z" fill="#579BFF"/>
<path d="M699.8 707.7V718.4H699.6V707.7H699.8Z" fill="#569AFF"/>
<path d="M699.9 707.7V718.4H699.8V707.7H699.9Z" fill="#5599FF"/>
</g>
<path d="M692.8 721.1C692.8 721.1 695.2 721 696.5 721.6C696.8 721.7 697.1 721.8 697.1 722.2C697.1 722.5 696.6 722.9 695.6 723C694.6 723.1 693.3 723.6 693.3 723.6C693.3 723.6 692.2 723.4 692.8 721.1Z" fill="#EEA886"/>
<path d="M669.5 805.5C669.3 806.433 669.1 807.4 668.9 808.4L662.9 792.3C663.7 793.9 669.5 805.5 669.5 805.5Z" fill="#293B57"/>
<path d="M335.9 614.3H240.3C233.2 614.3 227.5 608.6 227.5 601.5V450.4C227.5 443.4 233.2 437.6 240.3 437.6H335.9C343 437.6 348.7 443.4 348.7 450.4V601.5C348.7 608.6 343 614.3 335.9 614.3Z" fill="#FF9E22"/>
<path d="M335.8 551.8H329.5V599.6H335.8V551.8Z" fill="white"/>
<path d="M323.4 557.1H317.1V599.6H323.4V557.1Z" fill="white"/>
<path d="M309.9 564.1H303.6V599.6H309.9V564.1Z" fill="white"/>
<path d="M296.1 572.9H289.8V599.6H296.1V572.9Z" fill="white"/>
<path d="M252.3 567.2L250.9 566.7L262.8 533.5L288.5 526.7L297.7 490.2L317.5 481.5L322 453.1L323.4 453.3L318.8 482.5L298.9 491.3L289.7 527.9L263.9 534.7L252.3 567.2Z" fill="white"/>
<path d="M292.1 524.8C293.4 526.5 293.2 528.9 291.5 530.3C289.9 531.6 287.4 531.4 286.1 529.7C284.7 528.1 285 525.6 286.6 524.3C288.3 522.9 290.7 523.2 292.1 524.8Z" fill="black"/>
<path fill-rule="evenodd" clip-rule="evenodd" d="M292 530.8C290 532.4 287.1 532.1 285.5 530.2C283.9 528.2 284.2 525.3 286.2 523.7C288.1 522.1 291 522.4 292.6 524.4C294.2 526.3 293.9 529.2 292 530.8ZM287.1 524.9C285.8 525.9 285.6 527.9 286.7 529.3C287.7 530.6 289.7 530.8 291.1 529.7C292.4 528.6 292.6 526.6 291.5 525.3C290.4 524 288.4 523.8 287.1 524.9Z" fill="white"/>
<path d="M301.4 488.5C302.8 490.2 302.5 492.6 300.9 493.9C299.2 495.3 296.8 495 295.4 493.4C294.1 491.7 294.3 489.3 296 488C297.6 486.6 300.1 486.9 301.4 488.5Z" fill="black"/>
<path fill-rule="evenodd" clip-rule="evenodd" d="M301.3 494.5C299.4 496.1 296.5 495.8 294.9 493.9C293.3 491.9 293.6 489 295.5 487.4C297.5 485.8 300.4 486.1 302 488.1C303.6 490 303.3 492.9 301.3 494.5ZM296.5 488.5C295.1 489.6 294.9 491.6 296 492.9C297.1 494.3 299.1 494.5 300.4 493.4C301.8 492.3 302 490.3 300.9 489C299.8 487.6 297.8 487.4 296.5 488.5Z" fill="white"/>
<path d="M320.9 479.5C322.3 481.2 322 483.6 320.4 484.9C318.7 486.3 316.3 486 315 484.4C313.6 482.7 313.9 480.3 315.5 479C317.2 477.6 319.6 477.9 320.9 479.5Z" fill="black"/>
<path fill-rule="evenodd" clip-rule="evenodd" d="M320.8 485.5C318.9 487.1 316 486.8 314.4 484.9C312.8 482.9 313.1 480 315.1 478.4C317 476.8 319.9 477.1 321.5 479.1C323.1 481 322.8 483.9 320.8 485.5ZM316 479.5C314.6 480.6 314.4 482.6 315.5 483.9C316.6 485.3 318.6 485.5 319.9 484.4C321.3 483.3 321.5 481.3 320.4 480C319.3 478.6 317.3 478.4 316 479.5Z" fill="white"/>
<path d="M266.5 532C267.8 533.6 267.6 536 265.9 537.4C264.3 538.7 261.9 538.5 260.5 536.9C259.2 535.2 259.4 532.8 261.1 531.4C262.7 530.1 265.1 530.3 266.5 532Z" fill="black"/>
<path fill-rule="evenodd" clip-rule="evenodd" d="M266.4 538C264.4 539.6 261.5 539.3 259.9 537.3C258.3 535.4 258.6 532.5 260.6 530.9C262.5 529.3 265.4 529.6 267 531.5C268.6 533.5 268.3 536.4 266.4 538ZM261.5 532C260.2 533.1 260 535.1 261.1 536.4C262.2 537.7 264.1 537.9 265.5 536.8C266.8 535.7 267 533.8 265.9 532.4C264.8 531.1 262.8 530.9 261.5 532Z" fill="white"/>
<path d="M276.2 495.8H243.1C241.6 495.8 240.3 494.6 240.3 493V490.6C240.3 489 241.6 487.8 243.1 487.8H276.2C277.7 487.8 278.9 489 278.9 490.6V493C278.9 494.6 277.7 495.8 276.2 495.8Z" fill="white"/>
<path d="M276.2 481.8H243.1C241.6 481.8 240.3 480.6 240.3 479V476.6C240.3 475.1 241.6 473.8 243.1 473.8H276.2C277.7 473.8 278.9 475.1 278.9 476.6V479C278.9 480.6 277.7 481.8 276.2 481.8Z" fill="white"/>
<path d="M212.6 502.2C212.6 502.2 211.5 513.3 213.6 516C213.6 516 208.2 514.9 206.9 513C205.7 511.1 212.6 502.2 212.6 502.2Z" fill="#16202E"/>
<path d="M246.3 537.5C246.3 537.5 248.3 536.2 248.6 536C248.9 535.8 249.9 535.8 251.1 535.9C252.2 536.1 253.7 536.8 253.8 537C253.9 537.1 254.1 537.3 254 537.8C253.9 538.3 253.6 538.7 253.6 538.7C253.6 538.7 253.8 539.3 253.3 539.8C253.3 539.8 253.5 540.4 252.9 540.9C252.9 540.9 253 541.5 252.6 541.8C252.6 541.8 251.6 541.7 251.2 541.8C250.8 541.9 248.7 541.7 246.8 541.2C246.8 541.2 244.5 540.7 246.3 537.5Z" fill="#EEA886"/>
<path d="M249.7 538.4C249.7 538.4 249.1 539.4 248.8 539.6C248.5 539.8 250.3 541.8 250.3 541.8C250.3 541.8 250.9 539.1 249.7 538.4Z" fill="#CF8C6C"/>
<path d="M245.2 537.7C245.2 537.7 246.4 537.5 247.2 537.2C247.9 536.8 247 541 247 541C247 541 245.2 539.7 244 539.7C242.8 539.7 245.2 537.7 245.2 537.7Z" fill="#EEA886"/>
<path d="M194.1 649.2C194.1 649.2 198 654.8 199.3 656C199.3 656 202 657.4 202.1 658.5C202.3 660.6 202.4 661.9 198.8 662C195.3 662.1 193.1 662 192.4 659.8C191.8 657.7 190.7 656 190.7 656L190.4 661.6H189.6C189.6 661.6 189.3 656 189.2 655.2C189.2 654.4 188.6 651.3 190.3 650C192 648.6 194.1 649.2 194.1 649.2Z" fill="#162D40"/>
<path d="M199.8 656.3C199.8 656.3 197.9 656.8 195.7 656.3C193.4 655.7 191.2 650.3 190.5 649.8L189.9 647.6H194.4C194.4 647.6 194.4 649.2 195.1 650.6C195.8 652 199.8 656.3 199.8 656.3Z" fill="#162D40"/>
<path d="M219.1 647.1C219.1 647.1 219.7 648.5 220.8 649.9C221.6 650.9 224.1 655.2 225.2 655.5C226.3 655.8 229.7 656.4 230 658.3C230.3 660.2 230.4 661.5 227.1 661.7C223.7 661.8 221.6 662 220 659.7C218.4 657.3 215.8 655.7 215.8 655.7V661.8H214.5C214.5 661.8 213.9 655.4 213.6 655C213.2 654.5 212.3 649.6 215.4 647.1C218.5 644.5 219.1 647.1 219.1 647.1Z" fill="#162D40"/>
<path d="M225.2 655.5C225.2 655.5 222.2 656.2 221.1 655.5C219.9 654.8 216 648.2 214.7 647.8C214.7 647.8 216 645.2 219.1 647.1C219.1 647.1 224.3 654.4 225.2 655.5Z" fill="#162D40"/>
<path d="M192.4 555.7C192.4 555.7 188.2 561.1 187.1 567.6C185.9 574.1 187.8 595.9 187.7 599.1C187.7 602.4 184.9 612.3 185.5 618.4C186.1 624.4 189.2 649.7 189.2 649.7L196.5 649.6C196.5 649.6 195 622.3 195.4 619.8C195.8 617.2 197 606.4 197.1 605.4C197.3 604.3 205.4 576.7 205.4 572C205.4 567.3 202.6 548 192.4 555.7Z" fill="#1D3B54"/>
<path d="M213.6 557.8C213.6 557.8 220.5 584.2 221.3 587.9C222.2 591.5 223.8 596.3 223.7 597C223.7 597.6 222.9 608.9 222.9 608.9L220.9 647.3H213.6C213.6 647.3 211.3 622.9 210.9 618C210.5 613 213.6 605.4 212.8 603.3C212.1 601.2 200.8 577.1 200.8 577.1C200.8 577.1 192.3 550.1 213.6 557.8Z" fill="#1D3B54"/>
<path d="M211.5 518.3C211.5 518.3 214.2 518.5 216.3 520.8C218.4 523 220.4 526.6 220.9 527.8C221.5 529 229.1 540 229.5 540.3C229.9 540.5 233.3 539.7 236 539.4C240.4 539.1 246.9 536.8 246.9 536.8L247.9 541.8C247.9 541.8 231.8 547 228 546.1C223.5 545 213 531.5 213 531.5C213 531.5 205.2 522.3 211.5 518.3Z" fill="#EDDAD3"/>
<path d="M206.6 516.3C206.6 516.3 210.2 518 211.5 518.3C212.7 518.5 217.5 524.8 218.4 527.1C219.2 529.4 218.4 532.8 216.6 536.8C214.9 540.9 216.5 542.2 215.7 546.2C214.9 550.3 214.9 561.3 215.1 563.5C215.2 565.8 192 570 187.4 565.9C187.4 565.9 190.5 555.6 194.3 551.7C195.1 550.8 195 545.2 194.4 543.9C193.9 542.5 187.7 532.1 187.7 532.1C187.7 532.1 187.3 521.5 189.9 519.4C192.3 517.6 198.7 516.9 199.8 516.5C201 516.1 204.3 516 206.6 516.3Z" fill="#EDDAD3"/>
<path d="M207.8 524.3L210 521.8L208.1 515C208.1 515 207.4 518.8 207.8 524.3Z" fill="#D1C0BA"/>
<path d="M194.1 518.3C194.1 518.3 189.6 517 187 521.9C184.4 526.9 185.1 529.6 184.5 531.9C183.9 534.1 181.5 549.1 181.3 549.7C181.2 550.4 178.9 558 179.2 560.3C179.5 562.7 181.6 580.4 181.5 581C181.4 581.6 185.7 580.4 185.7 580.4C185.7 580.4 185.5 562.3 185.6 560.8C185.8 559.3 185.9 551.5 187.1 549.5C188.2 547.5 190.9 535.1 191.5 533.9C192.1 532.6 197.9 519.9 194.1 518.3Z" fill="#EEA886"/>
<path d="M208.3 512.2C208.3 512.2 207.6 518.8 207.8 520.9C207.8 520.9 204 524.6 199.8 516.5C199.8 516.5 201.6 513.2 200.3 508.7C198.9 504.1 208.3 512.2 208.3 512.2Z" fill="#EEA886"/>
<path d="M207.8 520.9V524.3L203.8 520.8L207.8 520.9Z" fill="#EEA886"/>
<path d="M207.8 524.3L206 522.1L200 516.1L197.8 517.1L207.8 524.3Z" fill="#D1C0BA"/>
<path d="M210 521.8L212.7 522.5L208.1 515L210 521.8Z" fill="#FAE6DE"/>
<path d="M206 522.1L203.5 526.1L197.7 517L200.2 515.7L206 522.1Z" fill="#FAE6DE"/>
<path d="M218.8 538.3C218.8 538.3 219.7 532.4 218.7 528.7C218.7 528.7 218.2 531.7 216.9 536.2L218.8 538.3Z" fill="#D1C0BA"/>
<path d="M190.9 537.5C190.9 537.5 193.4 529.3 193.5 528.9C193.5 528.9 193.4 536.4 192.4 540.1C192.4 540.1 191.5 538.6 190.9 537.5Z" fill="#D1C0BA"/>
<path d="M283.2 496.4L244.2 545.6L245.6 546.6L283.2 496.4Z" fill="#54281A"/>
<path d="M253.5 536.9C253.5 536.9 250.6 536.6 250.5 537.1C250.4 537.6 250.6 537.8 250.6 537.8L249.4 538.2C249.4 538.2 248.7 539 249.7 539.5C249.7 539.5 249 540.1 250.1 540.5C250.1 540.5 249.8 541.1 250.2 541.4C250.7 541.7 252.6 541.8 252.6 541.8C252.6 541.8 253 541.6 252.9 540.9C252.9 540.9 253.5 540.5 253.3 539.8C253.3 539.8 253.8 539.4 253.6 538.7C253.6 538.7 254.5 537.8 253.8 537C253.8 537 253.6 536.9 253.5 536.9Z" fill="#DB9C7C"/>
<path d="M248.7 536C248.7 536 250.4 537 251.1 538C251.2 538.3 251.3 538.5 251.2 538.7C251 539 250.5 539 249.7 538.6C249 538.2 247.8 538 247.8 538C247.8 538 247.1 537.3 248.7 536Z" fill="#EEA886"/>
<path d="M205.3 489.8C205.3 489.8 211.9 489.6 213.1 497.4C214.3 505.3 211.5 512.1 210.4 513.2C209.3 514.3 202.7 513.5 201.2 509.4C199.6 505.4 197.4 502.4 197.7 498.9C198 495.4 197.2 489.7 205.3 489.8Z" fill="#EEA886"/>
<path d="M213.4 500.4C213.4 500.4 215.2 490.7 206.4 488.9C197.7 487.2 194.6 493.2 193.8 496.7C192.9 500.3 193.9 510.3 193.9 510.3C193.9 510.3 199.7 515.5 203.2 516.8C203.2 516.8 200.3 506.1 201.4 498.4C201.4 498.4 208.5 499.5 213.3 498.4C213.3 498.4 213.4 500 213.4 500.4Z" fill="#16202E"/>
<path d="M208.2 513.7C208.2 513.7 205.9 513.6 202.8 511.6C202.8 511.6 205 514.4 208 515.4C208 515.4 208.2 514 208.2 513.7Z" fill="#A77860"/>
<path d="M198.2 582.8L172.8 587L169.7 568.1L195.2 564L198.2 582.8Z" fill="#366E9C"/>
<path d="M180.7 586.7C180.7 586.7 180.3 586 180.2 585.6C180.2 585.6 180.2 585 180.2 584.5C180.133 584.3 180.1 584.167 180.1 584.1C180 583.8 179.8 583 179.8 582.1C179.9 581.2 181.1 577.4 181.1 577.4L183.4 577.5L185.5 577.2C185.5 577.2 188 582.1 188.1 583C188.1 583.067 188.1 583.133 188.1 583.2C188.1 583.9 187.7 584.4 187.7 584.8C187.7 585 187.3 586.3 187 586.5C186.5 586.8 186 586.7 185.7 586.5C185.7 586.5 184.6 587 183.9 586.8C183.9 586.8 183 587.3 182.1 586.7C182.1 586.7 181.1 587.1 180.7 586.7Z" fill="#EEA886"/>
<path d="M194.1 518.3C194.1 518.3 189.6 517 187 521.9C184.4 526.9 184.4 529.1 184.1 531.5C183.8 533.8 180.6 547.4 180.5 548.1C180.3 548.7 179.3 557.2 179.2 560.3C179.1 562.7 179.7 578.2 179.6 578.8C179.5 579.4 186.7 577.7 186.7 577.7C186.7 577.7 185.9 563.4 186.1 562C186.2 560.5 186.6 553 187.3 550.8C188.1 548.3 191.5 535.3 192.1 534C192.7 532.8 197.9 519.9 194.1 518.3Z" fill="#EDDAD3"/>
<path d="M427.6 652.3L428.1 647.9C428.1 647.9 421.9 647.9 421.2 648.4C421.2 648.4 421.7 652.1 421.8 652.6C421.9 653.2 427.6 652.3 427.6 652.3Z" fill="#5C544D"/>
<path d="M417.1 661.5C424.5 661.4 428 661.9 428.8 660.7C429.6 659.5 427.7 651.9 427.7 651.9C427.7 651.9 425.9 652.6 421.7 652.2C421.7 652.2 419.9 654.4 418.1 655.4C416.4 656.3 413.6 656.7 412.5 657.7C411.8 658.4 409.8 661.5 417.1 661.5Z" fill="#3C4145"/>
<path d="M386.3 652.3L386.8 647.9C386.8 647.9 380.6 647.9 379.9 648.4C379.9 648.4 380.4 652.1 380.5 652.6C380.5 653.2 386.3 652.3 386.3 652.3Z" fill="#5C544D"/>
<path d="M375.8 661.5C383.1 661.3 386.7 661.9 387.5 660.7C388.3 659.5 386.3 651.9 386.3 651.9C386.3 651.9 384.7 652.6 380.4 652.2C380.4 652.2 378.6 654.4 376.8 655.4C375 656.3 368.5 657.1 367.5 658.1C366.7 658.8 365.5 661.7 375.8 661.5Z" fill="#3C4145"/>
<path d="M419.2 553.5C419.2 553.5 422.2 562.6 421.8 570.5C421.4 578.3 423.4 587 424.2 595.2C425.1 604.3 428.8 626 429 630.9C429.1 635.8 428.4 651.4 428.4 651.4L421 651.6C421 651.6 414.7 613.7 413.1 609.8C411.5 606 403.5 578.4 403.2 575.3C402.9 572.2 419.2 553.5 419.2 553.5Z" fill="#DBD8E3"/>
<path d="M387.9 555.1C387.9 555.1 383.8 576.7 383.3 581.5C382.7 586.3 382.4 604.8 382.1 607.8C381.8 610.8 380.3 647.1 378.9 651.6H388.4C388.4 651.6 395.7 625.2 395.7 612.7C395.7 600.2 401.3 585.5 404.9 577.2C408.6 569 416.9 568.8 419.2 553.5C419.2 553.5 390.9 550.3 387.9 555.1Z" fill="#DBD8E3"/>
<path d="M407.2 481.5C407.2 481.5 399.7 478.7 396.3 484.4C392.8 490.1 393.1 501.5 396.9 502.9C400.7 504.3 406.4 503.6 408.3 500C410.2 496.5 412 491.3 411.9 487.8C411.8 484.4 409.2 482.5 407.2 481.5Z" fill="#EEA886"/>
<path d="M398.2 502.6C398.2 502.6 398.5 504.5 398 505.5C397.5 506.5 407.4 506.5 407.4 506.5C407.4 506.5 408.2 501.2 409.7 496.8C411.3 492.3 398.2 502.6 398.2 502.6Z" fill="#EEA886"/>
<path d="M409.7 496.8C409.7 496.8 409.1 497.9 406.3 497.5C403.5 497 400 493.3 398.9 492.9C397.7 492.5 397.7 491.8 397.7 491.8L397 492.9L395.7 493C395.7 493 396.9 489.6 395.2 488.3C393.4 486.9 396.9 477.5 405.9 480.6C405.9 480.6 412.3 481.9 412.7 485.8C413.1 490 411.3 494.8 409.7 496.8Z" fill="#FCCCA2"/>
<path d="M397.4 505.4C397.4 505.4 397.4 503.5 398.3 503.4C399.1 503.2 407.5 502.4 408.5 502.8V504.9C408.5 504.9 406.6 506.2 397.4 505.4Z" fill="#E2D2CA"/>
<path d="M397.9 490.4C398 489.7 399.7 487.9 400.4 489.9C401 491.9 399.4 494.6 398.5 494.4C397.6 494.1 397.5 492.1 397.9 490.4Z" fill="#EEA886"/>
<path d="M397.4 505.4C397.4 505.4 392.8 507.1 387.4 509.3C387.4 509.3 381.3 511.6 380.6 518.4C380.3 522 376.4 541.1 375.7 542.8C375 544.4 366.5 570.4 366.2 570.9C365.9 571.4 373.1 574.4 373.6 574.2C374.1 574 381.8 550.5 382.6 548.8C382.6 548.8 387.1 534.7 387.2 532.6C387.2 532.6 387.3 538.6 387.6 540.2C387.8 541.9 383.6 574.5 383.7 575.4C383.8 576.3 402.9 577.4 410.5 576.6C418.1 575.8 424.2 574 424.2 574C424.2 574 418.2 548.3 418.4 545.5C418.8 539.2 420.9 527.5 420.9 527.5L427.1 539.2L419.2 559.7L421 565.9C421 565.9 435.7 543.6 436.2 541.5C436.7 539.5 435.5 536.9 434.7 535.2C433.9 533.6 428.8 520.8 427.6 519C426.4 517.2 424.4 510 419.5 508C415.4 506.3 408.5 504.9 408.5 504.9L397.4 505.4Z" fill="#63A4FF"/>
<path d="M387.2 582.7L352.5 573.8L358.7 549.5L393.5 558.4L387.2 582.7Z" fill="#F25F54"/>
<path d="M363.2 576.2C363.2 576.2 362.2 577.8 361.8 578.3C361.4 578.7 362.7 579 363.2 578.5C363.8 578.1 363.2 576.2 363.2 576.2Z" fill="#C98462"/>
<path d="M370.4 581.7C370.4 581.7 371 581.1 371.1 580.7C371.1 580.7 371.3 579.9 371.4 579.4C371.467 579.267 371.533 579.133 371.6 579C371.7 578.7 372.2 577.9 372.4 576.9C372.5 575.9 373 571.5 373 571.5L370.3 570.8L368.1 570.4C368.1 570.4 363.4 575 363.2 575.9C363.133 576.033 363.1 576.133 363.1 576.2C363 577 363.2 577.6 363.2 578C363.2 578.2 363.2 579.7 363.6 580C364.1 580.4 364.6 580.5 365 580.4C365 580.4 366 581.1 366.8 581.1C366.8 581.1 367.8 581.8 368.8 581.4C368.8 581.4 369.8 582.1 370.4 581.7Z" fill="#DE9D7D"/>
<path d="M380.9 553.6C380.9 553.6 374.7 572.2 373.6 574.2C373.6 574.2 369.1 573.3 366.2 570.9L373 550.7L380.9 553.6Z" fill="#63A4FF"/>
<path d="M937.7 582.7C937.7 582.7 960.6 515.5 916.9 494.7C873.1 473.9 836 504 829 520.3C822 536.5 823.9 566.2 829.8 586.8C835.8 607.5 835 638.9 822 649.4C809 660 792.9 677.4 793.7 713C794.2 735 880.5 656.6 880.5 656.6L937.7 582.7Z" fill="#252E3B"/>
<path d="M876.2 662.6C876.2 662.6 840.3 670.6 826.1 678.9C811.8 687.2 780.1 725.6 780.1 742.1C780.1 758.6 918.6 774 918.6 774L944.9 869.8C944.9 869.8 1014.9 852.7 1023.2 838.6C1031.6 824.4 996.6 722.8 990.7 702.3C984.6 681.3 959.5 666.7 930.3 662.6C901.1 658.5 876.2 662.6 876.2 662.6Z" fill="#323657"/>
<path d="M927.8 662.3C927.8 662.3 927 706 892.4 707.3C857.7 708.6 864.9 665.4 864.9 665.4C864.9 665.4 890.3 655.1 927.8 662.3Z" fill="#EEA886"/>
<path d="M942.5 530.5C942.5 530.5 954.7 600.7 919.8 651.5C883.7 704 942.5 530.5 942.5 530.5Z" fill="#252E3B"/>
<path d="M920.4 631.4C920.4 631.4 918 652.3 922 665.3C926 678.3 869 678.6 869.1 668C869.1 655.8 874.9 645.7 869.4 624.9C864 604.1 920.4 631.4 920.4 631.4Z" fill="#EEA886"/>
<path d="M876.2 634.1C876.2 634.1 894.2 652.8 917.2 636C917.2 636 915.3 648 898.7 649.6C882.2 651.1 876.2 634.1 876.2 634.1Z" fill="#A77860"/>
<path d="M898.7 506.1C898.7 506.1 944.2 519.6 937.7 582.7C931.2 645.8 901.5 642.5 898.7 643C895.9 643.5 860.7 645.8 849.5 569.2C838.4 492.7 898.7 506.1 898.7 506.1Z" fill="#EEA886"/>
<path d="M887 534.3C887 534.3 911.7 573.6 937.7 582.7C937.7 582.7 951.9 516.7 893.2 502.9C834.6 489.1 843.8 569.5 848.1 591C848.1 591 860.4 559.4 887 534.3Z" fill="#252E3B"/>
<path d="M853.8 528.4C853.8 528.4 866.8 503.2 888.8 502C910.8 500.9 923.8 520 923.8 520C923.8 520 915.2 498.5 888.8 498.5C862.4 498.5 853.8 528.4 853.8 528.4Z" fill="#88C0FF"/>
<path d="M943.2 726.4L958.7 869.8H755.7L740.3 726.4H943.2Z" fill="#FF9E22"/>
<path fill-rule="evenodd" clip-rule="evenodd" d="M953.8 864.9H749L733.4 719.8H938.2L953.8 864.9ZM750.6 863.1H951.8L936.6 721.5H735.4L750.6 863.1Z" fill="#5FA0FF"/>
<path d="M862.1 795.8C863.9 804.7 859.7 813.1 852.8 814.5C845.8 815.9 838.7 809.9 836.9 801C835.1 792 839.2 783.7 846.2 782.2C853.1 780.8 860.2 786.9 862.1 795.8Z" fill="white"/>
<path d="M939.5 855.4H977.3V869.8H939.5V855.4Z" fill="#FF9E22"/>
<path fill-rule="evenodd" clip-rule="evenodd" d="M821.7 439.4C804.5 439.4 790.5 425.4 790.5 408.1C790.5 390.9 804.5 376.9 821.7 376.9C838.9 376.9 852.9 390.9 852.9 408.1C852.9 425.4 838.9 439.4 821.7 439.4ZM821.7 378.7C805.5 378.7 792.3 391.9 792.3 408.1C792.3 424.4 805.5 437.6 821.7 437.6C838 437.6 851.2 424.4 851.2 408.1C851.2 391.9 838 378.7 821.7 378.7Z" fill="#FF9E22"/>
<path d="M271.1 756.8V754.1C276.4 754.1 281.7 754 286.9 753.7L287 756.4C281.8 756.6 276.4 756.8 271.1 756.8ZM255.1 756.6C249.9 756.5 244.5 756.2 239.2 755.9L239.3 753.3C244.6 753.6 250 753.8 255.2 754L255.1 756.6ZM303 755.2L302.7 752.6C308 752.1 313.3 751.6 318.5 750.9L318.8 753.5C313.6 754.2 308.2 754.8 303 755.2ZM223.2 754.6C217.8 754 212.4 753.4 207.4 752.5L207.8 749.9C212.8 750.7 218.1 751.4 223.5 751.9L223.2 754.6ZM334.6 751.3L334.2 748.7C339.3 747.8 344.5 746.8 349.8 745.7L350.3 748.3C345 749.4 339.7 750.4 334.6 751.3ZM191.6 749.4C186.3 748.1 181.1 746.6 176.2 745L177.1 742.4C181.9 744.1 187 745.6 192.2 746.8L191.6 749.4ZM365.9 744.9L365.3 742.3C370.1 741.1 375.2 739.8 380.7 738.4L381.4 740.9C375.8 742.4 370.8 743.7 365.9 744.9ZM161.4 738.9C156.4 736.6 151.7 733.9 147.4 731L148.8 728.8C153.1 731.6 157.7 734.2 162.5 736.5L161.4 738.9ZM396.8 736.7L396.1 734.2C398.3 733.533 400.5 732.9 402.7 732.3C405.633 731.5 408.533 730.7 411.4 729.9L412.1 732.4C409.233 733.2 406.333 734.033 403.4 734.9C401.2 735.5 399 736.1 396.8 736.7ZM535.1 734.5C530.2 732.2 525.3 730.2 520.6 728.4L521.5 725.9C526.3 727.7 531.3 729.8 536.3 732.1L535.1 734.5ZM427.4 728.3L426.7 725.7C432.4 724.2 437.5 723 442.3 722.1L442.8 724.7C438.1 725.6 433 726.8 427.4 728.3ZM505.4 724C500.3 722.8 495 721.9 489.9 721.4L490.1 718.8C495.4 719.3 500.7 720.2 506 721.4L505.4 724ZM458.4 722L458.1 719.4C463.6 718.7 468.9 718.3 474.1 718.2V720.8C469 720.9 463.9 721.3 458.4 722ZM134.7 721.1C130.7 717.4 127.1 713.4 123.9 709.1L126 707.5C129.1 711.7 132.6 715.6 136.5 719.2L134.7 721.1ZM115.5 695.3C113.2 690.6 111.2 685.5 109.7 680.3L112.2 679.5C113.7 684.6 115.6 689.5 117.9 694.1L115.5 695.3ZM106.4 664.5C105.7 659.4 105.3 654 105.3 648.5H107.9C108 653.8 108.3 659.1 109 664.2L106.4 664.5ZM108.8 632.6L106.1 632.4C106.6 627.2 107.5 621.8 108.5 616.5L111.1 617C110.1 622.3 109.3 627.5 108.8 632.6ZM114.8 601.6L112.3 600.9C115 591.6 117.4 585.9 117.5 585.7L119.9 586.7C119.9 586.8 117.5 592.5 114.8 601.6Z" fill="#FF9E22"/>
<path d="M958.2 279.5C958.2 279.5 953.8 275.6 945.8 269.7L947.4 267.5C955.5 273.5 960 277.5 960 277.6L958.2 279.5ZM932.8 260.4C928.4 257.5 923.9 254.7 919.4 251.9L920.8 249.7C925.3 252.4 929.9 255.3 934.3 258.2L932.8 260.4ZM905.6 244.1C900.9 241.5 896.2 239.1 891.4 236.9L892.6 234.5C897.3 236.7 902.1 239.2 906.8 241.7L905.6 244.1ZM877 230.4C872.1 228.4 867.1 226.5 862.2 224.7L863.1 222.2C868.1 224 873.1 225.9 878 228L877 230.4ZM675.3 227.1V224.5C680.4 224.4 685.7 223.9 690.9 223L691.4 225.6C686 226.5 680.6 227 675.3 227.1ZM659.3 226.3C654.1 225.7 648.8 224.6 643.5 223.2L644.2 220.6C649.3 222 654.5 223 659.6 223.7L659.3 226.3ZM707.1 222L706.3 219.4C708.033 218.933 709.767 218.4 711.5 217.8C714.8 216.7 718.2 215.7 721.5 214.7L722.3 217.3C718.9 218.2 715.6 219.2 712.3 220.3C710.567 220.9 708.833 221.467 707.1 222ZM847.2 219.7C842.1 218.2 836.9 216.8 831.9 215.7L832.5 213.1C837.6 214.3 842.8 215.6 848 217.2L847.2 219.7ZM628.2 218.1C623.6 216.3 618.8 214.2 613.6 211.7L614.7 209.3C619.9 211.7 624.6 213.8 629.2 215.6L628.2 218.1ZM737.6 213.5L737 210.9C742.2 209.9 747.6 209 752.8 208.4L753.2 211C747.9 211.7 742.7 212.5 737.6 213.5ZM816.2 212.6C811 211.7 805.7 211 800.5 210.5L800.8 207.9C806.1 208.4 811.4 209.1 816.7 210L816.2 212.6ZM349.7 210L348.3 207.8C352.8 204.8 357.4 202 361.8 199.3L363.2 201.6C358.8 204.3 354.2 207.1 349.7 210ZM768.9 209.7L768.7 207C774 206.8 779.4 206.7 784.8 206.9L784.7 209.5C779.4 209.4 774.1 209.4 768.9 209.7ZM599.3 204.3C594.8 201.9 590.3 199.4 585.4 196.6L586.7 194.3C591.6 197 596.1 199.6 600.5 202L599.3 204.3ZM377 193.6L375.7 191.3C380.4 188.7 385.2 186.2 389.8 183.9L391 186.3C386.4 188.5 381.7 191 377 193.6ZM571.6 188.8C566.4 185.9 561.8 183.5 557.5 181.4L558.7 179C563 181.1 567.6 183.6 572.8 186.4L571.6 188.8ZM405.5 179.6L404.4 177.2C409.4 175 414.4 173 419.3 171.2L420.2 173.7C415.4 175.5 410.4 177.5 405.5 179.6ZM543.2 174.8C538.1 172.6 533.3 170.8 528.4 169.2L529.2 166.7C534.2 168.3 539.1 170.2 544.2 172.4L543.2 174.8ZM435.2 168.8L434.5 166.2C439.7 164.7 445 163.4 450.1 162.4L450.6 165C445.6 166 440.4 167.3 435.2 168.8ZM513.2 165C508.1 163.9 502.9 163.1 497.7 162.5L498 159.9C503.2 160.4 508.6 161.3 513.8 162.4L513.2 165ZM466.2 162.6L465.9 159.9C471.3 159.4 476.7 159.1 481.9 159.1V161.7C476.8 161.7 471.5 162 466.2 162.6Z" fill="#FF9E22"/>
<path d="M627.5 763.6L560.8 744.2L580.8 738.2L627.5 763.6Z" fill="#FF9E22"/>
<path d="M627.5 763.6L602.6 738.6L587.2 741.7L627.5 763.6Z" fill="#FFA83A"/>
<path d="M576.1 748.7L576.7 756.4L627.5 763.6L576.1 748.7Z" fill="#FF9105"/>
<path d="M291.7 254.3L350.5 221.4L330.3 220.1L291.7 254.3Z" fill="#FFA83A"/>
<path d="M291.7 254.3L309.8 225.2L325 224.8L291.7 254.3Z" fill="#FF9E22"/>
<path d="M337 229L338.2 236.4L291.7 254.3L337 229Z" fill="#FF9105"/>
<defs>
<linearGradient id="paint0_linear_0_385" x1="272394" y1="141046" x2="367747" y2="141046" gradientUnits="userSpaceOnUse">
<stop stop-color="#FFD9A9"/>
<stop offset="1" stop-color="#FFC57C"/>
</linearGradient>
<linearGradient id="paint1_linear_0_385" x1="69314.4" y1="60801" x2="122780" y2="55308.3" gradientUnits="userSpaceOnUse">
<stop stop-color="#FFD9A9"/>
<stop offset="1" stop-color="#FFC57C"/>
</linearGradient>
</defs>
</svg>
