<svg version="1.2" xmlns="http://www.w3.org/2000/svg" viewBox="0 0 1113 1024" width="1113" height="1024"><style>.a{fill:#ffb100}.b{fill:#ffb817}.c{fill:#f3f3f3}.d{fill:#ffe9ba}.e{fill:#f3a43d}.f{fill:#fed150}.g{fill:#ffe984}.h{fill:#efcd92}.i{fill:#ffd9a7}.j{fill:#e66254}.k{fill:#52456b}.l{fill:#675781}.m{fill:#afae35}.n{fill:#d8d844}.o{fill:#efc18f}.p{fill:#ffd9a8}.q{fill:#9b4d34}.r{fill:#f7f7fc}</style><g style="opacity:.3"><path class="a" d="m543.6 1023.5h-9.3v-117.8l45.6-45.6v-707.1l-44.3-44.4v-101.7h9.3v97.9l44.3 44.3v714.9l-45.6 45.5zm296-273.2h-9.3v-154.8l-114.1-114.2v-234.3l-50.2-50.2v-82.4h9.3v78.6l50.2 50.1v234.4l114.1 114.2z"/><path class="a" d="m838.3 680.4l-6.6-6.5 75.6-75.7v-160.9l-92.6-92.7v-81.6h9.3v77.8l92.6 92.6v168.7z"/><path class="a" d="m815.7 569.5h-9.3v-100.4l69.6-69.7 6.6 6.6-66.9 66.9zm99.5-22l-6.5-6.6 56.3-56.3v-71.3h9.3v75.2zm-266 394.6h-9.2v-115.3l52.4-52.5v-553.1h9.3v557l-52.5 52.5z"/><path class="a" d="m805.7 785.7h-9.2v-110.3l-102.6-102.6 6.5-6.6 105.3 105.4zm-314.8 207.1h-9.3v-59.4l-33.1-33.2v-741.5l33.3-27.8v-93.3h9.3v97.6l-33.3 27.8v733.4l33.1 33.1z"/><path class="a" d="m367.3 274.3h-9.3v-74l125.2-125.1 6.5 6.5-122.4 122.4zm-104.8 489.9h-9.3v-255.2l68.2-68.2 6.5 6.6-65.4 65.5z"/><path class="a" d="m329.3 199.4v631.6h-9.3v-631.6zm-245.3 390.9l-6.6-6.5 106.4-106.4v-141.8h9.3v145.7zm132.7-278.4v406.5h-9.3v-406.5z"/><path class="b" d="m134.3 640.7l74.5-74.5 6.6 6.6-74.5 74.5z"/><path class="a" d="m295.4 473.3l-46.3-46.3v-156.7h9.3v152.9l43.6 43.6zm655.9 36.1v130.6h-9.3v-130.6zm34.3 96.3h-9.2v-68.7l29.4-29.5v-53.5h9.3v57.3l-29.5 29.5zm-850.4-212.3v143.7h-9.3v-143.7zm-32.1 32.1v144h-9.3v-144zm65.7 78v113.9h-9.3v-113.9zm619.6 38.8h-9.3v-192.1l-28-28v-122.8h9.3v119l28 28zm-169.5-484.4v914.6h-9.3v-914.6zm-83.2 853l-43.4-43.5v-692.7l19.2-24.2v-138.1h9.3v141.4l-19.2 24.2v685.6l40.7 40.7z"/></g><path class="b" d="m876.3 598.2v-19.1c-16.2-0.6-31.9-4.2-41.1-8.7l7.2-23.5c10.2 4.6 24.5 8.8 40.2 8.8 13.8 0 23.2-4.4 23.2-12.4 0-7.7-7.7-12.5-25.6-17.5-25.9-7.2-43.6-17.3-43.6-36.8 0-17.7 15-31.6 40.9-35.8v-19.1h23.7v17.7c16.2 0.6 27.1 3.4 35.1 6.6l-7 22.7c-6.3-2.2-17.5-6.8-34.9-6.8-15.7 0-20.8 5.6-20.8 11.2 0 6.7 8.5 10.9 29.1 17.3 28.8 8.5 40.4 19.5 40.4 37.7 0 17.8-15.3 33.1-43.1 37.2v20.5z"/><path fill-rule="evenodd" class="b" d="m559.1 265.7v267.3h-9.8v-267.3zm27.4 55.5v267.4h-9.9v-267.4zm26.1-101.1v267.3h-9.8v-267.3zm28 137.8v267.3h-9.9v-267.3zm-304.3 68.9c-17.9 41.8-66.3 61.2-108.1 43.4-41.9-17.9-61.3-66.3-43.4-108.1 17.8-41.9 66.2-61.3 108.1-43.4 41.8 17.8 61.2 66.2 43.4 108.1zm-28.3-12.1c11.3-26.2-0.9-56.6-27.2-67.8-26.2-11.2-56.6 1-67.8 27.2-11.2 26.3 1 56.6 27.2 67.8 26.3 11.3 56.6-0.9 67.8-27.2z"/><path fill-rule="evenodd" class="b" d="m292.5 408c-7.6 17.6-27.9 25.8-45.5 18.3-17.6-7.5-25.8-27.9-18.3-45.5 7.6-17.6 27.9-25.8 45.5-18.3 17.6 7.6 25.8 27.9 18.3 45.5zm4.9-61.9l-30.3-12.9 25.9-51 23.3 10zm-69.9 154.7l-23.3-9.9 18.6-54 30.4 12.8zm89.2-112.6l-10.4-31.3 55.3-14.4 8 24.1zm-9.4 50.4l11.1-31.1 52.4 22.7-8.5 23.9zm-159.1-72.6l9-23.7 54.6 16.7-11.7 30.8zm53.6-71l22.9-10.9 27.8 49.9-29.8 14.1zm115.6 199.5l-23.1 10.4-26.9-50.4 30-13.5zm-116.2-94.2l9.8 31.5-55.5 13.3-7.6-24.2z"/><path class="c" d="m522.4 740.7c-211.5 0-382.4-23.2-382.4-51.9 0-28.8 170.9-52 382.4-52 211.5 0 382.5 23.2 382.5 52 0 28.7-171 51.9-382.5 51.9z"/><path class="d" d="m733.9 653.3c0 9.8-8.6 17.8-19.2 17.8h-438.4c-10.6 0-19.2-8-19.2-17.8v-257.7c0-9.8 8.6-17.9 19.2-17.9h438.4c10.6 0 19.3 8.1 19.3 17.9v257.7z"/><path  d="m709.5 409.8v246.4h-429.3v-246.4z"/><path class="e" d="m288.5 625.1v35.4h0.5c4.5 9.5 47.2 16.9 99.2 16.9 51.9 0 94.6-7.4 99.2-16.9h0.4v-35.4z"/><path class="f" d="m324.8 626.2v47c10.1 1.5 21.8 2.7 34.7 3.4v-50.4zm41.1 8.5v42.2q4.2 0.2 8.6 0.3v-42.5z"/><path class="g" d="m388.2 641.1c-55.1 0-99.6-7.2-99.6-16 0-8.8 44.5-16 99.6-16 55.1 0 99.6 7.2 99.6 16 0 8.8-44.5 16-99.6 16z"/><path class="e" d="m388.2 638.2c-41.8 0-75.5-5.4-75.5-12.1 0-6.7 33.7-12.1 75.5-12.1 41.7 0 75.5 5.4 75.5 12.1 0 6.7-33.8 12.1-75.5 12.1z"/><path class="f" d="m388.2 638.2c-37.6 0-68-4.9-68-10.9 0-6.1 30.4-10.9 68-10.9 37.6 0 67.9 4.8 67.9 10.9 0 6-30.3 10.9-67.9 10.9z"/><path class="e" d="m278.8 581.5v35.4h0.4c4.6 9.5 47.2 16.9 99.2 16.9 52 0 94.7-7.4 99.2-16.9h0.5v-35.4z"/><path class="f" d="m315 582.6v47c10.1 1.5 21.8 2.7 34.7 3.4v-50.4zm41.1 8.5v42.2q4.3 0.2 8.6 0.3v-42.5z"/><path class="g" d="m378.4 597.5c-55.1 0-99.7-7.1-99.7-16 0-8.8 44.6-16 99.7-16 55.1 0 99.6 7.2 99.6 16 0 8.9-44.5 16-99.6 16z"/><path class="e" d="m378.4 594.6c-41.8 0-75.5-5.4-75.5-12.1 0-6.7 33.7-12.1 75.5-12.1 41.7 0 75.5 5.4 75.5 12.1 0 6.7-33.8 12.1-75.5 12.1z"/><path class="f" d="m378.4 594.6c-37.6 0-67.9-4.9-67.9-10.9 0-6 30.3-10.9 67.9-10.9 37.6 0 67.9 4.9 67.9 10.9 0 6-30.3 10.9-67.9 10.9z"/><path class="e" d="m266.5 537.9v35.5h0.5c4.5 9.4 47.2 16.8 99.2 16.8 52 0 94.6-7.4 99.2-16.8h0.4v-35.5z"/><path class="f" d="m302.8 539.1v46.9c10.1 1.6 21.8 2.7 34.6 3.5v-50.4h-34.6zm41.2 8.4v42.3q4.2 0.2 8.5 0.3v-42.6z"/><path class="g" d="m366.2 553.9c-55.1 0-99.7-7.1-99.7-16 0-8.8 44.6-16 99.7-16 55.1 0 99.6 7.2 99.6 16 0 8.9-44.5 16-99.6 16z"/><path class="e" d="m366.2 551c-41.8 0-75.5-5.4-75.5-12.1 0-6.7 33.7-12.1 75.5-12.1 41.7 0 75.5 5.4 75.5 12.1 0 6.7-33.8 12.1-75.5 12.1z"/><path class="f" d="m366.2 551c-37.6 0-68-4.9-68-10.9 0-6 30.4-10.9 68-10.9 37.5 0 67.9 4.9 67.9 10.9 0 6-30.4 10.9-67.9 10.9z"/><path class="e" d="m288.5 491.4v35.4h0.5c4.5 9.5 47.2 16.9 99.2 16.9 52 0 94.6-7.4 99.2-16.9h0.4v-35.4z"/><path class="f" d="m324.8 492.5v46.9c10.1 1.6 21.8 2.8 34.6 3.5v-50.4zm41.2 8.4v42.3q4.2 0.2 8.6 0.3v-42.6z"/><path class="g" d="m388.2 507.4c-55.1 0-99.7-7.2-99.7-16 0-8.8 44.6-16 99.7-16 55.1 0 99.6 7.2 99.6 16 0 8.8-44.5 16-99.6 16z"/><path class="e" d="m388.2 504.5c-41.8 0-75.5-5.4-75.5-12.1 0-6.7 33.7-12.1 75.5-12.1 41.7 0 75.5 5.4 75.5 12.1 0 6.7-33.8 12.1-75.5 12.1z"/><path class="f" d="m388.2 504.5c-37.6 0-68-4.9-68-10.9 0-6.1 30.4-10.9 68-10.9 37.5 0 67.9 4.8 67.9 10.9 0 6-30.4 10.9-67.9 10.9z"/><path class="e" d="m493.3 622.9v35.4h0.4c4.6 9.5 47.2 16.9 99.2 16.9 52 0 94.7-7.4 99.3-16.9h0.4v-35.4z"/><path class="f" d="m529.6 624v47c10 1.5 21.8 2.7 34.6 3.4v-50.4zm41.2 8.5v42.2q4.2 0.2 8.5 0.3v-42.5z"/><path class="g" d="m592.9 638.9c-55.1 0-99.6-7.1-99.6-16 0-8.8 44.5-16 99.6-16 55.2 0 99.7 7.2 99.7 16 0 8.9-44.5 16-99.7 16z"/><path class="e" d="m592.9 636c-41.7 0-75.4-5.4-75.4-12.1 0-6.7 33.7-12.1 75.4-12.1 41.8 0 75.5 5.4 75.5 12.1 0 6.7-33.7 12.1-75.5 12.1z"/><path class="f" d="m592.9 636c-37.5 0-67.9-4.9-67.9-10.9 0-6 30.4-10.9 67.9-10.9 37.6 0 68 4.9 68 10.9 0 6-30.4 10.9-68 10.9z"/><path class="e" d="m517.5 582v35.5h0.4c4.5 9.4 47.2 16.8 99.2 16.8 52 0 94.6-7.4 99.2-16.8h0.5v-35.5z"/><path class="f" d="m553.7 583.2v46.9c10.1 1.6 21.8 2.7 34.7 3.5v-50.4zm41.1 8.4v42.3q4.3 0.2 8.6 0.3v-42.6z"/><path class="g" d="m617.1 598c-55.1 0-99.6-7.1-99.6-16 0-8.8 44.5-15.9 99.6-15.9 55.1 0 99.7 7.1 99.7 15.9 0 8.9-44.6 16-99.7 16z"/><path class="e" d="m617.1 595.1c-41.8 0-75.5-5.4-75.5-12.1 0-6.7 33.7-12.1 75.5-12.1 41.7 0 75.5 5.4 75.5 12.1 0 6.7-33.8 12.1-75.5 12.1z"/><path class="f" d="m617.1 595.1c-37.6 0-67.9-4.8-67.9-10.9 0-6 30.3-10.9 67.9-10.9 37.6 0 67.9 4.9 67.9 10.9 0 6.1-30.3 10.9-67.9 10.9z"/><path class="h" d="m779.5 656.2v29.9h-572.9v-29.9z"/><path class="b" d="m201.9 606.4v-8.3c-5.8-0.2-11.5-1.8-14.8-3.7l2.6-10.2c3.7 2 8.8 3.8 14.5 3.8 5 0 8.4-1.9 8.4-5.4 0-3.3-2.8-5.4-9.3-7.5-9.3-3.2-15.7-7.5-15.7-16 0-7.6 5.4-13.6 14.8-15.5v-8.2h8.5v7.6c5.8 0.3 9.7 1.5 12.6 2.9l-2.5 9.8c-2.3-0.9-6.3-2.9-12.5-2.9-5.7 0-7.5 2.4-7.5 4.8 0 2.9 3 4.8 10.4 7.5 10.4 3.7 14.6 8.5 14.6 16.3 0 7.8-5.5 14.4-15.5 16.1v8.9z"/><path class="i" d="m836.4 680.3l4.7 9.9-10.1 1.7-5.4-12.9z"/><path class="j" d="m829 688.7c0 0 6.4 3.3 10.1-3.1 0 0 13.4 12.9 3.1 19.1-10.3 6.3-31.4 11.3-35.8 7.4-6.4-5.5 9.9-16.7 22.6-23.4z"/><path class="i" d="m756.8 685.4l0.6 10.9-10-2.2v-14z"/><path class="k" d="m807.2 484.5c0 0 5.7 25-21.7 47.8l-33.1 59.2c0 0 13 62.3 7.2 90.4-2.3 10.8-14.7 6.4-16.1 2.3-9.9-29-28.8-87.3-19-120.3 8.5-28.3 26.5-46.1 26.5-46.1z"/><path class="j" d="m746.8 690.4c0 0 4.6 5.5 10.5 0.9 0 0 7.5 17.1-4.4 18.9-11.9 1.9-33.3-1.4-35.9-6.6-3.8-7.6 15.5-11.7 29.8-13.2z"/><path class="l" d="m807 475.2c0 0 14.8 21-2 52.5l-8.3 67.4c0 0 35.7 52.7 40.9 80.9 2 10.8-11.1 11.5-13.9 8.2-20.2-23.1-59.8-69.9-63.1-104.2-2.9-29.3 7-52.7 7-52.7z"/><path class="m" d="m753.7 412c2.8-2 8.7-5.1 10.8 2.4 2.1 7.5-20.3 46-27.3 51.8-6.9 5.8-52.6 18.2-52.6 18.2 0 0-5-0.5-1.3-6.5l43.4-19.6c0 0 17.3-39.2 27-46.3z"/><path class="n" d="m791.5 411.3c10.8 9 19.4 30.1 21.2 98.2 0.4 15-68.1 11.8-67.8-3.1 0.7-39.9-14.2-67 6.1-92.9 0 0 19.1-20.1 40.5-2.2z"/><path class="o" d="m774.4 385.7c0 0-4.1 11.1 0 18.2 2.7 4.6-17.3 19.8-16.9 13.7 0.6-7.9 4.3-12.7 0-21.5z"/><path class="p" d="m756.9 366.8c-6.3 6.6-12.1 34.6-4.8 40.4 3.1 2.4 15.6-1.2 22.9-13.7 3-5.2 6.6-14.7 1.1-23.8-2.5-4.2-11.8-10.6-19.2-2.9z"/><path class="q" d="m746.1 370c0 0 3.4 4.8 13.9 5.9 10.5 1 12.2 0.3 11.3 2.8-2.8 7.5 5.1 7.4 1.7 16.3-3.4 8.9 3.3 0.9 4.3-0.4 0.9-1.4 9.5-12.4 3-24.8-6.6-12.3-25.3-7.2-34.2 0.2z"/><path class="e" d="m763.5 486.9v33.3h-0.4c-4.3 8.9-44.4 15.9-93.3 15.9-48.9 0-89-7-93.3-15.9h-0.4v-33.3z"/><path class="f" d="m729.4 487.9v44.2c-9.5 1.4-20.5 2.5-32.6 3.2v-47.4zm-38.7 8v39.7q-3.9 0.2-8 0.3v-40z"/><path class="g" d="m669.8 501.9c-51.8 0-93.7-6.7-93.7-15 0-8.3 41.9-15 93.7-15 51.8 0 93.7 6.7 93.7 15 0 8.3-41.9 15-93.7 15z"/><path class="e" d="m669.8 499.2c-39.2 0-71-5.1-71-11.4 0-6.3 31.8-11.4 71-11.4 39.3 0 71 5.1 71 11.4 0 6.3-31.7 11.4-71 11.4z"/><path class="f" d="m669.8 499.2c-35.3 0-63.9-4.6-63.9-10.3 0-5.6 28.6-10.2 63.9-10.2 35.3 0 63.9 4.6 63.9 10.2 0 5.7-28.6 10.3-63.9 10.3z"/><path class="o" d="m754.2 513.8c0 0-19.5 6.4-13.3 8.1 6.2 1.7 11.5 2.8 18.4-4.6z"/><path class="m" d="m780.7 421c1.1-3.2 5-9.8 10.2-4 8.3 9.2 8.7 49.5 6.2 58.2-2.5 8.7-38.4 43.3-38.4 43.3 0 0-5.3-0.2-5.3-5.4l31-42.2c0 0-7.9-38.6-3.7-49.9z"/><path class="r" d="m377.4 499.6c2-2.1 5.4-10.5 5.4-10.5 0 0 3.8 8.2 5.9 10.2 2.1 2.1 10.5 5.4 10.5 5.4 0 0-8.2 3.8-10.2 5.9-2 2.2-5.4 10.5-5.4 10.5 0 0-3.7-8.1-5.9-10.2-2.1-2-10.5-5.3-10.5-5.3 0 0 8.2-3.8 10.2-6zm45.2-53.2c2.1-2.1 5.4-10.5 5.4-10.5 0 0 3.8 8.2 5.9 10.2 2.2 2 10.5 5.4 10.5 5.4 0 0-8.1 3.8-10.2 5.9-2 2.1-5.3 10.5-5.3 10.5 0 0-3.8-8.2-6-10.2-2.1-2-10.4-5.4-10.4-5.4 0 0 8.1-3.8 10.1-5.9zm-109.1 93.4c2-2.2 5.4-10.5 5.4-10.5 0 0 3.8 8.1 5.9 10.2 2.1 2 10.5 5.3 10.5 5.3 0 0-8.2 3.8-10.2 6-2 2.1-5.4 10.4-5.4 10.4 0 0-3.8-8.1-5.9-10.1-2.1-2.1-10.5-5.4-10.5-5.4 0 0 8.2-3.8 10.2-5.9zm16 64.9c2-2.1 5.4-10.5 5.4-10.5 0 0 3.8 8.2 5.9 10.2 2.1 2 10.5 5.4 10.5 5.4 0 0-8.2 3.8-10.2 5.9-2 2.2-5.4 10.5-5.4 10.5 0 0-3.8-8.1-5.9-10.2-2.2-2-10.5-5.4-10.5-5.4 0 0 8.2-3.8 10.2-5.9z"/></svg>