<svg width="1113" height="1059" viewBox="0 0 1113 1059" fill="none" xmlns="http://www.w3.org/2000/svg">
<g clip-path="url(#clip0_32_285)">
<g opacity="0.3">
<path d="M571.6 1085.48H562.3V963.657L607.9 916.498V185.23L563.6 139.312V34.1359H572.9V135.382L617.2 181.196V920.531L571.6 967.586V1085.48ZM867.6 802.945H858.3V642.854L744.2 524.751V282.442L694 230.527V145.31H703.3V226.597L753.5 278.409V520.821L867.6 638.924V802.945Z" fill="#FFB100"/>
<path d="M866.3 730.656L859.7 723.934L935.3 645.646V479.247L842.7 383.378V298.989H852V379.448L944.6 475.213V649.68L866.3 730.656Z" fill="#FFB100"/>
<path d="M843.7 615.965H834.4V512.134L904 440.051L910.6 446.877L843.7 516.064V615.965ZM943.2 593.213L936.7 586.388L993 528.164V454.427H1002.3V532.197L943.2 593.213ZM677.2 1001.3H668V882.06L720.4 827.765V255.761H729.7V831.799L677.2 886.093V1001.3Z" fill="#FFB100"/>
<path d="M804.7 816.555H795.5V702.485L692.9 596.378L699.4 589.553L804.7 698.555V816.555ZM489.9 1030.73H480.6V969.303L447.5 934.969V168.124L480.8 139.374V42.8851H490.1V143.821L456.8 172.571V931.039L489.9 965.27V1030.73Z" fill="#FFB100"/>
<path d="M366.3 287.676H357V211.146L482.2 81.7704L488.7 88.4926L366.3 215.076V287.676ZM261.5 794.32H252.2V530.398L320.4 459.866L326.9 466.692L261.5 534.431V794.32Z" fill="#FFB100"/>
<path d="M328.3 210.215V863.403H319V210.215H328.3ZM82.9999 614.476L76.3999 607.754L182.8 497.717V351.071H192.1V501.751L82.9999 614.476ZM215.7 326.561V746.955H206.4V326.561H215.7Z" fill="#FFB100"/>
<path d="M134.3 662.599L208.8 585.552L215.4 592.378L140.9 669.424L134.3 662.599Z" fill="#FFB817"/>
</g>
<path d="M881.377 642V623.726C868.615 623.152 856.247 619.708 849 615.403L854.672 592.92C862.707 597.321 873.972 601.339 886.34 601.339C897.211 601.339 904.616 597.129 904.616 589.475C904.616 582.108 898.551 577.516 884.45 572.732C864.046 565.844 850.103 556.181 850.103 537.525C850.103 520.59 861.919 507.292 882.323 503.274V485H900.993V501.934C913.754 502.508 922.341 505.187 928.643 508.249L923.129 529.966C918.166 527.862 909.343 523.461 895.636 523.461C883.268 523.461 879.25 528.818 879.25 534.176C879.25 540.586 885.946 544.604 902.174 550.728C924.862 558.86 934 569.384 934 586.796C934 603.826 921.947 618.464 900.047 622.387V642H881.377Z" fill="#FFB817"/>
<path fill-rule="evenodd" clip-rule="evenodd" d="M564.1 266.782V543.218H554.3V266.782H564.1ZM591.5 324.178V600.718H581.6V324.178H591.5ZM617.6 219.623V496.059H607.8V219.623H617.6ZM645.6 362.133V638.569H635.7V362.133H645.6ZM341.3 433.388C323.4 476.617 275 496.68 233.2 478.271C191.3 459.759 171.9 409.705 189.8 366.476C207.6 323.144 256 303.081 297.9 321.593C339.7 340.001 359.1 390.056 341.3 433.388ZM313 420.874C324.3 393.779 312.1 362.34 285.8 350.757C259.6 339.174 229.2 351.791 218 378.887C206.8 406.086 219 437.421 245.2 449.004C271.5 460.69 301.8 448.073 313 420.874Z" fill="#FFB817"/>
<path fill-rule="evenodd" clip-rule="evenodd" d="M297.5 413.945C289.9 432.147 269.6 440.627 252 432.871C234.4 425.114 226.2 404.017 233.7 385.816C241.3 367.614 261.6 359.134 279.2 366.89C296.8 374.75 305 395.744 297.5 413.945ZM302.4 349.93L272.1 336.589L298 283.845L321.3 294.187L302.4 349.93ZM232.5 509.917L209.2 499.679L227.8 443.833L258.2 457.071L232.5 509.917ZM321.7 393.469L311.3 361.099L366.6 346.206L374.6 371.13L321.7 393.469ZM312.3 445.591L323.4 413.428L375.8 436.904L367.3 461.621L312.3 445.591ZM153.2 370.51L162.2 346L216.8 363.27L205.1 395.123L153.2 370.51ZM206.8 297.083L229.7 285.81L257.5 337.416L227.7 351.998L206.8 297.083ZM322.4 503.402L299.3 514.157L272.4 462.035L302.4 448.073L322.4 503.402ZM206.2 405.982L216 438.559L160.5 452.313L152.9 427.286L206.2 405.982Z" fill="#FFB817"/>
<path d="M522.4 766.017C310.9 766.017 140 742.024 140 712.343C140 682.559 310.9 658.566 522.4 658.566C733.9 658.566 904.9 682.559 904.9 712.343C904.9 742.024 733.9 766.017 522.4 766.017Z" fill="#F3F3F3"/>
<path d="M733.9 675.63C733.9 685.764 725.3 694.038 714.7 694.038H276.3C265.7 694.038 257.1 685.764 257.1 675.63V409.121C257.1 398.986 265.7 390.61 276.3 390.61H714.7C725.3 390.61 734 398.986 734 409.121V675.63H733.9Z" fill="#FFE9BA"/>
<path d="M709.5 423.807V678.629H280.2V423.807H709.5Z" fill="black"/>
<path d="M288.5 646.466V683.076H289C293.5 692.901 336.2 700.553 388.2 700.553C440.1 700.553 482.8 692.901 487.4 683.076H487.8V646.466H288.5Z" fill="#F3A43D"/>
<path d="M324.8 647.603V696.21C334.9 697.761 346.6 699.002 359.5 699.726V647.603H324.8ZM365.9 656.394V700.036C368.7 700.174 371.566 700.277 374.5 700.346V656.394H365.9Z" fill="#FED150"/>
<path d="M388.2 663.013C333.1 663.013 288.6 655.567 288.6 646.466C288.6 637.365 333.1 629.919 388.2 629.919C443.3 629.919 487.8 637.365 487.8 646.466C487.8 655.567 443.3 663.013 388.2 663.013Z" fill="#FFE984"/>
<path d="M388.2 660.013C346.4 660.013 312.7 654.429 312.7 647.5C312.7 640.571 346.4 634.986 388.2 634.986C429.9 634.986 463.7 640.571 463.7 647.5C463.7 654.429 429.9 660.013 388.2 660.013Z" fill="#F3A43D"/>
<path d="M388.2 660.013C350.6 660.013 320.2 654.946 320.2 648.741C320.2 642.432 350.6 637.468 388.2 637.468C425.8 637.468 456.1 642.432 456.1 648.741C456.1 654.946 425.8 660.013 388.2 660.013Z" fill="#FED150"/>
<path d="M278.8 601.375V637.985H279.2C283.8 647.81 326.4 655.463 378.4 655.463C430.4 655.463 473.1 647.81 477.6 637.985H478.1V601.375H278.8Z" fill="#F3A43D"/>
<path d="M315 602.513V651.12C325.1 652.671 336.8 653.912 349.7 654.636V602.513H315ZM356.1 611.304V654.946C358.967 655.084 361.833 655.187 364.7 655.256V611.304H356.1Z" fill="#FED150"/>
<path d="M378.4 617.922C323.3 617.922 278.7 610.58 278.7 601.375C278.7 592.275 323.3 584.829 378.4 584.829C433.5 584.829 478 592.275 478 601.375C478 610.58 433.5 617.922 378.4 617.922Z" fill="#FFE984"/>
<path d="M378.4 614.923C336.6 614.923 302.9 609.339 302.9 602.41C302.9 595.481 336.6 589.896 378.4 589.896C420.1 589.896 453.9 595.481 453.9 602.41C453.9 609.339 420.1 614.923 378.4 614.923Z" fill="#F3A43D"/>
<path d="M378.4 614.923C340.8 614.923 310.5 609.856 310.5 603.651C310.5 597.446 340.8 592.378 378.4 592.378C416 592.378 446.3 597.446 446.3 603.651C446.3 609.856 416 614.923 378.4 614.923Z" fill="#FED150"/>
<path d="M266.5 556.285V592.999H267C271.5 602.72 314.2 610.373 366.2 610.373C418.2 610.373 460.8 602.72 465.4 592.999H465.8V556.285H266.5Z" fill="#F3A43D"/>
<path d="M302.8 557.526V606.029C312.9 607.684 324.6 608.822 337.4 609.649V557.526H302.8ZM344 566.213V609.959C346.8 610.097 349.633 610.2 352.5 610.269V566.213H344Z" fill="#FED150"/>
<path d="M366.2 572.832C311.1 572.832 266.5 565.489 266.5 556.285C266.5 547.184 311.1 539.738 366.2 539.738C421.3 539.738 465.8 547.184 465.8 556.285C465.8 565.489 421.3 572.832 366.2 572.832Z" fill="#FFE984"/>
<path d="M366.2 569.833C324.4 569.833 290.7 564.249 290.7 557.32C290.7 550.391 324.4 544.806 366.2 544.806C407.9 544.806 441.7 550.391 441.7 557.32C441.7 564.249 407.9 569.833 366.2 569.833Z" fill="#F3A43D"/>
<path d="M366.2 569.833C328.6 569.833 298.2 564.765 298.2 558.56C298.2 552.355 328.6 547.288 366.2 547.288C403.7 547.288 434.1 552.355 434.1 558.56C434.1 564.765 403.7 569.833 366.2 569.833Z" fill="#FED150"/>
<path d="M288.5 508.196V544.806H289C293.5 554.631 336.2 562.284 388.2 562.284C440.2 562.284 482.8 554.631 487.4 544.806H487.8V508.196H288.5Z" fill="#F3A43D"/>
<path d="M324.8 509.333V557.837C334.9 559.491 346.6 560.732 359.4 561.456V509.333H324.8ZM366 518.021V561.766C368.8 561.904 371.666 562.008 374.6 562.077V518.021H366Z" fill="#FED150"/>
<path d="M388.2 524.743C333.1 524.743 288.5 517.297 288.5 508.196C288.5 499.095 333.1 491.649 388.2 491.649C443.3 491.649 487.8 499.095 487.8 508.196C487.8 517.297 443.3 524.743 388.2 524.743Z" fill="#FFE984"/>
<path d="M388.2 521.744C346.4 521.744 312.7 516.159 312.7 509.23C312.7 502.301 346.4 496.717 388.2 496.717C429.9 496.717 463.7 502.301 463.7 509.23C463.7 516.159 429.9 521.744 388.2 521.744Z" fill="#F3A43D"/>
<path d="M388.2 521.744C350.6 521.744 320.2 516.676 320.2 510.471C320.2 504.163 350.6 499.198 388.2 499.198C425.7 499.198 456.1 504.163 456.1 510.471C456.1 516.676 425.7 521.744 388.2 521.744Z" fill="#FED150"/>
<path d="M493.3 644.19V680.8H493.7C498.3 690.625 540.9 698.278 592.9 698.278C644.9 698.278 687.6 690.625 692.2 680.8H692.6V644.19H493.3Z" fill="#F3A43D"/>
<path d="M529.6 645.328V693.935C539.6 695.486 551.4 696.727 564.2 697.451V645.328H529.6ZM570.8 654.119V697.761C573.6 697.899 576.433 698.002 579.3 698.071V654.119H570.8Z" fill="#FED150"/>
<path d="M592.9 660.737C537.8 660.737 493.3 653.395 493.3 644.19C493.3 635.09 537.8 627.644 592.9 627.644C648.1 627.644 692.6 635.09 692.6 644.19C692.6 653.395 648.1 660.737 592.9 660.737Z" fill="#FFE984"/>
<path d="M592.9 657.738C551.2 657.738 517.5 652.154 517.5 645.225C517.5 638.296 551.2 632.711 592.9 632.711C634.7 632.711 668.4 638.296 668.4 645.225C668.4 652.154 634.7 657.738 592.9 657.738Z" fill="#F3A43D"/>
<path d="M592.9 657.738C555.4 657.738 525 652.671 525 646.466C525 640.261 555.4 635.193 592.9 635.193C630.5 635.193 660.9 640.261 660.9 646.466C660.9 652.671 630.5 657.738 592.9 657.738Z" fill="#FED150"/>
<path d="M517.5 601.893V638.606H517.9C522.4 648.327 565.1 655.98 617.1 655.98C669.1 655.98 711.7 648.327 716.3 638.606H716.8V601.893H517.5Z" fill="#F3A43D"/>
<path d="M553.7 603.134V651.637C563.8 653.291 575.5 654.429 588.4 655.256V603.134H553.7ZM594.8 611.821V655.566C597.667 655.704 600.534 655.808 603.4 655.877V611.821H594.8Z" fill="#FED150"/>
<path d="M617.1 618.44C562 618.44 517.5 611.097 517.5 601.893C517.5 592.792 562 585.449 617.1 585.449C672.2 585.449 716.8 592.792 716.8 601.893C716.8 611.097 672.2 618.44 617.1 618.44Z" fill="#FFE984"/>
<path d="M617.1 615.44C575.3 615.44 541.6 609.856 541.6 602.927C541.6 595.998 575.3 590.413 617.1 590.413C658.8 590.413 692.6 595.998 692.6 602.927C692.6 609.856 658.8 615.44 617.1 615.44Z" fill="#F3A43D"/>
<path d="M617.1 615.44C579.5 615.44 549.2 610.476 549.2 604.168C549.2 597.963 579.5 592.895 617.1 592.895C654.7 592.895 685 597.963 685 604.168C685 610.476 654.7 615.44 617.1 615.44Z" fill="#FED150"/>
<path d="M779.5 678.629V709.551H206.6V678.629H779.5Z" fill="#EFCD92"/>
<path d="M206.9 619.127V610.543C201.1 610.336 195.4 608.681 192.1 606.716L194.7 596.168C198.4 598.236 203.5 600.098 209.2 600.098C214.2 600.098 217.6 598.133 217.6 594.513C217.6 591.1 214.8 588.928 208.3 586.757C199 583.447 192.6 579 192.6 570.21C192.6 562.35 198 556.145 207.4 554.18V545.7H215.9V553.56C221.7 553.87 225.6 555.111 228.5 556.559L226 566.694C223.7 565.763 219.7 563.695 213.5 563.695C207.8 563.695 206 566.177 206 568.659C206 571.658 209 573.623 216.4 576.415C226.8 580.241 231 585.205 231 593.272C231 601.339 225.5 608.164 215.5 609.922V619.127H206.9Z" fill="#FFB817"/>
<path d="M836.4 703.552L841.1 713.791L831 715.549L825.6 702.208L836.4 703.552Z" fill="#FFD9A7"/>
<path d="M829 712.24C829 712.24 835.4 715.652 839.1 709.034C839.1 709.034 852.5 722.375 842.2 728.787C831.9 735.302 810.8 740.473 806.4 736.439C800 730.751 816.3 719.169 829 712.24Z" fill="#E66254"/>
<path d="M756.8 708.827L757.4 720.099L747.4 717.824V703.346L756.8 708.827Z" fill="#FFD9A7"/>
<path d="M807.2 501.06C807.2 501.06 812.9 526.915 785.5 550.494L752.4 611.717C752.4 611.717 765.4 676.147 759.6 705.207C757.3 716.376 744.9 711.826 743.5 707.586C733.6 677.595 714.7 617.302 724.5 583.174C733 553.907 751 535.498 751 535.498L807.2 501.06Z" fill="#52456B"/>
<path d="M746.8 713.998C746.8 713.998 751.4 719.686 757.3 714.928C757.3 714.928 764.8 732.613 752.9 734.474C741 736.439 719.6 733.026 717 727.649C713.2 719.789 732.5 715.549 746.8 713.998Z" fill="#E66254"/>
<path d="M807 491.442C807 491.442 821.8 513.16 805 545.737L796.7 615.44C796.7 615.44 832.4 669.942 837.6 699.105C839.6 710.275 826.5 710.998 823.7 707.586C803.5 683.696 763.9 635.297 760.6 599.824C757.7 569.523 767.6 545.323 767.6 545.323L807 491.442Z" fill="#675781"/>
<path d="M753.7 426.082C756.5 424.014 762.4 420.808 764.5 428.564C766.6 436.32 744.2 476.136 737.2 482.135C730.3 488.133 684.6 500.957 684.6 500.957C684.6 500.957 679.6 500.439 683.3 494.234L726.7 473.964C726.7 473.964 744 433.425 753.7 426.082Z" fill="#AFAE35"/>
<path d="M791.5 425.358C802.3 434.666 810.9 456.487 812.7 526.915C813.1 542.427 744.6 539.118 744.9 523.709C745.6 482.445 730.7 454.419 751 427.633C751 427.633 770.1 406.846 791.5 425.358Z" fill="#D8D844"/>
<path d="M774.4 398.883C774.4 398.883 770.3 410.362 774.4 417.705C777.1 422.462 757.1 438.182 757.5 431.873C758.1 423.703 761.8 418.739 757.5 409.639L774.4 398.883Z" fill="#EFC18F"/>
<path d="M756.9 379.337C750.6 386.163 744.8 415.12 752.1 421.118C755.2 423.6 767.7 419.877 775 406.95C778 401.572 781.6 391.747 776.1 382.336C773.6 377.993 764.3 371.374 756.9 379.337Z" fill="#FFD9A8"/>
<path d="M746.1 382.647C746.1 382.647 749.5 387.611 760 388.748C770.5 389.782 772.2 389.058 771.3 391.644C768.5 399.4 776.4 399.297 773 408.501C769.6 417.705 776.3 409.432 777.3 408.087C778.2 406.64 786.8 395.264 780.3 382.44C773.7 369.719 755 374.994 746.1 382.647Z" fill="#9B4D34"/>
<path d="M763.5 503.542V537.98H763.1C758.8 547.185 718.7 554.424 669.8 554.424C620.9 554.424 580.8 547.185 576.5 537.98H576.1V503.542H763.5Z" fill="#F3A43D"/>
<path d="M729.4 504.576V550.287C719.9 551.735 708.9 552.872 696.8 553.596V504.576H729.4ZM690.7 512.85V553.907C688.1 554.045 685.434 554.148 682.7 554.217V512.85H690.7Z" fill="#FED150"/>
<path d="M669.8 519.055C618 519.055 576.1 512.126 576.1 503.542C576.1 494.958 618 488.029 669.8 488.029C721.6 488.029 763.5 494.958 763.5 503.542C763.5 512.126 721.6 519.055 669.8 519.055Z" fill="#FFE984"/>
<path d="M669.8 516.263C630.6 516.263 598.8 510.988 598.8 504.473C598.8 497.958 630.6 492.683 669.8 492.683C709.1 492.683 740.8 497.958 740.8 504.473C740.8 510.988 709.1 516.263 669.8 516.263Z" fill="#F3A43D"/>
<path d="M669.8 516.262C634.5 516.262 605.9 511.505 605.9 505.61C605.9 499.819 634.5 495.062 669.8 495.062C705.1 495.062 733.7 499.819 733.7 505.61C733.7 511.505 705.1 516.262 669.8 516.262Z" fill="#FED150"/>
<path d="M754.2 531.362C754.2 531.362 734.7 537.98 740.9 539.738C747.1 541.497 752.4 542.634 759.3 534.981L754.2 531.362Z" fill="#EFC18F"/>
<path d="M780.7 435.39C781.8 432.08 785.7 425.255 790.9 431.253C799.2 440.767 799.6 482.445 797.1 491.442C794.6 500.44 758.7 536.222 758.7 536.222C758.7 536.222 753.4 536.015 753.4 530.638L784.4 486.995C784.4 486.995 776.5 447.076 780.7 435.39Z" fill="#AFAE35"/>
<path d="M377.4 516.676C379.4 514.504 382.8 505.817 382.8 505.817C382.8 505.817 386.6 514.298 388.7 516.366C390.8 518.538 399.2 521.951 399.2 521.951C399.2 521.951 391 525.88 389 528.052C387 530.327 383.6 538.911 383.6 538.911C383.6 538.911 379.9 530.534 377.7 528.362C375.6 526.294 367.2 522.881 367.2 522.881C367.2 522.881 375.4 518.951 377.4 516.676ZM422.6 461.658C424.7 459.486 428 450.799 428 450.799C428 450.799 431.8 459.279 433.9 461.348C436.1 463.416 444.4 466.932 444.4 466.932C444.4 466.932 436.3 470.862 434.2 473.034C432.2 475.206 428.9 483.893 428.9 483.893C428.9 483.893 425.1 475.412 422.9 473.344C420.8 471.276 412.5 467.759 412.5 467.759C412.5 467.759 420.6 463.83 422.6 461.658ZM313.5 558.25C315.5 555.975 318.9 547.391 318.9 547.391C318.9 547.391 322.7 555.768 324.8 557.94C326.9 560.008 335.3 563.421 335.3 563.421C335.3 563.421 327.1 567.351 325.1 569.626C323.1 571.798 319.7 580.382 319.7 580.382C319.7 580.382 315.9 572.005 313.8 569.936C311.7 567.765 303.3 564.352 303.3 564.352C303.3 564.352 311.5 560.422 313.5 558.25ZM329.5 625.369C331.5 623.197 334.9 614.51 334.9 614.51C334.9 614.51 338.7 622.99 340.8 625.058C342.9 627.127 351.3 630.643 351.3 630.643C351.3 630.643 343.1 634.573 341.1 636.744C339.1 639.02 335.7 647.603 335.7 647.603C335.7 647.603 331.9 639.226 329.8 637.055C327.6 634.986 319.3 631.47 319.3 631.47C319.3 631.47 327.5 627.54 329.5 625.369Z" fill="#F7F7FC"/>
</g>
<defs>
<clipPath id="clip0_32_285">
<rect width="1113" height="1059" fill="white"/>
</clipPath>
</defs>
</svg>
