<svg width="2500" height="1667" viewBox="0 0 2500 1667" fill="none" xmlns="http://www.w3.org/2000/svg">
<path d="M1999.1 318.397C2000.87 330.333 1999.05 342.526 1993.89 353.431C1988.73 364.336 1980.44 373.463 1970.09 379.658C1959.74 385.853 1947.78 388.836 1935.73 388.23C1923.68 387.625 1912.08 383.457 1902.4 376.256C1892.72 369.054 1885.4 359.142 1881.35 347.774C1877.31 336.406 1876.73 324.093 1879.68 312.394C1882.64 300.695 1888.99 290.136 1897.95 282.053C1906.91 273.97 1918.06 268.727 1930 266.987C1945.98 264.64 1962.24 268.738 1975.19 278.379C1988.15 288.02 1996.75 302.415 1999.1 318.397Z" fill="#EBEBEB"/>
<path d="M1998.8 316.497C1997.67 314.26 1996.78 311.914 1996.13 309.495C1992.33 298.822 1985.69 289.384 1976.93 282.19C1972.86 278.889 1968.38 276.132 1963.6 273.988C1961.04 272.796 1958.38 271.804 1955.67 271.021C1952.84 270.198 1949.95 269.585 1947.03 269.187C1944.02 268.79 1940.98 268.611 1937.93 268.654C1934.79 268.751 1931.66 269.063 1928.57 269.587C1925.48 270.148 1922.44 270.939 1919.47 271.954C1916.57 272.932 1913.76 274.148 1911.07 275.588C1908.46 276.959 1905.96 278.531 1903.6 280.289C1901.32 281.941 1899.17 283.769 1897.17 285.757C1893.42 289.433 1890.18 293.58 1887.5 298.093C1885.17 302.042 1883.28 306.235 1881.87 310.595C1879.85 316.969 1878.83 323.615 1878.83 330.299C1879.1 332.793 1879.1 335.307 1878.83 337.801C1877.73 335.487 1877.14 332.962 1877.1 330.399C1876.37 323.443 1876.94 316.412 1878.77 309.662C1881.53 299.519 1886.83 290.248 1894.17 282.723C1896.24 280.559 1898.46 278.553 1900.83 276.722C1905.98 272.785 1911.72 269.69 1917.83 267.553C1921.04 266.471 1924.31 265.614 1927.63 264.986C1930.94 264.425 1934.28 264.102 1937.63 264.019C1940.92 263.97 1944.21 264.193 1947.47 264.686C1950.62 265.122 1953.73 265.825 1956.77 266.787C1959.67 267.671 1962.5 268.786 1965.23 270.121C1970.3 272.526 1975.01 275.611 1979.23 279.289C1982.95 282.478 1986.29 286.092 1989.17 290.058C1993.22 295.766 1996.18 302.175 1997.9 308.962C1998.73 311.381 1999.04 313.949 1998.8 316.497Z" fill="#E0E0E0"/>
<path d="M1950.83 362.139L1952.5 372.641L1943.13 374.141L1941.5 363.939C1933.13 364.962 1924.65 363.623 1917 360.072L1920.33 347.836C1926.3 350.722 1932.92 352.009 1939.53 351.57L1937.03 335.934C1926.23 335.067 1914.1 333.467 1911.93 320.064C1910.37 310.062 1916.2 300.493 1930.7 296.426L1929.07 286.024L1938.4 284.523L1940.03 294.759C1946.82 294.036 1953.68 294.95 1960.03 297.426L1957.2 309.662C1952.38 307.831 1947.25 306.958 1942.1 307.095L1944.63 323.031C1955.43 323.798 1967.4 325.432 1969.5 338.634C1971 348.47 1965.23 358.038 1950.83 362.139ZM1934.83 322.131L1932.7 308.795C1927.93 310.695 1926.4 313.729 1926.9 316.83C1927.4 319.931 1930.5 321.631 1934.83 322.264V322.131ZM1954.53 342.135C1954.03 338.801 1951.03 337.501 1946.77 336.734L1948.83 349.67C1953.33 348.003 1955.03 345.269 1954.53 342.268V342.135Z" fill="#E0E0E0"/>
<path d="M1736 334.567C1739.06 355.277 1735.9 376.429 1726.94 395.346C1717.97 414.262 1703.6 430.095 1685.64 440.839C1667.67 451.584 1646.93 456.758 1626.02 455.708C1605.12 454.657 1585 447.428 1568.2 434.936C1551.41 422.445 1538.69 405.251 1531.67 385.53C1524.65 365.81 1523.63 344.449 1528.74 324.149C1533.86 303.85 1544.88 285.525 1560.41 271.492C1575.95 257.46 1595.29 248.35 1616 245.316C1629.74 243.285 1643.75 243.984 1657.21 247.371C1670.68 250.759 1683.35 256.769 1694.5 265.059C1705.64 273.348 1715.05 283.754 1722.17 295.681C1729.29 307.608 1733.99 320.822 1736 334.567Z" fill="#EBEBEB"/>
<path d="M1735.5 331.3C1734.87 331.3 1733.77 326.899 1730.9 319.097C1726.94 308.186 1721.32 297.953 1714.23 288.758C1709.32 282.497 1703.73 276.796 1697.57 271.754C1690.51 266.025 1682.74 261.218 1674.47 257.451C1670 255.414 1665.39 253.709 1660.67 252.35C1655.77 250.852 1650.77 249.737 1645.7 249.016C1640.45 248.301 1635.16 247.989 1629.87 248.083C1618.94 248.258 1608.12 250.183 1597.8 253.784C1592.81 255.552 1587.98 257.715 1583.33 260.252C1578.81 262.633 1574.48 265.353 1570.37 268.387C1566.41 271.299 1562.67 274.485 1559.17 277.922C1552.72 284.314 1547.12 291.507 1542.5 299.327C1538.47 306.187 1535.19 313.464 1532.73 321.031C1529.23 332.107 1527.46 343.655 1527.47 355.271C1527.47 363.539 1528 368.174 1527.47 368.274C1526.93 368.374 1525.43 363.906 1524.43 355.438C1523.16 343.348 1524.14 331.127 1527.33 319.397C1532.07 301.808 1541.25 285.734 1554 272.721C1557.65 268.916 1561.61 265.415 1565.83 262.252C1570.15 258.954 1574.7 255.989 1579.47 253.384C1584.49 250.643 1589.73 248.323 1595.13 246.449C1600.69 244.528 1606.38 243.023 1612.17 241.948C1617.96 240.961 1623.82 240.415 1629.7 240.315C1635.41 240.224 1641.12 240.592 1646.77 241.415C1652.22 242.201 1657.6 243.416 1662.87 245.049C1667.9 246.593 1672.82 248.509 1677.57 250.783C1686.36 254.976 1694.54 260.337 1701.9 266.72C1708.24 272.279 1713.9 278.568 1718.77 285.457C1725.82 295.354 1730.96 306.48 1733.93 318.264C1735.93 326.499 1735.97 331.233 1735.5 331.3Z" fill="#E0E0E0"/>
<path d="M1652.23 410.549L1655.13 428.753L1638.9 431.32L1636.07 413.616C1619.83 415.217 1603.57 412.649 1593.53 406.948L1599.27 385.677C1609.62 390.744 1621.1 393.041 1632.6 392.345L1628.23 365.207C1609.5 363.706 1588.4 360.906 1584.67 337.668C1581.93 320.431 1592.07 303.661 1617.27 296.626L1614.37 278.589L1630.63 275.989L1633.47 293.692C1645.19 292.479 1657.04 294.067 1668.03 298.327L1663.33 319.631C1654.98 316.409 1646.08 314.879 1637.13 315.13L1641.53 342.769C1660.27 344.102 1681.03 346.936 1684.7 369.841C1687.23 386.744 1677.23 403.414 1652.23 410.549ZM1624.47 341.302L1620.8 318.231C1612.5 321.565 1609.83 326.832 1610.8 332.2C1611.77 337.568 1616.97 340.068 1624.47 341.302ZM1658.7 376.009C1657.8 370.308 1652.57 367.974 1645.2 366.64L1648.8 389.078C1656.67 386.011 1659.53 381.21 1658.7 376.009Z" fill="#E0E0E0"/>
<path d="M567.722 867.849C569.49 879.786 567.677 891.981 562.512 902.887C557.347 913.794 549.063 922.922 538.709 929.117C528.354 935.312 516.394 938.294 504.344 937.686C492.293 937.079 480.694 932.908 471.015 925.704C461.336 918.499 454.011 908.583 449.969 897.212C445.928 885.842 445.35 873.527 448.309 861.828C451.269 850.128 457.633 839.57 466.595 831.49C475.557 823.41 486.715 818.172 498.655 816.438C514.628 814.11 530.871 818.216 543.82 827.855C556.769 837.494 565.365 851.877 567.722 867.849Z" fill="#FFBC66"/>
<path d="M567.422 865.915C566.297 863.67 565.414 861.312 564.788 858.88C562.488 852.592 559.227 846.698 555.121 841.41C552.3 837.803 549.092 834.516 545.555 831.608C541.486 828.297 537.004 825.529 532.222 823.373C529.659 822.186 527.006 821.205 524.288 820.439C521.464 819.598 518.577 818.985 515.655 818.605C512.64 818.191 509.597 818.013 506.555 818.072C503.415 818.142 500.284 818.443 497.188 818.972C488.149 820.556 479.602 824.22 472.222 829.674C469.945 831.347 467.795 833.186 465.788 835.175C462.047 838.84 458.797 842.976 456.121 847.478C453.8 851.431 451.911 855.622 450.488 859.98C448.473 866.365 447.45 873.022 447.455 879.718C447.737 882.21 447.737 884.727 447.455 887.219C446.358 884.903 445.767 882.38 445.721 879.818C444.989 872.85 445.554 865.808 447.388 859.047C448.672 854.404 450.496 849.929 452.821 845.711C455.553 840.844 458.915 836.36 462.821 832.375C464.88 830.19 467.11 828.172 469.488 826.34C474.657 822.448 480.39 819.367 486.488 817.205C489.696 816.092 492.983 815.223 496.321 814.605C499.628 814.051 502.97 813.739 506.321 813.671C509.666 813.62 513.01 813.832 516.321 814.304C519.461 814.756 522.56 815.459 525.588 816.405C528.489 817.304 531.319 818.419 534.055 819.739C543.561 824.244 551.738 831.136 557.788 839.743C561.842 845.451 564.803 851.86 566.521 858.647C567.311 860.983 567.617 863.456 567.422 865.915Z" fill="#FF9103"/>
<path d="M519.455 911.624L521.122 922.093L511.755 923.593L510.122 913.391C501.766 914.472 493.276 913.177 485.622 909.657L488.955 897.388C494.93 900.292 501.561 901.58 508.188 901.122L505.655 885.485C494.888 884.652 482.722 883.051 480.588 869.649C478.988 859.647 484.822 850.045 499.355 846.011L497.688 835.609L507.055 834.108L508.688 844.31C515.472 843.583 522.332 844.498 528.688 846.978L525.855 859.247C521.046 857.381 515.91 856.508 510.755 856.68L513.288 872.583C524.088 873.35 536.055 874.983 538.155 888.186C539.622 897.921 533.855 907.49 519.455 911.624ZM503.455 871.616L501.322 858.28C496.555 860.214 495.022 863.214 495.522 866.315C496.022 869.415 499.122 871.082 503.455 871.749V871.616ZM523.188 891.62C522.655 888.286 519.655 887.019 515.388 886.252L517.455 899.155C521.988 897.488 523.655 894.721 523.188 891.72V891.62Z" fill="#FF9103"/>
<path d="M442.888 678.544C436.257 682.744 428.53 684.882 420.683 684.688C412.837 684.493 405.225 681.975 398.81 677.451C392.395 672.928 387.466 666.603 384.647 659.276C381.828 651.95 381.245 643.952 382.973 636.294C384.7 628.636 388.66 621.663 394.351 616.257C400.042 610.851 407.209 607.255 414.944 605.925C422.679 604.594 430.635 605.589 437.805 608.783C444.975 611.976 451.036 617.226 455.222 623.867C460.834 632.754 462.687 643.506 460.374 653.76C458.061 664.013 451.772 672.928 442.888 678.544Z" fill="#FFBC66"/>
<path d="M443.955 677.877C443.955 677.677 445.188 676.611 447.288 674.543C450.426 671.519 453.07 668.02 455.122 664.175C458.163 658.528 459.766 652.218 459.788 645.804C459.825 643.965 459.713 642.125 459.455 640.303C459.199 638.408 458.798 636.536 458.255 634.702C457.698 632.795 456.996 630.934 456.155 629.134C454.426 625.456 452.119 622.079 449.322 619.132C447.981 617.679 446.52 616.34 444.955 615.132C443.458 613.894 441.864 612.779 440.188 611.798C438.639 610.8 437.012 609.93 435.322 609.197C432.11 607.936 428.749 607.095 425.322 606.697C422.362 606.397 419.381 606.397 416.422 606.697C412.095 607.145 407.866 608.27 403.888 610.031C402.455 610.821 400.948 611.469 399.388 611.964C399.388 611.964 400.588 610.597 403.355 608.964C407.295 606.691 411.625 605.176 416.122 604.496C419.24 603.997 422.407 603.874 425.555 604.129C429.192 604.44 432.77 605.248 436.188 606.53C438.051 607.207 439.857 608.032 441.588 608.997C443.398 609.967 445.125 611.082 446.755 612.331C450.193 614.997 453.186 618.193 455.622 621.8C456.88 623.633 457.995 625.561 458.955 627.567C459.85 629.508 460.597 631.515 461.188 633.569C461.744 635.557 462.145 637.586 462.388 639.636C462.642 641.604 462.731 643.589 462.655 645.571C462.563 649.211 461.98 652.822 460.922 656.306C459.981 659.329 458.683 662.228 457.055 664.942C454.737 668.868 451.707 672.328 448.122 675.144C446.937 676.334 445.518 677.265 443.955 677.877Z" fill="#FF9103"/>
<path d="M404.155 661.408L398.355 665.175L395.021 660.007L400.655 656.34C397.793 651.658 396.325 646.257 396.421 640.77L404.555 639.503C404.416 643.827 405.404 648.113 407.421 651.939L416.055 646.305C413.721 639.637 411.455 632.002 418.855 627.201C424.321 623.633 431.621 624.534 437.855 632.102L443.588 628.368L446.921 633.535L441.288 637.203C443.493 641.031 444.761 645.327 444.988 649.739L436.921 651.306C436.763 647.953 435.936 644.665 434.488 641.637L425.688 647.371C428.088 654.039 430.288 661.541 422.988 666.275C417.621 669.776 410.388 668.876 404.155 661.408ZM423.621 641.404L430.955 636.603C428.555 634.269 426.355 634.169 424.655 635.269C422.955 636.369 422.855 638.603 423.621 641.37V641.404ZM416.955 658.407C418.755 657.207 418.755 655.073 418.088 652.339L410.955 657.007C413.221 659.207 415.321 659.441 416.955 658.374V658.407Z" fill="#FF9103"/>
<path d="M1793.33 186.704C1786.7 190.913 1778.98 193.06 1771.13 192.873C1763.28 192.686 1755.66 190.174 1749.24 185.654C1742.82 181.134 1737.89 174.811 1735.06 167.484C1732.24 160.157 1731.65 152.157 1733.37 144.496C1735.1 136.835 1739.06 129.858 1744.75 124.449C1750.44 119.04 1757.61 115.441 1765.35 114.11C1773.08 112.778 1781.04 113.773 1788.21 116.968C1795.39 120.164 1801.45 125.416 1805.63 132.06C1811.25 140.938 1813.1 151.682 1810.8 161.93C1808.49 172.178 1802.21 181.089 1793.33 186.704Z" fill="#EBEBEB"/>
<path d="M1794.33 186.038C1794.33 185.837 1795.57 184.771 1797.67 182.704C1800.8 179.679 1803.45 176.18 1805.5 172.335C1806.93 169.718 1808.05 166.943 1808.83 164.066C1809.72 160.804 1810.19 157.444 1810.23 154.064C1810.3 152.161 1810.22 150.255 1810 148.363C1809.74 146.468 1809.34 144.596 1808.8 142.762C1808.25 140.852 1807.55 138.99 1806.7 137.194C1805.84 135.343 1804.83 133.559 1803.7 131.86C1802.58 130.182 1801.35 128.589 1800 127.092C1798.65 125.627 1797.18 124.278 1795.6 123.058C1794.11 121.813 1792.51 120.697 1790.83 119.724C1789.24 118.804 1787.58 118.002 1785.87 117.324C1782.66 116.058 1779.3 115.228 1775.87 114.857C1772.91 114.524 1769.92 114.524 1766.97 114.857C1762.64 115.306 1758.41 116.431 1754.43 118.191C1753.01 118.999 1751.5 119.647 1749.93 120.124C1749.93 120.124 1751.13 118.757 1753.9 117.124C1757.85 114.91 1762.18 113.451 1766.67 112.823C1769.78 112.319 1772.95 112.207 1776.1 112.489C1779.74 112.787 1783.31 113.584 1786.73 114.857C1788.6 115.533 1790.4 116.358 1792.13 117.324C1795.84 119.366 1799.21 121.963 1802.13 125.025C1803.61 126.585 1804.95 128.257 1806.17 130.026C1807.42 131.861 1808.54 133.789 1809.5 135.794C1810.38 137.736 1811.12 139.742 1811.7 141.795C1812.27 143.78 1812.67 145.81 1812.9 147.863C1813.15 149.831 1813.24 151.816 1813.17 153.798C1813.08 157.438 1812.49 161.049 1811.43 164.533C1810.49 167.628 1809.17 170.595 1807.5 173.368C1805.17 177.22 1802.16 180.611 1798.6 183.37C1797.38 184.542 1795.92 185.45 1794.33 186.038Z" fill="#E0E0E0"/>
<path d="M1754.53 169.567L1748.73 173.368L1745.4 168.2L1751.03 164.533C1748.13 159.849 1746.62 154.439 1746.67 148.93L1754.8 147.663C1754.68 151.985 1755.66 156.267 1757.67 160.099L1766.3 154.464C1763.97 147.796 1761.7 140.161 1769.1 135.36C1774.57 131.793 1781.87 132.693 1788.1 140.261L1793.97 136.694L1797.3 141.862L1791.67 145.529C1793.86 149.371 1795.12 153.678 1795.33 158.098L1787.3 159.632C1787.12 156.289 1786.28 153.015 1784.83 149.997L1776.03 155.698C1778.43 162.366 1780.63 169.867 1773.33 174.602C1768 177.936 1760.8 177.035 1754.53 169.567ZM1774 149.563L1781.33 144.796C1778.93 142.428 1776.73 142.328 1775.03 143.429C1773.33 144.529 1773.33 146.696 1774 149.53V149.563ZM1767.33 166.567C1769.13 165.366 1769.13 163.233 1768.47 160.532L1761.33 165.166C1763.6 167.333 1765.67 167.6 1767.33 166.7V166.567Z" fill="#E0E0E0"/>
<path d="M2367.53 1568.18C2367.53 1568.65 1867.17 1569.05 1250.07 1569.05C632.967 1569.05 132.467 1568.65 132.467 1568.18C132.467 1567.71 632.733 1567.31 1250.07 1567.31C1867.4 1567.31 2367.53 1567.68 2367.53 1568.18Z" fill="#263238"/>
<path d="M2230 448.89H960.934C955.73 448.89 950.578 449.915 945.772 451.908C940.965 453.9 936.598 456.821 932.92 460.502C929.243 464.184 926.326 468.554 924.338 473.363C922.35 478.173 921.329 483.327 921.334 488.531V1385.08C921.334 1395.58 925.506 1405.66 932.932 1413.08C940.359 1420.51 950.431 1424.68 960.934 1424.68H1448C1448 1424.68 1479 1520.5 1382.93 1570.11H1838.37C1838.37 1570.11 1730 1532.91 1757.8 1424.68H2230C2240.5 1424.68 2250.58 1420.51 2258 1413.08C2265.43 1405.66 2269.6 1395.58 2269.6 1385.08V488.531C2269.6 483.327 2268.58 478.173 2266.6 473.363C2264.61 468.554 2261.69 464.184 2258.01 460.502C2254.34 456.821 2249.97 453.9 2245.16 451.908C2240.36 449.915 2235.2 448.89 2230 448.89Z" fill="#263238"/>
<path d="M1612.4 1330.27C1629.67 1354.94 1602.67 1381.98 1577.97 1364.71C1577.15 1364.12 1576.44 1363.4 1575.87 1362.57C1558.63 1337.9 1585.63 1310.93 1610.3 1328.17C1611.11 1328.74 1611.82 1329.45 1612.4 1330.27Z" fill="#455A64"/>
<path d="M975.5 465.326H2215.5C2224.08 465.326 2232.3 468.733 2238.36 474.798C2244.43 480.863 2247.83 489.089 2247.83 497.666V1260.69H943.333V497.666C943.333 489.118 946.717 480.917 952.745 474.857C958.772 468.797 966.954 465.37 975.5 465.326Z" fill="white"/>
<path d="M1096.5 644.862H1053.7V1122.82H1096.5V644.862Z" fill="#FF9E20"/>
<path d="M1179.1 807.194H1136.3V1122.82H1179.1V807.194Z" fill="#FF9E20"/>
<path d="M1261.7 704.274H1218.9V1125.26H1261.7V704.274Z" fill="#FF9E20"/>
<path d="M1344.33 663.333H1301.53V1122.82H1344.33V663.333Z" fill="#FF9E20"/>
<path d="M1426.93 816.93H1384.13V1122.82H1426.93V816.93Z" fill="#FF9E20"/>
<path d="M1510 938H1467V1123H1510V938Z" fill="#FF9E20"/>
<path d="M1592 1040H1549V1123H1592V1040Z" fill="#FF9E20"/>
<path d="M1675 1073H1632V1123H1675V1073Z" fill="#FF9E20"/>
<path d="M1757 1024H1715V1123H1757V1024Z" fill="#FF9E20"/>
<path d="M1840 906H1797V1123H1840V906Z" fill="#FF9E20"/>
<path d="M2005 709H1962V1123H2005V709Z" fill="#FF9E20"/>
<path d="M2180 705H2137V1117H2180V705Z" fill="#FF9E20"/>
<path d="M2095 705H2052V1123H2095V705Z" fill="#FF9E20"/>
<path d="M1922.57 787.624H1879.77V1122.82H1922.57V787.624Z" fill="#FF9E20"/>
<path d="M2192.17 705.808C2190.91 705.696 2189.66 705.496 2188.43 705.208L2177.53 702.974C2171.65 701.716 2165.71 700.77 2159.73 700.14C2151.61 699.006 2143.43 698.327 2135.23 698.106C2112.75 697.354 2090.26 699.279 2068.23 703.841C2039.12 710.089 2011.11 720.7 1985.17 735.314C1953.72 753.03 1925.31 775.652 1901 802.327C1874.8 831.066 1852.7 866.573 1830.1 904.148C1807.5 941.722 1784.03 982.063 1750.4 1016.87C1733.58 1034.86 1713.7 1049.72 1691.7 1060.78C1680.28 1066.32 1668.07 1070.06 1655.5 1071.85C1642.73 1073.55 1629.76 1073.11 1617.13 1070.55C1591.73 1064.95 1569.23 1051.61 1550.3 1035.51C1531.73 1019.51 1515.11 1001.37 1500.8 981.463C1472.07 942.789 1451.67 901.114 1429.83 863.139C1408 825.165 1386.1 789.425 1358.93 761.586C1346.07 748.031 1331.3 736.419 1315.1 727.112C1307.48 722.718 1299.56 718.874 1291.4 715.61C1283.51 712.696 1275.44 710.301 1267.23 708.442C1238.22 701.816 1208 702.665 1179.4 710.909C1157.8 717.088 1137.41 726.897 1119.1 739.915C1107.65 748.336 1097.05 757.849 1087.43 768.32L1080 776.555C1079.19 777.538 1078.3 778.452 1077.33 779.289C1077.99 778.205 1078.75 777.189 1079.6 776.255L1086.63 767.587C1096.02 756.779 1106.51 746.98 1117.93 738.348C1136.27 724.915 1156.8 714.762 1178.6 708.342C1207.6 699.631 1238.34 698.484 1267.9 705.008C1300.8 711.676 1334.33 730.479 1361.7 758.685C1389.07 786.891 1411.87 822.665 1433.6 860.806C1455.33 898.947 1476.07 940.388 1504.5 978.562C1518.62 998.194 1535 1016.1 1553.3 1031.91C1571.83 1047.68 1593.7 1060.55 1618.03 1065.91C1630.1 1068.35 1642.49 1068.76 1654.7 1067.15C1666.79 1065.41 1678.54 1061.83 1689.53 1056.51C1711.08 1045.69 1730.55 1031.14 1747.03 1013.54C1780.2 979.429 1803.4 939.155 1826.33 901.847C1849.27 864.54 1871.4 828.499 1898.07 799.627C1922.78 772.796 1951.62 750.084 1983.5 732.347C2009.82 717.744 2038.21 707.254 2067.7 701.24C2089.94 696.816 2112.65 695.136 2135.3 696.239C2143.55 696.578 2151.78 697.413 2159.93 698.74C2165.93 699.493 2171.87 700.606 2177.73 702.074L2188.53 704.774C2189.77 705.022 2190.99 705.367 2192.17 705.808Z" fill="#263238"/>
<path d="M1006.67 1156.13C1005.7 1156.13 1004.9 1019.84 1004.9 851.737C1004.9 683.637 1005.7 547.343 1006.67 547.343C1007.63 547.343 1008.43 683.603 1008.43 851.737C1008.43 1019.87 1007.57 1156.13 1006.67 1156.13Z" fill="#263238"/>
<path d="M2180 1156.13C2180 1157.1 1923.33 1157.87 1606.67 1157.87C1290 1157.87 1033.33 1157.1 1033.33 1156.13C1033.33 1155.16 1290 1154.36 1606.67 1154.36C1923.33 1154.36 2180 1155.16 2180 1156.13Z" fill="#263238"/>
<path d="M1114.73 1193.74C1114.73 1194.71 1100.53 1195.51 1083 1195.51C1065.47 1195.51 1051.23 1194.71 1051.23 1193.74C1051.23 1192.77 1065.43 1191.97 1083 1191.97C1100.57 1191.97 1114.73 1192.77 1114.73 1193.74Z" fill="#263238"/>
<path d="M1220 1195.64C1220 1196.64 1203 1197.41 1182.07 1197.41C1161.13 1197.41 1144.1 1196.64 1144.1 1195.64C1144.1 1194.64 1161.1 1193.91 1182.07 1193.91C1203.03 1193.91 1220 1194.67 1220 1195.64Z" fill="#263238"/>
<path d="M1310 1195.64C1310 1196.64 1293 1197.41 1272.07 1197.41C1251.13 1197.41 1234.1 1196.64 1234.1 1195.64C1234.1 1194.64 1251.1 1193.91 1272.07 1193.91C1293.03 1193.91 1310 1194.67 1310 1195.64Z" fill="#263238"/>
<path d="M1399.73 1195.64C1399.73 1196.64 1382.73 1197.41 1361.8 1197.41C1340.87 1197.41 1323.83 1196.64 1323.83 1195.64C1323.83 1194.64 1340.83 1193.91 1361.8 1193.91C1382.77 1193.91 1399.73 1194.67 1399.73 1195.64Z" fill="#263238"/>
<path d="M1489.57 1195.64C1489.57 1196.64 1472.6 1197.41 1451.63 1197.41C1430.67 1197.41 1413.67 1196.64 1413.67 1195.64C1413.67 1194.64 1430.67 1193.91 1451.63 1193.91C1472.6 1193.91 1489.57 1194.67 1489.57 1195.64Z" fill="#263238"/>
<path d="M1579.43 1195.64C1579.43 1196.64 1562.43 1197.41 1541.47 1197.41C1520.5 1197.41 1503.53 1196.64 1503.53 1195.64C1503.53 1194.64 1520.5 1193.91 1541.47 1193.91C1562.43 1193.91 1579.43 1194.67 1579.43 1195.64Z" fill="#263238"/>
<path d="M1669.27 1195.64C1669.27 1196.64 1652.27 1197.41 1631.3 1197.41C1610.33 1197.41 1593.37 1196.64 1593.37 1195.64C1593.37 1194.64 1610.33 1193.91 1631.3 1193.91C1652.27 1193.91 1669.27 1194.67 1669.27 1195.64Z" fill="#263238"/>
<path d="M1759.1 1195.64C1759.1 1196.64 1742.1 1197.41 1721.13 1197.41C1700.17 1197.41 1683.2 1196.64 1683.2 1195.64C1683.2 1194.64 1700.2 1193.91 1721.13 1193.91C1742.07 1193.91 1759.1 1194.67 1759.1 1195.64Z" fill="#263238"/>
<path d="M1848.93 1195.64C1848.93 1196.64 1831.93 1197.41 1811 1197.41C1790.07 1197.41 1773.03 1196.64 1773.03 1195.64C1773.03 1194.64 1790.03 1193.91 1811 1193.91C1831.97 1193.91 1848.93 1194.67 1848.93 1195.64Z" fill="#263238"/>
<path d="M1938.77 1195.64C1938.77 1196.64 1921.77 1197.41 1900.83 1197.41C1879.9 1197.41 1862.87 1196.64 1862.87 1195.64C1862.87 1194.64 1879.87 1193.91 1900.83 1193.91C1921.8 1193.91 1938.77 1194.67 1938.77 1195.64Z" fill="#263238"/>
<path d="M2022.33 1195.67C2022.33 1196.67 2005.33 1197.44 1984.37 1197.44C1963.4 1197.44 1946.43 1196.67 1946.43 1195.67C1946.43 1194.67 1963.43 1193.94 1984.37 1193.94C2005.3 1193.94 2022.33 1194.71 2022.33 1195.67Z" fill="#263238"/>
<path d="M2105.9 1195.71C2105.9 1196.67 2088.9 1197.47 2067.93 1197.47C2046.97 1197.47 2030 1196.67 2030 1195.71C2030 1194.74 2046.97 1193.97 2067.93 1193.97C2088.9 1193.97 2105.9 1194.74 2105.9 1195.71Z" fill="#263238"/>
<path d="M2189.43 1195.74C2189.43 1196.71 2172.43 1197.51 2151.5 1197.51C2130.57 1197.51 2113.53 1196.71 2113.53 1195.74C2113.53 1194.77 2130.53 1193.97 2151.5 1193.97C2172.47 1193.97 2189.43 1194.77 2189.43 1195.74Z" fill="#263238"/>
<path d="M1443.33 867.407C1443.33 866.673 1448.6 868.507 1450.27 875.675C1451.33 879.812 1450.86 884.197 1448.93 888.011C1447.64 890.524 1445.39 892.418 1442.7 893.278C1439.78 894.099 1436.65 893.728 1434 892.245C1431.6 890.904 1429.63 888.913 1428.32 886.5C1427 884.087 1426.39 881.352 1426.57 878.609C1426.72 876.452 1427.34 874.352 1428.36 872.45C1429.39 870.547 1430.81 868.885 1432.53 867.573C1433.66 866.653 1434.98 865.995 1436.39 865.649C1437.8 865.303 1439.28 865.277 1440.7 865.573C1442.7 866.173 1443.37 867.14 1443.23 867.34C1443.1 867.54 1438.9 866.006 1434.7 870.174C1432.39 872.452 1431.06 875.534 1430.97 878.775C1430.95 880.651 1431.43 882.498 1432.37 884.126C1433.3 885.754 1434.64 887.106 1436.27 888.044C1436.99 888.496 1437.8 888.797 1438.65 888.928C1439.49 889.058 1440.36 889.016 1441.18 888.805C1442.01 888.593 1442.79 888.215 1443.47 887.695C1444.15 887.175 1444.71 886.522 1445.13 885.777C1446.72 882.88 1447.35 879.553 1446.93 876.275C1446.37 870.174 1442.97 867.973 1443.33 867.407Z" fill="#263238"/>
<path d="M2006.47 710.142C2006.47 709.875 2007.83 709.442 2010.2 710.142C2013.47 711.366 2016.18 713.736 2017.83 716.81C2019.16 719.049 2020 721.537 2020.33 724.118C2020.65 726.699 2020.43 729.318 2019.7 731.813C2018.83 735.072 2016.94 737.968 2014.31 740.074C2011.68 742.18 2008.44 743.386 2005.07 743.515C2003.26 743.433 2001.49 742.958 1999.88 742.123C1998.28 741.288 1996.87 740.114 1995.77 738.681C1993.83 736.247 1992.48 733.393 1991.83 730.346C1991.19 727.83 1991.08 725.209 1991.49 722.646C1991.9 720.083 1992.84 717.632 1994.23 715.443C1999.5 708.008 2006 708.375 2005.77 708.775C2006.07 709.475 2000.63 710.509 1997.13 717.01C1995.28 720.771 1994.91 725.092 1996.1 729.113C1997.23 733.513 2000.63 738.548 2005.23 738.581C2007.58 738.389 2009.82 737.495 2011.66 736.015C2013.5 734.535 2014.85 732.536 2015.53 730.279C2016.84 726.324 2016.59 722.021 2014.83 718.244C2013.07 714.656 2010.11 711.792 2006.47 710.142Z" fill="#263238"/>
<path d="M1520.97 222.745H662.267V891.178H1520.97V222.745Z" fill="white"/>
<path d="M1520.97 891.178C1520.97 884.51 1520.67 626.125 1520.17 222.744L1520.97 223.545H662.367L663.333 222.578C663.333 463.526 663.333 691.405 663.333 891.011L662.467 890.145L1521.17 891.011L662.467 891.878H661.6V891.011C661.6 691.405 661.6 463.526 661.6 222.578V221.611H662.667H1521.27H1522.07V222.411C1521.3 626.125 1521 884.51 1520.97 891.178Z" fill="#263238"/>
<path d="M843.167 310.562H704.167V318.297H843.167V310.562Z" fill="#263238"/>
<path d="M772.867 328.666H704.167V336.4H772.867V328.666Z" fill="#263238"/>
<path d="M808.567 795.125H783.4V802.394H808.567V795.125Z" fill="#263238"/>
<path d="M872.567 833.933H840.367V841.201H872.567V833.933Z" fill="#263238"/>
<path d="M984.667 833.933H952.467V841.201H984.667V833.933Z" fill="#263238"/>
<path d="M1096.77 833.933H1064.57V841.201H1096.77V833.933Z" fill="#263238"/>
<path d="M1208.87 833.933H1176.67V841.201H1208.87V833.933Z" fill="#263238"/>
<path d="M1320.97 833.933H1288.77V841.201H1320.97V833.933Z" fill="#263238"/>
<path d="M1433.07 833.933H1400.87V841.201H1433.07V833.933Z" fill="#263238"/>
<path d="M808.567 698.206H783.4V705.474H808.567V698.206Z" fill="#263238"/>
<path d="M808.567 515.77H783.4V523.038H808.567V515.77Z" fill="#263238"/>
<path d="M808.567 424.084H783.4V431.353H808.567V424.084Z" fill="#263238"/>
<path d="M809.867 606.988H784.7V614.256H809.867V606.988Z" fill="#263238"/>
<path d="M1432.17 802.393C1432.17 802.393 1431.27 802.393 1429.47 802.393H1421.53L1391.07 802.56L1279.03 802.86L909.333 803.094H820.867V802.227C820.867 678.569 821.1 569.747 821.167 491.798C821.167 452.857 821.367 421.784 821.433 400.113C821.433 389.411 821.433 381.109 821.433 375.441C821.433 372.641 821.433 370.54 821.433 369.04C821.433 367.54 821.433 366.873 821.433 366.873C821.433 366.873 821.433 367.607 821.433 369.04C821.433 370.474 821.433 372.641 821.433 375.441C821.433 381.109 821.433 389.411 821.433 400.113C821.433 421.651 821.433 452.857 821.7 491.798C821.7 569.747 821.867 678.502 822 802.227L821.133 801.36H909.333L1279.03 801.627L1391.07 801.893L1421.53 802.06H1429.47L1432.17 802.393Z" fill="#263238"/>
<path d="M1439.27 610.622C1439.27 611.088 1306.47 611.489 1142.6 611.489C978.734 611.489 845.934 611.088 845.934 610.622C845.934 610.155 978.7 609.755 1142.6 609.755C1306.5 609.755 1439.27 610.122 1439.27 610.622Z" fill="#263238"/>
<path d="M1439.27 519.404C1439.27 519.871 1306.47 520.271 1142.6 520.271C978.734 520.271 845.934 519.871 845.934 519.404C845.934 518.937 978.7 518.537 1142.6 518.537C1306.5 518.537 1439.27 518.937 1439.27 519.404Z" fill="#263238"/>
<path d="M1439.27 427.719C1439.27 428.219 1306.47 428.586 1142.6 428.586C978.734 428.586 845.934 428.219 845.934 427.719C845.934 427.219 978.7 426.852 1142.6 426.852C1306.5 426.852 1439.27 427.252 1439.27 427.719Z" fill="#263238"/>
<path d="M1439.27 701.84C1439.27 702.307 1306.47 702.707 1142.6 702.707C978.734 702.707 845.934 702.307 845.934 701.84C845.934 701.373 978.7 700.973 1142.6 700.973C1306.5 700.973 1439.27 701.373 1439.27 701.84Z" fill="#263238"/>
<path d="M852.2 782.756V701.84L902.634 623.458L936.867 649.73L1007.1 540.608L1048.53 569.78L1106.17 469.093L1152.83 507.268L1223.33 373.774L1299 523.038L1360 448.356L1432.03 427.719V782.756H852.2Z" fill="#FFC986"/>
<path d="M1439.27 398.979C1438.85 399.008 1438.42 399.008 1438 398.979H1434.23H1419.63L1364.33 399.213L1364.7 399.013L1305.43 476.762L1305.2 477.028H1304.87H1156.53L1157.27 476.628L1094.9 580.449C1073.67 615.79 1053.1 649.963 1033.67 682.236L1033.03 683.336L1032.3 682.303L951.9 571.847H953.067L880 686.137L859.634 717.743C857.3 721.344 855.5 724.111 854.233 726.012C852.967 727.912 852.333 728.812 852.333 728.812C852.333 728.812 852.9 727.812 854.067 725.911L859.267 717.543C863.9 710.175 870.667 699.406 879.267 685.703L951.933 571.114L952.5 570.247L953.134 571.081L1033.7 681.403H1032.3L1093.33 579.649L1155.77 475.828L1156 475.428H1156.67L1305 475.595L1304.47 475.861L1364.1 398.713V398.513H1364.33L1419.63 398.746H1434.23H1438L1439.27 398.979Z" fill="black"/>
<path d="M976.667 597.419C976.713 598.556 976.419 599.68 975.822 600.648C975.224 601.615 974.351 602.382 973.315 602.85C972.278 603.317 971.125 603.464 970.005 603.271C968.884 603.078 967.847 602.555 967.026 601.767C966.205 600.98 965.639 599.965 965.399 598.854C965.16 597.742 965.258 596.584 965.682 595.528C966.106 594.473 966.835 593.568 967.777 592.931C968.719 592.294 969.83 591.953 970.967 591.952C972.446 591.925 973.876 592.485 974.944 593.509C976.013 594.534 976.632 595.94 976.667 597.419Z" fill="#263238"/>
<path d="M1147.87 500.1C1147.91 501.238 1147.62 502.363 1147.02 503.332C1146.42 504.3 1145.55 505.067 1144.51 505.534C1143.47 506.001 1142.31 506.145 1141.19 505.95C1140.07 505.754 1139.03 505.227 1138.21 504.436C1137.39 503.646 1136.83 502.628 1136.6 501.514C1136.36 500.4 1136.46 499.241 1136.89 498.186C1137.32 497.131 1138.06 496.229 1139 495.595C1139.95 494.962 1141.06 494.627 1142.2 494.632C1142.93 494.619 1143.66 494.75 1144.34 495.018C1145.02 495.285 1145.64 495.684 1146.17 496.192C1146.69 496.7 1147.11 497.306 1147.41 497.977C1147.7 498.647 1147.85 499.369 1147.87 500.1Z" fill="#FF9103"/>
<path d="M1275.2 481.729C1278.35 481.729 1280.9 479.281 1280.9 476.262C1280.9 473.242 1278.35 470.794 1275.2 470.794C1272.05 470.794 1269.5 473.242 1269.5 476.262C1269.5 479.281 1272.05 481.729 1275.2 481.729Z" fill="#FF9103"/>
<path d="M698.167 250.25C698.167 251.569 697.776 252.858 697.043 253.955C696.311 255.051 695.27 255.906 694.051 256.41C692.833 256.915 691.493 257.047 690.2 256.79C688.906 256.533 687.718 255.898 686.786 254.965C685.854 254.032 685.219 252.844 684.962 251.551C684.704 250.257 684.836 248.917 685.341 247.698C685.846 246.48 686.7 245.439 687.796 244.706C688.893 243.973 690.182 243.582 691.5 243.582C693.268 243.582 694.964 244.285 696.214 245.535C697.464 246.786 698.167 248.482 698.167 250.25Z" fill="#263238"/>
<path d="M717.367 250.25C717.367 251.569 716.976 252.858 716.243 253.955C715.51 255.051 714.469 255.906 713.251 256.41C712.033 256.915 710.692 257.047 709.399 256.79C708.106 256.533 706.918 255.898 705.986 254.965C705.053 254.032 704.419 252.844 704.161 251.551C703.904 250.257 704.036 248.917 704.541 247.698C705.045 246.48 705.9 245.439 706.996 244.706C708.092 243.973 709.381 243.582 710.7 243.582C712.468 243.582 714.164 244.285 715.414 245.535C716.664 246.786 717.367 248.482 717.367 250.25Z" fill="#263238"/>
<path d="M736.667 250.25C736.667 251.569 736.276 252.858 735.543 253.955C734.811 255.051 733.77 255.906 732.551 256.41C731.333 256.915 729.993 257.047 728.7 256.79C727.406 256.533 726.218 255.898 725.286 254.965C724.354 254.032 723.719 252.844 723.462 251.551C723.204 250.257 723.336 248.917 723.841 247.698C724.346 246.48 725.2 245.439 726.296 244.706C727.393 243.973 728.682 243.582 730 243.582C731.768 243.582 733.464 244.285 734.714 245.535C735.964 246.786 736.667 248.482 736.667 250.25Z" fill="#263238"/>
<path d="M1520.27 276.288C1520.27 276.755 1328.4 277.155 1091.77 277.155C855.133 277.155 663.333 276.722 663.333 276.288C663.333 275.855 855.167 275.421 1091.87 275.421C1328.57 275.421 1520.27 275.788 1520.27 276.288Z" fill="#263238"/>
<path d="M133.067 1288.82L151.1 1353.6C156.06 1371.19 167.31 1386.35 182.712 1396.18C198.114 1406.02 216.592 1409.85 234.633 1406.95C234.633 1406.95 268.767 1455.62 283.333 1463.63L296.467 1567.41H374.367L380.533 1525.37C436.522 1548.88 497.039 1559.65 557.7 1556.88C656.333 1551.64 679.967 1522.74 679.967 1522.74L691.767 1567.41H779.767L794.234 1453.12C794.234 1453.12 901.9 1357.24 874.233 1245.58C874.233 1245.58 951.7 1192.67 925.434 1117.32L909.667 1110.22C909.667 1110.22 884.7 1154.86 858.434 1164.07C858.434 1164.07 787.767 936.821 521.767 955.224C521.767 955.224 433 951.29 348.933 990.665C348.933 990.665 255.6 942.089 186.1 977.529C186.1 977.529 184.8 1057.54 224.167 1103.65C224.167 1103.65 190.033 1179.84 187.5 1195.61L177.333 1199.67C160.269 1206.47 146.314 1219.32 138.144 1235.78C129.975 1252.23 128.167 1271.12 133.067 1288.82Z" fill="#FFC986"/>
<path d="M321.234 1191.21C321.234 1195.51 319.957 1199.72 317.565 1203.3C315.173 1206.88 311.774 1209.67 307.797 1211.32C303.819 1212.97 299.443 1213.4 295.22 1212.56C290.998 1211.72 287.12 1209.64 284.076 1206.6C281.031 1203.55 278.958 1199.68 278.118 1195.45C277.279 1191.23 277.71 1186.85 279.357 1182.87C281.005 1178.9 283.794 1175.5 287.374 1173.1C290.953 1170.71 295.162 1169.43 299.467 1169.43C305.24 1169.43 310.776 1171.73 314.858 1175.81C318.94 1179.89 321.234 1185.43 321.234 1191.21Z" fill="#263238"/>
<g opacity="0.6">
<path d="M421.5 1012.9L431.267 1040.31C431.267 1040.31 549.633 1005.07 625.933 1040.31L636.7 1012.9C636.7 1012.9 543.767 969.861 421.5 1012.9Z" fill="black"/>
</g>
<path d="M646.3 1052.88C645.55 1052.5 644.826 1052.08 644.134 1051.61C642.734 1050.71 640.634 1049.48 637.934 1047.91C630.249 1043.54 622.182 1039.88 613.834 1036.97C601.45 1032.69 588.644 1029.74 575.634 1028.17C559.684 1026.31 543.612 1025.71 527.567 1026.37C511.501 1026.83 495.469 1028.11 479.534 1030.21C466.533 1031.88 453.735 1034.86 441.334 1039.11C432.984 1041.99 424.961 1045.74 417.4 1050.31C412.034 1053.64 409.3 1055.68 409.167 1055.51C409.774 1054.92 410.432 1054.39 411.134 1053.91C413.019 1052.41 414.989 1051.02 417.034 1049.74C424.525 1044.92 432.544 1040.97 440.934 1037.97C453.358 1033.52 466.219 1030.39 479.3 1028.64C495.295 1026.46 511.397 1025.16 527.534 1024.74C543.659 1024.07 559.813 1024.71 575.834 1026.67C588.942 1028.34 601.83 1031.44 614.267 1035.91C622.621 1038.95 630.658 1042.81 638.267 1047.41C640.967 1049.08 643 1050.44 644.3 1051.41C645.004 1051.85 645.673 1052.34 646.3 1052.88Z" fill="#263238"/>
<g opacity="0.2">
<path d="M182.867 1260.02C181.612 1256.63 179.62 1253.57 177.033 1251.05C175.721 1249.81 174.075 1248.98 172.298 1248.67C170.521 1248.35 168.69 1248.57 167.033 1249.28C164.504 1251.29 162.739 1254.1 162.033 1257.25C157.64 1277.1 161.092 1297.87 171.667 1315.23C172.382 1316.44 173.345 1317.49 174.494 1318.31C175.643 1319.13 176.951 1319.69 178.333 1319.96C184.3 1321 187.433 1315.56 188.9 1310.63C193.933 1293.99 190 1275.89 182.867 1260.02Z" fill="black"/>
</g>
<path d="M230.667 1313.6C230.499 1311.94 230.499 1310.28 230.667 1308.63C230.777 1306.69 230.777 1304.74 230.667 1302.79C230.667 1300.53 230.667 1297.93 230.667 1295.06C230.667 1292.19 230.367 1289.09 229.934 1285.76C229.5 1282.42 228.967 1278.89 228.334 1275.16C225.282 1259.04 219.354 1243.6 210.833 1229.58C208.8 1226.25 206.967 1223.31 204.933 1220.64C202.9 1217.98 201.067 1215.44 199.234 1213.21C197.4 1210.98 195.667 1209.11 194.167 1207.41C192.667 1205.71 191.3 1204.31 190.167 1203.17C188.951 1202.06 187.836 1200.85 186.833 1199.54C188.215 1200.48 189.509 1201.54 190.7 1202.71C192.182 1203.98 193.595 1205.32 194.933 1206.74C196.803 1208.54 198.573 1210.45 200.233 1212.44C202.133 1214.61 204.167 1217.01 206.167 1219.78C208.167 1222.54 210.167 1225.55 212.267 1228.75C216.596 1235.78 220.299 1243.17 223.334 1250.85C226.245 1258.61 228.476 1266.61 230 1274.76C230.567 1278.52 231.2 1282.09 231.434 1285.49C231.667 1288.89 231.9 1292.16 231.967 1294.89C232.033 1297.63 231.967 1300.39 231.967 1302.69C231.931 1304.65 231.786 1306.59 231.533 1308.53C231.382 1310.24 231.092 1311.93 230.667 1313.6Z" fill="#263238"/>
<path d="M254.567 1266.92C254.233 1266.92 252.967 1261.42 249.267 1252.98C247.088 1248.07 244.536 1243.34 241.633 1238.81C238 1233.4 233.919 1228.31 229.433 1223.58C224.834 1218.88 219.837 1214.58 214.5 1210.74C210.11 1207.65 205.485 1204.91 200.667 1202.54C192.433 1198.51 186.867 1197.01 187 1196.67C188.333 1196.81 189.643 1197.11 190.9 1197.57C192.432 1197.97 193.935 1198.47 195.4 1199.07C197.376 1199.75 199.312 1200.54 201.2 1201.44C206.167 1203.69 210.929 1206.37 215.433 1209.44C220.908 1213.26 226.008 1217.6 230.667 1222.38C235.264 1227.24 239.383 1232.53 242.967 1238.18C245.867 1242.8 248.354 1247.66 250.4 1252.72C251.333 1254.85 251.933 1256.88 252.533 1258.62C253.05 1260.1 253.473 1261.62 253.8 1263.15C254.215 1264.37 254.473 1265.64 254.567 1266.92Z" fill="#263238"/>
<path d="M163.867 1256.92C163.726 1256.31 163.757 1255.68 163.958 1255.09C164.158 1254.5 164.519 1253.98 165 1253.58C166.07 1252.52 167.468 1251.85 168.967 1251.68C169.964 1251.59 170.97 1251.69 171.926 1251.99C172.882 1252.28 173.769 1252.77 174.534 1253.42C177.972 1256.97 180.539 1261.27 182.034 1265.99C186.571 1277.03 188.838 1288.88 188.7 1300.83C189.067 1305.77 188.16 1310.73 186.067 1315.23C185.22 1316.74 183.943 1317.96 182.399 1318.73C180.856 1319.51 179.115 1319.81 177.4 1319.6C174.934 1319.13 174.067 1317.73 174.267 1317.76C175.281 1318.39 176.418 1318.79 177.6 1318.93C179.139 1319 180.666 1318.63 182 1317.86C183.335 1317.1 184.423 1315.96 185.134 1314.6C186.956 1310.25 187.677 1305.52 187.234 1300.83C187.211 1294.97 186.642 1289.14 185.534 1283.39C184.448 1277.64 182.842 1272.01 180.734 1266.55C179.369 1262.04 177.037 1257.87 173.9 1254.35C172.79 1253.31 171.338 1252.71 169.817 1252.66C168.296 1252.61 166.809 1253.12 165.634 1254.08C164.758 1254.82 164.14 1255.81 163.867 1256.92Z" fill="#263238"/>
<path d="M335.26 1260.7V1260.7H335.261L335.262 1260.71C335.263 1260.71 335.264 1260.71 335.266 1260.71C335.268 1260.71 335.272 1260.72 335.276 1260.72C335.285 1260.74 335.298 1260.76 335.313 1260.78C335.346 1260.82 335.392 1260.89 335.45 1260.98C335.566 1261.16 335.73 1261.43 335.929 1261.78C336.326 1262.5 336.86 1263.57 337.425 1265.04L337.431 1265.05C338.866 1269.16 339.789 1273.48 340.174 1277.88L340.241 1278.57C340.895 1285.68 340.306 1292.86 338.506 1299.72C336.647 1306.79 333.537 1313.37 329.361 1319.03C325.186 1324.7 320.034 1329.33 314.218 1332.66C308.401 1335.99 302.045 1337.93 295.539 1338.36L295.538 1338.36C291.642 1338.7 287.723 1338.41 283.899 1337.5L283.888 1337.5C282.547 1337.15 281.519 1336.81 280.818 1336.51C280.471 1336.37 280.187 1336.23 279.981 1336.09C279.88 1336.03 279.779 1335.95 279.697 1335.86C279.629 1335.79 279.5 1335.63 279.5 1335.4V1334.86L280.038 1334.9C285.088 1335.29 290.154 1335.29 295.204 1334.91C307.208 1333.45 318.266 1326.75 326.047 1316.21C333.83 1305.65 337.721 1292.07 336.892 1278.31V1278.31C336.359 1272.52 335.516 1266.77 334.368 1261.1L335.26 1260.7Z" fill="#263238" stroke="black"/>
<path d="M319.067 1138.06C312.186 1135.27 304.969 1133.38 297.6 1132.46C290.18 1132.11 282.747 1132.76 275.5 1134.39C277.388 1133.19 279.495 1132.38 281.7 1131.99C286.942 1130.71 292.356 1130.28 297.733 1130.73C303.113 1131.18 308.382 1132.51 313.333 1134.66C315.439 1135.43 317.384 1136.58 319.067 1138.06Z" fill="#263238"/>
<path d="M686.1 994.199L685.267 993.932L682.834 992.999L673.534 989.298L666.867 986.564C664.4 985.597 661.667 984.731 658.767 983.73C652.9 981.797 646.367 979.23 638.767 977.329L627.034 973.995C622.967 972.895 618.634 972.095 614.167 971.094C605.334 968.894 595.667 967.56 585.567 965.893C563.47 962.994 541.176 961.879 518.9 962.559C496.681 963.521 474.576 966.275 452.8 970.794C442.8 973.162 433.3 975.229 424.634 978.063C420.3 979.396 416 980.496 412.034 981.93L400.567 986.064C393.2 988.498 386.867 991.532 381.167 993.899C378.334 995.133 375.667 996.199 373.3 997.233L366.834 1000.57L357.834 1004.97L355.5 1006.07C355.245 1006.23 354.963 1006.34 354.667 1006.4C354.667 1006.4 354.9 1006.4 355.4 1005.93L357.667 1004.67L366.534 999.967L372.934 996.633C375.3 995.466 377.967 994.332 380.767 993.066C386.434 990.632 392.767 987.498 400.134 984.964L411.6 980.73C415.6 979.263 419.867 978.129 424.234 976.729C432.934 973.828 442.467 971.728 452.467 969.294C474.321 964.671 496.518 961.85 518.834 960.859C541.116 960.234 563.412 961.427 585.5 964.426C595.667 966.127 605.334 967.527 614.234 969.761C618.667 970.828 623.034 971.661 627.1 972.828L638.834 976.162C646.367 978.129 652.9 980.796 658.834 982.83C661.734 983.864 664.467 984.797 666.934 985.764L673.6 988.665L682.767 992.699L685.134 993.799C685.867 994.032 686.134 994.166 686.1 994.199Z" fill="white"/>
<path d="M725.733 1016.3C722.105 1015.73 718.587 1014.61 715.3 1012.97C711.788 1011.83 708.48 1010.15 705.5 1007.97C709.137 1008.54 712.666 1009.67 715.967 1011.3C719.462 1012.45 722.757 1014.14 725.733 1016.3Z" fill="white"/>
<path d="M171.667 1216.61C171.667 1216.91 168.633 1218.18 164.033 1221.08C152.022 1228.72 143.097 1240.36 138.833 1253.95C137.233 1259.15 136.833 1262.52 136.5 1262.49C136.363 1261.69 136.363 1260.88 136.5 1260.09C136.687 1257.89 137.078 1255.71 137.667 1253.58C139.487 1246.56 142.696 1239.98 147.104 1234.21C151.513 1228.45 157.031 1223.64 163.333 1220.04C165.219 1218.94 167.206 1218.01 169.267 1217.28C170.021 1216.91 170.834 1216.69 171.667 1216.61Z" fill="white"/>
<path d="M376.434 1547.94C376.434 1547.94 375.834 1547.14 374.434 1546.08C372.339 1544.61 369.77 1543.98 367.234 1544.31C365.288 1544.51 363.416 1545.17 361.767 1546.22C360.118 1547.27 358.737 1548.7 357.734 1550.38C355.241 1554.89 354.085 1560.03 354.4 1565.18H352.867C353.136 1562.56 352.838 1559.91 351.992 1557.41C351.147 1554.91 349.774 1552.63 347.967 1550.71C345.952 1548.63 343.361 1547.2 340.528 1546.61C337.694 1546.01 334.747 1546.28 332.067 1547.38C330.349 1548.11 328.841 1549.26 327.677 1550.72C326.513 1552.18 325.731 1553.91 325.4 1555.74C324.991 1557.46 324.998 1559.25 325.422 1560.96C325.845 1562.67 326.672 1564.25 327.834 1565.58L326.467 1566.41C324.696 1560.05 321.466 1554.18 317.034 1549.28C315.284 1547.43 313.091 1546.06 310.664 1545.3C308.237 1544.55 305.656 1544.42 303.167 1544.94C301.562 1545.4 300.08 1546.2 298.828 1547.31C297.576 1548.41 296.587 1549.78 295.934 1551.31C295.537 1552.46 295.291 1553.66 295.2 1554.88C294.873 1553.64 294.955 1552.33 295.434 1551.14C296.028 1549.45 297.01 1547.92 298.301 1546.68C299.591 1545.43 301.155 1544.51 302.867 1543.98C305.543 1543.31 308.345 1543.36 310.998 1544.11C313.651 1544.86 316.064 1546.28 318 1548.24C322.689 1553.23 326.117 1559.27 328 1565.85L329.367 1569.58L326.667 1566.65C325.311 1565.13 324.339 1563.32 323.834 1561.35C323.33 1559.38 323.306 1557.32 323.767 1555.34C324.162 1553.22 325.078 1551.23 326.434 1549.55C327.79 1547.86 329.542 1546.55 331.534 1545.71C334.539 1544.48 337.844 1544.18 341.022 1544.84C344.2 1545.51 347.106 1547.11 349.367 1549.44C351.317 1551.55 352.79 1554.05 353.687 1556.78C354.585 1559.51 354.885 1562.39 354.567 1565.25H353.034C352.753 1559.83 354.062 1554.45 356.8 1549.78C358.023 1547.83 359.706 1546.22 361.7 1545.08C363.426 1544.16 365.321 1543.62 367.267 1543.48C369.993 1543.22 372.709 1544.05 374.834 1545.78C375.536 1546.36 376.086 1547.1 376.434 1547.94Z" fill="#263238"/>
<path d="M840.9 1541.54L835.167 1565.68C835.167 1565.68 795.667 1616.99 783.5 1614.46C775.5 1612.82 785.333 1599.45 800.167 1560.48L803.5 1544.41L840.9 1541.54Z" fill="#455A64"/>
<path d="M781.9 1606.99C782.375 1607.87 783.108 1608.57 784 1609.02C785.237 1609.56 786.598 1609.74 787.933 1609.55C789.268 1609.36 790.525 1608.81 791.566 1607.95C798.476 1602.15 805.032 1595.94 811.2 1589.35C818.5 1581.68 824.533 1574.28 828.966 1568.85L834 1562.35C834.5 1561.71 834.966 1561.15 835.366 1560.58C835.524 1560.36 835.703 1560.16 835.9 1559.98C835.742 1560.2 835.563 1560.4 835.366 1560.58L834.1 1562.45C833 1564.05 831.333 1566.31 829.233 1569.11C823.721 1576.32 817.823 1583.22 811.566 1589.78C805.342 1596.44 798.659 1602.64 791.566 1608.35C790.247 1609.28 788.706 1609.85 787.1 1609.99C785.885 1610.06 784.675 1609.79 783.6 1609.22C782.914 1608.87 782.338 1608.34 781.933 1607.69C781.885 1607.46 781.874 1607.22 781.9 1606.99Z" fill="#263238"/>
<path d="M787.467 1590.32C788.524 1589.9 789.676 1589.77 790.8 1589.95C793.445 1590.21 795.991 1591.09 798.233 1592.52C800.561 1593.85 802.44 1595.85 803.633 1598.25C804.172 1599.22 804.469 1600.31 804.5 1601.42C804.5 1601.42 804.133 1600.22 803.2 1598.49C801.925 1596.27 800.085 1594.43 797.867 1593.15C795.704 1591.76 793.274 1590.84 790.733 1590.45C789.648 1590.35 788.557 1590.31 787.467 1590.32Z" fill="#263238"/>
<path d="M824.866 1578.38C824.632 1578.03 824.463 1577.63 824.366 1577.22C824.039 1576.12 823.783 1575.01 823.6 1573.88C823.043 1570.11 823.684 1566.26 825.433 1562.88C827.163 1559.48 829.979 1556.76 833.433 1555.14C834.487 1554.64 835.611 1554.31 836.766 1554.14C837.175 1554.08 837.591 1554.08 838 1554.14C836.525 1554.53 835.087 1555.04 833.7 1555.68C830.439 1557.37 827.792 1560.04 826.133 1563.31C824.462 1566.58 823.779 1570.26 824.166 1573.91C824.433 1576.65 824.966 1578.35 824.866 1578.38Z" fill="#263238"/>
<path d="M838.4 1545.64C838.4 1545.64 837.667 1548.98 836.933 1553.34C836.628 1555.97 835.931 1558.53 834.867 1560.95C834.867 1560.95 835.5 1557.61 836.233 1553.21C836.551 1550.59 837.283 1548.04 838.4 1545.64Z" fill="#263238"/>
<path d="M799.633 1563.88C801.291 1563.42 803.042 1563.42 804.7 1563.88C806.4 1564.14 807.987 1564.9 809.267 1566.05C809.267 1566.25 807.2 1565.18 804.533 1564.58C801.867 1563.98 799.667 1564.11 799.633 1563.88Z" fill="#263238"/>
<path d="M798.833 1568.01C800.213 1567.52 801.72 1567.52 803.1 1568.01C804.554 1568.22 805.882 1568.96 806.833 1570.08C806.833 1570.25 805.133 1569.21 802.933 1568.71C800.733 1568.21 798.866 1568.25 798.833 1568.01Z" fill="#263238"/>
<path d="M795.667 1573.21C796.323 1572.81 797.058 1572.55 797.822 1572.45C798.587 1572.36 799.363 1572.42 800.1 1572.65C800.861 1572.76 801.59 1573.03 802.235 1573.45C802.879 1573.87 803.425 1574.43 803.833 1575.08C802.61 1574.34 801.3 1573.76 799.933 1573.35C798.522 1573.13 797.089 1573.08 795.667 1573.21Z" fill="#263238"/>
<path d="M802.367 1562.15C802.367 1562.15 804.167 1561.68 807 1560.58C808.641 1559.92 810.233 1559.16 811.767 1558.28C812.6 1557.78 813.5 1557.21 814.367 1556.61C815.233 1556.01 816.067 1555.14 816.033 1554.21C816 1553.28 814.833 1552.74 813.933 1552.98C812.994 1553.3 812.156 1553.86 811.5 1554.61C810.033 1555.98 808.8 1557.28 807.8 1558.41C805.767 1560.68 804.667 1562.18 804.467 1562.11C804.636 1561.71 804.861 1561.32 805.133 1560.98C805.6 1560.28 806.333 1559.28 807.3 1558.08C808.442 1556.7 809.655 1555.39 810.933 1554.14C811.663 1553.3 812.607 1552.66 813.667 1552.31C813.985 1552.21 814.321 1552.18 814.651 1552.22C814.982 1552.27 815.299 1552.38 815.582 1552.56C815.864 1552.74 816.104 1552.97 816.286 1553.25C816.467 1553.53 816.586 1553.85 816.633 1554.18C816.568 1554.79 816.359 1555.39 816.023 1555.91C815.687 1556.43 815.234 1556.86 814.7 1557.18C813.822 1557.79 812.91 1558.34 811.967 1558.84C810.402 1559.72 808.762 1560.46 807.067 1561.05C805.923 1561.45 804.754 1561.77 803.567 1562.01C802.833 1562.18 802.367 1562.21 802.367 1562.15Z" fill="#263238"/>
<path d="M804.433 1561.65C804.113 1560.19 803.868 1558.72 803.7 1557.24C803.448 1555.67 803 1554.14 802.366 1552.68C801.988 1551.84 801.494 1551.05 800.9 1550.34C800.3 1549.68 799.366 1549.08 798.633 1549.51C797.9 1549.94 797.8 1551.04 797.9 1551.94C798.049 1552.85 798.306 1553.73 798.666 1554.58C799.321 1556.02 800.186 1557.36 801.233 1558.54C803.066 1560.58 804.566 1561.55 804.566 1561.65C804.566 1561.75 804.166 1561.65 803.533 1561.05C802.625 1560.41 801.777 1559.7 801 1558.91C799.851 1557.72 798.906 1556.34 798.2 1554.84C797.797 1553.94 797.506 1552.99 797.333 1552.01C797.195 1551.44 797.225 1550.85 797.42 1550.3C797.616 1549.74 797.968 1549.26 798.433 1548.91C798.983 1548.69 799.589 1548.67 800.152 1548.85C800.716 1549.03 801.203 1549.39 801.533 1549.88C802.176 1550.64 802.704 1551.49 803.1 1552.41C803.731 1553.93 804.146 1555.54 804.333 1557.18C804.5 1558.54 804.566 1559.68 804.6 1560.51C804.596 1560.9 804.54 1561.28 804.433 1561.65Z" fill="#263238"/>
<path d="M1030 1552.74L1030.17 1520.54L970 1519.8L969.167 1566.98L972.9 1567.28C989.566 1568.41 1057.53 1571.81 1068.7 1568.58C1081.17 1564.91 1030 1552.74 1030 1552.74Z" fill="#455A64"/>
<path d="M968.333 1565.55H969.366L972.366 1565.78L983.3 1566.38C992.566 1566.85 1005.37 1567.28 1019.5 1567.48C1033.63 1567.68 1046.43 1567.48 1055.7 1567.48L1066.67 1567.18H1055.7C1046.47 1567.18 1033.67 1567.18 1019.53 1567.18C1005.4 1567.18 992.633 1566.61 983.366 1566.31L972.4 1565.91H969.433L968.333 1565.55Z" fill="#263238"/>
<path d="M1049.57 1568.21C1050.08 1566.41 1050.79 1564.67 1051.67 1563.01C1052.78 1561.5 1054.05 1560.11 1055.47 1558.88C1053.58 1559.53 1052.01 1560.86 1051.07 1562.61C1049.89 1564.23 1049.36 1566.23 1049.57 1568.21Z" fill="#263238"/>
<path d="M1031.9 1558.98C1032.07 1558.98 1032.93 1558.04 1033.8 1556.68C1034.67 1555.31 1035.3 1554.11 1035.13 1553.98C1034.97 1553.84 1034.1 1554.91 1033.2 1556.28C1032.3 1557.64 1031.7 1558.84 1031.9 1558.98Z" fill="#263238"/>
<path d="M1027.03 1556.31C1027.03 1556.48 1028.13 1555.84 1029.17 1554.94C1030.2 1554.04 1030.97 1553.14 1030.83 1552.98C1030.7 1552.81 1029.73 1553.48 1028.7 1554.38C1027.67 1555.28 1026.9 1556.18 1027.03 1556.31Z" fill="#263238"/>
<path d="M1024.03 1550.58C1025.03 1550.96 1026.1 1551.12 1027.17 1551.04C1028.29 1551.2 1029.43 1551.1 1030.5 1550.74C1029.44 1550.34 1028.3 1550.19 1027.17 1550.31C1026.12 1550.17 1025.05 1550.26 1024.03 1550.58Z" fill="#263238"/>
<path d="M1023 1546.58C1024.04 1547.25 1025.26 1547.62 1026.5 1547.64C1027.73 1547.87 1029 1547.7 1030.13 1547.18C1028.99 1547.01 1027.83 1546.95 1026.67 1546.98C1025.46 1546.72 1024.23 1546.59 1023 1546.58Z" fill="#263238"/>
<path d="M1034 1553.64C1035.28 1553.86 1036.59 1553.86 1037.87 1553.64C1039.27 1553.51 1040.66 1553.23 1042 1552.81C1042.82 1552.58 1043.62 1552.26 1044.37 1551.84C1044.84 1551.6 1045.2 1551.18 1045.37 1550.68C1045.43 1550.39 1045.42 1550.09 1045.31 1549.81C1045.21 1549.53 1045.04 1549.29 1044.8 1549.11C1043.33 1548.37 1041.64 1548.15 1040.03 1548.51C1038.42 1548.87 1036.98 1549.78 1035.97 1551.08C1035.36 1551.83 1034.91 1552.71 1034.67 1553.64C1034.58 1553.98 1034.58 1554.34 1034.67 1554.68C1035.07 1553.47 1035.68 1552.34 1036.47 1551.34C1037.35 1550.34 1038.51 1549.61 1039.8 1549.24C1040.56 1548.99 1041.36 1548.89 1042.15 1548.95C1042.95 1549.01 1043.73 1549.24 1044.43 1549.61C1045.03 1550.08 1044.8 1550.78 1044.1 1551.18C1043.41 1551.56 1042.67 1551.87 1041.9 1552.08C1040.6 1552.52 1039.26 1552.85 1037.9 1553.08C1035.47 1553.64 1034 1553.64 1034 1553.64Z" fill="#263238"/>
<path d="M1035 1553.94C1035.49 1553.13 1035.66 1552.17 1035.47 1551.24C1035.37 1550.23 1035.03 1549.26 1034.47 1548.41C1034.14 1547.81 1033.65 1547.31 1033.07 1546.95C1032.49 1546.59 1031.82 1546.4 1031.13 1546.38C1030.74 1546.46 1030.39 1546.7 1030.16 1547.03C1029.93 1547.37 1029.84 1547.78 1029.9 1548.18C1029.99 1548.79 1030.2 1549.38 1030.53 1549.91C1031.03 1550.77 1031.64 1551.57 1032.33 1552.28C1032.93 1552.98 1033.68 1553.53 1034.53 1553.88C1034.53 1553.88 1033.77 1553.18 1032.73 1551.91C1032.11 1551.2 1031.58 1550.41 1031.13 1549.58C1030.6 1548.74 1030.27 1547.28 1031.13 1547.11C1032 1546.94 1033.1 1548.01 1033.67 1548.78C1034.2 1549.53 1034.56 1550.4 1034.73 1551.31C1034.89 1552.18 1034.98 1553.06 1035 1553.94Z" fill="#263238"/>
<path d="M969.8 1549.04C969.8 1549.04 971.5 1549.04 974.233 1549.24C977.783 1549.68 981.136 1551.11 983.904 1553.38C986.671 1555.65 988.739 1558.65 989.866 1562.05C990.766 1564.65 990.833 1566.38 990.966 1566.38C991.032 1565.97 991.032 1565.55 990.966 1565.15C990.899 1564.02 990.698 1562.9 990.366 1561.81C989.333 1558.25 987.243 1555.09 984.375 1552.75C981.506 1550.4 977.993 1548.98 974.3 1548.68C973.191 1548.57 972.075 1548.57 970.966 1548.68C970.558 1548.73 970.163 1548.85 969.8 1549.04Z" fill="#263238"/>
<path d="M976.367 1524.04C975.88 1528.14 975.646 1532.27 975.667 1536.41C975.424 1540.54 975.424 1544.68 975.667 1548.81C976.131 1544.69 976.354 1540.55 976.333 1536.41C976.577 1532.29 976.588 1528.16 976.367 1524.04Z" fill="#263238"/>
<path d="M998.7 1560.95C1001.58 1561.63 1004.54 1561.95 1007.5 1561.91C1010.46 1562.12 1013.43 1561.91 1016.33 1561.31C1016.33 1561.11 1012.37 1561.31 1007.53 1561.31C1002.7 1561.31 998.733 1560.71 998.7 1560.95Z" fill="#263238"/>
<path d="M986.9 1560.78C986.733 1560.78 987.2 1561.61 987.6 1562.51C988 1563.41 988.2 1564.21 988.4 1564.21C988.6 1564.21 988.733 1563.28 988.4 1562.21C988.067 1561.15 987.033 1560.61 986.9 1560.78Z" fill="#263238"/>
<path d="M982.5 1555.18C982.5 1555.18 982.733 1555.94 983.367 1556.58C984 1557.21 984.6 1557.61 984.733 1557.48C984.867 1557.34 984.5 1556.71 983.9 1556.08C983.3 1555.44 982.667 1555.01 982.5 1555.18Z" fill="#263238"/>
<path d="M976.166 1552.54C976.166 1552.74 977 1552.74 977.9 1553.08C978.8 1553.41 979.4 1553.88 979.566 1553.74C979.733 1553.61 979.233 1552.78 978.133 1552.38C977.033 1551.98 976.1 1552.38 976.166 1552.54Z" fill="#263238"/>
<path d="M971.633 1551.31C971.633 1551.48 971.9 1551.81 972.4 1552.01C972.9 1552.21 973.367 1552.21 973.433 1552.01C973.5 1551.81 973.167 1551.51 972.7 1551.31C972.233 1551.11 971.733 1551.11 971.633 1551.31Z" fill="#263238"/>
<path d="M1070.77 936.054L1047.63 1540.54L953.7 1542.51L969.3 1018.77L863.7 1546.51H774.4L889.433 937.287L1070.77 936.054Z" fill="#263238"/>
<path d="M990.933 958.058C990.861 961.416 990.505 964.762 989.867 968.06C989 974.161 987.667 982.63 986.1 991.898C985.498 996.33 984.607 1000.72 983.433 1005.03C982.367 1008.66 980.229 1011.88 977.3 1014.27C975.329 1015.86 972.972 1016.91 970.467 1017.3C969.57 1017.53 968.63 1017.53 967.733 1017.3C970.968 1016.83 974.011 1015.48 976.533 1013.4C979.157 1011.06 981.045 1008 981.967 1004.6C983.041 1000.34 983.876 996.02 984.467 991.665C986.033 982.363 987.533 973.961 988.7 967.893C989.182 964.561 989.929 961.272 990.933 958.058Z" fill="#455A64"/>
<path d="M971.4 960.959C971.6 960.959 970.833 962.092 971.4 963.659C971.514 964.085 971.711 964.484 971.98 964.833C972.249 965.182 972.584 965.474 972.967 965.693C973.448 965.863 973.965 965.9 974.465 965.801C974.966 965.701 975.429 965.468 975.808 965.127C976.187 964.785 976.467 964.348 976.618 963.861C976.769 963.374 976.786 962.855 976.667 962.359C976.511 961.949 976.27 961.576 975.96 961.266C975.65 960.955 975.277 960.714 974.867 960.559C973.333 959.892 972.267 960.559 972.167 960.325C972.067 960.092 973.033 958.958 975.233 959.425C975.863 959.579 976.449 959.875 976.946 960.292C977.443 960.708 977.838 961.233 978.1 961.826C978.377 962.615 978.405 963.471 978.178 964.276C977.951 965.082 977.482 965.798 976.833 966.326C976.229 966.899 975.463 967.27 974.639 967.389C973.816 967.509 972.975 967.37 972.233 966.993C971.678 966.656 971.208 966.195 970.861 965.645C970.514 965.095 970.299 964.473 970.233 963.826C970 961.626 971.333 960.759 971.4 960.959Z" fill="#455A64"/>
<path d="M920.967 969.594C919.866 966.883 919.454 963.941 919.768 961.032C920.082 958.123 921.113 955.337 922.766 952.924C923.2 953.124 921.833 956.691 921.4 961.259C920.967 965.826 921.433 969.46 920.967 969.594Z" fill="#455A64"/>
<path d="M932.266 968.86C930.889 966.122 930.411 963.018 930.9 959.992C930.856 956.914 931.764 953.899 933.5 951.357C933.933 951.357 932.866 955.324 932.566 960.092C932.62 963.018 932.52 965.945 932.266 968.86Z" fill="#455A64"/>
<path d="M1029.33 971.327C1029.24 968.295 1029.42 965.26 1029.87 962.259C1029.75 959.219 1029.89 956.175 1030.27 953.157C1031.52 956.04 1031.95 959.214 1031.5 962.326C1031.61 965.468 1030.86 968.581 1029.33 971.327Z" fill="#455A64"/>
<path d="M1041.6 970.661C1041.13 970.461 1042.6 966.493 1042.93 961.425C1043.27 956.358 1042.4 952.257 1042.93 952.124C1044.27 955.077 1044.86 958.317 1044.64 961.552C1044.41 964.787 1043.39 967.917 1041.67 970.661H1041.6Z" fill="#455A64"/>
<path d="M940 684.57L998 679.936C998.367 673.268 998 646.996 998 646.996C998 646.996 1022.13 643.228 1022.43 619.124C1022.73 595.019 1018.53 539.608 1018.53 539.608C1004.8 533.657 989.722 531.492 974.868 533.339C960.015 535.186 945.927 540.977 934.067 550.11L930.5 552.877L940 684.57Z" fill="#FFBE9D"/>
<path d="M997.8 646.796C986.666 647.022 975.718 643.91 966.367 637.861C966.367 637.861 973.8 655.231 997.867 653.064L997.8 646.796Z" fill="#EB996E"/>
<path d="M1008.9 577.416C1008.9 578.3 1008.55 579.148 1007.92 579.773C1007.3 580.398 1006.45 580.75 1005.57 580.75C1005.13 580.781 1004.69 580.726 1004.27 580.587C1003.86 580.448 1003.47 580.229 1003.14 579.941C1002.81 579.652 1002.54 579.302 1002.34 578.908C1002.15 578.515 1002.03 578.087 1002 577.649C1002 576.765 1002.35 575.917 1002.98 575.291C1003.6 574.666 1004.45 574.315 1005.33 574.315C1005.77 574.283 1006.21 574.338 1006.63 574.477C1007.04 574.616 1007.43 574.836 1007.76 575.124C1008.09 575.412 1008.36 575.763 1008.56 576.156C1008.75 576.549 1008.87 576.977 1008.9 577.416Z" fill="#263238"/>
<path d="M1013.73 573.448C1013.3 573.882 1010.7 571.948 1007.07 571.948C1003.43 571.948 1000.63 573.815 1000.23 573.381C999.833 572.948 1000.47 572.348 1001.67 571.481C1003.28 570.387 1005.18 569.806 1007.13 569.814C1009.06 569.807 1010.94 570.414 1012.5 571.548C1013.57 572.515 1013.93 573.448 1013.73 573.448Z" fill="#263238"/>
<path d="M971.466 578.282C971.466 579.166 971.115 580.014 970.49 580.64C969.865 581.265 969.017 581.616 968.133 581.616C967.695 581.648 967.255 581.593 966.839 581.454C966.422 581.315 966.037 581.095 965.706 580.807C965.374 580.519 965.103 580.168 964.907 579.775C964.712 579.382 964.596 578.954 964.566 578.516C964.566 577.631 964.918 576.783 965.543 576.158C966.168 575.533 967.016 575.182 967.9 575.182C968.338 575.15 968.778 575.205 969.194 575.344C969.611 575.483 969.996 575.702 970.327 575.991C970.659 576.279 970.93 576.629 971.125 577.023C971.321 577.416 971.437 577.844 971.466 578.282Z" fill="#263238"/>
<path d="M977.3 574.215C976.867 574.681 974.267 572.748 970.633 572.748C967 572.748 964.2 574.615 963.8 574.148C963.4 573.681 964.033 573.148 965.233 572.281C966.831 571.157 968.747 570.573 970.7 570.614C972.628 570.606 974.507 571.214 976.067 572.348C977.133 573.214 977.533 574.015 977.3 574.215Z" fill="#263238"/>
<path d="M990.766 601.72C992.715 601.115 994.73 600.746 996.766 600.62C997.733 600.62 998.633 600.354 998.766 599.687C998.852 598.71 998.631 597.731 998.133 596.886C997.266 594.664 996.333 592.263 995.333 589.685C992.743 583.584 990.647 577.284 989.066 570.848C992.146 576.733 994.754 582.854 996.866 589.151C997.8 591.652 998.666 594.086 999.533 596.386C1000.12 597.537 1000.29 598.859 1000 600.12C999.862 600.457 999.649 600.758 999.378 601.001C999.106 601.243 998.783 601.421 998.433 601.52C997.913 601.67 997.374 601.749 996.833 601.754C994.817 601.995 992.779 601.983 990.766 601.72Z" fill="#263238"/>
<path d="M980 604.287C980.6 604.287 980.6 608.255 984.033 611.122C987.467 613.989 991.767 613.556 991.8 614.089C991.833 614.623 990.833 614.89 989.033 614.923C986.682 614.962 984.393 614.171 982.567 612.689C980.756 611.266 979.563 609.201 979.233 606.921C979.133 605.254 979.567 604.254 980 604.287Z" fill="#263238"/>
<path d="M978.266 559.712C977.9 560.712 974.2 560.212 969.866 560.745C965.533 561.279 962 562.479 961.4 561.545C961.166 561.112 961.766 560.178 963.166 559.212C965.061 558.011 967.205 557.258 969.434 557.009C971.664 556.761 973.92 557.024 976.033 557.778C977.633 558.411 978.433 559.212 978.266 559.712Z" fill="#263238"/>
<path d="M1012.37 562.812C1011.73 563.646 1009.03 562.812 1006.1 562.812C1003.17 562.812 1000.43 563.379 999.833 562.479C999.233 561.579 999.833 561.212 1001.13 560.412C1002.65 559.429 1004.43 558.95 1006.23 559.045C1008.03 559.083 1009.77 559.664 1011.23 560.712C1012.3 561.512 1012.67 562.379 1012.37 562.812Z" fill="#263238"/>
<path d="M933.333 577.915C932.933 577.749 916.666 573.015 917.3 589.518C917.933 606.021 934.266 602.087 934.3 601.62C934.333 601.153 933.333 577.915 933.333 577.915Z" fill="#FFBE9D"/>
<path d="M929.167 595.519C929.167 595.519 928.9 595.719 928.433 595.952C927.739 596.236 926.961 596.236 926.267 595.952C925.21 595.292 924.346 594.365 923.761 593.265C923.176 592.165 922.89 590.93 922.933 589.684C922.837 588.263 923.065 586.838 923.6 585.517C923.738 585.001 923.997 584.526 924.357 584.131C924.717 583.737 925.166 583.435 925.667 583.25C925.996 583.156 926.347 583.177 926.663 583.311C926.978 583.444 927.238 583.682 927.4 583.983C927.633 584.45 927.4 584.783 927.633 584.817C927.867 584.85 927.967 584.517 927.833 583.85C927.718 583.439 927.473 583.076 927.133 582.816C926.663 582.501 926.094 582.371 925.533 582.45C924.861 582.606 924.24 582.934 923.732 583.401C923.224 583.869 922.846 584.46 922.633 585.117C921.961 586.565 921.663 588.158 921.767 589.751C921.73 591.222 922.132 592.67 922.921 593.911C923.711 595.152 924.852 596.13 926.2 596.719C926.643 596.835 927.107 596.851 927.557 596.764C928.007 596.678 928.432 596.491 928.8 596.219C929.167 595.919 929.233 595.552 929.167 595.519Z" fill="#EB996E"/>
<path d="M1027.53 518.77C1025.78 515.296 1023.25 512.27 1020.14 509.924C1017.03 507.579 1013.43 505.976 1009.61 505.239C1005.78 504.502 1001.84 504.65 998.085 505.672C994.329 506.694 990.856 508.563 987.933 511.135C986.102 507.483 983.404 504.337 980.074 501.971C976.744 499.605 972.884 498.092 968.833 497.566C964.783 497.039 960.665 497.515 956.841 498.95C953.017 500.386 949.604 502.739 946.9 505.801C942.267 511.069 939.867 518.17 934.467 522.471C929.767 526.305 923.433 527.572 918.7 531.34C916.087 533.435 914.102 536.21 912.965 539.361C911.828 542.511 911.581 545.914 912.254 549.196C912.926 552.477 914.49 555.51 916.774 557.959C919.058 560.409 921.974 562.18 925.2 563.079C924.014 565.451 923.322 568.04 923.167 570.688C923.012 573.335 923.397 575.987 924.298 578.482C925.199 580.976 926.597 583.261 928.408 585.199C930.219 587.136 932.405 588.685 934.833 589.751L937.233 588.751C941.723 583.643 944.595 577.316 945.485 570.574C946.375 563.831 945.244 556.975 942.233 550.877C942.522 550.893 942.811 550.893 943.1 550.877C947.247 553.191 952.105 553.886 956.735 552.826C961.364 551.767 965.437 549.03 968.167 545.142C971.508 547.483 975.45 548.817 979.525 548.989C983.601 549.16 987.641 548.161 991.167 546.109C992.155 545.358 993.291 544.823 994.5 544.542C996.026 544.567 997.516 545.017 998.8 545.842C1002.38 547.777 1006.45 548.59 1010.5 548.176C1012.36 547.948 1014.14 547.254 1015.67 546.159C1017.19 545.063 1018.42 543.602 1019.23 541.908H1019.53C1021.84 541.382 1023.96 540.233 1025.65 538.587C1027.35 536.942 1028.57 534.861 1029.17 532.573C1030.37 527.93 1029.78 523.005 1027.53 518.77Z" fill="#263238"/>
<path d="M1064.13 808.295L1066.27 699.606C1046.97 680.636 1036.67 674.968 1009.8 671.801L1002.5 670.967L1000.2 653.064L934.333 649.33L937.666 670.601C928.133 671.001 920.2 673.935 912.1 675.502C886.5 680.402 868.066 699.04 862.966 716.276C858.733 730.446 831.7 835.5 831.7 835.5L826.2 867.206L886.666 845.269V868.107V951.99H1070C1070.63 931.986 1064.13 808.295 1064.13 808.295Z" fill="#FF9E20"/>
<g opacity="0.2">
<path opacity="0.1" d="M1064.13 808.295L1066.27 699.606C1046.97 680.636 1036.67 674.968 1009.8 671.801L1002.5 670.967L1000.2 653.064L934.333 649.33L937.666 670.601C928.133 671.001 920.2 673.935 912.1 675.502C886.5 680.402 868.066 699.04 862.966 716.276C858.733 730.446 831.7 835.5 831.7 835.5L826.2 867.206L886.666 845.269V868.107V951.99H1070C1070.63 931.986 1064.13 808.295 1064.13 808.295Z" fill="black"/>
</g>
<path d="M853.733 837L944.166 824.165L961.366 854.971L877.3 892.878C872.612 895.028 867.523 896.164 862.366 896.212C855.148 896.195 848.1 894.025 842.121 889.981C836.142 885.936 831.504 880.201 828.8 873.508L826.066 866.84L853.733 837Z" fill="#FF9E20"/>
<g opacity="0.1">
<path opacity="0.1" d="M853.733 837L944.166 824.165L961.366 854.971L877.3 892.878C872.612 895.028 867.523 896.164 862.366 896.212C855.148 896.195 848.1 894.025 842.121 889.981C836.142 885.936 831.504 880.201 828.8 873.508L826.066 866.84L853.733 837Z" fill="black"/>
</g>
<path d="M1038.53 678.436C1038.53 678.436 1064.1 687.137 1074.83 711.776C1081.83 727.845 1092.13 805.128 1092.13 805.128L1105.1 830.166C1108.22 836.17 1109.84 842.837 1109.83 849.603V853.437C1109.84 863.153 1106.5 872.575 1100.37 880.109C1096.81 884.486 1092.41 888.104 1087.43 890.75C1082.45 893.396 1076.98 895.015 1071.37 895.512C1058.4 896.679 1042.73 897.179 1039.4 893.378C1033.5 886.71 1024.63 868.473 1024.63 868.473L1062.4 848.47L1046.13 818.464L1038.53 678.436Z" fill="#FF9E20"/>
<g opacity="0.1">
<path opacity="0.1" d="M1038.53 678.436C1038.53 678.436 1064.1 687.137 1074.83 711.776C1081.83 727.845 1092.13 805.128 1092.13 805.128L1105.1 830.166C1108.22 836.17 1109.84 842.837 1109.83 849.603V853.437C1109.84 863.153 1106.5 872.575 1100.37 880.109C1096.81 884.486 1092.41 888.104 1087.43 890.75C1082.45 893.396 1076.98 895.015 1071.37 895.512C1058.4 896.679 1042.73 897.179 1039.4 893.378C1033.5 886.71 1024.63 868.473 1024.63 868.473L1062.4 848.47L1046.13 818.464L1038.53 678.436Z" fill="black"/>
</g>
<path d="M883.6 890.178C883.6 890.178 884.066 889.845 885.066 889.345L889.4 887.244L905.633 879.643L961.033 854.338L960.666 855.504L950.066 836.501L943.4 824.698L944.2 825.098L877.933 831.6L858.266 833.367L852.933 833.767C852.315 833.863 851.685 833.863 851.066 833.767C851.667 833.602 852.28 833.491 852.9 833.433L858.2 832.767L877.833 830.499L944.1 823.498H944.633L944.9 823.965L951.566 835.767L962.133 854.771L962.566 855.538L961.766 855.905L906.133 880.676L889.7 887.811L885.233 889.678C884.705 889.895 884.159 890.063 883.6 890.178Z" fill="#263238"/>
<path d="M899.666 828.065C899.2 828.065 898.833 811.896 898.833 791.958C898.833 772.021 899.2 755.851 899.666 755.851C900.133 755.851 900.5 772.021 900.5 791.958C900.5 811.896 900 828.065 899.666 828.065Z" fill="#263238"/>
<path d="M1055.33 852.237C1055.33 852.237 1056.3 851.937 1058.07 851.803C1060.62 851.565 1063.19 851.711 1065.7 852.237C1067.53 852.629 1069.2 853.585 1070.47 854.971C1071.79 856.63 1072.65 858.608 1072.97 860.705C1073.38 863.018 1073.17 865.399 1072.37 867.607C1071.45 869.969 1069.87 872.011 1067.8 873.474C1063.8 875.916 1059.34 877.506 1054.7 878.142C1051 878.859 1047.24 879.227 1043.47 879.242C1039.98 879.541 1036.48 878.932 1033.3 877.475C1036.66 877.993 1040.07 878.194 1043.47 878.075C1047.14 877.9 1050.8 877.421 1054.4 876.642C1058.8 875.975 1063.03 874.445 1066.83 872.141C1068.57 870.898 1069.93 869.193 1070.75 867.219C1071.57 865.245 1071.81 863.081 1071.47 860.972C1071.22 859.118 1070.53 857.354 1069.43 855.838C1068.36 854.635 1066.96 853.777 1065.4 853.37C1063 852.77 1060.54 852.456 1058.07 852.437C1057.15 852.476 1056.23 852.409 1055.33 852.237Z" fill="#263238"/>
<path d="M1070.33 895.946C1068.17 896.599 1065.92 896.858 1063.67 896.713C1058.34 896.882 1053.03 896.01 1048.03 894.146C1045.27 893.103 1042.66 891.702 1040.27 889.978C1038.32 888.517 1036.69 886.68 1035.47 884.577C1034.22 882.731 1033.42 880.619 1033.13 878.409C1033.4 878.409 1034.27 880.676 1036.47 883.944C1037.75 885.819 1039.35 887.455 1041.2 888.778C1043.53 890.335 1046.04 891.611 1048.67 892.579C1053.48 894.373 1058.56 895.375 1063.7 895.546C1065.92 895.521 1068.13 895.655 1070.33 895.946Z" fill="#263238"/>
<path d="M1088.4 817.597C1087.1 819.534 1085.6 821.333 1083.93 822.964C1081.03 826.132 1076.93 830.466 1072.33 835.167C1067.73 839.868 1063.53 844.102 1060.4 847.069C1058.83 848.805 1057.06 850.35 1055.13 851.67C1056.39 849.697 1057.88 847.884 1059.57 846.269C1062.47 842.935 1066.57 838.734 1071.13 834.033C1076.46 828.12 1082.23 822.625 1088.4 817.597Z" fill="#263238"/>
<path d="M1047.2 800.727C1046.36 793.881 1046.09 786.98 1046.37 780.089C1046.09 773.188 1046.37 766.275 1047.2 759.418C1048.03 766.275 1048.31 773.188 1048.03 780.089C1048.31 786.98 1048.03 793.881 1047.2 800.727Z" fill="#263238"/>
<path d="M1060.67 692.439C1060.67 692.905 1019.97 693.305 969.767 693.305C919.567 693.305 878.867 692.905 878.867 692.439C878.867 691.972 919.567 691.572 969.767 691.572C1019.97 691.572 1060.67 691.939 1060.67 692.439Z" fill="#FAFAFA"/>
<path d="M1000.7 671.601C990.265 672.408 979.794 672.642 969.333 672.301C958.877 672.541 948.416 672.185 938 671.234C948.425 670.448 958.884 670.226 969.333 670.567C979.8 670.346 990.271 670.691 1000.7 671.601Z" fill="#263238"/>
<path d="M1080.43 729.179C1080.43 729.646 1031.03 730.046 970.066 730.046C909.1 730.046 859.667 729.646 859.667 729.179C859.667 728.712 909.1 728.279 970.066 728.279C1031.03 728.279 1080.43 728.679 1080.43 729.179Z" fill="#FAFAFA"/>
<path d="M1087.27 766.82C1087.27 767.32 1033.93 767.687 967.967 767.687C902 767.687 848.667 767.32 848.667 766.82C848.667 766.32 902 765.953 967.967 765.953C1033.93 765.953 1087.27 766.453 1087.27 766.82Z" fill="#FAFAFA"/>
<path d="M1091.53 803.661C1091.53 804.128 1035.17 804.528 965.633 804.528C896.1 804.528 839.733 804.128 839.733 803.661C839.733 803.194 896.1 802.794 965.633 802.794C1035.17 802.794 1091.53 803.161 1091.53 803.661Z" fill="#FAFAFA"/>
<path d="M1108.57 863.506C1108.57 863.973 1045.93 864.373 968.566 864.373C891.2 864.373 828.566 863.973 828.566 863.506C828.566 863.039 891.2 862.639 968.566 862.639C1045.93 862.639 1108.57 862.973 1108.57 863.506Z" fill="#FAFAFA"/>
<path d="M1068.4 905.414C1068.4 905.881 1027.07 906.281 976.1 906.281C925.133 906.281 883.8 905.881 883.8 905.414C883.8 904.947 925.1 904.547 976.1 904.547C1027.1 904.547 1068.4 904.914 1068.4 905.414Z" fill="#FAFAFA"/>
<path d="M1025.67 809.362L1023.7 807.895C1018.67 804.116 1012.9 801.431 1006.77 800.013C1000.64 798.595 994.28 798.475 988.1 799.66C977.925 801.61 968.401 806.081 960.4 812.663L944.9 825.432L961.367 854.971L972.6 839.268C972.6 839.268 983.067 853.471 984.933 851.97C986.593 850.199 987.975 848.187 989.033 846.003L981.567 835.534L999.5 839.268L1025.67 827.299L1014.43 813.096L1025.67 816.83V809.362Z" fill="#FFBE9D"/>
<path d="M998.033 806.661L940.467 876.375L944.9 881.143L1038.3 866.907L1084.63 797.193L1080.33 793.325L998.033 806.661Z" fill="#263238"/>
<path d="M1059.1 825.065C1057.31 825.059 1055.55 825.597 1054.07 826.609C1052.59 827.621 1051.45 829.059 1050.8 830.733C1049.79 834.214 1047.83 837.344 1045.13 839.768C1040.97 842.035 1033.8 843.835 1030.03 842.002C1026.27 840.168 1011.17 826.565 1008.53 828.066C1005.9 829.566 1003.63 832.967 1006.27 836.001C1008.9 839.034 1022.93 848.07 1020.23 851.104C1017.53 854.137 988.133 840.835 983.567 842.002C979 843.169 976.4 845.936 979.033 847.77C981.667 849.603 1001.67 857.138 1002.8 859.772C1002.8 859.772 972.6 851.837 971.467 853.737C970.333 855.638 968.467 858.638 971.467 859.772C974.467 860.906 1000.53 867.707 1002.8 868.84C1006.54 870.377 1010.44 871.495 1014.43 872.174C1018.55 873.244 1022.61 874.524 1026.6 876.009C1032.71 878.147 1039.38 877.969 1045.37 875.508L1048.43 874.275C1050.75 873.326 1052.72 871.674 1054.05 869.551C1055.38 867.428 1056.02 864.941 1055.87 862.439L1055.27 852.17L1058.6 843.669L1059.1 825.065Z" fill="#FFBE9D"/>
<path d="M1084.8 797.826C1084.24 798.041 1083.66 798.187 1083.07 798.259L1078.07 799.126L1059.67 802.094L1032.33 806.261L1016.2 808.695C1010.5 809.321 1005.09 811.513 1000.57 815.03C996.415 819.068 992.612 823.452 989.2 828.132C985.633 832.533 982.233 836.801 978.966 840.868L961.6 862.372L949.766 876.842L946.433 880.709C946.071 881.177 945.658 881.602 945.2 881.976C945.2 881.976 945.466 881.443 946.166 880.509L949.2 876.442L960.6 861.705L977.7 839.934L987.7 827.132C991.18 822.365 995.061 817.903 999.3 813.796C1004.06 810.096 1009.74 807.787 1015.73 807.128L1031.9 804.794L1059.3 800.96L1077.8 798.526L1082.83 797.959C1083.48 797.806 1084.14 797.761 1084.8 797.826Z" fill="#455A64"/>
<path d="M1041.1 813.096C1040.1 813.615 1039.22 814.329 1038.5 815.196C1038.17 815.654 1038 816.201 1038 816.763C1038 817.325 1038.17 817.873 1038.5 818.33C1039.03 818.799 1039.72 819.057 1040.43 819.057C1041.14 819.057 1041.83 818.799 1042.37 818.33C1043.12 817.796 1043.64 816.999 1043.83 816.096C1043.93 815.649 1043.91 815.184 1043.78 814.746C1043.64 814.308 1043.4 813.912 1043.07 813.596C1042.7 813.315 1042.26 813.162 1041.8 813.162C1041.34 813.162 1040.9 813.315 1040.53 813.596" fill="#FAFAFA"/>
<path d="M768.433 656.331L751.5 626.325C761.973 609.315 765.705 589.001 761.963 569.378C758.221 549.754 747.275 532.241 731.277 520.28C715.28 508.319 695.387 502.776 675.511 504.741C655.635 506.706 637.212 516.036 623.865 530.898C610.518 545.76 603.211 565.077 603.382 585.054C603.553 605.03 611.189 624.22 624.788 638.851C638.388 653.482 656.967 662.496 676.874 664.12C696.781 665.745 716.576 659.862 732.367 647.629L768.433 656.331Z" fill="black"/>
<path d="M655.767 574.981C655.767 567.78 660.1 563.212 666.267 563.212C672.433 563.212 676.7 567.713 676.7 574.981C676.7 582.25 672.4 586.784 666.267 586.784C660.133 586.784 655.767 582.216 655.767 574.981ZM670.667 574.981C670.667 570.414 668.9 568.313 666.267 568.313C663.633 568.313 661.867 570.581 661.867 574.981C661.867 579.382 663.667 581.649 666.267 581.649C668.867 581.649 670.667 579.582 670.667 574.981ZM691.4 563.679H698.567L669.767 606.454H662.6L691.4 563.679ZM684.467 595.152C684.467 587.951 688.8 583.35 694.9 583.35C701 583.35 705.367 587.951 705.367 595.152C705.367 602.354 701.033 606.955 694.9 606.955C688.767 606.955 684.467 602.354 684.467 595.152ZM699.3 595.152C699.3 590.618 697.533 588.484 694.9 588.484C692.267 588.484 690.5 590.685 690.5 595.152C690.5 599.62 692.3 601.82 694.9 601.82C697.5 601.82 699.3 599.686 699.3 595.152Z" fill="white"/>
</svg>
