<svg version="1.2" xmlns="http://www.w3.org/2000/svg" viewBox="0 0 1000 1000" width="1000" height="1000"><defs><clipPath clipPathUnits="userSpaceOnUse" id="cp1"><path d="m1000 1000h-1000v-1000h1000z"/></clipPath></defs><style>.a{display:none;fill:#eceff1}.b{fill:none;stroke:#cfd8dc;stroke-linecap:round;stroke-linejoin:round;stroke-width:10}.c{fill:#b0bec5}.d{fill:#0097a7}.e{fill:#00838f}.f{fill:#fff}.g{fill:#455a64}.h{fill:#546e7a}.i{fill:#cfd8dc}.j{fill:#eceff1}.k{fill:none;stroke:#546e7a;stroke-linecap:round;stroke-linejoin:round;stroke-width:3}.l{fill:none;stroke:#546e7a;stroke-linecap:round;stroke-linejoin:round;stroke-width:4}.m{fill:none;stroke:#546e7a;stroke-linecap:round;stroke-linejoin:round;stroke-width:4;stroke-dasharray:0,12.13758}.n{fill:none;stroke:#546e7a;stroke-linecap:round;stroke-linejoin:round;stroke-width:4;stroke-dasharray:0,12.01418}.o{fill:none;stroke:#546e7a;stroke-linecap:round;stroke-linejoin:round;stroke-width:4;stroke-dasharray:0,12.1364}.p{fill:#26c6da}.q{opacity:.7;fill:#fff}.r{fill:none;stroke:#546e7a;stroke-miterlimit:10;stroke-width:4}.s{fill:none;stroke:#b0bec5;stroke-linecap:round;stroke-linejoin:round;stroke-width:3}.t{fill:none;stroke:#546e7a;stroke-linecap:round;stroke-linejoin:round;stroke-width:8}.u{fill:#78909c}</style><g style="display:none"><path class="a" d="m1000 1000h-1000v-1000h1000z"/><g clip-path="url(#cp1)" style="display:none"><g style="opacity:.2"><path class="b" d="m-1180 0l748.9 1012"/><path class="b" d="m-1151.6 0l748.8 1012"/><path class="b" d="m-1123.3 0l748.9 1012"/><path class="b" d="m-1094.9 0l748.8 1012"/><path class="b" d="m-1066.6 0l748.9 1012"/><path class="b" d="m-1038.2 0l748.8 1012"/><path class="b" d="m-1009.9 0l748.9 1012"/><path class="b" d="m-981.5 0l748.8 1012"/><path class="b" d="m-953.2 0l748.9 1012"/><path class="b" d="m-924.8 0l748.8 1012"/><path class="b" d="m-896.5 0l748.9 1012"/><path class="b" d="m-868.1 0l748.9 1012"/><path class="b" d="m-839.8 0l748.9 1012"/><path class="b" d="m-811.4 0l748.9 1012"/><path class="b" d="m-783.1 0l748.9 1012"/><path class="b" d="m-754.7 0l748.9 1012"/><path class="b" d="m-726.4 0l748.9 1012"/><path class="b" d="m-698 0l748.9 1012"/><path class="b" d="m-669.6 0l748.8 1012"/><path class="b" d="m-641.3 0l748.9 1012"/><path class="b" d="m-612.9 0l748.8 1012"/><path class="b" d="m-584.6 0l748.9 1012"/><path class="b" d="m-556.2 0l748.8 1012"/><path class="b" d="m-527.9 0l748.9 1012"/><path class="b" d="m-499.5 0l748.8 1012"/><path class="b" d="m-471.2 0l748.9 1012"/><path class="b" d="m-442.8 0l748.8 1012"/><path class="b" d="m-414.5 0l748.9 1012"/><path class="b" d="m-386.1 0l748.9 1012"/><path class="b" d="m-357.8 0l748.9 1012"/><path class="b" d="m-329.4 0l748.9 1012"/><path class="b" d="m-301.1 0l748.9 1012"/><path class="b" d="m-272.7 0l748.9 1012"/><path class="b" d="m-244.3 0l748.8 1012"/><path class="b" d="m-216 0l748.9 1012"/><path class="b" d="m-187.6 0l748.8 1012"/><path class="b" d="m-159.3 0l748.9 1012"/><path class="b" d="m-130.9 0l748.8 1012"/><path class="b" d="m-102.6 0l748.9 1012"/><path class="b" d="m-74.2 0l748.8 1012"/><path class="b" d="m-45.9 0l748.9 1012"/><path class="b" d="m-17.5 0l748.8 1012"/><path class="b" d="m10.8 0l748.9 1012"/><path class="b" d="m39.2 0l748.9 1012"/><path class="b" d="m67.5 0l748.9 1012"/><path class="b" d="m95.9 0l748.9 1012"/><path class="b" d="m124.2 0l748.9 1012"/><path class="b" d="m152.6 0l748.9 1012"/><path class="b" d="m180.9 0l748.9 1012"/><path class="b" d="m209.3 0l748.9 1012"/><path class="b" d="m237.7 0l748.8 1012"/><path class="b" d="m266 0l748.9 1012"/><path class="b" d="m294.4 0l748.8 1012"/><path class="b" d="m322.7 0l748.9 1012"/><path class="b" d="m351.1 0l748.8 1012"/><path class="b" d="m379.4 0l748.9 1012"/><path class="b" d="m407.8 0l748.8 1012"/><path class="b" d="m436.1 0l748.9 1012"/><path class="b" d="m464.5 0l748.8 1012"/><path class="b" d="m492.8 0l748.9 1012"/><path class="b" d="m521.2 0l748.9 1012"/><path class="b" d="m549.5 0l748.9 1012"/><path class="b" d="m577.9 0l748.9 1012"/><path class="b" d="m606.2 0l748.9 1012"/><path class="b" d="m634.6 0l748.9 1012"/><path class="b" d="m662.9 0l748.9 1012"/><path class="b" d="m691.3 0l748.9 1012"/><path class="b" d="m719.7 0l748.8 1012"/><path class="b" d="m748 0l748.9 1012"/><path class="b" d="m776.4 0l748.8 1012"/><path class="b" d="m804.7 0l748.9 1012"/><path class="b" d="m833.1 0l748.8 1012"/><path class="b" d="m861.4 0l748.9 1012"/><path class="b" d="m889.8 0l748.8 1012"/><path class="b" d="m918.1 0l748.9 1012"/><path class="b" d="m946.5 0l748.9 1012"/><path class="b" d="m974.8 0l748.9 1012"/><path class="b" d="m1003.2 0l748.9 1012"/><path class="b" d="m1031.5 0l748.9 1012"/><path class="b" d="m1059.9 0l748.9 1012"/><path class="b" d="m1088.2 0l748.9 1012"/><path class="b" d="m1116.6 0l748.9 1012"/><path class="b" d="m1145 0l748.8 1012"/><path class="b" d="m1173.3 0l748.9 1012"/><path class="b" d="m1201.7 0l748.8 1012"/><path class="b" d="m1230 0l748.9 1012"/><path class="b" d="m1258.4 0l748.8 1012"/><path class="b" d="m1286.7 0l748.9 1012"/><path class="b" d="m1315.1 0l748.8 1012"/><path class="b" d="m1343.4 0l748.9 1012"/><path class="b" d="m1371.8 0l748.8 1012"/><path class="b" d="m1400.1 0l748.9 1012"/><path class="b" d="m1428.5 0l748.9 1012"/><path class="b" d="m1456.8 0l748.9 1012"/><path class="b" d="m1485.2 0l748.9 1012"/></g></g></g><path class="c" d="m649.3 617.2h-362.3v-156.1h362.3z"/><path class="d" d="m667.8 471.9h-399.3v-17.7h399.3z"/><path class="e" d="m667.8 454.2h-399.3l55.5-79.9h288.3z"/><path class="f" d="m477.5 606.4h220.7v-146.2l-110.3-83.5-110.4 83.6z"/><path class="g" d="m442.7 502h-120.6v115.2h120.6z"/><path class="h" d="m442.7 502h-120.6v115.2z"/><path class="i" d="m619.3 470.1h-62.9v-45.4h62.9z"/><path class="g" d="m619.3 470.1h-62.9v-7.1h62.9z"/><path class="j" d="m556.4 463.1v-38.4h38.2z"/><path class="i" d="m533.5 566.7h-38.2v-59.4h38.2z"/><path class="j" d="m495.3 545.7v-38.4h38.2z"/><path class="g" d="m533.5 566.7h-38.2v-7.1h38.2z"/><path class="i" d="m587.8 566.7h-38.2v-59.4h38.2z"/><path class="j" d="m549.6 545.7v-38.4h38.2z"/><path class="g" d="m587.8 566.7h-38.2v-7.1h38.2z"/><path class="g" d="m676.8 526.3h-46.3v80.1h46.3z"/><path class="i" d="m667.8 537h-28.2v51.7h28.2z"/><path class="j" d="m611.4 380.3l-8.2-13.2-125.7 95.2v19.3z"/><path class="i" d="m591.4 356.8l-128.7 97.4v27.9l128.7-97.4 128.5 97.3v-27.9z"/><path class="e" d="m725.8 617.2h-469.6v-10.8h469.6z"/><path class="k" d="m829 522.3c0 182.6-148 330.6-330.6 330.6-182.6 0-330.6-148-330.6-330.6 0-182.6 148-330.6 330.6-330.6 182.6 0 330.6 148 330.6 330.6z"/><path class="l" d=""/><path class="m" d="m532.4 699.2v188.1"/><path class="l" d=""/><path class="n" d="m544.4 892.1c184.1-22.6 326.7-179.6 326.7-369.8 0-205.8-166.9-372.7-372.7-372.7-205.8 0-372.7 166.9-372.7 372.7 0 119.3 56.1 225.5 143.3 293.7"/><path class="l" d=""/><path class="l" d=""/><path class="o" d="m283.5 826.9c42.9 29.8 124.5 59.6 174.9 65.8"/><path class="l" d=""/><path class="m" d="m464.4 881.3v-188.2"/><path class="l" d=""/><path class="p" d="m895.5 601.8c0 30.3-24.5 54.9-54.8 54.9-30.3 0-54.9-24.6-54.9-54.9 0-30.3 24.6-54.9 54.9-54.9 30.3 0 54.8 24.6 54.8 54.9z"/><path fill-rule="evenodd" class="f" d="m864.9 592.6c0 13.4-24.2 42.3-24.2 42.3 0 0-24.2-28.9-24.2-42.3 0-13.3 10.8-24.2 24.2-24.2 13.3 0 24.2 10.9 24.2 24.2zm-13.9-1.4c0-5.7-4.6-10.4-10.3-10.4-5.8 0-10.4 4.7-10.4 10.4 0 5.7 4.6 10.4 10.4 10.4 5.7 0 10.3-4.7 10.3-10.4z"/><path class="k" d="m669.7 339h20"/><path class="k" d="m679.7 329v20"/><path class="k" d="m578 794.3h20"/><path class="k" d="m588 784.3v20"/><path class="k" d="m115.7 697.1h20"/><path class="k" d="m125.7 687.1v20"/><path class="k" d="m198.2 485.4c5.5 0 10 4.5 10 10 0 5.5-4.5 10-10 10"/><path class="k" d="m303 297.3h29.3"/><path class="k" d="m349.9 297.3h13.1"/><path class="k" d="m791.7 495.1v-19.6"/><path class="k" d="m791.7 463.7v-8.8"/><path class="k" d="m297.7 737.5v-19.6"/><path class="k" d="m297.7 706.1v-8.7"/><path class="k" d="m362.8 147.4c0 3.8-3.2 7-7 7-3.9 0-7-3.2-7-7 0-3.9 3.1-7 7-7 3.8 0 7 3.1 7 7z"/><path class="k" d="m654.4 900.4c0 3.9-3.1 7-7 7-3.9 0-7-3.1-7-7 0-3.9 3.1-7 7-7 3.9 0 7 3.1 7 7z"/><path class="q" d="m520.2 139.1c0 21.3-17.3 38.6-38.6 38.6-21.4 0-38.7-17.3-38.7-38.6 0-21.4 17.3-38.7 38.7-38.7 21.3 0 38.6 17.3 38.6 38.7z"/><path class="r" d="m433.6 187.1l18.7-18.7"/><path fill-rule="evenodd" class="p" d="m514.6 172.1c-18.3 18.2-47.8 18.2-66 0-18.3-18.2-18.3-47.8 0-66 18.2-18.2 47.7-18.2 66 0 18.2 18.2 18.2 47.8 0 66zm-11.5-11.5c11.9-11.9 11.9-31.2 0-43.1-11.9-11.8-31.2-11.8-43.1 0-11.9 11.9-11.9 31.2 0 43.1 11.9 11.9 31.2 11.9 43.1 0z"/><path class="h" d="m394.7 225.9c-2.6-2.6-2.6-6.9 0-9.6l34.2-34.1c2.7-2.7 6.9-2.7 9.6 0 2.6 2.6 2.6 6.9 0 9.5l-34.2 34.2c-2.6 2.7-6.9 2.7-9.6 0z"/><path class="p" d="m487.8 316.1h0.6c2.8 0 5-2.2 5-4.9v-6.4h-10.5v6.4c0 2.7 2.2 4.9 4.9 4.9z"/><path class="p" d="m441.2 316.1h0.7c2.7 0 4.9-2.2 4.9-4.9v-6.4h-10.5v6.4c0 2.7 2.2 4.9 4.9 4.9z"/><path fill-rule="evenodd" class="p" d="m501.2 291.6v11.8c0 2.5-2 4.4-4.4 4.4h-63.9c-2.5 0-4.4-1.9-4.4-4.4v-11.8c0-3.7 3-6.7 6.7-6.7h1.4v-15.6c0-3.6 2.9-6.6 6.5-6.6h43.4c3.6 0 6.6 3 6.6 6.6v15.6h1.4c3.7 0 6.7 3 6.7 6.7zm-56.9-7.9h41.1v-9.5h-41.1zm8.8 10.5c0-0.8-0.8-1.6-1.6-1.6h-13.1c-0.8 0-1.6 0.8-1.6 1.6v3.5c0 0.9 0.8 1.6 1.6 1.6h13.1c0.8 0 1.6-0.7 1.6-1.6zm39.7 0c0-0.9-0.7-1.6-1.6-1.6h-13c-0.9 0-1.6 0.7-1.6 1.6v3.4c0 0.9 0.7 1.6 1.6 1.6h13c0.9 0 1.6-0.7 1.6-1.6z"/><path class="p" d="m464.8 285.9c-1.2 0-2.2-1-2.2-2.2v-9.5c0-1.2 1-2.2 2.2-2.2 1.2 0 2.2 1 2.2 2.2v9.5c0 1.2-1 2.2-2.2 2.2z"/><path class="p" d=""/><path class="p" d=""/><path class="p" d=""/><path class="p" d=""/><path class="p" d=""/><path class="p" d=""/><path class="p" d="m492.2 282.7h-0.1v-11.2h0.1c2.8 0 5.1 2.3 5.1 5.1v1c0 2.8-2.3 5.1-5.1 5.1z"/><path class="p" d="m437.5 271.5h0.1v11.2h-0.1c-2.9 0-5.2-2.3-5.2-5.1v-1c0-2.8 2.3-5.1 5.2-5.1z"/><path class="p" d="m584.1 316.1h0.6c2.7 0 4.9-2.2 4.9-4.9v-6.4h-10.5v6.4c0 2.7 2.2 4.9 5 4.9z"/><path class="p" d="m537.5 316.1h0.6c2.7 0 4.9-2.2 4.9-4.9v-6.4h-10.5v6.4c0 2.7 2.2 4.9 5 4.9z"/><path fill-rule="evenodd" class="p" d="m597.4 291.6v11.8c0 2.5-1.9 4.4-4.3 4.4h-64c-2.4 0-4.4-1.9-4.4-4.4v-11.8c0-3.7 3-6.7 6.7-6.7h1.4v-15.6c0-3.6 3-6.6 6.6-6.6h43.4c3.6 0 6.5 3 6.5 6.6v15.6h1.4c3.7 0 6.7 3 6.7 6.7zm-56.9-7.9h41.2v-9.5h-41.2zm8.8 10.5c0-0.8-0.7-1.6-1.6-1.6h-13c-0.9 0-1.6 0.8-1.6 1.6v3.5c0 0.9 0.7 1.6 1.6 1.6h13c0.9 0 1.6-0.7 1.6-1.6zm39.8 0c0-0.9-0.7-1.6-1.6-1.6h-13c-0.9 0-1.6 0.7-1.6 1.6v3.4c0 0.9 0.7 1.6 1.6 1.6h13c0.9 0 1.6-0.7 1.6-1.6z"/><path class="p" d="m561.1 285.9c-1.2 0-2.2-1-2.2-2.2v-9.5c0-1.2 1-2.2 2.2-2.2 1.2 0 2.2 1 2.2 2.2v9.5c0 1.2-1 2.2-2.2 2.2z"/><path class="p" d=""/><path class="p" d=""/><path class="p" d=""/><path class="p" d=""/><path class="p" d=""/><path class="p" d=""/><path class="p" d="m588.4 282.7h-0.1v-11.2h0.1c2.9 0 5.2 2.3 5.2 5.1v1c0 2.8-2.3 5.1-5.2 5.1z"/><path class="p" d="m533.7 271.5h0.1v11.2h-0.1c-2.8 0-5.1-2.3-5.1-5.1v-1c0-2.8 2.3-5.1 5.1-5.1z"/><path class="k" d="m416.3 243.4v95.8"/><path class="k" d="m404.9 339.2h22.8"/><path class="k" d="m512.6 243.4v95.8"/><path class="k" d="m501.2 339.2h22.7"/><path class="k" d="m608.8 243.4v95.8"/><path class="k" d="m597.5 339.2h22.7"/><path class="f" d="m753.8 233.8l-28 28.1v129.2h114.9v-157.3z"/><path class="i" d="m753.8 233.8v28.1h-28"/><path class="s" d="m742.9 296.9h80.6"/><path class="s" d="m742.9 308.6h80.6"/><path class="s" d="m742.9 320.3h80.6"/><path class="s" d="m742.9 332.1h80.6"/><path class="s" d="m742.9 343.8h40.5"/><path class="c" d="m780.2 276.2v5.9q-1.1 0.6-2.4 0.9-1.3 0.2-2.7 0.2-3 0-4.8-1.7-1.8-1.7-1.8-4.6 0-3 1.8-4.7 1.8-1.7 5-1.7 1.2 0 2.4 0.2 1.1 0.2 2.1 0.7v2.5q-1-0.6-2.1-0.9-1-0.2-2-0.2-1.9 0-2.9 1-1.1 1.1-1.1 3.1 0 1.9 1 3 1 1 2.8 1 0.5 0 1 0 0.4-0.1 0.7-0.2v-2.4h-1.9v-2.1zm11.4-5.1v2.6q-1-0.5-2-0.7-1-0.2-1.8-0.2-1.2 0-1.7 0.3-0.6 0.3-0.6 0.9 0 0.5 0.4 0.8 0.4 0.3 1.3 0.5l1.4 0.3q2 0.4 2.9 1.2 0.9 0.9 0.9 2.4 0 2.1-1.2 3-1.2 1-3.7 1-1.2 0-2.4-0.2-1.2-0.2-2.3-0.6v-2.7q1.1 0.6 2.2 0.9 1.1 0.3 2.2 0.3 1 0 1.6-0.3 0.5-0.4 0.5-1 0-0.6-0.4-0.9-0.3-0.3-1.5-0.6l-1.2-0.2q-1.8-0.4-2.7-1.3-0.8-0.9-0.8-2.3 0-1.9 1.1-2.9 1.2-0.9 3.5-0.9 1 0 2 0.1 1.1 0.2 2.3 0.5zm2.1 2v-2.4h11.4v2.4h-4.1v9.9h-3.2v-9.9z"/><path class="p" d="m868.5 391.1h-1.7c-2.5 0-4.5-2-4.5-4.5v-114.4h10.7v114.4c0 2.5-2 4.5-4.5 4.5z"/><path class="h" d="m868.5 391.1h-1.7c-2.5 0-4.5-2-4.5-4.5v-22.3h10.7v22.3c0 2.5-2 4.5-4.5 4.5z"/><path class="h" d="m862.3 272.2l5.4-16.1 5.3 16.1z"/><path class="k" d="m867.7 385.1h9.5v-33.3"/><path class="d" d="m235.7 762.8c0 19.3-15.7 35-35.1 35-19.3 0-35-15.7-35-35 0-19.3 15.7-35 35-35 19.4 0 35.1 15.7 35.1 35z"/><path class="p" d="m229.9 762.8c0 16.1-13.1 29.2-29.3 29.2-16.1 0-29.2-13.1-29.2-29.2 0-16.1 13.1-29.2 29.2-29.2 16.2 0 29.3 13.1 29.3 29.2z"/><path class="f" d="m204.8 771.1q0-1.7-0.9-2.7-1-1-3.2-1.9-2.3-0.8-3.9-1.7-1.6-0.8-2.8-1.9-1.2-1.1-1.8-2.5-0.7-1.5-0.7-3.5 0-3.5 2.2-5.8 2.3-2.2 6-2.6v-4.4h3.3v4.5q3.7 0.5 5.7 3 2.1 2.6 2.1 6.6h-6q0-2.5-1-3.7-1-1.2-2.7-1.2-1.7 0-2.7 0.9-0.9 1-0.9 2.7 0 1.5 0.9 2.5 0.9 1 3.4 1.9 2.5 1 4.1 1.9 1.5 0.9 2.6 2 1.1 1.1 1.7 2.5 0.6 1.4 0.6 3.3 0 3.6-2.2 5.7-2.2 2.2-6 2.6v4.1h-3.3v-4q-4.3-0.5-6.6-3-2.3-2.6-2.3-6.9h6q0 2.5 1.1 3.8 1.2 1.3 3.4 1.3 1.8 0 2.9-0.9 1-1 1-2.6z"/><path class="d" d="m431.2 745.9c0 29.6-24.1 53.7-53.7 53.7-29.7 0-53.8-24.1-53.8-53.7 0-29.7 24.1-53.8 53.8-53.8 29.6 0 53.7 24.1 53.7 53.8z"/><path class="p" d="m422.3 745.9c0 24.7-20.1 44.8-44.8 44.8-24.8 0-44.9-20.1-44.9-44.8 0-24.8 20.1-44.9 44.9-44.9 24.7 0 44.8 20.1 44.8 44.9z"/><path class="f" d="m383.9 757.8q0-2.6-1.5-4.1-1.4-1.5-4.9-2.8-3.4-1.3-5.9-2.6-2.5-1.3-4.3-3-1.8-1.6-2.8-3.9-1-2.3-1-5.4 0-5.3 3.4-8.8 3.4-3.4 9.1-4v-6.7h5.1v6.8q5.6 0.8 8.8 4.7 3.2 3.9 3.2 10.1h-9.2q0-3.8-1.6-5.7-1.6-1.9-4.2-1.9-2.6 0-4 1.5-1.4 1.5-1.4 4.1 0 2.4 1.4 3.8 1.3 1.5 5.1 3 3.8 1.5 6.3 2.9 2.4 1.3 4.1 3.1 1.7 1.6 2.6 3.8 0.9 2.2 0.9 5.1 0 5.4-3.4 8.7-3.4 3.4-9.3 4v6.3h-5v-6.3q-6.5-0.7-10.1-4.6-3.6-3.9-3.6-10.4h9.2q0 3.8 1.8 5.8 1.8 2 5.2 2 2.8 0 4.4-1.5 1.6-1.4 1.6-4z"/><path class="f" d="m233.6 391h-4.9-4.9-4.9-4.9-4.9-4.9-4.9-4.9-4.9-4.9-4.9-4.9-4.9-4.9-4.9-4.9v-9.3-9.3-9.3-9.2-9.3-9.3-9.3-9.3-9.3-9.3-9.2-9.3-9.3-9.3-9.3-7.5c0-0.6 0.7-0.8 1.1-0.4l3.8 4.7 4.1-5.1c0.4-0.5 1.2-0.5 1.6 0l4.1 5.1 4.1-5.1c0.4-0.5 1.2-0.5 1.6 0l4.1 5.1 4.1-5.1c0.4-0.5 1.2-0.5 1.6 0l4.1 5.1 4.1-5.1c0.4-0.5 1.2-0.5 1.6 0l4.1 5.1 4.1-5.1c0.4-0.5 1.2-0.5 1.6 0l4.1 5.1 4.1-5.1c0.4-0.5 1.2-0.5 1.6 0l4.1 5.1 4.1-5.1c0.4-0.5 1.2-0.5 1.6 0l4.1 5.1 3.8-4.7c0.4-0.4 1.1-0.2 1.1 0.4v7.5 9.3 9.3 9.3 9.3 9.2 9.3 9.3 9.3 9.3 9.3 9.3 9.2 9.3 9.3z"/><path class="c" d="m233.6 391h-78.4v-10.4h78.4z"/><path class="c" d="m178.8 277.4h1.7q0.8 0 1.2-0.3 0.4-0.3 0.4-1 0-0.6-0.4-0.9-0.4-0.4-1.2-0.4h-1.7zm0 5.4h1.8q1 0 1.5-0.4 0.5-0.4 0.5-1.2 0-0.8-0.5-1.2-0.5-0.4-1.5-0.4h-1.8zm4.8-4.4q1 0.3 1.6 1.1 0.5 0.8 0.5 1.9 0 1.8-1.2 2.7-1.2 0.9-3.6 0.9h-5.3v-12.4h4.8q2.5 0 3.7 0.8 1.1 0.8 1.1 2.5 0 0.9-0.4 1.5-0.4 0.7-1.2 1zm4.9 6.6v-12.4h3.2v12.4zm6.3 0v-12.4h3.1v10h5.6v2.4zm10.8 0v-12.4h3.2v10h5.5v2.4z"/><path class="s" d="m166 302.8h56.8"/><path class="s" d="m166 311.9h56.8"/><path class="s" d="m166 320.9h56.8"/><path class="s" d="m166 330h56.8"/><path class="s" d="m166 339h56.8"/><path class="s" d="m166 348.1h56.8"/><path class="s" d="m166 357.1h23"/><path class="h" d="m252.4 427.1h-138.9c-5.4 0-9.8-4.4-9.8-9.8v-71.1c0-5.4 4.4-9.8 9.8-9.8h138.9c5.4 0 9.8 4.4 9.8 9.8v71.1c0 5.4-4.4 9.8-9.8 9.8z"/><path class="f" d="m143.8 389.5h-17.8c-2.1 0-3.9-1.8-3.9-4v-17.8c0-2.1 1.8-3.9 3.9-3.9h17.8c2.2 0 4 1.8 4 3.9v17.8c0 2.2-1.8 4-4 4z"/><path class="k" d="m122.1 370.4h25.7"/><path class="k" d="m122.1 376.6h25.7"/><path class="k" d="m122.1 382.8h25.7"/><path class="k" d="m140.7 382.8h-11.5v-12.4h11.5z"/><path class="p" d="m246.8 364.3c0 8.8-7.2 16-16.1 16-8.9 0-16.1-7.2-16.1-16 0-8.9 7.2-16.1 16.1-16.1 8.9 0 16.1 7.2 16.1 16.1z"/><path class="f" d="m227.1 364.3c0 8.8-7.2 16-16.1 16-8.8 0-16-7.2-16-16 0-8.9 7.2-16.1 16-16.1 8.9 0 16.1 7.2 16.1 16.1z"/><path class="s" d="m122.1 351.8h50.5"/><path class="s" d="m122.1 401.5h103.8"/><path class="s" d="m122.1 411.2h103.8"/><path class="t" d="m643.6 745.9v33l42.8 12.2"/><path class="h" d="m652.4 745.9c0 4.8-3.9 8.8-8.8 8.8-4.8 0-8.8-4-8.8-8.8 0-4.9 4-8.8 8.8-8.8 4.9 0 8.8 3.9 8.8 8.8z"/><path class="h" d="m681.1 728.9l-89.4 26.9-4.7-15.6 89.4-26.9z"/><path class="h" d="m680.1 707.1l-89.5 26.9-11.1-6.4 92.8-27.9c2.8-0.9 5.8 0.7 6.6 3.5z"/><path class="p" d="m682.7 734.1l-84.4 25.4-7.8-26 89.4-27 6.3 21c0.9 2.8-0.7 5.8-3.5 6.6z"/><path class="h" d="m698 810.2h-4.1c-4.1 0-7.5-3.4-7.5-7.5v-22.5c0-4.1 3.4-7.5 7.5-7.5h4.1z"/><path class="g" d="m345.5 648.7v4.8h-10.2v10.5h-6.3v-26.2h17.5v4.8h-11.2v6.1zm17.8-10.9v26.2h-6.3v-26.2zm17.6 0l4.3 8.7 4.2-8.7h7.3l-7.4 13 7.6 13.2h-7.3l-4.4-8.9-4.5 8.9h-7.2l7.5-13.2-7.3-13zm41.7 10.4v4.7h-10v6.2h11.8v4.9h-18.1v-26.2h18.1v4.8h-11.8v5.6zm20.4 15.8h-8.6v-26.2h8.4q3.5 0 6.3 1.5 2.8 1.6 4.3 4.5 1.6 2.9 1.6 6.4v1.2q0 3.6-1.5 6.5-1.5 2.9-4.3 4.5-2.8 1.6-6.2 1.6zm-0.2-21.4h-2.1v16.5h2.2q2.7 0 4.2-1.9 1.5-1.9 1.5-5.8v-1.1q0-3.8-1.5-5.7-1.5-2-4.3-2zm55.9 21.4l-1.6-4.9h-8.6l-1.6 4.9h-6.7l9.6-26.2h6l9.7 26.2zm-5.9-18.9l-2.8 9.1h5.6zm35.5 11.9q0-1.4-1-2.1-0.9-0.8-3.4-1.6-2.5-0.9-4.1-1.6-5.1-2.6-5.1-6.9 0-2.2 1.3-3.9 1.3-1.6 3.6-2.6 2.3-0.9 5.2-0.9 2.9 0 5.1 1 2.3 1 3.5 2.9 1.2 1.8 1.2 4.2h-6.3q0-1.6-1-2.4-0.9-0.9-2.6-0.9-1.7 0-2.7 0.7-1 0.8-1 1.9 0 1 1.1 1.9 1.1 0.8 3.8 1.7 2.7 0.8 4.5 1.8 4.2 2.5 4.2 6.8 0 3.4-2.5 5.4-2.6 2-7.2 2-3.2 0-5.8-1.2-2.5-1.1-3.8-3.1-1.3-2-1.3-4.6h6.3q0 2.1 1.1 3.1 1.1 1 3.5 1 1.6 0 2.5-0.7 0.9-0.6 0.9-1.9zm30.5 0q0-1.4-1-2.1-0.9-0.8-3.4-1.6-2.5-0.9-4.1-1.6-5.1-2.6-5.1-6.9 0-2.2 1.3-3.9 1.3-1.6 3.6-2.6 2.3-0.9 5.2-0.9 2.9 0 5.1 1 2.3 1 3.5 2.9 1.2 1.8 1.2 4.2h-6.3q0-1.6-1-2.4-0.9-0.9-2.6-0.9-1.7 0-2.7 0.7-1 0.8-1 1.9 0 1 1.1 1.9 1.1 0.8 3.8 1.7 2.7 0.8 4.5 1.8 4.2 2.5 4.2 6.8 0 3.4-2.6 5.4-2.5 2-7.1 2-3.2 0-5.8-1.2-2.5-1.1-3.9-3.1-1.3-2-1.3-4.6h6.4q0 2.1 1.1 3.1 1.1 1 3.5 1 1.6 0 2.5-0.7 0.9-0.6 0.9-1.9zm33.3-8.8v4.7h-10v6.2h11.8v4.9h-18.1v-26.2h18.1v4.8h-11.8v5.6zm32.7-10.4v4.8h-7.8v21.4h-6.4v-21.4h-7.7v-4.8zm23.3 19.2q0-1.4-1-2.1-1-0.8-3.4-1.6-2.5-0.9-4.1-1.6-5.1-2.6-5.1-6.9 0-2.2 1.3-3.9 1.3-1.6 3.6-2.6 2.3-0.9 5.2-0.9 2.8 0 5.1 1 2.2 1 3.5 2.9 1.2 1.8 1.2 4.2h-6.3q0-1.6-1-2.4-1-0.9-2.6-0.9-1.7 0-2.7 0.7-1 0.8-1 1.9 0 1 1.1 1.9 1.1 0.8 3.8 1.7 2.7 0.8 4.5 1.8 4.2 2.5 4.2 6.8 0 3.4-2.6 5.4-2.6 2-7.1 2-3.2 0-5.8-1.2-2.6-1.1-3.9-3.1-1.3-2-1.3-4.6h6.4q0 2.1 1.1 3.1 1.1 1 3.5 1 1.6 0 2.5-0.7 0.9-0.6 0.9-1.9z"/><g style="display:none"><path fill-rule="evenodd" class="u" d="m365.6 952.5q0.4 0.4 0.4 1.3v14.3q0 1-0.4 1.4-0.4 0.5-1.1 0.5-0.7 0-1.1-0.5-0.4-0.5-0.4-1.4v-0.3q-0.7 0.8-1.3 1.2-0.7 0.5-1.4 0.7-0.7 0.3-1.6 0.3-1.2 0-2.2-0.5-1-0.5-1.7-1.4-0.7-0.9-1.1-2.2-0.4-1.2-0.4-2.6 0-3.1 1.5-4.8 1.5-1.7 3.9-1.7 1.4 0 2.4 0.5 0.9 0.5 1.9 1.5v-4.8q0-1 0.4-1.5 0.4-0.5 1.1-0.5 0.7 0 1.1 0.5zm-2.8 10.9q0-1.3-0.4-2.2-0.5-1-1.2-1.5-0.7-0.5-1.5-0.5-0.9 0-1.6 0.5-0.7 0.5-1.1 1.5-0.4 0.9-0.4 2.2 0 1.3 0.4 2.2 0.4 0.9 1.1 1.4 0.7 0.5 1.6 0.5 0.8 0 1.5-0.5 0.7-0.4 1.2-1.3 0.4-0.9 0.4-2.3z"/><path fill-rule="evenodd" class="u" d="m377.3 964.2h-6.4q0 1.1 0.5 1.9 0.4 0.9 1.1 1.3 0.7 0.4 1.6 0.4 0.6 0 1.1-0.1 0.4-0.1 0.9-0.4 0.4-0.3 0.8-0.6 0.4-0.4 1-0.9 0.3-0.3 0.7-0.3 0.5 0 0.8 0.3 0.3 0.3 0.3 0.8 0 0.4-0.3 1-0.4 0.6-1 1.1-0.7 0.6-1.8 0.9-1 0.4-2.4 0.4-3.1 0-4.9-1.8-1.7-1.8-1.7-4.8 0-1.5 0.4-2.7 0.5-1.2 1.3-2.1 0.8-0.9 2-1.3 1.2-0.5 2.7-0.5 1.9 0 3.2 0.8 1.4 0.8 2 2.1 0.7 1.2 0.7 2.5 0 1.3-0.7 1.6-0.7 0.4-1.9 0.4zm-0.5-1.8q-0.1-1.7-0.9-2.5-0.8-0.9-2.1-0.9-1.2 0-1.9 0.9-0.8 0.8-1 2.5z"/><path class="u" d="m390.1 963q-1-0.5-2.5-0.9-1.3-0.3-2-0.5-0.7-0.2-1.1-0.6-0.5-0.3-0.5-0.8 0-0.6 0.6-0.9 0.6-0.4 1.5-0.4 0.8 0 1.3 0.3 0.5 0.3 0.9 0.7 0.5 0.6 0.8 0.9 0.4 0.3 0.9 0.3 0.6 0 1-0.4 0.4-0.3 0.4-0.9 0-0.5-0.4-1.1-0.3-0.5-1-0.9-0.7-0.5-1.7-0.7-1-0.3-2.2-0.3-1.6 0-2.8 0.5-1.1 0.5-1.7 1.4-0.6 0.9-0.6 1.9 0 1 0.7 1.8 0.6 0.7 1.7 1.2 1 0.5 2.7 0.9 1.5 0.3 2.1 0.7 0.7 0.4 0.7 1.3 0 0.5-0.7 1-0.6 0.4-1.6 0.4-1.2 0-1.9-0.4-0.6-0.5-1.1-1.3-0.3-0.5-0.6-0.7-0.2-0.3-0.7-0.3-0.6 0-1 0.4-0.4 0.4-0.4 0.9 0 0.8 0.6 1.6 0.6 0.8 1.8 1.4 1.3 0.5 3 0.5 1.9 0 3.1-0.5 1.3-0.5 2-1.5 0.6-0.9 0.6-2.2 0-0.9-0.5-1.6-0.5-0.7-1.4-1.2z"/><path class="u" d="m395.3 956.8q-0.7 0-1.2 0.5-0.4 0.5-0.4 1.4v9.3q0 1 0.4 1.5 0.5 0.5 1.2 0.5 0.7 0 1.2-0.5 0.4-0.5 0.4-1.5v-9.3q0-0.9-0.4-1.4-0.5-0.5-1.2-0.5z"/><path class="u" d="m395.3 952.1q-0.6 0-1.1 0.5-0.5 0.4-0.5 1.1 0 0.8 0.5 1.2 0.5 0.4 1.1 0.4 0.7 0 1.2-0.4 0.4-0.4 0.4-1.2 0-0.8-0.5-1.2-0.4-0.4-1.1-0.4z"/><path fill-rule="evenodd" class="u" d="m410.8 957.4q0.3 0.6 0.3 1.8v9.4q0 1.6-0.3 2.8-0.4 1.1-1.1 1.9-0.8 0.8-2 1.1-1.2 0.4-3.1 0.4-1.6 0-3-0.5-1.3-0.4-2-1.2-0.7-0.7-0.7-1.5 0-0.6 0.4-1 0.4-0.3 1-0.3 0.7 0 1.2 0.6 0.3 0.3 0.6 0.6 0.2 0.4 0.6 0.6 0.3 0.2 0.8 0.3 0.5 0.1 1.1 0.1 1.2 0 1.9-0.3 0.7-0.4 1-1 0.3-0.6 0.3-1.3 0.1-0.8 0.1-2.3-0.7 1-1.7 1.5-1 0.6-2.3 0.6-1.7 0-2.9-0.8-1.2-0.9-1.9-2.4-0.6-1.5-0.6-3.4 0-1.5 0.4-2.7 0.4-1.1 1.1-1.9 0.8-0.8 1.7-1.3 1-0.4 2.1-0.4 1.4 0 2.4 0.6 1 0.5 1.9 1.6v-0.4q0-0.9 0.4-1.3 0.4-0.5 1.1-0.5 0.9 0 1.2 0.6zm-2.8 6q0-2-0.9-3.1-0.9-1.1-2.3-1.1-1.4 0-2.2 1.1-0.9 1-0.9 3 0 2 0.9 3 0.9 1 2.2 1 0.8 0 1.5-0.4 0.8-0.5 1.2-1.4 0.5-0.8 0.5-2.1z"/><path class="u" d="m424.3 958.9q-0.5-1-1.5-1.5-1-0.6-2.3-0.6-1.3 0-2.4 0.5-1 0.6-1.8 1.7v-0.4q0-0.6-0.2-1-0.2-0.4-0.6-0.6-0.3-0.2-0.8-0.2-0.7 0-1.1 0.5-0.4 0.4-0.4 1.4v9.3q0 1 0.5 1.5 0.4 0.5 1.1 0.5 0.8 0 1.2-0.5 0.5-0.5 0.5-1.5v-4q0-2 0.2-2.7 0.3-0.9 1.1-1.5 0.7-0.5 1.5-0.5 1.4 0 1.8 0.9 0.5 0.8 0.5 2.4v5.4q0 1 0.4 1.5 0.5 0.5 1.2 0.5 0.7 0 1.1-0.5 0.5-0.5 0.5-1.5v-6q0-1.1-0.1-1.8-0.1-0.7-0.4-1.3z"/><path fill-rule="evenodd" class="u" d="m436 964.2h-6.3q0 1.1 0.4 1.9 0.4 0.9 1.1 1.3 0.8 0.4 1.6 0.4 0.6 0 1.1-0.1 0.5-0.1 0.9-0.4 0.5-0.3 0.9-0.6 0.3-0.4 0.9-0.9 0.3-0.3 0.8-0.3 0.5 0 0.8 0.3 0.3 0.3 0.3 0.8 0 0.4-0.4 1-0.3 0.6-1 1.1-0.7 0.6-1.8 0.9-1 0.4-2.4 0.4-3.1 0-4.8-1.8-1.8-1.8-1.8-4.8 0-1.5 0.5-2.7 0.4-1.2 1.2-2.1 0.8-0.9 2-1.3 1.2-0.5 2.7-0.5 1.9 0 3.2 0.8 1.4 0.8 2.1 2.1 0.7 1.2 0.7 2.5 0 1.3-0.7 1.6-0.7 0.4-2 0.4zm-0.5-1.8q-0.1-1.7-0.9-2.5-0.7-0.9-2-0.9-1.2 0-2 0.9-0.8 0.8-0.9 2.5z"/><path fill-rule="evenodd" class="u" d="m451.9 952.5q0.4 0.4 0.4 1.3v14.3q0 1-0.5 1.4-0.4 0.5-1.1 0.5-0.6 0-1.1-0.5-0.4-0.5-0.4-1.4v-0.3q-0.7 0.8-1.3 1.2-0.6 0.5-1.4 0.7-0.7 0.3-1.6 0.3-1.1 0-2.1-0.5-1-0.5-1.8-1.4-0.7-0.9-1.1-2.2-0.3-1.2-0.3-2.6 0-3.1 1.5-4.8 1.4-1.7 3.9-1.7 1.4 0 2.3 0.5 1 0.5 1.9 1.5v-4.8q0-1 0.4-1.5 0.4-0.5 1.1-0.5 0.8 0 1.2 0.5zm-2.9 10.9q0-1.3-0.4-2.2-0.4-1-1.1-1.5-0.8-0.5-1.6-0.5-0.9 0-1.6 0.5-0.7 0.5-1.1 1.5-0.4 0.9-0.4 2.2 0 1.3 0.4 2.2 0.4 0.9 1.2 1.4 0.7 0.5 1.5 0.5 0.9 0 1.6-0.5 0.7-0.4 1.1-1.3 0.4-0.9 0.4-2.3z"/><path fill-rule="evenodd" class="u" d="m471.4 959.8q0.6 1.5 0.6 3.5 0.1 1.4-0.3 2.7-0.4 1.2-1.1 2.1-0.7 0.9-1.7 1.4-1.1 0.5-2.3 0.5-0.7 0-1.4-0.2-0.6-0.2-1.1-0.5-0.5-0.2-0.8-0.6-0.3-0.3-0.9-0.9v0.3q0 1-0.4 1.4-0.4 0.5-1.1 0.5-0.7 0-1.1-0.5-0.4-0.4-0.4-1.4v-14.1q0-1 0.4-1.5 0.4-0.5 1.1-0.5 0.7 0 1.1 0.5 0.4 0.5 0.4 1.3v5q1-1 1.9-1.5 1-0.5 2.4-0.5 1.6 0 2.8 0.8 1.2 0.8 1.9 2.2zm-2.6 3.6q0-1.3-0.4-2.2-0.3-1-1-1.5-0.7-0.5-1.6-0.5-0.9 0-1.6 0.5-0.8 0.5-1.2 1.5-0.4 1-0.4 2.3 0 1.9 0.9 2.9 0.9 1.1 2.3 1.1 1.2 0 2.1-1.1 0.9-1 0.9-3z"/><path class="u" d="m483.4 957q-0.4-0.2-0.7-0.2-0.5 0-0.8 0.2-0.3 0.2-0.5 0.7-0.3 0.5-0.6 1.4l-2.6 7.4-2.7-8q-0.3-0.8-0.7-1.2-0.3-0.5-1-0.5-0.4 0-0.8 0.2-0.4 0.2-0.6 0.6-0.2 0.4-0.2 0.8 0 0.4 0.4 1.2l3.9 10.1-0.2 0.7q-0.4 0.8-0.6 1.2-0.3 0.4-0.6 0.6-0.3 0.1-0.9 0.1-0.2 0-0.5 0-0.3-0.1-0.5-0.1-0.7 0-1 0.3-0.4 0.3-0.4 0.9 0 0.8 0.7 1.1 0.7 0.3 2.2 0.3 1.4 0 2.3-0.4 0.9-0.5 1.4-1.3 0.5-0.9 1-2.3l4.3-11.1q0.1-0.4 0.2-0.8 0.1-0.4 0.2-0.7 0-0.3-0.2-0.7-0.2-0.3-0.5-0.5z"/><path class="u" d="m528.2 952q-1.6 0-2.5 0.4-1 0.4-1.3 1.3-0.4 0.9-0.4 2.4v1h-0.8q-1.6 0-1.6 1.2 0 0.5 0.4 0.8 0.4 0.3 1.1 0.3h0.9v8.6q0 1 0.4 1.5 0.5 0.5 1.2 0.5 0.7 0 1.1-0.5 0.5-0.5 0.5-1.5v-8.6h0.8q0.9 0 1.4-0.2 0.5-0.2 0.5-1 0-1.1-1.9-1.1h-0.8v-0.8q0-0.9 0.3-1.5 0.2-0.5 1.1-0.5 0.3 0 0.8 0.1 0.4 0.1 0.6 0.1 0.4 0 0.7-0.4 0.3-0.3 0.3-0.7 0-1.4-2.8-1.4z"/><path class="u" d="m538.5 957.3q-1-0.5-2-0.5-1 0-1.6 0.5-0.6 0.5-1.2 1.5 0-1-0.4-1.5-0.4-0.5-1.2-0.5-1.5 0-1.5 2.2v9q0 1 0.4 1.5 0.5 0.5 1.2 0.5 0.7 0 1.1-0.5 0.5-0.5 0.5-1.5v-2.7q0-1.4 0.1-2.5 0.1-1 0.3-1.7 0.3-0.7 0.7-1.1 0.5-0.4 1.2-0.4 0.5 0 1.2 0.2 0.7 0.2 0.9 0.2 0.4 0 0.9-0.3 0.4-0.4 0.4-1 0-0.9-1-1.4z"/><path fill-rule="evenodd" class="u" d="m548.7 964.2h-6.3q0 1.1 0.4 1.9 0.4 0.9 1.2 1.3 0.7 0.4 1.5 0.4 0.6 0 1.1-0.1 0.5-0.1 0.9-0.4 0.5-0.3 0.9-0.7 0.3-0.3 1-0.9 0.2-0.2 0.7-0.2 0.5 0 0.8 0.3 0.3 0.3 0.3 0.8 0 0.4-0.4 1-0.3 0.6-1 1.1-0.7 0.6-1.7 0.9-1.1 0.4-2.5 0.4-3.1 0-4.8-1.8-1.8-1.8-1.8-4.8 0-1.5 0.5-2.7 0.4-1.2 1.2-2.1 0.8-0.9 2-1.3 1.2-0.5 2.7-0.5 1.9 0 3.3 0.8 1.3 0.8 2 2.1 0.7 1.2 0.7 2.5 0 1.3-0.7 1.6-0.7 0.4-2 0.4zm-0.5-1.8q-0.1-1.7-0.9-2.5-0.7-0.9-2-0.9-1.2 0-2 0.9-0.8 0.8-0.9 2.5z"/><path fill-rule="evenodd" class="u" d="m562.2 964.2h-6.4q0.1 1.1 0.5 1.9 0.4 0.9 1.1 1.3 0.8 0.4 1.6 0.4 0.6 0 1.1-0.1 0.5-0.1 0.9-0.4 0.5-0.3 0.8-0.7 0.4-0.3 1-0.9 0.3-0.2 0.7-0.2 0.5 0 0.9 0.3 0.3 0.3 0.3 0.8 0 0.4-0.4 1-0.3 0.6-1 1.1-0.7 0.6-1.8 0.9-1 0.4-2.4 0.4-3.1 0-4.8-1.8-1.8-1.8-1.8-4.8 0-1.5 0.5-2.7 0.4-1.2 1.2-2.1 0.8-0.9 2-1.3 1.2-0.5 2.7-0.5 1.9 0 3.2 0.8 1.4 0.8 2.1 2.1 0.7 1.2 0.7 2.5 0 1.3-0.7 1.6-0.7 0.4-2 0.4zm-0.5-1.8q-0.1-1.7-0.9-2.5-0.8-0.9-2-0.9-1.2 0-2 0.9-0.8 0.8-1 2.5z"/><path fill-rule="evenodd" class="u" d="m578.2 959.9q0.7 1.4 0.7 3.5 0 1.5-0.4 2.7-0.5 1.3-1.2 2.1-0.7 0.9-1.7 1.3-1 0.5-2.2 0.5-1.4 0-2.3-0.6-1-0.5-1.8-1.6v4.9q0 2.1-1.6 2.1-0.9 0-1.2-0.6-0.3-0.5-0.3-1.6v-14q0-0.9 0.4-1.3 0.4-0.5 1.1-0.5 0.7 0 1.1 0.5 0.5 0.4 0.5 1.3v0.4q0.9-1.1 1.9-1.6 1-0.6 2.2-0.6 1.5 0 2.8 0.8 1.2 0.8 2 2.3zm-2.6 3.4q0-1.2-0.4-2.2-0.4-0.9-1-1.4-0.7-0.5-1.6-0.5-1.3 0-2.2 1.1-1 1-1 3.1 0 1.9 1 3 0.9 1.1 2.2 1.1 0.8 0 1.5-0.5 0.7-0.5 1.1-1.4 0.4-0.9 0.4-2.3z"/><path class="u" d="m582.1 956.8q-0.7 0-1.1 0.5-0.5 0.5-0.5 1.4v9.3q0 1 0.5 1.5 0.4 0.5 1.1 0.5 0.7 0 1.2-0.5 0.5-0.5 0.5-1.5v-9.4q0-0.8-0.5-1.3-0.5-0.5-1.2-0.5z"/><path class="u" d="m582.2 952.1q-0.7 0-1.2 0.5-0.5 0.4-0.5 1.1 0 0.8 0.5 1.2 0.5 0.4 1.2 0.4 0.6 0 1.1-0.4 0.5-0.4 0.5-1.2 0-0.8-0.5-1.2-0.5-0.4-1.1-0.4z"/><path class="u" d="m596.8 966.9l-3.3-5.3 1.7-1.5q1.3-1.2 1.4-1.9-0.1-0.6-0.4-1-0.5-0.4-1.1-0.4-0.5 0-0.8 0.3-0.4 0.2-1.1 0.9l-3.6 3.9v-7.9q0-1-0.4-1.5-0.5-0.5-1.2-0.5-0.8 0-1.2 0.6-0.4 0.5-0.4 1.6v13.8q0 1 0.4 1.5 0.4 0.5 1.2 0.5 0.6 0 1.1-0.5 0.5-0.5 0.5-1.5v-2.5l1.8-1.7 2.8 4.7q0.6 0.8 0.9 1.2 0.3 0.3 0.9 0.3 0.7 0 1.1-0.5 0.4-0.4 0.4-1.2 0-0.2-0.1-0.6-0.2-0.3-0.6-0.8z"/><path class="u" d="m601.2 966.4q-0.7 0-1.2 0.5-0.6 0.6-0.6 1.3 0 0.8 0.6 1.3 0.5 0.5 1.2 0.5 0.8 0 1.3-0.5 0.5-0.5 0.5-1.3 0-0.8-0.5-1.3-0.5-0.5-1.3-0.5z"/><path class="u" d="m616 964.6q-0.5 0-0.9 0.3-0.3 0.3-0.6 0.8-0.5 1-1.2 1.4-0.7 0.5-1.7 0.5-0.7 0-1.3-0.3-0.6-0.3-1.1-0.8-0.4-0.6-0.6-1.3-0.2-0.8-0.2-1.7 0-2 0.8-3.1 0.9-1.1 2.4-1.1 1 0 1.6 0.4 0.7 0.5 1.2 1.4 0.4 0.4 0.6 0.7 0.3 0.2 0.7 0.2 0.6 0 1.1-0.4 0.4-0.4 0.4-1 0-0.6-0.4-1.3-0.4-0.6-1.1-1.2-0.7-0.6-1.8-0.9-1-0.4-2.3-0.4-2 0-3.5 0.8-1.4 0.9-2.2 2.4-0.8 1.5-0.8 3.5 0 3 1.7 4.7 1.7 1.8 4.7 1.8 1.4 0 2.5-0.4 1.2-0.4 1.9-1 0.7-0.6 1.1-1.3 0.4-0.7 0.4-1.3 0-0.5-0.4-1-0.4-0.4-1-0.4z"/><path fill-rule="evenodd" class="u" d="m630.9 960.7q0.5 1.2 0.5 2.7 0 1.4-0.5 2.7-0.4 1.2-1.3 2.1-0.9 0.8-2 1.3-1.2 0.5-2.7 0.5-1.5 0-2.7-0.5-1.1-0.5-2-1.3-0.9-0.9-1.3-2.1-0.4-1.2-0.4-2.7 0-1.5 0.4-2.7 0.5-1.2 1.3-2.1 0.8-0.9 2-1.3 1.2-0.5 2.7-0.5 1.5 0 2.7 0.5 1.2 0.5 2 1.3 0.9 0.9 1.3 2.1zm-2.8 2.7q0-2-0.9-3.1-0.8-1.1-2.3-1.1-1 0-1.7 0.5-0.7 0.5-1.1 1.5-0.4 0.9-0.4 2.2 0 1.3 0.4 2.2 0.4 1 1.1 1.5 0.7 0.5 1.7 0.5 1.5 0 2.3-1.1 0.9-1.1 0.9-3.1z"/><path class="u" d="m649.5 957.4q-1-0.6-2.3-0.6-1.2 0-2.1 0.5-0.9 0.5-1.8 1.5-0.5-1-1.4-1.5-0.9-0.5-2.1-0.5-1.2 0-2.2 0.5-0.9 0.5-1.8 1.5v-0.3q0-0.8-0.4-1.2-0.5-0.5-1.1-0.5-0.7 0-1.1 0.5-0.5 0.5-0.5 1.4v9.2q0 1.1 0.5 1.6 0.5 0.5 1.2 0.5 0.8 0 1.2-0.5 0.5-0.5 0.5-1.6v-4.3q0-2.1 0.5-3.2 0.5-1.1 2.1-1.1 0.8 0 1.1 0.5 0.4 0.4 0.5 1.1 0.1 0.7 0.1 1.9v5.1q0 1.1 0.4 1.6 0.5 0.5 1.2 0.5 0.8 0 1.3-0.5 0.4-0.5 0.4-1.6v-4.3q0-2 0.4-2.9 0.3-0.6 0.9-1 0.6-0.4 1.2-0.4 0.8 0 1.2 0.5 0.4 0.4 0.5 1 0 0.6 0 1.7v5.4q0 1.1 0.5 1.6 0.5 0.5 1.2 0.5 0.8 0 1.2-0.5 0.5-0.5 0.5-1.6v-6.3q0-1.9-0.4-2.8-0.5-0.9-1.4-1.4z"/><path class="u" d="m492.9 962.6q0 0 0 0 0 0 0 0z"/><path class="u" d="m493 963.7q0 0 0 0-0.1-0.5-0.1-0.9 0 0.4 0.1 0.9z"/><path class="u" d="m494.1 966.7q0-0.1 0-0.1 0 0 0 0.1z"/><path class="u" d="m494 966.5q0-0.1-0.1-0.2 0.1 0.1 0.1 0.2z"/><path class="u" d="m493.3 964.8q0.3 0.8 0.6 1.5-0.3-0.8-0.6-1.5z"/><path class="u" d="m503.8 949.1l-0.2-0.5c0.6-0.2 1.1-0.7 1.1-1.3 0-0.7-0.6-1.3-1.3-1.3-0.8 0-1.4 0.6-1.4 1.3 0 0.6 0.5 1.1 1.1 1.3l0.2 0.6c-2.1 0.2-3.7 1-3.7 1l0.3 0.9c1.2-0.4 2.3-0.7 3.3-0.8 0.9-0.1 1.6-0.1 2.2-0.1 0.6 0 1.1 0 1.6 0.1l0.2-0.9c0 0-1.5-0.5-3.4-0.3z"/><path class="u" d="m493.2 954.1c0 0.1-1 0.9-1.7 2.6q-0.1-0.1-0.1-0.2-0.4-0.4-1-0.4 0 0 0 0c-0.3 0-0.4 0-0.5-0.1q0.1-0.3 0.1-0.6c0-0.4-0.3-0.8-0.8-0.8-0.5 0-0.8 0.4-0.8 0.8 0 0.5 0.3 0.9 0.8 0.9q0.1 0 0.2 0c0.2 0.2 0.5 0.4 1 0.4q0.4 0 0.6 0.2c0.1 0.1 0.2 0.3 0.2 0.5q0 0 0 0c-0.6 1.5-0.4 3.3-0.4 3.3l1.3 0.1c0-0.7 0.1-1.9 0.5-2.8 0.6-1.8 1.4-2.9 1.5-3q0.1-0.1 0.1-0.2l-0.4-0.3z"/><path class="u" d="m516.9 951.3c-0.5 0-0.8 0.4-0.8 0.8q0 0.1 0 0.2c-0.2 0.3-0.4 0.6-0.4 1.1q0 0.3-0.2 0.5-0.2 0.1-0.4 0.2c-1-1.4-2.2-2.2-2.2-2.2l-0.9 1q1.1 0.9 2.1 2.5c0.5 0.7 1 1.6 1.5 2.5l1.2-0.6c0 0-0.6-1.5-1.4-2.8q0.2 0 0.4-0.2 0.4-0.3 0.4-1c0-0.2 0.1-0.4 0.2-0.5q0.2 0.2 0.5 0.2c0.5 0 0.8-0.4 0.8-0.9 0-0.4-0.3-0.8-0.8-0.8z"/><path class="u" d="m513.6 962.8c-1.8 0.9-4.7 2-8.5 2.5-1.5 0.2-2.9 0.3-4.3 0.3-1.7 0-3.2-0.1-4.4-0.3-1.4-0.1-2.4-0.3-3.1-0.5q0.3 0.7 0.6 1.5 0 0 0 0 0.1 0.1 0.1 0.2 0 0 0.1 0.1 0 0 0 0.1 0.6 1 1.4 1.9c1.8 2 3.6 2.3 3.6 2.3h0.1c0 0 1.6 0.5 4.1 0.5 2.4 0 4.8-0.5 7.1-1.4 1.6-0.9 3.2-2.2 4-3.4q0.9-1.3 1.3-2.8c0.2-0.6 0.3-1.4 0.2-2.3-0.5 0.3-1.3 0.8-2.3 1.3z"/><path fill-rule="evenodd" class="u" d="m513.6 955.8c0.8 1.2 1.8 3.2 2.1 4.5-0.3 0.3-1.2 0.9-2.6 1.6-1.7 0.8-4.5 1.9-8.1 2.4-5.9 0.8-11.1-0.4-12-0.6q-0.1-0.5-0.1-0.9 0-0.1 0-0.2 0 0 0 0-0.1-0.6-0.1-1.3c0 0 0-1.8 0.4-3 0.6-1.7 1.4-2.8 1.4-2.9 0.5-0.5 0.8-0.9 1-1l0.1-0.1c1.2-1.1 2.7-1.9 4.4-2.5q1.8-0.6 3.1-0.8c1-0.1 1.7-0.1 2.2-0.1 0.6 0 1 0.1 1.6 0.1 1.4 0.3 4.1 1.2 6.6 4.8zm-10.4 2.2c0-1.9-1.6-3.5-3.5-3.5-2 0-3.5 1.6-3.5 3.5 0 2 1.5 3.6 3.5 3.6 1.9 0 3.5-1.6 3.5-3.6zm9-1.2c0-1.2-1-2.2-2.2-2.2-1.2 0-2.2 1-2.2 2.2 0 1.2 1 2.2 2.2 2.2 1.2 0 2.2-1 2.2-2.2z"/></g></svg>