<svg width="50" height="50" viewBox="0 0 50 50" fill="none" xmlns="http://www.w3.org/2000/svg">
<line y1="-1" x2="24.7362" y2="-1" transform="matrix(0.826728 -0.562601 0.731316 0.682039 3 19.3015)" stroke="black" stroke-width="2"/>
<line y1="-1" x2="24.7952" y2="-1" transform="matrix(0.832613 0.553856 -0.723521 0.690303 23.2736 5.42301)" stroke="black" stroke-width="2"/>
<path d="M23.3515 5.45596L21.971 4.00587L24.7372 4.03671L23.3515 5.45596Z" fill="black"/>
<path d="M23.5102 7.37018C23.5102 7.37018 41.3673 20.2528 42.3878 20.7483C43.4082 21.2438 4.95252 20.7483 4.95252 20.7483L23.5102 7.37018Z" fill="black"/>
<path d="M5.29592 21.5096C5.29592 20.405 6.19135 19.5096 7.29592 19.5096H40.0306C41.1352 19.5096 42.0306 20.405 42.0306 21.5096V43.2929H5.29592V21.5096Z" fill="black"/>
<path d="M48 36.1083C48 42.6759 42.5178 48 35.7551 48C28.9924 48 23.5102 42.6759 23.5102 36.1083C23.5102 29.5408 28.9924 24.2167 35.7551 24.2167C42.5178 24.2167 48 29.5408 48 36.1083ZM26.5714 36.1083C26.5714 41.034 30.6831 45.0271 35.7551 45.0271C40.8271 45.0271 44.9388 41.034 44.9388 36.1083C44.9388 31.1827 40.8271 27.1896 35.7551 27.1896C30.6831 27.1896 26.5714 31.1827 26.5714 36.1083Z" fill="white"/>
<ellipse cx="35.7551" cy="36.1083" rx="10.2041" ry="9.90971" fill="#FF9103"/>
<path d="M38.2593 33.0078C38.1954 32.468 37.9362 32.049 37.4816 31.7507C37.0271 31.4524 36.4695 31.3032 35.809 31.3032C35.3261 31.3032 34.9035 31.3814 34.5413 31.5376C34.1826 31.6939 33.9021 31.9087 33.6997 32.1821C33.5008 32.4556 33.4014 32.7663 33.4014 33.1143C33.4014 33.4055 33.4706 33.6559 33.6091 33.8654C33.7512 34.0714 33.9323 34.2436 34.1524 34.3821C34.3726 34.517 34.6034 34.6289 34.8449 34.7177C35.0864 34.8029 35.3083 34.8721 35.5107 34.9254L36.6187 35.2237C36.9028 35.2983 37.2188 35.4013 37.5668 35.5326C37.9184 35.664 38.254 35.8434 38.5736 36.0706C38.8967 36.2944 39.1631 36.582 39.3726 36.9336C39.5821 37.2851 39.6869 37.7166 39.6869 38.228C39.6869 38.8174 39.5324 39.3501 39.2235 39.826C38.9181 40.3018 38.4706 40.68 37.8811 40.9606C37.2952 41.2411 36.5832 41.3814 35.7451 41.3814C34.9639 41.3814 34.2874 41.2553 33.7156 41.0032C33.1475 40.751 32.7 40.3995 32.3733 39.9485C32.0502 39.4975 31.8673 38.9737 31.8247 38.3771H33.1883C33.2238 38.789 33.3623 39.1299 33.6038 39.3998C33.8488 39.6662 34.1578 39.865 34.5306 39.9964C34.907 40.1243 35.3119 40.1882 35.7451 40.1882C36.2494 40.1882 36.7021 40.1065 37.1034 39.9432C37.5047 39.7763 37.8225 39.5454 38.0569 39.2507C38.2913 38.9524 38.4085 38.6044 38.4085 38.2067C38.4085 37.8444 38.3073 37.5497 38.1048 37.3224C37.9024 37.0951 37.6361 36.9105 37.3058 36.7684C36.9756 36.6264 36.6187 36.5021 36.2352 36.3956L34.8928 36.012C34.0406 35.767 33.3659 35.4172 32.8687 34.9627C32.3715 34.5081 32.123 33.9133 32.123 33.1782C32.123 32.5674 32.2881 32.0348 32.6183 31.5802C32.9521 31.1221 33.3996 30.767 33.9607 30.5149C34.5253 30.2592 35.1556 30.1314 35.8516 30.1314C36.5548 30.1314 37.1798 30.2574 37.7266 30.5096C38.2735 30.7581 38.7068 31.0991 39.0264 31.5323C39.3495 31.9655 39.52 32.4574 39.5377 33.0078H38.2593Z" fill="black"/>
<path d="M35.7551 30.1625C35.7551 30.1625 35.7551 29.5585 35.7551 29.1715V28.6761M35.7551 41.0632V42.0542V42.5497" stroke="black"/>
<ellipse cx="24.0204" cy="15.7934" rx="2.55102" ry="2.47743" fill="white"/>
<path d="M23.3469 3L24.752 4.04052H21.9419L23.3469 3Z" fill="black"/>
</svg>
