<svg width="1940" height="1670" viewBox="0 0 1940 1670" fill="none" xmlns="http://www.w3.org/2000/svg">
<g clip-path="url(#clip0_2_2)">
<mask id="mask0_2_2" style="mask-type:luminance" maskUnits="userSpaceOnUse" x="-1016" y="0" width="3006" height="1670">
<path d="M-1016 0H1990V1670H-1016V0Z" fill="white"/>
</mask>
<g mask="url(#mask0_2_2)">
<path d="M1190.7 204.5H1133.1V194H1190.7V204.5Z" fill="#FF9E22"/>
<path d="M1190.7 191.1H1133.1V189.2H1190.7V191.1Z" fill="#FF9E22"/>
<path d="M563.7 631.3H253.6V626.5H558.9V509.8H563.7V631.3Z" fill="#FF9E22"/>
<path d="M323.5 687.8C303.9 713.4 323.3 791.6 326.2 803C326.5 803.9 326.6 804.4 326.6 804.4C326.6 804.4 325.1 803.6 322.5 801.9C305.5 791.2 241.9 747 256.1 696.3C272.4 638 238.8 649.5 215 594.6C191.3 539.8 245.3 506.1 245.3 506.1C308 553.8 344.8 660.2 323.5 687.8Z" fill="#749847"/>
<path d="M326.6 804.4C326.6 804.4 325.1 803.6 322.5 801.9C321.833 800.9 321.167 799.867 320.5 798.8C307.5 778.2 291.6 750.1 290.1 733.4C289.1 723.3 289.6 711.7 290.1 700.5C291.1 677 292.1 652.6 280.5 639.2C262.8 618.6 262.2 583.9 262.2 582.4H264.8C264.8 582.7 265.4 617.6 282.5 637.5C294.7 651.7 293.7 676.6 292.7 700.6C292.2 711.7 291.7 723.2 292.6 733.1C294.2 749.6 310.8 779.2 326.2 803C326.5 803.9 326.6 804.4 326.6 804.4Z" fill="url(#paint0_linear_2_2)"/>
<path d="M328 751.8C321 779.7 336 796.5 340.8 801.1C341.7 802 342.3 802.4 342.3 802.4C341.1 802.467 339.633 802.367 337.9 802.1C316.8 799.2 262.3 774.3 255.9 738.8C249 700.3 217.6 721.6 191.6 689.6C156.3 646.2 201.6 610.9 201.6 610.9C191.9 629.2 221.5 674.2 258.7 683.2C296 692.2 336.4 718.8 328 751.8Z" fill="#749847"/>
<path d="M291.1 749.5C295.5 763 299.5 775.7 310.8 781.3C320.5 786.1 331.3 793.7 340.8 801.1C341.7 802 342.3 802.4 342.3 802.4C341.1 802.467 339.633 802.367 337.9 802.1C328.9 795.1 318.8 788.1 309.6 783.6C297.4 777.5 293.2 764.3 288.7 750.3C283.6 734.4 278.3 717.9 260.8 710.6C227.5 696.6 210.4 677.3 210.3 677.1L212.2 675.4C212.4 675.6 229.1 694.4 261.8 708.2C280.4 716 285.9 733 291.1 749.5Z" fill="url(#paint1_linear_2_2)"/>
<path d="M610.8 1056.5H622.5V1170.4H736.3V1182.1H610.8V1056.5Z" fill="#FF9E22"/>
<path d="M1340.5 1182.1V1170.4H1454.3V1056.5H1466V1182.1H1340.5Z" fill="#FF9E22"/>
<path d="M1028.3 734.1H1013.9H813.8V699V664H778.8V699H743.7V734.1V769.2V804.3V839.3H778.8H815.6V804.3H778.8V769.2H813.8H1013.9V1006H1049V734.1H1028.3Z" fill="#FF9E22"/>
<path d="M743.7 664H673.5V699H743.7V664Z" fill="#FF9E22"/>
<path d="M1013.9 699H943.8V734.1H1013.9V699Z" fill="#FF9E22"/>
<path d="M873.6 699H943.8V664H873.6V699Z" fill="#FF9E22"/>
<path d="M943.8 469.9V532.5H978.8V469.9H943.8Z" fill="#FF9E22"/>
<path d="M1010.1 434V504.9H1045.1V434H1010.1Z" fill="#FF9E22"/>
<path d="M1049 734.1H1084V699H1049V734.1Z" fill="#FF9E22"/>
<path d="M1153.6 730.7H1118.5V823.2H1153.6V730.7Z" fill="#FF9E22"/>
<path d="M1013.9 699H1049V664H1013.9V699Z" fill="#FF9E22"/>
<path d="M1119.1 664V628.9H1084H1049V664H1084H1119.1Z" fill="#FF9E22"/>
<path d="M1186.4 839.3H1118.5V823.2H1083.5V916.9H1118.5V874.4H1151.7V909.5H1186.7V875H1221.4V800.8H1186.4V839.3Z" fill="#FF9E22"/>
<path d="M1291.6 1076.2V1041.1H1256.5V1076.2H1291.6Z" fill="#FF9E22"/>
<path d="M977.5 976H942.5V1006V1041.1V1116.3H977.5V1041.1H1013.9V1006H977.5V976Z" fill="#FF9E22"/>
<path fill-rule="evenodd" clip-rule="evenodd" d="M912.9 873V908H912.6V1076.2H912.9V1111.2H674.6V873H912.9ZM877.6 908H709.7V1076.2H877.6V908Z" fill="#FF9E22"/>
<path d="M1361.7 1111.2V1076.2H1291.6V1111.2H1361.7Z" fill="#FF9E22"/>
<path d="M1158.2 1076.5V1111.6H1193.3V1076.5V1041.5H1158.2V1076.5Z" fill="#FF9E22"/>
<path d="M1013.9 1111.2H1125.4V1076.2H1013.9V1111.2Z" fill="#FF9E22"/>
<path d="M1221.4 800.8H1256.5V765.7H1221.4V800.8Z" fill="#FF9E22"/>
<path d="M1291.6 765.7V730.7H1256.5V765.7H1291.6Z" fill="#FF9E22"/>
<path d="M1355.7 695.6V660.5H1284.1V695.6H1355.7Z" fill="#FF9E22"/>
<path d="M1389.3 804.8V769.8V734.7H1354.2V769.8H1319.2V804.8H1354.2H1389.3Z" fill="#FF9E22"/>
<path d="M1284.1 804.8V839.9H1319.2V804.8H1284.1Z" fill="#FF9E22"/>
<path d="M1354.2 839.9H1319.2V875H1354.2V839.9Z" fill="#FF9E22"/>
<path d="M1354.2 980.2V1041.1H1389.3V938H1354.2V910H1319.2V980.2H1354.2Z" fill="#FF9E22"/>
<path d="M1221.4 971H1125.4V1006H1221.4V1041.1H1256.5V1006V910H1319.2V875H1221.4V910V971Z" fill="#FF9E22"/>
<path d="M1049 1041.1H1125.4V1006H1049V1041.1Z" fill="#FF9E22"/>
<path d="M905.9 802.7V839.3H942.5V909.5H977.5V839.3H942.5V802.7H905.9Z" fill="#FF9E22"/>
<path d="M846.2 939.6H741.3V1044.5H846.2V939.6Z" fill="#FF9E22"/>
<path fill-rule="evenodd" clip-rule="evenodd" d="M674.6 628.9V390.6H912.9V425.7H912.6V593.8H912.9V628.9H674.6ZM709.6 593.8H877.5V425.7H709.6V593.8Z" fill="#FF9E22"/>
<path d="M741.3 562.2H846.2V457.3H741.3V562.2Z" fill="#FF9E22"/>
<path fill-rule="evenodd" clip-rule="evenodd" d="M1392.9 425.7V593.8H1393.2V628.9H1256.5V730.7H1153.9V695.6H1221.4V628.9H1154.9V504.9H1080.2V595.2H978.8V664H943.8V560.1H978.8V532.5H1013.9V560.1H1045.1V504.9H1078.5V469.9H1154.9V390.6H1393.2V425.7H1392.9ZM1357.8 425.7H1189.9V593.8H1357.8V425.7Z" fill="#FF9E22"/>
<path d="M1326.5 457.3H1221.6V562.2H1326.5V457.3Z" fill="#FF9E22"/>
<path d="M1121.3 230.9H1117L1130 204.5H1134.3L1121.3 230.9Z" fill="#FF9E22"/>
<path d="M1190.7 231.7H983.7V228.4H1190.7V231.7Z" fill="#FF9E22"/>
<path d="M1094.3 258.1H983.7V239.1H1094.3V258.1Z" fill="#FF9E22"/>
<g style="mix-blend-mode:hard-light">
<path d="M906.5 1258H311.4V677.8H906.5V1258Z" fill="white" fill-opacity="0.9"/>
</g>
<path d="M1466 449.8H1454.3V336H1340.5V324.3H1466V449.8Z" fill="#FF9E22"/>
<path d="M736.3 324.3V336H622.5V449.8H610.8V324.3H736.3Z" fill="#FF9E22"/>
<path d="M714 739H664.5C662.8 739 661.5 737.7 661.5 736V725.3C661.5 723.6 662.8 722.3 664.5 722.3H714C715.7 722.3 717.1 723.6 717.1 725.3V736C717.1 737.7 715.7 739 714 739Z" fill="#FFD9A9"/>
<path d="M714 779.2H664.5C662.8 779.2 661.5 777.8 661.5 776.2V765.5C661.5 763.8 662.8 762.4 664.5 762.4H714C715.7 762.4 717.1 763.8 717.1 765.5V776.2C717.1 777.8 715.7 779.2 714 779.2Z" fill="#DEDEDE"/>
<path d="M714 819.4H664.5C662.8 819.4 661.5 818 661.5 816.3V805.6C661.5 804 662.8 802.6 664.5 802.6H714C715.7 802.6 717.1 804 717.1 805.6V816.3C717.1 818 715.7 819.4 714 819.4Z" fill="#DEDEDE"/>
<path d="M714 859.5H664.5C662.8 859.5 661.5 858.2 661.5 856.5V845.8C661.5 844.1 662.8 842.8 664.5 842.8H714C715.7 842.8 717.1 844.1 717.1 845.8V856.5C717.1 858.2 715.7 859.5 714 859.5Z" fill="#DEDEDE"/>
<path d="M714 899.7H664.5C662.8 899.7 661.5 898.3 661.5 896.7V886C661.5 884.3 662.8 882.9 664.5 882.9H714C715.7 882.9 717.1 884.3 717.1 886V896.7C717.1 898.3 715.7 899.7 714 899.7Z" fill="#DEDEDE"/>
<path d="M714 939.8H664.5C662.8 939.8 661.5 938.5 661.5 936.8V926.1C661.5 924.4 662.8 923.1 664.5 923.1H714C715.7 923.1 717.1 924.4 717.1 926.1V936.8C717.1 938.5 715.7 939.8 714 939.8Z" fill="#DEDEDE"/>
<path d="M840 739H742.7C741.2 739 740 737.8 740 736.3V725C740 723.5 741.2 722.3 742.7 722.3H840C841.5 722.3 842.7 723.5 842.7 725V736.3C842.7 737.8 841.5 739 840 739Z" fill="#FFD9A9"/>
<path d="M840 779.2H742.7C741.2 779.2 740 778 740 776.5V765.2C740 763.7 741.2 762.4 742.7 762.4H840C841.5 762.4 842.7 763.7 842.7 765.2V776.5C842.7 778 841.5 779.2 840 779.2Z" fill="#DEDEDE"/>
<path d="M840 819.4H742.7C741.2 819.4 740 818.1 740 816.6V805.3C740 803.8 741.2 802.6 742.7 802.6H840C841.5 802.6 842.7 803.8 842.7 805.3V816.6C842.7 818.1 841.5 819.4 840 819.4Z" fill="#DEDEDE"/>
<path d="M840 859.5H742.7C741.2 859.5 740 858.3 740 856.8V845.5C740 844 741.2 842.8 742.7 842.8H840C841.5 842.8 842.7 844 842.7 845.5V856.8C842.7 858.3 841.5 859.5 840 859.5Z" fill="#DEDEDE"/>
<path d="M840 899.7H742.7C741.2 899.7 740 898.5 740 897V885.7C740 884.2 741.2 882.9 742.7 882.9H840C841.5 882.9 842.7 884.2 842.7 885.7V897C842.7 898.5 841.5 899.7 840 899.7Z" fill="#DEDEDE"/>
<path d="M840 939.8H742.7C741.2 939.8 740 938.6 740 937.1V925.8C740 924.3 741.2 923.1 742.7 923.1H840C841.5 923.1 842.7 924.3 842.7 925.8V937.1C842.7 938.6 841.5 939.8 840 939.8Z" fill="#DEDEDE"/>
<path d="M1542.2 699H1537.4V266.8H1224.7V314.4H868.4V309.7H1219.9V262H1542.2V699Z" fill="#FF9E22"/>
<path d="M485 539.2H392.3V532.7H485V539.2Z" fill="#FF9E22"/>
<path d="M485 572.3H392.3V545H485V572.3Z" fill="#FF9E22"/>
<path d="M528.5 585.5H473.8V581.5H528.5V585.5Z" fill="#FF9E22"/>
<path d="M528.5 598.4H473.8V587.3H528.5V598.4Z" fill="#FF9E22"/>
<path d="M487 495.7H482.9V572.3H487V495.7Z" fill="#FF9E22"/>
<path d="M201.9 1371.1C201.9 1371.1 197.5 1379.3 194.6 1382.6C191.7 1385.9 180.7 1391.7 180.7 1401.3C180.6 1411.8 199.2 1408.9 206.5 1408.5C213.8 1408.2 214.3 1402.6 217.4 1396.6C220.5 1390.7 223.6 1391.7 224.1 1386.9C224.7 1382.1 221.2 1371.1 221.2 1371.1H201.9Z" fill="#26283A"/>
<path d="M312.1 1091.6C312.1 1091.6 291.6 1043.8 289.1 1032C288 1026.7 285 1013.5 283 1002.6C282.4 999 281.8 995.3 281.4 991.7C279.5 977.3 279.1 964.1 279.1 964.1C279.1 964.1 268.2 926.8 291.5 924.5C291.5 924.5 299.8 927.4 300.1 928C304 937.2 305.6 960.6 305.7 965.7C305.8 969.8 311.9 1011.3 311.9 1012.7C312.1 1015.6 318.3 1030.5 321.6 1041.6C328.9 1065.8 332.7 1084.8 332.7 1084.8L312.1 1091.6Z" fill="#363957"/>
<path d="M370.8 1100.7H265.6V1008.7H370.8V1100.7Z" fill="#FFD9A9"/>
<path d="M339.7 1056.1H333.9V1084.4H339.7V1056.1Z" fill="#FF9E22"/>
<path d="M347.9 1063.5H342V1084.4H347.9V1063.5Z" fill="#FF9E22"/>
<path d="M356 1052.5H350.1V1084.4H356V1052.5Z" fill="#FF9E22"/>
<path d="M346.6 1095C346.6 1095 346 1107.4 339.4 1109.5C332.7 1111.7 325.4 1109.7 322.4 1107.9C319.3 1106 311.6 1100.5 314.5 1097.1C323.7 1086.1 346.6 1095 346.6 1095Z" fill="#DBA585"/>
<path d="M343.2 1106.4C343.2 1106.4 351.6 1107 351.1 1103.5C350.7 1100 344.7 1101.4 344.7 1101.4L343.2 1106.4Z" fill="#DBA585"/>
<path d="M314.3 1062.8H308.4V1084.4H314.3V1062.8Z" fill="#FF9E22"/>
<path d="M322.6 1060.7H316.8V1084.4H322.6V1060.7Z" fill="#FF9E22"/>
<path d="M331.1 1065.2H325.2V1084.4H331.1V1065.2Z" fill="#FF9E22"/>
<path d="M305.7 1065.2H299.8V1084.4H305.7V1065.2Z" fill="#FF9E22"/>
<path d="M279.2 1051C279.267 1051.07 279.333 1051.13 279.4 1051.2L279.1 1051.4L272.9 1055.6L272.7 1055.4L279 1051.1L279.2 1051Z" fill="#FF9E22"/>
<path d="M301.8 1052.2C301.8 1052.27 301.8 1052.37 301.8 1052.5L301.5 1052.4L283.6 1050.3H283.3C283.3 1050.17 283.3 1050.07 283.3 1050H283.6L301.5 1052.2H301.8Z" fill="#FF9E22"/>
<path d="M319.5 1038.8L319.3 1039L305.9 1051L305.7 1051.2C305.633 1051.13 305.567 1051.07 305.5 1051L305.7 1050.8L319.1 1038.7L319.3 1038.6C319.367 1038.67 319.433 1038.73 319.5 1038.8Z" fill="#FF9E22"/>
<path d="M341.2 1037.2C341.2 1037.27 341.2 1037.3 341.2 1037.3H323.2C323.2 1037.3 323.2 1037.27 323.2 1037.2C323.2 1037.13 323.2 1037.07 323.2 1037H341.2C341.2 1037.07 341.2 1037.13 341.2 1037.2Z" fill="#FF9E22"/>
<path d="M356.8 1022.9L345.2 1035.5L345 1035.7C344.933 1035.63 344.867 1035.57 344.8 1035.5L345 1035.3L356.6 1022.7L356.8 1022.9Z" fill="#FF9E22"/>
<path fill-rule="evenodd" clip-rule="evenodd" d="M283.6 1049.9C283.6 1049.97 283.6 1050 283.6 1050C283.6 1050.13 283.6 1050.23 283.6 1050.3C283.4 1051.5 282.3 1052.4 281.1 1052.4C280.3 1052.4 279.6 1052 279.1 1051.4C279.033 1051.33 279 1051.23 279 1051.1C278.733 1050.77 278.6 1050.37 278.6 1049.9C278.6 1048.5 279.7 1047.4 281.1 1047.4C282.5 1047.4 283.6 1048.5 283.6 1049.9ZM283.3 1050C283.3 1049.93 283.3 1049.9 283.3 1049.9C283.3 1048.7 282.3 1047.7 281.1 1047.7C279.9 1047.7 278.9 1048.7 278.9 1049.9C278.9 1050.3 279 1050.67 279.2 1051C279.267 1051.07 279.333 1051.13 279.4 1051.2C279.8 1051.7 280.4 1052.1 281.1 1052.1C282.2 1052.1 283.1 1051.3 283.3 1050.3C283.3 1050.17 283.3 1050.07 283.3 1050Z" fill="#AAAEDC"/>
<path fill-rule="evenodd" clip-rule="evenodd" d="M306.5 1052.6C306.5 1054 305.4 1055.1 304 1055.1C302.6 1055.1 301.5 1054 301.5 1052.6C301.5 1052.53 301.5 1052.47 301.5 1052.4C301.5 1052.33 301.5 1052.27 301.5 1052.2C301.8 1051 302.8 1050.1 304 1050.1C304.7 1050.1 305.3 1050.4 305.7 1050.8C305.767 1050.87 305.833 1050.93 305.9 1051C306.3 1051.5 306.5 1052 306.5 1052.6ZM306.2 1052.6C306.2 1052.1 306 1051.6 305.7 1051.2C305.633 1051.13 305.567 1051.07 305.5 1051C305.1 1050.6 304.6 1050.4 304 1050.4C302.9 1050.4 302 1051.2 301.8 1052.2C301.8 1052.27 301.8 1052.37 301.8 1052.5C301.8 1052.5 301.8 1052.53 301.8 1052.6C301.8 1053.8 302.8 1054.8 304 1054.8C305.2 1054.8 306.2 1053.8 306.2 1052.6Z" fill="#FF9E22"/>
<path fill-rule="evenodd" clip-rule="evenodd" d="M323.5 1037.2C323.5 1037.27 323.5 1037.3 323.5 1037.3C323.4 1038.6 322.3 1039.7 321 1039.7C320.3 1039.7 319.7 1039.4 319.3 1039C319.167 1038.93 319.1 1038.83 319.1 1038.7C318.7 1038.3 318.5 1037.8 318.5 1037.2C318.5 1035.8 319.6 1034.7 321 1034.7C322.3 1034.7 323.4 1035.7 323.5 1037C323.5 1037.07 323.5 1037.13 323.5 1037.2ZM323.2 1037.3C323.2 1037.3 323.2 1037.27 323.2 1037.2C323.2 1037.13 323.2 1037.07 323.2 1037C323.1 1035.9 322.2 1035 321 1035C319.8 1035 318.8 1036 318.8 1037.2C318.8 1037.7 319 1038.2 319.3 1038.6C319.367 1038.67 319.433 1038.73 319.5 1038.8C319.9 1039.2 320.4 1039.4 321 1039.4C322.2 1039.4 323.1 1038.5 323.2 1037.3Z" fill="#FF9E22"/>
<path fill-rule="evenodd" clip-rule="evenodd" d="M345.9 1037.2C345.9 1038.6 344.8 1039.7 343.4 1039.7C342.1 1039.7 341 1038.6 340.9 1037.3C340.9 1037.3 340.9 1037.27 340.9 1037.2C340.9 1037.13 340.9 1037.07 340.9 1037C341 1035.7 342.1 1034.7 343.4 1034.7C344 1034.7 344.6 1034.9 345 1035.3C345.067 1035.3 345.133 1035.37 345.2 1035.5C345.6 1035.9 345.9 1036.5 345.9 1037.2ZM345.6 1037.2C345.6 1036.6 345.4 1036.1 345 1035.7C344.933 1035.63 344.867 1035.57 344.8 1035.5C344.4 1035.2 343.9 1035 343.4 1035C342.3 1035 341.3 1035.9 341.2 1037C341.2 1037.07 341.2 1037.13 341.2 1037.2C341.2 1037.27 341.2 1037.3 341.2 1037.3C341.3 1038.5 342.3 1039.4 343.4 1039.4C344.6 1039.4 345.6 1038.4 345.6 1037.2Z" fill="#FF9E22"/>
<path d="M146.1 1093.3C146.1 1093.3 142.5 1099.6 138.2 1099.5C134.5 1099.4 129.7 1101.7 128.1 1102.5C126.1 1103.4 118.9 1104.2 120.1 1106.6C121.3 1109 132.1 1105.8 134.5 1105.5C136.9 1105.3 130.6 1113.7 130.8 1116.1C130.9 1118.4 146 1126.9 149.6 1120.7C153.2 1114.5 152.7 1105.7 153.6 1104.8C154.4 1103.8 156.4 1100.3 156.4 1100.3L146.1 1093.3Z" fill="#DBA585"/>
<path d="M131.2 1114.4C131.2 1114.4 121.6 1134.1 122.1 1135.9C122.6 1137.7 123.7 1138.1 124.7 1136.3C125.7 1134.5 134.6 1117.5 134.6 1117.5C134.6 1117.5 127.3 1142.5 127.4 1144C127.4 1145 129.6 1145.9 130.2 1144.9C130.8 1144 139.6 1119.6 139.6 1119.6C139.6 1119.6 132.8 1142.9 133.3 1144.2C133.7 1145.3 135.9 1145.7 136.6 1144C137.2 1142.3 144.8 1120.9 144.8 1120.9C144.8 1120.9 141 1138.1 142.1 1139C142.7 1139.5 144.6 1140.3 145.4 1135.9C146.2 1131.4 149.4 1121 149.4 1121L131.2 1114.4Z" fill="#DBA585"/>
<path d="M312.7 1370.2C312.7 1370.2 321.7 1380.2 330.8 1382.3C339.9 1384.4 346.2 1387.1 346.3 1392.8C346.4 1398.6 320.1 1402.3 309.7 1396.6C294.1 1387.9 292.6 1390.5 290.8 1386.2C289.1 1381.9 292.9 1370.3 292.8 1368.9C292.6 1367.2 312.7 1370.2 312.7 1370.2Z" fill="#26283A"/>
<path d="M311.7 1365.4C311.7 1365.4 312.9 1370.1 312.7 1370.2C312.5 1370.3 292.2 1372.7 292.8 1368.9C293.3 1365.9 294 1362.6 294 1362.6L311.7 1365.4Z" fill="#807F7D"/>
<path d="M220.9 1368C220.9 1368 221.8 1372.4 221.6 1372.6C221.4 1372.7 201 1376.3 201.1 1372.6C201.2 1369.7 203 1366.2 203 1366.2L220.9 1368Z" fill="#807F7D"/>
<path d="M293.2 1084.6C293.2 1084.6 300.6 1156.4 304.4 1181C308.9 1209.8 310.5 1233.5 311.7 1248.4C313.3 1267.1 313.6 1359.2 314.7 1364.7C315.8 1370.2 290.2 1366.2 290.2 1366.2C290.2 1366.2 277.6 1245.9 272.9 1225.9C268.5 1207.4 252.3 1127.4 248.3 1132.5C244.3 1137.6 239.3 1225.8 236.4 1240.4C233.4 1255.1 224.4 1369.7 224.4 1369.7C224.4 1369.7 204 1373.8 198.6 1369.2C198.6 1369.2 196.2 1270.4 198 1242.9C198.8 1232.5 185.8 1117.5 202.4 1071.2C211.2 1046.7 293.2 1084.6 293.2 1084.6Z" fill="#2E3048"/>
<path d="M148.8 1094.7C148.8 1094.7 154.4 1101.1 159.6 1100.1C164.8 1099.2 186.7 1032.5 186.9 1019.2C187 1008.4 192.9 979.8 192.9 979.8C192.9 979.8 192.933 979.8 193 979.8C193 979.867 193 979.9 193 979.9C193.6 982.1 201.5 1011.7 201.8 1026C202.1 1040.7 200.9 1091.6 200.9 1091.6L220.7 1096.9L284 1097.5L298.4 1091.6C298.4 1091.6 296.8 1075.2 296.2 1063.7C295.9 1056.5 294.5 1043.4 294.8 1030.7C294.8 1030.7 294.6 1017.2 295.9 1011.5C296.1 985.9 297.6 960.7 297.6 960.7C298.467 949.167 299.067 938.333 299.4 928.2C296.6 926.8 293.3 925 290.6 923.8C282.3 919.8 270.7 914.5 263.3 911.1C258.9 909.1 254.7 907.6 254.7 907.6C254.7 907.6 225 904.8 222.6 904.9C221.8 905 218.1 906.2 213.2 908.1C202.7 912.1 182.4 920.2 179.2 922.6C174.4 925.9 164.4 1006.6 164 1012.2C163.2 1022.4 148.8 1094.7 148.8 1094.7Z" fill="#D8D6E1"/>
<path d="M296.5 1086.2C296.5 1086.2 253.1 1089.9 215 1086.2V1098.7C215 1098.7 271.7 1104.1 298.4 1096.3L296.5 1086.2Z" fill="#232536"/>
<path d="M259.5 909.4C259.5 909.4 266.5 926 271.8 963.1C273.9 977.4 277.6 1001.4 280.4 1025.8C282.5 1045.1 287.5 1065 289 1079.7C290.7 1095 295.6 1140.1 295.6 1140.1L307.4 1132.6C309.1 1131.1 311.5 1129 310.8 1126.8C307.6 1116.3 301.3 1081.4 297.6 1051C297.6 1051 297.6 1050.97 297.6 1050.9C297.467 1049.43 297.3 1048 297.1 1046.6C297.1 1046.53 297.1 1046.47 297.1 1046.4C296.4 1040.3 295.8 1034.4 295.4 1029.1C295.1 1025 295.4 1021 295.9 1017.1C297.6 989.8 298.4 961.1 298.4 961.1C299.3 949.3 299.8 938.3 300.1 928C300.1 928 262.8 910.4 259.5 909.4Z" fill="#363957"/>
<path d="M187.8 1019.8C186.9 1032.2 164.2 1104.4 161.2 1104.1C155.9 1103.6 138.1 1098 138.1 1098C138.1 1098 160 1024.5 160.8 1016.8C161.4 1011.1 170.3 926.6 175.1 923.2C177.8 921.2 198.1 914 208 910.1C209.8 909.4 215.8 907.1 217.5 906.5C219.6 908.9 234.3 924.9 239.5 985.5C240.3 995.7 237.6 1017.4 235.8 1035C233.8 1053.9 231.7 1068.6 230.1 1084.4C227 1115.4 224.8 1140.1 224.8 1140.1L193.9 1126.4C188.9 1123.9 182 1113.6 183.8 1108.3C191 1088.3 200 1054.1 200 1036.6C200 1036.6 196.6 993.6 193.8 984.1C193.8 984.1 188.9 1004.1 187.8 1019.8Z" fill="#363957"/>
<path d="M241 829.5C241 829.5 271.9 818 270 859.2C268.1 900.4 260.8 904.5 240.4 898.8C220 893 218.3 867.1 215.7 854.6C213 842 230.8 831.3 241 829.5Z" fill="#DBA585"/>
<path d="M220 875C220 875 219.9 864 224.5 863C229 861.9 231.4 868.3 231.4 868.3L235.1 868.1C235.1 868.1 231.8 857 236.1 854.4C240.5 851.9 266.6 854.1 269.9 850.3C273.1 846.6 268.4 824.3 261.3 822.1C254.2 819.9 234.7 815.5 222.4 826.5C222.4 826.5 211.6 826.7 211.2 835.4C210.8 844.2 216.3 869 220 875Z" fill="#454545"/>
<path d="M229.6 858.3C228.3 854.7 220.5 855.1 221.3 860.9C222.1 866.6 228.5 875.5 231.1 873.8C233.6 872.2 231.5 863.3 229.6 858.3Z" fill="#DBA585"/>
<path d="M225.3 908.1C225.3 908.1 228.1 905.8 224.1 885.2C223.1 879.7 253.2 891.8 253.2 891.8C253.2 891.8 253 896.3 253 900.8C253 902.9 253.1 904.9 253.2 906.5C253.4 907.8 254.1 909.9 254.3 910.5C255.7 913.7 236.5 916 225.3 908.1Z" fill="#DBA686"/>
<path d="M253.2 906.5C235.2 906.3 229.3 892.5 229.2 892.1C238.7 901.8 253 900.8 253 900.8C253 902.9 253.1 904.9 253.2 906.5Z" fill="#997761"/>
<path d="M246 918.7L251.4 926.1C251.4 926.1 248.2 930.4 242.5 927.2L246 918.7Z" fill="#CD7250"/>
<path d="M249.9 926.4C249.9 926.4 270.2 1004.7 266 1065.7L259.2 1077.8L252.8 1065.1C252.8 1065.1 251 956.1 245.5 926.2L249.9 926.4Z" fill="#CD7250"/>
<path d="M251.8 911.9L246 918.7C246 918.7 236.5 916.9 233.8 912C231 907.1 251.8 911.9 251.8 911.9Z" fill="#DBA686"/>
<path d="M253.2 905.9C253.2 905.9 252.5 911.1 246 918.7L253.1 928.3L257 908.4L253.2 905.9Z" fill="#C1BFC9"/>
<path d="M226.2 900.5C226.2 900.5 236.4 915 246 918.7L241.5 929.7L221.3 905.2L226.2 900.5Z" fill="#C1BFC9"/>
<path d="M1727.7 980.5C1727.7 980.5 1705.2 929.5 1731.3 933.7C1731.3 933.7 1740.2 941.1 1749.3 956.1C1756.3 967.4 1770.6 997.4 1770.1 1007.6C1769.6 1017.7 1762.3 1025.3 1754.5 1041.6C1754.5 1041.6 1738.3 1071.9 1737.6 1075.5L1720.5 1066.6C1720.5 1066.6 1735 1037.7 1745.3 1012.2L1727.7 980.5Z" fill="#39516E"/>
<path d="M1859.6 1133.4L1514.7 1074.7L1524.7 1016.1L1869.6 1074.8L1859.6 1133.4Z" fill="#C54444"/>
<path d="M1515.9 1067.6L1497.4 1064.5L1505 1020L1523.4 1023.1L1515.9 1067.6Z" fill="#32333A"/>
<path fill-rule="evenodd" clip-rule="evenodd" d="M1510.4 995.7C1510.4 1115.3 1413.5 1212.2 1293.9 1212.2C1174.4 1212.2 1077.4 1115.3 1077.4 995.7C1077.4 876.1 1174.4 779.2 1293.9 779.2C1413.5 779.2 1510.4 876.1 1510.4 995.7ZM1474.9 995.7C1474.9 942.7 1452.1 895 1415.7 861.9C1383.6 832.6 1340.8 814.8 1293.9 814.8C1194 814.8 1113 895.8 1113 995.7C1113 1026.4 1120.6 1055.3 1134.1 1080.6C1164.5 1137.7 1224.7 1176.7 1293.9 1176.7C1393.9 1176.7 1474.9 1095.6 1474.9 995.7Z" fill="#424650"/>
<path opacity="0.3" d="M1415.7 861.9C1415.7 861.9 1180.9 832.8 1134.1 1080.6C1120.6 1055.3 1113 1026.4 1113 995.7C1113 895.8 1194 814.8 1293.9 814.8C1340.8 814.8 1383.6 832.6 1415.7 861.9Z" fill="#C0C0C0"/>
<path d="M1597.4 1412.6H1593.2C1593.2 1412.6 1594.6 1396.5 1590.6 1396.4C1586.7 1396.2 1577 1409.4 1571.1 1411.5C1565.3 1413.5 1535.4 1415.3 1535.3 1409.8C1535.1 1404.3 1546.8 1402 1550.4 1400.5C1554 1398.9 1571.6 1381.8 1574.8 1379.7C1577.9 1377.7 1583.3 1363.5 1583.3 1363.5L1600 1362.7C1600 1362.7 1600.9 1376 1601.9 1383C1602.3 1385.6 1602.6 1388 1602.6 1389.6C1602.8 1395.6 1597.4 1412.6 1597.4 1412.6Z" fill="#DBA585"/>
<path d="M1704.9 1409.4H1701.3V1394.5C1698.4 1394.7 1688.5 1404.1 1685.4 1406.8C1682.3 1409.5 1678.1 1409.4 1665.2 1410.2C1652.3 1411.1 1651.1 1403.3 1653.1 1400.7C1655.2 1398.1 1661.8 1396.9 1665.2 1395.3C1668.7 1393.6 1682.2 1378.3 1685.8 1374.7C1689.5 1371.1 1691.7 1360.7 1691.7 1360.7L1706.8 1362C1706.8 1362 1706.7 1371.5 1708.4 1379.5C1708.53 1380.23 1708.7 1380.9 1708.9 1381.5C1711.1 1389.8 1704.9 1409.4 1704.9 1409.4Z" fill="#DBA585"/>
<path d="M1649 1071C1649 1071 1643.3 1084.5 1642.8 1087.9C1642.3 1091.3 1629 1123.6 1625.1 1145.3C1622.8 1158.4 1616.4 1199.2 1615.9 1204.3C1615 1213.2 1610.8 1232.8 1610.2 1241.9C1609.8 1246.9 1584.9 1324.8 1578.8 1365.4C1578.8 1365.4 1593.2 1367.5 1604 1364.6C1604 1364.6 1625.9 1322.7 1638 1263.1C1645.4 1227.3 1651.9 1208.1 1657.5 1193.4C1663.2 1178.6 1695.4 1136.8 1698.7 1132.1C1702.1 1127.4 1723.1 1101.4 1703.2 1073.2C1683.3 1045.1 1649 1071 1649 1071Z" fill="#2C3D54"/>
<path d="M1720.9 1190.5C1719.1 1202.6 1721 1218.5 1724.8 1262.8C1728.6 1307.1 1718.2 1360.7 1718.2 1360.7C1705 1365.2 1689.9 1360.7 1689.9 1360.7C1690.2 1357.6 1689.9 1252.8 1689.9 1243.4C1689.9 1234.1 1687.2 1223.5 1686.5 1212.7C1686 1205.4 1682.6 1192 1678.8 1178.2C1677.7 1174.1 1676.5 1169.9 1675.3 1165.9C1674.7 1163.63 1674.07 1161.43 1673.4 1159.3C1668 1140.6 1660.8 1068.5 1660.8 1068.5C1660.8 1068.5 1701 1036.2 1720.5 1066.6C1740.1 1097 1730 1119.2 1729.3 1123C1728.6 1126.8 1722.8 1178.4 1720.9 1190.5Z" fill="#2C3D54"/>
<path d="M1704.3 1125.4C1704 1126.1 1684 1170.5 1678.8 1178.2C1677.7 1174.1 1676.1 1168.6 1675 1164.6C1675 1164.6 1703.6 1126.4 1704.3 1125.4Z" fill="#1F2A38"/>
<path d="M1704.9 1409.4H1701.3V1394.5C1698.4 1394.7 1688.5 1404.1 1685.4 1406.8C1682.3 1409.5 1678.1 1409.4 1665.2 1410.2C1652.3 1411.1 1651.1 1403.3 1653.1 1400.7C1655.2 1398.1 1661.8 1396.9 1665.2 1395.3C1679 1396 1695.9 1376.6 1704 1376.6C1708.3 1376.6 1708.3 1379 1708.4 1379.5C1708.53 1380.23 1708.7 1380.9 1708.9 1381.5C1711.1 1389.8 1704.9 1409.4 1704.9 1409.4Z" fill="#253343"/>
<path d="M1597.4 1412.6H1593.2C1593.2 1412.6 1594.6 1396.5 1590.6 1396.4C1586.7 1396.2 1577 1409.4 1571.1 1411.5C1565.3 1413.5 1535.4 1415.3 1535.3 1409.8C1535.1 1404.3 1546.8 1402 1550.4 1400.5C1562.7 1400.5 1582.8 1386.9 1589 1384.1C1595.2 1381.4 1601.9 1383 1601.9 1383C1602.3 1385.6 1602.6 1388 1602.6 1389.6C1602.8 1395.6 1597.4 1412.6 1597.4 1412.6Z" fill="#253343"/>
<path d="M1684.5 901.6C1684.5 901.6 1690.9 918.5 1685.9 931.6C1685.9 931.6 1709.4 930.1 1710.3 927.4C1711.2 924.6 1709.4 899.2 1712.6 891.7C1715.8 884.2 1684.5 901.6 1684.5 901.6Z" fill="#DBA585"/>
<path d="M1682.2 925.9C1682.2 925.9 1668.3 930.8 1662.1 932.2C1655.8 933.6 1642.7 939.8 1643.7 963.2C1644.8 986.6 1648.7 1006.9 1650.1 1017C1651.6 1027 1650.7 1052.6 1648.4 1065.1C1648.4 1065.1 1681.7 1073.5 1720.8 1065.1C1720.8 1065.1 1713.9 1043.9 1714 1038.4C1714.2 1032.9 1737.2 987.7 1738.3 980.6C1739.3 973.5 1744 942 1733.4 935C1722.9 928.1 1714.4 929 1710 925.9C1705.5 922.8 1688.7 923.7 1682.2 925.9Z" fill="#3A5271"/>
<path d="M1735.8 1101.9C1678.9 1116.9 1633.7 1101.9 1633.7 1101.9C1637.8 1093.4 1640.8 1085 1643 1076.8C1644.6 1071 1645.7 1065.3 1646.5 1059.9C1651.2 1028.9 1645.1 1005.2 1645.1 1005.2C1651.7 951.2 1733.4 935 1740 952.2C1746.5 969.3 1727.3 1042.9 1726.3 1049.2C1725.4 1055.5 1735.8 1101.9 1735.8 1101.9Z" fill="#3A5271"/>
<path d="M1705 833.6C1695.5 830.3 1670 826.9 1663.5 866.1C1656.9 905.3 1671.2 905.9 1685.8 904.8C1700.4 903.7 1723.3 877.2 1725.1 869.2C1726.8 861.2 1731.9 842.8 1705 833.6Z" fill="#DBA585"/>
<path d="M1668.7 848.6C1668.7 848.6 1676.5 865.3 1686.8 871.1C1686.8 871.1 1693.2 888.8 1707 896C1707 896 1743.9 871.6 1722.5 842.6C1701.1 813.6 1671.1 836.7 1668.7 848.6Z" fill="#EECAA2"/>
<path d="M1685.8 865.3C1686.7 863.3 1692.2 860 1694.7 865.6C1697.1 871.2 1688.3 881 1685.8 880.5C1683.4 880 1682.7 873.1 1685.8 865.3Z" fill="#DBA585"/>
<path d="M1721.3 847.1C1722.1 845.8 1746.4 834.6 1751.5 858.1C1756.6 881.7 1731.9 909.2 1727.5 921C1723.2 932.8 1729.5 960.4 1729.5 960.4C1729.5 960.4 1714.6 946.3 1710.1 931.6C1705.2 915.5 1703.5 874.7 1721.3 847.1Z" fill="#EECAA2"/>
<path d="M1722.5 846.3C1722.5 846.3 1715 852.2 1714.1 861.5C1714.1 861.5 1712.6 854.3 1715.7 849.8C1718.7 845.4 1722.5 846.3 1722.5 846.3Z" fill="#C54444"/>
<path d="M1643 1076.8C1644.6 1071 1645.7 1065.3 1646.5 1059.9L1647.2 1054.7C1647.2 1054.7 1650.3 1051.9 1651.6 1048.1C1652.8 1044.3 1662.2 997.5 1662.2 997.5C1662.2 997.5 1672.2 1041.5 1643 1076.8Z" fill="#2C3D54"/>
<path d="M1601.2 1079.5C1601.2 1079.5 1593.9 1086.8 1591.5 1087.5C1589.1 1088.2 1584.5 1084.2 1567.7 1082.9C1566.2 1082.8 1563.6 1084.2 1564.2 1086.1C1564.8 1088.1 1572.2 1093.4 1575.3 1094.2C1578.4 1095 1593.2 1100.9 1600.5 1098C1607.7 1095.1 1612.6 1085.9 1612.6 1085.9L1601.2 1079.5Z" fill="#DBA585"/>
<path d="M1658.1 933.5C1658.1 933.5 1638.7 941.2 1637.5 968.3C1636.4 995.3 1635.3 1009.5 1634.3 1013.7C1633.2 1017.8 1631.2 1034.6 1626.3 1044.7C1621.5 1054.5 1590.3 1085.5 1590.3 1085.5L1605.4 1099.7C1605.4 1099.7 1648.9 1056.1 1651.6 1048.1C1654.2 1040.1 1665.1 984.6 1665.9 975.2C1666.6 967.7 1676.6 934.1 1658.1 933.5Z" fill="#3A5271"/>
<path d="M340.2 1217.4L336.9 1213.8L422.8 1132.7L509.8 1151.6L592.9 1056.9L665.3 1060.9L721.8 983.1L725.7 985.9L667.7 1065.9L595 1061.8L511.6 1156.9L424.3 1138L340.2 1217.4Z" fill="#FFD9A9"/>
<path d="M523.3 1151.5C524.8 1158.5 520.4 1165.4 513.4 1166.9C506.4 1168.4 499.6 1164 498.1 1157C496.5 1150 501 1143.2 507.9 1141.6C514.9 1140.1 521.8 1144.6 523.3 1151.5Z" fill="white"/>
<path fill-rule="evenodd" clip-rule="evenodd" d="M513.9 1169.2C505.7 1171 497.5 1165.8 495.7 1157.5C493.9 1149.2 499.2 1141.1 507.4 1139.3C515.7 1137.5 523.9 1142.8 525.7 1151C527.4 1159.3 522.2 1167.5 513.9 1169.2ZM508.5 1144C502.8 1145.2 499.2 1150.8 500.4 1156.5C501.6 1162.1 507.2 1165.7 512.9 1164.5C518.5 1163.3 522.2 1157.7 520.9 1152C519.7 1146.4 514.1 1142.8 508.5 1144Z" fill="#FF9E22"/>
<path d="M606.5 1057.4C608 1064.4 603.6 1071.3 596.6 1072.8C589.6 1074.3 582.8 1069.9 581.3 1062.9C579.8 1055.9 584.2 1049 591.2 1047.5C598.1 1046 605 1050.5 606.5 1057.4Z" fill="white"/>
<path fill-rule="evenodd" clip-rule="evenodd" d="M597.1 1075.1C588.9 1076.9 580.7 1071.7 578.9 1063.4C577.1 1055.1 582.4 1047 590.6 1045.2C598.9 1043.4 607.1 1048.6 608.9 1056.9C610.7 1065.2 605.4 1073.3 597.1 1075.1ZM591.7 1049.9C586 1051.1 582.4 1056.7 583.6 1062.4C584.9 1068 590.5 1071.6 596.1 1070.4C601.8 1069.2 605.4 1063.6 604.1 1057.9C602.9 1052.3 597.3 1048.7 591.7 1049.9Z" fill="#FF9E22"/>
<path d="M678.4 1060.3C679.9 1067.3 675.5 1074.1 668.5 1075.7C661.6 1077.2 654.7 1072.7 653.2 1065.8C651.7 1058.8 656.1 1051.9 663.1 1050.4C670.1 1048.9 676.9 1053.3 678.4 1060.3Z" fill="white"/>
<path fill-rule="evenodd" clip-rule="evenodd" d="M669.1 1078C660.8 1079.8 652.6 1074.5 650.8 1066.3C649 1058 654.3 1049.8 662.6 1048.1C670.8 1046.3 679 1051.5 680.8 1059.8C682.6 1068.1 677.3 1076.2 669.1 1078ZM663.6 1052.8C657.9 1054 654.3 1059.6 655.6 1065.3C656.8 1070.9 662.4 1074.5 668 1073.3C673.7 1072.1 677.3 1066.5 676.1 1060.8C674.8 1055.2 669.2 1051.6 663.6 1052.8Z" fill="#FF9E22"/>
<path d="M436.1 1133.8C437.6 1140.8 433.2 1147.7 426.2 1149.2C419.2 1150.7 412.4 1146.3 410.9 1139.3C409.4 1132.3 413.8 1125.5 420.7 1124C427.7 1122.5 434.6 1126.9 436.1 1133.8Z" fill="white"/>
<path fill-rule="evenodd" clip-rule="evenodd" d="M426.7 1151.6C418.5 1153.4 410.3 1148.1 408.5 1139.8C406.7 1131.6 412 1123.4 420.2 1121.6C428.5 1119.8 436.7 1125.1 438.5 1133.3C440.3 1141.6 435 1149.8 426.7 1151.6ZM421.3 1126.3C415.6 1127.5 412 1133.1 413.2 1138.8C414.5 1144.5 420 1148.1 425.7 1146.8C431.4 1145.6 435 1140 433.7 1134.4C432.5 1128.7 426.9 1125.1 421.3 1126.3Z" fill="#FF9E22"/>
<path d="M463.4 1194.8H410.6V1184.6H463.4V1194.8Z" fill="#DEDEDE"/>
<path d="M500.2 1090.3H447.3V1080.1H500.2V1090.3Z" fill="#DEDEDE"/>
<path d="M609.8 1163.1H557V1152.9H609.8V1163.1Z" fill="#DEDEDE"/>
<path d="M657.2 1020.1H604.4V1010H657.2V1020.1Z" fill="#DEDEDE"/>
<path d="M734 1105.3H681.1V1095.1H734V1105.3Z" fill="#DEDEDE"/>
<path d="M746.3 1155.7H731.9V1213.9H746.3V1155.7Z" fill="#FF9E22"/>
<path d="M771.6 1136.9H757.2V1213.9H771.6V1136.9Z" fill="#FFD9A9"/>
<path d="M797 1116.4H782.5V1213.9H797V1116.4Z" fill="#FF9E22"/>
<path d="M823.5 1127.1H809.1V1213.8H823.5V1127.1Z" fill="#FFD9A9"/>
<path d="M850.8 1102.1H836.4V1213.9H850.8V1102.1Z" fill="#FF9E22"/>
<path d="M627.7 947.3H626.3V722.3H627.7V947.3Z" fill="#DEDEDE"/>
<path d="M587.2 947.3H585.8V722.3H587.2V947.3Z" fill="#DEDEDE"/>
<path d="M546.7 947.3H545.3V722.3H546.7V947.3Z" fill="#DEDEDE"/>
<path d="M506.2 947.3H504.8V722.3H506.2V947.3Z" fill="#DEDEDE"/>
<path d="M465.6 947.3H464.3V722.3H465.6V947.3Z" fill="#DEDEDE"/>
<path d="M425.1 947.3H423.7V722.3H425.1V947.3Z" fill="#DEDEDE"/>
<path d="M384.6 947.3H383.2V722.3H384.6V947.3Z" fill="#DEDEDE"/>
<path d="M344.1 947.3H342.7V722.3H344.1V947.3Z" fill="#DEDEDE"/>
<path d="M343.4 947.3V896.5H354.4L371.3 875.3L384 891.3L414.4 853.1L423.7 864.8L454.6 826L472.4 848.5H494.7L527.3 807.6H555.3L576 781.5H601.4L627 749.2V947.3H343.4Z" fill="#FFD9A9"/>
<path d="M343.4 947.3L376.7 911.6H397.2L443.1 862.4L471.6 893H493L504.4 905.2L538.7 868.5H555.7L627 792V947.3H343.4Z" fill="#FF9E22"/>
<path d="M576.3 972.8L629.9 1002.3L683.7 917.5L618.6 894.9L576.3 972.8Z" fill="#2E3048"/>
<path d="M579.7 970.3L629.8 997.8L680.2 918.6L619.3 897.4L579.7 970.3Z" fill="#DCD0C8"/>
<path d="M561.3 955.4C561.3 955.4 570.7 951 574.7 948.6C578.8 946.3 589.4 943.1 590.2 942.3C591.1 941.6 621.5 939.7 623.3 938.1C625.1 936.5 626.9 941.8 619.1 943.6C611.2 945.3 600.2 949.5 599.6 952.6C599 955.7 607.7 956.4 608.6 958.9C609.5 961.5 608.3 960.9 607.1 961.4C605.9 962 596.8 957 592.8 958.4C588.8 959.8 582.7 957.8 579.6 958.9C576.5 959.9 561.7 964.9 561.7 964.9L561.3 955.4Z" fill="#DBA585"/>
<path d="M632.5 991.6C632.5 991.6 640.3 984.6 644.1 981.6C647.9 978.7 655 970 656.1 969.5C657.1 969 670.7 941.1 672.9 940C675.2 938.9 670.8 935.1 666.2 941.8C661.5 948.6 653.2 957.3 650.1 956.6C647 956 649.7 947.5 647.6 945.7C645.6 943.9 645.7 945.2 644.7 946.1C643.7 947.1 644.9 957.6 642 960.8C639.1 964 638.6 970.6 636.4 973.1C634.2 975.5 623.7 987.6 623.7 987.6L632.5 991.6Z" fill="#DBA585"/>
<path d="M463.7 1368.7C463.7 1368.7 462 1380.5 461.8 1382.2C461.6 1384 442.9 1381.2 442.9 1381.2L441.4 1367.2C441.4 1367.2 461.4 1367 463.7 1368.7Z" fill="#454971"/>
<path d="M462 1380.7C462 1380.7 467.9 1387.8 473.6 1390.9C479.3 1394 488.3 1395.2 491.7 1398.4C494.1 1400.8 500.6 1410.7 476.8 1410.5C453.1 1410.3 441.6 1411.9 439.1 1408.1C436.6 1404.3 442.8 1379.9 442.8 1379.9C442.8 1379.9 448.4 1382 462 1380.7Z" fill="#2E3048"/>
<path d="M597.3 1368.7C597.3 1368.7 595.6 1380.5 595.4 1382.2C595.2 1384 576.6 1381.2 576.6 1381.2L575 1367.2C575 1367.2 595 1367 597.3 1368.7Z" fill="#454971"/>
<path d="M595.6 1380.7C595.6 1380.7 601.5 1387.8 607.2 1390.9C612.9 1394 634 1396.6 637.4 1399.8C639.8 1402.1 643.9 1411.4 610.5 1410.5C586.7 1409.9 575.3 1411.9 572.7 1408.1C570.2 1404.3 576.4 1379.9 576.4 1379.9C576.4 1379.9 581.7 1382.1 595.6 1380.7Z" fill="#2E3048"/>
<path d="M479.1 1066.3C479.1 1066.3 461.6 1094.1 462.9 1119.3C464.2 1144.5 456.6 1171.9 453.9 1198.2C451 1227.5 439 1296.9 438.6 1312.6C438.1 1328.3 440.4 1378.3 440.4 1378.3L464.5 1378.9C464.5 1378.9 484.6 1257.6 489.9 1245.2C495.1 1232.8 521 1144.6 521.9 1134.7C522.8 1124.8 479.1 1066.3 479.1 1066.3Z" fill="#2E3048"/>
<path d="M571.4 1070.1C571.4 1070.1 584.6 1139 586.3 1154.4C588.1 1169.8 589.2 1229 590.1 1238.6C591 1248.2 595.9 1364.6 600.6 1378.9H569.8C569.8 1378.9 546.2 1294.3 546.2 1254.3C546.2 1214.3 528 1167.3 516.2 1140.9C504.5 1114.5 477.5 1113.9 470.3 1064.9C470.3 1064.9 561.6 1054.5 571.4 1070.1Z" fill="#2E3048"/>
<path d="M508.4 832.2C508.4 832.2 531.9 823.4 542.7 841.3C553.6 859.2 552.5 895.1 540.7 899.5C528.8 903.9 511 901.6 504.9 890.4C498.9 879.2 493.4 863 493.7 852.2C493.9 841.3 502.2 835.3 508.4 832.2Z" fill="#DBA585"/>
<path d="M538.1 900.3C538.1 900.3 537.2 906.7 538.8 909.8C540.4 912.9 508.3 913 508.3 913C508.3 913 505.7 896 500.8 881.6C495.8 867.2 538.1 900.3 538.1 900.3Z" fill="#DBA585"/>
<path d="M500.8 881.6C500.8 881.6 503 885.3 512 883.8C521.1 882.4 532.1 870.4 535.9 869.1C539.6 867.8 539.7 865.5 539.7 865.5L542 869L546 869.2C546 869.2 542.4 858.5 547.9 854.1C553.4 849.7 542.2 819.3 513.2 829.4C513.2 829.4 490.9 835.5 491.7 848.2C492.5 860.9 495.8 875.3 500.8 881.6Z" fill="#3E4148"/>
<path d="M540.7 909.4C540.7 909.4 540.6 903.4 537.9 902.9C535.2 902.3 508 899.7 504.6 901V907.9C504.6 907.9 511 911.9 540.7 909.4Z" fill="#DCD0C8"/>
<path d="M539.1 860.9C538.6 858.8 533.2 852.7 531.1 859.2C529 865.7 534.2 874.5 537.1 873.7C540 873 540.4 866.3 539.1 860.9Z" fill="#DBA585"/>
<path d="M648.6 980C648.8 980.133 648.8 980.133 648.6 980Z" fill="#363957"/>
<path d="M459.4 1132.6C459.4 1132.6 473.8 1136.9 498.4 1139.6C523 1142.3 584.4 1138.6 584.8 1135.7C585.2 1132.8 571.6 1027.5 572.4 1022.1C573.2 1016.6 573.6 997.3 573.6 997.3C573.9 1002.6 579.3 1024.2 585.8 1036C588.1 1040.3 596 1053.6 599.8 1050.6C618.2 1035.9 646.8 980.5 648.6 980C647 979.4 635.1 973.8 633.4 973.3C631.9 972.8 618.6 986.9 610.6 995.6C607 999.5 604.4 1002.3 604.4 1002.3C602.1 997.1 593.6 964.1 591 952.7C585.1 927 586 925.9 586 925.9C568 920.5 540.7 909.4 540.7 909.4L504.6 907.9C504.6 907.9 471.6 915.2 458.5 921.1C457.3 921.7 457.3 950.6 453.9 958.2L464.7 981C464.7 981 470.9 1026.1 472.2 1046.2C472.8 1055.4 459.4 1132.6 459.4 1132.6Z" fill="#363957"/>
<path d="M452.4 995.8C453.3 998.8 457.6 1001.4 460.4 1002.5C462.2 1003.2 464.2 1003.5 466.2 1003.1L467.6 1002.8L492.3 998.3C492.3 998.3 497.7 936 458.5 921.1C457.5 921.4 443.8 967.9 452.4 995.8Z" fill="#363957"/>
<path d="M460.4 1002.5C462.2 1003.2 464.2 1003.5 466.2 1003.1L467.6 1002.8L465.1 971L460.4 1002.5Z" fill="#2A2C41"/>
<path d="M604.4 1002.3L607.4 1015.1C607.4 1015.1 610.7 1002.2 610.6 995.6C607 999.5 604.4 1002.3 604.4 1002.3Z" fill="#2A2C41"/>
<path d="M501.7 834.3C501.7 834.3 470.8 830.8 501.1 882.3L501.7 834.3Z" fill="#3E4148"/>
<path d="M658.9 913L662.1 907.6L637.4 899.1L634.3 904.5L658.9 913Z" fill="#2E3048"/>
</g>
</g>
<defs>
<linearGradient id="paint0_linear_2_2" x1="107147" y1="-2.89914e+06" x2="-10151.1" y2="-3.53516e+06" gradientUnits="userSpaceOnUse">
<stop offset="0.01" stop-color="#4A612F"/>
<stop offset="1" stop-color="#769A42"/>
</linearGradient>
<linearGradient id="paint1_linear_2_2" x1="-1.50024e+06" y1="-3.56598e+06" x2="-3.02757e+06" y2="-5.0787e+06" gradientUnits="userSpaceOnUse">
<stop offset="0.01" stop-color="#4A612F"/>
<stop offset="1" stop-color="#769A42"/>
</linearGradient>
<clipPath id="clip0_2_2">
<rect width="1940" height="1670" fill="white"/>
</clipPath>
</defs>
</svg>
