<svg width="3194" height="595" viewBox="0 0 3194 595" fill="none" xmlns="http://www.w3.org/2000/svg">
<g clip-path="url(#clip0_151_2)">
<path d="M64.0901 383.15C42.2201 393.19 75.0301 415.29 75.0301 415.29C66.5701 411.91 55.8201 407.15 47.7401 403.5C36.2601 398.31 27.0801 414.3 37.4401 421.48L37.5301 421.54L91.0801 451.82L100.03 412.16L64.0901 383.15Z" fill="white" stroke="#01012D" stroke-width="5" stroke-miterlimit="10" stroke-linecap="round"/>
<path d="M107.53 459.9C107.53 459.9 46.9101 424.66 71.9101 309.04C71.9101 309.04 100.03 209.05 178.15 180.92H256.49C256.49 180.92 337.51 221.54 362.51 327.79C362.51 327.79 375.01 393.41 340.64 412.16C340.64 412.16 252.52 485.76 107.53 459.9Z" fill="#FF9103" stroke="black" stroke-width="7" stroke-miterlimit="10"/>
<path d="M181.27 177.8C181.27 177.8 175.02 134.05 134.4 102.8C134.4 102.8 146.9 90.2999 190.65 112.17C190.65 112.17 203.15 87.1699 218.77 87.1699C218.77 87.1699 231.27 93.4199 240.64 112.17C240.64 112.17 259.39 112.17 268.76 96.5499C268.76 96.5499 284.38 87.1799 290.63 99.6699C290.63 99.6699 253.13 121.54 250.01 180.92L181.27 177.8Z" fill="#FF9103" stroke="black" stroke-width="7" stroke-miterlimit="10"/>
<path d="M162.52 168.43C162.52 168.43 218.77 149.68 262.51 165.31" stroke="black" stroke-width="7" stroke-miterlimit="10" stroke-linecap="round"/>
<path d="M169.3 158.26C169.3 158.26 220.49 139.51 260.31 155.14" stroke="black" stroke-width="7" stroke-miterlimit="10" stroke-linecap="round"/>
<path d="M448.45 532.47L385.95 535.59" stroke="#01012D" stroke-width="5" stroke-miterlimit="10" stroke-linecap="round"/>
<path d="M445.32 388.729L392.2 394.979" stroke="#01012D" stroke-width="5" stroke-miterlimit="10" stroke-linecap="round"/>
<path d="M382.1 413.529C386.29 399.809 391.35 391.459 396.24 391.829C405.73 392.549 410.93 425.919 407.86 466.359C404.79 506.799 394.62 538.999 385.13 538.279C379.6 537.859 375.52 526.339 373.69 508.779" fill="white"/>
<path d="M382.1 413.529C386.29 399.809 391.35 391.459 396.24 391.829C405.73 392.549 410.93 425.919 407.86 466.359C404.79 506.799 394.62 538.999 385.13 538.279C379.6 537.859 375.52 526.339 373.69 508.779" stroke="#01012D" stroke-width="5" stroke-miterlimit="10"/>
<path d="M405.13 508.78H373.69L355.37 509.03C355.37 509.03 256.27 555.9 209.4 555.9C209.4 555.9 180.18 553.24 109.5 513.65C97.3 506.81 85.58 499.13 74.4 490.74C53.87 475.32 20.93 449.84 18.79 443.41C18.79 443.41 18.79 424.66 43.79 427.79C43.79 427.79 128.16 471.54 134.41 471.54C134.41 471.54 129.63 445.22 166.11 440.74C185.67 438.33 204.58 431.96 220.86 420.84C225.29 417.81 229.96 414.37 234.77 410.49C245.91 401.49 258.76 394.73 272.58 391C299.28 383.8 341.28 381.55 384.4 415.3L409.34 415.17" fill="white"/>
<path d="M405.13 508.78H373.69L355.37 509.03C355.37 509.03 256.27 555.9 209.4 555.9C209.4 555.9 180.18 553.24 109.5 513.65C97.3 506.81 85.58 499.13 74.4 490.74C53.87 475.32 20.93 449.84 18.79 443.41C18.79 443.41 18.79 424.66 43.79 427.79C43.79 427.79 128.16 471.54 134.41 471.54C134.41 471.54 129.63 445.22 166.11 440.74C185.67 438.33 204.58 431.96 220.86 420.84C225.29 417.81 229.96 414.37 234.77 410.49C245.91 401.49 258.76 394.73 272.58 391C299.28 383.8 341.28 381.55 384.4 415.3L409.34 415.17" stroke="#01012D" stroke-width="5" stroke-miterlimit="10"/>
<path d="M382.1 413.53C386.29 399.81 391.35 391.46 396.24 391.83C405.73 392.55 410.93 425.92 407.86 466.36C404.79 506.8 394.62 539 385.13 538.28C379.6 537.86 375.52 526.34 373.69 508.78" stroke="#01012D" stroke-width="5" stroke-miterlimit="10"/>
<path d="M273.46 457.47C273.46 457.47 210.18 467.59 183.86 478.73C175.31 482.35 166.1 484.34 156.84 483.65C146.63 482.9 135.98 479.4 134.4 468.4" fill="white"/>
<path d="M273.46 457.47C273.46 457.47 210.18 467.59 183.86 478.73C175.31 482.35 166.1 484.34 156.84 483.65C146.63 482.9 135.98 479.4 134.4 468.4" stroke="#01012D" stroke-width="6.7091" stroke-miterlimit="10" stroke-linecap="round"/>
<path d="M210.96 398.44C252.381 398.44 285.96 359.892 285.96 312.34C285.96 264.789 252.381 226.24 210.96 226.24C169.539 226.24 135.96 264.789 135.96 312.34C135.96 359.892 169.539 398.44 210.96 398.44Z" fill="black" stroke="black" stroke-width="5" stroke-miterlimit="10"/>
<path d="M208.411 372.366V360.262C200.665 360.02 193.725 358.487 187.592 355.663V337.628L199.575 336.781V343.801C199.575 344.931 199.737 345.778 200.059 346.343C200.382 346.827 201.229 347.311 202.601 347.795C203.973 348.279 205.91 348.522 208.411 348.522V325.887C202.117 324.112 197.558 322.135 194.734 319.956C191.91 317.778 189.933 315.438 188.803 312.936C187.754 310.435 187.229 307.49 187.229 304.1C187.229 298.129 189.126 293.207 192.918 289.334C196.791 285.38 201.956 282.959 208.411 282.071V270.936H217.489V281.829C224.267 282.233 230.521 283.766 236.25 286.429V303.495L224.388 304.221V297.685C224.388 296.556 224.227 295.749 223.904 295.265C223.581 294.7 222.734 294.216 221.362 293.812C220.071 293.409 218.78 293.167 217.489 293.086V314.389H217.61C223.743 316.245 228.665 318.585 232.377 321.409C237.057 324.798 239.397 329.841 239.397 336.539C239.397 343.236 237.38 348.562 233.345 352.516C229.391 356.47 224.106 358.931 217.489 359.899V372.366H208.411ZM224.388 337.628C224.388 333.593 222.088 330.648 217.489 328.792V347.674C222.088 346.222 224.388 342.873 224.388 337.628ZM208.411 293.812C204.215 295.265 202.117 298.049 202.117 302.164C202.117 306.279 204.215 309.305 208.411 311.242V293.812Z" fill="#FF9103"/>
<path d="M779.071 547.576L706.748 570.302C695.385 573.873 683.222 568.061 678.789 557.009C669.066 532.734 663.133 490.88 721.024 466.322" stroke="#01012D" stroke-width="8.2179" stroke-miterlimit="10" stroke-linecap="round"/>
<path d="M930.575 396.071L953.302 323.748C956.873 312.385 951.06 300.222 940.008 295.789C915.733 286.066 873.879 280.133 849.322 338.024" stroke="#01012D" stroke-width="8.2179" stroke-miterlimit="10" stroke-linecap="round"/>
<path d="M844.217 295.414C862.384 277.247 862.384 247.792 844.217 229.625C826.049 211.458 796.594 211.458 778.427 229.625C760.26 247.792 760.26 277.247 778.427 295.414C796.595 313.581 826.049 313.581 844.217 295.414Z" fill="white" stroke="black" stroke-width="10" stroke-miterlimit="10"/>
<path d="M675.246 465.671C693.413 447.504 693.413 418.049 675.246 399.882C657.079 381.715 627.624 381.715 609.457 399.882C591.29 418.049 591.29 447.504 609.457 465.671C627.624 483.838 657.079 483.838 675.246 465.671Z" fill="white" stroke="black" stroke-width="10" stroke-miterlimit="10"/>
<path d="M748.121 368.288C768.069 348.34 768.069 315.998 748.121 296.05C728.173 276.102 695.831 276.102 675.883 296.05C655.935 315.998 655.935 348.34 675.883 368.288C695.831 388.236 728.173 388.236 748.121 368.288Z" fill="#FF9103" stroke="black" stroke-width="10" stroke-miterlimit="10"/>
<path d="M910.232 437.048L818.174 529.106C815.098 532.182 810.12 532.182 807.044 529.106L753.961 476.023C732.211 454.273 732.211 419.016 753.961 397.266L778.392 372.835C800.142 351.085 835.399 351.085 857.149 372.835L910.232 425.918C913.308 428.994 913.308 433.972 910.232 437.048Z" fill="#FF9103" stroke="black" stroke-width="10" stroke-miterlimit="10"/>
<path d="M650.087 267.667C689.979 227.775 689.979 163.098 650.087 123.206C610.195 83.3135 545.517 83.3135 505.625 123.206C465.733 163.098 465.733 227.775 505.625 267.667C545.517 307.56 610.195 307.56 650.087 267.667Z" fill="#FF9103" stroke="black" stroke-width="10" stroke-miterlimit="10"/>
<path d="M546.899 217.371L586.886 216.077L585.599 139.978" stroke="black" stroke-width="7.7614" stroke-miterlimit="10" stroke-linecap="round"/>
<path d="M1406.82 533.05H1036.05C1024.18 533.05 1014.56 523.43 1014.56 511.56V133.56C1014.56 126.45 1017.82 119.74 1023.41 115.35L1129.83 31.7398C1134.11 28.3798 1139.37 26.5198 1144.81 26.4398L1384.9 23.0598C1396.95 22.8898 1406.82 32.6098 1406.82 44.6698V533.05Z" fill="white" stroke="#01012D" stroke-width="12" stroke-miterlimit="10"/>
<path d="M1015.76 126.23H1130.79C1133.9 126.23 1136.43 123.71 1136.43 120.59V30.3496" stroke="#01012D" stroke-width="12" stroke-miterlimit="10"/>
<path d="M1102.15 190.3H1319.23" stroke="#01012D" stroke-width="6" stroke-miterlimit="10" stroke-linecap="round"/>
<path d="M1102.15 255.05H1197.36" stroke="#01012D" stroke-width="6" stroke-miterlimit="10" stroke-linecap="round"/>
<path d="M1102.15 312.17H1197.36" stroke="#01012D" stroke-width="6" stroke-miterlimit="10" stroke-linecap="round"/>
<path d="M1104.06 375.01H1199.26" stroke="#01012D" stroke-width="6" stroke-miterlimit="10" stroke-linecap="round"/>
<path d="M1460.16 555.9H1250.65C1244.35 555.9 1239.25 550.8 1239.25 544.5V239.79C1239.25 233.49 1244.35 228.39 1250.65 228.39H1460.16C1466.46 228.39 1471.56 233.49 1471.56 239.79V544.5C1471.56 550.8 1466.46 555.9 1460.16 555.9Z" fill="#FF9103" stroke="black" stroke-width="10" stroke-miterlimit="10"/>
<path d="M1422.56 284.969H1276.56V327.969H1422.56V284.969Z" fill="#4D4D4D"/>
<path d="M1422.05 318.699L1277.33 323.599V294.219L1422.05 289.319V318.699Z" fill="#333333"/>
<path d="M1423.01 331.209H1276.38C1274.81 331.209 1273.53 329.929 1273.53 328.359V284.549C1273.53 282.979 1274.81 281.699 1276.38 281.699H1423.01C1424.58 281.699 1425.86 282.979 1425.86 284.549V328.359C1425.86 329.939 1424.58 331.209 1423.01 331.209Z" stroke="#01012D" stroke-width="6.8505" stroke-miterlimit="10"/>
<path d="M1305.91 409.28H1290.64C1286.44 409.28 1283.04 405.88 1283.04 401.68V386.41C1283.04 382.21 1286.44 378.81 1290.64 378.81H1305.91C1310.11 378.81 1313.51 382.21 1313.51 386.41V401.68C1313.51 405.88 1310.11 409.28 1305.91 409.28Z" stroke="#01012D" stroke-width="2.1714" stroke-miterlimit="10"/>
<path d="M1363.04 409.28H1347.77C1343.57 409.28 1340.17 405.88 1340.17 401.68V386.41C1340.17 382.21 1343.57 378.81 1347.77 378.81H1363.04C1367.24 378.81 1370.64 382.21 1370.64 386.41V401.68C1370.64 405.88 1367.24 409.28 1363.04 409.28Z" stroke="#01012D" stroke-width="2.1714" stroke-miterlimit="10"/>
<path d="M1416.36 409.28H1401.09C1396.89 409.28 1393.49 405.88 1393.49 401.68V386.41C1393.49 382.21 1396.89 378.81 1401.09 378.81H1416.36C1420.56 378.81 1423.96 382.21 1423.96 386.41V401.68C1423.96 405.88 1420.55 409.28 1416.36 409.28Z" stroke="#01012D" stroke-width="2.1714" stroke-miterlimit="10"/>
<path d="M1305.91 458.789H1290.64C1286.44 458.789 1283.04 455.389 1283.04 451.189V435.919C1283.04 431.719 1286.44 428.319 1290.64 428.319H1305.91C1310.11 428.319 1313.51 431.719 1313.51 435.919V451.189C1313.51 455.389 1310.11 458.789 1305.91 458.789Z" stroke="#01012D" stroke-width="2.1714" stroke-miterlimit="10"/>
<path d="M1363.04 458.789H1347.77C1343.57 458.789 1340.17 455.389 1340.17 451.189V435.919C1340.17 431.719 1343.57 428.319 1347.77 428.319H1363.04C1367.24 428.319 1370.64 431.719 1370.64 435.919V451.189C1370.64 455.389 1367.24 458.789 1363.04 458.789Z" stroke="#01012D" stroke-width="2.1714" stroke-miterlimit="10"/>
<path d="M1416.36 458.789H1401.09C1396.89 458.789 1393.49 455.389 1393.49 451.189V435.919C1393.49 431.719 1396.89 428.319 1401.09 428.319H1416.36C1420.56 428.319 1423.96 431.719 1423.96 435.919V451.189C1423.96 455.389 1420.55 458.789 1416.36 458.789Z" stroke="#01012D" stroke-width="2.1714" stroke-miterlimit="10"/>
<path d="M1305.91 508.3H1290.64C1286.44 508.3 1283.04 504.9 1283.04 500.7V485.43C1283.04 481.23 1286.44 477.83 1290.64 477.83H1305.91C1310.11 477.83 1313.51 481.23 1313.51 485.43V500.7C1313.51 504.9 1310.11 508.3 1305.91 508.3Z" stroke="#01012D" stroke-width="2.1714" stroke-miterlimit="10"/>
<path d="M1363.04 508.3H1347.77C1343.57 508.3 1340.17 504.9 1340.17 500.7V485.43C1340.17 481.23 1343.57 477.83 1347.77 477.83H1363.04C1367.24 477.83 1370.64 481.23 1370.64 485.43V500.7C1370.64 504.9 1367.24 508.3 1363.04 508.3Z" stroke="#01012D" stroke-width="2.1714" stroke-miterlimit="10"/>
<path d="M1416.36 508.3H1401.09C1396.89 508.3 1393.49 504.9 1393.49 500.7V485.43C1393.49 481.23 1396.89 477.83 1401.09 477.83H1416.36C1420.56 477.83 1423.96 481.23 1423.96 485.43V500.7C1423.96 504.9 1420.55 508.3 1416.36 508.3Z" stroke="#01012D" stroke-width="2.1714" stroke-miterlimit="10"/>
<path d="M1947.74 150.05C1947.74 140.85 1947.77 132.2 1947.73 123.56C1947.71 120.19 1947.87 116.76 1952.35 116.87C1956.73 116.98 1956.91 120.48 1956.91 123.78C1956.92 135.65 1956.95 147.53 1956.89 159.4C1956.86 164.81 1955.52 166.14 1950.15 166.16C1937.96 166.2 1925.77 166.14 1913.57 166.2C1910.16 166.22 1907.27 165.36 1907.38 161.45C1907.48 157.84 1910.35 157.02 1913.51 157.03C1920.48 157.06 1927.44 157.05 1934.41 157.02C1935.91 157.01 1937.41 156.85 1940.5 156.66C1934.55 151.83 1929.86 147.71 1924.86 144.02C1878.01 109.41 1825.41 94.7998 1767.6 100.73C1668.29 110.92 1587.62 186.36 1570.8 284.99C1560.74 344.02 1572.86 398.79 1606.29 448.67C1607.35 450.25 1608.99 451.74 1609.26 453.45C1609.54 455.3 1609.13 458.25 1607.91 459.06C1606.64 459.91 1604.03 458.9 1602.06 458.44C1601.47 458.3 1601.07 457.27 1600.62 456.62C1576.05 421.45 1561.79 382.54 1559.07 339.68C1554.67 270.36 1576.44 210.28 1624.73 160.41C1662.71 121.18 1709.28 98.1498 1763.67 92.0898C1831.76 84.4998 1891.95 103.33 1944.07 147.82C1944.67 148.33 1945.27 148.85 1945.91 149.32C1946.15 149.48 1946.48 149.54 1947.74 150.05Z" fill="black"/>
<path d="M1634.19 494.9C1634.19 504.97 1634.16 513.63 1634.2 522.28C1634.22 525.68 1633.96 529.03 1629.49 528.9C1625.43 528.78 1625.02 525.57 1625.02 522.37C1625.01 510.34 1624.98 498.3 1625.04 486.27C1625.07 481.06 1626.42 479.67 1631.4 479.65C1643.75 479.61 1656.11 479.68 1668.46 479.6C1671.71 479.58 1674.48 480.4 1674.56 483.97C1674.65 487.84 1671.67 488.81 1668.31 488.81C1659.94 488.81 1651.57 488.81 1641.71 488.81C1643.92 490.89 1645.15 492.15 1646.49 493.28C1683.11 524.01 1725.15 541.84 1772.88 545.41C1877.79 553.26 1972.13 490.46 2003.74 390.29C2025.22 322.25 2015.19 257.78 1976.2 197.93C1975.25 196.47 1974.24 195.05 1973.24 193.63C1971.46 191.1 1971.06 188.5 1973.8 186.55C1976.5 184.63 1978.9 185.71 1980.69 188.28C1982.05 190.23 1983.43 192.16 1984.73 194.15C2013.54 238.1 2026.72 286.3 2022.89 338.74C2015.81 435.64 1953.1 516.49 1860.32 544.66C1779.52 569.19 1705.54 553.32 1639.93 499.79C1638.38 498.5 1636.85 497.16 1634.19 494.9Z" fill="black"/>
<path d="M1846.07 430.299C1834.74 431.329 1825.38 439.599 1824.19 450.499C1823.38 457.889 1822.8 465.309 1822.25 472.729C1821.44 483.559 1817.13 488.359 1806.31 488.859C1796.21 489.329 1786.05 489.329 1775.95 488.889C1764.78 488.399 1760.48 483.679 1759.67 472.589C1759.15 465.489 1758.52 458.399 1757.83 451.309C1756.99 442.669 1752.54 436.469 1744.56 433.139C1736.72 429.869 1729.31 431.209 1722.71 436.459C1716.64 441.289 1710.78 446.379 1704.77 451.279C1697.65 457.079 1691.11 457.259 1684.36 450.969C1676.5 443.649 1668.93 435.979 1661.7 428.039C1655.9 421.669 1656.15 414.969 1661.59 408.349C1666.42 402.489 1671.37 396.719 1676.26 390.909C1681.94 384.149 1683.55 376.519 1680.25 368.309C1676.94 360.089 1670.5 355.739 1661.67 354.899C1653.64 354.129 1645.59 353.429 1637.58 352.459C1630.41 351.589 1625.61 347.449 1625.23 340.229C1624.63 328.729 1624.61 317.139 1625.21 305.639C1625.6 298.189 1630.37 294.149 1637.93 293.259C1646.26 292.269 1654.64 291.749 1662.96 290.669C1679.64 288.499 1687.56 269.909 1677.45 256.489C1672.6 250.049 1667.11 244.089 1661.96 237.879C1656.07 230.789 1655.75 224.209 1661.92 217.449C1669.16 209.519 1676.75 201.869 1684.64 194.579C1691.19 188.509 1697.71 188.749 1704.68 194.419C1710.33 199.009 1715.92 203.679 1721.5 208.359C1728.36 214.129 1736.02 216.099 1744.46 212.649C1752.86 209.219 1757.21 202.639 1757.93 193.609C1758.5 186.509 1759.15 179.419 1759.74 172.329C1760.57 162.319 1764.87 157.469 1774.9 156.989C1785.63 156.469 1796.42 156.469 1807.15 156.999C1817.11 157.499 1821.38 162.399 1822.2 172.459C1822.81 179.869 1823.35 187.289 1824.13 194.689C1825.94 211.829 1844.8 220.089 1858.64 209.709C1864.84 205.059 1870.63 199.869 1876.61 194.929C1884.24 188.629 1890.6 188.319 1897.74 194.959C1905.61 202.269 1913.15 209.969 1920.37 217.919C1925.97 224.079 1925.73 230.799 1920.47 237.239C1915.56 243.239 1910.48 249.109 1905.5 255.059C1899.94 261.699 1898.42 269.219 1901.56 277.249C1904.79 285.479 1911.17 289.959 1920 290.849C1928.03 291.659 1936.08 292.329 1944.09 293.279C1951.56 294.169 1956.32 298.299 1956.72 305.769C1957.32 317.119 1957.33 328.549 1956.74 339.899C1956.34 347.559 1951.58 351.609 1943.72 352.539C1935.55 353.509 1927.33 354.049 1919.17 355.069C1902.24 357.179 1894.26 375.929 1904.6 389.479C1909.49 395.889 1914.97 401.859 1920.11 408.079C1925.81 414.969 1926.11 421.609 1920.14 428.139C1912.79 436.179 1905.09 443.949 1897.09 451.349C1890.75 457.219 1884.15 456.959 1877.42 451.499C1871.52 446.709 1865.97 441.439 1859.77 437.089C1855.66 434.179 1850.67 432.509 1846.07 430.299ZM1714.79 322.659C1714.71 364.839 1748.55 398.919 1790.62 399.039C1832.83 399.159 1866.98 365.379 1867.14 323.349C1867.3 280.929 1833.39 246.779 1791.07 246.739C1748.89 246.689 1714.87 280.559 1714.79 322.659Z" fill="#FF9103" stroke="black" stroke-width="10" stroke-miterlimit="10"/>
<path d="M1790.95 256.109C1828.07 256.099 1857.86 285.969 1857.76 323.099C1857.66 359.989 1827.9 389.649 1790.98 389.649C1753.86 389.649 1724.08 359.789 1724.18 322.649C1724.27 285.759 1754.01 256.119 1790.95 256.109Z" fill="white"/>
<path d="M2084.72 116.18C2088.26 107.61 2094.74 104.65 2103.84 104.89C2120.26 105.32 2136.7 104.96 2153.13 105.02C2173.17 105.1 2185.77 114.85 2191.01 134.25C2196.18 153.41 2201.41 172.56 2206.37 191.78C2207.27 195.27 2208.65 196.45 2212.32 196.46C2284.62 196.65 2356.91 196.97 2429.21 197.28C2472.26 197.47 2515.31 197.65 2558.35 197.92C2579.4 198.05 2593.12 214.6 2588.5 235.1C2576.81 286.95 2564.83 338.74 2552.65 390.48C2548.63 407.55 2534.49 418.21 2516.71 418.66C2510.47 418.82 2504.22 418.7 2497.98 418.7C2410.56 418.65 2323.15 418.6 2235.73 418.56C2233.43 418.56 2231.12 418.55 2228.84 418.79C2220.27 419.71 2214.25 426.55 2214.25 435.21C2214.25 443.84 2220.34 450.62 2228.97 451.47C2231.25 451.69 2233.56 451.66 2235.86 451.66C2332.15 451.67 2428.44 451.66 2524.73 451.67C2536.44 451.67 2543.42 458.37 2542.25 468.49C2541.58 474.26 2538.01 477.89 2532.97 480.5C2542.71 507.25 2537.96 530.16 2513.97 546.87C2496.52 559.02 2472.79 557.89 2455.7 545.38C2436.15 531.08 2430.73 511.19 2438.53 481.63C2407.85 481.63 2377.26 481.63 2346.48 481.63C2355.66 507.9 2350.7 530.58 2327.21 546.62C2308.96 559.08 2288.92 558.95 2270.71 546.55C2247.37 530.66 2242.5 508.05 2251.63 481.23C2244.55 481.23 2237.88 481.32 2231.22 481.21C2207.21 480.83 2188.66 464.92 2184.99 441.63C2181.02 416.46 2199.55 392.17 2224.92 389.29C2226.04 389.16 2227.16 389 2228.66 388.8C2228.25 386.88 2227.96 385.14 2227.51 383.45C2205.84 302.99 2184.15 222.54 2162.46 142.08C2160.7 135.57 2159.56 134.67 2152.92 134.66C2136.49 134.64 2120.05 134.44 2103.63 134.74C2094.55 134.91 2088.03 131.81 2084.71 123.07C2084.72 120.78 2084.72 118.48 2084.72 116.18ZM2215.77 226.18C2221.66 248.1 2227.36 269.12 2232.9 290.17C2233.67 293.08 2235.3 293.46 2237.86 293.45C2254.27 293.37 2270.68 293.42 2287.09 293.39C2288.32 293.39 2289.55 293.11 2291.07 292.92C2290.87 290.6 2290.78 288.65 2290.52 286.72C2288.02 268.03 2285.38 249.36 2283.07 230.65C2282.65 227.24 2281.46 226.31 2278.24 226.32C2263.15 226.38 2248.05 226.24 2232.95 226.18C2227.43 226.16 2221.9 226.18 2215.77 226.18ZM2407.57 227.09C2407.57 249.17 2407.57 271.04 2407.57 292.9C2408.34 293.11 2408.8 293.35 2409.26 293.35C2426.32 293.38 2443.39 293.34 2460.45 293.46C2463.37 293.48 2463.97 292.04 2464.28 289.61C2466.17 274.81 2468.18 260.03 2470.11 245.24C2470.88 239.33 2471.55 233.4 2472.31 227.09C2450.43 227.09 2429.29 227.09 2407.57 227.09ZM2377.27 293.17C2377.27 270.7 2377.27 248.81 2377.27 226.86C2355.47 226.86 2334.06 226.86 2312.34 226.86C2315.34 249.23 2318.29 271.23 2321.23 293.17C2340.36 293.17 2358.69 293.17 2377.27 293.17ZM2560.04 227.29C2541.15 227.29 2522.94 227.23 2504.74 227.44C2503.75 227.45 2502.1 229.56 2501.91 230.86C2500.14 242.7 2498.6 254.58 2497.05 266.46C2495.9 275.21 2494.83 283.98 2493.68 293.1C2511 293.1 2527.83 293.1 2544.85 293.1C2549.86 271.35 2554.84 249.81 2560.04 227.29ZM2303.81 388.9C2303.65 386.75 2303.6 384.97 2303.36 383.21C2300.86 364.53 2298.21 345.87 2295.9 327.17C2295.47 323.73 2294.25 322.89 2291.03 322.92C2275.94 323.06 2260.85 322.97 2245.76 323C2244.67 323 2243.59 323.26 2241.94 323.47C2247.48 343.85 2252.79 363.92 2258.58 383.86C2259.19 385.95 2262.51 388.59 2264.66 388.66C2277.55 389.13 2290.47 388.9 2303.81 388.9ZM2407.53 389.1C2421.49 389.1 2435.07 389.16 2448.65 388.97C2449.61 388.96 2451.22 387.13 2451.38 385.99C2454.13 366.34 2456.7 346.67 2459.28 327.01C2459.44 325.8 2459.3 324.56 2459.3 323.26C2441.81 323.26 2424.82 323.26 2407.53 323.26C2407.53 345.12 2407.53 366.71 2407.53 389.1ZM2325.22 323.24C2328.02 344.5 2330.76 365.13 2333.41 385.78C2333.76 388.5 2335.06 389.19 2337.65 389.17C2348.81 389.05 2359.97 389.12 2371.13 389.12C2373.2 389.12 2375.26 389.12 2377.25 389.12C2377.25 366.67 2377.25 344.94 2377.25 323.24C2359.81 323.24 2342.79 323.24 2325.22 323.24ZM2489.62 323.24C2486.73 345.13 2483.87 366.83 2480.94 389.01C2493.43 389.01 2505.37 389.18 2517.31 388.92C2521.7 388.82 2523.59 385.48 2524.5 381.4C2527.75 366.85 2531.14 352.33 2534.48 337.8C2535.56 333.07 2536.64 328.34 2537.8 323.23C2521.43 323.24 2505.74 323.24 2489.62 323.24ZM2298.85 525.59C2311.19 525.65 2321.22 515.77 2321.24 503.54C2321.26 491.41 2311.04 481.21 2298.92 481.27C2286.89 481.33 2277.01 491.18 2276.9 503.22C2276.79 515.67 2286.47 525.53 2298.85 525.59ZM2485.69 525.59C2498.09 525.74 2508.02 516.07 2508.16 503.71C2508.3 491.51 2498.3 481.34 2486.1 481.27C2474.13 481.2 2464.17 490.97 2463.9 503.05C2463.62 515.37 2473.35 525.44 2485.69 525.59Z" fill="#FF9103"/>
<path d="M2833.23 555.91C2940.19 555.91 3026.9 469.201 3026.9 362.24C3026.9 255.279 2940.19 168.57 2833.23 168.57C2726.27 168.57 2639.56 255.279 2639.56 362.24C2639.56 469.201 2726.27 555.91 2833.23 555.91Z" fill="#FF9103" stroke="black" stroke-width="20" stroke-miterlimit="10"/>
<path d="M2833.23 486.74C2901.99 486.74 2957.73 431 2957.73 362.24C2957.73 293.481 2901.99 237.74 2833.23 237.74C2764.47 237.74 2708.73 293.481 2708.73 362.24C2708.73 431 2764.47 486.74 2833.23 486.74Z" fill="white" stroke="black" stroke-width="7" stroke-miterlimit="10"/>
<path d="M2833.23 407.971C2860.6 407.971 2882.79 385.782 2882.79 358.411C2882.79 331.039 2860.6 308.851 2833.23 308.851C2805.86 308.851 2783.67 331.039 2783.67 358.411C2783.67 385.782 2805.86 407.971 2833.23 407.971Z" fill="black"/>
<path d="M2835.86 368.25C2839.98 368.25 2843.32 364.91 2843.32 360.79C2843.32 356.67 2839.98 353.33 2835.86 353.33C2831.74 353.33 2828.4 356.67 2828.4 360.79C2828.4 364.91 2831.74 368.25 2835.86 368.25Z" fill="#333333"/>
<path d="M2938.04 297.71L2933.03 290.48C2932.44 289.63 2932.65 288.47 2933.5 287.88L3065.54 196.42C3066.39 195.83 3067.55 196.04 3068.14 196.89L3073.15 204.12C3073.74 204.97 3073.53 206.13 3072.68 206.72L2940.64 298.18C2939.8 298.77 2938.63 298.56 2938.04 297.71Z" fill="white" stroke="#011C2B" stroke-width="1.5255" stroke-miterlimit="10"/>
<path d="M2892.84 333.52L2883.63 320.22C2882.55 318.66 2882.94 316.51 2884.5 315.43L2940.86 276.39C2941.67 275.83 2942.78 276.03 2943.34 276.84L2954.5 292.95C2955.03 293.71 2954.84 294.76 2954.07 295.29L2897.63 334.38C2896.06 335.47 2893.92 335.08 2892.84 333.52Z" fill="white" stroke="#011C2B" stroke-width="1.5255" stroke-miterlimit="10"/>
<path d="M3077.58 125.88L3079.95 189.62L3032.23 223.8C3032.22 223.81 3008.54 161.78 3077.58 125.88Z" fill="#FF9103" stroke="black" stroke-width="3" stroke-miterlimit="10"/>
<path d="M3142.56 220.65L3083.79 195.87L3034.93 228.4C3034.92 228.39 3084.55 272.5 3142.56 220.65Z" fill="#FF9103" stroke="black" stroke-width="3" stroke-miterlimit="10"/>
<path d="M2888.84 324.28L2835.63 358.88L2834.06 361.37H2836.65L2890.01 327.4L2888.84 324.28Z" fill="#FF9103"/>
<path d="M2299.07 531.56C2314.61 531.56 2327.2 518.966 2327.2 503.43C2327.2 487.894 2314.61 475.3 2299.07 475.3C2283.53 475.3 2270.94 487.894 2270.94 503.43C2270.94 518.966 2283.53 531.56 2299.07 531.56Z" fill="black"/>
<path d="M2484.89 531.56C2500.43 531.56 2513.02 518.966 2513.02 503.43C2513.02 487.894 2500.43 475.3 2484.89 475.3C2469.35 475.3 2456.76 487.894 2456.76 503.43C2456.76 518.966 2469.35 531.56 2484.89 531.56Z" fill="black"/>
<path d="M2131.8 134.66H2099.61C2091.42 134.66 2084.72 127.96 2084.72 119.77C2084.72 111.58 2091.42 104.88 2099.61 104.88H2131.8C2139.99 104.88 2146.69 111.58 2146.69 119.77C2146.69 127.96 2139.99 134.66 2131.8 134.66Z" fill="black"/>
</g>
<defs>
<clipPath id="clip0_151_2">
<rect width="3193.04" height="594.78" fill="white"/>
</clipPath>
</defs>
</svg>
