<svg width="1000" height="900" viewBox="0 0 1000 900" fill="none" xmlns="http://www.w3.org/2000/svg">
<g clip-path="url(#clip0_1_684)">
<g style="mix-blend-mode:multiply" opacity="0.1">
<path d="M420.949 427.441H430.878V391.28H441.462V427.441H469.285V447.257H516.094V308.77H565.303V427.441H681.942V338.214H743.372V423.187H772.613V341.46H799.782V308.77H809.929V342.244H824.877V460.804H844.19V391.728H880.633V463.602H898.854V417.029H928.205C910.966 277.758 794.981 170.058 654.555 170.058C502.237 170.058 378.723 296.791 378.723 453.079C378.723 460.318 378.978 467.521 379.487 474.686H420.949V427.441Z" fill="#211915"/>
<path d="M898.854 417.029V463.602H880.633V391.728H844.19V460.804H824.877V342.244H809.929V308.77H799.782V341.46H772.613V423.187H743.372V338.214H681.942V427.441H565.303V308.77H516.094V447.257H469.285V427.441H441.462V391.28H430.878V427.441H420.949V474.686H379.487C390.18 620.898 509.22 736.211 654.555 736.211C806.983 736.211 930.496 609.479 930.496 453.079C930.424 440.913 929.66 428.897 928.205 417.029H898.854Z" fill="#211915"/>
<path d="M825.859 522.938C825.059 519.729 824.15 516.519 823.132 513.31C819.64 501.555 815.712 488.792 817.567 476.365C818.985 466.289 818.549 446.809 807.092 442.891C795.526 438.749 785.925 447.593 783.524 459.124C782.106 465.506 781.56 473.119 782.542 479.5C783.852 487.897 785.052 496.629 782.433 504.578C780.906 509.392 778.069 513.646 775.559 518.012C770.104 527.752 766.394 538.612 766.285 549.919C766.067 561.115 769.667 572.534 777.305 580.707C785.27 589.215 799.345 592.574 810.147 588.319C824.004 582.834 828.805 566.041 829.46 552.158C829.896 542.306 828.26 532.566 825.859 522.938Z" fill="#211915"/>
<path d="M527.223 522.938C526.423 519.729 525.55 516.519 524.604 513.31C521.004 501.555 517.185 488.792 518.931 476.365C520.458 466.289 519.913 446.809 508.456 442.891C496.89 438.749 487.289 447.593 484.888 459.124C483.47 465.506 482.924 473.119 483.906 479.5C485.215 487.897 486.416 496.629 483.906 504.578C482.27 509.392 479.433 513.646 477.032 518.012C471.468 527.752 467.758 538.612 467.649 549.919C467.43 561.115 471.14 572.534 478.669 580.707C486.634 589.215 500.709 592.574 511.511 588.319C525.368 582.834 530.169 566.041 530.824 552.158C531.26 542.306 529.624 532.566 527.223 522.938Z" fill="#211915"/>
<path d="M849.209 661.537H455.537V652.245H849.209V661.537Z" fill="#211915"/>
<path d="M749.809 652.245H554.828V269.474H749.809V652.245Z" fill="#211915"/>
<path d="M608.838 488.456V502.339H630.551V488.456H608.838Z" fill="#211915"/>
<path d="M587.125 488.456V502.339H608.838V488.456H587.125Z" fill="#211915"/>
<path d="M630.551 488.456V502.339H652.373V488.456H630.551Z" fill="#211915"/>
<path d="M565.303 488.456V502.339H587.125V488.456H565.303Z" fill="#211915"/>
<path d="M542.28 488.456V502.339H565.303V488.456H542.28Z" fill="#211915"/>
<path d="M762.466 488.456H739.444V502.339H762.466V488.456Z" fill="#211915"/>
<path d="M717.621 488.456V502.339H739.444V488.456H717.621Z" fill="#211915"/>
<path d="M695.908 488.456V502.339H717.621V488.456H695.908Z" fill="#211915"/>
<path d="M652.373 488.456V502.339H674.086V488.456H652.373Z" fill="#211915"/>
<path d="M674.086 488.456V502.339H695.908V488.456H674.086Z" fill="#211915"/>
<path d="M608.838 367.882V381.764H630.551V367.882H608.838Z" fill="#211915"/>
<path d="M587.125 367.882V381.764H608.838V367.882H587.125Z" fill="#211915"/>
<path d="M630.551 367.882V381.764H652.373V367.882H630.551Z" fill="#211915"/>
<path d="M565.303 367.882V381.764H587.125V367.882H565.303Z" fill="#211915"/>
<path d="M542.28 367.882V381.764H565.303V367.882H542.28Z" fill="#211915"/>
<path d="M762.466 367.882H739.444V381.764H762.466V367.882Z" fill="#211915"/>
<path d="M717.621 367.882V381.764H739.444V367.882H717.621Z" fill="#211915"/>
<path d="M695.908 367.882V381.764H717.621V367.882H695.908Z" fill="#211915"/>
<path d="M652.373 367.882V381.764H674.086V367.882H652.373Z" fill="#211915"/>
<path d="M674.086 367.882V381.764H695.908V367.882H674.086Z" fill="#211915"/>
<path d="M608.838 255.48V269.474H630.551V255.48H608.838Z" fill="#211915"/>
<path d="M587.125 255.48V269.474H608.838V255.48H587.125Z" fill="#211915"/>
<path d="M630.551 255.48V269.474H652.373V255.48H630.551Z" fill="#211915"/>
<path d="M565.303 255.48V269.474H587.125V255.48H565.303Z" fill="#211915"/>
<path d="M542.28 255.48V269.474H565.303V255.48H542.28Z" fill="#211915"/>
<path d="M762.466 255.48H739.444V269.474H762.466V255.48Z" fill="#211915"/>
<path d="M717.621 255.48V269.474H739.444V255.48H717.621Z" fill="#211915"/>
<path d="M695.908 255.48V269.474H717.621V255.48H695.908Z" fill="#211915"/>
<path d="M652.373 255.48V269.474H674.086V255.48H652.373Z" fill="#211915"/>
<path d="M674.086 255.48V269.474H695.908V255.48H674.086Z" fill="#211915"/>
<path d="M729.405 401.804L698.091 433.935V463.602L729.405 431.472V401.804Z" fill="#211915"/>
<path d="M698.091 470.096H729.405V437.853L698.091 469.984V470.096Z" fill="#211915"/>
<path d="M698.091 400.124V427.441L724.714 400.124H698.091Z" fill="#211915"/>
<path d="M729.405 400.124H724.714L698.091 427.441V433.935L729.405 401.804V400.124Z" fill="#211915"/>
<path d="M698.091 463.602V469.984L729.405 437.853V431.472L698.091 463.602Z" fill="#211915"/>
<path fill-rule="evenodd" clip-rule="evenodd" d="M733.879 395.534V474.686H693.617V395.534H733.879ZM698.2 400.124V432.815H729.514V400.124H698.2ZM729.514 470.096V437.405H698.2V470.096H729.514Z" fill="#211915"/>
<path d="M670.376 401.804L639.062 433.935V463.602L670.376 431.472V401.804Z" fill="#211915"/>
<path d="M639.062 470.096H670.376V437.853L639.062 469.984V470.096Z" fill="#211915"/>
<path d="M639.062 400.124V427.441L665.794 400.124H639.062Z" fill="#211915"/>
<path d="M670.376 400.124H665.794L639.062 427.441V433.935L670.376 401.804V400.124Z" fill="#211915"/>
<path d="M639.062 463.602V469.984L670.376 437.853V431.472L639.062 463.602Z" fill="#211915"/>
<path fill-rule="evenodd" clip-rule="evenodd" d="M674.85 395.534V474.686H634.697V395.534H674.85ZM639.062 400.124V432.815H670.376V400.124H639.062ZM670.376 470.096V437.405H639.062V470.096H670.376Z" fill="#211915"/>
<path d="M606.656 401.804L575.341 433.935V463.602L606.656 431.472V401.804Z" fill="#211915"/>
<path d="M575.341 470.096H606.656V437.853L575.341 469.984V470.096Z" fill="#211915"/>
<path d="M575.341 400.124V427.441L601.964 400.124H575.341Z" fill="#211915"/>
<path d="M606.656 400.124H601.964L575.341 427.441V433.935L606.656 401.804V400.124Z" fill="#211915"/>
<path d="M575.341 463.602V469.984L606.656 437.853V431.472L575.341 463.602Z" fill="#211915"/>
<path fill-rule="evenodd" clip-rule="evenodd" d="M611.02 395.534V474.686H570.867V395.534H611.02ZM575.232 400.124V432.815H606.547V400.124H575.232ZM606.547 470.096V437.405H575.232V470.096H606.547Z" fill="#211915"/>
<path d="M729.405 286.155L698.091 318.286V347.842L729.405 315.711V286.155Z" fill="#211915"/>
<path d="M698.091 354.447H729.405V322.204L698.091 354.335V354.447Z" fill="#211915"/>
<path d="M698.091 284.476V311.793L724.714 284.476H698.091Z" fill="#211915"/>
<path d="M729.405 284.476H724.714L698.091 311.793V318.286L729.405 286.155V284.476Z" fill="#211915"/>
<path d="M698.091 347.842V354.335L729.405 322.204V315.711L698.091 347.842Z" fill="#211915"/>
<path fill-rule="evenodd" clip-rule="evenodd" d="M733.879 279.886V358.925H693.617V279.886H733.879ZM698.2 284.476V317.166H729.514V284.476H698.2ZM729.514 354.447V321.756H698.2V354.447H729.514Z" fill="#211915"/>
<path d="M667.976 286.155L636.77 318.286V347.842L667.976 315.711V286.155Z" fill="#211915"/>
<path d="M636.77 354.447H667.976V322.204L636.77 354.335V354.447Z" fill="#211915"/>
<path d="M636.77 284.476V311.793L663.393 284.476H636.77Z" fill="#211915"/>
<path d="M667.976 284.476H663.393L636.77 311.793V318.286L667.976 286.155V284.476Z" fill="#211915"/>
<path d="M636.77 347.842V354.335L667.976 322.204V315.711L636.77 347.842Z" fill="#211915"/>
<path fill-rule="evenodd" clip-rule="evenodd" d="M672.45 279.886V358.925H632.297V279.886H672.45ZM636.661 284.476V317.166H667.976V284.476H636.661ZM667.976 354.447V321.756H636.661V354.447H667.976Z" fill="#211915"/>
<path d="M606.656 286.155L575.341 318.286V347.842L606.656 315.711V286.155Z" fill="#211915"/>
<path d="M575.341 354.447H606.656V322.204L575.341 354.335V354.447Z" fill="#211915"/>
<path d="M575.341 284.476V311.793L601.964 284.476H575.341Z" fill="#211915"/>
<path d="M606.656 284.476H601.964L575.341 311.793V318.286L606.656 286.155V284.476Z" fill="#211915"/>
<path d="M575.341 347.842V354.335L606.656 322.204V315.711L575.341 347.842Z" fill="#211915"/>
<path fill-rule="evenodd" clip-rule="evenodd" d="M611.02 279.886V358.925H570.867V279.886H611.02ZM575.232 284.476V317.166H606.547V284.476H575.232ZM606.547 354.447V321.756H575.232V354.447H606.547Z" fill="#211915"/>
<path fill-rule="evenodd" clip-rule="evenodd" d="M736.716 625.488H658.811V533.35H736.716V625.488ZM664.157 620.003H731.369V538.948H664.157V620.003Z" fill="#211915"/>
<path d="M739.444 628.623H655.646V620.003H739.444V628.623Z" fill="#211915"/>
<path d="M664.157 538.836V591.79L715.766 538.836H664.157Z" fill="#211915"/>
<path d="M731.369 538.836H724.823L664.157 601.082V620.002H678.123L731.369 565.369V538.836Z" fill="#211915"/>
<path d="M731.369 574.661L687.18 620.003H731.369V574.661Z" fill="#211915"/>
<path d="M715.766 538.836L664.157 591.79V601.082L724.823 538.836H715.766Z" fill="#211915"/>
<path d="M731.369 565.369L678.123 620.002H687.18L731.369 574.661V565.369Z" fill="#211915"/>
<path d="M643.863 532.902H574.032C574.032 531.111 572.722 529.655 570.977 529.655V512.638C572.722 512.638 574.032 511.183 574.032 509.392H643.863C643.863 511.183 645.281 512.638 647.027 512.638V529.655C645.281 529.655 643.863 531.111 643.863 532.902Z" fill="#211915"/>
<path d="M720.567 230.514H579.487C579.487 226.931 576.65 224.02 573.159 224.02V189.538C576.65 189.538 579.487 186.628 579.487 183.045H720.567C720.567 186.628 723.404 189.538 726.896 189.538V224.02C723.404 224.02 720.567 226.931 720.567 230.514Z" fill="#211915"/>
<path d="M587.125 191.666C587.125 193.121 585.925 194.353 584.397 194.353C582.979 194.353 581.778 193.121 581.778 191.666C581.778 190.098 582.979 188.867 584.397 188.867C585.925 188.867 587.125 190.098 587.125 191.666Z" fill="#211915"/>
<path d="M576.65 513.758C576.65 514.542 576.105 515.101 575.341 515.101C574.577 515.101 574.032 514.542 574.032 513.758C574.032 512.974 574.577 512.414 575.341 512.414C576.105 512.414 576.65 512.974 576.65 513.758Z" fill="#211915"/>
<path d="M644.081 513.758C644.081 514.542 643.535 515.101 642.771 515.101C642.117 515.101 641.462 514.542 641.462 513.758C641.462 512.974 642.117 512.414 642.771 512.414C643.535 512.414 644.081 512.974 644.081 513.758Z" fill="#211915"/>
<path d="M576.65 529.32C576.65 529.991 576.105 530.663 575.341 530.663C574.577 530.663 574.032 529.991 574.032 529.32C574.032 528.536 574.577 527.976 575.341 527.976C576.105 527.976 576.65 528.536 576.65 529.32Z" fill="#211915"/>
<path d="M644.081 529.32C644.081 529.991 643.535 530.663 642.771 530.663C642.117 530.663 641.462 529.991 641.462 529.32C641.462 528.536 642.117 527.976 642.771 527.976C643.535 527.976 644.081 528.536 644.081 529.32Z" fill="#211915"/>
<path d="M587.125 222.901C587.125 224.356 585.925 225.588 584.397 225.588C582.979 225.588 581.778 224.356 581.778 222.901C581.778 221.445 582.979 220.214 584.397 220.214C585.925 220.214 587.125 221.445 587.125 222.901Z" fill="#211915"/>
<path d="M718.385 191.666C718.385 193.121 717.294 194.353 715.766 194.353C714.348 194.353 713.148 193.121 713.148 191.666C713.148 190.098 714.348 188.867 715.766 188.867C717.294 188.867 718.385 190.098 718.385 191.666Z" fill="#211915"/>
<path d="M718.385 222.901C718.385 224.356 717.294 225.588 715.766 225.588C714.348 225.588 713.148 224.356 713.148 222.901C713.148 221.445 714.348 220.214 715.766 220.214C717.294 220.214 718.385 221.445 718.385 222.901Z" fill="#211915"/>
<path d="M599.891 255.48H587.125V230.514H599.891V255.48Z" fill="#211915"/>
<path d="M713.148 255.48H700.382V230.514H713.148V255.48Z" fill="#211915"/>
<path d="M502.564 484.314L505.074 636.572C505.074 638.699 503.437 640.602 501.255 640.602C499.182 640.602 497.436 638.923 497.327 636.684C497.327 636.609 497.327 636.572 497.327 636.572L499.836 484.314C499.836 483.53 500.491 482.859 501.255 482.971C502.019 482.971 502.564 483.53 502.564 484.314Z" fill="#211915"/>
<path d="M801.2 484.314L803.71 636.572C803.71 638.699 802.073 640.602 799.891 640.602C797.818 640.602 795.963 638.923 795.963 636.684C795.963 636.609 795.963 636.572 795.963 636.572L798.472 484.314C798.472 483.53 799.127 482.859 799.891 482.971C800.546 482.971 801.2 483.53 801.2 484.314Z" fill="#211915"/>
<path d="M538.898 644.632C538.898 638.923 534.424 634.221 528.751 634.221C527.951 634.221 527.187 634.333 526.459 634.557C526.568 634.221 526.568 633.997 526.568 633.773C526.568 629.183 522.968 625.6 518.603 625.6C517.294 625.6 516.094 625.936 515.003 626.496C514.348 621.122 510.202 616.868 504.746 616.308C499.182 615.748 494.053 619.443 492.526 624.817C491.107 623.809 489.253 623.361 487.398 623.361C481.833 623.361 477.25 627.951 477.25 633.773C477.25 633.997 477.25 634.221 477.25 634.445C472.668 635.452 469.285 639.706 469.285 644.632C469.285 647.655 470.486 650.342 472.45 652.245H486.416H521.768H535.734C537.698 650.342 538.898 647.655 538.898 644.632Z" fill="#211915"/>
<path d="M832.733 644.632C832.733 638.923 828.151 634.221 822.586 634.221C821.786 634.221 821.022 634.333 820.295 634.557C820.295 634.221 820.404 633.997 820.404 633.773C820.404 629.183 816.803 625.6 812.329 625.6C811.129 625.6 809.82 625.936 808.838 626.496C808.074 621.122 803.928 616.868 798.472 616.308C792.908 615.748 787.889 619.443 786.361 624.817C784.834 623.809 783.088 623.361 781.233 623.361C775.559 623.361 770.977 627.951 770.977 633.773C770.977 633.997 771.013 634.221 771.086 634.445C766.503 635.452 763.011 639.706 763.011 644.632C763.011 647.655 764.321 650.342 766.285 652.245H780.251H815.603H829.569C831.533 650.342 832.733 647.655 832.733 644.632Z" fill="#211915"/>
<path d="M749.809 636.572H554.828V652.245H749.809V636.572Z" fill="#211915"/>
<path d="M461.429 652.245V647.095C461.429 644.408 463.612 642.169 466.23 642.169H538.898C541.517 642.169 543.699 644.408 543.699 647.095V652.245" stroke="#211915" stroke-width="2.2" stroke-miterlimit="10"/>
<path d="M468.958 642.169V652.245" stroke="#211915" stroke-width="2.2" stroke-miterlimit="10"/>
<path d="M476.487 642.169V652.245" stroke="#211915" stroke-width="2.2" stroke-miterlimit="10"/>
<path d="M483.906 642.169V652.245" stroke="#211915" stroke-width="2.2" stroke-miterlimit="10"/>
<path d="M491.326 642.169V652.245" stroke="#211915" stroke-width="2.2" stroke-miterlimit="10"/>
<path d="M498.854 642.169V652.245" stroke="#211915" stroke-width="2.2" stroke-miterlimit="10"/>
<path d="M506.274 642.169V652.245" stroke="#211915" stroke-width="2.2" stroke-miterlimit="10"/>
<path d="M513.803 642.169V652.245" stroke="#211915" stroke-width="2.2" stroke-miterlimit="10"/>
<path d="M521.222 642.169V652.245" stroke="#211915" stroke-width="2.2" stroke-miterlimit="10"/>
<path d="M528.642 642.169V652.245" stroke="#211915" stroke-width="2.2" stroke-miterlimit="10"/>
<path d="M536.17 642.169V652.245" stroke="#211915" stroke-width="2.2" stroke-miterlimit="10"/>
<path d="M758.647 652.245V647.095C758.647 644.408 760.829 642.169 763.557 642.169H836.116C838.843 642.169 841.026 644.408 841.026 647.095V652.245" stroke="#211915" stroke-width="2.2" stroke-miterlimit="10"/>
<path d="M766.285 642.169V652.245" stroke="#211915" stroke-width="2.2" stroke-miterlimit="10"/>
<path d="M773.704 642.169V652.245" stroke="#211915" stroke-width="2.2" stroke-miterlimit="10"/>
<path d="M781.124 642.169V652.245" stroke="#211915" stroke-width="2.2" stroke-miterlimit="10"/>
<path d="M788.652 642.169V652.245" stroke="#211915" stroke-width="2.2" stroke-miterlimit="10"/>
<path d="M796.072 642.169V652.245" stroke="#211915" stroke-width="2.2" stroke-miterlimit="10"/>
<path d="M803.601 642.169V652.245" stroke="#211915" stroke-width="2.2" stroke-miterlimit="10"/>
<path d="M811.02 642.169V652.245" stroke="#211915" stroke-width="2.2" stroke-miterlimit="10"/>
<path d="M818.44 642.169V652.245" stroke="#211915" stroke-width="2.2" stroke-miterlimit="10"/>
<path d="M825.968 642.169V652.245" stroke="#211915" stroke-width="2.2" stroke-miterlimit="10"/>
<path d="M833.388 642.169V652.245" stroke="#211915" stroke-width="2.2" stroke-miterlimit="10"/>
<path d="M599.782 87.4362C599.782 132.666 563.993 169.387 519.913 169.387C475.832 169.387 440.153 132.666 440.153 87.4362C440.153 42.2067 475.832 5.59772 519.913 5.59772C563.993 5.59772 599.782 42.2067 599.782 87.4362Z" fill="#211915"/>
<path d="M500.818 287.275C500.818 279.662 494.817 273.504 487.398 273.504C485.87 273.504 484.452 273.728 483.142 274.176C482.051 264.324 473.977 256.711 464.048 256.711C461.757 256.711 459.465 257.159 457.392 257.943C457.938 255.927 458.265 253.912 458.265 251.673C458.265 239.582 448.554 229.618 436.661 229.618C429.787 229.618 423.568 233.089 419.64 238.351C417.785 229.954 410.475 223.685 401.746 223.685C392.908 223.685 385.597 230.066 383.742 238.462C378.723 231.521 370.758 226.931 361.702 226.931C346.645 226.931 334.424 239.47 334.424 254.808C334.424 257.383 334.752 259.734 335.406 262.085C331.588 258.838 326.787 256.935 321.549 256.935C309.656 256.935 300.055 266.787 300.055 278.99C300.055 282.013 300.6 284.812 301.691 287.386H500.818C500.818 287.312 500.818 287.275 500.818 287.275Z" fill="#211915"/>
<path d="M748.827 225.14C748.827 217.415 754.828 211.258 762.248 211.258C763.775 211.258 765.194 211.519 766.503 212.041C767.594 202.189 775.668 194.464 785.597 194.464C787.998 194.464 790.18 194.912 792.253 195.696C791.708 193.793 791.38 191.666 791.38 189.539C791.38 177.335 801.091 167.372 812.984 167.372C819.858 167.372 826.077 170.842 830.005 176.104C831.86 167.707 839.171 161.438 847.9 161.438C856.738 161.438 864.157 167.819 865.903 176.216C870.922 169.275 878.887 164.685 887.943 164.685C903.001 164.685 915.221 177.224 915.221 192.673C915.221 195.136 914.894 197.487 914.348 199.838C918.058 196.704 922.859 194.688 928.096 194.688C939.989 194.688 949.591 204.652 949.591 216.855C949.591 219.766 949.045 222.565 948.063 225.14H748.827Z" fill="#211915"/>
<path d="M860.884 357.134C860.884 351.76 865.03 347.506 870.158 347.506C871.249 347.506 872.231 347.692 873.104 348.066C873.868 341.236 879.542 335.863 886.307 335.863C887.943 335.863 889.58 336.199 890.998 336.758C890.635 335.415 890.416 333.959 890.344 332.392C890.344 323.996 897.109 317.166 905.292 317.166C910.093 317.166 914.457 319.517 917.185 323.1C918.494 317.278 923.513 313.024 929.624 313.024C935.625 313.024 940.753 317.39 942.062 323.212C945.445 318.398 951.009 315.263 957.338 315.263C967.812 315.263 976.214 323.884 976.214 334.631C976.214 336.31 975.996 337.99 975.559 339.557C978.178 337.43 981.451 336.087 985.161 336.087C993.344 336.087 1000 342.916 1000 351.312C1000 353.439 999.673 355.343 998.909 357.134H860.884Z" fill="#211915"/>
<path d="M576.105 557.42H641.353V652.245H648.009V550.479H569.449V652.245H576.105V557.42Z" fill="#211915"/>
<path d="M641.353 557.42H637.861L576.105 620.674V652.245H577.196L641.353 586.416V557.42Z" fill="#211915"/>
<path d="M576.105 557.42V610.374L627.714 557.42H576.105Z" fill="#211915"/>
<path d="M641.353 652.245V596.828L587.343 652.245H641.353Z" fill="#211915"/>
<path d="M627.714 557.42L576.105 610.374V620.674L637.861 557.42H627.714Z" fill="#211915"/>
<path d="M577.196 652.245H587.343L641.353 596.828V586.416L577.196 652.245Z" fill="#211915"/>
<path d="M609.383 568.951V652.245" stroke="#211915" stroke-width="2.2" stroke-miterlimit="10"/>
<path d="M643.426 539.843H572.395L563.23 562.346H652.591L643.426 539.843Z" fill="#211915"/>
<path d="M563.23 562.346V568.951H652.591V562.346H563.23Z" fill="#211915"/>
<path d="M604.583 617.428H601.2C600.764 617.428 600.327 617.092 600.327 616.532C600.327 616.084 600.764 615.748 601.2 615.748H604.583C605.019 615.748 605.456 616.084 605.456 616.532C605.456 617.092 605.019 617.428 604.583 617.428Z" fill="#211915"/>
<path d="M617.785 617.428H614.403C613.966 617.428 613.639 617.092 613.639 616.532C613.639 616.084 613.966 615.748 614.403 615.748H617.785C618.221 615.748 618.658 616.084 618.658 616.532C618.658 617.092 618.221 617.428 617.785 617.428Z" fill="#211915"/>
</g>
<path d="M418.833 421.844H428.762V385.682H439.345V421.844H467.169V441.659H513.977V303.172H563.186V421.844H679.826V332.616H741.255V417.589H770.497V335.863H797.665V303.172H807.812V336.646H822.761V455.206H842.073V386.13H878.516V458.005H896.738V411.432H926.088C908.849 272.161 792.864 164.461 652.439 164.461C500.12 164.461 376.607 291.193 376.607 447.481C376.607 454.721 376.861 461.923 377.371 469.088H418.833V421.844Z" fill="#FF9E22" fill-opacity="0.5"/>
<path d="M896.738 411.432V458.005H878.516V386.13H842.073V455.206H822.761V336.646H807.812V303.172H797.665V335.863H770.497V417.589H741.255V332.616H679.825V421.844H563.186V303.172H513.977V441.659H467.169V421.844H439.345V385.682H428.762V421.844H418.833V469.088H377.371C388.063 615.3 507.103 730.613 652.439 730.613C804.866 730.613 928.38 603.881 928.38 447.481C928.307 435.315 927.543 423.299 926.088 411.432H896.738Z" fill="#FFD9A9"/>
<path d="M823.743 517.34C822.942 514.131 822.033 510.922 821.015 507.712C817.523 495.957 813.595 483.194 815.45 470.767C816.869 460.692 816.432 441.212 804.976 437.293C793.41 433.151 783.808 441.995 781.408 453.527C779.989 459.908 779.444 467.521 780.426 473.902C781.735 482.299 782.935 491.031 780.317 498.98C778.789 503.794 775.952 508.048 773.443 512.414C767.987 522.154 764.277 533.014 764.168 544.321C763.95 555.517 767.551 566.936 775.188 575.109C783.153 583.617 797.229 586.976 808.031 582.722C821.888 577.236 826.689 560.443 827.343 546.56C827.78 536.708 826.143 526.968 823.743 517.34Z" fill="#00755A"/>
<path d="M525.106 517.34C524.306 514.131 523.433 510.922 522.488 507.712C518.887 495.957 515.068 483.194 516.814 470.767C518.342 460.692 517.796 441.212 506.339 437.293C494.774 433.151 485.172 441.995 482.772 453.527C481.353 459.908 480.808 467.521 481.79 473.902C483.099 482.299 484.299 491.031 481.79 498.98C480.153 503.794 477.316 508.048 474.916 512.414C469.351 522.154 465.641 533.014 465.532 544.321C465.314 555.517 469.024 566.936 476.552 575.109C484.517 583.617 498.593 586.976 509.395 582.722C523.252 577.236 528.052 560.443 528.707 546.56C529.144 536.708 527.507 526.968 525.106 517.34Z" fill="#00755A"/>
<path d="M847.092 655.94H453.421V646.648H847.092V655.94Z" fill="#54545F"/>
<path d="M994.501 890.708V900H6.06668V890.708H994.501Z" fill="#54545F"/>
<path d="M747.692 646.648H552.711V263.876H747.692V646.648Z" fill="#E9BC9C"/>
<path d="M606.721 482.859V496.741H628.434V482.859H606.721Z" fill="#96643D"/>
<path d="M585.008 482.859V496.741H606.721V482.859H585.008Z" fill="#A77144"/>
<path d="M628.434 482.859V496.741H650.256V482.859H628.434Z" fill="#A77144"/>
<path d="M563.186 482.859V496.741H585.008V482.859H563.186Z" fill="#96643D"/>
<path d="M540.164 482.859V496.741H563.186V482.859H540.164Z" fill="#A77144"/>
<path d="M760.349 482.859H737.327V496.741H760.349V482.859Z" fill="#96643D"/>
<path d="M715.505 482.859V496.741H737.327V482.859H715.505Z" fill="#A77144"/>
<path d="M693.792 482.859V496.741H715.505V482.859H693.792Z" fill="#96643D"/>
<path d="M650.257 482.859V496.741H671.97V482.859H650.257Z" fill="#96643D"/>
<path d="M671.97 482.859V496.741H693.792V482.859H671.97Z" fill="#A77144"/>
<path d="M606.721 362.284V376.166H628.434V362.284H606.721Z" fill="#96643D"/>
<path d="M585.008 362.284V376.166H606.721V362.284H585.008Z" fill="#A77144"/>
<path d="M628.434 362.284V376.166H650.256V362.284H628.434Z" fill="#A77144"/>
<path d="M563.186 362.284V376.166H585.008V362.284H563.186Z" fill="#96643D"/>
<path d="M540.164 362.284V376.166H563.186V362.284H540.164Z" fill="#A77144"/>
<path d="M760.349 362.284H737.327V376.166H760.349V362.284Z" fill="#96643D"/>
<path d="M715.505 362.284V376.166H737.327V362.284H715.505Z" fill="#A77144"/>
<path d="M693.792 362.284V376.166H715.505V362.284H693.792Z" fill="#96643D"/>
<path d="M650.257 362.284V376.166H671.97V362.284H650.257Z" fill="#96643D"/>
<path d="M671.97 362.284V376.166H693.792V362.284H671.97Z" fill="#A77144"/>
<path d="M606.721 249.882V263.876H628.434V249.882H606.721Z" fill="#96643D"/>
<path d="M585.008 249.882V263.876H606.721V249.882H585.008Z" fill="#A77144"/>
<path d="M628.434 249.882V263.876H650.256V249.882H628.434Z" fill="#A77144"/>
<path d="M563.186 249.882V263.876H585.008V249.882H563.186Z" fill="#96643D"/>
<path d="M540.164 249.882V263.876H563.186V249.882H540.164Z" fill="#A77144"/>
<path d="M760.349 249.882H737.327V263.876H760.349V249.882Z" fill="#96643D"/>
<path d="M715.505 249.882V263.876H737.327V249.882H715.505Z" fill="#A77144"/>
<path d="M693.792 249.882V263.876H715.505V249.882H693.792Z" fill="#96643D"/>
<path d="M650.257 249.882V263.876H671.97V249.882H650.257Z" fill="#96643D"/>
<path d="M671.97 249.882V263.876H693.792V249.882H671.97Z" fill="#A77144"/>
<path d="M727.289 396.206L695.974 428.337V458.005L727.289 425.874V396.206Z" fill="#53A097"/>
<path d="M695.974 464.498H727.289V432.255L695.974 464.386V464.498Z" fill="#53A097"/>
<path d="M695.974 394.527V421.843L722.597 394.527H695.974Z" fill="#53A097"/>
<path d="M727.289 394.527H722.597L695.974 421.843V428.337L727.289 396.206V394.527Z" fill="#6AB3B1"/>
<path d="M695.974 458.005V464.386L727.289 432.255V425.874L695.974 458.005Z" fill="#6AB3B1"/>
<path fill-rule="evenodd" clip-rule="evenodd" d="M731.762 389.937V469.088H691.5V389.937H731.762ZM696.083 394.527V427.217H727.398V394.527H696.083ZM727.398 464.498V431.807H696.083V464.498H727.398Z" fill="#7D5638"/>
<path d="M668.26 396.206L636.945 428.337V458.005L668.26 425.874V396.206Z" fill="#53A097"/>
<path d="M636.945 464.498H668.26V432.255L636.945 464.386V464.498Z" fill="#53A097"/>
<path d="M636.945 394.527V421.843L663.677 394.527H636.945Z" fill="#53A097"/>
<path d="M668.26 394.527H663.677L636.945 421.843V428.337L668.26 396.206V394.527Z" fill="#6AB3B1"/>
<path d="M636.945 458.005V464.386L668.26 432.255V425.874L636.945 458.005Z" fill="#6AB3B1"/>
<path fill-rule="evenodd" clip-rule="evenodd" d="M672.733 389.937V469.088H632.581V389.937H672.733ZM636.945 394.527V427.217H668.26V394.527H636.945ZM668.26 464.498V431.807H636.945V464.498H668.26Z" fill="#7D5638"/>
<path d="M604.539 396.206L573.224 428.337V458.005L604.539 425.874V396.206Z" fill="#53A097"/>
<path d="M573.224 464.498H604.539V432.255L573.224 464.386V464.498Z" fill="#53A097"/>
<path d="M573.224 394.527V421.843L599.847 394.527H573.224Z" fill="#53A097"/>
<path d="M604.539 394.527H599.847L573.224 421.843V428.337L604.539 396.206V394.527Z" fill="#6AB3B1"/>
<path d="M573.224 458.005V464.386L604.539 432.255V425.874L573.224 458.005Z" fill="#6AB3B1"/>
<path fill-rule="evenodd" clip-rule="evenodd" d="M608.904 389.937V469.088H568.751V389.937H608.904ZM573.115 394.527V427.217H604.43V394.527H573.115ZM604.43 464.498V431.807H573.115V464.498H604.43Z" fill="#7D5638"/>
<path d="M727.289 280.557L695.974 312.688V342.244L727.289 310.113V280.557Z" fill="#53A097"/>
<path d="M695.974 348.849H727.289V316.607L695.974 348.737V348.849Z" fill="#53A097"/>
<path d="M695.974 278.878V306.195L722.597 278.878H695.974Z" fill="#53A097"/>
<path d="M727.289 278.878H722.597L695.974 306.195V312.688L727.289 280.557V278.878Z" fill="#6AB3B1"/>
<path d="M695.974 342.244V348.737L727.289 316.607V310.113L695.974 342.244Z" fill="#6AB3B1"/>
<path fill-rule="evenodd" clip-rule="evenodd" d="M731.762 274.288V353.328H691.5V274.288H731.762ZM696.083 278.878V311.569H727.398V278.878H696.083ZM727.398 348.849V316.159H696.083V348.849H727.398Z" fill="#7D5638"/>
<path d="M665.859 280.557L634.654 312.688V342.244L665.859 310.113V280.557Z" fill="#53A097"/>
<path d="M634.654 348.849H665.859V316.607L634.654 348.737V348.849Z" fill="#53A097"/>
<path d="M634.654 278.878V306.195L661.277 278.878H634.654Z" fill="#53A097"/>
<path d="M665.859 278.878H661.277L634.654 306.195V312.688L665.859 280.557V278.878Z" fill="#6AB3B1"/>
<path d="M634.654 342.244V348.737L665.859 316.607V310.113L634.654 342.244Z" fill="#6AB3B1"/>
<path fill-rule="evenodd" clip-rule="evenodd" d="M670.333 274.288V353.328H630.18V274.288H670.333ZM634.545 278.878V311.569H665.859V278.878H634.545ZM665.859 348.849V316.159H634.545V348.849H665.859Z" fill="#7D5638"/>
<path d="M604.539 280.557L573.224 312.688V342.244L604.539 310.113V280.557Z" fill="#53A097"/>
<path d="M573.224 348.849H604.539V316.607L573.224 348.737V348.849Z" fill="#53A097"/>
<path d="M573.224 278.878V306.195L599.847 278.878H573.224Z" fill="#53A097"/>
<path d="M604.539 278.878H599.847L573.224 306.195V312.688L604.539 280.557V278.878Z" fill="#6AB3B1"/>
<path d="M573.224 342.244V348.737L604.539 316.607V310.113L573.224 342.244Z" fill="#6AB3B1"/>
<path fill-rule="evenodd" clip-rule="evenodd" d="M608.904 274.288V353.328H568.751V274.288H608.904ZM573.115 278.878V311.569H604.43V278.878H573.115ZM604.43 348.849V316.159H573.115V348.849H604.43Z" fill="#7D5638"/>
<path fill-rule="evenodd" clip-rule="evenodd" d="M734.599 619.891H656.694V527.752H734.599V619.891ZM662.04 614.405H729.253V533.35H662.04V614.405Z" fill="#7D5638"/>
<path d="M737.327 623.025H653.53V614.405H737.327V623.025Z" fill="#A77144"/>
<path d="M662.041 533.238V586.192L713.65 533.238H662.041Z" fill="#53A097"/>
<path d="M729.253 533.238H722.706L662.041 595.484V614.405H676.007L729.253 559.771V533.238Z" fill="#53A097"/>
<path d="M729.253 569.063L685.063 614.405H729.253V569.063Z" fill="#53A097"/>
<path d="M713.65 533.238L662.041 586.192V595.484L722.706 533.238H713.65Z" fill="#6AB3B1"/>
<path d="M729.253 559.771L676.007 614.405H685.063L729.253 569.063V559.771Z" fill="#6AB3B1"/>
<path d="M641.746 527.304H571.915C571.915 525.513 570.606 524.058 568.86 524.058V507.041C570.606 507.041 571.915 505.585 571.915 503.794H641.746C641.746 505.585 643.164 507.041 644.91 507.041V524.058C643.164 524.058 641.746 525.513 641.746 527.304Z" fill="#963E2A"/>
<path d="M718.451 224.916H577.371C577.371 221.333 574.534 218.423 571.042 218.423V183.941C574.534 183.941 577.371 181.03 577.371 177.447H718.451C718.451 181.03 721.288 183.941 724.779 183.941V218.423C721.288 218.423 718.451 221.333 718.451 224.916Z" fill="#FF9E22"/>
<path d="M585.008 186.068C585.008 187.523 583.808 188.755 582.281 188.755C580.862 188.755 579.662 187.523 579.662 186.068C579.662 184.501 580.862 183.269 582.281 183.269C583.808 183.269 585.008 184.501 585.008 186.068Z" fill="#B89982"/>
<path d="M574.534 508.16C574.534 508.944 573.988 509.504 573.224 509.504C572.461 509.504 571.915 508.944 571.915 508.16C571.915 507.377 572.461 506.817 573.224 506.817C573.988 506.817 574.534 507.377 574.534 508.16Z" fill="#B89982"/>
<path d="M641.964 508.16C641.964 508.944 641.419 509.504 640.655 509.504C640 509.504 639.345 508.944 639.345 508.16C639.345 507.377 640 506.817 640.655 506.817C641.419 506.817 641.964 507.377 641.964 508.16Z" fill="#B89982"/>
<path d="M574.534 523.722C574.534 524.394 573.988 525.065 573.224 525.065C572.461 525.065 571.915 524.394 571.915 523.722C571.915 522.938 572.461 522.378 573.224 522.378C573.988 522.378 574.534 522.938 574.534 523.722Z" fill="#B89982"/>
<path d="M641.964 523.722C641.964 524.394 641.419 525.065 640.655 525.065C640 525.065 639.345 524.394 639.345 523.722C639.345 522.938 640 522.378 640.655 522.378C641.419 522.378 641.964 522.938 641.964 523.722Z" fill="#B89982"/>
<path d="M585.008 217.303C585.008 218.759 583.808 219.99 582.281 219.99C580.862 219.99 579.662 218.759 579.662 217.303C579.662 215.848 580.862 214.616 582.281 214.616C583.808 214.616 585.008 215.848 585.008 217.303Z" fill="#B89982"/>
<path d="M716.269 186.068C716.269 187.523 715.177 188.755 713.65 188.755C712.231 188.755 711.031 187.523 711.031 186.068C711.031 184.501 712.231 183.269 713.65 183.269C715.177 183.269 716.269 184.501 716.269 186.068Z" fill="#B89982"/>
<path d="M716.269 217.303C716.269 218.759 715.177 219.99 713.65 219.99C712.231 219.99 711.031 218.759 711.031 217.303C711.031 215.848 712.231 214.616 713.65 214.616C715.177 214.616 716.269 215.848 716.269 217.303Z" fill="#B89982"/>
<path d="M597.774 249.882H585.008V224.916H597.774V249.882Z" fill="#54545F"/>
<path d="M711.031 249.882H698.265V224.916H711.031V249.882Z" fill="#54545F"/>
<path d="M500.447 478.716L502.957 630.974C502.957 633.101 501.32 635.004 499.138 635.004C497.065 635.004 495.319 633.325 495.21 631.086C495.21 631.011 495.21 630.974 495.21 630.974L497.72 478.716C497.72 477.933 498.374 477.261 499.138 477.373C499.902 477.373 500.447 477.933 500.447 478.716Z" fill="#5C3D18"/>
<path d="M799.084 478.716L801.593 630.974C801.593 633.101 799.956 635.004 797.774 635.004C795.701 635.004 793.846 633.325 793.846 631.086C793.846 631.011 793.846 630.974 793.846 630.974L796.356 478.716C796.356 477.933 797.01 477.261 797.774 477.373C798.429 477.373 799.084 477.933 799.084 478.716Z" fill="#5C3D18"/>
<path d="M536.781 639.035C536.781 633.325 532.308 628.623 526.634 628.623C525.834 628.623 525.07 628.735 524.343 628.959C524.452 628.623 524.452 628.399 524.452 628.175C524.452 623.585 520.851 620.002 516.487 620.002C515.177 620.002 513.977 620.338 512.886 620.898C512.231 615.524 508.085 611.27 502.63 610.71C497.065 610.15 491.937 613.845 490.409 619.219C488.991 618.211 487.136 617.763 485.281 617.763C479.716 617.763 475.134 622.354 475.134 628.175C475.134 628.399 475.134 628.623 475.134 628.847C470.551 629.854 467.169 634.109 467.169 639.035C467.169 642.057 468.369 644.744 470.333 646.648H484.299H519.651H533.617C535.581 644.744 536.781 642.057 536.781 639.035Z" fill="#187942"/>
<path d="M830.617 639.035C830.617 633.325 826.034 628.623 820.469 628.623C819.669 628.623 818.905 628.735 818.178 628.959C818.178 628.623 818.287 628.399 818.287 628.175C818.287 623.585 814.686 620.002 810.213 620.002C809.013 620.002 807.703 620.338 806.721 620.898C805.958 615.524 801.811 611.27 796.356 610.71C790.791 610.15 785.772 613.845 784.244 619.219C782.717 618.211 780.971 617.763 779.116 617.763C773.443 617.763 768.86 622.354 768.86 628.175C768.86 628.399 768.896 628.623 768.969 628.847C764.386 629.854 760.895 634.109 760.895 639.035C760.895 642.057 762.204 644.744 764.168 646.648H778.134H813.486H827.452C829.416 644.744 830.617 642.057 830.617 639.035Z" fill="#187942"/>
<path d="M747.692 630.974H552.711V646.648H747.692V630.974Z" fill="#9A816F"/>
<path d="M459.313 646.648V641.498C459.313 638.811 461.495 636.572 464.114 636.572H536.781C539.4 636.572 541.582 638.811 541.582 641.498V646.648" stroke="#433C3F" stroke-width="2.2" stroke-miterlimit="10"/>
<path d="M466.841 636.572V646.648" stroke="#433C3F" stroke-width="2.2" stroke-miterlimit="10"/>
<path d="M474.37 636.572V646.648" stroke="#433C3F" stroke-width="2.2" stroke-miterlimit="10"/>
<path d="M481.79 636.572V646.648" stroke="#433C3F" stroke-width="2.2" stroke-miterlimit="10"/>
<path d="M489.209 636.572V646.648" stroke="#433C3F" stroke-width="2.2" stroke-miterlimit="10"/>
<path d="M496.738 636.572V646.648" stroke="#433C3F" stroke-width="2.2" stroke-miterlimit="10"/>
<path d="M504.157 636.572V646.648" stroke="#433C3F" stroke-width="2.2" stroke-miterlimit="10"/>
<path d="M511.686 636.572V646.648" stroke="#433C3F" stroke-width="2.2" stroke-miterlimit="10"/>
<path d="M519.105 636.572V646.648" stroke="#433C3F" stroke-width="2.2" stroke-miterlimit="10"/>
<path d="M526.525 636.572V646.648" stroke="#433C3F" stroke-width="2.2" stroke-miterlimit="10"/>
<path d="M534.054 636.572V646.648" stroke="#433C3F" stroke-width="2.2" stroke-miterlimit="10"/>
<path d="M756.53 646.648V641.498C756.53 638.811 758.713 636.572 761.44 636.572H833.999C836.727 636.572 838.909 638.811 838.909 641.498V646.648" stroke="#433C3F" stroke-width="2.2" stroke-miterlimit="10"/>
<path d="M764.168 636.572V646.648" stroke="#433C3F" stroke-width="2.2" stroke-miterlimit="10"/>
<path d="M771.588 636.572V646.648" stroke="#433C3F" stroke-width="2.2" stroke-miterlimit="10"/>
<path d="M779.007 636.572V646.648" stroke="#433C3F" stroke-width="2.2" stroke-miterlimit="10"/>
<path d="M786.536 636.572V646.648" stroke="#433C3F" stroke-width="2.2" stroke-miterlimit="10"/>
<path d="M793.955 636.572V646.648" stroke="#433C3F" stroke-width="2.2" stroke-miterlimit="10"/>
<path d="M801.484 636.572V646.648" stroke="#433C3F" stroke-width="2.2" stroke-miterlimit="10"/>
<path d="M808.904 636.572V646.648" stroke="#433C3F" stroke-width="2.2" stroke-miterlimit="10"/>
<path d="M816.323 636.572V646.648" stroke="#433C3F" stroke-width="2.2" stroke-miterlimit="10"/>
<path d="M823.852 636.572V646.648" stroke="#433C3F" stroke-width="2.2" stroke-miterlimit="10"/>
<path d="M831.271 636.572V646.648" stroke="#433C3F" stroke-width="2.2" stroke-miterlimit="10"/>
<path d="M597.665 81.8385C597.665 127.068 561.877 163.789 517.796 163.789C473.715 163.789 438.036 127.068 438.036 81.8385C438.036 36.609 473.715 0 517.796 0C561.877 0 597.665 36.609 597.665 81.8385Z" fill="#FF9E22"/>
<path d="M498.702 281.677C498.702 274.064 492.701 267.906 485.281 267.906C483.754 267.906 482.335 268.13 481.026 268.578C479.935 258.726 471.86 251.113 461.931 251.113C459.64 251.113 457.349 251.561 455.276 252.345C455.821 250.33 456.149 248.314 456.149 246.075C456.149 233.984 446.438 224.02 434.545 224.02C427.671 224.02 421.451 227.491 417.523 232.753C415.668 224.356 408.358 218.087 399.629 218.087C390.791 218.087 383.481 224.468 381.626 232.865C376.607 225.924 368.642 221.333 359.586 221.333C344.528 221.333 332.308 233.872 332.308 249.21C332.308 251.785 332.635 254.136 333.29 256.487C329.471 253.24 324.67 251.337 319.433 251.337C307.54 251.337 297.938 261.189 297.938 273.392C297.938 276.415 298.483 279.214 299.575 281.789H498.702C498.702 281.714 498.702 281.677 498.702 281.677Z" fill="#C6ECFF"/>
<path d="M746.71 219.542C746.71 211.817 752.712 205.66 760.131 205.66C761.659 205.66 763.077 205.921 764.386 206.444C765.477 196.592 773.552 188.867 783.481 188.867C785.881 188.867 788.063 189.315 790.137 190.098C789.591 188.195 789.264 186.068 789.264 183.941C789.264 171.738 798.974 161.774 810.868 161.774C817.742 161.774 823.961 165.244 827.889 170.506C829.744 162.11 837.054 155.84 845.783 155.84C854.621 155.84 862.04 162.222 863.786 170.618C868.805 163.677 876.77 159.087 885.827 159.087C900.884 159.087 913.104 171.626 913.104 187.076C913.104 189.539 912.777 191.89 912.231 194.241C915.941 191.106 920.742 189.091 925.979 189.091C937.872 189.091 947.474 199.055 947.474 211.258C947.474 214.168 946.929 216.967 945.947 219.542H746.71Z" fill="#C6ECFF"/>
<path d="M858.767 351.536C858.767 346.162 862.913 341.908 868.042 341.908C869.133 341.908 870.115 342.095 870.988 342.468C871.751 335.639 877.425 330.265 884.19 330.265C885.827 330.265 887.463 330.601 888.882 331.161C888.518 329.817 888.3 328.362 888.227 326.794C888.227 318.398 894.992 311.569 903.175 311.569C907.976 311.569 912.341 313.92 915.068 317.502C916.378 311.681 921.397 307.426 927.507 307.426C933.508 307.426 938.636 311.792 939.946 317.614C943.328 312.8 948.893 309.665 955.221 309.665C965.696 309.665 974.097 318.286 974.097 329.033C974.097 330.713 973.879 332.392 973.443 333.959C976.061 331.832 979.334 330.489 983.044 330.489C991.228 330.489 997.883 337.318 997.883 345.715C997.883 347.842 997.556 349.745 996.792 351.536H858.767Z" fill="#C6ECFF"/>
<path d="M573.988 551.822H639.236V646.648H645.892V544.881H567.332V646.648H573.988V551.822Z" fill="#7D5638"/>
<path d="M639.236 551.822H635.745L573.988 615.076V646.648H575.079L639.236 580.818V551.822Z" fill="#53A097"/>
<path d="M573.988 551.822V604.777L625.597 551.822H573.988Z" fill="#53A097"/>
<path d="M639.236 646.648V591.23L585.227 646.648H639.236Z" fill="#53A097"/>
<path d="M625.597 551.822L573.988 604.777V615.076L635.745 551.822H625.597Z" fill="#6AB3B1"/>
<path d="M575.079 646.648H585.227L639.236 591.23V580.819L575.079 646.648Z" fill="#6AB3B1"/>
<path d="M607.267 563.354V646.648" stroke="#7D5638" stroke-width="2.2" stroke-miterlimit="10"/>
<path d="M641.309 534.245H570.278L561.113 556.748H650.475L641.309 534.245Z" fill="#B73249"/>
<path d="M561.113 556.748V563.354H650.475V556.748H561.113Z" fill="#7D161C"/>
<path opacity="0.75" d="M609.667 187.187V217.079H601.811V204.876H592.646V217.079H584.79V187.187H592.646V198.271H601.811V187.187H609.667ZM643.164 202.077C643.164 207.153 641.964 210.996 639.564 213.609C637.163 216.221 633.635 217.527 628.98 217.527C624.47 217.527 620.978 216.184 618.505 213.497C616.105 210.884 614.905 207.078 614.905 202.077C614.905 197.077 616.105 193.27 618.505 190.658C620.906 188.046 624.434 186.74 629.089 186.74C633.672 186.74 637.163 188.046 639.564 190.658C641.964 193.27 643.164 197.077 643.164 202.077ZM623.088 202.077C623.088 207.899 625.052 210.81 628.98 210.81C631.017 210.81 632.508 210.101 633.453 208.683C634.399 207.265 634.872 205.063 634.872 202.077C634.872 199.092 634.399 196.927 633.453 195.584C632.435 194.091 630.98 193.345 629.089 193.345C625.088 193.345 623.088 196.256 623.088 202.077ZM659.967 193.793V217.079H652.111V193.793H645.019V187.187H667.06V193.793H659.967ZM688.554 210.474V217.079H671.206V187.187H688.554V193.681H679.062V198.383H687.791V204.876H679.062V210.474H688.554ZM712.777 217.079H693.683V187.187H701.539V210.586H712.777V217.079Z" fill="white"/>
<path d="M602.466 611.83H599.084C598.647 611.83 598.211 611.494 598.211 610.934C598.211 610.486 598.647 610.151 599.084 610.151H602.466C602.903 610.151 603.339 610.486 603.339 610.934C603.339 611.494 602.903 611.83 602.466 611.83Z" fill="#7D5638"/>
<path d="M615.668 611.83H612.286C611.85 611.83 611.522 611.494 611.522 610.934C611.522 610.486 611.85 610.151 612.286 610.151H615.668C616.105 610.151 616.541 610.486 616.541 610.934C616.541 611.494 616.105 611.83 615.668 611.83Z" fill="#7D5638"/>
<path d="M371.042 383.667L357.731 387.809C345.074 391.84 331.435 384.451 327.507 371.352L327.07 369.785C323.143 356.686 330.344 342.804 343.11 338.773L356.312 334.631C369.078 330.601 382.717 337.99 386.536 351.088L387.081 352.656C390.9 365.754 383.699 379.637 371.042 383.667Z" fill="#E0A364"/>
<path d="M202.03 800.025C202.03 800.025 258.985 729.494 257.131 684.04H99.6837V800.025H202.03Z" fill="#DE9A59"/>
<path d="M316.814 695.46H100.993C82.7715 695.46 67.9325 680.234 67.9325 661.537V205.548C67.9325 186.74 82.7715 171.626 100.993 171.626H316.814C335.036 171.626 349.875 186.74 349.875 205.548V661.537C349.875 680.234 335.036 695.46 316.814 695.46Z" fill="#3F3F47"/>
<path d="M320.415 647.319H97.3924V203.869H320.415V647.319Z" fill="#FFD9A9"/>
<path d="M97.3924 432.255V606.008L182.062 519.132L97.3924 432.255Z" fill="#FF9E22"/>
<path d="M215.996 553.95L125.107 647.319H281.571L294.228 634.221L215.996 553.95Z" fill="#FF9E22"/>
<path d="M187.518 348.513H97.3924V365.754L133.944 403.371L187.518 348.513Z" fill="#FF9E22"/>
<path d="M320.415 594.589V446.809L248.402 520.699L320.415 594.589Z" fill="#FF9E22"/>
<path d="M255.385 348.513L167.987 438.189L214.468 485.881L320.415 377.174V348.513H255.385Z" fill="#FF9E22"/>
<path d="M167.987 438.189L255.385 348.513H187.518L134.054 403.371L97.3924 365.754V432.255L182.062 519.132L97.3924 606.008V647.319H125.106L215.996 553.949L294.228 634.221L281.571 647.319H306.994H320.415V644.632V594.589L248.402 520.699L320.415 446.809V377.174L214.468 485.881L167.987 438.189Z" fill="white"/>
<path d="M235.745 191.442H188.5C186.318 191.442 184.681 189.65 184.681 187.523C184.681 185.284 186.318 183.493 188.5 183.493H235.745C237.927 183.493 239.673 185.284 239.673 187.523C239.673 189.65 237.927 191.442 235.745 191.442Z" fill="#211915"/>
<path d="M66.9505 271.601H67.8233V240.925H66.9505C64.55 240.925 62.4769 243.053 62.4769 245.516V267.011C62.4769 269.474 64.55 271.601 66.9505 271.601Z" fill="#211915"/>
<path d="M39.2364 800.025C39.891 772.596 39.2364 745.167 37.2724 717.739C36.945 712.589 36.5086 707.215 34.8719 702.289C32.7988 695.907 28.8708 690.422 25.3793 684.6C10.5402 659.522 5.95759 629.519 2.57515 600.298C0.174717 579.363 -1.89839 557.868 2.90248 537.268C8.46713 512.974 23.088 491.927 37.3815 471.663C50.5839 452.855 63.7863 434.158 77.8616 416.022C84.7355 407.066 93.5735 397.326 104.703 397.773C116.05 398.221 124.452 409.529 126.634 420.948C129.471 435.95 124.234 451.287 118.014 465.17C108.194 487.225 95.6466 508.048 80.8076 526.968C90.8457 530.663 97.2833 539.731 103.612 548.464C122.924 575.221 139.182 604.777 147.911 636.796C156.53 668.926 157.403 703.744 146.492 735.091V800.025H39.2364Z" fill="#E2A76F"/>
<path d="M218.069 842.456H28.9799V789.837H218.069V842.456Z" fill="white"/>
<path d="M234.872 842.456H12.1769V894.402H234.872V842.456Z" fill="#2D2D32"/>
<path d="M286.481 374.935H134.708C124.124 374.935 115.614 366.202 115.614 355.343V342.692C115.614 331.832 124.124 323.1 134.708 323.1H286.481C296.956 323.1 305.576 331.832 305.576 342.692V355.343C305.576 366.202 296.956 374.935 286.481 374.935Z" fill="#61A961"/>
<path d="M208.467 680.346L204.866 676.651L208.467 672.957L212.068 676.651L208.467 680.346Z" fill="white"/>
<path d="M212.722 675.98L209.122 672.285L212.722 668.703L216.214 672.285L212.722 675.98Z" fill="white"/>
<path d="M216.869 671.613L213.377 668.031L216.869 664.336L220.469 668.031L216.869 671.613Z" fill="white"/>
<path d="M204.103 675.868L200.611 672.285L204.103 668.591L207.703 672.285L204.103 675.868Z" fill="white"/>
<path d="M208.358 671.502L204.757 667.919L208.358 664.224L211.959 667.919L208.358 671.502Z" fill="white"/>
<path d="M212.613 667.247L209.013 663.553L212.613 659.858L216.214 663.553L212.613 667.247Z" fill="white"/>
<path d="M199.847 671.501L196.247 667.807L199.847 664.112L203.339 667.807L199.847 671.501Z" fill="white"/>
<path d="M203.994 667.135L200.502 663.441L203.994 659.746L207.594 663.441L203.994 667.135Z" fill="white"/>
<path d="M208.249 662.769L204.648 659.075L208.249 655.492L211.85 659.075L208.249 662.769Z" fill="white"/>
<path d="M248.402 273.616C248.402 294.104 232.144 310.785 212.177 310.785C192.101 310.785 175.843 294.104 175.843 273.616C175.843 253.017 192.101 236.335 212.177 236.335C232.144 236.335 248.402 253.017 248.402 273.616Z" fill="#61A961"/>
<path d="M195.265 275.631L210.322 286.043L202.466 286.827L228.98 254.92C230.071 253.576 231.926 253.464 233.126 254.472C234.326 255.591 234.545 257.271 233.672 258.502L211.086 293.544L210.868 293.88C209.449 296.119 206.394 296.791 204.212 295.223C203.848 294.999 203.521 294.701 203.23 294.328L191.337 280.221C190.246 278.99 190.355 276.975 191.664 275.967C192.646 274.96 194.174 274.96 195.265 275.631Z" fill="white"/>
<path d="M320.415 223.349H97.3924V203.869H320.415V223.349Z" fill="white"/>
<path d="M132.417 219.542H111.577V207.675H132.417V219.542Z" fill="#61A961"/>
<path d="M136.345 216.967H132.417V210.25H136.345V216.967Z" fill="#61A961"/>
<path d="M151.511 210.25C150.711 210.25 150.057 210.549 149.547 211.146C149.111 211.743 148.893 212.601 148.893 213.721C148.893 214.84 149.111 215.661 149.547 216.184C149.984 216.781 150.638 217.079 151.511 217.079C151.875 217.079 152.239 217.042 152.602 216.967C152.966 216.893 153.33 216.781 153.694 216.631V217.975C152.966 218.199 152.166 218.311 151.293 218.311C150.057 218.311 149.075 217.9 148.347 217.079C147.692 216.333 147.365 215.213 147.365 213.721C147.365 212.75 147.511 211.929 147.802 211.258C148.165 210.511 148.674 209.951 149.329 209.578C149.911 209.205 150.638 209.018 151.511 209.018C152.457 209.018 153.293 209.205 154.021 209.578L153.475 210.81C153.184 210.66 152.893 210.549 152.602 210.474C152.239 210.325 151.875 210.25 151.511 210.25ZM160.568 216.967V218.199H155.548V209.13H160.568V210.362H157.076V212.825H160.349V214.056H157.076V216.967H160.568ZM167.66 218.199H162.422V209.13H163.841V216.967H167.66V218.199ZM174.315 218.199H169.078V209.13H170.606V216.855H174.315V218.199ZM181.626 211.929C181.626 212.9 181.335 213.609 180.753 214.056C180.171 214.579 179.335 214.84 178.243 214.84H177.261V218.199H175.843V209.13H178.353C179.444 209.13 180.28 209.392 180.862 209.914C181.371 210.362 181.626 211.034 181.626 211.929ZM177.261 210.474V213.609H178.025C178.753 213.609 179.298 213.459 179.662 213.161C180.026 212.937 180.207 212.526 180.207 211.929C180.207 211.407 180.062 211.034 179.771 210.81C179.407 210.586 178.898 210.474 178.243 210.474H177.261ZM190.464 209.13V218.199H188.936V214.168H184.899V218.199H183.481V209.13H184.899V212.937H188.936V209.13H190.464ZM200.611 213.721C200.611 215.213 200.247 216.333 199.52 217.079C198.865 217.9 197.883 218.311 196.574 218.311C195.192 218.311 194.137 217.938 193.41 217.191C192.755 216.37 192.428 215.213 192.428 213.721C192.428 212.228 192.755 211.071 193.41 210.25C194.137 209.429 195.192 209.018 196.574 209.018C197.883 209.018 198.865 209.429 199.52 210.25C200.247 211.071 200.611 212.228 200.611 213.721ZM193.955 213.721C193.955 214.84 194.174 215.661 194.61 216.184C195.046 216.781 195.701 217.079 196.574 217.079C197.374 217.079 197.992 216.818 198.429 216.296C198.865 215.698 199.084 214.84 199.084 213.721C199.084 212.601 198.865 211.743 198.429 211.146C197.992 210.623 197.374 210.362 196.574 210.362C195.701 210.362 195.046 210.623 194.61 211.146C194.174 211.743 193.955 212.601 193.955 213.721ZM209.886 209.13V218.199H208.14L203.775 211.034V211.37C203.848 212.191 203.884 212.9 203.884 213.497V218.199H202.575V209.13H204.321L208.576 216.407H208.685C208.685 216.258 208.649 215.885 208.576 215.288C208.576 214.691 208.576 214.243 208.576 213.945V209.13H209.886ZM217.196 216.967V218.199H212.177V209.13H217.196V210.474H213.704V212.937H216.978V214.168H213.704V216.967H217.196Z" fill="#686875"/>
<path d="M270.115 218.199H268.587L272.079 210.474H267.496V209.13H273.606V210.138L270.115 218.199ZM274.916 217.415C274.916 217.117 274.988 216.893 275.134 216.743C275.279 216.594 275.497 216.519 275.788 216.519C276.079 216.519 276.298 216.594 276.443 216.743C276.589 216.967 276.661 217.191 276.661 217.415C276.661 217.714 276.589 217.975 276.443 218.199C276.298 218.348 276.079 218.423 275.788 218.423C275.497 218.423 275.279 218.348 275.134 218.199C274.988 217.975 274.916 217.714 274.916 217.415ZM274.916 212.153C274.916 211.556 275.206 211.258 275.788 211.258C276.079 211.258 276.298 211.332 276.443 211.482C276.589 211.631 276.661 211.855 276.661 212.153C276.661 212.452 276.589 212.676 276.443 212.825C276.298 213.049 276.079 213.161 275.788 213.161C275.497 213.161 275.279 213.049 275.134 212.825C274.988 212.676 274.916 212.452 274.916 212.153ZM282.226 209.13V218.199H280.808V212.377C280.808 211.705 280.808 211.146 280.808 210.698C280.735 210.847 280.626 210.959 280.48 211.034C280.335 211.183 279.898 211.556 279.171 212.153L278.407 211.258L281.026 209.13H282.226ZM291.064 213.721C291.064 215.288 290.809 216.445 290.3 217.191C289.864 217.938 289.136 218.311 288.118 218.311C287.1 218.311 286.336 217.938 285.827 217.191C285.317 216.37 285.063 215.213 285.063 213.721C285.063 212.079 285.317 210.884 285.827 210.138C286.336 209.392 287.1 209.018 288.118 209.018C289.064 209.018 289.791 209.429 290.3 210.25C290.809 210.996 291.064 212.153 291.064 213.721ZM286.481 213.721C286.481 214.915 286.627 215.81 286.918 216.407C287.136 216.93 287.536 217.191 288.118 217.191C288.627 217.191 288.991 216.893 289.209 216.296C289.5 215.773 289.646 214.915 289.646 213.721C289.646 212.526 289.5 211.631 289.209 211.034C288.991 210.511 288.627 210.25 288.118 210.25C287.536 210.25 287.136 210.511 286.918 211.034C286.627 211.556 286.481 212.452 286.481 213.721ZM300.993 218.199H300.011L299.684 217.303C299.32 217.676 298.993 217.938 298.702 218.087C298.411 218.236 297.974 218.311 297.392 218.311C296.738 218.311 296.229 218.161 295.865 217.863C295.501 217.49 295.319 216.967 295.319 216.296C295.319 215.549 295.574 215.027 296.083 214.728C296.592 214.355 297.392 214.131 298.483 214.056H299.575V213.721C299.575 213.273 299.502 212.937 299.356 212.713C299.138 212.489 298.811 212.377 298.374 212.377C298.011 212.377 297.683 212.414 297.392 212.489C297.101 212.638 296.81 212.788 296.519 212.937L296.083 211.817C296.447 211.668 296.81 211.519 297.174 211.37C297.611 211.295 298.047 211.258 298.483 211.258C299.284 211.258 299.902 211.444 300.338 211.817C300.775 212.191 300.993 212.788 300.993 213.609V218.199ZM297.938 217.191C298.447 217.191 298.847 217.042 299.138 216.743C299.429 216.445 299.575 216.034 299.575 215.512V214.952H298.702C298.047 215.027 297.574 215.139 297.283 215.288C296.992 215.512 296.847 215.848 296.847 216.296C296.847 216.594 296.92 216.818 297.065 216.967C297.283 217.117 297.574 217.191 297.938 217.191ZM308.631 214.616V218.199H307.212V213.945C307.212 213.422 307.103 213.049 306.885 212.825C306.74 212.526 306.449 212.377 306.012 212.377C305.43 212.377 305.03 212.564 304.812 212.937C304.521 213.31 304.375 213.944 304.375 214.84V218.199H302.957V211.37H304.157L304.266 212.265H304.375C304.594 211.967 304.848 211.705 305.139 211.482C305.503 211.332 305.903 211.258 306.339 211.258C307.358 211.258 308.049 211.593 308.413 212.265H308.522C308.667 211.967 308.922 211.705 309.285 211.482C309.649 211.332 310.086 211.258 310.595 211.258C311.395 211.258 311.94 211.444 312.231 211.817C312.668 212.265 312.886 212.9 312.886 213.721V218.199H311.468V213.945C311.468 213.422 311.359 213.049 311.14 212.825C310.922 212.526 310.631 212.377 310.267 212.377C309.686 212.377 309.249 212.564 308.958 212.937C308.74 213.31 308.631 213.87 308.631 214.616Z" fill="#686875"/>
<path d="M148.565 359.261V338.438H155.548C158.313 338.438 160.386 338.885 161.768 339.781C163.077 340.602 163.732 341.908 163.732 343.699C163.732 344.819 163.441 345.789 162.859 346.61C162.277 347.431 161.513 347.954 160.568 348.178V348.402C161.804 348.7 162.713 349.26 163.295 350.081C163.877 350.902 164.168 351.947 164.168 353.216C164.168 355.081 163.477 356.574 162.095 357.694C160.713 358.739 158.822 359.261 156.421 359.261H148.565ZM154.021 342.692V346.498H155.658C156.458 346.498 157.076 346.312 157.512 345.939C157.949 345.64 158.167 345.155 158.167 344.483C158.167 343.289 157.294 342.692 155.548 342.692H154.021ZM155.876 350.529H154.021V354.895H155.985C157.658 354.895 158.494 354.149 158.494 352.656C158.494 351.984 158.276 351.462 157.84 351.088C157.403 350.715 156.749 350.529 155.876 350.529ZM186.645 348.849C186.645 352.357 185.808 355.007 184.135 356.798C182.462 358.664 180.026 359.597 176.825 359.597C173.624 359.597 171.188 358.664 169.515 356.798C167.769 355.007 166.896 352.357 166.896 348.849C166.896 345.341 167.732 342.692 169.405 340.901C171.151 339.035 173.624 338.102 176.825 338.102C180.026 338.102 182.462 339.035 184.135 340.901C185.808 342.692 186.645 345.341 186.645 348.849ZM172.679 348.849C172.679 352.88 174.061 354.895 176.825 354.895C178.207 354.895 179.225 354.41 179.88 353.439C180.535 352.469 180.862 350.939 180.862 348.849C180.862 346.76 180.535 345.229 179.88 344.259C179.153 343.289 178.134 342.804 176.825 342.804C174.061 342.804 172.679 344.819 172.679 348.849ZM209.231 348.849C209.231 352.357 208.394 355.007 206.721 356.798C205.048 358.664 202.612 359.597 199.411 359.597C196.21 359.597 193.774 358.664 192.101 356.798C190.428 355.007 189.591 352.357 189.591 348.849C189.591 345.341 190.428 342.692 192.101 340.901C193.774 339.035 196.21 338.102 199.411 338.102C202.612 338.102 205.048 339.035 206.721 340.901C208.394 342.692 209.231 345.341 209.231 348.849ZM195.265 348.849C195.265 352.88 196.647 354.895 199.411 354.895C200.793 354.895 201.811 354.41 202.466 353.439C203.121 352.469 203.448 350.939 203.448 348.849C203.448 346.76 203.121 345.229 202.466 344.259C201.811 343.289 200.793 342.804 199.411 342.804C196.647 342.804 195.265 344.819 195.265 348.849ZM223.961 347.842L230.18 359.261H224.07L220.033 351.312L218.396 352.32V359.261H212.941V338.438H218.396V347.506C218.687 346.983 219.233 346.088 220.033 344.819L224.288 338.438H230.289L223.961 347.842ZM244.474 354.783V359.373H232.472V338.55H244.474V343.028H237.927V346.386H243.928V350.865H237.927V354.783H244.474ZM265.205 348.513C265.205 352.021 264.259 354.708 262.368 356.574C260.549 358.44 257.931 359.373 254.512 359.373H247.965V338.55H255.057C258.258 338.55 260.768 339.408 262.586 341.124C264.332 342.841 265.205 345.304 265.205 348.513ZM259.531 348.737C259.531 346.797 259.167 345.379 258.44 344.483C257.712 343.587 256.585 343.14 255.057 343.14H253.53V354.783H254.73C256.403 354.783 257.603 354.298 258.331 353.328C259.131 352.283 259.531 350.753 259.531 348.737ZM273.715 338.55L273.061 351.984H268.478L267.823 338.55H273.715ZM267.714 357.022C267.714 356.126 267.969 355.455 268.478 355.007C268.987 354.484 269.715 354.223 270.66 354.223C271.606 354.223 272.333 354.484 272.842 355.007C273.279 355.455 273.497 356.126 273.497 357.022C273.497 357.843 273.243 358.515 272.733 359.037C272.224 359.485 271.533 359.709 270.66 359.709C269.715 359.709 268.987 359.485 268.478 359.037C267.969 358.515 267.714 357.843 267.714 357.022Z" fill="white"/>
<path d="M238.909 211.817L240 210.362C238.363 209.13 235.745 207.787 232.144 207.787C228.653 207.787 226.034 209.13 224.397 210.362L225.488 211.817C227.125 210.81 229.307 209.914 232.144 209.914C235.09 209.914 237.272 210.81 238.909 211.817Z" fill="#686875"/>
<path d="M229.198 217.303L230.617 219.43C231.162 219.43 231.599 219.318 232.144 219.318C232.581 219.318 233.017 219.43 233.453 219.43L234.981 217.303C234.108 216.967 233.235 216.743 232.144 216.743C231.053 216.743 230.071 216.967 229.198 217.303Z" fill="#686875"/>
<path d="M226.47 213.385L227.78 215.176C228.98 214.728 230.507 214.392 232.144 214.392C233.781 214.392 235.308 214.728 236.509 215.176L237.818 213.385C236.29 212.713 234.435 212.041 232.144 212.041C229.853 212.041 227.998 212.713 226.47 213.385Z" fill="#686875"/>
<path d="M361.877 443.115L357.403 444.57C344.856 448.489 331.435 441.212 327.616 428.337C323.797 415.574 330.889 401.804 343.437 397.885L347.911 396.43C360.458 392.512 373.77 399.789 377.589 412.663C381.408 425.538 374.315 439.196 361.877 443.115Z" fill="#E2A76F"/>
<path d="M360.131 504.578L355.767 506.033C343.655 509.839 330.562 502.674 326.852 490.248C323.143 477.709 330.017 464.386 342.237 460.468L346.601 459.124C358.713 455.318 371.806 462.371 375.516 474.91C379.225 487.449 372.351 500.771 360.131 504.578Z" fill="#E2A76F"/>
<path d="M366.569 578.467L362.204 579.923C350.093 583.729 337 576.564 333.29 564.137C329.58 551.598 336.454 538.276 348.674 534.469L353.039 533.014C365.259 529.208 378.243 536.261 381.953 548.8C385.663 561.338 378.789 574.661 366.569 578.467Z" fill="#E2A76F"/>
<path d="M278.08 666.575C278.08 668.367 276.552 669.822 274.806 669.822C273.061 669.822 271.533 668.367 271.533 666.575C271.533 664.672 273.061 663.217 274.806 663.217C276.552 663.217 278.08 664.672 278.08 666.575Z" fill="white"/>
<path fill-rule="evenodd" clip-rule="evenodd" d="M236.29 474.686C236.29 491.479 208.249 529.543 208.249 529.543C208.249 529.543 180.317 491.479 180.317 474.686C180.317 457.893 192.864 444.234 208.249 444.234C223.743 444.234 236.29 457.893 236.29 474.686ZM221.015 471.551C221.015 464.274 215.341 458.453 208.249 458.453C201.266 458.453 195.483 464.274 195.483 471.551C195.483 478.716 201.266 484.538 208.249 484.538C215.341 484.538 221.015 478.716 221.015 471.551Z" fill="#B72D46"/>
<path d="M53.639 868.429C53.639 876.154 47.5288 882.423 40.0001 882.423C32.4715 882.423 26.3613 876.154 26.3613 868.429C26.3613 860.704 32.4715 854.435 40.0001 854.435C47.5288 854.435 53.639 860.704 53.639 868.429Z" fill="#7E7B89"/>
</g>
<defs>
<clipPath id="clip0_1_684">
<rect width="1000" height="900" fill="white"/>
</clipPath>
</defs>
</svg>
