<svg width="50" height="50" viewBox="0 0 50 50" fill="none" xmlns="http://www.w3.org/2000/svg">
<path d="M28.5238 10.955L46 10.9676L45.9762 45.8947L28.5 45.8821L28.5238 10.955Z" fill="black"/>
<rect x="32.3822" y="15.9428" width="2.91165" height="2.99268" fill="white"/>
<rect x="39.176" y="15.9428" width="2.91165" height="2.99268" fill="white"/>
<rect x="32.3822" y="21.9281" width="2.91165" height="2.99268" fill="white"/>
<rect x="39.176" y="21.9281" width="2.91165" height="2.99268" fill="white"/>
<rect x="32.3822" y="27.9135" width="2.91165" height="2.99268" fill="white"/>
<rect x="39.176" y="27.9135" width="2.91165" height="2.99268" fill="white"/>
<rect x="32.3822" y="33.8988" width="2.91165" height="2.99268" fill="white"/>
<rect x="39.176" y="33.8988" width="2.91165" height="2.99268" fill="white"/>
<rect x="35.2938" y="39.8842" width="3.88219" height="6.01" fill="white"/>
<path d="M4.02384 10.955L21.5 10.9676L21.4762 45.8947L4 45.8821L4.02384 10.955Z" fill="black"/>
<rect x="7.88219" y="15.9428" width="2.91165" height="2.99268" fill="white"/>
<rect x="14.676" y="15.9428" width="2.91165" height="2.99268" fill="white"/>
<rect x="7.88219" y="21.9281" width="2.91165" height="2.99268" fill="white"/>
<rect x="14.676" y="21.9281" width="2.91165" height="2.99268" fill="white"/>
<rect x="7.88219" y="27.9135" width="2.91165" height="2.99268" fill="white"/>
<rect x="14.676" y="27.9135" width="2.91165" height="2.99268" fill="white"/>
<rect x="7.88219" y="33.8988" width="2.91165" height="2.99268" fill="white"/>
<rect x="14.676" y="33.8988" width="2.91165" height="2.99268" fill="white"/>
<rect x="10.7938" y="39.8842" width="3.88219" height="6.01" fill="white"/>
<path d="M14.5287 4L35.5362 4.01515L35.5076 46L14.5 45.9849L14.5287 4Z" fill="#FF9103"/>
<rect x="19.1667" y="9.99568" width="3.5" height="3.59741" fill="white"/>
<rect x="27.3333" y="9.99568" width="3.5" height="3.59741" fill="white"/>
<rect x="19.1667" y="17.1905" width="3.5" height="3.59741" fill="white"/>
<rect x="27.3333" y="17.1905" width="3.5" height="3.59741" fill="white"/>
<rect x="19.1667" y="24.3853" width="3.5" height="3.59741" fill="white"/>
<rect x="27.3333" y="24.3853" width="3.5" height="3.59741" fill="white"/>
<rect x="19.1667" y="31.5801" width="3.5" height="3.59741" fill="white"/>
<rect x="27.3333" y="31.5801" width="3.5" height="3.59741" fill="white"/>
<rect x="22.6667" y="38.7749" width="4.66667" height="7.22" fill="white"/>
</svg>
