<svg width="527" height="569" viewBox="0 0 527 569" fill="none" xmlns="http://www.w3.org/2000/svg">
    <path d="M64.4703 355.44C38.6603 367.29 77.3803 393.37 77.3803 393.37C67.4003 389.38 54.7103 383.76 45.1803 379.45C31.6303 373.33 20.8103 392.2 33.0203 400.67L33.1303 400.75L96.3204 436.48L106.88 389.68L64.4703 355.44Z" fill="white" stroke="#01012D" stroke-width="5" stroke-miterlimit="10" stroke-linecap="round"/>
    <path d="M115.72 446.01C115.72 446.01 44.1903 404.43 73.6903 268C73.6903 268 106.88 150.01 199.06 116.82H291.51C291.51 116.82 387.12 164.75 416.61 290.12C416.61 290.12 431.36 367.55 390.8 389.68C390.79 389.68 286.8 476.53 115.72 446.01Z" fill="#FF9103"/>
    <path d="M204.333 113.849C204.333 113.849 195.366 63.054 145.459 27.9377C145.459 27.9377 160.079 12.9637 213.427 37.0533C213.427 37.0533 227.633 7.50762 246.431 7.00455C246.431 7.00455 261.674 13.883 273.572 35.4437C273.572 35.4437 296.121 34.8402 306.887 16.3212C306.887 16.3212 325.373 4.89187 333.301 19.2624C333.301 19.2624 288.919 45.9675 287.14 115.281L204.333 113.849Z" fill="#FF9103" stroke="black" stroke-width="7" stroke-miterlimit="10"/>
    <path d="M181.461 103.516C181.461 103.516 248.495 79.8524 301.636 96.6513" stroke="black" stroke-width="7" stroke-miterlimit="10" stroke-linecap="round"/>
    <path d="M189.278 91.4433C189.278 91.4433 250.227 67.943 298.647 84.8682" stroke="black" stroke-width="7" stroke-miterlimit="10" stroke-linecap="round"/>
    <path d="M518 531.641L444.25 535.331" stroke="#01012D" stroke-width="5" stroke-miterlimit="10" stroke-linecap="round"/>
    <path d="M514.31 362.03L451.63 369.4" stroke="#01012D" stroke-width="5" stroke-miterlimit="10" stroke-linecap="round"/>
    <path d="M439.71 391.3C444.65 375.12 450.63 365.25 456.39 365.69C467.58 366.54 473.72 405.91 470.1 453.63C466.48 501.35 454.47 539.34 443.28 538.5C436.75 538 431.94 524.41 429.79 503.69" fill="white"/>
    <path d="M439.71 391.3C444.65 375.12 450.63 365.25 456.39 365.69C467.58 366.54 473.72 405.91 470.1 453.63C466.48 501.35 454.47 539.34 443.28 538.5C436.75 538 431.94 524.41 429.79 503.69" stroke="#01012D" stroke-width="5" stroke-miterlimit="10"/>
    <path d="M466.89 503.69H429.79L408.17 503.99C408.17 503.99 291.23 559.3 235.92 559.3C235.92 559.3 201.44 556.17 118.04 509.44C103.64 501.37 89.82 492.31 76.62 482.4C52.39 464.21 13.52 434.13 11 426.56C11 426.56 11 404.44 40.5 408.12C40.5 408.12 140.06 459.74 147.43 459.74C147.43 459.74 141.78 428.69 184.84 423.39C207.93 420.55 230.24 413.03 249.44 399.9C254.67 396.33 260.18 392.27 265.85 387.69C278.99 377.07 294.16 369.09 310.47 364.69C341.97 356.19 391.53 353.54 442.42 393.36L471.84 393.21" fill="white"/>
    <path d="M466.89 503.69H429.79L408.17 503.99C408.17 503.99 291.23 559.3 235.92 559.3C235.92 559.3 201.44 556.17 118.04 509.44C103.64 501.37 89.82 492.31 76.62 482.4C52.39 464.21 13.52 434.13 11 426.56C11 426.56 11 404.44 40.5 408.12C40.5 408.12 140.06 459.74 147.43 459.74C147.43 459.74 141.78 428.69 184.84 423.39C207.93 420.55 230.24 413.03 249.44 399.9C254.67 396.33 260.18 392.27 265.85 387.69C278.99 377.07 294.16 369.09 310.47 364.69C341.97 356.19 391.53 353.54 442.42 393.36L471.84 393.21" stroke="#01012D" stroke-width="5" stroke-miterlimit="10"/>
    <path d="M439.71 391.3C444.65 375.12 450.63 365.25 456.39 365.69C467.58 366.54 473.72 405.91 470.1 453.63C466.48 501.35 454.47 539.34 443.28 538.5C436.75 538 431.94 524.41 429.79 503.69" stroke="#01012D" stroke-width="5" stroke-miterlimit="10"/>
    <path d="M311.51 443.15C311.51 443.15 236.84 455.1 205.78 468.24C195.69 472.51 184.82 474.86 173.9 474.05C161.85 473.16 149.28 469.04 147.43 456.06" fill="white"/>
    <path d="M311.51 443.15C311.51 443.15 236.84 455.1 205.78 468.24C195.69 472.51 184.82 474.86 173.9 474.05C161.85 473.16 149.28 469.04 147.43 456.06" stroke="#01012D" stroke-width="6.7091" stroke-miterlimit="10" stroke-linecap="round"/>
    <path d="M237.77 373.49C286.642 373.49 326.26 328.002 326.26 271.89C326.26 215.778 286.642 170.29 237.77 170.29C188.899 170.29 149.28 215.778 149.28 271.89C149.28 328.002 188.899 373.49 237.77 373.49Z" fill="black" stroke="black" stroke-width="5" stroke-miterlimit="10"/>
    <path d="M234.761 343.323V329.041C225.62 328.755 217.431 326.946 210.195 323.613V302.333L224.335 301.333V309.617C224.335 310.95 224.525 311.949 224.906 312.616C225.287 313.187 226.286 313.759 227.905 314.33C229.524 314.901 231.809 315.187 234.761 315.187V288.479C227.334 286.384 221.954 284.051 218.622 281.48C215.289 278.909 212.956 276.148 211.623 273.196C210.385 270.245 209.766 266.769 209.766 262.77C209.766 255.724 212.004 249.916 216.479 245.346C221.05 240.68 227.143 237.824 234.761 236.776V223.636H245.473V236.491C253.471 236.967 260.85 238.776 267.61 241.918V262.056L253.614 262.913V255.201C253.614 253.868 253.423 252.915 253.042 252.344C252.661 251.678 251.662 251.106 250.043 250.63C248.519 250.154 246.996 249.868 245.473 249.773V274.91H245.615C252.852 277.1 258.66 279.862 263.04 283.194C268.562 287.193 271.324 293.144 271.324 301.047C271.324 308.95 268.943 315.234 264.183 319.9C259.517 324.566 253.28 327.47 245.473 328.612V343.323H234.761ZM253.614 302.333C253.614 297.572 250.9 294.096 245.473 291.906V314.187C250.9 312.473 253.614 308.522 253.614 302.333ZM234.761 250.63C229.809 252.344 227.334 255.629 227.334 260.485C227.334 265.341 229.809 268.912 234.761 271.197V250.63Z" fill="#FF9103"/>
</svg>