<svg width="527" height="569" viewBox="0 0 527 569" fill="none" xmlns="http://www.w3.org/2000/svg">
<path d="M11.1602 70.2897C14.7002 61.7197 21.1802 58.7597 30.2802 58.9997C46.7002 59.4297 63.1402 59.0697 79.5702 59.1297C99.6102 59.2097 112.21 68.9597 117.45 88.3597C122.62 107.52 127.85 126.67 132.82 145.89C133.72 149.38 135.1 150.56 138.77 150.57C211.07 150.76 283.36 151.08 355.66 151.39C398.71 151.58 441.76 151.76 484.8 152.03C505.85 152.16 519.57 168.71 514.95 189.21C503.26 241.06 491.28 292.85 479.1 344.59C475.08 361.66 460.94 372.32 443.16 372.77C436.92 372.93 430.67 372.81 424.43 372.81C337.01 372.76 249.6 372.71 162.18 372.67C159.88 372.67 157.57 372.66 155.29 372.9C146.72 373.82 140.7 380.66 140.7 389.32C140.7 397.95 146.79 404.73 155.42 405.58C157.7 405.8 160.01 405.77 162.31 405.77C258.6 405.78 354.89 405.77 451.18 405.78C462.89 405.78 469.87 412.48 468.7 422.6C468.03 428.37 464.46 432 459.42 434.61C469.16 461.36 464.41 484.27 440.42 500.98C422.97 513.13 399.24 512 382.15 499.49C362.6 485.19 357.18 465.3 364.98 435.74C334.3 435.74 303.71 435.74 272.93 435.74C282.11 462.01 277.15 484.69 253.66 500.73C235.41 513.19 215.37 513.06 197.16 500.66C173.82 484.77 168.95 462.16 178.08 435.34C171 435.34 164.33 435.43 157.67 435.32C133.66 434.94 115.11 419.03 111.44 395.74C107.47 370.57 126 346.28 151.37 343.4C152.49 343.27 153.61 343.11 155.11 342.91C154.7 340.99 154.41 339.25 153.96 337.56C132.29 257.11 110.6 176.66 88.9102 96.1997C87.1502 89.6897 86.0102 88.7897 79.3702 88.7797C62.9402 88.7597 46.5002 88.5597 30.0802 88.8597C21.0002 89.0297 14.4802 85.9297 11.1602 77.1897C11.1602 74.8897 11.1602 72.5897 11.1602 70.2897ZM142.22 180.29C148.11 202.21 153.81 223.23 159.35 244.28C160.12 247.19 161.75 247.57 164.31 247.56C180.72 247.48 197.13 247.53 213.54 247.5C214.77 247.5 216 247.22 217.52 247.03C217.32 244.71 217.23 242.76 216.97 240.83C214.47 222.14 211.83 203.47 209.52 184.76C209.1 181.35 207.91 180.42 204.69 180.43C189.6 180.49 174.5 180.35 159.4 180.29C153.87 180.27 148.34 180.29 142.22 180.29ZM334.01 181.2C334.01 203.28 334.01 225.15 334.01 247.01C334.78 247.22 335.24 247.46 335.7 247.46C352.76 247.49 369.83 247.45 386.89 247.57C389.81 247.59 390.41 246.15 390.72 243.72C392.61 228.92 394.62 214.14 396.55 199.35C397.32 193.44 397.99 187.51 398.75 181.2C376.87 181.2 355.73 181.2 334.01 181.2ZM303.71 247.28C303.71 224.81 303.71 202.92 303.71 180.97C281.91 180.97 260.5 180.97 238.78 180.97C241.78 203.34 244.73 225.34 247.67 247.28C266.8 247.28 285.13 247.28 303.71 247.28ZM486.48 181.4C467.59 181.4 449.38 181.34 431.18 181.55C430.19 181.56 428.54 183.67 428.35 184.97C426.58 196.81 425.04 208.69 423.49 220.57C422.34 229.32 421.27 238.09 420.12 247.21C437.44 247.21 454.27 247.21 471.29 247.21C476.3 225.46 481.28 203.92 486.48 181.4ZM230.25 343.01C230.09 340.86 230.04 339.08 229.8 337.32C227.3 318.64 224.65 299.98 222.34 281.28C221.91 277.84 220.69 277 217.47 277.03C202.38 277.17 187.29 277.08 172.2 277.11C171.11 277.11 170.03 277.37 168.38 277.58C173.92 297.96 179.23 318.03 185.02 337.97C185.63 340.06 188.95 342.7 191.1 342.77C203.99 343.24 216.91 343.01 230.25 343.01ZM333.98 343.21C347.94 343.21 361.52 343.27 375.1 343.08C376.06 343.07 377.67 341.24 377.83 340.1C380.58 320.45 383.15 300.78 385.73 281.12C385.89 279.91 385.75 278.67 385.75 277.37C368.26 277.37 351.27 277.37 333.98 277.37C333.98 299.23 333.98 320.82 333.98 343.21ZM251.66 277.35C254.46 298.61 257.2 319.24 259.85 339.89C260.2 342.61 261.5 343.3 264.09 343.28C275.25 343.16 286.41 343.23 297.57 343.23C299.64 343.23 301.7 343.23 303.69 343.23C303.69 320.78 303.69 299.05 303.69 277.35C286.25 277.35 269.23 277.35 251.66 277.35ZM416.06 277.36C413.17 299.25 410.31 320.95 407.38 343.13C419.87 343.13 431.81 343.3 443.75 343.04C448.14 342.94 450.03 339.6 450.94 335.52C454.19 320.97 457.58 306.45 460.92 291.92C462 287.19 463.08 282.46 464.24 277.35C447.87 277.36 432.18 277.36 416.06 277.36ZM225.29 479.7C237.63 479.76 247.66 469.88 247.68 457.65C247.7 445.52 237.48 435.32 225.36 435.38C213.33 435.44 203.45 445.29 203.34 457.33C203.23 469.78 212.91 479.64 225.29 479.7ZM412.13 479.7C424.53 479.85 434.46 470.18 434.6 457.82C434.74 445.62 424.74 435.45 412.54 435.38C400.57 435.31 390.61 445.08 390.34 457.16C390.06 469.48 399.79 479.56 412.13 479.7Z" fill="#FF9103"/>
<circle cx="225.5" cy="458.5" r="52.5" fill="black"/>
<circle cx="412.5" cy="457.5" r="52.5" fill="black"/>
<circle cx="226" cy="459" r="30" fill="white"/>
<circle cx="413" cy="458" r="30" fill="white"/>
</svg>
