<svg width="527" height="569" viewBox="0 0 527 569" fill="none" xmlns="http://www.w3.org/2000/svg">
<path d="M421.18 103.69C421.18 94.4904 421.21 85.8404 421.17 77.2004C421.15 73.8304 421.31 70.4004 425.79 70.5104C430.17 70.6204 430.35 74.1204 430.35 77.4204C430.36 89.2904 430.39 101.17 430.33 113.04C430.3 118.45 428.96 119.78 423.59 119.8C411.4 119.84 399.21 119.78 387.01 119.84C383.6 119.86 380.71 119 380.82 115.09C380.92 111.48 383.79 110.66 386.95 110.67C393.92 110.7 400.88 110.69 407.85 110.66C409.35 110.65 410.85 110.49 413.94 110.3C407.99 105.47 403.3 101.35 398.3 97.6604C351.45 63.0504 298.85 48.4404 241.04 54.3704C141.72 64.5704 61.0497 140 44.2397 238.63C34.1797 297.66 46.2997 352.43 79.7297 402.31C80.7897 403.89 82.4297 405.38 82.6997 407.09C82.9797 408.94 82.5697 411.89 81.3497 412.7C80.0797 413.55 77.4697 412.54 75.4997 412.08C74.9097 411.94 74.5097 410.91 74.0597 410.26C49.4897 375.09 35.2297 336.18 32.5097 293.32C28.1097 224 49.8797 163.92 98.1697 114.05C136.15 74.8204 182.72 51.7904 237.11 45.7304C305.2 38.1404 365.39 56.9704 417.51 101.46C418.11 101.97 418.71 102.49 419.35 102.96C419.6 103.12 419.92 103.19 421.18 103.69Z" fill="black"/>
<path d="M107.63 448.54C107.63 458.61 107.6 467.27 107.64 475.92C107.66 479.32 107.4 482.67 102.93 482.54C98.8697 482.42 98.4597 479.21 98.4597 476.01C98.4497 463.98 98.4197 451.94 98.4797 439.91C98.5097 434.7 99.8597 433.31 104.84 433.29C117.19 433.25 129.55 433.32 141.9 433.24C145.15 433.22 147.92 434.04 148 437.61C148.09 441.48 145.11 442.45 141.75 442.45C133.38 442.45 125.01 442.45 115.15 442.45C117.36 444.53 118.59 445.79 119.93 446.92C156.55 477.65 198.59 495.48 246.32 499.05C351.23 506.9 445.57 444.1 477.18 343.93C498.66 275.89 488.63 211.42 449.64 151.57C448.69 150.11 447.68 148.69 446.68 147.27C444.9 144.74 444.5 142.14 447.24 140.19C449.94 138.27 452.34 139.35 454.13 141.92C455.49 143.87 456.87 145.8 458.17 147.79C486.98 191.74 500.16 239.94 496.33 292.38C489.25 389.28 426.54 470.13 333.76 498.3C252.96 522.83 178.98 506.96 113.37 453.43C111.82 452.15 110.29 450.8 107.63 448.54Z" fill="black"/>
<path d="M319.51 383.94C308.18 384.97 298.82 393.24 297.63 404.14C296.82 411.53 296.24 418.95 295.69 426.37C294.88 437.2 290.57 442 279.75 442.5C269.65 442.97 259.49 442.97 249.39 442.53C238.22 442.04 233.92 437.32 233.11 426.23C232.59 419.13 231.96 412.04 231.27 404.95C230.43 396.31 225.98 390.11 218 386.78C210.16 383.51 202.75 384.85 196.15 390.1C190.08 394.93 184.22 400.02 178.21 404.92C171.09 410.72 164.55 410.9 157.8 404.61C149.94 397.29 142.37 389.62 135.14 381.68C129.34 375.31 129.59 368.61 135.03 361.99C139.86 356.13 144.81 350.36 149.7 344.55C155.38 337.79 156.99 330.16 153.69 321.95C150.38 313.73 143.94 309.38 135.11 308.54C127.08 307.77 119.03 307.07 111.02 306.1C103.85 305.23 99.0501 301.09 98.6701 293.87C98.0701 282.37 98.0501 270.78 98.6501 259.28C99.0401 251.83 103.81 247.79 111.37 246.9C119.7 245.91 128.08 245.39 136.4 244.31C153.08 242.14 161 223.55 150.89 210.13C146.04 203.69 140.55 197.73 135.4 191.52C129.51 184.43 129.19 177.85 135.36 171.09C142.6 163.16 150.19 155.51 158.08 148.22C164.63 142.15 171.15 142.39 178.12 148.06C183.77 152.65 189.36 157.32 194.94 162C201.8 167.77 209.46 169.74 217.9 166.29C226.3 162.86 230.65 156.28 231.37 147.25C231.94 140.15 232.59 133.06 233.18 125.97C234.01 115.96 238.31 111.11 248.34 110.63C259.07 110.11 269.86 110.11 280.59 110.64C290.55 111.14 294.82 116.04 295.64 126.1C296.25 133.51 296.79 140.93 297.57 148.33C299.38 165.47 318.24 173.73 332.08 163.35C338.28 158.7 344.07 153.51 350.05 148.57C357.68 142.27 364.04 141.96 371.18 148.6C379.05 155.91 386.59 163.61 393.81 171.56C399.41 177.72 399.17 184.44 393.91 190.88C389 196.88 383.92 202.75 378.94 208.7C373.38 215.34 371.86 222.86 375 230.89C378.23 239.12 384.61 243.6 393.44 244.49C401.47 245.3 409.52 245.97 417.53 246.92C425 247.81 429.76 251.94 430.16 259.41C430.76 270.76 430.77 282.19 430.18 293.54C429.78 301.2 425.02 305.25 417.16 306.18C408.99 307.15 400.77 307.69 392.61 308.71C375.68 310.82 367.7 329.57 378.04 343.12C382.93 349.53 388.41 355.5 393.55 361.72C399.25 368.61 399.55 375.25 393.58 381.78C386.23 389.82 378.53 397.59 370.53 404.99C364.19 410.86 357.59 410.6 350.86 405.14C344.96 400.35 339.41 395.08 333.21 390.73C329.1 387.82 324.11 386.16 319.51 383.94ZM188.23 276.3C188.15 318.48 221.99 352.56 264.06 352.68C306.27 352.8 340.42 319.02 340.58 276.99C340.74 234.57 306.83 200.42 264.51 200.38C222.33 200.34 188.31 234.2 188.23 276.3Z" fill="#FF9103"/>
<path d="M264.389 209.761C301.509 209.751 331.299 239.621 331.199 276.751C331.099 313.641 301.339 343.301 264.419 343.301C227.299 343.301 197.519 313.441 197.619 276.301C197.709 239.401 227.449 209.761 264.389 209.761Z" fill="white"/>
</svg>
