<svg width="527" height="569" viewBox="0 0 527 569" fill="none" xmlns="http://www.w3.org/2000/svg">
<g clip-path="url(#clip0_137_30)">
<path d="M340.957 519.207L268.635 541.933C257.271 545.504 245.109 539.691 240.676 528.639C230.953 504.364 225.02 462.511 282.911 437.953" stroke="#01012D" stroke-width="8.2179" stroke-miterlimit="10" stroke-linecap="round"/>
<path d="M492.455 367.708L515.181 295.385C518.752 284.022 512.94 271.86 501.887 267.426C477.613 257.704 435.759 251.771 411.201 309.662" stroke="#01012D" stroke-width="8.2179" stroke-miterlimit="10" stroke-linecap="round"/>
<path d="M406.089 267.045C424.256 248.878 424.256 219.423 406.089 201.256C387.922 183.089 358.467 183.089 340.3 201.256C322.133 219.423 322.133 248.878 340.3 267.045C358.467 285.212 387.922 285.212 406.089 267.045Z" fill="white" stroke="black" stroke-width="10" stroke-miterlimit="10"/>
<path d="M237.118 437.302C255.286 419.135 255.286 389.68 237.118 371.513C218.951 353.345 189.496 353.345 171.329 371.513C153.162 389.68 153.162 419.135 171.329 437.302C189.496 455.469 218.951 455.469 237.118 437.302Z" fill="white" stroke="black" stroke-width="10" stroke-miterlimit="10"/>
<path d="M309.993 339.92C329.941 319.972 329.941 287.63 309.993 267.682C290.045 247.734 257.703 247.734 237.755 267.682C217.807 287.63 217.807 319.972 237.755 339.92C257.703 359.868 290.045 359.868 309.993 339.92Z" fill="#FF9103"/>
<path d="M472.111 408.685L380.053 500.744C376.977 503.819 371.999 503.819 368.923 500.744L315.841 447.661C294.09 425.91 294.09 390.654 315.841 368.903L340.271 344.473C362.022 322.722 397.278 322.722 419.029 344.473L472.111 397.555C475.187 400.631 475.187 405.609 472.111 408.685Z" fill="#FF9103"/>
<path d="M211.967 239.305C251.859 199.413 251.859 134.735 211.967 94.8433C172.075 54.9512 107.397 54.9512 67.5054 94.8433C27.6133 134.735 27.6133 199.413 67.5054 239.305C107.397 279.197 172.075 279.197 211.967 239.305Z" fill="#FF9103"/>
<path d="M108.778 189.009L148.765 187.715L147.471 111.609" stroke="black" stroke-width="10" stroke-miterlimit="10" stroke-linecap="round"/>
</g>
<defs>
<clipPath id="clip0_137_30">
<rect width="527" height="569" fill="white"/>
</clipPath>
</defs>
</svg>
