<svg width="778" height="590" viewBox="0 0 778 590" fill="none" xmlns="http://www.w3.org/2000/svg">
<path d="M273.3 25.695C269.2 21.6412 263 18.9741 256.6 18.7608L256.4 44.3642L273.3 25.695Z" stroke="#FF9103" stroke-width="2" stroke-linecap="round" stroke-linejoin="round"/>
<path d="M252 18.6541C235.1 18.6541 222.6 33.2694 222.6 51.4051C222.6 69.4341 236.3 84.1561 253.3 84.1561C265.2 84.1561 276.2 76.5818 280.3 66.9805L252.7 51.4051V18.6541C252.5 18.6541 252.267 18.6541 252 18.6541Z" stroke="#FF9103" stroke-width="2" stroke-linecap="round" stroke-linejoin="round"/>
<path d="M267.9 37.4299L263.4 52.5786L266 54.0721L272.3 32.6293L267.9 37.4299Z" stroke="#FF9103" stroke-width="2" stroke-linecap="round" stroke-linejoin="round"/>
<path d="M262.1 43.7241L260.1 50.6583L262.7 52.1519L266.6 38.9235L262.1 43.7241Z" stroke="#FF9103" stroke-width="2" stroke-linecap="round" stroke-linejoin="round"/>
<path d="M280.3 34.6562L273.4 58.3394L276 59.7262L282.2 38.6034C281.667 37.2521 281.033 35.9364 280.3 34.6562Z" stroke="#FF9103" stroke-width="2" stroke-linecap="round" stroke-linejoin="round"/>
<path d="M282.7 39.9903L276.7 60.1529L279.3 61.6465L284 45.751C283.733 43.7596 283.3 41.8394 282.7 39.9903Z" stroke="#FF9103" stroke-width="2" stroke-linecap="round" stroke-linejoin="round"/>
<path d="M276 28.5754L273.6 31.2424L266.8 54.4988L269.3 55.9924L277 29.7489C276.667 29.3933 276.333 29.0021 276 28.5754Z" stroke="#FF9103" stroke-width="2" stroke-linecap="round" stroke-linejoin="round"/>
<path d="M277.7 30.6023L270.1 56.4191L272.6 57.8059L279.8 33.6961C279.133 32.5581 278.433 31.5269 277.7 30.6023Z" stroke="#FF9103" stroke-width="2" stroke-linecap="round" stroke-linejoin="round"/>
<path d="M252.537 2C217.991 2 190 24.8802 190 53.2831C190 74.3224 205.395 92.3372 227.419 100.358L211.5 121L242.593 103.909C245.834 104.347 249.149 104.566 252.537 104.566C287.009 104.566 315 81.6861 315 53.2831C315 24.8802 287.009 2 252.537 2Z" stroke="#FF9103" stroke-width="3.5" stroke-linecap="round" stroke-linejoin="round"/>
<path d="M507.2 35.8C503.3 38 500.4 39.4 498.2 39C500.6 38 504.8 35.8 507.1 30.6C507.2 30.2 506 29.6 505.6 29.4C505.2 29.3 504.8 29.4 504.6 29.8C502.9 33.9 500.6 36 498.6 37.1C500.9 32.9 502.3 27.1 502.3 22.7H484.9H466.7C466.7 28.3 469 36.4 472.6 40.2H496.4C497.4 40.5 498.6 40.7 500 40.7C502.3 40.7 505.1 40.1 508.4 38.3C508.8 38.1 508.5 36.4 508.3 36C508.1 35.7 507.6 35.5 507.2 35.8Z" stroke="#FF9103" stroke-width="2" stroke-linecap="round" stroke-linejoin="round"/>
<path fill-rule="evenodd" clip-rule="evenodd" d="M517.6 72.7C517.6 91 502.8 92.6 484.5 92.6C466.2 92.6 451.4 91 451.4 72.7C451.4 58.8 460.1 46.9 472.3 42H496.7C508.9 46.9 517.6 58.8 517.6 72.7ZM490.5 65.5C489.5 64.9 486.1 63.9 483.8 62.4C481.9 61.2 482.1 58.5 484.8 58.3C487.5 58.1 491.5 59.4 491.5 59.4L492.5 55C490.9 54 486.7 53.7 486.7 53.7V50.1H482.6V54.2C477.4 55.3 475.6 58.3 476.1 62.2C476.5 65.7 481.1 67.9 483.7 68.6C486.4 69.4 487.6 70.2 487.2 72.1C486.8 74.1 483 74.2 480.9 73.8C478.8 73.4 476.9 72.4 476.9 72.4L475.4 77.1C478 78.8 482.7 79 482.7 79V82.9H486.8L486.7 78.7C489.8 78.4 493.2 76 493.5 72C493.9 68 491.6 66.1 490.5 65.5Z" stroke="#FF9103" stroke-width="2" stroke-linecap="round" stroke-linejoin="round"/>
<path d="M539.6 94.2C549.5 84.8 555.5 72.9 555.5 59.9C555.5 29.8 523.7 5.39999 484.5 5.39999C445.3 5.39999 413.5 29.8 413.5 59.9C413.5 90 445.3 114.4 484.5 114.4C495.3 114.4 505.4 112.5 514.6 109.2C528.5 115.3 551.4 125 550.2 122.5C549.1 120.2 543.7 105.3 539.6 94.2Z" stroke="#FF9103" stroke-width="3.5" stroke-linecap="round" stroke-linejoin="round"/>
<path d="M757.3 572.8L569.6 550.4C568.8 550.4 568.1 549.7 568.1 548.9L575.6 118C575.6 117.2 576.3 116.6 577.1 116.6L765.5 104.9C766.3 104.9 766.9 105.6 766.9 106.4L758.8 571.3C758.8 572.1 758.1 572.8 757.3 572.8Z" fill="#FF9103"/>
<path d="M757.3 572.8L769.5 573L777.6 105.1L765.5 104.9L757.3 572.8Z" fill="#E07955"/>
<path d="M581 148.7L756 139.6L749.1 540.3L574.5 522.9L581 148.7Z" fill="#FFB75B"/>
<path d="M592.9 215.5L587.9 453.1L731.4 461.5L737.2 209.6L592.9 215.5Z" fill="#F1F2F2"/>
<path d="M592.9 215.5L592.6 232.6L736.8 227.2L737.2 209.6L592.9 215.5Z" fill="#226FE4"/>
<path d="M599.4 226.8C598.2 226.8 597.1 225.8 597.1 224.5C597.1 223.2 598.2 222.2 599.4 222.2C600.7 222.2 601.7 223.2 601.7 224.5C601.7 225.8 600.7 226.8 599.4 226.8Z" fill="#F1F2F2"/>
<path d="M607.2 226.6C606 226.6 604.9 225.6 604.9 224.4C604.9 223.1 606 222.1 607.2 222.1C608.5 222.1 609.5 223.1 609.5 224.4C609.5 225.6 608.5 226.6 607.2 226.6Z" fill="#F1F2F2"/>
<path d="M681 411.1C681 411.1 690.6 391.8 696.8 379.7C692 376.5 686.3 374.7 680.3 374.8C662.7 375.1 648.7 391.6 649 411.7C649.4 431.7 664 447.7 681.6 447.4C699.2 447.1 713.3 430.6 712.9 410.5C712.9 409.567 712.833 408.633 712.7 407.7L681 411.1Z" fill="#D1D3D4"/>
<path d="M718.7 403.4C717.7 391.4 711.5 381.2 702.8 375.4C696.6 387.6 686.9 406.8 686.9 406.8L718.7 403.4Z" fill="#D1D3D4"/>
<path d="M598.4 239.3L728.8 233.7L728.9 238.2L598.5 243.3L598.4 239.3Z" fill="#D1D3D4"/>
<path d="M598.5 246.7L728.9 241L729 245.5L598.6 250.6L598.5 246.7Z" fill="#D1D3D4"/>
<path d="M598.6 254L649.4 251.6L649.5 256.1L598.7 258L598.6 254Z" fill="#D1D3D4"/>
<path d="M670.8 555.9L655.8 554.7C655 554.7 654.3 554 654.3 553.2L654.1 538.3C654.1 537.5 654.7 536.8 655.5 536.8L670.4 537.5C671.3 537.5 671.9 538.1 672 539L672.2 554.4C672.2 555.2 671.6 555.9 670.8 555.9Z" fill="#CC623E"/>
<path d="M54.6 588L240.2 551.9C241.1 551.8 241.7 551.1 241.6 550.3L202.5 121.2C202.4 120.3 201.7 119.7 200.9 119.8L12.2 122C11.4 122 10.8 122.8 10.8 123.6L53 586.7C53.1 587.5 53.8 588.1 54.6 588Z" fill="#FF9103"/>
<path d="M54.6 588L42.5 589.1L0 123.1L12.2 122L54.6 588Z" fill="#E07955"/>
<path d="M199.4 152.2L24.1 155.9L60.5 555L233.4 524.8L199.4 152.2Z" fill="#FFB75B"/>
<path d="M188.1 222.3L213.6 458.6L71.4 479.4L43.9 228.9L188.1 222.3Z" fill="#F1F2F2"/>
<path d="M188.1 222.3L190 239.4L45.9 246.4L43.9 228.9L188.1 222.3Z" fill="#226FE4"/>
<path d="M182.5 234.2C181.2 234.2 180.2 233.1 180.2 231.9C180.2 230.6 181.2 229.6 182.5 229.6C183.7 229.6 184.7 230.6 184.7 231.9C184.7 233.1 183.7 234.2 182.5 234.2Z" fill="#F1F2F2"/>
<path d="M174.7 234.7C173.4 234.7 172.4 233.7 172.4 232.4C172.4 231.2 173.4 230.1 174.7 230.1C175.9 230.1 177 231.2 177 232.4C177 233.7 175.9 234.7 174.7 234.7Z" fill="#F1F2F2"/>
<path d="M184.8 246.5L54.3 252.1L54.7 256.6L185 250.5L184.8 246.5Z" fill="#D1D3D4"/>
<path d="M185.3 253.9L54.9 259.5L55.2 264L185.5 257.9L185.3 253.9Z" fill="#D1D3D4"/>
<path d="M185.8 261.2L135 263.2L135.3 267.7L186.1 265.2L185.8 261.2Z" fill="#D1D3D4"/>
<path d="M79.7 472.7L98.2 470L87.5 390.3L68.9 392.5L79.7 472.7Z" fill="#D1D3D4"/>
<path d="M102.7 469L121.2 466.3L115.9 424.4L97.3 426.6L102.7 469Z" fill="#D1D3D4"/>
<path d="M125.8 465.3L144.3 462.6L136.4 401.6L117.7 403.8L125.8 465.3Z" fill="#D1D3D4"/>
<path d="M135.8 561.9L170 555.9C170.8 555.8 171.4 555 171.4 554.2L170.7 546.5C170.6 545.6 169.9 545 169 545.1L134.8 551C133.9 551.1 133.3 551.8 133.4 552.6L134.1 560.6C134.2 561.4 134.9 562 135.8 561.9Z" fill="#CC623E"/>
<path d="M93.9 139.6L133.4 138.4C134.7 138.4 135.7 137.3 135.7 136C135.6 134.7 134.6 133.7 133.3 133.8L93.7 135C92.5 135 91.5 136.1 91.5 137.4C91.5 138.6 92.6 139.6 93.9 139.6Z" fill="#CC623E"/>
<path d="M494.6 328.4C494.6 328.4 486.4 329.7 483 334.3C483 334.3 484.2 393.2 498.9 397.4C513.7 401.6 514.9 406 532.2 395.5C549.6 385.1 521.8 339.5 514.3 334.7C506.9 329.9 494.6 328.4 494.6 328.4Z" fill="#F1F2F2"/>
<path d="M514.3 334.7C511.1 332.7 507 331.2 503.4 330.2C508.1 339 526.8 375.5 518.1 401.8C521.6 401.2 525.8 399.4 532.2 395.5C549.6 385.1 521.8 339.5 514.3 334.7Z" fill="#D1D3D4"/>
<path d="M501 393.1C500.8 392.9 500.6 392.5 500.6 392.2C500.7 391.8 500.9 391.6 501.1 391.3C503.6 388.5 506.9 384.2 506 380.1C505.1 376.4 501.4 373.4 497.7 372.9C494.1 372.3 490.5 373.7 487.5 375.8C489.9 386.7 493.5 395.8 498.9 397.4C507 399.7 511 402.1 515.9 402C513.4 401.1 511 400.3 508.6 399.2C505.7 397.8 502.8 395.9 501 393.1Z" fill="#D1D3D4"/>
<path d="M653.9 261.3C653.9 261.3 596.2 292.8 573 300.7C573 300.7 560.8 299.7 551.6 308.3C551.6 308.3 495.8 326.3 491.8 328.4C491.8 328.4 488.3 329.7 493.4 329.5C498.5 329.2 516.4 348.4 520.5 372.8C524.6 397.3 526.3 404.4 505.6 399.5C505.6 399.5 511.2 423.9 522 420.4C532.8 417 630.9 385.2 678.6 339C678.6 339 690.8 278.8 653.9 261.3Z" fill="#171E26"/>
<path d="M382.6 346.6C389.1 342.9 395.8 338.8 403.3 338.8C409.7 338.7 415.7 341.6 421.3 344.7C426.2 347.4 431 350.2 435.2 353.8C437.5 355.7 439.6 357.8 441.7 359.9C451.1 369.4 460.5 378.9 468.6 389.4C472.2 394.2 475.7 399.6 475.7 405.6C475.6 411.5 470.4 417.8 464.5 416.6C465.2 420.4 462.1 424 458.5 425.3C454.9 426.6 451 426.1 447.2 425.7C449.8 427.6 450.1 431.7 448.3 434.4C446.6 437.1 443.2 438.5 440 438.5C436.8 438.6 433.6 437.4 430.7 436C432.8 438.1 432.5 441.9 430.5 444.1C428.4 446.3 425.2 447.1 422.2 446.9C419.2 446.7 416.4 445.6 413.6 444.4C388.267 434.333 362.933 424.233 337.6 414.1C335.5 413.3 333.3 412.4 332 410.6C330.6 408.8 330.4 406.4 330.4 404.1C330 389.7 335 375.7 342.3 363.3C344.5 359.6 347 355.8 350.7 353.5C355.8 350.3 359.8 352.6 365.1 352.8C371.3 352.9 377.4 349.5 382.6 346.6Z" fill="#A05E47"/>
<path d="M392.6 371.8C399.8 371.8 407.2 370.9 413.6 367.8C417 366.2 420 364 423 361.9C424.3 360.9 425.6 360 426.5 358.8C427.4 357.5 427.9 355.9 427.5 354.4C427.1 352.9 425.7 351.7 424.2 351.3C422.7 350.8 421.1 350.9 419.6 351.3C415.2 352.3 411.5 355.1 407.8 357.7C405.133 359.7 402.4 361.633 399.6 363.5C397.1 365.2 394.7 366.8 391.9 368C390.7 368.5 388.9 368.6 387.8 369.3C387.1 369.8 386.8 370.8 387.7 371.3C388.9 372 391.2 371.8 392.6 371.8Z" fill="#8C4C3B"/>
<path d="M332 410.6C333.3 412.4 335.5 413.3 337.6 414.1C362.933 424.233 388.267 434.333 413.6 444.4C416.4 445.6 419.2 446.7 422.2 446.9C425.2 447.1 428.4 446.3 430.5 444.1C432.5 441.9 432.8 438.1 430.7 436C433.6 437.4 436.8 438.6 440 438.5C443.2 438.5 446.6 437.1 448.3 434.4C450.1 431.7 449.8 427.6 447.2 425.7C451 426.1 454.9 426.6 458.5 425.3C462.1 424 465.2 420.4 464.5 416.6C470.4 417.8 475.6 411.5 475.7 405.6C475.7 404.467 475.6 403.367 475.4 402.3C475.133 402.567 474.833 402.8 474.5 403C472.7 404.3 470.8 405.3 468.8 406C464.5 407.6 459.7 408.1 455.2 407.1C455.6 411 455.7 415.2 453.9 418.7C452.1 422.3 447.9 424.9 444.1 423.6C445 426.1 442.7 428.5 440.5 429.9C436.2 432.7 431.2 434.3 426.2 435.8C423.8 436.6 420.6 437.2 418.9 435.2C417.5 433.5 418 431 417.9 428.8C417.6 423.2 411.5 418.7 406.1 420.1C404.9 420.3 403.8 420.8 402.7 420.7C399.7 420.5 398.3 417 395.8 415.3C393.8 414 391.2 414 388.7 413.9C367.7 413.3 348.9 402 331.9 389C330.8 393.9 330.2 399 330.4 404.1C330.4 406.4 330.6 408.8 332 410.6Z" fill="#8C4C3B"/>
<path d="M435.3 333.1C431.5 330.9 427.7 328 423.2 327.6C418.4 327.2 414 329.8 409.9 332.5C406 335 402.3 337.7 398.8 340.9C398 341.5 397.3 342.2 396.7 343C395.1 345.2 394.9 348.1 394.1 350.7C392.5 356.1 388.4 360.3 385.2 364.9C384.7 365.7 384.1 366.6 384 367.5C383.7 370.2 387 371.7 389.2 372C392.6 372.7 396.1 371.7 399.4 370.5C407.3 367.5 414.6 362.9 420.7 357C438.1 365 455.7 374.3 468.1 388.8C470.2 391.2 471.2 393 473.2 396.5C479.3 397.3 484.6 391.5 490.3 389.2C493.5 387.9 497.1 387.7 500.6 387.9C501.8 388 503.1 388 504.1 387.4C504.7 387 505.1 386.4 505.5 385.7C507.6 381.9 508.1 377.4 507.9 373C507.6 359.8 502.3 346.8 493.4 337.1C491.9 335.4 489.3 332.7 486.9 332.6C484.8 332.6 483.3 334.3 481.5 335.3C476.8 337.7 471.2 339 466 339.6C455.4 340.7 444.5 338.5 435.3 333.1Z" fill="#EEB399"/>
<path d="M460.8 374.1C454.1 366.6 443.5 363.5 435.9 356.8C433.5 354.7 431.3 352.1 430 349.1C428.3 350.3 425.6 349.7 424.5 348C422.8 348.8 420.6 348.2 419.6 346.7C418.3 355.2 411.6 361.9 404.3 366.3C400.8 368.5 396.9 370.2 392.8 370.7C390.3 371 387.7 370.7 385.4 369.7C385.2 369.6 384.7 369.4 384.3 369.1C385.1 370.8 387.5 371.7 389.2 372C392.6 372.7 396.1 371.7 399.4 370.5C407.3 367.5 414.6 362.9 420.7 357C438.1 365 454.2 375.8 468.1 388.8C468.7 389.4 469.2 390.3 469.8 390.9C468.9 388.5 468 385.7 466.8 383.4C465.1 380.1 463.3 376.9 460.8 374.1Z" fill="#E29E83"/>
<path d="M401.4 456C404.7 456.9 408.3 455.6 411 453.4C413.6 451.2 415.4 448.1 416.9 445.1C417.9 443.2 418.8 441.1 418.4 439C418 436.9 415.6 435.1 413.7 436.1C416.4 433.7 417.1 429.3 415.4 426.1C413.7 422.9 410 421 406.4 421.2C402.8 421.4 399.4 423.7 397.6 426.8C398.9 421.6 394.1 415.9 388.8 416.2C381.9 416.6 378.1 424.6 371.6 426.9C371.4 423.7 368.9 421 366.1 419.5C363.2 418.1 359.9 417.7 356.7 417.3C354.5 417.1 352.1 416.9 350.3 418.2C347.9 419.8 347.6 423.5 349.1 425.9C350.6 428.4 353.6 429.6 356.4 429.9C359.3 430.2 362.2 429.5 365 428.9C367.7 436 374.5 441.3 382 442C382 444 384.2 445.3 386.1 445.8C389.2 446.7 393.5 446 395.5 448.6C397.6 451.4 397.2 454.8 401.4 456Z" fill="#EEB399"/>
<path d="M349.1 425.9C350.6 428.4 353.6 429.6 356.4 429.9C359.3 430.2 362.2 429.5 365 428.9C367.7 436 374.5 441.3 382 442C382 444 384.2 445.3 386.1 445.8C389.2 446.7 393.5 446 395.5 448.6C397.6 451.4 397.2 454.8 401.4 456C404.7 456.9 408.3 455.6 411 453.4C413.6 451.2 415.4 448.1 416.9 445.1C417.167 444.633 417.4 444.167 417.6 443.7C414.3 443.9 411 443.6 409 441.2C407.9 443.6 405.1 444.8 402.5 444.7C399.9 444.5 397.5 443.2 395.4 441.6C393.7 440.4 392 438.6 392.3 436.5C387.9 437.9 383 438.1 378.6 436.7C374.1 435.4 370.1 432.2 368.1 428.1C364 428.8 359.4 429.4 356 427.1C353.7 425.6 352 422.8 351.5 420.1C351.4 419.2 351.5 418.3 351.7 417.5C351.167 417.633 350.7 417.867 350.3 418.2C347.9 419.8 347.6 423.5 349.1 425.9Z" fill="#E29E83"/>
<path d="M464.5 416.6C464.5 416.6 465.1 413.2 461.5 411.1C457.9 409.1 450.8 404.3 449.3 401.8C447.8 399.2 449.2 394.5 449.2 393" stroke="#7F4536" stroke-width="2" stroke-linecap="round" stroke-linejoin="round"/>
<path d="M447.2 425.7C447.2 425.7 442.2 422.1 439.6 418" stroke="#7F4536" stroke-width="2" stroke-linecap="round" stroke-linejoin="round"/>
<path d="M430.7 436C430.7 436 427.2 432.5 425.4 431.8C423.6 431.2 422.3 433.2 422.3 433.2" stroke="#7F4536" stroke-width="2" stroke-linecap="round" stroke-linejoin="round"/>
<path d="M420.6 357C423.4 353.3 424.7 348.7 424.5 344.2" stroke="#CE8F76" stroke-width="2" stroke-linecap="round" stroke-linejoin="round"/>
<path d="M422.6 356.5C423.9 356.2 424.9 355.3 425.9 354.4C427.633 352.667 429.2 350.8 430.6 348.8C431.1 348.2 431.5 347.5 431.6 346.8" stroke="#CE8F76" stroke-width="2" stroke-linecap="round" stroke-linejoin="round"/>
<path d="M419.8 353.9C421 351.1 421.4 347.9 421 344.9" stroke="#CE8F76" stroke-width="2" stroke-linecap="round" stroke-linejoin="round"/>
<path d="M475.3 383.1C475.2 380.4 474 377.6 471.9 375.8C471.3 375.3 470.7 374.8 470.4 374C470.3 373.6 470.4 373.1 470.4 372.6C471.3 364.8 470 356.9 466.7 349.8" stroke="#CE8F76" stroke-width="2" stroke-linecap="round" stroke-linejoin="round"/>
<path d="M413.7 436.1C413.7 436.1 403.2 451.7 394.7 447.8" stroke="#CE8F76" stroke-width="2" stroke-linecap="round" stroke-linejoin="round"/>
<path d="M397.6 426.8C397.6 426.8 391.8 444.2 382 442" stroke="#CE8F76" stroke-width="2" stroke-linecap="round" stroke-linejoin="round"/>
<path d="M371.6 426.9C371.6 426.9 367.7 429.3 364.7 429" stroke="#CE8F76" stroke-width="2" stroke-linecap="round" stroke-linejoin="round"/>
<path d="M363.4 350.4C363.4 350.4 360 407.9 345.9 419.6C345.9 419.6 334.3 424 327.7 422.4C327.7 422.4 324.6 402.5 330 385.4C335.5 368.3 343.4 348 343.4 348C343.4 348 353 343.9 363.4 350.4Z" fill="#F1F2F2"/>
<path d="M311.8 333L337.7 341.7C337.7 341.7 350.2 343.3 347 355.2C343.7 367.2 325.4 429.7 325.4 429.7C325.4 429.7 321.5 433.2 318.8 432.1C318.8 432.1 312.8 445.6 308.2 447.3C303.6 449.1 302.2 451.6 291.9 447.6C281.6 443.7 162.6 399.4 107.6 357.2C107.6 357.2 93.4 294.9 152.5 270.1C152.5 270.1 210.3 290.2 224.3 294.8C238.2 299.5 232.7 307.3 247.6 309.3C262.5 311.2 271.1 315.7 276.7 320C282.4 324.2 311.8 333 311.8 333Z" fill="#171E26"/>
</svg>
