<?xml version="1.0" encoding="utf-8"?>
<!-- Generator: Adobe Illustrator 24.3.0, SVG Export Plug-In . SVG Version: 6.00 Build 0)  -->
<svg version="1.1" id="Layer_1" xmlns="http://www.w3.org/2000/svg" xmlns:xlink="http://www.w3.org/1999/xlink" x="0px" y="0px"
	 viewBox="0 0 100 100" style="enable-background:new 0 0 100 100;" xml:space="preserve">
<style type="text/css">
	.st0{fill:#FFFFFF;}
	.st1{fill:#C6C6C6;}
	.st2{fill:#1D1F1C;}
	.st3{fill:none;}
	.st4{fill:#E5E5E5;}
	.st5{fill:#3C6EBA;}
	.st6{fill:#FF9103;}
	.st7{fill:#818C97;}
	.st8{fill:#F5AB1F;}
</style>
<g>
	<g>
		<path class="st0" d="M23,51.91c-3.09-1.29-5.61-3.9-6.81-7.03c-0.15,0.15-0.29,0.31-0.44,0.46c1.65-2.07,2.77-4.56,3.23-7.16
			c-1.23-0.29-2.06-1.57-2.13-2.83c-0.06-1.27,0.5-2.49,1.25-3.51c1.54-2.08,3.83-3.46,6.07-4.76c0.72-0.42,1.47-0.84,2.3-0.97
			c0.98-0.15,1.98,0.12,2.85,0.58c0.87,0.46,1.63,1.11,2.39,1.74c-0.03-0.34-0.06-0.68-0.09-1.02c1.64,3,1.38,6.68,0.65,10.02
			c-0.4,1.84-0.97,3.71-2.19,5.14s-3.25,2.32-5.03,1.72c0.9,0.65,1.74,1.41,2.29,2.38c0.54,0.96,0.76,2.16,0.37,3.2
			c-0.33,0.87-1.07,1.57-1.96,1.84C24.86,51.98,23.85,51.82,23,51.91z"/>
	</g>
	<g>
		<path class="st0" d="M37.29,68.1c-1.35,1.5-1.83,3.63-1.77,5.65c0.1,3.27,1.54,6.44,3.77,8.84c2.23,2.39,5.22,4.03,8.4,4.83
			c2.46,0.62,5.27,0.68,7.3-0.83c1.99-1.49,2.73-4.13,2.94-6.61c0.34-4.1-0.44-8.2-1.21-12.23c-1.02-5.31-2.04-10.62-3.05-15.92
			c0.11,0.51,0.22,1.01,0.33,1.52c-0.86-0.92-0.7-2.43-0.07-3.52c0.62-1.09,1.61-1.92,2.41-2.89c1.3-1.59,2.08-3.56,2.43-5.58
			c0.48-2.85,0.07-5.94-1.6-8.3c-1.67-2.36-4.72-3.82-7.53-3.16c-2.56,0.59-4.48,2.72-5.81,4.99c-1.18,2.02-2.04,4.29-2.1,6.63
			c-0.08,2.72,0.9,5.35,1.87,7.89c-0.15-0.51-0.3-1.02-0.44-1.53c0.09,2.91,0.19,5.84-0.27,8.71s-1.51,5.72-3.46,7.89
			C38.35,65.63,36.94,66.95,37.29,68.1z"/>
	</g>
	<g>
		<path class="st0" d="M68.74,87.71c-0.7-0.55-1.66-0.75-2.53-0.54c-0.87,0.21-1.62,0.83-2,1.64c0.01-0.21,0.03-0.41,0.04-0.62
			c0.14,1.85,0.07,3.72-0.22,5.56c1.85,0.2,3.73,0.12,5.56-0.22c-0.29-1.04-0.13-2.15-0.14-3.23C69.45,89.22,69.2,88.07,68.74,87.71
			z"/>
	</g>
	<g>
		<path class="st1" d="M31.48,80.8c-1.29,0.01-2.39-1.05-2.83-2.26s-0.36-2.54-0.24-3.82c0.41-4.48,1.22-8.92,2.46-13.25
			c0.62-2.17,1.38-4.35,2.8-6.11c2.05-2.52,5.24-3.85,8.44-4.46c0,0.01,0,0.02-0.05,0.06c-0.16,0.37-0.36,0.72-0.62,1.03
			c0.64-0.99,1.46-1.87,2.41-2.57c0,0,2.83,20.92,2.98,21.15c0.37,0.12,0.74,0.24,1.07,0.43c0.33,0.2,0.63,0.48,0.69,0.85
			c-0.29-0.8-1.16-1.27-2-1.32c-0.84-0.05-1.67,0.24-2.45,0.56c-0.95,0.39-1.87,0.84-2.76,1.35c-0.4,0.23-0.81,0.47-1.11,0.83
			c-0.58,0.7-0.65,1.69-0.58,2.59c0.03,0.44,0.11,0.9,0.4,1.23c0.29,0.33,0.88,0.42,1.24,0.16c0.47-0.41,0.8-0.96,0.94-1.56
			c0.56,0.72,1.39,1.23,2.33,1.3c0.28,0.12,0.62-0.15,0.64-0.46c0.02-0.31-0.19-0.59-0.46-0.75c0.29,0.14,0.56,0.32,0.88,0.55
			c-0.38,3.49-0.77,6.98-1.15,10.47c-0.12,1.11-0.29,2.32-1.1,3.1c-0.92,0.89-2.36,0.91-3.64,0.79c-2.27-0.21-4.52-0.67-6.7-1.36
			c-0.22-0.07-0.45-0.15-0.57-0.34c-0.14-0.22-0.1-0.5-0.05-0.76c0.47-2.4,1.21-4.76,2.18-7.01c-1.41,0.14-2.85-0.07-4.15-0.62
			C30.82,80.66,31.17,80.68,31.48,80.8z"/>
	</g>
	<g>
		<path class="st1" d="M53.5,65.31c3.57,0.15,7.15,0.11,10.71-0.12c0.04-2.07,0.07-4.17-0.4-6.19c-0.47-2.02-1.5-3.99-3.21-5.17
			c-2.36-1.63-5.64-1.54-7.9-3.31C53,55.28,53.29,60.04,53.5,65.31z"/>
	</g>
	<g>
		<path class="st1" d="M53.12,80.4c0.19,2.77,0.39,5.54,0.58,8.3c0.04,0.53,0.09,1.1,0.44,1.5c0.4,0.45,1.05,0.55,1.65,0.59
			c1.11,0.07,2.22,0.04,3.33-0.09c0.91-0.11,1.93-0.38,2.34-1.2c0.25-0.5,0.2-1.1,0.14-1.66c-0.26-2.53-0.52-5.06-0.78-7.59
			C58.32,80.35,55.82,80.4,53.12,80.4z"/>
	</g>
	<g>
		<path class="st2" d="M21.53,41.85c0.62,1.04,1.29,2.13,2.34,2.73c0.64,0.36,1.39,0.52,2.12,0.44c0.02-0.21,0.04-0.42,0.06-0.63
			C24.37,44.03,22.8,43.13,21.53,41.85z"/>
	</g>
	<path class="st2" d="M34.86,26.21c-0.16-0.27-0.36-0.52-0.63-0.68c-0.16-0.09-0.34-0.15-0.52-0.16c-0.25-0.19-0.54-0.34-0.85-0.42
		c0.28-0.18,0.21-0.65-0.04-0.87c-0.26-0.22-0.61-0.25-0.95-0.28c-2.25-0.19-4.5-0.38-6.75-0.57c-0.84-0.07-1.68-0.14-2.52-0.04
		c-0.83,0.1-1.67,0.39-2.29,0.96c0,0-0.08,0.01-0.27,0.12c-0.76,0.56-1.35,1.36-1.63,2.01c-1.02,0.58-1.52,1.82-1.52,3
		c0,1.17,0.41,2.31,0.78,3.33c0.6-0.57,1.64-0.45,2.24,0.11c0.6,0.56,0.8,1.45,0.72,2.27c1.76-1.52,2.98-3.66,3.4-5.95
		c1.76,1.13,3.99,1.5,6.01,1c0.57-0.14,1.17-0.34,1.72-0.12c0.74,0.3,0.97,1.22,1.11,2c0.19-0.17,0.38-0.35,0.56-0.55
		c0.78-0.56,1.4-1.34,1.69-2.25C35.44,28.17,35.37,27.08,34.86,26.21z"/>
	<path class="st2" d="M61.66,42.27c-0.02-0.02-0.03-0.03-0.05-0.05c-0.89-1.99-1.65-4.05-1.9-6.21c-0.18-1.57-0.11-3.22-0.8-4.64
		c-0.91-1.88-2.96-2.92-4.97-3.49c-1.83-0.52-3.77-0.74-5.64-0.43c-1.88,0.31-3.69,1.2-4.93,2.64c-1.24,1.44-1.86,3.46-1.58,5.38
		c-0.02,0.17-0.04,0.33-0.06,0.49c-0.02-0.03-0.04-0.06-0.06-0.09c-0.29,1.59-1.39,2.9-2.46,4.11c-1.07,1.21-2.19,2.5-2.53,4.08
		c-0.35,1.64,0.25,3.43,1.47,4.58c1.21,1.15,2.99,1.66,4.64,1.41c0.22-0.23,0.68-0.5,1.14-0.76c0.15-0.2,0.27-0.41,0.38-0.63
		c0.32-0.67,0.46-1.42,0.54-2.15c0.16-1.34,0.19-2.7,0.08-4.05c-0.25,0.33-0.75,0.38-1.13,0.22c-0.38-0.16-0.67-0.48-0.93-0.8
		c-0.4-0.5-0.76-1.08-0.77-1.72c-0.01-0.46,0.16-0.91,0.25-1.37c0.28-0.34,0.65-0.64,1.09-0.69c0.4-0.04,0.8,0.14,1.1,0.41
		c0.3,0.26,0.53,0.61,0.75,0.94c0.7-1.06,1.37-2.14,1.88-3.31c0.51-1.16,0.85-2.42,0.95-3.62c2.54,2.3,5.93,3.64,9.35,3.71
		c0.42,3.87-0.52,7.86-2.59,11.15c-0.26,0.31-0.55,0.59-0.86,0.85c-0.94,0.78-2.15,1.29-3.36,1.19c-1.54-0.13-2.82-1.19-3.99-2.21
		c0.53,1.12,1.34,2.14,2.41,2.76c1.04,0.6,2.34,0.78,3.45,0.36c0.25,0.26,0.55,0.48,0.86,0.65c-0.11-0.08-0.22-0.15-0.33-0.23
		c1.77,0.36,3.63,0.43,5.36-0.11c1.72-0.53,3.3-1.72,4.03-3.37S62.94,43.54,61.66,42.27z"/>
	<g>
		<path class="st2" d="M57.47,46.5c-1.27,1.56-2.86,2.86-4.64,3.79c-0.05,0.03-0.11,0.06-0.14,0.11c-0.08,0.16,0.14,0.29,0.32,0.32
			c0.9,0.16,1.84,0.18,2.71-0.09s1.66-0.87,2.04-1.7C58.14,48.1,58.03,47.03,57.47,46.5z"/>
	</g>
	<g>
		<path class="st3" d="M85.6,37.38c0-0.01-0.01-0.01-0.01-0.02C85.6,37.37,85.6,37.38,85.6,37.38z"/>
		<path class="st0" d="M67.17,79.54c0.1-0.1,0.19-0.21,0.21-0.34c0.03-0.13-0.03-0.29-0.16-0.34c0.28,0.08,0.56,0.17,0.84,0.25
			c1.13,0.05,2.35,0.09,3.57,0.13c0.69,0.02,1.4,0.04,2.02-0.25c0.47-0.22,0.86-0.67,0.94-1.16c-0.01-0.16-0.02-0.33-0.03-0.49
			c0.05,0.16,0.05,0.33,0.03,0.49c0.03,0.6,0.06,1.21,0.09,1.81c0.01-2.27,0.01-4.54,0.02-6.8c-0.14,0.2-0.17,0.46-0.24,0.7
			c-2.01,0.1-4.02-0.88-5.2-2.5c0.02,0.02,0.05,0.04,0.07,0.06c0.5-1.6,1-3.2,1.31-4.84c0.04-0.19,0.07-0.41-0.04-0.58
			c-0.13-0.21-0.41-0.26-0.66-0.28c-0.57-0.06-1.14-0.1-1.72-0.14c-0.19,0.41-0.43,0.8-0.73,1.16c-1.91,2.26-5.71,2.48-7.13,5.07
			c-0.97,1.77-0.38,4.08,0.91,5.64c1.14,1.38,2.73,2.29,4.34,3.09c0.04-0.01,0.09-0.01,0.13-0.02
			C66.27,80.12,66.78,79.91,67.17,79.54z"/>
		<path class="st0" d="M70.83,42.94c-0.01,0.25-0.02,0.51-0.03,0.76c0.01-0.03,0.02-0.07,0.03-0.1
			C70.83,43.38,70.83,43.16,70.83,42.94z"/>
		<path class="st0" d="M76.16,44.45c-0.41,0.25-0.94,0.21-1.4,0.04c-0.45-0.16-0.86-0.43-1.31-0.61c-0.05-0.02-0.11-0.04-0.17-0.06
			c-0.02,0.08-0.05,0.16-0.06,0.24c-0.04,0.33,0.17,0.65,0.44,0.83c0.28,0.18,0.61,0.25,0.94,0.3c0.33,0.05,0.67,0.09,0.98-0.01
			C75.91,45.08,76.18,44.78,76.16,44.45z"/>
		<path class="st0" d="M74.75,70.53c3.09-7.78,6.38-15.48,9.88-23.08c0.24,0.3,0.5,0.58,0.79,0.84c-0.47-0.67-0.98-1.36-1.52-2.11
			c-0.01-1.4-0.2-2.81-0.55-4.17c1.53,0.16,2.65-1.54,2.59-3.08c-0.02-0.48-0.12-0.94-0.27-1.39c0,0.02,0,0.04,0,0.05
			c-0.01-0.07-0.03-0.14-0.06-0.21c0-0.01-0.01-0.01-0.01-0.02c-0.21-0.49-0.79-0.8-1.33-0.77c-0.39,0.03-0.75,0.19-1.05,0.44
			c-0.51,1.45-0.86,2.95-1.04,4.47c-0.16,1.37-0.21,2.81-0.91,4c-0.1,0.16-0.2,0.32-0.33,0.46c-0.07,0.2-0.16,0.4-0.27,0.58
			c-0.42,0.71-1.09,1.24-1.81,1.65c-1.13,0.65-2.42,1.03-3.72,0.94c-0.46-0.03-0.92-0.14-1.36-0.3c-0.06,0.13-0.12,0.27-0.17,0.4
			c0.15-0.07,0.31-0.13,0.46-0.2C73.37,56.21,73.9,62.11,74.75,70.53z"/>
		<path class="st0" d="M70.87,42.13c-0.01,0.16-0.01,0.32-0.02,0.48c0.01-0.15,0.02-0.31,0.03-0.46
			C70.88,42.15,70.87,42.14,70.87,42.13z"/>
		<path class="st0" d="M71.6,41.67c0.24-0.14,0.47-0.31,0.74-0.37c0.75-0.17,1.42,0.53,2.18,0.62c0,0,0.01,0,0.01,0
			c-0.05-0.02-0.11-0.03-0.16-0.05c0.78,0.02,1.57-0.2,2.22-0.63c0.57,0.29,1.16,0.59,1.79,0.71c0.63,0.12,1.34,0.03,1.84-0.38
			c0.38-0.31,0.6-0.76,0.78-1.22c0.1-0.26,0.18-0.52,0.26-0.79c0.1-0.43,0.18-0.86,0.25-1.3c0-0.72,0-1.45,0.01-2.17
			c0-0.16,0-0.32,0.07-0.46c0.03-0.07,0.09-0.14,0.16-0.18c0-0.33,0-0.66-0.02-0.98c-0.03-0.67-0.11-1.38-0.5-1.93
			c-0.58-0.82-1.68-1.06-2.69-1.12c-1.19-0.06-2.39,0.06-3.58,0.06c-0.88,0-1.78-0.07-2.62-0.31c-0.05,0.06-0.1,0.12-0.15,0.18
			c-1.23,1.54-1.63,3.68-1.09,5.57c-0.07,1.57-0.14,3.14-0.21,4.7c0.01-0.01,0.02-0.02,0.03-0.03
			C71.15,41.62,71.37,41.65,71.6,41.67z"/>
		<path class="st4" d="M96.53,57.55c-0.04-0.5-0.33-1.03-0.61-1.71c-0.93-2.2-3.16-3.53-5.32-4.55c-1.81-0.86-3.73-1.66-5.18-3
			c-0.28-0.26-0.54-0.54-0.79-0.84c-3.5,7.6-6.8,15.3-9.88,23.08c-0.85-8.42-1.37-14.32-0.68-21.49c-0.15,0.07-0.31,0.13-0.46,0.2
			c-2.54,1.08-5.11,2.19-6.82,4.25c-1.29,1.56-1.99,3.54-2.29,5.54c-0.3,2-0.24,4.04-0.18,6.06c1.38,0.07,2.67,0.12,3.92,0.2
			c0.58,0.04,1.15,0.08,1.72,0.14c0.25,0.02,0.53,0.07,0.66,0.28c0.1,0.17,0.07,0.38,0.04,0.58c-0.31,1.64-0.81,3.24-1.31,4.84
			c-0.02-0.02-0.05-0.04-0.07-0.06c1.18,1.62,3.19,2.6,5.2,2.5c0.07-0.24,0.1-0.5,0.24-0.7c-0.01,2.27-0.01,4.54-0.02,6.8
			c-0.03-0.6-0.06-1.21-0.09-1.81c-0.08,0.49-0.48,0.94-0.94,1.16c-0.62,0.29-1.34,0.27-2.02,0.25c-1.22-0.04-2.44-0.09-3.57-0.13
			c-0.28-0.08-0.56-0.17-0.84-0.25c0.13,0.05,0.18,0.21,0.16,0.34c-0.03,0.13-0.12,0.24-0.21,0.34c-0.38,0.37-0.9,0.58-1.43,0.68
			c-0.04,0.01-0.09,0.01-0.13,0.02c-0.48,0.07-0.98,0.06-1.47,0.05l-0.42,9c0,0,3.9,0.65,3.93,0.7c-0.15,0.01-0.3,0.02-0.46,0.02
			c0.15,0.32,0.3,0.64,0.45,0.95c1.44,0.56,2.97,0.87,4.51,0.93c0.47,0.02,0.97,0,1.34-0.29c0.42-0.32,0.53-0.89,0.62-1.41
			c0.36-2.07,0.71-4.15,1.07-6.22c0.27,1.99,0.53,3.98,0.8,5.97c0.07,0.56,0.17,1.15,0.55,1.56c0.49,0.53,1.29,0.59,2,0.61
			c4.58,0.12,9.16-0.18,13.69-0.89c0,0-0.44-10.41-0.34-10.55c0.84-0.14,1.58-0.7,2.09-1.39s0.83-1.5,1.11-2.31
			C97.21,70.77,96.98,63.37,96.53,57.55z"/>
		<path class="st5" d="M74.57,77.34c0.01,0.16,0.02,0.33,0.03,0.49C74.63,77.67,74.62,77.51,74.57,77.34z"/>
		<path class="st2" d="M78.86,48.19c0.72-0.41,1.39-0.94,1.81-1.65c0.11-0.18,0.2-0.38,0.27-0.58c0.13-0.14,0.23-0.3,0.33-0.46
			c0.7-1.19,0.74-2.63,0.91-4c0.18-1.52,0.53-3.02,1.04-4.47c0.31-0.24,0.67-0.41,1.05-0.44c0.55-0.04,1.13,0.28,1.33,0.77
			c0,0.01,0.01,0.01,0.01,0.02c0.03,0.07,0.05,0.14,0.06,0.21c0-0.02,0-0.04,0-0.05c-0.06-1.02,0.19-2.03,0.4-3.02
			c0.22-1.02,0.39-2.07,0.16-3.09c-0.23-1.01-0.97-1.97-1.99-2.17c-0.19-1.46-1.5-2.57-2.91-2.98s-2.92-0.26-4.38-0.1
			c-1.8,0.19-3.6,0.38-5.41,0.57c-0.55,0.06-1.12,0.12-1.59,0.42c-0.46,0.3-0.78,0.91-0.68,1.03c0.21,1.18,1.13,2.14,2.2,2.66
			c0.28,0.14,0.58,0.24,0.88,0.33c0.84,0.24,1.74,0.31,2.62,0.31c1.2,0,2.39-0.12,3.58-0.06c1,0.05,2.1,0.3,2.69,1.12
			c0.39,0.55,0.47,1.26,0.5,1.93c0.01,0.33,0.02,0.66,0.02,0.98c-0.07,0.04-0.12,0.11-0.16,0.18c-0.07,0.14-0.07,0.3-0.07,0.46
			c0,0.72,0,1.45-0.01,2.17c-0.07,0.43-0.15,0.87-0.25,1.3c-0.08,0.26-0.17,0.53-0.26,0.79c-0.17,0.46-0.4,0.91-0.78,1.22
			c-0.5,0.41-1.2,0.49-1.84,0.38c-0.63-0.12-1.22-0.41-1.79-0.71c-0.65,0.43-1.44,0.65-2.22,0.63c0.05,0.02,0.11,0.03,0.16,0.05
			c0,0-0.01,0-0.01,0c-0.76-0.09-1.43-0.79-2.18-0.62c-0.27,0.06-0.5,0.23-0.74,0.37c-0.23-0.02-0.45-0.05-0.68-0.07
			c-0.01,0.01-0.02,0.02-0.03,0.03c-0.12,0.13-0.12,0.35-0.02,0.5c0,0.01,0.01,0.01,0.01,0.02c-0.01,0.15-0.03,0.31-0.03,0.46
			c-0.01,0.11-0.01,0.22-0.01,0.33c-0.01,0.22-0.01,0.44,0,0.65c0,0.21,0.01,0.42,0.03,0.63c-0.04-0.01-0.07-0.03-0.09-0.06
			c0.16,1.12,0.38,2.28,1.04,3.2c0.49,0.68,1.19,1.17,1.97,1.47c0.44,0.16,0.9,0.27,1.36,0.3C76.43,49.23,77.73,48.84,78.86,48.19z
			 M74.61,45.2c-0.33-0.05-0.66-0.12-0.94-0.3c-0.28-0.18-0.49-0.5-0.44-0.83c0.01-0.08,0.04-0.16,0.06-0.24
			c0.06,0.02,0.11,0.04,0.17,0.06c0.45,0.18,0.85,0.45,1.31,0.61c0.45,0.16,0.98,0.21,1.4-0.04c0.03,0.33-0.25,0.62-0.56,0.73
			C75.28,45.29,74.94,45.25,74.61,45.2z"/>
		<path class="st2" d="M70.77,44.16c-0.01-0.04-0.01-0.08-0.02-0.12C70.72,44.08,70.74,44.13,70.77,44.16z"/>
	</g>
	<g>
		<path class="st3" d="M11.11,81.52c-0.02,0-0.03-0.01-0.05-0.01c0.09,0.43,0.16,0.86,0.23,1.31c0.01,0.01,0.02,0.01,0.04,0.02
			C11.26,82.39,11.19,81.95,11.11,81.52z"/>
		<path class="st3" d="M27.22,82.32c-5.35,0.46-10.77,0.19-16.05-0.8c0,0.01,0,0.02,0,0.03C16.43,82.69,21.88,82.95,27.22,82.32z"/>
		<path class="st0" d="M11.29,82.81c0.12,0.78,0.21,1.58,0.28,2.39c-0.05-0.79-0.13-1.59-0.24-2.37
			C11.31,82.82,11.3,82.82,11.29,82.81z"/>
		<path class="st0" d="M7.5,89.91c1.37-1.29,2.74-2.57,4.1-3.86c0-0.1-0.01-0.21-0.01-0.31c-1.38,1.22-3.33,1.74-5.2,1.39
			c0.04,0.11,0.07,0.22,0.11,0.33c0-0.02,0-0.04,0-0.07C6.84,88.23,7.17,89.07,7.5,89.91z"/>
		<path class="st6" d="M26,44.97c0.13,0.92-0.24,1.89-0.91,2.52c-0.67,0.63-1.61,0.92-2.53,0.9c-0.92-0.02-1.81-0.34-2.6-0.82
			c-1.43-0.87-2.54-2.26-3.06-3.85c-0.1,0.08-0.2,0.15-0.3,0.23c-3.76,0.87-7.6,2.02-10.23,4.76c-2.34,2.43-3.41,5.79-4.15,9.08
			C1.1,62.7,0.56,67.77,1.03,72.79S3,82.76,5.75,86.97c0.21,0.06,0.42,0.11,0.64,0.15c1.88,0.35,3.82-0.17,5.2-1.39
			c-0.01-0.18-0.02-0.36-0.03-0.53c-0.07-0.81-0.16-1.61-0.28-2.39c-0.07-0.44-0.14-0.88-0.23-1.31c0.02,0,0.03,0.01,0.05,0.01
			c-0.01-0.06-0.02-0.13-0.04-0.19c0.04,0.01,0.09,0.03,0.09,0.2c5.28,0.98,10.7,1.25,16.05,0.8c1.26-0.15,2.52-0.34,3.77-0.59
			c0,0.04,0.01,0.08,0.01,0.13c0.03-0.01,0.06-0.02,0.09-0.03c0.04-0.27,0.08-0.54,0.29-0.91c-1.25-0.12-2.25-1.16-2.69-2.33
			c-0.44-1.17-0.41-2.46-0.33-3.71c0.33-5.51,1.43-10.99,3.53-16.09c0.88-2.13,2.03-4.29,4-5.47C34.21,49.23,30.39,45.93,26,44.97z"
			/>
		<path class="st2" d="M27.22,82.32c-5.34,0.62-10.79,0.37-16.05-0.77c0-0.01,0-0.02,0-0.03c-0.01-0.18-0.05-0.19-0.09-0.2
			c0.01,0.06,0.02,0.13,0.04,0.19c0.08,0.44,0.15,0.87,0.22,1.31c0.11,0.79,0.19,1.58,0.24,2.37c0.01,0.18,0.02,0.36,0.03,0.53
			c0,0.1,0.01,0.21,0.01,0.31c-1.37,1.29-2.74,2.57-4.1,3.86c-0.33-0.84-0.66-1.67-1-2.51c0,0.02,0,0.04,0,0.07
			c-0.15,2.2-0.25,4.24-0.35,6.28c8.28,0.34,16.58,0.34,24.86-0.01c0.31-3.95,0.3-7.92-0.01-11.87c0-0.04-0.01-0.08-0.01-0.13
			C29.74,81.98,28.48,82.18,27.22,82.32z"/>
	</g>
	<g>
		<path class="st2" d="M33.36,89.6c2.45,0.64,4.98,1.01,7.51,1.1c0.78,0.03,1.63,0,2.22-0.51c0.51-0.44,0.7-1.14,0.85-1.8
			c0.44-1.94,0.78-3.91,1.01-5.89c2.75,0.23,5.52,0.27,8.28,0.13c0.23,2.14,0.45,4.28,0.68,6.43c0.04,0.42,0.1,0.87,0.4,1.17
			c0.29,0.31,0.75,0.38,1.17,0.42c1.84,0.18,3.72,0.02,5.51-0.44c0.06,1.17,0.12,2.35,0.18,3.52c0,0-28.71-0.09-28.61-0.28
			C32.91,92.14,33.26,90.84,33.36,89.6z"/>
	</g>
	<path class="st2" d="M92.38,91.35c-3.86,0.37-7.73,0.63-11.6,0.9c-0.86-0.03-1.72-0.06-2.58-0.09c-0.2-0.01-0.41-0.01-0.61,0.03
		c-0.39-0.12-0.75-0.33-1.01-0.65c-0.38-0.47-0.48-1.1-0.57-1.7c-0.29-1.98-0.58-3.95-0.87-5.93c-0.37,2.13-0.74,4.25-1.11,6.38
		c-0.1,0.55-0.24,1.17-0.72,1.45c-0.36,0.21-0.81,0.16-1.23,0.1c-1.45-0.2-2.9-0.4-4.35-0.61c-0.04,0.96,0.01,1.79,0.06,2.62
		c8.25,0.09,16.51,0.04,24.76-0.16C92.5,92.9,92.44,92.12,92.38,91.35z"/>
	<g>
		<path class="st2" d="M75.62,25.82c-0.14,0-0.26-0.12-0.26-0.26V13.7c0-0.14,0.12-0.27,0.26-0.27c0.14,0,0.26,0.11,0.26,0.25v11.88
			C75.88,25.71,75.76,25.82,75.62,25.82z"/>
	</g>
	<g>
		<path class="st2" d="M47.68,27.18c-0.14,0-0.26-0.12-0.26-0.26V8.33c0-1.29,1.05-2.33,2.33-2.33h18.54c0.14,0,0.26,0.12,0.26,0.26
			s-0.12,0.26-0.26,0.26H49.75c-1,0-1.82,0.82-1.82,1.82v18.59C47.93,27.06,47.82,27.18,47.68,27.18z"/>
	</g>
	<g>
		<path class="st2" d="M70.39,36.15h-9.99c-0.14,0-0.26-0.12-0.26-0.26s0.12-0.26,0.26-0.26h9.99c0.14,0,0.26,0.12,0.26,0.26
			S70.53,36.15,70.39,36.15z"/>
	</g>
	<g>
		<path class="st2" d="M7.3,87.53c-0.48,0-0.96-0.05-1.44-0.14c-0.05-0.01-0.09-0.04-0.12-0.08c-2.87-4.29-4.6-9.58-5.02-15.31
			c-0.36-5,0.26-10.4,1.86-16.07c0.67-2.37,1.6-5.08,3.41-7.12c2.76-3.11,7.05-4.24,10.84-5.24c0.1-0.03,0.2,0.03,0.23,0.13
			c0.76,2.41,3.05,4.25,5.57,4.47c0.87,0.08,1.56-0.07,2.05-0.44c0.77-0.58,0.98-1.65,1.15-2.52L25.87,45
			c0.02-0.1,0.12-0.17,0.22-0.15c4.39,0.77,8.31,4.13,9.75,8.35c0.03,0.1-0.02,0.21-0.12,0.25c-0.1,0.03-0.21-0.02-0.25-0.12
			c-1.38-4.03-5.09-7.25-9.27-8.06l-0.01,0.03c-0.18,0.93-0.41,2.08-1.3,2.75c-0.56,0.43-1.35,0.6-2.32,0.51
			c-2.61-0.23-4.98-2.09-5.84-4.56c-3.69,0.97-7.83,2.1-10.47,5.07c-1.76,1.98-2.67,4.63-3.32,6.96
			c-1.58,5.63-2.21,10.99-1.85,15.94C1.51,77.6,3.21,82.8,6.02,87.03c1.94,0.36,3.9-0.11,5.39-1.3c-0.52-4.42-1.27-8.77-1.87-12.08
			c-0.32-1.74-0.3-3.5,0.05-5.23l2.5-12.48c0.02-0.1,0.12-0.17,0.23-0.15c0.1,0.02,0.17,0.12,0.15,0.23l-2.5,12.48
			c-0.34,1.69-0.35,3.4-0.05,5.09c0.61,3.34,1.37,7.74,1.89,12.21c0.01,0.06-0.02,0.13-0.07,0.17C10.49,86.99,8.92,87.53,7.3,87.53z
			"/>
	</g>
	<g>
		<path class="st2" d="M46.8,70.69c-0.03,0-0.05-0.01-0.08-0.02c-0.32-0.14-0.69-0.16-1.03-0.06c-0.18,0.05-0.18,0.05-1.01-1.74
			c-0.46-0.99-1.06-2.3-1.66-3.62c-1.2-2.63-2.39-5.27-2.39-5.27c-0.03-0.06-0.02-0.14,0.02-0.19l1.41-1.98l-1.68-0.16
			c-0.05-0.01-0.1-0.03-0.13-0.07c-0.03-0.04-0.05-0.09-0.04-0.14c-0.49-3.11,0.95-6.49,3.51-8.24c0.06-0.04,0.13-0.04,0.19-0.02
			c0.06,0.03,0.1,0.08,0.11,0.15l2.96,21.14c0.01,0.07-0.02,0.14-0.07,0.18C46.88,70.68,46.84,70.69,46.8,70.69z M46.12,70.17
			c0.15,0,0.3,0.02,0.44,0.05L43.69,49.7c-2.25,1.69-3.51,4.75-3.1,7.59l1.85,0.18c0.07,0.01,0.13,0.05,0.16,0.11
			s0.02,0.14-0.02,0.19l-1.54,2.16c1.73,3.82,4.26,9.39,4.7,10.27C45.86,70.18,45.99,70.17,46.12,70.17z"/>
	</g>
	<g>
		<path class="st2" d="M34.23,81.47c-0.5,0-0.99-0.02-1.48-0.07c-1.6-0.16-2.69-0.58-3.43-1.34c-1.23-1.26-1.27-3.2-1.14-4.93
			c0.25-3.39,0.82-7,1.8-11.37c0.55-2.46,1.21-5.05,2.62-7.27c2.07-3.25,5.74-5.42,9.57-5.69c0.1-0.01,0.2,0.07,0.21,0.18
			c0.01,0.11-0.07,0.2-0.18,0.21c-3.72,0.25-7.27,2.36-9.27,5.51c-1.38,2.16-2.03,4.72-2.57,7.14c-0.98,4.35-1.55,7.95-1.8,11.32
			c-0.12,1.65-0.09,3.48,1.03,4.63c0.68,0.69,1.69,1.08,3.2,1.23c2.18,0.21,4.43-0.06,6.49-0.81c0.61-0.22,1.29-0.51,1.75-1.03
			c0.34-0.38,0.57-0.96,0.43-1.51c-0.22,0.19-0.56,0.27-0.87,0.18c-0.36-0.1-0.68-0.4-0.86-0.81c-0.15-0.35-0.19-0.74-0.23-1.08
			c-0.05-0.46-0.1-0.93-0.06-1.41c0.04-0.46,0.17-0.85,0.39-1.19c-2.47-0.62-5.1-0.41-7.44,0.59c-0.1,0.04-0.21,0-0.25-0.1
			s0-0.21,0.1-0.25c2.51-1.08,5.34-1.27,7.97-0.54c0.06,0.02,0.11,0.07,0.13,0.13c0.02,0.06,0.01,0.13-0.04,0.18
			c-0.28,0.33-0.43,0.73-0.48,1.22c-0.04,0.44,0.01,0.89,0.06,1.33c0.04,0.33,0.07,0.67,0.2,0.97c0.13,0.3,0.36,0.52,0.6,0.59
			c0.26,0.07,0.56-0.06,0.64-0.27c0.03-0.07,0.09-0.12,0.17-0.13c0.08-0.01,0.15,0.03,0.18,0.1c0.43,0.8,0.12,1.71-0.37,2.26
			c-0.52,0.58-1.26,0.9-1.91,1.14C37.76,81.17,35.99,81.47,34.23,81.47z"/>
	</g>
	<g>
		<path class="st2" d="M36.98,72.95c-0.11,0-0.19-0.08-0.19-0.19c-0.06-3.63,0.31-7.26,1.12-10.79c0.02-0.1,0.13-0.17,0.23-0.15
			c0.1,0.02,0.17,0.13,0.15,0.23c-0.8,3.51-1.17,7.11-1.11,10.7C37.18,72.86,37.09,72.94,36.98,72.95
			C36.98,72.95,36.98,72.95,36.98,72.95z"/>
	</g>
	<g>
		<path class="st2" d="M49.28,57.07c-1.66,0-3.32-0.51-4.67-1.49c-0.09-0.06-0.1-0.18-0.04-0.27c0.06-0.09,0.18-0.11,0.27-0.04
			c2.26,1.65,5.44,1.89,7.91,0.58c0.1-0.05,0.21-0.01,0.26,0.08c0.05,0.09,0.01,0.21-0.08,0.26C51.8,56.78,50.54,57.07,49.28,57.07z
			"/>
	</g>
	<g>
		<path class="st2" d="M53.33,65.36l0.19-0.01L53.33,65.36c-0.3-4.89-0.61-9.95-0.77-14.75c0-0.07,0.04-0.14,0.1-0.18
			c0.07-0.03,0.14-0.03,0.2,0.01c1.14,0.82,2.55,1.23,3.9,1.62c1.38,0.4,2.81,0.82,4.01,1.67c1.54,1.1,2.69,2.95,3.24,5.23
			c0.48,2.03,0.47,4.13,0.46,6.16c0,0.11-0.09,0.19-0.19,0.19c0,0,0,0,0,0c-0.11,0-0.19-0.09-0.19-0.19
			c0.01-2.01,0.02-4.09-0.45-6.07c-0.52-2.18-1.62-3.96-3.08-5c-1.14-0.81-2.54-1.22-3.89-1.61c-1.27-0.37-2.57-0.75-3.7-1.46
			c0.16,4.68,0.47,9.6,0.76,14.36L53.33,65.36z"/>
	</g>
	<g>
		<path class="st2" d="M56.24,65.44C56.24,65.44,56.24,65.44,56.24,65.44c-0.11,0-0.2-0.09-0.19-0.2l0.21-5.81l-1.34-1.28
			c-0.04-0.04-0.06-0.09-0.06-0.14c0-0.05,0.02-0.1,0.06-0.14l1.71-1.59c-0.59-1.34-1.19-2.67-1.78-3.99l-0.2-0.45
			c-0.04-0.1,0-0.21,0.1-0.26c0.1-0.04,0.21,0,0.26,0.1l0.2,0.45c0.61,1.37,1.22,2.73,1.83,4.12c0.03,0.08,0.02,0.16-0.04,0.22
			l-1.66,1.55l1.25,1.2c0.04,0.04,0.06,0.09,0.06,0.15l-0.21,5.9C56.43,65.36,56.35,65.44,56.24,65.44z"/>
	</g>
	<g>
		<path class="st2" d="M61.05,65.35c-0.11,0-0.19-0.09-0.19-0.19c-0.01-1.95-0.13-3.92-0.36-5.85c-0.01-0.11,0.06-0.2,0.17-0.21
			c0.1-0.01,0.2,0.06,0.21,0.17c0.23,1.95,0.35,3.94,0.37,5.9C61.24,65.26,61.15,65.35,61.05,65.35
			C61.05,65.35,61.05,65.35,61.05,65.35z"/>
	</g>
	<g>
		<path class="st7" d="M69,72.03c-0.1-0.03-0.16-0.14-0.13-0.24l1.57-5.34c0.05-0.16,0.06-0.31,0.04-0.45
			c-0.08-0.47-0.44-0.56-1.04-0.56c-0.01,0-0.01,0-0.02,0c-5.7,0.02-11.6,0.04-17.26,0.13c-0.72,0.01-1.34,0.49-1.54,1.18
			l-3.6,12.35c-0.04,0.15-0.06,0.29-0.03,0.41c0.07,0.35,0.34,0.42,0.82,0.45c6.49,0.3,12.63,0.3,18.27,0
			c0.5-0.03,0.92-0.37,1.04-0.86l0.01-0.02c-0.7-0.25-1.56-0.47-2.42-0.68c-0.27-0.07-0.55-0.14-0.78-0.3
			c-0.23-0.16-0.41-0.42-0.39-0.7c0.02-0.28,0.31-0.53,0.58-0.46c-0.37-0.1-0.75-0.21-1.12-0.31c-0.26-0.14-0.49-0.28-0.63-0.49
			s-0.18-0.52-0.01-0.72c0.16-0.19,0.43-0.22,0.67-0.23c0.78-0.03,1.56,0.04,2.32,0.22c-0.72-0.18-1.45-0.37-2.17-0.55
			c-0.21-0.05-0.43-0.11-0.61-0.24c-0.18-0.13-0.32-0.34-0.3-0.56c0.02-0.22,0.21-0.4,0.42-0.49c0.21-0.08,0.44-0.08,0.67-0.08
			c1.18,0.03,2.36,0.2,3.51,0.51c-0.98-0.31-1.95-0.63-2.93-0.94c-0.29-0.09-0.62-0.24-0.66-0.54c-0.05-0.38,0.41-0.61,0.8-0.66
			c0.86-0.1,1.72,0.11,2.57,0.25c0.83,0.14,1.7,0.21,2.48-0.09C69.06,72.04,69.03,72.04,69,72.03z"/>
		<path class="st2" d="M70.86,65.93c-0.15-0.88-1.02-0.88-1.44-0.88c-5.7,0.02-11.6,0.04-17.26,0.13c-0.89,0.01-1.66,0.6-1.91,1.46
			l-3.6,12.35c-0.06,0.21-0.08,0.41-0.04,0.59c0.13,0.71,0.84,0.74,1.18,0.76c3.26,0.15,6.43,0.22,9.5,0.22
			c3.05,0,5.99-0.07,8.81-0.22c0.67-0.04,1.23-0.5,1.39-1.13l0.07-0.17c0.04-0.1-0.01-0.21-0.11-0.25c-0.1-0.04-0.21,0.01-0.25,0.11
			l-0.07,0.18l-0.01,0.02c-0.12,0.49-0.54,0.83-1.04,0.86c-5.64,0.3-11.78,0.29-18.27,0c-0.48-0.02-0.75-0.1-0.82-0.45
			c-0.02-0.12-0.01-0.26,0.03-0.41l3.6-12.35c0.2-0.69,0.82-1.17,1.54-1.18c5.66-0.09,11.56-0.11,17.26-0.13c0.01,0,0.01,0,0.02,0
			c0.6,0,0.96,0.09,1.04,0.56c0.02,0.14,0.01,0.29-0.04,0.45l-1.57,5.34C68.84,71.89,68.9,72,69,72.03c0.03,0.01,0.06,0.01,0.08,0
			c0.07-0.01,0.13-0.06,0.16-0.14l1.57-5.34C70.88,66.34,70.9,66.13,70.86,65.93z"/>
	</g>
	<g>
		<path class="st2" d="M68.34,77.91c-0.01,0-0.02,0-0.02,0c-1.77-0.22-3.54-0.58-5.25-1.06c-0.23-0.07-0.94-0.26-1.01-0.85
			c-0.05-0.42,0.29-0.77,0.64-0.89c0.14-0.05,0.28-0.07,0.42-0.07c-0.04-0.01-0.09-0.02-0.13-0.04c-0.57-0.16-0.88-0.43-0.9-0.79
			c-0.02-0.33,0.21-0.6,0.46-0.72c0.24-0.12,0.51-0.13,0.75-0.14c0.28,0,0.55,0.01,0.82,0.02c-0.11-0.04-0.22-0.08-0.34-0.11
			c-0.19-0.06-0.68-0.24-0.74-0.67c-0.04-0.25,0.1-0.53,0.34-0.69c0.21-0.13,0.45-0.17,0.65-0.19c0.71-0.06,1.42,0.06,2.1,0.18
			c0.72,0.12,1.4,0.24,2.09,0.16c0.3-0.03,0.52-0.1,0.69-0.21c0.2-0.13,0.33-0.32,0.35-0.51c0.01-0.11,0.1-0.19,0.21-0.17
			c0.11,0.01,0.18,0.1,0.17,0.21c-0.03,0.31-0.23,0.61-0.53,0.8c-0.22,0.14-0.5,0.23-0.86,0.27c-0.74,0.08-1.48-0.04-2.2-0.17
			c-0.66-0.11-1.34-0.23-2-0.17c-0.16,0.01-0.34,0.04-0.48,0.13c-0.12,0.08-0.19,0.2-0.17,0.3c0.02,0.14,0.18,0.25,0.49,0.36
			c1.35,0.47,2.75,0.84,3.95,1.15c0.1,0.03,0.17,0.13,0.14,0.23c-0.03,0.1-0.13,0.17-0.23,0.14c-1.45-0.34-2.96-0.7-4.47-0.68
			c-0.2,0-0.41,0.01-0.58,0.1c-0.13,0.06-0.26,0.2-0.24,0.35c0.02,0.23,0.35,0.37,0.62,0.45c1.62,0.45,3.28,0.8,4.94,1.02l0.19,0.03
			c0.11,0.01,0.18,0.11,0.17,0.22c-0.01,0.11-0.11,0.18-0.22,0.17c-0.06-0.01-0.13-0.02-0.19-0.03l-4.32-0.57
			c-0.27-0.04-0.57-0.08-0.83,0.01c-0.21,0.07-0.41,0.27-0.38,0.48c0.03,0.22,0.27,0.39,0.73,0.52c1.7,0.48,3.45,0.83,5.2,1.04
			c0.11,0.01,0.18,0.11,0.17,0.22C68.52,77.84,68.44,77.91,68.34,77.91z"/>
	</g>
	<g>
		<path class="st2" d="M71.13,79.47c-2.47,0-4.78-0.35-6.88-1.06c-0.23-0.08-0.46-0.16-0.65-0.32c-0.24-0.2-0.37-0.48-0.34-0.75
			c0.03-0.2,0.21-0.36,0.32-0.43c0.08-0.05,0.35-0.23,0.6-0.17c0.1,0.02,0.17,0.13,0.14,0.23c-0.02,0.1-0.13,0.17-0.23,0.14
			c-0.03-0.01-0.14,0.02-0.27,0.1c-0.12,0.08-0.17,0.15-0.17,0.17c-0.02,0.13,0.06,0.29,0.2,0.4c0.14,0.12,0.32,0.18,0.53,0.25
			c2.46,0.82,5.21,1.16,8.17,1c0.63-0.03,1.26-0.12,1.59-0.55c0.27-0.35,0.3-0.83,0.3-1.37l0-3.4c-1.29,0.2-2.65-0.17-3.66-1
			c-0.2-0.17-0.41-0.37-0.61-0.57c-0.29-0.29-0.59-0.58-0.89-0.78c-0.09-0.06-0.11-0.18-0.05-0.27c0.06-0.09,0.18-0.11,0.27-0.05
			c0.33,0.22,0.64,0.53,0.94,0.82c0.2,0.2,0.39,0.39,0.58,0.54c0.97,0.8,2.34,1.14,3.56,0.88c0.06-0.01,0.12,0,0.16,0.04
			c0.05,0.04,0.07,0.09,0.07,0.15l0,3.63c0,0.48,0,1.13-0.38,1.61c-0.44,0.55-1.19,0.66-1.88,0.7
			C72.08,79.45,71.6,79.47,71.13,79.47z"/>
	</g>
	<g>
		<path class="st2" d="M74.61,81.6c-0.05,0-0.1-0.02-0.14-0.06c-0.04-0.04-0.06-0.09-0.06-0.14c0-0.6,0.01-1.2,0.01-1.79
			c0.02-2.33,0.03-4.53-0.05-6.82c0-0.11,0.08-0.2,0.18-0.2l10.26-0.52c0.87-0.04,1.76-0.09,2.64,0.07c1,0.19,1.83,0.64,2.35,1.29
			c0.07,0.08,0.05,0.2-0.03,0.27c-0.08,0.07-0.2,0.05-0.27-0.03c-0.46-0.57-1.22-0.98-2.12-1.15c-0.83-0.16-1.71-0.11-2.55-0.07
			l-10.07,0.51c0.08,2.23,0.06,4.37,0.05,6.65c0,0.53-0.01,1.06-0.01,1.6l12.41-0.01c2.13,0,4.16-0.1,5.64-1.24
			c1.55-1.19,2.14-3.23,2.56-5.27c0.91-4.48,1.33-9.08,1.26-13.65c-0.03-1.87-0.16-4.01-1.24-5.73c-1.24-1.99-3.5-3.04-5.68-4.06
			l-0.31-0.14c-1-0.47-2-0.98-2.89-1.59l-0.73,6.36c-0.01,0.09-0.08,0.16-0.16,0.17l-2.45,0.39l1.05,2.5
			c0.02,0.06,0.02,0.12-0.01,0.18c-2.61,4.28-5.75,8.22-9.34,11.71c-0.07,0.06-0.17,0.07-0.24,0.02c-0.08-0.05-0.11-0.15-0.07-0.23
			c2.45-6.43,5.16-12.85,8.06-19.12c-0.73,0.93-1.95,2.11-3.67,2.55c-0.09,0.02-0.19-0.03-0.23-0.11c-0.48-1.19-0.91-2.45-1.33-3.67
			c-0.02-0.05-0.01-0.11,0.02-0.16c0.03-0.05,0.08-0.08,0.13-0.09c2.48-0.45,4.73-1.89,6.18-3.95c0.04-0.06,0.11-0.09,0.18-0.08
			c0.07,0.01,0.13,0.05,0.16,0.12c0.46,1.15,1.29,2.06,2.3,2.82c0.01,0,0.02,0,0.03,0c0.08,0.01,0.15,0.07,0.17,0.14
			c0.91,0.65,1.96,1.19,3.01,1.69l0.31,0.14c2.23,1.04,4.54,2.12,5.85,4.21c1.13,1.8,1.26,4.01,1.3,5.93
			c0.08,4.6-0.35,9.22-1.26,13.74c-0.43,2.11-1.05,4.23-2.7,5.5c-1.71,1.31-4.12,1.31-5.88,1.32L74.61,81.6L74.61,81.6z
			 M84.76,47.93c-3.44,7.17-6.63,14.57-9.48,21.99c3.28-3.29,6.17-6.96,8.6-10.93l-1.11-2.64c-0.02-0.05-0.02-0.12,0.01-0.17
			c0.03-0.05,0.08-0.09,0.14-0.1l2.55-0.4l0.74-6.43C85.66,48.87,85.17,48.43,84.76,47.93z M77.87,50.36
			c0.37,1.09,0.76,2.21,1.19,3.28c1.53-0.44,2.64-1.53,3.31-2.38c0.74-0.95,1.3-2.03,1.83-3.07c0.1-0.2,0.2-0.39,0.3-0.58
			c-0.24-0.32-0.44-0.66-0.62-1.03C82.41,48.5,80.24,49.86,77.87,50.36z"/>
	</g>
	<g>
		<path class="st2" d="M88.64,61.37c-0.01,0-0.02,0-0.04,0c-0.1-0.02-0.17-0.12-0.15-0.23c0.41-2.15,1.42-4.14,2.9-5.76
			c0.07-0.08,0.19-0.08,0.27-0.01s0.08,0.19,0.01,0.27c-1.41,1.54-2.41,3.52-2.8,5.57C88.81,61.31,88.73,61.37,88.64,61.37z"/>
	</g>
	<g>
		<path class="st2" d="M87.22,72.44c-0.1,0-0.19-0.08-0.19-0.19c-0.06-3.21,0.31-6.41,1.1-9.53c0.03-0.1,0.13-0.17,0.24-0.14
			c0.1,0.03,0.17,0.13,0.14,0.24c-0.79,3.08-1.15,6.25-1.09,9.42C87.42,72.35,87.33,72.44,87.22,72.44
			C87.23,72.44,87.22,72.44,87.22,72.44z"/>
	</g>
	<g>
		<path class="st2" d="M66.34,65.44C66.34,65.44,66.34,65.44,66.34,65.44c-0.11,0-0.2-0.09-0.19-0.2l0.21-6.66
			c0-0.1,0.09-0.19,0.19-0.19c0,0,0,0,0.01,0c0.11,0,0.19,0.09,0.19,0.2l-0.21,6.66C66.53,65.36,66.44,65.44,66.34,65.44z"/>
	</g>
	<g>
		<path class="st2" d="M74.83,70.92c-0.07,0-0.13-0.03-0.16-0.09c-3-4.82-3.94-10.56-4.41-15.02c-0.01-0.08,0.04-0.16,0.11-0.2
			c0.39-0.18,0.78-0.37,1.17-0.54l-1.24-1.26c-0.05-0.05-0.07-0.13-0.05-0.2c0.49-1.46,1.34-2.8,2.45-3.86
			c-2.21,0.96-4.51,2.13-6.02,4.08c-1.08,1.39-1.77,3.18-2.06,5.34c-0.25,1.87-0.19,3.75-0.08,5.85c0.01,0.11-0.08,0.2-0.18,0.2
			c-0.11,0.01-0.2-0.08-0.2-0.18c-0.11-2.11-0.17-4.02,0.09-5.92c0.3-2.22,1.02-4.08,2.14-5.52c1.85-2.39,4.79-3.62,7.38-4.71
			c0.06-0.03,0.13-0.02,0.18,0.02c0.05,0.04,0.09,0.1,0.08,0.17c-0.22,7.2,0.12,14.48,1,21.63c0.01,0.09-0.04,0.18-0.13,0.21
			C74.87,70.92,74.85,70.92,74.83,70.92z M70.65,55.91c0.45,4.16,1.31,9.4,3.88,13.93c-0.79-6.74-1.1-13.59-0.91-20.38
			c-1.35,1.07-2.4,2.54-2.97,4.17l1.36,1.37c0.05,0.05,0.06,0.11,0.05,0.17c-0.01,0.06-0.06,0.12-0.12,0.14
			C71.51,55.51,71.07,55.71,70.65,55.91z"/>
	</g>
	<g>
		<path class="st2" d="M67.69,90.18c-0.01,0-0.02,0-0.03,0l-4.04-0.63c-0.1-0.02-0.17-0.11-0.16-0.21c0.25-3,0.4-6.05,0.45-9.07
			c0-0.11,0.09-0.19,0.19-0.19c0,0,0,0,0,0c0.11,0,0.19,0.09,0.19,0.2c-0.05,2.96-0.2,5.96-0.44,8.91l3.65,0.57l0.26-10.62
			c0-0.11,0.09-0.19,0.19-0.19c0,0,0,0,0,0c0.11,0,0.19,0.09,0.19,0.2l-0.27,10.84c0,0.06-0.03,0.11-0.07,0.14
			C67.78,90.16,67.73,90.18,67.69,90.18z"/>
	</g>
	<g>
		<path class="st2" d="M64.17,93.81C64.16,93.81,64.16,93.81,64.17,93.81c-0.11,0-0.2-0.09-0.19-0.2l0.14-4.13
			c0-0.11,0.09-0.19,0.2-0.19c0.11,0,0.19,0.09,0.19,0.2l-0.14,4.13C64.36,93.72,64.27,93.81,64.17,93.81z"/>
	</g>
	<g>
		<path class="st2" d="M67.8,93.72c-0.01,0-0.03,0-0.04,0c-0.1-0.02-0.18-0.12-0.16-0.23c0-0.01,0.01-0.03,0.01-0.04
			c0.12-1.1-0.02-2.23-0.4-3.26c-0.04-0.1,0.02-0.21,0.12-0.25c0.1-0.04,0.21,0.02,0.25,0.12c0.4,1.11,0.55,2.32,0.41,3.5
			c-0.01,0.05-0.03,0.1-0.08,0.14C67.88,93.7,67.84,93.72,67.8,93.72z"/>
	</g>
	<g>
		<path class="st2" d="M80.51,92.39c-0.72,0-1.43-0.01-2.15-0.05c-0.84-0.04-1.69-0.16-2.17-0.81c-0.32-0.42-0.38-0.97-0.42-1.41
			l-0.57-5.21c-0.21,0.99-0.57,2.87-1.09,5.96c-0.13,0.76-0.79,1.29-1.56,1.23c-1.6-0.12-3.21-0.38-4.76-0.78
			c-0.1-0.03-0.17-0.13-0.14-0.24c0.03-0.1,0.13-0.17,0.24-0.14c1.53,0.4,3.11,0.66,4.69,0.77c0.56,0.04,1.05-0.35,1.15-0.91
			c1.21-7.04,1.33-7.05,1.53-7.07c0.08-0.01,0.18,0.06,0.21,0.14c0.01,0.01,0.01,0.03,0.01,0.04l0.67,6.16
			c0.04,0.41,0.1,0.88,0.35,1.22c0.39,0.52,1.13,0.62,1.88,0.65c4.6,0.2,9.25-0.31,13.75-0.82l-0.49-10.36
			c-0.01-0.11,0.08-0.2,0.18-0.2c0.1,0,0.2,0.08,0.2,0.18l0.49,10.54c0,0.1-0.07,0.19-0.17,0.2C88.48,91.94,84.49,92.39,80.51,92.39
			z"/>
	</g>
	<g>
		<path class="st2" d="M57.01,90.98c-0.64,0-1.28-0.04-1.93-0.13c-0.32-0.04-0.69-0.11-0.96-0.36c-0.33-0.3-0.41-0.76-0.45-1.2
			c-0.31-2.96-0.57-5.97-0.78-8.94c-0.01-0.11,0.07-0.2,0.18-0.21c0.11,0,0.2,0.07,0.21,0.18c0.2,2.97,0.47,5.97,0.78,8.93
			c0.04,0.38,0.1,0.74,0.33,0.95c0.19,0.17,0.47,0.22,0.75,0.26c1.73,0.23,3.46,0.14,5.15-0.26c0.43-0.1,0.9-0.26,1.11-0.62
			c0.16-0.27,0.15-0.62,0.13-1.02c-0.18-3.01-0.44-5.67-0.79-8.15c-0.02-0.11,0.06-0.2,0.16-0.22c0.11-0.02,0.2,0.06,0.22,0.16
			c0.35,2.48,0.61,5.16,0.8,8.18c0.02,0.35,0.05,0.84-0.18,1.24c-0.29,0.48-0.85,0.67-1.36,0.79
			C59.26,90.85,58.14,90.98,57.01,90.98z"/>
	</g>
	<g>
		<path class="st2" d="M41.32,90.91c-0.25,0-0.49-0.02-0.74-0.03c-2.25-0.17-4.5-0.5-6.7-0.98c-0.61-0.13-1.21-0.33-1.48-0.86
			c-0.26-0.49-0.12-1.05,0.04-1.58l1.87-6.05c0.03-0.1,0.14-0.16,0.24-0.13c0.1,0.03,0.16,0.14,0.13,0.24l-1.87,6.05
			c-0.14,0.45-0.26,0.92-0.07,1.28c0.2,0.39,0.71,0.55,1.22,0.66c2.18,0.48,4.42,0.81,6.65,0.98c0.73,0.05,1.49,0.08,2.08-0.27
			c0.8-0.47,1.11-1.49,1.32-2.51c0.72-3.45,1.12-7.74,1.41-11.48c0.01-0.11,0.1-0.19,0.21-0.18c0.11,0.01,0.19,0.1,0.18,0.21
			c-0.3,3.75-0.7,8.05-1.42,11.53c-0.23,1.11-0.57,2.22-1.5,2.77C42.42,90.83,41.87,90.91,41.32,90.91z"/>
	</g>
	<g>
		<path class="st2" d="M39.91,73.41c-0.08,0-0.15-0.05-0.18-0.13c-0.04-0.1,0.02-0.21,0.12-0.25c0.78-0.28,1.52-0.73,2.23-1.16
			c0.22-0.14,0.45-0.27,0.67-0.4c0.91-0.53,2.01-1.08,3.22-1.11c1.29-0.04,2.5,0.64,2.91,1.65c0.04,0.1-0.01,0.21-0.11,0.25
			c-0.1,0.04-0.21-0.01-0.25-0.11c-0.41-1-1.6-1.44-2.54-1.41c-1.12,0.03-2.16,0.55-3.03,1.06c-0.22,0.13-0.45,0.26-0.67,0.4
			c-0.73,0.44-1.48,0.9-2.3,1.19C39.96,73.4,39.94,73.41,39.91,73.41z"/>
	</g>
	<g>
		<path class="st2" d="M40.7,77.7c-0.4,0-0.78-0.19-0.96-0.51c-0.05-0.09-0.02-0.21,0.07-0.26c0.09-0.06,0.21-0.02,0.26,0.07
			c0.14,0.23,0.46,0.36,0.77,0.31c0.28-0.05,0.57-0.23,0.8-0.52c0.22-0.27,0.37-0.61,0.52-0.93c0.05-0.1,0.16-0.14,0.26-0.09
			c0.1,0.04,0.14,0.16,0.09,0.26c-0.16,0.34-0.32,0.7-0.57,1.01c-0.29,0.36-0.66,0.6-1.04,0.66C40.84,77.69,40.77,77.7,40.7,77.7z"
			/>
	</g>
	<g>
		<path class="st2" d="M44.68,77.21c-0.13,0-0.28-0.03-0.45-0.08c-0.92-0.28-1.73-0.81-2.36-1.54c-0.07-0.08-0.06-0.2,0.02-0.27
			c0.08-0.07,0.2-0.06,0.27,0.02c0.57,0.66,1.35,1.16,2.18,1.42c0.19,0.06,0.45,0.1,0.57-0.02c0.08-0.08,0.08-0.23,0.05-0.34
			c-0.05-0.15-0.16-0.29-0.26-0.42l-0.44-0.55c-0.3-0.31-0.58-0.66-0.81-1.03c-0.05-0.09-0.03-0.2,0.05-0.26
			c0.08-0.06,0.2-0.04,0.26,0.04l0.78,1c0.23,0.24,0.48,0.46,0.75,0.65c0.19,0.14,0.42,0.29,0.66,0.32c0.18,0.03,0.43-0.02,0.54-0.2
			c0.07-0.11,0.07-0.28,0.02-0.45c-0.06-0.17-0.17-0.34-0.28-0.5l-1.41-2.03c-0.06-0.09-0.04-0.2,0.04-0.26
			c0.08-0.06,0.2-0.05,0.27,0.03c0.47,0.57,0.99,1.1,1.56,1.57c0.2,0.17,0.46,0.35,0.69,0.29c0.14-0.04,0.26-0.18,0.3-0.36
			c0.04-0.16,0.02-0.35-0.06-0.59c-0.07-0.22-0.16-0.43-0.29-0.62c-0.08-0.07-0.16-0.14-0.22-0.2l-0.74-0.72
			c-0.07-0.07-0.08-0.18-0.02-0.25c0.06-0.08,0.17-0.1,0.25-0.05c0.41,0.23,0.76,0.56,1.01,0.95c0.06,0.04,0.12,0.08,0.19,0.09
			c0.18,0.04,0.4-0.06,0.52-0.23c0.11-0.17,0.14-0.42,0.08-0.66c-0.03-0.1,0.03-0.21,0.14-0.24c0.11-0.03,0.21,0.03,0.24,0.14
			c0.09,0.35,0.05,0.7-0.13,0.97c-0.17,0.27-0.48,0.42-0.77,0.42c0.04,0.09,0.07,0.19,0.1,0.28c0.09,0.3,0.12,0.56,0.06,0.79
			c-0.07,0.32-0.3,0.57-0.57,0.65c-0.4,0.11-0.77-0.14-1.04-0.37c-0.01-0.01-0.03-0.02-0.04-0.03l0.14,0.21
			c0.12,0.17,0.26,0.37,0.33,0.6c0.09,0.28,0.07,0.56-0.06,0.77c-0.17,0.29-0.55,0.44-0.92,0.39c-0.21-0.03-0.4-0.12-0.57-0.22
			c0.07,0.26,0.02,0.53-0.14,0.7C45.07,77.15,44.9,77.21,44.68,77.21z"/>
	</g>
	<g>
		<path class="st2" d="M49.37,82.96c-1.46,0-2.91-0.07-4.36-0.2c-0.11-0.01-0.18-0.1-0.18-0.21c0.01-0.11,0.11-0.19,0.21-0.18
			c2.7,0.24,5.44,0.26,8.14,0.04c0.11,0,0.2,0.07,0.21,0.18c0.01,0.11-0.07,0.2-0.18,0.21C51.94,82.91,50.65,82.96,49.37,82.96z"/>
	</g>
	<g>
		<path class="st2" d="M32.54,93.73c-0.02,0-0.04,0-0.05-0.01c-0.1-0.03-0.16-0.14-0.13-0.24c0.37-1.3,0.7-2.62,0.98-3.94
			c0.02-0.1,0.13-0.17,0.23-0.15c0.1,0.02,0.17,0.12,0.15,0.23c-0.28,1.32-0.62,2.66-0.99,3.96C32.7,93.67,32.62,93.73,32.54,93.73z
			"/>
	</g>
	<g>
		<path class="st2" d="M61.21,93.87c-0.1,0-0.19-0.08-0.19-0.18l-0.18-3.46c-0.01-0.11,0.08-0.2,0.18-0.2
			c0.1-0.01,0.2,0.08,0.2,0.18l0.18,3.46c0.01,0.11-0.08,0.2-0.18,0.2C61.21,93.87,61.21,93.87,61.21,93.87z"/>
	</g>
	<g>
		<path class="st2" d="M75.39,53.66c-0.04,0-0.08-0.01-0.11-0.04c-0.59-0.42-1.13-0.89-1.62-1.42c-0.07-0.08-0.07-0.2,0.01-0.27
			c0.08-0.07,0.2-0.07,0.27,0.01c0.43,0.46,0.91,0.89,1.43,1.27c0.73-0.78,1.37-1.62,1.9-2.52c-0.6-0.32-1.16-0.72-1.66-1.2
			c-0.08-0.07-0.08-0.2-0.01-0.27c0.07-0.08,0.2-0.08,0.27-0.01c0.52,0.5,1.11,0.91,1.74,1.23c0.05,0.02,0.08,0.07,0.1,0.12
			c0.02,0.05,0.01,0.11-0.02,0.15c-0.6,1.03-1.33,2.01-2.18,2.89C75.49,53.64,75.44,53.66,75.39,53.66z"/>
	</g>
	<g>
		<path class="st2" d="M75.62,49.44c-0.35,0-0.69-0.03-1.03-0.1c-1.68-0.33-3.12-1.54-3.68-3.07c-0.4-1.09-0.35-2.3-0.3-3.36
			l0.3-7.48c0.06-1.47,0.13-3.15,0.86-4.58c0.05-0.09,0.16-0.13,0.26-0.08c0.09,0.05,0.13,0.17,0.08,0.26
			c-0.7,1.35-0.76,2.98-0.82,4.41l-0.3,7.48c-0.04,1.03-0.09,2.19,0.28,3.22c0.51,1.4,1.84,2.51,3.39,2.82
			c1.46,0.29,3.1-0.11,4.38-1.08c1.19-0.9,2.08-2.27,2.51-3.85c0.24-0.91,0.34-1.87,0.42-2.8c0.11-1.13,0.22-2.29,0.6-3.39
			c0.19-0.54,0.64-1.47,1.51-1.6c0.57-0.08,1.19,0.23,1.55,0.78c0.27,0.42,0.41,0.94,0.44,1.64c0.04,0.99-0.14,1.81-0.55,2.45
			c-0.46,0.71-1.23,1.15-1.97,1.15c-0.01,0-0.01,0-0.02,0l0.5,4.04c0.01,0.11-0.06,0.2-0.17,0.22c-0.11,0.01-0.2-0.06-0.22-0.17
			l-0.52-4.27c-0.01-0.06,0.01-0.12,0.06-0.16c0.04-0.04,0.1-0.06,0.16-0.05c0.68,0.1,1.42-0.29,1.86-0.96
			c0.37-0.57,0.53-1.32,0.49-2.22c-0.03-0.63-0.15-1.09-0.38-1.45c-0.23-0.36-0.69-0.68-1.17-0.61c-0.68,0.1-1.05,0.89-1.21,1.35
			c-0.37,1.05-0.47,2.19-0.58,3.3c-0.09,0.95-0.18,1.93-0.44,2.86c-0.45,1.66-1.39,3.1-2.65,4.06C78.2,49,76.89,49.44,75.62,49.44z"
			/>
	</g>
	<g>
		<path class="st2" d="M78.92,42.32c-0.26,0-0.52-0.04-0.79-0.12c-0.54-0.16-1.04-0.45-1.47-0.72c-1,0.6-2.3,0.65-3.35,0.13
			l-0.08-0.04c-0.1-0.05-0.19-0.1-0.28-0.12c-0.28-0.07-0.58,0.05-0.9,0.18c-0.39,0.16-0.8,0.33-1.23,0.16
			c-0.1-0.04-0.15-0.15-0.11-0.25c0.04-0.1,0.15-0.15,0.25-0.11c0.28,0.11,0.6-0.02,0.94-0.16c0.37-0.15,0.74-0.3,1.14-0.2
			c0.13,0.03,0.25,0.09,0.36,0.15l0.07,0.04c0.96,0.48,2.17,0.41,3.07-0.17c0.06-0.04,0.15-0.04,0.21,0
			c0.45,0.29,0.94,0.59,1.47,0.74c0.56,0.16,1.11,0.13,1.52-0.09c0.78-0.42,1.07-1.44,1.21-2.18c0.34-1.71,0.41-3.48,0.48-5.19
			c0.02-0.54,0.05-1.2-0.24-1.71c-0.33-0.57-1.04-0.92-2.1-1.04c-0.91-0.1-1.86-0.06-2.77-0.02c-0.69,0.03-1.4,0.06-2.1,0.04
			c-1.43-0.06-3.37-0.43-4.51-1.89c-0.57-0.73-0.81-1.81-0.17-2.49c0.38-0.4,0.93-0.51,1.51-0.59l4.22-0.59
			c1.24-0.17,2.53-0.35,3.82-0.33c1.46,0.03,2.72,0.33,3.76,0.89c0.77,0.42,1.54,1.5,1.51,2.4c3.05,1.18,2.07,5.23,1.6,7.19
			c-0.1,0.41-0.18,0.74-0.19,0.92c-0.01,0.11-0.1,0.18-0.21,0.18c-0.11-0.01-0.19-0.1-0.18-0.21c0.02-0.21,0.1-0.55,0.2-0.98
			c0.49-2.02,1.39-5.78-1.5-6.78c-0.09-0.03-0.14-0.12-0.13-0.21c0.11-0.75-0.62-1.79-1.29-2.16c-0.98-0.53-2.18-0.82-3.58-0.84
			c-1.25-0.03-2.53,0.15-3.76,0.32l-4.22,0.59c-0.51,0.07-0.99,0.16-1.28,0.47c-0.48,0.51-0.26,1.4,0.2,1.98
			c1.05,1.34,2.88,1.69,4.22,1.74c0.68,0.03,1.39-0.01,2.06-0.04c0.93-0.04,1.89-0.09,2.83,0.02c1.19,0.13,1.99,0.55,2.39,1.23
			c0.35,0.6,0.32,1.33,0.3,1.92c-0.07,1.73-0.14,3.52-0.48,5.25c-0.16,0.81-0.48,1.95-1.41,2.44
			C79.64,42.24,79.29,42.32,78.92,42.32z"/>
	</g>
	<g>
		<path class="st2" d="M75.05,45.44c-0.21,0-0.43-0.03-0.68-0.1c-0.43-0.11-0.75-0.28-0.99-0.5c-0.35-0.33-0.47-0.77-0.3-1.14
			c0.02-0.05,0.07-0.09,0.12-0.11c0.05-0.02,0.11-0.01,0.16,0.02c0.81,0.53,1.79,0.82,2.76,0.79c0.07,0.01,0.12,0.03,0.16,0.08
			c0.04,0.05,0.05,0.12,0.03,0.18c-0.12,0.35-0.45,0.63-0.87,0.73C75.32,45.43,75.19,45.44,75.05,45.44z M73.39,44.1
			c0.02,0.22,0.19,0.4,0.26,0.47c0.19,0.18,0.46,0.31,0.83,0.41c0.36,0.09,0.63,0.11,0.88,0.05c0.17-0.04,0.32-0.12,0.42-0.23
			C74.94,44.76,74.11,44.52,73.39,44.1z"/>
	</g>
	<g>
		<path class="st2" d="M53.05,51.03c-0.04,0-0.08-0.01-0.11-0.04c-0.21-0.15-0.42-0.31-0.63-0.47c-1.16,0.49-2.67,0.19-3.89-0.78
			c-1.1-0.88-1.86-2.15-2.53-3.27c-0.05-0.09-0.03-0.2,0.05-0.26c0.08-0.06,0.19-0.05,0.26,0.03c0.64,0.73,1.3,1.48,2.08,2.06
			c0.6,0.45,1.54,0.99,2.61,1.02c0.99,0.03,2.06-0.4,2.93-1.17c0.72-0.64,1.33-1.49,1.91-2.67c1.37-2.79,1.93-6.01,1.56-9.1
			c-3.33-0.08-6.62-1.37-9.12-3.56c-0.15,2.43-1.15,4.84-2.77,6.67c-0.04,0.04-0.09,0.06-0.15,0.06c-0.06,0-0.11-0.03-0.15-0.07
			c-0.26-0.34-0.53-0.69-0.88-0.93c-0.36-0.25-0.77-0.34-1.1-0.24c-0.61,0.19-0.87,0.96-0.87,1.64c0,0.77,0.24,1.44,0.66,1.89
			c0.47,0.5,1.22,0.7,1.79,0.46c0.05-0.02,0.11-0.02,0.17,0.01c0.05,0.03,0.09,0.08,0.1,0.13c0.45,2.37,0.13,4.87-0.9,7.05
			c-0.05,0.1-0.16,0.14-0.26,0.09s-0.14-0.16-0.09-0.26c0.97-2.04,1.29-4.37,0.91-6.6c-0.67,0.17-1.46-0.07-1.99-0.63
			c-0.49-0.52-0.77-1.29-0.77-2.15c0-0.76,0.29-1.74,1.14-2.01c0.44-0.14,0.98-0.03,1.44,0.29c0.33,0.23,0.59,0.53,0.82,0.82
			c1.56-1.84,2.48-4.25,2.54-6.66c0-0.08,0.05-0.14,0.12-0.17c0.07-0.03,0.15-0.02,0.21,0.04c2.51,2.34,5.91,3.7,9.34,3.74
			c0.1,0,0.18,0.07,0.19,0.17c0.41,3.21-0.15,6.58-1.58,9.48c-0.61,1.23-1.24,2.12-2,2.79c-0.96,0.85-2.1,1.3-3.2,1.27
			c-0.93-0.03-1.91-0.41-2.84-1.1c-0.25-0.19-0.49-0.39-0.71-0.6c0.38,0.53,0.81,1.02,1.32,1.42c0.86,0.69,2.32,1.28,3.59,0.68
			c0.06-0.03,0.14-0.02,0.2,0.02c0.24,0.18,0.47,0.36,0.71,0.53c0.09,0.06,0.1,0.18,0.04,0.27C53.16,51.01,53.11,51.03,53.05,51.03z
			"/>
	</g>
	<g>
		<path class="st2" d="M55.89,51.35c-0.93,0-1.9-0.13-2.88-0.38c-0.1-0.03-0.17-0.13-0.14-0.24c0.03-0.1,0.13-0.17,0.24-0.14
			c2.31,0.6,4.52,0.47,6.25-0.37c2.01-0.98,3.33-3.03,3.22-5c-0.08-1.38-0.75-2.58-1.47-3.85c-0.55-0.98-1.12-1.99-1.39-3.09
			c-0.23-0.92-0.24-1.87-0.25-2.79c-0.01-0.96-0.02-1.96-0.28-2.88c-0.49-1.74-1.91-3.28-3.8-4.14c-1.58-0.71-3.51-1-5.76-0.86
			c-1.72,0.11-3.11,0.44-4.25,1.01c-1.41,0.7-2.46,1.78-2.95,3.04c-0.34,0.87-0.41,1.85-0.48,2.79c-0.08,1.02-0.15,2.07-0.56,3.03
			c-0.46,1.09-1.28,1.95-2.08,2.78c-0.7,0.73-1.42,1.48-1.87,2.37c-0.81,1.6-0.68,3.66,0.34,5.14c1.02,1.48,2.9,2.34,4.68,2.15
			c0.11-0.01,0.2,0.07,0.21,0.17c0.01,0.11-0.07,0.2-0.17,0.21c-1.92,0.21-3.94-0.72-5.04-2.31c-1.09-1.59-1.24-3.81-0.37-5.53
			c0.48-0.94,1.22-1.71,1.93-2.46c0.81-0.84,1.57-1.64,2-2.66c0.38-0.9,0.46-1.92,0.53-2.91c0.07-0.97,0.15-1.97,0.51-2.9
			c0.52-1.35,1.63-2.51,3.13-3.25c1.19-0.59,2.63-0.94,4.4-1.05c2.31-0.15,4.31,0.15,5.94,0.89c2,0.9,3.5,2.55,4.02,4.39
			c0.27,0.97,0.29,1.99,0.3,2.98c0.01,0.9,0.02,1.83,0.24,2.71c0.26,1.05,0.81,2.04,1.35,2.99c0.71,1.25,1.43,2.55,1.51,4.01
			c0.12,2.12-1.3,4.32-3.44,5.37C58.46,51.08,57.22,51.34,55.89,51.35z"/>
	</g>
	<g>
		<path class="st2" d="M6.18,93.75C6.17,93.75,6.17,93.75,6.18,93.75c-0.11,0-0.2-0.09-0.19-0.2c0.07-2.29,0.22-4.3,0.44-6.13
			c0.01-0.09,0.09-0.16,0.18-0.17c0.09,0,0.18,0.06,0.2,0.15c0.18,0.73,0.43,1.45,0.75,2.14c1.4-1.16,2.73-2.43,3.95-3.78
			c0.07-0.08,0.19-0.08,0.27-0.01c0.08,0.07,0.09,0.19,0.01,0.27c-1.29,1.42-2.7,2.76-4.18,3.98c-0.05,0.04-0.11,0.05-0.16,0.04
			c-0.06-0.01-0.11-0.05-0.13-0.1c-0.24-0.48-0.44-0.98-0.61-1.49c-0.16,1.56-0.27,3.25-0.33,5.13C6.37,93.67,6.28,93.75,6.18,93.75
			z"/>
	</g>
	<g>
		<path class="st2" d="M21.91,82.74c-3.61,0-7.22-0.34-10.8-1.02c-0.1-0.02-0.17-0.12-0.15-0.23c0.02-0.1,0.12-0.18,0.23-0.15
			c6.55,1.25,13.19,1.35,19.74,0.3l0.13-0.72c0.02-0.11,0.12-0.17,0.22-0.16c0.11,0.02,0.18,0.12,0.16,0.22l-0.15,0.86
			c-0.01,0.08-0.08,0.14-0.16,0.16C28.07,82.49,24.99,82.74,21.91,82.74z"/>
	</g>
	<g>
		<path class="st2" d="M31.02,93.89c-0.11,0-0.19-0.09-0.19-0.19l-0.02-11.9c0-0.11,0.09-0.19,0.19-0.19h0
			c0.11,0,0.19,0.09,0.19,0.19l0.02,11.9C31.21,93.8,31.13,93.89,31.02,93.89L31.02,93.89z"/>
	</g>
	<g>
		<path class="st2" d="M21.51,93.89c-0.01,0-0.03,0-0.04,0c-0.1-0.02-0.17-0.13-0.15-0.23c0.31-1.4,0.55-2.83,0.73-4.25
			c0.01-0.11,0.11-0.18,0.22-0.17c0.11,0.01,0.18,0.11,0.17,0.22c-0.18,1.43-0.42,2.88-0.73,4.29
			C21.68,93.83,21.6,93.89,21.51,93.89z"/>
	</g>
	<g>
		<path class="st2" d="M25.49,45.2c-0.86,0-1.78-0.38-2.52-1.05c-0.79-0.72-1.31-1.67-1.82-2.67c-0.05-0.09-0.02-0.2,0.07-0.25
			s0.19-0.04,0.26,0.04c0.99,1.2,2.05,2.03,3.15,2.49c1.32,0.55,2.76,0.53,3.86-0.03c0.84-0.44,1.58-1.23,2.19-2.36
			c0.87-1.6,1.29-3.42,1.62-5.14c0.31-1.63,0.6-3.51,0.08-5.24c-0.09-0.29-0.24-0.69-0.55-0.86c-0.3-0.17-0.71-0.09-1.09-0.01
			l-0.06,0.01c-2.23,0.43-4.56,0.12-6.6-0.86c-0.4,2.23-1.62,4.37-3.39,5.89c-0.06,0.05-0.14,0.06-0.21,0.03
			c-0.07-0.03-0.11-0.11-0.11-0.18c0.09-1.44-0.33-2.35-1.17-2.56c-0.41-0.1-0.79,0-1.14,0.3c-0.73,0.63-1.09,1.93-1,2.78
			c0.11,1.12,0.92,2.14,1.94,2.42c0.1,0.03,0.16,0.12,0.14,0.22c-0.39,1.99-1.07,3.9-2.04,5.68c-0.05,0.09-0.17,0.13-0.26,0.08
			c-0.09-0.05-0.13-0.17-0.08-0.26c0.92-1.69,1.58-3.51,1.97-5.4c-1.1-0.38-1.93-1.47-2.05-2.7c-0.09-0.96,0.31-2.39,1.14-3.11
			c0.44-0.38,0.96-0.52,1.48-0.39c0.56,0.14,1.45,0.65,1.47,2.5c1.59-1.5,2.66-3.53,2.98-5.62c0.01-0.06,0.05-0.12,0.1-0.14
			c0.06-0.03,0.12-0.03,0.18,0c2.02,1.04,4.36,1.37,6.58,0.94l0.06-0.01c0.43-0.08,0.93-0.18,1.35,0.05
			c0.44,0.24,0.63,0.73,0.73,1.08c0.54,1.81,0.25,3.75-0.07,5.42c-0.33,1.75-0.77,3.6-1.66,5.25c-0.65,1.2-1.44,2.04-2.36,2.51
			c-0.71,0.37-1.55,0.52-2.41,0.47l-0.02,0.44c0,0.08-0.05,0.15-0.13,0.17c-0.03,0.01-0.07,0.01-0.1,0.01
			C25.83,45.19,25.66,45.2,25.49,45.2z M22.25,42.66c0.29,0.45,0.6,0.85,0.98,1.2c0.77,0.71,1.76,1.05,2.61,0.93l0.01-0.3
			c-0.47-0.06-0.93-0.19-1.39-0.38C23.7,43.8,22.96,43.31,22.25,42.66z"/>
	</g>
	<g>
		<path class="st2" d="M43.93,41.08c-0.01,0-0.03,0-0.04,0c-0.1-0.02-0.17-0.12-0.15-0.23c0.09-0.43-0.16-0.91-0.56-1.08
			c-0.1-0.04-0.14-0.16-0.1-0.25c0.04-0.1,0.16-0.14,0.25-0.1c0.57,0.24,0.91,0.91,0.79,1.52C44.1,41.02,44.02,41.08,43.93,41.08z"
			/>
	</g>
	<g>
		<path class="st2" d="M83.49,39.74c-0.1,0-0.18-0.07-0.19-0.17c-0.06-0.55,0.23-1.11,0.7-1.4c0.09-0.05,0.21-0.02,0.26,0.07
			c0.05,0.09,0.02,0.21-0.07,0.26c-0.34,0.21-0.56,0.63-0.51,1.03c0.01,0.11-0.07,0.2-0.17,0.21C83.51,39.74,83.5,39.74,83.49,39.74
			z"/>
	</g>
	<g>
		<path class="st2" d="M95.93,93.89H3.2c-0.11,0-0.19-0.09-0.19-0.19S3.1,93.5,3.2,93.5h92.73c0.11,0,0.19,0.09,0.19,0.19
			S96.04,93.89,95.93,93.89z"/>
	</g>
	<g>
		<path class="st2" d="M17.71,32.79c-0.07,0-0.14-0.04-0.18-0.12c-0.48-1.07-0.94-2.22-0.94-3.44c0-1.36,0.64-2.55,1.65-3.07
			c0.85-1.6,2.41-2.77,4.17-3.16c1.56-0.34,3.16-0.06,4.7,0.2c1.23,0.21,2.5,0.43,3.74,0.33c0.07-0.01,0.15-0.01,0.22-0.02
			c0.46-0.04,0.94-0.09,1.4,0.1c0.33,0.14,0.61,0.45,0.71,0.8c0.04,0.16,0.05,0.32,0.01,0.46c0.93,0.19,1.75,0.92,2.11,1.88
			c0.35,0.94,0.26,2.06-0.24,3.06c-0.4,0.8-1.07,1.55-2.04,2.3c-0.06,0.05-0.14,0.05-0.21,0.02c-0.07-0.04-0.11-0.11-0.1-0.19
			c0.01-0.08,0.06-0.14,0.13-0.17c0.89-0.7,1.51-1.39,1.88-2.13c0.46-0.91,0.54-1.92,0.23-2.76c-0.34-0.91-1.16-1.59-2.05-1.67
			c-0.07-0.01-0.13-0.05-0.16-0.11c-0.03-0.06-0.02-0.14,0.02-0.19c0.1-0.13,0.09-0.29,0.06-0.4c-0.06-0.23-0.26-0.45-0.48-0.55
			c-0.36-0.15-0.78-0.11-1.21-0.07c-0.07,0.01-0.15,0.01-0.22,0.02c-1.29,0.1-2.58-0.12-3.84-0.34c-1.58-0.27-3.06-0.53-4.55-0.21
			c-1.68,0.37-3.15,1.49-3.94,3.02c-0.02,0.04-0.05,0.07-0.09,0.09c-1.03,0.49-1.49,1.74-1.49,2.75c0,1.14,0.45,2.25,0.91,3.28
			c0.04,0.1,0,0.21-0.1,0.25C17.76,32.79,17.74,32.79,17.71,32.79z"/>
	</g>
	<g>
		<path class="st2" d="M19.2,35.69c-0.02,0-0.04,0-0.05-0.01c-0.1-0.03-0.16-0.14-0.13-0.24c0.06-0.19,0.03-0.41-0.08-0.58
			c-0.11-0.17-0.29-0.29-0.49-0.33c-0.11-0.02-0.18-0.12-0.16-0.22c0.02-0.11,0.12-0.18,0.22-0.16c0.31,0.05,0.59,0.24,0.75,0.5
			c0.17,0.26,0.21,0.6,0.13,0.9C19.36,35.63,19.29,35.69,19.2,35.69z"/>
	</g>
	<g>
		<path class="st2" d="M75.64,13.96h-6.9c-0.47,0-0.85-0.38-0.85-0.85l0.15-6.85c0-0.1,0.07-0.2,0.16-0.23
			c0.1-0.04,0.21-0.02,0.28,0.06l7.33,7.43c0.07,0.07,0.1,0.19,0.06,0.29C75.83,13.89,75.74,13.96,75.64,13.96z M68.54,6.87
			l-0.13,6.24c0,0.18,0.15,0.33,0.34,0.33h6.28L68.54,6.87z"/>
	</g>
	<g>
		<path class="st2" d="M67.83,15.53h-6.38c-0.14,0-0.26-0.12-0.26-0.26c0-0.14,0.12-0.26,0.26-0.26h6.38c0.14,0,0.26,0.12,0.26,0.26
			C68.09,15.41,67.97,15.53,67.83,15.53z"/>
	</g>
	<g>
		<path class="st2" d="M69.42,18.03h-8.05c-0.14,0-0.26-0.12-0.26-0.26c0-0.14,0.12-0.26,0.26-0.26h8.05c0.14,0,0.26,0.12,0.26,0.26
			C69.68,17.92,69.56,18.03,69.42,18.03z"/>
	</g>
	<g>
		<path class="st2" d="M71.71,20.44H61.36c-0.14,0-0.26-0.12-0.26-0.26s0.12-0.26,0.26-0.26h10.35c0.14,0,0.26,0.12,0.26,0.26
			S71.85,20.44,71.71,20.44z"/>
	</g>
	<g>
		<path class="st2" d="M68.27,23.54H51.2c-0.14,0-0.26-0.12-0.26-0.26s0.12-0.26,0.26-0.26h17.07c0.14,0,0.26,0.12,0.26,0.26
			S68.42,23.54,68.27,23.54z"/>
	</g>
	<g>
		<path class="st2" d="M66.28,26.09H51.3c-0.14,0-0.26-0.12-0.26-0.26s0.12-0.26,0.26-0.26h14.98c0.14,0,0.26,0.12,0.26,0.26
			S66.43,26.09,66.28,26.09z"/>
	</g>
	<g>
		<path class="st2" d="M61.65,28.53h-3.56c-0.14,0-0.26-0.12-0.26-0.26c0-0.14,0.12-0.26,0.26-0.26h3.56c0.14,0,0.26,0.12,0.26,0.26
			C61.91,28.41,61.79,28.53,61.65,28.53z"/>
	</g>
	<g>
		<g>
			<path class="st8" d="M93.32,29.81c-2.72,0-4.94-2.21-4.94-4.94s2.21-4.94,4.94-4.94c2.72,0,4.94,2.21,4.94,4.94
				S96.04,29.81,93.32,29.81z M93.32,22.09c-1.53,0-2.78,1.25-2.78,2.78c0,1.53,1.25,2.78,2.78,2.78s2.78-1.25,2.78-2.78
				C96.1,23.34,94.85,22.09,93.32,22.09z"/>
		</g>
		<g>
			<polygon class="st8" points="94.51,28.3 94.01,30.83 92.49,30.83 92.12,28.27 			"/>
		</g>
		<g>
			<polygon class="st8" points="91.66,28.11 89.52,29.54 88.45,28.47 89.99,26.4 			"/>
		</g>
		<g>
			<polygon class="st8" points="89.78,25.96 87.25,25.45 87.25,23.94 89.81,23.57 			"/>
		</g>
		<g>
			<polygon class="st8" points="89.97,23.11 88.54,20.97 89.61,19.89 91.68,21.44 			"/>
		</g>
		<g>
			<polygon class="st8" points="92.12,21.23 92.63,18.7 94.14,18.7 94.51,21.26 			"/>
		</g>
		<g>
			<polygon class="st8" points="94.97,21.42 97.12,19.99 98.19,21.06 96.64,23.13 			"/>
		</g>
		<g>
			<polygon class="st8" points="96.85,23.57 99.38,24.07 99.38,25.59 96.82,25.96 			"/>
		</g>
		<g>
			<polygon class="st8" points="96.66,26.42 98.09,28.56 97.02,29.63 94.95,28.09 			"/>
		</g>
	</g>
</g>
</svg>
