<svg width="800" height="800" viewBox="0 0 800 800" fill="none" xmlns="http://www.w3.org/2000/svg">
<g opacity="0.5">
<path fill-rule="evenodd" clip-rule="evenodd" d="M767.4 253.2V256.9C767.4 264.1 764 269.9 759.9 269.9C755.7 269.9 752.3 275.8 752.3 282.9V286.6C752.3 293.8 758.1 299.6 765.1 299.6C772.1 299.6 777.8 305.5 777.8 312.6V316.4C777.8 323.5 771.9 329.4 764.8 329.4H755.8C748.6 329.4 742.8 335.2 742.8 342.4V346.1C742.8 353.2 748.3 359.1 755.1 359.1C761.9 359.1 767.4 364.9 767.4 372.1V375.8C767.4 382.9 761.6 388.8 754.4 388.8H746.8C739.6 388.8 733.8 394.6 733.8 401.8V405.5C733.8 412.7 739.6 418.5 746.8 418.5H754.4C761.6 418.5 767.4 424.4 767.4 431.5V435.2C767.4 442.4 761.6 448.2 754.4 448.2H728C720.8 448.2 715 454.1 715 461.2V464.9C715 472.1 720.8 477.9 728 477.9H739.3C746.5 477.9 752.3 483.8 752.3 490.9V494.7C752.3 501.8 755.7 507.7 759.9 507.7C764 507.7 767.4 513.5 767.4 520.7V524.4C767.4 531.5 761.9 537.4 755.1 537.4C748.3 537.4 742.8 543.2 742.8 550.4V554.1C742.8 561.2 748.3 567.1 755.1 567.1C761.9 567.1 767.4 572.9 767.4 580.1V583.8C767.4 591 761.6 596.8 754.4 596.8H740C732.9 596.8 727 602.7 727 609.8V613.5C727 620.7 732.7 626.5 739.7 626.5C746.6 626.5 752.3 632.4 752.3 639.5V643.2C752.3 650.4 753.7 656.2 755.4 656.2C757.1 656.2 758.5 662.1 758.5 669.2V673C758.5 680.1 752.7 686 745.5 686H697C689.9 686 684 680.1 684 673V669.2C684 662.1 678.2 656.2 671 656.2H623.5C616.3 656.2 610.5 662.1 610.5 669.2V673C610.5 680.1 604.6 686 597.5 686H550.7C543.6 686 537.7 691.8 537.7 699V702.7C537.7 709.8 531.9 715.7 524.7 715.7H352.3C345.2 715.7 339.3 709.8 339.3 702.7V699C339.3 691.8 333.5 686 326.3 686H298.2C291.1 686 285.2 680.1 285.2 673V669.2C285.2 662.1 279.4 656.2 272.2 656.2H243.5C236.4 656.2 230.5 662.1 230.5 669.2V673C230.5 680.1 224.7 686 217.5 686H162.2C155.1 686 149.2 680.1 149.2 673V669.2C149.2 662.1 143.4 656.2 136.2 656.2H98.9C91.7 656.2 85.9 650.4 85.9 643.2V639.5C85.9 632.4 91.7 626.5 98.9 626.5H102.4C109.6 626.5 115.4 620.7 115.4 613.5V609.8C115.4 602.7 109.6 596.8 102.4 596.8H67.8C60.6 596.8 54.8 591 54.8 583.8V580.1C54.8 572.9 60.6 567.1 67.8 567.1H102.4C109.6 567.1 115.4 561.2 115.4 554.1V550.4C115.4 543.2 109.6 537.4 102.4 537.4H54.1C47 537.4 41.1 531.5 41.1 524.4V520.7C41.1 513.5 47 507.7 54.1 507.7H74.1C81.3 507.7 87.1 501.8 87.1 494.7V490.9C87.1 483.8 81.3 477.9 74.1 477.9H64.1C57 477.9 51.1 472.1 51.1 464.9V461.2C51.1 454.1 57 448.2 64.1 448.2H78.1C85.3 448.2 91.1 442.4 91.1 435.2V431.5C91.1 424.4 85.3 418.5 78.1 418.5H30.4C23.3 418.5 17.4 412.7 17.4 405.5V401.8C17.4 394.6 23.3 388.8 30.4 388.8H78.1C85.3 388.8 91.1 382.9 91.1 375.8V372.1C91.1 364.9 85.3 359.1 78.1 359.1H62.8C55.6 359.1 49.8 353.2 49.8 346.1V342.4C49.8 335.2 55.6 329.4 62.8 329.4H66.1C73.3 329.4 79.1 323.5 79.1 316.4V312.6C79.1 305.5 73.3 299.6 66.1 299.6H23.1C16 299.6 10.1 293.8 10.1 286.6V282.9C10.1 275.8 16 269.9 23.1 269.9H83.9C91 269.9 96.9 264.1 96.9 256.9V253.2C96.9 246.1 91 240.2 83.9 240.2H61.1C54 240.2 48.1 234.4 48.1 227.2V223.5C48.1 216.3 54 210.5 61.1 210.5H71.8C78.9 210.5 84.8 204.6 84.8 197.5V193.8C84.8 186.6 90.6 180.8 97.8 180.8H107.1C114.3 180.8 120.1 174.9 120.1 167.8V164.1C120.1 156.9 126 151.1 133.1 151.1H186.4C193.5 151.1 199.4 145.2 199.4 138.1V134.3C199.4 127.2 205.2 121.3 212.4 121.3H247.8C254.9 121.3 260.8 115.5 260.8 108.3V104.6C260.8 97.5 266.6 91.6 273.8 91.6H486.6C493.7 91.6 499.6 97.5 499.6 104.6V108.3C499.6 115.5 505.4 121.3 512.6 121.3H584.4C591.6 121.3 597.4 127.2 597.4 134.3V138.1C597.4 145.2 603.3 151.1 610.4 151.1H705.8C713 151.1 718.8 156.9 718.8 164.1V167.8C718.8 174.9 724.7 180.8 731.8 180.8H754.4C761.6 180.8 767.4 186.6 767.4 193.8V197.5C767.4 204.6 770.9 210.5 775.1 210.5C779.3 210.5 782.8 216.3 782.8 223.5V227.2C782.8 234.4 779.3 240.2 775.1 240.2C770.9 240.2 767.4 246.1 767.4 253.2ZM493 686C500.2 686 506 680.1 506 673V669.2C506 662.1 500.2 656.2 493 656.2H459.1C452 656.2 446.1 662.1 446.1 669.2V673C446.1 680.1 452 686 459.1 686H493ZM346.5 673C346.5 680.1 352.4 686 359.5 686H376.6C383.8 686 389.6 680.1 389.6 673V669.2C389.6 662.1 383.8 656.2 376.6 656.2H359.5C352.4 656.2 346.5 662.1 346.5 669.2V673ZM410.5 134.4C410.5 127.3 404.7 121.4 397.5 121.4H334.1C326.9 121.4 321.1 127.3 321.1 134.4V138.1C321.1 145.3 326.9 151.1 334.1 151.1H397.5C404.7 151.1 410.5 145.3 410.5 138.1V134.4Z" fill="#FFD9A9"/>
</g>
<g opacity="0.5">
<path d="M41.7 348.7C41.7 355.8 35.8 361.7 28.7 361.7H27.1C20 361.7 14.1 355.8 14.1 348.7V344.9C14.1 337.8 20 331.9 27.1 331.9H28.7C35.8 331.9 41.7 337.8 41.7 344.9V348.7Z" fill="#FFD9A9"/>
</g>
<g opacity="0.5">
<path d="M77 645.1C77 652.2 71.2 658.1 64 658.1H62.4C55.3 658.1 49.4 652.2 49.4 645.1V641.4C49.4 634.2 55.3 628.4 62.4 628.4H64C71.2 628.4 77 634.2 77 641.4V645.1Z" fill="#FFD9A9"/>
</g>
<g opacity="0.5">
<path d="M662.1 702.7C662.1 709.8 656.3 715.7 649.1 715.7H647.6C640.4 715.7 634.6 709.8 634.6 702.7V699C634.6 691.8 640.4 686 647.6 686H649.1C656.3 686 662.1 691.8 662.1 699V702.7Z" fill="#FFD9A9"/>
</g>
<path d="M728.5 307.1C728.5 408.2 646.6 490.2 545.5 490.2C444.4 490.2 362.4 408.2 362.4 307.1C362.4 206 444.4 124.1 545.5 124.1C646.6 124.1 728.5 206 728.5 307.1Z" stroke="white" stroke-width="3" stroke-linecap="round" stroke-linejoin="round" stroke-dasharray="7.99 7.99"/>
<path d="M595.4 501.1C595.4 615.4 502.8 708 388.5 708C274.2 708 181.6 615.4 181.6 501.1C181.6 386.8 274.2 294.2 388.5 294.2C502.8 294.2 595.4 386.8 595.4 501.1Z" stroke="white" stroke-width="3" stroke-linecap="round" stroke-linejoin="round" stroke-dasharray="8.02 8.02"/>
<path d="M384.7 262.1C384.7 333.5 326.9 391.3 255.5 391.3C184.1 391.3 126.3 333.5 126.3 262.1C126.3 190.7 184.1 132.9 255.5 132.9C326.9 132.9 384.7 190.7 384.7 262.1Z" stroke="white" stroke-width="3" stroke-linecap="round" stroke-linejoin="round" stroke-dasharray="7.96 7.96"/>
<path d="M262.6 204.7C258.9 204.7 255.8 201.7 255.7 198C255.7 194.2 258.7 191.2 262.4 191.1L275.8 191C279.5 190.9 282.6 193.9 282.6 197.7C282.7 201.4 279.7 204.5 275.9 204.5L262.6 204.7Z" fill="#FF9E22"/>
<path d="M265.9 204.7L265.8 191L370.9 189.8L371.1 203.5L265.9 204.7Z" fill="#56698F"/>
<path d="M265 204.7L264.9 191.1L271.4 191L271.5 204.7H265Z" fill="white"/>
<path d="M370.9 189.8L371.1 203.5L390.5 196.5L370.9 189.8Z" fill="white"/>
<path d="M390.5 196.5L382.8 193.8L382.9 199.2L390.5 196.5Z" fill="#413E41"/>
<path fill-rule="evenodd" clip-rule="evenodd" d="M410.8 218.7L410.9 241.3C411 243.1 409.5 244.6 407.7 244.6L261 245.6C259.2 245.6 257.7 244.1 257.7 242.3L257.5 219.7C257.5 217.8 259 216.4 260.8 216.4L407.5 215.4C409.3 215.4 410.8 216.9 410.8 218.7ZM403.2 230C403.2 228.5 401.9 227.3 400.4 227.4C398.9 227.4 397.7 228.6 397.8 230.1C397.8 231.6 399 232.8 400.5 232.8C402 232.8 403.2 231.5 403.2 230Z" fill="#1DB0D2"/>
<path d="M403 229.3C403.133 229.567 403.2 229.8 403.2 230C403.2 231.5 402 232.8 400.5 232.8C399 232.8 397.8 231.6 397.8 230.1C397.8 229.833 397.833 229.6 397.9 229.4L257.6 230.3L257.7 242.3C257.7 244.1 259.2 245.6 261 245.6L407.7 244.6C409.5 244.6 411 243.1 410.9 241.3V229.3H403Z" fill="#00719D"/>
<path d="M264.3 217.5L264.4 221.9" stroke="#006A76" stroke-linecap="round" stroke-linejoin="round"/>
<path d="M270.4 217.4V221.8" stroke="#006A76" stroke-linecap="round" stroke-linejoin="round"/>
<path d="M276.5 217.4V221.8" stroke="#006A76" stroke-linecap="round" stroke-linejoin="round"/>
<path d="M282.5 217.3L282.6 221.7" stroke="#006A76" stroke-linecap="round" stroke-linejoin="round"/>
<path d="M288.6 217.2V221.7" stroke="#006A76" stroke-linecap="round" stroke-linejoin="round"/>
<path d="M294.7 217.2V221.6" stroke="#006A76" stroke-linecap="round" stroke-linejoin="round"/>
<path d="M300.7 217.1L300.8 221.6" stroke="#006A76" stroke-linecap="round" stroke-linejoin="round"/>
<path d="M306.8 217.1V221.5" stroke="#006A76" stroke-linecap="round" stroke-linejoin="round"/>
<path d="M312.9 217V221.5" stroke="#006A76" stroke-linecap="round" stroke-linejoin="round"/>
<path d="M318.9 217L319 221.4" stroke="#006A76" stroke-linecap="round" stroke-linejoin="round"/>
<path d="M325 216.9L325.1 221.4" stroke="#006A76" stroke-linecap="round" stroke-linejoin="round"/>
<path d="M331.1 216.9V221.3" stroke="#006A76" stroke-linecap="round" stroke-linejoin="round"/>
<path d="M337.2 216.8V221.3" stroke="#006A76" stroke-linecap="round" stroke-linejoin="round"/>
<path d="M343.2 216.8L343.3 221.2" stroke="#006A76" stroke-linecap="round" stroke-linejoin="round"/>
<path d="M349.3 216.7V221.2" stroke="#006A76" stroke-linecap="round" stroke-linejoin="round"/>
<path d="M355.4 216.7V221.1" stroke="#006A76" stroke-linecap="round" stroke-linejoin="round"/>
<path d="M361.4 216.6L361.5 221.1" stroke="#006A76" stroke-linecap="round" stroke-linejoin="round"/>
<path d="M367.5 216.6V221" stroke="#006A76" stroke-linecap="round" stroke-linejoin="round"/>
<path d="M373.6 216.5V221" stroke="#006A76" stroke-linecap="round" stroke-linejoin="round"/>
<path d="M379.6 216.5L379.7 220.9" stroke="#006A76" stroke-linecap="round" stroke-linejoin="round"/>
<path d="M385.7 216.4V220.9" stroke="#006A76" stroke-linecap="round" stroke-linejoin="round"/>
<path d="M391.8 216.4V220.8" stroke="#006A76" stroke-linecap="round" stroke-linejoin="round"/>
<path d="M397.9 216.3V220.8" stroke="#006A76" stroke-linecap="round" stroke-linejoin="round"/>
<path d="M403.9 216.3L404 220.7" stroke="#006A76" stroke-linecap="round" stroke-linejoin="round"/>
<path d="M739.2 561.6C739.2 559.5 737.6 557.8 735.5 557.8H601.1C599.1 557.8 597.4 559.5 597.4 561.6V588.3C597.4 590.4 599.1 592 601.1 592H735.5C737.6 592 739.2 590.4 739.2 588.3V561.6Z" fill="#E53328"/>
<path d="M739.2 564.1H605.4V585.7H739.2V564.1Z" fill="#E5E7E9"/>
<path d="M739.2 582.4H605.4V581.9H739.2V582.4Z" fill="white"/>
<path d="M739.2 578.1H605.4V577.6H739.2V578.1Z" fill="white"/>
<path d="M739.2 573.8H605.4V573.2H739.2V573.8Z" fill="white"/>
<path d="M739.2 569.4H605.4V568.9H739.2V569.4Z" fill="white"/>
<path d="M739.2 565.1H605.4V564.6H739.2V565.1Z" fill="white"/>
<path d="M739.2 567.3H605.4V566.7H739.2V567.3Z" fill="white"/>
<path d="M739.2 571.6H605.4V571.1H739.2V571.6Z" fill="white"/>
<path d="M739.2 575.9H605.4V575.4H739.2V575.9Z" fill="white"/>
<path d="M739.2 584.6H605.4V584.1H739.2V584.6Z" fill="white"/>
<path d="M739.2 580.3H605.4V579.7H739.2V580.3Z" fill="white"/>
<path d="M631.6 573.2V589.9L625.2 586.7L618.7 589.8V573.2H631.6Z" fill="#FF9E22"/>
<path d="M710.9 625.7H564V594H710.9V625.7Z" fill="#56698F"/>
<path d="M591.6 620.9C591.6 622.5 590.3 623.8 588.7 623.8C587.1 623.8 585.8 622.5 585.8 620.9V598.4C585.8 596.8 587.1 595.5 588.7 595.5C590.3 595.5 591.6 596.8 591.6 598.4V620.9Z" fill="#313C52"/>
<path d="M600.3 620.9C600.3 622.5 599 623.8 597.4 623.8C595.8 623.8 594.5 622.5 594.5 620.9V598.4C594.5 596.8 595.8 595.5 597.4 595.5C599 595.5 600.3 596.8 600.3 598.4V620.9Z" fill="#313C52"/>
<path d="M684.9 625.7H648.4V594H684.9V625.7Z" fill="#313C52"/>
<path d="M712.4 559.8H559.4V533.8H712.4V559.8Z" fill="#1DB0D2"/>
<path d="M584.9 559.8H574V533.7H584.9V559.8Z" fill="#00719D"/>
<path d="M196.9 190C180.5 190 164 202.2 164 220.1C164 238 178.9 240.4 178.9 251.2C178.9 262 178.9 274.4 178.9 274.4H196.9H214.9C214.9 274.4 214.9 262 214.9 251.2C214.9 240.4 229.9 238 229.9 220.1C229.9 202.2 213.4 190 196.9 190Z" fill="#FF9E22"/>
<path d="M214 218C211.9 218 210.8 219.8 208.8 219.8C206.8 219.8 205.8 210.6 196.9 210.6C188.1 210.6 187.4 219.8 185.1 219.8C182.8 219.8 181.5 218 179.9 218C178.2 218 176.4 218.8 176.4 221.4C176.4 223.9 196.9 244.4 196.9 268C196.9 244.4 217.5 222.7 217.5 221.4C217.5 220 216.1 218 214 218Z" stroke="white" stroke-width="3" stroke-linecap="round" stroke-linejoin="round"/>
<path d="M209.3 279.4C209.3 285.6 203.8 290.5 196.9 290.5C190.1 290.5 184.6 285.6 184.6 279.4C184.6 273.3 190.1 268.3 196.9 268.3C203.8 268.3 209.3 273.3 209.3 279.4Z" fill="#584F4C"/>
<path d="M215.8 280.8H178.1V262.6H215.8V280.8Z" fill="#524745"/>
<path d="M600.1 200H607.7C612.7 183.6 627.9 171.8 645.9 171.8C668 171.8 685.9 189.7 685.9 211.8C685.9 212.4 685.8 212.9 685.8 213.5H692.5C707.8 213.5 720.2 225.9 720.2 241.2C720.2 256.5 707.8 268.9 692.5 268.9H600.1C581.1 268.9 565.7 253.5 565.7 234.4C565.7 215.4 581.1 200 600.1 200Z" fill="#FBF9F9"/>
<path d="M562.8 181.6H569.1C573.3 168 585.9 158.2 600.9 158.2C619.3 158.2 634.2 173.1 634.2 191.4C634.2 191.9 634.1 192.4 634.1 192.9H639.7C652.4 192.9 662.7 203.2 662.7 216C662.7 228.7 652.4 239 639.7 239H562.8C547 239 534.1 226.1 534.1 210.3C534.1 194.5 547 181.6 562.8 181.6Z" fill="white"/>
<path d="M209.3 531.2C209.3 534.1 207 536.4 204.1 536.4L178.7 536.2C175.8 536.1 173.5 533.8 173.6 530.9C173.6 528 175.9 525.7 178.8 525.7L204.2 526C207.1 526 209.4 528.4 209.3 531.2Z" fill="#434242"/>
<path d="M194.2 529.5C194.8 552.6 176.5 571.8 153.4 572.3C130.2 572.8 111.1 554.5 110.6 531.4C110 508.3 128.4 489.1 151.5 488.6C174.6 488.1 193.7 506.4 194.2 529.5Z" fill="#434242"/>
<path d="M186.7 530.2C187.1 549.1 172.1 564.8 153.2 565.2C134.3 565.6 118.6 550.6 118.1 531.7C117.7 512.8 132.7 497.1 151.6 496.7C170.5 496.2 186.2 511.2 186.7 530.2Z" fill="#3B3533"/>
<path d="M269.6 532.2C269.5 538.4 264.5 543.3 258.4 543.2L213.3 542.8C207.2 542.8 202.3 537.8 202.3 531.6C202.4 525.5 207.4 520.6 213.5 520.6L258.6 521C264.7 521.1 269.6 526.1 269.6 532.2Z" fill="#56698F"/>
<path d="M176.1 551.5C163.6 564.6 142.9 565 129.8 552.5C116.7 540 116.2 519.3 128.7 506.2C141.2 493.1 162 492.7 175.1 505.2C188.1 517.7 188.6 538.4 176.1 551.5Z" fill="white"/>
<mask id="mask0_7_166" style="mask-type:luminance" maskUnits="userSpaceOnUse" x="119" y="496" width="67" height="66">
<path d="M176.11 551.49C163.6 564.57 142.87 565.04 129.79 552.54C116.71 540.04 116.23 519.31 128.74 506.22C141.24 493.14 161.97 492.67 175.06 505.17C188.14 517.68 188.61 538.41 176.11 551.49Z" fill="white"/>
</mask>
<g mask="url(#mask0_7_166)">
<g opacity="0.1">
<path d="M196.3 530.6L196.7 547.9L12.3 552.1L11.9 534.8L196.3 530.6Z" fill="#1DB0D2"/>
</g>
<g opacity="0.1">
<path d="M196 516.9L196.2 524.9L11.8 529.1L11.6 521.1L196 516.9Z" fill="#1DB0D2"/>
</g>
</g>
<path d="M113.8 327.8H183L206.6 352.8V456.8H113.8V327.8Z" fill="white"/>
<path d="M206.6 352.8H182.9L183 327.8L206.6 352.8Z" fill="#E9E8E4"/>
<path d="M175 345.7H121.4V341.2H175V345.7Z" fill="#E9E8E4"/>
<path d="M175 357.7H121.4V353.3H175V357.7Z" fill="#E9E8E4"/>
<path d="M198.9 369.7H121.4V365.3H198.9V369.7Z" fill="#E9E8E4"/>
<path d="M188.6 381.8H121.4V377.4H188.6V381.8Z" fill="#E9E8E4"/>
<path d="M195.6 393.8H121.4V389.4H195.6V393.8Z" fill="#E9E8E4"/>
<path d="M188.6 405.9H121.4V401.4H188.6V405.9Z" fill="#E9E8E4"/>
<path d="M188.6 430H121.4V425.5H188.6V430Z" fill="#E9E8E4"/>
<path d="M198.9 417.9H121.4V413.5H198.9V417.9Z" fill="#E9E8E4"/>
<path d="M198.9 442H121.4V437.6H198.9V442Z" fill="#E9E8E4"/>
<path d="M454.4 165.3C454.4 165.3 460 170.7 460 196.1" stroke="#1C9D81" stroke-width="3" stroke-linecap="round" stroke-linejoin="round"/>
<path d="M479 160.2C479 160.2 455.6 159.2 460 181.1C473.6 181.1 481.6 176.1 479 160.2Z" fill="#1C9D81"/>
<path d="M473.6 181.1C463.5 181.1 460 189.8 460 196.1C460 196.1 459.967 196 459.9 195.8C459.833 196 459.8 196.1 459.8 196.1C459.8 189.8 456.3 181.1 446.2 181.1C436.1 181.1 425.5 193.8 425.5 211.1C425.5 228.3 438.6 246.8 449.4 246.8C460.2 246.8 457.7 241 459.8 241C459.867 241 459.9 241 459.9 241C459.9 241 459.933 241 460 241C462.1 241 459.6 246.8 470.4 246.8C481.2 246.8 494.3 228.3 494.3 211.1C494.3 193.8 483.7 181.1 473.6 181.1Z" fill="#E53328"/>
<path d="M423.4 526.4H373.7V473.1H423.4V526.4Z" fill="#3B3533"/>
<path d="M566.8 479.9C566.8 486.4 561.5 491.7 555 491.7H242.1C235.6 491.7 230.3 486.4 230.3 479.9V276.6C230.3 270.1 235.6 264.8 242.1 264.8H555C561.5 264.8 566.8 270.1 566.8 276.6V479.9Z" fill="#3B3533"/>
<path d="M566.8 486.1C566.8 492.6 561.5 497.9 555 497.9H242.1C235.6 497.9 230.3 492.6 230.3 486.1V282.8C230.3 276.3 235.6 271 242.1 271H555C561.5 271 566.8 276.3 566.8 282.8V486.1Z" fill="#3B3A39"/>
<path d="M230.3 471V486.1C230.3 492.6 235.6 497.9 242.1 497.9H555C561.5 497.9 566.8 492.6 566.8 486.1V471H230.3Z" fill="white"/>
<path d="M553.4 460.8H243.7V279.8H553.4V460.8Z" fill="white"/>
<path d="M449.8 537.3H347.3V523.6H449.8V537.3Z" fill="white"/>
<path d="M504.9 433.1H292.1V426.7H504.9V433.1Z" fill="#00719D"/>
<path d="M345 444.3H292.1V437.3H345V444.3Z" fill="#00719D"/>
<path d="M504 444.3H372.1V437.9H504V444.3Z" fill="#00719D"/>
<path d="M506.9 417.6H475.1V315.1H506.9V417.6Z" fill="#E53328"/>
<path d="M454.4 417.6H425.5V332.9H454.4V417.6Z" fill="#FF9E22"/>
<path d="M367 417.6H335.2V335.7H367V417.6Z" fill="#1DB0D2"/>
<path d="M414 417.6H385.1V368.2H414V417.6Z" fill="#56698F"/>
<path d="M320.7 417.6H288.9V384.4H320.7V417.6Z" fill="#FCEA32"/>
<path d="M672.5 529.1H657.7V497.4H672.5V529.1Z" fill="#F0DC16"/>
<path d="M696.3 533.1C696.3 524.9 689.6 518.3 681.4 518.3H648.6C640.4 518.3 633.7 524.9 633.7 533.1C659.2 533.1 665.3 533.1 696.3 533.1Z" fill="#FCEA32"/>
<path d="M640.1 433C640.1 433 633.2 432.8 626.2 432.8C619.3 432.8 617 436.5 617 439.3C617 442.2 617 443.3 617 451.2C617 459.1 633.5 469.6 635.1 469.6C636.8 469.6 648.4 469.4 648.4 469.4V480.5C648.4 480.5 642.7 480.5 633.8 480.5C625 480.5 606.4 460.3 606.4 454.9C606.4 449.6 606.4 448.6 606.4 438.5C606.4 428.5 618.4 422.6 624 422.6C629.5 422.6 635 422.6 641 422.6L640.1 433Z" fill="#F0DC16"/>
<path d="M688.7 433C688.7 433 695.5 432.8 702.5 432.8C709.5 432.8 711.8 436.5 711.8 439.3C711.8 442.2 711.8 443.3 711.8 451.2C711.8 459.1 695.2 469.6 693.6 469.6C692 469.6 680.4 469.4 680.4 469.4V480.5C680.4 480.5 686.1 480.5 694.9 480.5C703.7 480.5 722.4 460.3 722.4 454.9C722.4 449.6 722.4 448.6 722.4 438.5C722.4 428.5 710.3 422.6 704.8 422.6C699.3 422.6 693.8 422.6 687.8 422.6L688.7 433Z" fill="#F0DC16"/>
<path d="M630 466.3C630 485.3 645.7 500.8 665.1 500.8C684.4 500.8 700.1 485.3 700.1 466.3V408.9H630V466.3Z" fill="#FCEA32"/>
<path d="M630 466.3C630 485.3 645.7 500.8 665.1 500.8C684.4 500.8 700.1 485.3 700.1 466.3V415.5H630V466.3Z" fill="#FCEF67"/>
<path d="M665.1 434.8L670.5 445.8L682.6 447.6L673.8 456.2L675.9 468.3L665.1 462.5L654.2 468.3L656.3 456.2L647.5 447.6L659.6 445.8L665.1 434.8Z" fill="#F0DC16"/>
<path d="M292.2 597.1C289.8 601.3 286.9 603.5 281.8 603.5C277.6 603.5 274.1 599.5 274.1 594.7C274.1 590.1 277.2 584.8 285.6 581.4C279.4 578.6 276.9 574.4 276.9 570.5C276.9 566.1 280.1 562.4 284.9 562.4C289.1 562.4 289.3 566.2 289.3 567.3C289.3 568.9 288 572.2 286.4 572.7C287.6 574.2 289.1 574.4 290.1 574.4C293.5 574.4 294.7 571.8 294.7 568.3C294.7 561.9 288.7 559.5 282.6 559.5C273.2 559.5 267.9 565.4 267.9 571.4C267.9 575.2 270 579 274.5 581.5C266.5 583.1 262.5 589.7 262.5 596.1C262.5 602.9 267.1 609.4 276.2 609.4C282.4 609.4 290.2 607.4 293.7 597.8L292.2 597.1ZM307.8 589.1H294.6L293.4 594.3H306.6L307.8 589.1ZM337.5 560.3C336.7 560.2 335.8 560.1 334.9 560.1C323.9 560.1 311.7 568.5 311.7 577.3C311.7 582 314.2 583.7 318.8 583.7C318.7 583.1 317.9 582.6 317.9 579.2C317.9 572.1 321.4 567.2 327.1 564.8L317.3 610.6C317.8 610.5 318.3 610.5 318.8 610.5C330.5 610.5 338.8 625.5 348.2 625.5C351.8 625.5 354.4 621.4 355.1 615.1C353.2 615.9 351.3 616.2 349.5 616.2C341.1 616.2 334.2 609.2 327.4 607.7L337.5 560.3ZM344.9 598.5C344.9 597.7 344.9 596.8 345.1 595.7C351.3 594.9 360 590.3 360 582.2C360 577.6 356.9 575.4 351.5 575.4C339.5 575.4 336 590.1 336 598.5C336 604.1 339.4 609 345.7 609C354.2 609 360.6 602.3 364.3 595.5H361.4C359.1 600.4 353.5 604.2 350.3 604.2C347.7 604.2 344.9 602.9 344.9 598.5ZM356 582.6C355.9 587.2 351.7 592.5 345.6 592.5C347 586.3 350 578.9 353.7 578.9C355.7 578.9 356 581.2 356 582.6ZM382.1 576L381.8 577.7C380.6 576.7 378.9 576 377.3 576C364.1 576 360 589.6 360 601C360 604.9 361.9 609.4 368.2 609.4C372.3 609.4 375.2 606.6 377.2 603.9C378.1 607.4 381 609 385.3 609C390.4 609 397.9 600.2 400.9 597.1H398.6C396 599.3 392.6 603 389.9 603C387.3 603 386.6 601.9 386.6 600.4C386.6 599.9 386.8 599.1 386.9 598.4L391.7 576H382.1ZM377.8 579.7C378.7 579.7 379.9 580 381 580.9L377.3 598.4C377.1 599.2 377 599.9 376.9 600.6C375.7 602.4 374.2 603.9 372.7 603.9C371 603.9 368.9 603.2 368.9 599.2C368.9 590.2 372.8 579.7 377.8 579.7ZM399 576L392 609H401.5L407 583.1C408.5 581.7 409.6 581 411.6 581C413.5 581 411.7 585.3 415.4 585.3C418.6 585.3 420.3 582.5 420.3 580.2C420.3 577.7 418.5 576 415.6 576C412.8 576 410.2 577.4 407.8 579.3L408.5 576H399ZM449.5 585.8C449.6 585.3 449.6 584.7 449.6 584.2C449.6 579.8 445.6 576 442 576C439.1 576 436.1 577.5 433.4 579.5L434.2 576H424.7L417.7 609H427.2L432.8 582.3C434.2 581.4 435.4 580.9 437 580.9C438.7 580.9 440 582.4 440 584.8C440 585.3 439.9 585.9 439.8 586.5L437.3 598.4C437 599.7 436.9 600.7 436.9 601.8C436.9 606.7 439.9 609 445.1 609C450.2 609 455.2 601.8 458.3 598.8H456C453.4 600.9 452.4 603 449.8 603C447.2 603 446.5 602 446.5 600.5C446.5 599.9 446.6 599.1 446.8 598.4L449.5 585.8ZM457.5 576L452.7 598.4C452.5 599.7 452.3 600.8 452.3 601.8C452.3 606.7 455.5 609 460.6 609C465.7 609 473.2 600.2 476.2 597.2H474C471.3 599.3 467.9 603 465.3 603C462.6 603 462 601.9 462 600.5C462 599.9 462.1 599.1 462.2 598.4L467 576H457.5ZM458.7 567.3C458.7 570.2 461.1 572.5 464 572.5C466.9 572.5 469.2 570.2 469.2 567.3C469.2 564.4 466.9 562 464 562C461.1 562 458.7 564.4 458.7 567.3ZM499.9 585.8C500.1 585.3 500.1 584.7 500.1 584.2C500.1 579.8 496 576 492.5 576C489.6 576 486.5 577.6 483.8 579.5L484.6 576H475.1L468.1 609H477.6L483.2 582.3C484.6 581.4 485.8 580.9 487.4 580.9C489.2 580.9 490.4 582.4 490.4 584.8C490.4 585.3 490.4 585.9 490.2 586.5L487.7 598.4C487.5 599.7 487.3 600.7 487.3 601.8C487.3 606.7 490.4 609 495.5 609C500.7 609 505.7 601.8 508.7 598.8H506.5C503.8 600.9 502.8 603 500.2 603C497.6 603 496.9 602 496.9 600.5C496.9 599.9 497 599.1 497.2 598.4L499.9 585.8ZM510.6 609.4C513.6 609.4 516.2 608.2 518.2 606.6L517.4 610.2C511.3 611.3 506.4 612.3 506.4 618.3C506.4 622.6 510.1 625.5 514.2 625.5C518.5 625.5 524.2 623.7 526.2 614.3L534.2 576H524.7L524 579.1C523 577.4 521.1 576 518.7 576C505.9 576 502.4 591.9 502.4 601C502.4 604.9 504.3 609.4 510.6 609.4ZM519.5 579.7C520.6 579.7 522.2 580.6 523.3 582.6L519.2 601.7C517.9 603 516.6 603.9 515.4 603.9C512.5 603.9 510.5 602.9 510.5 599.7C510.5 594.1 513.1 579.7 519.5 579.7ZM510 617.4C510 613.9 512.9 613 517 612.3L516.6 614.4C515.7 618.3 514 619.6 512.7 619.6C511.2 619.6 510 618.3 510 617.4Z" fill="#FF9E22"/>
<path fill-rule="evenodd" clip-rule="evenodd" d="M668.4 343C668.4 343 668.3 342.9 668 342.8C667.8 342.7 667.5 342.6 667.2 342.5C666.5 342.2 665.9 341.9 665.9 341.9C665.6 341.7 665.4 341.4 665.4 341.1C665.4 341.1 665.3 340.3 665.4 339.5C665.4 338.8 665.5 338 665.5 338C665.6 337.7 665.4 337.4 665.2 337.2C665.2 337.2 664.8 336.9 664.4 336.6C664 336.2 663.7 335.9 663.7 335.9C663.7 335.9 663.3 335.5 663 335.1C662.7 334.7 662.4 334.3 662.4 334.3C662.2 334.1 661.9 333.9 661.6 334C661.6 334 660.8 334 660.1 334C659.3 334.1 658.5 334 658.5 334C658.2 334 657.9 333.8 657.8 333.4C657.8 333.4 657.5 332.8 657.2 332.2C657.1 331.8 657 331.5 656.9 331.3C656.8 331 656.8 330.8 656.8 330.8C656.733 330.667 656.7 330.5 656.7 330.3C656.7 330.167 656.767 330.033 656.9 329.9C656.9 329.9 657.5 329.3 658 328.8C658.3 328.5 658.6 328.3 658.8 328.1C659 327.9 659.2 327.8 659.2 327.8C659.4 327.6 659.6 327.3 659.5 327C659.5 327 659.5 326.9 659.5 326.7C659.5 326.5 659.4 326.3 659.4 326C659.4 325.5 659.4 325 659.4 325C659.4 325 659.4 324.5 659.5 324C659.5 323.8 659.5 323.5 659.5 323.3C659.6 323.1 659.6 323 659.6 323C659.6 322.7 659.5 322.4 659.3 322.2C659.3 322.2 659.1 322.1 658.9 321.9C658.7 321.7 658.4 321.5 658.2 321.2C657.6 320.7 657.1 320.1 657.1 320.1C656.967 319.967 656.9 319.8 656.9 319.6C656.9 319.467 656.933 319.3 657 319.1C657 319.1 657 318.9 657.1 318.7C657.2 318.5 657.3 318.1 657.5 317.8C657.8 317.2 658.1 316.6 658.1 316.6C658.2 316.2 658.6 316 658.9 316C658.9 316 659.7 316 660.4 316C661.2 316.1 661.9 316.2 661.9 316.2C662.2 316.2 662.5 316.1 662.7 315.8C662.7 315.8 663 315.4 663.4 315.1C663.7 314.7 664.1 314.3 664.1 314.3C664.1 314.3 664.5 314 664.8 313.7C665.2 313.3 665.6 313 665.6 313C665.9 312.9 666 312.6 666 312.3C666 312.3 665.9 311.5 665.9 310.7C665.9 310 665.9 309.2 665.9 309.2C666 308.9 666.2 308.6 666.5 308.4C666.5 308.4 667.2 308.1 667.8 307.9C668.1 307.7 668.4 307.6 668.7 307.5C668.9 307.5 669.1 307.4 669.1 307.4C669.3 307.333 669.467 307.333 669.6 307.4C669.8 307.4 669.967 307.467 670.1 307.6C670.1 307.6 670.6 308.1 671.1 308.7C671.4 309 671.6 309.3 671.8 309.5C672 309.7 672.1 309.9 672.1 309.9C672.3 310.1 672.6 310.2 672.9 310.2C672.9 310.2 673 310.2 673.2 310.1C673.4 310.1 673.7 310.1 673.9 310.1C674.4 310.1 674.9 310.1 674.9 310.1C674.9 310.1 675.4 310.1 675.9 310.1C676.2 310.1 676.4 310.2 676.6 310.2C676.8 310.267 676.9 310.3 676.9 310.3C677.2 310.3 677.6 310.2 677.7 310C677.7 310 677.9 309.8 678 309.6C678.2 309.4 678.5 309.1 678.8 308.8C679.3 308.3 679.9 307.7 679.9 307.7C680.033 307.633 680.167 307.6 680.3 307.6C680.5 307.533 680.667 307.533 680.8 307.6C680.8 307.6 681 307.7 681.2 307.8C681.5 307.9 681.8 308 682.1 308.1C682.8 308.4 683.4 308.7 683.4 308.7C683.7 308.9 683.9 309.2 683.9 309.5C683.9 309.5 684 310.3 683.9 311.1C683.9 311.8 683.8 312.6 683.8 312.6C683.7 312.9 683.9 313.2 684.1 313.4C684.1 313.4 684.5 313.7 684.9 314C685.2 314.4 685.6 314.7 685.6 314.7C685.6 314.7 685.9 315.1 686.3 315.5C686.6 315.9 686.9 316.3 686.9 316.3C687.1 316.5 687.4 316.7 687.7 316.6C687.7 316.6 688.4 316.6 689.2 316.6C690 316.5 690.8 316.6 690.8 316.6C691.1 316.6 691.4 316.8 691.5 317.2C691.5 317.2 691.8 317.8 692.1 318.4C692.2 318.8 692.3 319.1 692.4 319.3C692.5 319.6 692.5 319.7 692.5 319.7C692.567 319.9 692.6 320.1 692.6 320.3C692.533 320.433 692.467 320.567 692.4 320.7C692.4 320.7 691.8 321.3 691.3 321.8C691 322.1 690.7 322.3 690.5 322.5C690.2 322.7 690.1 322.8 690.1 322.8C689.9 322.9 689.7 323.2 689.8 323.6C689.8 323.6 689.8 323.7 689.8 323.9C689.8 324.1 689.8 324.3 689.8 324.6C689.9 325.1 689.9 325.6 689.9 325.6C689.9 325.6 689.8 326.1 689.8 326.6C689.8 326.8 689.8 327.1 689.7 327.3C689.7 327.5 689.7 327.6 689.7 327.6C689.6 327.9 689.8 328.2 690 328.4C690 328.4 690.1 328.5 690.4 328.7C690.6 328.9 690.8 329.1 691.1 329.4C691.7 329.9 692.2 330.5 692.2 330.5C692.333 330.633 692.4 330.8 692.4 331C692.4 331.133 692.367 331.3 692.3 331.5C692.3 331.5 692.3 331.7 692.2 331.9C692.1 332.1 692 332.5 691.8 332.8C691.5 333.4 691.2 334 691.2 334C691.1 334.4 690.7 334.6 690.4 334.6C690.4 334.6 689.6 334.6 688.9 334.6C688.1 334.5 687.3 334.4 687.3 334.4C687.1 334.4 686.8 334.5 686.6 334.8C686.6 334.8 686.3 335.2 685.9 335.5C685.6 335.9 685.2 336.3 685.2 336.3C685.2 336.3 684.8 336.6 684.5 336.9C684.1 337.3 683.7 337.6 683.7 337.6C683.4 337.7 683.3 338 683.3 338.3C683.3 338.3 683.4 339.1 683.4 339.9C683.4 340.6 683.3 341.4 683.3 341.4C683.3 341.7 683.1 342 682.8 342.2C682.8 342.2 682.1 342.5 681.5 342.7C681.2 342.9 680.8 343 680.6 343.1C680.4 343.1 680.2 343.2 680.2 343.2C680 343.267 679.833 343.267 679.7 343.2C679.5 343.2 679.333 343.133 679.2 343C679.2 343 678.7 342.5 678.1 341.9C677.9 341.6 677.6 341.3 677.5 341.1C677.3 340.9 677.2 340.7 677.2 340.7C677 340.5 676.7 340.4 676.4 340.4C676.4 340.4 676.3 340.4 676.1 340.5C675.9 340.5 675.6 340.5 675.4 340.5C674.9 340.5 674.4 340.5 674.4 340.5C674.4 340.5 673.9 340.5 673.4 340.5C673.1 340.4 672.8 340.4 672.7 340.4C672.5 340.333 672.367 340.3 672.3 340.3C672 340.3 671.7 340.4 671.5 340.6C671.5 340.6 671.4 340.8 671.2 341C671.1 341.2 670.8 341.5 670.5 341.8C670 342.3 669.4 342.8 669.4 342.8C669.267 342.933 669.133 343 669 343C668.8 343.067 668.6 343.067 668.4 343ZM673.4 335.9C673.533 335.9 673.633 335.9 673.7 335.9C673.833 335.9 673.967 335.9 674.1 335.9C674.3 335.967 674.4 336 674.4 336C674.467 336 674.6 336 674.8 336C674.933 335.933 675.067 335.9 675.2 335.9C675.267 335.9 675.367 335.9 675.5 335.9C675.567 335.9 675.667 335.9 675.8 335.9C676 335.9 676.2 335.867 676.4 335.8C676.6 335.8 676.8 335.7 677.1 335.7C677.233 335.633 677.333 335.6 677.4 335.6C677.533 335.533 677.667 335.5 677.8 335.5C678.067 335.433 678.3 335.333 678.5 335.2C678.767 335.133 679.033 335.033 679.3 334.9L679.4 334.8L679.6 334.7C679.733 334.633 679.833 334.6 679.9 334.6C680.4 334.3 680.7 334 681 333.8C681.2 333.733 681.367 333.633 681.5 333.5C681.567 333.367 681.667 333.267 681.8 333.2C681.933 333.067 682 333 682 333C682.067 333 682.167 332.9 682.3 332.7C682.367 332.633 682.467 332.533 682.6 332.4C682.733 332.267 682.833 332.133 682.9 332C683.2 331.7 683.5 331.3 683.7 330.9C683.767 330.833 683.833 330.733 683.9 330.6L684 330.4L684.1 330.3C684.167 330.033 684.267 329.8 684.4 329.6C684.533 329.333 684.633 329.067 684.7 328.8C684.767 328.733 684.8 328.633 684.8 328.5C684.867 328.367 684.9 328.233 684.9 328.1C685 327.9 685.1 327.6 685.1 327.4C685.1 327.2 685.133 327 685.2 326.8C685.2 326.733 685.2 326.633 685.2 326.5C685.267 326.433 685.3 326.367 685.3 326.3C685.3 326.1 685.3 325.967 685.3 325.9C685.3 325.633 685.3 325.5 685.3 325.5C685.3 325.5 685.3 325.367 685.3 325.1C685.3 325.033 685.3 324.9 685.3 324.7C685.3 324.633 685.3 324.567 685.3 324.5C685.3 324.367 685.267 324.267 685.2 324.2C685.2 324 685.2 323.8 685.2 323.6C685.1 323.3 685.1 323.1 685 322.9C685 322.767 684.967 322.633 684.9 322.5C684.9 322.367 684.867 322.233 684.8 322.1C684.733 321.9 684.667 321.667 684.6 321.4C684.467 321.133 684.367 320.9 684.3 320.7L684.2 320.5L684.1 320.3C684.033 320.233 683.967 320.133 683.9 320C683.7 319.6 683.4 319.2 683.2 318.9C683.067 318.767 682.933 318.633 682.8 318.5C682.733 318.367 682.667 318.267 682.6 318.2C682.4 318 682.3 317.9 682.3 317.9C682.3 317.9 682.233 317.8 682.1 317.6C681.967 317.533 681.867 317.467 681.8 317.4C681.667 317.267 681.533 317.133 681.4 317C681 316.8 680.7 316.5 680.3 316.2C680.167 316.133 680.033 316.067 679.9 316L679.8 315.9H679.6C679.4 315.767 679.167 315.633 678.9 315.5C678.633 315.433 678.4 315.333 678.2 315.2C678.067 315.2 677.933 315.167 677.8 315.1C677.667 315.1 677.567 315.067 677.5 315C677.2 315 677 314.9 676.8 314.8C676.533 314.8 676.3 314.767 676.1 314.7C676.033 314.7 675.967 314.7 675.9 314.7C675.767 314.7 675.667 314.7 675.6 314.7C675.467 314.7 675.333 314.7 675.2 314.7C674.933 314.633 674.8 314.6 674.8 314.6C674.8 314.6 674.7 314.6 674.5 314.6C674.367 314.6 674.233 314.633 674.1 314.7C673.967 314.7 673.867 314.7 673.8 314.7C673.733 314.7 673.633 314.7 673.5 314.7C673.3 314.7 673.1 314.733 672.9 314.8C672.7 314.8 672.4 314.9 672.2 314.9C672.067 314.967 671.933 315 671.8 315C671.733 315.067 671.633 315.1 671.5 315.1C671.233 315.167 670.967 315.267 670.7 315.4C670.5 315.467 670.267 315.567 670 315.7L669.9 315.8L669.7 315.9C669.567 315.9 669.467 315.933 669.4 316C668.9 316.3 668.6 316.6 668.2 316.8C668.067 316.867 667.933 316.967 667.8 317.1C667.667 317.233 667.567 317.333 667.5 317.4C667.3 317.533 667.2 317.6 667.2 317.6C667.2 317.6 667.133 317.7 667 317.9C666.933 317.967 666.833 318.067 666.7 318.2C666.567 318.333 666.467 318.467 666.4 318.6C666.1 318.9 665.8 319.3 665.6 319.7C665.533 319.767 665.467 319.867 665.4 320L665.3 320.2L665.2 320.3C665.067 320.567 664.967 320.8 664.9 321C664.767 321.267 664.667 321.533 664.6 321.8C664.533 321.867 664.5 321.967 664.5 322.1C664.433 322.233 664.4 322.367 664.4 322.5C664.3 322.7 664.2 322.9 664.2 323.2C664.133 323.4 664.1 323.6 664.1 323.8C664.1 323.867 664.067 323.967 664 324.1C664 324.167 664 324.233 664 324.3C664 324.5 664 324.633 664 324.7C664 324.967 664 325.1 664 325.1C664 325.1 664 325.233 664 325.5C664 325.567 664 325.7 664 325.9C664 325.967 664 326.033 664 326.1C664 326.233 664 326.333 664 326.4C664.067 326.6 664.1 326.8 664.1 327C664.1 327.3 664.2 327.5 664.3 327.7C664.3 327.833 664.3 327.967 664.3 328.1C664.367 328.233 664.433 328.367 664.5 328.5C664.567 328.7 664.633 328.933 664.7 329.2C664.833 329.467 664.933 329.7 665 329.9L665.1 330.1L665.2 330.3C665.267 330.367 665.333 330.467 665.4 330.6C665.6 331 665.9 331.4 666.1 331.7C666.233 331.833 666.367 331.967 666.5 332.1C666.567 332.233 666.633 332.333 666.7 332.4C666.9 332.6 667 332.7 667 332.7C667 332.7 667.067 332.767 667.2 332.9C667.333 333.033 667.433 333.133 667.5 333.2C667.633 333.333 667.767 333.467 667.9 333.6C668.3 333.8 668.6 334.1 669 334.4C669.133 334.467 669.233 334.533 669.3 334.6L669.5 334.7H669.7C669.9 334.833 670.133 334.967 670.4 335.1C670.6 335.167 670.833 335.267 671.1 335.4C671.233 335.4 671.367 335.433 671.5 335.5C671.633 335.5 671.733 335.533 671.8 335.6C672.1 335.6 672.3 335.7 672.5 335.7C672.767 335.767 672.967 335.8 673.1 335.8C673.233 335.867 673.333 335.9 673.4 335.9Z" fill="#FEFCF7"/>
<path fill-rule="evenodd" clip-rule="evenodd" d="M660.7 380.5C660.7 380.5 660.5 380.4 660.3 380.3C660 380.2 659.7 380.1 659.4 380C658.8 379.7 658.2 379.4 658.2 379.4C657.8 379.2 657.6 378.9 657.6 378.6C657.6 378.6 657.6 377.8 657.6 377C657.6 376.3 657.8 375.5 657.8 375.5C657.8 375.2 657.7 374.9 657.4 374.7C657.4 374.7 657 374.4 656.7 374.1C656.3 373.7 655.9 373.4 655.9 373.4C655.9 373.4 655.6 373 655.3 372.6C654.9 372.2 654.6 371.8 654.6 371.8C654.5 371.6 654.2 371.4 653.9 371.5C653.9 371.5 653.1 371.5 652.3 371.5C651.6 371.6 650.8 371.5 650.8 371.5C650.5 371.5 650.1 371.3 650 370.9C650 370.9 649.7 370.3 649.4 369.7C649.3 369.3 649.2 369 649.1 368.8C649.1 368.5 649 368.4 649 368.4C648.933 368.2 648.9 368 648.9 367.8C648.967 367.667 649.067 367.533 649.2 367.4C649.2 367.4 649.7 366.8 650.3 366.3C650.6 366.1 650.9 365.8 651.1 365.6C651.3 365.4 651.4 365.3 651.4 365.3C651.7 365.2 651.8 364.9 651.8 364.6C651.8 364.6 651.8 364.4 651.7 364.2C651.7 364 651.7 363.8 651.7 363.5C651.7 363 651.7 362.5 651.7 362.5C651.7 362.5 651.7 362 651.7 361.5C651.7 361.3 651.8 361 651.8 360.8C651.8 360.6 651.8 360.5 651.8 360.5C651.9 360.2 651.8 359.9 651.6 359.7C651.6 359.7 651.4 359.6 651.2 359.4C651 359.2 650.7 359 650.4 358.7C649.9 358.2 649.3 357.6 649.3 357.6C649.233 357.467 649.167 357.3 649.1 357.1C649.1 356.967 649.133 356.8 649.2 356.6C649.2 356.6 649.3 356.4 649.4 356.2C649.5 356 649.6 355.6 649.7 355.3C650 354.7 650.3 354.1 650.3 354.1C650.5 353.7 650.8 353.5 651.1 353.5C651.1 353.5 651.9 353.5 652.7 353.5C653.4 353.6 654.2 353.7 654.2 353.7C654.5 353.7 654.8 353.6 655 353.3C655 353.3 655.3 352.9 655.6 352.6C656 352.2 656.3 351.8 656.3 351.8C656.3 351.8 656.7 351.5 657.1 351.2C657.5 350.8 657.9 350.5 657.9 350.5C658.1 350.4 658.3 350.1 658.2 349.8C658.2 349.8 658.1 349 658.1 348.2C658.1 347.5 658.2 346.7 658.2 346.7C658.2 346.4 658.4 346.1 658.8 345.9C658.8 345.9 659.4 345.6 660 345.4C660.4 345.2 660.7 345.1 660.9 345C661.2 345 661.3 344.9 661.3 344.9C661.5 344.833 661.7 344.833 661.9 344.9C662.033 344.9 662.167 344.967 662.3 345.1C662.3 345.1 662.9 345.6 663.4 346.2C663.6 346.5 663.9 346.8 664.1 347C664.2 347.2 664.4 347.4 664.4 347.4C664.5 347.6 664.8 347.7 665.1 347.7C665.1 347.7 665.3 347.7 665.5 347.6C665.6 347.6 665.9 347.6 666.2 347.6C666.7 347.6 667.2 347.6 667.2 347.6C667.2 347.6 667.7 347.6 668.2 347.6C668.4 347.7 668.7 347.7 668.9 347.7C669.1 347.767 669.2 347.8 669.2 347.8C669.5 347.8 669.8 347.7 670 347.5C670 347.5 670.1 347.3 670.3 347.1C670.5 346.9 670.7 346.6 671 346.3C671.5 345.8 672.1 345.3 672.1 345.3C672.233 345.167 672.4 345.1 672.6 345.1C672.733 345.033 672.9 345.033 673.1 345.1C673.1 345.1 673.3 345.2 673.5 345.3C673.7 345.4 674.1 345.5 674.4 345.6C675 345.9 675.6 346.2 675.6 346.2C676 346.4 676.2 346.7 676.2 347C676.2 347 676.2 347.8 676.2 348.6C676.1 349.3 676 350.1 676 350.1C676 350.4 676.1 350.7 676.3 350.9C676.3 350.9 676.8 351.2 677.1 351.5C677.5 351.9 677.9 352.2 677.9 352.2C677.9 352.2 678.2 352.6 678.5 353C678.9 353.4 679.2 353.8 679.2 353.8C679.3 354 679.6 354.2 679.9 354.1C679.9 354.1 680.7 354.1 681.4 354.1C682.2 354.1 683 354.1 683 354.1C683.3 354.1 683.6 354.3 683.8 354.7C683.8 354.7 684.1 355.3 684.3 356C684.5 356.3 684.6 356.6 684.7 356.8C684.7 357.1 684.8 357.3 684.8 357.3C684.867 357.433 684.867 357.6 684.8 357.8C684.8 357.933 684.733 358.067 684.6 358.2C684.6 358.2 684.1 358.8 683.5 359.3C683.2 359.6 682.9 359.8 682.7 360C682.5 360.2 682.3 360.3 682.3 360.3C682.1 360.5 682 360.8 682 361.1C682 361.1 682 361.2 682 361.4C682.1 361.6 682.1 361.8 682.1 362.1C682.1 362.6 682.1 363.1 682.1 363.1C682.1 363.1 682.1 363.6 682.1 364.1C682 364.4 682 364.6 682 364.8C682 365 681.9 365.1 681.9 365.1C681.9 365.4 682 365.7 682.2 365.9C682.2 365.9 682.4 366 682.6 366.2C682.8 366.4 683.1 366.6 683.4 366.9C683.9 367.4 684.4 368 684.4 368C684.533 368.133 684.6 368.3 684.6 368.5C684.667 368.633 684.667 368.8 684.6 369C684.6 369 684.5 369.2 684.4 369.4C684.3 369.7 684.2 370 684.1 370.3C683.8 370.9 683.5 371.5 683.5 371.5C683.3 371.9 683 372.1 682.7 372.1C682.7 372.1 681.9 372.1 681.1 372.1C680.4 372 679.6 371.9 679.6 371.9C679.3 371.9 679 372 678.8 372.3C678.8 372.3 678.5 372.7 678.2 373C677.8 373.4 677.5 373.8 677.5 373.8C677.5 373.8 677.1 374.1 676.7 374.4C676.3 374.8 675.9 375.1 675.9 375.1C675.7 375.2 675.5 375.5 675.5 375.8C675.5 375.8 675.6 376.6 675.6 377.4C675.6 378.1 675.6 378.9 675.6 378.9C675.6 379.2 675.4 379.6 675 379.7C675 379.7 674.4 380 673.7 380.3C673.4 380.4 673.1 380.5 672.9 380.6C672.6 380.6 672.4 380.7 672.4 380.7C672.267 380.767 672.1 380.767 671.9 380.7C671.767 380.7 671.633 380.633 671.5 380.5C671.5 380.5 670.9 380 670.4 379.4C670.1 379.1 669.9 378.8 669.7 378.6C669.5 378.4 669.4 378.2 669.4 378.2C669.2 378 668.9 377.9 668.6 377.9C668.6 377.9 668.5 377.9 668.3 378C668.1 378 667.9 378 667.6 378C667.1 378 666.6 378 666.6 378C666.6 378 666.1 378 665.6 378C665.3 378 665.1 377.9 664.9 377.9C664.7 377.9 664.6 377.867 664.6 377.8C664.3 377.8 664 377.9 663.8 378.1C663.8 378.1 663.7 378.3 663.5 378.5C663.3 378.7 663.1 379 662.8 379.3C662.2 379.8 661.7 380.4 661.7 380.4C661.567 380.467 661.4 380.533 661.2 380.6C661.067 380.6 660.9 380.567 660.7 380.5ZM665.7 373.4C665.767 373.4 665.833 373.4 665.9 373.4C666.1 373.4 666.233 373.4 666.3 373.4C666.567 373.467 666.7 373.5 666.7 373.5C666.7 373.5 666.833 373.5 667.1 373.5C667.167 373.5 667.3 373.467 667.5 373.4C667.567 373.4 667.633 373.4 667.7 373.4C667.833 373.4 667.933 373.4 668 373.4C668.2 373.4 668.4 373.367 668.6 373.3C668.9 373.3 669.1 373.2 669.3 373.2C669.433 373.133 669.567 373.1 669.7 373.1C669.833 373.033 669.967 373 670.1 373C670.3 372.933 670.533 372.833 670.8 372.7C671.067 372.633 671.3 372.533 671.5 372.4L671.7 372.3L671.8 372.2C671.933 372.2 672.067 372.167 672.2 372.1C672.6 371.8 673 371.5 673.3 371.3C673.433 371.233 673.567 371.133 673.7 371C673.833 370.867 673.933 370.767 674 370.7C674.2 370.567 674.3 370.5 674.3 370.5C674.3 370.5 674.367 370.4 674.5 370.2C674.633 370.133 674.733 370.033 674.8 369.9C674.933 369.833 675.067 369.7 675.2 369.5C675.4 369.2 675.7 368.9 675.9 368.4C675.967 368.333 676.033 368.233 676.1 368.1L676.2 367.9L676.3 367.8C676.433 367.533 676.567 367.3 676.7 367.1C676.767 366.833 676.833 366.567 676.9 366.3C676.967 366.233 677.033 366.133 677.1 366C677.1 365.867 677.133 365.733 677.2 365.6C677.2 365.4 677.3 365.2 677.3 364.9C677.367 364.7 677.4 364.5 677.4 364.3C677.467 364.233 677.5 364.133 677.5 364C677.5 363.933 677.5 363.867 677.5 363.8C677.5 363.6 677.5 363.467 677.5 363.4C677.567 363.133 677.6 363 677.6 363C677.6 363 677.567 362.867 677.5 362.6C677.5 362.533 677.5 362.4 677.5 362.2C677.5 362.133 677.5 362.067 677.5 362C677.5 361.867 677.5 361.767 677.5 361.7C677.5 361.5 677.467 361.3 677.4 361.1C677.4 360.8 677.3 360.6 677.3 360.4C677.233 360.267 677.2 360.133 677.2 360C677.133 359.867 677.1 359.733 677.1 359.6C677.033 359.4 676.933 359.167 676.8 358.9C676.733 358.633 676.633 358.4 676.5 358.2L676.4 358L676.3 357.8C676.233 357.733 676.167 357.633 676.1 357.5C675.9 357.1 675.6 356.7 675.4 356.4C675.333 356.267 675.233 356.133 675.1 356C674.967 355.867 674.867 355.767 674.8 355.7C674.667 355.5 674.6 355.4 674.6 355.4C674.6 355.4 674.5 355.333 674.3 355.2C674.233 355.067 674.133 354.967 674 354.9C673.867 354.767 673.733 354.633 673.6 354.5C673.3 354.3 672.9 354 672.5 353.7C672.433 353.7 672.333 353.667 672.2 353.6L672 353.4H671.9C671.633 353.267 671.4 353.133 671.2 353C670.933 352.933 670.667 352.833 670.4 352.7C670.267 352.7 670.167 352.667 670.1 352.6C669.967 352.6 669.833 352.567 669.7 352.5C669.5 352.5 669.2 352.4 669 352.4C668.8 352.333 668.6 352.3 668.4 352.3C668.267 352.233 668.167 352.2 668.1 352.2C668.033 352.2 667.967 352.2 667.9 352.2C667.7 352.2 667.533 352.2 667.4 352.2C667.2 352.133 667.1 352.1 667.1 352.1C667.1 352.1 666.967 352.133 666.7 352.2C666.633 352.2 666.5 352.2 666.3 352.2C666.233 352.2 666.167 352.2 666.1 352.2C665.967 352.2 665.867 352.2 665.8 352.2C665.6 352.2 665.367 352.233 665.1 352.3C664.9 352.3 664.7 352.4 664.5 352.4C664.367 352.467 664.233 352.5 664.1 352.5C663.967 352.567 663.833 352.6 663.7 352.6C663.5 352.667 663.267 352.767 663 352.9C662.733 352.967 662.5 353.067 662.3 353.2L662.1 353.3L661.9 353.4C661.833 353.467 661.733 353.5 661.6 353.5C661.2 353.8 660.8 354.1 660.5 354.3C660.3 354.367 660.167 354.467 660.1 354.6C659.967 354.733 659.867 354.833 659.8 354.9C659.6 355.033 659.5 355.1 659.5 355.1C659.5 355.1 659.4 355.2 659.2 355.4C659.133 355.467 659.067 355.567 659 355.7C658.867 355.833 658.733 355.967 658.6 356.1C658.4 356.4 658.1 356.8 657.8 357.2C657.733 357.267 657.667 357.367 657.6 357.5L657.5 357.7V357.8C657.367 358.067 657.233 358.3 657.1 358.5C657.033 358.767 656.933 359.033 656.8 359.3C656.8 359.367 656.767 359.467 656.7 359.6C656.7 359.733 656.667 359.867 656.6 360C656.6 360.2 656.5 360.5 656.4 360.7C656.4 360.9 656.367 361.1 656.3 361.3C656.3 361.367 656.3 361.467 656.3 361.6C656.3 361.667 656.3 361.733 656.3 361.8C656.3 362 656.3 362.133 656.3 362.2C656.233 362.467 656.2 362.6 656.2 362.6C656.2 362.6 656.2 362.733 656.2 363C656.2 363.067 656.2 363.2 656.2 363.4C656.267 363.467 656.3 363.533 656.3 363.6C656.3 363.733 656.3 363.833 656.3 363.9C656.3 364.1 656.333 364.3 656.4 364.5C656.4 364.8 656.5 365 656.5 365.2C656.567 365.333 656.6 365.467 656.6 365.6C656.6 365.733 656.633 365.867 656.7 366C656.767 366.2 656.867 366.433 657 366.7C657.067 366.967 657.167 367.2 657.3 367.4L657.4 367.6L657.5 367.8C657.5 367.867 657.533 367.967 657.6 368.1C657.9 368.5 658.1 368.9 658.4 369.2C658.467 369.333 658.567 369.467 658.7 369.6C658.833 369.733 658.933 369.833 659 369.9C659.133 370.1 659.2 370.2 659.2 370.2C659.2 370.2 659.3 370.3 659.5 370.5C659.567 370.567 659.667 370.633 659.8 370.7C659.867 370.833 660 370.967 660.2 371.1C660.5 371.3 660.8 371.6 661.3 371.9C661.367 371.967 661.467 372.033 661.6 372.1L661.8 372.2H661.9C662.167 372.333 662.4 372.467 662.6 372.6C662.867 372.667 663.133 372.767 663.4 372.9C663.467 372.9 663.567 372.933 663.7 373C663.833 373 663.967 373.033 664.1 373.1C664.3 373.1 664.5 373.2 664.8 373.3C665 373.3 665.2 373.333 665.4 373.4C665.467 373.4 665.567 373.4 665.7 373.4Z" fill="#FEFCF7"/>
<path fill-rule="evenodd" clip-rule="evenodd" d="M624.1 369.7C624.1 369.7 623.9 369.7 623.5 369.6C623.1 369.6 622.5 369.6 622 369.5C620.9 369.3 619.9 369 619.9 369C619.3 368.9 618.9 368.5 618.7 368.1C618.7 368.1 618.4 366.9 618.1 365.7C617.9 364.5 617.7 363.3 617.7 363.3C617.7 362.9 617.4 362.5 616.9 362.3C616.9 362.3 616.2 362 615.5 361.6C614.8 361.2 614.1 360.8 614.1 360.8C614.1 360.8 613.5 360.4 612.8 359.9C612.1 359.5 611.6 359 611.6 359C611.2 358.7 610.7 358.6 610.3 358.8C610.3 358.8 609.1 359.2 608 359.5C606.8 359.8 605.6 360 605.6 360C605.2 360.1 604.6 359.9 604.2 359.5C604.2 359.5 603.6 358.6 602.9 357.8C602.6 357.3 602.3 356.9 602.1 356.5C601.8 356.2 601.7 356 601.7 356C601.567 355.733 601.467 355.467 601.4 355.2C601.4 354.933 601.467 354.7 601.6 354.5C601.6 354.5 602.2 353.4 602.8 352.4C603.1 351.9 603.5 351.4 603.7 351C604 350.7 604.2 350.4 604.2 350.4C604.5 350.1 604.6 349.6 604.4 349.1C604.4 349.1 604.3 348.9 604.2 348.7C604.1 348.4 604 348 603.8 347.6C603.6 346.9 603.4 346.1 603.4 346.1C603.4 346.1 603.2 345.3 603.1 344.5C603 344.1 602.9 343.8 602.9 343.5C602.9 343.2 602.9 343 602.9 343C602.8 342.5 602.5 342.1 602.1 341.9C602.1 341.9 601.8 341.8 601.4 341.6C601.1 341.4 600.5 341.1 600 340.8C599 340.2 597.9 339.5 597.9 339.5C597.7 339.367 597.567 339.167 597.5 338.9C597.367 338.633 597.333 338.367 597.4 338.1C597.4 338.1 597.4 337.8 597.4 337.4C597.5 337 597.5 336.5 597.6 336C597.8 334.9 598 333.8 598 333.8C598.1 333.3 598.5 332.8 599 332.7C599 332.7 600.2 332.3 601.3 332.1C602.5 331.8 603.7 331.7 603.7 331.7C604.2 331.6 604.6 331.3 604.7 330.9C604.7 330.9 605 330.1 605.4 329.5C605.8 328.8 606.2 328.1 606.2 328.1C606.2 328.1 606.6 327.4 607.1 326.7C607.5 326.1 608 325.5 608 325.5C608.3 325.1 608.4 324.6 608.2 324.2C608.2 324.2 607.8 323 607.5 321.9C607.2 320.8 607 319.5 607 319.5C606.9 319.1 607.1 318.5 607.5 318.1C607.5 318.1 608.4 317.4 609.2 316.8C609.6 316.5 610.1 316.2 610.4 315.9C610.8 315.7 611 315.6 611 315.6C611.267 315.4 611.533 315.3 611.8 315.3C612.067 315.3 612.3 315.333 612.5 315.4C612.5 315.4 613.6 316.1 614.6 316.7C615.1 317 615.6 317.4 615.9 317.6C616.3 317.9 616.5 318.1 616.5 318.1C616.9 318.4 617.4 318.5 617.8 318.3C617.8 318.3 618 318.2 618.3 318.1C618.6 318 618.9 317.9 619.3 317.7C620.1 317.5 620.8 317.3 620.8 317.3C620.8 317.3 621.6 317.1 622.4 317C622.8 316.9 623.2 316.8 623.5 316.8C623.8 316.8 624 316.8 624 316.8C624.4 316.7 624.8 316.4 625 316C625 316 625.2 315.7 625.4 315.3C625.5 314.9 625.8 314.4 626.1 313.9C626.7 312.9 627.4 311.8 627.4 311.8C627.533 311.6 627.733 311.433 628 311.3C628.2 311.233 628.467 311.2 628.8 311.2C628.8 311.2 629.1 311.3 629.5 311.3C629.9 311.4 630.4 311.4 630.9 311.5C632 311.7 633 311.9 633 311.9C633.6 312 634.1 312.4 634.2 312.9C634.2 312.9 634.5 314.1 634.8 315.3C635 316.4 635.2 317.6 635.2 317.6C635.2 318.1 635.5 318.5 636 318.7C636 318.7 636.7 318.9 637.4 319.4C638.1 319.7 638.8 320.1 638.8 320.1C638.8 320.1 639.4 320.6 640.1 321C640.8 321.4 641.4 322 641.4 322C641.7 322.3 642.2 322.4 642.7 322.2C642.7 322.2 643.8 321.8 644.9 321.5C646.1 321.1 647.3 320.9 647.3 320.9C647.7 320.8 648.3 321 648.7 321.5C648.7 321.5 649.4 322.3 650 323.2C650.3 323.6 650.6 324.1 650.8 324.4C651.1 324.7 651.2 325 651.2 325C651.4 325.2 651.5 325.433 651.5 325.7C651.5 326.033 651.433 326.3 651.3 326.5C651.3 326.5 650.7 327.6 650.1 328.6C649.8 329.1 649.4 329.6 649.2 329.9C648.9 330.3 648.7 330.5 648.7 330.5C648.4 330.9 648.4 331.4 648.5 331.8C648.5 331.8 648.6 332 648.7 332.3C648.8 332.6 649 332.9 649.1 333.3C649.3 334.1 649.5 334.8 649.5 334.8C649.5 334.8 649.7 335.6 649.8 336.4C649.9 336.8 650 337.2 650 337.5C650 337.8 650 338 650 338C650.1 338.5 650.4 338.9 650.8 339.1C650.8 339.1 651.1 339.2 651.5 339.4C651.9 339.6 652.4 339.9 652.9 340.2C653.9 340.7 655 341.4 655 341.4C655.2 341.533 655.333 341.733 655.4 342C655.533 342.267 655.567 342.533 655.5 342.8C655.5 342.8 655.5 343.1 655.5 343.5C655.4 343.9 655.4 344.5 655.3 345C655.1 346 654.9 347.1 654.9 347.1C654.8 347.7 654.4 348.1 653.9 348.3C653.9 348.3 652.7 348.6 651.6 348.9C650.4 349.1 649.2 349.2 649.2 349.2C648.8 349.3 648.4 349.6 648.2 350.1C648.2 350.1 647.9 350.8 647.5 351.5C647.1 352.2 646.7 352.9 646.7 352.9C646.7 352.9 646.3 353.5 645.8 354.2C645.4 354.9 644.9 355.5 644.9 355.5C644.6 355.8 644.5 356.3 644.7 356.8C644.7 356.8 645.1 357.9 645.4 359C645.7 360.2 646 361.4 646 361.4C646 361.9 645.9 362.5 645.4 362.8C645.4 362.8 644.5 363.5 643.7 364.2C643.3 364.5 642.8 364.8 642.5 365C642.1 365.2 641.9 365.4 641.9 365.4C641.633 365.533 641.367 365.6 641.1 365.6C640.833 365.667 640.6 365.633 640.4 365.5C640.4 365.5 639.3 364.9 638.3 364.2C637.8 363.9 637.3 363.6 637 363.3C636.6 363 636.4 362.8 636.4 362.8C636 362.6 635.5 362.5 635.1 362.7C635.1 362.7 634.9 362.7 634.6 362.9C634.4 363 634 363.1 633.6 363.2C632.8 363.4 632.1 363.6 632.1 363.6C632.1 363.6 631.3 363.8 630.5 363.9C630.1 364 629.7 364.1 629.4 364.1C629.2 364.1 629 364.2 629 364.2C628.5 364.2 628.1 364.5 627.9 364.9C627.9 364.9 627.8 365.2 627.6 365.6C627.4 366 627.1 366.5 626.8 367C626.2 368.1 625.5 369.1 625.5 369.1C625.367 369.3 625.167 369.467 624.9 369.6C624.7 369.667 624.433 369.7 624.1 369.7ZM628.8 357C628.933 357 629.067 356.967 629.2 356.9C629.467 356.9 629.667 356.867 629.8 356.8C630.2 356.733 630.4 356.7 630.4 356.7C630.4 356.7 630.567 356.633 630.9 356.5C631.1 356.5 631.3 356.467 631.5 356.4C631.633 356.333 631.767 356.267 631.9 356.2C632.033 356.2 632.167 356.167 632.3 356.1C632.633 355.967 632.967 355.833 633.3 355.7C633.6 355.6 633.9 355.4 634.2 355.2C634.4 355.133 634.6 355.033 634.8 354.9C634.933 354.833 635.1 354.733 635.3 354.6C635.6 354.4 635.9 354.2 636.3 354C636.567 353.733 636.867 353.467 637.2 353.2L637.5 353L637.7 352.8C637.833 352.667 637.967 352.533 638.1 352.4C638.7 351.9 639.1 351.3 639.5 350.8C639.7 350.6 639.8 350.4 640 350.2C640.133 350 640.233 349.8 640.3 349.6C640.567 349.333 640.7 349.2 640.7 349.2C640.7 349.2 640.767 349.033 640.9 348.7C641.033 348.5 641.133 348.3 641.2 348.1C641.4 347.9 641.5 347.6 641.6 347.3C641.8 346.8 642.1 346.1 642.3 345.4C642.367 345.2 642.433 345 642.5 344.8L642.6 344.5V344.2C642.733 343.8 642.833 343.4 642.9 343C642.9 342.6 643 342.2 643 341.8C643 341.6 643.033 341.4 643.1 341.2C643.1 341 643.1 340.833 643.1 340.7C643 340.3 643.1 339.9 643 339.5C643 339.167 642.967 338.867 642.9 338.6C642.9 338.4 642.9 338.233 642.9 338.1C642.9 337.967 642.867 337.833 642.8 337.7C642.8 337.5 642.767 337.3 642.7 337.1C642.633 336.7 642.6 336.5 642.6 336.5C642.6 336.5 642.533 336.333 642.4 336C642.4 335.8 642.367 335.6 642.3 335.4C642.233 335.267 642.2 335.133 642.2 335C642.133 334.867 642.067 334.733 642 334.6C641.867 334.267 641.733 333.967 641.6 333.7C641.5 333.3 641.3 333 641.1 332.7C641.033 332.5 640.967 332.3 640.9 332.1C640.767 331.967 640.633 331.8 640.5 331.6C640.3 331.3 640.1 330.9 639.9 330.6C639.633 330.267 639.367 329.967 639.1 329.7L638.9 329.4L638.7 329.2C638.567 329.067 638.433 328.933 638.3 328.8C637.8 328.2 637.2 327.8 636.8 327.4C636.5 327.2 636.3 327 636.1 326.9C635.9 326.767 635.733 326.633 635.6 326.5C635.267 326.3 635.1 326.2 635.1 326.2C635.1 326.2 634.933 326.1 634.6 325.9C634.467 325.833 634.267 325.733 634 325.6C633.8 325.5 633.6 325.4 633.3 325.3C632.7 325 632.1 324.7 631.3 324.5C631.167 324.433 631 324.4 630.8 324.4L630.5 324.3L630.2 324.2C629.8 324.133 629.4 324.067 629 324C628.6 323.9 628.2 323.9 627.8 323.8C627.6 323.8 627.4 323.8 627.2 323.8C627 323.8 626.8 323.8 626.6 323.8C626.2 323.8 625.9 323.8 625.5 323.8C625.167 323.867 624.833 323.9 624.5 323.9C624.367 323.9 624.233 323.9 624.1 323.9C623.967 323.967 623.833 324 623.7 324C623.433 324.067 623.233 324.1 623.1 324.1C622.7 324.167 622.5 324.2 622.5 324.2C622.5 324.2 622.333 324.267 622 324.4C621.8 324.467 621.6 324.533 621.4 324.6C621.267 324.6 621.133 324.633 621 324.7C620.867 324.767 620.733 324.833 620.6 324.9C620.267 324.967 619.967 325.067 619.7 325.2C619.3 325.4 619 325.6 618.7 325.7C618.5 325.833 618.333 325.933 618.2 326C618 326.067 617.833 326.167 617.7 326.3C617.3 326.5 617 326.7 616.6 327C616.333 327.267 616.033 327.5 615.7 327.7L615.5 327.9L615.2 328.1C615.067 328.233 614.933 328.4 614.8 328.6C614.3 329.1 613.8 329.6 613.4 330.1C613.2 330.3 613.1 330.6 612.9 330.8C612.767 331 612.667 331.167 612.6 331.3C612.4 331.633 612.3 331.8 612.3 331.8C612.233 331.8 612.133 331.967 612 332.3C611.933 332.433 611.833 332.633 611.7 332.9C611.6 333.1 611.4 333.3 611.3 333.6C611.1 334.2 610.8 334.8 610.6 335.6C610.533 335.733 610.467 335.9 610.4 336.1L610.3 336.4V336.7C610.233 337.1 610.133 337.5 610 337.9C610 338.3 610 338.7 609.9 339.1C609.9 339.3 609.867 339.5 609.8 339.7C609.867 339.9 609.9 340.1 609.9 340.3C609.9 340.7 609.8 341 609.9 341.4C609.9 341.733 609.933 342.067 610 342.4C610 342.533 610 342.667 610 342.8C610 342.933 610.033 343.067 610.1 343.2C610.167 343.467 610.2 343.7 610.2 343.9C610.267 344.233 610.3 344.4 610.3 344.4C610.3 344.4 610.367 344.567 610.5 344.9C610.5 345.1 610.567 345.333 610.7 345.6C610.7 345.733 610.733 345.867 610.8 346C610.8 346.067 610.833 346.2 610.9 346.4C611.033 346.667 611.167 346.967 611.3 347.3C611.4 347.6 611.6 347.9 611.8 348.3C611.867 348.433 611.967 348.6 612.1 348.8C612.167 349 612.267 349.167 612.4 349.3C612.6 349.6 612.8 350 613 350.3C613.267 350.633 613.533 350.967 613.8 351.3L614 351.5L614.2 351.7C614.333 351.833 614.467 351.967 614.6 352.1C615.1 352.7 615.7 353.1 616.1 353.5C616.4 353.8 616.6 353.9 616.8 354C617 354.2 617.2 354.333 617.4 354.4C617.667 354.6 617.8 354.7 617.8 354.7C617.8 354.7 617.967 354.8 618.3 355C618.5 355.067 618.7 355.167 618.9 355.3C619.1 355.4 619.3 355.6 619.6 355.7C620.2 355.9 620.8 356.2 621.6 356.4C621.8 356.467 621.967 356.533 622.1 356.6L622.4 356.7H622.7C623.1 356.767 623.5 356.867 623.9 357C624.3 357 624.7 357 625.1 357.1C625.3 357.1 625.5 357.133 625.7 357.2C625.9 357.2 626.1 357.167 626.3 357.1C626.7 357.1 627 357.2 627.4 357.1C627.733 357.1 628.067 357.067 628.4 357C628.533 357 628.667 357 628.8 357Z" fill="#FEFCF7"/>
<path fill-rule="evenodd" clip-rule="evenodd" d="M200.4 595.8C200.4 595.8 200.3 595.7 200 595.6C199.8 595.5 199.4 595.4 199.1 595.3C198.5 595 197.9 594.7 197.9 594.7C197.5 594.5 197.3 594.2 197.3 593.9C197.3 593.9 197.3 593.1 197.4 592.3C197.4 591.6 197.5 590.8 197.5 590.8C197.5 590.5 197.4 590.2 197.2 590C197.2 590 196.8 589.7 196.4 589.4C196 589 195.7 588.7 195.7 588.7C195.7 588.7 195.3 588.3 195 587.9C194.6 587.6 194.4 587.1 194.4 587.1C194.2 586.9 193.9 586.7 193.6 586.8C193.6 586.8 192.8 586.9 192.1 586.9C191.3 586.9 190.5 586.8 190.5 586.8C190.2 586.8 189.9 586.6 189.7 586.2C189.7 586.2 189.5 585.6 189.2 585C189 584.6 188.9 584.3 188.9 584.1C188.8 583.8 188.7 583.7 188.7 583.7C188.633 583.5 188.633 583.3 188.7 583.1C188.7 582.967 188.767 582.833 188.9 582.7C188.9 582.7 189.4 582.1 190 581.6C190.3 581.4 190.6 581.1 190.8 580.9C191 580.8 191.2 580.6 191.2 580.6C191.4 580.5 191.5 580.2 191.5 579.9C191.5 579.9 191.5 579.7 191.5 579.5C191.4 579.4 191.4 579.1 191.4 578.9C191.4 578.3 191.4 577.8 191.4 577.8C191.4 577.8 191.4 577.3 191.5 576.8C191.5 576.6 191.5 576.3 191.5 576.1C191.6 575.9 191.6 575.8 191.6 575.8C191.6 575.5 191.5 575.2 191.3 575C191.3 575 191.1 574.9 190.9 574.7C190.7 574.5 190.4 574.3 190.2 574C189.6 573.5 189.1 572.9 189.1 572.9C188.967 572.767 188.9 572.6 188.9 572.4C188.833 572.267 188.833 572.1 188.9 571.9C188.9 571.9 189 571.8 189.1 571.5C189.2 571.3 189.3 570.9 189.4 570.6C189.7 570 190 569.4 190 569.4C190.2 569 190.5 568.8 190.8 568.8C190.8 568.8 191.6 568.8 192.4 568.8C193.2 568.9 193.9 569 193.9 569C194.2 569 194.5 568.9 194.7 568.7C194.7 568.7 195 568.2 195.4 567.9C195.7 567.5 196.1 567.1 196.1 567.1C196.1 567.1 196.4 566.8 196.8 566.5C197.2 566.1 197.6 565.8 197.6 565.8C197.9 565.7 198 565.4 198 565.1C198 565.1 197.9 564.3 197.9 563.6C197.9 562.8 197.9 562 197.9 562C197.9 561.7 198.2 561.4 198.5 561.2C198.5 561.2 199.1 560.9 199.8 560.7C200.1 560.5 200.4 560.4 200.7 560.4C200.9 560.3 201.1 560.2 201.1 560.2C201.233 560.133 201.4 560.133 201.6 560.2C201.8 560.2 201.933 560.267 202 560.4C202 560.4 202.6 560.9 203.1 561.5C203.4 561.8 203.6 562.1 203.8 562.3C204 562.5 204.1 562.7 204.1 562.7C204.3 562.9 204.6 563 204.9 563C204.9 563 205 563 205.2 563C205.4 562.9 205.6 562.9 205.9 562.9C206.4 562.9 206.9 562.9 206.9 562.9C206.9 562.9 207.4 562.9 207.9 562.9C208.2 563 208.4 563 208.6 563C208.8 563.067 208.9 563.1 208.9 563.1C209.2 563.1 209.5 563 209.7 562.8C209.7 562.8 209.8 562.6 210 562.4C210.2 562.2 210.5 561.9 210.7 561.6C211.3 561.1 211.9 560.6 211.9 560.6C211.967 560.467 212.1 560.4 212.3 560.4C212.5 560.333 212.667 560.333 212.8 560.4C212.8 560.4 213 560.5 213.2 560.6C213.5 560.7 213.8 560.8 214.1 560.9C214.7 561.2 215.4 561.5 215.4 561.5C215.7 561.7 215.9 562 215.9 562.3C215.9 562.3 215.9 563.1 215.9 563.9C215.9 564.6 215.8 565.4 215.8 565.4C215.7 565.7 215.8 566 216.1 566.2C216.1 566.2 216.5 566.5 216.9 566.8C217.2 567.2 217.6 567.5 217.6 567.5C217.6 567.5 217.9 567.9 218.3 568.3C218.6 568.7 218.9 569.1 218.9 569.1C219.1 569.4 219.4 569.5 219.7 569.5C219.7 569.5 220.4 569.4 221.2 569.4C221.9 569.4 222.7 569.4 222.7 569.4C223 569.4 223.4 569.6 223.5 570C223.5 570 223.8 570.6 224.1 571.3C224.2 571.6 224.3 571.9 224.4 572.2C224.5 572.4 224.5 572.6 224.5 572.6C224.567 572.733 224.6 572.9 224.6 573.1C224.533 573.233 224.467 573.367 224.4 573.5C224.4 573.5 223.8 574.1 223.2 574.6C222.9 574.9 222.7 575.1 222.4 575.3C222.2 575.5 222.1 575.6 222.1 575.6C221.8 575.8 221.7 576.1 221.7 576.4C221.7 576.4 221.733 576.5 221.8 576.7C221.8 576.9 221.8 577.1 221.8 577.4C221.8 577.9 221.9 578.4 221.9 578.4C221.9 578.4 221.8 578.9 221.8 579.4C221.8 579.7 221.8 579.9 221.7 580.1C221.7 580.3 221.7 580.4 221.7 580.4C221.6 580.7 221.7 581 222 581.2C222 581.2 222.1 581.3 222.3 581.5C222.5 581.7 222.8 582 223.1 582.2C223.6 582.8 224.2 583.4 224.2 583.4C224.267 583.467 224.333 583.6 224.4 583.8C224.4 583.933 224.367 584.1 224.3 584.3C224.3 584.3 224.2 584.5 224.2 584.7C224.1 585 224 585.3 223.8 585.6C223.5 586.2 223.2 586.8 223.2 586.8C223 587.2 222.7 587.4 222.4 587.4C222.4 587.4 221.6 587.4 220.8 587.4C220.1 587.4 219.3 587.2 219.3 587.2C219 587.2 218.7 587.3 218.5 587.6C218.5 587.6 218.3 588 217.9 588.3C217.5 588.7 217.2 589.1 217.2 589.1C217.2 589.1 216.8 589.4 216.4 589.7C216.1 590.1 215.6 590.4 215.6 590.4C215.4 590.6 215.3 590.9 215.3 591.1C215.3 591.1 215.4 591.9 215.4 592.7C215.4 593.4 215.3 594.2 215.3 594.2C215.3 594.5 215.1 594.9 214.7 595C214.7 595 214.1 595.3 213.5 595.6C213.2 595.7 212.8 595.8 212.6 595.9C212.3 596 212.2 596 212.2 596C212 596.067 211.8 596.1 211.6 596.1C211.467 596.033 211.333 595.933 211.2 595.8C211.2 595.8 210.6 595.3 210.1 594.7C209.9 594.4 209.6 594.2 209.4 593.9C209.3 593.7 209.2 593.6 209.2 593.6C209 593.3 208.7 593.2 208.4 593.2C208.4 593.2 208.2 593.2 208.1 593.3C207.9 593.3 207.6 593.3 207.4 593.3C206.9 593.3 206.3 593.3 206.3 593.3C206.3 593.3 205.8 593.3 205.3 593.3C205.1 593.3 204.8 593.2 204.6 593.2C204.4 593.2 204.3 593.2 204.3 593.2C204 593.1 203.7 593.2 203.5 593.5C203.5 593.5 203.4 593.6 203.2 593.8C203 594 202.8 594.3 202.5 594.6C202 595.1 201.4 595.7 201.4 595.7C201.267 595.767 201.1 595.833 200.9 595.9C200.767 595.9 200.6 595.867 200.4 595.8ZM205.4 588.7C205.467 588.7 205.567 588.7 205.7 588.7C205.833 588.7 205.967 588.733 206.1 588.8C206.3 588.8 206.4 588.8 206.4 588.8C206.4 588.8 206.533 588.8 206.8 588.8C206.933 588.8 207.067 588.8 207.2 588.8C207.267 588.8 207.367 588.8 207.5 588.8C207.567 588.733 207.633 588.7 207.7 588.7C207.9 588.7 208.133 588.667 208.4 588.6C208.6 588.6 208.8 588.5 209.1 588.5C209.167 588.5 209.267 588.467 209.4 588.4C209.533 588.4 209.667 588.367 209.8 588.3C210.067 588.233 210.3 588.133 210.5 588C210.767 587.933 211 587.833 211.2 587.7H211.4L211.6 587.6C211.667 587.533 211.767 587.467 211.9 587.4C212.3 587.2 212.7 586.9 213 586.6C213.2 586.533 213.333 586.433 213.4 586.3C213.533 586.167 213.667 586.067 213.8 586C213.933 585.867 214 585.8 214 585.8C214 585.8 214.1 585.7 214.3 585.5C214.367 585.433 214.467 585.333 214.6 585.2C214.667 585.133 214.767 585 214.9 584.8C215.1 584.5 215.4 584.2 215.7 583.7C215.767 583.633 215.833 583.533 215.9 583.4L216 583.3L216.1 583.1C216.167 582.833 216.267 582.6 216.4 582.4C216.467 582.133 216.567 581.867 216.7 581.6C216.767 581.533 216.8 581.433 216.8 581.3C216.867 581.167 216.9 581.033 216.9 580.9C217 580.7 217 580.5 217.1 580.2C217.1 580 217.133 579.8 217.2 579.6C217.2 579.533 217.2 579.433 217.2 579.3C217.2 579.233 217.2 579.167 217.2 579.1C217.267 578.9 217.3 578.767 217.3 578.7C217.3 578.433 217.3 578.3 217.3 578.3C217.3 578.3 217.3 578.167 217.3 577.9C217.3 577.833 217.3 577.7 217.3 577.5C217.3 577.433 217.3 577.367 217.3 577.3C217.233 577.167 217.2 577.067 217.2 577C217.2 576.8 217.167 576.6 217.1 576.4C217.1 576.1 217 575.9 217 575.7C217 575.567 216.967 575.433 216.9 575.3C216.9 575.167 216.867 575.067 216.8 575C216.733 574.733 216.667 574.467 216.6 574.2C216.467 574 216.333 573.767 216.2 573.5V573.3L216.1 573.2C216.033 573.067 215.967 572.933 215.9 572.8C215.7 572.4 215.4 572 215.1 571.7C215.033 571.567 214.933 571.433 214.8 571.3C214.733 571.167 214.633 571.067 214.5 571C214.367 570.8 214.3 570.7 214.3 570.7C214.3 570.7 214.2 570.633 214 570.5C213.933 570.367 213.833 570.267 213.7 570.2C213.633 570.067 213.5 569.933 213.3 569.8C213 569.6 212.7 569.3 212.2 569.1C212.133 569.033 212.033 568.967 211.9 568.9L211.8 568.8L211.6 568.7C211.333 568.567 211.1 568.433 210.9 568.3C210.633 568.233 210.4 568.167 210.2 568.1C210.067 568.033 209.933 567.967 209.8 567.9C209.667 567.9 209.533 567.867 209.4 567.8C209.2 567.8 209 567.7 208.8 567.7C208.533 567.633 208.3 567.6 208.1 567.6C208.033 567.533 207.933 567.5 207.8 567.5C207.733 567.5 207.667 567.5 207.6 567.5C207.467 567.5 207.333 567.5 207.2 567.5C206.933 567.433 206.8 567.4 206.8 567.4C206.8 567.4 206.7 567.433 206.5 567.5C206.367 567.5 206.2 567.5 206 567.5C205.933 567.5 205.867 567.5 205.8 567.5C205.733 567.5 205.633 567.5 205.5 567.5C205.3 567.567 205.1 567.6 204.9 567.6C204.7 567.6 204.4 567.7 204.2 567.7C204.067 567.767 203.933 567.8 203.8 567.8C203.667 567.867 203.567 567.9 203.5 567.9C203.233 568.033 202.967 568.133 202.7 568.2C202.5 568.267 202.267 568.367 202 568.5L201.8 568.6L201.7 568.7C201.567 568.767 201.433 568.833 201.3 568.9C200.9 569.1 200.6 569.4 200.2 569.6C200.067 569.733 199.933 569.833 199.8 569.9C199.667 570.033 199.567 570.133 199.5 570.2C199.3 570.333 199.2 570.4 199.2 570.4C199.2 570.4 199.133 570.5 199 570.7C198.933 570.767 198.833 570.867 198.7 571C198.567 571.133 198.433 571.267 198.3 571.4C198.1 571.7 197.8 572.1 197.6 572.5C197.533 572.633 197.467 572.733 197.4 572.8L197.3 573L197.2 573.1C197.067 573.367 196.933 573.6 196.8 573.8C196.733 574.067 196.667 574.333 196.6 574.6C196.533 574.733 196.467 574.833 196.4 574.9C196.4 575.033 196.367 575.167 196.3 575.3C196.3 575.5 196.2 575.8 196.2 576C196.133 576.2 196.1 576.4 196.1 576.6C196.033 576.733 196 576.833 196 576.9C196 576.967 196 577.033 196 577.1C196 577.3 196 577.467 196 577.6C196 577.8 196 577.9 196 577.9C196 577.9 196 578.033 196 578.3C196 578.433 196 578.567 196 578.7C196 578.767 196 578.833 196 578.9C196 579.033 196 579.133 196 579.2C196.067 579.4 196.1 579.633 196.1 579.9C196.1 580.1 196.2 580.3 196.2 580.5C196.267 580.633 196.3 580.767 196.3 580.9C196.367 581.033 196.4 581.167 196.4 581.3C196.533 581.5 196.633 581.733 196.7 582C196.833 582.267 196.933 582.5 197 582.7L197.1 582.9L197.2 583.1C197.267 583.167 197.333 583.267 197.4 583.4C197.6 583.8 197.9 584.2 198.1 584.5C198.233 584.7 198.333 584.833 198.4 584.9C198.533 585.033 198.633 585.133 198.7 585.2C198.833 585.4 198.9 585.5 198.9 585.5C198.9 585.5 199 585.6 199.2 585.8C199.267 585.867 199.367 585.933 199.5 586C199.633 586.133 199.767 586.267 199.9 586.4C200.2 586.6 200.6 586.9 201 587.2C201.133 587.267 201.233 587.333 201.3 587.4L201.5 587.5L201.7 587.6C201.9 587.667 202.133 587.767 202.4 587.9C202.6 587.967 202.833 588.067 203.1 588.2C203.233 588.2 203.333 588.233 203.4 588.3C203.533 588.3 203.667 588.333 203.8 588.4C204 588.4 204.3 588.5 204.5 588.6C204.7 588.6 204.9 588.633 205.1 588.7C205.233 588.7 205.333 588.7 205.4 588.7Z" fill="#FFFEFC"/>
<path fill-rule="evenodd" clip-rule="evenodd" d="M167.4 627.1C167.4 627.1 167.2 627 166.9 626.9C166.7 626.9 166.4 626.7 166.1 626.6C165.4 626.3 164.8 626 164.8 626C164.5 625.8 164.3 625.5 164.3 625.2C164.3 625.2 164.2 624.4 164.3 623.6C164.3 622.9 164.4 622.1 164.4 622.1C164.5 621.8 164.3 621.5 164.1 621.3C164.1 621.3 163.7 621 163.3 620.7C163 620.3 162.6 620 162.6 620C162.6 620 162.3 619.6 161.9 619.2C161.6 618.9 161.3 618.4 161.3 618.4C161.1 618.2 160.8 618 160.5 618.1C160.5 618.1 159.8 618.2 159 618.2C158.2 618.2 157.4 618.1 157.4 618.1C157.1 618.1 156.8 617.9 156.7 617.5C156.7 617.5 156.4 616.9 156.1 616.3C156 616 155.9 615.6 155.8 615.4C155.7 615.1 155.7 615 155.7 615C155.633 614.8 155.6 614.6 155.6 614.4C155.667 614.267 155.733 614.133 155.8 614C155.8 614 156.4 613.4 156.9 612.9C157.2 612.7 157.5 612.4 157.7 612.2C158 612.1 158.1 611.9 158.1 611.9C158.3 611.8 158.5 611.5 158.4 611.2C158.4 611.133 158.4 611 158.4 610.8C158.4 610.7 158.4 610.4 158.4 610.2C158.3 609.6 158.3 609.1 158.3 609.1C158.3 609.1 158.4 608.6 158.4 608.1C158.4 607.9 158.4 607.6 158.5 607.4C158.5 607.2 158.5 607.1 158.5 607.1C158.6 606.8 158.4 606.5 158.2 606.3C158.2 606.3 158.1 606.2 157.8 606C157.6 605.8 157.4 605.6 157.1 605.3C156.5 604.8 156 604.2 156 604.2C155.867 604.067 155.8 603.9 155.8 603.7C155.8 603.567 155.833 603.4 155.9 603.2C155.9 603.2 155.9 603.1 156 602.8C156.1 602.6 156.2 602.2 156.4 601.9C156.7 601.3 157 600.7 157 600.7C157.1 600.3 157.5 600.1 157.8 600.1C157.8 600.1 158.6 600.1 159.3 600.1C160.1 600.2 160.8 600.3 160.8 600.3C161.1 600.3 161.4 600.2 161.6 600C161.6 600 161.9 599.5 162.3 599.2C162.6 598.8 163 598.4 163 598.4C163 598.4 163.4 598.1 163.7 597.8C164.1 597.4 164.5 597.2 164.5 597.2C164.8 597 164.9 596.7 164.9 596.4C164.9 596.4 164.8 595.6 164.8 594.9C164.8 594.1 164.9 593.3 164.9 593.3C164.9 593 165.1 592.7 165.4 592.5C165.4 592.5 166.1 592.2 166.7 592C167 591.8 167.4 591.7 167.6 591.7C167.8 591.6 168 591.5 168 591.5C168.2 591.433 168.367 591.433 168.5 591.5C168.7 591.5 168.867 591.567 169 591.7C169 591.7 169.5 592.2 170.1 592.8C170.3 593.1 170.6 593.4 170.7 593.6C170.9 593.8 171 594 171 594C171.2 594.2 171.5 594.3 171.8 594.3C171.8 594.3 171.9 594.3 172.1 594.3C172.3 594.2 172.6 594.2 172.8 594.2C173.3 594.2 173.8 594.2 173.8 594.2C173.8 594.2 174.3 594.2 174.8 594.3C175.1 594.3 175.4 594.3 175.5 594.3C175.7 594.367 175.833 594.4 175.9 594.4C176.2 594.4 176.5 594.3 176.6 594.1C176.6 594.1 176.8 593.9 177 593.7C177.1 593.5 177.4 593.2 177.7 592.9C178.2 592.4 178.8 591.9 178.8 591.9C178.933 591.767 179.067 591.7 179.2 591.7C179.4 591.633 179.6 591.633 179.8 591.7C179.8 591.7 179.9 591.8 180.2 591.9C180.4 592 180.7 592.1 181 592.2C181.7 592.5 182.3 592.8 182.3 592.8C182.6 593 182.8 593.3 182.8 593.6C182.8 593.6 182.9 594.4 182.8 595.2C182.8 595.9 182.7 596.7 182.7 596.7C182.6 597 182.8 597.3 183 597.5C183 597.5 183.4 597.8 183.8 598.1C184.2 598.5 184.5 598.8 184.5 598.8C184.5 598.8 184.9 599.2 185.2 599.6C185.5 600 185.8 600.4 185.8 600.4C186 600.7 186.3 600.8 186.6 600.8C186.6 600.8 187.4 600.7 188.1 600.7C188.9 600.7 189.7 600.7 189.7 600.7C190 600.7 190.3 601 190.4 601.3C190.4 601.3 190.7 601.9 191 602.6C191.1 602.9 191.2 603.2 191.3 603.5C191.4 603.7 191.4 603.9 191.4 603.9C191.467 604.033 191.5 604.2 191.5 604.4C191.5 604.6 191.433 604.733 191.3 604.8C191.3 604.8 190.7 605.4 190.2 605.9C189.9 606.2 189.6 606.4 189.4 606.6C189.2 606.8 189 606.9 189 606.9C188.8 607.1 188.6 607.4 188.7 607.7C188.7 607.7 188.7 607.8 188.7 608C188.7 608.2 188.8 608.4 188.8 608.7C188.8 609.2 188.8 609.7 188.8 609.7C188.8 609.7 188.8 610.2 188.7 610.7C188.7 611 188.7 611.2 188.6 611.4C188.6 611.6 188.6 611.7 188.6 611.7C188.5 612 188.7 612.3 188.9 612.5C188.9 612.5 189 612.6 189.3 612.8C189.5 613 189.8 613.3 190 613.5C190.6 614.1 191.1 614.7 191.1 614.7C191.233 614.767 191.3 614.9 191.3 615.1C191.3 615.233 191.267 615.4 191.2 615.6C191.2 615.6 191.2 615.8 191.1 616C191 616.3 190.9 616.6 190.7 616.9C190.4 617.5 190.1 618.1 190.1 618.1C190 618.5 189.6 618.7 189.3 618.7C189.3 618.7 188.5 618.7 187.8 618.7C187 618.7 186.3 618.5 186.3 618.5C186 618.5 185.7 618.6 185.5 618.9C185.5 618.9 185.2 619.3 184.8 619.6C184.5 620 184.1 620.4 184.1 620.4C184.1 620.4 183.7 620.7 183.4 621.1C183 621.4 182.6 621.7 182.6 621.7C182.3 621.9 182.2 622.2 182.2 622.4C182.2 622.4 182.3 623.2 182.3 624C182.3 624.7 182.3 625.5 182.3 625.5C182.2 625.8 182 626.2 181.7 626.3C181.7 626.3 181 626.6 180.4 626.9C180.1 627 179.8 627.1 179.5 627.2C179.3 627.3 179.1 627.3 179.1 627.3C178.9 627.367 178.733 627.4 178.6 627.4C178.4 627.333 178.233 627.233 178.1 627.1C178.1 627.1 177.6 626.6 177.1 626C176.8 625.7 176.6 625.5 176.4 625.2C176.2 625 176.1 624.9 176.1 624.9C175.9 624.6 175.6 624.5 175.3 624.5C175.3 624.5 175.2 624.6 175 624.6C174.8 624.6 174.5 624.6 174.3 624.6C173.8 624.6 173.3 624.6 173.3 624.6C173.3 624.6 172.8 624.6 172.3 624.6C172 624.6 171.8 624.6 171.6 624.5C171.4 624.5 171.3 624.5 171.3 624.5C171 624.4 170.6 624.5 170.5 624.8C170.5 624.8 170.3 624.9 170.2 625.1C170 625.3 169.7 625.6 169.4 625.9C168.9 626.4 168.3 627 168.3 627C168.167 627.067 168.033 627.133 167.9 627.2C167.7 627.2 167.533 627.167 167.4 627.1ZM172.3 620C172.433 620 172.533 620 172.6 620C172.733 620 172.867 620.033 173 620.1C173.267 620.1 173.4 620.1 173.4 620.1C173.4 620.1 173.5 620.1 173.7 620.1C173.833 620.1 173.967 620.1 174.1 620.1C174.233 620.1 174.333 620.1 174.4 620.1C174.467 620.033 174.567 620 174.7 620C174.9 620 175.1 619.967 175.3 619.9C175.5 619.9 175.7 619.8 176 619.8C176.133 619.8 176.267 619.767 176.4 619.7C176.467 619.7 176.567 619.667 176.7 619.6C176.967 619.533 177.233 619.433 177.5 619.3C177.7 619.233 177.933 619.133 178.2 619H178.3L178.5 618.9C178.633 618.833 178.733 618.767 178.8 618.7C179.3 618.5 179.6 618.2 180 617.9C180.133 617.833 180.267 617.733 180.4 617.6C180.533 617.467 180.633 617.367 180.7 617.3C180.9 617.167 181 617.1 181 617.1C181 617.1 181.067 617 181.2 616.8C181.267 616.733 181.367 616.633 181.5 616.5C181.633 616.433 181.733 616.3 181.8 616.1C182.1 615.8 182.4 615.5 182.6 615C182.667 614.933 182.733 614.833 182.8 614.7L182.9 614.6L183 614.4C183.133 614.133 183.233 613.9 183.3 613.7C183.433 613.433 183.533 613.2 183.6 613C183.667 612.867 183.7 612.733 183.7 612.6C183.767 612.467 183.8 612.333 183.8 612.2C183.9 612 184 611.8 184 611.5C184.067 611.3 184.1 611.1 184.1 610.9C184.1 610.833 184.133 610.733 184.2 610.6C184.2 610.533 184.2 610.467 184.2 610.4C184.2 610.2 184.2 610.067 184.2 610C184.2 609.733 184.2 609.6 184.2 609.6C184.2 609.6 184.2 609.5 184.2 609.3C184.2 609.167 184.2 609 184.2 608.8C184.2 608.733 184.2 608.667 184.2 608.6C184.2 608.533 184.2 608.433 184.2 608.3C184.133 608.1 184.1 607.9 184.1 607.7C184.1 607.5 184 607.2 183.9 607C183.9 606.867 183.9 606.733 183.9 606.6C183.833 606.467 183.767 606.367 183.7 606.3C183.633 606.033 183.567 605.767 183.5 605.5C183.367 605.3 183.267 605.067 183.2 604.8L183.1 604.6L183 604.5C182.933 604.367 182.867 604.233 182.8 604.1C182.6 603.7 182.3 603.3 182.1 603C181.967 602.867 181.833 602.733 181.7 602.6C181.633 602.467 181.567 602.367 181.5 602.3C181.3 602.1 181.2 602 181.2 602C181.2 602 181.133 601.933 181 601.8C180.867 601.667 180.767 601.567 180.7 601.5C180.567 601.367 180.433 601.233 180.3 601.1C179.9 600.9 179.6 600.6 179.2 600.4C179.067 600.333 178.967 600.267 178.9 600.2L178.7 600.1L178.5 600C178.3 599.867 178.067 599.733 177.8 599.6C177.6 599.533 177.367 599.467 177.1 599.4C176.967 599.333 176.833 599.267 176.7 599.2C176.567 599.2 176.467 599.167 176.4 599.1C176.1 599.1 175.9 599 175.7 599C175.433 598.933 175.233 598.9 175.1 598.9C174.967 598.833 174.867 598.8 174.8 598.8C174.667 598.8 174.567 598.8 174.5 598.8C174.367 598.8 174.233 598.8 174.1 598.8C173.9 598.733 173.8 598.7 173.8 598.7C173.733 598.7 173.6 598.733 173.4 598.8C173.267 598.8 173.133 598.8 173 598.8C172.933 598.8 172.833 598.8 172.7 598.8C172.633 598.8 172.533 598.8 172.4 598.8C172.2 598.867 172 598.9 171.8 598.9C171.6 598.9 171.4 599 171.1 599C170.967 599.067 170.867 599.1 170.8 599.1C170.667 599.167 170.533 599.2 170.4 599.2C170.133 599.333 169.9 599.433 169.7 599.5C169.433 599.633 169.167 599.733 168.9 599.8L168.8 599.9L168.6 600C168.467 600.067 168.367 600.133 168.3 600.2C167.8 600.4 167.5 600.7 167.2 600.9C167 601.033 166.833 601.133 166.7 601.2C166.633 601.333 166.533 601.433 166.4 601.5C166.267 601.633 166.167 601.7 166.1 601.7C166.1 601.7 166.033 601.8 165.9 602C165.833 602.067 165.733 602.167 165.6 602.3C165.467 602.433 165.367 602.567 165.3 602.7C165 603 164.7 603.4 164.5 603.8C164.433 603.933 164.367 604.033 164.3 604.1L164.2 604.3L164.1 604.5C164.033 604.7 163.933 604.933 163.8 605.2C163.667 605.4 163.567 605.633 163.5 605.9C163.433 606.033 163.4 606.133 163.4 606.2C163.333 606.333 163.3 606.467 163.3 606.6C163.2 606.8 163.1 607.1 163.1 607.3C163.1 607.5 163.067 607.7 163 607.9C163 608.033 163 608.133 163 608.2C162.933 608.267 162.9 608.333 162.9 608.4C162.9 608.6 162.9 608.767 162.9 608.9C162.9 609.1 162.9 609.2 162.9 609.2C162.9 609.2 162.9 609.333 162.9 609.6C162.9 609.733 162.9 609.867 162.9 610C162.9 610.067 162.9 610.167 162.9 610.3C162.9 610.367 162.933 610.433 163 610.5C163 610.7 163 610.933 163 611.2C163.1 611.4 163.1 611.6 163.2 611.9C163.2 611.967 163.233 612.067 163.3 612.2C163.3 612.333 163.333 612.467 163.4 612.6C163.467 612.867 163.533 613.1 163.6 613.3C163.733 613.567 163.833 613.8 163.9 614L164 614.2L164.1 614.4C164.167 614.467 164.233 614.567 164.3 614.7C164.5 615.1 164.8 615.5 165 615.8C165.133 616 165.267 616.133 165.4 616.2C165.467 616.333 165.533 616.433 165.6 616.5C165.8 616.7 165.9 616.8 165.9 616.8C165.9 616.8 165.967 616.9 166.1 617.1C166.233 617.167 166.333 617.267 166.4 617.4C166.533 617.467 166.667 617.567 166.8 617.7C167.2 617.9 167.5 618.2 167.9 618.5C168.033 618.567 168.167 618.633 168.3 618.7L168.4 618.8L168.6 618.9C168.8 618.967 169.033 619.067 169.3 619.2C169.567 619.267 169.8 619.367 170 619.5C170.133 619.5 170.267 619.533 170.4 619.6C170.533 619.667 170.633 619.7 170.7 619.7C171 619.8 171.2 619.8 171.4 619.9C171.667 619.9 171.9 619.933 172.1 620C172.167 620 172.233 620 172.3 620Z" fill="#FFFEFC"/>
<path fill-rule="evenodd" clip-rule="evenodd" d="M215.2 656.6C215.2 656.6 214.9 656.6 214.5 656.5C214.1 656.5 213.6 656.5 213.1 656.4C212 656.2 211 655.9 211 655.9C210.4 655.8 209.9 655.4 209.8 655C209.8 655 209.5 653.8 209.2 652.6C208.9 651.4 208.8 650.2 208.8 650.2C208.8 649.8 208.5 649.4 208 649.2C208 649.2 207.3 648.9 206.6 648.5C205.9 648.1 205.2 647.7 205.2 647.7C205.2 647.7 204.5 647.3 203.9 646.8C203.2 646.4 202.6 645.9 202.6 645.9C202.3 645.6 201.8 645.5 201.3 645.7C201.3 645.7 200.2 646.1 199.1 646.4C197.9 646.7 196.7 646.9 196.7 646.9C196.2 647 195.7 646.8 195.3 646.4C195.3 646.4 194.6 645.5 194 644.7C193.6 644.2 193.4 643.8 193.1 643.4C192.9 643.1 192.8 642.9 192.8 642.9C192.6 642.633 192.5 642.367 192.5 642.1C192.5 641.833 192.533 641.6 192.6 641.4C192.6 641.4 193.2 640.3 193.9 639.3C194.2 638.8 194.6 638.3 194.8 637.9C195.1 637.6 195.3 637.3 195.3 637.3C195.6 637 195.6 636.5 195.5 636C195.5 636 195.4 635.8 195.3 635.6C195.1 635.3 195 634.9 194.9 634.5C194.7 633.8 194.5 633 194.5 633C194.5 633 194.3 632.2 194.2 631.4C194.1 631 194 630.7 194 630.4C194 630.1 194 629.9 194 629.9C193.9 629.4 193.6 629 193.2 628.8C193.2 628.8 192.9 628.7 192.5 628.5C192.1 628.3 191.6 628 191.1 627.7C190 627.1 189 626.4 189 626.4C188.8 626.267 188.633 626.067 188.5 625.8C188.433 625.533 188.4 625.267 188.4 625C188.4 625 188.5 624.7 188.5 624.3C188.6 623.9 188.6 623.4 188.7 622.9C188.9 621.8 189.1 620.7 189.1 620.7C189.2 620.2 189.6 619.7 190.1 619.6C190.1 619.6 191.3 619.2 192.4 619C193.6 618.7 194.8 618.6 194.8 618.6C195.2 618.5 195.6 618.2 195.8 617.8C195.8 617.8 196.1 617 196.5 616.4C196.9 615.7 197.3 615 197.3 615C197.3 615 197.7 614.3 198.1 613.6C198.6 613 199.1 612.4 199.1 612.4C199.4 612 199.5 611.5 199.3 611.1C199.3 611.1 198.9 609.9 198.6 608.8C198.3 607.7 198 606.4 198 606.4C197.9 606 198.1 605.4 198.6 605C198.6 605 199.4 604.3 200.3 603.7C200.7 603.4 201.2 603.1 201.5 602.8C201.9 602.6 202.1 602.5 202.1 602.5C202.367 602.3 202.633 602.2 202.9 602.2C203.167 602.2 203.4 602.233 203.6 602.3C203.6 602.3 204.7 603 205.7 603.6C206.2 603.9 206.7 604.3 207 604.5C207.4 604.8 207.6 605 207.6 605C208 605.3 208.5 605.4 208.9 605.2C208.9 605.2 209.1 605.1 209.4 605C209.6 604.9 210 604.8 210.4 604.6C211.2 604.4 211.9 604.2 211.9 604.2C211.9 604.2 212.7 604 213.5 603.9C213.9 603.8 214.2 603.7 214.5 603.7C214.8 603.7 215 603.7 215 603.7C215.5 603.6 215.9 603.3 216.1 602.9C216.1 602.9 216.2 602.6 216.4 602.2C216.6 601.8 216.9 601.3 217.2 600.8C217.8 599.8 218.5 598.7 218.5 598.7C218.633 598.5 218.8 598.333 219 598.2C219.267 598.133 219.567 598.1 219.9 598.1C219.9 598.1 220.1 598.2 220.5 598.2C220.9 598.3 221.5 598.3 222 598.4C223.1 598.6 224.1 598.8 224.1 598.8C224.7 598.9 225.1 599.3 225.3 599.8C225.3 599.8 225.6 601 225.9 602.2C226.1 603.3 226.2 604.5 226.2 604.5C226.3 605 226.6 605.4 227 605.6C227 605.6 227.8 605.8 228.5 606.3C229.2 606.6 229.9 607 229.9 607C229.9 607 230.5 607.5 231.2 607.9C231.8 608.3 232.4 608.9 232.4 608.9C232.8 609.2 233.3 609.3 233.7 609.1C233.7 609.1 234.9 608.7 236 608.4C237.1 608 238.4 607.8 238.4 607.8C238.8 607.7 239.4 607.9 239.8 608.4C239.8 608.4 240.4 609.2 241.1 610.1C241.4 610.5 241.7 611 241.9 611.3C242.1 611.6 242.3 611.9 242.3 611.9C242.433 612.1 242.533 612.333 242.6 612.6C242.6 612.933 242.533 613.2 242.4 613.4C242.4 613.4 241.8 614.5 241.2 615.5C240.8 616 240.5 616.5 240.3 616.8C240 617.2 239.8 617.4 239.8 617.4C239.5 617.8 239.4 618.3 239.6 618.7C239.6 618.7 239.7 618.9 239.8 619.2C239.9 619.5 240 619.8 240.1 620.2C240.4 621 240.6 621.7 240.6 621.7C240.6 621.7 240.7 622.5 240.9 623.3C241 623.7 241 624.1 241.1 624.4C241.1 624.7 241.1 624.9 241.1 624.9C241.2 625.4 241.4 625.8 241.9 626C241.9 626 242.2 626.1 242.5 626.3C242.9 626.5 243.5 626.8 244 627.1C245 627.6 246.1 628.3 246.1 628.3C246.3 628.433 246.433 628.633 246.5 628.9C246.633 629.167 246.667 629.433 246.6 629.7C246.6 629.7 246.6 630 246.6 630.4C246.5 630.8 246.5 631.4 246.4 631.9C246.2 632.9 246 634 246 634C245.9 634.6 245.4 635 245 635.2C245 635.2 243.8 635.5 242.6 635.8C241.5 636 240.3 636.2 240.3 636.2C239.8 636.2 239.4 636.5 239.2 637C239.2 637 239 637.7 238.6 638.4C238.2 639.1 237.8 639.8 237.8 639.8C237.8 639.8 237.4 640.4 236.9 641.1C236.5 641.8 236 642.4 236 642.4C235.7 642.7 235.6 643.2 235.7 643.7C235.7 643.7 236.2 644.8 236.5 645.9C236.8 647.1 237 648.3 237 648.3C237.1 648.8 236.9 649.4 236.5 649.7C236.5 649.7 235.6 650.4 234.8 651.1C234.3 651.4 233.9 651.7 233.6 651.9C233.2 652.1 233 652.3 233 652.3C232.733 652.433 232.467 652.5 232.2 652.5C231.933 652.567 231.7 652.533 231.5 652.4C231.5 652.4 230.4 651.8 229.4 651.1C228.9 650.8 228.4 650.5 228.1 650.2C227.7 649.9 227.5 649.7 227.5 649.7C227.1 649.5 226.6 649.4 226.2 649.6C226.2 649.6 226 649.6 225.7 649.8C225.4 649.9 225.1 650 224.7 650.1C223.9 650.3 223.2 650.5 223.2 650.5C223.2 650.5 222.4 650.7 221.6 650.8C221.2 650.9 220.8 651 220.5 651C220.2 651 220 651.1 220 651.1C219.6 651.1 219.1 651.4 219 651.8C219 651.8 218.8 652.1 218.6 652.5C218.4 652.9 218.2 653.4 217.9 653.9C217.3 655 216.6 656 216.6 656C216.467 656.2 216.267 656.367 216 656.5C215.733 656.567 215.467 656.6 215.2 656.6ZM219.9 643.9C220.033 643.9 220.167 643.867 220.3 643.8C220.567 643.8 220.767 643.767 220.9 643.7C221.3 643.633 221.5 643.6 221.5 643.6C221.5 643.6 221.667 643.533 222 643.4C222.2 643.4 222.4 643.367 222.6 643.3C222.733 643.233 222.867 643.167 223 643.1C223.133 643.1 223.267 643.067 223.4 643C223.667 642.867 223.967 642.733 224.3 642.6C224.7 642.5 225 642.3 225.3 642.1C225.5 642.033 225.667 641.933 225.8 641.8C226 641.733 226.167 641.633 226.3 641.5C226.7 641.3 227 641.1 227.4 640.9C227.667 640.633 227.967 640.367 228.3 640.1L228.5 639.9L228.7 639.7C228.9 639.567 229.067 639.433 229.2 639.3C229.7 638.8 230.1 638.2 230.6 637.7C230.8 637.5 230.9 637.3 231.1 637.1C231.233 636.9 231.333 636.7 231.4 636.5C231.6 636.233 231.7 636.1 231.7 636.1C231.7 636.1 231.8 635.933 232 635.6C232.067 635.4 232.167 635.2 232.3 635C232.4 634.8 232.6 634.5 232.7 634.2C232.9 633.7 233.2 633 233.4 632.3C233.467 632.1 233.533 631.9 233.6 631.7L233.7 631.4V631.1C233.767 630.7 233.867 630.3 234 629.9C234 629.5 234 629.1 234.1 628.7C234.1 628.5 234.1 628.3 234.1 628.1C234.1 627.9 234.1 627.733 234.1 627.6C234.1 627.2 234.2 626.8 234.1 626.4C234.1 626.067 234.067 625.767 234 625.5C234 625.3 234 625.133 234 625C233.933 624.867 233.9 624.733 233.9 624.6C233.833 624.4 233.8 624.2 233.8 624C233.733 623.6 233.7 623.4 233.7 623.4C233.7 623.4 233.633 623.233 233.5 622.9C233.433 622.7 233.367 622.5 233.3 622.3C233.3 622.167 233.267 622.033 233.2 621.9C233.133 621.767 233.1 621.633 233.1 621.5C232.967 621.167 232.833 620.867 232.7 620.6C232.6 620.2 232.4 619.9 232.2 619.6C232.133 619.4 232.033 619.2 231.9 619C231.833 618.867 231.733 618.7 231.6 618.5C231.4 618.2 231.2 617.9 230.9 617.5C230.7 617.167 230.467 616.867 230.2 616.6L230 616.3L229.8 616.1C229.667 615.967 229.533 615.833 229.4 615.7C228.9 615.1 228.3 614.7 227.8 614.3C227.6 614.1 227.4 613.9 227.2 613.8C227 613.667 226.8 613.533 226.6 613.4C226.333 613.2 226.2 613.1 226.2 613.1C226.2 613.1 226.033 613 225.7 612.8C225.5 612.733 225.3 612.633 225.1 612.5C224.9 612.4 224.6 612.3 224.4 612.2C223.8 611.9 223.1 611.6 222.4 611.4C222.2 611.333 222 611.3 221.8 611.3L221.6 611.2L221.3 611.1C220.9 611.033 220.5 610.967 220.1 610.9C219.7 610.8 219.3 610.8 218.9 610.7C218.7 610.7 218.5 610.7 218.3 610.7C218.1 610.7 217.9 610.7 217.7 610.7C217.3 610.7 216.9 610.7 216.6 610.7C216.267 610.767 215.933 610.8 215.6 610.8C215.467 610.8 215.333 610.8 215.2 610.8C215.067 610.867 214.933 610.9 214.8 610.9C214.533 610.967 214.333 611 214.2 611C213.8 611.067 213.6 611.1 213.6 611.1C213.6 611.1 213.433 611.167 213.1 611.3C212.9 611.367 212.667 611.433 212.4 611.5C212.333 611.5 212.233 611.533 212.1 611.6C211.967 611.667 211.833 611.733 211.7 611.8C211.367 611.867 211.033 611.967 210.7 612.1C210.4 612.3 210.1 612.5 209.8 612.6C209.6 612.733 209.4 612.833 209.2 612.9C209.067 612.967 208.9 613.067 208.7 613.2C208.4 613.4 208 613.6 207.7 613.9C207.367 614.167 207.067 614.4 206.8 614.6L206.5 614.8L206.3 615C206.167 615.2 206.033 615.367 205.9 615.5C205.3 616 204.9 616.5 204.5 617C204.3 617.2 204.2 617.5 204 617.7C203.867 617.9 203.767 618.067 203.7 618.2C203.433 618.533 203.3 618.7 203.3 618.7C203.3 618.7 203.233 618.867 203.1 619.2C202.967 619.333 202.867 619.533 202.8 619.8C202.6 620 202.5 620.2 202.4 620.5C202.2 621.1 201.8 621.7 201.7 622.5C201.633 622.633 201.567 622.8 201.5 623L201.4 623.3L201.3 623.6C201.233 624 201.167 624.4 201.1 624.8C201 625.2 201 625.6 201 626C200.933 626.2 200.9 626.4 200.9 626.6C200.9 626.8 200.9 627 200.9 627.2C200.9 627.6 200.9 627.9 200.9 628.3C200.967 628.633 201 628.967 201 629.3C201.067 629.433 201.1 629.567 201.1 629.7C201.1 629.833 201.133 629.967 201.2 630.1C201.2 630.367 201.233 630.6 201.3 630.8C201.367 631.133 201.4 631.3 201.4 631.3C201.4 631.3 201.433 631.5 201.5 631.9C201.567 632.033 201.633 632.233 201.7 632.5C201.767 632.633 201.8 632.767 201.8 632.9C201.867 633.033 201.933 633.167 202 633.3C202.133 633.567 202.267 633.867 202.4 634.2C202.5 634.5 202.7 634.8 202.9 635.2C202.967 635.333 203.033 635.5 203.1 635.7C203.233 635.9 203.367 636.067 203.5 636.2C203.7 636.5 203.9 636.9 204.1 637.2C204.367 637.533 204.633 637.867 204.9 638.2L205.1 638.4L205.3 638.6C205.433 638.733 205.567 638.867 205.7 639C206.2 639.6 206.8 640 207.2 640.4C207.4 640.7 207.7 640.8 207.9 640.9C208.1 641.1 208.267 641.233 208.4 641.3C208.733 641.5 208.9 641.6 208.9 641.6C208.9 641.6 209.067 641.7 209.4 641.9C209.533 641.967 209.733 642.067 210 642.2C210.2 642.3 210.4 642.5 210.7 642.6C211.3 642.8 211.9 643.1 212.7 643.3C212.833 643.367 213 643.433 213.2 643.5L213.5 643.6H213.8C214.2 643.667 214.6 643.767 215 643.9C215.4 643.9 215.8 644 216.2 644C216.4 644 216.6 644.033 216.8 644.1C217 644.1 217.2 644.1 217.4 644.1C217.8 644 218.1 644.1 218.5 644C218.833 644 219.167 643.967 219.5 643.9C219.633 643.9 219.767 643.9 219.9 643.9Z" fill="#FFFEFC"/>
<g opacity="0.5">
<path d="M571.6 98.4C571.6 95.2 568.8 92.6 565.4 92.6C562 92.6 559.2 89.8 559.2 86.4C559.2 83 556.6 80.2 553.4 80.2C550.1 80.2 547.5 83 547.5 86.4C547.5 89.8 544.7 92.6 541.3 92.6C537.9 92.6 535.2 95.2 535.2 98.4C535.2 101.6 537.9 104.2 541.3 104.2C544.7 104.2 547.5 107 547.5 110.4C547.5 113.8 550.1 116.6 553.4 116.6C556.6 116.6 559.2 113.8 559.2 110.4C559.2 107 562 104.2 565.4 104.2C568.8 104.2 571.6 101.6 571.6 98.4Z" fill="#FFD9A9"/>
</g>
<g opacity="0.5">
<path d="M316.2 707.7C316.2 705.6 314.5 704 312.3 704C310.2 704 308.4 702.2 308.4 700.1C308.4 698 306.8 696.2 304.8 696.2C302.8 696.2 301.1 698 301.1 700.1C301.1 702.2 299.4 704 297.2 704C295.1 704 293.3 705.6 293.3 707.7C293.3 709.7 295.1 711.3 297.2 711.3C299.4 711.3 301.1 713.1 301.1 715.2C301.1 717.3 302.8 719.1 304.8 719.1C306.8 719.1 308.4 717.3 308.4 715.2C308.4 713.1 310.2 711.3 312.3 711.3C314.5 711.3 316.2 709.7 316.2 707.7Z" fill="#FFD9A9"/>
</g>
<g opacity="0.5">
<path d="M773.8 160.2C773.8 158.2 772 156.5 769.9 156.5C767.7 156.5 766 154.8 766 152.7C766 150.5 764.3 148.8 762.3 148.8C760.3 148.8 758.7 150.5 758.7 152.7C758.7 154.8 756.9 156.5 754.8 156.5C752.6 156.5 750.9 158.2 750.9 160.2C750.9 162.2 752.6 163.9 754.8 163.9C756.9 163.9 758.7 165.6 758.7 167.8C758.7 169.9 760.3 171.6 762.3 171.6C764.3 171.6 766 169.9 766 167.8C766 165.6 767.7 163.9 769.9 163.9C772 163.9 773.8 162.2 773.8 160.2Z" fill="#FFD9A9"/>
</g>
</svg>
