<svg width="50" height="50" viewBox="0 0 50 50" fill="none" xmlns="http://www.w3.org/2000/svg">
<path d="M46.3746 27.4907H44.202C43.9018 22.6546 40.1757 18.7387 35.4253 18.1553C37.7767 16.7345 39.3577 14.1593 39.3577 11.2162C39.3577 6.74567 35.7242 3.1077 31.2564 3.1077C26.7886 3.1077 23.1538 6.74567 23.1538 11.2162C23.1538 14.1606 24.7348 16.7345 27.0876 18.1553C22.3358 18.7387 18.611 22.6546 18.3108 27.4907H14.6861C14.6773 27.3705 14.646 27.2503 14.5722 27.1539C14.3621 26.8797 14.252 26.553 14.252 26.205C14.252 25.8569 14.3621 25.5289 14.571 25.256C14.646 25.1596 14.676 25.0395 14.6861 24.9193H17.6204C17.9656 24.9193 18.2458 24.6389 18.2458 24.2933V23.7125C18.2458 23.5748 18.2008 23.4408 18.1169 23.3319C17.9068 23.0577 17.7967 22.7297 17.7967 22.383C17.7967 22.0349 17.9068 21.7069 18.1157 21.434C18.1995 21.3251 18.2458 21.1912 18.2458 21.0535V20.4713C18.2458 20.1258 17.9656 19.8454 17.6204 19.8454H14.9087C14.8999 19.7252 14.8687 19.6063 14.7949 19.5099C14.5847 19.2357 14.4747 18.9077 14.4747 18.561C14.4747 18.2142 14.5847 17.8849 14.7949 17.612C14.8774 17.5031 14.9237 17.3692 14.9237 17.2315V16.6506C14.9237 16.3051 14.6435 16.0246 14.2983 16.0246H5.75672C5.07755 16.0246 4.43965 16.2875 3.9631 16.7658C3.4853 17.244 3.22139 17.8812 3.22139 18.5622C3.22139 19.9606 4.35835 21.0985 5.75547 21.0985H6.90119C6.67355 21.4841 6.54347 21.9223 6.54347 22.3842C6.54347 22.8549 6.68105 23.2906 6.90494 23.6686H5.53533C4.85741 23.6686 4.21951 23.9315 3.74171 24.4098C3.26392 24.888 3 25.5252 3 26.2062C3 26.7408 3.1676 27.2353 3.45028 27.6446C3.31395 27.7598 3.22264 27.9251 3.22264 28.1178V34.5851C3.22264 34.9306 3.50281 35.211 3.84803 35.211H7.39149V46.3741C7.39149 46.7196 7.67167 47 8.01689 47H42.2058C42.551 47 42.8311 46.7196 42.8311 46.3741V35.211H46.3746C46.7198 35.211 47 34.9306 47 34.5851V28.1178C47 27.7711 46.7198 27.4907 46.3746 27.4907ZM24.4046 11.2162C24.4046 7.43546 27.4778 4.35958 31.2564 4.35958C35.0338 4.35958 38.1069 7.43546 38.1069 11.2162C38.1069 14.9968 35.0338 18.0727 31.2564 18.0727C27.4778 18.0727 24.4046 14.9968 24.4046 11.2162ZM28.3133 19.3246H34.197C38.8311 19.3246 42.6385 22.9338 42.96 27.4907H19.5528C19.873 22.9338 23.6804 19.3246 28.3133 19.3246ZM4.47342 18.561C4.47342 18.2154 4.606 17.8925 4.84866 17.6496C5.08881 17.408 5.41276 17.2753 5.75797 17.2753H13.5328C13.3302 17.6696 13.2251 18.1065 13.2251 18.5597C13.2251 19.0129 13.3302 19.4498 13.5328 19.8441H9.08005H5.75672C5.04878 19.8454 4.47342 19.2695 4.47342 18.561ZM7.79425 22.383C7.79425 22.0374 7.92683 21.7145 8.16948 21.4728C8.41213 21.2312 8.73483 21.0973 9.08005 21.0973H14.2983H16.8549C16.6523 21.4916 16.5472 21.9285 16.5472 22.383C16.5472 22.8374 16.6523 23.2731 16.8549 23.6674H14.0769H9.08005C8.37086 23.6686 7.79425 23.0915 7.79425 22.383ZM4.62602 25.2948C4.86742 25.0532 5.19012 24.9193 5.53533 24.9193H9.08005H13.3114C13.1088 25.3136 13.0038 25.7505 13.0038 26.205C13.0038 26.6594 13.1088 27.0951 13.3114 27.4907H5.53533C4.82739 27.4907 4.25203 26.9135 4.25203 26.205C4.25078 25.8607 4.38462 25.5377 4.62602 25.2948ZM41.5804 45.7469H8.64228V35.2098H41.5804V45.7469ZM45.7492 33.9579H42.2058H8.01689H4.47342V28.7425H5.53533H14.0769H18.9049H43.6079H45.7492V33.9579Z" fill="#FF9103"/>
<path d="M39.159 11.1723C39.159 15.5479 35.6151 19.0946 31.2439 19.0946C26.8727 19.0946 23.3288 15.5479 23.3288 11.1723C23.3288 6.79673 26.8727 3.25 31.2439 3.25C35.6151 3.25 39.159 6.79673 39.159 11.1723Z" fill="black" stroke="black" stroke-width="0.5"/>
<path d="M4.58725 28.6586H46.0131V34.0668H4.58725V28.6586Z" fill="#FF9103"/>
<path d="M8.78988 35.2686H41.8105V45.484H8.78988V35.2686Z" fill="#FF9103"/>
<path d="M4.58725 28.6586H46.0131V34.0668H4.58725V28.6586Z" stroke="white" stroke-width="0.5"/>
<path d="M8.78988 35.2686H41.8105V45.484H8.78988V35.2686Z" stroke="white" stroke-width="0.5"/>
<circle cx="31.3" cy="11.2" r="6" fill="white"/>
<path d="M45 28C45 25.0826 43.5777 22.2847 41.0459 20.2218C38.5142 18.1589 35.0804 17 31.5 17C27.9196 17 24.4858 18.1589 21.9541 20.2218C19.4223 22.2847 18 25.0826 18 28L31.5 28H45Z" fill="black"/>
</svg>
