<svg width="1500" height="1000" viewBox="0 0 1500 1000" fill="none" xmlns="http://www.w3.org/2000/svg">
<path opacity="0.2" d="M83.1 902.9C83.1 921.1 374.2 935.9 733.2 935.9C1092.2 935.9 1383.3 921.1 1383.3 902.9C1383.3 884.8 1092.2 870 733.2 870C374.2 870 83.1 884.8 83.1 902.9Z" fill="#FFB855"/>
<path opacity="0.3" d="M1111.7 794.177H545.5C382.576 794.177 250.5 662.101 250.5 499.177V389.277C250.5 226.353 382.576 94.2769 545.5 94.2769H1111.7C1274.62 94.2769 1406.7 226.353 1406.7 389.277V499.177C1406.7 662.101 1274.62 794.177 1111.7 794.177Z" stroke="#F28749"/>
<path d="M292.6 896.3H799.4C811.8 896.3 821.9 886.3 821.9 873.8V475.9C821.9 463.4 811.8 453.4 799.4 453.4H292.6C280.1 453.4 270.1 463.4 270.1 475.9V873.8C270.1 886.3 280.1 896.3 292.6 896.3Z" fill="white"/>
<path d="M281.8 496.9H810.1C825.5 496.9 838 484.5 838 469.1C838 453.6 825.5 441.2 810.1 441.2H281.8C266.4 441.2 253.9 453.6 253.9 469.1C253.9 484.5 266.4 496.9 281.8 496.9Z" fill="#EFC354"/>
<path d="M546 464.5V420.7" stroke="white" stroke-width="10" stroke-linecap="round" stroke-linejoin="round"/>
<path d="M483.5 464.5V420.7" stroke="white" stroke-width="10" stroke-linecap="round" stroke-linejoin="round"/>
<path d="M420.9 464.5V420.7" stroke="white" stroke-width="10" stroke-linecap="round" stroke-linejoin="round"/>
<path d="M358.4 464.5V420.7" stroke="white" stroke-width="10" stroke-linecap="round" stroke-linejoin="round"/>
<path d="M295.9 464.5V420.7" stroke="white" stroke-width="10" stroke-linecap="round" stroke-linejoin="round"/>
<path d="M733.5 464.5V420.7" stroke="white" stroke-width="10" stroke-linecap="round" stroke-linejoin="round"/>
<path d="M671 464.5V420.7" stroke="white" stroke-width="10" stroke-linecap="round" stroke-linejoin="round"/>
<path d="M796 464.5V420.7" stroke="white" stroke-width="10" stroke-linecap="round" stroke-linejoin="round"/>
<path d="M608.5 464.5V420.7" stroke="white" stroke-width="10" stroke-linecap="round" stroke-linejoin="round"/>
<path d="M546 516.5H444.5C439.9 516.5 436.2 520.3 436.2 524.9V545.2C436.2 549.9 439.9 553.6 444.5 553.6H546H647.4C652 553.6 655.8 549.9 655.8 545.2V524.9C655.8 520.3 652 516.5 647.4 516.5H546Z" fill="#F28749"/>
<path opacity="0.3" d="M351.4 633.4H305.4C300.2 633.4 295.9 629.2 295.9 623.9V577.9C295.9 572.7 300.2 568.4 305.4 568.4H351.4C356.7 568.4 360.9 572.7 360.9 577.9V623.9C360.9 629.2 356.7 633.4 351.4 633.4Z" fill="#FFB855"/>
<path opacity="0.3" d="M424 633.4H377.9C372.7 633.4 368.4 629.2 368.4 623.9V577.9C368.4 572.7 372.7 568.4 377.9 568.4H424C429.2 568.4 433.5 572.7 433.5 577.9V623.9C433.5 629.2 429.2 633.4 424 633.4Z" fill="#FFB855"/>
<path d="M496.5 630.7H450.4C445.2 630.7 441 626.4 441 621.2V575.1C441 569.9 445.2 565.6 450.4 565.6H496.5C501.7 565.6 506 569.9 506 575.1V621.2C506 626.4 501.7 630.7 496.5 630.7Z" fill="#FFB855"/>
<path d="M569 630.7H523C517.7 630.7 513.5 626.4 513.5 621.2V575.1C513.5 569.9 517.7 565.6 523 565.6H569C574.2 565.6 578.5 569.9 578.5 575.1V621.2C578.5 626.4 574.2 630.7 569 630.7Z" fill="#FFB855"/>
<path d="M641.5 630.7H595.5C590.2 630.7 586 626.4 586 621.2V575.1C586 569.9 590.2 565.6 595.5 565.6H641.5C646.8 565.6 651 569.9 651 575.1V621.2C651 626.4 646.8 630.7 641.5 630.7Z" fill="#FFB855"/>
<path d="M714 630.7H668C662.8 630.7 658.5 626.4 658.5 621.2V575.1C658.5 569.9 662.8 565.6 668 565.6H714C719.3 565.6 723.5 569.9 723.5 575.1V621.2C723.5 626.4 719.3 630.7 714 630.7Z" fill="#FFB855"/>
<path d="M786.6 630.7H740.5C735.3 630.7 731 626.4 731 621.2V575.1C731 569.9 735.3 565.6 740.5 565.6H786.6C791.8 565.6 796 569.9 796 575.1V621.2C796 626.4 791.8 630.7 786.6 630.7Z" fill="#FFB855"/>
<path d="M424 703.2H377.9C372.7 703.2 368.4 698.9 368.4 693.7V647.6C368.4 642.4 372.7 638.2 377.9 638.2H424C429.2 638.2 433.5 642.4 433.5 647.6V693.7C433.5 698.9 429.2 703.2 424 703.2Z" fill="#FFB855"/>
<path d="M496.5 703.2H450.4C445.2 703.2 441 698.9 441 693.7V647.6C441 642.4 445.2 638.2 450.4 638.2H496.5C501.7 638.2 506 642.4 506 647.6V693.7C506 698.9 501.7 703.2 496.5 703.2Z" fill="#FFB855"/>
<path d="M569 703.2H523C517.7 703.2 513.5 698.9 513.5 693.7V647.6C513.5 642.4 517.7 638.2 523 638.2H569C574.2 638.2 578.5 642.4 578.5 647.6V693.7C578.5 698.9 574.2 703.2 569 703.2Z" fill="#FFB855"/>
<path d="M641.5 706H595.5C590.2 706 586 701.7 586 696.5V650.4C586 645.2 590.2 640.9 595.5 640.9H641.5C646.8 640.9 651 645.2 651 650.4V696.5C651 701.7 646.8 706 641.5 706Z" fill="#F28749"/>
<path d="M714 703.2H668C662.8 703.2 658.5 698.9 658.5 693.7V647.6C658.5 642.4 662.8 638.2 668 638.2H714C719.3 638.2 723.5 642.4 723.5 647.6V693.7C723.5 698.9 719.3 703.2 714 703.2Z" fill="#FFB855"/>
<path d="M786.6 703.2H740.5C735.3 703.2 731 698.9 731 693.7V647.6C731 642.4 735.3 638.2 740.5 638.2H786.6C791.8 638.2 796 642.4 796 647.6V693.7C796 698.9 791.8 703.2 786.6 703.2Z" fill="#FFB855"/>
<path d="M424 778.5H377.9C372.7 778.5 368.4 774.2 368.4 769V722.9C368.4 717.7 372.7 713.5 377.9 713.5H424C429.2 713.5 433.5 717.7 433.5 722.9V769C433.5 774.2 429.2 778.5 424 778.5Z" fill="#F28749"/>
<path d="M496.5 775.7H450.4C445.2 775.7 441 771.4 441 766.2V720.2C441 714.9 445.2 710.7 450.4 710.7H496.5C501.7 710.7 506 714.9 506 720.2V766.2C506 771.4 501.7 775.7 496.5 775.7Z" fill="#FFB855"/>
<path d="M569 775.7H523C517.7 775.7 513.5 771.4 513.5 766.2V720.2C513.5 714.9 517.7 710.7 523 710.7H569C574.2 710.7 578.5 714.9 578.5 720.2V766.2C578.5 771.4 574.2 775.7 569 775.7Z" fill="#FFB855"/>
<path d="M641.5 775.7H595.5C590.2 775.7 586 771.4 586 766.2V720.2C586 714.9 590.2 710.7 595.5 710.7H641.5C646.8 710.7 651 714.9 651 720.2V766.2C651 771.4 646.8 775.7 641.5 775.7Z" fill="#FFB855"/>
<path d="M714 775.7H668C662.8 775.7 658.5 771.4 658.5 766.2V720.2C658.5 714.9 662.8 710.7 668 710.7H714C719.3 710.7 723.5 714.9 723.5 720.2V766.2C723.5 771.4 719.3 775.7 714 775.7Z" fill="#FFB855"/>
<path d="M786.6 775.7H740.5C735.3 775.7 731 771.4 731 766.2V720.2C731 714.9 735.3 710.7 740.5 710.7H786.6C791.8 710.7 796 714.9 796 720.2V766.2C796 771.4 791.8 775.7 786.6 775.7Z" fill="#FFB855"/>
<path d="M424 848.2H377.9C372.7 848.2 368.4 844 368.4 838.7V792.7C368.4 787.4 372.7 783.2 377.9 783.2H424C429.2 783.2 433.5 787.4 433.5 792.7V838.7C433.5 844 429.2 848.2 424 848.2Z" fill="#FFB855"/>
<path d="M496.5 851H450.4C445.2 851 441 846.7 441 838.7V792.7C441 790.2 445.2 786 450.4 786H496.5C501.7 786 506 790.2 506 795.5V841.5C506 846.7 501.7 851 496.5 851Z" fill="#FFB855"/>
<path opacity="0.3" d="M569 851H523C517.7 851 513.5 846.7 513.5 841.5V795.5C513.5 790.2 517.7 786 523 786H569C574.2 786 578.5 790.2 578.5 795.5V841.5C578.5 846.7 574.2 851 569 851Z" fill="#FFB855"/>
<path opacity="0.3" d="M641.5 851H595.5C590.2 851 586 846.7 586 841.5V795.5C586 790.2 590.2 786 595.5 786H641.5C646.8 786 651 790.2 651 795.5V841.5C651 846.7 646.8 851 641.5 851Z" fill="#FFB855"/>
<path opacity="0.3" d="M714 851H668C662.8 851 658.5 846.7 658.5 841.5V795.5C658.5 790.2 662.8 786 668 786H714C719.3 786 723.5 790.2 723.5 795.5V841.5C723.5 846.7 719.3 851 714 851Z" fill="#FFB855"/>
<path opacity="0.3" d="M786.6 851H740.5C735.3 851 731 846.7 731 841.5V795.5C731 790.2 735.3 786 740.5 786H786.6C791.8 786 796 790.2 796 795.5V841.5C796 846.7 791.8 851 786.6 851Z" fill="#FFB855"/>
<path d="M295.9 693.7V647.6C295.9 642.4 300.2 638.2 305.4 638.2H351.4C356.7 638.2 360.9 642.4 360.9 647.6V693.7C360.9 698.9 356.7 703.2 351.4 703.2H305.4C300.2 703.2 295.9 698.9 295.9 693.7Z" fill="#FFB855"/>
<path d="M295.9 766.2V720.2C295.9 714.9 300.2 710.7 305.4 710.7H351.4C356.7 710.7 360.9 714.9 360.9 720.2V766.2C360.9 771.4 356.7 775.7 351.4 775.7H305.4C300.2 775.7 295.9 771.4 295.9 766.2Z" fill="#FFB855"/>
<path d="M295.9 838.7V792.7C295.9 787.4 300.2 783.2 305.4 783.2H351.4C356.7 783.2 360.9 787.4 360.9 792.7V838.7C360.9 844 356.7 848.2 351.4 848.2H305.4C300.2 848.2 295.9 844 295.9 838.7Z" fill="#FFB855"/>
<path d="M799.3 896.3H1198.5C1206.2 896.3 1212.5 890.1 1212.5 882.4V338.3C1212.5 330.6 1206.2 324.4 1198.5 324.4H799.3C791.7 324.4 785.4 330.6 785.4 338.3V882.4C785.4 890.1 791.7 896.3 799.3 896.3Z" fill="white"/>
<path fill-rule="evenodd" clip-rule="evenodd" d="M1121.6 351H876.3C876.3 351 876.3 311.5 883 306.3C889.7 301.1 958.1 300.3 958.1 300.3C958.1 300.3 946.3 257 950.7 248.7C955.1 240.4 975.3 236.6 998.9 236.6C1022.6 236.6 1042.8 240.4 1047.2 248.7C1051.5 257 1039.8 300.3 1039.8 300.3C1039.8 300.3 1108.2 301.1 1114.9 306.3C1121.6 311.5 1121.6 351 1121.6 351ZM1012.9 268.5C1012.9 260.8 1006.7 254.5 998.9 254.5C991.2 254.5 985 260.8 985 268.5C985 276.2 991.2 282.4 998.9 282.4C1006.7 282.4 1012.9 276.2 1012.9 268.5Z" fill="#0C0C0C"/>
<path d="M856.9 466.8H825.8V435.7H856.9V466.8Z" stroke="#FFB855" stroke-width="2" stroke-linecap="round" stroke-linejoin="round"/>
<path d="M1172.1 449.2H877.4V437.5H1172.1V449.2Z" fill="#F2B366"/>
<path d="M1012.3 464.9H877.4V453.3H1012.3V464.9Z" fill="#F2B366"/>
<path d="M856.9 528.8H825.8V497.7H856.9V528.8Z" stroke="#FFB855" stroke-width="2" stroke-linecap="round" stroke-linejoin="round"/>
<path d="M1172.1 511.2H877.4V499.6H1172.1V511.2Z" fill="#F2B366"/>
<path d="M1154.9 527H877.4V515.3H1154.9V527Z" fill="#F2B366"/>
<path d="M856.9 590.8H825.8V559.7H856.9V590.8Z" stroke="#FFB855" stroke-width="2" stroke-linecap="round" stroke-linejoin="round"/>
<path d="M1172.1 578.4H877.4V566.7H1172.1V578.4Z" fill="#F2B366"/>
<path d="M856.9 714.9H825.8V683.8H856.9V714.9Z" stroke="#FFB855" stroke-width="2" stroke-linecap="round" stroke-linejoin="round"/>
<path d="M1019.2 702.4H877.4V690.8H1019.2V702.4Z" fill="#F2B366"/>
<path d="M856.9 652.8H825.8V621.8H856.9V652.8Z" stroke="#FFB855" stroke-width="2" stroke-linecap="round" stroke-linejoin="round"/>
<path d="M1172.1 635.3H877.4V623.6H1172.1V635.3Z" fill="#F2B366"/>
<path d="M1096.5 651H877.4V639.3H1096.5V651Z" fill="#F2B366"/>
<path d="M856.9 776.9H825.8V745.8H856.9V776.9Z" stroke="#FFB855" stroke-width="2" stroke-linecap="round" stroke-linejoin="round"/>
<path d="M1172.1 759.3H877.4V747.7H1172.1V759.3Z" fill="#F2B366"/>
<path d="M1048.1 775H877.4V763.4H1048.1V775Z" fill="#F2B366"/>
<path d="M856.9 838.9H825.8V807.8H856.9V838.9Z" stroke="#FFB855" stroke-width="2" stroke-linecap="round" stroke-linejoin="round"/>
<path d="M1172.1 821.3H877.4V809.7H1172.1V821.3Z" fill="#F2B366"/>
<path d="M928.3 837.1H877.4V825.4H928.3V837.1Z" fill="#F2B366"/>
<path d="M830.2 446.4L841.3 462.1L860.4 429.4" stroke="#F2B366" stroke-width="4" stroke-linecap="round" stroke-linejoin="round"/>
<path d="M830.2 570.3L841.3 586L860.4 553.3" stroke="#F2B366" stroke-width="4" stroke-linecap="round" stroke-linejoin="round"/>
<path d="M830.2 633.5L841.3 649.2L860.4 616.5" stroke="#F2B366" stroke-width="4" stroke-linecap="round" stroke-linejoin="round"/>
<path d="M830.2 502.5L851.8 524" stroke="#F2B366" stroke-width="4" stroke-linecap="round" stroke-linejoin="round"/>
<path d="M851.8 502.5L830.2 524" stroke="#F2B366" stroke-width="4" stroke-linecap="round" stroke-linejoin="round"/>
<path d="M830.2 688.4L851.8 709.9" stroke="#F2B366" stroke-width="4" stroke-linecap="round" stroke-linejoin="round"/>
<path d="M851.8 688.4L830.2 709.9" stroke="#F2B366" stroke-width="4" stroke-linecap="round" stroke-linejoin="round"/>
<path d="M1074.7 377H1024.8V388.7H1074.7V377Z" fill="#F2B366"/>
<path d="M932.2 388.7H985.1V377H932.2V388.7Z" fill="#F2B366"/>
<path d="M1019.1 377H990.7V388.7H1019.1V377Z" fill="#F2B366"/>
<path d="M1080.4 377V388.7H1134.7V377H1080.4Z" fill="#F2B366"/>
<path d="M926.6 377H889.9V388.7H926.6V377Z" fill="#F2B366"/>
<path d="M785.4 870V882.4C785.4 887 787.6 891 791 893.5" stroke="#2C3045" stroke-width="2" stroke-linecap="round" stroke-linejoin="round"/>
<path d="M785.4 527.5V861.6" stroke="#2C3045" stroke-width="2" stroke-linecap="round" stroke-linejoin="round"/>
<path d="M785.4 499.6V518.1" stroke="#2C3045" stroke-width="2" stroke-linecap="round" stroke-linejoin="round"/>
<path d="M350.208 278.331C347.922 328.079 386.424 370.291 436.172 372.577C485.919 374.863 528.131 336.36 530.417 286.612C532.708 236.765 494.201 194.653 444.453 192.367C394.706 190.081 352.498 228.484 350.208 278.331Z" fill="#FFB855"/>
<path d="M358.099 278.694C356.015 324.046 391.082 362.596 436.534 364.685C481.986 366.774 520.442 331.602 522.526 286.25C524.614 240.798 489.547 202.247 444.095 200.159C398.643 198.07 360.188 233.242 358.099 278.694Z" fill="white"/>
<path d="M434.419 282.201C434.272 285.398 436.745 288.214 440.042 288.366C443.338 288.517 446.059 285.939 446.206 282.743C446.358 279.446 443.884 276.63 440.588 276.478C437.291 276.327 434.57 278.904 434.419 282.201Z" fill="#2C3045"/>
<path d="M442.9 210.4V200" stroke="#2C3045" stroke-width="6" stroke-linecap="round" stroke-linejoin="round"/>
<path d="M509.14 285.635L519.529 286.112" stroke="#2C3045" stroke-width="6" stroke-linecap="round" stroke-linejoin="round"/>
<path d="M479.941 226.131L485.939 217.598" stroke="#2C3045" stroke-width="3" stroke-linecap="round" stroke-linejoin="round"/>
<path d="M502.078 251.975L511.398 247.398" stroke="#2C3045" stroke-width="3" stroke-linecap="round" stroke-linejoin="round"/>
<path d="M437.154 351.199L436.677 361.588" stroke="#2C3045" stroke-width="6" stroke-linecap="round" stroke-linejoin="round"/>
<path d="M474.611 342.109L479.801 351.157" stroke="#2C3045" stroke-width="3" stroke-linecap="round" stroke-linejoin="round"/>
<path d="M499.025 318.405L507.886 323.817" stroke="#2C3045" stroke-width="3" stroke-linecap="round" stroke-linejoin="round"/>
<path d="M371.485 279.309L361.096 278.831" stroke="#2C3045" stroke-width="6" stroke-linecap="round" stroke-linejoin="round"/>
<path d="M406.019 222.734L400.828 213.687" stroke="#2C3045" stroke-width="3" stroke-linecap="round" stroke-linejoin="round"/>
<path d="M381.605 246.439L372.744 241.026" stroke="#2C3045" stroke-width="3" stroke-linecap="round" stroke-linejoin="round"/>
<path d="M400.689 338.712L394.691 347.246" stroke="#2C3045" stroke-width="3" stroke-linecap="round" stroke-linejoin="round"/>
<path d="M378.552 312.869L369.232 317.446" stroke="#2C3045" stroke-width="3" stroke-linecap="round" stroke-linejoin="round"/>
<path d="M442.782 228.728L440.313 282.472" stroke="#2C3045" stroke-width="6" stroke-linecap="round" stroke-linejoin="round"/>
<path d="M468.439 297.779L440.312 282.472" stroke="#2C3045" stroke-width="6" stroke-linecap="round" stroke-linejoin="round"/>
<path d="M852 189.7C852.9 186.1 853.4 182.3 853.4 178.4C853.4 152.5 831.8 131.6 805.2 131.6C778.5 131.6 756.9 152.5 756.9 178.4C756.9 182.3 757.4 186.1 758.3 189.7C758.367 189.767 758.4 189.867 758.4 190C758.4 190.067 758.433 190.133 758.5 190.2C762.3 206 773.3 219.3 776.8 228.7C779.1 235.4 778.6 253.8 778.6 253.8H805.2H831.7C831.7 253.8 831.2 235.4 833.5 228.7C837 219.3 848 206 851.8 190.2C851.867 190.133 851.9 190.067 851.9 190C851.9 189.867 851.933 189.767 852 189.7Z" fill="#EFC354"/>
<path d="M814.1 243.5L823.1 194.2C823.1 194.2 819.9 197.2 817.3 194.9C814.6 192.7 817.7 181.9 817.7 181.9C817.7 181.9 810.4 186.4 808.6 185.5C806.9 184.6 805.4 180 805.1 177.1C804.8 179.8 804.2 184.2 801.5 185.9C798.9 187.7 792.4 182.1 792.4 182.1C792.4 182.1 794.8 192.1 792.8 195C790.9 197.9 786.6 194.3 786.6 194.3L797.3 243.6" stroke="#2C3045" stroke-width="2" stroke-linecap="round" stroke-linejoin="round"/>
<path d="M779 247H831.3C833.6 247 835.4 245.2 835.4 242.9C835.4 240.6 833.6 238.8 831.3 238.8H779C776.8 238.8 774.9 240.6 774.9 242.9C774.9 245.2 776.8 247 779 247Z" fill="#0C0C0C"/>
<path d="M779 255.3H831.3C833.6 255.3 835.4 253.4 835.4 251.2V251.1C835.4 248.8 833.6 247 831.3 247H779C776.8 247 774.9 248.8 774.9 251.1V251.2C774.9 253.4 776.8 255.3 779 255.3Z" fill="#0C0C0C"/>
<path d="M779 263.5H831.3C833.6 263.5 835.4 261.7 835.4 259.4C835.4 257.1 833.6 255.3 831.3 255.3H779C776.8 255.3 774.9 257.1 774.9 259.4C774.9 261.7 776.8 263.5 779 263.5Z" fill="#0C0C0C"/>
<path d="M779 271.8H831.3C833.6 271.8 835.4 270 835.4 267.7V267.6C835.4 265.4 833.6 263.5 831.3 263.5H779C776.8 263.5 774.9 265.4 774.9 267.6V267.7C774.9 270 776.8 271.8 779 271.8Z" fill="#0C0C0C"/>
<path d="M780 247H830.3" stroke="#2C3045" stroke-width="2" stroke-linecap="round" stroke-linejoin="round"/>
<path d="M780 255.3H830.3" stroke="#2C3045" stroke-width="2" stroke-linecap="round" stroke-linejoin="round"/>
<path d="M780 263.5H830.3" stroke="#2C3045" stroke-width="2" stroke-linecap="round" stroke-linejoin="round"/>
<path fill-rule="evenodd" clip-rule="evenodd" d="M1143.5 177.977C1140.17 180.91 1136.6 183.477 1132.8 185.677L1122.1 180.177C1118.57 181.71 1114.9 182.877 1111.1 183.677L1105.6 194.277C1101.2 194.744 1096.8 194.744 1092.4 194.277L1087 183.577C1083.3 182.777 1079.6 181.577 1076 179.977L1065.2 185.377C1063.33 184.244 1061.5 183.01 1059.7 181.677C1057.97 180.41 1056.27 179.044 1054.6 177.577L1056.6 165.677C1054 162.777 1051.7 159.577 1049.8 156.277L1038 154.277C1036.27 150.21 1034.93 146.044 1034 141.777L1042.5 133.277C1042.17 129.41 1042.2 125.577 1042.6 121.777L1034.1 113.177C1035.03 108.91 1036.4 104.744 1038.2 100.677L1050.1 98.8769C1051.03 97.2103 1052.1 95.5769 1053.3 93.9769C1054.43 92.4436 1055.67 90.9436 1057 89.4769L1055.1 77.6769C1058.5 74.6769 1062.07 72.1103 1065.8 69.9769L1076.5 75.4769C1080.1 73.9436 1083.77 72.7769 1087.5 71.9769L1093 61.2769C1097.4 60.8769 1101.8 60.9103 1106.2 61.3769L1111.6 72.0769C1115.4 72.8769 1119.1 74.0769 1122.6 75.6769L1133.4 70.2769C1135.27 71.4103 1137.1 72.6103 1138.9 73.8769C1140.7 75.2103 1142.4 76.6103 1144 78.0769L1142.1 89.9769C1144.7 92.8769 1146.9 96.0769 1148.8 99.3769L1160.7 101.277C1162.43 105.344 1163.77 109.544 1164.7 113.877L1156.1 122.377C1156.5 126.177 1156.5 130.01 1156.1 133.877L1164.5 142.477C1163.57 146.677 1162.2 150.81 1160.4 154.877L1148.6 156.777C1147.6 158.444 1146.53 160.044 1145.4 161.577C1144.2 163.177 1142.97 164.71 1141.7 166.177L1143.5 177.977ZM1122.1 144.477C1131.4 131.877 1128.6 114.177 1116 104.977C1103.5 95.6769 1085.8 98.3769 1076.5 110.977C1067.3 123.577 1070 141.277 1082.6 150.577C1095.2 159.777 1112.9 157.077 1122.1 144.477Z" fill="#FFB855"/>
<path d="M1069.4 105.777C1057.2 122.377 1060.8 145.577 1077.3 157.777C1093.9 169.877 1117.1 166.377 1129.3 149.777C1141.4 133.277 1137.8 109.977 1121.3 97.8769C1104.8 85.6769 1081.5 89.2769 1069.4 105.777Z" stroke="#2C3045" stroke-width="2" stroke-linecap="round" stroke-linejoin="round"/>
<path fill-rule="evenodd" clip-rule="evenodd" d="M1205.4 238.577C1202.47 239.71 1199.5 240.544 1196.5 241.077L1190.7 234.777C1188.03 234.977 1185.37 234.877 1182.7 234.477L1176.4 240.177C1173.4 239.377 1170.5 238.277 1167.7 236.877L1166.8 228.477C1164.53 227.077 1162.4 225.41 1160.4 223.477L1152 224.377C1151 223.177 1150.07 221.944 1149.2 220.677C1148.33 219.344 1147.57 218.01 1146.9 216.677L1151 209.277C1150 206.744 1149.3 204.144 1148.9 201.477L1141.5 197.277C1141.37 194.21 1141.53 191.144 1142 188.077L1149.7 184.577C1150.37 181.91 1151.3 179.377 1152.5 176.977L1149 169.177C1150.67 166.644 1152.57 164.244 1154.7 161.977L1163 163.677C1164.07 162.81 1165.17 162.01 1166.3 161.277C1167.43 160.477 1168.6 159.777 1169.8 159.177L1171.5 150.877C1174.43 149.744 1177.4 148.944 1180.4 148.477L1186.2 154.677C1188.87 154.544 1191.57 154.677 1194.3 155.077L1200.5 149.377C1203.5 150.177 1206.4 151.244 1209.2 152.577L1210.1 160.977C1212.43 162.444 1214.57 164.144 1216.5 166.077L1224.9 165.077C1225.9 166.277 1226.83 167.51 1227.7 168.777C1228.57 170.11 1229.33 171.444 1230 172.777L1225.9 180.177C1226.9 182.71 1227.6 185.31 1228 187.977L1235.4 192.177C1235.53 195.31 1235.37 198.41 1234.9 201.477L1227.2 204.977C1226.53 207.577 1225.6 210.11 1224.4 212.577L1227.9 220.277C1226.23 222.877 1224.33 225.277 1222.2 227.477L1213.9 225.777C1212.83 226.644 1211.73 227.477 1210.6 228.277C1209.47 229.01 1208.3 229.71 1207.1 230.377L1205.4 238.577ZM1199.4 211.277C1208.6 205.177 1211.1 192.877 1205 183.677C1199 174.577 1186.6 172.077 1177.5 178.077C1168.3 184.177 1165.8 196.477 1171.9 205.677C1177.9 214.777 1190.2 217.277 1199.4 211.277Z" fill="#F2C38A"/>
<path d="M1174 172.977C1162 180.877 1158.7 197.077 1166.7 209.177C1174.6 221.177 1190.8 224.477 1202.9 216.577C1214.9 208.577 1218.2 192.377 1210.2 180.377C1202.3 168.277 1186.1 164.977 1174 172.977Z" stroke="#F2C38A" stroke-width="2" stroke-linecap="round" stroke-linejoin="round"/>
<path fill-rule="evenodd" clip-rule="evenodd" d="M1189.9 147.977C1187.97 147.777 1186.1 147.344 1184.3 146.677L1183.1 141.577C1181.57 140.844 1180.13 139.977 1178.8 138.977L1173.7 140.277C1172.3 138.944 1171.07 137.477 1170 135.877L1171.9 131.077C1171.1 129.61 1170.47 128.044 1170 126.377L1165.2 124.477C1165 123.544 1164.87 122.577 1164.8 121.577C1164.73 120.644 1164.7 119.71 1164.7 118.777L1169.1 115.977C1169.37 114.31 1169.77 112.677 1170.3 111.077L1167.6 106.677C1168.4 104.944 1169.37 103.31 1170.5 101.777L1175.8 102.077C1176.93 100.877 1178.2 99.8103 1179.6 98.8769L1180 93.5769C1181.6 92.7103 1183.33 91.9769 1185.2 91.3769L1189.2 94.7769C1190 94.6436 1190.83 94.5436 1191.7 94.4769C1192.57 94.4103 1193.4 94.3769 1194.2 94.3769L1197.6 90.3769C1199.53 90.6436 1201.4 91.0769 1203.2 91.6769L1204.4 96.7769C1205.93 97.5103 1207.37 98.3769 1208.7 99.3769L1213.8 98.1769C1215.2 99.5103 1216.43 100.944 1217.5 102.477L1215.6 107.377C1216.4 108.844 1217.03 110.377 1217.5 111.977L1222.4 113.977C1222.53 114.91 1222.63 115.844 1222.7 116.777C1222.83 117.777 1222.87 118.744 1222.8 119.677L1218.4 122.477C1218.13 124.144 1217.73 125.777 1217.2 127.377L1220 131.777C1219.13 133.51 1218.13 135.144 1217 136.677L1211.8 136.277C1210.6 137.477 1209.33 138.577 1208 139.577L1207.6 144.777C1205.93 145.71 1204.17 146.444 1202.3 146.977L1198.3 143.577C1197.5 143.777 1196.67 143.91 1195.8 143.977C1194.93 144.044 1194.1 144.077 1193.3 144.077L1189.9 147.977ZM1194.7 131.377C1201.5 130.777 1206.6 124.877 1206 118.077C1205.4 111.377 1199.5 106.277 1192.7 106.877C1186 107.377 1180.9 113.377 1181.5 120.177C1182 126.877 1188 131.977 1194.7 131.377Z" fill="#F28749"/>
<path d="M1192.4 103.077C1183.5 103.877 1176.9 111.677 1177.7 120.577C1178.4 129.477 1186.2 136.077 1195.1 135.277C1204 134.577 1210.6 126.777 1209.9 117.877C1209.1 108.977 1201.3 102.377 1192.4 103.077Z" stroke="#2C3045" stroke-width="2" stroke-linecap="round" stroke-linejoin="round"/>
<path d="M626.9 97V212.6C636.3 219.9 644.4 218 651.9 211.2C663.1 211.9 672.3 203.1 671.3 191.6C681 186.1 684.5 174.8 680.3 162.6C686.2 153.3 686.4 141.6 677.6 132.8C679.3 119.1 674.5 103.2 655.8 100.2C647.9 90.5 636.8 89.8 626.9 97Z" fill="#F2C38A"/>
<path d="M621.8 97V212.6C612.4 219.9 604.3 218 596.9 211.2C585.6 211.9 576.5 203.1 577.4 191.6C567.7 186.1 564.2 174.8 568.4 162.6C562.6 153.3 562.3 141.6 571.2 132.8C569.4 119.1 574.2 103.2 592.9 100.2C600.8 90.5 611.9 89.8 621.8 97Z" fill="#F2C38A"/>
<path d="M656.7 101C651.4 102.9 648 109 649.2 114.5C650.4 120 656.1 124.2 661.7 123.7C663.6 123.5 665.6 122.8 667 121.4C668.4 120 669.2 118 668.7 116.1C668.2 114.2 666.4 112.6 664.4 112.7C662.5 112.9 660.8 114.9 661.3 116.8" stroke="#F28749" stroke-width="1.5" stroke-linecap="round" stroke-linejoin="round"/>
<path d="M637.9 102.5C634.2 107.1 633.4 113.8 635.9 119.2C638.2 124.1 642.8 127.5 647.3 130.5C651.8 133.5 656.6 136.5 659.4 141.1C662.3 145.8 662.6 152.5 658.5 156.1" stroke="#F28749" stroke-width="1.5" stroke-linecap="round" stroke-linejoin="round"/>
<path d="M673 139.9C669.1 143 667.3 148.4 668.5 153.1C669.8 157.8 674 161.7 678.8 162.5" stroke="#F28749" stroke-width="1.5" stroke-linecap="round" stroke-linejoin="round"/>
<path d="M670.5 190.2C664 189.3 658.2 184.1 656.7 177.6C656.2 175.2 656.2 172.6 657.1 170.3C657.9 168 659.8 165.9 662.1 165.1C664.4 164.2 667.3 164.7 669 166.4C670.8 168.2 671.2 171.2 669.8 173.3C668.4 175.3 665.1 175.9 663.3 174.3" stroke="#F28749" stroke-width="1.5" stroke-linecap="round" stroke-linejoin="round"/>
<path d="M651.9 209.9C654.7 207.9 656.3 204.6 656.7 201.2C657.2 197.2 656 193 653.2 190.1C650.4 187.3 645.9 186.1 642.1 187.5C638.3 188.9 635.7 193.1 636.5 197.1C636.9 198.9 638 200.7 639.7 201.6C641.4 202.5 643.6 202.3 645 201C646.4 199.7 646.6 197.3 645.3 195.9" stroke="#F28749" stroke-width="1.5" stroke-linecap="round" stroke-linejoin="round"/>
<path d="M652.3 167.3C648 164.9 645.1 160.2 645 155.3C644.8 150.4 647.3 145.5 651.4 142.8" stroke="#F28749" stroke-width="1.5" stroke-linecap="round" stroke-linejoin="round"/>
<path d="M634 129.6C636.6 130.3 639.1 131.6 640.9 133.5C642.7 135.5 643.8 138.3 643.3 140.9C642.7 143.6 640.4 145.9 637.8 146C634.8 146.1 632.1 143.4 632.3 140.5C632.4 139 633.1 137.6 634.4 136.9C635.7 136.3 637.5 136.7 638.2 137.9" stroke="#F28749" stroke-width="1.5" stroke-linecap="round" stroke-linejoin="round"/>
<path d="M635.8 161.6C633 165.5 634 171.5 637.9 174.3C639.8 175.7 642.1 176.3 644.3 176.9C646.5 177.5 648.8 178.1 650.6 179.5C652.4 180.8 653.7 183.2 653.2 185.4" stroke="#F28749" stroke-width="1.5" stroke-linecap="round" stroke-linejoin="round"/>
<path d="M592 101C597.4 102.9 600.8 109 599.5 114.5C598.3 120 592.7 124.2 587 123.7C585.1 123.5 583.1 122.8 581.7 121.4C580.3 120 579.6 118 580 116.1C580.5 114.2 582.3 112.6 584.3 112.7C586.2 112.9 587.9 114.9 587.4 116.8" stroke="#F28749" stroke-width="1.5" stroke-linecap="round" stroke-linejoin="round"/>
<path d="M610.8 102.5C614.5 107.1 615.3 113.8 612.9 119.2C610.6 124.1 605.9 127.5 601.4 130.5C596.9 133.5 592.1 136.5 589.3 141.1C586.4 145.8 586.2 152.5 590.3 156.1" stroke="#F28749" stroke-width="1.5" stroke-linecap="round" stroke-linejoin="round"/>
<path d="M575.8 139.9C579.6 143 581.4 148.4 580.2 153.1C579 157.8 574.8 161.7 569.9 162.5" stroke="#F28749" stroke-width="1.5" stroke-linecap="round" stroke-linejoin="round"/>
<path d="M578.2 190.2C584.7 189.3 590.5 184.1 592 177.6C592.6 175.2 592.6 172.6 591.7 170.3C590.8 168 589 165.9 586.6 165.1C584.3 164.2 581.5 164.7 579.7 166.4C577.9 168.2 577.5 171.2 578.9 173.3C580.3 175.3 583.6 175.9 585.5 174.3" stroke="#F28749" stroke-width="1.5" stroke-linecap="round" stroke-linejoin="round"/>
<path d="M596.8 209.9C594 207.9 592.4 204.6 592 201.2C591.5 197.2 592.7 193 595.5 190.1C598.4 187.3 602.9 186.1 606.6 187.5C610.4 188.9 613 193.1 612.2 197.1C611.8 198.9 610.7 200.7 609 201.6C607.4 202.5 605.1 202.3 603.7 201C602.3 199.7 602.1 197.3 603.5 195.9" stroke="#F28749" stroke-width="1.5" stroke-linecap="round" stroke-linejoin="round"/>
<path d="M596.4 167.3C600.7 164.9 603.6 160.2 603.8 155.3C603.9 150.4 601.4 145.5 597.3 142.8" stroke="#F28749" stroke-width="1.5" stroke-linecap="round" stroke-linejoin="round"/>
<path d="M614.7 129.6C612.2 130.3 609.7 131.6 607.8 133.5C606 135.5 605 138.3 605.5 140.9C606 143.6 608.3 145.9 611 146C613.9 146.1 616.6 143.4 616.4 140.5C616.4 139 615.6 137.6 614.3 136.9C613 136.3 611.3 136.7 610.5 137.9" stroke="#F28749" stroke-width="1.5" stroke-linecap="round" stroke-linejoin="round"/>
<path d="M613 161.6C615.7 165.5 614.7 171.5 610.8 174.3C609 175.7 606.7 176.3 604.5 176.9C602.3 177.5 600 178.1 598.1 179.5C596.3 180.8 595 183.2 595.5 185.4" stroke="#F28749" stroke-width="1.5" stroke-linecap="round" stroke-linejoin="round"/>
<path d="M598.9 321.6L707 256.7L706.1 366" stroke="#F28749" stroke-width="8" stroke-miterlimit="10"/>
<path d="M570.6 321.6C570.6 337.2 583.3 349.8 598.9 349.8C614.5 349.8 627.1 337.2 627.1 321.6C627.1 306 614.5 293.4 598.9 293.4C583.3 293.4 570.6 306 570.6 321.6Z" fill="#0C0C0C"/>
<path d="M575.3 321.6C575.3 334.6 585.8 345.2 598.9 345.2C611.9 345.2 622.5 334.6 622.5 321.6C622.5 308.6 611.9 298 598.9 298C585.8 298 575.3 308.6 575.3 321.6Z" fill="white"/>
<path d="M594.7 309.4H601.5V332H596.5V314.2H594.7V309.4Z" fill="#F28749"/>
<path d="M677.9 256.7C677.9 272.3 690.5 285 706.1 285C721.7 285 734.4 272.3 734.4 256.7C734.4 241.1 721.7 228.5 706.1 228.5C690.5 228.5 677.9 241.1 677.9 256.7Z" fill="#0C0C0C"/>
<path d="M682.5 256.7C682.5 269.8 693.1 280.3 706.1 280.3C719.2 280.3 729.7 269.8 729.7 256.7C729.7 243.7 719.2 233.1 706.1 233.1C693.1 233.1 682.5 243.7 682.5 256.7Z" fill="white"/>
<path d="M708.8 262.2H714.4V267H698.1C699.3 265.8 699.9 265.2 699.9 265.2C702.033 263 703.667 261.233 704.8 259.9C706 258.633 707 257.3 707.8 255.9C708.6 254.567 709 253.3 709 252.1C709 251.1 708.667 250.333 708 249.8C707.333 249.2 706.5 248.9 705.5 248.9C704.5 248.9 703.7 249.167 703.1 249.7C702.5 250.233 702.2 250.833 702.2 251.5C702.2 252.833 702.633 253.967 703.5 254.9L700.5 257.6C699.9 257.333 699.367 256.833 698.9 256.1C698.433 255.367 698.067 254.6 697.8 253.8C697.533 252.933 697.4 252.2 697.4 251.6C697.4 250.333 697.767 249.133 698.5 248C699.167 246.867 700.167 245.933 701.5 245.2C702.9 244.533 704.5 244.2 706.3 244.2C707.833 244.2 709.167 244.533 710.3 245.2C711.5 245.867 712.433 246.8 713.1 248C713.767 249.133 714.1 250.367 714.1 251.7C714.1 252.9 713.867 254.067 713.4 255.2C712.933 256.333 712.333 257.433 711.6 258.5C710.933 259.5 710 260.733 708.8 262.2Z" fill="#F28749"/>
<path d="M677.9 366C677.9 381.6 690.5 394.2 706.1 394.2C721.7 394.2 734.4 381.6 734.4 366C734.4 350.4 721.7 337.7 706.1 337.7C690.5 337.7 677.9 350.4 677.9 366Z" fill="#0C0C0C"/>
<path d="M682.5 366C682.5 379 693.1 389.6 706.1 389.6C719.2 389.6 729.7 379 729.7 366C729.7 352.9 719.2 342.4 706.1 342.4C693.1 342.4 682.5 352.9 682.5 366Z" fill="white"/>
<path d="M708.4 361.7C709.8 361.967 710.933 362.667 711.8 363.8C712.667 364.867 713.1 366.433 713.1 368.5C713.1 370.1 712.7 371.467 711.9 372.6C711.167 373.8 710.2 374.733 709 375.4C707.733 376 706.4 376.3 705 376.3C703.867 376.3 702.667 376.067 701.4 375.6C700.2 375.067 699.233 374.433 698.5 373.7L701.1 369.6C701.433 370.133 701.967 370.567 702.7 370.9C703.367 371.3 704.067 371.5 704.8 371.5C705.667 371.5 706.4 371.2 707 370.6C707.667 370 708 369.2 708 368.2C708 367.2 707.7 366.4 707.1 365.8C706.567 365.2 705.8 364.9 704.8 364.9C704.2 364.9 703.733 364.933 703.4 365C703.067 365 702.667 365.067 702.2 365.2L702.1 365.1L705.8 358.2H700.4V353.4H712.7L708.4 361.7Z" fill="#F28749"/>
<path d="M644.1 289C644.1 294 648.2 298 653.2 298C658.2 298 662.2 294 662.2 289C662.2 284 658.2 279.9 653.2 279.9C648.2 279.9 644.1 284 644.1 289Z" fill="white"/>
<path d="M697.1 311.4C697.1 316.4 701.1 320.4 706.1 320.4C711.1 320.4 715.2 316.4 715.2 311.4C715.2 306.4 711.1 302.3 706.1 302.3C701.1 302.3 697.1 306.4 697.1 311.4Z" fill="white"/>
<path d="M967.1 72.8L946.1 109.2H956.6V181.4H967.1H977.7V109.2H988.2L967.1 72.8Z" fill="#F2B366"/>
<path d="M920.8 181.4L899.7 145.1H910.3V72.8L920.8 72.9L931.3 72.8V145.1H941.9L920.8 181.4Z" fill="#F28749"/>
<path d="M238.555 222.447L301.203 116.11L323.5 158.078L375.258 79.5715" stroke="#0C0C0C" stroke-width="12" stroke-linecap="round" stroke-linejoin="round"/>
<path d="M380.7 64.4L364.3 72.6C362.5 73.5 362.5 76 364.2 76.9L373.8 81.8L383.4 86.8C385.1 87.7 387.2 86.2 386.9 84.3L384.1 66.2C383.9 64.6 382.1 63.7 380.7 64.4Z" fill="#0C0C0C"/>
<path d="M211.928 222.424L254.063 157.29L294.996 225.04L343.833 149.102L356.354 164.193" stroke="#F28749" stroke-width="12" stroke-linecap="round" stroke-linejoin="round"/>
<path d="M366.1 177.8L365.3 159.5C365.2 157.5 362.9 156.5 361.4 157.7L352.9 164.4L344.5 171.1C343 172.4 343.5 174.8 345.3 175.3L363 180.2C364.6 180.6 366.1 179.4 366.1 177.8Z" fill="#F28749"/>
<path d="M420.7 120.9C420.7 139.5 435.8 154.6 454.4 154.6C473 154.6 488.1 139.5 488.1 120.9C488.1 102.3 473 87.3 454.4 87.3C435.8 87.3 420.7 102.3 420.7 120.9Z" stroke="#F28749" stroke-width="3" stroke-miterlimit="10"/>
<path d="M436.9 120.9C436.9 139.5 444.7 154.6 454.4 154.6C464.1 154.6 471.9 139.5 471.9 120.9C471.9 102.3 464.1 87.3 454.4 87.3C444.7 87.3 436.9 102.3 436.9 120.9Z" stroke="#F28749" stroke-width="3" stroke-miterlimit="10"/>
<path d="M420.7 120.9H488.1" stroke="#F28749" stroke-width="2" stroke-miterlimit="10"/>
<path d="M424.5 105H484" stroke="#F28749" stroke-width="2" stroke-miterlimit="10"/>
<path d="M424.5 136.8H484" stroke="#F28749" stroke-width="2" stroke-miterlimit="10"/>
<path d="M454.4 87.3V154.6" stroke="#F28749" stroke-width="3" stroke-miterlimit="10"/>
<path d="M374.2 403.4C373.6 392.9 374.4 382 378.3 382.2C382.1 382.4 383.1 397.4 383.1 397.4C383.1 397.4 388.7 363.1 395.3 364.1C401.8 365 392.9 387.3 392.9 387.3C394.2 385.6 395.6 384.4 397.6 384.7L407.1 389.1C407.1 389.1 412.5 392.4 415.9 394C419.3 395.5 412.1 415.7 401.1 423.2L396 437.1L374 429.7L379.2 416.6C379.2 416.6 374.8 413.9 374.2 403.4Z" fill="white" stroke="#2C3045" stroke-width="1.5" stroke-linecap="round" stroke-linejoin="round"/>
<path d="M152 414.9C152 414.9 132 425.1 113 538.5L151.7 545.4L160.3 495.3L152 414.9Z" fill="#F28749"/>
<path d="M200 363.7V417.8L243.3 418.2V363.7H200Z" fill="white" stroke="#2C3045" stroke-width="1.5" stroke-linecap="round" stroke-linejoin="round"/>
<path d="M233.2 872.1V896.1H247.4L247.5 891L260.1 896.1H303.3L261.8 870.3L233.2 872.1Z" fill="#FFB855"/>
<path d="M175.9 872.5V896.1H162.1L161.6 892.7L149.8 896.1H105.8L147.3 870.3L175.9 872.5Z" fill="#FFB855"/>
<path d="M152 414.9L198 403H245.1L290.1 415.9L278.7 628C278.7 628 271.2 751.5 267.3 870L229.5 873.2L220.6 678.6L178.6 873.7L139.5 869.3L164.6 627.6L152 414.9Z" fill="#0C0C0C"/>
<path d="M230.2 858.9L266.7 856.1" stroke="#2C3045" stroke-width="1.5" stroke-linecap="round" stroke-linejoin="round"/>
<path d="M180.3 860.9L142.2 855.8" stroke="#2C3045" stroke-width="1.5" stroke-linecap="round" stroke-linejoin="round"/>
<path d="M239.2 751.1L243.5 857.4" stroke="#2C3045" stroke-width="1.5" stroke-linecap="round" stroke-linejoin="round"/>
<path d="M184.9 751.1L171.6 858.8" stroke="#2C3045" stroke-width="1.5" stroke-linecap="round" stroke-linejoin="round"/>
<path d="M220.6 678.6L225.9 661.5" stroke="#2C3045" stroke-width="1.5" stroke-linecap="round" stroke-linejoin="round"/>
<path d="M227.4 382.3C220.9 381.9 199.9 374.5 188.3 362.9C176.7 351.2 168.3 319.9 167.4 311.5C166.5 303.1 165.3 255.3 217 251.6C268.7 248 274.1 292.1 273.4 302.3C273.4 308.2 271.5 318.1 272 322.4C272.4 326.7 276 339.2 271.8 349.6C259.9 375.4 234 382.7 227.4 382.3Z" fill="white" stroke="#2C3045" stroke-width="1.5" stroke-linecap="round" stroke-linejoin="round"/>
<g opacity="0.2">
<path d="M197.5 332.4C199 337.5 204.3 340.3 209.3 338.8C214.4 337.3 217.2 332 215.7 326.9C214.2 321.9 208.9 319.1 203.8 320.6C198.8 322.1 195.9 327.4 197.5 332.4Z" fill="#F2C38A"/>
<path d="M253.7 334.8C255.3 339.8 260.6 342.7 265.6 341.1C270.7 339.6 273.5 334.3 272 329.3C270.5 324.2 265.2 321.4 260.1 322.9C255.1 324.4 252.2 329.7 253.7 334.8Z" fill="#F2C38A"/>
</g>
<path d="M180.9 264.1C180.9 264.1 184.6 257.3 194.9 253C197.4 251.6 209.3 246 225.6 247.2C232.1 246.8 267 246.8 277.2 282.2C275.4 283.6 273.4 284.7 271.2 285.6C271.3 285.9 271.3 286.1 271.4 286.4L270.3 285.9C264.3 288.1 257.4 288.5 251.2 287.4C242.7 285.9 231.8 273.6 231.3 273C232.8 284.2 242.5 286.9 242.5 286.9C228.3 287.8 221.7 274.4 219.6 268.8C218.933 268.667 218.267 268.533 217.6 268.4C209.2 267.7 203.4 269.5 198.8 273.3C194.2 277.1 192 285.6 193.6 291C193.6 291 185.7 293.1 182.9 299.5C180 305.8 181.5 322.9 181.5 322.9L165.4 322.5C165.4 322.5 155.6 289.8 180.9 264.1Z" fill="#0C0C0C"/>
<path d="M173.9 316.6C171.3 315.4 166.2 314 159.6 319.1C153.1 324.3 154.8 334.6 158.6 341.4C162.4 348.2 173.9 353.8 180.9 351.8C187.8 349.9 181.5 322.9 181.5 322.9C179.8 319.9 176.4 317.7 173.9 316.6Z" fill="white"/>
<path d="M159.8 326.2L180.8 338.7" stroke="#2C3045" stroke-width="1.5" stroke-linecap="round" stroke-linejoin="round"/>
<path d="M165.4 341.5L178.3 324.8" stroke="#2C3045" stroke-width="1.5" stroke-linecap="round" stroke-linejoin="round"/>
<path d="M181.5 322.9C181.5 322.9 178.7 318.5 173.6 316.4C171.8 315.8 166.2 314 159.6 319.1C153.1 324.3 154.8 334.6 158.6 341.4C162.4 348.2 173.9 353.8 180.9 351.8" stroke="#2C3045" stroke-width="1.5" stroke-linecap="round" stroke-linejoin="round"/>
<path d="M196.4 276C196.4 276 187 267.8 181.5 264.5" stroke="#2C3045" stroke-width="1.5" stroke-linecap="round" stroke-linejoin="round"/>
<path d="M215.5 315.8C215.6 319.1 218.4 321.7 221.7 321.6C225 321.5 227.7 318.8 227.6 315.5C227.5 312.1 224.7 309.5 221.4 309.6C218.1 309.7 215.4 312.5 215.5 315.8Z" fill="#2C3045"/>
<path d="M252.6 315.8C252.7 319.1 255.5 321.7 258.8 321.6C262.1 321.5 264.7 318.8 264.6 315.5C264.5 312.1 261.8 309.5 258.4 309.6C255.1 309.7 252.5 312.5 252.6 315.8Z" fill="#2C3045"/>
<path d="M210.1 302.2C210.1 302.2 217.4 291.1 229.4 296.7" stroke="#2C3045" stroke-width="1.5" stroke-linecap="round" stroke-linejoin="round"/>
<path d="M271.1 302.2C271.1 302.2 264.6 291.6 253.5 296.1" stroke="#2C3045" stroke-width="1.5" stroke-linecap="round" stroke-linejoin="round"/>
<path d="M221.6 343C221.6 343 235.5 359.9 255.7 347.3" stroke="#2C3045" stroke-width="1.5" stroke-linecap="round" stroke-linejoin="round"/>
<path d="M244.8 309.1V320.7C249.4 324 253.3 331.2 253.3 336.3L244.1 339.6L244.2 344.9" stroke="#2C3045" stroke-width="1.5" stroke-linecap="round" stroke-linejoin="round"/>
<path d="M181.6 407.2L223.4 517.4L259.9 407.2L244.8 402.6L198 403L181.6 407.2Z" fill="white"/>
<path d="M211.3 423.4L215.7 433.4L210.5 483.4L223.4 517.4L234.8 483.1L229.9 433.5L235.1 423.4L223.1 400.8L211.3 423.4Z" fill="#FFB855"/>
<path d="M198.2 390L223.1 400.8L244.2 392.6L248.3 403L237.2 427.5L223.1 400.8L209.5 426.9L192.9 404.2L198.2 390Z" fill="white"/>
<path d="M192.9 404.2L209.5 426.9L223.1 400.8L237.2 427.5L248.3 403" stroke="#2C3045" stroke-width="1.5" stroke-linecap="round" stroke-linejoin="round"/>
<path d="M198.2 390L223.1 400.8L244.2 392.6" stroke="#2C3045" stroke-width="1.5" stroke-linecap="round" stroke-linejoin="round"/>
<path d="M229.5 433.1C229.2 433.1 216.1 433.1 216.1 433.1" stroke="#2C3045" stroke-width="1.5" stroke-linecap="round" stroke-linejoin="round"/>
<path d="M174.7 411L170.6 454.5L200 460" stroke="#2C3045" stroke-width="1.5" stroke-linecap="round" stroke-linejoin="round"/>
<path d="M190.5 458.2L188.9 485.2L223.4 517.4" stroke="#2C3045" stroke-width="1.5" stroke-linecap="round" stroke-linejoin="round"/>
<path d="M268.7 410.7L272.6 454.5L243.3 460" stroke="#2C3045" stroke-width="1.5" stroke-linecap="round" stroke-linejoin="round"/>
<path d="M252.8 458.2L254.3 485.2L223.4 517.4" stroke="#2C3045" stroke-width="1.5" stroke-linecap="round" stroke-linejoin="round"/>
<path d="M164.6 627.6C164.6 627.6 192.4 653.5 223.4 627.6C223.4 627.6 247.3 655.7 278.4 633.3" stroke="#2C3045" stroke-width="1.5" stroke-linecap="round" stroke-linejoin="round"/>
<path d="M223.4 627.6V518.1" stroke="#2C3045" stroke-width="1.5" stroke-linecap="round" stroke-linejoin="round"/>
<path d="M235.8 524C235.8 526.7 233.7 528.9 231.2 528.9C228.7 528.9 226.6 526.7 226.6 524C226.6 521.3 228.7 519.1 231.2 519.1C233.7 519.1 235.8 521.3 235.8 524Z" fill="#0C0C0C"/>
<path d="M236.1 552.1C236.1 554.8 234.1 557 231.5 557C229 557 227 554.8 227 552.1C227 549.4 229 547.2 231.5 547.2C234.1 547.2 236.1 549.4 236.1 552.1Z" fill="#0C0C0C"/>
<path d="M235.2 587.7C235.2 590.5 233.2 592.6 230.7 592.6C228.1 592.6 226.1 590.5 226.1 587.7C226.1 585 228.1 582.8 230.7 582.8C233.2 582.8 235.2 585 235.2 587.7Z" fill="#0C0C0C"/>
<path d="M235.8 620.1C235.8 622.8 233.7 625 231.2 625C228.7 625 226.6 622.8 226.6 620.1C226.6 617.4 228.7 615.2 231.2 615.2C233.7 615.2 235.8 617.4 235.8 620.1Z" fill="#0C0C0C"/>
<path d="M159.9 566.6L231.6 573.9L242.2 455.9L170.4 448.5L159.9 566.6Z" fill="#2C3045"/>
<path d="M158.3 569.5L229.5 581.8L247.2 464.8L176 452.4L158.3 569.5Z" fill="#FFB855"/>
<path d="M146 513.6L118.2 536.7C129.4 549.7 209.4 551.6 209.4 551.6L213.5 524.4L146 513.6Z" fill="white"/>
<path d="M210.9 526C210.9 526 214 520.8 218.8 516.1C223.5 511.3 235.8 509.9 238 512.6C240.3 515.3 228.6 521.2 228.6 521.2C228.6 521.2 236.7 523.4 237.2 523.4C237.7 523.4 238.8 520 238.8 520C238.8 520 244.2 522.9 243.4 528.9C243.4 528.9 246.4 535 243.3 539.9C243.6 540 244.1 547 240.8 550.4C240.8 550.4 240.7 555.3 236.2 557.3C233.1 558.9 216.1 554.2 209.4 551.6L210.9 526Z" fill="white"/>
<path d="M205 520.9L211.9 522.6L208.2 556.1L199.4 554.1L205 520.9Z" fill="white" stroke="#2C3045" stroke-width="1.5" stroke-linecap="round" stroke-linejoin="round"/>
<path d="M206.7 520L200.6 557.6C168.2 551.6 116.2 553.3 113 538.5L140.7 506.4L206.7 520Z" fill="#F28749"/>
<path d="M286.7 471.5C286.7 471.5 344.7 529.7 351 530.6L349.7 475.6L289.9 415.9L286.7 471.5Z" fill="#F28749"/>
<path d="M369 429.9L372.1 423.6L400.2 434.2L397.1 441.7L369 429.9Z" fill="white" stroke="#2C3045" stroke-width="1.5" stroke-linecap="round" stroke-linejoin="round"/>
<path d="M368.5 427.3L399 440.8C387.5 471.3 373.4 530.6 351 530.6L343.8 487.6L368.5 427.3Z" fill="#F28749"/>
<path d="M164.1 511.2L149.1 508.1" stroke="#2C3045" stroke-width="1.5" stroke-linecap="round" stroke-linejoin="round"/>
<path d="M164.6 467L157.8 509.7" stroke="#2C3045" stroke-width="1.5" stroke-linecap="round" stroke-linejoin="round"/>
<path d="M156.1 424.1C158.7 430.8 162 441.1 164.6 455.2" stroke="#2C3045" stroke-width="1.5" stroke-linecap="round" stroke-linejoin="round"/>
<path d="M152.2 415.3C152.2 415.3 153 416.8 154.7 420.5" stroke="#2C3045" stroke-width="1.5" stroke-linecap="round" stroke-linejoin="round"/>
<path d="M393.8 384.7C395.5 381.4 401 380.7 403.3 385.1C403.3 385.1 410.6 384 411.8 389.5C411.8 389.5 418.7 390.6 417.1 396.6C415.5 402.6 411.2 406.9 409 405.7C406.8 404.6 407.5 401.2 407.5 401.2C407.5 401.2 404 405.7 401.2 404.1C398.3 402.6 399.3 396.9 399.3 396.9C399.3 396.9 395.7 400.8 393.3 400.1C390.9 399.4 392.1 388 393.8 384.7Z" fill="white" stroke="#2C3045" stroke-width="1.5" stroke-linecap="round" stroke-linejoin="round"/>
<path d="M403.3 385.1L399.3 396.8" stroke="#2C3045" stroke-width="1.5" stroke-linecap="round" stroke-linejoin="round"/>
<path d="M411.8 389.5L407.5 401.2" stroke="#2C3045" stroke-width="1.5" stroke-linecap="round" stroke-linejoin="round"/>
<path d="M383.1 397.4C383.1 397.4 391 402.5 392 411.2" stroke="#2C3045" stroke-width="1.5" stroke-linecap="round" stroke-linejoin="round"/>
<path d="M349.2 475.1L350.1 483.4" stroke="#2C3045" stroke-width="1.5" stroke-linecap="round" stroke-linejoin="round"/>
<path d="M287.3 445.7L286.7 452.4" stroke="#2C3045" stroke-width="1.5" stroke-linecap="round" stroke-linejoin="round"/>
<path d="M290 417.2L287.6 442.2" stroke="#2C3045" stroke-width="1.5" stroke-linecap="round" stroke-linejoin="round"/>
<path d="M286.7 471.5V462.2" stroke="#2C3045" stroke-width="1.5" stroke-linecap="round" stroke-linejoin="round"/>
<path d="M1078.7 400.9C1069.7 404.4 1059.9 406.8 1050.4 405C1040.9 403.2 1031.9 396.5 1029.6 387.2C1027.4 378.1 1032.4 367.9 1040.9 364C1049.4 360.2 1060.4 363.2 1065.8 370.8C1071.1 378.4 1070.6 389 1066 397C1061.5 404.9 1053.4 410.5 1044.8 413.6C1036.1 416.8 1026.9 417.9 1017.7 418.8" stroke="#2C3045" stroke-width="2" stroke-linecap="round" stroke-linejoin="round"/>
<path d="M1312.7 419C1323 457.2 1348.1 505.5 1339.2 520.4L1312.3 501.1C1312.3 501.1 1306.3 474.5 1296 451L1312.7 419Z" fill="white"/>
<path d="M1313 416.6L1335.9 480.9L1309.5 492.2L1284.5 434.6L1313 416.6Z" fill="#0C0C0C"/>
<path d="M1339.6 486.3L1310.7 497.5L1304.2 481.5L1333.1 469L1339.6 486.3Z" fill="#0C0C0C"/>
<path d="M1305.8 480.3L1331.3 469.8" stroke="#2C3045" stroke-width="1.5" stroke-linecap="round" stroke-linejoin="round"/>
<path d="M1280.3 701.2H1320.4L1316.7 750.9C1316.7 750.9 1321.3 771.4 1321.3 778.4C1321.3 785.5 1313.6 851.9 1313.6 851.9L1317 896.3H1297.3L1297 851.5C1297 851.5 1283 783.4 1282.9 777.4C1282.8 771.4 1287 750.9 1287 750.9L1280.3 701.2Z" fill="white"/>
<path d="M1297.2 872.9L1297 851.5C1297 851.5 1283 783.4 1282.9 777.4C1282.8 771.4 1287 750.9 1287 750.9L1280.3 701.2H1320.4L1316.7 750.9C1316.7 750.9 1321.3 771.4 1321.3 778.4C1321.3 785.5 1313.6 851.9 1313.6 851.9L1315.2 872.3" stroke="#2C3045" stroke-width="1.5" stroke-linecap="round" stroke-linejoin="round"/>
<path d="M1307.6 896.3H1317.8L1315 870.4V891.8C1315 891.8 1311.6 890.1 1307.6 890.1C1303.7 890.1 1298.9 892.4 1298.9 892.4L1297.1 870.4L1297 896.3H1307.6Z" fill="#F28749"/>
<path d="M1207.8 701.2H1251L1239.7 750.9C1239.7 750.9 1251.1 772 1251.8 777.9C1252.5 783.7 1239.8 853.2 1239.8 853.2L1241.9 870.2L1218.7 895L1199.3 896.1L1222 854.3L1207.8 701.2Z" fill="white"/>
<path d="M1203 889.2L1222 854.3L1207.8 701.2H1251L1239.7 750.9C1239.7 750.9 1251.1 772 1251.8 777.9C1252.5 783.7 1239.8 853.2 1239.8 853.2L1240.9 861.9" stroke="#2C3045" stroke-width="1.5" stroke-linecap="round" stroke-linejoin="round"/>
<path d="M1241 862.8C1241 862.8 1243.3 864.8 1244 868.7C1244.7 872.5 1241.2 896.3 1241.2 896.3L1237 875.3L1218.5 896.3H1196.1C1196.1 896.3 1196.3 886 1216.9 889.7L1241 862.8Z" fill="#F28749"/>
<path d="M1262.5 518.2H1237.2C1220.4 538.4 1199.3 582.7 1199.3 772.6C1259.3 779.3 1281.7 779 1335.1 771.4C1335.1 771.4 1341.1 564.6 1290.1 518.2" fill="#F28749"/>
<path d="M1213.7 345.9C1212.9 348 1211.7 350.1 1210.1 351.9C1207.7 354.8 1204.4 356.9 1202 359.9C1198.7 364.2 1197.7 370 1199.4 375.1C1201 380.2 1205.3 384.4 1210.4 385.9C1203.5 389.3 1200.4 398.9 1204.2 405.7C1207.9 412.5 1217.7 415 1224.3 410.9C1224.4 420.1 1232.6 427.9 1241.6 429.3C1250.7 430.8 1260 426.8 1266.7 420.6C1269.7 426.7 1277.1 430.3 1283.8 429C1290.5 427.7 1297.6 419.9 1298 413.1C1303.9 415.5 1312.7 416.1 1316.6 410.2C1320.6 404.4 1320.1 394.5 1316.2 389.4C1320.1 387.9 1327.5 385.1 1328.7 381.1C1329.9 377.1 1330.8 370.8 1328.4 367.5C1324.8 362.7 1318.4 360.5 1315.3 355.4C1312.6 351 1313 345.7 1313.8 340.5L1213.7 345.9Z" fill="#2C3045"/>
<path d="M1203.1 332.8C1203.1 332.8 1205.1 336.4 1211.8 338.9C1218.5 341.3 1212.8 338.9 1212.8 338.9V310.6H1203.1V332.8Z" fill="#2C3045"/>
<path d="M1130.5 415.3L1163.3 473.3L1213.2 417.9L1224.2 458.1C1201.5 476.1 1165.2 509.7 1158.1 507.9C1147.6 504.6 1119.2 432.6 1113.6 422.8L1130.5 415.3Z" fill="white"/>
<path d="M1130.5 415.3L1163.3 473.3L1168.8 467.2" stroke="#2C3045" stroke-width="1.5" stroke-linecap="round" stroke-linejoin="round"/>
<path d="M1185.2 490.6C1172.4 500.9 1161.7 508.8 1158.1 507.9C1147.6 504.6 1119.2 432.6 1113.6 422.8" stroke="#2C3045" stroke-width="1.5" stroke-linecap="round" stroke-linejoin="round"/>
<path d="M1214.5 416.6L1168 466.7L1193.8 484.7C1207.2 474.1 1220.9 464.8 1232.7 445L1214.5 416.6Z" fill="#0C0C0C"/>
<path d="M1214.5 416.6L1251.5 413.6V381.1H1263.7H1276V413.6L1313 416.6L1290.1 515.8H1237.4L1227.6 473.3C1227.6 473.3 1220.2 466.8 1219.4 462.9C1218.7 458.9 1221.3 446 1221.3 446L1214.5 416.6Z" fill="white"/>
<path d="M1214.5 416.6L1251.5 413.6H1276L1313 416.6C1313.3 464.7 1297.8 484.3 1290.1 515.8L1308.4 537.2L1265.3 541.6L1262.6 526.3L1258.8 540.7L1221.9 537L1237 515.8L1228.7 479C1228.7 479 1218.8 468.6 1218 464.7C1217.3 460.7 1221.3 446 1221.3 446C1218.5 434.7 1215.9 423.9 1214.5 416.6Z" fill="#0C0C0C"/>
<path d="M1219.1 455C1219.9 451.2 1221.3 446 1221.3 446L1219.9 440.2" stroke="#2C3045" stroke-width="1.5" stroke-linecap="round" stroke-linejoin="round"/>
<path d="M1252.4 398.8C1258.7 398.3 1279 390.8 1290.1 379.4C1301.2 367.9 1308.9 337.4 1309.7 329.2C1310.5 321.1 1310.9 274.6 1260.7 271.8C1210.5 268.9 1205.8 311.8 1206.7 321.7C1206.8 327.4 1210.4 337.9 1210 342.1C1209.6 346.3 1204.6 357.6 1208.8 367.7C1220.7 392.5 1246 399.2 1252.4 398.8Z" fill="white" stroke="#2C3045" stroke-width="1.5" stroke-linecap="round" stroke-linejoin="round"/>
<path d="M1277.5 291.8C1278.8 290.9 1280.7 291.1 1282 291.9C1283.4 292.7 1284.4 294 1285.2 295.3C1294.3 308.6 1295.4 326.9 1288.1 341.3C1285.7 346.1 1281.7 350.8 1276.4 351.1C1284.9 352.4 1294.8 348.4 1299.5 341.3L1313.4 335.6C1315.3 323.1 1311.5 288.7 1290.3 279.2C1290.3 279.2 1271.1 257.9 1234.7 273C1185.9 298.1 1203.1 332.8 1203.1 332.8C1203.1 332.8 1203.5 324.7 1205.9 322.1C1208.3 319.4 1210.9 319 1214.4 318.4C1217.9 317.7 1221.5 317.7 1225 317.3C1232.7 316.4 1240.7 313.3 1244.6 306.7C1247.4 302 1247.7 296.3 1249.9 291.4C1252.4 285.9 1257.5 281.5 1263.5 280.9C1269.4 280.3 1276.3 285.9 1277.5 291.8Z" fill="#2C3045"/>
<path d="M1307.4 336.7C1309.9 335.8 1314.9 333.8 1320.7 339.4C1326.6 345 1323.9 354.9 1319.6 361.1C1315.3 367.3 1303.7 371.6 1297.1 369.1C1290.6 366.5 1299.1 342.1 1299.1 342.1C1301 339.4 1304.8 337.6 1307.4 336.7Z" fill="white"/>
<path d="M1316.6 349.5L1299.4 357.7" stroke="#2C3045" stroke-width="1.5" stroke-linecap="round" stroke-linejoin="round"/>
<path d="M1313 360.5L1303.6 344.6" stroke="#2C3045" stroke-width="1.5" stroke-linecap="round" stroke-linejoin="round"/>
<path d="M1299.1 342.1C1301 339.4 1304.8 337.6 1307.4 336.7C1309.9 335.8 1314.9 333.8 1320.7 339.4C1326.6 345 1323.9 354.9 1319.6 361.1C1315.3 367.3 1303.1 371.6 1296.6 369.1" stroke="#2C3045" stroke-linecap="round" stroke-linejoin="round"/>
<path d="M1278.2 290C1278.2 290 1284.4 282.3 1289.9 279.8" stroke="white" stroke-width="1.5" stroke-linecap="round" stroke-linejoin="round"/>
<path d="M1206.6 321.3C1206.6 321.3 1203.4 324.4 1203.4 331.5" stroke="white" stroke-width="1.5" stroke-linecap="round" stroke-linejoin="round"/>
<g opacity="0.2">
<path d="M1208.6 357.7C1210.2 363.1 1215.9 366.2 1221.4 364.6C1226.8 362.9 1229.8 357.2 1228.2 351.8C1226.6 346.4 1220.9 343.3 1215.4 345C1210 346.6 1207 352.3 1208.6 357.7Z" fill="#F2C38A"/>
<path d="M1256.5 357.1C1258.2 362.5 1263.9 365.6 1269.3 364C1274.7 362.3 1277.8 356.6 1276.1 351.2C1274.5 345.8 1268.8 342.7 1263.4 344.4C1258 346 1254.9 351.7 1256.5 357.1Z" fill="#F2C38A"/>
</g>
<path d="M1229.5 365.5C1229.5 365.5 1232.3 382 1245.5 379.7C1258.6 377.4 1256.1 361.9 1256.1 361.9L1229.5 365.5Z" fill="#FFB855"/>
<path d="M1263.9 338.3C1263.9 341.6 1261.2 344.1 1258 344.1C1254.8 344 1252.2 341.4 1252.3 338.1C1252.3 334.9 1255 332.4 1258.2 332.4C1261.4 332.5 1264 335.1 1263.9 338.3Z" fill="#2C3045"/>
<path d="M1226.6 337.7C1226.6 340.9 1223.9 343.5 1220.7 343.4C1217.5 343.4 1214.9 340.7 1215 337.5C1215 334.3 1217.7 331.7 1220.9 331.8C1224.1 331.8 1226.7 334.5 1226.6 337.7Z" fill="#2C3045"/>
<path d="M1270 324.1C1270 324.1 1263.7 315.6 1252.3 319.1" stroke="#2C3045" stroke-width="1.5" stroke-linecap="round" stroke-linejoin="round"/>
<path d="M1212.3 324.7C1212.3 324.7 1218.8 314.9 1228.4 320" stroke="#2C3045" stroke-width="1.5" stroke-linecap="round" stroke-linejoin="round"/>
<path d="M1262 334.7L1266.7 332.4L1262.2 338.2L1262 334.7Z" fill="#2C3045"/>
<path d="M1216.6 335.1L1211.4 332.8L1215.9 337.5L1216.6 335.1Z" fill="#2C3045"/>
<path d="M1229.5 365.5L1256.1 361.9C1256.1 361.9 1256.1 374.9 1245.2 376.7C1234.4 378.5 1229.5 365.5 1229.5 365.5Z" fill="white" stroke="#2C3045" stroke-width="1.5" stroke-linecap="round" stroke-linejoin="round"/>
<path d="M1234.4 331.8V342.5L1224.5 350.6L1234.4 355.6" fill="white"/>
<path d="M1234.4 331.8V342.5L1224.5 350.6L1234.4 355.6" stroke="#2C3045" stroke-width="1.5" stroke-linecap="round" stroke-linejoin="round"/>
<path d="M1299.4 364.3C1299.4 364.3 1293 376.5 1299.4 376.5C1305.8 376.5 1299.4 364.3 1299.4 364.3Z" fill="#F28749"/>
<path d="M1276 413.6L1261.6 466L1251.5 413.6L1263.7 411L1276 413.6Z" fill="white"/>
<path d="M1238.3 414.6L1232.9 438.5L1248.7 445.2L1241.7 453.8L1261.1 467.4" stroke="#2C3045" stroke-width="1.5" stroke-linecap="round" stroke-linejoin="round"/>
<path d="M1285.5 414.6L1290.9 438.5L1275.1 445.2L1282.1 453.8L1262.6 467.4" stroke="#2C3045" stroke-width="1.5" stroke-linecap="round" stroke-linejoin="round"/>
<path d="M1251.5 409.3C1236.2 416.6 1235.4 425.1 1231.4 432.1L1247.2 434.1L1261.8 467.4L1276.7 434.9L1293.9 431.4C1290.6 423.2 1283.2 412.2 1276.1 409.3L1262.6 438.4L1251.5 409.3Z" fill="white"/>
<path d="M1276 409.3V413.6L1262.6 438.4L1251.5 413.6V409.3" stroke="#2C3045" stroke-width="1.5" stroke-linecap="round" stroke-linejoin="round"/>
<path d="M1293.9 431.4C1293.9 431.4 1277.2 433.4 1263.2 440C1263.2 440 1243 430.5 1231.4 432.1" stroke="#2C3045" stroke-width="1.5" stroke-linecap="round" stroke-linejoin="round"/>
<path d="M1261.8 467.4L1262.6 440.5" stroke="#2C3045" stroke-width="1.5" stroke-linecap="round" stroke-linejoin="round"/>
<path d="M1262.6 526.3L1261.8 467.4" stroke="#2C3045" stroke-width="1.5" stroke-linecap="round" stroke-linejoin="round"/>
<path d="M1270.9 474.4C1270.9 476.2 1269.5 477.6 1267.8 477.6C1266 477.6 1264.6 476.2 1264.6 474.4C1264.6 472.6 1266 471.2 1267.8 471.2C1269.5 471.2 1270.9 472.6 1270.9 474.4Z" fill="#F2B366"/>
<path d="M1271.4 509.9C1271.4 511.7 1270 513.1 1268.2 513.1C1266.5 513.1 1265 511.7 1265 509.9C1265 508.2 1266.5 506.7 1268.2 506.7C1270 506.7 1271.4 508.2 1271.4 509.9Z" fill="#F2B366"/>
<path d="M1271.8 527.2C1271.8 528.9 1270.3 530.3 1268.6 530.3C1266.8 530.3 1265.4 528.9 1265.4 527.2C1265.4 525.4 1266.8 524 1268.6 524C1270.3 524 1271.8 525.4 1271.8 527.2Z" fill="#F2B366"/>
<path d="M1270.9 492.5C1270.9 494.2 1269.5 495.7 1267.8 495.7C1266 495.7 1264.6 494.2 1264.6 492.5C1264.6 490.7 1266 489.3 1267.8 489.3C1269.5 489.3 1270.9 490.7 1270.9 492.5Z" fill="#F2B366"/>
<path d="M1303.1 537.7L1265.3 541.6L1262.6 526.3L1258.8 540.7L1227.4 537.6" stroke="#2C3045" stroke-width="1.5" stroke-linecap="round" stroke-linejoin="round"/>
<path d="M1165.4 467.9L1184.9 493.1L1198.8 482.7L1175.8 456.3L1165.4 467.9Z" fill="#0C0C0C"/>
<path d="M1197.3 481.1L1177.2 459.1" stroke="#2C3045" stroke-width="1.5" stroke-linecap="round" stroke-linejoin="round"/>
<path d="M1303.4 475.9L1307 441.6" stroke="#2C3045" stroke-width="1.5" stroke-linecap="round" stroke-linejoin="round"/>
<path fill-rule="evenodd" clip-rule="evenodd" d="M1235.2 449.8C1239.3 447 1252.4 449.4 1252.5 448.3C1252.5 447.3 1249.7 443.7 1250.2 438.8C1250.7 433.9 1255.4 433.1 1258.3 433.1C1261.1 433.2 1265.8 434.2 1266.1 439.1C1266.4 444 1263 446.6 1263.4 448.6C1263.9 450.5 1276.6 447.7 1280.7 450.8C1284.7 453.8 1285.7 457.5 1285.7 457.5L1257.8 456.9L1230.7 456.3C1230.7 456.3 1231 452.7 1235.2 449.8ZM1258.1 443.8C1260.2 443.8 1261.9 442.2 1261.9 440.1C1262 438.1 1260.3 436.4 1258.3 436.3C1256.2 436.3 1254.5 437.9 1254.5 440C1254.4 442 1256 443.7 1258.1 443.8Z" fill="#F2B366"/>
<path d="M1289.7 552.4L1226.9 550.7C1225.1 550.6 1223.7 549.2 1223.7 547.4L1222.8 456.9C1222.8 455.1 1224.3 453.6 1226.1 453.6L1290.1 454C1291.9 454.1 1293.4 455.5 1293.4 457.4L1293.1 549.1C1293.1 551 1291.6 552.5 1289.7 552.4Z" fill="#FFB855"/>
<path d="M1312.3 501.1L1339.2 520.4C1327.2 532.3 1246.8 525.5 1246.8 525.5L1248.2 504.8L1312.3 501.1Z" fill="white"/>
<path d="M1248.7 504.8C1248.7 504.8 1245.9 500.5 1242.1 495.6C1238.3 490.7 1226.5 486.6 1225.7 488.5C1225 490.5 1234.1 498.8 1234.1 498.8C1234.1 498.8 1225.1 497.5 1224.6 497.4C1224.1 497.3 1223.2 493.2 1223.2 493.2C1221.8 493.3 1216.1 497.7 1217.7 503.1C1217.7 503.1 1214.8 508.1 1217.1 512.1C1217.1 512.1 1215.5 517.1 1218.8 520.9C1218.8 520.9 1218.7 524.6 1221.5 526.5C1224.2 528.3 1240.1 526.9 1246.9 525.5L1248.7 504.8Z" fill="white"/>
<path d="M1312.3 501.1L1317.6 501.7" stroke="#2C3045" stroke-width="1.5" stroke-linecap="round" stroke-linejoin="round"/>
<path d="M1094 369.7C1097.4 368.1 1115.6 378.7 1119.9 382.7C1124.1 386.6 1130.5 415.3 1130.5 415.3L1113.6 422.8C1113.6 422.8 1107.4 416.8 1104.1 408.6L1107.4 394.6C1109.6 394.1 1110.4 388.3 1108.5 384.5C1106.6 380.7 1095.8 377.7 1095.8 377.7C1095.8 377.7 1082.5 391.9 1080.8 390C1079.1 388.1 1090.5 371.3 1094 369.7Z" fill="white"/>
<path d="M1087.2 389.3C1087.2 389.3 1087 391.6 1088.1 392.4C1089.3 393.3 1096.8 386.2 1096.8 386.2C1096.8 386.2 1102.6 389.9 1106.6 389.2C1110.6 388.5 1106.9 383.7 1106.9 383.7L1097.8 380.3L1088.5 383.8L1087.2 389.3Z" fill="white" stroke="#2C3045" stroke-width="1.5" stroke-linecap="round" stroke-linejoin="round"/>
<path d="M1085 390C1085 390 1084.7 391.4 1085.9 391.8C1087.1 392.2 1096.7 383.4 1096.7 383.4C1096.7 383.4 1104 386.5 1106.1 386.8C1108.2 387.1 1109.4 381 1109.4 381L1093.7 377.2L1084.9 382.6L1082.8 388.5L1085 390Z" fill="white"/>
<path d="M1082.8 388C1082.8 388 1081.2 390.5 1083.1 391.5C1085 392.5 1096.6 380.4 1096.6 380.4L1105.3 384C1105.3 384 1105.5 390.6 1108.4 393.9C1111.4 397.2 1113.3 389.2 1113.3 389.2L1108.4 378.8L1096.8 375.8L1090.7 377.3L1084.2 384.7L1082.8 388Z" fill="white"/>
<path d="M1085.4 390.7C1089.3 387.9 1096.6 380.4 1096.6 380.4L1105.3 384C1105.3 384 1106 391.4 1108.3 393.7" stroke="#2C3045" stroke-linecap="round" stroke-linejoin="round"/>
<path d="M1087.7 391C1090.8 388.9 1096.7 383.4 1096.7 383.4C1096.7 383.4 1103.1 386.1 1105.6 386.7" stroke="#2C3045" stroke-linecap="round" stroke-linejoin="round"/>
<path d="M1108.7 393.5C1109.8 391.5 1109.9 387.4 1108.5 384.5C1106.6 380.7 1095.8 377.7 1095.8 377.7C1095.8 377.7 1087.1 386.9 1082.9 389.5" stroke="#2C3045" stroke-linecap="round" stroke-linejoin="round"/>
<path d="M1107.4 394.6C1109.6 394.1 1110.4 388.3 1108.5 384.5C1106.6 380.7 1095.8 377.7 1095.8 377.7C1095.8 377.7 1082.5 391.9 1080.8 390C1079.1 388.1 1090.5 371.3 1094 369.7C1097.4 368.1 1115.6 378.7 1119.9 382.7C1124.1 386.6 1130.5 415.3 1130.5 415.3" stroke="#2C3045" stroke-width="1.5" stroke-linecap="round" stroke-linejoin="round"/>
<path d="M1113.6 422.8C1113.6 422.8 1107.4 416.8 1104.1 408.6" stroke="#2C3045" stroke-width="1.5" stroke-linecap="round" stroke-linejoin="round"/>
<path d="M1124.8 372.4C1124.8 372.4 1126.8 370.8 1126.8 370.2C1126.8 369.7 1122.3 363.7 1121.6 363.7C1121 363.7 1119.3 365.2 1119.3 365.2L1124.8 372.4Z" fill="#2C3045"/>
<path d="M1079.3 397.2L1076.6 399.3L1077.5 402.9L1081.4 400L1079.3 397.2Z" fill="#2C3045"/>
<path d="M1088.1 400.7L1080.4 390.4L1119.3 365L1125.1 372.4L1088.1 400.7Z" fill="#F28749"/>
<path d="M1078.5 397.5L1080.4 390.4L1088.1 400.7L1081 400.9L1078.5 397.5Z" fill="#F2B366"/>
<path d="M1088.8 386.4C1091.9 384 1105.2 395.1 1107.4 394.6L1104.5 409.3C1099.3 403.4 1085.6 388.8 1088.8 386.4Z" fill="white"/>
<path d="M1104.3 408.7C1099.1 402.7 1085.6 388.8 1088.8 386.4C1091.9 384 1105.2 395.1 1107.4 394.6" stroke="#2C3045" stroke-width="1.5" stroke-linecap="round" stroke-linejoin="round"/>
<path d="M1115.5 424C1116.1 424 1116.7 424.3 1117.2 424.7C1117.2 424.633 1117.17 424.567 1117.1 424.5C1117.1 423 1118.4 421.8 1119.9 421.8C1120.5 421.8 1121 422 1121.5 422.4C1121.4 422.2 1121.3 422 1121.3 421.8C1121.3 420.3 1122.5 419.1 1124 419.1C1124.8 419.1 1125.4 419.4 1125.9 419.8C1125.9 419.7 1125.9 419.6 1125.9 419.5C1125.9 418 1127.1 416.8 1128.6 416.8C1129.3 416.8 1129.9 417 1130.3 417.4C1130.3 417.2 1130.2 417 1130.2 416.8C1130.2 415.3 1131.4 414 1132.9 414C1134.4 414 1135.6 415.3 1135.6 416.8C1135.6 418.3 1134.4 419.5 1132.9 419.5C1132.2 419.5 1131.6 419.2 1131.2 418.8C1131.2 419 1131.3 419.2 1131.3 419.5C1131.3 421 1130.1 422.2 1128.6 422.2C1127.8 422.2 1127.2 421.9 1126.7 421.4C1126.7 421.5 1126.8 421.7 1126.8 421.8C1126.8 423.3 1125.5 424.5 1124 424.5C1123.4 424.5 1122.9 424.3 1122.5 423.9C1122.5 424.1 1122.6 424.3 1122.6 424.5C1122.6 426 1121.4 427.2 1119.9 427.2C1119.2 427.2 1118.6 426.9 1118.1 426.6C1118.17 426.6 1118.2 426.633 1118.2 426.7C1118.2 428.2 1117 429.4 1115.5 429.4C1114 429.4 1112.7 428.2 1112.7 426.7C1112.7 425.2 1114 424 1115.5 424Z" fill="#FFB855"/>
<path d="M1116.9 436.4C1117.23 436.4 1117.53 436.3 1117.8 436.1L1138.3 422.2C1139.1 421.6 1139.3 420.5 1138.7 419.8C1138.2 419 1137.1 418.8 1136.3 419.3L1115.9 433.2C1115.1 433.8 1114.9 434.9 1115.4 435.6C1115.8 436.1 1116.3 436.4 1116.9 436.4Z" fill="#F2B366"/>
</svg>
