<svg width="463" height="462" viewBox="0 0 463 462" fill="none" xmlns="http://www.w3.org/2000/svg">
<g style="mix-blend-mode:multiply" opacity="0.1">
<path d="M462.4 69.2V89.2C462.4 94 461.3 98.7 459.1 102.9L375.6 265.9L286.9 437.9C278.1 454.9 258.9 463.8 240.2 459.6L55.8 417.5C38.3 413.5 27.5 395.8 32 378.3L35.9 360.6L244.6 433.1C260.7 436.9 277.3 429.2 284.8 414.5L462.4 69.2Z" fill="black"/>
<path d="M244.7 433.1L49.9 387.7C36.9 384.6 30.5 369.9 37.1 358.3L221.6 34.1C230.2 19 247.5 11.2 264.5 14.7L451.2 53.1C460.3 55 465.1 65 460.9 73.2L375.6 238.6L284.9 414.6C277.3 429.2 260.7 436.9 244.7 433.1Z" fill="black"/>
<path d="M279.4 387.8L66.9 339.1L228.5 56.8L429 98.1L357.4 236.6L279.4 387.8Z" fill="black"/>
<path d="M174.5 385.6C171.9 393.6 161.2 400.1 150.5 400.1C139.9 400.1 133.4 393.6 136.1 385.6C138.7 377.6 149.4 371.1 160 371.1C170.5 371.1 177 377.6 174.5 385.6Z" fill="black"/>
<path d="M167 433.2C166.667 433.2 166.367 433.133 166.1 433L113.7 420.7C111.6 420.2 110.3 418.1 110.8 415.9C111.3 413.8 113.4 412.4 115.6 412.9L167.9 425.3C170.1 425.8 171.4 427.9 170.9 430.1C170.5 431.9 168.8 433.2 167 433.2Z" fill="black"/>
<path d="M365.2 64.2C364.933 64.2 364.667 64.1667 364.4 64.1L320.7 54.8C318.6 54.3 317.2 52.2 317.6 50.1C318.1 47.9 320.2 46.5 322.4 47L366.1 56.3C368.2 56.8 369.6 58.9 369.1 61.1C368.7 62.9 367.1 64.2 365.2 64.2Z" fill="black"/>
<path d="M310.3 47.7C310.3 45.5 308.5 43.7 306.3 43.7C304.1 43.7 302.3 45.5 302.3 47.7C302.3 49.9 304.1 51.7 306.3 51.7C308.5 51.7 310.3 49.9 310.3 47.7Z" fill="black"/>
<path d="M226.1 241.2L244 219.2C247.3 213.5 253.9 210.5 260.3 211.8L295 211.4C301.8 212.8 305.1 226.9 300.4 235.4L285.9 263.3C283.1 268.7 277 271.6 271 270.2L234.9 262.3C225.1 259.5 222.6 247.3 226.1 241.2Z" fill="black"/>
<path d="M227 238.9L242.9 211.1C246.2 205.4 252.8 202.5 259.2 203.8L293.1 210.8C299.9 212.2 303.4 219.7 300.2 225.8L284.8 255.3C281.9 260.7 275.8 263.5 269.9 262.2L233.8 254.3C226.9 252.7 223.5 245 227 238.9Z" fill="black"/>
<path fill-rule="evenodd" clip-rule="evenodd" d="M279.9 236.9C275.5 245.4 264.5 250.5 255.3 248.3C246.2 246.2 242.6 237.6 247.2 229.1C251.8 220.7 262.8 215.6 271.7 217.7C280.6 219.9 284.3 228.5 279.9 236.9ZM267.1 226.2C263.2 225.3 258.3 227.5 256.3 231.3C254.2 235 255.8 238.9 259.9 239.8C263.9 240.8 268.8 238.5 270.8 234.7C272.7 231 271.1 227.2 267.1 226.2Z" fill="black"/>
<path d="M354.1 432.5L372 410.5C375.3 404.8 381.9 401.8 388.3 403.2L423 402.7C429.8 404.1 433.1 418.2 428.4 426.8L413.9 454.7C411.1 460.1 405 462.9 399 461.6L362.9 453.6C353.1 450.8 350.6 438.6 354.1 432.5Z" fill="black"/>
<path d="M355 430.2L370.9 402.5C374.2 396.8 380.8 393.8 387.2 395.1L421.1 402.1C427.9 403.5 431.4 411 428.2 417.2L412.8 446.7C409.9 452 403.8 454.9 397.9 453.6L361.8 445.6C354.9 444.1 351.5 436.3 355 430.2Z" fill="black"/>
<path d="M51 44.4L71 19.7C74.7 13.3 82.1 10 89.3 11.5L128.1 11C135.7 12.6 139.4 28.3 134.1 37.9L117.9 69.1C114.7 75.2 107.9 78.3 101.2 76.9L60.8 67.9C49.9 64.8 47.1 51.2 51 44.4Z" fill="black"/>
<path d="M51.9 41.8L69.8 10.7C73.4 4.30001 80.8 0.999994 88 2.49999L125.9 10.3C133.5 11.9 137.5 20.3 133.9 27.2L116.6 60.2C113.4 66.2 106.6 69.4 100 67.9L59.5 59C51.9 57.3 48 48.6 51.9 41.8Z" fill="black"/>
<path d="M16.5 199.1L40 170.2C44.3 162.7 52.9 158.8 61.4 160.5L107 160C115.9 161.8 120.3 180.3 114 191.5L95 228.2C91.3 235.3 83.3 239 75.5 237.3L28 226.8C15.2 223.1 11.9 207.1 16.5 199.1Z" fill="black"/>
<path d="M17.6 196.1L38.5 159.6C42.8 152.1 51.5 148.2 59.9 150L104.4 159.1C113.3 161 118 170.8 113.8 178.9L93.5 217.6C89.8 224.7 81.8 228.5 74 226.7L26.5 216.2C17.5 214.3 13 204.1 17.6 196.1Z" fill="black"/>
<path d="M352.8 256.4L376.4 227.4C380.7 219.9 389.3 216 397.8 217.8L443.3 217.2C452.3 219.1 456.6 237.5 450.4 248.8L431.3 285.4C427.6 292.5 419.6 296.2 411.8 294.5L364.3 284C351.5 280.4 348.2 264.4 352.8 256.4Z" fill="black"/>
<path d="M354 253.4L374.9 216.9C379.2 209.4 387.8 205.5 396.3 207.2L440.8 216.4C449.7 218.2 454.4 228.1 450.1 236.2L429.9 274.9C426.1 282 418.1 285.7 410.3 284L362.9 273.5C353.9 271.5 349.4 261.4 354 253.4Z" fill="black"/>
<path d="M397.5 241.6C399.1 243.1 401.3 243.9 403.5 243.7L432.2 240.4C433.6 235.6 430.7 230.3 425.5 229.3L396.8 223.4C391.9 222.4 387 224.3 384 228.2L397.5 241.6Z" fill="black"/>
<path d="M430.7 243.6L403.9 246.6C403.5 246.667 403.1 246.7 402.7 246.7C400 246.7 397.4 245.6 395.4 243.7L382.3 230.9L372.5 248.1C369.5 253.3 372.4 259.8 378.2 261.1L408.8 267.9C413.8 269 419 266.6 421.4 262L430.7 243.6Z" fill="black"/>
<path d="M118.6 277.7L131.3 253.4C133.8 248.9 139 246.6 144 247.6L173.6 254.3C177.5 255.1 179.5 259.4 177.7 263L165 288.4C162.9 292.4 158.4 294.5 154 293.5L122.5 286.5C118.5 285.7 116.6 281.2 118.6 277.7Z" fill="black"/>
<path d="M162.1 272.9C165.9 265.7 162.7 258.3 155.1 256.5C147.4 254.7 138.1 259 134.2 266.2C130.2 273.5 133.3 280.8 141.1 282.6C148.9 284.5 158.3 280.1 162.1 272.9Z" fill="black"/>
<path d="M191.8 195.3L213.1 169.2C217 162.4 224.7 158.9 232.4 160.5L273.5 160C281.6 161.6 285.5 178.3 279.8 188.5L262.7 221.5C259.3 227.9 252.1 231.3 245.1 229.7L202.2 220.3C190.7 217 187.7 202.5 191.8 195.3Z" fill="black"/>
<path d="M192.9 192.6L211.7 159.7C215.6 152.9 223.4 149.4 231.1 151L271.2 159.2C279.2 160.9 283.5 169.8 279.6 177.1L261.3 212C258 218.4 250.8 221.8 243.7 220.2L200.9 210.8C192.8 209 188.7 199.8 192.9 192.6Z" fill="black"/>
<path fill-rule="evenodd" clip-rule="evenodd" d="M238.2 195.3L225.9 192.4L221.5 196.8L214.9 195.2L241.9 167.5L248.1 169.1L244.5 202.1L237.6 200.5L238.2 195.3ZM238.9 189.3L240.5 177.3L230.8 187.4L238.9 189.3Z" fill="black"/>
<path d="M330.9 139.4L343.6 115.1C346.2 110.6 351.3 108.3 356.3 109.3L386.9 115.4C390.8 116.2 392.8 120.5 391 124.1L377.4 150C375.3 154 370.7 156.1 366.3 155.2L334.8 148.2C330.9 147.3 328.9 142.9 330.9 139.4Z" fill="black"/>
<path d="M374.8 127.6C374.8 131.3 371.8 134.3 368.1 134.3C364.4 134.3 361.4 131.3 361.4 127.6C361.4 123.9 364.4 120.9 368.1 120.9C371.8 120.9 374.8 123.9 374.8 127.6Z" fill="black"/>
<path d="M368.7 128.1C368.5 124.7 365.7 121.9 362.2 121.9C358.9 121.9 356.1 124.5 355.8 127.7C354.5 126.5 352.8 125.8 350.9 125.8C346.9 125.8 343.6 129 343.6 133C343.6 136.6 346.1 139.5 349.5 140.1V140.2L364 143.2V143.1C364.9 143.5 365.9 143.7 366.9 143.7C371.2 143.7 374.8 140.1 374.8 135.8C374.8 132.1 372.2 128.9 368.7 128.1Z" fill="black"/>
<path d="M272.4 126.9L285.1 102.6C287.7 98.1 292.8 95.8 297.8 96.8L328.4 102.9C332.3 103.7 334.3 108 332.5 111.6L318.9 137.5C316.8 141.5 312.2 143.6 307.8 142.7L276.3 135.7C272.4 134.8 270.4 130.4 272.4 126.9Z" fill="black"/>
<path d="M315.7 123.1C319.5 115.8 316.3 108.3 308.5 106.4C300.7 104.5 291.2 109 287.2 116.4C283.2 123.7 286.3 131.2 294.2 133.1C302.2 134.9 311.8 130.5 315.7 123.1Z" fill="black"/>
<path d="M307.8 122.9C307.733 122.9 307.633 122.9 307.5 122.9L299.5 121.2C299 121.1 298.6 120.8 298.5 120.3C298.3 119.9 298.3 119.3 298.6 118.9L304.5 109.6C305 108.9 305.9 108.6 306.6 109.1C307.3 109.5 307.5 110.5 307.1 111.2L302.3 118.7L308.1 120C308.9 120.1 309.4 120.9 309.3 121.8C309.1 122.5 308.5 122.9 307.8 122.9Z" fill="black"/>
<path d="M304.4 191.9L317.1 167.6C319.7 163.1 324.8 160.8 329.8 161.8L359.4 168.5C363.3 169.3 365.4 173.6 363.5 177.2L350.9 202.5C348.8 206.5 344.2 208.6 339.8 207.7L308.3 200.7C304.4 199.8 302.4 195.4 304.4 191.9Z" fill="black"/>
<path d="M336.2 198.3C336.067 198.3 335.933 198.3 335.8 198.3L314.7 193.6C313.9 193.4 313.4 192.6 313.5 191.8C313.7 191 314.5 190.5 315.3 190.7L336.5 195.4C337.3 195.5 337.8 196.3 337.6 197.1C337.5 197.8 336.9 198.3 336.2 198.3Z" fill="black"/>
<path d="M344.8 193.7C344.733 193.7 344.633 193.667 344.5 193.6L317 187.8C316.2 187.6 315.7 186.8 315.8 186C316 185.2 316.8 184.7 317.6 184.9L345.1 190.7C346 190.9 346.5 191.7 346.3 192.5C346.2 193.2 345.5 193.7 344.8 193.7Z" fill="black"/>
<path d="M347.2 185.3L323.9 180.3C322.6 180 321.8 178.6 322.4 177.4L324.9 172C325.3 171.1 326.3 170.6 327.2 170.9L350.6 176C352 176.3 352.7 177.7 352.1 178.9L349.6 184.1C349.1 185 348.2 185.5 347.2 185.3Z" fill="black"/>
<path d="M251.5 345.7L275 316.7C279.3 309.2 288 305.4 296.4 307.1L342 306.6C350.9 308.4 355.3 326.9 349 338.1L330 374.8C326.3 381.8 318.3 385.6 310.5 383.8L263 373.4C250.2 369.7 246.9 353.7 251.5 345.7Z" fill="black"/>
<path d="M252.6 342.7L273.6 306.2C277.9 298.7 286.5 294.8 295 296.6L339.4 305.7C348.4 307.6 353 317.4 348.8 325.5L328.5 364.2C324.8 371.3 316.8 375 309 373.3L261.5 362.8C252.5 360.8 248 350.7 252.6 342.7Z" fill="black"/>
<path d="M313.1 315.6L311.1 326.8C310.9 327.6 311.4 328.2 312.3 328.4L324.6 330.5C326.6 330.8 326.2 333.2 324 334L310.4 338.8C309.4 339.2 308.6 339.9 308.5 340.7L306.4 351.9C306.1 353.7 303.1 354.8 302.1 353.4L295.7 345.3C295.2 344.7 294.3 344.5 293.3 344.9L279.5 349.7C277.3 350.5 275.9 348.7 277.5 347.1L287.4 337.2C288.1 336.5 288.3 335.6 287.8 335L281.6 326.9C280.6 325.6 282.8 323.4 284.7 323.7L297 325.8C297.8 326 298.9 325.6 299.6 324.9L309.3 315C310.8 313.4 313.5 313.8 313.1 315.6Z" fill="black"/>
<path d="M84.9 173.6C79 172.6 72.3 175.5 69.9 180.1C72.3 175.5 69.5 170.9 63.6 169.8C57.8 168.8 51.1 171.7 48.6 176.3C48.6 176.3 39.7 194.7 56.4 206.4C81.4 202.1 91.3 183.9 91.3 183.9C93.6 179.3 90.7 174.7 84.9 173.6Z" fill="black"/>
<path d="M102.1 33.6C104.4 32.4 106.5 30.6 107.7 28.3C110.2 23.4 108.1 18.4 102.9 17.1C97.7 15.8 91.3 18.8 88.6 23.7C87.3 26.1 87.2 28.5 87.9 30.5C78.9 31.2 69.7 36.4 64.4 44C63.6 45.2 64.2 46.8 65.6 47.1L105.5 56.6C106.5 56.8 107.4 56.3 107.8 55.4C111.6 46.7 109.1 38.1 102.1 33.6Z" fill="black"/>
<path d="M397.8 431.6L400.3 436.4C396 438.4 390.9 439.1 386.5 438.1C379.7 436.4 376 430.8 377.2 424.8L374.2 424.1L375.8 421.3L378.2 421.9C378.4 421.5 378.6 421.1 378.8 420.8C379.067 420.267 379.367 419.767 379.7 419.3L377.3 418.7L378.9 415.9L382.1 416.7C387.2 411.9 395.1 409.4 401.6 411C406 412 409.1 414.7 410.4 418.1L403.9 420.6C403.2 418.5 401.4 416.7 398.8 416.1C395.6 415.3 391.8 416.3 388.9 418.4L398.9 420.8L397.3 423.6L386.2 420.9C385.8 421.3 385.5 421.8 385.1 422.3C385 422.7 384.8 423.1 384.6 423.4L395.9 426.1L394.3 428.9L384 426.4C384 429.5 386 432.1 389.4 433C392.1 433.6 395.1 433 397.8 431.6Z" fill="black"/>
<path d="M213.7 114.2L227.7 90C230.2 85.5 235.4 83.2 240.4 84.2L269.7 90.2C273.6 91 275.6 95.4 273.8 98.9L260.2 124.9C258.1 128.9 253.6 131 249.2 130L217.7 123C213.7 122.2 211.7 117.7 213.7 114.2Z" fill="black"/>
<path fill-rule="evenodd" clip-rule="evenodd" d="M255.7 105.7C252.7 110.8 234.4 119.7 234.4 119.7C234.4 119.7 234.1 107.6 235.9 100.8C237.8 93.7 245.2 91.6 251 93C256.9 94.3 259.3 99.5 255.7 105.7ZM249.1 96.1C245.8 95.3 241.8 97.2 240.2 100.3C238.5 103.4 239.8 106.5 243.1 107.3C246.5 108.1 250.5 106.2 252.1 103.1C253.7 100.1 252.4 96.9 249.1 96.1Z" fill="black"/>
<path d="M127.4 309.2L145.4 287.2C148.6 281.5 155.2 278.5 161.7 279.8L196.3 279.4C203.2 280.8 206.5 294.9 201.7 303.4L187.2 331.3C184.4 336.7 178.3 339.6 172.4 338.2L136.2 330.3C126.5 327.5 124 315.3 127.4 309.2Z" fill="black"/>
<path d="M128.3 306.9L144.2 279.1C147.5 273.4 154.1 270.5 160.5 271.8L194.4 278.8C201.2 280.2 204.8 287.7 201.5 293.8L186.1 323.3C183.3 328.7 177.2 331.5 171.2 330.2L135.1 322.3C128.2 320.7 124.8 313 128.3 306.9Z" fill="black"/>
<path d="M184.9 288.8C182.1 288.1 178.7 289.7 177.1 292.3L155.9 295.7C155.5 294.5 154.4 293.5 152.9 293.2C150.1 292.5 146.6 294.1 145.1 296.8C143.6 299.6 144.7 302.3 147.7 303C149.4 303.4 151.3 303 152.9 302L166 312.2C165.867 312.4 165.733 312.6 165.6 312.8C164.1 315.5 165.3 318.2 168.2 318.9C171.1 319.6 174.7 318 176.1 315.3C177.5 312.5 176.3 309.8 173.5 309.1C171.7 308.7 169.8 309.1 168.2 310.1L155.2 300C155.333 299.8 155.467 299.567 155.6 299.3C155.667 299.1 155.733 298.9 155.8 298.7L176.4 295.5C176.7 297 177.8 298.2 179.6 298.6C182.6 299.3 186.1 297.7 187.5 295C188.9 292.3 187.8 289.5 184.9 288.8Z" fill="black"/>
<path d="M135 131L155 106.4C158.7 100 166.1 96.7 173.3 98.1L212.1 97.7C219.7 99.2 223.4 115 218.1 124.6L201.9 155.8C198.7 161.8 191.9 165 185.2 163.5L144.8 154.6C133.9 151.5 131.1 137.9 135 131Z" fill="black"/>
<path d="M135.9 128.5L153.8 97.4C157.4 91 164.8 87.7 172 89.2L209.9 97C217.5 98.5 221.5 107 217.9 113.8L200.6 146.8C197.4 152.9 190.6 156 184 154.6L143.5 145.6C135.9 143.9 132 135.3 135.9 128.5Z" fill="black"/>
<path d="M146 126.8L159.5 103.4C162.2 98.6 167.8 96.1 173.2 97.2L201.7 103.1C207.5 104.3 210.5 110.6 207.8 115.8L194.7 140.7C192.4 145.2 187.2 147.6 182.2 146.5L151.7 139.8C145.9 138.5 143.1 132 146 126.8Z" fill="black"/>
<path d="M171 113.2L164.4 125.7C163.9 126.6 164.6 127.5 165.5 127.4L183.6 125.6C184.5 125.5 184.9 124.3 184.2 123.6L172.8 112.9C172.3 112.4 171.4 112.5 171 113.2Z" fill="black"/>
</g>
<path d="M448.4 67.2V87.2C448.4 92 447.3 96.7 445.1 100.9L361.6 263.9L272.9 435.9C264.1 452.9 244.9 461.8 226.2 457.6L41.8 415.5C24.3 411.5 13.5 393.8 18 376.3L21.9 358.6L230.6 431.1C246.7 434.9 263.3 427.2 270.8 412.5L448.4 67.2Z" fill="#BEBEBE"/>
<path d="M230.7 431.1L35.9 385.7C22.9 382.6 16.5 367.9 23.1 356.3L207.6 32.1C216.2 17 233.5 9.20002 250.5 12.7L437.2 51.1C446.3 53 451.1 63 446.9 71.2L361.6 236.6L270.9 412.6C263.3 427.2 246.7 434.9 230.7 431.1Z" fill="white"/>
<path d="M230.927 430.126L230.931 430.127C246.48 433.82 262.622 426.337 270.013 412.138L360.711 236.142L360.711 236.142L446.01 70.7441C449.906 63.138 445.457 53.8464 436.997 52.0792C436.996 52.0791 436.996 52.079 436.996 52.0789L250.299 13.6795L250.298 13.6795C233.721 10.2666 216.854 17.8721 208.469 32.5949L23.9691 356.795C17.7005 367.812 23.7766 381.778 36.127 384.726L36.132 384.727M230.927 430.126L35.9 385.7L36.132 384.727M230.927 430.126L36.132 384.727M230.927 430.126L36.132 384.727" stroke="black" stroke-opacity="0.7" stroke-width="2"/>
<path d="M265.4 385.8L52.9 337.1L214.5 54.8L415 96.1L343.4 234.6L265.4 385.8Z" fill="#FFF1DF"/>
<path d="M160.5 383.6C157.9 391.6 147.2 398.1 136.5 398.1C125.9 398.1 119.4 391.6 122.1 383.6C124.7 375.6 135.4 369.1 146 369.1C156.5 369.1 163 375.6 160.5 383.6Z" fill="#BEBEBE"/>
<path d="M153 431.2C152.667 431.2 152.367 431.133 152.1 431L99.7 418.7C97.6 418.2 96.3 416.1 96.8 413.9C97.3 411.8 99.4 410.4 101.6 410.9L153.9 423.3C156.1 423.8 157.4 425.9 156.9 428.1C156.5 429.9 154.8 431.2 153 431.2Z" fill="#A8A392"/>
<path d="M351.2 62.2C350.933 62.2 350.667 62.1667 350.4 62.1L306.7 52.8C304.6 52.3 303.2 50.2 303.6 48.1C304.1 45.9 306.2 44.5 308.4 45L352.1 54.3C354.2 54.8 355.6 56.9 355.1 59.1C354.7 60.9 353.1 62.2 351.2 62.2Z" fill="#A8A392"/>
<path d="M296.3 45.7C296.3 43.5 294.5 41.7 292.3 41.7C290.1 41.7 288.3 43.5 288.3 45.7C288.3 47.9 290.1 49.7 292.3 49.7C294.5 49.7 296.3 47.9 296.3 45.7Z" fill="#A8A392"/>
<path d="M212.1 239.2L230 217.2C233.3 211.5 239.9 208.5 246.3 209.8L281 209.4C287.8 210.8 291.1 224.9 286.4 233.4L271.9 261.3C269.1 266.7 263 269.6 257 268.2L220.9 260.3C211.1 257.5 208.6 245.3 212.1 239.2Z" fill="#ED9406"/>
<path d="M213 236.9L228.9 209.1C232.2 203.4 238.8 200.5 245.2 201.8L279.1 208.8C285.9 210.2 289.4 217.7 286.2 223.8L270.8 253.3C267.9 258.7 261.8 261.5 255.9 260.2L219.8 252.3C212.9 250.7 209.5 243 213 236.9Z" fill="#FF9E22"/>
<path fill-rule="evenodd" clip-rule="evenodd" d="M265.9 234.9C261.5 243.4 250.5 248.5 241.3 246.3C232.2 244.2 228.6 235.6 233.2 227.1C237.8 218.7 248.8 213.6 257.7 215.7C266.6 217.9 270.3 226.5 265.9 234.9ZM253.1 224.2C249.2 223.3 244.3 225.5 242.3 229.3C240.2 233 241.8 236.9 245.9 237.8C249.9 238.8 254.8 236.5 256.8 232.7C258.7 229 257.1 225.2 253.1 224.2Z" fill="white"/>
<path d="M340.1 430.5L358 408.5C361.3 402.8 367.9 399.8 374.3 401.2L409 400.7C415.8 402.1 419.1 416.2 414.4 424.8L399.9 452.7C397.1 458.1 391 460.9 385 459.6L348.9 451.6C339.1 448.8 336.6 436.6 340.1 430.5Z" fill="#ED9406"/>
<path d="M341 428.2L356.9 400.5C360.2 394.8 366.8 391.8 373.2 393.1L407.1 400.1C413.9 401.5 417.4 409 414.2 415.2L398.8 444.7C395.9 450 389.8 452.9 383.9 451.6L347.8 443.6C340.9 442.1 337.5 434.3 341 428.2Z" fill="#FF9E22"/>
<path d="M37 42.4L57 17.7C60.7 11.3 68.1 8 75.3 9.5L114.1 9C121.7 10.6 125.4 26.3 120.1 35.9L103.9 67.1C100.7 73.2 93.9 76.3 87.2 74.9L46.8 65.9C35.9 62.8 33.1 49.2 37 42.4Z" fill="#ED9406"/>
<path d="M37.9 39.8L55.8 8.70001C59.4 2.30001 66.8 -1.00001 74 0.499994L111.9 8.29998C119.5 9.89998 123.5 18.3 119.9 25.2L102.6 58.2C99.4 64.2 92.6 67.4 86 65.9L45.5 57C37.9 55.3 34 46.6 37.9 39.8Z" fill="#FF9E22"/>
<path d="M2.50002 197.1L26 168.2C30.3 160.7 38.9 156.8 47.4 158.5L93 158C101.9 159.8 106.3 178.3 100 189.5L81 226.2C77.3 233.3 69.3 237 61.5 235.3L14 224.8C1.20002 221.1 -2.09998 205.1 2.50002 197.1Z" fill="#ED9406"/>
<path d="M3.59997 194.1L24.5 157.6C28.8 150.1 37.5 146.2 45.9 148L90.4 157.1C99.3 159 104 168.8 99.8 176.9L79.5 215.6C75.8 222.7 67.8 226.5 60 224.7L12.5 214.2C3.5 212.3 -1.00003 202.1 3.59997 194.1Z" fill="#FF9E22"/>
<path d="M338.8 254.4L362.4 225.4C366.7 217.9 375.3 214 383.8 215.8L429.3 215.2C438.3 217.1 442.6 235.5 436.4 246.8L417.3 283.4C413.6 290.5 405.6 294.2 397.8 292.5L350.3 282C337.5 278.4 334.2 262.4 338.8 254.4Z" fill="#BB413D"/>
<path d="M340 251.4L360.9 214.9C365.2 207.4 373.8 203.5 382.3 205.2L426.8 214.4C435.7 216.2 440.4 226.1 436.1 234.2L415.9 272.9C412.1 280 404.1 283.7 396.3 282L348.9 271.5C339.9 269.5 335.4 259.4 340 251.4Z" fill="#DF613D"/>
<path d="M383.5 239.6C385.1 241.1 387.3 241.9 389.5 241.7L418.2 238.4C419.6 233.6 416.7 228.3 411.5 227.3L382.8 221.4C377.9 220.4 373 222.3 370 226.2L383.5 239.6Z" fill="white"/>
<path d="M416.7 241.6L389.9 244.6C389.5 244.667 389.1 244.7 388.7 244.7C386 244.7 383.4 243.6 381.4 241.7L368.3 228.9L358.5 246.1C355.5 251.3 358.4 257.8 364.2 259.1L394.8 265.9C399.8 267 405 264.6 407.4 260L416.7 241.6Z" fill="white"/>
<path d="M104.6 275.7L117.3 251.4C119.8 246.9 125 244.6 130 245.6L159.6 252.3C163.5 253.1 165.5 257.4 163.7 261L151 286.4C148.9 290.4 144.4 292.5 140 291.5L108.5 284.5C104.5 283.7 102.6 279.2 104.6 275.7Z" fill="#6266A1"/>
<path d="M148.1 270.9C151.9 263.7 148.7 256.3 141.1 254.5C133.4 252.7 124.1 257 120.2 264.2C116.2 271.5 119.3 278.8 127.1 280.6C134.9 282.5 144.3 278.1 148.1 270.9Z" fill="white"/>
<path d="M177.8 193.3L199.1 167.2C203 160.4 210.7 156.9 218.4 158.5L259.5 158C267.6 159.6 271.5 176.3 265.8 186.5L248.7 219.5C245.3 225.9 238.1 229.3 231.1 227.7L188.2 218.3C176.7 215 173.7 200.5 177.8 193.3Z" fill="#ED9406"/>
<path d="M178.9 190.6L197.7 157.7C201.6 150.9 209.4 147.4 217.1 149L257.2 157.2C265.2 158.9 269.5 167.8 265.6 175.1L247.3 210C244 216.4 236.8 219.8 229.7 218.2L186.9 208.8C178.8 207 174.7 197.8 178.9 190.6Z" fill="#FF9E22"/>
<path fill-rule="evenodd" clip-rule="evenodd" d="M224.2 193.3L211.9 190.4L207.5 194.8L200.9 193.2L227.9 165.5L234.1 167.1L230.5 200.1L223.6 198.5L224.2 193.3ZM224.9 187.3L226.5 175.3L216.8 185.4L224.9 187.3Z" fill="white"/>
<path d="M316.9 137.4L329.6 113.1C332.2 108.6 337.3 106.3 342.3 107.3L372.9 113.4C376.8 114.2 378.8 118.5 377 122.1L363.4 148C361.3 152 356.7 154.1 352.3 153.2L320.8 146.2C316.9 145.3 314.9 140.9 316.9 137.4Z" fill="#FF9E22"/>
<path d="M360.8 125.6C360.8 129.3 357.8 132.3 354.1 132.3C350.4 132.3 347.4 129.3 347.4 125.6C347.4 121.9 350.4 118.9 354.1 118.9C357.8 118.9 360.8 121.9 360.8 125.6Z" fill="#FF9E22"/>
<path d="M354.7 126.1C354.5 122.7 351.7 119.9 348.2 119.9C344.9 119.9 342.1 122.5 341.8 125.7C340.5 124.5 338.8 123.8 336.9 123.8C332.9 123.8 329.6 127 329.6 131C329.6 134.6 332.1 137.5 335.5 138.1V138.2L350 141.2V141.1C350.9 141.5 351.9 141.7 352.9 141.7C357.2 141.7 360.8 138.1 360.8 133.8C360.8 130.1 358.2 126.9 354.7 126.1Z" fill="white"/>
<path d="M258.4 124.9L271.1 100.6C273.7 96.1 278.8 93.8 283.8 94.8L314.4 100.9C318.3 101.7 320.3 106 318.5 109.6L304.9 135.5C302.8 139.5 298.2 141.6 293.8 140.7L262.3 133.7C258.4 132.8 256.4 128.4 258.4 124.9Z" fill="#FF9E22"/>
<path d="M301.7 121.1C305.5 113.8 302.3 106.3 294.5 104.4C286.7 102.5 277.2 107 273.2 114.4C269.2 121.7 272.3 129.2 280.2 131.1C288.2 132.9 297.8 128.5 301.7 121.1Z" fill="white"/>
<path d="M293.8 120.9C293.733 120.9 293.633 120.9 293.5 120.9L285.5 119.2C285 119.1 284.6 118.8 284.5 118.3C284.3 117.9 284.3 117.3 284.6 116.9L290.5 107.6C291 106.9 291.9 106.6 292.6 107.1C293.3 107.5 293.5 108.5 293.1 109.2L288.3 116.7L294.1 118C294.9 118.1 295.4 118.9 295.3 119.8C295.1 120.5 294.5 120.9 293.8 120.9Z" fill="#FF9E22"/>
<path d="M290.4 189.9L303.1 165.6C305.7 161.1 310.8 158.8 315.8 159.8L345.4 166.5C349.3 167.3 351.4 171.6 349.5 175.2L336.9 200.5C334.8 204.5 330.2 206.6 325.8 205.7L294.3 198.7C290.4 197.8 288.4 193.4 290.4 189.9Z" fill="#6266A1"/>
<path d="M322.2 196.3C322.067 196.3 321.933 196.3 321.8 196.3L300.7 191.6C299.9 191.4 299.4 190.6 299.5 189.8C299.7 189 300.5 188.5 301.3 188.7L322.5 193.4C323.3 193.5 323.8 194.3 323.6 195.1C323.5 195.8 322.9 196.3 322.2 196.3Z" fill="white"/>
<path d="M330.8 191.7C330.733 191.7 330.633 191.667 330.5 191.6L303 185.8C302.2 185.6 301.7 184.8 301.8 184C302 183.2 302.8 182.7 303.6 182.9L331.1 188.7C332 188.9 332.5 189.7 332.3 190.5C332.2 191.2 331.5 191.7 330.8 191.7Z" fill="white"/>
<path d="M333.2 183.3L309.9 178.3C308.6 178 307.8 176.6 308.4 175.4L310.9 170C311.3 169.1 312.3 168.6 313.2 168.9L336.6 174C338 174.3 338.7 175.7 338.1 176.9L335.6 182.1C335.1 183 334.2 183.5 333.2 183.3Z" fill="white"/>
<path d="M237.5 343.7L261 314.7C265.3 307.2 274 303.4 282.4 305.1L328 304.6C336.9 306.4 341.3 324.9 335 336.1L316 372.8C312.3 379.8 304.3 383.6 296.5 381.8L249 371.4C236.2 367.7 232.9 351.7 237.5 343.7Z" fill="#ED9406"/>
<path d="M238.6 340.7L259.6 304.2C263.9 296.7 272.5 292.8 281 294.6L325.4 303.7C334.4 305.6 339 315.4 334.8 323.5L314.5 362.2C310.8 369.3 302.8 373 295 371.3L247.5 360.8C238.5 358.8 234 348.7 238.6 340.7Z" fill="white"/>
<path d="M299.1 313.6L297.1 324.8C296.9 325.6 297.4 326.2 298.3 326.4L310.6 328.5C312.6 328.8 312.2 331.2 310 332L296.4 336.8C295.4 337.2 294.6 337.9 294.5 338.7L292.4 349.9C292.1 351.7 289.1 352.8 288.1 351.4L281.7 343.3C281.2 342.7 280.3 342.5 279.3 342.9L265.5 347.7C263.3 348.5 261.9 346.7 263.5 345.1L273.4 335.2C274.1 334.5 274.3 333.6 273.8 333L267.6 324.9C266.6 323.6 268.8 321.4 270.7 321.7L283 323.8C283.8 324 284.9 323.6 285.6 322.9L295.3 313C296.8 311.4 299.5 311.8 299.1 313.6Z" fill="#FF9E22"/>
<path d="M70.9 171.6C65 170.6 58.3 173.5 55.9 178.1C58.3 173.5 55.5 168.9 49.6 167.8C43.8 166.8 37.1 169.7 34.6 174.3C34.6 174.3 25.7 192.7 42.4 204.4C67.4 200.1 77.3 181.9 77.3 181.9C79.6 177.3 76.7 172.7 70.9 171.6Z" fill="white"/>
<path d="M88.1 31.6C90.4 30.4 92.5 28.6 93.7 26.3C96.2 21.4 94.1 16.4 88.9 15.1C83.7 13.8 77.3 16.8 74.6 21.7C73.3 24.1 73.2 26.5 73.9 28.5C64.9 29.2 55.7 34.4 50.4 42C49.6 43.2 50.2 44.8 51.6 45.1L91.5 54.6C92.5 54.8 93.4 54.3 93.8 53.4C97.6 44.7 95.1 36.1 88.1 31.6Z" fill="white"/>
<path d="M383.8 429.6L386.3 434.4C382 436.4 376.9 437.1 372.5 436.1C365.7 434.4 362 428.8 363.2 422.8L360.2 422.1L361.8 419.3L364.2 419.9C364.4 419.5 364.6 419.1 364.8 418.8C365.067 418.267 365.367 417.767 365.7 417.3L363.3 416.7L364.9 413.9L368.1 414.7C373.2 409.9 381.1 407.4 387.6 409C392 410 395.1 412.7 396.4 416.1L389.9 418.6C389.2 416.5 387.4 414.7 384.8 414.1C381.6 413.3 377.8 414.3 374.9 416.4L384.9 418.8L383.3 421.6L372.2 418.9C371.8 419.3 371.5 419.8 371.1 420.3C371 420.7 370.8 421.1 370.6 421.4L381.9 424.1L380.3 426.9L370 424.4C370 427.5 372 430.1 375.4 431C378.1 431.6 381.1 431 383.8 429.6Z" fill="white"/>
<path d="M199.7 112.2L213.7 88C216.2 83.5 221.4 81.2 226.4 82.2L255.7 88.2C259.6 89 261.6 93.4 259.8 96.9L246.2 122.9C244.1 126.9 239.6 129 235.2 128L203.7 121C199.7 120.2 197.7 115.7 199.7 112.2Z" fill="#6266A1"/>
<path fill-rule="evenodd" clip-rule="evenodd" d="M241.7 103.7C238.7 108.8 220.4 117.7 220.4 117.7C220.4 117.7 220.1 105.6 221.9 98.8C223.8 91.7 231.2 89.6 237 91C242.9 92.3 245.3 97.5 241.7 103.7ZM235.1 94.1C231.8 93.3 227.8 95.2 226.2 98.3C224.5 101.4 225.8 104.5 229.1 105.3C232.5 106.1 236.5 104.2 238.1 101.1C239.7 98.1 238.4 94.9 235.1 94.1Z" fill="white"/>
<path d="M113.4 307.2L131.4 285.2C134.6 279.5 141.2 276.5 147.7 277.8L182.3 277.4C189.2 278.8 192.5 292.9 187.7 301.4L173.2 329.3C170.4 334.7 164.3 337.6 158.4 336.2L122.2 328.3C112.5 325.5 110 313.3 113.4 307.2Z" fill="#BB413D"/>
<path d="M114.3 304.9L130.2 277.1C133.5 271.4 140.1 268.5 146.5 269.8L180.4 276.8C187.2 278.2 190.8 285.7 187.5 291.8L172.1 321.3C169.3 326.7 163.2 329.5 157.2 328.2L121.1 320.3C114.2 318.7 110.8 311 114.3 304.9Z" fill="#DF613D"/>
<path d="M170.9 286.8C168.1 286.1 164.7 287.7 163.1 290.3L141.9 293.7C141.5 292.5 140.4 291.5 138.9 291.2C136.1 290.5 132.6 292.1 131.1 294.8C129.6 297.6 130.7 300.3 133.7 301C135.4 301.4 137.3 301 138.9 300L152 310.2C151.867 310.4 151.733 310.6 151.6 310.8C150.1 313.5 151.3 316.2 154.2 316.9C157.1 317.6 160.7 316 162.1 313.3C163.5 310.5 162.3 307.8 159.5 307.1C157.7 306.7 155.8 307.1 154.2 308.1L141.2 298C141.333 297.8 141.467 297.567 141.6 297.3C141.667 297.1 141.733 296.9 141.8 296.7L162.4 293.5C162.7 295 163.8 296.2 165.6 296.6C168.6 297.3 172.1 295.7 173.5 293C174.9 290.3 173.8 287.5 170.9 286.8Z" fill="white"/>
<path d="M121 129L141 104.4C144.7 98 152.1 94.7 159.3 96.1L198.1 95.7C205.7 97.2 209.4 113 204.1 122.6L187.9 153.8C184.7 159.8 177.9 163 171.2 161.5L130.8 152.6C119.9 149.5 117.1 135.9 121 129Z" fill="#BB413D"/>
<path d="M121.9 126.5L139.8 95.4C143.4 89 150.8 85.7 158 87.2L195.9 95C203.5 96.5 207.5 105 203.9 111.8L186.6 144.8C183.4 150.9 176.6 154 170 152.6L129.5 143.6C121.9 141.9 118 133.3 121.9 126.5Z" fill="white"/>
<path d="M132 124.8L145.5 101.4C148.2 96.6 153.8 94.1 159.2 95.2L187.7 101.1C193.5 102.3 196.5 108.6 193.8 113.8L180.7 138.7C178.4 143.2 173.2 145.6 168.2 144.5L137.7 137.8C131.9 136.5 129.1 130 132 124.8Z" fill="#DF613D"/>
<path d="M157 111.2L150.4 123.7C149.9 124.6 150.6 125.5 151.5 125.4L169.6 123.6C170.5 123.5 170.9 122.3 170.2 121.6L158.8 110.9C158.3 110.4 157.4 110.5 157 111.2Z" fill="white"/>
</svg>
