<svg width="453" height="427" viewBox="0 0 453 427" fill="none" xmlns="http://www.w3.org/2000/svg">
<path d="M162.779 89.743H56.81V425.583H162.779V89.743Z" fill="#F5F5F5"/>
<path d="M162.778 89.743H109.794V424.658H162.778V89.743Z" fill="#EBEBEB"/>
<path d="M106.33 56.773H68.91V89.744H106.33V56.773Z" fill="#F5F5F5"/>
<path d="M106.331 56.773H97.412V89.744H106.331V56.773Z" fill="#EBEBEB"/>
<path d="M47.979 89.743V87.821H165.88V89.743" fill="#E0E0E0"/>
<path d="M86.697 104.123H77.727V123.036H86.697V104.123Z" fill="#FAFAFA"/>
<path d="M109.794 130.46C109.794 130.66 97.932 130.821 83.303 130.821C68.669 130.821 56.81 130.659 56.81 130.46C56.81 130.261 68.669 130.099 83.303 130.099C97.932 130.099 109.794 130.26 109.794 130.46Z" fill="#E0E0E0"/>
<path d="M140.143 104.123H131.173V123.036H140.143V104.123Z" fill="#E0E0E0"/>
<path d="M163.24 130.46C163.24 130.66 151.378 130.821 136.749 130.821C122.115 130.821 110.255 130.659 110.255 130.46C110.255 130.261 122.114 130.099 136.749 130.099C151.378 130.099 163.24 130.26 163.24 130.46Z" fill="#E0E0E0"/>
<path d="M140.143 141.674H131.173V160.588H140.143V141.674Z" fill="#E0E0E0"/>
<path d="M163.24 168.011C163.24 168.211 151.378 168.372 136.749 168.372C122.115 168.372 110.255 168.21 110.255 168.011C110.255 167.812 122.114 167.65 136.749 167.65C151.378 167.65 163.24 167.812 163.24 168.011Z" fill="#E0E0E0"/>
<path d="M140.143 180.358H131.173V199.272H140.143V180.358Z" fill="#E0E0E0"/>
<path d="M163.24 206.695C163.24 206.894 151.378 207.056 136.749 207.056C122.115 207.056 110.255 206.894 110.255 206.695C110.255 206.495 122.114 206.334 136.749 206.334C151.378 206.334 163.24 206.495 163.24 206.695Z" fill="#E0E0E0"/>
<path d="M140.143 219.043H131.173V237.956H140.143V219.043Z" fill="#E0E0E0"/>
<path d="M163.24 245.379C163.24 245.579 151.378 245.74 136.749 245.74C122.115 245.74 110.255 245.578 110.255 245.379C110.255 245.18 122.114 245.018 136.749 245.018C151.378 245.018 163.24 245.18 163.24 245.379Z" fill="#E0E0E0"/>
<path d="M140.143 256.62H131.173V275.533H140.143V256.62Z" fill="#E0E0E0"/>
<path d="M163.24 282.957C163.24 283.157 151.378 283.318 136.749 283.318C122.115 283.318 110.255 283.156 110.255 282.957C110.255 282.758 122.114 282.596 136.749 282.596C151.378 282.596 163.24 282.758 163.24 282.957Z" fill="#E0E0E0"/>
<path d="M140.143 294.349H131.173V313.262H140.143V294.349Z" fill="#E0E0E0"/>
<path d="M140.143 332.573H131.173V351.486H140.143V332.573Z" fill="#E0E0E0"/>
<path d="M163.24 320.686C163.24 320.885 151.378 321.047 136.749 321.047C122.115 321.047 110.255 320.885 110.255 320.686C110.255 320.487 122.114 320.325 136.749 320.325C151.378 320.325 163.24 320.487 163.24 320.686Z" fill="#E0E0E0"/>
<path d="M86.697 142.247H77.727V161.16H86.697V142.247Z" fill="#FAFAFA"/>
<path d="M109.794 168.584C109.794 168.783 97.932 168.945 83.303 168.945C68.669 168.945 56.81 168.783 56.81 168.584C56.81 168.385 68.669 168.223 83.303 168.223C97.932 168.223 109.794 168.385 109.794 168.584Z" fill="#E0E0E0"/>
<path d="M86.697 180.371H77.727V199.285H86.697V180.371Z" fill="#FAFAFA"/>
<path d="M109.794 206.708C109.794 206.908 97.932 207.069 83.303 207.069C68.669 207.069 56.81 206.908 56.81 206.708C56.81 206.509 68.669 206.347 83.303 206.347C97.932 206.347 109.794 206.509 109.794 206.708Z" fill="#E0E0E0"/>
<path d="M86.697 218.496H77.727V237.409H86.697V218.496Z" fill="#FAFAFA"/>
<path d="M109.794 244.832C109.794 245.032 97.932 245.193 83.303 245.193C68.669 245.193 56.81 245.031 56.81 244.832C56.81 244.633 68.669 244.471 83.303 244.471C97.932 244.471 109.794 244.633 109.794 244.832Z" fill="#E0E0E0"/>
<path d="M86.697 256.62H77.727V275.533H86.697V256.62Z" fill="#FAFAFA"/>
<path d="M109.794 282.957C109.794 283.157 97.932 283.318 83.303 283.318C68.669 283.318 56.81 283.156 56.81 282.957C56.81 282.758 68.669 282.596 83.303 282.596C97.932 282.596 109.794 282.758 109.794 282.957Z" fill="#E0E0E0"/>
<path d="M86.697 294.744H77.727V313.658H86.697V294.744Z" fill="#FAFAFA"/>
<path d="M109.794 321.081C109.794 321.281 97.932 321.442 83.303 321.442C68.669 321.442 56.81 321.28 56.81 321.081C56.81 320.882 68.669 320.72 83.303 320.72C97.932 320.72 109.794 320.882 109.794 321.081Z" fill="#E0E0E0"/>
<path d="M86.697 332.869H77.727V351.782H86.697V332.869Z" fill="#FAFAFA"/>
<path d="M133.622 424.752H11.157L10.624 231.204H133.089L133.622 424.752Z" fill="#EBEBEB"/>
<path d="M133.089 231.204H71.857V424.752H133.089V231.204Z" fill="#E0E0E0"/>
<path d="M67.853 193.101H24.608V231.204H67.853V193.101Z" fill="#EBEBEB"/>
<path d="M67.853 193.101H57.546V231.204H67.853V193.101Z" fill="#E0E0E0"/>
<path d="M136.673 228.981H0.417999V231.203H136.673V228.981Z" fill="#E0E0E0"/>
<path d="M45.164 247.822H34.798V269.68H45.164V247.822Z" fill="white"/>
<path d="M71.857 278.258C71.857 278.489 58.148 278.675 41.242 278.675C24.33 278.675 10.624 278.488 10.624 278.258C10.624 278.028 24.33 277.841 41.242 277.841C58.148 277.841 71.857 278.028 71.857 278.258Z" fill="#E0E0E0"/>
<path d="M106.929 247.822H96.563V269.68H106.929V247.822Z" fill="#F5F5F5"/>
<path d="M133.622 278.258C133.622 278.489 119.914 278.675 103.008 278.675C86.096 278.675 72.39 278.488 72.39 278.258C72.39 278.028 86.095 277.841 103.008 277.841C119.913 277.841 133.622 278.028 133.622 278.258Z" fill="#EBEBEB"/>
<path d="M106.929 291.218H96.563V313.076H106.929V291.218Z" fill="#F5F5F5"/>
<path d="M133.622 321.655C133.622 321.886 119.914 322.072 103.008 322.072C86.096 322.072 72.39 321.885 72.39 321.655C72.39 321.425 86.095 321.238 103.008 321.238C119.913 321.237 133.622 321.424 133.622 321.655Z" fill="#EBEBEB"/>
<path d="M106.929 335.924H96.563V357.782H106.929V335.924Z" fill="#F5F5F5"/>
<path d="M133.622 366.361C133.622 366.591 119.914 366.778 103.008 366.778C86.096 366.778 72.39 366.591 72.39 366.361C72.39 366.131 86.095 365.944 103.008 365.944C119.913 365.943 133.622 366.13 133.622 366.361Z" fill="#EBEBEB"/>
<path d="M106.929 380.63H96.563V402.488H106.929V380.63Z" fill="#F5F5F5"/>
<path d="M133.622 411.066C133.622 411.297 119.914 411.484 103.008 411.484C86.096 411.484 72.39 411.297 72.39 411.066C72.39 410.836 86.095 410.649 103.008 410.649C119.913 410.649 133.622 410.836 133.622 411.066Z" fill="#EBEBEB"/>
<path d="M45.164 291.881H34.798V313.739H45.164V291.881Z" fill="white"/>
<path d="M71.857 322.317C71.857 322.548 58.148 322.735 41.242 322.735C24.33 322.735 10.624 322.548 10.624 322.317C10.624 322.087 24.33 321.9 41.242 321.9C58.148 321.9 71.857 322.087 71.857 322.317Z" fill="#E0E0E0"/>
<path d="M45.164 335.94H34.798V357.798H45.164V335.94Z" fill="white"/>
<path d="M71.857 366.376C71.857 366.607 58.148 366.793 41.242 366.793C24.33 366.793 10.624 366.606 10.624 366.376C10.624 366.146 24.33 365.959 41.242 365.959C58.148 365.959 71.857 366.146 71.857 366.376Z" fill="#E0E0E0"/>
<path d="M45.164 379.999H34.798V401.857H45.164V379.999Z" fill="white"/>
<path d="M71.857 410.435C71.857 410.666 58.148 410.852 41.242 410.852C24.33 410.852 10.624 410.665 10.624 410.435C10.624 410.205 24.33 410.018 41.242 410.018C58.148 410.018 71.857 410.205 71.857 410.435Z" fill="#E0E0E0"/>
<path d="M367.792 264.658H246.295V424.908H367.792V264.658Z" fill="#EBEBEB"/>
<path d="M367.792 264.658H310.825V424.908H367.792V264.658Z" fill="#E0E0E0"/>
<path d="M282.694 286.354H271.77V312.895H282.694V286.354Z" fill="#F5F5F5"/>
<path d="M282.694 390.229H271.77V416.77H282.694V390.229Z" fill="#F5F5F5"/>
<path d="M310.825 323.311C310.825 323.609 296.379 323.851 278.562 323.851C260.739 323.851 246.296 323.609 246.296 323.311C246.296 323.013 260.74 322.771 278.562 322.771C296.378 322.771 310.825 323.013 310.825 323.311Z" fill="#F5F5F5"/>
<path d="M282.694 338.686H271.77V365.227H282.694V338.686Z" fill="#F5F5F5"/>
<path d="M310.825 375.643C310.825 375.941 296.379 376.183 278.562 376.183C260.739 376.183 246.296 375.941 246.296 375.643C246.296 375.345 260.74 375.103 278.562 375.103C296.378 375.103 310.825 375.345 310.825 375.643Z" fill="#F5F5F5"/>
<path d="M333.846 286.354H322.922V312.895H333.846V286.354Z" fill="#F5F5F5"/>
<path d="M357.546 286.354H346.622V312.895H357.546V286.354Z" fill="#F5F5F5"/>
<path d="M333.846 336.716H322.922V363.257H333.846V336.716Z" fill="#F5F5F5"/>
<path d="M357.546 336.716H346.622V363.257H357.546V336.716Z" fill="#F5F5F5"/>
<path d="M333.846 387.078H322.922V413.619H333.846V387.078Z" fill="#F5F5F5"/>
<path d="M357.546 387.078H346.622V413.619H357.546V387.078Z" fill="#F5F5F5"/>
<path d="M376.925 259.08H237.162V264.858H376.925V259.08Z" fill="#E0E0E0"/>
<path d="M368.641 265.402C368.641 265.7 341.485 265.942 307.995 265.942C274.493 265.942 247.343 265.7 247.343 265.402C247.343 265.104 274.493 264.862 307.995 264.862C341.485 264.862 368.641 265.104 368.641 265.402Z" fill="#EBEBEB"/>
<path d="M366.737 31.508C367.326 27.231 361.289 23.712 356.753 23.346C354.59 23.172 352.343 23.502 350.293 22.788C345.853 21.24 344.079 15.504 339.747 13.677C336.508 12.311 332.779 13.527 329.639 15.107C326.499 16.687 323.396 18.676 319.888 18.901C316.837 19.096 313.523 17.965 310.853 19.455C308.863 20.566 307.821 22.858 305.988 24.211C304.194 25.534 301.854 25.814 299.628 25.935C297.402 26.056 295.098 26.079 293.071 27.007C291.044 27.935 289.368 30.078 289.788 32.267L366.737 31.508Z" fill="#EBEBEB"/>
<path d="M452.7 81.076C453.585 74.646 444.51 69.357 437.692 68.807C434.44 68.545 431.062 69.042 427.982 67.968C421.307 65.642 418.641 57.019 412.129 54.272C407.26 52.218 401.654 54.047 396.934 56.422C392.214 58.798 387.549 61.787 382.275 62.125C377.688 62.419 372.706 60.717 368.693 62.958C365.702 64.628 364.136 68.074 361.379 70.107C358.682 72.096 355.165 72.517 351.819 72.699C348.473 72.881 345.009 72.915 341.962 74.31C338.915 75.705 336.395 78.927 337.027 82.217L452.7 81.076Z" fill="#F5F5F5"/>
<path d="M72.083 19.833C72.533 16.564 67.92 13.876 64.454 13.597C62.801 13.464 61.084 13.716 59.518 13.171C56.125 11.988 54.77 7.605 51.459 6.209C48.984 5.165 46.135 6.095 43.735 7.302C41.336 8.51 38.964 10.029 36.284 10.201C33.952 10.35 31.42 9.486 29.38 10.625C27.86 11.474 27.064 13.225 25.662 14.259C24.291 15.27 22.503 15.484 20.802 15.577C19.101 15.669 17.34 15.687 15.792 16.396C14.243 17.105 12.962 18.743 13.284 20.415L72.083 19.833Z" fill="#F5F5F5"/>
<path d="M446.183 425.482C446.183 425.626 348.939 425.742 229.01 425.742C109.04 425.742 11.816 425.625 11.816 425.482C11.816 425.339 109.039 425.222 229.01 425.222C348.939 425.221 446.183 425.338 446.183 425.482Z" fill="#263238"/>
<path d="M278.478 425.482L134.208 425.396C116.857 425.387 102.797 411.315 102.8 393.964L102.871 32.277C102.874 14.916 116.954 0.845993 134.315 0.855993L278.585 0.940996C295.936 0.950996 309.996 15.022 309.992 32.374L309.921 394.062C309.919 411.423 295.839 425.492 278.478 425.482Z" fill="#263238"/>
<path d="M279.633 13.693L251.662 13.677C247.911 13.675 244.869 16.853 244.869 20.773L244.867 25.847C244.867 29.768 241.825 32.946 238.074 32.944L183.551 32.912C179.8 32.91 176.76 29.729 176.76 25.808L176.761 20.734C176.761 16.813 173.721 13.631 169.97 13.63L160.133 13.624L135.651 13.61C123.493 13.603 113.632 23.456 113.629 35.615L113.56 388.648C113.557 400.801 123.404 410.655 135.556 410.663L279.538 410.747C291.696 410.754 301.557 400.901 301.56 388.742L301.629 35.708C301.631 23.554 291.785 13.7 279.633 13.693Z" fill="white"/>
<path d="M279.633 13.693C279.633 13.693 279.886 13.695 280.387 13.716C280.885 13.764 281.642 13.704 282.618 13.889C284.569 14.119 287.537 14.752 290.875 16.741C292.561 17.691 294.275 19.059 295.897 20.81C297.513 22.564 299.014 24.755 300.088 27.381C301.178 29.998 301.767 33.055 301.736 36.317C301.74 39.567 301.744 43.027 301.748 46.693C301.766 76.022 301.791 118.45 301.823 170.876C301.832 223.307 301.842 285.735 301.854 355.053C301.854 363.718 301.854 372.491 301.854 381.365C301.854 383.584 301.854 385.809 301.854 388.04C301.829 390.275 301.685 392.577 301.011 394.754C300.377 396.932 299.476 399.055 298.2 400.957C296.93 402.858 295.384 404.576 293.615 406.045C290.036 408.917 285.552 410.75 280.904 410.979C276.288 411.114 271.706 411.013 267.071 411.041C257.815 411.037 248.469 411.032 239.04 411.028C220.182 411.019 200.99 411.009 181.513 410.999C171.775 410.994 161.965 410.988 152.09 410.983C147.152 410.98 142.199 410.977 137.23 410.975C132.242 411.23 127.066 409.913 122.895 407.016C118.705 404.14 115.612 399.792 114.169 394.965C113.393 392.56 113.25 389.992 113.25 387.519C113.251 385.041 113.251 382.568 113.252 380.098C113.254 370.22 113.257 360.407 113.259 350.666C113.265 331.183 113.27 311.986 113.275 293.123C113.289 255.398 113.302 219.008 113.314 184.343C113.331 149.678 113.347 116.738 113.362 85.91C113.371 70.496 113.38 55.61 113.389 41.301C113.39 39.512 113.391 37.733 113.392 35.962C113.404 35.075 113.468 34.179 113.516 33.292C113.671 32.416 113.739 31.525 113.967 30.669C114.773 27.223 116.367 23.997 118.597 21.342C120.843 18.702 123.66 16.609 126.76 15.241C129.857 13.843 133.261 13.35 136.545 13.39C143.099 13.397 149.496 13.405 155.731 13.412C158.848 13.416 161.926 13.419 164.961 13.423C166.479 13.425 167.986 13.427 169.483 13.429C170.995 13.354 172.572 13.769 173.815 14.64C175.059 15.51 176.016 16.764 176.508 18.176C177.072 19.59 176.938 21.116 176.955 22.524C176.954 23.241 176.954 23.955 176.953 24.666C176.955 25.381 176.929 26.088 177.022 26.764C177.197 28.126 177.772 29.431 178.665 30.448C179.54 31.48 180.739 32.218 182.028 32.537C182.679 32.699 183.327 32.745 184.012 32.732C184.691 32.733 185.367 32.734 186.04 32.735C188.733 32.739 191.381 32.742 193.984 32.746C204.396 32.761 214.087 32.776 223.007 32.789C227.467 32.796 231.734 32.803 235.803 32.81C236.813 32.792 237.841 32.856 238.801 32.772C239.767 32.662 240.692 32.328 241.495 31.825C243.111 30.819 244.208 29.151 244.58 27.39C244.782 26.509 244.747 25.611 244.752 24.718C244.754 23.827 244.755 22.95 244.757 22.085C244.768 21.226 244.715 20.362 244.873 19.518C245.018 18.68 245.302 17.88 245.703 17.16C246.497 15.711 247.785 14.617 249.217 14.054C250.663 13.426 252.2 13.617 253.588 13.588C259.229 13.603 264.004 13.616 267.865 13.626C271.72 13.642 274.661 13.654 276.645 13.662C278.619 13.671 279.633 13.693 279.633 13.693C279.633 13.693 278.62 13.714 276.642 13.723C274.658 13.729 271.717 13.737 267.862 13.749C264.001 13.755 259.226 13.762 253.585 13.77C252.181 13.803 250.679 13.623 249.288 14.237C247.901 14.787 246.653 15.853 245.887 17.262C245.5 17.962 245.226 18.738 245.088 19.552C244.937 20.363 244.991 21.215 244.982 22.082C244.983 22.947 244.984 23.824 244.984 24.715C244.98 25.598 245.02 26.524 244.813 27.438C244.433 29.259 243.304 30.989 241.627 32.039C240.794 32.564 239.833 32.914 238.826 33.031C237.807 33.121 236.822 33.057 235.799 33.077C231.73 33.079 227.463 33.081 223.003 33.083C214.083 33.086 204.392 33.089 193.98 33.092C191.377 33.092 188.729 33.093 186.036 33.093C185.363 33.093 184.687 33.093 184.008 33.093C183.337 33.108 182.614 33.061 181.936 32.89C180.571 32.554 179.303 31.776 178.379 30.69C177.437 29.619 176.828 28.246 176.642 26.812C176.543 26.088 176.571 25.371 176.567 24.664C176.567 23.953 176.566 23.239 176.566 22.522C176.548 21.085 176.674 19.637 176.137 18.306C175.67 16.968 174.761 15.784 173.587 14.964C172.399 14.145 170.96 13.757 169.479 13.829C167.982 13.829 166.475 13.829 164.957 13.829C161.921 13.829 158.844 13.829 155.727 13.829C149.492 13.829 143.094 13.829 136.541 13.829C133.286 13.794 129.977 14.279 126.937 15.653C123.902 16.997 121.144 19.05 118.947 21.637C116.766 24.239 115.209 27.399 114.423 30.772C114.2 31.61 114.137 32.483 113.984 33.34C113.939 34.211 113.877 35.078 113.865 35.961C113.866 37.732 113.866 39.511 113.866 41.3C113.869 55.609 113.872 70.495 113.875 85.909C113.878 116.737 113.881 149.678 113.885 184.342C113.884 219.007 113.883 255.397 113.882 293.122C113.88 311.985 113.878 331.182 113.875 350.665C113.874 360.406 113.872 370.219 113.87 380.097C113.87 382.566 113.869 385.04 113.869 387.518C113.871 389.985 114.008 392.437 114.763 394.788C116.166 399.478 119.172 403.707 123.246 406.503C127.322 409.318 132.283 410.598 137.227 410.351C142.196 410.354 147.15 410.357 152.087 410.36C161.962 410.366 171.772 410.372 181.51 410.378C200.987 410.391 220.179 410.404 239.037 410.416C248.466 410.423 257.812 410.429 267.068 410.436C271.687 410.409 276.322 410.51 280.865 410.379C285.389 410.158 289.75 408.376 293.236 405.582C294.958 404.152 296.463 402.48 297.701 400.63C298.944 398.779 299.821 396.712 300.439 394.593C301.097 392.466 301.236 390.251 301.263 388.037C301.264 385.806 301.265 383.581 301.266 381.362C301.27 372.488 301.273 363.715 301.277 355.05C301.316 285.732 301.35 223.304 301.38 170.872C301.432 118.446 301.474 76.018 301.503 46.689C301.509 43.024 301.514 39.563 301.519 36.314C301.558 33.072 300.985 30.05 299.913 27.448C298.857 24.841 297.376 22.66 295.778 20.912C294.174 19.167 292.478 17.799 290.807 16.846C287.499 14.851 284.549 14.199 282.606 13.95C281.634 13.756 280.879 13.804 280.382 13.746C279.886 13.716 279.633 13.693 279.633 13.693Z" fill="#263238"/>
<path d="M283.888 49.34C283.889 49.435 280.251 49.541 275.765 49.579C271.277 49.616 267.639 49.57 267.638 49.475C267.637 49.38 271.274 49.274 275.762 49.236C280.248 49.199 283.887 49.246 283.888 49.34Z" fill="#263238"/>
<path d="M283.922 53.498C283.923 53.593 280.285 53.699 275.799 53.736C271.311 53.773 267.673 53.727 267.672 53.632C267.671 53.538 271.308 53.431 275.796 53.394C280.283 53.357 283.921 53.404 283.922 53.498Z" fill="#263238"/>
<path d="M283.957 57.656C283.958 57.751 280.32 57.857 275.833 57.895C271.345 57.932 267.707 57.886 267.706 57.791C267.705 57.696 271.342 57.59 275.83 57.552C280.317 57.515 283.956 57.561 283.957 57.656Z" fill="#263238"/>
<path d="M136.014 62.419C136.015 62.3123 136.218 62.357 136.434 62.349C136.7 62.34 137.001 62.361 137.366 62.349C138.253 62.328 139.412 62.3 140.836 62.267L140.74 62.364C140.728 61.595 140.714 60.755 140.699 59.848C140.704 59.38 140.659 58.939 140.704 58.399C140.797 57.86 141.278 57.385 141.868 57.329C142.427 57.318 142.92 57.293 143.526 57.321C144.151 57.397 144.683 57.999 144.664 58.661C144.677 59.834 144.691 61.06 144.706 62.331L144.545 62.173C145.95 62.159 147.414 62.144 148.922 62.129L148.756 62.298C148.74 60.535 148.724 58.712 148.707 56.844C148.703 56.378 148.699 55.915 148.695 55.455C148.693 55.027 148.433 54.74 148.08 54.421C147.432 53.783 146.794 53.153 146.166 52.535C145.539 51.917 144.924 51.309 144.32 50.713C144.019 50.415 143.72 50.121 143.425 49.829C143.118 49.533 142.876 49.227 142.52 49.153C142.175 49.06 141.794 49.134 141.516 49.345C141.251 49.569 140.968 49.886 140.701 50.146C140.162 50.69 139.638 51.218 139.131 51.73C138.143 52.756 137.114 53.694 136.366 54.58C136.051 55.069 136.168 55.668 136.146 56.214C136.145 56.756 136.144 57.271 136.143 57.756C136.137 58.702 136.205 59.602 136.201 60.312C136.194 60.947 136.201 61.3422 136.201 61.876C136.201 62.4097 136.157 62.4178 136.014 62.419C135.97 62.419 136.026 62.229 136.014 61.876C136.002 61.453 136.032 60.937 136.014 60.312C135.998 59.596 135.979 58.761 135.957 57.808C135.948 57.313 135.938 56.788 135.928 56.235C135.924 55.955 135.919 55.668 135.915 55.374C135.912 55.063 135.992 54.742 136.157 54.458C136.967 53.466 137.933 52.587 138.928 51.532C139.432 51.016 139.952 50.483 140.486 49.935C140.767 49.66 140.997 49.385 141.331 49.098C141.681 48.829 142.162 48.732 142.6 48.848C143.066 48.951 143.369 49.333 143.651 49.6C143.947 49.89 144.247 50.183 144.549 50.48C145.154 51.074 145.772 51.679 146.401 52.295C147.03 52.912 147.669 53.54 148.318 54.177C148.472 54.34 148.657 54.478 148.807 54.707C148.949 54.925 149.03 55.183 149.036 55.445C149.04 55.907 149.044 56.373 149.048 56.841C149.062 58.709 149.076 60.532 149.09 62.295L149.091 62.463L148.923 62.464C147.415 62.473 145.951 62.483 144.546 62.492L144.386 62.493L144.385 62.333C144.378 61.062 144.372 59.836 144.366 58.663C144.384 58.134 143.973 57.668 143.482 57.601C142.979 57.574 142.385 57.592 141.895 57.596C141.424 57.635 141.032 58.012 140.951 58.447C140.909 58.887 140.941 59.4 140.932 59.846C140.932 60.753 140.933 61.593 140.933 62.362V62.461L140.837 62.46C139.39 62.45 138.211 62.442 137.309 62.435C136.952 62.429 136.651 62.424 136.39 62.419C136.184 62.413 135.97 62.419 136.014 62.419Z" fill="black"/>
<path d="M198.699 72.644C198.699 73.803 197.779 74.474 196.016 74.474H192.547V67.767H195.824C197.501 67.767 198.363 68.466 198.363 69.511C198.363 70.182 198.018 70.699 197.472 70.987C198.22 71.225 198.699 71.801 198.699 72.644ZM194.09 68.935V70.516H195.632C196.389 70.516 196.801 70.247 196.801 69.721C196.801 69.194 196.389 68.935 195.632 68.935H194.09ZM197.137 72.481C197.137 71.916 196.706 71.648 195.901 71.648H194.09V73.306H195.901C196.706 73.305 197.137 73.055 197.137 72.481Z" fill="#263238"/>
<path d="M199.39 71.896C199.39 70.344 200.588 69.242 202.226 69.242C203.864 69.242 205.053 70.344 205.053 71.896C205.053 73.448 203.865 74.55 202.226 74.55C200.587 74.55 199.39 73.449 199.39 71.896ZM203.539 71.896C203.539 71.005 202.974 70.468 202.226 70.468C201.479 70.468 200.904 71.005 200.904 71.896C200.904 72.787 201.479 73.324 202.226 73.324C202.974 73.324 203.539 72.787 203.539 71.896Z" fill="#263238"/>
<path d="M205.667 71.896C205.667 70.344 206.865 69.242 208.503 69.242C210.142 69.242 211.33 70.344 211.33 71.896C211.33 73.448 210.142 74.55 208.503 74.55C206.865 74.551 205.667 73.449 205.667 71.896ZM209.816 71.896C209.816 71.005 209.251 70.468 208.503 70.468C207.755 70.468 207.181 71.005 207.181 71.896C207.181 72.787 207.756 73.324 208.503 73.324C209.251 73.324 209.816 72.787 209.816 71.896Z" fill="#263238"/>
<path d="M214.541 72.452L213.823 73.161V74.474H212.328V67.364H213.823V71.389L216.008 69.319H217.79L215.644 71.503L217.982 74.474H216.171L214.541 72.452Z" fill="#263238"/>
<path d="M218.432 67.766C218.432 67.296 218.805 66.932 219.362 66.932C219.918 66.932 220.291 67.277 220.291 67.737C220.291 68.235 219.917 68.599 219.362 68.599C218.806 68.6 218.432 68.236 218.432 67.766ZM218.614 69.319H220.109V74.474H218.614V69.319Z" fill="#263238"/>
<path d="M226.769 71.522V74.474H225.274V71.753C225.274 70.919 224.891 70.536 224.23 70.536C223.511 70.536 222.994 70.977 222.994 71.926V74.475H221.499V69.32H222.927V69.924C223.329 69.483 223.933 69.244 224.633 69.244C225.849 69.242 226.769 69.951 226.769 71.522Z" fill="#263238"/>
<path d="M233.497 69.319V73.612C233.497 75.528 232.462 76.41 230.602 76.41C229.625 76.41 228.677 76.171 228.073 75.701L228.667 74.628C229.108 74.982 229.826 75.212 230.488 75.212C231.542 75.212 232.002 74.733 232.002 73.803V73.583C231.609 74.014 231.044 74.225 230.373 74.225C228.945 74.225 227.795 73.238 227.795 71.733C227.795 70.228 228.945 69.242 230.373 69.242C231.092 69.242 231.686 69.481 232.078 69.98V69.319H233.497ZM232.021 71.733C232.021 70.976 231.456 70.468 230.669 70.468C229.883 70.468 229.309 70.976 229.309 71.733C229.309 72.49 229.884 72.998 230.669 72.998C231.456 72.998 232.021 72.491 232.021 71.733Z" fill="#263238"/>
<path d="M191.645 216.386H134.861C133.455 216.386 132.315 215.246 132.315 213.84V163.099C132.315 161.693 133.455 160.553 134.861 160.553H191.645C193.051 160.553 194.191 161.693 194.191 163.099V213.84C194.191 215.246 193.051 216.386 191.645 216.386Z" fill="#FF9E22"/>
<path d="M212.49 165.858V171.369H211.214V169.109H208.711V171.369H207.435V165.858H208.711V168.031H211.214V165.858H212.49Z" fill="#263238"/>
<path d="M213.396 169.251C213.396 167.976 214.38 167.07 215.727 167.07C217.074 167.07 218.05 167.975 218.05 169.251C218.05 170.527 217.073 171.432 215.727 171.432C214.381 171.432 213.396 170.527 213.396 169.251ZM216.805 169.251C216.805 168.519 216.341 168.078 215.726 168.078C215.112 168.078 214.64 168.519 214.64 169.251C214.64 169.983 215.112 170.424 215.726 170.424C216.34 170.424 216.805 169.983 216.805 169.251Z" fill="#263238"/>
<path d="M221.6 171.164C221.348 171.345 220.978 171.432 220.6 171.432C219.601 171.432 219.018 170.92 219.018 169.912V168.172H218.365V167.227H219.018V166.196H220.247V167.227H221.302V168.172H220.247V169.897C220.247 170.259 220.444 170.456 220.774 170.456C220.955 170.456 221.136 170.401 221.27 170.299L221.6 171.164Z" fill="#263238"/>
<path d="M226.285 169.598H223.08C223.198 170.125 223.647 170.448 224.292 170.448C224.741 170.448 225.063 170.314 225.355 170.039L226.008 170.747C225.614 171.196 225.024 171.432 224.26 171.432C222.796 171.432 221.843 170.511 221.843 169.251C221.843 167.983 222.811 167.07 224.103 167.07C225.347 167.07 226.308 167.905 226.308 169.267C226.309 169.361 226.293 169.495 226.285 169.598ZM223.065 168.881H225.152C225.065 168.345 224.664 167.999 224.113 167.999C223.553 167.999 223.151 168.338 223.065 168.881Z" fill="#263238"/>
<path d="M227.128 165.527H228.356V171.369H227.128V165.527Z" fill="#263238"/>
<path d="M234.671 166.833L235.125 167.753L236.141 167.901L235.406 168.617L235.579 169.628L234.671 169.151L233.763 169.628L233.936 168.617L233.202 167.901L234.217 167.753L234.671 166.833Z" fill="#FF9E22"/>
<path d="M238.631 166.833L239.085 167.753L240.101 167.901L239.366 168.617L239.539 169.628L238.631 169.151L237.723 169.628L237.897 168.617L237.162 167.901L238.177 167.753L238.631 166.833Z" fill="#FF9E22"/>
<path d="M242.592 166.833L243.046 167.753L244.061 167.901L243.326 168.617L243.5 169.628L242.592 169.151L241.684 169.628L241.857 168.617L241.122 167.901L242.138 167.753L242.592 166.833Z" fill="#FF9E22"/>
<path d="M246.552 166.833L247.006 167.753L248.021 167.901L247.287 168.617L247.46 169.628L246.552 169.151L245.644 169.628L245.817 168.617L245.083 167.901L246.098 167.753L246.552 166.833Z" fill="#FF9E22"/>
<path d="M250.512 166.833L250.966 167.753L251.982 167.901L251.247 168.617L251.42 169.628L250.512 169.151L249.604 169.628L249.777 168.617L249.043 167.901L250.058 167.753L250.512 166.833Z" fill="#FF9E22"/>
<path d="M251.279 176.893C251.279 177.037 241.689 177.153 229.861 177.153C218.029 177.153 208.441 177.036 208.441 176.893C208.441 176.75 218.029 176.633 229.861 176.633C241.689 176.633 251.279 176.75 251.279 176.893Z" fill="#E0E0E0"/>
<path d="M285.018 184.159C285.018 184.303 267.675 184.419 246.287 184.419C224.891 184.419 207.552 184.302 207.552 184.159C207.552 184.016 224.891 183.899 246.287 183.899C267.675 183.898 285.018 184.015 285.018 184.159Z" fill="#263238"/>
<path d="M246.347 191.598C246.347 191.742 237.831 191.858 227.33 191.858C216.824 191.858 208.311 191.741 208.311 191.598C208.311 191.454 216.825 191.338 227.33 191.338C237.831 191.337 246.347 191.454 246.347 191.598Z" fill="#263238"/>
<path d="M246.018 213.925H212.846C209.524 213.925 206.832 211.233 206.832 207.911V205.564C206.832 202.242 209.524 199.55 212.846 199.55H246.018C249.339 199.55 252.032 202.243 252.032 205.564V207.911C252.032 211.232 249.339 213.925 246.018 213.925Z" fill="#FF9E22"/>
<path d="M225.862 207.345C225.862 208.042 225.333 208.444 224.304 208.444H222.362V204.375H224.188C225.124 204.375 225.647 204.77 225.647 205.427C225.647 205.869 225.42 206.177 225.101 206.334C225.56 206.461 225.862 206.804 225.862 207.345ZM222.943 204.845V206.147H224.135C224.728 206.147 225.065 205.926 225.065 205.496C225.065 205.065 224.728 204.845 224.135 204.845H222.943ZM225.275 207.298C225.275 206.827 224.926 206.618 224.281 206.618H222.944V207.973H224.281C224.926 207.973 225.275 207.769 225.275 207.298Z" fill="white"/>
<path d="M226.395 206.903C226.395 205.985 227.075 205.333 227.999 205.333C228.923 205.333 229.598 205.984 229.598 206.903C229.598 207.821 228.924 208.479 227.999 208.479C227.075 208.479 226.395 207.822 226.395 206.903ZM229.034 206.903C229.034 206.246 228.592 205.821 227.999 205.821C227.406 205.821 226.958 206.245 226.958 206.903C226.958 207.56 227.406 207.99 227.999 207.99C228.592 207.99 229.034 207.56 229.034 206.903Z" fill="white"/>
<path d="M230.085 206.903C230.085 205.985 230.765 205.333 231.689 205.333C232.614 205.333 233.288 205.984 233.288 206.903C233.288 207.821 232.614 208.479 231.689 208.479C230.765 208.479 230.085 207.822 230.085 206.903ZM232.724 206.903C232.724 206.246 232.283 205.821 231.689 205.821C231.096 205.821 230.649 206.245 230.649 206.903C230.649 207.56 231.096 207.99 231.689 207.99C232.283 207.99 232.724 207.56 232.724 206.903Z" fill="white"/>
<path d="M235.258 207.008L234.618 207.601V208.444H234.059V204.131H234.618V206.898L236.298 205.363H236.973L235.676 206.636L237.101 208.444H236.415L235.258 207.008Z" fill="white"/>
<path d="M171.188 206.439C171.179 206.43 171.169 206.216 171.16 205.813C171.153 205.376 171.143 204.791 171.131 204.05C171.116 202.482 171.094 200.26 171.067 197.469C171.038 191.829 170.997 183.9 170.95 174.565L171.188 174.803C164.636 174.81 157.356 174.817 149.697 174.825C149.636 174.88 150.188 174.336 149.955 174.571V174.58V174.598V174.633V174.703V174.844V175.125V175.686V176.803C149.955 177.546 149.955 178.284 149.954 179.019C149.953 180.488 149.952 181.94 149.951 183.372C149.947 186.235 149.944 189.02 149.941 191.705C149.927 197.07 149.914 202.036 149.903 206.439L149.695 206.231C156.188 206.277 161.528 206.314 165.289 206.34C167.136 206.363 168.593 206.381 169.631 206.393C170.108 206.403 170.488 206.41 170.781 206.416C171.042 206.424 171.181 206.432 171.188 206.439C171.195 206.446 171.072 206.454 170.824 206.462C170.541 206.468 170.174 206.476 169.713 206.485C168.687 206.498 167.245 206.516 165.418 206.538C161.626 206.564 156.242 206.602 149.695 206.647L149.487 206.648L149.486 206.438C149.474 202.035 149.462 197.068 149.448 191.704C149.445 189.019 149.441 186.234 149.438 183.371C149.437 181.939 149.436 180.487 149.435 179.018C149.435 178.284 149.435 177.545 149.434 176.802V175.685V175.124V174.843V174.702V174.632V174.597V174.579V174.57C149.202 174.8 149.749 174.245 149.697 174.303C157.355 174.311 164.636 174.318 171.188 174.325H171.428L171.427 174.563C171.379 183.961 171.338 191.945 171.31 197.623C171.283 200.391 171.261 202.595 171.246 204.15C171.234 204.871 171.224 205.441 171.217 205.866C171.207 206.253 171.197 206.449 171.188 206.439Z" fill="white"/>
<path d="M166.971 170.33C167.032 170.246 167.158 171.949 167.209 174.565L167.214 174.802L166.971 174.804C166.074 174.811 165.126 174.818 164.129 174.826C164.185 174.883 163.636 174.332 163.868 174.565V174.564V174.562V174.557V174.548V174.529V174.492V174.417V174.269L163.869 173.974C163.87 173.779 163.871 173.586 163.872 173.395C163.875 173.018 163.879 172.649 163.882 172.287C163.895 171.604 163.908 170.951 163.92 170.33L163.924 170.115L164.128 170.121C165.967 170.18 167.035 170.282 166.971 170.33C166.906 170.378 165.756 170.48 164.129 170.538L164.337 170.33C164.349 170.952 164.362 171.604 164.375 172.287C164.378 172.649 164.382 173.017 164.385 173.395C164.386 173.586 164.387 173.779 164.388 173.974L164.389 174.269V174.417V174.492V174.529V174.548V174.557V174.562V174.564V174.565C164.622 174.798 164.072 174.249 164.129 174.305C165.126 174.313 166.074 174.32 166.971 174.327L166.733 174.565C166.783 172.191 166.91 170.414 166.971 170.33Z" fill="white"/>
<path d="M179.219 206.608C179.229 206.618 179.055 206.625 178.707 206.629C178.311 206.63 177.798 206.632 177.155 206.634C175.718 206.624 173.707 206.611 171.185 206.595L171.034 206.594L171.033 206.439C170.969 199.269 170.928 187.655 170.928 174.565V174.305H171.188H171.27C173.993 174.307 176.652 174.308 179.219 174.31H179.476L179.475 174.565C179.429 183.712 179.388 191.735 179.359 197.533C179.328 200.343 179.304 202.611 179.286 204.233C179.272 204.972 179.261 205.563 179.252 206.014C179.24 206.416 179.23 206.62 179.219 206.608C179.208 206.597 179.197 206.371 179.186 205.948C179.178 205.483 179.166 204.874 179.152 204.111C179.134 202.475 179.11 200.187 179.079 197.351C179.05 191.599 179.009 183.639 178.963 174.564L179.218 174.819C176.651 174.821 173.992 174.822 171.269 174.824H171.187L171.447 174.564C171.447 187.653 171.406 199.267 171.342 206.438L171.19 206.283C173.671 206.372 175.65 206.443 177.063 206.493C177.72 206.522 178.245 206.546 178.649 206.564C179.014 206.584 179.208 206.598 179.219 206.608Z" fill="white"/>
<path d="M156.453 178.563H153.122V181.894H156.453V178.563Z" fill="white"/>
<path d="M162.107 178.563H158.776V181.894H162.107V178.563Z" fill="white"/>
<path d="M167.761 178.563H164.43V181.894H167.761V178.563Z" fill="white"/>
<path d="M156.453 184.292H153.122V187.623H156.453V184.292Z" fill="white"/>
<path d="M162.107 184.292H158.776V187.623H162.107V184.292Z" fill="white"/>
<path d="M167.761 184.292H164.43V187.623H167.761V184.292Z" fill="white"/>
<path d="M156.453 190.022H153.122V193.353H156.453V190.022Z" fill="white"/>
<path d="M162.107 190.022H158.776V193.353H162.107V190.022Z" fill="white"/>
<path d="M167.761 190.022H164.43V193.353H167.761V190.022Z" fill="white"/>
<path d="M156.453 195.751H153.122V199.082H156.453V195.751Z" fill="white"/>
<path d="M162.107 195.751H158.776V199.082H162.107V195.751Z" fill="white"/>
<path d="M167.761 195.751H164.43V199.082H167.761V195.751Z" fill="white"/>
<path d="M176.589 178.563H173.258V181.894H176.589V178.563Z" fill="white"/>
<path d="M176.589 184.292H173.258V187.623H176.589V184.292Z" fill="white"/>
<path d="M176.589 190.022H173.258V193.353H176.589V190.022Z" fill="white"/>
<path d="M176.589 195.751H173.258V199.082H176.589V195.751Z" fill="white"/>
<path d="M162.426 201.28H159.162V206.439H162.426V201.28Z" fill="white"/>
<path d="M186.35 206.439C186.35 206.583 176.008 206.699 163.254 206.699C150.495 206.699 140.156 206.582 140.156 206.439C140.156 206.295 150.496 206.179 163.254 206.179C176.008 206.179 186.35 206.296 186.35 206.439Z" fill="white"/>
<path d="M288.854 224.124C288.851 224.098 289.28 224.137 290.071 223.942C290.842 223.748 292.035 223.223 292.951 221.913C293.387 221.261 293.74 220.415 293.795 219.442C293.825 218.467 293.796 217.383 293.8 216.219C293.793 213.884 293.785 211.192 293.776 208.163C293.756 196.031 293.728 178.493 293.693 156.823C293.7 156.137 293.697 155.485 293.509 154.846C293.332 154.211 293.022 153.609 292.6 153.091C291.758 152.052 290.455 151.385 289.09 151.327C286.257 151.326 283.362 151.324 280.408 151.323C274.492 151.328 268.339 151.333 261.967 151.338C249.222 151.346 235.606 151.354 221.277 151.362C192.618 151.368 161.112 151.375 128.041 151.382C126.06 151.347 124.18 152.697 123.546 154.551C123.185 155.462 123.281 156.471 123.266 157.507C123.266 158.531 123.266 159.554 123.266 160.575C123.266 164.659 123.265 168.716 123.265 172.743C123.264 180.797 123.262 188.734 123.261 196.532C123.265 204.324 123.269 211.977 123.274 219.473C123.394 221.261 124.616 222.896 126.267 223.536C126.675 223.707 127.11 223.793 127.545 223.852C127.975 223.883 128.445 223.877 128.906 223.877C129.829 223.877 130.748 223.878 131.666 223.878C135.335 223.88 138.963 223.881 142.546 223.883C171.206 223.904 197.016 223.923 218.694 223.939C240.363 223.974 257.9 224.002 270.031 224.022C276.085 224.043 280.787 224.06 283.988 224.071C285.576 224.082 286.79 224.091 287.618 224.097C288.435 224.106 288.854 224.124 288.854 224.124C288.854 224.124 288.435 224.142 287.617 224.151C286.789 224.157 285.575 224.165 283.987 224.177C280.786 224.188 276.084 224.205 270.03 224.226C257.899 224.246 240.362 224.274 218.693 224.309C197.015 224.325 171.205 224.344 142.545 224.365C138.962 224.367 135.335 224.368 131.665 224.37C130.748 224.37 129.828 224.371 128.905 224.371C128.443 224.37 127.989 224.38 127.495 224.344C127.015 224.281 126.534 224.184 126.084 223.997C124.261 223.292 122.912 221.49 122.777 219.514C122.768 212.006 122.759 204.339 122.75 196.535C122.749 188.737 122.747 180.8 122.746 172.746C122.746 168.719 122.745 164.662 122.745 160.578C122.745 159.557 122.745 158.534 122.745 157.51C122.749 156.994 122.736 156.494 122.754 155.964C122.762 155.424 122.876 154.889 123.055 154.38C123.757 152.323 125.845 150.827 128.041 150.865C161.111 150.872 192.618 150.879 221.277 150.885C235.606 150.893 249.222 150.902 261.967 150.909C268.339 150.914 274.493 150.919 280.408 150.924C283.369 150.931 286.27 150.938 289.109 150.945C290.582 151.01 291.989 151.735 292.893 152.855C293.346 153.414 293.68 154.063 293.869 154.748C294.07 155.431 294.071 156.161 294.062 156.825C294.027 178.494 293.999 196.032 293.979 208.165C293.97 211.194 293.962 213.886 293.955 216.221C293.943 217.389 293.964 218.461 293.925 219.453C293.86 220.451 293.49 221.314 293.038 221.975C292.089 223.302 290.868 223.816 290.084 223.996C289.685 224.091 289.373 224.122 289.166 224.124C288.959 224.128 288.854 224.124 288.854 224.124Z" fill="#FF9E22"/>
<path d="M189.811 298.924H133.027C131.621 298.924 130.481 297.784 130.481 296.378V245.637C130.481 244.231 131.621 243.091 133.027 243.091H189.811C191.217 243.091 192.357 244.231 192.357 245.637V296.378C192.357 297.784 191.217 298.924 189.811 298.924Z" fill="#FF9E22"/>
<path d="M210.656 248.397V253.909H209.38V251.649H206.877V253.909H205.601V248.397H206.877V250.571H209.38V248.397H210.656Z" fill="#263238"/>
<path d="M211.562 251.79C211.562 250.515 212.546 249.609 213.893 249.609C215.24 249.609 216.216 250.514 216.216 251.79C216.216 253.065 215.239 253.971 213.893 253.971C212.547 253.971 211.562 253.066 211.562 251.79ZM214.971 251.79C214.971 251.057 214.507 250.617 213.892 250.617C213.278 250.617 212.806 251.057 212.806 251.79C212.806 252.522 213.278 252.963 213.892 252.963C214.507 252.963 214.971 252.523 214.971 251.79Z" fill="#263238"/>
<path d="M219.766 253.703C219.514 253.885 219.144 253.971 218.766 253.971C217.767 253.971 217.183 253.459 217.183 252.451V250.712H216.53V249.767H217.183V248.736H218.412V249.767H219.467V250.712H218.412V252.436C218.412 252.798 218.609 252.995 218.939 252.995C219.12 252.995 219.301 252.939 219.435 252.838L219.766 253.703Z" fill="#263238"/>
<path d="M224.451 252.137H221.246C221.364 252.664 221.813 252.988 222.458 252.988C222.907 252.988 223.229 252.854 223.521 252.578L224.174 253.287C223.78 253.736 223.19 253.972 222.426 253.972C220.962 253.972 220.009 253.051 220.009 251.791C220.009 250.523 220.977 249.61 222.269 249.61C223.513 249.61 224.473 250.444 224.473 251.806C224.475 251.901 224.459 252.034 224.451 252.137ZM221.231 251.42H223.318C223.231 250.885 222.83 250.538 222.279 250.538C221.719 250.538 221.317 250.877 221.231 251.42Z" fill="#263238"/>
<path d="M225.294 248.067H226.522V253.909H225.294V248.067Z" fill="#263238"/>
<path d="M232.837 249.372L233.291 250.292L234.306 250.439L233.572 251.155L233.745 252.167L232.837 251.689L231.929 252.167L232.102 251.155L231.368 250.439L232.383 250.292L232.837 249.372Z" fill="#FF9E22"/>
<path d="M236.797 249.372L237.251 250.292L238.267 250.439L237.532 251.155L237.706 252.167L236.797 251.689L235.889 252.167L236.063 251.155L235.328 250.439L236.343 250.292L236.797 249.372Z" fill="#FF9E22"/>
<path d="M240.758 249.372L241.212 250.292L242.227 250.439L241.492 251.155L241.666 252.167L240.758 251.689L239.85 252.167L240.023 251.155L239.288 250.439L240.304 250.292L240.758 249.372Z" fill="#FF9E22"/>
<path d="M244.718 249.372L245.172 250.292L246.187 250.439L245.453 251.155L245.626 252.167L244.718 251.689L243.81 252.167L243.983 251.155L243.249 250.439L244.264 250.292L244.718 249.372Z" fill="#E0E0E0"/>
<path d="M248.678 249.372L249.132 250.292L250.148 250.439L249.413 251.155L249.586 252.167L248.678 251.689L247.77 252.167L247.944 251.155L247.209 250.439L248.224 250.292L248.678 249.372Z" fill="#E0E0E0"/>
<path d="M249.445 259.432C249.445 259.576 239.855 259.692 228.027 259.692C216.195 259.692 206.607 259.575 206.607 259.432C206.607 259.289 216.195 259.172 228.027 259.172C239.855 259.172 249.445 259.288 249.445 259.432Z" fill="#E0E0E0"/>
<path d="M283.184 266.697C283.184 266.841 265.841 266.957 244.453 266.957C223.057 266.957 205.718 266.84 205.718 266.697C205.718 266.554 223.057 266.437 244.453 266.437C265.841 266.437 283.184 266.554 283.184 266.697Z" fill="#263238"/>
<path d="M244.513 274.136C244.513 274.28 235.998 274.396 225.496 274.396C214.991 274.396 206.477 274.279 206.477 274.136C206.477 273.992 214.991 273.876 225.496 273.876C235.997 273.876 244.513 273.992 244.513 274.136Z" fill="#263238"/>
<path d="M244.184 296.464C244.182 296.426 244.569 296.455 245.274 296.307C245.971 296.166 247.014 295.821 248.041 294.926C249.056 294.054 250.009 292.527 250.046 290.598C250.04 289.636 250.069 288.559 250.001 287.488C249.878 286.417 249.446 285.319 248.684 284.395C247.912 283.493 246.832 282.746 245.559 282.46C244.923 282.305 244.274 282.283 243.566 282.297C242.868 282.299 242.156 282.302 241.433 282.304C238.537 282.312 235.444 282.32 232.192 282.328C225.679 282.334 218.526 282.341 211.017 282.348C209.217 282.35 207.463 283.225 206.424 284.642C205.899 285.341 205.525 286.15 205.367 286.998C205.202 287.833 205.274 288.733 205.256 289.622C205.242 290.522 205.252 291.35 205.51 292.154C205.757 292.95 206.179 293.68 206.723 294.288C207.808 295.514 209.395 296.214 210.96 296.22C217.461 296.242 223.318 296.262 228.252 296.279C233.145 296.314 237.118 296.342 239.911 296.362C241.257 296.383 242.318 296.399 243.081 296.411C243.419 296.422 243.69 296.43 243.905 296.437C244.089 296.446 244.184 296.454 244.184 296.464C244.184 296.474 244.089 296.482 243.903 296.491C243.688 296.498 243.416 296.506 243.079 296.517C242.316 296.529 241.255 296.545 239.909 296.566C237.116 296.586 233.143 296.614 228.25 296.649C223.314 296.664 217.455 296.682 210.953 296.702C209.259 296.703 207.531 295.949 206.35 294.622C205.758 293.963 205.297 293.17 205.026 292.305C204.742 291.443 204.731 290.49 204.744 289.624C204.762 288.746 204.681 287.843 204.86 286.902C205.032 285.977 205.438 285.094 206.009 284.332C207.139 282.788 209.054 281.83 211.016 281.829C218.526 281.836 225.679 281.843 232.191 281.85C235.444 281.858 238.536 281.866 241.432 281.874C242.156 281.876 242.867 281.879 243.565 281.881C244.251 281.871 244.984 281.898 245.653 282.071C247.012 282.388 248.157 283.194 248.967 284.162C249.768 285.151 250.213 286.322 250.329 287.455C250.388 288.598 250.343 289.615 250.336 290.607C250.268 292.631 249.242 294.205 248.173 295.081C247.091 295.983 246.008 296.302 245.293 296.412C244.931 296.468 244.654 296.486 244.466 296.478C244.279 296.477 244.184 296.473 244.184 296.464Z" fill="#FF9E22"/>
<path d="M224.028 289.883C224.028 290.58 223.499 290.982 222.47 290.982H220.528V286.913H222.354C223.29 286.913 223.813 287.308 223.813 287.965C223.813 288.407 223.586 288.715 223.267 288.872C223.726 288.999 224.028 289.342 224.028 289.883ZM221.109 287.383V288.686H222.301C222.894 288.686 223.231 288.464 223.231 288.035C223.231 287.604 222.894 287.384 222.301 287.384H221.109V287.383ZM223.441 289.836C223.441 289.365 223.092 289.156 222.447 289.156H221.11V290.511H222.447C223.092 290.511 223.441 290.307 223.441 289.836Z" fill="#FF9E22"/>
<path d="M224.561 289.441C224.561 288.523 225.241 287.872 226.165 287.872C227.089 287.872 227.764 288.523 227.764 289.441C227.764 290.36 227.09 291.017 226.165 291.017C225.24 291.017 224.561 290.36 224.561 289.441ZM227.2 289.441C227.2 288.785 226.758 288.36 226.165 288.36C225.572 288.36 225.124 288.785 225.124 289.441C225.124 290.098 225.572 290.529 226.165 290.529C226.758 290.529 227.2 290.098 227.2 289.441Z" fill="#FF9E22"/>
<path d="M228.251 289.441C228.251 288.523 228.931 287.872 229.855 287.872C230.779 287.872 231.453 288.523 231.453 289.441C231.453 290.36 230.779 291.017 229.855 291.017C228.931 291.017 228.251 290.36 228.251 289.441ZM230.89 289.441C230.89 288.785 230.449 288.36 229.855 288.36C229.262 288.36 228.815 288.785 228.815 289.441C228.815 290.098 229.263 290.529 229.855 290.529C230.449 290.529 230.89 290.098 230.89 289.441Z" fill="#FF9E22"/>
<path d="M233.423 289.546L232.783 290.139V290.982H232.224V286.668H232.783V289.435L234.463 287.901H235.138L233.841 289.174L235.266 290.982H234.579L233.423 289.546Z" fill="#FF9E22"/>
<path d="M169.354 288.978C169.345 288.969 169.335 288.755 169.326 288.352C169.319 287.915 169.309 287.33 169.297 286.589C169.282 285.021 169.26 282.799 169.233 280.008C169.204 274.368 169.163 266.439 169.116 257.104L169.354 257.342C162.802 257.349 155.522 257.356 147.863 257.364C147.802 257.419 148.354 256.875 148.121 257.11V257.119V257.137V257.172V257.242V257.383V257.664V258.225V259.342C148.121 260.085 148.121 260.823 148.12 261.558C148.119 263.027 148.118 264.479 148.117 265.911C148.113 268.774 148.11 271.559 148.107 274.244C148.093 279.609 148.08 284.575 148.069 288.978L147.861 288.77C154.354 288.816 159.694 288.853 163.455 288.879C165.302 288.902 166.759 288.919 167.797 288.932C168.274 288.942 168.654 288.949 168.947 288.955C169.208 288.963 169.347 288.97 169.354 288.978C169.362 288.985 169.238 288.993 168.99 289C168.707 289.006 168.34 289.014 167.879 289.023C166.853 289.036 165.411 289.053 163.584 289.076C159.792 289.102 154.408 289.14 147.861 289.185L147.653 289.187L147.652 288.977C147.641 284.573 147.628 279.607 147.614 274.243C147.611 271.558 147.607 268.773 147.604 265.91C147.603 264.478 147.602 263.026 147.601 261.557C147.601 260.823 147.601 260.084 147.6 259.341V258.224V257.663V257.382V257.241V257.171V257.136V257.118V257.109C147.368 257.339 147.915 256.784 147.863 256.842C155.521 256.85 162.802 256.857 169.354 256.864H169.594L169.593 257.102C169.545 266.5 169.504 274.484 169.476 280.162C169.449 282.93 169.427 285.134 169.412 286.688C169.4 287.409 169.39 287.979 169.383 288.404C169.373 288.792 169.364 288.987 169.354 288.978Z" fill="white"/>
<path d="M165.137 252.869C165.198 252.785 165.324 254.488 165.376 257.104L165.381 257.341L165.138 257.343C164.241 257.35 163.293 257.357 162.296 257.365C162.352 257.422 161.803 256.871 162.035 257.104V257.103V257.1V257.095V257.086V257.067V257.03V256.956V256.808L162.036 256.513C162.037 256.318 162.038 256.125 162.039 255.935C162.043 255.558 162.046 255.189 162.049 254.828C162.062 254.145 162.075 253.492 162.087 252.871L162.091 252.656L162.295 252.663C164.133 252.719 165.201 252.821 165.137 252.869C165.072 252.917 163.922 253.019 162.295 253.077L162.503 252.869C162.515 253.49 162.528 254.143 162.541 254.826C162.544 255.188 162.548 255.556 162.551 255.933C162.552 256.124 162.553 256.317 162.554 256.511L162.555 256.806V256.954V257.028V257.065V257.084V257.093V257.098V257.1V257.101C162.788 257.334 162.238 256.785 162.295 256.841C163.292 256.849 164.24 256.856 165.137 256.863L164.899 257.101C164.949 254.729 165.076 252.953 165.137 252.869Z" fill="white"/>
<path d="M177.385 289.147C177.395 289.157 177.221 289.164 176.874 289.168C176.478 289.169 175.965 289.171 175.322 289.173C173.885 289.164 171.874 289.15 169.352 289.134L169.201 289.133L169.2 288.978C169.137 281.807 169.096 270.194 169.095 257.104V256.844H169.355H169.437C172.16 256.846 174.819 256.847 177.386 256.849H177.643L177.642 257.104C177.596 266.251 177.555 274.274 177.526 280.072C177.495 282.882 177.471 285.15 177.453 286.772C177.439 287.511 177.428 288.102 177.42 288.553C177.406 288.954 177.396 289.158 177.385 289.147C177.374 289.136 177.363 288.91 177.352 288.488C177.344 288.023 177.332 287.414 177.319 286.651C177.301 285.015 177.277 282.727 177.246 279.892C177.217 274.14 177.176 266.18 177.13 257.105L177.385 257.36C174.818 257.362 172.159 257.363 169.436 257.365H169.354L169.614 257.105C169.614 270.194 169.573 281.808 169.509 288.979L169.357 288.824C171.838 288.913 173.817 288.984 175.23 289.034C175.887 289.063 176.412 289.087 176.816 289.105C177.18 289.122 177.374 289.136 177.385 289.147Z" fill="white"/>
<path d="M154.619 261.102H151.288V264.433H154.619V261.102Z" fill="white"/>
<path d="M160.273 261.102H156.942V264.433H160.273V261.102Z" fill="white"/>
<path d="M165.927 261.102H162.596V264.433H165.927V261.102Z" fill="white"/>
<path d="M154.619 266.831H151.288V270.162H154.619V266.831Z" fill="white"/>
<path d="M160.273 266.831H156.942V270.162H160.273V266.831Z" fill="white"/>
<path d="M165.927 266.831H162.596V270.162H165.927V266.831Z" fill="white"/>
<path d="M154.619 272.56H151.288V275.891H154.619V272.56Z" fill="white"/>
<path d="M160.273 272.56H156.942V275.891H160.273V272.56Z" fill="white"/>
<path d="M165.927 272.56H162.596V275.891H165.927V272.56Z" fill="white"/>
<path d="M154.619 278.289H151.288V281.62H154.619V278.289Z" fill="white"/>
<path d="M160.273 278.289H156.942V281.62H160.273V278.289Z" fill="white"/>
<path d="M165.927 278.289H162.596V281.62H165.927V278.289Z" fill="white"/>
<path d="M174.755 261.102H171.424V264.433H174.755V261.102Z" fill="white"/>
<path d="M174.755 266.831H171.424V270.162H174.755V266.831Z" fill="white"/>
<path d="M174.755 272.56H171.424V275.891H174.755V272.56Z" fill="white"/>
<path d="M174.755 278.289H171.424V281.62H174.755V278.289Z" fill="white"/>
<path d="M160.592 283.819H157.328V288.978H160.592V283.819Z" fill="white"/>
<path d="M184.516 288.978C184.516 289.122 174.174 289.238 161.42 289.238C148.661 289.238 138.322 289.121 138.322 288.978C138.322 288.835 148.662 288.718 161.42 288.718C174.174 288.717 184.516 288.834 184.516 288.978Z" fill="white"/>
<path d="M190.573 380.918H133.789C132.383 380.918 131.243 379.778 131.243 378.372V327.631C131.243 326.225 132.383 325.085 133.789 325.085H190.573C191.979 325.085 193.119 326.225 193.119 327.631V378.372C193.12 379.777 191.98 380.918 190.573 380.918Z" fill="#FF9E22"/>
<path d="M211.419 330.39V335.902H210.143V333.642H207.64V335.902H206.364V330.39H207.64V332.563H210.143V330.39H211.419Z" fill="#263238"/>
<path d="M212.324 333.784C212.324 332.509 213.308 331.603 214.654 331.603C216 331.603 216.977 332.508 216.977 333.784C216.977 335.059 216 335.966 214.654 335.966C213.308 335.965 212.324 335.059 212.324 333.784ZM215.733 333.784C215.733 333.052 215.269 332.611 214.654 332.611C214.04 332.611 213.568 333.051 213.568 333.784C213.568 334.516 214.04 334.958 214.654 334.958C215.269 334.957 215.733 334.516 215.733 333.784Z" fill="#263238"/>
<path d="M220.528 335.697C220.276 335.879 219.906 335.966 219.528 335.966C218.528 335.966 217.945 335.453 217.945 334.445V332.706H217.292V331.761H217.945V330.73H219.174V331.761H220.229V332.706H219.174V334.43C219.174 334.792 219.371 334.99 219.701 334.99C219.882 334.99 220.063 334.934 220.197 334.832L220.528 335.697Z" fill="#263238"/>
<path d="M225.213 334.13H222.008C222.126 334.657 222.575 334.981 223.22 334.981C223.669 334.981 223.991 334.847 224.283 334.571L224.936 335.28C224.543 335.729 223.952 335.966 223.188 335.966C221.724 335.966 220.771 335.044 220.771 333.784C220.771 332.516 221.739 331.603 223.031 331.603C224.275 331.603 225.236 332.438 225.236 333.799C225.237 333.894 225.221 334.028 225.213 334.13ZM221.993 333.413H224.08C223.993 332.878 223.592 332.531 223.04 332.531C222.481 332.532 222.08 332.87 221.993 333.413Z" fill="#263238"/>
<path d="M226.056 330.06H227.284V335.902H226.056V330.06Z" fill="#263238"/>
<path d="M233.599 331.365L234.053 332.285L235.069 332.432L234.334 333.148L234.508 334.16L233.599 333.682L232.691 334.16L232.865 333.148L232.13 332.432L233.145 332.285L233.599 331.365Z" fill="#FF9E22"/>
<path d="M237.56 331.365L238.014 332.285L239.029 332.432L238.294 333.148L238.468 334.16L237.56 333.682L236.652 334.16L236.825 333.148L236.09 332.432L237.106 332.285L237.56 331.365Z" fill="#FF9E22"/>
<path d="M241.52 331.365L241.974 332.285L242.989 332.432L242.255 333.148L242.428 334.16L241.52 333.682L240.612 334.16L240.785 333.148L240.051 332.432L241.066 332.285L241.52 331.365Z" fill="#E0E0E0"/>
<path d="M245.48 331.365L245.934 332.285L246.95 332.432L246.215 333.148L246.388 334.16L245.48 333.682L244.572 334.16L244.746 333.148L244.011 332.432L245.026 332.285L245.48 331.365Z" fill="#E0E0E0"/>
<path d="M249.44 331.365L249.895 332.285L250.91 332.432L250.175 333.148L250.349 334.16L249.44 333.682L248.532 334.16L248.706 333.148L247.971 332.432L248.986 332.285L249.44 331.365Z" fill="#E0E0E0"/>
<path d="M250.207 341.425C250.207 341.569 240.617 341.685 228.789 341.685C216.958 341.685 207.369 341.569 207.369 341.425C207.369 341.281 216.957 341.165 228.789 341.165C240.617 341.165 250.207 341.281 250.207 341.425Z" fill="#E0E0E0"/>
<path d="M283.946 348.69C283.946 348.834 266.603 348.95 245.215 348.95C223.819 348.95 206.48 348.833 206.48 348.69C206.48 348.546 223.819 348.43 245.215 348.43C266.603 348.43 283.946 348.547 283.946 348.69Z" fill="#263238"/>
<path d="M245.275 356.129C245.275 356.273 236.759 356.389 226.258 356.389C215.752 356.389 207.239 356.272 207.239 356.129C207.239 355.985 215.753 355.869 226.258 355.869C236.759 355.869 245.275 355.986 245.275 356.129Z" fill="#263238"/>
<path d="M244.946 378.457C244.944 378.419 245.331 378.448 246.036 378.3C246.733 378.159 247.776 377.814 248.803 376.918C249.818 376.046 250.771 374.519 250.808 372.59C250.802 371.628 250.831 370.551 250.763 369.48C250.64 368.409 250.208 367.311 249.446 366.387C248.674 365.484 247.594 364.738 246.321 364.452C245.685 364.297 245.036 364.275 244.328 364.289C243.63 364.291 242.918 364.294 242.195 364.296C239.299 364.304 236.206 364.312 232.954 364.32C226.441 364.326 219.288 364.333 211.779 364.34C209.979 364.342 208.225 365.217 207.186 366.634C206.661 367.333 206.287 368.142 206.129 368.99C205.964 369.825 206.036 370.725 206.018 371.614C206.004 372.514 206.014 373.342 206.272 374.146C206.519 374.942 206.941 375.672 207.485 376.28C208.57 377.506 210.157 378.206 211.722 378.212C218.223 378.234 224.08 378.254 229.014 378.271C233.907 378.306 237.881 378.334 240.674 378.354C242.02 378.375 243.081 378.391 243.844 378.403C244.182 378.414 244.453 378.422 244.668 378.429C244.851 378.439 244.946 378.448 244.946 378.457C244.946 378.466 244.851 378.475 244.665 378.484C244.45 378.491 244.178 378.499 243.841 378.51C243.078 378.522 242.017 378.538 240.671 378.559C237.878 378.579 233.905 378.607 229.011 378.642C224.075 378.657 218.217 378.675 211.714 378.695C210.02 378.696 208.292 377.942 207.111 376.615C206.519 375.956 206.058 375.164 205.787 374.298C205.503 373.436 205.492 372.483 205.505 371.617C205.523 370.739 205.442 369.836 205.621 368.895C205.793 367.971 206.199 367.087 206.77 366.325C207.9 364.781 209.815 363.823 211.777 363.822C219.286 363.829 226.44 363.836 232.952 363.842C236.205 363.85 239.297 363.859 242.193 363.866C242.916 363.869 243.628 363.871 244.326 363.873C245.012 363.863 245.745 363.89 246.414 364.062C247.773 364.38 248.917 365.185 249.728 366.153C250.529 367.142 250.974 368.313 251.09 369.446C251.149 370.589 251.104 371.606 251.097 372.598C251.029 374.622 250.003 376.196 248.934 377.072C247.852 377.974 246.769 378.293 246.054 378.403C245.692 378.459 245.415 378.477 245.227 378.469C245.041 378.47 244.946 378.466 244.946 378.457Z" fill="#FF9E22"/>
<path d="M224.79 371.875C224.79 372.572 224.261 372.974 223.232 372.974H221.29V368.905H223.116C224.052 368.905 224.575 369.301 224.575 369.957C224.575 370.399 224.348 370.707 224.029 370.864C224.488 370.991 224.79 371.334 224.79 371.875ZM221.872 369.375V370.678H223.064C223.657 370.678 223.994 370.456 223.994 370.027C223.994 369.596 223.657 369.376 223.064 369.376H221.872V369.375ZM224.203 371.828C224.203 371.357 223.854 371.148 223.209 371.148H221.872V372.502H223.209C223.854 372.503 224.203 372.299 224.203 371.828Z" fill="#FF9E22"/>
<path d="M225.323 371.433C225.323 370.515 226.003 369.864 226.928 369.864C227.853 369.864 228.527 370.515 228.527 371.433C228.527 372.352 227.853 373.009 226.928 373.009C226.003 373.009 225.323 372.352 225.323 371.433ZM227.962 371.433C227.962 370.777 227.52 370.352 226.927 370.352C226.334 370.352 225.886 370.777 225.886 371.433C225.886 372.09 226.334 372.521 226.927 372.521C227.521 372.521 227.962 372.09 227.962 371.433Z" fill="#FF9E22"/>
<path d="M229.013 371.433C229.013 370.515 229.693 369.864 230.618 369.864C231.543 369.864 232.217 370.515 232.217 371.433C232.217 372.352 231.543 373.009 230.618 373.009C229.693 373.009 229.013 372.352 229.013 371.433ZM231.653 371.433C231.653 370.777 231.212 370.352 230.618 370.352C230.025 370.352 229.577 370.777 229.577 371.433C229.577 372.09 230.025 372.521 230.618 372.521C231.212 372.521 231.653 372.09 231.653 371.433Z" fill="#FF9E22"/>
<path d="M234.186 371.538L233.546 372.131V372.974H232.987V368.661H233.546V371.428L235.226 369.894H235.901L234.604 371.167L236.029 372.975H235.343L234.186 371.538Z" fill="#FF9E22"/>
<path d="M170.116 370.971C170.107 370.962 170.097 370.748 170.088 370.345C170.081 369.908 170.071 369.323 170.059 368.582C170.044 367.014 170.022 364.792 169.995 362.001C169.966 356.361 169.925 348.432 169.878 339.097L170.116 339.335C163.564 339.342 156.284 339.349 148.625 339.357C148.564 339.412 149.116 338.868 148.883 339.103V339.112V339.13V339.165V339.235V339.376V339.657V340.218V341.335C148.883 342.078 148.882 342.817 148.882 343.551C148.881 345.02 148.88 346.472 148.879 347.904C148.875 350.768 148.872 353.552 148.869 356.237C148.855 361.602 148.842 366.568 148.831 370.971L148.623 370.763C155.116 370.809 160.456 370.846 164.217 370.872C166.064 370.895 167.521 370.912 168.559 370.925C169.036 370.935 169.416 370.942 169.709 370.948C169.97 370.956 170.109 370.963 170.116 370.971C170.124 370.979 170 370.986 169.752 370.994C169.469 371 169.102 371.008 168.641 371.017C167.615 371.03 166.173 371.048 164.346 371.07C160.554 371.097 155.17 371.134 148.623 371.179L148.415 371.18L148.414 370.97C148.402 366.566 148.39 361.6 148.376 356.236C148.373 353.551 148.369 350.766 148.366 347.903C148.365 346.471 148.364 345.019 148.363 343.55C148.363 342.816 148.363 342.077 148.362 341.334V340.217V339.656V339.375V339.234V339.164V339.129V339.111V339.102C148.13 339.332 148.677 338.777 148.625 338.835C156.283 338.843 163.564 338.85 170.116 338.857H170.356L170.355 339.095C170.307 348.493 170.266 356.477 170.238 362.155C170.211 364.923 170.189 367.127 170.174 368.682C170.162 369.403 170.152 369.973 170.145 370.398C170.135 370.785 170.126 370.98 170.116 370.971Z" fill="white"/>
<path d="M165.899 334.862C165.959 334.778 166.086 336.481 166.137 339.097L166.142 339.334L165.899 339.336C165.002 339.343 164.054 339.35 163.057 339.358C163.113 339.415 162.564 338.864 162.796 339.097V339.094V339.089V339.08V339.061V339.024V338.95V338.802L162.797 338.507C162.798 338.312 162.799 338.12 162.8 337.929C162.803 337.552 162.807 337.183 162.81 336.821C162.823 336.138 162.836 335.485 162.848 334.864L162.852 334.649L163.056 334.656C164.895 334.712 165.964 334.814 165.899 334.862C165.834 334.91 164.684 335.012 163.057 335.07L163.265 334.862C163.277 335.483 163.29 336.136 163.303 336.819C163.306 337.181 163.31 337.549 163.313 337.927C163.314 338.118 163.315 338.311 163.316 338.505L163.317 338.8V338.948V339.022V339.059V339.078V339.087V339.092V339.094V339.095C163.55 339.328 163 338.779 163.057 338.835C164.054 338.843 165.002 338.85 165.899 338.857L165.661 339.095C165.712 336.722 165.839 334.946 165.899 334.862Z" fill="white"/>
<path d="M178.147 371.14C178.157 371.15 177.983 371.157 177.635 371.161C177.239 371.162 176.726 371.164 176.083 371.166C174.646 371.157 172.635 371.144 170.113 371.127L169.962 371.126L169.961 370.971C169.897 363.8 169.856 352.187 169.856 339.097V338.837H170.116H170.198C172.921 338.839 175.58 338.841 178.147 338.842H178.404L178.403 339.097C178.357 348.244 178.316 356.267 178.287 362.065C178.256 364.875 178.232 367.143 178.214 368.765C178.2 369.504 178.189 370.095 178.18 370.546C178.169 370.947 178.158 371.151 178.147 371.14C178.136 371.129 178.125 370.903 178.114 370.481C178.106 370.016 178.094 369.407 178.08 368.644C178.062 367.008 178.038 364.72 178.007 361.884C177.978 356.132 177.937 348.172 177.891 339.097L178.146 339.352C175.579 339.354 172.92 339.355 170.197 339.357H170.115L170.375 339.097C170.375 352.186 170.334 363.8 170.27 370.971L170.118 370.816C172.599 370.905 174.578 370.976 175.991 371.026C176.648 371.055 177.173 371.079 177.577 371.097C177.942 371.115 178.137 371.129 178.147 371.14Z" fill="white"/>
<path d="M155.381 343.095H152.05V346.426H155.381V343.095Z" fill="white"/>
<path d="M161.035 343.095H157.704V346.426H161.035V343.095Z" fill="white"/>
<path d="M166.689 343.095H163.358V346.426H166.689V343.095Z" fill="white"/>
<path d="M155.381 348.824H152.05V352.155H155.381V348.824Z" fill="white"/>
<path d="M161.035 348.824H157.704V352.155H161.035V348.824Z" fill="white"/>
<path d="M166.689 348.824H163.358V352.155H166.689V348.824Z" fill="white"/>
<path d="M155.381 354.553H152.05V357.884H155.381V354.553Z" fill="white"/>
<path d="M161.035 354.553H157.704V357.884H161.035V354.553Z" fill="white"/>
<path d="M166.689 354.553H163.358V357.884H166.689V354.553Z" fill="white"/>
<path d="M155.381 360.282H152.05V363.613H155.381V360.282Z" fill="white"/>
<path d="M161.035 360.282H157.704V363.613H161.035V360.282Z" fill="white"/>
<path d="M166.689 360.282H163.358V363.613H166.689V360.282Z" fill="white"/>
<path d="M175.518 343.095H172.187V346.426H175.518V343.095Z" fill="white"/>
<path d="M175.518 348.824H172.187V352.155H175.518V348.824Z" fill="white"/>
<path d="M175.518 354.553H172.187V357.884H175.518V354.553Z" fill="white"/>
<path d="M175.518 360.282H172.187V363.613H175.518V360.282Z" fill="white"/>
<path d="M161.354 365.812H158.09V370.971H161.354V365.812Z" fill="white"/>
<path d="M185.278 370.971C185.278 371.115 174.936 371.231 162.182 371.231C149.423 371.231 139.084 371.114 139.084 370.971C139.084 370.828 149.424 370.711 162.182 370.711C174.937 370.711 185.278 370.827 185.278 370.971Z" fill="white"/>
<path d="M270.874 107.886H143.679C139.761 107.886 136.584 104.709 136.584 100.791V93.672C136.584 89.753 139.76 86.577 143.679 86.577H270.874C274.792 86.577 277.969 89.753 277.969 93.672V100.791C277.969 104.71 274.792 107.886 270.874 107.886Z" fill="#EBEBEB"/>
<path d="M267.04 95.839C267.008 95.84 267.011 95.577 266.885 95.135C266.76 94.702 266.459 94.071 265.804 93.589C265.171 93.106 264.137 92.839 263.14 93.214C262.151 93.558 261.299 94.611 261.31 95.838C261.299 97.066 262.151 98.119 263.14 98.463C264.137 98.838 265.172 98.571 265.804 98.088C266.458 97.606 266.76 96.975 266.885 96.542C267.011 96.102 267.008 95.838 267.04 95.839C267.051 95.839 267.059 95.904 267.064 96.029C267.071 96.154 267.059 96.34 267.011 96.575C266.92 97.037 266.637 97.729 265.947 98.276C265.282 98.824 264.15 99.152 263.035 98.752C261.93 98.388 260.964 97.215 260.977 95.838C260.964 94.462 261.931 93.289 263.035 92.925C264.149 92.526 265.281 92.853 265.947 93.401C266.636 93.949 266.92 94.641 267.011 95.103C267.06 95.337 267.071 95.524 267.064 95.649C267.059 95.774 267.051 95.839 267.04 95.839Z" fill="#263238"/>
<path d="M268.663 100.923C268.595 100.986 267.949 100.396 267.22 99.607C266.491 98.817 265.954 98.127 266.022 98.065C266.09 98.003 266.735 98.592 267.465 99.381C268.194 100.17 268.731 100.861 268.663 100.923Z" fill="#263238"/>
<path d="M150.1 96.163H148.796V95.691H151.941V96.163H150.637V99.493H150.1V96.163Z" fill="#263238"/>
<path d="M151.893 98.054C151.893 97.196 152.529 96.587 153.392 96.587C154.256 96.587 154.886 97.195 154.886 98.054C154.886 98.913 154.256 99.526 153.392 99.526C152.528 99.526 151.893 98.912 151.893 98.054ZM154.359 98.054C154.359 97.44 153.946 97.044 153.392 97.044C152.838 97.044 152.419 97.441 152.419 98.054C152.419 98.668 152.837 99.07 153.392 99.07C153.947 99.07 154.359 98.668 154.359 98.054Z" fill="#263238"/>
<path d="M155.364 96.957C155.364 96.74 155.533 96.587 155.733 96.587C155.929 96.587 156.091 96.739 156.091 96.957C156.091 97.174 155.928 97.332 155.733 97.332C155.533 97.331 155.364 97.174 155.364 96.957ZM155.364 99.151C155.364 98.934 155.533 98.782 155.733 98.782C155.929 98.782 156.091 98.934 156.091 99.151C156.091 99.368 155.928 99.526 155.733 99.526C155.533 99.526 155.364 99.368 155.364 99.151Z" fill="#263238"/>
<path d="M239.251 98.166C239.251 98.31 223.043 98.426 203.054 98.426C183.058 98.426 166.853 98.309 166.853 98.166C166.853 98.022 183.058 97.906 203.054 97.906C223.043 97.905 239.251 98.022 239.251 98.166Z" fill="#263238"/>
<path d="M270.874 136.527H143.679C139.761 136.527 136.584 133.351 136.584 129.432V122.313C136.584 118.395 139.76 115.218 143.679 115.218H270.874C274.792 115.218 277.969 118.394 277.969 122.313V129.432C277.969 133.351 274.792 136.527 270.874 136.527Z" fill="#EBEBEB"/>
<path d="M267.04 125.474C267.008 125.475 267.011 125.212 266.885 124.77C266.76 124.337 266.459 123.706 265.804 123.224C265.171 122.741 264.137 122.474 263.14 122.849C262.151 123.193 261.299 124.246 261.31 125.473C261.299 126.701 262.151 127.754 263.14 128.098C264.137 128.473 265.172 128.206 265.804 127.723C266.458 127.241 266.76 126.61 266.885 126.177C267.011 125.737 267.008 125.473 267.04 125.474C267.051 125.474 267.059 125.539 267.064 125.664C267.071 125.789 267.059 125.975 267.011 126.209C266.92 126.671 266.637 127.363 265.947 127.911C265.282 128.459 264.15 128.787 263.035 128.387C261.93 128.023 260.964 126.85 260.977 125.473C260.964 124.097 261.931 122.924 263.035 122.56C264.149 122.161 265.281 122.488 265.947 123.036C266.636 123.583 266.92 124.276 267.011 124.737C267.06 124.971 267.071 125.158 267.064 125.283C267.059 125.41 267.051 125.474 267.04 125.474Z" fill="#263238"/>
<path d="M268.663 130.558C268.595 130.621 267.949 130.031 267.22 129.242C266.491 128.452 265.954 127.762 266.022 127.7C266.09 127.638 266.735 128.227 267.465 129.016C268.194 129.805 268.731 130.496 268.663 130.558Z" fill="#263238"/>
<path d="M149.344 123.257H150.947C152.169 123.257 153 124.028 153 125.158C153 126.288 152.169 127.059 150.947 127.059H149.344V123.257ZM150.914 126.586C151.854 126.586 152.457 126.01 152.457 125.157C152.457 124.304 151.854 123.728 150.914 123.728H149.888V126.585L150.914 126.586Z" fill="#263238"/>
<path d="M156.038 125.321V127.059H155.543V126.679C155.369 126.94 155.049 127.092 154.598 127.092C153.946 127.092 153.533 126.744 153.533 126.244C153.533 125.782 153.832 125.402 154.69 125.402H155.516V125.298C155.516 124.858 155.261 124.603 154.745 124.603C154.403 124.603 154.055 124.723 153.832 124.913L153.615 124.522C153.914 124.283 154.343 124.152 154.805 124.152C155.592 124.153 156.038 124.533 156.038 125.321ZM155.516 126.179V125.777H154.712C154.196 125.777 154.049 125.978 154.049 126.222C154.049 126.51 154.288 126.689 154.685 126.689C155.076 126.689 155.386 126.51 155.516 126.179Z" fill="#263238"/>
<path d="M158.624 126.89C158.466 127.026 158.228 127.091 157.994 127.091C157.413 127.091 157.081 126.77 157.081 126.189V124.608H156.592V124.179H157.081V123.549H157.602V124.179H158.428V124.608H157.602V126.167C157.602 126.477 157.765 126.651 158.053 126.651C158.205 126.651 158.351 126.602 158.46 126.515L158.624 126.89Z" fill="#263238"/>
<path d="M161.748 125.793H159.412C159.477 126.298 159.885 126.635 160.455 126.635C160.792 126.635 161.075 126.521 161.286 126.287L161.574 126.624C161.313 126.928 160.917 127.091 160.439 127.091C159.51 127.091 158.891 126.477 158.891 125.619C158.891 124.766 159.505 124.152 160.336 124.152C161.167 124.152 161.759 124.75 161.759 125.635C161.758 125.679 161.753 125.745 161.748 125.793ZM159.412 125.418H161.259C161.204 124.935 160.841 124.592 160.335 124.592C159.836 124.593 159.466 124.93 159.412 125.418Z" fill="#263238"/>
<path d="M162.237 124.522C162.237 124.305 162.406 124.152 162.606 124.152C162.802 124.152 162.964 124.304 162.964 124.522C162.964 124.74 162.801 124.897 162.606 124.897C162.406 124.897 162.237 124.74 162.237 124.522ZM162.237 126.717C162.237 126.5 162.406 126.348 162.606 126.348C162.802 126.348 162.964 126.5 162.964 126.717C162.964 126.934 162.801 127.092 162.606 127.092C162.406 127.092 162.237 126.934 162.237 126.717Z" fill="#263238"/>
<path d="M180.754 125.802C180.754 125.946 178.615 126.062 175.976 126.062C173.337 126.062 171.197 125.945 171.197 125.802C171.197 125.659 173.336 125.542 175.976 125.542C178.614 125.542 180.754 125.658 180.754 125.802Z" fill="#263238"/>
<path d="M217.242 125.873C217.242 126.017 210.37 126.133 201.894 126.133C193.416 126.133 186.545 126.016 186.545 125.873C186.545 125.729 193.416 125.613 201.894 125.613C210.37 125.612 217.242 125.729 217.242 125.873Z" fill="#263238"/>
<path d="M52.258 405.966C52.991 403.125 51.128 400.273 49.04 398.212C46.952 396.151 44.456 394.304 43.369 391.579C41.609 387.164 43.975 381.447 40.972 377.763C39.205 375.596 36.037 374.871 34.469 372.556C33.647 371.342 33.38 369.849 33.057 368.419C31.409 361.122 27.756 354.288 22.606 348.863C22.248 355.361 23.681 361.949 26.706 367.711C27.922 370.027 29.416 372.285 29.819 374.87C30.473 379.067 28.131 383.391 29.162 387.512C30.341 392.225 35.635 395.38 35.887 400.232C36.099 404.334 32.524 407.934 32.791 412.033C32.905 413.778 33.715 415.399 34.616 416.897C37.788 422.17 42.446 425.801 49.509 425.683L58.159 425.986L52.258 405.966Z" fill="#FF9E22"/>
<g opacity="0.3">
<path d="M52.258 405.966C52.991 403.125 51.128 400.273 49.04 398.212C46.952 396.151 44.456 394.304 43.369 391.579C41.609 387.164 43.975 381.447 40.972 377.763C39.205 375.596 36.037 374.871 34.469 372.556C33.647 371.342 33.38 369.849 33.057 368.419C31.409 361.122 27.756 354.288 22.606 348.863C22.248 355.361 23.681 361.949 26.706 367.711C27.922 370.027 29.416 372.285 29.819 374.87C30.473 379.067 28.131 383.391 29.162 387.512C30.341 392.225 35.635 395.38 35.887 400.232C36.099 404.334 32.524 407.934 32.791 412.033C32.905 413.778 33.715 415.399 34.616 416.897C37.788 422.17 42.446 425.801 49.509 425.683L58.159 425.986L52.258 405.966Z" fill="black"/>
</g>
<path d="M59.911 426.212C59.911 426.212 60.736 426.404 62.293 426.16C63.068 426.047 64.022 425.841 65.104 425.453C66.179 425.06 67.403 424.5 68.575 423.552C69.138 423.06 69.7 422.453 70.003 421.649C70.301 420.848 70.355 419.968 70.41 419.065C70.456 418.161 70.457 417.219 70.612 416.267C70.758 415.315 71.132 414.379 71.669 413.485C72.689 411.693 74.382 409.998 74.929 407.565C75.521 405.172 75.096 402.583 74.694 399.983C74.292 397.389 73.903 394.56 74.896 391.857C75.824 389.152 77.721 386.71 78.669 383.66C79.613 380.58 79.173 377.267 79.373 373.999C79.464 372.358 79.781 370.717 80.5 369.196C81.2 367.665 82.171 366.221 82.928 364.609C84.463 361.35 84.734 357.657 85.154 354.038C85.359 352.214 85.565 350.372 85.774 348.511C85.98 346.641 86.146 344.779 86.735 342.979C87.268 341.166 88.04 339.413 88.804 337.626C89.178 336.727 89.574 335.828 89.808 334.83C89.977 333.811 90.026 332.856 90.087 331.855C90.184 329.872 90.102 327.862 89.857 325.868C89.622 323.872 89.262 321.893 89.047 319.892C89.034 319.774 89.02 319.656 89.008 319.547L88.963 319.149L88.609 319.326C86.757 320.254 85.171 321.635 83.953 323.256C82.714 324.866 81.812 326.682 81.092 328.528C79.647 332.244 79.127 336.139 78.399 339.855C77.688 343.571 76.75 347.227 74.845 350.316C73.897 351.856 72.75 353.263 71.747 354.765C70.746 356.257 69.865 357.896 69.601 359.695C69.089 363.354 71.105 366.568 70.685 369.808C70.536 371.418 69.895 372.923 69.107 374.297C68.322 375.679 67.398 376.96 66.523 378.249C65.648 379.537 64.815 380.843 64.201 382.24C63.577 383.632 63.233 385.12 63.138 386.576C62.927 389.493 63.341 392.26 63.128 394.873C62.952 397.49 62.034 399.862 60.993 401.982C59.947 404.11 58.783 406.034 57.808 407.901C57.317 408.833 56.865 409.743 56.497 410.658C56.107 411.57 55.915 412.504 55.738 413.392C55.454 415.186 55.482 416.856 55.674 418.329C56.05 421.292 57.155 423.425 58.149 424.625C58.377 424.945 58.641 425.171 58.849 425.383C59.052 425.602 59.253 425.75 59.417 425.865C59.738 426.103 59.911 426.212 59.911 426.212C59.949 426.168 59.199 425.771 58.236 424.556C57.284 423.35 56.227 421.233 55.888 418.302C55.714 416.846 55.704 415.197 55.998 413.436C56.18 412.566 56.376 411.65 56.763 410.766C57.131 409.873 57.588 408.968 58.082 408.046C59.065 406.197 60.241 404.28 61.31 402.138C62.371 400.007 63.325 397.588 63.519 394.904C63.746 392.236 63.345 389.459 63.565 386.611C63.664 385.186 63.999 383.767 64.608 382.42C65.207 381.068 66.029 379.787 66.904 378.509C67.779 377.229 68.713 375.943 69.521 374.532C70.329 373.131 71.008 371.564 71.172 369.859C71.589 366.408 69.588 363.173 70.108 359.772C70.358 358.089 71.194 356.522 72.182 355.057C73.169 353.582 74.323 352.174 75.299 350.595C77.265 347.417 78.217 343.691 78.936 339.96C79.671 336.221 80.192 332.367 81.611 328.727C82.317 326.918 83.2 325.147 84.397 323.593C85.575 322.027 87.093 320.71 88.857 319.825L88.458 319.604C88.47 319.714 88.484 319.833 88.497 319.953C88.714 321.977 89.076 323.96 89.308 325.933C89.551 327.905 89.632 329.875 89.537 331.829C89.481 332.793 89.422 333.805 89.271 334.715C89.06 335.625 88.672 336.522 88.3 337.412C87.541 339.192 86.758 340.972 86.215 342.824C85.614 344.667 85.442 346.6 85.241 348.447C85.035 350.309 84.83 352.153 84.627 353.978C84.214 357.613 83.943 361.246 82.464 364.392C81.734 365.958 80.764 367.406 80.044 368.987C79.301 370.565 78.971 372.299 78.885 373.967C78.697 377.305 79.131 380.568 78.228 383.525C77.331 386.468 75.444 388.923 74.491 391.714C73.47 394.534 73.893 397.455 74.306 400.041C74.724 402.645 75.143 405.18 74.586 407.48C74.086 409.803 72.442 411.484 71.401 413.326C70.859 414.24 70.471 415.23 70.328 416.219C70.176 417.204 70.185 418.154 70.146 419.051C70.101 419.942 70.05 420.816 69.777 421.565C69.506 422.312 68.976 422.902 68.435 423.385C67.306 424.319 66.104 424.892 65.047 425.296C63.983 425.697 63.041 425.918 62.276 426.048C61.51 426.187 60.915 426.207 60.517 426.218C60.118 426.205 59.911 426.212 59.911 426.212Z" fill="#263238"/>
<path d="M87.241 324.312C87.232 324.31 87.203 324.399 87.157 324.573C87.106 324.78 87.044 325.036 86.966 325.352C86.796 326.033 86.593 327.062 86.267 328.347C85.927 329.628 85.143 331.078 84.472 332.865C83.774 334.637 83.067 336.692 82.416 339C81.756 341.306 81.171 343.868 80.56 346.612C79.929 349.351 79.3 352.289 77.791 355.059C77.082 356.464 76.284 357.886 75.65 359.442C75 360.998 74.65 362.698 74.404 364.405C73.989 367.832 73.36 371.311 72.539 374.869C70.805 381.958 69.153 388.709 67.648 394.856C66.107 400.982 64.719 406.503 63.549 411.157C62.41 415.769 61.485 419.516 60.832 422.158C60.531 423.426 60.294 424.428 60.121 425.156C60.051 425.473 59.995 425.731 59.95 425.939C59.914 426.116 59.901 426.208 59.91 426.211C59.919 426.213 59.951 426.126 60.005 425.953C60.065 425.748 60.139 425.496 60.23 425.184C60.427 424.462 60.699 423.469 61.042 422.212C61.736 419.58 62.719 415.847 63.93 411.254C65.133 406.608 66.561 401.098 68.145 394.983C69.663 388.834 71.331 382.081 73.082 374.991C73.903 371.436 74.538 367.893 74.943 364.484C75.183 362.789 75.518 361.15 76.142 359.64C76.753 358.124 77.539 356.709 78.248 355.289C79.77 352.466 80.403 349.439 81.009 346.711C81.601 343.96 82.161 341.405 82.793 339.104C83.417 336.801 84.094 334.749 84.76 332.975C85.396 331.194 86.156 329.727 86.474 328.402C86.774 327.086 86.939 326.067 87.074 325.374C87.129 325.054 87.174 324.794 87.211 324.584C87.241 324.407 87.25 324.314 87.241 324.312Z" fill="#263238"/>
<path d="M61.437 426.239C67.087 422.881 68.708 412.687 66.352 406.552C63.995 400.417 59.87 394.811 59.234 388.269C58.745 383.24 60.392 378.079 59.221 373.165C57.641 366.532 51.165 361.394 51.239 354.576C51.281 350.75 53.457 347.151 53.284 343.329C53.072 338.641 49.473 334.922 47.245 330.792C43.834 324.471 43.609 316.997 42.443 309.91C41.277 302.823 38.576 295.232 32.294 291.749C31.366 297.766 29.783 301.887 30.28 310.039C30.459 312.966 33.859 318.571 34.322 324.987C34.599 328.822 34.79 332.662 35.024 336.5C35.252 340.234 35.494 344.037 36.833 347.531C37.859 350.208 39.507 352.64 40.269 355.405C41.702 360.605 39.819 366.238 40.976 371.506C41.956 375.97 45.045 379.811 45.677 384.338C46.564 390.698 42.448 397.305 44.555 403.371C45.601 406.381 48.077 408.798 48.779 411.906C49.324 414.317 48.73 416.87 49.224 419.293C50.019 423.196 57.464 426.227 61.439 425.986" fill="#FF9E22"/>
<path d="M33.851 297.722C33.842 297.723 33.85 297.839 33.876 298.062C33.908 298.315 33.951 298.641 34.003 299.051C34.133 299.92 34.278 301.196 34.572 302.846C34.888 304.506 35.743 306.373 36.426 308.626C37.147 310.872 37.864 313.462 38.498 316.363C39.143 319.262 39.682 322.47 40.248 325.923C40.833 329.35 41.432 333.138 43.144 336.733C43.937 338.539 44.826 340.347 45.493 342.273C46.177 344.192 46.492 346.256 46.685 348.378C46.977 352.64 47.544 357.073 48.342 361.539C50.072 370.455 51.72 378.947 53.22 386.676C54.801 394.375 56.226 401.311 57.425 407.15C58.636 412.947 59.619 417.65 60.307 420.944C60.653 422.542 60.925 423.796 61.118 424.689C61.211 425.092 61.285 425.412 61.343 425.66C61.396 425.878 61.429 425.989 61.438 425.987C61.447 425.985 61.434 425.871 61.399 425.649C61.355 425.398 61.299 425.074 61.228 424.667C61.059 423.77 60.821 422.508 60.519 420.902C59.872 417.6 58.948 412.885 57.81 407.073C56.644 401.227 55.259 394.283 53.722 386.575C52.236 378.848 50.603 370.358 48.889 361.446C48.092 356.975 47.528 352.607 47.226 348.328C47.029 346.194 46.701 344.068 45.994 342.101C45.306 340.134 44.405 338.319 43.612 336.528C41.909 332.986 41.311 329.288 40.702 325.848C40.117 322.401 39.553 319.184 38.881 316.279C38.22 313.372 37.473 310.777 36.721 308.532C36.003 306.272 35.122 304.42 34.783 302.803C34.461 301.183 34.278 299.894 34.113 299.036C34.038 298.63 33.978 298.307 33.931 298.056C33.888 297.833 33.86 297.721 33.851 297.722Z" fill="#263238"/>
</svg>
