<svg width="16" height="16" viewBox="0 0 16 16" fill="none" xmlns="http://www.w3.org/2000/svg">
<path d="M5 0.75H11C11.6904 0.75 12.25 1.30964 12.25 2V10.25H3.75V2C3.75 1.30964 4.30964 0.75 5 0.75Z" stroke="#FF9103" stroke-width="1.5"/>
<path d="M3 10.4999C3 9.39989 3.9 9.49992 5 9.49992H11C12.1 9.49992 13 9.40002 13 10.5V13.9999C13 15.0999 12.1 15.9999 11 15.9999H5C3.9 15.9999 3 15.0999 3 13.9999V10.4999ZM9 12.9999C9 12.3999 8.6 11.9999 8 11.9999C7.4 11.9999 7 12.3999 7 12.9999C7 13.5999 7.4 13.9999 8 13.9999C8.6 13.9999 9 13.5999 9 12.9999Z" fill="#FF9103"/>
<path d="M4.50003 8.5C4.50001 9.3 4.94356 9.5 5.38887 9.5H10.7219C11.4165 9.5 11.6107 9 11.6107 8.5C11.6107 8 11.6116 3.5 11.6107 2.5C11.6099 1.5 11.4388 1.5 10.7219 1.5H5.38887C4.94356 1.5 4.50003 2 4.50003 2.5V8.5Z" stroke="black"/>
</svg>
