<svg width="500" height="400" viewBox="0 0 500 400" fill="none" xmlns="http://www.w3.org/2000/svg">
<path d="M151.374 283.485L151.373 281.109C154.504 281.107 157.656 280.962 160.744 280.676L160.961 283.042C157.803 283.334 154.577 283.482 151.374 283.485ZM141.789 283.053C138.615 282.764 135.416 282.325 132.28 281.745L132.711 279.409C135.776 279.976 138.903 280.405 142.003 280.687L141.789 283.053ZM170.47 281.726L170.033 279.39C173.105 278.817 176.178 278.095 179.165 277.246L179.814 279.53C176.758 280.4 173.614 281.139 170.47 281.726ZM122.932 279.562C119.867 278.694 116.803 277.671 113.827 276.518L114.683 274.303C117.591 275.429 120.584 276.429 123.579 277.277L122.932 279.562ZM188.917 276.476L188.057 274.261C190.958 273.136 193.843 271.857 196.633 270.467L197.694 272.591C194.838 274.017 191.886 275.324 188.917 276.476ZM105.042 272.644C102.189 271.223 99.3676 269.65 96.6552 267.971L97.9054 265.951C100.557 267.592 103.314 269.128 106.101 270.517L105.042 272.644ZM206.074 267.909L204.822 265.892C207.467 264.25 210.069 262.462 212.554 260.582L213.987 262.476C211.444 264.4 208.782 266.227 206.074 267.909ZM88.7352 262.543C86.189 260.621 83.7029 258.558 81.3473 256.412L82.9467 254.657C85.2487 256.754 87.6779 258.769 90.1662 260.648L88.7352 262.543ZM221.369 256.338L219.768 254.582C222.067 252.487 224.297 250.254 226.4 247.947L228.155 249.548C226.004 251.907 223.721 254.191 221.369 256.338ZM74.5528 249.63C72.3991 247.273 70.3324 244.792 68.4096 242.251L70.3034 240.818C72.1827 243.3 74.2026 245.725 76.3061 248.027L74.5528 249.63ZM234.291 242.162L232.396 240.729C234.275 238.245 236.061 235.641 237.704 232.993L239.721 234.245C238.04 236.955 236.213 239.618 234.291 242.162ZM62.9712 234.344C61.2849 231.632 59.7089 228.813 58.2858 225.965L60.4105 224.902C61.8013 227.685 63.3415 230.439 64.9889 233.088L62.9712 234.344ZM244.4 225.86L242.274 224.801C243.667 222.007 244.943 219.119 246.066 216.22L248.281 217.078C247.131 220.045 245.825 223 244.4 225.86ZM54.3955 217.19C53.24 214.219 52.2106 211.157 51.3373 208.09L53.6204 207.439C54.4747 210.435 55.4807 213.427 56.6094 216.329L54.3955 217.19ZM251.328 207.974L249.043 207.326C249.893 204.329 250.612 201.256 251.181 198.194L253.517 198.627C252.936 201.762 252.198 204.907 251.328 207.974ZM49.1367 198.746C48.5512 195.616 48.1062 192.418 47.8117 189.24L50.1762 189.02C50.464 192.126 50.899 195.25 51.4711 198.31L49.1367 198.746ZM254.832 189.119L252.466 188.903C252.749 185.807 252.892 182.654 252.892 179.533L252.891 179.296H255.267V179.524C255.268 182.726 255.12 185.952 254.832 189.119ZM47.3645 179.651V179.533C47.3645 176.375 47.5073 173.189 47.7906 170.065L50.1562 170.279C49.8796 173.332 49.7401 176.445 49.7401 179.532L47.3645 179.651ZM252.444 169.928C252.153 166.823 251.713 163.698 251.139 160.641L253.473 160.201C254.062 163.331 254.512 166.528 254.808 169.707L252.444 169.928ZM51.4287 160.989L49.0933 160.557C49.6721 157.423 50.4038 154.278 51.2715 151.208L53.5579 151.854C52.7091 154.853 51.9942 157.926 51.4287 160.989ZM248.98 151.515C248.121 148.518 247.111 145.528 245.98 142.628L248.193 141.765C249.351 144.733 250.384 147.793 251.263 150.861L248.98 151.515ZM56.5247 142.957L54.3096 142.102C55.4562 139.13 56.7589 136.174 58.1798 133.314L60.3067 134.371C58.9181 137.164 57.6456 140.054 56.5247 142.957ZM242.169 134.059C240.775 131.279 239.232 128.526 237.581 125.878L239.596 124.622C241.285 127.331 242.864 130.149 244.292 132.995L242.169 134.059ZM64.8684 126.173L62.8485 124.923C64.526 122.211 66.3496 119.545 68.2701 117L70.1662 118.43C68.2902 120.918 66.5068 123.524 64.8684 126.173ZM232.257 118.156C230.374 115.674 228.35 113.25 226.247 110.953L227.998 109.349C230.152 111.701 232.222 114.181 234.149 116.719L232.257 118.156ZM76.1544 111.207L74.3977 109.609C76.5436 107.25 78.8245 104.963 81.1767 102.811L82.7794 104.563C80.4796 106.667 78.2512 108.902 76.1544 111.207ZM219.599 104.331C217.291 102.234 214.859 100.221 212.371 98.3475L213.8 96.4504C216.346 98.3676 218.835 100.429 221.196 102.573L219.599 104.331ZM89.9844 98.5572L88.549 96.6645C91.0908 94.7361 93.7509 92.9048 96.4566 91.2217L97.7114 93.2382C95.0669 94.8822 92.4682 96.6723 89.9844 98.5572ZM204.626 93.0542C201.976 91.4169 199.217 89.8833 196.425 88.497L197.482 86.3701C200.338 87.7888 203.162 89.3569 205.874 91.0332L204.626 93.0542ZM105.893 88.6531L104.83 86.5296C107.683 85.0997 110.636 83.7892 113.603 82.6348L114.465 84.8477C111.566 85.9764 108.682 87.2568 105.893 88.6531ZM187.839 84.7216C184.934 83.6018 181.941 82.6047 178.939 81.7582L179.584 79.4729C182.656 80.3395 185.721 81.3589 188.693 82.5055L187.839 84.7216ZM123.354 81.8541L122.701 79.571C125.765 78.6955 128.908 77.9538 132.044 77.366L132.482 79.7004C129.418 80.2737 126.347 80.9987 123.354 81.8541ZM169.804 79.6346C166.745 79.0725 163.618 78.6464 160.511 78.3676L160.723 76.002C163.904 76.2875 167.104 76.7247 170.233 77.3003L169.804 79.6346ZM141.77 78.4L141.549 76.0355C144.714 75.7399 147.94 75.5882 151.137 75.5826L151.14 77.9583C148.016 77.9627 144.864 78.1122 141.77 78.4Z" fill="#F2DCB8"/>
<path d="M313.812 327.781C310.63 327.679 307.415 327.468 304.259 327.157L304.491 324.794C307.598 325.101 310.758 325.307 313.889 325.409L313.812 327.781ZM323.389 327.775L323.31 325.402C326.439 325.297 329.601 325.087 332.707 324.776L332.943 327.14C329.785 327.455 326.57 327.671 323.389 327.775ZM294.766 325.898C291.627 325.375 288.469 324.739 285.376 324.007L285.924 321.697C288.963 322.416 292.069 323.042 295.155 323.556L294.766 325.898ZM342.435 325.87L342.041 323.528C345.132 323.009 348.238 322.378 351.271 321.658L351.821 323.968C348.735 324.702 345.577 325.342 342.435 325.87ZM276.137 321.488C273.091 320.548 270.042 319.491 267.071 318.349L267.924 316.131C270.844 317.256 273.843 318.294 276.837 319.22L276.137 321.488ZM361.061 321.438L360.356 319.17C363.339 318.243 366.333 317.202 369.252 316.077L370.107 318.292C367.138 319.437 364.094 320.496 361.061 321.438ZM258.241 314.607C255.355 313.267 252.476 311.812 249.684 310.28L250.825 308.198C253.571 309.705 256.403 311.136 259.24 312.452L258.241 314.607ZM378.908 314.551L377.907 312.398C380.734 311.083 383.558 309.652 386.3 308.146L387.444 310.227C384.655 311.759 381.783 313.215 378.908 314.551ZM241.44 305.394C238.764 303.683 236.106 301.859 233.541 299.968L234.95 298.056C237.473 299.916 240.087 301.71 242.718 303.392L241.44 305.394ZM395.671 305.343L394.391 303.341C397.018 301.661 399.627 299.867 402.148 298.005L403.559 299.917C400.996 301.808 398.343 303.634 395.671 305.343ZM226.024 294.028C223.595 291.973 221.202 289.812 218.917 287.603L220.568 285.895C222.816 288.068 225.167 290.193 227.557 292.213L226.024 294.028ZM411.067 293.977L409.534 292.163C411.918 290.147 414.268 288.02 416.518 285.843L418.17 287.55C415.881 289.763 413.492 291.926 411.067 293.977ZM212.254 280.724C210.123 278.371 208.039 275.913 206.064 273.418L207.927 271.942C209.87 274.396 211.918 276.814 214.015 279.128L212.254 280.724ZM424.83 280.666L423.071 279.073C425.167 276.756 427.214 274.336 429.157 271.88L431.019 273.353C429.044 275.851 426.962 278.311 424.83 280.666ZM200.375 265.719C198.574 263.102 196.836 260.391 195.212 257.658L197.253 256.445C198.85 259.131 200.559 261.798 202.331 264.37L200.375 265.719ZM436.71 265.643L434.752 264.298C436.528 261.716 438.237 259.044 439.832 256.357L441.875 257.57C440.251 260.302 438.514 263.019 436.71 265.643ZM190.599 249.273C189.161 246.441 187.802 243.523 186.559 240.602L188.745 239.671C189.968 242.545 191.304 245.413 192.717 248.199L190.599 249.273ZM446.488 249.166L444.368 248.094C445.782 245.302 447.118 242.424 448.342 239.543L450.529 240.471C449.284 243.401 447.924 246.328 446.488 249.166ZM183.112 231.681C182.069 228.685 181.111 225.608 180.267 222.536L182.557 221.907C183.387 224.929 184.329 227.955 185.355 230.899L183.112 231.681ZM453.975 231.522L451.732 230.742C452.757 227.785 453.695 224.758 454.518 221.746L456.81 222.373C455.971 225.437 455.019 228.515 453.975 231.522ZM178.046 213.219C177.412 210.103 176.877 206.927 176.453 203.776L178.808 203.459C179.224 206.557 179.75 209.681 180.374 212.746L178.046 213.219ZM459.02 213.053L456.691 212.582C457.311 209.515 457.834 206.39 458.246 203.294L460.6 203.607C460.182 206.756 459.65 209.935 459.02 213.053ZM175.495 194.249C175.283 191.086 175.174 187.865 175.17 184.677L177.545 184.675C177.549 187.81 177.656 190.979 177.864 194.089L175.495 194.249ZM461.548 194.079L459.178 193.924C459.383 190.805 459.488 187.637 459.488 184.511V184.181H461.864V184.511C461.863 187.688 461.757 190.908 461.548 194.079ZM177.844 175.26L175.474 175.108C175.68 171.926 175.995 168.719 176.411 165.577L178.765 165.888C178.356 168.977 178.046 172.131 177.844 175.26ZM459.155 174.767C458.943 171.644 458.621 168.491 458.202 165.399L460.557 165.08C460.983 168.225 461.308 171.43 461.525 174.606L459.155 174.767ZM180.307 156.598L177.978 156.13C178.605 153.01 179.344 149.873 180.178 146.808L182.47 147.432C181.651 150.445 180.922 153.529 180.307 156.598ZM456.627 156.115C456 153.055 455.262 149.974 454.43 146.956L456.72 146.324C457.565 149.393 458.317 152.527 458.954 155.637L456.627 156.115ZM185.247 138.432L183.001 137.656C184.041 134.651 185.196 131.639 186.439 128.702L188.626 129.628C187.406 132.516 186.268 135.478 185.247 138.432ZM451.623 137.966C450.594 135.023 449.449 132.073 448.222 129.199L450.407 128.266C451.655 131.188 452.818 134.189 453.866 137.182L451.623 137.966ZM192.591 121.072L190.471 120.002C191.903 117.164 193.452 114.335 195.075 111.594L197.118 112.804C195.523 115.499 194 118.282 192.591 121.072ZM444.24 120.676C442.825 117.896 441.296 115.123 439.694 112.436L441.735 111.22C443.364 113.952 444.919 116.772 446.358 119.599L444.24 120.676ZM202.188 104.858L200.23 103.514C202.028 100.893 203.938 98.2973 205.911 95.7979L207.776 97.269C205.835 99.7272 203.956 102.28 202.188 104.858ZM434.611 104.515C432.827 101.934 430.94 99.3892 429.004 96.9489L430.864 95.4722C432.834 97.9527 434.75 100.541 436.564 103.165L434.611 104.515ZM213.853 90.0696L212.09 88.4769C214.225 86.1124 216.463 83.7948 218.742 81.5853L220.395 83.2895C218.154 85.4633 215.953 87.7441 213.853 90.0696ZM422.909 89.7707C420.81 87.4586 418.601 85.1845 416.347 83.0118L417.997 81.3009C420.289 83.5104 422.534 85.8224 424.668 88.1735L422.909 89.7707ZM227.371 76.9623L225.834 75.151C228.259 73.0944 230.784 71.0935 233.338 69.2041L234.751 71.1136C232.24 72.9717 229.756 74.9402 227.371 76.9623ZM409.352 76.7013C406.955 74.6804 404.464 72.7185 401.95 70.8693L403.357 68.9554C405.913 70.8358 408.445 72.8311 410.883 74.8856L409.352 76.7013ZM242.502 65.7678L241.219 63.768C243.899 62.0493 246.665 60.402 249.445 58.8729L250.59 60.9529C247.857 62.4575 245.136 64.077 242.502 65.7678ZM394.178 65.5403C391.536 63.8572 388.807 62.2434 386.063 60.7433L387.202 58.6587C389.991 60.1834 392.767 61.8251 395.453 63.5371L394.178 65.5403ZM258.977 56.6913L257.972 54.5387C260.854 53.1936 263.816 51.9311 266.771 50.7879L267.63 53.0029C264.723 54.1283 261.812 55.3685 258.977 56.6913ZM377.644 56.4994C374.795 55.1822 371.873 53.9476 368.957 52.83L369.808 50.6128C372.773 51.7493 375.744 53.0051 378.643 54.3435L377.644 56.4994ZM276.521 49.8989L275.814 47.6315C278.848 46.6857 281.955 45.8314 285.049 45.0908L285.601 47.4006C282.559 48.1289 279.504 48.9699 276.521 49.8989ZM360.04 49.7528C357.06 48.8349 354.001 48.0051 350.95 47.2869L351.496 44.9759C354.599 45.7064 357.708 46.5508 360.739 47.4843L360.04 49.7528ZM294.83 45.5202L294.433 43.1791C297.566 42.6493 300.758 42.2177 303.925 41.8976L304.164 44.261C301.05 44.5755 297.911 44.9993 294.83 45.5202ZM341.715 45.4376C338.636 44.9279 335.495 44.5153 332.377 44.2108L332.609 41.8474C335.779 42.1575 338.973 42.5768 342.102 43.0944L341.715 45.4376ZM313.558 43.6241L313.476 41.2496C316.661 41.1392 319.883 41.1336 323.054 41.2329L322.979 43.6063C319.863 43.5104 316.694 43.5148 313.558 43.6241Z" fill="#F2DCB8"/>
<path d="M424.54 366.842C422.949 366.842 421.336 366.784 419.745 366.668L419.916 364.3C423.029 364.523 426.187 364.521 429.301 364.29L429.477 366.658C427.84 366.779 426.179 366.842 424.54 366.842ZM410.11 365.239C406.95 364.524 403.816 363.563 400.793 362.382L401.658 360.169C404.571 361.309 407.591 362.234 410.635 362.923L410.11 365.239ZM439.106 365.208L438.577 362.892C441.618 362.198 444.634 361.265 447.541 360.122L448.411 362.333C445.394 363.519 442.263 364.489 439.106 365.208ZM392.012 358.158C389.21 356.542 386.502 354.696 383.963 352.675L385.443 350.817C387.89 352.765 390.5 354.543 393.201 356.101L392.012 358.158ZM457.172 358.098L455.981 356.042C458.681 354.478 461.285 352.697 463.725 350.747L465.207 352.603C462.677 354.627 459.972 356.475 457.172 358.098ZM376.819 346.061C374.61 343.69 372.563 341.134 370.732 338.461L372.691 337.118C374.456 339.694 376.428 342.157 378.557 344.443L376.819 346.061ZM472.341 345.975L470.599 344.36C472.725 342.068 474.694 339.6 476.453 337.024L478.416 338.362C476.59 341.037 474.545 343.597 472.341 345.975ZM365.843 330.045C364.426 327.122 363.223 324.074 362.267 320.986L364.536 320.284C365.457 323.257 366.616 326.194 367.979 329.009L365.843 330.045ZM483.291 329.93L481.153 328.899C482.511 326.083 483.663 323.143 484.582 320.161L486.853 320.859C485.898 323.955 484.7 327.008 483.291 329.93ZM360.091 311.495C359.607 308.304 359.36 305.037 359.354 301.788L361.73 301.784C361.735 304.918 361.974 308.065 362.439 311.14L360.091 311.495ZM489.008 311.363L486.658 311.013C487.118 307.934 487.351 304.785 487.351 301.654L487.35 301.393H489.726L489.727 301.638C489.727 304.902 489.486 308.168 489.008 311.363ZM362.401 292.423L360.051 292.077C360.523 288.866 361.242 285.67 362.188 282.577L364.459 283.271C363.549 286.251 362.857 289.33 362.401 292.423ZM486.621 292.041C486.147 288.954 485.434 285.879 484.505 282.903L486.771 282.195C487.737 285.285 488.476 288.477 488.968 291.682L486.621 292.041ZM367.872 274.525L365.732 273.498C367.13 270.582 368.765 267.74 370.59 265.055L372.555 266.391C370.795 268.978 369.22 271.715 367.872 274.525ZM481.042 274.184C479.678 271.385 478.088 268.659 476.316 266.083L478.273 264.738C480.112 267.411 481.762 270.239 483.178 273.146L481.042 274.184ZM378.392 259.042L376.647 257.431C378.846 255.051 381.241 252.816 383.768 250.789L385.254 252.643C382.82 254.596 380.511 256.749 378.392 259.042ZM470.436 258.774C468.302 256.492 465.98 254.35 463.537 252.412L465.012 250.551C467.549 252.562 469.958 254.783 472.172 257.153L470.436 258.774ZM392.987 247.331L391.792 245.278C394.591 243.65 397.535 242.219 400.547 241.027L401.421 243.235C398.52 244.385 395.683 245.762 392.987 247.331ZM455.767 247.143C453.056 245.586 450.206 244.224 447.3 243.093L448.161 240.88C451.179 242.053 454.136 243.468 456.951 245.083L455.767 247.143ZM410.377 240.445L409.844 238.13C412.996 237.404 416.235 236.91 419.47 236.66L419.653 239.028C416.535 239.27 413.413 239.747 410.377 240.445ZM438.318 240.358C435.279 239.679 432.155 239.222 429.035 239L429.203 236.632C432.44 236.861 435.683 237.335 438.838 238.041L438.318 240.358Z" fill="#F2DCB8"/>
<path d="M79.758 367.194C78.1686 367.194 76.5559 367.136 74.9632 367.02L75.135 364.652C78.2534 364.877 81.4075 364.873 84.5204 364.642L84.6966 367.01C83.0582 367.132 81.3964 367.194 79.758 367.194ZM65.3313 365.592C62.1682 364.877 59.0341 363.915 56.0138 362.734L56.8793 360.521C59.7892 361.66 62.8084 362.587 65.8543 363.275L65.3313 365.592ZM94.3263 365.561L93.7977 363.246C96.8414 362.55 99.8572 361.619 102.76 360.474L103.631 362.685C100.616 363.872 97.4861 364.84 94.3263 365.561ZM47.2329 358.512C44.4278 356.893 41.7187 355.048 39.1825 353.029L40.6625 351.17C43.1062 353.118 45.7172 354.896 48.4196 356.455L47.2329 358.512ZM112.392 358.449L111.201 356.393C113.9 354.829 116.506 353.048 118.944 351.098L120.427 352.954C117.896 354.977 115.193 356.825 112.392 358.449ZM32.0366 346.415C29.826 344.04 27.7783 341.484 25.9503 338.815L27.9099 337.472C29.671 340.044 31.644 342.508 33.7754 344.796L32.0366 346.415ZM127.561 346.328L125.819 344.714C127.944 342.421 129.914 339.953 131.673 337.377L133.634 338.716C131.809 341.388 129.766 343.95 127.561 346.328ZM21.0629 330.4C19.6487 327.483 18.4464 324.435 17.4861 321.341L19.7546 320.638C20.6792 323.619 21.8381 326.554 23.1999 329.364L21.0629 330.4ZM138.51 330.283L136.37 329.251C137.727 326.436 138.88 323.496 139.799 320.514L142.069 321.212C141.116 324.308 139.919 327.361 138.51 330.283ZM15.3101 311.847C14.8271 308.659 14.5784 305.393 14.5717 302.14L16.9474 302.135C16.954 305.272 17.1927 308.419 17.6589 311.492L15.3101 311.847ZM144.227 311.715L141.877 311.365C142.337 308.288 142.57 305.14 142.57 302.007L142.569 301.754L144.944 301.737L144.945 301.998C144.945 305.257 144.703 308.524 144.227 311.715ZM17.6199 292.775L15.2699 292.43C15.7417 289.221 16.4611 286.024 17.4069 282.929L19.6788 283.623C18.7676 286.605 18.0749 289.685 17.6199 292.775ZM141.839 292.393C141.366 289.307 140.654 286.232 139.723 283.254L141.991 282.547C142.957 285.637 143.695 288.829 144.186 292.034L141.839 292.393ZM23.0906 274.879L20.948 273.852C22.3489 270.932 23.9839 268.091 25.8064 265.409L27.7716 266.745C26.0149 269.329 24.439 272.066 23.0906 274.879ZM136.26 274.535C134.896 271.735 133.306 269.009 131.534 266.436L133.49 265.089C135.329 267.761 136.979 270.589 138.395 273.497L136.26 274.535ZM33.6103 259.396L31.8659 257.784C34.062 255.406 36.4577 253.172 38.9851 251.143L40.4718 252.994C38.0359 254.951 35.7283 257.105 33.6103 259.396ZM125.655 259.125C123.52 256.842 121.198 254.702 118.754 252.762L120.231 250.902C122.766 252.913 125.175 255.133 127.39 257.503L125.655 259.125ZM48.2043 247.684L47.0098 245.631C49.8149 243.998 52.7604 242.567 55.7629 241.379L56.6373 243.587C53.7441 244.733 50.9068 246.11 48.2043 247.684ZM110.986 247.494C108.273 245.937 105.424 244.574 102.52 243.445L103.381 241.232C106.396 242.404 109.353 243.818 112.169 245.434L110.986 247.494ZM65.5956 240.798L65.0625 238.483C68.2144 237.756 71.4522 237.262 74.6877 237.014L74.8695 239.381C71.7522 239.621 68.6315 240.099 65.5956 240.798ZM93.5367 240.711C90.4952 240.032 87.3723 239.574 84.2527 239.352L84.4211 236.985C87.6578 237.213 90.899 237.687 94.0553 238.393L93.5367 240.711Z" fill="#F2DCB8"/>
<path d="M400.031 342.678C400.031 348.557 395.221 353.367 389.343 353.367H102.368C96.489 353.367 91.6797 348.557 91.6797 342.678V164.533C91.6797 158.654 96.4901 153.845 102.368 153.845H389.342C395.221 153.845 400.03 158.654 400.03 164.533V342.678H400.031Z" fill="#004275"/>
<path d="M389.261 165.752H102.449V341.458H389.261V165.752Z" fill="#83C2DB"/>
<path d="M70.4996 338.907V351.37C70.4996 358.056 75.9703 363.527 82.6567 363.527H409.055C415.742 363.527 421.212 358.056 421.212 351.37V338.907H70.4996Z" fill="#004275"/>
<path d="M213.147 338.907V343.765C213.147 346.37 215.279 348.501 217.885 348.501H273.826C276.431 348.501 278.563 346.37 278.563 343.765V338.907H213.147Z" fill="#206899"/>
<path d="M379.73 175.712H111.982V337.565H379.73V175.712Z" fill="white"/>
<path d="M379.73 175.712H111.982V189.172H379.73V175.712Z" fill="#EFEAE1"/>
<path d="M123.19 182.784C123.19 184.365 121.909 185.645 120.329 185.645C118.749 185.645 117.468 184.365 117.468 182.784C117.468 181.204 118.749 179.923 120.329 179.923C121.909 179.923 123.19 181.204 123.19 182.784Z" fill="#FF6666"/>
<path d="M129.829 185.645C131.409 185.645 132.69 184.364 132.69 182.784C132.69 181.204 131.409 179.923 129.829 179.923C128.249 179.923 126.969 181.204 126.969 182.784C126.969 184.364 128.249 185.645 129.829 185.645Z" fill="#FCC659"/>
<path d="M139.331 185.645C140.911 185.645 142.192 184.364 142.192 182.784C142.192 181.204 140.911 179.923 139.331 179.923C137.751 179.923 136.47 181.204 136.47 182.784C136.47 184.364 137.751 185.645 139.331 185.645Z" fill="#0082C3"/>
<path d="M139.304 232.365C130.916 232.365 124.116 239.165 124.116 247.553C124.116 255.942 130.916 262.742 139.304 262.742C147.692 262.742 154.493 255.942 154.493 247.553C154.493 239.165 147.692 232.365 139.304 232.365ZM139.304 259.565C132.67 259.565 127.292 254.187 127.292 247.553C127.292 240.919 132.67 235.541 139.304 235.541C145.938 235.541 151.316 240.919 151.316 247.553C151.316 254.188 145.938 259.565 139.304 259.565Z" fill="#EFEAE1"/>
<path d="M149.907 241.913L152.711 240.421C150.156 235.629 145.114 232.365 139.304 232.365V235.541C143.898 235.541 147.886 238.123 149.907 241.913Z" fill="#FF9A78"/>
<path d="M179.007 232.365C170.619 232.365 163.819 239.165 163.819 247.553C163.819 255.942 170.619 262.742 179.007 262.742C187.396 262.742 194.196 255.942 194.196 247.553C194.196 239.165 187.396 232.365 179.007 232.365ZM179.007 259.565C172.373 259.565 166.995 254.187 166.995 247.553C166.995 240.919 172.373 235.541 179.007 235.541C185.641 235.541 191.019 240.919 191.019 247.553C191.018 254.188 185.641 259.565 179.007 259.565Z" fill="#EFEAE1"/>
<path d="M179.007 232.365V235.541C185.641 235.541 191.019 240.919 191.019 247.553H194.197C194.196 239.165 187.396 232.365 179.007 232.365Z" fill="#FF6666"/>
<path d="M139.304 272.161C130.916 272.161 124.116 278.961 124.116 287.349C124.116 295.738 130.916 302.538 139.304 302.538C147.692 302.538 154.493 295.738 154.493 287.349C154.493 278.961 147.692 272.161 139.304 272.161ZM139.304 299.361C132.67 299.361 127.292 293.983 127.292 287.349C127.292 280.715 132.67 275.337 139.304 275.337C145.938 275.337 151.316 280.715 151.316 287.349C151.316 293.983 145.938 299.361 139.304 299.361Z" fill="#EFEAE1"/>
<path d="M146.17 277.501L147.986 274.897C145.524 273.177 142.535 272.161 139.304 272.161V275.337C141.859 275.337 144.223 276.14 146.17 277.501Z" fill="#004275"/>
<path d="M179.007 272.161C170.619 272.161 163.819 278.961 163.819 287.349C163.819 295.738 170.619 302.538 179.007 302.538C187.396 302.538 194.196 295.738 194.196 287.349C194.196 278.961 187.396 272.161 179.007 272.161ZM179.007 299.361C172.373 299.361 166.995 293.983 166.995 287.349C166.995 280.715 172.373 275.337 179.007 275.337C185.641 275.337 191.019 280.715 191.019 287.349C191.018 293.983 185.641 299.361 179.007 299.361Z" fill="#EFEAE1"/>
<path d="M179.007 272.161C178.968 272.161 178.929 272.166 178.89 272.166V275.343C178.93 275.343 178.968 275.337 179.007 275.337C185.641 275.337 191.019 280.715 191.019 287.349C191.019 293.983 185.641 299.361 179.007 299.361C178.968 299.361 178.929 299.356 178.89 299.356V302.533C178.93 302.533 178.968 302.539 179.007 302.539C187.396 302.539 194.196 295.739 194.196 287.35C194.196 278.962 187.396 272.161 179.007 272.161Z" fill="#0082C3"/>
<path d="M152.91 201.033H125.384V203.714H152.91V201.033Z" fill="#E5C78C"/>
<path d="M200.225 211.102H125.384V214.731H200.225V211.102Z" fill="#EFEAE1"/>
<path d="M181.66 217.608H125.384V221.236H181.66V217.608Z" fill="#EFEAE1"/>
<path d="M200.225 314.187H125.384V317.816H200.225V314.187Z" fill="#EFEAE1"/>
<path d="M181.66 320.693H125.384V324.321H181.66V320.693Z" fill="#EFEAE1"/>
<path d="M283.385 253.638H213.541V201.033H216.52V250.658H283.385V253.638Z" fill="#EFEAE1"/>
<path d="M230.162 227.336H221.632V246.827H230.162V227.336Z" fill="#004275"/>
<path d="M245.055 218.536H236.525V246.826H245.055V218.536Z" fill="#FF9A78"/>
<path d="M259.949 212.006H251.419V246.826H259.949V212.006Z" fill="#FF6666"/>
<path d="M274.842 207.857H266.312V246.826H274.842V207.857Z" fill="#0082C3"/>
<path d="M241.067 264.056H213.541V266.737H241.067V264.056Z" fill="#E5C78C"/>
<path d="M283.385 275.312H213.541V278.94H283.385V275.312Z" fill="#EFEAE1"/>
<path d="M213.541 281.817V285.445H266.06H283.385V281.817H266.06H213.541Z" fill="#EFEAE1"/>
<path d="M213.541 288.323V291.951H266.06H283.385V288.323H266.06H213.541Z" fill="#EFEAE1"/>
<path d="M213.541 294.83V298.457H266.06H283.385V294.83H266.06H213.541Z" fill="#EFEAE1"/>
<path d="M213.541 301.336V304.963H266.06H283.385V301.336H266.06H213.541Z" fill="#EFEAE1"/>
<path d="M213.541 307.841V311.469H266.06H283.385V307.841H266.06H213.541Z" fill="#EFEAE1"/>
<path d="M213.541 314.347V317.975H266.06H283.385V314.347H266.06H213.541Z" fill="#EFEAE1"/>
<path d="M266.06 320.853H213.541V324.481H266.06V320.853Z" fill="#EFEAE1"/>
<path d="M367.595 274.186H295.62V324.23H367.595V274.186Z" fill="#EFEAE1"/>
<path d="M337.751 306.411C343.443 303.025 345.313 295.666 341.927 289.973C338.542 284.281 331.182 282.411 325.49 285.797C319.798 289.182 317.927 296.542 321.313 302.234C324.699 307.927 332.058 309.797 337.751 306.411Z" fill="white"/>
<path d="M329.662 290.762V301.401L335.395 296.001L329.662 290.762Z" fill="#FF9A78"/>
<path d="M299.867 318.21C306.994 318.21 314.122 318.21 321.249 318.21C332.669 318.21 344.089 318.21 355.507 318.21C358.122 318.21 360.735 318.21 363.349 318.21C364.304 318.21 364.306 316.726 363.349 316.726C356.222 316.726 349.094 316.726 341.967 316.726C330.548 316.726 319.128 316.726 307.709 316.726C305.095 316.726 302.482 316.726 299.867 316.726C298.911 316.726 298.91 318.21 299.867 318.21Z" fill="white"/>
<path d="M310.571 317.389C310.571 318.378 309.77 319.18 308.782 319.18C307.794 319.18 306.993 318.379 306.993 317.389C306.993 316.401 307.794 315.601 308.782 315.601C309.77 315.601 310.571 316.401 310.571 317.389Z" fill="#FF9A78"/>
<path d="M324.213 201.493H296.686V204.174H324.213V201.493Z" fill="#E5C78C"/>
<path d="M366.53 212.749H296.686V216.377H366.53V212.749Z" fill="#EFEAE1"/>
<path d="M296.686 219.254V222.882H349.205H366.53V219.254H349.205H296.686Z" fill="#EFEAE1"/>
<path d="M296.686 225.761V229.388H349.205H366.53V225.761H349.205H296.686Z" fill="#EFEAE1"/>
<path d="M296.686 232.267V235.894H349.205H366.53V232.267H349.205H296.686Z" fill="#EFEAE1"/>
<path d="M296.686 238.772V242.401H349.205H366.53V238.772H349.205H296.686Z" fill="#EFEAE1"/>
<path d="M296.686 245.278V248.906H349.205H366.53V245.278H349.205H296.686Z" fill="#EFEAE1"/>
<path d="M296.686 251.784V255.412H349.205H366.53V251.784H349.205H296.686Z" fill="#EFEAE1"/>
<path d="M349.205 258.29H296.686V261.918H349.205V258.29Z" fill="#EFEAE1"/>
<path d="M341.674 221.686C343.355 205.328 338.176 201.302 338.176 201.302H324.706H324.7H311.229C311.229 201.302 306.051 205.328 307.731 221.686C307.731 221.686 307.76 218.665 311.229 215.646C311.229 215.646 307.662 225.46 314.325 236.281C314.325 236.281 313.127 230.996 315.171 228.48C315.171 228.48 315.841 242.315 324.7 247.601V247.605L324.703 247.603L324.707 247.605V247.601C333.566 242.315 334.236 228.48 334.236 228.48C336.279 230.996 335.081 236.281 335.081 236.281C341.744 225.46 338.178 215.646 338.178 215.646C341.645 218.667 341.674 221.686 341.674 221.686Z" fill="#FF6666"/>
<path d="M337.507 216.682C338.775 204.341 334.868 201.303 334.868 201.303H324.704H324.7H314.536C314.536 201.303 310.629 204.341 311.897 216.682C311.897 216.682 311.919 214.404 314.536 212.125C314.536 212.125 311.845 219.53 316.873 227.694C316.873 227.694 315.968 223.707 317.511 221.808C317.511 221.808 318.016 232.247 324.701 236.235V236.237L324.703 236.236L324.706 236.237V236.235C331.39 232.246 331.896 221.808 331.896 221.808C333.437 223.707 332.534 227.694 332.534 227.694C337.562 219.53 334.871 212.125 334.871 212.125C337.486 214.404 337.507 216.682 337.507 216.682Z" fill="#FF9A78"/>
<path d="M334.187 212.694C335.126 203.553 332.233 201.303 332.233 201.303H324.704H324.701H317.173C317.173 201.303 314.278 203.553 315.219 212.694C315.219 212.694 315.234 211.006 317.173 209.319C317.173 209.319 315.18 214.803 318.903 220.85C318.903 220.85 318.233 217.897 319.374 216.491C319.374 216.491 319.749 224.222 324.7 227.176V227.179L324.701 227.178L324.702 227.179V227.176C329.653 224.222 330.028 216.491 330.028 216.491C331.17 217.897 330.5 220.85 330.5 220.85C334.224 214.803 332.23 209.319 332.23 209.319C334.171 211.006 334.187 212.694 334.187 212.694Z" fill="#FCC659"/>
<path d="M297.165 165.872C297.165 165.872 276.979 177.435 285.65 206.786C285.65 206.786 287.748 188.246 302.208 182.674L297.165 165.872Z" fill="#FF6666"/>
<path opacity="0.1" d="M299.054 172.165L297.165 165.873C297.165 165.873 276.979 177.437 285.65 206.787C285.65 206.787 285.716 206.226 285.893 205.285C282.649 182.49 297.941 172.834 299.054 172.165Z" fill="#004275"/>
<path d="M352.247 165.872C352.247 165.872 372.434 177.435 363.762 206.786C363.762 206.786 361.664 188.246 347.204 182.674L352.247 165.872Z" fill="#FF6666"/>
<path opacity="0.1" d="M350.358 172.165L352.247 165.873C352.247 165.873 372.434 177.437 363.762 206.787C363.762 206.787 363.696 206.226 363.519 205.285C366.763 182.49 351.471 172.834 350.358 172.165Z" fill="#004275"/>
<path d="M324.707 74.3356C324.707 74.3356 267.939 109.998 307.285 196.469H324.707H342.127C381.474 109.998 324.707 74.3356 324.707 74.3356Z" fill="#F8E4B2"/>
<path d="M324.707 103.195C332.511 103.195 339.764 101.408 345.8 98.3464C336.664 81.8552 324.707 74.3346 324.707 74.3346C324.707 74.3346 312.749 81.8552 303.614 98.3464C309.65 101.408 316.902 103.195 324.707 103.195Z" fill="#FF6666"/>
<path d="M338.332 130.992C340.1 123.457 335.426 115.916 327.891 114.147C320.357 112.378 312.815 117.053 311.047 124.587C309.278 132.122 313.952 139.664 321.487 141.432C329.022 143.201 336.563 138.527 338.332 130.992Z" fill="#83C2DB"/>
<mask id="mask0_32_448" style="mask-type:luminance" maskUnits="userSpaceOnUse" x="310" y="113" width="29" height="29">
<path d="M338.332 130.992C340.1 123.457 335.426 115.916 327.891 114.147C320.357 112.378 312.815 117.053 311.047 124.587C309.278 132.122 313.952 139.664 321.487 141.432C329.022 143.201 336.563 138.527 338.332 130.992Z" fill="white"/>
</mask>
<g mask="url(#mask0_32_448)">
<path d="M358.061 81.8877L293.394 146.554L295.865 149.024L360.531 84.3577L358.061 81.8877Z" fill="#91D1E5"/>
<path d="M356.329 92.5377L291.662 157.204L297.597 163.139L362.264 98.4723L356.329 92.5377Z" fill="#91D1E5"/>
<path d="M362.862 101.297L298.196 165.964L299.029 166.797L363.696 102.131L362.862 101.297Z" fill="#91D1E5"/>
</g>
<path d="M324.707 143.172C316.221 143.172 309.317 136.267 309.317 127.782C309.317 119.297 316.221 112.392 324.707 112.392C333.193 112.392 340.097 119.297 340.097 127.782C340.097 136.267 333.192 143.172 324.707 143.172ZM324.707 115.143C317.737 115.143 312.069 120.812 312.069 127.782C312.069 134.752 317.738 140.421 324.707 140.421C331.675 140.421 337.344 134.752 337.344 127.782C337.344 120.812 331.675 115.143 324.707 115.143Z" fill="#0082C3"/>
<path d="M301.657 182.674H347.754C348.726 179.984 349.603 177.347 350.387 174.767H299.024C299.808 177.348 300.686 179.984 301.657 182.674Z" fill="#FF9A78"/>
<path opacity="0.1" d="M324.707 74.3357C324.707 74.3357 318.095 78.4925 310.948 87.4017C324.742 104.598 340.53 139.509 314.611 196.47H324.707H342.127C381.474 109.998 324.707 74.3357 324.707 74.3357Z" fill="#004275"/>
<path d="M344.351 203.785H305.047C304.023 203.785 303.186 202.947 303.186 201.924V198.33C303.186 197.306 304.024 196.469 305.047 196.469H344.351C345.375 196.469 346.211 197.307 346.211 198.33V201.924C346.211 202.947 345.375 203.785 344.351 203.785Z" fill="#004275"/>
<path d="M324.707 165.872C327.293 170.324 328.588 174.775 329.558 179.226C330.467 183.679 330.899 188.13 330.897 192.582C330.911 197.034 330.484 201.486 329.575 205.937C328.609 210.39 327.309 214.841 324.707 219.293C322.106 214.841 320.805 210.39 319.838 205.937C318.929 201.486 318.502 197.034 318.517 192.582C318.516 188.13 318.946 183.679 319.855 179.226C320.825 174.775 322.12 170.324 324.707 165.872Z" fill="#FF6666"/>
<path opacity="0.1" d="M329.557 179.228C328.587 174.776 327.292 170.324 324.706 165.872V219.293C327.306 214.841 328.608 210.39 329.574 205.937C330.484 201.486 330.91 197.034 330.896 192.582C330.898 188.131 330.467 183.679 329.557 179.228Z" fill="#004275"/>
<path d="M456.927 271.003H418.373C413.358 271.003 409.256 275.105 409.256 280.12V303.986C409.256 309 413.358 313.102 418.373 313.102H441.258C441.294 313.168 441.314 313.23 441.354 313.296L445.199 319.534C446.215 321.183 447.876 321.183 448.892 319.534L452.737 313.296C452.778 313.229 452.798 313.167 452.834 313.102H456.927C461.941 313.102 466.044 309 466.044 303.986V280.12C466.044 275.105 461.942 271.003 456.927 271.003Z" fill="#FF9A78"/>
<path d="M456.474 286.409H420.127C419.73 286.409 419.405 286.085 419.405 285.687V285.363C419.405 284.966 419.73 284.641 420.127 284.641H456.474C456.871 284.641 457.196 284.966 457.196 285.363V285.687C457.196 286.085 456.87 286.409 456.474 286.409Z" fill="#FFF4DE"/>
<path d="M456.474 292.79H420.127C419.73 292.79 419.406 292.465 419.406 292.068V291.744C419.406 291.347 419.73 291.022 420.127 291.022H456.474C456.872 291.022 457.196 291.347 457.196 291.744V292.068C457.196 292.465 456.87 292.79 456.474 292.79Z" fill="#FFF4DE"/>
<path d="M447.358 299.172H420.126C419.729 299.172 419.404 298.847 419.404 298.45V298.126C419.404 297.729 419.729 297.404 420.126 297.404H447.358C447.755 297.404 448.079 297.729 448.079 298.126V298.45C448.079 298.847 447.755 299.172 447.358 299.172Z" fill="#FFF4DE"/>
<path opacity="0.1" d="M456.927 271.003H447.811C452.825 271.003 456.927 275.105 456.927 280.12V303.986C456.927 309 452.825 313.102 447.811 313.102H443.717C443.682 313.168 443.662 313.23 443.62 313.296L442.487 315.135L445.199 319.535C446.215 321.184 447.876 321.184 448.892 319.535L452.737 313.297C452.778 313.23 452.798 313.168 452.834 313.103H456.927C461.941 313.103 466.044 309.001 466.044 303.987V280.121C466.044 275.105 461.942 271.003 456.927 271.003Z" fill="#004275"/>
<path d="M116.197 299.926C116.197 305.222 111.864 309.557 106.567 309.557H52.95C47.6534 309.557 43.3203 305.224 43.3203 299.926V246.31C43.3203 241.013 47.6534 236.68 52.95 236.68H106.566C111.863 236.68 116.196 241.013 116.196 246.31L116.197 299.926Z" fill="#F8E4B2"/>
<path d="M116.197 252.727V246.31C116.197 241.013 111.864 236.68 106.567 236.68H52.95C47.6534 236.68 43.3203 241.013 43.3203 246.31V252.727H116.197Z" fill="#FF6666"/>
<path d="M59.4356 260.154H49.8416V269.748H59.4356V260.154Z" fill="#E5C78C"/>
<path d="M76.5726 260.154H66.9786V269.748H76.5726V260.154Z" fill="#E5C78C"/>
<path d="M93.7096 260.154H84.1155V269.748H93.7096V260.154Z" fill="#E5C78C"/>
<path d="M110.848 260.154H101.254V269.748H110.848V260.154Z" fill="#E5C78C"/>
<path d="M59.4356 275.297H49.8416V284.891H59.4356V275.297Z" fill="#E5C78C"/>
<path d="M76.5726 275.297H66.9786V284.891H76.5726V275.297Z" fill="#E5C78C"/>
<path d="M93.7096 275.297H84.1155V284.891H93.7096V275.297Z" fill="#E5C78C"/>
<path d="M110.848 275.297H101.254V284.891H110.848V275.297Z" fill="#E5C78C"/>
<path d="M59.4356 290.441H49.8416V300.035H59.4356V290.441Z" fill="#E5C78C"/>
<path d="M76.5726 290.441H66.9786V300.035H76.5726V290.441Z" fill="#E5C78C"/>
<path d="M93.7096 290.441H84.1155V300.035H93.7096V290.441Z" fill="#E5C78C"/>
<path d="M67.8151 243.522H66.0194C64.7535 243.522 63.7174 242.485 63.7174 241.22V232.345C63.7174 231.079 64.7535 230.043 66.0194 230.043H67.8151C69.081 230.043 70.1171 231.079 70.1171 232.345V241.22C70.1182 242.485 69.0821 243.522 67.8151 243.522Z" fill="#FCC659"/>
<path d="M80.6558 243.522H78.8601C77.5942 243.522 76.5581 242.485 76.5581 241.22V232.345C76.5581 231.079 77.5942 230.043 78.8601 230.043H80.6558C81.9217 230.043 82.9578 231.079 82.9578 232.345V241.22C82.9578 242.485 81.9217 243.522 80.6558 243.522Z" fill="#FCC659"/>
<path d="M93.4965 243.522H91.7009C90.4339 243.522 89.3977 242.485 89.3977 241.22V232.345C89.3977 231.079 90.4339 230.043 91.7009 230.043H93.4965C94.7624 230.043 95.7986 231.079 95.7986 232.345V241.22C95.7986 242.485 94.7624 243.522 93.4965 243.522Z" fill="#FCC659"/>
<path opacity="0.1" d="M106.566 236.68H97.9355C103.232 236.68 107.565 241.013 107.565 246.31V299.926C107.565 305.222 103.232 309.557 97.9355 309.557H106.566C111.863 309.557 116.196 305.224 116.196 299.926V246.31C116.197 241.013 111.863 236.68 106.566 236.68Z" fill="#004275"/>
<path d="M72.5519 206.64C99.3315 206.64 121.041 184.931 121.041 158.151C121.041 131.372 99.3315 109.663 72.5519 109.663C45.7723 109.663 24.0631 131.372 24.0631 158.151C24.0631 184.931 45.7723 206.64 72.5519 206.64Z" fill="#FF6666"/>
<path d="M100.015 185.615C115.184 170.446 115.184 145.853 100.015 130.684C84.8462 115.516 60.2529 115.516 45.0842 130.684C29.9154 145.853 29.9154 170.446 45.0842 185.615C60.2529 200.784 84.8462 200.784 100.015 185.615Z" fill="#FFF4DE"/>
<path d="M72.5519 184.627C87.1739 184.627 99.0274 172.773 99.0274 158.151C99.0274 143.529 87.1739 131.676 72.5519 131.676C57.9298 131.676 46.0763 143.529 46.0763 158.151C46.0763 172.773 57.9298 184.627 72.5519 184.627Z" fill="#FF6666"/>
<path d="M82.5259 168.126C88.0357 162.616 88.0357 153.683 82.5259 148.173C77.0161 142.663 68.083 142.663 62.5732 148.173C57.0634 153.683 57.0634 162.616 62.5732 168.126C68.083 173.636 77.0161 173.636 82.5259 168.126Z" fill="#FFF4DE"/>
<path opacity="0.1" d="M72.5519 109.663C69.072 109.663 65.6803 110.036 62.408 110.733C84.3163 115.398 100.753 134.851 100.753 158.151C100.753 181.45 84.3163 200.904 62.408 205.568C65.6803 206.265 69.072 206.639 72.5519 206.639C99.3308 206.639 121.041 184.93 121.041 158.15C121.039 131.371 99.3308 109.663 72.5519 109.663Z" fill="#004275"/>
<path d="M114.825 155.162H104.709L109.021 151.657C109.621 151.169 109.973 150.452 110.016 149.637C110.06 148.768 109.735 147.898 109.147 147.309C108.041 146.204 106.315 146.157 105.036 147.195L95.2353 155.161H72.3355C70.6547 155.161 69.3877 156.449 69.3877 158.157C69.3877 159.863 70.6547 161.15 72.3355 161.15H95.2498L105.036 169.104C105.651 169.605 106.372 169.853 107.076 169.853C107.834 169.853 108.573 169.565 109.147 168.992C109.736 168.403 110.062 167.532 110.017 166.662C109.975 165.848 109.621 165.131 109.022 164.645L104.725 161.15H114.825C116.507 161.15 117.774 159.862 117.774 158.155C117.774 156.449 116.506 155.162 114.825 155.162Z" fill="#004275"/>
<path d="M243.713 140.597C247.786 140.597 251.089 137.295 251.089 133.221C251.089 129.148 247.786 125.846 243.713 125.846C239.639 125.846 236.337 129.148 236.337 133.221C236.337 137.295 239.639 140.597 243.713 140.597Z" fill="#FF6666"/>
<path d="M266.601 136.842C266.86 135.449 267.012 134.018 267.012 132.549C267.012 119.68 256.58 109.249 243.712 109.249C230.844 109.249 220.413 119.68 220.413 132.549C220.413 134.018 220.564 135.449 220.824 136.842H220.814C220.814 136.842 220.413 146.69 243.712 177.335C267.012 146.69 266.611 136.842 266.611 136.842H266.601ZM243.713 144.379C237.551 144.379 232.556 139.384 232.556 133.223C232.556 127.06 237.552 122.065 243.713 122.065C249.875 122.065 254.871 127.06 254.871 133.223C254.87 139.384 249.875 144.379 243.713 144.379Z" fill="#0082C3"/>
<g opacity="0.2">
<path d="M266.601 136.842C266.86 135.449 267.012 134.018 267.012 132.549C267.012 119.68 256.58 109.249 243.712 109.249C242.779 109.249 241.865 109.319 240.961 109.425C252.531 110.788 261.51 120.613 261.51 132.548C261.51 134.017 261.358 135.448 261.099 136.841H261.109C261.109 136.841 261.463 145.906 240.961 173.658C241.844 174.852 242.75 176.068 243.712 177.333C267.012 146.688 266.611 136.84 266.611 136.84H266.601V136.842Z" fill="#004275"/>
</g>
<path d="M463.668 251.555H388.462V183.923L416.419 155.922H463.668V251.555Z" fill="white"/>
<path d="M416.419 155.982L388.462 183.983H416.419V155.982Z" fill="#E8D2AC"/>
<path d="M439.629 162.551C431.536 162.551 424.975 169.111 424.975 177.205C424.975 185.299 431.536 191.859 439.629 191.859C447.721 191.859 454.283 185.299 454.283 177.205C454.283 169.111 447.721 162.551 439.629 162.551ZM439.629 186.223C434.648 186.223 430.61 182.185 430.61 177.204C430.61 172.223 434.648 168.186 439.629 168.186C444.61 168.186 448.647 172.223 448.647 177.204C448.647 182.185 444.61 186.223 439.629 186.223Z" fill="#0082C3"/>
<path d="M448.647 177.204C448.647 182.185 444.61 186.223 439.629 186.223V191.857C447.721 191.857 454.283 185.297 454.283 177.203C454.283 169.109 447.723 162.549 439.629 162.549V168.184C444.61 168.186 448.647 172.223 448.647 177.204Z" fill="#FF9A78"/>
<path d="M454.283 177.204C454.283 173.619 452.992 170.335 450.854 167.788L446.536 171.41C447.852 172.977 448.647 174.997 448.647 177.204C448.647 182.185 444.61 186.223 439.629 186.223V191.857C447.721 191.859 454.283 185.297 454.283 177.204Z" fill="#FF6666"/>
<path d="M443.911 185.142C442.637 185.831 441.179 186.223 439.629 186.223V191.857C442.148 191.857 444.518 191.222 446.588 190.102L443.911 185.142Z" fill="#004275"/>
<path d="M454.283 225.006H395.025V227.174H454.283V225.006Z" fill="#EFEAE1"/>
<path d="M418.472 225.006H395.025V227.174H418.472V225.006Z" fill="#FF9A78"/>
<path d="M454.283 231.294H395.025V233.462H454.283V231.294Z" fill="#EFEAE1"/>
<path d="M432.969 231.294H395.025V233.462H432.969V231.294Z" fill="#FF6666"/>
<path d="M454.283 237.584H395.025V239.751H454.283V237.584Z" fill="#EFEAE1"/>
<path d="M409.371 237.584H395.025V239.751H409.371V237.584Z" fill="#004275"/>
<path d="M454.283 243.872H395.025V246.04H454.283V243.872Z" fill="#EFEAE1"/>
<path d="M445.361 243.872H395.025V246.04H445.361V243.872Z" fill="#0082C3"/>
<path d="M418.681 195.193H394.797V197.315H418.681V195.193Z" fill="#EFEAE1"/>
<path d="M454.282 200.342H394.797V202.442H454.282V200.342Z" fill="#EFEAE1"/>
<path d="M394.797 204.108V206.208H439.527H454.283V204.108H439.527H394.797Z" fill="#EFEAE1"/>
<path d="M394.797 207.875V209.975H439.527H454.283V207.875H439.527H394.797Z" fill="#EFEAE1"/>
<path d="M394.797 211.64V213.74V213.741H439.527V213.74H454.283V211.64H439.527H394.797Z" fill="#EFEAE1"/>
<path d="M439.526 215.406H394.797V217.507H439.526V215.406Z" fill="#EFEAE1"/>
<path d="M152.42 127.434H144.114V141.881H152.42V127.434Z" fill="#E5C78C"/>
<path d="M166.923 121.132H158.617V141.881H166.923V121.132Z" fill="#E5C78C"/>
<path d="M181.424 112.508H173.118V141.881H181.424V112.508Z" fill="#E5C78C"/>
<path d="M195.927 106.119H187.621V141.881H195.927V106.119Z" fill="#E5C78C"/>
<path d="M192.94 81.5708C189.706 83.3553 186.471 85.141 183.236 86.9255C182.777 87.1787 182.32 87.4307 181.861 87.6839C181.192 88.0531 181.063 89.0457 181.461 89.6469C181.911 90.3272 182.752 90.4187 183.424 90.0473C185.76 88.7591 188.094 87.4698 190.429 86.1816C185.298 95.1756 177.354 102.055 168.094 106.766C160.697 110.529 152.54 112.99 144.345 114.252C142.694 114.506 141.023 114.741 139.352 114.834C137.533 114.937 137.686 117.765 139.508 117.663C144.485 117.383 149.507 116.304 154.301 115.005C164.409 112.266 174.176 107.695 182.111 100.78C186.282 97.1463 189.824 92.8646 192.598 88.101C192.692 89.8276 192.788 91.5541 192.883 93.2806C192.91 93.7736 192.938 94.2655 192.965 94.7584C193.065 96.5786 195.893 96.4247 195.793 94.6023C195.6 91.118 195.408 87.6349 195.215 84.1506C195.189 83.6576 195.161 83.1657 195.134 82.6728C195.073 81.5374 193.859 81.0645 192.94 81.5708Z" fill="#E5C78C"/>
<path d="M409.718 100.445C403.106 93.8338 392.35 93.8338 385.738 100.445C379.128 107.057 379.128 117.813 385.738 124.425C391.489 130.176 400.374 130.918 406.941 126.665L420.545 140.269L424.684 136.13L411.224 122.669C416.266 116.03 415.775 106.502 409.718 100.445ZM405.579 120.286C401.25 124.615 394.206 124.615 389.877 120.286C385.549 115.957 385.549 108.913 389.877 104.584C394.206 100.256 401.25 100.256 405.579 104.584C409.909 108.913 409.909 115.957 405.579 120.286Z" fill="#EFD6A8"/>
<path d="M400.822 105.264C401.948 106.39 401.948 108.216 400.822 109.341C399.696 110.468 397.87 110.468 396.744 109.341C395.618 108.215 395.618 106.389 396.744 105.264C397.871 104.137 399.697 104.137 400.822 105.264Z" fill="#EFD6A8"/>
<path d="M116.197 94.7662L117.74 97.8936L121.192 98.3955L118.694 100.83L119.284 104.269L116.197 102.646L113.108 104.269L113.698 100.83L111.2 98.3955L114.652 97.8936L116.197 94.7662Z" fill="#FCC659"/>
<path d="M270.437 64.6469L274.783 73.4524L284.5 74.8655L277.468 81.7191L279.129 91.3979L270.437 86.8285L261.745 91.3979L263.405 81.7191L256.374 74.8655L266.091 73.4524L270.437 64.6469Z" fill="#FCC659"/>
<path d="M144.327 60.5157L147.276 66.4905L153.87 67.4486L149.099 72.0995L150.225 78.6654L144.327 75.5659L138.431 78.6654L139.557 72.0995L134.786 67.4486L141.38 66.4905L144.327 60.5157Z" fill="#FCC659"/>
<path d="M460.029 118.12L462.978 124.094L469.571 125.052L464.8 129.703L465.927 136.27L460.029 133.169L454.132 136.27L455.258 129.703L450.487 125.052L457.08 124.094L460.029 118.12Z" fill="#FCC659"/>
<path d="M24.0631 207.861L28.4084 216.667L38.1263 218.079L31.0941 224.932L32.7548 234.611L24.0631 230.042L15.3714 234.611L17.031 224.932L10 218.079L19.7167 216.667L24.0631 207.861Z" fill="#FCC659"/>
<path d="M401.547 42.6125L403.092 45.741L406.544 46.2429L404.045 48.6777L404.635 52.1162L401.547 50.4923L398.46 52.1162L399.05 48.6777L396.551 46.2429L400.003 45.741L401.547 42.6125Z" fill="#FCC659"/>
<path d="M485.004 321.748L486.548 324.877L490 325.379L487.502 327.813L488.092 331.252L485.004 329.628L481.916 331.252L482.506 327.813L480.008 325.379L483.46 324.877L485.004 321.748Z" fill="#FCC659"/>
<path d="M464.757 214.096L469.103 222.901L478.82 224.313L471.789 231.167L473.449 240.846L464.757 236.276L456.065 240.846L457.726 231.167L450.694 224.313L460.412 222.901L464.757 214.096Z" fill="#FCC659"/>
<path d="M39.3141 323.364L42.263 329.339L48.8557 330.297L44.0854 334.947L45.2108 341.514L39.3141 338.413L33.4162 341.514L34.5427 334.947L29.7725 330.297L36.3652 329.339L39.3141 323.364Z" fill="#FCC659"/>
<path d="M223.237 29L224.78 32.1285L228.233 32.6304L225.735 35.0651L226.325 38.5026L223.237 36.8798L220.149 38.5026L220.738 35.0651L218.241 32.6304L221.693 32.1285L223.237 29Z" fill="#FCC659"/>
<path d="M364.186 41.2463L367.134 47.221L373.727 48.1791L368.956 52.83L370.083 59.3971L364.186 56.2965L358.288 59.3971L359.414 52.83L354.643 48.1791L361.237 47.221L364.186 41.2463Z" fill="#FCC659"/>
<path d="M65.7417 50.1477L67.2161 53.1356L70.513 53.6141L68.1274 55.9395L68.6906 59.2231L65.7417 57.6728L62.7928 59.2231L63.356 55.9395L60.9714 53.6141L64.2672 53.1356L65.7417 50.1477Z" fill="#FCC659"/>
<path d="M465.761 371.585H34.2393C31.8236 371.585 29.8472 369.609 29.8472 367.193C29.8472 364.777 31.8236 362.801 34.2393 362.801H465.761C468.176 362.801 470.153 364.777 470.153 367.193C470.153 369.609 468.176 371.585 465.761 371.585Z" fill="#F2DCB8"/>
</svg>
