<svg width="3000" height="3000" viewBox="0 0 3000 3000" fill="none" xmlns="http://www.w3.org/2000/svg">
<path d="M1500.66 2822.25C772.328 2822.25 179.782 2229.7 179.782 1501.36C179.782 773.043 772.328 180.509 1500.66 180.509C2228.99 180.509 2821.52 773.042 2821.52 1501.36C2821.52 2229.7 2228.99 2822.25 1500.66 2822.25ZM1500.66 204.846C785.743 204.846 204.117 786.459 204.117 1501.36C204.117 2216.29 785.743 2797.92 1500.66 2797.92C2215.57 2797.92 2797.19 2216.29 2797.19 1501.36C2797.19 786.459 2215.57 204.846 1500.66 204.846Z" fill="#FF9E22"/>
<path d="M524.789 934.938C519.56 943.261 508.497 946.595 499.14 949.346C504.006 959.03 504.749 969.456 505.723 976.355C525.252 975.376 540.366 971.93 561.594 967.682L564.334 982.344L487.679 989.242C479.658 989.853 465.156 989.693 458.745 985.665C454.228 982.831 453.557 975.433 456.088 971.394C459.243 966.392 469.569 965.262 471.214 962.642C471.667 961.941 470.763 960.712 469.112 959.666L433.91 937.54L412.236 972.024L384.786 971.371L475.351 827.228L502.817 827.899L487.862 851.675L595.132 919.079L565.954 932.257L533.865 910.442C533.123 920.603 529.862 926.848 524.789 934.938ZM447.658 915.665L489.27 941.813C495.758 936.264 498.836 931.896 502.715 925.707C505.115 921.909 512.401 900.271 510.736 896.588L474.107 873.564L447.658 915.665Z" fill="#FF9E22"/>
<path d="M635.807 970.858C626.89 983.129 604.402 989.682 588.949 978.44C575.117 968.364 572.717 950.647 583.791 935.437C593.381 922.259 616.35 911.203 671.336 906.759L672.406 918.646C617.763 922.64 609.219 927.202 603.112 935.61C596.506 944.688 598.49 961.05 607.569 967.67C612.565 971.312 617.347 972.358 619.831 968.964C621.815 966.226 619.261 948.753 616.569 941.927L640.441 941.587C642.854 953.059 641.428 963.136 635.807 970.858Z" fill="#FF9E22"/>
<path d="M621.762 797.707C617.003 803.617 606.416 809.154 591.064 813.041C585.248 840.443 586.886 850.055 594.992 856.562C604.836 864.469 617.13 863.547 622.576 856.757C630.515 846.912 627.711 839.611 625.304 837.68C623.553 836.277 615.133 835.987 612.502 833.882C609.668 831.584 609.245 824.038 612.056 820.544C616.287 815.287 639.369 807.183 645.298 811.941C651.637 817.039 653.545 825.421 652.962 831.084L700.321 838.517L698.057 852.562L650.835 840.906C650.027 844.59 646.112 852.61 641.003 858.951C628.151 874.937 588.208 884.254 571.352 870.715C561.075 862.439 557.895 853.402 565.329 822.625C539.436 830.622 528.112 831.258 517.827 822.981C504.466 812.245 500.806 791.273 512.058 777.25C526.846 758.881 562.339 754.621 579.421 768.346C588.165 775.392 592.877 787.465 591.006 803.244C591.926 802.55 594.47 800.273 596.235 798.089C603.793 788.683 613.418 768.648 613.821 750.232L636.149 768.179C633.396 777.861 628.81 788.948 621.762 797.707ZM556.628 777.411C549.836 771.963 542.779 773.114 538.375 778.604C530.641 788.23 532.929 801.966 539.481 807.248C547.151 813.402 557.892 814.841 566.495 811.3C569.746 796.963 564.951 784.106 556.628 777.411Z" fill="#FF9E22"/>
<path d="M677.118 763.996C679.916 766.771 679.53 770.346 676.351 773.538C670.986 778.902 633.645 778.589 626.479 771.446C624.298 769.253 623.882 765.285 627.062 762.113L632.818 756.331L596.191 719.851L576.358 739.761L549.724 733.04L657.201 625.176L683.837 631.865L664.006 651.775L753.766 741.204L722.397 747.62L699.897 723.231L668.176 755.077L677.118 763.996ZM614.431 701.54L651.445 738.417L682.779 706.963L645.765 670.086L614.431 701.54Z" fill="#FF9E22"/>
<path d="M812.621 666.248C815.325 669.486 816.792 675.203 817.659 685.451L817.439 722.911L804.066 718.705C804.309 711.55 803.923 696.157 801.582 693.358C799.781 691.19 801.403 690.946 782.896 688.468L787.24 658.156C807.708 661.211 808.498 661.28 812.621 666.248Z" fill="#FF9E22"/>
<path d="M982.567 487.86C980.57 488.289 978.212 489.227 976.726 490.011C964.327 496.624 956.918 511.382 960.577 536.787L935.393 534.292C934.281 530.435 933.593 522.539 933.627 519.021C928.125 515.896 920.718 515.712 914.283 519.146C902.626 525.349 900.131 540.351 906.981 553.249C915.424 569.099 935.185 575.126 965.996 581.008L959.717 596.104C909.886 583.193 890.055 569.261 881.613 553.398C871.72 534.8 878.399 511.511 894.268 503.067C904.184 497.786 916.506 498.862 934.699 507.303C936.867 494.06 943.386 483.587 950.337 479.891C956.273 476.724 969.064 475.643 976.668 477.965L961.6 449.704L844.378 512.148L820.892 497.925L985.459 410.278L1008.95 424.489L984.402 437.559L1043.95 549.346L1012.08 546.263L982.567 487.86Z" fill="#FF9E22"/>
<path d="M1104.54 499.066C1082.11 508.018 1051.04 489.269 1044.47 472.845C1040.5 462.93 1042.34 454.643 1053.83 444.007L1053.61 443.484C1035.72 444.88 1024.57 441.173 1018.01 424.734L1005.74 429.623L983.945 412.929L1071.34 378.036L1093.13 394.736L1047.74 412.869C1045.13 416.932 1047.43 422.666 1048.67 425.803C1050.03 429.184 1056.16 435.499 1064.94 436.231C1068.95 433.42 1075.17 430.04 1079.87 428.162C1083.71 430.26 1096.85 440.432 1097.79 442.777C1098.73 445.125 1097.73 446.425 1094.61 447.679C1069.3 457.779 1062.72 470.096 1066.47 479.477C1068.24 483.915 1076.12 486.215 1087.86 481.533C1100.13 476.631 1113.99 461.408 1126.28 436.852L1136.26 461.89C1127.76 480.72 1118.89 493.339 1104.54 499.066Z" fill="#FF9E22"/>
<path d="M1134.78 496.839L1102.59 392.704L1083.11 399.121L1062.38 381.095L1137.88 356.236L1158.61 374.263L1126.33 384.88L1165.93 505.209L1134.78 496.839Z" fill="#FF9E22"/>
<path d="M1167.76 503.984C1184.72 498.921 1204.88 510.508 1209.37 525.583C1213.3 538.771 1205.38 558.437 1183.83 564.848C1160.95 571.662 1132.58 563.998 1099.41 548.093L1104.9 537.958C1130.75 551.938 1155.66 556.828 1167.77 553.214C1185.27 548.01 1194.38 530.352 1191.96 522.272C1190.12 516.081 1186.92 513.218 1183.61 513.913C1179.84 515.036 1173.03 525.57 1167.89 535.901L1144.95 524.838C1150.47 513.83 1158.34 506.784 1167.76 503.984Z" fill="#FF9E22"/>
<path d="M1377.4 422.94C1372.11 423.659 1362.96 422.904 1354.47 420.919L1341.15 404.005C1344.24 403.873 1348.54 404.152 1352.44 403.629C1358.85 402.762 1361.41 398.738 1360.07 388.711L1352.98 335.84L1314.29 341.027L1324.14 414.509C1325.03 421.173 1327.93 427.875 1351.11 438.09L1418.53 467.569C1426.04 470.819 1432.18 476.499 1433.19 484.021C1434.06 490.419 1428.84 502.177 1425.22 506.908L1399.88 493.302C1401.46 490.26 1403.13 483.802 1402.83 481.574C1402.27 477.403 1399.21 473.571 1394.07 471.136C1386.2 467.375 1317.19 438.659 1311.42 435.754C1302 431.067 1299.65 426.284 1298.92 420.711L1288.69 344.454L1268.65 347.145L1251.6 325.631L1397.99 306.007L1415.05 327.515L1378.58 332.412L1388.1 403.373C1390 417.575 1386.31 421.746 1377.4 422.94Z" fill="#FF9E22"/>
<path d="M1476.85 426.842C1451.29 427.269 1425 400.998 1424.63 378.818C1424.32 358.863 1443.13 341.412 1469.81 340.978C1477.4 340.843 1487.54 342.364 1492.07 345.381C1496.63 348.399 1506.32 356.675 1514.05 365.249L1513.4 326.766L1410.6 328.466L1396.17 305.092L1555.43 302.467L1569.88 325.84L1539.25 326.34L1541.35 453.032L1514.37 435.779L1515.35 409.91C1500.65 421.116 1488.64 426.654 1476.85 426.842ZM1514.62 382.665L1514.56 379.295C1503.17 369.647 1488.48 364.269 1474.7 364.494C1459.81 364.739 1448.78 377.577 1449.03 392.462C1449.19 402.007 1455.47 407.522 1463.33 407.402C1475.13 407.208 1500.73 392.729 1514.62 382.665Z" fill="#FF9E22"/>
<path d="M1554.18 284.454L1537.91 266.492L1555.56 250.492L1571.84 268.441L1554.18 284.454Z" fill="#FF9E22"/>
<path d="M1721.83 436.896C1721.02 440.741 1717.82 442.355 1713.41 441.447C1705.99 439.89 1685.89 408.408 1687.96 398.515C1688.59 395.485 1691.69 392.977 1696.1 393.904L1704.07 395.574L1714.67 344.979L1687.17 339.221L1678.25 313.247L1827.29 344.445L1836.2 370.425L1808.7 364.667L1782.75 488.681L1760.25 465.877L1768.42 433.717L1724.43 424.52L1721.83 436.896ZM1739.97 350.271L1729.26 401.413L1772.7 410.516L1783.41 359.374L1739.97 350.271Z" fill="#FF9E22"/>
<path d="M1862.21 486.333C1837.57 478.567 1823.55 448.262 1828.69 431.904C1832.08 421.199 1841.02 414.3 1860.4 415.394L1860.56 414.858C1846.47 406.304 1837.74 389.121 1841.87 375.997C1846.5 361.264 1862.52 352.463 1881.28 358.363C1894.42 362.486 1907.54 376.918 1902.22 393.809C1898.44 405.853 1883.79 411.259 1865.29 405.441C1864.7 407.314 1866.07 409.518 1868.95 411.596C1871.64 413.337 1875.5 415.138 1879.77 416.476C1884.6 417.997 1889.63 420.759 1891.5 421.34L1897.08 447.542C1893.96 446.265 1889.04 444.121 1884.76 442.784C1855.83 433.681 1845.02 440.876 1843.08 447.043C1841.48 452.13 1844.51 458.386 1861.65 463.787C1875.6 468.153 1901.61 463.102 1922.76 452.083L1913.73 480.748C1898.94 487.576 1877.75 491.224 1862.21 486.333ZM1870.87 398.955C1879.79 401.473 1887.9 398.141 1890.27 390.63C1892.38 383.941 1888.08 376.996 1881.12 374.803C1874.68 372.77 1865.5 375.778 1862.62 384.88C1861.46 388.641 1861.25 392.104 1862.26 394.476C1865.05 396.839 1867.92 398.028 1870.87 398.955Z" fill="#FF9E22"/>
<path d="M1946.95 513.947C1924.48 504.3 1913.05 471.884 1920.79 436.077C1927.94 437.925 1946.74 438.969 1952.77 438.493C1955.89 438.309 1960.43 436.278 1961.43 433.967C1962.76 430.864 1964.09 423.493 1962.66 416.144L1922.14 398.74L1918.55 371.523L2063.07 433.605L2066.67 460.822L2040.87 449.743L1990.86 566.139L1973.33 539.343L1984.81 516.155C1972.5 518.5 1956.25 517.941 1946.95 513.947ZM1977.37 422.47C1977.32 438.958 1976.58 456.359 1974.58 461.006C1972.48 465.908 1966.75 467.124 1948.46 464.154C1940.46 462.853 1935.89 464.267 1933.55 469.679C1930.55 476.653 1933.1 483.553 1945.49 488.869C1955.04 492.969 1982.08 492.654 1996.38 487.799L2017.12 439.538L1977.37 422.47Z" fill="#FF9E22"/>
<path d="M2064.68 563.547C2062.7 566.952 2059.15 567.473 2055.25 565.211C2048.7 561.39 2039.57 525.178 2044.67 516.444C2046.22 513.765 2049.97 512.38 2053.86 514.643L2060.89 518.742L2086.92 474.099L2062.65 459.947L2062.39 432.487L2193.93 509.165L2194.17 536.627L2169.91 522.481L2106.1 631.914L2091.96 603.199L2109.88 575.262L2071.04 552.632L2064.68 563.547ZM2109.24 487.106L2082.93 532.236L2121.26 554.6L2147.58 509.457L2109.24 487.106Z" fill="#FF9E22"/>
<path d="M2291.43 579.737L2395.43 674.525L2389.91 701.415L2355.23 669.831C2354.49 683.581 2351.39 698.232 2347.61 702.39C2343.26 707.162 2332.97 708.439 2322.67 705.13C2329.14 728.492 2328.19 738.276 2318.73 748.651C2304.92 763.801 2281.55 761.513 2266.6 747.884C2248.34 731.242 2243.06 707.43 2253.28 662.031L2265.29 663.451C2257.36 698.41 2260.98 712.353 2273.86 724.099C2285.08 734.306 2300.51 732.798 2307.7 724.913C2311.86 720.35 2313.2 710.541 2309.11 699.603C2301.21 696.585 2291.39 690.673 2287.86 687.459C2284.75 684.625 2283.61 681.69 2283.26 678.333C2283.03 673.177 2284.41 659.986 2286.86 657.284C2289.33 654.58 2291.33 654.884 2294.44 657.735L2310.01 671.923C2321.88 679.319 2335.73 682.06 2340.45 676.872C2342.36 674.792 2343.38 666.992 2342.79 658.478L2285.91 606.627L2291.43 579.737Z" fill="#FF9E22"/>
<path d="M2384.05 862.229L2386.16 860.81C2370.86 857.618 2348.55 844.905 2341.61 836.8C2325.91 818.423 2327.73 782.52 2340.75 771.386C2344.82 767.917 2351.16 765.824 2355.84 766.99C2356.35 752.879 2361.32 737.926 2370.91 729.707C2380.73 721.313 2390.74 723.494 2401.49 736.1L2422.48 760.639L2432.94 751.698L2387.5 698.534L2396.32 672.536L2510.93 806.625L2502.12 832.622L2483.86 811.27L2387.57 893.586L2384.05 862.229ZM2416.9 788.699L2393.73 761.576C2384.96 751.333 2377.92 749.592 2372.37 754.34C2368.97 757.258 2366.27 763.61 2368.43 769.171C2377.9 772.895 2390.46 782.847 2402.14 796.512C2400.22 805.918 2397.71 812.5 2392.16 817.248C2390.02 819.07 2383.9 818.389 2374.77 807.705C2372.02 804.52 2367.94 798.408 2365.32 793.624C2357.13 788.811 2347.95 788.884 2344.53 791.8C2340.06 795.634 2340.87 803.071 2350.18 813.961C2358.57 823.783 2382.34 835.595 2407.3 842.724L2467.08 791.634L2447.55 768.779L2425.13 787.945C2421.72 790.88 2418.72 790.845 2416.9 788.699Z" fill="#FF9E22"/>
<path d="M2454.04 924.262C2450.75 926.402 2447.32 925.284 2444.86 921.524C2440.71 915.172 2448.79 878.692 2457.26 873.169C2459.86 871.492 2463.82 871.915 2466.28 875.675L2470.72 882.501L2514.01 854.25L2498.66 830.729L2510.74 806.067L2593.96 933.556L2581.87 958.235L2566.51 934.703L2460.44 1003.95L2460.67 971.936L2489.19 954.987L2464.62 917.347L2454.04 924.262ZM2528.14 875.894L2484.38 904.455L2508.63 941.611L2552.39 913.07L2528.14 875.894Z" fill="#FF9E22"/>
<path d="M509.514 1727.4L519.334 1773.26L416.014 1818.22L416.116 1818.65L528.811 1817.6L538.584 1863.24L385.606 1895.97L379.547 1867.69L501.677 1841.56L501.594 1841.13L373.635 1840.06L368.502 1816.06L484.798 1762.71L484.714 1762.28L362.584 1788.43L356.524 1760.14L509.514 1727.4Z" fill="#FF9E22"/>
<path d="M508.723 1890.24L518.02 1918.98L405.937 1955.23L396.646 1926.49L508.723 1890.24ZM547.051 1877.83L556.348 1906.57L531.769 1914.54L522.459 1885.77L547.051 1877.83Z" fill="#FF9E22"/>
<path d="M505.729 2005.84C516.281 2001.56 526.814 1994.92 522.532 1984.35C516.924 1970.57 503.846 1973.28 478.678 1983.51C451.694 1994.45 441.521 2001.44 446.632 2014.02C450.427 2023.34 460.065 2024.38 477.723 2017.23L488.614 2044.02C459.994 2055.63 439.097 2050.18 427.067 2020.54C415.69 1992.53 423.669 1973.2 467.51 1955.41C512.349 1937.19 532.437 1950.55 542.917 1976.33C553.378 2002.08 542.381 2022.17 516.608 2032.64L505.729 2005.84Z" fill="#FF9E22"/>
<path d="M562.337 2028.86L575.367 2054.67L561.303 2061.77L561.5 2062.17C574.434 2062.5 584.921 2066.76 590.553 2077.91C591.354 2079.48 592.038 2081.33 592.632 2083L566.829 2096.04C565.636 2093.2 564.358 2090.17 562.985 2087.42C558.239 2078.06 548.012 2069.96 533.938 2077.07L470.788 2108.97L457.159 2082L562.337 2028.86Z" fill="#FF9E22"/>
<path d="M619.25 2126.57C638.903 2157.17 625.736 2177.12 590.861 2198.61C556.574 2219.77 531.912 2221.08 513.756 2191.63C494.113 2161.02 507.28 2141.06 542.143 2119.58C576.441 2098.43 601.093 2097.11 619.25 2126.57ZM531.275 2180.82C537.711 2191.25 550.038 2188.29 575.01 2172.9C599.987 2157.49 608.162 2147.82 601.739 2137.38C593.914 2124.71 578.508 2132.65 557.993 2145.3C537.497 2157.94 523.452 2168.15 531.275 2180.82Z" fill="#FF9E22"/>
<path d="M600.184 2253.1L577.113 2269.78C558.303 2283.37 541.78 2288.56 526.28 2270.85L538.702 2261.87C544.257 2267.31 552.826 2265.72 559.395 2260.96L562.229 2258.92L555.563 2249.69L583.243 2229.66L600.184 2253.1Z" fill="#FF9E22"/>
<path d="M673.701 2320.35L670.322 2323.48C659.538 2333.42 655.438 2342.88 666.732 2355.1C673.263 2362.18 684.01 2364.79 693.67 2355.88C704.121 2346.22 703.087 2337.34 694.288 2317.16C682.364 2290.02 682.121 2272.65 701.287 2254.96C723.651 2234.33 747.719 2237.47 767.92 2259.35C786.938 2279.96 791.886 2303.1 769.826 2323.44L766.618 2326.42L746.114 2304.21C756.904 2294.24 759.768 2284.75 751.586 2275.91C741.938 2265.45 732.812 2268.8 726.063 2275.03C718.98 2281.57 716.546 2287.66 721.435 2301.35L730.199 2326.34C738.665 2350.72 733.972 2363.39 719.979 2376.31C695.668 2398.74 671.053 2394.03 647.882 2368.92C623.671 2342.68 626.392 2321.1 647.638 2301.49L652.314 2297.19L673.701 2320.35Z" fill="#FF9E22"/>
<path d="M781.215 2336L803.423 2354.51L795.706 2363.75L796.05 2364.04C808.812 2360.69 818.835 2363.36 828.596 2371.5C839.196 2380.33 842.589 2391.99 837.395 2403.34L837.734 2403.62C849.255 2396.98 861.73 2399.12 872.67 2408.22C887.962 2420.97 887.219 2436.6 872.645 2454.08L817.825 2519.84L794.623 2500.51L847.324 2437.27C853.627 2429.7 854.614 2423.39 848.054 2417.91C840.658 2411.76 831.721 2412.87 823.046 2423.3L773.413 2482.84L750.199 2463.51L802.911 2400.25C809.226 2392.68 810.194 2386.38 803.635 2380.9C796.239 2374.75 787.322 2375.87 778.635 2386.29L729.013 2445.84L705.799 2426.5L781.215 2336Z" fill="#FF9E22"/>
<path d="M888.747 2468.26L890.268 2465.87C904.866 2442.95 925.507 2445.2 944.714 2457.45C975.015 2476.76 972.74 2492.97 961.326 2510.87L928.007 2563.17C922.132 2572.4 919.968 2577 918.911 2584.37L894.522 2568.84C894.866 2564.63 896.596 2560.29 897.967 2556.49L897.606 2556.26C885.105 2562.83 876.246 2560.83 864.055 2553.06C846.315 2541.76 849.701 2522.61 858.167 2509.3C870.067 2490.65 882.455 2487.91 903.066 2494.28L919.945 2499.58C928.828 2502.39 933.289 2501.07 937.525 2494.42C942.356 2486.84 941.982 2480.1 933.461 2474.7C925.72 2469.74 918.348 2472.33 913.41 2480.09L911.646 2482.87L888.747 2468.26ZM923.046 2517.14C917.888 2517.48 912.583 2516.45 908.965 2515.18C897.214 2510.8 889.958 2513.21 884.315 2522.07C879.497 2529.65 878.254 2537.69 885.093 2542.04C891.931 2546.41 903.623 2547.62 910.575 2536.72L923.046 2517.14Z" fill="#FF9E22"/>
<path d="M1015.67 2458.67L1042.3 2472.96L968.313 2610.71L941.703 2596.4L1015.67 2458.67Z" fill="#FF9E22"/>
<path d="M1059.19 2481.4L1086.49 2494.35L1019.41 2635.68L992.091 2622.71L1059.19 2481.4Z" fill="#FF9E22"/>
<path d="M1194.01 2646C1199.21 2640.52 1204.46 2631.16 1206.39 2625.1L1232.28 2633.29C1227.2 2649.39 1216.11 2662.64 1203.09 2672.54L1214 2706.32L1182.04 2696.21L1177.32 2682.08C1166.97 2688.68 1151.45 2689.75 1136.84 2685.13C1099.03 2673.16 1099.42 2644.34 1104.71 2627.64C1110.2 2610.29 1126.18 2599.72 1148.39 2594.12L1145.62 2584.73C1141.17 2569.78 1141.41 2563.18 1144.12 2554.63C1150.29 2535.19 1169.7 2528.24 1192.06 2535.31C1217.53 2543.38 1224.88 2560.87 1219.38 2578.2C1214.7 2593.03 1202.7 2601.87 1181.26 2608.65L1194.01 2646ZM1156.78 2616.29C1142.73 2621.5 1136.43 2627.55 1133.54 2636.75C1130.56 2646.14 1134.64 2658.68 1148.22 2662.99C1156.36 2665.57 1163.6 2664.42 1170.61 2659.73L1156.78 2616.29ZM1171.41 2580.25L1173.37 2586.38L1180.25 2583.51C1188.66 2580.19 1193.15 2575.42 1194.8 2570.2C1197.39 2562.05 1193.35 2555.94 1185.62 2553.49C1178.51 2551.25 1171.49 2553.85 1169.05 2561.58C1167.78 2565.55 1168.51 2571.98 1171.41 2580.25Z" fill="#FF9E22"/>
<path d="M1311.73 2568.58L1358.24 2574.14L1367.32 2686.38L1367.76 2686.43L1403.25 2579.52L1449.57 2585.05L1431.01 2740.3L1402.3 2736.86L1417.13 2612.94L1416.69 2612.89L1374.26 2733.52L1349.91 2730.59L1337.11 2603.36L1336.68 2603.31L1321.86 2727.25L1293.17 2723.82L1311.73 2568.58Z" fill="#FF9E22"/>
<path d="M1490.37 2686.22L1490.51 2695.63C1490.75 2709.41 1494.69 2722.93 1505.84 2722.75C1515.92 2722.59 1519.95 2714.85 1521.47 2700.39L1548.6 2699.95C1547.96 2727.33 1535.07 2742.86 1506.61 2743.31C1462.85 2744.04 1460.53 2710.34 1460.07 2681.01C1459.56 2649.49 1465.22 2620.06 1505.93 2619.4C1541.17 2618.84 1549.44 2642.35 1550.03 2678.47L1550.12 2685.25L1490.37 2686.22ZM1520.94 2667.77C1520 2649.83 1517.65 2639.8 1505.17 2640C1493.13 2640.18 1489.82 2652.73 1490 2663.67L1490.07 2668.26L1520.94 2667.77Z" fill="#FF9E22"/>
<path d="M1633.22 2720.3L1632.78 2720.34C1627.36 2731.92 1619.53 2737.33 1607.77 2738.52C1583.12 2741.03 1569.95 2724.08 1565.54 2680.48C1561.13 2636.89 1570.63 2617.64 1595.25 2615.15C1606.6 2614 1614.69 2617.82 1621.96 2626.53L1622.39 2626.49L1617.4 2577.24L1647.46 2574.18L1663.24 2729.82L1634.48 2732.73L1633.22 2720.3ZM1615.22 2714.43C1628.52 2713.08 1629.81 2699.73 1627.22 2674.23C1624.64 2648.74 1620.7 2635.91 1607.4 2637.26C1594.33 2638.59 1593.04 2651.92 1595.63 2677.44C1598.21 2702.94 1602.15 2715.74 1615.22 2714.43Z" fill="#FF9E22"/>
<path d="M1663.28 2569.12L1693.01 2563.79L1697.57 2589.23L1667.83 2594.54L1663.28 2569.12ZM1670.38 2608.78L1700.12 2603.45L1720.9 2719.43L1691.15 2724.74L1670.38 2608.78Z" fill="#FF9E22"/>
<path d="M1803.97 2685.85L1803.55 2685.96C1800.32 2698.78 1791.04 2706.63 1778.74 2709.84C1760.52 2714.58 1747.11 2707.43 1741.27 2684.95L1719.26 2600.36L1748.52 2592.75L1768.97 2671.41C1771.95 2682.85 1776.91 2686.32 1785.62 2684.06C1795.6 2681.47 1799.5 2673.88 1796.19 2661.16L1776.5 2585.47L1805.75 2577.85L1835.43 2691.92L1807.45 2699.21L1803.97 2685.85Z" fill="#FF9E22"/>
<path d="M1822.62 2574.3L1849.4 2563.43L1853.93 2574.59L1854.33 2574.43C1857.39 2561.61 1864.48 2554.02 1876.26 2549.24C1889.04 2544.06 1900.93 2546.57 1908.5 2556.5L1908.9 2556.32C1908.48 2543.04 1916.22 2533.03 1929.42 2527.69C1947.89 2520.21 1961.3 2528.24 1969.86 2549.34L2002.02 2628.7L1974.01 2640.04L1943.08 2563.73C1939.39 2554.61 1934.3 2550.76 1926.36 2553.98C1917.44 2557.59 1914.23 2565.97 1919.33 2578.57L1948.44 2650.4L1920.44 2661.75L1889.52 2585.46C1885.8 2576.32 1880.71 2572.48 1872.8 2575.69C1863.87 2579.31 1860.65 2587.71 1865.75 2600.29L1894.86 2672.11L1866.87 2683.48L1822.62 2574.3Z" fill="#FF9E22"/>
<path d="M2071.46 2406.02L2085.26 2427.88L2038.01 2457.7L2057.66 2488.84L2102.13 2460.77L2115.93 2482.63L2071.47 2510.71L2093.93 2546.27L2143.02 2515.28L2156.84 2537.14L2081.05 2584.99L1997.52 2452.69L2071.46 2406.02Z" fill="#FF9E22"/>
<path d="M2103.99 2430.22L2126.76 2412.41L2135.26 2423.27L2135.61 2423C2133.46 2409.95 2138.84 2399.05 2148.85 2391.22C2163.67 2379.63 2178.82 2380.83 2193.13 2399.12L2246.99 2467.95L2223.19 2486.57L2173.12 2422.58C2165.82 2413.26 2159.88 2412.08 2152.81 2417.61C2144.71 2423.96 2144.13 2432.47 2152.23 2442.82L2200.42 2504.4L2176.62 2523.01L2103.99 2430.22Z" fill="#FF9E22"/>
<path d="M2169.4 2333.64L2191.61 2313.14L2214.49 2337.93L2227.37 2326.04L2241.33 2341.17L2228.45 2353.06L2271.67 2399.9C2277.92 2406.66 2281.89 2408.06 2288.32 2402.12C2290.1 2400.49 2291.71 2398.7 2293.02 2397.21L2307.28 2412.65C2302.9 2417.58 2298.83 2422.22 2293.68 2426.97C2276.3 2443.02 2268.17 2440.67 2251.99 2423.14L2206.24 2373.55L2194.97 2383.95L2181 2368.83L2192.28 2358.43L2169.4 2333.64Z" fill="#FF9E22"/>
<path d="M2297.78 2344.49L2304.69 2350.9C2314.81 2360.27 2327.29 2366.76 2334.89 2358.57C2341.74 2351.19 2338.94 2342.93 2329.54 2331.82L2348.01 2311.9C2367.33 2331.32 2369.65 2351.38 2350.29 2372.25C2320.51 2404.38 2294.59 2382.73 2273.06 2362.77C2249.93 2341.33 2232.59 2316.89 2260.28 2287.02C2284.25 2261.16 2306.95 2271.46 2333.46 2296.02L2338.43 2300.64L2297.78 2344.49ZM2305.62 2309.62C2292 2297.9 2283.12 2292.65 2274.64 2301.81C2266.43 2310.65 2273.21 2321.7 2281.24 2329.14L2284.61 2332.26L2305.62 2309.62Z" fill="#FF9E22"/>
<path d="M2300.27 2246.56L2318.15 2223.84L2330.53 2233.59L2330.81 2233.24C2325.64 2221.39 2325.07 2210.07 2332.78 2200.25C2333.87 2198.88 2335.26 2197.46 2336.51 2196.23L2359.24 2214.08C2357.17 2216.37 2354.97 2218.82 2353.06 2221.22C2346.58 2229.49 2343.57 2242.17 2355.95 2251.9L2411.55 2295.63L2392.87 2319.37L2300.27 2246.56Z" fill="#FF9E22"/>
<path d="M2344.22 2190.67L2360.09 2166.51L2370.52 2173.36L2370.76 2172.98C2365.21 2161.49 2365.92 2152.02 2372.41 2142.12C2386 2121.44 2407.43 2121.89 2444.05 2145.92C2480.66 2169.94 2489.6 2189.43 2476.03 2210.12C2469.78 2219.63 2461.74 2223.53 2450.39 2223.66L2450.15 2224.04L2491.53 2251.19L2474.94 2276.45L2344.22 2190.67ZM2451.23 2205.63C2458.42 2194.64 2448.89 2185.23 2427.47 2171.18C2406.04 2157.12 2393.62 2152.11 2386.42 2163.1C2379.08 2174.27 2388.62 2183.67 2410.04 2197.73C2431.46 2211.78 2443.89 2216.79 2451.23 2205.63Z" fill="#FF9E22"/>
<path d="M2401.65 2100.32L2415.38 2074.9L2429.26 2082.37L2429.46 2081.99C2422.35 2071.18 2419.84 2060.13 2425.77 2049.16C2426.61 2047.61 2427.74 2045.98 2428.76 2044.54L2454.19 2058.27C2452.56 2060.86 2450.8 2063.64 2449.35 2066.34C2444.36 2075.6 2443.56 2088.61 2457.43 2096.09L2519.68 2129.67L2505.33 2156.27L2401.65 2100.32Z" fill="#FF9E22"/>
<path d="M2398.81 2019.02L2411.57 1991.62L2435 2002.53L2422.23 2029.92L2398.81 2019.02ZM2435.34 2036.03L2448.09 2008.64L2554.88 2058.37L2542.11 2085.77L2435.34 2036.03Z" fill="#FF9E22"/>
<path d="M2538.4 1998.54L2542.08 1999.94C2551.71 2003.62 2559.99 2000.92 2563.67 1991.31C2566.95 1982.72 2564.85 1975.35 2556.05 1971.99C2548.88 1969.25 2543.81 1972.7 2539.66 1977.45L2524.93 1994.55C2513.45 2007.99 2500.78 2012.31 2485.23 2006.37C2467.03 1999.4 2456.47 1982.24 2467.57 1953.18C2477.34 1927.61 2493.41 1919.92 2513.26 1927.5L2517.76 1929.23L2508.06 1954.6C2497.02 1950.36 2490.23 1951.53 2486.72 1960.74C2483.98 1967.89 2485.73 1975.6 2493.51 1978.57C2498.82 1980.6 2504.43 1979.47 2511.09 1971.22L2523.31 1956.43C2536.05 1940.9 2547.55 1937.78 2564.1 1944.11C2587.24 1952.95 2592.13 1974.5 2583.06 1998.25C2570.94 2029.96 2553.66 2033.45 2532.59 2025.39L2528.71 2023.91L2538.4 1998.54Z" fill="#FF9E22"/>
<path d="M2557.63 1894.22L2566.71 1896.73C2580.01 1900.43 2594.1 1900.46 2597.08 1889.69C2599.77 1879.97 2593.49 1873.92 2580.03 1868.38L2587.29 1842.19C2613.38 1850.56 2624.64 1867.32 2617.03 1894.77C2605.34 1936.98 2572.37 1929.66 2544.07 1921.81C2513.68 1913.41 2487.02 1899.66 2497.91 1860.4C2507.31 1826.41 2532.22 1825.12 2567.06 1834.77L2573.61 1836.58L2557.63 1894.22ZM2548.58 1859.65C2531.09 1855.49 2520.8 1854.91 2517.45 1866.95C2514.24 1878.57 2525.34 1885.26 2535.89 1888.2L2540.33 1889.42L2548.58 1859.65Z" fill="#FF9E22"/>
<path d="M2597.07 1798.55L2600.94 1799.25C2611.08 1801.05 2618.71 1796.85 2620.54 1786.71C2622.15 1777.67 2618.69 1770.83 2609.42 1769.18C2601.89 1767.83 2597.55 1772.17 2594.35 1777.6L2583.09 1797.18C2574.34 1812.51 2562.71 1819.11 2546.32 1816.19C2527.14 1812.78 2513.57 1797.89 2519.02 1767.29C2523.81 1740.34 2538.16 1729.78 2559.07 1733.51L2563.82 1734.36L2559.05 1761.09C2547.4 1759.01 2540.98 1761.42 2539.24 1771.11C2537.91 1778.66 2541.05 1785.9 2549.24 1787.36C2554.85 1788.36 2560.13 1786.17 2565.13 1776.84L2574.35 1760.03C2583.96 1742.39 2594.67 1737.18 2612.12 1740.29C2636.49 1744.63 2645.33 1764.89 2640.88 1789.9C2634.9 1823.31 2618.61 1829.97 2596.39 1826.01L2592.31 1825.29L2597.07 1798.55Z" fill="#FF9E22"/>
</svg>
