<svg width="3000" height="3000" viewBox="0 0 3000 3000" fill="none" xmlns="http://www.w3.org/2000/svg">
<path fill-rule="evenodd" clip-rule="evenodd" d="M1269.76 747.412C1290.21 743.695 1303.93 726.083 1326.91 729.732C1336.63 745.834 1363.23 751.246 1381.41 755.861C1387.05 741.074 1401.13 738.554 1398.33 711.504C1390.31 693.074 1404.58 683.924 1439.43 680.78C1470.15 671.109 1470.59 678.213 1483.27 679.236C1496.15 680.212 1509.07 670.805 1517.55 677.738L1541.09 676.74C1586.7 674.476 1584.49 694.117 1594.97 710.605C1602.31 722.148 1595.86 738.106 1604.74 748.226C1614.96 753.459 1619.62 759.775 1618.62 767.184C1629.52 762.088 1640.45 761.274 1651.34 764.886C1656.18 730.503 1721.98 719.607 1743.57 782.069C1773.69 785.657 1786.04 795.928 1786.76 819.142C1846.27 885.447 1769.57 887.841 1760.57 921.373C1722.06 969.997 1721.85 901.274 1711.33 923.092C1755.46 988.897 1732.78 1065.82 1675.32 1149.05C1677.13 1177.14 1676.81 1205.23 1671.87 1233.32L1666.69 1257.16C1677.42 1276.31 1679.69 1315.1 1698.94 1314.65C1710.03 1308.52 1720.04 1315.45 1728.86 1335.49C1737.41 1337.99 1740.28 1347.07 1737.49 1362.68C1749.16 1378.38 1759.78 1395.22 1769.2 1413.12L1767.88 1430.65C1782.76 1441.5 1781.87 1460.8 1765.16 1466.51C1762.65 1511.88 1738.76 1536.5 1700.21 1546.95C1699.13 1567.81 1685.4 1585.17 1661.08 1585.17H1349.02C1317.21 1585.17 1303.86 1568.89 1308.35 1546.02C1261.63 1545 1239.8 1523.3 1242.8 1480.81C1225.24 1466.08 1223.48 1451.27 1237.51 1436.48C1237.18 1423.3 1237.72 1410.08 1244.17 1396.89C1240.9 1386.96 1246.01 1381.92 1251.98 1379.38C1269.27 1368.49 1274.11 1357.57 1266.59 1346.66C1283.31 1335.35 1283.14 1308.54 1296.48 1305.45C1343.3 1320.66 1320.81 1245.84 1332.98 1216.07C1318.78 1192.4 1314.74 1166.8 1320.87 1134.41C1248.84 1056.98 1247.35 980.791 1285.61 918.103C1251.52 974.45 1233.81 892.099 1202.13 874.94C1185.2 856.992 1189.72 839.06 1215.68 821.087C1207.44 788.125 1241.43 787.916 1254.24 771.316C1256.9 761.726 1263.73 752.1 1269.76 747.412ZM1360.37 1560.36C1363.4 1560.36 1365.86 1563.47 1365.86 1567.32C1365.86 1571.16 1363.35 1574.27 1360.36 1574.27C1357.3 1574.27 1354.87 1571.16 1354.87 1567.32C1354.87 1563.47 1357.34 1560.36 1360.37 1560.36ZM1352.23 1354.98C1355.26 1354.98 1357.72 1358.12 1357.72 1361.91C1357.68 1365.77 1355.22 1368.89 1352.19 1368.89C1349.16 1368.89 1346.7 1365.77 1346.7 1361.91C1346.74 1358.12 1349.2 1354.98 1352.23 1354.98ZM1377.79 1560.6C1380.82 1560.6 1383.27 1563.73 1383.27 1567.58C1383.27 1571.38 1380.78 1574.5 1377.78 1574.5C1374.74 1574.5 1372.25 1571.38 1372.27 1567.58C1372.27 1563.73 1374.75 1560.6 1377.79 1560.6ZM1369.64 1355.18C1372.69 1355.18 1375.13 1358.31 1375.13 1362.16C1375.13 1365.97 1372.65 1369.09 1369.6 1369.09C1366.6 1369.09 1364.12 1365.97 1364.12 1362.16C1364.15 1358.31 1366.61 1355.18 1369.64 1355.18ZM1396.85 1560.18C1399.89 1560.18 1402.35 1563.31 1402.35 1567.16C1402.35 1570.98 1399.84 1574.1 1396.82 1574.1C1393.8 1574.1 1391.32 1570.98 1391.32 1567.16C1391.32 1563.31 1393.83 1560.18 1396.85 1560.18ZM1388.72 1354.77C1391.75 1354.77 1394.21 1357.87 1394.21 1361.73C1394.17 1365.55 1391.71 1368.69 1388.69 1368.69C1385.66 1368.69 1383.18 1365.55 1383.18 1361.73C1383.18 1357.87 1385.69 1354.77 1388.72 1354.77ZM1415.32 1559.84C1418.36 1559.84 1420.82 1562.95 1420.82 1566.79C1420.79 1570.63 1418.32 1573.74 1415.3 1573.74C1412.29 1573.74 1409.8 1570.63 1409.82 1566.79C1409.82 1562.95 1412.29 1559.84 1415.32 1559.84ZM1407.19 1354.45C1410.22 1354.45 1412.69 1357.59 1412.67 1361.39C1412.67 1365.25 1410.19 1368.36 1407.14 1368.36C1404.15 1368.36 1401.66 1365.25 1401.66 1361.39C1401.69 1357.59 1404.18 1354.45 1407.19 1354.45ZM1432.37 1560.43C1435.42 1560.43 1437.88 1563.57 1437.88 1567.42C1437.84 1571.22 1435.37 1574.37 1432.37 1574.37C1429.31 1574.37 1426.84 1571.22 1426.88 1567.42C1426.88 1563.57 1429.35 1560.43 1432.37 1560.43ZM1424.25 1355.05C1427.26 1355.05 1429.74 1358.17 1429.7 1362.01C1429.7 1365.85 1427.23 1368.98 1424.21 1368.98C1421.19 1368.98 1418.71 1365.85 1418.71 1362.01C1418.71 1358.17 1421.22 1355.05 1424.25 1355.05ZM1450.37 1560.55C1453.41 1560.55 1455.89 1563.68 1455.87 1567.51C1455.87 1571.36 1453.38 1574.5 1450.36 1574.5C1447.32 1574.5 1444.86 1571.36 1444.86 1567.51C1444.86 1563.68 1447.33 1560.55 1450.37 1560.55ZM1442.23 1355.18C1445.25 1355.18 1447.73 1358.31 1447.73 1362.16C1447.73 1365.95 1445.25 1369.09 1442.22 1369.09C1439.19 1369.09 1436.71 1365.95 1436.71 1362.16C1436.72 1358.31 1439.21 1355.18 1442.23 1355.18ZM1467.42 1560.27C1470.46 1560.27 1472.93 1563.4 1472.9 1567.21C1472.9 1571.06 1470.45 1574.2 1467.41 1574.2C1464.37 1574.2 1461.94 1571.05 1461.94 1567.21C1461.94 1563.4 1464.42 1560.27 1467.42 1560.27ZM1457.31 1351.98C1460.33 1351.98 1462.81 1355.13 1462.81 1358.95C1462.81 1362.78 1460.33 1365.92 1457.31 1365.92C1454.27 1365.92 1451.8 1362.78 1451.81 1358.95C1451.81 1355.13 1454.28 1351.98 1457.31 1351.98ZM1485.42 1560.36C1488.45 1560.36 1490.94 1563.52 1490.89 1567.35C1490.89 1571.2 1488.45 1574.31 1485.38 1574.31C1482.36 1574.31 1479.91 1571.2 1479.91 1567.35C1479.92 1563.52 1482.39 1560.36 1485.42 1560.36ZM1574.32 1360.73C1577.33 1360.73 1579.82 1363.87 1579.81 1367.71C1579.81 1371.53 1577.31 1374.65 1574.29 1374.65C1571.25 1374.65 1568.79 1371.54 1568.79 1367.71C1568.81 1363.87 1571.3 1360.73 1574.32 1360.73ZM1504.84 1560.98C1507.89 1560.98 1510.34 1564.09 1510.34 1567.94C1510.34 1571.77 1507.87 1574.89 1504.81 1574.89C1501.81 1574.89 1499.35 1571.77 1499.35 1567.94C1499.35 1564.1 1501.83 1560.98 1504.84 1560.98ZM1593.74 1361.35C1596.76 1361.35 1599.22 1364.45 1599.22 1368.29C1599.22 1372.08 1596.76 1375.23 1593.68 1375.23C1590.7 1375.23 1588.21 1372.08 1588.21 1368.29C1588.25 1364.45 1590.73 1361.35 1593.74 1361.35ZM1523.35 1560.18C1526.36 1560.18 1528.83 1563.31 1528.83 1567.18C1528.81 1570.98 1526.34 1574.12 1523.31 1574.12C1520.28 1574.12 1517.81 1570.98 1517.82 1567.18C1517.82 1563.31 1520.3 1560.18 1523.35 1560.18ZM1612.22 1360.56C1615.24 1360.56 1617.73 1363.67 1617.73 1367.49C1617.68 1371.36 1615.24 1374.45 1612.22 1374.45C1609.18 1374.45 1606.73 1371.36 1606.73 1367.49C1606.73 1363.68 1609.2 1360.56 1612.22 1360.56ZM1541.81 1560.31C1544.83 1560.31 1547.31 1563.45 1547.31 1567.29C1547.31 1571.1 1544.83 1574.24 1541.78 1574.24C1538.75 1574.24 1536.3 1571.1 1536.3 1567.29C1536.3 1563.45 1538.79 1560.31 1541.81 1560.31ZM1630.72 1360.71C1633.73 1360.71 1636.2 1363.82 1636.2 1367.65C1636.18 1371.45 1633.73 1374.57 1630.66 1374.57C1627.64 1374.57 1625.18 1371.45 1625.18 1367.65C1625.18 1363.82 1627.65 1360.71 1630.72 1360.71ZM1559.33 1560.03C1562.36 1560.03 1564.81 1563.16 1564.81 1566.96C1564.81 1570.81 1562.33 1573.88 1559.32 1573.88C1556.31 1573.88 1553.8 1570.81 1553.84 1566.96C1553.84 1563.16 1556.31 1560.03 1559.33 1560.03ZM1648.23 1360.36C1651.27 1360.36 1653.69 1363.48 1653.69 1367.34C1653.69 1371.14 1651.22 1374.28 1648.2 1374.28C1645.19 1374.28 1642.71 1371.14 1642.71 1367.34C1642.71 1363.48 1645.21 1360.36 1648.23 1360.36ZM1577.81 1560.6C1580.84 1560.6 1583.33 1563.73 1583.28 1567.58C1583.28 1571.38 1580.84 1574.5 1577.81 1574.5C1574.75 1574.5 1572.32 1571.38 1572.32 1567.58C1572.32 1563.73 1574.79 1560.6 1577.81 1560.6ZM1666.72 1360.96C1669.73 1360.96 1672.18 1364.08 1672.18 1367.91C1672.18 1371.76 1669.71 1374.87 1666.67 1374.87C1663.65 1374.87 1661.18 1371.76 1661.18 1367.91C1661.18 1364.08 1663.68 1360.96 1666.72 1360.96ZM1595.82 1560.27C1598.85 1560.27 1601.32 1563.4 1601.32 1567.22C1601.32 1571.07 1598.85 1574.2 1595.78 1574.2C1592.76 1574.2 1590.29 1571.07 1590.29 1567.22C1590.32 1563.4 1592.79 1560.27 1595.82 1560.27ZM1684.68 1360.61C1687.75 1360.61 1690.21 1363.75 1690.21 1367.6C1690.19 1371.41 1687.75 1374.54 1684.68 1374.54C1681.63 1374.54 1679.19 1371.4 1679.19 1367.6C1679.19 1363.75 1681.69 1360.61 1684.68 1360.61ZM1612.86 1559.96C1615.91 1559.96 1618.38 1563.07 1618.38 1566.92C1618.33 1570.75 1615.88 1573.85 1612.86 1573.85C1609.82 1573.85 1607.33 1570.75 1607.35 1566.92C1607.35 1563.07 1609.82 1559.96 1612.86 1559.96ZM1701.75 1360.31C1704.82 1360.31 1707.27 1363.43 1707.27 1367.24C1707.23 1371.09 1704.77 1374.18 1701.73 1374.18C1698.69 1374.18 1696.25 1371.08 1696.25 1367.24C1696.25 1363.43 1698.73 1360.31 1701.75 1360.31ZM1629.92 1560.08C1632.94 1560.08 1635.43 1563.2 1635.41 1567.06C1635.41 1570.85 1632.94 1574 1629.9 1574C1626.86 1574 1624.39 1570.85 1624.39 1567.06C1624.39 1563.2 1626.86 1560.08 1629.92 1560.08ZM1648.42 1560.21C1651.41 1560.21 1653.91 1563.33 1653.91 1567.18C1653.86 1571 1651.41 1574.15 1648.37 1574.15C1645.37 1574.15 1642.88 1571 1642.88 1567.18C1642.88 1563.33 1645.37 1560.21 1648.42 1560.21ZM1438.79 726.269C1473.84 710.351 1508.84 705.896 1543.84 718.14C1552.51 728.685 1572.12 727.105 1569.88 749.826C1579.39 765.131 1583.33 778.321 1574.93 787.085C1557.26 796.899 1558.08 779.051 1549.66 775.035C1605.46 730.285 1500.37 705.022 1517.94 767.858C1517.82 791.914 1482.46 782.14 1492.5 767.732C1501.02 708.783 1429.49 718.586 1436.3 765.652C1437.48 773.988 1470.1 767.185 1456.74 781.374C1448.4 787.279 1444.53 794.309 1445.13 802.39L1444.31 816.006C1436.7 833.159 1441.4 842.76 1458.43 844.757C1465.37 854.696 1460.51 861.38 1448.96 855.052L1434.29 839.844L1433.34 808.021L1438.74 787.679C1426.17 783.685 1421.43 776.461 1424.55 766.011C1430.57 753.985 1435.02 740.455 1438.79 726.269ZM1454.73 738.359C1473.11 729.6 1478.71 737.727 1478.53 752.266C1469.94 741.222 1468.63 739.154 1454.73 738.359ZM1521.49 796.208C1540.67 809.346 1548.55 801.039 1551.06 784.487C1539.28 795.549 1537.4 797.676 1521.49 796.208ZM1456.29 816.843C1472.45 836.473 1483.41 830.033 1491.36 813.254C1475.36 821.465 1472.67 823.158 1456.29 816.843ZM1506.71 814.205C1535.4 839.017 1554.89 830.859 1568.92 809.619C1540.53 820.022 1535.77 822.16 1506.71 814.205ZM1462.71 748.204C1470.81 748.204 1477.39 752.789 1477.39 758.381C1477.39 763.989 1470.78 768.528 1462.67 768.528C1454.58 768.528 1447.98 763.989 1447.98 758.381C1447.98 752.789 1454.61 748.204 1462.71 748.204ZM1548.02 738.46C1543.25 742.523 1532.61 744.163 1533.69 750.651L1532.51 756.93C1559.45 733.848 1569.46 771.689 1530.81 770.494L1522.77 758.777C1524.47 735.745 1536.24 735.466 1548.02 738.46ZM1473.59 778.32C1475.66 778.32 1477.37 780.475 1477.37 783.162C1477.37 785.852 1475.66 788.028 1473.58 788.028C1471.47 788.028 1469.82 785.852 1469.82 783.162C1469.82 780.476 1471.5 778.32 1473.59 778.32ZM1532.42 779.923C1534.96 779.923 1537.02 781.92 1537.02 784.403C1537.01 786.851 1534.94 788.846 1532.4 788.846C1529.86 788.846 1527.78 786.851 1527.78 784.403C1527.78 781.92 1529.85 779.923 1532.42 779.923ZM1461.64 788.551C1463.17 787.725 1466.23 790.15 1468.51 794.029C1470.81 797.873 1471.42 801.694 1469.94 802.512C1468.44 803.338 1465.39 800.891 1463.08 797.023C1460.82 793.19 1460.17 789.371 1461.64 788.551ZM1453.62 800.042C1454.87 798.87 1458.5 800.517 1461.72 803.677C1464.9 806.856 1466.54 810.397 1465.28 811.561C1464.07 812.733 1460.45 811.062 1457.23 807.926C1454.02 804.734 1452.39 801.193 1453.62 800.042ZM1503.39 795.354C1510.33 795.354 1515.99 798.65 1515.99 802.657C1515.99 806.696 1505.58 803.511 1501.19 809.167C1496.75 814.859 1491.58 804.284 1491.58 800.221C1491.63 796.208 1496.44 795.354 1503.39 795.354ZM1502.49 830.313C1508.97 830.313 1514.26 833.955 1514.26 838.464C1514.22 842.908 1508.93 846.567 1502.48 846.567C1495.99 846.567 1490.69 842.909 1490.71 838.464C1490.71 833.954 1496.02 830.313 1502.49 830.313ZM1468.86 841.678H1479.77C1488.15 869.08 1527.09 868.218 1530.21 843.306C1534.99 840.61 1545.62 836.277 1544.45 849.818C1536.78 838.464 1537.3 871.481 1535.19 875.847C1518.66 881.526 1504.07 883.427 1496.55 871.783C1469.08 881.282 1460.45 869.08 1468.86 841.678ZM1572.43 722.203C1574.13 705.396 1580 709.734 1587.54 718.14C1590.22 724.919 1591.21 729.21 1585.46 738.36L1588.27 751.673C1598.08 755.481 1602.24 763.585 1600.84 776.055C1593.28 794.135 1614.24 811.367 1598.28 835.155L1589.05 830.313C1586.39 836.023 1599.65 860.405 1581.06 847.471C1576.3 838.772 1574.9 831.714 1579.39 823.831C1578.85 815.702 1578.29 807.545 1577.74 799.394C1593.45 787.225 1592.4 771.748 1574.55 753.045C1573.84 742.768 1575.63 732.493 1572.43 722.203ZM1464.88 688.884C1468.15 688.884 1470.78 693.619 1470.78 699.437C1470.76 705.266 1468.13 710.012 1464.88 710.012C1461.64 710.012 1458.98 705.266 1458.98 699.437C1459 693.619 1461.68 688.884 1464.88 688.884ZM1481.26 686.063C1484.51 686.063 1487.12 690.811 1487.12 696.663C1487.12 702.503 1484.47 707.216 1481.21 707.216C1478 707.216 1475.36 702.503 1475.36 696.663C1475.36 690.81 1478.01 686.063 1481.26 686.063ZM1499.3 687.316C1502.53 687.316 1505.17 692.098 1505.13 697.893C1505.13 703.721 1502.49 708.491 1499.28 708.491C1496.02 708.491 1493.38 703.721 1493.38 697.893C1493.41 692.098 1496.04 687.316 1499.3 687.316ZM1515.64 686.147C1518.87 686.147 1521.53 690.882 1521.52 696.709C1521.52 702.527 1518.84 707.286 1515.64 707.286C1512.37 707.286 1509.72 702.527 1509.74 696.709C1509.75 690.882 1512.41 686.147 1515.64 686.147ZM1534.33 683.995C1537.1 683.995 1538.72 689.533 1537.87 696.271C1537.03 703.025 1534.11 708.516 1531.34 708.516C1528.56 708.516 1526.95 703.025 1527.78 696.271C1528.61 689.533 1531.53 683.995 1534.33 683.995ZM1567.21 818.097L1571.42 827.87C1569.82 842.201 1557.73 841.814 1555.4 849.817C1546.69 862.277 1546.44 853.626 1549.53 842.504C1557.68 839.794 1563.55 831.661 1567.21 818.097ZM1435.47 696.989C1445.03 686.989 1452.85 698.913 1455.6 708.389L1436.09 705.542C1425.47 704.848 1417.39 705.787 1421.93 718.115C1453.25 721.627 1424.93 729.208 1420.17 736.011L1417.73 761.226C1420.2 783.986 1409.25 805.951 1395.04 756.406C1402.35 734.185 1411.29 742.837 1409.33 755.515C1422.6 753.691 1412.38 732.35 1413.88 720.729C1404.31 703.073 1411.49 695.165 1435.47 696.989ZM1543.02 699.437C1565.76 678.042 1588.43 684.822 1570.76 700.251L1562.33 714.914C1568.19 723.275 1568.19 729.232 1564.81 725.467C1558.04 720.608 1552.06 717.387 1544.44 713.346C1565.63 701.355 1570.02 685.344 1544.11 702.598L1543.02 699.437ZM1284.94 759.604C1320.86 733.569 1339.06 740.307 1334.51 788.028L1327.41 809.873C1337.01 822.112 1335.71 830.288 1320.98 829.51C1333.84 839.794 1334.39 849.015 1322.6 857.144L1302.22 841.785C1309.08 833.681 1322.67 830.462 1297.66 822.31C1338.45 809.773 1302.31 754.366 1298.49 772.943C1313.86 790.487 1313.55 803.69 1297.54 812.585C1295.44 813.755 1310.4 783.465 1290.16 785.402C1264.99 787.851 1266.54 763.864 1284.94 759.604ZM1223.51 825.422C1219.9 807.278 1227.47 796.732 1246.25 793.737C1249.42 786.851 1260.69 782.069 1267.67 787.458C1277.99 795.407 1301.27 801.864 1271.42 809.166L1264.76 815.507C1289.22 819.523 1297.97 830.046 1291.06 847.067C1292.64 886.517 1288.68 906.438 1279.14 906.861C1267 922 1258.16 925.189 1252.77 916.462L1278.79 891.557L1276.42 875.617C1268.28 867.036 1257.63 853.603 1274.65 854.774C1279.45 847.669 1288.51 830.035 1271.42 845.672C1266.42 842.86 1263.1 830.336 1253.9 839.694C1246.76 842.432 1241.29 838.661 1240.08 829.962C1255.18 820.79 1257.42 807.254 1244.23 802.438C1227.63 803.933 1223.37 811.889 1231.44 826.421C1235.08 834.502 1221.91 844.246 1217.15 853.176C1207.85 864.101 1198.51 859.592 1204.37 842.131L1223.51 825.422ZM1229.33 854.695C1234.93 859.038 1253.18 841.411 1243.63 855.528C1239.14 868.217 1230.17 871.207 1216.71 864.445L1229.33 854.695ZM1245.23 894.496C1249.9 894.496 1253.63 896.712 1253.63 899.404C1253.63 902.1 1249.85 904.294 1245.23 904.294C1240.58 904.294 1236.84 902.101 1236.84 899.404C1236.87 896.712 1240.64 894.496 1245.23 894.496ZM1664.78 766.128C1674.06 741.976 1714.13 740.378 1709.31 768.528C1733.97 767.731 1733.35 784.784 1710.11 785.585C1696.84 787.154 1697.04 800.136 1690.43 807.379C1669.26 806.879 1672.39 821.044 1669.71 830.313C1658.04 834.632 1650.6 813.754 1667.55 801.794C1677.31 795.051 1672.81 780.976 1661.53 796.132C1659.25 786.157 1661.18 775.313 1664.78 766.128ZM1716.81 796.185C1729.15 789.418 1739.25 788.029 1747.09 792.146L1759.47 797.048C1789.22 806.755 1747.57 810.819 1752.92 828.673C1738.63 827.87 1736.13 811.614 1725.19 818.946C1714 816.226 1705.32 810.272 1716.81 796.185ZM1713.42 836.022C1717.02 824.899 1727.44 823.532 1744.49 831.934C1750.13 840.583 1768.41 841.107 1761.42 857.91L1784.93 862.829C1791.34 868.288 1788.48 873.779 1781.47 871.955L1762.92 868.486C1751.48 835.154 1721.18 865.818 1712.55 853.055L1713.42 836.022ZM1770.52 818.073C1767.73 816.427 1762.87 819.362 1759.66 824.554C1756.41 829.718 1756.03 835.254 1758.83 836.869C1761.59 838.515 1766.48 835.568 1769.72 830.412C1772.95 825.226 1773.32 819.664 1770.52 818.073ZM1768.86 842.504C1777.82 843.579 1778.4 817.864 1788.2 836.023C1787.63 843.058 1815.6 863.922 1786.49 857.144L1768.86 842.504ZM1771.33 876.637C1774.11 876.637 1776.34 879.388 1776.34 882.745C1776.34 886.088 1774.09 888.851 1771.3 888.851C1768.53 888.851 1766.26 886.087 1766.26 882.745C1766.26 879.388 1768.55 876.637 1771.33 876.637ZM1614.31 786.447C1621.62 778.028 1632.26 772.841 1646.25 770.993C1666.14 778.32 1638.95 784.784 1634.46 790.486C1629.42 780.196 1621.9 791.022 1622.69 798.615C1615.71 798.615 1609.53 796.185 1614.31 786.447ZM1622.74 814.929C1634.04 813.961 1644.49 808.448 1654.14 798.45C1656.12 790.94 1652.61 786.608 1650.19 789.526C1645.58 795.258 1632.96 798.069 1628.35 798.229C1628.8 801.194 1621.39 807.219 1617.23 804.533C1613.24 810.118 1611.75 813.135 1622.74 814.929ZM1687.37 818.097C1700.84 805.104 1704.19 807.279 1697.47 824.609C1691.26 828.418 1686.82 831.388 1689.04 838.464C1685.4 848.713 1685.08 851.707 1678.09 840.085C1675.61 831.661 1678.67 824.353 1687.37 818.097ZM1627.7 819.743C1635.83 820.836 1643.96 818.69 1652.09 813.254C1652.36 819.743 1652.62 825.422 1647.87 832.761C1640.22 826.825 1632.54 837.115 1624.81 839.319L1618.42 838.465C1623.19 832.188 1627.12 826.794 1627.7 819.743ZM1626.81 849.015C1645.08 825.156 1678.62 843.579 1647.82 856.342L1635.23 857.934C1631.85 866.894 1626.76 870.956 1622.61 860.381L1626.81 849.015ZM1438.74 1024.22C1441.55 994.75 1475.83 994.032 1458.24 1020.18L1449.33 1027.74C1450.91 1037.14 1448.97 1043.08 1440.81 1036.05L1438.74 1024.22ZM1444.93 1054.82C1451.73 1032.1 1478.71 1036.67 1460.8 1054.52L1452.65 1059.16C1452.41 1066.71 1449.93 1071.1 1444.69 1064.4L1444.93 1054.82ZM1630.72 880.131C1645.54 858.045 1672.85 868.058 1647.75 882.999L1637.53 886.167C1634.8 893.926 1630.66 897.978 1627.28 890.034L1630.72 880.131ZM1639.45 904.294C1653.97 879.785 1680.78 884.348 1656.18 903.819L1646.1 908.881C1643.43 917.055 1639.42 921.79 1636.08 914.661L1639.45 904.294ZM1413.36 971.264C1424.9 951.848 1446.19 955.485 1426.67 970.912L1418.68 974.953C1416.56 981.388 1413.35 985.149 1410.71 979.468L1413.36 971.264ZM1697.11 1061.48C1700.76 1035.9 1722.8 1031.28 1709.85 1055.67L1703.67 1063.24C1704.12 1071.05 1702.51 1076.38 1697.69 1071.37L1697.11 1061.48ZM1675.77 1093.87C1679.02 1071.17 1698.61 1067.01 1687.07 1088.71L1681.61 1095.46C1682 1102.35 1680.56 1107.15 1676.29 1102.65L1675.77 1093.87ZM1660.54 1080.58C1663.48 1059.96 1681.28 1056.17 1670.81 1075.91L1665.83 1082.02C1666.2 1088.31 1664.88 1092.64 1660.99 1088.57L1660.54 1080.58ZM1647.32 1061.15C1650.25 1040.54 1668.07 1036.77 1657.59 1056.46L1652.62 1062.6C1652.98 1068.86 1651.64 1073.19 1647.77 1069.13L1647.32 1061.15ZM1628.02 1089.1C1630.94 1068.49 1648.75 1064.71 1638.32 1084.42L1633.31 1090.52C1633.66 1096.84 1632.34 1101.14 1628.48 1097.11L1628.02 1089.1ZM1640.6 1113.67C1643.19 1095.32 1659.06 1091.94 1649.75 1109.51L1645.3 1114.95C1645.58 1120.56 1644.46 1124.38 1641 1120.8L1640.6 1113.67ZM1658.35 1127.48C1661.71 1111.39 1682.19 1108.43 1670.19 1123.84L1664.46 1128.62C1664.83 1133.56 1663.34 1136.93 1658.92 1133.73L1658.35 1127.48ZM1450.83 1079.5C1456.6 1059.46 1474.75 1058.04 1461.64 1076.23L1455.89 1081.65C1455.38 1087.9 1453.44 1092.04 1450.18 1087.51L1450.83 1079.5ZM1454.75 1100.5C1464.08 1079.53 1483.98 1080.53 1467.05 1098.46L1459.95 1103.49C1458.41 1110.27 1455.75 1114.46 1452.85 1109.08L1454.75 1100.5ZM1463.76 1175.43C1450.37 1124.88 1483.37 1108.11 1479.82 1157.9L1478.79 1188.26C1484.58 1204.6 1481.48 1234.8 1468.2 1226.89L1463.76 1175.43ZM1478.6 1116.28C1485.2 1097.28 1502.72 1096.79 1489.2 1113.67L1483.34 1118.58C1482.51 1124.61 1480.43 1128.47 1477.57 1123.94L1478.6 1116.28ZM1498.78 1131.21C1496.75 1116.43 1512.55 1110.93 1507.35 1126.29L1504.07 1131.32C1505.86 1135.63 1505.65 1138.81 1501.09 1136.63L1498.78 1131.21ZM1485.26 1079.61C1498.4 1058.34 1519.72 1062.26 1498.77 1079.11L1490.37 1083.6C1487.72 1090.64 1484.18 1094.79 1481.9 1088.6L1485.26 1079.61ZM1683.21 1044.05C1686.23 1022.84 1704.55 1018.94 1693.8 1039.23L1688.65 1045.51C1689.04 1052 1687.67 1056.44 1683.71 1052.26L1683.21 1044.05ZM1667 1027.19C1670.71 1001.61 1692.76 996.923 1679.81 1021.41L1673.63 1028.97C1674.06 1036.81 1672.39 1042.13 1667.62 1037.09L1667 1027.19ZM1651.19 1011.07C1655.02 984.335 1678.12 979.446 1664.55 1005.03L1658.09 1012.98C1658.54 1021.15 1656.83 1026.74 1651.84 1021.46L1651.19 1011.07ZM1467.62 957.652C1481.8 924.346 1515.35 924.737 1488.14 953.708L1476.53 962.021C1474.49 972.666 1470.23 979.368 1465.06 971.17L1467.62 957.652ZM1446.32 949.897C1458.05 922.326 1485.8 922.693 1463.27 946.649L1453.71 953.511C1452 962.333 1448.5 967.87 1444.21 961.068L1446.32 949.897ZM1440.99 987.62C1448.03 965.85 1469.25 964.329 1453.68 984.056L1446.85 989.919C1446.14 996.746 1443.86 1001.18 1440.12 996.294L1440.99 987.62ZM1541.46 958.174C1527.39 924.868 1493.83 925.261 1521.02 954.231L1532.53 962.543C1534.59 973.166 1538.79 979.915 1543.98 971.62L1541.46 958.174ZM1569.89 949.703C1551.4 924.393 1523.31 931.053 1551.92 950.25L1563.31 955.056C1567.13 963.588 1572.02 968.443 1574.75 960.547L1569.89 949.703ZM1603.81 942.49C1591.74 926.634 1573.97 931.196 1592.4 943.084L1599.67 945.982C1602.24 951.349 1605.43 954.337 1607.06 949.329L1603.81 942.49ZM1574.86 981.215C1561.54 959.353 1538.13 962.894 1560.15 980.468L1569.09 985.173C1571.62 992.415 1575.27 996.674 1578.05 990.418L1574.86 981.215ZM1571.84 1005.27C1561.63 984.649 1540.33 986.146 1558.74 1003.48L1566.37 1008.34C1568.09 1015.02 1571.02 1019.11 1573.99 1013.73L1571.84 1005.27ZM1573.5 1035.07C1563.45 1009.54 1537.95 1009.19 1558.04 1031.7L1566.64 1038.24C1567.99 1046.37 1571.09 1051.5 1575.15 1045.34L1573.5 1035.07ZM1571.25 1060.13C1561.2 1034.57 1535.7 1034.3 1555.77 1056.8L1564.4 1063.3C1565.76 1071.41 1568.81 1076.59 1572.93 1070.38L1571.25 1060.13ZM1565.7 1090.4C1562.32 1063.24 1537.65 1056.98 1551.52 1083.54L1558.25 1091.85C1557.56 1100.05 1559.27 1105.83 1564.75 1100.79L1565.7 1090.4ZM1469.49 991.279C1483.56 959.814 1516.22 958.478 1489.42 986.623L1478.11 994.88C1476 1004.83 1471.82 1011.24 1466.85 1003.88L1469.49 991.279ZM1537.27 982.736C1519.93 951.918 1486.48 953.511 1516.41 979.795L1528.78 987.191C1531.89 997.12 1536.75 1003.31 1541.11 995.356L1537.27 982.736ZM1472.24 1025.47C1483.41 993.313 1513.92 987.074 1490.69 1017.97L1480.57 1027.56C1479.22 1037.41 1475.73 1044.15 1470.62 1037.88L1472.24 1025.47ZM1535.88 1036.62C1512.15 1001.52 1478.04 999.716 1514.56 1033.43L1527.55 1038.91C1532.53 1049.61 1538.79 1056.99 1542.11 1050.19L1535.88 1036.62ZM1524.74 1052.45C1515.69 1039.09 1499.75 1047.05 1513.66 1059.86L1518.61 1061.98C1520.51 1066.01 1522.89 1063.82 1524.16 1061.22L1524.74 1052.45ZM1528.41 1079.7C1519.36 1066.32 1503.44 1074.24 1517.32 1087.1L1522.3 1089.16C1524.18 1093.22 1526.56 1091.05 1527.81 1088.46L1528.41 1079.7ZM1523.94 1106.19C1514.9 1092.87 1498.95 1100.77 1512.85 1113.57L1517.78 1115.71C1519.7 1119.75 1522.06 1117.53 1523.35 1114.96L1523.94 1106.19ZM1542.8 1102.22C1535.19 1091 1521.8 1097.65 1533.46 1108.43L1537.65 1110.2C1539.24 1113.64 1541.22 1111.77 1542.3 1109.55L1542.8 1102.22ZM1536.82 1014.02C1519.93 984.335 1488.77 983.555 1517.32 1009.89L1529.01 1017.56C1532.16 1026.95 1536.83 1032.98 1540.72 1025.95L1536.82 1014.02ZM1638.29 992.462C1641.29 971.591 1659.25 967.8 1648.7 987.728L1643.64 993.936C1644.01 1000.26 1642.66 1004.66 1638.77 1000.57L1638.29 992.462ZM1614.43 928.849C1617.43 908.008 1635.41 904.2 1624.81 924.167L1619.8 930.322C1620.16 936.662 1618.83 941.04 1614.93 936.952L1614.43 928.849ZM1632.79 966.435C1635.15 949.83 1649.54 946.762 1641.1 962.662L1637.06 967.604C1637.35 972.691 1636.27 976.154 1633.18 972.886L1632.79 966.435ZM1625.18 990.117C1625.86 973.385 1639.87 968.964 1633.09 985.576L1629.59 990.894C1630.37 995.903 1629.66 999.442 1626.24 996.454L1625.18 990.117ZM1621.14 951.443C1624.37 928.896 1643.85 924.737 1632.41 946.356L1626.93 953.011C1627.33 959.92 1625.86 964.634 1621.67 960.194L1621.14 951.443ZM1685.18 924.855C1689.41 902.296 1711.13 898.756 1697.84 920.049L1691.63 926.561C1691.84 933.47 1690.11 938.182 1685.54 933.596L1685.18 924.855ZM1676.89 890.509C1689.74 863.632 1718.17 866.014 1694.36 888.488L1684.35 894.717C1682.33 903.444 1678.55 908.785 1674.4 901.603L1676.89 890.509ZM1646.87 925.854C1661.84 904.839 1689.41 908.761 1664.1 925.438L1653.76 929.846C1650.99 936.827 1646.82 940.92 1643.41 934.737L1646.87 925.854ZM1652.62 945.763C1667.57 922.546 1695.8 927.63 1670.52 948.029L1661.51 955.812C1663.51 965.085 1671.54 971.508 1653.83 960.338L1652.62 945.763ZM1373.55 787.226C1359.15 762.82 1321.46 781.664 1350.72 794.735L1363.34 796.376C1365.16 805.556 1369.64 809.739 1375.81 798.871L1373.55 787.226ZM1394.15 790.486C1397.52 790.486 1396.7 773.419 1403.4 787.225C1406.45 794.385 1411.2 793.332 1415.05 796.405C1427.96 795.526 1427.44 803.26 1413.43 819.743C1408.68 818.389 1399.7 825.992 1397.47 817.295C1396.36 808.353 1399.46 798.615 1394.15 790.486ZM1396.9 836.996C1396.9 840.864 1397.87 821.21 1410.18 828.523C1422.62 814.928 1419.3 832.712 1421.83 837.696C1428.5 842.005 1430.61 847.192 1422.9 858.444C1418.55 858.07 1408.07 857.689 1396.9 836.996ZM1411.04 875.044C1400.75 870.238 1392.39 857.944 1422.94 867.914C1435.42 854.297 1434.75 871.427 1437.27 876.417C1452.01 869.08 1449.47 880.105 1435.68 896.517C1431.33 896.165 1422.21 880.237 1411.04 875.044ZM1447.66 902.54C1443.93 895.667 1448.03 879.606 1458.93 896.41C1467.46 893.416 1470.09 900.752 1472.74 899.832C1484.18 893.528 1477.5 906.86 1466.77 921C1463.39 920.698 1452.44 911.47 1447.66 902.54ZM1480.16 911.168C1481.26 906.438 1485.65 891.199 1489.93 903.675C1496.82 901.227 1495.59 909.759 1497.75 909.005C1503.35 911.702 1503.33 921.79 1498.29 925.391C1491.05 927.328 1478 920.745 1480.16 911.168ZM1531.96 917.531C1534.97 911.999 1528.39 887.99 1519.54 901.579C1512.68 899.138 1518.59 908.334 1516.41 907.578C1510.8 910.228 1510.78 920.352 1515.8 923.971C1518.54 923.715 1528.03 924.688 1531.96 917.531ZM1556.87 914.138C1559.86 908.625 1553.28 884.67 1544.45 898.21C1537.59 895.763 1543.48 904.917 1541.37 904.199C1535.7 906.86 1535.7 916.959 1540.73 920.626C1543.48 920.329 1552.96 921.303 1556.87 914.138ZM1351.72 758.327C1356.51 758.327 1360.4 760.995 1360.4 764.291C1360.4 767.578 1356.5 770.216 1351.69 770.216C1346.92 770.216 1343.06 767.578 1343.06 764.291C1343.06 760.995 1346.92 758.327 1351.72 758.327ZM1383.84 784.903C1387.26 784.903 1390 787.105 1390 789.792C1390 792.483 1387.26 794.734 1383.84 794.734C1380.46 794.734 1377.74 792.483 1377.74 789.792C1377.76 787.105 1380.48 784.903 1383.84 784.903ZM1379.39 765.51C1382.77 765.51 1385.51 767.684 1385.51 770.376C1385.51 773.092 1382.77 775.288 1379.38 775.288C1375.97 775.288 1373.25 773.092 1373.25 770.376C1373.25 767.685 1376.01 765.51 1379.39 765.51ZM1341.52 804.456C1345.88 800.042 1350.22 802.607 1354.56 805.882C1357.68 810.665 1366.39 805.602 1365.57 819.884C1365.11 827.721 1382.77 828.245 1370.41 841.559C1363.92 831.068 1357.41 825.471 1345.12 826.153C1346.1 817.55 1344.2 811.014 1341.52 804.456ZM1339.89 833.002C1344.14 829.194 1348.4 831.388 1352.67 834.181C1355.75 838.274 1364.3 833.93 1363.47 846.146C1363.03 852.824 1380.36 853.299 1368.23 864.629C1361.86 855.67 1355.48 850.888 1343.41 851.487C1344.36 844.125 1342.47 838.542 1339.89 833.002ZM1383.27 807.973C1379.69 808.12 1379.19 810.897 1379.03 813.909C1379.94 817.051 1374.45 818.744 1381.07 823.731C1384.75 826.505 1378.32 834.075 1388.86 833.93C1386.67 827.293 1386.63 822.464 1391.56 817.622C1387.36 814.8 1385.19 811.537 1383.27 807.973ZM1299.51 865.319C1295.91 854.821 1308.18 856.947 1314.7 861.136C1320.22 871.828 1329.38 881.882 1331.26 893.973C1314.67 903.598 1328.43 887.341 1318.37 884.347C1314.74 879.654 1309.65 874.201 1300.94 872.328L1299.51 865.319ZM1335.93 887.688C1331.08 878.438 1342.28 880.286 1348.68 884C1355.22 893.451 1367.04 897.432 1370.6 908.126C1363.84 924.856 1367.74 903.676 1359.12 908.009C1355.19 903.842 1346.92 900.474 1338.99 898.758L1335.93 887.688ZM1337.22 864.796C1332.4 855.55 1343.6 857.387 1349.95 861.059C1356.51 870.554 1368.3 874.523 1371.87 885.241C1365.14 901.924 1369.04 880.76 1360.43 885.115C1356.49 880.932 1348.26 877.539 1340.27 875.847L1337.22 864.796ZM1297.84 894.17C1294.24 883.694 1306.55 885.786 1313.03 889.987C1315.67 901.399 1329.86 911.423 1327.44 927.756C1310.84 937.358 1316.65 930.893 1315.94 916.032C1312.35 911.329 1307.97 903.074 1299.25 901.133L1297.84 894.17ZM1293.65 925.438C1298.01 904.039 1300.84 916.158 1302.31 921.952L1308.44 938.605C1326.14 943.339 1313.46 952.234 1315.97 959.073C1310.9 962.994 1302.72 968.844 1307.34 954.158C1309.99 943.191 1290.21 946.234 1293.65 925.438ZM1673.58 876.518C1654.48 877.065 1665.38 853.323 1668.52 852.861L1691.08 851.885C1698.73 820.591 1703.3 834.756 1700.94 831.46C1701.38 834.524 1703.4 855.075 1698.32 856.889C1692.71 858.385 1698.01 858.837 1690.88 859.834C1675.7 861.854 1674.33 869.685 1673.58 876.518ZM1290.61 958.699C1294.36 942.721 1296.86 951.734 1298.08 956.078L1303.36 968.465C1318.62 971.959 1307.68 978.588 1309.85 983.628C1305.48 986.575 1298.41 990.895 1302.39 980.04C1304.66 971.864 1287.68 974.111 1290.61 958.699ZM1281.31 979.173C1283.89 961.021 1286.95 971.264 1288.45 976.254L1294.54 990.317C1309.72 994.333 1299.51 1001.88 1301.98 1007.65C1297.91 1011 1291.28 1015.95 1294.43 1003.48C1296.07 994.227 1279.55 996.771 1281.31 979.173ZM1421.43 1041.23C1430.26 1023.03 1429.78 1033.3 1429.59 1038.24L1430.81 1052.37C1444.66 1056.34 1431.83 1063.93 1432.29 1069.68C1427.08 1073 1418.76 1077.95 1426.15 1065.54C1431.02 1056.2 1413.62 1058.79 1421.43 1041.23ZM1489.99 1041.56C1508.03 1031.58 1501.52 1039.73 1498.45 1043.68L1491 1055.87C1499.88 1066.84 1484.92 1065.82 1481.9 1070.87C1475.66 1070.7 1465.92 1070.08 1479.37 1064.02C1488.87 1059.15 1473.14 1051.53 1489.99 1041.56ZM1620.27 1066.76C1632.94 1052.12 1629.4 1060.38 1627.76 1064.37L1624.39 1075.73C1634.33 1078.97 1621.67 1085.06 1620.32 1089.7C1615.08 1092.42 1606.85 1096.39 1616.61 1086.36C1623.39 1078.9 1608.56 1080.95 1620.27 1066.76ZM1636.73 1021.29C1651.32 1004.48 1647.25 1014 1645.37 1018.56L1641.49 1031.63C1652.93 1035.34 1638.37 1042.35 1636.8 1047.69C1630.79 1050.76 1621.32 1055.37 1632.56 1043.82C1640.34 1035.25 1623.31 1037.59 1636.73 1021.29ZM1274.79 1005.15C1276.81 990.817 1279.22 998.921 1280.43 1002.83L1285.22 1013.93C1297.2 1017.07 1289.13 1023.03 1291.08 1027.56C1287.87 1030.21 1282.66 1034.1 1285.12 1024.3C1286.45 1016.99 1273.38 1018.99 1274.79 1005.15ZM1274.27 1030.66C1275.79 1019.74 1277.62 1025.9 1278.53 1028.89L1282.18 1037.36C1291.32 1039.76 1285.16 1044.29 1286.68 1047.74C1284.21 1049.76 1280.26 1052.7 1282.1 1045.24C1283.11 1039.66 1273.2 1041.23 1274.27 1030.66ZM1296.36 1068.86C1298.21 1057.46 1300.42 1063.92 1301.55 1066.99L1305.98 1075.86C1317.01 1078.38 1309.6 1083.1 1311.4 1086.71C1308.44 1088.81 1303.61 1091.92 1305.87 1084.12C1307.09 1078.28 1295.06 1079.9 1296.36 1068.86ZM1302.84 1047.96C1305.37 1034.29 1308.43 1042.01 1309.94 1045.74L1316.02 1056.39C1331.12 1059.38 1320.93 1065.04 1323.44 1069.41C1319.37 1071.95 1312.79 1075.67 1315.9 1066.31C1317.52 1059.28 1301.1 1061.24 1302.84 1047.96ZM1336.43 1066.42C1338.77 1053.8 1341.56 1060.91 1342.95 1064.35L1348.5 1074.12C1362.45 1076.91 1353.1 1082.1 1355.36 1086.11C1351.62 1088.46 1345.56 1091.85 1348.41 1083.24C1349.94 1076.81 1334.82 1078.56 1336.43 1066.42ZM1327.78 1088.43C1329.9 1076.95 1332.46 1083.42 1333.72 1086.58L1338.8 1095.48C1351.5 1097.98 1342.95 1102.79 1345.04 1106.41C1341.63 1108.55 1336.11 1111.65 1338.71 1103.79C1340.07 1097.93 1326.31 1099.52 1327.78 1088.43ZM1308.83 1020.43C1312.02 1005.03 1315.9 1013.76 1317.82 1017.94L1325.44 1029.89C1344.52 1033.3 1331.68 1039.68 1334.81 1044.6C1329.71 1047.46 1321.38 1051.61 1325.28 1041.09C1327.41 1033.18 1306.61 1035.39 1308.83 1020.43ZM1314.95 1000.11C1317.83 987.573 1321.33 994.654 1323.05 998.048L1329.95 1007.82C1347.2 1010.61 1335.61 1015.8 1338.4 1019.77C1333.8 1022.08 1326.32 1025.5 1329.83 1016.92C1331.68 1010.51 1312.94 1012.28 1314.95 1000.11ZM1323.32 970.718C1326.19 954.837 1329.63 963.808 1331.34 968.104L1338.16 980.443C1355.23 983.93 1343.76 990.513 1346.55 995.553C1341.98 998.447 1334.56 1002.81 1338.04 991.916C1339.91 983.836 1321.33 986.051 1323.32 970.718ZM1327.56 940.797C1330.38 924.915 1333.84 933.911 1335.57 938.206L1342.37 950.547C1359.42 954.034 1347.96 960.641 1350.75 965.655C1346.17 968.577 1338.77 972.885 1342.26 962.02C1344.09 953.915 1325.6 956.155 1327.56 940.797ZM1331.73 910.948C1334.58 895.017 1343.84 907.508 1345.53 911.802L1352.35 919.224C1369.4 922.741 1355.77 933.494 1358.56 938.557C1353.98 941.467 1342.96 942.988 1346.44 932.097C1348.31 924.02 1329.78 926.259 1331.73 910.948ZM1670.16 958.33C1682.9 949.024 1694.57 946.709 1683.56 963.332C1675.25 981.909 1681.41 986.527 1692.73 971.217C1702.38 966.582 1706.87 964.961 1703.1 981.269C1679.72 1003.56 1666.69 985.927 1670.16 958.33ZM1564.71 889.303C1561.87 874.469 1569.21 858.143 1574.05 874.373C1583.09 878.585 1583.36 874.142 1578.44 868.009C1576.55 857.767 1577.51 853.128 1592.64 861.137C1595.11 875.616 1584.84 882.329 1578.99 889.935C1570.92 900.498 1568.68 901.399 1564.71 889.303ZM1700.38 992.392C1709.94 985.404 1718.74 983.676 1710.46 996.147C1704.22 1010.07 1708.83 1013.53 1717.34 1002.04C1724.59 998.571 1727.96 997.365 1725.12 1009.59C1707.57 1026.32 1697.8 1013.09 1700.38 992.392ZM1356.9 1009.17C1347.58 1008.34 1341.07 1011.03 1351.89 1016.47C1361.98 1023.9 1360.45 1028.56 1349.89 1023.9C1343.61 1024.65 1340.83 1025.24 1347.98 1033.01C1366.76 1037.41 1367.52 1023.23 1356.9 1009.17ZM1371.38 1039.76C1365.58 1033.55 1359.37 1031.44 1363.25 1041.68C1365.34 1052.9 1361.27 1055.14 1357.07 1045.6C1352.32 1042.3 1350.04 1041.06 1349.93 1050.66C1359.91 1064.99 1369.57 1055.77 1371.38 1039.76ZM1710.49 870.611C1730.45 861.95 1734.9 865.294 1730.1 880.551C1722.54 884.425 1714.98 888.257 1722.87 901.102L1740.36 905.51C1748.88 922.813 1745.38 928.509 1731.95 924.517C1737.16 915.534 1717.62 906.534 1710.46 897.538L1710.49 870.611ZM1734.19 887.562C1742.05 891.675 1761.25 885.762 1757.78 899.833L1758.9 911.471C1752.72 904.175 1746.51 898.881 1737.26 898.513C1723.89 894.864 1731.07 892.227 1734.19 887.562ZM1707.31 944.385C1710.11 944.385 1712.43 947.529 1712.43 951.35C1712.43 955.229 1710.11 958.33 1707.29 958.33C1704.4 958.33 1702.13 955.228 1702.13 951.35C1702.13 947.528 1704.45 944.385 1707.31 944.385ZM1510.29 1353.18C1561.67 1353.18 1603.49 1394.4 1603.42 1444.91C1603.36 1495.41 1561.38 1536.62 1509.99 1536.62C1458.63 1536.62 1416.77 1495.41 1416.83 1444.91C1416.94 1394.4 1458.93 1353.18 1510.29 1353.18ZM1510.24 1365.32C1554.84 1365.32 1591.13 1401.11 1591.06 1444.91C1590.99 1488.75 1554.59 1524.5 1510.02 1524.5C1465.46 1524.5 1429.14 1488.75 1429.23 1444.91C1429.31 1401.11 1465.71 1365.32 1510.24 1365.32ZM1510.17 1424.97C1521.34 1424.97 1530.44 1433.92 1530.42 1444.91C1530.42 1455.89 1521.29 1464.81 1510.1 1464.81C1498.95 1464.81 1489.86 1455.88 1489.86 1444.91C1489.87 1433.92 1499.01 1424.97 1510.17 1424.97ZM1509.45 1378.51C1508.35 1369.84 1525.13 1370.14 1523.87 1378.51L1518.11 1416.99H1514.38L1509.45 1378.51ZM1493.61 1380.53C1490.84 1372.28 1507.37 1369.48 1507.79 1377.89L1509.67 1416.71L1506.01 1417.43L1493.61 1380.53ZM1475.52 1386.49C1470.19 1379.48 1485 1371.83 1488.11 1379.71L1502.49 1416.01L1499.22 1417.77L1475.52 1386.49ZM1461.81 1397.52C1454.91 1391.96 1467.37 1381.05 1472.35 1387.96L1495.33 1419.83L1492.6 1422.3L1461.81 1397.52ZM1448.82 1408.95C1440.73 1405.12 1450.13 1391.7 1456.69 1397.26L1486.93 1422.8L1484.92 1425.87L1448.82 1408.95ZM1439.78 1424.52C1431.01 1422.71 1436.79 1407.46 1444.51 1411.32L1480.25 1429.08L1479.02 1432.53L1439.78 1424.52ZM1441.74 1460.04C1433 1462.21 1431.18 1446.09 1439.91 1446.19L1480.12 1446.74L1480.57 1450.35L1441.74 1460.04ZM1448.16 1477.87C1440.42 1482.34 1434 1467.36 1442.37 1465.08L1481.15 1454.66L1482.64 1457.95L1448.16 1477.87ZM1458.29 1492.36C1451.95 1498.52 1441.9 1485.55 1449.41 1481.37L1484.39 1462.06L1486.69 1464.89L1458.29 1492.36ZM1474.1 1505.3C1469.83 1512.98 1456.32 1503.41 1462.3 1497.24L1489.91 1468.93L1492.95 1471.03L1474.1 1505.3ZM1492.42 1512.59C1490.69 1521.11 1474.87 1515.8 1478.74 1508.24L1496.68 1473.41L1500.2 1474.51L1492.42 1512.59ZM1510.81 1514.21C1511.73 1522.88 1494.95 1522.18 1496.41 1513.9L1503.04 1475.56L1506.76 1475.61L1510.81 1514.21ZM1527.57 1512.26C1529.89 1520.64 1513.25 1522.61 1513.27 1514.21L1513.43 1475.31L1517.14 1474.81L1527.57 1512.26ZM1544.3 1504.85C1548.02 1512.79 1531.91 1517.35 1530.52 1509.02L1524.18 1470.62L1527.71 1469.53L1544.3 1504.85ZM1562.36 1495.73C1568.09 1502.44 1553.74 1510.91 1550.18 1503.21L1533.76 1467.73L1536.88 1465.83L1562.36 1495.73ZM1573.45 1481.89C1580.78 1486.93 1569.14 1498.69 1563.68 1492.18L1538.3 1462.04L1540.82 1459.35L1573.45 1481.89ZM1581.34 1465.46C1589.74 1468.5 1581.69 1482.74 1574.62 1477.83L1542.05 1455.08L1543.78 1451.84L1581.34 1465.46ZM1583.87 1448.26C1592.84 1449.1 1588.84 1464.82 1580.71 1461.84L1543.13 1448.07L1543.97 1444.53L1583.87 1448.26ZM1438.79 1444.17C1429.78 1444.48 1431.59 1428.34 1440.08 1430.25L1479.2 1439.18L1478.86 1442.74L1438.79 1444.17ZM1527.81 1379.64C1528.96 1371.04 1545.14 1375.4 1541.78 1383.18L1526.26 1419.06L1522.65 1418.15L1527.81 1379.64ZM1545.33 1385.94C1548.67 1377.86 1563.19 1385.97 1557.93 1392.7L1533.63 1423.74L1530.39 1422L1545.33 1385.94ZM1560.7 1398.96C1566.88 1392.63 1577.33 1405.32 1569.89 1409.73L1535.6 1430.05L1533.22 1427.29L1560.7 1398.96ZM1580.92 1432.67C1589.8 1431.18 1590.19 1447.41 1581.52 1446.59L1541.51 1442.74L1541.37 1439.15L1580.92 1432.67ZM1575.8 1415.22C1583.93 1411.47 1588.88 1426.99 1580.32 1428.48L1540.71 1435.31L1539.54 1431.88L1575.8 1415.22ZM1687.29 1531.61C1691 1531.61 1694 1534.55 1694 1538.14C1694 1541.68 1690.98 1544.6 1687.27 1544.6C1683.58 1544.6 1680.59 1541.68 1680.59 1538.14C1680.59 1534.55 1683.63 1531.61 1687.29 1531.61ZM1667.27 1533.08C1670.94 1533.08 1673.96 1536 1673.96 1539.54C1673.96 1543.13 1670.94 1546.02 1667.24 1546.02C1663.56 1546.02 1660.56 1543.13 1660.56 1539.54C1660.56 1536 1663.6 1533.08 1667.27 1533.08ZM1649.32 1534.52C1652.98 1534.52 1656 1537.4 1655.97 1540.96C1655.97 1544.55 1652.98 1547.44 1649.27 1547.44C1645.58 1547.44 1642.59 1544.55 1642.59 1540.96C1642.59 1537.4 1645.58 1534.52 1649.32 1534.52ZM1631.32 1535.93C1635.03 1535.93 1638.03 1538.82 1638.03 1542.39C1638 1545.97 1635.04 1548.88 1631.31 1548.88C1627.62 1548.88 1624.63 1545.97 1624.63 1542.39C1624.64 1538.82 1627.64 1535.93 1631.32 1535.93ZM1614.41 1536.37C1618.07 1536.37 1621.09 1539.26 1621.09 1542.85C1621.09 1546.39 1618.02 1549.34 1614.36 1549.34C1610.7 1549.34 1607.71 1546.39 1607.71 1542.85C1607.71 1539.26 1610.7 1536.37 1614.41 1536.37ZM1598.51 1537.79C1602.19 1537.79 1605.16 1540.71 1605.16 1544.27C1605.16 1547.84 1602.14 1550.76 1598.45 1550.76C1594.76 1550.76 1591.78 1547.84 1591.78 1544.27C1591.78 1540.71 1594.78 1537.79 1598.51 1537.79ZM1582.58 1538.21C1586.26 1538.21 1589.26 1541.13 1589.26 1544.7C1589.26 1548.29 1586.25 1551.18 1582.57 1551.18C1578.87 1551.18 1575.87 1548.29 1575.87 1544.7C1575.87 1541.13 1578.89 1538.21 1582.58 1538.21ZM1560.49 1537.64C1564.17 1537.64 1567.21 1540.56 1567.18 1544.15C1567.18 1547.71 1564.16 1550.59 1560.49 1550.59C1556.78 1550.59 1553.78 1547.71 1553.78 1544.15C1553.78 1540.56 1556.8 1537.64 1560.49 1537.64ZM1536.33 1540.06C1540.03 1540.06 1543.02 1542.98 1543.02 1546.55C1543.02 1550.14 1540.02 1553.03 1536.3 1553.03C1532.64 1553.03 1529.61 1550.14 1529.61 1546.55C1529.61 1542.98 1532.66 1540.06 1536.33 1540.06ZM1516.86 1541.93C1520.57 1541.93 1523.6 1544.84 1523.56 1548.43C1523.56 1552 1520.57 1554.87 1516.86 1554.87C1513.17 1554.87 1510.17 1552 1510.17 1548.43C1510.17 1544.84 1513.2 1541.93 1516.86 1541.93ZM1498.93 1539.34C1502.6 1539.34 1505.62 1542.28 1505.62 1545.87C1505.58 1549.4 1502.56 1552.35 1498.91 1552.35C1495.21 1552.35 1492.22 1549.4 1492.22 1545.87C1492.22 1542.28 1495.25 1539.34 1498.93 1539.34ZM1481.98 1538.82C1485.68 1538.82 1488.7 1541.71 1488.68 1545.32C1488.68 1548.86 1485.65 1551.76 1481.98 1551.76C1478.29 1551.76 1475.28 1548.86 1475.28 1545.32C1475.28 1541.71 1478.3 1538.82 1481.98 1538.82ZM1461.96 1538.24C1465.65 1538.24 1468.65 1541.15 1468.65 1544.72C1468.65 1548.29 1465.61 1551.21 1461.96 1551.21C1458.25 1551.21 1455.25 1548.29 1455.25 1544.72C1455.27 1541.15 1458.27 1538.24 1461.96 1538.24ZM1443.99 1535.69C1447.7 1535.69 1450.71 1538.59 1450.7 1542.18C1450.7 1545.72 1447.7 1548.62 1443.97 1548.62C1440.29 1548.62 1437.27 1545.72 1437.27 1542.18C1437.27 1538.59 1440.31 1535.69 1443.99 1535.69ZM1426.03 1535.1C1429.74 1535.1 1432.73 1538.02 1432.73 1541.58C1432.69 1545.17 1429.7 1548.04 1425.99 1548.04C1422.33 1548.04 1419.34 1545.17 1419.34 1541.58C1419.34 1538.02 1422.36 1535.1 1426.03 1535.1ZM1410.13 1534.52C1413.81 1534.52 1416.83 1537.45 1416.82 1541.04C1416.82 1544.6 1413.81 1547.47 1410.11 1547.47C1406.42 1547.47 1403.42 1544.6 1403.42 1541.04C1403.43 1537.45 1406.45 1534.52 1410.13 1534.52ZM1343.83 1558.74C1347.51 1558.74 1350.48 1561.68 1350.48 1565.25C1350.48 1568.84 1347.48 1571.72 1343.79 1571.72C1340.12 1571.72 1337.1 1568.84 1337.1 1565.25C1337.13 1561.69 1340.12 1558.74 1343.83 1558.74ZM1335.71 1353.33C1339.35 1353.33 1342.36 1356.29 1342.36 1359.83C1342.36 1363.41 1339.35 1366.32 1335.69 1366.32C1331.98 1366.32 1328.95 1363.41 1328.95 1359.83C1328.95 1356.29 1331.98 1353.33 1335.71 1353.33ZM1510.65 1433.94C1516.39 1433.94 1521 1438.42 1521 1443.91C1521 1449.43 1516.32 1453.89 1510.63 1453.89C1504.96 1453.89 1500.34 1449.43 1500.37 1443.91C1500.37 1438.42 1505 1433.94 1510.65 1433.94ZM1600.32 864.819C1612.17 857.665 1617.28 862.878 1611.7 872.595C1604.36 884.544 1602.41 894.74 1605.76 903.272L1615.95 880.831C1620.8 881.746 1626.28 882.049 1624.39 897.187C1616.66 900.08 1614.74 909.855 1610.8 916.412C1609.89 917.911 1605.71 914.987 1604.94 916.61C1598.39 902.25 1597.96 884.325 1600.32 864.819ZM1385.98 875.674C1374.14 868.556 1373.69 878.241 1379.29 887.99C1386.55 899.951 1388.49 910.156 1385.12 918.678L1380.33 903.42C1375.5 904.294 1372.68 898.732 1374.53 913.87C1382.22 916.788 1376.13 920.073 1380.05 926.634C1380.96 928.13 1386.48 924.541 1387.26 926.182C1393.85 911.851 1402.38 890.034 1385.98 875.674ZM1373.76 928.933C1363.13 922.327 1362.27 931.37 1366.99 940.423C1373.27 951.569 1374.61 961.069 1371.04 968.977L1367.29 954.778C1362.74 955.609 1360.4 950.424 1361.44 964.539C1368.47 967.225 1362.63 970.291 1365.99 976.374C1366.76 977.801 1372.06 974.454 1372.72 976C1379.47 962.614 1388.41 942.317 1373.76 928.933ZM1363.74 978.797C1355.59 975.779 1355.59 981.583 1359.6 986.717C1364.84 993.032 1366.42 998.885 1364.4 1004.25L1360.74 995.7C1357.54 996.746 1355.49 993.726 1357.19 1002.46C1362.45 1003.4 1358.44 1005.98 1361.25 1009.44C1361.91 1010.26 1365.48 1007.55 1366.05 1008.46C1370.08 999.313 1375.13 985.576 1363.74 978.797ZM1427.12 995.2C1423.97 993.485 1418.32 997.293 1414.53 1003.75C1410.76 1010.24 1410.24 1016.89 1413.36 1018.59C1416.54 1020.32 1422.18 1016.49 1425.98 1010.03C1429.74 1003.58 1430.28 996.924 1427.12 995.2ZM1601.84 959.353C1604.17 958.05 1608.3 960.896 1611.05 965.63C1613.84 970.391 1614.19 975.256 1611.89 976.521C1609.55 977.8 1605.43 974.979 1602.67 970.218C1599.88 965.482 1599.53 960.641 1601.84 959.353ZM1607.6 986.973C1609.5 985.997 1612.75 988.238 1614.93 991.94C1617.11 995.677 1617.4 999.569 1615.59 1000.59C1613.74 1001.54 1610.47 999.336 1608.28 995.553C1606.12 991.815 1605.81 987.971 1607.6 986.973ZM1578.59 940.541C1581.7 938.825 1587.3 942.621 1591.01 949.024C1594.74 955.358 1595.24 961.971 1592.12 963.682C1588.98 965.375 1583.42 961.59 1579.69 955.228C1575.94 948.829 1575.46 942.222 1578.59 940.541ZM1583.73 968.465C1586.85 966.803 1592.42 970.569 1596.15 976.95C1599.88 983.312 1600.37 989.919 1597.25 991.612C1594.11 993.312 1588.55 989.516 1584.84 983.163C1581.11 976.778 1580.61 970.171 1583.73 968.465ZM1588.48 996.341C1590.9 994.981 1595.31 997.975 1598.22 1002.98C1601.15 1008.02 1601.57 1013.23 1599.1 1014.57C1596.66 1015.95 1592.28 1012.95 1589.3 1007.92C1586.4 1002.88 1586 997.667 1588.48 996.341ZM1583.98 1025C1586.44 1023.62 1590.81 1026.64 1593.76 1031.68C1596.68 1036.69 1597.11 1041.9 1594.63 1043.25C1592.16 1044.57 1587.76 1041.58 1584.84 1036.55C1581.9 1031.53 1581.52 1026.32 1583.98 1025ZM1579.12 1052.02C1581.25 1050.24 1586.19 1052.3 1590.11 1056.66C1594.04 1060.98 1595.51 1066.02 1593.4 1067.78C1591.25 1069.58 1586.32 1067.51 1582.39 1063.17C1578.47 1058.82 1577.02 1053.82 1579.12 1052.02ZM1603.07 1036.81C1604.78 1035.4 1608.68 1037.05 1611.8 1040.45C1614.88 1043.92 1616.08 1047.86 1614.36 1049.29C1612.69 1050.71 1608.75 1049.09 1605.66 1045.62C1602.57 1042.2 1601.4 1038.24 1603.07 1036.81ZM1605.78 1059.04C1608.01 1058.79 1610.18 1062.38 1610.6 1066.94C1611.03 1071.51 1609.53 1075.34 1607.28 1075.52C1605.08 1075.74 1602.92 1072.19 1602.52 1067.63C1602.07 1063.07 1603.54 1059.2 1605.78 1059.04ZM1598.82 1080.5C1601.02 1080.4 1603.02 1084.04 1603.17 1088.62C1603.36 1093.2 1601.67 1096.98 1599.41 1097.03C1597.2 1097.13 1595.24 1093.47 1595.09 1088.93C1594.92 1084.36 1596.61 1080.53 1598.82 1080.5ZM1576.82 1077.21C1579.05 1075.57 1583.83 1078.04 1587.34 1082.7C1590.91 1087.29 1591.93 1092.44 1589.66 1094.04C1587.42 1095.68 1582.64 1093.22 1579.09 1088.57C1575.55 1083.96 1574.55 1078.83 1576.82 1077.21ZM1532.75 1066.31C1534.36 1065.14 1537.73 1066.87 1540.26 1070.18C1542.76 1073.45 1543.48 1077.07 1541.89 1078.21C1540.26 1079.38 1536.89 1077.64 1534.41 1074.34C1531.89 1071.05 1531.16 1067.47 1532.75 1066.31ZM1385.4 1065.82C1387.14 1064.62 1390.73 1066.49 1393.46 1070.01C1396.17 1073.57 1396.96 1077.49 1395.22 1078.68C1393.5 1079.97 1389.89 1078.06 1387.16 1074.55C1384.46 1070.98 1383.66 1067.11 1385.4 1065.82ZM1381.3 1033.18C1383.77 1032.75 1386.48 1036.47 1387.42 1041.47C1388.33 1046.46 1387.08 1050.93 1384.6 1051.35C1382.2 1051.73 1379.45 1047.99 1378.54 1043.01C1377.63 1037.99 1378.86 1033.58 1381.3 1033.18ZM1378.92 1024.9C1376.8 1024.28 1376.15 1020.26 1377.47 1015.95C1378.77 1011.56 1381.57 1008.54 1383.68 1009.17C1385.8 1009.74 1386.48 1013.78 1385.14 1018.09C1383.83 1022.43 1381.03 1025.5 1378.92 1024.9ZM1606.33 1007.1C1608.97 1005.65 1613.69 1008.87 1616.83 1014.28C1619.97 1019.63 1620.4 1025.19 1617.75 1026.64C1615.11 1028.09 1610.42 1024.86 1607.28 1019.49C1604.14 1014.11 1603.69 1008.55 1606.33 1007.1ZM1439.89 925.658C1442.31 928.177 1439.74 934.314 1434.17 939.3C1428.62 944.268 1422.1 946.235 1419.68 943.721C1417.25 941.172 1419.82 935.039 1425.35 930.056C1430.97 925.064 1437.47 923.093 1439.89 925.658ZM1403.35 926.936C1400.72 924.614 1402.75 918.286 1407.91 912.92C1413.09 907.555 1419.41 905.084 1422.05 907.382C1424.68 909.783 1422.6 916.064 1417.47 921.428C1412.31 926.853 1405.96 929.323 1403.35 926.936ZM1409.53 944.712C1411.8 946.483 1410.56 951.688 1406.77 956.298C1402.99 960.92 1398.07 963.309 1395.8 961.591C1393.53 959.851 1394.78 954.658 1398.56 950.024C1402.35 945.408 1407.29 943.014 1409.53 944.712ZM1396.2 991.232C1394.16 990.443 1393.91 986.402 1395.68 982.267C1397.42 978.101 1400.52 975.351 1402.54 976.129C1404.58 976.949 1404.78 980.966 1403.06 985.101C1401.31 989.271 1398.21 992.035 1396.2 991.232ZM1403.19 1001.28C1405.79 1002.16 1406.39 1007.17 1404.54 1012.5C1402.65 1017.82 1399 1021.48 1396.4 1020.65C1393.79 1019.77 1393.19 1014.75 1395.07 1009.44C1396.94 1004.11 1400.58 1000.44 1403.19 1001.28ZM1396.23 1046.31C1393.91 1044.74 1394.84 1039.61 1398.29 1034.87C1401.72 1030.14 1406.39 1027.52 1408.74 1029.08C1411.03 1030.68 1410.11 1035.84 1406.68 1040.56C1403.25 1045.27 1398.55 1047.86 1396.23 1046.31ZM1413.51 1057.72C1415.59 1058.98 1415.14 1063.47 1412.45 1067.81C1409.75 1072.12 1405.81 1074.67 1403.71 1073.43C1401.59 1072.2 1402.07 1067.66 1404.78 1063.32C1407.45 1059.03 1411.4 1056.52 1413.51 1057.72ZM1411.84 1084.22C1414.26 1084.62 1415.55 1088.95 1414.72 1093.94C1413.84 1098.88 1411.21 1102.65 1408.74 1102.27C1406.34 1101.87 1405.02 1097.5 1405.87 1092.52C1406.69 1087.55 1409.38 1083.79 1411.84 1084.22ZM1428.5 1084.62C1430.97 1084.74 1432.66 1088.95 1432.37 1093.99C1432.03 1099 1429.74 1102.99 1427.28 1102.84C1424.82 1102.71 1423.1 1098.48 1423.44 1093.46C1423.75 1088.43 1426.03 1084.42 1428.5 1084.62ZM1569.72 939.52C1567.64 939.127 1566.69 935.337 1567.59 931.101C1568.48 926.876 1570.92 923.741 1573 924.138C1575.03 924.541 1576.03 928.326 1575.11 932.598C1574.21 936.828 1571.77 939.972 1569.72 939.52ZM1593.97 925.214C1592.28 925.914 1589.66 923.614 1588.1 920.099C1586.61 916.611 1586.78 913.188 1588.49 912.523C1590.18 911.803 1592.84 914.091 1594.32 917.586C1595.87 921.095 1595.7 924.518 1593.97 925.214ZM1336.03 1133.06C1339.72 1133.06 1342.68 1147.53 1342.66 1165.31C1342.6 1183.06 1339.61 1197.56 1335.95 1197.56C1332.25 1197.56 1329.31 1183.06 1329.32 1165.31C1329.37 1147.53 1332.36 1133.06 1336.03 1133.06ZM1404.58 1121.6C1406.43 1121.6 1407.91 1130.44 1407.9 1141.29C1407.87 1152.14 1406.35 1161.01 1404.54 1161.01C1402.69 1161.01 1401.2 1152.14 1401.2 1141.29C1401.24 1130.44 1402.75 1121.6 1404.58 1121.6ZM1530.5 1140.22C1535.8 1140.22 1541.96 1158.25 1544.17 1180.38C1546.39 1202.43 1543.89 1220.48 1538.57 1220.48C1533.26 1220.48 1527.13 1202.43 1524.9 1180.38C1522.7 1158.25 1525.19 1140.22 1530.5 1140.22ZM1599.3 1130.2C1602.24 1131.72 1601.84 1151.36 1598.39 1182.68C1594.94 1214.03 1591.23 1239.11 1583.85 1234.75C1576.47 1230.38 1584.28 1208.61 1587.73 1177.29C1589.66 1159.62 1589.95 1141.37 1592.28 1131.49C1594.09 1123.84 1597.98 1129.57 1599.3 1130.2ZM1386.24 1160.34C1388.44 1161.84 1391.13 1181.44 1387.36 1212.77C1383.58 1244.14 1376.09 1269.18 1370.63 1264.84C1365.14 1260.47 1374.84 1239.43 1378.63 1208.09C1380.77 1190.43 1378.68 1171.44 1380.82 1161.61C1382.5 1153.93 1385.31 1159.65 1386.24 1160.34ZM1607.26 1107.99C1669.24 1145.18 1643.74 1232.37 1644.06 1240.93L1644.8 1261.32L1651.39 1261.07L1655.97 1145.65C1672.11 1145.3 1673.38 1182.23 1659.7 1256.43C1661.89 1269.28 1692.15 1330.17 1655.1 1297.16L1660.34 1322.36C1667.74 1318.05 1674.13 1320.42 1679.52 1329.49C1676.6 1342.36 1703.3 1347.35 1679.59 1353.78L1669.69 1332.86L1664.62 1362.38C1641.69 1331.38 1633.21 1302.69 1624.11 1278.52C1609.6 1240.1 1598.01 1212.5 1605.43 1194.73L1607.26 1107.99ZM1382.16 1087.9C1369.82 1103.31 1358.97 1120.87 1343.68 1129.85C1353.1 1151.04 1352.72 1170.27 1346.28 1227.74C1333.34 1263.84 1328.99 1320.56 1343.32 1303.59C1342.14 1309.12 1343.56 1291.15 1346.28 1287.13C1348.98 1283.09 1347.75 1305.93 1354.09 1300.6C1364.79 1291.53 1356.7 1328.43 1323.88 1322.24C1324.45 1331.99 1310.21 1344.62 1327.86 1354.35C1336.22 1342.96 1366.01 1347.99 1351.42 1335.14C1370.89 1308.97 1374.78 1292.67 1375.01 1272.11C1375.21 1255.05 1384.87 1266.53 1386.3 1262.74C1400.89 1224.35 1412.52 1204.6 1398.53 1181.81L1382.16 1087.9ZM1416.69 1140.72C1409.15 1095.06 1469.87 1114.54 1455.2 1181.9C1452.07 1197.52 1455.18 1213.18 1462.55 1228.79C1469.67 1243.5 1458.9 1261.05 1468.96 1275.79C1469.95 1282.3 1468.99 1290.79 1463.05 1298.3C1461.17 1287.65 1462.25 1271.25 1454.35 1274.91C1455.89 1286.8 1454.81 1293.49 1451.05 1295.11L1449.13 1276.01L1441.42 1276.08C1441.44 1286.61 1445.41 1296.11 1441.45 1307.62C1432.85 1312.98 1428.22 1315.48 1427.53 1323.76C1422.87 1330.96 1419.14 1326.67 1416.48 1316.63C1429.42 1309.05 1436.57 1298.25 1431.04 1280.43C1428.8 1288.13 1429.54 1292.97 1424.36 1292.05C1432.37 1226.29 1412.64 1189.24 1416.69 1140.72ZM1485.9 1179.99C1488.68 1136.6 1527.31 1151.62 1521.53 1215.42C1535.18 1255.71 1528.1 1282.52 1523.99 1301.62C1517.81 1312.76 1520.24 1324.93 1527.25 1343.79C1517.03 1346.3 1502.16 1349.21 1486.65 1346.67C1474.53 1292.05 1495.11 1234.59 1485.9 1179.99ZM1545.87 1137.43C1548.56 1124.31 1588.25 1089.6 1582.51 1125.01C1589.92 1166.73 1554.02 1249.6 1581.92 1262.89C1581.7 1277.88 1584.1 1295.78 1579.25 1311.72C1560.7 1316.36 1551.47 1170.77 1545.87 1137.43ZM1404.66 1243.22C1414.51 1252.48 1417.47 1270.35 1419.41 1284.39C1411.16 1302.94 1403.88 1305.14 1394.62 1302.59C1397.95 1289.17 1401.3 1269.37 1404.66 1243.22ZM1270.13 1424.21C1281.79 1427.58 1287.87 1437.26 1292.28 1444.96C1287.04 1457.17 1280 1459.88 1270.15 1460.24C1271.24 1451.89 1271.24 1439.85 1270.13 1424.21ZM1599.67 1252.79C1604.02 1252.79 1607.58 1265.26 1607.54 1280.57C1607.51 1295.85 1603.95 1308.33 1599.6 1308.33C1595.24 1308.33 1591.68 1295.85 1591.72 1280.57C1591.74 1265.26 1595.31 1252.79 1599.67 1252.79ZM1555.23 1268.6C1557.32 1268.6 1559.02 1281.02 1559 1296.35C1558.95 1311.66 1557.24 1324.13 1555.16 1324.13C1553.05 1324.13 1551.34 1311.66 1551.39 1296.35C1551.4 1281.02 1553.13 1268.6 1555.23 1268.6ZM1288.68 1383.35C1298.41 1375.08 1305.69 1374.95 1313.4 1379.06C1315.02 1379.88 1314.03 1386.25 1315.97 1387.77C1318.04 1389.44 1322.99 1386.22 1324.65 1389.14C1327.16 1393.48 1328.8 1399.59 1328.36 1408.43L1333.27 1414.99L1332.58 1424.62L1338.77 1425.92L1340.12 1439.68C1354.24 1454.69 1369.82 1428.94 1380.65 1447.14C1415.25 1449.1 1395.34 1423.8 1401.17 1410.56C1405.46 1400.78 1410.77 1392.1 1419.13 1388.61C1425.27 1384.95 1426.76 1387.3 1423.81 1392.48C1415.57 1406.79 1412.27 1417.77 1411.74 1429.78C1410.35 1462.56 1388.26 1443.32 1384.15 1455.86C1375.13 1478.33 1424.52 1498.8 1426.42 1525.07L1416.07 1525.05C1396.34 1474.57 1352.72 1501.74 1353.78 1475.21C1336.72 1491.87 1324.11 1480.72 1316.17 1463.54C1315.59 1478.38 1314.03 1491.27 1302.57 1490.75C1282.88 1492.22 1282.98 1508.32 1302.88 1519.04L1296.25 1523.83C1277.24 1515.01 1273.43 1498.22 1288.77 1488.75C1297.68 1486.63 1298.68 1476.81 1294.73 1470.84L1296.53 1443.1C1297.2 1429.16 1304.78 1416.63 1298.53 1401.23C1296.7 1397.44 1293.98 1397.52 1293.02 1402.72C1295.91 1408.26 1296.06 1413 1292.63 1418.58C1291.17 1421.23 1286.27 1422.02 1283.92 1416.56C1286.85 1406.67 1280.78 1390.03 1288.68 1383.35ZM1307.72 1399.26C1308.48 1398.74 1310.2 1400.4 1312.41 1403.55C1313.18 1404.69 1313.96 1408.33 1314.88 1409.78C1315.41 1410.68 1315.94 1409.28 1316.47 1410.28C1317.23 1411.6 1317.49 1415.11 1318.27 1416.63C1319.02 1418.13 1320.29 1417.58 1321.07 1419.19C1321.51 1420.15 1321.96 1421.08 1322.37 1422.02C1322.93 1423.21 1322.23 1426.01 1323.94 1425.51C1325.13 1425.19 1324.9 1427.81 1325.36 1428.91C1325.83 1430.05 1325.55 1433.94 1325.94 1435.02C1326.64 1436.81 1327.97 1435.71 1328.54 1437.33C1328.8 1438.13 1328.77 1442.67 1329.04 1443.39C1330.43 1447.26 1331.46 1448.55 1330.55 1449.18C1329.51 1449.85 1327.02 1446.96 1323.9 1441.89C1323.02 1440.47 1322.82 1437.9 1321.88 1436.11C1321.31 1435.07 1320 1434.9 1319.37 1433.72C1318.8 1432.57 1317.98 1427.91 1317.4 1426.71C1316.81 1425.49 1316.45 1427.71 1315.86 1426.42C1315.09 1424.82 1314.21 1418.58 1313.51 1417.04C1312.42 1414.42 1311.69 1416.58 1310.84 1414.25C1309.99 1412 1310.71 1412.87 1310.13 1411C1308.7 1406.17 1306.83 1399.88 1307.72 1399.26ZM1334.13 1376.34H1413.31V1383.99C1383.42 1398.54 1396.09 1447.55 1378.11 1435.26L1361.14 1433.29C1350.51 1427.56 1345.18 1416.01 1345.15 1402.6L1336.07 1403.15L1334.13 1376.34ZM1634.59 1405.07C1636.96 1405.07 1638.89 1407.43 1638.89 1410.33C1638.89 1413.2 1636.91 1415.62 1634.59 1415.62C1632.21 1415.62 1630.29 1413.2 1630.29 1410.33C1630.3 1407.44 1632.24 1405.07 1634.59 1405.07ZM1283.97 1363.9C1286.84 1363.9 1289.22 1361.11 1289.22 1357.65C1289.22 1354.25 1286.85 1351.42 1283.98 1351.42C1281.04 1351.42 1278.7 1354.25 1278.7 1357.65C1278.7 1361.11 1281.04 1363.9 1283.97 1363.9ZM1299.67 1343.79C1303.57 1343.79 1306.75 1346.57 1306.69 1349.99C1306.69 1353.43 1303.55 1356.22 1299.61 1356.22C1295.73 1356.22 1292.58 1353.43 1292.58 1349.99C1292.58 1346.57 1295.76 1343.79 1299.67 1343.79ZM1636.18 1338.02C1639.45 1338.02 1642.12 1341.01 1642.12 1344.73C1642.12 1348.42 1639.45 1351.42 1636.15 1351.42C1632.89 1351.42 1630.24 1348.42 1630.24 1344.73C1630.24 1341.01 1632.89 1338.02 1636.18 1338.02ZM1745.49 1393.55C1748.53 1393.55 1750.92 1415.75 1750.9 1442.92C1750.84 1470.1 1748.35 1492.22 1745.38 1492.22C1742.36 1492.22 1739.93 1470.1 1739.98 1442.92C1740.03 1415.75 1742.52 1393.55 1745.49 1393.55ZM1308.18 1496.08C1359.01 1492.89 1384.75 1499.9 1385.39 1517.13L1386.36 1543.01L1379.47 1543.37L1378.54 1532.24C1375.25 1528.06 1370.96 1524.83 1365.7 1528.32L1361.46 1537.79L1355.81 1538.09L1353.98 1527.37C1350.99 1521.81 1342.01 1518.2 1336 1525.14L1334.32 1536.47L1327.31 1535.35L1325.21 1522.43L1306.17 1515.2C1299.91 1508.81 1302.57 1502.44 1308.18 1496.08ZM1605.31 1455.84L1613.84 1456.91L1617.16 1482.61C1619.65 1492.22 1638.1 1491.22 1636.65 1502.69L1620.04 1529.58L1614.62 1529.46L1621.2 1517.1C1619.21 1510.96 1631.11 1498.1 1610.25 1511.09L1604.14 1530.56L1565.31 1532.46C1596.23 1501.81 1608.73 1476.28 1605.31 1455.84ZM1675.61 1448.16C1710.31 1443.72 1721.13 1458.41 1708.23 1492.22C1700.63 1502.44 1693 1513.61 1688.37 1525.73H1675.5L1691.17 1497.74C1705.29 1476.81 1700.6 1475.03 1683.02 1486.63L1670.61 1484.58L1675.61 1448.16ZM1619.25 1401.23L1621.62 1380.81L1626.2 1394.6L1634.02 1395.2L1645.04 1381.13C1647.25 1392.96 1656.78 1402.65 1651.67 1416.58C1649.8 1421.78 1645.08 1430.25 1635.8 1427.06C1634.16 1438.18 1633.51 1448.38 1636.83 1457.63L1640.69 1463.54C1640.99 1453.02 1641.31 1442.47 1644.58 1431.93C1657.92 1426.54 1685.13 1396.22 1669.66 1441.6C1662.36 1467.41 1657.04 1499.92 1653.66 1530.56L1641.81 1529.59C1651.29 1508.69 1644.82 1490.59 1625.26 1474.81L1626.31 1462.45L1627.3 1435.83C1616.53 1427.66 1611.51 1417.08 1619.25 1401.23ZM1435.75 1321.24C1438.72 1332.49 1444.44 1339.1 1446.02 1324.35C1450.13 1309.7 1455.98 1309.78 1455.2 1323.89C1458.63 1330.96 1460.5 1333.97 1466.19 1322.66C1463.25 1299.05 1447.06 1303.51 1435.75 1321.24ZM1534.04 1340.84C1536.62 1350.53 1541.56 1356.27 1542.95 1343.53C1546.51 1330.86 1551.54 1330.93 1550.86 1343.12C1553.84 1349.21 1555.43 1351.79 1560.36 1342.06C1557.82 1321.61 1543.84 1325.49 1534.04 1340.84ZM1283.06 1335.35C1292.35 1314.41 1312.29 1315.41 1295.35 1333.31L1288.23 1338.34C1286.71 1345.12 1284.03 1349.27 1281.18 1343.93L1283.06 1335.35ZM1308.47 1325.06C1317.78 1304.09 1337.72 1305.08 1320.74 1322.99L1313.65 1328.05C1312.13 1334.8 1309.41 1339.02 1306.59 1333.58L1308.47 1325.06ZM1370.64 1330.96C1379.93 1310.02 1399.88 1311.04 1382.89 1328.95L1375.81 1333.97C1374.3 1340.74 1371.61 1344.95 1368.73 1339.54L1370.64 1330.96ZM1390.79 1327.77C1400.07 1306.78 1420 1307.8 1403.06 1325.73L1395.95 1330.79C1394.44 1337.54 1391.75 1341.72 1388.86 1336.32L1390.79 1327.77ZM1709.61 1524.5C1722.35 1509.29 1713.55 1495.03 1706.34 1514.68L1705.22 1521.91C1700.51 1525.7 1698.29 1529.39 1703.65 1529.32L1709.61 1524.5ZM1720.06 1334.73C1710.85 1313.76 1690.93 1314.79 1707.84 1332.71L1714.92 1337.72C1716.42 1344.5 1719.06 1348.69 1721.94 1343.31L1720.06 1334.73ZM1703.4 1338.62C1694.18 1317.7 1674.25 1318.7 1691.17 1336.58L1698.23 1341.64C1699.76 1348.4 1702.43 1352.58 1705.29 1347.2L1703.4 1338.62ZM1619.49 1336.77C1617.23 1314.08 1597.96 1309.17 1608.42 1331.19L1613.57 1338.1C1612.89 1344.98 1614.09 1349.72 1618.52 1345.5L1619.49 1336.77ZM1595.76 1340.58C1600.82 1318.29 1583.98 1307.95 1587.02 1332.02L1589.75 1340.12C1586.96 1346.47 1586.61 1351.39 1592.17 1348.61L1595.76 1340.58ZM1577.53 1341.01C1580.75 1318.43 1563.16 1309.35 1568.11 1333.14L1571.48 1341.01C1569.14 1347.57 1569.22 1352.46 1574.56 1349.27L1577.53 1341.01ZM1587.83 1378.32L1603.62 1382.38L1610.97 1386.47L1610.92 1422.02L1598.33 1403.74L1587.83 1378.32ZM1686.99 1495.22L1666.07 1494.31L1663.86 1503.34L1665.55 1524.83L1672.15 1515.65L1686.99 1495.22ZM1653.95 1382.62C1680.64 1381.58 1698.92 1393.9 1702.75 1421.57L1702.7 1436.49C1702.38 1442.57 1695.25 1447.8 1688.96 1437.33C1685.58 1416.99 1675.35 1406.62 1658.18 1406.17L1653.95 1382.62ZM1709.61 1399.2L1715.52 1433.2L1720.85 1429.86L1719.93 1394.22L1728.39 1426.61L1730.5 1397.31L1737.04 1399.2L1736.89 1492.86L1730.91 1482.79L1724.02 1504.46C1720.73 1489.52 1723.52 1462.16 1714.22 1459.65L1709.61 1399.2ZM1552.23 1224.35L1546.25 1221.88L1536.71 1285.66C1539.81 1310 1543.84 1298.65 1546.14 1286.48L1552.23 1224.35ZM1400.79 1457.7C1405.24 1455.58 1411.49 1459.05 1414.72 1465.42C1417.91 1471.74 1416.94 1478.65 1412.46 1480.77C1408.02 1482.89 1401.76 1479.42 1398.53 1473.05C1395.34 1466.73 1396.34 1459.78 1400.79 1457.7ZM1419.03 1487.05C1422.33 1487.05 1425.02 1489.65 1425 1492.86C1425 1496.05 1422.33 1498.67 1419.02 1498.67C1415.71 1498.67 1413.02 1496.05 1413.02 1492.86C1413.02 1489.65 1415.71 1487.05 1419.03 1487.05ZM1437.41 1512.71C1440.45 1512.71 1442.96 1515.55 1442.96 1518.94C1442.96 1522.36 1440.45 1525.15 1437.38 1525.15C1434.32 1525.15 1431.83 1522.36 1431.83 1518.94C1431.83 1515.55 1434.33 1512.71 1437.41 1512.71ZM1422.68 1340.34C1425.5 1340.34 1427.81 1343.71 1427.81 1347.82C1427.81 1351.91 1425.5 1355.29 1422.66 1355.29C1419.85 1355.29 1417.52 1351.91 1417.52 1347.82C1417.52 1343.71 1419.86 1340.34 1422.68 1340.34Z" fill="#FF9E22"/>
<path fill-rule="evenodd" clip-rule="evenodd" d="M1518.32 1710.55H1517.65V1711.17H1507.25L1507.16 1774.81L1496.03 1766.8L1496.07 1750.91L1493.95 1751.94L1488.51 1754.06L1484.09 1754.63L1481.99 1754.53L1479.99 1754.23L1478.08 1753.71L1476.24 1753.01L1474.43 1752.06L1472.72 1751L1471.11 1749.7L1469.52 1748.18L1469.12 1747.75L1468.86 1747.37L1468.58 1746.95L1468.31 1746.58L1468.03 1746.13L1467.76 1745.73L1467.56 1745.33L1467.33 1744.91L1465.27 1741.31L1464.94 1740.19L1464.7 1739.18L1464.48 1738.18L1464.29 1737.13L1464.16 1736.1L1464.05 1735.06L1464.03 1734.04L1463.99 1732.97L1464.14 1730.59L1464.67 1728.35L1465.51 1726.29L1466.65 1724.41L1468.17 1722.69L1470 1721.22L1472.11 1719.92L1474.49 1718.85L1475.3 1718.53L1476.31 1718.26L1477.49 1718L1478.83 1717.73L1480.35 1717.45L1482.09 1717.19L1483.98 1716.93L1486.13 1716.66H1491.58L1496.11 1723.74L1496.13 1711.17H1454.75L1454.65 1774.88L1443.8 1766.67L1443.85 1741.12H1426.17V1744.91L1426.12 1745.73L1425.99 1746.56L1425.7 1747.3L1425.27 1748L1424.74 1748.57L1424.03 1749.05L1423.26 1749.39L1422.32 1749.6L1421.02 1749.5L1419.82 1749.22L1418.64 1748.77L1417.43 1748.15L1416.2 1747.37L1414.96 1746.4L1413.71 1745.33L1412.39 1744.11L1412.2 1743.89L1412.01 1743.66L1411.78 1743.39L1411.53 1743.13L1411.29 1742.81L1411.03 1742.49L1410.8 1742.16L1410.54 1741.79L1410.24 1741.39L1410.02 1741.05L1409.77 1740.74L1409.56 1740.38L1409.33 1740.02L1409.13 1739.74L1408.94 1739.48L1408.74 1739.2L1408.43 1738.7L1408.18 1738.18L1407.92 1737.66L1407.75 1737.15L1407.57 1736.63L1407.45 1736.1L1407.38 1735.58L1407.34 1735.06L1407.4 1734.27L1407.58 1733.52L1407.89 1732.82L1408.34 1732.19L1408.94 1731.67L1409.63 1731.23L1410.38 1730.97L1411.28 1730.7H1414.93L1414.98 1711.18H1398.39L1398.29 1774.86L1387.29 1766.67L1387.33 1748.27L1387.21 1748.35L1386.79 1748.66L1386.32 1748.95L1385.84 1749.22L1385.31 1749.5L1384.68 1749.82L1384.06 1750.1L1381.94 1751.05L1379.92 1751.65H1379.41H1379.17L1378.96 1751.67L1378.78 1751.7L1378.63 1751.72L1378.56 1751.77H1378.49L1378.17 1751.92L1375.87 1752.04L1374.64 1752.02L1373.44 1751.96L1372.32 1751.84L1371.2 1751.67L1370.13 1751.46L1369.06 1751.24L1368.04 1750.94L1367.06 1750.6L1366.08 1750.15L1365.11 1749.7L1364.14 1749.18L1363.2 1748.58L1362.28 1747.9L1361.33 1747.15L1360.43 1746.38L1359.44 1745.49L1358.78 1744.71L1358.13 1743.89L1357.43 1743.07L1356.77 1742.14L1356.12 1741.15L1355.43 1740.1L1354.76 1738.98L1354.02 1737.75L1353.53 1736.36L1353.2 1735.14L1352.91 1733.82L1352.64 1732.57L1352.44 1731.25L1352.36 1730.26H1339.26H1338.94L1338.67 1730.33L1338.42 1730.38L1338.19 1730.47L1337.98 1730.62L1337.72 1730.78L1337.53 1731L1337.36 1731.17L1336.07 1733.56L1335.6 1736.94L1335.68 1738.98L1335.97 1741.25L1336.45 1743.49L1337.14 1745.88L1338.02 1748.35L1339.13 1750.89L1340.39 1753.48L1341.89 1756.21L1344.52 1760.59L1349.92 1767.7L1342.38 1772.12L1341.14 1771.44L1340.55 1771.04L1339.96 1770.55L1339.45 1770L1338.94 1769.35L1338.41 1768.65L1337.96 1767.83L1337.49 1767.03L1332.66 1757.55L1332.38 1756.91L1332.11 1756.26L1331.82 1755.56L1331.48 1754.84L1331.19 1754.02L1330.83 1753.22L1330.49 1752.35L1330.12 1751.42L1329.77 1750.48L1329.45 1749.58L1329.1 1748.7L1328.74 1747.83L1328.45 1746.99L1328.15 1746.21L1327.88 1745.44L1327.58 1744.64L1327.17 1743.34L1326.79 1742.03L1326.46 1740.67L1326.14 1739.33L1325.88 1738.01L1325.59 1736.6L1325.35 1735.26L1325.14 1733.74L1325.15 1732.52L1325.22 1731.4L1325.43 1730.33L1325.64 1729.31L1325.95 1728.31L1326.3 1727.39L1326.72 1726.54L1327.17 1725.77L1328.3 1723.75L1329.01 1722.82L1329.74 1722.02L1330.56 1721.28L1331.48 1720.63L1332.45 1720.08L1333.52 1719.59L1334.64 1719.26L1335.89 1719H1359.6L1359.58 1725.67L1361.85 1724.99L1362.41 1724.72L1362.93 1724.34L1363.42 1723.87L1363.87 1723.34L1364.32 1722.77L1364.68 1722.05L1365.03 1721.28L1365.28 1720.55L1365.54 1718L1365.41 1714.92V1714.5V1714.19L1365.36 1713.96L1365.35 1713.72V1713.65L1365.22 1713.52L1365.11 1712.92L1365.05 1712.68L1365.01 1712.48L1364.94 1712.32L1364.89 1712.22L1364.2 1711.18H1316.95L1316.88 1774.8L1305.64 1766.81L1305.66 1739.15L1303.61 1740.1L1302.8 1740.33L1302.07 1740.48L1301.35 1740.65L1300.63 1740.77L1299.93 1740.85L1299.21 1740.9L1298.48 1740.93L1297.76 1740.98H1295.67L1294.91 1740.85L1294.19 1740.67L1293.41 1740.48L1292.57 1740.25L1291.66 1739.96L1290.74 1739.6L1289.72 1739.23L1288.48 1738.73L1284.75 1735.92L1284.22 1735.26L1284.12 1735.34L1284.03 1735.47L1282.01 1738.84L1278.84 1742.05L1277.03 1743.32L1280.31 1748.35L1284.81 1755.04L1289.91 1762.17L1292.49 1764.91L1296.9 1769.35L1287.53 1774.01L1282.67 1766.48L1278.89 1760.7L1273.38 1752.99L1270.4 1748.56L1268.95 1746.14L1267.67 1743.79L1266.53 1741.52L1265.51 1739.3L1264.67 1737.11L1263.95 1734.99L1263.43 1732.92L1263.03 1730.73L1263.21 1729.15L1263.81 1727.76L1263.93 1727.48L1264.2 1727.11L1264.5 1726.74L1264.83 1726.49L1265.21 1726.22L1265.59 1726.02L1266.04 1725.77L1266.8 1725.41H1275.32V1711.18H1257.61L1257.64 1701.08H1443.97L1431.71 1686.04L1431.56 1685.84L1431.44 1685.75L1431.32 1685.6L1431.14 1685.47L1431.02 1685.34L1430.83 1685.25L1430.6 1685.1L1430.53 1685.08L1428.03 1684.65H1414.48L1408.47 1672.58H1428.85L1431.71 1673.06L1432.38 1673.22H1432.49L1432.73 1673.28L1433.08 1673.35L1433.38 1673.4L1433.63 1673.48L1433.91 1673.63L1434.19 1673.85L1434.48 1674.06L1439.11 1680.26L1444.27 1687.62L1446.15 1690.06L1447.76 1692.53L1449.63 1695.12L1451.35 1697.84L1453.47 1701.08H1518.34L1518.32 1710.55ZM1496.09 1727.31L1491.23 1727.05H1488.43L1488.06 1727.08H1487.69L1487.34 1727.1L1486.95 1727.19L1486.58 1727.25L1486.17 1727.33L1485.78 1727.47L1485.18 1727.65L1483.44 1727.86L1482 1728.15L1480.69 1728.55L1479.38 1729.07L1478.2 1729.72L1477.1 1730.47L1476.01 1731.37L1475.09 1732.29L1475.04 1732.39L1474.94 1732.56L1474.82 1732.72L1474.7 1732.91L1474.51 1733.29L1474.43 1733.46L1474.32 1733.71L1474.16 1734.03L1474.04 1734.46L1473.93 1734.81L1473.81 1735.25L1473.71 1735.58L1473.66 1735.98L1473.65 1736.35V1736.72L1473.66 1737.65L1473.74 1738.53L1473.94 1739.32L1474.16 1740.12L1474.49 1740.87L1474.82 1741.61L1475.22 1742.31L1475.72 1742.94L1475.79 1743.01L1475.96 1743.18L1476.18 1743.36L1476.44 1743.56L1476.8 1743.78L1477.2 1744.01L1477.62 1744.28L1477.95 1744.41L1478.32 1744.56L1478.89 1744.68L1479.45 1744.8L1479.98 1744.87L1480.54 1744.91L1481.1 1744.96L1481.62 1745H1482.18H1482.8L1483.36 1744.96L1483.98 1744.91L1484.53 1744.8L1485.06 1744.7L1485.64 1744.61L1486.17 1744.41L1486.68 1744.26L1487.21 1744.04L1487.78 1743.78L1488.36 1743.48L1489.03 1743.13L1489.72 1742.73L1490.43 1742.24L1491.18 1741.71L1492.02 1741.14L1492.61 1740.76L1493.13 1740.35L1493.63 1740L1494.03 1739.67L1494.41 1739.32L1494.72 1739.05L1494.94 1738.76L1495.17 1738.45L1496.08 1737.28V1727.31H1496.09ZM1710.25 1673.22H1710.3L1710.59 1673.27L1710.92 1673.34L1711.2 1673.39L1711.46 1673.47L1711.75 1673.62L1712.03 1673.84L1712.3 1674.05L1716.94 1680.26L1722.11 1687.61L1724.02 1690.05L1725.59 1692.52L1727.46 1695.11L1729.19 1697.83L1731.33 1701.07H1743.69L1743.65 1710.55H1742.97V1711.17H1732.75L1732.65 1774.53L1721.66 1767.4L1721.7 1729.99H1701.18H1700.94L1700.73 1730.05L1700.49 1730.07L1700.23 1730.12L1699.96 1730.2L1699.71 1730.3L1699.39 1730.37L1699.29 1730.42L1697.64 1731.92L1696.56 1734.03L1696.19 1736.96V1737.38L1696.22 1737.9V1738.4L1696.25 1738.92L1696.32 1739.45L1696.4 1739.97L1696.44 1740.47L1696.56 1740.99L1696.64 1741.52L1696.77 1742.02L1696.92 1742.56L1697.09 1743.09L1697.27 1743.63L1697.44 1744.18L1697.69 1744.78L1697.92 1745.35L1698.49 1746.62L1699.13 1747.91L1699.78 1749.17L1700.54 1750.36L1701.29 1751.51L1702.12 1752.69L1703 1753.8L1703.93 1754.93L1707.19 1758.44L1714.42 1764.92L1706.1 1768.74L1704.9 1768.35L1704.22 1768.04L1703.55 1767.64L1702.91 1767.17L1702.33 1766.64L1701.78 1766.07L1701.23 1765.38L1700.73 1764.68L1694.85 1756.13L1693.76 1754.52L1692.76 1752.91L1691.84 1751.39L1690.96 1749.82L1690.14 1748.27L1689.44 1746.74L1688.77 1745.28L1688.19 1743.78L1687.67 1742.33L1687.22 1740.97L1686.87 1739.62L1686.57 1738.35L1686.3 1737.1L1686.15 1735.93L1686.05 1734.78L1685.99 1733.73V1732.53L1686.07 1731.46L1686.23 1730.37L1686.39 1729.42L1686.63 1728.49L1686.89 1727.62L1687.25 1726.8L1687.65 1726.05L1689.06 1723.83L1690.84 1721.74L1692.93 1720.1L1695.09 1718.99H1721.7V1711.17H1677.84L1677.72 1774.85L1666.74 1766.67L1666.79 1748.27L1666.65 1748.34L1666.25 1748.65L1665.77 1748.94L1665.3 1749.21L1664.72 1749.5L1664.12 1749.82L1663.48 1750.09L1661.39 1751.04L1659.37 1751.64H1658.87H1658.59L1658.4 1751.66L1658.2 1751.69L1658.07 1751.71L1657.99 1751.76H1657.92L1657.62 1751.91L1655.31 1752.04L1654.1 1752.02L1652.88 1751.95L1651.74 1751.83L1650.64 1751.66L1649.56 1751.46L1648.52 1751.24L1647.49 1750.94L1646.5 1750.59L1645.5 1750.14L1644.54 1749.69L1643.56 1749.17L1642.64 1748.57L1641.71 1747.89L1640.76 1747.15L1639.87 1746.37L1638.94 1745.48L1638.22 1744.7L1637.55 1743.89L1636.91 1743.06L1636.22 1742.14L1635.56 1741.14L1634.88 1740.09L1634.18 1738.97L1633.48 1737.74L1633.02 1736.35L1632.63 1735.13L1632.33 1733.81L1632.06 1732.56L1631.86 1731.24L1631.74 1729.94L1631.66 1728.64L1631.61 1725.92H1638.17L1641.29 1724.98L1641.83 1724.71L1642.35 1724.33L1642.85 1723.86L1643.3 1723.33L1643.71 1722.76L1644.13 1722.04L1644.45 1721.27L1644.71 1720.54L1644.97 1717.99L1644.85 1714.91V1714.49L1644.82 1714.19L1644.8 1713.95L1644.78 1713.71V1713.64L1644.66 1713.51L1644.54 1712.91L1644.47 1712.67L1644.45 1712.47L1644.4 1712.31L1644.35 1712.21H1644.3L1643.66 1711.17H1622.11L1622.03 1774.53L1611.04 1766.8L1611.1 1729.99H1598.8L1600.39 1732.56L1601.55 1736.46L1601.92 1740.28L1601.91 1741.71L1601.74 1743.09L1601.52 1744.39L1601.17 1745.7L1600.69 1746.97L1600.17 1748.19L1599.53 1749.43L1598.77 1750.64L1598.3 1751.26L1597.82 1751.86L1597.3 1752.43L1596.72 1752.95L1596.15 1753.4L1595.51 1753.85L1594.89 1754.25L1594.11 1754.65L1593.31 1754.85L1592.64 1755.05L1591.94 1755.18L1591.28 1755.34L1590.63 1755.47L1589.95 1755.57L1589.3 1755.68L1588.55 1755.8L1587.15 1755.7L1585.81 1755.49L1584.5 1755.18L1583.19 1754.75L1581.96 1754.12L1580.71 1753.45L1579.53 1752.6L1578.37 1751.69L1577.15 1750.64L1575.91 1749.44L1574.73 1748.14L1573.58 1746.77L1572.5 1745.28L1571.46 1743.65L1570.47 1741.93L1569.52 1740.19L1566.55 1734.15L1562.83 1723.95L1572.1 1719.05L1572.15 1722.01V1722.56L1572.2 1723.16L1572.24 1723.73L1572.27 1724.31L1572.33 1724.83L1572.39 1725.31L1572.46 1725.8L1572.54 1726.28L1572.61 1726.72L1572.74 1727.18L1572.84 1727.62L1572.94 1727.99L1573.06 1728.37L1573.21 1728.74L1573.38 1729.17L1575 1734.23L1575.44 1735.52L1575.94 1736.74L1576.52 1737.89L1577.15 1738.97L1577.84 1739.97L1578.6 1740.92L1579.41 1741.83L1580.29 1742.67L1581.07 1743.25L1581.89 1743.82L1582.7 1744.25L1583.55 1744.62L1584.43 1744.91L1585.33 1745.07L1586.24 1745.22L1587.09 1745.28L1588.7 1744.93L1590.31 1744.1L1590.57 1743.88L1590.86 1743.51L1591.17 1743.06L1591.46 1742.49L1591.7 1741.83L1591.94 1741.11L1592.14 1740.21L1592.29 1739.34V1738.64L1592.23 1737.8L1592.14 1737.07L1592.01 1736.3L1591.87 1735.55L1591.65 1734.85L1591.41 1734.15L1591.17 1733.46L1590.85 1732.76L1590.47 1732.09L1590.09 1731.36L1589.63 1730.64L1589.11 1729.87L1588.56 1729.09L1587.94 1728.35L1587.37 1727.62L1585.14 1725.57L1584.9 1725.31L1584.66 1725.1L1584.25 1724.76L1583.77 1724.36L1583.14 1723.83L1582.42 1723.29L1581.58 1722.66L1577.27 1719.51L1611.12 1719.36V1711.17H1561.43V1701.07H1721.8L1709.53 1686.03L1709.4 1685.83L1709.28 1685.73L1709.16 1685.59L1708.98 1685.46L1708.83 1685.33L1708.66 1685.24L1708.44 1685.09L1708.38 1685.06L1705.87 1684.64H1692.33L1686.29 1672.57H1706.71L1709.53 1673.05L1710.25 1673.22ZM1305.71 1711.17H1286.06L1286.04 1728.55L1287.28 1729.45L1289.65 1730.25L1291.85 1730.85H1294.85L1295.63 1730.82L1296.36 1730.72L1297.12 1730.69L1297.88 1730.57L1298.6 1730.38L1299.33 1730.18L1300.09 1729.93L1300.86 1729.62L1301.4 1729.45L1301.95 1729.18L1302.57 1728.88L1303.18 1728.5L1303.89 1728.1L1304.61 1727.6L1305.39 1727L1305.68 1726.81L1305.71 1711.17ZM1372.44 1711.17L1373.22 1712.74L1374.88 1716.78L1375.46 1720.56L1375.42 1722.04L1375.24 1723.44L1374.97 1724.79L1374.62 1726.1L1374.14 1727.4L1373.57 1728.64L1372.89 1729.83L1372.1 1730.97L1371.75 1731.46L1371.33 1731.92L1370.88 1732.32L1370.42 1732.77L1369.9 1733.16L1369.33 1733.51L1368.75 1733.86L1368.08 1734.24L1365.84 1735.06L1363.68 1735.88L1361.76 1736.1L1362.24 1736.98L1362.94 1737.75L1363.8 1738.57L1364.75 1739.31L1365.84 1739.95L1367.1 1740.44L1368.48 1740.85L1370.03 1741.14L1371.75 1741.35L1373.61 1741.39H1374.02L1374.4 1741.37H1374.75L1375.05 1741.35L1375.3 1741.31L1375.51 1741.29L1375.7 1741.24L1375.87 1741.19L1378.4 1740.48L1380.76 1739.35L1383.4 1737.72L1386.17 1735.27L1387.34 1733.89L1387.4 1711.17H1372.44ZM1443.89 1730.7V1711.17H1426.25L1426.22 1730.7H1443.89ZM1651.86 1711.17L1652.62 1712.74L1654.33 1716.78L1654.88 1720.56L1654.83 1722.04L1654.66 1723.44L1654.43 1724.79L1654.05 1726.1L1653.58 1727.4L1653 1728.64L1652.31 1729.83L1651.56 1730.97L1651.17 1731.46L1650.77 1731.92L1650.32 1732.32L1649.84 1732.77L1649.34 1733.16L1648.77 1733.51L1648.2 1733.86L1647.5 1734.24L1645.28 1735.06L1643.11 1735.88L1641.17 1736.1L1641.72 1736.98L1642.36 1737.75L1643.24 1738.57L1644.19 1739.31L1645.28 1739.95L1646.55 1740.44L1647.92 1740.85L1649.46 1741.14L1651.17 1741.35L1653.06 1741.39H1653.46L1653.84 1741.37H1654.16L1654.48 1741.35L1654.73 1741.31L1654.95 1741.29L1655.15 1741.24L1655.28 1741.19L1657.82 1740.48L1660.21 1739.35L1662.79 1737.72L1665.6 1735.27L1666.82 1733.89L1666.85 1711.17H1651.86Z" fill="#FF9E22"/>
<path d="M1712.77 2012.53C1706.9 2012.53 1697.01 2010.36 1688.07 2006.99L1676.02 1986.59C1679.43 1986.91 1684.06 1987.87 1688.37 1987.87C1695.48 1987.87 1698.86 1983.84 1698.86 1972.7V1914.06H1655.96V1995.55C1655.96 2002.97 1658.12 2010.69 1681.88 2025.19L1751.05 2067.19C1758.77 2071.82 1764.63 2078.93 1764.63 2087.26C1764.63 2094.36 1757.21 2106.4 1752.58 2111.04L1726.97 2092.49C1729.12 2089.41 1731.89 2082.63 1731.89 2080.14C1731.89 2075.54 1729.12 2070.89 1723.88 2067.5C1715.86 2062.24 1644.85 2020.88 1638.98 2016.86C1629.39 2010.36 1627.55 2004.82 1627.55 1998.64V1914.06H1605.32L1589.88 1888.12H1752.29L1767.73 1914.06H1727.26V1992.79C1727.26 2008.52 1722.65 2012.53 1712.77 2012.53Z" fill="#FF9E22"/>
<path d="M1811.53 2011.29C1811.53 2015.62 1808.44 2018.11 1803.49 2018.11C1795.18 2018.11 1766.47 1988.76 1766.47 1977.65C1766.47 1974.27 1769.24 1970.87 1774.19 1970.87H1783.13V1914.06H1752.25L1736.82 1888.13H1904.17L1919.59 1914.06H1888.72V2053.28L1859.4 2033.84L1860.93 1997.42H1811.53V2011.29ZM1811.53 1971.48H1860.31V1914.06H1811.53V1971.48Z" fill="#FF9E22"/>
<path d="M1065.57 2012.53C1059.72 2012.53 1049.81 2010.36 1040.86 2006.99L1028.82 1986.59C1032.22 1986.91 1036.86 1987.87 1041.18 1987.87C1048.28 1987.87 1051.67 1983.84 1051.67 1972.7V1914.06H1008.76V1995.55C1008.76 2002.97 1010.92 2010.69 1034.7 2025.19L1103.85 2067.19C1111.56 2071.82 1117.44 2078.93 1117.44 2087.26C1117.44 2094.36 1110.01 2106.4 1105.38 2111.04L1079.77 2092.49C1081.93 2089.41 1084.69 2082.63 1084.69 2080.14C1084.69 2075.54 1081.93 2070.89 1076.69 2067.5C1068.64 2062.24 997.645 2020.88 991.78 2016.86C982.203 2010.36 980.356 2004.82 980.356 1998.64V1914.06H958.122L942.682 1888.12H1105.07L1120.53 1914.06H1080.07V1992.79C1080.07 2008.52 1075.45 2012.53 1065.57 2012.53Z" fill="#FF9E22"/>
<path d="M1164.34 2011.29C1164.34 2015.62 1161.26 2018.11 1156.31 2018.11C1147.97 2018.11 1119.26 1988.76 1119.26 1977.65C1119.26 1974.27 1122.05 1970.87 1126.98 1970.87H1135.94V1914.06H1105.07L1089.62 1888.13H1256.95L1272.39 1914.06H1241.54V2053.28L1212.18 2033.84L1213.72 1997.42H1164.33V2011.29H1164.34ZM1164.34 1971.48H1213.12V1914.06H1164.34V1971.48Z" fill="#FF9E22"/>
<path d="M1378.81 2012.53C1372.95 2012.53 1363.06 2010.36 1354.11 2006.99L1342.05 1986.59C1345.46 1986.91 1350.1 1987.87 1354.41 1987.87C1361.52 1987.87 1364.91 1983.84 1364.91 1972.7V1914.06H1321.99V1995.55C1321.99 2002.97 1324.16 2010.69 1347.93 2025.19L1417.08 2067.19C1424.8 2071.82 1430.68 2078.93 1430.68 2087.26C1430.68 2094.36 1423.25 2106.4 1418.63 2111.04L1393.02 2092.49C1395.19 2089.41 1397.94 2082.63 1397.94 2080.14C1397.94 2075.54 1395.19 2070.89 1389.92 2067.5C1381.88 2062.24 1310.88 2020.88 1305.01 2016.86C1295.44 2010.36 1293.61 2004.82 1293.61 1998.64V1914.06H1271.36L1255.93 1888.12H1418.33L1433.77 1914.06H1393.31V1992.79C1393.31 2008.52 1388.69 2012.53 1378.81 2012.53Z" fill="#FF9E22"/>
<path d="M1518.32 1997.1C1507.53 1997.1 1497.96 1988.76 1489.91 1981.68C1483.74 1991.84 1474.48 1998.65 1468.61 2003.58C1480.97 2021.18 1493.01 2033.23 1509.37 2050.52L1497.33 2061.63L1446.08 1994.33C1440.84 1987.21 1432.51 1973.64 1432.51 1965.31C1432.51 1959.43 1438.99 1954.51 1444.24 1954.51C1450.7 1954.51 1457.83 1963.46 1461.21 1963.46C1462.15 1963.46 1462.76 1961.91 1462.76 1959.74V1914.06H1417.99L1402.56 1888.13H1589.64L1605.08 1914.06H1574.22V2053.28L1544.86 2033.84L1546.42 1991.25C1536.53 1996.48 1528.83 1997.1 1518.32 1997.1ZM1491.16 1914.06V1968.07C1500.11 1970.87 1505.99 1971.17 1514.02 1971.17C1518.95 1971.17 1543.33 1965.31 1545.81 1961.59V1914.06H1491.16V1914.06Z" fill="#FF9E22"/>
<path d="M1968.77 2064.35C1965.68 2060.03 1961.96 2059.07 1956.41 2058.78C1950.85 2058.48 1941.6 2054.14 1938.82 2048.59C1937.28 2045.51 1937.28 2034.68 1937.28 2027.59C1937.28 2022.35 1941.9 2017.43 1947.18 2017.43C1954.26 2017.43 1959.2 2021.11 1963.83 2034.09C1994.09 2032.84 2011.68 2010.9 2011.68 2002.9C2011.68 2000.44 2010.12 1997.96 2006.44 1997.96C2001.17 1997.96 1984.21 2006.3 1973.07 2006.3C1957.34 2006.3 1934.8 1976.96 1934.8 1957.2C1934.8 1939.92 1944.38 1931.58 1953.94 1931.58H1997.18V1914H1919.36L1903.94 1888.05H2041.01L2056.45 1914H2023.72V1948.85C2023.72 1953.81 2021.55 1956.28 2018.46 1956.28H1967.84C1960.43 1956.6 1954.57 1963.37 1954.57 1971.4C1954.57 1978.52 1957.34 1980.38 1960.43 1980.38C1962.9 1980.38 1994.09 1972.02 2000.25 1972.02C2009.21 1972.02 2013.22 1973.88 2016.31 1978.21C2025.59 1991.78 2033.3 2007.52 2033.3 2017.1C2033.3 2031.01 2007.67 2055.08 1979.58 2057.87L2003.02 2095.53L1990.37 2103.23C1982.97 2089.64 1972.16 2068.97 1968.77 2064.35Z" fill="#FF9E22"/>
<path d="M1981.7 1841.44C1981.7 1823.53 1995.6 1811.18 2011.68 1811.18C2024.94 1811.18 2037.9 1820.74 2041.91 1853.18L2030.81 1856.56C2027.71 1842.67 2023.7 1837.12 2017.2 1837.12C2007.95 1837.12 2003.31 1842.05 2003.31 1852.55C2003.31 1859.34 2008.88 1877.56 2016.6 1890.53H2003.31C1994.37 1877.24 1981.7 1853.78 1981.7 1841.44Z" fill="#FF9E22"/>
<path d="M1098.06 2145.64H1035.71V2332.3H1098.06V2145.64Z" fill="#FF9E22"/>
<path d="M1009.31 2145.64V2360.57H945.273L943.657 2204.31C944.923 2169.72 970.363 2152.73 1009.31 2145.64Z" fill="#FF9E22"/>
<path d="M1120.38 2145.64V2360.57H1184.42L1186.06 2204.31C1184.77 2169.72 1159.33 2152.73 1120.38 2145.64Z" fill="#FF9E22"/>
<path d="M1675.87 2145.64H1613.52V2332.3H1675.87V2145.64Z" fill="#FF9E22"/>
<path d="M1590.61 2145.64V2360.57H1523.19L1521.46 2204.31C1522.83 2169.72 1549.59 2152.73 1590.61 2145.64Z" fill="#FF9E22"/>
<path d="M1704 2145.64V2360.57H1766.39L1767.97 2204.31C1766.71 2169.72 1741.93 2152.73 1704 2145.64Z" fill="#FF9E22"/>
<path d="M1810.73 2213.3H2058.61V2151.89L1878.4 2150.32C1838.5 2151.57 1818.9 2175.95 1810.73 2213.3Z" fill="#FF9E22"/>
<path d="M1993.87 2230.88H1813.78V2282.16H1993.87V2230.88Z" fill="#FF9E22"/>
<path d="M1813.72 2303.29H2058.32V2354.57L1880.47 2355.87C1841.11 2354.85 1821.77 2334.48 1813.72 2303.29Z" fill="#FF9E22"/>
<path d="M1228.88 2212.26H1480.63V2149.2L1297.62 2147.57C1257.07 2148.84 1237.19 2173.9 1228.88 2212.26Z" fill="#FF9E22"/>
<path d="M1484.11 2306.04H1228.89V2357.33L1414.42 2358.63C1455.51 2357.59 1475.73 2337.26 1484.11 2306.04Z" fill="#FF9E22"/>
<path d="M1225.41 2231.07L1426.73 2231.81C1461.03 2233.43 1480.26 2255.54 1482.64 2283.34L1286.36 2283.09C1247.32 2281.66 1228.69 2262.87 1225.41 2231.07Z" fill="#FF9E22"/>
<path d="M2053.48 2115.36H943.366V2127.53H2053.48V2115.36Z" fill="#FF9E22"/>
</svg>
