<svg width="501" height="98" viewBox="0 0 501 98" fill="none" xmlns="http://www.w3.org/2000/svg">
<path d="M69.8988 0.636963H41.9385V84.3471H69.8988V0.636963Z" fill="black"/>
<path d="M30.1008 0.636963V97.0234H1.38169L0.656982 26.9474C1.22472 11.436 12.6333 3.81826 30.1008 0.636963Z" fill="black"/>
<path d="M79.9086 0.636963V97.0234H108.628L109.364 26.9474C108.786 11.436 97.3761 3.81826 79.9086 0.636963Z" fill="black"/>
<path d="M329.016 0.636963H301.057V84.3471H329.016V0.636963Z" fill="black"/>
<path d="M290.783 0.636963V97.0234H260.548L259.772 26.9474C260.386 11.436 272.389 3.81826 290.783 0.636963Z" fill="black"/>
<path d="M341.631 0.636963V97.0234H369.612L370.321 26.9474C369.753 11.436 358.64 3.81826 341.631 0.636963Z" fill="black"/>
<path d="M389.494 30.9799H500.657V3.43977L419.842 2.73666C401.947 3.29722 393.16 14.2286 389.494 30.9799Z" fill="black"/>
<path d="M471.623 38.865H390.863V61.8583H471.623V38.865Z" fill="black"/>
<path d="M390.835 71.3384H500.526V94.3313L420.77 94.9147C403.119 94.4587 394.448 85.3247 390.835 71.3384Z" fill="black"/>
<path d="M128.566 30.5149H241.463V2.23259L159.389 1.50244C141.208 2.07556 132.293 13.3101 128.566 30.5149Z" fill="black"/>
<path d="M243.022 72.5699H128.568V95.5686L211.771 96.152C230.199 95.6888 239.263 86.5705 243.022 72.5699Z" fill="black"/>
<path d="M127.01 38.9493L217.289 39.2834C232.67 40.0089 241.298 49.9206 242.364 62.3906L154.341 62.2776C136.836 61.6354 128.478 53.2095 127.01 38.9493Z" fill="black"/>
</svg>
