<svg width="16" height="16" viewBox="0 0 16 16" fill="none" xmlns="http://www.w3.org/2000/svg">
<g clip-path="url(#clip0_44_82)">
<path d="M7.9999 15.6C10.2643 15.6 12.0999 12.287 12.0999 8.20005C12.0999 4.11314 10.2643 0.800049 7.9999 0.800049C5.73553 0.800049 3.8999 4.11314 3.8999 8.20005C3.8999 12.287 5.73553 15.6 7.9999 15.6Z" fill="black"/>
<path d="M4.90024 1.1001C4.80024 1.2001 1.90024 2.6001 1.70024 3.6001C1.50024 4.6001 0.700239 6.7001 0.600239 7.4001C0.500239 8.1001 0.700239 10.9001 1.30024 11.6001C1.90024 12.3001 3.10024 13.8001 4.00024 14.3001C4.90024 14.8001 6.00024 14.9001 6.00024 14.9001L5.20024 12.7001C5.20024 12.7001 4.30024 11.2001 4.20024 10.5001C4.10024 9.8001 3.80024 7.6001 3.90024 7.3001C4.10024 7.0001 4.80024 4.1001 4.80024 3.8001C4.80024 3.5001 6.00024 1.1001 6.00024 1.1001H4.90024Z" fill="black"/>
<path d="M11.1998 1.1001C11.2998 1.2001 14.0998 2.6001 14.3998 3.6001C14.6998 4.6001 15.3998 6.7001 15.4998 7.4001C15.5998 8.1001 15.3998 10.9001 14.8998 11.6001C14.2998 12.3001 13.0998 13.8001 12.2998 14.3001C11.4998 14.8001 10.2998 14.9001 10.2998 14.9001L11.0998 12.7001C11.0998 12.7001 11.9998 11.2001 12.0998 10.5001C12.1998 9.8001 12.4998 7.6001 12.2998 7.3001C12.1998 7.0001 11.4998 4.1001 11.3998 3.8001C11.2998 3.5001 10.2998 1.1001 10.2998 1.1001H11.1998Z" fill="black"/>
<path d="M0 8C0 3.6 3.6 0 8 0C12.4 0 16 3.6 16 8C16 12.4 12.4 16 8 16C3.6 16 0 12.4 0 8ZM7.5 1.1C6.8 1.3 6.2 1.9 5.6 2.9C5.5 3.2 5.3 3.5 5.2 3.8C5.9 4 6.7 4.1 7.5 4.1V1.1ZM4.2 3.5C4.3 3.1 4.5 2.8 4.7 2.4C4.9 2.1 5.1 1.8 5.3 1.5C4.5 1.9 3.7 2.4 3.1 3C3.4 3.2 3.8 3.4 4.2 3.5ZM3.5 7.5C3.5 6.4 3.7 5.4 3.9 4.5C3.4 4.3 2.9 4.1 2.4 3.8C1.6 4.9 1.1 6.2 1 7.5H3.5ZM4.9 4.8C4.7 5.7 4.5 6.6 4.5 7.5H7.5V5.1C6.6 5.1 5.7 4.9 4.9 4.8ZM8.5 5.1V7.5H11.5C11.5 6.6 11.3 5.7 11.1 4.8C10.3 4.9 9.4 5.1 8.5 5.1ZM4.5 8.5C4.5 9.5 4.7 10.4 4.9 11.2C5.8 11 6.6 10.9 7.5 10.9V8.5H4.5ZM8.5 8.5V10.9C9.4 10.9 10.3 11 11.1 11.2C11.3 10.4 11.5 9.4 11.5 8.5H8.5ZM5.2 12.2C5.3 12.5 5.5 12.8 5.6 13.1C6.2 14.1 6.8 14.7 7.5 15V12C6.7 11.9 5.9 12 5.2 12.2ZM5.3 14.5C5.1 14.2 4.9 13.9 4.7 13.6C4.5 13.3 4.4 12.9 4.2 12.5C3.8 12.6 3.4 12.8 3 13C3.7 13.6 4.5 14.1 5.3 14.5ZM3.9 11.5C3.6 10.5 3.5 9.5 3.5 8.5H1C1.1 9.8 1.6 11.1 2.4 12.2C2.8 11.9 3.4 11.7 3.9 11.5ZM10.7 14.5C11.6 14.1 12.3 13.6 13 13C12.6 12.8 12.2 12.6 11.8 12.5C11.7 12.9 11.5 13.2 11.3 13.6C11.1 13.9 10.9 14.2 10.7 14.5ZM8.5 11.9V14.9C9.2 14.7 9.8 14.1 10.4 13C10.5 12.7 10.7 12.4 10.8 12.1C10 12 9.3 11.9 8.5 11.9ZM12.1 11.5C12.7 11.7 13.2 11.9 13.7 12.2C14.5 11.1 15 9.9 15.1 8.5H12.6C12.5 9.5 12.3 10.5 12.1 11.5ZM15 7.5C14.9 6.2 14.4 4.9 13.6 3.8C13.1 4.1 12.6 4.3 12 4.5C12.2 5.4 12.4 6.4 12.4 7.5H15ZM11.3 2.5C11.5 2.8 11.6 3.2 11.8 3.6C12.2 3.5 12.6 3.3 13 3.1C12.3 2.4 11.6 1.9 10.7 1.6C10.9 1.8 11.1 2.1 11.3 2.5ZM10.8 3.8C10.7 3.5 10.6 3.2 10.4 2.9C9.8 1.9 9.2 1.3 8.5 1V4C9.3 4.1 10.1 4 10.8 3.8Z" fill="#FF9103"/>
</g>
<defs>
<clipPath id="clip0_44_82">
<rect width="16" height="16" fill="white"/>
</clipPath>
</defs>
</svg>
