<svg width="16" height="16" viewBox="0 0 16 16" fill="none" xmlns="http://www.w3.org/2000/svg">
<g clip-path="url(#clip0_44_70)">
<path d="M8 1C6.4 1 5 1.3 3.9 1.8C2.9 2.2 2 3 2 4C2 5 2.9 5.8 3.9 6.2C5 6.7 6.4 7 8 7C9.6 7 11 6.7 12.1 6.2C13.1 5.8 14 5 14 4C14 3 13.1 2.2 12.1 1.8C11 1.3 9.6 1 8 1Z" fill="#FF9103"/>
<path d="M2 7.0001V6.2001C2.5 6.6001 3 7.0001 3.5 7.2001C4.7 7.7001 6.3 8.0001 8 8.0001C9.7 8.0001 11.3 7.7001 12.5 7.1001C13 6.9001 13.5 6.6001 14 6.1001V7.0001C14 7.4001 13.8 7.8001 13.6 8.1001C11.8 7.7001 9.8 8.4001 8.8 10.0001C8.5 10.0001 8.3 10.0001 8 10.0001C6.4 10.0001 5 9.7001 3.9 9.2001C2.9 8.8001 2 8.0001 2 7.0001Z" fill="#FF9103"/>
<path d="M8.3 11H8C6.3 11 4.7 10.7 3.5 10.1C3 9.89995 2.5 9.59995 2 9.19995V9.99995C2 11 2.9 11.8 3.9 12.2C5 12.7 6.4 13 8 13C8 12.3 8 11.6 8.3 11Z" fill="#FF9103"/>
<path d="M8.3 14.0001H8C6.3 14.0001 4.7 13.7001 3.5 13.1001C3 12.9001 2.5 12.6001 2 12.1001V13.0001C2 14.0001 2.9 14.8001 3.9 15.2001C5 15.7001 6.4 16.0001 8 16.0001C8.5 16.0001 9.1 16.0001 9.6 15.9001C9 15.4001 8.5 14.7001 8.3 14.0001Z" fill="#FF9103"/>
<path d="M15.1001 10.3C15.1001 10.4 15.0001 10.4 15.0001 10.5C14.9001 10.6 14.9001 10.7 14.8001 10.8V10.9C14.9001 11.1 14.9001 11.2 15.0001 11.4C15.0001 11.5 15.0001 11.5 15.1001 11.5C15.2001 11.5 15.3001 11.5 15.5001 11.5C15.7001 11.5 15.7001 11.6 15.8001 11.8C15.8001 12 15.8001 12.3 15.8001 12.5C15.8001 12.7 15.7001 12.8 15.5001 12.8C15.4001 12.8 15.3001 12.8 15.2001 12.8C15.1001 12.8 15.1001 12.8 15.1001 12.9C15.0001 13.1 15.0001 13.2 14.9001 13.4V13.5C15.0001 13.6 15.0001 13.7 15.1001 13.8C15.2001 14 15.2001 14.1 15.1001 14.2C15.0001 14.3 14.8001 14.5 14.7001 14.6C14.5001 14.8 14.4001 14.8 14.2001 14.6C14.1001 14.5 14.0001 14.5 13.9001 14.4H13.8001C13.6001 14.5 13.5001 14.5 13.3001 14.6C13.2001 14.6 13.2001 14.6 13.2001 14.7C13.2001 14.8 13.2001 15 13.2001 15.1C13.2001 15.3 13.1001 15.4 12.9001 15.4C12.7001 15.4 12.4001 15.4 12.2001 15.4C12.0001 15.4 11.9001 15.3 11.9001 15.1C11.9001 15 11.9001 14.8 11.8001 14.7C11.8001 14.7 11.8001 14.6 11.7001 14.6C11.5001 14.5 11.4001 14.5 11.2001 14.4H11.1001C11.0001 14.5 10.9001 14.6 10.8001 14.6C10.7001 14.7 10.5001 14.7 10.4001 14.6C10.2001 14.4 10.1001 14.3 9.9001 14.1C9.8001 14 9.8001 13.8 9.9001 13.7C10.0001 13.6 10.0001 13.5 10.1001 13.4V13.3C10.0001 13.1 10.0001 13 9.9001 12.8L9.8001 12.7C9.7001 12.7 9.5001 12.7 9.4001 12.7C9.2001 12.7 9.1001 12.6 9.1001 12.4C9.1001 12.2 9.1001 11.9 9.1001 11.7C9.1001 11.5 9.2001 11.4 9.4001 11.4C9.5001 11.4 9.6001 11.4 9.8001 11.4C9.8001 11.4 9.9001 11.4 9.9001 11.3C10.0001 11.1 10.0001 11 10.1001 10.8V10.7C10.0001 10.6 10.0001 10.5 9.9001 10.4C9.8001 10.2 9.8001 10.1 9.9001 10C10.1001 9.80005 10.2001 9.70005 10.4001 9.50005C10.5001 9.40005 10.7001 9.40005 10.8001 9.50005C10.9001 9.60005 11.0001 9.60005 11.1001 9.70005H11.2001C11.4001 9.60005 11.6001 9.50005 11.8001 9.50005C11.8001 9.50005 11.9001 9.50005 11.9001 9.40005C11.9001 9.30005 11.9001 9.20005 11.9001 9.00005C11.9001 8.80005 12.0001 8.80005 12.2001 8.80005C12.4001 8.80005 12.7001 8.80005 12.9001 8.80005C13.1001 8.80005 13.2001 8.90005 13.2001 9.10005C13.2001 9.20005 13.2001 9.30005 13.2001 9.40005C13.2001 9.40005 13.2001 9.50005 13.3001 9.50005C13.5001 9.60005 13.7001 9.70005 13.9001 9.70005H14.0001C14.1001 9.60005 14.2001 9.60005 14.3001 9.50005C14.4001 9.40005 14.6001 9.40005 14.7001 9.50005C14.9001 9.70005 15.0001 9.80005 15.2001 10C15.0001 10.1 15.1001 10.2 15.1001 10.3ZM13.6001 12.1C13.6001 11.4 13.1001 10.9 12.4001 10.9C11.8001 10.9 11.2001 11.4 11.2001 12.1C11.2001 12.8 11.7001 13.3 12.4001 13.3C13.1001 13.3 13.6001 12.8 13.6001 12.1Z" fill="black"/>
</g>
<defs>
<clipPath id="clip0_44_70">
<rect width="16" height="16" fill="white"/>
</clipPath>
</defs>
</svg>
