<svg width="100" height="16" viewBox="0 0 100 16" fill="none" xmlns="http://www.w3.org/2000/svg">
<g clip-path="url(#clip0_187_78)">
<g clip-path="url(#clip1_187_78)">
<mask id="mask0_187_78" style="mask-type:luminance" maskUnits="userSpaceOnUse" x="0" y="0" width="16" height="16">
<path d="M16 0H0V16H16V0Z" fill="white"/>
</mask>
<g mask="url(#mask0_187_78)">
<path d="M8 1C6.4 1 5 1.3 3.9 1.8C2.9 2.2 2 3 2 4C2 5 2.9 5.8 3.9 6.2C5 6.7 6.4 7 8 7C9.6 7 11 6.7 12.1 6.2C13.1 5.8 14 5 14 4C14 3 13.1 2.2 12.1 1.8C11 1.3 9.6 1 8 1Z" fill="#FF9103"/>
<path d="M2 7.00059V6.20059C2.5 6.60059 3 7.00059 3.5 7.20059C4.7 7.70059 6.3 8.00059 8 8.00059C9.7 8.00059 11.3 7.70059 12.5 7.10059C13 6.90059 13.5 6.60059 14 6.10059V7.00059C14 7.40059 13.8 7.80059 13.6 8.10059C11.8 7.70059 9.8 8.40059 8.8 10.0006C8.5 10.0006 8.3 10.0006 8 10.0006C6.4 10.0006 5 9.70059 3.9 9.20059C2.9 8.80059 2 8.00059 2 7.00059Z" fill="#FF9103"/>
<path d="M8.3 11.0002H8C6.3 11.0002 4.7 10.7002 3.5 10.1002C3 9.9002 2.5 9.6002 2 9.2002V10.0002C2 11.0002 2.9 11.8002 3.9 12.2002C5 12.7002 6.4 13.0002 8 13.0002C8 12.3002 8 11.6002 8.3 11.0002Z" fill="#FF9103"/>
<path d="M8.3 14.0006H8C6.3 14.0006 4.7 13.7006 3.5 13.1006C3 12.9006 2.5 12.6006 2 12.1006V13.0006C2 14.0006 2.9 14.8006 3.9 15.2006C5 15.7006 6.4 16.0006 8 16.0006C8.5 16.0006 9.1 16.0006 9.6 15.9006C9 15.4006 8.5 14.7006 8.3 14.0006Z" fill="#FF9103"/>
<path d="M15.1001 10.2998C15.1001 10.3998 15.0001 10.3998 15.0001 10.4998C14.9001 10.5998 14.9001 10.6998 14.8001 10.7998V10.8998C14.9001 11.0998 14.9001 11.1998 15.0001 11.3998C15.0001 11.4998 15.0001 11.4998 15.1001 11.4998C15.2001 11.4998 15.3001 11.4998 15.5001 11.4998C15.7001 11.4998 15.7001 11.5998 15.8001 11.7998C15.8001 11.9998 15.8001 12.2998 15.8001 12.4998C15.8001 12.6998 15.7001 12.7998 15.5001 12.7998C15.4001 12.7998 15.3001 12.7998 15.2001 12.7998C15.1001 12.7998 15.1001 12.7998 15.1001 12.8998C15.0001 13.0998 15.0001 13.1998 14.9001 13.3998V13.4998C15.0001 13.5998 15.0001 13.6998 15.1001 13.7998C15.2001 13.9998 15.2001 14.0998 15.1001 14.1998C15.0001 14.2998 14.8001 14.4998 14.7001 14.5998C14.5001 14.7998 14.4001 14.7998 14.2001 14.5998C14.1001 14.4998 14.0001 14.4998 13.9001 14.3998H13.8001C13.6001 14.4998 13.5001 14.4998 13.3001 14.5998C13.2001 14.5998 13.2001 14.5998 13.2001 14.6998C13.2001 14.7998 13.2001 14.9998 13.2001 15.0998C13.2001 15.2998 13.1001 15.3998 12.9001 15.3998C12.7001 15.3998 12.4001 15.3998 12.2001 15.3998C12.0001 15.3998 11.9001 15.2998 11.9001 15.0998C11.9001 14.9998 11.9001 14.7998 11.8001 14.6998C11.8001 14.6998 11.8001 14.5998 11.7001 14.5998C11.5001 14.4998 11.4001 14.4998 11.2001 14.3998H11.1001C11.0001 14.4998 10.9001 14.5998 10.8001 14.5998C10.7001 14.6998 10.5001 14.6998 10.4001 14.5998C10.2001 14.3998 10.1001 14.2998 9.9001 14.0998C9.8001 13.9998 9.8001 13.7998 9.9001 13.6998C10.0001 13.5998 10.0001 13.4998 10.1001 13.3998V13.2998C10.0001 13.0998 10.0001 12.9998 9.9001 12.7998L9.8001 12.6998C9.7001 12.6998 9.5001 12.6998 9.4001 12.6998C9.2001 12.6998 9.1001 12.5998 9.1001 12.3998C9.1001 12.1998 9.1001 11.8998 9.1001 11.6998C9.1001 11.4998 9.2001 11.3998 9.4001 11.3998C9.5001 11.3998 9.6001 11.3998 9.8001 11.3998C9.8001 11.3998 9.9001 11.3998 9.9001 11.2998C10.0001 11.0998 10.0001 10.9998 10.1001 10.7998V10.6998C10.0001 10.5998 10.0001 10.4998 9.9001 10.3998C9.8001 10.1998 9.8001 10.0998 9.9001 9.99975C10.1001 9.7998 10.2001 9.6998 10.4001 9.4998C10.5001 9.3998 10.7001 9.3998 10.8001 9.4998C10.9001 9.5998 11.0001 9.59981 11.1001 9.69981H11.2001C11.4001 9.59981 11.6001 9.4998 11.8001 9.4998C11.8001 9.4998 11.9001 9.49981 11.9001 9.39981C11.9001 9.29981 11.9001 9.1998 11.9001 8.9998C11.9001 8.7998 12.0001 8.7998 12.2001 8.7998C12.4001 8.7998 12.7001 8.7998 12.9001 8.7998C13.1001 8.7998 13.2001 8.8998 13.2001 9.0998C13.2001 9.1998 13.2001 9.29981 13.2001 9.39981C13.2001 9.39981 13.2001 9.4998 13.3001 9.4998C13.5001 9.5998 13.7001 9.69981 13.9001 9.69981H14.0001C14.1001 9.59981 14.2001 9.5998 14.3001 9.4998C14.4001 9.3998 14.6001 9.3998 14.7001 9.4998C14.9001 9.6998 15.0001 9.7998 15.2001 9.99975C15.0001 10.0998 15.1001 10.1998 15.1001 10.2998ZM13.6001 12.0998C13.6001 11.3998 13.1001 10.8998 12.4001 10.8998C11.8001 10.8998 11.2001 11.3998 11.2001 12.0998C11.2001 12.7998 11.7001 13.2998 12.4001 13.2998C13.1001 13.2998 13.6001 12.7998 13.6001 12.0998Z" fill="black"/>
</g>
</g>
<g clip-path="url(#clip2_187_78)">
<mask id="mask1_187_78" style="mask-type:luminance" maskUnits="userSpaceOnUse" x="17" y="0" width="16" height="16">
<path d="M33 0H17V16H33V0Z" fill="white"/>
</mask>
<g mask="url(#mask1_187_78)">
<path d="M25.5002 2.99979C23.8002 2.99979 22.2002 4.09979 21.7002 5.69979C21.6002 5.99979 21.3002 6.19979 21.1002 6.09979C20.8002 5.99979 20.7002 5.69979 20.7002 5.49979C21.6002 2.89979 24.4002 1.49979 27.0002 2.29979C28.7002 2.89979 30.0002 4.29979 30.3002 6.09979C32.0002 6.19979 33.2002 7.79979 33.0002 9.39979C32.8002 10.8998 31.5002 11.9998 30.0002 11.9998H21.5002C21.2002 11.9998 21.0002 11.7998 21.0002 11.4998C21.0002 11.1998 21.2002 10.9998 21.5002 10.9998H30.0002C31.1002 10.9998 32.0002 10.0998 32.0002 8.99979C32.0002 7.89979 31.1002 6.99979 30.0002 6.99979C29.7002 6.99979 29.5002 6.79979 29.5002 6.59979C29.2002 4.49979 27.5002 2.99979 25.5002 2.99979Z" fill="#FF9103"/>
<path d="M17 7.5C17 7.2 17.2 7 17.5 7H22.5C22.8 7 23 7.2 23 7.5C23 7.8 22.8 8 22.5 8H17.5C17.2 8 17 7.8 17 7.5Z" fill="black"/>
<path d="M19 9.5C19 9.2 19.2 9 19.5 9H28.5C28.8 9 29 9.2 29 9.5C29 9.8 28.8 10 28.5 10H19.5C19.2 10 19 9.8 19 9.5Z" fill="black"/>
<path d="M17 13.5C17 13.2 17.2 13 17.5 13H26.5C26.8 13 27 13.2 27 13.5C27 13.8 26.8 14 26.5 14H17.5C17.2 14 17 13.8 17 13.5Z" fill="black"/>
</g>
</g>
<g clip-path="url(#clip3_187_78)">
<mask id="mask2_187_78" style="mask-type:luminance" maskUnits="userSpaceOnUse" x="34" y="0" width="16" height="16">
<path d="M50 0H34V16H50V0Z" fill="white"/>
</mask>
<g mask="url(#mask2_187_78)">
<path d="M41.9999 15.5998C44.2643 15.5998 46.0999 12.2868 46.0999 8.19981C46.0999 4.1129 44.2643 0.799805 41.9999 0.799805C39.7355 0.799805 37.8999 4.1129 37.8999 8.19981C37.8999 12.2868 39.7355 15.5998 41.9999 15.5998Z" fill="black"/>
<path d="M38.9002 1.10059C38.8002 1.20059 35.9002 2.60059 35.7002 3.60059C35.5002 4.60059 34.7002 6.70059 34.6002 7.40059C34.5002 8.10059 34.7002 10.9006 35.3002 11.6006C35.9002 12.3006 37.1002 13.8006 38.0002 14.3006C38.9002 14.8006 40.0002 14.9006 40.0002 14.9006L39.2002 12.7006C39.2002 12.7006 38.3002 11.2006 38.2002 10.5006C38.1002 9.80059 37.8002 7.60059 37.9002 7.30059C38.1002 7.00059 38.8002 4.10059 38.8002 3.80059C38.8002 3.50059 40.0002 1.10059 40.0002 1.10059H38.9002Z" fill="black"/>
<path d="M45.1998 1.10059C45.2998 1.20059 48.0998 2.60059 48.3998 3.60059C48.6998 4.60059 49.3998 6.70059 49.4998 7.40059C49.5998 8.10059 49.3998 10.9006 48.8998 11.6006C48.2998 12.3006 47.0998 13.8006 46.2998 14.3006C45.4998 14.8006 44.2998 14.9006 44.2998 14.9006L45.0998 12.7006C45.0998 12.7006 45.9998 11.2006 46.0998 10.5006C46.1998 9.80059 46.4998 7.60059 46.2998 7.30059C46.1998 7.00059 45.4998 4.10059 45.3998 3.80059C45.2998 3.50059 44.2998 1.10059 44.2998 1.10059H45.1998Z" fill="black"/>
<path d="M34 8C34 3.6 37.6 0 42 0C46.4 0 50 3.6 50 8C50 12.4 46.4 16 42 16C37.6 16 34 12.4 34 8ZM41.5 1.1C40.8 1.3 40.2 1.9 39.6 2.9C39.5 3.2 39.3 3.5 39.2 3.8C39.9 4 40.7 4.1 41.5 4.1V1.1ZM38.2 3.5C38.3 3.1 38.5 2.8 38.7 2.4C38.9 2.1 39.1 1.8 39.3 1.5C38.5 1.9 37.7 2.4 37.1 3C37.4 3.2 37.8 3.4 38.2 3.5ZM37.5 7.5C37.5 6.4 37.7 5.4 37.9 4.5C37.4 4.3 36.9 4.1 36.4 3.8C35.6 4.9 35.1 6.2 35 7.5H37.5ZM38.9 4.8C38.7 5.7 38.5 6.6 38.5 7.5H41.5V5.1C40.6 5.1 39.7 4.9 38.9 4.8ZM42.5 5.1V7.5H45.5C45.5 6.6 45.3 5.7 45.1 4.8C44.3 4.9 43.4 5.1 42.5 5.1ZM38.5 8.5C38.5 9.5 38.7 10.4 38.9 11.2C39.8 11 40.6 10.9 41.5 10.9V8.5H38.5ZM42.5 8.5V10.9C43.4 10.9 44.3 11 45.1 11.2C45.3 10.4 45.5 9.4 45.5 8.5H42.5ZM39.2 12.2C39.3 12.5 39.5 12.8 39.6 13.1C40.2 14.1 40.8 14.7 41.5 15V12C40.7 11.9 39.9 12 39.2 12.2ZM39.3 14.5C39.1 14.2 38.9 13.9 38.7 13.6C38.5 13.3 38.4 12.9 38.2 12.5C37.8 12.6 37.4 12.8 37 13C37.7 13.6 38.5 14.1 39.3 14.5ZM37.9 11.5C37.6 10.5 37.5 9.5 37.5 8.5H35C35.1 9.8 35.6 11.1 36.4 12.2C36.8 11.9 37.4 11.7 37.9 11.5ZM44.7 14.5C45.6 14.1 46.3 13.6 47 13C46.6 12.8 46.2 12.6 45.8 12.5C45.7 12.9 45.5 13.2 45.3 13.6C45.1 13.9 44.9 14.2 44.7 14.5ZM42.5 11.9V14.9C43.2 14.7 43.8 14.1 44.4 13C44.5 12.7 44.7 12.4 44.8 12.1C44 12 43.3 11.9 42.5 11.9ZM46.1 11.5C46.7 11.7 47.2 11.9 47.7 12.2C48.5 11.1 49 9.9 49.1 8.5H46.6C46.5 9.5 46.3 10.5 46.1 11.5ZM49 7.5C48.9 6.2 48.4 4.9 47.6 3.8C47.1 4.1 46.6 4.3 46 4.5C46.2 5.4 46.4 6.4 46.4 7.5H49ZM45.3 2.5C45.5 2.8 45.6 3.2 45.8 3.6C46.2 3.5 46.6 3.3 47 3.1C46.3 2.4 45.6 1.9 44.7 1.6C44.9 1.8 45.1 2.1 45.3 2.5ZM44.8 3.8C44.7 3.5 44.6 3.2 44.4 2.9C43.8 1.9 43.2 1.3 42.5 1V4C43.3 4.1 44.1 4 44.8 3.8Z" fill="#FF9103"/>
</g>
</g>
<path d="M55 0.75H61C61.6904 0.75 62.25 1.30964 62.25 2V10.25H53.75V2C53.75 1.30964 54.3096 0.75 55 0.75Z" stroke="#FF9103" stroke-width="1.5"/>
<path d="M53 10.4994C53 9.39941 53.9 9.49944 55 9.49944H61C62.1 9.49944 63 9.39954 63 10.4995V13.9994C63 15.0994 62.1 15.9994 61 15.9994H55C53.9 15.9994 53 15.0994 53 13.9994V10.4994ZM59 12.9994C59 12.3994 58.6 11.9994 58 11.9994C57.4 11.9994 57 12.3994 57 12.9994C57 13.5994 57.4 13.9994 58 13.9994C58.6 13.9994 59 13.5994 59 12.9994Z" fill="#FF9103"/>
<path d="M54.5 8.5C54.5 9.3 54.9435 9.5 55.3888 9.5H60.7219C61.4165 9.5 61.6107 9 61.6107 8.5C61.6107 8 61.6116 3.5 61.6107 2.5C61.6099 1.5 61.4388 1.5 60.7219 1.5H55.3888C54.9435 1.5 54.5 2 54.5 2.5V8.5Z" stroke="black"/>
<path d="M69.5 2.5H80.5C81.0239 2.5 81.5 2.97614 81.5 3.5V11.5H68.5V3.5C68.5 2.97614 68.9761 2.5 69.5 2.5Z" stroke="#FF9103"/>
<path d="M67 12.5H83C83 13.3 82.3 14 81.5 14H68.5C67.7 14 67 13.3 67 12.5Z" fill="black"/>
<path d="M89.5 7C89.2 7 89 7.2 89 7.5C89 7.8 89.2 8 89.5 8H94.5C94.8 8 95 7.8 95 7.5C95 7.2 94.8 7 94.5 7H89.5ZM89 9.5C89 9.2 89.2 9 89.5 9H94.5C94.8 9 95 9.2 95 9.5C95 9.8 94.8 10 94.5 10H89.5C89.2 10 89 9.8 89 9.5ZM89 11.5C89 11.2 89.2 11 89.5 11H91.5C91.8 11 92 11.2 92 11.5C92 11.8 91.8 12 91.5 12H89.5C89.2 12 89 11.8 89 11.5Z" fill="black"/>
<path d="M93.5 0H88C86.9 0 86 0.9 86 2V14C86 15.1 86.9 16 88 16H96C97.1 16 98 15.1 98 14V4.5L93.5 0ZM93.5 1V3C93.5 3.8 94.2 4.5 95 4.5H97V14C97 14.6 96.6 15 96 15H88C87.4 15 87 14.6 87 14V2C87 1.4 87.4 1 88 1H93.5Z" fill="#FF9103"/>
</g>
<defs>
<clipPath id="clip0_187_78">
<rect width="100" height="16" fill="white"/>
</clipPath>
<clipPath id="clip1_187_78">
<rect width="16" height="16" fill="white"/>
</clipPath>
<clipPath id="clip2_187_78">
<rect width="16" height="16" fill="white" transform="translate(17)"/>
</clipPath>
<clipPath id="clip3_187_78">
<rect width="16" height="16" fill="white" transform="translate(34)"/>
</clipPath>
</defs>
</svg>
