<svg width="16" height="16" viewBox="0 0 16 16" fill="none" xmlns="http://www.w3.org/2000/svg">
<path d="M5.5 7C5.2 7 5 7.2 5 7.5C5 7.8 5.2 8 5.5 8H10.5C10.8 8 11 7.8 11 7.5C11 7.2 10.8 7 10.5 7H5.5ZM5 9.5C5 9.2 5.2 9 5.5 9H10.5C10.8 9 11 9.2 11 9.5C11 9.8 10.8 10 10.5 10H5.5C5.2 10 5 9.8 5 9.5ZM5 11.5C5 11.2 5.2 11 5.5 11H7.5C7.8 11 8 11.2 8 11.5C8 11.8 7.8 12 7.5 12H5.5C5.2 12 5 11.8 5 11.5Z" fill="black"/>
<path d="M9.5 0H4C2.9 0 2 0.9 2 2V14C2 15.1 2.9 16 4 16H12C13.1 16 14 15.1 14 14V4.5L9.5 0ZM9.5 1V3C9.5 3.8 10.2 4.5 11 4.5H13V14C13 14.6 12.6 15 12 15H4C3.4 15 3 14.6 3 14V2C3 1.4 3.4 1 4 1H9.5Z" fill="#FF9103"/>
</svg>
