<svg width="1000" height="667" viewBox="0 0 1000 667" fill="none" xmlns="http://www.w3.org/2000/svg">
<rect width="1000" height="667" fill="white"/>
<path d="M934.384 611.863C934.384 612.055 733.407 612.21 485.547 612.21C237.6 612.21 36.667 612.054 36.667 611.863C36.667 611.671 237.602 611.516 485.547 611.516C733.407 611.516 934.384 611.671 934.384 611.863Z" fill="#263238"/>
<path d="M112.976 478.595C129.96 461.203 156.572 453.896 180.05 460.177C159.656 473.858 136.737 481.19 112.184 481.391" fill="#FF9E22"/>
<path d="M135.726 397.992C132.931 378.217 140.612 355.971 155.411 341.597C155.899 361.197 147.63 383.25 135.726 397.992Z" fill="#FF9E22"/>
<path d="M123.892 435.349C134.438 415.181 151.748 398.63 172.364 389.004C166.187 411.772 146.722 430.399 123.711 435.56" fill="#FF9E22"/>
<path d="M121.441 442.556C133.379 442.891 145.46 442.47 157.005 439.414C168.551 436.358 179.608 430.483 187.291 421.334C164.067 421.36 140.897 428.437 121.62 441.393" fill="#FF9E22"/>
<path d="M127.5 418.815C121.44 396.093 111.443 380.374 93.5923 367.641C92.2417 378.697 94.9577 390.204 101.108 399.488C107.26 408.771 116.796 415.755 127.5 418.815Z" fill="#FF9E22"/>
<path d="M82.439 458.001C82.1257 444.797 90.6324 431.821 102.862 426.848C101.87 438.583 92.6564 452.157 82.439 458.001Z" fill="#FF9E22"/>
<path d="M76.7346 438.843C75.3786 419.862 61.8986 402.301 43.9199 396.093C48.0426 415.081 59.0159 430.887 76.7346 438.843Z" fill="#FF9E22"/>
<path d="M85.3295 472.842C81.1188 466.816 74.2495 463.069 67.1415 461.208C60.0335 459.347 52.6055 459.183 45.2588 459.028C55.1695 469.938 70.0495 476.138 84.7708 475.492" fill="#FF9E22"/>
<path d="M93.863 521.274C80.619 517.184 65.859 518.242 53.3337 524.178C40.8084 530.114 30.6404 540.872 25.415 553.715C50.279 548.994 74.8137 537.946 93.863 521.274Z" fill="#FF9E22"/>
<path d="M121.151 504.441C117.02 516.657 117.814 531.422 126.995 541.949C130.731 529.415 128.523 515.244 121.151 504.441Z" fill="#FF9E22"/>
<path d="M137.278 497.657C138.428 513.363 148.465 528.116 162.648 534.946C163.352 535.285 164.168 535.61 164.89 535.314C166.009 534.858 166.112 533.331 165.973 532.13C164.176 516.481 152.586 501.345 137.278 497.657Z" fill="#FF9E22"/>
<path d="M147.814 496.069C154.798 503.62 164.984 508.105 175.266 508.157C185.549 508.209 195.78 503.829 202.841 496.349C185.349 494.435 165.168 493.158 147.814 496.069Z" fill="#FF9E22"/>
<path d="M150.434 356.173C150.444 356.177 150.39 356.35 150.274 356.685C150.143 357.048 149.966 357.539 149.74 358.164C149.246 359.493 148.536 361.397 147.63 363.831C146.688 366.282 145.603 369.305 144.344 372.816C143.711 374.571 143.035 376.447 142.318 378.434C141.627 380.434 140.899 382.547 140.134 384.764C137.035 393.625 133.594 404.262 129.879 416.104C126.232 427.967 122.4 441.064 118.632 454.882C114.914 468.718 111.619 481.964 108.812 494.055C106.087 506.164 103.742 517.096 102.048 526.328C101.614 528.634 101.199 530.829 100.807 532.908C100.454 534.99 100.119 536.956 99.8069 538.796C99.1735 542.471 98.6309 545.637 98.2669 548.235C97.8722 550.803 97.5642 552.81 97.3495 554.212C97.2415 554.869 97.1562 555.383 97.0949 555.763C97.0335 556.113 96.9962 556.29 96.9855 556.289C96.9735 556.287 96.9882 556.106 97.0269 555.754C97.0735 555.371 97.1362 554.853 97.2162 554.193C97.4015 552.787 97.6682 550.774 98.0095 548.197C98.3349 545.59 98.8402 542.416 99.4389 538.735C99.7362 536.891 100.052 534.922 100.388 532.834C100.766 530.752 101.164 528.551 101.583 526.242C103.218 516.99 105.516 506.042 108.211 493.916C110.986 481.809 114.266 468.55 117.986 454.706C121.756 440.879 125.608 427.779 129.29 415.92C133.039 404.081 136.528 393.454 139.686 384.608C140.467 382.395 141.211 380.287 141.916 378.29C142.651 376.308 143.343 374.438 143.992 372.686C145.284 369.186 146.406 366.175 147.386 363.738C148.343 361.322 149.091 359.433 149.614 358.115C149.866 357.499 150.063 357.016 150.208 356.66C150.347 356.334 150.423 356.169 150.434 356.173Z" fill="#263238"/>
<path d="M54.3601 406.23C54.3681 406.222 54.4707 406.318 54.6614 406.514C54.8747 406.738 55.1507 407.029 55.4974 407.394C56.2281 408.172 57.2867 409.338 58.6067 410.875C61.2467 413.947 64.9734 418.505 68.9041 424.612C72.8361 430.701 76.8667 438.458 79.6721 447.661C82.5574 456.836 84.3481 467.266 86.1307 478.166C89.6867 499.986 94.0507 519.529 97.2094 533.665C98.8014 540.698 100.093 546.405 100.997 550.4C101.428 552.345 101.765 553.872 102.005 554.956C102.108 555.45 102.188 555.842 102.252 556.145C102.304 556.413 102.325 556.552 102.313 556.554C102.303 556.557 102.259 556.423 102.185 556.159C102.107 555.861 102.004 555.474 101.875 554.985C101.605 553.908 101.227 552.391 100.744 550.459C99.7907 546.474 98.4281 540.785 96.7481 533.771C93.4707 519.66 89.0307 500.117 85.4694 478.274C83.6867 467.371 81.9187 456.976 79.0814 447.843C76.3241 438.685 72.3681 430.965 68.5027 424.866C64.6401 418.752 60.9787 414.16 58.4054 411.043C57.1174 409.482 56.0907 408.291 55.3934 407.484C55.0667 407.101 54.8081 406.795 54.6067 406.559C54.4361 406.348 54.3507 406.238 54.3601 406.23Z" fill="#263238"/>
<path d="M153.04 495.326C153.041 495.349 152.824 495.389 152.409 495.442C151.918 495.497 151.321 495.562 150.598 495.642C150.196 495.682 149.76 495.725 149.29 495.77C148.809 495.842 148.293 495.92 147.744 496.002C146.634 496.167 145.368 496.329 143.989 496.636C143.294 496.775 142.57 496.919 141.818 497.068C141.07 497.258 140.294 497.454 139.492 497.658C137.873 498.023 136.2 498.617 134.417 499.155C130.901 500.389 127.114 501.975 123.342 504.037C119.582 506.128 116.254 508.537 113.412 510.938C112.032 512.187 110.702 513.356 109.602 514.597C108.425 515.766 107.47 516.978 106.588 518.078C105.658 519.141 105.01 520.247 104.356 521.155C103.692 522.061 103.214 522.899 102.828 523.588C102.458 524.214 102.152 524.73 101.9 525.156C101.681 525.511 101.556 525.693 101.534 525.683C101.513 525.672 101.598 525.471 101.78 525.094C102.002 524.651 102.273 524.112 102.601 523.46C102.954 522.748 103.404 521.883 104.042 520.951C104.673 520.014 105.3 518.881 106.214 517.788C107.081 516.659 108.025 515.416 109.198 514.218C110.294 512.948 111.624 511.749 113.009 510.474C115.861 508.018 119.218 505.565 123.02 503.453C126.833 501.368 130.665 499.783 134.224 498.57C136.028 498.042 137.721 497.466 139.358 497.12C140.169 496.928 140.954 496.743 141.71 496.564C142.472 496.428 143.204 496.297 143.905 496.172C145.298 495.893 146.578 495.762 147.698 495.632C148.253 495.569 148.773 495.509 149.26 495.453C149.733 495.427 150.173 495.404 150.578 495.382C151.306 495.351 151.909 495.327 152.404 495.307C152.82 495.297 153.04 495.303 153.04 495.326Z" fill="#263238"/>
<path d="M158.021 406.649C158.052 406.683 157.601 407.114 156.761 407.862C155.812 408.685 154.605 409.734 153.161 410.987C150.102 413.603 145.846 417.182 141.12 421.102C136.392 425.024 132.088 428.546 128.952 431.069C127.454 432.256 126.201 433.248 125.217 434.029C124.326 434.716 123.82 435.079 123.79 435.043C123.761 435.007 124.213 434.576 125.054 433.826C126.004 433.003 127.212 431.954 128.656 430.702C131.714 428.086 135.968 424.508 140.694 420.589C145.418 416.669 149.72 413.15 152.856 410.628C154.354 409.441 155.608 408.447 156.592 407.666C157.484 406.977 157.992 406.614 158.021 406.649Z" fill="#263238"/>
<path d="M162.322 429.797C162.374 429.975 153.19 432.846 141.811 436.21C130.428 439.574 121.162 442.158 121.11 441.981C121.058 441.803 130.239 438.933 141.622 435.568C153.002 432.204 162.27 429.62 162.322 429.797Z" fill="#263238"/>
<path d="M128.411 420.582C128.371 420.606 128.035 420.134 127.463 419.263C126.816 418.277 126.006 417.042 125.042 415.572C122.988 412.463 120.074 408.224 116.627 403.708C113.175 399.196 109.854 395.264 107.406 392.456C106.248 391.134 105.274 390.023 104.498 389.136C103.812 388.35 103.448 387.899 103.482 387.869C103.515 387.837 103.942 388.226 104.687 388.958C105.435 389.688 106.484 390.774 107.756 392.141C110.3 394.875 113.691 398.773 117.158 403.304C120.618 407.837 123.483 412.138 125.439 415.318C126.418 416.91 127.183 418.212 127.684 419.128C128.191 420.042 128.451 420.558 128.411 420.582Z" fill="#263238"/>
<path d="M96.5165 433.43C96.5965 433.487 95.7338 434.817 94.3618 436.976C92.9898 439.133 91.1285 442.134 89.1991 445.521C87.2725 448.912 85.6458 452.046 84.4938 454.33C83.3405 456.612 82.6391 458.033 82.5485 457.994C82.4698 457.96 83.0178 456.469 84.0671 454.127C85.1138 451.784 86.6831 448.599 88.6191 445.192C90.5564 441.787 92.4911 438.811 93.9698 436.714C95.4458 434.613 96.4471 433.379 96.5165 433.43Z" fill="#263238"/>
<path d="M85.604 473.474C85.556 473.565 83.8053 472.708 80.9373 471.417C78.0706 470.124 74.0666 468.438 69.5413 466.851C65.0133 465.269 60.832 464.088 57.784 463.31C54.7373 462.53 52.8346 462.107 52.8546 462.006C52.8626 461.96 53.3493 462.014 54.2213 462.148C55.0947 462.279 56.3506 462.517 57.8933 462.849C60.98 463.512 65.208 464.627 69.7613 466.218C74.312 467.815 78.3107 469.581 81.1373 470.989C82.552 471.692 83.6813 472.289 84.4453 472.732C85.2133 473.171 85.6253 473.433 85.604 473.474Z" fill="#263238"/>
<path d="M94.1942 521.347C94.1996 521.37 94.0036 521.435 93.6276 521.539C93.1729 521.655 92.6289 521.794 91.9742 521.961C90.4262 522.318 88.3636 522.794 85.8662 523.371C80.7169 524.569 73.5436 526.064 65.9169 528.639C58.2876 531.237 51.7436 534.54 47.3036 537.387C45.0796 538.805 43.3449 540.056 42.1756 540.958C41.0009 541.855 40.3609 542.367 40.3262 542.326C40.3116 542.308 40.4529 542.159 40.7369 541.891C41.0249 541.628 41.4382 541.224 42.0129 540.754C43.1369 539.786 44.8382 538.468 47.0462 536.988C51.4502 534.019 58.0222 530.618 65.6996 528.004C73.3889 525.409 80.5902 523.986 85.7676 522.907C88.2849 522.414 90.3609 522.009 91.9209 521.703C93.3756 521.435 94.1849 521.302 94.1942 521.347Z" fill="#263238"/>
<path d="M125.26 533.148C125.077 533.175 123.984 526.73 122.817 518.754C121.65 510.775 120.853 504.288 121.037 504.263C121.22 504.236 122.313 510.679 123.48 518.658C124.645 526.633 125.442 533.121 125.26 533.148Z" fill="#263238"/>
<path d="M157.602 521.398C157.525 521.455 156.437 520.111 154.688 517.935C152.94 515.758 150.518 512.758 147.78 509.497C145.04 506.237 142.504 503.333 140.661 501.236C138.82 499.138 137.684 497.834 137.753 497.768C137.786 497.736 138.114 498.02 138.68 498.561C139.246 499.102 140.042 499.906 141.009 500.916C142.944 502.935 145.544 505.798 148.292 509.067C151.036 512.336 153.406 515.391 155.062 517.646C155.89 518.773 156.545 519.696 156.98 520.347C157.416 520.998 157.64 521.37 157.602 521.398Z" fill="#263238"/>
<path d="M72.0107 551.409V567.398H76.0067L90.2121 612.258H121.713L135.475 567.842L140.803 567.398V551.409H72.0107Z" fill="#263238"/>
<path d="M138.138 567.842C138.138 568.028 124.228 568.177 107.073 568.177C89.9115 568.177 76.0049 568.028 76.0049 567.842C76.0049 567.658 89.9115 567.508 107.073 567.508C124.229 567.509 138.138 567.658 138.138 567.842Z" fill="#455A64"/>
<path d="M160.796 464.995C160.806 465.04 160.086 465.232 158.778 465.541C157.359 465.883 155.496 466.332 153.248 466.873C148.588 468.028 142.19 469.781 135.247 472.113C128.306 474.453 122.147 476.925 117.736 478.823C115.618 479.75 113.863 480.519 112.526 481.104C111.298 481.65 110.608 481.931 110.588 481.89C110.568 481.849 111.219 481.487 112.414 480.87C113.607 480.247 115.359 479.397 117.546 478.391C121.916 476.378 128.07 473.827 135.034 471.48C141.999 469.14 148.44 467.453 153.139 466.414C155.488 465.893 157.398 465.511 158.724 465.286C160.051 465.055 160.787 464.95 160.796 464.995Z" fill="#263238"/>
<path d="M127.68 592.754C127.68 592.938 117.921 593.088 105.885 593.088C93.8452 593.088 84.0879 592.939 84.0879 592.754C84.0879 592.568 93.8452 592.419 105.885 592.419C117.921 592.419 127.68 592.569 127.68 592.754Z" fill="#FAFAFA"/>
<path d="M128.905 589.045C128.905 589.23 118.563 589.38 105.808 589.38C93.048 589.38 82.708 589.23 82.708 589.045C82.708 588.861 93.048 588.71 105.808 588.71C118.564 588.712 128.905 588.861 128.905 589.045Z" fill="#FAFAFA"/>
<path d="M911.395 611.277V183.291H906.103V611.367L862.321 614.661H906.103H911.395H955.175L911.395 611.277Z" fill="#EBEBEB"/>
<path d="M878.518 146L858.853 233.92H958.646L936.199 146.268L878.518 146Z" fill="#E0E0E0"/>
<path d="M896.804 269.547C896.576 269.547 896.417 258.756 896.446 245.448C896.475 232.136 896.684 221.348 896.912 221.348C897.14 221.348 897.3 232.138 897.271 245.45C897.242 258.758 897.032 269.548 896.804 269.547Z" fill="#E0E0E0"/>
<path d="M896.759 269.386C896.749 269.278 897.473 269.359 897.789 270.281C897.923 270.708 897.951 271.331 897.533 271.886C897.116 272.459 896.243 272.633 895.564 272.365C894.875 272.127 894.324 271.428 894.379 270.72C894.421 270.026 894.848 269.57 895.227 269.332C896.065 268.839 896.668 269.247 896.592 269.323C896.563 269.443 896.064 269.346 895.572 269.803C895.337 270.019 895.123 270.373 895.14 270.729C895.143 271.079 895.421 271.427 895.851 271.589C896.283 271.744 896.721 271.662 896.949 271.397C897.195 271.137 897.26 270.73 897.223 270.413C897.145 269.746 896.703 269.495 896.759 269.386Z" fill="#E0E0E0"/>
<path d="M651.11 218.17C651.11 218.17 596.87 178.1 527.54 200.17C458.21 222.24 430 281.85 390.73 323.78C370.15 345.78 339.39 354.89 314.81 372.19C236.2 427.52 249.86 543.19 311.81 584.19C365.47 619.72 431.81 620.66 517.59 588.72C603.37 556.78 664.86 537.19 717 454.57C769.14 371.95 718 272.87 651.11 218.17Z" fill="#FF9E22"/>
<path opacity="0.8" d="M651.11 218.17C651.11 218.17 596.87 178.1 527.54 200.17C458.21 222.24 430 281.85 390.73 323.78C370.15 345.78 339.39 354.89 314.81 372.19C236.2 427.52 249.86 543.19 311.81 584.19C365.47 619.72 431.81 620.66 517.59 588.72C603.37 556.78 664.86 537.19 717 454.57C769.14 371.95 718 272.87 651.11 218.17Z" fill="white"/>
<g opacity="0.3">
<path d="M326.61 298.44H279.03V239.09H319.51L326.61 245.01V298.44Z" fill="white" stroke="black" stroke-linejoin="round"/>
<path d="M319.511 239.09V245.11H326.611L319.511 239.09Z" fill="white" stroke="black" stroke-linejoin="round"/>
<path d="M305.3 244.08H269.78V257.05H305.3V244.08Z" fill="black"/>
<path d="M284.29 260.76H322.6" stroke="black" stroke-miterlimit="10"/>
<path d="M284.29 267.87H322.6" stroke="black" stroke-miterlimit="10"/>
<path d="M284.29 274.97H322.6" stroke="black" stroke-miterlimit="10"/>
<path d="M284.29 282.08H322.6" stroke="black" stroke-miterlimit="10"/>
<path d="M284.29 289.18H322.6" stroke="black" stroke-miterlimit="10"/>
<path d="M280.62 255.2V246.79H278.9V245.79H283.37V246.79H281.65V255.2H280.62Z" fill="white"/>
<path d="M286.41 251.17L284.84 255.17H283.84L285.73 250.35L284 245.84H285.09L286.53 249.59L288 245.84H289L287.25 250.38L289.12 255.2H288L286.41 251.17Z" fill="white"/>
<path d="M291.251 255.2V246.79H289.521V245.79H294.001V246.79H292.271V255.2H291.251Z" fill="white"/>
</g>
<g opacity="0.3">
<path d="M713.851 429H666.271V369.64H706.741L713.851 375.56V429Z" fill="white" stroke="black" stroke-linejoin="round"/>
<path d="M706.74 369.64V375.66H713.85L706.74 369.64Z" fill="white" stroke="black" stroke-linejoin="round"/>
<path d="M692.531 374.64H657.011V387.61H692.531V374.64Z" fill="black"/>
<path d="M671.53 391.32H709.83" stroke="black" stroke-miterlimit="10"/>
<path d="M671.53 398.42H709.83" stroke="black" stroke-miterlimit="10"/>
<path d="M671.53 405.52H709.83" stroke="black" stroke-miterlimit="10"/>
<path d="M671.53 412.63H709.83" stroke="black" stroke-miterlimit="10"/>
<path d="M671.53 419.73H709.83" stroke="black" stroke-miterlimit="10"/>
<path d="M667.861 385.76V377.35H666.131V376.4H670.611V377.35H668.891V385.76H667.861Z" fill="white"/>
<path d="M673.651 381.72L672.081 385.72H671.081L672.971 380.89L671.201 376.36H672.281L673.731 380.1L675.191 376.36H676.191L674.441 380.89L676.311 385.72H675.201L673.651 381.72Z" fill="white"/>
<path d="M678.481 385.76V377.35H676.761V376.4H681.241V377.35H679.511V385.76H678.481Z" fill="white"/>
</g>
<g opacity="0.3">
<path d="M558.31 530.39H510.73V471.03H551.21L558.31 476.95V530.39Z" fill="white" stroke="black" stroke-linejoin="round"/>
<path d="M551.211 471.03V477.06H558.311L551.211 471.03Z" fill="white" stroke="black" stroke-linejoin="round"/>
<path d="M537 476.03H501.48V489H537V476.03Z" fill="black"/>
<path d="M516 492.71H554.3" stroke="black" stroke-miterlimit="10"/>
<path d="M516 499.81H554.3" stroke="black" stroke-miterlimit="10"/>
<path d="M516 506.91H554.3" stroke="black" stroke-miterlimit="10"/>
<path d="M516 514.02H554.3" stroke="black" stroke-miterlimit="10"/>
<path d="M516 521.12H554.3" stroke="black" stroke-miterlimit="10"/>
<path d="M512.321 487.15V478.74H510.601V477.79H515.081V478.74H513.351V487.15H512.321Z" fill="white"/>
<path d="M518.11 483.11L516.54 487.11H515.54L517.42 482.28L515.66 477.75H516.74L518.18 481.49L519.64 477.75H520.64L518.88 482.28L520.76 487.11H519.66L518.11 483.11Z" fill="white"/>
<path d="M523.001 487.15V478.74H521.271V477.79H525.751V478.74H524.001V487.15H523.001Z" fill="white"/>
</g>
<g opacity="0.3">
<path d="M346.32 442.45H282.24V362.51H336.76L346.32 370.48V442.45Z" fill="white" stroke="black" stroke-linejoin="round"/>
<path d="M336.761 362.51V370.62H346.321L336.761 362.51Z" fill="white" stroke="black" stroke-linejoin="round"/>
<path d="M317.62 369.24H269.78V386.71H317.62V369.24Z" fill="black"/>
<path d="M289.33 391.7H340.92" stroke="black" stroke-miterlimit="10"/>
<path d="M289.33 401.27H340.92" stroke="black" stroke-miterlimit="10"/>
<path d="M289.33 410.83H340.92" stroke="black" stroke-miterlimit="10"/>
<path d="M289.33 420.4H340.92" stroke="black" stroke-miterlimit="10"/>
<path d="M289.33 429.97H340.92" stroke="black" stroke-miterlimit="10"/>
<path d="M285.321 371.61C287.321 371.61 288.151 372.78 288.151 374.69V376.2C288.151 378.2 287.211 379.2 285.211 379.2H284.001V384.2H282.601V371.6L285.321 371.61ZM285.211 378C286.211 378 286.761 377.51 286.761 376.31V374.63C286.761 373.48 286.351 372.9 285.321 372.9H284.001V378H285.211Z" fill="white"/>
<path d="M292.25 371.61C294.25 371.61 295.11 372.79 295.11 374.74V381.09C295.11 383.02 294.21 384.21 292.25 384.21H289.25V371.61H292.25ZM292.25 382.93C293.25 382.93 293.75 382.3 293.75 381.15V374.67C293.75 373.51 293.26 372.88 292.24 372.88H290.7V382.93H292.25Z" fill="white"/>
<path d="M300.731 377.48V378.75H297.831V384.21H296.431V371.61H301.431V372.88H297.831V377.48H300.731Z" fill="white"/>
</g>
<g opacity="0.3">
<path d="M320 551.8H288.42V512.41H315.28L320 516.34V551.8Z" fill="white" stroke="black" stroke-linejoin="round"/>
<path d="M315.28 512.41V516.41H320L315.28 512.41Z" fill="white" stroke="black" stroke-linejoin="round"/>
<path d="M305.85 515.72H282.28V524.33H305.85V515.72Z" fill="black"/>
<path d="M291.92 526.79H317.34" stroke="black" stroke-miterlimit="10"/>
<path d="M291.92 531.51H317.34" stroke="black" stroke-miterlimit="10"/>
<path d="M291.92 536.22H317.34" stroke="black" stroke-miterlimit="10"/>
<path d="M291.92 540.94H317.34" stroke="black" stroke-miterlimit="10"/>
<path d="M291.92 545.65H317.34" stroke="black" stroke-miterlimit="10"/>
<path d="M289.94 516.89C290.94 516.89 291.33 517.47 291.33 518.41V519.15C291.33 520.15 290.87 520.65 289.88 520.65H289.27V523.1H288.58V516.89H289.94ZM289.88 520C290.4 520 290.65 519.76 290.65 519.17V518.34C290.65 517.78 290.44 517.49 289.94 517.49H289.27V520H289.88Z" fill="white"/>
<path d="M293.35 516.89C294.35 516.89 294.76 517.48 294.76 518.44V521.57C294.76 522.52 294.32 523.1 293.35 523.1H291.9V516.89H293.35ZM293.35 522.47C293.85 522.47 294.09 522.16 294.09 521.59V518.4C294.09 517.83 293.85 517.52 293.34 517.52H292.6V522.52L293.35 522.47Z" fill="white"/>
<path d="M297.53 519.78V520.41H296.1V523.1H295.41V516.89H297.88V517.52H296.1V519.78H297.53Z" fill="white"/>
</g>
<g opacity="0.3">
<path d="M721.47 259.39H689.89V219.99H716.75L721.47 223.92V259.39Z" fill="white" stroke="black" stroke-linejoin="round"/>
<path d="M716.75 219.99V223.99H721.47L716.75 219.99Z" fill="white" stroke="black" stroke-linejoin="round"/>
<path d="M707.32 223.31H683.75V231.92H707.32V223.31Z" fill="black"/>
<path d="M693.38 234.38H718.8" stroke="black" stroke-miterlimit="10"/>
<path d="M693.38 239.09H718.8" stroke="black" stroke-miterlimit="10"/>
<path d="M693.38 243.81H718.8" stroke="black" stroke-miterlimit="10"/>
<path d="M693.38 248.52H718.8" stroke="black" stroke-miterlimit="10"/>
<path d="M693.38 253.24H718.8" stroke="black" stroke-miterlimit="10"/>
<path d="M691.41 224.48C692.41 224.48 692.8 225.05 692.8 226V226.74C692.8 227.74 692.34 228.24 691.35 228.24H690.74V230.69H690.05V224.48H691.41ZM691.35 227.62C691.87 227.62 692.12 227.38 692.12 226.78V226C692.12 225.43 691.91 225.15 691.41 225.15H690.74V227.66L691.35 227.62Z" fill="white"/>
<path d="M694.82 224.48C695.82 224.48 696.23 225.06 696.23 226.02V229.15C696.23 230.1 695.79 230.69 694.82 230.69H693.37V224.48H694.82ZM694.82 230.06C695.32 230.06 695.56 229.75 695.56 229.18V226C695.56 225.43 695.32 225.12 694.81 225.12H694.07V230.12L694.82 230.06Z" fill="white"/>
<path d="M699 227.37V228H697.57V230.69H696.88V224.48H699.35V225.11H697.57V227.37H699Z" fill="white"/>
</g>
<path d="M665.48 204.59H331.02V466H665.48V204.59Z" fill="#263238" stroke="#263238" stroke-miterlimit="10"/>
<path d="M677.339 194.36H341.869V456.39H677.339V194.36Z" fill="#FF9E22"/>
<path d="M677.339 194.36H341.869V456.39H677.339V194.36Z" fill="white" stroke="#263238" stroke-linecap="round" stroke-linejoin="round"/>
<path d="M422 231.49H351V276.49H422V231.49Z" fill="white" stroke="#263238" stroke-linecap="round" stroke-linejoin="round"/>
<path d="M370.5 251H400.5" stroke="#263238" stroke-miterlimit="10"/>
<path d="M363 258.5H412.5" stroke="#263238" stroke-miterlimit="10"/>
<path d="M422 284.99H351V329.99H422V284.99Z" fill="white" stroke="#263238" stroke-linecap="round" stroke-linejoin="round"/>
<path d="M358.39 295.67H383.29" stroke="#263238" stroke-miterlimit="10"/>
<path d="M358.39 301.63H383.29" stroke="#263238" stroke-miterlimit="10"/>
<path d="M358.39 307.59H383.29" stroke="#263238" stroke-miterlimit="10"/>
<path d="M358.39 313.55H383.29" stroke="#263238" stroke-miterlimit="10"/>
<path d="M358.39 319.51H383.29" stroke="#263238" stroke-miterlimit="10"/>
<path d="M389.22 295.67H414.12" stroke="#263238" stroke-miterlimit="10"/>
<path d="M389.22 301.63H414.12" stroke="#263238" stroke-miterlimit="10"/>
<path d="M389.22 307.59H414.12" stroke="#263238" stroke-miterlimit="10"/>
<path d="M389.22 313.55H414.12" stroke="#263238" stroke-miterlimit="10"/>
<path d="M389.22 319.51H414.12" stroke="#263238" stroke-miterlimit="10"/>
<path d="M422 338.49H351V383.49H422V338.49Z" fill="white" stroke="#263238" stroke-linecap="round" stroke-linejoin="round"/>
<path d="M358.39 349.17H383.29" stroke="#263238" stroke-miterlimit="10"/>
<path d="M358.39 355.13H383.29" stroke="#263238" stroke-miterlimit="10"/>
<path d="M358.39 361.09H383.29" stroke="#263238" stroke-miterlimit="10"/>
<path d="M358.39 367.05H383.29" stroke="#263238" stroke-miterlimit="10"/>
<path d="M358.39 373.01H383.29" stroke="#263238" stroke-miterlimit="10"/>
<path d="M389.22 349.17H414.12" stroke="#263238" stroke-miterlimit="10"/>
<path d="M389.22 355.13H414.12" stroke="#263238" stroke-miterlimit="10"/>
<path d="M389.22 361.09H414.12" stroke="#263238" stroke-miterlimit="10"/>
<path d="M389.22 367.05H414.12" stroke="#263238" stroke-miterlimit="10"/>
<path d="M389.22 373.01H414.12" stroke="#263238" stroke-miterlimit="10"/>
<path d="M422 391.99H351V436.99H422V391.99Z" fill="white" stroke="#263238" stroke-linecap="round" stroke-linejoin="round"/>
<path d="M358.39 402.67H383.29" stroke="#263238" stroke-miterlimit="10"/>
<path d="M358.39 408.63H383.29" stroke="#263238" stroke-miterlimit="10"/>
<path d="M358.39 414.59H383.29" stroke="#263238" stroke-miterlimit="10"/>
<path d="M358.39 420.55H383.29" stroke="#263238" stroke-miterlimit="10"/>
<path d="M358.39 426.51H383.29" stroke="#263238" stroke-miterlimit="10"/>
<path d="M389.22 402.67H414.12" stroke="#263238" stroke-miterlimit="10"/>
<path d="M389.22 408.63H414.12" stroke="#263238" stroke-miterlimit="10"/>
<path d="M389.22 414.59H414.12" stroke="#263238" stroke-miterlimit="10"/>
<path d="M389.22 420.55H414.12" stroke="#263238" stroke-miterlimit="10"/>
<path d="M389.22 426.51H414.12" stroke="#263238" stroke-miterlimit="10"/>
<path d="M677.33 194.36H432V456.39H677.33V194.36Z" fill="#B8B8B8" stroke="#263238" stroke-linecap="round" stroke-linejoin="round"/>
<path d="M661 244H439V395H661V244Z" fill="white" stroke="#263238" stroke-linecap="round" stroke-linejoin="round"/>
<path d="M490.579 303.94H612.419" stroke="#263238" stroke-miterlimit="10"/>
<path d="M474.02 317.18H628.98" stroke="#263238" stroke-miterlimit="10"/>
<path d="M677.329 194.36H668.659V456.39H677.329V194.36Z" fill="#DBDBDB" stroke="#263238" stroke-miterlimit="10"/>
<path d="M677.329 275.54H668.659V346.34H677.329V275.54Z" fill="#878787"/>
<path d="M677.339 194.36H341.869V211.38H677.339V194.36Z" fill="#FF9E22" stroke="#263238" stroke-linecap="round" stroke-linejoin="round"/>
<path d="M579.61 197.26H363.93V206.86H579.61V197.26Z" fill="white"/>
<path d="M660.99 217.4H644.34" stroke="#263238" stroke-miterlimit="10"/>
<path d="M660.99 222.53H644.34" stroke="#263238" stroke-miterlimit="10"/>
<path d="M660.99 227.65H644.34" stroke="#263238" stroke-miterlimit="10"/>
<path d="M681 563.44L685.05 551.86" stroke="#263238" stroke-linecap="round" stroke-linejoin="round"/>
<path d="M681.29 532.17V575.31" stroke="#263238" stroke-linecap="round" stroke-linejoin="round"/>
<path d="M674.65 554.55C674.65 554.55 668.65 548 662.65 549.09C656.65 550.18 653.91 557.29 653.91 561.66C653.91 566.03 659.91 580.23 659.91 580.23C659.91 580.23 664.28 575.32 674.12 568.23C683.96 561.14 684.49 554 674.65 554.55Z" fill="#FF9E22" stroke="#263238" stroke-linecap="round" stroke-linejoin="round"/>
<path d="M674.65 554.55C669.5 557.467 665.326 561.84 662.65 567.12" stroke="#263238" stroke-linecap="round" stroke-linejoin="round"/>
<path d="M684.45 546.86C684.45 546.86 689.45 541.47 694.36 542.38C699.27 543.29 701.55 549.15 701.54 552.75C701.53 556.35 696.54 568.05 696.54 568.05C692.984 564.364 689.075 561.035 684.87 558.11C676.78 552.24 676.34 546.39 684.45 546.86Z" fill="#FF9E22" stroke="#263238" stroke-linecap="round" stroke-linejoin="round"/>
<path d="M684.45 546.86C688.694 549.268 692.129 552.88 694.32 557.24" stroke="#263238" stroke-linecap="round" stroke-linejoin="round"/>
<path d="M680.42 539.7L687.95 528.69" stroke="#263238" stroke-linecap="round" stroke-linejoin="round"/>
<path d="M679.16 536.51C679.16 536.51 679.04 529.19 674.73 526.58C670.42 523.97 664.87 526.85 662.48 529.58C660.09 532.31 656 544.29 656 544.29C656 544.29 661.38 543.64 671.33 544.64C681.28 545.64 685.52 541.55 679.16 536.51Z" fill="#FF9E22" stroke="#263238" stroke-linecap="round" stroke-linejoin="round"/>
<path d="M679.16 536.51C674.388 535.487 669.42 535.898 664.88 537.69" stroke="#263238" stroke-linecap="round" stroke-linejoin="round"/>
<path d="M685.63 526.69C685.63 526.69 685.72 521.3 688.891 519.38C692.061 517.46 696.161 519.58 697.891 521.56C699.621 523.54 702.641 532.41 702.641 532.41C698.881 532.129 695.103 532.216 691.36 532.67C684.06 533.4 681 530.4 685.63 526.69Z" fill="#FF9E22" stroke="#263238" stroke-linecap="round" stroke-linejoin="round"/>
<path d="M685.63 526.69C689.142 525.937 692.799 526.24 696.14 527.56" stroke="#263238" stroke-linecap="round" stroke-linejoin="round"/>
<path d="M699.69 571.61H660.88L664.81 612.01H695.76L699.69 571.61Z" fill="white" stroke="#263238" stroke-linecap="round" stroke-linejoin="round"/>
<path d="M689.4 589.21C689.4 589.554 689.502 589.89 689.694 590.176C689.885 590.463 690.157 590.686 690.475 590.817C690.792 590.949 691.142 590.983 691.48 590.916C691.817 590.849 692.127 590.683 692.371 590.44C692.614 590.197 692.78 589.887 692.847 589.549C692.914 589.212 692.88 588.862 692.748 588.544C692.616 588.226 692.393 587.954 692.107 587.763C691.821 587.572 691.485 587.47 691.14 587.47C690.912 587.468 690.685 587.513 690.473 587.6C690.261 587.686 690.069 587.815 689.907 587.976C689.745 588.138 689.617 588.331 689.53 588.542C689.443 588.754 689.399 588.981 689.4 589.21Z" fill="#263238" stroke="#263238" stroke-linecap="round" stroke-linejoin="round"/>
<path d="M683 589.21C683 589.554 683.102 589.89 683.293 590.176C683.484 590.463 683.756 590.686 684.074 590.817C684.392 590.949 684.742 590.983 685.079 590.916C685.417 590.849 685.727 590.683 685.97 590.44C686.214 590.197 686.379 589.887 686.447 589.549C686.514 589.212 686.479 588.862 686.348 588.544C686.216 588.226 685.993 587.954 685.707 587.763C685.421 587.572 685.084 587.47 684.74 587.47C684.511 587.468 684.284 587.513 684.073 587.6C683.861 587.686 683.669 587.815 683.507 587.976C683.345 588.138 683.217 588.331 683.13 588.542C683.043 588.754 682.999 588.981 683 589.21Z" fill="#263238" stroke="#263238" stroke-linecap="round" stroke-linejoin="round"/>
<path d="M662.17 584.86H698.4L698.57 583.13H662L662.17 584.86Z" fill="#263238" stroke="#263238" stroke-linecap="round" stroke-linejoin="round"/>
<path d="M696.85 600.79L697.58 593.26H662.99L663.72 600.79H696.85Z" fill="#263238" stroke="#263238" stroke-linecap="round" stroke-linejoin="round"/>
<path d="M695.771 589.21C695.771 589.438 695.816 589.664 695.903 589.874C695.991 590.085 696.119 590.276 696.281 590.437C696.442 590.598 696.634 590.725 696.845 590.811C697.056 590.898 697.283 590.941 697.511 590.94H697.811L698.131 587.62C697.933 587.544 697.723 587.503 697.511 587.5C697.054 587.5 696.616 587.679 696.291 587.999C695.965 588.319 695.778 588.754 695.771 589.21Z" fill="#263238" stroke="#263238" stroke-linecap="round" stroke-linejoin="round"/>
<path d="M676.66 589.21C676.66 589.554 676.762 589.89 676.953 590.176C677.145 590.463 677.416 590.686 677.734 590.817C678.052 590.949 678.402 590.983 678.74 590.916C679.077 590.849 679.387 590.683 679.631 590.44C679.874 590.197 680.04 589.887 680.107 589.549C680.174 589.212 680.139 588.862 680.008 588.544C679.876 588.226 679.653 587.954 679.367 587.763C679.081 587.572 678.744 587.47 678.4 587.47C678.171 587.468 677.944 587.513 677.733 587.6C677.521 587.686 677.329 587.815 677.167 587.976C677.005 588.138 676.877 588.331 676.79 588.542C676.703 588.754 676.659 588.981 676.66 589.21Z" fill="#263238" stroke="#263238" stroke-linecap="round" stroke-linejoin="round"/>
<path d="M663.92 589.21C663.92 589.554 664.022 589.89 664.213 590.176C664.404 590.463 664.676 590.686 664.994 590.817C665.312 590.949 665.662 590.983 665.999 590.916C666.337 590.849 666.647 590.683 666.89 590.44C667.134 590.197 667.299 589.887 667.367 589.549C667.434 589.212 667.399 588.862 667.267 588.544C667.136 588.226 666.913 587.954 666.627 587.763C666.34 587.572 666.004 587.47 665.66 587.47C665.431 587.468 665.204 587.513 664.992 587.6C664.781 587.686 664.588 587.815 664.427 587.976C664.265 588.138 664.137 588.331 664.05 588.542C663.963 588.754 663.919 588.981 663.92 589.21Z" fill="#263238" stroke="#263238" stroke-linecap="round" stroke-linejoin="round"/>
<path d="M670.29 589.21C670.29 589.554 670.392 589.89 670.583 590.176C670.775 590.463 671.046 590.686 671.364 590.817C671.682 590.949 672.032 590.983 672.37 590.916C672.707 590.849 673.017 590.683 673.26 590.44C673.504 590.197 673.669 589.887 673.737 589.549C673.804 589.212 673.769 588.862 673.638 588.544C673.506 588.226 673.283 587.954 672.997 587.763C672.711 587.572 672.374 587.47 672.03 587.47C671.801 587.468 671.574 587.513 671.363 587.6C671.151 587.686 670.959 587.815 670.797 587.976C670.635 588.138 670.507 588.331 670.42 588.542C670.333 588.754 670.289 588.981 670.29 589.21Z" fill="#263238" stroke="#263238" stroke-linecap="round" stroke-linejoin="round"/>
<path d="M416.27 612.11C421.07 606.19 429.64 595.75 432.59 593.01C435.427 590.293 438.099 587.408 440.59 584.37C440.59 584.37 435.52 594.2 444.16 601.95C452.8 609.7 478.44 603.74 484.1 599.57C489.76 595.4 490.36 584.67 485.3 568.87C480.24 553.07 473.07 523.87 473.37 513.73C473.67 503.59 467.11 474.98 464.13 467.23C461.15 459.48 448.93 453.82 436.41 451.14C423.89 448.46 390.21 462.46 390.21 462.46L383.36 465.14C383.36 465.14 355.36 480.64 347.89 486.9C340.42 493.16 344.01 510.45 342.23 527.14C340.45 543.83 340.44 563.21 340.44 563.21C340.44 563.21 323.15 578.41 310.63 595.69C304.63 604.01 301.14 609.08 299.16 612.11H416.27Z" fill="#FF9E22" stroke="#263238" stroke-miterlimit="10"/>
<path d="M477.741 579.82C477.741 579.82 467.741 577.47 457.261 584.5C446.781 591.53 449.641 602.06 459.011 604.4C468.381 606.74 480.671 606.74 487.111 596.79C493.551 586.84 482.431 579.23 477.741 579.82Z" fill="white" stroke="#263238" stroke-miterlimit="10"/>
<path d="M480.23 579.73C474.624 578.84 468.891 580.152 464.23 583.39C456.01 588.87 458.29 597.1 465.6 598.93C472.91 600.76 482.51 600.76 487.54 592.99C492.57 585.22 483.88 579.28 480.23 579.73Z" fill="white" stroke="#263238" stroke-miterlimit="10"/>
<path d="M457.09 513.07C457.42 507.63 457.63 503.92 457.63 503.59" stroke="#263238" stroke-miterlimit="10"/>
<path d="M440.641 584.37C440.641 584.37 451.371 573.94 453.151 562.01C454.261 554.66 455.701 534.63 456.641 520.06" stroke="#263238" stroke-miterlimit="10"/>
<path d="M469.771 533.27C467.071 541.95 462.071 554.98 454.351 563.8" stroke="#263238" stroke-miterlimit="10"/>
<path d="M472.23 524.16C472.23 524.16 471.81 526.16 470.92 529.36" stroke="#263238" stroke-miterlimit="10"/>
<path d="M471.29 558.15C466.02 564.188 459.794 569.319 452.86 573.34" stroke="#263238" stroke-miterlimit="10"/>
<path d="M476.401 551.58C475.308 553.226 474.123 554.809 472.851 556.32" stroke="#263238" stroke-miterlimit="10"/>
<path d="M486.84 576.92C476.895 573.906 466.251 574.113 456.43 577.51C439.74 583.18 441.53 595.99 443.02 598.08" stroke="#263238" stroke-miterlimit="10"/>
<path d="M441.6 369.21C441.6 369.21 441.6 365.7 436.77 358.21C431.94 350.72 407.35 353.82 399.01 362.16C390.67 370.5 402.52 381.04 397.25 387.16C391.98 393.28 374.42 390.23 368.71 401.21C363 412.19 377.49 417.45 380.57 421.4C383.65 425.35 375.3 426.67 376.18 430.62C377.06 434.57 390.66 435.01 390.66 435.01C390.66 435.01 381.88 437.65 386.27 441.16C392.319 445.735 399.771 448.065 407.35 447.75C416.13 447.31 413.93 430.18 413.06 417.45C412.19 404.72 423.59 390.67 436.77 391.98C449.95 393.29 463.99 408.23 461.77 414.82C459.55 421.41 465.28 413.5 477.14 406.03C489 398.56 483.73 383.2 481.14 380.13C478.55 377.06 469.73 376.18 467.97 370.47C466.21 364.76 462.26 359.06 454.8 359.06C447.34 359.06 449.06 368.77 441.6 369.21Z" fill="#263238" stroke="#263238" stroke-miterlimit="10"/>
<path d="M404 448.15C404 448.15 398.34 449.64 396 452.63C393.66 455.62 384 461 383.41 465.14C382.82 469.28 386.41 490.78 393.54 499.42C400.67 508.06 404.27 508.66 404.27 508.66C404.27 508.66 406.36 500.32 407.85 499.72C409.34 499.12 423.05 507.72 423.05 507.72C423.05 507.72 425.43 493.72 426.93 493.72C428.43 493.72 433.18 498.49 433.18 498.49C433.18 498.49 434.97 486.56 433.78 477.32C432.59 468.08 424.84 456.76 419.18 452.88C413.52 449 409 445.47 404 448.15Z" fill="white" stroke="#263238" stroke-miterlimit="10"/>
<path d="M406.91 436.83L395.91 463.17C395.91 463.17 398.74 475.44 402.46 483.33C407.53 494.06 420.06 499.17 420.06 499.17C419.98 492.947 421.331 486.788 424.01 481.17C426.513 476.096 429.45 471.247 432.79 466.68C432.79 466.68 413.06 447.37 406.91 436.83Z" fill="white" stroke="#263238" stroke-miterlimit="10"/>
<path d="M409.75 446.82C409.75 446.82 414.8 475.69 422.02 484.71L428.87 471.71L410.87 443.56L409.75 446.82Z" fill="#263238" stroke="#263238" stroke-miterlimit="10"/>
<path d="M405.46 532.51C405.46 532.51 423.05 486.6 425.46 483.92C427.87 481.24 433.21 476.47 435.6 473.19C437.99 469.91 444.54 461.57 446.93 461.57C449.32 461.57 454.93 463.65 457.66 464.25C460.39 464.85 462.13 465.74 462.42 470.25C462.71 474.76 458.85 475.02 458.85 475.02L457.36 473.23C457.36 473.23 446.63 489.33 443.36 491.41C441.407 492.667 439.304 493.675 437.1 494.41L422.79 547.77L405.46 532.51Z" fill="white" stroke="#263238" stroke-miterlimit="10"/>
<path d="M467.5 399.39C467.5 399.39 471.67 402.87 468.89 414.67C466.11 426.47 465.42 432.38 465.42 439.33C465.42 446.28 463.34 456 457.42 462.25C451.5 468.5 444.23 477.53 435.55 477.18C421.8 476.63 415.06 457.73 410.55 449.05C406.04 440.37 405 428.56 405 423.7C405 418.84 405.69 407.38 411.94 398.7C418.19 390.02 435.21 386.55 442.5 387.59C449.79 388.63 458.82 389.67 467.5 399.39Z" fill="white" stroke="#263238" stroke-miterlimit="10"/>
<path d="M408.121 430.65C408.121 430.65 409.511 425.79 415.761 423.01C422.011 420.23 425.831 415.37 423.761 410.85C421.691 406.33 422.761 401.85 431.761 399.39C440.761 396.93 443.221 405.99 451.901 404.6C460.581 403.21 463.011 399.74 467.521 401.82C472.031 403.9 469.951 409.82 469.951 409.82C469.951 409.82 475.511 399.75 464.751 388.29C453.991 376.83 427.941 372.66 409.881 385.86C391.821 399.06 402.241 429.96 402.241 429.96C402.241 429.96 403.261 431.34 408.121 430.65Z" fill="#263238" stroke="#263238" stroke-miterlimit="10"/>
<path d="M451.53 436.55L450.49 456.69L443.19 453.91" stroke="#263238" stroke-miterlimit="10"/>
<path d="M446 464C446 464 439.06 465 435.93 460.18" stroke="#263238" stroke-miterlimit="10"/>
<path d="M438.31 436.34C437.99 438.34 436.88 439.8 435.84 439.63C434.8 439.46 434.22 437.71 434.54 435.72C434.86 433.73 435.97 432.26 437.01 432.43C438.05 432.6 438.63 434.35 438.31 436.34Z" fill="#263238"/>
<path d="M460.56 436.9C460.24 438.9 459.13 440.36 458.09 440.19C457.05 440.02 456.46 438.27 456.79 436.29C457.12 434.31 458.22 432.82 459.26 432.99C460.3 433.16 460.88 434.91 460.56 436.9Z" fill="#263238"/>
<path d="M429.44 427.27C429.44 427.27 436.91 420.76 442.93 425.82" stroke="#263238" stroke-width="2" stroke-miterlimit="10" stroke-linecap="round"/>
<path d="M455.7 425.82C455.7 425.82 460.76 421.49 465.1 425.58" stroke="#263238" stroke-width="2" stroke-miterlimit="10" stroke-linecap="round"/>
<path d="M447.75 431.61C447.75 431.61 437.15 429.92 420.75 432.61C420.75 432.61 419.31 443.69 427.02 448.51C434.73 453.33 442.2 448.75 444.12 446.1C448 440.82 447.75 431.61 447.75 431.61Z" stroke="#263238" stroke-width="2" stroke-miterlimit="10"/>
<path d="M472.08 430.09C472.08 430.09 464.5 428.48 452.78 431.01C452.78 431.01 451.78 441.61 457.26 446.21C462.74 450.81 468.12 446.44 469.5 443.91C472.22 438.9 472.08 430.09 472.08 430.09Z" stroke="#263238" stroke-width="2" stroke-miterlimit="10"/>
<path d="M447.75 431.61C447.75 431.61 448.89 428.49 452.75 431.01" stroke="#263238" stroke-width="2" stroke-miterlimit="10"/>
<path d="M404.62 426.06L420.76 432.57" stroke="#263238" stroke-width="2" stroke-miterlimit="10"/>
<path d="M409.51 432.38C409.51 432.38 407.08 418.15 400.51 425.09C393.94 432.03 399.82 438.98 402.94 442.09C406.06 445.2 409.94 442.09 409.94 442.09" fill="white"/>
<path d="M409.51 432.38C409.51 432.38 407.08 418.15 400.51 425.09C393.94 432.03 399.82 438.98 402.94 442.09C406.06 445.2 409.94 442.09 409.94 442.09" stroke="#263238" stroke-miterlimit="10"/>
<path d="M383.49 502.54C387.769 510.479 390.664 519.089 392.05 528C394.14 542.31 393.84 545 393.84 545L404.27 532.49C404.27 532.49 421.27 544.41 423.94 548.28C426.61 552.15 426.94 553.35 426.94 553.35C426.94 553.35 426.94 576.6 417.1 590.61C407.26 604.62 402.49 604.61 392.96 604.61C383.43 604.61 371.2 595.66 364.64 580.76C358.08 565.86 352.71 544.13 351.52 542C350.33 539.87 346.45 528 346.45 528" fill="#FF9E22"/>
<path d="M383.49 502.54C387.769 510.479 390.664 519.089 392.05 528C394.14 542.31 393.84 545 393.84 545L404.27 532.49C404.27 532.49 421.27 544.41 423.94 548.28C426.61 552.15 426.94 553.35 426.94 553.35C426.94 553.35 426.94 576.6 417.1 590.61C407.26 604.62 402.49 604.61 392.96 604.61C383.43 604.61 371.2 595.66 364.64 580.76C358.08 565.86 352.71 544.13 351.52 542C350.33 539.87 346.45 528 346.45 528" stroke="#263238" stroke-miterlimit="10"/>
<path d="M379.581 562.49C378.491 563.77 377.581 564.84 376.851 565.59" stroke="#263238" stroke-miterlimit="10"/>
<path d="M393.84 545C393.84 545 388.271 552 383.271 558.05" stroke="#263238" stroke-miterlimit="10"/>
<path d="M395.33 543.53C401.813 545.401 408.025 548.107 413.81 551.58C423.94 557.58 424.81 564.1 427.81 561.72C430.81 559.34 433.17 551.88 430.19 547.72C427.21 543.56 417.97 533.72 411.42 530.72C404.87 527.72 402.18 529.52 400.09 534C398 538.48 393.24 540.85 395.33 543.53Z" fill="white" stroke="#263238" stroke-miterlimit="10"/>
<path d="M395 567.93C395.078 570.769 395.508 573.587 396.28 576.32" stroke="#263238" stroke-miterlimit="10"/>
<path d="M395.33 543.53C395.33 543.53 394.62 553.53 394.77 562.84" stroke="#263238" stroke-miterlimit="10"/>
<path d="M405.46 548.6C405.46 548.6 407.55 560.23 409.94 565.29" stroke="#263238" stroke-miterlimit="10"/>
<path d="M476.11 577.51C476.11 577.51 465.97 595.4 467.46 597.51C468.95 599.62 502.04 597.51 502.04 597.51L503.82 590.36C503.82 590.36 510.68 593.04 516.05 593.04C521.42 593.04 517.24 591.55 515.45 589.76C513.66 587.97 503.23 581.42 502.33 580.82C501.43 580.22 484.15 575.72 476.11 577.51Z" fill="white" stroke="#263238" stroke-miterlimit="10"/>
<path d="M497.701 575.45C497.701 575.45 502.491 574.01 503.771 577.05C505.051 580.09 504.411 593.05 503.931 596.37C503.451 599.69 501.221 599.56 500.261 596.37C499.301 593.18 497.061 575.93 497.061 575.93L497.701 575.45Z" fill="white" stroke="#263238" stroke-miterlimit="10"/>
<path d="M487.641 576.89C487.641 576.89 494.831 571.94 496.911 574.49C498.991 577.04 500.911 597.17 501.541 598.61C502.171 600.05 498.821 601.16 497.541 599.72C496.261 598.28 492.591 590.94 491.481 588.23C490.371 585.52 487.641 576.89 487.641 576.89Z" fill="white" stroke="#263238" stroke-miterlimit="10"/>
<path d="M473.43 582.32C473.43 582.32 477.43 574.97 480.78 572.9C484.13 570.83 487.78 574.65 489.56 577.53C491.34 580.41 492.75 587.91 493.56 591.58C494.37 595.25 496.56 599.4 495.32 599.88C494.08 600.36 489.09 596.21 487.65 593.98C486.21 591.75 482.7 583.12 482.7 583.12" fill="white"/>
<path d="M473.43 582.32C473.43 582.32 477.43 574.97 480.78 572.9C484.13 570.83 487.78 574.65 489.56 577.53C491.34 580.41 492.75 587.91 493.56 591.58C494.37 595.25 496.56 599.4 495.32 599.88C494.08 600.36 489.09 596.21 487.65 593.98C486.21 591.75 482.7 583.12 482.7 583.12" stroke="#263238" stroke-miterlimit="10"/>
<path d="M480 596.21C480 596.21 474.25 590.62 472.33 588.86C470.41 587.1 467.7 586.31 465.79 588.39C463.88 590.47 462.91 593.02 465.79 595.73C468.67 598.44 475.51 602 480 602C484.49 602 483.67 599.76 482.55 598.49C481.793 597.632 480.937 596.867 480 596.21Z" fill="white" stroke="#263238" stroke-miterlimit="10"/>
<path d="M423.09 612.01H632.64V606.02H423.09V612.01Z" fill="#B8B8B8" stroke="#263238" stroke-linecap="round" stroke-linejoin="round"/>
<path d="M423.089 612.01H496.649V606.02H423.089V612.01Z" fill="#263238" stroke="#263238" stroke-linecap="round" stroke-linejoin="round"/>
<path d="M490.72 606H626.78L634.64 515.51C634.748 514.516 634.643 513.51 634.332 512.559C634.021 511.608 633.512 510.734 632.838 509.996C632.163 509.257 631.339 508.67 630.421 508.274C629.502 507.879 628.51 507.683 627.51 507.7H507.06C504.936 507.74 502.901 508.557 501.338 509.996C499.776 511.435 498.794 513.397 498.58 515.51L490.72 606Z" fill="#263238" stroke="#263238" stroke-linecap="round" stroke-linejoin="round"/>
<path d="M493.33 606H629.39L637.25 515.51C637.358 514.516 637.253 513.51 636.942 512.559C636.632 511.608 636.122 510.734 635.448 509.996C634.774 509.257 633.95 508.67 633.031 508.274C632.112 507.879 631.12 507.683 630.12 507.7H509.67C507.546 507.74 505.511 508.557 503.949 509.996C502.386 511.435 501.405 513.397 501.19 515.51L493.33 606Z" fill="#B8B8B8" stroke="#263238" stroke-linecap="round" stroke-linejoin="round"/>
<path d="M562.27 554C562.504 551.69 563.577 549.547 565.285 547.975C566.993 546.403 569.219 545.512 571.54 545.47C572.632 545.451 573.716 545.664 574.72 546.096C575.723 546.529 576.624 547.169 577.36 547.976C578.097 548.783 578.654 549.738 578.993 550.776C579.333 551.815 579.448 552.914 579.33 554C579.095 556.309 578.022 558.453 576.314 560.025C574.606 561.597 572.381 562.488 570.06 562.53C568.967 562.549 567.883 562.336 566.879 561.903C565.876 561.471 564.976 560.83 564.239 560.024C563.502 559.217 562.945 558.262 562.606 557.224C562.266 556.185 562.152 555.086 562.27 554Z" fill="#263238" stroke="#263238" stroke-linecap="round" stroke-linejoin="round"/>
<path d="M736.03 612.01H267.42" stroke="#263238" stroke-miterlimit="10"/>
<path d="M338.997 82.0747L353.248 127.175H342.932L338.383 111.623L338.997 82.0747Z" fill="#EBEBEB"/>
<path d="M367.781 127.133H154.981V139.859H367.781V127.133Z" fill="#E0E0E0"/>
<path d="M194.931 137.072H184.637V156.607H194.931V137.072Z" fill="#E0E0E0"/>
<path d="M327.8 137.072H317.505V156.607H327.8V137.072Z" fill="#E0E0E0"/>
<path d="M162.211 68.1369C162.211 68.1369 152.66 75.4166 161.811 85.0347C161.967 85.1988 162.189 85.2922 162.416 85.2908L245.856 84.8039C245.856 84.8039 252.981 76.8079 247.069 67.594L162.211 68.1369Z" fill="#EBEBEB"/>
<path d="M227.414 75.7355C227.414 75.8289 217.023 75.9036 204.21 75.9036C191.391 75.9036 181.003 75.8275 181.003 75.7355C181.003 75.6421 191.391 75.5674 204.21 75.5674C217.024 75.5661 227.414 75.6421 227.414 75.7355Z" fill="#E0E0E0"/>
<path d="M214.434 78.7543C214.434 78.8476 209.549 78.9223 203.525 78.9223C197.498 78.9223 192.614 78.8463 192.614 78.7543C192.614 78.6609 197.498 78.5862 203.525 78.5862C209.55 78.5862 214.434 78.6622 214.434 78.7543Z" fill="#E0E0E0"/>
<path d="M235.945 84.5359C235.89 84.5212 236.129 83.5767 236.386 82.0306C236.646 80.4859 236.888 78.3288 236.868 75.9396C236.842 73.5491 236.561 71.3973 236.27 69.8579C235.982 68.3171 235.726 67.378 235.781 67.362C235.804 67.3553 235.889 67.5847 236.024 68.0049C236.162 68.4238 236.329 69.0415 236.504 69.8112C236.856 71.3493 237.178 73.521 237.204 75.9369C237.224 78.3515 236.942 80.5285 236.62 82.0746C236.46 82.8484 236.305 83.4673 236.173 83.8889C236.048 84.3118 235.968 84.5425 235.945 84.5359Z" fill="#E0E0E0"/>
<path d="M242.172 67.4887C242.192 67.478 242.324 67.6941 242.544 68.0956C242.657 68.2944 242.788 68.5439 242.914 68.8427C243.045 69.1401 243.209 69.475 243.34 69.8632C243.638 70.6276 243.912 71.5694 244.134 72.6339C244.338 73.7011 244.481 74.891 244.498 76.1463C244.502 77.4029 244.378 78.5955 244.192 79.6654C243.986 80.7326 243.728 81.6784 243.442 82.4481C243.317 82.839 243.158 83.1765 243.033 83.4766C242.91 83.7781 242.784 84.0289 242.674 84.2304C242.461 84.6359 242.333 84.8533 242.313 84.8427C242.254 84.8147 242.72 83.9155 243.217 82.3721C243.47 81.6024 243.701 80.6646 243.886 79.612C244.053 78.5555 244.165 77.3843 244.162 76.149C244.145 74.915 244.016 73.7451 243.83 72.6926C243.628 71.6427 243.382 70.7089 243.117 69.9446C242.594 68.4105 242.114 67.518 242.172 67.4887Z" fill="#E0E0E0"/>
<path d="M175.375 84.648C175.355 84.66 175.218 84.4612 174.986 84.089C174.866 83.9049 174.73 83.6741 174.597 83.3927C174.461 83.1125 174.287 82.8017 174.151 82.4335C173.839 81.7118 173.559 80.8154 173.338 79.8002C173.137 78.781 173.006 77.6391 173.014 76.4372C173.038 75.2353 173.199 74.0974 173.427 73.0835C173.677 72.0737 173.981 71.1852 174.311 70.4729C174.457 70.1087 174.639 69.8019 174.782 69.5257C174.922 69.2483 175.066 69.0215 175.19 68.8401C175.431 68.4745 175.574 68.2798 175.594 68.2931C175.651 68.3278 175.114 69.1349 174.53 70.5676C174.233 71.2799 173.957 72.1604 173.73 73.1542C173.522 74.152 173.374 75.2659 173.35 76.4439C173.342 77.6204 173.461 78.7383 173.641 79.7415C173.842 80.7407 174.093 81.6278 174.371 82.3481C174.918 83.7929 175.433 84.6133 175.375 84.648Z" fill="#E0E0E0"/>
<path d="M166.367 86.6835C166.347 86.6955 166.196 86.4701 165.937 86.0512C165.805 85.8431 165.652 85.583 165.501 85.2668C165.348 84.9533 165.153 84.6025 164.997 84.1903C164.643 83.3819 164.313 82.38 164.043 81.2435C163.792 80.1029 163.611 78.8263 163.572 77.4762C163.549 76.1262 163.675 74.8429 163.875 73.6917C164.096 72.5444 164.38 71.5279 164.699 70.7049C164.837 70.286 165.016 69.9271 165.155 69.607C165.291 69.2841 165.432 69.0187 165.556 68.8052C165.795 68.3744 165.936 68.1422 165.956 68.1543C166.016 68.1849 165.483 69.1361 164.923 70.7849C164.637 71.608 164.381 72.6138 164.18 73.745C164 74.8803 163.887 76.1422 163.908 77.4682C163.945 78.7942 164.115 80.0495 164.344 81.1754C164.595 82.296 164.895 83.2911 165.217 84.0995C165.849 85.7244 166.425 86.6502 166.367 86.6835Z" fill="#E0E0E0"/>
<path d="M242.793 110.227C242.793 110.86 242.793 126.203 242.793 126.203H211.897V110.227H242.793Z" fill="#EBEBEB"/>
<path d="M143.006 118.363C143.012 118.505 143.018 118.645 143.025 118.786C143.276 123.621 147.378 127.359 152.216 127.359H244.233V126.203H222.39C217.981 126.203 214.406 122.627 214.406 118.215C214.406 113.804 217.981 110.227 222.39 110.227H244.234V108.531L152.189 108.841C146.993 108.859 142.817 113.169 143.006 118.363Z" fill="#E0E0E0"/>
<path d="M242.793 118.429C242.793 118.522 236.44 118.597 228.605 118.597C220.768 118.597 214.416 118.521 214.416 118.429C214.416 118.335 220.768 118.261 228.605 118.261C236.441 118.261 242.793 118.335 242.793 118.429Z" fill="#E0E0E0"/>
<path d="M242.347 122.028C242.347 122.121 236.336 122.196 228.921 122.196C221.505 122.196 215.496 122.121 215.496 122.028C215.496 121.935 221.505 121.86 228.921 121.86C236.336 121.86 242.347 121.936 242.347 122.028Z" fill="#E0E0E0"/>
<path d="M242.793 125.32C242.793 125.414 237.389 125.488 230.724 125.488C224.056 125.488 218.653 125.412 218.653 125.32C218.653 125.227 224.057 125.152 230.724 125.152C237.389 125.152 242.793 125.227 242.793 125.32Z" fill="#E0E0E0"/>
<path d="M242.793 115.194C242.793 115.287 236.57 115.362 228.896 115.362C221.218 115.362 214.997 115.286 214.997 115.194C214.997 115.102 221.218 115.026 228.896 115.026C236.57 115.026 242.793 115.102 242.793 115.194Z" fill="#E0E0E0"/>
<path d="M242.346 111.96C242.346 112.053 236.808 112.128 229.977 112.128C223.144 112.128 217.606 112.052 217.606 111.96C217.606 111.868 223.144 111.792 229.977 111.792C236.808 111.791 242.346 111.867 242.346 111.96Z" fill="#E0E0E0"/>
<path d="M154.156 109.11C154.207 109.162 153.258 109.882 152.202 111.436C151.148 112.963 150.072 115.442 150.102 118.306C150.139 121.172 151.274 123.625 152.363 125.126C153.455 126.654 154.422 127.351 154.372 127.404C154.36 127.419 154.115 127.257 153.708 126.913C153.302 126.57 152.751 126.025 152.171 125.266C151.011 123.772 149.803 121.264 149.764 118.309C149.734 115.354 150.88 112.819 152.006 111.299C152.567 110.526 153.104 109.966 153.503 109.615C153.902 109.262 154.144 109.095 154.156 109.11Z" fill="#F5F5F5"/>
<path d="M151.044 108.768C151.095 108.82 150.145 109.54 149.089 111.094C148.035 112.622 146.96 115.1 146.989 117.965C147.027 120.83 148.161 123.283 149.251 124.784C150.343 126.313 151.309 127.009 151.26 127.062C151.248 127.077 151.003 126.916 150.596 126.572C150.189 126.229 149.639 125.683 149.059 124.924C147.899 123.43 146.691 120.922 146.652 117.967C146.621 115.012 147.768 112.478 148.893 110.957C149.455 110.185 149.992 109.626 150.391 109.274C150.789 108.921 151.032 108.753 151.044 108.768Z" fill="#F5F5F5"/>
<path d="M213.567 109.11C213.618 109.162 212.669 109.882 211.613 111.436C210.559 112.963 209.483 115.442 209.513 118.306C209.55 121.172 210.685 123.625 211.774 125.126C212.866 126.654 213.833 127.351 213.783 127.404C213.771 127.419 213.526 127.257 213.119 126.913C212.713 126.57 212.162 126.025 211.582 125.266C210.422 123.772 209.214 121.264 209.175 118.309C209.145 115.354 210.291 112.819 211.417 111.299C211.978 110.526 212.515 109.966 212.915 109.615C213.314 109.262 213.555 109.095 213.567 109.11Z" fill="#F5F5F5"/>
<path d="M210.457 108.768C210.509 108.82 209.558 109.54 208.502 111.094C207.448 112.622 206.373 115.1 206.402 117.965C206.44 120.83 207.574 123.283 208.664 124.784C209.756 126.313 210.722 127.009 210.673 127.062C210.661 127.077 210.416 126.916 210.009 126.572C209.602 126.229 209.052 125.683 208.472 124.924C207.312 123.43 206.104 120.922 206.065 117.967C206.034 115.012 207.181 112.478 208.306 110.957C208.868 110.185 209.405 109.626 209.804 109.274C210.202 108.921 210.445 108.753 210.457 108.768Z" fill="#F5F5F5"/>
<path d="M164.628 120.609C164.598 118.443 164.569 116.278 164.54 114.113C164.532 113.548 164.521 112.966 164.312 112.44C164.101 111.915 163.642 111.449 163.08 111.4C162.266 111.04 160.998 111.719 160.432 112.655C159.864 113.593 159.801 114.743 159.793 115.838C159.781 117.552 159.864 119.265 160.042 120.97C160.128 121.78 160.241 122.612 160.646 123.319C161.052 124.026 161.817 124.585 162.628 124.51C163.432 124.437 164.078 123.759 164.362 123.004C164.645 122.247 164.638 121.417 164.628 120.609Z" fill="#F5F5F5"/>
<path d="M200.365 118.741C200.365 118.834 193.713 118.909 185.509 118.909C177.302 118.909 170.651 118.833 170.651 118.741C170.651 118.649 177.302 118.573 185.509 118.573C193.713 118.573 200.365 118.647 200.365 118.741Z" fill="#F5F5F5"/>
<path d="M158.464 108.47L158.293 93.3281H166.532L166.816 108.47H158.464Z" fill="#F5F5F5"/>
<path d="M166.045 96.0216C166.045 96.115 164.33 96.1897 162.217 96.1897C160.102 96.1897 158.389 96.1136 158.389 96.0216C158.389 95.9296 160.102 95.8535 162.217 95.8535C164.331 95.8535 166.045 95.9282 166.045 96.0216Z" fill="#E0E0E0"/>
<path d="M166.045 98.3588C166.045 98.4521 164.33 98.5268 162.217 98.5268C160.102 98.5268 158.389 98.4508 158.389 98.3588C158.389 98.2667 160.102 98.1907 162.217 98.1907C164.331 98.1907 166.045 98.2654 166.045 98.3588Z" fill="#E0E0E0"/>
<path d="M166.045 100.696C166.045 100.789 164.33 100.864 162.217 100.864C160.102 100.864 158.389 100.788 158.389 100.696C158.389 100.603 160.102 100.528 162.217 100.528C164.331 100.528 166.045 100.603 166.045 100.696Z" fill="#E0E0E0"/>
<path d="M166.045 103.033C166.045 103.126 164.33 103.201 162.217 103.201C160.102 103.201 158.389 103.125 158.389 103.033C158.389 102.94 160.102 102.865 162.217 102.865C164.331 102.865 166.045 102.94 166.045 103.033Z" fill="#E0E0E0"/>
<path d="M166.045 105.37C166.045 105.464 164.33 105.538 162.217 105.538C160.102 105.538 158.389 105.462 158.389 105.37C158.389 105.277 160.102 105.202 162.217 105.202C164.331 105.202 166.045 105.277 166.045 105.37Z" fill="#E0E0E0"/>
<path d="M157.855 92.9268H249.167C250.294 97.9413 250.135 103.46 249.167 109.295H158.246V108.181H163.802C165.251 108.181 166.426 107.006 166.426 105.556V96.4979C166.426 95.0478 165.251 93.8726 163.802 93.8726H157.857L157.855 92.9268Z" fill="#EBEBEB"/>
<path d="M179.444 101.12H180.968C181.025 101.12 181.08 101.133 181.132 101.161C181.241 101.224 181.296 101.32 181.296 101.448C181.296 101.486 181.292 101.519 181.284 101.546C181.253 101.675 181.22 101.804 181.181 101.935C180.968 102.631 180.65 103.208 180.226 103.66C179.806 104.108 179.373 104.332 178.928 104.332C178.868 104.332 178.806 104.328 178.744 104.32C178.329 104.258 177.982 104.007 177.708 103.569C177.404 103.081 177.253 102.469 177.253 101.734C177.253 101.301 177.313 100.867 177.434 100.426C177.628 99.7153 177.93 99.127 178.34 98.6601C178.768 98.1745 179.225 97.9304 179.712 97.9304C179.917 97.9304 180.109 97.9744 180.289 98.0625C180.682 98.2559 180.98 98.6268 181.178 99.175C181.204 99.2244 181.214 99.2751 181.214 99.3271C181.214 99.3845 181.2 99.4392 181.169 99.4912C181.104 99.6006 181.009 99.6539 180.886 99.6539C180.853 99.6539 180.82 99.6486 180.784 99.6379C180.677 99.6019 180.608 99.5339 180.574 99.4325L180.558 99.4032C180.509 99.2698 180.448 99.1497 180.374 99.0416C180.174 98.7508 179.932 98.6068 179.645 98.6068C179.478 98.6068 179.31 98.6681 179.141 98.7908C178.821 99.0203 178.544 99.4192 178.309 99.9874C178.069 100.572 177.948 101.144 177.948 101.707C177.948 102.247 178.036 102.698 178.21 103.058C178.405 103.457 178.669 103.656 179.005 103.656C179.232 103.653 179.477 103.505 179.742 103.212C180.068 102.848 180.328 102.375 180.525 101.796C179.824 101.796 179.458 101.792 179.432 101.784C179.194 101.746 179.072 101.623 179.068 101.416C179.073 101.375 179.084 101.339 179.101 101.305C179.16 101.181 179.273 101.12 179.444 101.12Z" fill="#FAFAFA"/>
<path d="M184.627 98.1453C184.641 98.1746 184.654 98.212 184.669 98.256C184.733 98.4801 185.091 100.368 185.743 103.917C185.754 103.944 185.758 103.972 185.758 103.999C185.758 104.056 185.743 104.112 185.713 104.167C185.647 104.279 185.557 104.335 185.441 104.335C185.425 104.335 185.407 104.334 185.389 104.331C185.258 104.308 185.174 104.234 185.137 104.106L184.774 102.225H182.898L181.995 104.111C181.987 104.132 181.978 104.152 181.966 104.174C181.881 104.28 181.786 104.334 181.683 104.334C181.619 104.334 181.561 104.316 181.505 104.28C181.405 104.212 181.355 104.12 181.355 104.006C181.355 103.974 181.362 103.94 181.377 103.907C181.433 103.775 181.526 103.568 181.657 103.287C182.969 100.418 183.754 98.7269 184.011 98.2106C184.086 98.0612 184.191 97.9839 184.329 97.9812C184.458 97.9839 184.558 98.0386 184.627 98.1453ZM184.218 99.4099L183.203 101.546H184.635L184.218 99.4099Z" fill="#FAFAFA"/>
<path d="M189.72 104.334H186.968C186.905 104.334 186.845 104.316 186.792 104.28C186.713 104.223 186.661 104.108 186.636 103.936V103.932C186.636 103.82 186.889 101.942 187.396 98.2946C187.398 98.2533 187.404 98.2119 187.412 98.1746C187.469 98.0398 187.568 97.9731 187.708 97.9731C187.762 97.9731 187.813 97.9852 187.86 98.0105C187.974 98.0705 188.032 98.1679 188.032 98.3013C188.008 98.5494 187.945 99.0644 187.845 99.8461C187.53 102.253 187.366 103.524 187.352 103.656H189.69C189.753 103.656 189.812 103.668 189.866 103.689C190.006 103.747 190.076 103.849 190.076 103.996C190.076 104.032 190.07 104.068 190.06 104.103C190.013 104.23 189.9 104.306 189.72 104.334Z" fill="#FAFAFA"/>
<path d="M193.484 98.1454C193.497 98.1748 193.51 98.2121 193.525 98.2561C193.589 98.4803 193.948 100.368 194.6 103.918C194.61 103.944 194.614 103.972 194.614 103.999C194.614 104.056 194.6 104.112 194.569 104.167C194.504 104.279 194.413 104.335 194.297 104.335C194.281 104.335 194.264 104.334 194.245 104.331C194.114 104.308 194.03 104.234 193.993 104.106L193.63 102.225H191.754L190.853 104.112C190.845 104.134 190.836 104.154 190.824 104.175C190.738 104.282 190.644 104.335 190.541 104.335C190.477 104.335 190.418 104.318 190.362 104.282C190.262 104.214 190.213 104.122 190.213 104.007C190.213 103.975 190.22 103.942 190.234 103.908C190.29 103.776 190.384 103.569 190.513 103.288C191.825 100.42 192.61 98.7284 192.868 98.2121C192.941 98.0627 193.048 97.9853 193.184 97.9827C193.314 97.984 193.414 98.0387 193.484 98.1454ZM193.074 99.41L192.06 101.546H193.492L193.074 99.41Z" fill="#FAFAFA"/>
<path d="M197.868 101.394C198.083 101.99 198.248 102.45 198.365 102.773C198.649 103.557 198.791 103.971 198.791 104.015C198.791 104.075 198.773 104.13 198.737 104.182C198.672 104.282 198.58 104.332 198.463 104.332C198.34 104.33 198.249 104.256 198.191 104.111C198.169 104.052 198.152 104.006 198.139 103.972C197.99 103.629 197.743 102.982 197.403 102.031L195.845 104.16C195.759 104.272 195.663 104.33 195.555 104.332C195.496 104.332 195.439 104.318 195.385 104.287C195.281 104.224 195.229 104.132 195.229 104.012C195.229 103.986 195.231 103.963 195.234 103.943C195.242 103.893 195.296 103.805 195.398 103.676C195.919 103.001 196.496 102.198 197.127 101.265C197.06 101.083 196.997 100.909 196.937 100.745C196.352 99.1751 196.06 98.3627 196.06 98.3107C196.06 98.2506 196.074 98.1946 196.102 98.1426C196.162 98.0345 196.249 97.9785 196.368 97.9785C196.511 97.9812 196.612 98.0425 196.675 98.1599L197.593 100.639L199.429 98.1373C199.508 98.0359 199.605 97.9839 199.721 97.9812C199.776 97.9812 199.825 97.9932 199.872 98.0185C199.979 98.0772 200.031 98.1759 200.031 98.3107C200.031 98.3574 200.019 98.4081 199.997 98.4614L197.868 101.394Z" fill="#FAFAFA"/>
<path d="M204.679 98.0024C204.731 98.0024 204.781 98.0144 204.831 98.0398C204.94 98.0998 204.999 98.1945 205.007 98.3226C204.556 101.883 204.308 103.807 204.261 104.093C204.157 104.699 203.961 105.201 203.672 105.597C203.232 106.196 202.624 106.495 201.845 106.495C201.593 106.495 201.3 106.417 200.964 106.261C200.495 106.042 200.171 105.758 199.993 105.409C199.968 105.359 199.956 105.306 199.956 105.249C199.956 105.191 199.971 105.137 200.001 105.085C200.067 104.975 200.161 104.921 200.284 104.921C200.383 104.923 200.467 104.969 200.535 105.057C200.941 105.589 201.411 105.857 201.944 105.86C202.367 105.857 202.732 105.672 203.037 105.305C203.384 104.882 203.587 104.306 203.644 103.573C203.537 103.739 203.401 103.883 203.239 104.004C202.941 104.22 202.612 104.327 202.252 104.327C202.192 104.327 202.129 104.323 202.068 104.315C201.648 104.255 201.3 104.004 201.024 103.564C200.719 103.076 200.565 102.463 200.565 101.728C200.565 101.395 200.58 101.051 200.611 100.696C200.663 100.138 200.787 99.3484 200.983 98.3226C200.988 98.2892 200.997 98.2586 201.012 98.2279C201.069 98.0771 201.168 98.0024 201.307 98.0024C201.361 98.0024 201.415 98.0171 201.467 98.0478C201.576 98.1105 201.631 98.1972 201.631 98.3093C201.631 98.4787 201.58 98.8976 201.48 99.5659C201.335 100.549 201.263 101.188 201.263 101.486C201.263 102.096 201.345 102.594 201.508 102.978C201.696 103.426 201.968 103.649 202.323 103.649C202.359 103.649 202.395 103.645 202.433 103.636C202.7 103.581 202.976 103.362 203.257 102.977C203.58 102.535 203.805 102.028 203.937 101.459L204.355 98.3199C204.36 98.2719 204.373 98.2252 204.396 98.1812C204.452 98.0625 204.548 98.0024 204.679 98.0024Z" fill="#FAFAFA"/>
<path d="M245.738 109.507C245.645 109.507 245.57 105.748 245.57 101.111C245.57 96.4724 245.646 92.7131 245.738 92.7131C245.832 92.7131 245.906 96.4724 245.906 101.111C245.906 105.748 245.832 109.507 245.738 109.507Z" fill="#F5F5F5"/>
<path d="M171.018 109.507C170.924 109.507 170.85 105.748 170.85 101.111C170.85 96.4724 170.924 92.7131 171.018 92.7131C171.111 92.7131 171.186 96.4724 171.186 101.111C171.187 105.748 171.111 109.507 171.018 109.507Z" fill="#E0E0E0"/>
<path d="M247.341 109.507C247.248 109.507 247.173 105.748 247.173 101.111C247.173 96.4724 247.249 92.7131 247.341 92.7131C247.434 92.7131 247.509 96.4724 247.509 101.111C247.509 105.748 247.433 109.507 247.341 109.507Z" fill="#F5F5F5"/>
<path d="M169.52 109.507C169.426 109.507 169.352 105.748 169.352 101.111C169.352 96.4724 169.426 92.7131 169.52 92.7131C169.613 92.7131 169.688 96.4724 169.688 101.111C169.688 105.748 169.613 109.507 169.52 109.507Z" fill="#E0E0E0"/>
<path d="M223.598 95.48L223.583 95.4507C226.076 97.4637 229.466 100.198 233.234 103.241L233.319 103.311L233.212 103.339C232.804 103.447 232.368 103.561 231.928 103.677C228.998 104.447 226.222 105.176 223.78 105.817L223.764 105.821L223.748 105.815C220.72 104.53 218.166 103.447 216.363 102.681C215.47 102.298 214.762 101.995 214.272 101.785C214.035 101.68 213.851 101.6 213.72 101.544C213.662 101.518 213.615 101.496 213.579 101.48C213.547 101.466 213.532 101.456 213.532 101.456C213.532 101.456 213.55 101.46 213.582 101.472C213.618 101.487 213.666 101.506 213.726 101.528C213.856 101.582 214.043 101.658 214.283 101.755C214.775 101.958 215.486 102.253 216.384 102.625C218.191 103.381 220.751 104.451 223.784 105.721L223.752 105.718C226.194 105.074 228.967 104.342 231.898 103.568C232.338 103.452 232.774 103.337 233.182 103.231L233.16 103.328C229.399 100.276 226.018 97.5317 223.53 95.5134L223.516 95.5027L223.515 95.4854" fill="#E0E0E0"/>
<path d="M232.362 102.029L232.888 102.523L233.595 102.371L233.286 103.025L233.65 103.649L232.932 103.559L232.451 104.098L232.316 103.387L231.656 103.094L232.29 102.748L232.362 102.029Z" fill="#E0E0E0"/>
<path d="M223.104 105.098L223.464 105.398L223.913 105.272L223.74 105.706L224 106.095L223.533 106.064L223.244 106.431L223.128 105.979L222.689 105.816L223.085 105.566L223.104 105.098Z" fill="#E0E0E0"/>
<path d="M212.879 100.901L213.452 100.937L213.807 100.485L213.95 101.041L214.488 101.239L214.004 101.547L213.983 102.121L213.54 101.755L212.988 101.911L213.199 101.378L212.879 100.901Z" fill="#E0E0E0"/>
<path d="M236.689 95.6027L237.261 95.6387L237.616 95.1865L237.759 95.7428L238.297 95.9402L237.813 96.2484L237.792 96.822L237.349 96.4565L236.797 96.6139L237.008 96.079L236.689 95.6027Z" fill="#E0E0E0"/>
<path d="M223.131 95.2264L223.496 95.2491L223.722 94.9609L223.814 95.3158L224.158 95.4412L223.848 95.6386L223.835 96.0041L223.552 95.7707L223.2 95.8707L223.335 95.5305L223.131 95.2264Z" fill="#E0E0E0"/>
<path d="M237.493 96.0043C237.492 96.0416 234.369 95.9376 230.521 95.7735C226.671 95.6081 223.552 95.4453 223.555 95.408C223.556 95.3706 226.677 95.4747 230.528 95.6388C234.376 95.8042 237.495 95.9669 237.493 96.0043Z" fill="#E0E0E0"/>
<path d="M241 92.7852H148.391C147.177 90.0318 146.88 87.4159 148.391 85.072H240.999C242.215 87.8788 242.112 90.4294 241 92.7852Z" fill="#E0E0E0"/>
<path d="M217.74 87.2759H167.566V90.0826H217.74V87.2759Z" fill="#EBEBEB"/>
<path d="M151.945 92.8266C151.917 92.8506 151.585 92.5318 151.214 91.8941C150.842 91.2605 150.47 90.2853 150.369 89.1567C150.272 88.0282 150.468 87.0023 150.724 86.3126C150.978 85.619 151.249 85.2481 151.281 85.2668C151.33 85.2921 151.138 85.699 150.95 86.3847C150.76 87.069 150.612 88.0482 150.704 89.1261C150.801 90.2039 151.118 91.1417 151.425 91.7834C151.73 92.4264 151.989 92.7919 151.945 92.8266Z" fill="#E0E0E0"/>
<path d="M153.949 92.8266C153.921 92.8506 153.589 92.5318 153.217 91.8941C152.845 91.2605 152.473 90.2853 152.372 89.1567C152.275 88.0282 152.471 87.0023 152.727 86.3126C152.981 85.619 153.252 85.2481 153.284 85.2668C153.333 85.2921 153.141 85.699 152.953 86.3847C152.763 87.069 152.615 88.0482 152.707 89.1261C152.804 90.2039 153.121 91.1417 153.428 91.7834C153.735 92.4264 153.993 92.7919 153.949 92.8266Z" fill="#E0E0E0"/>
<path d="M237.252 92.6467C237.149 92.6106 237.906 91.0045 237.904 88.8754C237.93 86.7464 237.193 85.1322 237.296 85.0975C237.356 85.0428 238.265 86.6583 238.241 88.8781C238.241 91.0965 237.312 92.7013 237.252 92.6467Z" fill="#F5F5F5"/>
<path d="M235.529 92.6279C235.428 92.6038 235.817 90.9764 235.806 88.9353C235.812 86.893 235.418 85.2668 235.518 85.2428C235.596 85.2135 236.148 86.8396 236.142 88.9353C236.154 91.0297 235.606 92.6572 235.529 92.6279Z" fill="#F5F5F5"/>
<path d="M275.443 45H338.997V127.971H275.877L275.443 45Z" fill="#E0E0E0"/>
<path d="M270.829 127.534H334.014V45.4065H270.829V127.534Z" fill="white"/>
<path d="M334.328 45.0935V127.848H270.516V45.0935H334.328ZM333.701 127.221V45.7205H271.142V127.221H333.701Z" fill="#E0E0E0"/>
<path d="M325.794 54.3167H277.419V118.654H325.794V54.3167Z" fill="white"/>
<path d="M277.323 54.3021C277.323 54.3021 277.328 54.4102 277.331 54.6143C277.332 54.825 277.336 55.1265 277.34 55.5187C277.344 56.3218 277.349 57.497 277.357 59.0231C277.367 62.0873 277.38 66.5576 277.396 72.2191C277.413 83.5327 277.439 99.5967 277.469 118.64L277.321 118.493C291.832 118.488 308.301 118.482 325.691 118.477H325.696L325.533 118.64C325.544 94.681 325.555 72.4725 325.563 54.3021L325.696 54.4355C311.077 54.4062 299.001 54.3821 290.571 54.3661C286.353 54.3515 283.049 54.3395 280.789 54.3315C279.667 54.3248 278.804 54.3194 278.213 54.3168C277.632 54.3114 277.323 54.3021 277.323 54.3021C277.323 54.3021 277.612 54.2928 278.187 54.2874C278.772 54.2834 279.625 54.2794 280.737 54.2728C282.989 54.2647 286.284 54.2527 290.488 54.2381C298.94 54.2207 311.044 54.198 325.697 54.1687H325.831V54.3034C325.839 72.4739 325.849 94.6823 325.86 118.641V118.804H325.697H325.692C308.303 118.798 291.833 118.793 277.323 118.788H277.175V118.641C277.205 99.5594 277.231 83.462 277.248 72.1243C277.265 66.4775 277.279 62.0193 277.288 58.9618C277.296 57.4477 277.301 56.2818 277.305 55.4867C277.309 55.0998 277.312 54.805 277.313 54.5982C277.317 54.3981 277.323 54.3021 277.323 54.3021Z" fill="#E0E0E0"/>
<path d="M270.683 127.535C270.645 127.508 270.975 126.98 271.536 126.146C272.097 125.312 272.892 124.173 273.803 122.939C274.715 121.705 275.576 120.614 276.22 119.841C276.865 119.069 277.288 118.613 277.323 118.641C277.359 118.67 276.999 119.177 276.401 119.984C275.735 120.882 274.941 121.952 274.064 123.134C273.185 124.314 272.391 125.383 271.723 126.281C271.115 127.078 270.72 127.56 270.683 127.535Z" fill="#E0E0E0"/>
<path d="M270.829 45.4068C270.902 45.3535 272.414 47.3024 274.208 49.7583C276.001 52.2156 277.395 54.2486 277.322 54.3019C277.25 54.3553 275.737 52.4077 273.944 49.9504C272.152 47.4945 270.757 45.4602 270.829 45.4068Z" fill="#E0E0E0"/>
<path d="M325.697 54.6288C325.63 54.5687 327.437 52.4543 329.734 49.9091C332.032 47.3625 333.948 45.3468 334.014 45.4068C334.081 45.4669 332.274 47.5799 329.977 50.1279C327.68 52.6731 325.764 54.6888 325.697 54.6288Z" fill="#E0E0E0"/>
<path d="M334.015 127.535C333.948 127.595 332.116 125.674 329.923 123.242C327.73 120.81 326.006 118.79 326.072 118.73C326.139 118.67 327.971 120.591 330.164 123.023C332.358 125.453 334.082 127.473 334.015 127.535Z" fill="#E0E0E0"/>
<path d="M279.637 118.638C279.637 118.638 284.843 102.503 287.931 100.791C291.258 98.9443 296.242 97.1568 301.518 97.1114C308.678 97.0487 312.093 97.5783 316.294 100.47C321.143 103.808 324.429 118.477 324.429 118.477" fill="#E0E0E0"/>
<path d="M294.069 70.5969C289.62 70.7957 288.533 76.772 288.836 80.1817C288.98 81.7985 289.472 83.5541 288.656 84.9574C288.079 85.9513 286.94 86.5489 286.46 87.5934C285.877 88.8621 286.44 90.3281 286.861 91.6594C287.283 92.9908 287.465 94.6716 286.403 95.5774C288.928 96.2337 291.476 96.8927 294.083 97.0261C296.689 97.1595 299.392 96.73 301.605 95.348" fill="#E0E0E0"/>
<path d="M290.893 82.5255C287.963 75.7995 291.943 71.6854 294.539 70.206C296.084 69.3243 297.923 69.1348 299.701 69.0881C301.457 69.0414 303.232 69.1148 304.932 69.5524C306.633 69.9899 308.267 70.8117 309.468 72.0936C311.603 74.3681 312.099 77.7431 311.909 80.8567C311.685 84.5239 310.644 88.1443 308.839 91.3433C308.607 91.7541 308.344 92.177 307.932 92.4051C307.519 92.6332 306.915 92.5839 306.672 92.1797" fill="#E0E0E0"/>
<path d="M300.803 105.613C303.825 105.817 306.459 103.227 306.777 98.5695L308.387 74.9044L308.277 76.5399C308.293 75.5527 307.553 74.7176 306.571 74.6162L297.197 73.6518C293.966 73.3196 291.115 75.7475 290.921 78.9904C290.705 82.5936 290.582 87.0011 291.017 89.6878C291.89 95.0905 296.033 95.7655 296.033 95.7655L295.709 99.6874C295.455 102.74 297.75 105.408 300.803 105.613Z" fill="#F5F5F5"/>
<path d="M292.718 82.0398C292.706 82.4054 293.006 82.7175 293.389 82.7375C293.77 82.7562 294.089 82.4761 294.101 82.1105C294.113 81.745 293.813 81.4315 293.431 81.4129C293.049 81.3929 292.729 81.6743 292.718 82.0398Z" fill="#E0E0E0"/>
<path d="M291.882 81.281C291.969 81.3704 292.492 80.9808 293.238 80.9808C293.982 80.9702 294.532 81.3517 294.612 81.261C294.652 81.2209 294.564 81.0569 294.325 80.8848C294.09 80.7127 293.689 80.5459 293.225 80.5486C292.761 80.5526 292.37 80.7247 292.146 80.9008C291.917 81.0769 291.84 81.2396 291.882 81.281Z" fill="#E0E0E0"/>
<path d="M299.88 82.0398C299.868 82.4054 300.168 82.7175 300.55 82.7375C300.931 82.7562 301.25 82.4761 301.262 82.1105C301.274 81.745 300.974 81.4315 300.592 81.4129C300.211 81.3929 299.892 81.6743 299.88 82.0398Z" fill="#E0E0E0"/>
<path d="M299.21 81.3983C299.297 81.489 299.821 81.0981 300.566 81.0981C301.312 81.0875 301.86 81.469 301.94 81.3769C301.98 81.3369 301.892 81.1742 301.653 81.0007C301.418 80.8287 301.017 80.6619 300.553 80.6646C300.089 80.6686 299.698 80.8407 299.474 81.0168C299.245 81.1942 299.168 81.3583 299.21 81.3983Z" fill="#E0E0E0"/>
<path d="M296.521 86.9371C296.525 86.8944 296.061 86.8157 295.309 86.7223C295.118 86.7036 294.938 86.6663 294.906 86.5355C294.861 86.3981 294.939 86.1927 295.031 85.9699C295.209 85.5084 295.395 85.0255 295.59 84.5185C296.366 82.4522 296.927 80.7513 296.843 80.7206C296.759 80.69 296.063 82.3414 295.287 84.4078C295.101 84.9174 294.922 85.403 294.753 85.8685C294.682 86.0847 294.558 86.3314 294.657 86.6169C294.709 86.7597 294.849 86.8624 294.97 86.8944C295.093 86.9317 295.199 86.9331 295.294 86.9384C296.049 86.9771 296.518 86.9798 296.521 86.9371Z" fill="#E0E0E0"/>
<path d="M296.031 95.7654C296.031 95.7654 299.666 95.9895 303.261 93.8137C303.261 93.8137 301.333 97.5583 295.925 97.0673L296.031 95.7654Z" fill="#EBEBEB"/>
<path d="M296.841 88.7338C297.108 88.3777 297.577 88.1816 298.044 88.2309C298.368 88.2643 298.694 88.4204 298.892 88.6832C299.089 88.946 299.132 89.3208 298.953 89.5716C298.753 89.8557 298.333 89.9224 297.976 89.8224C297.62 89.7223 297.313 89.4889 297.021 89.2568C296.941 89.1927 296.858 89.1247 296.808 89.0367C296.757 88.9486 296.746 88.8326 296.808 88.7592" fill="#E0E0E0"/>
<path d="M298.716 87.4466C298.594 87.4399 298.596 88.2497 297.904 88.826C297.214 89.4049 296.352 89.3155 296.345 89.4289C296.334 89.4796 296.537 89.5863 296.901 89.5943C297.258 89.605 297.78 89.4889 298.202 89.1368C298.624 88.7833 298.804 88.3124 298.83 87.9802C298.862 87.6427 298.772 87.4426 298.716 87.4466Z" fill="#E0E0E0"/>
<path d="M298.87 80.0935C298.945 80.2962 299.689 80.1975 300.564 80.3002C301.441 80.3856 302.146 80.6391 302.262 80.4577C302.314 80.371 302.19 80.1802 301.905 79.9841C301.622 79.7893 301.17 79.6039 300.645 79.5465C300.12 79.4905 299.64 79.5759 299.321 79.7066C299 79.8374 298.838 79.9961 298.87 80.0935Z" fill="#E0E0E0"/>
<path d="M292.149 79.1212C292.281 79.2906 292.793 79.1132 293.412 79.1025C294.029 79.0705 294.553 79.2133 294.672 79.0358C294.724 78.9491 294.641 78.7797 294.412 78.621C294.186 78.4622 293.809 78.3328 293.385 78.3462C292.961 78.3608 292.593 78.5156 292.38 78.689C292.162 78.8638 292.092 79.0385 292.149 79.1212Z" fill="#E0E0E0"/>
<path d="M295.137 69.8846C300.369 66.9405 305.989 68.9975 310.223 73.2556C311.156 74.1934 311.999 75.298 313.215 75.8196C314.528 76.3839 316.28 76.2918 317.061 77.4898C317.975 78.8891 316.744 80.8648 317.411 82.3989C318.024 83.8116 319.96 84.2184 320.681 85.5791C321.247 86.6477 320.893 87.943 320.627 89.1222C320.359 90.3015 320.259 91.7169 321.145 92.5399L309.885 96.8181C309.381 97.0102 308.832 97.0955 308.303 96.9902C306.704 96.6713 306.588 95.1906 306.737 93.9647C306.849 93.0495 307.049 92.0757 306.663 91.238C306.207 90.2481 305.043 89.7159 304.632 88.7074C303.907 86.9251 305.921 85.0682 305.679 83.1579C305.527 81.9573 304.495 81.0395 303.387 80.5566C302.277 80.0737 301.057 79.9163 299.905 79.5468C297.249 78.697 295.064 76.2638 293.929 73.5545C293.356 72.1951 293.86 70.6223 295.137 69.8846Z" fill="#E0E0E0"/>
<path d="M810.083 47.8401H710.043V152.175H810.083V47.8401Z" fill="#E0E0E0"/>
<path d="M803.308 47.8401H703.268V152.175H803.308V47.8401Z" fill="#EBEBEB"/>
<path d="M789.86 61.8657H716.716V138.151H789.86V61.8657Z" fill="#FAFAFA"/>
<path d="M716.716 138.658C716.765 138.716 716.062 139.505 714.888 140.731C713.713 141.958 712.068 143.623 710.228 145.437C708.386 147.251 706.7 148.871 705.458 150.025C704.217 151.177 703.422 151.865 703.369 151.811C703.316 151.756 704.014 150.972 705.189 149.744C706.362 148.517 708.013 146.848 709.858 145.03C711.704 143.212 713.394 141.59 714.636 140.436C715.876 139.283 716.666 138.599 716.716 138.658Z" fill="#E0E0E0"/>
<path d="M789.86 138.469C789.919 138.42 790.707 139.123 791.932 140.298C793.159 141.474 794.823 143.12 796.636 144.961C798.449 146.803 800.068 148.49 801.221 149.732C802.375 150.974 803.06 151.769 803.007 151.823C802.953 151.876 802.168 151.177 800.941 150.003C799.715 148.828 798.047 147.178 796.229 145.332C794.412 143.485 792.791 141.794 791.637 140.552C790.485 139.311 789.801 138.519 789.86 138.469Z" fill="#E0E0E0"/>
<path d="M789.66 62.0699C789.61 62.0125 790.313 61.2228 791.488 59.9968C792.662 58.7695 794.308 57.1047 796.148 55.2905C797.989 53.4762 799.676 51.8567 800.917 50.7028C802.158 49.5489 802.953 48.8619 803.006 48.9166C803.06 48.97 802.361 49.7557 801.186 50.983C800.013 52.2103 798.362 53.8778 796.517 55.6973C794.672 57.5156 792.981 59.1391 791.74 60.2916C790.5 61.4429 789.709 62.1272 789.66 62.0699Z" fill="#E0E0E0"/>
<path d="M716.516 62.2566C716.457 62.3059 715.669 61.6029 714.444 60.4277C713.217 59.2524 711.553 57.6063 709.741 55.7653C707.928 53.9231 706.309 52.2356 705.156 50.9936C704.002 49.7517 703.316 48.9566 703.37 48.9032C703.424 48.8499 704.209 49.5489 705.436 50.7241C706.662 51.8994 708.33 53.5496 710.148 55.3958C711.965 57.2407 713.586 58.9336 714.74 60.1755C715.89 61.4162 716.574 62.2072 716.516 62.2566Z" fill="#E0E0E0"/>
<path d="M789.66 138.151C789.66 138.151 789.651 138.023 789.647 137.782C789.644 137.528 789.639 137.177 789.633 136.721C789.627 135.771 789.617 134.395 789.605 132.607C789.591 128.999 789.569 123.745 789.543 117.064C789.513 103.707 789.472 84.6666 789.421 61.8672L789.66 62.1073C768.368 62.118 743.361 62.13 716.724 62.142H716.717L716.992 61.8672C716.977 89.8665 716.964 116.062 716.953 138.151L716.716 137.915C738.584 137.964 756.789 138.007 769.545 138.035C775.924 138.061 780.937 138.081 784.376 138.096C786.081 138.108 787.392 138.117 788.297 138.124C788.732 138.129 789.067 138.133 789.309 138.137C789.537 138.141 789.66 138.151 789.66 138.151C789.66 138.151 789.555 138.16 789.335 138.164C789.097 138.168 788.772 138.172 788.348 138.177C787.453 138.184 786.157 138.192 784.472 138.204C781.045 138.219 776.051 138.239 769.695 138.265C756.903 138.295 738.645 138.336 716.716 138.385H716.48V138.149C716.469 116.06 716.455 89.8652 716.441 61.8659V61.5911H716.716H716.723C743.36 61.6044 768.368 61.6164 789.659 61.6271H789.899V61.8659C789.848 84.7293 789.807 103.822 789.777 117.216C789.751 123.873 789.729 129.11 789.715 132.704C789.703 134.473 789.693 135.834 789.687 136.771C789.681 137.217 789.676 137.56 789.673 137.808C789.669 138.04 789.66 138.151 789.66 138.151Z" fill="#E0E0E0"/>
<path d="M736.02 93.7351C736.02 93.7351 734.453 112.622 754.899 112.622C754.899 102.544 746.587 94.5862 736.02 93.7351Z" fill="#EBEBEB"/>
<path d="M773.429 93.7484C773.429 93.7484 754.552 92.1809 754.552 112.635C764.625 112.636 772.578 104.32 773.429 93.7484Z" fill="#EBEBEB"/>
<path d="M753.992 83.4114C753.992 83.4114 738.569 97.2623 754.836 112.622C762.401 104.603 761.76 92.0277 753.992 83.4114Z" fill="#E0E0E0"/>
<path d="M658.814 83H558.774V187.335H658.814V83Z" fill="#E0E0E0"/>
<path d="M652.04 83H552V187.335H652.04V83Z" fill="#EBEBEB"/>
<path d="M638.592 97.0256H565.448V173.31H638.592V97.0256Z" fill="#FAFAFA"/>
<path d="M638.392 97.2298C638.343 97.1711 639.045 96.3827 640.22 95.1567C641.395 93.9294 643.04 92.2646 644.88 90.4504C646.721 88.6361 648.408 87.0167 649.649 85.8628C650.891 84.7088 651.685 84.0218 651.739 84.0765C651.792 84.1299 651.093 84.9156 649.919 86.1429C648.745 87.3702 647.095 89.039 645.249 90.8572C643.404 92.6755 641.713 94.2976 640.472 95.4515C639.233 96.6041 638.441 97.2871 638.392 97.2298Z" fill="#E0E0E0"/>
<path d="M565.248 97.4165C565.189 97.4658 564.401 96.7628 563.176 95.5876C561.949 94.4137 560.285 92.7662 558.473 90.9252C556.66 89.083 555.041 87.3955 553.888 86.1535C552.735 84.9116 552.048 84.1165 552.103 84.0632C552.156 84.0098 552.941 84.7088 554.168 85.8841C555.395 87.0593 557.063 88.7095 558.88 90.5557C560.697 92.402 562.319 94.0935 563.472 95.3354C564.625 96.5774 565.307 97.3671 565.248 97.4165Z" fill="#E0E0E0"/>
<path d="M638.392 173.31C638.392 173.31 638.383 173.182 638.379 172.942C638.376 172.687 638.371 172.337 638.365 171.88C638.359 170.931 638.349 169.555 638.337 167.766C638.323 164.161 638.301 158.905 638.275 152.224C638.245 138.867 638.203 119.826 638.153 97.027L638.392 97.2671C617.1 97.2778 592.094 97.2898 565.456 97.3018H565.45L565.724 97.027C565.709 125.028 565.696 151.222 565.686 173.312L565.45 173.076C587.318 173.125 605.523 173.168 618.279 173.196C624.657 173.222 629.671 173.242 633.109 173.257C634.815 173.269 636.126 173.278 637.031 173.284C637.466 173.289 637.8 173.294 638.043 173.297C638.269 173.301 638.392 173.31 638.392 173.31C638.392 173.31 638.287 173.32 638.068 173.324C637.831 173.328 637.505 173.332 637.081 173.337C636.187 173.344 634.891 173.352 633.205 173.364C629.779 173.378 624.784 173.398 618.428 173.425C605.636 173.455 587.379 173.496 565.45 173.545H565.214V173.309C565.203 151.219 565.188 125.025 565.175 97.0243V96.7495H565.45H565.456C592.094 96.7629 617.102 96.7749 638.392 96.7855H638.632V97.0243C638.581 119.888 638.54 138.98 638.511 152.375C638.484 159.031 638.463 164.269 638.448 167.862C638.436 169.631 638.427 170.992 638.42 171.93C638.415 172.375 638.409 172.718 638.407 172.966C638.401 173.2 638.392 173.31 638.392 173.31Z" fill="#E0E0E0"/>
<path d="M585.112 131.417C585.112 131.417 583.545 150.304 603.99 150.304C603.99 140.226 595.678 132.268 585.112 131.417Z" fill="#EBEBEB"/>
<path d="M622.521 131.431C622.521 131.431 603.644 129.863 603.644 150.317C613.717 150.319 621.67 142.002 622.521 131.431Z" fill="#EBEBEB"/>
<path d="M603.084 121.094C603.084 121.094 587.661 134.944 603.928 150.304C611.493 142.285 610.852 129.71 603.084 121.094Z" fill="#E0E0E0"/>
</svg>
