<svg width="1200" height="929" viewBox="0 0 1200 929" fill="none" xmlns="http://www.w3.org/2000/svg">
<path d="M59.1 694.6C111.5 623.5 211.7 608.4 282.8 660.8C353.9 713.2 369 813.3 316.6 884.4L59.1 694.6Z" fill="#FFD9A9"/>
<path d="M733.6 645.2C733.6 564.1 799.4 498.3 880.6 498.3C961.7 498.3 1027.5 564.1 1027.5 645.2C1027.5 726.4 961.7 792.2 880.6 792.2C799.4 792.2 733.6 726.4 733.6 645.2Z" fill="#90CEF4"/>
<path d="M752.2 188.8C752.2 107.7 817.9 41.9 899.1 41.9C980.2 41.9 1046 107.7 1046 188.8C1046 270 980.2 335.8 899.1 335.8C817.9 335.8 752.2 270 752.2 188.8Z" fill="#ABABF4"/>
<path d="M406.3 341.3C406.3 350.6 402.6 359.1 396.6 365.3L426.2 394C439.4 380.3 447.6 361.8 447.6 341.3H406.3Z" fill="#90CEF4"/>
<path d="M371.7 375.8V417.1C393.1 417.1 412.4 408.2 426.2 394L396.6 365.3C390.3 371.8 381.5 375.8 371.7 375.8Z" fill="#FFD9A9"/>
<path d="M337.1 341.3C337.1 322.2 352.6 306.7 371.7 306.7V265.4C329.8 265.4 295.9 299.4 295.9 341.3C295.9 383.1 329.8 417.1 371.7 417.1V375.8C352.6 375.8 337.1 360.4 337.1 341.3Z" fill="#ABABF4"/>
<path d="M406.3 341.3H447.6C447.6 299.4 413.6 265.4 371.7 265.4V306.7C390.8 306.7 406.3 322.2 406.3 341.3Z" fill="#FF9E22"/>
<path d="M432.1 341.3C432.1 307.9 405 280.9 371.7 280.9C338.4 280.9 311.4 307.9 311.4 341.3C311.4 374.6 338.4 401.6 371.7 401.6C405 401.6 432.1 374.6 432.1 341.3Z" stroke="#3D436C" stroke-width="2" stroke-miterlimit="10"/>
<path d="M312.1 549.1L178.1 530.8L180.2 515.4L314.2 533.6L312.1 549.1Z" fill="#FAC209"/>
<path d="M193.8 522L192.3 532.8" stroke="#3D436C" stroke-width="2" stroke-miterlimit="10"/>
<path d="M214.9 524.9L213.4 535.6" stroke="#3D436C" stroke-width="2" stroke-miterlimit="10"/>
<path d="M236 527.8L234.6 538.5" stroke="#3D436C" stroke-width="2" stroke-miterlimit="10"/>
<path d="M257.1 530.6L255.7 541.4" stroke="#3D436C" stroke-width="2" stroke-miterlimit="10"/>
<path d="M278.3 533.5L276.8 544.3" stroke="#3D436C" stroke-width="2" stroke-miterlimit="10"/>
<path d="M299.4 536.4L297.9 547.1" stroke="#3D436C" stroke-width="2" stroke-miterlimit="10"/>
<path d="M179.6 520.1L313.6 538.3" stroke="#3D436C" stroke-width="2" stroke-miterlimit="10"/>
<path d="M758.8 141.6C717.9 131.9 719.7 124.2 678.9 114.4C638 104.7 636.2 112.4 595.3 102.7C554.4 93 556.3 85.3 515.4 75.6L481.6 185C522.4 194.7 520.6 202.5 561.5 212.2C602.4 221.9 604.2 214.2 645.1 223.9C685.9 233.6 684.1 241.3 725 251L758.8 141.6Z" fill="#FF9E22"/>
<path d="M591.6 101.8L559.2 211.6" stroke="#FFD9A9" stroke-width="2" stroke-miterlimit="10"/>
<path d="M581.6 99.4L549.2 209.2" stroke="#FFD9A9" stroke-width="2" stroke-miterlimit="10"/>
<path d="M691.6 117.5L659.2 227.2" stroke="#FFD9A9" stroke-width="2" stroke-miterlimit="10"/>
<path d="M654 171.3C658.8 151.1 646.3 130.8 626.1 126C605.9 121.2 585.6 133.6 580.8 153.9C576 174.1 588.5 194.4 608.7 199.2C628.9 204 649.2 191.5 654 171.3Z" stroke="#3D436C" stroke-width="2" stroke-miterlimit="10"/>
<path d="M628.4 154.6L617.9 150.9C614.5 149.7 610.9 151.7 610.1 155.1L610 155.6C609.4 157.9 610.7 160.2 612.9 161L621.9 164.1C624.1 164.9 625.4 167.2 624.8 169.4L624.7 169.9C623.9 173.4 620.3 175.4 616.9 174.2L606.4 170.5" stroke="#3D436C" stroke-width="2" stroke-miterlimit="10"/>
<path d="M621.9 143.8L620 151.6" stroke="#3D436C" stroke-width="2" stroke-miterlimit="10"/>
<path d="M614.9 173.2L613 181" stroke="#3D436C" stroke-width="2" stroke-miterlimit="10"/>
<path d="M643 168.6C646.3 154.5 637.6 140.3 623.5 137C609.3 133.6 595.2 142.4 591.8 156.5C588.4 170.6 597.2 184.8 611.3 188.2C625.4 191.5 639.6 182.8 643 168.6Z" stroke="white" stroke-width="2" stroke-miterlimit="10"/>
<path d="M748.9 147.1C713.9 138.8 705.4 129.8 670.4 121.5C635.4 113.2 633.9 119.8 598.9 111.5C563.9 103.1 557.3 94.6 522.3 86.3L493.4 179.9C528.3 188.2 535 196.8 570 205.1C604.9 213.4 606.5 206.8 641.5 215.1C676.4 223.5 685 232.5 720 240.8L748.9 147.1Z" stroke="#3D436C" stroke-width="2" stroke-miterlimit="10"/>
<path d="M564.5 156L520.6 143.3C518.1 142.6 516.7 140 517.4 137.6L518.5 133.9C519.2 131.4 521.8 130 524.3 130.7L568.1 143.4C570.6 144.1 572 146.7 571.3 149.2L570.2 152.9C569.5 155.3 566.9 156.8 564.5 156Z" stroke="#3D436C" stroke-width="2" stroke-miterlimit="10"/>
<path d="M713.1 191.4L669.2 178.7C666.7 178 665.3 175.4 666 172.9L667.1 169.2C667.8 166.8 670.4 165.3 672.9 166.1L716.7 178.8C719.2 179.5 720.6 182.1 719.9 184.5L718.8 188.2C718.1 190.7 715.5 192.1 713.1 191.4Z" stroke="#3D436C" stroke-width="2" stroke-miterlimit="10"/>
<path d="M410.5 212.8L404.8 201.4L399.1 212.8L387.7 218.5L399.1 224.2L404.8 235.6L410.5 224.2L421.9 218.5L410.5 212.8Z" stroke="#3D436C" stroke-width="2" stroke-miterlimit="10"/>
<path d="M988.2 422.3L982.5 411L976.8 422.3L965.4 428.1L976.8 433.8L982.5 445.2L988.2 433.8L999.6 428.1L988.2 422.3Z" stroke="#3D436C" stroke-width="2" stroke-miterlimit="10"/>
<path d="M203.9 720.5L661.2 787.3L870.9 591.9L870.4 582L203.5 710.6L203.9 720.5Z" fill="black"/>
<path d="M931.19 279.497L869.798 584.363L430.597 546.25L482.912 277.502L931.19 279.497Z" fill="black" stroke="#FFD9A9"/>
<path d="M203.5 710.6L660.8 777.3L870.4 582L430.2 543.8L203.5 710.6Z" fill="#FF9E22"/>
<path d="M790.2 598.3L445.3 561.9" stroke="#3D436C" stroke-width="2" stroke-miterlimit="10"/>
<path d="M774 615.9L429.1 579.6" stroke="#3D436C" stroke-width="2" stroke-miterlimit="10"/>
<path d="M757.8 633.6L412.9 597.2" stroke="#3D436C" stroke-width="2" stroke-miterlimit="10"/>
<path d="M741.5 651.2L396.7 614.8" stroke="#3D436C" stroke-width="2" stroke-miterlimit="10"/>
<path d="M387.6 709.6L531.5 730.6C532.7 730.8 534 730.4 534.9 729.5L597.9 670.8C600.5 668.4 599.1 664.1 595.6 663.7L452.4 645.3C451.2 645.1 450 645.5 449.1 646.3L385.5 702.4C382.8 704.7 384.1 709.1 387.6 709.6Z" fill="#FFD9A9"/>
<path d="M845.9 579L430.2 543.8" stroke="white" stroke-width="2" stroke-miterlimit="10"/>
<path d="M509.7 497.7L779.7 514.7L800 405.3L531 396.8L509.7 497.7Z" stroke="#FFD9A9" stroke-width="2" stroke-miterlimit="10"/>
<path d="M725 402.9L703.5 509.9" stroke="#FFD9A9" stroke-width="2" stroke-miterlimit="10"/>
<path d="M792.4 441.8L523.8 430.8" stroke="#FFD9A9" stroke-width="2" stroke-miterlimit="10"/>
<path d="M785.4 479.8L516.9 463.9" stroke="#FFD9A9" stroke-width="2" stroke-miterlimit="10"/>
<path d="M628.7 384.7C632.4 371.7 646 364.1 659.1 367.8C672.2 371.5 679.7 385.1 676 398.2C672.3 411.3 658.7 418.9 645.6 415.1C632.5 411.4 624.9 397.8 628.7 384.7Z" fill="#FF9E22"/>
<path d="M631.9 385.6C635.1 374.4 646.9 367.8 658.2 371C669.4 374.3 676 386 672.8 397.3C669.5 408.6 657.8 415.1 646.5 411.9C635.2 408.7 628.7 396.9 631.9 385.6Z" stroke="black" stroke-width="2" stroke-miterlimit="10"/>
<path d="M646.8 390.1C645.3 390.1 644.1 388.9 644.1 387.4V385.2C644.1 383.8 645.3 382.5 646.8 382.5C648.3 382.5 649.5 383.8 649.5 385.2V387.4C649.5 388.9 648.3 390.1 646.8 390.1Z" stroke="black" stroke-width="2" stroke-miterlimit="10"/>
<path d="M657.9 399.9C656.4 399.9 655.2 398.7 655.2 397.2V395.1C655.2 393.6 656.4 392.4 657.9 392.4C659.4 392.4 660.6 393.6 660.6 395.1V397.2C660.6 398.7 659.4 399.9 657.9 399.9Z" stroke="black" stroke-width="2" stroke-miterlimit="10"/>
<path d="M644.8 400.8L659.2 380.6" stroke="black" stroke-width="2" stroke-miterlimit="10"/>
<path d="M909 295L857.5 561.6L451.1 528.5L494.7 291.4L909 295Z" stroke="#FF9E22" stroke-width="2" stroke-miterlimit="10"/>
<path d="M858.4 223.8H952.5" stroke="#938FF9" stroke-width="2" stroke-miterlimit="10"/>
<path d="M960.8 223.8C960.8 220.9 958.4 218.5 955.5 218.5C952.6 218.5 950.2 220.9 950.2 223.8C950.2 226.7 952.6 229.1 955.5 229.1C958.4 229.1 960.8 226.7 960.8 223.8Z" fill="#938FF9"/>
<path d="M971.7 223.8H1018.6" stroke="#3D436C" stroke-width="2" stroke-miterlimit="10"/>
<path d="M971.7 234.7H1018.6" stroke="#3D436C" stroke-width="2" stroke-miterlimit="10"/>
<path d="M971.7 245.6H1018.6" stroke="#3D436C" stroke-width="2" stroke-miterlimit="10"/>
<path d="M971.7 256.5H1018.6" stroke="#3D436C" stroke-width="2" stroke-miterlimit="10"/>
<path d="M404.8 442.3H310.7" stroke="#FF9E22" stroke-width="2" stroke-miterlimit="10"/>
<path d="M302.4 442.3C302.4 439.4 304.7 437 307.7 437C310.6 437 312.9 439.4 312.9 442.3C312.9 445.2 310.6 447.6 307.7 447.6C304.7 447.6 302.4 445.2 302.4 442.3Z" fill="black"/>
<path d="M291.5 442.3H244.5" stroke="#3D436C" stroke-width="2" stroke-miterlimit="10"/>
<path d="M291.5 453.2H244.5" stroke="#3D436C" stroke-width="2" stroke-miterlimit="10"/>
<path d="M291.5 464.1H244.5" stroke="#3D436C" stroke-width="2" stroke-miterlimit="10"/>
<path d="M291.5 475H244.5" stroke="#3D436C" stroke-width="2" stroke-miterlimit="10"/>
<path d="M1019.2 706.8L895.9 655C891.4 653.1 889.3 647.9 891.2 643.3L950.8 501.4C952.7 496.9 957.9 494.7 962.5 496.6L1085.7 548.4C1090.2 550.3 1092.4 555.6 1090.5 560.1L1030.8 702C1028.9 706.5 1023.7 708.7 1019.2 706.8Z" fill="#46AEF7"/>
<path d="M1069.4 541.6L1075.4 544.1C1080.2 546.1 1082.6 551.2 1080.8 555.5L1020.8 698.3C1019 702.6 1013.7 704.5 1008.9 702.5L1002.9 699.9" stroke="#3D436C" stroke-width="2" stroke-miterlimit="10"/>
<path d="M1046.8 581.4L948 539.9C946.5 539.3 945.8 537.6 946.5 536.1L956.1 513C956.8 511.5 958.5 510.8 960 511.4L1058.8 552.9C1060.3 553.6 1061 555.3 1060.3 556.8L1050.7 579.9C1050 581.4 1048.3 582.1 1046.8 581.4Z" fill="white"/>
<path d="M949.8 573L936.5 567.4C935 566.8 934.3 565.1 934.9 563.6L939.7 552.2C940.3 550.7 942 550 943.5 550.6L956.8 556.2C958.3 556.8 959 558.5 958.4 560L953.6 571.4C953 572.9 951.3 573.6 949.8 573Z" fill="white"/>
<path d="M978.3 585L965 579.4C963.5 578.8 962.8 577 963.4 575.5L968.2 564.2C968.8 562.7 970.5 561.9 972 562.6L985.3 568.2C986.8 568.8 987.5 570.5 986.9 572L982.1 583.4C981.5 584.9 979.8 585.6 978.3 585Z" fill="white"/>
<path d="M1006.8 596.9L993.5 591.4C992 590.7 991.3 589 991.9 587.5L996.7 576.1C997.3 574.6 999 573.9 1000.5 574.6L1013.8 580.1C1015.3 580.8 1016 582.5 1015.4 584L1010.6 595.4C1010 596.9 1008.3 597.6 1006.8 596.9Z" fill="white"/>
<path d="M1035.2 608.9L1022 603.3C1020.5 602.7 1019.8 601 1020.4 599.5L1025.2 588.1C1025.8 586.6 1027.5 585.9 1029 586.5L1042.3 592.1C1043.8 592.7 1044.5 594.5 1043.9 596L1039.1 607.3C1038.5 608.8 1036.7 609.6 1035.2 608.9Z" fill="#F9B65D"/>
<path d="M939.2 598.2L925.9 592.6C924.4 591.9 923.7 590.2 924.3 588.7L929.1 577.3C929.8 575.8 931.5 575.1 933 575.8L946.3 581.3C947.8 582 948.5 583.7 947.8 585.2L943.1 596.6C942.4 598.1 940.7 598.8 939.2 598.2Z" fill="white"/>
<path d="M967.7 610.1L954.4 604.5C952.9 603.9 952.2 602.2 952.8 600.7L957.6 589.3C958.2 587.8 960 587.1 961.5 587.7L974.8 593.3C976.3 593.9 977 595.7 976.3 597.2L971.6 608.5C970.9 610 969.2 610.8 967.7 610.1Z" fill="white"/>
<path d="M996.2 622.1L982.9 616.5C981.4 615.9 980.7 614.2 981.3 612.7L986.1 601.3C986.7 599.8 988.5 599.1 990 599.7L1003.3 605.3C1004.8 605.9 1005.5 607.6 1004.8 609.1L1000 620.5C999.4 622 997.7 622.7 996.2 622.1Z" fill="white"/>
<path d="M1024.7 634.1L1011.4 628.5C1009.9 627.9 1009.2 626.1 1009.8 624.6L1014.6 613.3C1015.2 611.8 1017 611 1018.5 611.7L1031.7 617.3C1033.2 617.9 1034 619.6 1033.3 621.1L1028.5 632.5C1027.9 634 1026.2 634.7 1024.7 634.1Z" fill="#DF7E9F"/>
<path d="M928.6 623.3L915.4 617.7C913.8 617.1 913.1 615.4 913.8 613.9L918.6 602.5C919.2 601 920.9 600.3 922.4 600.9L935.7 606.5C937.2 607.1 937.9 608.8 937.3 610.3L932.5 621.7C931.9 623.2 930.1 623.9 928.6 623.3Z" fill="white"/>
<path d="M957.1 635.3L943.8 629.7C942.3 629.1 941.6 627.3 942.3 625.8L947 614.5C947.7 613 949.4 612.2 950.9 612.9L964.2 618.5C965.7 619.1 966.4 620.8 965.8 622.3L961 633.7C960.4 635.2 958.6 635.9 957.1 635.3Z" fill="white"/>
<path d="M985.6 647.2L972.3 641.7C970.8 641 970.1 639.3 970.8 637.8L975.5 626.4C976.2 624.9 977.9 624.2 979.4 624.9L992.7 630.4C994.2 631.1 994.9 632.8 994.3 634.3L989.5 645.7C988.8 647.2 987.1 647.9 985.6 647.2Z" fill="white"/>
<path d="M1003.5 684.4L990.3 678.8C988.8 678.2 988.1 676.4 988.7 674.9L1004 638.4C1004.7 636.9 1006.4 636.2 1007.9 636.8L1021.2 642.4C1022.7 643 1023.4 644.8 1022.8 646.3L1007.4 682.8C1006.8 684.3 1005.1 685 1003.5 684.4Z" fill="#F9B65D"/>
<path d="M918.1 648.4L904.8 642.9C903.3 642.2 902.6 640.5 903.2 639L908 627.6C908.6 626.1 910.3 625.4 911.8 626.1L925.1 631.6C926.6 632.3 927.3 634 926.7 635.5L921.9 646.9C921.3 648.4 919.6 649.1 918.1 648.4Z" fill="#7162EF"/>
<path d="M946.6 660.4L933.3 654.8C931.8 654.2 931.1 652.5 931.7 651L936.5 639.6C937.1 638.1 938.8 637.4 940.3 638L953.6 643.6C955.1 644.2 955.8 646 955.2 647.5L950.4 658.8C949.8 660.3 948.1 661.1 946.6 660.4Z" fill="white"/>
<path d="M975.1 672.4L961.8 666.8C960.3 666.2 959.6 664.5 960.2 663L965 651.6C965.6 650.1 967.3 649.4 968.8 650L982.1 655.6C983.6 656.2 984.3 657.9 983.7 659.4L978.9 670.8C978.3 672.3 976.6 673 975.1 672.4Z" fill="#7162EF"/>
<path d="M402.4 711.8C387.7 680.7 350.6 667.3 319.4 682C288.3 696.7 275 733.9 289.7 765C304.4 796.1 341.5 809.4 372.6 794.7C403.8 780 417.1 742.9 402.4 711.8Z" fill="#FAC209"/>
<path d="M394.7 715.4C382 688.6 349.9 677.1 323.1 689.8C296.2 702.4 284.7 734.5 297.4 761.3C310.1 788.2 342.1 799.7 369 787C395.9 774.3 407.3 742.3 394.7 715.4Z" stroke="#3D436C" stroke-width="2" stroke-miterlimit="10"/>
<path d="M351.1 719.7L336.1 724.9C331.4 726.6 329.1 732 331.2 736.6L331.6 737.2C333 740.2 336.5 741.7 339.6 740.6L352.4 736.1C355.6 735 359.1 736.4 360.5 739.4L360.8 740.1C362.9 744.6 360.7 750.1 355.9 751.8L340.9 757" stroke="#3D436C" stroke-width="2" stroke-miterlimit="10"/>
<path d="M334.3 713.5L339.2 723.8" stroke="#3D436C" stroke-width="2" stroke-miterlimit="10"/>
<path d="M352.7 752.5L357.6 762.9" stroke="#3D436C" stroke-width="2" stroke-miterlimit="10"/>
<path d="M380 722.3C371.2 703.6 348.8 695.5 330 704.4C311.2 713.3 303.2 735.7 312.1 754.4C320.9 773.2 343.3 781.2 362.1 772.4C380.9 763.5 388.9 741.1 380 722.3Z" stroke="white" stroke-width="2" stroke-miterlimit="10"/>
<path d="M949.7 662.2L829.5 724.2L822.4 710.3L942.6 648.3L949.7 662.2Z" fill="#FAC209"/>
<path d="M837.3 708L842.2 717.6" stroke="#3D436C" stroke-width="2" stroke-miterlimit="10"/>
<path d="M856.2 698.2L861.2 707.8" stroke="#3D436C" stroke-width="2" stroke-miterlimit="10"/>
<path d="M875.2 688.4L880.1 698.1" stroke="#3D436C" stroke-width="2" stroke-miterlimit="10"/>
<path d="M894.1 678.7L899.1 688.3" stroke="#3D436C" stroke-width="2" stroke-miterlimit="10"/>
<path d="M913.1 668.9L918 678.5" stroke="#3D436C" stroke-width="2" stroke-miterlimit="10"/>
<path d="M932 659.1L937 668.7" stroke="#3D436C" stroke-width="2" stroke-miterlimit="10"/>
<path d="M824.6 714.5L944.8 652.5" stroke="#3D436C" stroke-width="2" stroke-miterlimit="10"/>
<path d="M802.9 228.3L697.2 226.1C690.1 225.9 683.7 231.6 682.9 238.7L681.8 249.1L673.3 326.6L672.9 330.9C672.2 337 665.1 342.4 659.3 345.7C657.5 346.8 658.2 349.7 660.4 349.7L670.8 349.9L776.6 352.1C783.7 352.3 790.1 346.6 790.9 339.5L792 329.1L800.4 251.5L800.9 247.3C802 236.8 811.4 228.5 821.9 228.7L802.9 228.3Z" fill="white"/>
<path d="M821.9 228.7C811.4 228.5 802 236.8 800.9 247.3L799.3 262.2L822.5 262.6C830.7 262.8 838 256.3 838.9 248.1C840.1 237.6 832.5 228.9 821.9 228.7Z" fill="#938FF9"/>
<path d="M851.8 128.4L746.2 126.3C739.1 126.1 732.7 131.8 731.9 138.9L722.4 226.7L822.6 228.7C832.8 229.3 840 237.8 838.9 248.1L849.8 147.4C850.9 136.9 860.3 128.6 870.8 128.8L851.8 128.4Z" fill="white"/>
<path d="M870.8 128.8C860.3 128.6 850.9 136.9 849.8 147.4L846.4 178.8L884.5 179.6L887.8 148.2C888.9 137.7 881.3 129.1 870.8 128.8Z" fill="#938FF9"/>
<path d="M703.5 226.2L822.6 228.7" stroke="#3D436C" stroke-width="2" stroke-miterlimit="10"/>
<path d="M741.3 212.4L785.2 213.3" stroke="#3D436C" stroke-width="2" stroke-miterlimit="10"/>
<path d="M742.7 199.9L786.6 200.8" stroke="#3D436C" stroke-width="2" stroke-miterlimit="10"/>
<path d="M744 187.4L788 188.3" stroke="#3D436C" stroke-width="2" stroke-miterlimit="10"/>
<path d="M745.4 174.9L789.3 175.8" stroke="#3D436C" stroke-width="2" stroke-miterlimit="10"/>
<path d="M746.7 162.4L790.7 163.3" stroke="#3D436C" stroke-width="2" stroke-miterlimit="10"/>
<path d="M810.4 213.9L822.1 214.1" stroke="#3D436C" stroke-width="2" stroke-miterlimit="10"/>
<path d="M811.7 201.3L823.5 201.6" stroke="#3D436C" stroke-width="2" stroke-miterlimit="10"/>
<path d="M813.1 188.8L824.8 189.1" stroke="#3D436C" stroke-width="2" stroke-miterlimit="10"/>
<path d="M814.4 176.3L826.2 176.6" stroke="#3D436C" stroke-width="2" stroke-miterlimit="10"/>
<path d="M815.8 163.8L827.5 164.1" stroke="#3D436C" stroke-width="2" stroke-miterlimit="10"/>
<path d="M691.5 298L735.4 298.9" stroke="#3D436C" stroke-width="2" stroke-miterlimit="10"/>
<path d="M692.8 285.5L736.8 286.4" stroke="#3D436C" stroke-width="2" stroke-miterlimit="10"/>
<path d="M694.2 273L738.2 273.9" stroke="#3D436C" stroke-width="2" stroke-miterlimit="10"/>
<path d="M695.6 260.4L739.5 261.3" stroke="#3D436C" stroke-width="2" stroke-miterlimit="10"/>
<path d="M696.9 247.9L740.9 248.8" stroke="#3D436C" stroke-width="2" stroke-miterlimit="10"/>
<path d="M760.6 299.4L772.4 299.7" stroke="#3D436C" stroke-width="2" stroke-miterlimit="10"/>
<path d="M762 286.9L773.7 287.2" stroke="#3D436C" stroke-width="2" stroke-miterlimit="10"/>
<path d="M763.3 274.4L775.1 274.6" stroke="#3D436C" stroke-width="2" stroke-miterlimit="10"/>
<path d="M688.8 322.8L732.8 323.7" stroke="#3D436C" stroke-width="2" stroke-miterlimit="10"/>
<path d="M690.1 310.3L734.1 311.2" stroke="#3D436C" stroke-width="2" stroke-miterlimit="10"/>
<path d="M757.9 324.2L769.7 324.5" stroke="#3D436C" stroke-width="2" stroke-miterlimit="10"/>
<path d="M759.3 311.7L771 312" stroke="#3D436C" stroke-width="2" stroke-miterlimit="10"/>
<path d="M764.7 261.9L776.4 262.1" stroke="#3D436C" stroke-width="2" stroke-miterlimit="10"/>
<path d="M766 249.3L777.8 249.6" stroke="#3D436C" stroke-width="2" stroke-miterlimit="10"/>
<path d="M981.1 181.5C963.5 138.4 984.2 89.2 1027.3 71.6C1070.4 54 1119.6 74.7 1137.2 117.8L981.1 181.5Z" stroke="#3D436C" stroke-width="2" stroke-miterlimit="10"/>
<path d="M1037.4 405.3C1037.4 402.4 1035.1 400 1032.1 400C1029.2 400 1026.8 402.4 1026.8 405.3C1026.8 408.2 1029.2 410.6 1032.1 410.6C1035.1 410.6 1037.4 408.2 1037.4 405.3Z" fill="#3D436C"/>
<path d="M362.9 187.2C362.9 184.2 360.5 181.9 357.6 181.9C354.7 181.9 352.3 184.2 352.3 187.2C352.3 190.1 354.7 192.5 357.6 192.5C360.5 192.5 362.9 190.1 362.9 187.2Z" fill="#3D436C"/>
<path d="M377 837.6C377 834.7 374.6 832.3 371.7 832.3C368.8 832.3 366.4 834.7 366.4 837.6C366.4 840.5 368.8 842.9 371.7 842.9C374.6 842.9 377 840.5 377 837.6Z" fill="#3D436C"/>
</svg>
