<svg version="1.2" xmlns="http://www.w3.org/2000/svg" viewBox="0 0 2200 2200" width="2200" height="2200"><style>.a{fill:#ff9e22}.b{fill:#fff}.c{fill:#d9d9d9;stroke:#000;stroke-miterlimit:10;stroke-width:12}.d{fill:#1c1f23}</style><path class="a" d="m2014.9 1196.3c0 550.8-446.5 997.2-997.2 997.2-550.7 0-997.2-446.4-997.2-997.2 0-550.7 446.5-997.1 997.2-997.1 550.7 0 997.2 446.4 997.2 997.1z"/><path class="b" d="m1003 2016.4c-453.5 0-820-366.6-820-820.1 0-453.4 366.5-820 820-820 453.4 0 820 366.6 820 820 0 453.5-366.6 820.1-820 820.1z"/><path class="a" d="m1003 1839.2c-355.5 0-642.9-287.4-642.9-642.9 0-355.4 287.4-642.8 642.9-642.8 355.4 0 642.8 287.4 642.8 642.8 0 355.5-287.4 642.9-642.8 642.9z"/><path class="b" d="m1003 1662c-257.6 0-465.7-208.1-465.7-465.7 0-257.5 208.1-465.6 465.7-465.6 257.5 0 465.6 208.1 465.6 465.6 0 257.6-208.1 465.7-465.6 465.7z"/><path class="a" d="m1003 1484.8c-159.6 0-288.5-128.9-288.5-288.5 0-159.5 128.9-288.4 288.5-288.4 159.5 0 288.4 128.9 288.4 288.4 0 159.6-128.9 288.5-288.4 288.5z"/><path class="b" d="m1003 1307.7c-61.6 0-111.4-49.8-111.4-111.4 0-61.5 49.8-111.3 111.4-111.3 61.5 0 111.3 49.8 111.3 111.3 0 61.6-49.8 111.4-111.3 111.4z"/><path class="c" d="m1175.3 1062.5c0 0-156.7 149.5-172.3 133.8-15.7-15.6 133.8-172.3 133.8-172.3z"/><path class="c" d="m2146.4 563.5c-110.8 101.8-301 196.8-501.9-4.1l-12-12c-200.9-200.9-105.9-391.1-4.1-501.8 49.8-54.2 136-51.7 182.5 5.2 41 50.3 63.3 89.9 71.8 121.5 9.6 36.1 13.8 94-13.5 150.4 56.4-27.3 114.4-23.1 150.4-13.4 31.7 8.4 71.2 30.7 121.5 71.7 57 46.6 59.4 132.8 5.3 182.5z"/><path class="d" d="m1334.4 1043.6c0 0 470.6-574.7 470.6-574.7 39.1-50.3-24.1-113.8-74.6-74.6l-574.7 470.6c-61.6 49.5-61.9 147 0 196.5 54.3 44.5 134.3 36.5 178.7-17.8z"/></svg>