<svg version="1.2" xmlns="http://www.w3.org/2000/svg" viewBox="0 0 3520 3520" width="3520" height="3520"><style>.a{fill:#e2f5fb}.b{fill:#cda873}.c{fill:#fff}.d{fill:#7ea4f1}.e{fill:#f66f4d}.f{fill:#489f4a}.g{fill:#eedcb4}.h{fill:#9d604b}.i{fill:#914e38}.j{fill:#281f20}.k{fill:#fec43a}.l{fill:#d57f36}.m{fill:#fd501b}.n{fill:#fc9a80}.o{fill:#b2543d}.p{fill:#e4816a}.q{fill:#dda61b}.r{fill:#7e5255}.s{fill:#fceeb8}.t{fill:#f6e5a4}.u{fill:#23567b}.v{fill:#d1d1d1}.w{fill:#b8b6b7}.x{fill:#ee8a6f}.y{fill:#08395d}.z{fill:#d9c781}.A{fill:#29201f}.B{fill:#f5930a}.C{fill:#f5c628}.D{fill:#cc8512}.E{fill:#fab117}.F{fill:#7e3d27}.G{fill:#73321d}</style><path class="a" d="m66.2 1348.4c868.6 148.5 2628.7-161.2 3317.2 991.3-570.6 85-1722 68.5-2115.1 0-340.8-59.4-944.7-645.2-1202.1-991.3z"/><path class="a" d="m2128.9 1555.8c-315.8-281.1-700.7-1036.5-1627.6-857.3 525.1 575.8 1303.9 811.5 1627.6 857.3z"/><path class="b" d="m1407.6 2089.3l-68.7 672.4c-0.2 2 1.3 3.7 3.3 3.7h27.1c1.7 0 3.2-1.3 3.4-3l68.7-672.4c0.2-2-1.4-3.7-3.4-3.7h-27c-1.8 0-3.2 1.3-3.4 3z"/><path class="b" d="m1573.6 2092.7l-68.8 672.4c-0.2 2 1.4 3.7 3.4 3.7h27.1c1.7 0 3.2-1.3 3.3-3.1l68.8-672.3c0.2-2-1.4-3.7-3.4-3.7h-27.1c-1.7 0-3.2 1.3-3.3 3z"/><path class="b" d="m1739.5 2096.1l-68.7 672.3c-0.2 2 1.4 3.8 3.4 3.8h27c1.8 0 3.2-1.3 3.4-3.1l68.7-672.3c0.2-2-1.3-3.7-3.3-3.7h-27.1c-1.7 0-3.2 1.3-3.4 3z"/><path class="b" d="m1905.5 2099.5l-68.7 672.3c-0.2 2 1.3 3.8 3.3 3.8h27.1c1.7 0 3.2-1.3 3.4-3.1l68.7-672.3c0.2-2-1.4-3.7-3.4-3.7h-27c-1.8 0-3.2 1.3-3.4 3z"/><path class="b" d="m2071.5 2102.9l-68.8 672.3c-0.2 2 1.4 3.8 3.4 3.8h27.1c1.7 0 3.2-1.4 3.3-3.1l68.8-672.3c0.2-2-1.4-3.8-3.4-3.8h-27.1c-1.7 0-3.1 1.4-3.3 3.1z"/><path class="b" d="m2237.5 2106.3l-68.8 672.3c-0.2 2 1.4 3.7 3.4 3.7h27c1.8 0 3.2-1.3 3.4-3l68.7-672.3c0.3-2-1.3-3.8-3.3-3.8h-27.1c-1.7 0-3.2 1.3-3.3 3.1z"/><path class="b" d="m2403.4 2109.6l-68.7 672.4c-0.2 2 1.3 3.7 3.3 3.7h27.1c1.7 0 3.2-1.3 3.4-3l68.7-672.4c0.2-1.9-1.3-3.7-3.3-3.7h-27.1c-1.8 0-3.2 1.3-3.4 3z"/><path class="b" d="m2569.4 2113l-68.7 672.4c-0.3 2 1.3 3.7 3.3 3.7h27.1c1.7 0 3.2-1.3 3.3-3l68.8-672.4c0.2-2-1.4-3.7-3.4-3.7h-27c-1.8 0-3.2 1.3-3.4 3z"/><path class="b" d="m2735.3 2116.4l-68.7 672.4c-0.2 2 1.4 3.7 3.4 3.7h27c1.8 0 3.2-1.3 3.4-3l68.8-672.4c0.2-2-1.4-3.7-3.4-3.7h-27.1c-1.7 0-3.2 1.3-3.4 3z"/><path class="b" d="m2901.3 2119.8l-68.7 672.4c-0.2 2 1.3 3.7 3.4 3.7h27c1.7 0 3.2-1.3 3.4-3l68.7-672.4c0.2-2-1.3-3.7-3.3-3.7h-27.1c-1.7 0-3.2 1.3-3.4 3z"/><path class="b" d="m3067.3 2123.2l-68.8 672.4c-0.1 1.9 1.4 3.7 3.4 3.7h27.1c1.7 0 3.2-1.3 3.4-3.1l68.7-672.3c0.2-2-1.4-3.7-3.4-3.7h-27c-1.8 0-3.2 1.3-3.4 3z"/><path class="b" d="m3081.6 2628.2h-1755.3c-0.7 0-1.4-0.6-1.4-1.4v-39.5c0-0.8 0.7-1.4 1.4-1.4h1761.7c0.8 0 1.5 0.8 1.4 1.6l-6.4 39.5c-0.1 0.7-0.7 1.2-1.4 1.2z"/><path class="b" d="m3115.5 2221.8h-1755.3c-0.8 0-1.4-0.7-1.4-1.4v-39.6c0-0.7 0.6-1.4 1.4-1.4h1761.6c0.9 0 1.6 0.8 1.4 1.7l-6.3 39.5c-0.1 0.7-0.7 1.2-1.4 1.2z"/><path class="c" d="m63 399c0-69.1 55.9-125 125-125h1647.8c69 0 124.9 55.9 124.9 125v1020.4c0 69-55.9 125-124.9 125h-1647.8c-69.1 0-125-56-125-125z"/><path fill-rule="evenodd" class="d" d="m716.1 1279.1v173.9h-538.3v-173.9zm-533.6 4.7v164.5h529v-164.5z"/><path class="e" d="m482.1 685.3l78.1-285c43.8 9.9 142.9 55.4 188.7 157.4z"/><path fill-rule="evenodd" class="c" d="m666.9 494.4v7h-98.9v-7zm-42.9 32.5v7h-56v-7z"/><path fill-rule="evenodd" d="m463.9 816.9v2.3h-110.6v-2.3z"/><path fill-rule="evenodd" d="m529 842.9v2.4h-175.7v-2.4z"/><path fill-rule="evenodd" class="e" d="m223.8 1322.9v4.7h177.9v-4.7zm215.4 0v4.7h229.8v-4.7z"/><path fill-rule="evenodd" class="e" d="m453.6 1395.2v4.6h-229.8v-4.6zm215.5 0v4.6h-177.8v-4.6z"/><path fill-rule="evenodd" class="d" d="m1246.2 602.3v4.6h-79.5v-4.6zm119.8 0v4.6h-101.6v-4.6zm-157.5 26v4.7h-41.6v-4.7zm157.5 0v4.7h-130.2v-4.7zm-93.7 26v4.7h-105.4v-4.7zm93.7 0v4.7h-75.5v-4.7z"/><path fill-rule="evenodd" class="d" d="m1246.2 914.7v4.6h-79.5v-4.6zm119.8 0v4.6h-101.6v-4.6zm-157.5 26v4.7h-41.6v-4.7zm157.5 0v4.7h-130.2v-4.7zm-93.7 26v4.7h-105.4v-4.7zm93.7 0v4.7h-75.5v-4.7z"/><path fill-rule="evenodd" class="d" d="m1246.2 1279.1v4.7h-79.5v-4.7zm119.8 0v4.7h-101.6v-4.7zm-157.5 26v4.7h-41.6v-4.7zm157.5 0v4.7h-130.2v-4.7zm-93.7 26.1v4.6h-105.4v-4.6zm93.7 0v4.6h-75.5v-4.6z"/><path fill-rule="evenodd" class="d" d="m1553.3 602.3v4.6h-79.4v-4.6zm119.8 0v4.6h-101.5v-4.6zm-157.5 26v4.7h-41.7v-4.7zm157.5 0v4.7h-130.2v-4.7zm-93.7 26v4.7h-105.4v-4.7zm93.7 0v4.7h-75.5v-4.7z"/><path fill-rule="evenodd" class="d" d="m1553.3 914.7v4.6h-79.4v-4.6zm119.8 0v4.6h-101.5v-4.6zm-157.5 26v4.7h-41.7v-4.7zm157.5 0v4.7h-130.2v-4.7zm-93.7 26v4.7h-105.4v-4.7zm93.7 0v4.7h-75.5v-4.7z"/><path fill-rule="evenodd" class="d" d="m1553.3 1279.1v4.7h-79.4v-4.7zm119.8 0v4.7h-101.5v-4.7zm-157.5 26v4.7h-41.7v-4.7zm157.5 0v4.7h-130.2v-4.7zm-93.7 26.1v4.6h-105.4v-4.6zm93.7 0v4.6h-75.5v-4.6z"/><path fill-rule="evenodd" class="e" d="m969.2 428.9v58.6h4.6v-58.6zm0 158.8v62.5h4.7v-62.5z"/><path fill-rule="evenodd" class="e" d="m860.9 537.2v4.7h58.5v-4.7zm158.8 0v4.7h62.5v-4.7z"/><path fill-rule="evenodd" class="e" d="m1013.4 508.5l45.5-36.9-3-3.6-45.4 36.9zm-126.3 102.6l48.5-39.4-3-3.6-48.5 39.3z"/><path fill-rule="evenodd" class="e" d="m932.6 504.9l-45.5-36.9-2.9 3.6 45.4 36.9zm126.3 102.6l-48.5-39.4-2.9 3.6 48.5 39.4z"/><path class="d" d="m487.3 966.4c151 0 273.4-122.3 273.4-273.3 0-37.4-7.5-73-21.1-105.4l-283.5 132.7 76.8-296.8c-14.8-2.5-30.1-3.8-45.6-3.8-150.9 0-273.3 122.4-273.3 273.3 0 151 122.4 273.3 273.3 273.3z"/><path class="d" d="m1054.8 871.4c0 35.3-28.5 63.8-63.8 63.8-35.2 0-63.7-28.5-63.7-63.8 0-28.9 43-88.5 58.4-108.8 2.7-3.6 8-3.6 10.7 0 15.3 20.3 58.4 79.9 58.4 108.8z"/><path class="d" d="m1001 1107c0-2.9-2.3-5.2-5.2-5.2h-12.1c-2.9 0-5.2 2.3-5.2 5.2v123.4c0 7.3-4.9 13.5-10.4 18.3-7.5 6.3-12.2 15.9-12.2 26.7 0 19.1 15.1 34.7 33.8 34.7 18.7 0 33.9-15.6 33.9-34.7 0-10.8-4.8-20.4-12.2-26.7-5.6-4.8-10.4-11-10.4-18.3z"/><path class="e" d="m989.5 1304.3c14.8 0 26.8-12.5 26.8-28 0-8.7-3.7-16.4-9.6-21.5-4.4-3.8-8.2-8.9-8.2-14.8v-23.1h-17.9v23.1c0 5.9-3.8 11-8.2 14.8-5.9 5.1-9.7 12.8-9.7 21.5 0 15.5 12 28 26.8 28z"/><path class="e" d="m968.9 570.8c-17.3 0-31.2-14-31.2-31.3 0-17.3 13.9-31.2 31.2-31.2 17.3 0 31.2 13.9 31.2 31.2 0 17.3-13.9 31.3-31.2 31.3z"/><path class="d" d="m1436.2 393.7c-13.7 0-24.8-11-24.8-24.7 0-13.7 11.1-24.7 24.8-24.7 13.6 0 24.7 11 24.7 24.7 0 13.7-11.1 24.7-24.7 24.7z"/><path class="d" d="m1553.3 393.7c-13.7 0-24.7-11-24.7-24.7 0-13.7 11-24.7 24.7-24.7 13.7 0 24.8 11 24.8 24.7 0 13.7-11.1 24.7-24.8 24.7z"/><path class="e" d="m1670.5 393.7c-13.7 0-24.8-11-24.8-24.7 0-13.7 11.1-24.7 24.8-24.7 13.7 0 24.7 11 24.7 24.7 0 13.7-11 24.7-24.7 24.7z"/><path class="d" d="m1574.1 508.3v52h-436v-52z"/><path fill-rule="evenodd" class="d" d="m1697.5 506v56.7h-561.7v-56.7zm-557.1 4.6v47.4h431.4v-47.4zm436 0v47.4h116.4v-47.4z"/><path class="e" d="m1399.7 820.7v52h-261.6v-52z"/><path fill-rule="evenodd" class="e" d="m1697.5 818.3v56.8h-561.7v-56.8zm-557.1 4.7v47.4h257v-47.4zm261.6 0v47.4h290.8v-47.4z"/><path class="d" d="m1496.1 1185.1v52.1h-358v-52.1z"/><path fill-rule="evenodd" class="d" d="m1697.5 1182.8v56.7h-561.7v-56.7zm-557.1 4.6v47.5h353.3v-47.5zm357.9 0v47.5h194.5v-47.5z"/><path fill-rule="evenodd" class="d" d="m1393 584.1v95.7h-257.2v-95.7zm-252.5 4.6v86.5h247.8v-86.5z"/><path fill-rule="evenodd" class="d" d="m1393 896.4v95.8h-257.2v-95.8zm-252.5 4.7v86.4h247.8v-86.4z"/><path fill-rule="evenodd" class="d" d="m1393 1260.9v95.7h-257.2v-95.7zm-252.5 4.6v86.5h247.8v-86.5z"/><path fill-rule="evenodd" class="d" d="m1697.5 584.1v95.7h-257.1v-95.7zm-252.5 4.6v86.5h247.8v-86.5z"/><path fill-rule="evenodd" class="d" d="m1697.5 896.4v95.8h-257.1v-95.8zm-252.5 4.7v86.4h247.8v-86.4z"/><path fill-rule="evenodd" class="d" d="m1697.5 1260.9v95.7h-257.1v-95.7zm-252.5 4.6v86.5h247.8v-86.5z"/><path class="e" d="m713.8 984.7v247.3h-57.3v-247.3z"/><path class="d" d="m620.1 1026.3v205.7h-57.3v-205.7z"/><path class="d" d="m526.4 1094v138h-57.3v-138z"/><path class="e" d="m432.7 1062.8v169.2h-57.3v-169.2z"/><path class="d" d="m336.3 1104.4v127.6h-57.2v-127.6z"/><path class="d" d="m242.6 1159.1v72.9h-57.2v-72.9z"/><path fill-rule="evenodd" class="c" d="m543.2 855.6v7h-149.2v-7zm-64.8 51.2v7h-84.4v-7z"/><path class="f" d="m253.7 2602.4c49.8 51.7 60 151.5 58.6 198.5 0 0.7-0.6 1.2-1.3 1.3l-125.8 6.6c-0.9 0-1.6-0.7-1.5-1.6 4-54.6-53.2-39.8-102.6-29.7-1.7 0.4-3-1.4-2-2.8 16.5-24.9 54.3-35.4 75.8-38.1 2.1-0.3 3.1-2.8 1.7-4.3-29.1-30.5-107.3-41.2-153.5-43.3-3.5-0.1-4.3-4.2-1-5.4 42.4-14.7 142.7-19.9 197.3 45.4 1.8 2.1 5 0.4 3.7-2.1-20.4-40.7-69.1-107.1-97.6-143.7-1.8-2.3 0.1-5.6 3-5 56.2 12.8 120.1 91.2 153.4 143.1 1.1 1.8 3.7 1.3 4.1-0.7 5.7-31.8-7.2-83.7-17.4-114.8-1.1-3.4 2.7-5.9 5.1-3.4z"/><path class="f" d="m3266.3 2587.2c-49.8 51.7-60 151.4-58.6 198.4 0 0.7 0.6 1.3 1.3 1.3l125.8 6.6c0.9 0.1 1.6-0.7 1.5-1.6-4-54.6 53.2-39.8 102.6-29.6 1.7 0.3 3-1.5 2-2.9-16.5-24.9-54.3-35.4-75.8-38.1-2.1-0.3-3.1-2.7-1.7-4.3 29.1-30.5 107.3-41.2 153.5-43.3 3.5-0.1 4.3-4.2 1-5.3-42.4-14.8-142.7-20-197.3 45.3-1.8 2.2-5 0.5-3.7-2 20.4-40.8 69.1-107.1 97.6-143.7 1.8-2.4-0.1-5.7-3-5-56.2 12.7-120.1 91.1-153.4 143-1.1 1.8-3.7 1.4-4.1-0.7-5.7-31.8 7.2-83.6 17.4-114.8 1.1-3.3-2.7-5.8-5.1-3.3z"/><path class="g" d="m3443.7 2852.9c84.6-57.5-142.2-99.9-281.1-79.6q-0.1 0-0.2 0l-2648.6-5.1c-138.9 0-409.2 15.3-445.5 45.9-6.6 6.8 0.3 15.9 9.1 19.4 102.6 40.6 381.7 55.5 536.4 84.5 2.4 0.5 3.5 3.2 1.8 5-27.9 30.5-116.4 19.9-117.1 64.9q0 0.5 0.2 0.9c18.5 62.2 406.6 49.4 524.8 62.3 70.4 7.7 80.4 22 12.7 45-7.5 2.5-12.7 9.5-12.7 17.4 0 6.4 3.6 12.1 9.9 13.3 63.8 12.8 384.2 22.1 566.9 28.4 12.8 0.4 20.2 12.7 9.2 19.2-14.9 8.9-37.9 13.8-57.8 20.6-14.5 5-16.4 21.4-2.3 27.2 75.7 31.4 294.9 28.8 453.5 5.7 3-0.5 5.6-2.1 7.2-4.6 4.7-7-0.4-16.6-8.7-17.9-20.3-3.2-35.3-10.8-44.5-17.6-5.7-4.3-6.3-12.4-0.5-16.4 34.7-23.6 134.3 0.9 206-10.5 8.5-1.4 10.2-12.1 3.2-17.3-6.2-4.6-11.2-8.8-15.3-12.7-39.5-37.5 60.8-41.7 115.3-39.8 212 7.1 680.8-16.5 775.1-82 2.3-1.6 1.3-4.8-1.3-5.5-74.1-21.8-81.2-55.2-59.8-74.5 101.6-91.4 308.2 13.6 464.1-76.2z"/><path class="h" d="m717.6 2882.9c-149.5-48.8-274.6-46.6-358.8-70.6-3.8-1-6.9-3.7-8.7-7.3-3.2-6.5-2.3-13.8 4.3-16.8 237.3-106.7 2579.9-65 2787.8-25 105 20.2 49.1 84.8-59.3 91.4-167.6 10.2-359 22-396.3 88.1-13.3 23.6 30.8 32.8 56.4 34 5.5 0.2 9.6 5.5 8 10.7-6 19.8-24.2 33.3-44.9 33.5l-703.7 6.5c-102.7-2.6-85.3 37.7-51.5 41.9 3.7 0.5 7.2 2 9.7 4.7 5.7 6.4 3.7 16.1-4.6 18.1-84.9 21.5-369.4 12.2-585.3-4.5-7.3-0.6-13.4-5.3-15.9-12.1-1.7-4.8-1.5-10.3 2.4-13.5 14.6-12.1 49.7-18.2 51.9-33.5 1.6-10.8-10.9-17.8-21.3-21-93.1-27.9-431.8 2.3-726.4-44.2-7.2-1.2-12.7-6.9-13.7-14.2-1-8.4 4.6-16.3 12.9-18.1l54.9-11.9c5.3-1.2 9.8-4.5 12.5-9.3 5.7-10.2 0.8-23.2-10.4-26.9z"/><path class="i" d="m2617.2 2811.5c-47.8-8.4-342.7 1.3-506.6 8.4-92.2 3.7-116.9 45.8-113.4 77.4 3.6 31.6 205.6-2.8 280.2 18.2 74.6 21.1 227.3-23.9 291.3-9.3 64 14.6 158.3-21.6 158.3-73.7 0-24.4-50-10.5-109.8-21z"/><path class="j" d="m2448.3 812.1c-10.8 30.9-11.7 92.8-62 111.4-12.4 4.6-26 7.9-39.3 8-8 0.1-16-1-23.4-3.7-19.2-6.9-30.1-28.2-33.7-72.4 22 7.6 30.7-33.9 75.8-5.4 26 16.4 41.1 24.6 54.2 3 10.3-17-1.7-26 16.3-41.6 4.4-3.9 9.1-8.3 9.2-14.1 0.2-7.9-5.9-11.9-15.1-17.4-3.1-1.9-5.1-5.2-5.2-8.9-0.2-10.8-0.6-20.6-2.2-28.5 25.6 5.7 50.6 12.3 73.8 19.8-1.5 13.6-4.9 28.9-10.4 46.2-2.1-6.2-6.4-11.1-12.9-12.8-10.9-2.9-21.4 5.9-25.1 16.4z"/><path class="k" d="m2184.2 724c34.6-23.8 98.8-38.2 128.5-42.1 27.8-2.1 105.6 3.2 194.4 41.9 16.5 7.9 58.7 36.6 94.5 87.9-23.9-18.6-61.3-35.4-104.9-49.4-23.2-7.5-48.2-14.1-73.8-19.8-38.7-8.6-78.8-15-116.6-18.7q-14.8-1.4-29-2.2c-35.4-2.2-67.6-1.5-93.1 2.4z"/><path class="l" d="m2601.6 811.7c3.9 3.7 3.2 9.8-1.7 12.1-22 10.6-68.4 13-116.2 8.7 4.3-7.8 5-16.8 2.6-24 5.5-17.3 8.9-32.6 10.4-46.2 43.6 14 81 30.8 104.9 49.4z"/><path class="l" d="m2177 739.6c-4.9-6.2-0.6-14.4 7.2-15.6 25.5-3.9 57.7-4.6 93.1-2.4 1 11.1 7.9 22.8 14.4 29.3-0.8 5.4-1.4 11.8-1.8 19.2q-0.4 8.4-0.7 16.4c-38.4-5.3-91.2-20.2-112.2-46.9z"/><path class="j" d="m2291.7 750.9c-6.5-6.5-13.4-18.2-14.4-29.3q14.2 0.8 29 2.2c-8.1 4.7-12.3 12.8-14.6 27.1z"/><path class="k" d="m2357.4 615c40.8-0.5 95.4 3.3 141.5 32.3 2.2 1.3 3.6 3.7 3.7 6.3l2.6 40.5c-79.9-38.9-149.9-43.8-174.9-41.4l20.2-33.7c1.5-2.5 4.1-4 6.9-4z"/><path class="m" d="m2507.1 723.8c-88.8-38.7-166.6-44-194.4-41.9l17.6-29.2c25-2.4 95 2.5 174.9 41.4z"/><path class="n" d="m2365.7 850c-45.1-28.5-53.8 13-75.8 5.4-1.5-18.7-1.7-41.4-0.7-68.9q0.3-8 0.7-16.4c0.4-7.4 1-13.8 1.8-19.2 2.3-14.3 6.5-22.4 14.6-27.1 37.8 3.7 77.9 10.1 116.6 18.7 1.6 7.9 2 17.7 2.2 28.5 0.1 3.7 2.1 7 5.2 8.9 9.2 5.5 15.3 9.5 15.1 17.4-0.1 5.8-4.8 10.2-9.2 14.1-18 15.6-6 24.6-16.3 41.6-13.1 21.6-28.2 13.4-54.2-3z"/><path class="j" d="m2448.2 849.8c5.7 0.3 10.7-0.3 15.2-1.6-2.2 6.4-3.7 14.9-4.9 24.1-9.5-10.5-10.8-19.3-10.3-22.5z"/><path class="n" d="m2386.3 923.5c50.3-18.6 51.2-80.5 62-111.4 3.7-10.5 14.2-19.3 25.1-16.4 6.5 1.7 10.8 6.6 12.9 12.8 2.4 7.2 1.7 16.2-2.6 24-3.8 7-10.5 13-20.3 15.7-4.5 1.3-9.5 1.9-15.2 1.6-0.5 3.2 0.8 12 10.3 22.5-1.2 10.5-1.9 22-2.1 32.9-0.5 23.9 22.9 47.5 45.1 56.2-28.2 49-103.3 123.4-177.9 29 10.8-2.6 21.5-13.5 21.4-24.6-0.1-9.5 1.1-29.4 2-34.3 13.3-0.1 26.9-3.4 39.3-8z"/><path fill-rule="evenodd" class="o" d="m2334.5 787.4c0.9-0.1 1.7 0.6 1.8 1.5 1 7.4 1.3 12.6 0.5 16.9-0.8 4.5-2.6 7.8-5.6 11.7-3.2 4.1-3 7.9-1.1 10.7 1.9 2.9 5.8 5.1 10.5 5.4 0.9 0.1 1.6 0.9 1.6 1.8-0.1 0.9-0.9 1.6-1.8 1.5-5.5-0.3-10.5-2.9-13.1-6.9-2.7-4.1-2.7-9.4 1.3-14.6 2.8-3.5 4.3-6.4 4.9-10.1 0.7-3.8 0.5-8.6-0.4-16-0.2-0.9 0.5-1.8 1.4-1.9z"/><path fill-rule="evenodd" class="j" d="m2293.3 752c-1.3 0.6-1.8 2.1-1.2 3.3 0.6 1.3 2.1 1.8 3.3 1.2 5.4-2.7 10.1-4.1 14.3-4.4 4.3-0.3 8.3 0.4 12.6 2.2 1.2 0.6 2.7 0 3.2-1.3 0.6-1.2 0-2.7-1.2-3.2-5-2.1-9.8-3.1-14.9-2.7-5.1 0.4-10.4 2.1-16.1 4.9zm102.7 14.3c0.8 1 2.4 1.2 3.4 0.4 1.1-0.8 1.3-2.4 0.5-3.5-7.6-9.8-16.7-14.4-24.9-15.7-8.1-1.3-15.4 0.6-19.3 3.6-1.1 0.9-1.3 2.4-0.5 3.5 0.9 1.1 2.4 1.3 3.5 0.4 2.6-2 8.4-3.7 15.5-2.6 7 1.1 15 5 21.8 13.9z"/><path class="p" d="m2375.8 823.2c-9.6 0-17.4-3.3-17.4-7.4 0-4.2 7.8-7.5 17.4-7.5 9.6 0 17.3 3.3 17.3 7.5 0 4.1-7.7 7.4-17.3 7.4z"/><path class="p" d="m2304.6 821.8c-6.8 0-12.3-2.4-12.3-5.3 0-2.9 5.5-5.3 12.3-5.3 6.8 0 12.3 2.4 12.3 5.3 0 2.9-5.5 5.3-12.3 5.3z"/><path fill-rule="evenodd" class="q" d="m2373 626.2c-2.6-0.3-4.9-0.5-6.7-0.7l0.2-1.6c2 0.2 4.7 0.4 7.9 0.7 7 0.7 16.3 1.8 25.3 3.2 3.7 0.6 7.4 1.2 10.8 1.9l-0.3 1.6c-3.2-0.6-6.6-1.2-10-1.7-0.8 2.8-1.8 6.9-2.6 10.9 4.3 0.8 8.3 1.7 11.5 2.5l-0.4 1.6c-3.1-0.8-7.1-1.7-11.5-2.4-0.8 4-1.4 7.8-1.3 10.1h-1.7c0-2.4 0.6-6.4 1.4-10.4-8.4-1.5-17.9-2.9-25.2-3.8-1.3 4.1-2.3 7.8-2.8 10l-1.6-0.4c0.5-2.1 1.5-5.8 2.7-9.8q-3.1-0.4-5.5-0.7l0.2-1.7c1.7 0.2 3.6 0.5 5.9 0.8 1-3.4 2.3-6.9 3.7-10.1zm1.8 0.1c-1.5 3.2-2.8 6.8-3.9 10.2 7.3 0.9 16.7 2.3 25 3.7 0.9-4 1.9-8.1 2.6-10.9-8.4-1.3-17-2.3-23.7-3z"/><path fill-rule="evenodd" class="q" d="m2439 712.1c-1.6-2.2-2.9-4.1-3.9-5.5l1.3-0.9c1.2 1.6 2.9 4 4.9 6.8 4.6 0.8 9.5 1.9 14.5 3.2 4.4 1.2 8.8 2.5 12.9 4.1-1.9-2.6-3.8-4.7-5.3-6.1l1.1-1.2c2 1.9 4.6 4.9 7.2 8.5 4.7 1.9 8.9 4.2 12.1 6.8l-1 1.3c-2.5-2-5.6-3.9-9.2-5.5q1.1 1.6 2.2 3.3c2.1 3.3 4.2 6.8 5.9 10.4 4.2 2.4 8.4 5.2 12.4 8.5l-1.1 1.3c-3.2-2.7-6.7-5.1-10.1-7.2 0.9 2.2 1.7 4.4 2.3 6.5l-1.5 0.4c-0.8-2.6-1.9-5.5-3.3-8.3-9.7-5.5-19.8-8.8-28.8-10.9 3.5 5.4 7.1 11.1 10.4 16.5l-1.5 0.9c-3.5-5.9-7.4-12.2-11.2-17.9-9.1-1.9-16.9-2.5-21.5-2.6v-1.7c4.4 0.2 11.6 0.7 20.2 2.4-2.8-4.2-5.4-8-7.7-11.2-5-0.9-9.4-1.6-12.8-1.9l0.1-1.7c3.1 0.4 7 0.9 11.4 1.7zm3.6 2.3c2.4 3.3 5 7.2 7.7 11.2 8.9 1.9 19 5.1 28.8 10.3-1.4-2.8-3-5.5-4.7-8.1-1.2-1.9-2.5-3.8-3.8-5.5-4.7-1.9-9.9-3.6-15.2-5-4.3-1.1-8.7-2.1-12.8-2.9z"/><path class="j" d="m2307.2 788.6c-5.5 0-9.9-4.8-9.9-10.8 0-5.9 4.4-10.7 9.9-10.7 5.5 0 9.9 4.8 9.9 10.7 0 6-4.4 10.8-9.9 10.8z"/><path class="j" d="m2363.4 788.6c-5.5 0-9.9-4.8-9.9-10.8 0-5.9 4.4-10.7 9.9-10.7 5.5 0 10 4.8 10 10.7 0 6-4.5 10.8-10 10.8z"/><path fill-rule="evenodd" class="r" d="m2349.6 861.3c0.9 0.1 1.5 1 1.4 1.9-1.2 6.8-6 11.6-11.3 14-5.3 2.3-11.6 2.4-15.9-0.7-0.7-0.6-0.9-1.6-0.3-2.3 0.5-0.8 1.6-0.9 2.3-0.4 3 2.2 7.9 2.4 12.5 0.3 4.6-2 8.4-6 9.4-11.5 0.2-0.9 1-1.5 1.9-1.3z"/><path class="s" d="m2327.4 1127.7c39.4 8.7 97.8 7.2 148.9-0.2 2.8-0.4 4.9-2.4 5.5-5.1 6.7-30.8 24.8-107.2 44.2-159.1q-13.1-2.4-27-3.5c-50.4 47.1-116.7 57.9-173.6 28.1-5.9 2-12.1 4.8-18.5 8.3 2.1 30.7 5.9 90.4 15.8 127 0.6 2.2 2.4 4 4.7 4.5z"/><path class="s" d="m2612.2 1312.8c-6.6-13.9-18.8-40.5-18.3-53.5 0-1.6 0.8-3.1 1.9-4.1 0.9-0.8 2-1.3 3.2-1.6 38.5-7.9 116.8-24.9 148.7-30.4-28.3-108.9-82.1-208.4-178-247.1-33.6 91.1-46.7 243.1-7.2 346.8 15.2 3.8 30 6.6 44.1 8.2 10.2 1.2 18.2-6.2 19.5-15.5q-3.9 0.4-7.3 0.8c-2.8 0.2-5.5-1.1-6.6-3.6z"/><path class="t" d="m2593.9 1259.3c-0.5 13 11.7 39.6 18.3 53.5 1.1 2.5 3.8 3.8 6.6 3.6q3.4-0.4 7.3-0.8c37.7-4.1 97.5-12.1 128.5-21.2q5.5-1.6 9.7-3.3c2.8-1.1 4.3-4.1 3.8-7.2-1.3-6.7-2.8-13.7-4.4-18.8-1.5-5-3.1-10.6-3.4-15.9-0.5-7.8-2.2-15.3-3.8-21.2-0.9-3.5-4.3-5.6-7.8-5q-0.5 0.1-1 0.2c-31.9 5.5-110.2 22.5-148.7 30.4-1.2 0.3-2.3 0.8-3.2 1.6-1.1 1-1.9 2.5-1.9 4.1z"/><path class="s" d="m2267.5 1130.6c-2.5-35.4-4.4-72.5-5.6-100.8-24.7 24-49.2 58.7-65 99.8z"/><path class="n" d="m2130.3 1235.1l-30.7-4.3c-3.9-0.5-5.8-2.3-6.9-6.4l-2.2-6.4c-6.7 3.3-10.8 8.3-13.1 12.8-2.7 5.5-2.5 12.6 2.3 16.4q1 0.8 2.1 1.5c12.2 7.4 36.7 7.2 46.7 7.5 5.2 0.1 9.7-3.5 10.7-8.5 1.2-6-2.8-11.7-8.9-12.6z"/><path class="n" d="m2135.5 1256.8l-7-0.6c-10-0.3-34.5-0.1-46.7-7.5-2.2 8.5 1.9 15.4 4.9 18.6 0.7 0.6 1.1 1.4 1.3 2.3 1 4.2 2.4 7.7 4.1 10.5 8.7 13.7 26.2 11.5 38.2 9.8 10.7-1.4 7.5-10.2 3.2-16.3q1.6-0.1 3-0.2c4.5-0.5 7.5-4.6 6.9-9.1-0.6-4-3.9-7.2-7.9-7.5z"/><path class="n" d="m2131.5 1303.7c11.2-2.5 8-15-1.2-13.8-12 1.7-29.5 3.9-38.2-9.8 1.9 11.9 9.2 18.7 17.5 22 4.3 1.7 9 2.4 13.3 2.5 3.1 0.1 6.1-0.3 8.6-0.9z"/><path class="u" d="m2412.2 1772.7c22.6 212.8 47.1 563.4 106.3 794.3 0.7 2.7 3.1 4.6 6 4.8l141.6 9.9c4 0.3 7.3-2.7 7.1-6.7-15.3-348.5-46.5-1041.9-52.4-1117.3-67.8-20.6-145.4-67.8-202.8-107-3.8-2.6-8.1-4.6-12.6-5.7q-3.6-0.9-7.7-1.9c-18.3-4.5-41.5-10.2-57.2-18.9q-2.4-1.4-4.9-2.8c-3.6-2.1-7.2-4.1-10.9-6h-85.8c-3.2 21.2-6.3 43.9-9.3 67.8q-2.4 18.9-4.7 38.8c-45.4 401.3-55.3 1077.4-52.8 1152.8 0.1 3.4 2.9 5.8 6.2 5.8h141.2c3.4 0 6.2-2.4 6.6-5.7 31.2-262.6 81.6-780.6 86.1-802.2z"/><path class="u" d="m2476.3 1127.5c-51.1 7.4-109.5 8.9-148.9 0.2-2.3-0.5-4.1-2.3-4.7-4.5-9.9-36.6-13.7-96.3-15.8-127-14.5 7.7-30 19-45 33.6l5.6 100.8 23.7 0.3c2.7 0 5.1 1.6 6.1 4.1l1.8 4.4c0.6 0.6 1.1 1.3 1.5 2.2l33.5 81.9c28.4-2 51.7 16.7 69.3 30.7 4.8 3.8 9.1 7.3 13 9.9 42.1 23.3 95.9 46.2 146.1 58.8-39.5-103.7-26.4-255.7 7.2-346.8-13.7-5.6-28.3-9.9-43.7-12.8-19.4 51.9-37.5 128.3-44.2 159.1-0.6 2.7-2.7 4.7-5.5 5.1z"/><path class="v" d="m2294.5 1137.5l-225.7-3.1c-3.5-0.1-6.2 2.6-6.7 5.7-0.1 1.1 0 2.2 0.4 3.2l28 74.7 2.2 6.4c1.1 4.1 3 5.9 6.9 6.4l30.7 4.3c6.1 0.9 10.1 6.6 8.9 12.6-1 5-5.5 8.6-10.7 8.5l7 0.6c4 0.3 7.3 3.5 7.9 7.5 0.6 4.5-2.4 8.6-6.9 9.1q-1.4 0.1-3 0.2c4.3 6.1 7.5 14.9-3.2 16.3 9.2-1.2 12.4 11.3 1.2 13.8-2.5 0.6-5.5 1-8.6 0.9l2.4 6.5c1 2.5 3.4 4.3 6.2 4.3h80.6 26.8 85.8c-5.6-2.8-11.2-5.2-17.2-6.5l-8.2-1.8c-4.4-1-5.7-8.2-3.6-12.3 1.4-2.9 4.7-4.5 7.8-3.7l-8.2-2.2c-7.6-2-15.6-5.7-14.8-13.5 0.4-4.5 2.1-8.1 6.2-8.6l-10.2-2.6c-6-1.6-9.1-8.4-6.3-14 1.9-3.8 6-5.9 10.2-5.2 3.2 0.5 7 1.1 11.1 1.9-1.4-5.5 2.4-14.9 7.8-16.5 3.7-1 21.8 1.9 39.8 5.3l-5-12.2-33.5-81.9c-0.4-0.9-0.9-1.6-1.5-2.2-1.2-1.2-2.8-1.9-4.6-1.9z"/><path class="w" d="m2068.8 1134.4l225.7 3.1c1.8 0 3.4 0.7 4.6 1.9l-1.8-4.4c-1-2.5-3.4-4.1-6.1-4.1l-23.7-0.3-70.6-1-129.8-1.8c-4.6-0.1-7.9 4.5-6.3 8.9l1.3 3.4c0.5-3.1 3.2-5.8 6.7-5.7z"/><path fill-rule="evenodd" class="n" d="m2397.7 1343.1c-18.3-4.5-41.5-10.2-57.2-18.9q-2.4-1.4-4.9-2.8c-3.6-2.1-7.2-4.1-10.9-6-5.6-2.8-11.2-5.2-17.2-6.5l-8.2-1.8c-4.4-1-5.7-8.2-3.6-12.3 1.4-2.9 4.7-4.5 7.8-3.7l-8.2-2.2c-7.6-2-15.6-5.7-14.8-13.5 0.4-4.5 2.1-8.1 6.2-8.6l-10.2-2.6c-6-1.6-9.1-8.4-6.3-14 1.9-3.8 6-5.9 10.2-5.2 3.2 0.5 7 1.1 11.1 1.9-1.4-5.5 2.4-14.9 7.8-16.5 3.7-1 21.8 1.9 39.8 5.3l-5-12.2c28.4-2 51.7 16.7 69.3 30.7 4.8 3.8 9.1 7.3 13 9.9 42.1 23.3 95.9 46.2 146.1 58.8 15.2 3.8 30 6.6 44.1 8.2 10.2 1.2 18.2-6.2 19.5-15.5 32.3 6.8 104.1 20.4 132.9 20.4 0.7 25.2-2.3 46.2-4.9 64.3q-0.3 2.3-0.6 4.6c-9.4 67.1-65.1 73.2-132.7 52.8-67.8-20.6-145.4-67.8-202.8-107-3.8-2.6-8.1-4.6-12.6-5.7q-3.6-0.9-7.7-1.9z"/><path class="x" d="m2754.6 1294.4c-31 9.1-90.8 17.1-128.5 21.2 32.3 6.8 104.1 20.4 132.9 20.4-0.3-12.7-1.6-26.5-4.4-41.6z"/><path fill-rule="evenodd" class="n" d="m2125.3 1311.1c1 2.5 3.4 4.3 6.2 4.3h80.6c2.7 17.9 9.9 56.5 17.5 67.8q-2.4 18.9-4.7 38.8c-86.4 4.1-114.2-68.9-115.3-119.9 4.3 1.7 9 2.4 13.3 2.5z"/><path class="x" d="m2238.9 1315.4h-26.8c2.7 17.9 9.9 56.5 17.5 67.8 3-23.9 6.1-46.6 9.3-67.8z"/><path fill-rule="evenodd" class="y" d="m2399 1249.1c0 1.4 1 2.6 2.4 2.6l111 2.4-2.2 31.4-44.9-2.4c-1.4-0.1-2.6 1-2.6 2.4-0.1 1.3 0.9 2.5 2.3 2.6l44.8 2.4-0.9 14c-0.1 1.3 1 2.5 2.4 2.6 1.3 0.1 2.5-1 2.6-2.3l1-16.5 2.5-34.4c0.1-2.5-1.8-4.7-4.4-4.7l-111.5-2.5c-1.4 0-2.5 1.1-2.5 2.4zm-79.8 72.1c-1.4-0.2-2.6 0.9-2.7 2.2l-7.1 89.4c-0.2 2.1 1.2 4.2 3.5 4.6 11.2 2 45.3 3.8 83 4.6 37.9 0.8 79.8 0.6 106.8-1.4 2.3-0.1 3.9-1.9 4.1-4l0.5-7.6c0.1-1.4-0.9-2.6-2.3-2.7-1.4-0.1-2.5 1-2.6 2.3l-0.6 7.1c-26.8 1.9-68.2 2.1-105.8 1.3-37.2-0.8-70.3-2.5-81.6-4.4l7.1-88.8c0.1-1.3-0.9-2.5-2.3-2.6z"/><path fill-rule="evenodd" class="x" d="m2301.4 1232.7c-0.8 0-1.2 0.1-1.4 0.1-1.3 0.4-2.7-0.4-3-1.7-0.4-1.3 0.4-2.7 1.7-3 0.7-0.3 1.7-0.3 2.6-0.4 1 0 2.1 0.1 3.4 0.2 2.6 0.2 5.8 0.5 9.5 1 7.2 1.1 16.3 2.6 25.3 4.3 9.3 1.8 18.6 3.7 25.9 5.4 1.3 0.3 2.1 1.6 1.8 2.9-0.3 1.4-1.6 2.2-2.9 1.9-7.2-1.6-16.4-3.5-25.7-5.3-9-1.7-17.9-3.2-25.1-4.2-3.6-0.6-6.7-0.9-9.1-1.1q-1.8-0.1-3-0.1zm-23.5 11.8c0.2-1.3 1.5-2.2 2.9-2 3.2 0.5 7 1.2 11.1 1.9 15.1 2.7 34.8 6.8 50.7 11.4 1.4 0.4 2.1 1.8 1.7 3.1-0.4 1.3-1.7 2.1-3 1.7-15.7-4.6-35.2-8.6-50.3-11.3-4-0.7-7.8-1.4-11-1.9-1.4-0.2-2.3-1.5-2.1-2.9zm-198.2 2.9c0.7-1.2 2.2-1.6 3.4-0.9 2.7 1.7 6.6 2.9 11.5 3.9 4.8 1 10.2 1.6 15.6 1.9 8.1 0.6 16 0.7 21.6 0.7 1.9 0.1 3.5 0.1 4.8 0.1 1.3 0 2.4 1.2 2.4 2.6-0.1 1.3-1.2 2.4-2.6 2.4-1.1-0.1-2.7-0.1-4.5-0.1-5.6 0-13.8-0.1-22.1-0.7-5.5-0.4-11.1-1-16.2-2-5-1-9.7-2.4-13.1-4.5-1.2-0.7-1.5-2.3-0.8-3.4zm194.4 16.1c0.3-1.3 1.7-2.1 3-1.7l9.8 2.5c2.3-0.1 5.2 0.2 8.4 0.7 3.5 0.5 7.5 1.4 11.6 2.4 8.2 2 16.8 4.6 22.6 6.7 1.2 0.5 1.9 1.9 1.4 3.2-0.4 1.3-1.9 1.9-3.1 1.5-5.6-2.1-14-4.6-22.1-6.6-4-1-7.8-1.8-11.1-2.3-3.4-0.5-6-0.7-7.7-0.6l-0.4 0.1-10.7-2.8c-1.3-0.4-2.1-1.7-1.7-3.1zm-183.6 4.6c0.6-1.2 2.1-1.7 3.3-1.1 4.8 2.4 12.2 3.6 20.2 4.1 8 0.5 16.2 0.3 22.3-0.2 1.4-0.1 2.6 0.9 2.7 2.3 0.1 1.3-0.9 2.5-2.3 2.6-6.3 0.6-14.8 0.8-23 0.3-8.1-0.5-16.4-1.8-22.1-4.6-1.2-0.7-1.7-2.1-1.1-3.4zm5.6 16.9c0.8-1.1 2.3-1.4 3.4-0.6 4.2 2.9 9.2 4 14.7 4.2 5.4 0.3 10.9-0.5 15.8-1.1 1.3-0.2 2.6 0.7 2.7 2.1 0.2 1.4-0.7 2.6-2.1 2.8-4.8 0.6-10.7 1.4-16.6 1.2-6-0.2-12.1-1.5-17.3-5.2-1.1-0.7-1.4-2.3-0.6-3.4zm196.8 3.3c0.3-1.4 1.7-2.2 3-1.8l8.3 2.2 33.8 9.9c1.4 0.4 2.1 1.8 1.7 3.1-0.4 1.3-1.7 2.1-3.1 1.7l-33.7-9.9-8.3-2.2c-1.3-0.4-2.1-1.7-1.7-3z"/><path fill-rule="evenodd" class="z" d="m2764 1257.6c0.5 1.2-0.1 2.7-1.3 3.2-5.8 2.5-16.7 4.7-27 6.4-10.4 1.8-20.5 3-24.7 3.5-1.3 0.1-2.6-0.9-2.7-2.2-0.2-1.4 0.8-2.6 2.2-2.7 4.1-0.5 14.1-1.7 24.4-3.5 10.3-1.7 20.7-3.8 25.9-6 1.2-0.6 2.7 0 3.2 1.3z"/><path fill-rule="evenodd" class="z" d="m2593.5 1256l-33.1-97.8 4.7-1.6 33.1 97.8zm79.9 1328.7l-153.9-10.7 0.4-5 153.8 10.8zm-348-6.6v4.9h-153v-4.9z"/><path fill-rule="evenodd" class="y" d="m2401.9 1685.1c1.8-0.2 3.4 1 3.7 2.8 3.3 24.6 6.6 53 9.9 84.4 0.2 1.8-1.1 3.5-2.9 3.7-1.8 0.1-3.5-1.2-3.7-3-3.3-31.3-6.5-59.7-9.9-84.2-0.2-1.8 1-3.5 2.9-3.7z"/><path fill-rule="evenodd" class="y" d="m2622.6 1531.1c1 1.5 0.5 3.6-1.1 4.5-57.4 36.1-144.3 45.2-222.8 40.9-39.4-2.1-76.8-7.7-107.6-15-30.7-7.3-55.2-16.4-68.5-26-1.5-1-1.8-3.1-0.8-4.6 1.1-1.5 3.1-1.8 4.6-0.7 12.2 8.7 35.7 17.7 66.3 24.9 30.4 7.2 67.4 12.7 106.3 14.8 78.1 4.3 163.3-4.9 219-39.9 1.6-0.9 3.6-0.5 4.6 1.1z"/><path fill-rule="evenodd" class="y" d="m2545 1608.9c1.8-0.2 3.4 1.1 3.6 2.9 1.7 14.7 8.2 26.7 18.9 35 10.8 8.4 26.1 13.4 45.7 13.4 1.8 0 3.3 1.5 3.3 3.3 0 1.8-1.5 3.3-3.3 3.3-20.7 0-37.5-5.2-49.7-14.8-12.3-9.5-19.6-23.2-21.4-39.4-0.2-1.8 1.1-3.4 2.9-3.7z"/><path fill-rule="evenodd" class="y" d="m2286.1 1608.9c-1.8-0.2-3.5 1.1-3.7 2.9-1.7 14.7-8.2 26.7-18.9 35-10.7 8.4-26 13.4-45.6 13.4-1.8 0-3.3 1.5-3.3 3.3 0 1.8 1.5 3.3 3.3 3.3 20.7 0 37.5-5.2 49.7-14.8 12.2-9.5 19.5-23.2 21.4-39.4 0.2-1.8-1.1-3.4-2.9-3.7z"/><path class="k" d="m2513.1 2568.7l20.7 142.6c4.8 48.9-15.5 64.9-44.1 69.2-44.5 6.6-70.2 30.5-80.8 57.3h171.9l8.8-9.1c2.1-2.1 5.5-1.9 7.3 0.4l6.6 8.7h79.1l-5.4-269.9c-0.1-2.6-2.2-4.7-4.8-4.7h-154.5c-3 0-5.2 2.6-4.8 5.5z"/><path class="A" d="m2411.7 2859.3h145.3c2 0 3.9-0.8 5.2-2.2l18.6-19.3h-171.9q-2.6 6.7-4 13.6c-0.8 4.2 2.5 7.9 6.8 7.9z"/><path class="A" d="m2623.3 2859.3h52.4c4 0 7.3-3.3 7.2-7.3l-0.3-14.2h-79.1l14.1 18.6c1.4 1.8 3.5 2.9 5.7 2.9z"/><path fill-rule="evenodd" class="q" d="m2677.9 2610.9v5h-157.1v-5z"/><path class="k" d="m2167.5 2568.7l4.1 142.6c4.8 48.9-15.5 64.9-44.2 69.2-44.4 6.6-70.1 30.5-80.7 57.3h171.9l8.8-9.1c2.1-2.1 5.5-1.9 7.3 0.4l6.6 8.7h79.1l11.1-269.9c0-2.6-2.2-4.7-4.8-4.7h-154.5c-2.9 0-5.2 2.6-4.7 5.5z"/><path class="A" d="m2049.4 2859.3h145.4c2 0 3.8-0.8 5.2-2.2l18.6-19.3h-171.9q-2.6 6.7-4 13.6c-0.8 4.2 2.5 7.9 6.7 7.9z"/><path class="A" d="m2261.1 2859.3h52.4c4 0 7.3-3.3 7.2-7.3l-0.3-14.2h-79.1l14.1 18.6c1.4 1.8 3.5 2.9 5.7 2.9z"/><path fill-rule="evenodd" class="q" d="m2327.3 2610.9v5h-157.1v-5z"/><path class="c" d="m2219.7 1227.9c3.4 13.4-2.2 26.3-12.4 28.9-10.2 2.6-21.2-6.1-24.6-19.5-3.4-13.4 2.1-26.3 12.3-28.9 10.3-2.6 21.3 6.2 24.7 19.5z"/><path class="i" d="m919.4 2857.9c-97.4 46.7-210.9-19.5-255.5-58.5 321.2-34.2 960.8-87.1 949-24.6-14.8 78.1-316.8 83.1-404.1 106.3-87.3 23.2-167.6-81.7-289.4-23.2z"/><path fill-rule="evenodd" class="B" d="m842.8 2713.5c-5.1 18.9-12.3 37.7-21.5 47.8 1.2-1.6 1.7-6.8-3.6-17.5-17.7 21.5-68.8 64.5-131.6 64.5 38.7 2.3 107.7-8.8 165.8-18.1 24.2-3.9 46.5-7.5 63.8-9.7 31.3-3.9 64.3-3.6 94-3.4 26.1 0.2 49.8 0.4 67.7-2.3 38.4-5.7 89.9-22.9 116.8-47.4 21.6-19.6 37.9-56.1 43.3-71.8 11.2 3.9 13.4 12.5 13.1 16.3 1.9-21.8-5.5-47.4-10.6-64.9-2.1-7.2-3.8-13.1-4.3-16.8-0.5 19.1-6 62.1-24.3 81.7 1.6-12 3.9-37.9 0-45.8-10.3 19.1-41.3 65.1-82.5 96.4 7.1-16.9 21.2-53.9 21.2-66.9-27.3 22-105.7 68.7-200.9 79.2-95.2 10.4-73.4-25.1-50.7-44.1z"/><path class="C" d="m832.4 2491.4c-36-64.1-95.1-86-120.1-89-32.9-1.4-60.6 17.7-78.4 30-8.3 5.7-14.5 10-18 10-11.1 0-38.9 10.9-51.5 16.3 4.9 0.6 10.2 0.5 15.2 0.5 7.7 0 14.8 0 18.3 2 7.4 4.1-46.5 66.1-53.9 73.5-5.9 5.9-25.3 20.4-34.3 26.9l44.1-6.5c-9.3 20.9-25.6 74.6-17.1 121.7 8.4 47 35.1 88.7 47.3 103.7v-23.7c13.4 18.2 44.1 48 102.1 51.5 62.8 0 113.9-43 131.6-64.5 5.3 10.7 4.8 15.9 3.6 17.5 9.2-10.1 16.4-28.9 21.5-47.8 4.7-16.9 7.8-34 9.2-44.9 3.9 3.3 12.5 19.9 16.3 27.8 3-41.7 0-141-35.9-205z"/><path class="B" d="m910.8 2402.4c-36 5.2-147.3 2.1-198.5 0 25 3 84.1 24.9 120.1 89 35.9 64 38.9 163.3 35.9 205-3.8-7.9-12.4-24.5-16.3-27.8-1.4 10.9-4.5 28-9.2 44.9l55.7-22.8c-22.7 19-44.5 54.5 50.7 44.1 95.2-10.5 173.6-57.2 200.9-79.2 0 13-14.1 50-21.2 66.9 41.2-31.3 72.2-77.3 82.5-96.4 3.9 7.9 1.6 33.8 0 45.8 18.3-19.6 23.8-62.6 24.3-81.7-0.4-3 0.1-4.6 1.8-4.1 7.2 2 28.6 3.6 38.4 4.1-8.5-5.2-22.6-28.3-28.6-39.2l52.3-12.3c-15.5-1.9-47.7-7.3-52.3-13.8-4.5-6.6-26.9-96.4-133.1-122.5l35.9-17.2c-5.4-0.8-21.5-2-42.4 0-26.2 2.5-152 10.6-196.9 17.2z"/><path fill-rule="evenodd" class="D" d="m999.9 2392.2c0.4-0.9 1.4-1.3 2.3-0.9 72 32.7 104.3 105.3 114.2 180.7 9.9 75.5-2.5 154.4-20.6 200.5-0.4 0.9-1.4 1.3-2.3 1-0.9-0.4-1.4-1.4-1-2.3 17.9-45.5 30.3-123.8 20.4-198.7-9.8-74.9-41.8-146.1-112.2-178-0.8-0.4-1.2-1.4-0.8-2.3zm-123.3 13.1c0.3-0.9 1.3-1.4 2.2-1.1 32.9 10.4 56.2 37.5 71.5 72.3 15.3 34.9 22.7 77.7 23.7 120.2 1 42.5-4.4 84.7-14.8 118.3-5.2 16.8-11.7 31.6-19.3 43.1-7.6 11.5-16.4 20-26.3 24.2-0.9 0.3-1.9-0.1-2.3-1-0.4-0.9 0.1-1.9 1-2.3 9-3.7 17.3-11.6 24.7-22.8 7.3-11.2 13.7-25.6 18.9-42.2 10.3-33.2 15.6-75.1 14.6-117.2-1-42.2-8.3-84.5-23.4-118.9-15.1-34.3-37.8-60.4-69.4-70.4-0.9-0.3-1.4-1.2-1.1-2.2zm-291.9 281.9c11.5 35.5 36 63.6 77.5 74.1 0.9 0.3 1.5 1.2 1.2 2.2-0.2 0.9-1.2 1.5-2.1 1.2-42.8-10.8-68.2-40-80-76.4-11.8-36.4-10.2-80 1-120 11.1-40 31.8-76.7 58.4-99.1 26.6-22.5 59.3-30.7 93.7-13.3 0.9 0.5 1.2 1.5 0.8 2.4-0.4 0.8-1.5 1.2-2.4 0.8-32.9-16.7-64-9-89.8 12.8-25.9 21.8-46.3 57.8-57.3 97.4-11 39.5-12.6 82.4-1 117.9zm172.5-206.6c0.8-0.6 1.9-0.3 2.4 0.5 20.7 31.1 29.7 79.5 26.7 127.3-3.1 47.9-18.3 95.6-46.5 125.5-0.7 0.7-1.8 0.8-2.5 0.1-0.7-0.7-0.7-1.8 0-2.5 27.4-29.1 42.4-75.9 45.4-123.3 3.1-47.4-5.9-94.9-26-125.2-0.6-0.8-0.3-1.9 0.5-2.4zm-75.9 30.2c0.4 0.8 0 1.9-0.8 2.3-10.3 5.1-19.7 17.1-27.1 33-7.3 15.7-12.4 35-14.1 54-1.8 19-0.2 37.7 5.6 52.4 5.8 14.6 15.9 25.2 31.1 28.5 12.1 2.7 22.8-1 31.6-9.2 8.8-8.4 15.7-21.4 20-37.3 8.4-31.9 5.9-75.1-12.7-114-0.4-0.9-0.1-1.9 0.8-2.4 0.9-0.4 1.9 0 2.4 0.9 18.9 39.7 21.5 83.6 12.9 116.4-4.4 16.3-11.5 30-21 38.9-9.5 9-21.4 13.1-34.8 10.2-16.6-3.7-27.4-15.3-33.6-30.7-6.1-15.4-7.6-34.7-5.8-54 1.8-19.4 6.9-39.1 14.4-55.2 7.5-16.1 17.4-29 28.7-34.6 0.9-0.5 1.9-0.1 2.4 0.8z"/><path fill-rule="evenodd" class="B" d="m1029.2 2363.6c-5.2 18.9-12.4 37.7-21.6 47.8 1.2-1.7 1.8-6.8-3.6-17.6-17.7 21.5-68.8 64.6-131.5 64.6 38.6 2.3 107.7-8.8 165.7-18.2 24.2-3.9 46.5-7.4 63.8-9.6 31.4-3.9 64.3-3.7 94.1-3.4 26.1 0.2 49.7 0.3 67.7-2.3 38.4-5.7 89.8-22.9 116.8-47.4 21.6-19.6 37.8-56.1 43.3-71.9 11.1 3.9 13.3 12.5 13.1 16.4 1.8-21.9-5.6-47.4-10.6-64.9-2.1-7.3-3.8-13.1-4.3-16.8-0.5 19-6 62.1-24.3 81.7 1.6-12 3.9-37.9 0-45.8-10.4 19.1-41.4 65-82.6 96.4 7.1-16.9 21.3-53.9 21.3-67-27.3 22.1-105.8 68.8-201 79.2-95.1 10.5-73.4-25-50.6-44.1z"/><path class="C" d="m1018.7 2141.5c-35.9-64.1-95-86.1-120.1-89.1-32.8-1.4-60.5 17.8-78.4 30.1-8.3 5.7-14.4 9.9-18 9.9-11.1 0-38.9 10.9-51.4 16.4 4.8 0.5 10.1 0.5 15.2 0.5 7.7 0 14.7 0 18.3 1.9 7.3 4.1-46.6 66.2-53.9 73.5-5.9 5.9-25.4 20.5-34.4 27l44.2-6.5c-9.3 20.9-25.7 74.6-17.2 121.7 8.5 47 35.1 88.7 47.4 103.7v-23.7c13.3 18.2 44.1 48 102.1 51.5 62.7 0 113.8-43.1 131.5-64.6 5.4 10.8 4.8 15.9 3.6 17.6 9.2-10.1 16.4-28.9 21.6-47.8 4.7-17 7.7-34 9.1-44.9 3.9 3.3 12.5 19.9 16.4 27.8 3-41.7 0-141-36-205z"/><path class="E" d="m1097.1 2052.4c-35.9 5.2-147.3 2.2-198.5 0 25.1 3 84.2 25 120.1 89.1 36 64 39 163.3 36 205-3.9-7.9-12.5-24.5-16.4-27.8-1.4 10.9-4.4 27.9-9.1 44.9l55.7-22.9c-22.8 19.1-44.5 54.6 50.6 44.1 95.2-10.4 173.7-57.1 201-79.2 0 13.1-14.2 50.1-21.3 67 41.2-31.4 72.2-77.3 82.6-96.4 3.9 7.9 1.6 33.8 0 45.8 18.3-19.6 23.8-62.7 24.3-81.7-0.4-3.1 0-4.6 1.8-4.1 7.2 2 28.6 3.5 38.4 4.1-8.5-5.2-22.6-28.3-28.6-39.2l52.3-12.3c-15.5-1.9-47.7-7.3-52.3-13.9-4.6-6.5-27-96.3-133.2-122.5l36-17.1c-5.5-0.8-21.6-2-42.5 0-26.1 2.4-151.9 10.6-196.9 17.1z"/><path fill-rule="evenodd" class="D" d="m1186.2 2042.3c0.4-0.9 1.5-1.3 2.3-0.9 72 32.6 104.4 105.2 114.3 180.7 9.9 75.5-2.6 154.4-20.7 200.5-0.3 0.9-1.4 1.3-2.3 0.9-0.9-0.3-1.3-1.3-1-2.2 17.9-45.5 30.3-123.8 20.5-198.7-9.8-75-41.8-146.1-112.2-178-0.9-0.4-1.3-1.5-0.9-2.3zm-123.3 13.1c0.3-0.9 1.3-1.4 2.2-1.1 32.9 10.4 56.2 37.5 71.5 72.3 15.4 34.8 22.8 77.7 23.8 120.2 1 42.5-4.4 84.7-14.8 118.3-5.2 16.8-11.7 31.5-19.3 43.1-7.6 11.5-16.4 20-26.3 24.1-0.9 0.4-2 0-2.3-0.9-0.4-0.9 0-1.9 0.9-2.3 9-3.8 17.3-11.7 24.7-22.8 7.4-11.2 13.8-25.6 18.9-42.2 10.3-33.3 15.7-75.1 14.7-117.2-1-42.2-8.4-84.6-23.5-118.9-15.1-34.3-37.7-60.4-69.3-70.4-0.9-0.3-1.5-1.3-1.2-2.2zm-291.9 281.9c11.5 35.5 36.1 63.6 77.5 74.1 0.9 0.2 1.5 1.2 1.3 2.1-0.3 1-1.2 1.6-2.2 1.3-42.7-10.8-68.1-40-79.9-76.4-11.9-36.4-10.2-80 0.9-120 11.2-40 31.9-76.7 58.5-99.1 26.6-22.5 59.2-30.7 93.7-13.3 0.8 0.4 1.2 1.5 0.8 2.3-0.5 0.9-1.5 1.3-2.4 0.8-33-16.6-64.1-8.9-89.9 12.9-25.8 21.8-46.2 57.8-57.3 97.3-11 39.6-12.5 82.4-1 118zm172.5-206.6c0.8-0.6 1.9-0.4 2.5 0.4 20.7 31.2 29.7 79.6 26.6 127.4-3.1 47.8-18.3 95.6-46.4 125.5-0.7 0.7-1.8 0.7-2.5 0.1-0.7-0.7-0.8-1.8-0.1-2.5 27.4-29.1 42.4-75.9 45.5-123.3 3-47.4-5.9-94.9-26.1-125.2-0.5-0.8-0.3-1.9 0.5-2.4zm-75.9 30.1c0.5 0.9 0.1 2-0.8 2.4-10.3 5-19.7 17.1-27 32.9-7.3 15.8-12.4 35-14.2 54.1-1.8 19-0.2 37.6 5.7 52.3 5.8 14.7 15.8 25.3 31 28.6 12.2 2.7 22.9-1 31.6-9.3 8.9-8.3 15.8-21.3 20-37.3 8.4-31.9 6-75-12.7-113.9-0.4-0.9 0-2 0.9-2.4 0.8-0.4 1.9 0 2.3 0.9 19 39.6 21.6 83.6 12.9 116.3-4.3 16.4-11.5 30.1-20.9 39-9.6 9-21.4 13.1-34.8 10.1-16.7-3.6-27.5-15.2-33.6-30.7-6.1-15.3-7.7-34.6-5.9-54 1.8-19.4 7-39 14.5-55.1 7.4-16.1 17.3-29.1 28.7-34.7 0.8-0.4 1.9 0 2.3 0.8z"/><path fill-rule="evenodd" class="B" d="m1219.7 2713.5c-5.2 18.9-12.4 37.7-21.6 47.8 1.2-1.6 1.8-6.8-3.6-17.5-17.7 21.5-68.8 64.5-131.5 64.5 38.6 2.3 107.7-8.8 165.7-18.1 24.2-3.9 46.5-7.5 63.8-9.7 31.4-3.9 64.3-3.6 94.1-3.4 26.1 0.2 49.7 0.4 67.7-2.3 38.4-5.7 89.8-22.9 116.8-47.4 21.6-19.6 37.8-56.1 43.3-71.8 11.1 3.9 13.3 12.5 13.1 16.3 1.8-21.8-5.6-47.4-10.6-64.9-2.1-7.2-3.8-13.1-4.3-16.8-0.5 19.1-6.1 62.1-24.3 81.7 1.6-12 3.9-37.9 0-45.8-10.4 19.1-41.4 65.1-82.6 96.4 7.1-16.9 21.3-53.9 21.3-66.9-27.4 22-105.8 68.7-201 79.2-95.1 10.4-73.4-25.1-50.6-44.1z"/><path class="C" d="m1209.2 2491.4c-35.9-64.1-95-86-120.1-89-32.8-1.4-60.6 17.7-78.4 30-8.3 5.7-14.4 10-18 10-11.1 0-38.9 10.9-51.4 16.3 4.8 0.6 10.1 0.5 15.2 0.5 7.7 0 14.7 0 18.3 2 7.3 4.1-46.6 66.1-53.9 73.5-5.9 5.9-25.4 20.4-34.4 26.9l44.2-6.5c-9.3 20.9-25.7 74.6-17.2 121.7 8.5 47 35.1 88.7 47.4 103.7v-23.7c13.3 18.2 44.1 48 102.1 51.5 62.7 0 113.8-43 131.5-64.5 5.4 10.7 4.8 15.9 3.6 17.5 9.2-10.1 16.4-28.9 21.6-47.8 4.7-16.9 7.7-34 9.1-44.9 3.9 3.3 12.5 19.9 16.4 27.8 3-41.7 0-141-36-205z"/><path class="E" d="m1287.6 2402.4c-35.9 5.2-147.3 2.1-198.5 0 25.1 3 84.2 24.9 120.1 89 36 64 39 163.3 36 205-3.9-7.9-12.5-24.5-16.4-27.8-1.4 10.9-4.4 28-9.1 44.9l55.7-22.8c-22.8 19-44.5 54.5 50.6 44.1 95.2-10.5 173.6-57.2 201-79.2 0 13-14.2 50-21.3 66.9 41.2-31.3 72.2-77.3 82.6-96.4 3.9 7.9 1.6 33.8 0 45.8 18.2-19.6 23.8-62.6 24.3-81.7-0.4-3 0-4.6 1.8-4.1 7.2 2 28.6 3.6 38.4 4.1-8.5-5.2-22.6-28.3-28.6-39.2l52.3-12.3c-15.6-1.9-47.7-7.3-52.3-13.8-4.6-6.6-27-96.4-133.2-122.5l36-17.2c-5.5-0.8-21.6-2-42.5 0-26.1 2.5-151.9 10.6-196.9 17.2z"/><path fill-rule="evenodd" class="D" d="m1376.7 2392.2c0.4-0.9 1.4-1.3 2.3-0.9 72 32.7 104.4 105.3 114.3 180.7 9.9 75.5-2.6 154.4-20.7 200.5-0.4 0.9-1.4 1.3-2.3 1-0.9-0.4-1.3-1.4-1-2.3 17.9-45.5 30.3-123.8 20.5-198.7-9.9-74.9-41.8-146.1-112.2-178-0.9-0.4-1.3-1.4-0.9-2.3zm-123.3 13.1c0.3-0.9 1.3-1.4 2.2-1.1 32.9 10.4 56.2 37.5 71.5 72.3 15.4 34.9 22.8 77.7 23.8 120.2 1 42.5-4.4 84.7-14.8 118.3-5.3 16.8-11.7 31.6-19.3 43.1-7.6 11.5-16.4 20-26.3 24.2-0.9 0.3-2-0.1-2.3-1-0.4-0.9 0-1.9 0.9-2.3 9-3.7 17.3-11.6 24.7-22.8 7.4-11.2 13.8-25.6 18.9-42.2 10.3-33.2 15.7-75.1 14.7-117.2-1-42.2-8.4-84.5-23.5-118.9-15.1-34.3-37.8-60.4-69.3-70.4-0.9-0.3-1.5-1.2-1.2-2.2zm-291.9 281.9c11.5 35.5 36.1 63.6 77.5 74.1 0.9 0.3 1.5 1.2 1.3 2.2-0.3 0.9-1.2 1.5-2.2 1.2-42.7-10.8-68.1-40-79.9-76.4-11.9-36.4-10.2-80 0.9-120 11.2-40 31.9-76.7 58.5-99.1 26.6-22.5 59.2-30.7 93.7-13.3 0.8 0.5 1.2 1.5 0.7 2.4-0.4 0.8-1.4 1.2-2.3 0.8-33-16.7-64.1-9-89.9 12.8-25.8 21.8-46.3 57.8-57.3 97.4-11 39.5-12.6 82.4-1 117.9zm172.5-206.6c0.8-0.6 1.9-0.3 2.5 0.5 20.7 31.1 29.7 79.5 26.6 127.3-3.1 47.9-18.3 95.6-46.4 125.5-0.7 0.7-1.8 0.8-2.5 0.1-0.7-0.7-0.8-1.8-0.1-2.5 27.4-29.1 42.4-75.9 45.5-123.3 3-47.4-5.9-94.9-26.1-125.2-0.5-0.8-0.3-1.9 0.5-2.4zm-75.9 30.2c0.4 0.8 0.1 1.9-0.8 2.3-10.3 5.1-19.7 17.1-27 33-7.3 15.7-12.4 35-14.2 54-1.8 19-0.2 37.7 5.7 52.4 5.8 14.6 15.8 25.2 31 28.5 12.1 2.7 22.8-1 31.6-9.2 8.9-8.4 15.8-21.4 20-37.3 8.4-31.9 5.9-75.1-12.7-114-0.4-0.9 0-1.9 0.9-2.4 0.8-0.4 1.9 0 2.3 0.9 19 39.7 21.6 83.6 12.9 116.4-4.3 16.3-11.5 30-21 38.9-9.5 9-21.3 13.1-34.7 10.2-16.7-3.7-27.5-15.3-33.6-30.7-6.1-15.4-7.7-34.7-5.9-54 1.8-19.4 7-39.1 14.5-55.2 7.4-16.1 17.3-29 28.7-34.6 0.8-0.5 1.9-0.1 2.3 0.8z"/><path class="F" d="m2784.3 2809.4c24.3 2.1 27.2 0.9 29.5 2.5 1.9 1.8 5.8 5.2 10.8 7.2 2.5 1.1 5.2 1.3 8 1.4 22.5 0.5 42.1 5.6 70.5 1.9 1.7-0.2 2.2-2.1 0.8-2.9-2.3-1.3-4.9-2.3-7.3-3.2-1.5-0.6-1.6-2.2 0-2.5 6.1-0.8 17.9 0.7 29.1 0.3 1.1 0 1.7-1.3 1-2.1l-0.4-0.6c-0.4-0.5 0.1-1.3 0.7-1.2 2 0.3 4.4 0.3 6.9 0.3 1 0 1.7-1 1.2-1.8-4.7-7.6-15.9-14.8-25.6-17.9 10.2 10.1-0.5 11.8-10.4 11.2-3.8-0.3-7.2-2.3-10.3-4.7-3.6-2.7-8.6-5.1-12-1.7-1.6 1.5-5.6 0.8-8.3-0.1-1-0.4-2.1-0.3-3 0.2-3.2 1.6-7.1 3.2-10.2 4.4-2.1 0.8-4.4-0.2-5.8-2-5.4-7.1-8.4-1.4-13.5-3.2-9.6-2-32 9.2-33.4 6.8-1.1-1.9 3.8-4.9 6.4-6.1-13.8 0.3-15.9 7.6-25 12.4-0.6 0.3-0.5 1.4 0.3 1.4z"/><path class="G" d="m2888 2779.6c-1.1-0.3-7.3-1.1-11.2-1.4-0.6 0-1.2-0.3-1.6-0.8-2.6-3.7-5.2-6.1-7.3-7.5-2.6-1.9-6-2.4-9.2-2-7.5 1-18.6 6.7-24.8 16.7-0.4 0.7-1.2 1.1-1.9 1.1-12.2-0.3-16.1 5.3-21.1 9.2-0.5 0.5-1.2 0.7-1.9 0.7-2.6 1.2-7.5 4.2-6.4 6.1 1.4 2.4 23.8-8.8 33.4-6.8 5.1 1.8 8.1-3.9 13.5 3.2 1.4 1.8 3.7 2.8 5.8 2 3.1-1.2 7-2.8 10.2-4.4 0.9-0.5 2-0.6 3-0.2 2.7 0.9 6.7 1.6 8.3 0.1 3.4-3.4 8.4-1 12 1.7 3.1 2.4 6.5 4.4 10.3 4.7 9.9 0.6 20.6-1.1 10.4-11.2q-1.2-0.4-2.4-0.7c-12.9-3.2-15-9.5-19.1-10.5z"/><path class="F" d="m2803.6 2821.4c-3.7 0-6.8-1.2-6.8-2.7 0-1.5 3.1-2.7 6.8-2.7 3.8 0 6.8 1.2 6.8 2.7 0 1.5-3 2.7-6.8 2.7z"/><path class="F" d="m2925.5 2826.9c-3.7 0-6.8-1.2-6.8-2.7 0-1.5 3.1-2.8 6.8-2.8 3.8 0 6.8 1.3 6.8 2.8 0 1.5-3 2.7-6.8 2.7z"/><path class="F" d="m1587.8 2973.3c35.3 3 39.6 1.2 42.9 3.6 2.8 2.7 8.4 7.5 15.6 10.5 3.7 1.5 7.7 1.8 11.6 1.9 32.7 0.8 61.3 8.3 102.5 2.8 2.4-0.3 3.2-3 1.1-4.2-3.3-1.8-7.1-3.3-10.7-4.7-2.1-0.8-2.2-3.2 0.1-3.5 8.9-1.3 26 1 42.3 0.4 1.6-0.1 2.4-1.9 1.5-3.1l-0.6-0.8c-0.6-0.8 0.1-1.9 1-1.8 2.9 0.4 6.4 0.5 10 0.5 1.5 0 2.4-1.5 1.7-2.7-6.8-11-23.1-21.5-37.1-25.9 14.7 14.7-0.7 17.1-15.2 16.2-5.5-0.4-10.5-3.4-14.9-6.8-5.3-3.9-12.5-7.4-17.4-2.5-2.3 2.3-8.1 1.1-12.1-0.2-1.4-0.4-3-0.3-4.3 0.3-4.7 2.5-10.4 4.8-14.9 6.4-3.1 1.2-6.4-0.2-8.4-2.9-7.8-10.3-12.2-2-19.7-4.6-13.8-3-46.4 13.3-48.4 9.9-1.6-2.8 5.5-7.1 9.2-8.9-19.9 0.5-23.1 11.1-36.2 18-0.9 0.5-0.7 2 0.4 2.1z"/><path class="G" d="m1738.5 2929.9c-1.7-0.4-10.7-1.6-16.3-1.9-0.9 0-1.8-0.5-2.4-1.3-3.8-5.3-7.5-8.7-10.5-10.8-3.9-2.7-8.8-3.5-13.4-2.9-11 1.5-27.1 9.7-36.1 24.3-0.6 0.9-1.6 1.5-2.8 1.5-17.7-0.3-23.3 7.8-30.5 13.4-0.8 0.7-1.8 1-2.9 1-3.7 1.8-10.8 6.1-9.2 8.9 2 3.4 34.6-12.9 48.4-9.9 7.5 2.6 11.9-5.7 19.7 4.6 2 2.7 5.3 4.1 8.4 2.9 4.5-1.6 10.2-3.9 14.9-6.4 1.3-0.6 2.9-0.7 4.3-0.3 4 1.3 9.8 2.5 12.1 0.2 4.9-4.9 12.1-1.4 17.4 2.5 4.4 3.4 9.4 6.4 14.9 6.8 14.5 0.9 29.9-1.5 15.2-16.2q-1.8-0.6-3.5-1c-18.8-4.7-21.8-13.9-27.7-15.4z"/><path class="F" d="m1615.9 2990.8c-5.5 0-9.9-1.8-9.9-4 0-2.2 4.4-4 9.9-4 5.4 0 9.9 1.8 9.9 4 0 2.2-4.5 4-9.9 4z"/><path class="F" d="m1792.9 2998.7c-5.4 0-9.9-1.8-9.9-4 0-2.2 4.5-3.9 9.9-3.9 5.5 0 9.9 1.7 9.9 3.9 0 2.2-4.4 4-9.9 4z"/></svg>