<svg width="50" height="50" viewBox="0 0 50 50" fill="none" xmlns="http://www.w3.org/2000/svg">
<path fill-rule="evenodd" clip-rule="evenodd" d="M48.8719 17.9688C49.1766 18.7536 48.9238 19.622 48.2625 20.1817L44.1331 23.7196C44.2433 24.4658 44.2952 25.2313 44.2952 26.0032C44.2952 26.7751 44.2433 27.5406 44.1331 28.2868L48.2625 31.8248C48.9238 32.3844 49.1766 33.2593 48.8719 34.0376C48.4505 35.1054 47.9514 36.1347 47.3679 37.1189L46.9206 37.8458C46.2918 38.8364 45.5852 39.7691 44.8138 40.6504C44.2498 41.3001 43.3163 41.5124 42.4801 41.2615L37.1644 39.6726C35.8873 40.5989 34.4806 41.3709 32.9702 41.9562L31.7839 47.0831C31.5894 47.9064 30.9217 48.5497 30.0465 48.6848C28.7306 48.8906 27.3757 49 25.9949 49C24.6141 49 23.2593 48.8906 21.9433 48.6848C21.0682 48.5497 20.4005 47.9064 20.2125 47.0831L19.0197 41.9562C17.5093 41.3709 16.1025 40.5989 14.8255 39.6726L9.52274 41.2744C8.68649 41.5252 7.753 41.3001 7.18902 40.6633C6.4176 39.782 5.711 38.8428 5.08219 37.8586L4.63489 37.1317C4.05146 36.1411 3.54582 35.1183 3.13094 34.0505C2.81978 33.2657 3.07908 32.3909 3.7403 31.8376L7.86321 28.2997C7.75949 27.5406 7.70114 26.7751 7.70114 26.0032C7.70114 25.2313 7.75949 24.4658 7.86321 23.7196L3.7403 20.1817C3.07908 19.622 2.81978 18.7536 3.13094 17.9688C3.54582 16.901 4.05146 15.8782 4.63489 14.8876L5.08219 14.1607C5.711 13.1765 6.4176 12.2373 7.18902 11.356C7.753 10.7128 8.68649 10.4941 9.52274 10.7449L14.832 12.3402C16.109 11.4139 17.5222 10.642 19.0262 10.0566L20.219 4.92337C20.407 4.10642 21.0747 3.45672 21.9563 3.32807C23.2723 3.10936 24.6206 3 26.0079 3C27.3887 3 28.7435 3.10935 30.0595 3.3152C30.9346 3.45029 31.6023 4.09999 31.7903 4.91693L32.9831 10.0438C34.4871 10.6291 35.9003 11.4011 37.1774 12.3274L42.4866 10.7385C43.3228 10.4876 44.2563 10.7128 44.8203 11.3496C45.5917 12.2309 46.2983 13.1636 46.9271 14.1542L47.3744 14.8811C47.9579 15.8718 48.4635 16.8946 48.8719 17.9688ZM26.0079 33.1949C28.0305 33.1949 29.9687 32.4359 31.3949 31.085C32.8276 29.7406 33.6314 27.9137 33.6314 26.0032C33.6314 24.0991 32.8276 22.2723 31.3949 20.9214C29.9687 19.577 28.0305 18.8179 26.0079 18.8179C23.9853 18.8179 22.0406 19.577 20.6144 20.9214C19.1818 22.2723 18.3779 24.0991 18.3779 26.0032C18.3779 27.9137 19.1818 29.7406 20.6144 31.085C22.0406 32.4359 23.9853 33.1949 26.0079 33.1949Z" fill="#FF9103" stroke="white" stroke-miterlimit="100"/>
<circle cx="26" cy="26" r="16" fill="white"/>
<path d="M27.705 32.4117C27.7089 32.4467 27.7112 32.4836 27.7118 32.522L26.2014 31.1284L26.0169 30.9582L25.8474 31.1433L24.1605 32.9864L23.9911 33.1716L24.1769 33.3403L25.7193 34.7409C25.674 34.7458 25.6291 34.7483 25.5844 34.7483V34.7482L25.576 34.7485C24.9869 34.7684 24.4943 34.5924 24.0679 34.2059C23.6367 33.7933 23.4126 33.3267 23.3921 32.7472C23.3924 32.5341 23.4133 32.2988 23.4589 32.1032L23.4912 31.964L23.3878 31.8655L22.9331 31.4323L22.9331 31.4323L22.9294 31.4289L20.2084 28.9395L20.0231 28.7699L19.8544 28.956L15.2483 34.0373L15.2402 34.0462L15.233 34.0559C14.9946 34.3763 14.6321 34.5867 14.2234 34.5867C13.555 34.5867 13.0139 34.0453 13.0139 33.3755C13.0139 33.0094 13.155 32.685 13.4242 32.4575L13.4339 32.4493L13.4428 32.4401L18.2249 27.476L18.4026 27.2915L18.2139 27.1183L15.3239 24.4674L15.2023 24.3559L15.052 24.4238C14.8573 24.5118 14.6358 24.5558 14.4509 24.5558V24.5557L14.4424 24.556C13.8523 24.5759 13.359 24.3992 12.9321 24.0114C12.5033 23.6217 12.2781 23.1558 12.2584 22.5724L12.258 22.5628L12.257 22.5532C12.2529 22.5166 12.2507 22.4779 12.2501 22.4376L13.7842 23.8306L13.9689 23.9984L14.137 23.8139L15.8094 21.9781L15.978 21.7929L15.7926 21.6246L14.2499 20.2238C14.2957 20.2191 14.341 20.2166 14.3851 20.2166V20.2167L14.3935 20.2164C14.9836 20.1965 15.4769 20.3732 15.9039 20.7611L15.9039 20.7611L15.9054 20.7625C16.3297 21.1415 16.5577 21.6346 16.5776 22.2219L16.5778 22.2302L16.5787 22.2384C16.5973 22.425 16.5793 22.6097 16.5326 22.8103L16.4994 22.9526L16.607 23.0513L19.5848 25.7831L19.7684 25.9515L19.9374 25.7685L22.1157 23.4114L22.2894 23.2234L22.0974 23.0542L19.028 20.3479L21.6541 17.3532L29.6476 24.3953L27.0216 27.3898L23.8652 24.6038L23.6737 24.4348L23.5088 24.6298L21.4038 27.1192L21.2487 27.3027L21.4259 27.465L24.6971 30.461L24.8056 30.5603L24.9451 30.5138C25.1539 30.4441 25.3374 30.4018 25.5188 30.4018V30.4019L25.5272 30.4017C26.1173 30.3817 26.6107 30.5584 27.0376 30.9463L27.0391 30.9476C27.4653 31.3286 27.6904 31.7925 27.7036 32.3896L27.7038 32.4007L27.705 32.4117Z" fill="black" stroke="black" stroke-width="0.5"/>
<circle cx="32.5" cy="22.5" r="7" fill="black" stroke="white"/>
<line x1="32.4992" y1="23" x2="32.4992" y2="17" stroke="white"/>
<line x1="38.0099" y1="23.2499" x2="32.0115" y2="23.3879" stroke="white"/>
</svg>
