<svg version="1.2" xmlns="http://www.w3.org/2000/svg" viewBox="0 0 4000 2416" width="4000" height="2416"><defs><linearGradient id="P" gradientUnits="userSpaceOnUse"/><linearGradient id="g1" x2="1" href="#P" gradientTransform="matrix(-8.026,-907.026,1083.452,-9.587,3154.843,2024.184)"><stop stop-color="#3c3d94"/><stop offset="1" stop-color="#1a1b65"/></linearGradient><linearGradient id="g2" x2="1" href="#P" gradientTransform="matrix(-8.027,-907.024,1083.456,-9.589,3154.84,2024.187)"><stop stop-color="#3c3d94"/><stop offset="1" stop-color="#1a1b65"/></linearGradient><linearGradient id="g3" x2="1" href="#P" gradientTransform="matrix(-9.619,-1087.027,1232.991,-10.911,703.831,2022.862)"><stop stop-color="#be7d39"/><stop offset="1" stop-color="#12147c"/></linearGradient><linearGradient id="g4" x2="1" href="#P" gradientTransform="matrix(-1235.783,86.414,-77.3,-1105.444,1316.91,1436.146)"><stop stop-color="#393cbe"/><stop offset="1" stop-color="#12147c"/></linearGradient><linearGradient id="g5" x2="1" href="#P" gradientTransform="matrix(-577.109,-1011.399,807.314,-460.657,2664.438,1931.619)"><stop stop-color="#1c1d4a"/><stop offset="1" stop-color="#252654"/></linearGradient><linearGradient id="g6" x2="1" href="#P" gradientTransform="matrix(-495.086,-999.228,751.87,-372.528,2618.747,1919.764)"><stop stop-color="#f6e0c9"/><stop offset=".1" stop-color="#f8e6d3"/><stop offset=".31" stop-color="#faede0"/><stop offset=".56" stop-color="#e8fceb"/><stop offset="1" stop-color="#eafced"/></linearGradient><linearGradient id="g7" x2="1" href="#P" gradientTransform="matrix(-495.094,-999.245,751.889,-372.537,2618.751,1919.772)"><stop stop-color="#f6e0c9"/><stop offset=".1" stop-color="#f8e6d3"/><stop offset=".31" stop-color="#faede0"/><stop offset=".56" stop-color="#e8fceb"/><stop offset="1" stop-color="#eafced"/></linearGradient><linearGradient id="g8" x2="1" href="#P" gradientTransform="matrix(-1696.946,-3316.094,4806.871,-2459.822,3742.722,3763.244)"><stop stop-color="#1c1d4a"/><stop offset="1" stop-color="#252654"/></linearGradient><linearGradient id="g9" x2="1" href="#P" gradientTransform="matrix(-710.216,-1387.872,1240.84,-634.975,2991.842,2073.397)"><stop stop-color="#1c1d4a"/><stop offset="1" stop-color="#252654"/></linearGradient><linearGradient id="g10" x2="1" href="#P" gradientTransform="matrix(-710.216,-1387.872,1240.84,-634.975,2894.458,2073.397)"><stop stop-color="#1c1d4a"/><stop offset="1" stop-color="#252654"/></linearGradient><linearGradient id="g11" x2="1" href="#P" gradientTransform="matrix(-560.196,-1009.827,583.214,-323.535,2984.915,1699.019)"><stop stop-color="#1c1d4a"/><stop offset="1" stop-color="#252654"/></linearGradient><linearGradient id="g12" x2="1" href="#P" gradientTransform="matrix(-560.195,-1009.825,605.707,-336.013,2926.863,1738.077)"><stop stop-color="#1c1d4a"/><stop offset="1" stop-color="#252654"/></linearGradient><radialGradient id="g13" cx="0" cy="0" r="1" href="#P" gradientTransform="matrix(385.958,0,0,385.958,1652.681,1190.489)"><stop stop-color="#3c3d94"/><stop offset=".52" stop-color="#3b3c92"/><stop offset=".71" stop-color="#36378b"/><stop offset=".85" stop-color="#2d2e80"/><stop offset=".95" stop-color="#21226f"/><stop offset="1" stop-color="#1a1b65"/></radialGradient><radialGradient id="g14" cx="0" cy="0" r="1" href="#P" gradientTransform="matrix(385.958,0,0,385.958,1652.681,1190.489)"><stop stop-color="#3c3d94"/><stop offset=".52" stop-color="#3b3c92"/><stop offset=".71" stop-color="#36378b"/><stop offset=".85" stop-color="#2d2e80"/><stop offset=".95" stop-color="#21226f"/><stop offset="1" stop-color="#1a1b65"/></radialGradient><radialGradient id="g15" cx="0" cy="0" r="1" href="#P" gradientTransform="matrix(423.328,0,0,423.328,1647.76,1178.555)"><stop stop-color="#3c3d94"/><stop offset=".52" stop-color="#3b3c92"/><stop offset=".71" stop-color="#36378b"/><stop offset=".85" stop-color="#2d2e80"/><stop offset=".95" stop-color="#21226f"/><stop offset="1" stop-color="#1a1b65"/></radialGradient><radialGradient id="g16" cx="0" cy="0" r="1" href="#P" gradientTransform="matrix(503.99,0,0,503.99,1647.76,1203.918)"><stop stop-color="#3c3d94"/><stop offset=".52" stop-color="#3b3c92"/><stop offset=".71" stop-color="#36378b"/><stop offset=".85" stop-color="#2d2e80"/><stop offset=".95" stop-color="#21226f"/><stop offset="1" stop-color="#1a1b65"/></radialGradient><radialGradient id="g17" cx="0" cy="0" r="1" href="#P" gradientTransform="matrix(503.99,0,0,503.99,1647.76,1203.916)"><stop stop-color="#3c3d94"/><stop offset=".52" stop-color="#3b3c92"/><stop offset=".71" stop-color="#36378b"/><stop offset=".85" stop-color="#2d2e80"/><stop offset=".95" stop-color="#21226f"/><stop offset="1" stop-color="#1a1b65"/></radialGradient><linearGradient id="g18" x2="1" href="#P" gradientTransform="matrix(-26.148,407.166,-171.106,-10.988,269.315,1642.334)"><stop stop-color="#1c1d4a"/><stop offset="1" stop-color="#252654"/></linearGradient><linearGradient id="g19" x2="1" href="#P" gradientTransform="matrix(-45.449,-132.61,132.867,-45.537,327.398,1639.268)"><stop stop-color="#12147c"/><stop offset="1" stop-color="#be7d39"/></linearGradient><linearGradient id="g20" x2="1" href="#P" gradientTransform="matrix(-32.375,-110.198,81.292,-23.883,310.006,1544.342)"><stop stop-color="#1c1d4a"/><stop offset="1" stop-color="#252654"/></linearGradient><linearGradient id="g21" x2="1" href="#P" gradientTransform="matrix(31.445,326.143,-111.903,10.789,661.324,1689.763)"><stop stop-color="#1c1d4a"/><stop offset="1" stop-color="#252654"/></linearGradient><linearGradient id="g22" x2="1" href="#P" gradientTransform="matrix(-61.096,-175.203,151.54,-52.845,719.21,1713.522)"><stop stop-color="#eb851a"/><stop offset="1" stop-color="#fa9c39"/></linearGradient><linearGradient id="g23" x2="1" href="#P" gradientTransform="matrix(-43.801,-80.188,115.617,-63.154,702.824,1514.012)"><stop stop-color="#12147c"/><stop offset="1" stop-color="#be7d39"/></linearGradient><linearGradient id="g24" x2="1" href="#P" gradientTransform="matrix(-43.8,-80.188,43.886,-23.971,712.016,1507.921)"><stop stop-color="#12147c"/><stop offset="1" stop-color="#be7d39"/></linearGradient><linearGradient id="g25" x2="1" href="#P" gradientTransform="matrix(90.722,-112.268,64.329,51.983,2153.912,1577.827)"><stop stop-color="#1c1d4a"/><stop offset=".46" stop-color="#222350"/><stop offset="1" stop-color="#252654"/></linearGradient><linearGradient id="g26" x2="1" href="#P" gradientTransform="matrix(175.465,292.442,-85.598,51.358,2227.028,1690.674)"><stop stop-color="#12147c"/><stop offset="1" stop-color="#be7d39"/></linearGradient><linearGradient id="g27" x2="1" href="#P" gradientTransform="matrix(-54.541,-103.864,57.656,-30.277,2259.127,1630.412)"><stop stop-color="#eb851a"/><stop offset=".33" stop-color="#fe9526"/><stop offset=".67" stop-color="#f89a36"/><stop offset="1" stop-color="#fa9c39"/></linearGradient><linearGradient id="g28" x2="1" href="#P" gradientTransform="matrix(10.012,323.723,-103.249,3.193,2909.848,1689.147)"><stop stop-color="#1c1d4a"/><stop offset=".07" stop-color="#1e1f4c"/><stop offset=".46" stop-color="#232452"/><stop offset="1" stop-color="#252654"/></linearGradient><linearGradient id="g29" x2="1" href="#P" gradientTransform="matrix(11.866,-72.683,56.997,9.305,2902.024,1524.887)"><stop stop-color="#1c1d4a"/><stop offset=".07" stop-color="#1e1f4c"/><stop offset=".46" stop-color="#232452"/><stop offset="1" stop-color="#252654"/></linearGradient><linearGradient id="g30" x2="1" href="#P" gradientTransform="matrix(-87.092,-162.867,127.166,-68.001,2958.843,1714.027)"><stop stop-color="#1a1b65"/><stop offset=".3" stop-color="#252674"/><stop offset="1" stop-color="#3c3d94"/></linearGradient><linearGradient id="g31" x2="1" href="#P" gradientTransform="matrix(11.866,-72.683,59.75,9.755,2905.932,1525.662)"><stop stop-color="#1c1d4a"/><stop offset=".07" stop-color="#1e1f4c"/><stop offset=".46" stop-color="#232452"/><stop offset="1" stop-color="#252654"/></linearGradient><linearGradient id="g32" x2="1" href="#P" gradientTransform="matrix(-84.055,-167.617,103.25,-51.777,2933.947,1729.265)"><stop stop-color="#1a1b65"/><stop offset=".3" stop-color="#252674"/><stop offset="1" stop-color="#3c3d94"/></linearGradient><linearGradient id="g33" x2="1" href="#P" gradientTransform="matrix(-87.517,-163.661,147.157,-78.692,2948.013,1721.586)"><stop stop-color="#1a1b65"/><stop offset=".3" stop-color="#252674"/><stop offset="1" stop-color="#3c3d94"/></linearGradient><linearGradient id="g34" x2="1" href="#P" gradientTransform="matrix(-250.402,-241.693,277.694,-287.7,3290.117,1530.886)"><stop stop-color="#eb851a"/><stop offset="1" stop-color="#fa9c39"/></linearGradient><linearGradient id="g35" x2="1" href="#P" gradientTransform="matrix(-68.811,-106.942,89.091,-57.325,3837.926,1559.773)"><stop stop-color="#12147c"/><stop offset="1" stop-color="#be7d39"/></linearGradient><linearGradient id="g36" x2="1" href="#P" gradientTransform="matrix(267.769,209.767,-91.586,116.91,3781.737,1771.251)"><stop stop-color="#1c1d4a"/><stop offset="1" stop-color="#252654"/></linearGradient><linearGradient id="g37" x2="1" href="#P" gradientTransform="matrix(-155.323,283.63,-69.724,-38.182,3799.449,1613.028)"><stop stop-color="#1c1d4a"/><stop offset=".1" stop-color="#1e1f4d"/><stop offset=".44" stop-color="#232452"/><stop offset="1" stop-color="#252654"/></linearGradient><linearGradient id="g38" x2="1" href="#P" gradientTransform="matrix(55.696,-109.752,65.994,33.49,3732.884,1645.071)"><stop stop-color="#1e209a"/><stop offset="1" stop-color="#2628a2"/></linearGradient><linearGradient id="g39" x2="1" href="#P" gradientTransform="matrix(55.696,-109.753,177.763,90.209,3731.332,1644.117)"><stop stop-color="#1e209a"/><stop offset="1" stop-color="#2628a2"/></linearGradient></defs><style>.a{opacity:.7;fill:#fff}.b{fill:url(#g1)}.c{opacity:.5;fill:url(#g2)}.d{opacity:.5;fill:#167ffc}.e{fill:#f99e3d}.f{fill:#fa9c39}.g{fill:#167ffc}.h{fill:#f6e0c9}.i{fill:#fff}.j{fill:url(#g3)}.k{opacity:.5;fill:url(#g4)}.l{opacity:.5;fill:#12147c}.m{fill:#12147c}.n{fill:#be7d39}.o{fill:url(#g5)}.p{fill:url(#g6)}.q{opacity:.5;fill:url(#g7)}.r{fill:url(#g8)}.s{fill:url(#g9)}.t{fill:url(#g10)}.u{fill:url(#g11)}.v{fill:url(#g12)}.w{fill:url(#g13)}.x{opacity:.5;fill:url(#g14)}.y{fill:url(#g15)}.z{fill:url(#g16)}.A{fill:url(#g17)}.B{fill:#20216e}.C{fill:#f6c188}.D{fill:#f1b677}.E{fill:#17183d}.F{fill:url(#g18)}.G{fill:url(#g19)}.H{fill:url(#g20)}.I{fill:url(#g21)}.J{fill:#d17615}.K{fill:url(#g22)}.L{fill:url(#g23)}.M{fill:#f9ecde}.N{fill:#eb851a}.O{fill:#1c1d4a}.P{fill:url(#g24)}.Q{fill:url(#g25)}.R{fill:url(#g26)}.S{fill:url(#g27)}.T{fill:#121333}.U{fill:#3c3d94}.V{fill:#111130}.W{fill:#f2bc83}.X{fill:url(#g28)}.Y{fill:url(#g29)}.Z{fill:url(#g30)}.a0{fill:url(#g31)}.a1{opacity:.3;fill:url(#g32)}.a2{fill:url(#g33)}.a3{fill:#14153f}.a4{fill:url(#g34)}.a5{fill:url(#g35)}.a6{fill:url(#g36)}.a7{fill:url(#g37)}.a8{fill:url(#g38)}.a9{fill:#0f0f28}.aa{fill:#53d86a}.ab{opacity:.3;fill:#595bd4}.ac{fill:url(#g39)}</style><path class="a" d="m2442.8 514.9h602.7c9.5 0 20.2-11.4 27.6-18.3 7.5-7 12.9-18.5 11.2-29.8-2.7-16.7-18.5-24.5-32.3-27.9-52-13.1-107.4-5.3-155.6 21.7 43.5-61.8 87.4-128.9 106-206.9 18.7-78 3.9-174-52.1-218.5-42.2-33.5-99.5-30.4-144.1-2-44.6 28.5-77.4 79.1-99.2 134.2-21.8 55.1-33.7 115.1-45.4 174.5-20.8-59.4-71.6-108.9-124.6-114.6-53-5.8-109.1 38.8-118 102.4-8.2 58.2-4.1 136.7 23.8 185.2z"/><path class="a" d="m998.3 663.4h413.3c20.6 0 40.2-27.6 48.3-50.5 5.2-14.7 6.2-33.9-3.5-44.7-7.2-8-18-8.7-27.8-8-26.4 2.1-52.4 12.1-75 28.8 30.2-47 59.7-95.6 67.2-154.5 7.5-59-10.2-126.1-53-155.3-29.7-20.2-66.4-19.5-99.4-9.2-51.1 16-97.3 54.1-128.4 105.8-31 51.8-46.7 116.8-43.5 180.7-8.1-31.7-37.3-53.4-64.6-53.1-27.3 0.3-53.4 24.2-61 56-8.2 34.2 9.5 75.8 27.4 104z"/><path class="b" d="m2604.6 1117.4h1092.5v911.7h-1092.5z"/><path class="c" d="m3697.1 1117.4v911.7h-1092.5v-911.7z"/><path class="d" d="m3697.1 1884.5v144.6h-1092.5v-144.6z"/><path class="e" d="m3741.2 1117.4h-1180.7l44.1-234h1092.5z"/><path class="f" d="m2678.6 1117.4c0 39.2-26.5 70.9-59.1 70.9-32.6 0-59-31.7-59-70.9zm118.1 0c0 39.2-26.5 70.9-59.1 70.9-32.6 0-59-31.7-59-70.9zm118.1 0c0 39.2-26.5 70.9-59.1 70.9-32.6 0-59-31.7-59-70.9zm118.1 0c0 39.2-26.5 70.9-59.1 70.9-32.6 0-59-31.7-59-70.9zm118.1 0c0 39.2-26.5 70.9-59.1 70.9-32.6 0-59-31.7-59-70.9zm118.1 0c0 39.2-26.5 70.9-59.1 70.9-32.6 0-59-31.7-59-70.9zm118.1 0c0 39.2-26.5 70.9-59.1 70.9-32.6 0-59-31.7-59-70.9zm118.1 0c0 39.2-26.5 70.9-59.1 70.9-32.6 0-59-31.7-59-70.9zm118.1 0c0 39.2-26.5 70.9-59.1 70.9-32.6 0-59-31.7-59-70.9zm118.1 0c0 39.2-26.5 70.9-59.1 70.9-32.6 0-59-31.7-59-70.9z"/><path class="g" d="m3623.1 1362.3v666.8h-295.1v-666.8z"/><path class="h" d="m3604.5 1384.7v644.4h-257.9v-644.4z"/><path class="g" d="m3306.7 1362.3v450.5h-633.3v-450.5z"/><path class="h" d="m3284.6 1389v397h-589.1v-397z"/><path class="i" d="m3111.7 1481l132 11.3-12.5 213.5-132-11.3z"/><path class="i" d="m2745.8 1534.5l104.7-9.4 10.3 169.4-104.7 9.3z"/><path class="g" d="m3578.7 1723.3c-7.5 0-13.5-7.3-13.5-16.4 0-9.1 6-16.5 13.5-16.5 7.5 0 13.6 7.4 13.6 16.5 0 9.1-6.1 16.4-13.6 16.4z"/><path class="j" d="m1320.5 935.8v1093.3h-1242.9v-1093.3z"/><path class="k" d="m1320.5 935.8v1093.3h-1242.9v-1093.3z"/><path class="l" d="m1320.5 1884.1v145h-1242.9v-145z"/><path class="e" d="m1388.1 980.4h-1378.1l51.5-273.2h1275.1z"/><path class="f" d="m147.8 980.4c0 45.7-30.8 82.7-68.9 82.7-38 0-68.9-37-68.9-82.7z"/><path class="f" d="m285.6 980.4c0 45.7-30.8 82.7-68.9 82.7-38 0-68.9-37-68.9-82.7z"/><path class="f" d="m423.4 980.4c0 45.7-30.8 82.7-68.9 82.7-38 0-68.9-37-68.9-82.7zm137.8 0c0 45.7-30.8 82.7-68.9 82.7-38 0-68.9-37-68.9-82.7z"/><path class="f" d="m699 980.4c0 45.7-30.8 82.7-68.9 82.7-38 0-68.9-37-68.9-82.7zm137.8 0c0 45.7-30.8 82.7-68.9 82.7-38 0-68.9-37-68.9-82.7zm137.8 0c0 45.7-30.8 82.7-68.9 82.7-38 0-68.9-37-68.9-82.7z"/><path class="f" d="m1112.5 980.4c0 45.7-30.9 82.7-68.9 82.7-38.1 0-68.9-37-68.9-82.7z"/><path class="f" d="m1250.3 980.4c0 45.7-30.9 82.7-68.9 82.7-38.1 0-68.9-37-68.9-82.7zm137.8 0c0 45.7-30.9 82.7-68.9 82.7-38.1 0-68.9-37-68.9-82.7z"/><path class="m" d="m1215.3 1360v669.1h-296.2v-669.1z"/><path class="h" d="m1196.6 1382.5v646.6h-258.7v-646.6z"/><path class="m" d="m818.4 1360v452.1h-635.4v-452.1z"/><path class="h" d="m803.3 1386.9v398.3h-591.1v-398.3z"/><path class="g" d="m1180.3 1717.4c-5.3 6.5-13.9 6.5-19.2 0-5.3-6.4-5.3-16.8 0-23.3 5.3-6.4 13.9-6.4 19.2 0 5.3 6.5 5.3 16.9 0 23.3z"/><path class="n" d="m1215.3 1163.8v134.9h-1025.2v-134.9z"/><path class="i" d="m577.6 1473.2l132.4 11.4-12.5 214.2-132.5-11.3z"/><path class="i" d="m447.3 1687.4l-132.5 11.4-12.5-214.2 132.5-11.4z"/><path class="o" d="m2582.7 796.1h-425.2c-32.4 0-58.7 31.9-58.7 71.3v1092.5c0 39.4 26.3 71.3 58.7 71.3h425.2c32.4 0 58.7-31.9 58.7-71.3v-1092.5c0-39.4-26.3-71.3-58.7-71.3z"/><path class="p" d="m2587.1 837.5h-106.6c-14.1 0-26.7 9.9-31.9 24.9-5.3 15.1-17.9 25-32 25h-99.8c-14.1 0-26.7-9.9-32-25-5.2-15-17.9-24.9-31.9-24.9h-99.8c-14.1 0-25.6 13.2-25.6 29.6v1100.8c0 16.1 11.3 29.1 25.2 29.1h434.8c13.9 0 25.2-13 25.2-29.1v-1100.8c0-16.4-11.5-29.6-25.6-29.6z"/><path class="q" d="m2612.7 867.1v1100.8c0 16.1-11.3 29.1-25.2 29.1h-434.8c-13.9 0-25.2-13-25.2-29.1v-1100.8c0-16.4 11.5-29.6 25.6-29.6h99.7c14.1 0 26.8 9.9 32 24.9 5.3 15.1 17.9 25 32 25h99.8c14.1 0 26.7-9.9 31.9-25 5.3-15 18-24.9 32-24.9h106.6c14.1 0 25.6 13.2 25.6 29.6z"/><path class="r" d="m2392.3 846.5h-49.3c-2.3 0-4.6 1.1-6.2 3.1-1.6 2-2.5 4.7-2.5 7.5 0 2.8 0.9 5.5 2.5 7.5 1.6 2 3.9 3.1 6.2 3.1h49.3c2.3 0 4.5-1.1 6.2-3.1 1.6-2 2.5-4.7 2.5-7.5 0-2.8-0.9-5.5-2.5-7.5-1.7-2-3.9-3.1-6.2-3.1z"/><path class="s" d="m2416.3 847c-2.2 0-4.3 1-5.9 2.9-1.5 1.9-2.4 4.5-2.4 7.2 0 2.7 0.9 5.3 2.4 7.2 1.6 1.9 3.7 2.9 5.9 2.9 2.2 0 4.4-1 5.9-2.9 1.6-1.9 2.5-4.5 2.5-7.2 0-2.7-0.9-5.3-2.5-7.2-1.5-1.9-3.7-2.9-5.9-2.9z"/><path class="t" d="m2319 847c-2.3 0-4.4 1-6 2.9-1.5 1.9-2.4 4.5-2.4 7.2 0 2.7 0.9 5.3 2.4 7.2 1.6 1.9 3.7 2.9 6 2.9 2.2 0 4.3-1 5.9-2.9 1.5-1.9 2.4-4.5 2.4-7.2 0-2.7-0.9-5.3-2.4-7.2-1.6-1.9-3.7-2.9-5.9-2.9z"/><path class="u" d="m2643.9 961.8h-3v198.7h3q1.1 0 2.1-0.5 1-0.5 1.7-1.4 0.8-0.9 1.2-2.1 0.4-1.2 0.4-2.5v-185.6q0-1.3-0.4-2.6-0.4-1.2-1.2-2.1-0.7-0.9-1.7-1.4-1-0.5-2.1-0.5z"/><path class="v" d="m2643.9 1177.5h-3v99.3h3q1.1 0 2.1-0.5 1-0.5 1.7-1.4 0.8-0.9 1.2-2.1 0.4-1.2 0.4-2.5v-86.3q0-1.3-0.4-2.5-0.4-1.2-1.2-2.1-0.7-0.9-1.7-1.4-1-0.5-2.1-0.5z"/><path class="i" d="m2612.7 867.1v149.6l-485.2 588.4v-266.8l412.9-500.8h46.7c14.1 0 25.6 13.2 25.6 29.6zm0 355.9v404.6l-304.7 369.4h-155.3c-13.9 0-25.2-13-25.2-29.1v-156.5z"/><path fill-rule="evenodd" class="w" d="m1856.9 1520c0 133.5-89.2 155.4-199.3 155.4-110.1 0-199.3-21.9-199.3-155.4 0-128 82-438.2 185.8-463.6v-1.7h13.5c110.1 0 199.3 331.8 199.3 465.3zm-170.4-400.7c0-13.8-12.9-24.9-28.9-24.9-16 0-28.8 11.1-28.8 24.9 0 13.8 12.8 25 28.8 25 16 0 28.9-11.2 28.9-25z"/><path fill-rule="evenodd" class="x" d="m1856.9 1520c0 133.5-89.2 155.4-199.3 155.4-110.1 0-199.3-21.9-199.3-155.4 0-128 82-438.2 185.8-463.6v-1.7h13.5c110.1 0 199.3 331.8 199.3 465.3zm-170.4-400.7c0-13.8-12.9-24.9-28.9-24.9-16 0-28.8 11.1-28.8 24.9 0 13.8 12.8 25 28.8 25 16 0 28.9-11.2 28.9-25z"/><path fill-rule="evenodd" class="y" d="m1843.3 1520c0 133.5-89.2 155.4-199.2 155.4-110.1 0-199.3-21.9-199.3-155.4 0-133.5 89.2-465.3 199.3-465.3 110 0 199.2 331.8 199.2 465.3zm-170.4-400.7c0-13.8-12.9-24.9-28.8-24.9-16 0-28.9 11.1-28.9 24.9 0 13.8 12.9 25 28.9 25 15.9 0 28.8-11.2 28.8-25z"/><path class="z" d="m1656 1312.6l-46.7 89.9h36.7l-18.6 79.9 51.5-96.8-41.9-4.8z"/><path fill-rule="evenodd" class="A" d="m1644.1 1519.9c-55.8 0-101-54.7-101-122.4 0-67.7 45.2-122.4 101-122.4 55.8 0 100.9 54.7 100.9 122.4 0 67.7-45.1 122.4-100.9 122.4zm88.6-122.4c0-59.5-39.6-107.5-88.6-107.5-49 0-88.7 48-88.7 107.5 0 59.4 39.7 107.5 88.7 107.5 49 0 88.6-48.1 88.6-107.5z"/><path class="B" d="m1650.8 1962.4c-62.4 0-123-14.8-180.1-44.1-19.6-10.1-38.7-21.8-56.8-34.9-2.1-1.6-3.6-4.1-4.2-7-0.6-3-0.3-6.1 1-8.7 1.3-2.6 3.4-4.4 5.8-5.2 2.4-0.7 5-0.3 7.1 1.2 17.3 12.6 35.7 23.8 54.5 33.5 54.8 28.1 112.9 42.3 172.7 42.3 59.9 0 118-14.2 172.8-42.3q5.7-3 11.3-6.1 5.7-3.1 11.3-6.4 5.5-3.3 11-6.8 5.5-3.5 10.9-7.2c2.2-1.5 4.8-1.8 7.2-1 2.4 0.9 4.4 2.8 5.6 5.4 1.2 2.7 1.5 5.8 0.9 8.7-0.7 2.9-2.3 5.4-4.4 6.9q-5.7 3.8-11.4 7.5-5.7 3.6-11.5 7.1-5.8 3.4-11.7 6.7-5.9 3.2-11.9 6.3c-57.1 29.3-117.7 44.1-180.1 44.1zm-232-1044.7q-1.2 0-2.4-0.4-1.2-0.4-2.3-1.1-1.1-0.8-1.9-1.8-0.9-1.1-1.5-2.3c-0.7-1.3-1.1-2.8-1.3-4.3-0.2-1.4-0.1-3 0.2-4.4 0.3-1.5 0.9-2.8 1.6-4.1 0.7-1.2 1.7-2.2 2.7-2.9 18.1-13.1 37.2-24.9 56.8-34.9 57.1-29.3 117.7-44.2 180.1-44.2 62.4 0 123 14.9 180.1 44.2q6 3 11.9 6.3 5.9 3.2 11.7 6.7 5.8 3.4 11.5 7.1 5.7 3.6 11.4 7.5c2.2 1.5 3.8 4 4.5 6.9 0.6 2.9 0.3 6-0.9 8.7-1.2 2.6-3.3 4.6-5.7 5.4-2.4 0.8-5 0.5-7.2-1q-5.4-3.7-10.9-7.2-5.5-3.5-11-6.8-5.6-3.3-11.3-6.5-5.6-3.1-11.3-6c-54.8-28.1-112.9-42.4-172.8-42.4-59.8 0-117.9 14.3-172.7 42.4-18.8 9.6-37.2 20.9-54.5 33.4q-0.5 0.4-1.1 0.7-0.6 0.3-1.2 0.5-0.6 0.2-1.3 0.3-0.6 0.2-1.2 0.2z"/><path class="B" d="m1442.4 983.3q-1.2 0-2.4-0.4-1.2-0.3-2.3-1.1-1-0.7-1.9-1.7-0.9-1.1-1.5-2.4c-0.6-1.2-1.1-2.7-1.2-4.2-0.2-1.4-0.2-3 0.1-4.4 0.3-1.5 0.9-2.9 1.6-4.1 0.8-1.2 1.7-2.2 2.7-3q6.3-4.5 12.6-8.7 6.3-4.3 12.8-8.2 6.4-4 13-7.7 6.6-3.7 13.2-7.1c51.3-26.3 105.7-39.6 161.7-39.6 56.1 0 110.5 13.3 161.7 39.6q5.3 2.7 10.6 5.6 5.2 2.9 10.3 5.9 5.2 3.1 10.3 6.3 5.1 3.2 10.1 6.6c2.1 1.5 3.7 4 4.3 6.9 0.7 2.9 0.4 6-0.8 8.7-1.2 2.6-3.3 4.5-5.6 5.4-2.4 0.8-5 0.5-7.2-1q-4.8-3.2-9.6-6.3-4.9-3.1-9.8-6-4.9-2.9-9.9-5.7-5-2.7-10-5.3c-48.9-25.1-100.9-37.8-154.4-37.8-53.5 0-105.4 12.7-154.3 37.8q-6.4 3.2-12.6 6.8-6.3 3.5-12.5 7.3-6.1 3.8-12.2 7.8-6 4.1-11.9 8.4-0.6 0.4-1.2 0.7-0.6 0.3-1.2 0.5-0.6 0.2-1.2 0.3-0.7 0.1-1.3 0.1zm208.4 905.8c-56 0-110.4-13.3-161.7-39.6q-6.6-3.4-13.2-7.1-6.6-3.7-13-7.7-6.5-4-12.8-8.2-6.3-4.3-12.6-8.8c-1-0.8-1.9-1.8-2.7-3-0.7-1.2-1.3-2.6-1.6-4-0.3-1.5-0.3-3-0.1-4.5 0.1-1.5 0.6-2.9 1.2-4.2 0.6-1.3 1.5-2.4 2.5-3.3 1-0.9 2.1-1.6 3.3-1.9 1.2-0.4 2.5-0.5 3.7-0.2 1.2 0.2 2.4 0.7 3.5 1.5q5.9 4.3 11.9 8.3 6.1 4.1 12.2 7.8 6.2 3.8 12.5 7.4 6.2 3.5 12.6 6.8c48.9 25.1 100.8 37.8 154.3 37.8 53.5 0 105.5-12.7 154.4-37.8q5-2.6 10-5.4 5-2.7 9.9-5.7 4.9-2.9 9.8-6 4.8-3 9.6-6.3c2.2-1.4 4.8-1.7 7.1-0.9 2.4 0.8 4.4 2.8 5.7 5.4 1.2 2.6 1.5 5.7 0.8 8.6-0.6 2.9-2.2 5.4-4.3 6.9q-5 3.4-10.1 6.6-5.1 3.3-10.3 6.3-5.1 3.1-10.3 6-5.3 2.9-10.6 5.6c-51.2 26.3-105.6 39.6-161.7 39.6z"/><path fill-rule="evenodd" class="B" d="m1650.8 1815.8c-67 0-132.6-22.1-189.6-63.8-2.2-1.6-3.8-4.1-4.4-7.1-0.6-2.9-0.2-6.1 1.1-8.7 1.3-2.6 3.4-4.5 5.8-5.2 2.5-0.7 5.1-0.2 7.2 1.4 54.2 39.5 116.4 60.4 179.9 60.4 59.6 0 118.4-18.5 170.1-53.5 2.2-1.5 4.8-1.8 7.2-1 2.4 0.8 4.4 2.8 5.7 5.4 1.2 2.7 1.5 5.8 0.8 8.7-0.7 3-2.3 5.4-4.5 6.9-54.5 36.9-116.5 56.5-179.3 56.5zm-184.8-766.8c-2 0-4-0.8-5.7-2.3-1.6-1.5-2.8-3.7-3.4-6.1-0.5-2.4-0.4-4.9 0.3-7.3 0.8-2.3 2.2-4.3 4-5.6 57-41.7 122.6-63.7 189.6-63.7 62.8 0 124.8 19.5 179.3 56.4 2.2 1.5 3.7 4 4.4 6.9 0.6 2.9 0.3 6-0.9 8.6-1.2 2.7-3.2 4.6-5.6 5.4-2.4 0.9-4.9 0.6-7.1-0.9-51.7-35-110.5-53.5-170.1-53.5-63.5 0-125.8 20.9-179.9 60.5q-0.5 0.4-1.1 0.7-0.6 0.3-1.2 0.5-0.7 0.2-1.3 0.3-0.6 0.1-1.3 0.1zm922.9-288.6l-39.5-17.8-7.1-3.1-79.6-35.7 30.9-31.1c-96.1-120.6-195.5-179.4-296.1-175-191.7 8.4-327.9 243.6-329.3 246l-44.9-37.7c1.6-2.7 38.5-67.1 102.3-133 37.6-39 76.9-70.6 116.7-93.8 50.5-29.4 102.1-45.5 153.3-47.7 117.8-5.1 231.9 61.7 340.1 198.7l30.5-30.7 12.7 89.7 3.1 21.7zm-765.7 1306.5l39.6 17.8 7.1 3.2 79.6 35.6-30.9 31.2c96.1 120.5 195.4 179.3 296 174.9 191.8-8.4 328-243.6 329.3-246l45 37.7c-1.6 2.7-38.6 67.1-102.3 133.1-37.6 38.9-76.9 70.5-116.7 93.7-50.6 29.4-102.1 45.5-153.3 47.7-117.8 5.1-231.9-61.6-340.1-198.7l-30.5 30.8-12.7-89.8-3.1-21.7z"/><path class="e" d="m2814.6 573.3c0 110.1 95.5 199.3 213.2 199.3 43.1 0 83.3-11.9 116.8-32.5l106.4 106.9-71-134.1c37.7-36 61-85.2 61-139.6 0-110.1-95.5-199.3-213.2-199.3-117.7 0-213.2 89.2-213.2 199.3z"/><path fill-rule="evenodd" class="i" d="m2957 595.8c0 26.1-17.5 45.8-40.7 45.8-11.9 0-21.5-4.2-26.5-8.1l-3.5-2.7 6.6-24.4 5.8 4.1c2.8 2 9.7 5.5 17.5 5.5 8.2 0 17-5.8 17-18.4-0.1-12.5-7.4-18.9-21.8-18.9-4.7 0-8.4 0.6-11.7 1.1l-7.7 1.2 7.7-69.2h55.4v26.1h-36.9l-1.9 15.7q0.6 0 1.4 0c8.7 0 16.7 2.5 23.1 7.1 10.3 7.1 16.2 19.9 16.2 35.1zm79.2-21.3c0 42.6-14 67.1-38.3 67.1-22.3 0-36.4-25.1-36.7-65.5 0-40.3 15-66.3 38.3-66.3 23 0 36.7 24.2 36.7 64.7zm-51.4 1.7c0 24.5 5.4 40.3 13.8 40.3 12.6 0 14-28.9 14-41.3 0-12.1-1.3-40.3-13.8-40.3-8.4 0-14 16.6-14 41.3zm184.5 21.9c0 29.6-14.1 42.8-28 42.8-13.6 0-27.4-12.7-27.5-40.9q0-5.8 0.7-10.7l-24.5 52.3h-20.6l25.3-54.1c-4.5 4-9.8 5.9-15.2 5.9-13.5 0-27.3-12.7-27.5-41.1 0-25 11.6-42.5 28.3-42.5 16.6 0 27.4 16 27.4 40.8q0 5.9-0.7 10.8l24.2-51.6h20.5l-25.2 53.8c4.7-4.2 10.2-6.3 15.5-6.3 16.8 0 27.3 15.7 27.3 40.8zm-20.9 0.7c0-4.4-0.5-19-6.8-19-4.6 0-7 9.8-7 19.4v0.1c-0.1 7.7 1.4 14.4 3.9 17.5 1.3 1.5 2.4 1.6 3.1 1.6 6.3 0 6.8-15 6.8-19.6zm-61.7-47.5c0-4.4-0.5-19-6.9-19-4.4 0-6.8 9.7-6.8 19.4v0.1c-0.2 7.9 1.2 14.4 3.7 17.5 0.9 1.1 1.9 1.6 3.1 1.6 6.4 0 6.9-15 6.9-19.6z"/><path class="C" d="m472.2 1497.1q-0.3 0.4-0.7 0.8-0.4 0.3-0.8 0.7-0.3 0.4-0.7 0.8-0.4 0.3-0.8 0.7c-1.1 1-2.4 2.1-3.7 3.3-2.7 2.2-5.8 4.9-9.4 7.5q-0.7 0.5-1.4 1-0.7 0.5-1.4 1-0.7 0.5-1.5 1-0.7 0.5-1.4 1c-1.9 1.4-4 2.8-6.2 4.2-4.3 2.9-9.1 5.5-14.1 8.4-2.6 1.4-5.2 2.6-7.9 3.9q-2.1 1-4.1 2-2.1 1-4.3 1.9-2.1 0.9-4.3 1.8c-1.4 0.6-2.9 1.2-4.4 1.8q-1.2 0.4-2.3 0.8-1.1 0.4-2.3 0.8-1.1 0.4-2.3 0.8-1.1 0.4-2.3 0.8-1.8 0.6-3.6 1.1-0.7 0.2-1.4 0.4-0.7 0.2-1.4 0.4-0.7 0.2-1.4 0.4-0.7 0.2-1.5 0.4-0.5 0.2-1.1 0.3-0.6 0.2-1.1 0.3-0.6 0.2-1.2 0.3-0.5 0.1-1.1 0.2-2.3 0.6-4.6 1-2.2 0.5-4.4 1-2.2 0.3-4.4 0.6c-2.9 0.4-5.8 0.9-8.5 1.1-5.6 0.5-10.9 0.8-15.9 0.6-2.5-0.1-4.9-0.1-7.2-0.4q-0.8 0-1.6-0.1-0.9-0.1-1.7-0.2-0.8-0.1-1.6-0.3-0.9-0.1-1.7-0.2c-4.2-0.5-8-1.6-11.3-2.6-1.6-0.5-3.1-1-4.5-1.6q-0.5-0.2-1-0.4-0.5-0.2-0.9-0.5-0.5-0.2-1-0.5-0.4-0.2-0.9-0.5c-4.5-2.6-6.8-5.3-6.6-8 0.2-2.7 2.9-5 7.5-6.7q0.4-0.2 0.9-0.4 0.5-0.1 0.9-0.3 0.5-0.1 1-0.3 0.5-0.1 0.9-0.2c1.4-0.4 2.9-0.9 4.5-1.2 3.1-0.8 6.7-1.3 10.6-2q2.9-0.5 6.1-0.8 3.2-0.5 6.6-1c4.4-0.4 8.9-1.2 13.8-1.7q0.4-0.1 0.8-0.1c2.6-0.3 5.2-0.8 7.8-1.1q2-0.3 4.1-0.6 2-0.3 4.1-0.6 2.1-0.4 4.2-0.7 0.6-0.1 1.1-0.2 0.5 0 1.1-0.1 0.5-0.1 1-0.2 0.6-0.1 1.1-0.2 4.3-0.8 8.7-1.6 4.5-0.9 8.7-1.8 0.6-0.1 1.1-0.2 0.6-0.1 1.1-0.2 0.5-0.2 1.1-0.3 0.5-0.1 1-0.2 2.1-0.5 4.2-1 2.1-0.5 4.1-1 2.1-0.6 4.1-1.1c2.6-0.7 5.3-1.4 7.8-2.1 5.1-1.6 9.9-2.9 14.4-4.6 2.3-0.7 4.5-1.4 6.6-2.2q3.1-1.1 6-2.2c3.8-1.3 7.3-2.8 10.3-3.9q2.3-0.9 4.3-1.6 0.5-0.2 0.9-0.4 0.5-0.2 0.9-0.3 0.5-0.2 0.9-0.4 0.5-0.2 1-0.3c4.4-1.6 7-2.1 7.5-1.1 0.5 1-1.3 3.4-4.9 7.1z"/><path class="D" d="m392.3 1543.2q-0.7 0.2-1.4 0.4-0.7 0.2-1.4 0.4-0.7 0.2-1.4 0.4-0.7 0.2-1.5 0.4-0.5 0.2-1.1 0.3-0.6 0.2-1.1 0.3-0.6 0.2-1.2 0.3-0.5 0.1-1.1 0.2-2.3 0.6-4.6 1-2.2 0.5-4.4 1-2.2 0.3-4.4 0.6c-2.9 0.4-5.8 0.9-8.5 1.1-5.6 0.5-10.9 0.8-15.9 0.6-2.5-0.1-4.9-0.1-7.2-0.4q-0.8 0-1.6-0.1-0.9-0.1-1.7-0.2-0.8-0.1-1.6-0.3-0.9-0.1-1.7-0.2c-4.2-0.5-8-1.6-11.3-2.6-1.6-0.5-3.1-1-4.5-1.6q-0.5-0.2-1-0.4-0.5-0.2-0.9-0.5-0.5-0.2-1-0.5-0.4-0.2-0.9-0.5c-4.5-2.6-6.8-5.3-6.6-8 0.2-2.7 2.9-5 7.5-6.7q0.4-0.2 0.9-0.4 0.5-0.1 0.9-0.3 0.5-0.1 1-0.3 0.5-0.1 0.9-0.2c1.4-0.4 2.9-0.9 4.5-1.2 3.1-0.8 6.7-1.3 10.6-2q2.9-0.5 6.1-0.8 3.2-0.5 6.6-1c4.4-0.4 8.9-1.2 13.8-1.7 2.7 10.7 11.2 18.3 20.3 21.1 4.8 1.6 9.9 2 14.9 1.8z"/><path class="C" d="m259 1557.8c-0.2 3.6-0.5 7.7-1.2 12.1q-0.1 0.9-0.2 1.7-0.2 0.9-0.3 1.8-0.1 0.9-0.3 1.7-0.1 0.9-0.3 1.8c-0.4 2.4-1 4.8-1.5 7.4q-0.4 1.9-0.9 3.9-0.1 0.5-0.2 1-0.1 0.5-0.3 1-0.1 0.5-0.2 1-0.1 0.5-0.3 1-0.3 1-0.5 2-0.3 1.1-0.6 2.1-0.3 1-0.6 2.1-0.3 1-0.5 2-0.6 2.1-1.3 4.3-0.7 2.1-1.4 4.3-0.7 2.1-1.5 4.4-0.1 0.4-0.3 0.8-0.1 0.4-0.3 0.8-0.1 0.5-0.3 0.9-0.1 0.4-0.3 0.8-0.2 0.5-0.4 1.1c-1.1 2.9-2.2 5.9-3.4 8.9q-0.4 1.2-0.9 2.3-0.5 1.2-0.9 2.3-0.5 1.1-1 2.3-0.5 1.1-1 2.2c-2.6 6.1-5.3 11.9-8.2 17.4q-1 2.1-2.1 4.1c-0.6 1.3-1.4 2.6-2.1 3.9-1.4 2.6-2.8 5.2-4.2 7.6-2.8 4.8-5.5 9.4-8.3 13.5-1.3 2.1-2.6 4.1-3.9 6q-2 2.8-3.8 5.3c-2.4 3.4-4.7 6.4-6.7 8.9q-1.6 1.9-2.9 3.5-0.3 0.4-0.7 0.7-0.3 0.4-0.6 0.8-0.3 0.3-0.7 0.6-0.3 0.4-0.6 0.7c-3.2 3.3-5.2 4.9-5.9 4.2-0.8-0.7-0.1-3.5 1.6-8.1q0.1-0.4 0.3-0.9 0.2-0.5 0.4-0.9 0.2-0.5 0.3-1 0.2-0.4 0.4-0.9 0.2-0.5 0.4-1.1 0.3-0.5 0.5-1.1 0.2-0.5 0.4-1.1 0.2-0.5 0.5-1.1c1.2-3.1 2.7-6.6 4.3-10.5q1.2-2.9 2.5-6.1 1.3-3.2 2.6-6.7c1.9-4.5 3.7-9.5 5.8-14.6l2.9-7.9c0.5-1.4 1.1-2.7 1.6-4.1q0.7-2.1 1.5-4.2c2-5.7 4-11.6 6.1-17.5q0.4-1.2 0.8-2.3 0.4-1.1 0.7-2.2 0.4-1.1 0.8-2.2 0.4-1.1 0.8-2.3c1-2.9 1.9-5.8 2.8-8.6 0.5-1.4 1-2.8 1.5-4.2q0.6-2.1 1.3-4.2 0.7-2 1.4-4 0.6-2 1.3-4 0.3-1 0.6-1.9 0.3-1 0.6-1.9 0.3-1 0.7-1.9 0.3-1 0.6-1.9 0.7-1.9 1.2-3.7 0.6-1.8 1.2-3.6 0.7-1.8 1.3-3.6 0.6-1.6 1.1-3 1.1-3.3 2.2-6.2c1.6-3.9 2.9-7.5 4.3-10.6 0.7-1.5 1.4-2.9 2-4.2q0.2-0.5 0.5-1 0.2-0.4 0.4-0.8 0.3-0.5 0.5-0.9 0.3-0.5 0.5-0.9c2.5-4.2 4.8-6.3 6.7-5.8 1.9 0.6 3.1 3.7 3.6 9q0.2 2 0.2 4.4c0.1 1.6 0 3.2-0.1 5.1z"/><path class="C" d="m193.3 1695.2c-8.9 3-18 9.8-23.6 18.8-1.3 2.2 0 5.3 2.3 5.1 5.5-0.3 11-2.5 15.5-6.4-0.8 1.5-2 4.2-3.2 6.9-0.6 1.5 1.1 2.9 2 1.6 4.1-6.1 7.6-14.3 8.7-20.5-0.9-1.3-0.8-4.2-1.7-5.5z"/><path class="D" d="m259 1557.8c-0.2 3.6-0.5 7.7-1.2 12.1q-0.1 0.9-0.2 1.7-0.2 0.9-0.3 1.8-0.1 0.9-0.3 1.7-0.1 0.9-0.3 1.8c-0.4 2.4-1 4.8-1.5 7.4q-0.4 1.9-0.9 3.9-0.1 0.5-0.2 1-0.1 0.5-0.3 1-0.1 0.5-0.2 1-0.1 0.5-0.3 1-0.3 1-0.5 2-0.3 1.1-0.6 2.1-0.3 1-0.6 2.1-0.3 1-0.5 2-0.6 2.1-1.3 4.3-0.7 2.1-1.4 4.3-0.7 2.1-1.5 4.4-0.1 0.4-0.3 0.8-0.1 0.4-0.3 0.8-0.1 0.5-0.3 0.9-0.1 0.4-0.3 0.8 0.3-2 0.5-4.1c1.5-14.1-1.1-29.7-9.1-39.9q0.6-1.6 1.1-3 1.1-3.3 2.2-6.2c1.6-3.9 2.9-7.5 4.3-10.6 0.7-1.5 1.4-2.9 2-4.2q0.2-0.5 0.5-0.9 0.2-0.5 0.4-0.9 0.3-0.5 0.5-0.9 0.3-0.5 0.5-0.9c2.5-4.2 4.8-6.3 6.7-5.8 1.9 0.6 3.1 3.7 3.6 9q0.2 2 0.2 4.4c0.1 1.6 0 3.2-0.1 5.1z"/><path fill-rule="evenodd" class="E" d="m185.9 1985.1c-2 14.1-0.2 28.9 5.1 41.7-6.7 4.5-16 2.1-20.7-5.2-4.4-6.9-4.6-16.8-2.2-25.1 2.4-8.2 7-15.2 11.4-22.1 2.2 3.6 4.2 7.2 6.4 10.7zm119.1 8.6c4.4-2 6.2 2.8 10.9 2.3-0.8 4.9 2 9.8 5.4 12.5 0.7 0.5 8.1 6.3 11.4 18.4-9.9 2.1-19.6 2.4-29.7 0.1-1.6-9.3-0.3-24.1 2-33.3z"/><path class="F" d="m170.9 1979.4c6 2.7 10.6 10.9 16.7 13.6 45.4-79.8 75.5-177 90.9-272 18.8 86.2 29.5 193.6 24.1 282.5 5.4 0.6 10.4 1.1 15.8 1.6 21.9-110.3 19.1-227.8-9.6-335.7v-0.1l-7-27.6-2.1-8.3-22.2-0.6-10.4-0.3-6.6-0.2-10.6 23.1q-0.8 1.5-1.5 3-0.7 1.6-1.3 3.1-0.7 1.6-1.3 3.2-0.6 1.6-1.2 3.3c-6.4 18.4-4.1 38.4-6.4 58.1q-0.2 1.6-0.4 3.2c-11.1 91.6-37.6 164.6-66.9 250.1z"/><path class="G" d="m355.9 1537.7c0 4.2-0.3 8.4-0.7 12.5l-2.3 0.4-24.1 4.1-8.3 1.5h-0.1q-0.6 0.1-1.1 0.2 0 0.1 0 0.1c-1.8 1.2-3 3-3.3 5.3v0.1q-0.1 0.5-0.1 1 0 0.6-0.1 1.1 0 0.6-0.1 1.1 0 0.5-0.1 1.1c-0.9 7.1-1.8 14-2.8 20.9-0.8 5.7-1.6 11.3-2.7 16.8-2.1 11.6-5 22.9-9.2 34.1-5.5 4.3-16.4 5.8-22.9 5.2-6.6-0.6-13.5-3.7-18.4-9 2.1-16.3 3.1-33.2 2.3-49.8-0.3-6.7-0.9-13.4-1.7-20-1.7 6.2-2.3 11.3-3.6 17.1q-2.5-1.4-4.9-3.1-2.4-1.7-4.7-3.5-2.3-1.9-4.5-4-2.2-2-4.3-4.3c1.3-7.5 2.9-14.9 5.3-21.9 3.4-9.8 8.8-18.8 16.3-24.3 4.5-3.2 9.7-4.1 15.1-4.3q0.3 0 0.6 0c6.3-0.1 12.9 0.8 19.1-0.1 0 0 7.2 0.3 16.8 1.1l0.5 0.1q0.8 0.3 1.6 0.5 0.8 0.3 1.7 0.6 0.8 0.2 1.6 0.5 0.8 0.2 1.6 0.5c0.6 0.1 20.6 3.6 36.1 1q0.3 2.2 0.6 4.3 0.3 2.2 0.4 4.3 0.2 2.2 0.3 4.4 0.1 2.2 0.1 4.4z"/><path class="E" d="m187.6 1993c45.4-79.8 75.5-177 90.9-272l-5.1-21.4c0 0-29.8 176.7-85.8 293.4z"/><path class="H" d="m277.3 1441.5c-3.9 5.5-5.8 12.9-5.2 20.1 0.5 6.2 2.7 12.2 2 18.3-1.2 11.6-11.8 18.7-14.7 29.9-2.8 11.1 3.1 23.3 11.3 29.3 8.3 5.9 18.3 7 27.9 7.4 4.3 0.2 8.7 0.3 12.8-1.3 4.1-1.6 7.9-5.3 9-10.3 1.8-7.6-2.8-15.2-3.6-23.1-1.7-16.3 12.8-29.7 12.8-46.2 0-10.1-5.7-19.1-12.7-24.6-12-9.4-29-14.6-39.6 0.5z"/><path class="C" d="m474.9 1481.7c3.9-1.1 8-1.9 11.7-3.7 1.9-0.9 3.2 2.4 1.5 3.6l-0.1 0.1c-2.5 1.7-5.3 3.2-6.7 6.2-1.1 2.7-0.8 6-1.5 8.9-1.2 4.9-5.3 8.3-9.5 8.7-5.2 0.6-12-2.7-10.4-10.2 1.7-8.2 8.9-11.8 15-13.6zm183 84.9c-0.1 3.4-0.6 7.2-1.5 11.3-0.9 4.1-2.2 8.4-3.9 12.9-1.8 4.4-3.8 9.1-6.4 13.7-2.6 4.6-5.4 9.3-8.8 13.8q-1.3 1.7-2.6 3.4-1.4 1.7-2.7 3.4-1.4 1.6-2.8 3.2-1.5 1.6-2.9 3.1l-1.4 1.5q-0.7 0.8-1.5 1.4-0.9 0.6-1.8 1-0.9 0.5-1.9 0.7-0.9 0.2-1.9 0.3-0.6 0-1.1-0.1-0.6 0-1.2-0.2-0.6-0.1-1.1-0.3-0.6-0.2-1.1-0.5-0.3-0.1-0.5-0.2-0.2-0.2-0.4-0.3-0.3-0.1-0.5-0.3-0.2-0.2-0.4-0.3-1.3-1-2.5-2c-4.6-3.6-8.8-7.5-12.7-11.6-3.8-4.1-7.4-8.3-10.5-12.6-1.5-2.1-3-4.3-4.3-6.4-1.4-2.2-2.7-4.2-3.9-6.3-1.1-2.1-2.3-4.1-3.2-6.2q-0.7-1.5-1.4-2.9c-0.5-1-0.9-2-1.3-2.9q-0.6-1.5-1.2-2.8-0.5-1.4-1-2.7-1-2.6-1.7-5c-0.5-1.7-0.9-3.1-1.2-4.5q-0.1-0.5-0.2-1-0.1-0.5-0.2-1-0.1-0.5-0.2-1-0.1-0.4-0.2-0.9c-0.4-2.4-0.5-4.4-0.4-5.8q0.2-2.1 1.1-2.7c0.6-0.3 1.5-0.1 2.5 0.5 1 0.7 2.2 1.9 3.6 3.4q0.3 0.3 0.6 0.6 0.3 0.3 0.5 0.6 0.3 0.4 0.6 0.7 0.3 0.3 0.6 0.6c0.7 1 1.6 2 2.5 3.1 0.9 1.1 1.9 2.3 2.9 3.5q0.8 0.9 1.6 1.9 0.8 0.9 1.7 1.9 0.8 1 1.7 2.1 0.9 1 1.8 2c1.2 1.5 2.6 2.9 3.9 4.4 1.4 1.4 2.8 2.9 4.3 4.4 1.5 1.5 3 3.1 4.6 4.6 3.1 3 6.6 6 10.2 9q1.9 1.7 3.9 3.3 0 0 0.1-0.1c0.5-0.9 4.5-8.2 11-18.8 6.2-9.9 14.6-22.7 24.2-35.5q0.3 0 0.6 0 0.3 0 0.6 0 0.2 0.1 0.5 0.1 0.3 0.1 0.6 0.2 2.1 0.7 3.5 3.1c1 1.5 1.8 3.6 2.3 6.2q0.3 1.9 0.5 4.2 0.1 2.3 0 4.8z"/><path class="D" d="m657.9 1566.6c-0.1 3.4-0.6 7.2-1.5 11.3-0.9 4.1-2.2 8.4-3.9 12.9-1.8 4.4-3.8 9.1-6.4 13.7-2.6 4.6-5.4 9.3-8.8 13.8q-1.3 1.7-2.6 3.4-1.4 1.7-2.7 3.4-1.4 1.6-2.8 3.2-1.5 1.6-2.9 3.1l-1.4 1.5q-0.7 0.8-1.5 1.4-0.9 0.6-1.8 1-0.9 0.5-1.9 0.7-0.9 0.2-1.9 0.3-0.6 0-1.1-0.1-0.6 0-1.2-0.2-0.6-0.1-1.1-0.3-0.6-0.2-1.1-0.5c29.6-6.2 11.8-51.7 11.8-51.7 6.2-9.9 14.6-22.6 24.2-35.5q0.3 0 0.6 0 0.3 0 0.6 0 0.2 0.1 0.5 0.1 0.3 0.1 0.6 0.2 2.1 0.7 3.5 3.1c1 1.5 1.8 3.7 2.3 6.2q0.4 1.9 0.5 4.2 0.1 2.3 0 4.8z"/><path class="E" d="m721.2 1997.3c5.4 10.3 8.1 22.5 7.8 34.6-10.1 1.1-20.3 1.6-30.4 0.4-1.3-5.7 0.7-11.5 2.4-17.1 1.7-5.5 3.5-11.4 2.5-17.2 5.7-0.4 12-0.9 17.7-0.7zm-62.4-6q-0.7 4.8-1 9.6-0.3 4.8-0.1 9.7 0.2 4.8 0.9 9.6 0.6 4.7 1.7 9.4c-14.2 3.8-29 4.3-43.4 2.1-1.8-2.6-1-7.1 0.7-9.8 1.8-2.7 4.5-4.2 7.2-5.2 2.7-1 5.5-1.6 8.1-3.2 5.8-3.4 9.4-11.7 8.5-19.4 5-3.2 11.8-3.8 17.4-2.8z"/><path class="I" d="m720.7 1999.2q-7.3 1-14.8 1.6-1.1 0-2.1-0.3-1-0.3-1.8-1-0.9-0.8-1.5-1.8-0.6-1-0.9-2.2c-7.7-31-18.6-90-26.2-194.3q-0.4-5.9-0.8-11.9-0.4-5.9-0.8-11.9-0.4-5.9-0.7-11.9-0.4-5.9-0.7-11.9-0.8 6-1.6 11.9-0.7 6-1.4 12-0.7 5.9-1.4 11.9-0.6 6-1.2 12c-5 52.8-7.7 119.5-2.1 191.9q0.1 1.2-0.1 2.3-0.2 1.2-0.7 2.2-0.5 1-1.2 1.8-0.7 0.8-1.6 1.2-0.3 0.2-0.6 0.3-0.4 0.2-0.7 0.2-0.4 0.1-0.7 0.2-0.4 0-0.7 0-2-0.1-3.9-0.2-1.9-0.2-3.8-0.3-1.9-0.1-3.9-0.3-1.9-0.2-3.8-0.3-1-0.1-2-0.6-1-0.6-1.7-1.4-0.8-0.9-1.3-2-0.5-1.1-0.6-2.4c-4.6-37.9-10.4-105.7-7.1-189.8q0.6-15.4 1.7-31.4 0.2-3.8 0.5-7.6 0.3-3.8 0.6-7.6 0.3-3.8 0.6-7.5 0.3-3.8 0.6-7.6 0.3-2.3 0.5-4.7 0.1-1.7 0.3-3.4 0.2-1.7 0.3-3.4 0.2-1.6 0.4-3.3 0.1-1.7 0.3-3.4 0.6-5.9 1.3-11.8 0-0.1 0-0.2 1.1-9.1 2.3-18.3 0.6-4.2 1.1-8.4 0.1-0.5 0.2-1 0.3-2.3 0.6-4.5l30.5-0.8 46.8-1.2q-0.2 2-0.4 4-0.3 2.1-0.4 4.1-0.2 2-0.4 4.1-0.2 2-0.3 4.1-0.2 2.2-0.4 4.7 0 0.4 0 0.9-0.2 2-0.3 4-0.1 2-0.2 4.1-0.1 2-0.2 4-0.1 2.1-0.2 4.1-0.2 3-0.3 6.1-0.1 3-0.2 6-0.1 3.1-0.2 6.1-0.1 3.1-0.1 6.1-0.1 3.6-0.2 7.4 0 3.4 0 6.7-0.1 3.4-0.1 6.8 0 3.4 0 6.8 0 3.4 0 6.7 0.1 13.2 0.4 28.2c1.2 48 4.7 110 12.8 187.8 0.4 4.2-2 7.9-5.5 8.3z"/><path fill-rule="evenodd" class="E" d="m659.1 2000.8q0.9-0.4 1.6-1.2 0.7-0.8 1.2-1.8 0.5-1 0.7-2.2 0.2-1.1 0.1-2.3c-5.6-72.4-2.9-139.1 2.1-191.9q0.6-6 1.2-12 0.7-6 1.4-11.9 0.7-6 1.4-12 0.8-5.9 1.6-11.9l-13.3-4c0 0-14.7 147.8 2 251.2zm11-321.5l-30.5 0.8q-0.3 2.2-0.6 4.5-0.1 0.5-0.2 1-0.5 4.2-1.1 8.4-1.2 9.2-2.3 18.3c12.5 0.1 56 2.7 77.7 35.6q0.1-3.8 0.2-7.4 0-3 0.1-6.1 0.1-3 0.2-6 0.1-3.1 0.2-6.1 0.1-3.1 0.3-6.1 0.1-2 0.2-4.1 0.1-2 0.2-4 0.1-2 0.2-4.1 0.1-2 0.3-4 0-0.5 0-0.9 0.2-2.5 0.4-4.7 0.1-2.1 0.3-4.1 0.2-2.1 0.4-4.1 0.1-2 0.4-4.1 0.2-2 0.4-4z"/><path class="J" d="m692.9 1527.6l-4.6-2 1.7 10.9z"/><path class="K" d="m638.3 1676.7q-0.5 3.8-1.1 7.5-0.5 3.8-1.1 7.6-0.6 3.8-1.2 7.6-0.6 3.8-1.2 7.5 2.4 0.4 4.8 0.7 2.5 0.3 4.9 0.6 2.4 0.3 4.9 0.5 2.4 0.2 4.9 0.4 8 0.6 16 0.7 8 0.1 16-0.3 8-0.4 15.9-1.3 8-0.9 15.9-2.2c0.1-4 0.2-8.6 0.3-13.5 0.5-18 1.3-41.3 2.5-62.2 0.8-13.4 1.6-25.8 2.7-35q0.3-2.7 0.5-5.5l12.5 10.7c13.4-11.4 15-31.9 15-31.9-7-6.2-13.5-11.3-19.5-15.4-22.8-15.7-37.8-17.9-38.7-18q0 0 0 0-0.1-0.1-0.2-0.1-6.8-3.3-13.5-6.6c-5.2 3.2-11 6.4-16.8 9.6q-1.9 1.1-3.9 2.1c-2.1 1.2-5.5 3.2-8.3 4.9q-1.4 0.8-2.7 1.8-1.3 1.1-2.5 2.3-1.1 1.3-2.2 2.7-1 1.5-1.8 3.1l-14.3 26.6c0 0 3.9 18.5 18.1 27.3q-0.3 6.5-0.7 13.1-0.4 6.6-0.9 13.2-0.5 6.5-1.2 13.1-0.6 6.5-1.3 13.1-0.3 2.5-0.6 5.1-0.6 5-1.2 10.2z"/><path class="C" d="m789.6 1629.4c0 4.2-1.7 8.2-4.8 10.7q-1.5 1.2-3.1 2.4-1.6 1.1-3.2 2.3-1.6 1.1-3.3 2.1-1.6 1.1-3.3 2.1c-2.1 1.3-4.2 2.4-6.3 3.5-2.1 1-4.1 2-6.1 2.9-2 0.9-4 1.7-5.9 2.4-1.9 0.7-3.7 1.4-5.5 2-1.8 0.5-3.5 1-5.2 1.5q-1.3 0.3-2.5 0.6-1.2 0.3-2.3 0.5-0.5 0.1-1.1 0.2-0.5 0.1-1.1 0.2-0.5 0.1-1.1 0.2-0.5 0.1-1.1 0.2-0.4 0.1-0.9 0.1-0.5 0.1-1 0.2-0.5 0-1 0.1-0.5 0-0.9 0.1-1.2 0.1-2.3 0.2-0.1 0-0.2 0.1-0.1 0.1-0.2 0.2-0.1 0-0.2 0.1-0.1 0.1-0.2 0.1c-1.2 0.6-2.5 0.2-3.8 0.3-3.4 0.1-6.6 3.1-8 7.5-0.6 1.8-1.2 4-2.5 4.3-1 0.2-1.9-1-2.6-2-1.5-2.5-2.9-5.2-3.7-8.3-0.7-3.1-0.6-6.8 0.6-9.5 1.1-2.3 2.8-3.7 4.6-4.6 4.9-2.4 10.5-1.5 14.9 2.3l1.2-0.8q0.4-0.2 0.8-0.5 0.4-0.3 0.9-0.5 0.4-0.3 0.8-0.5 0.4-0.3 0.8-0.6c1.1-0.7 2.4-1.4 3.6-2.3q1-0.6 2-1.3 0.9-0.6 2-1.3c1.3-0.9 2.7-2 4.2-3 1.5-1 2.9-2.2 4.4-3.3 1.5-1.2 3.1-2.4 4.6-3.7q1.3-1 2.5-2.1 1.2-1 2.4-2.1 1.2-1.1 2.4-2.2 1.2-1.1 2.4-2.3-0.5-0.6-0.9-1.1-1.4-1.7-2.8-3.4-0.5-0.5-0.9-1.1-0.4-0.5-0.9-1-0.4-0.5-0.9-1.1-0.4-0.5-0.9-1-0.9-1.1-1.9-2.2-0.9-1.1-1.9-2.2-1-1.1-1.9-2.1-1-1.1-2-2.1c-1.8-2.1-3.8-4-5.5-5.9q-1.1-1.1-2.1-2.1-1.3-1.3-2.6-2.6c10.8-9.7 13.6-25.3 14.2-30q1.4 1.3 2.9 2.7 0.8 0.8 1.6 1.6 0.7 0.8 1.5 1.6 0.8 0.8 1.5 1.6 0.8 0.8 1.6 1.6c2 2.3 4.1 4.7 6.1 7.2 3.3 4.1 6.5 8.6 9.6 13.3q0.3 0.4 0.5 0.8 0.3 0.4 0.6 0.8 0.2 0.4 0.5 0.8 0.2 0.4 0.5 0.8 1.4 2.2 2.7 4.5c0.5 0.7 0.9 1.5 1.3 2.2q0.6 1.2 1.3 2.3 0.6 1.2 1.2 2.3c0.4 0.7 0.8 1.5 1.2 2.3q1.1 2.3 2.3 4.5l0.9 1.9q0.4 0.8 0.7 1.6 0.2 0.8 0.4 1.6 0.2 0.8 0.3 1.7 0.1 0.8 0.1 1.7z"/><path class="L" d="m704.2 1481.7l-6 21.5c-1.4 5-3.1 10.4-6.7 13.3-3.3 2.7-8 2.5-11.3-0.3 5.2-5.2 9.3-11.7 11.8-19.3 1.1-3.6 1.9-7.4 3.7-10.5 1.8-3.2 5.4-5.3 8.5-4.7z"/><path class="C" d="m665.4 1539c8.9 2.7 18.1 3.1 27 1.1q-0.7-2.1-1.2-4.2-0.5-2.2-0.8-4.4-0.3-2.2-0.5-4.4-0.1-2.2-0.1-4.4 0-0.1 0-0.1 0 0 0-0.1 0 0 0 0 0-0.1 0-0.1 0.1-3.8 0.7-7.6 0.2-1.1 0.4-2.1 0.2-1 0.4-2.1 0.2-1 0.5-2 0.3-1 0.6-2 0.4-1 0.7-2 0.4-1.1 0.8-2 0.4-1 0.9-2 0.4-0.9 0.9-1.9-0.6 0-1.3-0.1-0.6 0-1.3-0.1-0.6 0-1.2 0-0.7 0-1.3 0.1c-8.8 0.4-17.6 4.7-21.9 12.6q0.2 3.7 0.1 7.4 0 0.4 0 0.9 0 0.4 0 0.8 0 0.4-0.1 0.8 0 0.4 0 0.8-0.1 0.5-0.1 1.1 0 0.5-0.1 1 0 0.6-0.1 1.1-0.1 0.5-0.1 1-0.1 0.7-0.2 1.3-0.1 0.6-0.2 1.2-0.1 0.6-0.2 1.2-0.1 0.6-0.2 1.2-0.2 1-0.5 2.1-0.2 1-0.4 2-0.3 1-0.6 2-0.3 1-0.6 1.9z"/><path class="D" d="m668.3 1526.1q-0.1 0.8-0.2 1.5c19.6 0.9 24.8-27.7 24.8-27.7l-2.3-1.3c-8.8 0.4-17.6 4.7-21.9 12.6q0.2 3.7 0.1 7.4 0 0.4 0 0.9 0 0.4 0 0.8 0 0.4-0.1 0.8 0 0.4 0 0.8-0.1 0.5-0.1 1.1 0 0.5-0.1 1 0 0.6-0.1 1.1-0.1 0.5-0.1 1z"/><path class="m" d="m667.9 1462.3c-2.5 7-2.4 15.4 0.4 22.2 1-5.3 1.9-10.3 2.9-15.6 0.5-2.4 0.8-5.3-0.6-7.2-0.4-0.5-1-1-1.7-0.8-0.6 0.1-1.3 0.7-1 1.4z"/><path class="C" d="m669.8 1460.1c0.9 10.6-1.2 21.5-5.8 30.5-2.5 5.2-6.1 10.3-5.9 16.3 0.1 7.9 7.1 13.8 13.7 13.4 6.5-0.5 12.2-5.7 16.4-11.8 7.6-11.3 11.2-26.4 9.7-40.8-7.9-5.7-19-8.7-28.1-7.6z"/><path class="M" d="m669.9 1501.3q-0.7-0.1-1.4-0.3-0.6-0.1-1.3-0.4-0.7-0.3-1.3-0.6-0.7-0.4-1.3-0.8-0.1-0.1-0.3-0.1-0.1 0-0.2 0.1-0.2 0-0.2 0.2-0.1 0.1-0.1 0.3c-0.2 1.3 0 2.5 0.7 3.5q0.4 0.4 0.8 0.8 0.4 0.3 0.9 0.6 0.5 0.2 1 0.3 0.5 0 1-0.1c1.1-0.1 1.7-1.3 2.2-2.5q0.1-0.1 0-0.3 0-0.2 0-0.3-0.1-0.2-0.2-0.3-0.1-0.1-0.3-0.1z"/><path class="D" d="m775.1 1599.6q-1.1-0.5-2.3-1-1.1-0.5-2.3-0.9-1.2-0.3-2.3-0.6-1.2-0.3-2.4-0.5c-9.3-1.7-18.9 0.5-27.1 6q-1.3-1.3-2.6-2.6c10.8-9.7 13.6-25.3 14.2-30q1.4 1.3 2.9 2.7 0.8 0.8 1.6 1.6 0.7 0.8 1.5 1.6 0.8 0.8 1.5 1.6 0.8 0.8 1.6 1.6c2 2.3 4.1 4.6 6.1 7.2 3.3 4.1 6.5 8.6 9.6 13.3z"/><path class="N" d="m692.9 1527.6c0 0-4.1 12.6-19.1 13.3l5.4 15.2c0 0 12.2-4.4 18-19.8zm-19 13.2c0 0-6-2.5-6.4-9.8l-5.7 7.1c0 0-0.2 12.6 3.6 16.7z"/><path fill-rule="evenodd" class="O" d="m695.9 1489.4q0 0 0 0.1 0 0 0 0 0.1 0.1 0.1 0.1v0.1l-0.1 0.1q-0.1 0.1-0.2 0.1 0 0-0.1 0 0 0 0 0-0.1-0.1-0.1-0.1 0 0 0 0 0 0-0.1 0-0.2-0.2-0.6-0.5-0.2-0.2-0.6-0.5-0.1-0.1-0.2-0.2-0.2-0.1-0.3-0.2-0.2-0.1-0.3-0.2-0.1-0.1-0.3-0.2-0.1-0.1-0.3-0.2-0.2-0.1-0.5-0.3-0.2-0.1-0.4-0.2-0.3-0.1-0.5-0.2-0.3-0.2-0.5-0.3-0.2 0-0.4-0.1-0.8-0.3-1.6-0.5-0.9-0.2-1.7-0.2h-0.3c-0.3 1.4-1.1 2.7-2.2 3.7-1.1 0.9-2.5 1.3-3.8 1.1q-0.4-0.1-0.8-0.2-0.4-0.2-0.7-0.4-0.4-0.2-0.7-0.4-0.3-0.3-0.6-0.6-0.3-0.4-0.5-0.8c-0.8-1.2-1.1-2.9-0.9-4.5q0-0.4 0.1-0.6 0.1-0.3 0.1-0.6 0.1-0.3 0.2-0.6 0.2-0.3 0.3-0.5 0.3-0.6 0.7-1.1-0.2-0.1-0.3-0.2-0.1-0.1-0.2-0.1-0.2-0.1-0.3-0.2-0.1 0-0.2-0.1c-0.5-0.1-1-0.1-1.4-0.1q0.1 0.8-0.1 1.7c-0.3 1.5-1 2.9-2.1 4-1.1 1-2.5 1.4-3.7 1.3q-0.6-0.1-1.1-0.3-0.3-0.1-0.6-0.3-0.4-0.2-0.7-0.4-0.3-0.3-0.5-0.6-0.3-0.3-0.5-0.6 0 0-0.1 0 0 0 0 0 0-0.1 0-0.1 0 0 0 0c-0.8-1.2-1.2-2.8-1-4.5q0-0.3 0.1-0.6 0-0.3 0.1-0.5 0.1-0.3 0.2-0.6 0.1-0.3 0.2-0.6 0.1-0.2 0.3-0.5 0.1-0.3 0.3-0.5 0.2-0.2 0.3-0.4 0.2-0.3 0.4-0.4 0.1-0.1 0.2-0.2 0 0 0.1-0.1 0.1 0 0.2-0.1 0-0.1 0.1-0.1 0.2-0.1 0.3-0.2 0.2-0.1 0.3-0.2 0.2 0 0.3-0.1 0.2-0.1 0.4-0.1 0 0 0.1-0.1 0.1 0 0.2 0 0.1 0 0.2 0 0-0.1 0.1-0.1 0.2 0 0.4 0 0.1 0 0.3 0 0.2 0 0.3 0 0.2 0 0.4 0 0.1 0 0.2 0.1 0.1 0 0.2 0 0.2 0 0.3 0.1 0.1 0 0.2 0 0.1 0.1 0.3 0.1 0.1 0.1 0.2 0.1 0.1 0.1 0.2 0.2 0.1 0 0.2 0.1 0.3 0.1 0.5 0.3 0.2 0.2 0.4 0.4 0.2 0.1 0.4 0.4 0.2 0.2 0.4 0.4 0.2 0.2 0.3 0.4 0.1 0.2 0.2 0.4 0.1 0.2 0.2 0.4 0.1 0.2 0.2 0.5 0.2-0.1 0.4-0.1 0.3-0.1 0.5-0.1 0.2 0 0.5 0.1 0.2 0 0.5 0.1 0 0 0.1 0 0.2 0.1 0.4 0.2 0.2 0.1 0.4 0.3 0.2 0.1 0.3 0.3 0.2 0.1 0.4 0.3 0.7-0.6 1.6-0.8 0.3-0.1 0.5-0.1 0.3 0 0.5-0.1 0.3 0 0.6 0.1 0.2 0 0.5 0 0.5 0.1 0.9 0.3 0.5 0.2 1 0.5 0.4 0.3 0.8 0.7 0.4 0.4 0.7 0.9 0.2 0.2 0.3 0.5 0.2 0.3 0.3 0.5 0.1 0.3 0.2 0.6 0.1 0.3 0.1 0.7 0.2 0.6 0.1 1.4h0.1q0.3 0 0.5 0 0.2 0 0.5 0 0.2 0 0.4 0 0.3 0 0.5 0 0.1 0 0.3 0.1 0.1 0 0.2 0 0.2 0.1 0.3 0.1 0.2 0 0.3 0.1 0.1 0 0.2 0 0.1 0 0.2 0.1 0.1 0 0.2 0 0 0.1 0.1 0.1 0.2 0.1 0.4 0.1 0.3 0.1 0.5 0.3 0.3 0.1 0.6 0.2 0.2 0.2 0.5 0.3 0.2 0.2 0.5 0.4 0.2 0.1 0.4 0.3 0.1 0.1 0.3 0.3 0.2 0.2 0.4 0.3 0.2 0.2 0.4 0.4c0.4 0.5 0.8 1.1 1 1.5q0 0 0 0zm-21.4-9.7q0-0.2 0-0.3-0.1-0.1-0.1-0.2-0.2-0.8-0.7-1.4-0.1-0.2-0.2-0.3-0.2-0.2-0.4-0.3l-0.1-0.1q-0.1-0.1-0.2-0.2l-0.4-0.2q0 0 0 0-0.3-0.2-0.7-0.4-0.4-0.1-0.8-0.2-0.8-0.1-1.5 0.1-0.1 0-0.1 0.1-0.2 0-0.3 0.1-0.2 0-0.3 0.1-0.2 0.1-0.3 0.2-0.1 0.1-0.3 0.2-0.1 0.1-0.2 0.1-0.6 0.5-1 1.4c-0.3 0.5-0.5 1.2-0.5 1.8q-0.1 0.4-0.1 0.8 0 0.4 0.1 0.8 0 0.4 0.1 0.8 0.1 0.4 0.3 0.8 0 0.1 0.1 0.1 0 0.1 0 0.2 0.1 0 0.1 0.1 0 0.1 0.1 0.1 0.2 0.4 0.5 0.8 0.3 0.3 0.7 0.5 0.4 0.3 0.7 0.4 0.4 0.2 0.8 0.2c2.2 0.2 4.3-1.9 4.7-4.6q0.2-0.8 0-1.5zm11.4 4q-0.2-0.9-0.7-1.7l-0.1-0.1q-0.1-0.1-0.2-0.2-0.1-0.2-0.3-0.3l-0.1-0.1q-0.1-0.1-0.2-0.2l-0.3-0.3q-0.5-0.3-1-0.4-0.3-0.1-0.5-0.2-0.3 0-0.6-0.1-0.2 0-0.5 0.1-0.3 0-0.5 0-0.7 0.2-1.5 0.8-0.2 0.1-0.4 0.3-0.1 0.1-0.2 0.2-0.1 0.2-0.1 0.3-0.1 0.1-0.2 0.2-0.1 0.2-0.2 0.3-0.4 0.8-0.6 1.8 0 0.5 0 1 0 0.4 0 0.9 0.1 0.5 0.3 1 0.1 0.4 0.3 0.8 0.2 0.4 0.5 0.6 0.2 0.3 0.5 0.6 0.2 0.2 0.5 0.4 0.3 0.2 0.7 0.3 0 0 0.1 0 0.1 0.1 0.1 0.1 0.1 0 0.2 0 0.1 0 0.1 0c2.1 0.3 4.3-1.6 4.9-4.2v-0.1q0-0.1 0-0.3 0.1-0.8 0-1.5z"/><path class="C" d="m571 1571.9c-3.8 1.2-7.9 0.9-11.5-1.2-3.5-2.1-6.3-6.1-7.2-10.7-1-4.6 0.1-9.8 2.8-13.2 3.7 6.3 10.9 8.3 13.9 15 1.5 3.3 1.8 6.4 2 10.1z"/><path class="O" d="m576.5 1557.7l-13.8-33.7q-0.2-0.7-0.7-1.3-0.4-0.5-1-0.8-0.5-0.3-1.2-0.2-0.6 0-1.2 0.3l-13.2 6.4q-0.7 0.4-1.1 1-0.5 0.7-0.7 1.6-0.2 0.8 0 1.7 0.1 0.8 0.5 1.5l18.5 33.4q0.4 0.6 0.9 0.9 0.5 0.4 1 0.5 0.6 0.2 1.1 0.1 0.6-0.2 1.1-0.5l8.6-6.2q0.4-0.4 0.8-0.9 0.3-0.5 0.5-1.2 0.2-0.6 0.2-1.3-0.1-0.7-0.3-1.3z"/><path class="i" d="m561.2 1525.8l-14.1 7.1 16.7 31.6 10.4-6.4z"/><path class="C" d="m578.1 1562.3c1-2.6 1.5-5.4 1.3-8.2-0.2-2.8-1.3-5.6-3.1-7.4-1.8-1.8-4.3-2.5-6.5-1.7-0.7 0.3-1.5 0.8-1.9 1.6-1 1.8-0.1 4.3 1.4 5.5 1.5 1.1 3.3 1.2 5 1.3-1.2 1.6-1.8 4-2 6.1-0.3 2.2 0.1 4.5 1.3 6.2 1.1 1.7 3 2.7 4.8 2.3 0.3-1.9-1-4.1-0.3-5.7z"/><path class="P" d="m696.9 1490.8q0 0 0 0-0.1 0-0.1 0 0 0 0 0 0 0 0 0.1-0.1 0-0.3 0.1-0.2 0.1-0.4 0.2-0.1 0.1-0.3 0.2-0.2 0-0.4 0.1c-3-2.6-5-7.1-5.1-11.6-0.1-4.6 1.6-9.2 4.5-12.1-7.8 1.4-16.4 2-23.1-2.9-4-2.8-6.9-7.6-7.9-13-1-5.4-0.2-11.3 2.3-16 4.7 2 9.4 1.6 14.4 2.3 5 0.7 10.2 2.1 14 6.1 2.8 3 4.6 8.1 2.8 12.1 2.6 0.7 5.5 1.8 7.9 3.2 1.3 0.7 2.2 2.1 2.6 3.8 3.3 15-10.2 26.8-10.9 27.4z"/><path class="C" d="m694.9 1488.3c-0.2-1.5 0.8-3.1 2-3.4 1.3-0.4 2.7 0.3 3.4 1.6 0.8 1.2 1.1 2.9 1 4.4-0.2 1.6-0.7 3-1.3 4.4-1 2-2.3 3.8-4.1 4.7-1.8 0.9-4 0.5-5.2-1.3 2.1-3.2 4.7-6.4 4.2-10.4z"/><path class="D" d="m2288.6 1648.8l-4.2 10.1q-1.2-0.6-2.3-1.3-1.2-0.6-2.4-1.2-1.2-0.7-2.3-1.3-1.2-0.7-2.4-1.3c-6-3.4-12.6-7.4-19.1-11.9q-0.3-6.4-0.3-12.8 0.3-1 0.6-2.1 0.2-1.1 0.5-2.2 0.2-1 0.5-2.1 0.2-1.1 0.5-2.2c7.5 9.8 18.2 21.2 30.9 28.3z"/><path class="Q" d="m2199.5 1451.1c-5.2 6-8.4 14.8-9 24.1-0.4 6 0.4 12.2-0.9 18-2.2 10-9.6 15.9-16.8 19.6-7.2 3.6-15 6.1-20.6 13.2-7.9 9.8-9.4 27-4.7 40.1 4.6 13 14.5 21.8 25 24.6 10.2 2.8 21.2 0.2 30.2-7.1 8.9-7.3 15.8-19.2 18.9-32.8 1.9-8.5 2.6-17.9 6.7-24.7 2.6-4.4 6.4-7.1 9.6-10.7 9.4-10.7 13.2-29.7 9-45.3-6.6-24.6-32.3-36.9-47.4-19z"/><path class="m" d="m2254.6 1711.8c0.2-10.2 0-19.6-0.8-28.2q-0.2-3.2-0.6-6.2-0.1-0.7-0.2-1.5-0.1-0.7-0.2-1.4-0.1-0.8-0.2-1.5-0.1-0.7-0.2-1.5c-0.6-3.7-1.3-7.3-2.1-10.5-0.8-3.3-1.6-6.3-2.6-9q-1.5-4.1-3.1-7.3-0.4-0.8-0.8-1.5-0.4-0.7-0.8-1.4-0.5-0.7-0.9-1.4-0.5-0.7-1-1.3-1.8-2.4-3.7-3.8c-2.6-2-5.2-2.7-7.9-2.2-2.7 0.5-5.2 2.2-7.5 4.9q-1.8 2.1-3.4 4.9-1.5 2.7-3 6.2-1.4 3.5-2.6 7.6c-0.7 2.8-1.5 5.7-2.2 8.8q-0.2 1.3-0.5 2.5-0.2 1.3-0.5 2.5-0.2 1.3-0.4 2.5-0.2 1.3-0.4 2.5-0.4 2.7-0.8 5.4-0.3 2.8-0.7 5.7-0.3 3.2-0.6 6.3-0.3 3.2-0.5 6.4-0.2 3.1-0.4 6.3-0.2 3.2-0.3 6.4c-0.5 9.1-0.7 18.8-0.9 29.2-0.1 10.4-0.1 21.4-0.2 33-0.1 10.1-0.2 20.5-0.3 31.4l-0.2 0.3c-1.6 2.5-3.1 4.9-4.6 7.4l-4.7 7.4c-1.5 2.5-3.1 5-4.7 7.5-7.2 11.4-14.4 22.4-21.3 33.1-3.5 5.3-6.9 10.6-10.3 15.6l-5 7.6-4.9 7.3-2.4 3.6-2.5 3.5q-0.6 0.9-1.1 1.8-0.6 0.8-1.2 1.7-0.6 0.9-1.2 1.7-0.6 0.9-1.2 1.8l-9.1 13.1-8.6 12.3q-1 1.4-2 2.8-1 1.4-2 2.8-1 1.4-2 2.8-1 1.4-2 2.8l-13.8 19.3-5.7 8q-0.6 0.8-1.2 1.7-0.6 0.8-1.2 1.7-0.6 0.8-1.2 1.7-0.6 0.8-1.1 1.7c-2.9 4.1-5 7.4-6.4 9.9-1.3 2.5-1.9 4.2-1.5 4.9 0.3 0.7 1.6 0.5 3.6-0.6 2-1 4.9-3 8.5-5.6q2.7-2.1 5.9-4.7l3.4-2.7q1.7-1.5 3.5-3.1c2.5-2.1 5.1-4.4 7.9-6.9l8.7-8q4.5-4.3 9.4-9 4.9-4.8 10.2-10.1c3.4-3.6 7-7.3 10.7-11.2l5.5-5.9 2.8-3.1 2.9-3.1 5.7-6.4c2-2.2 3.9-4.5 5.9-6.7 3.9-4.5 7.8-9.3 11.9-14.1 7.9-9.7 16.1-20 24.2-31 1.8-2.4 3.6-4.7 5.3-7.1l5.2-7.2c1.7-2.4 3.4-4.8 5-7.2l5-7.2 2.3-3.3 2.1-8.7c3.6-12.9 6.8-25.6 9.3-38q1-4.5 1.8-8.9 0.8-4.5 1.6-9 0.7-4.5 1.4-9 0.6-4.6 1.2-9.1c1.4-11.5 2.2-22.5 2.5-32.7z"/><path class="R" d="m2356.5 2017.7c-1.2 0.5-3.8-4.6-7.5-13.9q-0.4-1-0.8-1.9-0.4-1-0.8-2-0.4-1-0.7-1.9-0.4-1-0.8-2-1.7-4.3-3.6-9.2c-2.7-6.7-5.5-14.3-8.8-22.5q-2.5-6.3-5.1-13.1c-0.9-2.2-1.9-4.5-2.8-6.8q-1.5-3.5-2.9-7.2-1.5-3.6-3-7.3-0.8-1.9-1.6-3.8-0.7-1.9-1.6-3.8-3.2-7.6-6.5-15.7c-1.1-2.7-2.3-5.4-3.5-8.2q-1.8-4.1-3.6-8.2-1.8-4.2-3.6-8.5-1.9-4.3-3.8-8.6-0.4-1.1-0.9-2.2-0.5-1.1-1-2.1-0.4-1.1-0.9-2.2-0.5-1.1-1-2.2-0.2-0.6-0.5-1.1-0.2-0.6-0.4-1.1-0.3-0.6-0.5-1.1-0.2-0.6-0.5-1.1-1-2.2-2-4.5-1-2.2-2-4.4-1-2.3-2-4.5-1-2.3-2-4.6-0.9-2.2-1.9-4.5-1-2.2-2.1-4.4-1-2.3-2-4.5-1-2.3-2-4.5-1-2.3-2-4.5-0.2-0.6-0.4-1.1-0.3-0.6-0.5-1.1-0.3-0.6-0.5-1.1-0.3-0.6-0.5-1.1-1-2.2-2-4.4l-3.8-8.6q-1.9-4.3-3.7-8.5-1.9-4.2-3.7-8.3-0.5-1-0.9-2-0.5-1.1-0.9-2.1-0.4-1-0.9-2-0.4-1-0.9-2.1c-1.1-2.7-2.2-5.4-3.4-8q-0.8-1.9-1.7-3.8-0.8-1.9-1.6-3.9-0.8-1.9-1.6-3.8-0.8-2-1.6-3.9-0.8-1.9-1.6-3.8l-1.5-3.7q-0.4-0.9-0.7-1.8-0.4-0.9-0.8-1.8-0.3-0.9-0.7-1.8-0.4-0.9-0.7-1.8-0.4-0.9-0.7-1.8-0.4-0.9-0.7-1.8-0.4-0.9-0.7-1.7-0.4-0.9-0.7-1.8c-0.9-2.3-1.7-4.7-2.6-6.9-1.7-4.5-10.5-22-12.6-25.5-4.7-7.7-8.1-16.9-8.3-26.6-0.2-9.1 2.4-18 5.1-26.6 2.5-8.2 4.5-17.1 7-25.3 2 0.3 4.9-1.6 6.9-1.2 4.3 0.6 8.6 1.3 13 1.2 4.6 0 8.6-0.5 12.9-2.2-0.7 20.9 0.8 42.1 5.1 62.3q1.2 1.8 2.4 3.8 0.9 1.5 1.9 3 0.9 1.4 1.7 2.9 0.9 1.5 1.8 3 0.9 1.5 1.8 3c1.2 2.1 2.4 4.3 3.5 6.6q0.5 0.8 1 1.7 0.4 0.8 0.9 1.7 0.4 0.9 0.8 1.7 0.5 0.9 0.9 1.7 0.5 0.9 0.9 1.8 0.5 0.9 1 1.8 0.4 0.9 0.9 1.8 0.4 0.9 0.9 1.8 0.9 1.8 1.8 3.7 0.9 1.9 1.7 3.8 1 2 1.9 4 0.9 2 1.8 4 0.8 2 1.7 4 0.9 2 1.8 4c1.2 2.7 2.3 5.5 3.5 8.4q0.4 1.1 0.9 2.2 0.4 1.1 0.8 2.1 0.5 1.1 0.9 2.2 0.4 1.1 0.8 2.2 1.8 4.4 3.5 8.9l3.3 9.2q1.7 4.7 3.4 9.5 0.8 2.3 1.6 4.7 0.8 2.5 1.6 4.9 3.2 9.8 6.3 19.9 3 10.2 5.8 20.1 0.7 2.5 1.4 4.9 0.6 2.5 1.3 5 1.2 4.9 2.5 9.8 1.2 4.9 2.5 9.6l2.2 9.5q1.1 4.7 2.2 9.3c0.6 3.1 1.4 6.1 2 9.2q1.9 9 3.7 17.6 0.4 2.1 0.9 4.3 0.4 2.1 0.8 4.2 0.7 4.2 1.5 8.2l1.5 8c0.4 2.6 0.9 5.1 1.4 7.6q0.3 1.8 0.5 3.6 0.3 1.9 0.6 3.7 0.3 1.8 0.6 3.6 0.3 1.8 0.6 3.6c1.6 9.2 2.7 17.6 3.7 25q0.8 5.5 1.4 10.2 0.5 4.8 0.9 8.7c1 10.5 1.1 16.4-0.1 16.8z"/><path class="S" d="m2257.7 1620.5q-1 4.6-2.2 9.2-1.8 0.3-3.7 0.5-1.8 0.2-3.7 0.3-1.8 0.1-3.7 0.1-1.9 0-3.7-0.2c-6.9-0.4-13.4-1.9-19.2-4.2q-0.5-5.5-1.5-11-1-5.4-2.4-10.7-1.5-5.3-3.4-10.4-1.9-5.1-4.2-9.9c-1.8-3.7-3.8-7.3-5.7-11-1.4-2.7-2.7-5.4-3.8-8.1-5-2.2-8.1-4.1-8.1-4.1 2.8-35.3 20.3-34.5 20.3-34.5v0.1h0.2q0.6-0.1 1.2-0.2 0.6-0.1 1.2-0.1 0.6-0.1 1.2-0.1 0.6 0 1.3 0c5.5-0.1 10.1 2 15.6 2.6q0.5 0.1 1.1 0.1 0.5 0.1 1.1 0.2 0.6 0.2 1.1 0.3 0.6 0.2 1.1 0.3 0.3 0.1 0.5 0.2 0.2 0.1 0.4 0.1 0.3 0.1 0.5 0.2 0.2 0.1 0.4 0.2c0.7 0.6 25.3 23 18.1 90.1z"/><path class="T" d="m2077.1 2023.2c-3.2-4-4.9-9.9-4.5-15.5 0.5-5.7 2.9-10.7 5.3-15.6 1-2.1 2-4.2 3.6-5.6 1.6-1.3 3.9-1.8 5.5-0.4 2.1 1.9 1.9 5.7 1.6 8.8q-0.4 3.3-0.5 6.7-0.2 3.3-0.2 6.6 0.1 3.3 0.3 6.7 0.2 3.3 0.6 6.6c0.6 4.2 2.2 8-2.5 7.5-3.4-0.4-6.9-2.8-9.2-5.8z"/><path class="C" d="m2215.8 1496.6v0.2c0.6 6.7 0.7 13.6 0.3 20.4q0 0.1 0 0.2 0 0 0 0.1 0 0.4-0.1 0.8 0 0.4 0 0.9-0.1 0.4-0.1 0.8 0 0.4-0.1 0.9c0.2 0.4 8 14.7 19.2 14.8q0.2-0.1 0.5-0.2 0 0 0-0.1c0.6-0.6 1.6-2.3 0.4-6.1q-0.5-1.7-1.1-3.5-0.5-1.7-0.9-3.4-0.5-1.8-0.9-3.5-0.4-1.8-0.8-3.6-0.1-0.2-0.1-0.5-0.1-0.3-0.1-0.6-0.1-0.2-0.1-0.5-0.1-0.3-0.1-0.6-0.3-1.2-0.5-2.3-0.2-1.2-0.3-2.4-0.2-1.2-0.3-2.5-0.2-1.2-0.3-2.4-0.1-0.9-0.2-1.9-0.1-0.9-0.2-1.9 0-0.9-0.1-1.9-0.1-1-0.1-1.9c-1.8-2.2-3.8-4-5.9-5.6-3.8-2.9-8.7 0.9-8.1 6.3z"/><path class="D" d="m2215.8 1496.6v0.2c0.6 6.7 0.7 13.6 0.3 20.4q0.7-0.4 1.3-0.7 0.7-0.3 1.3-0.6 0.7-0.3 1.4-0.5 0.7-0.2 1.3-0.4c3.4-1.1 6.9-1.6 10.4-1.9q-0.3-1.2-0.5-2.3-0.2-1.2-0.3-2.4-0.2-1.2-0.3-2.5-0.2-1.2-0.3-2.4-0.1-0.9-0.2-1.9-0.1-0.9-0.2-1.9 0-0.9-0.1-1.9-0.1-1-0.1-1.9c-1.8-2.2-3.8-4-5.9-5.6-3.8-2.9-8.7 0.9-8.1 6.3z"/><path class="C" d="m2214.8 1493.9c0.3 1.7 0.7 3.3 1 5q0.1 0.9 0.2 1.8 0.2 0.4 0.4 0.8c2.5 4.3 5.9 8.2 10 9.7 4.2 1.6 9.3 0.3 11.9-4 2.3-3.9 2.2-9.4 0.9-14-1.2-4.7-3.4-8.9-4.8-13.5-0.7-2.3-1.2-4.8-1.2-7.3-0.1-2 0.2-4 0.8-5.8-1.4 1.7-3.1 3-4.8 4.1-3 1.9-6.2 3.3-9.1 5.4-2.8 2.2-5.4 5.4-6 9.4-0.5 2.8 0.1 5.7 0.7 8.4z"/><path class="C" d="m2214 1489.3q-0.1-0.3-0.3-0.6-0.3-0.3-0.5-0.5-0.3-0.2-0.6-0.3-0.3-0.1-0.6-0.1-0.3 0-0.6 0-0.3 0.1-0.6 0.3-0.3 0.2-0.6 0.4-0.2 0.2-0.4 0.6c-0.6 0.9-0.6 2.2-0.4 3.4q0.2 0.6 0.4 1.2 0.3 0.6 0.6 1.1 0.4 0.6 0.8 1 0.5 0.4 0.9 0.7 0.6 0.3 1.1 0.5 0.5 0.1 1.1 0.1 0.6 0.1 1.1-0.1 0.5-0.1 1.1-0.4c-0.5-2.4-1.4-5.1-2.5-7.3z"/><path class="M" d="m2231.8 1499q0.6-0.1 1.1-0.2 0.6-0.2 1.2-0.4 0.5-0.2 1.1-0.5 0.5-0.3 1-0.7c0.3-0.2 0.7 0 0.7 0.5 0.1 1 0 2-0.6 2.8q-0.3 0.4-0.7 0.7-0.3 0.3-0.7 0.5-0.4 0.2-0.8 0.3-0.5 0-0.9 0c-0.9-0.2-1.4-1.1-1.8-2.1q-0.1-0.2-0.1-0.3 0-0.2 0.1-0.3 0.1-0.1 0.2-0.2 0-0.1 0.2-0.1z"/><path class="e" d="m2215.8 1520.9c0 0 7.9 14.8 19.4 14.8l-4.2 10.3c0 0-12.6-5.9-18.3-19.5zm20.1 8.4l-1.3-4.2 5 5.3c0 0 2.7 9.4-0.6 14.3l-3.9-8.9c0-0.1 2.4-1.4 0.8-6.5z"/><path class="T" d="m2383.7 2022.1c-3.3 4.1-8.1 6.2-12.8 5.6-4.6-0.6-8.8-3.6-12.8-6.6-1.7-1.2-3.5-2.5-4.6-4.5-1.2-2-1.5-4.9-0.4-6.9 1.6-2.6 4.7-2.3 7.3-1.9q2.7 0.4 5.5 0.6 2.7 0.2 5.5 0.2 2.7-0.1 5.4-0.3 2.8-0.3 5.5-0.8c3.5-0.7 6.6-2.8 6.2 3.1-0.3 4.3-2.3 8.6-4.8 11.5z"/><path class="f" d="m2479.1 1694.9v146.8h-78.1v-146.8z"/><path class="U" d="m2570.6 1738.8v141.2h-94.7v-141.2z"/><path class="f" d="m2576.1 1864.3v38.3h-87.9v-38.3z"/><path class="U" d="m2459.2 1759.3v141.2h-79.5v-141.2z"/><path class="n" d="m2530 1807v95.5h-101.1v-95.5z"/><path fill-rule="evenodd" class="V" d="m2607.9 1733.5l-7.1 42.9-8.8 53-12.8 77.5h-197.9l3.8 16.9h130.6q0.6 0 1.1 0.2 0.5 0.3 1 0.8 0.4 0.5 0.6 1.1 0.2 0.7 0.2 1.4 0 0.7-0.2 1.3-0.2 0.7-0.6 1.1-0.5 0.5-1 0.8-0.5 0.3-1.1 0.3h-132c-4.5 3-33.5 23.3-29.7 49.3h219.1c0.8 0 1.5 0.3 2.1 1 0.5 0.6 0.8 1.5 0.8 2.5 0 0.9-0.3 1.8-0.8 2.4-0.6 0.7-1.3 1-2.1 1h-223.6l-0.6-2.5c-6.9-30.5 22.4-53.3 30.7-59l-55-244.4c-2.9-13.1-12.8-22.3-24-22.3h-21c-0.8 0-1.5-0.3-2.1-1-0.5-0.6-0.8-1.5-0.8-2.4 0-1 0.3-1.9 0.8-2.5 0.6-0.7 1.3-1 2.1-1h21c13.8 0 26 11.2 29.6 27.4l7.7 34.3 63.1 4.6 74.9 5.6 3.2 0.2 85.1 6.3 5.1 0.3 22.7 1.7zm-88.5 5.3l-5.5 68.2-1.1 13.4 17.2 0.6 20.2 0.6 10-82.8 0.3-1.8-40.8-3zm25.6 125.5l4.3-35-19.2-0.6-17.8-0.5-2.9 36.1-1.3 15.1v0.6l-1.6 19.9h34.2l2.4-19.9 0.1-0.6zm-132.4-22.5l7.8 58.2h35.2l-1.1-58.2-0.3-15.4-25.2-0.8-18.6-0.6zm49.4 58.2h38l1.6-19.9v-0.6l1.2-14.2 0.1-1 2.9-36.3-3-0.1-23.7-0.7-3.2-0.1-15.3-0.5 0.3 15.2zm-3.3-170.4l1 51.4 0.5 26.1 0.2 11.7 15.5 0.5 3.2 0.1 23.7 0.8 3.6 0.1 1.1-13.2 5.5-68.2 0.4-5.3-34.3-2.5-3.2-0.3zm-61.6-4.5l3.9 29.6 0.6 4.7 6.9 51.7 0.8 6.2 19.6 0.6 25.1 0.8-0.1-7.6-0.1-4-0.5-26-0.4-21.7-0.6-30.2-51.3-3.8zm-36.2 90.7l18.9 0.6 21.2 0.6 1.8 0.1-0.8-6-1-7.6-5.8-44.1-4.6-34.8-51-3.7zm18.8 84l0.1 0.3h34l-7.7-58.2-2.3-17-2.8-0.1-21.3-0.7-17.1-0.5 2.7 11.8zm206.2-69.2l-15.3-0.5-6.4-0.2-8.6-0.3-4.3 34.8-1.8 15.1-0.1 0.6-2.4 19.9h27.4l1.7-10.1zm14.9-90.5l-8.9-0.6-22.7-1.7-2.4-0.2-0.2 1.4-2.5 20.4-7.6 62.6 7.6 0.2 6.4 0.2 16.7 0.5 4.7-28.9 2.9-17.4z"/><path class="O" d="m2379.4 2027.8c-9.9 0-17.9-9.7-17.9-21.8 0-12 8-21.7 17.9-21.7 9.9 0 18 9.7 18 21.7 0 12.1-8.1 21.8-18 21.8z"/><path class="i" d="m2379.4 2015.8c-4.4 0-8-4.4-8-9.8 0-5.4 3.6-9.7 8-9.7 4.5 0 8.1 4.3 8.1 9.7 0 5.4-3.6 9.8-8.1 9.8z"/><path class="O" d="m2541.6 2027.8c-9.9 0-18-9.7-18-21.8 0-12 8.1-21.7 18-21.7 9.9 0 17.9 9.7 17.9 21.7 0 12.1-8 21.8-17.9 21.8z"/><path class="i" d="m2541.6 2015.8c-4.5 0-8.1-4.4-8.1-9.8 0-5.4 3.6-9.7 8.1-9.7 4.4 0 8 4.3 8 9.7 0 5.4-3.6 9.8-8 9.8z"/><path class="O" d="m2291.3 1664.3l-34.6 2.1c-1.8 0.1-3.7-0.6-5-2.2-1.4-1.5-2.2-3.6-2.3-5.8-0.1-2.3 0.5-4.5 1.8-6.1 1.2-1.7 3-2.7 4.8-2.8l34.6-2.1c1.9-0.1 3.7 0.7 5.1 2.2 1.3 1.5 2.2 3.6 2.3 5.8 0.1 2.3-0.6 4.5-1.8 6.1-1.3 1.7-3 2.7-4.9 2.8z"/><path class="C" d="m2286.9 1664.9c-2.6 1.2-5.3 2-8 2.4-2.7 0.4-5.6 0-8-1.6q-0.1 0-0.2-0.1c-2.2-1.6-3.9-4.2-4.3-7.2q-2-0.5-4-1-2.1-0.5-4.1-1.1-2.1-0.5-4.1-1.1-2-0.6-4-1.2c-11.6-3.4-25.4-8.3-36.8-14.6-7.9-4.3-14.6-9.2-18.7-14.8q0 0 0-0.1c-0.1-0.9-4-20.5-1.6-60.4q0.1-1.2 0.2-2.5c2.7 1.5 10.7 5.6 20 7.8v0.6c-0.3 4.6-0.3 9.6-0.6 14.8-0.1 2.6-0.1 5.2-0.2 8q0 2-0.1 4.1 0 2.1 0 4.2 0 1.1 0 2.3 0 1 0 2 0 0.5-0.1 1.1 0 0.5 0 1 0 0.6 0.1 1.1 0 0.6 0 1.1c0 0.4 26.9 34 59.1 38.1q0.6-0.6 1.2-1.1 0.7-0.5 1.4-0.9 0.7-0.3 1.4-0.6 0.8-0.2 1.5-0.3 1-0.1 2 0 0.9 0.1 1.9 0.4 0.9 0.3 1.8 0.8 0.8 0.6 1.6 1.3-0.1 0-0.2 0.1-0.1 0-0.2 0.1-0.1 0-0.2 0.1-0.1 0.1-0.1 0.1c-1.3 0.9-2.2 2.4-2.6 4.1q-0.2 0.6-0.3 1.3c-0.2 1.9 0.2 3.9 1 5.6q0.3 0.7 0.7 1.3c1 1.8 2.5 3.3 4.1 4.5q0.2 0.2 0.4 0.3z"/><path class="D" d="m2213.3 1569.4v0.6c-0.3 4.6-0.3 9.6-0.6 14.8-0.1 2.6-0.1 5.2-0.2 8q0 2-0.1 4.1 0 2.1 0 4.2 0 1.1 0 2.3c-0.9-33.1-15.6-38.4-19.3-39.3q0.1-1.2 0.2-2.5c2.7 1.5 10.7 5.6 20 7.8z"/><path class="W" d="m3028.2 1566.4q0 0.8-0.1 1.7 0 0.2 0 0.5-0.1 0.2-0.1 0.4 0 0.3 0 0.5-0.1 0.3-0.1 0.5c-0.4 2.6-1 5.8-2 9.3-0.5 1.7-1.1 3.7-1.8 5.6q-0.6 1.4-1.1 3-0.3 0.7-0.6 1.5-0.3 0.8-0.7 1.6-0.7 1.5-1.4 3.2-0.3 0.8-0.7 1.6-0.4 0.8-0.9 1.7c-1.1 2.2-2.2 4.5-3.6 6.7q-1 1.8-2 3.5-1.2 1.7-2.3 3.5c-1.5 2.3-3.3 4.6-5 6.9-3.6 4.6-7.5 9.2-12 13.5l-1.7 1.6q-0.8 0.8-1.7 1.5c-1.2 1.1-2.3 2.1-3.5 3.1q-1.9 1.5-3.7 3-1 0.7-1.9 1.4l-2 1.4q-0.9 0.7-1.9 1.3c-0.6 0.5-1.3 0.9-1.9 1.3q-0.9 0.6-1.9 1.2-1 0.6-1.9 1.2c-1.4 0.9-2.9 1.5-4.5 1.7-1.6 0.2-3.2 0-4.7-0.4-1.5-0.5-3-1.3-4.2-2.5-1.3-1.1-2.4-2.5-3.3-4.1l-0.5-1q-1.2-2-2.3-3.9-1.1-2-2.2-4-1.1-2-2.1-4.1-1-2-2-4.1-0.9-2-1.7-3.9-0.9-2-1.7-4-0.8-2-1.5-4-0.7-2-1.4-4.1c-1.8-5.2-3.1-10.4-4.1-15.2-1-4.8-1.6-9.4-1.9-13.7q-0.2-3.1-0.2-6c0-2 0.1-3.8 0.2-5.5q0.3-2.6 0.7-4.8 0.4-2.2 1-4.1c0.8-2.5 1.8-4.4 3-5.8q1.7-2.1 3.9-2.5c1.4-0.2 2.9 0.1 4.3 1 1.5 0.8 2.9 2.2 4.3 4q0.3 0.3 0.6 0.7 0.3 0.4 0.5 0.8 0.3 0.3 0.5 0.7 0.3 0.4 0.5 0.8 1.1 1.7 2.1 3.6c0.7 1.3 1.4 2.7 2.1 4.2q1 2.3 2 4.8 0.5 1.3 1.1 2.7 0.5 1.3 1 2.7 0.5 1.3 1 2.7 0.5 1.4 1 2.8 0.3 0.8 0.6 1.7 0.3 0.8 0.5 1.7 0.3 0.8 0.6 1.7 0.3 0.8 0.6 1.7 0.9 2.8 1.9 5.7c1.5 4.5 3 9.2 4.7 14l0.4 1.3q0.4-0.2 0.7-0.4c1.2-0.8 2.3-1.6 3.4-2.4l1.6-1.1q0.6-0.5 1.2-0.9c4.1-3 7.8-6.1 11.4-9.2 1.7-1.6 3.5-3.1 5-4.7q1.3-1.2 2.4-2.3 1.2-1.2 2.3-2.4c1.5-1.5 2.9-3.1 4.3-4.6q0.5-0.5 1-1.1l1-1.1q0.9-1.1 1.8-2.2l1-1q0.4-0.6 0.8-1.1 0.9-1.1 1.7-2c1.1-1.4 2.1-2.7 3.1-3.9 2-2.3 3.6-4.5 5.1-6.2 1.5-1.7 2.8-3.1 3.9-3.8 1.1-0.8 2-1.1 2.6-0.7q1 0.5 1.3 2.9 0.1 1.1 0.1 2.7z"/><path class="D" d="m2973.6 1647.4q-1 0.6-1.9 1.2c-1.4 0.9-2.9 1.5-4.5 1.7-1.6 0.2-3.2 0-4.7-0.4-1.5-0.5-2.9-1.4-4.2-2.5-1.3-1.1-2.4-2.5-3.3-4.1l-0.5-1q-1.2-2-2.3-3.9-1.1-2-2.2-4-1.1-2-2.1-4.1-1-2-2-4.1-0.9-2-1.7-3.9-0.9-2-1.7-4-0.8-2-1.5-4-0.7-2.1-1.4-4.1c-1.8-5.2-3.1-10.4-4.1-15.2-1-4.8-1.6-9.4-1.9-13.7q-0.2-3.1-0.2-6c0-2 0.1-3.8 0.2-5.5q0.3-2.6 0.7-4.8 0.4-2.2 1-4.1c0.8-2.5 1.8-4.4 3-5.8q1.7-2.1 3.9-2.5c1.4-0.2 2.9 0.1 4.3 1 1.5 0.8 2.9 2.2 4.3 4q0.3 0.3 0.6 0.7 0.3 0.4 0.5 0.7 0.3 0.4 0.5 0.8 0.3 0.4 0.5 0.8 1.1 1.7 2.1 3.6c0.7 1.3 1.4 2.7 2.1 4.2q1 2.3 2 4.8 0.5 1.3 1.1 2.7 0.5 1.3 1 2.7 0.5 1.3 1 2.7 0.5 1.4 1 2.8 0.3 0.8 0.6 1.7 0.3 0.8 0.6 1.7 0.2 0.8 0.5 1.7 0.3 0.8 0.6 1.7c-5 4.8-8.9 11.1-10.9 18.4-2.4 8.4-1.8 18.1 2.1 25.7 3.1 6 8.3 10.4 14 11.9q1.5 0.4 2.9 0.5z"/><path class="V" d="m2872.8 1994c-5.3 10.1-8 22.1-7.6 34 9.9 1.1 19.9 1.5 29.8 0.4 1.3-5.6-0.7-11.4-2.4-16.8-1.7-5.4-3.4-11.2-2.4-16.9-5.6-0.4-11.8-0.9-17.4-0.7zm61.3-5.9q0.7 4.7 1 9.4 0.3 4.8 0.1 9.5-0.2 4.8-0.9 9.4-0.6 4.7-1.7 9.3c14 3.7 28.5 4.2 42.7 2.1 1.8-2.6 1-7-0.7-9.7-1.7-2.6-4.4-4-7.1-5-2.6-1-5.4-1.7-7.9-3.2-5.7-3.4-9.2-11.5-8.4-19.1-4.9-3.1-11.6-3.7-17.1-2.7z"/><path class="X" d="m2873.3 1995.9q7.2 0.9 14.6 1.5 1 0.1 2-0.3 1-0.3 1.8-1 0.9-0.7 1.5-1.7 0.6-1 0.9-2.2c7.5-30.5 18.2-88.4 25.7-190.9q0.4-5.8 0.8-11.7 0.4-5.8 0.7-11.7 0.4-5.8 0.8-11.7 0.3-5.8 0.6-11.7 0.8 5.9 1.6 11.7 0.7 5.9 1.4 11.8 0.7 5.8 1.3 11.7 0.6 5.9 1.2 11.8c4.9 51.9 7.6 117.4 2 188.6q-0.1 1.1 0.1 2.2 0.3 1.2 0.7 2.2 0.5 1 1.2 1.7 0.7 0.8 1.6 1.3 1.2 0.6 2.7 0.6 7.7-0.4 15.1-1.1 1-0.1 2-0.6 0.9-0.5 1.7-1.4 0.7-0.8 1.2-1.9 0.5-1.1 0.6-2.3c4.5-37.3 10.2-103.9 6.9-186.5q-0.1-3.9-0.3-7.8-0.2-3.8-0.4-7.7-0.2-3.8-0.4-7.7-0.2-3.9-0.5-7.7-0.2-3.7-0.5-7.5-0.2-3.7-0.5-7.4-0.3-3.7-0.6-7.5-0.3-3.7-0.7-7.4l-0.4-4.6q-0.2-1.7-0.3-3.3-0.2-1.7-0.3-3.3-0.2-1.7-0.4-3.4-0.2-1.6-0.3-3.3-0.6-5.7-1.3-11.6-0.3-2.2-0.5-4.5-0.3-2.3-0.6-4.5-0.3-2.3-0.6-4.6-0.3-2.2-0.6-4.5-0.5-4.1-1.1-8.3 0-0.5-0.1-1-0.3-2.2-0.7-4.5l-29.9-0.7-46-1.2c0.5 3.8 1 9.2 1.5 16q0.2 2.2 0.4 4.6 0 0.5 0 0.9 0.1 1.3 0.2 2.6 0.1 1.2 0.1 2.5 0.1 1.3 0.2 2.6 0.1 1.2 0.1 2.5 0.2 3.7 0.4 7.4 0.1 3.7 0.3 7.4 0.1 3.7 0.2 7.4 0.1 3.8 0.2 7.5c0.2 10.1 0.3 21.3 0.2 33.8q0 3.5 0 6.9-0.1 3.5-0.1 6.9-0.1 3.5-0.1 6.9-0.1 3.5-0.2 7c-1.1 47.1-4.6 108.1-12.5 184.5-0.4 4.1 2 7.8 5.4 8.2z"/><path class="V" d="m2933.8 1997.5q-0.9-0.5-1.6-1.3-0.7-0.7-1.2-1.7-0.4-1-0.7-2.2-0.2-1.1-0.1-2.2c5.6-71.2 2.9-136.7-2-188.6q-0.6-5.9-1.2-11.8-0.6-5.9-1.3-11.7-0.7-5.9-1.4-11.8-0.8-5.8-1.6-11.6l13-4c0 0 14.6 145.2-1.9 246.9zm23.3-283.4c-19 2.1-37.7 7.5-55.4 15.9q-1.4 0.6-2.8 1.3-1.4 0.7-2.8 1.4-1.3 0.7-2.7 1.5-1.4 0.7-2.7 1.4-1.3 0.8-2.6 1.5-1.3 0.7-2.5 1.5-1.3 0.7-2.5 1.5-1.3 0.8-2.5 1.6 0-0.8 0-1.6-0.1-0.8-0.1-1.6 0-0.8 0-1.6 0-0.8-0.1-1.6 0-2.9-0.1-5.9-0.1-2.9-0.2-5.8-0.2-2.9-0.3-5.8-0.1-2.9-0.3-5.8 0-1-0.1-2 0-0.9-0.1-1.8 0-0.8-0.1-1.6 0-0.8-0.1-1.6 0-0.8-0.1-1.6 0-0.8-0.1-1.6 0-0.4 0-0.9-0.2-2.4-0.4-4.6-0.1-2-0.3-4-0.2-2-0.3-4-0.2-2-0.4-4-0.2-2-0.5-4l19 0.5 27 0.7 29.9 0.7 0.7 4.5 0.1 1q0.6 4.1 1.1 8.3 0.3 2.3 0.6 4.5 0.3 2.3 0.6 4.6 0.3 2.2 0.6 4.5 0.2 2.3 0.5 4.5z"/><path class="Y" d="m2894.9 1485.4l4.9 21.9c1.1 5.1 2.4 10.6 5.9 13.8 3.2 2.9 7.9 3.1 11.3 0.5-5-5.5-8.7-12.3-10.7-20.1-1-3.7-1.6-7.5-3.2-10.8-1.6-3.3-5-5.7-8.2-5.3z"/><path class="Z" d="m2954.3 1678.9q0.5 3.7 1 7.5 0.5 3.7 1.1 7.4 0.6 3.7 1.2 7.4 0.6 3.8 1.2 7.5-2.4 0.3-4.8 0.6-2.3 0.3-4.7 0.6-2.4 0.3-4.8 0.5-2.4 0.2-4.8 0.4-7.9 0.6-15.8 0.7-7.8 0.1-15.7-0.3-7.9-0.4-15.7-1.3-7.8-0.8-15.6-2.2c-0.1-3.9-0.2-8.4-0.3-13.2q-0.1-4.3-0.3-8.5-0.1-4.3-0.2-8.5-0.2-4.3-0.3-8.5-0.2-4.2-0.3-8.5-0.2-3.4-0.3-6.8-0.2-3.4-0.3-6.8-0.2-3.3-0.4-6.7-0.1-3.4-0.3-6.8c-0.8-13.2-1.6-25.4-2.6-34.5-1.7-14.5-3.2-31.1 4.5-42.4 4.5-6.5 11.2-9.8 17.7-13q0.9-0.5 1.8-0.9 1-0.5 1.9-0.9 0.9-0.5 1.9-0.9 0.9-0.4 1.8-0.9 0.1-0.1 0.2-0.1 6.6-3.2 13.3-6.4c5.1 3.1 10.8 6.2 16.5 9.4q1.9 1 3.8 2.1c1.1 0.2 22.1 5.1 30 44.1 0 0-7.3 5-17.1 5.3 0.4 18.8 1.6 42.8 4.6 69.6q0.2 1.9 0.4 3.7 0.2 1.9 0.5 3.8 0.2 1.9 0.4 3.8 0.3 1.8 0.5 3.7z"/><path class="C" d="m2907 1527.3q-0.1 2.3-0.3 4.5-0.3 2.2-0.7 4.4-0.5 2.1-1.1 4.2-0.6 2.1-1.4 4.1c8.8 2.7 18 3.1 27 1.1q-0.3-1-0.5-2-0.2-1-0.4-2-0.2-1-0.4-2.1-0.2-1-0.3-2-0.2-1.2-0.3-2.3-0.1-1.2-0.2-2.3-0.1-1.2-0.2-2.3 0-1.2 0-2.3-0.1-1.7 0-3.3 0.1-3.7 0.6-7.4c-4.7-9.8-16-15-26.3-14.6q0.8 1.9 1.5 3.9 0.7 2 1.3 4.1 0.5 2.1 0.9 4.2 0.4 2.1 0.6 4.2 0.1 1 0.1 2 0.1 1 0.1 2 0.1 1 0.1 2 0 1-0.1 1.9z"/><path class="C" d="m2935 1544.9q-0.2 0.6-0.5 1.1-0.2 0.6-0.5 1.1-0.2 0.6-0.5 1.1-0.3 0.5-0.7 1c-3.4 5.2-9.1 7.9-14.6 7.4-5.4-0.5-10.6-3.9-13.9-9.1q-0.5-0.9-1-1.8-0.5-0.9-0.8-1.8-0.4-1-0.7-2-0.4-1-0.6-2 0.1-0.1 0.2-0.1 6.6-3.2 13.3-6.4c5.1 3.1 10.8 6.3 16.5 9.4z"/><path class="O" d="m2932.1 1468.9c2.2 7.2 1.6 15.5-1.5 22.1-0.7-5.3-1.4-10.5-2.1-15.8-0.3-2.5-0.5-5.4 1-7.1 0.4-0.5 1.1-0.9 1.7-0.7 0.6 0.2 1.2 0.9 0.9 1.5z"/><path class="D" d="m2906.8 1519.4q0.4 3.9 0.2 7.7 0 0.1 0 0.2 0.7-0.3 1.5-0.5 0.7-0.2 1.5-0.4 0.7-0.1 1.5-0.2 0.8 0 1.5 0c3 0.1 5.9 1.1 8.8 1.7 2.1 0.5 4.3 0.8 6.4 0.4q-0.1-1.7 0-3.3 0.1-3.7 0.6-7.4c-4.7-9.8-16-15-26.3-14.6q0.8 1.9 1.5 3.9 0.7 2 1.3 4.1 0.5 2.1 0.9 4.2 0.4 2.1 0.6 4.2z"/><path class="C" d="m2930.4 1466.5c-1.5 10.5 0 21.6 4.1 31 2.3 5.3 5.5 10.7 5.1 16.7-0.6 7.9-7.9 13.2-14.4 12.2-6.5-1-12-6.6-15.8-13.1-6.9-11.8-9.7-27.1-7.5-41.4 8.2-5 19.4-7.2 28.5-5.4z"/><path class="a0" d="m2903.6 1498.8q0.9-2.8 1.5-5.6 0.5-2.9 0.8-5.8 0.2-2.9 0.1-5.8-0.2-2.9-0.6-5.8c5.9 3.1 13.2 2.7 19.1-0.6 6-3.3 10.6-9.7 12.5-17.2-6.8-4.5-14.6-7.2-22.3-7.6-3.3-0.2-6.8 0-9.6 2.1-3.8 2.7-5.8 8.6-4.7 13.7-2.8-0.8-5.6 1.8-6.7 4.9-1.2 3.1-1 6.8-0.3 10.1 1.6 7.5 5 13 10.2 17.6z"/><path class="C" d="m2904.1 1498.2c0.1-1.6-1-3.1-2.3-3.3-1.3-0.2-2.6 0.6-3.3 1.9-0.7 1.4-0.9 3-0.6 4.6 0.2 1.5 0.8 2.9 1.6 4.2 1.1 1.9 2.5 3.6 4.3 4.3 1.8 0.7 4.1 0.1 5.2-1.8-2.3-3-5.2-5.9-4.9-9.9z"/><path class="M" d="m2928 1507.6q0.7 0 1.4-0.1 0.7-0.1 1.4-0.4 0.7-0.2 1.3-0.5 0.7-0.3 1.3-0.7 0.2 0 0.3 0 0.2 0 0.3 0.1 0.1 0 0.2 0.2 0.1 0.1 0.1 0.3c0 1.3-0.2 2.5-1 3.4q-0.4 0.4-0.8 0.8-0.4 0.3-0.9 0.5-0.5 0.2-1 0.2-0.6 0-1.1-0.1c-1-0.3-1.6-1.4-2-2.7q0-0.1 0-0.3 0-0.2 0.1-0.3 0-0.2 0.2-0.3 0.1 0 0.2-0.1z"/><path class="a1" d="m2958.8 1708.7q-2.4 0.3-4.8 0.6-2.3 0.3-4.7 0.6-2.4 0.3-4.8 0.5-2.4 0.2-4.8 0.4-7.9 0.6-15.8 0.7-7.8 0.1-15.7-0.3-7.9-0.4-15.7-1.3-7.8-0.8-15.6-2.2c-0.1-3.9-0.2-8.4-0.3-13.2q-0.1-4.3-0.3-8.5-0.1-4.3-0.2-8.5-0.2-4.3-0.3-8.5-0.2-4.2-0.3-8.5l17-50.8c0 0 0.3 94.3 66.3 99z"/><path class="C" d="m2901.7 1730q-1.4 0.6-2.8 1.3-1.4 0.7-2.8 1.4-1.3 0.7-2.7 1.5-1.4 0.7-2.7 1.4c-1.3-2.5-2.7-5.2-4-8.3q-0.4-0.8-0.7-1.6-0.3-0.8-0.7-1.6-0.3-0.8-0.6-1.6-0.4-0.7-0.7-1.5c-0.9-2.2-1.7-4.6-2.6-7q-0.7-1.8-1.4-3.7-0.3-1-0.6-1.9 0 0 0-0.1-0.1 0-0.1 0 0 0 0 0 0 0 0-0.1-0.3-0.9-0.6-1.8-0.3-1-0.6-2-0.3-1.1-0.6-2.1-0.4-1-0.7-2-0.3-1-0.6-2.1c-0.4-1.4-0.8-2.8-1.2-4.3q-0.1-0.5-0.3-1.1-0.1-0.5-0.3-1.1-0.1-0.5-0.3-1.1-0.1-0.6-0.3-1.1-0.5-2.3-1.1-4.6-0.5-2.3-1-4.6-0.5-2.4-1-4.8l-0.5-2.5q-0.2-1.2-0.4-2.4-0.2-1.3-0.5-2.5-0.2-1.3-0.4-2.6-0.2-1.2-0.4-2.5-0.2-1.2-0.4-2.5-0.1-1.3-0.3-2.5-0.1-1.3-0.3-2.6-0.1-1.3-0.3-2.5-0.1-1.3-0.2-2.6-0.2-1.2-0.3-2.5l-0.2-2.5q-0.2-2.5-0.3-4.9-0.2-2.5-0.3-4.9 0-2.4-0.1-4.7 0-2.4 0-4.7c0-1.5-0.1-3.1 0-4.6q0.1-3.6 0.3-7l0.1-1.7q0.1-1.1 0.1-2.2 0.1-1 0.2-2 0.2-2.1 0.4-4.1c0.3-2.6 0.6-5.2 1-7.6q0.7-3.7 1.3-7c0.9-4.5 2.1-8.4 3.2-11.8 0.6-1.7 1.2-3.3 1.8-4.7q1-2.1 1.9-3.8c2.6-4.6 5.1-6.7 7.5-6.2 2.3 0.5 4.2 3.6 5.4 8.6q0.5 1.9 0.9 4.2 0.1 0.6 0.2 1.2 0.1 0.6 0.2 1.2 0.1 0.6 0.2 1.2 0.1 0.6 0.2 1.2c0.4 3.4 0.7 7.2 1 11.4q0.3 3.1 0.4 6.5c0.1 2.3 0.2 4.6 0.3 7.1q0.1 1.8 0.1 3.7 0.1 0.9 0.1 1.9l0.1 1.9q0.1 3.8 0.2 7.9c0 1.4 0.1 2.7 0.2 4.1l0.1 4.2q0.1 2.2 0.1 4.3l0.2 4.4q0.1 1.1 0.1 2.2 0 1.2 0.1 2.3 0 1.1 0 2.3 0.1 1.1 0.2 2.2 0.2 4.6 0.4 9.3 0.3 4.7 0.6 9.3l0.1 2.3 0.2 2.2q0.2 2.3 0.4 4.5 0.1 2.3 0.3 4.5l0.1 1.3q0.1 1.5 0.3 3 0.2 2.1 0.4 4.2c0.1 1.4 0.2 2.8 0.4 4.2q0.4 4.1 0.8 8 0.1 1 0.2 2 0.1 0.9 0.3 1.9 0.2 1.9 0.4 3.7c0.3 2.4 0.6 4.8 0.9 7.1q0.5 3.4 0.9 6.6c0.3 3 0.7 5.9 1.1 8.5z"/><path class="D" d="m2893.6 1640.6q-0.4-0.9-0.9-1.7-0.5-0.9-1-1.7-0.5-0.9-1-1.7-0.5-0.8-1.1-1.7c-6-9-14.3-15.8-23.5-19.3l0.1-1.7q0.1-1.1 0.1-2.2 0.1-1 0.2-2 0.2-2.1 0.4-4.1c0.3-2.6 0.6-5.2 1-7.6q0.7-3.7 1.3-7c0.9-4.5 2.1-8.4 3.2-11.8 0.6-1.7 1.2-3.3 1.8-4.7q1-2.1 1.9-3.8c2.6-4.6 5.1-6.7 7.5-6.2 2.3 0.5 4.2 3.6 5.4 8.7q0.5 1.8 0.9 4.1 0.1 0.6 0.2 1.2 0.1 0.6 0.2 1.2 0.1 0.6 0.2 1.2 0.1 0.6 0.2 1.2c0.4 3.4 0.7 7.2 1 11.4q0.3 3.1 0.4 6.5c0.1 2.3 0.2 4.7 0.3 7.1q0.1 1.8 0.1 3.7 0.1 0.9 0.1 1.9l0.1 1.9q0.1 3.8 0.2 7.9c0 1.4 0.1 2.7 0.2 4.1l0.1 4.2q0.1 2.2 0.1 4.3l0.2 4.4q0.1 1.1 0.1 2.2z"/><path class="a2" d="m2876.1 1556.5c0 0-12.2 15.8-10.7 52.5 0 0 12.8 10.3 32.4-2.5l-4.9-50z"/><path class="W" d="m3021.9 1577.5c3.6 1.2 7.5 0.9 10.8-1 3.3-1.9 5.9-5.6 6.8-9.8 1-4.3 0.1-9.2-2.5-12.4-3.5 5.8-10.2 7.5-13.1 13.8-1.4 3-1.8 5.9-2 9.4z"/><path class="a3" d="m3016.9 1564.2l11.5-32.4q0.3-0.7 0.7-1.2 0.4-0.4 1-0.7 0.5-0.3 1.1-0.2 0.6 0 1.1 0.2l15.6 8.3q0.6 0.4 1 1 0.5 0.6 0.6 1.4 0.2 0.8 0.1 1.6-0.2 0.8-0.6 1.4l-19.2 30q-0.3 0.5-0.8 0.9-0.5 0.3-1 0.4-0.5 0.1-1 0-0.6-0.1-1-0.4l-8-5.9q-0.4-0.4-0.7-0.9-0.4-0.5-0.5-1.1-0.2-0.6-0.1-1.2 0-0.7 0.2-1.2z"/><path class="i" d="m3029.9 1533.5l16.4 8.9-17.5 28.2-9.7-6.1z"/><path class="W" d="m3015.4 1568.4c-0.9-2.4-1.4-5.1-1.2-7.7 0.3-2.6 1.3-5.1 3-6.8 1.7-1.7 4-2.3 6.1-1.5 0.7 0.3 1.4 0.8 1.8 1.5 0.8 1.7 0 4-1.4 5.1-1.4 1-3.1 1.1-4.7 1.2 1.2 1.5 1.6 3.7 1.9 5.7 0.2 2.1-0.2 4.2-1.3 5.8-1.1 1.6-2.9 2.4-4.5 2-0.3-1.7 0.9-3.7 0.3-5.3z"/><path class="a4" d="m3318.5 1383c0 77.3-67 139.9-149.7 139.9-30.3 0-58.5-8.4-82-22.8l-41.1 26.2 16.2-45.3c-26.5-25.2-42.8-59.8-42.8-98 0-77.3 67-140 149.7-140 82.7 0 149.7 62.7 149.7 140z"/><path fill-rule="evenodd" class="i" d="m3119.1 1398.8c0 18.3-12.3 32.1-28.6 32.1-8.3 0-15.1-2.9-18.6-5.7l-2.4-1.9 4.6-17.1 4.1 2.9c1.9 1.4 6.7 3.8 12.2 3.8 5.8 0 12-4 12-12.8-0.1-8.8-5.2-13.3-15.3-13.3-3.3 0-5.9 0.4-8.2 0.7l-5.4 0.9 5.3-48.6h39v18.3h-25.9l-1.4 11.1q0.5 0 1 0c6.1 0 11.7 1.7 16.2 5 7.2 4.9 11.4 13.9 11.4 24.6zm55.6-15c0 30-9.8 47.1-26.9 47.1-15.7 0-25.6-17.6-25.8-45.9 0-28.3 10.6-46.6 26.9-46.6 16.2 0 25.8 17 25.8 45.4zm-36.1 1.2c0 17.2 3.8 28.3 9.7 28.3 8.9 0 9.8-20.3 9.8-29 0-8.5-0.9-28.3-9.7-28.3-5.8 0-9.8 11.7-9.8 29zm129.5 15.4c0 20.8-9.8 30.1-19.6 30.1-9.5 0-19.2-8.9-19.3-28.8q0-0.9 0-1.9 0-0.9 0.1-1.8 0-1 0.1-1.9 0.1-0.9 0.3-1.9l-17.2 36.7h-14.5l17.8-37.9c-3.2 2.8-6.9 4.1-10.7 4.1-9.5 0-19.2-8.9-19.3-28.9 0-17.5 8.2-29.8 19.8-29.8 11.7 0 19.3 11.3 19.3 28.7q0 4.1-0.5 7.6l17-36.3h14.4l-17.7 37.8q1.2-1.1 2.5-1.9 1.3-0.8 2.7-1.4 1.4-0.6 2.8-0.8 1.4-0.3 2.9-0.3c11.8 0 19.1 11 19.1 28.6zm-14.6 0.5c0-3.1-0.4-13.4-4.8-13.4-3.2 0-4.9 6.9-4.9 13.7-0.1 5.4 1 10.2 2.8 12.3 0.8 1.1 1.6 1.2 2.1 1.2 4.4 0 4.8-10.5 4.8-13.8zm-43.4-33.3c0-3.2-0.3-13.4-4.8-13.4-3.1 0-4.8 6.8-4.8 13.6v0.1c-0.1 5.5 0.9 10.1 2.6 12.2 0.7 0.8 1.4 1.2 2.2 1.2 4.5 0 4.8-10.5 4.8-13.7z"/><path class="a5" d="m3808.2 1458.3c1.3 4.4 1.6 9.3 3.8 13 2.9 4.7 8.2 6.2 13 6.3 4.9 0.2 9.8-0.6 14.5 0.9 7.4 2.5 12.8 10.9 14.5 20 1.7 9.1 0.1 18.7-3 27.2-4.8 13.5-13.3 25-23.9 32.3-10.6 7.2-23.1 10.1-35.1 8.2-8-1.3-16.4-5.4-20.4-13.9-2.4-5-2.9-11-4.9-16.3-3.8-10.5-12.7-17.3-16.2-28-3.5-10.4-1.1-22.6 3.9-32 3.8-7.1 9.1-12 13.5-18.4 2.9-4.1 4.9-8.3 8.7-11.3 11.3-8.9 27-4 31.6 12z"/><path class="D" d="m3631.6 1441.1c0.7-0.8 1.7-0.2 2.5 0.4q1 0.7 2 1.5 4.8 3.7 9.7 7.4c0.3-1.3 0.6-3.9 0.9-6.1 0.2-0.9 1.3-1 1.4-0.1 0.6 3.5 0.9 7.6 0.7 11.1q2.2 2.1 4.6 4.3c1.8 1.6 3.7 3.1 5.6 4.8 3.7 3.4 8 6.7 12.3 10.2 2.2 1.8 4.5 3.4 6.9 5.2q1.7 1.3 3.5 2.6 1.8 1.3 3.6 2.6 1.9 1.3 3.7 2.6 1 0.7 1.9 1.4 1 0.6 1.9 1.2 3.9 2.6 7.8 5.2 1 0.7 2 1.3 1 0.6 1.9 1.2 1 0.6 2 1.2 1 0.7 2 1.3 0.9 0.6 1.9 1.2 1 0.6 1.9 1.1 1.9 1.2 3.8 2.3 1.9 1.2 3.8 2.3l3.7 2.1c2.4 1.4 4.7 2.9 7.1 4.2 4.7 2.5 9.1 5.2 13.2 7.5 2.1 1.2 4.1 2.4 6 3.5q2.9 1.7 5.5 3.3c3.5 2.3 6.7 4.2 9.5 6.2q0.5 0.3 0.9 0.7 0.5 0.4 1 0.7 0.5 0.4 1 0.8 0.4 0.3 0.9 0.7 0.4 0.3 0.8 0.7 0.4 0.3 0.8 0.6 0.4 0.4 0.8 0.7 0.4 0.4 0.8 0.8c3.7 3.5 5.6 6.9 5 9.6-0.6 2.7-3.6 4.4-8.5 5q-0.5 0-1.1 0.1-0.5 0-1 0.1-0.5 0-1 0-0.5 0-1 0c-1.5 0-3.1-0.2-4.7-0.4-3.4-0.5-7.2-1.1-11.3-2.4q-0.8-0.2-1.6-0.5-0.8-0.2-1.6-0.5-0.8-0.3-1.6-0.5-0.8-0.3-1.6-0.6c-2.2-0.7-4.5-1.8-6.8-2.8-4.7-1.9-9.5-4.5-14.6-7.4-2.5-1.4-5-3.1-7.6-4.7q-0.5-0.3-1-0.7-0.5-0.3-1-0.6-0.4-0.3-0.9-0.6-0.5-0.3-1-0.7-1.9-1.4-3.9-2.8-0.5-0.3-0.9-0.7-0.5-0.4-1-0.7-0.5-0.4-1-0.7-0.5-0.4-1-0.8-1-0.7-2-1.5-0.9-0.7-1.9-1.5-1-0.8-2-1.7-0.9-0.8-1.9-1.6-1-0.8-2-1.6-1-0.8-1.9-1.7-3.9-3.5-7.6-7-0.9-0.8-1.8-1.7-0.9-0.9-1.8-1.8-1.7-1.8-3.5-3.6-1.7-1.7-3.4-3.5-1.6-1.8-3.2-3.6c-2.1-2.4-4.2-4.7-6.2-7.1-3.9-4.7-7.6-9.2-10.8-13.7-1.6-2.2-3.2-4.3-4.7-6.4q-2.1-3.2-4.1-6.1-0.2-0.2-0.4-0.5-0.6 0-1.3-0.1-0.6-0.1-1.2-0.3-0.6-0.2-1.2-0.6-0.6-0.3-1.1-0.8c-2.7-2.2-4.3-6-5.2-9.8q-0.2-0.9-0.3-1.8-0.2-0.9-0.3-1.9-0.1-0.9-0.2-1.8 0-0.9 0-1.9c0-0.6 0-1.4 0.4-1.8z"/><path class="a6" d="m3745.1 1726.6c-1.2-10.4-1.9-20.2-1.9-29q0-3.4 0.1-6.5 0.1-3.2 0.4-6.2c0.3-4 0.7-7.7 1.2-11.2 0.6-3.5 1.2-6.7 2.1-9.7q1.2-4.4 2.7-8 0.3-0.9 0.7-1.7 0.3-0.8 0.7-1.6 0.5-0.8 0.9-1.6 0.4-0.7 0.9-1.5 1.8-2.7 3.7-4.6c2.7-2.4 5.5-3.7 8.5-3.6 3 0 5.9 1.3 8.8 3.6q2.1 1.8 4.1 4.4 2 2.6 3.8 5.9 0.5 0.8 1 1.7 0.5 0.9 0.9 1.8 0.5 1 0.9 1.9 0.4 0.9 0.8 1.9 0.5 1 0.9 2.1 0.4 1.1 0.9 2.1 0.4 1.1 0.8 2.2 0.4 1.1 0.7 2.2c1 3.1 2.1 6.4 3 9.9q0.7 2.6 1.3 5.4 0.2 0.7 0.4 1.4 0.1 0.7 0.3 1.4 0.2 0.8 0.3 1.5 0.2 0.7 0.3 1.4 0.7 3.2 1.3 6.4 0.6 3.1 1.2 6.4 0.6 3.2 1.1 6.4 0.5 3.2 0.9 6.4c1.4 9.3 2.5 19.2 3.7 29.8 1.2 10.7 2.3 21.9 3.5 33.8 1.1 10.3 2.1 21 3.4 32.1l0.2 0.3c1.9 2.2 3.8 4.4 5.7 6.7l5.9 6.7c1.9 2.3 3.9 4.5 5.9 6.8 9 10.4 17.9 20.4 26.5 30.1 4.4 4.8 8.6 9.5 12.8 14.1l6.2 6.8 6.2 6.6 3 3.3 3 3.1 5.8 6.3 11.3 11.8 10.6 11 9.8 10 17.1 17.3 7 7.1q0.7 0.8 1.5 1.5 0.7 0.8 1.4 1.5 0.8 0.8 1.5 1.6 0.7 0.8 1.5 1.5c3.5 3.7 6.1 6.8 7.9 9.1 1.7 2.3 2.4 3.9 2.1 4.7-0.3 0.8-1.7 0.8-4 0.1-2.4-0.8-5.7-2.2-9.9-4.3q-0.9-0.5-1.7-0.9-0.9-0.5-1.8-0.9-0.8-0.5-1.7-1-0.9-0.4-1.7-0.9l-4-2.2q-2-1.2-4.2-2.5c-2.9-1.7-6-3.6-9.3-5.6l-10.3-6.6q-1.4-0.9-2.8-1.9-1.4-0.9-2.8-1.9-1.4-0.9-2.8-1.9-1.4-0.9-2.8-1.9c-3.9-2.6-7.9-5.5-12.1-8.5-4.2-3-8.4-6.1-12.8-9.4l-6.7-5.1-3.4-2.6-3.4-2.7-6.9-5.6c-2.4-1.8-4.7-3.8-7.1-5.8-4.7-3.9-9.5-8-14.4-12.2-9.7-8.5-19.6-17.6-29.6-27.3-2.2-2.1-4.4-4.2-6.5-6.4l-6.4-6.4c-2.1-2.1-4.2-4.3-6.2-6.5l-6.1-6.4-2.9-3-3.1-8.5c-5.2-12.5-9.9-25-13.9-37.2q-1.5-4.4-2.8-8.8-1.4-4.5-2.6-9-1.3-4.4-2.4-8.9-1.1-4.6-2.2-9.1c-2.7-11.5-4.6-22.6-5.9-33z"/><path class="a7" d="m3643.8 2006.6c1.2 0.4 3.7-4.4 7.4-13.3q1.4-3.4 3-7.5 1.7-4.1 3.6-8.8c2.6-6.3 5.4-13.6 8.6-21.5q0.2-0.4 0.4-0.8 2.2-5.6 4.7-11.6c0.8-2.2 1.8-4.3 2.7-6.6q1.4-3.3 2.9-6.8 1.4-3.4 2.9-7 0.8-1.8 1.5-3.6 0.8-1.8 1.6-3.6 3.2-7.3 6.5-15c1.1-2.6 2.2-5.2 3.4-7.8q1.7-3.9 3.5-7.9 1.8-4 3.5-8.1 1.9-4 3.8-8.2 1.8-4.1 3.7-8.3 1-2.1 1.9-4.2 1-2.1 1.9-4.2 1-2.2 2-4.3 1-2.2 2-4.3 1-2.1 1.9-4.3 1-2.2 2-4.3 1-2.1 2-4.3 1-2.1 1.9-4.2 1-2.2 2-4.3 1-2.2 2-4.3 0.9-2.1 1.9-4.2 0.9-2.1 1.9-4.2 1.9-4.1 3.8-8.2 1.8-4.1 3.6-8.1 1.9-4 3.7-8 1.8-3.9 3.5-7.7c1.1-2.6 2.2-5.2 3.3-7.7q0.9-1.8 1.7-3.7 0.8-1.8 1.6-3.6 0.8-1.9 1.6-3.7 0.8-1.9 1.6-3.7 0.7-1.9 1.5-3.6 0.7-1.8 1.5-3.6 0.3-0.8 0.7-1.7 0.4-0.9 0.7-1.7 0.4-0.9 0.7-1.7 0.4-0.9 0.8-1.8 0.3-0.8 0.7-1.7 0.3-0.8 0.6-1.7 0.4-0.8 0.7-1.6 0.3-0.9 0.7-1.7c0.9-2.3 1.7-4.5 2.5-6.6 1.7-4.3 10.3-21 12.4-24.3 4.6-7.4 8-16.2 8.2-25.4 0.2-8.7-2.4-17.2-5-25.4q-3.7-11.8-7.4-23.5c-2 0.3-4.4-2.1-6.3-1.8-4.3 0.6-8.5 1.3-12.8 1.2-4.5-0.1-8.4-0.5-12.7-2.2 0.8 20-0.7 40.2-5 59.5q-1.2 1.8-2.4 3.6-0.9 1.4-1.8 2.9-0.8 1.4-1.7 2.8-0.9 1.4-1.8 2.9-0.8 1.4-1.7 2.8c-1.2 2-2.3 4.1-3.5 6.3q-1.8 3.2-3.5 6.5-0.5 0.9-0.9 1.7-0.5 0.9-0.9 1.7-0.5 0.9-0.9 1.7-0.5 0.9-0.9 1.8-0.9 1.7-1.8 3.5-0.8 1.8-1.7 3.6-0.9 1.9-1.8 3.8-0.9 1.9-1.8 3.8-0.8 1.9-1.7 3.8-0.9 1.9-1.7 3.9c-1.2 2.6-2.3 5.3-3.5 8q-0.4 1-0.8 2.1-0.5 1-0.9 2-0.4 1.1-0.8 2.1-0.5 1-0.9 2.1-1.7 4.2-3.4 8.5-1.6 4.4-3.3 8.8-1.6 4.5-3.2 9-0.8 2.3-1.7 4.6-0.8 2.3-1.5 4.6-0.8 2.4-1.6 4.7-0.8 2.4-1.5 4.8-0.8 2.3-1.6 4.7-0.8 2.4-1.5 4.8-2.9 9.7-5.7 19.2-0.7 2.3-1.4 4.7-0.6 2.4-1.2 4.7-1.3 4.7-2.5 9.4-1.3 4.6-2.4 9.1-1.2 4.6-2.3 9.1-1 4.5-2.1 8.9c-0.7 2.9-1.4 5.8-2 8.7q-1.8 8.6-3.6 16.8-0.4 2.1-0.9 4.1-0.4 2-0.8 4-0.1 1-0.3 2-0.2 1-0.4 2-0.2 0.9-0.4 1.9-0.2 1-0.4 2l-1.4 7.6c-0.5 2.4-1 4.9-1.4 7.3q-0.2 1-0.3 2-0.2 1-0.4 2.1-0.1 1-0.3 2-0.2 1-0.4 2-0.5 2.9-0.9 5.7c-1.6 8.8-2.7 16.8-3.7 23.8q-0.1 1.2-0.3 2.5-0.2 1.2-0.3 2.4-0.2 1.2-0.4 2.4-0.1 1.3-0.3 2.5-0.1 1-0.2 2.1-0.1 1-0.2 2.1-0.2 1-0.3 2-0.1 1.1-0.2 2.1c-1 10-1.1 15.6 0.1 16.1z"/><path class="C" d="m3780.7 1535.8q0 1.8 0 3.6 0 1.8 0.1 3.6 0 1.8 0.2 3.6 0.1 1.8 0.2 3.6c-3.5 3.4-7.4 5.6-11.9 5.6q-1.7 0.1-3.4-0.3-1.7-0.3-3.3-0.9-1.6-0.7-3.1-1.7-1.5-0.9-2.9-2.2 1.1-2.2 2.1-4.6 1-2.3 2-4.7 0.9-2.4 1.7-4.8 0.8-2.4 1.5-4.9 0.4-1.4 0.7-2.7 0.4-1.4 0.7-2.7 0.3-1.4 0.6-2.8 0.3-1.4 0.6-2.7 0.1-0.7 0.3-1.3 0.7-4 1.2-8c5-5.1 11.3-7.9 17.6-10.4q-0.5 1.6-0.9 3.2-0.4 1.6-0.7 3.2-0.4 1.7-0.7 3.3-0.3 1.6-0.6 3.3-0.5 2.6-0.8 5.3-0.4 2.7-0.6 5.4-0.3 2.8-0.4 5.5-0.2 2.7-0.2 5.4 0 0.1 0 0.1z"/><path class="D" d="m3785.6 1501.1q-0.5 1.6-0.9 3.2-0.4 1.6-0.7 3.2-0.4 1.7-0.7 3.3-0.4 1.6-0.6 3.3-0.5 2.6-0.8 5.3-0.4 2.7-0.6 5.4-0.3 2.8-0.4 5.5-0.2 2.7-0.2 5.4 0 0.1 0 0.1c-1.2-2.6-2.6-5.2-4.2-7.5-2.6-3.9-5.9-7.1-9.7-8.8q0.7-4 1.2-8c5-5.1 11.3-7.9 17.6-10.4z"/><path class="C" d="m3788.1 1502.2c-0.7 1.6-1.4 3.2-1.9 4.8q-0.4 0.9-0.6 1.9-0.3 0.3-0.6 0.7c-3.4 3.7-7.6 6.7-12.3 7.1-4.5 0.4-9.5-2.3-11.4-7.5-1.7-4.7-0.4-10.3 1.8-14.7 2.2-4.5 5.2-8.2 7.5-12.5 1.2-2.2 2.2-4.7 2.7-7.2 0.4-2.1 0.6-4.2 0.2-6.2 1.2 2.1 2.7 3.9 4.2 5.5 2.8 2.8 5.8 5.2 8.3 8.2 2.6 3.1 4.6 7.1 4.4 11.4 0 3-1.1 5.8-2.3 8.5z"/><path class="a8" d="m3736.5 1599.1q0.5 4.8 1.1 9.5 0.7 4.7 1.5 9.4 0.8 4.7 1.8 9.3 1 4.7 2.2 9.2c4.6 0.9 9.5 1.1 14.6 0.8 6.8-0.4 13.1-1.9 18.9-4.2q0.5-5.4 1.4-10.8 1-5.3 2.4-10.5 1.4-5.2 3.3-10.2 1.9-5 4.2-9.8c1.7-3.6 3.7-7.2 5.6-10.8q0.6-1.3 1.2-2.5c2-3.9 3.7-7.9 4.9-12.1 2.5-9.1 1.8-19.9-4.5-26.1-2.1-2.2-4.7-3.6-7.5-4.5q-0.3-0.1-0.7-0.2-0.3-0.1-0.6-0.1-0.3-0.1-0.6-0.2-0.3 0-0.7-0.1-0.6-0.1-1.2-0.2-0.6-0.1-1.2-0.1-0.6-0.1-1.2-0.1-0.6-0.1-1.2 0c-5.4 0-9.9 2-15.3 2.5q-2.2 0.3-4.4 1-0.9 0.3-1.7 0.6-0.9 0.3-1.7 0.7-0.9 0.5-1.7 0.9-0.8 0.5-1.6 1-0.6 0.4-1.1 0.8-0.6 0.4-1.1 0.9-0.6 0.4-1.1 0.9-0.6 0.5-1.1 1c-4.5 4.3-8.1 10-10.3 16.1-1.2 3.4-2 6.8-2.5 10.3l-0.1 0.1q-0.1 0.7-0.2 1.3c-1.1 8.7-0.7 17.6 0.2 26.2z"/><path class="C" d="m3785 1535.2c-2.7 7.6-7.5 14.1-13.5 18.1-1.8 1.3-3.8 2.3-5.9 2.6-2.1 0.2-4.3-0.4-5.9-2.2-2.2-2.5-2.5-6.7-1.5-10.1 0.5-1.9 1.3-3.7 2.3-5.3q0.5-0.2 1.1-0.3 0.5-0.2 1.1-0.3 0.5-0.1 1.1-0.2 0.6-0.1 1.1-0.2c5.4-0.5 9.9-2.5 15.3-2.5q0.6 0 1.2 0 0.6 0 1.2 0.1 0.6 0 1.2 0.1 0.6 0.1 1.2 0.2z"/><path class="a9" d="m3970.4 2015.7c3.1-5 4.3-11.7 3.2-17.9-1.2-6.1-4.4-11.3-7.6-16.2-1.3-2.1-2.7-4.3-4.6-5.5-1.9-1.3-4.5-1.4-6.1 0.4-2.1 2.4-1.4 6.6-0.7 10q0.8 3.6 1.3 7.2 0.6 3.6 0.9 7.3 0.3 3.7 0.5 7.4 0.1 3.7 0 7.4c-0.1 4.7-1.5 9.2 3.6 7.8 3.7-0.9 7.3-4.3 9.5-7.9z"/><path class="C" d="m3789.8 1497.7c0.6-0.8 1.5-1.2 2.4-1.1 0.9 0.2 1.6 1 2 2 0.4 1.1 0.2 2.5-0.3 3.6q-0.3 0.6-0.6 1.2-0.4 0.5-0.9 1-0.4 0.4-1 0.7-0.5 0.3-1.1 0.5-0.5 0.2-1.1 0.2-0.6 0-1.2-0.2-0.6-0.1-1.1-0.4-0.6-0.3-1-0.7c1-2.4 2.4-4.8 3.9-6.8z"/><path class="i" d="m3786.4 1505.3c-0.1 0.7 0 1.4 0.4 2 0.3 0.6 0.8 1.1 1.4 1.2 0.6 0.1 1.2 0 1.7-0.4 0.5-0.4 0.9-1.1 1-1.8 0.1-0.7 0-1.4-0.4-2.1-0.3-0.6-0.8-1-1.4-1.1-0.6-0.2-1.2 0-1.7 0.4-0.5 0.4-0.9 1.1-1 1.8z"/><path class="aa" d="m3768.6 1502.4q-0.5-0.2-1-0.4-0.5-0.3-0.9-0.7-0.5-0.3-0.9-0.8-0.4-0.4-0.7-0.9c-0.3-0.5-0.9-0.3-1.1 0.3-0.3 0.9-0.3 2 0 2.9 0.4 1.3 1.4 2.3 2.5 2.3 0.8 0 1.6-0.5 2.3-1.3 0.4-0.5 0.3-1.3-0.2-1.4z"/><path class="C" d="m3659.3 1434.2q0-0.6 0.1-1.3c0.1-0.4 0.1-0.9 0.3-1.2q0-0.1 0.1-0.2 0 0 0.1-0.1 0-0.1 0.1-0.1 0-0.1 0.1-0.1c0.7-0.6 1.7 0.1 2.4 0.8q0.8 1 1.7 1.9 4.4 4.6 8.7 9.2c0.4-1.3 1.1-3.7 1.7-5.9 0.2-0.8 1.3-0.7 1.4 0.3 0.1 3.5-0.2 7.6-0.8 11.1q0 0.3-0.1 0.6 0.5 0.6 1.1 1.1 2.2 2.4 4.7 5.1c1.6 1.7 3.4 3.5 5.2 5.3 3.6 3.7 7.6 7.4 11.7 11.3 2.1 1.9 4.3 3.8 6.5 5.8q1.7 1.4 3.4 2.9 1.7 1.4 3.5 2.9 1.7 1.5 3.5 3 0.9 0.7 1.8 1.4 0.9 0.8 1.8 1.5 3.7 2.9 7.5 5.8 0.9 0.7 1.9 1.4 0.9 0.7 1.9 1.4 0.9 0.7 1.9 1.5 0.9 0.7 1.8 1.4 1 0.7 1.9 1.4 0.9 0.6 1.8 1.3 1.9 1.3 3.7 2.6 1.8 1.3 3.6 2.6 1.8 1.2 3.5 2.4c2.4 1.6 4.6 3.3 6.9 4.8 4.5 3 8.7 6 12.8 8.7 2 1.3 3.8 2.7 5.7 4q2.8 1.9 5.3 3.8c3.4 2.5 6.4 4.7 9.1 7 1.3 1.1 2.5 2.2 3.6 3.3q0.4 0.3 0.8 0.7 0.3 0.3 0.7 0.7 0.4 0.4 0.8 0.8 0.3 0.4 0.7 0.7c3.5 3.9 5.2 7.5 4.4 10.1-0.7 2.7-3.8 4.1-8.8 4.2q-0.5 0-1 0-0.5 0-1 0-0.5 0-1 0-0.6-0.1-1.1-0.1c-1.4-0.2-3-0.5-4.7-0.8-3.3-0.8-7.1-1.8-11-3.4q-0.8-0.3-1.6-0.7-0.8-0.3-1.6-0.6-0.8-0.3-1.6-0.7-0.7-0.3-1.5-0.7c-2.2-0.9-4.3-2.1-6.6-3.3-4.6-2.4-9.2-5.5-14.1-8.7-2.5-1.7-4.9-3.6-7.3-5.4q-0.5-0.4-1-0.8-0.4-0.3-0.9-0.7-0.5-0.3-0.9-0.7-0.5-0.4-1-0.7-1.8-1.6-3.7-3.2-0.4-0.4-0.9-0.8-0.4-0.4-0.9-0.8-0.5-0.4-0.9-0.8-0.5-0.4-1-0.8-0.9-0.8-1.9-1.6c-0.6-0.6-1.2-1.2-1.8-1.8q-0.9-0.9-1.9-1.8-0.9-0.9-1.8-1.8-0.9-0.9-1.9-1.8-0.9-0.9-1.8-1.8-3.6-3.9-7.1-7.6-0.9-1-1.8-1.9l-1.6-2q-0.4-0.5-0.8-1-0.4-0.4-0.8-0.9-0.5-0.5-0.9-1-0.4-0.5-0.8-1-1.6-1.9-3.2-3.8-1.5-1.9-3-3.9c-1.9-2.6-3.9-5-5.7-7.6-3.6-5.1-7-9.9-9.9-14.6-1.5-2.4-3-4.6-4.3-6.8l-3.8-6.4q-0.3-0.5-0.5-0.9-0.3-0.4-0.5-0.9-0.3-0.4-0.5-0.9-0.3-0.4-0.5-0.9h-0.1q-0.6-0.1-1.2-0.3-0.6-0.2-1.2-0.6-0.6-0.3-1.1-0.8-0.5-0.4-1-0.9c-2.4-2.8-3.5-6.8-3.8-10.7q-0.1-0.4-0.1-0.9 0-0.4 0-0.8 0-0.4-0.1-0.8 0-0.4 0-0.9 0-1.4 0.2-2.8z"/><path class="ab" d="m3736.6 1571.5c4-22.4 42.4-2.2 43.2-1.8l-26-28.2q-0.6 0.4-1.1 0.8-0.6 0.5-1.1 0.9-0.6 0.4-1.1 0.9-0.6 0.5-1.1 1c-4.5 4.3-8.1 10-10.3 16.1-1.2 3.4-2 6.8-2.5 10.3z"/><path class="ac" d="m3749.6 1552l45.1 26.5c2-3.9 3.7-7.9 4.9-12.1 2.5-9.1 1.8-19.9-4.5-26.2l-3.2-2.4-32.2-18.3c0 0-9.6 8.2-10.3 25.6q0 0.8 0 1.7 0 0.9 0 1.7 0 0.9 0.1 1.8 0 0.8 0.1 1.7z"/><path class="a9" d="m3624.7 2028.8c5 1 10.5-0.9 14.4-5 3.9-4 6.1-9.9 8.2-15.5 0.9-2.4 1.9-4.9 1.9-7.5 0-2.6-1.1-5.5-3.2-6.3-2.7-1.1-5.4 1.5-7.5 3.9q-2.3 2.4-4.6 4.7-2.4 2.3-4.9 4.3-2.5 2.1-5.1 4-2.6 1.8-5.3 3.4c-3.5 2.1-7.4 2.7-4.1 7.6 2.5 3.4 6.5 5.7 10.2 6.4z"/><path class="h" d="m391 1215.2q0 13-8.9 21-8.9 8-24.9 8h-5.9l-4.6 23.8h-15.6l13.9-73h21.7q5.9 0 10.2 1 4.4 1 7.6 3.4 3.2 2.4 4.8 6.2 1.7 3.9 1.7 9.6zm-16.6 1.8q0-4.3-2.5-6.3-2.6-2.1-7.6-2.1h-6.3l-4.1 21.9h5.6q7 0 11-3.5 3.9-3.5 3.9-10zm84 5.2q0 8.9-2.5 17.6-2.5 8.7-7.3 15.2-5.2 7-12.1 10.8-7 3.7-16 3.7-12.4 0-19.4-7.7-6.9-7.7-6.9-21.3 0-9.5 2.7-18 2.6-8.6 7.6-15.1 4.8-6.4 12-10.1 7.2-3.8 15.6-3.8 12.4 0 19.3 7.7 7 7.8 7 21zm-22.2 24.9q2.8-4.4 4.3-10.1 1.6-5.8 1.6-13.3 0-7.9-3.1-12.3-3.1-4.4-8.8-4.4-3.8 0-7.2 2.1-3.4 2-6.3 6.3-2.8 4.1-4.5 10.1-1.7 6.1-1.7 13.6 0 8.4 3.2 12.7 3.2 4.2 8.8 4.2 3.9 0 7.5-2.3 3.6-2.3 6.2-6.6zm61 8l-2.4 12.9h-35.3l2.5-12.9h9.8l9-47.2h-9.8l2.4-12.9h35.3l-2.5 12.9h-9.8l-9 47.2zm78.9-60.1l-13.9 73h-13.2l-17.7-50.5-9.6 50.5h-14.3l13.9-73h17.3l15.2 42.3 8-42.3zm62.4 0l-2.6 14.1h-18.8l-11.2 58.9h-15.6l11.2-58.9h-18.8l2.7-14.1zm90.3 27.2q0 8.9-2.5 17.6-2.5 8.7-7.3 15.2-5.2 7-12.2 10.8-6.9 3.7-16 3.7-12.3 0-19.3-7.7-7-7.7-7-21.3 0-9.5 2.7-18 2.7-8.6 7.6-15.1 4.9-6.4 12.1-10.1 7.1-3.8 15.6-3.8 12.3 0 19.3 7.7 7 7.8 7 21zm-22.2 24.9q2.7-4.4 4.3-10.1 1.5-5.8 1.5-13.3 0-7.9-3.1-12.3-3-4.4-8.8-4.4-3.7 0-7.2 2.1-3.4 2-6.2 6.3-2.8 4.1-4.5 10.1-1.7 6.1-1.7 13.6 0 8.4 3.1 12.7 3.2 4.2 8.8 4.2 3.9 0 7.5-2.3 3.6-2.3 6.3-6.6zm39.8-52.1h43.2l-2.7 14.1h-27.6l-2.6 13.6h25.6l-2.7 14.1h-25.6l-5.9 31.2h-15.6zm90.4 74.3q-7.7 0-13.8-1.6-6-1.6-10.4-4l3.1-17.5h1.7q4.1 4.6 9.8 7.1 5.6 2.5 12.1 2.5 6.6 0 9.7-2.1 3.1-2.2 3.1-6.3 0-1.5-0.5-2.6-0.5-1.1-2-2.2-1.4-1.1-4-2.1-2.5-1.1-6.5-2.5-4.4-1.4-7.9-3.1-3.5-1.8-5.9-4.1-2.5-2.4-3.8-5.5-1.2-3.2-1.2-7.6 0-10.9 7.9-17.5 8-6.5 21.9-6.5 6.7 0 12.6 1.3 5.9 1.3 10 3.6l-2.9 16.8h-1.7q-3.1-3.5-8.3-5.9-5.1-2.4-11.3-2.4-5.9 0-9.2 2.1-3.3 2.1-3.3 5.9 0 1.7 0.5 2.8 0.5 1.1 2 2.2 1.3 1 4.1 2.2 2.8 1.1 6.5 2.3 10.1 3.3 14.4 7.7 4.4 4.4 4.4 12 0 6.3-2.4 11.1-2.3 4.8-6.4 7.8-4.4 3.2-9.9 4.7-5.5 1.4-12.4 1.4zm84.6-74.3l8.4 73h-15.7l-1.4-14.9h-22.1l-7 14.9h-16.3l36.1-73zm-24.6 45h14.8l-2.4-26.2zm87.2 13.9l-2.7 14.1h-43.5l13.9-73h15.6l-11.2 58.9zm20.5-58.9h43.7l-2.7 13.8h-28.1l-2.5 13h26.1l-2.7 13.9h-26l-3.6 18.4h28.1l-2.6 13.9h-43.6zm64.8 74.3q-7.7 0-13.8-1.6-6-1.6-10.4-4l3.1-17.5h1.7q4.1 4.6 9.8 7.1 5.6 2.5 12.1 2.5 6.6 0 9.7-2.1 3.1-2.2 3.1-6.3 0-1.5-0.5-2.6-0.5-1.1-2-2.2-1.4-1.1-4-2.1-2.5-1.1-6.5-2.5-4.4-1.4-7.9-3.2-3.5-1.7-5.9-4-2.5-2.4-3.8-5.6-1.2-3.1-1.2-7.5 0-11 7.9-17.5 8-6.6 21.9-6.6 6.7 0 12.6 1.4 5.9 1.3 10 3.6l-2.9 16.8h-1.7q-3.1-3.6-8.3-5.9-5.1-2.4-11.2-2.4-6 0-9.3 2.1-3.3 2.1-3.3 5.8 0 1.7 0.5 2.9 0.5 1.1 2 2.2 1.3 1 4.1 2.1 2.8 1.2 6.5 2.4 10.1 3.3 14.5 7.7 4.3 4.4 4.3 11.9 0 6.4-2.4 11.2-2.3 4.8-6.4 7.8-4.4 3.2-9.9 4.6-5.5 1.5-12.4 1.5z"/></svg>