<svg width="50" height="50" viewBox="0 0 50 50" fill="none" xmlns="http://www.w3.org/2000/svg">
<path d="M9.5 8L6 36H12.019C12.1441 37.6332 12.8813 39.1588 14.0829 40.2719C15.2845 41.385 16.8621 42.0034 18.5 42.0034C20.1379 42.0034 21.7155 41.385 22.9171 40.2719C24.1188 39.1588 24.8559 37.6332 24.981 36H25C25 37.5913 25.6321 39.1174 26.7574 40.2426C27.8826 41.3679 29.4087 42 31 42C32.5913 42 34.1174 41.3679 35.2426 40.2426C36.3679 39.1174 37 37.5913 37 36H37.019C37.1441 37.6332 37.8812 39.1588 39.0829 40.2719C40.2845 41.385 41.8621 42.0034 43.5 42.0034C45.1379 42.0034 46.7155 41.385 47.9171 40.2719C49.1188 39.1588 49.8559 37.6332 49.981 36H50V35L49.955 34.727C49.9397 34.5978 49.9204 34.469 49.897 34.341L49.874 34.223L49.854 34.123L46.057 11.343C45.9015 10.409 45.4197 9.56047 44.6973 8.94833C43.9749 8.3362 43.0588 8.00016 42.112 8H9.5Z" fill="black"/>
<path d="M14 8L12 36C12 37.5913 11.3679 39.1174 10.2426 40.2426C9.11742 41.3679 7.5913 42 6 42C4.4087 42 2.88258 41.3679 1.75736 40.2426C0.632141 39.1174 0 37.5913 0 36L0 35L3.494 11.414C3.63455 10.465 4.11149 9.59811 4.83786 8.97142C5.56423 8.34472 6.49165 7.99996 7.451 8H14ZM35 8L37 36C37 37.5913 36.3679 39.1174 35.2426 40.2426C34.1174 41.3679 32.5913 42 31 42C29.4087 42 27.8826 41.3679 26.7574 40.2426C25.6321 39.1174 25 37.5913 25 36V8H35Z" fill="#FF9103"/>
<path d="M12 36C12 37.5913 11.3679 39.1174 10.2426 40.2426C9.11742 41.3679 7.5913 42 6 42C4.4087 42 2.88258 41.3679 1.75736 40.2426C0.632141 39.1174 0 37.5913 0 36H12ZM37 36C37 37.5913 36.3679 39.1174 35.2426 40.2426C34.1174 41.3679 32.5913 42 31 42C29.4087 42 27.8826 41.3679 26.7574 40.2426C25.6321 39.1174 25 37.5913 25 36H37Z" fill="#F78613"/>
<path d="M12.02 36C12.1467 37.6319 12.8844 39.1559 14.0858 40.2676C15.2871 41.3794 16.8637 41.9969 18.5005 41.9969C20.1373 41.9969 21.7139 41.3794 22.9152 40.2676C24.1166 39.1559 24.8543 37.6319 24.981 36H12.02ZM37.02 36C37.1467 37.6319 37.8844 39.1559 39.0858 40.2676C40.2871 41.3794 41.8637 41.9969 43.5005 41.9969C45.1373 41.9969 46.7139 41.3794 47.9152 40.2676C49.1166 39.1559 49.8543 37.6319 49.981 36H37.02Z" fill="#3C3C3C"/>
</svg>
