<svg width="674" height="411" viewBox="0 0 674 411" fill="none" xmlns="http://www.w3.org/2000/svg">
<path d="M255.867 101.286H192.531C180.841 101.286 171.364 91.809 171.364 80.119V49.734C171.364 38.044 180.841 28.567 192.531 28.567H255.867C267.557 28.567 277.034 38.044 277.034 49.734V80.119C277.034 91.81 267.557 101.286 255.867 101.286Z" fill="#FF9E22"/>
<path d="M215.919 60.963H197.429V63.375H215.919V60.963Z" fill="white"/>
<path d="M239.551 54.534H197.429V56.946H239.551V54.534Z" fill="white"/>
<path d="M429.657 208.066H390.989C383.852 208.066 378.066 202.28 378.066 195.143V176.592C378.066 169.455 383.852 163.669 390.989 163.669H429.657C436.794 163.669 442.58 169.455 442.58 176.592V195.143C442.579 202.28 436.794 208.066 429.657 208.066Z" fill="black"/>
<path d="M420.249 190.495H431.538V189.023H420.249V190.495Z" fill="white"/>
<path d="M405.823 194.421H431.539V192.949H405.823V194.421Z" fill="white"/>
<path d="M456.716 106.79H434.736C432.168 106.79 430.086 104.708 430.086 102.14C430.086 99.572 432.168 97.491 434.736 97.491H456.716C459.284 97.491 461.366 99.573 461.366 102.14C461.366 104.708 459.284 106.79 456.716 106.79Z" fill="#FFB264"/>
<path d="M440.055 116.024H444.153V111.926H440.055V116.024Z" fill="#E37059"/>
<path d="M433.533 116.024H437.631V111.926H433.533V116.024Z" fill="#E37059"/>
<path d="M433.533 122.107H437.631V118.009H433.533V122.107Z" fill="#E37059"/>
<path d="M589.606 125.56V120.546C589.606 109.725 580.833 100.952 570.012 100.952H463.197" stroke="white" stroke-miterlimit="10"/>
<path d="M673.363 239.739H501.526V134.143C501.526 129.522 505.273 125.775 509.894 125.775H664.995C669.617 125.775 673.363 129.521 673.363 134.143V239.739Z" fill="white"/>
<path d="M501.526 139.13H673.363" stroke="#FF9E22" stroke-width="0.8925" stroke-miterlimit="10"/>
<path d="M513.991 136.162C515.958 136.162 517.552 134.568 517.552 132.601C517.552 130.634 515.958 129.04 513.991 129.04C512.024 129.04 510.43 130.634 510.43 132.601C510.43 134.568 512.024 136.162 513.991 136.162Z" fill="#FF9E22"/>
<path d="M527.049 136.162C529.016 136.162 530.61 134.568 530.61 132.601C530.61 130.634 529.016 129.04 527.049 129.04C525.082 129.04 523.488 130.634 523.488 132.601C523.488 134.568 525.082 136.162 527.049 136.162Z" fill="#E37059"/>
<path d="M540.108 136.162C542.075 136.162 543.669 134.568 543.669 132.601C543.669 130.634 542.075 129.04 540.108 129.04C538.141 129.04 536.547 130.634 536.547 132.601C536.547 134.568 538.141 136.162 540.108 136.162Z" fill="#FFD9A9"/>
<g opacity="0.88">
<path d="M544.674 187.723C544.875 177.247 553.425 168.815 563.949 168.815V151.595C543.788 151.595 527.445 167.939 527.445 188.099C527.445 187.633 535.902 187.615 544.674 187.723Z" fill="#FF9E22"/>
<path d="M583.234 188.099C583.234 198.749 574.6 207.383 563.95 207.383V224.603C584.111 224.603 600.454 208.26 600.454 188.099H583.234Z" fill="#FF9E22"/>
<path d="M544.665 188.099C544.665 187.973 544.672 187.848 544.675 187.723C535.902 187.616 527.446 187.633 527.446 188.099C527.446 208.26 543.79 224.603 563.95 224.603V207.383C553.299 207.384 544.665 198.75 544.665 188.099Z" fill="#FFD9A9"/>
<path d="M583.234 188.099H600.454C600.454 167.938 584.11 151.595 563.95 151.595V168.815C574.6 168.815 583.234 177.449 583.234 188.099Z" fill="#FFD9A9"/>
<path d="M563.949 176.793C557.779 176.793 552.766 181.737 552.648 187.879C558.191 187.947 563.949 188.1 563.949 188.1V176.793Z" fill="#1B314F"/>
<path d="M563.949 199.406C570.194 199.406 575.256 194.344 575.256 188.099H563.949V199.406Z" fill="#1B314F"/>
<path d="M552.648 187.879C552.647 187.953 552.642 188.026 552.642 188.1C552.642 194.344 557.704 199.407 563.949 199.407V188.1C563.949 188.1 558.191 187.947 552.648 187.879Z" fill="#1B314F"/>
<path d="M563.949 176.793V188.1H575.256C575.256 181.855 570.194 176.793 563.949 176.793Z" fill="#FF9E22"/>
</g>
<path d="M637.334 163.688H620.832V165.84H637.334V163.688Z" fill="#FFB264"/>
<path d="M658.424 169.426H620.832V171.578H658.424V169.426Z" fill="#FFB264"/>
<path d="M666.537 155.75H614.699V182.658H666.537V155.75Z" stroke="#FF9E22" stroke-width="0.8925" stroke-miterlimit="10"/>
<path d="M647.029 210.778H630.527V212.93H647.029V210.778Z" fill="#FFB264"/>
<path d="M625.581 212.139C625.581 210.063 623.898 208.38 621.822 208.38C619.746 208.38 618.063 210.063 618.063 212.139C618.063 214.215 619.746 215.898 621.822 215.898C623.898 215.898 625.581 214.215 625.581 212.139Z" fill="#FFD9A9"/>
<path d="M171.891 347.483H0.0540161V241.886C0.0540161 237.265 3.80001 233.518 8.42201 233.518H163.523C168.145 233.518 171.891 237.264 171.891 241.886V347.483Z" fill="white"/>
<path d="M0.0540161 246.874H171.891" stroke="#FF9E22" stroke-width="0.8925" stroke-miterlimit="10"/>
<path d="M16.08 240.344C16.08 238.377 14.486 236.783 12.519 236.783C10.552 236.783 8.95801 238.378 8.95801 240.344C8.95801 242.311 10.552 243.905 12.519 243.905C14.486 243.906 16.08 242.311 16.08 240.344Z" fill="#FF9E22"/>
<path d="M29.139 240.344C29.139 238.377 27.545 236.783 25.578 236.783C23.611 236.783 22.017 238.378 22.017 240.344C22.017 242.311 23.612 243.905 25.578 243.905C27.544 243.906 29.139 242.311 29.139 240.344Z" fill="#E37059"/>
<path d="M42.197 240.344C42.197 238.377 40.603 236.783 38.636 236.783C36.669 236.783 35.075 238.378 35.075 240.344C35.075 242.311 36.669 243.905 38.636 243.905C40.603 243.905 42.197 242.311 42.197 240.344Z" fill="#FFD9A9"/>
<g opacity="0.88">
<path d="M62.477 268.752C47.693 268.752 35.683 280.597 35.4 295.314C48.681 295.477 62.477 295.843 62.477 295.843V268.752Z" fill="black"/>
<path d="M62.477 322.933C77.439 322.933 89.568 310.804 89.568 295.842H62.477V322.933Z" fill="black"/>
<path d="M35.4 295.314C35.397 295.491 35.387 295.666 35.387 295.843C35.387 310.805 47.516 322.934 62.477 322.934V295.843C62.477 295.843 48.681 295.476 35.4 295.314Z" fill="#FFD9A9"/>
<path d="M62.477 268.752V295.842H89.568C89.568 280.881 77.439 268.752 62.477 268.752Z" fill="#FF9E22"/>
</g>
<path d="M135.863 271.431H119.361V273.583H135.863V271.431Z" fill="#FFB264"/>
<path d="M156.953 277.169H119.361V279.321H156.953V277.169Z" fill="#FFB264"/>
<path d="M165.065 263.493H113.227V290.401H165.065V263.493Z" stroke="#FF9E22" stroke-width="0.8925" stroke-miterlimit="10"/>
<path d="M145.557 318.521H129.055V320.673H145.557V318.521Z" fill="#FFB264"/>
<path d="M124.109 319.882C124.109 317.806 122.426 316.123 120.35 316.123C118.274 316.123 116.591 317.806 116.591 319.882C116.591 321.958 118.274 323.641 120.35 323.641C122.426 323.641 124.109 321.958 124.109 319.882Z" fill="#E37059"/>
<path d="M95.978 106.168H72.3C61.921 106.168 53.507 114.582 53.507 124.961V234.832" stroke="white" stroke-miterlimit="10"/>
<path d="M100.628 110.818H122.608C125.176 110.818 127.258 108.736 127.258 106.168C127.258 103.6 125.176 101.518 122.608 101.518H100.628C98.06 101.518 95.978 103.6 95.978 106.168C95.978 108.736 98.06 110.818 100.628 110.818Z" fill="#FF9E22"/>
<path d="M117.29 115.954H113.192V120.052H117.29V115.954Z" fill="#FF9E22"/>
<path d="M123.811 115.954H119.713V120.052H123.811V115.954Z" fill="#FF9E22"/>
<path d="M123.811 122.036H119.713V126.134H123.811V122.036Z" fill="#FF9E22"/>
<path d="M230.351 176.661C230.351 176.661 197.374 211.329 191.516 205.713L202.218 185.519C202.263 186.055 225.352 167.962 225.352 167.962C225.352 167.962 230.088 156.077 231.929 156.088C233.734 156.1 229.935 162.864 230.579 163.734C231.223 164.605 242.511 150.234 243.8 151.976C244.493 152.912 236.739 160.524 237.381 161.756C237.715 162.396 246.401 156.934 247.305 157.198C249.828 157.937 237.657 163.707 238.377 164.073C239.097 164.439 248.088 158.864 248.221 160.743C248.303 161.905 239.954 165.961 240.093 166.757C240.232 167.552 244.874 164.477 246.387 165.065C247.9 165.653 240.147 169.502 239.637 170.149C239.128 170.796 234.696 174.883 230.351 176.661Z" fill="#FFB264"/>
<path d="M182.798 151.387C182.798 151.387 190.827 154.074 192.745 160.163C194.663 166.252 203.232 184.529 203.232 184.529L191.679 205.894C191.679 205.894 158.366 163.356 182.798 151.387Z" fill="#FFB264"/>
<path d="M182.132 149.392C190.778 148.062 195.558 158.131 203.269 176.721L183.535 192.555C183.535 192.555 155.243 153.529 182.132 149.392Z" fill="white"/>
<path d="M182.237 111.941C178.113 106.785 168.551 103.369 160.683 106.574C160.683 106.574 160.637 106.589 160.551 106.618C155.532 108.322 152.075 113.097 152.272 118.394C152.401 121.86 153.265 125.285 154.741 127.93C158.268 134.249 164.959 136.926 171.934 136.522C173.406 136.437 174.535 136.898 175.331 137.658L183.438 123.758C184.415 121.822 184.641 114.945 182.237 111.941Z" fill="#151F36"/>
<path d="M150.12 132.435C154.028 130.808 155.877 126.32 154.249 122.411C152.621 118.503 148.133 116.655 144.225 118.282C140.316 119.91 138.468 124.398 140.096 128.307C141.724 132.215 146.212 134.063 150.12 132.435Z" fill="#151F36"/>
<path d="M162.808 125.761C162.72 126.034 161.735 123.919 161.465 123.821C160.338 123.413 157.82 122.242 156.397 125.063C154.959 127.915 157.203 130.61 158.881 131.314C159.365 131.517 160.927 132.59 161.167 133.057C163.275 137.158 160.495 145.873 160.198 149.206C159.542 156.566 153.571 148.493 153.571 148.493C153.571 148.493 173.487 164.157 176.428 155.404C174.024 151.198 172.527 137.956 174.638 138.746C177.407 139.782 183.228 136.294 183.937 123.691C180.707 114.325 176.67 112.871 176.628 112.14C176.347 118.686 172.633 123.046 162.808 125.761Z" fill="#FFB264"/>
<path d="M157.375 126.377C157.375 126.377 160.485 123.269 160.945 129.087Z" fill="#E68522"/>
<path d="M171.919 127.015C173.394 127.505 174.193 129.098 173.704 130.573C173.214 132.048 171.621 132.847 170.146 132.358C168.671 131.868 167.872 130.275 168.361 128.8C168.851 127.324 170.444 126.525 171.919 127.015Z" fill="#E68522"/>
<path d="M182.609 131.949C181.475 131.296 180.916 129.915 181.345 128.624C181.675 127.629 182.508 126.941 183.467 126.75C183.467 126.75 183.552 130.086 182.609 131.949Z" fill="#E68522"/>
<path d="M178.822 125.747L178.431 128.86L180.057 128.741C180.357 128.719 180.524 128.384 180.361 128.132L178.822 125.747Z" fill="#E68522"/>
<path d="M174.023 122.814C173.498 123.179 174.311 121.542 175.027 121.355C175.744 121.167 176.455 121.517 176.617 122.136C176.617 122.136 175.285 121.938 174.023 122.814Z" fill="black"/>
<path d="M182.673 122.652C183.195 123.022 182.398 121.377 181.683 121.183C180.968 120.988 180.253 121.331 180.085 121.948C180.085 121.948 181.42 121.763 182.673 122.652Z" fill="black"/>
<path d="M175.595 125.768C175.618 126.321 175.853 126.76 176.121 126.749C176.389 126.738 176.588 126.281 176.566 125.729C176.543 125.176 176.308 124.737 176.04 124.748C175.772 124.758 175.573 125.215 175.595 125.768Z" fill="black"/>
<path d="M179.975 125.322C179.996 125.85 180.221 126.269 180.477 126.259C180.733 126.248 180.923 125.812 180.902 125.284C180.881 124.756 180.656 124.337 180.4 124.347C180.143 124.358 179.953 124.795 179.975 125.322Z" fill="black"/>
<path d="M174.007 138.714C174.007 138.714 170.106 137.333 167.622 136.261C165.138 135.189 171.287 145.416 174.007 138.714Z" fill="#E68522"/>
<path d="M168.894 381.452L170.839 395.266C170.839 395.266 173.959 404.427 176.856 400.881C179.753 397.335 182.621 395.46 182.621 395.46L183.572 381.098L168.894 381.452Z" fill="#FF9E22"/>
<path d="M122.722 380.391L118.423 394.171C118.423 394.171 115.151 397.04 113.97 396.966C111.822 396.831 110.695 393.125 110.695 393.125L110.341 380.392H122.722V380.391Z" fill="#FF9E22"/>
<path d="M183.576 395.388L195.145 404.766C195.737 405.206 195.314 405.946 194.468 405.953L177.39 406.092C176.979 406.095 176.61 405.908 176.473 405.627L175.185 402.986C174.813 402.223 174.071 402.161 174.14 402.969L173.509 405.518C173.543 405.92 169.46 405.81 169.424 405.445C169.2 403.178 169.672 395.764 170.079 393.7C170.137 393.404 170.441 393.167 170.844 393.109H170.846C171.208 393.057 171.579 393.157 171.801 393.372C172.953 394.487 176.64 397.843 178.604 397.164C179.921 396.709 181.626 395.893 182.158 395.424C182.517 395.106 183.181 395.095 183.576 395.388Z" fill="#D4603F"/>
<path d="M110.537 392.646L103.967 403.65C103.265 404.72 103.656 405.997 104.924 406.752C106.978 407.975 108.657 410.414 109.949 410.45C112.285 410.515 115.915 408.055 118.031 407.133C119.451 406.514 120.563 405.607 120.388 404.419L118.755 393.381C118.735 393.245 118.494 393.194 118.375 393.302L115.86 395.582C115.036 396.329 112.799 396.229 112.244 395.335C111.848 394.697 110.918 392.638 110.918 392.638C110.833 392.528 110.611 392.533 110.537 392.646Z" fill="#D4603F"/>
<path d="M149.541 195.714C144.237 205.091 137.274 215.109 134.226 227.03C130.691 240.856 110.476 358.327 108.809 383.475C113.166 384.525 119.698 383.847 122.45 383.694C131.209 358.596 157.677 266.672 161.432 250.86C162.009 248.429 165.765 248.963 165.472 251.444C163.34 269.5 168.773 336.155 168.773 385.676C171.058 386.839 180.988 386.007 183.627 385.676C186.497 354.707 202.381 236.104 179.387 198.102C168.873 196.652 160.202 195.397 149.541 195.714Z" fill="#1B314F"/>
<mask id="mask0_24_586" style="mask-type:luminance" maskUnits="userSpaceOnUse" x="108" y="195" width="84" height="192">
<path d="M149.541 195.714C144.237 205.091 137.274 215.109 134.226 227.03C130.691 240.856 110.476 358.327 108.809 383.475C113.166 384.525 119.698 383.847 122.45 383.694C131.209 358.596 157.677 266.672 161.432 250.86C162.009 248.429 165.765 248.963 165.472 251.444C163.34 269.5 168.773 336.155 168.773 385.676C171.058 386.839 180.988 386.007 183.627 385.676C186.497 354.707 202.381 236.104 179.387 198.102C168.873 196.652 160.202 195.397 149.541 195.714Z" fill="white"/>
</mask>
<g mask="url(#mask0_24_586)">
<path d="M150.494 193.624C150.55 198.442 152.937 202.739 155.357 206.764C157.666 210.604 160.234 214.309 163.243 217.638C169.068 224.081 176.732 228.911 185.572 229.464C190.367 229.764 195.186 228.707 199.229 226.065C199.632 225.802 199.256 225.152 198.851 225.417C191.667 230.11 182.254 229.502 174.79 225.771C167.184 221.97 161.523 215.18 157.065 208.109C154.311 203.741 151.306 198.948 151.244 193.624C151.238 193.141 150.488 193.14 150.494 193.624Z" fill="#FFD9A9"/>
<path d="M134.384 216.565C139.198 227.442 144.161 238.715 144.398 250.812C144.51 256.546 143.546 262.362 141.019 267.545C138.862 271.97 135.66 275.806 131.896 278.956C127.523 282.616 122.42 285.34 117.063 287.253C116.612 287.414 116.806 288.139 117.262 287.976C126.705 284.605 135.636 278.603 140.698 269.75C146.585 259.454 145.919 246.95 142.721 235.908C140.755 229.119 137.885 222.639 135.03 216.187C134.836 215.746 134.19 216.127 134.384 216.565Z" fill="#FFD9A9"/>
<path d="M189.528 245.112C181.386 250.988 177.799 261.38 178.51 271.165C179.343 282.626 185.761 292.931 193.266 301.284C197.664 306.178 202.649 310.673 208.687 313.431C209.123 313.63 209.504 312.984 209.066 312.783C203.92 310.432 199.544 306.811 195.65 302.751C191.757 298.691 188.211 294.249 185.364 289.389C180.037 280.294 177.419 269.533 180.578 259.231C182.215 253.892 185.35 249.048 189.907 245.759C190.294 245.48 189.92 244.829 189.528 245.112Z" fill="#FFD9A9"/>
<path d="M116.009 315.564C125.865 322.387 133.626 332.017 138.187 343.104C138.368 343.544 139.094 343.351 138.91 342.905C134.268 331.623 126.419 321.862 116.387 314.916C115.99 314.641 115.615 315.291 116.009 315.564Z" fill="#FFD9A9"/>
<path d="M108.846 327.426C120.548 339.554 128.492 355.116 131.583 371.678C132.468 376.419 132.935 381.226 133.004 386.048C133.011 386.53 133.761 386.532 133.754 386.048C133.51 369.008 128.116 352.146 118.497 338.082C115.776 334.104 112.723 330.365 109.377 326.897C109.041 326.548 108.511 327.079 108.846 327.426Z" fill="#FFD9A9"/>
<path d="M198.141 321.902C180.166 333.488 168.047 353.253 165.164 374.378C164.354 380.313 164.285 386.326 164.994 392.275C165.051 392.748 165.801 392.754 165.744 392.275C163.236 371.232 170.667 349.498 184.983 333.956C188.996 329.599 193.54 325.759 198.52 322.549C198.924 322.289 198.549 321.639 198.141 321.902Z" fill="#FFD9A9"/>
<path d="M181.601 390.444C180.387 387.462 179.181 384.306 179.285 381.033C179.388 377.798 181.039 375.073 183.262 372.822C187.541 368.488 193.101 365.146 198.52 362.447C198.952 362.232 198.573 361.585 198.142 361.799C195.017 363.355 192.004 365.124 189.139 367.121C186.576 368.908 183.979 370.822 181.904 373.176C180.002 375.334 178.691 377.899 178.543 380.808C178.368 384.222 179.614 387.535 180.879 390.643C181.057 391.085 181.783 390.892 181.601 390.444Z" fill="#FFD9A9"/>
</g>
<path d="M174.595 148.395C175.627 149.22 185.365 172.199 185.001 179.479C184.634 186.813 188.451 200.802 188.451 200.802C188.451 200.802 176.574 205.261 145.181 200.318C137.43 183.604 133.001 163.911 143.336 153.495C143.336 153.495 157.538 144.559 160.199 144.363C160.199 144.363 169.607 157.983 173.487 157.929C175.25 157.903 174.795 150.999 174.595 148.395Z" fill="white"/>
<path d="M158.633 145.069L158.855 139.527L178.807 144.404L177.477 150.833C177.477 150.833 184.128 166.13 175.703 163.691C167.279 161.253 158.633 145.069 158.633 145.069Z" fill="white"/>
<path d="M146.216 162.46C148.153 172.412 152.18 181.876 154.955 191.612C155.937 195.058 156.877 198.514 157.798 201.976C154.17 201.61 149.995 201.075 145.18 200.317C139.044 187.087 138.682 168.398 143.922 156.014C144.687 158.163 145.451 160.311 146.216 162.46Z" fill="#39194B"/>
<path d="M185.79 211.577C185.79 211.577 142.506 220.123 140.124 212.365L137.06 188.205L155.975 182.69L158.19 199.938C157.968 200.428 191.23 203.828 191.23 203.828C191.23 203.828 197.966 203.771 201.753 205.591C201.953 205.687 209.401 211.244 211.729 214.57L197.553 215.586C196.062 215.555 185.79 211.577 185.79 211.577Z" fill="#FFB264"/>
<path d="M151.381 151.601C151.381 151.601 158.184 156.543 156.895 162.796C155.606 169.049 156.416 184.087 156.416 184.087L136.393 189.243C136.393 189.243 124.214 150.162 151.381 151.601Z" fill="white"/>
<path d="M344.173 209.808C388.018 202.532 417.664 161.09 410.388 117.245C403.112 73.4001 361.671 43.7548 317.826 51.0304C273.981 58.3061 244.335 99.7477 251.611 143.593C258.887 187.438 300.328 217.083 344.173 209.808Z" fill="#FF9E22"/>
<path d="M411.475 130.438C411.475 85.993 375.445 49.963 331 49.963C286.555 49.963 250.525 85.993 250.525 130.438" fill="white"/>
<path d="M329.67 130.438H250.525C250.525 85.993 286.555 49.963 331 49.963L329.67 130.438Z" fill="#FFD9A9"/>
<path d="M395.894 195.337C431.737 159.495 431.737 101.383 395.894 65.5405C360.052 29.6981 301.94 29.6981 266.097 65.5405C230.255 101.383 230.255 159.495 266.097 195.337C301.94 231.18 360.052 231.18 395.894 195.337Z" stroke="white" stroke-miterlimit="10"/>
<path d="M355.719 89.797L386.313 59.203H510.683" stroke="#1B314F" stroke-width="0.75" stroke-miterlimit="10" stroke-linecap="round"/>
<path d="M510.683 63.264C513.293 63.264 515.409 61.1481 515.409 58.538C515.409 55.9279 513.293 53.812 510.683 53.812C508.073 53.812 505.957 55.9279 505.957 58.538C505.957 61.1481 508.073 63.264 510.683 63.264Z" fill="#1B314F"/>
<path d="M326.455 197.611L357.049 228.204H481.419" stroke="#1B314F" stroke-width="0.75" stroke-miterlimit="10" stroke-linecap="round"/>
<path d="M481.419 233.596C484.029 233.596 486.145 231.48 486.145 228.87C486.145 226.26 484.029 224.144 481.419 224.144C478.809 224.144 476.693 226.26 476.693 228.87C476.693 231.48 478.809 233.596 481.419 233.596Z" fill="#1B314F"/>
<path d="M454.08 222.172H374.873C372.263 222.172 370.146 220.056 370.146 217.445C370.146 214.835 372.262 212.718 374.873 212.718H454.08C456.69 212.718 458.807 214.834 458.807 217.445C458.807 220.056 456.69 222.172 454.08 222.172Z" fill="#FF9E22"/>
<path d="M447.242 45.26H388.923C387.001 45.26 385.443 43.702 385.443 41.78C385.443 39.858 387.001 38.3 388.923 38.3H447.242C449.164 38.3 450.722 39.858 450.722 41.78C450.722 43.702 449.164 45.26 447.242 45.26Z" fill="#FF9E22"/>
<path d="M430.54 30.628H387.982C386.579 30.628 385.442 29.491 385.442 28.088C385.442 26.685 386.579 25.548 387.982 25.548H430.54C431.943 25.548 433.08 26.685 433.08 28.088C433.08 29.491 431.943 30.628 430.54 30.628Z" fill="white"/>
<path d="M488.59 379.616L487.027 398.841L459.365 404.719L473.631 390.513L477.076 378.464L488.59 379.616Z" fill="#FFA47E"/>
<path d="M473.622 388.826L454.049 406.072L491.084 406.456L488.59 389.018L481.298 396.118L473.622 388.826Z" fill="#D4603F"/>
<path d="M469.956 391.026L473.368 393.215" stroke="white" stroke-width="0.5266" stroke-miterlimit="10"/>
<path d="M466.911 392.461L470.323 394.649" stroke="white" stroke-width="0.5266" stroke-miterlimit="10"/>
<path d="M521.772 383.306L519.216 399.624L547.934 406.022L532.566 391.527L533.538 382.657L521.772 383.306Z" fill="#FFA47E"/>
<path d="M533.877 390.553L550.973 406.89L517.775 406.506L520.326 391.253L525.433 398.229L533.877 390.553Z" fill="#D4603F"/>
<path d="M537.19 392.63L533.679 394.656" stroke="white" stroke-width="0.5266" stroke-miterlimit="10"/>
<path d="M540.165 394.205L536.654 396.231" stroke="white" stroke-width="0.5266" stroke-miterlimit="10"/>
<path d="M531.001 198.926L498.113 202.102C498.113 202.102 493.439 205.53 488.765 223.292C483.07 244.935 474.538 301.253 471.733 382.431L493.003 383.07L510.424 259.173C510.945 257.367 513.618 257.805 513.536 259.682L519.25 384.461L540.209 383.646C540.209 383.646 546.514 247.902 540.987 226.713C535.777 206.741 531.001 198.926 531.001 198.926Z" fill="#25334C"/>
<mask id="mask1_24_586" style="mask-type:luminance" maskUnits="userSpaceOnUse" x="471" y="198" width="73" height="187">
<path d="M531.001 198.926L498.113 202.102C498.113 202.102 493.439 205.53 488.765 223.292C483.07 244.935 474.538 301.253 471.733 382.431L493.003 383.07L510.424 259.173C510.945 257.367 513.618 257.805 513.536 259.682L519.25 384.461L540.209 383.646C540.209 383.646 546.514 247.902 540.987 226.713C535.777 206.741 531.001 198.926 531.001 198.926Z" fill="white"/>
</mask>
<g mask="url(#mask1_24_586)">
<path d="M477.243 220.735C479.892 227.058 482.873 234.088 489.198 237.547C491.88 239.013 495.018 239.794 498.067 239.297C501.259 238.777 503.58 236.716 505.892 234.617C508.279 232.449 510.944 230.362 514.372 230.891C517.028 231.301 519.322 233.003 521.408 234.587C525.854 237.963 530.526 241.815 536.422 239.556C540.093 238.15 542.872 235.276 546.324 233.493C549.595 231.804 554.266 230.785 557.018 233.916C557.331 234.272 557.848 233.751 557.537 233.397C553.206 228.47 546.125 232.522 541.976 235.449C539.02 237.535 535.732 239.856 531.925 239.519C529.139 239.272 526.693 237.655 524.504 236.034C520.638 233.171 516.185 228.803 510.917 230.415C508.112 231.273 506.068 233.529 503.926 235.403C501.081 237.891 497.874 239.192 494.062 238.524C485.135 236.959 481.082 228.014 477.951 220.542C477.772 220.11 477.061 220.299 477.243 220.735Z" fill="#FFD9A9"/>
</g>
<mask id="mask2_24_586" style="mask-type:luminance" maskUnits="userSpaceOnUse" x="471" y="198" width="73" height="187">
<path d="M531.001 198.926L498.113 202.102C498.113 202.102 493.439 205.53 488.765 223.292C483.07 244.935 474.538 301.253 471.733 382.431L493.003 383.07L510.424 259.173C510.945 257.367 513.618 257.805 513.536 259.682L519.25 384.461L540.209 383.646C540.209 383.646 546.514 247.902 540.987 226.713C535.777 206.741 531.001 198.926 531.001 198.926Z" fill="white"/>
</mask>
<g mask="url(#mask2_24_586)">
<path d="M470.754 249.866C475.009 256.674 479.825 264.46 487.561 267.707C494.54 270.636 499.762 265.401 505.149 261.771C508.208 259.709 511.643 258.231 515.385 259.138C519.319 260.091 522.462 263.023 525.283 265.765C527.632 268.047 530.407 271.879 534.059 271.742C537.754 271.604 540.105 267.925 542.958 266.092C552.422 260.015 563.483 266.778 571.471 272.078C571.866 272.34 572.234 271.704 571.842 271.444C564.867 266.816 557.059 261.868 548.29 263.319C546.405 263.631 544.56 264.265 542.919 265.252C541.341 266.201 540.043 267.507 538.649 268.692C537.106 270.003 535.228 271.339 533.085 270.939C530.876 270.527 529.22 268.611 527.694 267.106C522.949 262.43 517.125 256.366 509.771 258.602C503.534 260.498 499.335 267.274 492.64 267.863C487.696 268.298 483.085 264.568 479.876 261.207C476.534 257.707 473.943 253.58 471.389 249.494C471.138 249.095 470.502 249.463 470.754 249.866Z" fill="#FFD9A9"/>
</g>
<mask id="mask3_24_586" style="mask-type:luminance" maskUnits="userSpaceOnUse" x="471" y="198" width="73" height="187">
<path d="M531.001 198.926L498.113 202.102C498.113 202.102 493.439 205.53 488.765 223.292C483.07 244.935 474.538 301.253 471.733 382.431L493.003 383.07L510.424 259.173C510.945 257.367 513.618 257.805 513.536 259.682L519.25 384.461L540.209 383.646C540.209 383.646 546.514 247.902 540.987 226.713C535.777 206.741 531.001 198.926 531.001 198.926Z" fill="white"/>
</mask>
<g mask="url(#mask3_24_586)">
<path d="M469.641 280.272C473.474 286.924 478.18 293.059 483.65 298.448C485.663 300.431 488.333 303.921 491.494 302.311C494.692 300.682 496.674 297.259 499.073 294.729C501.669 291.991 505.663 289.62 509.36 291.73C511.923 293.193 513.442 295.985 515.363 298.125C517.437 300.435 520.023 301.803 523.165 301.892C526.766 301.993 530.184 300.664 533.389 299.158C537.196 297.369 541.276 295.038 545.628 295.286C549.287 295.494 553.425 297.698 553.891 301.673C553.945 302.137 554.68 302.142 554.625 301.673C553.896 295.458 546.519 293.725 541.387 295.053C537.582 296.038 534.209 298.135 530.592 299.603C527.016 301.054 522.622 302.003 519.008 300.16C513.98 297.596 512.115 289.349 505.391 290.224C501.955 290.671 499.315 293.24 497.179 295.76C495.978 297.178 494.83 298.653 493.47 299.925C492.674 300.67 491.73 301.525 490.677 301.879C489.357 302.322 488.279 301.684 487.287 300.847C480.437 295.063 474.732 287.641 470.274 279.904C470.039 279.491 469.404 279.861 469.641 280.272Z" fill="#FFD9A9"/>
</g>
<mask id="mask4_24_586" style="mask-type:luminance" maskUnits="userSpaceOnUse" x="471" y="198" width="73" height="187">
<path d="M531.001 198.926L498.113 202.102C498.113 202.102 493.439 205.53 488.765 223.292C483.07 244.935 474.538 301.253 471.733 382.431L493.003 383.07L510.424 259.173C510.945 257.367 513.618 257.805 513.536 259.682L519.25 384.461L540.209 383.646C540.209 383.646 546.514 247.902 540.987 226.713C535.777 206.741 531.001 198.926 531.001 198.926Z" fill="white"/>
</mask>
<g mask="url(#mask4_24_586)">
<path d="M466.598 312.571C471.365 318.978 473.093 327.734 480.041 332.379C482.803 334.226 486.305 335.37 489.607 334.46C493.136 333.488 495.095 330.331 497.8 328.145C501.45 325.195 506.316 325.812 510.112 328.169C512.014 329.35 513.66 330.892 515.2 332.505C516.561 333.93 517.786 335.716 519.41 336.853C521.977 338.65 524.169 336.783 525.431 334.497C526.209 333.087 526.767 331.537 527.676 330.201C528.71 328.682 530.241 327.627 531.959 327.017C540.967 323.816 549.101 331.445 557.821 332.19C558.292 332.23 558.289 331.496 557.821 331.456C549.896 330.779 543.241 324.896 535.081 325.624C532.2 325.881 529.299 326.946 527.454 329.27C526.53 330.434 525.96 331.831 525.304 333.151C524.652 334.463 523.844 336.24 522.338 336.741C520.199 337.452 518.546 335.071 517.317 333.713C515.935 332.187 514.528 330.671 512.949 329.344C510.15 326.99 506.679 325.216 502.931 325.397C499.191 325.578 496.838 327.957 494.346 330.455C492.928 331.877 491.391 333.208 489.414 333.753C487.608 334.251 485.703 334.073 483.938 333.496C474.45 330.395 472.556 319.354 467.235 312.201C466.953 311.825 466.315 312.191 466.598 312.571Z" fill="#FFD9A9"/>
</g>
<mask id="mask5_24_586" style="mask-type:luminance" maskUnits="userSpaceOnUse" x="471" y="198" width="73" height="187">
<path d="M531.001 198.926L498.113 202.102C498.113 202.102 493.439 205.53 488.765 223.292C483.07 244.935 474.538 301.253 471.733 382.431L493.003 383.07L510.424 259.173C510.945 257.367 513.618 257.805 513.536 259.682L519.25 384.461L540.209 383.646C540.209 383.646 546.514 247.902 540.987 226.713C535.777 206.741 531.001 198.926 531.001 198.926Z" fill="white"/>
</mask>
<g mask="url(#mask5_24_586)">
<path d="M461.893 341.766C465.084 349.196 469.685 356.616 477.229 360.229C480.536 361.813 484.253 362.614 487.914 362.145C491.985 361.623 495.49 359.428 499.027 357.513C502.907 355.412 506.909 354.007 511.384 354.453C513.707 354.684 515.996 355.363 518.056 356.463C519.87 357.431 521.456 358.792 523.332 359.649C524.817 360.327 526.459 360.632 528 359.938C529.512 359.257 530.466 357.84 531.482 356.597C533.949 353.575 537.466 351.587 541.313 350.953C546.007 350.179 550.088 351.838 554.119 354.076C557.715 356.072 561.394 358.277 565.651 358.134C566.122 358.118 566.125 357.384 565.651 357.4C558.024 357.657 552.543 350.571 545.005 350.046C541.628 349.811 538.176 350.656 535.265 352.375C533.783 353.25 532.434 354.357 531.311 355.661C530.091 357.078 529.027 358.958 527.103 359.487C524.861 360.103 522.633 358.509 520.863 357.343C519.22 356.261 517.569 355.288 515.7 354.647C512.138 353.426 508.186 353.288 504.559 354.312C500.684 355.405 497.356 357.765 493.769 359.507C489.847 361.411 485.718 362.072 481.451 360.993C471.902 358.579 466.193 349.926 462.529 341.397C462.341 340.962 461.708 341.336 461.893 341.766Z" fill="#FFD9A9"/>
</g>
<path d="M494.73 382.686L495.834 375.63L470.219 374.762L469.784 383.453L494.73 382.686Z" fill="#FFD9A9"/>
<path d="M518.411 384.313C518.838 383.882 517.543 376.064 517.543 376.064L541.856 375.196L541.745 384.221L518.411 384.313Z" fill="#FFD9A9"/>
<path d="M461.646 154.507C461.646 154.507 477.256 200.605 485.039 198.348L484.92 175.524C484.632 175.978 471.629 150.154 471.629 150.154C471.629 150.154 467.711 143.672 465.952 142.654C464.809 142.498 463.74 143.253 463.506 144.383L461.538 153.88" fill="#FFA47E"/>
<path d="M466.528 153.122L470.547 133.321" stroke="white" stroke-width="3.045" stroke-miterlimit="10" stroke-linecap="round"/>
<path d="M471.314 149.948C471.314 149.948 471.267 143.358 470.343 143.233C469.42 143.108 465.052 143.438 464.632 144.936C464.212 146.435 467.912 146.357 467.912 146.357C467.912 146.357 466.175 149.432 467.667 150.43C469.16 151.429 471.314 149.948 471.314 149.948Z" fill="#FFA47E"/>
<path d="M512.755 135.669C512.755 135.669 499.575 143.64 495.058 148.14C490.541 152.64 485.631 175.48 485.631 175.48L474.668 151.384L460.124 161.261C460.124 161.261 477.149 199.345 484.546 199.576C491.942 199.808 528.832 157.573 512.755 135.669Z" fill="white"/>
<path d="M494.326 111.442C494.107 118.182 496.314 125.229 502.092 129.229C507.537 132.999 515.168 132.1 520.143 127.866C528.288 120.935 525.813 105.03 516.783 101.348C515.54 100.841 512.081 100.491 511.559 99.513C504.486 98.311 496.814 101.536 495.169 106.911C494.968 107.569 494.549 108.589 494.102 109.737C494.263 110.243 494.347 110.809 494.326 111.442Z" fill="#1E2F4D"/>
<path d="M514.505 116.662C514.59 116.935 514.881 117.085 515.152 116.991C516.282 116.597 518.812 115.458 520.198 118.292C521.6 121.157 519.326 123.822 517.643 124.505C517.157 124.702 516.048 125.196 515.838 125.677C515.191 127.155 515.55 129.775 515.807 133.106C516.375 140.463 522.741 141.724 522.741 141.724C522.741 141.724 506.327 155.724 503.494 146.948C504.608 145.076 503.936 130.974 501.82 131.738C499.043 132.74 493.556 131.496 492.999 118.903C492.482 107.237 500.513 105.32 502.608 104.991C504.375 104.713 510.287 103.087 514.505 116.662Z" fill="#FFA47E"/>
<path d="M496.782 105.829C496.782 105.829 512.575 116.453 514.876 116.994C514.876 116.994 516.257 96.927 496.782 105.829Z" fill="#1E2F4D"/>
<path d="M519.206 119.592C519.206 119.592 516.138 116.451 515.608 122.255Z" fill="#E07B51"/>
<path d="M504.674 120.055C503.195 120.526 502.378 122.108 502.849 123.587C503.321 125.066 504.902 125.883 506.381 125.412C507.86 124.941 508.677 123.359 508.206 121.88C507.734 120.401 506.153 119.584 504.674 120.055Z" fill="#E07B51"/>
<path d="M493.94 124.854C495.081 124.215 495.655 122.843 495.242 121.549C494.924 120.551 494.101 119.855 493.145 119.652C493.145 119.652 493.021 122.983 493.94 124.854Z" fill="#E07B51"/>
<path d="M498.084 119.187L498.437 122.3L496.815 122.162C496.516 122.137 496.353 121.8 496.519 121.55L498.084 119.187Z" fill="#E07B51"/>
<path d="M502.624 115.835C503.144 116.205 502.351 114.561 501.638 114.366C500.924 114.17 500.21 114.511 500.04 115.127C500.04 115.127 501.374 114.945 502.624 115.835Z" fill="black"/>
<path d="M493.987 115.569C493.462 115.932 494.277 114.299 494.993 114.113C495.709 113.927 496.419 114.278 496.58 114.896C496.58 114.896 495.249 114.697 493.987 115.569Z" fill="black"/>
<path d="M500.684 119.624C500.655 120.176 500.414 120.611 500.147 120.597C499.88 120.583 499.686 120.124 499.715 119.573C499.744 119.021 499.984 118.585 500.252 118.6C500.519 118.614 500.713 119.073 500.684 119.624Z" fill="black"/>
<path d="M495.865 119.335C495.837 119.862 495.608 120.278 495.353 120.264C495.098 120.251 494.913 119.813 494.94 119.286C494.968 118.759 495.197 118.343 495.453 118.356C495.708 118.37 495.892 118.808 495.865 119.335Z" fill="black"/>
<path d="M502.449 131.713C502.449 131.713 506.362 130.381 508.855 129.34C511.349 128.299 505.085 138.439 502.449 131.713Z" fill="#E07B51"/>
<path d="M517.216 140.869C517.216 140.869 519.965 140.11 519.504 140.688C519.043 141.266 518.063 141.902 517.083 142.538L517.216 140.869Z" fill="#C20600"/>
<path d="M502.781 141.074C503.078 141.819 490.706 165.016 490.983 172.291C491.262 179.62 496.117 203.137 495.714 204.235C495.714 204.235 506.973 210 538.382 205.439C541.421 178.087 542.27 154.894 532.087 146.284C532.087 146.284 521.066 138.371 518.411 138.143C518.411 138.143 506.747 152.566 502.781 141.074Z" fill="white"/>
<path d="M530.421 143.325C525.834 141.052 519.968 138.276 518.411 138.143C518.411 138.143 516.387 140.641 513.741 142.73C513.839 143.323 513.834 143.965 513.689 144.654C509.381 165.055 506.098 193.578 508.642 214.338C515.127 214.612 534.856 216.946 546.089 215.315C544.659 194.825 545.51 171.972 542.081 157.811C540.55 151.493 536.245 146.212 530.421 143.325Z" fill="#D4603F"/>
<path d="M503.107 215.641C500.754 194.803 500.852 164.783 504.998 144.221C504.554 143.59 504.037 140.87 503.696 139.879C503.993 140.624 490.707 165.015 490.984 172.29C491.263 179.619 486.903 214.218 486.501 215.315C486.501 215.315 498.634 214.807 503.107 215.641Z" fill="#D4603F"/>
<path d="M492.548 178.184C492.44 177.433 492.327 176.666 491.978 175.992C491.629 175.318 490.995 174.743 490.239 174.675C489.242 174.585 488.374 175.377 487.861 176.237C487.621 176.639 487.426 177.069 487.282 177.514C487.243 177.633 487.22 177.789 487.323 177.86C487.384 177.902 487.465 177.893 487.538 177.884C489.08 177.704 490.617 178.482 492.157 178.285" fill="#35445C"/>
<path d="M487.046 179.002L492.585 179.068C492.945 179.072 493.24 178.784 493.244 178.424C493.248 178.064 492.96 177.769 492.6 177.764L487.061 177.698C486.701 177.694 486.406 177.982 486.401 178.342C486.398 178.702 486.686 178.997 487.046 179.002Z" fill="#ADBEDE"/>
<path d="M487.562 186.133L479.188 158.726C478.724 157.207 477.645 155.972 476.231 155.341L458.508 147.433C457.983 147.199 457.436 147.715 457.614 148.277L466.085 175.131C466.541 176.576 467.556 177.761 468.888 178.403L486.649 186.964C487.172 187.215 487.736 186.703 487.562 186.133Z" fill="#FF9E22"/>
<path d="M486.407 187.855L478.033 160.448C477.569 158.929 476.49 157.694 475.076 157.063L457.353 149.155C456.828 148.921 456.281 149.437 456.458 149.999L464.929 176.853C465.385 178.298 466.4 179.483 467.732 180.125L485.493 188.686C486.017 188.937 486.581 188.425 486.407 187.855Z" fill="#FFD9A9"/>
<path d="M486.337 182.753C486.337 182.753 514.045 215.162 520.181 209.868L510.566 189.167C510.493 189.699 487.916 171.639 487.916 171.639C487.916 171.639 472.524 165.397 472.135 167.392C471.865 168.779 481.356 169.877 480.456 169.866C480.359 169.865 472.087 168.37 471.278 169.16C470.082 170.327 479.763 172.209 479.644 172.864C479.644 172.864 469.972 172.928 469.669 173.894C469.367 174.86 479.32 175.576 479.123 175.865C478.926 176.154 470.832 175.179 472.01 175.916C473.312 176.729 486.337 182.753 486.337 182.753Z" fill="#FFA47E"/>
<path d="M482.396 170.252C482.396 170.252 478.725 162.81 480.363 163.703C482.001 164.596 490.4 173.866 490.4 173.866" fill="#FFA47E"/>
<path d="M535.606 149.431C533.347 146.029 528.215 146.378 526.31 149.991C524.211 153.974 522.543 161.166 521.343 164.377C519.111 170.349 509.607 188.128 509.607 188.128L490.773 173.318L485.288 186.098C485.288 186.098 512.809 214.629 519.63 211.758C525.709 209.2 547.534 167.391 535.606 149.431Z" fill="white"/>
<path d="M515.48 104.035C520.021 104.035 523.703 100.353 523.703 95.812C523.703 91.2706 520.021 87.589 515.48 87.589C510.939 87.589 507.257 91.2706 507.257 95.812C507.257 100.353 510.939 104.035 515.48 104.035Z" fill="#1E2F4D"/>
<path d="M531.368 66.9C531.368 64.145 529.135 61.912 526.38 61.912C523.625 61.912 521.392 64.145 521.392 66.9C521.392 69.655 523.625 71.888 526.38 71.888C529.135 71.888 531.368 69.655 531.368 66.9Z" fill="white"/>
<path d="M576.261 301.342C578.465 301.342 580.252 299.555 580.252 297.351C580.252 295.147 578.465 293.36 576.261 293.36C574.057 293.36 572.27 295.147 572.27 297.351C572.27 299.555 574.057 301.342 576.261 301.342Z" fill="white"/>
<path d="M109.373 51.935C111.577 51.935 113.363 50.1486 113.363 47.945C113.363 45.7414 111.577 43.955 109.373 43.955C107.169 43.955 105.383 45.7414 105.383 47.945C105.383 50.1486 107.169 51.935 109.373 51.935Z" fill="white"/>
<path d="M116.689 212.885C116.689 209.579 114.009 206.899 110.703 206.899C107.397 206.899 104.717 209.579 104.717 212.885C104.717 216.191 107.397 218.871 110.703 218.871C114.009 218.871 116.689 216.191 116.689 212.885Z" fill="white"/>
<path d="M540.347 56.923C544.755 56.923 548.328 53.3498 548.328 48.942C548.328 44.5342 544.755 40.961 540.347 40.961C535.939 40.961 532.366 44.5342 532.366 48.942C532.366 53.3498 535.939 56.923 540.347 56.923Z" stroke="#FF9E22" stroke-width="2" stroke-miterlimit="10"/>
<path d="M583.244 344.239C583.244 340.382 580.117 337.256 576.261 337.256C572.405 337.256 569.278 340.383 569.278 344.239C569.278 348.096 572.405 351.222 576.261 351.222C580.117 351.222 583.244 348.096 583.244 344.239Z" fill="#FF9E22"/>
<path d="M644.099 293.36C646.854 293.36 649.087 291.127 649.087 288.372C649.087 285.617 646.854 283.384 644.099 283.384C641.344 283.384 639.111 285.617 639.111 288.372C639.111 291.127 641.344 293.36 644.099 293.36Z" stroke="#FF9E22" stroke-width="2" stroke-miterlimit="10"/>
<path d="M49.184 96.163C49.184 93.408 46.951 91.175 44.196 91.175C41.441 91.175 39.208 93.408 39.208 96.163C39.208 98.918 41.441 101.151 44.196 101.151C46.95 101.151 49.184 98.918 49.184 96.163Z" stroke="#FF9E22" stroke-width="2" stroke-miterlimit="10"/>
<path d="M269.991 346.234C272.195 346.234 273.981 344.448 273.981 342.244C273.981 340.04 272.195 338.254 269.991 338.254C267.787 338.254 266.001 340.04 266.001 342.244C266.001 344.448 267.787 346.234 269.991 346.234Z" fill="#FF9E22"/>
<path d="M83.9651 198.607C89.8634 197.214 93.5159 191.303 92.1232 185.405C90.7304 179.507 84.8198 175.854 78.9214 177.247C73.0231 178.64 69.3706 184.55 70.7634 190.449C72.1561 196.347 78.0668 200 83.9651 198.607Z" stroke="#FF9E22" stroke-width="2" stroke-miterlimit="10"/>
<path d="M75.454 364.191C75.454 361.436 73.221 359.203 70.466 359.203C67.711 359.203 65.478 361.436 65.478 364.191C65.478 366.946 67.711 369.179 70.466 369.179C73.221 369.18 75.454 366.946 75.454 364.191Z" stroke="#FF9E22" stroke-width="2" stroke-miterlimit="10"/>
<path d="M483.981 370.865H291.44V252.545C291.44 247.367 295.638 243.169 300.816 243.169H474.605C479.783 243.169 483.981 247.367 483.981 252.545V370.865Z" fill="white"/>
<path d="M291.44 258.133H483.981" stroke="#FF9E22" stroke-miterlimit="10"/>
<path d="M305.407 254.807C307.611 254.807 309.397 253.021 309.397 250.817C309.397 248.613 307.611 246.827 305.407 246.827C303.203 246.827 301.417 248.613 301.417 250.817C301.417 253.021 303.203 254.807 305.407 254.807Z" fill="#FF9E22"/>
<path d="M320.039 254.807C322.243 254.807 324.029 253.021 324.029 250.817C324.029 248.613 322.243 246.827 320.039 246.827C317.835 246.827 316.049 248.613 316.049 250.817C316.049 253.021 317.835 254.807 320.039 254.807Z" fill="#E37059"/>
<path d="M334.671 254.807C336.875 254.807 338.661 253.021 338.661 250.817C338.661 248.613 336.875 246.827 334.671 246.827C332.467 246.827 330.681 248.613 330.681 250.817C330.681 253.021 332.467 254.807 334.671 254.807Z" fill="#FFD9A9"/>
<path d="M315.383 282.741V355.235H467.687" stroke="#FF9E22" stroke-miterlimit="10"/>
<path d="M315.383 330.627C315.383 330.627 325.138 298.186 340.656 298.703C360.609 299.368 359.278 333.287 371.25 331.957C393.053 329.534 387.212 278.75 410.49 284.071C420.796 286.427 417.233 332.668 427.117 339.938C433.337 344.513 446.962 326.949 453.055 323.311C459.148 319.673 465.692 321.316 465.692 321.316L466.357 354.57L315.383 355.235V330.627Z" fill="#FF9E22"/>
<path d="M404.472 278.751H426.452C429.02 278.751 431.102 276.669 431.102 274.101C431.102 271.533 429.02 269.451 426.452 269.451H404.472C401.904 269.451 399.822 271.533 399.822 274.101C399.822 276.669 401.904 278.751 404.472 278.751Z" fill="#FFD9A9"/>
<path d="M421.134 283.887H417.036V287.985H421.134V283.887Z" fill="#FF9E22"/>
<path d="M427.655 283.887H423.557V287.985H427.655V283.887Z" fill="#FF9E22"/>
<path d="M427.655 289.97H423.557V294.068H427.655V289.97Z" fill="#FF9E22"/>
<path d="M230.253 224.214V371.197C230.253 387.726 243.653 401.126 260.182 401.126H349.303C365.832 401.126 379.232 387.726 379.232 371.197" stroke="white" stroke-miterlimit="10"/>
<path d="M230.253 300.033C235.028 300.033 238.899 296.162 238.899 291.387C238.899 286.612 235.028 282.741 230.253 282.741C225.478 282.741 221.607 286.612 221.607 291.387C221.607 296.162 225.478 300.033 230.253 300.033Z" fill="white"/>
<path d="M230.253 306.17C238.417 306.17 245.036 299.551 245.036 291.387C245.036 283.223 238.417 276.604 230.253 276.604C222.089 276.604 215.47 283.223 215.47 291.387C215.47 299.551 222.089 306.17 230.253 306.17Z" stroke="white" stroke-miterlimit="10"/>
<path d="M206.167 213.402H167.163V217.976H206.167V213.402Z" fill="#000307"/>
<path d="M167.163 213.402H192.649L190.644 217.977H167.163V213.402Z" fill="white"/>
<path d="M254.923 217.977H193.449L208.288 175.58H269.762L254.923 217.977Z" fill="white"/>
<path d="M235.222 197.97C235.222 195.838 233.494 194.11 231.363 194.11C229.231 194.11 227.503 195.838 227.503 197.97C227.503 200.102 229.231 201.83 231.363 201.83C233.494 201.83 235.222 200.102 235.222 197.97Z" fill="#000307"/>
<path d="M293.034 217.961H156.417V224.097H293.034V217.961Z" fill="#FFD9A9"/>
</svg>
