<svg version="1.2" xmlns="http://www.w3.org/2000/svg" viewBox="0 0 1400 600" width="1400" height="600"><style>.a{fill:#ff9e22;stroke:#000;stroke-linecap:round;stroke-linejoin:round;stroke-width:3}.b{fill:none;stroke:#000;stroke-linecap:round;stroke-linejoin:round;stroke-width:3}.c{fill:#fff;stroke:#000;stroke-linecap:round;stroke-linejoin:round;stroke-width:3}.d{fill:#fff}.e{fill:#fff;stroke:#000;stroke-width:3}.f{fill:#ffcf93;stroke:#010200;stroke-width:3}.g{fill:#ff9e22}.h{fill:#ffcf93;stroke:#000;stroke-linecap:round;stroke-linejoin:round;stroke-width:3}.i{fill:none;stroke:#000;stroke-width:3}.j{fill:#fff;stroke:#020500;stroke-linecap:round;stroke-linejoin:round;stroke-width:3}.k{fill:#ff9e22;stroke:#010200;stroke-width:3}.l{fill:#ffcf93}.m{fill:#fcfcfc}.n{opacity:.5;fill:#707070}.o{fill:#010200}.p{fill:none;stroke:#fff;stroke-linecap:round;stroke-miterlimit:10;stroke-width:3}.q{fill:#f5f5f5}.r{fill:#231f20}.s{fill:#ffa42f;stroke:#000;stroke-linecap:round;stroke-linejoin:round;stroke-width:3}.t{fill:#fff;stroke:#000;stroke-miterlimit:10;stroke-width:3}.u{fill:none;stroke:#000;stroke-miterlimit:10;stroke-width:3}</style><path class="a" d="m198.5 520.3l-55.7 55.2c-2.6 2.7-6.9 2.7-9.5 0l-81.7-81.6c-2.7-2.7-2.7-7 0-9.6l58.1-58.1c2.6-2.6 6.9-2.6 9.5 0l79.9 78.5c0 0 5.2 4.7 3.3 10.4-0.4 1.3-3.9 5.2-3.9 5.2z"/><path fill-rule="evenodd" class="b" d="m145.8 473.2l-48.6 48.6"/><path fill-rule="evenodd" class="b" d="m145.8 495.9l-37.3 37.3"/><path fill-rule="evenodd" class="b" d="m134.5 461.8l-48.7 48.7"/><path fill-rule="evenodd" class="b" d="m123.1 450.5l-48.6 48.6"/><path  d="m148 541.5q0 0-0.1 0c-1.4 2.6-2.3 4.9-1.9 5.1 0.5 0.2 2-1.8 3.5-4.4q0 0 0 0z"/><path  d="m171.8 490c0.7 0.2 1.5-0.1 1.9-0.7 0.3-0.6 0.2-1.2-0.3-1.7l12.5-18.8c0.4-0.6 1.3-0.8 2-0.5l2.1 1 1.1-2-4.2-2c-0.4-0.2 4.7-0.7 4.3-0.6-0.4 0.1-6.2 0.9-6.4 1.2l-13.5 23.4q-0.1 0.2 0 0.3 0 0.2 0.2 0.3z"/><path  d="m171.4 489.9q0.1 0 0.1 0l0.3 0.1c0.7 0.2 1.5-0.1 1.9-0.7 0.3-0.6 0.2-1.2-0.3-1.7l12.5-18.8c0.4-0.6 1.3-0.8 2-0.5l2.1 1 0.6-1.1-3.3-1.4c-0.6-0.3-1.5-0.1-1.8 0.5z"/><path  d="m192.1 462.4c0.2-0.4 0.5-0.6 0.9-0.7 0.3-0.1 0.8-0.1 1.1 0.1l1.5 0.7c0.8 0.3 1.1 1.1 0.7 1.8l-5 8.5-4.2-1.9z"/><path  d="m148.4 544.3c0.3 0.1 0.6 0.1 0.9 0l2.1-1.2c0.5-0.3 0.9-0.7 1.2-1.2l42.6-73.6q0.1-0.3 0-0.6-0.1-0.3-0.4-0.5l-4.6-2c-0.4-0.2-1-0.1-1.2 0.3l-42.5 73.6q-0.5 0.7-0.4 1.6l0.2 2.2c0 0.3 0.1 0.5 0.4 0.6z"/><path  d="m160.7 512.9c0.4-0.8 1.5-1.1 2.4-0.7l4.4 2c0.9 0.4 1.3 1.4 0.8 2.2l-13.8 23.9c-0.5 0.8-1.6 1.1-2.5 0.7l-4.4-2c-0.9-0.4-1.2-1.4-0.8-2.2z"/><path  d="m158.7 521.6c0.4-0.6 1.3-0.9 2.1-0.5 0.7 0.3 1 1.1 0.6 1.8-0.4 0.6-1.3 0.9-2 0.5-0.7-0.3-1-1.1-0.7-1.8z"/><path class="c" d="m31.9 299.3h62.2c4 0 7.1-3.2 7.1-7.1v-53.1h-76.4v53.1c0 3.9 3.2 7.1 7.1 7.1z"/><path class="a" d="m101.2 229.9c0-3.9-3.1-7.1-7.1-7.1h-62.2c-3.9 0-7.1 3.2-7.1 7.1v9.2h76.4z"/><path class="d" d="m46.6 257.3c6.9-6.4 15.4 1.8 10.4 8.3-1.8 2.2-4 4.8-8.8 10.1l-0.2 0.1h10.8"/><path fill-rule="evenodd" class="b" d="m46.6 257.3c6.9-6.4 15.4 1.8 10.4 8.3-1.8 2.2-4 4.8-8.8 10.1l-0.2 0.1h10.8"/><path class="d" d="m65 255.3h14.2v3.7c-4.8 5.6-7 11.8-7.6 16.8"/><path fill-rule="evenodd" class="b" d="m65 255.3h14.2v3.7c-4.8 5.6-7 11.8-7.6 16.8"/><path class="a" d="m94.1 299.3c4 0 7.1-3.2 7.1-7.1v-13.8l-20.8 20.9z"/><path class="c" d="m89 278.2c-5 0-9 4-9 9v12.1h0.3l20.9-20.9v-0.2z"/><path class="e" d="m191.5 334.7c6.1-3.1 23.4-13.6 23.4-13.6 2.1-0.7 6.6-1.1 8.2 2.4 1.6 3.7-4.7 9-4.7 9 2.7-1.1 12-5.6 13.6 0.2 1.2 4.2-2.8 6.2-2.8 6.2 0 0 3.1-0.7 4.3 2.5 1.6 3.9-3.8 6.5-3.8 6.5l-3.2 2c0 0 2.6-0.5 3.5 2.9 0.9 3-3.7 5.4-3.7 5.4l-18.8 11c-2.7 5.5-3.8 7.5-6.1 11.9-5.6 11-12.2 9.4-12.2 9.4l-9.2 17.9-25-12.8 25.2-49.1c0 0 3.4-7.9 11.3-11.8z"/><path class="f" d="m257.4 283.1l-38.7-19.9-39.3 76.6 38.7 19.9z"/><path class="g" d="m215.5 348l31.5-61.2-24.5-12.5-31.5 61.1z"/><path class="g" d="m227.7 294.2c9.3 4.8 12.9 16.2 8.1 25.4-4.7 9.3-16.1 13-25.4 8.2-9.3-4.8-12.9-16.1-8.2-25.4 4.8-9.3 16.2-12.9 25.5-8.2z"/><path fill-rule="evenodd" class="b" d="m221.6 319.8c2.4 1.2 5.4 0.5 7-2.5l1.1-2.1c3.1-6.2-6-12.1-9.6-5l-1.3 2.1c-3.2 6.3-12.8 1.4-9.5-4.9l1-2.2c1.7-3.2 4.7-3.9 7.1-2.6"/><path class="g" d="m233.8 284.8c2.2 1.1 3.1 3.8 1.9 6-1.1 2.2-3.7 3-5.9 1.9-2.2-1.1-3.1-3.8-1.9-6 1.1-2.1 3.8-3 5.9-1.9z"/><path class="g" d="m212.1 336.5c-1.1 2.1-3.8 3-6 1.9-2.2-1.2-3-3.8-1.9-6 2.7-5.2 10.6-1.2 7.9 4.1z"/><path fill-rule="evenodd" class="b" d="m208.4 305.5l22.1 11.3"/><path class="h" d="m264.9 302.4l-81.9 26.4 13.3 41.4 81.9-26.3z"/><path class="d" d="m202.7 360.2l65.5-21.1-8.4-26.2-65.5 21z"/><path class="d" d="m250.3 330.4c3.3 10.5-2.4 21.6-12.9 25-10.4 3.4-21.6-2.4-25-12.8-3.3-10.5 2.4-21.7 12.9-25 10.4-3.4 21.6 2.4 25 12.8z"/><path class="d" d="m226.8 344.9c0.8 2.7 3.6 4.4 7 3.3l2.4-0.7c6.9-2.3 4.5-13.5-3.5-10.8l-2.5 0.5c-7 2.4-10.6-8.4-3.4-10.7l2.4-0.8c3.6-1.2 6.3 0.5 7.2 3.2"/><path fill-rule="evenodd" class="b" d="m226.8 344.9c0.8 2.7 3.6 4.4 7 3.3l2.4-0.7c6.9-2.3 4.5-13.5-3.5-10.8l-2.5 0.5c-7 2.4-10.6-8.4-3.4-10.7l2.4-0.8c3.6-1.2 6.3 0.5 7.2 3.2"/><path class="g" d="m260.3 328.4c0.8 2.3-0.5 4.8-2.8 5.6-2.4 0.7-4.9-0.5-5.6-2.9-0.7-2.3 0.5-4.8 2.9-5.5 2.3-0.8 4.8 0.5 5.5 2.8z"/><path class="g" d="m208.5 349.5c-2.4 0.8-4.9-0.5-5.6-2.8-0.8-2.4 0.5-4.8 2.8-5.6 5.6-1.8 8.3 6.6 2.8 8.4z"/><path fill-rule="evenodd" class="b" d="m227 322.6l9.2 28.7"/><path class="d" d="m184.2 353.8l26.9-7.7c0 0 5.4-2.2 7.1 2.9 1.5 4.3-2.3 7.4-5.3 8.5l-18.1 8-4.8 9.4c0 0-2.5 6.3-6.3 7.7-2.4 0.9-4.6 1.1-6.2 0.8"/><path fill-rule="evenodd" class="i" d="m184.2 353.8l26.9-7.7c0 0 5.4-2.2 7.1 2.9 1.5 4.3-2.3 7.4-5.3 8.5l-18.1 8-4.8 9.4c0 0-2.5 6.3-6.3 7.7-2.4 0.9-4.6 1.1-6.2 0.8"/><path class="j" d="m89.7 407.8c0 20.9-16.9 30-37.8 30-21 0-37.9-9.1-37.9-30 0-20.9 16.9-45.7 37.9-45.7 20.9 0 37.8 24.8 37.8 45.7z"/><path class="k" d="m67 362.4c0 1.7-1.3 3-3 3h-24.3c-1.7 0-3-1.3-3-3 0-1.6 1.3-3 3-3h24.3c1.7 0 3 1.4 3 3z"/><path class="j" d="m75.4 341.9c-0.6 0-1.1 0.1-1.4 0.3-2.4 1.3-5.8-0.7-10.2-0.7-4.3 0-6.4 2-8.9 0.7-0.7-0.4-2.2-1-3.1-1-0.8 0-2.3 0.6-3 1-2.5 1.3-5.9-0.7-10.2-0.7-4.3 0-6.5 2-8.9 0.7-0.3-0.2-0.8-0.3-1.4-0.3-1.9-0.1-2.5 2.2-1.3 3.6l12.9 13.9h23.9l12.9-13.9c1.2-1.4 0.6-3.7-1.3-3.6z"/><path fill-rule="evenodd" class="g" d="m53.9 419v3.5h-4.6v-3.5c-6.6 0-10.4-4.6-10.4-9.7h4.6c0 2.7 2 5.1 5.8 5.1v-11.5c-13.8 0.1-13.8-20.8 0-20.9v-3.5h4.6v3.5c7 0 10.9 4.6 10.9 9.8h-4.7c0-2.9-1.9-5.1-6.2-5.1v11.5c15.7-0.2 13.4 20.8 0 20.8zm-4.6-20.8v-11.5c-7.8 0.1-7.5 11.7 0 11.5zm4.6 4.6v11.6c7.5 0 9.4-11.7 0-11.6z"/><path fill-rule="evenodd" class="b" d="m140.3 350.3h-35.3"/><path fill-rule="evenodd" class="b" d="m140.3 400.9h-35.3"/><path class="a" d="m127.6 378.5c-1.2-0.5-2.2-1.7-2.2-3 0-1.3 1-2.5 2.2-3 5-2 8.5-6.8 8.5-12.5v-9.7h-27.1v9.7c0 5.6 3.4 10.5 8.3 12.5 1.3 0.5 2.2 1.6 2.2 3 0 1.3-0.9 2.5-2.2 3-4.9 2-8.3 6.9-8.3 12.5v9.7h27.1v-9.7c0-5.7-3.5-10.5-8.5-12.5z"/><path class="g" d="m111.4 398.7l11.1-9.1 11.1 9.1"/><path class="c" d="m217.1 520.7c0-1.5 1.2-2.6 2.6-2.6h44.8c1.5 0 2.7 1.1 2.7 2.6v63.5c0 1.4-1.2 2.6-2.7 2.6h-44.8c-1.4 0-2.6-1.2-2.6-2.6z"/><path class="l" d="m261.8 536.8c0 0.3-0.3 0.6-0.7 0.6h-38c-0.3 0-0.6-0.3-0.6-0.6v-13.1c0-0.3 0.3-0.6 0.6-0.6h38c0.4 0 0.7 0.3 0.7 0.6z"/><path class="g" d="m247.1 548.4c0 0.3-0.2 0.5-0.5 0.5h-8.5c-0.3 0-0.5-0.2-0.5-0.5v-4.4c0-0.3 0.2-0.5 0.5-0.5h8.5c0.3 0 0.5 0.2 0.5 0.5z"/><path class="g" d="m262.2 548.4c0 0.3-0.2 0.5-0.5 0.5h-8.5c-0.3 0-0.5-0.2-0.5-0.5v-4.4c0-0.3 0.2-0.5 0.5-0.5h8.5c0.3 0 0.5 0.2 0.5 0.5z"/><path class="g" d="m232 548.4c0 0.3-0.2 0.5-0.5 0.5h-8.5c-0.3 0-0.5-0.2-0.5-0.5v-4.4c0-0.3 0.2-0.5 0.5-0.5h8.5c0.3 0 0.5 0.2 0.5 0.5z"/><path class="g" d="m247.1 559.1c0 0.3-0.2 0.5-0.5 0.5h-8.5c-0.3 0-0.5-0.2-0.5-0.5v-4.4c0-0.3 0.2-0.5 0.5-0.5h8.5c0.3 0 0.5 0.2 0.5 0.5z"/><path class="g" d="m262.2 559.1c0 0.3-0.2 0.5-0.5 0.5h-8.5c-0.3 0-0.5-0.2-0.5-0.5v-4.4c0-0.3 0.2-0.5 0.5-0.5h8.5c0.3 0 0.5 0.2 0.5 0.5z"/><path class="g" d="m232 559.1c0 0.3-0.2 0.5-0.5 0.5h-8.5c-0.3 0-0.5-0.2-0.5-0.5v-4.4c0-0.3 0.2-0.5 0.5-0.5h8.5c0.3 0 0.5 0.2 0.5 0.5z"/><path class="g" d="m247.1 570.3c0 0.2-0.2 0.5-0.5 0.5h-8.5c-0.3 0-0.5-0.3-0.5-0.5v-4.5c0-0.3 0.2-0.5 0.5-0.5h8.5c0.3 0 0.5 0.2 0.5 0.5z"/><path class="g" d="m262.2 570.3c0 0.2-0.2 0.5-0.5 0.5h-8.5c-0.3 0-0.5-0.3-0.5-0.5v-4.5c0-0.3 0.2-0.5 0.5-0.5h8.5c0.3 0 0.5 0.2 0.5 0.5z"/><path class="g" d="m232 570.3c0 0.2-0.2 0.5-0.5 0.5h-8.5c-0.3 0-0.5-0.3-0.5-0.5v-4.5c0-0.3 0.2-0.5 0.5-0.5h8.5c0.3 0 0.5 0.2 0.5 0.5z"/><path class="g" d="m232 581.1c0 0.3-0.2 0.5-0.5 0.5h-8.5c-0.3 0-0.5-0.2-0.5-0.5v-4.4c0-0.3 0.2-0.5 0.5-0.5h8.5c0.3 0 0.5 0.2 0.5 0.5z"/><path class="g" d="m262.3 581.1c0 0.3-0.3 0.5-0.5 0.5h-23.6c-0.3 0-0.5-0.2-0.5-0.5v-4.4c0-0.3 0.2-0.5 0.5-0.5h23.6c0.2 0 0.5 0.2 0.5 0.5z"/><path fill-rule="evenodd" class="l" d="m81.4 571.5q-1.3 0.2-2.5 0.1c-0.6-0.1-1.1 0.2-1.3 0.7-0.5 0.9-1.6 1.4-2.5 0.9h-0.2c-0.9-0.4-1.3-1.5-0.9-2.4 0.2-0.5 0.1-1.1-0.4-1.4q-1-0.8-1.9-1.9c-0.3-0.4-0.8-0.5-1.3-0.3-1 0.3-2-0.1-2.4-1.1l-0.1-0.2c-0.3-0.9 0.1-2 1.1-2.3 0.4-0.2 0.7-0.7 0.7-1.2q-0.2-1.3 0-2.6c0-0.6-0.2-1.1-0.7-1.4-0.9-0.4-1.4-1.4-1-2.4l0.1-0.2c0.4-0.9 1.5-1.3 2.4-0.9 0.5 0.2 1 0.1 1.4-0.3q0.8-1 1.8-1.8c0.4-0.4 0.7-0.9 0.5-1.5-0.4-0.9 0.1-2 1.1-2.4 1-0.4 2.1 0.1 2.5 1 0.2 0.5 0.6 0.8 1.2 0.8q1.2-0.1 2.5 0c0.6 0.1 1.1-0.2 1.3-0.7 0.5-1 1.6-1.4 2.6-1 0.9 0.4 1.4 1.6 1 2.5-0.3 0.6-0.1 1.2 0.4 1.6q0.9 0.7 1.6 1.6c0.3 0.5 1 0.6 1.5 0.4 1-0.4 2.1 0.1 2.5 1.1 0.4 1-0.1 2.1-1.1 2.5-0.6 0.2-0.8 0.8-0.8 1.4q0.1 1.1 0 2.2c-0.1 0.6 0.3 1.2 0.8 1.4 1 0.5 1.5 1.6 1 2.6-0.4 1-1.6 1.4-2.5 1-0.6-0.3-1.2 0-1.5 0.4q-0.8 0.9-1.7 1.6c-0.4 0.4-0.6 1-0.4 1.5 0.4 1-0.1 2.2-1.1 2.6-1 0.3-2.1-0.2-2.5-1.1-0.2-0.5-0.6-0.8-1.2-0.8zm0.1-6.8c2-0.8 3-3 2.2-5-0.8-2-3.1-3-5.1-2.2-2 0.8-3 3.1-2.1 5.1 0.8 2 3 3 5 2.1z"/><path fill-rule="evenodd" class="g" d="m42.9 561.6c0.1-0.6-0.2-1.3-0.8-1.5q-1.2-0.4-2.2-1c-0.6-0.3-1.3-0.2-1.7 0.3l-0.7 0.9c-0.7 0.8-1.9 0.9-2.7 0.2-0.9-0.6-1-1.9-0.3-2.7l0.7-0.8c0.4-0.5 0.4-1.2 0-1.7q-0.8-0.9-1.4-1.9c-0.4-0.6-1-0.9-1.7-0.6l-0.9 0.3c-1 0.4-2.1-0.1-2.5-1.1-0.3-1 0.2-2.1 1.2-2.5l0.8-0.3c0.6-0.2 1-0.9 0.9-1.5q-0.2-1.2-0.3-2.4c0-0.7-0.5-1.3-1.1-1.4l-0.8-0.1c-1.1-0.2-1.8-1.2-1.6-2.3 0.2-1 1.2-1.7 2.2-1.5l0.8 0.1c0.6 0.1 1.2-0.3 1.4-0.9q0.4-1.2 1-2.3c0.3-0.6 0.3-1.3-0.3-1.8l-0.5-0.4c-0.8-0.7-0.9-1.9-0.2-2.7 0.7-0.8 1.9-0.9 2.7-0.2l0.5 0.3c0.5 0.5 1.2 0.4 1.7 0q1-0.9 2.2-1.6c0.5-0.3 0.7-1 0.5-1.6l-0.2-0.4c-0.3-1 0.2-2.1 1.2-2.5 1-0.4 2.1 0.1 2.5 1.1l0.1 0.5c0.2 0.6 0.9 0.9 1.6 0.8q1.3-0.2 2.6-0.3c0.7 0 1.2-0.4 1.3-1.1l0.1-0.4c0.2-1 1.2-1.7 2.2-1.6 1.1 0.2 1.8 1.2 1.6 2.3l-0.1 0.4c-0.1 0.6 0.3 1.3 0.9 1.5q1.3 0.5 2.5 1.2c0.5 0.3 1.2 0.1 1.6-0.3l0.3-0.4c0.7-0.8 1.9-0.9 2.7-0.2 0.8 0.6 1 1.9 0.3 2.7l-0.3 0.4c-0.5 0.5-0.4 1.2 0 1.7q0.8 1.1 1.5 2.2c0.3 0.6 1 0.8 1.5 0.6l0.6-0.2c1-0.4 2.1 0.1 2.5 1.1 0.3 1-0.2 2.1-1.2 2.5l-0.6 0.2c-0.6 0.3-1 0.9-0.9 1.6q0.2 1.2 0.2 2.6c0 0.6 0.5 1.1 1.1 1.2l0.7 0.2c1.1 0.1 1.8 1.1 1.6 2.2-0.2 1-1.2 1.7-2.2 1.5l-0.9-0.1c-0.6-0.1-1.2 0.3-1.5 0.9q-0.4 1.1-1 2.2c-0.4 0.5-0.3 1.3 0.2 1.7l0.7 0.6c0.9 0.7 1 1.9 0.3 2.7-0.7 0.8-1.9 0.9-2.7 0.2l-0.8-0.6c-0.5-0.4-1.2-0.4-1.7 0q-1 0.7-2 1.3c-0.6 0.3-0.8 1-0.6 1.6l0.4 1.1c0.3 0.9-0.2 2.1-1.2 2.4-1 0.4-2.1-0.1-2.5-1.1l-0.3-1.1c-0.3-0.6-0.9-0.9-1.5-0.8q-1.1 0.1-2.3 0.2c-0.7 0-1.3 0.4-1.4 1.1l-0.2 1.1c-0.2 1-1.2 1.7-2.2 1.6-1.1-0.2-1.8-1.2-1.6-2.3zm4-10.8c3.2 0.5 6.4-1.7 6.9-5 0.6-3.2-1.6-6.4-4.9-6.9-3.2-0.6-6.4 1.6-6.9 4.9-0.6 3.2 1.6 6.4 4.9 7z"/><path fill-rule="evenodd" class="l" d="m129.7 276.1q0-3.4 1.4-5.3 1.4-1.9 3.2-2.5 1.7-0.6 3.2-0.6 3 0 5.4 2 2.4 1.9 2.4 6.4 0 1.9-0.7 3.9-0.7 1.9-2.5 3.3-1.7 1.3-4.6 1.3-1.3 0-2.7-0.4-1.3-0.4-2.4-1.4-1.2-1-1.9-2.6-0.8-1.7-0.8-4.1zm4.5 0.1q0 2.6 1 3.9 1.1 1.2 2.3 1.2 1.2 0 2.3-1.2 1-1.3 1-3.9 0-2-0.6-3.1-0.5-1.2-1.3-1.6-0.7-0.5-1.4-0.5-0.7 0-1.4 0.5-0.8 0.4-1.4 1.6-0.5 1.1-0.5 3.1zm1.9 21.7l18.9-29.7h6.8l-19 29.7zm17.1-7.9q0-4.5 2.4-6.5 2.4-2 5.4-2 2.9 0 5.4 2 2.4 2 2.4 6.5 0 3.1-1.2 5-1.3 1.9-3.1 2.7-1.7 0.8-3.5 0.8-1.8 0-3.6-0.8-1.7-0.8-3-2.7-1.2-1.9-1.2-5zm4.5 0q0 2.5 1 3.8 1 1.3 2.3 1.3 0.7 0 1.4-0.4 0.8-0.5 1.4-1.6 0.5-1.2 0.5-3.1 0-2.7-1-3.9-1.1-1.3-2.3-1.3-1.4 0-2.3 1.4-1 1.3-1 3.8z"/><path class="c" d="m224.2 459.9l3.4-6.5-0.5-1.6-6.6-3.4 10-3.1 6.6 3.4 0.5 1.5-3.4 6.6z"/><path class="g" d="m288.9 473.4c-20.3 6.4-41.8-4.7-48.3-25-6.4-20.2 4.7-41.7 24.9-48.2 20.3-6.4 41.8 4.7 48.3 24.9 6.4 20.3-4.7 41.8-24.9 48.3z"/><path class="m" d="m287.2 468.1c-17.4 5.6-35.8-4-41.4-21.3-5.5-17.4 4.1-35.8 21.4-41.4 17.3-5.5 35.8 4.1 41.4 21.4 5.5 17.3-4.1 35.8-21.4 41.3z"/><path class="g" d="m285.5 462.9c-14.4 4.6-29.8-3.4-34.4-17.8-4.6-14.4 3.4-29.8 17.8-34.4 14.4-4.6 29.8 3.4 34.4 17.8 4.6 14.4-3.4 29.8-17.8 34.4z"/><path class="m" d="m283.6 457.5c-11.5 3.6-23.8-2.7-27.4-14.2-3.7-11.5 2.7-23.7 14.2-27.4 11.5-3.7 23.7 2.7 27.4 14.2 3.6 11.5-2.7 23.7-14.2 27.4z"/><path class="g" d="m282 452.6c-8.8 2.8-18.1-2.1-20.9-10.9-2.8-8.7 2-18.1 10.8-20.9 8.8-2.8 18.2 2 21 10.8 2.8 8.8-2.1 18.2-10.9 21z"/><path class="m" d="m280.5 447.6c-6.1 1.9-12.5-1.4-14.4-7.4-1.9-6.1 1.4-12.5 7.4-14.4 6-1.9 12.5 1.4 14.4 7.4 1.9 6-1.4 12.5-7.4 14.4z"/><path class="g" d="m279 443c-3.5 1.1-7.2-0.8-8.4-4.3-1.1-3.5 0.9-7.2 4.4-8.4 3.5-1.1 7.2 0.9 8.3 4.4 1.1 3.5-0.8 7.2-4.3 8.3z"/><path class="n" d="m273.5 436.5l-16.9 32.9 1.8 1 16.8-32.3z"/><path class="o" d="m275.5 437.2c0.2 0.6-0.1 1.3-0.7 1.4l-47.2 15.1-0.7-2.3 47.1-15c0.7-0.2 1.3 0.2 1.5 0.8z"/><path class="d" d="m244.6 401.1l-9.7 7.9 1.4 10.6 12.4-8.5z"/><path class="l" d="m360.2 538.8c0-9.5-7.5-17.3-16.8-17.3-9.3 0-16.9 7.8-16.9 17.3 0 5.9 2.9 11.1 7.3 14.2 0.7 0.5 1.1 1.2 1.1 2.1v5.7c0 2.5 2 2.3 4.5 2.3h7.9c2.5 0 4.5 0.2 4.5-2.3v-5.7c0-0.9 0.4-1.6 1.1-2.1 4.4-3.1 7.3-8.3 7.3-14.2z"/><path fill-rule="evenodd" class="p" d="m346.2 546v11.7"/><path fill-rule="evenodd" class="p" d="m340.2 545v12.7"/><path class="l" d="m348 567c0 2.7-2.2 5-4.9 5-2.7 0-4.9-2.3-4.9-5 0-2.8 2.2-2.7 4.9-2.7 2.7 0 4.9-0.1 4.9 2.7z"/><path class="c" d="m334.9 557v5.3c0 1.8 1.5 3.3 3.2 3.3h10.5c1.7 0 3.2-1.5 3.2-3.3v-5.3z"/><path fill-rule="evenodd" class="p" d="m340 545c-0.6 0.4-1.2 0.6-2 0.6-1.8 0-3.2-1.5-3.2-3.3 0-1.8 3.1-5.6 8.3 0 2.2 2.2 3.3 3.3 5.1 3.3 1.8 0 3.2-1.5 3.2-3.3 0-1.8-1.4-3.3-3.2-3.3-0.7 0-1.4 0.2-2 0.6"/><path fill-rule="evenodd" class="b" d="m310.2 538.4h7.9"/><path fill-rule="evenodd" class="b" d="m368.5 538.4h7.9"/><path fill-rule="evenodd" class="b" d="m319.9 561.8l5.6-5.6"/><path fill-rule="evenodd" class="b" d="m361.1 520.6l5.6-5.6"/><path fill-rule="evenodd" class="b" d="m343.3 513.2v-7.9"/><path fill-rule="evenodd" class="b" d="m366.7 561.8l-5.6-5.6"/><path fill-rule="evenodd" class="b" d="m325.5 520.6l-5.6-5.6"/><path class="j" d="m1173.1 389.7c0 0 24.6-6.4 24 10.1-0.7 19.1-15.7 38.8-30 43.6-14.3 4.8-21.1 8.2-21.1 8.2l-11.6-19.1z"/><path class="g" d="m1336.9 360.1h29.2c-4.9-11.6-16.1-20-29.2-20.9z"/><path class="g" d="m1333 339.1c-13.6 0.6-25.2 9-30.2 21h30.2z"/><path class="g" d="m1367.4 363.9h-30.5v21.5h29.7c1.4-3.8 2.2-7.8 2.2-12 0-3.3-0.5-6.5-1.4-9.5z"/><path class="g" d="m1333 363.9h-31.6c-0.9 3-1.3 6.2-1.3 9.5 0 4.2 0.7 8.2 2.1 12h30.8z"/><path class="g" d="m1333 389.2h-29.1c5.5 10.6 16.5 18 29.1 18.5z"/><path class="g" d="m1336.9 389.2v18.5c12.2-0.9 22.6-8.2 28-18.5z"/><path fill-rule="evenodd" class="q" d="m1334.4 407.8c-12.1 0-21.8-15.4-21.8-34.4 0-19 9.7-34.3 21.8-34.3 12.1 0 21.8 15.3 21.8 34.3 0 19-9.7 34.4-21.8 34.4zm18-34.4c0-16.9-8.1-30.5-18-30.5-9.9 0-18 13.6-18 30.5 0 16.9 8.1 30.5 18 30.5 9.9 0 18-13.6 18-30.5z"/><path class="l" d="m1140 539.4c0-4.3-3.3-7.8-7.5-8.2-0.5-8.2-7.3-14.6-15.5-14.6-7 0-12.9 4.6-14.9 11-5.1 0.5-9.1 4.8-9.1 10 0 5.6 4.5 10.1 10.1 10.1q0 0 0.1 0h28.5c4.6 0 8.3-3.7 8.3-8.3z"/><path class="j" d="m1218.5 274.4l-94.9 94.9 76 76.1 94.9-95z"/><path fill-rule="evenodd" class="b" d="m1208.1 418l-56.8-56.8 59.8-59.8"/><path class="g" d="m1181.9 342.4l-18.5 18.5 8.8 8.8 18.5-18.4z"/><path class="g" d="m1190.6 361.1l-13.5 13.5 8.8 8.8 13.6-13.5z"/><path class="g" d="m1211.8 367.4l-21 20.9 8.9 8.9 20.9-21z"/><path class="g" d="m1232.9 373.7l-28.3 28.3 8.8 8.9 28.3-28.3z"/><path class="f" d="m1236.8 362.1l22-9.1-22-9.2c0 14.4 0 4 0 18.3z"/><path fill-rule="evenodd" class="b" d="m1187.6 334.6h23.1v18h25.3"/><path class="j" d="m1136.4 431.3c0 0 4.8-18.6 8.2-25.4 3.4-6.8 7.8-7.1 17.4-7.3 6.3-0.2 21.5 0.3 21.5 0.3 0 0 2 10.5-6.2 11.9-8.2 1.3-19 1.9-19 1.9 0 0 5.4 5.5 2 13-3.4 7.5-15.5 12.9-15.5 12.9z"/><path class="h" d="m1339.8 281.6c0-10.6 8.6-19.2 19.2-19.2 10.7 0 19.3 8.6 19.3 19.2v9.4c0 10.7-8.6 19.3-19.3 19.3-10.6 0-19.2-8.6-19.2-19.3z"/><path class="a" d="m1359 301c-10.7 0-19.3-8.7-19.3-19.3 0-10.7 8.6-19.3 19.3-19.3 10.7 0 19.3 8.6 19.3 19.3 0 10.6-8.6 19.3-19.3 19.3z"/><path class="h" d="m1354.3 227v51.8h-102.3v-51.8z"/><path class="g" d="m1345.7 237v32.7h-83.8v-32.7z"/><path class="c" d="m1303.9 272.8c-10.7 0-19.4-8.7-19.4-19.5 0-10.7 8.7-19.4 19.4-19.4 10.8 0 19.4 8.7 19.4 19.4 0 10.8-8.6 19.5-19.4 19.5z"/><path class="d" d="m1297.1 259.8c0 2.7 2.1 5.2 5.6 5.2h2.4c7.2 0 8.3-11.2 0-11l-2.4-0.3c-7.3 0.1-7.4-11 0-11h2.4c3.7 0 5.8 2.4 5.8 5.1"/><path fill-rule="evenodd" class="b" d="m1297.1 259.8c0 2.7 2.1 5.2 5.6 5.2h2.4c7.2 0 8.3-11.2 0-11l-2.4-0.3c-7.3 0.1-7.4-11 0-11h2.4c3.7 0 5.8 2.4 5.8 5.1"/><path class="g" d="m1334.4 260c-2.9 0-5.3-2.3-5.3-5.2 0-3 2.4-5.3 5.3-5.3 2.9 0 5.2 2.3 5.2 5.3 0 2.9-2.3 5.2-5.2 5.2z"/><path class="g" d="m1273.3 259.8c-2.9 0-5.3-2.4-5.3-5.3 0-2.9 2.4-5.2 5.3-5.2 6.9 0 6.9 10.5 0 10.5z"/><path fill-rule="evenodd" class="b" d="m1304 239.1v29.5"/><path class="h" d="m1339.8 262.4c0-10.6 8.6-19.3 19.2-19.3 10.7 0 19.3 8.7 19.3 19.3v9.4c0 10.7-8.6 19.3-19.3 19.3-10.6 0-19.2-8.6-19.2-19.3z"/><path class="a" d="m1359 281.7c-10.7 0-19.3-8.6-19.3-19.3 0-10.6 8.6-19.3 19.3-19.3 10.7 0 19.3 8.7 19.3 19.3 0 10.7-8.6 19.3-19.3 19.3z"/><path  d="m1363.6 267.5q0-1.5-1.1-2.3-1.1-0.8-3.9-1.4-2.8-0.6-4.4-1.4-1.6-0.8-2.4-2-0.8-1.1-0.8-2.7 0-2.6 2.2-4.4 2.3-1.9 5.7-1.9 3.6 0 5.9 1.9 2.2 1.9 2.2 4.8h-3.6q0-1.5-1.3-2.6-1.3-1.1-3.2-1.1-2 0-3.1 0.9-1.1 0.9-1.1 2.3 0 1.3 1 2 1.1 0.6 3.8 1.3 2.7 0.6 4.4 1.4 1.7 0.9 2.5 2.1 0.8 1.1 0.8 2.9 0 2.8-2.2 4.5-2.3 1.8-6 1.8-2.5 0-4.5-0.9-2-0.9-3.1-2.6-1.1-1.6-1.1-3.5h3.6q0.1 1.8 1.5 2.9 1.4 1.1 3.6 1.1 2.1 0 3.3-0.8 1.3-0.9 1.3-2.3z"/><path fill-rule="evenodd" class="b" d="m1359.2 250.2v24.7"/><path class="g" d="m1298.4 470.4c-0.4 0.5-1.3 0.2-1.3-0.5l-10.1-31.1 31.1 10.1c0.6 0.1 1 0.9 0.5 1.4l-8.3 5.8 8.5 8.5c0.7 0.7 0.7 1.8 0 2.5l-3.8 3.7c-0.6 0.7-1.7 0.7-2.4 0l-8.5-8.5z"/><path class="r" d="m1021.3 585.1c-0.3 0.2-0.7 0.3-1.1 0.2-0.8-0.2-1.3-0.9-1.1-1.7l8.7-38.2c0.1-0.3 0.3-0.7 0.6-0.9 0.4-0.2 0.8-0.3 1.2-0.2l30.9 7.3 10.9-68.7c0.1-0.7 0.9-1.3 1.6-1.2l25.5 3.5 7.9-49.4c0.1-0.8 0.9-1.3 1.7-1.2 0.8 0.1 1.3 0.9 1.2 1.7l-8.2 50.8c-0.1 0.8-0.8 1.4-1.6 1.3l-25.4-3.6-10.9 68.9c-0.1 0.4-0.3 0.7-0.6 1q0 0 0 0c-0.4 0.2-0.8 0.3-1.2 0.2l-31.1-7.3-8.4 36.6c0 0.4-0.3 0.7-0.6 0.9z"/><path class="r" d="m1117.9 446.3c-0.6 0.5-1.6 0.3-2-0.4l-7.8-11.4-11.3 7.7c-0.6 0.5-1.5 0.3-2-0.4-0.5-0.6-0.3-1.6 0.4-2q0 0 0 0l12.4-8.5c0.4-0.3 0.8-0.3 1.2-0.3 0.3 0.1 0.7 0.3 0.9 0.6l8.6 12.7c0.5 0.7 0.3 1.6-0.4 2z"/><path class="h" d="m1219.6 551.4l13.7 26.6c4.1-2.1 7.8-5.1 10.7-9.1 1.8-2.6 3.2-5.3 4.1-8.2z"/><path class="s" d="m1189.7 550.3c0.2 2.7-0.3 1.9 0.4 5.9 1.2 7.5 5.3 14.6 12 19.4l17.5-24.2-4.8-29.7c-14.2 2.4-24.6 14.4-25.1 28.6z"/><path class="c" d="m1219.6 551.4l-17.5 24.2c9.4 6.8 21.5 7.4 31.2 2.4z"/><path class="a" d="m1228.9 522.8h-0.1c-4.6-1.5-9.4-1.8-14-1.1l4.8 29.7 28.6 9.3c5.2-15.7-3.4-32.8-19.3-37.9z"/><path class="t" d="m1375.7 575.5c0 3.1-2.4 5.5-5.5 5.5h-87.2c-3.1 0-5.5-2.4-5.5-5.5v-59.9h98.2z"/><path class="d" d="m1344.8 515.6q0 0 0 0c-1.5-8.7-9.1-15.4-18.3-15.4-9.2 0-16.8 6.7-18.3 15.4"/><path fill-rule="evenodd" class="u" d="m1344.8 515.6q0 0 0 0c-1.5-8.7-9.1-15.4-18.3-15.4-9.2 0-16.8 6.7-18.3 15.4"/><path class="h" d="m1375.7 515.6h-98.2v0.7c4.4 23.2 24.8 40.7 49.4 40.7 43.1 0 48.8-41.4 48.8-41.4z"/><path class="t" d="m1308.2 558.1c0 1.2-0.9 2.2-2.2 2.2h-5.1c-1.2 0-2.2-1-2.2-2.2v-9.3c0-1.2 1-2.2 2.2-2.2h5.1c1.3 0 2.2 1 2.2 2.2z"/><path class="t" d="m1354.4 558.1c0 1.2-0.9 2.2-2.2 2.2h-5.1c-1.2 0-2.2-1-2.2-2.2v-9.3c0-1.2 1-2.2 2.2-2.2h5.1c1.3 0 2.2 1 2.2 2.2z"/><path class="g" d="m1066 460.6c-1.2 0-2 0.4-2.7 1.3-0.1 0.2-0.4 0.4-0.7 0.4-0.4 0-0.8-0.3-0.9-0.6v-8.9h-8.6c-0.5-0.1-0.9-0.5-0.9-1 0-0.3 0.2-0.6 0.4-0.7v-0.1c0.9-0.6 1.3-1.5 1.3-2.6 0-1.9-1.5-3.5-3.4-3.5-1.9 0-3.5 1.6-3.5 3.5 0 1.1 0.5 2 1.3 2.6v0.1c0.3 0.1 0.4 0.4 0.4 0.7 0 0.5-0.3 0.9-0.8 1h-8.6v8.5c0 0.5 0.4 1 1 1 0.3 0 0.5-0.2 0.7-0.4 0.7-0.9 1.5-1.4 2.7-1.4 1.9 0 3.4 1.6 3.4 3.5 0 2-1.5 3.5-3.4 3.5-1.2 0-2-0.5-2.7-1.3-0.2-0.3-0.4-0.4-0.7-0.4-0.6 0-1 0.4-1 1v8.5h8.6c0.5 0 0.8 0.4 0.8 0.9 0 0.4-0.1 0.6-0.4 0.8-0.8 0.7-1.3 1.5-1.3 2.7 0 1.9 1.6 3.4 3.5 3.4 1.9 0 3.4-1.5 3.4-3.4 0-1.2-0.4-2-1.3-2.7-0.2-0.2-0.4-0.4-0.4-0.8 0-0.5 0.4-0.9 0.9-0.9h8.5 0.1v-8.9c0.1-0.4 0.5-0.6 0.9-0.6 0.3 0 0.6 0.1 0.7 0.4 0.7 0.8 1.5 1.3 2.7 1.3 1.9 0 3.4-1.5 3.4-3.5 0-1.9-1.5-3.4-3.4-3.4z"/><path class="k" d="m1374.2 435.9c-1.6 1.6-4.2 1.6-5.8 0l-16.2-16.2c-1.3-1.3-1.4-2.6-0.3-3.7l2.2-2.2c1.4-1.4 2.6-1.2 3.9 0l16.2 16.3c1.7 1.6 1.7 4.2 0.1 5.8z"/><path class="c" d="m1342.1 425.7c-12.3 0-22.2-9.9-22.2-22.2 0-12.3 9.9-22.2 22.2-22.2 12.3 0 22.2 9.9 22.2 22.2 0 12.3-9.9 22.2-22.2 22.2z"/><path class="l" d="m1342.1 419.7c-9 0-16.2-7.2-16.2-16.2 0-9 7.2-16.2 16.2-16.2 9 0 16.2 7.2 16.2 16.2 0 9-7.2 16.2-16.2 16.2z"/><path class="d" d="m1332.2 402.5c-0.1 0.5-0.6 1-1.1 1-0.6 0-1.1-0.5-1-1.1 0.5-5.8 5.2-10.4 11-10.9 0.5-0.1 1 0.4 1 1 0 0.6-0.5 1-1.1 1.1-4.6 0.5-8.4 4.2-8.8 8.9z"/><path class="f" d="m1232.6 445v12.5h-5.9v-12.5z"/><path class="a" d="m1229.5 506.2c-15.2 0-27.5-12.3-27.5-27.5 0-15.2 12.3-27.4 27.5-27.4 15.1 0 27.4 12.2 27.4 27.4 0 15.2-12.3 27.5-27.4 27.5z"/><path class="f" d="m1238.1 446.9c0 1-0.8 1.9-1.8 1.9h-13.2c-1.1 0-1.9-0.9-1.9-1.9v-3.3c0-1.1 0.8-1.9 1.9-1.9h13.2c1 0 1.8 0.8 1.8 1.9z"/><path class="d" d="m1229.5 500.3c-12 0-21.6-9.6-21.6-21.6 0-11.9 9.6-21.6 21.6-21.6 11.9 0 21.6 9.7 21.6 21.6 0 12-9.7 21.6-21.6 21.6z"/><path class="o" d="m1230.7 478.1c0 0.7-0.6 1.2-1.2 1.2-0.7 0-1.3-0.5-1.3-1.2v-8.8c0-0.6 0.6-1.2 1.3-1.2 0.6 0 1.2 0.6 1.2 1.2z"/><path class="o" d="m1242.7 478.7c0 0.3-0.3 0.6-0.7 0.6h-13.1c-0.3 0-0.7-0.3-0.7-0.6 0-0.4 0.4-0.7 0.7-0.7h13.1c0.4 0 0.7 0.3 0.7 0.7z"/><path fill-rule="evenodd" class="o" d="m1242 479.9h-13.1c-0.6 0-1.2-0.6-1.2-1.2 0-0.7 0.6-1.2 1.2-1.2h13.1c0.7 0 1.2 0.5 1.2 1.2 0 0.6-0.5 1.2-1.2 1.2zm-13.1-1.4c-0.1 0-0.1 0.1-0.1 0.2 0 0.1 0 0.1 0.1 0.1h13.1c0.2 0 0.2 0 0.2-0.1 0-0.1 0-0.2-0.2-0.2z"/><path class="o" d="m1230.7 460.7c0 0.6-0.6 1.2-1.2 1.2-0.7 0-1.3-0.6-1.3-1.2v-1.1c0-0.7 0.6-1.2 1.3-1.2 0.6 0 1.2 0.5 1.2 1.2z"/><path class="o" d="m1230.7 498.1c0 0.7-0.6 1.2-1.2 1.2-0.7 0-1.3-0.5-1.3-1.2v-1.1c0-0.6 0.6-1.2 1.3-1.2 0.6 0 1.2 0.6 1.2 1.2z"/><path class="o" d="m1211.3 477.6c0.6 0 1.2 0.6 1.2 1.2 0 0.7-0.6 1.3-1.2 1.3h-1.1c-0.7 0-1.2-0.6-1.2-1.3 0-0.6 0.5-1.2 1.2-1.2z"/><path class="o" d="m1248.7 477.6c0.7 0 1.2 0.6 1.2 1.2 0 0.7-0.5 1.3-1.2 1.3h-1c-0.7 0-1.3-0.6-1.3-1.3 0-0.6 0.6-1.2 1.3-1.2z"/><path class="f" d="m1229.5 481.4c-1.5 0-2.7-1.2-2.7-2.7 0-1.4 1.2-2.6 2.7-2.6 1.4 0 2.6 1.2 2.6 2.6 0 1.5-1.2 2.7-2.6 2.7z"/><path class="d" d="m1167.8 430l-16.3-9.6-9.3 14 9.7 9z"/></svg>