<svg version="1.2" xmlns="http://www.w3.org/2000/svg" viewBox="0 0 1000 1000" width="1000" height="1000"><style>.a{opacity:.1;fill:#ffdf93}.b{fill:none;stroke:#bf973a;stroke-miterlimit:10;stroke-width:3}.c{display:none;fill:#604c1d}.d{fill:#8f712c}.e{fill:#ff5f56;stroke:#282e35;stroke-linecap:round;stroke-linejoin:round;stroke-width:2}.f{fill:#fffefa;stroke:#282e35;stroke-linecap:round;stroke-linejoin:round;stroke-width:2}.g{fill:none;stroke:#282e35;stroke-linecap:round;stroke-linejoin:round;stroke-width:2}.h{fill:#282e35}.i{fill:#00b4d3;stroke:#282e35;stroke-linecap:round;stroke-linejoin:round;stroke-width:2}.j{fill:none;stroke:#ffdf94;stroke-miterlimit:10;stroke-width:2}.k{fill:none;stroke:#282e35;stroke-linecap:round;stroke-linejoin:round;stroke-width:3}.l{fill:none;stroke:#ffdf94;stroke-miterlimit:10;stroke-width:4}.m{fill:#ffdf94}.n{fill:#ffc94d;stroke:#282e35;stroke-linecap:round;stroke-linejoin:round;stroke-width:2}.o{fill:#ff5f56}.p{fill:#8f712c;stroke:#282e35;stroke-linecap:round;stroke-linejoin:round;stroke-width:2}.q{fill:#00b4d3}.r{fill:#cfeaf2}.s{fill:#e8f6fa}</style><path class="a" d="m495.7 970.6c-240.4 0-434.8-194.4-434.8-434.8 0-240.4 194.4-434.8 434.8-434.8 240.4 0 434.8 194.4 434.8 434.8 0 240.4-194.4 434.8-434.8 434.8z"/><path class="b" d="m842.4 557.7v19.5c0 7.7 6.2 13.9 13.9 13.9h68.1c7.8 0 14 6.3 14 14v2.8c0 7.7-6.2 14-14 14h-33c-7.7 0-14 6.2-14 13.9v14.6c0 7.7 6.3 13.9 14 13.9h3.6c7.7 0 14 6.3 14 14 0 7.7-6.3 14-14 14h-6.5c-7.7 0-13.9 6.2-13.9 13.9v40.4"/><path class="c" d="m138.7 29.3h-17v43.7h6.2v-13.2h10.8c11.4 0 18.2-5.8 18.2-15.2 0-9.5-6.8-15.3-18.2-15.3zm-0.2 25h-10.6v-19.5h10.6c8 0 12.2 3.5 12.2 9.8 0 6.2-4.2 9.7-12.2 9.7zm63.6 18.7l-10.4-14.7c6.1-2.1 9.6-7 9.6-13.7 0-9.5-6.8-15.3-18.2-15.3h-17v43.7h6.2v-13.3h10.8c0.9 0 1.9 0 2.8-0.1l9.4 13.4zm-19.2-18.6h-10.6v-19.6h10.6c8 0 12.2 3.5 12.2 9.8 0 6.2-4.2 9.8-12.2 9.8zm48.2 19.1c13.3 0 23.2-9.5 23.2-22.3 0-12.9-9.9-22.4-23.2-22.4-13.4 0-23.2 9.6-23.2 22.4 0 12.8 9.8 22.3 23.2 22.3zm0-5.6c-9.7 0-17-7.1-17-16.7 0-9.7 7.3-16.8 17-16.8 9.7 0 16.9 7.1 16.9 16.8 0 9.6-7.2 16.7-16.9 16.7zm37.4 5.6c8.9 0 13.7-4.8 13.7-14.5v-29.7h-22v5.5h15.8v24.5c0 5.8-2.6 8.8-7.5 8.8-3.7 0-6.7-1.8-9.1-5.1l-3.6 4.2c2.8 4.1 7.5 6.3 12.7 6.3zm32.6-5.9v-14.1h21.9v-5.3h-21.9v-13.4h24.6v-5.5h-30.8v43.7h31.7v-5.4zm54.9 5.9c6.8 0 12.6-2.4 16.6-6.9l-4-3.9c-3.4 3.6-7.5 5.2-12.3 5.2-9.9 0-17.2-7.1-17.2-16.7 0-9.7 7.3-16.8 17.2-16.8 4.8 0 8.9 1.6 12.3 5.2l4-4c-4-4.5-9.8-6.8-16.6-6.8-13.2 0-23.1 9.5-23.1 22.4 0 12.9 9.9 22.3 23.1 22.3zm33.7-0.5h6.2v-38.2h15v-5.5h-36.1v5.5h14.9zm91.2 0v-43.7h-5.2l-17.9 30.7-18.2-30.7h-5.2v43.7h6v-31.7l15.8 26.4h2.9l15.8-26.6v31.9zm45.8 0h6.5l-19.8-43.7h-6.2l-19.8 43.7h6.4l4.8-11h23.2zm-25.8-15.9l9.4-21.4 9.5 21.4zm70.1-27.7v32.5l-26.2-32.5h-5.1v43.6h6.3v-32.5l26.2 32.5h5.1v-43.6zm51.9 43.6h6.6l-19.8-43.6h-6.2l-19.8 43.6h6.4l4.8-10.9h23.2zm-25.8-15.9l9.4-21.4 9.4 21.4zm68.5 8.1c-3.1 2-6.5 2.8-10.2 2.8-10 0-17.3-7.2-17.3-16.8 0-9.7 7.3-16.8 17.4-16.8 4.9 0 9 1.6 12.6 5.1l3.9-3.9c-4-4.4-9.9-6.7-16.8-6.7-13.5 0-23.4 9.4-23.4 22.3 0 12.9 9.9 22.3 23.3 22.3 6.1 0 12.2-1.8 16.5-5.5v-17.1h-6zm24.2 2.5v-14.1h21.9v-5.3h-21.9v-13.4h24.6v-5.5h-30.9v43.7h31.7v-5.4zm82.1 5.4l-0.1-43.7h-5.1l-18 30.7-18.2-30.7h-5.1v43.7h6v-31.6l15.8 26.3h2.8l15.8-26.5 0.1 31.8zm19.3-5.4v-14.1h21.9v-5.3h-21.9v-13.4h24.6v-5.5h-30.8v43.7h31.7v-5.4zm66.8-38.3v32.6l-26.2-32.6h-5.1v43.7h6.2v-32.6l26.2 32.6h5.2v-43.7zm28 43.7h6.1v-38.2h15v-5.5h-36.1v5.5h15z"/><path class="d" d="m879.5 597.6c-3.6 0-6.5-2.9-6.5-6.5 0-3.6 2.9-6.5 6.5-6.5 3.6 0 6.5 2.9 6.5 6.5 0 3.6-2.9 6.5-6.5 6.5z"/><path class="d" d="m892.2 698.8c-3.6 0-6.5-2.9-6.5-6.5 0-3.6 2.9-6.5 6.5-6.5 3.6 0 6.5 2.9 6.5 6.5 0 3.6-2.9 6.5-6.5 6.5z"/><path class="b" d="m230.8 262.4h75.1c4.4 0 8 3.6 8 8.1 0 4.4-3.6 8-8 8h-20.8c-8.6 0-15.6 6.9-15.6 15.5 0 8.6 7 15.5 15.6 15.5h74.8c7.3 0 13.2 5.9 13.2 13.2 0 7.2 5.9 13.1 13.1 13.1h12.9"/><path class="b" d="m112 334.5v24.2c0 8.1 6.5 14.6 14.6 14.6h13.6c8.1 0 14.6 6.5 14.6 14.6v7.7c0 8.1-6.5 14.6-14.6 14.6-8 0-14.6 6.5-14.6 14.6v4c0 8.1 6.6 14.6 14.6 14.6h21.3c8.1 0 14.6 6.6 14.6 14.6v3"/><path class="b" d="m207.8 487.4h18.7c7.9 0 14.3-6.4 14.3-14.3v-45.4c0-7.9 6.4-14.3 14.3-14.3h4.4c7.9 0 14.3 6.4 14.3 14.3v13.5c0 7.9 6.4 14.3 14.3 14.3 7.8 0 14.2 6.4 14.2 14.3v33.5c0 7.9 6.4 14.3 14.3 14.3h91.4"/><path class="b" d="m583.5 502.2h44c7.3 0 13.2-5.9 13.2-13.2v-51.5c0-7.2 5.9-13.1 13.2-13.1h12.4c7.2 0 13.1 5.9 13.1 13.1v26c0 7.3 5.9 13.2 13.2 13.2h1.9c7.3 0 13.2 5.9 13.2 13.2v54.6c0 7.3 5.9 13.2 13.2 13.2 7.3 0 13.2-5.9 13.2-13.2v-30.6c0-7.3 5.9-13.2 13.2-13.2h29.8"/><path class="b" d="m542.7 307.9h71.7c7 0 12.7 5.6 12.7 12.6v2.7c0 7 5.6 12.6 12.6 12.6h15.8c7 0 12.7-5.6 12.7-12.6v-94c0-7 5.6-12.7 12.6-12.7h4.4c7 0 12.6 5.7 12.6 12.7v30c0 7 5.7 12.7 12.7 12.7 6.9 0 12.6 5.6 12.6 12.6v5.4c0 7 5.6 12.6 12.6 12.6h1.1c7 0 12.7-5.6 12.7-12.6v-38c0-7 5.6-12.6 12.6-12.6h2.4c7 0 12.6 5.6 12.6 12.6v17.3c0 7 5.7 12.7 12.7 12.7h71.3"/><path class="b" d="m895.9 313.9v25.9c0 5.3-4.3 9.6-9.6 9.6h-71.7c-5.4 0-9.7 4.3-9.7 9.7v1.7c0 5.3 4.3 9.6 9.7 9.6h45.3c5.3 0 9.6 4.3 9.6 9.6 0 5.3-4.3 9.6-9.6 9.6h-54.9c-5.3 0-9.6 4.3-9.6 9.6v37"/><path class="b" d="m546.8 651.5h102.1c7 0 12.7 5.7 12.7 12.7 0 3.6-2.9 6.5-6.5 6.5h-10.2c-5.9 0-10.8 4.8-10.8 10.8 0 5.9 4.9 10.8 10.8 10.8h120c3.6 0 6.5 2.8 6.5 6.4 0 3.6-2.9 6.5-6.5 6.5h-5.7c-3.6 0-6.4 2.8-6.4 6.4v35"/><path class="b" d="m359 843.1v-14.4c0-8.9-7.2-16.1-16.1-16.1-7.1 0-12.8-5.7-12.8-12.8v-1c0-13.2 10.7-23.9 23.9-23.9h73.3c5 0 9-4 9-9 0-5-4-9-9-9h-9.4c-4.9 0-9-4-9-9 0-11.2 9.2-20.4 20.4-20.4h55.3c4.9 0 9-4 9-8.9v-12.7"/><path class="b" d="m69.4 662.6v-20.2c0-4.9 4-8.8 8.8-8.8h78.1c4.9 0 8.8-4 8.8-8.8v-10.6c0-4.9-3.9-8.8-8.8-8.8h-9.6c-4.9 0-8.8-3.9-8.8-8.8 0-4.8 3.9-8.8 8.8-8.8h63.4c4.8 0 8.8-3.9 8.8-8.8v-51.6"/><path class="b" d="m165.1 734.2h59.3c6.3 0 11.4 5.1 11.4 11.4 0 6.2-5.1 11.3-11.4 11.3h-11.6c-6.3 0-11.4 5.1-11.4 11.4v15.6c0 6.3 5.1 11.4 11.4 11.4h27.8c6.3 0 11.4 5 11.4 11.3v32.8c0 6.2-5.1 11.3-11.4 11.3h-10.4c-6.3 0-11.3 5.1-11.3 11.4v0.1c0 6.3 5 11.4 11.3 11.4h64.9"/><path class="b" d="m556 680.5v14.2c0 5.9 4.8 10.7 10.7 10.7h9.8c0 7.9 6.4 14.2 14.2 14.2h10.7c7.8 0 14.2 6.4 14.2 14.2v4.1c0 7.9-6.4 14.2-14.2 14.2h-34.8c-7.8 0-14.2 6.4-14.2 14.2v0.2c0 7.8 6.4 14.2 14.2 14.2h31.3c7.8 0 14.2 6.3 14.2 14.2v25.1"/><path class="e" d="m150 824.4h-90.2c-7.9 0-14.3-6.4-14.3-14.3v-131.4c0-7.9 6.4-14.4 14.3-14.4h90.2c7.9 0 14.3 6.5 14.3 14.4v131.4c0 7.9-6.4 14.3-14.3 14.3z"/><path class="f" d="m152.8 683.7v128.9h-95.8v-128.9z"/><path class="f" d="m128.6 664.3v12.7h-48.5v-12.7z"/><path class="g" d="m90.6 670.7h28.6"/><path class="h" d="m69.6 708.4v1.8h2.4v9.8h2.1v-11.6z"/><path class="h" d="m73.1 750.2l3.1-3c1.6-1.5 1.9-2.5 1.9-3.6 0-2-1.6-3.3-4.2-3.3-1.9 0-3.5 0.7-4.3 1.9l1.5 1.2c0.6-0.9 1.5-1.3 2.7-1.3 1.4 0 2.1 0.7 2.1 1.7 0 0.7-0.2 1.3-1.3 2.4l-4.6 4.4v1.4h8.5v-1.8z"/><path class="h" d="m75.1 779.2l2.8-3.3v-1.5h-7.9v1.8h5.2l-2.6 3.2v1.4h1.1c1.7 0 2.5 0.7 2.5 1.8 0 1-0.9 1.7-2.5 1.7-1.3 0-2.5-0.4-3.3-1.1l-1 1.6c1.1 0.9 2.7 1.4 4.4 1.4 3.1 0 4.5-1.7 4.5-3.7 0-1.7-1.1-3-3.2-3.3z"/><path class="g" d="m85.1 708.1h52.8"/><path class="g" d="m85.1 713.8h52.8"/><path class="g" d="m85.1 719.6h52.8"/><path class="g" d="m85.1 740.2h52.8"/><path class="g" d="m85.1 746h52.8"/><path class="g" d="m85.1 751.8h52.8"/><path class="g" d="m85.1 774.9h52.8"/><path class="g" d="m85.1 780.7h52.8"/><path class="g" d="m85.1 786.5h52.8"/><path class="i" d="m309.1 843.1h84.3c7.1 0 12.8 7.2 12.8 16.1v32.2c0 8.9-5.7 16.1-12.8 16.1h-68l-14.4 12.6-1.9-12.6c-7.1 0-12.8-2.8-12.8-16.1v-32.2c0-8.9 5.7-16.1 12.8-16.1z"/><path class="f" d="m330.3 892.7h-17.8v-12.9c0-3.4 2.8-6.2 6.3-6.2h5.2c3.5 0 6.3 2.8 6.3 6.2z"/><path class="f" d="m321.4 871.8c-3.5 0-6.3-3-6.3-6.8 0-3.7 2.8-6.7 6.3-6.7 3.5 0 6.3 3 6.3 6.7 0 3.8-2.8 6.8-6.3 6.8z"/><path class="g" d="m342.8 895.6h48"/><path class="g" d="m342.8 889.5h48"/><path class="g" d="m342.8 883.4h48"/><path class="g" d="m342.8 877.3h48"/><path class="g" d="m342.8 871.2h48"/><path class="g" d="m342.8 865.1h48"/><path class="g" d="m342.8 859h48"/><path class="j" d="m117.9 879.3h53.6"/><path class="j" d="m128 889.5h53.6"/><path class="j" d="m138.2 899.7h53.6"/><path class="f" d="m874.1 499v58.7h-97v-121.5h97v49.9"/><path class="g" d="m795.4 458h59.6"/><path class="g" d="m795.4 466.5h52"/><path class="g" d="m795.4 475h57.1"/><path class="g" d="m795.4 483.5h59.6"/><path class="g" d="m795.4 492.1h54.5"/><path class="g" d="m795.4 500.6h57.1"/><path class="g" d="m795.4 509.1h59.6"/><path class="g" d="m795.4 517.6h59.6"/><path class="g" d="m795.4 526.1h52"/><path class="g" d="m795.4 534.7h47"/><path class="g" d="m795.4 543.2h54.5"/><path class="e" d="m906.5 474.2l-39.5 28.3-5.2-7.2 39.5-28.3z"/><path class="g" d="m869.5 495.2l21.8-15.6"/><path class="g" d="m861.8 495.3l-6.8 10.3 12-3.1"/><path class="g" d="m858.6 500.7l2.1 2.9"/><path class="g" d="m866.1 443.4v11.2"/><path class="k" d="m63.2 386.4v19.1"/><path class="k" d="m53.5 396h19.1"/><path class="k" d="m465.8 821.5v19.1"/><path class="k" d="m456.1 831.1h19.1"/><path class="k" d="m766.8 900.8v19.1"/><path class="k" d="m757.1 910.5h19.1"/><path class="k" d="m419.7 227.3v19.1"/><path class="k" d="m410 237h19.1"/><path class="k" d="m535.7 147.7v19.1"/><path class="k" d="m526 157.3h19.1"/><path class="k" d="m757.3 184.5v19.1"/><path class="k" d="m747.6 194.1h19.1"/><path class="k" d="m727.7 370.4v19.1"/><path class="k" d="m718 380.1h19.1"/><path class="k" d="m326.3 588.1v19.1"/><path class="k" d="m316.6 597.7h19.1"/><path class="k" d="m130.2 891.3v19.1"/><path class="k" d="m120.5 900.9h19.1"/><path class="k" d="m795.6 624v19.1"/><path class="k" d="m785.9 633.7h19.1"/><path class="d" d="m357.9 782.3c-3.6 0-6.5-2.9-6.5-6.5 0-3.6 2.9-6.5 6.5-6.5 3.6 0 6.5 2.9 6.5 6.5 0 3.6-2.9 6.5-6.5 6.5z"/><path class="d" d="m252 830.9c-3.6 0-6.5-2.9-6.5-6.5 0-3.6 2.9-6.5 6.5-6.5 3.6 0 6.5 2.9 6.5 6.5 0 3.6-2.9 6.5-6.5 6.5z"/><path class="d" d="m438.3 734.2c-3.6 0-6.5-2.9-6.5-6.5 0-3.6 2.9-6.5 6.5-6.5 3.6 0 6.5 2.9 6.5 6.5 0 3.6-2.9 6.5-6.5 6.5z"/><path class="d" d="m721.1 698.8c-3.6 0-6.5-2.9-6.5-6.5 0-3.6 2.9-6.5 6.5-6.5 3.6 0 6.5 2.9 6.5 6.5 0 3.6-2.9 6.5-6.5 6.5z"/><path class="d" d="m606.9 658c-3.6 0-6.5-2.9-6.5-6.5 0-3.6 2.9-6.5 6.5-6.5 3.6 0 6.5 2.9 6.5 6.5 0 3.6-2.9 6.5-6.5 6.5z"/><path class="d" d="m594.3 726.1c-3.6 0-6.5-2.9-6.5-6.5 0-3.6 2.9-6.5 6.5-6.5 3.6 0 6.5 2.9 6.5 6.5 0 3.6-2.9 6.5-6.5 6.5z"/><path class="d" d="m584.1 788.8c-3.6 0-6.5-2.9-6.5-6.5 0-3.6 2.9-6.5 6.5-6.5 3.6 0 6.5 2.9 6.5 6.5 0 3.6-2.9 6.5-6.5 6.5z"/><path class="d" d="m651.9 342.3c-3.6 0-6.5-2.9-6.5-6.5 0-3.6 2.9-6.5 6.5-6.5 3.5 0 6.5 2.9 6.5 6.5 0 3.6-3 6.5-6.5 6.5z"/><path class="d" d="m795.6 419.9c-3.6 0-6.5-2.9-6.5-6.5 0-3.6 2.9-6.5 6.5-6.5 3.6 0 6.5 2.9 6.5 6.5 0 3.6-2.9 6.5-6.5 6.5z"/><path class="d" d="m619.9 508.7c-3.6 0-6.5-2.9-6.5-6.5 0-3.6 2.9-6.5 6.5-6.5 3.6 0 6.5 2.9 6.5 6.5 0 3.6-2.9 6.5-6.5 6.5z"/><path class="d" d="m745.9 508.7c-3.6 0-6.5-2.9-6.5-6.5 0-3.6 2.9-6.5 6.5-6.5 3.5 0 6.5 2.9 6.5 6.5 0 3.6-3 6.5-6.5 6.5z"/><path class="d" d="m698.4 252.7c-3.6 0-6.5-2.9-6.5-6.5 0-3.6 2.9-6.5 6.5-6.5 3.6 0 6.5 2.9 6.5 6.5 0 3.6-2.9 6.5-6.5 6.5z"/><path class="d" d="m821.4 288.4c-3.6 0-6.5-2.9-6.5-6.5 0-3.6 2.9-6.5 6.5-6.5 3.6 0 6.5 2.9 6.5 6.5 0 3.6-2.9 6.5-6.5 6.5z"/><path class="d" d="m332.7 316c-3.6 0-6.5-2.9-6.5-6.5 0-3.6 2.9-6.5 6.5-6.5 3.6 0 6.5 2.9 6.5 6.5 0 3.6-2.9 6.5-6.5 6.5z"/><path class="d" d="m303 481.5c-3.6 0-6.5-2.9-6.5-6.5 0-3.6 2.9-6.5 6.5-6.5 3.6 0 6.5 2.9 6.5 6.5 0 3.6-2.9 6.5-6.5 6.5z"/><path class="d" d="m199.1 740.7c-3.6 0-6.5-2.9-6.5-6.5 0-3.6 2.9-6.5 6.5-6.5 3.6 0 6.5 2.9 6.5 6.5 0 3.6-2.9 6.5-6.5 6.5z"/><path class="d" d="m119.2 640.2c-3.6 0-6.5-2.9-6.5-6.5 0-3.6 2.9-6.5 6.5-6.5 3.6 0 6.5 2.9 6.5 6.5 0 3.6-2.9 6.5-6.5 6.5z"/><path class="d" d="m191 595.4c-3.6 0-6.5-2.9-6.5-6.5 0-3.6 2.9-6.5 6.5-6.5 3.6 0 6.5 2.9 6.5 6.5 0 3.6-2.9 6.5-6.5 6.5z"/><path class="d" d="m154.8 396.1c-3.6 0-6.5-2.9-6.5-6.5 0-3.6 2.9-6.5 6.5-6.5 3.6 0 6.5 2.9 6.5 6.5 0 3.6-2.9 6.5-6.5 6.5z"/><path class="d" d="m863.4 355.3c-3.6 0-6.5-2.9-6.5-6.5 0-3.5 2.9-6.5 6.5-6.5 3.6 0 6.5 3 6.5 6.5 0 3.6-2.9 6.5-6.5 6.5z"/><path class="f" d="m553.7 820v15.8h-15.8v-15.8z"/><path class="i" d="m587.8 820v15.8h-15.8v-15.8z"/><path class="f" d="m621.9 820v15.8h-15.7v-15.8z"/><path class="f" d="m656.1 820v15.8h-15.8v-15.8z"/><path class="f" d="m553.7 919.6v15.8h-15.8v-15.8z"/><path class="f" d="m587.8 919.6v15.8h-15.8v-15.8z"/><path class="i" d="m621.9 919.6v15.8h-15.7v-15.8z"/><path class="f" d="m656.1 919.6v15.8h-15.8v-15.8z"/><path class="e" d="m597.4 892.9c-8.2 0-14.8-6.6-14.8-14.8 0-8.2 6.6-14.8 14.8-14.8 8.2 0 14.8 6.6 14.8 14.8 0 8.2-6.6 14.8-14.8 14.8z"/><path class="g" d="m648.2 835.8v16.6h-102.4v-16.6z"/><path class="g" d="m614.1 835.8v16.6"/><path class="g" d="m579.9 835.8v16.6"/><path class="g" d="m597.4 852.4v10.9"/><path class="g" d="m648.2 903v16.6h-102.4v-16.6z"/><path class="g" d="m579.9 919.6v-16.6"/><path class="g" d="m614.1 919.6v-16.6"/><path class="g" d="m597.4 903v-10.1"/><path class="l" d="m235.8 666.1l16.3 9.2 16.3-9.2 16.4 9.2 16.3-9.2 16.4 9.2"/><path class="l" d="m617.5 586.5l16.3 9.2 16.4-9.2 16.3 9.2 16.4-9.2 16.3 9.2"/><path class="l" d="m499.1 211.6l16.3 9.2 16.4-9.2 16.3 9.2 16.4-9.2 16.3 9.2"/><path class="l" d="m235.8 365.8l16.3 9.2 16.3-9.2 16.4 9.2 16.3-9.2 16.4 9.2"/><path class="m" d="m85.1 194.1c-4.4 0-8-3.6-8-8 0-4.5 3.6-8.1 8-8.1 4.4 0 8 3.6 8 8.1 0 4.4-3.6 8-8 8z"/><path class="m" d="m80.1 539.9c-4.4 0-8-3.6-8-8 0-4.5 3.6-8.1 8-8.1 4.5 0 8.1 3.6 8.1 8.1 0 4.4-3.6 8-8.1 8z"/><path class="m" d="m330.3 733.6c-4.5 0-8.1-3.6-8.1-8 0-4.5 3.6-8 8.1-8 4.4 0 8 3.5 8 8 0 4.4-3.6 8-8 8z"/><path class="m" d="m98 870.7c-4.4 0-8-3.6-8-8.1 0-4.4 3.6-8 8-8 4.4 0 8 3.6 8 8 0 4.5-3.6 8.1-8 8.1z"/><path class="m" d="m338.3 192.5c-4.4 0-8-3.6-8-8 0-4.5 3.6-8.1 8-8.1 4.5 0 8 3.6 8 8.1 0 4.4-3.5 8-8 8z"/><path class="m" d="m946.4 404c-4.4 0-8-3.6-8-8.1 0-4.4 3.6-8 8-8 4.5 0 8.1 3.6 8.1 8 0 4.5-3.6 8.1-8.1 8.1z"/><path class="n" d="m620.1 422.5c0-71-57.8-123.2-128.5-128.5-69-5.2-126 50.9-128.5 128.5-1.5 44.5 24.3 83.9 59.4 106.9 13.3 8.8 21.6 23.5 21.6 39.5v45.2h99.4v-48.2c0-15.1 7.2-29.6 19.7-38.2 33.6-23.3 56.9-61.7 56.9-105.2z"/><path class="o" d="m563.1 417.7l-0.1-0.5c2.7-1.8 4.9-5.6 2.3-13.6-0.8-2.7-2.5-5.7-7.5-7.3l0.2-0.9c0 0 1.3-13.4-14.6-16.2-1.6-3.9-5.2-7.8-13.3-5.9l-0.1-0.9c-14-8.1-21.1 6-21.1 6 0 0-5.3 64.5 0 86.1 5.3 21.7 28.7 6.3 28.1 6.3 2.2-0.1 5-0.9 8.6-2.8 6.3-3.3 7.2-7.7 6.6-11.3l1.8-0.9c2.7-1 8.2-3.8 7.3-10.9-0.1-1.5-0.6-2.8-1.3-3.8 13.5-9.3 5-21.1 3.1-23.4z"/><path class="o" d="m421.5 417.7l0.1-0.5c-2.6-1.8-4.8-5.6-2.3-13.6 0.8-2.7 2.5-5.7 7.5-7.3l-0.1-0.9c0 0-1.4-13.4 14.5-16.2 1.6-3.9 5.3-7.8 13.4-5.9v-0.9c14-8.1 21.1 6 21.1 6 0 0 5.3 64.5 0 86.1-5.2 21.7-28.6 6.3-28.1 6.3-2.2-0.1-5-0.9-8.6-2.8-6.3-3.3-7.2-7.7-6.6-11.3l-1.8-0.9c-2.7-1-8.2-3.8-7.3-10.9 0.2-1.5 0.7-2.8 1.4-3.8-13.5-9.3-5-21.1-3.2-23.4z"/><path class="g" d="m511 613.4v-28c0-10.7 2.1-20.9 5.7-28.7 8.8-19.4 14.4-48.3 14.4-80.7"/><path class="g" d="m451.5 476c0 32.4 5.6 61.3 14.4 80.7 3.6 7.8 5.7 18 5.7 28.7v28"/><path class="g" d="m436.3 386c0 0-0.1-20.8 22.7-9.1"/><path class="g" d="m423.1 395.9c0 0-1.4-13.4 14.6-16.3"/><path class="g" d="m423.1 419.3c0 0-12.2 0-7.4-15.2 1.1-3.4 3.5-7.6 12.8-8.2"/><path class="g" d="m418.2 417.8c0 0-12.4 13.8 3.4 24.2"/><path class="g" d="m428.5 456.7c0 0-10-1.8-8.8-11.3 1.1-9.4 13.2-8 13.2-8"/><path class="g" d="m431.3 451.4c0 0-8.1 10.8 4.1 17.1 12.2 6.4 15.6 0 15.6 0"/><path class="g" d="m438.3 458.4c0 0 5.5-0.6 7-5.8"/><path class="g" d="m441.8 444.1c0 0-0.7-6 5.8-8.5"/><path class="g" d="m428.7 428c0 0 9.9-4.4 2.3-17.8"/><path class="g" d="m447.6 428.5c0 0-10.9-1.7-13.7-8.3"/><path class="g" d="m435.4 403.2c0 0 7.4 0.1 9.9-5.5"/><path class="g" d="m452.6 386c0 0-11.2 5.1-5 20.1"/><path class="g" d="m465.7 384.6c0 0 4 0.6 6.4 5"/><path class="g" d="m459 397.7c0 0 6.7 11.1-5.3 20.1"/><path class="g" d="m464.4 422.4c0 0.4-5.6-4.1-6.2-9"/><path class="g" d="m460 428.5c0 0 9.9 7.6 2.6 17.5"/><path class="g" d="m472.1 431.2c-0.6 0.3-1.8 5.2-6.8 6.2"/><path class="g" d="m452.6 442c0 0 7.3 12.1-3.4 21.4"/><path class="g" d="m454.6 454.7c0 0 2.1 7.3 8.1 8.7"/><path class="g" d="m444 471.3c-0.5 0 22.9 15.4 28.1-6.3 5.3-21.6 0-86.1 0-86.1 0 0-7.1-14.1-21.1-6"/><path class="g" d="m548.4 386c0 0 0.1-20.8-22.7-9.1"/><path class="g" d="m561.6 395.9c0 0 1.4-13.4-14.7-16.3"/><path class="g" d="m561.6 419.3c0 0 12.2 0 7.4-15.2-1.1-3.4-3.6-7.6-12.8-8.2"/><path class="g" d="m566.5 417.8c0 0 12.4 13.8-3.4 24.2"/><path class="g" d="m556.2 456.7c0 0 10-1.8 8.8-11.3-1.2-9.4-13.3-8-13.3-8"/><path class="g" d="m553.3 451.4c0 0 8.2 10.8-4 17.1-12.3 6.4-15.7 0-15.7 0"/><path class="g" d="m546.4 458.4c0 0-5.6-0.6-7-5.8"/><path class="g" d="m542.9 444.1c0 0 0.7-6-5.9-8.5"/><path class="g" d="m556 428c0 0-9.9-4.4-2.4-17.8"/><path class="g" d="m537 428.5c0 0 11-1.7 13.8-8.3"/><path class="g" d="m549.3 403.2c0 0-7.5 0.1-9.9-5.5"/><path class="g" d="m532.1 386c0 0 11.2 5.1 4.9 20.1"/><path class="g" d="m519 384.6c0 0-4 0.6-6.5 5"/><path class="g" d="m525.7 397.7c0 0-6.7 11.1 5.2 20.1"/><path class="g" d="m520.3 422.4c0 0.4 5.6-4.1 6.2-9"/><path class="g" d="m524.7 428.5c0 0-9.9 7.6-2.7 17.5"/><path class="g" d="m512.5 431.2c0.7 0.3 1.9 5.2 6.9 6.2"/><path class="g" d="m532.1 442c0 0-7.3 12.1 3.4 21.4"/><path class="g" d="m530.1 454.7c0 0-2.1 7.3-8.1 8.7"/><path class="g" d="m540.7 471.3c0.5 0-22.9 15.4-28.2-6.3-5.3-21.6 0-86.1 0-86.1 0 0 7.2-14.1 21.1-6"/><path class="g" d="m558.2 662.6c3.1 0 5.6-2.5 5.6-5.5 0-3.1-2.5-5.6-5.6-5.6h-5v-6.7h5c3.1 0 5.6-2.5 5.6-5.6 0-3.1-2.5-5.6-5.6-5.6h-5v-0.3c0-6.3-5.1-11.4-11.4-11.4h-98.8c-6.3 0-11.5 5.1-11.5 11.4v0.3h-4.9c-3.1 0-5.6 2.5-5.6 5.6 0 3.1 2.5 5.6 5.6 5.6h4.9v6.7h-4.9c-3.1 0-5.6 2.5-5.6 5.6 0 3 2.5 5.5 5.6 5.5h4.9v6.8h-4.9c-3.1 0-5.6 2.5-5.6 5.6 0 3 2.5 5.5 5.6 5.5h5c0.3 6.6 5.7 11.8 12.3 11.8h97c6.6 0 12-5.2 12.3-11.8h5c3.1 0 5.6-2.5 5.6-5.5 0-3.1-2.5-5.6-5.6-5.6h-5v-6.8z"/><path class="p" d="m530.7 692.3v12.9h-76.6v-12.9z"/><path class="g" d="m426.6 651.5h126.6"/><path class="g" d="m431.5 662.6h121.7"/><path class="g" d="m427.7 633.6h126.7"/><path class="g" d="m430.7 644.8h121.7"/><path class="g" d="m431.6 680.5h121.6"/><path class="g" d="m431.5 669.4h121.7"/><path class="m" d="m472.1 911c-4.4 0-8-3.6-8-8 0-4.5 3.6-8.1 8-8.1 4.5 0 8.1 3.6 8.1 8.1 0 4.4-3.6 8-8.1 8z"/><path class="m" d="m913.7 903.6c-4.4 0-8-3.6-8-8 0-4.5 3.6-8.1 8-8.1 4.5 0 8.1 3.6 8.1 8.1 0 4.4-3.6 8-8.1 8z"/><path class="j" d="m150.6 147.3h53.6"/><path class="j" d="m160.8 157.4h53.6"/><path class="j" d="m171 167.6h53.6"/><path class="j" d="m642.6 752.1h53.6"/><path class="j" d="m652.8 762.3h53.6"/><path class="j" d="m663 772.5h53.6"/><path class="j" d="m774.1 166.3h-53.6"/><path class="j" d="m763.9 176.4h-53.6"/><path class="j" d="m753.7 186.6h-53.6"/><path class="j" d="m967.3 400h-53.6"/><path class="j" d="m957.2 410.2h-53.6"/><path class="j" d="m947 420.4h-53.6"/><path class="j" d="m32.4 507.4h53.6"/><path class="j" d="m42.6 517.6h53.6"/><path class="j" d="m52.8 527.8h53.6"/><path class="q" d="m906.3 858.3h-156.3c-5.3 0-9.6-4.3-9.6-9.7v-47h179.1v43.5c0 7.3-5.9 13.2-13.2 13.2z"/><path class="r" d="m904.5 743.7h-150c-7.8 0-14.2 6.3-14.2 14.1v42.5h179.2v-41.7c0-8.3-6.7-14.9-15-14.9z"/><path class="s" d="m845.4 793.5v16.2h-30.9v-16.2z"/><path class="g" d="m739 757v89.1c0 6.7 5.5 12.2 12.2 12.2h155.1c6.7 0 12.1-5.5 12.1-12.2v-89.1c0-6.7-5.4-12.1-12.1-12.1h-155.1c-6.7 0-12.2 5.4-12.2 12.1z"/><path class="g" d="m739.1 801.6h177.9"/><path class="f" d="m845.4 793.5v16.2h-30.9v-16.2z"/><path class="g" d="m802.3 744.3v-6c0-9.4 7.6-17 16.9-17h16.3c9.4 0 17 7.6 17 17v6"/><path class="g" d="m763.1 793.5v15.3"/><path class="g" d="m894.7 793.5v15.3"/><path class="g" d="m812.2 744.9v-3.6c0-5 4.1-9 9.1-9h11.7c5.1 0 9.1 4 9.1 9v3.6"/><path class="g" d="m757.1 758.7h28.8"/><path class="g" d="m791.5 758.7h7.2"/><path class="g" d="m312.5 850.7h17.6"/><path class="g" d="m334.6 850.7h4.8"/><path class="i" d="m192.8 465.4c-15.3-9.8-35.6-5.4-45.5 9.8-9.9 15.3-5.5 35.7 9.8 45.5 13.4 8.7 30.8 6.3 41.5-4.8v0.1l41.2 26.6c3.4 2.2 8 1.2 10.2-2.2 2.2-3.4 1.2-8-2.2-10.2l-41.2-26.6v-0.1c5.8-14.3-0.4-29.4-13.8-38.1z"/><path class="f" d="m187.6 473.5c10.8 7 13.9 21.4 6.9 32.2-7 10.8-21.4 13.9-32.2 6.9-10.8-6.9-13.9-21.3-6.9-32.1 7-10.8 21.4-13.9 32.2-7z"/><path class="g" d="m184.4 478.4c8.1 5.2 10.5 16.1 5.2 24.2"/><path class="g" d="m232 526.8l9.5 6.2"/><path class="f" d="m229.7 229.2v105.3h-137.2v-105.3z"/><path class="i" d="m172.9 290.5v11.5h-9.7v-11.5z"/><path class="i" d="m128.7 271.9v11.5h-9.7v-11.5z"/><path class="i" d="m187.7 271.9v11.5h-9.7v-11.5z"/><path class="g" d="m118.8 273l9.7 10.4"/><path class="g" d="m119.3 282.9l9.2-9.9"/><path class="g" d="m163.7 291.1l8.7 10.4"/><path class="g" d="m172.4 291.1l-8.7 10.4"/><path class="g" d="m177.8 273l9.8 10.4"/><path class="i" d="m143.5 309.1v11.5h-9.7v-11.5z"/><path class="g" d="m187.6 273l-9.3 10.4"/><path class="g" d="m134.4 309.5l8.3 10.1"/><path class="g" d="m143.2 309.5l-9.3 10.1"/><path class="i" d="m202.4 309.1v11.5h-9.7v-11.5z"/><path class="g" d="m192.9 309.5l9.5 10.1"/><path class="g" d="m202.4 309.5l-9.5 10.1"/><path class="e" d="m105.6 246.2v14.8h110.1l0.1-14.8z"/><path class="g" d="m105.7 252.1l7.4-4.8"/><path class="g" d="m206.1 261l9.6-6.2"/><path class="g" d="m105.7 258.6l17.3-11.3"/><path class="g" d="m111.8 261l20.9-13.7"/><path class="g" d="m121.3 261l20.9-13.7"/><path class="g" d="m130.8 261l20.9-13.7"/><path class="g" d="m140.3 261l20.9-13.7"/><path class="g" d="m149.7 261l21-13.7"/><path class="g" d="m159.2 261l20.9-13.7"/><path class="g" d="m168.7 261l20.9-13.7"/><path class="g" d="m178.2 261l20.9-13.7"/><path class="g" d="m187.7 261l20.9-13.7"/><path class="g" d="m197.2 261l17.7-12.4"/><path class="g" d="m109.5 216.2v20.7"/><path class="g" d="m118.2 216.2v20.7"/><path class="g" d="m203.5 216.2v20.7"/><path class="g" d="m212.2 216.2v20.7"/><path class="e" d="m143.5 271.9v11.5h-9.7v-11.5z"/><path class="g" d="m158.2 271.9v11.5h-9.7v-11.5z"/><path class="g" d="m172.9 271.9v11.5h-9.7v-11.5z"/><path class="e" d="m202.4 271.9v11.5h-9.7v-11.5z"/><path class="e" d="m128.7 290.5v11.5h-9.7v-11.5z"/><path class="g" d="m143.5 290.5v11.5h-9.7v-11.5z"/><path class="e" d="m158.2 290.5v11.5h-9.7v-11.5z"/><path class="e" d="m187.7 290.5v11.5h-9.7v-11.5z"/><path class="g" d="m202.4 290.5v11.5h-9.7v-11.5z"/><path class="e" d="m128.7 309.1v11.5h-9.7v-11.5z"/><path class="g" d="m158.2 309.1v11.5h-9.7v-11.5z"/><path class="e" d="m172.9 309.1v11.5h-9.7v-11.5z"/><path class="g" d="m187.7 309.1v11.5h-9.7v-11.5z"/><path class="g" d="m99.1 270.8v13.4"/><path class="g" d="m99.1 294.7v-5.4"/><path class="g" d="m215.7 328.7h7.3v-20.4"/><path class="g" d="m69.4 803.9h24.1"/><path class="g" d="m98 803.9h8.4"/><path class="g" d="m541.7 826.8v5.6"/><path class="g" d="m618.2 926.2v4.6"/><path class="g" d="m602.3 868.6c0 0 7.2 3.4 5.5 12.6"/><path class="e" d="m904.3 222.3h-40.8c-4.5 0-8.2-3.7-8.2-8.2v-3.4h57.2v3.4c0 4.5-3.6 8.2-8.2 8.2z"/><path class="e" d="m863.5 302.1h40.8c4.6 0 8.2 3.6 8.2 8.2v3.4h-57.2v-3.4c0-4.6 3.7-8.2 8.2-8.2z"/><path class="i" d="m860 222.3v19.2l20.7 20.9-20.7 19.5v20h48.2v-17.5l-21.3-21.4 21.4-21.4v-19.3z"/><path class="g" d="m865.5 237.3l10.1 10.1"/><path class="g" d="m878.7 251.3l4.3 4.2"/><path class="g" d="m899.4 284.4v13.2"/></svg>