<svg width="5000" height="5000" viewBox="0 0 5000 5000" fill="none" xmlns="http://www.w3.org/2000/svg">
<path d="M613.3 1003.7L588.5 986.2L634 922.1L658.7 939.6L613.3 1003.7Z" fill="#FF9E22"/>
<path d="M539.7 1150.8L511.9 1138.8L543 1066.6L570.9 1078.6L539.7 1150.8Z" fill="#FF9E22"/>
<path d="M504.4 1313.8L474.3 1309.8L484.7 1231.8L514.7 1235.8L504.4 1313.8Z" fill="#FF9E22"/>
<path d="M528.1 1482.6L498.8 1490.1L479.4 1413.9L508.7 1406.5L528.1 1482.6Z" fill="#FF9E22"/>
<path d="M613.7 1629.8L589 1647.4L543.4 1583.4L568.1 1565.8L613.7 1629.8Z" fill="#FF9E22"/>
<path d="M733.9 1744.2L714.3 1767.3L654.4 1716.4L674 1693.4L733.9 1744.2Z" fill="#FF9E22"/>
<path d="M867.8 1834L851.6 1859.6L785.2 1817.6L801.4 1792L867.8 1834Z" fill="#FF9E22"/>
<path d="M1009.3 1909.7L995.7 1936.8L925.5 1901.4L939.1 1874.4L1009.3 1909.7Z" fill="#FF9E22"/>
<path d="M1157.2 1971.7L1146.1 1999.9L1072.9 1971.2L1084 1943L1157.2 1971.7Z" fill="#FF9E22"/>
<path d="M1309.6 2020.4L1301 2049.5L1225.7 2027.2L1234.2 1998.1L1309.6 2020.4Z" fill="#FF9E22"/>
<path d="M1465.4 2056.3L1459.2 2086L1382.3 2069.9L1388.5 2040.2L1465.4 2056.3Z" fill="#FF9E22"/>
<path d="M1623.4 2080.1L1619.4 2110.1L1541.5 2099.9L1545.4 2069.9L1623.4 2080.1Z" fill="#FF9E22"/>
<path d="M1782.6 2092.1L1780.8 2122.4L1702.4 2117.9L1704.1 2087.7L1782.6 2092.1Z" fill="#FF9E22"/>
<path d="M4299.8 659.8L4328.6 650.5L4352.8 725.3L4323.9 734.6L4299.8 659.8Z" fill="#FF9E22"/>
<path d="M4232.6 511.8L4259.6 498.2L4295 568.3L4268 582L4232.6 511.8Z" fill="#FF9E22"/>
<path d="M4136.7 377.8L4160.1 358.6L4210 419.3L4186.6 438.5L4136.7 377.8Z" fill="#FF9E22"/>
<path d="M3995.4 280.5L4009.1 253.5L4079.2 288.9L4065.5 316L3995.4 280.5Z" fill="#FF9E22"/>
<path d="M3817.8 273.3L3814.2 243.3L3892.3 234.1L3895.8 264.2L3817.8 273.3Z" fill="#FF9E22"/>
<path d="M3660.6 336.5L3647.3 309.3L3717.9 274.8L3731.2 302.1L3660.6 336.5Z" fill="#FF9E22"/>
<path d="M3525.3 425.6L3507.9 400.8L3572.3 355.7L3589.7 380.5L3525.3 425.6Z" fill="#FF9E22"/>
<path d="M3402.1 529.7L3381.8 507.1L3440.2 454.5L3460.5 477.1L3402.1 529.7Z" fill="#FF9E22"/>
<path d="M3292.7 648.5L3269.8 628.7L3321.1 569.1L3344 588.9L3292.7 648.5Z" fill="#FF9E22"/>
<path d="M3199.5 780.4L3174.2 763.7L3217.4 698.1L3242.7 714.7L3199.5 780.4Z" fill="#FF9E22"/>
<path d="M3123.6 922.9L3096.4 909.5L3131.1 839L3158.3 852.4L3123.6 922.9Z" fill="#FF9E22"/>
<path d="M3065.9 1073.5L3037.3 1063.6L3063.1 989.3L3091.7 999.3L3065.9 1073.5Z" fill="#FF9E22"/>
<path d="M3026.7 1229.9L2997.1 1223.5L3013.8 1146.7L3043.4 1153.1L3026.7 1229.9Z" fill="#FF9E22"/>
<path d="M3007 1390.2L2976.9 1387.5L2983.8 1309.2L3014 1311.9L3007 1390.2Z" fill="#FF9E22"/>
<path d="M3011.1 1552.8L2980.9 1555L2975.2 1476.6L3005.4 1474.4L3011.1 1552.8Z" fill="#FF9E22"/>
<path d="M3165.3 2725.3L3179.5 2752.1L3110 2788.8L3095.8 2762L3165.3 2725.3Z" fill="#FF9E22"/>
<path d="M3313.4 2660.9L3324.9 2689L3252 2718.6L3240.6 2690.5L3313.4 2660.9Z" fill="#FF9E22"/>
<path d="M3466.8 2610.7L3475.5 2639.8L3400.2 2662.3L3391.5 2633.3L3466.8 2610.7Z" fill="#FF9E22"/>
<path d="M3625 2576.5L3630.5 2606.3L3553.3 2620.7L3547.7 2590.9L3625 2576.5Z" fill="#FF9E22"/>
<path d="M3786.8 2561.1L3788.6 2591.4L3710.1 2596.2L3708.3 2565.9L3786.8 2561.1Z" fill="#FF9E22"/>
<path d="M3950.1 2568.3L3947.5 2598.5L3869.2 2592L3871.7 2561.8L3950.1 2568.3Z" fill="#FF9E22"/>
<path d="M4111 2601.6L4103.6 2631L4027.4 2611.7L4034.8 2582.3L4111 2601.6Z" fill="#FF9E22"/>
<path d="M4264.2 2662.8L4251.6 2690.4L4180.1 2657.8L4192.7 2630.2L4264.2 2662.8Z" fill="#FF9E22"/>
<path d="M4403.9 2750.6L4386.6 2775.5L4322 2730.6L4339.3 2705.7L4403.9 2750.6Z" fill="#FF9E22"/>
<path d="M4526.2 2860.7L4505 2882.4L4448.9 2827.4L4470.1 2805.7L4526.2 2860.7Z" fill="#FF9E22"/>
<path d="M4628.2 2990.1L4603.5 3007.7L4558 2943.6L4582.7 2926L4628.2 2990.1Z" fill="#FF9E22"/>
<path d="M4703.3 3138L4675.6 3150.3L4643.8 3078.4L4671.5 3066.1L4703.3 3138Z" fill="#FF9E22"/>
<path d="M4746.8 3298.2L4717.2 3304.6L4700.6 3227.7L4730.2 3221.3L4746.8 3298.2Z" fill="#FF9E22"/>
<path d="M4759.1 3462.9L4728.8 3463.8L4726.6 3385.2L4756.9 3384.4L4759.1 3462.9Z" fill="#FF9E22"/>
<path d="M4744.3 3626.3L4714.2 3622.4L4724.3 3544.4L4754.4 3548.3L4744.3 3626.3Z" fill="#FF9E22"/>
<path d="M4707.7 3784.9L4678.4 3777.2L4698.5 3701.2L4727.8 3708.9L4707.7 3784.9Z" fill="#FF9E22"/>
<path d="M4654.1 3937.6L4625.8 3926.8L4653.7 3853.3L4682 3864.1L4654.1 3937.6Z" fill="#FF9E22"/>
<path d="M4586.7 4083.9L4559.5 4070.7L4593.9 4000L4621.1 4013.3L4586.7 4083.9Z" fill="#FF9E22"/>
<path d="M4507.8 4223.9L4481.7 4208.5L4521.7 4140.8L4547.8 4156.2L4507.8 4223.9Z" fill="#FF9E22"/>
<path d="M1701.7 3070.8L1707.3 3041L1784.6 3055.5L1779 3085.3L1701.7 3070.8Z" fill="#FF9E22"/>
<path d="M1543 3050.9L1546.1 3020.8L1624.3 3028.9L1621.2 3059L1543 3050.9Z" fill="#FF9E22"/>
<path d="M1382.7 3045.5L1383 3015.2L1461.6 3015.8L1461.3 3046.1L1382.7 3045.5Z" fill="#FF9E22"/>
<path d="M1222 3058.2L1218.6 3028.1L1296.7 3019.2L1300.1 3049.3L1222 3058.2Z" fill="#FF9E22"/>
<path d="M1063.4 3095.4L1055.1 3066.3L1130.7 3044.7L1139 3073.8L1063.4 3095.4Z" fill="#FF9E22"/>
<path d="M914.3 3166.7L899.4 3140.3L967.8 3101.7L982.7 3128.1L914.3 3166.7Z" fill="#FF9E22"/>
<path d="M789.7 3279.3L767.6 3258.6L821.1 3201.1L843.3 3221.8L789.7 3279.3Z" fill="#FF9E22"/>
<path d="M706.1 3424.9L678.7 3411.9L712.5 3340.9L739.8 3353.9L706.1 3424.9Z" fill="#FF9E22"/>
<path d="M662.5 3584.4L632.9 3578L649.5 3501.2L679.1 3507.6L662.5 3584.4Z" fill="#FF9E22"/>
<path d="M648.1 3746.5L617.8 3744.9L621.9 3666.4L652.2 3668L648.1 3746.5Z" fill="#FF9E22"/>
<path d="M653.7 3907.4L623.5 3909.2L618.7 3830.8L648.9 3828.9L653.7 3907.4Z" fill="#FF9E22"/>
<path d="M673.7 4066.1L643.7 4070.5L632.4 3992.7L662.4 3988.3L673.7 4066.1Z" fill="#FF9E22"/>
<path d="M3267.5 1480.2V3548.5H1634.7V1480.2H3267.5Z" fill="#F99E22"/>
<path d="M3181.6 1589V3439.6H1720.6V1589H3181.6Z" fill="white"/>
<path d="M2751 1425.7L2451.5 1434.7L2152 1425.7C2152 1425.7 2166.5 1524 2117.4 1615.2H2439.8H2463.2H2790.8C2741.6 1524 2751 1425.7 2751 1425.7Z" fill="#3A626D"/>
<path d="M2795.6 1608.8C2795.6 1628.1 2779.9 1643.7 2760.6 1643.7H2141.6C2122.3 1643.7 2106.7 1628.1 2106.7 1608.8C2106.7 1589.5 2122.3 1573.8 2141.6 1573.8H2760.6C2779.9 1573.8 2795.6 1589.5 2795.6 1608.8Z" fill="#2B4955"/>
<path d="M2762.3 1429C2762.3 1446.5 2748.1 1460.6 2730.7 1460.6H2171.6C2154.1 1460.6 2140 1446.5 2140 1429C2140 1411.6 2154.1 1397.4 2171.6 1397.4H2730.7C2748.1 1397.4 2762.3 1411.6 2762.3 1429Z" fill="#2B4955"/>
<path fill-rule="evenodd" clip-rule="evenodd" d="M2629.1 1436.5H2269.1V1383.4C2269.1 1284 2349.7 1203.4 2449.1 1203.4C2548.5 1203.4 2629.1 1284 2629.1 1383.4V1436.5ZM2519 1325.2C2519 1286.5 2487.7 1255.2 2449.1 1255.2C2410.4 1255.2 2379.2 1286.5 2379.2 1325.2C2379.2 1363.8 2410.4 1395.1 2449.1 1395.1C2487.7 1395.1 2519 1363.8 2519 1325.2Z" fill="#2B4955"/>
<path d="M1952.6 1861.2V1970.1H1843.7V1861.2H1952.6Z" fill="#2B4955"/>
<path d="M3017 1861.2V1970.1H2061.2V1861.2H3017Z" fill="#2B4955"/>
<path d="M1952.6 2068V2176.9H1843.7V2068H1952.6Z" fill="#2B4955"/>
<path d="M2965.2 2068V2176.9H2061.2V2068H2965.2Z" fill="#2B4955"/>
<path d="M1952.6 2274.8V2383.6H1843.7V2274.8H1952.6Z" fill="#2B4955"/>
<path d="M2851.2 2274.8V2383.6H2061.2V2274.8H2851.2Z" fill="#2B4955"/>
<path d="M1952.6 2481.6V2590.4H1843.7V2481.6H1952.6Z" fill="#2B4955"/>
<path d="M2776.1 2481.6V2590.4H2061.2V2481.6H2776.1Z" fill="#2B4955"/>
<path d="M1952.6 2688.4V2797.2H1843.7V2688.4H1952.6Z" fill="#2B4955"/>
<path d="M2988.3 2688.4V2797.2H2061.2V2688.4H2988.3Z" fill="#2B4955"/>
<path d="M1952.6 2895.1V3004H1843.7V2895.1H1952.6Z" fill="#2B4955"/>
<path d="M2988.3 2895.1V3004H2061.2V2895.1H2988.3Z" fill="#2B4955"/>
<path d="M2973.5 3666.8C2745.2 3666.8 2560.6 3482.2 2560.6 3253.9C2560.6 3025.6 2745.2 2841 2973.5 2841C3201.8 2841 3386.4 3025.6 3386.4 3253.9C3386.4 3482.2 3201.8 3666.8 2973.5 3666.8Z" fill="#F99E22"/>
<path d="M2973.5 3579.2C2793.6 3579.2 2648.2 3433.8 2648.2 3253.9C2648.2 3074 2793.6 2928.6 2973.5 2928.6C3153.4 2928.6 3298.8 3074 3298.8 3253.9C3298.8 3433.8 3153.4 3579.2 2973.5 3579.2Z" fill="white"/>
<path d="M2679.5 3268.5C2736.8 3281.9 2789.7 3301.9 2841.8 3323.2C2893.6 3344.9 2943.6 3369.3 2992.3 3395.7L2899.9 3412.3C2909.2 3397.1 2917.6 3384.7 2927 3371.7C2936.1 3358.9 2945.2 3346 2955.2 3334C2974.5 3309.2 2995.2 3285.7 3016.8 3263.1C3027.1 3251.3 3038.9 3240.9 3050 3229.9C3061.2 3219 3072.7 3208.3 3084.8 3198.3C3108.2 3177.4 3133.5 3158.4 3159.1 3140.1C3185.3 3122.4 3211.7 3105.2 3240 3090.6C3253.6 3082.7 3268 3075.9 3282.7 3069.6C3297.2 3063 3311.5 3056.5 3326.6 3051.2C3341.6 3045.8 3357 3041.2 3372 3036.3C3387.1 3031.7 3403.4 3029.4 3418.7 3025.9C3449.4 3018.9 3482.3 3018.2 3513.6 3018.3C3501.2 3028.8 3489.1 3038.9 3476.9 3047.8C3464.5 3056.4 3453.3 3067.2 3441.6 3076.3C3430.1 3085.9 3418.3 3094.2 3407.5 3104.6C3396.3 3114.2 3385.5 3124 3374.3 3133C3363.2 3142.2 3352.9 3152.8 3342 3161.9C3331.1 3171.2 3320.7 3180.9 3310.2 3190.8L3278.8 3219.8C3268.5 3229.6 3258.5 3239.9 3247.9 3249.3C3237.5 3258.8 3227.7 3269.3 3217.5 3279.1C3207 3288.6 3197 3298.7 3187 3308.9L3156.8 3339L3126.8 3369.4L3067.2 3430.8L3009.6 3491.8L2960.7 3543.5L2917.2 3508.4C2874.1 3473.6 2832.3 3436.8 2792.4 3397.4C2752.7 3357.4 2713.9 3316.3 2679.5 3268.5Z" fill="#F99E22"/>
<path d="M1318.3 4774.9C1242.1 4774.9 1180.5 4713.4 1180.5 4637.2C1180.5 4561 1242.1 4499.5 1318.3 4499.5C1394.4 4499.5 1456 4561 1456 4637.2C1456 4713.4 1394.4 4774.9 1318.3 4774.9Z" fill="#15201F"/>
<path d="M1318.3 4724.2C1270.1 4724.2 1231.2 4685.3 1231.2 4637.2C1231.2 4589.1 1270.1 4550.2 1318.3 4550.2C1366.4 4550.2 1405.3 4589.1 1405.3 4637.2C1405.3 4685.3 1366.4 4724.2 1318.3 4724.2Z" fill="#BBBCBB"/>
<path d="M1318.3 4593.1C1311.2 4593.1 1305.4 4587.4 1305.4 4580.3C1305.4 4573.3 1311.2 4567.5 1318.3 4567.5C1325.3 4567.5 1331.1 4573.3 1331.1 4580.3C1331.1 4587.4 1325.3 4593.1 1318.3 4593.1Z" fill="#95929D"/>
<path d="M1318.3 4706.9C1311.2 4706.9 1305.4 4701.2 1305.4 4694.1C1305.4 4687 1311.2 4681.3 1318.3 4681.3C1325.3 4681.3 1331.1 4687 1331.1 4694.1C1331.1 4701.2 1325.3 4706.9 1318.3 4706.9Z" fill="#95929D"/>
<path d="M1375.1 4650C1368 4650 1362.3 4644.3 1362.3 4637.2C1362.3 4630.1 1368 4624.4 1375.1 4624.4C1382.2 4624.4 1387.9 4630.1 1387.9 4637.2C1387.9 4644.3 1382.2 4650 1375.1 4650Z" fill="#95929D"/>
<path d="M1261.4 4650C1254.3 4650 1248.6 4644.3 1248.6 4637.2C1248.6 4630.1 1254.3 4624.4 1261.4 4624.4C1268.5 4624.4 1274.2 4630.1 1274.2 4637.2C1274.2 4644.3 1268.5 4650 1261.4 4650Z" fill="#95929D"/>
<path d="M1360.7 4052.6H1139H1066.8H1066.4L1066.8 4156.8V4609H1139V4608.9H1171.1C1171.1 4608.9 1188.6 4511.6 1318.3 4511.6C1448 4511.6 1473 4643.9 1473 4643.9H1690V4401.9L1360.7 4052.6Z" fill="#FF8902"/>
<path d="M1100.2 4094.9V4249.2H1333.4L1348.4 4268.5H1530.3L1368.7 4095.1L1100.2 4094.9Z" fill="#15201F"/>
<path d="M1236.7 4325.2C1236.7 4334 1229.5 4341.2 1220.7 4341.2H1159.4C1150.5 4341.2 1143.3 4334 1143.3 4325.2C1143.3 4316.3 1150.5 4309.1 1159.4 4309.1H1220.7C1229.5 4309.1 1236.7 4316.3 1236.7 4325.2Z" fill="#161B2A"/>
<path d="M1715.2 4581.9C1715.2 4593.9 1705.6 4603.5 1693.6 4603.5H1600C1588.1 4603.5 1578.4 4593.9 1578.4 4581.9V4532.3C1578.4 4520.4 1588.1 4510.7 1600 4510.7H1693.6C1705.6 4510.7 1715.2 4520.4 1715.2 4532.3V4581.9Z" fill="#FF8902"/>
<path d="M1683.4 4470V4429.6C1683.4 4417.7 1673.7 4408 1661.7 4408H1568.1C1556.2 4408 1546.5 4417.7 1546.5 4429.6V4470C1568.5 4466.2 1591.3 4463.9 1614.9 4463.9C1638.6 4463.9 1661.4 4466.2 1683.4 4470Z" fill="#F1E3EC"/>
<path d="M1568.1 4500.8H1661.7C1673.7 4500.8 1683.4 4491.1 1683.4 4479.2V4470C1661.4 4466.2 1638.6 4463.9 1614.9 4463.9C1591.3 4463.9 1568.5 4466.2 1546.5 4470V4479.2C1546.5 4491.1 1556.2 4500.8 1568.1 4500.8Z" fill="#E7A13E"/>
<path d="M1339.1 4149.3C1339.1 4173.1 1319.8 4192.4 1296 4192.4H1171.1C1147.3 4192.4 1128 4173.1 1128 4149.3C1128 4125.5 1147.3 4106.2 1171.1 4106.2H1296C1319.8 4106.2 1339.1 4125.5 1339.1 4149.3Z" fill="#534A4F"/>
<path d="M1691.5 4538.1C1691.5 4545.2 1685.8 4551 1678.7 4551H1528.9C1521.8 4551 1516 4545.2 1516 4538.1C1516 4531 1521.8 4525.3 1528.9 4525.3H1678.7C1685.8 4525.3 1691.5 4531 1691.5 4538.1Z" fill="#FF8902"/>
<path d="M1483.2 4477.5C1483.2 4483.4 1478.4 4488.2 1472.5 4488.2H1101.6C1095.7 4488.2 1090.9 4483.4 1090.9 4477.5C1090.9 4471.6 1095.7 4466.8 1101.6 4466.8H1472.5C1478.4 4466.8 1483.2 4471.6 1483.2 4477.5Z" fill="#FF8902"/>
<path d="M294.3 4774.9C218.2 4774.9 156.6 4713.4 156.6 4637.2C156.6 4561 218.2 4499.5 294.3 4499.5C370.5 4499.5 432.1 4561 432.1 4637.2C432.1 4713.4 370.5 4774.9 294.3 4774.9Z" fill="#15201F"/>
<path d="M294.3 4724.2C246.2 4724.2 207.3 4685.3 207.3 4637.2C207.3 4589.1 246.2 4550.2 294.3 4550.2C342.5 4550.2 381.4 4589.1 381.4 4637.2C381.4 4685.3 342.5 4724.2 294.3 4724.2Z" fill="#BBBCBB"/>
<path d="M294.3 4593.1C287.3 4593.1 281.5 4587.4 281.5 4580.3C281.5 4573.3 287.3 4567.5 294.3 4567.5C301.4 4567.5 307.2 4573.3 307.2 4580.3C307.2 4587.4 301.4 4593.1 294.3 4593.1Z" fill="#95929D"/>
<path d="M294.3 4706.9C287.3 4706.9 281.5 4701.2 281.5 4694.1C281.5 4687 287.3 4681.3 294.3 4681.3C301.4 4681.3 307.2 4687 307.2 4694.1C307.2 4701.2 301.4 4706.9 294.3 4706.9Z" fill="#95929D"/>
<path d="M351.2 4650C344.1 4650 338.4 4644.3 338.4 4637.2C338.4 4630.1 344.1 4624.4 351.2 4624.4C358.3 4624.4 364 4630.1 364 4637.2C364 4644.3 358.3 4650 351.2 4650Z" fill="#95929D"/>
<path d="M237.5 4650C230.4 4650 224.7 4644.3 224.7 4637.2C224.7 4630.1 230.4 4624.4 237.5 4624.4C244.6 4624.4 250.3 4630.1 250.3 4637.2C250.3 4644.3 244.6 4650 237.5 4650Z" fill="#95929D"/>
<path d="M1054.7 4442.4H53.7V4604.8H72.6999C70.2999 4615.9 68.6 4627.3 67.9 4639H131.8C138.4 4553.2 210.3 4485.5 297.6 4485.5C385 4485.5 456.9 4553.2 463.5 4639H527.4C526.8 4628.1 525.1 4617.4 523.1 4607H1054.7V4442.4Z" fill="#FF8902"/>
<path d="M1054.7 3911.9H971.1C933 4008.6 779.8 4316.9 340.7 4427.1H1054.7V3911.9Z" fill="#F99E22"/>
<path d="M971.1 3911.9H34.6001V4427.1H340.7C779.8 4316.9 933 4008.6 971.1 3911.9Z" fill="#DA7B37"/>
<path d="M3868 4633.6H4279.1L3868 4047.3V4633.6Z" fill="#DB8339"/>
<path d="M3868 4047.3L4279.1 4633.6H4437.2V4038H3868V4047.3Z" fill="#F68E00"/>
<path d="M3896.9 4622.1H3930.5H3934H3938.9V4607.7H3930.5V4613.7H3896.9V4607.7H3888.5V4622.1H3893.9H3896.9Z" fill="#FF8902"/>
<path d="M3904.3 4607.7H3923.1V4579H3931.5L3913.7 4560.6L3895.9 4579H3904.3V4607.7Z" fill="#FF8902"/>
<path d="M4003.1 4578.7V4563.7H3994.4L3991.9 4572.5L3995.5 4573.8L3990.2 4588.6L3993.3 4574.7L3989.3 4574L3991.6 4563.7H3974.4V4578.7C3974.4 4587.4 3979.7 4594.7 3986.5 4596V4619.3H3979.6C3978.8 4619.3 3978.2 4620 3978.2 4620.7C3978.2 4621.5 3978.8 4622.1 3979.6 4622.1H3998C3998.7 4622.1 3999.4 4621.5 3999.4 4620.7C3999.4 4620 3998.7 4619.3 3998 4619.3H3991V4596C3997.8 4594.7 4003.1 4587.4 4003.1 4578.7Z" fill="#FF8902"/>
<path fill-rule="evenodd" clip-rule="evenodd" d="M4091.1 4593.8H4066.2C4066.2 4593.8 4066.2 4615.3 4066.2 4615.4C4066.2 4615.53 4066.2 4615.67 4066.2 4615.8C4066 4618 4064.2 4622.1 4059.1 4622.1C4057.2 4622.1 4055.5 4621.4 4054.2 4620.1C4052 4617.8 4051.6 4614.4 4051.7 4613.5C4051.7 4612.1 4052.9 4611.1 4054.2 4611.2C4055.6 4611.2 4056.6 4612.4 4056.5 4613.7C4056.5 4614.1 4056.8 4615.8 4057.7 4616.7C4058.1 4617.1 4058.5 4617.3 4059.1 4617.3C4061 4617.3 4061.3 4615.8 4061.4 4615.3V4593.8H4036.6C4036.6 4593.8 4037.8 4568.6 4061.4 4567V4565.8C4061.4 4564.4 4062.4 4563.3 4063.8 4563.3C4065.1 4563.3 4066.2 4564.4 4066.2 4565.8V4567C4067.67 4567.13 4069.03 4567.33 4070.3 4567.6C4070.3 4567.6 4070.33 4567.6 4070.4 4567.6C4090 4571.7 4091.1 4593.8 4091.1 4593.8ZM4055.4 4572C4057.7 4570.6 4059.4 4569.9 4059.4 4569.9C4059.4 4569.9 4058.9 4570 4058.1 4570.2C4057.4 4570.4 4056.3 4570.8 4055.1 4571.4C4053.8 4572 4052.5 4572.9 4051.1 4573.9C4050.4 4574.4 4049.7 4575 4049.1 4575.7C4048.8 4576 4048.5 4576.3 4048.1 4576.6C4047.8 4577 4047.5 4577.3 4047.2 4577.7C4046.7 4578.4 4046.1 4579.2 4045.7 4580L4045.3 4580.5C4045.17 4580.7 4045.07 4580.9 4045 4581.1C4044.8 4581.5 4044.6 4581.9 4044.4 4582.3C4044.2 4582.7 4044.03 4583.1 4043.9 4583.5C4043.77 4583.9 4043.63 4584.27 4043.5 4584.6C4043.2 4585.4 4043.1 4586.1 4042.9 4586.8C4042.8 4587.4 4042.7 4588 4042.6 4588.6C4042.6 4589.2 4042.5 4589.6 4042.5 4590C4042.5 4590.8 4042.4 4591.3 4042.4 4591.3C4042.4 4591.3 4042.5 4590.8 4042.7 4590.1C4042.8 4589.7 4042.9 4589.2 4043 4588.7C4043.1 4588.2 4043.4 4587.6 4043.5 4586.9C4043.8 4586.3 4044 4585.6 4044.3 4584.9C4044.43 4584.57 4044.57 4584.2 4044.7 4583.8C4044.9 4583.5 4045.1 4583.1 4045.3 4582.7C4045.43 4582.37 4045.63 4582 4045.9 4581.6C4046.1 4581.27 4046.3 4580.9 4046.5 4580.5C4047 4579.8 4047.5 4579.1 4048.1 4578.4C4048.37 4578 4048.63 4577.67 4048.9 4577.4C4049.23 4577.07 4049.53 4576.73 4049.8 4576.4C4050.4 4575.8 4051.03 4575.23 4051.7 4574.7C4052.3 4574.1 4053 4573.6 4053.6 4573.2C4054.2 4572.73 4054.8 4572.33 4055.4 4572ZM4061.8 4569.9C4061.8 4569.9 4061.5 4570.2 4061.1 4570.6C4060.8 4571.1 4060.2 4571.9 4059.7 4572.8C4059.4 4573.3 4059.1 4573.8 4058.9 4574.4C4058.77 4574.67 4058.63 4574.93 4058.5 4575.2C4058.37 4575.53 4058.23 4575.87 4058.1 4576.2C4057.8 4576.8 4057.6 4577.5 4057.4 4578.1C4057.2 4578.83 4057 4579.53 4056.8 4580.2C4056.6 4580.93 4056.43 4581.63 4056.3 4582.3C4056.17 4583.03 4056.07 4583.73 4056 4584.4C4055.93 4585.07 4055.87 4585.73 4055.8 4586.4C4055.8 4587 4055.8 4587.5 4055.8 4588.1C4055.73 4588.63 4055.73 4589.13 4055.8 4589.6C4055.8 4590 4055.8 4590.37 4055.8 4590.7C4055.8 4591.3 4055.9 4591.7 4055.9 4591.7C4055.9 4591.7 4055.9 4591.3 4056 4590.7C4056.07 4590.43 4056.13 4590.07 4056.2 4589.6C4056.2 4589.13 4056.27 4588.67 4056.4 4588.2C4056.47 4587.6 4056.53 4587 4056.6 4586.4C4056.7 4585.8 4056.9 4585.2 4056.9 4584.5C4057.1 4583.9 4057.2 4583.2 4057.3 4582.5C4057.5 4581.9 4057.7 4581.2 4057.8 4580.5C4058 4579.77 4058.2 4579.1 4058.4 4578.5C4058.6 4577.8 4058.8 4577.1 4059 4576.5C4059.2 4575.9 4059.4 4575.3 4059.6 4574.7C4059.8 4574.1 4060.03 4573.57 4060.3 4573.1C4060.5 4572.6 4060.7 4572.2 4060.8 4571.8C4061 4571.4 4061.17 4571.07 4061.3 4570.8C4061.6 4570.2 4061.8 4569.9 4061.8 4569.9ZM4071.4 4588.1C4071.4 4587.57 4071.37 4587 4071.3 4586.4C4071.23 4585.73 4071.17 4585.07 4071.1 4584.4C4071.03 4583.73 4070.93 4583.03 4070.8 4582.3C4070.67 4581.63 4070.5 4580.93 4070.3 4580.2C4070.1 4579.53 4069.9 4578.83 4069.7 4578.1C4069.5 4577.43 4069.27 4576.8 4069 4576.2C4068.87 4575.87 4068.73 4575.53 4068.6 4575.2C4068.47 4574.93 4068.33 4574.67 4068.2 4574.4C4068 4573.8 4067.7 4573.3 4067.4 4572.8C4066.9 4571.9 4066.4 4571.1 4066 4570.6C4065.6 4570.2 4065.3 4569.9 4065.3 4569.9C4065.3 4569.9 4065.5 4570.2 4065.8 4570.8C4065.93 4571.07 4066.1 4571.4 4066.3 4571.8C4066.43 4572.2 4066.63 4572.63 4066.9 4573.1C4067 4573.6 4067.3 4574.1 4067.5 4574.7C4067.7 4575.3 4067.9 4575.9 4068.1 4576.5C4068.4 4577.1 4068.5 4577.8 4068.7 4578.5C4068.9 4579.1 4069.1 4579.77 4069.3 4580.5C4069.4 4581.2 4069.6 4581.9 4069.8 4582.5C4069.9 4583.2 4070 4583.9 4070.2 4584.5C4070.27 4585.17 4070.37 4585.8 4070.5 4586.4C4070.57 4587 4070.63 4587.6 4070.7 4588.2C4070.8 4588.7 4070.9 4589.2 4071 4589.6C4071 4590.07 4071.03 4590.43 4071.1 4590.7C4071.2 4591.3 4071.2 4591.7 4071.2 4591.7C4071.2 4591.7 4071.3 4591.3 4071.3 4590.7C4071.3 4590.37 4071.33 4590 4071.4 4589.6C4071.4 4589.13 4071.4 4588.63 4071.4 4588.1ZM4084.8 4590.1C4085 4590.8 4085.1 4591.3 4085.1 4591.3C4085.1 4591.3 4085 4590.8 4085 4590C4085 4589.6 4084.9 4589.2 4084.9 4588.6C4084.8 4588 4084.7 4587.4 4084.6 4586.8C4084.4 4586.1 4084.3 4585.4 4084 4584.6C4083.87 4584.27 4083.73 4583.9 4083.6 4583.5C4083.47 4583.1 4083.3 4582.7 4083.1 4582.3C4082.9 4581.9 4082.7 4581.5 4082.5 4581.1C4082.43 4580.9 4082.33 4580.7 4082.2 4580.5L4081.8 4580C4081.33 4579.2 4080.83 4578.43 4080.3 4577.7C4079.97 4577.37 4079.67 4577 4079.4 4576.6C4079 4576.3 4078.7 4576 4078.4 4575.7C4077.73 4575.03 4077.07 4574.43 4076.4 4573.9C4075 4572.9 4073.7 4572 4072.4 4571.4C4071.2 4570.8 4070.1 4570.4 4069.4 4570.2C4068.6 4570 4068.1 4569.9 4068.1 4569.9C4068.1 4569.9 4069.8 4570.6 4072.1 4572C4072.7 4572.33 4073.3 4572.73 4073.9 4573.2C4074.57 4573.6 4075.2 4574.1 4075.8 4574.7C4076.47 4575.23 4077.1 4575.8 4077.7 4576.4C4078 4576.7 4078.3 4577 4078.6 4577.4C4078.87 4577.67 4079.13 4578 4079.4 4578.4C4080 4579.07 4080.53 4579.77 4081 4580.5C4081.2 4580.9 4081.4 4581.27 4081.6 4581.6C4081.87 4582 4082.07 4582.37 4082.2 4582.7C4082.4 4583.1 4082.6 4583.5 4082.8 4583.8C4082.93 4584.2 4083.07 4584.57 4083.2 4584.9C4083.5 4585.6 4083.7 4586.3 4084 4586.9C4084.2 4587.6 4084.4 4588.2 4084.5 4588.7C4084.6 4589.2 4084.7 4589.7 4084.8 4590.1Z" fill="#FF8902"/>
<path d="M4297.9 4562.6V4625.7H4304.7V4562.6V4541.8H4297.9V4562.6Z" fill="#FF8902"/>
<path d="M4343.3 4541.8V4625.7H4339.1V4541.8H4343.3Z" fill="#FF8902"/>
<path d="M4367 4541.8V4625.7H4349.7V4541.8H4367Z" fill="#FF8902"/>
<path d="M4400.3 4541.8V4625.7H4394.6V4541.8H4400.3Z" fill="#FF8902"/>
<path d="M4386.6 4541.8V4625.7H4382.9V4541.8H4386.6Z" fill="#FF8902"/>
<path d="M4412.9 4541.8V4625.7H4405.2V4541.8H4412.9Z" fill="#FF8902"/>
<path d="M4332.5 4541.8V4625.7H4324.2V4541.8H4332.5Z" fill="#FF8902"/>
<path d="M4312.6 4541.8V4625.7H4308.8V4541.8H4312.6Z" fill="#FF8902"/>
<path d="M4319.2 4541.8V4625.7H4315.4V4541.8H4319.2Z" fill="#FF8902"/>
<path d="M4377.6 4541.8V4625.7H4373.9V4541.8H4377.6Z" fill="#FF8902"/>
<path d="M4449.6 3919.5V4039.8H3855.7V3919.5H4449.6Z" fill="#F89F4A"/>
<path d="M4172.7 4821.2H4711.4L4172.7 4420.3V4821.2Z" fill="#DB8339"/>
<path d="M4172.7 4420.3L4711.4 4821.2H4918.6V4408.1H4172.7V4420.3Z" fill="#F78E00"/>
<path d="M4210.5 4806.2H4254.6H4259.2H4265.6V4787.3H4254.6V4795.2H4210.5V4787.3H4199.5V4806.2H4206.6H4210.5Z" fill="#FF8902"/>
<path d="M4220.3 4787.3H4244.9V4749.6H4255.8L4232.6 4725.6L4209.3 4749.6H4220.3V4787.3Z" fill="#FF8902"/>
<path d="M4349.7 4749.3V4729.7H4338.3L4335.1 4741.2L4339.8 4742.9L4332.8 4762.3L4336.9 4744L4331.7 4743.2L4334.6 4729.7H4312.1V4749.3C4312.1 4760.8 4319 4770.3 4328 4772V4802.6H4318.9C4317.9 4802.6 4317.1 4803.4 4317.1 4804.4C4317.1 4805.4 4317.9 4806.2 4318.9 4806.2H4343C4344 4806.2 4344.8 4805.4 4344.8 4804.4C4344.8 4803.4 4344 4802.6 4343 4802.6H4333.9V4772C4342.9 4770.3 4349.7 4760.8 4349.7 4749.3Z" fill="#FF8902"/>
<path fill-rule="evenodd" clip-rule="evenodd" d="M4465.1 4769H4432.5V4797.2C4432.5 4797.27 4432.47 4797.3 4432.4 4797.3C4432.47 4797.5 4432.47 4797.7 4432.4 4797.9C4432.1 4800.8 4429.8 4806.2 4423.1 4806.2C4420.6 4806.2 4418.3 4805.3 4416.6 4803.5C4413.8 4800.5 4413.3 4796.2 4413.4 4794.9C4413.5 4793.1 4415 4791.8 4416.7 4791.8C4418.5 4791.9 4419.8 4793.4 4419.8 4795.2C4419.8 4795.7 4420.1 4798 4421.3 4799.1C4421.8 4799.6 4422.3 4799.8 4423.1 4799.8C4425.6 4799.8 4426 4797.9 4426.1 4797.3C4426.1 4797.3 4426.1 4797.27 4426.1 4797.2V4769H4393.6C4393.6 4769 4395.2 4736.1 4426.1 4734V4732.4C4426.1 4730.6 4427.5 4729.2 4429.3 4729.2C4431 4729.2 4432.5 4730.6 4432.5 4732.4V4734C4434.37 4734.13 4436.13 4734.37 4437.8 4734.7C4437.87 4734.7 4437.93 4734.7 4438 4734.7C4463.6 4740.2 4465.1 4769 4465.1 4769ZM4418.2 4740.5C4421.2 4738.6 4423.5 4737.8 4423.5 4737.8C4423.5 4737.8 4422.9 4737.9 4421.9 4738.2C4420.9 4738.5 4419.5 4739 4417.9 4739.8C4416.2 4740.6 4414.4 4741.7 4412.6 4743C4411.8 4743.7 4410.8 4744.5 4410 4745.3C4409.6 4745.7 4409.2 4746.2 4408.8 4746.6C4408.4 4747.1 4407.9 4747.5 4407.6 4748C4406.8 4748.9 4406.1 4749.9 4405.5 4750.9L4405 4751.7C4404.87 4751.97 4404.73 4752.23 4404.6 4752.5C4404.3 4753 4404.1 4753.5 4403.9 4754C4403.6 4754.5 4403.4 4755 4403.2 4755.6C4403 4756.07 4402.83 4756.57 4402.7 4757.1C4402.3 4758 4402.1 4759 4401.9 4759.9C4401.8 4760.8 4401.6 4761.6 4401.5 4762.3C4401.4 4763 4401.4 4763.6 4401.3 4764.2C4401.3 4765.2 4401.3 4765.8 4401.3 4765.8C4401.3 4765.8 4401.4 4765.2 4401.6 4764.2C4401.7 4763.7 4401.9 4763.1 4402.1 4762.4C4402.2 4761.7 4402.5 4760.9 4402.7 4760.1C4403 4759.3 4403.3 4758.3 4403.7 4757.4C4403.9 4756.93 4404.1 4756.47 4404.3 4756C4404.5 4755.5 4404.7 4755 4405 4754.6C4405.27 4754.07 4405.53 4753.57 4405.8 4753.1C4406.07 4752.63 4406.37 4752.17 4406.7 4751.7C4407.3 4750.7 4408 4749.8 4408.7 4748.9C4409.03 4748.43 4409.4 4748 4409.8 4747.6C4410.2 4747.13 4410.6 4746.7 4411 4746.3C4411.8 4745.5 4412.6 4744.73 4413.4 4744C4414.27 4743.33 4415.1 4742.7 4415.9 4742.1C4416.7 4741.5 4417.47 4740.97 4418.2 4740.5ZM4426.6 4737.8C4426.6 4737.8 4426.3 4738.1 4425.8 4738.8C4425.3 4739.4 4424.6 4740.4 4423.9 4741.6C4423.6 4742.2 4423.2 4742.9 4422.8 4743.7C4422.67 4744.03 4422.5 4744.4 4422.3 4744.8C4422.17 4745.2 4422 4745.6 4421.8 4746C4421.5 4746.8 4421.2 4747.7 4420.9 4748.6C4420.63 4749.47 4420.37 4750.37 4420.1 4751.3C4419.9 4752.23 4419.7 4753.17 4419.5 4754.1C4419.37 4755.03 4419.23 4755.93 4419.1 4756.8C4418.97 4757.67 4418.87 4758.5 4418.8 4759.3C4418.8 4760.1 4418.8 4760.9 4418.7 4761.6C4418.7 4762.33 4418.7 4762.97 4418.7 4763.5C4418.77 4764.1 4418.8 4764.6 4418.8 4765C4418.9 4765.9 4418.9 4766.3 4418.9 4766.3C4418.9 4766.3 4419 4765.9 4419.1 4765.1C4419.17 4764.63 4419.23 4764.13 4419.3 4763.6C4419.37 4763 4419.43 4762.37 4419.5 4761.7C4419.63 4760.97 4419.77 4760.23 4419.9 4759.5C4420.03 4758.7 4420.17 4757.87 4420.3 4757C4420.5 4756.1 4420.7 4755.2 4420.8 4754.3C4421 4753.4 4421.3 4752.6 4421.5 4751.7C4421.7 4750.77 4421.93 4749.87 4422.2 4749C4422.5 4748.1 4422.7 4747.2 4423 4746.4C4423.3 4745.6 4423.5 4744.8 4423.8 4744.1C4424.1 4743.3 4424.4 4742.6 4424.6 4742C4424.9 4741.3 4425.2 4740.7 4425.4 4740.2C4425.67 4739.73 4425.87 4739.3 4426 4738.9C4426.4 4738.2 4426.6 4737.8 4426.6 4737.8ZM4439.2 4761.6C4439.2 4760.9 4439.2 4760.1 4439.1 4759.3C4439.03 4758.5 4438.97 4757.67 4438.9 4756.8C4438.77 4755.93 4438.6 4755.03 4438.4 4754.1C4438.3 4753.2 4438 4752.2 4437.8 4751.3C4437.6 4750.37 4437.33 4749.47 4437 4748.6C4436.8 4747.7 4436.5 4746.8 4436.1 4746C4435.9 4745.6 4435.73 4745.2 4435.6 4744.8C4435.4 4744.4 4435.23 4744.03 4435.1 4743.7C4434.8 4742.9 4434.3 4742.2 4434 4741.6C4433.3 4740.4 4432.6 4739.4 4432.1 4738.8C4431.6 4738.1 4431.3 4737.8 4431.3 4737.8C4431.3 4737.8 4431.5 4738.2 4431.9 4738.9C4432.1 4739.3 4432.3 4739.73 4432.5 4740.2C4432.8 4740.7 4433 4741.3 4433.3 4742C4433.5 4742.6 4433.8 4743.3 4434.1 4744.1C4434.37 4744.83 4434.63 4745.6 4434.9 4746.4C4435.3 4747.2 4435.5 4748.1 4435.7 4749C4435.97 4749.87 4436.23 4750.77 4436.5 4751.7C4436.7 4752.6 4436.9 4753.4 4437.1 4754.3C4437.3 4755.2 4437.5 4756.1 4437.6 4757C4437.73 4757.87 4437.9 4758.7 4438.1 4759.5C4438.17 4760.23 4438.27 4760.97 4438.4 4761.7C4438.47 4762.37 4438.53 4763 4438.6 4763.6C4438.73 4764.13 4438.8 4764.63 4438.8 4765.1C4438.9 4765.9 4439 4766.3 4439 4766.3C4439 4766.3 4439.1 4765.9 4439.1 4765C4439.1 4764.6 4439.13 4764.1 4439.2 4763.5C4439.2 4762.97 4439.2 4762.33 4439.2 4761.6ZM4456.8 4764.2C4457 4765.2 4457.2 4765.8 4457.2 4765.8C4457.2 4765.8 4457.1 4765.2 4457.1 4764.2C4457.1 4763.6 4457 4763 4456.9 4762.3C4456.8 4761.6 4456.7 4760.8 4456.5 4759.9C4456.3 4759 4456.1 4758 4455.8 4757.1C4455.6 4756.57 4455.4 4756.07 4455.2 4755.6C4455 4755.07 4454.8 4754.53 4454.6 4754C4454.3 4753.5 4454.1 4753 4453.8 4752.5C4453.67 4752.23 4453.53 4751.97 4453.4 4751.7L4452.9 4750.9C4452.3 4749.9 4451.63 4748.93 4450.9 4748C4450.5 4747.5 4450.1 4747.1 4449.7 4746.6C4449.3 4746.2 4448.9 4745.7 4448.4 4745.3C4447.6 4744.5 4446.7 4743.7 4445.8 4743C4444 4741.7 4442.2 4740.6 4440.6 4739.8C4439 4739 4437.6 4738.5 4436.6 4738.2C4435.6 4737.9 4435 4737.8 4435 4737.8C4435 4737.8 4437.2 4738.6 4440.2 4740.5C4440.93 4740.97 4441.7 4741.5 4442.5 4742.1C4443.37 4742.7 4444.2 4743.33 4445 4744C4445.87 4744.73 4446.7 4745.5 4447.5 4746.3C4447.9 4746.7 4448.3 4747.1 4448.7 4747.6C4449.03 4748 4449.4 4748.43 4449.8 4748.9C4450.5 4749.8 4451.2 4750.7 4451.8 4751.7C4452.07 4752.17 4452.37 4752.63 4452.7 4753.1C4452.97 4753.57 4453.2 4754.07 4453.4 4754.6C4453.7 4755 4453.9 4755.5 4454.1 4756C4454.37 4756.47 4454.6 4756.93 4454.8 4757.4C4455.1 4758.3 4455.4 4759.3 4455.7 4760.1C4455.9 4760.9 4456.2 4761.7 4456.4 4762.4C4456.5 4763.1 4456.7 4763.7 4456.8 4764.2Z" fill="#FF8902"/>
<path d="M4736.1 4728.2V4810.8H4745V4728.2V4700.9H4736.1V4728.2Z" fill="#FF8902"/>
<path d="M4795.5 4700.9V4810.8H4790.1V4700.9H4795.5Z" fill="#FF8902"/>
<path d="M4826.6 4700.9V4810.8H4804V4700.9H4826.6Z" fill="#FF8902"/>
<path d="M4870.3 4700.9V4810.8H4862.8V4700.9H4870.3Z" fill="#FF8902"/>
<path d="M4852.3 4700.9V4810.8H4847.4V4700.9H4852.3Z" fill="#FF8902"/>
<path d="M4886.8 4700.9V4810.8H4876.7V4700.9H4886.8Z" fill="#FF8902"/>
<path d="M4781.4 4700.9V4810.8H4770.5V4700.9H4781.4Z" fill="#FF8902"/>
<path d="M4755.4 4700.9V4810.8H4750.4V4700.9H4755.4Z" fill="#FF8902"/>
<path d="M4763.9 4700.9V4810.8H4759V4700.9H4763.9Z" fill="#FF8902"/>
<path d="M4840.5 4700.9V4810.8H4835.6V4700.9H4840.5Z" fill="#FF8902"/>
<path d="M4934.8 4252.9V4410.5H4156.5V4252.9H4934.8Z" fill="#F89F4A"/>
<path d="M4965.2 644.1V1134.4H3841.7V644.1H4965.2Z" fill="white"/>
<path d="M3900 667.4V1087.8H3864.6V667.4H3900Z" fill="#2B4955"/>
<path d="M3947.4 667.4V1045.8H3912V667.4H3947.4Z" fill="#2B4955"/>
<path d="M3994.9 667.4V1056.8H3959.5V667.4H3994.9Z" fill="#2B4955"/>
<path d="M4042.3 667.4V1087.8H4006.9V667.4H4042.3Z" fill="#2B4955"/>
<path d="M4089.7 667.4V1045.8H4054.3V667.4H4089.7Z" fill="#2B4955"/>
<path d="M4137.1 667.4V1056.8H4101.7V667.4H4137.1Z" fill="#2B4955"/>
<path d="M4184.6 667.4V1087.8H4149.2V667.4H4184.6Z" fill="#2B4955"/>
<path d="M4232 667.4V1045.8H4196.6V667.4H4232Z" fill="#2B4955"/>
<path d="M4279.4 667.4V1056.8H4244V667.4H4279.4Z" fill="#2B4955"/>
<path d="M4326.8 667.4V1087.8H4291.4V667.4H4326.8Z" fill="#2B4955"/>
<path d="M4374.3 667.4V1045.8H4338.9V667.4H4374.3Z" fill="#2B4955"/>
<path d="M4421.7 667.4V1056.8H4386.3V667.4H4421.7Z" fill="#2B4955"/>
<path d="M4469.1 667.4V1087.8H4433.7V667.4H4469.1Z" fill="#2B4955"/>
<path d="M4516.5 667.4V1045.8H4481.1V667.4H4516.5Z" fill="#2B4955"/>
<path d="M4564 667.4V1056.8H4528.6V667.4H4564Z" fill="#2B4955"/>
<path d="M4611.4 667.4V1087.8H4576V667.4H4611.4Z" fill="#2B4955"/>
<path d="M4658.8 667.4V1045.8H4623.4V667.4H4658.8Z" fill="#2B4955"/>
<path d="M4706.2 667.4V1056.8H4670.8V667.4H4706.2Z" fill="#2B4955"/>
<path d="M4753.7 667.4V1087.8H4718.3V667.4H4753.7Z" fill="#2B4955"/>
<path d="M4801.1 667.4V1045.8H4765.7V667.4H4801.1Z" fill="#2B4955"/>
<path d="M4848.5 667.4V1056.8H4813.1V667.4H4848.5Z" fill="#2B4955"/>
<path d="M4896 667.4V1087.8H4860.6V667.4H4896Z" fill="#2B4955"/>
<path d="M4943.4 667.4V1045.8H4908V667.4H4943.4Z" fill="#2B4955"/>
<path d="M4081.4 1257.9L4106.5 1286.5L4218.9 1187.7L4193.8 1159.2L4081.4 1257.9Z" fill="#116AA7"/>
<path d="M3874 1408.2C3857.8 1422.5 3857.5 1448.5 3873.2 1466.4C3888.9 1484.2 3914.8 1487.2 3930.9 1473L4104.6 1320.3C4120.8 1306.1 4121.1 1280 4105.4 1262.2C4089.7 1244.3 4063.8 1241.3 4047.7 1255.6L3874 1408.2Z" fill="#FF9705"/>
<path fill-rule="evenodd" clip-rule="evenodd" d="M4459.2 1209.3C4378.8 1280 4256.2 1272.2 4185.5 1191.7C4114.8 1111.3 4122.7 988.8 4203.1 918.1C4283.5 847.4 4406 855.2 4476.8 935.7C4547.5 1016.1 4539.6 1138.6 4459.2 1209.3ZM4451.8 957.6C4393.2 891 4291.7 884.5 4225.1 943.1C4158.4 1001.6 4151.9 1103.1 4210.5 1169.8C4269.1 1236.4 4370.6 1242.9 4437.2 1184.3C4503.8 1125.8 4510.3 1024.3 4451.8 957.6Z" fill="#116AA7"/>
<g style="mix-blend-mode:multiply">
<path d="M4225.1 943.1C4158.4 1001.6 4151.9 1103.1 4210.5 1169.8L4451.8 957.6C4393.2 891 4291.7 884.5 4225.1 943.1Z" fill="#C9E8EA"/>
</g>
<g style="mix-blend-mode:multiply">
<path d="M4451.8 957.6L4210.5 1169.8C4269.1 1236.4 4370.6 1242.9 4437.2 1184.3C4503.8 1125.8 4510.3 1024.3 4451.8 957.6Z" fill="#B4D5D6"/>
</g>
<path d="M4209.2 1054.3C4203.6 1054.3 4198.9 1050 4198.6 1044.3C4198.5 1042.3 4196.1 994.8 4233.4 961.9C4285.2 916.2 4344.1 930.6 4346.5 931.2C4352.3 932.7 4355.7 938.5 4354.2 944.3C4352.8 950 4347 953.4 4341.2 952C4339.2 951.5 4290.6 939.9 4247.5 978C4218 1004 4219.9 1042.6 4219.9 1043C4220.3 1048.9 4215.8 1054 4209.9 1054.3C4209.63 1054.3 4209.4 1054.3 4209.2 1054.3Z" fill="white"/>
<path fill-rule="evenodd" clip-rule="evenodd" d="M4330 1229C4238.2 1229 4164 1154.8 4164 1063C4164 971.2 4238.2 896.9 4330 896.9C4421.9 896.9 4496.1 971.2 4496.1 1063C4496.1 1154.8 4421.9 1229 4330 1229ZM4488.3 1063C4488.3 975.5 4417.6 904.7 4330 904.7C4242.5 904.7 4171.7 975.5 4171.7 1063C4171.7 1150.5 4242.5 1221.3 4330 1221.3C4417.6 1221.3 4488.3 1150.5 4488.3 1063Z" fill="#09383C"/>
<path d="M1160.7 903.8V110.2H1067.6V903.8V911.6C1068 911.867 1068.4 912.167 1068.8 912.5C1091.9 932.6 1117.1 966.7 1125.8 1023C1125.93 1024 1126.07 1024.97 1126.2 1025.9H1622.9V903.8H1160.7Z" fill="#3F4D50"/>
<path d="M1067.6 903.8H1064.7V909.2C1065.7 909.933 1066.67 910.733 1067.6 911.6V903.8Z" fill="#3F4D50"/>
<path d="M1067.6 912.5H1068.8C1068.4 912.167 1068 911.867 1067.6 911.6V912.5Z" fill="#3F4D50"/>
<path d="M982.1 822.2L812.3 674.1C804.2 667 789.3 670.6 779.2 682.2L745.3 721.1C735.2 732.7 733.6 747.9 741.7 755L871.4 868.2L982.2 822.3C982.133 822.233 982.1 822.2 982.1 822.2Z" fill="#3F4D50"/>
<path d="M410.6 726.5H588C588 726.5 785.7 738.1 785.7 863.1C785.7 988.1 686.8 912.5 686.8 912.5H492L384.5 851.5L329.3 775.9L410.6 726.5Z" fill="#3F4D50"/>
<path d="M445.5 846.4C445.5 857.2 436.7 866 425.9 866H378C367.1 866 358.3 857.2 358.3 846.4V516.5C358.3 505.6 367.1 496.8 378 496.8H425.9C436.7 496.8 445.5 505.6 445.5 516.5V846.4Z" fill="#3F4D50"/>
<path d="M965.9 868.9C964.4 865.8 822.8 575.3 765 439.6C739.6 379.9 711.2 351.5 691.7 338.2C673.8 325.8 660.6 324.1 657.9 323.8L657.1 323.9L657.7 323.8C657.633 323.8 657.567 323.8 657.5 323.8H359.8C339.1 323.8 324.1 328.7 315.1 338.4C301.8 352.8 302.8 375.5 302.9 377.6L303.1 379.3L303 380.6V729.4H239.2V381.8C238.5 371.4 237.7 328.8 267.6 295.9C289.1 272.1 320.2 260 359.8 260H657.6C663.5 259.9 688.8 261.1 721.1 281.1C762.5 306.9 797 351.8 823.7 414.6C880.9 549 1030.9 860.7 1032.4 863.8L965.9 868.9Z" fill="#FF9E22"/>
<path fill-rule="evenodd" clip-rule="evenodd" d="M417.7 1037C417.7 1052.5 415.4 1067.5 411 1081.7C391.9 1144.1 333.8 1189.6 265.1 1189.6C180.8 1189.6 112.5 1121.3 112.5 1037C112.5 984.4 139 938.1 179.5 910.6C203.9 894.1 233.4 884.4 265.1 884.4C349.4 884.4 417.7 952.7 417.7 1037ZM322 1081.7C331.7 1069.4 337.5 1053.9 337.5 1037C337.5 997 305.1 964.6 265.1 964.6C225.1 964.6 192.7 997 192.7 1037C192.7 1053.9 198.5 1069.4 208.2 1081.7C221.4 1098.5 242 1109.4 265.1 1109.4C288.2 1109.4 308.8 1098.5 322 1081.7Z" fill="#3F4D50"/>
<path fill-rule="evenodd" clip-rule="evenodd" d="M1073 1049.4C1073 1126.8 1010.2 1189.6 932.8 1189.6C861.5 1189.6 802.8 1136.5 793.8 1067.8C793 1061.7 792.5 1055.6 792.5 1049.4C792.5 971.9 855.3 909.2 932.8 909.2C948.6 909.2 963.7 911.8 977.9 916.7C988.3 920.2 998.2 924.9 1007.3 930.7C1043.8 953.6 1069 992.9 1072.5 1038.4C1072.8 1042 1073 1045.7 1073 1049.4ZM987.9 1049.4C987.9 1037.6 984.2 1026.7 977.9 1017.7C967.9 1003.5 951.4 994.2 932.8 994.2C902.3 994.2 877.6 1018.9 877.6 1049.4C877.6 1055.8 878.7 1062 880.7 1067.8C888.3 1089.2 908.7 1104.6 932.8 1104.6C963.2 1104.6 987.9 1079.9 987.9 1049.4Z" fill="#3F4D50"/>
<path d="M454.3 1092.8H747.9L750.8 979.4L814.7 892.2L965.9 851.5H439.7L369.9 709H189.7C189.7 709 137.4 720.7 137.4 892.2L198.4 871.8L262.4 857.3H335.1L401.9 906.7L445.5 1014.3L454.3 1092.8Z" fill="#FF8902"/>
<path d="M143 928C176 893.3 220 874.2 266.8 874.2C313.5 874.2 357.5 893.3 390.6 928C423.6 962.7 441.8 1008.8 441.8 1057.9C441.8 1075.9 439.4 1093.5 434.7 1110.2H468.6C472.5 1093.5 474.6 1075.9 474.6 1057.9C474.6 937.5 381.6 839.9 266.8 839.9C156.6 839.9 66.4999 929.7 59.3999 1043.4H92.1999C95.4999 999.8 113.2 959.3 143 928Z" fill="#FF9E22"/>
<path d="M777.2 983.8C794.8 939.2 828.3 905 871.7 887.4C915 869.8 962.9 871 1006.6 890.7C1050.3 910.4 1084.5 946.3 1102.9 991.8C1109.7 1008.4 1114 1025.6 1115.9 1043L1147.4 1030.2C1144.7 1013.2 1140.1 996.2 1133.3 979.4C1088 867.9 965.1 812.4 858.7 855.5C756.7 896.9 707 1014.1 743.1 1122.1L773.5 1109.7C760.1 1068.1 761.3 1023.9 777.2 983.8Z" fill="#FF9E22"/>
<path d="M680.4 618.8L719.2 573.5C724.7 567 723.9 557.4 717.5 551.9L711.5 546.7C705 541.2 695.4 542 689.9 548.4L600.6 652.7C595.1 659.1 595.9 668.8 602.3 674.3L608.3 679.5C614.8 685 624.4 684.2 629.9 677.8L668.7 632.4L772.2 720.9L783.8 707.3L680.4 618.8Z" fill="#3F4D50"/>
<path d="M854.6 2081.9V1850.1H719.6L681.7 1986.6L736.7 2006.4L654.2 2235.1L702.6 2019.6L641 2009.7L675.8 1850.1H410.5V2081.9C410.5 2217.3 491.8 2329.4 598.1 2349.6V2711.2H490.1C478.1 2711.2 468.5 2720.9 468.5 2732.8C468.5 2744.7 478.1 2754.4 490.1 2754.4H775C787 2754.4 796.6 2744.7 796.6 2732.8C796.6 2720.9 787 2711.2 775 2711.2H667V2349.6C773.3 2329.4 854.6 2217.3 854.6 2081.9Z" fill="black"/>
<path fill-rule="evenodd" clip-rule="evenodd" d="M4638.5 2247.9H4286.6V2551.8C4286.6 2552.3 4286.5 2552.8 4286.5 2553.3C4286.6 2555.3 4286.7 2557.3 4286.5 2559.4C4283 2590.3 4257.6 2648.9 4185.6 2648.9C4158.5 2648.9 4134.4 2638.7 4116.1 2619.5C4085.4 2587.3 4080.4 2540.5 4081 2526.6C4081.9 2507.6 4098.4 2493 4117 2493.9C4136 2494.8 4150.6 2510.9 4149.7 2529.9C4149.6 2535.3 4153.6 2559.8 4166.3 2572.6C4171.6 2577.8 4177.5 2580.2 4185.6 2580.2C4212.2 2580.2 4217.2 2558.9 4218.1 2552.7C4218 2552.4 4218 2552.1 4218 2551.8V2247.9H3867.3C3867.3 2247.9 3884.6 1892.9 4218 1870.1V1852.5C4218 1833.6 4233.3 1818.2 4252.3 1818.2C4271.3 1818.2 4286.6 1833.6 4286.6 1852.5V1870.1C4306.9 1871.4 4325.9 1874.1 4343.9 1877.7C4344.7 1877.9 4345.4 1878 4346.2 1878.2C4622.3 1936.4 4638.5 2247.9 4638.5 2247.9ZM4133.4 1940.2C4165.6 1920.2 4189.6 1910.7 4189.6 1910.7C4189.6 1910.7 4183.2 1911.8 4172.5 1915.1C4161.7 1918.4 4146.5 1923.9 4129.2 1932.5C4111.8 1941.1 4092.2 1952.7 4072.9 1967.6C4063.3 1975.2 4053.5 1983.2 4044.5 1992.3C4039.8 1996.7 4035.5 2001.5 4031 2006.2C4026.8 2011.1 4022.4 2015.9 4018.3 2021C4010.3 2031.3 4002.6 2041.9 3996 2052.9L3991 2061.1C3989.47 2063.9 3987.97 2066.67 3986.5 2069.4C3983.4 2075 3980.9 2080.6 3978.3 2086.1C3975.7 2091.6 3973.4 2097.2 3971.4 2102.7C3969.1 2108.1 3967.3 2113.6 3965.7 2118.9C3962 2129.4 3959.8 2139.8 3957.4 2149.2C3955.8 2158.7 3953.8 2167.4 3953.1 2175.2C3952.3 2183 3951.3 2189.8 3951.2 2195.4C3950.8 2206.6 3950.5 2213 3950.5 2213C3950.5 2213 3951.9 2206.8 3954.2 2195.8C3955.1 2190.4 3957.1 2183.8 3958.8 2176.3C3960.5 2168.8 3963.5 2160.5 3965.9 2151.4C3969.1 2142.5 3972.2 2132.8 3976.4 2122.8C3978.3 2117.7 3980.5 2112.6 3983 2107.6C3985.3 2102.5 3987.6 2097.1 3990.4 2092C3993.1 2086.8 3995.8 2081.5 3999 2076.3C4002 2071.1 4005.1 2065.9 4008.5 2060.7C4014.9 2050.3 4022.4 2040.3 4030.2 2030.6C4034 2025.6 4038.2 2021 4042.2 2016.2C4046.4 2011.7 4050.5 2007 4054.9 2002.7C4063.5 1994 4072.4 1985.6 4081.3 1978C4090.4 1970.6 4099.2 1963.4 4108 1957.2C4116.8 1950.9 4125.4 1945.2 4133.4 1940.2ZM4224 1910.7C4224 1910.7 4220.4 1914.3 4214.9 1921.4C4209.4 1928.4 4202.1 1939 4194.4 1952.3C4190.8 1959 4186.5 1966.2 4183 1974.2C4181.13 1978.2 4179.2 1982.3 4177.2 1986.5C4175.47 1990.77 4173.67 1995.13 4171.8 1999.6C4168.1 2008.5 4165 2017.9 4161.7 2027.4C4158.8 2037.1 4156 2046.9 4153.3 2056.8C4151.1 2066.8 4148.7 2076.7 4146.8 2086.6C4145.1 2096.5 4143.6 2106.3 4142.3 2115.8C4141.2 2125.3 4140.4 2134.6 4139.6 2143.3C4138.9 2152 4138.9 2160.3 4138.7 2168C4138.4 2175.6 4138.3 2182.6 4138.7 2188.8C4139 2195 4139.3 2200.4 4139.5 2204.9C4140 2213.8 4140.4 2218.8 4140.4 2218.8C4140.4 2218.8 4141.3 2213.8 4142.5 2205C4143.1 2200.6 4143.8 2195.2 4144.5 2189.1C4145.1 2183 4146.3 2176.1 4147.4 2168.7C4148.5 2161.2 4149.7 2153.1 4150.9 2144.6C4152.5 2136.1 4154.1 2127.2 4155.6 2117.9C4157.2 2108.6 4159.6 2099.2 4161.3 2089.5C4163.3 2079.9 4165.8 2070.2 4168.1 2060.5C4170.5 2050.8 4173.1 2041.2 4175.8 2031.7C4179 2022.4 4181.1 2012.9 4184.4 2004.2C4187.4 1995.3 4190.3 1986.7 4193.4 1978.7C4196.3 1970.6 4199.6 1963.2 4202.3 1956.1C4205.4 1949.3 4207.9 1942.8 4210.6 1937.3C4213.1 1931.8 4215.5 1927 4217.4 1923C4221.4 1915.1 4224 1910.7 4224 1910.7ZM4359.2 2168C4359 2160.3 4359 2152 4358.3 2143.3C4357.5 2134.6 4356.7 2125.3 4355.6 2115.8C4354.3 2106.3 4352.8 2096.5 4351.1 2086.6C4349.2 2076.7 4346.8 2066.8 4344.6 2056.8C4341.9 2046.9 4339.1 2037.1 4336.2 2027.4C4332.9 2017.9 4329.8 2008.5 4326.1 1999.6C4324.23 1995.13 4322.43 1990.77 4320.7 1986.5C4318.7 1982.3 4316.77 1978.2 4314.9 1974.2C4311.3 1966.2 4307.1 1959 4303.5 1952.3C4295.8 1939 4288.5 1928.4 4283 1921.4C4277.5 1914.3 4273.9 1910.7 4273.9 1910.7C4273.9 1910.7 4276.5 1915.1 4280.5 1923C4282.4 1927 4284.8 1931.8 4287.3 1937.3C4290 1942.8 4292.5 1949.3 4295.6 1956.1C4298.3 1963.2 4301.6 1970.6 4304.5 1978.7C4307.6 1986.7 4310.5 1995.3 4313.5 2004.2C4316.8 2012.9 4318.9 2022.4 4322.1 2031.7C4324.8 2041.2 4327.4 2050.8 4329.8 2060.5C4332.1 2070.2 4334.7 2079.9 4336.6 2089.5C4338.3 2099.2 4340.7 2108.6 4342.3 2117.9C4343.8 2127.2 4345.4 2136.1 4347 2144.6C4348.2 2153.1 4349.4 2161.2 4350.5 2168.7C4351.6 2176.1 4352.8 2183 4353.4 2189.1C4354.2 2195.2 4354.8 2200.6 4355.4 2205C4356.6 2213.8 4357.4 2218.8 4357.4 2218.8C4357.4 2218.8 4357.9 2213.8 4358.4 2204.9C4358.6 2200.4 4358.9 2195 4359.2 2188.8C4359.6 2182.6 4359.5 2175.6 4359.2 2168ZM4549.3 2195.8C4551.6 2206.8 4552.9 2213 4552.9 2213C4552.9 2213 4552.7 2206.6 4552.3 2195.4C4552.2 2189.8 4551.2 2183 4550.3 2175.2C4549.7 2167.4 4547.7 2158.7 4546 2149.2C4543.7 2139.8 4541.5 2129.4 4537.8 2118.9C4536.2 2113.6 4534.3 2108.1 4532.1 2102.7C4530 2097.2 4527.8 2091.6 4525.1 2086.1C4522.6 2080.6 4520 2075 4516.9 2069.4C4515.43 2066.67 4513.97 2063.9 4512.5 2061.1L4507.5 2052.9C4500.8 2041.9 4493.2 2031.3 4485.1 2021C4481.1 2015.9 4476.7 2011.1 4472.4 2006.2C4467.9 2001.5 4463.6 1996.7 4459 1992.3C4449.9 1983.2 4440.1 1975.2 4430.6 1967.6C4411.3 1952.7 4391.7 1941.1 4374.3 1932.5C4356.9 1923.9 4341.7 1918.4 4331 1915.1C4320.2 1911.8 4313.9 1910.7 4313.9 1910.7C4313.9 1910.7 4337.8 1920.2 4370.1 1940.2C4378.1 1945.2 4386.6 1950.9 4395.4 1957.2C4404.2 1963.4 4413.1 1970.6 4422.1 1978C4431.1 1985.6 4439.9 1994 4448.5 2002.7C4453 2007 4457 2011.7 4461.3 2016.2C4465.3 2021 4469.4 2025.6 4473.2 2030.6C4481 2040.3 4488.5 2050.3 4495 2060.7C4498.3 2065.9 4501.5 2071.1 4504.5 2076.3C4507.6 2081.5 4510.3 2086.8 4513 2092C4515.8 2097.1 4518.1 2102.5 4520.5 2107.6C4523 2112.6 4525.1 2117.7 4527.1 2122.8C4531.2 2132.8 4534.3 2142.5 4537.5 2151.4C4540 2160.5 4543 2168.8 4544.6 2176.3C4546.3 2183.8 4548.3 2190.4 4549.3 2195.8Z" fill="#010101"/>
<path fill-rule="evenodd" clip-rule="evenodd" d="M4387.4 1818.1C4394.5 1803.6 4403.8 1789.9 4411.3 1775.4C4413.9 1771.1 4416.7 1766.8 4419.5 1762.6C4422 1766.6 4424.6 1770.7 4426.8 1774.6C4434.6 1788.5 4442.7 1801.9 4450.4 1815.6C4455.2 1828.7 4451.3 1843.4 4442.3 1853.8C4435.9 1857.3 4429.1 1861.1 4421.6 1861.4C4412.9 1862.2 4404.7 1858.8 4397.5 1854.3C4388 1844.9 4384 1831 4387.4 1818.1ZM4394.3 1827.6C4394.9 1834.6 4396.1 1842.3 4402 1847C4406.9 1852.6 4414.5 1853.8 4421.4 1853.9C4421.6 1852.6 4421.8 1849.8 4421.8 1848.3C4417.1 1847 4411.8 1846.1 4407.9 1843.1C4402.8 1838.5 4401.7 1831.6 4399.2 1825.6C4398.1 1825.9 4395.5 1827 4394.3 1827.6Z" fill="#010101"/>
<path fill-rule="evenodd" clip-rule="evenodd" d="M4019.1 1849.7C4026.2 1835.3 4035.5 1821.6 4043 1807.1C4045.6 1802.8 4048.4 1798.5 4051.3 1794.3C4053.6 1798.2 4056.3 1802.4 4058.6 1806.4C4066.2 1820.3 4074.3 1833.6 4082 1847.3C4086.9 1860.4 4083 1875.1 4074 1885.5C4067.6 1889 4060.8 1892.8 4053.3 1893.1C4044.6 1893.9 4036.4 1890.5 4029.2 1886C4019.7 1876.6 4015.7 1862.7 4019.1 1849.7ZM4026.1 1859.3C4026.6 1866.3 4027.7 1874 4033.7 1878.7C4038.6 1884.3 4046.2 1885.5 4053.1 1885.6C4053.3 1884.3 4053.5 1881.5 4053.5 1880C4048.8 1878.7 4043.5 1877.8 4039.6 1874.8C4034.5 1870.2 4033.4 1863.3 4030.9 1857.3C4029.8 1857.7 4027.2 1858.8 4026.1 1859.3Z" fill="#010101"/>
<path fill-rule="evenodd" clip-rule="evenodd" d="M4482.3 1881.4C4489.4 1866.9 4498.6 1853.2 4506.2 1838.7C4508.8 1834.4 4511.6 1830.1 4514.4 1826C4516.9 1829.9 4519.5 1834.1 4521.7 1838C4529.5 1851.9 4537.5 1865.3 4545.2 1879C4550.1 1892.2 4546.2 1906.8 4537.1 1917.1C4530.8 1920.7 4524 1924.5 4516.5 1924.8C4507.8 1925.6 4499.6 1922.2 4492.4 1917.7C4482.9 1908.3 4478.9 1894.4 4482.3 1881.4ZM4489.2 1891C4489.8 1898 4490.9 1905.7 4496.9 1910.4C4501.8 1916 4509.4 1917.1 4516.3 1917.3C4516.5 1916 4516.7 1913.2 4516.7 1911.7C4512 1910.4 4506.7 1909.4 4502.8 1906.5C4497.7 1901.9 4496.6 1894.9 4494.1 1889C4493 1889.3 4490.3 1890.5 4489.2 1891Z" fill="#010101"/>
<path fill-rule="evenodd" clip-rule="evenodd" d="M2845.8 4216.7C2826.5 4275.7 2795.7 4328.4 2760.6 4378.3C2748.8 4395.1 2736.5 4411.6 2724 4427.9C2722.8 4429.43 2721.6 4431 2720.4 4432.6C2719.73 4433.47 2719.03 4434.33 2718.3 4435.2C2713.17 4441.87 2708.03 4448.5 2702.9 4455.1C2698.7 4460.5 2694.5 4465.87 2690.3 4471.2C2675.5 4490 2660.8 4508.7 2646.6 4527.6H2640.6C2634.1 4519.3 2627.6 4511 2621 4502.6C2618.1 4498.9 2615.1 4495.1 2612.2 4491.4C2607 4484.87 2601.8 4478.3 2596.6 4471.7C2585.3 4457.4 2574 4443.1 2562.9 4428.6C2550.3 4412.1 2537.9 4395.5 2526.1 4378.5C2514.9 4362.4 2504.1 4346 2493.9 4329.3C2493.37 4328.43 2492.83 4327.57 2492.3 4326.7C2487.1 4317.9 2482.1 4309.1 2477.3 4300.1C2476.83 4299.3 2476.4 4298.5 2476 4297.7C2473.53 4293.17 2471.17 4288.6 2468.9 4284C2468.83 4284 2468.8 4284 2468.8 4284C2463.7 4273.6 2458.8 4263.1 2454.3 4252.4C2454.3 4252.4 2454.3 4252.37 2454.3 4252.3C2450.3 4242.9 2446.6 4233.4 2443.2 4223.7C2406.8 4105.9 2509.8 3979.5 2629.3 3973.5H2657C2773.9 3979.5 2875.2 4099.9 2845.8 4216.7ZM2551.2 4176.4C2551.2 4224.2 2590 4263 2637.9 4263C2639.7 4263 2641.5 4262.9 2643.3 4262.8C2688.7 4260 2724.5 4222.4 2724.5 4176.4C2724.5 4130.3 2688.7 4092.7 2643.3 4089.9C2641.5 4089.77 2639.7 4089.7 2637.9 4089.7C2590 4089.7 2551.2 4128.5 2551.2 4176.4Z" fill="black"/>
<path d="M2457.5 4285.3L2446.9 4290.1L2446.8 4305.4L2434.4 4302.8L2432.9 4294.3L2445.6 4284.1L2423.9 4281.8L2417.5 4283.3L2414.4 4290.5L2422.4 4292.3L2420.4 4300.4L2406.5 4300.5L2403.9 4305.7L2383.8 4305.2C2383.8 4305.2 2383.9 4293.8 2383.1 4293.7C2382.2 4293.6 2398.9 4294.3 2398.9 4294.3L2411.5 4283.3L2405.1 4279.6L2396 4287.6L2381.6 4286L2378.2 4280.7C2369.87 4283.83 2361.7 4287.33 2353.7 4291.2L2353.9 4292.1L2349.1 4296.2L2368.6 4297.8L2371.2 4305L2349.2 4303L2348.4 4297.5L2343.8 4296.2C2282.7 4328.5 2233.6 4380.8 2205.3 4444.2L2206.7 4445L2205.3 4470.9L2217.1 4493.9L2227.7 4496.1L2229.4 4488.5L2218 4468.5L2216.6 4449.6L2223.9 4450L2226 4469.5L2242.6 4496.9L2237.5 4505.2L2248 4523.5L2276.2 4532.1L2276.4 4527.5L2287.8 4529.8L2286.2 4537.9L2295.1 4540L2308.8 4544.6L2327.1 4568L2352.1 4571.3L2353.4 4591.8L2335.6 4602.8L2333.8 4621L2330.7 4632.1L2353.7 4664.5L2355.1 4675.2C2355.1 4675.2 2363.9 4678.1 2365 4678.2C2366.1 4678.2 2384.3 4693.7 2384.3 4693.7L2381.2 4749.8L2387.9 4752.1L2381.8 4777.7L2392.4 4793.6L2388.9 4819.1L2402.5 4846.5L2421 4864.5L2440.5 4866L2442.7 4859.8L2429 4846.9L2430.2 4841L2433.2 4833.8L2434.2 4826.3L2424.5 4825.5L2419.9 4819.1L2428.4 4811.8L2429.8 4806L2421 4802.9L2421.8 4797.5L2434.7 4796.3L2454.7 4788L2461.9 4776.4L2478.8 4757.1L2483.8 4751.4L2480.3 4730.8V4730.7L2487.1 4720.2L2505.9 4721.8L2519.1 4712.5L2525.4 4673.3L2540.4 4656.3L2543.5 4645L2530.9 4640.1L2523.2 4625.8L2494.4 4624L2486.4 4620.4L2472 4614L2471.8 4597.6L2465 4583.8L2444.3 4582.4L2433.4 4562.9L2423 4557.2L2422.2 4562.9H2402.8L2396.3 4552.7L2376.3 4547.5L2358.7 4565.8L2332.8 4559.9L2332.5 4530.3L2313.6 4526L2322.1 4512L2320.3 4503.6L2294.4 4518.9L2278.7 4516.1L2273.8 4503.5L2277.9 4491L2287.5 4475.5L2308.1 4466.4L2346.7 4468.6L2345.9 4480.4L2359.5 4487.6V4467.4L2370 4457.9L2391 4445.7L2392.9 4436.5L2414.2 4416.6L2436.3 4406L2434.4 4404.3L2449.7 4391.4L2454.9 4393.1L2457.2 4396.4L2463.1 4390.6L2464.4 4390L2458.5 4388.8L2452.4 4386.5L2452.8 4380.6L2456.2 4378.1L2463.3 4378.5L2466.5 4380.1L2469 4386L2472.5 4385.6L2472.6 4385.1L2473.6 4385.5L2483.7 4384.5L2485.4 4379.7L2491 4381.5L2490.7 4386.8L2485.2 4390.1L2485.6 4396L2498.6 4400.8L2503.6 4402.6C2503.6 4402.6 2503.6 4402.7 2503.6 4402.9L2507.8 4402.7L2508.5 4394.8L2499.2 4390L2499.7 4382L2506 4380.2L2507.1 4369.8C2506.63 4369.13 2506.2 4368.47 2505.8 4367.8L2500.6 4364.3L2500.9 4360.4C2483.8 4334.4 2469.4 4309.6 2457.5 4285.3Z" fill="black"/>
<path d="M2721.3 4449C2720.63 4449.87 2719.97 4450.7 2719.3 4451.5L2721.6 4455.1L2728.6 4457.1L2737.1 4454.1L2737.6 4444.1L2741.3 4442.4L2738.5 4439.1L2732.1 4435C2730.37 4437.27 2728.63 4439.5 2726.9 4441.7L2732.4 4445.8L2729.1 4449.9L2721.3 4449Z" fill="black"/>
<path d="M2740.1 4424.6L2748.3 4432.5L2748.1 4445.3L2760 4459.4L2765.8 4441.2L2769.1 4439.7C2776.5 4455.6 2782.6 4472.3 2787.3 4489.6L2780.1 4489.2L2764.8 4476.5L2748 4477.2L2747.4 4487.4L2742.1 4487.1L2736.6 4482.7L2708.1 4473.8L2708.5 4465.4C2705.2 4469.6 2701.9 4473.8 2698.7 4477.9C2684.4 4496.1 2669.5 4515 2655.2 4534.1L2652 4538.3H2646.6H2643.3H2640.6H2635.3L2632.1 4534.2C2622.6 4521.9 2612.7 4509.4 2603.1 4497.2L2581.8 4510.8L2584.2 4522.2L2591.5 4522.6L2589 4533.1L2583.7 4534.7L2581.9 4562.5L2611.2 4599.8L2624.8 4600.6L2625.8 4598.5L2650.3 4599.8L2657.7 4593.7L2671.6 4594.5L2678.8 4602.5L2699.4 4605.8L2695.1 4633.2L2715.9 4675L2702.4 4697.5L2702.7 4708.4L2711.7 4718.5L2710.2 4744.7L2721.8 4762.2L2721.1 4774.1C2664.4 4838.8 2581.1 4879.7 2488.2 4879.7C2317.3 4879.7 2178.6 4741.1 2178.6 4570.1C2178.6 4413 2295.6 4283.3 2447.2 4263.2C2445.8 4260 2444.47 4256.83 2443.2 4253.7C2374.9 4263.3 2311.9 4294.5 2262.3 4344.1C2201.9 4404.5 2168.7 4484.7 2168.7 4570.1C2168.7 4655.5 2201.9 4735.7 2262.3 4796C2322.6 4856.4 2402.9 4889.6 2488.2 4889.6C2573.6 4889.6 2653.9 4856.4 2714.2 4796C2774.6 4735.7 2807.8 4655.5 2807.8 4570.1C2807.8 4508.8 2790.6 4450.1 2758.6 4399.5C2752.8 4407.5 2746.7 4415.8 2740.1 4424.6Z" fill="black"/>
<path d="M2244.6 898.5V898.4C2240.9 892.9 2235.4 889 2229.1 887.5C2226.97 886.967 2224.8 886.7 2222.6 886.7C2220.6 886.7 2218.6 887 2216.6 887.5C2213.6 888.2 2210.7 889.4 2208 891.1L2096.9 965.1C2089.5 970 2085.1 978.2 2085.1 987.1C2085.1 992.3 2086.7 997.3 2089.6 1001.7C2094.5 1009.1 2102.7 1013.4 2111.5 1013.4C2116.7 1013.4 2121.8 1011.9 2126.1 1009L2237.3 935C2244.6 930.1 2249 921.9 2249 913.1C2249 907.8 2247.5 902.8 2244.6 898.5Z" fill="black"/>
<path d="M2305.9 308H2277.9V760.6L2305.9 740.8V308Z" fill="black"/>
<path d="M2400.2 503.8C2419.8 488.4 2441.8 476.4 2465.1 468.2V308H2349.2V560.7C2362.6 539.1 2379.8 520 2400.2 503.8Z" fill="black"/>
<path d="M2399.1 887.5H2455.8C2444.27 882.9 2433.2 877.367 2422.6 870.9L2399.1 887.5Z" fill="black"/>
<path d="M2651.1 873.5V887.5H2689.2V845.9C2685.3 849.4 2681.3 852.8 2677.1 856.1C2668.9 862.5 2660.2 868.3 2651.1 873.5Z" fill="black"/>
<path d="M2689.2 308H2651.1V485.6C2664.7 493.5 2677.5 502.7 2689.2 513.3V308Z" fill="black"/>
<path d="M2597.1 463.2V308H2572.2V458C2578.2 458.9 2584.3 460.1 2590.3 461.5C2592.6 462 2594.8 462.6 2597.1 463.2Z" fill="black"/>
<path d="M2722.4 308V550.8C2748.8 588.4 2763.2 633.6 2763.2 679.4C2763.2 696.2 2761.3 713 2757.6 729.3V729.6L2757.1 731.4C2750.5 759.1 2738.6 785.2 2722.4 808.3V887.5H2774.3V308H2722.4Z" fill="black"/>
<path d="M2233.2 308H2177.3V831.8L2233.2 792.2V308Z" fill="black"/>
<path d="M2099.7 886.6V308H2074.1V887.5H2098.6L2099.7 886.6Z" fill="black"/>
<path d="M2046.4 308V887.5H2000.9V308H2046.4Z" fill="black"/>
<path d="M2143.7 308H2118.2V873.6L2143.7 855.5V308Z" fill="black"/>
<path d="M2536.5 308H2511.6V457.3C2519.87 456.233 2528.17 455.633 2536.5 455.5V308Z" fill="black"/>
<path fill-rule="evenodd" clip-rule="evenodd" d="M2722.4 779.5C2713.3 796.1 2702.1 811.3 2689.2 824.6C2677.7 836.5 2664.9 846.9 2651.1 855.6C2634.4 866.3 2616.2 874.5 2597.1 880.1C2588.97 882.433 2580.67 884.3 2572.2 885.7C2561.4 887.4 2550.5 888.3 2539.4 888.3H2539.3C2533.17 888.3 2527 888.033 2520.8 887.5C2517.73 887.233 2514.67 886.867 2511.6 886.4C2504.9 885.5 2498.2 884.3 2491.5 882.8C2482.4 880.6 2473.6 877.9 2465.1 874.7C2451 869.3 2437.7 862.5 2425.4 854.5L2422.1 852.4L2372.6 887.5L2329.1 918.2L2320 924.6L2145 1048.4V1048.3L2135.9 1054.8C2124.6 1062.8 2111.3 1066.8 2098.4 1066.8H2098.3H2098.2C2077.9 1066.8 2057.7 1057.1 2045 1039.3L2037.8 1029.2C2030 1018.2 2026.1 1005.4 2025.8 992.8L2026 992.3L2025.7 990.9C2025.9 970.7 2035.6 950.7 2053.4 938.2L2125.1 887.5L2143.7 874.3L2177.3 850.6L2233.2 811L2258.7 792.9L2269.2 785.5L2277.9 779.3L2305.9 759.6L2338.4 736.5L2337.4 732.7C2332.8 715.6 2330.5 697.9 2330.5 679.7C2330.5 663.9 2332.3 647.9 2336 632C2339.2 618.4 2343.7 605.5 2349.2 593.3C2372.3 542.3 2414.6 503.7 2465.1 484.5C2480 478.8 2495.6 474.8 2511.6 472.7C2519.8 471.567 2528.1 470.967 2536.5 470.9C2536.77 470.9 2537.03 470.867 2537.3 470.8V470.9C2537.4 470.9 2539.1 470.9 2539.2 470.9C2540.2 470.9 2541.17 470.9 2542.1 470.9C2543.1 470.9 2544.07 470.9 2545 470.9C2546.07 470.967 2547.1 471.033 2548.1 471.1C2549.03 471.1 2550 471.133 2551 471.2C2552 471.3 2553.1 471.3 2554.2 471.4C2555.1 471.5 2556 471.5 2556.9 471.6C2558.03 471.733 2559.2 471.867 2560.4 472C2561.2 472 2562 472.1 2562.9 472.2C2564.2 472.4 2565.4 472.5 2566.7 472.7C2567.5 472.8 2568.2 472.9 2568.8 473C2569.93 473.133 2571.07 473.3 2572.2 473.5C2572.47 473.567 2572.73 473.6 2573 473.6C2573.6 473.733 2574.2 473.833 2574.8 473.9C2576.5 474.2 2578.1 474.6 2579.8 474.9C2580.13 474.967 2580.47 475.033 2580.8 475.1C2582.8 475.5 2584.8 475.933 2586.8 476.4C2590.3 477.2 2593.7 478.1 2597.1 479.1C2616.6 484.8 2634.7 493 2651.1 503.4C2665.1 512.3 2677.9 522.8 2689.2 534.5C2702.3 548.1 2713.5 563.3 2722.4 579.7C2738.8 609.8 2747.9 643.9 2747.9 679.4C2747.9 695.2 2746.1 711.2 2742.4 727.1L2742.2 727.8C2737.8 746.3 2731.1 763.6 2722.4 779.5ZM2264.4 913.1C2264.4 905.1 2262.1 897.1 2257.3 890C2251.5 881.1 2242.7 875.2 2233.2 872.7C2229.73 871.833 2226.2 871.4 2222.6 871.4C2214.7 871.4 2206.6 873.7 2199.5 878.4L2185.9 887.5L2088.4 952.4C2076.3 960.4 2069.8 973.6 2069.8 987.1C2069.8 995 2072.1 1003.1 2076.8 1010.2C2084.8 1022.2 2098.1 1028.7 2111.5 1028.7C2119.5 1028.7 2127.6 1026.5 2134.6 1021.8L2245.8 947.8C2257.8 939.7 2264.4 926.5 2264.4 913.1ZM2680.6 674.8C2680.6 642.7 2669.6 613.1 2651.1 589.7C2637 571.7 2618.4 557.3 2597.1 548.1C2589.1 544.7 2580.8 542.067 2572.2 540.2C2562.7 538.1 2552.8 537 2542.7 537C2540.63 537 2538.57 537.033 2536.5 537.1C2528 537.5 2519.6 538.7 2511.6 540.6C2494.7 544.5 2479 551.5 2465.1 561C2428.8 585.8 2405 627.5 2404.9 674.8C2405 722.1 2428.8 763.8 2465.1 788.6C2479 798.1 2494.7 805.1 2511.6 809C2519.6 810.9 2528 812 2536.5 812.4C2538.57 812.533 2540.63 812.6 2542.7 812.6C2552.8 812.6 2562.7 811.5 2572.2 809.4C2580.8 807.533 2589.1 804.9 2597.1 801.5C2618.4 792.3 2637 777.9 2651.1 759.9C2669.6 736.5 2680.6 706.9 2680.6 674.8Z" fill="black"/>
</svg>
