<svg width="4000" height="3744" viewBox="0 0 4000 3744" fill="none" xmlns="http://www.w3.org/2000/svg">
<g opacity="0.1">
<path d="M3474.8 2646.7C3505.3 2664.3 3505.4 2693.1 3475.1 2710.7L3243.9 2845.1C3213.6 2862.7 3163.9 2862.7 3133.4 2845.1L1113.2 1689.9C1082.7 1672.3 1082.5 1643.5 1112.8 1625.9L1344.1 1491.6C1374.4 1473.9 1424.1 1473.9 1454.6 1491.5L3474.8 2646.7Z" fill="black"/>
</g>
<path d="M1134.3 1677.9L1135 1447.6C1134.9 1458.9 1142.4 1470.2 1157.2 1478.7L1156.5 1709.1C1141.7 1700.5 1134.3 1689.2 1134.3 1677.9Z" fill="#F4F5F5"/>
<path d="M3462.5 2434.9L3461.9 2665.2C3461.8 2676.3 3454.5 2687.5 3440 2696L3440.6 2465.6C3455.2 2457.2 3462.5 2446 3462.5 2434.9Z" fill="#E3E2E2"/>
<path d="M3440.6 2465.6L3440 2696L3216.4 2825.9L3217 2595.5L3440.6 2465.6Z" fill="#E3E2E2"/>
<path d="M3110.2 2595.5L3109.6 2825.9L1156.5 1709.1L1157.2 1478.7L3110.2 2595.5Z" fill="#F4F5F5"/>
<path d="M3217 2595.5L3216.4 2825.9C3187.1 2842.9 3139.1 2842.9 3109.6 2825.9L3110.2 2595.5C3139.7 2612.6 3187.8 2612.6 3217 2595.5Z" fill="#E3E2E2"/>
<path d="M3440.3 2403.7C3469.8 2420.7 3469.9 2448.6 3440.6 2465.6L3217 2595.5C3187.8 2612.6 3139.7 2612.6 3110.2 2595.5L1157.2 1478.7C1127.7 1461.7 1127.6 1433.9 1156.8 1416.9L1380.4 1287C1409.7 1269.9 1457.8 1269.9 1487.3 1286.9L3440.3 2403.7Z" fill="white"/>
<path d="M1543.6 863.6L1769.1 732.6C1939.3 633.7 2175 647.6 2435.1 797.8L2209.6 928.8C1949.5 778.6 1713.8 764.7 1543.6 863.6Z" fill="#E5E5E4"/>
<path d="M2209.6 928.8L2435.1 797.8C2952.1 1096.2 3369.8 1819.8 3368.1 2413.7L3142.6 2544.8C3144.3 1950.8 2726.6 1227.3 2209.6 928.8Z" fill="#E5E5E4"/>
<path d="M2209.6 928.8C2726.6 1227.3 3144.3 1950.8 3142.6 2544.8L2428.2 2132.3L2295.4 2055.7L2247.3 2027.9L2188.3 1993.8L2117.8 1953.1L1985 1876.5L1270.6 1464C1272.3 870 1692.7 630.4 2209.6 928.8Z" fill="#61B3DB"/>
<path fill-rule="evenodd" clip-rule="evenodd" d="M3142.6 2544.8L2428.2 2132.3C2428.4 2053.3 2397.3 1964.6 2348.2 1889.5L2585.5 1557.7C2588.6 1553.2 2584 1544.7 2579.3 1542C2577.2 1540.8 2575.1 1540.6 2573.6 1542.4L2313.4 1842.2C2281.9 1804.1 2245.8 1772 2207.3 1749.7C2084.9 1679.1 1985.4 1735.8 1985 1876.4L1270.6 1464C1272.3 870 1692.7 630.4 2209.6 928.8C2726.6 1227.3 3144.3 1950.8 3142.6 2544.8ZM1525.4 1236.2L1466.3 1164.8C1417.9 1251.1 1388.9 1361.4 1384.1 1492.9L1451.3 1538.5C1455.2 1417.6 1481.5 1315.9 1525.4 1236.2ZM2930 1967C2866.2 1795.6 2774.9 1628.2 2664.6 1479.8L2629.7 1526.3C2729.8 1661.6 2812.8 1814.1 2870.8 1970L2930 1967ZM1792.4 1039.1L1757.9 952.6C1645.8 972.3 1552.6 1033.4 1487.2 1130.7L1546.3 1202.1C1605.8 1113.5 1690.5 1057.6 1792.4 1039.1ZM2186.4 1123.3L2186.6 1045.8C2044.8 968.4 1911.8 937.2 1796.4 947.5L1830.9 1034C1936.1 1024.8 2057.2 1053.1 2186.4 1123.3ZM2626.4 1430.1C2510.2 1284.1 2375.7 1159.4 2231.8 1071.9L2231.6 1149.4C2362.8 1229.6 2485.5 1343.4 2591.5 1476.6L2626.4 1430.1ZM3029.3 2444.5C3025.5 2308.7 2997.7 2166.2 2950.5 2025.1L2891.2 2028.2C2934 2157.6 2959.1 2288.2 2962.1 2412.5L3029.3 2444.5Z" fill="white"/>
<path d="M1466.3 1164.8C1417.9 1251.1 1388.8 1361.4 1384.1 1492.9L1451.3 1538.5C1455.2 1417.5 1481.5 1315.9 1525.4 1236.2L1466.3 1164.8Z" fill="#B8D668"/>
<path d="M1757.9 952.5C1645.8 972.2 1552.6 1033.3 1487.3 1130.7L1546.3 1202C1605.9 1113.4 1690.6 1057.6 1792.4 1039L1757.9 952.5Z" fill="#DEE687"/>
<path d="M2186.6 1045.7C2044.8 968.3 1911.8 937.2 1796.5 947.4L1830.9 1033.9C1936.1 1024.7 2057.2 1053 2186.4 1123.2L2186.6 1045.7Z" fill="#FDC872"/>
<path d="M2231.8 1071.8L2231.6 1149.3C2362.8 1229.5 2485.5 1343.3 2591.5 1476.5L2626.4 1430C2510.2 1284 2375.7 1159.4 2231.8 1071.8Z" fill="#F79850"/>
<path d="M2664.6 1479.7L2629.7 1526.3C2729.8 1661.6 2812.7 1814.1 2870.8 1970L2930 1967C2866.2 1795.6 2774.9 1628.2 2664.6 1479.7Z" fill="#EF5E80"/>
<path d="M2950.5 2025.1L2891.2 2028.2C2933.9 2157.6 2959 2288.2 2962 2412.5L3029.3 2444.5C3025.4 2308.7 2997.6 2166.2 2950.5 2025.1Z" fill="#ED204C"/>
<path d="M2207.3 1749.7C2084.9 1679.1 1985.4 1735.8 1985 1876.4L2428.2 2132.3C2428.4 2053.3 2397.3 1964.6 2348.2 1889.5L2278.9 1986.4C2289.3 2009.3 2295.4 2033.4 2295.4 2055.7L2247.3 2027.9L2188.3 1993.8L2117.8 1953.1C2117.9 1896.7 2157.8 1874 2206.9 1902.3C2218.2 1908.9 2229.1 1917.6 2239.1 1927.8L2313.4 1842.2C2281.9 1804.1 2245.8 1772 2207.3 1749.7Z" fill="#EAEAE9"/>
<path d="M2579.3 1542C2577.2 1540.8 2575.1 1540.6 2573.6 1542.4L2313.4 1842.2L2239.1 1927.8C2255.2 1944.4 2269 1964.8 2278.9 1986.4L2348.2 1889.5L2585.5 1557.7C2588.6 1553.2 2584 1544.7 2579.3 1542Z" fill="#FF9E22"/>
<path d="M2206.9 1902.3C2157.8 1874 2117.9 1896.7 2117.8 1953.1L2188.3 1993.8L2247.3 2027.9L2295.4 2055.7C2295.4 2033.4 2289.3 2009.3 2278.9 1986.4C2269 1964.8 2255.2 1944.4 2239.1 1927.8C2229.1 1917.6 2218.2 1908.9 2206.9 1902.3Z" fill="#F79850"/>
<path d="M1168.6 1185.2L1207.6 1162.5L1235.1 1179.1L1196.1 1201.8L1168.6 1185.2Z" fill="#F79850"/>
<path d="M1196.1 1201.8L1235.1 1179.1C1234.9 1187.9 1234.8 1196.77 1234.8 1205.7C1234.8 1217.6 1234.8 1227.6 1235.1 1237.1L1196 1259.7C1195.8 1250.3 1195.7 1240.3 1195.8 1228.4C1195.8 1219.47 1195.9 1210.6 1196.1 1201.8Z" fill="#FFD9A9"/>
<path d="M1168.6 1185.2L1196.1 1201.8C1195.9 1210.6 1195.8 1219.47 1195.8 1228.4C1195.7 1240.3 1195.8 1250.3 1196 1259.7L1168.5 1244.7C1168.3 1235 1168.2 1224.7 1168.2 1212.5C1168.3 1203.3 1168.4 1194.3 1168.6 1185.2Z" fill="#FF9E22"/>
<path d="M3085.9 1286.6L3124.9 1263.9C3151.6 1305 3177.6 1347.3 3202.1 1389.8L3163.1 1412.5C3138.5 1370 3112.5 1327.6 3085.9 1286.6Z" fill="#FFD9A9"/>
<path d="M3085.9 1286.6C3112.5 1327.6 3138.5 1370 3163.1 1412.5L3143.6 1423.6C3119.6 1382.2 3094.2 1340.8 3068.2 1300.7L3085.9 1286.6Z" fill="#FF9E22"/>
<path d="M2914 1050.3L2953 1027.6C2983.2 1064.7 3013.1 1103.5 3041.6 1142.9L3002.6 1165.5C2974 1126.2 2944.2 1087.4 2914 1050.3Z" fill="#FFD9A9"/>
<path d="M3002.6 1165.5L3041.6 1142.9L3025.9 1159.8L2986.9 1182.5L3002.6 1165.5Z" fill="#F79850"/>
<path d="M2900.4 1069.9L2914 1050.3C2944.2 1087.4 2974 1126.2 3002.6 1165.5L2986.9 1182.5C2959 1144.1 2929.9 1106.2 2900.4 1069.9Z" fill="#FF9E22"/>
<path d="M2723.5 840.8L2762.5 818.1C2795.3 850.2 2828.1 884.2 2859.7 919L2820.7 941.7C2789 906.9 2756.3 872.9 2723.5 840.8Z" fill="#FFD9A9"/>
<path d="M2820.7 941.7L2859.7 919L2848.3 941.2L2809.3 963.9L2820.7 941.7Z" fill="#F79850"/>
<path d="M2714.3 865.4L2723.5 840.8C2756.3 872.9 2789 906.9 2820.7 941.7L2809.3 963.9C2778.4 930 2746.4 896.8 2714.3 865.4Z" fill="#FF9E22"/>
<path d="M2520.4 665.2L2559.4 642.5C2593.8 668.5 2628.4 696.5 2662.1 725.7L2623.1 748.4C2589.4 719.2 2554.8 691.2 2520.4 665.2Z" fill="#FFD9A9"/>
<path d="M2623.1 748.4L2662.1 725.7L2655.4 752.5L2616.3 775.2L2623.1 748.4Z" fill="#F79850"/>
<path d="M2516 693.9L2520.4 665.2C2554.8 691.2 2589.4 719.2 2623.1 748.4L2616.3 775.2C2583.4 746.7 2549.7 719.4 2516 693.9Z" fill="#FF9E22"/>
<path d="M2311.4 528.9L2350.4 506.2C2358.9 510.9 2367.5 515.7 2375.9 520.5L2336.8 543.2C2328.4 538.4 2319.8 533.6 2311.4 528.9Z" fill="#FFD9A9"/>
<path d="M2416.1 591.8L2455.2 569.1L2453.3 599.7L2414.3 622.4L2416.1 591.8Z" fill="#F79850"/>
<path d="M2336.8 543.2L2375.9 520.5C2376.83 521.1 2377.8 521.667 2378.8 522.2C2404.2 536.9 2429.9 552.7 2455.2 569.1L2416.1 591.8C2390.9 575.4 2365.2 559.6 2339.7 544.9C2338.77 544.367 2337.8 543.8 2336.8 543.2Z" fill="#FFD9A9"/>
<path d="M2336.8 543.2C2337.8 543.8 2338.77 544.367 2339.7 544.9C2365.2 559.6 2390.9 575.4 2416.1 591.8L2414.3 622.4C2389.6 606.3 2364.5 590.9 2339.6 576.5L2339.2 576.2C2330.1 571 2321 565.9 2312 560.9L2311.4 528.9C2319.8 533.6 2328.4 538.4 2336.8 543.2Z" fill="#FF9E22"/>
<path d="M2103.3 435.9L2142.3 413.3C2176.4 424.9 2211.2 438.6 2245.9 454.1L2206.8 476.8C2172.2 461.3 2137.4 447.6 2103.3 435.9Z" fill="#FFD9A9"/>
<path d="M2206.8 476.8L2245.9 454.1L2248.9 487.3L2209.8 510L2206.8 476.8Z" fill="#F79850"/>
<path d="M2103.3 435.9C2137.4 447.6 2172.2 461.3 2206.8 476.8L2209.8 510C2176 494.8 2142 481.4 2108.7 470.1L2103.3 435.9Z" fill="#FF9E22"/>
<path d="M1902.6 389.8L1941.7 367.1C1974 370.7 2007.3 376.5 2040.7 384.2L2001.6 406.8C1968.3 399.1 1935 393.4 1902.6 389.8Z" fill="#FFD9A9"/>
<path d="M2001.6 406.8L2040.7 384.2L2048.5 419L2009.5 441.7L2001.6 406.8Z" fill="#F79850"/>
<path d="M1902.6 389.8C1935 393.4 1968.3 399.1 2001.6 406.8L2009.5 441.7C1976.9 434.2 1944.4 428.6 1912.9 425L1902.6 389.8Z" fill="#FF9E22"/>
<path d="M1716 392L1755.1 369.3C1784.5 364.9 1815.2 362.5 1846.2 362.1L1807.2 384.8C1776.2 385.2 1745.5 387.6 1716 392Z" fill="#FFD9A9"/>
<path d="M1807.2 384.8L1846.2 362.1L1858.7 397.5L1819.7 420.2L1807.2 384.8Z" fill="#F79850"/>
<path d="M1716 392C1745.5 387.6 1776.2 385.2 1807.2 384.8L1819.7 420.2C1789.4 420.5 1759.4 422.9 1730.6 427.2L1716 392Z" fill="#FF9E22"/>
<path d="M1549.3 442.2L1588.3 419.5C1614.1 407.3 1641.2 396.8 1668.8 388.5L1629.8 411.1C1602.1 419.5 1575.1 430 1549.3 442.2Z" fill="#FFD9A9"/>
<path d="M1629.8 411.1L1668.8 388.5L1685.5 423.2L1646.5 445.9L1629.8 411.1Z" fill="#F79850"/>
<path d="M1549.3 442.2C1575.1 430 1602.1 419.5 1629.8 411.1L1646.5 445.9C1619.4 454.1 1593 464.3 1567.8 476.2L1549.3 442.2Z" fill="#FF9E22"/>
<path d="M1252.4 763.1L1291.5 740.4L1317 766.9L1278 789.6L1252.4 763.1Z" fill="#F79850"/>
<path d="M1278 789.6L1317 766.9C1304.3 795.9 1292.9 826.7 1283.1 858.5L1244.1 881.2C1253.9 849.4 1265.3 818.6 1278 789.6Z" fill="#FFD9A9"/>
<path d="M1217.7 857C1227.8 824.4 1239.4 792.8 1252.4 763.1L1278 789.6C1265.3 818.6 1253.9 849.4 1244.1 881.2L1217.7 857Z" fill="#FF9E22"/>
<path d="M1347.9 603.3L1387 580.6L1410.2 610.9L1371.2 633.6L1347.9 603.3Z" fill="#F79850"/>
<path d="M1371.2 633.6L1410.2 610.9C1392.1 633.6 1375 658.2 1359.5 684.1L1320.5 706.8C1336 680.9 1353 656.3 1371.2 633.6Z" fill="#FFD9A9"/>
<path d="M1296 678.3C1311.8 651.8 1329.3 626.5 1347.9 603.3L1371.2 633.6C1353 656.3 1336 680.9 1320.5 706.8L1296 678.3Z" fill="#FF9E22"/>
<path d="M1475.1 484.8L1514.1 462.1L1534.4 495.2L1495.4 517.9L1475.1 484.8Z" fill="#F79850"/>
<path d="M1495.4 517.9L1534.4 495.2C1511.4 510.8 1489.3 528.5 1468.7 547.7L1429.6 570.4C1450.3 551.2 1472.4 533.5 1495.4 517.9Z" fill="#FFD9A9"/>
<path d="M1407.8 538.7C1428.9 519 1451.6 500.9 1475.1 484.8L1495.4 517.9C1472.4 533.5 1450.3 551.2 1429.6 570.4L1407.8 538.7Z" fill="#FF9E22"/>
<path d="M1192.1 959.2L1231.1 936.5L1258 958.3L1219 981L1192.1 959.2Z" fill="#F79850"/>
<path d="M1219 981L1258 958.3C1251.2 992.7 1245.9 1028.8 1242 1065.5L1203 1088.2C1206.8 1051.4 1212.2 1015.4 1219 981Z" fill="#FFD9A9"/>
<path d="M1175.7 1068.9C1179.6 1031.4 1185.1 994.4 1192.1 959.2L1219 981C1212.2 1015.4 1206.8 1051.4 1203 1088.2L1175.7 1068.9Z" fill="#FF9E22"/>
<path d="M3213.7 1661.6L3252.8 1638.9L3354.6 1713.6L3315.6 1736.3L3213.7 1661.6Z" fill="#F79850"/>
<path d="M3212.9 1550.9L3251.9 1528.3L3273.1 1520.1L3234 1542.8L3212.9 1550.9Z" fill="#F79850"/>
<path d="M3234 1542.8L3273.1 1520.1C3284.1 1541.6 3294.9 1563.5 3305.2 1585.1L3266.2 1607.8C3255.8 1586.2 3245 1564.3 3234 1542.8Z" fill="#FFD9A9"/>
<path d="M3234 1542.8C3245 1564.3 3255.8 1586.2 3266.2 1607.8L3244.3 1614.4C3234.2 1593.3 3223.6 1571.9 3212.9 1550.9L3234 1542.8Z" fill="#FF9E22"/>
<path d="M3364.2 1639.9L3403.3 1617.3L3376.8 1761.8L3337.7 1784.4L3364.2 1639.9Z" fill="#F79850"/>
<path d="M3337.2 1618.5L3376.2 1595.8L3403.3 1617.3L3364.2 1639.9L3337.2 1618.5Z" fill="#FFD9A9"/>
<path d="M3337.2 1618.5L3364.2 1639.9L3337.7 1784.4L3210 1690.8L3213.7 1661.6L3315.6 1736.3L3337.2 1618.5Z" fill="#FF9E22"/>
<path opacity="0.1" d="M2569.7 2661.3C2528.5 2661.3 2495.1 2645.5 2495.1 2626C2495.1 2606.4 2528.5 2590.6 2569.7 2590.6C2611 2590.6 2644.4 2606.4 2644.4 2626C2644.4 2645.5 2611 2661.3 2569.7 2661.3Z" fill="black"/>
<path d="M2553.6 2234.6C2553.6 2234.6 2555.2 2250.9 2578.2 2246C2578.2 2246 2585.9 2218 2580.1 2200.2C2580.1 2200.2 2560.1 2191.3 2553.6 2200.2C2547.2 2209.1 2553.6 2234.6 2553.6 2234.6Z" fill="#FAC2B0"/>
<path d="M2527.6 2253.6L2534.5 2233.6L2556 2232.7L2568.6 2241.3C2568.6 2241.3 2557.7 2247.9 2554.3 2266.9L2527.6 2253.6Z" fill="#FAC2B0"/>
<path d="M2532.6 2239.9C2532.6 2239.9 2548.2 2244.3 2555.5 2239.9C2562.9 2235.4 2566.1 2219.7 2572 2223.9C2572 2223.9 2574.3 2220.9 2572 2214.2C2569.7 2207.5 2570.6 2203.3 2574.1 2203.1C2577.6 2202.9 2584.5 2201.8 2584.5 2192.2C2584.5 2192.2 2576.9 2194 2567 2189.6C2562.1 2187.5 2547 2183.5 2542.1 2187.8C2537.2 2192.1 2536.6 2197.1 2536.9 2200.1C2536.9 2200.1 2532 2201.7 2531 2208.3C2530 2214.8 2531.1 2230.3 2532.6 2239.9Z" fill="#5F3D37"/>
<path d="M2566.7 2232.9C2566.7 2232.9 2556.8 2223.9 2561.6 2216.9C2562 2216.3 2562.7 2215.8 2563.5 2215.8C2565.5 2215.6 2569.1 2216.6 2572.2 2224.5L2566.7 2232.9Z" fill="#FAC2B0"/>
<path d="M2519.4 2257.4C2527.3 2260.6 2525.7 2272.8 2523.1 2279.8C2520.5 2286.8 2502 2336.1 2502 2347.2C2502 2358.4 2509.2 2402.4 2509.2 2402.4C2509.2 2402.4 2498.7 2408.9 2491.9 2404.8C2491.9 2404.8 2478.6 2364.1 2482.1 2342.2C2485.6 2320.3 2502.7 2267.9 2504.9 2262.9C2507 2258.1 2513.9 2255.2 2519.4 2257.4Z" fill="#CC2368"/>
<path d="M2491.9 2404.8C2491.9 2404.8 2491.3 2413.5 2493.5 2418.2C2496.6 2424.8 2503.6 2429.7 2511.7 2428.4C2519.9 2427.1 2509.2 2402.4 2509.2 2402.4L2491.9 2404.8Z" fill="#FAC2B0"/>
<path d="M2522.3 2599.5C2522.3 2599.5 2518.7 2617.9 2531.6 2618.2C2531.6 2618.2 2539.1 2621.4 2552.6 2611.6C2552.6 2611.6 2565.2 2611.5 2574.3 2608.2C2574.3 2608.2 2579.4 2603.9 2572.8 2602.1C2566.2 2600.3 2546.8 2595.1 2546.8 2595.1C2546.8 2595.1 2544.8 2595.9 2522.3 2599.5Z" fill="#4F312B"/>
<path d="M2512.3 2389C2512.3 2389 2534.1 2402.7 2555.5 2400C2555.5 2400 2552.5 2479.1 2551.8 2490.5C2551.2 2501.9 2547.1 2595.1 2546.8 2595.1C2546.5 2595.1 2535.4 2605.9 2522.3 2599.5C2522 2597.1 2519.3 2563.9 2516.3 2556.2C2513.3 2548.5 2510.3 2519.7 2518.6 2507C2518.6 2507 2520.7 2461 2516.6 2451C2512.6 2440.9 2501.7 2413.3 2512.3 2389Z" fill="#1C5B8A"/>
<path d="M2527.4 2249.3C2531.8 2250.2 2536.8 2251.4 2542 2253.2C2550.8 2256.1 2554.3 2257.2 2560.1 2260.6C2558.43 2265.67 2556.77 2270.7 2555.1 2275.7L2524.9 2256.7L2527.4 2249.3Z" fill="#ED3481"/>
<path d="M2534.4 2256.5C2539.9 2257.3 2545.1 2259.1 2550 2261.8C2563.1 2269.3 2580.4 2282.8 2582.3 2286.2C2584.5 2290.4 2589.6 2304 2589.2 2315.4C2588.8 2326.7 2587.7 2386.9 2593 2402.4C2593 2402.4 2556.5 2412.8 2532.2 2401.5C2532.2 2401.5 2516.6 2394.1 2512.3 2389C2512.3 2389 2507 2336.4 2502.5 2311.3C2497.9 2286.3 2501.9 2259.5 2512.8 2256.9C2520.4 2255.1 2528.6 2255.6 2534.4 2256.5Z" fill="#AF1E5A"/>
<path d="M2689.3 2297.6C2689.3 2297.6 2700.4 2292.4 2702.3 2284.9C2704.3 2277.4 2701.2 2270.1 2695.8 2264.3C2695.8 2264.3 2705.5 2251.8 2702.9 2248C2700.3 2244.1 2682.9 2264.3 2681.5 2267.4C2680.1 2270.5 2675.8 2283.8 2675.8 2283.8L2683 2295.3L2689.3 2297.6Z" fill="#FAC2B0"/>
<path d="M2566 2297.3C2567.6 2286.6 2574.7 2282.8 2582.3 2286.2C2589.8 2289.6 2632.3 2317.9 2639.1 2314.2C2645.9 2310.4 2675.8 2283.8 2675.8 2283.8C2675.8 2283.8 2687.9 2287.3 2689.3 2297.6C2689.3 2297.6 2661.1 2337.1 2645.4 2338.7C2629.7 2340.3 2576.4 2321.9 2573.2 2317.9C2569.9 2313.9 2564.7 2306.2 2566 2297.3Z" fill="#CC2368"/>
<path d="M2561.9 2621.9C2561.9 2621.9 2553.3 2636.4 2564.1 2641.7C2575 2647.1 2584.2 2636.7 2593 2639C2601.8 2641.4 2615.5 2645.7 2626.6 2638.7C2626.6 2638.7 2627.6 2638 2628.6 2636.9C2630.4 2635.1 2629.6 2632.1 2627.2 2631.4C2618.8 2628.9 2599.9 2622.8 2594.5 2616.9C2594.5 2616.9 2594.1 2617.8 2561.9 2621.9Z" fill="#4F312B"/>
<path d="M2593 2402.4C2593 2402.4 2598.4 2484.5 2597.4 2503.9C2596.4 2523.4 2591.7 2541.2 2591.4 2556.9C2591 2572.7 2594.5 2616.9 2594.5 2616.9C2594.4 2616.9 2577 2628.6 2561.9 2621.9C2561.9 2621.9 2563.6 2582 2560.2 2566.3C2556.9 2550.5 2557 2521 2566.5 2509.6C2566.5 2509.6 2551.2 2460 2545 2452C2538.8 2443.9 2526.4 2423 2532.2 2401.5C2532.2 2401.5 2558.7 2410.8 2593 2402.4Z" fill="#2373AD"/>
<path d="M561.7 1464.6C554.8 1469.7 553.8 1477 553.8 1477C553.8 1477 520.8 1467.7 510.7 1456.3C500.6 1444.9 475.8 1394 471.9 1385.9C468.1 1377.8 473.7 1370.5 473.7 1370.5C477.5 1369 485.8 1366.1 489.8 1373.8C493.8 1381.5 516.8 1432.5 520.6 1436.9C524.3 1441.3 561.7 1464.6 561.7 1464.6Z" fill="#009498"/>
<path d="M590.3 1479C590.1 1480.9 581.1 1489.4 576.7 1488.3C572.3 1487.3 557.1 1481.4 553.8 1477C553.8 1477 554.8 1469.7 561.7 1464.6C561.7 1464.6 580.6 1456.1 582.4 1458.7C584.2 1461.3 574 1467.5 574 1467.5C574 1467.5 590.5 1477 590.3 1479Z" fill="#FAC2B0"/>
<path d="M495.4 1685.8C492.4 1687.6 488.5 1689.4 484.6 1690.5C479.3 1691.9 475.6 1689.6 473.5 1687.7C473.5 1687.43 473.533 1687.17 473.6 1686.9C474.5 1675.4 464.3 1642.1 462.7 1633.3C461.1 1624.4 469.7 1615.1 466.2 1599C462.7 1582.9 462.7 1539.8 462.7 1539.8C462.7 1539.8 454.4 1590.1 453.3 1601.1C452.3 1612.1 433 1696.5 435.7 1705.7C436.1 1707.1 436.7 1708.4 437.6 1709.7C424.5 1715.3 416.1 1711.3 411.9 1708.1C412.033 1707.3 412.167 1706.5 412.3 1705.7C414 1694.9 409.9 1644.3 408.9 1631.9C407.8 1619.6 419 1603.5 420.8 1596.3C422.6 1589.1 421.7 1554.8 419 1538.9C416.4 1523.1 423.2 1509.7 423.2 1509.7L491.7 1496.3C495.3 1507.7 494.3 1596.8 494.3 1605.7C494.2 1614.5 494.3 1674 494.3 1681.3C494.2 1683 494.6 1684.5 495.4 1685.8Z" fill="#5A1F0C"/>
<path d="M461.9 1741C443.7 1746.1 431.9 1734.9 427.4 1730.8C422.8 1726.8 418 1731.9 411.8 1726.8C406.1 1722.1 410 1717.2 411.9 1708.1C416.1 1711.3 424.5 1715.3 437.6 1709.7C441.9 1716.4 450.7 1720.4 450.7 1720.4C459.2 1728.2 480.1 1735.9 461.9 1741Z" fill="#AC882E"/>
<path d="M530.3 1712.9C518.5 1716.1 505.6 1707.3 499.7 1706.7C493.8 1706.2 482.6 1709.4 476.9 1705.9C471.4 1702.5 472.6 1698.6 473.5 1687.7C475.6 1689.6 479.3 1691.9 484.6 1690.5C488.5 1689.4 492.4 1687.6 495.4 1685.8C497.9 1689.9 504.3 1692.3 513.4 1696.8C525.4 1702.7 542 1709.7 530.3 1712.9Z" fill="#AC882E"/>
<path d="M424.4 1501.4L423.3 1509.8C423.3 1509.8 444.7 1518.7 472.4 1508.7C472.4 1508.7 483.6 1504.4 491.7 1496.4L490.9 1488.3L424.4 1501.4Z" fill="#29120D"/>
<path d="M473.7 1500.9C473.7 1500.9 473.8 1508 475.8 1507.9C477.8 1507.9 484 1504.2 484.2 1503.2C484.4 1502.3 485 1495.4 483.9 1495.4C482.7 1495.4 474.5 1499.9 473.7 1500.9Z" fill="#EAEAE9"/>
<path d="M544.7 1494.2C543.8 1495.9 529 1489.7 529 1489.7C529 1489.7 520.7 1498.8 515.3 1497.2C509.8 1495.7 501.1 1488.7 501.1 1488.7C500.8 1481.1 507.4 1476.6 507.4 1476.6C507.4 1476.6 524.4 1475.1 530.9 1480.4C537.4 1485.7 545.5 1492.5 544.7 1494.2Z" fill="#FAC2B0"/>
<path d="M448 1364.3C453.6 1361.9 481.2 1366.5 482.3 1368.1C483.5 1369.8 493.9 1380.3 494.3 1394.1C494.6 1407.9 493.4 1414.6 493 1433.2C492.7 1451.8 495 1483.9 493.8 1487.1C492.5 1490.3 467.1 1511.2 442.4 1507.1C417.7 1503 420.6 1503.4 420.9 1498.6C421.1 1493.9 422.9 1450.5 420 1442.8C417.2 1435.1 406.2 1404.2 411.7 1395.1C417.2 1386 427.6 1373.1 448 1364.3Z" fill="#01767A"/>
<path d="M507.4 1476.6C507.4 1476.6 500.8 1481.1 501.1 1488.7C501.1 1488.7 460.9 1478 450.7 1470.2C440.5 1462.3 418.1 1431.4 410.2 1417.4C402.2 1403.5 410.9 1397 410.9 1397C417.2 1393.2 424.2 1395.1 428.4 1401.6C432.7 1408.1 457 1444.8 462.7 1450.4C468.3 1456 507.4 1476.6 507.4 1476.6Z" fill="#009498"/>
<path d="M459.2 1320.3C470.6 1323.8 475.2 1325.6 477.3 1335C479.4 1344.4 475.9 1368.1 468.2 1368.1C460.6 1368.1 448.4 1364.3 445.9 1345.8C443.5 1327.3 452.1 1318.2 459.2 1320.3Z" fill="#FAC2B0"/>
<path d="M440.6 1353.4L440.3 1367.7C440.3 1367.7 445.3 1377.6 456.4 1376.8C456.4 1376.8 462.3 1375.6 463 1368.9L464 1353.8L465.4 1334.1L438.1 1337.2L440.6 1353.4Z" fill="#FAC2B0"/>
<path d="M448.2 1344.1C448.2 1344.1 455.6 1341 456.7 1332.3C456.7 1332.3 479.8 1329.8 480.2 1323.3C480.6 1316.7 457.5 1305 447.2 1307.6C437 1310.2 428.2 1321.2 433 1341.1C433 1341.1 434.6 1348.1 440.6 1353.4C440.6 1353.4 444.9 1351.4 448.2 1344.1Z" fill="#A95D26"/>
<path d="M442.3 1339.9C442.9 1337.3 446.9 1339.3 450.7 1344.7L449.5 1349.2C449.5 1349.2 440.4 1348.1 442.3 1339.9Z" fill="#FAC2B0"/>
<path opacity="0.1" d="M1120 1822.6C1080.3 1822.6 1048.3 1811.2 1048.3 1797C1048.3 1782.9 1080.3 1771.4 1120 1771.4C1159.6 1771.4 1191.7 1782.9 1191.7 1797C1191.7 1811.2 1159.6 1822.6 1120 1822.6Z" fill="black"/>
<path d="M1156.9 1799.3C1156.9 1799.3 1138.4 1814.1 1121.6 1764.1L1121.8 1759.6L1126.8 1635C1126.8 1635 1140.2 1638.2 1152.2 1633.1C1152.2 1633.1 1151.6 1662 1151.2 1664.6C1150.7 1667.1 1148.6 1673.9 1148.2 1677.2C1147.7 1680.5 1138.7 1745.6 1141.7 1754.6C1142.3 1756.4 1143.7 1759 1145.4 1762C1151.8 1773.5 1163.3 1791.2 1156.9 1799.3Z" fill="#ECB7A6"/>
<path d="M1156.9 1799.3C1156.9 1799.3 1138.4 1814.1 1121.6 1764.1L1121.8 1759.6C1133 1779.3 1141.5 1782 1146.5 1780C1150 1778.5 1147.5 1768.7 1145.4 1762C1151.8 1773.5 1163.3 1791.2 1156.9 1799.3Z" fill="#4A225E"/>
<path d="M1130.8 1806.4C1112.2 1806.4 1106.6 1780.8 1105.8 1774.9C1105.5 1772.4 1105.9 1768.4 1106.4 1764.1C1107.2 1758.6 1108.2 1752.5 1108.6 1748C1109.2 1740 1105.4 1695.9 1103.1 1686.5C1100.8 1677.1 1105.4 1664 1105.4 1664C1105.6 1656.6 1100.8 1631.8 1100.8 1631.8C1118.4 1634.7 1131 1629.8 1131 1629.8C1131 1629.8 1131 1661.6 1131.1 1665.5C1131.2 1669.3 1130.6 1671.6 1129.1 1675.8C1127.5 1680.1 1123.2 1751.5 1123.3 1758.4C1123.4 1765.3 1130.8 1778.1 1130.8 1778.1C1131.2 1778.97 1131.6 1779.8 1132 1780.6C1144.5 1808.1 1132 1806.4 1130.8 1806.4Z" fill="#FAC2B0"/>
<path d="M1130.8 1806.4C1112.2 1806.4 1106.6 1780.8 1105.8 1774.9C1105.5 1772.4 1105.9 1768.4 1106.4 1764.1C1108.7 1772.6 1114.9 1790 1127.6 1788.4C1127.6 1788.4 1131.4 1788.1 1132 1780.6C1144.5 1808.1 1132 1806.4 1130.8 1806.4Z" fill="#4A225E"/>
<path d="M1161.1 1577.4C1157.3 1608.5 1153.7 1645.7 1153.7 1645.7C1153.7 1645.7 1129.9 1656.6 1100.8 1650.3C1100.8 1650.3 1089.9 1589.8 1088.2 1577.4C1087.6 1573.4 1087.6 1568.3 1088 1563.2C1088.7 1552.4 1090.6 1541.6 1090.6 1541.6L1122.2 1538.9L1143 1537.2L1158 1535.9C1158 1535.9 1161.5 1541.2 1162.1 1555.5C1162.4 1561.3 1162.1 1568.5 1161.1 1577.4Z" fill="#4A225E"/>
<path d="M1177.6 1520.1C1170.6 1524 1167.4 1528.9 1166 1532.5C1159.4 1526.4 1155.3 1521.5 1153.3 1515.1C1149.7 1503.3 1139.8 1456.5 1137.5 1445.8C1135.1 1435.1 1139.3 1430.9 1139.3 1430.9C1144.5 1430.2 1149.7 1428.4 1156.7 1439C1163.8 1449.7 1162.2 1495.8 1167.4 1505.4C1169.3 1509 1173.2 1514.5 1177.6 1520.1Z" fill="#3A3A3B"/>
<path d="M1225.3 1555.6C1223.1 1558.5 1209.3 1570.5 1188.5 1552C1179 1543.5 1171.6 1537.6 1166 1532.5C1167.4 1528.9 1170.6 1524 1177.6 1520.1C1185.2 1529.7 1194.4 1539.6 1198.6 1540.4C1205.4 1541.6 1213.5 1538.5 1215.5 1541.6C1217.6 1544.7 1207 1546.5 1207 1546.5C1207 1546.5 1227.6 1552.8 1225.3 1555.6Z" fill="#FAC2B0"/>
<path d="M1145.5 1393C1145.5 1393 1153 1381.5 1142.9 1374.5C1132.7 1367.6 1117 1362.7 1110.2 1369.8C1103.4 1377 1098.4 1385.4 1099.9 1412.9C1101.4 1440.5 1098.4 1450.8 1094.7 1456.7C1094.7 1456.7 1122.7 1451.3 1132.9 1421.5L1145.5 1393Z" fill="#5F3D37"/>
<path d="M1146 1383.8C1146 1383.8 1151.2 1408.1 1139.7 1428.7C1139.7 1428.7 1111.6 1430 1112.6 1407.1C1113.7 1384.2 1125 1378.6 1132.7 1378.8C1140.4 1379 1146 1383.8 1146 1383.8Z" fill="#FAC2B0"/>
<path d="M1116 1404.2C1116 1404.2 1130.9 1397.4 1136.5 1383.6C1136.5 1383.6 1141.8 1388.1 1146.6 1387.7C1146.6 1387.7 1148.8 1378 1134.2 1376.2C1119.5 1374.4 1108.4 1397.5 1109.9 1403.7L1116 1404.2Z" fill="#5F3D37"/>
<path d="M1158 1535.9C1158 1535.9 1153.1 1539.3 1144.5 1542.3C1138.8 1544.3 1131.4 1546.1 1122.8 1546.5C1113.4 1547 1102.5 1545.8 1090.6 1541.6C1090.6 1541.6 1075.7 1462.4 1091.4 1450.3C1098.3 1445 1104.4 1441.2 1109.1 1438.6C1115.1 1435.2 1118.9 1433.9 1118.9 1433.9C1120.9 1433.2 1122.9 1432.5 1125 1432C1133.4 1429.8 1141.7 1429.2 1143.9 1430.2C1146.5 1431.5 1159.8 1443 1160.9 1463.1C1162 1483.2 1156.5 1490.7 1155.6 1495.4C1154.7 1500 1152.4 1522.4 1158 1535.9Z" fill="#682A81"/>
<path d="M1116 1404.2C1116 1404.2 1110.4 1394.3 1106 1399.1C1101.5 1403.8 1107 1412 1115.3 1411.7L1116 1404.2Z" fill="#FAC2B0"/>
<path d="M1148.1 1562.1C1148.1 1562.1 1148.23 1562.07 1148.5 1562C1148.4 1562.3 1148.1 1562.1 1148.1 1562.1Z" fill="#595A5A"/>
<path d="M1162.1 1555.5C1159.4 1559 1150.5 1561.5 1148.5 1562C1148.5 1561.2 1149 1557.9 1144.5 1542.3C1144.03 1540.7 1143.53 1539 1143 1537.2C1134.7 1509.8 1139.5 1502.9 1143.5 1475.2C1147.6 1447.5 1120.9 1433.3 1120.9 1433.3L1125 1432C1133.4 1429.8 1141.7 1429.2 1143.9 1430.2C1146.5 1431.5 1159.8 1443 1160.9 1463.1C1162 1483.2 1156.5 1490.7 1155.6 1495.4C1154.7 1500 1152.4 1522.4 1158 1535.9C1158 1535.9 1161.5 1541.2 1162.1 1555.5Z" fill="#2F3030"/>
<path d="M1131 1442.8C1131 1442.8 1128.4 1429.5 1136.7 1417.9L1112.8 1411.5C1112.8 1411.5 1114 1427.9 1109.2 1438.6C1109.2 1438.6 1118.9 1449.6 1131 1442.8Z" fill="#FAC2B0"/>
<path d="M1122.8 1546.5C1123.8 1558.8 1125 1569.6 1125 1569.6C1125 1569.6 1104.6 1579.5 1089.3 1570.5C1089.3 1570.5 1088.8 1567.8 1088 1563.2C1088.7 1552.4 1090.6 1541.6 1090.6 1541.6C1090.6 1541.6 1072 1465.3 1087.7 1453.1C1094.6 1447.8 1104.4 1441.2 1109.1 1438.6C1109.17 1438.6 1109.2 1438.6 1109.2 1438.6C1109.2 1438.6 1126.4 1449.2 1129.1 1466.2C1131.7 1483.2 1122 1501.4 1121.4 1516.4C1121.2 1521.8 1121.6 1530.3 1122.2 1538.9C1122.4 1541.5 1122.6 1544 1122.8 1546.5Z" fill="#2F3030"/>
<path d="M1099.8 1491C1096.4 1505.5 1090.6 1511.9 1092 1521.8C1092.6 1525.7 1093.6 1536 1094.7 1547C1087.5 1547.4 1082 1550.1 1078.6 1552.5C1075.7 1539.8 1073.4 1528.6 1073.2 1523.6C1072.7 1513.1 1079.2 1477.2 1081 1467.6C1082.8 1457.9 1089.7 1452.1 1097.5 1454.2C1106.8 1456.7 1103.3 1476.5 1099.8 1491Z" fill="#3A3A3B"/>
<path d="M1114.3 1591.2C1112.5 1594.7 1103.1 1591.2 1103.1 1591.2C1103.1 1591.2 1113.9 1608.9 1112.6 1611.4C1111.3 1614 1094.6 1616.7 1089 1594.7C1086.1 1583 1082 1566.7 1078.6 1552.5C1082 1550.1 1087.5 1547.4 1094.7 1547C1096.3 1563.7 1098 1582 1098 1582C1098 1582 1116.1 1587.8 1114.3 1591.2Z" fill="#FAC2B0"/>
<path opacity="0.1" d="M3085.9 3384.1C3046.2 3384.1 3014.1 3372.7 3014.1 3358.5C3014.1 3344.3 3046.2 3332.9 3085.9 3332.9C3125.6 3332.9 3157.7 3344.3 3157.7 3358.5C3157.7 3372.7 3125.6 3384.1 3085.9 3384.1Z" fill="black"/>
<path d="M3136.1 3335.4C3136.1 3335.4 3138.6 3349.8 3137.1 3351.9C3135.6 3354 3121.3 3357.8 3113.9 3351.9C3106.5 3346 3091.7 3329.1 3094.5 3324.6C3097.3 3320.2 3102.1 3319.5 3107.2 3319.7C3112.3 3320 3136.1 3335.4 3136.1 3335.4Z" fill="#171717"/>
<path d="M3088.9 3356.9C3088.9 3356.9 3091.3 3370.5 3090.3 3372.9C3089.4 3375.4 3087.2 3381 3080.3 3380.4C3073.4 3379.8 3067.2 3375.2 3062.7 3374.6C3058.3 3374 3030.6 3367 3031.4 3362.4C3032.2 3357.9 3075.1 3351.9 3075.1 3351.9L3088.9 3356.9Z" fill="#171717"/>
<path d="M3081.8 3169.2C3081.8 3169.2 3089.5 3221.4 3097.5 3249.4C3097.5 3249.4 3098.1 3267.9 3101.2 3274.3C3104.3 3280.8 3108.9 3295.9 3110.7 3308.8C3112.6 3321.7 3114.4 3334.9 3114.4 3334.9C3114.4 3334.9 3118.4 3344.5 3138.1 3336.5C3138.1 3336.5 3135.4 3297.7 3136.5 3286.3C3137.5 3274.9 3134.7 3253.4 3128 3242.3C3128 3242.3 3123.5 3165.2 3125.8 3152.8L3081.8 3169.2Z" fill="#3A3A3A"/>
<path d="M3039.8 3167.2C3039.8 3167.2 3042.7 3224 3049.7 3257.9C3049.7 3257.9 3050.7 3277.6 3053 3285C3055.3 3292.5 3066.4 3356.3 3066.4 3356.3C3066.4 3356.3 3070.2 3364.3 3091.6 3358.2C3091.6 3358.2 3095.3 3291.5 3094.4 3285C3093.2 3277 3085.9 3268.1 3085.9 3268.1C3085.9 3268.1 3089.1 3235.4 3090.8 3227.4C3092.4 3219.3 3095.5 3178.2 3092.1 3165.5L3039.8 3167.2Z" fill="#464646"/>
<path d="M3062.4 2972.4C3062.4 2972.4 3067.7 2960.9 3073.2 2965.8C3078.6 2970.6 3066.7 2979.1 3062.4 2980.2V2972.4Z" fill="#FAC2B0"/>
<path d="M3086.8 2939.7C3080 2938.1 3065.5 2936.9 3060.4 2944.7C3055.2 2952.5 3051.4 2976.1 3059.7 2991.4C3059.7 2991.4 3069 2992.6 3081.7 2985.5C3094.5 2978.4 3095.8 2941.8 3086.8 2939.7Z" fill="#FAC2B0"/>
<path d="M3064 2986.5C3064 2986.5 3070.5 2995.1 3070.1 3010.8C3070.1 3010.8 3081.9 3003 3095.8 3002.5C3095.8 3002.5 3092.8 2993.9 3095.4 2979.1C3095.4 2979.1 3079 2978.2 3064 2986.5Z" fill="#FAC2B0"/>
<path d="M3065.5 2972.4C3064.3 2969.4 3062.4 2966.2 3065.5 2960.3C3068.6 2954.4 3068.8 2949.3 3066.6 2948.2C3064.4 2947.1 3057 2948 3057.4 2944C3057.8 2940.1 3084.5 2924.5 3102.9 2944C3102.9 2944 3118.8 2953.4 3094.3 2989.2C3094.3 2989.2 3074.6 2994.6 3065.5 2972.4Z" fill="#87574E"/>
<path d="M3065.5 3015.2V3007.7C3065.5 3007.7 3079.2 2997.6 3098.5 2996.8L3101 3000.8C3101 3000.8 3093.3 3007.9 3065.5 3015.2Z" fill="#F2F2F2"/>
<path d="M3085.9 3005.3C3074.2 3009.8 3056.3 3019 3045.7 3030.7C3035.2 3042.4 3052.1 3099 3049.7 3110.9C3047.3 3122.8 3041.7 3138.1 3037 3173C3037 3173 3058.6 3190.4 3097.4 3177.7C3097.4 3177.7 3110.4 3175.2 3130.9 3157.7C3130.9 3157.7 3123.1 3119.3 3126.9 3096.2C3130.6 3073.1 3146 3017.3 3119.7 2999.6C3119.7 2999.6 3106.5 2997.3 3085.9 3005.3Z" fill="#535353"/>
<path d="M3047.2 3169.1C3047.2 3169.1 3052.6 3178.9 3053 3184.9C3053.4 3190.8 3045.6 3198.5 3037.3 3194.2C3029 3189.8 3028.8 3178.3 3033.1 3165.5L3047.2 3169.1Z" fill="#FAC2B0"/>
<path d="M3034.6 3158.2L3033.1 3165.5C3033.1 3165.5 3037 3169.8 3047.2 3169.1L3049.7 3162.9C3049.7 3162.9 3039 3161.6 3034.6 3158.2Z" fill="#F2F2F2"/>
<path d="M3049.8 3029.7C3063.2 3030.5 3067.4 3042.1 3068.5 3052.3C3069.6 3062.5 3073.1 3095.5 3071.8 3104.2C3070.6 3112.9 3049.8 3164.5 3049.8 3164.5C3049.8 3164.5 3039.8 3165.7 3033.9 3159C3033.9 3159 3037.3 3134 3045.5 3108.9C3045.5 3108.9 3042.1 3068.2 3040.6 3050.8C3039.1 3033.5 3044.2 3029.4 3049.8 3029.7Z" fill="#606060"/>
<path opacity="0.1" d="M1970.1 2639C1930.5 2639 1898.4 2627.6 1898.4 2613.5C1898.4 2599.3 1930.5 2587.9 1970.1 2587.9C2009.8 2587.9 2041.8 2599.3 2041.8 2613.5C2041.8 2627.6 2009.8 2639 1970.1 2639Z" fill="black"/>
<path d="M1965 2507.4C1965.6 2523.9 1979.2 2582.6 1978.9 2586.1C1978.9 2586.17 1978.9 2586.3 1978.9 2586.5C1978.83 2586.57 1978.8 2586.67 1978.8 2586.8C1978.8 2587.07 1978.77 2587.37 1978.7 2587.7C1978.63 2587.83 1978.6 2587.93 1978.6 2588C1977.8 2593.1 1975.4 2603.8 1975.2 2608.3C1974.8 2613.6 1973.9 2633.7 1985 2632.8C1996 2631.8 1996.5 2619.5 1997.9 2612.2C1999.3 2604.9 1994.8 2585 1994.8 2585C1992.9 2572.2 1993.1 2547.3 1992.4 2536.8C1991.8 2526.4 1986.8 2505.7 1986.8 2505.7L1989.5 2482.6L1965 2479.2C1965 2479.2 1964.4 2490.9 1965 2507.4Z" fill="#FAC2B0"/>
<path d="M1985 2632.8C1996 2631.8 1996.5 2619.5 1997.9 2612.2C1999.3 2604.9 1994.8 2585 1994.8 2585C1994.8 2585 1997.7 2624.2 1985.6 2621.6C1975 2619.4 1977.7 2594.6 1978.6 2588C1977.8 2593.1 1975.4 2603.8 1975.2 2608.3C1974.8 2613.6 1973.9 2633.7 1985 2632.8Z" fill="#2B2B2B"/>
<path d="M1921.2 2615.5C1934.1 2620.2 1946.7 2606.6 1947.6 2602.4C1948.4 2598.3 1954.6 2592.5 1954.6 2592.5V2608.1H1957.5C1957.5 2608.1 1958.8 2592.5 1960 2586.6C1960.8 2582.6 1959.6 2577.8 1958.8 2575.1C1958.3 2573.8 1958 2572.9 1958 2572.9C1956 2559.9 1960.4 2532.2 1960.2 2525.2C1960.1 2518.3 1958 2497.1 1958 2497.1C1960.2 2488.6 1962.5 2479.2 1962.5 2479.2C1957.1 2481.2 1935.8 2476.2 1935.8 2476.2C1935.8 2476.2 1936.2 2491.8 1937.2 2500.3C1938.2 2508.8 1942.6 2569.8 1940.4 2580.4C1939.3 2585.9 1930.8 2593.8 1924.6 2600.8C1918.8 2607.4 1915 2613.2 1921.2 2615.5Z" fill="#FAC2B0"/>
<path d="M1921.2 2615.5C1934.1 2620.2 1946.7 2606.6 1947.6 2602.4C1948.4 2598.3 1954.6 2592.5 1954.6 2592.5V2608.1H1957.5C1957.5 2608.1 1958.8 2592.5 1960 2586.6C1960.8 2582.6 1959.6 2577.8 1958.8 2575.1C1957.1 2575.7 1955.3 2576.8 1954.5 2578.8C1952.7 2583.1 1944.5 2603.9 1937.1 2604.5C1931.9 2605 1926.5 2603.8 1924.6 2600.8C1918.8 2607.4 1915 2613.2 1921.2 2615.5Z" fill="#2B2B2B"/>
<path d="M2000.2 2399.5C2000.2 2399.5 2008.3 2421.8 1989.8 2484.8C1989.8 2484.8 1970.9 2491.3 1934.9 2478.4C1934.9 2478.4 1926.2 2421.1 1928.4 2403.1L1945.5 2393.3L2000.2 2399.5Z" fill="#2B2B2B"/>
<path d="M1933.4 2324.1C1933.4 2324.1 1923.5 2347.2 1906.4 2349.9C1906.4 2349.9 1912.9 2355.2 1914.6 2360.6C1914.6 2360.6 1927.8 2362.5 1943.6 2345.5L1933.4 2324.1Z" fill="#454545"/>
<path d="M1930.9 2376.4L1877.8 2334.7L1876 2318L1934.9 2364.9L1930.9 2376.4Z" fill="#79491E"/>
<path d="M1974.3 2271.8C1965.9 2271.2 1947.1 2270.4 1943.6 2272.7C1940.1 2275 1926.9 2299 1925.2 2308.6C1923.5 2318.3 1931.4 2337.6 1935.2 2340.7C1939 2343.7 1924 2400.7 1927.6 2410C1927.6 2410 1942 2412.7 1948.6 2398.9C1948.6 2398.9 1949.9 2411.9 1959.2 2413.2C1968.5 2414.6 1986.5 2416.5 2002.8 2410C2002.8 2410 2002.8 2388.1 1997.9 2372.2C1993 2356.4 2010.4 2302.6 2010.8 2292.9C2011.3 2283.3 1982.5 2272.4 1974.3 2271.8Z" fill="#383838"/>
<path d="M2004.3 2289.9C1996.6 2292.2 1995.1 2302.1 1994.9 2308.7C1994.7 2315.2 1995.4 2354.5 1995.4 2354.5C1995.4 2354.5 1968.2 2372.6 1962.5 2377.3C1962.5 2377.3 1964.9 2384.7 1963.9 2389.6C1963.9 2389.6 2006.6 2378.1 2013.1 2363.6C2019.7 2349.1 2016.1 2310.2 2015.7 2302.7C2015.3 2295.1 2012.2 2287.5 2004.3 2289.9Z" fill="#454545"/>
<path d="M1963.9 2389.6C1963.9 2389.6 1951 2390.7 1947.7 2387.5C1947.7 2387.5 1943.5 2393.5 1940.5 2393.3C1937.5 2393 1930.3 2387.6 1930.6 2385.1C1930.9 2382.5 1937.3 2371.8 1941.1 2371.2C1944.8 2370.6 1962.5 2377.3 1962.5 2377.3C1962.5 2377.3 1965.9 2383 1963.9 2389.6Z" fill="#FAC2B0"/>
<path d="M1965.8 2208C1957.2 2209.6 1946.2 2213 1943.3 2222.4C1940.3 2231.8 1939.1 2251.9 1950 2262.5C1950 2262.5 1980.2 2257.8 1981.6 2238C1983 2218.3 1971.6 2207 1965.8 2208Z" fill="#FAC2B0"/>
<path d="M1984.6 2274.1C1984.6 2274.1 1979.6 2271.4 1979.1 2268.4C1978.6 2265.4 1979.8 2250.9 1977.8 2241.2C1977.8 2241.2 1965.8 2255.5 1954.1 2255.5C1954.1 2255.5 1960.9 2262.2 1961.5 2272.6L1959.1 2272.9C1959.1 2272.9 1946.9 2281.2 1947.2 2300.1C1947.6 2319 1978 2290.7 1984.6 2274.1Z" fill="#FAC2B0"/>
<path d="M1968.3 2217.1C1968.3 2217.1 1959.6 2229.3 1951 2228.8C1942.5 2228.2 1941.3 2240.6 1941.3 2240.6C1941.3 2240.6 1936 2224.1 1941.2 2214.9C1946.4 2205.7 1959.6 2199.7 1972.4 2201.2C1985.2 2202.7 2006.3 2236.8 1978.9 2265.5C1978.9 2265.5 1978 2247.9 1973.9 2243.9C1969.7 2240 1966.4 2226.7 1968.3 2217.1Z" fill="#A95D26"/>
<path d="M1940.8 2322.9C1944.2 2339.6 1952.8 2344 1952.8 2344C1952.8 2344 1958.1 2327.8 1966.6 2315C1968.9 2306 1971.1 2297.1 1971.1 2297.1C1971.1 2297.1 1968.1 2297.4 1964.3 2297.9C1959.2 2298.6 1954.2 2297.8 1948.8 2295.1C1947.73 2294.57 1946.67 2293.93 1945.6 2293.2C1945.6 2293.2 1941.7 2308.3 1940.8 2322.9Z" fill="white"/>
<path d="M1952.8 2344C1952.8 2344 1958.1 2327.8 1966.6 2315C1969.9 2310.2 1973.5 2305.9 1977.6 2303.1L1972.1 2294.7L1986.9 2295.9L1987.8 2274.7C1987.8 2274.7 1982.9 2271.8 1981.1 2271.5C1981.1 2271.5 1972.6 2283.3 1963.7 2299C1956.7 2311.3 1951 2327 1952.8 2344Z" fill="#454545"/>
<path d="M1940.8 2322.9C1944.2 2339.6 1952.8 2344 1952.8 2344C1944.2 2334.4 1945 2309.9 1948.8 2295.1C1949.27 2293.17 1949.8 2291.43 1950.4 2289.9C1955.4 2276.5 1961.5 2272.6 1961.5 2272.6L1961.2 2270.1C1951.6 2272.4 1943.5 2284.2 1943.5 2284.2L1947.7 2288.9L1940.4 2293.9C1938.8 2306.3 1939.3 2315.7 1940.8 2322.9Z" fill="#454545"/>
<path d="M1906.4 2359.2C1906.4 2359.2 1908.3 2350.4 1906.4 2346.9C1904.5 2343.5 1895 2337.6 1892.2 2338.7C1889.3 2339.8 1888.7 2348.8 1889.8 2350.8C1891 2352.8 1902.2 2361.6 1906.4 2359.2Z" fill="#FAC2B0"/>
<path opacity="0.1" d="M1724.3 2655.3C1686.6 2655.3 1656 2644.4 1656 2630.9C1656 2617.4 1686.6 2606.5 1724.3 2606.5C1762.1 2606.5 1792.7 2617.4 1792.7 2630.9C1792.7 2644.4 1762.1 2655.3 1724.3 2655.3Z" fill="black"/>
<path d="M1686.4 2612.3C1686.4 2612.3 1683.1 2627.2 1684.4 2630C1685.7 2632.8 1693.2 2637.7 1701.6 2636.9C1710.1 2636.2 1721.3 2628.6 1727.2 2628.3C1733.1 2628 1746.7 2618.3 1738.7 2613.4C1730.7 2608.5 1714.1 2613.8 1704.8 2609.6L1686.4 2612.3Z" fill="#663017"/>
<path d="M1681.1 2403.3C1681.1 2403.3 1676.4 2414.6 1675.8 2435.1C1675.2 2455.6 1687.1 2508.8 1687.1 2508.8C1687.1 2508.8 1679.5 2524.6 1681.5 2533.7C1683.4 2542.9 1689.3 2586 1688.4 2595.2C1687.5 2604.3 1685.6 2613.1 1685.6 2613.1C1685.6 2613.1 1703.7 2620 1713.7 2611.2L1732.8 2497.5L1726.8 2406.7L1681.1 2403.3Z" fill="#702B18"/>
<path d="M1717.5 2616.5C1717.5 2616.5 1712.8 2629.7 1713.9 2633.9C1714.9 2638.2 1719.9 2643.1 1726.9 2643.4C1733.9 2643.7 1738.4 2639.2 1742 2639.2C1745.6 2639.3 1772.3 2645.8 1777.2 2624.7C1777.2 2624.7 1777.7 2620 1771.8 2619.1C1765.9 2618.1 1744.2 2619.1 1740.8 2615.7L1717.5 2616.5Z" fill="#663017"/>
<path d="M1761.4 2412.7C1761.4 2412.7 1768.7 2427.5 1758.3 2526.1C1758.3 2526.1 1757.5 2569.5 1745.3 2618.5C1745.3 2618.5 1728.2 2627.6 1716.8 2616.7C1716.8 2616.7 1720.7 2588.4 1719.9 2582.7C1719.1 2577 1710 2540.9 1724.1 2526.9C1724.1 2526.9 1713.4 2480.5 1711.1 2474C1708.8 2467.5 1695 2444.6 1699 2420.9L1761.4 2412.7Z" fill="#832E1B"/>
<path d="M1767.1 2304.8C1767.1 2304.8 1778 2302.1 1783.1 2292.6L1770.2 2283L1760.1 2293.9L1767.1 2304.8Z" fill="#FAC2B0"/>
<path d="M1738.7 2303.6L1758.2 2293C1758.2 2293 1766.4 2295.6 1767.1 2304.8L1751.5 2320.9C1751.5 2320.9 1747.2 2307.7 1738.7 2303.6Z" fill="#F69265"/>
<path d="M1768 2288L1825.4 2323.8C1826.5 2324.5 1828.1 2324 1828.6 2322.8L1848.9 2273.4C1849.3 2272.3 1848.9 2271.2 1848 2270.6L1787.6 2236.2C1786.5 2235.5 1785 2236 1784.5 2237.3L1767.1 2285.4C1766.7 2286.3 1767.1 2287.4 1768 2288Z" fill="#383838"/>
<path d="M1786.9 2239.9L1770.2 2285.4C1770 2285.9 1770.2 2286.5 1770.7 2286.8L1824.4 2320.4C1825 2320.7 1825.8 2320.5 1826.1 2319.8L1845.3 2273.2C1845.5 2272.7 1845.3 2272.1 1844.8 2271.8L1788.6 2239.3C1787.9 2239 1787.1 2239.2 1786.9 2239.9Z" fill="#CAEAF8"/>
<path d="M1758.2 2293L1761.2 2280.7C1761.2 2280.7 1765.2 2275.7 1768.1 2275.4C1771 2275 1779.6 2274.8 1779.4 2276.3C1779.2 2277.7 1775.3 2279.9 1768.8 2281.3C1768.8 2281.3 1771.7 2289.7 1770.6 2293.6C1769.4 2297.6 1767.1 2304.8 1767.1 2304.8C1767.1 2304.8 1763.1 2295.7 1758.2 2293Z" fill="#FAC2B0"/>
<path d="M1728.1 2221.8C1735.2 2223.6 1742 2228.8 1742.3 2236C1742.6 2243.3 1741.5 2273.1 1737 2273.9C1732.5 2274.7 1717.2 2265.3 1711.7 2255.6C1706.2 2245.8 1710 2217.3 1728.1 2221.8Z" fill="#FAC2B0"/>
<path d="M1695.4 2259.5L1697.1 2285.3C1697.1 2285.3 1705.1 2292.5 1727.4 2290.7C1727.4 2290.7 1727.5 2282.7 1728.7 2278.7C1730 2274.7 1734.7 2266.3 1734.7 2266.3C1734.7 2266.3 1706.9 2255.9 1695.4 2259.5Z" fill="#FAC2B0"/>
<path d="M1707.3 2282.8C1707.3 2282.8 1689.5 2271.8 1680.7 2272.9C1671.9 2274 1661.8 2296.7 1664.3 2313.5C1666.8 2330.4 1678.2 2353.7 1677.8 2362C1677.5 2370.4 1674.7 2402.7 1677.5 2405.5C1680.4 2408.4 1690.1 2422.2 1718.3 2425.7C1746.5 2429.1 1761.2 2420.2 1763.2 2414.2C1765.3 2408.2 1762.1 2393.9 1760.2 2389.6C1758.4 2385.4 1753.2 2362.7 1756.1 2343.8C1759.1 2324.9 1759.7 2306.7 1736.5 2293L1707.3 2282.8Z" fill="#F48451"/>
<path d="M1689.7 2232.3C1689.7 2232.3 1688.6 2222.4 1699.1 2218.2C1709.6 2213.9 1731.3 2210.3 1741.6 2221.3C1741.6 2221.3 1745.7 2226.1 1731.4 2232.3C1731.4 2232.3 1730.5 2235.9 1734 2241C1737.6 2246.1 1730.7 2249.5 1729.4 2253.1C1728.1 2256.7 1724 2274.9 1718.1 2274.9C1712.2 2274.9 1695.3 2272.4 1694.1 2270.4C1693 2268.3 1675.5 2241.2 1689.7 2232.3Z" fill="#784D46"/>
<path d="M1733.1 2250.3C1733.1 2250.3 1732.3 2243.5 1726.9 2245.5C1721.4 2247.4 1725.7 2256.7 1730.8 2258.3L1733.1 2250.3Z" fill="#FAC2B0"/>
<path d="M1691.3 2280.1L1695.2 2274.4C1695.2 2274.4 1699 2284.3 1737.6 2285.1C1737.6 2285.1 1739.2 2286.2 1738.6 2287.8C1737.9 2289.4 1736.5 2293 1736.5 2293C1736.5 2293 1733 2292 1730.9 2292.2C1728.8 2292.4 1700.2 2295 1691.3 2280.1Z" fill="#F4A986"/>
<path d="M1809.9 2324C1809.9 2324 1808.4 2313.5 1809.9 2308.9C1811.4 2304.4 1814.5 2303.2 1815.7 2299.9C1816.9 2296.5 1818.6 2281.6 1821.8 2281.7C1825 2281.9 1823 2297.3 1824.5 2299.2C1826 2301.1 1835.3 2309.5 1834.9 2312.4C1834.5 2315.3 1833.2 2322.6 1830.9 2324C1828.6 2325.3 1822.1 2334.1 1822.1 2334.1C1822.1 2334.1 1815.7 2327.5 1809.9 2324Z" fill="#FAC2B0"/>
<path d="M1739.9 2316.6C1747.8 2307.9 1755.1 2310.3 1758.5 2315C1761.8 2319.8 1785.2 2358.7 1785.2 2358.7C1785.2 2358.7 1799.1 2332.4 1809.9 2324C1809.9 2324 1821.7 2327.5 1822.8 2333C1823.9 2338.6 1798.8 2388.8 1792.4 2388.6C1786 2388.4 1781.7 2391.3 1770.7 2381.4C1759.8 2371.6 1743.3 2345 1738.7 2335.9C1734.1 2326.8 1738.3 2318.3 1739.9 2316.6Z" fill="#F69265"/>
<path d="M2172.9 1290.1L1882.8 2212.7L1896.5 2214.3L2186.7 1291.4L2172.9 1290.1Z" fill="#734C1E"/>
<path d="M2184.7 1287.8C2182 1286.2 2177.6 1286.2 2174.9 1287.8C2172.2 1289.4 2172.2 1291.9 2174.9 1293.5C2177.7 1295.1 2182.1 1295.1 2184.8 1293.5C2187.5 1291.9 2187.5 1289.4 2184.7 1287.8Z" fill="#593A18"/>
<path d="M1894.5 2210.7C1891.8 2209.1 1887.4 2209.1 1884.7 2210.7C1882 2212.2 1882 2214.8 1884.7 2216.4C1887.5 2217.9 1891.9 2217.9 1894.6 2216.4C1897.3 2214.8 1897.3 2212.2 1894.5 2210.7Z" fill="#734C1E"/>
<path d="M2161 1349.9C2161 1353.1 2163.2 1354.5 2166 1352.9C2168.8 1351.4 2171.1 1347.5 2171.2 1344.2C2171.2 1340.9 2169 1339.6 2166.2 1341.1C2163.4 1342.7 2161 1346.6 2161 1349.9Z" fill="#67431A"/>
<path d="M2248.1 1403.9C2249 1404.4 2250.2 1404.3 2251.6 1403.5C2254.4 1402 2256.7 1398.1 2256.8 1394.8C2256.8 1393.2 2256.2 1392 2255.3 1391.4L2169.7 1340.8C2170.6 1341.4 2171.2 1342.5 2171.2 1344.2C2171.1 1347.5 2168.8 1351.4 2166 1352.9C2164.6 1353.7 2163.4 1353.8 2162.5 1353.2C2219.4 1386.3 2191.2 1370.8 2248.1 1403.9Z" fill="#67431A"/>
<path d="M2162.5 1353.2L2248.1 1403.9C2247.1 1403.3 2246.6 1402.1 2246.6 1400.5L2161 1349.9C2161 1351.5 2161.6 1352.7 2162.5 1353.2Z" fill="#67431A"/>
<path d="M2255.3 1391.4L2169.7 1340.8C2168.8 1340.3 2167.5 1340.4 2166.2 1341.1C2163.4 1342.7 2161 1346.6 2161 1349.9L2246.6 1400.5C2246.6 1397.2 2248.9 1393.3 2251.8 1391.7C2253.1 1391 2254.4 1390.9 2255.3 1391.4Z" fill="#67431A"/>
<path d="M2246.6 1400.5C2246.6 1403.7 2248.8 1405.1 2251.6 1403.5C2254.4 1402 2256.7 1398.1 2256.8 1394.8C2256.8 1391.5 2254.6 1390.2 2251.8 1391.7C2248.9 1393.3 2246.6 1397.2 2246.6 1400.5Z" fill="#67431A"/>
<path d="M2137.2 1420.2C2137.2 1423.4 2139.4 1424.8 2142.3 1423.2C2145.1 1421.7 2147.4 1417.8 2147.4 1414.5C2147.5 1411.2 2145.2 1409.9 2142.4 1411.4C2139.6 1413 2137.3 1416.9 2137.2 1420.2Z" fill="#67431A"/>
<path d="M2224.3 1474.2C2225.2 1474.7 2226.5 1474.6 2227.9 1473.9C2230.7 1472.3 2233 1468.4 2233 1465.1C2233 1463.5 2232.5 1462.3 2231.5 1461.8L2145.9 1411.1C2146.9 1411.7 2147.4 1412.9 2147.4 1414.5C2147.4 1417.8 2145.1 1421.7 2142.3 1423.2C2140.9 1424 2139.6 1424.1 2138.7 1423.6C2195.7 1456.6 2167.4 1441.1 2224.3 1474.2Z" fill="#67431A"/>
<path d="M2138.7 1423.6L2224.3 1474.2C2223.4 1473.6 2222.8 1472.5 2222.8 1470.8L2137.2 1420.2C2137.2 1421.8 2137.8 1423 2138.7 1423.6Z" fill="#67431A"/>
<path d="M2231.5 1461.8L2145.9 1411.1C2145 1410.6 2143.8 1410.7 2142.4 1411.4C2139.6 1413 2137.3 1416.9 2137.2 1420.2L2222.8 1470.8C2222.9 1467.5 2225.2 1463.6 2228 1462.1C2229.4 1461.3 2230.6 1461.2 2231.5 1461.8Z" fill="#67431A"/>
<path d="M2222.8 1470.8C2222.8 1474.1 2225 1475.4 2227.9 1473.9C2230.7 1472.3 2233 1468.4 2233 1465.1C2233.1 1461.9 2230.8 1460.5 2228 1462.1C2225.2 1463.6 2222.9 1467.5 2222.8 1470.8Z" fill="#67431A"/>
<path d="M2113.5 1490.5C2113.4 1493.8 2115.7 1495.1 2118.5 1493.6C2121.3 1492 2123.6 1488.1 2123.7 1484.8C2123.7 1481.6 2121.5 1480.2 2118.6 1481.8C2115.8 1483.3 2113.5 1487.2 2113.5 1490.5Z" fill="#67431A"/>
<path d="M2200.6 1544.5C2201.5 1545 2202.7 1544.9 2204.1 1544.2C2206.9 1542.6 2209.2 1538.7 2209.3 1535.4C2209.3 1533.8 2208.7 1532.6 2207.8 1532.1L2122.2 1481.5C2123.1 1482 2123.7 1483.2 2123.7 1484.8C2123.6 1488.1 2121.3 1492 2118.5 1493.6C2117.1 1494.3 2115.9 1494.4 2115 1493.9C2171.9 1527 2143.6 1511.4 2200.6 1544.5Z" fill="#67431A"/>
<path d="M2115 1493.9L2200.6 1544.5C2199.6 1543.9 2199.1 1542.8 2199.1 1541.1L2113.5 1490.5C2113.5 1492.2 2114 1493.3 2115 1493.9Z" fill="#67431A"/>
<path d="M2207.8 1532.1L2122.2 1481.5C2121.3 1480.9 2120 1481 2118.6 1481.8C2115.8 1483.3 2113.5 1487.2 2113.5 1490.5L2199.1 1541.1C2199.1 1537.9 2201.4 1533.9 2204.2 1532.4C2205.6 1531.6 2206.9 1531.5 2207.8 1532.1Z" fill="#67431A"/>
<path d="M2199.1 1541.1C2199 1544.4 2201.3 1545.7 2204.1 1544.2C2206.9 1542.6 2209.2 1538.7 2209.3 1535.4C2209.3 1532.2 2207 1530.8 2204.2 1532.4C2201.4 1533.9 2199.1 1537.9 2199.1 1541.1Z" fill="#67431A"/>
<path d="M2090.8 1561C2090.8 1564.2 2093 1565.6 2095.9 1564.1C2098.7 1562.5 2101 1558.6 2101 1555.3C2101.1 1552.1 2098.8 1550.7 2096 1552.2C2093.2 1553.8 2090.9 1557.7 2090.8 1561Z" fill="#67431A"/>
<path d="M2177.9 1615C2178.8 1615.5 2180.1 1615.4 2181.5 1614.7C2184.3 1613.1 2186.6 1609.2 2186.6 1605.9C2186.6 1604.3 2186.1 1603.1 2185.1 1602.6L2099.5 1551.9C2100.5 1552.5 2101 1553.7 2101 1555.3C2101 1558.6 2098.7 1562.5 2095.9 1564.1C2094.5 1564.8 2093.2 1564.9 2092.3 1564.4C2149.3 1597.4 2121 1581.9 2177.9 1615Z" fill="#67431A"/>
<path d="M2092.3 1564.4L2177.9 1615C2177 1614.4 2176.4 1613.3 2176.4 1611.6L2090.8 1561C2090.8 1562.6 2091.4 1563.8 2092.3 1564.4Z" fill="#67431A"/>
<path d="M2185.1 1602.6L2099.5 1551.9C2098.6 1551.4 2097.4 1551.5 2096 1552.2C2093.2 1553.8 2090.9 1557.7 2090.8 1561L2176.4 1611.6C2176.5 1608.3 2178.8 1604.4 2181.6 1602.9C2183 1602.1 2184.2 1602 2185.1 1602.6Z" fill="#67431A"/>
<path d="M2176.4 1611.6C2176.4 1614.9 2178.6 1616.2 2181.5 1614.7C2184.3 1613.1 2186.6 1609.2 2186.6 1605.9C2186.7 1602.7 2184.4 1601.3 2181.6 1602.9C2178.8 1604.4 2176.5 1608.3 2176.4 1611.6Z" fill="#67431A"/>
<path d="M2071 1633.4C2070.9 1636.7 2073.2 1638.1 2076 1636.5C2078.8 1634.9 2081.1 1631 2081.1 1627.8C2081.2 1624.5 2078.9 1623.1 2076.1 1624.7C2073.3 1626.3 2071 1630.2 2071 1633.4Z" fill="#67431A"/>
<path d="M2158 1687.4C2158.9 1688 2160.2 1687.9 2161.6 1687.1C2164.4 1685.6 2166.7 1681.6 2166.7 1678.4C2166.8 1676.7 2166.2 1675.6 2165.2 1675L2079.7 1624.4C2080.6 1624.9 2081.2 1626.1 2081.1 1627.8C2081.1 1631 2078.8 1634.9 2076 1636.5C2074.6 1637.3 2073.3 1637.3 2072.4 1636.8C2129.4 1669.9 2101.1 1654.3 2158 1687.4Z" fill="#67431A"/>
<path d="M2072.4 1636.8L2158 1687.4C2157.1 1686.9 2156.5 1685.7 2156.5 1684.1L2071 1633.4C2070.9 1635.1 2071.5 1636.3 2072.4 1636.8Z" fill="#67431A"/>
<path d="M2165.2 1675L2079.7 1624.4C2078.7 1623.9 2077.5 1623.9 2076.1 1624.7C2073.3 1626.3 2071 1630.2 2071 1633.4L2156.5 1684.1C2156.6 1680.8 2158.9 1676.9 2161.7 1675.3C2163.1 1674.5 2164.3 1674.5 2165.2 1675Z" fill="#67431A"/>
<path d="M2156.5 1684.1C2156.5 1687.3 2158.8 1688.7 2161.6 1687.1C2164.4 1685.6 2166.7 1681.6 2166.7 1678.4C2166.8 1675.1 2164.5 1673.8 2161.7 1675.3C2158.9 1676.9 2156.6 1680.8 2156.5 1684.1Z" fill="#67431A"/>
<path d="M2047.7 1704.3C2047.6 1707.6 2049.9 1708.9 2052.7 1707.4C2055.5 1705.8 2057.8 1701.9 2057.8 1698.6C2057.9 1695.4 2055.6 1694 2052.8 1695.6C2050 1697.1 2047.7 1701 2047.7 1704.3Z" fill="#67431A"/>
<path d="M2134.7 1758.3C2135.6 1758.8 2136.9 1758.7 2138.3 1758C2141.1 1756.4 2143.4 1752.5 2143.4 1749.2C2143.5 1747.6 2142.9 1746.4 2141.9 1745.9L2056.4 1695.3C2057.3 1695.8 2057.9 1697 2057.8 1698.6C2057.8 1701.9 2055.5 1705.8 2052.7 1707.4C2051.3 1708.1 2050 1708.2 2049.1 1707.7C2106.1 1740.7 2077.8 1725.2 2134.7 1758.3Z" fill="#67431A"/>
<path d="M2049.1 1707.7L2134.7 1758.3C2133.8 1757.7 2133.2 1756.6 2133.2 1754.9L2047.7 1704.3C2047.6 1706 2048.2 1707.1 2049.1 1707.7Z" fill="#67431A"/>
<path d="M2141.9 1745.9L2056.4 1695.3C2055.4 1694.7 2054.2 1694.8 2052.8 1695.6C2050 1697.1 2047.7 1701 2047.7 1704.3L2133.2 1754.9C2133.3 1751.6 2135.6 1747.7 2138.4 1746.2C2139.8 1745.4 2141 1745.3 2141.9 1745.9Z" fill="#67431A"/>
<path d="M2133.2 1754.9C2133.2 1758.2 2135.5 1759.5 2138.3 1758C2141.1 1756.4 2143.4 1752.5 2143.4 1749.2C2143.5 1746 2141.2 1744.6 2138.4 1746.2C2135.6 1747.7 2133.3 1751.6 2133.2 1754.9Z" fill="#67431A"/>
<path d="M2019.8 1786.2C2019.8 1789.4 2022 1790.8 2024.8 1789.2C2027.6 1787.7 2029.9 1783.8 2030 1780.5C2030 1777.2 2027.8 1775.9 2025 1777.4C2022.2 1779 2019.8 1782.9 2019.8 1786.2Z" fill="#67431A"/>
<path d="M2106.9 1840.2C2107.8 1840.7 2109 1840.6 2110.4 1839.9C2113.2 1838.3 2115.5 1834.4 2115.6 1831.1C2115.6 1829.5 2115 1828.3 2114.1 1827.8L2028.5 1777.1C2029.4 1777.7 2030 1778.8 2030 1780.5C2029.9 1783.8 2027.6 1787.7 2024.8 1789.2C2023.4 1790 2022.2 1790.1 2021.3 1789.5C2078.2 1822.6 2050 1807.1 2106.9 1840.2Z" fill="#67431A"/>
<path d="M2021.3 1789.5L2106.9 1840.2C2105.9 1839.6 2105.4 1838.5 2105.4 1836.8L2019.8 1786.2C2019.8 1787.8 2020.3 1789 2021.3 1789.5Z" fill="#67431A"/>
<path d="M2114.1 1827.8L2028.5 1777.1C2027.6 1776.6 2026.3 1776.7 2025 1777.4C2022.2 1779 2019.8 1782.9 2019.8 1786.2L2105.4 1836.8C2105.4 1833.5 2107.7 1829.6 2110.6 1828.1C2111.9 1827.3 2113.2 1827.2 2114.1 1827.8Z" fill="#67431A"/>
<path d="M2105.4 1836.8C2105.4 1840.1 2107.6 1841.4 2110.4 1839.9C2113.2 1838.3 2115.5 1834.4 2115.6 1831.1C2115.6 1827.9 2113.4 1826.5 2110.6 1828.1C2107.7 1829.6 2105.4 1833.5 2105.4 1836.8Z" fill="#67431A"/>
<path d="M2000.1 1859.5C2000.1 1862.8 2002.3 1864.2 2005.1 1862.6C2007.9 1861 2010.2 1857.1 2010.3 1853.9C2010.3 1850.6 2008.1 1849.2 2005.3 1850.8C2002.5 1852.4 2000.1 1856.3 2000.1 1859.5Z" fill="#67431A"/>
<path d="M2087.2 1913.5C2088.1 1914 2089.3 1914 2090.7 1913.2C2093.5 1911.7 2095.8 1907.7 2095.9 1904.5C2095.9 1902.8 2095.3 1901.7 2094.4 1901.1L2008.8 1850.5C2009.7 1851 2010.3 1852.2 2010.3 1853.9C2010.2 1857.1 2007.9 1861 2005.1 1862.6C2003.7 1863.4 2002.5 1863.4 2001.6 1862.9C2058.5 1896 2030.3 1880.4 2087.2 1913.5Z" fill="#67431A"/>
<path d="M2001.6 1862.9L2087.2 1913.5C2086.2 1913 2085.7 1911.8 2085.7 1910.2L2000.1 1859.5C2000.1 1861.2 2000.7 1862.4 2001.6 1862.9Z" fill="#67431A"/>
<path d="M2094.4 1901.1L2008.8 1850.5C2007.9 1850 2006.7 1850 2005.3 1850.8C2002.5 1852.4 2000.1 1856.3 2000.1 1859.5L2085.7 1910.2C2085.7 1906.9 2088 1903 2090.9 1901.4C2092.2 1900.6 2093.5 1900.6 2094.4 1901.1Z" fill="#67431A"/>
<path d="M2085.7 1910.2C2085.7 1913.4 2087.9 1914.8 2090.7 1913.2C2093.5 1911.7 2095.8 1907.7 2095.9 1904.5C2095.9 1901.2 2093.7 1899.8 2090.9 1901.4C2088 1903 2085.7 1906.9 2085.7 1910.2Z" fill="#67431A"/>
<path d="M1977.4 1925.5C1977.4 1928.8 1979.6 1930.1 1982.4 1928.6C1985.2 1927 1987.6 1923.1 1987.6 1919.8C1987.6 1916.6 1985.4 1915.2 1982.6 1916.8C1979.8 1918.3 1977.4 1922.2 1977.4 1925.5Z" fill="#67431A"/>
<path d="M2064.5 1979.5C2065.4 1980 2066.6 1979.9 2068 1979.2C2070.8 1977.6 2073.1 1973.7 2073.2 1970.4C2073.2 1968.8 2072.6 1967.6 2071.7 1967.1L1986.1 1916.5C1987 1917 1987.6 1918.2 1987.6 1919.8C1987.6 1923.1 1985.2 1927 1982.4 1928.6C1981 1929.3 1979.8 1929.4 1978.9 1928.9C2035.8 1961.9 2007.6 1946.4 2064.5 1979.5Z" fill="#67431A"/>
<path d="M1978.9 1928.9L2064.5 1979.5C2063.6 1978.9 2063 1977.8 2063 1976.1L1977.4 1925.5C1977.4 1927.2 1978 1928.3 1978.9 1928.9Z" fill="#67431A"/>
<path d="M2071.7 1967.1L1986.1 1916.5C1985.2 1915.9 1984 1916 1982.6 1916.8C1979.8 1918.3 1977.4 1922.2 1977.4 1925.5L2063 1976.1C2063 1972.9 2065.4 1968.9 2068.2 1967.4C2069.5 1966.6 2070.8 1966.5 2071.7 1967.1Z" fill="#67431A"/>
<path d="M2063 1976.1C2063 1979.4 2065.2 1980.7 2068 1979.2C2070.8 1977.6 2073.1 1973.7 2073.2 1970.4C2073.2 1967.2 2071 1965.8 2068.2 1967.4C2065.4 1968.9 2063 1972.9 2063 1976.1Z" fill="#67431A"/>
<path d="M1957 1989.3C1956.9 1992.5 1959.2 1993.9 1962 1992.3C1964.8 1990.8 1967.1 1986.8 1967.2 1983.6C1967.2 1980.3 1964.9 1979 1962.1 1980.5C1959.3 1982.1 1957 1986 1957 1989.3Z" fill="#67431A"/>
<path d="M2044 2043.2C2045 2043.8 2046.2 2043.7 2047.6 2042.9C2050.4 2041.4 2052.7 2037.5 2052.7 2034.2C2052.8 2032.5 2052.2 2031.4 2051.3 2030.8L1965.7 1980.2C1966.6 1980.8 1967.2 1981.9 1967.2 1983.6C1967.1 1986.8 1964.8 1990.8 1962 1992.3C1960.6 1993.1 1959.4 1993.2 1958.5 1992.6C2015.4 2025.7 1987.1 2010.2 2044 2043.2Z" fill="#67431A"/>
<path d="M1958.5 1992.6L2044 2043.2C2043.1 2042.7 2042.5 2041.5 2042.6 2039.9L1957 1989.3C1957 1990.9 1957.5 1992.1 1958.5 1992.6Z" fill="#67431A"/>
<path d="M2051.3 2030.8L1965.7 1980.2C1964.8 1979.7 1963.5 1979.8 1962.1 1980.5C1959.3 1982.1 1957 1986 1957 1989.3L2042.6 2039.9C2042.6 2036.6 2044.9 2032.7 2047.7 2031.1C2049.1 2030.4 2050.4 2030.3 2051.3 2030.8Z" fill="#67431A"/>
<path d="M2042.6 2039.9C2042.5 2043.1 2044.8 2044.5 2047.6 2042.9C2050.4 2041.4 2052.7 2037.5 2052.7 2034.2C2052.8 2030.9 2050.5 2029.6 2047.7 2031.1C2044.9 2032.7 2042.6 2036.6 2042.6 2039.9Z" fill="#67431A"/>
<path d="M1935.4 2059.6C1935.3 2062.8 1937.6 2064.2 1940.4 2062.6C1943.2 2061.1 1945.5 2057.2 1945.5 2053.9C1945.6 2050.6 1943.3 2049.3 1940.5 2050.8C1937.7 2052.4 1935.4 2056.3 1935.4 2059.6Z" fill="#67431A"/>
<path d="M2022.4 2113.6C2023.3 2114.1 2024.6 2114 2026 2113.3C2028.8 2111.7 2031.1 2107.8 2031.1 2104.5C2031.2 2102.9 2030.6 2101.7 2029.6 2101.2L1944.1 2050.5C1945 2051.1 1945.6 2052.2 1945.5 2053.9C1945.5 2057.2 1943.2 2061.1 1940.4 2062.6C1939 2063.4 1937.7 2063.5 1936.8 2062.9C1993.8 2096 1965.5 2080.5 2022.4 2113.6Z" fill="#67431A"/>
<path d="M1936.8 2062.9L2022.4 2113.6C2021.5 2113 2020.9 2111.9 2020.9 2110.2L1935.4 2059.6C1935.3 2061.2 1935.9 2062.4 1936.8 2062.9Z" fill="#67431A"/>
<path d="M2029.6 2101.2L1944.1 2050.5C1943.1 2050 1941.9 2050.1 1940.5 2050.8C1937.7 2052.4 1935.4 2056.3 1935.4 2059.6L2020.9 2110.2C2021 2106.9 2023.3 2103 2026.1 2101.5C2027.5 2100.7 2028.7 2100.6 2029.6 2101.2Z" fill="#67431A"/>
<path d="M2020.9 2110.2C2020.9 2113.5 2023.2 2114.8 2026 2113.3C2028.8 2111.7 2031.1 2107.8 2031.1 2104.5C2031.2 2101.3 2028.9 2099.9 2026.1 2101.5C2023.3 2103 2021 2106.9 2020.9 2110.2Z" fill="#67431A"/>
<path d="M1913.2 2132.7C1913.2 2136 1915.4 2137.4 1918.2 2135.8C1921 2134.2 1923.4 2130.3 1923.4 2127.1C1923.4 2123.8 1921.2 2122.4 1918.4 2124C1915.6 2125.6 1913.2 2129.5 1913.2 2132.7Z" fill="#67431A"/>
<path d="M2000.3 2186.7C2001.2 2187.2 2002.4 2187.2 2003.8 2186.4C2006.6 2184.8 2008.9 2180.9 2009 2177.7C2009 2176 2008.4 2174.8 2007.5 2174.3L1921.9 2123.7C1922.8 2124.2 1923.4 2125.4 1923.4 2127.1C1923.4 2130.3 1921 2134.2 1918.2 2135.8C1916.8 2136.6 1915.6 2136.6 1914.7 2136.1C1971.6 2169.2 1943.4 2153.6 2000.3 2186.7Z" fill="#67431A"/>
<path d="M1914.7 2136.1L2000.3 2186.7C1999.3 2186.2 1998.8 2185 1998.8 2183.3L1913.2 2132.7C1913.2 2134.4 1913.8 2135.6 1914.7 2136.1Z" fill="#67431A"/>
<path d="M2007.5 2174.3L1921.9 2123.7C1921 2123.2 1919.8 2123.2 1918.4 2124C1915.6 2125.6 1913.2 2129.5 1913.2 2132.7L1998.8 2183.3C1998.8 2180.1 2001.2 2176.2 2004 2174.6C2005.3 2173.8 2006.6 2173.8 2007.5 2174.3Z" fill="#67431A"/>
<path d="M1998.8 2183.3C1998.8 2186.6 2001 2188 2003.8 2186.4C2006.6 2184.8 2008.9 2180.9 2009 2177.7C2009 2174.4 2006.8 2173 2004 2174.6C2001.2 2176.2 1998.8 2180.1 1998.8 2183.3Z" fill="#67431A"/>
<path d="M2266.5 1325.4L1976.4 2248L1990.1 2249.6L2280.3 1326.7L2266.5 1325.4Z" fill="#734C1E"/>
<path d="M2278.3 1323.1C2275.6 1321.5 2271.2 1321.5 2268.5 1323.1C2265.8 1324.7 2265.8 1327.2 2268.5 1328.8C2271.3 1330.4 2275.7 1330.4 2278.4 1328.8C2281.1 1327.2 2281.1 1324.7 2278.3 1323.1Z" fill="#593A18"/>
<path d="M1988.1 2245.9C1985.4 2244.4 1981 2244.4 1978.3 2245.9C1975.6 2247.5 1975.6 2250.1 1978.3 2251.6C1981.1 2253.2 1985.5 2253.2 1988.2 2251.7C1990.9 2250.1 1990.9 2247.5 1988.1 2245.9Z" fill="#734C1E"/>
<path d="M2050.4 1780.1C2050.4 1780.1 2040.9 1787.6 2041.2 1792.5C2041.6 1797.4 2050.8 1804.9 2061.2 1809.1C2071.5 1813.2 2083.4 1820.9 2084.6 1819.3C2087.9 1814.8 2066 1790.8 2067.9 1784.7L2050.4 1780.1Z" fill="#2F3116"/>
<path d="M1998.4 1865.3C1998.4 1865.3 1995.5 1873.4 1997.4 1884.2C1997.4 1884.2 2006.7 1890.8 2016.7 1887.1C2026.6 1883.3 2025.8 1875 2031.2 1873.2C2036.6 1871.3 2047.2 1868.8 2045.5 1863.6C2043.9 1858.4 2036.8 1854.8 2029.5 1858.5C2022.3 1862.2 1998.4 1865.3 1998.4 1865.3Z" fill="#2F3116"/>
<path d="M1998.4 1714.1C1998.4 1714.1 2010.2 1749.6 2036.1 1746.6C2061.9 1743.6 2075.3 1728.6 2075.3 1728.6C2075.3 1728.6 2063.2 1738.9 2062.1 1746.8C2061.1 1754.7 2048.7 1780.5 2048.7 1780.5C2048.7 1780.5 2058.4 1789.1 2068.1 1789.1C2068.1 1789.1 2114.3 1718.1 2114.3 1704.6C2114.3 1691.2 2100.9 1691.5 2094.4 1691.5C2088 1691.5 2003.8 1709.5 2003.8 1709.5L1998.4 1714.1Z" fill="#253B7E"/>
<path d="M1982.1 1700C1982.1 1700 1969.7 1714 1992.3 1791.8C1992.3 1791.8 1988.7 1819.4 1996.8 1866.2C1996.8 1866.2 1999.6 1871.7 2018.4 1864.4C2018.4 1864.4 2023.3 1807.1 2025 1789.1C2026.7 1771.1 2027.1 1710.3 2027.1 1710.3L1982.1 1700Z" fill="#253B7E"/>
<path d="M2156.3 1653.4C2156.3 1653.4 2175.3 1644.7 2177.5 1647.5C2179.7 1650.2 2171.4 1654.8 2171.4 1654.8C2171.4 1654.8 2186.5 1657.7 2191.1 1656.9C2195.7 1656.1 2187.5 1668.4 2182.5 1668.8C2177.5 1669.1 2163.4 1671 2154.1 1668.7L2156.3 1653.4Z" fill="#FAC2B0"/>
<path d="M2101.6 1584.2C2101.6 1584.2 2118.3 1583.1 2121 1580.6C2123.8 1578.2 2114 1574.7 2114 1574.7C2114 1574.7 2120.6 1567.9 2124.7 1568.8C2128.8 1569.6 2128 1566.9 2125.9 1563.8C2123.8 1560.7 2109.5 1555.2 2104.7 1557.3C2099.8 1559.5 2092.5 1572.6 2092.5 1572.6L2101.6 1584.2Z" fill="#FAC2B0"/>
<path d="M2027.4 1597.4C2027.4 1597.4 2053.6 1599.9 2057.7 1597.4C2061.8 1595 2092.5 1572.6 2092.5 1572.6C2092.5 1572.6 2100.8 1578.5 2101.6 1584.2C2101.6 1584.2 2070 1611.8 2065 1613.4C2060 1615 2034.1 1616.4 2023 1616.4C2011.9 1616.4 2014 1609.7 2015.2 1604.6C2016.3 1599.4 2022.7 1597 2027.4 1597.4Z" fill="#608AC7"/>
<path d="M2032.5 1594.8C2032.5 1594.8 2059.2 1611.6 2060.3 1619.8C2061.3 1627.9 2052.9 1656 2052.9 1665.8C2052.9 1675.6 2052 1703.6 2052 1703.6C2052 1703.6 2038.4 1726.8 2008.9 1721.3C1979.3 1715.7 1975.8 1702 1976.6 1696.8C1977.3 1691.7 1982.5 1659.4 1981.3 1648.9C1980.1 1638.3 1970.9 1584.3 1994.5 1579.4C1994.5 1579.4 2008.7 1578.9 2032.5 1594.8Z" fill="#5380C0"/>
<path d="M2039.7 1624.4C2044.1 1610.4 2054.1 1610.8 2070.3 1619.8C2086.5 1628.9 2104.4 1640.7 2104.4 1640.7C2104.4 1640.7 2139.5 1645.9 2156.3 1653.4C2156.3 1653.4 2158.4 1665.3 2154.1 1668.7C2154.1 1668.7 2109.4 1669.2 2098.3 1664.9C2087.1 1660.6 2053.5 1648.3 2046.6 1642.5C2039.7 1636.6 2038.7 1627.5 2039.7 1624.4Z" fill="#608AC7"/>
<path d="M2026.4 1538.3C2039.5 1541.2 2047.5 1546.1 2048.4 1552.7C2049.3 1559.2 2052.6 1589.5 2044.2 1591.2C2035.8 1592.8 2019.6 1592.8 2016.7 1573.7C2013.8 1554.5 2014.1 1535.5 2026.4 1538.3Z" fill="#FAC2B0"/>
<path d="M2008.1 1586.3L2007.3 1590.8C2007.3 1590.8 2012.6 1597.7 2032.5 1594.8L2038.7 1577.8L2009.8 1570.1L2008.1 1586.3Z" fill="#FAC2B0"/>
<path d="M2019.1 1574.7C2019.1 1574.7 2026.8 1573.1 2031.9 1561.7C2031.9 1561.7 2049.3 1561.5 2057.7 1546.5C2057.7 1546.5 2038.2 1533.9 2022.1 1531.9C2006.1 1530 1999.8 1541.1 2000 1546.8C2000 1546.8 1988.5 1552.4 1993.6 1564.9C1998.7 1577.4 2008.1 1586.3 2008.1 1586.3C2008.1 1586.3 2016 1581.7 2019.1 1574.7Z" fill="#76411A"/>
<path d="M2023.3 1574.9C2023.3 1574.9 2017.5 1566.2 2013 1569.5C2008.5 1572.8 2017.3 1580.2 2023.3 1580.6V1574.9Z" fill="#FAC2B0"/>
</svg>
