<svg width="750" height="500" viewBox="0 0 750 500" fill="none" xmlns="http://www.w3.org/2000/svg">
<path d="M238.114 64.424H87.203V183.277H238.114V64.424Z" fill="#E0E0E0"/>
<path opacity="0.9" d="M230.14 72.343H94.924V175.357H230.14V72.343Z" fill="#F5F5F5"/>
<path d="M223.296 81.398H102.209V167.743H223.296V81.398Z" fill="white"/>
<path opacity="0.9" d="M207.36 97.893H122.868V149.809H207.36V97.893Z" fill="#F5F5F5"/>
<path d="M665.164 64.424H514.253V183.277H665.164V64.424Z" fill="#E0E0E0"/>
<path opacity="0.9" d="M657.191 72.343H521.975V175.357H657.191V72.343Z" fill="#F5F5F5"/>
<path d="M650.347 81.398H529.26V167.743H650.347V81.398Z" fill="white"/>
<path opacity="0.9" d="M634.411 97.893H549.919V149.809H634.411V97.893Z" fill="#F5F5F5"/>
<path d="M673.734 314.857H492.988C489.756 314.857 487.126 312.227 487.126 308.995V45.722C487.126 42.49 489.756 39.86 492.988 39.86H673.734C676.966 39.86 679.596 42.489 679.596 45.722V308.995C679.596 312.227 676.966 314.857 673.734 314.857ZM492.988 40.11C489.893 40.11 487.376 42.628 487.376 45.722V308.995C487.376 312.09 489.894 314.607 492.988 314.607H673.734C676.829 314.607 679.346 312.089 679.346 308.995V45.722C679.346 42.628 676.828 40.11 673.734 40.11H492.988Z" fill="#E0E0E0"/>
<path d="M465.306 314.857H284.56C281.328 314.857 278.698 312.227 278.698 308.995V45.722C278.698 42.49 281.327 39.86 284.56 39.86H465.307C468.539 39.86 471.169 42.489 471.169 45.722V308.995C471.168 312.227 468.538 314.857 465.306 314.857ZM284.56 40.11C281.466 40.11 278.948 42.628 278.948 45.722V308.995C278.948 312.09 281.466 314.607 284.56 314.607H465.307C468.402 314.607 470.919 312.089 470.919 308.995V45.722C470.919 42.628 468.401 40.11 465.307 40.11H284.56Z" fill="#E0E0E0"/>
<path d="M257.012 314.857H76.266C73.034 314.857 70.404 312.227 70.404 308.995V45.722C70.404 42.49 73.033 39.86 76.266 39.86H257.012C260.244 39.86 262.874 42.489 262.874 45.722V308.995C262.875 312.227 260.245 314.857 257.012 314.857ZM76.266 40.11C73.172 40.11 70.654 42.628 70.654 45.722V308.995C70.654 312.09 73.172 314.607 76.266 314.607H257.012C260.107 314.607 262.624 312.089 262.624 308.995V45.722C262.624 42.628 260.106 40.11 257.012 40.11H76.266Z" fill="#E0E0E0"/>
<path d="M750 375.927H0V376.047H750V375.927Z" fill="#E0E0E0"/>
<path d="M709.355 405.303H653.626V405.724H709.355V405.303Z" fill="#EBEBEB"/>
<path d="M509.671 409.868H495.044V410.289H509.671V409.868Z" fill="#EBEBEB"/>
<path d="M113.319 392.505H40.645V392.926H113.319V392.505Z" fill="#EBEBEB"/>
<path d="M138.955 392.505H128.299V392.926H138.955V392.505Z" fill="#EBEBEB"/>
<path d="M331.199 399.609H173.586V400.03H331.199V399.609Z" fill="#EBEBEB"/>
<path d="M70.268 353.112C70.254 352.672 68.774 309.008 61.672 302.102C54.764 295.387 46.836 301.852 46.503 302.13L45.791 301.277C45.881 301.201 54.828 293.897 62.448 301.305C69.869 308.522 71.321 351.262 71.379 353.078L70.268 353.112Z" fill="#E0E0E0"/>
<path d="M70.877 361.694C70.826 361.172 66.023 309.275 84.976 287.523L85.814 288.252C67.175 309.643 71.933 361.068 71.983 361.585L70.877 361.694Z" fill="#E0E0E0"/>
<path d="M70.177 356.204L69.068 356.13C69.107 355.542 72.777 297.13 58.875 284.343L59.627 283.524C73.918 296.671 70.336 353.779 70.177 356.204Z" fill="#E0E0E0"/>
<path d="M71.986 356.171L70.875 356.162C70.888 354.553 71.334 316.707 82.084 310.547C84.474 309.176 86.814 308.948 89.04 309.868C95.54 312.557 98.762 324.126 98.896 324.617L97.824 324.91C97.792 324.795 94.612 313.375 88.615 310.895C86.725 310.114 84.714 310.321 82.638 311.511C72.435 317.357 71.989 355.784 71.986 356.171Z" fill="#E0E0E0"/>
<path d="M67.8 356.199L66.691 356.136C66.708 355.837 68.313 326.229 60.322 315.796C58.386 313.269 56.284 312.064 54.064 312.219C48.828 312.585 44.438 320.247 44.394 320.324L43.426 319.777C43.617 319.44 48.153 311.519 53.985 311.111C56.594 310.925 59.026 312.277 61.205 315.121C69.445 325.88 67.871 354.966 67.8 356.199Z" fill="#E0E0E0"/>
<path d="M69.552 360.226C69.334 357.354 64.328 289.747 73.137 277.834L74.03 278.494C65.465 290.078 70.608 359.442 70.66 360.141L69.552 360.226Z" fill="#E0E0E0"/>
<path d="M91.435 316.721C91.435 316.721 86.151 318.669 87.722 323.268C89.293 327.867 106.002 335.436 106.002 335.436C106.002 335.436 113 329.022 106.573 318.59C100.146 308.158 91.578 313.429 91.435 316.721Z" fill="#EBEBEB"/>
<path d="M68.463 307.966C68.463 307.966 74.09 307.73 74.41 312.58C74.73 317.429 62.22 330.846 62.22 330.846C62.22 330.846 53.293 327.619 55.21 315.517C57.128 303.415 67.065 304.983 68.463 307.966Z" fill="#EBEBEB"/>
<path d="M63.699 284.753C63.699 284.753 67.45 284.35 67.149 282.065C66.847 279.78 52.566 273.899 44.14 283.409C44.14 283.409 49.535 292.677 57.334 292.798C65.133 292.919 63.699 284.753 63.699 284.753Z" fill="#EBEBEB"/>
<path d="M70.69 279.203C70.69 279.203 67.293 280.846 66.341 278.746C65.389 276.647 74.399 264.103 86.58 267.717C86.58 267.717 86.903 278.436 80.348 282.664C73.792 286.892 70.69 279.203 70.69 279.203Z" fill="#EBEBEB"/>
<path d="M52.928 314.872C52.928 314.872 55.517 312.782 52.723 311.761C49.929 310.741 36.219 311.031 36.076 324.611C36.076 324.611 52.044 327.265 54.02 322.091C55.997 316.919 52.928 314.872 52.928 314.872Z" fill="#EBEBEB"/>
<path d="M85.49 284.412C85.49 284.412 82.901 282.321 85.695 281.301C88.489 280.281 102.199 280.571 102.342 294.151C102.342 294.151 86.374 296.805 84.398 291.631C82.421 286.459 85.49 284.412 85.49 284.412Z" fill="#EBEBEB"/>
<path d="M77.048 295.352C77.048 295.352 76.82 292.811 78.872 293.807C80.924 294.803 88.071 302.514 80.662 309.831C80.662 309.831 70.689 302.445 72.487 298.598C74.284 294.752 77.048 295.352 77.048 295.352Z" fill="#EBEBEB"/>
<path d="M50.613 298.974C50.613 298.974 52.161 296.946 49.894 296.694C47.627 296.443 37.469 299.154 39.835 309.295C39.835 309.295 52.21 308.365 52.741 304.152C53.271 299.939 50.613 298.974 50.613 298.974Z" fill="#EBEBEB"/>
<path d="M82.389 375.76H57.428L50.788 345.135H88.398L82.389 375.76Z" fill="#EEEEEE"/>
<path d="M90.565 344.692H48.524V353.499H90.565V344.692Z" fill="#E3E3E3"/>
<path d="M709.355 249.868H392.017V374.165H709.355V249.868Z" fill="#F5F5F5"/>
<path d="M709.355 245.388H388.115V256.481H709.355V245.388Z" fill="#F5F5F5"/>
<path d="M474.044 261.652H400.299V363.718H474.044V261.652Z" stroke="#E0E0E0" stroke-miterlimit="10"/>
<path d="M555.304 261.652H481.559V363.718H555.304V261.652Z" stroke="#E0E0E0" stroke-miterlimit="10"/>
<path d="M636.564 261.652H562.819V363.718H636.564V261.652Z" stroke="#E0E0E0" stroke-miterlimit="10"/>
<path d="M703.066 261.652H644.079V363.718H703.066V261.652Z" stroke="#E0E0E0" stroke-miterlimit="10"/>
<path d="M394.733 258.518C435.472 258.518 476.211 258.518 516.95 258.518C557.481 258.518 598.012 258.518 638.543 258.518C661.407 258.518 684.27 258.518 707.134 258.518C709.064 258.518 709.067 255.518 707.134 255.518C666.395 255.518 625.656 255.518 584.918 255.518C544.387 255.518 503.856 255.518 463.325 255.518C440.461 255.518 417.598 255.518 394.734 255.518C392.802 255.518 392.799 258.518 394.733 258.518Z" fill="#E0E0E0"/>
<path d="M581.411 455.088C581.411 458.475 469.331 461.22 331.073 461.22C192.815 461.22 80.735 458.475 80.735 455.088C80.735 451.701 192.815 448.956 331.073 448.956C469.331 448.956 581.411 451.701 581.411 455.088Z" fill="#F5F5F5"/>
<path d="M640.727 390.728C640.011 387.767 639.29 384.775 639.263 381.728C639.236 378.682 639.965 375.531 641.872 373.156C643.406 371.246 645.603 369.943 647.089 367.996C649.582 364.729 649.847 359.965 652.936 357.255C654.998 355.447 657.889 354.961 660.265 353.593C662.674 352.205 664.463 349.967 666.648 348.248C668.833 346.529 671.832 345.322 674.372 346.455C677.562 347.878 678.298 352.196 677.446 355.583C676.594 358.97 674.642 362.037 674.072 365.483C673.677 367.872 673.873 370.591 672.248 372.386C670.534 374.279 667.48 374.314 665.576 376.016C663.553 377.824 663.427 380.87 662.679 383.477C661.458 387.735 658.132 391.334 653.982 392.887C649.833 394.439 644.961 393.907 641.245 391.496" fill="#FF9E22"/>
<path d="M641.709 347.833C638.818 346.873 635.898 345.9 633.299 344.31C630.7 342.72 628.414 340.434 627.408 337.558C626.599 335.245 626.658 332.692 625.792 330.4C624.34 326.556 620.439 323.808 619.776 319.753C619.334 317.047 620.453 314.337 620.55 311.597C620.649 308.818 619.697 306.117 619.395 303.352C619.094 300.588 619.658 297.405 621.963 295.851C624.859 293.899 628.912 295.56 631.335 298.076C633.758 300.592 635.326 303.872 637.947 306.18C639.765 307.78 642.175 309.053 642.837 311.383C643.535 313.839 641.948 316.449 642.384 318.965C642.847 321.638 645.364 323.358 647.18 325.373C650.146 328.664 651.438 333.391 650.558 337.733C649.678 342.075 646.648 345.926 642.634 347.802" fill="#FF9E22"/>
<g opacity="0.2">
<path d="M641.709 347.833C638.818 346.873 635.898 345.9 633.299 344.31C630.7 342.72 628.414 340.434 627.408 337.558C626.599 335.245 626.658 332.692 625.792 330.4C624.34 326.556 620.439 323.808 619.776 319.753C619.334 317.047 620.453 314.337 620.55 311.597C620.649 308.818 619.697 306.117 619.395 303.352C619.094 300.588 619.658 297.405 621.963 295.851C624.859 293.899 628.912 295.56 631.335 298.076C633.758 300.592 635.326 303.872 637.947 306.18C639.765 307.78 642.175 309.053 642.837 311.383C643.535 313.839 641.948 316.449 642.384 318.965C642.847 321.638 645.364 323.358 647.18 325.373C650.146 328.664 651.438 333.391 650.558 337.733C649.678 342.075 646.648 345.926 642.634 347.802" fill="black"/>
</g>
<path d="M636.534 379.277C634.745 380.768 632.936 382.272 630.856 383.319C628.776 384.366 626.37 384.93 624.097 384.424C622.269 384.017 620.634 382.95 618.797 382.589C615.715 381.982 612.358 383.409 609.457 382.206C607.521 381.403 606.212 379.584 604.471 378.416C602.706 377.232 600.567 376.762 598.651 375.844C596.734 374.926 594.894 373.276 594.814 371.153C594.713 368.485 597.426 366.522 600.036 365.963C602.646 365.404 605.409 365.707 607.964 364.934C609.736 364.398 611.534 363.346 613.314 363.854C615.191 364.39 616.246 366.473 618.056 367.204C619.979 367.981 622.11 367.039 624.151 366.671C627.484 366.071 631.075 367.137 633.54 369.458C636.005 371.779 637.285 375.3 636.887 378.662" fill="#FF9E22"/>
<g opacity="0.2">
<path d="M636.534 379.277C634.745 380.768 632.936 382.272 630.856 383.319C628.776 384.366 626.37 384.93 624.097 384.424C622.269 384.017 620.634 382.95 618.797 382.589C615.715 381.982 612.358 383.409 609.457 382.206C607.521 381.403 606.212 379.584 604.471 378.416C602.706 377.232 600.567 376.762 598.651 375.844C596.734 374.926 594.894 373.276 594.814 371.153C594.713 368.485 597.426 366.522 600.036 365.963C602.646 365.404 605.409 365.707 607.964 364.934C609.736 364.398 611.534 363.346 613.314 363.854C615.191 364.39 616.246 366.473 618.056 367.204C619.979 367.981 622.11 367.039 624.151 366.671C627.484 366.071 631.075 367.137 633.54 369.458C636.005 371.779 637.285 375.3 636.887 378.662" fill="black"/>
</g>
<path d="M635.883 369.4C632.809 369.886 629.703 370.373 626.598 370.15C623.494 369.927 620.346 368.926 618.084 366.788C616.265 365.069 615.12 362.725 613.258 361.051C610.137 358.244 605.307 357.582 602.802 354.213C601.13 351.965 600.874 348.981 599.676 346.449C598.461 343.881 596.33 341.877 594.759 339.51C593.188 337.144 592.207 333.99 593.569 331.498C595.28 328.367 599.738 327.973 603.117 329.118C606.496 330.264 609.458 332.504 612.92 333.368C615.32 333.967 618.105 333.991 619.799 335.794C621.585 337.695 621.37 340.808 622.946 342.887C624.621 345.096 627.711 345.474 630.305 346.451C634.541 348.045 637.932 351.728 639.171 356.081C640.41 360.434 639.468 365.35 636.707 368.936" fill="#FF9E22"/>
<path d="M639.5 351.973C638.094 348.772 636.676 345.535 636.031 342.099C635.386 338.662 635.574 334.956 637.251 331.887C638.599 329.419 640.819 327.505 642.105 325.004C644.263 320.81 643.602 315.373 646.546 311.689C648.511 309.23 651.68 308.099 654.089 306.073C656.532 304.019 658.101 301.13 660.223 298.747C662.345 296.364 665.491 294.396 668.589 295.164C672.48 296.129 674.183 300.86 673.904 304.859C673.625 308.858 672.037 312.717 672.088 316.726C672.123 319.505 672.893 322.538 671.419 324.894C669.864 327.379 666.42 328.034 664.611 330.341C662.69 332.792 663.161 336.259 662.842 339.356C662.321 344.414 659.288 349.151 654.912 351.742C650.537 354.333 644.925 354.714 640.239 352.739" fill="#FF9E22"/>
<path d="M635.598 398.946C645.979 382.992 657.979 368.112 670.307 353.635C670.618 353.269 670.09 352.737 669.777 353.105C657.408 367.629 645.365 382.562 634.95 398.568C634.686 398.973 635.336 399.35 635.598 398.946Z" fill="#263238"/>
<path d="M635.649 398.757C634.654 386.581 637.156 374.11 640.288 362.403C643.82 349.201 648.648 336.244 654.897 324.082C657.876 318.285 661.199 312.602 665.235 307.47C665.53 307.095 665.003 306.56 664.705 306.94C657.116 316.59 651.708 327.988 647.178 339.333C642.028 352.232 637.972 365.734 635.894 379.486C634.933 385.845 634.374 392.332 634.9 398.757C634.938 399.234 635.689 399.239 635.649 398.757Z" fill="#263238"/>
<path d="M636.994 368.599C633.866 362.241 627.915 358.16 622.244 354.252C615.329 349.486 609.143 344.158 604.183 337.323C603.902 336.936 603.251 337.31 603.535 337.702C608.245 344.192 614.048 349.482 620.616 354.037C626.572 358.168 633.041 362.26 636.346 368.978C636.56 369.41 637.207 369.03 636.994 368.599Z" fill="#263238"/>
<path d="M663.116 397.192H611.012C611.012 397.192 609.064 431.291 625.51 444.787L619.569 451.864H655.509L648.72 444.43C648.72 444.43 662.255 438.591 663.116 397.192Z" fill="#263238"/>
<g opacity="0.3">
<path d="M627.704 400.222L614.108 400.344C614.805 407.691 615.511 415.085 617.504 422.191C619.497 429.297 622.872 436.174 628.218 441.262C624.775 428.112 626.137 413.724 627.704 400.222Z" fill="white"/>
</g>
<path d="M541.994 150.232L545.16 153.717L548.458 157.257C550.656 159.598 552.855 161.885 555.119 164.083C556.218 165.182 557.317 166.282 558.494 167.249C559.67 168.216 560.693 169.25 561.847 170.14C563.001 171.03 564.045 171.822 565.068 172.503C565.838 173.019 566.646 173.475 567.486 173.866L565.804 173.602C565.305 173.542 564.801 173.654 564.375 173.921C564.375 173.921 564.639 173.921 565.013 173.701C566.034 173.076 566.981 172.338 567.838 171.503C570.089 169.364 572.193 167.076 574.137 164.655C576.237 162.138 578.281 159.456 580.315 156.74C582.349 154.025 584.382 151.244 586.383 148.506L586.482 148.385C588.136 146.203 591.246 145.775 593.428 147.429C595.071 148.674 595.771 150.805 595.188 152.782C594.075 156.256 592.787 159.672 591.33 163.016C589.89 166.314 588.296 169.612 586.493 172.909C584.623 176.339 582.46 179.601 580.029 182.659C578.579 184.467 576.943 186.118 575.148 187.584C573.958 188.546 572.655 189.358 571.268 190.002C569.23 190.952 566.997 191.411 564.749 191.343C564.334 191.327 563.922 191.272 563.518 191.178L563.056 191.079C560.648 190.502 558.319 189.634 556.12 188.496C554.278 187.558 552.498 186.504 550.789 185.341C547.655 183.231 544.665 180.914 541.841 178.405C539.071 175.998 536.499 173.48 534.003 170.919C532.772 169.622 531.541 168.325 530.365 166.984C529.189 165.643 528.057 164.335 526.814 162.807C523.715 158.307 524.851 152.147 529.351 149.048C533.197 146.399 538.372 146.801 541.764 150.012L541.994 150.232Z" fill="#FF9E22"/>
<path opacity="0.8" d="M541.994 150.232L545.16 153.717L548.458 157.257C550.656 159.598 552.855 161.885 555.119 164.083C556.218 165.182 557.317 166.282 558.494 167.249C559.67 168.216 560.693 169.25 561.847 170.14C563.001 171.03 564.045 171.822 565.068 172.503C565.838 173.019 566.646 173.475 567.486 173.866L565.804 173.602C565.305 173.542 564.801 173.654 564.375 173.921C564.375 173.921 564.639 173.921 565.013 173.701C566.034 173.076 566.981 172.338 567.838 171.503C570.089 169.364 572.193 167.076 574.137 164.655C576.237 162.138 578.281 159.456 580.315 156.74C582.349 154.025 584.382 151.244 586.383 148.506L586.482 148.385C588.136 146.203 591.246 145.775 593.428 147.429C595.071 148.674 595.771 150.805 595.188 152.782C594.075 156.256 592.787 159.672 591.33 163.016C589.89 166.314 588.296 169.612 586.493 172.909C584.623 176.339 582.46 179.601 580.029 182.659C578.579 184.467 576.943 186.118 575.148 187.584C573.958 188.546 572.655 189.358 571.268 190.002C569.23 190.952 566.997 191.411 564.749 191.343C564.334 191.327 563.922 191.272 563.518 191.178L563.056 191.079C560.648 190.502 558.319 189.634 556.12 188.496C554.278 187.558 552.498 186.504 550.789 185.341C547.655 183.231 544.665 180.914 541.841 178.405C539.071 175.998 536.499 173.48 534.003 170.919C532.772 169.622 531.541 168.325 530.365 166.984C529.189 165.643 528.057 164.335 526.814 162.807C523.715 158.307 524.851 152.147 529.351 149.048C533.197 146.399 538.372 146.801 541.764 150.012L541.994 150.232Z" fill="white"/>
<path d="M591.306 154.442L601.1 154.915L597.923 141.724C597.923 141.724 588.81 142.395 587.348 147.077C587.195 147.599 587.226 148.158 587.436 148.66L589.239 152.98C589.587 153.827 590.392 154.396 591.306 154.442Z" fill="#FDBBB5"/>
<path d="M609.84 147.088L607.949 142.691C607.189 140.931 605.272 139.975 603.409 140.426L597.913 141.778L601.09 154.969L607.686 152.309C609.702 151.513 610.691 149.233 609.895 147.217C609.876 147.175 609.858 147.131 609.84 147.088Z" fill="#FDBBB5"/>
<path d="M628.131 145.857H567.101V147.594H628.131V145.857Z" fill="#FF9E22"/>
<path d="M626.856 147.594H568.376L570.618 148.814H624.625L626.856 147.594Z" fill="#FF9E22"/>
<path opacity="0.2" d="M626.856 147.594H568.376L570.618 148.814H624.625L626.856 147.594Z" fill="black"/>
<path d="M600.133 121.322C600.139 122.712 599.017 123.844 597.627 123.85C596.237 123.856 595.105 122.734 595.099 121.344C595.093 119.954 596.215 118.822 597.605 118.816C597.609 118.816 597.612 118.816 597.616 118.816C599 118.81 600.127 119.927 600.133 121.311C600.133 121.315 600.133 121.318 600.133 121.322Z" fill="#FF9E22"/>
<path d="M623.998 137.8C622.303 132.551 619.08 127.928 614.742 124.521L615.424 123.653C619.938 127.198 623.291 132.009 625.053 137.471L623.998 137.8Z" fill="#FF9E22"/>
<path d="M610.928 121.993C609.696 121.313 608.413 120.728 607.092 120.245L607.466 119.212C608.841 119.729 610.175 120.35 611.456 121.07L610.928 121.993Z" fill="#FF9E22"/>
<path d="M597.616 121.322C583.829 121.322 572.652 132.499 572.652 146.286H622.58C622.58 132.499 611.403 121.322 597.616 121.322Z" fill="#FF9E22"/>
<path opacity="0.3" d="M576.092 144.055H582.545C583.005 144.047 583.396 143.716 583.479 143.263C584.776 136.426 588.854 130.468 595.34 125.29C595.714 124.99 595.773 124.443 595.473 124.069C595.285 123.835 594.99 123.715 594.692 123.751C584.615 125.081 576.637 132.924 575.136 142.977C575.069 143.501 575.44 143.98 575.964 144.047C576.007 144.052 576.049 144.055 576.092 144.055Z" fill="white"/>
<path d="M518.833 337.116C508.434 291.376 502.003 236.227 502.003 236.227L544.643 235.545C544.643 235.545 544.049 309.866 544.137 340.996C544.247 373.369 548.95 437.516 548.95 437.516L528.792 439.249C528.792 439.249 516.854 377.129 518.833 337.116Z" fill="#263238"/>
<path d="M515.513 274.008L508.764 284.011C510.776 296.499 513.161 310.25 515.942 323.727C517.107 303.017 516.909 278.955 515.513 274.008Z" fill="black"/>
<path d="M479.171 335.83C484.107 289.826 479.248 255.276 485.261 232.609L528.792 235.841C528.792 235.841 512.622 308.809 505.114 339.171C497.606 369.532 491.219 440.002 491.219 440.002L471.65 437.725C471.65 437.725 469.003 371.402 479.171 335.83Z" fill="#263238"/>
<path d="M501.923 145.417C506.79 140.046 503.934 127.155 502.044 120.245L519.38 131.746C519.106 132.59 518.892 133.452 518.736 134.326C518.401 135.894 518.544 136.429 518.546 139.173C518.773 141.712 519.349 144.622 519.481 144.061C519.481 144.061 522.609 147.65 511.979 148.829C507.372 149.849 501.923 145.417 501.923 145.417Z" fill="#FDBBB5"/>
<path opacity="0.2" d="M505.762 127.044C505.889 135.376 514.256 138.815 518.586 139.589C518.534 137.826 518.411 135.908 518.745 134.34L505.762 127.044Z" fill="black"/>
<path d="M498.58 114.456C501.758 123.91 503.354 129.306 509.671 132.883C519.174 138.264 529.981 130.838 529.777 120.593C529.593 111.372 524.427 97.461 513.717 96.269C503.166 95.095 495.402 105.002 498.58 114.456Z" fill="#FDBBB5"/>
<path d="M497.86 120.478C500.335 122.228 503.723 124.834 506.333 123.292C507.293 116.783 506.599 107.406 503.558 104.424C508.197 104.357 526.064 103.179 526.438 96.816C526.858 89.983 519.209 84.501 515.085 84.874C512.714 85.603 514.168 90.343 509.574 90.412C504.98 90.481 488.279 90.957 492.104 99.043C486.255 100.29 486.854 111.283 492.001 114.445C494.347 117.278 495.479 118.246 497.86 120.478Z" fill="#263238"/>
<path d="M496.812 123.494C498.265 125.762 500.667 127.142 502.885 127.575C506.221 128.226 506.484 124.801 505.394 121.845C504.413 119.185 502.706 116.079 499.437 116.76C496.215 117.432 495.15 120.901 496.812 123.494Z" fill="#FDBBB5"/>
<path d="M512.187 113.195C512.45 114.179 513.199 114.83 513.861 114.65C514.522 114.47 514.846 113.527 514.583 112.543C514.32 111.559 513.571 110.908 512.909 111.088C512.247 111.268 511.924 112.212 512.187 113.195Z" fill="#263238"/>
<path d="M522.242 111.305C522.505 112.289 523.254 112.94 523.916 112.76C524.578 112.58 524.901 111.637 524.638 110.653C524.375 109.669 523.626 109.018 522.964 109.198C522.303 109.378 521.979 110.321 522.242 111.305Z" fill="#263238"/>
<path d="M519.275 110.537C519.275 110.537 523.789 114.585 525.349 116.306C524.269 117.912 521.688 117.979 521.688 117.979L519.275 110.537Z" fill="#E97A75"/>
<path d="M509.777 109.532C509.946 109.553 510.123 109.486 510.235 109.342C511.571 107.635 513.372 107.72 513.39 107.721C513.66 107.736 513.896 107.536 513.918 107.274C513.939 107.012 513.737 106.786 513.468 106.77C513.373 106.764 511.115 106.657 509.458 108.775C509.292 108.986 509.332 109.285 509.546 109.441C509.617 109.493 509.696 109.522 509.777 109.532Z" fill="#263238"/>
<path opacity="0.2" d="M498.363 120.244C498.609 119.565 499.366 119.141 500.102 119.125C500.839 119.109 501.542 119.439 502.114 119.886C502.8 120.423 503.337 121.138 503.654 121.939" stroke="black" stroke-width="0.5" stroke-miterlimit="10" stroke-linecap="round" stroke-linejoin="round"/>
<path d="M526.756 105.808C526.839 105.767 526.911 105.701 526.961 105.616C527.095 105.385 527.016 105.093 526.783 104.964C524.443 103.67 522.438 104.687 522.342 104.722C522.102 104.845 522.006 105.135 522.128 105.369C522.249 105.602 522.54 105.692 522.78 105.572C522.862 105.526 524.417 104.762 526.295 105.801C526.442 105.882 526.615 105.879 526.756 105.808Z" fill="#263238"/>
<path d="M518.063 120.317C517.974 120.344 517.892 120.395 517.828 120.471C517.656 120.675 517.684 120.977 517.892 121.144C519.975 122.82 522.125 122.162 522.225 122.145C522.483 122.065 522.627 121.796 522.547 121.545C522.467 121.294 522.196 121.156 521.939 121.233C521.851 121.264 520.188 121.75 518.516 120.405C518.385 120.299 518.214 120.272 518.063 120.317Z" fill="#263238"/>
<path d="M491.323 96.825C487.739 95.935 488.861 92.637 489.663 92.296C486.31 93.109 485.09 96.407 489.135 97.924C493.18 99.441 491.323 96.825 491.323 96.825Z" fill="#263238"/>
<path d="M509.08 91.408C510.538 90.892 511.784 89.822 512.446 88.414C513.193 86.825 513.154 84.988 512.413 83.407C512.208 82.97 511.561 83.351 511.765 83.786C513.021 86.463 511.662 89.701 508.881 90.685C508.429 90.844 508.623 91.569 509.08 91.408Z" fill="#263238"/>
<path d="M499.496 143.683C512.452 141.979 519.48 143.109 531.886 145.373C538.243 146.593 543.15 151.98 544.074 158.751C546.68 178.593 544.437 213.263 542.776 248.164C514.435 258.431 484.537 248.021 484.537 248.021C483.499 240.986 485.824 217.912 487.381 205.601C485.045 192.883 485.443 191.147 482.142 174.252C480.561 166.794 476.164 149.878 483.207 148.204C483.643 148.1 499.052 143.739 499.496 143.683Z" fill="#263238"/>
<path d="M500.46 143.561L504.578 137.344L513.265 141.724L518.538 138.047L524.309 144.055V179.873L500.46 143.561Z" fill="#FF9E22"/>
<path opacity="0.8" d="M500.46 143.561L504.578 137.344L513.265 141.724L518.538 138.047L524.309 144.055V179.873L500.46 143.561Z" fill="white"/>
<path opacity="0.3" d="M500.46 143.561L510.917 151.321L513.82 145.857L519.335 148.981L524.309 144.055L519.912 150.198L514.234 147.441L510.467 153.796L500.46 144.055" fill="black"/>
<path d="M513.535 147.151C508.165 145.901 501.624 144.74 504.426 148.709C507.227 152.678 505.507 154.782 508.012 155.712C510.517 156.641 513.675 151.383 514.932 150.429C516.189 149.475 513.535 147.151 513.535 147.151Z" fill="#FF9E22"/>
<path d="M516.848 146.223C519.775 142.849 523.549 139.03 523.913 143.543C524.277 148.056 526.654 149.02 525.487 150.895C524.319 152.77 519.211 149.787 517.782 149.558C516.354 149.328 516.848 146.223 516.848 146.223Z" fill="#FF9E22"/>
<path d="M512.806 146.983C513.696 146.06 516.067 144.555 517.818 145.938C519.569 147.321 519.937 150.331 518.259 151.159C517.039 151.768 515.584 151.658 514.47 150.872C514.93 149.344 514.229 147.706 512.806 146.983Z" fill="#FF9E22"/>
<path d="M484.622 228.299C484.343 230.087 484.599 232.783 483.938 238.559C483.938 238.559 489.925 239.318 489.488 242.836C488.315 252.279 490.738 290.44 489.094 296.587C515.966 308.511 548.175 302.544 549.442 294.807C549.065 280.475 545.348 228.299 545.348 228.299H484.622Z" fill="#E0E0E0"/>
<path opacity="0.1" d="M489.557 239.04C491.433 242.081 493.701 244.862 496.301 247.313C496.301 247.313 490.505 246.274 489.557 239.04Z" fill="black"/>
<path opacity="0.1" d="M540.134 244.454C541.675 242.156 542.924 239.677 543.854 237.071C543.854 237.071 544.116 242.902 540.134 244.454Z" fill="black"/>
<path opacity="0.1" d="M489.809 243.341C490.429 245.627 491.346 247.821 492.536 249.868C490.308 248.514 489.206 245.878 489.809 243.341Z" fill="black"/>
<path d="M517.554 199.799H517.4C514.08 199.326 510.629 198.942 507.276 198.392C503.923 197.842 500.603 197.381 497.383 196.743C494.355 196.159 491.369 195.373 488.446 194.391C487.671 194.144 486.928 193.817 486.201 193.455C486.207 193.104 486.213 192.752 486.237 192.401C486.358 191.192 486.545 189.84 486.787 188.444C487.029 187.048 487.37 185.586 487.721 184.113C488.073 182.64 488.458 181.145 488.897 179.639C489.765 176.638 490.7 173.582 491.722 170.537L493.261 165.964L494.811 161.567L494.921 161.325C496.622 156.393 494.201 150.988 489.389 148.973C484.349 146.863 478.553 149.238 476.443 154.278C475.684 156.092 475.069 157.708 474.453 159.39C473.837 161.072 473.288 162.765 472.738 164.469C471.672 167.888 470.682 171.35 469.902 174.934C469.046 178.608 468.44 182.336 468.088 186.091C467.881 188.147 467.804 190.214 467.857 192.28C467.909 194.757 468.259 197.219 468.901 199.612L469.022 200.063C469.135 200.465 469.286 200.855 469.473 201.228C470.486 203.233 471.954 204.972 473.76 206.306C474.986 207.226 476.323 207.986 477.739 208.57C479.865 209.442 482.075 210.094 484.335 210.516C488.183 211.189 492.081 211.531 495.987 211.538C499.691 211.56 503.352 211.395 506.979 211.065C510.611 210.749 514.225 210.25 517.807 209.57C519.875 209.164 521.461 207.494 521.759 205.408C522.147 202.699 520.264 200.187 517.554 199.799ZM485.203 192.94C484.862 192.698 484.686 192.478 484.708 192.478C484.723 192.478 484.963 192.606 485.261 192.97C485.242 192.959 485.221 192.951 485.203 192.94Z" fill="#FF9E22"/>
<path d="M519.371 202.491L529.088 203.7L523.724 216.133C523.724 216.133 514.853 213.934 514.216 209.054C514.153 208.514 514.281 207.97 514.579 207.515L517.085 203.569C517.576 202.799 518.465 202.381 519.371 202.491Z" fill="#FDBBB5"/>
<path d="M536.376 212.901L533.76 216.946C532.712 218.552 530.658 219.165 528.901 218.397L523.723 216.133L529.087 203.7L535.144 207.448C536.983 208.584 537.553 210.995 536.417 212.834C536.405 212.857 536.391 212.879 536.376 212.901Z" fill="#FDBBB5"/>
<path opacity="0.8" d="M517.554 199.799H517.4C514.08 199.326 510.629 198.942 507.276 198.392C503.923 197.842 500.603 197.381 497.383 196.743C494.355 196.159 491.369 195.373 488.446 194.391C487.671 194.144 486.928 193.817 486.201 193.455C486.207 193.104 486.213 192.752 486.237 192.401C486.358 191.192 486.545 189.84 486.787 188.444C487.029 187.048 487.37 185.586 487.721 184.113C488.073 182.64 488.458 181.145 488.897 179.639C489.765 176.638 490.7 173.582 491.722 170.537L493.261 165.964L494.811 161.567L494.921 161.325C496.622 156.393 494.201 150.988 489.389 148.973C484.349 146.863 478.553 149.238 476.443 154.278C475.684 156.092 475.069 157.708 474.453 159.39C473.837 161.072 473.288 162.765 472.738 164.469C471.672 167.888 470.682 171.35 469.902 174.934C469.046 178.608 468.44 182.336 468.088 186.091C467.881 188.147 467.804 190.214 467.857 192.28C467.909 194.757 468.259 197.219 468.901 199.612L469.022 200.063C469.135 200.465 469.286 200.855 469.473 201.228C470.486 203.233 471.954 204.972 473.76 206.306C474.986 207.226 476.323 207.986 477.739 208.57C479.865 209.442 482.075 210.094 484.335 210.516C488.183 211.189 492.081 211.531 495.987 211.538C499.691 211.56 503.352 211.395 506.979 211.065C510.611 210.749 514.225 210.25 517.807 209.57C519.875 209.164 521.461 207.494 521.759 205.408C522.147 202.699 520.264 200.187 517.554 199.799ZM485.203 192.94C484.862 192.698 484.686 192.478 484.708 192.478C484.723 192.478 484.963 192.606 485.261 192.97C485.242 192.959 485.221 192.951 485.203 192.94Z" fill="white"/>
<path d="M515.579 199.93C508.845 197.939 501.902 196.74 494.891 196.357C493.396 196.445 492.824 230.225 492.945 244.043C492.945 245.912 514.446 245.538 519.943 244.692C520.251 240.834 520.317 212.671 521.746 203.866C521.97 202.448 521.199 201.061 519.877 200.502C518.515 199.952 517.037 199.755 515.579 199.93Z" fill="white"/>
<path d="M533.831 453.28L541.39 453.473C541.39 453.473 542.94 452.668 543.835 452.803C544.727 452.94 547.823 453.636 547.823 453.636L567.896 454.148C567.759 453.27 567.581 452.487 567.373 451.791C567.12 450.943 566.819 450.222 566.48 449.61C565.291 447.47 563.614 446.677 561.772 446.509C558.966 446.254 550.281 439.896 550.281 439.896C550.281 439.896 547.103 438.648 547.021 435.095C546.99 433.763 545.141 432.091 544.245 431.935C542.416 431.613 541.364 432.794 541.047 434.694L540.681 436.9L536.459 436.106C536.459 436.106 532.205 433.741 532.357 435.937C532.444 437.19 533.024 442.776 533.363 447.205C533.443 448.237 533.517 449.214 533.582 450.071L533.584 450.072C533.729 451.973 533.831 453.28 533.831 453.28Z" fill="#263238"/>
<g opacity="0.3">
<path d="M567.896 454.148L547.823 453.636C547.823 453.636 544.726 452.94 543.835 452.803C542.94 452.668 541.39 453.473 541.39 453.473L533.831 453.28C533.831 453.28 533.729 451.973 533.584 450.071L567.372 451.791C567.58 452.487 567.758 453.27 567.896 454.148Z" fill="white"/>
</g>
<path d="M555.201 442.761C555.083 442.635 554.897 442.617 554.754 442.711C554.096 443.14 553.536 443.756 553.146 444.537C552.94 444.948 553.515 445.365 553.723 444.95C554.069 444.257 554.559 443.712 555.134 443.335C555.326 443.209 555.365 442.936 555.207 442.767C555.204 442.764 555.202 442.763 555.201 442.761Z" fill="white"/>
<path d="M553.159 441.438C553.041 441.312 552.855 441.294 552.711 441.388C552.053 441.818 551.493 442.434 551.103 443.214C550.898 443.625 551.472 444.042 551.68 443.627C552.026 442.934 552.516 442.389 553.091 442.012C553.283 441.886 553.321 441.613 553.164 441.444C553.162 441.442 553.16 441.44 553.159 441.438Z" fill="white"/>
<path d="M551.049 440.198C550.931 440.072 550.745 440.054 550.601 440.148C549.943 440.577 549.383 441.194 548.993 441.974C548.787 442.385 549.362 442.802 549.57 442.387C549.916 441.694 550.406 441.149 550.981 440.772C551.173 440.646 551.211 440.373 551.054 440.204C551.052 440.202 551.051 440.2 551.049 440.198Z" fill="white"/>
<path d="M468.696 454.406L489.148 455.088C489.148 455.088 489.623 454.244 489.189 451.94C489.123 451.581 489.035 451.186 488.917 450.755C488.911 450.733 488.907 450.712 488.9 450.69C488.73 450.051 488.536 449.265 488.331 448.417C487.508 444.962 486.555 440.451 486.555 440.451C486.555 440.451 483.395 433.053 479.354 434.739C475.808 436.218 476.484 440.812 476.484 440.812C476.484 440.812 476.052 443.481 473.326 445.758C471.64 447.164 469.974 448.24 469.129 450.031C468.971 450.366 468.844 450.723 468.748 451.112C468.737 451.159 468.726 451.208 468.717 451.257C468.526 452.127 468.502 453.154 468.696 454.406Z" fill="#263238"/>
<g opacity="0.3">
<path d="M489.19 451.94C489.624 454.244 489.149 455.088 489.149 455.088L468.697 454.406C468.503 453.154 468.527 452.127 468.719 451.257L489.19 451.94Z" fill="white"/>
</g>
<path d="M477.27 441.986C478.45 441.128 479.956 441.295 480.957 442.338C481.226 442.619 481.668 442.207 481.398 441.925C480.148 440.622 478.307 440.491 476.857 441.544C476.543 441.774 476.959 442.212 477.27 441.986Z" fill="white"/>
<path d="M476.629 443.877C477.809 443.019 479.315 443.186 480.316 444.229C480.585 444.51 481.027 444.098 480.757 443.816C479.508 442.513 477.666 442.382 476.217 443.435C475.902 443.664 476.318 444.103 476.629 443.877Z" fill="white"/>
<path d="M475.991 445.614C477.171 444.756 478.677 444.923 479.678 445.966C479.947 446.247 480.389 445.834 480.119 445.553C478.87 444.251 477.028 444.119 475.579 445.172C475.264 445.401 475.68 445.84 475.991 445.614Z" fill="white"/>
<path d="M416.342 233C416.342 233 407.325 273.55 426.943 337.793C421.727 371.304 434.02 405.851 437.41 443.36L445.876 442.917C445.876 442.917 449.618 366.768 448.27 333.217C450.399 297.301 450.576 231.164 450.576 231.164L416.342 233Z" fill="#D78163"/>
<path d="M412.646 231.683C412.646 231.683 389.88 245.111 401.969 337.58C391.8 379.09 405.969 443.048 405.969 443.048L413.284 442.834C412.635 432.527 418.265 368.732 422.339 335.824C426.203 304.5 441.51 230.77 441.51 230.77L412.646 231.683Z" fill="#D78163"/>
<path d="M424.926 451.331C423.746 450.675 422.414 450.19 420.997 449.899C420.997 449.899 416.68 446.945 414.219 437.603L408.69 436.75C406.791 436.495 404.861 437.156 403.839 438.413C403.697 438.59 403.588 438.781 403.513 438.979C403.292 439.987 403.153 441.003 403.095 442.022C402.97 445.484 403.115 448.945 403.529 452.388L404.557 452.358L404.611 445.837C404.546 443.625 407.02 446.125 407.775 448.466C408.53 450.807 410.025 453.349 416.422 453.162C423.781 452.972 426.875 452.634 424.926 451.331Z" fill="#263238"/>
<path d="M413.075 434.26C413.075 434.26 414.441 438.525 416.604 443.224C417.508 445.651 419.021 447.917 421.062 449.897C421.062 449.897 416.301 450.741 414.109 448.393C411.917 446.045 408.671 437.827 403.839 438.463C404.185 437.836 404.628 437.242 405.159 436.693C405.917 435.793 413.075 434.26 413.075 434.26Z" fill="#D78163"/>
<path d="M457.793 451.115C456.598 450.487 455.256 450.033 453.832 449.774C453.832 449.774 449.449 446.92 446.773 437.637L441.226 436.912C439.321 436.701 437.408 437.406 436.414 438.687C436.277 438.867 436.171 439.06 436.101 439.261C435.904 440.274 435.788 441.293 435.754 442.313C435.709 445.777 435.933 449.234 436.426 452.666L437.453 452.612L437.357 446.092C437.241 443.882 439.772 446.325 440.581 448.647C441.389 450.97 442.942 453.476 449.334 453.142C456.687 452.783 459.772 452.374 457.793 451.115Z" fill="#263238"/>
<path d="M445.553 434.321C445.553 434.321 447.017 438.553 449.287 443.202C450.247 445.608 451.812 447.838 453.897 449.771C453.897 449.771 449.157 450.725 446.911 448.427C444.666 446.13 441.232 437.989 436.415 438.736C436.747 438.101 437.176 437.497 437.694 436.936C438.432 436.018 445.553 434.321 445.553 434.321Z" fill="#D78163"/>
<path d="M472.139 163.945L461.094 187.785L450.124 161.782L442.086 182.525C442.086 182.525 449.356 195.635 453.871 202.104C457.767 207.687 462.928 208.036 467.18 204.275C472.271 199.772 480.341 166.64 480.341 166.64L472.139 163.945Z" fill="#D78163"/>
<path d="M472.959 165.683C472.959 165.683 470.342 163.579 470.074 160.816C469.806 158.053 468.857 155.918 468.799 153.849C468.742 151.781 470.625 153.843 471.405 155.142C472.185 156.441 473.082 157.907 473.963 157.163C474.845 156.42 478.239 147.101 479.579 146.209C480.918 145.317 480.84 146.996 480.84 146.996C480.84 146.996 481.726 144.755 482.709 144.864C482.964 144.892 483.512 145.372 483.269 146.457C482.721 148.897 481.308 153.958 481.308 153.958C481.383 153.666 483.574 147.543 484.021 146.669C484.606 145.526 485.465 145.286 486.116 145.647C487.043 146.161 484.586 153.845 484.709 154.241C484.709 154.241 485.976 149.77 487.309 149.465C488.642 149.16 487.998 152.018 486.952 154.431C485.993 156.642 484.69 161.231 483.497 163.385C482.027 166.038 480.444 167.49 477.608 167.263C474.773 167.037 472.959 165.683 472.959 165.683Z" fill="#D78163"/>
<path opacity="0.3" d="M480.667 147.268C480.002 149.082 479.421 150.926 478.924 152.793" stroke="black" stroke-width="0.25" stroke-miterlimit="10" stroke-linecap="round" stroke-linejoin="round"/>
<path opacity="0.3" d="M484.278 155.995C482.243 154.552 479.776 153.725 477.281 153.65" stroke="black" stroke-width="0.25" stroke-miterlimit="10" stroke-linecap="round" stroke-linejoin="round"/>
<path opacity="0.2" d="M459.671 196.362L461.094 187.784C459.826 190.421 459.469 193.226 459.671 196.362Z" fill="black"/>
<path d="M404.695 163.146C401.812 150.18 410.011 152.35 406.75 135.819C403.161 117.619 416.129 114.59 416.129 114.59C416.129 114.59 417.401 105.432 425.934 105.659C434.467 105.887 455.914 109.773 452.291 132.52C450.18 145.776 454.588 146.613 457.001 152.487C460.417 160.803 450.541 168.633 457.301 174.193C457.301 174.193 440.554 179.634 415.853 178.708C415.853 178.708 406.455 171.062 404.695 163.146Z" fill="#263238"/>
<path d="M453.134 219.591C466.454 246.763 450.949 307.146 454.175 352.235C447.616 358.426 404.67 361.087 390.012 351.249C393.347 328.811 393.724 276.878 394.398 263.843C396.686 238.202 409.771 220.407 409.771 220.407C409.771 220.407 432.344 217.651 453.134 219.591Z" fill="#263238"/>
<path opacity="0.2" d="M435.3 261.652C427.87 276.187 425.99 300.399 426.677 317.934C426.677 317.934 433.144 279.583 435.3 261.652Z" fill="black"/>
<path d="M444.925 192.988C445.033 193.09 462.04 185.646 462.04 185.646C462.04 185.646 455.264 172.839 453.008 167.322C450.751 161.805 446.845 157.67 443.154 156.931L440.637 167.787L444.925 192.988Z" fill="#FF9E22"/>
<path opacity="0.8" d="M444.925 192.988C445.033 193.09 462.04 185.646 462.04 185.646C462.04 185.646 455.264 172.839 453.008 167.322C450.751 161.805 446.845 157.67 443.154 156.931L440.637 167.787L444.925 192.988Z" fill="white"/>
<path d="M439.469 156.398C437.377 156.32 435.985 156.035 433.874 156.097C427.328 156.307 422.669 156.509 416.221 157.653C414.349 157.94 412.047 158.699 410.35 159.05C410.075 159.107 409.802 159.173 409.532 159.251C403.622 160.939 400.199 167.099 401.888 173.01C409.758 199.553 410.462 211.382 408.11 223.467C428.948 227.351 450.536 223.461 453.151 219.588C453.151 219.588 451.628 206.683 451.952 198.61C460.695 190.692 453.661 173.757 452.666 171.026C449.395 163.042 447.011 156.643 439.469 156.398Z" fill="#FF9E22"/>
<path d="M439.469 156.398C437.377 156.32 435.985 156.035 433.874 156.097C427.328 156.307 422.669 156.509 416.221 157.653C414.349 157.94 412.047 158.699 410.35 159.05C410.075 159.107 409.802 159.173 409.532 159.251C403.622 160.939 400.199 167.099 401.888 173.01C409.758 199.553 410.462 211.382 408.11 223.467C428.948 227.351 450.536 223.461 453.151 219.588C453.151 219.588 451.628 206.683 451.952 198.61C460.695 190.692 453.661 173.757 452.666 171.026C449.395 163.042 447.011 156.643 439.469 156.398Z" fill="black"/>
<path d="M445.115 201.625L436.972 243.186C436.755 244.292 435.683 245.013 434.577 244.796L405.508 239.1C404.402 238.883 403.681 237.811 403.897 236.705L412.04 195.144C412.257 194.038 413.329 193.317 414.435 193.533L443.504 199.229C444.61 199.447 445.331 200.519 445.115 201.625Z" fill="#FF9E22"/>
<path d="M424.423 214.059L424.685 215.81C429.094 220.236 437.553 221.559 437.553 221.559L440.29 208.683L428.71 209.606C426.018 210.336 425.264 211.298 424.423 214.059Z" fill="#D78163"/>
<path d="M444.868 210.976L440.234 208.677L437.497 221.553L440.615 222.405C442.256 222.846 443.962 221.96 444.545 220.365L446.481 215.002C447.041 213.445 446.348 211.715 444.868 210.976Z" fill="#D78163"/>
<path d="M429.452 210.391L404.29 202.26C404.456 199.926 407.121 189.205 407.121 189.205L398.09 176.917C398.09 176.917 389.995 202.611 393.392 209.452C396.789 216.292 427.588 217.436 427.588 217.436L429.452 210.391Z" fill="#D78163"/>
<path opacity="0.2" d="M416.148 175.776C416.148 175.776 408.009 197.861 407.908 197.301C407.807 196.742 407.807 196.742 407.807 196.742L405.547 187.152L416.148 175.776Z" fill="black"/>
<path d="M417.098 172.228C415.938 178.636 409.515 190.841 409.515 190.841C409.515 190.841 396.078 187.899 394.37 179.915C398.847 167.849 403.146 160.852 409.758 159.428C416.426 157.99 418.257 165.82 417.098 172.228Z" fill="#FF9E22"/>
<path opacity="0.8" d="M417.098 172.228C415.938 178.636 409.515 190.841 409.515 190.841C409.515 190.841 396.078 187.899 394.37 179.915C398.847 167.849 403.146 160.852 409.758 159.428C416.426 157.99 418.257 165.82 417.098 172.228Z" fill="white"/>
<path d="M421.532 136.942L431.362 146.299L434.088 147.829C433.53 149.267 433.06 150.745 432.882 152.169C432.537 154.681 433.701 156.228 436.076 158.007L427.42 163.758C422.487 159.752 418.666 156.988 418.666 156.988C423.592 153.349 422.797 142.819 421.532 136.942Z" fill="#D78163"/>
<path opacity="0.2" d="M432.82 152.721C430.148 151.239 427.188 148.619 427.443 145.52C427.559 144.215 427.803 142.974 428.092 142.175L433.632 149.081C433.228 150.231 433.09 150.988 432.82 152.721Z" fill="black"/>
<path d="M419.365 126.132C420.551 135.916 420.845 140.072 426.058 145.068C433.899 152.583 445.538 149.638 447.271 139.854C448.831 131.049 446.63 116.527 436.878 112.686C427.271 108.902 418.18 116.348 419.365 126.132Z" fill="#D78163"/>
<path d="M430.012 125.399C430.138 125.409 430.263 125.369 430.358 125.277C431.828 123.833 433.545 124.275 433.565 124.28C433.819 124.346 434.07 124.196 434.121 123.937C434.17 123.678 434.003 123.413 433.745 123.343C433.655 123.319 431.501 122.763 429.677 124.555C429.495 124.734 429.5 125.041 429.689 125.24C429.778 125.336 429.895 125.39 430.012 125.399Z" fill="#263238"/>
<path d="M444.949 123.624C445.047 123.588 445.127 123.512 445.167 123.403C445.25 123.178 445.132 122.899 444.905 122.78C442.626 121.585 440.992 122.592 440.923 122.636C440.729 122.759 440.69 123.039 440.835 123.262C440.98 123.484 441.254 123.565 441.448 123.443C441.511 123.402 442.792 122.643 444.604 123.594C444.722 123.656 444.846 123.663 444.949 123.624Z" fill="#263238"/>
<path d="M439.193 128.241C439.193 128.241 440.835 131.868 442.634 134.107C442.948 134.498 442.778 135.088 442.312 135.275C441.114 135.756 439.684 135.394 439.684 135.394L439.193 128.241Z" fill="#E97F3F"/>
<path d="M430.714 129.754C430.793 130.791 431.38 131.626 432.025 131.621C432.67 131.615 433.13 130.771 433.051 129.734C432.973 128.697 432.385 127.862 431.74 127.867C431.095 127.873 430.635 128.717 430.714 129.754Z" fill="#263238"/>
<path d="M431.372 127.921L433.608 127.323C433.608 127.323 432.426 129.038 431.372 127.921Z" fill="#263238"/>
<path d="M440.857 128.684C440.935 129.688 441.52 130.498 442.164 130.493C442.807 130.487 443.266 129.669 443.188 128.664C443.11 127.66 442.525 126.85 441.881 126.855C441.237 126.861 440.779 127.679 440.857 128.684Z" fill="#263238"/>
<path d="M441.65 126.885L443.886 126.287C443.886 126.287 442.704 128.003 441.65 126.885Z" fill="#263238"/>
<path d="M422.869 129.422C422.869 129.422 427.707 121.656 427.266 115.495C427.266 115.495 436.879 112.686 444.906 122.78C446.185 124.388 446.999 127.108 448.17 129.44C448.17 129.44 449.473 110.719 432.865 109.673C416.283 108.628 413.712 131.974 422.009 139.562C422.009 139.562 419.875 134.28 422.869 129.422Z" fill="#263238"/>
<path d="M416.63 134.215C417.847 136.193 419.767 137.402 421.507 137.784C424.123 138.359 425.342 134.145 424.379 131.569C423.513 129.25 420.915 127.775 418.403 128.359C415.929 128.935 415.238 131.953 416.63 134.215Z" fill="#D78163"/>
<path opacity="0.2" d="M422.103 133.532C422.014 132.605 421.544 131.72 420.826 131.126C420.108 130.532 419.151 130.237 418.223 130.323" stroke="black" stroke-width="0.5" stroke-miterlimit="10" stroke-linecap="round" stroke-linejoin="round"/>
<path d="M438.679 138.585C437.909 139.501 436.893 141.334 436.893 141.334C436.71 141.272 436.527 141.21 436.348 141.138C433.891 140.233 433.05 139.002 432.863 137.911C432.763 137.314 432.866 136.755 433.007 136.319C433.165 135.814 433.393 135.49 433.393 135.49C434.409 136.748 436.634 137.767 437.846 138.262C438.351 138.476 438.679 138.585 438.679 138.585Z" fill="#263238"/>
<path d="M437.846 138.263L437.298 139.06C434.986 138.203 433.473 137.288 433.007 136.32C433.165 135.815 433.393 135.491 433.393 135.491C434.409 136.749 436.635 137.768 437.846 138.263Z" fill="white"/>
<path d="M436.348 141.139C433.891 140.234 433.05 139.003 432.863 137.912C433.688 138.252 434.646 138.755 435.392 139.457C435.965 139.992 436.229 140.589 436.348 141.139Z" fill="#D7504D"/>
<path opacity="0.2" d="M416.221 157.653L429.502 168.319L433.304 164.27L437.034 166.876L437.26 156.246L438.604 169.158L433.316 165.968L429.124 170.68L416.221 157.653Z" fill="black"/>
<path d="M437.26 156.246C437.26 156.246 433 153.901 433.083 154.254C433.165 154.607 432.086 160.564 432.086 160.564L421.078 152.722L416.22 157.654L429.501 168.32L433.287 165.021L437.731 167.636L437.26 156.246Z" fill="#FF9E22"/>
<g opacity="0.8">
<path d="M437.26 156.246C437.26 156.246 433 153.901 433.083 154.254C433.165 154.607 432.086 160.564 432.086 160.564L421.078 152.722L416.22 157.654L429.501 168.32L433.287 165.021L437.731 167.636L437.26 156.246Z" fill="white"/>
</g>
<path d="M429.032 166.7C429.032 166.7 429.176 168.875 429.541 169.281C430.127 169.941 431.971 168.452 433.128 167.392L433.138 167.381C433.707 166.872 434.11 166.455 434.11 166.455C434.11 166.455 435.547 167.301 436.779 167.797C436.812 167.817 436.833 167.826 436.833 167.826C437.583 168.121 438.253 168.283 438.464 168.042C439.048 167.396 437.626 164.896 437.626 164.896C437.626 164.896 437.825 162.37 436.89 161.44C436.176 160.743 434.708 162.659 434.033 163.646H434.023C433.815 163.971 433.677 164.187 433.677 164.187C433.677 164.187 433.357 164.085 432.866 163.937C431.383 163.483 428.343 162.6 427.773 162.834C427.028 163.139 427.307 165.003 429.032 166.7Z" fill="#FF9E22"/>
<path opacity="0.2" d="M431.293 165.846C431.181 166.451 433.217 165.765 433.217 165.765C433.217 165.765 433.457 166.45 433.138 167.38C433.707 166.871 434.11 166.454 434.11 166.454C434.11 166.454 435.547 167.3 436.779 167.796C436.52 167.659 435.485 167.092 435.057 166.689C435.057 166.689 435.068 166.193 434.936 165.809C434.936 165.809 436.396 166.211 436.504 165.522C436.611 164.822 434.97 165.365 434.97 165.365C434.97 165.365 434.893 164.03 434.034 163.645H434.024C433.816 163.97 433.678 164.186 433.678 164.186C433.678 164.186 433.358 164.084 432.867 163.936C432.996 164.236 433.188 164.808 433.204 165.439C433.204 165.439 431.404 165.231 431.293 165.846Z" fill="black"/>
<path d="M432.926 163.948C432.926 163.948 433.836 163.507 434.064 163.693C434.855 164.337 435.004 166.66 434.79 166.91C434.553 167.187 433.759 167.249 433.526 167.028C433.526 167.028 433.79 164.591 432.926 163.948Z" fill="#FF9E22"/>
<path d="M373.688 453.28L381.247 453.473C381.247 453.473 382.797 452.668 383.692 452.803C384.584 452.94 387.68 453.636 387.68 453.636L407.753 454.148C407.616 453.27 407.438 452.487 407.23 451.791C406.977 450.943 406.676 450.222 406.337 449.61C405.148 447.47 403.471 446.677 401.629 446.509C398.823 446.254 390.138 439.896 390.138 439.896C390.138 439.896 386.96 438.648 386.878 435.095C386.847 433.763 384.998 432.091 384.102 431.935C382.274 431.613 381.221 432.794 380.904 434.694L380.538 436.9L376.316 436.106C376.316 436.106 372.062 433.741 372.214 435.937C372.301 437.19 372.881 442.776 373.22 447.205C373.3 448.237 373.374 449.214 373.439 450.071L373.441 450.072C373.586 451.973 373.688 453.28 373.688 453.28Z" fill="#263238"/>
<g opacity="0.3">
<path d="M407.753 454.148L387.68 453.636C387.68 453.636 384.583 452.94 383.692 452.803C382.797 452.668 381.247 453.473 381.247 453.473L373.688 453.28C373.688 453.28 373.586 451.973 373.441 450.071L407.229 451.791C407.437 452.487 407.615 453.27 407.753 454.148Z" fill="white"/>
</g>
<path d="M395.057 442.761C394.939 442.635 394.753 442.617 394.61 442.711C393.952 443.14 393.392 443.756 393.002 444.537C392.796 444.948 393.371 445.365 393.579 444.95C393.925 444.257 394.415 443.712 394.99 443.335C395.182 443.209 395.22 442.936 395.063 442.767C395.061 442.764 395.059 442.763 395.057 442.761Z" fill="white"/>
<path d="M393.015 441.438C392.897 441.312 392.711 441.294 392.568 441.388C391.91 441.818 391.35 442.434 390.96 443.214C390.755 443.625 391.329 444.042 391.537 443.627C391.883 442.934 392.373 442.389 392.948 442.012C393.14 441.886 393.178 441.613 393.021 441.444C393.019 441.442 393.017 441.44 393.015 441.438Z" fill="white"/>
<path d="M390.906 440.198C390.788 440.072 390.602 440.054 390.459 440.148C389.801 440.577 389.241 441.194 388.851 441.974C388.645 442.385 389.22 442.802 389.428 442.387C389.774 441.694 390.264 441.149 390.839 440.772C391.031 440.646 391.069 440.373 390.912 440.204C390.909 440.202 390.908 440.2 390.906 440.198Z" fill="white"/>
<path d="M308.553 454.406L329.005 455.088C329.005 455.088 329.48 454.244 329.046 451.94C328.98 451.581 328.892 451.186 328.774 450.755C328.768 450.733 328.764 450.712 328.757 450.69C328.587 450.051 328.393 449.265 328.188 448.417C327.365 444.962 326.412 440.451 326.412 440.451C326.412 440.451 323.252 433.053 319.211 434.739C315.665 436.218 316.341 440.812 316.341 440.812C316.341 440.812 315.909 443.481 313.183 445.758C311.497 447.164 309.831 448.24 308.986 450.031C308.828 450.366 308.701 450.723 308.605 451.112C308.594 451.159 308.583 451.208 308.574 451.257C308.383 452.127 308.359 453.154 308.553 454.406Z" fill="#263238"/>
<g opacity="0.3">
<path d="M329.047 451.94C329.481 454.244 329.006 455.088 329.006 455.088L308.554 454.406C308.36 453.154 308.384 452.127 308.576 451.257L329.047 451.94Z" fill="white"/>
</g>
<path d="M317.127 441.986C318.307 441.128 319.813 441.295 320.814 442.338C321.083 442.619 321.525 442.207 321.255 441.925C320.006 440.622 318.164 440.491 316.714 441.544C316.4 441.774 316.816 442.212 317.127 441.986Z" fill="white"/>
<path d="M316.486 443.877C317.666 443.019 319.172 443.186 320.173 444.229C320.442 444.51 320.884 444.098 320.614 443.816C319.365 442.513 317.523 442.382 316.074 443.435C315.759 443.664 316.175 444.103 316.486 443.877Z" fill="white"/>
<path d="M315.847 445.614C317.027 444.756 318.533 444.923 319.534 445.966C319.803 446.247 320.245 445.834 319.975 445.553C318.726 444.251 316.884 444.119 315.435 445.172C315.121 445.401 315.537 445.84 315.847 445.614Z" fill="white"/>
<path d="M335.915 221.717L359.533 344.614L368.072 440.063L387.188 437.859C387.188 437.859 389.838 393.968 386.176 339.774C382.993 290.813 373.038 239.759 371.528 223.439L364.368 212.158L350.302 213.77L335.915 221.717Z" fill="#FF9E22"/>
<path opacity="0.8" d="M335.915 221.717L359.533 344.614L368.072 440.063L387.188 437.859C387.188 437.859 389.838 393.968 386.176 339.774C382.993 290.813 373.038 239.759 371.528 223.439L364.368 212.158L350.302 213.77L335.915 221.717Z" fill="black"/>
<path d="M316.326 221.342L308.526 439.399L327.005 439.982C327.005 439.982 346.811 262.808 349.796 228.191L344.953 215.922L331.327 215.492L316.326 221.342Z" fill="#FF9E22"/>
<path opacity="0.8" d="M316.326 221.342L308.526 439.399L327.005 439.982C327.005 439.982 346.811 262.808 349.796 228.191L344.953 215.922L331.327 215.492L316.326 221.342Z" fill="black"/>
<path opacity="0.3" d="M377.423 263.965L314.645 265.6L314.98 258.954L344.622 240.243L376.466 257.623L377.423 263.965Z" fill="black"/>
<path d="M369.507 175.07C373.973 177.702 379.734 199.332 379.734 199.332C371.252 202.338 357.639 206.633 357.639 206.633C358.847 210.123 358.922 213.905 357.853 217.44L377.261 216.824C401.416 216.744 394.496 196.402 393.032 188.428C385.763 149.149 374.243 147.794 374.243 147.794C369.066 155.887 369.507 175.07 369.507 175.07Z" fill="#263238"/>
<path d="M328.017 206.673C330.593 206.295 333.221 206.487 335.715 207.237C334.761 210.086 334.781 213.172 335.773 216.008L327.987 215.442L328.017 206.673Z" fill="#FF9E22"/>
<path d="M313.573 145.609C313.573 145.609 301.371 149.092 294.927 188.514C293.63 196.517 287.137 217 311.289 216.573L330.706 216.782C329.563 213.27 329.559 209.488 330.694 205.973C330.694 205.973 316.994 201.965 308.451 199.137C308.451 199.137 313.758 177.391 318.168 174.666C318.168 174.666 318.919 153.592 313.573 145.609Z" fill="#263238"/>
<path opacity="0.5" d="M320.016 202.791L321.454 216.695L313.573 216.598L314.095 200.95L320.016 202.791Z" fill="black"/>
<path d="M383.604 257.896C383.081 253.527 372.062 216.915 372.308 212.522L375.641 149.808C375.589 148.513 374.761 147.377 373.545 146.932C368.539 145.246 361.885 144.147 356.314 143.328C343.036 141.374 332.225 142.229 332.225 142.229C324.709 142.915 318.301 143.779 315.348 144.706C313.898 145.125 309.35 148.294 309.457 149.799C310.339 162.149 316.046 193.45 316.3 213.431L311.935 259.848L341.599 259.726L345.191 246.199L349.585 258.473L383.604 257.896Z" fill="#263238"/>
<path d="M356.75 173.59L356.613 177.703L369.839 178.144L369.976 174.031L356.75 173.59Z" fill="white"/>
<path d="M354.484 142.97L357.765 143.609L343.926 188.401L332.224 142.228L334.453 142.302L339.359 144.904L347.297 147.97L354.484 142.97Z" fill="#FF9E22"/>
<path d="M354.484 142.97L357.765 143.609L343.926 188.401L332.224 142.228L334.453 142.302L339.359 144.904L347.297 147.97L354.484 142.97Z" fill="#FF9E22"/>
<path d="M354.484 142.97L357.765 143.609L343.926 188.401L332.224 142.228L334.453 142.302L339.359 144.904L347.297 147.97L354.484 142.97Z" fill="#FFECD3"/>
<path opacity="0.5" d="M343.926 188.401C343.926 188.401 333.068 173.138 332.727 170.13C332.443 167.626 332.963 163.045 332.963 163.045C332.963 163.045 331.2 162.222 330.08 160.707C328.959 159.192 329.045 142.591 329.045 142.591L332.224 142.229L343.926 188.401Z" fill="black"/>
<path opacity="0.5" d="M343.926 188.401C343.926 188.401 355.777 173.896 356.317 170.916C356.767 168.437 356.553 163.831 356.553 163.831C356.553 163.831 358.367 163.128 359.585 161.69C360.804 160.253 360.663 144.104 360.663 144.104L357.765 143.609L343.926 188.401Z" fill="black"/>
<path opacity="0.5" d="M374.409 183.33L376.119 157.999L375.849 186.93L374.409 183.33Z" fill="black"/>
<path opacity="0.5" d="M314.119 181.492L312.304 167.427L311.217 189.085C312.185 186.531 312.973 182.663 314.119 181.492Z" fill="black"/>
<path opacity="0.2" d="M354.13 143.999L350.719 155.423L346.071 149.613L341.095 155.33C341.095 155.33 334.752 144.286 335.162 144.75C335.572 145.214 341.345 153.735 341.345 153.735L346.055 147.906L350.368 154.036L354.13 143.999Z" fill="black"/>
<path d="M349.054 152.169L347.087 155.758L343.932 155.652L342.779 151.96L345.243 148.911L346.798 148.962L349.054 152.169Z" fill="#FF9E22"/>
<path d="M347.087 155.758L348.32 174.18C348.32 174.18 343.854 188.826 343.926 188.402C343.998 187.977 339.961 172.756 339.961 172.756L343.932 155.653L347.087 155.758Z" fill="#FF9E22"/>
<path opacity="0.5" d="M375.386 200.838L375.94 216.866L373.189 216.953L372.536 211.941L373.642 201.427L375.386 200.838Z" fill="black"/>
<path opacity="0.5" d="M343.926 188.401L345.89 247.062C345.89 247.062 342.196 193.919 343.926 188.401Z" fill="black"/>
<path d="M326.779 96.547C326.779 96.547 328.299 83.848 343.392 84.358C352.906 84.68 360.202 86.678 361.649 94.741C362.611 100.102 358.779 105.482 355.529 106.223C352.279 106.965 326.642 105.968 326.642 105.968C326.642 105.968 319.487 101.154 326.779 96.547Z" fill="#263238"/>
<path d="M335.733 142.898C340.826 137.277 336.707 125.387 334.729 118.156L352.87 130.191C352.584 131.074 352.359 131.976 352.197 132.89C351.847 134.531 351.282 135.135 351.346 138.18C351.583 140.837 352.839 143.665 352.977 143.076C352.977 143.076 356.251 146.832 345.127 148.065C340.304 149.133 335.733 142.898 335.733 142.898Z" fill="#D78163"/>
<path opacity="0.2" d="M338.62 125.27C338.753 133.989 346.857 137.805 351.388 138.615C351.108 137.063 351.381 135.161 352.207 132.904L338.62 125.27Z" fill="black"/>
<path d="M331.104 112.098C334.429 121.991 336.1 127.637 342.71 131.381C352.653 137.011 363.963 129.241 363.749 118.521C363.556 108.872 358.15 94.315 346.944 93.068C335.903 91.838 327.779 102.205 331.104 112.098Z" fill="#D78163"/>
<path d="M345.343 110.779C345.618 111.808 346.402 112.49 347.095 112.302C347.787 112.114 348.125 111.126 347.85 110.097C347.575 109.068 346.791 108.386 346.099 108.574C345.406 108.762 345.068 109.749 345.343 110.779Z" fill="#263238"/>
<path d="M355.865 108.8C356.14 109.83 356.924 110.511 357.616 110.323C358.308 110.135 358.646 109.147 358.371 108.118C358.096 107.089 357.312 106.407 356.62 106.595C355.928 106.784 355.59 107.771 355.865 108.8Z" fill="#263238"/>
<path d="M352.759 107.997C352.759 107.997 357.483 112.233 359.115 114.034C357.985 115.715 355.284 115.784 355.284 115.784L352.759 107.997Z" fill="#703131"/>
<path d="M342.821 106.945C342.998 106.966 343.183 106.897 343.301 106.747C344.699 104.961 346.584 105.05 346.603 105.051C346.885 105.067 347.133 104.858 347.155 104.584C347.177 104.31 346.965 104.074 346.684 104.057C346.584 104.051 344.222 103.939 342.488 106.155C342.315 106.376 342.356 106.688 342.58 106.852C342.654 106.904 342.736 106.934 342.821 106.945Z" fill="#263238"/>
<path d="M360.588 103.048C360.675 103.004 360.75 102.936 360.803 102.847C360.944 102.605 360.861 102.3 360.617 102.165C358.169 100.811 356.07 101.876 355.97 101.911C355.719 102.04 355.618 102.343 355.746 102.588C355.873 102.832 356.178 102.926 356.428 102.801C356.514 102.753 358.141 101.953 360.106 103.04C360.259 103.125 360.44 103.122 360.588 103.048Z" fill="#263238"/>
<path d="M357.299 119.69C357.013 121.1 356.83 122.53 356.751 123.967C356.501 123.994 356.245 124.028 355.993 124.044C352.565 124.373 350.862 123.4 350.027 122.206C349.629 121.615 349.375 120.939 349.286 120.232C349.226 119.835 349.222 119.431 349.274 119.033C351.198 119.945 354.409 119.887 356.128 119.78C356.867 119.699 357.299 119.69 357.299 119.69Z" fill="#263238"/>
<path d="M356.155 119.745L355.958 121.003C352.736 121.304 350.43 121.093 349.313 120.197C349.253 119.8 349.249 119.396 349.301 118.998C351.239 119.92 354.436 119.851 356.155 119.745Z" fill="white"/>
<path d="M355.938 124.06C352.51 124.389 350.863 123.4 350.029 122.205C351.334 122.104 352.59 122.25 353.849 122.606C354.679 122.862 355.41 123.37 355.938 124.06Z" fill="#D7504D"/>
<path d="M337.675 138.204L346.046 147.258L351.373 138.66L354.515 142.971L350.367 154.036L346.055 147.907V147.906L341.345 153.735L333.652 142.38L337.675 138.204Z" fill="#FF9E22"/>
<path d="M337.675 138.204L346.046 147.258L351.373 138.66L354.515 142.971L350.367 154.036L346.055 147.907V147.906L341.345 153.735L333.652 142.38L337.675 138.204Z" fill="#FFECD3"/>
<path d="M355.19 117.338C355.19 117.338 356.803 117.149 358.191 117.141C359.579 117.133 359.666 118.987 359.666 118.987C359.666 118.987 352.14 119.091 349.286 118.086C346.433 117.081 350.809 116.449 355.19 117.338Z" fill="#263238"/>
<path d="M332.764 97.037C332.764 97.037 344.463 102.767 352.053 95.678C359.643 88.588 337.315 85.774 332.764 97.037Z" fill="#263238"/>
<path d="M340.553 116.192C339.472 118.626 337.437 117.099 332.85 116.201C332.221 116.078 331.556 116.032 330.721 116.257C332.686 119.401 334.442 121.971 335.783 123.794C336.185 124.341 336.585 124.828 336.998 125.266C332.82 122.513 327.977 119.205 326.269 117.56C325.924 117.229 325.628 116.894 325.377 116.558C325.394 116.402 325.413 116.248 325.441 116.095C325.547 115.428 325.74 114.787 326 114.169C326.414 113.196 327.003 112.282 327.705 111.438C329.976 108.691 332.926 106.889 335.509 105.62C336.765 108.793 341.436 114.198 340.553 116.192Z" fill="#263238"/>
<path d="M336.058 98.826C336.058 98.826 334.196 101.602 334.977 104.061C335.758 106.52 337.263 108.836 337.263 108.836C337.263 108.836 330.462 113.449 328.458 113.495C326.455 113.541 323.905 108.402 323.905 108.402C323.905 108.402 330.433 96.645 333.886 96.218C337.339 95.791 336.058 98.826 336.058 98.826Z" fill="#263238"/>
<path d="M327.594 98.112C327.594 98.112 323.001 98.218 321.474 103.511C319.947 108.804 322.793 114.137 325.376 116.558C327.959 118.979 335.634 106.488 327.594 98.112Z" fill="#263238"/>
<path d="M329.254 121.555C330.775 123.928 333.288 125.373 335.608 125.826C339.098 126.507 339.374 122.923 338.234 119.831C337.208 117.048 335.421 113.797 332 114.51C328.63 115.212 327.516 118.842 329.254 121.555Z" fill="#D78163"/>
<path opacity="0.2" d="M330.877 118.154C331.134 117.444 331.926 117 332.697 116.983C333.468 116.966 334.204 117.312 334.802 117.779C335.52 118.341 336.081 119.089 336.413 119.927" stroke="black" stroke-width="0.5" stroke-miterlimit="10" stroke-linecap="round" stroke-linejoin="round"/>
<path d="M205.5 292.814H211.247V240.704H205.5V292.814Z" fill="#263238"/>
<path d="M283.225 177.645C283.225 177.645 281.954 197.532 293.694 212.15L270.602 229.319L273.486 236.784C273.486 236.784 305.587 233.531 307.046 220.374C307.604 215.345 302.555 187.797 302.555 187.797C302.555 187.797 293.551 172.146 283.225 177.645Z" fill="#FDBBB5"/>
<path d="M286.29 175.892C286.29 175.892 290.716 176.236 293.164 177.326C298.156 179.548 309.788 197.464 309.788 197.464L296.389 206.631L291.941 200.555L286.29 175.892Z" fill="#FF9E22"/>
<path opacity="0.2" d="M296.382 206.63C294.578 204.144 292.974 201.632 291.558 199.187C291.972 196.488 292.761 194.069 294.017 192.706C294.017 192.706 298.2 198.532 296.382 206.63Z" fill="black"/>
<path d="M298.398 252.475C293.619 254.326 288.218 252.201 285.983 247.589L283.226 241.902L280.783 245.442C276.71 251.344 269.803 254.63 262.655 254.067L244.79 252.659C244.79 252.659 250.421 234.344 251.503 231.297C250.621 221.368 247.908 208.954 241.788 189.844C239.797 183.63 243.677 176.397 243.677 176.397C243.677 176.397 251.503 176.4 252.344 176.307C253.266 176.2 254.215 176.106 255.164 176.026C262.313 175.438 268.166 175.01 274.541 175.371C276.145 175.465 277.788 175.598 279.405 175.732C279.926 175.785 285.783 175.839 286.29 175.892C286.29 175.892 294.398 185.166 294.893 192.676C295.16 196.872 295.788 200.039 295.561 210.075C295.521 216.89 295.321 223.612 294.866 233.193C296.135 238.245 298.398 252.475 298.398 252.475Z" fill="#FF9E22"/>
<path d="M255.163 194.043H267.645V191.796H255.163V194.043Z" fill="white"/>
<path d="M295.659 204.874C296.181 196.6 294.501 188.329 290.816 180.904C290.601 180.472 289.954 180.851 290.168 181.283C293.795 188.592 295.422 196.733 294.908 204.874C294.879 205.356 295.629 205.355 295.659 204.874Z" fill="#263238"/>
<path d="M250.236 236.059C247.233 236.442 244.198 236.515 241.181 236.24C239.652 236.101 238.132 235.873 236.629 235.56C235.556 235.337 232.11 234.594 233.623 232.828C234.657 231.621 236.96 232.395 238.273 232.664C239.604 232.937 240.923 233.27 242.224 233.662C244.999 234.498 247.677 235.608 250.241 236.958C250.668 237.183 251.047 236.535 250.62 236.31C248.232 235.053 245.743 233.995 243.172 233.171C240.734 232.39 238.004 231.547 235.428 231.465C234.482 231.435 233.498 231.697 232.92 232.498C232.367 233.265 232.5 234.25 233.124 234.94C233.877 235.772 235.056 235.987 236.102 236.214C237.449 236.506 238.81 236.729 240.179 236.887C243.523 237.273 246.899 237.235 250.237 236.809C250.708 236.749 250.714 235.998 250.236 236.059Z" fill="#FF9E22"/>
<path d="M250.699 236.3C246.275 233.13 242.131 229.578 238.331 225.681C237.877 225.215 237.418 224.75 236.981 224.267C236.879 224.155 236.731 224.029 236.66 223.896C236.567 223.721 236.49 223.249 236.691 223.083C236.867 222.938 237.447 223.182 237.614 223.254C238.673 223.711 239.682 224.386 240.632 225.033C242.593 226.368 244.375 227.964 245.936 229.75C247.698 231.766 249.148 234.034 250.266 236.464C250.468 236.902 251.114 236.521 250.914 236.086C248.653 231.173 244.991 226.948 240.447 224.012C239.491 223.394 238.333 222.515 237.18 222.346C236.261 222.211 235.418 222.846 235.778 223.837C235.984 224.404 236.493 224.847 236.896 225.273C237.464 225.872 238.04 226.463 238.623 227.047C239.76 228.183 240.926 229.29 242.12 230.365C244.726 232.712 247.468 234.906 250.319 236.948C250.713 237.229 251.088 236.579 250.699 236.3Z" fill="#FF9E22"/>
<g opacity="0.7">
<path d="M250.236 236.059C247.233 236.442 244.198 236.515 241.181 236.24C239.652 236.101 238.132 235.873 236.629 235.56C235.556 235.337 232.11 234.594 233.623 232.828C234.657 231.621 236.96 232.395 238.273 232.664C239.604 232.937 240.923 233.27 242.224 233.662C244.999 234.498 247.677 235.608 250.241 236.958C250.668 237.183 251.047 236.535 250.62 236.31C248.232 235.053 245.743 233.995 243.172 233.171C240.734 232.39 238.004 231.547 235.428 231.465C234.482 231.435 233.498 231.697 232.92 232.498C232.367 233.265 232.5 234.25 233.124 234.94C233.877 235.772 235.056 235.987 236.102 236.214C237.449 236.506 238.81 236.729 240.179 236.887C243.523 237.273 246.899 237.235 250.237 236.809C250.708 236.749 250.714 235.998 250.236 236.059Z" fill="white"/>
</g>
<g opacity="0.7">
<path d="M250.699 236.3C246.275 233.13 242.131 229.578 238.331 225.681C237.877 225.215 237.418 224.75 236.981 224.267C236.879 224.155 236.731 224.029 236.66 223.896C236.567 223.721 236.49 223.249 236.691 223.083C236.867 222.938 237.447 223.182 237.614 223.254C238.673 223.711 239.682 224.386 240.632 225.033C242.593 226.368 244.375 227.964 245.936 229.75C247.698 231.766 249.148 234.034 250.266 236.464C250.468 236.902 251.114 236.521 250.914 236.086C248.653 231.173 244.991 226.948 240.447 224.012C239.491 223.394 238.333 222.515 237.18 222.346C236.261 222.211 235.418 222.846 235.778 223.837C235.984 224.404 236.493 224.847 236.896 225.273C237.464 225.872 238.04 226.463 238.623 227.047C239.76 228.183 240.926 229.29 242.12 230.365C244.726 232.712 247.468 234.906 250.319 236.948C250.713 237.229 251.088 236.579 250.699 236.3Z" fill="white"/>
</g>
<path opacity="0.2" d="M277.197 318.453C273.52 306.329 270.869 295.83 268.998 286.824C270.856 279.781 273.494 273.752 277.08 270.126C277.08 270.126 282.239 289.748 277.197 318.453Z" fill="black"/>
<path d="M301.146 356.536C297.044 364.1 292.901 372.238 288.919 380.389C283.681 391.147 278.736 401.93 274.513 411.579C270.063 421.748 266.442 430.635 264.183 436.809C262.045 437.05 255.59 433.201 253.733 429.713C253.733 429.713 258.303 399.967 268.767 371.356C272.937 359.957 278.041 348.745 284.175 339.672C259.106 268.339 265.253 241.599 265.253 241.599L294.304 240.303C294.304 240.303 298.7 266.869 302.215 294.117C302.215 294.117 302.215 294.117 302.215 294.13C304.046 308.415 305.636 322.888 306.224 333.819V333.926C306.652 341.796 304.901 349.614 301.146 356.536Z" fill="#FDBBB5"/>
<path opacity="0.2" d="M274.513 411.579C270.063 421.748 266.442 430.635 264.183 436.809C262.045 437.05 255.59 433.201 253.733 429.713C253.733 429.713 258.303 399.967 268.767 371.356C270.892 383.169 273.271 398.096 274.513 411.579Z" fill="black"/>
<path d="M258.157 451.45C253.396 445.133 252.864 444.225 250.308 440.586C248.126 437.465 247.198 437.024 245.412 434.541C243.917 432.468 245.928 431.071 248.65 430.007C250.016 429.471 252.767 428.158 254.917 427.218L262.564 435.966C261.06 439.142 259.729 444.752 261.935 448.672C264.04 452.413 260.055 453.968 258.157 451.45Z" fill="#FF9E22"/>
<path opacity="0.8" d="M258.157 451.45C253.396 445.133 252.864 444.225 250.308 440.586C248.126 437.465 247.198 437.024 245.412 434.541C243.917 432.468 245.928 431.071 248.65 430.007C250.016 429.471 252.767 428.158 254.917 427.218L262.564 435.966C261.06 439.142 259.729 444.752 261.935 448.672C264.04 452.413 260.055 453.968 258.157 451.45Z" fill="black"/>
<path d="M274.828 453.617C266.918 453.617 265.873 453.495 261.428 453.346C257.622 453.21 256.712 453.686 253.654 453.617C251.099 453.563 251.194 451.116 251.982 448.303C252.376 446.89 252.984 443.903 253.527 441.62L265.116 440.778C266.747 443.891 270.426 448.33 274.884 448.929C279.138 449.499 277.982 453.617 274.828 453.617Z" fill="#FF9E22"/>
<path opacity="0.8" d="M274.828 453.617C266.918 453.617 265.873 453.495 261.428 453.346C257.622 453.21 256.712 453.686 253.654 453.617C251.099 453.563 251.194 451.116 251.982 448.303C252.376 446.89 252.984 443.903 253.527 441.62L265.116 440.778C266.747 443.891 270.426 448.33 274.884 448.929C279.138 449.499 277.982 453.617 274.828 453.617Z" fill="#0A0A0A"/>
<path d="M283.225 236.081C283.225 236.081 274.768 301.526 269.921 333.022C264.831 366.099 264.184 419.175 265.457 440.804C263.604 441.88 256.85 443.183 253.201 442.041C253.201 442.041 235.953 375.144 247.409 336.288C236.977 259.754 252.075 241.012 252.075 241.012L283.225 236.081Z" fill="#FDBBB5"/>
<path d="M248.357 127.228C248.357 127.228 251.34 122.073 259.89 121.193C268.44 120.312 279.77 124.881 281.507 137.928C283.243 150.974 286.943 158.132 286.943 158.132C286.943 158.132 259.408 165.329 251.677 162.733C243.946 160.136 231.975 130.972 248.357 127.228Z" fill="#263238"/>
<path d="M254.721 154.677L266.66 162.142L269.75 163.13C269.482 164.708 269.312 166.308 269.427 167.792C269.599 170.417 272.033 174.564 274.816 175.877L266.287 180.708C260.439 177.663 255.98 175.649 255.98 175.649C260.231 170.924 257.23 160.387 254.721 154.677Z" fill="#FDBBB5"/>
<path opacity="0.2" d="M269.48 168.365C266.456 167.415 262.902 165.368 262.516 162.165C262.362 160.814 262.352 159.502 262.479 158.63L269.548 164.496C269.376 165.75 269.394 166.548 269.48 168.365Z" fill="black"/>
<path d="M250.268 144.141C253.51 153.839 254.675 158.002 261.013 161.995C270.548 168.001 281.765 162.585 281.49 152.28C281.242 143.005 275.982 128.703 265.27 126.829C254.717 124.981 247.026 134.442 250.268 144.141Z" fill="#FDBBB5"/>
<path d="M263.867 144.345C264.163 145.382 264.933 146.11 265.589 145.97C266.244 145.83 266.535 144.876 266.239 143.839C265.943 142.802 265.173 142.074 264.518 142.214C263.862 142.353 263.571 143.307 263.867 144.345Z" fill="#263238"/>
<path d="M273.635 142.014C273.924 143.019 274.687 143.72 275.34 143.581C275.993 143.441 276.288 142.514 276 141.509C275.711 140.504 274.948 139.803 274.295 139.942C273.642 140.081 273.346 141.009 273.635 142.014Z" fill="#263238"/>
<path d="M260.938 141.179C261.068 141.163 261.187 141.096 261.264 140.983C262.458 139.21 264.294 139.301 264.316 139.302C264.588 139.316 264.812 139.111 264.809 138.838C264.805 138.565 264.58 138.33 264.303 138.313C264.207 138.308 261.902 138.19 260.42 140.392C260.273 140.611 260.342 140.922 260.574 141.086C260.687 141.163 260.817 141.193 260.938 141.179Z" fill="#263238"/>
<path d="M275.751 136.265C275.843 136.208 275.909 136.114 275.927 135.995C275.964 135.749 275.787 135.49 275.531 135.416C272.966 134.676 271.514 136.039 271.453 136.099C271.282 136.265 271.3 136.557 271.494 136.753C271.688 136.949 271.983 136.974 272.155 136.81C272.211 136.756 273.354 135.717 275.394 136.306C275.527 136.344 275.654 136.326 275.751 136.265Z" fill="#263238"/>
<path d="M270.862 142.156C270.862 142.156 273.286 145.501 275.58 147.402C275.981 147.734 275.931 148.369 275.496 148.656C274.378 149.395 272.85 149.324 272.85 149.324L270.862 142.156Z" fill="#E97A75"/>
<path d="M264.154 142.344L266.302 141.271C266.302 141.271 265.458 143.261 264.154 142.344Z" fill="#263238"/>
<path d="M274.066 140.02L276.214 138.947C276.214 138.947 275.37 140.937 274.066 140.02Z" fill="#263238"/>
<path d="M254.515 146.755C254.515 146.755 257.816 137.855 256.085 131.684C256.085 131.684 265.271 126.828 275.532 135.417C277.166 136.785 278.56 139.381 280.236 141.507C280.236 141.507 277.664 122.207 260.564 124.602C243.492 126.992 245.738 151.257 255.752 157.242C255.752 157.242 252.483 152.316 254.515 146.755Z" fill="#263238"/>
<path d="M249.171 152.925C250.82 154.682 253.023 155.511 254.871 155.538C257.65 155.578 258.011 151.041 256.497 148.623C255.133 146.447 252.187 145.487 249.755 146.604C247.359 147.705 247.285 150.916 249.171 152.925Z" fill="#FDBBB5"/>
<path d="M255.164 176.026L257.603 170.658C257.603 170.658 266.238 171.6 268.088 172.873C269.938 174.146 271.26 176.525 271.26 176.525C271.26 176.525 270.395 172.787 269.991 172.17C269.586 171.553 270.602 170.658 270.602 170.658L273.287 174.146L276.65 175.513C276.65 175.513 277.871 180.666 275.799 184.014C273.727 187.362 255.164 176.026 255.164 176.026Z" fill="#FF9E22"/>
<path opacity="0.7" d="M255.164 176.026L257.603 170.658C257.603 170.658 266.238 171.6 268.088 172.873C269.938 174.146 271.26 176.525 271.26 176.525C271.26 176.525 270.395 172.787 269.991 172.17C269.586 171.553 270.602 170.658 270.602 170.658L273.287 174.146L276.65 175.513C276.65 175.513 277.871 180.666 275.799 184.014C273.727 187.362 255.164 176.026 255.164 176.026Z" fill="white"/>
<path d="M268.783 150.858C268.694 150.885 268.612 150.936 268.548 151.012C268.376 151.216 268.404 151.518 268.612 151.685C270.695 153.361 272.845 152.703 272.945 152.686C273.203 152.606 273.347 152.337 273.267 152.086C273.187 151.835 272.916 151.697 272.659 151.774C272.57 151.805 270.908 152.291 269.236 150.946C269.105 150.839 268.934 150.812 268.783 150.858Z" fill="#263238"/>
<path opacity="0.2" d="M249.846 149.41C250.103 148.7 250.895 148.256 251.666 148.239C252.437 148.222 253.173 148.568 253.771 149.035C254.489 149.597 255.05 150.345 255.382 151.183" stroke="black" stroke-width="0.5" stroke-miterlimit="10" stroke-linecap="round" stroke-linejoin="round"/>
<path opacity="0.2" d="M245.943 203.661C244.78 199.465 243.404 194.895 241.787 189.844C241.773 189.804 241.76 189.777 241.76 189.737C243.096 188.842 244.673 188.868 246.424 190.339C246.424 190.339 247.413 197.26 245.943 203.661Z" fill="black"/>
<path d="M108.216 239.573L111.337 223.678H80.324L77.843 229.039V223.678H72.704L71.995 230.499L70.046 223.678H60.654L64.808 239.082L108.216 239.573Z" fill="#FF9E22"/>
<path opacity="0.3" d="M108.216 239.573L111.337 223.678H80.324L77.843 229.039V223.678H72.704L71.995 230.499L70.046 223.678H60.654L64.808 239.082L108.216 239.573Z" fill="white"/>
<path d="M85.908 307.214H90.82L90.82 243.971H85.908L85.908 307.214Z" fill="#263238"/>
<path d="M62.7206 243.97H109.098V239.082H62.7206V243.97Z" fill="#263238"/>
<path opacity="0.2" d="M90.821 243.97H85.909V246.956H90.821V243.97Z" fill="black"/>
<path d="M105.543 258.838C110.178 258.694 113.655 254.351 115.063 249.933C116.471 245.515 116.499 240.748 117.912 236.332C119.727 230.661 124.075 225.662 129.753 223.871C135.432 222.08 142.301 223.981 145.636 228.914C148.971 233.847 147.809 241.502 142.756 244.652L140.361 252.659C134.353 263.008 120.578 268.075 109.296 264.086C110.382 262.716 111.468 261.346 112.554 259.976C110.221 260.766 107.507 260.326 105.543 258.838Z" fill="#263238"/>
<g opacity="0.7">
<path d="M105.543 258.838C110.178 258.694 113.655 254.351 115.063 249.933C116.471 245.515 116.499 240.748 117.912 236.332C119.727 230.661 124.075 225.662 129.753 223.871C135.432 222.08 142.301 223.981 145.636 228.914C148.971 233.847 147.809 241.502 142.756 244.652L140.361 252.659C134.353 263.008 120.578 268.075 109.296 264.086C110.382 262.716 111.468 261.346 112.554 259.976C110.221 260.766 107.507 260.326 105.543 258.838Z" fill="white"/>
</g>
<path d="M136.689 343.194H139.978V245.113H136.689V343.194Z" fill="#263238"/>
<path opacity="0.4" d="M136.689 343.194H139.978V245.113H136.689V343.194Z" fill="white"/>
<path d="M141.98 245.113C141.98 245.113 143.771 244.39 144.878 242.823C144.878 242.823 131.627 242.987 131.791 242.823C131.955 242.659 132.952 244.672 135.401 245.113H141.98Z" fill="#FF9E22"/>
<path d="M156.859 254.592V290.014C156.859 291.879 158.37 293.39 160.235 293.39H179.018C180.363 293.39 181.384 292.177 181.154 290.852L177.729 271.093L174.965 258.154C174.14 254.293 170.754 251.513 166.806 251.461C164.319 251.428 161.812 251.436 159.933 251.464C158.225 251.49 156.859 252.884 156.859 254.592ZM170.735 260.895C172.257 260.602 173.729 261.599 174.022 263.121L176.413 275.545C176.706 277.067 175.709 278.539 174.187 278.832C172.664 279.125 171.193 278.128 170.9 276.606L168.509 264.181C168.216 262.66 169.212 261.188 170.735 260.895Z" fill="#FF9E22"/>
<path opacity="0.3" d="M156.859 254.592V290.014C156.859 291.879 158.37 293.39 160.235 293.39H179.018C180.363 293.39 181.384 292.177 181.154 290.852L177.729 271.093L174.965 258.154C174.14 254.293 170.754 251.513 166.806 251.461C164.319 251.428 161.812 251.436 159.933 251.464C158.225 251.49 156.859 252.884 156.859 254.592ZM170.735 260.895C172.257 260.602 173.729 261.599 174.022 263.121L176.413 275.545C176.706 277.067 175.709 278.539 174.187 278.832C172.664 279.125 171.193 278.128 170.9 276.606L168.509 264.181C168.216 262.66 169.212 261.188 170.735 260.895Z" fill="white"/>
<path d="M158.84 251.439H167.618V245.044H158.84V251.439Z" fill="#263238"/>
<path d="M150.396 436.115C151.981 436.901 150.396 286.864 150.396 286.864H67.453C67.453 286.864 81.717 437.442 83.302 436.115C84.887 434.788 150.396 436.115 150.396 436.115Z" fill="#FF9E22"/>
<path opacity="0.2" d="M150.525 299.928L69.726 310.571L68.815 301.111L150.525 299.928Z" fill="black"/>
<path d="M213.425 432.802L218.372 379.011H170.696L176.036 432.6L213.425 432.802Z" fill="#263238"/>
<path opacity="0.3" d="M213.425 432.802L218.372 379.011H170.696L176.036 432.6L213.425 432.802Z" fill="white"/>
<path d="M168.97 381.914H220.284V378.53H168.97V381.914Z" fill="#263238"/>
<path d="M72.2545 439.938H220.284V432.293H72.2545V439.938Z" fill="#263238"/>
<path d="M156.263 432.293H165.796L165.796 292.387H156.263L156.263 432.293Z" fill="#263238"/>
<path d="M67.4537 300.352H213.136V292.466H67.4537V300.352Z" fill="#263238"/>
<path d="M209.897 451.061C215.262 445.696 215.262 436.997 209.897 431.631C204.532 426.266 195.833 426.266 190.467 431.631C185.102 436.997 185.102 445.696 190.467 451.061C195.833 456.426 204.532 456.426 209.897 451.061Z" fill="#263238"/>
<path d="M200.187 434.415C196.393 434.415 193.317 437.491 193.317 441.285C193.317 445.079 196.393 448.155 200.187 448.155C203.981 448.155 207.057 445.079 207.057 441.285C207.056 437.491 203.981 434.415 200.187 434.415Z" fill="#FF9E22"/>
<path d="M96.66 455.088C106.746 455.088 114.923 446.911 114.923 436.825C114.923 426.739 106.746 418.562 96.66 418.562C86.5736 418.562 78.397 426.739 78.397 436.825C78.397 446.911 86.5736 455.088 96.66 455.088Z" fill="#263238"/>
<path d="M98.7745 445.6C103.682 444.441 106.721 439.523 105.562 434.616C104.404 429.708 99.4856 426.669 94.5779 427.828C89.6701 428.986 86.631 433.904 87.7899 438.812C88.9487 443.72 93.8667 446.759 98.7745 445.6Z" fill="#FF9E22"/>
<path d="M181.913 248.087H183.923V242.471H181.913V248.087Z" fill="#263238"/>
<path d="M180.646 272.228C181.881 268.335 189.136 264.598 188.828 261.795C188.519 258.992 188.562 255.255 188.562 255.255H195.775C196.392 255.878 202.567 268.179 200.252 282.661L198.272 292.315H183.735C183.735 292.315 179.412 276.121 180.646 272.228Z" fill="#FF9E22"/>
<path d="M188.113 255.255H196.688V251.688H188.113V255.255Z" fill="#263238"/>
<path d="M202.689 249.926C202.689 249.926 201.715 243.568 197.1 243.209C192.485 242.85 183.922 243.209 183.922 243.209V247.516H188.112V251.687H196.331V248.593C196.331 248.593 198.382 247.157 202.689 249.926Z" fill="#263238"/>
<path d="M188.113 250.088C188.113 250.088 187.453 253.673 182.119 254.057L181.912 253.161C181.912 253.161 185.98 251.9 186.087 247.517H188.112V250.088H188.113Z" fill="#263238"/>
<path d="M64.9875 292.839H154.352V283.202H64.9875V292.839Z" fill="#FF9E22"/>
<path opacity="0.3" d="M64.9875 292.839H154.352V283.202H64.9875V292.839Z" fill="black"/>
<path opacity="0.2" d="M217.876 384.402L218.105 381.914H171.109V384.402H217.876Z" fill="black"/>
<path opacity="0.7" d="M156.859 261.664H164.644L168.458 286.099H156.859V261.664Z" fill="white"/>
<g opacity="0.5">
<path d="M168.97 381.914H220.284V378.53H168.97V381.914Z" fill="white"/>
</g>
<path d="M218.105 380.222C218.105 380.222 211.185 407.306 173.28 404.948" stroke="#263238" stroke-miterlimit="10"/>
<path d="M308.61 359.945C308.61 359.945 302.752 264.433 294.951 237.076L251.503 231.295C251.503 231.295 237.962 265.847 235.524 290.197C233.086 314.547 229.666 359.119 229.666 359.119C275.631 373.977 308.61 359.945 308.61 359.945Z" fill="#FF9E22"/>
<path opacity="0.2" d="M293.933 309.025C293.933 309.025 291.199 312.585 285.401 313.268C279.603 313.95 255.488 313.673 251.146 310.13C247.509 307.162 246.689 298.62 246.689 286.494C246.689 279.161 252.074 242.009 252.074 242.009L293.933 309.025Z" fill="black"/>
<path d="M251.502 231.296H294.954C294.954 231.296 302.166 304.696 296.84 307.95C291.514 311.205 258.349 313.388 252.059 305.695C245.769 298.002 252.075 242.009 252.075 242.009C252.075 242.009 248.14 240.477 248.201 240.303C248.26 240.129 251.502 231.296 251.502 231.296Z" fill="#FF9E22"/>
<path opacity="0.7" d="M251.502 231.296H294.954C294.954 231.296 302.166 304.696 296.84 307.95C291.514 311.205 258.349 313.388 252.059 305.695C245.769 298.002 252.075 242.009 252.075 242.009C252.075 242.009 248.14 240.477 248.201 240.303C248.26 240.129 251.502 231.296 251.502 231.296Z" fill="white"/>
<path d="M293.697 231.296C293.697 231.296 296.658 301.363 294.199 304.385C291.739 307.407 266.431 308.712 258.282 304.385C250.132 300.059 256.771 231.296 256.771 231.296" stroke="white" stroke-miterlimit="10"/>
<g opacity="0.2">
<path d="M273.945 359.499C274.292 347.224 274.86 331.341 275.207 319.065C272.415 325.632 269.161 332.148 268.998 339.282C268.799 347.961 269.225 354.147 273.945 359.499Z" fill="black"/>
</g>
<path d="M212.202 232.95L198.859 233.694L191.557 237.943L197.585 242.162L202.007 241.18C202.007 241.18 212.24 241.942 215.664 237.556L212.202 232.95Z" fill="#FDBBB5"/>
<path d="M240.476 183.202L227.937 220.693L210.547 233.455L215.069 238.203C215.069 238.203 230.299 235.237 235.079 230.349C239.728 225.596 248.783 193.871 248.783 193.871L240.476 183.202Z" fill="#FDBBB5"/>
<path d="M243.676 176.397C243.676 176.397 236.835 177.154 235.108 184.885C233.686 191.254 230.085 204.11 230.085 204.11L247.506 209.441L253.272 191.765L245.65 180.301L243.676 176.397Z" fill="#FF9E22"/>
<path d="M244.179 177.65C246.75 178.853 248.101 181.686 248.907 184.261C249.985 187.706 250.275 191.392 250.095 194.983C249.846 199.969 248.303 204.78 247.081 209.595C247.235 209.508 247.388 209.42 247.542 209.333C241.756 207.471 235.971 205.61 230.185 203.748C229.724 203.6 229.527 204.324 229.986 204.471C235.772 206.333 241.557 208.194 247.343 210.056C247.533 210.117 247.756 209.984 247.804 209.794C248.695 206.283 249.823 202.738 250.402 199.163C251.304 193.591 251.18 187.349 248.901 182.096C248.004 180.029 246.659 177.986 244.557 177.002C244.123 176.799 243.742 177.445 244.179 177.65Z" fill="#263238"/>
<path d="M203.61 241.386C203.61 244.016 205.742 246.148 208.372 246.148C211.002 246.148 213.134 244.016 213.134 241.386C213.134 238.756 211.002 236.624 208.372 236.624C205.743 236.624 203.61 238.756 203.61 241.386Z" fill="#263238"/>
<path d="M411.615 98.3953C418.632 89.79 417.343 77.1257 408.737 70.1089C400.132 63.0922 387.467 64.38 380.451 72.9854C373.435 81.5907 374.723 94.2549 383.329 101.272C391.935 108.288 404.599 107.001 411.615 98.3953Z" fill="#FF9E22"/>
<path d="M388.087 99.281L389.449 104.274L383.671 107.315L383.003 100.927L388.087 99.281Z" fill="#FF9E22"/>
<path d="M395.496 95.481C394.767 95.481 394.157 95.246 393.668 94.774C393.179 94.303 392.934 93.729 392.934 93.052C392.934 92.376 393.174 91.811 393.655 91.357C394.135 90.903 394.749 90.677 395.497 90.677C396.244 90.677 396.858 90.904 397.339 91.357C397.82 91.811 398.06 92.376 398.06 93.052C398.06 93.729 397.816 94.303 397.326 94.774C396.835 95.246 396.226 95.481 395.496 95.481ZM397.151 88.782H393.841L393.014 76.584H397.979L397.151 88.782Z" fill="white"/>
<path d="M382.994 65.638C377.147 68.561 372.97 74.589 372.287 81.091" stroke="#FF9E22" stroke-width="0.5" stroke-miterlimit="10" stroke-linecap="round" stroke-linejoin="round"/>
<path d="M372.079 84.084C371.902 85.065 371.929 86.083 372.16 87.053" stroke="#FF9E22" stroke-width="0.5" stroke-miterlimit="10" stroke-linecap="round" stroke-linejoin="round"/>
</svg>
