<svg width="50" height="50" viewBox="0 0 50 50" fill="none" xmlns="http://www.w3.org/2000/svg">
<path d="M5.35484 48.5923H44.7982" stroke="black" stroke-width="1.5"/>
<rect x="10.7742" y="34.0923" width="12.1935" height="6.46154" fill="#FF9103"/>
<path d="M29.7419 36.2462H40.5806V47.0154H29.7419V36.2462Z" fill="#FF9103"/>
<line x1="44.0403" y1="27.5538" x2="44.0403" y2="49.0923" stroke="black" stroke-width="1.5"/>
<line x1="6.10484" y1="27.5538" x2="6.10484" y2="49.0923" stroke="black" stroke-width="1.5"/>
<path d="M7.92903 4C7.92903 2.89543 8.82446 2 9.92903 2H39.8C40.9046 2 41.8 2.89543 41.8 4V6.30769H7.92903V4Z" fill="black"/>
<path d="M11.98 6.09231L9.04 24.7877H14.096C14.2011 25.8781 14.8203 26.8968 15.8296 27.64C16.839 28.3832 18.1641 28.7961 19.54 28.7961C20.9159 28.7961 22.241 28.3832 23.2504 27.64C24.2597 26.8968 24.8789 25.8781 24.984 24.7877H25C25 25.8502 25.531 26.8692 26.4762 27.6205C27.4214 28.3718 28.7033 28.7938 30.04 28.7938C31.3767 28.7938 32.6586 28.3718 33.6038 27.6205C34.549 26.8692 35.08 25.8502 35.08 24.7877H35.096C35.2011 25.8781 35.8202 26.8968 36.8296 27.64C37.839 28.3832 39.1641 28.7961 40.54 28.7961C41.9159 28.7961 43.241 28.3832 44.2504 27.64C45.2597 26.8968 45.8789 25.8781 45.984 24.7877H46V24.12L45.9622 23.9377C45.9493 23.8514 45.9331 23.7655 45.9135 23.68L45.8941 23.6012L45.8773 23.5344L42.6879 8.3244C42.5572 7.70078 42.1525 7.13422 41.5457 6.7255C40.9389 6.31678 40.1694 6.09241 39.3741 6.09231H11.98Z" fill="black"/>
<path d="M16.0335 5.84231H15.76H10.2588C10.2588 5.84231 10.2588 5.84231 10.2588 5.84231C9.40722 5.84228 8.57791 6.0852 7.92241 6.53474C7.26634 6.98466 6.82121 7.61742 6.68919 8.32602L3.75423 24.0742L3.75 24.0969V24.12V24.7877C3.75 25.9374 4.32498 27.0248 5.32062 27.8162C6.31481 28.6064 7.65323 29.0438 9.04 29.0438C10.4268 29.0438 11.7652 28.6064 12.7594 27.8162C13.7517 27.0274 14.3262 25.9446 14.33 24.7991L16.009 6.11468L16.0335 5.84231ZM33.649 6.06993L33.6285 5.84231H33.4H25H24.75V6.09231V24.7877C24.75 25.9374 25.325 27.0248 26.3206 27.8162C27.3148 28.6064 28.6532 29.0438 30.04 29.0438C31.4268 29.0438 32.7652 28.6064 33.7594 27.8162C34.755 27.0248 35.33 25.9374 35.33 24.7877V24.7765L35.329 24.7653L33.649 6.06993Z" fill="black" stroke="#FF9103" stroke-width="0.5"/>
<path d="M33.9012 5.90926L34.1748 5.91164L39.6756 5.95958C39.6756 5.95958 39.6756 5.95958 39.6756 5.95958C40.5269 5.96697 41.3527 6.21575 42.0019 6.66861C42.6517 7.12185 43.0885 7.75539 43.2109 8.46215C43.2109 8.46216 43.2109 8.46216 43.2109 8.46216L45.9297 24.1532L45.9336 24.176L45.9333 24.1992L45.9241 24.8634C45.9083 26.0081 45.318 27.0851 44.3115 27.8637C43.3066 28.6411 41.9624 29.0645 40.576 29.0524C39.1897 29.0403 37.8575 28.5936 36.8742 27.7989C35.8928 27.0056 35.3327 25.9232 35.3446 24.7827L33.9221 6.18194L33.9012 5.90926ZM16.2837 5.98325L16.3074 5.75594L16.5359 5.75793L24.9354 5.83113L25.1853 5.83331L25.1819 6.08328L24.9254 24.6804C24.9096 25.8251 24.3193 26.9021 23.3128 27.6807C22.3078 28.4581 20.9637 28.8815 19.5773 28.8694C18.1909 28.8573 16.8588 28.4106 15.8755 27.6159C14.8907 26.82 14.3302 25.7329 14.346 24.5882L14.3462 24.577L14.3474 24.5657L16.2837 5.98325Z" fill="black" stroke="#FF9103" stroke-width="0.5"/>
<path d="M14.08 24.7877C14.08 25.8502 13.549 26.8692 12.6038 27.6205C11.6586 28.3718 10.3767 28.7939 9.04 28.7939C7.70331 28.7939 6.42136 28.3718 5.47618 27.6205C4.531 26.8692 4 25.8502 4 24.7877H14.08ZM35.08 24.7877C35.08 25.8502 34.549 26.8692 33.6038 27.6205C32.6586 28.3718 31.3767 28.7939 30.04 28.7939C28.7033 28.7939 27.4214 28.3718 26.4762 27.6205C25.531 26.8692 25 25.8502 25 24.7877H35.08Z" fill="#FF9103"/>
<path d="M14.0968 24.7877C14.2032 25.8773 14.8229 26.8949 15.832 27.6372C16.8412 28.3795 18.1655 28.7918 19.5404 28.7918C20.9153 28.7918 22.2397 28.3795 23.2488 27.6372C24.2579 26.8949 24.8776 25.8773 24.984 24.7877H14.0968ZM35.0968 24.7877C35.2032 25.8773 35.8229 26.8949 36.832 27.6372C37.8412 28.3795 39.1655 28.7918 40.5404 28.7918C41.9153 28.7918 43.2397 28.3795 44.2488 27.6372C45.2579 26.8949 45.8776 25.8773 45.984 24.7877H35.0968Z" fill="#FF9103"/>
</svg>
