<svg version="1.2" xmlns="http://www.w3.org/2000/svg" viewBox="0 0 445 445" width="445" height="445"><style>.a{fill:#ff9e22}.b{fill:#fff}.c{fill:none;stroke:#263238;stroke-miterlimit:10}.d{fill:none;stroke:#263238;stroke-miterlimit:10;stroke-dasharray:2.01}.e{fill:none;stroke:#263238;stroke-miterlimit:10;stroke-dasharray:2}.f{fill:none;stroke:#263238;stroke-miterlimit:10;stroke-dasharray:1.99}.g{fill:#fff;stroke:#263238;stroke-miterlimit:10}.h{fill:none;stroke:#263238;stroke-linecap:round;stroke-linejoin:round}.i{fill:#263238;stroke:#263238;stroke-miterlimit:10}.j{fill:#ff9e22;stroke:#263238;stroke-miterlimit:10}.k{fill:#263238}.l{fill:#fff;stroke:#263238;stroke-linecap:round;stroke-linejoin:round}.m{fill:none;stroke:#263238;stroke-linecap:round;stroke-linejoin:round;stroke-width:.5}.n{fill:#fff;stroke:#263238;stroke-miterlimit:10;stroke-width:.4}.o{fill:#263238;stroke:#263238;stroke-linecap:round;stroke-linejoin:round}</style><path class="a" d="m348.4 138.1l-5.2 9 5.2 9h10.4l5.2-9-5.2-9z"/><path class="a" d="m332.4 147.4l-5.3 9 5.3 9h10.3l5.2-9-5.2-9z"/><path class="a" d="m316.3 156.7l-5.2 9 5.2 9h10.3l5.2-9-5.2-9z"/><path class="a" d="m300.2 147.4l-5.2 9 5.2 9h10.4l5.2-9-5.2-9z"/><path class="a" d="m374.9 165.4l5.2-9-5.2-9h-10.4l-5.2 9 5.2 9z"/><path class="a" d="m390.9 156.1l1.7-2.9c-0.3-4.8-0.8-9.8-2.1-15.1h-9.9l-5.2 9 5.2 9z"/><path class="a" d="m358.8 174.7l5.2-9-5.2-9h-10.4l-5.2 9 5.2 9z"/><path class="a" d="m364.5 128.8l-5.2 9 5.2 9h10.4l5.2-9-5.2-9z"/><path class="a" d="m375.4 128.5l5.2 9h9.8c-1.4-5.5-3.4-11.4-6.6-18h-3.2z"/><path class="a" d="m171.6 147.4l-5.2 9 5.2 9h10.4l5.2-9-5.2-9z"/><path class="a" d="m342.7 166h-10.3l-5.3 9 5.3 9h10.3l5.2-9z"/><path class="a" d="m203.8 147.4l-5.3 9 5.3 9h10.3l5.2-9-5.2-9z"/><path class="a" d="m187.7 138.1l-5.2 9 5.2 9h10.3l5.2-9-5.2-9z"/><path class="a" d="m139.5 128.8l-5.3 9 5.3 9h10.3l5.2-9-5.2-9z"/><path class="a" d="m155.5 138.1l-5.2 9 5.2 9h10.4l5.2-9-5.2-9z"/><path class="a" d="m235.9 166l-5.2 9 5.2 9h10.4l5.2-9-5.2-9z"/><path class="a" d="m252 156.7l-5.2 9 5.2 9h10.3l5.2-9-5.2-9z"/><path class="a" d="m268.1 166l-5.3 9 5.3 9h10.3l5.2-9-5.2-9z"/><path class="a" d="m284.1 156.7l-5.2 9 5.2 9h10.4l5.2-9-5.2-9z"/><path class="a" d="m219.8 156.7l-5.2 9 5.2 9h10.4l5.2-9-5.2-9z"/><path class="a" d="m326.6 231h-10.3l-5.2 9 5.2 9.1h10.3l5.2-9.1z"/><path class="a" d="m133.7 267.6l5.2-9-5.2-9h-10.3l-5.2 9 5.2 9z"/><path class="a" d="m149.8 258.4l5.2-9.1-5.2-9h-10.3l-5.3 9 5.3 9.1z"/><path class="a" d="m165.9 249.1l5.2-9.1-5.2-9h-10.4l-5.2 9 5.2 9.1z"/><path class="a" d="m182 239.8l5.2-9.1-5.2-9h-10.4l-5.2 9 5.2 9.1z"/><path class="a" d="m198 249.1l5.2-9.1-5.2-9h-10.3l-5.2 9 5.2 9.1z"/><path class="a" d="m101.6 267.6l5.2-9-5.2-9h-10.4l-5.2 9 5.2 9z"/><path class="a" d="m117.7 258.4l5.2-9.1-5.2-9h-10.4l-5.2 9 5.2 9.1z"/><path class="a" d="m59.1 267.6h10.3l5.2-9-5.2-9h-10.3l-5.2 9z"/><path class="a" d="m85.5 258.4l5.2-9.1-5.2-9h-10.3l-5.3 9 5.3 9.1z"/><path class="a" d="m214.1 239.8l5.2-9.1-5.2-9h-10.3l-5.3 9 5.3 9.1z"/><path class="a" d="m326.6 193.8h-10.3l-5.2 9.1 5.2 9h10.3l5.2-9z"/><path class="a" d="m326.6 212.4h-10.3l-5.2 9.1 5.2 9h10.3l5.2-9z"/><path class="a" d="m326.6 267.6l5.2-9-5.2-9h-10.3l-5.2 9 5.2 9z"/><path class="a" d="m246.3 239.8l5.2-9.1-5.2-9h-10.4l-5.2 9 5.2 9.1z"/><path class="a" d="m342.7 202.6l5.2-9-5.2-9.1h-10.3l-5.3 9.1 5.3 9z"/><path class="a" d="m123.4 119.5l-5.2 9 5.2 9h10.3l5.2-9-5.2-9z"/><path class="a" d="m278.4 239.8l5.2-9.1-5.2-9h-10.3l-5.3 9 5.3 9.1z"/><path class="a" d="m310.6 258.4l5.2-9.1-5.2-9h-10.4l-5.2 9 5.2 9.1z"/><path class="a" d="m262.3 230.5l5.2-9-5.2-9.1h-10.3l-5.2 9.1 5.2 9z"/><path class="a" d="m294.5 249.1l5.2-9.1-5.2-9h-10.4l-5.2 9 5.2 9.1z"/><path class="a" d="m235.9 147.4l-5.2 9 5.2 9h10.4l5.2-9-5.2-9z"/><path class="a" d="m358.8 175.3h-10.4l-5.2 9 5.2 9h10.4l5.2-9z"/><path class="a" d="m69.4 249.1l5.2-9.1-5.2-9h-10.3l-5.2 9 5.2 9.1z"/><path class="a" d="m390.9 174.7l2.1-3.5c-0.1-3.8-0.1-7.5-0.2-11.3l-1.9-3.2h-10.3l-5.2 9 5.2 9h10.3z"/><path class="a" d="m391.4 156.4l1.4 2.3q0-2.2-0.1-4.4z"/><path class="a" d="m393 172.3l-1.6 2.7 2 3.3q-0.3-3.1-0.4-6z"/><path class="a" d="m358.8 211.9l5.2-9-5.2-9.1h-10.4l-5.2 9.1 5.2 9z"/><path class="a" d="m342.7 240.3h-10.3l-5.3 9 5.3 9.1h10.3l5.2-9.1z"/><path class="a" d="m101.6 118.9l3.1-5.4c-4.8 1.8-9.3 3.5-13.3 5.4z"/><path class="a" d="m342.7 221.7h-10.3l-5.3 9 5.3 9.1h10.3l5.2-9.1z"/><path class="a" d="m342.7 203.1h-10.3l-5.3 9.1 5.3 9h10.3l5.2-9z"/><path class="a" d="m268.1 147.4l-5.3 9 5.3 9h10.3l5.2-9-5.2-9z"/><path class="a" d="m300.2 128.8l-5.2 9 5.2 9h10.4l5.2-9-5.2-9z"/><path class="a" d="m284.1 138.1l-5.2 9 5.2 9h10.4l5.2-9-5.2-9z"/><path class="a" d="m342.7 295.5l5.2-9-5.2-9h-10.3l-5.3 9 5.3 9z"/><path class="a" d="m252 138.1l-5.2 9 5.2 9h10.3l5.2-9-5.2-9z"/><path class="a" d="m364.5 110.2l-5.2 9 5.2 9h10.4l5.2-9-5.2-9z"/><path class="a" d="m348.4 119.5l-5.2 9 5.2 9h10.4l5.2-9-5.2-9z"/><path class="a" d="m316.3 138.1l-5.2 9 5.2 9h10.3l5.2-9-5.2-9z"/><path class="a" d="m380.6 118.9h2.9c-0.3-0.8-1.9-5.4-6.4-11.9l-1.7 2.9z"/><path class="a" d="m332.4 128.8l-5.3 9 5.3 9h10.3l5.2-9-5.2-9z"/><path class="a" d="m342.7 258.9h-10.3l-5.3 9 5.3 9h10.3l5.2-9z"/><path class="a" d="m117.7 276.9l5.2-9-5.2-9h-10.4l-5.2 9 5.2 9z"/><path class="a" d="m101.6 286.2l5.2-9-5.2-9h-10.4l-5.2 9 5.2 9z"/><path class="a" d="m85.5 276.9l5.2-9-5.2-9h-10.3l-5.3 9 5.3 9z"/><path class="a" d="m133.7 286.2l5.2-9-5.2-9h-10.3l-5.2 9 5.2 9z"/><path class="a" d="m149.8 276.9l5.2-9-5.2-9h-10.3l-5.3 9 5.3 9z"/><path class="a" d="m43 276.9h10.4l5.2-9-5.2-9h-10.4l-5.2 9z"/><path class="a" d="m165.9 267.6l5.2-9-5.2-9h-10.4l-5.2 9 5.2 9z"/><path class="a" d="m43 258.4h10.4l5.2-9.1-5.2-9h-9q-1.6 1.5-3.1 3l-3.5 6z"/><path class="a" d="m43 295.5h10.4l5.2-9-5.2-9h-10.4l-5.2 9z"/><path class="a" d="m69.4 286.2l5.2-9-5.2-9h-10.3l-5.2 9 5.2 9z"/><path class="a" d="m262.3 249.1l5.2-9.1-5.2-9h-10.3l-5.2 9 5.2 9.1z"/><path class="a" d="m294.5 267.6l5.2-9-5.2-9h-10.4l-5.2 9 5.2 9z"/><path class="a" d="m326.6 286.2l5.2-9-5.2-9h-10.3l-5.2 9 5.2 9z"/><path class="a" d="m278.4 258.4l5.2-9.1-5.2-9h-10.3l-5.3 9 5.3 9.1z"/><path class="a" d="m310.6 276.9l5.2-9-5.2-9h-10.4l-5.2 9 5.2 9z"/><path class="a" d="m198 267.6l5.2-9-5.2-9h-10.3l-5.2 9 5.2 9z"/><path class="a" d="m246.3 258.4l5.2-9.1-5.2-9h-10.4l-5.2 9 5.2 9.1z"/><path class="a" d="m182 258.4l5.2-9.1-5.2-9h-10.4l-5.2 9 5.2 9.1z"/><path class="a" d="m214.1 258.4l5.2-9.1-5.2-9h-10.3l-5.3 9 5.3 9.1z"/><path class="a" d="m230.2 249.1l5.2-9.1-5.2-9h-10.4l-5.2 9 5.2 9.1z"/><path class="a" d="m374.9 184l5.2-9-5.2-9h-10.4l-5.2 9 5.2 9z"/><path class="a" d="m117.7 202.6l5.2-9-5.2-9.1h-10.4l-5.2 9.1 5.2 9z"/><path class="a" d="m101.6 211.9l5.2-9-5.2-9.1h-10.4l-5.2 9.1 5.2 9z"/><path class="a" d="m165.9 211.9l5.2-9-5.2-9.1h-10.4l-5.2 9.1 5.2 9z"/><path class="a" d="m133.7 211.9l5.2-9-5.2-9.1h-10.3l-5.2 9.1 5.2 9z"/><path class="a" d="m60.8 156.7c-0.9 7 0.3 12.8 2.3 18h6.3l5.2-9-5.2-9z"/><path class="a" d="m69.4 175.3h-6.1c2.3 5.4 5.5 10.1 8 14.7l3.3-5.7z"/><path class="a" d="m75.2 166l-5.3 9 5.3 9h10.3l5.2-9-5.2-9z"/><path class="a" d="m123.4 175.3l-5.2 9 5.2 9h10.3l5.2-9-5.2-9z"/><path class="a" d="m90.7 193.6l-5.2-9.1h-10.3l-3.6 6.1c2.1 3.9 3.6 7.8 3.6 12h10.3z"/><path class="a" d="m101.6 193.3l5.2-9-5.2-9h-10.4l-5.2 9 5.2 9z"/><path class="a" d="m133.7 230.5l5.2-9-5.2-9.1h-10.3l-5.2 9.1 5.2 9z"/><path class="a" d="m101.6 230.5l5.2-9-5.2-9.1h-10.4l-5.2 9.1 5.2 9z"/><path class="a" d="m107.3 166l-5.2 9 5.2 9h10.4l5.2-9-5.2-9z"/><path class="a" d="m171.6 184.5l-5.2 9.1 5.2 9h10.4l5.2-9-5.2-9.1z"/><path class="a" d="m149.8 221.2l5.2-9-5.2-9.1h-10.3l-5.3 9.1 5.3 9z"/><path class="a" d="m117.7 221.2l5.2-9-5.2-9.1h-10.4l-5.2 9.1 5.2 9z"/><path class="a" d="m91.2 156.7l-5.2 9 5.2 9h10.4l5.2-9-5.2-9z"/><path class="a" d="m75.2 147.4l-5.3 9 5.3 9h10.3l5.2-9-5.2-9z"/><path class="a" d="m67.3 138.1c-3.2 5-5.3 10.9-6.4 18h8.5l5.2-9-5.2-9z"/><path class="a" d="m85.5 221.2l5.2-9-5.2-9.1h-10.3c-0.1 3.5-1.2 7.2-3.9 11.4l3.9 6.7z"/><path class="a" d="m149.8 202.6l5.2-9-5.2-9.1h-10.3l-5.3 9.1 5.3 9z"/><path class="a" d="m327.1 82l5.3 9h10.3l5.2-9-1.5-2.5q-5.3-3.3-11.7-6.5h-2.3z"/><path class="a" d="m310.6 314.7h-10.4l-5.2 9 5.2 9h4.6q3.8-2.2 8.3-4.4l2.7-4.6z"/><path class="a" d="m187.7 81.7h10.3l5.2-9-0.8-1.4q-3 1.6-5.5 3.4c-3.4 2.3-6.5 4.4-9.6 6.4z"/><path class="a" d="m187.7 175.3l-5.2 9 5.2 9h10.3l5.2-9-5.2-9z"/><path class="a" d="m358.8 305.4h-10.4l-5.2 9 2.1 3.6c6.3-1.1 12.2-1.6 17.7-1.8l1-1.8z"/><path class="a" d="m428.5 276.3c0-4.5-0.6-9.1-1.7-14l-3.2 5.6z"/><path class="a" d="m246.3 351.9h-10.4l-5.2 9 0.7 1.2c6.6 1.3 12.9 1.9 18.7 1.2l1.4-2.4z"/><path class="a" d="m266.2 56.4c-6.1 0-12 0.3-17.6 0.9l3.4 5.9h10.3z"/><path class="a" d="m326.6 305.4h-10.3l-5.2 9 5.2 9h8.8q1-0.3 1.9-0.6l4.8-8.4z"/><path class="a" d="m252 81.7h10.3l5.2-9-5.2-9h-10.3l-5.2 9z"/><path class="a" d="m155.5 100.3h10.4l5.2-9-0.5-0.8c-4.9 2.4-10.3 4.6-16.7 7z"/><path class="a" d="m75.2 146.8h10.3l5.2-9-5.2-9h-10q-0.4 0.3-0.7 0.6l-4.9 8.4z"/><path class="a" d="m214.1 202.6l5.2-9-5.2-9.1h-10.3l-5.3 9.1 5.3 9z"/><path class="a" d="m187.7 193.8l-5.2 9.1 5.2 9h10.3l5.2-9-5.2-9.1z"/><path class="a" d="m107.3 128.2h10.4l5.2-9-5.2-9h-3.2q-4.7 1.5-8.9 3l-3.5 6z"/><path class="a" d="m58.6 305.1l-5.2-9h-10.4l-4.8 8.3c2 3.8 4.4 7 7.2 9.7h8z"/><path class="a" d="m133.7 305.4h-10.3l-5.2 9 5.1 8.9c2.2-0.2 4.6-0.1 7.1 0.1h3.3l5.2-9z"/><path class="a" d="m58.6 230.7l-0.8-1.3c-4.4 3.7-8.8 6.9-12.8 10.4h8.4z"/><path class="a" d="m123.4 118.9h10.3l5.2-9-3.5-6.1q-5.1 1.6-11 3.3-2.9 0.9-5.6 1.7l-0.6 1.1z"/><path class="a" d="m42.5 277.2l-5.2-9h-6.6c-0.1 2.4 0 4.9 0.2 7.6q0.5 5.6 1.4 10.4h5z"/><path class="a" d="m74.6 314.4l-5.2-9h-10.3l-5.2 9 4.9 8.5q0.6 0.2 1.2 0.5h9.4z"/><path class="a" d="m300.2 166l-5.2 9 5.2 9h10.4l5.2-9-5.2-9z"/><path class="a" d="m268.1 184.5l-5.3 9.1 5.3 9h10.3l5.2-9-5.2-9.1z"/><path class="a" d="m284.1 175.3l-5.2 9 5.2 9h10.4l5.2-9-5.2-9z"/><path class="a" d="m219.8 175.3l-5.2 9 5.2 9h10.4l5.2-9-5.2-9z"/><path class="a" d="m252 175.3l-5.2 9 5.2 9h10.3l5.2-9-5.2-9z"/><path class="a" d="m235.9 184.5l-5.2 9.1 5.2 9h10.4l5.2-9-5.2-9.1z"/><path class="a" d="m310.6 239.8l5.2-9.1-5.2-9h-10.4l-5.2 9 5.2 9.1z"/><path class="a" d="m294.5 230.5l5.2-9-5.2-9.1h-10.4l-5.2 9.1 5.2 9z"/><path class="a" d="m310.6 203.1h-10.4l-5.2 9.1 5.2 9h10.4l5.2-9z"/><path class="a" d="m310.6 184.5h-10.4l-5.2 9.1 5.2 9h10.4l5.2-9z"/><path class="a" d="m326.6 193.3l5.2-9-5.2-9h-10.3l-5.2 9 5.2 9z"/><path class="a" d="m123.4 138.1l-5.2 9 5.2 9h10.3l5.2-9-5.2-9z"/><path class="a" d="m107.3 128.8l-5.2 9 5.2 9h10.4l5.2-9-5.2-9z"/><path class="a" d="m91.2 119.5l-5.2 9 5.2 9h10.4l5.2-9-5.2-9z"/><path class="a" d="m85.5 128.2l5.2-8.9c-5.7 2.7-10.5 5.6-14.5 8.9z"/><path class="a" d="m171.6 166l-5.2 9 5.2 9h10.4l5.2-9-5.2-9z"/><path class="a" d="m139.5 147.4l-5.3 9 5.3 9h10.3l5.2-9-5.2-9z"/><path class="a" d="m203.8 166l-5.3 9 5.3 9h10.3l5.2-9-5.2-9z"/><path class="a" d="m187.7 156.7l-5.2 9 5.2 9h10.3l5.2-9-5.2-9z"/><path class="a" d="m155.5 156.7l-5.2 9 5.2 9h10.4l5.2-9-5.2-9z"/><path class="a" d="m85.5 239.8l5.2-9.1-5.2-9h-10.3l-5.3 9 5.3 9.1z"/><path class="a" d="m67.7 137.5h1.7l4-6.8q-3.3 3.1-5.7 6.8z"/><path class="a" d="m133.7 249.1l5.2-9.1-5.2-9h-10.3l-5.2 9 5.2 9.1z"/><path class="a" d="m155.5 175.3l-5.2 9 5.2 9h10.4l5.2-9-5.2-9z"/><path class="a" d="m101.6 249.1l5.2-9.1-5.2-9h-10.4l-5.2 9 5.2 9.1z"/><path class="a" d="m117.7 239.8l5.2-9.1-5.2-9h-10.4l-5.2 9 5.2 9.1z"/><path class="a" d="m69.4 230.5l5.2-9-3.6-6.4q-0.3 0.5-0.7 1c-3.7 5.2-7.8 9.3-12.1 12.9l0.9 1.5z"/><path class="a" d="m123.4 156.7l-5.2 9 5.2 9h10.3l5.2-9-5.2-9z"/><path class="a" d="m139.5 166l-5.3 9 5.3 9h10.3l5.2-9-5.2-9z"/><path class="a" d="m91.2 138.1l-5.2 9 5.2 9h10.4l5.2-9-5.2-9z"/><path class="a" d="m107.3 147.4l-5.2 9 5.2 9h10.4l5.2-9-5.2-9z"/><path class="a" d="m230.2 211.9l5.2-9-5.2-9.1h-10.4l-5.2 9.1 5.2 9z"/><path class="a" d="m262.3 211.9l5.2-9-5.2-9.1h-10.3l-5.2 9.1 5.2 9z"/><path class="a" d="m246.3 221.2l5.2-9-5.2-9.1h-10.4l-5.2 9.1 5.2 9z"/><path class="a" d="m278.4 221.2l5.2-9-5.2-9.1h-10.3l-5.3 9.1 5.3 9z"/><path class="a" d="m294.5 211.9l5.2-9-5.2-9.1h-10.4l-5.2 9.1 5.2 9z"/><path class="a" d="m165.9 230.5l5.2-9-5.2-9.1h-10.4l-5.2 9.1 5.2 9z"/><path class="a" d="m149.8 239.8l5.2-9.1-5.2-9h-10.3l-5.3 9 5.3 9.1z"/><path class="a" d="m182 221.2l5.2-9-5.2-9.1h-10.4l-5.2 9.1 5.2 9z"/><path class="a" d="m214.1 221.2l5.2-9-5.2-9.1h-10.3l-5.3 9.1 5.3 9z"/><path class="a" d="m198 230.5l5.2-9-5.2-9.1h-10.3l-5.2 9.1 5.2 9z"/><path class="a" d="m230.2 230.5l5.2-9-5.2-9.1h-10.4l-5.2 9.1 5.2 9z"/><path class="a" d="m348.4 81.7h1.7q-1.3-0.8-2.6-1.6z"/><path class="a" d="m316.3 82.3l-5.2 9 5.2 9h10.3l5.2-9-5.2-9z"/><path class="a" d="m404.4 212.3c-1.8-3.2-3.3-6.2-4.6-9.2h-3.1l-5.3 9.1 5.3 9h10.3l1.2-2.1q-1.8-3.4-3.8-6.8z"/><path class="a" d="m300.2 73l-5.2 9 5.2 9h10.4l5.2-9-5.2-9z"/><path class="a" d="m284.1 82.3l-5.2 9 5.2 9h10.4l5.2-9-5.2-9z"/><path class="a" d="m407 239.8l5.2-9.1-5.2-9h-10.3l-5.3 9 5.3 9.1z"/><path class="a" d="m390.9 249.6h-10.3l-5.2 9 5.2 9h10.3l5.2-9z"/><path class="a" d="m390.9 268.2h-10.3l-5.2 9 5.2 9h10.3l5.2-9z"/><path class="a" d="m390.9 231h-10.3l-5.2 9 5.2 9.1h10.3l5.2-9.1z"/><path class="a" d="m268.1 91.6l-5.3 9 5.3 9h10.3l5.2-9-5.2-9z"/><path class="a" d="m198 342l5.2-9-5.2-9h-10.3l-5.2 9 5.2 9z"/><path class="a" d="m252 82.3l-5.2 9 5.2 9h10.3l5.2-9-5.2-9z"/><path class="a" d="m165.9 324h-10.4l-3.4 5.9c5.2 2.2 10.8 4.7 16.5 7.4l2.5-4.3z"/><path class="a" d="m390.9 286.8h-10.3l-5.2 9 5.2 9h10.3l5.2-9z"/><path class="a" d="m230.2 323.4l5.2-9-5.2-9h-10.4l-5.2 9 5.2 9z"/><path class="a" d="m214.1 332.7l5.2-9-5.2-9h-10.3l-5.3 9 5.3 9z"/><path class="a" d="m182 332.7l5.2-9-5.2-9h-10.4l-5.2 9 5.2 9z"/><path class="a" d="m171.6 91h10.4l5.2-9-0.4-0.6c-5.1 3.3-10.1 6.1-15.7 8.8z"/><path class="a" d="m235.9 91.6l-5.2 9 5.2 9h10.4l5.2-9-5.2-9z"/><path class="a" d="m219.8 82.3l-5.2 9 5.2 9h10.4l5.2-9-5.2-9z"/><path class="a" d="m203.8 73l-5.3 9 5.3 9h10.3l5.2-9-5.2-9z"/><path class="a" d="m380.6 305.4l-5.2 9 0.9 1.7c7 0 13.3 0.2 19-0.3l0.8-1.4-5.2-9z"/><path class="a" d="m103.8 327.7l-2.2-3.7h-10.4l-3.6 6.3c6 0.1 11.2-1.1 16.2-2.6z"/><path class="a" d="m117.7 314.7h-10.4l-5.2 9 2.2 3.9c5.9-1.8 11.6-3.8 18.4-4.3z"/><path class="a" d="m165.9 323.4l5.2-9-5.2-9h-10.4l-5.2 9 5.2 9z"/><path class="a" d="m149.8 314.7h-10.3l-5.3 9 0.2 0.3c3 0.6 6.1 1.4 9.6 2.7q3.7 1.3 7.6 3l3.4-6z"/><path class="a" d="m85.5 314.7h-10.3l-5.3 9 2.3 3.9q1.9 0.6 4 1.1c3.9 1 7.4 1.5 10.7 1.6l3.8-6.6z"/><path class="a" d="m203.8 91.6l-5.3 9 5.3 9h10.3l5.2-9-5.2-9z"/><path class="a" d="m187.7 82.3l-5.2 9 5.2 9h10.3l5.2-9-5.2-9z"/><path class="a" d="m219.8 100.9l-5.2 9 5.2 9h10.4l5.2-9-5.2-9z"/><path class="a" d="m182 314.1l5.2-9-5.2-9h-10.4l-5.2 9 5.2 9z"/><path class="a" d="m171.6 91.6l-5.2 9 5.2 9h10.4l5.2-9-5.2-9z"/><path class="a" d="m316.3 324l-2.3 3.9c2.9-1.3 6.1-2.7 9.5-3.9z"/><path class="a" d="m278.4 314.1l5.2-9-5.2-9h-10.3l-5.3 9 5.3 9z"/><path class="a" d="m294.5 323.4l5.2-9-5.2-9h-10.4l-5.2 9 5.2 9z"/><path class="a" d="m198 323.4l5.2-9-5.2-9h-10.3l-5.2 9 5.2 9z"/><path class="a" d="m396.1 315.7q3.1-0.3 6-1h-5.4z"/><path class="a" d="m246.3 332.7l5.2-9-5.2-9h-10.4l-5.2 9 5.2 9z"/><path class="a" d="m214.1 314.1l5.2-9-5.2-9h-10.3l-5.3 9 5.3 9z"/><path class="a" d="m230.2 304.8l5.2-9-5.2-9h-10.4l-5.2 9 5.2 9z"/><path class="a" d="m262.3 304.8l5.2-9-5.2-9h-10.3l-5.2 9 5.2 9z"/><path class="a" d="m246.3 314.1l5.2-9-5.2-9h-10.4l-5.2 9 5.2 9z"/><path class="a" d="m69.4 324h-8.1q4.7 1.8 10.1 3.4z"/><path class="a" d="m278.4 351.3l5.2-9-5.2-9h-10.3l-5.3 9 5.3 9z"/><path class="a" d="m262.3 342l5.2-9-5.2-9h-10.3l-5.2 9 5.2 9z"/><path class="a" d="m284.1 342.6l-5 8.7c3.7-2.7 7.3-5.7 11.3-8.7z"/><path class="a" d="m246.3 351.3l5.2-9-5.2-9h-10.4l-5.2 9 5.2 9z"/><path class="a" d="m278.3 351.9h-10.2l-4.8 8.2c5.7-2.1 10.5-5 15-8.2z"/><path class="a" d="m423.1 286.8h-10.4l-5.2 9 5.2 9h5.1q0.9-1 1.8-2.1c2.7-3.7 4.7-7.5 6.1-11.4z"/><path class="a" d="m214.1 351.9h-10.3l-0.7 1.1c5 2.1 10 3.9 14.9 5.5z"/><path class="a" d="m203.2 351.6l-5.2-9h-10.3l-1.7 2.9c5.5 2.5 11 5 16.5 7.3z"/><path class="a" d="m214.1 333.3h-10.3l-5.3 9 5.3 9h10.3l5.2-9z"/><path class="a" d="m182 333.3h-10.4l-2.5 4.3c5.3 2.5 10.8 5.1 16.4 7.6l1.7-2.9z"/><path class="a" d="m230.2 342l5.2-9-5.2-9h-10.4l-5.2 9 5.2 9z"/><path class="a" d="m423.6 286.5l2.4 4.2c1.4-4.1 2.2-8.2 2.4-12.5z"/><path class="a" d="m230.2 361.2h-3.1q1.8 0.4 3.6 0.8z"/><path class="a" d="m262 360.6q0.2-0.1 0.4-0.2l5.1-8.8-5.2-9h-10.3l-5.2 9 5.2 9z"/><path class="a" d="m423.1 268.2h-10.4l-5.2 9 5.2 9h10.4l5.2-9z"/><path class="a" d="m252 361.2l-1.2 2.1q1.2-0.2 2.4-0.4c2.5-0.5 4.9-1.1 7.1-1.7z"/><path class="a" d="m422.9 249.6h-10.2l-5.2 9 5.2 9h10.4l3.5-6q-1.4-5.8-3.7-12z"/><path class="a" d="m262.8 63.4l5.3 9.1h10.3l5.2-9.1-3.6-6.2q-6.7-0.7-13.1-0.8z"/><path class="a" d="m230.7 63.4l5.2 9.1h10.4l5.2-9.1-3.5-6c-5.4 0.6-10.5 1.5-15.3 2.6z"/><path class="a" d="m230.2 360.6l5.2-9-5.2-9h-10.4l-5.2 9 4.2 7.2q3.1 1 6.2 1.8h5.2z"/><path class="a" d="m219.8 63.7l-5.2 9 5.2 9h10.4l5.2-9-5.2-9z"/><path class="a" d="m407 258.9h-10.3l-5.3 9 5.3 9h10.3l5.2-9z"/><path class="a" d="m407 277.5h-10.3l-5.3 9 5.3 9h10.3l5.2-9z"/><path class="a" d="m396.7 296.1l-5.3 9 5.3 9h7.3q2-0.6 3.9-1.5l4.3-7.5-5.2-9h-10.3z"/><path class="a" d="m422.7 249.1c-2.2-5.8-4.9-11.8-8.1-18.1h-1.9l-5.2 9 5.2 9.1z"/><path class="a" d="m407 240.3h-10.3l-5.3 9 5.3 9.1h10.3l5.2-9.1z"/><path class="a" d="m412.7 305.4l-3.9 6.8c3.1-1.6 5.9-3.8 8.5-6.8z"/><path class="a" d="m278.4 332.7l5.2-9-5.2-9h-10.3l-5.3 9 5.3 9z"/><path class="a" d="m291.1 342q2.8-2.1 5.9-4.3l2.7-4.7-5.2-9h-10.4l-5.2 9 5.2 9z"/><path class="a" d="m407.5 221.5l5.2 9h1.6q-2.7-5.3-5.8-10.8z"/><path class="a" d="m300.2 333.3l-2.1 3.7q2.7-1.9 5.8-3.7z"/><path class="a" d="m203.8 72.5h10.3l4.9-8.6c-6.1 2.1-11.5 4.6-16.1 7.1z"/><path class="a" d="m235.9 73l-5.2 9 5.2 9h10.4l5.2-9-5.2-9z"/><path class="a" d="m268.1 73l-5.3 9 5.3 9h10.3l5.2-9-5.2-9z"/><path class="a" d="m262.3 323.4l5.2-9-5.2-9h-10.3l-5.2 9 5.2 9z"/><path class="a" d="m221.3 63.2h8.9l1.7-3q-5.6 1.3-10.6 3z"/><path class="a" d="m295 63.4l5.2 9.1h10.4l4.4-7.7c-6.1-2-12.1-3.7-17.9-4.9z"/><path class="a" d="m316.3 81.7h10.3l5.2-9-0.8-1.4q-5-2.4-10.7-4.5-2.4-1-4.8-1.8l-4.4 7.7z"/><path class="a" d="m332.4 72.5h1.1q-0.8-0.4-1.6-0.8z"/><path class="a" d="m284.1 63.2h10.4l2-3.5q-8.1-1.7-15.8-2.5z"/><path class="a" d="m284.1 81.7h10.4l5.2-9-5.2-9h-10.4l-5.2 9z"/><path class="a" d="m284.1 100.9l-5.2 9 5.2 9h10.4l5.2-9-5.2-9z"/><path class="a" d="m342.7 314.1l5.2-9-5.2-9h-10.3l-5.3 9 5.3 9z"/><path class="a" d="m358.8 231h-10.4l-5.2 9 5.2 9.1h10.4l5.2-9.1z"/><path class="a" d="m326.6 304.8l5.2-9-5.2-9h-10.3l-5.2 9 5.2 9z"/><path class="a" d="m358.8 249.6h-10.4l-5.2 9 5.2 9h10.4l5.2-9z"/><path class="a" d="m358.8 268.2h-10.4l-5.2 9 5.2 9h10.4l5.2-9z"/><path class="a" d="m358.8 304.8l5.2-9-5.2-9h-10.4l-5.2 9 5.2 9z"/><path class="a" d="m278.4 276.9l5.2-9-5.2-9h-10.3l-5.3 9 5.3 9z"/><path class="a" d="m262.3 267.6l5.2-9-5.2-9h-10.3l-5.2 9 5.2 9z"/><path class="a" d="m310.6 295.5l5.2-9-5.2-9h-10.4l-5.2 9 5.2 9z"/><path class="a" d="m294.5 286.2l5.2-9-5.2-9h-10.4l-5.2 9 5.2 9z"/><path class="a" d="m364.5 109.6h10.4l1.8-3.1c-3-4.1-7.1-9-12.7-14.1l-4.7 8.2z"/><path class="a" d="m316.3 119.5l-5.2 9 5.2 9h10.3l5.2-9-5.2-9z"/><path class="a" d="m348.4 100.9l-5.2 9 5.2 9h10.4l5.2-9-5.2-9z"/><path class="a" d="m332.4 110.2l-5.3 9 5.3 9h10.3l5.2-9-5.2-9z"/><path class="a" d="m300.2 110.2l-5.2 9 5.2 9h10.4l5.2-9-5.2-9z"/><path class="a" d="m246.3 276.9l5.2-9-5.2-9h-10.4l-5.2 9 5.2 9z"/><path class="a" d="m358.8 212.4h-10.4l-5.2 9.1 5.2 9h10.4l5.2-9z"/><path class="a" d="m374.9 221.2l5.2-9-5.2-9.1h-10.4l-5.2 9.1 5.2 9z"/><path class="a" d="m374.9 184.5h-10.4l-5.2 9.1 5.2 9h10.4l5.2-9z"/><path class="a" d="m390.9 193.3l3.7-6.3c-0.5-2.5-0.8-4.9-1.1-7.3l-2.6-4.4h-10.3l-5.2 9 5.2 9h10.3z"/><path class="a" d="m187.7 119.5l-5.2 9 5.2 9h10.3l5.2-9-5.2-9z"/><path class="a" d="m37.3 249.1l2.2-3.9q-1.6 1.9-3 3.9z"/><path class="a" d="m117.7 109.6l0.3-0.5q-0.9 0.3-1.7 0.5z"/><path class="a" d="m42.5 295.8l-5.2-9h-4.9c1.3 6.7 3.1 12.3 5.5 17z"/><path class="a" d="m37.3 267.6l5.2-9-5.2-9h-1.1c-3.1 4.7-5.1 10.5-5.4 18z"/><path class="a" d="m139.5 110.2l-5.3 9 5.3 9h10.3l5.2-9-5.2-9z"/><path class="a" d="m155.5 119.5l-5.2 9 5.2 9h10.4l5.2-9-5.2-9z"/><path class="a" d="m69.4 304.8l5.2-9-5.2-9h-10.3l-5.2 9 5.2 9z"/><path class="a" d="m203.8 128.8l-5.3 9 5.3 9h10.3l5.2-9-5.2-9z"/><path class="a" d="m284.1 119.5l-5.2 9 5.2 9h10.4l5.2-9-5.2-9z"/><path class="a" d="m171.6 128.8l-5.2 9 5.2 9h10.4l5.2-9-5.2-9z"/><path class="a" d="m182 276.9l5.2-9-5.2-9h-10.4l-5.2 9 5.2 9z"/><path class="a" d="m85.5 295.5l5.2-9-5.2-9h-10.3l-5.3 9 5.3 9z"/><path class="a" d="m165.9 286.2l5.2-9-5.2-9h-10.4l-5.2 9 5.2 9z"/><path class="a" d="m235.9 110.2l-5.2 9 5.2 9h10.4l5.2-9-5.2-9z"/><path class="a" d="m214.1 276.9l5.2-9-5.2-9h-10.3l-5.3 9 5.3 9z"/><path class="a" d="m230.2 267.6l5.2-9-5.2-9h-10.4l-5.2 9 5.2 9z"/><path class="a" d="m101.6 304.8l5.2-9-5.2-9h-10.4l-5.2 9 5.2 9z"/><path class="a" d="m117.7 295.5l5.2-9-5.2-9h-10.4l-5.2 9 5.2 9z"/><path class="a" d="m133.7 304.8l5.2-9-5.2-9h-10.3l-5.2 9 5.2 9z"/><path class="a" d="m149.8 295.5l5.2-9-5.2-9h-10.3l-5.3 9 5.3 9z"/><path class="a" d="m198 286.2l5.2-9-5.2-9h-10.3l-5.2 9 5.2 9z"/><path class="a" d="m374.9 277.5h-10.4l-5.2 9 5.2 9h10.4l5.2-9z"/><path class="a" d="m374.9 258.9h-10.4l-5.2 9 5.2 9h10.4l5.2-9z"/><path class="a" d="m374.9 240.3h-10.4l-5.2 9 5.2 9.1h10.4l5.2-9.1z"/><path class="a" d="m374.9 296.1h-10.4l-5.2 9 5.2 9h10.4l5.2-9z"/><path class="a" d="m374.9 221.7h-10.4l-5.2 9 5.2 9.1h10.4l5.2-9.1z"/><path class="a" d="m294.5 304.8l5.2-9-5.2-9h-10.4l-5.2 9 5.2 9z"/><path class="a" d="m310.6 314.1l5.2-9-5.2-9h-10.4l-5.2 9 5.2 9z"/><path class="a" d="m390.9 230.5l5.2-9-5.2-9.1h-10.3l-5.2 9.1 5.2 9z"/><path class="a" d="m375.7 316l-0.8-1.3h-10.4l-0.8 1.4c4.2-0.1 8.2-0.1 12-0.1z"/><path class="a" d="m344.7 318.1l-2-3.4h-10.3l-4.6 7.8q1.7-0.6 3.5-1.1c4.7-1.4 9.2-2.5 13.4-3.3z"/><path class="a" d="m343.2 91.3l5.2 9h10.4l4.8-8.2c-3.6-3.2-7.8-6.5-12.7-9.8h-2.5z"/><path class="a" d="m268.1 128.8l-5.3 9 5.3 9h10.3l5.2-9-5.2-9z"/><path class="a" d="m219.8 138.1l-5.2 9 5.2 9h10.4l5.2-9-5.2-9z"/><path class="a" d="m252 100.9l-5.2 9 5.2 9h10.3l5.2-9-5.2-9z"/><path class="a" d="m300.2 91.6l-5.2 9 5.2 9h10.4l5.2-9-5.2-9z"/><path class="a" d="m332.4 91.6l-5.3 9 5.3 9h10.3l5.2-9-5.2-9z"/><path class="a" d="m316.3 100.9l-5.2 9 5.2 9h10.3l5.2-9-5.2-9z"/><path class="a" d="m399.5 202.6c-2.3-5.3-3.8-10.2-4.7-14.8l-3.4 5.8 5.3 9z"/><path class="a" d="m278.4 295.5l5.2-9-5.2-9h-10.3l-5.3 9 5.3 9z"/><path class="a" d="m390.9 193.8h-10.3l-5.2 9.1 5.2 9h10.3l5.2-9z"/><path class="a" d="m268.1 110.2l-5.3 9 5.3 9h10.3l5.2-9-5.2-9z"/><path class="a" d="m262.3 286.2l5.2-9-5.2-9h-10.3l-5.2 9 5.2 9z"/><path class="a" d="m171.6 110.2l-5.2 9 5.2 9h10.4l5.2-9-5.2-9z"/><path class="a" d="m136 103.6l3.5 6h10.3l5.2-9-1.7-2.9c-5 1.9-10.7 3.8-17.3 5.9z"/><path class="a" d="m187.7 100.9l-5.2 9 5.2 9h10.3l5.2-9-5.2-9z"/><path class="a" d="m53.4 314.7h-7.4c3.4 3.1 7.3 5.6 11.9 7.7z"/><path class="a" d="m85.5 314.1l5.2-9-5.2-9h-10.3l-5.3 9 5.3 9z"/><path class="a" d="m252 119.5l-5.2 9 5.2 9h10.3l5.2-9-5.2-9z"/><path class="a" d="m203.8 110.2l-5.3 9 5.3 9h10.3l5.2-9-5.2-9z"/><path class="a" d="m235.9 128.8l-5.2 9 5.2 9h10.4l5.2-9-5.2-9z"/><path class="a" d="m219.8 119.5l-5.2 9 5.2 9h10.4l5.2-9-5.2-9z"/><path class="a" d="m155.5 100.9l-5.2 9 5.2 9h10.4l5.2-9-5.2-9z"/><path class="a" d="m214.1 295.5l5.2-9-5.2-9h-10.3l-5.3 9 5.3 9z"/><path class="a" d="m230.2 286.2l5.2-9-5.2-9h-10.4l-5.2 9 5.2 9z"/><path class="a" d="m246.3 295.5l5.2-9-5.2-9h-10.4l-5.2 9 5.2 9z"/><path class="a" d="m101.6 323.4l5.2-9-5.2-9h-10.4l-5.2 9 5.2 9z"/><path class="a" d="m198 304.8l5.2-9-5.2-9h-10.3l-5.2 9 5.2 9z"/><path class="a" d="m182 295.5l5.2-9-5.2-9h-10.4l-5.2 9 5.2 9z"/><path class="a" d="m117.7 314.1l5.2-9-5.2-9h-10.4l-5.2 9 5.2 9z"/><path class="a" d="m149.8 314.1l5.2-9-5.2-9h-10.3l-5.3 9 5.3 9z"/><path class="a" d="m165.9 304.8l5.2-9-5.2-9h-10.4l-5.2 9 5.2 9z"/><g style="opacity:.6"><path class="b" d="m348.4 138.1l-5.2 9 5.2 9h10.4l5.2-9-5.2-9z"/><path class="b" d="m332.4 147.4l-5.3 9 5.3 9h10.3l5.2-9-5.2-9z"/><path class="b" d="m316.3 156.7l-5.2 9 5.2 9h10.3l5.2-9-5.2-9z"/><path class="b" d="m300.2 147.4l-5.2 9 5.2 9h10.4l5.2-9-5.2-9z"/><path class="b" d="m374.9 165.4l5.2-9-5.2-9h-10.4l-5.2 9 5.2 9z"/><path class="b" d="m390.9 156.1l1.7-2.9c-0.3-4.8-0.8-9.8-2.1-15.1h-9.9l-5.2 9 5.2 9z"/><path class="b" d="m358.8 174.7l5.2-9-5.2-9h-10.4l-5.2 9 5.2 9z"/><path class="b" d="m364.5 128.8l-5.2 9 5.2 9h10.4l5.2-9-5.2-9z"/><path class="b" d="m375.4 128.5l5.2 9h9.8c-1.4-5.5-3.4-11.4-6.6-18h-3.2z"/><path class="b" d="m171.6 147.4l-5.2 9 5.2 9h10.4l5.2-9-5.2-9z"/><path class="b" d="m342.7 166h-10.3l-5.3 9 5.3 9h10.3l5.2-9z"/><path class="b" d="m203.8 147.4l-5.3 9 5.3 9h10.3l5.2-9-5.2-9z"/><path class="b" d="m187.7 138.1l-5.2 9 5.2 9h10.3l5.2-9-5.2-9z"/><path class="b" d="m139.5 128.8l-5.3 9 5.3 9h10.3l5.2-9-5.2-9z"/><path class="b" d="m155.5 138.1l-5.2 9 5.2 9h10.4l5.2-9-5.2-9z"/><path class="b" d="m235.9 166l-5.2 9 5.2 9h10.4l5.2-9-5.2-9z"/><path class="b" d="m252 156.7l-5.2 9 5.2 9h10.3l5.2-9-5.2-9z"/><path class="b" d="m268.1 166l-5.3 9 5.3 9h10.3l5.2-9-5.2-9z"/><path class="b" d="m284.1 156.7l-5.2 9 5.2 9h10.4l5.2-9-5.2-9z"/><path class="b" d="m219.8 156.7l-5.2 9 5.2 9h10.4l5.2-9-5.2-9z"/><path class="b" d="m326.6 231h-10.3l-5.2 9 5.2 9.1h10.3l5.2-9.1z"/><path class="b" d="m133.7 267.6l5.2-9-5.2-9h-10.3l-5.2 9 5.2 9z"/><path class="b" d="m149.8 258.4l5.2-9.1-5.2-9h-10.3l-5.3 9 5.3 9.1z"/><path class="b" d="m165.9 249.1l5.2-9.1-5.2-9h-10.4l-5.2 9 5.2 9.1z"/><path class="b" d="m182 239.8l5.2-9.1-5.2-9h-10.4l-5.2 9 5.2 9.1z"/><path class="b" d="m198 249.1l5.2-9.1-5.2-9h-10.3l-5.2 9 5.2 9.1z"/><path class="b" d="m101.6 267.6l5.2-9-5.2-9h-10.4l-5.2 9 5.2 9z"/><path class="b" d="m117.7 258.4l5.2-9.1-5.2-9h-10.4l-5.2 9 5.2 9.1z"/><path class="b" d="m59.1 267.6h10.3l5.2-9-5.2-9h-10.3l-5.2 9z"/><path class="b" d="m85.5 258.4l5.2-9.1-5.2-9h-10.3l-5.3 9 5.3 9.1z"/><path class="b" d="m214.1 239.8l5.2-9.1-5.2-9h-10.3l-5.3 9 5.3 9.1z"/><path class="b" d="m326.6 193.8h-10.3l-5.2 9.1 5.2 9h10.3l5.2-9z"/><path class="b" d="m326.6 212.4h-10.3l-5.2 9.1 5.2 9h10.3l5.2-9z"/><path class="b" d="m326.6 267.6l5.2-9-5.2-9h-10.3l-5.2 9 5.2 9z"/><path class="b" d="m246.3 239.8l5.2-9.1-5.2-9h-10.4l-5.2 9 5.2 9.1z"/><path class="b" d="m342.7 202.6l5.2-9-5.2-9.1h-10.3l-5.3 9.1 5.3 9z"/><path class="b" d="m123.4 119.5l-5.2 9 5.2 9h10.3l5.2-9-5.2-9z"/><path class="b" d="m278.4 239.8l5.2-9.1-5.2-9h-10.3l-5.3 9 5.3 9.1z"/><path class="b" d="m310.6 258.4l5.2-9.1-5.2-9h-10.4l-5.2 9 5.2 9.1z"/><path class="b" d="m262.3 230.5l5.2-9-5.2-9.1h-10.3l-5.2 9.1 5.2 9z"/><path class="b" d="m294.5 249.1l5.2-9.1-5.2-9h-10.4l-5.2 9 5.2 9.1z"/><path class="b" d="m235.9 147.4l-5.2 9 5.2 9h10.4l5.2-9-5.2-9z"/><path class="b" d="m358.8 175.3h-10.4l-5.2 9 5.2 9h10.4l5.2-9z"/><path class="b" d="m69.4 249.1l5.2-9.1-5.2-9h-10.3l-5.2 9 5.2 9.1z"/><path class="b" d="m390.9 174.7l2.1-3.5c-0.1-3.8-0.1-7.5-0.2-11.3l-1.9-3.2h-10.3l-5.2 9 5.2 9h10.3z"/><path class="b" d="m391.4 156.4l1.4 2.3q0-2.2-0.1-4.4z"/><path class="b" d="m393 172.3l-1.6 2.7 2 3.3q-0.3-3.1-0.4-6z"/><path class="b" d="m358.8 211.9l5.2-9-5.2-9.1h-10.4l-5.2 9.1 5.2 9z"/><path class="b" d="m342.7 240.3h-10.3l-5.3 9 5.3 9.1h10.3l5.2-9.1z"/><path class="b" d="m101.6 118.9l3.1-5.4c-4.8 1.8-9.3 3.5-13.3 5.4z"/><path class="b" d="m342.7 221.7h-10.3l-5.3 9 5.3 9.1h10.3l5.2-9.1z"/><path class="b" d="m342.7 203.1h-10.3l-5.3 9.1 5.3 9h10.3l5.2-9z"/><path class="b" d="m268.1 147.4l-5.3 9 5.3 9h10.3l5.2-9-5.2-9z"/><path class="b" d="m300.2 128.8l-5.2 9 5.2 9h10.4l5.2-9-5.2-9z"/><path class="b" d="m284.1 138.1l-5.2 9 5.2 9h10.4l5.2-9-5.2-9z"/><path class="b" d="m342.7 295.5l5.2-9-5.2-9h-10.3l-5.3 9 5.3 9z"/><path class="b" d="m252 138.1l-5.2 9 5.2 9h10.3l5.2-9-5.2-9z"/><path class="b" d="m364.5 110.2l-5.2 9 5.2 9h10.4l5.2-9-5.2-9z"/><path class="b" d="m348.4 119.5l-5.2 9 5.2 9h10.4l5.2-9-5.2-9z"/><path class="b" d="m316.3 138.1l-5.2 9 5.2 9h10.3l5.2-9-5.2-9z"/><path class="b" d="m380.6 118.9h2.9c-0.3-0.8-1.9-5.4-6.4-11.9l-1.7 2.9z"/><path class="b" d="m332.4 128.8l-5.3 9 5.3 9h10.3l5.2-9-5.2-9z"/><path class="b" d="m342.7 258.9h-10.3l-5.3 9 5.3 9h10.3l5.2-9z"/><path class="b" d="m117.7 276.9l5.2-9-5.2-9h-10.4l-5.2 9 5.2 9z"/><path class="b" d="m101.6 286.2l5.2-9-5.2-9h-10.4l-5.2 9 5.2 9z"/><path class="b" d="m85.5 276.9l5.2-9-5.2-9h-10.3l-5.3 9 5.3 9z"/><path class="b" d="m133.7 286.2l5.2-9-5.2-9h-10.3l-5.2 9 5.2 9z"/><path class="b" d="m149.8 276.9l5.2-9-5.2-9h-10.3l-5.3 9 5.3 9z"/><path class="b" d="m43 276.9h10.4l5.2-9-5.2-9h-10.4l-5.2 9z"/><path class="b" d="m165.9 267.6l5.2-9-5.2-9h-10.4l-5.2 9 5.2 9z"/><path class="b" d="m43 258.4h10.4l5.2-9.1-5.2-9h-9q-1.6 1.5-3.1 3l-3.5 6z"/><path class="b" d="m43 295.5h10.4l5.2-9-5.2-9h-10.4l-5.2 9z"/><path class="b" d="m69.4 286.2l5.2-9-5.2-9h-10.3l-5.2 9 5.2 9z"/><path class="b" d="m262.3 249.1l5.2-9.1-5.2-9h-10.3l-5.2 9 5.2 9.1z"/><path class="b" d="m294.5 267.6l5.2-9-5.2-9h-10.4l-5.2 9 5.2 9z"/><path class="b" d="m326.6 286.2l5.2-9-5.2-9h-10.3l-5.2 9 5.2 9z"/><path class="b" d="m278.4 258.4l5.2-9.1-5.2-9h-10.3l-5.3 9 5.3 9.1z"/><path class="b" d="m310.6 276.9l5.2-9-5.2-9h-10.4l-5.2 9 5.2 9z"/><path class="b" d="m198 267.6l5.2-9-5.2-9h-10.3l-5.2 9 5.2 9z"/><path class="b" d="m246.3 258.4l5.2-9.1-5.2-9h-10.4l-5.2 9 5.2 9.1z"/><path class="b" d="m182 258.4l5.2-9.1-5.2-9h-10.4l-5.2 9 5.2 9.1z"/><path class="b" d="m214.1 258.4l5.2-9.1-5.2-9h-10.3l-5.3 9 5.3 9.1z"/><path class="b" d="m230.2 249.1l5.2-9.1-5.2-9h-10.4l-5.2 9 5.2 9.1z"/><path class="b" d="m374.9 184l5.2-9-5.2-9h-10.4l-5.2 9 5.2 9z"/><path class="b" d="m117.7 202.6l5.2-9-5.2-9.1h-10.4l-5.2 9.1 5.2 9z"/><path class="b" d="m101.6 211.9l5.2-9-5.2-9.1h-10.4l-5.2 9.1 5.2 9z"/><path class="b" d="m165.9 211.9l5.2-9-5.2-9.1h-10.4l-5.2 9.1 5.2 9z"/><path class="b" d="m133.7 211.9l5.2-9-5.2-9.1h-10.3l-5.2 9.1 5.2 9z"/><path class="b" d="m60.8 156.7c-0.9 7 0.3 12.8 2.3 18h6.3l5.2-9-5.2-9z"/><path class="b" d="m69.4 175.3h-6.1c2.3 5.4 5.5 10.1 8 14.7l3.3-5.7z"/><path class="b" d="m75.2 166l-5.3 9 5.3 9h10.3l5.2-9-5.2-9z"/><path class="b" d="m123.4 175.3l-5.2 9 5.2 9h10.3l5.2-9-5.2-9z"/><path class="b" d="m90.7 193.6l-5.2-9.1h-10.3l-3.6 6.1c2.1 3.9 3.6 7.8 3.6 12h10.3z"/><path class="b" d="m101.6 193.3l5.2-9-5.2-9h-10.4l-5.2 9 5.2 9z"/><path class="b" d="m133.7 230.5l5.2-9-5.2-9.1h-10.3l-5.2 9.1 5.2 9z"/><path class="b" d="m101.6 230.5l5.2-9-5.2-9.1h-10.4l-5.2 9.1 5.2 9z"/><path class="b" d="m107.3 166l-5.2 9 5.2 9h10.4l5.2-9-5.2-9z"/><path class="b" d="m171.6 184.5l-5.2 9.1 5.2 9h10.4l5.2-9-5.2-9.1z"/><path class="b" d="m149.8 221.2l5.2-9-5.2-9.1h-10.3l-5.3 9.1 5.3 9z"/><path class="b" d="m117.7 221.2l5.2-9-5.2-9.1h-10.4l-5.2 9.1 5.2 9z"/><path class="b" d="m91.2 156.7l-5.2 9 5.2 9h10.4l5.2-9-5.2-9z"/><path class="b" d="m75.2 147.4l-5.3 9 5.3 9h10.3l5.2-9-5.2-9z"/><path class="b" d="m67.3 138.1c-3.2 5-5.3 10.9-6.4 18h8.5l5.2-9-5.2-9z"/><path class="b" d="m85.5 221.2l5.2-9-5.2-9.1h-10.3c-0.1 3.5-1.2 7.2-3.9 11.4l3.9 6.7z"/><path class="b" d="m149.8 202.6l5.2-9-5.2-9.1h-10.3l-5.3 9.1 5.3 9z"/><path class="b" d="m327.1 82l5.3 9h10.3l5.2-9-1.5-2.5q-5.3-3.3-11.7-6.5h-2.3z"/><path class="b" d="m310.6 314.7h-10.4l-5.2 9 5.2 9h4.6q3.8-2.2 8.3-4.4l2.7-4.6z"/><path class="b" d="m187.7 81.7h10.3l5.2-9-0.8-1.4q-3 1.6-5.5 3.4c-3.4 2.3-6.5 4.4-9.6 6.4z"/><path class="b" d="m187.7 175.3l-5.2 9 5.2 9h10.3l5.2-9-5.2-9z"/><path class="b" d="m358.8 305.4h-10.4l-5.2 9 2.1 3.6c6.3-1.1 12.2-1.6 17.7-1.8l1-1.8z"/><path class="b" d="m428.5 276.3c0-4.5-0.6-9.1-1.7-14l-3.2 5.6z"/><path class="b" d="m246.3 351.9h-10.4l-5.2 9 0.7 1.2c6.6 1.3 12.9 1.9 18.7 1.2l1.4-2.4z"/><path class="b" d="m266.2 56.4c-6.1 0-12 0.3-17.6 0.9l3.4 5.9h10.3z"/><path class="b" d="m326.6 305.4h-10.3l-5.2 9 5.2 9h8.8q1-0.3 1.9-0.6l4.8-8.4z"/><path class="b" d="m252 81.7h10.3l5.2-9-5.2-9h-10.3l-5.2 9z"/><path class="b" d="m155.5 100.3h10.4l5.2-9-0.5-0.8c-4.9 2.4-10.3 4.6-16.7 7z"/><path class="b" d="m75.2 146.8h10.3l5.2-9-5.2-9h-10q-0.4 0.3-0.7 0.6l-4.9 8.4z"/><path class="b" d="m214.1 202.6l5.2-9-5.2-9.1h-10.3l-5.3 9.1 5.3 9z"/><path class="b" d="m187.7 193.8l-5.2 9.1 5.2 9h10.3l5.2-9-5.2-9.1z"/><path class="b" d="m107.3 128.2h10.4l5.2-9-5.2-9h-3.2q-4.7 1.5-8.9 3l-3.5 6z"/><path class="b" d="m58.6 305.1l-5.2-9h-10.4l-4.8 8.3c2 3.8 4.4 7 7.2 9.7h8z"/><path class="b" d="m133.7 305.4h-10.3l-5.2 9 5.1 8.9c2.2-0.2 4.6-0.1 7.1 0.1h3.3l5.2-9z"/><path class="b" d="m58.6 230.7l-0.8-1.3c-4.4 3.7-8.8 6.9-12.8 10.4h8.4z"/><path class="b" d="m123.4 118.9h10.3l5.2-9-3.5-6.1q-5.1 1.6-11 3.3-2.9 0.9-5.6 1.7l-0.6 1.1z"/><path class="b" d="m42.5 277.2l-5.2-9h-6.6c-0.1 2.4 0 4.9 0.2 7.6q0.5 5.6 1.4 10.4h5z"/><path class="b" d="m74.6 314.4l-5.2-9h-10.3l-5.2 9 4.9 8.5q0.6 0.2 1.2 0.5h9.4z"/><path class="b" d="m300.2 166l-5.2 9 5.2 9h10.4l5.2-9-5.2-9z"/><path class="b" d="m268.1 184.5l-5.3 9.1 5.3 9h10.3l5.2-9-5.2-9.1z"/><path class="b" d="m284.1 175.3l-5.2 9 5.2 9h10.4l5.2-9-5.2-9z"/><path class="b" d="m219.8 175.3l-5.2 9 5.2 9h10.4l5.2-9-5.2-9z"/><path class="b" d="m252 175.3l-5.2 9 5.2 9h10.3l5.2-9-5.2-9z"/><path class="b" d="m235.9 184.5l-5.2 9.1 5.2 9h10.4l5.2-9-5.2-9.1z"/><path class="b" d="m310.6 239.8l5.2-9.1-5.2-9h-10.4l-5.2 9 5.2 9.1z"/><path class="b" d="m294.5 230.5l5.2-9-5.2-9.1h-10.4l-5.2 9.1 5.2 9z"/><path class="b" d="m310.6 203.1h-10.4l-5.2 9.1 5.2 9h10.4l5.2-9z"/><path class="b" d="m310.6 184.5h-10.4l-5.2 9.1 5.2 9h10.4l5.2-9z"/><path class="b" d="m326.6 193.3l5.2-9-5.2-9h-10.3l-5.2 9 5.2 9z"/><path class="b" d="m123.4 138.1l-5.2 9 5.2 9h10.3l5.2-9-5.2-9z"/><path class="b" d="m107.3 128.8l-5.2 9 5.2 9h10.4l5.2-9-5.2-9z"/><path class="b" d="m91.2 119.5l-5.2 9 5.2 9h10.4l5.2-9-5.2-9z"/><path class="b" d="m85.5 128.2l5.2-8.9c-5.7 2.7-10.5 5.6-14.5 8.9z"/><path class="b" d="m171.6 166l-5.2 9 5.2 9h10.4l5.2-9-5.2-9z"/><path class="b" d="m139.5 147.4l-5.3 9 5.3 9h10.3l5.2-9-5.2-9z"/><path class="b" d="m203.8 166l-5.3 9 5.3 9h10.3l5.2-9-5.2-9z"/><path class="b" d="m187.7 156.7l-5.2 9 5.2 9h10.3l5.2-9-5.2-9z"/><path class="b" d="m155.5 156.7l-5.2 9 5.2 9h10.4l5.2-9-5.2-9z"/><path class="b" d="m85.5 239.8l5.2-9.1-5.2-9h-10.3l-5.3 9 5.3 9.1z"/><path class="b" d="m67.7 137.5h1.7l4-6.8q-3.3 3.1-5.7 6.8z"/><path class="b" d="m133.7 249.1l5.2-9.1-5.2-9h-10.3l-5.2 9 5.2 9.1z"/><path class="b" d="m155.5 175.3l-5.2 9 5.2 9h10.4l5.2-9-5.2-9z"/><path class="b" d="m101.6 249.1l5.2-9.1-5.2-9h-10.4l-5.2 9 5.2 9.1z"/><path class="b" d="m117.7 239.8l5.2-9.1-5.2-9h-10.4l-5.2 9 5.2 9.1z"/><path class="b" d="m69.4 230.5l5.2-9-3.6-6.4q-0.3 0.5-0.7 1c-3.7 5.2-7.8 9.3-12.1 12.9l0.9 1.5z"/><path class="b" d="m123.4 156.7l-5.2 9 5.2 9h10.3l5.2-9-5.2-9z"/><path class="b" d="m139.5 166l-5.3 9 5.3 9h10.3l5.2-9-5.2-9z"/><path class="b" d="m91.2 138.1l-5.2 9 5.2 9h10.4l5.2-9-5.2-9z"/><path class="b" d="m107.3 147.4l-5.2 9 5.2 9h10.4l5.2-9-5.2-9z"/><path class="b" d="m230.2 211.9l5.2-9-5.2-9.1h-10.4l-5.2 9.1 5.2 9z"/><path class="b" d="m262.3 211.9l5.2-9-5.2-9.1h-10.3l-5.2 9.1 5.2 9z"/><path class="b" d="m246.3 221.2l5.2-9-5.2-9.1h-10.4l-5.2 9.1 5.2 9z"/><path class="b" d="m278.4 221.2l5.2-9-5.2-9.1h-10.3l-5.3 9.1 5.3 9z"/><path class="b" d="m294.5 211.9l5.2-9-5.2-9.1h-10.4l-5.2 9.1 5.2 9z"/><path class="b" d="m165.9 230.5l5.2-9-5.2-9.1h-10.4l-5.2 9.1 5.2 9z"/><path class="b" d="m149.8 239.8l5.2-9.1-5.2-9h-10.3l-5.3 9 5.3 9.1z"/><path class="b" d="m182 221.2l5.2-9-5.2-9.1h-10.4l-5.2 9.1 5.2 9z"/><path class="b" d="m214.1 221.2l5.2-9-5.2-9.1h-10.3l-5.3 9.1 5.3 9z"/><path class="b" d="m198 230.5l5.2-9-5.2-9.1h-10.3l-5.2 9.1 5.2 9z"/><path class="b" d="m230.2 230.5l5.2-9-5.2-9.1h-10.4l-5.2 9.1 5.2 9z"/><path class="b" d="m348.4 81.7h1.7q-1.3-0.8-2.6-1.6z"/><path class="b" d="m316.3 82.3l-5.2 9 5.2 9h10.3l5.2-9-5.2-9z"/><path class="b" d="m404.4 212.3c-1.8-3.2-3.3-6.2-4.6-9.2h-3.1l-5.3 9.1 5.3 9h10.3l1.2-2.1q-1.8-3.4-3.8-6.8z"/><path class="b" d="m300.2 73l-5.2 9 5.2 9h10.4l5.2-9-5.2-9z"/><path class="b" d="m284.1 82.3l-5.2 9 5.2 9h10.4l5.2-9-5.2-9z"/><path class="b" d="m407 239.8l5.2-9.1-5.2-9h-10.3l-5.3 9 5.3 9.1z"/><path class="b" d="m390.9 249.6h-10.3l-5.2 9 5.2 9h10.3l5.2-9z"/><path class="b" d="m390.9 268.2h-10.3l-5.2 9 5.2 9h10.3l5.2-9z"/><path class="b" d="m390.9 231h-10.3l-5.2 9 5.2 9.1h10.3l5.2-9.1z"/><path class="b" d="m268.1 91.6l-5.3 9 5.3 9h10.3l5.2-9-5.2-9z"/><path class="b" d="m198 342l5.2-9-5.2-9h-10.3l-5.2 9 5.2 9z"/><path class="b" d="m252 82.3l-5.2 9 5.2 9h10.3l5.2-9-5.2-9z"/><path class="b" d="m165.9 324h-10.4l-3.4 5.9c5.2 2.2 10.8 4.7 16.5 7.4l2.5-4.3z"/><path class="b" d="m390.9 286.8h-10.3l-5.2 9 5.2 9h10.3l5.2-9z"/><path class="b" d="m230.2 323.4l5.2-9-5.2-9h-10.4l-5.2 9 5.2 9z"/><path class="b" d="m214.1 332.7l5.2-9-5.2-9h-10.3l-5.3 9 5.3 9z"/><path class="b" d="m182 332.7l5.2-9-5.2-9h-10.4l-5.2 9 5.2 9z"/><path class="b" d="m171.6 91h10.4l5.2-9-0.4-0.6c-5.1 3.3-10.1 6.1-15.7 8.8z"/><path class="b" d="m235.9 91.6l-5.2 9 5.2 9h10.4l5.2-9-5.2-9z"/><path class="b" d="m219.8 82.3l-5.2 9 5.2 9h10.4l5.2-9-5.2-9z"/><path class="b" d="m203.8 73l-5.3 9 5.3 9h10.3l5.2-9-5.2-9z"/><path class="b" d="m380.6 305.4l-5.2 9 0.9 1.7c7 0 13.3 0.2 19-0.3l0.8-1.4-5.2-9z"/><path class="b" d="m103.8 327.7l-2.2-3.7h-10.4l-3.6 6.3c6 0.1 11.2-1.1 16.2-2.6z"/><path class="b" d="m117.7 314.7h-10.4l-5.2 9 2.2 3.9c5.9-1.8 11.6-3.8 18.4-4.3z"/><path class="b" d="m165.9 323.4l5.2-9-5.2-9h-10.4l-5.2 9 5.2 9z"/><path class="b" d="m149.8 314.7h-10.3l-5.3 9 0.2 0.3c3 0.6 6.1 1.4 9.6 2.7q3.7 1.3 7.6 3l3.4-6z"/><path class="b" d="m85.5 314.7h-10.3l-5.3 9 2.3 3.9q1.9 0.6 4 1.1c3.9 1 7.4 1.5 10.7 1.6l3.8-6.6z"/><path class="b" d="m203.8 91.6l-5.3 9 5.3 9h10.3l5.2-9-5.2-9z"/><path class="b" d="m187.7 82.3l-5.2 9 5.2 9h10.3l5.2-9-5.2-9z"/><path class="b" d="m219.8 100.9l-5.2 9 5.2 9h10.4l5.2-9-5.2-9z"/><path class="b" d="m182 314.1l5.2-9-5.2-9h-10.4l-5.2 9 5.2 9z"/><path class="b" d="m171.6 91.6l-5.2 9 5.2 9h10.4l5.2-9-5.2-9z"/><path class="b" d="m316.3 324l-2.3 3.9c2.9-1.3 6.1-2.7 9.5-3.9z"/><path class="b" d="m278.4 314.1l5.2-9-5.2-9h-10.3l-5.3 9 5.3 9z"/><path class="b" d="m294.5 323.4l5.2-9-5.2-9h-10.4l-5.2 9 5.2 9z"/><path class="b" d="m198 323.4l5.2-9-5.2-9h-10.3l-5.2 9 5.2 9z"/><path class="b" d="m396.1 315.7q3.1-0.3 6-1h-5.4z"/><path class="b" d="m246.3 332.7l5.2-9-5.2-9h-10.4l-5.2 9 5.2 9z"/><path class="b" d="m214.1 314.1l5.2-9-5.2-9h-10.3l-5.3 9 5.3 9z"/><path class="b" d="m230.2 304.8l5.2-9-5.2-9h-10.4l-5.2 9 5.2 9z"/><path class="b" d="m262.3 304.8l5.2-9-5.2-9h-10.3l-5.2 9 5.2 9z"/><path class="b" d="m246.3 314.1l5.2-9-5.2-9h-10.4l-5.2 9 5.2 9z"/><path class="b" d="m69.4 324h-8.1q4.7 1.8 10.1 3.4z"/><path class="b" d="m278.4 351.3l5.2-9-5.2-9h-10.3l-5.3 9 5.3 9z"/><path class="b" d="m262.3 342l5.2-9-5.2-9h-10.3l-5.2 9 5.2 9z"/><path class="b" d="m284.1 342.6l-5 8.7c3.7-2.7 7.3-5.7 11.3-8.7z"/><path class="b" d="m246.3 351.3l5.2-9-5.2-9h-10.4l-5.2 9 5.2 9z"/><path class="b" d="m278.3 351.9h-10.2l-4.8 8.2c5.7-2.1 10.5-5 15-8.2z"/><path class="b" d="m423.1 286.8h-10.4l-5.2 9 5.2 9h5.1q0.9-1 1.8-2.1c2.7-3.7 4.7-7.5 6.1-11.4z"/><path class="b" d="m214.1 351.9h-10.3l-0.7 1.1c5 2.1 10 3.9 14.9 5.5z"/><path class="b" d="m203.2 351.6l-5.2-9h-10.3l-1.7 2.9c5.5 2.5 11 5 16.5 7.3z"/><path class="b" d="m214.1 333.3h-10.3l-5.3 9 5.3 9h10.3l5.2-9z"/><path class="b" d="m182 333.3h-10.4l-2.5 4.3c5.3 2.5 10.8 5.1 16.4 7.6l1.7-2.9z"/><path class="b" d="m230.2 342l5.2-9-5.2-9h-10.4l-5.2 9 5.2 9z"/><path class="b" d="m423.6 286.5l2.4 4.2c1.4-4.1 2.2-8.2 2.4-12.5z"/><path class="b" d="m230.2 361.2h-3.1q1.8 0.4 3.6 0.8z"/><path class="b" d="m262 360.6q0.2-0.1 0.4-0.2l5.1-8.8-5.2-9h-10.3l-5.2 9 5.2 9z"/><path class="b" d="m423.1 268.2h-10.4l-5.2 9 5.2 9h10.4l5.2-9z"/><path class="b" d="m252 361.2l-1.2 2.1q1.2-0.2 2.4-0.4c2.5-0.5 4.9-1.1 7.1-1.7z"/><path class="b" d="m422.9 249.6h-10.2l-5.2 9 5.2 9h10.4l3.5-6q-1.4-5.8-3.7-12z"/><path class="b" d="m262.8 63.4l5.3 9.1h10.3l5.2-9.1-3.6-6.2q-6.7-0.7-13.1-0.8z"/><path class="b" d="m230.7 63.4l5.2 9.1h10.4l5.2-9.1-3.5-6c-5.4 0.6-10.5 1.5-15.3 2.6z"/><path class="b" d="m230.2 360.6l5.2-9-5.2-9h-10.4l-5.2 9 4.2 7.2q3.1 1 6.2 1.8h5.2z"/><path class="b" d="m219.8 63.7l-5.2 9 5.2 9h10.4l5.2-9-5.2-9z"/><path class="b" d="m407 258.9h-10.3l-5.3 9 5.3 9h10.3l5.2-9z"/><path class="b" d="m407 277.5h-10.3l-5.3 9 5.3 9h10.3l5.2-9z"/><path class="b" d="m396.7 296.1l-5.3 9 5.3 9h7.3q2-0.6 3.9-1.5l4.3-7.5-5.2-9h-10.3z"/><path class="b" d="m422.7 249.1c-2.2-5.8-4.9-11.8-8.1-18.1h-1.9l-5.2 9 5.2 9.1z"/><path class="b" d="m407 240.3h-10.3l-5.3 9 5.3 9.1h10.3l5.2-9.1z"/><path class="b" d="m412.7 305.4l-3.9 6.8c3.1-1.6 5.9-3.8 8.5-6.8z"/><path class="b" d="m278.4 332.7l5.2-9-5.2-9h-10.3l-5.3 9 5.3 9z"/><path class="b" d="m291.1 342q2.8-2.1 5.9-4.3l2.7-4.7-5.2-9h-10.4l-5.2 9 5.2 9z"/><path class="b" d="m407.5 221.5l5.2 9h1.6q-2.7-5.3-5.8-10.8z"/><path class="b" d="m300.2 333.3l-2.1 3.7q2.7-1.9 5.8-3.7z"/><path class="b" d="m203.8 72.5h10.3l4.9-8.6c-6.1 2.1-11.5 4.6-16.1 7.1z"/><path class="b" d="m235.9 73l-5.2 9 5.2 9h10.4l5.2-9-5.2-9z"/><path class="b" d="m268.1 73l-5.3 9 5.3 9h10.3l5.2-9-5.2-9z"/><path class="b" d="m262.3 323.4l5.2-9-5.2-9h-10.3l-5.2 9 5.2 9z"/><path class="b" d="m221.3 63.2h8.9l1.7-3q-5.6 1.3-10.6 3z"/><path class="b" d="m295 63.4l5.2 9.1h10.4l4.4-7.7c-6.1-2-12.1-3.7-17.9-4.9z"/><path class="b" d="m316.3 81.7h10.3l5.2-9-0.8-1.4q-5-2.4-10.7-4.5-2.4-1-4.8-1.8l-4.4 7.7z"/><path class="b" d="m332.4 72.5h1.1q-0.8-0.4-1.6-0.8z"/><path class="b" d="m284.1 63.2h10.4l2-3.5q-8.1-1.7-15.8-2.5z"/><path class="b" d="m284.1 81.7h10.4l5.2-9-5.2-9h-10.4l-5.2 9z"/><path class="b" d="m284.1 100.9l-5.2 9 5.2 9h10.4l5.2-9-5.2-9z"/><path class="b" d="m342.7 314.1l5.2-9-5.2-9h-10.3l-5.3 9 5.3 9z"/><path class="b" d="m358.8 231h-10.4l-5.2 9 5.2 9.1h10.4l5.2-9.1z"/><path class="b" d="m326.6 304.8l5.2-9-5.2-9h-10.3l-5.2 9 5.2 9z"/><path class="b" d="m358.8 249.6h-10.4l-5.2 9 5.2 9h10.4l5.2-9z"/><path class="b" d="m358.8 268.2h-10.4l-5.2 9 5.2 9h10.4l5.2-9z"/><path class="b" d="m358.8 304.8l5.2-9-5.2-9h-10.4l-5.2 9 5.2 9z"/><path class="b" d="m278.4 276.9l5.2-9-5.2-9h-10.3l-5.3 9 5.3 9z"/><path class="b" d="m262.3 267.6l5.2-9-5.2-9h-10.3l-5.2 9 5.2 9z"/><path class="b" d="m310.6 295.5l5.2-9-5.2-9h-10.4l-5.2 9 5.2 9z"/><path class="b" d="m294.5 286.2l5.2-9-5.2-9h-10.4l-5.2 9 5.2 9z"/><path class="b" d="m364.5 109.6h10.4l1.8-3.1c-3-4.1-7.1-9-12.7-14.1l-4.7 8.2z"/><path class="b" d="m316.3 119.5l-5.2 9 5.2 9h10.3l5.2-9-5.2-9z"/><path class="b" d="m348.4 100.9l-5.2 9 5.2 9h10.4l5.2-9-5.2-9z"/><path class="b" d="m332.4 110.2l-5.3 9 5.3 9h10.3l5.2-9-5.2-9z"/><path class="b" d="m300.2 110.2l-5.2 9 5.2 9h10.4l5.2-9-5.2-9z"/><path class="b" d="m246.3 276.9l5.2-9-5.2-9h-10.4l-5.2 9 5.2 9z"/><path class="b" d="m358.8 212.4h-10.4l-5.2 9.1 5.2 9h10.4l5.2-9z"/><path class="b" d="m374.9 221.2l5.2-9-5.2-9.1h-10.4l-5.2 9.1 5.2 9z"/><path class="b" d="m374.9 184.5h-10.4l-5.2 9.1 5.2 9h10.4l5.2-9z"/><path class="b" d="m390.9 193.3l3.7-6.3c-0.5-2.5-0.8-4.9-1.1-7.3l-2.6-4.4h-10.3l-5.2 9 5.2 9h10.3z"/><path class="b" d="m187.7 119.5l-5.2 9 5.2 9h10.3l5.2-9-5.2-9z"/><path class="b" d="m37.3 249.1l2.2-3.9q-1.6 1.9-3 3.9z"/><path class="b" d="m117.7 109.6l0.3-0.5q-0.9 0.3-1.7 0.5z"/><path class="b" d="m42.5 295.8l-5.2-9h-4.9c1.3 6.7 3.1 12.3 5.5 17z"/><path class="b" d="m37.3 267.6l5.2-9-5.2-9h-1.1c-3.1 4.7-5.1 10.5-5.4 18z"/><path class="b" d="m139.5 110.2l-5.3 9 5.3 9h10.3l5.2-9-5.2-9z"/><path class="b" d="m155.5 119.5l-5.2 9 5.2 9h10.4l5.2-9-5.2-9z"/><path class="b" d="m69.4 304.8l5.2-9-5.2-9h-10.3l-5.2 9 5.2 9z"/><path class="b" d="m203.8 128.8l-5.3 9 5.3 9h10.3l5.2-9-5.2-9z"/><path class="b" d="m284.1 119.5l-5.2 9 5.2 9h10.4l5.2-9-5.2-9z"/><path class="b" d="m171.6 128.8l-5.2 9 5.2 9h10.4l5.2-9-5.2-9z"/><path class="b" d="m182 276.9l5.2-9-5.2-9h-10.4l-5.2 9 5.2 9z"/><path class="b" d="m85.5 295.5l5.2-9-5.2-9h-10.3l-5.3 9 5.3 9z"/><path class="b" d="m165.9 286.2l5.2-9-5.2-9h-10.4l-5.2 9 5.2 9z"/><path class="b" d="m235.9 110.2l-5.2 9 5.2 9h10.4l5.2-9-5.2-9z"/><path class="b" d="m214.1 276.9l5.2-9-5.2-9h-10.3l-5.3 9 5.3 9z"/><path class="b" d="m230.2 267.6l5.2-9-5.2-9h-10.4l-5.2 9 5.2 9z"/><path class="b" d="m101.6 304.8l5.2-9-5.2-9h-10.4l-5.2 9 5.2 9z"/><path class="b" d="m117.7 295.5l5.2-9-5.2-9h-10.4l-5.2 9 5.2 9z"/><path class="b" d="m133.7 304.8l5.2-9-5.2-9h-10.3l-5.2 9 5.2 9z"/><path class="b" d="m149.8 295.5l5.2-9-5.2-9h-10.3l-5.3 9 5.3 9z"/><path class="b" d="m198 286.2l5.2-9-5.2-9h-10.3l-5.2 9 5.2 9z"/><path class="b" d="m374.9 277.5h-10.4l-5.2 9 5.2 9h10.4l5.2-9z"/><path class="b" d="m374.9 258.9h-10.4l-5.2 9 5.2 9h10.4l5.2-9z"/><path class="b" d="m374.9 240.3h-10.4l-5.2 9 5.2 9.1h10.4l5.2-9.1z"/><path class="b" d="m374.9 296.1h-10.4l-5.2 9 5.2 9h10.4l5.2-9z"/><path class="b" d="m374.9 221.7h-10.4l-5.2 9 5.2 9.1h10.4l5.2-9.1z"/><path class="b" d="m294.5 304.8l5.2-9-5.2-9h-10.4l-5.2 9 5.2 9z"/><path class="b" d="m310.6 314.1l5.2-9-5.2-9h-10.4l-5.2 9 5.2 9z"/><path class="b" d="m390.9 230.5l5.2-9-5.2-9.1h-10.3l-5.2 9.1 5.2 9z"/><path class="b" d="m375.7 316l-0.8-1.3h-10.4l-0.8 1.4c4.2-0.1 8.2-0.1 12-0.1z"/><path class="b" d="m344.7 318.1l-2-3.4h-10.3l-4.6 7.8q1.7-0.6 3.5-1.1c4.7-1.4 9.2-2.5 13.4-3.3z"/><path class="b" d="m343.2 91.3l5.2 9h10.4l4.8-8.2c-3.6-3.2-7.8-6.5-12.7-9.8h-2.5z"/><path class="b" d="m268.1 128.8l-5.3 9 5.3 9h10.3l5.2-9-5.2-9z"/><path class="b" d="m219.8 138.1l-5.2 9 5.2 9h10.4l5.2-9-5.2-9z"/><path class="b" d="m252 100.9l-5.2 9 5.2 9h10.3l5.2-9-5.2-9z"/><path class="b" d="m300.2 91.6l-5.2 9 5.2 9h10.4l5.2-9-5.2-9z"/><path class="b" d="m332.4 91.6l-5.3 9 5.3 9h10.3l5.2-9-5.2-9z"/><path class="b" d="m316.3 100.9l-5.2 9 5.2 9h10.3l5.2-9-5.2-9z"/><path class="b" d="m399.5 202.6c-2.3-5.3-3.8-10.2-4.7-14.8l-3.4 5.8 5.3 9z"/><path class="b" d="m278.4 295.5l5.2-9-5.2-9h-10.3l-5.3 9 5.3 9z"/><path class="b" d="m390.9 193.8h-10.3l-5.2 9.1 5.2 9h10.3l5.2-9z"/><path class="b" d="m268.1 110.2l-5.3 9 5.3 9h10.3l5.2-9-5.2-9z"/><path class="b" d="m262.3 286.2l5.2-9-5.2-9h-10.3l-5.2 9 5.2 9z"/><path class="b" d="m171.6 110.2l-5.2 9 5.2 9h10.4l5.2-9-5.2-9z"/><path class="b" d="m136 103.6l3.5 6h10.3l5.2-9-1.7-2.9c-5 1.9-10.7 3.8-17.3 5.9z"/><path class="b" d="m187.7 100.9l-5.2 9 5.2 9h10.3l5.2-9-5.2-9z"/><path class="b" d="m53.4 314.7h-7.4c3.4 3.1 7.3 5.6 11.9 7.7z"/><path class="b" d="m85.5 314.1l5.2-9-5.2-9h-10.3l-5.3 9 5.3 9z"/><path class="b" d="m252 119.5l-5.2 9 5.2 9h10.3l5.2-9-5.2-9z"/><path class="b" d="m203.8 110.2l-5.3 9 5.3 9h10.3l5.2-9-5.2-9z"/><path class="b" d="m235.9 128.8l-5.2 9 5.2 9h10.4l5.2-9-5.2-9z"/><path class="b" d="m219.8 119.5l-5.2 9 5.2 9h10.4l5.2-9-5.2-9z"/><path class="b" d="m155.5 100.9l-5.2 9 5.2 9h10.4l5.2-9-5.2-9z"/><path class="b" d="m214.1 295.5l5.2-9-5.2-9h-10.3l-5.3 9 5.3 9z"/><path class="b" d="m230.2 286.2l5.2-9-5.2-9h-10.4l-5.2 9 5.2 9z"/><path class="b" d="m246.3 295.5l5.2-9-5.2-9h-10.4l-5.2 9 5.2 9z"/><path class="b" d="m101.6 323.4l5.2-9-5.2-9h-10.4l-5.2 9 5.2 9z"/><path class="b" d="m198 304.8l5.2-9-5.2-9h-10.3l-5.2 9 5.2 9z"/><path class="b" d="m182 295.5l5.2-9-5.2-9h-10.4l-5.2 9 5.2 9z"/><path class="b" d="m117.7 314.1l5.2-9-5.2-9h-10.4l-5.2 9 5.2 9z"/><path class="b" d="m149.8 314.1l5.2-9-5.2-9h-10.3l-5.3 9 5.3 9z"/><path class="b" d="m165.9 304.8l5.2-9-5.2-9h-10.4l-5.2 9 5.2 9z"/></g><path class="a" d="m354.8 381.7l-74.1-19h69.9l75.9 19z"/><path class="a" d="m90.7 381.7l74.1-19h-69.9l-75.9 19z"/><path fill-rule="evenodd" class="c" d="m226.2 302.6c0 0-0.1-0.3-0.2-0.9"/><path fill-rule="evenodd" class="d" d="m225.7 299.7c-1.1-6.9-2.9-24.2 3.9-32 8.6-9.7 18.9-1.4 47.7 0 28.7 1.4 43.5-2.8 43.8-27.4 0.3-24.7-16.5-26.3-16.5-26.3h-10.7"/><path fill-rule="evenodd" class="c" d="m292.9 214h-1"/><path fill-rule="evenodd" class="c" d="m291.9 138.3h1"/><path fill-rule="evenodd" class="e" d="m294.9 138.3h36c0 0 10.9 0.9 10.4 13.5-0.4 12.5-18.5 24.2-17.4 49.2 1.2 25 43.8 21.3 49.6 46.3 5.9 25-36.8 23.8-40.8 36.7 0 0-1.8 3.8-1.8 9.2 0 4.2 0 14.2 0 18.4"/><path fill-rule="evenodd" class="c" d="m330.9 312.6c0 0.7 0 1 0 1"/><path fill-rule="evenodd" class="c" d="m159.4 67.4h-1"/><path fill-rule="evenodd" class="f" d="m156.4 67.4h-17.7c0 0-48-0.5-48 40.1 0 18.7 6.5 32.8 25.9 55.8 19.3 23.1 18.9 95.2 12.7 108.1-6.3 12.9-19.6 11-24.3 18 0 0-3.4 3.5-3.7 7.9-0.2 3.4-0.1 14.5 0 19"/><path fill-rule="evenodd" class="c" d="m101.3 317.3c0 0.6 0 1 0 1"/><path class="g" d="m170.2 119.6c-2.3 0-4.4 0.7-6.2 1.7q0.2-1.4 0.2-2.9c0-9.4-7.6-17-17-17-8.3 0-15.2 6-16.7 13.9-1.6-0.7-3.4-1-5.3-1-8.3 0-15 6.7-15 15 0 8.3 6.7 15 15 15h45c6.8 0 12.3-5.5 12.3-12.3 0-6.8-5.5-12.4-12.3-12.4z"/><path class="g" d="m359.9 169.8c-2.3 0-4.6 0.7-6.5 1.8q0.3-1.5 0.3-3.1c0-10-8.1-18.1-18.1-18.1-8.9 0-16.3 6.3-17.8 14.7-1.8-0.6-3.7-1-5.7-1-8.8 0-16 7.2-16 16 0 8.8 7.2 16 16 16h47.8c7.3 0 13.2-5.9 13.2-13.1 0-7.3-5.9-13.2-13.2-13.2z"/><path fill-rule="evenodd" class="h" d="m351.5 199.5h4"/><path fill-rule="evenodd" class="h" d="m332 199.5h14"/><path fill-rule="evenodd" class="h" d="m318.8 151.2c1.9-1.5 3.5-2.5 7.2-3"/><path fill-rule="evenodd" class="h" d="m314 158.5c0 0 0.3-2.1 2-4.4"/><path class="g" d="m162.1 230.7c-3.5 0-6.9 1-9.8 2.7q0.4-2.3 0.4-4.7c0-15-12.2-27.2-27.2-27.2-13.3 0-24.4 9.6-26.7 22.2-2.7-1-5.5-1.6-8.5-1.6-13.3 0-24 10.8-24 24.1 0 13.2 10.7 24 24 24h71.8c11 0 19.8-8.8 19.8-19.7 0-11-8.8-19.8-19.8-19.8z"/><path fill-rule="evenodd" class="h" d="m71.9 268.2q1.4 1 3.1 1.8"/><path fill-rule="evenodd" class="h" d="m64 259c0 0 1 2.9 4.1 6.1"/><path fill-rule="evenodd" class="h" d="m108.3 200c3.1-2.1 7.8-4.3 14.2-4"/><path fill-rule="evenodd" class="h" d="m104 204c0 0 0.8-1.1 2.4-2.5"/><path class="i" d="m291.9 132.8h-4.8v12.5h4.8z"/><path class="i" d="m291.9 206.9h-4.8v12.5h4.8z"/><path class="i" d="m164.1 60.1h-4.7v12.5h4.7z"/><path class="i" d="m164.1 170.3h-4.7v12.5h4.7z"/><path class="g" d="m288.7 53.1h-125v27.1h125z"/><path class="j" d="m255.8 60h-86.1v13.3h86.1z"/><path class="g" d="m267.5 69.4c1.9 0 3.4-1.5 3.4-3.3 0-1.8-1.5-3.3-3.4-3.3-1.8 0-3.3 1.5-3.3 3.3 0 1.8 1.5 3.3 3.3 3.3z"/><path class="j" d="m283.9 66.1c0-1.8-1.5-3.3-3.3-3.3-1.8 0-3.3 1.5-3.3 3.3 0 1.8 1.5 3.3 3.3 3.3 1.8 0 3.3-1.5 3.3-3.3z"/><path class="g" d="m248 69.4c1.9 0 3.4-1.5 3.4-3.3 0-1.8-1.5-3.3-3.4-3.3-1.8 0-3.3 1.5-3.3 3.3 0 1.8 1.5 3.3 3.3 3.3z"/><path class="i" d="m283.9 80.2h-115.5v9.3h115.5z"/><path class="g" d="m288.7 89.5h-125v27.1h125z"/><path class="j" d="m255.8 96.4h-86.1v13.3h86.1z"/><path class="j" d="m267.5 105.8c1.9 0 3.4-1.5 3.4-3.3 0-1.9-1.5-3.4-3.4-3.4-1.8 0-3.3 1.5-3.3 3.4 0 1.8 1.5 3.3 3.3 3.3z"/><path class="g" d="m283.9 102.5c0-1.9-1.5-3.4-3.3-3.4-1.8 0-3.3 1.5-3.3 3.4 0 1.8 1.5 3.3 3.3 3.3 1.8 0 3.3-1.5 3.3-3.3z"/><path class="g" d="m248 105.8c1.9 0 3.4-1.5 3.4-3.3 0-1.9-1.5-3.4-3.4-3.4-1.8 0-3.3 1.5-3.3 3.4 0 1.8 1.5 3.3 3.3 3.3z"/><path class="i" d="m283.9 116.6h-115.5v9.3l115.5-0.1z"/><path class="g" d="m288.7 125.8h-125v27.1h125z"/><path class="j" d="m255.8 132.8h-86.1v13.2h86.1z"/><path class="g" d="m267.5 142.2c1.9 0 3.4-1.5 3.4-3.4 0-1.8-1.5-3.3-3.4-3.3-1.8 0-3.3 1.5-3.3 3.3 0 1.9 1.5 3.4 3.3 3.4z"/><path class="j" d="m283.9 138.8c0-1.8-1.5-3.3-3.3-3.3-1.8 0-3.3 1.5-3.3 3.3 0 1.9 1.5 3.4 3.3 3.4 1.8 0 3.3-1.5 3.3-3.4z"/><path class="g" d="m248 142.2c1.9 0 3.4-1.5 3.4-3.4 0-1.8-1.5-3.3-3.4-3.3-1.8 0-3.3 1.5-3.3 3.3 0 1.9 1.5 3.4 3.3 3.4z"/><path class="i" d="m283.9 152.9h-115.5v9.3h115.5z"/><path class="g" d="m288.7 162.2h-125v27.1h125z"/><path class="j" d="m255.8 169.1h-86.1v13.3h86.1z"/><path class="j" d="m267.5 178.5c1.9 0 3.4-1.5 3.4-3.3 0-1.9-1.5-3.4-3.4-3.4-1.8 0-3.3 1.5-3.3 3.4 0 1.8 1.5 3.3 3.3 3.3z"/><path class="g" d="m283.9 175.2c0-1.9-1.5-3.4-3.3-3.4-1.8 0-3.3 1.5-3.3 3.4 0 1.8 1.5 3.3 3.3 3.3 1.8 0 3.3-1.5 3.3-3.3z"/><path class="g" d="m248 178.5c1.9 0 3.4-1.5 3.4-3.3 0-1.9-1.5-3.4-3.4-3.4-1.8 0-3.3 1.5-3.3 3.4 0 1.8 1.5 3.3 3.3 3.3z"/><path class="i" d="m283.9 189.3h-115.5v9.3h115.5z"/><path class="g" d="m288.7 198.6h-125v27h125z"/><path class="j" d="m255.8 205.5h-86.1v13.2h86.1z"/><path class="g" d="m267.5 214.9c1.9 0 3.4-1.5 3.4-3.4 0-1.8-1.5-3.3-3.4-3.3-1.8 0-3.3 1.5-3.3 3.3 0 1.9 1.5 3.4 3.3 3.4z"/><path class="j" d="m283.9 211.5c0-1.8-1.5-3.3-3.3-3.3-1.8 0-3.3 1.5-3.3 3.3 0 1.9 1.5 3.4 3.3 3.4 1.8 0 3.3-1.5 3.3-3.4z"/><path class="g" d="m248 214.9c1.9 0 3.4-1.5 3.4-3.4 0-1.8-1.5-3.3-3.4-3.3-1.8 0-3.3 1.5-3.3 3.3 0 1.9 1.5 3.4 3.3 3.4z"/><path fill-rule="evenodd" class="h" d="m234.5 49.5h7"/><path fill-rule="evenodd" class="h" d="m186 49.5h40.5"/><path fill-rule="evenodd" class="h" d="m158.5 214v5"/><path fill-rule="evenodd" class="h" d="m158.5 198.5v10.5"/><path class="k" d="m342.9 106.1l-7-13.9c-0.2-0.3-0.7-0.5-1-0.3-0.4 0.2-0.6 0.6-0.4 1l6.7 14c-0.3 0.4-0.4 0.8-0.2 1.1l7.1 13.3c0.2 0.4 0.8 0.5 1.3 0.2 0.6-0.3 0.9-0.8 0.7-1.2l-6.2-13.7c-0.2-0.3-0.5-0.5-1-0.5z"/><path class="k" d="m381.7 106.1l7-13.9c0.2-0.3 0.7-0.5 1-0.3 0.4 0.2 0.6 0.6 0.4 1l-6.7 14c0.3 0.4 0.4 0.8 0.2 1.1l-7.1 13.3c-0.2 0.4-0.8 0.5-1.3 0.2-0.6-0.3-0.9-0.8-0.7-1.2l6.2-13.7c0.1-0.3 0.5-0.5 1-0.5z"/><path class="l" d="m384.3 121.9h-43.9l3.3-5.6h37.3z"/><path class="l" d="m384.3 121.9h-43.9v5.6h43.9z"/><path class="g" d="m361.6 125.9h-16.9c-0.7 0-1.2-0.5-1.2-1.2 0-0.7 0.5-1.3 1.2-1.3h16.9c0.7 0 1.2 0.6 1.2 1.3 0 0.7-0.5 1.2-1.2 1.2z"/><path class="g" d="m371.8 125.6c0.6 0 1.1-0.5 1.1-1.1 0-0.6-0.5-1.1-1.1-1.1-0.6 0-1.1 0.5-1.1 1.1 0 0.6 0.5 1.1 1.1 1.1z"/><path class="g" d="m377.4 124.5c0-0.6-0.5-1.1-1.1-1.1-0.6 0-1.1 0.5-1.1 1.1 0 0.6 0.5 1.1 1.1 1.1 0.6 0 1.1-0.5 1.1-1.1z"/><path class="g" d="m380.8 125.6c0.6 0 1.1-0.5 1.1-1.1 0-0.6-0.5-1.1-1.1-1.1-0.6 0-1.1 0.5-1.1 1.1 0 0.6 0.5 1.1 1.1 1.1z"/><path fill-rule="evenodd" class="m" d="m399.7 90.4q0.2 1 0.2 2.1 0 0.1 0 0.2"/><path fill-rule="evenodd" class="m" d="m383.8 83.8c1.7-1.1 3.6-1.7 5.7-1.7 4.4 0 8.2 2.7 9.7 6.6"/><path fill-rule="evenodd" class="m" d="m386.7 85.3q-0.8 0.3-1.6 0.8"/><path fill-rule="evenodd" class="m" d="m397.2 92.7q0-0.1 0-0.2c0-4.3-3.4-7.7-7.7-7.7q-0.6 0-1.2 0.1"/><path fill-rule="evenodd" class="m" d="m394.7 92.6q0-0.1 0-0.1c0-2.9-2.3-5.2-5.2-5.2-1.2 0-2.2 0.4-3.1 1"/><path fill-rule="evenodd" class="m" d="m388.4 89.8q-0.5 0.2-0.9 0.6"/><path fill-rule="evenodd" class="m" d="m392.4 92.5q0 0 0 0c0-1.6-1.3-2.9-2.9-2.9"/><path fill-rule="evenodd" class="m" d="m324.9 91q-0.1 0.7-0.1 1.5 0 0.1 0 0.2"/><path fill-rule="evenodd" class="m" d="m337.3 82.3q-1-0.2-2.1-0.2c-4.6 0-8.5 2.9-9.8 7.1"/><path fill-rule="evenodd" class="m" d="m340.9 83.8q-1-0.7-2.1-1.1"/><path fill-rule="evenodd" class="m" d="m334.6 84.8q0.3 0 0.6 0c1.6 0 3.1 0.5 4.4 1.3"/><path fill-rule="evenodd" class="m" d="m327.5 92.7q0-0.1 0-0.2c0-3.2 1.9-6 4.7-7.1"/><path fill-rule="evenodd" class="m" d="m330 92.6q0-0.1 0-0.1c0-2.9 2.3-5.2 5.2-5.2 1.2 0 2.3 0.4 3.2 1"/><path fill-rule="evenodd" class="m" d="m332.3 92.5q0 0 0 0c0-1.6 1.3-2.9 2.9-2.9 0.8 0 1.5 0.3 2 0.8"/><path class="k" d="m204.6 275.4l-7-13.8c-0.2-0.4-0.6-0.6-1-0.4-0.4 0.2-0.6 0.7-0.4 1l6.7 14.1c-0.3 0.3-0.4 0.7-0.2 1l7.1 13.3c0.2 0.4 0.8 0.5 1.4 0.2 0.5-0.3 0.8-0.8 0.6-1.2l-6.2-13.7c-0.1-0.3-0.5-0.5-1-0.5z"/><path class="k" d="m243.4 275.4l7-13.8c0.2-0.4 0.7-0.6 1.1-0.4 0.3 0.2 0.5 0.7 0.3 1l-6.7 14.1c0.3 0.3 0.4 0.7 0.2 1l-7.1 13.3c-0.1 0.4-0.8 0.5-1.3 0.2-0.6-0.3-0.9-0.8-0.7-1.2l6.2-13.7c0.2-0.3 0.5-0.5 1-0.5z"/><path class="l" d="m246.1 291.2h-44l3.3-5.6h37.4z"/><path class="l" d="m246.1 291.2h-44v5.6h44z"/><path class="g" d="m223.3 295.2h-16.9c-0.7 0-1.2-0.5-1.2-1.2 0-0.7 0.5-1.2 1.2-1.2h16.9c0.7 0 1.3 0.5 1.3 1.2 0 0.7-0.6 1.2-1.3 1.2z"/><path class="g" d="m233.6 294.9c0.6 0 1-0.4 1-1 0-0.6-0.4-1.1-1-1.1-0.6 0-1.1 0.5-1.1 1.1 0 0.6 0.5 1 1.1 1z"/><path class="g" d="m239.1 293.9c0-0.6-0.5-1.1-1.1-1.1-0.6 0-1.1 0.5-1.1 1.1 0 0.6 0.5 1 1.1 1 0.6 0 1.1-0.4 1.1-1z"/><path class="g" d="m242.5 294.9c0.6 0 1.1-0.4 1.1-1 0-0.6-0.5-1.1-1.1-1.1-0.6 0-1.1 0.5-1.1 1.1 0 0.6 0.5 1 1.1 1z"/><path fill-rule="evenodd" class="m" d="m256.4 252.8c3.2 1.8 5.2 5.2 5.2 9q0 0.1 0 0.3"/><path fill-rule="evenodd" class="m" d="m245.6 253.1c1.6-1.1 3.5-1.7 5.6-1.7q1.8 0 3.4 0.6"/><path fill-rule="evenodd" class="m" d="m249.9 254.2c-1.1 0.2-2.1 0.6-3 1.3"/><path fill-rule="evenodd" class="m" d="m258.9 262q0.1-0.1 0.1-0.2c0-4-3.1-7.3-7-7.7"/><path fill-rule="evenodd" class="m" d="m255 258.2c-1-1-2.3-1.6-3.8-1.6-1.1 0-2.2 0.4-3.1 1.1"/><path fill-rule="evenodd" class="m" d="m256.4 261.9q0 0 0-0.1 0-1.1-0.4-2"/><path fill-rule="evenodd" class="m" d="m250.5 259q-0.7 0.2-1.2 0.7"/><path fill-rule="evenodd" class="m" d="m254.1 261.9q0-0.1 0-0.1c0-1.3-0.9-2.4-2.1-2.8"/><path fill-rule="evenodd" class="m" d="m186.7 260.1q-0.2 0.8-0.2 1.7 0 0.1 0 0.3"/><path fill-rule="evenodd" class="m" d="m192.8 252.2c-2.5 1.2-4.6 3.3-5.6 5.9"/><path fill-rule="evenodd" class="m" d="m202.6 253.1c-1.6-1.1-3.6-1.7-5.7-1.7q-1 0-2.1 0.2"/><path fill-rule="evenodd" class="m" d="m191.1 256.7c1.4-1.6 3.5-2.6 5.8-2.6 1.7 0 3.2 0.5 4.4 1.4"/><path fill-rule="evenodd" class="m" d="m189.2 262q0-0.1 0-0.2c0-1.2 0.3-2.3 0.8-3.3"/><path fill-rule="evenodd" class="m" d="m193.2 258.2c1-1 2.3-1.6 3.7-1.6 1.2 0 2.3 0.4 3.2 1.1"/><path fill-rule="evenodd" class="m" d="m191.7 261.9q0 0 0-0.1 0-1.2 0.5-2.2"/><path fill-rule="evenodd" class="m" d="m195.1 259.6c0.5-0.4 1.1-0.7 1.8-0.7 0.8 0 1.5 0.3 2 0.8"/><path fill-rule="evenodd" class="m" d="m194.1 261.9q0-0.1 0-0.1 0-0.7 0.3-1.3"/><path class="k" d="m42.3 191.1l-7-13.9c-0.2-0.3-0.7-0.5-1-0.3-0.4 0.2-0.6 0.6-0.4 1l6.7 14c-0.3 0.4-0.4 0.8-0.2 1.1l7.1 13.3c0.2 0.4 0.8 0.5 1.3 0.2 0.6-0.3 0.9-0.8 0.7-1.2l-6.2-13.7c-0.1-0.3-0.5-0.5-1-0.5z"/><path class="k" d="m81.1 191.1l7-13.9c0.2-0.3 0.7-0.5 1-0.3 0.4 0.2 0.6 0.6 0.4 1l-6.7 14c0.3 0.4 0.4 0.8 0.2 1.1l-7.1 13.3c-0.2 0.4-0.8 0.5-1.3 0.2-0.6-0.3-0.9-0.8-0.7-1.2l6.2-13.7c0.2-0.3 0.5-0.5 1-0.5z"/><path class="l" d="m83.8 206.9h-44l3.3-5.6h37.4z"/><path class="l" d="m83.8 206.9h-44v5.6h44z"/><path class="g" d="m61 210.9h-16.9c-0.7 0-1.2-0.5-1.2-1.2 0-0.7 0.5-1.3 1.2-1.3h16.9c0.7 0 1.2 0.6 1.2 1.3 0 0.7-0.5 1.2-1.2 1.2z"/><path class="g" d="m71.2 210.6c0.6 0 1.1-0.5 1.1-1.1 0-0.6-0.5-1.1-1.1-1.1-0.6 0-1 0.5-1 1.1 0 0.6 0.4 1.1 1 1.1z"/><path class="g" d="m75.7 210.6c0.6 0 1.1-0.5 1.1-1.1 0-0.6-0.5-1.1-1.1-1.1-0.6 0-1.1 0.5-1.1 1.1 0 0.6 0.5 1.1 1.1 1.1z"/><path class="g" d="m81.3 209.5c0-0.6-0.5-1.1-1.1-1.1-0.6 0-1.1 0.5-1.1 1.1 0 0.6 0.5 1.1 1.1 1.1 0.6 0 1.1-0.5 1.1-1.1z"/><path fill-rule="evenodd" class="m" d="m98.8 174.1q0.5 1.6 0.5 3.4 0 0.1 0 0.2"/><path fill-rule="evenodd" class="m" d="m91 167.3c3.2 0.6 5.9 2.8 7.3 5.7"/><path fill-rule="evenodd" class="m" d="m83.2 168.8c1.4-0.9 3-1.5 4.7-1.7"/><path fill-rule="evenodd" class="m" d="m94.7 172.4c-1.4-1.6-3.5-2.6-5.8-2.6-1.6 0-3.1 0.5-4.3 1.3"/><path fill-rule="evenodd" class="m" d="m96.6 177.7q0-0.1 0-0.2c0-1.3-0.3-2.5-0.8-3.6"/><path fill-rule="evenodd" class="m" d="m87.9 172.4q-1.2 0.2-2.1 0.9"/><path fill-rule="evenodd" class="m" d="m94.1 177.6q0-0.1 0-0.1c0-2.5-1.7-4.6-4-5.1"/><path fill-rule="evenodd" class="m" d="m91.2 175.7c-0.5-0.7-1.4-1.1-2.3-1.1-0.7 0-1.4 0.3-2 0.8"/><path fill-rule="evenodd" class="m" d="m91.8 177.5q0 0 0 0 0-0.5-0.1-0.9"/><path fill-rule="evenodd" class="m" d="m32.8 167.2c-4.9 0.9-8.6 5.2-8.6 10.3q0 0.1 0 0.2"/><path fill-rule="evenodd" class="m" d="m40.3 168.8c-1.4-1-3.1-1.6-5-1.7"/><path fill-rule="evenodd" class="m" d="m36.3 170q1.5 0.3 2.7 1.1"/><path fill-rule="evenodd" class="m" d="m26.9 177.7q0-0.1 0-0.2c0-4.3 3.5-7.7 7.7-7.7"/><path fill-rule="evenodd" class="m" d="m30.6 174.2c1-1.2 2.4-1.9 4-1.9 1.2 0 2.3 0.4 3.2 1"/><path fill-rule="evenodd" class="m" d="m29.4 177.6q0-0.1 0-0.1 0-1.1 0.4-2.1"/><path fill-rule="evenodd" class="m" d="m35.1 174.7c0.6 0.1 1.1 0.3 1.5 0.7"/><path fill-rule="evenodd" class="m" d="m31.8 177.5q0 0-0.1 0c0-1.5 1.1-2.6 2.4-2.9"/><path class="i" d="m271.1 302.6h-89.1v61.1h89.1z"/><path class="l" d="m284.4 390.7h-115.8l13.4-27h89.1z"/><path class="g" d="m265.7 307.5h-78.3v51.4h78.3z"/><path class="a" d="m238.2 328.2l-11.7-13.8-11.7 13.8h4.9v21.7h13.6v-21.7z"/><path class="g" d="m222.8 372.2l0.1-3.3h-4.7l-0.3 3.3z"/><path class="g" d="m232.5 372.2l-0.1-3.3h-4.7v3.3z"/><path class="g" d="m257.9 375.8h5l-1.2-3.6h-4.9z"/><path class="g" d="m217.9 372.2l0.3-3.3h-4.7l-0.4 3.3z"/><path class="g" d="m208.2 372.2l0.6-3.3h-4.7l-0.8 3.3z"/><path class="g" d="m252 372.2l-0.8-3.3h-4.7l0.6 3.3z"/><path class="g" d="m256.8 372.2l-0.9-3.3h-4.7l0.8 3.3z"/><path class="g" d="m203.3 372.2l0.8-3.3h-4.7l-0.9 3.3z"/><path class="g" d="m237.4 372.2l-0.3-3.3h-4.7l0.1 3.3z"/><path class="g" d="m261.7 372.2l-1.1-3.3h-4.7l0.9 3.3z"/><path class="g" d="m247.1 372.2l-0.6-3.3h-4.7l0.5 3.3z"/><path class="g" d="m242.3 372.2l-0.5-3.3h-4.7l0.3 3.3z"/><path class="g" d="m227.7 372.2v-3.3h-4.8l-0.1 3.3z"/><path class="g" d="m193.6 372.2h-4.9l-1.3 3.6h5z"/><path class="g" d="m194.7 368.9h-4.7l-1.3 3.3h4.9z"/><path class="g" d="m198.5 372.2l0.9-3.3h-4.7l-1.1 3.3z"/><path class="g" d="m185.9 379.5l-1.5 4.1h5.4l1.4-4.1z"/><path class="g" d="m192.4 375.8h-5l-1.5 3.7h5.3z"/><path class="g" d="m191.2 379.5l-1.4 4.1h5.4l1.2-4.1z"/><path class="g" d="m213.1 372.2l0.4-3.3h-4.7l-0.6 3.3z"/><path class="g" d="m212.6 375.8l0.5-3.6h-4.9l-0.7 3.6z"/><path class="g" d="m207.5 375.8l0.7-3.6h-4.9l-0.8 3.6z"/><path class="g" d="m217.6 375.8l0.3-3.6h-4.8l-0.5 3.6z"/><path class="g" d="m198.5 372.2h-4.9l-1.2 3.6h5.1z"/><path class="g" d="m258.9 379.5h5.3l-1.3-3.7h-5z"/><path class="g" d="m202.5 375.8l0.8-3.6h-4.8l-1 3.6z"/><path class="g" d="m192.4 375.8l-1.2 3.7h5.2l1.1-3.7z"/><path class="g" d="m247.8 375.8l-0.7-3.6h-4.8l0.5 3.6z"/><path class="g" d="m242.8 375.8l-0.5-3.6h-4.9l0.3 3.6z"/><path class="g" d="m257.9 375.8l-1.1-3.6h-4.8l0.8 3.6z"/><path class="g" d="m227.7 375.8v-3.6h-4.9l-0.2 3.6z"/><path class="g" d="m237.7 375.8l-0.3-3.6h-4.9l0.2 3.6z"/><path class="g" d="m232.7 375.8l-0.2-3.6h-4.8v3.6z"/><path class="g" d="m222.6 375.8l0.2-3.6h-4.9l-0.3 3.6z"/><path class="g" d="m237.7 375.8l0.4 3.7h5.2l-0.5-3.7z"/><path class="g" d="m242.8 375.8l0.5 3.7h5.2l-0.7-3.7z"/><path class="g" d="m197.5 375.8l-1.1 3.7h5.2l0.9-3.7z"/><path class="g" d="m247.8 375.8l0.7 3.7h5.2l-0.9-3.7z"/><path class="g" d="m227.7 375.8v3.7h5.2l-0.2-3.7z"/><path class="g" d="m252.8 375.8l0.9 3.7h5.2l-1-3.7z"/><path class="g" d="m232.7 375.8l0.2 3.7h5.2l-0.4-3.7z"/><path class="g" d="m207.5 375.8l-0.7 3.7h5.2l0.6-3.7z"/><path class="g" d="m202.5 375.8l-0.9 3.7h5.2l0.7-3.7z"/><path class="g" d="m222.6 375.8l-0.2 3.7h5.3v-3.7z"/><path class="g" d="m217.6 375.8l-0.4 3.7h5.2l0.2-3.7z"/><path class="g" d="m212.6 375.8l-0.6 3.7h5.2l0.4-3.7z"/><path class="g" d="m252.8 375.8l-0.8-3.6h-4.9l0.7 3.6z"/><path class="g" d="m194.7 368.9l1.1-3.3h-4.5l-1.3 3.3z"/><path class="g" d="m190 368.9h-4.4l-1.4 3.3h4.5z"/><path class="g" d="m191.3 365.6h-4.2l-1.5 3.3h4.4z"/><path class="g" d="m188.7 372.2h-4.5l-1.5 3.6h4.7z"/><path class="g" d="m187.4 375.8h-4.7l-1.6 3.7h4.8z"/><path class="g" d="m185.9 379.5h-4.8l-1.7 4.1h5z"/><path class="g" d="m266.6 372.2l1.3 3.6h4.5l-1.5-3.6z"/><path class="g" d="m269.4 379.5h4.6l-1.6-3.7h-4.5z"/><path class="g" d="m270.9 383.6h4.8l-1.7-4.1h-4.6z"/><path class="g" d="m232.4 368.9l-0.2-3.3h-4.6l0.1 3.3z"/><path class="g" d="m266.6 372.2h4.3l-1.4-3.3h-4.2z"/><path class="g" d="m264.2 379.5h5.2l-1.5-3.7h-5z"/><path class="g" d="m199.4 368.9l1-3.3h-4.6l-1.1 3.3z"/><path class="g" d="m260.6 368.9l1.1 3.3h4.9l-1.3-3.3z"/><path class="g" d="m269.5 368.9l-1.5-3.3h-4l1.3 3.3z"/><path class="g" d="m265.3 368.9l-1.3-3.3h-4.5l1.1 3.3z"/><path class="g" d="m248.5 379.5l0.8 4.1h5.4l-1-4.1z"/><path class="g" d="m265.5 383.6h5.4l-1.5-4.1h-5.2z"/><path class="g" d="m260.6 368.9l-1.1-3.3h-4.6l1 3.3z"/><path class="g" d="m258.9 379.5l1.2 4.1h5.4l-1.3-4.1z"/><path class="g" d="m253.7 379.5l1 4.1h5.4l-1.2-4.1z"/><path class="g" d="m262.9 375.8h5l-1.3-3.6h-4.9z"/><path class="g" d="m218.2 368.9l0.4-3.3h-4.6l-0.5 3.3z"/><path class="g" d="m255.9 368.9l-1-3.3h-4.5l0.8 3.3z"/><path class="g" d="m213.5 368.9l0.5-3.3h-4.5l-0.7 3.3z"/><path class="g" d="m227.7 368.9l-0.1-3.3h-4.5l-0.2 3.3z"/><path class="g" d="m208.8 368.9l0.7-3.3h-4.6l-0.8 3.3z"/><path class="g" d="m204.1 368.9l0.8-3.3h-4.5l-1 3.3z"/><path class="g" d="m222.9 368.9l0.2-3.3h-4.5l-0.4 3.3z"/><path class="g" d="m251.2 368.9l-0.8-3.3h-4.6l0.7 3.3z"/><path class="g" d="m246.5 368.9l-0.7-3.3h-4.5l0.5 3.3z"/><path class="g" d="m237.1 368.9l-0.4-3.3h-4.5l0.2 3.3z"/><path class="g" d="m248.5 379.5h-5.2-5.2-5.2-5.2-5.3-5.2-5.2-5.2-5.2-5.2l-1.2 4.1h5.4 5.4 5.4 5.4 5.5 5.4 5.4 5.4 5.4 5.4z"/><path class="g" d="m241.8 368.9l-0.5-3.3h-4.6l0.4 3.3z"/><path class="i" d="m284.5 390.7h-115.9v1.6h115.9z"/><path class="l" d="m371.8 363.7h-67.9c-0.9 0-1.7-0.7-1.7-1.6v-57.8c0-0.9 0.8-1.7 1.7-1.7h67.9z"/><path class="i" d="m374.2 302.6h-70.1v61.1h70.1z"/><path class="l" d="m370.4 307.5h-60.9v51.4h60.9z"/><path class="a" d="m330.3 328.2l9-13.8 9.1 13.8h-3.8v21.7h-10.5v-21.7z"/><path class="l" d="m304.1 363.7l53.1 15.4h71.7l-54.7-15.4z"/><path class="n" d="m360.8 369.8l-6.6-1.9h-2.9l6.6 1.9z"/><path class="n" d="m366.6 369.8l-6.7-1.9h-2.8l6.6 1.9z"/><path class="n" d="m387.6 371.8h2.8l-6.9-1.9h-2.8z"/><path class="n" d="m357.9 369.8l-6.6-1.9-3-0.1 6.7 1.9z"/><path class="n" d="m352 369.7l-6.6-1.9h-3l6.6 1.9z"/><path class="n" d="m378 369.9l-6.8-1.9h-2.8l6.8 1.9z"/><path class="n" d="m380.7 369.9l-6.7-1.8-2.8-0.1 6.8 1.9z"/><path class="n" d="m349 369.7l-6.6-1.9-3-0.1 6.6 2z"/><path class="n" d="m369.5 369.8l-6.7-1.8-2.9-0.1 6.7 1.9z"/><path class="n" d="m383.5 369.9l-6.7-1.8h-2.8l6.7 1.8z"/><path class="n" d="m375.2 369.9l-6.8-1.9h-2.8l6.7 1.9z"/><path class="n" d="m372.3 369.9l-6.7-1.9h-2.8l6.7 1.8z"/><path class="n" d="m363.7 369.8l-6.6-1.9h-2.9l6.6 1.9z"/><path class="n" d="m342.9 369.6h-3l6.7 2h3.1z"/><path class="n" d="m336.4 367.7h-3l6.5 1.9h3z"/><path class="n" d="m346 369.7l-6.6-2h-3l6.5 1.9z"/><path class="n" d="m353.5 373.7l7.1 2.1h3.1l-7.1-2.1z"/><path class="n" d="m349.7 371.6h-3.1l6.9 2.1h3.1z"/><path class="n" d="m356.6 373.7l7.1 2.1h3.1l-7.1-2.1z"/><path class="n" d="m355 369.7l-6.7-1.9h-2.9l6.6 1.9z"/><path class="n" d="m361.7 371.7l-6.7-2h-3l6.8 2z"/><path class="n" d="m358.8 371.7l-6.8-2h-3l6.8 2z"/><path class="n" d="m364.7 371.7l-6.8-1.9-2.9-0.1 6.7 2z"/><path class="n" d="m346 369.7l-3.1-0.1 6.8 2h3z"/><path class="n" d="m394.7 373.8h2.8l-7.1-2h-2.8z"/><path class="n" d="m355.8 371.7l-6.8-2h-3l6.7 1.9z"/><path class="n" d="m349.7 371.6l6.9 2.1h3.1l-7-2.1z"/><path class="n" d="m382 371.8l-6.8-1.9h-2.9l6.9 1.9z"/><path class="n" d="m379.2 371.8l-6.9-1.9-2.8-0.1 6.8 2z"/><path class="n" d="m387.6 371.8l-6.9-1.9h-2.7l6.8 1.9z"/><path class="n" d="m370.6 371.7l-6.9-1.9h-2.9l6.8 1.9z"/><path class="n" d="m376.3 371.8l-6.8-2h-2.9l6.9 1.9z"/><path class="n" d="m373.5 371.7l-6.9-1.9h-2.9l6.9 1.9z"/><path class="n" d="m367.6 371.7l-6.8-1.9h-2.9l6.8 1.9z"/><path class="n" d="m376.3 371.8l7.1 1.9h2.8l-7-1.9z"/><path class="n" d="m379.2 371.8l7 1.9h2.9l-7.1-1.9z"/><path class="n" d="m352.7 371.6l7 2.1h3l-6.9-2z"/><path class="n" d="m382 371.8l7.1 1.9 2.8 0.1-7.1-2z"/><path class="n" d="m370.6 371.7l7 2h2.9l-7-2z"/><path class="n" d="m384.8 371.8l7.1 2h2.8l-7.1-2z"/><path class="n" d="m373.5 371.7l7 2h2.9l-7.1-1.9z"/><path class="n" d="m358.8 371.7l6.9 2h3l-7-2z"/><path class="n" d="m355.8 371.7l6.9 2h3l-6.9-2z"/><path class="n" d="m367.6 371.7l7 2h3l-7-2z"/><path class="n" d="m364.7 371.7l7 2h2.9l-7-2z"/><path class="n" d="m361.7 371.7l7 2h3l-7-2z"/><path class="n" d="m384.8 371.8l-6.8-1.9h-2.8l6.8 1.9z"/><path class="n" d="m336.4 367.7l-7-2-3-0.1 7 2.1z"/><path class="n" d="m333.4 367.7h-2.9l6.6 1.9h2.8z"/><path class="n" d="m326.4 365.6h-2.8l6.9 2.1h2.9z"/><path class="n" d="m339.9 369.6h-2.8l6.7 2h2.8z"/><path class="n" d="m346.6 371.6h-2.8l6.8 2 2.9 0.1z"/><path class="n" d="m353.5 373.7l-2.9-0.1 7.1 2.2h2.9z"/><path class="n" d="m386.3 370l6.9 1.8 2.4 0.1-6.9-1.9z"/><path class="n" d="m400.3 373.8h2.4l-7.1-1.9-2.4-0.1z"/><path class="n" d="m407.5 375.8h2.5l-7.3-2h-2.4z"/><path class="n" d="m359.9 367.9l-7.1-2h-2.8l7.1 2z"/><path class="n" d="m386.3 370h2.4l-6.8-1.9h-2.4z"/><path class="n" d="m397.5 373.8h2.8l-7.1-2h-2.8z"/><path class="n" d="m339.4 367.7l-7-2h-3l7 2z"/><path class="n" d="m376.8 368.1l6.7 1.8 2.8 0.1-6.8-1.9z"/><path class="n" d="m381.9 368.1l-7.2-1.9h-2.4l7.2 1.9z"/><path class="n" d="m379.5 368.1l-7.2-1.9-2.7-0.1 7.2 2z"/><path class="n" d="m389.1 373.7l7.2 2.1h2.9l-7.3-2z"/><path class="n" d="m404.8 375.8h2.7l-7.2-2h-2.8z"/><path class="n" d="m376.8 368.1l-7.2-2h-2.8l7.2 2z"/><path class="n" d="m394.7 373.8l7.3 2h2.8l-7.3-2z"/><path class="n" d="m391.9 373.8l7.3 2h2.8l-7.3-2z"/><path class="n" d="m390.4 371.8h2.8l-6.9-1.8-2.8-0.1z"/><path class="n" d="m351.3 367.9l-7.1-2.1h-2.9l7 2z"/><path class="n" d="m374 368.1l-7.2-2h-2.7l7.1 1.9z"/><path class="n" d="m348.3 367.8l-7-2h-3l7.1 2z"/><path class="n" d="m357.1 367.9l-7.1-2h-2.9l7.1 2z"/><path class="n" d="m345.4 367.8l-7.1-2-2.9-0.1 7 2.1z"/><path class="n" d="m342.4 367.8l-7-2.1h-3l7 2z"/><path class="n" d="m354.2 367.9l-7.1-2-2.9-0.1 7.1 2.1z"/><path class="n" d="m371.2 368l-7.1-1.9-2.8-0.1 7.1 2z"/><path class="n" d="m368.4 368l-7.1-2h-2.8l7.1 2z"/><path class="n" d="m362.8 368l-7.1-2-2.9-0.1 7.1 2z"/><path class="n" d="m389.1 373.7h-2.9-2.8-2.9-2.9-3-2.9-3-3-3-3l7.1 2.1h3 3.1 3 3 2.9 3 2.9 2.9 2.9 2.8z"/><path class="n" d="m365.6 368l-7.1-2h-2.8l7.1 2z"/><path class="l" d="m304.1 363.7v2l53.1 16v-2.6z"/><path class="o" d="m428.9 379.1h-71.7v2.6h71.7z"/><path class="l" d="m78.5 363.7h68c0.9 0 1.7-0.7 1.7-1.6v-57.8c0-0.9-0.8-1.7-1.7-1.7h-68z"/><path class="i" d="m76.2 363.7h70.1v-61.1h-70.1z"/><path class="l" d="m80 358.9h60.9v-51.4h-60.9z"/><path class="a" d="m116.3 328.2l-9.1-13.8-9 13.8h3.8v21.7h10.5v-21.7z"/><path class="l" d="m146.3 363.7l-53.1 15.4h-71.7l54.7-15.4z"/><path class="n" d="m89.6 369.8l6.6-1.9h2.9l-6.6 1.9z"/><path class="n" d="m83.8 369.8l6.6-1.9h2.9l-6.7 1.9z"/><path class="n" d="m62.7 371.8h-2.7l6.9-1.9h2.7z"/><path class="n" d="m92.5 369.8l6.6-1.9 2.9-0.1-6.6 1.9z"/><path class="n" d="m98.4 369.7l6.6-1.9h3l-6.6 1.9z"/><path class="n" d="m72.4 369.9l6.7-1.9h2.8l-6.7 1.9z"/><path class="n" d="m69.6 369.9l6.8-1.8 2.7-0.1-6.7 1.9z"/><path class="n" d="m101.4 369.7l6.6-1.9 3-0.1-6.6 2z"/><path class="n" d="m80.9 369.8l6.7-1.8 2.8-0.1-6.6 1.9z"/><path class="n" d="m66.9 369.9l6.7-1.8h2.8l-6.8 1.8z"/><path class="n" d="m75.2 369.9l6.7-1.9h2.8l-6.6 1.9z"/><path class="n" d="m78.1 369.9l6.6-1.9h2.9l-6.7 1.8z"/><path class="n" d="m86.6 369.8l6.7-1.9h2.9l-6.6 1.9z"/><path class="n" d="m107.4 369.6h3.1l-6.7 2h-3.1z"/><path class="n" d="m114 367.7h3l-6.5 1.9h-3.1z"/><path class="n" d="m104.4 369.7l6.6-2h3l-6.6 1.9z"/><path class="n" d="m96.9 373.7l-7.1 2.1h-3.1l7.1-2.1z"/><path class="n" d="m100.7 371.6h3.1l-6.9 2.1h-3.1z"/><path class="n" d="m93.8 373.7l-7.1 2.1h-3.1l7.1-2.1z"/><path class="n" d="m95.4 369.7l6.6-1.9h3l-6.6 1.9z"/><path class="n" d="m88.6 371.7l6.8-2h3l-6.8 2z"/><path class="n" d="m91.6 371.7l6.8-2h3l-6.8 2z"/><path class="n" d="m85.7 371.7l6.8-1.9 2.9-0.1-6.8 2z"/><path class="n" d="m104.4 369.7l3-0.1-6.7 2h-3z"/><path class="n" d="m55.7 373.8h-2.8l7.1-2h2.7z"/><path class="n" d="m94.6 371.7l6.8-2h3l-6.7 1.9z"/><path class="n" d="m100.7 371.6l-6.9 2.1h-3.1l7-2.1z"/><path class="n" d="m68.4 371.8l6.8-1.9h2.9l-6.9 1.9z"/><path class="n" d="m71.2 371.8l6.9-1.9 2.8-0.1-6.9 2z"/><path class="n" d="m62.7 371.8l6.9-1.9h2.8l-6.9 1.9z"/><path class="n" d="m79.8 371.7l6.8-1.9h3l-6.9 1.9z"/><path class="n" d="m74 371.8l6.9-2h2.9l-6.9 1.9z"/><path class="n" d="m76.9 371.7l6.9-1.9h2.8l-6.8 1.9z"/><path class="n" d="m82.7 371.7l6.9-1.9h2.9l-6.8 1.9z"/><path class="n" d="m74 371.8l-7 1.9h-2.9l7.1-1.9z"/><path class="n" d="m71.2 371.8l-7.1 1.9h-2.8l7.1-1.9z"/><path class="n" d="m97.7 371.6l-7 2.1h-3l6.9-2z"/><path class="n" d="m68.4 371.8l-7.1 1.9-2.8 0.1 7-2z"/><path class="n" d="m79.8 371.7l-7 2h-2.9l7-2z"/><path class="n" d="m65.5 371.8l-7 2h-2.8l7-2z"/><path class="n" d="m76.9 371.7l-7 2h-2.9l7-1.9z"/><path class="n" d="m91.6 371.7l-6.9 2h-3l6.9-2z"/><path class="n" d="m94.6 371.7l-6.9 2h-3l6.9-2z"/><path class="n" d="m82.7 371.7l-7 2h-2.9l7-2z"/><path class="n" d="m85.7 371.7l-7 2h-3l7-2z"/><path class="n" d="m88.6 371.7l-6.9 2h-3l7-2z"/><path class="n" d="m65.5 371.8l6.9-1.9h2.8l-6.8 1.9z"/><path class="n" d="m114 367.7l7-2 3-0.1-7 2.1z"/><path class="n" d="m117 367.7h2.9l-6.6 1.9h-2.8z"/><path class="n" d="m124 365.6h2.8l-6.9 2.1h-2.9z"/><path class="n" d="m110.5 369.6h2.8l-6.7 2h-2.8z"/><path class="n" d="m103.8 371.6h2.8l-6.9 2-2.8 0.1z"/><path class="n" d="m96.9 373.7l2.8-0.1-7 2.2h-2.9z"/><path class="n" d="m64.1 370l-6.9 1.8-2.4 0.1 6.9-1.9z"/><path class="n" d="m50.1 373.8h-2.4l7.1-1.9 2.4-0.1z"/><path class="n" d="m42.8 375.8h-2.4l7.3-2h2.4z"/><path class="n" d="m90.4 367.9l7.1-2h2.9l-7.1 2z"/><path class="n" d="m64.1 370h-2.4l6.8-1.9h2.4z"/><path class="n" d="m52.9 373.8h-2.8l7.1-2h2.8z"/><path class="n" d="m111 367.7l7-2h3l-7 2z"/><path class="n" d="m73.6 368.1l-6.7 1.8-2.8 0.1 6.8-1.9z"/><path class="n" d="m68.5 368.1l7.2-1.9h2.4l-7.2 1.9z"/><path class="n" d="m70.9 368.1l7.2-1.9 2.7-0.1-7.2 2z"/><path class="n" d="m61.3 373.7l-7.2 2.1h-2.9l7.3-2z"/><path class="n" d="m45.6 375.8h-2.8l7.3-2h2.8z"/><path class="n" d="m73.6 368.1l7.2-2h2.7l-7.1 2z"/><path class="n" d="m55.7 373.8l-7.3 2h-2.8l7.3-2z"/><path class="n" d="m58.5 373.8l-7.3 2h-2.8l7.3-2z"/><path class="n" d="m60 371.8h-2.8l6.9-1.8 2.8-0.1z"/><path class="n" d="m99.1 367.9l7.1-2.1h2.9l-7.1 2z"/><path class="n" d="m76.4 368.1l7.1-2h2.8l-7.2 1.9z"/><path class="n" d="m102 367.8l7.1-2h2.9l-7 2z"/><path class="n" d="m93.3 367.9l7.1-2h2.9l-7.1 2z"/><path class="n" d="m105 367.8l7-2 3-0.1-7 2.1z"/><path class="n" d="m108 367.8l7-2.1h3l-7 2z"/><path class="n" d="m96.2 367.9l7.1-2 2.9-0.1-7.1 2.1z"/><path class="n" d="m79.1 368l7.2-1.9 2.8-0.1-7.2 2z"/><path class="n" d="m81.9 368l7.2-2h2.8l-7.2 2z"/><path class="n" d="m87.6 368l7.1-2 2.8-0.1-7.1 2z"/><path class="n" d="m61.3 373.7h2.8 2.9 2.9 2.9 2.9 3 3 3 3 3l-7.1 2.1h-3-3.1-3-3-2.9-3-2.9-2.9-2.9-2.8z"/><path class="n" d="m84.7 368l7.2-2h2.8l-7.1 2z"/><path class="l" d="m146.3 363.7v2l-53.1 16v-2.6z"/><path class="o" d="m21.5 381.7h71.7v-2.6h-71.7z"/></svg>