<svg width="3155" height="2016" viewBox="0 0 3155 2016" fill="none" xmlns="http://www.w3.org/2000/svg">
<path opacity="0.2" d="M3042.82 1764.79C3042.82 1878.74 2386.76 1970.95 1577.5 1970.95C768.242 1970.95 112.178 1878.74 112.178 1764.79C112.178 1651.02 768.242 1558.63 1577.5 1558.63C2386.76 1558.63 3042.82 1651.02 3042.82 1764.79Z" fill="white"/>
<path d="M704.468 1679.94H577.041C547.595 1679.94 523.932 1656.92 523.932 1628.66V1379C523.932 1350.73 547.595 1327.71 577.041 1327.71H704.468C733.74 1327.71 757.578 1350.73 757.578 1379V1628.66C757.578 1656.92 733.74 1679.94 704.468 1679.94Z" fill="#FFA532"/>
<path d="M1007.17 1679.94H879.747C850.3 1679.94 826.637 1656.92 826.637 1628.66V1132.21C826.637 1103.95 850.3 1080.93 879.747 1080.93H1007.17C1036.44 1080.93 1060.28 1103.95 1060.28 1132.21V1628.66C1060.28 1656.92 1036.44 1679.94 1007.17 1679.94Z" fill="#FFA532"/>
<path d="M1312.33 1679.94H1179.82C1151.95 1679.94 1129.34 1658.11 1129.34 1631.19V862.074C1129.34 835.161 1151.95 813.327 1179.82 813.327H1312.33C1340.38 813.327 1362.99 835.161 1362.99 862.074V1631.19C1362.99 1658.11 1340.38 1679.94 1312.33 1679.94Z" fill="#FFA532"/>
<path d="M1614.51 1679.94H1483.23C1455.01 1679.94 1432.05 1657.77 1432.05 1630.52V596.166C1432.05 568.915 1455.01 546.742 1483.23 546.742H1614.51C1642.73 546.742 1665.69 568.915 1665.69 596.166V1630.52C1665.69 1657.77 1642.73 1679.94 1614.51 1679.94Z" fill="#FFA532"/>
<path d="M1917.74 1679.94H1785.41C1757.54 1679.94 1734.75 1658.11 1734.75 1631.02V405.916C1734.75 378.835 1757.54 357 1785.41 357H1917.74C1945.79 357 1968.4 378.835 1968.4 405.916V1631.02C1968.4 1658.11 1945.79 1679.94 1917.74 1679.94Z" fill="#FFA532"/>
<path d="M674.468 1679.94H547.041C517.595 1679.94 493.932 1656.1 493.932 1626.82V1368.25C493.932 1338.97 517.595 1315.13 547.041 1315.13H674.468C703.74 1315.13 727.578 1338.97 727.578 1368.25V1626.82C727.578 1656.1 703.74 1679.94 674.468 1679.94Z" fill="#FFD9A9"/>
<path d="M977.174 1679.94H849.747C820.3 1679.94 796.637 1656.1 796.637 1626.82V1112.66C796.637 1083.38 820.3 1059.54 849.747 1059.54H977.174C1006.44 1059.54 1030.28 1083.38 1030.28 1112.66V1626.82C1030.28 1656.1 1006.44 1679.94 977.174 1679.94Z" fill="#FFD9A9"/>
<path d="M1282.33 1679.94H1149.82C1121.95 1679.94 1099.34 1657.33 1099.34 1629.45V832.87C1099.34 804.997 1121.95 782.383 1149.82 782.383H1282.33C1310.38 782.383 1332.99 804.997 1332.99 832.87V1629.45C1332.99 1657.33 1310.38 1679.94 1282.33 1679.94Z" fill="#FFD9A9"/>
<path d="M1584.51 1679.94H1453.23C1425.01 1679.94 1402.05 1656.98 1402.05 1628.75V557.468C1402.05 529.244 1425.01 506.279 1453.23 506.279H1584.51C1612.73 506.279 1635.69 529.244 1635.69 557.468V1628.75C1635.69 1656.98 1612.73 1679.94 1584.51 1679.94Z" fill="#FFD9A9"/>
<path d="M1887.74 1679.94H1755.41C1727.54 1679.94 1704.75 1657.33 1704.75 1629.28V360.425C1704.75 332.377 1727.54 309.762 1755.41 309.762H1887.74C1915.79 309.762 1938.4 332.377 1938.4 360.425V1629.28C1938.4 1657.33 1915.79 1679.94 1887.74 1679.94Z" fill="#FFD9A9"/>
<path fill-rule="evenodd" clip-rule="evenodd" d="M1096.01 425.463C1093.21 425.463 1090.58 424.587 1088.3 422.834C1085.67 420.905 1083.92 417.75 1083.39 414.419L1081.11 396.889C1080.59 392.857 1077.78 389.351 1074.1 388.299C1073.05 387.948 1072 387.598 1070.95 387.247C1067.27 385.845 1062.88 386.896 1060.08 390.052L1047.46 403.901C1045.18 406.355 1042.2 407.933 1038.7 407.933C1035.37 408.108 1032.21 406.881 1029.58 404.602L1014.86 390.753C1009.78 386.02 1009.42 377.956 1014.16 372.697L1025.02 360.776C1028 357.445 1028.53 352.712 1026.43 348.68C1024.32 344.823 1020.29 342.72 1016.09 343.246L1001.19 345.349C997.857 345.875 994.526 344.999 991.897 342.895C989.268 340.791 987.515 337.811 986.989 334.305L984.36 314.145C983.309 307.133 988.216 300.647 995.228 299.77L1010.13 297.667C1014.16 297.141 1017.66 293.985 1018.54 289.953L1018.71 289.778C1019.59 285.395 1017.84 280.837 1014.16 278.558L1000.49 269.968C994.702 266.112 992.774 258.223 996.63 252.263L1007.15 235.083C1008.9 232.103 1011.88 229.999 1015.03 229.298C1018.36 228.597 1021.69 229.123 1024.67 230.876L1040.45 240.868C1043.95 243.147 1048.16 242.972 1051.49 240.693C1052.43 240.108 1053.36 239.524 1054.3 238.94C1057.63 236.661 1059.38 232.804 1058.85 228.772L1056.57 211.241C1055.52 204.229 1060.43 197.743 1067.27 196.691L1087.25 194.062C1090.58 193.536 1093.91 194.412 1096.54 196.516C1099.17 198.62 1100.92 201.6 1101.45 205.106L1103.2 218.078C1103.72 222.636 1107.23 226.142 1111.79 227.019C1115.53 227.603 1119.21 228.48 1122.83 229.648C1126.69 230.876 1130.89 229.824 1133.52 226.844L1144.74 214.572C1147.02 211.943 1150.17 210.54 1153.5 210.365C1156.83 210.365 1160.16 211.417 1162.62 213.871L1177.34 227.545C1182.42 232.453 1182.77 240.517 1178.04 245.776L1170.15 254.366C1167 257.873 1166.47 262.781 1168.75 266.638C1169.34 267.573 1169.86 268.449 1170.33 269.267C1172.26 272.949 1176.29 275.052 1180.5 274.526L1191.01 273.124C1194.34 272.598 1197.67 273.475 1200.3 275.578C1203.11 277.682 1204.86 280.662 1205.21 283.993L1207.84 304.153C1208.89 311.165 1203.98 317.651 1197.15 318.703L1186.63 320.106C1182.42 320.631 1178.92 323.787 1178.04 327.819C1177.81 328.754 1177.57 329.747 1177.34 330.799C1176.11 335.182 1177.87 339.74 1181.72 342.194L1191.71 348.505C1197.5 352.186 1199.43 360.25 1195.57 366.211L1185.05 383.39C1183.3 386.371 1180.5 388.299 1177.17 389.175C1173.84 389.877 1170.51 389.351 1167.53 387.422L1153.68 378.657C1150.35 376.553 1145.97 376.554 1142.64 378.833C1139.36 380.936 1136.03 382.748 1132.65 384.267C1128.44 386.371 1125.98 390.578 1126.69 395.136L1128.44 408.284C1129.32 415.296 1124.41 421.782 1117.57 422.659L1097.59 425.288C1097.01 425.405 1096.48 425.463 1096.01 425.463ZM1067.62 384.267C1069.02 384.267 1070.42 384.501 1071.82 384.968C1072.76 385.319 1073.75 385.611 1074.8 385.845C1079.36 387.422 1082.87 391.454 1083.57 396.538L1085.85 414.069C1086.2 416.874 1087.6 419.328 1089.88 420.906C1091.98 422.659 1094.61 423.36 1097.24 423.009L1117.22 420.204C1122.83 419.503 1126.69 414.244 1125.98 408.634L1124.23 395.486C1123.53 389.877 1126.51 384.617 1131.59 382.163C1134.98 380.527 1138.2 378.716 1141.23 376.729C1145.44 373.924 1150.7 373.924 1154.91 376.554L1168.93 385.494C1171.21 386.896 1173.84 387.422 1176.64 386.721C1179.27 386.195 1181.55 384.442 1182.95 382.163L1193.64 364.808C1196.62 360.075 1195.04 353.589 1190.31 350.608L1180.5 344.298C1175.76 341.317 1173.49 335.532 1174.89 330.098C1175.12 329.163 1175.35 328.228 1175.59 327.293C1176.82 322.209 1181.02 318.352 1186.28 317.651L1196.8 316.249C1202.23 315.372 1206.26 310.288 1205.56 304.503L1202.76 284.343C1202.41 281.539 1201 279.084 1198.9 277.507C1196.62 275.754 1193.99 275.052 1191.36 275.403L1180.85 276.981C1175.76 277.682 1170.51 275.052 1168.05 270.494C1167.7 269.559 1167.23 268.683 1166.65 267.865C1163.84 263.132 1164.55 256.996 1168.4 252.789L1176.29 244.023C1179.97 239.816 1179.79 233.33 1175.59 229.473L1160.87 215.624C1158.94 213.696 1156.31 212.819 1153.5 212.819C1150.87 212.995 1148.42 214.222 1146.49 216.15L1135.27 228.421C1131.94 232.103 1126.86 233.505 1122.13 231.927C1118.62 230.876 1115 229.999 1111.26 229.298C1105.83 228.421 1101.45 224.039 1100.74 218.429L1098.99 205.281C1098.64 202.652 1097.24 200.197 1094.96 198.444C1092.86 196.867 1090.23 196.165 1087.6 196.516L1067.62 199.146C1062.18 200.022 1058.15 205.106 1058.85 210.891L1061.31 228.421C1061.83 233.33 1059.73 238.238 1055.52 240.868C1054.7 241.452 1053.83 242.037 1052.89 242.621C1048.86 245.601 1043.43 245.777 1039.05 242.972L1023.27 232.979C1020.99 231.577 1018.36 231.051 1015.73 231.752C1012.93 232.278 1010.65 233.856 1009.25 236.31L998.558 253.49C995.578 258.398 997.155 264.885 1001.89 267.865L1015.38 276.455C1019.94 279.435 1022.22 284.869 1020.99 290.304L1019.77 290.128L1020.99 290.479C1019.77 295.563 1015.56 299.42 1010.3 300.121L995.403 302.224C989.969 302.926 985.938 308.185 986.639 313.795L989.443 334.13C989.794 336.759 991.196 339.214 993.475 340.967C995.578 342.544 998.207 343.246 1000.84 342.895L1015.73 340.967C1020.99 340.265 1026.08 342.895 1028.53 347.453L1027.48 348.154L1028.53 347.628C1031.16 352.362 1030.46 358.322 1026.78 362.354L1015.91 374.275C1012.23 378.482 1012.4 385.143 1016.61 389L1031.33 402.849C1033.26 404.778 1035.89 405.654 1038.7 405.479C1041.33 405.479 1043.95 404.252 1045.71 402.323L1058.33 388.299C1060.78 385.669 1064.11 384.267 1067.62 384.267Z" fill="#1C3A3E"/>
<path fill-rule="evenodd" clip-rule="evenodd" d="M1099.52 356.569C1090.23 356.569 1080.06 352.713 1070.77 345.7C1058.68 336.409 1050.44 323.437 1048.86 311.165C1045.53 286.447 1068.67 264.71 1091.28 261.554C1100.39 260.327 1109.68 262.957 1117.92 269.268C1129.14 277.858 1137.38 292.233 1139.31 306.608C1142.64 331.325 1127.04 353.063 1103.9 356.219C1102.5 356.452 1101.04 356.569 1099.52 356.569ZM1095.66 263.658C1094.38 263.658 1093.03 263.775 1091.63 264.009C1070.07 266.989 1048.16 287.499 1051.32 310.815C1052.72 322.385 1060.78 335.007 1072.35 343.772C1082.52 351.485 1093.73 355.167 1103.55 353.764C1125.28 350.784 1140.01 330.274 1136.85 306.958C1135.1 293.109 1127.21 279.435 1116.52 271.196C1109.86 266.288 1102.85 263.658 1095.66 263.658Z" fill="#1C3A3E"/>
<path fill-rule="evenodd" clip-rule="evenodd" d="M818.197 555.539C814.575 564.071 810.309 572.369 805.402 580.433C798.916 591.302 799.793 604.975 808.031 614.442L829.064 638.809C839.23 650.73 838.003 668.611 826.435 678.954L789.276 711.911C777.708 722.429 759.829 721.202 749.663 709.281L721.443 676.499C714.257 668.26 703.039 664.754 692.523 667.734C689.952 668.552 687.44 669.254 684.986 669.838C674.119 672.643 665.88 681.759 664.128 692.978L656.941 738.733C654.487 754.335 640.115 764.853 624.69 762.399L575.963 754.51C560.714 752.056 550.372 737.33 552.826 721.903L558.961 682.46C560.889 670.364 555.105 658.443 544.413 652.658C544.296 652.658 544.121 652.6 543.887 652.483C533.721 647.048 521.101 648.626 512.337 656.339L484.643 680.882C473.075 691.4 455.197 690.173 445.03 678.253L412.604 640.737C402.263 628.817 403.49 610.76 415.233 600.417L442.927 575.699C451.691 567.986 454.846 555.54 450.815 544.495C450.815 544.378 450.756 544.262 450.639 544.145C446.608 532.75 435.741 525.212 423.646 525.562L384.384 526.614C368.785 526.965 355.989 514.518 355.464 498.916L354.237 448.779C353.711 433.002 365.98 420.029 381.58 419.503L427.327 418.276C438.37 418.101 448.361 411.089 452.567 400.57C453.502 398.116 454.495 395.662 455.547 393.208C459.929 383.04 458.001 371.295 450.815 362.88L422.595 330.098C412.429 318.353 413.48 300.296 425.224 289.953L462.383 256.996C473.951 246.653 491.654 247.88 501.996 259.626L523.029 283.993C531.092 293.459 544.413 296.264 555.806 291.181C564.336 287.324 573.042 284.11 581.922 281.539C592.264 278.383 600.151 269.618 601.904 258.574L608.389 217.903C610.843 202.477 625.216 191.958 640.64 194.413L689.192 202.301C704.617 204.931 714.958 219.481 712.504 235.083L707.947 263.658C706.019 276.104 712.329 288.376 723.371 293.81C725.475 294.862 727.578 295.972 729.682 297.141C739.848 302.575 752.468 300.998 761.056 293.284L780.687 275.754C792.256 265.411 810.134 266.638 820.3 278.559L852.727 316.074C862.893 327.994 861.841 346.051 850.097 356.394L830.466 373.749C821.878 381.462 818.548 393.734 822.579 404.778C823.397 406.998 824.156 409.277 824.857 411.615C828.889 423.535 839.931 431.424 852.376 431.073L880.946 430.372C896.546 429.846 909.341 442.293 909.867 458.07L911.094 508.032C911.62 523.809 899.35 536.782 883.751 537.308L843.262 538.36C832.394 538.71 822.579 545.372 818.197 555.539ZM715.309 415.647C677.624 371.821 604.183 351.31 561.064 389.526C517.946 427.743 503.047 501.721 540.557 545.372C578.417 589.023 666.406 599.891 709.525 561.675C752.643 523.459 752.993 459.297 715.309 415.647Z" fill="#070707"/>
<path fill-rule="evenodd" clip-rule="evenodd" d="M633.629 794.129C632.11 794.129 630.591 794.012 629.072 793.778L580.344 785.889C564.569 783.26 553.877 768.184 556.331 752.231L562.641 712.963C564.394 701.217 558.785 689.647 548.444 684.038L547.918 683.862C538.102 678.428 525.833 680.006 517.42 687.544L489.726 712.086C483.942 717.345 476.405 719.8 468.692 719.274C460.98 718.923 453.969 715.242 448.886 709.457L416.284 671.766C405.768 659.495 406.995 641.088 419.089 630.394L446.783 605.677C455.196 598.138 458.351 586.042 454.495 575.349L454.32 574.998C450.288 563.779 439.771 556.591 428.028 556.942L388.766 557.994C381.054 558.169 373.692 555.364 368.083 549.93C362.474 544.495 359.319 537.308 359.144 529.419L357.742 479.457C357.391 463.154 370.011 449.656 385.961 449.305L431.709 448.078C442.576 447.727 452.216 440.89 456.072 430.723C457.124 428.269 458.176 425.814 459.227 423.36C463.434 413.718 461.681 402.148 454.67 394.084L426.451 361.302C415.934 349.031 417.161 330.449 429.08 319.93L466.238 286.973C472.023 281.714 479.384 279.26 487.097 279.786C494.809 280.312 501.82 283.818 507.078 289.603L527.936 313.97C535.999 323.261 548.794 326.066 559.837 320.982C568.25 317.126 577.189 313.795 585.953 311.165C596.295 308.185 603.832 299.595 605.584 289.077L612.07 248.406C613.296 240.518 617.503 233.681 623.813 229.123C629.948 224.74 637.66 222.812 645.197 224.039L693.924 232.103C709.524 234.557 720.391 249.633 717.762 265.761L713.205 294.336C711.277 306.607 717.412 318.353 728.279 323.612C730.382 324.664 732.485 325.774 734.589 326.943C744.229 332.202 756.499 330.624 764.912 323.086L784.543 305.731C790.327 300.647 797.864 298.017 805.401 298.543C813.113 299.069 820.3 302.575 825.383 308.536L857.809 346.051C868.326 358.322 867.099 376.904 855.18 387.598L835.549 404.953C827.135 412.491 823.981 424.587 827.837 435.105C828.655 437.326 829.414 439.605 830.115 441.942C833.971 453.512 844.663 461.051 856.757 460.7L885.328 459.999C893.04 459.823 900.402 462.628 905.835 467.887C911.619 473.322 914.95 480.685 915.125 488.573L916.352 538.535C916.878 554.663 904.258 568.161 888.307 568.687L847.818 569.739C837.301 570.09 827.661 576.576 823.455 586.393C819.774 595.158 815.392 603.573 810.484 611.462C804.174 621.98 805.226 635.303 813.113 644.419L834.147 668.786C844.663 681.057 843.436 699.64 831.342 710.158L794.358 743.115C788.399 748.374 781.037 750.828 773.325 750.303C765.613 749.777 758.602 746.271 753.519 740.486L725.124 707.704C718.113 699.464 707.246 696.134 697.255 699.114C694.684 699.932 692.113 700.633 689.542 701.217C679.026 703.847 671.138 712.612 669.385 723.656L662.199 769.411C660.972 777.299 656.765 784.136 650.455 788.694C645.548 792.376 639.588 794.129 633.629 794.129ZM535.473 678.954C540.03 678.954 544.588 680.006 548.794 682.285L549.145 682.46C560.187 688.42 566.322 700.692 564.219 713.138L558.084 752.582C555.63 767.482 565.796 781.857 580.695 784.136L629.247 792.2C636.433 793.252 643.62 791.499 649.404 787.292C655.363 783.084 659.395 776.598 660.446 769.236L667.808 723.306C669.561 711.736 677.974 702.444 689.192 699.64C691.646 698.938 694.158 698.237 696.729 697.536C707.421 694.381 718.989 697.887 726.526 706.476L754.746 739.259C759.478 744.868 766.139 748.199 773.501 748.725C780.687 749.251 787.698 746.797 793.132 741.888L830.29 708.931C841.508 698.938 842.735 681.408 832.92 670.013L811.886 645.471C803.473 635.829 802.246 621.805 809.082 610.585C813.99 602.696 818.196 594.282 821.877 585.867C826.434 575.349 836.6 568.337 847.643 567.986L888.307 566.934C903.206 566.584 915.125 553.786 914.774 538.535L913.372 488.573C913.197 481.035 910.042 474.198 904.783 469.114C899.525 464.206 892.689 461.401 885.503 461.752L856.757 462.453C843.962 462.804 832.569 454.74 828.538 442.468C827.836 440.131 827.077 437.852 826.259 435.631C822.052 424.412 825.383 411.615 834.322 403.726L853.953 386.196C865.346 376.203 866.398 358.673 856.582 347.278L823.98 309.588C819.248 303.978 812.587 300.647 805.401 300.296C798.039 299.771 791.203 302.225 785.595 306.958L765.964 324.488C757.024 332.377 744.054 333.955 733.712 328.345C731.609 327.293 729.506 326.241 727.402 325.19C715.834 319.405 709.524 306.958 711.627 294.161L716.185 265.411C718.463 250.335 708.472 236.135 693.574 233.681L644.847 225.792C637.835 224.565 630.649 226.318 624.69 230.525C618.73 234.908 614.874 241.219 613.647 248.582L607.162 289.252C605.409 300.472 597.346 309.763 586.479 312.918C577.715 315.373 568.951 318.703 560.538 322.56C548.794 327.819 535.123 324.839 526.709 315.197L505.676 290.83C500.943 285.22 494.283 281.889 486.921 281.363C479.735 281.013 472.724 283.292 467.29 288.2L430.307 321.158C418.913 331.15 417.862 348.68 427.677 360.075L455.897 392.857C463.434 401.622 465.362 413.718 460.805 424.061C459.753 426.516 458.76 428.97 457.825 431.424C453.443 442.293 443.277 449.48 431.709 449.656L385.961 450.883C370.887 451.409 359.144 464.031 359.494 479.282L360.721 529.419C360.897 536.782 364.051 543.619 369.31 548.703C374.568 553.786 381.404 556.416 388.766 556.241L428.028 555.189C440.473 554.838 451.69 562.552 455.897 574.472L456.072 574.823C460.104 586.042 456.949 599.015 448.01 606.904L420.14 631.622C408.923 641.614 407.696 659.144 417.687 670.714L450.113 708.23C455.021 713.839 461.506 717.17 468.868 717.696C476.054 718.222 483.065 715.768 488.499 710.859L516.368 686.141C521.626 681.408 528.462 678.954 535.473 678.954Z" fill="#1C3A3E"/>
<path fill-rule="evenodd" clip-rule="evenodd" d="M2705.77 1053.91C2703.42 1059.43 2700.66 1064.8 2697.48 1070.02C2693.27 1077.05 2693.84 1085.9 2699.18 1092.03L2712.81 1107.8C2719.4 1115.51 2718.61 1127.08 2711.11 1133.77L2687.02 1155.1C2679.52 1161.91 2667.93 1161.11 2661.34 1153.4L2643.05 1132.19C2638.39 1126.85 2631.12 1124.58 2624.3 1126.51C2622.64 1127.04 2621.01 1127.5 2619.42 1127.87C2612.37 1129.69 2607.03 1135.59 2605.9 1142.85L2601.24 1172.46C2599.65 1182.55 2590.33 1189.36 2580.33 1187.77L2548.74 1182.67C2538.86 1181.08 2532.15 1171.55 2533.74 1161.57L2537.72 1136.04C2538.97 1128.22 2535.22 1120.5 2528.29 1116.76C2528.22 1116.76 2528.1 1116.72 2527.95 1116.64C2521.36 1113.13 2513.18 1114.15 2507.5 1119.14L2489.55 1135.02C2482.05 1141.83 2470.46 1141.03 2463.87 1133.32L2442.85 1109.04C2436.14 1101.33 2436.94 1089.65 2444.55 1082.95L2462.5 1066.96C2468.18 1061.97 2470.23 1053.91 2467.62 1046.77C2467.62 1046.69 2467.58 1046.62 2467.5 1046.54C2464.89 1039.17 2457.85 1034.29 2450.01 1034.51L2424.55 1035.2C2414.44 1035.42 2406.15 1027.37 2405.81 1017.27L2405.01 984.829C2404.67 974.619 2412.62 966.225 2422.74 965.885L2452.39 965.091C2459.55 964.977 2466.03 960.44 2468.75 953.633C2469.36 952.045 2470 950.457 2470.68 948.869C2473.53 942.29 2472.28 934.689 2467.62 929.244L2449.32 908.031C2442.73 900.431 2443.41 888.747 2451.03 882.054L2475.12 860.727C2482.61 854.035 2494.09 854.829 2500.79 862.429L2514.43 878.197C2519.66 884.323 2528.29 886.138 2535.68 882.848C2541.21 880.352 2546.85 878.273 2552.61 876.609C2559.31 874.567 2564.42 868.895 2565.56 861.748L2569.76 835.431C2571.35 825.448 2580.67 818.642 2590.67 820.23L2622.14 825.335C2632.14 827.036 2638.85 836.452 2637.26 846.548L2634.3 865.038C2633.05 873.092 2637.14 881.033 2644.3 884.55C2645.66 885.23 2647.03 885.949 2648.39 886.705C2654.98 890.221 2663.16 889.2 2668.73 884.209L2681.45 872.865C2688.95 866.173 2700.54 866.967 2707.13 874.68L2728.15 898.956C2734.74 906.67 2734.06 918.354 2726.45 925.047L2713.72 936.277C2708.16 941.269 2706 949.209 2708.61 956.356C2709.14 957.793 2709.63 959.268 2710.09 960.78C2712.7 968.494 2719.86 973.599 2727.93 973.372L2746.45 972.918C2756.56 972.578 2764.85 980.632 2765.19 990.841L2765.99 1023.17C2766.33 1033.38 2758.38 1041.77 2748.26 1042.12L2722.02 1042.8C2714.97 1043.02 2708.61 1047.33 2705.77 1053.91ZM2639.07 963.389C2614.64 935.03 2567.04 921.757 2539.09 946.487C2511.13 971.216 2501.48 1019.09 2525.79 1047.33C2550.33 1075.58 2607.37 1082.61 2635.32 1057.88C2663.27 1033.15 2663.5 991.635 2639.07 963.389Z" fill="#070707"/>
<path fill-rule="evenodd" clip-rule="evenodd" d="M2585.78 1209C2584.8 1209 2583.81 1208.92 2582.83 1208.77L2551.25 1203.67C2541.03 1201.97 2534.1 1192.22 2535.69 1181.9L2539.78 1156.5C2540.92 1148.9 2537.28 1141.42 2530.58 1137.79L2530.24 1137.67C2523.88 1134.16 2515.93 1135.18 2510.48 1140.05L2492.53 1155.93C2488.78 1159.33 2483.9 1160.92 2478.9 1160.58C2473.9 1160.35 2469.36 1157.97 2466.07 1154.23L2444.94 1129.85C2438.13 1121.91 2438.92 1110 2446.76 1103.09L2464.7 1087.1C2470.16 1082.22 2472.2 1074.4 2469.7 1067.48L2469.59 1067.25C2466.98 1060 2460.16 1055.35 2452.55 1055.57L2427.11 1056.26C2422.11 1056.37 2417.34 1054.55 2413.71 1051.04C2410.07 1047.52 2408.03 1042.87 2407.91 1037.77L2407 1005.45C2406.78 994.908 2414.96 986.176 2425.29 985.949L2454.94 985.156C2461.98 984.929 2468.23 980.506 2470.72 973.929C2471.41 972.342 2472.09 970.754 2472.77 969.167C2475.49 962.93 2474.36 955.446 2469.82 950.229L2451.53 929.024C2444.71 921.087 2445.51 909.067 2453.23 902.263L2477.31 880.944C2481.06 877.542 2485.83 875.955 2490.83 876.295C2495.83 876.635 2500.37 878.903 2503.78 882.645L2517.29 898.407C2522.52 904.417 2530.81 906.232 2537.96 902.943C2543.42 900.448 2549.21 898.294 2554.89 896.593C2561.59 894.665 2566.47 889.109 2567.61 882.305L2571.81 855.997C2572.61 850.894 2575.33 846.472 2579.42 843.523C2583.4 840.689 2588.39 839.441 2593.28 840.235L2624.85 845.451C2634.96 847.039 2642.01 856.791 2640.3 867.223L2637.35 885.707C2636.1 893.645 2640.07 901.242 2647.12 904.644C2648.48 905.324 2649.84 906.043 2651.21 906.799C2657.45 910.2 2665.4 909.18 2670.86 904.304L2683.58 893.078C2687.32 889.789 2692.21 888.088 2697.09 888.428C2702.09 888.769 2706.75 891.036 2710.04 894.892L2731.05 919.159C2737.87 927.097 2737.07 939.117 2729.35 946.034L2716.63 957.26C2711.18 962.136 2709.13 969.96 2711.63 976.764C2712.16 978.201 2712.65 979.675 2713.11 981.187C2715.61 988.671 2722.53 993.547 2730.37 993.32L2748.89 992.866C2753.88 992.753 2758.65 994.567 2762.17 997.969C2765.92 1001.48 2768.08 1006.25 2768.19 1011.35L2768.99 1043.67C2769.33 1054.1 2761.15 1062.83 2750.82 1063.17L2724.58 1063.85C2717.76 1064.08 2711.52 1068.28 2708.79 1074.63C2706.41 1080.3 2703.57 1085.74 2700.39 1090.84C2696.3 1097.64 2696.98 1106.26 2702.09 1112.16L2715.72 1127.92C2722.53 1135.86 2721.74 1147.88 2713.9 1154.68L2689.94 1176C2686.07 1179.4 2681.3 1180.99 2676.31 1180.65C2671.31 1180.31 2666.77 1178.04 2663.47 1174.3L2645.07 1153.1C2640.53 1147.77 2633.49 1145.61 2627.01 1147.54C2625.35 1148.07 2623.68 1148.52 2622.01 1148.9C2615.2 1150.6 2610.09 1156.27 2608.95 1163.41L2604.3 1193.01C2603.5 1198.11 2600.78 1202.54 2596.69 1205.48C2593.51 1207.87 2589.64 1209 2585.78 1209ZM2522.18 1134.5C2525.13 1134.5 2528.08 1135.18 2530.81 1136.65L2531.04 1136.77C2538.19 1140.62 2542.17 1148.56 2540.8 1156.61L2536.83 1182.13C2535.24 1191.76 2541.83 1201.06 2551.48 1202.54L2582.94 1207.75C2587.6 1208.43 2592.26 1207.3 2596 1204.58C2599.87 1201.86 2602.48 1197.66 2603.16 1192.9L2607.93 1163.19C2609.07 1155.7 2614.52 1149.69 2621.79 1147.88C2623.38 1147.43 2625.01 1146.97 2626.67 1146.52C2633.6 1144.48 2641.1 1146.75 2645.98 1152.3L2664.27 1173.51C2667.33 1177.14 2671.65 1179.29 2676.42 1179.63C2681.08 1179.97 2685.62 1178.38 2689.14 1175.21L2713.22 1153.89C2720.49 1147.43 2721.29 1136.09 2714.92 1128.72L2701.29 1112.84C2695.84 1106.6 2695.05 1097.53 2699.48 1090.27C2702.66 1085.17 2705.38 1079.73 2707.77 1074.29C2710.72 1067.48 2717.31 1062.95 2724.47 1062.72L2750.82 1062.04C2760.47 1061.81 2768.19 1053.53 2767.97 1043.67L2767.06 1011.35C2766.95 1006.47 2764.9 1002.05 2761.49 998.763C2758.09 995.588 2753.66 993.774 2749 994L2730.37 994.454C2722.08 994.681 2714.7 989.465 2712.09 981.527C2711.63 980.015 2711.14 978.541 2710.61 977.104C2707.88 969.847 2710.04 961.569 2715.83 956.466L2728.55 945.127C2735.94 938.663 2736.62 927.323 2730.26 919.953L2709.13 895.572C2706.07 891.944 2701.75 889.789 2697.09 889.562C2692.32 889.222 2687.89 890.81 2684.26 893.871L2671.54 905.211C2665.74 910.314 2657.34 911.335 2650.64 907.706C2649.27 907.025 2647.91 906.345 2646.55 905.665C2639.05 901.923 2634.96 893.871 2636.33 885.594L2639.28 866.996C2640.76 857.244 2634.28 848.059 2624.63 846.472L2593.05 841.369C2588.51 840.575 2583.85 841.709 2579.99 844.431C2576.13 847.265 2573.63 851.348 2572.83 856.11L2568.63 882.418C2567.5 889.676 2562.27 895.686 2555.23 897.727C2549.55 899.314 2543.87 901.469 2538.42 903.964C2530.81 907.366 2521.95 905.438 2516.5 899.201L2502.87 883.439C2499.8 879.81 2495.48 877.656 2490.71 877.316C2486.06 877.089 2481.51 878.563 2477.99 881.738L2454.03 903.057C2446.64 909.52 2445.96 920.86 2452.32 928.231L2470.61 949.436C2475.49 955.106 2476.74 962.93 2473.79 969.62C2473.11 971.208 2472.47 972.795 2471.86 974.383C2469.02 981.413 2462.43 986.063 2454.94 986.176L2425.29 986.97C2415.52 987.31 2407.91 995.475 2408.14 1005.34L2408.94 1037.77C2409.05 1042.53 2411.09 1046.96 2414.5 1050.25C2417.91 1053.53 2422.34 1055.23 2427.11 1055.12L2452.55 1054.44C2460.62 1054.21 2467.88 1059.2 2470.61 1066.91L2470.72 1067.14C2473.34 1074.4 2471.29 1082.79 2465.5 1087.89L2447.44 1103.88C2440.17 1110.35 2439.38 1121.68 2445.85 1129.17L2466.86 1153.44C2470.04 1157.06 2474.25 1159.22 2479.02 1159.56C2483.67 1159.9 2488.22 1158.31 2491.74 1155.14L2509.8 1139.15C2513.2 1136.09 2517.63 1134.5 2522.18 1134.5Z" fill="#1C3A3E"/>
<path d="M2197.81 1834.56V1811.07L2535.74 1808.97L2535.39 1834.56H2197.81Z" fill="#FF9103"/>
<path d="M2211.13 1810.54C2241.8 1784.6 2311.91 1761.63 2432.68 1777.24C2511.38 1787.4 2552.39 1818.26 2529.61 1845.08C2502.09 1877.86 2421.81 1889.43 2303.68 1878.56C2222.17 1871.2 2172.57 1842.97 2211.13 1810.54Z" fill="#FF9103"/>
<path d="M2211.13 1787.93C2241.8 1761.98 2311.91 1739.02 2432.68 1754.62C2511.38 1764.79 2552.39 1795.64 2529.61 1822.64C2502.09 1855.25 2421.81 1866.82 2303.68 1855.95C2222.17 1848.58 2172.57 1820.36 2211.13 1787.93Z" fill="#FF9103"/>
<path fill-rule="evenodd" clip-rule="evenodd" d="M2380.27 1854.37C2359.94 1854.37 2337.5 1853.32 2313.32 1851.21C2262.49 1846.48 2227.43 1832.46 2221.82 1814.75C2219.89 1808.79 2220.42 1799.32 2233.21 1788.63C2249.69 1774.61 2301.22 1743.93 2423.74 1759.71C2471.24 1765.84 2505.07 1781.27 2512.43 1799.85C2515.24 1807.21 2513.66 1814.93 2507.87 1821.76C2489.65 1843.33 2445.3 1854.37 2380.27 1854.37ZM2236.54 1792.66C2228.13 1799.85 2224.8 1806.69 2226.9 1813.17C2231.64 1828.6 2265.82 1841.57 2313.84 1845.95C2413.58 1855.07 2481.06 1845.25 2503.84 1818.43C2508.4 1813 2509.63 1807.39 2507.35 1801.78C2501.04 1785.12 2467.91 1770.75 2423.04 1764.96C2376.24 1759 2335.23 1759.18 2300.87 1765.84C2265.99 1772.5 2246.71 1784.07 2236.54 1792.66Z" fill="white"/>
<path d="M2336.45 1835.09L2338.73 1831.58C2339.61 1830.35 2337.5 1829.13 2333.82 1828.78C2325.24 1827.72 2317.17 1826.32 2311.39 1824.74C2308.41 1823.87 2307.88 1822.46 2309.81 1821.41L2311.21 1820.71C2313.49 1819.48 2318.75 1819.13 2322.26 1820.19C2328.92 1821.94 2337.68 1823.52 2347.67 1824.22C2364.32 1825.44 2374.49 1822.29 2377.64 1817.73C2380.62 1813.35 2376.77 1810.54 2360.82 1806.86C2338.91 1801.95 2317.52 1796.34 2322.26 1789.51C2326.46 1783.37 2342.06 1778.11 2370.11 1779.87C2373.44 1780.04 2376.24 1778.99 2377.12 1777.94L2379.57 1774.08C2380.45 1772.85 2384.48 1771.98 2388.51 1772.33C2392.72 1772.5 2395.17 1773.9 2394.29 1775.13L2392.19 1778.29C2391.32 1779.51 2393.42 1780.74 2396.92 1781.27C2404.11 1781.97 2409.72 1783.02 2414.1 1784.25C2417.26 1784.95 2417.96 1786.35 2415.85 1787.58L2414.45 1788.1C2412.17 1789.33 2407.27 1789.68 2403.76 1788.81C2398.85 1787.58 2391.84 1786.35 2382.03 1785.65C2363.8 1784.25 2354.51 1787.4 2352.23 1790.56C2349.42 1794.77 2361.87 1796.17 2380.45 1800.55C2402.53 1805.81 2414.63 1811.6 2411.82 1818.96C2408.84 1826.67 2391.67 1830.88 2361.17 1830.18C2357.66 1830.18 2354.86 1831.05 2354.16 1832.11L2351.35 1836.14C2350.48 1837.54 2346.44 1838.42 2342.41 1838.07H2342.24C2338.03 1837.72 2335.58 1836.49 2336.45 1835.09Z" fill="white"/>
<path d="M2387.81 1690.81V1664.51L2760.45 1662.06L2759.92 1690.81H2387.81Z" fill="#FF9103"/>
<path d="M2402.36 1663.64C2436.36 1634.54 2513.66 1608.77 2646.7 1626.3C2733.46 1637.87 2778.68 1672.4 2753.79 1702.73C2723.29 1739.37 2634.78 1752.52 2504.54 1740.25C2414.8 1732.01 2360.12 1700.28 2402.36 1663.64Z" fill="#FF9103"/>
<path d="M2402.36 1638.22C2436.36 1609.12 2513.66 1583.35 2646.7 1600.88C2733.46 1612.45 2778.68 1647.16 2753.79 1677.31C2723.29 1713.95 2634.78 1727.1 2504.54 1714.83C2414.8 1706.59 2360.12 1674.86 2402.36 1638.22Z" fill="#FF9103"/>
<path fill-rule="evenodd" clip-rule="evenodd" d="M2589.73 1713.25C2567.12 1713.25 2542.23 1711.85 2515.24 1709.39C2459.32 1704.13 2420.76 1688.53 2414.28 1668.55C2412.17 1661.89 2412.52 1651.37 2426.72 1639.1C2444.95 1623.32 2501.92 1588.78 2636.88 1606.66C2688.94 1613.5 2726.45 1630.68 2734.51 1651.54C2737.84 1659.96 2736.09 1668.55 2729.6 1676.26C2716.46 1692.39 2690.86 1703.43 2653.71 1709.04C2635.13 1711.85 2613.74 1713.25 2589.73 1713.25ZM2566.77 1607.54C2543.11 1607.54 2521.37 1609.47 2501.56 1613.33C2463 1620.86 2441.79 1634.01 2430.58 1643.48C2421.11 1651.72 2417.61 1659.43 2419.89 1666.79C2425.49 1684.15 2463 1698.7 2515.76 1703.61C2542.58 1706.06 2567.29 1707.29 2589.73 1707.29C2659.14 1707.29 2706.29 1695.37 2725.22 1672.58C2730.3 1666.44 2731.53 1660.13 2729.08 1653.65C2721.71 1635.06 2685.26 1618.94 2636.18 1612.45C2611.46 1609.29 2588.33 1607.54 2566.77 1607.54Z" fill="white"/>
<path d="M2540.65 1691.34L2543.28 1687.48C2544.16 1686.08 2541.88 1684.67 2537.85 1684.32C2528.38 1683.1 2519.44 1681.52 2512.96 1679.59C2509.8 1678.71 2509.1 1677.31 2511.2 1676.08L2512.78 1675.21C2515.41 1673.81 2521.02 1673.46 2525.05 1674.51C2532.41 1676.61 2542.05 1678.36 2552.92 1679.06C2571.5 1680.47 2582.72 1676.96 2586.05 1671.88C2589.38 1666.79 2585 1663.81 2567.64 1659.61C2543.46 1654 2519.97 1647.86 2525.05 1639.97C2529.61 1633.14 2546.79 1627.17 2577.63 1629.28C2581.32 1629.45 2584.65 1628.23 2585.52 1627L2588.33 1622.79C2589.2 1621.21 2593.76 1620.34 2598.14 1620.69C2602.7 1621.04 2605.5 1622.44 2604.45 1624.02L2602 1627.53C2601.12 1628.93 2603.4 1630.33 2607.43 1630.86C2615.32 1631.73 2621.45 1632.96 2626.19 1634.19C2629.69 1634.89 2630.57 1636.64 2628.29 1637.87L2626.71 1638.57C2624.08 1639.97 2618.65 1640.32 2614.79 1639.27C2609.54 1638.04 2601.82 1636.47 2590.96 1635.76C2570.8 1634.19 2560.46 1637.69 2558.18 1641.37C2555.02 1646.11 2568.7 1647.51 2589.2 1652.59C2613.57 1658.38 2626.89 1665.04 2623.73 1673.1C2620.4 1681.87 2601.65 1686.78 2567.82 1685.9C2564.14 1685.9 2560.98 1686.95 2560.11 1688.18L2557.13 1692.56C2556.08 1694.14 2551.69 1695.02 2547.31 1694.67H2546.96C2542.58 1694.32 2539.77 1692.91 2540.65 1691.34Z" fill="white"/>
<path d="M2359.41 1645.06V1618.76L2732.05 1616.31L2731.53 1645.06H2359.41Z" fill="#FF9103"/>
<path d="M2373.96 1618.06C2407.97 1588.78 2485.26 1563.19 2618.3 1580.72C2705.06 1592.11 2750.28 1626.82 2725.22 1656.98C2694.9 1693.79 2606.38 1706.76 2475.97 1694.67C2386.41 1686.25 2331.72 1654.52 2373.96 1618.06Z" fill="#FF9103"/>
<path d="M2373.96 1592.64C2407.97 1563.36 2485.26 1537.77 2618.3 1555.3C2705.06 1566.7 2750.28 1601.41 2725.22 1631.56C2694.9 1668.37 2606.38 1681.34 2475.97 1669.25C2386.41 1660.83 2331.72 1629.1 2373.96 1592.64Z" fill="#FF9103"/>
<path fill-rule="evenodd" clip-rule="evenodd" d="M2561.33 1667.49C2538.72 1667.49 2513.83 1666.27 2486.84 1663.64C2430.93 1658.55 2392.37 1642.78 2385.88 1622.97C2383.78 1616.13 2384.13 1605.61 2398.33 1593.34C2416.56 1577.74 2473.52 1543.2 2608.48 1560.91C2660.54 1567.75 2698.05 1584.93 2706.11 1605.79C2709.44 1614.2 2707.69 1622.79 2701.21 1630.68C2687.89 1646.81 2662.47 1657.68 2625.31 1663.29C2606.73 1666.09 2585.35 1667.49 2561.33 1667.49ZM2402.18 1597.9C2392.72 1605.96 2389.21 1613.85 2391.49 1621.04C2397.1 1638.57 2434.61 1652.94 2487.37 1657.85C2597.44 1668.02 2671.76 1657.15 2696.82 1626.82C2701.91 1620.69 2703.13 1614.38 2700.68 1607.89C2693.32 1589.48 2656.86 1573.18 2607.78 1566.69C2556.25 1560.03 2511.03 1560.38 2473.17 1567.75C2434.61 1575.28 2413.4 1588.26 2402.18 1597.9Z" fill="white"/>
<path d="M2512.26 1645.58L2514.89 1641.72C2515.76 1640.32 2513.48 1639.1 2509.45 1638.57C2499.81 1637.52 2491.05 1635.76 2484.56 1634.01C2481.41 1633.13 2480.71 1631.56 2482.81 1630.33L2484.39 1629.63C2487.02 1628.05 2492.63 1627.88 2496.66 1628.93C2504.02 1630.86 2513.66 1632.61 2524.53 1633.49C2543.11 1634.89 2554.32 1631.21 2557.65 1626.12C2560.98 1621.21 2556.6 1618.06 2539.25 1614.03C2515.06 1608.24 2491.57 1602.11 2496.66 1594.39C2501.21 1587.56 2518.39 1581.42 2549.24 1583.52C2552.92 1583.7 2556.25 1582.65 2557.13 1581.24L2559.93 1577.04C2560.81 1575.63 2565.37 1574.58 2569.75 1574.93C2574.13 1575.28 2576.93 1576.86 2576.06 1578.26L2573.6 1581.77C2572.73 1583.17 2575.01 1584.58 2579.04 1585.1C2586.92 1585.98 2593.06 1587.2 2597.79 1588.43C2601.3 1589.31 2602.17 1590.89 2599.9 1592.11L2598.32 1592.99C2595.69 1594.22 2590.26 1594.57 2586.4 1593.69C2581.14 1592.29 2573.25 1590.89 2562.56 1590.01C2542.4 1588.43 2532.06 1592.11 2529.78 1595.62C2526.63 1600.35 2540.3 1601.93 2560.81 1606.84C2585.17 1612.62 2598.49 1619.29 2595.34 1627.52C2592.01 1636.11 2573.25 1641.02 2539.42 1640.32C2535.74 1640.15 2532.59 1641.2 2531.71 1642.43L2528.73 1646.98C2527.68 1648.39 2523.3 1649.26 2518.92 1649.09L2518.57 1648.91C2514.18 1648.74 2511.38 1647.16 2512.26 1645.58Z" fill="white"/>
<path d="M2396.05 1605.79V1579.32L2768.69 1577.04L2768.16 1605.79H2396.05Z" fill="#FF9103"/>
<path d="M2410.6 1578.62C2444.6 1549.51 2521.9 1523.75 2654.93 1541.28C2741.7 1552.67 2786.92 1587.38 2761.85 1617.71C2731.53 1654.35 2643.01 1667.49 2512.61 1655.22C2422.87 1646.98 2368.18 1615.25 2410.6 1578.62Z" fill="#FF9103"/>
<path d="M2410.6 1553.2C2444.6 1524.1 2521.9 1498.33 2654.93 1515.86C2741.7 1527.43 2786.92 1561.96 2761.85 1592.29C2731.53 1628.93 2643.01 1642.08 2512.61 1629.8C2422.87 1621.56 2368.18 1589.83 2410.6 1553.2Z" fill="#FF9103"/>
<path fill-rule="evenodd" clip-rule="evenodd" d="M2597.97 1628.05C2575.36 1628.05 2550.47 1626.82 2523.3 1624.37C2467.56 1619.11 2428.82 1603.51 2422.51 1583.52C2420.41 1576.86 2420.76 1566.34 2434.96 1554.07C2453.19 1538.3 2510.15 1503.76 2645.12 1521.64C2697.17 1528.48 2734.51 1545.66 2742.75 1566.52C2746.08 1574.93 2744.32 1583.52 2737.84 1591.24C2724.52 1607.37 2698.93 1618.41 2661.94 1623.84C2643.19 1626.65 2621.81 1628.05 2597.97 1628.05ZM2574.83 1522.52C2551.17 1522.52 2529.43 1524.45 2509.63 1528.3C2471.24 1535.84 2449.86 1548.99 2438.81 1558.46C2429.35 1566.7 2425.84 1574.41 2428.12 1581.77C2433.73 1599.13 2471.24 1613.5 2524 1618.41C2633.9 1628.75 2708.39 1617.71 2733.28 1587.56C2738.36 1581.42 2739.77 1574.93 2737.31 1568.62C2729.95 1550.04 2693.49 1533.91 2644.24 1527.43C2619.7 1524.1 2596.57 1522.52 2574.83 1522.52Z" fill="white"/>
<path d="M2387.81 1551.97V1525.5L2760.45 1523.04L2759.92 1551.97H2387.81Z" fill="#FF9103"/>
<path d="M2402.53 1524.8C2436.36 1495.52 2513.66 1469.93 2646.87 1487.46C2733.46 1498.85 2778.68 1533.56 2753.79 1563.71C2723.29 1600.53 2634.78 1613.5 2504.54 1601.4C2414.8 1592.99 2360.12 1561.26 2402.53 1524.8Z" fill="#FF9103"/>
<path d="M2402.53 1499.38C2436.36 1470.1 2513.66 1444.51 2646.87 1462.04C2733.46 1473.43 2778.68 1508.14 2753.79 1538.3C2723.29 1575.11 2634.78 1588.08 2504.54 1575.99C2414.8 1567.57 2360.12 1535.84 2402.53 1499.38Z" fill="#FF9103"/>
<path fill-rule="evenodd" clip-rule="evenodd" d="M2589.9 1574.23C2567.12 1574.23 2542.23 1573.01 2515.24 1570.38C2459.32 1565.29 2420.76 1549.69 2414.28 1529.71C2412.17 1522.87 2412.7 1512.35 2426.9 1500.08C2444.95 1484.48 2501.91 1449.94 2636.88 1467.65C2688.94 1474.66 2726.45 1491.84 2734.51 1512.53C2737.84 1520.94 2736.26 1529.53 2729.78 1537.42C2716.45 1553.55 2690.86 1564.42 2653.88 1570.03C2635.13 1572.83 2613.74 1574.23 2589.9 1574.23ZM2430.58 1504.64C2421.29 1512.7 2417.61 1520.59 2419.89 1527.95C2425.49 1545.31 2463.18 1559.68 2515.76 1564.59C2625.84 1574.93 2700.15 1563.89 2725.22 1533.74C2730.3 1527.43 2731.7 1521.12 2729.08 1514.8C2721.89 1496.22 2685.43 1480.09 2636.18 1473.61C2584.65 1466.77 2539.42 1467.12 2501.56 1474.48C2463.18 1482.02 2441.79 1494.99 2430.58 1504.64Z" fill="white"/>
<path d="M2540.83 1552.5L2543.28 1548.64C2544.33 1547.24 2541.88 1545.83 2537.85 1545.31C2528.38 1544.26 2519.44 1542.5 2512.96 1540.75C2509.8 1539.87 2509.1 1538.3 2511.38 1537.07L2512.78 1536.37C2515.41 1534.96 2521.2 1534.61 2525.05 1535.67C2532.59 1537.59 2542.23 1539.35 2553.1 1540.22C2571.5 1541.63 2582.72 1538.12 2586.22 1532.86C2589.38 1527.95 2585.17 1524.8 2567.64 1520.77C2543.46 1515.16 2519.97 1509.02 2525.23 1501.13C2529.78 1494.29 2546.79 1488.33 2577.81 1490.26C2581.49 1490.44 2584.65 1489.39 2585.52 1488.16L2588.33 1483.95C2589.38 1482.37 2593.76 1481.5 2598.14 1481.85C2602.7 1482.02 2605.5 1483.6 2604.45 1485.18L2602.17 1488.68C2601.12 1489.91 2603.4 1491.31 2607.43 1491.84C2615.32 1492.72 2621.46 1493.94 2626.36 1495.17C2629.69 1496.05 2630.57 1497.63 2628.29 1498.85L2626.71 1499.73C2624.26 1500.96 2618.83 1501.31 2614.97 1500.43C2609.54 1499.03 2601.82 1497.63 2590.96 1496.75C2570.98 1495.17 2560.63 1498.85 2558.18 1502.53C2555.02 1507.09 2568.7 1508.67 2589.2 1513.58C2613.57 1519.36 2626.89 1526.02 2623.91 1534.26C2620.58 1543.03 2601.65 1547.76 2568 1547.06C2564.14 1546.89 2560.98 1547.94 2560.11 1549.16L2557.13 1553.72C2556.08 1555.12 2551.69 1556.18 2547.31 1555.83H2546.96C2542.58 1555.48 2539.78 1553.9 2540.83 1552.5Z" fill="white"/>
<path d="M651.858 1691.34V1663.64L1030.63 1661.18L1030.11 1691.34H651.858Z" fill="#FF9103"/>
<path d="M666.756 1662.94C701.111 1632.26 779.811 1605.26 914.95 1623.67C1003.11 1635.76 1049.21 1672.05 1023.62 1703.78C992.773 1742.35 902.856 1756.2 770.346 1743.4C679.201 1734.64 623.638 1701.33 666.756 1662.94Z" fill="#FF9103"/>
<path d="M666.756 1636.29C701.111 1605.61 779.811 1578.62 914.95 1597.02C1003.11 1608.94 1049.21 1645.41 1023.62 1677.14C992.773 1715.7 902.856 1729.38 770.346 1716.75C679.201 1707.99 623.638 1674.51 666.756 1636.29Z" fill="#FF9103"/>
<path fill-rule="evenodd" clip-rule="evenodd" d="M857.108 1714.83C834.147 1714.83 808.732 1713.42 781.213 1710.8C724.949 1705.36 685.687 1689.06 678.851 1668.37C676.572 1661.18 676.748 1650.14 691.296 1637.17C709.875 1620.69 767.717 1584.4 904.959 1602.98C957.543 1610.17 995.403 1628.05 1004.17 1649.79C1007.67 1658.73 1006.09 1667.85 999.434 1676.08C985.762 1693.09 959.821 1704.48 922.136 1710.44C903.206 1713.42 881.472 1714.83 857.108 1714.83ZM684.635 1666.44C690.594 1684.67 728.63 1699.75 781.914 1704.83C893.741 1715.53 969.286 1703.96 994.701 1672.4C999.96 1665.74 1001.19 1658.91 998.382 1651.89C990.845 1632.61 953.687 1615.78 904.083 1609.12C851.85 1601.93 805.927 1602.28 767.366 1610C728.455 1617.88 706.72 1631.56 695.327 1641.73C685.687 1650.32 682.006 1658.73 684.635 1666.44Z" fill="white"/>
<path d="M689.367 1649.09V1621.39L1068.14 1618.94L1067.62 1649.09H689.367Z" fill="#FF9103"/>
<path d="M704.267 1620.69C738.621 1590.01 817.321 1563.01 952.635 1581.42C1040.62 1593.34 1086.72 1629.8 1061.31 1661.53C1030.28 1700.1 940.366 1713.95 807.856 1701.15C716.711 1692.39 661.148 1659.08 704.267 1620.69Z" fill="#FF9103"/>
<path d="M704.267 1594.04C738.621 1563.36 817.321 1536.37 952.635 1554.77C1040.62 1566.69 1086.72 1603.16 1061.31 1634.89C1030.28 1673.45 940.366 1687.13 807.856 1674.51C716.711 1665.57 661.148 1632.26 704.267 1594.04Z" fill="#FF9103"/>
<path fill-rule="evenodd" clip-rule="evenodd" d="M894.618 1672.58C871.657 1672.58 846.241 1671.18 818.898 1668.55C762.459 1663.11 723.197 1646.81 716.361 1626.12C714.082 1618.94 714.257 1607.89 728.981 1594.92C747.385 1578.44 805.226 1542.15 942.469 1560.73C995.052 1567.92 1032.91 1585.8 1041.68 1607.37C1045.18 1616.48 1043.6 1625.6 1036.94 1633.84C1023.27 1650.84 997.331 1662.24 959.646 1668.2C940.716 1671 918.982 1672.58 894.618 1672.58ZM871.131 1561.61C847.118 1561.61 825.033 1563.71 805.051 1567.75C765.964 1575.64 744.23 1589.31 733.012 1599.48C723.197 1608.07 719.516 1616.48 722.145 1624.19C728.104 1642.43 766.315 1657.5 819.424 1662.59C931.251 1673.28 1006.8 1661.71 1032.21 1629.98C1037.47 1623.49 1038.7 1616.66 1036.07 1609.64C1028.36 1590.36 991.196 1573.53 941.768 1566.87C916.703 1563.36 893.216 1561.61 871.131 1561.61Z" fill="white"/>
<path d="M669.912 1597.2V1569.67L1048.69 1567.05L1048.16 1597.2H669.912Z" fill="#FF9103"/>
<path d="M684.81 1568.8C719.164 1538.12 797.864 1511.12 933.003 1529.53C1021.17 1541.63 1067.09 1578.09 1041.68 1609.82C1010.83 1648.39 920.909 1662.06 788.399 1649.26C697.255 1640.5 641.691 1607.19 684.81 1568.8Z" fill="#FF9103"/>
<path d="M684.81 1542.15C719.164 1511.47 797.864 1484.48 933.003 1502.88C1021.17 1514.98 1067.09 1551.44 1041.68 1583.17C1010.83 1621.74 920.909 1635.41 788.399 1622.62C697.255 1613.85 641.691 1580.54 684.81 1542.15Z" fill="#FF9103"/>
<path fill-rule="evenodd" clip-rule="evenodd" d="M875.162 1620.69C852.2 1620.69 826.785 1619.46 799.266 1616.83C743.002 1611.4 703.74 1595.09 696.904 1574.23C694.626 1567.22 694.801 1556 709.349 1543.03C727.928 1526.55 785.77 1490.26 923.013 1509.02C975.596 1516.03 1013.46 1533.91 1022.22 1555.65C1025.73 1564.59 1024.15 1573.71 1017.49 1581.95C1003.82 1598.95 977.875 1610.52 940.19 1616.31C921.26 1619.29 899.525 1620.69 875.162 1620.69ZM702.688 1572.3C708.648 1590.54 746.683 1605.61 799.968 1610.7C911.62 1621.57 987.34 1610 1012.75 1578.26C1018.01 1571.6 1019.24 1564.77 1016.44 1557.93C1008.72 1538.47 971.74 1521.64 922.136 1514.98C869.903 1507.79 823.981 1508.14 785.419 1515.86C746.508 1523.92 724.773 1537.42 713.38 1547.59C703.74 1556.18 700.059 1564.59 702.688 1572.3Z" fill="white"/>
<path d="M825.208 1597.9L827.837 1593.87C828.888 1592.29 826.434 1590.89 822.228 1590.36C812.588 1589.31 803.648 1587.56 796.988 1585.63C793.833 1584.58 793.132 1583 795.41 1581.77L796.813 1580.89C799.617 1579.49 805.401 1579.14 809.257 1580.19C816.969 1582.3 826.785 1584.22 837.652 1584.93C856.582 1586.5 867.975 1582.82 871.481 1577.39C874.811 1572.13 870.254 1568.97 852.551 1564.59C828.012 1558.63 804.174 1552.14 809.433 1543.9C813.99 1536.72 831.518 1530.41 862.892 1532.51C866.573 1532.86 869.903 1531.63 870.78 1530.23L873.584 1525.85C874.636 1524.27 879.193 1523.22 883.575 1523.57C888.132 1523.92 891.112 1525.5 890.06 1527.08L887.606 1530.76C886.73 1532.33 889.009 1533.74 893.04 1534.26C901.103 1535.14 907.238 1536.37 912.145 1537.77C915.826 1538.65 916.527 1540.4 914.249 1541.63L912.671 1542.5C910.042 1543.9 904.608 1544.26 900.577 1543.2C895.143 1541.8 887.256 1540.22 876.213 1539.35C855.881 1537.77 845.365 1541.63 842.911 1545.31C839.756 1550.22 853.778 1551.97 874.636 1557.05C899.35 1563.19 912.846 1570.2 909.691 1578.79C906.361 1587.91 887.256 1592.99 852.901 1592.11C849.045 1592.11 845.89 1593.17 845.014 1594.39L842.034 1599.13C840.983 1600.7 836.425 1601.76 831.868 1601.4H831.693C827.136 1601.05 824.331 1599.48 825.208 1597.9Z" fill="white"/>
<path d="M660.446 1549.34V1521.64L1039.22 1519.01L1038.7 1549.34H660.446Z" fill="#FF9103"/>
<path d="M675.346 1520.77C709.7 1490.09 788.4 1463.09 923.714 1481.67C1011.7 1493.59 1057.8 1530.06 1032.39 1561.79C1001.36 1600.35 911.445 1614.03 778.935 1601.23C687.79 1592.46 632.227 1559.16 675.346 1520.77Z" fill="#FF9103"/>
<path d="M675.346 1494.12C709.7 1463.44 788.4 1436.44 923.714 1454.85C1011.7 1466.95 1057.8 1503.41 1032.39 1535.14C1001.36 1573.71 911.445 1587.38 778.935 1574.58C687.79 1565.82 632.227 1532.51 675.346 1494.12Z" fill="#FF9103"/>
<path fill-rule="evenodd" clip-rule="evenodd" d="M865.697 1572.66C842.736 1572.66 817.32 1571.43 789.977 1568.8C733.538 1563.36 694.275 1547.06 687.439 1526.2C685.161 1519.19 685.512 1507.97 700.06 1495C718.464 1478.52 776.305 1442.23 913.548 1460.99C966.131 1468.17 1004.17 1486.06 1012.76 1507.62C1016.26 1516.56 1014.68 1525.67 1008.02 1534.09C994.351 1550.92 968.41 1562.49 930.725 1568.27C911.795 1571.25 890.061 1572.66 865.697 1572.66ZM842.21 1461.86C818.197 1461.86 796.112 1463.97 776.13 1468C737.043 1475.89 715.309 1489.56 704.091 1499.55C694.275 1508.32 690.595 1516.56 693.224 1524.45C699.183 1542.5 737.394 1557.58 790.503 1562.66C902.33 1573.53 977.875 1561.96 1003.29 1530.23C1008.55 1523.57 1009.78 1516.73 1007.15 1509.9C999.434 1490.61 962.275 1473.78 912.847 1466.95C887.782 1463.62 864.295 1461.86 842.21 1461.86Z" fill="white"/>
<path d="M815.918 1549.87L818.371 1545.83C819.423 1544.43 816.969 1542.85 812.938 1542.33C803.298 1541.28 794.183 1539.52 787.698 1537.59C784.368 1536.72 783.666 1534.97 785.945 1533.74L787.523 1533.04C790.152 1531.46 795.936 1531.11 799.792 1532.16C807.504 1534.26 817.32 1536.19 828.362 1537.07C847.117 1538.47 858.51 1534.79 862.016 1529.36C865.346 1524.1 860.964 1520.94 843.086 1516.56C818.547 1510.6 794.709 1504.11 799.967 1495.87C804.7 1488.69 822.052 1482.55 853.427 1484.65C857.108 1484.83 860.438 1483.6 861.315 1482.37L864.119 1477.82C865.171 1476.24 869.728 1475.36 874.285 1475.71C878.842 1476.06 881.647 1477.64 880.595 1479.22L878.141 1482.9C877.265 1484.3 879.543 1485.7 883.575 1486.23C891.637 1487.28 897.947 1488.51 902.855 1489.74C906.361 1490.61 907.237 1492.37 904.783 1493.59L903.206 1494.47C900.577 1495.87 895.143 1496.22 891.287 1495.17C885.678 1493.77 877.791 1492.19 866.923 1491.49C846.416 1489.74 835.899 1493.59 833.621 1497.45C830.29 1502.36 844.312 1503.94 865.171 1509.2C889.885 1515.16 903.381 1522.17 900.226 1530.76C896.896 1539.87 877.79 1544.96 843.436 1544.26C839.58 1544.08 836.425 1545.13 835.549 1546.54L832.569 1551.09C831.517 1552.67 826.96 1553.72 822.403 1553.37H822.227C817.67 1553.02 814.866 1551.44 815.918 1549.87Z" fill="white"/>
<path d="M697.605 1507.97V1480.27L1076.38 1477.82L1075.86 1507.97H697.605Z" fill="#FF9103"/>
<path d="M712.505 1479.57C747.034 1448.89 825.559 1421.89 960.873 1440.3C1048.86 1452.22 1094.96 1488.68 1069.55 1520.41C1038.52 1558.98 948.604 1572.66 816.269 1560.03C724.949 1551.09 669.386 1517.78 712.505 1479.57Z" fill="#FF9103"/>
<path d="M712.505 1452.75C747.034 1422.07 825.559 1395.25 960.873 1413.65C1048.86 1425.57 1094.96 1462.04 1069.55 1493.77C1038.52 1532.33 948.604 1546.01 816.269 1533.21C724.949 1524.45 669.386 1491.14 712.505 1452.75Z" fill="#FF9103"/>
<path fill-rule="evenodd" clip-rule="evenodd" d="M902.855 1531.46C879.894 1531.46 854.479 1530.06 827.135 1527.43C770.696 1521.99 731.434 1505.69 724.598 1485C722.319 1477.82 722.67 1466.6 737.218 1453.8C755.622 1437.32 813.639 1400.86 950.706 1419.61C1003.29 1426.8 1041.32 1444.68 1049.91 1466.25C1053.42 1475.19 1051.84 1484.3 1045.18 1492.72C1031.68 1509.55 1005.57 1521.12 967.883 1526.9C948.953 1529.88 927.219 1531.46 902.855 1531.46ZM730.382 1483.08C736.341 1501.31 774.552 1516.21 827.661 1521.47C939.488 1532.16 1015.03 1520.59 1040.45 1488.86C1045.71 1482.37 1046.93 1475.36 1044.3 1468.52C1036.59 1449.24 999.609 1432.41 950.005 1425.58C897.597 1418.56 851.674 1418.91 813.288 1426.63C774.202 1434.52 752.467 1448.19 741.249 1458.18C731.434 1466.95 727.928 1475.19 730.382 1483.08Z" fill="white"/>
<path d="M689.367 1451.34V1423.65L1068.14 1421.19L1067.62 1451.34H689.367Z" fill="#FF9103"/>
<path d="M704.267 1422.94C738.621 1392.27 817.321 1365.27 952.635 1383.68C1040.62 1395.77 1086.72 1432.06 1061.31 1463.79C1030.28 1502.36 940.366 1516.21 807.856 1503.41C716.711 1494.64 661.148 1461.34 704.267 1422.94Z" fill="#FF9103"/>
<path d="M704.267 1396.3C738.621 1365.62 817.321 1338.62 952.635 1357.03C1040.62 1368.95 1086.72 1405.41 1061.31 1437.14C1030.28 1475.71 940.366 1489.39 807.856 1476.76C716.711 1468 661.148 1434.52 704.267 1396.3Z" fill="#FF9103"/>
<path fill-rule="evenodd" clip-rule="evenodd" d="M894.618 1474.84C871.657 1474.84 846.241 1473.43 818.898 1470.8C762.459 1465.37 723.197 1449.07 716.361 1428.38C714.082 1421.19 714.257 1410.15 728.981 1397.18C747.385 1380.7 805.226 1344.41 942.469 1362.99C995.052 1370.18 1032.91 1388.06 1041.68 1409.62C1045.18 1418.74 1043.6 1427.85 1036.94 1436.09C1023.27 1453.1 997.331 1464.49 959.646 1470.45C940.716 1473.26 918.982 1474.84 894.618 1474.84ZM733.012 1401.73C723.197 1410.32 719.516 1418.74 722.145 1426.45C728.104 1444.68 766.315 1459.76 819.424 1464.84C931.251 1475.54 1006.8 1463.97 1032.21 1432.41C1037.47 1425.75 1038.7 1418.91 1036.07 1411.9C1028.36 1392.62 991.196 1375.79 941.768 1369.13C889.36 1361.94 843.437 1362.29 805.051 1370C765.964 1377.89 744.23 1391.57 733.012 1401.73Z" fill="white"/>
<path d="M844.838 1451.87L847.292 1447.84C848.344 1446.44 845.89 1445.03 841.859 1444.51C832.218 1443.28 823.104 1441.53 816.619 1439.6C813.288 1438.72 812.587 1437.14 814.866 1435.92L816.443 1435.04C819.073 1433.46 824.857 1433.29 828.713 1434.34C836.425 1436.44 846.241 1438.2 857.283 1439.07C876.038 1440.48 887.431 1436.79 890.937 1431.36C894.267 1426.28 889.885 1422.95 872.006 1418.56C847.468 1412.78 823.63 1406.29 828.888 1398.05C833.621 1390.86 850.973 1384.55 882.348 1386.66C886.029 1386.83 889.359 1385.61 890.235 1384.38L893.04 1380C894.091 1378.42 898.649 1377.37 903.206 1377.72C907.588 1378.07 910.568 1379.64 909.516 1381.22L907.062 1384.9C906.186 1386.31 908.464 1387.88 912.496 1388.41C920.558 1389.29 926.868 1390.51 931.776 1391.74C935.282 1392.79 936.158 1394.37 933.704 1395.77L932.127 1396.47C929.498 1398.05 924.064 1398.23 920.208 1397.35C914.599 1395.95 906.711 1394.37 895.844 1393.49C875.337 1391.92 864.82 1395.6 862.366 1399.45C859.211 1404.36 873.233 1405.94 894.091 1411.2C918.806 1417.34 932.302 1424.35 929.147 1432.76C925.817 1442.05 906.711 1447.14 872.357 1446.26C868.501 1446.09 865.346 1447.31 864.469 1448.54L861.49 1453.27C860.438 1454.85 855.881 1455.9 851.324 1455.55L851.148 1455.38C846.591 1455.03 843.787 1453.45 844.838 1451.87Z" fill="white"/>
<path d="M1820.79 1664.34V1636.11L2206.92 1633.49L2206.4 1664.34H1820.79Z" fill="#FF9103"/>
<path d="M1835.86 1635.24C1871.09 1604.04 1951.19 1576.51 2089.14 1595.27C2178.88 1607.54 2225.85 1644.71 2199.91 1676.96C2168.36 1716.41 2076.69 1730.25 1941.55 1717.28C1848.65 1708.34 1792.04 1674.33 1835.86 1635.24Z" fill="#FF9103"/>
<path d="M1835.86 1608.07C1871.09 1576.86 1951.19 1549.34 2089.14 1568.1C2178.88 1580.37 2225.85 1617.53 2199.91 1649.79C2168.36 1689.23 2076.69 1703.08 1941.55 1690.11C1848.65 1681.17 1792.04 1647.16 1835.86 1608.07Z" fill="#FF9103"/>
<path fill-rule="evenodd" clip-rule="evenodd" d="M2030.07 1688.18C2006.58 1688.18 1980.64 1686.78 1952.77 1684.15C1895.1 1678.54 1855.14 1662.06 1848.3 1640.85C1845.85 1633.66 1846.2 1622.27 1861.1 1608.94C1879.85 1592.29 1938.92 1555.12 2078.79 1574.23C2132.43 1581.6 2170.99 1599.83 2179.93 1621.74C2183.44 1631.03 2181.86 1640.32 2175.02 1648.74C2161.18 1665.92 2134.71 1677.66 2096.32 1683.62C2076.87 1686.78 2054.78 1688.18 2030.07 1688.18ZM1865.13 1613.68C1855.32 1622.44 1851.46 1631.03 1854.09 1638.92C1860.22 1657.5 1899.14 1672.75 1953.3 1678.01C2067.23 1689.06 2144.35 1677.14 2170.29 1644.88C2175.55 1638.22 2176.95 1631.21 2174.15 1624.19C2166.26 1604.39 2128.57 1587.21 2077.92 1580.37C2024.63 1573.18 1977.83 1573.53 1938.57 1581.42C1898.78 1589.48 1876.7 1603.33 1865.13 1613.68Z" fill="white"/>
<path d="M1820.79 1633.14V1604.91L2206.92 1602.46L2206.4 1633.14H1820.79Z" fill="#FF9103"/>
<path d="M1835.86 1604.21C1871.09 1572.83 1951.19 1545.48 2089.14 1564.24C2178.88 1576.51 2225.85 1613.5 2199.91 1645.93C2168.36 1685.2 2076.69 1699.23 1941.55 1686.25C1848.65 1677.31 1792.04 1643.3 1835.86 1604.21Z" fill="#FF9103"/>
<path d="M1835.86 1577.04C1871.09 1545.66 1951.19 1518.14 2089.14 1537.07C2178.88 1549.16 2225.85 1586.33 2199.91 1618.76C2168.36 1658.03 2076.69 1672.05 1941.55 1659.08C1848.65 1650.14 1792.04 1616.13 1835.86 1577.04Z" fill="#FF9103"/>
<path fill-rule="evenodd" clip-rule="evenodd" d="M2030.07 1657.15C2006.58 1657.15 1980.64 1655.75 1952.77 1653.12C1895.1 1647.51 1855.14 1630.86 1848.3 1609.64C1845.85 1602.46 1846.2 1591.06 1861.1 1577.91C1879.85 1561.09 1938.92 1524.1 2078.79 1543.2C2132.43 1550.39 2170.99 1568.62 2179.93 1590.71C2183.44 1599.83 2181.86 1609.12 2175.02 1617.71C2161.18 1634.89 2134.71 1646.63 2096.32 1652.59C2076.87 1655.57 2054.78 1657.15 2030.07 1657.15ZM1865.13 1582.47C1855.32 1591.41 1851.46 1599.83 1854.09 1607.89C1860.22 1626.3 1899.14 1641.73 1953.3 1646.81C2067.23 1657.85 2144.35 1646.11 2170.29 1613.85C2175.55 1607.01 2176.95 1600 2174.15 1592.99C2166.26 1573.36 2128.57 1556.18 2077.92 1549.34C2024.63 1541.98 1977.83 1542.33 1938.57 1550.22C1898.78 1558.28 1876.7 1572.3 1865.13 1582.47Z" fill="white"/>
<path d="M1843.92 1590.19V1561.96L2230.06 1559.33L2229.53 1590.19H1843.92Z" fill="#FF9103"/>
<path d="M1859 1561.08C1894.23 1529.88 1974.33 1502.36 2112.27 1521.12C2202.01 1533.39 2248.99 1570.55 2223.05 1602.81C2191.5 1642.08 2099.83 1656.1 1964.69 1643.13C1871.79 1634.19 1815.18 1600.18 1859 1561.08Z" fill="#FF9103"/>
<path d="M1859 1533.91C1894.23 1502.71 1974.33 1475.19 2112.27 1493.94C2202.01 1506.21 2248.99 1543.38 2223.05 1575.63C2191.5 1614.9 2099.83 1628.93 1964.69 1615.95C1871.79 1607.01 1815.18 1573.01 1859 1533.91Z" fill="#FF9103"/>
<path fill-rule="evenodd" clip-rule="evenodd" d="M2053.2 1614.03C2029.72 1614.03 2003.78 1612.62 1975.91 1609.99C1918.42 1604.38 1878.28 1587.73 1871.44 1566.69C1868.99 1559.33 1869.34 1547.94 1884.24 1534.79C1902.99 1517.96 1962.06 1480.97 2101.93 1500.08C2155.57 1507.27 2194.13 1525.5 2203.07 1547.59C2206.57 1556.7 2204.99 1565.99 2198.16 1574.58C2184.31 1591.76 2157.84 1603.51 2119.46 1609.47C2100 1612.45 2077.92 1614.03 2053.2 1614.03ZM2029.19 1500.96C2004.83 1500.96 1982.22 1503.06 1961.71 1507.27C1921.92 1515.33 1899.84 1529.18 1888.27 1539.35C1878.45 1548.29 1874.6 1556.7 1877.23 1564.77C1883.36 1583.17 1922.27 1598.6 1976.43 1603.86C2090.36 1614.73 2167.48 1602.98 2193.43 1570.73C2198.68 1563.89 2200.09 1556.88 2197.28 1549.86C2189.4 1530.23 2151.71 1513.05 2101.05 1506.21C2075.64 1502.71 2051.63 1500.96 2029.19 1500.96Z" fill="white"/>
<path d="M1819.73 1541.28V1513.05L2205.87 1510.6L2205.35 1541.28H1819.73Z" fill="#FF9103"/>
<path d="M1834.98 1512.35C1870.04 1480.97 1950.14 1453.62 2088.09 1472.38C2177.83 1484.65 2224.8 1521.64 2198.86 1554.07C2167.31 1593.34 2075.64 1607.37 1940.68 1594.39C1847.78 1585.45 1790.99 1551.44 1834.98 1512.35Z" fill="#FF9103"/>
<path d="M1834.98 1485.18C1870.04 1453.8 1950.14 1426.28 2088.09 1445.21C2177.83 1457.31 2224.8 1494.47 2198.86 1526.9C2167.31 1566.17 2075.64 1580.19 1940.68 1567.22C1847.78 1558.28 1790.99 1524.27 1834.98 1485.18Z" fill="#FF9103"/>
<path fill-rule="evenodd" clip-rule="evenodd" d="M2029.02 1565.29C2005.53 1565.29 1979.76 1563.89 1951.72 1561.26C1894.23 1555.65 1854.26 1539 1847.25 1517.79C1844.97 1510.6 1845.15 1499.2 1860.05 1486.06C1878.98 1469.23 1938.05 1432.24 2077.92 1451.34C2131.38 1458.53 2170.11 1476.76 2178.88 1498.85C2182.56 1507.97 2180.81 1517.26 2174.15 1525.85C2160.3 1543.03 2133.83 1554.77 2095.27 1560.73C2075.99 1563.71 2053.73 1565.29 2029.02 1565.29ZM2005.18 1452.22C1980.64 1452.22 1958.03 1454.32 1937.7 1458.36C1897.91 1466.42 1875.65 1480.45 1864.25 1490.61C1854.26 1499.55 1850.58 1507.97 1853.21 1516.03C1859.17 1534.44 1898.08 1549.87 1952.42 1554.95C2066.35 1565.99 2143.3 1554.25 2169.24 1521.99C2174.67 1515.16 2175.9 1508.14 2173.09 1501.13C2165.38 1481.5 2127.52 1464.32 2077.04 1457.48C2051.63 1453.97 2027.61 1452.22 2005.18 1452.22Z" fill="white"/>
<path d="M1819.73 1510.25V1482.02L2205.87 1479.39L2205.35 1510.25H1819.73Z" fill="#FF9103"/>
<path d="M1834.98 1481.15C1870.04 1449.94 1950.14 1422.42 2088.09 1441.18C2177.83 1453.45 2224.8 1490.61 2198.86 1523.04C2167.31 1562.31 2075.64 1576.34 1940.68 1563.19C1847.78 1554.25 1790.99 1520.24 1834.98 1481.15Z" fill="#FF9103"/>
<path d="M1834.98 1453.97C1870.04 1422.77 1950.14 1395.25 2088.09 1414C2177.83 1426.28 2224.8 1463.44 2198.86 1495.7C2167.31 1535.14 2075.64 1548.99 1940.68 1536.02C1847.78 1527.08 1790.99 1493.07 1834.98 1453.97Z" fill="#FF9103"/>
<path fill-rule="evenodd" clip-rule="evenodd" d="M2029.02 1534.09C2005.53 1534.09 1979.76 1532.86 1951.72 1530.06C1894.23 1524.62 1854.26 1507.97 1847.25 1486.76C1844.97 1479.57 1845.15 1468.17 1860.05 1454.85C1878.98 1438.2 1938.05 1401.03 2077.92 1420.14C2131.38 1427.5 2170.11 1445.73 2178.88 1467.82C2182.56 1476.94 2180.81 1486.23 2174.15 1494.64C2160.3 1511.82 2133.83 1523.74 2095.27 1529.53C2075.99 1532.69 2053.73 1534.09 2029.02 1534.09ZM2005.18 1421.02C1980.64 1421.02 1958.03 1423.12 1937.7 1427.33C1897.91 1435.39 1875.65 1449.24 1864.25 1459.58C1854.26 1468.35 1850.58 1476.94 1853.21 1484.83C1859.17 1503.41 1898.08 1518.66 1952.42 1523.92C2066.35 1534.96 2143.3 1523.22 2169.24 1490.79C2174.67 1484.13 2175.9 1477.11 2173.09 1470.1C2165.38 1450.29 2127.52 1433.11 2077.04 1426.28C2051.63 1422.77 2027.61 1421.02 2005.18 1421.02Z" fill="white"/>
<path d="M1819.73 1467.12V1438.9L2205.87 1436.27L2205.35 1467.12H1819.73Z" fill="#FF9103"/>
<path d="M1834.98 1438.2C1870.04 1406.82 1950.14 1379.29 2088.09 1398.05C2177.83 1410.32 2224.8 1447.49 2198.86 1479.92C2167.31 1519.19 2075.64 1533.21 1940.68 1520.06C1847.78 1511.12 1790.99 1477.29 1834.98 1438.2Z" fill="#FF9103"/>
<path d="M1834.98 1410.85C1870.04 1379.65 1950.14 1352.12 2088.09 1370.88C2177.83 1383.15 2224.8 1420.32 2198.86 1452.75C2167.31 1492.02 2075.64 1506.04 1940.68 1492.89C1847.78 1483.95 1790.99 1449.94 1834.98 1410.85Z" fill="#FF9103"/>
<path fill-rule="evenodd" clip-rule="evenodd" d="M2029.02 1490.96C2005.53 1490.96 1979.76 1489.74 1951.72 1486.93C1894.23 1481.5 1854.26 1464.84 1847.25 1443.63C1844.97 1436.44 1845.15 1425.05 1860.05 1411.9C1878.98 1395.07 1938.05 1358.08 2077.92 1377.02C2131.38 1384.38 2170.11 1402.61 2178.88 1424.7C2182.56 1433.81 2180.81 1443.11 2174.15 1451.52C2160.3 1468.87 2133.83 1480.62 2095.27 1486.58C2075.99 1489.56 2053.73 1490.96 2029.02 1490.96ZM2005.18 1378.07C1980.64 1378.07 1958.03 1380 1937.7 1384.2C1897.91 1392.27 1875.65 1406.12 1864.25 1416.46C1854.26 1425.22 1850.58 1433.81 1853.21 1441.7C1859.17 1460.29 1898.08 1475.54 1952.42 1480.8C2066.35 1491.84 2143.3 1480.09 2169.24 1447.66C2174.67 1441 2175.9 1433.99 2173.09 1426.98C2165.38 1407.34 2127.52 1390.16 2077.04 1383.15C2051.63 1379.82 2027.61 1378.07 2005.18 1378.07Z" fill="white"/>
<path d="M1824.29 1414.35V1386.13L2210.43 1383.5L2209.9 1414.35H1824.29Z" fill="#FF9103"/>
<path d="M1839.54 1385.26C1874.6 1354.05 1954.7 1326.53 2092.64 1345.29C2182.38 1357.56 2229.36 1394.72 2203.42 1426.98C2171.87 1466.42 2080.2 1480.27 1945.23 1467.3C1852.34 1458.36 1795.55 1424.35 1839.54 1385.26Z" fill="#FF9103"/>
<path d="M1839.54 1358.08C1874.6 1326.88 1954.7 1299.36 2092.64 1318.11C2182.38 1330.38 2229.36 1367.55 2203.42 1399.81C2171.87 1439.07 2080.2 1453.1 1945.23 1440.13C1852.34 1431.18 1795.55 1397.18 1839.54 1358.08Z" fill="#FF9103"/>
<path fill-rule="evenodd" clip-rule="evenodd" d="M2033.57 1438.2C2010.09 1438.2 1984.32 1436.79 1956.28 1434.16C1898.78 1428.56 1858.82 1412.08 1851.81 1390.86C1849.53 1383.68 1849.88 1372.28 1864.61 1358.96C1883.54 1342.13 1942.6 1305.14 2082.48 1324.25C2135.94 1331.61 2174.67 1349.67 2183.44 1371.76C2187.12 1380.87 2185.54 1390.34 2178.7 1398.75C2164.86 1415.93 2138.39 1427.68 2100 1433.64C2080.55 1436.62 2058.46 1438.2 2033.57 1438.2ZM1868.81 1363.69C1858.82 1372.46 1855.14 1380.87 1857.77 1388.94C1863.73 1407.34 1902.64 1422.77 1956.98 1428.03C2070.91 1438.9 2147.85 1427.15 2173.8 1394.9C2179.23 1388.06 2180.63 1381.22 2177.65 1374.04C2169.94 1354.4 2132.08 1337.22 2081.6 1330.38C2028.31 1323.02 1981.34 1323.37 1942.25 1331.44C1902.47 1339.5 1880.2 1353.35 1868.81 1363.69Z" fill="white"/>
<path d="M1982.74 1414.88L1985.37 1410.85C1986.42 1409.27 1983.97 1407.69 1979.76 1407.34C1969.95 1406.12 1960.66 1404.36 1954 1402.43C1950.67 1401.38 1949.97 1399.8 1952.24 1398.58L1953.82 1397.7C1956.45 1396.12 1962.41 1395.77 1966.44 1396.82C1974.15 1399.1 1984.14 1400.86 1995.54 1401.73C2014.64 1403.31 2026.21 1399.45 2029.72 1394.02C2033.22 1388.59 2028.67 1385.43 2010.61 1380.87C1985.55 1374.91 1961.18 1368.25 1966.62 1359.84C1971.35 1352.65 1989.05 1346.16 2021.13 1348.27C2024.98 1348.62 2028.31 1347.39 2029.19 1345.99L2032 1341.43C2033.05 1339.85 2037.6 1338.8 2042.34 1339.15C2046.89 1339.5 2049.87 1341.25 2048.82 1342.83L2046.37 1346.51C2045.49 1348.09 2047.77 1349.49 2051.8 1350.02C2060.04 1351.07 2066.35 1352.3 2071.43 1353.52C2074.94 1354.58 2075.81 1356.33 2073.36 1357.56L2071.96 1358.43C2069.15 1359.84 2063.55 1360.19 2059.69 1359.13C2054.08 1357.73 2046.02 1356.15 2034.8 1355.28C2013.94 1353.7 2003.25 1357.56 2000.8 1361.41C1997.64 1366.32 2011.84 1368.07 2033.05 1373.33C2058.29 1379.64 2072.13 1386.66 2068.8 1395.42C2065.47 1404.71 2045.84 1409.97 2010.96 1409.1C2007.11 1408.92 2003.78 1410.15 2002.9 1411.37L1999.74 1416.28C1998.69 1417.86 1994.14 1418.91 1989.58 1418.39H1989.23C1984.67 1418.04 1981.69 1416.46 1982.74 1414.88Z" fill="white"/>
<path d="M1828.5 1365.45V1337.22L2214.64 1334.59L2214.11 1365.45H1828.5Z" fill="#FF9103"/>
<path d="M1843.75 1336.35C1878.8 1305.14 1958.91 1277.62 2096.85 1296.38C2186.77 1308.65 2233.57 1345.81 2207.62 1378.07C2176.25 1417.34 2084.4 1431.36 1949.44 1418.39C1856.54 1409.45 1799.75 1375.44 1843.75 1336.35Z" fill="#FF9103"/>
<path d="M1843.75 1309.17C1878.8 1277.97 1958.91 1250.45 2096.85 1269.2C2186.77 1281.48 2233.57 1318.64 2207.62 1350.9C2176.25 1390.16 2084.4 1404.19 1949.44 1391.22C1856.54 1382.28 1799.75 1348.27 1843.75 1309.17Z" fill="#FF9103"/>
<path fill-rule="evenodd" clip-rule="evenodd" d="M2037.78 1389.29C2014.29 1389.29 1988.53 1387.88 1960.48 1385.25C1902.99 1379.65 1863.03 1362.99 1856.02 1341.95C1853.74 1334.59 1854.09 1323.2 1868.81 1310.05C1887.74 1293.22 1946.81 1256.23 2086.68 1275.34C2140.14 1282.53 2178.88 1300.76 2187.64 1322.85C2191.32 1331.96 2189.74 1341.25 2182.91 1349.84C2169.06 1367.02 2142.6 1378.77 2104.21 1384.73C2084.75 1387.71 2062.67 1389.29 2037.78 1389.29ZM2013.94 1276.22C1989.4 1276.22 1966.79 1278.32 1946.46 1282.53C1906.67 1290.41 1884.59 1304.44 1873.02 1314.61C1863.03 1323.55 1859.35 1331.96 1861.98 1340.03C1867.94 1358.43 1906.85 1373.86 1961.18 1379.12C2075.11 1389.99 2152.06 1378.24 2178 1345.99C2183.44 1339.15 2184.84 1332.14 2181.86 1325.13C2174.15 1305.49 2136.29 1288.31 2085.81 1281.47C2060.39 1277.97 2036.38 1276.22 2013.94 1276.22Z" fill="white"/>
<path d="M1986.95 1365.97L1989.58 1361.76C1990.63 1360.36 1988.18 1358.78 1983.97 1358.43C1974.15 1357.21 1964.86 1355.45 1958.2 1353.52C1954.87 1352.47 1954.17 1350.9 1956.45 1349.67L1958.03 1348.79C1960.83 1347.21 1966.62 1346.86 1970.65 1347.92C1978.36 1350.19 1988.35 1351.95 1999.74 1352.82C2018.85 1354.4 2030.42 1350.54 2033.92 1345.11C2037.43 1339.68 2032.87 1336.52 2014.82 1331.96C1989.75 1326 1965.39 1319.34 1970.82 1310.93C1975.56 1303.74 1993.26 1297.25 2025.33 1299.36C2029.19 1299.71 2032.52 1298.48 2033.4 1297.08L2036.2 1292.52C2037.25 1290.94 2041.81 1289.89 2046.54 1290.24C2051.1 1290.59 2054.08 1292.17 2053.03 1293.92L2050.57 1297.6C2049.7 1299.18 2051.98 1300.58 2056.01 1301.11C2064.25 1302.16 2070.56 1303.39 2075.64 1304.62C2079.15 1305.67 2080.02 1307.42 2077.57 1308.65L2076.17 1309.52C2073.36 1310.93 2067.75 1311.28 2063.9 1310.22C2058.29 1308.82 2050.22 1307.24 2039.01 1306.37C2018.15 1304.79 2007.46 1308.65 2005 1312.5C2001.85 1317.41 2016.05 1319.17 2037.25 1324.42C2062.49 1330.56 2076.34 1337.75 2073.01 1346.51C2069.68 1355.8 2050.05 1361.06 2015.17 1360.19C2011.31 1360.01 2007.98 1361.24 2007.11 1362.47L2003.95 1367.37C2002.9 1368.95 1998.34 1369.83 1993.78 1369.48H1993.43C1988.88 1369.13 1985.9 1367.55 1986.95 1365.97Z" fill="white"/>
<path d="M1918.06 1303.91V1275.69L2304.2 1273.06L2303.68 1303.91H1918.06Z" fill="#FF9103"/>
<path d="M1933.14 1274.81C1968.37 1243.61 2048.47 1216.09 2186.41 1234.84C2276.16 1247.12 2323.13 1284.28 2297.19 1316.71C2265.64 1355.98 2173.97 1370 2039.01 1356.86C1945.93 1347.92 1889.32 1313.91 1933.14 1274.81Z" fill="#FF9103"/>
<path d="M1933.14 1247.64C1968.37 1216.44 2048.47 1188.91 2186.41 1207.67C2276.16 1219.94 2323.13 1257.11 2297.19 1289.54C2265.64 1328.81 2173.97 1342.66 2039.01 1329.68C1945.93 1320.74 1889.32 1286.73 1933.14 1247.64Z" fill="#FF9103"/>
<path fill-rule="evenodd" clip-rule="evenodd" d="M2127.35 1327.75C2103.86 1327.75 2078.09 1326.53 2050.05 1323.72C1992.56 1318.29 1952.42 1301.63 1945.58 1280.42C1943.13 1273.24 1943.48 1261.84 1958.38 1248.69C1977.31 1231.86 2036.2 1194.87 2176.07 1213.81C2229.71 1221.17 2268.45 1239.4 2277.21 1261.49C2280.89 1270.61 2279.14 1279.9 2272.3 1288.31C2258.63 1305.67 2231.99 1317.41 2193.6 1323.37C2174.32 1326.35 2152.06 1327.75 2127.35 1327.75ZM2103.33 1214.86C2078.97 1214.86 2056.36 1216.79 2035.85 1220.99C1996.06 1229.06 1973.98 1242.91 1962.41 1253.25C1952.6 1262.02 1948.91 1270.61 1951.37 1278.49C1957.5 1297.08 1996.41 1312.33 2050.58 1317.59C2164.51 1328.63 2241.63 1316.89 2267.57 1284.45C2273 1277.79 2274.23 1270.78 2271.43 1263.77C2263.54 1243.96 2225.85 1226.78 2175.37 1219.94C2149.78 1216.44 2125.77 1214.86 2103.33 1214.86Z" fill="white"/>
<path d="M1858.12 1263.42V1235.19L2244.08 1232.56L2243.56 1263.42H1858.12Z" fill="#FF9103"/>
<path d="M1873.19 1234.32C1908.25 1203.11 1988.53 1175.59 2126.29 1194.35C2216.21 1206.62 2263.01 1243.78 2237.07 1276.04C2205.7 1315.48 2114.03 1329.33 1978.89 1316.36C1885.99 1307.42 1829.2 1273.41 1873.19 1234.32Z" fill="#FF9103"/>
<path d="M1873.19 1207.15C1908.25 1175.94 1988.53 1148.42 2126.29 1167.18C2216.21 1179.45 2263.01 1216.61 2237.07 1248.87C2205.7 1288.31 2114.03 1302.16 1978.89 1289.19C1885.99 1280.25 1829.2 1246.24 1873.19 1207.15Z" fill="#FF9103"/>
<path fill-rule="evenodd" clip-rule="evenodd" d="M2067.23 1287.26C2043.74 1287.26 2017.97 1285.86 1989.93 1283.23C1932.44 1277.62 1892.47 1261.14 1885.46 1239.93C1883.18 1232.74 1883.54 1221.34 1898.26 1208.02C1917.19 1191.19 1976.26 1154.2 2116.13 1173.31C2169.59 1180.67 2208.32 1198.91 2217.09 1220.82C2220.77 1229.93 2219.19 1239.4 2212.36 1247.82C2198.51 1265 2172.04 1276.74 2133.66 1282.7C2114.2 1285.68 2092.12 1287.26 2067.23 1287.26ZM2043.39 1174.19C2018.85 1174.19 1996.41 1176.29 1975.91 1180.5C1936.12 1188.56 1914.03 1202.41 1902.47 1212.76C1892.47 1221.52 1888.79 1230.11 1891.42 1238C1897.56 1256.58 1936.47 1271.83 1990.63 1277.09C2104.56 1287.96 2181.68 1276.22 2207.45 1243.96C2212.88 1237.12 2214.28 1230.29 2211.48 1223.1C2203.59 1203.46 2165.91 1186.28 2115.25 1179.45C2089.84 1175.94 2065.82 1174.19 2043.39 1174.19Z" fill="white"/>
<path d="M2016.4 1263.94L2019.02 1259.91C2020.08 1258.33 2017.62 1256.93 2013.42 1256.41C2003.6 1255.18 1994.49 1253.43 1987.65 1251.5C1984.49 1250.45 1983.79 1248.87 1985.9 1247.64L1987.47 1246.76C1990.28 1245.19 1996.06 1244.84 2000.09 1245.89C2007.98 1248.17 2017.97 1249.92 2029.19 1250.8C2048.3 1252.37 2059.86 1248.52 2063.55 1243.08C2066.88 1237.65 2062.32 1234.49 2044.26 1229.93C2019.2 1223.97 1994.84 1217.49 2000.27 1209.07C2005 1201.71 2022.71 1195.22 2054.78 1197.33C2058.64 1197.68 2061.97 1196.45 2062.84 1195.05L2065.65 1190.49C2066.7 1188.91 2071.43 1187.86 2075.99 1188.39C2080.55 1188.74 2083.53 1190.32 2082.48 1191.89L2080.02 1195.58C2079.14 1197.15 2081.42 1198.56 2085.45 1199.08C2093.69 1200.13 2100 1201.36 2105.09 1202.59C2108.77 1203.64 2109.47 1205.39 2107.19 1206.62L2105.61 1207.5C2102.98 1208.9 2097.37 1209.25 2093.34 1208.2C2087.73 1206.79 2079.67 1205.22 2068.45 1204.34C2047.6 1202.76 2036.9 1206.62 2034.45 1210.48C2031.29 1215.56 2045.49 1217.14 2066.7 1222.4C2091.94 1228.71 2105.79 1235.72 2102.63 1244.49C2099.13 1253.78 2079.5 1259.04 2044.62 1258.16C2040.76 1257.98 2037.43 1259.21 2036.55 1260.44L2033.4 1265.35C2032.35 1266.92 2027.79 1267.98 2023.23 1267.63L2022.88 1267.45C2018.32 1267.1 2015.34 1265.52 2016.4 1263.94Z" fill="white"/>
<path d="M1984.67 1587.03C1984.67 1497.1 2024.63 1401.21 2153.81 1401.21C2237.95 1401.21 2309.99 1477.99 2318.4 1567.4C2328.74 1676.26 2267.04 1742.35 2145.4 1755.85C2061.79 1764.96 1984.67 1699.58 1984.67 1587.03Z" fill="#FF9103"/>
<path fill-rule="evenodd" clip-rule="evenodd" d="M2132.96 1734.81C2103.16 1734.81 2074.94 1724.12 2052.33 1703.96C2021.83 1676.43 2005 1634.54 2005 1585.8C2005 1554.77 2010.44 1510.6 2036.73 1475.36C2062.32 1440.65 2101.76 1422.94 2153.64 1422.94C2225.68 1422.94 2290.71 1488.33 2298.24 1568.8C2307.18 1663.46 2253.55 1722.19 2146.98 1734.11C2142.3 1734.58 2137.63 1734.81 2132.96 1734.81ZM2153.64 1432.41C2111.75 1432.41 2014.47 1447.49 2014.47 1585.8C2014.47 1631.91 2030.24 1671.18 2058.64 1696.77C2082.65 1718.33 2113.67 1728.15 2145.93 1724.64C2196.23 1719.03 2234.27 1702.91 2258.63 1676.43C2282.82 1650.14 2292.98 1614.2 2288.78 1569.67C2281.77 1493.94 2220.94 1432.41 2153.64 1432.41Z" fill="white"/>
<path d="M2152.94 1680.12L2151.36 1668.9C2150.66 1664.87 2147.33 1661.89 2143.47 1662.06C2134.36 1662.59 2125.42 1661.18 2118.06 1658.55C2114.55 1657.33 2112.45 1653.47 2113.15 1649.61L2113.68 1646.81C2114.38 1642.08 2118.93 1639.27 2123.14 1640.67C2131.55 1643.48 2141.37 1644.71 2151.19 1642.95C2168.19 1640.32 2174.15 1626.82 2172.04 1611.92C2169.94 1597.37 2163.28 1590.89 2144.52 1585.8C2118.58 1579.32 2092.82 1571.25 2089.66 1548.46C2086.68 1528.48 2095.27 1506.57 2123.32 1500.96C2126.65 1500.25 2128.22 1496.05 2127.7 1492.37L2125.94 1480.09C2125.24 1475.71 2128.05 1471.68 2132.25 1470.98C2136.29 1470.28 2140.14 1473.43 2140.67 1477.64L2142.25 1487.98C2142.77 1492.02 2146.1 1494.82 2149.78 1494.64C2157.32 1494.47 2163.63 1495.35 2168.89 1496.92C2172.74 1497.98 2175.02 1502.18 2174.32 1506.22L2173.8 1508.84C2172.92 1513.4 2168.71 1516.03 2164.51 1514.98C2158.55 1513.23 2150.66 1512 2140.67 1513.75C2122.44 1516.73 2117.18 1529.88 2118.76 1540.4C2120.69 1554.07 2133.66 1553.2 2155.74 1559.33C2181.86 1566.34 2199.74 1579.32 2205 1602.11C2210.78 1626.65 2199.56 1646.28 2170.47 1655.92C2167.14 1657.15 2165.56 1661.01 2166.08 1664.51L2167.84 1677.66C2168.54 1682.05 2165.73 1686.08 2161.7 1686.78H2161.35C2157.32 1687.48 2153.46 1684.5 2152.94 1680.12Z" fill="white"/>
<path d="M2187.82 139.191C2219.37 76.4325 2280.89 23.8411 2371.16 70.4721C2430.05 100.8 2453.36 180.388 2427.95 246.127C2396.92 325.891 2330.67 349.732 2240.93 315.197C2179.23 291.531 2148.38 217.903 2187.82 139.191Z" fill="#FF9103"/>
<path fill-rule="evenodd" clip-rule="evenodd" d="M2313.49 313.97C2294.21 313.97 2272.83 309.412 2249.69 300.646C2223.75 290.654 2204.12 271.02 2194.13 245.25C2182.38 215.098 2185.36 179.686 2202.37 145.853C2220.59 109.565 2246.89 84.1456 2276.33 74.6792C2303.15 65.914 2332.42 69.5954 2363.45 85.5481C2413.75 111.668 2436.19 180.738 2413.4 239.641C2394.47 288.726 2359.77 313.97 2313.49 313.97ZM2209.03 149.184C2192.9 181.264 2190.1 214.397 2200.96 242.445C2210.25 266.287 2228.48 284.518 2252.32 293.634C2289.48 308.009 2321.73 310.288 2347.85 300.646C2374.14 291.005 2393.77 269.618 2406.56 237.011C2427.95 181.439 2407.09 116.577 2359.94 92.2096C2330.84 77.1334 2303.5 73.6274 2278.61 81.6914C2263.89 86.4246 2250.22 95.1897 2237.95 107.812C2226.9 119.031 2217.26 132.88 2209.03 149.184Z" fill="white"/>
<path d="M2272.83 265.06L2275.63 256.645C2276.51 253.49 2275.28 250.334 2272.48 249.107C2265.99 246.127 2260.21 241.92 2256 237.537C2253.9 235.258 2253.9 231.928 2255.65 229.298L2256.88 227.72C2259.16 224.565 2263.36 224.214 2265.82 226.844C2270.72 231.752 2277.03 236.135 2284.57 238.589C2297.37 242.621 2306.3 235.434 2309.99 224.214C2313.67 213.345 2311.39 206.333 2299.99 196.165C2284.22 182.316 2268.97 167.24 2274.76 150.06C2279.66 135.16 2293.33 122.888 2314.89 129.199C2317.35 129.9 2319.98 127.446 2321.03 124.817L2324.01 115.525C2325.06 112.195 2328.57 110.442 2331.54 111.493C2334.7 112.37 2336.28 115.876 2335.23 119.207L2332.6 126.92C2331.72 129.9 2332.95 133.056 2335.58 134.283C2341.01 136.913 2345.04 139.893 2348.2 142.873C2350.47 144.976 2350.65 148.658 2348.55 151.288L2347.32 152.865C2345.22 155.67 2341.19 156.021 2338.73 153.742C2335.23 150.411 2330.14 146.73 2322.61 144.275C2308.76 139.893 2300.52 147.08 2297.89 154.969C2294.39 165.312 2303.85 169.519 2317.17 181.615C2332.95 195.99 2340.83 211.417 2336.45 229.473C2331.9 248.581 2317.35 258.223 2293.51 254.542C2290.88 254.191 2288.25 256.295 2287.38 258.924L2284.04 268.741C2282.99 272.072 2279.66 273.825 2276.51 272.773H2276.33C2273.35 271.722 2271.6 268.215 2272.83 265.06Z" fill="white"/>
<path d="M2441.27 559.22C2441.27 473.321 2479.48 381.812 2602.87 381.812C2683.15 381.812 2751.86 455.09 2759.92 540.463C2769.74 644.418 2710.85 707.353 2594.81 720.15C2514.88 729.09 2441.27 666.507 2441.27 559.22Z" fill="#FF9103"/>
<path fill-rule="evenodd" clip-rule="evenodd" d="M2582.89 700.165C2554.5 700.165 2527.51 689.998 2505.95 670.714C2476.85 644.594 2460.72 604.449 2460.72 557.994C2460.72 528.367 2465.98 486.119 2491.05 452.46C2515.59 419.503 2553.1 402.674 2602.52 402.674C2671.41 402.674 2733.46 465.082 2740.64 541.69C2749.23 632.147 2697.88 688.245 2596.21 699.464C2591.77 699.932 2587.33 700.165 2582.89 700.165ZM2602.52 411.614C2562.56 411.614 2469.84 425.989 2469.84 557.994C2469.84 601.82 2484.74 639.51 2512.08 663.877C2534.87 684.388 2564.49 693.854 2595.16 690.524C2643.36 685.089 2679.47 669.662 2702.78 644.419C2725.92 619.35 2735.74 584.99 2731.7 542.567C2724.87 470.341 2666.85 411.614 2602.52 411.614Z" fill="white"/>
<path d="M2601.82 647.925L2600.42 637.231C2599.72 633.375 2596.56 630.57 2592.88 630.745C2584.3 631.271 2575.53 629.869 2568.7 627.414C2565.37 626.187 2563.26 622.506 2563.96 618.824L2564.49 616.195C2565.19 611.812 2569.57 609.007 2573.6 610.41C2581.49 613.039 2590.78 614.091 2600.25 612.513C2616.55 609.884 2622.16 597.087 2620.05 582.887C2618.12 569.038 2611.81 562.727 2593.94 557.994C2569.22 551.858 2544.68 543.969 2541.53 522.232C2538.72 503.299 2546.96 482.262 2573.6 477.003C2576.76 476.302 2578.34 472.27 2577.81 468.764L2576.23 457.194C2575.53 452.986 2578.16 449.13 2582.19 448.429C2586.05 447.727 2589.73 450.707 2590.25 454.915L2591.66 464.556C2592.18 468.413 2595.34 471.218 2599.02 471.043C2606.2 470.692 2612.16 471.744 2617.25 473.146C2620.75 474.198 2623.03 478.23 2622.33 482.087L2621.8 484.541C2620.93 488.924 2616.9 491.378 2612.87 490.326C2607.43 488.749 2599.72 487.521 2590.25 489.099C2572.73 492.079 2567.82 504.701 2569.22 514.694C2571.15 527.666 2583.59 526.965 2604.63 532.75C2629.69 539.411 2646.52 551.683 2651.6 573.596C2657.21 596.911 2646.52 615.669 2618.65 624.96C2615.49 626.012 2613.92 629.693 2614.44 633.199L2616.2 645.646C2616.9 649.678 2614.09 653.71 2610.24 654.236L2610.06 654.411C2606.2 654.937 2602.52 652.132 2601.82 647.925Z" fill="white"/>
<path d="M1060.26 1503.94C1009.78 1569.32 900.051 1745.15 939.84 1805.46C979.628 1865.76 1219.58 1852.27 1258.85 1830C1298.11 1807.56 1199.6 1528.13 1167.53 1492.89C1135.45 1457.66 1095.31 1458.36 1060.26 1503.94Z" fill="black"/>
<path d="M1072.52 1736.74L1074.63 1726.92C1075.5 1723.42 1073.58 1719.91 1070.42 1718.68C1062.88 1715.88 1055.87 1711.67 1050.62 1707.11C1048.16 1704.83 1047.64 1700.98 1049.39 1698L1050.62 1695.89C1052.72 1692.39 1057.28 1691.51 1060.26 1694.14C1066.21 1699.4 1073.93 1703.78 1082.52 1705.89C1097.24 1709.39 1106.18 1700.45 1108.98 1687.48C1111.61 1675.03 1108.11 1667.32 1094.26 1656.8C1075.15 1642.43 1056.57 1626.82 1060.78 1607.02C1064.46 1589.84 1078.13 1574.76 1102.67 1580.02C1105.65 1580.54 1108.28 1577.56 1108.98 1574.58L1111.26 1563.89C1111.96 1560.03 1115.47 1557.75 1119.15 1558.63C1122.65 1559.51 1124.76 1563.19 1124.06 1567.05L1122.13 1575.99C1121.43 1579.32 1123.18 1582.82 1126.34 1584.05C1132.65 1586.5 1137.38 1589.48 1141.23 1592.64C1144.04 1594.74 1144.74 1598.95 1142.81 1601.93L1141.58 1604.03C1139.48 1607.37 1135.27 1608.07 1132.12 1605.61C1127.91 1602.28 1121.78 1598.6 1113.19 1596.5C1097.24 1592.46 1089 1601.58 1087.07 1610.7C1084.44 1622.44 1095.31 1626.3 1111.61 1638.92C1130.89 1653.82 1141.41 1670.48 1138.78 1691.16C1136.15 1713.07 1121.08 1725.17 1094.26 1723.07C1091.28 1722.89 1088.65 1725.52 1088.12 1728.5L1085.67 1739.9C1084.79 1743.58 1081.29 1746.03 1077.78 1745.15H1077.61C1073.93 1744.28 1071.82 1740.42 1072.52 1736.74Z" fill="white"/>
<path d="M1178.74 1405.94C1178.74 1405.94 1127.91 1413.3 1123.18 1445.56C1118.27 1477.82 1167.7 1452.22 1200.48 1460.81C1233.43 1469.4 1214.85 1443.81 1207.31 1426.8C1199.95 1409.8 1200.48 1403.66 1178.74 1405.94Z" fill="black"/>
<path d="M1623.07 1656.63C1623.07 1656.63 1621.67 1688.53 1600.11 1696.95C1578.73 1705.54 1517.03 1712.37 1539.64 1733.23C1552.61 1745.33 1615.01 1739.02 1632.54 1739.37C1650.06 1739.72 1666.37 1747.78 1679.69 1736.21C1694.23 1723.42 1681.26 1657.85 1681.26 1657.85C1681.26 1657.85 1665.84 1665.57 1652.34 1664.87C1632.71 1663.99 1623.07 1656.63 1623.07 1656.63Z" fill="#333333"/>
<path d="M1435.88 1638.39C1435.88 1638.39 1434.12 1670.12 1412.56 1678.54C1391.18 1686.78 1329.31 1692.91 1351.74 1714.13C1364.54 1726.22 1426.94 1720.61 1444.46 1721.31C1461.99 1721.84 1478.29 1730.08 1491.61 1718.51C1506.34 1705.89 1494.07 1640.15 1494.07 1640.15C1494.07 1640.15 1478.64 1647.69 1464.97 1646.98C1445.52 1645.76 1435.88 1638.39 1435.88 1638.39Z" fill="#333333"/>
<path d="M1450.25 1664.69C1413.97 1660.48 1387.32 1628.05 1389.78 1591.24C1403.97 1382.45 1423.08 1277.44 1492.67 1190.49C1537.19 1134.57 1602.39 1081.63 1680.56 1052.53C1748.05 1027.63 1804.84 1017.12 1878.45 1019.22C1998.69 1022.55 2053.55 1045.52 2053.55 1045.52C2127.17 1242.73 1984.5 1255.53 1880.03 1251.67C1876.52 1251.56 1873.08 1251.44 1869.69 1251.32C1806.24 1249.74 1693.01 1256.23 1645.16 1316.01C1607.47 1363.34 1578.2 1431.89 1552.79 1613.15C1548.05 1647.86 1516.85 1672.4 1482.5 1668.37L1450.25 1664.69Z" fill="#24555E"/>
<path d="M1622.55 1690.63C1586.26 1686.43 1559.62 1654 1562.25 1617.18C1576.27 1408.39 1595.38 1303.39 1664.96 1216.44C1709.48 1160.51 1772.94 1120.9 1853.21 1098.81C1910.53 1083.03 1976.96 1076.02 2050.75 1077.95C2170.82 1081.45 2225.85 1071.46 2225.85 1071.46C2301.92 1322.32 1952.42 1239.93 1851.46 1335.12C1807.46 1376.66 1750.5 1457.83 1725.26 1639.1C1720.35 1673.81 1689.15 1698.35 1654.8 1694.32L1622.55 1690.63Z" fill="#24555E"/>
<path d="M1860.05 717.17C1850.58 729.617 1758.04 836.553 1756.81 954.533L1843.22 936.827L1903.34 786.591L1860.05 717.17Z" fill="#FCBDB6"/>
<path d="M2194.13 717.871C2194.13 717.871 2157.32 618.824 2031.12 625.661C1904.92 632.498 1816.23 682.986 1798 1040.43C1798 1040.43 1972.05 1030.26 2171.17 1149.3C2204.64 1169.28 2257.05 1165.25 2259.15 1125.8C2263.54 1047.27 2247.59 897.383 2194.13 717.871Z" fill="#8BC0CC"/>
<path d="M2305.08 733.649L2194.13 769.236C2194.13 769.236 1964.51 796.408 1903.34 786.591C1842.17 776.599 1824.64 727.513 1824.64 727.513C1824.64 727.513 1888.62 652.133 1998.87 630.22C2009.15 628.233 2019.9 626.713 2031.12 625.662C2049.7 623.909 2067.75 622.156 2086.16 624.084C2265.64 643.192 2305.08 733.649 2305.08 733.649Z" fill="#8BC0CC"/>
<path d="M2305.08 733.648C2311.04 746.972 2285.1 759.593 2253.2 771.514C2221.3 783.61 2192.9 785.889 2189.75 776.949C2186.59 768.008 2209.73 751.004 2241.63 738.908C2273.53 726.987 2301.22 724.883 2305.08 733.648Z" fill="#333333"/>
<path d="M1989.4 1076.02C1967.84 1072.86 1950.84 1064.62 1938.05 1051.48C1914.03 1026.58 1913.86 992.573 1920.87 971.186L1949.09 959.791C1951.54 952.779 1997.82 987.138 1997.64 987.138C1997.82 987.138 2020.6 997.832 2108.94 967.504C2170.46 946.468 2205.52 908.777 2216.04 851.979C2223.75 809.38 2210.08 787.467 2207.27 776.247C2206.75 774.845 2214.81 756.262 2247.59 745.218C2283.17 733.298 2295.96 742.589 2295.96 742.589C2301.4 762.749 2312.09 808.679 2301.22 868.282C2289.83 930.165 2251.97 1012.21 2136.29 1051.65C2073.19 1073.39 2024.98 1081.45 1989.4 1076.02Z" fill="#FCBDB6"/>
<path d="M1969.95 1086.19L1738.41 1079.7C1733.5 1079.52 1729.29 1076.37 1727.89 1071.64L1683.72 924.38C1681.44 917.017 1687.05 909.479 1694.76 909.829L1917.54 915.965C1927.71 916.14 1936.47 922.977 1939.45 932.794L1981.17 1071.46C1983.27 1078.82 1977.66 1086.36 1969.95 1086.19Z" fill="#FF9103"/>
<path d="M1955.4 1085.66L1723.86 1079.35C1718.95 1079.17 1714.74 1075.84 1713.34 1071.28L1669.17 924.029C1666.89 916.666 1672.5 909.128 1680.21 909.304L1902.99 915.615C1913.16 915.79 1921.92 922.627 1924.9 932.444L1966.62 1071.11C1968.72 1078.47 1963.11 1085.84 1955.4 1085.66Z" fill="#FF9103"/>
<path d="M1795.55 992.223C1795.72 986.613 1802.03 984.51 1807.46 984.685C1813.07 984.86 1821.84 991.171 1821.66 998.884C1821.31 1007.3 1814.83 1008.18 1809.39 1008C1803.78 1007.82 1795.37 999.235 1795.55 992.223Z" fill="white"/>
<path d="M2041.11 1067.43L1724.21 1058.66L1723.68 1079.35L2047.24 1088.29C2050.93 1088.29 2054.26 1085.31 2054.26 1081.63V1081.28C2054.43 1073.91 2048.65 1067.6 2041.11 1067.43Z" fill="#FF9103"/>
<path d="M1941.55 990.469C1941.38 989.943 1931.21 946.468 1924.2 932.794C1917.36 919.296 1908.42 916.491 1908.42 916.491L1908.77 914.913C1909.12 915.088 1918.41 918.069 1925.6 932.093C1932.61 945.942 1942.6 988.19 1942.95 990.119L1941.55 990.469Z" fill="#1C3A3E"/>
<path d="M1973.8 1066.38C1965.21 1066.03 1963.11 1062.17 1963.11 1061.99L1946.46 1006.77L1947.86 1006.25L1964.51 1061.47C1964.51 1061.47 1966.27 1064.62 1973.8 1064.8V1066.38Z" fill="#1C3A3E"/>
<g opacity="0.3">
<path fill-rule="evenodd" clip-rule="evenodd" d="M2215.16 982.055C2213.23 982.055 2211.48 981.529 2210.25 980.478C2204.99 976.27 2206.75 965.577 2214.11 956.11C2218.84 949.975 2224.98 945.767 2230.23 945.241C2232.69 944.891 2234.79 945.417 2236.37 946.819C2241.45 951.026 2239.7 961.545 2232.51 971.011C2227.61 977.147 2221.47 981.354 2216.39 981.88C2215.92 981.997 2215.51 982.055 2215.16 982.055ZM2231.46 948.222C2231.11 948.222 2230.82 948.222 2230.58 948.222C2226.2 948.747 2220.77 952.604 2216.56 958.039C2210.43 965.927 2208.5 975.043 2212.18 978.023C2213.12 978.841 2214.4 979.134 2216.04 978.9C2220.24 978.374 2225.85 974.693 2230.06 969.083C2236.19 961.369 2238.12 952.078 2234.44 949.098C2233.62 948.514 2232.63 948.222 2231.46 948.222Z" fill="#F9A6A0"/>
</g>
<path d="M2053.73 608.306L2034.8 574.297L2029.37 564.48L1996.76 506.279L2007.63 568.862L2014.12 606.553L2016.22 618.474C2017.62 626.538 2013.24 629.342 2008.86 637.582C2007.11 640.912 1995.54 661.423 2014.47 665.28C2037.96 670.188 2074.94 646.697 2086.16 624.083C2085.98 624.083 2060.04 619.35 2053.73 608.306Z" fill="#FCBDB6"/>
<path d="M1942.6 493.657C1942.6 493.657 1942.08 509.61 1949.97 527.666C1958.03 545.898 1966.97 495.06 1966.97 495.06L1942.6 493.657Z" fill="#501506"/>
<path d="M1948.91 533.626C1945.76 495.936 1968.19 463.329 1999.04 460.7C2029.72 458.07 2057.24 486.469 2060.39 524.16C2063.55 561.85 2041.29 594.457 2010.44 597.086C1979.59 599.891 1952.07 571.492 1948.91 533.626Z" fill="#FCBDB6"/>
<path d="M2057.76 504.702L2030.59 507.682C2024.63 508.383 2018.67 506.455 2014.47 502.072C2007.11 494.709 1999.74 491.729 1975.21 498.215C1944.18 506.279 1919.47 491.904 1912.46 476.127C1905.45 459.824 1918.94 444.923 1936.29 449.481C1953.82 454.039 1942.78 435.807 1957.5 430.197C1984.85 420.03 1994.84 441.066 2017.8 435.106C2047.95 427.392 2107.19 438.787 2093.17 498.566L2057.76 504.702Z" fill="#501506"/>
<path d="M2001.15 526.79C2000.8 526.614 2000.62 526.264 2000.45 525.913C2000.27 525.387 2000.62 524.686 2001.32 524.511C2001.67 524.511 2009.56 521.18 2015.69 529.069C2016.04 529.595 2015.87 530.296 2015.52 530.646C2014.99 531.172 2014.29 530.997 2013.94 530.471C2009.03 526.614 2002.2 526.614 2001.85 526.79C2001.61 526.79 2001.38 526.79 2001.15 526.79Z" fill="#333333"/>
<path d="M2009.03 540.112C2009.03 542.917 2007.28 545.021 2005.35 544.845C2003.43 544.845 2001.85 542.391 2002.02 539.762C2002.2 536.957 2003.78 534.853 2005.88 535.028C2007.81 535.028 2009.21 537.307 2009.03 540.112Z" fill="#333333"/>
<path d="M1959.43 532.574C1959.2 532.574 1958.96 532.399 1958.73 532.048C1958.38 531.522 1958.55 530.821 1958.9 530.47C1959.08 530.295 1963.64 524.159 1970.47 529.243C1970.82 529.594 1971 530.295 1970.82 530.821C1970.65 531.347 1970.12 531.522 1969.6 531.172C1964.86 529.418 1960.13 532.048 1959.96 532.223C1959.84 532.457 1959.66 532.574 1959.43 532.574Z" fill="#333333"/>
<path d="M1972.05 541.866C1972.93 544.32 1972.23 546.949 1970.3 547.651C1968.54 548.352 1966.27 546.774 1965.39 544.144C1964.51 541.515 1965.21 538.885 1967.14 538.359C1968.89 537.658 1971.17 539.236 1972.05 541.866Z" fill="#333333"/>
<path d="M2093.17 498.565C2093.17 498.565 2083.53 542.742 2058.29 551.332C2058.29 551.332 2072.66 516.271 2024.46 507.506C2024.46 507.506 2063.54 491.904 2093.17 498.565Z" fill="#501506"/>
<path d="M2061.44 528.893C2056.54 533.626 2049.35 533.977 2045.14 529.769C2040.76 525.387 2041.29 518.024 2046.02 513.115C2050.75 508.382 2058.11 508.032 2062.32 512.239C2066.53 516.621 2066.18 523.984 2061.44 528.893Z" fill="#FCBDB6"/>
<path d="M2024.46 507.505C2024.46 507.505 2035.15 540.287 2029.89 548.176C2024.46 555.889 1980.46 568.511 1958.03 565.005C1962.41 586.743 1981.34 602.345 2003.07 601.293C2010.44 600.943 2017.45 599.365 2024.46 596.56C2038.31 590.775 2051.1 581.484 2054.26 566.408C2055.13 561.85 2044.26 537.482 2044.26 537.482C2044.26 537.482 2039.18 522.932 2046.02 513.115C2046.02 513.115 2034.1 506.278 2024.46 507.505Z" fill="#501506"/>
<path d="M1971.52 574.647C1971.52 574.647 1989.58 575.699 2007.81 569.563C2007.81 569.563 2008.86 587.795 1989.4 588.496C1977.83 588.847 1971.52 574.647 1971.52 574.647Z" fill="white"/>
<path d="M1938.75 446.149L1938.4 444.571C1945.76 443.344 1945.06 437.209 1945.06 437.033L1946.46 436.858C1946.63 436.858 1947.34 444.571 1938.75 446.149Z" fill="#501506"/>
<path d="M1964.34 491.202C1964.34 491.202 1955.22 490.501 1945.76 487.696C1932.96 484.015 1925.08 478.23 1922.8 470.867C1921.22 465.783 1921.4 462.102 1923.32 459.647C1926.3 455.791 1932.79 455.966 1938.4 455.966C1939.33 455.966 1940.15 455.966 1940.85 455.966V456.843C1940.15 456.843 1939.33 456.784 1938.4 456.667C1932.96 456.667 1926.65 456.492 1923.85 460.173C1922.27 462.452 1922.1 465.783 1923.5 470.692C1928.76 487.871 1964.16 490.326 1964.51 490.501L1964.34 491.202Z" fill="white"/>
<path d="M2008.33 442.994C2002.55 442.994 1997.82 442.117 1993.96 441.241C1985.2 438.786 1980.29 434.93 1980.11 434.93L1980.64 434.229C1980.81 434.404 2000.45 449.48 2031.82 437.735L2032.17 438.436C2023.06 441.767 2015.17 442.994 2008.33 442.994Z" fill="white"/>
<path d="M1571.37 1499.73C1571.37 1499.03 1571.37 1419.44 1600.64 1333.89C1617.81 1283.58 1641.48 1241.15 1670.92 1207.67C1707.91 1165.95 1754.18 1138.08 1808.52 1125.1L1808.87 1126.51C1754.71 1139.3 1708.78 1167 1671.97 1208.55C1642.53 1241.86 1619.04 1284.1 1601.86 1334.24C1572.77 1419.61 1572.77 1499.03 1572.77 1499.73H1571.37Z" fill="#333333"/>
<path d="M299.725 1303.91L249.771 1254.65L660.622 838.656H848.344L1342.63 337.11H1514.22L1770.66 76.7832L1820.61 126.044L1543.5 407.057H1371.9L877.616 908.602H689.718L299.725 1303.91Z" fill="#FF9103"/>
<path d="M1720.18 44.7027L1853.39 176.006L1852.51 43.8262L1720.18 44.7027Z" fill="#FF9103"/>
</svg>
