<svg version="1.2" xmlns="http://www.w3.org/2000/svg" viewBox="0 0 512 512" width="512" height="512"><style>.a{fill:none;stroke:#fff;stroke-linecap:round;stroke-linejoin:round;stroke-width:32}</style><path class="a" d="m256 384c-70.8 0-128-57.2-128-128 0-70.8 57.2-128 128-128 70.8 0 128 57.2 128 128 0 70.8-57.2 128-128 128z"/><path class="a" d="m256 320c-35.4 0-64-28.6-64-64 0-35.4 28.6-64 64-64 35.4 0 64 28.6 64 64 0 35.4-28.6 64-64 64z"/><path fill-rule="evenodd" class="a" d="m131.7 422.4c1.5-21.7-14.8-40.6-36.6-42.1-1.8-0.1-3.7-0.1-5.5 0l-44.9 3.8c-13.1-21.5-22.7-44.8-28.7-69.3l34.4-29c16.4-14.3 18.2-39.2 3.9-55.6q-1.8-2.1-3.9-3.9l-34.4-29.1c6-24.4 15.6-47.8 28.7-69.3l44.9 3.8c21.7 1.5 40.6-14.8 42.1-36.6 0.1-1.8 0.1-3.7 0-5.5l-3.8-44.9c21.5-13.1 44.8-22.7 69.3-28.7l29 34.4c14.3 16.4 39.2 18.2 55.6 3.9q2.1-1.8 3.9-3.9l29.1-34.4c24.4 6 47.8 15.6 69.3 28.7l-3.8 44.9c-1.5 21.7 14.8 40.6 36.6 42.1 1.8 0.1 3.7 0.1 5.5 0l44.9-3.8c13.1 21.5 22.7 44.9 28.7 69.3l-34.4 29c-16.4 14.3-18.2 39.2-3.9 55.6q1.8 2.1 3.9 3.9l34.4 29.1c-6 24.4-15.6 47.8-28.7 69.3l-44.9-3.8c-21.7-1.5-40.6 14.8-42.1 36.6-0.1 1.8-0.1 3.7 0 5.5l3.8 44.9c-21.5 13.1-44.9 22.7-69.3 28.7l-29-34.4c-14.3-16.4-39.2-18.2-55.6-3.9q-2.1 1.8-3.9 3.9l-29 34.4c-24.4-6-47.8-15.6-69.3-28.7z"/></svg>