<svg width="500" height="450" viewBox="0 0 500 450" fill="none" xmlns="http://www.w3.org/2000/svg">
<path opacity="0.33" d="M118.06 21.09C118.06 23.9016 116.083 26.18 113.644 26.18C111.205 26.18 109.227 23.9016 109.227 21.09C109.227 18.2785 111.204 16 113.644 16C116.083 16 118.06 18.2785 118.06 21.09Z" fill="#FF9E22"/>
<path d="M48.0011 66.9992C47.5882 69.2286 45.6858 70.6491 43.7515 70.1727C41.8172 69.6963 40.5844 67.504 40.9974 65.2746C41.4103 63.0452 43.3127 61.6247 45.247 62.1011C47.1812 62.5775 48.414 64.7698 48.0011 66.9992Z" fill="#FFB54A"/>
<path opacity="0.33" d="M384.365 36.864C383.952 39.0934 382.049 40.5139 380.115 40.0375C378.181 39.5611 376.948 37.3687 377.361 35.1393C377.774 32.9099 379.676 31.4894 381.611 31.9658C383.545 32.4422 384.778 34.6346 384.365 36.864Z" fill="#FF9E22"/>
<path opacity="0.33" d="M195.9 34.729C195.693 35.8431 194.742 36.5539 193.775 36.3163C192.808 36.0786 192.191 34.9819 192.398 33.8677C192.604 32.7536 193.556 32.0428 194.522 32.2804C195.49 32.5181 196.106 33.6148 195.9 34.729Z" fill="#FF9E22"/>
<path opacity="0.33" d="M460.96 185.912C460.753 187.026 459.802 187.737 458.835 187.499C457.868 187.262 457.251 186.165 457.458 185.051C457.664 183.937 458.616 183.226 459.582 183.464C460.55 183.701 461.166 184.797 460.96 185.912Z" fill="#FF9E22"/>
<path d="M451.351 240.406C450.938 242.635 449.036 244.056 447.102 243.579C445.168 243.103 443.935 240.911 444.348 238.682C444.761 236.453 446.663 235.032 448.597 235.509C450.531 235.984 451.764 238.178 451.351 240.406Z" fill="#FFA000"/>
<path d="M19.2605 294.716C19.0118 296.057 17.8675 296.911 16.7044 296.625C15.5412 296.338 14.8 295.02 15.0477 293.679C15.2955 292.338 16.4407 291.484 17.6039 291.77C18.768 292.056 19.5093 293.375 19.2605 294.716Z" fill="#FFA000"/>
<g opacity="0.34">
<g opacity="0.41">
<path d="M431.797 304.932C435.586 323.259 434.944 340.045 429.89 357.995C423.564 380.457 409.304 401.348 388.93 414.212C381.779 418.726 374.102 422.121 366.106 424.535C364.802 426.812 363.39 429.016 361.89 431.148H430.126C447.481 408.514 457.424 379.497 458.989 349.971C459.412 341.985 459.223 333.961 458.401 326.016C455.217 295.226 442.762 265.89 424.062 242.619C423.785 244.254 423.549 245.895 423.377 247.542C421.34 267.147 427.908 286.115 431.797 304.932Z" fill="#FFD9A9"/>
</g>
<g opacity="0.41">
<path d="M220.53 426.588C216.528 420.526 213.395 412.802 209.149 406.614C200.056 408.64 191.075 411.596 181.994 414.146C163.407 419.363 144.26 423.244 125.08 423.533C103.768 423.854 82.0375 419.352 63.5017 407.355C49.3669 398.206 36.9354 384.227 30.2142 367.538C32.0908 390.557 39.7085 413.002 52.5459 431.147H223.758C222.638 429.669 221.56 428.15 220.53 426.588Z" fill="#FFD9A9"/>
</g>
<g opacity="0.41">
<path d="M247.527 110.791C252.705 110.598 258.273 110.259 264.349 109.754C292.698 107.402 320.78 114.48 348.009 124.252C350.635 125.195 353.248 126.21 355.842 127.293C344.116 113.16 329.163 102.165 312.71 95.9186C280.145 83.556 240.655 88.4705 211.97 107.939C223.756 107.973 235.618 108.947 247.527 110.791Z" fill="#FFD9A9"/>
</g>
<g opacity="0.35">
<path d="M63.4997 407.355C82.0355 419.352 103.767 423.853 125.078 423.533C144.258 423.245 163.405 419.364 181.992 414.145C191.074 411.595 200.054 408.64 209.147 406.613C205.405 401.16 200.799 396.9 193.97 396.021C167.553 392.622 139.828 405.085 113.554 407.324C95.8997 408.828 77.1272 406.227 62.8003 394.366C53.507 386.673 46.7013 375.548 42.0427 363.576C32.3763 338.738 31.9942 310.174 39.9542 284.684C45.3411 267.433 58.5556 254.272 63.1206 236.701C66.9335 222.025 62.3724 206.754 63.5744 191.934C63.8191 188.912 64.3047 185.909 65.1484 182.933C69.6249 167.161 91.3576 144.287 104.705 136.611C136.694 118.212 170.123 109.162 204.251 108.063C184.833 104.502 166.441 98.0071 133.884 90.3781C95.2122 81.3155 51.9548 113.621 29.3257 151.044C27.0183 154.861 24.9915 158.866 23.2473 163.013C15.4445 181.571 13.3142 202.966 17.0584 222.968C21.4593 246.482 34.821 264.547 30.1844 289.633C27.3606 304.913 26.6531 319.068 25.2213 334.186C24.102 346.003 26.081 357.282 30.2112 367.538C36.9334 384.228 49.3648 398.206 63.4997 407.355Z" fill="#FFD9A9"/>
</g>
<g opacity="0.47">
<path d="M264.348 109.755C258.273 110.258 252.705 110.599 247.527 110.792C265.116 113.515 282.804 118.134 300.497 124.509C300.499 124.51 366.611 148.333 366.611 148.333C397.683 159.529 418.278 192.158 416.343 227.934C416.33 228.169 416.317 228.404 416.303 228.639C415.065 249.376 408.754 269.704 398.328 286.75C388.889 302.184 375.861 319.446 372.601 338.389C370.003 353.483 375.616 368.74 376.298 384.103C376.948 398.708 372.964 412.566 366.108 424.537C374.104 422.123 381.781 418.728 388.932 414.214C409.306 401.35 423.566 380.459 429.891 357.997C434.946 340.047 435.588 323.261 431.799 304.934C427.908 286.118 421.342 267.151 423.381 247.545C423.552 245.898 423.789 244.257 424.066 242.622C426.083 230.696 430.38 219.045 429.462 206.995C428.767 197.891 425.109 189.348 420.634 181.639C405.781 156.044 381.819 138.142 355.844 127.297C353.25 126.214 350.637 125.199 348.01 124.256C320.78 114.481 292.697 107.403 264.348 109.755Z" fill="#FFD9A9"/>
</g>
<g opacity="0.85">
<path d="M65.1499 182.933C64.3051 185.909 63.8205 188.912 63.5758 191.934C62.3738 206.754 66.9349 222.025 63.1221 236.701C58.557 254.272 45.3425 267.432 39.9556 284.684C31.9957 310.174 32.3777 338.738 42.0441 363.577C46.7027 375.548 53.5084 386.673 62.8017 394.366C77.1286 406.227 95.9002 408.829 113.555 407.324C139.83 405.085 167.555 392.622 193.972 396.021C200.8 396.9 205.407 401.16 209.148 406.613C213.395 412.801 216.527 420.526 220.529 426.588C221.56 428.149 222.639 429.668 223.756 431.148H361.89C363.39 429.015 364.802 426.811 366.107 424.535C372.962 412.566 376.946 398.706 376.296 384.101C375.614 368.74 370.001 353.482 372.599 338.387C375.86 319.444 388.887 302.182 398.327 286.748C408.752 269.702 415.063 249.376 416.301 228.637C416.315 228.402 416.328 228.167 416.341 227.932C418.276 192.157 397.681 159.528 366.609 148.331C366.609 148.331 300.498 124.508 300.495 124.507C282.802 118.132 265.113 113.513 247.525 110.789C235.617 108.946 223.755 107.971 211.969 107.939C209.392 107.931 206.82 107.979 204.25 108.062C170.123 109.16 136.694 118.211 104.705 136.61C91.359 144.288 69.6253 167.161 65.1499 182.933Z" fill="#FFD9A9"/>
</g>
</g>
<path d="M439.477 434.125H27.9695C27.1009 434.125 26.3965 433.353 26.3965 432.401C26.3965 431.45 27.1009 430.678 27.9695 430.678H439.477C440.346 430.678 441.05 431.45 441.05 432.401C441.05 433.354 440.346 434.125 439.477 434.125Z" fill="#233863"/>
<path opacity="0.64" d="M132.709 280.426L150.509 287.495C146.95 299.881 146.651 312.534 149.272 324.649L131.04 330.543C121.805 333.529 117.169 342.474 120.685 350.523C124.201 358.572 134.538 362.677 143.773 359.692L162.005 353.798C169.308 364.401 179.218 373.752 191.378 381.057L183.394 396.461C179.351 404.264 183.381 413.491 192.398 417.072C201.414 420.653 212 417.23 216.045 409.427L224.028 394.023C238.316 397.222 252.882 397.591 266.806 395.418L273.747 411.309C277.263 419.359 287.6 423.464 296.835 420.478C306.07 417.492 310.706 408.547 307.19 400.498L300.248 384.608C312.388 378.355 323.067 369.825 331.37 359.322L349.17 366.392C358.185 369.972 368.772 366.55 372.817 358.747C376.86 350.944 372.83 341.717 363.813 338.136L346.014 331.067C349.572 318.681 349.872 306.028 347.251 293.913L365.482 288.018C374.717 285.033 379.353 276.087 375.837 268.038C372.321 259.989 361.984 255.884 352.749 258.869L334.517 264.763C327.215 254.161 317.304 244.81 305.145 237.505L313.128 222.101C317.172 214.298 313.141 205.07 304.125 201.49C295.109 197.909 284.522 201.331 280.478 209.134L272.494 224.538C258.207 221.34 243.64 220.97 229.718 223.143L222.776 207.253C219.26 199.203 208.923 195.098 199.689 198.084C190.454 201.069 185.819 210.014 189.335 218.064L196.276 233.955C184.137 240.207 173.457 248.738 165.155 259.24L147.355 252.171C138.339 248.59 127.752 252.013 123.708 259.815C119.662 267.616 123.693 276.845 132.709 280.426ZM278.09 251.722C314.823 266.31 331.245 303.905 314.771 335.694C298.297 367.482 255.163 381.426 218.431 366.838C181.699 352.25 165.276 314.654 181.75 282.866C198.225 251.077 241.358 237.133 278.09 251.722Z" fill="white"/>
<path d="M433.855 415.558C430.79 415.558 427.888 413.923 426.735 411.284L424.181 405.437C418.812 406.222 413.412 406.047 408.115 404.914L405.181 410.574C404.355 412.167 402.863 413.381 400.978 413.991C399.094 414.598 397.046 414.533 395.207 413.803C393.369 413.073 391.962 411.768 391.246 410.126C390.529 408.484 390.587 406.701 391.414 405.107L394.346 399.447C389.884 396.702 386.175 393.26 383.314 389.209L376.607 391.376C372.723 392.637 368.357 390.899 366.877 387.512C366.16 385.87 366.218 384.087 367.044 382.494C367.87 380.9 369.362 379.687 371.249 379.077L377.945 376.911C376.998 372.244 377.154 367.555 378.41 362.965L371.863 360.365C368.068 358.857 366.366 354.956 368.069 351.669C369.773 348.381 374.245 346.931 378.042 348.44L384.591 351.04C387.709 347.19 391.635 344 396.272 341.548L393.722 335.711C393.004 334.067 393.063 332.285 393.889 330.691C394.716 329.097 396.208 327.885 398.094 327.275C401.976 326.02 406.345 327.752 407.824 331.139L410.378 336.986C415.745 336.202 421.145 336.376 426.444 337.509L429.379 331.849C430.205 330.256 431.696 329.042 433.582 328.432C435.465 327.825 437.515 327.891 439.353 328.62C443.149 330.128 444.849 334.029 443.145 337.317L440.213 342.977C444.675 345.723 448.384 349.164 451.245 353.215L457.952 351.048C461.839 349.786 466.202 351.525 467.682 354.911C468.4 356.554 468.341 358.337 467.515 359.931C466.688 361.524 465.196 362.737 463.311 363.346L456.614 365.512C457.561 370.18 457.405 374.867 456.149 379.458L462.696 382.059C464.534 382.788 465.941 384.094 466.658 385.735C467.375 387.378 467.317 389.161 466.49 390.755C464.785 394.041 460.31 395.49 456.517 393.983L449.969 391.383C446.85 395.234 442.923 398.424 438.287 400.875L440.837 406.712C441.555 408.356 441.496 410.139 440.67 411.732C439.843 413.326 438.351 414.538 436.466 415.148C435.608 415.425 434.725 415.558 433.855 415.558ZM424.882 404.356L427.758 410.94C429.024 413.839 432.759 415.322 436.086 414.247C437.694 413.727 438.967 412.693 439.671 411.336C440.375 409.977 440.427 408.457 439.814 407.055L436.933 400.461L437.332 400.255C442.136 397.781 446.174 394.501 449.33 390.509L449.59 390.178L456.97 393.109C460.216 394.396 464.036 393.164 465.492 390.358C466.196 389 466.246 387.481 465.634 386.079C465.02 384.675 463.817 383.558 462.242 382.933L454.865 380.003L454.977 379.615C456.331 374.905 456.492 370.086 455.455 365.291L455.369 364.893L462.933 362.447C464.541 361.927 465.814 360.893 466.518 359.535C467.222 358.177 467.273 356.656 466.661 355.255C465.395 352.356 461.667 350.874 458.334 351.948L450.778 354.391L450.544 354.051C447.655 349.856 443.844 346.319 439.216 343.54L438.836 343.312L442.149 336.921C443.604 334.116 442.146 330.785 438.901 329.497C437.329 328.872 435.575 328.815 433.965 329.336C432.356 329.855 431.083 330.89 430.379 332.247L427.066 338.638L426.621 338.538C421.184 337.319 415.635 337.138 410.125 338L409.679 338.07L406.802 331.485C405.537 328.587 401.802 327.104 398.474 328.178C396.866 328.698 395.593 329.732 394.889 331.089C394.185 332.448 394.135 333.968 394.747 335.37L397.628 341.963L397.228 342.169C392.423 344.645 388.386 347.924 385.23 351.917L384.97 352.247L377.592 349.316C374.344 348.029 370.525 349.262 369.07 352.067C367.617 354.872 369.074 358.204 372.319 359.492L379.697 362.422L379.585 362.811C378.232 367.52 378.071 372.34 379.107 377.134L379.194 377.532L371.629 379.978C370.021 380.499 368.748 381.533 368.044 382.891C367.34 384.248 367.29 385.768 367.902 387.17C369.168 390.069 372.897 391.551 376.229 390.477L383.784 388.035L384.018 388.374C386.908 392.569 390.719 396.106 395.347 398.885L395.726 399.113L392.414 405.504C391.71 406.861 391.66 408.381 392.271 409.782C392.886 411.187 394.089 412.303 395.663 412.928C397.236 413.553 398.988 413.61 400.599 413.09C402.207 412.57 403.48 411.535 404.186 410.177L407.497 403.787L407.943 403.887C413.377 405.104 418.929 405.284 424.439 404.425L424.882 404.356ZM417.481 396.457C413.434 396.457 409.317 395.718 405.387 394.158C390.77 388.351 384.212 373.335 390.77 360.682C397.327 348.03 414.554 342.458 429.172 348.264C443.789 354.069 450.347 369.086 443.789 381.739C438.996 390.991 428.494 396.457 417.481 396.457ZM417.076 346.927C406.48 346.927 396.381 352.183 391.768 361.081C385.461 373.251 391.774 387.698 405.841 393.285C419.908 398.872 436.483 393.514 442.791 381.343C449.098 369.174 442.784 354.727 428.718 349.139C424.936 347.637 420.972 346.927 417.076 346.927Z" fill="white"/>
<path d="M107.307 327.085C105.182 327.085 103.168 325.951 102.369 324.121L100.711 320.326C97.1873 320.825 93.6451 320.707 90.1687 319.983L88.266 323.655C87.6935 324.761 86.6561 325.603 85.3489 326.027C84.0428 326.45 82.6215 326.403 81.3461 325.896C80.0718 325.391 79.0958 324.485 78.599 323.346C78.1011 322.205 78.1417 320.967 78.7152 319.861L80.6168 316.191C77.703 314.378 75.2706 312.121 73.3778 309.473L69.0241 310.88C66.3307 311.755 63.3007 310.549 62.2753 308.2C61.7774 307.06 61.818 305.822 62.3904 304.717C62.9629 303.611 64.0003 302.769 65.3086 302.344L69.6536 300.94C69.0526 297.878 69.1557 294.804 69.9584 291.792L65.7089 290.104C64.4357 289.599 63.4586 288.692 62.9618 287.555C62.4639 286.413 62.5045 285.176 63.078 284.07C63.6505 282.965 64.6879 282.122 65.9951 281.699C67.3013 281.277 68.7214 281.322 69.9968 281.83L74.2464 283.518C76.3059 281.004 78.8797 278.912 81.9076 277.291L80.2538 273.505C79.7559 272.365 79.7965 271.127 80.369 270.021C80.9425 268.915 81.9789 268.073 83.2872 267.65C85.9817 266.781 89.0117 267.981 90.036 270.33L91.6941 274.126C95.2133 273.629 98.7555 273.744 102.236 274.468L104.139 270.797C104.711 269.691 105.749 268.849 107.056 268.426C108.363 268.002 109.783 268.049 111.058 268.555C113.69 269.602 114.871 272.308 113.688 274.59L111.786 278.261C114.7 280.074 117.131 282.331 119.024 284.979L123.379 283.572C126.074 282.698 129.103 283.904 130.127 286.252C130.625 287.393 130.585 288.63 130.01 289.736C129.438 290.842 128.4 291.684 127.092 292.107L122.748 293.512C123.349 296.574 123.246 299.648 122.443 302.66L126.693 304.348C127.966 304.853 128.943 305.759 129.44 306.898C129.938 308.038 129.897 309.276 129.324 310.381C128.75 311.486 127.714 312.329 126.406 312.753C125.099 313.175 123.679 313.13 122.405 312.622L118.155 310.934C116.095 313.449 113.52 315.541 110.494 317.161L112.148 320.947C112.646 322.088 112.605 323.325 112.033 324.43C111.459 325.537 110.422 326.379 109.113 326.802C108.521 326.994 107.909 327.085 107.307 327.085ZM101.413 319.245L103.393 323.778C104.206 325.64 106.603 326.588 108.738 325.902C109.769 325.568 110.586 324.905 111.038 324.034C111.489 323.164 111.521 322.189 111.129 321.291L109.144 316.749L109.543 316.544C112.738 314.898 115.421 312.717 117.523 310.061L117.782 309.731L122.863 311.749C123.873 312.15 124.999 312.186 126.031 311.852C127.062 311.518 127.879 310.855 128.331 309.984C128.782 309.114 128.814 308.139 128.422 307.24C128.028 306.34 127.255 305.623 126.246 305.222L121.167 303.205L121.279 302.817C122.178 299.683 122.285 296.479 121.595 293.291L121.509 292.892L126.72 291.207C127.751 290.873 128.569 290.211 129.02 289.34C129.471 288.469 129.502 287.495 129.111 286.597C128.298 284.735 125.901 283.786 123.765 284.473L118.564 286.155L118.331 285.815C116.407 283.024 113.873 280.672 110.796 278.823L110.416 278.596L112.697 274.195C113.629 272.395 112.694 270.258 110.611 269.432C109.601 269.029 108.475 268.994 107.443 269.328C106.412 269.662 105.595 270.325 105.143 271.195L102.862 275.596L102.417 275.496C98.7993 274.687 95.1102 274.565 91.4452 275.139L90.9988 275.208L89.0183 270.675C88.2057 268.813 85.8073 267.86 83.6721 268.552C82.6423 268.885 81.8242 269.549 81.3735 270.42C80.9228 271.29 80.8899 272.265 81.2825 273.163L83.2663 277.705L82.8672 277.91C79.6704 279.557 76.9869 281.737 74.8879 284.393L74.628 284.724L69.5472 282.706C68.5383 282.305 67.412 282.268 66.379 282.602C65.3481 282.935 64.5311 283.598 64.0793 284.469C63.6286 285.339 63.5968 286.314 63.9883 287.213C64.382 288.114 65.1562 288.831 66.164 289.233L71.2437 291.25L71.1319 291.638C70.2326 294.772 70.1251 297.976 70.8149 301.164L70.9016 301.563L65.6903 303.247C64.6594 303.581 63.8413 304.244 63.3906 305.115C62.9399 305.986 62.907 306.96 63.2996 307.859C64.1111 309.719 66.5128 310.673 68.6447 309.981L73.8461 308.3L74.0797 308.64C76.0032 311.431 78.5387 313.783 81.6148 315.632L81.9942 315.859L79.7132 320.26C79.2625 321.13 79.2307 322.105 79.6222 323.004C80.0159 323.905 80.7879 324.622 81.7979 325.023C82.8101 325.424 83.9353 325.46 84.9672 325.127C85.9981 324.793 86.8151 324.13 87.2669 323.259L89.548 318.858L89.9932 318.958C93.6089 319.769 97.3002 319.887 100.965 319.316L101.413 319.245ZM96.3593 314.301C93.5705 314.301 90.785 313.778 88.164 312.737C83.3793 310.837 79.7154 307.437 77.8489 303.164C75.9813 298.889 76.1348 294.253 78.2831 290.106C82.7158 281.555 94.3634 277.786 104.243 281.71C109.028 283.61 112.693 287.01 114.559 291.284C116.427 295.559 116.271 300.196 114.123 304.342C111.976 308.485 108.091 311.642 103.186 313.228C100.971 313.944 98.6645 314.301 96.3593 314.301ZM96.0676 281.118C89.0402 281.118 82.3397 284.604 79.2811 290.505C77.2556 294.414 77.1108 298.789 78.872 302.821C80.6344 306.857 84.0965 310.069 88.6169 311.864C93.1373 313.659 98.1775 313.822 102.808 312.326C107.435 310.83 111.099 307.854 113.125 303.944C115.152 300.035 115.296 295.66 113.535 291.627C111.772 287.591 108.311 284.38 103.789 282.584C101.282 281.589 98.6535 281.118 96.0676 281.118Z" fill="white"/>
<path d="M31.5734 262.438C31.3781 262.438 31.1818 262.393 31.002 262.298C30.4855 262.021 30.3221 261.431 30.6379 260.979L45.128 240.21C45.4438 239.758 46.1172 239.615 46.6359 239.892C47.1524 240.168 47.3158 240.758 47 241.211L32.5099 261.979C32.3037 262.275 31.9429 262.438 31.5734 262.438Z" fill="#DAD9DB"/>
<path d="M61.7598 260.066H11.0966V286.606H61.7598V260.066Z" fill="white"/>
<path d="M61.7599 287.566H11.0967C10.4902 287.566 10 287.137 10 286.606V260.066C10 259.536 10.4902 259.106 11.0967 259.106H61.7599C62.3663 259.106 62.8565 259.536 62.8565 260.066V286.606C62.8565 287.136 62.3663 287.566 61.7599 287.566ZM12.1933 285.646H60.6632V261.026H12.1933V285.646Z" fill="#DAD9DB"/>
<path d="M30.1115 266.846H15.219C14.6125 266.846 14.1223 266.416 14.1223 265.886C14.1223 265.356 14.6125 264.926 15.219 264.926H30.1115C30.718 264.926 31.2082 265.356 31.2082 265.886C31.2082 266.416 30.718 266.846 30.1115 266.846Z" fill="#DAD9DB"/>
<path d="M30.1115 281.629H15.219C14.6125 281.629 14.1223 281.2 14.1223 280.669C14.1223 280.139 14.6125 279.709 15.219 279.709H30.1115C30.718 279.709 31.2082 280.139 31.2082 280.669C31.2082 281.2 30.718 281.629 30.1115 281.629Z" fill="#DAD9DB"/>
<path d="M30.1115 277.207H15.219C14.6125 277.207 14.1223 276.778 14.1223 276.247C14.1223 275.716 14.6125 275.287 15.219 275.287H30.1115C30.718 275.287 31.2082 275.716 31.2082 276.247C31.2082 276.778 30.718 277.207 30.1115 277.207Z" fill="#DAD9DB"/>
<path d="M37.1597 272.084H15.219C14.6125 272.084 14.1223 271.654 14.1223 271.124C14.1223 270.594 14.6125 270.164 15.219 270.164H37.1597C37.7662 270.164 38.2564 270.594 38.2564 271.124C38.2564 271.654 37.7651 272.084 37.1597 272.084Z" fill="#DAD9DB"/>
<path d="M56.7065 264.489H44.2068V280.668H56.7065V264.489Z" fill="white"/>
<path d="M56.7065 281.629H44.2068C43.6004 281.629 43.1102 281.2 43.1102 280.669V264.489C43.1102 263.959 43.6004 263.529 44.2068 263.529H56.7054C57.3118 263.529 57.802 263.959 57.802 264.489V280.669C57.8031 281.2 57.3129 281.629 56.7065 281.629ZM45.3035 279.709H55.6087V265.449H45.3035V279.709Z" fill="#DAD9DB"/>
<path d="M250.595 284.672L196.366 261.328L314.852 214.185L233.489 140.736L235.064 139.399L318.594 214.804L201.495 261.397L251.563 282.949L250.595 284.672Z" fill="#FF9E22"/>
<path d="M257.704 285.337C257.704 288.163 255.087 290.454 251.859 290.454C248.632 290.454 246.014 288.162 246.014 285.337C246.014 282.511 248.632 280.219 251.859 280.219C255.087 280.219 257.704 282.511 257.704 285.337Z" fill="#FF9E22"/>
<path d="M45.2894 151.371L43.1433 151.767L51.5108 186.509L53.6569 186.113L45.2894 151.371Z" fill="#DCDBDD"/>
<path d="M84.7311 259.743L60.9704 272.921L62.1443 274.543L85.905 261.364L84.7311 259.743Z" fill="#DCDBDD"/>
<path d="M89.3506 259.396C89.3506 260.705 88.1377 261.767 86.6418 261.767C85.146 261.767 83.9331 260.705 83.9331 259.396C83.9331 258.086 85.146 257.025 86.6418 257.025C88.1377 257.025 89.3506 258.086 89.3506 259.396Z" fill="white"/>
<path d="M86.6418 262.727C84.5439 262.727 82.8375 261.233 82.8375 259.396C82.8375 257.56 84.5439 256.065 86.6418 256.065C88.7397 256.065 90.4472 257.56 90.4472 259.396C90.4461 261.233 88.7397 262.727 86.6418 262.727ZM86.6418 257.985C85.7535 257.985 85.0308 258.617 85.0308 259.396C85.0308 260.175 85.7535 260.807 86.6418 260.807C87.5312 260.807 88.2539 260.175 88.2539 259.396C88.2528 258.617 87.5301 257.985 86.6418 257.985Z" fill="#DCDBDD"/>
<path d="M463.817 303.93C463.448 303.93 463.087 303.767 462.881 303.47L451.186 286.708C450.87 286.255 451.033 285.664 451.55 285.388C452.068 285.111 452.742 285.254 453.058 285.707L464.753 302.469C465.068 302.922 464.905 303.513 464.389 303.789C464.21 303.885 464.012 303.93 463.817 303.93Z" fill="#DAD9DB"/>
<path d="M439.454 323.252H480.346V301.83H439.454V323.252Z" fill="white"/>
<path d="M480.346 324.212H439.453C438.846 324.212 438.356 323.783 438.356 323.252V301.832C438.356 301.301 438.846 300.872 439.453 300.872H480.345C480.951 300.872 481.441 301.301 481.441 301.832V323.252C481.443 323.782 480.951 324.212 480.346 324.212ZM440.549 322.292H479.248V302.792H440.549V322.292Z" fill="#DAD9DB"/>
<path d="M477.019 307.489H464.998C464.392 307.489 463.902 307.06 463.902 306.529C463.902 305.998 464.392 305.569 464.998 305.569H477.019C477.625 305.569 478.115 305.998 478.115 306.529C478.115 307.059 477.624 307.489 477.019 307.489Z" fill="#DAD9DB"/>
<path d="M477.019 319.42H464.998C464.392 319.42 463.902 318.991 463.902 318.46C463.902 317.929 464.392 317.5 464.998 317.5H477.019C477.625 317.5 478.115 317.929 478.115 318.46C478.115 318.991 477.624 319.42 477.019 319.42Z" fill="#DAD9DB"/>
<path d="M477.019 315.851H464.998C464.392 315.851 463.902 315.421 463.902 314.891C463.902 314.36 464.392 313.931 464.998 313.931H477.019C477.625 313.931 478.115 314.36 478.115 314.891C478.115 315.421 477.624 315.851 477.019 315.851Z" fill="#DAD9DB"/>
<path d="M477.019 311.716H459.309C458.702 311.716 458.212 311.287 458.212 310.756C458.212 310.225 458.702 309.796 459.309 309.796H477.019C477.625 309.796 478.115 310.225 478.115 310.756C478.115 311.287 477.624 311.716 477.019 311.716Z" fill="#DAD9DB"/>
<path d="M443.531 318.46H453.62V305.4H443.531V318.46Z" fill="white"/>
<path d="M453.62 319.42H443.531C442.925 319.42 442.435 318.991 442.435 318.46V305.4C442.435 304.869 442.925 304.44 443.531 304.44H453.62C454.227 304.44 454.717 304.869 454.717 305.4V318.46C454.717 318.991 454.227 319.42 453.62 319.42ZM444.628 317.5H452.524V306.36H444.628V317.5Z" fill="#DAD9DB"/>
<path d="M439.022 309.926L422.343 319.176L423.517 320.798L440.196 311.547L439.022 309.926Z" fill="#DCDBDD"/>
<path d="M420.108 320.829C420.108 319.91 420.959 319.165 422.009 319.165C423.06 319.165 423.91 319.91 423.91 320.829C423.91 321.748 423.059 322.494 422.009 322.494C420.96 322.494 420.108 321.748 420.108 320.829Z" fill="white"/>
<path d="M422.008 323.453C420.356 323.453 419.011 322.276 419.011 320.829C419.011 319.381 420.357 318.204 422.008 318.204C423.662 318.204 425.007 319.382 425.007 320.829C425.008 322.276 423.662 323.453 422.008 323.453ZM422.008 320.124C421.565 320.124 421.205 320.44 421.205 320.829C421.205 321.217 421.565 321.533 422.008 321.533C422.453 321.533 422.813 321.217 422.813 320.829C422.814 320.44 422.454 320.124 422.008 320.124Z" fill="#DCDBDD"/>
<path d="M152.915 155.163L150.855 155.822L189.155 247.583L191.216 246.924L152.915 155.163Z" fill="#FF9E22"/>
<path d="M166.231 152.448C168.065 158.601 163.853 164.889 156.824 166.494C149.796 168.099 142.612 164.412 140.779 158.259C138.946 152.106 143.158 145.818 150.186 144.213C157.214 142.608 164.398 146.295 166.231 152.448Z" fill="white"/>
<path d="M153.508 167.827C147.18 167.827 141.388 164.105 139.718 158.501C138.757 155.277 139.288 151.919 141.212 149.045C143.138 146.171 146.225 144.125 149.909 143.284C157.505 141.551 165.309 145.55 167.293 152.205C169.276 158.861 164.704 165.687 157.101 167.422C155.901 167.696 154.694 167.827 153.508 167.827ZM153.504 144.799C152.499 144.799 151.479 144.91 150.463 145.142C147.347 145.853 144.735 147.584 143.106 150.015C141.478 152.447 141.028 155.289 141.842 158.016C143.52 163.646 150.121 167.031 156.549 165.564C162.98 164.096 166.849 158.32 165.171 152.689C163.757 147.95 158.855 144.799 153.504 144.799Z" fill="#DCDBDD"/>
<path d="M156.788 154.716C157.278 156.36 156.152 158.041 154.274 158.47C152.395 158.899 150.475 157.913 149.985 156.269C149.494 154.624 150.621 152.944 152.499 152.514C154.379 152.085 156.298 153.071 156.788 154.716Z" fill="#FF9E22"/>
<path d="M73.4049 169.456L67.6226 187.084L69.7308 187.614L75.5131 169.986L73.4049 169.456Z" fill="#FF9E22"/>
<path d="M483.127 199.902C486.923 185.831 476.969 171.731 460.895 168.409C444.822 165.086 428.714 173.799 424.919 187.87C421.123 201.941 431.077 216.041 447.151 219.364C463.225 222.686 479.332 213.973 483.127 199.902Z" fill="white"/>
<path d="M454.01 220.998C436.914 220.998 423.006 208.823 423.006 193.859C423.006 178.894 436.914 166.719 454.01 166.719C471.104 166.719 485.011 178.894 485.011 193.859C485.011 208.823 471.104 220.998 454.01 220.998ZM454.01 168.639C438.125 168.639 425.2 179.953 425.2 193.859C425.2 207.764 438.124 219.078 454.01 219.078C469.895 219.078 482.818 207.764 482.818 193.859C482.818 179.953 469.895 168.639 454.01 168.639Z" fill="#DCDBDD"/>
<path d="M463.18 197.056C463.068 198.958 462.09 200.753 460.518 202.026C459.461 202.908 458.214 203.499 456.815 203.783L456.733 205.173C456.694 205.835 456.374 206.449 455.836 206.89C455.301 207.33 454.583 207.562 453.828 207.528C453.016 207.492 452.332 207.196 451.831 206.708C451.328 206.221 451.046 205.579 451.084 204.917L451.15 203.791L448.522 203.674C447.333 203.62 446.369 203.245 445.721 202.668C445.092 202.092 444.779 201.299 444.833 200.389C444.938 198.587 446.371 197.739 448.865 197.851L455.083 198.133C455.329 198.145 455.673 198.077 455.93 197.907C456.263 197.706 456.43 197.431 456.451 197.099C456.479 196.62 456.291 196.297 455.885 196.096C455.682 196.004 455.553 195.966 455.458 195.945C455.327 195.921 455.252 195.901 455.252 195.901L452.286 195.766C450.229 195.626 448.363 194.826 447.053 193.59C445.743 192.338 445.024 190.712 445.13 188.91C445.241 187.04 446.255 185.277 447.843 184.024C449.115 183.02 450.729 182.379 452.424 182.207L452.479 181.281C452.517 180.604 452.836 180.037 453.434 179.566C454.009 179.111 454.705 178.894 455.497 178.93C456.234 178.964 456.917 179.26 457.419 179.746C457.937 180.268 458.169 180.858 458.129 181.536L458.079 182.364L459.08 182.41C461.556 182.522 462.949 183.63 462.843 185.432C462.727 187.418 461.208 188.41 458.733 188.298L452.933 188.035C452.27 188.005 451.814 188.366 451.785 188.894C451.753 189.442 452.065 189.903 452.615 189.928L455.468 190.056C457.678 190.157 459.677 190.927 461.102 192.184C462.541 193.445 463.293 195.155 463.18 197.056Z" fill="white"/>
<path d="M453.975 208.492C453.907 208.492 453.841 208.491 453.773 208.487C452.684 208.438 451.731 208.046 451.016 207.351C450.31 206.668 449.936 205.763 449.986 204.868L449.997 204.701L448.465 204.632C447.054 204.568 445.8 204.11 444.937 203.34C444.091 202.565 443.667 201.503 443.735 200.34C443.823 198.846 444.644 198.035 445.318 197.618C446.206 197.069 447.42 196.826 448.92 196.892L455.137 197.174C455.17 197.174 455.24 197.156 455.265 197.141L456.448 197.098L455.352 197.049C455.359 196.952 455.343 196.915 455.343 196.915C455.279 196.903 455.217 196.881 455.19 196.875C455.149 196.867 455.113 196.861 455.08 196.854L452.226 196.724C449.886 196.565 447.772 195.684 446.244 194.242C444.699 192.762 443.914 190.853 444.029 188.861C444.153 186.777 445.275 184.755 447.104 183.311C448.308 182.362 449.795 181.694 451.37 181.389L451.379 181.231C451.433 180.3 451.875 179.499 452.695 178.853C453.486 178.227 454.468 177.924 455.549 177.972C456.574 178.019 457.525 178.42 458.229 179.102C458.912 179.791 459.243 180.578 459.224 181.456C462.266 181.622 464.069 183.158 463.935 185.481C463.861 186.734 463.31 187.745 462.344 188.408C461.422 189.039 460.202 189.327 458.671 189.257L456.13 189.142C458.355 189.358 460.377 190.188 461.874 191.51C463.545 192.971 464.398 194.96 464.272 197.107C464.146 199.233 463.048 201.284 461.261 202.733C460.277 203.554 459.136 204.155 457.866 204.522L457.824 205.225C457.771 206.138 457.329 206.98 456.578 207.593C455.875 208.175 454.955 208.492 453.975 208.492ZM448.442 198.802C447.633 198.802 446.996 198.933 446.588 199.186C446.179 199.439 445.964 199.848 445.929 200.438C445.891 201.078 446.093 201.619 446.514 202.004C446.981 202.421 447.718 202.676 448.579 202.716L452.301 202.882L452.179 204.967C452.156 205.356 452.326 205.756 452.646 206.065C452.967 206.378 453.385 206.548 453.886 206.57C454.307 206.582 454.762 206.456 455.084 206.191C455.42 205.917 455.614 205.54 455.638 205.126L455.766 203.012L456.568 202.849C457.777 202.603 458.852 202.093 459.764 201.332C461.148 200.211 461.989 198.638 462.086 197.007C462.181 195.411 461.556 193.94 460.327 192.866C459.073 191.759 457.329 191.104 455.411 191.016L452.558 190.888C451.427 190.838 450.623 189.959 450.689 188.846C450.718 188.339 450.961 187.88 451.373 187.553C451.799 187.217 452.385 187.044 452.991 187.077L458.79 187.34C459.74 187.382 460.511 187.23 460.998 186.897C461.456 186.582 461.708 186.073 461.749 185.383C461.821 184.132 460.904 183.454 459.024 183.369L456.928 183.273L457.034 181.487C457.061 181.052 456.925 180.71 456.594 180.376C456.295 180.087 455.882 179.909 455.441 179.889C454.951 179.871 454.532 179.994 454.171 180.278C453.788 180.58 453.601 180.913 453.577 181.329L453.474 183.068L452.552 183.161C451.092 183.309 449.68 183.87 448.58 184.739C447.179 185.845 446.32 187.383 446.228 188.962C446.14 190.457 446.706 191.835 447.864 192.943C449.012 194.026 450.616 194.691 452.375 194.811L455.689 195.007C455.938 195.061 456.149 195.134 456.395 195.246C457.199 195.644 457.598 196.313 457.55 197.149C457.51 197.785 457.158 198.335 456.556 198.698C456.164 198.961 455.574 199.118 455.029 199.094L448.813 198.812C448.683 198.805 448.56 198.802 448.442 198.802Z" fill="#DCDBDD"/>
<path d="M333.972 218.082C336.221 209.745 330.323 201.391 320.8 199.422C311.276 197.454 301.733 202.616 299.484 210.953C297.236 219.29 303.133 227.644 312.656 229.612C322.18 231.581 331.723 226.418 333.972 218.082Z" fill="white"/>
<path d="M316.723 230.964C306.348 230.964 297.908 223.576 297.908 214.494C297.908 205.411 306.348 198.023 316.723 198.023C327.097 198.023 335.537 205.411 335.537 214.494C335.538 223.576 327.097 230.964 316.723 230.964ZM316.723 199.944C307.558 199.944 300.101 206.471 300.101 214.495C300.101 222.517 307.558 229.045 316.723 229.045C325.888 229.045 333.344 222.518 333.344 214.495C333.345 206.471 325.889 199.944 316.723 199.944Z" fill="#DCDBDD"/>
<path d="M461.864 275.082C466.999 263.128 460.092 249.794 446.437 245.299C432.782 240.803 417.55 246.849 412.415 258.803C407.279 270.756 414.186 284.09 427.841 288.586C441.496 293.081 456.728 287.035 461.864 275.082Z" fill="white"/>
<path d="M437.129 291.052C432.997 291.052 428.885 290.227 425.065 288.59C418.463 285.764 413.514 280.857 411.128 274.772C406.206 262.213 413.873 248.487 428.223 244.177C442.572 239.867 458.252 246.58 463.175 259.141C465.56 265.225 465.095 271.759 461.866 277.537C458.638 283.316 453.032 287.649 446.08 289.737C443.154 290.615 440.136 291.052 437.129 291.052ZM437.13 244.791C434.41 244.791 431.648 245.178 428.934 245.992C415.729 249.959 408.672 262.59 413.203 274.149C415.398 279.749 419.952 284.265 426.028 286.865C432.103 289.466 438.971 289.842 445.368 287.919C451.765 285.998 456.924 282.012 459.894 276.694C462.866 271.376 463.294 265.363 461.099 259.764C457.5 250.578 447.649 244.791 437.13 244.791Z" fill="#DCDBDD"/>
<path d="M439.704 254.272L442.279 258.84C442.693 259.575 443.494 260.085 444.422 260.202L450.179 260.935C452.513 261.231 453.445 263.742 451.756 265.183L447.59 268.738C446.92 269.31 446.614 270.134 446.772 270.942L447.756 275.962C448.154 277.996 445.715 279.548 443.628 278.587L438.478 276.217C437.649 275.836 436.659 275.836 435.829 276.217L430.68 278.587C428.593 279.548 426.153 277.996 426.552 275.962L427.535 270.942C427.693 270.133 427.387 269.31 426.717 268.738L422.551 265.183C420.862 263.742 421.795 261.231 424.128 260.935L429.886 260.202C430.812 260.084 431.614 259.574 432.027 258.84L434.602 254.272C435.644 252.421 438.66 252.421 439.704 254.272Z" fill="white"/>
<path d="M429.35 279.838C428.537 279.838 427.729 279.615 427.038 279.177C425.815 278.398 425.214 277.106 425.469 275.801L426.453 270.781C426.551 270.284 426.362 269.777 425.95 269.425L421.782 265.87C420.701 264.947 420.318 263.591 420.787 262.332C421.254 261.074 422.472 260.174 423.968 259.983L429.726 259.251C430.296 259.179 430.788 258.866 431.043 258.414L433.618 253.847C434.285 252.661 435.64 251.924 437.151 251.923H437.152C438.664 251.923 440.018 252.661 440.688 253.847L443.263 258.415C443.517 258.866 444.009 259.179 444.579 259.251L450.337 259.983C451.833 260.173 453.052 261.074 453.519 262.332C453.986 263.59 453.604 264.946 452.522 265.869L448.355 269.424C447.943 269.776 447.755 270.282 447.852 270.779L448.835 275.799C449.09 277.103 448.49 278.396 447.267 279.175C446.044 279.951 444.454 280.052 443.115 279.436L437.966 277.066C437.458 276.831 436.848 276.831 436.339 277.066L431.188 279.436C430.606 279.706 429.977 279.838 429.35 279.838ZM437.152 253.844C436.471 253.845 435.885 254.164 435.584 254.698L433.009 259.265C432.435 260.284 431.326 260.989 430.04 261.153L424.283 261.885C423.609 261.971 423.082 262.36 422.871 262.927C422.662 263.493 422.826 264.08 423.313 264.496L427.481 268.051C428.411 268.845 428.833 269.987 428.614 271.106L427.63 276.126C427.516 276.712 427.776 277.272 428.326 277.623C428.878 277.972 429.566 278.016 430.167 277.74L435.318 275.369C436.468 274.839 437.839 274.841 438.988 275.369L444.137 277.74C444.738 278.017 445.426 277.973 445.978 277.623C446.528 277.273 446.788 276.713 446.674 276.126L445.691 271.106C445.471 269.988 445.895 268.845 446.823 268.052L450.99 264.496C451.477 264.081 451.643 263.494 451.433 262.928C451.222 262.361 450.695 261.972 450.021 261.886L444.263 261.154C442.979 260.99 441.869 260.285 441.295 259.266L438.72 254.699C438.419 254.163 437.833 253.844 437.152 253.844Z" fill="#DCDBDD"/>
<path d="M162.769 112.285C166.882 112.285 170.217 109.367 170.217 105.766C170.217 102.166 166.882 99.2467 162.769 99.2467C158.656 99.2467 155.322 102.166 155.322 105.766C155.322 109.367 158.656 112.285 162.769 112.285Z" fill="#FF9E22"/>
<path d="M342.671 119.69C347.044 119.69 350.59 116.586 350.59 112.758C350.59 108.929 347.044 105.826 342.671 105.826C338.297 105.826 334.752 108.929 334.752 112.758C334.752 116.586 338.297 119.69 342.671 119.69Z" fill="#FFA000"/>
<path d="M78.4378 168.671C77.8116 170.265 75.8288 171.112 74.0084 170.564C72.188 170.016 71.2196 168.28 71.8458 166.687C72.472 165.093 74.4547 164.246 76.2752 164.794C78.0956 165.342 79.064 167.078 78.4378 168.671Z" fill="white"/>
<path d="M75.1368 171.69C74.6444 171.69 74.1433 171.62 73.652 171.472C72.4939 171.124 71.5617 170.402 71.0233 169.439C70.487 168.476 70.4102 167.388 70.8094 166.375C71.2064 165.362 72.0311 164.545 73.131 164.076C74.2321 163.605 75.4735 163.539 76.6316 163.887C79.0201 164.607 80.2955 166.892 79.4741 168.984V168.985C78.8227 170.645 77.0406 171.69 75.1368 171.69ZM75.1401 165.588C74.7815 165.588 74.4251 165.659 74.0939 165.801C73.5204 166.046 73.0905 166.472 72.8832 167C72.6759 167.528 72.7165 168.095 72.9962 168.597C73.2758 169.099 73.7616 169.476 74.3659 169.657C75.6073 170.033 76.9715 169.45 77.4025 168.36C77.8302 167.27 77.1645 166.077 75.9198 165.702C75.6643 165.625 75.4022 165.588 75.1401 165.588Z" fill="#FF9E22"/>
<path d="M221.113 266.708C224.007 255.982 216.419 245.234 204.167 242.701C191.914 240.169 179.636 246.811 176.743 257.536C173.85 268.262 181.437 279.01 193.69 281.543C205.942 284.075 218.22 277.434 221.113 266.708Z" fill="white"/>
<path d="M198.93 283.018C185.755 283.018 175.036 273.636 175.036 262.101C175.036 250.568 185.756 241.185 198.93 241.185C212.106 241.185 222.823 250.568 222.823 262.101C222.823 273.636 212.106 283.018 198.93 283.018ZM198.93 243.106C186.965 243.106 177.23 251.627 177.23 262.102C177.23 272.577 186.965 281.099 198.93 281.099C210.896 281.099 220.63 272.577 220.63 262.102C220.63 251.628 210.897 243.106 198.93 243.106Z" fill="#DCDBDD"/>
<path d="M185.273 258.428L187.339 259.249C186.925 260.687 186.891 262.156 187.195 263.562L185.079 264.247C184.006 264.593 183.469 265.632 183.877 266.566C184.285 267.5 185.484 267.977 186.557 267.631L188.673 266.946C189.521 268.177 190.671 269.263 192.083 270.11L191.156 271.899C190.687 272.805 191.155 273.876 192.201 274.291C193.248 274.707 194.477 274.309 194.946 273.404L195.873 271.616C197.531 271.987 199.222 272.029 200.839 271.778L201.645 273.623C202.053 274.557 203.252 275.034 204.325 274.688C205.396 274.341 205.935 273.302 205.527 272.368L204.721 270.524C206.13 269.798 207.369 268.808 208.333 267.589L210.399 268.41C211.445 268.826 212.675 268.428 213.144 267.523C213.613 266.618 213.145 265.547 212.099 265.131L210.033 264.31C210.446 262.872 210.48 261.403 210.177 259.997L212.293 259.312C213.366 258.966 213.903 257.927 213.495 256.993C213.087 256.059 211.887 255.582 210.815 255.928L208.698 256.613C207.851 255.382 206.7 254.296 205.289 253.449L206.215 251.66C206.685 250.755 206.217 249.684 205.17 249.268C204.124 248.852 202.895 249.25 202.425 250.155L201.499 251.943C199.841 251.572 198.15 251.53 196.533 251.781L195.727 249.936C195.319 249.002 194.119 248.525 193.047 248.871C191.974 249.218 191.437 250.257 191.845 251.191L192.651 253.035C191.242 253.761 190.003 254.751 189.039 255.97L186.972 255.149C185.926 254.733 184.697 255.131 184.228 256.036C183.758 256.941 184.225 258.013 185.273 258.428ZM202.148 255.096C206.412 256.789 208.318 261.154 206.406 264.844C204.494 268.534 199.487 270.153 195.223 268.459C190.959 266.766 189.053 262.402 190.964 258.711C192.878 255.021 197.884 253.404 202.148 255.096Z" fill="white"/>
<path d="M203.608 275.758C202.322 275.758 201.104 275.072 200.619 273.965L200.126 272.835C198.915 272.945 197.703 272.909 196.505 272.718L195.943 273.8C195.595 274.473 194.964 274.985 194.169 275.243C193.377 275.5 192.517 275.47 191.746 275.164C190.153 274.531 189.439 272.889 190.156 271.502L190.718 270.42C189.765 269.756 188.932 268.983 188.233 268.113L186.936 268.531C185.304 269.06 183.472 268.332 182.851 266.91C182.549 266.217 182.574 265.464 182.923 264.79C183.271 264.116 183.902 263.604 184.697 263.347L185.976 262.933C185.839 261.887 185.874 260.84 186.081 259.806L184.818 259.304C183.222 258.67 182.509 257.027 183.226 255.64C183.946 254.255 185.826 253.642 187.424 254.275L188.687 254.776C189.439 253.957 190.316 253.245 191.306 252.647L190.82 251.533C190.518 250.838 190.542 250.086 190.892 249.413C191.24 248.74 191.871 248.227 192.665 247.97C194.299 247.443 196.13 248.171 196.75 249.591L197.244 250.721C198.453 250.608 199.666 250.647 200.865 250.838L201.425 249.757C201.774 249.084 202.406 248.571 203.201 248.314C203.993 248.058 204.852 248.086 205.622 248.392C207.217 249.026 207.931 250.669 207.213 252.056L206.652 253.138C207.605 253.802 208.437 254.575 209.137 255.445L210.435 255.027C212.065 254.499 213.899 255.228 214.518 256.648C214.821 257.342 214.797 258.095 214.447 258.768C214.099 259.441 213.468 259.954 212.674 260.21L211.395 260.624C211.532 261.669 211.497 262.717 211.289 263.751L212.552 264.253C214.148 264.886 214.86 266.53 214.143 267.916C213.424 269.301 211.542 269.915 209.946 269.281L208.683 268.78C207.93 269.598 207.053 270.311 206.063 270.909L206.55 272.024C206.852 272.718 206.827 273.47 206.478 274.144C206.129 274.817 205.498 275.329 204.703 275.586C204.343 275.702 203.973 275.758 203.608 275.758ZM201.538 270.693L202.668 273.278C202.862 273.723 203.438 273.945 203.943 273.785C204.186 273.707 204.375 273.553 204.479 273.35C204.586 273.148 204.591 272.92 204.499 272.709L203.363 270.106L204.164 269.694C205.471 269.02 206.57 268.128 207.431 267.04L207.951 266.381L210.853 267.532C211.346 267.729 211.927 267.544 212.147 267.122C212.365 266.701 212.141 266.197 211.647 266.001L208.748 264.85L208.97 264.072C209.339 262.789 209.381 261.475 209.1 260.172L208.927 259.374L211.914 258.408C212.156 258.329 212.347 258.176 212.451 257.973C212.556 257.771 212.563 257.543 212.471 257.332C212.279 256.889 211.707 256.662 211.196 256.826L208.228 257.785L207.76 257.104C206.971 255.96 205.931 254.994 204.67 254.237L203.912 253.781L205.219 251.26C205.438 250.837 205.213 250.334 204.72 250.138C204.476 250.042 204.21 250.032 203.964 250.113C203.723 250.19 203.533 250.345 203.428 250.548L202.122 253.069L201.23 252.869C199.748 252.538 198.232 252.489 196.729 252.722L195.837 252.862L194.707 250.275C194.513 249.831 193.94 249.607 193.432 249.769C193.189 249.847 192.999 250.001 192.894 250.204C192.789 250.406 192.784 250.634 192.876 250.845L194.012 253.448L193.212 253.86C191.905 254.533 190.806 255.425 189.945 256.514L189.423 257.173L186.524 256.021C186.027 255.825 185.449 256.009 185.229 256.431C185.011 256.853 185.235 257.356 185.729 257.553L188.63 258.705L188.406 259.482C188.037 260.763 187.993 262.075 188.276 263.382L188.449 264.18L185.462 265.145C185.22 265.223 185.029 265.379 184.925 265.581C184.82 265.784 184.813 266.011 184.903 266.221C185.099 266.666 185.674 266.893 186.18 266.727L189.147 265.768L189.615 266.448C190.403 267.591 191.444 268.557 192.706 269.316L193.464 269.772L192.156 272.293C191.939 272.715 192.163 273.218 192.656 273.414C192.899 273.512 193.169 273.518 193.412 273.44C193.653 273.362 193.844 273.207 193.948 273.005L195.255 270.484L196.147 270.684C197.63 271.017 199.143 271.066 200.648 270.83L201.538 270.693ZM198.754 270.093C197.398 270.093 196.043 269.839 194.77 269.333C192.443 268.409 190.661 266.755 189.754 264.677C188.843 262.595 188.919 260.335 189.966 258.315C191.013 256.295 192.905 254.756 195.294 253.984C197.68 253.213 200.275 253.298 202.6 254.222C204.927 255.147 206.709 256.8 207.616 258.879C208.526 260.962 208.45 263.221 207.403 265.241C206.357 267.261 204.464 268.799 202.076 269.572C200.998 269.919 199.875 270.093 198.754 270.093ZM198.616 255.383C197.751 255.383 196.886 255.517 196.055 255.785C194.219 256.379 192.766 257.559 191.964 259.108C191.162 260.657 191.104 262.391 191.802 263.99C192.503 265.594 193.879 266.87 195.677 267.584C197.475 268.297 199.477 268.363 201.317 267.769C203.152 267.176 204.604 265.996 205.407 264.446C206.21 262.897 206.268 261.163 205.57 259.563C204.868 257.96 203.494 256.683 201.695 255.969C200.709 255.579 199.663 255.383 198.616 255.383Z" fill="#DCDBDD"/>
<path d="M25.9651 161.619C24.8937 164.345 21.5006 165.796 18.3861 164.858C15.2716 163.92 13.6146 160.95 14.686 158.224C15.7574 155.497 19.1505 154.047 22.265 154.985C25.3806 155.922 27.0365 158.893 25.9651 161.619Z" fill="white"/>
<path d="M20.3327 166.105C19.5595 166.105 18.7831 165.992 18.0297 165.765C16.2466 165.229 14.8077 164.116 13.9809 162.632C13.154 161.149 13.0367 159.472 13.6497 157.911C14.2627 156.35 15.5337 155.091 17.2292 154.367C18.9224 153.642 20.8382 153.54 22.6225 154.076C26.3029 155.184 28.2681 158.708 27.0025 161.931C26.3895 163.492 25.1185 164.751 23.4231 165.474C22.4448 165.894 21.391 166.105 20.3327 166.105ZM20.3217 155.658C19.5913 155.658 18.8665 155.803 18.1909 156.092C17.023 156.592 16.1468 157.458 15.7235 158.535C15.3012 159.611 15.3813 160.767 15.9527 161.79C16.5229 162.812 17.5143 163.579 18.7436 163.949C19.9719 164.321 21.2923 164.249 22.4624 163.749C23.6303 163.25 24.5065 162.383 24.9299 161.307C25.8017 159.086 24.4484 156.656 21.9097 155.893C21.3899 155.736 20.8547 155.658 20.3217 155.658Z" fill="#DCDBDD"/>
<path d="M425.888 243.334C425.541 243.334 425.197 243.189 424.985 242.919L401.273 212.863C400.93 212.426 401.055 211.829 401.552 211.527C402.051 211.226 402.734 211.335 403.079 211.771L426.791 241.828C427.134 242.265 427.009 242.862 426.511 243.163C426.32 243.278 426.104 243.334 425.888 243.334Z" fill="#DAD9DB"/>
<path d="M338.734 160.192C338.631 160.192 338.526 160.179 338.421 160.152L333.168 158.784L278.016 145.128C277.433 144.984 277.094 144.453 277.26 143.943C277.423 143.432 278.034 143.137 278.613 143.281L333.78 156.941L339.048 158.313C339.628 158.464 339.959 158.998 339.786 159.507C339.643 159.923 339.207 160.192 338.734 160.192Z" fill="#DAD9DB"/>
<path d="M136.801 221.798L101.376 155.866C101.12 155.386 101.355 154.813 101.903 154.588C102.451 154.36 103.104 154.568 103.363 155.048L137.504 218.592L201.486 166.167C201.929 165.806 202.621 165.825 203.036 166.212C203.45 166.598 203.427 167.206 202.985 167.569L136.801 221.798Z" fill="#DAD9DB"/>
<path d="M26.2908 158.825C25.8566 158.825 25.4453 158.596 25.2731 158.222C25.0472 157.729 25.3203 157.171 25.8829 156.973L63.6034 143.721C64.1659 143.525 64.8042 143.762 65.029 144.255C65.2549 144.747 64.9819 145.306 64.4193 145.504L26.6988 158.755C26.565 158.803 26.4268 158.825 26.2908 158.825Z" fill="#DAD9DB"/>
<path d="M422.343 142.238C421.936 142.238 421.545 142.039 421.356 141.697C421.092 141.22 421.318 140.646 421.863 140.414C456.839 125.517 457.762 126.397 458.434 127.041C458.843 127.432 458.813 128.039 458.367 128.397C458.07 128.633 457.668 128.703 457.31 128.609C454.627 128.91 434.852 137.017 422.823 142.142C422.668 142.207 422.503 142.238 422.343 142.238Z" fill="#DAD9DB"/>
<path d="M60.0776 243.437C78.3372 243.437 93.1395 230.479 93.1395 214.495C93.1395 198.511 78.3372 185.553 60.0776 185.553C41.818 185.553 27.0157 198.511 27.0157 214.495C27.0157 230.479 41.818 243.437 60.0776 243.437Z" fill="#FF9E22"/>
<path d="M60.0776 244.396C41.2426 244.396 25.919 230.982 25.919 214.494C25.919 198.006 41.2426 184.592 60.0776 184.592C60.6841 184.592 61.1743 185.022 61.1743 185.552C61.1743 186.082 60.6841 186.512 60.0776 186.512C42.4522 186.512 28.1123 199.065 28.1123 214.494C28.1123 229.923 42.4511 242.476 60.0776 242.476C60.6841 242.476 61.1743 242.906 61.1743 243.436C61.1743 243.967 60.6841 244.396 60.0776 244.396Z" fill="#FF9E22"/>
<path d="M60.0776 232.409C48.793 232.409 39.6129 224.372 39.6129 214.495C39.6129 204.616 48.793 196.579 60.0776 196.579C71.3622 196.579 80.5422 204.616 80.5422 214.495C80.5422 224.372 71.3622 232.409 60.0776 232.409ZM60.0776 199.459C50.6069 199.459 42.9029 206.204 42.9029 214.495C42.9029 222.785 50.6069 229.529 60.0776 229.529C69.5483 229.529 77.2523 222.785 77.2523 214.495C77.2523 206.204 69.5483 199.459 60.0776 199.459Z" fill="white"/>
<path d="M67.2924 216.52H60.0776C59.1695 216.52 58.4326 215.876 58.4326 215.08V204.564C58.4326 203.768 59.1695 203.124 60.0776 203.124C60.9856 203.124 61.7225 203.768 61.7225 204.564V213.64H67.2924C68.2005 213.64 68.9374 214.285 68.9374 215.08C68.9374 215.876 68.2005 216.52 67.2924 216.52Z" fill="white"/>
<path d="M113.223 139.775C116.238 127.425 107.246 115.274 93.1384 112.635C79.0309 109.995 65.1502 117.867 62.1351 130.217C59.12 142.566 68.1122 154.717 82.2197 157.357C96.3273 159.996 110.208 152.124 113.223 139.775Z" fill="white"/>
<path d="M87.6837 158.824C72.6749 158.824 60.4647 148.136 60.4647 134.998C60.4647 121.86 72.676 111.172 87.6837 111.172C102.692 111.172 114.902 121.861 114.902 134.998C114.902 148.136 102.691 158.824 87.6837 158.824ZM87.6837 113.091C73.8845 113.091 62.658 122.918 62.658 134.997C62.658 147.076 73.8845 156.903 87.6837 156.903C101.483 156.903 112.708 147.076 112.708 134.997C112.708 122.918 101.483 113.091 87.6837 113.091Z" fill="#DCDBDD"/>
<path d="M95.1607 146.212H80.1738C77.941 146.212 76.1315 144.628 76.1315 142.673V141.283C76.1315 136.24 80.8022 132.151 86.564 132.151H88.8012C94.563 132.151 99.2336 136.24 99.2336 141.283V142.646C99.2347 144.615 97.411 146.212 95.1607 146.212Z" fill="white"/>
<path d="M95.1607 147.172H80.1738C77.34 147.172 75.0338 145.153 75.0338 142.672V141.283C75.0338 135.718 80.2067 131.191 86.564 131.191H88.8012C95.1585 131.191 100.331 135.718 100.331 141.283V142.645C100.331 145.141 98.012 147.172 95.1607 147.172ZM86.564 133.111C81.4163 133.111 77.2271 136.777 77.2271 141.283V142.672C77.2271 144.094 78.5486 145.252 80.1738 145.252H95.1607C96.8024 145.252 98.1381 144.083 98.1381 142.646V141.284C98.1381 136.778 93.95 133.112 88.8012 133.112L86.564 133.111Z" fill="#DCDBDD"/>
<path d="M95.1036 128.22C95.1036 131.807 91.7819 134.715 87.6837 134.715C83.5855 134.715 80.2637 131.807 80.2637 128.22C80.2637 124.632 83.5855 121.724 87.6837 121.724C91.7808 121.724 95.1036 124.632 95.1036 128.22Z" fill="white"/>
<path d="M87.6837 135.675C82.9878 135.675 79.166 132.33 79.166 128.22C79.166 124.109 82.9867 120.764 87.6837 120.764C92.3795 120.764 96.2003 124.109 96.2003 128.22C96.2003 132.33 92.3795 135.675 87.6837 135.675ZM87.6837 122.684C84.1963 122.684 81.3593 125.167 81.3593 128.22C81.3593 131.273 84.1963 133.755 87.6837 133.755C91.1699 133.755 94.007 131.273 94.007 128.22C94.007 125.167 91.1699 122.684 87.6837 122.684Z" fill="#DCDBDD"/>
<path d="M152.949 221.311C155.009 213.672 149.606 206.017 140.88 204.214C132.154 202.41 123.41 207.14 121.349 214.779C119.289 222.417 124.692 230.072 133.418 231.876C142.144 233.679 150.888 228.949 152.949 221.311Z" fill="white"/>
<path d="M137.151 233.2C127.595 233.2 119.82 226.395 119.82 218.029C119.82 209.663 127.595 202.857 137.151 202.857C146.708 202.857 154.483 209.663 154.483 218.029C154.483 226.395 146.708 233.2 137.151 233.2ZM137.151 204.777C128.805 204.777 122.013 210.721 122.013 218.029C122.013 225.335 128.804 231.28 137.151 231.28C145.498 231.28 152.29 225.336 152.29 218.029C152.29 210.721 145.499 204.777 137.151 204.777Z" fill="#DAD9DB"/>
<path d="M482.017 125.583C483.864 118.734 479.019 111.871 471.195 110.253C463.371 108.636 455.53 112.877 453.683 119.727C451.835 126.576 456.68 133.439 464.504 135.056C472.329 136.674 480.169 132.432 482.017 125.583Z" fill="#FF9E22"/>
<path d="M387.922 216.569C415.462 216.569 437.788 197.026 437.788 172.917C437.788 148.809 415.462 129.265 387.922 129.265C360.382 129.265 338.056 148.809 338.056 172.917C338.056 197.026 360.382 216.569 387.922 216.569Z" fill="#FF9E22"/>
<path d="M403.324 190.444H368.927C360.325 190.444 353.326 184.317 353.326 176.787C353.326 169.62 359.666 163.724 367.695 163.172C368.507 154.895 376.463 148.377 386.126 148.377C395.79 148.377 403.745 154.895 404.557 163.172C412.586 163.724 418.927 169.62 418.927 176.787C418.926 184.317 411.927 190.444 403.324 190.444ZM368.927 166.01C362.139 166.01 356.616 170.845 356.616 176.787C356.616 182.729 362.139 187.564 368.927 187.564H403.324C410.112 187.564 415.636 182.729 415.636 176.787C415.636 170.845 410.113 166.01 403.324 166.01H402.98C402.072 166.01 401.335 165.366 401.335 164.57C401.335 157.229 394.512 151.257 386.126 151.257C377.741 151.257 370.917 157.229 370.917 164.57C370.917 165.366 370.18 166.01 369.272 166.01H368.927Z" fill="white"/>
<path d="M386.126 182.187C385.218 182.187 384.481 181.543 384.481 180.747V165.277C384.481 164.481 385.218 163.837 386.126 163.837C387.034 163.837 387.771 164.481 387.771 165.277V180.747C387.771 181.543 387.034 182.187 386.126 182.187Z" fill="white"/>
<path d="M382.507 169.554C382.131 169.554 381.754 169.442 381.444 169.214C380.751 168.699 380.666 167.791 381.252 167.184L384.87 163.446C385.175 163.131 385.62 162.946 386.091 162.937C386.533 162.902 387.015 163.097 387.335 163.401L391.269 167.139C391.884 167.724 391.843 168.635 391.174 169.173C390.507 169.713 389.464 169.675 388.849 169.09L386.177 166.55L383.764 169.045C383.437 169.382 382.974 169.554 382.507 169.554Z" fill="white"/>
<path d="M386.126 218.939C385.519 218.939 385.029 218.509 385.029 217.979C385.029 217.449 385.519 217.019 386.126 217.019C413.764 217.019 436.248 197.336 436.248 173.142C436.248 148.948 413.764 129.265 386.126 129.265C385.519 129.265 385.029 128.835 385.029 128.305C385.029 127.775 385.519 127.345 386.126 127.345C414.973 127.345 438.442 147.889 438.442 173.142C438.442 198.395 414.972 218.939 386.126 218.939Z" fill="#FF9E22"/>
<path d="M292.801 185.554C316.891 164.465 316.891 130.274 292.801 109.185C268.71 88.0959 229.651 88.0959 205.56 109.185C181.469 130.274 181.469 164.465 205.56 185.554C229.651 206.643 268.71 206.643 292.801 185.554Z" fill="#FF9E22"/>
<path d="M310.871 148.329C310.265 148.329 309.775 147.899 309.775 147.369C309.775 118.121 282.593 94.3269 249.182 94.3269C215.772 94.3269 188.59 118.121 188.59 147.369C188.59 147.899 188.1 148.329 187.493 148.329C186.887 148.329 186.397 147.899 186.397 147.369C186.397 117.063 214.563 92.4069 249.182 92.4069C283.801 92.4069 311.968 117.063 311.968 147.369C311.968 147.899 311.478 148.329 310.871 148.329Z" fill="#FF9E22"/>
<path d="M249.746 187.267C253.949 187.267 257.357 184.284 257.357 180.605C257.357 176.925 253.949 173.942 249.746 173.942C245.543 173.942 242.135 176.925 242.135 180.605C242.135 184.284 245.543 187.267 249.746 187.267Z" fill="#F7CB53"/>
<path d="M249.746 188.227C244.945 188.227 241.039 184.808 241.039 180.605C241.039 176.402 244.946 172.982 249.746 172.982C254.547 172.982 258.455 176.402 258.455 180.605C258.455 184.808 254.547 188.227 249.746 188.227ZM249.746 174.902C246.154 174.902 243.232 177.46 243.232 180.604C243.232 183.748 246.154 186.306 249.746 186.306C253.338 186.306 256.261 183.748 256.261 180.604C256.261 177.46 253.339 174.902 249.746 174.902Z" fill="white"/>
<path d="M260.538 181.651H238.954C237.69 181.651 236.667 180.755 236.667 179.65V179.096C236.667 177.991 237.69 177.094 238.954 177.094H260.538C261.8 177.094 262.825 177.99 262.825 179.096V179.65C262.825 180.755 261.8 181.651 260.538 181.651Z" fill="#F7CB53"/>
<path d="M260.538 182.611H238.953C237.087 182.611 235.57 181.283 235.57 179.65V179.096C235.57 177.463 237.087 176.134 238.953 176.134H260.538C262.404 176.134 263.921 177.463 263.921 179.096V179.65C263.921 181.283 262.404 182.611 260.538 182.611ZM238.953 178.054C238.296 178.054 237.763 178.522 237.763 179.096V179.65C237.763 180.224 238.296 180.691 238.953 180.691H260.538C261.195 180.691 261.728 180.224 261.728 179.65V179.096C261.728 178.522 261.195 178.054 260.538 178.054H238.953Z" fill="white"/>
<path d="M280.598 133.443C280.598 118.388 266.526 106.21 249.268 106.439C232.973 106.655 219.53 118.146 218.917 132.401C218.529 141.437 223.217 149.525 230.68 154.668C232.288 155.777 233.267 157.441 233.267 159.233V166.637C233.267 169.812 236.207 172.385 239.833 172.385H259.661C263.288 172.385 266.227 169.812 266.227 166.637V159.237C266.227 157.447 267.198 155.779 268.806 154.672C275.985 149.729 280.598 142.059 280.598 133.443Z" fill="#F7CB53"/>
<path d="M259.66 173.344H239.832C235.606 173.344 232.169 170.336 232.169 166.637V159.233C232.169 157.761 231.378 156.372 230.001 155.421C221.99 149.901 217.436 141.282 217.82 132.365C218.458 117.514 232.264 105.705 249.249 105.479C257.87 105.383 266.017 108.219 272.162 113.516C278.308 118.816 281.693 125.893 281.693 133.443C281.693 142.07 277.241 150.083 269.481 155.427C268.108 156.373 267.321 157.762 267.321 159.237V166.637C267.323 170.336 263.885 173.344 259.66 173.344ZM249.75 107.395C249.595 107.395 249.44 107.396 249.284 107.398C233.464 107.608 220.607 118.606 220.012 132.436C219.651 140.866 223.785 148.694 231.357 153.912C233.267 155.228 234.362 157.167 234.362 159.232V166.636C234.362 169.276 236.815 171.423 239.832 171.423H259.66C262.676 171.423 265.129 169.276 265.129 166.636V159.236C265.129 157.167 266.221 155.229 268.126 153.917C275.354 148.939 279.499 141.476 279.499 133.442C279.499 126.409 276.346 119.819 270.623 114.883C265.012 110.046 257.616 107.395 249.75 107.395Z" fill="white"/>
<g opacity="0.67">
<path d="M232.923 117.14C232.923 117.14 222.39 125.044 226.036 139.41Z" fill="#F7CB53"/>
<path d="M226.035 140.37C225.533 140.37 225.079 140.066 224.965 139.619C221.219 124.86 231.759 116.749 232.209 116.412C232.669 116.068 233.36 116.113 233.752 116.515C234.147 116.917 234.096 117.522 233.637 117.868C233.228 118.178 223.653 125.604 227.106 139.202C227.236 139.719 226.863 140.232 226.272 140.347C226.194 140.363 226.114 140.37 226.035 140.37Z" fill="white"/>
</g>
<g opacity="0.28">
<path d="M270.777 121.832C270.777 124.293 268.498 126.288 265.686 126.288C262.874 126.288 260.595 124.293 260.595 121.832C260.595 119.37 262.874 117.375 265.686 117.375C268.498 117.375 270.777 119.37 270.777 121.832Z" fill="#F7CB53"/>
<path d="M265.686 127.248C262.275 127.248 259.499 124.818 259.499 121.832C259.499 118.845 262.274 116.415 265.686 116.415C269.098 116.415 271.873 118.845 271.873 121.832C271.873 124.818 269.098 127.248 265.686 127.248ZM265.686 118.335C263.484 118.335 261.692 119.904 261.692 121.832C261.692 123.759 263.484 125.328 265.686 125.328C267.888 125.328 269.68 123.759 269.68 121.832C269.68 119.904 267.888 118.335 265.686 118.335Z" fill="white"/>
</g>
<g opacity="0.28">
<path d="M270.257 133.625C271.662 133.625 272.802 132.628 272.802 131.397C272.802 130.167 271.662 129.169 270.257 129.169C268.851 129.169 267.711 130.167 267.711 131.397C267.711 132.628 268.851 133.625 270.257 133.625Z" fill="#F7CB53"/>
<path d="M270.257 134.585C268.249 134.585 266.615 133.155 266.615 131.397C266.615 129.639 268.249 128.209 270.257 128.209C272.265 128.209 273.899 129.64 273.899 131.397C273.9 133.156 272.265 134.585 270.257 134.585ZM270.257 130.129C269.458 130.129 268.808 130.698 268.808 131.397C268.808 132.096 269.458 132.665 270.257 132.665C271.056 132.665 271.705 132.097 271.705 131.397C271.705 130.697 271.056 130.129 270.257 130.129Z" fill="white"/>
</g>
<path d="M245.193 171.857L241.857 140.292C241.857 138.607 239.306 138.013 238.35 139.475C236.968 141.586 238.709 144.216 241.489 144.216H244.3C245.263 144.216 246.044 143.533 246.044 142.69V140.751C246.044 140.26 246.78 140.075 247.078 140.491L249.747 144.217" fill="#F7CB53"/>
<path d="M245.192 172.338C244.912 172.338 244.673 172.15 244.647 171.902L241.771 144.697H241.488C239.985 144.697 238.637 144.018 237.884 142.879C237.129 141.74 237.126 140.379 237.873 139.237C238.427 138.389 239.524 137.989 240.602 138.24C241.679 138.492 242.404 139.316 242.404 140.293L242.768 143.737H244.298C244.958 143.737 245.494 143.268 245.494 142.69V140.752C245.494 140.315 245.817 139.94 246.295 139.819C246.775 139.696 247.274 139.866 247.541 140.235L250.211 143.961C250.371 144.186 250.294 144.482 250.038 144.622C249.784 144.764 249.444 144.696 249.282 144.471L246.612 140.745L246.592 142.688C246.592 143.795 245.563 144.695 244.299 144.695H242.87L245.739 171.812C245.766 172.076 245.545 172.311 245.243 172.335C245.226 172.337 245.209 172.338 245.192 172.338ZM239.953 139.125C239.549 139.125 239.108 139.279 238.824 139.714C238.274 140.556 238.277 141.558 238.833 142.397C239.388 143.236 240.382 143.737 241.489 143.737H241.67L241.311 140.337C241.308 139.633 240.798 139.279 240.321 139.169C240.205 139.141 240.081 139.125 239.953 139.125Z" fill="white"/>
<path d="M254.299 171.857L257.635 140.292C257.635 138.607 260.186 138.013 261.142 139.475C262.524 141.586 260.783 144.216 258.003 144.216H255.192C254.229 144.216 253.448 143.533 253.448 142.69V140.751C253.448 140.26 252.712 140.075 252.414 140.491L249.745 144.217" fill="#F7CB53"/>
<path d="M254.302 172.337C254.284 172.337 254.267 172.336 254.25 172.336C253.948 172.312 253.726 172.077 253.754 171.813L256.62 144.696H255.193C253.93 144.696 252.901 143.796 252.901 142.689V140.751L250.211 144.471C250.051 144.696 249.714 144.764 249.455 144.622C249.199 144.481 249.121 144.184 249.282 143.96L251.951 140.234C252.218 139.864 252.709 139.695 253.198 139.817C253.677 139.938 253.999 140.313 253.999 140.75V142.688C253.999 143.266 254.535 143.735 255.194 143.735H256.723L257.091 140.247C257.089 139.314 257.813 138.49 258.891 138.238C259.976 137.987 261.066 138.388 261.621 139.235C262.368 140.376 262.364 141.737 261.61 142.877C260.855 144.016 259.508 144.695 258.005 144.695H257.721L254.848 171.9C254.819 172.15 254.58 172.337 254.302 172.337ZM257.821 143.736H258.004C259.111 143.736 260.105 143.235 260.66 142.396C261.216 141.557 261.219 140.555 260.669 139.713C260.294 139.14 259.648 139.057 259.173 139.167C258.695 139.278 258.186 139.631 258.186 140.291L257.821 143.736Z" fill="white"/>
<path d="M262.034 177.945H237.458C236.014 177.945 234.842 176.919 234.842 175.655V175.022C234.842 173.757 236.014 172.732 237.458 172.732H262.034C263.478 172.732 264.65 173.757 264.65 175.022V175.655C264.65 176.919 263.478 177.945 262.034 177.945Z" fill="#F7CB53"/>
<path d="M262.033 178.905H237.458C235.411 178.905 233.745 177.448 233.745 175.655V175.022C233.745 173.229 235.411 171.772 237.458 171.772H262.033C264.08 171.772 265.746 173.229 265.746 175.022V175.655C265.746 177.447 264.081 178.905 262.033 178.905ZM237.458 173.691C236.62 173.691 235.938 174.288 235.938 175.021V175.654C235.938 176.388 236.62 176.984 237.458 176.984H262.033C262.871 176.984 263.553 176.388 263.553 175.654V175.021C263.553 174.287 262.871 173.691 262.033 173.691H237.458Z" fill="white"/>
<path d="M263.851 173.582H235.641C234.197 173.582 233.025 172.556 233.025 171.292V170.658C233.025 169.394 234.197 168.369 235.641 168.369H263.851C265.295 168.369 266.467 169.394 266.467 170.658V171.292C266.467 172.556 265.295 173.582 263.851 173.582Z" fill="#F7CB53"/>
<path d="M263.851 174.542H235.641C233.593 174.542 231.928 173.083 231.928 171.292V170.658C231.928 168.866 233.593 167.409 235.641 167.409H263.851C265.899 167.409 267.564 168.867 267.564 170.658V171.292C267.563 173.084 265.899 174.542 263.851 174.542ZM235.641 169.329C234.803 169.329 234.121 169.926 234.121 170.658V171.292C234.121 172.025 234.803 172.622 235.641 172.622H263.851C264.689 172.622 265.371 172.024 265.371 171.292V170.658C265.371 169.925 264.689 169.329 263.851 169.329H235.641Z" fill="white"/>
<path d="M255.135 287.682C252.827 287.069 250.347 287.983 249.235 289.857L247.837 292.213C245.865 295.536 240.894 296.417 237.602 294.027L237.502 293.954C234.685 291.909 234.453 288.092 237.183 285.958C239.074 284.48 242.047 283.555 246.694 284.654C248.208 285.012 249.826 284.733 251.026 283.85L251.08 283.811C252.221 282.97 252.031 281.411 250.734 280.79C246.073 278.559 236.109 275.228 229.92 283.6L225.374 289.843C223.886 291.886 223.211 294.302 223.454 296.716L224.394 306.072L213.054 342.048C213.054 342.048 212.221 342.127 212.221 342.131L181.854 354.147L181.331 377.131C184.111 378.359 186.682 379.7 189.647 380.556C193.536 381.678 197.569 382.399 201.64 382.773C209.852 383.528 218.193 382.892 226.236 381.327C229.186 380.753 232.138 380.048 234.788 378.776C245.578 373.596 245.239 360.337 245.611 351.049C245.818 345.859 246.026 340.669 246.233 335.48C246.596 326.416 246.959 317.352 247.322 308.289C247.349 307.631 247.375 306.973 247.401 306.316L256.881 291.175C257.647 289.788 256.818 288.13 255.135 287.682Z" fill="#FFBA94"/>
<path d="M241.794 307.733C241.536 307.733 241.306 307.572 241.257 307.341C241.201 307.081 241.397 306.83 241.694 306.781C243.758 306.443 247.296 305.844 247.296 305.844L247.503 306.786C247.503 306.786 243.961 307.385 241.895 307.724C241.862 307.73 241.829 307.733 241.794 307.733Z" fill="#FB8E77"/>
<path d="M206.739 361.506C206.695 361.506 206.649 361.501 206.604 361.491C206.31 361.427 206.132 361.164 206.208 360.908L211.688 342.011C211.761 341.755 212.056 341.595 212.353 341.665C212.647 341.729 212.825 341.991 212.749 342.248L207.269 361.144C207.207 361.362 206.984 361.506 206.739 361.506Z" fill="#FB8E77"/>
<path d="M212.22 342.13V342.126V340.928C212.22 318.302 191.267 299.961 165.421 299.961H141.919C141.425 299.945 140.934 299.928 140.436 299.928H88.391C77.0922 299.928 67.4537 306.139 63.6768 314.871L63.6713 314.87L63.5934 315.058C63.5803 315.089 63.5671 315.121 63.554 315.153L41.4202 367.969L42.382 368.072L61.7894 370.15L61.5581 430.414H180.116L181.329 377.131L181.852 354.147L212.22 342.13Z" fill="#2F7DED"/>
<path d="M128.795 321.794C116.418 321.794 106.349 312.979 106.349 302.145V299.927C106.349 299.662 106.594 299.447 106.897 299.447C107.2 299.447 107.445 299.662 107.445 299.927V302.145C107.445 312.449 117.022 320.834 128.795 320.834C140.566 320.834 150.144 312.45 150.144 302.145V299.927C150.144 299.662 150.389 299.447 150.692 299.447C150.995 299.447 151.24 299.662 151.24 299.927V302.145C151.24 312.979 141.171 321.794 128.795 321.794Z" fill="#374081"/>
<path d="M113.811 311.1C113.636 311.1 113.464 311.027 113.357 310.889C111.269 308.189 110.165 305.031 110.165 301.758V299.927C110.165 299.662 110.411 299.447 110.713 299.447C111.016 299.447 111.262 299.662 111.262 299.927V301.758C111.262 304.838 112.3 307.811 114.265 310.351C114.435 310.571 114.37 310.868 114.118 311.017C114.024 311.075 113.918 311.1 113.811 311.1Z" fill="#374081"/>
<path d="M128.795 318.066C124.527 318.066 120.513 316.838 117.187 314.514C116.95 314.349 116.911 314.048 117.1 313.84C117.291 313.632 117.635 313.601 117.87 313.764C121.001 315.95 124.779 317.106 128.795 317.106C132.805 317.106 136.58 315.953 139.709 313.771C139.945 313.604 140.291 313.64 140.479 313.847C140.668 314.054 140.629 314.356 140.392 314.521C137.067 316.841 133.057 318.066 128.795 318.066Z" fill="#374081"/>
<path d="M144.529 310.045C144.437 310.045 144.343 310.024 144.258 309.982C143.995 309.852 143.902 309.559 144.052 309.327C145.54 307.031 146.327 304.415 146.327 301.759V299.928C146.327 299.663 146.573 299.448 146.876 299.448C147.178 299.448 147.424 299.663 147.424 299.928V301.759C147.424 304.58 146.587 307.361 145.005 309.802C144.905 309.957 144.719 310.045 144.529 310.045Z" fill="#374081"/>
<path d="M93.962 373.118L80.8328 372.672C80.5313 372.661 80.2944 372.439 80.3065 372.173C80.3196 371.909 80.5444 371.712 80.8767 371.712L93.1461 372.13L101.759 346.053C101.843 345.798 102.149 345.649 102.438 345.725C102.73 345.799 102.896 346.065 102.813 346.319L93.962 373.118Z" fill="#374081"/>
<path d="M181.329 377.611C181.026 377.611 180.781 377.396 180.781 377.131V339.78C180.781 339.515 181.026 339.3 181.329 339.3C181.632 339.3 181.877 339.515 181.877 339.78V377.131C181.877 377.396 181.633 377.611 181.329 377.611Z" fill="#374081"/>
<path d="M164.713 360.327C164.058 359.921 163.235 359.875 162.545 360.133C162.516 360.047 162.497 359.996 162.497 359.996C162.508 359.939 162.512 359.893 162.522 359.839L163.15 359.145C163.867 358.354 163.969 357.217 163.286 356.402C162.74 355.751 161.932 355.478 161.143 355.509L161.147 355.505C161.773 354.866 161.952 353.953 161.531 353.196C160.651 351.618 158.41 351.51 157.292 352.68L157.102 352.879C157.011 352.917 156.923 352.957 156.839 352.998C157.267 352.127 157.028 351.076 156.158 350.437C155.097 349.66 153.503 349.784 152.615 350.712L136.565 363.663C135.832 358.146 138.723 356.127 135.586 355.007C131.543 353.564 127.009 368.854 127.009 368.854L127.012 368.859C126.754 369.659 126.541 370.47 126.383 371.292L126.142 372.551L83.1095 381.876L85.4761 372.686L44.2704 368.071L32.9014 404.201C30.026 415.162 37.8451 426.09 50.3678 428.607C54.8597 429.511 59.3351 429.003 63.2239 427.445C63.9839 427.209 64.7384 426.935 65.483 426.623L138.014 393.162C143.661 390.557 148.496 386.782 152.051 382.139C158.225 374.074 165.245 363.053 165.245 363.053C165.954 362.175 165.715 360.949 164.713 360.327Z" fill="#FFBA94"/>
<path d="M149.864 360.616C149.74 360.616 149.615 360.58 149.512 360.505C149.28 360.334 149.25 360.032 149.443 359.828L156.437 352.514C156.634 352.31 156.979 352.285 157.21 352.453C157.442 352.624 157.472 352.927 157.279 353.13L150.285 360.444C150.175 360.558 150.021 360.616 149.864 360.616Z" fill="#FB8E77"/>
<path d="M153.306 363.874C153.182 363.874 153.057 363.837 152.954 363.762C152.723 363.591 152.692 363.289 152.885 363.085L159.881 355.771C160.078 355.568 160.422 355.543 160.654 355.711C160.885 355.882 160.916 356.184 160.723 356.388L153.727 363.702C153.618 363.815 153.462 363.874 153.306 363.874Z" fill="#FB8E77"/>
<path d="M155.626 368.107C155.507 368.107 155.387 368.074 155.287 368.004C155.049 367.84 155.008 367.54 155.196 367.33L161.936 359.834C162.123 359.627 162.468 359.591 162.706 359.754C162.944 359.918 162.984 360.219 162.797 360.428L156.057 367.925C155.948 368.045 155.787 368.107 155.626 368.107Z" fill="#FB8E77"/>
<path d="M54.171 388.204C53.9199 388.204 53.6951 388.054 53.6369 387.831C53.5689 387.573 53.7521 387.316 54.0482 387.255L82.9856 381.409C83.2861 381.349 83.5745 381.511 83.6436 381.769C83.7116 382.027 83.5284 382.284 83.2323 382.345L54.2949 388.191C54.2533 388.2 54.2116 388.204 54.171 388.204Z" fill="#FB8E77"/>
<path d="M169.309 223.813C168.209 215.774 160.406 209.538 150.927 209.538C144.816 209.538 139.412 212.14 136.037 216.134H128.168C116.894 216.134 107.756 224.133 107.756 234.002V250.534C108.785 250.165 109.911 249.957 111.093 249.957H118.269C118.806 249.957 119.328 250.006 119.838 250.086C124.543 246.238 127.909 239.582 128.691 237.95C128.742 237.842 128.782 237.758 128.82 237.676C128.839 237.636 128.854 237.601 128.854 237.601C130.833 243.863 151.217 243.169 162.771 242.157C163.936 242.055 165.089 241.869 166.246 241.732C166.744 241.673 167.243 241.627 167.739 241.559C168.395 241.469 169.052 241.338 169.657 241.094C170.175 240.884 170.677 240.629 171.15 240.35C172.049 239.819 172.856 239.169 173.536 238.429C174.221 237.685 174.775 236.849 175.174 235.959C175.584 235.043 175.826 234.069 175.893 233.086C175.906 232.898 175.912 232.71 175.912 232.522C175.908 228.608 173.186 225.247 169.309 223.813Z" fill="#813841"/>
<path d="M128.852 237.603C128.852 237.603 128.837 237.637 128.819 237.674C128.814 237.685 128.809 237.696 128.803 237.71C128.775 237.769 128.738 237.849 128.689 237.952C128.686 237.957 128.684 237.961 128.682 237.966C127.908 239.584 124.542 246.239 119.836 250.087C119.326 250.006 118.804 249.958 118.268 249.958H111.092C109.911 249.958 108.784 250.165 107.755 250.535C104.547 251.686 102.286 254.444 102.286 257.667V257.676C102.286 261.934 106.228 265.384 111.091 265.384H113.194V271.1C113.194 271.706 113.194 273.882 113.194 274.389V301.247C113.194 308.717 120.111 314.771 128.644 314.771H128.663C137.196 314.771 144.113 308.717 144.113 301.247V288.335C154.508 287.838 162.768 280.324 162.768 271.1V269.193V242.159C151.215 243.171 130.83 243.866 128.852 237.603Z" fill="#FFBA94"/>
<path opacity="0.46" d="M143.026 286.476H135.979C134.947 286.476 133.942 286.386 132.952 286.253L130.051 285.682C122.044 283.477 116.236 276.93 116.236 269.195V266.057L113.195 265.386V271.102C113.195 276.002 115.534 280.415 119.276 283.56L143.774 298.113V288.385L143.637 288.358C154.256 288.073 162.769 280.467 162.769 271.102V269.195C162.769 278.739 153.93 286.476 143.026 286.476Z" fill="#FB8E77"/>
<path d="M143.871 255.029C143.871 255.725 143.226 256.289 142.431 256.289C141.636 256.289 140.991 255.725 140.991 255.029C140.991 254.333 141.636 253.768 142.431 253.768C143.226 253.768 143.871 254.333 143.871 255.029Z" fill="#813841"/>
<path d="M161.186 255.029C161.186 255.725 160.541 256.289 159.746 256.289C158.951 256.289 158.306 255.725 158.306 255.029C158.306 254.333 158.951 253.768 159.746 253.768C160.541 253.768 161.186 254.333 161.186 255.029Z" fill="#813841"/>
<path d="M144.013 270.832C140.801 270.832 138.421 270.223 136.926 269.012C135.469 267.836 135.434 266.52 135.433 266.465C135.429 266.2 135.672 265.982 135.974 265.98C135.977 265.98 135.979 265.98 135.981 265.98C136.28 265.98 136.523 266.189 136.53 266.45C136.532 266.496 136.581 267.445 137.698 268.331C138.745 269.162 140.969 270.098 145.626 269.822C145.903 269.819 146.191 270.004 146.21 270.269C146.23 270.534 146.001 270.762 145.699 270.78C145.114 270.814 144.552 270.832 144.013 270.832Z" fill="#FB8E77"/>
<path d="M145.722 266.536C145.206 266.536 144.647 266.502 144.037 266.426C143.738 266.388 143.529 266.145 143.571 265.883C143.614 265.62 143.899 265.439 144.191 265.476C148.406 266.005 149.807 264.315 150.215 263.565C150.283 263.44 150.291 263.296 150.238 263.161L145.789 251.697C145.691 251.446 145.846 251.173 146.132 251.088C146.419 251.004 146.73 251.137 146.828 251.389L151.278 262.854C151.422 263.228 151.396 263.628 151.205 263.979C150.758 264.803 149.378 266.535 145.722 266.536Z" fill="#FB8E77"/>
<path d="M146.079 280.851C145.91 280.851 145.743 280.783 145.636 280.653C144.312 279.06 142.079 279.644 142.055 279.651C141.762 279.732 141.458 279.588 141.368 279.335C141.278 279.082 141.439 278.813 141.729 278.734C142.765 278.453 145.099 278.374 146.522 280.089C146.7 280.304 146.646 280.603 146.402 280.759C146.304 280.82 146.191 280.851 146.079 280.851Z" fill="#FB8E77"/>
<path d="M137.612 265.089C133.172 265.089 129.223 262.303 128.41 258.346V258.345C127.97 256.192 128.513 254.019 129.94 252.224C131.368 250.429 133.507 249.228 135.966 248.843C141.039 248.047 145.91 251.012 146.822 255.456C147.262 257.609 146.719 259.783 145.292 261.577C143.864 263.372 141.725 264.573 139.266 264.959C138.711 265.046 138.157 265.089 137.612 265.089ZM130.569 258.006C131.267 261.407 134.993 263.682 138.879 263.069C140.762 262.773 142.4 261.854 143.492 260.481C144.585 259.107 145 257.442 144.662 255.795C143.964 252.394 140.237 250.119 136.353 250.732C134.47 251.028 132.832 251.946 131.74 253.32C130.648 254.695 130.233 256.358 130.569 258.006Z" fill="white"/>
<path d="M158.525 265.38C154.085 265.38 150.134 262.595 149.323 258.637C148.883 256.485 149.426 254.312 150.852 252.517C152.28 250.721 154.419 249.52 156.878 249.135C159.337 248.749 161.821 249.225 163.87 250.475C165.921 251.724 167.292 253.597 167.733 255.75C168.642 260.193 165.253 264.456 160.178 265.252C159.624 265.338 159.071 265.38 158.525 265.38ZM158.545 250.924C158.12 250.924 157.693 250.957 157.266 251.024C155.383 251.319 153.745 252.238 152.653 253.612C151.56 254.986 151.145 256.65 151.483 258.298C152.179 261.699 155.911 263.976 159.792 263.36C163.677 262.75 166.271 259.487 165.575 256.086C165.237 254.438 164.187 253.004 162.618 252.048C161.405 251.31 159.993 250.924 158.545 250.924Z" fill="white"/>
<path d="M146.635 258.149C146.068 258.149 145.589 257.768 145.543 257.266C145.495 256.737 145.946 256.274 146.55 256.232L149.772 256.007C150.358 255.965 150.903 256.359 150.952 256.888C151 257.417 150.549 257.88 149.945 257.922L146.723 258.147C146.695 258.148 146.664 258.149 146.635 258.149Z" fill="white"/>
<path d="M133.092 248.93C133.631 249.014 134.252 248.831 134.863 248.684C135.475 248.525 136.093 248.378 136.636 248.267C137.18 248.155 137.809 248.046 138.439 247.951C139.062 247.845 139.713 247.767 140.146 247.483C140.566 247.214 140.625 246.681 139.908 246.185C139.231 245.7 137.701 245.334 135.9 245.699C134.104 246.071 132.94 246.989 132.6 247.684C132.234 248.401 132.573 248.853 133.092 248.93Z" fill="#813841"/>
<path d="M161.31 248.742C160.769 248.82 160.152 248.628 159.543 248.473C158.934 248.306 158.318 248.15 157.776 248.032C157.234 247.913 156.606 247.796 155.979 247.693C155.358 247.579 154.708 247.493 154.279 247.204C153.863 246.93 153.815 246.396 154.539 245.91C155.224 245.433 156.761 245.087 158.555 245.476C160.345 245.871 161.492 246.805 161.821 247.504C162.176 248.224 161.829 248.673 161.31 248.742Z" fill="#813841"/>
<path d="M108.26 260.455C108.053 260.455 107.853 260.351 107.761 260.173C107.636 259.933 107.757 259.647 108.033 259.537L110.473 258.564L108.501 254.904C108.372 254.664 108.489 254.378 108.764 254.266C109.033 254.153 109.364 254.254 109.493 254.495L111.937 259.033L108.487 260.411C108.414 260.44 108.336 260.455 108.26 260.455Z" fill="#FB8E77"/>
<path d="M435.164 364.266L409.866 314.13C409.632 313.614 409.374 313.11 409.102 312.614L409.07 312.551L409.067 312.551C404.83 304.888 396.188 299.636 386.205 299.636H335.7C313.286 299.636 307.552 315.689 307.552 336.317L303.322 430.416H411.847V366.765L430.069 364.813L435.164 364.266Z" fill="#FFA000"/>
<path d="M305.258 385.324C305.244 385.324 305.232 385.324 305.22 385.323C304.919 385.305 304.689 385.076 304.709 384.812L307.434 349.066C307.455 348.802 307.724 348.603 308.018 348.619C308.319 348.636 308.549 348.866 308.529 349.13L305.804 384.875C305.785 385.13 305.544 385.324 305.258 385.324Z" fill="#441B14"/>
<path d="M354.731 321.929C342.354 321.929 332.285 313.115 332.285 302.281V300.063C332.285 299.798 332.53 299.583 332.833 299.583C333.136 299.583 333.381 299.798 333.381 300.063V302.281C333.381 312.586 342.958 320.969 354.731 320.969C366.502 320.969 376.079 312.587 376.079 302.281V300.063C376.079 299.798 376.325 299.583 376.628 299.583C376.93 299.583 377.176 299.798 377.176 300.063V302.281C377.176 313.115 367.107 321.929 354.731 321.929Z" fill="#441B14"/>
<path d="M339.747 311.237C339.572 311.237 339.4 311.163 339.293 311.026C337.205 308.324 336.102 305.167 336.102 301.894V300.062C336.102 299.797 336.348 299.582 336.65 299.582C336.953 299.582 337.199 299.797 337.199 300.062V301.894C337.199 304.975 338.237 307.947 340.201 310.487C340.371 310.707 340.305 311.005 340.054 311.153C339.96 311.211 339.853 311.237 339.747 311.237Z" fill="#441B14"/>
<path d="M354.731 318.203C350.464 318.203 346.45 316.975 343.123 314.65C342.886 314.484 342.846 314.183 343.036 313.976C343.225 313.768 343.571 313.737 343.806 313.9C346.937 316.087 350.716 317.243 354.731 317.243C358.74 317.243 362.515 316.089 365.645 313.907C365.881 313.739 366.225 313.775 366.415 313.982C366.604 314.19 366.565 314.491 366.328 314.656C363.002 316.976 358.991 318.203 354.731 318.203Z" fill="#441B14"/>
<path d="M370.464 310.18C370.371 310.18 370.278 310.16 370.193 310.117C369.929 309.987 369.837 309.694 369.987 309.463C371.475 307.166 372.262 304.55 372.262 301.894V300.062C372.262 299.797 372.508 299.582 372.81 299.582C373.113 299.582 373.359 299.797 373.359 300.062V301.894C373.359 304.716 372.522 307.497 370.94 309.937C370.84 310.092 370.654 310.18 370.464 310.18Z" fill="#441B14"/>
<path d="M400.204 368.009L372.444 334.215C371.136 331.068 368.528 328.409 365.019 326.888C364.83 326.806 364.639 326.72 364.446 326.628C358.798 323.958 353.081 325.86 353.081 325.86C349.387 324.733 345.889 323.17 342.224 321.972C341.841 321.847 341.43 321.723 341.034 321.81C340.593 321.909 340.279 322.249 340.057 322.596C338.761 324.619 339.702 326.873 341.627 328.245C342.754 329.049 344.043 329.644 345.372 330.147C346.096 330.421 348.479 331.606 349.219 331.417C349.219 331.417 345.679 332.784 326.818 332.836C323.7 332.844 323.736 337.679 323.736 337.679C320.71 348.849 346.578 349.226 354.746 349.07L385.946 407.521C389.527 413.524 396.251 417.12 403.405 417.627L403.404 417.634C416.061 418.834 427.256 411.927 428.628 400.847L430.067 364.811L400.204 368.009Z" fill="#A55356"/>
<path d="M407.842 380.302C407.652 380.302 407.467 380.215 407.366 380.06L399.625 368.211C399.473 367.981 399.564 367.688 399.829 367.556C400.087 367.425 400.426 367.502 400.576 367.735L408.318 379.584C408.469 379.813 408.378 380.107 408.114 380.239C408.028 380.282 407.935 380.302 407.842 380.302Z" fill="#833742"/>
<path d="M336.427 339.191C330.713 339.191 324.003 337.367 323.63 337.263C323.341 337.185 323.181 336.915 323.272 336.661C323.362 336.409 323.666 336.269 323.96 336.348C324.075 336.38 335.763 339.557 341.058 337.587C341.334 337.484 341.658 337.596 341.776 337.841C341.895 338.085 341.765 338.366 341.485 338.47C340.083 338.993 338.308 339.191 336.427 339.191Z" fill="#833742"/>
<path d="M335.195 342.828C326.809 342.828 323.386 340.356 323.217 340.229C322.987 340.057 322.96 339.755 323.156 339.553C323.353 339.35 323.698 339.328 323.927 339.497C323.974 339.533 328.827 342.973 341.133 341.488C341.428 341.456 341.71 341.634 341.752 341.898C341.794 342.16 341.584 342.403 341.284 342.439C339.017 342.714 336.991 342.828 335.195 342.828Z" fill="#833742"/>
<path d="M336.984 346.28C331.711 346.28 326.529 344.725 326.255 344.643C325.969 344.555 325.819 344.282 325.916 344.031C326.017 343.782 326.328 343.651 326.615 343.735C326.696 343.759 334.875 346.209 340.866 344.958C341.162 344.89 341.456 345.056 341.526 345.313C341.597 345.571 341.414 345.829 341.12 345.892C339.796 346.169 338.386 346.28 336.984 346.28Z" fill="#833742"/>
<path d="M392.622 246.101C392.598 246.097 392.575 246.092 392.551 246.088C389.88 245.622 387.647 244.163 386.297 242.183C394.307 242.101 400.773 236.399 400.773 229.368C400.773 222.286 394.215 216.545 386.125 216.545C380.719 216.545 376.01 219.115 373.472 222.929C369.096 219.924 363.754 217.862 357.752 217.201C341.808 215.443 326.642 224.652 322.887 238.33C322.702 239.005 322.556 239.681 322.429 240.356C311.211 242.3 303.615 251.631 305.351 261.627C306.579 268.697 312.152 274.247 319.333 276.514C316.012 279.035 314.258 281.931 314.751 284.769C315.88 291.264 328.352 294.991 342.611 293.093C344.247 292.875 345.833 292.59 347.361 292.251C351.531 295.593 358.294 298.381 366.248 299.657C380.433 301.934 393.03 298.541 394.384 292.078C394.75 290.329 394.249 288.536 393.051 286.803C393.796 286.53 394.516 286.222 395.202 285.863C419.285 273.275 416.869 250.317 392.622 246.101Z" fill="#441B14"/>
<path d="M376.848 257.554L376.301 257.5C375.769 258.433 375.154 259.34 374.434 260.205L371.612 263.602C368.882 266.887 362.714 265.548 362.258 261.571C361.423 255.057 361.033 248.871 353.182 248.435C344.641 247.959 337.468 243.317 334.6 236.882C331.685 239.912 329.723 243.701 329.18 247.932L326.468 269.072C325.231 278.71 331.738 287.547 341.649 290.823L340.418 300.415C339.506 307.525 345.351 313.938 353.475 314.737C361.598 315.536 368.924 310.419 369.836 303.307L373.932 271.387L375.06 271.498C379.458 271.93 383.425 269.159 383.918 265.308C384.413 261.458 381.247 257.986 376.848 257.554Z" fill="#A55356"/>
<path opacity="0.46" d="M329.163 248.067L327.551 260.636L329.165 248.066L329.163 248.067Z" fill="#79323D"/>
<path opacity="0.46" d="M366.656 285.485C370.473 281.916 373.07 277.224 373.717 272.184L371.688 272.648C370.615 281.016 363.742 287.565 354.978 289.614C352.987 289.985 350.995 290.21 348.896 290.297C348.137 290.29 347.37 290.249 346.6 290.173C334.143 288.949 325.18 279.116 326.579 268.212L326.485 268.935C325.248 278.58 331.714 287.426 341.591 290.769L340.151 301.991L358.542 290.552C361.551 289.4 364.282 287.681 366.575 285.555L366.928 285.336L366.656 285.485Z" fill="#79323D"/>
<path d="M344.16 273.13C343.306 273.13 342.763 272.972 342.701 272.952C342.414 272.865 342.264 272.591 342.364 272.341C342.463 272.092 342.774 271.961 343.059 272.045C343.209 272.089 346.825 273.084 350.525 268.648C350.706 268.434 351.048 268.388 351.292 268.544C351.536 268.7 351.589 269.001 351.411 269.215C348.64 272.538 345.816 273.13 344.16 273.13Z" fill="#833742"/>
<path d="M346.903 258.802C346.812 259.507 347.393 260.145 348.199 260.223C349.006 260.303 349.733 259.794 349.823 259.089C349.914 258.383 349.333 257.746 348.527 257.667C347.721 257.588 346.993 258.096 346.903 258.802Z" fill="#441B14"/>
<path d="M330.383 257.177C330.292 257.883 330.873 258.52 331.679 258.599C332.485 258.679 333.213 258.17 333.303 257.464C333.393 256.759 332.813 256.121 332.007 256.043C331.201 255.964 330.474 256.472 330.383 257.177Z" fill="#441B14"/>
<path d="M339.224 267.671C335.86 267.671 334.862 266.076 334.586 265.376C334.47 265.082 334.49 264.763 334.643 264.479L338.762 256.808C338.891 256.568 339.215 256.465 339.492 256.577C339.766 256.691 339.883 256.977 339.754 257.217L335.635 264.889C335.605 264.946 335.601 265.006 335.623 265.063C335.827 265.583 336.589 266.788 339.483 266.707C339.805 266.717 340.038 266.908 340.048 267.173C340.057 267.438 339.819 267.66 339.516 267.667C339.417 267.67 339.32 267.671 339.224 267.671Z" fill="#833742"/>
<path d="M342.231 280.699C342.021 280.699 341.819 280.592 341.728 280.411C341.688 280.332 340.772 278.485 338.453 278.638C338.181 278.657 337.887 278.462 337.864 278.197C337.84 277.934 338.066 277.702 338.368 277.682C340.827 277.517 342.301 279.143 342.735 280.03C342.854 280.273 342.726 280.553 342.449 280.659C342.378 280.687 342.305 280.699 342.231 280.699Z" fill="#833742"/>
<path d="M354.162 255.776C353.629 255.922 352.982 255.796 352.349 255.707C351.714 255.605 351.072 255.517 350.513 255.459C349.952 255.4 349.305 255.352 348.66 255.321C348.02 255.277 347.355 255.264 346.883 255.013C346.427 254.777 346.303 254.226 346.961 253.634C347.583 253.055 349.075 252.511 350.933 252.702C352.788 252.901 354.071 253.735 354.499 254.424C354.959 255.133 354.674 255.641 354.162 255.776Z" fill="#441B14"/>
<path d="M330.778 252.127C331.062 252.327 331.483 252.355 331.886 252.407C332.294 252.45 332.703 252.504 333.056 252.564C333.409 252.625 333.81 252.709 334.207 252.803C334.603 252.887 335.008 252.999 335.355 252.906C335.69 252.821 335.904 252.449 335.656 251.906C335.428 251.379 334.664 250.717 333.497 250.516C332.331 250.32 331.347 250.684 330.915 251.099C330.46 251.523 330.503 251.938 330.778 252.127Z" fill="#441B14"/>
<path d="M378.426 267.436C378.289 267.436 378.153 267.392 378.046 267.302L375.675 265.308C375.226 264.932 375.182 264.306 375.577 263.884L378.002 261.292C378.193 261.086 378.539 261.058 378.773 261.225C379.007 261.393 379.041 261.695 378.85 261.9L376.425 264.492C376.391 264.529 376.395 264.584 376.434 264.615L378.806 266.609C379.024 266.793 379.03 267.097 378.821 267.288C378.715 267.387 378.57 267.436 378.426 267.436Z" fill="#833742"/>
<path opacity="0.46" d="M343.196 281.351C345.895 281.16 347.906 279.09 347.688 276.728C347.661 276.431 347.364 276.21 347.026 276.234C347.026 276.234 332.289 276.386 327.627 277.605C327.358 277.675 326.807 277.997 326.648 278.085C322.568 280.327 314.369 287.827 315.815 297.831L331.999 308.863C333.765 307.472 336.838 305.489 336.838 303.409V301.993C336.735 301.75 336.862 301.478 337.13 301.369L339.401 300.439C343.577 298.729 345.398 294.393 343.482 290.722L338.756 281.665L338.888 281.655L343.196 281.351Z" fill="#79323D"/>
<path d="M341.132 281.351C343.831 281.16 345.843 279.09 345.624 276.728C345.597 276.431 345.3 276.21 344.962 276.234C344.962 276.234 330.225 276.386 325.563 277.605C325.295 277.675 324.743 277.997 324.584 278.085C320.504 280.327 312.305 287.827 313.751 297.831L270.376 352.3C263.434 361.821 267.83 374.519 279.642 379.065C290.531 383.257 303.222 378.739 307.679 369.084L332.001 308.862L333.086 308.006C335.005 306.494 335.674 304.111 334.775 301.992C334.672 301.749 334.799 301.477 335.067 301.368L337.338 300.438C341.514 298.728 343.336 294.392 341.42 290.721L336.693 281.664L336.825 281.654L341.132 281.351Z" fill="#A55356"/>
<path opacity="0.15" d="M341.132 281.351C343.831 281.16 345.843 279.09 345.624 276.728C345.597 276.431 345.3 276.21 344.962 276.234C344.962 276.234 330.225 276.386 325.563 277.605C325.295 277.675 324.743 277.997 324.584 278.085C320.504 280.327 312.305 287.827 313.751 297.831L270.376 352.3C263.434 361.821 267.83 374.519 279.642 379.065C290.531 383.257 303.222 378.739 307.679 369.084L332.001 308.862L333.086 308.006C335.005 306.494 335.674 304.111 334.775 301.992C334.672 301.749 334.799 301.477 335.067 301.368L337.338 300.438C341.514 298.728 343.336 294.392 341.42 290.721L336.693 281.664L336.825 281.654L341.132 281.351Z" fill="#79323D"/>
<path d="M328.217 283.021C327.93 283.021 327.69 282.827 327.67 282.572C327.65 282.308 327.879 282.079 328.182 282.062L336.507 281.592C336.796 281.564 337.069 281.776 337.089 282.04C337.109 282.304 336.88 282.534 336.577 282.55L328.252 283.02C328.24 283.021 328.229 283.021 328.217 283.021Z" fill="#833742"/>
<path d="M330.408 287.738C330.121 287.738 329.88 287.543 329.861 287.289C329.841 287.025 330.07 286.795 330.373 286.779L338.699 286.308C338.996 286.284 339.261 286.492 339.281 286.757C339.301 287.021 339.072 287.25 338.769 287.267L330.443 287.737C330.431 287.738 330.42 287.738 330.408 287.738Z" fill="#833742"/>
<path d="M333.058 292.428C332.77 292.428 332.529 292.234 332.51 291.979C332.491 291.715 332.72 291.486 333.023 291.469L341.348 290.999C341.63 290.969 341.911 291.182 341.931 291.447C341.95 291.711 341.721 291.941 341.419 291.957L333.093 292.428C333.082 292.428 333.07 292.428 333.058 292.428Z" fill="#833742"/>
</svg>
