<svg width="1000" height="1000" viewBox="0 0 1000 1000" fill="none" xmlns="http://www.w3.org/2000/svg">
<path d="M231.7 900.9C231.7 903.5 231.067 905.733 229.8 907.6C228.533 909.533 226.7 911 224.3 912C221.9 913.067 219 913.6 215.6 913.6C214.067 913.6 212.6 913.5 211.2 913.3C209.733 913.1 208.333 912.8 207 912.4C205.733 912 204.5 911.533 203.3 911V902.4C205.367 903.333 207.5 904.167 209.7 904.9C211.9 905.633 214.1 906 216.3 906C217.833 906 219.033 905.8 219.9 905.4C220.833 905 221.533 904.433 222 903.7C222.4 903.033 222.6 902.267 222.6 901.4C222.6 900.267 222.233 899.333 221.5 898.6C220.767 897.8 219.767 897.067 218.5 896.4C217.167 895.733 215.7 895 214.1 894.2C213.1 893.733 212 893.167 210.8 892.5C209.6 891.767 208.467 890.9 207.4 889.9C206.333 888.967 205.467 887.767 204.8 886.3C204.133 884.9 203.8 883.2 203.8 881.2C203.8 878.6 204.4 876.367 205.6 874.5C206.733 872.7 208.433 871.3 210.7 870.3C212.9 869.3 215.5 868.8 218.5 868.8C220.767 868.8 222.933 869.067 225 869.6C227.067 870.133 229.2 870.9 231.4 871.9L228.5 879.1C226.5 878.3 224.7 877.667 223.1 877.2C221.5 876.733 219.867 876.5 218.2 876.5C217.067 876.5 216.1 876.7 215.3 877.1C214.433 877.433 213.8 877.933 213.4 878.6C213 879.267 212.8 880.033 212.8 880.9C212.8 881.967 213.1 882.833 213.7 883.5C214.3 884.233 215.2 884.933 216.4 885.6C217.667 886.267 219.2 887.033 221 887.9C223.267 888.9 225.167 890 226.7 891.2C228.3 892.333 229.533 893.667 230.4 895.2C231.267 896.733 231.7 898.633 231.7 900.9ZM260.3 879.7H269.4V913H262.4L261.2 908.7H260.7C259.967 909.833 259.067 910.767 258 911.5C256.933 912.233 255.767 912.767 254.5 913.1C253.233 913.433 251.9 913.6 250.5 913.6C248.1 913.6 246 913.167 244.2 912.3C242.467 911.5 241.1 910.2 240.1 908.4C239.1 906.6 238.6 904.267 238.6 901.4V879.7H247.7V899.1C247.7 901.5 248.133 903.3 249 904.5C249.867 905.767 251.233 906.4 253.1 906.4C254.967 906.4 256.4 905.967 257.4 905.1C258.467 904.233 259.2 903 259.6 901.4C260.067 899.733 260.3 897.733 260.3 895.4V879.7ZM278.9 866.6H288V877.4C288 878.667 287.967 879.9 287.9 881.1C287.833 882.367 287.733 883.333 287.6 884H288C288.867 882.6 290.067 881.433 291.6 880.5C293.067 879.5 295 879 297.4 879C301.133 879 304.167 880.467 306.5 883.4C308.833 886.333 310 890.633 310 896.3C310 900.033 309.467 903.2 308.4 905.8C307.333 908.4 305.833 910.333 303.9 911.6C301.967 912.933 299.733 913.6 297.2 913.6C294.733 913.6 292.8 913.167 291.4 912.3C290 911.367 288.867 910.367 288 909.3H287.4L285.9 913H278.9V866.6ZM294.5 886.3C292.9 886.3 291.633 886.6 290.7 887.2C289.767 887.867 289.1 888.867 288.7 890.2C288.3 891.533 288.067 893.2 288 895.2V896.1C288 899.367 288.467 901.867 289.4 903.6C290.4 905.333 292.133 906.2 294.6 906.2C296.467 906.2 297.967 905.333 299.1 903.6C300.233 901.867 300.8 899.367 300.8 896.1C300.8 892.833 300.233 890.367 299.1 888.7C297.967 887.1 296.433 886.3 294.5 886.3ZM330.6 900.3H314.6V892.8H330.6V900.3ZM356.4 876.5C354.6 876.5 353.033 876.833 351.7 877.5C350.3 878.167 349.133 879.167 348.2 880.5C347.333 881.767 346.633 883.3 346.1 885.1C345.633 886.967 345.4 889.033 345.4 891.3C345.4 894.367 345.8 897 346.6 899.2C347.333 901.4 348.5 903.067 350.1 904.2C351.7 905.333 353.8 905.9 356.4 905.9C358.133 905.9 359.9 905.7 361.7 905.3C363.433 904.9 365.367 904.333 367.5 903.6V911.3C365.567 912.1 363.667 912.7 361.8 913.1C359.933 913.433 357.833 913.6 355.5 913.6C351.033 913.6 347.333 912.667 344.4 910.8C341.533 908.933 339.4 906.333 338 903C336.6 899.667 335.9 895.767 335.9 891.3C335.9 887.967 336.367 884.933 337.3 882.2C338.167 879.467 339.467 877.1 341.2 875.1C342.933 873.1 345.067 871.533 347.6 870.4C350.133 869.333 353.067 868.8 356.4 868.8C358.533 868.8 360.7 869.067 362.9 869.6C365.033 870.133 367.1 870.9 369.1 871.9L366.1 879.4C364.5 878.6 362.867 877.9 361.2 877.3C359.533 876.767 357.933 876.5 356.4 876.5ZM406.3 896.3C406.3 899.033 405.9 901.467 405.1 903.6C404.367 905.8 403.3 907.633 401.9 909.1C400.5 910.567 398.8 911.667 396.8 912.4C394.8 913.2 392.533 913.6 390 913.6C387.667 913.6 385.533 913.2 383.6 912.4C381.667 911.667 379.967 910.567 378.5 909.1C377.033 907.633 375.933 905.8 375.2 903.6C374.4 901.467 374 899.033 374 896.3C374 892.567 374.667 889.433 376 886.9C377.267 884.3 379.133 882.333 381.6 881C384 879.667 386.867 879 390.2 879C393.333 879 396.1 879.667 398.5 881C400.9 882.333 402.8 884.3 404.2 886.9C405.6 889.433 406.3 892.567 406.3 896.3ZM383.3 896.3C383.3 898.433 383.533 900.267 384 901.8C384.467 903.267 385.2 904.367 386.2 905.1C387.2 905.9 388.533 906.3 390.2 906.3C391.8 906.3 393.1 905.9 394.1 905.1C395.1 904.367 395.833 903.267 396.3 901.8C396.767 900.267 397 898.433 397 896.3C397 894.1 396.767 892.267 396.3 890.8C395.833 889.333 395.1 888.233 394.1 887.5C393.033 886.767 391.7 886.4 390.1 886.4C387.7 886.4 385.967 887.2 384.9 888.8C383.833 890.467 383.3 892.967 383.3 896.3ZM432.7 879C436.233 879 439.1 880 441.3 882C443.433 883.867 444.5 886.967 444.5 891.3V913H435.4V893.5C435.4 891.1 434.967 889.3 434.1 888.1C433.233 886.9 431.9 886.3 430.1 886.3C427.3 886.3 425.4 887.233 424.4 889.1C423.4 891.033 422.9 893.767 422.9 897.3V913H413.8V879.7H420.7L421.9 883.9H422.5C423.167 882.767 424.033 881.833 425.1 881.1C426.167 880.433 427.333 879.9 428.6 879.5C429.933 879.167 431.3 879 432.7 879ZM467.9 906.3C468.9 906.3 469.867 906.2 470.8 906C471.733 905.8 472.667 905.567 473.6 905.3V912C472.667 912.467 471.467 912.833 470 913.1C468.533 913.433 466.967 913.6 465.3 913.6C463.3 913.6 461.5 913.267 459.9 912.6C458.367 911.933 457.133 910.8 456.2 909.2C455.333 907.6 454.9 905.367 454.9 902.5V886.5H450.5V882.6L455.5 879.6L458.1 872.6H463.9V879.7H473.3V886.5H463.9V902.5C463.9 903.767 464.267 904.733 465 905.4C465.733 906 466.7 906.3 467.9 906.3ZM498.9 879C499.367 879 499.9 879.033 500.5 879.1C501.1 879.167 501.6 879.233 502 879.3L501.3 887.8C501.033 887.733 500.6 887.667 500 887.6C499.467 887.533 499 887.5 498.6 887.5C497.467 887.5 496.333 887.667 495.2 888C494.133 888.267 493.167 888.733 492.3 889.4C491.433 890.067 490.733 890.967 490.2 892.1C489.667 893.167 489.4 894.467 489.4 896V913H480.4V879.7H487.2L488.6 885.3H489C489.667 884.167 490.5 883.133 491.5 882.2C492.5 881.2 493.6 880.433 494.8 879.9C496.067 879.3 497.433 879 498.9 879ZM521.7 879C526.167 879 529.6 879.967 532 881.9C534.333 883.833 535.5 886.8 535.5 890.8V913H529.2L527.4 908.4H527.2C526.267 909.6 525.3 910.6 524.3 911.4C523.3 912.133 522.167 912.667 520.9 913C519.567 913.4 518 913.6 516.2 913.6C514.2 913.6 512.433 913.2 510.9 912.4C509.3 911.667 508.067 910.533 507.2 909C506.333 907.4 505.9 905.4 505.9 903C505.9 899.467 507.133 896.867 509.6 895.2C512.067 893.533 515.767 892.6 520.7 892.4L526.5 892.2V890.8C526.5 889.067 526.067 887.767 525.2 886.9C524.267 886.1 522.967 885.7 521.3 885.7C519.7 885.7 518.133 885.933 516.6 886.4C515.067 886.867 513.533 887.433 512 888.1L508.9 882C510.7 881.067 512.7 880.333 514.9 879.8C517.1 879.267 519.367 879 521.7 879ZM526.5 900.3V897.5L523 897.7C520.067 897.767 518.033 898.267 516.9 899.2C515.767 900.2 515.2 901.5 515.2 903.1C515.2 904.5 515.6 905.5 516.4 906.1C517.2 906.633 518.267 906.9 519.6 906.9C521.533 906.9 523.167 906.333 524.5 905.2C525.833 904.067 526.5 902.433 526.5 900.3ZM558.4 913.6C555.133 913.6 552.333 913 550 911.8C547.667 910.6 545.9 908.733 544.7 906.2C543.5 903.667 542.9 900.433 542.9 896.5C542.9 892.433 543.567 889.1 544.9 886.5C546.3 883.967 548.233 882.1 550.7 880.9C553.167 879.633 556 879 559.2 879C561.533 879 563.533 879.233 565.2 879.7C566.867 880.167 568.333 880.7 569.6 881.3L566.9 888.3C565.5 887.767 564.167 887.3 562.9 886.9C561.7 886.567 560.467 886.4 559.2 886.4C557.6 886.4 556.3 886.767 555.3 887.5C554.233 888.233 553.433 889.333 552.9 890.8C552.367 892.333 552.1 894.2 552.1 896.4C552.1 898.6 552.4 900.433 553 901.9C553.533 903.367 554.333 904.467 555.4 905.2C556.467 905.867 557.733 906.2 559.2 906.2C561.133 906.2 562.833 905.967 564.3 905.5C565.767 904.967 567.2 904.233 568.6 903.3V911.1C567.2 911.967 565.733 912.6 564.2 913C562.667 913.4 560.733 913.6 558.4 913.6ZM590.3 906.3C591.3 906.3 592.267 906.2 593.2 906C594.133 905.8 595.067 905.567 596 905.3V912C595.067 912.467 593.867 912.833 592.4 913.1C590.933 913.433 589.367 913.6 587.7 913.6C585.7 913.6 583.9 913.267 582.3 912.6C580.767 911.933 579.533 910.8 578.6 909.2C577.667 907.6 577.2 905.367 577.2 902.5V886.5H572.9V882.6L577.9 879.6L580.5 872.6H586.3V879.7H595.7V886.5H586.3V902.5C586.3 903.767 586.667 904.733 587.4 905.4C588.133 906 589.1 906.3 590.3 906.3ZM619.3 869.4H633.2C638.8 869.4 642.9 870.633 645.5 873.1C648.1 875.5 649.4 878.8 649.4 883C649.4 884.933 649.1 886.767 648.5 888.5C647.967 890.233 647.033 891.767 645.7 893.1C644.433 894.433 642.7 895.5 640.5 896.3C638.367 897.1 635.7 897.5 632.5 897.5H628.5V913H619.3V869.4ZM632.7 876.9H628.5V889.9H631.6C633.333 889.9 634.833 889.667 636.1 889.2C637.367 888.733 638.333 888 639 887C639.733 886.067 640.1 884.833 640.1 883.3C640.1 881.167 639.5 879.567 638.3 878.5C637.1 877.433 635.233 876.9 632.7 876.9ZM687.2 896.2C687.2 899 686.8 901.467 686 903.6C685.267 905.733 684.2 907.533 682.8 909C681.4 910.467 679.7 911.6 677.7 912.4C675.7 913.133 673.433 913.5 670.9 913.5C668.567 913.5 666.433 913.133 664.5 912.4C662.5 911.6 660.8 910.467 659.4 909C657.933 907.533 656.8 905.733 656 903.6C655.267 901.467 654.9 899 654.9 896.2C654.9 892.533 655.533 889.4 656.8 886.8C658.133 884.267 660 882.333 662.4 881C664.867 879.667 667.767 879 671.1 879C674.233 879 677 879.667 679.4 881C681.8 882.333 683.7 884.267 685.1 886.8C686.5 889.4 687.2 892.533 687.2 896.2ZM664.1 896.2C664.1 898.4 664.333 900.233 664.8 901.7C665.333 903.167 666.1 904.3 667.1 905.1C668.1 905.833 669.4 906.2 671 906.2C672.667 906.2 673.967 905.833 674.9 905.1C675.967 904.3 676.7 903.167 677.1 901.7C677.633 900.233 677.9 898.4 677.9 896.2C677.9 894 677.633 892.167 677.1 890.7C676.7 889.233 675.967 888.133 674.9 887.4C673.9 886.667 672.6 886.3 671 886.3C668.6 886.3 666.833 887.133 665.7 888.8C664.633 890.467 664.1 892.933 664.1 896.2ZM713.2 879C713.667 879 714.2 879.033 714.8 879.1C715.4 879.1 715.9 879.167 716.3 879.3L715.6 887.8C715.333 887.667 714.9 887.6 714.3 887.6C713.767 887.533 713.3 887.5 712.9 887.5C711.767 887.5 710.633 887.633 709.5 887.9C708.433 888.233 707.467 888.733 706.6 889.4C705.733 890.067 705.033 890.933 704.5 892C703.967 893.067 703.7 894.4 703.7 896V912.9H694.7V879.6H701.5L702.9 885.2H703.3C703.967 884.067 704.8 883.033 705.8 882.1C706.8 881.167 707.9 880.433 709.1 879.9C710.367 879.3 711.733 879 713.2 879ZM736.4 906.3C737.4 906.3 738.367 906.2 739.3 906C740.233 905.8 741.167 905.533 742.1 905.2V912C741.1 912.4 739.9 912.767 738.5 913.1C737.033 913.367 735.467 913.5 733.8 913.5C731.8 913.5 730 913.2 728.4 912.6C726.867 911.933 725.633 910.8 724.7 909.2C723.767 907.6 723.3 905.367 723.3 902.5V886.4H719V882.6L724 879.6L726.6 872.5H732.4V879.6H741.8V886.4H732.4V902.5C732.4 903.767 732.767 904.7 733.5 905.3C734.233 905.967 735.2 906.3 736.4 906.3ZM762.5 878.9C766.967 878.9 770.4 879.867 772.8 881.8C775.133 883.8 776.3 886.767 776.3 890.7V912.9H770L768.2 908.4H768C767.067 909.6 766.1 910.567 765.1 911.3C764.1 912.033 762.933 912.6 761.6 913C760.333 913.333 758.767 913.5 756.9 913.5C754.967 913.5 753.2 913.133 751.6 912.4C750.067 911.6 748.867 910.433 748 908.9C747.067 907.367 746.6 905.4 746.6 903C746.6 899.467 747.867 896.867 750.4 895.2C752.867 893.467 756.567 892.533 761.5 892.4L767.3 892.2V890.7C767.3 888.967 766.833 887.7 765.9 886.9C765.033 886.1 763.767 885.7 762.1 885.7C760.5 885.7 758.933 885.9 757.4 886.3C755.867 886.767 754.3 887.367 752.7 888.1L749.7 881.9C751.5 880.967 753.5 880.233 755.7 879.7C757.9 879.167 760.167 878.9 762.5 878.9ZM767.3 900.2V897.5L763.8 897.6C760.867 897.667 758.833 898.2 757.7 899.2C756.567 900.133 756 901.4 756 903C756 904.4 756.4 905.4 757.2 906C758 906.6 759.067 906.9 760.4 906.9C762.333 906.9 763.967 906.3 765.3 905.1C766.633 903.967 767.3 902.333 767.3 900.2ZM794.8 866.6V912.9H785.7V866.6H794.8Z" fill="#6D6D6D"/>
<path fill-rule="evenodd" clip-rule="evenodd" d="M348.9 234.2L342.3 229.2L357.2 209.5L363.1 214L364.5 212.2L373.7 219.2L372.3 221L401.2 242.9L402.6 241.1L411.8 248.1L410.5 249.9L415.8 254L401 273.6L394.2 268.5L375.6 293.1L369.3 288.3L387.9 263.7L355.3 239L336.7 263.6L330.3 258.8L348.9 234.2ZM405.2 249.2L389.5 261.7L396.5 267L412.1 254.5L412.2 254.4L405.2 249.2ZM397.9 243.7L390.9 238.4L375.2 251L382.2 256.3L397.9 243.7ZM383.6 232.8L376.6 227.5L360.9 240.1L367.9 245.4L383.6 232.8ZM346.6 229.2L353.6 234.5L369.3 221.9L362.3 216.7L346.6 229.2Z" fill="#FF9E22"/>
<path d="M538.4 512.8C534.7 499.8 526.6 486.9 513.8 482.4C506.5 479.8 497.8 481.3 491.5 485.6C505.3 454.3 491.2 411.9 460.6 394.1C425.3 373.6 377.2 384.2 348.2 413C337.3 370.6 283.5 347.4 243.2 364.3C202.8 381.3 181.4 431.1 192.1 473.5C165.9 464 134.2 472.3 116 493.4C106.7 504.2 99.3 531.1 100.5 556.6C102 586.9 127 610.6 157.3 610.7L452.7 612.3C478.4 615.6 505.4 605.2 522.3 585.6C539.2 566 545.4 537.7 538.4 512.8Z" fill="white"/>
<path fill-rule="evenodd" clip-rule="evenodd" d="M462.1 615.9C458.9 615.9 455.7 615.7 452.5 615.3L157.3 613.8C125.3 613.6 99 588.6 97.5 556.8C96.3 531.7 103.2 503.6 113.7 491.4C131.7 470.5 161.6 461.7 188 469C179.6 425.3 203 377.9 242 361.5C262.9 352.7 288.6 354 310.7 364.9C329.6 374.3 343.6 389.6 349.7 407.4C381.2 379 428.7 372 462.2 391.5C491.9 408.7 506.7 447.6 497 479.6C502.8 477.7 509.3 477.6 514.8 479.5C527 483.8 536.7 495.7 541.3 512C548.6 537.7 542 567.4 524.6 587.6C509.3 605.4 485.6 615.9 462.1 615.9ZM169.5 472.7C150.3 472.7 130.8 480.9 118.3 495.4C110.1 505 102.3 530.5 103.6 556.5C105 585.1 128.5 607.5 157.3 607.7L452.7 609.2C452.833 609.2 452.967 609.2 453.1 609.2C477.6 612.4 503.9 602.3 520 583.6C536.1 564.9 542.2 537.5 535.5 513.7C533.5 506.9 527.4 490.5 512.8 485.3C506.6 483.1 498.9 484.2 493.2 488.1C492 488.8 490.6 488.8 489.5 487.9C488.5 487 488.1 485.6 488.7 484.3C501.9 454.5 488.1 413.6 459.1 396.7C426.6 377.9 379.8 385.8 350.4 415.2C349.6 415.9 348.5 416.2 347.4 415.9C346.4 415.7 345.5 414.8 345.3 413.8C340.6 395.6 327 379.8 308 370.4C287.5 360.2 263.7 359 244.3 367.1C206.5 383 184.4 430.4 195 472.8C195.3 473.9 195 475 194.1 475.8C193.3 476.6 192.1 476.8 191 476.4C184.2 473.9 176.8 472.7 169.5 472.7Z" fill="#FF9E22"/>
<path d="M897.5 452.7C894.9 443.4 889 434.1 879.8 430.9C874.6 429 868.4 430.1 863.8 433.1C873.8 410.7 863.6 380.2 841.7 367.4C816.3 352.7 781.7 360.3 760.9 381C753 350.6 714.4 333.8 685.4 346C656.4 358.2 641 394 648.7 424.5C629.9 417.6 607.1 423.6 594.1 438.8C587.4 446.5 582 465.9 582.9 484.2C584 505.9 602 523 623.7 523.1L836 524.2C854.4 526.5 873.8 519.1 886 505C898.1 490.9 902.6 470.6 897.5 452.7Z" fill="white"/>
<path fill-rule="evenodd" clip-rule="evenodd" d="M843 527.7C840.6 527.7 838.2 527.533 835.8 527.2L623.7 526.1C600.3 526 581 507.7 579.9 484.4C579 466.1 584.1 445.7 591.8 436.8C604.6 421.9 625.7 415.4 644.7 420.1C639.3 388.6 656.3 355 684.2 343.2C699.5 336.8 718.2 337.7 734.4 345.7C747.7 352.3 757.7 363 762.3 375.5C785.2 355.5 819.2 350.8 843.2 364.8C864.4 377.1 875.2 404.5 869 427.6C873 426.6 877.1 426.7 880.9 428C889.9 431.2 897.1 439.9 900.5 451.9C905.9 470.9 901.2 492 888.3 507C877 520.1 860.1 527.7 843 527.7ZM632.5 424.7C618.9 424.7 605.2 430.5 596.4 440.8C590.7 447.4 585.1 465.8 586 484.1C587 504.1 603.5 519.9 623.7 520L836 521.1C836.133 521.1 836.267 521.1 836.4 521.1C853.7 523.4 872.3 516.3 883.7 503C895.1 489.8 899.4 470.4 894.6 453.6C893.2 448.8 889 437.3 878.8 433.7C874.7 432.3 869.4 433 865.5 435.7C864.4 436.4 862.9 436.3 861.9 435.5C860.8 434.6 860.5 433.1 861 431.9C870.3 410.8 860.6 381.9 840.1 370.1C817.1 356.7 784 362.3 763 383.2C762.3 383.9 761.1 384.2 760.1 384C759 383.7 758.2 382.8 757.9 381.8C754.6 369 745 357.8 731.6 351.2C717.1 344 700.3 343.1 686.6 348.8C659.8 360.1 644.1 393.7 651.7 423.8C652 424.8 651.6 426 650.8 426.8C649.9 427.5 648.7 427.7 647.7 427.4C642.8 425.6 637.6 424.7 632.5 424.7Z" fill="#FF9E22"/>
<path fill-rule="evenodd" clip-rule="evenodd" d="M562 369.4C560.4 369.4 558.9 368.4 558.3 366.8L556.4 360.9C556.1 360 554.9 359.3 554.1 359.3L544.5 358.7C543.5 358.5 542.3 359.1 541.9 359.9L539.2 365.5C538.7 366.4 537.9 367.1 536.9 367.4C536 367.7 534.9 367.7 534 367.2L527.6 364C525.7 363.1 524.9 360.8 525.8 358.9L528.6 353.3C529 352.5 528.8 351.2 528.1 350.6L521.8 343.3C521.2 342.5 520 342.1 519.1 342.4L513.2 344.4C511.2 345 509 344 508.3 342L506.1 335.1C505.4 333.1 506.5 330.9 508.5 330.3L514.4 328.3C515.3 328 516 326.9 516 326L516.6 316.5C516.8 315.4 516.2 314.3 515.4 313.9L509.8 311.1C508.9 310.6 508.2 309.8 507.8 308.9C507.5 307.9 507.6 306.8 508.1 305.9L511.3 299.5C511.7 298.6 512.5 297.9 513.5 297.6C514.4 297.2 515.5 297.3 516.4 297.8L522 300.5C522.8 300.9 524.1 300.7 524.7 300.1L531.9 293.8C532.8 293.2 533.2 291.9 532.9 291.1L530.9 285.1C530.2 283.1 531.3 280.9 533.3 280.3L540.1 278C542.1 277.3 544.3 278.4 545 280.4L547 286.3C547.3 287.2 548.4 287.9 549.3 287.9L558.8 288.5C559.8 288.7 561 288.1 561.4 287.3L564.2 281.7C564.6 280.8 565.4 280.1 566.4 279.8C567.4 279.5 568.4 279.5 569.3 280L575.8 283.2C576.7 283.6 577.4 284.4 577.7 285.4C578 286.4 578 287.4 577.5 288.3L574.7 293.9C574.3 294.7 574.6 296 575.2 296.6L581.5 303.9C582.1 304.7 583.4 305.1 584.2 304.8L590.1 302.8C591.1 302.5 592.1 302.6 593.1 303C594 303.5 594.7 304.3 595 305.2L597.3 312.1C598 314.1 596.9 316.2 594.9 316.9L588.9 318.9C588.1 319.2 587.3 320.3 587.4 321.2L586.8 330.7C586.6 331.8 587.1 332.9 588 333.3L593.5 336.1C594.5 336.6 595.2 337.4 595.5 338.3C595.8 339.3 595.7 340.4 595.3 341.3L592.1 347.7C591.6 348.6 590.8 349.3 589.9 349.6C588.9 350 587.8 349.9 586.9 349.4L581.3 346.7C580.5 346.2 579.3 346.5 578.7 347.1L571.4 353.4C570.6 354 570.2 355.3 570.5 356.1L572.4 362.1C573.1 364.1 572 366.3 570 366.9L563.2 369.2C562.8 369.333 562.4 369.4 562 369.4ZM554.3 356.9C556.1 356.9 558 358.2 558.7 360.1L560.7 366C560.9 366.8 561.7 367.1 562.4 366.9L569.2 364.6C570 364.4 570.4 363.6 570.1 362.8L568.1 356.9C567.5 355 568.3 352.6 569.9 351.5L577 345.4C578.2 344 580.6 343.6 582.4 344.5L588 347.2C588.4 347.4 588.767 347.433 589.1 347.3C589.5 347.2 589.7 346.9 589.9 346.6L593.1 340.2C593.3 339.867 593.333 339.5 593.2 339.1C593.1 338.7 592.8 338.5 592.5 338.3L586.9 335.5C585.1 334.6 584 332.4 584.3 330.4L584.9 321.2C584.9 319.3 586.3 317.2 588.2 316.6L594.1 314.6C594.8 314.4 595.2 313.6 595 312.8L592.7 306C592.6 305.7 592.3 305.4 592 305.2C591.667 305.067 591.3 305.033 590.9 305.1L585 307.1C583.1 307.8 580.7 307 579.6 305.4L573.5 298.3C572.1 297.1 571.7 294.6 572.5 292.8L575.3 287.3C575.5 286.9 575.5 286.5 575.4 286.2C575.3 285.8 575 285.5 574.7 285.4L568.3 282.2C567.9 282 567.5 282 567.2 282.1C566.8 282.2 566.5 282.5 566.4 282.8L563.6 288.4C562.7 290.2 560.5 291.3 558.5 290.9L549.2 290.3C547.3 290.4 545.3 289 544.7 287.1L542.7 281.2C542.4 280.4 541.6 280 540.9 280.3L534.1 282.6C533.4 282.8 533 283.6 533.2 284.4L535.2 290.3C535.8 292.2 535.1 294.5 533.4 295.7L526.4 301.8C525.1 303.2 522.7 303.6 520.9 302.7L515.3 300C514.967 299.8 514.6 299.767 514.2 299.9C513.9 300 513.6 300.2 513.4 300.6L510.2 307C510.067 307.333 510.067 307.7 510.2 308.1C510.3 308.4 510.5 308.7 510.9 308.9L516.5 311.7C518.2 312.6 519.4 314.8 519 316.8L518.4 326C518.5 327.9 517.1 330 515.2 330.6L509.2 332.6C508.5 332.8 508.1 333.6 508.4 334.4L510.7 341.2C510.9 341.9 511.7 342.3 512.4 342.1L518.4 340.1C520.2 339.4 522.6 340.2 523.8 341.8L529.9 348.9C531.2 350.1 531.7 352.6 530.8 354.4L528 359.9C527.7 360.6 528 361.5 528.7 361.8L535.1 365C535.4 365.2 535.8 365.2 536.2 365.1C536.5 365 536.8 364.7 537 364.4L539.8 358.8C540.6 357 542.8 355.9 544.8 356.3L554.1 356.9C554.167 356.9 554.233 356.9 554.3 356.9ZM551.7 345.8C542.4 345.8 533.7 339.9 530.6 330.7C526.7 319.1 533 306.5 544.6 302.6C550.2 300.7 556.2 301.1 561.5 303.7C566.9 306.4 570.8 310.9 572.7 316.5C574.6 322.1 574.2 328.2 571.5 333.5C568.9 338.8 564.4 342.7 558.7 344.6C556.4 345.4 554 345.8 551.7 345.8ZM551.7 303.8C549.6 303.8 547.4 304.2 545.4 304.9C535.1 308.3 529.5 319.6 532.9 329.9C536.4 340.2 547.6 345.8 558 342.3C563 340.6 567 337.1 569.4 332.4C571.7 327.7 572.1 322.3 570.4 317.3C568.7 312.3 565.2 308.3 560.5 305.9C557.7 304.5 554.7 303.8 551.7 303.8Z" fill="#FF9E22"/>
<path fill-rule="evenodd" clip-rule="evenodd" d="M650.7 332.4L649.9 336.8C649.8 337.7 648.9 338.3 648 338.1L644.2 337.5C643.4 337.3 642.3 337.8 641.9 338.7L638.8 343.6C638.2 344.3 638.2 345.5 638.7 346.2L641 349.4C641.5 350.1 641.3 351.1 640.6 351.6L637 354.2C636.2 354.8 635.2 354.6 634.7 353.8L632.5 350.7C631.9 350 630.8 349.6 630 349.9L624.3 351.2C623.4 351.3 622.5 352.1 622.4 353L621.7 356.8C621.6 357.7 620.7 358.3 619.8 358.1L615.5 357.4C614.6 357.2 614 356.4 614.1 355.5L614.8 351.7C614.9 350.8 614.4 349.8 613.6 349.4L608.6 346.3C607.9 345.7 606.7 345.7 606 346.2L602.9 348.4C602.1 349 601.1 348.8 600.6 348.1L598 344.4C597.5 343.7 597.6 342.7 598.4 342.2L601.5 339.9C602.3 339.4 602.6 338.3 602.3 337.4L601 331.7C600.9 330.8 600.1 330 599.2 329.8L595.4 329.2C594.5 329 593.9 328.2 594.1 327.3L594.8 322.9C595 322 595.8 321.4 596.7 321.6L600.5 322.2C601.4 322.4 602.5 321.9 602.8 321.1L605.9 316.1C606.5 315.4 606.5 314.2 606 313.5L603.8 310.3C603.3 309.6 603.4 308.6 604.2 308L607.8 305.5C608.5 305 609.5 305.1 610.1 305.9L612.3 309C612.8 309.8 613.9 310.1 614.8 309.8L620.5 308.5C621.4 308.4 622.2 307.6 622.4 306.7L623 302.9C623.2 302 624 301.4 624.9 301.6L629.3 302.3C630.2 302.4 630.8 303.3 630.6 304.2L630 308C629.8 308.9 630.4 309.9 631.2 310.3L636.1 313.4C636.8 314 638 314 638.8 313.5L641.9 311.2C642.6 310.7 643.7 310.9 644.2 311.6L646.7 315.3C647.3 316 647.1 317 646.4 317.5L643.2 319.8C642.5 320.3 642.1 321.4 642.4 322.3L643.7 328C643.8 328.9 644.6 329.7 645.5 329.9L649.3 330.5C650.2 330.7 650.8 331.5 650.7 332.4ZM624.5 317C617.5 315.8 610.8 320.6 609.6 327.7C608.4 334.8 613.1 341.5 620.2 342.7C627.3 343.9 634 339.1 635.2 332C636.4 324.9 631.6 318.2 624.5 317Z" fill="#FF9E22"/>
<path fill-rule="evenodd" clip-rule="evenodd" d="M490.6 66.9H512.6L674.1 40.2V31.4L709.2 31.3V39C730.5 49.5 752 60.2 764 66.5H781.5V87.6H781.2V130.7L735.6 130.8L735.5 87.6L723.6 87.7L722.6 402.9H659.9L659.4 87.7L515.7 88H459.6H457.8L457.9 199.7H470V234.8L457.4 234.9C457.467 236.433 457.5 237.967 457.5 239.5L457.6 247V250.3C458.4 250.433 459.167 250.6 459.9 250.8C462.1 251.5 464.3 252.4 466.2 253.7C468.1 254.9 469.9 256.4 471.4 258.1C472.9 259.9 474.2 261.8 475.1 263.9L475.5 264.7L475.8 265.5C475.9 266 476.2 266.5 476.3 267.1C476.6 268.2 476.9 269.3 477 270.6C477.2 271.9 477.2 272.7 477.3 273.7V274.1V274.3L477.2 274.7V275.6C477.2 276.133 477.133 276.667 477 277.2C476.7 279.5 476 281.7 475.1 283.8C474.2 285.9 472.9 287.7 471.4 289.5C469.9 291.2 468.2 292.6 466.3 293.9C464.4 295.1 462.3 296 460.2 296.6C459.1 296.9 458.1 297.2 456.8 297.3L455.9 297.4L455.5 297.5C455.3 297.5 455.2 297.5 455.1 297.5H453.7H453.2H452.8L451.9 297.4C451.367 297.4 450.833 297.333 450.3 297.2C449.2 297.1 448.1 296.8 447.1 296.5C445 295.8 443 294.8 441.3 293.5C439.5 292.2 438 290.6 436.8 288.9C435.6 287.2 434.6 285.3 434.1 283.3C433.6 281.4 433.3 279.3 433.5 277.4L433.6 277.1L434 277L434.1 277.3C435 279.1 435.9 280.6 436.9 282C438 283.4 439.2 284.6 440.5 285.6C441.8 286.6 443.1 287.5 444.5 288.1C445.967 288.767 447.433 289.267 448.9 289.6C449.7 289.7 450.4 289.8 451.2 289.9C451.6 289.9 451.967 289.9 452.3 289.9H452.9H453.1H453.2H453.3L454.7 289.8C454.8 289.8 455 289.8 455.1 289.8L455.3 289.7L455.8 289.6C456.4 289.5 457.1 289.2 457.8 289.1C459.2 288.5 460.6 287.9 461.8 287C463 286.2 464.1 285.2 465 284C465.9 282.9 466.6 281.6 467.2 280.3C467.7 278.9 468.2 277.5 468.3 276.1C468.367 275.767 468.4 275.4 468.4 275V274.1C468.3 273.2 468.3 272.1 468.2 271.7C468.1 271.1 467.9 270.4 467.7 269.7C467.6 269.4 467.4 269 467.3 268.7L467.1 268.2L466.9 267.7C466.3 266.4 465.5 265.2 464.5 264.1C463.6 263 462.5 262.1 461.3 261.4C460.1 260.6 458.7 260.1 457.4 259.6C456 259.2 454.6 259 453.2 258.9H452.9C450.5 258.8 448.6 256.8 448.6 254.4L448.7 246.9L448.9 239.4C448.967 237.933 449.033 236.433 449.1 234.9H435.8L435.7 199.7H447.7L447.5 88.1H417.5L417.4 74.4L479.7 74.3L490.6 66.9ZM707.2 365.3L690.7 351.4L673.9 365.3H707.2ZM671.1 143.3L690.4 159.5L710.2 143.3H671.1ZM707.7 136.6L690.3 121.9L672.4 136.6H707.7ZM673.4 189.5L690.5 203.8L707.9 189.4L673.4 189.5ZM707.8 182.8L690.4 168.2L672.6 182.9L707.8 182.8ZM671.2 233.8L690.5 250L710.2 233.7L671.2 233.8ZM707.9 227.1L690.4 212.5L672.6 227.2L707.9 227.1ZM671.1 280V280.3L690.6 296.7L711 279.9L671.1 280ZM708 273.3L690.5 258.7L672.7 273.3H708ZM671.4 326.7L690.7 342.9L710.5 326.7H671.4ZM708 320L690.6 305.3L672.7 320H708ZM685.4 301L671.1 289V312.8L685.4 301ZM685.3 254.3L671 242.3V266.1L685.3 254.3ZM685.3 208.1L671 196.1V219.9L685.3 208.1ZM685.2 163.8L670.9 151.8L671 175.5L685.2 163.8ZM685.1 117.7L670.8 105.7V129.4L685.1 117.7ZM690.3 113.4L710 97.2L671.1 97.3L690.3 113.4ZM712.1 104.1L695.5 117.7L712.1 131.7V104.1ZM712.2 150.2L695.6 163.9L712.2 177.8V150.2ZM712.3 194.5L695.7 208.2L712.3 222.1V194.5ZM712.4 240.7L695.8 254.4L712.4 268.3V240.7ZM712.5 287.4L695.9 301L712.5 315V287.4ZM712.6 333.6L696 347.2L712.6 361.2V333.6ZM685.6 347.2L671.3 335.2L671.4 358.9L685.6 347.2ZM749.5 66.7C738.1 60.9 723.1 53.5 709.2 46.6V54.5H717.2L717.3 66.8L749.5 66.7ZM666.1 66.8V54.6L674.1 54.5V47L553.7 66.9L666.1 66.8Z" fill="#FF9E22"/>
<path d="M722.6 778C722.6 784.8 717 790.4 710.2 790.4H333.2C326.4 790.4 320.8 784.8 320.8 778V371.9C320.8 365 326.4 359.5 333.2 359.5H710.2C717 359.5 722.6 365 722.6 371.9V778Z" fill="white"/>
<path fill-rule="evenodd" clip-rule="evenodd" d="M710.2 792.8H333.2C325 792.8 318.4 786.2 318.4 778V371.9C318.4 363.7 325 357.1 333.2 357.1H710.2C718.3 357.1 725 363.7 725 371.9V778C725 786.2 718.3 792.8 710.2 792.8ZM333.2 361.9C327.7 361.9 323.3 366.4 323.3 371.9V778C323.3 783.5 327.7 787.9 333.2 787.9H710.2C715.7 787.9 720.1 783.5 720.1 778V371.9C720.1 366.4 715.7 361.9 710.2 361.9H333.2Z" fill="#FF9E22"/>
<path d="M722.6 402.9V373.5C722.6 365.8 717 359.5 710.2 359.5H333.2C326.4 359.5 320.8 365.8 320.8 373.5V402.9H722.6Z" fill="white"/>
<path fill-rule="evenodd" clip-rule="evenodd" d="M722.6 405.4H320.8C319.5 405.4 318.4 404.3 318.4 402.9V373.5C318.4 364.4 325 357.1 333.2 357.1H710.2C718.3 357.1 725 364.4 725 373.5V402.9C725 404.3 723.9 405.4 722.6 405.4ZM323.3 400.5H720.1V373.5C720.1 367.1 715.7 361.9 710.2 361.9H333.2C327.7 361.9 323.3 367.1 323.3 373.5V400.5Z" fill="#FF9E22"/>
<path d="M358.8 389.3C354.1 389.3 350.4 385.6 350.4 380.9C350.4 376.3 354.1 372.6 358.8 372.6C363.4 372.6 367.1 376.3 367.1 380.9C367.1 385.6 363.4 389.3 358.8 389.3Z" fill="#FF9E22"/>
<path d="M390.4 389.7C385.8 389.7 382 386 382 381.4C382 376.7 385.8 373 390.4 373C395 373 398.8 376.7 398.8 381.4C398.8 386 395 389.7 390.4 389.7Z" fill="black"/>
<path fill-rule="evenodd" clip-rule="evenodd" d="M442.8 352.8C436.9 352.8 432 348 432 342C432 336 436.9 331.2 442.8 331.2C448.8 331.2 453.6 336 453.6 342C453.6 348 448.8 352.8 442.8 352.8ZM448.8 342C448.8 338.7 446.1 336.1 442.8 336.1C439.6 336.1 436.9 338.7 436.9 342C436.9 345.3 439.6 347.9 442.8 347.9C446.1 347.9 448.8 345.3 448.8 342Z" fill="#FF9E22"/>
<path d="M442.8 560.6V575.7H366.5V560.6H442.8Z" fill="#FFD9A9"/>
<path d="M427.5 588.7V603.8H366.5V588.7H427.5Z" fill="#FFD9A9"/>
<path d="M678.5 640.6V740.2H366.5V640.6H678.5Z" fill="#FF9E22"/>
<path d="M450.5 640.6V740.2H366.5V640.6H450.5Z" fill="#FFD9A9"/>
<path d="M545.3 560.6V575.7H481.7V560.6H545.3Z" fill="white"/>
<path fill-rule="evenodd" clip-rule="evenodd" d="M545.3 578.1H481.7C480.4 578.1 479.3 577.1 479.3 575.7V560.6C479.3 559.3 480.4 558.2 481.7 558.2H545.3C546.7 558.2 547.8 559.3 547.8 560.6V575.7C547.8 577.1 546.7 578.1 545.3 578.1ZM484.1 563.1V573.3H542.9V563.1H484.1Z" fill="#FF9E22"/>
<path d="M558 588.7V603.8H481.7V588.7H558Z" fill="white"/>
<path fill-rule="evenodd" clip-rule="evenodd" d="M558 606.3H481.7C480.4 606.3 479.3 605.2 479.3 603.8V588.7C479.3 587.4 480.4 586.3 481.7 586.3H558C559.4 586.3 560.5 587.4 560.5 588.7V603.8C560.5 605.2 559.4 606.3 558 606.3ZM484.1 591.2V601.4H555.6V591.2H484.1Z" fill="#FF9E22"/>
<path d="M662.6 560.6V575.7H596.9V560.6H662.6Z" fill="white"/>
<path fill-rule="evenodd" clip-rule="evenodd" d="M662.6 578.1H596.9C595.6 578.1 594.5 577 594.5 575.7V560.6C594.5 559.3 595.6 558.2 596.9 558.2H662.6C664 558.2 665.1 559.3 665.1 560.6V575.7C665.1 577 664 578.1 662.6 578.1ZM599.4 563.1V573.3H660.2V563.1H599.4Z" fill="#FF9E22"/>
<path d="M673.2 588.8V603.8H596.9V588.8H673.2Z" fill="white"/>
<path fill-rule="evenodd" clip-rule="evenodd" d="M673.2 606.3H596.9C595.6 606.3 594.5 605.2 594.5 603.8V588.8C594.5 587.4 595.6 586.3 596.9 586.3H673.2C674.6 586.3 675.7 587.4 675.7 588.8V603.8C675.7 605.2 674.6 606.3 673.2 606.3ZM599.3 591.2V601.4H670.8V591.2H599.3Z" fill="#FF9E22"/>
<path d="M405.7 515.3C385.2 515.3 368.7 498.7 368.7 478.2C368.7 457.7 385.2 441.1 405.7 441.1C426.3 441.1 442.8 457.7 442.8 478.2C442.8 498.7 426.3 515.3 405.7 515.3Z" fill="#FFD9A9"/>
<path d="M519.9 515.3C499.4 515.3 482.8 498.7 482.8 478.2C482.8 457.7 499.4 441.1 519.9 441.1C540.4 441.1 556.9 457.7 556.9 478.2C556.9 498.7 540.4 515.3 519.9 515.3Z" fill="white"/>
<path fill-rule="evenodd" clip-rule="evenodd" d="M519.9 517.7C498 517.7 480.3 500 480.3 478.2C480.3 456.3 498 438.6 519.9 438.6C541.7 438.6 559.4 456.3 559.4 478.2C559.4 500 541.7 517.7 519.9 517.7ZM554.5 478.2C554.5 459 539 443.5 519.9 443.5C500.7 443.5 485.2 459 485.2 478.2C485.2 497.3 500.7 512.8 519.9 512.8C539 512.8 554.5 497.3 554.5 478.2Z" fill="#FF9E22"/>
<path d="M634 515.3C613.5 515.3 596.9 498.7 596.9 478.2C596.9 457.7 613.5 441.1 634 441.1C654.5 441.1 671.1 457.7 671.1 478.2C671.1 498.7 654.5 515.3 634 515.3Z" fill="white"/>
<path fill-rule="evenodd" clip-rule="evenodd" d="M634 517.7C612.1 517.7 594.5 500 594.5 478.2C594.5 456.3 612.1 438.6 634 438.6C655.8 438.6 673.5 456.3 673.5 478.2C673.5 500 655.8 517.7 634 517.7ZM668.6 478.2C668.6 459 653.1 443.5 634 443.5C614.8 443.5 599.3 459 599.3 478.2C599.3 497.3 614.8 512.8 634 512.8C653.1 512.8 668.6 497.3 668.6 478.2Z" fill="#FF9E22"/>
<path fill-rule="evenodd" clip-rule="evenodd" d="M861.8 274.3C871.4 283.9 871.4 299.4 861.8 309C857.2 313.6 851.1 316.1 844.5 316.1C840.2 316.1 835.9 315 832.1 312.8L831.4 312.4L806.7 337.1C806.7 337.1 805.5 338.1 803.8 338.1C802.4 338.1 801.033 337.433 799.7 336.1C798.433 334.833 797.8 333.567 797.8 332.3C797.8 330.7 799 329.5 799 329.5L823.8 304.7L823.4 304C817.8 294.4 819.3 282.2 827.2 274.3C831.8 269.7 838 267.2 844.5 267.2C851 267.2 857.2 269.7 861.8 274.3ZM861.7 291.6C861.7 282.1 854 274.4 844.5 274.4C835 274.4 827.3 282.1 827.3 291.6C827.3 301.2 835 308.8 844.5 308.8C854 308.8 861.7 301.2 861.7 291.6Z" fill="#FF9E22"/>
<path d="M853.2 290.7V295.2H835.4V290.7H853.2Z" fill="#FF9E22"/>
<path d="M782.4 612.4C763.6 612.4 748.3 597.1 748.3 578.3C748.3 559.4 763.6 544.1 782.4 544.1C801.3 544.1 816.6 559.4 816.6 578.3C816.6 597.1 801.3 612.4 782.4 612.4Z" fill="#FF9E22"/>
<path d="M782.4 603.8C768.3 603.8 756.9 592.4 756.9 578.3C756.9 564.1 768.3 552.7 782.4 552.7C796.6 552.7 808 564.1 808 578.3C808 592.4 796.6 603.8 782.4 603.8Z" fill="white"/>
<path fill-rule="evenodd" clip-rule="evenodd" d="M782.4 604.8C767.7 604.8 755.9 592.9 755.9 578.3C755.9 563.6 767.7 551.7 782.4 551.7C797.1 551.7 809 563.6 809 578.3C809 592.9 797.1 604.8 782.4 604.8ZM807 578.3C807 564.7 796 553.7 782.4 553.7C768.8 553.7 757.8 564.7 757.8 578.3C757.8 591.9 768.8 602.8 782.4 602.8C796 602.8 807 591.9 807 578.3Z" fill="#FF9E22"/>
<path d="M782.4 579.2C781.9 579.2 781.4 578.8 781.4 578.3V565.2C781.4 564.7 781.9 564.2 782.4 564.2C783 564.2 783.4 564.7 783.4 565.2V578.3C783.4 578.8 783 579.2 782.4 579.2Z" fill="#FF9E22"/>
<path d="M797.7 579.2H782.4C781.9 579.2 781.4 578.8 781.4 578.3C781.4 577.7 781.9 577.3 782.4 577.3H797.7C798.2 577.3 798.7 577.7 798.7 578.3C798.7 578.8 798.2 579.2 797.7 579.2Z" fill="#FF9E22"/>
<path d="M783.4 555.6C783.4 556.1 783 556.6 782.4 556.6C781.9 556.6 781.4 556.1 781.4 555.6C781.4 555 781.9 554.5 782.4 554.5C783 554.5 783.4 555 783.4 555.6Z" fill="#FF9E22"/>
<path d="M799.2 562.9C798.8 563.3 798.2 563.3 797.8 562.9C797.4 562.5 797.4 561.9 797.8 561.5C798.2 561.1 798.8 561.1 799.2 561.5C799.6 561.9 799.6 562.5 799.2 562.9Z" fill="#FF9E22"/>
<path d="M805.1 579.3C804.6 579.3 804.1 578.8 804.1 578.3C804.1 577.7 804.6 577.2 805.1 577.2C805.7 577.2 806.1 577.7 806.1 578.3C806.1 578.8 805.7 579.3 805.1 579.3Z" fill="#FF9E22"/>
<path d="M797.8 595C797.4 594.6 797.4 594 797.8 593.6C798.2 593.2 798.8 593.2 799.2 593.6C799.6 594 799.6 594.6 799.2 595C798.8 595.4 798.2 595.4 797.8 595Z" fill="#FF9E22"/>
<path d="M781.4 601C781.4 600.4 781.9 599.9 782.4 599.9C783 599.9 783.4 600.4 783.4 601C783.4 601.5 783 602 782.4 602C781.9 602 781.4 601.5 781.4 601Z" fill="#FF9E22"/>
<path d="M765.7 593.6C766.1 593.2 766.7 593.2 767.1 593.6C767.5 594 767.5 594.6 767.1 595C766.7 595.4 766.1 595.4 765.7 595C765.3 594.6 765.3 594 765.7 593.6Z" fill="#FF9E22"/>
<path d="M759.7 577.2C760.3 577.2 760.8 577.7 760.8 578.3C760.8 578.8 760.3 579.3 759.7 579.3C759.2 579.3 758.7 578.8 758.7 578.3C758.7 577.7 759.2 577.2 759.7 577.2Z" fill="#FF9E22"/>
<path d="M767.1 561.5C767.5 561.9 767.5 562.5 767.1 562.9C766.7 563.3 766.1 563.3 765.7 562.9C765.3 562.5 765.3 561.9 765.7 561.5C766.1 561.1 766.7 561.1 767.1 561.5Z" fill="#FF9E22"/>
<path d="M818.1 565.2H832.4C832.9 565.2 833.4 564.8 833.4 564.2C833.4 563.7 832.9 563.2 832.4 563.2H818.1C817.5 563.2 817.1 563.7 817.1 564.2C817.1 564.8 817.5 565.2 818.1 565.2Z" fill="#FF9E22"/>
<path d="M832.4 566.4H818.1C816.8 566.4 815.8 565.4 815.8 564.2C815.8 563 816.8 562 818.1 562H832.4C833.6 562 834.6 563 834.6 564.2C834.6 565.4 833.6 566.4 832.4 566.4Z" fill="#FF9E22"/>
<path d="M832.4 591.3H818.1C817.5 591.3 817.1 591.7 817.1 592.3C817.1 592.8 817.5 593.3 818.1 593.3H832.4C832.9 593.3 833.4 592.8 833.4 592.3C833.4 591.7 832.9 591.3 832.4 591.3Z" fill="#FF9E22"/>
<path d="M832.4 594.5H818.1C816.8 594.5 815.8 593.5 815.8 592.3C815.8 591.1 816.8 590.1 818.1 590.1H832.4C833.6 590.1 834.6 591.1 834.6 592.3C834.6 593.5 833.6 594.5 832.4 594.5Z" fill="#FF9E22"/>
<path d="M850.2 577.3H823.4C822.9 577.3 822.5 577.7 822.5 578.3C822.5 578.8 822.9 579.2 823.4 579.2H850.2C850.8 579.2 851.2 578.8 851.2 578.3C851.2 577.7 850.8 577.3 850.2 577.3Z" fill="#FF9E22"/>
<path d="M850.2 580.5H823.4C822.2 580.5 821.2 579.5 821.2 578.3C821.2 577 822.2 576 823.4 576H850.2C851.4 576 852.4 577 852.4 578.3C852.4 579.5 851.4 580.5 850.2 580.5Z" fill="#FF9E22"/>
<path d="M280.6 616.9V601H331.3C345 601 356.1 612.1 356.1 625.9V738.4C356.1 743.3 360.2 747.4 365.1 747.4H412.7C417.7 747.4 421.7 743.3 421.7 738.4V608.9H437.6V738.4C437.6 752.1 426.4 763.3 412.7 763.3H365.1C351.4 763.3 340.2 752.1 340.2 738.4V625.9C340.2 620.9 336.2 616.9 331.3 616.9H280.6Z" fill="#FF9E22"/>
<path d="M148 617.5V599.9C148 590.2 155.9 582.4 165.5 582.4H274.5C284.2 582.4 292 590.2 292 599.9V617.5C292 627.2 284.2 635 274.5 635H165.5C155.9 635 148 627.2 148 617.5Z" fill="#FEFFFD"/>
<path fill-rule="evenodd" clip-rule="evenodd" d="M274.5 637.5H165.5C154.5 637.5 145.6 628.5 145.6 617.5V599.9C145.6 588.9 154.5 579.9 165.5 579.9H274.5C285.5 579.9 294.5 588.9 294.5 599.9V617.5C294.5 628.5 285.5 637.5 274.5 637.5ZM165.5 584.8C157.2 584.8 150.4 591.6 150.4 599.9V617.5C150.4 625.8 157.2 632.6 165.5 632.6H274.5C282.8 632.6 289.6 625.8 289.6 617.5V599.9C289.6 591.6 282.8 584.8 274.5 584.8H165.5Z" fill="#FF9E22"/>
<path d="M387.6 708V454.5C387.6 444.8 395.4 436.9 405.1 436.9H442.8C452.5 436.9 460.3 444.8 460.3 454.5V708C460.3 717.7 452.5 725.5 442.8 725.5H405.1C395.4 725.5 387.6 717.7 387.6 708Z" fill="#FEFFFD"/>
<path fill-rule="evenodd" clip-rule="evenodd" d="M442.8 728H405.1C394.1 728 385.1 719 385.1 708V454.5C385.1 443.5 394.1 434.5 405.1 434.5H442.8C453.8 434.5 462.8 443.5 462.8 454.5V708C462.8 719 453.8 728 442.8 728ZM405.1 439.4C396.8 439.4 390 446.1 390 454.5V708C390 716.3 396.8 723.1 405.1 723.1H442.8C451.1 723.1 457.9 716.3 457.9 708V454.5C457.9 446.1 451.1 439.4 442.8 439.4H405.1Z" fill="#FF9E22"/>
<path d="M400.7 704.3C400.7 701.633 400.7 698.933 400.7 696.2C400.7 693.8 397 693.8 397 696.2C397 698.933 397 701.633 397 704.3C397 706.7 400.7 706.7 400.7 704.3Z" fill="#FFD9A9"/>
<path d="M431.4 696.4C435.733 695.133 440.033 693.9 444.3 692.7Z" fill="#FFD9A9"/>
<path d="M431.9 698.1C436.233 696.9 440.533 695.7 444.8 694.5C447.1 693.8 446.1 690.3 443.9 690.9C439.567 692.167 435.267 693.4 431 694.6C428.7 695.2 429.7 698.8 431.9 698.1Z" fill="#FFD9A9"/>
<path d="M408.6 652.3C409.8 656.1 413 659.2 416.8 660.4Z" fill="#FFD9A9"/>
<path d="M406.8 652.8C408.4 657.3 411.8 660.6 416.3 662.2C418.5 662.9 419.5 659.4 417.3 658.6C414 657.5 411.5 655 410.3 651.8C409.5 649.6 406 650.6 406.8 652.8Z" fill="#FFD9A9"/>
<path d="M429.8 639.2C433 638.067 436.233 636.967 439.5 635.9Z" fill="#FFD9A9"/>
<path d="M430.2 641C433.467 639.867 436.733 638.767 440 637.7C442.2 636.9 441.3 633.4 439 634.1C435.733 635.233 432.5 636.333 429.3 637.4C427 638.2 428 641.7 430.2 641Z" fill="#FFD9A9"/>
<path d="M436 660.7C437.667 662.3 439.3 663.933 440.9 665.6Z" fill="#FFD9A9"/>
<path d="M434.7 662C436.367 663.6 438 665.233 439.6 666.9C441.2 668.6 443.8 666 442.2 664.3C440.533 662.633 438.9 661 437.3 659.4C435.7 657.7 433.1 660.3 434.7 662Z" fill="#FFD9A9"/>
<path d="M400.7 606.6C403.7 611.1 407.4 615.1 411.6 618.5Z" fill="#FFD9A9"/>
<path d="M399.1 607.5C402.2 612.1 405.9 616.3 410.3 619.8C412.1 621.3 414.7 618.7 412.9 617.2C408.8 613.9 405.2 610 402.3 605.7C400.9 603.7 397.8 605.6 399.1 607.5Z" fill="#FFD9A9"/>
<path d="M421.7 582.4C425.6 581.6 429.2 579.2 431.3 575.8Z" fill="#FFD9A9"/>
<path d="M422.2 584.2C426.6 583.2 430.4 580.5 432.9 576.7C434.2 574.7 431.1 572.9 429.8 574.9C427.7 577.9 424.7 579.8 421.2 580.7C418.9 581.2 419.9 584.7 422.2 584.2Z" fill="#FFD9A9"/>
<path d="M420.1 602.2C422.767 601.6 425.467 601 428.2 600.4Z" fill="#FFD9A9"/>
<path d="M420.6 603.9C423.267 603.367 425.967 602.8 428.7 602.2C431 601.7 430 598.2 427.7 598.7C425.033 599.233 422.333 599.8 419.6 600.4C417.3 600.9 418.3 604.4 420.6 603.9Z" fill="#FFD9A9"/>
<path d="M401.8 579C402.933 575.2 404.067 571.4 405.2 567.6Z" fill="#FFD9A9"/>
<path d="M403.6 579.5C404.733 575.7 405.833 571.9 406.9 568.1C407.6 565.9 404.1 564.9 403.4 567.1C402.267 570.9 401.133 574.7 400 578.5C399.4 580.8 402.9 581.7 403.6 579.5Z" fill="#FFD9A9"/>
<path d="M397.2 535.1C397.9 530.3 400.2 525.6 403.7 522.1Z" fill="#FFD9A9"/>
<path d="M398.9 535.6C399.7 531 401.7 526.8 405 523.4C406.6 521.7 404.1 519.1 402.4 520.8C398.7 524.7 396.3 529.4 395.4 534.7C395 537 398.6 538 398.9 535.6Z" fill="#FFD9A9"/>
<path d="M418.2 532.2C421.533 534.267 424.867 536.3 428.2 538.3Z" fill="#FFD9A9"/>
<path d="M417.3 533.7C420.633 535.767 423.967 537.833 427.3 539.9C429.3 541.2 431.1 538 429.1 536.8C425.767 534.733 422.467 532.667 419.2 530.6C417.1 529.3 415.3 532.5 417.3 533.7Z" fill="#FFD9A9"/>
<path d="M405.4 548.2C405.933 547.667 406.467 547.1 407 546.5Z" fill="#FFD9A9"/>
<path d="M406.7 549.5C407.233 548.9 407.767 548.333 408.3 547.8C410 546.2 407.4 543.6 405.7 545.2C405.167 545.8 404.633 546.367 404.1 546.9C402.4 548.5 405 551.1 406.7 549.5Z" fill="#FFD9A9"/>
<path d="M405.5 483.1C405.9 486.8 407.5 490.3 410 493.1Z" fill="#FFD9A9"/>
<path d="M403.7 483.6C404.2 487.7 406 491.3 408.7 494.4C410.2 496.2 412.8 493.6 411.3 491.8C409 489.2 407.7 486.1 407.2 482.6C406.9 480.3 403.4 481.3 403.7 483.6Z" fill="#FFD9A9"/>
<path d="M395.5 450.6C396.5 453.1 399.6 454.5 402.1 453.7Z" fill="#FFD9A9"/>
<path d="M393.9 451.5C395.4 454.8 399.2 456.4 402.6 455.5C404.8 454.9 403.9 451.3 401.6 452C399.7 452.5 397.9 451.5 397.1 449.7C396.1 447.5 393 449.4 393.9 451.5Z" fill="#FFD9A9"/>
<path d="M428 449C428.533 450.133 429.067 451.233 429.6 452.3Z" fill="#FFD9A9"/>
<path d="M426.4 450C426.933 451.067 427.467 452.133 428 453.2C429.1 455.3 432.3 453.4 431.2 451.4C430.667 450.267 430.133 449.167 429.6 448.1C428.5 446 425.3 447.9 426.4 450Z" fill="#FFD9A9"/>
<path d="M439.5 496.1C442.233 498.833 444.967 501.533 447.7 504.2Z" fill="#FFD9A9"/>
<path d="M438.2 497.4C440.933 500.133 443.667 502.833 446.4 505.5C448 507.2 450.6 504.6 449 503C446.267 500.267 443.533 497.533 440.8 494.8C439.2 493.2 436.6 495.7 438.2 497.4Z" fill="#FFD9A9"/>
<path d="M421.9 476.8C422.967 475.733 424.033 474.633 425.1 473.5Z" fill="#FFD9A9"/>
<path d="M423.2 478.1C424.267 477.033 425.333 475.933 426.4 474.8C428 473.1 425.4 470.5 423.8 472.2C422.733 473.333 421.667 474.467 420.6 475.6C419 477.3 421.6 479.9 423.2 478.1Z" fill="#FFD9A9"/>
<path d="M442.6 458.7C442.6 461.433 442.6 464.133 442.6 466.8C442.6 469.2 446.2 469.2 446.2 466.8C446.2 464.133 446.2 461.433 446.2 458.7C446.2 456.3 442.6 456.3 442.6 458.7Z" fill="#FFD9A9"/>
<path d="M445.7 545C446.233 547.2 446.767 549.367 447.3 551.5Z" fill="#FFD9A9"/>
<path d="M443.9 545.5C444.433 547.633 445 549.8 445.6 552C446.1 554.3 449.7 553.3 449.1 551C448.567 548.867 448 546.7 447.4 544.5C446.9 542.2 443.3 543.2 443.9 545.5Z" fill="#FFD9A9"/>
<path d="M447.7 593.7C449.3 592.633 450.933 591.567 452.6 590.5Z" fill="#FFD9A9"/>
<path d="M448.6 595.3C450.2 594.233 451.833 593.133 453.5 592C455.4 590.7 453.6 587.6 451.6 588.9C450 589.967 448.367 591.033 446.7 592.1C444.8 593.4 446.6 596.6 448.6 595.3Z" fill="#FFD9A9"/>
<path d="M395.6 642.5C395.8 638.8 397.5 635.1 400.4 632.7Z" fill="#FFD9A9"/>
<path d="M397.4 642.5C397.7 639.1 399.2 636.2 401.7 634C403.5 632.4 400.9 629.8 399.1 631.4C395.9 634.3 394.1 638.2 393.8 642.5C393.6 644.9 397.3 644.9 397.4 642.5Z" fill="#FFD9A9"/>
<path d="M445.9 616.5C447.033 620.3 448.167 624.1 449.3 627.9Z" fill="#FFD9A9"/>
<path d="M444.1 617C445.233 620.8 446.4 624.6 447.6 628.4C448.2 630.6 451.8 629.6 451.1 627.4C449.967 623.6 448.8 619.833 447.6 616.1C447 613.8 443.4 614.8 444.1 617Z" fill="#FFD9A9"/>
<path d="M415.2 684.8C414.4 689.2 414.8 693.8 416.5 697.9Z" fill="#FFD9A9"/>
<path d="M413.5 684.3C412.6 689.1 413 693.9 414.8 698.4C415.6 700.6 419.2 699.6 418.3 697.4C416.8 693.5 416.2 689.5 417 685.3C417.4 683 413.9 682 413.5 684.3Z" fill="#FFD9A9"/>
<path d="M434.6 714C436.8 713.4 438.967 712.8 441.1 712.2Z" fill="#FFD9A9"/>
<path d="M435.1 715.7C437.3 715.167 439.467 714.6 441.6 714C443.9 713.4 442.9 709.9 440.6 710.5C438.467 711.033 436.3 711.6 434.1 712.2C431.9 712.8 432.8 716.4 435.1 715.7Z" fill="#FFD9A9"/>
<path d="M433.1 515.6C433.7 517.6 435.8 519 437.9 518.8Z" fill="#FFD9A9"/>
<path d="M431.3 516.1C432.3 518.9 434.9 520.8 437.9 520.7C440.3 520.6 440.3 516.9 437.9 517C436.6 517.1 435.3 516.4 434.9 515.1C434.1 512.9 430.5 513.9 431.3 516.1Z" fill="#FFD9A9"/>
<path d="M452.6 528.6C453.133 529.2 453.667 529.767 454.2 530.3Z" fill="#FFD9A9"/>
<path d="M451.3 529.9C451.833 530.5 452.367 531.067 452.9 531.6C454.6 533.2 457.1 530.7 455.5 529C454.967 528.467 454.4 527.933 453.8 527.4C452.2 525.7 449.6 528.3 451.3 529.9Z" fill="#FFD9A9"/>
<path d="M285.7 299H187.4C186.1 299 185 297.9 185 296.6C185 295.2 186.1 294.2 187.4 294.2H285.7C287.1 294.2 288.2 295.2 288.2 296.6C288.2 297.9 287.1 299 285.7 299Z" fill="#FFD9A9"/>
<path d="M830.4 196.9H767.4C766.1 196.9 765 195.8 765 194.4C765 193.1 766.1 192 767.4 192H830.4C831.7 192 832.8 193.1 832.8 194.4C832.8 195.8 831.7 196.9 830.4 196.9Z" fill="#FFD9A9"/>
<path d="M830.4 210.7H732.1C730.7 210.7 729.6 209.6 729.6 208.2C729.6 206.9 730.7 205.8 732.1 205.8H830.4C831.7 205.8 832.8 206.9 832.8 208.2C832.8 209.6 831.7 210.7 830.4 210.7Z" fill="#FFD9A9"/>
<path d="M304.5 270.6H271.6C270.3 270.6 269.2 269.6 269.2 268.2C269.2 266.9 270.3 265.8 271.6 265.8H304.5C305.9 265.8 307 266.9 307 268.2C307 269.6 305.9 270.6 304.5 270.6Z" fill="#FFD9A9"/>
<path d="M353.7 319.3H320.8C319.5 319.3 318.4 318.2 318.4 316.8C318.4 315.5 319.5 314.4 320.8 314.4H353.7C355 314.4 356.1 315.5 356.1 316.8C356.1 318.2 355 319.3 353.7 319.3Z" fill="#FFD9A9"/>
<path d="M452.5 828.7C452.1 828.7 451.7 828.633 451.3 828.5L434.3 823.7C431.8 823 430.4 820.4 431.1 818C431.8 815.6 434.4 814.2 436.8 814.9L453.8 819.8C456.2 820.5 457.6 823 456.9 825.4C456.3 827.4 454.5 828.7 452.5 828.7Z" fill="#FF9E22"/>
<path d="M441.6 834.8C441.2 834.8 440.767 834.733 440.3 834.6C437.9 833.9 436.5 831.4 437.2 829L442.1 811.9C442.8 809.5 445.3 808.2 447.7 808.8C450.1 809.5 451.5 812 450.8 814.4L446 831.5C445.4 833.5 443.6 834.8 441.6 834.8Z" fill="#FF9E22"/>
<path d="M162.5 435.8C162.1 435.8 161.667 435.733 161.2 435.6L142.3 430.2C139.7 429.4 138.1 426.6 138.9 424C139.6 421.3 142.4 419.8 145.1 420.5L163.9 425.9C166.6 426.6 168.1 429.4 167.4 432.1C166.8 434.3 164.7 435.8 162.5 435.8Z" fill="#FF9E22"/>
<path d="M150.4 442.5C149.933 442.5 149.5 442.433 149.1 442.3C146.4 441.5 144.8 438.7 145.6 436.1L151 417.2C151.7 414.6 154.5 413 157.2 413.8C159.9 414.5 161.4 417.3 160.7 420L155.3 438.8C154.6 441 152.6 442.5 150.4 442.5Z" fill="#FF9E22"/>
<path d="M767.6 326.5C767.533 326.167 767.5 325.833 767.5 325.5L767.3 311.6C767.3 309.6 768.9 308 770.9 308C772.8 308 774.4 309.6 774.5 311.5L774.6 325.4C774.6 327.4 773.1 329 771.1 329C769.5 329 768.1 328 767.6 326.5Z" fill="#FF9E22"/>
<path d="M760.6 319.6C760.533 319.267 760.5 318.933 760.5 318.6C760.5 316.6 762 315 764 315L777.9 314.9C779.9 314.9 781.4 316.5 781.5 318.4C781.5 320.4 779.9 322 778 322L764.1 322.1C762.5 322.2 761.1 321.1 760.6 319.6Z" fill="#FF9E22"/>
<path d="M753.1 648.1C752.967 647.7 752.9 647.3 752.9 646.9L752.7 630.1C752.7 627.8 754.6 625.8 757 625.8C759.4 625.8 761.3 627.7 761.4 630L761.5 646.8C761.6 649.2 759.6 651.2 757.3 651.2C755.3 651.2 753.6 649.9 753.1 648.1Z" fill="#FF9E22"/>
<path d="M744.6 639.8C744.533 639.4 744.467 639 744.4 638.6C744.4 636.2 746.3 634.3 748.7 634.3L765.5 634.1C767.9 634.1 769.8 636 769.8 638.4C769.9 640.7 768 642.7 765.6 642.7L748.8 642.9C746.8 642.9 745.2 641.6 744.6 639.8Z" fill="#FF9E22"/>
<path fill-rule="evenodd" clip-rule="evenodd" d="M259.8 678.6V710.5H227.9V678.6H259.8ZM232.8 683.4V705.6H254.9V683.4H232.8Z" fill="#FFD9A9"/>
<path d="M202.5 688H223.7C224.5 688 225.2 687.3 225.2 686.5C225.2 685.7 224.5 685 223.7 685H202.5C201.7 685 201.1 685.7 201.1 686.5C201.1 687.3 201.7 688 202.5 688Z" fill="#FFD9A9"/>
<path d="M194.6 704H223.2C224.3 704 225.2 703.3 225.2 702.5C225.2 701.7 224.3 701.1 223.2 701.1H194.6C193.5 701.1 192.6 701.7 192.6 702.5C192.6 703.3 193.5 704 194.6 704Z" fill="#FFD9A9"/>
<path d="M184.2 695.5H223.7C224.5 695.5 225.2 694.9 225.2 694.1C225.2 693.3 224.5 692.6 223.7 692.6H184.2C183.3 692.6 182.7 693.3 182.7 694.1C182.7 694.9 183.3 695.5 184.2 695.5Z" fill="#FFD9A9"/>
<path fill-rule="evenodd" clip-rule="evenodd" d="M586.2 217.7V249.6H554.3V217.7H586.2ZM559.2 222.6V244.7H581.3V222.6H559.2Z" fill="#FFD9A9"/>
<path d="M611.5 227.1H590.4C589.6 227.1 588.9 226.5 588.9 225.7C588.9 224.8 589.6 224.2 590.4 224.2H611.5C612.4 224.2 613 224.8 613 225.7C613 226.5 612.4 227.1 611.5 227.1Z" fill="#FFD9A9"/>
<path d="M619.5 243.2H590.9C589.8 243.2 588.9 242.5 588.9 241.7C588.9 240.9 589.8 240.2 590.9 240.2H619.5C620.6 240.2 621.5 240.9 621.5 241.7C621.5 242.5 620.6 243.2 619.5 243.2Z" fill="#FFD9A9"/>
<path d="M629.9 234.7H590.4C589.6 234.7 588.9 234 588.9 233.2C588.9 232.4 589.6 231.8 590.4 231.8H629.9C630.7 231.8 631.4 232.4 631.4 233.2C631.4 234 630.7 234.7 629.9 234.7Z" fill="#FFD9A9"/>
<path d="M385 340.5C390.9 340.5 390.9 331.3 385 331.3C379.2 331.3 379.1 340.5 385 340.5Z" fill="#FF9E22"/>
<path d="M294.8 762.6C300.7 762.6 300.7 753.4 294.8 753.4C288.9 753.4 288.9 762.6 294.8 762.6Z" fill="#FF9E22"/>
<path d="M763.2 708.6C775 708.6 775 690.3 763.2 690.3C751.5 690.3 751.4 708.6 763.2 708.6Z" fill="#FF9E22"/>
<path d="M514.4 193.8C526.1 193.8 526.2 175.5 514.4 175.5C502.6 175.5 502.6 193.8 514.4 193.8Z" fill="#FF9E22"/>
<path d="M607.1 850.1C618.9 850.1 618.9 831.8 607.1 831.8C595.3 831.8 595.3 850.1 607.1 850.1Z" fill="#FF9E22"/>
<path d="M122 549.4C120.9 534.4 124.9 520.3 134.1 508.4C136.3 505.6 132.4 501.7 130.2 504.5C120.1 517.5 115.3 532.9 116.5 549.4C116.8 552.9 122.3 552.9 122 549.4Z" fill="#FF9E22"/>
<path d="M139.8 505.8C140.2 505.8 140.6 505.8 141 505.8C144.6 505.8 144.6 500.3 141 500.3C140.6 500.3 140.2 500.3 139.8 500.3C136.3 500.3 136.3 505.8 139.8 505.8Z" fill="#FF9E22"/>
<path d="M239.6 394.4C239.6 394.867 239.6 395.3 239.6 395.7C239.6 399.2 245 399.2 245 395.7C245 395.3 245 394.867 245 394.4C245 390.9 239.6 390.9 239.6 394.4Z" fill="#FF9E22"/>
<path d="M246.9 394.4C246.9 394.867 246.9 395.3 246.9 395.7C246.9 399.2 252.4 399.2 252.4 395.7C252.4 395.3 252.4 394.867 252.4 394.4C252.4 390.9 246.9 390.9 246.9 394.4Z" fill="#FF9E22"/>
<path d="M823.1 391.4C834.2 392.5 841.9 403.3 840.5 414.1C840 417.6 845.5 417.5 846 414.1C847.8 400.1 836.9 387.3 823.1 385.9C819.6 385.6 819.6 391.1 823.1 391.4Z" fill="#FF9E22"/>
<path d="M843.8 427.7C847.3 427.7 847.3 422.2 843.8 422.2C840.2 422.2 840.2 427.7 843.8 427.7Z" fill="#FF9E22"/>
<path d="M99.5 604.5C103.9 611.5 110.1 617 117.6 620.2C120.8 621.6 123.6 616.9 120.4 615.5C113.7 612.6 108.1 608 104.3 601.8C102.4 598.8 97.6 601.5 99.5 604.5Z" fill="#FFD9A9"/>
<path d="M102.4 622.6C106 628.9 113.1 632.7 120.4 631.9C123.8 631.4 123.9 625.9 120.4 626.4C114.9 627 109.8 624.6 107.1 619.8C105.4 616.8 100.6 619.5 102.4 622.6Z" fill="#FFD9A9"/>
<path d="M858.2 346.9C867.8 352.2 875 360.1 879.4 370.1C880.8 373.4 885.5 370.6 884.1 367.4C879.4 356.6 871.3 347.8 860.9 342.2C857.8 340.5 855.1 345.3 858.2 346.9Z" fill="#FFD9A9"/>
<path d="M885.2 383.8C888.8 383.8 888.8 378.3 885.2 378.3C881.7 378.3 881.7 383.8 885.2 383.8Z" fill="#FFD9A9"/>
<path d="M877.7 346.9C883.3 351.1 887.5 356.9 889.7 363.5C890.8 366.9 896.1 365.4 895 362.1C892.3 353.9 887.3 347.2 880.5 342.1C877.6 340 874.9 344.8 877.7 346.9Z" fill="#FFD9A9"/>
<path d="M781.2 87.6V130.7H735.5V87.6H781.2Z" fill="#FF9E22"/>
<path d="M470 199.7V234.7H435.7V199.7H470Z" fill="#FF9E22"/>
<path d="M808.4 797.5L761.9 819.9L751.4 752.6L762.1 747.4L808.4 797.5Z" fill="#FF9E22"/>
<path d="M812.2 795.6L758.1 821.8L761.3 828.5L815.5 802.3L812.2 795.6Z" fill="#FF9E22"/>
<path d="M759.3 803.1L761.9 819.9L808.4 797.5L796.8 784.9L759.3 803.1Z" fill="white"/>
<path d="M756.7 786.3L785.3 772.4L773.7 759.9L754 769.4L756.7 786.3Z" fill="white"/>
</svg>
