<svg version="1.2" xmlns="http://www.w3.org/2000/svg" viewBox="0 0 501 501" width="501" height="501"><style>.a{fill:#fff}.b{fill:#ffd9a9}.c{fill:#ff9e22}.d{fill:#006191}.e{fill:#ff9d13}.f{fill:#f9b59d}.g{fill:#ffcab3}.h{fill:#8dd6e1}.i{fill:#ff6800}.j{fill:#7f7f7f}.k{fill:#aaaaab}</style><path class="a" d="m80.7 203h30.4v-0.2h12.8 35.1 68.9 0.1 24.3 4.5 0.8 17.2 0.1l104.1 0.2h44.8c-22.7-73.2-90.9-126.3-171.6-126.3-80.6 0-148.8 53.1-171.5 126.3z"/><path class="b" d="m359.2 88.6v114.2h-2.4v-114.2z"/><path class="b" d="m354.4 88.6v114.2h-2.4v-114.2z"/><path class="b" d="m349.6 88.6v114.2h-2.3v-114.2z"/><path class="b" d="m344.9 88.6v114.2h-2.4v-114.2z"/><path class="b" d="m340.1 88.6v114.2h-2.4v-114.2z"/><path class="b" d="m335.4 88.6v114.2h-2.4v-114.2z"/><path class="b" d="m330.6 88.6v114.2h-2.4v-114.2z"/><path class="b" d="m325.9 88.6v114.2h-2.4v-114.2z"/><path class="b" d="m321.1 88.6v114.2h-2.4v-114.2z"/><path class="c" d="m359.2 0v87h-2.4v-87z"/><path class="c" d="m354.4 0v87h-2.4v-87z"/><path class="c" d="m349.6 0v87h-2.3v-87z"/><path class="c" d="m344.9 0v87h-2.4v-87z"/><path class="c" d="m340.1 0v87h-2.4v-87z"/><path class="c" d="m335.4 0v87h-2.4v-87z"/><path class="c" d="m330.6 0v87h-2.4v-87z"/><path class="c" d="m325.9 0v87h-2.4v-87z"/><path class="c" d="m321.1 0v87h-2.4v-87z"/><path class="b" d="m228 202.8h-0.1-68.9-35.1-12.8v0.2h-30.4c22.7-73.2 90.9-126.3 171.5-126.3v-23.5c-112.2 0-203.2 91-203.2 203.2 0 112.2 91 203.2 203.2 203.2v-256.8z"/><path class="c" d="m252.2 53.2v23.5c80.7 0 148.9 53.1 171.6 126.3h-44.8l-104.1-0.2h-0.1-17.2-0.8-4.5v256.8c112.2 0 203.2-91 203.2-203.2 0-112.2-91-203.2-203.3-203.2z"/><path class="d" d="m379 271.5h-35.2-0.2l-23.5 23.4c4.7 4.8 4.7 12.5 0 17.2-4.7 4.8-12.4 4.8-17.2 0 4.8 4.8 4.8 12.5 0 17.2-4.7 4.7-12.4 4.7-17.1 0 4.7 4.7 4.7 12.4 0 17.2-4.8 4.7-12.5 4.7-17.2 0 4.7 4.7 4.7 12.4 0 17.2-4.8 4.7-12.5 4.7-17.2 0v-0.1 0.1l-8.6-8.6c-4.7 4.7-12.4 4.7-17.1 0-4.8-4.8-4.8-12.4-0.1-17.2-4.7 4.7-12.4 4.7-17.1 0-4.7-4.7-4.7-12.4 0-17.1-4.8 4.6-12.5 4.6-17.2-0.1-4.7-4.7-4.7-12.4 0-17.1-4.8 4.7-12.4 4.7-17.2-0.1-4.7-4.7-4.7-12.3 0-17.1l-14.9-14.9h-33.7v23.4h-48.7c17.6 80.7 89.5 141.2 175.4 141.2 86 0 157.9-60.5 175.5-141.2h-48.7v-23.4z"/><path class="b" d="m242 0v295h-2.4v-295z"/><path class="b" d="m237.3 0v295h-2.4v-295z"/><path class="b" d="m232.5 0v295h-2.4v-295z"/><path class="b" d="m227.7 0v295h-2.3v-295z"/><path class="b" d="m223 0v295h-2.4v-295z"/><path class="b" d="m218.2 0v295h-2.4v-295z"/><path class="b" d="m213.5 0v295h-2.4v-295z"/><path class="b" d="m208.7 0v295h-2.4v-295z"/><path class="b" d="m203.9 0v295h-2.3v-295z"/><path class="b" d="m251.4 0v295h-2.3v-295z"/><path class="b" d="m246.7 0v295h-2.4v-295z"/><path class="e" d="m363.6 490.3v7.1h-223.3v-7.1z"/><path class="a" d="m160.6 318.3l-22.6-11.7v7h-128.8v9.3h128.8v7z"/><path class="a" d="m343.7 318.3l22.6-11.7v7h128.9v9.3h-128.9v7z"/><path class="b" d="m142.8 342.8l-22.5-11.7v7h-45v9.3h45v7z"/><path class="b" d="m194.9 342.8l-22.6-11.7v7h-15.8v9.3h15.8v7z"/><path class="b" d="m50.2 342.8l-22.6-11.7v7h-15.8v9.3h15.8v7z"/><path class="b" d="m362.6 342.8l22.6-11.7v7h15.8v9.3h-15.8v7z"/><path class="b" d="m445.7 342.8l22.6-11.7v7h15.8v9.3h-15.8v7z"/><path class="f" d="m274.9 202.8h-0.1v0.2z"/><path class="f" d="m268.6 346.5z"/><path class="f" d="m251.4 363.6v0.1z"/><path class="g" d="m191.3 303.6q0 0 0-0.1 0 0 0 0.1z"/><path class="g" d="m225.6 337.9v0.1l0.1-0.1z"/><path class="g" d="m208.5 320.8q0 0 0-0.1 0 0 0 0.1z"/><path class="g" d="m123.9 202.8h-12.8v0.2h12.8z"/><path class="f" d="m242.9 337.9c-4.8-4.7-12.5-4.7-17.2 0q0 0-0.1 0.1c-4.7 4.7-4.7 12.3 0.1 17.1 4.7 4.7 12.4 4.7 17.1 0q0.1 0 0.1 0c4.7-4.8 4.7-12.5 0-17.2z"/><path class="f" d="m225.7 320.7c-4.8-4.7-12.4-4.7-17.2 0q0 0 0 0.1c-4.7 4.7-4.7 12.4 0 17.1 4.7 4.7 12.4 4.7 17.1 0q0.1 0 0.1 0c4.7-4.7 4.7-12.4 0-17.2z"/><path class="f" d="m208.5 303.5c-4.7-4.7-12.4-4.7-17.2 0q0 0.1 0 0.1c-4.7 4.7-4.7 12.4 0 17.1 4.8 4.7 12.4 4.8 17.2 0.1q0-0.1 0-0.1c4.8-4.7 4.8-12.4 0-17.2z"/><path class="f" d="m191.3 286.3c-4.7-4.7-12.4-4.7-17.2 0q0 0.1 0 0.1c-4.7 4.8-4.7 12.4 0 17.1 4.8 4.8 12.4 4.8 17.2 0.1q0-0.1 0-0.1c4.8-4.7 4.8-12.4 0-17.2z"/><path class="a" d="m159 202.8h-35.1v0.2h1.6v68.4h33.5z"/><path class="c" d="m423.8 203h-44.8v68.5 23.4h48.7c2.7-12.4 4.2-25.3 4.2-38.5 0-18.6-2.8-36.6-8.1-53.4z"/><path class="b" d="m125.5 271.5v-0.1-68.4h-1.6-12.8-30.4c-5.3 16.8-8.1 34.8-8.1 53.4 0 13.2 1.5 26.1 4.2 38.5h48.7z"/><path class="e" d="m496.6 273.7l-49.6-16.4c-1.7-0.6-1.7-3 0-3.5l49.6-16.5c1.2-0.4 2.4 0.5 2.4 1.8v32.9c0 1.2-1.2 2.1-2.4 1.7z"/><path class="e" d="m6 273.7l49.6-16.4c1.7-0.6 1.7-3 0-3.5l-49.6-16.5c-1.2-0.4-2.4 0.5-2.4 1.8v32.9c0 1.2 1.2 2.1 2.4 1.7z"/><path fill-rule="evenodd" class="a" d="m318.7 53.2v149.7h-123.8v-149.7zm-117.3 79.8h49.3v-66.5h-49.3zm112.1 39.1h-112.2v5.1h112.2zm0-10.2h-112.2v5.1h112.2zm-112.1-23.8v18.7h112.1v-18.7zm112-10.2h-55.5v5.1h11.9 43.6zm0-10.2h-55.5v5.1h55.5zm0-10.2h-55.5v5.1h55.5zm0-10.3h-55.5v5.2h11.9 43.6zm0-5.2v-5.1h-43.6-11.9v5.1zm0-15.3h-55.5v5.1h55.5zm0-10.2h-55.5v5.1h55.5z"/><path class="c" d="m269.9 87h-11.9v5.1h11.9 6.9 36.7v-5.1z"/><path class="c" d="m276.8 97.2h-6.9-11.9v5.1h11.9 43.6v-5.1z"/><path class="c" d="m269.9 127.9h-11.9v5.1h11.9 43.6v-5.1z"/><path class="c" d="m262 161.9h-60.7v5.1h65.9 46.3v-5.1z"/><path class="h" d="m267.2 167h-65.9 65.9z"/><path class="h" d="m262 161.9h-60.7 60.7z"/><path class="c" d="m272.3 172.2h-71v5.1h76.1 36.1v-5.1z"/><path class="c" d="m250.8 133v-21.2-12-33.3h-7.6-41.7v66.5h43.4z"/><path class="c" d="m258 66.5v5.1h11.9 43.6v-5.1h-43.6z"/><path class="c" d="m258 76.7v5.1h11.9 43.6v-5.1h-43.6z"/><path class="c" d="m259.4 107.4h-1.4v5.2h1.4 22.7 31.4v-5.2h-31.4z"/><path class="c" d="m259.4 117.7h-1.4v5.1h1.4 22.7 31.4v-5.1h-31.4z"/><path class="i" d="m244.9 138.2h-43.4v18.6h42.4 13 56.6v-18.6h-44.5z"/><path class="j" d="m245.2 91.9c-3.7-3.6-8.5-5.5-13.3-5.5-4.9 0-9.7 1.9-13.3 5.5-7.4 7.4-7.4 19.3 0 26.6 3.6 3.7 8.4 5.6 13.3 5.6 4.8 0 9.6-1.9 13.3-5.6 7.3-7.3 7.3-19.2 0-26.6z"/><path class="a" d="m239.5 86.3c-3.6-3.7-8.5-5.5-13.3-5.5-4.8 0-9.6 1.8-13.3 5.5-7.3 7.3-7.3 19.3 0 26.6 3.7 3.7 8.5 5.5 13.3 5.5 4.8 0 9.7-1.8 13.3-5.5 7.4-7.3 7.4-19.3 0-26.6z"/><path class="k" d="m231.6 99.2q-1.3-1.1-3.7-1.9l-1.1-0.4q-0.3-0.1-0.6-0.2-1.2-0.5-1.8-1.1-0.7-0.6-0.7-1.7 0-1.1 0.7-1.9 0.7-0.7 1.7-0.7 0.1 0 0.1 0 1.1 0.1 1.8 0.7 0.8 0.7 0.9 1.9h4.7q-0.1-2-1.1-3.6-0.9-1.6-2.5-2.5-0.8-0.4-1.7-0.6v-4.2h-2.1-1.8v4.2q-0.8 0.2-1.6 0.7-1.7 0.9-2.6 2.5-1 1.6-1 3.5 0 1.7 0.9 3.2 0.8 1.6 2.3 2.5 0.7 0.5 2 1 0.2 0 1 0.3 0.4 0.1 0.8 0.3 1.5 0.6 2.3 1.2 1.1 1 1.1 2.6 0 1.3-0.9 2.2-0.9 0.9-2.3 0.9-0.1 0-0.2 0-1.3-0.1-2.2-0.8-0.9-0.9-1-2.3h-4.7q0.1 1.7 0.5 2.7 0.5 1.3 1.6 2.4 1.7 1.7 4 2.2v4.1h1.8 2.1v-4.2q1-0.2 1.9-0.7 1.9-1.1 2.9-2.9 1.1-1.8 1.1-4 0-3.3-2.6-5.4z"/><path class="c" d="m359.2 269.2v157.8h-2.4v-157.8z"/><path class="c" d="m354.4 269.2v157.8h-2.4v-157.8z"/><path class="c" d="m349.6 269.2v157.8h-2.3v-157.8z"/><path class="c" d="m344.9 269.2v157.8h-2.4v-157.8z"/><path class="c" d="m340.1 269.2v157.8h-2.4v-157.8z"/><path class="c" d="m335.4 269.2v157.8h-2.4v-157.8z"/><path class="c" d="m330.6 269.2v157.8h-2.4v-157.8z"/><path class="c" d="m325.9 269.2v157.8h-2.4v-157.8z"/><path class="c" d="m321.1 269.2v157.8h-2.4v-157.8z"/><path class="f" d="m274.8 203v-0.2h-17.2-0.8l-60.7 60.8c0 0 25.2 24.8 50.1-0.1l21.2-21.2 51.9 52c0.2 0.2 0.6 0.4 0.8 0.6q0 0 0 0l23.5-23.4h0.2v-68.5h35.2l-104.1-0.2z"/><path class="g" d="m319.3 294.3l-51.9-52-21.2 21.2c-24.9 24.9-50.1 0.1-50.1 0.1l60.7-60.8h-28.8-0.1-68.9v68.6h-33.5v0.1h33.7l14.9 14.9q0 0 0-0.1c4.8-4.7 12.5-4.7 17.2 0 4.8 4.8 4.8 12.5 0 17.2 4.8-4.7 12.5-4.7 17.2 0 4.7 4.8 4.7 12.5 0 17.2 4.7-4.7 12.4-4.7 17.2 0 4.7 4.7 4.7 12.5 0 17.2 4.7-4.7 12.4-4.7 17.1 0 4.8 4.7 4.8 12.4 0 17.2q0 0 0 0l8.5 8.6 0.1-0.1q0 0.1 0 0.1c4.7 4.7 12.4 4.7 17.2 0 4.7-4.8 4.7-12.5 0-17.2 4.7 4.7 12.4 4.7 17.1 0 4.8-4.8 4.8-12.5 0-17.2 4.8 4.7 12.5 4.7 17.2 0 4.8-4.7 4.8-12.4 0-17.2 4.8 4.8 12.4 4.8 17.2 0 4.7-4.7 4.7-12.4 0-17.2q0 0 0 0c-0.2-0.2-0.6-0.4-0.8-0.6z"/><path class="a" d="m379 203v68.5h-35.2v-68.5z"/></svg>