<svg width="50" height="50" viewBox="0 0 50 50" fill="none" xmlns="http://www.w3.org/2000/svg">
<g clip-path="url(#clip0_40_112)">
<path d="M15.5 17C15.5 19.2543 16.3955 21.4163 17.9896 23.0104C19.5837 24.6045 21.7457 25.5 24 25.5C26.2543 25.5 28.4163 24.6045 30.0104 23.0104C31.6045 21.4163 32.5 19.2543 32.5 17" stroke="black" stroke-linejoin="round"/>
<path d="M15.1419 17.5H32.78" stroke="black"/>
<path d="M16.0114 16.9829C16.0131 18.0694 16.2218 19.1448 16.6255 20.1479C17.0292 21.151 17.6199 22.0621 18.364 22.8291C19.1082 23.5961 19.9911 24.2041 20.9624 24.6183C21.9336 25.0325 22.9743 25.2447 24.0248 25.243C25.0754 25.2413 26.1154 25.0256 27.0853 24.6083C28.0552 24.1909 28.9361 23.5801 29.6777 22.8107C30.4194 22.0412 31.0071 21.1282 31.4075 20.1238C31.8079 19.1194 32.0131 18.0433 32.0113 16.9568L24.0114 16.9699L16.0114 16.9829Z" fill="black"/>
<path d="M15.5 14C15.5 11.7457 16.3955 9.58365 17.9896 7.98959C19.5837 6.39553 21.7457 5.5 24 5.5C26.2543 5.5 28.4163 6.39553 30.0104 7.98959C31.6045 9.58365 32.5 11.7457 32.5 14" stroke="black" stroke-linejoin="round"/>
<path d="M15.1419 13.5H32.78" stroke="black"/>
<path d="M16.0114 14.0171C16.0131 12.9306 16.2218 11.8552 16.6255 10.8521C17.0292 9.84899 17.6199 8.93792 18.364 8.1709C19.1082 7.40387 19.9911 6.79592 20.9624 6.38173C21.9336 5.96755 22.9743 5.75525 24.0248 5.75696C25.0754 5.75868 26.1154 5.97436 27.0853 6.39171C28.0552 6.80906 28.9361 7.41989 29.6777 8.18933C30.4194 8.95878 31.0071 9.87176 31.4075 10.8762C31.8079 11.8806 32.0131 12.9567 32.0113 14.0432L24.0114 14.0301L16.0114 14.0171Z" fill="#FF9103"/>
<mask id="path-7-inside-1_40_112" fill="white">
<path d="M22 4H26V8H22V4Z"/>
</mask>
<path d="M22 4H26V8H22V4Z" fill="#FF9103"/>
<path d="M22 4V3H21V4H22ZM26 4H27V3H26V4ZM22 5H26V3H22V5ZM25 4V8H27V4H25ZM23 8V4H21V8H23Z" fill="black" mask="url(#path-7-inside-1_40_112)"/>
<line x1="14.5" y1="13.5" x2="33.5" y2="13.5" stroke="black" stroke-linecap="round"/>
<mask id="path-10-inside-2_40_112" fill="white">
<path d="M45 43.5C45 39.3891 42.8402 35.4467 38.9957 32.5398C35.1512 29.633 29.9369 28 24.5 28C19.0631 28 13.8488 29.633 10.0043 32.5398C6.15982 35.4467 4 39.3891 4 43.5L24.5 43.5H45Z"/>
</mask>
<path d="M45 43.5C45 39.3891 42.8402 35.4467 38.9957 32.5398C35.1512 29.633 29.9369 28 24.5 28C19.0631 28 13.8488 29.633 10.0043 32.5398C6.15982 35.4467 4 39.3891 4 43.5L24.5 43.5H45Z" fill="black" stroke="black" stroke-width="2" mask="url(#path-10-inside-2_40_112)"/>
<path d="M34.6261 37.9913C38.6995 38.9767 42.7992 36.376 43.8048 32.2189C44.8104 28.0618 42.3527 23.8748 38.2792 22.8894C34.2058 21.904 30.1061 24.5048 29.1005 28.6619C28.0949 32.819 30.5526 37.0059 34.6261 37.9913Z" fill="#FF9103" stroke="#FF9103"/>
<path d="M41.6885 31.7069C40.9637 34.7033 38.0247 36.5382 35.146 35.8419C32.2673 35.1455 30.492 32.1701 31.2168 29.1738C31.9416 26.1775 34.8806 24.3425 37.7593 25.0389C40.638 25.7352 42.4133 28.7106 41.6885 31.7069Z" fill="black" stroke="white"/>
<path d="M44.8666 46.2451C45.5792 47.2632 46.9655 47.4877 47.963 46.7467C48.9605 46.0057 49.1915 44.5798 48.479 43.5617L44.8666 46.2451ZM38.5651 37.2424L44.8666 46.2451L48.479 43.5617L42.1774 34.559L38.5651 37.2424Z" fill="#FF9103"/>
</g>
<defs>
<clipPath id="clip0_40_112">
<rect width="50" height="50" fill="white"/>
</clipPath>
</defs>
</svg>
