<svg version="1.2" xmlns="http://www.w3.org/2000/svg" viewBox="0 0 1000 1000" width="1000" height="1000"><style>.a{fill:#d3f3ca}.b{fill:#6d6d6d}.c{display:none;fill:#6d6d6d}.d{fill:#50a133}.e{fill:#fff}.f{fill:#fcdd5b}.g{fill:#64b742}.h{fill:#a8cfe2}.i{fill:#fff5ab}.j{fill:#fefffd}.k{fill:#82c965}.l{fill:#f26949}.m{fill:#97c483}</style><g style="display:none"><path class="a" d="m1000 1000h-1000v-1000h1000z"/></g><path class="b" d="m231.7 900.9q0 3.9-1.9 6.7-1.9 2.9-5.5 4.4-3.6 1.6-8.7 1.6-2.3 0-4.4-0.3-2.2-0.3-4.2-0.9-1.9-0.6-3.7-1.4v-8.6q3.1 1.4 6.4 2.5 3.3 1.1 6.6 1.1 2.3 0 3.6-0.6 1.4-0.6 2.1-1.7 0.6-1 0.6-2.3 0-1.7-1.1-2.8-1.1-1.2-3-2.2-2-1-4.4-2.2-1.5-0.7-3.3-1.7-1.8-1.1-3.4-2.6-1.6-1.4-2.6-3.6-1-2.1-1-5.1 0-3.9 1.8-6.7 1.7-2.7 5.1-4.2 3.3-1.5 7.8-1.5 3.4 0 6.5 0.8 3.1 0.8 6.4 2.3l-2.9 7.2q-3-1.2-5.4-1.9-2.4-0.7-4.9-0.7-1.7 0-2.9 0.6-1.3 0.5-1.9 1.5-0.6 1-0.6 2.3 0 1.6 0.9 2.6 0.9 1.1 2.7 2.1 1.9 1 4.6 2.3 3.4 1.5 5.7 3.3 2.4 1.7 3.7 4 1.3 2.3 1.3 5.7zm28.6-21.2h9.1v33.3h-7l-1.2-4.3h-0.5q-1.1 1.7-2.7 2.8-1.6 1.1-3.5 1.6-1.9 0.5-4 0.5-3.6 0-6.3-1.3-2.6-1.2-4.1-3.9-1.5-2.7-1.5-7v-21.7h9.1v19.4q0 3.6 1.3 5.4 1.3 1.9 4.1 1.9 2.8 0 4.3-1.3 1.6-1.3 2.2-3.7 0.7-2.5 0.7-6zm18.6-13.1h9.1v10.8q0 1.9-0.1 3.7-0.1 1.9-0.3 2.9h0.4q1.3-2.1 3.6-3.5 2.2-1.5 5.8-1.5 5.6 0 9.1 4.4 3.5 4.4 3.5 12.9 0 5.6-1.6 9.5-1.6 3.9-4.5 5.8-2.9 2-6.7 2-3.7 0-5.8-1.3-2.1-1.4-3.4-3h-0.6l-1.5 3.7h-7zm15.6 19.7q-2.4 0-3.8 0.9-1.4 1-2 3-0.6 2-0.7 5v0.9q0 4.9 1.4 7.5 1.5 2.6 5.2 2.6 2.8 0 4.5-2.6 1.7-2.6 1.7-7.5 0-4.9-1.7-7.4-1.7-2.4-4.6-2.4zm36.1 14h-16v-7.5h16zm25.8-23.8q-2.7 0-4.7 1-2.1 1-3.5 3-1.3 1.9-2.1 4.6-0.7 2.8-0.7 6.2 0 4.6 1.2 7.9 1.1 3.3 3.5 5 2.4 1.7 6.3 1.7 2.6 0 5.3-0.6 2.6-0.6 5.8-1.7v7.7q-2.9 1.2-5.7 1.8-2.8 0.5-6.3 0.5-6.7 0-11.1-2.8-4.3-2.8-6.4-7.8-2.1-5-2.1-11.7 0-5 1.4-9.1 1.3-4.1 3.9-7.1 2.6-3 6.4-4.7 3.8-1.6 8.8-1.6 3.2 0 6.5 0.8 3.2 0.8 6.2 2.3l-3 7.5q-2.4-1.2-4.9-2.1-2.5-0.8-4.8-0.8zm49.9 19.8q0 4.1-1.2 7.3-1.1 3.3-3.2 5.5-2.1 2.2-5.1 3.3-3 1.2-6.8 1.2-3.5 0-6.4-1.2-2.9-1.1-5.1-3.3-2.2-2.2-3.3-5.5-1.2-3.2-1.2-7.3 0-5.6 2-9.4 1.9-3.9 5.6-5.9 3.6-2 8.6-2 4.7 0 8.3 2 3.6 2 5.7 5.9 2.1 3.8 2.1 9.4zm-23 0q0 3.2 0.7 5.5 0.7 2.2 2.2 3.3 1.5 1.2 4 1.2 2.4 0 3.9-1.2 1.5-1.1 2.2-3.3 0.7-2.3 0.7-5.5 0-3.3-0.7-5.5-0.7-2.2-2.2-3.3-1.6-1.1-4-1.1-3.6 0-5.2 2.4-1.6 2.5-1.6 7.5zm49.4-17.3q5.3 0 8.6 3 3.2 2.8 3.2 9.3v21.7h-9.1v-19.5q0-3.6-1.3-5.4-1.3-1.8-4-1.8-4.2 0-5.7 2.8-1.5 2.9-1.5 8.2v15.7h-9.1v-33.3h6.9l1.2 4.2h0.6q1-1.7 2.6-2.8 1.6-1 3.5-1.6 2-0.5 4.1-0.5zm35.2 27.3q1.5 0 2.9-0.3 1.4-0.3 2.8-0.7v6.7q-1.4 0.7-3.6 1.1-2.2 0.5-4.7 0.5-3 0-5.4-1-2.3-1-3.7-3.4-1.3-2.4-1.3-6.7v-16h-4.4v-3.9l5-3 2.6-7h5.8v7.1h9.4v6.8h-9.4v16q0 1.9 1.1 2.9 1.1 0.9 2.9 0.9zm31-27.3q0.7 0 1.6 0.1 0.9 0.1 1.5 0.2l-0.7 8.5q-0.4-0.1-1.3-0.2-0.8-0.1-1.4-0.1-1.7 0-3.4 0.5-1.6 0.4-2.9 1.4-1.3 1-2.1 2.7-0.8 1.6-0.8 3.9v17h-9v-33.3h6.8l1.4 5.6h0.4q1-1.7 2.5-3.1 1.5-1.5 3.3-2.3 1.9-0.9 4.1-0.9zm22.8 0q6.7 0 10.3 2.9 3.5 2.9 3.5 8.9v22.2h-6.3l-1.8-4.6h-0.2q-1.4 1.8-2.9 3-1.5 1.1-3.4 1.6-2 0.6-4.7 0.6-3 0-5.3-1.2-2.4-1.1-3.7-3.4-1.3-2.4-1.3-6 0-5.3 3.7-7.8 3.7-2.5 11.1-2.8l5.8-0.2v-1.4q0-2.6-1.3-3.9-1.4-1.2-3.9-1.2-2.4 0-4.7 0.7-2.3 0.7-4.6 1.7l-3.1-6.1q2.7-1.4 6-2.2 3.3-0.8 6.8-0.8zm4.8 21.3v-2.8l-3.5 0.2q-4.4 0.1-6.1 1.5-1.7 1.5-1.7 3.9 0 2.1 1.2 3 1.2 0.8 3.2 0.8 2.9 0 4.9-1.7 2-1.7 2-4.9zm31.9 13.3q-4.9 0-8.4-1.8-3.5-1.8-5.3-5.6-1.8-3.8-1.8-9.7 0-6.1 2-10 2.1-3.8 5.8-5.6 3.7-1.9 8.5-1.9 3.5 0 6 0.7 2.5 0.7 4.4 1.6l-2.7 7q-2.1-0.8-4-1.4-1.8-0.5-3.7-0.5-2.4 0-3.9 1.1-1.6 1.1-2.4 3.3-0.8 2.3-0.8 5.6 0 3.3 0.9 5.5 0.8 2.2 2.4 3.3 1.6 1 3.8 1 2.9 0 5.1-0.7 2.2-0.8 4.3-2.2v7.8q-2.1 1.3-4.4 1.9-2.3 0.6-5.8 0.6zm31.9-7.3q1.5 0 2.9-0.3 1.4-0.3 2.8-0.7v6.7q-1.4 0.7-3.6 1.1-2.2 0.5-4.7 0.5-3 0-5.4-1-2.3-1-3.7-3.4-1.4-2.4-1.4-6.7v-16h-4.3v-3.9l5-3 2.6-7h5.8v7.1h9.4v6.8h-9.4v16q0 1.9 1.1 2.9 1.1 0.9 2.9 0.9zm29-36.9h13.9q8.4 0 12.3 3.7 3.9 3.6 3.9 9.9 0 2.9-0.9 5.5-0.8 2.6-2.8 4.6-1.9 2-5.2 3.2-3.2 1.2-8 1.2h-4v15.5h-9.2zm13.4 7.5h-4.2v13h3.1q2.6 0 4.5-0.7 1.9-0.7 2.9-2.2 1.1-1.4 1.1-3.7 0-3.2-1.8-4.8-1.8-1.6-5.6-1.6zm54.5 19.3q0 4.2-1.2 7.4-1.1 3.2-3.2 5.4-2.1 2.2-5.1 3.4-3 1.1-6.8 1.1-3.5 0-6.4-1.1-3-1.2-5.1-3.4-2.2-2.2-3.4-5.4-1.1-3.2-1.1-7.4 0-5.5 1.9-9.4 2-3.8 5.6-5.8 3.7-2 8.7-2 4.7 0 8.3 2 3.6 2 5.7 5.8 2.1 3.9 2.1 9.4zm-23.1 0q0 3.3 0.7 5.5 0.8 2.2 2.3 3.4 1.5 1.1 3.9 1.1 2.5 0 3.9-1.1 1.6-1.2 2.2-3.4 0.8-2.2 0.8-5.5 0-3.3-0.8-5.5-0.6-2.2-2.2-3.3-1.5-1.1-3.9-1.1-3.6 0-5.3 2.5-1.6 2.5-1.6 7.4zm49.1-17.2q0.7 0 1.6 0.1 0.9 0 1.5 0.2l-0.7 8.5q-0.4-0.2-1.3-0.2-0.8-0.1-1.4-0.1-1.7 0-3.4 0.4-1.6 0.5-2.9 1.5-1.3 1-2.1 2.6-0.8 1.6-0.8 4v16.9h-9v-33.3h6.8l1.4 5.6h0.4q1-1.7 2.5-3.1 1.5-1.4 3.3-2.2 1.9-0.9 4.1-0.9zm23.2 27.3q1.5 0 2.9-0.3 1.4-0.3 2.8-0.8v6.8q-1.5 0.6-3.6 1.1-2.2 0.4-4.7 0.4-3 0-5.4-0.9-2.3-1-3.7-3.4-1.4-2.4-1.4-6.7v-16.1h-4.3v-3.8l5-3 2.6-7.1h5.8v7.1h9.4v6.8h-9.4v16.1q0 1.9 1.1 2.8 1.1 1 2.9 1zm26.1-27.4q6.7 0 10.3 2.9 3.5 3 3.5 8.9v22.2h-6.3l-1.8-4.5h-0.2q-1.4 1.8-2.9 2.9-1.5 1.1-3.5 1.7-1.9 0.5-4.7 0.5-2.9 0-5.3-1.1-2.3-1.2-3.6-3.5-1.4-2.3-1.4-5.9 0-5.3 3.8-7.8 3.7-2.6 11.1-2.8l5.8-0.2v-1.5q0-2.6-1.4-3.8-1.3-1.2-3.8-1.2-2.4 0-4.7 0.6-2.3 0.7-4.7 1.8l-3-6.2q2.7-1.4 6-2.2 3.3-0.8 6.8-0.8zm4.8 21.3v-2.7l-3.5 0.1q-4.4 0.1-6.1 1.6-1.7 1.4-1.7 3.8 0 2.1 1.2 3 1.2 0.9 3.2 0.9 2.9 0 4.9-1.8 2-1.7 2-4.9zm27.5-33.6v46.3h-9.1v-46.3z"/><path class="c" d="m168.6 937.4l-5.9 22.6h-4l-3.8-13.5q-0.3-0.9-0.6-2.5-0.4-1.7-0.5-2.4-0.1 1-0.5 2.6-0.3 1.6-0.6 2.4l-3.7 13.4h-4.1l-2.9-11.3-3-11.3h3.8l3.3 13.2q0.7 3.1 1 5.6 0.2-1.4 0.6-3 0.3-1.6 0.6-2.6l3.7-13.2h3.6l3.8 13.2q0.6 1.9 1.2 5.6 0.2-2.3 1.1-5.7l3.2-13.1zm9.7 22.9q-4 0-6.3-2.3-2.2-2.4-2.2-6.4 0-4.2 2-6.6 2.1-2.4 5.8-2.4 3.4 0 5.4 2 1.9 2.1 1.9 5.7v2h-11.4q0.1 2.4 1.4 3.8 1.2 1.3 3.5 1.3 1.5 0 2.8-0.2 1.4-0.3 2.9-1v2.9q-1.4 0.7-2.7 0.9-1.4 0.3-3.1 0.3zm-0.7-15q-1.7 0-2.8 1.1-1 1.1-1.2 3.2h7.7q0-2.1-1-3.2-1-1.1-2.7-1.1zm33 14.7h-2.6l-0.7-2.4h-0.1q-1.3 1.6-2.5 2.2-1.3 0.5-3.3 0.5-2.5 0-3.9-1.4-1.4-1.3-1.4-3.8 0-2.7 2-4 1.9-1.4 5.9-1.5l3-0.1v-0.9q0-1.6-0.8-2.4-0.7-0.9-2.3-0.9-1.4 0-2.6 0.4-1.2 0.4-2.3 0.9l-1.2-2.6q1.4-0.7 3.1-1.1 1.6-0.3 3.1-0.3 3.3 0 4.9 1.4 1.7 1.4 1.7 4.5zm-8-2.5q2 0 3.2-1.1 1.2-1.1 1.2-3.1v-1.5l-2.2 0.1q-2.6 0.1-3.8 0.8-1.1 0.8-1.1 2.4 0 1.1 0.6 1.8 0.7 0.6 2.1 0.6zm21.8-15q1.1 0 1.8 0.2l-0.4 3.4q-0.7-0.2-1.6-0.2-2.2 0-3.5 1.4-1.4 1.4-1.4 3.7v9h-3.6v-17.2h2.8l0.5 3.1h0.2q0.9-1.6 2.2-2.5 1.4-0.9 3-0.9zm11.8 17.8q-4 0-6.2-2.4-2.3-2.3-2.3-6.4 0-4.2 2.1-6.6 2.1-2.4 5.8-2.4 3.3 0 5.3 2.1 2 2 2 5.7v1.9h-11.4q0 2.5 1.3 3.9 1.3 1.3 3.6 1.3 1.5 0 2.8-0.3 1.3-0.3 2.8-0.9v2.9q-1.3 0.6-2.7 0.9-1.3 0.3-3.1 0.3zm-0.6-15q-1.8 0-2.8 1.1-1.1 1.1-1.3 3.2h7.8q0-2.1-1-3.2-1-1.1-2.7-1.1zm26.6 15q-3.9 0-6-2.3-2-2.3-2-6.5 0-4.3 2.1-6.7 2.2-2.3 6.2-2.3 2.7 0 4.8 1l-1.1 3q-2.3-0.9-3.8-0.9-4.4 0-4.4 5.9 0 2.8 1.1 4.3 1.1 1.4 3.2 1.4 2.5 0 4.6-1.2v3.2q-0.9 0.6-2.1 0.8-1.1 0.3-2.6 0.3zm23.7-0.3h-2.9l-0.5-2.3h-0.2q-0.7 1.2-2.1 1.9-1.4 0.7-3.2 0.7-3.1 0-4.7-1.6-1.5-1.5-1.5-4.7v-11.2h3.7v10.6q0 2 0.8 3 0.8 0.9 2.5 0.9 2.3 0 3.4-1.3 1-1.4 1-4.6v-8.6h3.7zm13.9-17.4q1.1 0 1.8 0.1l-0.4 3.4q-0.7-0.1-1.6-0.1-2.2 0-3.5 1.4-1.4 1.4-1.4 3.7v8.9h-3.6v-17.1h2.8l0.5 3h0.2q0.9-1.5 2.2-2.4 1.4-0.9 3-0.9zm13.7 0q1.1 0 1.8 0.1l-0.4 3.4q-0.8-0.1-1.6-0.1-2.2 0-3.5 1.4-1.4 1.4-1.4 3.7v8.9h-3.6v-17.1h2.8l0.5 3h0.2q0.8-1.5 2.2-2.4 1.4-0.9 3-0.9zm11.8 17.7q-4 0-6.3-2.3-2.2-2.3-2.2-6.4 0-4.2 2.1-6.6 2.1-2.4 5.7-2.4 3.4 0 5.4 2.1 1.9 2 1.9 5.6v2h-11.4q0.1 2.5 1.4 3.8 1.3 1.4 3.6 1.4 1.5 0 2.8-0.3 1.3-0.3 2.8-1v3q-1.3 0.6-2.7 0.9-1.4 0.2-3.1 0.2zm-0.7-15q-1.7 0-2.8 1.1-1 1.1-1.2 3.3h7.8q-0.1-2.2-1.1-3.3-0.9-1.1-2.7-1.1zm26.6 3.6v11.1h-3.7v-10.5q0-2-0.8-3-0.8-0.9-2.5-0.9-2.3 0-3.4 1.3-1.1 1.4-1.1 4.6v8.5h-3.6v-17.1h2.8l0.5 2.2h0.2q0.8-1.2 2.2-1.8 1.5-0.7 3.2-0.7 6.2 0 6.2 6.3zm11.4 8.5q1.3 0 2.7-0.4v2.7q-0.6 0.3-1.6 0.5-0.9 0.1-2 0.1-5.1 0-5.1-5.4v-9.2h-2.4v-1.7l2.5-1.3 1.3-3.6h2.2v3.8h4.9v2.8h-4.9v9.1q0 1.3 0.7 2 0.6 0.6 1.7 0.6zm9.7-21.5v24.1h-3.6v-24.1zm9.5 24.1l-6.9-17.1h4l3.4 9.7q0.8 2.1 1.1 3.9h0.1q0.2-0.8 0.5-2 0.4-1.3 4-11.6h3.9l-7.3 19.4q-2 5.4-6.7 5.4-1.2 0-2.3-0.3v-2.9q0.8 0.2 1.8 0.2 2.7 0 3.7-3.1zm39.1 0h-4l-2.3-7.9q-0.4-1.3-1.4-6h-0.2q-0.9 4.2-1.4 6l-2.3 7.9h-4l-4.8-17.1h3.7l2.2 8.5q0.8 3.1 1.1 5.3h0.1q0.1-1.1 0.4-2.6 0.3-1.4 0.6-2.2l2.6-9h4l2.5 9q0.2 0.8 0.6 2.3 0.3 1.6 0.4 2.5h0.1q0.3-1.9 1.1-5.3l2.2-8.5h3.7zm22.9-8.6q0 4.2-2.1 6.6-2.2 2.3-6 2.3-2.4 0-4.2-1.1-1.9-1-2.9-3.1-1-2-1-4.7 0-4.2 2.2-6.5 2.1-2.3 6-2.3 3.7 0 5.9 2.4 2.1 2.4 2.1 6.4zm-12.4 0q0 5.9 4.4 5.9 4.3 0 4.3-5.9 0-5.9-4.4-5.9-2.3 0-3.3 1.6-1 1.5-1 4.3zm25.3-8.8q1.1 0 1.8 0.1l-0.3 3.4q-0.8-0.2-1.6-0.2-2.2 0-3.6 1.5-1.3 1.4-1.3 3.7v8.9h-3.7v-17.1h2.9l0.5 3h0.1q0.9-1.5 2.3-2.4 1.3-0.9 2.9-0.9zm8.4 8.4h0.1l2.1-2.6 5.1-5.5h4.2l-6.8 7.3 7.3 9.8h-4.3l-5.5-7.5-2 1.6v5.9h-3.6v-24.1h3.6v11.8zm18.4-8.1v17.1h-3.7v-17.1zm-3.8-4.6q0-0.9 0.5-1.5 0.5-0.5 1.5-0.5 1 0 1.5 0.5 0.6 0.6 0.6 1.5 0 1-0.6 1.5-0.5 0.5-1.5 0.5-1 0-1.5-0.5-0.5-0.5-0.5-1.5zm24.1 10.5v11.2h-3.7v-10.5q0-2-0.8-3-0.8-1-2.5-1-2.3 0-3.4 1.4-1 1.4-1 4.6v8.5h-3.7v-17.1h2.9l0.5 2.2h0.2q0.7-1.2 2.2-1.9 1.4-0.6 3.1-0.6 6.2 0 6.2 6.2zm13.6-5.9h5.9v2l-2.9 0.5q0.4 0.6 0.7 1.4 0.2 0.7 0.2 1.6 0 2.7-1.8 4.2-1.8 1.5-5 1.5-0.9 0-1.5-0.1-1.2 0.7-1.2 1.7 0 0.6 0.5 0.9 0.6 0.3 2.1 0.3h3q2.8 0 4.3 1.2 1.4 1.2 1.4 3.5 0 2.9-2.4 4.5-2.4 1.5-6.9 1.5-3.5 0-5.3-1.2-1.9-1.2-1.9-3.5 0-1.6 1-2.7 1-1.1 2.8-1.5-0.7-0.3-1.2-1-0.5-0.7-0.5-1.4 0-1 0.6-1.7 0.5-0.6 1.6-1.3-1.3-0.6-2.2-1.8-0.8-1.3-0.8-3.1 0-2.8 1.8-4.3 1.7-1.5 5-1.5 0.7 0 1.5 0.1 0.8 0.1 1.2 0.2zm-7.5 19.8q0 1.2 1 1.8 1.1 0.6 3 0.6 3 0 4.4-0.8 1.5-0.9 1.5-2.3 0-1.1-0.8-1.6-0.8-0.4-3-0.4h-2.7q-1.6 0-2.5 0.7-0.9 0.7-0.9 2zm1.5-14.3q0 1.6 0.9 2.5 0.8 0.9 2.3 0.9 3.2 0 3.2-3.4 0-1.7-0.8-2.6-0.8-0.9-2.4-0.9-1.5 0-2.4 0.9-0.8 0.9-0.8 2.6zm38.5 3q0 4.2-2.1 6.6-2.2 2.3-6 2.3-2.4 0-4.3-1.1-1.8-1-2.8-3.1-1-2-1-4.7 0-4.1 2.2-6.5 2.1-2.3 6-2.3 3.7 0 5.9 2.4 2.1 2.4 2.1 6.4zm-12.4 0q0 5.9 4.4 5.9 4.3 0 4.3-5.9 0-5.9-4.4-5.9-2.3 0-3.3 1.6-1 1.5-1 4.3zm31.7-2.6v11.2h-3.7v-10.5q0-2-0.8-3-0.8-1-2.5-1-2.3 0-3.4 1.4-1 1.4-1 4.6v8.5h-3.7v-17.1h2.9l0.5 2.2h0.2q0.7-1.2 2.2-1.9 1.4-0.6 3.1-0.6 6.2 0 6.2 6.2zm26.6 11.2h-2.6l-0.7-2.4h-0.1q-1.3 1.6-2.5 2.2-1.3 0.5-3.3 0.5-2.5 0-3.9-1.3-1.4-1.4-1.4-3.9 0-2.6 2-4 1.9-1.3 5.9-1.5l3-0.1v-0.9q0-1.6-0.8-2.4-0.7-0.8-2.3-0.8-1.4 0-2.6 0.3-1.2 0.4-2.3 1l-1.2-2.6q1.4-0.8 3.1-1.1 1.6-0.4 3.1-0.4 3.3 0 4.9 1.4 1.7 1.4 1.7 4.5zm-8-2.5q2 0 3.2-1.1 1.2-1.1 1.2-3.1v-1.5l-2.2 0.1q-2.6 0.1-3.8 0.9-1.1 0.7-1.1 2.3 0 1.1 0.6 1.8 0.7 0.6 2.1 0.6zm31.2 2.5h-4.1l-2.2-8q-0.4-1.3-1.4-5.9h-0.2q-0.9 4.2-1.4 5.9l-2.3 8h-4l-4.8-17.2h3.7l2.2 8.5q0.7 3.1 1.1 5.3 0.2-1.1 0.5-2.5 0.3-1.5 0.6-2.2l2.6-9.1h4l2.5 9.1q0.2 0.7 0.6 2.3 0.3 1.5 0.4 2.4h0.1q0.2-1.9 1.1-5.3l2.2-8.5h3.7zm15.2 0.4q-4 0-6.2-2.4-2.3-2.3-2.3-6.4 0-4.2 2.1-6.6 2.1-2.4 5.8-2.4 3.3 0 5.3 2.1 2 2 2 5.6v2h-11.4q0 2.5 1.3 3.8 1.3 1.4 3.6 1.4 1.5 0 2.8-0.3 1.3-0.3 2.8-1v3q-1.3 0.6-2.7 0.9-1.3 0.3-3.1 0.3zm-0.6-15q-1.8 0-2.8 1.1-1.1 1.1-1.3 3.2h7.8q0-2.2-1-3.2-1-1.1-2.7-1.1zm22.9 9.8q0 2.5-1.8 3.8-1.8 1.4-5.2 1.4-3.5 0-5.5-1.1v-3.1q3 1.4 5.6 1.4 3.3 0 3.3-2.1 0-0.6-0.3-1-0.4-0.5-1.3-0.9-0.8-0.5-2.3-1.1-3-1.1-4-2.3-1.1-1.1-1.1-3 0-2.2 1.8-3.4 1.8-1.2 4.8-1.2 3 0 5.7 1.2l-1.1 2.8q-2.8-1.2-4.7-1.2-2.9 0-2.9 1.7 0 0.8 0.8 1.3 0.7 0.6 3.2 1.6 2.2 0.8 3.1 1.5 1 0.6 1.5 1.5 0.4 0.9 0.4 2.2zm19.1-3.8q0 4.2-2.1 6.6-2.2 2.4-6 2.4-2.4 0-4.2-1.1-1.9-1.1-2.9-3.1-1-2.1-1-4.8 0-4.1 2.2-6.5 2.1-2.3 6-2.3 3.7 0 5.9 2.4 2.1 2.4 2.1 6.4zm-12.4 0q0 6 4.4 6 4.3 0 4.3-6 0-5.8-4.4-5.8-2.3 0-3.3 1.5-1 1.5-1 4.3zm31.1-0.4v9h-3.7v-10.5q0-2-0.7-2.9-0.8-1-2.4-1-2.1 0-3.1 1.4-0.9 1.3-0.9 4.5v8.5h-3.7v-17.1h2.9l0.5 2.3h0.2q0.7-1.3 2-1.9 1.4-0.7 3-0.7 4 0 5.3 2.7h0.2q0.8-1.3 2.1-2 1.4-0.7 3.2-0.7 3.1 0 4.5 1.6 1.4 1.5 1.4 4.7v11.1h-3.7v-10.5q0-2-0.7-2.9-0.8-1-2.3-1-2.2 0-3.2 1.3-0.9 1.3-0.9 4.1zm23.3 9.4q-4 0-6.2-2.4-2.3-2.3-2.3-6.4 0-4.2 2.1-6.6 2.1-2.4 5.8-2.4 3.4 0 5.3 2.1 2 2 2 5.6v2h-11.4q0.1 2.5 1.3 3.8 1.3 1.4 3.6 1.4 1.5 0 2.8-0.3 1.3-0.3 2.8-1v3q-1.3 0.6-2.6 0.9-1.4 0.3-3.2 0.3zm-0.6-15q-1.8 0-2.8 1.1-1.1 1.1-1.3 3.2h7.8q0-2.2-1-3.2-1-1.1-2.7-1.1zm34.7 3.5v11.1h-3.6v-10.5q0-2-0.8-2.9-0.8-1-2.5-1-2.4 0-3.4 1.3-1.1 1.4-1.1 4.6v8.5h-3.6v-17.1h2.8l0.5 2.3h0.2q0.8-1.3 2.2-1.9 1.4-0.7 3.2-0.7 6.1 0 6.1 6.3zm12.6 11.5q-4 0-6.3-2.4-2.2-2.3-2.2-6.4 0-4.2 2.1-6.6 2.1-2.4 5.7-2.4 3.4 0 5.4 2.1 1.9 2 1.9 5.6v2h-11.4q0.1 2.5 1.4 3.8 1.3 1.4 3.6 1.4 1.5 0 2.8-0.3 1.3-0.3 2.8-1v3q-1.3 0.6-2.7 0.9-1.4 0.3-3.1 0.3zm-0.7-15q-1.7 0-2.8 1.1-1 1.1-1.2 3.2h7.8q-0.1-2.2-1.1-3.2-0.9-1.1-2.7-1.1zm29 14.6h-4.1l-2.2-7.9q-0.4-1.3-1.5-5.9h-0.1q-0.9 4.1-1.4 5.9l-2.3 7.9h-4l-4.8-17.1h3.7l2.2 8.5q0.7 3.1 1 5.3h0.1q0.2-1.1 0.5-2.6 0.3-1.4 0.5-2.2l2.6-9h4l2.5 9q0.3 0.8 0.6 2.4 0.4 1.5 0.4 2.4h0.2q0.2-1.9 1-5.3l2.3-8.5h3.6zm27.5-4.9q0 2.5-1.8 3.9-1.8 1.3-5.2 1.3-3.4 0-5.5-1v-3.2q3 1.4 5.6 1.4 3.4 0 3.4-2 0-0.6-0.4-1.1-0.4-0.4-1.2-0.9-0.9-0.4-2.4-1-3-1.2-4-2.3-1.1-1.2-1.1-3 0-2.2 1.8-3.4 1.8-1.2 4.8-1.2 3.1 0 5.8 1.2l-1.2 2.7q-2.8-1.1-4.7-1.1-2.9 0-2.9 1.6 0 0.8 0.8 1.4 0.7 0.6 3.3 1.5 2.1 0.9 3.1 1.5 0.9 0.7 1.4 1.6 0.4 0.9 0.4 2.1zm7.6-12.2v17.1h-3.6v-17.1zm-3.9-4.6q0-0.9 0.5-1.5 0.6-0.5 1.6-0.5 0.9 0 1.5 0.5 0.5 0.6 0.5 1.5 0 1-0.5 1.5-0.6 0.5-1.5 0.5-1 0-1.6-0.5-0.5-0.5-0.5-1.5zm15.5 19.1q1.3 0 2.6-0.4v2.7q-0.6 0.3-1.5 0.5-1 0.1-2 0.1-5.2 0-5.2-5.4v-9.3h-2.3v-1.6l2.5-1.3 1.2-3.6h2.3v3.8h4.9v2.7h-4.9v9.2q0 1.3 0.6 2 0.7 0.6 1.8 0.6zm13.5 2.9q-4 0-6.2-2.3-2.3-2.3-2.3-6.4 0-4.2 2.1-6.6 2.1-2.4 5.8-2.4 3.4 0 5.3 2 2 2.1 2 5.7v2h-11.4q0 2.5 1.3 3.8 1.3 1.3 3.6 1.3 1.5 0 2.8-0.2 1.3-0.3 2.8-1v3q-1.3 0.6-2.7 0.9-1.3 0.2-3.1 0.2zm-0.6-15q-1.8 0-2.8 1.1-1.1 1.1-1.3 3.2h7.8q0-2.1-1-3.2-1-1.1-2.7-1.1z"/><path fill-rule="evenodd" class="d" d="m348.9 234.2l-6.6-5 14.9-19.7 5.9 4.5 1.4-1.8 9.2 7-1.4 1.8 28.9 21.9 1.4-1.8 9.2 7-1.3 1.8 5.3 4.1-14.8 19.6-6.8-5.1-18.6 24.6-6.3-4.8 18.6-24.6-32.6-24.7-18.6 24.6-6.4-4.8zm56.3 15l-15.7 12.5 7 5.3 15.6-12.5 0.1-0.1zm-7.3-5.5l-7-5.3-15.7 12.6 7 5.3zm-14.3-10.9l-7-5.3-15.7 12.6 7 5.3zm-37-3.6l7 5.3 15.7-12.6-7-5.2z"/><path class="e" d="m538.4 512.8c-3.7-13-11.8-25.9-24.6-30.4-7.3-2.6-16-1.1-22.3 3.2 13.8-31.3-0.3-73.7-30.9-91.5-35.3-20.5-83.4-9.9-112.4 18.9-10.9-42.4-64.7-65.6-105-48.7-40.4 17-61.8 66.8-51.1 109.2-26.2-9.5-57.9-1.2-76.1 19.9-9.3 10.8-16.7 37.7-15.5 63.2 1.5 30.3 26.5 54 56.8 54.1l295.4 1.6c25.7 3.3 52.7-7.1 69.6-26.7 16.9-19.6 23.1-47.9 16.1-72.8z"/><path fill-rule="evenodd" class="d" d="m462.1 615.9q-4.8 0-9.6-0.6l-295.2-1.5c-32-0.2-58.3-25.2-59.8-57-1.2-25.1 5.7-53.2 16.2-65.4 18-20.9 47.9-29.7 74.3-22.4-8.4-43.7 15-91.1 54-107.5 20.9-8.8 46.6-7.5 68.7 3.4 18.9 9.4 32.9 24.7 39 42.5 31.5-28.4 79-35.4 112.5-15.9 29.7 17.2 44.5 56.1 34.8 88.1 5.8-1.9 12.3-2 17.8-0.1 12.2 4.3 21.9 16.2 26.5 32.5 7.3 25.7 0.7 55.4-16.7 75.6-15.3 17.8-39 28.3-62.5 28.3zm-292.6-143.2c-19.2 0-38.7 8.2-51.2 22.7-8.2 9.6-16 35.1-14.7 61.1 1.4 28.6 24.9 51 53.7 51.2l295.4 1.5q0.2 0 0.4 0c24.5 3.2 50.8-6.9 66.9-25.6 16.1-18.7 22.2-46.1 15.5-69.9-2-6.8-8.1-23.2-22.7-28.4-6.2-2.2-13.9-1.1-19.6 2.8-1.2 0.7-2.6 0.7-3.7-0.2-1-0.9-1.4-2.3-0.8-3.6 13.2-29.8-0.6-70.7-29.6-87.6-32.5-18.8-79.3-10.9-108.7 18.5-0.8 0.7-1.9 1-3 0.7-1-0.2-1.9-1.1-2.1-2.1-4.7-18.2-18.3-34-37.3-43.4-20.5-10.2-44.3-11.4-63.7-3.3-37.8 15.9-59.9 63.3-49.3 105.7 0.3 1.1 0 2.2-0.9 3-0.8 0.8-2 1-3.1 0.6-6.8-2.5-14.2-3.7-21.5-3.7z"/><path class="e" d="m897.5 452.7c-2.6-9.3-8.5-18.6-17.7-21.8-5.2-1.9-11.4-0.8-16 2.2 10-22.4-0.2-52.9-22.1-65.7-25.4-14.7-60-7.1-80.8 13.6-7.9-30.4-46.5-47.2-75.5-35-29 12.2-44.4 48-36.7 78.5-18.8-6.9-41.6-0.9-54.6 14.3-6.7 7.7-12.1 27.1-11.2 45.4 1.1 21.7 19.1 38.8 40.8 38.9l212.3 1.1c18.4 2.3 37.8-5.1 50-19.2 12.1-14.1 16.6-34.4 11.5-52.3z"/><path fill-rule="evenodd" class="d" d="m843 527.7q-3.6 0-7.2-0.5l-212.1-1.1c-23.4-0.1-42.7-18.4-43.8-41.7-0.9-18.3 4.2-38.7 11.9-47.6 12.8-14.9 33.9-21.4 52.9-16.7-5.4-31.5 11.6-65.1 39.5-76.9 15.3-6.4 34-5.5 50.2 2.5 13.3 6.6 23.3 17.3 27.9 29.8 22.9-20 56.9-24.7 80.9-10.7 21.2 12.3 32 39.7 25.8 62.8 4-1 8.1-0.9 11.9 0.4 9 3.2 16.2 11.9 19.6 23.9 5.4 19 0.7 40.1-12.2 55.1-11.3 13.1-28.2 20.7-45.3 20.7zm-210.5-103c-13.6 0-27.3 5.8-36.1 16.1-5.7 6.6-11.3 25-10.4 43.3 1 20 17.5 35.8 37.7 35.9l212.3 1.1q0.2 0 0.4 0c17.3 2.3 35.9-4.8 47.3-18.1 11.4-13.2 15.7-32.6 10.9-49.4q0 0 0 0c-1.4-4.8-5.6-16.3-15.8-19.9-4.1-1.4-9.4-0.7-13.3 2-1.1 0.7-2.6 0.6-3.6-0.2-1.1-0.9-1.4-2.4-0.9-3.6 9.3-21.1-0.4-50-20.9-61.8-23-13.4-56.1-7.8-77.1 13.1-0.7 0.7-1.9 1-2.9 0.8-1.1-0.3-1.9-1.2-2.2-2.2-3.3-12.8-12.9-24-26.3-30.6-14.5-7.2-31.3-8.1-45-2.4-26.8 11.3-42.5 44.9-34.9 75 0.3 1-0.1 2.2-0.9 3-0.9 0.7-2.1 0.9-3.1 0.6-4.9-1.8-10.1-2.7-15.2-2.7z"/><path fill-rule="evenodd" class="d" d="m562 369.4c-1.6 0-3.1-1-3.7-2.6l-1.9-5.9c-0.3-0.9-1.5-1.6-2.3-1.6l-9.6-0.6c-1-0.2-2.2 0.4-2.6 1.2l-2.7 5.6c-0.5 0.9-1.3 1.6-2.3 1.9-0.9 0.3-2 0.3-2.9-0.2l-6.4-3.2c-1.9-0.9-2.7-3.2-1.8-5.1l2.8-5.6c0.4-0.8 0.2-2.1-0.5-2.7l-6.3-7.3c-0.6-0.8-1.8-1.2-2.7-0.9l-5.9 2c-2 0.6-4.2-0.4-4.9-2.4l-2.2-6.9c-0.7-2 0.4-4.2 2.4-4.8l5.9-2c0.9-0.3 1.6-1.4 1.6-2.3l0.6-9.5c0.2-1.1-0.4-2.2-1.2-2.6l-5.6-2.8c-0.9-0.5-1.6-1.3-2-2.2-0.3-1-0.2-2.1 0.3-3l3.2-6.4c0.4-0.9 1.2-1.6 2.2-1.9 0.9-0.4 2-0.3 2.9 0.2l5.6 2.7c0.8 0.4 2.1 0.2 2.7-0.4l7.2-6.3c0.9-0.6 1.3-1.9 1-2.7l-2-6c-0.7-2 0.4-4.2 2.4-4.8l6.8-2.3c2-0.7 4.2 0.4 4.9 2.4l2 5.9c0.3 0.9 1.4 1.6 2.3 1.6l9.5 0.6c1 0.2 2.2-0.4 2.6-1.2l2.8-5.6c0.4-0.9 1.2-1.6 2.2-1.9 1-0.3 2-0.3 2.9 0.2l6.5 3.2c0.9 0.4 1.6 1.2 1.9 2.2 0.3 1 0.3 2-0.2 2.9l-2.8 5.6c-0.4 0.8-0.1 2.1 0.5 2.7l6.3 7.3c0.6 0.8 1.9 1.2 2.7 0.9l5.9-2c1-0.3 2-0.2 3 0.2 0.9 0.5 1.6 1.3 1.9 2.2l2.3 6.9c0.7 2-0.4 4.1-2.4 4.8l-6 2c-0.8 0.3-1.6 1.4-1.5 2.3l-0.6 9.5c-0.2 1.1 0.3 2.2 1.2 2.6l5.5 2.8c1 0.5 1.7 1.3 2 2.2 0.3 1 0.2 2.1-0.2 3l-3.2 6.4c-0.5 0.9-1.3 1.6-2.2 1.9-1 0.4-2.1 0.3-3-0.2l-5.6-2.7c-0.8-0.5-2-0.2-2.6 0.4l-7.3 6.3c-0.8 0.6-1.2 1.9-0.9 2.7l1.9 6c0.7 2-0.4 4.2-2.4 4.8l-6.8 2.3q-0.6 0.2-1.2 0.2zm-7.7-12.5c1.8 0 3.7 1.3 4.4 3.2l2 5.9c0.2 0.8 1 1.1 1.7 0.9l6.8-2.3c0.8-0.2 1.2-1 0.9-1.8l-2-5.9c-0.6-1.9 0.2-4.3 1.8-5.4l7.1-6.1c1.2-1.4 3.6-1.8 5.4-0.9l5.6 2.7q0.6 0.3 1.1 0.1c0.4-0.1 0.6-0.4 0.8-0.7l3.2-6.4q0.3-0.5 0.1-1.1c-0.1-0.4-0.4-0.6-0.7-0.8l-5.6-2.8c-1.8-0.9-2.9-3.1-2.6-5.1l0.6-9.2c0-1.9 1.4-4 3.3-4.6l5.9-2c0.7-0.2 1.1-1 0.9-1.8l-2.3-6.8c-0.1-0.3-0.4-0.6-0.7-0.8q-0.5-0.2-1.1-0.1l-5.9 2c-1.9 0.7-4.3-0.1-5.4-1.7l-6.1-7.1c-1.4-1.2-1.8-3.7-1-5.5l2.8-5.5c0.2-0.4 0.2-0.8 0.1-1.1-0.1-0.4-0.4-0.7-0.7-0.8l-6.4-3.2c-0.4-0.2-0.8-0.2-1.1-0.1-0.4 0.1-0.7 0.4-0.8 0.7l-2.8 5.6c-0.9 1.8-3.1 2.9-5.1 2.5l-9.3-0.6c-1.9 0.1-3.9-1.3-4.5-3.2l-2-5.9c-0.3-0.8-1.1-1.2-1.8-0.9l-6.8 2.3c-0.7 0.2-1.1 1-0.9 1.8l2 5.9c0.6 1.9-0.1 4.2-1.8 5.4l-7 6.1c-1.3 1.4-3.7 1.8-5.5 0.9l-5.6-2.7q-0.5-0.3-1.1-0.1c-0.3 0.1-0.6 0.3-0.8 0.7l-3.2 6.4q-0.2 0.5 0 1.1c0.1 0.3 0.3 0.6 0.7 0.8l5.6 2.8c1.7 0.9 2.9 3.1 2.5 5.1l-0.6 9.2c0.1 1.9-1.3 4-3.2 4.6l-6 2c-0.7 0.2-1.1 1-0.8 1.8l2.3 6.8c0.2 0.7 1 1.1 1.7 0.9l6-2c1.8-0.7 4.2 0.1 5.4 1.7l6.1 7.1c1.3 1.2 1.8 3.7 0.9 5.5l-2.8 5.5c-0.3 0.7 0 1.6 0.7 1.9l6.4 3.2c0.3 0.2 0.7 0.2 1.1 0.1 0.3-0.1 0.6-0.4 0.8-0.7l2.8-5.6c0.8-1.8 3-2.9 5-2.5l9.3 0.6q0.1 0 0.2 0zm-2.6-11.1c-9.3 0-18-5.9-21.1-15.1-3.9-11.6 2.4-24.2 14-28.1 5.6-1.9 11.6-1.5 16.9 1.1 5.4 2.7 9.3 7.2 11.2 12.8 1.9 5.6 1.5 11.7-1.2 17-2.6 5.3-7.1 9.2-12.8 11.1-2.3 0.8-4.7 1.2-7 1.2zm0-42c-2.1 0-4.3 0.4-6.3 1.1-10.3 3.4-15.9 14.7-12.5 25 3.5 10.3 14.7 15.9 25.1 12.4 5-1.7 9-5.2 11.4-9.9 2.3-4.7 2.7-10.1 1-15.1-1.7-5-5.2-9-9.9-11.4-2.8-1.4-5.8-2.1-8.8-2.1z"/><path fill-rule="evenodd" class="d" d="m650.7 332.4l-0.8 4.4c-0.1 0.9-1 1.5-1.9 1.3l-3.8-0.6c-0.8-0.2-1.9 0.3-2.3 1.2l-3.1 4.9c-0.6 0.7-0.6 1.9-0.1 2.6l2.3 3.2c0.5 0.7 0.3 1.7-0.4 2.2l-3.6 2.6c-0.8 0.6-1.8 0.4-2.3-0.4l-2.2-3.1c-0.6-0.7-1.7-1.1-2.5-0.8l-5.7 1.3c-0.9 0.1-1.8 0.9-1.9 1.8l-0.7 3.8c-0.1 0.9-1 1.5-1.9 1.3l-4.3-0.7c-0.9-0.2-1.5-1-1.4-1.9l0.7-3.8c0.1-0.9-0.4-1.9-1.2-2.3l-5-3.1c-0.7-0.6-1.9-0.6-2.6-0.1l-3.1 2.2c-0.8 0.6-1.8 0.4-2.3-0.3l-2.6-3.7c-0.5-0.7-0.4-1.7 0.4-2.2l3.1-2.3c0.8-0.5 1.1-1.6 0.8-2.5l-1.3-5.7c-0.1-0.9-0.9-1.7-1.8-1.9l-3.8-0.6c-0.9-0.2-1.5-1-1.3-1.9l0.7-4.4c0.2-0.9 1-1.5 1.9-1.3l3.8 0.6c0.9 0.2 2-0.3 2.3-1.1l3.1-5c0.6-0.7 0.6-1.9 0.1-2.6l-2.2-3.2c-0.5-0.7-0.4-1.7 0.4-2.3l3.6-2.5c0.7-0.5 1.7-0.4 2.3 0.4l2.2 3.1c0.5 0.8 1.6 1.1 2.5 0.8l5.7-1.3c0.9-0.1 1.7-0.9 1.9-1.8l0.6-3.8c0.2-0.9 1-1.5 1.9-1.3l4.4 0.7c0.9 0.1 1.5 1 1.3 1.9l-0.6 3.8c-0.2 0.9 0.4 1.9 1.2 2.3l4.9 3.1c0.7 0.6 1.9 0.6 2.7 0.1l3.1-2.3c0.7-0.5 1.8-0.3 2.3 0.4l2.5 3.7c0.6 0.7 0.4 1.7-0.3 2.2l-3.2 2.3c-0.7 0.5-1.1 1.6-0.8 2.5l1.3 5.7c0.1 0.9 0.9 1.7 1.8 1.9l3.8 0.6c0.9 0.2 1.5 1 1.4 1.9zm-26.2-15.4c-7-1.2-13.7 3.6-14.9 10.7-1.2 7.1 3.5 13.8 10.6 15 7.1 1.2 13.8-3.6 15-10.7 1.2-7.1-3.6-13.8-10.7-15z"/><path fill-rule="evenodd" class="d" d="m490.6 66.9h22l161.5-26.7v-8.8l35.1-0.1v7.7c21.3 10.5 42.8 21.2 54.8 27.5h17.5v21.1h-0.3v43.1l-45.6 0.1-0.1-43.2-11.9 0.1-1 315.2h-62.7l-0.5-315.2-143.7 0.3h-56.1-1.8l0.1 111.7h12.1v35.1l-12.6 0.1q0.1 2.3 0.1 4.6l0.1 7.5v3.3q1.2 0.2 2.3 0.5c2.2 0.7 4.4 1.6 6.3 2.9 1.9 1.2 3.7 2.7 5.2 4.4 1.5 1.8 2.8 3.7 3.7 5.8l0.4 0.8 0.3 0.8c0.1 0.5 0.4 1 0.5 1.6 0.3 1.1 0.6 2.2 0.7 3.5 0.2 1.3 0.2 2.1 0.3 3.1v0.4 0.2l-0.1 0.4v0.9q0 0.8-0.2 1.6c-0.3 2.3-1 4.5-1.9 6.6-0.9 2.1-2.2 3.9-3.7 5.7-1.5 1.7-3.2 3.1-5.1 4.4-1.9 1.2-4 2.1-6.1 2.7-1.1 0.3-2.1 0.6-3.4 0.7l-0.9 0.1-0.4 0.1c-0.2 0-0.3 0-0.4 0h-1.4-0.5-0.4l-0.9-0.1q-0.8 0-1.6-0.2c-1.1-0.1-2.2-0.4-3.2-0.7-2.1-0.7-4.1-1.7-5.8-3-1.8-1.3-3.3-2.9-4.5-4.6-1.2-1.7-2.2-3.6-2.7-5.6-0.5-1.9-0.8-4-0.6-5.9l0.1-0.3 0.4-0.1 0.1 0.3c0.9 1.8 1.8 3.3 2.8 4.7 1.1 1.4 2.3 2.6 3.6 3.6 1.3 1 2.6 1.9 4 2.5q2.2 1 4.4 1.5c0.8 0.1 1.5 0.2 2.3 0.3q0.6 0 1.1 0h0.6 0.2 0.1 0.1l1.4-0.1c0.1 0 0.3 0 0.4 0l0.2-0.1 0.5-0.1c0.6-0.1 1.3-0.4 2-0.5 1.4-0.6 2.8-1.2 4-2.1 1.2-0.8 2.3-1.8 3.2-3 0.9-1.1 1.6-2.4 2.2-3.7 0.5-1.4 1-2.8 1.1-4.2q0.1-0.5 0.1-1.1v-0.9c-0.1-0.9-0.1-2-0.2-2.4-0.1-0.6-0.3-1.3-0.5-2-0.1-0.3-0.3-0.7-0.4-1l-0.2-0.5-0.2-0.5c-0.6-1.3-1.4-2.5-2.4-3.6-0.9-1.1-2-2-3.2-2.7-1.2-0.8-2.6-1.3-3.9-1.8-1.4-0.4-2.8-0.6-4.2-0.7h-0.3c-2.4-0.1-4.3-2.1-4.3-4.5l0.1-7.5 0.2-7.5q0.1-2.2 0.2-4.5h-13.3l-0.1-35.2h12l-0.2-111.6h-30l-0.1-13.7 62.3-0.1zm216.6 298.4l-16.5-13.9-16.8 13.9zm-36.1-222l19.3 16.2 19.8-16.2zm36.6-6.7l-17.4-14.7-17.9 14.7zm-34.3 52.9l17.1 14.3 17.4-14.4zm34.4-6.7l-17.4-14.6-17.8 14.7zm-36.6 51l19.3 16.2 19.7-16.3zm36.7-6.7l-17.5-14.6-17.8 14.7zm-36.8 52.9v0.3l19.5 16.4 20.4-16.8zm36.9-6.7l-17.5-14.6-17.8 14.6zm-36.6 53.4l19.3 16.2 19.8-16.2zm36.6-6.7l-17.4-14.7-17.9 14.7zm-22.6-19l-14.3-12v23.8zm-0.1-46.7l-14.3-12v23.8zm0-46.2l-14.3-12v23.8zm-0.1-44.3l-14.3-12 0.1 23.7zm-0.1-46.1l-14.3-12v23.7zm5.2-4.3l19.7-16.2-38.9 0.1zm21.8-9.3l-16.6 13.6 16.6 14zm0.1 46.1l-16.6 13.7 16.6 13.9zm0.1 44.3l-16.6 13.7 16.6 13.9zm0.1 46.2l-16.6 13.7 16.6 13.9zm0.1 46.7l-16.6 13.6 16.6 14zm0.1 46.2l-16.6 13.6 16.6 14zm-27 13.6l-14.3-12 0.1 23.7zm63.9-280.5c-11.4-5.8-26.4-13.2-40.3-20.1v7.9h8l0.1 12.3zm-83.4 0.1v-12.2l8-0.1v-7.5l-120.4 19.9z"/><path class="e" d="m722.6 778c0 6.8-5.6 12.4-12.4 12.4h-377c-6.8 0-12.4-5.6-12.4-12.4v-406.1c0-6.9 5.6-12.4 12.4-12.4h377c6.8 0 12.4 5.5 12.4 12.4z"/><path fill-rule="evenodd" class="d" d="m710.2 792.8h-377c-8.2 0-14.8-6.6-14.8-14.8v-406.1c0-8.2 6.6-14.8 14.8-14.8h377c8.1 0 14.8 6.6 14.8 14.8v406.1c0 8.2-6.7 14.8-14.8 14.8zm-377-430.9c-5.5 0-9.9 4.5-9.9 10v406.1c0 5.5 4.4 9.9 9.9 9.9h377c5.5 0 9.9-4.4 9.9-9.9v-406.1c0-5.5-4.4-10-9.9-10z"/><path class="e" d="m722.6 402.9v-29.4c0-7.7-5.6-14-12.4-14h-377c-6.8 0-12.4 6.3-12.4 14v29.4z"/><path fill-rule="evenodd" class="d" d="m722.6 405.4h-401.8c-1.3 0-2.4-1.1-2.4-2.5v-29.4c0-9.1 6.6-16.4 14.8-16.4h377c8.1 0 14.8 7.3 14.8 16.4v29.4c0 1.4-1.1 2.5-2.4 2.5zm-399.3-4.9h396.8v-27c0-6.4-4.4-11.6-9.9-11.6h-377c-5.5 0-9.9 5.2-9.9 11.6z"/><path class="f" d="m359.8 393.3c-4.7 0-8.4-3.7-8.4-8.4 0-4.6 3.7-8.3 8.4-8.3 4.6 0 8.3 3.7 8.3 8.3 0 4.7-3.7 8.4-8.3 8.4z"/><path class="g" d="m401.7 384.9c-4.6 0-8.4-3.7-8.4-8.3 0-4.7 3.8-8.4 8.4-8.4 4.6 0 8.4 3.7 8.4 8.4 0 4.6-3.8 8.3-8.4 8.3z"/><path fill-rule="evenodd" class="d" d="m442.8 352.8c-5.9 0-10.8-4.8-10.8-10.8 0-6 4.9-10.8 10.8-10.8 6 0 10.8 4.8 10.8 10.8 0 6-4.8 10.8-10.8 10.8zm6-10.8c0-3.3-2.7-5.9-6-5.9-3.2 0-5.9 2.6-5.9 5.9 0 3.3 2.7 5.9 5.9 5.9 3.3 0 6-2.6 6-5.9z"/><path class="h" d="m442.8 560.6v15.1h-76.3v-15.1z"/><path class="h" d="m427.5 588.7v15.1h-61v-15.1z"/><path class="d" d="m678.5 640.6v99.6h-312v-99.6z"/><path class="i" d="m450.5 640.6v99.6h-84v-99.6z"/><path class="e" d="m545.3 560.6v15.1h-63.6v-15.1z"/><path fill-rule="evenodd" class="d" d="m545.3 578.1h-63.6c-1.3 0-2.4-1-2.4-2.4v-15.1c0-1.3 1.1-2.4 2.4-2.4h63.6c1.4 0 2.5 1.1 2.5 2.4v15.1c0 1.4-1.1 2.4-2.5 2.4zm-61.2-15v10.2h58.8v-10.2z"/><path class="e" d="m558 588.7v15.1h-76.3v-15.1z"/><path fill-rule="evenodd" class="d" d="m558 606.3h-76.3c-1.3 0-2.4-1.1-2.4-2.5v-15.1c0-1.3 1.1-2.4 2.4-2.4h76.3c1.4 0 2.5 1.1 2.5 2.4v15.1c0 1.4-1.1 2.5-2.5 2.5zm-73.9-15.1v10.2h71.5v-10.2z"/><path class="e" d="m662.6 560.6v15.1h-65.7v-15.1z"/><path fill-rule="evenodd" class="d" d="m662.6 578.1h-65.7c-1.3 0-2.4-1.1-2.4-2.4v-15.1c0-1.3 1.1-2.4 2.4-2.4h65.7c1.4 0 2.5 1.1 2.5 2.4v15.1c0 1.3-1.1 2.4-2.5 2.4zm-63.2-15v10.2h60.8v-10.2z"/><path class="e" d="m673.2 588.8v15h-76.3v-15z"/><path fill-rule="evenodd" class="d" d="m673.2 606.3h-76.3c-1.3 0-2.4-1.1-2.4-2.5v-15c0-1.4 1.1-2.5 2.4-2.5h76.3c1.4 0 2.5 1.1 2.5 2.5v15c0 1.4-1.1 2.5-2.5 2.5zm-73.9-15.1v10.2h71.5v-10.2z"/><path class="i" d="m405.7 515.3c-20.5 0-37-16.6-37-37.1 0-20.5 16.5-37.1 37-37.1 20.6 0 37.1 16.6 37.1 37.1 0 20.5-16.5 37.1-37.1 37.1z"/><path class="e" d="m519.9 515.3c-20.5 0-37.1-16.6-37.1-37.1 0-20.5 16.6-37.1 37.1-37.1 20.5 0 37 16.6 37 37.1 0 20.5-16.5 37.1-37 37.1z"/><path fill-rule="evenodd" class="d" d="m519.9 517.7c-21.9 0-39.6-17.7-39.6-39.5 0-21.9 17.7-39.6 39.6-39.6 21.8 0 39.5 17.7 39.5 39.6 0 21.8-17.7 39.5-39.5 39.5zm34.6-39.5c0-19.2-15.5-34.7-34.6-34.7-19.2 0-34.7 15.5-34.7 34.7 0 19.1 15.5 34.6 34.7 34.6 19.1 0 34.6-15.5 34.6-34.6z"/><path class="e" d="m634 515.3c-20.5 0-37.1-16.6-37.1-37.1 0-20.5 16.6-37.1 37.1-37.1 20.5 0 37.1 16.6 37.1 37.1 0 20.5-16.6 37.1-37.1 37.1z"/><path fill-rule="evenodd" class="d" d="m634 517.7c-21.9 0-39.5-17.7-39.5-39.5 0-21.9 17.6-39.6 39.5-39.6 21.8 0 39.5 17.7 39.5 39.6 0 21.8-17.7 39.5-39.5 39.5zm34.6-39.5c0-19.2-15.5-34.7-34.6-34.7-19.2 0-34.7 15.5-34.7 34.7 0 19.1 15.5 34.6 34.7 34.6 19.1 0 34.6-15.5 34.6-34.6z"/><path fill-rule="evenodd" class="d" d="m861.8 274.3c9.6 9.6 9.6 25.1 0 34.7-4.6 4.6-10.7 7.1-17.3 7.1-4.3 0-8.6-1.1-12.4-3.3l-0.7-0.4-24.7 24.7c0 0-1.2 1-2.9 1q-2.1 0-4.1-2-1.9-1.9-1.9-3.8c0-1.6 1.2-2.8 1.2-2.8l24.8-24.8-0.4-0.7c-5.6-9.6-4.1-21.8 3.8-29.7 4.6-4.6 10.8-7.1 17.3-7.1 6.5 0 12.7 2.5 17.3 7.1zm-0.1 17.3c0-9.5-7.7-17.2-17.2-17.2-9.5 0-17.2 7.7-17.2 17.2 0 9.6 7.7 17.2 17.2 17.2 9.5 0 17.2-7.6 17.2-17.2z"/><path class="d" d="m853.2 290.7v4.5h-17.8v-4.5z"/><path class="d" d="m782.4 612.4c-18.8 0-34.1-15.3-34.1-34.1 0-18.9 15.3-34.2 34.1-34.2 18.9 0 34.2 15.3 34.2 34.2 0 18.8-15.3 34.1-34.2 34.1z"/><path class="e" d="m782.4 603.8c-14.1 0-25.5-11.4-25.5-25.5 0-14.2 11.4-25.6 25.5-25.6 14.2 0 25.6 11.4 25.6 25.6 0 14.1-11.4 25.5-25.6 25.5z"/><path fill-rule="evenodd" class="d" d="m782.4 604.8c-14.7 0-26.5-11.9-26.5-26.5 0-14.7 11.8-26.6 26.5-26.6 14.7 0 26.6 11.9 26.6 26.6 0 14.6-11.9 26.5-26.6 26.5zm24.6-26.5c0-13.6-11-24.6-24.6-24.6-13.6 0-24.6 11-24.6 24.6 0 13.6 11 24.5 24.6 24.5 13.6 0 24.6-10.9 24.6-24.5z"/><path class="d" d="m782.4 579.2c-0.5 0-1-0.4-1-0.9v-13.1c0-0.5 0.5-1 1-1 0.6 0 1 0.5 1 1v13.1c0 0.5-0.4 0.9-1 0.9z"/><path class="d" d="m797.7 579.2h-15.3c-0.5 0-1-0.4-1-0.9 0-0.6 0.5-1 1-1h15.3c0.5 0 1 0.4 1 1 0 0.5-0.5 0.9-1 0.9z"/><path class="d" d="m783.4 555.6c0 0.5-0.4 1-1 1-0.5 0-1-0.5-1-1 0-0.6 0.5-1.1 1-1.1 0.6 0 1 0.5 1 1.1z"/><path class="d" d="m799.2 562.9c-0.4 0.4-1 0.4-1.4 0-0.4-0.4-0.4-1 0-1.4 0.4-0.4 1-0.4 1.4 0 0.4 0.4 0.4 1 0 1.4z"/><path class="d" d="m805.1 579.3c-0.5 0-1-0.5-1-1 0-0.6 0.5-1.1 1-1.1 0.6 0 1 0.5 1 1.1 0 0.5-0.4 1-1 1z"/><path class="d" d="m797.8 595c-0.4-0.4-0.4-1 0-1.4 0.4-0.4 1-0.4 1.4 0 0.4 0.4 0.4 1 0 1.4-0.4 0.4-1 0.4-1.4 0z"/><path class="d" d="m781.4 601c0-0.6 0.5-1.1 1-1.1 0.6 0 1 0.5 1 1.1 0 0.5-0.4 1-1 1-0.5 0-1-0.5-1-1z"/><path class="d" d="m765.7 593.6c0.4-0.4 1-0.4 1.4 0 0.4 0.4 0.4 1 0 1.4-0.4 0.4-1 0.4-1.4 0-0.4-0.4-0.4-1 0-1.4z"/><path class="d" d="m759.7 577.2c0.6 0 1.1 0.5 1.1 1.1 0 0.5-0.5 1-1.1 1-0.5 0-1-0.5-1-1 0-0.6 0.5-1.1 1-1.1z"/><path class="d" d="m767.1 561.5c0.4 0.4 0.4 1 0 1.4-0.4 0.4-1 0.4-1.4 0-0.4-0.4-0.4-1 0-1.4 0.4-0.4 1-0.4 1.4 0z"/><path class="d" d="m818.1 565.2h14.3c0.5 0 1-0.4 1-1 0-0.5-0.5-1-1-1h-14.3c-0.6 0-1 0.5-1 1 0 0.6 0.4 1 1 1z"/><path class="d" d="m832.4 566.4h-14.3c-1.3 0-2.3-1-2.3-2.2 0-1.2 1-2.2 2.3-2.2h14.3c1.2 0 2.2 1 2.2 2.2 0 1.2-1 2.2-2.2 2.2z"/><path class="d" d="m832.4 591.3h-14.3c-0.6 0-1 0.4-1 1 0 0.5 0.4 1 1 1h14.3c0.5 0 1-0.5 1-1 0-0.6-0.5-1-1-1z"/><path class="d" d="m832.4 594.5h-14.3c-1.3 0-2.3-1-2.3-2.2 0-1.2 1-2.2 2.3-2.2h14.3c1.2 0 2.2 1 2.2 2.2 0 1.2-1 2.2-2.2 2.2z"/><path class="d" d="m850.2 577.3h-26.8c-0.5 0-0.9 0.4-0.9 1 0 0.5 0.4 0.9 0.9 0.9h26.8c0.6 0 1-0.4 1-0.9 0-0.6-0.4-1-1-1z"/><path class="d" d="m850.2 580.5h-26.8c-1.2 0-2.2-1-2.2-2.2 0-1.3 1-2.3 2.2-2.3h26.8c1.2 0 2.2 1 2.2 2.3 0 1.2-1 2.2-2.2 2.2z"/><path class="d" d="m280.6 616.9v-15.9h50.7c13.7 0 24.8 11.1 24.8 24.9v112.5c0 4.9 4.1 9 9 9h47.6c5 0 9-4.1 9-9v-129.5h15.9v129.5c0 13.7-11.2 24.9-24.9 24.9h-47.6c-13.7 0-24.9-11.2-24.9-24.9v-112.5c0-5-4-9-8.9-9z"/><path class="j" d="m148 617.5v-17.6c0-9.7 7.9-17.5 17.5-17.5h109c9.7 0 17.5 7.8 17.5 17.5v17.6c0 9.7-7.8 17.5-17.5 17.5h-109c-9.6 0-17.5-7.8-17.5-17.5z"/><path fill-rule="evenodd" class="d" d="m274.5 637.5h-109c-11 0-19.9-9-19.9-20v-17.6c0-11 8.9-20 19.9-20h109c11 0 20 9 20 20v17.6c0 11-9 20-20 20zm-109-52.7c-8.3 0-15.1 6.8-15.1 15.1v17.6c0 8.3 6.8 15.1 15.1 15.1h109c8.3 0 15.1-6.8 15.1-15.1v-17.6c0-8.3-6.8-15.1-15.1-15.1z"/><path class="j" d="m387.6 708v-253.5c0-9.7 7.8-17.6 17.5-17.6h37.7c9.7 0 17.5 7.9 17.5 17.6v253.5c0 9.7-7.8 17.5-17.5 17.5h-37.7c-9.7 0-17.5-7.8-17.5-17.5z"/><path fill-rule="evenodd" class="d" d="m442.8 728h-37.7c-11 0-20-9-20-20v-253.5c0-11 9-20 20-20h37.7c11 0 20 9 20 20v253.5c0 11-9 20-20 20zm-37.7-288.6c-8.3 0-15.1 6.7-15.1 15.1v253.5c0 8.3 6.8 15.1 15.1 15.1h37.7c8.3 0 15.1-6.8 15.1-15.1v-253.5c0-8.4-6.8-15.1-15.1-15.1z"/><path class="h" d="m398.9 704.3q0-4 0-8.1"/><path class="h" d="m400.7 704.3q0-4 0-8.1c0-2.4-3.7-2.4-3.7 0q0 4.1 0 8.1c0 2.4 3.7 2.4 3.7 0z"/><path class="h" d="m431.4 696.4q6.5-1.9 12.9-3.7"/><path class="h" d="m431.9 698.1q6.5-1.8 12.9-3.6c2.3-0.7 1.3-4.2-0.9-3.6q-6.5 1.9-12.9 3.7c-2.3 0.6-1.3 4.2 0.9 3.5z"/><path class="h" d="m408.6 652.3c1.2 3.8 4.4 6.9 8.2 8.1"/><path class="h" d="m406.8 652.8c1.6 4.5 5 7.8 9.5 9.4 2.2 0.7 3.2-2.8 1-3.6-3.3-1.1-5.8-3.6-7-6.8-0.8-2.2-4.3-1.2-3.5 1z"/><path class="h" d="m429.8 639.2q4.8-1.7 9.7-3.3"/><path class="h" d="m430.2 641q4.9-1.7 9.8-3.3c2.2-0.8 1.3-4.3-1-3.6q-4.9 1.7-9.7 3.3c-2.3 0.8-1.3 4.3 0.9 3.6z"/><path class="h" d="m436 660.7q2.5 2.4 4.9 4.9"/><path class="h" d="m434.7 662q2.5 2.4 4.9 4.9c1.6 1.7 4.2-0.9 2.6-2.6q-2.5-2.5-4.9-4.9c-1.6-1.7-4.2 0.9-2.6 2.6z"/><path class="h" d="m400.7 606.6c3 4.5 6.7 8.5 10.9 11.9"/><path class="h" d="m399.1 607.5c3.1 4.6 6.8 8.8 11.2 12.3 1.8 1.5 4.4-1.1 2.6-2.6-4.1-3.3-7.7-7.2-10.6-11.5-1.4-2-4.5-0.1-3.2 1.8z"/><path class="h" d="m421.7 582.4c3.9-0.8 7.5-3.2 9.6-6.6"/><path class="h" d="m422.2 584.2c4.4-1 8.2-3.7 10.7-7.5 1.3-2-1.8-3.8-3.1-1.8-2.1 3-5.1 4.9-8.6 5.8-2.3 0.5-1.3 4 1 3.5z"/><path class="h" d="m420.1 602.2q4-0.9 8.1-1.8"/><path class="h" d="m420.6 603.9q4-0.8 8.1-1.7c2.3-0.5 1.3-4-1-3.5q-4 0.8-8.1 1.7c-2.3 0.5-1.3 4 1 3.5z"/><path class="h" d="m401.8 579q1.7-5.7 3.4-11.4"/><path class="h" d="m403.6 579.5q1.7-5.7 3.3-11.4c0.7-2.2-2.8-3.2-3.5-1q-1.7 5.7-3.4 11.4c-0.6 2.3 2.9 3.2 3.6 1z"/><path class="h" d="m397.2 535.1c0.7-4.8 3-9.5 6.5-13"/><path class="h" d="m398.9 535.6c0.8-4.6 2.8-8.8 6.1-12.2 1.6-1.7-0.9-4.3-2.6-2.6-3.7 3.9-6.1 8.6-7 13.9-0.4 2.3 3.2 3.3 3.5 0.9z"/><path class="h" d="m418.2 532.2q5 3.1 10 6.1"/><path class="h" d="m417.3 533.7q5 3.1 10 6.2c2 1.3 3.8-1.9 1.8-3.1q-5-3.1-9.9-6.2c-2.1-1.3-3.9 1.9-1.9 3.1z"/><path class="h" d="m405.4 548.2q0.8-0.8 1.6-1.7"/><path class="h" d="m406.7 549.5q0.8-0.9 1.6-1.7c1.7-1.6-0.9-4.2-2.6-2.6q-0.8 0.9-1.6 1.7c-1.7 1.6 0.9 4.2 2.6 2.6z"/><path class="h" d="m405.5 483.1c0.4 3.7 2 7.2 4.5 10"/><path class="h" d="m403.7 483.6c0.5 4.1 2.3 7.7 5 10.8 1.5 1.8 4.1-0.8 2.6-2.6-2.3-2.6-3.6-5.7-4.1-9.2-0.3-2.3-3.8-1.3-3.5 1z"/><path class="h" d="m395.5 450.6c1 2.5 4.1 3.9 6.6 3.1"/><path class="h" d="m393.9 451.5c1.5 3.3 5.3 4.9 8.7 4 2.2-0.6 1.3-4.2-1-3.5-1.9 0.5-3.7-0.5-4.5-2.3-1-2.2-4.1-0.3-3.2 1.8z"/><path class="h" d="m428 449q0.8 1.7 1.6 3.3"/><path class="h" d="m426.4 450q0.8 1.6 1.6 3.2c1.1 2.1 4.3 0.2 3.2-1.8q-0.8-1.7-1.6-3.3c-1.1-2.1-4.3-0.2-3.2 1.9z"/><path class="h" d="m439.5 496.1q4.1 4.1 8.2 8.1"/><path class="h" d="m438.2 497.4q4.1 4.1 8.2 8.1c1.6 1.7 4.2-0.9 2.6-2.5q-4.1-4.1-8.2-8.2c-1.6-1.6-4.2 0.9-2.6 2.6z"/><path class="h" d="m421.9 476.8q1.6-1.6 3.2-3.3"/><path class="h" d="m423.2 478.1q1.6-1.6 3.2-3.3c1.6-1.7-1-4.3-2.6-2.6q-1.6 1.7-3.2 3.4c-1.6 1.7 1 4.3 2.6 2.5z"/><path class="h" d="m444.4 458.7q0 4.1 0 8.1"/><path class="h" d="m442.6 458.7q0 4.1 0 8.1c0 2.4 3.6 2.4 3.6 0q0-4 0-8.1c0-2.4-3.6-2.4-3.6 0z"/><path class="h" d="m445.7 545q0.8 3.3 1.6 6.5"/><path class="h" d="m443.9 545.5q0.8 3.2 1.7 6.5c0.5 2.3 4.1 1.3 3.5-1q-0.8-3.2-1.7-6.5c-0.5-2.3-4.1-1.3-3.5 1z"/><path class="h" d="m447.7 593.7q2.4-1.6 4.9-3.2"/><path class="h" d="m448.6 595.3q2.4-1.6 4.9-3.3c1.9-1.3 0.1-4.4-1.9-3.1q-2.4 1.6-4.9 3.2c-1.9 1.3-0.1 4.5 1.9 3.2z"/><path class="h" d="m395.6 642.5c0.2-3.7 1.9-7.4 4.8-9.8"/><path class="h" d="m397.4 642.5c0.3-3.4 1.8-6.3 4.3-8.5 1.8-1.6-0.8-4.2-2.6-2.6-3.2 2.9-5 6.8-5.3 11.1-0.2 2.4 3.5 2.4 3.6 0z"/><path class="h" d="m445.9 616.5q1.7 5.7 3.4 11.4"/><path class="h" d="m444.1 617q1.7 5.7 3.5 11.4c0.6 2.2 4.2 1.2 3.5-1q-1.7-5.7-3.5-11.3c-0.6-2.3-4.2-1.3-3.5 0.9z"/><path class="h" d="m415.2 684.8c-0.8 4.4-0.4 9 1.3 13.1"/><path class="h" d="m413.5 684.3c-0.9 4.8-0.5 9.6 1.3 14.1 0.8 2.2 4.4 1.2 3.5-1-1.5-3.9-2.1-7.9-1.3-12.1 0.4-2.3-3.1-3.3-3.5-1z"/><path class="h" d="m434.6 714q3.3-0.9 6.5-1.8"/><path class="h" d="m435.1 715.7q3.3-0.8 6.5-1.7c2.3-0.6 1.3-4.1-1-3.5q-3.2 0.8-6.5 1.7c-2.2 0.6-1.3 4.2 1 3.5z"/><path class="h" d="m433.1 515.6c0.6 2 2.7 3.4 4.8 3.2"/><path class="h" d="m431.3 516.1c1 2.8 3.6 4.7 6.6 4.6 2.4-0.1 2.4-3.8 0-3.7-1.3 0.1-2.6-0.6-3-1.9-0.8-2.2-4.4-1.2-3.6 1z"/><path class="h" d="m452.6 528.6q0.8 0.9 1.6 1.7"/><path class="h" d="m451.3 529.9q0.8 0.9 1.6 1.7c1.7 1.6 4.2-0.9 2.6-2.6q-0.8-0.8-1.7-1.6c-1.6-1.7-4.2 0.9-2.5 2.5z"/><path class="k" d="m285.7 299h-98.3c-1.3 0-2.4-1.1-2.4-2.4 0-1.4 1.1-2.4 2.4-2.4h98.3c1.4 0 2.5 1 2.5 2.4 0 1.3-1.1 2.4-2.5 2.4z"/><path class="d" d="m830.4 196.9h-63c-1.3 0-2.4-1.1-2.4-2.5 0-1.3 1.1-2.4 2.4-2.4h63c1.3 0 2.4 1.1 2.4 2.4 0 1.4-1.1 2.5-2.4 2.5z"/><path class="d" d="m830.4 210.7h-98.3c-1.4 0-2.5-1.1-2.5-2.5 0-1.3 1.1-2.4 2.5-2.4h98.3c1.3 0 2.4 1.1 2.4 2.4 0 1.4-1.1 2.5-2.4 2.5z"/><path class="k" d="m304.5 270.6h-32.9c-1.3 0-2.4-1-2.4-2.4 0-1.3 1.1-2.4 2.4-2.4h32.9c1.4 0 2.5 1.1 2.5 2.4 0 1.4-1.1 2.4-2.5 2.4z"/><path class="k" d="m353.7 319.3h-32.9c-1.3 0-2.4-1.1-2.4-2.5 0-1.3 1.1-2.4 2.4-2.4h32.9c1.3 0 2.4 1.1 2.4 2.4 0 1.4-1.1 2.5-2.4 2.5z"/><path class="d" d="m452.5 828.7q-0.6 0-1.2-0.2l-17-4.8c-2.5-0.7-3.9-3.3-3.2-5.7 0.7-2.4 3.3-3.8 5.7-3.1l17 4.9c2.4 0.7 3.8 3.2 3.1 5.6-0.6 2-2.4 3.3-4.4 3.3z"/><path class="d" d="m441.6 834.8q-0.6 0-1.3-0.2c-2.4-0.7-3.8-3.2-3.1-5.6l4.9-17.1c0.7-2.4 3.2-3.7 5.6-3.1 2.4 0.7 3.8 3.2 3.1 5.6l-4.8 17.1c-0.6 2-2.4 3.3-4.4 3.3z"/><path class="d" d="m162.5 435.8q-0.6 0-1.3-0.2l-18.9-5.4c-2.6-0.8-4.2-3.6-3.4-6.2 0.7-2.7 3.5-4.2 6.2-3.5l18.8 5.4c2.7 0.7 4.2 3.5 3.5 6.2-0.6 2.2-2.7 3.7-4.9 3.7z"/><path class="d" d="m150.4 442.5q-0.7 0-1.3-0.2c-2.7-0.8-4.3-3.6-3.5-6.2l5.4-18.9c0.7-2.6 3.5-4.2 6.2-3.4 2.7 0.7 4.2 3.5 3.5 6.2l-5.4 18.8c-0.7 2.2-2.7 3.7-4.9 3.7z"/><path class="d" d="m767.6 326.5q-0.1-0.5-0.1-1l-0.2-13.9c0-2 1.6-3.6 3.6-3.6 1.9 0 3.5 1.6 3.6 3.5l0.1 13.9c0 2-1.5 3.6-3.5 3.6-1.6 0-3-1-3.5-2.5z"/><path class="d" d="m760.6 319.6q-0.1-0.5-0.1-1c0-2 1.5-3.6 3.5-3.6l13.9-0.1c2 0 3.5 1.6 3.6 3.5 0 2-1.6 3.6-3.5 3.6l-13.9 0.1c-1.6 0.1-3-1-3.5-2.5z"/><path class="d" d="m753.1 648.1q-0.2-0.6-0.2-1.2l-0.2-16.8c0-2.3 1.9-4.3 4.3-4.3 2.4 0 4.3 1.9 4.4 4.2l0.1 16.8c0.1 2.4-1.9 4.4-4.2 4.4-2 0-3.7-1.3-4.2-3.1z"/><path class="d" d="m744.6 639.8q-0.1-0.6-0.2-1.2c0-2.4 1.9-4.3 4.3-4.3l16.8-0.2c2.4 0 4.3 1.9 4.3 4.3 0.1 2.3-1.8 4.3-4.2 4.3l-16.8 0.2c-2 0-3.6-1.3-4.2-3.1z"/><path fill-rule="evenodd" class="d" d="m259.8 678.6v31.9h-31.9v-31.9zm-27 4.8v22.2h22.1v-22.2z"/><path class="d" d="m202.5 688h21.2c0.8 0 1.5-0.7 1.5-1.5 0-0.8-0.7-1.5-1.5-1.5h-21.2c-0.8 0-1.4 0.7-1.4 1.5 0 0.8 0.6 1.5 1.4 1.5z"/><path class="d" d="m194.6 704h28.6c1.1 0 2-0.7 2-1.5 0-0.8-0.9-1.4-2-1.4h-28.6c-1.1 0-2 0.6-2 1.4 0 0.8 0.9 1.5 2 1.5z"/><path class="d" d="m184.2 695.5h39.5c0.8 0 1.5-0.6 1.5-1.4 0-0.8-0.7-1.5-1.5-1.5h-39.5c-0.9 0-1.5 0.7-1.5 1.5 0 0.8 0.6 1.4 1.5 1.4z"/><path fill-rule="evenodd" class="d" d="m586.2 217.7v31.9h-31.9v-31.9zm-27 4.9v22.1h22.1v-22.1z"/><path class="d" d="m611.5 227.1h-21.1c-0.8 0-1.5-0.6-1.5-1.4 0-0.9 0.7-1.5 1.5-1.5h21.1c0.9 0 1.5 0.6 1.5 1.5 0 0.8-0.6 1.4-1.5 1.4z"/><path class="d" d="m619.5 243.2h-28.6c-1.1 0-2-0.7-2-1.5 0-0.8 0.9-1.5 2-1.5h28.6c1.1 0 2 0.7 2 1.5 0 0.8-0.9 1.5-2 1.5z"/><path class="d" d="m629.9 234.7h-39.5c-0.8 0-1.5-0.7-1.5-1.5 0-0.8 0.7-1.4 1.5-1.4h39.5c0.8 0 1.5 0.6 1.5 1.4 0 0.8-0.7 1.5-1.5 1.5z"/><path class="l" d="m385 340.5c5.9 0 5.9-9.2 0-9.2-5.8 0-5.9 9.2 0 9.2z"/><path class="l" d="m294.8 762.6c5.9 0 5.9-9.2 0-9.2-5.9 0-5.9 9.2 0 9.2z"/><path class="d" d="m763.2 708.6c11.8 0 11.8-18.3 0-18.3-11.7 0-11.8 18.3 0 18.3z"/><path class="d" d="m514.4 193.8c11.7 0 11.8-18.3 0-18.3-11.8 0-11.8 18.3 0 18.3z"/><path class="d" d="m607.1 850.1c11.8 0 11.8-18.3 0-18.3-11.8 0-11.8 18.3 0 18.3z"/><path class="d" d="m122 549.4c-1.1-15 2.9-29.1 12.1-41 2.2-2.8-1.7-6.7-3.9-3.9-10.1 13-14.9 28.4-13.7 44.9 0.3 3.5 5.8 3.5 5.5 0z"/><path class="d" d="m139.8 505.8q0.6 0 1.2 0c3.6 0 3.6-5.5 0-5.5q-0.6 0-1.2 0c-3.5 0-3.5 5.5 0 5.5z"/><path class="d" d="m239.6 394.4q0 0.7 0 1.3c0 3.5 5.4 3.5 5.4 0q0-0.6 0-1.3c0-3.5-5.4-3.5-5.4 0z"/><path class="d" d="m246.9 394.4q0 0.7 0 1.3c0 3.5 5.5 3.5 5.5 0q0-0.6 0-1.3c0-3.5-5.5-3.5-5.5 0z"/><path class="d" d="m823.1 391.4c11.1 1.1 18.8 11.9 17.4 22.7-0.5 3.5 5 3.4 5.5 0 1.8-14-9.1-26.8-22.9-28.2-3.5-0.3-3.5 5.2 0 5.5z"/><path class="d" d="m843.8 427.7c3.5 0 3.5-5.5 0-5.5-3.6 0-3.6 5.5 0 5.5z"/><path class="d" d="m99.5 604.5c4.4 7 10.6 12.5 18.1 15.7 3.2 1.4 6-3.3 2.8-4.7-6.7-2.9-12.3-7.5-16.1-13.7-1.9-3-6.7-0.3-4.8 2.7z"/><path class="d" d="m102.4 622.6c3.6 6.3 10.7 10.1 18 9.3 3.4-0.5 3.5-6 0-5.5-5.5 0.6-10.6-1.8-13.3-6.6-1.7-3-6.5-0.3-4.7 2.8z"/><path class="d" d="m858.2 346.9c9.6 5.3 16.8 13.2 21.2 23.2 1.4 3.3 6.1 0.5 4.7-2.7-4.7-10.8-12.8-19.6-23.2-25.2-3.1-1.7-5.8 3.1-2.7 4.7z"/><path class="d" d="m885.2 383.8c3.6 0 3.6-5.5 0-5.5-3.5 0-3.5 5.5 0 5.5z"/><path class="d" d="m877.7 346.9c5.6 4.2 9.8 10 12 16.6 1.1 3.4 6.4 1.9 5.3-1.4-2.7-8.2-7.7-14.9-14.5-20-2.9-2.1-5.6 2.7-2.8 4.8z"/><path class="m" d="m781.2 87.6v43.1h-45.7v-43.1z"/><path class="m" d="m470 199.7v35h-34.3v-35z"/><path class="d" d="m808.4 797.5l-46.5 22.4-10.5-67.3 10.7-5.2z"/><path class="d" d="m812.2 795.6l-54.1 26.2 3.2 6.7 54.2-26.2z"/><path class="e" d="m759.3 803.1l2.6 16.8 46.5-22.4-11.6-12.6z"/><path class="e" d="m756.7 786.3l28.6-13.9-11.6-12.5-19.7 9.5z"/><g style="display:none"><path fill-rule="evenodd" class="b" d="m360.6 951.6v-0.4q-0.6 0.8-1.3 1.2-0.6 0.5-1.4 0.8-0.7 0.2-1.6 0.2-1.1 0-2.1-0.5-1-0.5-1.7-1.4-0.8-0.9-1.1-2.1-0.4-1.3-0.4-2.7 0-3.1 1.5-4.8 1.5-1.7 3.9-1.7 1.4 0 2.3 0.5 1 0.5 1.9 1.5v-4.8q0-1 0.4-1.5 0.4-0.5 1.1-0.5 0.8 0 1.2 0.5 0.4 0.4 0.4 1.4v14.3q0 0.9-0.4 1.3-0.5 0.5-1.2 0.5-0.6 0-1.1-0.5-0.4-0.5-0.4-1.3zm-6.4-4.8q0 1.3 0.4 2.2 0.5 1 1.2 1.4 0.7 0.5 1.5 0.5 0.9 0 1.6-0.4 0.7-0.5 1.1-1.4 0.4-0.9 0.4-2.3 0-1.3-0.4-2.2-0.4-1-1.1-1.5-0.7-0.5-1.6-0.5-0.9 0-1.6 0.6-0.7 0.5-1.1 1.4-0.4 0.9-0.4 2.2z"/><path fill-rule="evenodd" class="b" d="m374.9 947.6h-6.3q0 1.1 0.4 2 0.4 0.8 1.2 1.2 0.7 0.5 1.6 0.5 0.5 0 1-0.2 0.5-0.1 0.9-0.4 0.5-0.3 0.9-0.6 0.4-0.4 1-0.9 0.2-0.3 0.7-0.3 0.5 0 0.8 0.3 0.3 0.3 0.3 0.8 0 0.4-0.4 1-0.3 0.6-1 1.1-0.7 0.6-1.7 0.9-1.1 0.4-2.5 0.4-3.1 0-4.8-1.8-1.7-1.8-1.7-4.8 0-1.4 0.4-2.7 0.4-1.2 1.2-2.1 0.8-0.9 2-1.3 1.2-0.5 2.7-0.5 1.9 0 3.3 0.8 1.3 0.8 2 2.1 0.7 1.2 0.7 2.6 0 1.2-0.7 1.5-0.7 0.4-2 0.4zm-6.3-1.8h5.8q-0.1-1.7-0.9-2.5-0.7-0.8-2-0.8-1.2 0-2 0.8-0.8 0.8-0.9 2.5z"/><path class="b" d="m389.7 949.2q0 1.3-0.7 2.3-0.6 0.9-1.9 1.4-1.3 0.5-3.1 0.5-1.8 0-3-0.5-1.2-0.6-1.8-1.4-0.6-0.8-0.6-1.6 0-0.5 0.3-0.9 0.4-0.4 1-0.4 0.5 0 0.8 0.3 0.3 0.2 0.5 0.7 0.5 0.8 1.2 1.3 0.7 0.4 1.9 0.4 1 0 1.6-0.4 0.6-0.5 0.6-1 0-0.9-0.6-1.3-0.7-0.4-2.2-0.7-1.6-0.4-2.7-0.9-1-0.4-1.7-1.2-0.6-0.7-0.6-1.8 0-1 0.6-1.9 0.6-0.8 1.7-1.4 1.1-0.5 2.7-0.5 1.3 0 2.3 0.3 1 0.2 1.7 0.7 0.6 0.4 1 1 0.3 0.5 0.3 1 0 0.6-0.3 0.9-0.4 0.4-1.1 0.4-0.5 0-0.8-0.3-0.4-0.3-0.8-0.9-0.4-0.4-0.9-0.7-0.5-0.3-1.4-0.3-0.8 0-1.4 0.4-0.6 0.3-0.6 0.9 0 0.5 0.4 0.8 0.5 0.4 1.2 0.6 0.7 0.2 2 0.5 1.5 0.4 2.4 0.9 1 0.5 1.5 1.2 0.5 0.7 0.5 1.6z"/><path class="b" d="m393 938.7q-0.7 0-1.2-0.4-0.5-0.4-0.5-1.2 0-0.7 0.5-1.1 0.5-0.5 1.2-0.5 0.6 0 1.1 0.4 0.5 0.5 0.5 1.2 0 0.8-0.5 1.2-0.5 0.4-1.1 0.4zm1.6 3.4v9.3q0 1-0.5 1.5-0.4 0.5-1.1 0.5-0.8 0-1.2-0.5-0.5-0.5-0.5-1.5v-9.2q0-1 0.5-1.5 0.4-0.5 1.2-0.5 0.7 0 1.1 0.5 0.5 0.5 0.5 1.4z"/><path fill-rule="evenodd" class="b" d="m408.8 942.6v9.4q0 1.6-0.4 2.8-0.3 1.2-1.1 1.9-0.7 0.8-1.9 1.1-1.3 0.4-3.1 0.4-1.7 0-3-0.5-1.3-0.4-2-1.2-0.7-0.7-0.7-1.5 0-0.6 0.4-1 0.4-0.3 0.9-0.3 0.7 0 1.3 0.6 0.2 0.3 0.5 0.6 0.3 0.4 0.6 0.6 0.4 0.2 0.9 0.3 0.4 0.2 1 0.2 1.3 0 2-0.4 0.7-0.3 1-1 0.3-0.6 0.3-1.3 0-0.7 0.1-2.3-0.8 1-1.8 1.6-0.9 0.5-2.3 0.5-1.6 0-2.8-0.8-1.2-0.9-1.9-2.4-0.7-1.4-0.7-3.4 0-1.5 0.4-2.6 0.4-1.2 1.2-2 0.7-0.8 1.7-1.2 0.9-0.5 2.1-0.5 1.4 0 2.4 0.6 1 0.5 1.8 1.6v-0.4q0-0.8 0.5-1.3 0.4-0.5 1-0.5 1 0 1.3 0.6 0.3 0.6 0.3 1.8zm-9.4 4.1q0 2 0.9 3 0.8 1 2.2 1 0.8 0 1.5-0.4 0.7-0.5 1.2-1.3 0.4-0.9 0.4-2.2 0-1.9-0.8-3-0.9-1.2-2.3-1.2-1.4 0-2.3 1.1-0.8 1.1-0.8 3z"/><path class="b" d="m413.9 942v0.4q0.9-1.1 1.9-1.6 1-0.6 2.3-0.6 1.3 0 2.3 0.6 1 0.5 1.5 1.6 0.4 0.6 0.5 1.2 0.1 0.7 0.1 1.8v6q0 1-0.5 1.5-0.4 0.5-1.2 0.5-0.7 0-1.1-0.5-0.5-0.5-0.5-1.5v-5.4q0-1.6-0.4-2.4-0.5-0.9-1.8-0.9-0.9 0-1.6 0.5-0.7 0.6-1 1.5-0.3 0.7-0.3 2.7v4q0 1-0.4 1.5-0.5 0.5-1.2 0.5-0.7 0-1.1-0.5-0.5-0.5-0.5-1.5v-9.3q0-1 0.4-1.4 0.4-0.5 1.1-0.5 0.4 0 0.8 0.2 0.3 0.2 0.5 0.6 0.2 0.4 0.2 1z"/><path fill-rule="evenodd" class="b" d="m433.7 947.6h-6.4q0 1.1 0.5 2 0.4 0.8 1.1 1.2 0.7 0.5 1.6 0.5 0.6 0 1.1-0.2 0.4-0.1 0.9-0.4 0.4-0.3 0.8-0.6 0.4-0.4 1-0.9 0.3-0.3 0.7-0.3 0.5 0 0.8 0.3 0.3 0.3 0.3 0.8 0 0.4-0.3 1-0.3 0.6-1 1.1-0.7 0.6-1.8 0.9-1 0.4-2.4 0.4-3.1 0-4.9-1.8-1.7-1.8-1.7-4.8 0-1.4 0.4-2.7 0.5-1.2 1.3-2.1 0.8-0.9 2-1.3 1.2-0.5 2.7-0.5 1.9 0 3.2 0.8 1.4 0.8 2.1 2.1 0.6 1.2 0.6 2.6 0 1.2-0.7 1.5-0.7 0.4-1.9 0.4zm-6.4-1.8h5.9q-0.1-1.7-0.9-2.5-0.8-0.8-2-0.8-1.3 0-2 0.8-0.8 0.8-1 2.5z"/><path fill-rule="evenodd" class="b" d="m446.9 951.6v-0.4q-0.7 0.8-1.3 1.2-0.7 0.5-1.4 0.8-0.7 0.2-1.6 0.2-1.2 0-2.2-0.5-1-0.5-1.7-1.4-0.7-0.9-1.1-2.1-0.4-1.3-0.4-2.7 0-3.1 1.5-4.8 1.5-1.7 3.9-1.7 1.4 0 2.4 0.5 1 0.5 1.9 1.5v-4.8q0-1 0.4-1.5 0.4-0.5 1.1-0.5 0.7 0 1.1 0.5 0.4 0.4 0.4 1.4v14.3q0 0.9-0.4 1.3-0.4 0.5-1.1 0.5-0.7 0-1.1-0.5-0.4-0.5-0.4-1.3zm-6.4-4.8q0 1.3 0.4 2.2 0.4 1 1.1 1.4 0.7 0.5 1.6 0.5 0.8 0 1.5-0.4 0.8-0.5 1.2-1.4 0.4-0.9 0.4-2.3 0-1.3-0.4-2.2-0.4-1-1.2-1.5-0.7-0.5-1.5-0.5-0.9 0-1.6 0.6-0.7 0.5-1.1 1.4-0.4 0.9-0.4 2.2z"/><path fill-rule="evenodd" class="b" d="m460.1 937.3v4.9q0.9-0.9 1.9-1.4 0.9-0.6 2.3-0.6 1.6 0 2.9 0.8 1.2 0.8 1.9 2.2 0.6 1.5 0.6 3.5 0 1.5-0.4 2.7-0.3 1.2-1 2.1-0.8 0.9-1.8 1.4-1 0.5-2.2 0.5-0.8 0-1.4-0.2-0.7-0.2-1.1-0.4-0.5-0.3-0.8-0.6-0.3-0.4-0.9-1v0.4q0 0.9-0.4 1.3-0.5 0.5-1.1 0.5-0.7 0-1.1-0.5-0.4-0.4-0.4-1.3v-14.2q0-1 0.4-1.5 0.4-0.5 1.1-0.5 0.7 0 1.1 0.5 0.4 0.5 0.4 1.4zm0.2 9.6q0 1.9 0.9 3 0.8 1 2.3 1 1.2 0 2.1-1.1 0.9-1 0.9-3 0-1.3-0.4-2.2-0.4-0.9-1-1.4-0.7-0.6-1.6-0.6-0.9 0-1.7 0.6-0.7 0.5-1.1 1.4-0.4 1-0.4 2.3z"/><path class="b" d="m473.9 953.8l0.3-0.7-4-10.1q-0.3-0.8-0.3-1.2 0-0.4 0.2-0.8 0.2-0.3 0.6-0.6 0.3-0.2 0.7-0.2 0.7 0 1.1 0.5 0.4 0.4 0.6 1.2l2.8 8 2.6-7.4q0.3-0.9 0.5-1.4 0.3-0.5 0.6-0.7 0.2-0.2 0.7-0.2 0.4 0 0.8 0.2 0.3 0.2 0.5 0.5 0.2 0.4 0.2 0.7-0.1 0.3-0.2 0.7-0.1 0.4-0.3 0.8l-4.2 11.1q-0.5 1.5-1 2.3-0.6 0.8-1.4 1.3-0.9 0.4-2.4 0.4-1.4 0-2.1-0.3-0.7-0.3-0.7-1.1 0-0.6 0.3-0.9 0.4-0.3 1-0.3 0.3 0 0.5 0.1 0.4 0.1 0.6 0.1 0.5 0 0.9-0.2 0.3-0.2 0.5-0.6 0.3-0.4 0.6-1.2z"/><path class="b" d="m520.9 940.5h0.8v-1q-0.1-1.5 0.3-2.4 0.4-0.9 1.3-1.3 1-0.4 2.6-0.4 2.8 0 2.8 1.4 0 0.4-0.3 0.8-0.3 0.3-0.7 0.3-0.2 0-0.7-0.1-0.4-0.1-0.7-0.1-0.9 0-1.2 0.6-0.2 0.5-0.2 1.4v0.8h0.8q1.8 0 1.8 1.1 0 0.8-0.5 1-0.4 0.2-1.3 0.2h-0.8v8.6q0 1-0.5 1.5-0.4 0.5-1.1 0.5-0.7 0-1.2-0.5-0.4-0.5-0.4-1.5v-8.6h-0.9q-0.8 0-1.2-0.3-0.4-0.3-0.4-0.8 0-1.2 1.7-1.2z"/><path class="b" d="m531.5 948.7v2.7q0 1-0.5 1.5-0.4 0.5-1.1 0.5-0.8 0-1.2-0.5-0.5-0.5-0.5-1.5v-9q0-2.2 1.6-2.2 0.8 0 1.2 0.5 0.3 0.5 0.4 1.5 0.6-1 1.2-1.5 0.6-0.5 1.6-0.5 1 0 2 0.5 1 0.5 0.9 1.4 0 0.6-0.4 1-0.4 0.4-0.8 0.3-0.2 0-0.9-0.2-0.7-0.2-1.2-0.2-0.7 0-1.2 0.4-0.4 0.4-0.7 1.1-0.2 0.7-0.3 1.7-0.1 1.1-0.1 2.5z"/><path fill-rule="evenodd" class="b" d="m546.4 947.6h-6.4q0.1 1.1 0.5 2 0.4 0.8 1.1 1.2 0.8 0.5 1.6 0.4 0.6 0.1 1.1-0.1 0.5-0.1 0.9-0.4 0.5-0.3 0.9-0.6 0.3-0.4 0.9-0.9 0.3-0.3 0.8-0.3 0.5 0 0.8 0.3 0.3 0.3 0.3 0.8 0 0.4-0.4 1-0.3 0.6-1 1.1-0.7 0.6-1.8 0.9-1 0.4-2.4 0.4-3.1 0-4.8-1.8-1.8-1.8-1.8-4.8 0-1.5 0.5-2.7 0.4-1.2 1.2-2.1 0.8-0.9 2-1.3 1.2-0.5 2.7-0.5 1.9 0 3.2 0.8 1.4 0.8 2.1 2.1 0.7 1.2 0.7 2.6 0 1.2-0.7 1.5-0.7 0.4-2 0.4zm-6.4-1.8h5.9q-0.1-1.7-0.9-2.5-0.7-0.8-2-0.8-1.2 0-2 0.8-0.8 0.8-1 2.5z"/><path fill-rule="evenodd" class="b" d="m559.9 947.6h-6.4q0 1.1 0.5 2 0.4 0.8 1.1 1.2 0.7 0.5 1.6 0.4 0.6 0.1 1.1-0.1 0.5-0.1 0.9-0.4 0.5-0.3 0.8-0.6 0.4-0.4 1-0.9 0.3-0.3 0.7-0.3 0.5 0 0.8 0.3 0.4 0.3 0.3 0.8 0.1 0.4-0.3 1-0.3 0.6-1 1.1-0.7 0.6-1.8 0.9-1 0.4-2.4 0.4-3.1 0-4.9-1.8-1.7-1.8-1.7-4.8 0-1.5 0.4-2.7 0.5-1.2 1.3-2.1 0.8-0.9 2-1.3 1.2-0.5 2.7-0.5 1.9 0 3.2 0.8 1.4 0.8 2.1 2.1 0.6 1.2 0.6 2.6 0 1.2-0.7 1.5-0.7 0.4-1.9 0.4zm-6.4-1.8h5.9q-0.1-1.7-0.9-2.5-0.8-0.8-2-0.8-1.2 0-2 0.8-0.8 0.8-1 2.5z"/><path fill-rule="evenodd" class="b" d="m567 942v0.4q0.9-1.1 1.9-1.6 1-0.6 2.2-0.6 1.5 0 2.8 0.8 1.2 0.8 2 2.3 0.7 1.5 0.7 3.5 0 1.5-0.4 2.7-0.5 1.3-1.2 2.1-0.7 0.9-1.7 1.3-1 0.5-2.2 0.5-1.4 0-2.3-0.6-1-0.5-1.8-1.6v4.9q0 2.1-1.6 2.1-0.9 0-1.2-0.5-0.3-0.6-0.3-1.7v-13.9q0-1 0.4-1.4 0.4-0.5 1.1-0.5 0.7 0 1.1 0.5 0.5 0.5 0.5 1.3zm6.3 4.8q0-1.3-0.4-2.3-0.4-0.9-1-1.4-0.7-0.5-1.6-0.5-1.3 0-2.2 1.1-1 1.1-1 3.1 0 1.9 0.9 3 1 1.1 2.3 1.1 0.8 0 1.5-0.5 0.7-0.4 1.1-1.4 0.4-0.9 0.4-2.2z"/><path class="b" d="m579.8 938.7q-0.6 0-1.1-0.4-0.5-0.4-0.5-1.2 0-0.7 0.5-1.1 0.5-0.5 1.1-0.5 0.7 0 1.2 0.4 0.5 0.4 0.5 1.2 0 0.8-0.5 1.2-0.5 0.4-1.2 0.4zm1.7 3.4v9.3q0 1-0.5 1.5-0.5 0.5-1.2 0.5-0.7 0-1.1-0.5-0.5-0.5-0.5-1.5v-9.3q0-0.9 0.5-1.4 0.4-0.5 1.1-0.5 0.7 0 1.2 0.5 0.5 0.5 0.5 1.4z"/><path class="b" d="m591.9 951.9l-2.9-4.7-1.7 1.7v2.6q0 0.9-0.5 1.4-0.5 0.5-1.1 0.5-0.8 0-1.2-0.5-0.4-0.5-0.4-1.5v-13.8q0-1.1 0.4-1.6 0.4-0.6 1.2-0.6 0.7 0 1.1 0.5 0.5 0.5 0.5 1.5v7.9l3.6-3.8q0.7-0.8 1.1-1 0.3-0.3 0.8-0.3 0.6 0 1 0.4 0.4 0.4 0.4 1 0 0.7-1.3 1.9l-1.7 1.5 3.3 5.3q0.4 0.6 0.6 0.9 0.1 0.3 0.1 0.5 0 0.8-0.4 1.3-0.4 0.4-1.1 0.4-0.6 0-0.9-0.3-0.3-0.3-0.9-1.2z"/><path class="b" d="m598.9 953.4q-0.7 0-1.2-0.5-0.6-0.4-0.6-1.3 0-0.7 0.6-1.3 0.5-0.5 1.2-0.5 0.8 0 1.3 0.5 0.5 0.6 0.5 1.3 0 0.8-0.5 1.3-0.5 0.5-1.3 0.5z"/><path class="b" d="m615.1 949.4q0 0.6-0.4 1.3-0.4 0.7-1.1 1.3-0.7 0.6-1.9 1-1.1 0.4-2.5 0.4-3 0-4.7-1.8-1.7-1.7-1.7-4.7 0-2 0.8-3.5 0.8-1.5 2.2-2.4 1.5-0.8 3.5-0.8 1.3 0 2.3 0.4 1.1 0.3 1.8 0.9 0.7 0.6 1.1 1.3 0.4 0.6 0.4 1.2 0 0.6-0.4 1-0.5 0.4-1.1 0.4-0.4 0-0.7-0.2-0.2-0.2-0.6-0.7-0.5-0.9-1.2-1.4-0.6-0.4-1.6-0.4-1.5 0-2.4 1.1-0.8 1.1-0.8 3.1 0 0.9 0.2 1.7 0.2 0.7 0.6 1.3 0.5 0.5 1.1 0.8 0.6 0.3 1.3 0.3 1 0 1.7-0.5 0.7-0.4 1.2-1.4 0.3-0.5 0.6-0.8 0.4-0.3 0.9-0.3 0.6 0 1 0.4 0.4 0.5 0.4 1z"/><path fill-rule="evenodd" class="b" d="m629.1 946.8q0 1.5-0.5 2.7-0.4 1.2-1.3 2.1-0.9 0.9-2 1.3-1.2 0.5-2.7 0.5-1.5 0-2.7-0.5-1.1-0.4-2-1.3-0.9-0.9-1.3-2.1-0.4-1.2-0.4-2.7 0-1.5 0.4-2.7 0.5-1.2 1.3-2.1 0.8-0.8 2-1.3 1.2-0.5 2.7-0.5 1.5 0 2.7 0.5 1.2 0.5 2 1.3 0.9 0.9 1.3 2.1 0.5 1.2 0.5 2.7zm-3.3 0q0-2-0.9-3.1-0.8-1.1-2.3-1.1-1 0-1.7 0.5-0.7 0.5-1.1 1.5-0.4 0.9-0.4 2.2 0 1.3 0.4 2.2 0.4 1 1.1 1.5 0.7 0.5 1.7 0.5 1.5 0 2.3-1.1 0.9-1.1 0.9-3.1z"/><path class="b" d="m641.4 947v4.4q0 1-0.4 1.5-0.5 0.5-1.3 0.5-0.7 0-1.1-0.5-0.5-0.5-0.5-1.5v-5.2q0-1.2-0.1-1.9-0.1-0.7-0.4-1.1-0.4-0.5-1.2-0.5-1.6 0-2.1 1.1-0.5 1.1-0.5 3.2v4.4q0 1-0.5 1.5-0.4 0.5-1.2 0.5-0.7 0-1.2-0.5-0.4-0.5-0.4-1.5v-9.3q0-0.9 0.4-1.4 0.4-0.5 1.1-0.5 0.6 0 1.1 0.5 0.4 0.4 0.4 1.2v0.3q0.9-1 1.8-1.5 1-0.5 2.2-0.5 1.2 0 2.1 0.5 0.9 0.5 1.4 1.5 0.9-1 1.8-1.5 0.9-0.5 2.1-0.5 1.3 0 2.3 0.6 0.9 0.5 1.4 1.5 0.4 0.8 0.4 2.7v6.4q0 1-0.4 1.5-0.5 0.5-1.3 0.5-0.7 0-1.2-0.5-0.4-0.5-0.4-1.5v-5.5q0-1-0.1-1.7-0.1-0.6-0.5-1-0.4-0.5-1.2-0.5-0.6 0-1.2 0.4-0.6 0.4-0.9 1-0.4 0.9-0.4 2.9z"/><path class="b" d="m490.5 946q0 0 0 0 0 0 0 0z"/><path class="b" d="m490.7 947.1q0 0 0 0-0.1-0.5-0.1-0.9 0 0.4 0.1 0.9z"/><path class="b" d="m491.8 950.1q0 0 0-0.1 0 0.1 0 0.1z"/><path class="b" d="m491.7 949.9q-0.1-0.1-0.1-0.2 0 0.1 0.1 0.2z"/><path class="b" d="m491 948.2q0.2 0.8 0.6 1.5-0.4-0.7-0.6-1.5 0 0 0 0z"/><path class="b" d="m503.1 933.6c0.6 0 1.1 0.1 1.6 0.1l0.2-0.9c0 0-1.5-0.5-3.4-0.3l-0.2-0.5c0.6-0.1 1.1-0.7 1.1-1.3 0-0.7-0.6-1.3-1.4-1.3-0.7 0-1.3 0.6-1.3 1.3 0 0.6 0.5 1.2 1.1 1.3l0.1 0.6c-2 0.2-3.6 1-3.6 1l0.3 0.9c1.2-0.4 2.3-0.6 3.2-0.7 1-0.2 1.7-0.2 2.3-0.2z"/><path class="b" d="m491.8 938.4q0-0.1 0.1-0.2l-0.4-0.2-0.6-0.5c0 0.1-1 0.9-1.7 2.6q-0.1-0.1-0.2-0.2-0.3-0.4-0.9-0.3 0 0 0 0c-0.3 0-0.4-0.1-0.6-0.2q0.2-0.2 0.2-0.5c0-0.5-0.4-0.9-0.8-0.9-0.5 0-0.9 0.4-0.9 0.9 0 0.4 0.4 0.8 0.9 0.8q0.1 0 0.2 0c0.2 0.2 0.5 0.4 1 0.4q0.4 0 0.5 0.2c0.2 0.1 0.2 0.3 0.2 0.5q0 0 0 0c-0.5 1.5-0.3 3.4-0.3 3.4h1.3c0-0.7 0.1-1.8 0.4-2.8 0.7-1.8 1.5-2.9 1.6-3z"/><path class="b" d="m514.6 934.7c-0.5 0-0.8 0.4-0.8 0.8q0 0.2 0 0.3c-0.2 0.2-0.4 0.5-0.4 1q0 0.3-0.2 0.5-0.2 0.1-0.4 0.2c-1-1.4-2.2-2.2-2.2-2.2l-0.9 1q1 1 2.1 2.5c0.5 0.7 1 1.6 1.4 2.5l1.3-0.6c0 0-0.6-1.5-1.4-2.8q0.2 0 0.4-0.2 0.4-0.3 0.4-0.9c0-0.3 0.1-0.5 0.2-0.6q0.2 0.2 0.5 0.2c0.5 0 0.8-0.4 0.8-0.9 0-0.4-0.3-0.8-0.8-0.8z"/><path class="b" d="m511.3 946.2c-1.8 0.9-4.7 2-8.5 2.5-1.5 0.2-3 0.3-4.3 0.3-1.7 0-3.3-0.1-4.4-0.3-1.4-0.1-2.4-0.3-3.1-0.5q0.2 0.8 0.6 1.5 0 0 0 0 0 0.1 0.1 0.2 0 0.1 0.1 0.1 0 0.1 0 0.1 0.6 1 1.3 1.9c1.8 2 3.7 2.3 3.7 2.3 0.1 0 1.7 0.5 4.2 0.5 2.4 0 4.8-0.5 7-1.4 1.7-0.9 3.3-2.2 4.1-3.4q0.9-1.3 1.3-2.8c0.2-0.6 0.3-1.4 0.2-2.3-0.5 0.3-1.3 0.8-2.3 1.3z"/><path fill-rule="evenodd" class="b" d="m493.3 937.8c1.2-1.2 2.8-2 4.4-2.6q1.8-0.6 3.2-0.7c0.9-0.1 1.6-0.2 2.2-0.2 0.6 0 1 0.1 1.5 0.1 1.4 0.3 4.1 1.2 6.6 4.8 0.9 1.2 1.9 3.2 2.2 4.5-0.3 0.3-1.2 0.9-2.6 1.6-1.7 0.8-4.5 1.9-8.2 2.4-5.8 0.8-11-0.4-11.9-0.6q-0.1-0.5-0.1-0.9 0-0.1-0.1-0.2 0 0 0 0 0-0.6 0-1.3c0 0 0-1.8 0.4-3 0.6-1.7 1.4-2.8 1.4-2.9 0.4-0.5 0.8-0.8 1-1zm12.2 2.4c0 1.2 1 2.2 2.2 2.2 1.2 0 2.1-1 2.1-2.2 0-1.2-0.9-2.2-2.1-2.2-1.2 0-2.2 1-2.2 2.2zm-11.7 1.2c0 2 1.6 3.6 3.6 3.6 1.9 0 3.5-1.6 3.5-3.6 0-1.9-1.6-3.5-3.5-3.5-2 0-3.6 1.6-3.6 3.5z"/></g></svg>