<svg width="50" height="50" viewBox="0 0 50 50" fill="none" xmlns="http://www.w3.org/2000/svg">
<g clip-path="url(#clip0_39_103)">
<circle cx="24" cy="15" r="11" fill="#FF9103"/>
<path d="M44 43C44 39.0218 41.8402 35.2064 37.9957 32.3934C34.1512 29.5804 28.9369 28 23.5 28C18.0631 28 12.8488 29.5804 9.00431 32.3934C5.15982 35.2064 3 39.0218 3 43L23.5 43H44Z" fill="#FF9103"/>
<path fill-rule="evenodd" clip-rule="evenodd" d="M46.9332 31.8098C47.0921 32.2193 46.9602 32.6724 46.6152 32.9643L44.4608 34.8102C44.5183 35.1996 44.5453 35.5989 44.5453 36.0017C44.5453 36.4044 44.5183 36.8038 44.4608 37.1931L46.6152 39.039C46.9602 39.331 47.0921 39.7874 46.9332 40.1935C46.7133 40.7507 46.4529 41.2877 46.1485 41.8011L45.9151 42.1804C45.587 42.6972 45.2184 43.1839 44.8159 43.6437C44.5217 43.9827 44.0346 44.0934 43.5983 43.9625L40.8249 43.1335C40.1586 43.6168 39.4247 44.0196 38.6366 44.325L38.0177 46.9999C37.9162 47.4294 37.5678 47.7651 37.1112 47.8355C36.4246 47.9429 35.7178 48 34.9974 48C34.2769 48 33.5701 47.9429 32.8835 47.8355C32.4269 47.7651 32.0785 47.4294 31.9804 46.9999L31.3581 44.325C30.57 44.0196 29.8361 43.6168 29.1698 43.1335L26.4032 43.9692C25.9669 44.1001 25.4798 43.9827 25.1856 43.6504C24.7831 43.1906 24.4144 42.7006 24.0864 42.1871L23.853 41.8079C23.5486 41.291 23.2848 40.7574 23.0683 40.2003C22.906 39.7908 23.0413 39.3344 23.3862 39.0457L25.5373 37.1998C25.4832 36.8038 25.4528 36.4044 25.4528 36.0017C25.4528 35.5989 25.4832 35.1996 25.5373 34.8102L23.3862 32.9643C23.0413 32.6724 22.906 32.2193 23.0683 31.8098C23.2848 31.2527 23.5486 30.7191 23.853 30.2022L24.0864 29.823C24.4144 29.3095 24.7831 28.8195 25.1856 28.3597C25.4798 28.0241 25.9669 27.9099 26.4032 28.0408L29.1732 28.8732C29.8395 28.3899 30.5768 27.9871 31.3615 27.6817L31.9838 25.0035C32.0819 24.5773 32.4303 24.2383 32.8902 24.1712C33.5768 24.0571 34.2803 24 35.0041 24C35.7245 24 36.4314 24.0571 37.118 24.1645C37.5746 24.2349 37.923 24.5739 38.021 25.0001L38.6434 27.675C39.428 27.9804 40.1654 28.3832 40.8317 28.8665L43.6017 28.0375C44.038 27.9066 44.525 28.0241 44.8193 28.3563C45.2218 28.8161 45.5904 29.3028 45.9185 29.8196L46.1519 30.1989C46.4563 30.7157 46.7201 31.2493 46.9332 31.8098ZM35.0041 39.7539C36.0594 39.7539 37.0706 39.3579 37.8147 38.6531C38.5622 37.9516 38.9816 36.9985 38.9816 36.0017C38.9816 35.0082 38.5622 34.0551 37.8147 33.3503C37.0706 32.6489 36.0594 32.2528 35.0041 32.2528C33.9489 32.2528 32.9342 32.6489 32.1901 33.3503C31.4427 34.0551 31.0233 35.0082 31.0233 36.0017C31.0233 36.9985 31.4427 37.9516 32.1901 38.6531C32.9342 39.3579 33.9489 39.7539 35.0041 39.7539Z" fill="black" stroke="white" stroke-miterlimit="100"/>
<circle cx="35" cy="36" r="5" fill="white"/>
</g>
<defs>
<clipPath id="clip0_39_103">
<rect width="50" height="50" fill="white"/>
</clipPath>
</defs>
</svg>
