<svg version="1.2" xmlns="http://www.w3.org/2000/svg" viewBox="0 0 2437 1848" width="2437" height="1848"><style>.a{fill:#ffeed7}.b{fill:#fefefe}.c{fill:none;stroke:#313340;stroke-linecap:round;stroke-linejoin:round;stroke-width:5.7}.d{fill:#b2c6cf}.e{fill:#313340}.f{fill:#8fa0a8}.g{fill:#d4dfe5}.h{fill:#343d43}.i{fill:#404a4f}.j{fill:#f9a333}.k{fill:#c36526}.l{fill:#0d789c}.m{fill:#75c5ee}.n{fill:#8d9ea6}.o{fill:#7a8991}.p{fill:#f06353}.q{fill:#6ccff5}.r{fill:#657379}.s{fill:#b3483c}.t{fill:#fbb65f}</style><path class="a" d="m2436.3 1847.1h-2436.3v-1847.1h2436.3z"/><path class="b" d="m1764.7 1524.1c112.6-128.1 180.9-296.1 180.9-480.1 0-401.7-325.7-727.4-727.4-727.4-401.8 0-727.5 325.7-727.5 727.4 0 184 68.3 352 180.9 480.1z"/><path class="c" d="m209.7 1530.5h2016.9"/><path class="c" d="m1797.5 515.5h33.4"/><path class="c" d="m1549.8 515.5h230"/><path class="c" d="m681.6 743h33.4"/><path class="c" d="m433.9 743h230"/><path class="c" d="m1276 409.7h33.4"/><path class="c" d="m1326.2 409.7h33.4"/><path class="c" d="m1376.3 409.7h33.5"/><path class="c" d="m1426.5 409.7h209.7"/><path class="c" d="m418.9 1258.9h33.5"/><path class="c" d="m469.1 1258.9h209.7"/><path class="c" d="m1162.2 409.7h96.1"/><path class="c" d="m1482.3 606.6h33.4"/><path class="c" d="m1532.5 606.6h33.4"/><path class="c" d="m1368.6 606.6h96"/><path class="c" d="m797.6 478.3h155"/><path class="c" d="m1664.9 675.8h154.9"/><path class="c" d="m1858.6 813.6h155"/><path class="c" d="m409.8 1027.6h154.9"/><path class="c" d="m1118.3 409.7c0 10-8.1 18.1-18.1 18.1-10 0-18.1-8.1-18.1-18.1 0-10 8.1-18.1 18.1-18.1 10 0 18.1 8.1 18.1 18.1z"/><path class="c" d="m505.4 868.1c0 10-8.1 18.1-18.1 18.1-10 0-18.1-8.1-18.1-18.1 0-10 8.1-18.1 18.1-18.1 10 0 18.1 8.1 18.1 18.1z"/><path class="c" d="m1602.6 724.9c0 10-8.1 18.1-18 18.1-10 0-18.1-8.1-18.1-18.1 0-10 8.1-18.1 18.1-18.1 9.9 0 18 8.1 18 18.1z"/><path class="c" d="m2031.7 923.3c0 10-8.1 18.1-18.1 18.1-10 0-18.1-8.1-18.1-18.1 0-10 8.1-18.1 18.1-18.1 10 0 18.1 8.1 18.1 18.1z"/><path class="c" d="m1837.9 1062.6c0 10-8.1 18.1-18.1 18.1-10 0-18.1-8.1-18.1-18.1 0-10 8.1-18.1 18.1-18.1 10 0 18.1 8.1 18.1 18.1z"/><path class="c" d="m610.2 1128.7c0 10-8.1 18.1-18.1 18.1-10 0-18.1-8.1-18.1-18.1 0-10 8.1-18.1 18.1-18.1 10 0 18.1 8.1 18.1 18.1z"/><path class="c" d="m1962.1 521.8l0.6 32.6"/><path class="c" d="m1963.3 584.5l0.6 32.7"/><path class="c" d="m2010.7 568.6l-32.6 0.6"/><path class="c" d="m1948 569.8l-32.7 0.6"/><path class="c" d="m1996.1 535.1l-22.6 23.6"/><path class="c" d="m1952.6 580.3l-22.7 23.6"/><path class="c" d="m1997.4 602.6l-23.5-22.7"/><path class="c" d="m1952.2 559l-23.6-22.6"/><path class="c" d="m504.5 490.4l0.6 32.7"/><path class="c" d="m505.6 553.2l0.6 32.6"/><path class="c" d="m553.1 537.2l-32.7 0.6"/><path class="c" d="m490.3 538.4l-32.7 0.6"/><path class="c" d="m538.5 503.7l-22.7 23.6"/><path class="c" d="m494.9 548.9l-22.7 23.6"/><path class="c" d="m539.7 571.2l-23.5-22.6"/><path class="c" d="m494.5 527.7l-23.5-22.7"/><path class="c" d="m451.5 1317.1l0.6 32.7"/><path class="c" d="m452.7 1379.9l0.6 32.6"/><path class="c" d="m500.1 1363.9l-32.7 0.6"/><path class="c" d="m437.3 1365.1l-32.6 0.6"/><path class="c" d="m485.5 1330.4l-22.7 23.6"/><path class="c" d="m441.9 1375.6l-22.6 23.6"/><path class="c" d="m486.7 1397.9l-23.5-22.7"/><path class="c" d="m441.5 1354.4l-23.5-22.7"/><path class="c" d="m2171.4 850.8l0.6 32.7"/><path class="c" d="m2172.5 913.6l0.6 32.7"/><path class="c" d="m2220 897.7l-32.7 0.6"/><path class="c" d="m2157.2 898.8l-32.7 0.6"/><path class="c" d="m2205.4 864.2l-22.7 23.5"/><path class="c" d="m2161.8 909.4l-22.7 23.5"/><path class="c" d="m2206.6 931.7l-23.5-22.7"/><path class="c" d="m2161.4 888.1l-23.5-22.7"/><path class="d" d="m1327.3 1534c-1.2 0-2.2-1-2.2-2.2v-134.7c0-1.2 1-2.2 2.2-2.2h197.2c1.2 0 2.2 1 2.2 2.2v134.7c0 1.2-1 2.2-2.2 2.2z"/><path fill-rule="evenodd" class="e" d="m1528.9 1397.1v134.7c0 2.4-2 4.4-4.4 4.4h-197.2c-2.4 0-4.4-2-4.4-4.4v-134.7c0-2.4 2-4.4 4.4-4.4h197.2c2.4 0 4.4 2 4.4 4.4zm-201.6 0v134.7h197.2v-134.7z"/><path class="d" d="m1303.6 1534c-1.3 0-2.2-1-2.2-2.2v-28.6c0-1.2 0.9-2.2 2.2-2.2h244.6c1.2 0 2.2 1 2.2 2.2v28.6c0 1.2-1 2.2-2.2 2.2z"/><path fill-rule="evenodd" class="e" d="m1552.6 1503.2v28.6c0 2.4-2 4.4-4.4 4.4h-244.6c-2.5 0-4.4-2-4.4-4.4v-28.6c0-2.4 1.9-4.4 4.4-4.4h244.6c2.4 0 4.4 2 4.4 4.4zm-249 0v28.6h244.6v-28.6z"/><path class="f" d="m1524.5 1464.4h-197.2v-67.3h197.2z"/><path class="d" d="m1041 1441.5c-1.2 0-2.2-1-2.2-2.2v-49c0-1.2 1-2.2 2.2-2.2h769.8c1.2 0 2.2 1 2.2 2.2v49c0 1.2-1 2.2-2.2 2.2z"/><path fill-rule="evenodd" class="e" d="m1815.2 1390.3v49c0 2.4-2 4.4-4.5 4.4h-769.7c-2.4 0-4.4-2-4.4-4.4v-49c0-2.4 2-4.4 4.4-4.4h769.8c2.4 0 4.4 2 4.4 4.4zm-774.2 0v49h769.8v-49z"/><path class="g" d="m1810.8 1402.2h-769.8v-11.9h769.8z"/><path class="h" d="m1041 1392.5c-1.2 0-2.2-1-2.2-2.2v-462.4c0-1.2 1-2.2 2.2-2.2h769.8c1.2 0 2.2 1 2.2 2.2v462.4c0 1.2-1 2.2-2.2 2.2z"/><path fill-rule="evenodd" class="e" d="m1815.2 927.9v462.4c0 2.5-2 4.4-4.5 4.4h-769.7c-2.4 0-4.4-1.9-4.4-4.4v-462.4c0-2.4 2-4.4 4.4-4.4h769.8c2.4 0 4.4 2 4.4 4.4zm-774.2 0v462.4h769.8v-462.4z"/><path class="i" d="m1796.5 1389.7h-741.3v-449.8h741.3z"/><path class="b" d="m1096.6 1349c-1.2 0-2.2-1-2.2-2.2v-369.9c0-1.2 1-2.2 2.2-2.2h658.5c1.2 0 2.2 1 2.2 2.2v369.9c0 1.2-1 2.2-2.2 2.2z"/><path fill-rule="evenodd" class="e" d="m1759.5 976.9v369.9c0 2.4-2 4.4-4.4 4.4h-658.5c-2.4 0-4.4-2-4.4-4.4v-369.9c0-2.4 2-4.4 4.4-4.4h658.5c2.4 0 4.4 2 4.4 4.4zm-662.9 0v369.9h658.5v-369.9z"/><path class="e" d="m606.8 505.9l-2.2-3.1 210.3-227.9 2.2 3.1z"/><path class="e" d="m1426.4 508.3l2.1-3.2-611.3-230.2-2.2 3.1z"/><path class="j" d="m662.4 576.9c-1.3 0-2.2-1-2.2-2.2v-10.2l-28.8-47v50.8c0 1.2-1 2.2-2.2 2.2h-12.8c-1.2 0-2.2-1-2.2-2.2v-61.6c0-1.2 1-2.2 2.2-2.2h23.7c0.7 0 1.4 0.4 1.8 1.1l18.3 29.7v-35c0-1.2 0.9-2.2 2.2-2.2h12.7c1.2 0 2.2 1 2.2 2.2v4.2h4.2c0.7 0 1.5 0.4 1.9 1.1l20.9 34.1v-33c0-1.2 1-2.2 2.2-2.2h12.7c1.3 0 2.2 1 2.2 2.2v61.6c0 1.2-0.9 2.2-2.2 2.2h-12.7c-0.8 0-1.5-0.4-1.9-1l-27.3-44.6v38.4l2.4 3.9c0.4 0.6 0.4 1.5 0 2.2-0.4 0.7-1.1 1.1-1.9 1.1h-0.5v4.2c0 1.2-1 2.2-2.2 2.2z"/><path fill-rule="evenodd" class="e" d="m679.5 500.3v2h2c1.5 0 2.9 0.8 3.7 2.1l16.9 27.5v-25.2c0-2.4 2-4.4 4.4-4.4h12.7c2.5 0 4.4 2 4.4 4.4v61.6c0 2.4-1.9 4.4-4.4 4.4h-12.7c-1.5 0-3-0.8-3.8-2.1l-23.2-37.9v29.9l2.1 3.4c0.8 1.4 0.8 3.1 0.1 4.5-0.5 0.8-1.3 1.5-2.2 1.9v2.3c0 2.4-2 4.4-4.4 4.4h-12.7c-2.5 0-4.4-2-4.4-4.4v-9.6l-24.4-39.8v43c0 2.4-2 4.4-4.4 4.4h-12.8c-2.4 0-4.4-2-4.4-4.4v-61.6c0-2.4 2-4.4 4.4-4.4h23.7c1.5 0 2.9 0.8 3.7 2.1l14.2 23.1v-27.2c0-2.4 1.9-4.4 4.4-4.4h12.7c2.4 0 4.4 2 4.4 4.4zm-17.1 0v42.8l-22.3-36.4h-23.7v61.6h12.8v-58.6l33.2 54.2v10.8h12.7v-6.4h2.7l-2.7-4.4v-46.8l31.4 51.2h12.7v-61.6h-12.7v40.8l-25-40.8h-6.4v-6.4z"/><path class="j" d="m757 570.5c-0.8 0-1.5-0.4-1.9-1l-37.7-61.6c-0.5-0.7-0.5-1.6-0.1-2.3 0.4-0.7 1.1-1.1 1.9-1.1h12.8c0.7 0 1.5 0.4 1.9 1.1l20.9 34.1v-33c0-1.2 1-2.2 2.2-2.2h12.7c1.3 0 2.2 1 2.2 2.2v61.6c0 1.2-0.9 2.2-2.2 2.2z"/><path fill-rule="evenodd" class="e" d="m774.1 506.7v61.6c0 2.5-1.9 4.4-4.4 4.4h-12.7c-1.5 0-2.9-0.8-3.7-2.1l-37.8-61.6c-0.8-1.4-0.9-3.1-0.1-4.4 0.8-1.4 2.2-2.3 3.8-2.3h12.8c1.5 0 2.9 0.8 3.7 2.1l16.9 27.5v-25.2c0-2.4 2-4.4 4.4-4.4h12.7c2.5 0 4.4 2 4.4 4.4zm-17.1 0v40.8l-25-40.8h-12.8l37.8 61.6h12.7v-61.6z"/><path class="j" d="m807.5 570.5c-0.8 0-1.5-0.4-1.9-1l-37.7-61.6c-0.4-0.7-0.5-1.6-0.1-2.3 0.4-0.7 1.1-1.1 1.9-1.1h12.8c0.8 0 1.5 0.4 1.9 1.1l20.9 34.1v-33c0-1.2 1-2.2 2.2-2.2h12.8c1.2 0 2.2 1 2.2 2.2v61.6c0 1.2-1 2.2-2.2 2.2z"/><path fill-rule="evenodd" class="e" d="m824.7 506.7v61.6c0 2.5-2 4.4-4.4 4.4h-12.8c-1.5 0-2.9-0.8-3.7-2.1l-37.8-61.6c-0.8-1.4-0.9-3.1-0.1-4.4 0.8-1.4 2.3-2.3 3.8-2.3h12.8c1.5 0 2.9 0.8 3.7 2.1l16.9 27.5v-25.2c0-2.4 2-4.4 4.4-4.4h12.8c2.4 0 4.4 2 4.4 4.4zm-17.2 0v40.8l-25-40.8h-12.8l37.8 61.6h12.8v-61.6z"/><path class="j" d="m858 570.5c-0.7 0-1.4-0.4-1.8-1l-37.8-61.6c-0.4-0.7-0.5-1.6-0.1-2.3 0.4-0.7 1.2-1.1 2-1.1h12.7c0.8 0 1.5 0.4 1.9 1.1l20.9 34.1v-33c0-1.2 1-2.2 2.2-2.2h12.8c1.2 0 2.2 1 2.2 2.2v61.6c0 1.2-1 2.2-2.2 2.2z"/><path fill-rule="evenodd" class="e" d="m875.2 506.7v61.6c0 2.5-2 4.4-4.4 4.4h-12.8c-1.5 0-2.9-0.8-3.7-2.1l-37.8-61.6c-0.8-1.4-0.9-3.1-0.1-4.4 0.8-1.4 2.3-2.3 3.9-2.3h12.7c1.5 0 3 0.8 3.8 2.1l16.8 27.5v-25.2c0-2.4 2-4.4 4.4-4.4h12.8c2.4 0 4.4 2 4.4 4.4zm-17.2 0v40.8l-25-40.8h-12.7l37.7 61.6h12.8v-61.6z"/><path class="j" d="m908.5 570.5c-0.7 0-1.4-0.4-1.8-1l-37.8-61.6c-0.4-0.7-0.4-1.6 0-2.3 0.3-0.7 1.1-1.1 1.9-1.1h12.7c0.8 0 1.5 0.4 1.9 1.1l20.9 34.1v-33c0-1.2 1-2.2 2.2-2.2h12.8c1.2 0 2.2 1 2.2 2.2v61.6c0 1.2-1 2.2-2.2 2.2z"/><path fill-rule="evenodd" class="e" d="m925.7 506.7v61.6c0 2.5-2 4.4-4.4 4.4h-12.8c-1.5 0-2.9-0.8-3.7-2.1l-37.8-61.6c-0.8-1.4-0.8-3.1-0.1-4.4 0.8-1.4 2.3-2.3 3.9-2.3h12.7c1.5 0 3 0.8 3.8 2.1l16.8 27.5v-25.2c0-2.4 2-4.4 4.4-4.4h12.8c2.4 0 4.4 2 4.4 4.4zm-17.2 0v40.8l-25-40.8h-12.7l37.7 61.6h12.8v-61.6z"/><path class="j" d="m959 570.5c-0.7 0-1.4-0.4-1.8-1l-37.8-61.6c-0.4-0.7-0.4-1.6 0-2.3 0.3-0.7 1.1-1.1 1.9-1.1h12.7c0.8 0 1.5 0.4 1.9 1.1l20.9 34.1v-33c0-1.2 1-2.2 2.2-2.2h12.8c1.2 0 2.2 1 2.2 2.2v61.6c0 1.2-1 2.2-2.2 2.2z"/><path fill-rule="evenodd" class="e" d="m976.2 506.7v61.6c0 2.5-2 4.4-4.4 4.4h-12.8c-1.5 0-2.9-0.8-3.7-2.1l-37.8-61.6c-0.8-1.4-0.8-3.1-0.1-4.4 0.8-1.4 2.3-2.3 3.9-2.3h12.7c1.6 0 3 0.8 3.8 2.1l16.8 27.5v-25.2c0-2.4 2-4.4 4.4-4.4h12.8c2.4 0 4.4 2 4.4 4.4zm-17.2 0v40.8l-25-40.8h-12.7l37.7 61.6h12.8v-61.6z"/><path class="j" d="m1009.6 570.5c-0.8 0-1.5-0.4-1.9-1l-37.8-61.6c-0.4-0.7-0.4-1.6 0-2.3 0.4-0.7 1.1-1.1 1.9-1.1h12.7c0.8 0 1.5 0.4 1.9 1.1l21 34.1v-33c0-1.2 0.9-2.2 2.2-2.2h12.7c1.2 0 2.2 1 2.2 2.2v61.6c0 1.2-1 2.2-2.2 2.2z"/><path fill-rule="evenodd" class="e" d="m1026.7 506.7v61.6c0 2.5-2 4.4-4.4 4.4h-12.7c-1.6 0-3-0.8-3.8-2.1l-37.8-61.6c-0.8-1.4-0.8-3.1-0.1-4.4 0.8-1.4 2.3-2.3 3.9-2.3h12.7c1.6 0 3 0.8 3.8 2.1l16.9 27.5v-25.2c0-2.4 1.9-4.4 4.4-4.4h12.7c2.4 0 4.4 2 4.4 4.4zm-17.1 0v40.8l-25.1-40.8h-12.7l37.8 61.6h12.7v-61.6z"/><path class="j" d="m1060.1 570.5c-0.8 0-1.5-0.4-1.9-1l-37.8-61.6c-0.4-0.7-0.4-1.6 0-2.3 0.4-0.7 1.1-1.1 1.9-1.1h12.7c0.8 0 1.5 0.4 1.9 1.1l21 34.1v-33c0-1.2 1-2.2 2.2-2.2h12.7c1.2 0 2.2 1 2.2 2.2v61.6c0 1.2-1 2.2-2.2 2.2z"/><path fill-rule="evenodd" class="e" d="m1077.2 506.7v61.6c0 2.5-2 4.4-4.4 4.4h-12.7c-1.6 0-3-0.8-3.8-2.1l-37.8-61.6c-0.8-1.4-0.8-3.1 0-4.4 0.7-1.4 2.2-2.3 3.8-2.3h12.7c1.6 0 3 0.8 3.8 2.1l16.9 27.5v-25.2c0-2.4 1.9-4.4 4.4-4.4h12.7c2.4 0 4.4 2 4.4 4.4zm-17.1 0v40.8l-25.1-40.8h-12.7l37.8 61.6h12.7v-61.6z"/><path class="j" d="m1110.6 570.5c-0.8 0-1.5-0.4-1.9-1l-37.8-61.6c-0.4-0.7-0.4-1.6 0-2.3 0.4-0.7 1.1-1.1 1.9-1.1h12.8c0.7 0 1.4 0.4 1.8 1.1l21 34.1v-33c0-1.2 1-2.2 2.2-2.2h12.7c1.2 0 2.2 1 2.2 2.2v61.6c0 1.2-1 2.2-2.2 2.2z"/><path fill-rule="evenodd" class="e" d="m1127.7 506.7v61.6c0 2.5-2 4.4-4.4 4.4h-12.7c-1.6 0-3-0.8-3.8-2.1l-37.7-61.6c-0.9-1.4-0.9-3.1-0.1-4.4 0.7-1.4 2.2-2.3 3.8-2.3h12.8c1.5 0 2.9 0.8 3.7 2.1l16.9 27.5v-25.2c0-2.4 1.9-4.4 4.4-4.4h12.7c2.4 0 4.4 2 4.4 4.4zm-17.1 0v40.8l-25-40.8h-12.8l37.8 61.6h12.7v-61.6z"/><path class="j" d="m1161.1 570.5c-0.8 0-1.5-0.4-1.9-1l-37.8-61.6c-0.4-0.7-0.4-1.6 0-2.3 0.4-0.7 1.1-1.1 1.9-1.1h12.8c0.7 0 1.4 0.4 1.8 1.1l21 34.1v-33c0-1.2 1-2.2 2.2-2.2h12.7c1.2 0 2.2 1 2.2 2.2v61.6c0 1.2-1 2.2-2.2 2.2z"/><path fill-rule="evenodd" class="e" d="m1178.2 506.7v61.6c0 2.5-1.9 4.4-4.4 4.4h-12.7c-1.5 0-3-0.8-3.8-2.1l-37.7-61.6c-0.9-1.4-0.9-3.1-0.1-4.4 0.8-1.4 2.2-2.3 3.8-2.3h12.8c1.5 0 2.9 0.8 3.7 2.1l16.9 27.5v-25.2c0-2.4 2-4.4 4.4-4.4h12.7c2.5 0 4.4 2 4.4 4.4zm-17.1 0v40.8l-25-40.8h-12.8l37.8 61.6h12.7v-61.6z"/><path class="j" d="m1211.6 570.5c-0.8 0-1.5-0.4-1.9-1l-37.8-61.6c-0.4-0.7-0.4-1.6 0-2.3 0.4-0.7 1.1-1.1 1.9-1.1h12.8c0.7 0 1.5 0.4 1.9 1.1l20.9 34.1v-33c0-1.2 1-2.2 2.2-2.2h12.7c1.3 0 2.2 1 2.2 2.2v61.6c0 1.2-0.9 2.2-2.2 2.2z"/><path fill-rule="evenodd" class="e" d="m1228.7 506.7v61.6c0 2.5-1.9 4.4-4.4 4.4h-12.7c-1.5 0-3-0.8-3.8-2.1l-37.7-61.6c-0.9-1.4-0.9-3.1-0.1-4.4 0.8-1.4 2.2-2.3 3.8-2.3h12.8c1.5 0 2.9 0.8 3.7 2.1l16.9 27.5v-25.2c0-2.4 2-4.4 4.4-4.4h12.7c2.5 0 4.4 2 4.4 4.4zm-17.1 0v40.8l-25-40.8h-12.8l37.8 61.6h12.7v-61.6z"/><path class="j" d="m1262.1 570.5c-0.8 0-1.5-0.4-1.9-1l-37.7-61.6c-0.5-0.7-0.5-1.6-0.1-2.3 0.4-0.7 1.1-1.1 1.9-1.1h12.8c0.7 0 1.5 0.4 1.9 1.1l20.9 34.1v-33c0-1.2 1-2.2 2.2-2.2h12.7c1.3 0 2.3 1 2.3 2.2v61.6c0 1.2-1 2.2-2.3 2.2z"/><path fill-rule="evenodd" class="e" d="m1279.3 506.7v61.6c0 2.5-2 4.4-4.5 4.4h-12.7c-1.5 0-3-0.8-3.8-2.1l-37.7-61.6c-0.8-1.4-0.9-3.1-0.1-4.4 0.8-1.4 2.2-2.3 3.8-2.3h12.8c1.5 0 2.9 0.8 3.7 2.1l16.9 27.5v-25.2c0-2.4 2-4.4 4.4-4.4h12.7c2.5 0 4.5 2 4.5 4.4zm-17.2 0v40.8l-25-40.8h-12.8l37.8 61.6h12.7v-61.6z"/><path class="j" d="m1312.6 570.5c-0.8 0-1.5-0.4-1.9-1l-37.7-61.6c-0.4-0.7-0.5-1.6-0.1-2.3 0.4-0.7 1.2-1.1 1.9-1.1h12.8c0.8 0 1.5 0.4 1.9 1.1l20.9 34.1v-33c0-1.2 1-2.2 2.2-2.2h12.8c1.2 0 2.2 1 2.2 2.2v61.6c0 1.2-1 2.2-2.2 2.2z"/><path fill-rule="evenodd" class="e" d="m1329.8 506.7v61.6c0 2.5-2 4.4-4.4 4.4h-12.8c-1.5 0-2.9-0.8-3.7-2.1l-37.8-61.6c-0.8-1.4-0.9-3.1-0.1-4.4 0.8-1.4 2.3-2.3 3.8-2.3h12.8c1.5 0 2.9 0.8 3.7 2.1l16.9 27.5v-25.2c0-2.4 2-4.4 4.4-4.4h12.8c2.4 0 4.4 2 4.4 4.4zm-17.2 0v40.8l-25-40.8h-12.8l37.8 61.6h12.8v-61.6z"/><path class="j" d="m1363.1 570.5c-0.7 0-1.5-0.4-1.9-1l-37.7-61.6c-0.4-0.7-0.5-1.6-0.1-2.3 0.4-0.7 1.2-1.1 2-1.1h12.7c0.8 0 1.5 0.4 1.9 1.1l20.9 34.1v-33c0-1.2 1-2.2 2.2-2.2h12.8c1.2 0 2.2 1 2.2 2.2v61.6c0 1.2-1 2.2-2.2 2.2z"/><path fill-rule="evenodd" class="e" d="m1380.3 506.7v61.6c0 2.5-2 4.4-4.4 4.4h-12.8c-1.5 0-2.9-0.8-3.7-2.1l-37.8-61.6c-0.8-1.4-0.9-3.1-0.1-4.4 0.8-1.4 2.3-2.3 3.9-2.3h12.7c1.5 0 2.9 0.8 3.8 2.1l16.8 27.5v-25.2c0-2.4 2-4.4 4.4-4.4h12.8c2.4 0 4.4 2 4.4 4.4zm-17.2 0v40.8l-25-40.8h-12.7l37.7 61.6h12.8v-61.6z"/><path class="j" d="m1500.2 570.5c-0.4 0-0.9-0.1-1.3-0.4l-70.3-54v52.2c0 1.2-1 2.2-2.2 2.2h-12.8c-0.7 0-1.4-0.4-1.9-1l-37.7-61.6c-0.4-0.7-0.4-1.6-0.1-2.3 0.4-0.7 1.2-1.1 2-1.1h12.7c0.8 0 1.5 0.4 1.9 1.1l20.9 34.1v-33c0-1.2 1-2.2 2.2-2.2h25.5c0.5 0 1 0.2 1.4 0.5l76.8 61.6c0.7 0.6 1 1.6 0.7 2.4-0.3 0.9-1.1 1.5-2.1 1.5z"/><path fill-rule="evenodd" class="e" d="m1441.9 503.3l76.8 61.6c1.4 1.1 2 3.1 1.4 4.9-0.6 1.7-2.3 2.9-4.2 2.9h-15.7c-0.9 0-1.9-0.3-2.6-0.9l-66.8-51.3v47.8c0 2.4-2 4.4-4.4 4.4h-12.8c-1.5 0-2.9-0.8-3.7-2.1l-37.8-61.6c-0.8-1.4-0.9-3.1-0.1-4.4 0.8-1.4 2.3-2.3 3.9-2.3h12.7c1.5 0 3 0.8 3.8 2.1l16.8 27.5v-25.2c0-2.4 2-4.4 4.4-4.4h25.5c1 0 2 0.3 2.8 1zm-28.3 3.4v40.8l-25-40.8h-12.7l37.7 61.6h12.8v-56.7l73.8 56.7h15.7l-76.8-61.6z"/><path class="j" d="m522.3 576.9c-1.2 0-2.2-1-2.2-2.2v-12.8c0-1.2 1-2.2 2.2-2.2h7.2l67.4-54.1v-5.3c0-1.2 1-2.2 2.3-2.2h836.1c0.5 0 1.1 0.2 1.5 0.6l14 12.7c0.7 0.6 0.9 1.6 0.6 2.5-0.3 0.8-1.1 1.4-2.1 1.4h-838.6l-57.9 44.4h963.1c1.2 0 2.2 1 2.2 2.2v12.8c0 1.2-1 2.2-2.2 2.2z"/><path fill-rule="evenodd" class="e" d="m1438.2 497.1l14.1 12.7c1.4 1.2 1.8 3.1 1.2 4.8-0.7 1.7-2.3 2.9-4.2 2.9h-837.8l-52.2 40h956.6c2.5 0 4.4 2 4.4 4.4v12.8c0 2.4-1.9 4.4-4.4 4.4h-993.6c-2.4 0-4.4-2-4.4-4.4v-12.8c0-2.4 2-4.4 4.4-4.4h6.4l66-52.9v-4.3c0-2.4 2-4.4 4.5-4.4h836.1c1.1 0 2.1 0.4 2.9 1.2zm-839 3.2v6.4l-68.9 55.2h-8v12.8h993.6v-12.8h-969.6l63.7-48.8h839.3l-14-12.8z"/><path class="k" d="m522.3 581.1c-1.2 0-2.2-1-2.2-2.2v-4.2c0-1.2 1-2.2 2.2-2.2h993.6c1.2 0 2.2 1 2.2 2.2v4.2c0 1.2-1 2.2-2.2 2.2z"/><path fill-rule="evenodd" class="e" d="m1520.3 574.7v4.2c0 2.4-1.9 4.4-4.4 4.4h-993.6c-2.4 0-4.4-2-4.4-4.4v-4.2c0-2.4 2-4.4 4.4-4.4h993.6c2.5 0 4.4 2 4.4 4.4zm-998 0v4.2h993.6v-4.2z"/><path class="j" d="m885.1 1396.6q-0.7 0-1.2-0.3l-61.6-37.7c-0.7-0.4-1.1-1.2-1.1-1.9v-12.8c0-1.2 1-2.2 2.2-2.2h61.7c1.2 0 2.2 1 2.2 2.2v12.8c0 1.2-1 2.2-2.2 2.2h-33.1l34.2 20.9c0.7 0.4 1.1 1.1 1.1 1.9v12.7c0 0.8-0.5 1.6-1.2 2q-0.5 0.2-1 0.2z"/><path fill-rule="evenodd" class="e" d="m889.5 1343.9v12.8c0 2.4-2 4.4-4.4 4.4h-25.3l27.6 16.8c1.3 0.8 2.1 2.3 2.1 3.8v12.7c0 1.6-0.9 3.1-2.3 3.9-0.7 0.4-1.4 0.5-2.1 0.5-0.8 0-1.6-0.2-2.3-0.6l-61.7-37.8c-1.3-0.8-2.1-2.2-2.1-3.7v-12.8c0-2.4 2-4.4 4.4-4.4h61.7c2.4 0 4.4 2 4.4 4.4zm-66.1 0v12.8l61.7 37.7v-12.7l-40.9-25h40.9v-12.8z"/><path class="j" d="m885.1 1346.1q-0.7 0-1.2-0.3l-61.6-37.8c-0.7-0.4-1.1-1.1-1.1-1.8v-12.8c0-1.2 1-2.2 2.2-2.2h61.7c1.2 0 2.2 1 2.2 2.2v12.8c0 1.2-1 2.2-2.2 2.2h-33.1l34.2 20.9c0.7 0.4 1.1 1.1 1.1 1.9v12.7c0 0.8-0.5 1.6-1.2 2q-0.5 0.2-1 0.2z"/><path fill-rule="evenodd" class="e" d="m889.5 1293.4v12.8c0 2.4-2 4.4-4.4 4.4h-25.3l27.6 16.8c1.3 0.8 2.1 2.2 2.1 3.8v12.7c0 1.6-0.9 3.1-2.3 3.9-0.7 0.3-1.4 0.5-2.1 0.5-0.8 0-1.6-0.2-2.3-0.6l-61.7-37.8c-1.3-0.8-2.1-2.2-2.1-3.7v-12.8c0-2.4 2-4.4 4.4-4.4h61.7c2.4 0 4.4 2 4.4 4.4zm-66.1 0v12.8l61.7 37.7v-12.7l-40.9-25h40.9v-12.8z"/><path class="j" d="m885.1 1295.6q-0.7 0-1.2-0.3l-61.6-37.8c-0.7-0.4-1.1-1.1-1.1-1.8v-12.8c0-1.2 1-2.2 2.2-2.2h61.7c1.2 0 2.2 1 2.2 2.2v12.8c0 1.2-1 2.2-2.2 2.2h-33.1l34.2 20.9c0.7 0.4 1.1 1.1 1.1 1.9v12.7c0 0.8-0.5 1.6-1.2 1.9q-0.5 0.3-1 0.3z"/><path fill-rule="evenodd" class="e" d="m889.5 1242.9v12.8c0 2.4-2 4.4-4.4 4.4h-25.3l27.6 16.8c1.3 0.8 2.1 2.2 2.1 3.8v12.7c0 1.6-0.9 3.1-2.3 3.9-0.7 0.3-1.4 0.5-2.1 0.5-0.8 0-1.6-0.2-2.3-0.6l-61.7-37.8c-1.3-0.8-2.1-2.2-2.1-3.7v-12.8c0-2.4 2-4.4 4.4-4.4h61.7c2.4 0 4.4 2 4.4 4.4zm-66.1 0v12.8l61.7 37.7v-12.7l-40.9-25h40.9v-12.8z"/><path class="j" d="m885.1 1245.1q-0.7 0-1.2-0.3l-61.6-37.8c-0.7-0.4-1.1-1.1-1.1-1.8v-12.8c0-1.2 1-2.2 2.2-2.2h61.7c1.2 0 2.2 1 2.2 2.2v12.8c0 1.2-1 2.2-2.2 2.2h-33.1l34.2 20.9c0.7 0.4 1.1 1.1 1.1 1.9v12.7c0 0.8-0.5 1.5-1.2 1.9q-0.5 0.3-1 0.3z"/><path fill-rule="evenodd" class="e" d="m889.5 1192.4v12.8c0 2.4-2 4.4-4.4 4.4h-25.3l27.6 16.8c1.3 0.8 2.1 2.2 2.1 3.8v12.7c0 1.6-0.9 3.1-2.3 3.9-0.7 0.3-1.4 0.5-2.1 0.5-0.8 0-1.6-0.2-2.3-0.6l-61.7-37.8c-1.3-0.8-2.1-2.2-2.1-3.7v-12.8c0-2.4 2-4.4 4.4-4.4h61.7c2.4 0 4.4 2 4.4 4.4zm-66.1 0v12.8l61.7 37.7v-12.7l-40.9-25h40.9v-12.8z"/><path class="j" d="m885.1 1194.6q-0.7 0-1.2-0.3l-61.6-37.8c-0.7-0.4-1.1-1.1-1.1-1.9v-12.7c0-1.2 1-2.2 2.2-2.2h61.7c1.2 0 2.2 1 2.2 2.2v12.7c0 1.2-1 2.2-2.2 2.2h-33.1l34.2 21c0.7 0.4 1.1 1.1 1.1 1.9v12.7c0 0.8-0.5 1.5-1.2 1.9q-0.5 0.3-1 0.3z"/><path fill-rule="evenodd" class="e" d="m889.5 1141.9v12.7c0 2.5-2 4.4-4.4 4.4h-25.3l27.6 16.9c1.3 0.8 2.1 2.2 2.1 3.8v12.7c0 1.6-0.9 3.1-2.3 3.8-0.7 0.4-1.4 0.6-2.1 0.6-0.8 0-1.6-0.2-2.3-0.6l-61.7-37.8c-1.3-0.8-2.1-2.2-2.1-3.8v-12.7c0-2.4 2-4.4 4.4-4.4h61.7c2.4 0 4.4 2 4.4 4.4zm-66.1 0v12.7l61.7 37.8v-12.7l-40.9-25.1h40.9v-12.7z"/><path class="j" d="m885.1 1144.1q-0.7 0-1.2-0.3l-61.6-37.8c-0.7-0.4-1.1-1.1-1.1-1.9v-12.7c0-1.2 1-2.2 2.2-2.2h61.7c1.2 0 2.2 1 2.2 2.2v12.7c0 1.2-1 2.2-2.2 2.2h-33.1l34.2 21c0.7 0.4 1.1 1.1 1.1 1.8v12.8c0 0.8-0.5 1.5-1.2 1.9q-0.5 0.3-1 0.3z"/><path fill-rule="evenodd" class="e" d="m889.5 1091.4v12.7c0 2.5-2 4.4-4.4 4.4h-25.3l27.6 16.9c1.3 0.8 2.1 2.2 2.1 3.7v12.8c0 1.6-0.9 3.1-2.3 3.8-0.7 0.4-1.4 0.6-2.1 0.6-0.8 0-1.6-0.2-2.3-0.7l-61.7-37.7c-1.3-0.8-2.1-2.2-2.1-3.8v-12.7c0-2.4 2-4.4 4.4-4.4h61.7c2.4 0 4.4 2 4.4 4.4zm-66.1 0v12.7l61.7 37.8v-12.8l-40.9-25h40.9v-12.7z"/><path class="j" d="m885.1 1093.6q-0.7 0-1.2-0.3l-61.6-37.8c-0.7-0.4-1.1-1.1-1.1-1.9v-12.7c0-1.2 1-2.2 2.2-2.2h61.7c1.2 0 2.2 1 2.2 2.2v12.7c0 1.2-1 2.2-2.2 2.2h-33.1l34.2 21c0.7 0.4 1.1 1.1 1.1 1.8v12.8c0 0.8-0.5 1.5-1.2 1.9q-0.5 0.3-1 0.3z"/><path fill-rule="evenodd" class="e" d="m889.5 1040.9v12.7c0 2.5-2 4.4-4.4 4.4h-25.3l27.6 16.9c1.3 0.8 2.1 2.2 2.1 3.7v12.8c0 1.6-0.9 3-2.3 3.8-0.7 0.4-1.4 0.6-2.1 0.6-0.8 0-1.6-0.2-2.3-0.7l-61.7-37.7c-1.3-0.8-2.1-2.2-2.1-3.8v-12.7c0-2.5 2-4.4 4.4-4.4h61.7c2.4 0 4.4 1.9 4.4 4.4zm-66.1 0v12.7l61.7 37.8v-12.8l-40.9-25h40.9v-12.7z"/><path class="j" d="m885.1 1043.1q-0.7 0-1.2-0.3l-61.6-37.8c-0.7-0.4-1.1-1.1-1.1-1.9v-12.7c0-1.3 1-2.2 2.2-2.2h61.7c1.2 0 2.2 0.9 2.2 2.2v12.7c0 1.2-1 2.2-2.2 2.2h-33.1l34.2 21c0.7 0.4 1.1 1.1 1.1 1.8v12.8c0 0.8-0.5 1.5-1.2 1.9q-0.5 0.3-1 0.3z"/><path fill-rule="evenodd" class="e" d="m889.5 990.4v12.7c0 2.4-2 4.4-4.4 4.4h-25.3l27.6 16.9c1.3 0.8 2.1 2.2 2.1 3.7v12.8c0 1.6-0.9 3-2.3 3.8-0.7 0.4-1.4 0.6-2.1 0.6-0.8 0-1.6-0.2-2.3-0.7l-61.7-37.7c-1.3-0.8-2.1-2.3-2.1-3.8v-12.7c0-2.5 2-4.5 4.4-4.5h61.7c2.4 0 4.4 2 4.4 4.5zm-66.1 0v12.7l61.7 37.8v-12.8l-40.9-25h40.9v-12.7z"/><path class="j" d="m885.1 992.6q-0.7 0-1.2-0.4l-61.6-37.7c-0.7-0.4-1.1-1.1-1.1-1.9v-12.7c0-1.3 1-2.2 2.2-2.2h61.7c1.2 0 2.2 0.9 2.2 2.2v12.7c0 1.2-1 2.2-2.2 2.2h-33.1l34.2 20.9c0.7 0.4 1.1 1.2 1.1 1.9v12.8c0 0.7-0.5 1.5-1.2 1.9q-0.5 0.3-1 0.3z"/><path fill-rule="evenodd" class="e" d="m889.5 939.9v12.7c0 2.4-2 4.4-4.4 4.4h-25.3l27.6 16.9c1.3 0.8 2.1 2.2 2.1 3.7v12.8c0 1.5-0.9 3-2.3 3.8-0.7 0.4-1.4 0.6-2.1 0.6-0.8 0-1.6-0.3-2.3-0.7l-61.7-37.7c-1.3-0.8-2.1-2.3-2.1-3.8v-12.7c0-2.5 2-4.4 4.4-4.4h61.7c2.4 0 4.4 1.9 4.4 4.4zm-66.1 0v12.7l61.7 37.8v-12.8l-40.9-25h40.9v-12.7z"/><path class="j" d="m885.1 942.1q-0.7 0-1.2-0.4l-61.6-37.7c-0.7-0.4-1.1-1.1-1.1-1.9v-12.8c0-1.2 1-2.2 2.2-2.2h61.7c1.2 0 2.2 1 2.2 2.2v12.8c0 1.2-1 2.2-2.2 2.2h-33.1l34.2 20.9c0.7 0.4 1.1 1.1 1.1 1.9v12.8c0 0.7-0.5 1.5-1.2 1.9q-0.5 0.3-1 0.3z"/><path fill-rule="evenodd" class="e" d="m889.5 889.3v12.8c0 2.4-2 4.4-4.4 4.4h-25.3l27.6 16.8c1.3 0.8 2.1 2.3 2.1 3.8v12.8c0 1.5-0.9 3-2.3 3.8-0.7 0.4-1.4 0.6-2.1 0.6-0.8 0-1.6-0.3-2.3-0.7l-61.7-37.8c-1.3-0.8-2.1-2.2-2.1-3.7v-12.8c0-2.4 2-4.4 4.4-4.4h61.7c2.4 0 4.4 2 4.4 4.4zm-66.1 0v12.8l61.7 37.8v-12.8l-40.9-25h40.9v-12.8z"/><path class="j" d="m885.1 891.5q-0.7 0-1.2-0.3l-61.6-37.7c-0.7-0.4-1.1-1.2-1.1-1.9v-12.8c0-1.2 1-2.2 2.2-2.2h61.7c1.2 0 2.2 1 2.2 2.2v12.8c0 1.2-1 2.2-2.2 2.2h-33.1l34.2 20.9c0.7 0.4 1.1 1.1 1.1 1.9v12.7c0 0.8-0.5 1.6-1.2 2q-0.5 0.2-1 0.2z"/><path fill-rule="evenodd" class="e" d="m889.5 838.8v12.8c0 2.4-2 4.4-4.4 4.4h-25.3l27.6 16.8c1.3 0.8 2.1 2.3 2.1 3.8v12.7c0 1.6-0.9 3.1-2.3 3.9-0.7 0.4-1.4 0.5-2.1 0.5-0.8 0-1.6-0.2-2.3-0.6l-61.7-37.8c-1.3-0.8-2.1-2.2-2.1-3.7v-12.8c0-2.4 2-4.4 4.4-4.4h61.7c2.4 0 4.4 2 4.4 4.4zm-66.1 0v12.8l61.7 37.7v-12.7l-40.9-25h40.9v-12.8z"/><path class="j" d="m885.1 841q-0.7 0-1.2-0.3l-61.6-37.8c-0.7-0.4-1.1-1.1-1.1-1.8v-12.8c0-1.2 1-2.2 2.2-2.2h61.7c1.2 0 2.2 1 2.2 2.2v12.8c0 1.2-1 2.2-2.2 2.2h-33.1l34.2 20.9c0.7 0.4 1.1 1.1 1.1 1.9v12.7c0 0.8-0.5 1.6-1.2 1.9q-0.5 0.3-1 0.3z"/><path fill-rule="evenodd" class="e" d="m889.5 788.3v12.8c0 2.4-2 4.4-4.4 4.4h-25.3l27.6 16.8c1.3 0.8 2.1 2.3 2.1 3.8v12.7c0 1.6-0.9 3.1-2.3 3.9-0.7 0.3-1.4 0.5-2.1 0.5-0.8 0-1.6-0.2-2.3-0.6l-61.7-37.8c-1.3-0.8-2.1-2.2-2.1-3.7v-12.8c0-2.4 2-4.4 4.4-4.4h61.7c2.4 0 4.4 2 4.4 4.4zm-66.1 0v12.8l61.7 37.7v-12.7l-40.9-25h40.9v-12.8z"/><path class="j" d="m885.1 790.5q-0.7 0-1.2-0.3l-61.6-37.8c-0.7-0.4-1.1-1.1-1.1-1.8v-12.8c0-1.2 1-2.2 2.2-2.2h61.7c1.2 0 2.2 1 2.2 2.2v12.8c0 1.2-1 2.2-2.2 2.2h-33.1l34.2 20.9c0.7 0.4 1.1 1.1 1.1 1.9v12.7c0 0.8-0.5 1.6-1.2 1.9q-0.5 0.3-1 0.3z"/><path fill-rule="evenodd" class="e" d="m889.5 737.8v12.8c0 2.4-2 4.4-4.4 4.4h-25.3l27.6 16.8c1.3 0.8 2.1 2.2 2.1 3.8v12.7c0 1.6-0.9 3.1-2.3 3.9-0.7 0.3-1.4 0.5-2.1 0.5-0.8 0-1.6-0.2-2.3-0.6l-61.7-37.8c-1.3-0.8-2.1-2.2-2.1-3.7v-12.8c0-2.4 2-4.4 4.4-4.4h61.7c2.4 0 4.4 2 4.4 4.4zm-66.1 0v12.8l61.7 37.7v-12.7l-40.9-25h40.9v-12.8z"/><path class="j" d="m885.1 740q-0.7 0-1.2-0.3l-61.6-37.8c-0.7-0.4-1.1-1.1-1.1-1.8v-12.8c0-1.2 1-2.2 2.2-2.2h61.7c1.2 0 2.2 1 2.2 2.2v12.8c0 1.2-1 2.1-2.2 2.1h-33.1l34.2 21c0.7 0.4 1.1 1.1 1.1 1.9v12.7c0 0.8-0.5 1.5-1.2 1.9q-0.5 0.3-1 0.3z"/><path fill-rule="evenodd" class="e" d="m889.5 687.3v12.8c0 2.4-2 4.3-4.4 4.3h-25.3l27.6 16.9c1.3 0.8 2.1 2.2 2.1 3.8v12.7c0 1.6-0.9 3.1-2.3 3.9-0.7 0.3-1.4 0.5-2.1 0.5-0.8 0-1.6-0.2-2.3-0.6l-61.7-37.8c-1.3-0.8-2.1-2.2-2.1-3.7v-12.8c0-2.4 2-4.4 4.4-4.4h61.7c2.4 0 4.4 2 4.4 4.4zm-66.1 0v12.8l61.7 37.7v-12.7l-40.9-25h40.9v-12.8z"/><path class="j" d="m885.1 689.5q-0.7 0-1.2-0.3l-61.6-37.8c-0.7-0.4-1.1-1.1-1.1-1.9v-12.7c0-1.2 1-2.2 2.2-2.2h61.7c1.2 0 2.2 1 2.2 2.2v12.7c0 1.2-1 2.2-2.2 2.2h-33.1l34.2 21c0.7 0.4 1.1 1.1 1.1 1.9v12.7c0 0.8-0.5 1.5-1.2 1.9q-0.5 0.3-1 0.3z"/><path fill-rule="evenodd" class="e" d="m889.5 636.8v12.7c0 2.5-2 4.4-4.4 4.4h-25.3l27.6 16.9c1.3 0.8 2.1 2.2 2.1 3.8v12.7c0 1.6-0.9 3.1-2.3 3.8-0.7 0.4-1.4 0.6-2.1 0.6-0.8 0-1.6-0.2-2.3-0.6l-61.7-37.8c-1.3-0.8-2.1-2.2-2.1-3.8v-12.7c0-2.4 2-4.4 4.4-4.4h61.7c2.4 0 4.4 2 4.4 4.4zm-66.1 0v12.7l61.7 37.8v-12.7l-40.9-25.1h40.9v-12.7z"/><path class="j" d="m885.1 639q-0.7 0-1.2-0.3l-61.6-37.8c-0.7-0.4-1.1-1.1-1.1-1.9v-12.7c0-1.2 1-2.2 2.2-2.2h61.7c1.2 0 2.2 1 2.2 2.2v12.7c0 1.2-1 2.2-2.2 2.2h-33.1l34.2 21c0.7 0.4 1.1 1.1 1.1 1.9v12.7c0 0.8-0.5 1.5-1.2 1.9q-0.5 0.3-1 0.3z"/><path fill-rule="evenodd" class="e" d="m889.5 586.3v12.7c0 2.5-2 4.4-4.4 4.4h-25.3l27.6 16.9c1.3 0.8 2.1 2.2 2.1 3.8v12.7c0 1.6-0.9 3.1-2.3 3.8-0.7 0.4-1.4 0.6-2.1 0.6-0.8 0-1.6-0.2-2.3-0.7l-61.7-37.7c-1.3-0.8-2.1-2.2-2.1-3.8v-12.7c0-2.4 2-4.4 4.4-4.4h61.7c2.4 0 4.4 2 4.4 4.4zm-66.1 0v12.7l61.7 37.8v-12.7l-40.9-25.1h40.9v-12.7z"/><path class="j" d="m817.1 1428.6c-1.3 0-2.2-0.9-2.2-2.2v-1132.5c0-1.2 0.9-2.2 2.2-2.2h12.7c1.2 0 2.2 1 2.2 2.2v1132.5c0 1.3-1 2.2-2.2 2.2z"/><path fill-rule="evenodd" class="e" d="m834.2 293.9v1132.5c0 2.5-2 4.4-4.4 4.4h-12.7c-2.5 0-4.4-1.9-4.4-4.4v-1132.5c0-2.4 1.9-4.4 4.4-4.4h12.7c2.4 0 4.4 2 4.4 4.4zm-17.1 0v1132.5h12.7v-1132.5z"/><path class="j" d="m878.7 1428.6c-1.2 0-2.2-0.9-2.2-2.2v-1050.7c0-1.2 1-2.2 2.2-2.2h12.7c1.2 0 2.2 1 2.2 2.2v1050.7c0 1.3-1 2.2-2.2 2.2z"/><path fill-rule="evenodd" class="e" d="m895.8 375.7v1050.7c0 2.5-1.9 4.4-4.4 4.4h-12.7c-2.4 0-4.4-1.9-4.4-4.4v-1050.7c0-2.4 2-4.4 4.4-4.4h12.7c2.5 0 4.4 2 4.4 4.4zm-17.1 0v1050.7h12.7v-1050.7z"/><path class="k" d="m812.8 1428.6c-1.2 0-2.2-0.9-2.2-2.2v-1151.5c0-1.3 1-2.2 2.2-2.2h4.3c1.2 0 2.2 0.9 2.2 2.2v1151.5c0 1.3-1 2.2-2.2 2.2z"/><path fill-rule="evenodd" class="e" d="m821.5 274.9v1151.5c0 2.5-2 4.4-4.4 4.4h-4.3c-2.4 0-4.4-1.9-4.4-4.4v-1151.5c0-2.5 2-4.4 4.4-4.4h4.3c2.4 0 4.4 1.9 4.4 4.4zm-8.7 0v1151.5h4.3v-1151.5z"/><path class="j" d="m891.4 406c-0.6 0-1.3-0.3-1.7-0.9l-74.4-97.9q-0.4-0.6-0.4-1.3v-31c0-1 0.6-1.8 1.5-2.1q0.3-0.1 0.7-0.1c0.7 0 1.3 0.3 1.7 0.9l74.4 100.8c0.3 0.4 0.4 0.8 0.4 1.3v28.1c0 0.9-0.6 1.8-1.5 2.1q-0.3 0.1-0.7 0.1z"/><path fill-rule="evenodd" class="e" d="m820.6 272.2l74.4 100.9c0.5 0.7 0.8 1.7 0.8 2.6v28.1c0 1.9-1.2 3.6-3 4.2q-0.7 0.2-1.4 0.2c-1.3 0-2.6-0.6-3.5-1.7l-74.3-97.9c-0.6-0.8-0.9-1.7-0.9-2.7v-31c0-1.9 1.2-3.6 3-4.2q0.7-0.2 1.4-0.2c1.3 0 2.7 0.6 3.5 1.7zm-3.5 33.7l74.3 97.9v-28.1l-74.3-100.8z"/><path class="j" d="m782.2 593.2c-1.2 0-2.2-0.9-2.2-2.2v-139.8c0-1.2 1-2.2 2.2-2.2h76.1c0.5 0 1.1 0.3 1.5 0.6l63.7 59.8c0.5 0.4 0.7 1 0.7 1.6v80c0 1.3-0.9 2.2-2.2 2.2z"/><path fill-rule="evenodd" class="e" d="m861.3 448l63.8 59.8c0.8 0.8 1.3 2 1.3 3.2v80c0 2.5-1.9 4.4-4.4 4.4h-139.8c-2.4 0-4.4-1.9-4.4-4.4v-139.8c0-2.4 2-4.4 4.4-4.4h76.1c1.1 0 2.2 0.5 3 1.2zm-79.1 3.2v139.8h139.8v-80l-63.7-59.8z"/><path class="l" d="m808.5 556.9c-1.3 0-2.2-1-2.2-2.2v-87.4c0-1.2 0.9-2.2 2.2-2.2h45.7c0.6 0 1.1 0.2 1.5 0.6l41.6 38.6c0.5 0.4 0.7 1 0.7 1.6v48.8c0 1.2-1 2.2-2.2 2.2z"/><path fill-rule="evenodd" class="e" d="m857.2 464.1l41.6 38.5c0.9 0.9 1.4 2 1.4 3.3v48.8c0 2.4-2 4.4-4.4 4.4h-87.3c-2.5 0-4.4-2-4.4-4.4v-87.4c0-2.4 1.9-4.4 4.4-4.4h45.7c1.2 0 2.2 0.4 3 1.2zm-48.7 3.2v87.4h87.3v-48.8l-41.6-38.6z"/><path class="m" d="m816 541.8c-1.2 0-2.2-1-2.2-2.2v-67.5c0-1.2 1-2.2 2.2-2.2h30.4c0.5 0 1 0.2 1.5 0.6l41.9 38.9c0.4 0.4 0.7 1 0.7 1.6v28.6c0 1.2-1 2.2-2.2 2.2z"/><path fill-rule="evenodd" class="e" d="m849.3 468.9l42 38.9c0.9 0.8 1.4 2 1.4 3.2v28.6c0 2.5-2 4.4-4.4 4.4h-72.3c-2.4 0-4.4-1.9-4.4-4.4v-67.5c0-2.4 2-4.4 4.4-4.4h30.4c1.1 0 2.1 0.4 2.9 1.2zm-33.3 3.2v67.5h72.3v-28.6l-41.9-38.9z"/><path class="e" d="m1491.6 685.8h-3.9v-113.8h3.9z"/><path class="e" d="m1536.9 685.8h-3.9v-113.8h3.9z"/><path class="e" d="m1514.9 765h-3.8v-74.8h3.8z"/><path class="k" d="m1512.3 732.7c-0.5 0-0.9-0.2-1.3-0.5l-28.3-21.3c-0.6-0.4-0.9-1.1-0.9-1.8v-27.7c0-1.2 1-2.2 2.2-2.2h56.6c1.2 0 2.2 1 2.2 2.2v27.7c0 0.7-0.3 1.4-0.9 1.8l-28.3 21.3c-0.4 0.3-0.8 0.5-1.3 0.5z"/><path fill-rule="evenodd" class="e" d="m1545 681.4v27.7c0 1.4-0.6 2.7-1.7 3.6l-28.4 21.3c-0.7 0.6-1.7 0.9-2.6 0.9-0.9 0-1.9-0.3-2.6-0.9l-28.4-21.3c-1.1-0.9-1.7-2.2-1.7-3.6v-27.7c0-2.4 2-4.4 4.4-4.4h56.6c2.4 0 4.4 2 4.4 4.4zm-61 0v27.7l28.3 21.4 28.3-21.4v-27.7z"/><path class="j" d="m1512.3 608.6c-20.2 0-36.6-16.4-36.6-36.6 0-20.3 16.4-36.7 36.6-36.7 20.2 0 36.7 16.4 36.7 36.7 0 20.2-16.5 36.6-36.7 36.6z"/><path fill-rule="evenodd" class="e" d="m1551.2 572c0 21.4-17.5 38.8-38.9 38.8-21.4 0-38.8-17.4-38.8-38.8 0-21.5 17.4-38.9 38.8-38.9 21.4 0 38.9 17.4 38.9 38.9zm-73.3 0c0 19 15.4 34.4 34.4 34.4 19 0 34.5-15.4 34.5-34.4 0-19.1-15.5-34.5-34.5-34.5-19 0-34.4 15.4-34.4 34.5z"/><path class="i" d="m1512.3 600.7c-15.9 0-28.7-12.9-28.7-28.7 0-15.9 12.8-28.8 28.7-28.8 15.9 0 28.8 12.9 28.8 28.8 0 15.8-12.9 28.7-28.8 28.7z"/><path fill-rule="evenodd" class="e" d="m1543.3 572c0 17-13.9 30.9-31 30.9-17.1 0-31-13.9-31-30.9 0-17.1 13.9-31 31-31 17.1 0 31 13.9 31 31zm-57.5 0c0 14.6 11.8 26.5 26.5 26.5 14.7 0 26.6-11.9 26.6-26.5 0-14.7-11.9-26.6-26.6-26.6-14.7 0-26.5 11.9-26.5 26.6z"/><path class="d" d="m1512.3 596.2c-13.3 0-24.2-10.9-24.2-24.2 0-13.4 10.9-24.2 24.2-24.2 13.3 0 24.2 10.8 24.2 24.2 0 13.3-10.9 24.2-24.2 24.2z"/><path fill-rule="evenodd" class="e" d="m1538.7 572c0 14.5-11.8 26.4-26.4 26.4-14.6 0-26.4-11.9-26.4-26.4 0-14.6 11.8-26.4 26.4-26.4 14.6 0 26.4 11.8 26.4 26.4zm-48.4 0c0 12.1 9.9 22 22 22 12.2 0 22-9.9 22-22 0-12.2-9.8-22-22-22-12.1 0-22 9.8-22 22z"/><path class="j" d="m1512.3 722.3q-0.6 0-1.1-0.3l-28.3-16.3c-0.7-0.4-1.1-1.1-1.1-1.9v-32.7c0-1.2 1-2.2 2.2-2.2h56.6c1.2 0 2.2 1 2.2 2.2v32.7c0 0.8-0.4 1.5-1.1 1.9l-28.3 16.3q-0.5 0.3-1.1 0.3z"/><path fill-rule="evenodd" class="e" d="m1545 671.1v32.7c0 1.5-0.8 3-2.2 3.8l-28.3 16.3c-0.7 0.4-1.4 0.6-2.2 0.6-0.8 0-1.5-0.2-2.2-0.6l-28.3-16.3c-1.4-0.8-2.2-2.3-2.2-3.8v-32.7c0-2.5 2-4.4 4.4-4.4h56.6c2.4 0 4.4 1.9 4.4 4.4zm-61 0v32.7l28.3 16.3 28.3-16.3v-32.7z"/><path class="k" d="m1512.3 700.9c-5.9 0-10.6-4.8-10.6-10.7 0-5.8 4.7-10.6 10.6-10.6 5.9 0 10.6 4.8 10.6 10.6 0 5.9-4.7 10.7-10.6 10.7z"/><path fill-rule="evenodd" class="e" d="m1525.1 690.2c0 7.1-5.7 12.9-12.8 12.9-7.1 0-12.8-5.8-12.8-12.9 0-7 5.7-12.8 12.8-12.8 7.1 0 12.8 5.8 12.8 12.8zm-21.2 0c0 4.7 3.7 8.5 8.4 8.5 4.7 0 8.4-3.8 8.4-8.5 0-4.6-3.7-8.4-8.4-8.4-4.7 0-8.4 3.8-8.4 8.4z"/><path fill-rule="evenodd" class="k" d="m1512.3 707.2c-9.4 0-17-7.6-17-17 0-9.3 7.6-17 17-17 9.4 0 17 7.7 17 17 0 9.4-7.6 17-17 17zm0-26.8c-5.4 0-9.9 4.4-9.9 9.8 0 5.5 4.5 9.9 9.9 9.9 5.5 0 9.9-4.4 9.9-9.9 0-5.4-4.4-9.8-9.9-9.8z"/><path fill-rule="evenodd" class="e" d="m1531.5 690.2c0 10.6-8.6 19.2-19.2 19.2-10.6 0-19.2-8.6-19.2-19.2 0-10.6 8.6-19.2 19.2-19.2 10.6 0 19.2 8.6 19.2 19.2zm-34 0c0 8.2 6.6 14.8 14.8 14.8 8.2 0 14.8-6.6 14.8-14.8 0-8.1-6.6-14.8-14.8-14.8-8.2 0-14.8 6.7-14.8 14.8zm2.7 0c0-6.6 5.4-12 12.1-12 6.7 0 12.1 5.4 12.1 12 0 6.7-5.4 12.1-12.1 12.1-6.7 0-12.1-5.4-12.1-12.1zm19.8 0c0-4.2-3.5-7.6-7.7-7.6-4.2 0-7.7 3.4-7.7 7.6 0 4.3 3.5 7.7 7.7 7.7 4.2 0 7.7-3.4 7.7-7.7z"/><path class="j" d="m1513.2 837.2c-19.6 0-35.6-16-35.6-35.6 0-16.9 12.1-31.6 28.5-34.9v-18.3c0-1.2 1-2.2 2.2-2.2h9.8c1.2 0 2.2 1 2.2 2.2v28.4q0 0.4-0.1 0.7c-0.1 0.5-0.4 1-0.7 1.2-0.5 0.4-1 0.8-1.6 0.8q-0.1 0-0.3-0.1-2.1-0.4-4.4-0.4c-12.4 0-22.5 10.1-22.5 22.6 0 12.4 10.1 22.5 22.5 22.5 8.7 0 16.5-4.9 20.3-12.7 0.4-0.8 1.1-1.2 2-1.2h9.3c0.7 0 1.4 0.3 1.8 0.9 0.4 0.6 0.5 1.3 0.3 2-4.9 14.4-18.5 24.1-33.7 24.1z"/><path fill-rule="evenodd" class="e" d="m1522.5 748.4v28.4q0 0.2 0 0.4v0.1c0 1.3-0.6 2.5-1.6 3.4-0.8 0.6-1.8 1-2.8 1q-0.5 0-0.9-0.1-1.9-0.4-4-0.4c-11.2 0-20.3 9.1-20.3 20.4 0 11.2 9.1 20.3 20.3 20.3 7.9 0 14.9-4.4 18.3-11.5 0.7-1.5 2.3-2.4 4-2.4h9.3c2.5 0 4.4 1.9 4.4 4.4q0 0.9-0.3 1.7c-5.3 15.1-19.6 25.3-35.7 25.3-20.8 0-37.8-17-37.8-37.8 0-17.4 12-32.5 28.5-36.7v-16.5c0-2.4 2-4.4 4.4-4.4h9.8c2.4 0 4.4 2 4.4 4.4zm-14.2 0v20.1c-16.1 2.4-28.5 16.3-28.5 33.1 0 18.4 15 33.4 33.4 33.4 14.7 0 27.1-9.5 31.6-22.6h-9.3c-4 8.2-12.5 13.9-22.3 13.9-13.7 0-24.7-11.1-24.7-24.7 0-13.7 11-24.8 24.7-24.8q2.5 0 4.9 0.5v-0.5-28.4zm36.5 64"/><path class="d" d="m767.9 1512.3c-1.3 0-2.2-0.9-2.2-2.2v-96.2c0-1.2 0.9-2.1 2.2-2.1h172.7c1.3 0 2.2 0.9 2.2 2.1v96.2c0 1.3-0.9 2.2-2.2 2.2z"/><path fill-rule="evenodd" class="e" d="m945 1413.9v96.2c0 2.5-1.9 4.4-4.4 4.4h-172.7c-2.5 0-4.4-1.9-4.4-4.4v-96.2c0-2.4 1.9-4.4 4.4-4.4h172.7c2.5 0 4.4 2 4.4 4.4zm-177.1 0v96.2h172.7v-96.2z"/><path class="n" d="m891.4 1512.3c-1.2 0-2.2-0.9-2.2-2.2v-96.2c0-1.2 1-2.1 2.2-2.1h49.2c1.3 0 2.2 0.9 2.2 2.1v96.2c0 1.3-0.9 2.2-2.2 2.2z"/><path fill-rule="evenodd" class="e" d="m945 1413.9v96.2c0 2.5-1.9 4.4-4.4 4.4h-49.2c-2.4 0-4.4-1.9-4.4-4.4v-96.2c0-2.4 2-4.4 4.4-4.4h49.2c2.5 0 4.4 2 4.4 4.4zm-53.6 0v96.2h49.2v-96.2z"/><path class="n" d="m747.1 1534c-1.2 0-2.2-1-2.2-2.2v-43.3c0-1.2 1-2.2 2.2-2.2h214.3c1.2 0 2.2 1 2.2 2.2v43.3c0 1.2-1 2.2-2.2 2.2z"/><path fill-rule="evenodd" class="e" d="m965.8 1488.5v43.3c0 2.4-2 4.4-4.4 4.4h-214.3c-2.4 0-4.4-2-4.4-4.4v-43.3c0-2.4 2-4.4 4.4-4.4h214.3c2.4 0 4.4 2 4.4 4.4zm-218.7 0v43.3h214.3v-43.3z"/><path class="o" d="m904.4 1534c-1.2 0-2.2-1-2.2-2.2v-43.3c0-1.2 1-2.2 2.2-2.2h57c1.2 0 2.2 1 2.2 2.2v43.3c0 1.2-1 2.2-2.2 2.2z"/><path fill-rule="evenodd" class="e" d="m965.8 1488.5v43.3c0 2.4-2 4.4-4.4 4.4h-57c-2.4 0-4.4-2-4.4-4.4v-43.3c0-2.4 2-4.4 4.4-4.4h57c2.4 0 4.4 2 4.4 4.4zm-61.4 0v43.3h57v-43.3z"/><path class="b" d="m830.8 539.6h-7.4l36.4-55 4.7 4.1z"/><path class="b" d="m845.9 539.6h-7.3l30.5-45.9 4.7 4.1z"/><path class="j" d="m572.7 613.7c-1.2 0-2.2-1-2.2-2.2v-36.8c0-1.2 1-2.2 2.2-2.2h80.1c1.2 0 2.2 1 2.2 2.2v36.8c0 1.2-1 2.2-2.2 2.2z"/><path fill-rule="evenodd" class="e" d="m657.2 574.7v36.8c0 2.5-2 4.4-4.4 4.4h-80.1c-2.4 0-4.4-1.9-4.4-4.4v-36.8c0-2.4 2-4.4 4.4-4.4h80.1c2.4 0 4.4 2 4.4 4.4zm-84.5 0v36.8h80.1v-36.8z"/><path class="k" d="m630 613.7c-1.2 0-2.2-1-2.2-2.2v-36.8c0-1.2 1-2.2 2.2-2.2h22.8c1.2 0 2.2 1 2.2 2.2v36.8c0 1.2-1 2.2-2.2 2.2z"/><path fill-rule="evenodd" class="e" d="m657.2 574.7v36.8c0 2.5-2 4.4-4.4 4.4h-22.8c-2.4 0-4.4-1.9-4.4-4.4v-36.8c0-2.4 2-4.4 4.4-4.4h22.8c2.4 0 4.4 2 4.4 4.4zm-27.2 0v36.8h22.8v-36.8z"/><path class="j" d="m1533.4 932.5c-7.6 0-13.8-6.2-13.8-13.8v-101.2c0-7.6 6.2-13.9 13.8-13.9h101.2c7.7 0 13.9 6.3 13.9 13.9v101.2c0 7.6-6.2 13.8-13.9 13.8z"/><path fill-rule="evenodd" class="e" d="m1649.8 817.5v101.2c0 8.4-6.8 15.2-15.2 15.2h-101.2c-8.3 0-15.2-6.8-15.2-15.2v-101.2c0-8.4 6.9-15.2 15.2-15.2h101.2c8.4 0 15.2 6.8 15.2 15.2zm-116.4-12.5c-6.9 0-12.5 5.6-12.5 12.5v101.2c0 6.9 5.6 12.5 12.5 12.5h101.2c6.9 0 12.5-5.6 12.5-12.5v-101.2c0-6.9-5.6-12.5-12.5-12.5z"/><path fill-rule="evenodd" class="b" d="m1580.3 907.8c-0.8 0-1.4-0.6-1.4-1.3v-1.7c-6.2-0.9-12.1-3.3-17.2-7.2l-1.2 1.2c-0.2 0.3-0.6 0.4-0.9 0.4-0.4 0-0.7-0.1-1-0.4l-5.3-5.3c-0.3-0.2-0.4-0.6-0.4-0.9 0-0.4 0.1-0.7 0.4-1l1.2-1.2c-3.8-5.1-6.3-11-7.1-17.2h-1.7c-0.8 0-1.4-0.6-1.4-1.3v-7.6c0-0.7 0.6-1.3 1.4-1.3h1.7c0.8-6.3 3.3-12.2 7.1-17.2l-1.2-1.2c-0.5-0.5-0.5-1.4 0-1.9l5.3-5.4c0.3-0.2 0.6-0.4 1-0.4 0.3 0 0.7 0.2 0.9 0.4l1.2 1.2c5.1-3.8 11-6.2 17.2-7.1v-1.7c0-0.7 0.6-1.3 1.4-1.3h7.5c0.8 0 1.4 0.6 1.4 1.3v1.7c6.2 0.9 12.1 3.3 17.1 7.1l1.3-1.2c0.2-0.2 0.6-0.4 0.9-0.4 0.4 0 0.7 0.2 1 0.4l5.3 5.4c0.2 0.2 0.4 0.6 0.4 0.9 0 0.4-0.2 0.7-0.4 1l-1.2 1.2c3.8 5 6.2 10.9 7.1 17.2h1.7c0.8 0 1.4 0.6 1.4 1.3v7.6c0 0.7-0.6 1.3-1.4 1.3h-1.7c-0.9 6.3-3.3 12.1-7.1 17.2l1.2 1.2c0.2 0.3 0.4 0.6 0.4 1 0 0.3-0.2 0.7-0.4 0.9l-5.3 5.3c-0.3 0.3-0.6 0.4-1 0.4-0.3 0-0.7-0.1-0.9-0.4l-1.3-1.2c-5 3.9-10.9 6.3-17.1 7.2v1.7c0 0.7-0.6 1.3-1.4 1.3zm9.4-20.5c0.6 0 1.1 0.3 1.3 0.8l0.1 0.4 1.7-0.7-0.1-0.3c-0.3-0.7 0-1.4 0.6-1.7q0.7-0.4 1.3-0.8l-4.5-4.5q-0.7 0.3-1.5 0.6v6.4q0.4-0.1 0.8-0.2 0.2 0 0.3 0zm-13.4 0.9l0.1-0.3c0.3-0.5 0.8-0.8 1.3-0.8q0.2 0 0.4 0 0.7 0.3 1.5 0.4v-6.4q-0.8-0.3-1.5-0.6l-4.6 4.5q0.4 0.3 0.7 0.5c0.6 0.3 0.9 1 0.6 1.7l-0.2 0.3zm24.8-9.6q0.2-0.3 0.4-0.7c0.2-0.4 0.7-0.7 1.2-0.7q0.2 0 0.5 0.2l0.3 0.1 0.8-1.6-0.4-0.2c-0.6-0.3-0.9-1-0.7-1.6q0.2-0.8 0.4-1.5h-6.4q-0.3 0.8-0.7 1.5zm-35.8-2.1c0.5 0 0.9 0.3 1.2 0.8q0.3 0.6 0.7 1.3l4.6-4.6q-0.4-0.7-0.6-1.4h-6.5q0.1 0.3 0.2 0.7c0.2 0.7-0.1 1.4-0.8 1.6l-0.3 0.2 0.6 1.7 0.4-0.2q0.2-0.1 0.5-0.1zm14.7-4.3q0.3 0.1 0.6 0.3c0.8 0.7 1.9 1.1 3 1.2q0.3 0.1 0.6 0.3 0.3-0.2 0.6-0.3c1.1-0.1 2.1-0.5 3-1.2q0.3-0.2 0.6-0.3 0.1-0.3 0.3-0.6c0.7-0.8 1.1-1.9 1.2-3q0-0.3 0.2-0.6-0.2-0.2-0.2-0.6c-0.1-1.1-0.5-2.1-1.2-3q-0.3-0.3-0.3-0.7-0.4 0-0.6-0.2c-0.9-0.7-1.9-1.1-3-1.2q-0.3 0-0.6-0.2-0.3 0.2-0.6 0.2c-1.1 0.1-2.2 0.5-3 1.2q-0.3 0.3-0.6 0.3-0.1 0.3-0.3 0.6c-0.7 0.9-1.1 1.9-1.2 3q-0.1 0.4-0.3 0.6 0.2 0.3 0.3 0.6c0.1 1.1 0.5 2.2 1.2 3q0.2 0.3 0.3 0.6zm23.6-8.7q-0.1-0.4-0.2-0.8c-0.2-0.6 0.2-1.3 0.8-1.6l0.4-0.1-0.7-1.7-0.3 0.1q-0.3 0.1-0.5 0.1c-0.5 0-1-0.2-1.2-0.7q-0.4-0.7-0.8-1.3l-4.5 4.5q0.3 0.7 0.6 1.5zm-32.5 0q0.3-0.8 0.7-1.5l-4.6-4.5q-0.2 0.3-0.4 0.7c-0.2 0.4-0.7 0.6-1.2 0.6q-0.2 0-0.5-0.1l-0.3-0.1-0.8 1.6 0.4 0.2c0.6 0.3 0.9 1 0.7 1.6q-0.2 0.8-0.4 1.5zm17.6-8.5q0.7 0.3 1.5 0.6l4.5-4.5q-0.3-0.2-0.7-0.4c-0.6-0.4-0.8-1.1-0.5-1.7l0.1-0.4-1.7-0.7-0.1 0.3c-0.2 0.5-0.7 0.9-1.2 0.9q-0.2 0-0.4-0.1-0.8-0.2-1.5-0.4zm-10.5 0.6q0.7-0.4 1.4-0.6v-6.4q-0.4 0.1-0.7 0.2-0.2 0-0.4 0c-0.5 0-1-0.3-1.2-0.9l-0.2-0.3-1.7 0.7 0.2 0.3c0.2 0.7-0.1 1.4-0.7 1.7q-0.6 0.4-1.3 0.8z"/><path fill-rule="evenodd" class="e" d="m1590.5 829.7v0.6c5.7 0.9 11 3.1 15.7 6.5l0.4-0.4c0.5-0.5 1.2-0.8 1.9-0.8 0.7 0 1.4 0.3 1.9 0.8l5.3 5.3c0.5 0.5 0.8 1.2 0.8 1.9 0 0.7-0.3 1.4-0.8 1.9l-0.3 0.4c3.3 4.7 5.5 10.1 6.5 15.7h0.5c1.5 0 2.7 1.2 2.7 2.7v7.6c0 1.4-1.2 2.7-2.7 2.7h-0.5c-1 5.6-3.2 11-6.5 15.7l0.3 0.3c0.5 0.5 0.8 1.2 0.8 2 0 0.7-0.3 1.3-0.8 1.9l-5.3 5.3c-0.5 0.5-1.2 0.8-1.9 0.8-0.7 0-1.4-0.3-1.9-0.8l-0.4-0.4c-4.7 3.3-10 5.6-15.7 6.5v0.6c0 1.4-1.2 2.7-2.7 2.7h-7.5c-1.5 0-2.7-1.3-2.7-2.7v-0.6c-5.7-0.9-11-3.2-15.7-6.5l-0.4 0.4c-0.5 0.5-1.2 0.8-1.9 0.8-0.7 0-1.4-0.3-1.9-0.8l-5.4-5.3c-0.5-0.6-0.8-1.2-0.8-2 0.1-0.7 0.3-1.4 0.8-1.9l0.4-0.3c-3.3-4.7-5.5-10.1-6.5-15.7h-0.5c-1.5 0-2.7-1.3-2.7-2.7v-7.6c0-1.5 1.2-2.7 2.7-2.7h0.5c1-5.6 3.2-11 6.5-15.7l-0.4-0.4c-1-1-1-2.7 0-3.8l5.4-5.3c0.5-0.5 1.2-0.8 1.9-0.8 0.7 0 1.4 0.3 1.9 0.8l0.4 0.4c4.7-3.4 10-5.6 15.7-6.5v-0.6c0-1.5 1.2-2.7 2.7-2.7h7.5c1.5 0 2.7 1.2 2.7 2.7zm-10.2 0v2.9c-7.1 0.8-13.5 3.5-18.7 7.7l-2-2-5.4 5.3 2.1 2.1c-4.2 5.2-7 11.6-7.7 18.6h-2.9v7.6h2.9c0.7 7 3.5 13.4 7.7 18.6l-2.1 2.1 5.4 5.3 2-2.1c5.2 4.2 11.6 7 18.7 7.8v2.9h7.5v-2.9c7-0.8 13.4-3.6 18.7-7.8l2 2.1 5.3-5.3-2-2.1c4.2-5.2 7-11.6 7.7-18.6h2.9v-7.6h-2.9c-0.7-7-3.5-13.4-7.7-18.6l2-2.1-5.3-5.3-2 2c-5.3-4.2-11.7-6.9-18.7-7.7v-2.9zm10.9 16.5l4.1 1.8-0.7 1.6q1.1 0.6 2.1 1.3l-6.4 6.4q-1.4-0.8-3-1.2v-9.1q1.6 0.3 3.2 0.8zm3.6 15.6l6.4-6.4q1 1.4 1.8 2.8l1.6-0.6 1.7 4.2-1.7 0.6q0.4 1.2 0.6 2.5h-9.1q-0.4-1.6-1.3-3.1zm-27.9-6.4l6.4 6.4q-0.8 1.5-1.2 3.1h-9.1q0.3-1.6 0.8-3.2l-1.6-0.7 1.8-4.1 1.6 0.7q0.6-1.2 1.3-2.2zm16.4 5.6v-0.6h1.5v0.6c1.5 0.2 2.7 0.7 3.8 1.6l0.4-0.5 1 1.1-0.4 0.4c0.9 1 1.4 2.3 1.6 3.7h0.5v1.5h-0.5c-0.2 1.4-0.7 2.7-1.6 3.7l0.4 0.5-1 1-0.4-0.4c-1.1 0.8-2.3 1.4-3.8 1.5v0.6h-1.5v-0.6c-1.4-0.1-2.6-0.7-3.7-1.5l-0.4 0.4-1-1 0.4-0.5c-0.9-1-1.4-2.3-1.6-3.7h-0.6v-1.5h0.6c0.2-1.4 0.7-2.7 1.6-3.7l-0.4-0.4 1-1.1 0.4 0.5c1.1-0.9 2.3-1.4 3.7-1.6zm11.5 13.3q0.9-1.4 1.3-3h9.1q-0.3 1.6-0.8 3.2l1.6 0.7-1.8 4.1-1.6-0.7q-0.6 1.1-1.4 2.1zm-32.9 0.1l1.6-0.7q-0.3-1.2-0.5-2.4h9.1q0.4 1.6 1.2 3l-6.4 6.4q-0.9-1.3-1.7-2.8l-1.6 0.7zm25.3 5.7q1.7-0.4 3.1-1.3l6.4 6.4q-1.3 1-2.8 1.8l0.6 1.6-4.2 1.6-0.6-1.6q-1.2 0.4-2.5 0.5zm-14.4 8.1l0.7-1.5q-1.1-0.7-2.1-1.4l6.4-6.4q1.4 0.8 3.1 1.2v9.1q-1.7-0.3-3.3-0.8l-0.6 1.6zm-1.5-37.2q1.4-1 2.8-1.8l-0.6-1.6 4.2-1.6 0.6 1.6q1.2-0.4 2.5-0.6v9.1q-1.6 0.4-3.1 1.3zm6.8 2.9v-3.6c-0.5-0.1-0.9-0.3-1.3-0.5-0.2 0.6-0.6 1.3-1.2 1.7zm11.8-3.5v3.5l2.6-2.6q-0.5-0.6-0.6-1.3c-0.5 0.3-1 0.4-1.5 0.4q-0.3 0-0.5 0zm-23.6 11.8h3.5l-2.6-2.6q-0.5 0.4-1.3 0.6c0.4 0.5 0.6 1.3 0.4 2zm35.6 0q0-0.8 0.4-1.4c-0.6-0.1-1.2-0.5-1.6-1.1l-2.5 2.5zm-21.3 3.1c-0.5 0.6-0.8 1.4-0.9 2.3q-0.1 0.2-0.1 0.4 0 0.3 0.1 0.5c0.1 0.9 0.4 1.6 0.9 2.3q0.2 0.2 0.3 0.4 0.2 0.1 0.4 0.3c0.6 0.5 1.4 0.8 2.3 0.9q0.2 0.1 0.4 0.1 0.3 0 0.5-0.1c0.9-0.1 1.7-0.4 2.3-0.9q0.2-0.2 0.4-0.3 0.1-0.2 0.3-0.4c0.5-0.7 0.8-1.4 0.9-2.3q0.1-0.2 0.1-0.5 0-0.2-0.1-0.4c-0.1-0.9-0.4-1.7-0.9-2.3q-0.2-0.2-0.3-0.4-0.2-0.1-0.4-0.3c-0.6-0.5-1.4-0.9-2.3-0.9q-0.2-0.1-0.5-0.1-0.2 0-0.4 0.1c-0.9 0-1.7 0.4-2.3 0.9q-0.2 0.2-0.4 0.3-0.1 0.2-0.3 0.4zm20.2 11.2c0.4-0.3 0.9-0.5 1.3-0.6-0.4-0.6-0.5-1.3-0.4-2h-3.5zm-35.1-1.2c0.7 0.1 1.3 0.5 1.7 1.1l2.5-2.5h-3.7q-0.1 0.8-0.5 1.4zm25.6 11.1c0.1-0.7 0.5-1.3 1.1-1.7l-2.5-2.5v3.7q0.8 0.1 1.4 0.5zm-15.1-0.3c0.4-0.3 0.9-0.4 1.5-0.4q0.2 0 0.5 0v-3.5l-2.6 2.6q0.5 0.6 0.6 1.3z"/><path class="p" d="m1202.7 1206.3c-7.7 0-13.9-6.2-13.9-13.8v-101.2c0-7.6 6.2-13.8 13.9-13.8h101.2c7.6 0 13.8 6.2 13.8 13.8v101.2c0 7.6-6.2 13.8-13.8 13.8z"/><path fill-rule="evenodd" class="e" d="m1319.1 1091.3v101.2c0 8.4-6.9 15.2-15.2 15.2h-101.2c-8.4 0-15.2-6.8-15.2-15.2v-101.2c0-8.4 6.8-15.2 15.2-15.2h101.2c8.3 0 15.2 6.8 15.2 15.2zm-116.4-12.5c-6.9 0-12.5 5.6-12.5 12.5v101.2c0 6.9 5.6 12.5 12.5 12.5h101.2c6.9 0 12.5-5.6 12.5-12.5v-101.2c0-6.9-5.6-12.5-12.5-12.5z"/><path fill-rule="evenodd" class="b" d="m1221.3 1179.1c-0.7 0-1.4-0.6-1.4-1.3v-40.6c-5.7-2.9-9.4-8.8-9.4-15.3 0-9.5 7.7-17.3 17.2-17.3 7.1 0 13.3 4.4 15.9 10.6 2.6-6.2 8.7-10.6 15.9-10.6 9.5 0 17.2 7.8 17.2 17.3 0 6.8-4.1 13-10.4 15.7v8.7l28-8.2q0.2-0.1 0.4-0.1 0.5 0 0.8 0.3c0.4 0.2 0.6 0.6 0.6 1v33.3c0 0.4-0.2 0.8-0.6 1q-0.3 0.3-0.8 0.3-0.2 0-0.4 0l-28-8.3v12.2c0 0.7-0.6 1.3-1.3 1.3zm24.8-46.3q-1.6-2-2.5-4.2-1 2.2-2.5 4.2zm13.3-17.5c-3.6 0-6.5 3-6.5 6.6 0 3.6 2.9 6.5 6.5 6.5 3.6 0 6.5-2.9 6.5-6.5 0-3.6-2.9-6.6-6.5-6.6zm-31.8 0c-3.5 0-6.5 3-6.5 6.6 0 3.6 3 6.5 6.5 6.5 3.6 0 6.6-2.9 6.6-6.5 0-3.6-3-6.6-6.6-6.6z"/><path fill-rule="evenodd" class="e" d="m1278 1121.9c0 7-4.1 13.5-10.3 16.6v6l26.3-7.7q0.3-0.1 0.7-0.1c0.6 0 1.2 0.1 1.6 0.5 0.7 0.5 1.1 1.3 1.1 2.1v33.3c0 0.8-0.4 1.6-1.1 2.1-0.4 0.4-1 0.6-1.6 0.6q-0.4 0-0.7-0.2l-26.3-7.7v10.4c0 1.5-1.2 2.7-2.7 2.7h-43.7c-1.5 0-2.7-1.2-2.7-2.7v-39.7c-5.8-3.3-9.5-9.5-9.5-16.2 0-10.3 8.4-18.6 18.6-18.6 6.7 0 12.6 3.6 15.9 8.9 3.2-5.3 9.1-8.9 15.9-8.9 10.2 0 18.5 8.3 18.5 18.6zm-34.4 0c0 4.9 2.2 9.3 5.7 12.2h-11.5c3.5-2.9 5.8-7.3 5.8-12.2 0-8.8-7.1-15.9-15.9-15.9-8.8 0-15.9 7.1-15.9 15.9 0 6.5 3.9 12 9.5 14.5v41.4h43.7v-14l29.7 8.8v-33.3l-29.7 8.8v-11.4c6-2.2 10.3-8 10.3-14.8 0-8.8-7.1-15.9-15.8-15.9-8.8 0-15.9 7.1-15.9 15.9zm-23.8 0c0-4.4 3.6-7.9 7.9-7.9 4.4 0 7.9 3.5 7.9 7.9 0 4.3-3.5 7.8-7.9 7.8-4.3 0-7.9-3.5-7.9-7.8zm31.8 0c0-4.4 3.5-7.9 7.9-7.9 4.3 0 7.8 3.5 7.8 7.9 0 4.3-3.5 7.8-7.8 7.8-4.4 0-7.9-3.5-7.9-7.8zm13 0c0-2.9-2.3-5.2-5.1-5.2-2.9 0-5.2 2.3-5.2 5.2 0 2.8 2.3 5.1 5.2 5.1 2.8 0 5.1-2.3 5.1-5.1zm-31.7 0c0-2.9-2.3-5.2-5.2-5.2-2.8 0-5.2 2.3-5.2 5.2 0 2.8 2.4 5.1 5.2 5.1 2.9 0 5.2-2.3 5.2-5.1z"/><path class="q" d="m1349.4 1206.3c-7.7 0-13.9-6.2-13.9-13.8v-101.2c0-7.6 6.2-13.8 13.9-13.8h101.2c7.6 0 13.8 6.2 13.8 13.8v101.2c0 7.6-6.2 13.8-13.8 13.8z"/><path fill-rule="evenodd" class="e" d="m1465.8 1091.3v101.2c0 8.4-6.9 15.2-15.2 15.2h-101.2c-8.4 0-15.2-6.8-15.2-15.2v-101.2c0-8.4 6.8-15.2 15.2-15.2h101.2c8.3 0 15.2 6.8 15.2 15.2zm-116.4-12.5c-6.9 0-12.5 5.6-12.5 12.5v101.2c0 6.9 5.6 12.5 12.5 12.5h101.2c6.9 0 12.5-5.6 12.5-12.5v-101.2c0-6.9-5.6-12.5-12.5-12.5z"/><path fill-rule="evenodd" class="b" d="m1400 1187.7c-0.5 0-1-0.3-1.2-0.7-1.1-1.9-27-47.7-27-62.7 0-15.5 12.6-28.2 28.2-28.2 15.5 0 28.1 12.7 28.1 28.2 0 15-25.9 60.8-27 62.7-0.2 0.4-0.7 0.7-1.1 0.7zm0-74.6c-6.8 0-12.3 5.5-12.3 12.3 0 6.8 5.5 12.2 12.3 12.2 6.7 0 12.2-5.4 12.2-12.2 0-6.8-5.5-12.3-12.2-12.3z"/><path fill-rule="evenodd" class="e" d="m1429.5 1124.3c0 15.3-26.1 61.4-27.2 63.4-0.5 0.8-1.4 1.3-2.3 1.3-1 0-1.9-0.5-2.4-1.3-1.1-2-27.1-48.1-27.1-63.4 0-16.3 13.2-29.5 29.5-29.5 16.2 0 29.5 13.2 29.5 29.5zm-56.3 0c0 14.8 26.8 62 26.8 62 0 0 26.8-47.2 26.8-62 0-14.8-12-26.8-26.8-26.8-14.9 0-26.8 12-26.8 26.8zm13.2 1.1c0-7.5 6-13.6 13.6-13.6 7.5 0 13.6 6.1 13.6 13.6 0 7.5-6.1 13.6-13.6 13.6-7.6 0-13.6-6.1-13.6-13.6zm24.5 0c0-6-4.9-10.9-10.9-10.9-6.1 0-10.9 4.9-10.9 10.9 0 6 4.8 10.9 10.9 10.9 6 0 10.9-4.9 10.9-10.9z"/><path class="r" d="m1994.4 1401.2c-26.2 0-47.6-21.4-47.6-47.6 0-26.2 21.4-47.6 47.6-47.6 26.2 0 47.6 21.4 47.6 47.6 0 26.2-21.4 47.6-47.6 47.6z"/><path fill-rule="evenodd" class="e" d="m2044.1 1353.6c0 27.4-22.3 49.7-49.7 49.7-27.4 0-49.7-22.3-49.7-49.7 0-27.4 22.3-49.7 49.7-49.7 27.4 0 49.7 22.3 49.7 49.7zm-95.1 0c0 25.1 20.3 45.4 45.4 45.4 25.1 0 45.4-20.3 45.4-45.4 0-25.1-20.3-45.4-45.4-45.4-25.1 0-45.4 20.3-45.4 45.4z"/><path class="j" d="m1994.4 1321.6c-40.5 0-73.3-32.9-73.3-73.4 0-25.5-7.5-36-16.2-48.1-4.5-6.4-9.2-12.9-13.4-22.2-8.6-16.5-13-34.4-13-53.2 0-63.9 52-115.9 115.9-115.9 63.9 0 115.9 52 115.9 115.9 0 18.3-4.2 35.9-12.5 52.2q0 0.1 0 0.2-5.1 9.8-11.5 18.1c-9.9 14.7-18.5 27.3-18.5 53 0 40.5-32.9 73.4-73.4 73.4z"/><path fill-rule="evenodd" class="e" d="m2112.4 1124.7c0 18.6-4.2 36.4-12.5 52.9q-0.2 0.4-0.4 0.8c-3.3 6.4-7.2 12.5-11.4 18-10.2 15-18.2 26.8-18.2 51.8 0 41.7-33.9 75.6-75.5 75.6-41.6 0-75.5-33.9-75.5-75.6 0-24.8-7-34.5-15.8-46.9-4.4-6.1-9.3-13.1-13.5-22.3-8.8-16.9-13.2-35.2-13.2-54.3 0-65.1 52.9-118.1 118-118.1 65.1 0 118 53 118 118.1zm-231.7 0c0 18.9 4.6 36.7 12.8 52.3 12.2 27.1 29.7 31.9 29.7 71.2 0 39.4 31.9 71.2 71.2 71.2 39.3 0 71.2-31.8 71.2-71.2 0-26.4 8.8-39.3 19-54.3 4.2-5.5 7.9-11.4 11.1-17.6q0.1-0.1 0.1-0.2c7.9-15.5 12.3-32.9 12.3-51.4 0-62.8-50.9-113.7-113.7-113.7-62.8 0-113.7 50.9-113.7 113.7zm215.1 51.4h0.1"/><path class="k" d="m2023.9 1299.9c-39.3 0-71.2-31.9-71.2-71.2 0-39.3-17.5-44.1-29.7-71.2-8.2-15.7-12.8-33.5-12.8-52.4 0-33.2 14.2-63 36.9-83.8-39.2 17.9-66.4 57.4-66.4 103.4 0 18.9 4.6 36.7 12.8 52.3 12.2 27.1 29.7 31.9 29.7 71.2 0 39.4 31.9 71.2 71.2 71.2 21 0 39.8-9 52.8-23.4-7.3 2.5-15.1 3.9-23.3 3.9z"/><path class="d" d="m1926.5 1355c-1.2 0-2.1-1-2.1-2.2v-78.8c0-1.2 0.9-2.2 2.1-2.2h135.8c1.2 0 2.1 1 2.1 2.2v78.8c0 1.2-0.9 2.2-2.1 2.2z"/><path fill-rule="evenodd" class="e" d="m2066.6 1274v78.8c0 2.4-1.9 4.3-4.3 4.3h-135.8c-2.4 0-4.3-1.9-4.3-4.3v-78.8c0-2.4 1.9-4.3 4.3-4.3h135.8c2.4 0 4.3 1.9 4.3 4.3zm-140.1 0v78.8h135.8v-78.8z"/><path class="r" d="m1926.5 1329.1c-1.2 0-2.1-1-2.1-2.2v-27c0-1.2 0.9-2.2 2.1-2.2h135.8c1.2 0 2.1 1 2.1 2.2v27c0 1.2-0.9 2.2-2.1 2.2z"/><path fill-rule="evenodd" class="e" d="m2066.6 1299.9v27c0 2.4-1.9 4.3-4.3 4.3h-135.8c-2.4 0-4.3-1.9-4.3-4.3v-27c0-2.4 1.9-4.3 4.3-4.3h135.8c2.4 0 4.3 1.9 4.3 4.3zm-140.1 0v27h135.8v-27z"/><path class="p" d="m320.2 1589c-1 0-1.9-0.9-1.9-1.9v-151.5c0-1.1 0.9-1.9 1.9-1.9h151.6c1 0 1.8 0.8 1.8 1.9v151.5c0 1-0.8 1.9-1.8 1.9z"/><path fill-rule="evenodd" class="e" d="m475.5 1435.6v151.5c0 2.1-1.7 3.7-3.7 3.7h-151.6c-2 0-3.7-1.6-3.7-3.7v-151.5c0-2.1 1.7-3.7 3.7-3.7h151.6c2 0 3.7 1.6 3.7 3.7zm-155.3 0v151.5h151.6v-151.5z"/><path class="s" d="m471.8 1589c-1 0-1.9-0.9-1.9-1.9v-151.5c0-1.1 0.9-1.9 1.9-1.9h56.4c1 0 1.8 0.8 1.8 1.9v151.5c0 1-0.8 1.9-1.8 1.9z"/><path fill-rule="evenodd" class="e" d="m531.9 1435.6v151.5c0 2.1-1.7 3.7-3.7 3.7h-56.4c-2.1 0-3.7-1.6-3.7-3.7v-151.5c0-2.1 1.6-3.7 3.7-3.7h56.4c2 0 3.7 1.6 3.7 3.7zm-60.1 0v151.5h56.4v-151.5z"/><path class="b" d="m440.7 1528.4h-87.8v-87.7h87.8z"/><path class="b" d="m433.7 1576.6h-21.4v-25.1h21.4z"/><path class="b" d="m462.1 1576.6h-21.4v-25.1h21.4z"/><path class="p" d="m526 1589c-1 0-1.8-0.9-1.8-1.9v-151.5c0-1.1 0.8-1.9 1.8-1.9h151.6c1 0 1.8 0.8 1.8 1.9v151.5c0 1-0.8 1.9-1.8 1.9z"/><path fill-rule="evenodd" class="e" d="m681.3 1435.6v151.5c0 2.1-1.7 3.7-3.7 3.7h-151.6c-2 0-3.7-1.6-3.7-3.7v-151.5c0-2.1 1.7-3.7 3.7-3.7h151.6c2 0 3.7 1.6 3.7 3.7zm-155.3 0v151.5h151.6v-151.5z"/><path class="s" d="m677.6 1589c-1 0-1.9-0.9-1.9-1.9v-151.5c0-1.1 0.9-1.9 1.9-1.9h56.4c1 0 1.8 0.8 1.8 1.9v151.5c0 1-0.8 1.9-1.8 1.9z"/><path fill-rule="evenodd" class="e" d="m737.7 1435.6v151.5c0 2.1-1.7 3.7-3.7 3.7h-56.4c-2.1 0-3.7-1.6-3.7-3.7v-151.5c0-2.1 1.6-3.7 3.7-3.7h56.4c2 0 3.7 1.6 3.7 3.7zm-60.1 0v151.5h56.4v-151.5z"/><path class="b" d="m646.5 1528.4h-87.8v-87.7h87.8z"/><path class="b" d="m639.5 1576.6h-21.4v-25.1h21.4z"/><path class="b" d="m667.9 1576.6h-21.4v-25.1h21.4z"/><path class="p" d="m488.1 1432c-1 0-1.9-0.8-1.9-1.9v-151.5c0-1 0.9-1.9 1.9-1.9h151.6c1 0 1.8 0.9 1.8 1.9v151.5c0 1.1-0.8 1.9-1.8 1.9z"/><path fill-rule="evenodd" class="e" d="m643.4 1278.6v151.5c0 2.1-1.7 3.7-3.7 3.7h-151.6c-2.1 0-3.7-1.6-3.7-3.7v-151.5c0-2.1 1.6-3.7 3.7-3.7h151.6c2 0 3.7 1.6 3.7 3.7zm-155.3 0v151.5h151.6v-151.5z"/><path class="s" d="m639.7 1432c-1.1 0-1.9-0.8-1.9-1.9v-151.5c0-1 0.8-1.9 1.9-1.9h56.4c1 0 1.8 0.9 1.8 1.9v151.5c0 1.1-0.8 1.9-1.8 1.9z"/><path fill-rule="evenodd" class="e" d="m699.7 1278.6v151.5c0 2.1-1.6 3.7-3.6 3.7h-56.4c-2.1 0-3.7-1.6-3.7-3.7v-151.5c0-2.1 1.6-3.7 3.7-3.7h56.4c2 0 3.6 1.6 3.6 3.7zm-60 0v151.5h56.4v-151.5z"/><path class="b" d="m608.5 1371.4h-87.7v-87.7h87.7z"/><path class="b" d="m601.6 1419.6h-21.4v-25.1h21.4z"/><path class="b" d="m630 1419.6h-21.5v-25.1h21.5z"/><path fill-rule="evenodd" class="j" d="m1804.7 1606.6c-0.8 0-1.4-0.6-1.4-1.3v-116c0-0.8 0.6-1.4 1.4-1.4h82c11.8 0 21.4 9.6 21.4 21.4v76c0 11.8-9.6 21.3-21.4 21.3zm71.7-16.3c7.7 0 13.9-6.3 13.9-14v-58.1c0-7.7-6.2-13.9-13.9-13.9h-61.4v86z"/><path fill-rule="evenodd" class="e" d="m1909.4 1509.3v76c0 12.5-10.2 22.7-22.7 22.7h-82c-1.5 0-2.7-1.2-2.7-2.7v-116c0-1.5 1.2-2.7 2.7-2.7h82c12.5 0 22.7 10.2 22.7 22.7zm-104.7-20v116h82c11 0 20-9 20-20v-76c0-11.1-9-20-20-20zm8.9 13.6h62.8c8.4 0 15.3 6.9 15.3 15.3v58.1c0 8.5-6.9 15.3-15.3 15.3h-62.8zm2.7 86h60.1c6.9 0 12.6-5.6 12.6-12.6v-58.1c0-6.9-5.7-12.6-12.6-12.6h-60.1z"/><path class="j" d="m1768 1650.6c-53.5 0-83-22.1-83-62.4v-109.4c0-0.7 0.6-1.3 1.4-1.3h163.3c0.7 0 1.3 0.6 1.3 1.3v109.4c0 40.3-29.5 62.4-83 62.4z"/><path fill-rule="evenodd" class="e" d="m1852.4 1478.8v109.4c0 41.1-30 63.8-84.4 63.8-54.4 0-84.3-22.7-84.3-63.8v-109.4c0-1.5 1.2-2.7 2.7-2.7h163.3c1.4 0 2.7 1.2 2.7 2.7zm-166 0v109.4c0 45.1 36.5 61.1 81.6 61.1 45.1 0 81.7-16 81.7-61.1v-109.4z"/><path class="k" d="m1785.3 1639.4c-42.4 0-76.9-15.1-76.9-57.6v-81.7h-22v88.1c0 45.1 36.5 61.1 81.6 61.1 26.2 0 49.5-5.4 64.4-18.8-13 6.2-29.3 8.9-47.1 8.9z"/><path fill-rule="evenodd" class="j" d="m1092 898.5c-0.7 0-1.3-0.6-1.3-1.3v-5.1c-14.4-1.8-27.8-7.4-39.2-16.3l-3.6 3.6c-0.3 0.3-0.6 0.4-1 0.4-0.3 0-0.7-0.1-0.9-0.4l-11.7-11.6c-0.2-0.2-0.3-0.6-0.3-0.9 0-0.4 0.1-0.7 0.3-1l3.7-3.6c-9-11.4-14.5-24.9-16.3-39.2h-5.1c-0.7 0-1.3-0.6-1.3-1.3v-16.4c0-0.8 0.6-1.4 1.3-1.4h5.1c1.8-14.3 7.3-27.8 16.3-39.2l-3.6-3.6c-0.3-0.2-0.4-0.6-0.4-0.9 0-0.4 0.1-0.7 0.3-1l11.7-11.6c0.2-0.3 0.6-0.4 0.9-0.4 0.4 0 0.7 0.1 1 0.4l3.6 3.6c11.4-8.9 24.8-14.5 39.2-16.2v-5.1c0-0.8 0.6-1.4 1.3-1.4h16.4c0.8 0 1.4 0.6 1.4 1.4v5.1c14.3 1.7 27.8 7.3 39.2 16.2l3.6-3.6c0.2-0.3 0.6-0.4 0.9-0.4 0.4 0 0.7 0.1 1 0.4l11.6 11.6c0.2 0.3 0.4 0.6 0.4 1 0 0.3-0.2 0.7-0.4 0.9l-3.6 3.6c8.9 11.4 14.5 24.9 16.2 39.2h5.1c0.8 0 1.4 0.6 1.4 1.4v16.4c0 0.7-0.6 1.3-1.4 1.3h-5.1c-1.7 14.3-7.3 27.8-16.2 39.2l3.6 3.6c0.5 0.6 0.5 1.4 0 1.9l-11.6 11.6c-0.3 0.3-0.6 0.4-1 0.4-0.3 0-0.7-0.1-0.9-0.4l-3.7-3.6c-11.3 9-24.8 14.5-39.1 16.3v5.1c0 0.7-0.6 1.3-1.4 1.3zm20.6-41.5c0.5 0 1 0.3 1.2 0.8l0.9 2.3 6.6-2.6-0.8-2.3c-0.3-0.6 0-1.3 0.6-1.7q2.4-1.2 4.6-2.7l-12.1-12.1q-2.4 1.3-5.1 2.1v17.1q1.9-0.4 3.7-0.9 0.2 0 0.4 0zm-28.5 2.5l1-2.2c0.2-0.5 0.7-0.8 1.2-0.8q0.2 0 0.4 0.1 2.6 0.8 5.3 1.3v-17.1q-2.7-0.8-5.2-2.1l-12 12.1q1.5 1 3.2 2c0.6 0.3 0.8 1.1 0.5 1.7l-0.9 2.2zm53.3-20.5q1.1-1.5 2-3.2c0.3-0.4 0.7-0.7 1.2-0.7q0.3 0 0.5 0.1l2.2 1 2.9-6.5-2.2-1c-0.7-0.3-1-1-0.8-1.6q0.8-2.6 1.3-5.3h-17.1q-0.8 2.7-2.1 5.1zm-78.3-5.3c0.5 0 0.9 0.2 1.2 0.7q1.2 2.4 2.7 4.6l12.1-12q-1.3-2.5-2.1-5.2h-17.1q0.4 1.9 0.9 3.7c0.1 0.7-0.2 1.4-0.8 1.6l-2.3 0.9 2.6 6.7 2.3-0.9q0.2-0.1 0.5-0.1zm41.4-4.8c0.1-0.7 0.6-1.2 1.2-1.3 2.7-0.3 5.3-1.3 7.4-3.1q0.4-0.3 0.9-0.3 0.4 0 0.8 0.4l0.5-0.4c-0.5-0.5-0.5-1.3-0.1-1.8 1.7-2.1 2.8-4.6 3.1-7.3 0-0.7 0.6-1.2 1.2-1.3v-0.5c-0.6-0.1-1.2-0.6-1.2-1.2-0.3-2.8-1.4-5.3-3.1-7.4-0.4-0.5-0.4-1.3 0-1.8l-0.4-0.4c-0.2 0.3-0.5 0.4-0.8 0.4q-0.5 0-0.9-0.3c-2.1-1.8-4.7-2.8-7.4-3.1-0.6-0.1-1.1-0.6-1.2-1.2h-0.6c0 0.6-0.5 1.1-1.2 1.2-2.7 0.3-5.2 1.3-7.4 3.1q-0.3 0.3-0.8 0.3-0.5 0-0.9-0.4l-0.4 0.4c0.4 0.5 0.4 1.3 0 1.8-1.7 2.1-2.7 4.6-3 7.4-0.1 0.6-0.6 1.1-1.3 1.2v0.5c0.7 0.1 1.2 0.6 1.3 1.3 0.3 2.7 1.3 5.2 3 7.3 0.4 0.5 0.4 1.3 0 1.8l0.4 0.4q0.4-0.4 0.9-0.4 0.5 0 0.8 0.3c2.2 1.8 4.7 2.8 7.4 3.1 0.7 0.1 1.2 0.6 1.2 1.3zm44-23.6q-0.3-1.9-0.8-3.7c-0.2-0.7 0.2-1.4 0.8-1.6l2.3-0.9-2.6-6.6-2.3 0.9q-0.2 0-0.5 0c-0.5 0-0.9-0.2-1.2-0.7q-1.2-2.4-2.8-4.6l-12.1 12.1q1.4 2.4 2.2 5.1zm-71.6 0q0.8-2.7 2.2-5.1l-12.1-12.1q-1.1 1.5-2 3.2c-0.3 0.4-0.7 0.7-1.2 0.7q-0.3 0-0.5-0.1l-2.3-1-2.8 6.5 2.2 1c0.6 0.3 1 1 0.8 1.6q-0.9 2.6-1.4 5.3zm35.6-19q2.6 0.8 5.1 2.2l12.1-12.1q-1.6-1.1-3.3-2c-0.6-0.4-0.8-1.1-0.5-1.7l0.9-2.3-6.5-2.8-1 2.2c-0.2 0.5-0.7 0.8-1.2 0.8q-0.2 0-0.4 0-2.6-0.9-5.2-1.4zm-21.7 2.2q2.4-1.3 5.1-2.2v-17q-1.9 0.3-3.7 0.8-0.2 0.1-0.4 0.1c-0.5 0-1-0.4-1.2-0.9l-0.9-2.3-6.6 2.6 0.9 2.3c0.2 0.6-0.1 1.4-0.7 1.7q-2.3 1.2-4.6 2.8z"/><path fill-rule="evenodd" class="e" d="m1111.1 730v3.9c13.7 1.9 26.7 7.2 37.7 15.6l2.8-2.7c0.5-0.6 1.2-0.8 1.9-0.8 0.7 0 1.4 0.2 1.9 0.8l11.6 11.6c0.5 0.5 0.8 1.2 0.8 1.9 0 0.7-0.3 1.4-0.8 1.9l-2.7 2.8c8.4 11 13.7 23.9 15.6 37.7h3.9c1.5 0 2.7 1.2 2.7 2.7v16.4c0 1.5-1.2 2.7-2.7 2.7h-3.9c-1.9 13.7-7.2 26.7-15.6 37.7l2.7 2.8c1.1 1 1.1 2.7 0 3.8l-11.6 11.6c-0.5 0.5-1.2 0.8-1.9 0.8-0.7 0-1.4-0.3-1.9-0.8l-2.8-2.8c-11 8.4-24 13.8-37.7 15.6v4c0 1.5-1.2 2.7-2.7 2.7h-16.4c-1.5 0-2.7-1.2-2.7-2.7v-4c-13.7-1.8-26.7-7.2-37.7-15.6l-2.8 2.8c-0.5 0.5-1.2 0.8-1.9 0.8-0.7 0-1.4-0.3-1.9-0.8l-11.6-11.6c-0.5-0.5-0.8-1.2-0.8-1.9 0-0.7 0.3-1.4 0.8-1.9l2.8-2.8c-8.4-11-13.8-24-15.7-37.7h-3.9c-1.5 0-2.7-1.2-2.7-2.7v-16.4c0-1.5 1.2-2.7 2.7-2.7h3.9c1.9-13.7 7.3-26.7 15.7-37.7l-2.8-2.8c-0.5-0.5-0.8-1.2-0.8-1.9 0-0.7 0.3-1.4 0.8-1.9l11.6-11.6c0.5-0.6 1.2-0.8 1.9-0.8 0.7 0 1.4 0.2 1.9 0.8l2.8 2.7c11-8.4 24-13.7 37.7-15.6v-3.9c0-1.5 1.2-2.7 2.7-2.7h16.4c1.5 0 2.7 1.2 2.7 2.7zm-19.1 0v6.3c-15.3 1.6-29.3 7.6-40.6 16.8l-4.5-4.4-11.6 11.6 4.5 4.4c-9.2 11.4-15.3 25.4-16.9 40.7h-6.3v16.4h6.3c1.6 15.3 7.7 29.3 16.9 40.6l-4.5 4.5 11.6 11.6 4.5-4.5c11.3 9.2 25.3 15.3 40.6 16.9v6.3h16.4v-6.3c15.3-1.6 29.3-7.7 40.7-16.9l4.4 4.5 11.6-11.6-4.4-4.5c9.1-11.3 15.2-25.3 16.8-40.6h6.3v-16.4h-6.3c-1.6-15.3-7.7-29.3-16.8-40.7l4.4-4.4-11.6-11.6-4.4 4.4c-11.4-9.2-25.4-15.2-40.7-16.8v-6.3zm23.7 35.8l9 4-1.5 3.4q2.4 1.4 4.6 3l-13.9 14q-3.2-1.9-6.7-2.8v-19.7q3.5 0.5 7 1.6zm-52.8 20.2l13.9 13.9c-1.2 2.1-2.1 4.3-2.8 6.7h-19.7q0.6-3.5 1.6-7l-3.4-1.5 3.9-9 3.5 1.5q1.3-2.4 3-4.6zm60.8 13.9l13.9-13.9q2.1 2.9 3.8 6.1l3.5-1.4 3.6 9.1-3.5 1.4q0.7 2.7 1.1 5.4h-19.7c-0.6-2.4-1.5-4.6-2.7-6.7zm-25.1-1.8v-1.2h3.3v1.2c3 0.4 5.8 1.6 8.1 3.4l0.8-0.9 2.4 2.3-0.9 0.9c1.8 2.3 3 5.1 3.3 8.1h1.3v3.3h-1.3c-0.3 3-1.5 5.8-3.3 8.1l0.9 0.9-2.4 2.3-0.8-0.9c-2.3 1.8-5.1 3-8.1 3.3v1.3h-3.3v-1.3c-3-0.3-5.8-1.5-8.1-3.3l-0.9 0.9-2.3-2.3 0.9-0.9c-1.8-2.3-3-5.1-3.4-8.1h-1.2v-3.3h1.2c0.4-3 1.6-5.8 3.4-8.1l-0.9-0.9 2.3-2.3 0.9 0.9c2.3-1.8 5.1-3 8.1-3.4zm25.1 29.1c1.2-2.1 2.1-4.4 2.7-6.7h19.7q-0.5 3.5-1.6 7l3.5 1.5-3.9 9-3.5-1.5q-1.4 2.4-3 4.6zm-71.7 0.1l3.5-1.4q-0.7-2.7-1.1-5.4h19.7c0.6 2.4 1.5 4.6 2.7 6.7l-13.9 13.9q-2.1-2.9-3.8-6.1l-3.5 1.4zm55.2 12.5c2.4-0.6 4.6-1.6 6.7-2.8l13.9 14q-2.9 2.1-6.1 3.8l1.4 3.5-9.1 3.6-1.4-3.5q-2.7 0.7-5.4 1.1zm-31.4 17.6l1.5-3.4q-2.4-1.4-4.6-3l13.9-14c2.1 1.2 4.4 2.2 6.7 2.8v19.7q-3.5-0.5-7-1.6l-1.5 3.4zm-3.1-81.1q2.9-2.2 6.1-3.8l-1.4-3.6 9.2-3.6 1.3 3.6q2.7-0.8 5.4-1.2v19.7q-3.5 1-6.7 2.8zm8.6-4.8c0.6 1.3 0 2.7-1.2 3.4q-1.6 0.8-3.2 1.8l10.3 10.2q1.7-0.8 3.5-1.5v-14.4q-1 0.2-2 0.5-0.4 0.1-0.7 0.1c-1.1 0-2.1-0.7-2.5-1.7l-0.4-1-4.1 1.6zm32 0.4q-1.7-0.5-3.5-0.9v14.4q1.8 0.7 3.5 1.5l10.3-10.2q-0.9-0.6-1.8-1.1c-1.2-0.7-1.7-2.1-1.1-3.4l0.4-1-4.1-1.7-0.4 0.9c-0.4 1-1.4 1.7-2.5 1.7q-0.4 0-0.8-0.2zm-54.5 21.3l-1-0.4-1.8 4 1 0.4c1.3 0.6 1.9 2 1.5 3.3q-0.6 1.7-1 3.5h14.5q0.6-1.8 1.5-3.5l-10.3-10.2q-0.5 0.9-1 1.7c-0.5 0.9-1.4 1.4-2.4 1.4q-0.5 0-1-0.2zm69.6 10.8h14.5q-0.3-1-0.5-2c-0.4-1.3 0.3-2.7 1.6-3.2l1-0.4-1.6-4.1-1 0.4q-0.5 0.2-1 0.2c-1 0-1.9-0.5-2.4-1.5q-0.8-1.6-1.8-3.1l-10.2 10.2q0.8 1.7 1.4 3.5zm-38.1 1.6c-1.6 1.9-2.5 4.2-2.8 6.7q-0.1 0.8-0.5 1.3c0.2 0.4 0.4 0.9 0.5 1.4 0.3 2.4 1.2 4.8 2.8 6.7q0.4 0.6 0.5 1.3 0.8 0.1 1.4 0.6c1.9 1.5 4.2 2.5 6.7 2.8 0.5 0 0.9 0.2 1.3 0.5 0.4-0.3 0.9-0.5 1.4-0.5 2.4-0.3 4.7-1.3 6.6-2.8q0.6-0.5 1.4-0.6 0.1-0.7 0.5-1.3c1.6-1.9 2.6-4.3 2.8-6.7 0.1-0.5 0.3-1 0.6-1.4q-0.5-0.5-0.6-1.3c-0.2-2.5-1.2-4.8-2.8-6.7q-0.4-0.6-0.5-1.3-0.8-0.1-1.4-0.6c-1.9-1.5-4.2-2.5-6.6-2.8q-0.8-0.1-1.4-0.5-0.6 0.4-1.3 0.5c-2.5 0.3-4.8 1.3-6.7 2.8q-0.6 0.5-1.4 0.6-0.1 0.7-0.5 1.3zm36.7 21.2l10.2 10.2q0.5-0.9 1-1.7c0.5-0.9 1.4-1.4 2.4-1.4q0.5 0 1.1 0.2l0.9 0.4 1.8-4-1-0.4c-1.3-0.6-1.9-2-1.5-3.3q0.6-1.7 1-3.5h-14.5q-0.6 1.8-1.4 3.5zm-69-1.5c0.4 1.3-0.3 2.7-1.6 3.2l-1 0.4 1.7 4.1 1-0.4q0.4-0.2 0.9-0.2c1 0 2 0.5 2.4 1.5q0.9 1.6 1.8 3.1l10.3-10.2q-0.9-1.7-1.5-3.5h-14.4q0.2 1 0.4 2zm51.8 31q1-0.2 2-0.5 0.4-0.1 0.7-0.1c1.1 0 2.1 0.7 2.5 1.7l0.4 1 4.2-1.6-0.4-1c-0.5-1.3 0-2.7 1.2-3.4q1.6-0.8 3.2-1.8l-10.3-10.2q-1.7 0.8-3.5 1.5zm-31.2-4.7c1.2 0.7 1.7 2.2 1.1 3.4l-0.4 1 4.1 1.8 0.4-1c0.4-1 1.4-1.6 2.5-1.6q0.4 0 0.8 0.1 1.7 0.6 3.5 1v-14.5q-1.8-0.6-3.5-1.4l-10.3 10.2q0.9 0.5 1.8 1z"/><path class="t" d="m1162.3 776.7c0 2.1-27.8-24.4-62.1-24.4-34.3 0-62 26.5-62 24.4 0-2 27.7-34.8 62-34.8 34.3 0 62.1 32.8 62.1 34.8z"/><path fill-rule="evenodd" class="j" d="m1842.6 448.5c-0.6 0-1.1-0.5-1.1-1.2v-4.3c-12.3-1.5-23.9-6.3-33.6-13.9l-3.1 3.1c-0.2 0.2-0.5 0.3-0.8 0.3q-0.5 0-0.8-0.3l-10-10c-0.4-0.5-0.4-1.2 0-1.6l3.1-3.1c-7.6-9.8-12.4-21.3-13.9-33.6h-4.4c-0.6 0-1.1-0.5-1.1-1.2v-14c0-0.7 0.5-1.2 1.1-1.2h4.4c1.5-12.3 6.3-23.8 13.9-33.6l-3.1-3.1c-0.2-0.2-0.3-0.5-0.3-0.8 0-0.3 0.1-0.6 0.3-0.8l10-9.9q0.3-0.4 0.8-0.4 0.4 0 0.8 0.4l3.1 3.1c9.7-7.7 21.3-12.5 33.6-14v-4.3c0-0.7 0.5-1.2 1.1-1.2h14.1c0.6 0 1.2 0.5 1.2 1.2v4.3c12.2 1.5 23.8 6.3 33.5 14l3.1-3.1q0.4-0.4 0.8-0.4 0.5 0 0.9 0.4l9.9 9.9c0.5 0.5 0.5 1.2 0 1.6l-3.1 3.1c7.7 9.8 12.4 21.3 13.9 33.6h4.4c0.6 0 1.1 0.5 1.1 1.2v14c0 0.7-0.5 1.2-1.1 1.2h-4.4c-1.5 12.3-6.2 23.8-13.9 33.6l3.1 3.1c0.5 0.4 0.5 1.1 0 1.6l-9.9 10q-0.4 0.3-0.9 0.3c-0.3 0-0.6-0.1-0.8-0.3l-3.1-3.1c-9.7 7.6-21.3 12.4-33.5 13.9v4.3c0 0.7-0.6 1.2-1.2 1.2zm17.6-35.6c0.5 0 0.9 0.3 1.1 0.7l0.7 2 5.7-2.3-0.7-1.9c-0.3-0.5 0-1.2 0.5-1.4q2.1-1.1 4-2.4l-10.4-10.4q-2.1 1.1-4.4 1.8v14.7q1.6-0.3 3.2-0.8 0.2 0 0.3 0zm-24.4 2.2l0.8-1.9c0.2-0.4 0.7-0.7 1.1-0.7q0.2 0 0.3 0.1 2.2 0.6 4.5 1.1v-14.7q-2.2-0.7-4.3-1.8l-10.4 10.4q1.3 0.9 2.8 1.7c0.5 0.3 0.7 0.9 0.4 1.5l-0.8 1.9zm45.7-17.6q0.9-1.3 1.7-2.7c0.3-0.4 0.6-0.6 1-0.6q0.3 0 0.5 0.1l1.9 0.8 2.4-5.6-1.9-0.8c-0.5-0.3-0.8-0.9-0.6-1.4q0.7-2.2 1.1-4.5h-14.6q-0.7 2.2-1.8 4.4zm-67.2-4.6c0.4 0 0.8 0.2 1 0.6q1.1 2 2.4 4l10.4-10.4q-1.2-2.1-1.8-4.4h-14.7q0.3 1.6 0.7 3.2c0.2 0.5-0.1 1.1-0.7 1.4l-1.9 0.7 2.2 5.7 2-0.8q0.2 0 0.4 0zm35.5-4.2c0.1-0.5 0.5-1 1.1-1 2.3-0.3 4.5-1.2 6.3-2.7q0.3-0.2 0.7-0.2 0.4 0 0.8 0.3l0.3-0.4c-0.3-0.4-0.3-1 0-1.5 1.5-1.8 2.4-4 2.6-6.3 0.1-0.6 0.5-1 1.1-1v-0.5c-0.6-0.1-1-0.5-1.1-1.1-0.2-2.3-1.1-4.5-2.6-6.3-0.3-0.4-0.3-1.1 0-1.5l-0.3-0.3q-0.4 0.3-0.8 0.3-0.4 0-0.7-0.3c-1.8-1.5-4-2.4-6.3-2.6-0.6-0.1-1-0.5-1.1-1.1h-0.5c0 0.6-0.4 1-1 1.1-2.3 0.2-4.5 1.1-6.3 2.6q-0.4 0.3-0.8 0.3-0.4 0-0.7-0.3l-0.4 0.3c0.4 0.4 0.4 1.1 0.1 1.5-1.5 1.8-2.4 4-2.7 6.3 0 0.6-0.5 1-1 1.1v0.5c0.5 0 1 0.4 1 1 0.3 2.3 1.2 4.5 2.7 6.3 0.3 0.5 0.3 1.1-0.1 1.5l0.4 0.4c0.2-0.2 0.5-0.3 0.7-0.3q0.4 0 0.8 0.2c1.8 1.5 4 2.4 6.3 2.7 0.6 0 1 0.5 1 1zm37.8-20.2q-0.3-1.6-0.8-3.1c-0.1-0.6 0.2-1.2 0.7-1.4l1.9-0.8-2.2-5.7-1.9 0.8q-0.2 0.1-0.4 0.1c-0.5 0-0.9-0.3-1.1-0.6q-1-2.1-2.4-4l-10.3 10.3q1.1 2.1 1.8 4.4zm-61.3 0q0.7-2.3 1.8-4.4l-10.3-10.3q-0.9 1.3-1.7 2.7c-0.3 0.4-0.6 0.6-1.1 0.6q-0.2 0-0.4-0.1l-1.9-0.8-2.4 5.6 1.8 0.8c0.6 0.2 0.9 0.9 0.7 1.4q-0.7 2.2-1.1 4.5zm30.4-16.2q2.3 0.7 4.4 1.8l10.3-10.4q-1.3-0.9-2.7-1.7c-0.5-0.3-0.7-0.9-0.5-1.4l0.8-1.9-5.6-2.5-0.8 1.9c-0.2 0.5-0.6 0.7-1.1 0.7q-0.1 0-0.3 0-2.2-0.7-4.5-1.2zm-18.6 1.9q2.1-1.2 4.4-1.9v-14.6q-1.6 0.3-3.2 0.7-0.1 0.1-0.3 0.1c-0.4 0-0.9-0.3-1-0.8l-0.8-1.9-5.7 2.2 0.8 2c0.2 0.5 0 1.1-0.6 1.4q-2 1.1-3.9 2.4z"/><path fill-rule="evenodd" class="e" d="m1859 304.1v3.3c11.8 1.6 22.9 6.2 32.3 13.4l2.4-2.4c0.5-0.4 1.1-0.6 1.6-0.6 0.6 0 1.2 0.2 1.7 0.6l9.9 10c0.9 0.9 0.9 2.4 0 3.3l-2.3 2.3c7.2 9.5 11.7 20.6 13.3 32.3h3.4c1.3 0 2.3 1.1 2.3 2.4v14c0 1.3-1 2.3-2.3 2.3h-3.4c-1.6 11.8-6.1 22.9-13.3 32.4l2.3 2.3c0.9 1 0.9 2.4 0 3.3l-9.9 10c-0.5 0.4-1.1 0.6-1.7 0.6-0.6 0-1.2-0.2-1.6-0.6l-2.4-2.4c-9.4 7.2-20.5 11.8-32.3 13.4v3.3c0 1.3-1 2.3-2.3 2.3h-14.1c-1.3 0-2.3-1-2.3-2.3v-3.3c-11.7-1.6-22.8-6.2-32.3-13.4l-2.4 2.4c-0.4 0.4-1 0.6-1.6 0.6-0.6 0-1.2-0.2-1.6-0.6l-10-10c-0.9-0.9-0.9-2.3 0-3.3l2.4-2.3c-7.2-9.5-11.8-20.6-13.4-32.4h-3.4c-1.3 0-2.3-1-2.3-2.3v-14c0-1.3 1-2.4 2.3-2.4h3.4c1.6-11.7 6.2-22.8 13.4-32.3l-2.4-2.3c-0.4-0.5-0.7-1.1-0.7-1.7 0-0.6 0.3-1.2 0.7-1.6l10-10c0.4-0.4 1-0.6 1.6-0.6 0.6 0 1.2 0.2 1.6 0.6l2.4 2.4c9.5-7.2 20.5-11.8 32.3-13.4v-3.3c0-1.3 1-2.3 2.3-2.3h14.1c1.3 0 2.3 1 2.3 2.3zm-16.4 0v5.4c-13.1 1.3-25.1 6.5-34.8 14.4l-3.8-3.8-10 9.9 3.9 3.8c-7.9 9.8-13.1 21.7-14.5 34.9h-5.4v14h5.4c1.4 13.2 6.6 25.1 14.5 34.9l-3.9 3.8 10 9.9 3.8-3.8c9.7 7.9 21.7 13.1 34.8 14.4v5.4h14.1v-5.4c13.1-1.3 25.1-6.5 34.8-14.4l3.8 3.8 10-9.9-3.8-3.8c7.8-9.8 13-21.7 14.4-34.9h5.4v-14h-5.4c-1.4-13.2-6.6-25.1-14.4-34.9l3.8-3.8-10-9.9-3.8 3.8c-9.7-7.9-21.7-13.1-34.8-14.4v-5.4zm20.3 30.7l7.7 3.4-1.3 2.9q2.1 1.2 4 2.6l-12 11.9q-2.7-1.5-5.7-2.4v-16.8q3 0.4 6 1.3zm-45.3 17.3l12 12c-1.1 1.8-1.9 3.7-2.4 5.7h-16.9q0.4-3 1.4-6l-3-1.3 3.4-7.7 2.9 1.3q1.2-2.1 2.6-4zm52.1 12l12-11.9q1.8 2.4 3.2 5.2l3-1.2 3.1 7.8-3 1.2q0.6 2.3 1 4.6h-16.9c-0.5-2-1.3-3.9-2.4-5.7zm-21.5-1.5v-1.1h2.9v1.1c2.6 0.3 4.9 1.3 6.9 2.9l0.7-0.8 2 2-0.7 0.7c1.5 2 2.6 4.4 2.8 7h1.1v2.8h-1.1c-0.2 2.6-1.3 5-2.8 6.9l0.7 0.8-2 1.9-0.7-0.7c-2 1.6-4.3 2.6-6.9 2.9v1h-2.9v-1c-2.6-0.3-5-1.3-6.9-2.9l-0.8 0.7-1.9-1.9 0.7-0.8c-1.5-1.9-2.6-4.3-2.9-6.9h-1v-2.8h1c0.3-2.6 1.4-5 2.9-7l-0.7-0.7 1.9-2 0.8 0.8c1.9-1.6 4.3-2.6 6.9-2.9zm21.5 24.8c1.1-1.7 1.9-3.7 2.4-5.7h16.9q-0.5 3-1.4 6l3 1.3-3.4 7.7-3-1.3q-1.1 2.1-2.5 4zm-61.5 0.1l3-1.2q-0.6-2.3-1-4.7h16.9c0.6 2.1 1.4 4 2.4 5.8l-11.9 11.9q-1.9-2.5-3.3-5.2l-3 1.2zm47.3 10.7q3.1-0.8 5.7-2.4l12 11.9q-2.5 1.9-5.2 3.3l1.1 3-7.8 3.1-1.2-3q-2.2 0.6-4.6 1zm-26.9 15.1l1.3-3q-2.1-1.2-4-2.6l12-11.9q2.7 1.6 5.7 2.4v16.9q-3-0.5-6-1.4l-1.3 2.9zm-2.6-69.5q2.4-1.9 5.2-3.3l-1.2-3 7.8-3.1 1.2 3q2.3-0.6 4.6-1v16.9q-3 0.8-5.7 2.4zm7.4-4.1c0.4 1.1-0.1 2.3-1.1 2.9q-1.4 0.7-2.7 1.5l8.8 8.8q1.4-0.7 3-1.3v-12.3q-0.9 0.2-1.7 0.4-0.3 0.1-0.6 0.1c-1 0-1.8-0.6-2.2-1.5l-0.3-0.9-3.6 1.4zm27.5 0.4q-1.4-0.5-3-0.8v12.4q1.6 0.5 3 1.2l8.8-8.7q-0.7-0.5-1.5-0.9c-1-0.6-1.5-1.9-1-3l0.4-0.8-3.5-1.5-0.4 0.8c-0.3 0.9-1.2 1.4-2.1 1.4q-0.3 0-0.7-0.1zm-46.7 18.2l-0.9-0.3-1.5 3.4 0.8 0.4c1.1 0.5 1.7 1.7 1.3 2.8q-0.4 1.5-0.8 3h12.4q0.5-1.5 1.2-3l-8.7-8.8q-0.5 0.8-0.9 1.5c-0.4 0.8-1.2 1.2-2 1.2q-0.5 0-0.9-0.2zm59.6 9.3h12.4q-0.2-0.9-0.4-1.7c-0.3-1.1 0.3-2.3 1.4-2.8l0.8-0.3-1.3-3.5-0.9 0.3q-0.4 0.2-0.8 0.2c-0.9 0-1.7-0.5-2.1-1.3q-0.7-1.3-1.5-2.7l-8.8 8.8q0.7 1.5 1.2 3zm-32.6 1.4c-1.4 1.6-2.2 3.6-2.4 5.7q-0.1 0.7-0.5 1.2 0.4 0.5 0.5 1.1c0.2 2.1 1 4.1 2.4 5.7q0.4 0.6 0.4 1.2 0.7 0.1 1.2 0.5c1.6 1.3 3.6 2.1 5.7 2.3q0.7 0.1 1.2 0.5 0.5-0.4 1.1-0.5c2.1-0.2 4.1-1 5.8-2.3q0.5-0.4 1.1-0.5 0.1-0.6 0.5-1.2c1.3-1.6 2.1-3.6 2.4-5.7q0-0.6 0.4-1.1-0.4-0.5-0.4-1.2c-0.3-2.1-1.1-4.1-2.4-5.7q-0.4-0.5-0.5-1.2-0.6-0.1-1.1-0.5c-1.7-1.3-3.7-2.1-5.8-2.3q-0.6-0.1-1.1-0.5-0.5 0.4-1.2 0.5c-2.1 0.2-4.1 1-5.7 2.3q-0.5 0.4-1.2 0.5 0 0.7-0.4 1.2zm31.4 18.1l8.8 8.8q0.4-0.8 0.9-1.5c0.4-0.8 1.2-1.2 2-1.2q0.4 0 0.9 0.2l0.8 0.4 1.5-3.5-0.8-0.4c-1.1-0.5-1.6-1.7-1.3-2.8q0.5-1.5 0.8-3h-12.4q-0.5 1.6-1.2 3zm-59.1-1.3c0.4 1.1-0.2 2.3-1.3 2.8l-0.9 0.3 1.4 3.5 0.8-0.3q0.5-0.2 0.9-0.2c0.8 0 1.6 0.5 2 1.3q0.8 1.4 1.6 2.7l8.7-8.8q-0.7-1.5-1.2-3h-12.4q0.2 0.9 0.4 1.7zm44.4 26.6q0.9-0.2 1.7-0.4 0.3-0.1 0.6-0.1c1 0 1.8 0.6 2.2 1.5l0.3 0.8 3.6-1.4-0.4-0.8c-0.4-1.1 0.1-2.4 1.1-2.9q1.4-0.7 2.7-1.6l-8.8-8.7q-1.4 0.7-3 1.2zm-26.7-3.9c1 0.5 1.4 1.8 0.9 2.9l-0.3 0.8 3.4 1.5 0.4-0.8c0.4-0.9 1.2-1.4 2.1-1.4q0.4 0 0.7 0.1 1.5 0.5 3 0.8v-12.4q-1.5-0.5-3-1.2l-8.7 8.8q0.7 0.4 1.5 0.9z"/><path class="t" d="m1902.8 344.1c0 1.8-23.8-20.9-53.1-20.9-29.4 0-53.2 22.7-53.2 20.9 0-1.7 23.8-29.8 53.2-29.8 29.3 0 53.1 28.1 53.1 29.8z"/></svg>