<svg version="1.2" xmlns="http://www.w3.org/2000/svg" viewBox="0 0 1000 1000" width="1000" height="1000"><style>.a{opacity:.4;fill:#f5f5f5}.b{opacity:.6;fill:#e0e0e0}.c{fill:#e0e0e0}.d{fill:#455a64}.e{fill:#37474f}.f{fill:#263238}.g{fill:#f0f0f0}.h{fill:#fafafa}.i{opacity:.1}.j{fill:#27debf}.k{opacity:.7;fill:#fff}.l{opacity:.6;fill:#fff}.m{opacity:.5;fill:#fff}.n{opacity:.3;fill:#fff}.o{opacity:.3}.p{fill:#fff}.q{fill:#ffa8a7}.r{fill:#ebebeb}.s{fill:#f28f8f}.t{fill:#b16668}.u{opacity:.4}</style><path class="a" d="m153.6 910.6c-191.3-96.8-191.3-253.7 0-350.4 191.3-96.8 501.5-96.8 692.8 0 191.3 96.7 191.3 253.6 0 350.4-191.3 96.8-501.5 96.8-692.8 0z"/><path class="b" d="m325.4 741.6c56.1 32.4 56.1 84.8 0 117.2-56 32.3-146.9 32.3-202.9 0-56-32.4-56-84.8 0-117.2 56-32.4 146.9-32.4 202.9 0z"/><path class="b" d="m930.9 710l-235.7-135.7c-4-2.3-10.4-2.3-14.4 0l-348.9 201.5c-4 2.3-4 6 0 8.3l235.7 135.6c4 2.3 10.4 2.3 14.4 0l348.9-201.4c3.9-2.3 3.9-6 0-8.3z"/><path class="c" d="m714.3 228.1l140 80.9c10 5.8 18.1 19.8 18.1 31.3v276.4l11.9 6.9v-284.4c0-16.2-11.5-36-25.5-44.1l-145.1-83.8c-14-8.1-25.5-1.5-25.5 14.7v284.4l12 6.9v-281c0-9 6.3-12.6 14.1-8.2z"/><path class="d" d="m606.3 845.8c0-14.6 10.2-32.3 22.8-39.6 6.6-3.8 12.6-3.9 16.8-1.2l15.4 8.8-32.8 55.7-15.3-8.8c-4.2-2.3-6.9-7.5-6.9-14.9z"/><path class="e" d="m645.1 815.5c-12.6 7.2-22.8 25-22.8 39.5 0 14.6 10.2 20.5 22.8 13.2 12.6-7.3 22.9-25 22.9-39.6 0-14.5-10.3-20.4-22.9-13.1z"/><path class="f" d="m652.9 837.4c0-5.7-3.5-8.3-7.8-5.9-4.3 2.5-7.7 9.1-7.7 14.8 0 5.7 3.4 8.3 7.7 5.8 4.3-2.4 7.8-9 7.8-14.7z"/><path class="g" d="m618.3 791.1c0 0 0 26.1 12.5 35.3 2.3 1.8 4.8 3 6.3 4.2 3.1 2.6 1 7.5-2.8 9.6-5.6 3-36.1-5.2-49-30z"/><path class="h" d="m630.2 797.9c0 0 0 26.1 12.4 35.3 2.4 1.8 4.8 3 6.3 4.2 3.2 2.6 1.1 7.5-2.8 9.6-5.6 3-36.1-5.2-49-30z"/><path class="f" d="m645.1 839.3c-1.2 0.7-2.2 2.4-2.2 3.8 0 1.4 1 2 2.2 1.3 1.2-0.7 2.2-2.4 2.2-3.8 0-1.4-1-2-2.2-1.3z"/><path class="d" d="m854.3 702.6c0-14.6 10.3-32.3 22.9-39.6 6.6-3.8 12.6-4 16.7-1.2l15.4 8.8-32.7 55.7-15.3-8.8c-4.3-2.3-7-7.5-7-14.9z"/><path class="e" d="m893.2 672.2c-12.6 7.3-22.9 25-22.9 39.6 0 14.6 10.3 20.5 22.9 13.2 12.6-7.3 22.8-25 22.8-39.6 0-14.6-10.2-20.5-22.8-13.2z"/><path class="f" d="m900.9 694.1c0-5.7-3.4-8.3-7.7-5.8-4.3 2.5-7.7 9.1-7.7 14.8 0 5.7 3.4 8.3 7.7 5.8 4.3-2.4 7.7-9.1 7.7-14.8z"/><path class="g" d="m866.4 647.9c0 0 0 26.1 12.5 35.3 2.3 1.7 4.8 2.9 6.2 4.2 3.2 2.6 1.1 7.5-2.7 9.5-5.6 3-36.1-5.1-49.1-29.9z"/><path class="h" d="m878.3 654.7c0 0 0 26.1 12.4 35.3 2.3 1.7 4.8 2.9 6.3 4.2 3.2 2.6 1.1 7.5-2.8 9.5-5.6 3-36.1-5.1-49-29.9z"/><path class="f" d="m893.2 696.1c-1.2 0.7-2.2 2.4-2.2 3.8 0 1.4 1 1.9 2.2 1.2 1.2-0.7 2.2-2.4 2.2-3.8 0-1.4-1-1.9-2.2-1.2z"/><path class="d" d="m896.3 630.5l-220-127-359.5 207.5 220 127z"/><path class="e" d="m896.3 630.5l-0.1 13.8-359.4 207.5v-13.8z"/><path class="f" d="m316.8 711v13.8l220 127v-13.8z"/><path class="i" d="m864.3 631.1l-188.7 109-192.4-111 189.2-108.7z"/><path class="j" d="m857.9 501.5l-172.8-99.9-182.7 105.7 172.8 99.9z"/><path class="k" d="m857.9 501.5l-172.8-99.9-182.7 105.7 172.8 99.9z"/><path class="j" d="m675.2 728l182.7-105.7v-120.8l-182.7 105.7z"/><path class="l" d="m675.2 728l182.7-105.7v-120.8l-182.7 105.7z"/><path fill-rule="evenodd" class="d" d="m695.4 687.9q-0.9 0-1.6-0.4c-1.2-0.7-1.9-2.3-1.9-4.3 0 0 0-12.8 0-12.8v-1l0.6 0.1 10-5.9v14.3c0 3.7-2.1 7.8-4.9 9.4q-1.1 0.6-2.2 0.6zm-1.9-16.6v11.9c0 1.4 0.4 2.5 1.1 2.9 0.8 0.4 1.6 0.1 2.2-0.2 2.2-1.3 4.1-4.9 4.1-8v-1h-3.7l-0.7-5zm5.1 3.9h2.4v-8.8l-6 3.5 2.9 0.5z"/><path class="d" d="m697.2 698.1c-0.4 0-0.8-0.3-0.8-0.8v-10.7c0-0.5 0.4-0.8 0.8-0.8 0.4 0 0.8 0.3 0.8 0.8v10.7c0 0.5-0.4 0.8-0.8 0.8z"/><path class="d" d="m692.5 700.8c-0.2 0-0.5-0.1-0.7-0.4-0.2-0.3-0.1-0.8 0.3-1.1l9.4-5.4c0.4-0.2 0.9-0.1 1.1 0.3 0.2 0.4 0.1 0.9-0.3 1.1l-9.4 5.4q-0.2 0.1-0.4 0.1z"/><path class="d" d="m725.8 682.3q-0.4 0-0.9-0.2c-0.6-0.4-0.9-1.1-0.9-1.9v-2.2c0-0.5 0.3-0.8 0.8-0.8 0.4 0 0.8 0.3 0.8 0.8v2.2c0 0.3 0.1 0.5 0.2 0.5 0 0 0.2 0 0.5-0.1 0.7-0.5 1.5-2.1 1.5-3.7v-14.3c0-0.4 0.3-0.8 0.8-0.8 0.4 0 0.8 0.4 0.8 0.8v14.3c0 2.1-1 4.3-2.3 5q-0.7 0.4-1.3 0.4z"/><path fill-rule="evenodd" class="d" d="m717.4 669.8v-1.4c0-6.5 4.6-14.5 10.2-17.8 2.9-1.7 5.7-1.9 7.8-0.7 2.2 1.2 3.3 3.8 3.3 7.1v0.5zm15.2-19.1c-1.3 0-2.6 0.4-4.1 1.2-4.8 2.8-8.8 9.3-9.4 15l18.1-10.4c-0.1-2.5-1-4.4-2.5-5.3q-0.9-0.5-2.1-0.5z"/><path class="d" d="m754.7 665.8c-0.4 0-0.8-0.3-0.8-0.8v-27.3c0-0.5 0.4-0.8 0.8-0.8 0.5 0 0.8 0.3 0.8 0.8v27.3c0 0.5-0.3 0.8-0.8 0.8z"/><path class="d" d="m752.4 643.9q-0.2 0-0.3-0.1c-0.5-0.1-0.6-0.6-0.5-1l2.9-6.6 3.2 3.7c0.3 0.3 0.3 0.8-0.1 1.1-0.3 0.3-0.8 0.2-1.1-0.1l-1.5-1.7-1.9 4.2c-0.1 0.3-0.4 0.5-0.7 0.5z"/><path class="d" d="m762.2 661.6c-0.5 0-0.8-0.4-0.8-0.8v-27.4c0-0.4 0.3-0.8 0.8-0.8 0.4 0 0.8 0.4 0.8 0.8v27.4c0 0.4-0.4 0.8-0.8 0.8z"/><path class="d" d="m759.8 639.7q-0.1 0-0.3-0.1c-0.4-0.2-0.6-0.7-0.4-1.1l2.8-6.6 3.2 3.7c0.3 0.3 0.3 0.9 0 1.1-0.4 0.3-0.9 0.3-1.2 0l-1.5-1.8-1.8 4.3c-0.2 0.3-0.5 0.5-0.8 0.5z"/><path class="j" d="m675.2 728l-172.8-99.9v-120.8l172.8 99.9z"/><path class="m" d="m675.2 728l-172.8-99.9v-120.8l172.8 99.9z"/><path class="e" d="m575 567.5l11.8 6.8v-18.3l-11.8-6.8z"/><path class="d" d="m586.8 556l182.6-105.7-11.8-6.8-182.6 105.7z"/><path class="e" d="m580.3 546l11.9 6.9 6.6-3.8-11.9-6.9z"/><path class="h" d="m769.9 465.7l-48.4 27.9c-0.9 0.5-0.6 1.4 0.5 2.1l54.7 31.5c1.1 0.7 2.8 0.8 3.7 0.3l48.3-27.8c0.9-0.5 0.7-1.5-0.5-2.2l-54.6-31.5c-1.2-0.7-2.8-0.8-3.7-0.3z"/><path class="c" d="m794.3 513.1c0.4 0 0.7-0.2 0.9-0.5 0.3-0.5 0.1-1.1-0.4-1.3l-45.3-26.2c-0.5-0.3-1.1-0.1-1.4 0.3-0.3 0.5-0.1 1.1 0.4 1.4l45.3 26.2q0.3 0.1 0.5 0.1z"/><path class="c" d="m789.3 516c0.3 0 0.7-0.2 0.9-0.5 0.2-0.5 0.1-1.1-0.4-1.4l-45.3-26.1c-0.5-0.3-1.1-0.2-1.4 0.3-0.3 0.5-0.1 1.1 0.4 1.4l45.3 26.2q0.2 0.1 0.5 0.1z"/><path class="c" d="m784.3 518.9c0.3 0 0.6-0.2 0.8-0.5 0.3-0.5 0.1-1.1-0.3-1.4l-45.4-26.2c-0.5-0.2-1.1-0.1-1.3 0.4-0.3 0.5-0.2 1.1 0.3 1.4l45.4 26.2q0.2 0.1 0.5 0.1z"/><path class="c" d="m779.2 521.8c0.4 0 0.7-0.2 0.9-0.5 0.3-0.5 0.1-1.1-0.4-1.4l-45.3-26.2c-0.5-0.2-1.1-0.1-1.4 0.4-0.3 0.5-0.1 1.1 0.4 1.4l45.3 26.1q0.3 0.2 0.5 0.2z"/><path class="d" d="m824.2 498.4l-1.8-1-20.6 11.9 1.7 1z"/><path class="d" d="m817 494.2l-3.1-1.7-20.6 11.9 3 1.8z"/><path class="d" d="m809.8 490.1l-1.7-1-20.7 11.9 1.8 1z"/><path class="d" d="m804.4 487l-3.5-2.1-20.7 12 3.6 2z"/><path class="d" d="m795.5 481.8l-1.8-1-20.7 11.9 1.8 1z"/><path class="d" d="m790.3 478.8l-3.8-2.1-20.6 11.9 3.8 2.1z"/><path class="d" d="m781.1 473.5l-1.8-1-20.6 11.9 1.8 1z"/><path class="d" d="m777 471.1l-0.8-0.5-20.7 12 0.9 0.5z"/><path class="d" d="m784.3 475.5l-0.9-0.5-20.7 11.9 0.9 0.5z"/><path class="d" d="m798.8 483.8l-0.9-0.5-20.6 11.9 0.9 0.5z"/><path class="d" d="m806.7 488.4l-0.9-0.6-20.6 12 0.9 0.5z"/><path class="d" d="m812.3 491.7l-0.9-0.5-20.6 11.9 0.9 0.5z"/><path class="d" d="m820.2 496.1l-0.9-0.5-20.7 11.9 0.9 0.5z"/><path class="d" d="m773.9 469.4l-1.7-1-20.7 11.9 1.8 1z"/><path class="h" d="m801.8 610.3l-0.1 30.3c0 1.2 0.9 1.6 1.9 1.1l47.3-27.4c1-0.5 1.8-2 1.8-3.1v-30.3c0-1.2-0.8-1.7-1.8-1.1l-47.3 27.3c-1 0.6-1.8 2-1.8 3.2z"/><path class="d" d="m849.8 584.1l-1.5 0.9v27.6l1.5-0.9z"/><path class="d" d="m843.6 587.7l-2.7 1.6v27.5l2.7-1.5z"/><path class="d" d="m837.3 591.3l-1.5 0.9v27.5l1.5-0.8z"/><path class="d" d="m832.7 594l-3.1 1.8v27.5l3.1-1.8z"/><path class="d" d="m824.9 598.5l-1.5 0.9v27.5l1.5-0.9z"/><path class="d" d="m820.4 601l-3.2 2v27.5l3.2-1.9z"/><path class="d" d="m812.5 605.7l-1.6 0.9 0.1 27.5 1.5-0.9z"/><path class="d" d="m808.9 607.7l-0.7 0.4v27.6l0.7-0.5z"/><path class="d" d="m815.3 604.2l-0.8 0.4v27.6l0.8-0.5z"/><path class="d" d="m827.8 596.8l-0.7 0.5v27.5l0.7-0.4z"/><path class="d" d="m834.7 592.9l-0.8 0.4v27.6l0.8-0.5z"/><path class="d" d="m839.6 590.2l-0.7 0.4v27.6l0.7-0.5z"/><path class="d" d="m846.3 586.1l-0.8 0.5v27.5l0.8-0.4z"/><path class="d" d="m806.3 609.3l-1.6 0.8v27.6l1.6-0.9z"/><path class="i" d="m846.1 499l-167.6 96.9-177.4-102.6 167.7-96.9z"/><path class="j" d="m496.5 362l160.8-93 182 105.3-160.8 93z"/><path class="n" d="m496.5 362l160.8-93 182 105.3-160.8 93z"/><path class="h" d="m573.6 329.1l48.4 27.9c0.8 0.5 0.6 1.4-0.6 2.1l-54.6 31.5c-1.1 0.7-2.8 0.8-3.7 0.3l-48.4-27.8c-0.8-0.6-0.6-1.5 0.6-2.2l54.6-31.5c1.2-0.7 2.8-0.8 3.7-0.3z"/><path class="c" d="m549.2 376.5c-0.4 0-0.7-0.2-0.9-0.5-0.3-0.5-0.1-1.1 0.4-1.3l45.3-26.2c0.5-0.3 1.1-0.1 1.4 0.3 0.2 0.5 0.1 1.1-0.4 1.4l-45.3 26.2q-0.3 0.1-0.5 0.1z"/><path class="c" d="m554.2 379.4c-0.4 0-0.7-0.2-0.9-0.5-0.3-0.5-0.1-1.1 0.4-1.4l45.3-26.1c0.5-0.3 1.1-0.2 1.4 0.3 0.3 0.5 0.1 1.1-0.4 1.4l-45.3 26.2q-0.3 0.1-0.5 0.1z"/><path class="c" d="m559.2 382.3c-0.3 0-0.7-0.2-0.8-0.5-0.3-0.5-0.2-1.1 0.3-1.4l45.4-26.2c0.4-0.2 1.1-0.1 1.3 0.4 0.3 0.5 0.1 1.1-0.3 1.4l-45.4 26.2q-0.2 0.1-0.5 0.1z"/><path class="c" d="m564.3 385.2c-0.4 0-0.7-0.2-0.9-0.5-0.3-0.5-0.1-1.1 0.4-1.4l45.3-26.2c0.5-0.3 1.1-0.1 1.4 0.4 0.2 0.5 0.1 1.1-0.4 1.4l-45.3 26.1q-0.3 0.2-0.5 0.2z"/><path class="d" d="m519.3 361.8l1.8-1 20.6 11.9-1.7 1z"/><path class="d" d="m526.5 357.6l3.1-1.7 20.6 11.9-3.1 1.8z"/><path class="d" d="m533.7 353.5l1.7-1 20.7 11.9-1.8 1z"/><path class="d" d="m539 350.4l3.6-2.1 20.7 12-3.6 2z"/><path class="d" d="m548 345.2l1.8-1 20.6 11.9-1.7 1z"/><path class="d" d="m553.1 342.2l3.9-2.2 20.6 12-3.8 2.1z"/><path class="d" d="m562.4 336.9l1.7-1 20.7 11.9-1.8 1z"/><path class="d" d="m566.4 334.5l0.9-0.5 20.7 12-0.9 0.5z"/><path class="d" d="m559.2 338.9l0.9-0.5 20.6 11.9-0.8 0.5z"/><path class="d" d="m544.7 347.2l0.8-0.5 20.7 11.9-0.9 0.5z"/><path class="d" d="m536.8 351.8l0.8-0.6 20.7 12-0.9 0.5z"/><path class="d" d="m531.2 355.1l0.9-0.5 20.6 11.9-0.9 0.5z"/><path class="d" d="m523.3 359.5l0.9-0.6 20.6 12-0.8 0.5z"/><path class="d" d="m569.6 332.8l1.7-1 20.7 11.9-1.8 1z"/><path class="j" d="m678.5 588.1l-182-105.3v-120.8l182 105.3z"/><path class="j" d="m678.5 588.1l160.8-93v-120.8l-160.8 93z"/><path class="i" d="m678.5 588.1l160.8-93v-120.8l-160.8 93z"/><path class="e" d="m766.8 434.6l-11.8 6.8v-18.4l11.8-6.8z"/><path class="d" d="m755 423l-182-105.3 11.8-6.8 182 105.3z"/><path fill-rule="evenodd" class="d" d="m611.8 530.4c-2.4-1.4-4.2-4.9-4.2-8v-12.3l8.5 5.1 0.6-0.1c0 0 0 0.8 0 0.8v11c0 1.7-0.6 3-1.7 3.7q-0.6 0.3-1.3 0.3-0.9 0-1.9-0.5zm0.9-13.2l-0.6 4.3h-3.2v0.9c0 2.5 1.7 5.7 3.6 6.8 0.5 0.3 1.2 0.5 1.8 0.2 0.7-0.4 1-1.3 1-2.5v-10.2zm-1.2-1.2l2.5-0.4-5.1-3v7.5h2z"/><path class="d" d="m612.1 539.6c0.4 0 0.7-0.3 0.7-0.6v-9.2c0-0.4-0.3-0.7-0.7-0.7-0.3 0-0.7 0.3-0.7 0.7v9.2c0 0.3 0.4 0.6 0.7 0.6z"/><path class="d" d="m616.1 541.9c0.3 0 0.5-0.1 0.6-0.3 0.2-0.3 0.1-0.8-0.2-0.9l-8-4.7c-0.3-0.1-0.8 0-1 0.3-0.1 0.3 0 0.7 0.3 0.9l8 4.6q0.1 0.1 0.3 0.1z"/><path class="d" d="m640.1 556.1q0.4 0 0.7-0.1c0.5-0.3 0.8-1 0.8-1.7v-1.9c0-0.4-0.3-0.7-0.6-0.7-0.4 0-0.7 0.3-0.7 0.7v1.9c0 0.3-0.1 0.4-0.2 0.5 0 0-0.2 0-0.4-0.2-0.6-0.3-1.3-1.7-1.3-3.1v-12.2c0-0.4-0.3-0.7-0.7-0.7-0.4 0-0.7 0.3-0.7 0.7v12.2c0 1.8 0.9 3.7 2 4.3q0.5 0.3 1.1 0.3z"/><path fill-rule="evenodd" class="d" d="m629 534.9v-0.4c0-2.9 1-5 2.8-6.1 1.9-1 4.2-0.8 6.7 0.6 4.9 2.8 8.8 9.7 8.8 15.3v1.2zm3.5-5.3c-1.3 0.7-2 2.3-2.1 4.5l15.4 8.9c-0.5-4.9-3.9-10.4-8-12.8-1.2-0.7-2.4-1.1-3.4-1.1q-1.1 0-1.9 0.5z"/><path class="d" d="m667.7 571.6c0.4 0 0.7-0.3 0.7-0.7v-23.4c0-0.4-0.3-0.7-0.7-0.7-0.4 0-0.7 0.3-0.7 0.7v23.4c0 0.4 0.3 0.7 0.7 0.7z"/><path class="d" d="m669.7 552.8q0.2 0 0.3 0c0.3-0.2 0.5-0.6 0.4-0.9l-2.5-5.7-2.7 3.2c-0.3 0.2-0.2 0.7 0 0.9 0.3 0.3 0.8 0.2 1 0l1.3-1.5 1.6 3.6c0.1 0.3 0.4 0.4 0.6 0.4z"/><path class="d" d="m661.3 567.9c0.4 0 0.7-0.3 0.7-0.6v-23.4c0-0.4-0.3-0.7-0.7-0.7-0.3 0-0.6 0.3-0.6 0.7v23.4c0 0.3 0.3 0.6 0.6 0.6z"/><path class="d" d="m663.4 549.2q0.1 0 0.2-0.1c0.4-0.1 0.5-0.5 0.4-0.9l-2.5-5.6-2.7 3.1c-0.2 0.3-0.2 0.7 0.1 1 0.3 0.2 0.7 0.2 1-0.1l1.3-1.5 1.5 3.7c0.1 0.2 0.4 0.4 0.7 0.4z"/><path class="h" d="m552.1 471.9v30.3c0 1.2-0.8 1.6-1.9 1.1l-47.3-27.3c-1-0.6-1.8-2.1-1.8-3.2v-30.3c0-1.2 0.8-1.7 1.9-1.1l47.2 27.3c1.1 0.6 1.9 2 1.9 3.2z"/><path class="d" d="m504 445.8l1.6 0.8v27.6l-1.6-0.9z"/><path class="d" d="m510.3 449.3l2.6 1.6v27.5l-2.6-1.5z"/><path class="d" d="m516.5 452.9l1.5 0.9v27.5l-1.5-0.8z"/><path class="d" d="m521.2 455.6l3 1.8v27.5l-3-1.8z"/><path class="d" d="m528.9 460.1l1.5 0.9v27.5l-1.5-0.9z"/><path class="d" d="m533.4 462.6l3.3 2v27.5l-3.3-1.9z"/><path class="d" d="m541.4 467.3l1.5 0.9v27.5l-1.6-0.9z"/><path class="d" d="m544.9 469.3l0.8 0.4v27.6l-0.8-0.5z"/><path class="d" d="m538.5 465.8l0.8 0.4v27.6l-0.8-0.5z"/><path class="d" d="m526 458.4l0.8 0.5v27.5l-0.8-0.4z"/><path class="d" d="m519.1 454.5l0.8 0.4v27.6l-0.8-0.5z"/><path class="d" d="m514.2 451.8l0.8 0.4v27.6l-0.8-0.5z"/><path class="d" d="m507.5 447.7l0.8 0.5v27.5l-0.8-0.4z"/><path class="d" d="m547.6 470.9l1.5 0.8v27.6l-1.5-0.9z"/><path class="i" d="m493.6 360.4l174.3 100.8 136.6-78.8-174.6-100.8z"/><path class="j" d="m485.6 305.3l146.2-84.4 170.6 98.5-146.2 84.4z"/><path class="i" d="m485.6 305.3l146.2-84.4 170.6 98.5-146.2 84.4z"/><path class="h" d="m562.7 272.4l48.3 27.8c0.9 0.6 0.7 1.5-0.5 2.2l-54.6 31.5c-1.2 0.7-2.8 0.8-3.7 0.3l-48.4-27.9c-0.9-0.5-0.6-1.4 0.5-2.1l54.7-31.5c1.1-0.7 2.8-0.8 3.7-0.3z"/><path class="c" d="m538.2 319.8c-0.3 0-0.7-0.2-0.8-0.5-0.3-0.5-0.2-1.1 0.3-1.4l45.4-26.1c0.4-0.3 1-0.2 1.3 0.3 0.3 0.5 0.1 1.1-0.3 1.4l-45.4 26.2q-0.2 0.1-0.5 0.1z"/><path class="c" d="m543.3 322.7c-0.4 0-0.7-0.2-0.9-0.5-0.3-0.5-0.1-1.1 0.4-1.4l45.3-26.2c0.5-0.2 1.1-0.1 1.4 0.4 0.2 0.5 0.1 1.1-0.4 1.4l-45.3 26.1q-0.3 0.2-0.5 0.2z"/><path class="c" d="m548.3 325.6c-0.4 0-0.7-0.2-0.9-0.5-0.3-0.5-0.1-1.1 0.4-1.4l45.3-26.2c0.5-0.3 1.1-0.1 1.4 0.4 0.3 0.5 0.1 1.1-0.4 1.4l-45.3 26.1q-0.3 0.2-0.5 0.2z"/><path class="c" d="m553.3 328.5c-0.3 0-0.7-0.2-0.8-0.5-0.3-0.5-0.2-1.1 0.3-1.4l45.4-26.2c0.4-0.3 1.1-0.1 1.3 0.4 0.3 0.5 0.1 1.1-0.3 1.3l-45.4 26.2q-0.2 0.2-0.5 0.2z"/><path class="d" d="m508.4 305.1l1.7-1 20.7 11.9-1.8 1z"/><path class="d" d="m515.6 300.9l3-1.7 20.7 11.9-3.1 1.8z"/><path class="d" d="m522.7 296.8l1.8-1 20.6 11.9-1.7 1z"/><path class="d" d="m528.1 293.6l3.6-2 20.6 11.9-3.5 2.1z"/><path class="d" d="m537.1 288.5l1.7-1 20.7 11.9-1.8 1z"/><path class="d" d="m542.2 285.5l3.8-2.2 20.7 12-3.8 2.1z"/><path class="d" d="m551.4 280.2l1.8-1 20.7 11.9-1.8 1z"/><path class="d" d="m555.5 277.8l0.9-0.5 20.6 11.9-0.8 0.6z"/><path class="d" d="m548.3 282.2l0.8-0.6 20.7 12-0.9 0.5z"/><path class="d" d="m533.7 290.5l0.9-0.6 20.7 12-0.9 0.5z"/><path class="d" d="m525.8 295l0.9-0.5 20.7 12-0.9 0.5z"/><path class="d" d="m520.2 298.4l0.9-0.5 20.7 11.9-0.9 0.5z"/><path class="d" d="m512.4 302.7l0.9-0.5 20.6 12-0.9 0.5z"/><path class="d" d="m558.6 276.1l1.8-1.1 20.6 12-1.7 1z"/><path class="j" d="m656.2 460.1l-170.6-98.5v-56.3l170.6 98.5z"/><g style="opacity:.2"><path  d="m656.2 460.1l-170.6-98.5v-56.3l170.6 98.5z"/></g><path class="j" d="m656.2 460.1l146.2-84.4v-56.3l-146.2 84.4z"/><path class="o" d="m656.2 460.1l146.2-84.4v-56.3l-146.2 84.4z"/><path class="e" d="m744.5 371l-11.9 6.9v-18.4l11.9-6.8z"/><path class="d" d="m732.6 359.5l-170.6-98.5 11.8-6.8 170.7 98.5z"/><path fill-rule="evenodd" class="d" d="m589.5 402.3c-2.4-1.3-4.3-4.8-4.3-8v-12.2l8.6 5.1 0.6-0.1c0 0 0 0.8 0 0.8v10.9c0 1.8-0.6 3.1-1.7 3.7q-0.6 0.4-1.3 0.4-1 0-1.9-0.6zm0.9-13.1l-0.6 4.2h-3.2v0.9c0 2.6 1.6 5.7 3.6 6.8 0.5 0.3 1.2 0.6 1.8 0.2 0.6-0.3 1-1.2 1-2.5v-10.1zm-1.2-1.2l2.5-0.4-5.1-3v7.5h2z"/><path class="d" d="m589.8 411.6c0.4 0 0.7-0.3 0.7-0.7v-9.2c0-0.3-0.3-0.7-0.7-0.7-0.4 0-0.7 0.4-0.7 0.7v9.2c0 0.4 0.3 0.7 0.7 0.7z"/><path class="d" d="m593.8 413.9c0.2 0 0.5-0.1 0.6-0.3 0.2-0.4 0.1-0.8-0.3-1l-7.9-4.6c-0.4-0.2-0.8-0.1-1 0.3-0.2 0.3-0.1 0.7 0.3 0.9l8 4.6q0.1 0.1 0.3 0.1z"/><path class="d" d="m617.7 428.1q0.4 0 0.8-0.2c0.5-0.3 0.8-0.9 0.8-1.6v-1.9c0-0.4-0.3-0.7-0.7-0.7-0.4 0-0.7 0.3-0.7 0.7v1.9c0 0.2 0 0.4-0.1 0.4 0 0.1-0.2 0-0.4-0.1-0.6-0.3-1.3-1.7-1.3-3.1v-12.2c0-0.4-0.3-0.7-0.7-0.7-0.4 0-0.7 0.3-0.7 0.7v12.2c0 1.8 0.8 3.6 2 4.3q0.5 0.3 1 0.3z"/><path fill-rule="evenodd" class="d" d="m606.7 406.9v-0.4c0-2.9 1-5 2.8-6.1 1.8-1 4.2-0.8 6.7 0.6 4.8 2.8 8.8 9.6 8.8 15.2v1.2zm3.5-5.2c-1.3 0.7-2.1 2.3-2.1 4.4l15.4 9c-0.5-4.9-3.9-10.5-8-12.8-1.2-0.8-2.4-1.1-3.5-1.1q-1 0-1.8 0.5z"/><path class="d" d="m645.4 443.5c0.4 0 0.7-0.3 0.7-0.6v-23.5c0-0.3-0.3-0.6-0.7-0.6-0.4 0-0.7 0.3-0.7 0.6v23.5c0 0.3 0.3 0.6 0.7 0.6z"/><path class="d" d="m647.4 424.8q0.1 0 0.3-0.1c0.3-0.1 0.5-0.5 0.3-0.9l-2.4-5.6-2.8 3.1c-0.2 0.3-0.2 0.7 0.1 1 0.3 0.2 0.7 0.2 1-0.1l1.3-1.5 1.6 3.7c0.1 0.2 0.3 0.4 0.6 0.4z"/><path class="d" d="m639 439.9c0.4 0 0.7-0.3 0.7-0.7v-23.4c0-0.4-0.3-0.7-0.7-0.7-0.4 0-0.7 0.3-0.7 0.7v23.4c0 0.4 0.3 0.7 0.7 0.7z"/><path class="d" d="m641 421.2q0.2 0 0.3-0.1c0.4-0.1 0.5-0.6 0.4-0.9l-2.5-5.7-2.7 3.2c-0.3 0.3-0.2 0.7 0.1 1 0.3 0.2 0.7 0.2 0.9-0.1l1.3-1.5 1.6 3.6c0.1 0.3 0.4 0.5 0.6 0.5z"/><path class="h" d="m541.1 350.7v30.3c0 1.1-0.8 1.6-1.8 1l-47.3-27.3c-1-0.6-1.8-2-1.8-3.1v-30.4c0-1.1 0.8-1.6 1.8-1l47.3 27.3c1 0.6 1.8 2 1.8 3.2z"/><path class="d" d="m493.1 324.5l1.5 0.9v27.5l-1.5-0.8z"/><path class="d" d="m499.3 328.1l2.7 1.6v27.5l-2.7-1.5z"/><path class="d" d="m505.5 331.7l1.6 0.9v27.5l-1.6-0.9z"/><path class="d" d="m510.2 334.4l3.1 1.8v27.5l-3.1-1.8z"/><path class="d" d="m518 338.9l1.5 0.9v27.5l-1.5-0.9z"/><path class="d" d="m522.5 341.4l3.2 1.9v27.6l-3.2-2z"/><path class="d" d="m530.4 346l1.5 0.9v27.6l-1.5-0.9z"/><path class="d" d="m534 348.1l0.7 0.4v27.5l-0.7-0.4z"/><path class="d" d="m527.6 344.5l0.7 0.5v27.5l-0.7-0.4z"/><path class="d" d="m515.1 337.2l0.7 0.5v27.5l-0.7-0.4z"/><path class="d" d="m508.2 333.3l0.8 0.4v27.6l-0.8-0.5z"/><path class="d" d="m503.3 330.6l0.7 0.4v27.5l-0.7-0.4z"/><path class="d" d="m496.6 326.5l0.8 0.4v27.6l-0.8-0.5z"/><path class="d" d="m536.6 349.6l1.6 0.9v27.6l-1.6-0.9z"/><path class="i" d="m567.1 689.5l-133.7 77.1-100-57.8 133.9-76.9z"/><path class="j" d="m345.6 462.5l121.9-70.4 89.4 51.6-121.9 70.4z"/><path class="i" d="m345.6 462.5l121.9-70.4 89.4 51.6-121.9 70.4z"/><path class="h" d="m466.3 402.2l-37.4 21.6c-0.7 0.4-0.5 1.1 0.4 1.6l42.2 24.4c0.9 0.5 2.2 0.6 2.9 0.3l37.4-21.6c0.7-0.4 0.5-1.1-0.4-1.7l-42.2-24.3c-0.9-0.5-2.2-0.6-2.9-0.3z"/><path class="c" d="m485.2 438.9c0.3 0 0.5-0.1 0.7-0.4 0.2-0.3 0-0.8-0.3-1l-35.1-20.3c-0.3-0.2-0.8-0.1-1 0.3-0.2 0.4-0.1 0.9 0.2 1.1l35.1 20.2q0.2 0.1 0.4 0.1z"/><path class="c" d="m481.3 441.1c0.3 0 0.5-0.1 0.7-0.3 0.2-0.4 0.1-0.9-0.3-1.1l-35.1-20.2c-0.3-0.3-0.8-0.1-1 0.2-0.2 0.4-0.1 0.9 0.3 1.1l35 20.2q0.2 0.1 0.4 0.1z"/><path class="c" d="m477.4 443.4c0.3 0 0.5-0.2 0.7-0.4 0.2-0.4 0.1-0.9-0.3-1.1l-35.1-20.2c-0.3-0.2-0.8-0.1-1 0.3-0.2 0.3-0.1 0.8 0.3 1l35 20.3q0.2 0.1 0.4 0.1z"/><path class="c" d="m473.5 445.6c0.3 0 0.5-0.1 0.7-0.4 0.2-0.4 0.1-0.8-0.3-1l-35.1-20.3c-0.3-0.2-0.8-0.1-1 0.3-0.2 0.4-0.1 0.8 0.3 1.1l35 20.2q0.2 0.1 0.4 0.1z"/><path class="d" d="m508.3 427.5l-1.4-0.8-16 9.3 1.4 0.7z"/><path class="d" d="m502.7 424.3l-2.4-1.3-15.9 9.2 2.3 1.3z"/><path class="d" d="m497.2 421.1l-1.4-0.8-16 9.2 1.4 0.8z"/><path class="d" d="m493 418.7l-2.7-1.6-16 9.2 2.7 1.6z"/><path class="d" d="m486.1 414.7l-1.4-0.8-16 9.2 1.4 0.8z"/><path class="d" d="m482.1 412.4l-2.9-1.7-16 9.2 2.9 1.7z"/><path class="d" d="m475 408.3l-1.4-0.8-16 9.2 1.4 0.8z"/><path class="d" d="m471.8 406.5l-0.7-0.4-15.9 9.2 0.7 0.4z"/><path class="d" d="m477.4 409.8l-0.7-0.4-15.9 9.2 0.7 0.4z"/><path class="d" d="m488.7 416.2l-0.7-0.4-16 9.2 0.7 0.4z"/><path class="d" d="m494.8 419.8l-0.7-0.4-16 9.2 0.7 0.4z"/><path class="d" d="m499.1 422.3l-0.7-0.3-16 9.2 0.7 0.4z"/><path class="d" d="m505.2 425.7l-0.7-0.4-16 9.2 0.7 0.4z"/><path class="d" d="m469.4 405.1l-1.3-0.8-16 9.2 1.4 0.8z"/><path class="j" d="m435 758l-89.4-51.6v-243.9l89.4 51.6z"/><g style="opacity:.2"><path  d="m435 758l-89.4-51.6v-243.9l89.4 51.6z"/></g><path class="j" d="m435 758l121.9-70.3v-244l-121.9 70.4z"/><path class="o" d="m435 758l121.9-70.3v-244l-121.9 70.4z"/><path class="e" d="m500 494.9l-11.8 6.8v-18.3l11.8-6.8z"/><path class="d" d="m488.2 483.4l-89.4-51.6 11.8-6.8 89.4 51.6z"/><path fill-rule="evenodd" class="d" d="m368.3 700.2c-2.4-1.3-4.2-4.8-4.2-7.9v-12.3l8.5 5.1 0.6-0.1c0 0 0 0.8 0 0.8v10.9c0 1.8-0.6 3.1-1.7 3.7q-0.6 0.4-1.3 0.4-0.9 0-1.9-0.6zm0.9-13.1l-0.6 4.3h-3.2v0.9c0 2.5 1.7 5.6 3.6 6.7 0.5 0.3 1.2 0.6 1.8 0.3 0.7-0.4 1-1.3 1-2.6v-10.1zm-1.2-1.2l2.5-0.4-5.1-3v7.5h2z"/><path class="d" d="m368.6 709.5c0.4 0 0.7-0.3 0.7-0.7v-9.2c0-0.3-0.3-0.6-0.7-0.6-0.3 0-0.7 0.3-0.7 0.6v9.2c0 0.4 0.4 0.7 0.7 0.7z"/><path class="d" d="m372.6 711.8c0.3 0 0.5-0.1 0.6-0.3 0.2-0.4 0.1-0.8-0.2-1l-8-4.6c-0.3-0.2-0.8-0.1-1 0.3-0.1 0.3 0 0.7 0.3 0.9l8 4.6q0.1 0.1 0.3 0.1z"/><path class="d" d="m396.6 726q0.4 0 0.7-0.2c0.5-0.3 0.8-0.9 0.8-1.6v-1.9c0-0.4-0.3-0.7-0.6-0.7-0.4 0-0.7 0.3-0.7 0.7v1.9c0 0.3-0.1 0.4-0.2 0.4 0 0.1-0.2 0.1-0.4-0.1-0.6-0.3-1.3-1.7-1.3-3.1v-12.2c0-0.4-0.3-0.7-0.7-0.7-0.4 0-0.7 0.3-0.7 0.7v12.2c0 1.8 0.9 3.6 2 4.3q0.5 0.3 1.1 0.3z"/><path fill-rule="evenodd" class="d" d="m385.5 704.8v-0.4c0-2.9 1-5 2.8-6.1 1.9-1 4.2-0.8 6.7 0.6 4.9 2.8 8.8 9.6 8.8 15.2v1.2zm3.5-5.2c-1.3 0.7-2 2.3-2.1 4.5l15.4 8.9c-0.5-4.9-3.9-10.5-8-12.8-1.2-0.7-2.4-1.1-3.4-1.1q-1.1 0-1.9 0.5z"/><path class="d" d="m424.2 741.4c0.4 0 0.7-0.3 0.7-0.6v-23.4c0-0.4-0.3-0.7-0.7-0.7-0.4 0-0.7 0.3-0.7 0.7v23.4c0 0.3 0.3 0.6 0.7 0.6z"/><path class="d" d="m426.2 722.7q0.2 0 0.3-0.1c0.3-0.1 0.5-0.5 0.3-0.9l-2.4-5.6-2.7 3.1c-0.3 0.3-0.2 0.8 0 1 0.3 0.2 0.8 0.2 1-0.1l1.3-1.5 1.6 3.7c0.1 0.2 0.4 0.4 0.6 0.4z"/><path class="d" d="m417.8 737.8c0.4 0 0.7-0.3 0.7-0.7v-23.4c0-0.3-0.3-0.7-0.7-0.7-0.3 0-0.6 0.4-0.6 0.7v23.4c0 0.4 0.3 0.7 0.6 0.7z"/><path class="d" d="m419.9 719.1q0.1 0 0.2-0.1c0.4-0.1 0.5-0.5 0.4-0.9l-2.5-5.6-2.7 3.1c-0.2 0.3-0.2 0.7 0.1 1 0.3 0.2 0.7 0.2 1-0.1l1.3-1.5 1.5 3.7c0.1 0.2 0.4 0.4 0.7 0.4z"/><path class="h" d="m426.9 666.8v30.2c0 1.2-0.9 1.7-1.9 1.1l-47.3-27.3c-1-0.6-1.8-2-1.8-3.2v-30.3c0-1.2 0.8-1.6 1.8-1l47.3 27.3c1 0.6 1.9 2 1.9 3.2z"/><path class="d" d="m378.8 640.6l1.6 0.9v27.5l-1.6-0.9z"/><path class="d" d="m385.1 644.2l2.6 1.5v27.6l-2.6-1.6z"/><path class="d" d="m391.3 647.8l1.5 0.9v27.5l-1.5-0.9z"/><path class="d" d="m396 650.4l3 1.8v27.6l-3-1.8z"/><path class="d" d="m403.7 654.9l1.5 0.9v27.6l-1.5-0.9z"/><path class="d" d="m408.2 657.5l3.2 1.9v27.6l-3.2-2z"/><path class="d" d="m416.1 662.1l1.6 0.9v27.5l-1.6-0.8z"/><path class="d" d="m419.7 664.1l0.7 0.5v27.5l-0.7-0.4z"/><path class="d" d="m413.3 660.6l0.8 0.5v27.5l-0.8-0.4z"/><path class="d" d="m400.8 653.3l0.7 0.4v27.6l-0.7-0.5z"/><path class="d" d="m393.9 649.4l0.8 0.4v27.5l-0.8-0.4z"/><path class="d" d="m389 646.6l0.8 0.5v27.5l-0.8-0.4z"/><path class="d" d="m382.3 642.6l0.8 0.4v27.6l-0.8-0.5z"/><path class="d" d="m422.4 665.7l1.5 0.9v27.5l-1.5-0.8z"/><path class="i" d="m676.3 752.5l-133.6 77.1-102.6-59.1 133.9-76.9z"/><path class="j" d="m455.6 651.2l121.9-70.3 89.4 51.6-121.9 70.3z"/><g style="opacity:.3"><path class="p" d="m455.6 651.2l121.9-70.3 89.4 51.6-121.9 70.3z"/></g><path class="h" d="m576.3 591l-37.4 21.5c-0.7 0.4-0.5 1.2 0.4 1.7l42.2 24.4c0.9 0.5 2.2 0.6 2.9 0.2l37.4-21.5c0.7-0.4 0.5-1.2-0.4-1.7l-42.2-24.4c-0.9-0.5-2.2-0.6-2.9-0.2z"/><path class="c" d="m595.2 627.7c0.3 0 0.5-0.2 0.7-0.4 0.2-0.4 0.1-0.9-0.3-1.1l-35.1-20.2c-0.3-0.2-0.8-0.1-1 0.3-0.2 0.3-0.1 0.8 0.3 1l35 20.3q0.2 0.1 0.4 0.1z"/><path class="c" d="m591.3 629.9c0.3 0 0.5-0.1 0.7-0.4 0.2-0.4 0.1-0.8-0.3-1.1l-35.1-20.2c-0.3-0.2-0.8-0.1-1 0.3-0.2 0.4-0.1 0.8 0.3 1l35 20.3q0.2 0.1 0.4 0.1z"/><path class="c" d="m587.4 632.1c0.3 0 0.5-0.1 0.7-0.4 0.2-0.3 0.1-0.8-0.3-1l-35.1-20.3c-0.3-0.2-0.8 0-1 0.3-0.2 0.4-0.1 0.9 0.3 1.1l35 20.2q0.2 0.1 0.4 0.1z"/><path class="c" d="m583.5 634.4c0.3 0 0.5-0.2 0.7-0.4 0.2-0.4 0.1-0.9-0.3-1.1l-35.1-20.2c-0.3-0.2-0.8-0.1-1 0.3-0.2 0.3-0.1 0.8 0.3 1l35 20.2q0.2 0.2 0.4 0.2z"/><path class="d" d="m618.3 616.3l-1.4-0.8-16 9.2 1.4 0.8z"/><path class="d" d="m612.7 613.1l-2.3-1.4-16 9.2 2.3 1.4z"/><path class="d" d="m607.2 609.9l-1.4-0.8-16 9.2 1.4 0.8z"/><path class="d" d="m603 607.4l-2.7-1.5-16 9.2 2.7 1.6z"/><path class="d" d="m596.1 603.5l-1.4-0.8-16 9.2 1.4 0.8z"/><path class="d" d="m592.1 601.1l-2.9-1.6-16 9.2 2.9 1.6z"/><path class="d" d="m585 597l-1.4-0.7-16 9.2 1.4 0.8z"/><path class="d" d="m581.8 595.2l-0.7-0.4-15.9 9.2 0.7 0.4z"/><path class="d" d="m587.4 598.6l-0.7-0.4-15.9 9.2 0.7 0.4z"/><path class="d" d="m598.7 605l-0.7-0.4-16 9.2 0.7 0.4z"/><path class="d" d="m604.8 608.5l-0.7-0.4-16 9.2 0.7 0.4z"/><path class="d" d="m609.1 611.1l-0.7-0.4-16 9.2 0.7 0.4z"/><path class="d" d="m615.2 614.5l-0.7-0.4-16 9.2 0.7 0.4z"/><path class="d" d="m579.4 593.8l-1.3-0.7-16 9.2 1.4 0.8z"/><path class="j" d="m545 821.5l-89.4-51.6v-118.7l89.4 51.6z"/><path class="j" d="m545 821.5l-89.4-51.6v-118.7l89.4 51.6z"/><path class="j" d="m545 821.5l121.9-70.3v-118.7l-121.9 70.3z"/><path class="i" d="m545 821.5l121.9-70.3v-118.7l-121.9 70.3z"/><path class="e" d="m610 683.7l-11.8 6.8v-18.4l11.8-6.8z"/><path class="d" d="m598.2 672.1l-89.4-51.6 11.8-6.8 89.4 51.6z"/><path fill-rule="evenodd" class="d" d="m655.6 739.8q-0.5 0-0.9-0.3c-0.7-0.4-1.1-1.3-1.1-2.4 0 0 0-7.2 0-7.2v-0.6l0.4 0.1 5.6-3.3v8c0 2.1-1.2 4.4-2.8 5.3q-0.6 0.4-1.2 0.4zm-1.1-9.4v6.7c0 0.8 0.2 1.4 0.7 1.6 0.4 0.3 0.8 0.1 1.2-0.1 1.2-0.7 2.3-2.8 2.3-4.5v-0.6h-2.1l-0.4-2.8zm2.9 2.2h1.3v-4.9l-3.4 1.9 1.7 0.3z"/><path class="d" d="m656.6 745.5c-0.2 0-0.4-0.2-0.4-0.4v-6.1c0-0.2 0.2-0.5 0.4-0.5 0.3 0 0.5 0.3 0.5 0.5v6.1c0 0.2-0.2 0.4-0.5 0.4z"/><path class="d" d="m654 747c-0.2 0-0.3-0.1-0.4-0.2-0.1-0.2-0.1-0.5 0.1-0.6l5.3-3.1c0.2-0.1 0.5 0 0.6 0.2 0.2 0.2 0.1 0.5-0.1 0.6l-5.3 3.1q-0.1 0-0.2 0z"/><path class="d" d="m638.2 756.4q-0.3 0-0.5-0.1c-0.3-0.2-0.5-0.6-0.5-1.1v-1.3c0-0.2 0.2-0.4 0.4-0.4 0.3 0 0.5 0.2 0.5 0.4v1.3c0 0.2 0 0.2 0.1 0.3q0 0 0.3-0.1c0.4-0.2 0.8-1.1 0.8-2.1v-8c0-0.3 0.2-0.5 0.4-0.5 0.3 0 0.5 0.2 0.5 0.5v8c0 1.2-0.6 2.4-1.3 2.9q-0.3 0.2-0.7 0.2z"/><path fill-rule="evenodd" class="d" d="m633.4 749.3v-0.7c0-3.7 2.6-8.2 5.8-10.1 1.7-0.9 3.2-1.1 4.4-0.4 1.2 0.7 1.9 2.1 1.9 4v0.3zm8.5-10.8q-1.1 0-2.3 0.7c-2.7 1.6-4.9 5.3-5.3 8.5l10.2-5.9c0-1.4-0.5-2.4-1.4-2.9q-0.5-0.4-1.2-0.4z"/><path class="d" d="m620 766.5c-0.3 0-0.5-0.2-0.5-0.4v-15.4c0-0.3 0.2-0.5 0.5-0.5 0.2 0 0.4 0.2 0.4 0.5v15.4c0 0.2-0.2 0.4-0.4 0.4z"/><path class="d" d="m618.7 754.2q-0.1 0-0.2 0c-0.2-0.1-0.3-0.4-0.3-0.6l1.7-3.8 1.8 2.1c0.1 0.2 0.1 0.5-0.1 0.6-0.2 0.2-0.5 0.2-0.6 0l-0.9-1-1 2.4c-0.1 0.2-0.3 0.3-0.4 0.3z"/><path class="d" d="m624.2 764.2c-0.3 0-0.5-0.2-0.5-0.5v-15.4c0-0.3 0.2-0.5 0.5-0.5 0.2 0 0.4 0.2 0.4 0.5v15.4c0 0.3-0.2 0.5-0.4 0.5z"/><path class="d" d="m622.9 751.8q-0.1 0-0.2 0c-0.3-0.1-0.4-0.4-0.3-0.6l1.7-3.8 1.7 2.1c0.2 0.2 0.2 0.5 0 0.7-0.2 0.1-0.5 0.1-0.6-0.1l-0.9-1-1 2.4c-0.1 0.2-0.3 0.3-0.4 0.3z"/><path class="h" d="m554.6 772.5v30.3c0 1.1 0.8 1.6 1.8 1l47.3-27.3c1-0.6 1.9-2 1.9-3.1v-30.4c0-1.1-0.9-1.6-1.9-1l-47.3 27.3c-1 0.6-1.8 2-1.8 3.2z"/><path class="d" d="m602.6 746.3l-1.5 0.9v27.6l1.5-0.9z"/><path class="d" d="m596.4 749.9l-2.6 1.6v27.5l2.6-1.5z"/><path class="d" d="m590.2 753.5l-1.5 0.9v27.5l1.5-0.9z"/><path class="d" d="m585.5 756.2l-3.1 1.8v27.5l3.1-1.8z"/><path class="d" d="m577.8 760.7l-1.6 0.9v27.5l1.6-0.9z"/><path class="d" d="m573.3 763.2l-3.3 2v27.5l3.3-2z"/><path class="d" d="m565.3 767.9l-1.5 0.8v27.6l1.5-0.9z"/><path class="d" d="m561.8 769.9l-0.8 0.4v27.6l0.8-0.5z"/><path class="d" d="m568.2 766.4l-0.8 0.4v27.5l0.8-0.4z"/><path class="d" d="m580.7 759l-0.8 0.5v27.5l0.8-0.4z"/><path class="d" d="m587.5 755.1l-0.7 0.4v27.6l0.7-0.5z"/><path class="d" d="m592.5 752.4l-0.8 0.4v27.5l0.8-0.4z"/><path class="d" d="m599.1 748.3l-0.7 0.5v27.5l0.7-0.4z"/><path class="d" d="m559.1 771.4l-1.5 0.9v27.6l1.5-0.9z"/><path class="q" d="m274.8 724.5c0.7-10.6 6.4-117.6 6.4-117.6l-52 36.7c9.1 61.1 11.1 79.6 11.5 89.8-0.1 0.2-0.3 1.1-0.3 2.6 0.3 12.1 14.8 18.4 26.2 26.4 4.5 3.1 17.6 12.3 30.7 18.4 8.3 3.7 24.8 3.9 26.8-1.2-13.9-9.7-29.9-20.3-41-31.5-5.3-5.3-9.1-10.9-8.3-23.6z"/><path class="f" d="m347.6 792.3c0.7 0 1.9 7.4-1.8 10.5-4.4 3.7-17.1 9.8-34.2 7.9-17.1-1.8-26.4-6.7-33.3-12-6.9-5.3-16.6-12.9-24.4-14.4-7.1-1.4-15-4.3-17.3-6.4-2.3-2.1-2.2-11.4-2.2-11.4z"/><path class="e" d="m240.5 730.4c0 0-2.1 0.1-2.5 2.2-0.5 2.6-0.9 10.1-2 14.4-1.4 5.9-2.2 17.9-1.2 22.7 1 4.8 12.7 7.9 20.3 10.5 7.6 2.7 16.5 8.2 24.4 14.2 8.1 6.1 25.1 12.2 36.2 12.2 16.9 0 27.8-4.5 31.1-10.4 4-7.2 0.7-11.3-19-19.6-3.7-1.6-16.8-8.7-21.2-11.3-12.1-6.9-24.1-16.7-29.9-29.3-0.6-1.4-1.3-3.1-2.8-3.8-1.2-0.6-2.5-0.5-3.8-0.3-3.3 0.5-6.4 1.5-9.3 2.9-2.6 1.2-6.3 2.6-6.2 5.8 0 1.1 0.4 2.2 0.8 3.2 0.2 0.7 0.4 1.5-0.1 1.9-0.6 0.4-1.4 0-1.9-0.4-2-1.8-3.6-4-5.3-6-1-1-2-2.1-3.2-2.9-1-0.8-2.4-1.1-3.4-2-1.2-1.1-0.9-2.5-1-4z"/><path class="h" d="m331 778c-24.5 1.9-32 16.4-32.8 25.4 6.1 1.9 12.4 3.2 17.5 3.2 16.9 0 28.5-4.5 31.8-10.4 3.8-6.8 1-12.2-16.5-18.2z"/><path class="g" d="m294.2 778.7q-0.4 0-0.7-0.2c-0.6-0.4-0.6-1.1-0.2-1.6 3.3-4 13.1-9.4 22-8.7 0.7 0.1 1.1 0.7 1.1 1.3-0.1 0.6-0.6 1.1-1.3 1-8.4-0.7-17.3 4.6-20 7.8-0.2 0.3-0.5 0.4-0.9 0.4z"/><path class="g" d="m283.6 773q-0.5 0-0.8-0.2c-0.5-0.4-0.6-1.1-0.2-1.6 3.3-4.1 13.1-9.5 22-8.7 0.7 0.1 1.2 0.7 1.1 1.3-0.1 0.6-0.6 1.1-1.3 1-8.3-0.7-17.3 4.6-19.9 7.8-0.3 0.3-0.6 0.4-0.9 0.4z"/><path class="g" d="m273.6 766.5q-0.4 0-0.7-0.3c-0.5-0.4-0.6-1.1-0.2-1.6 3.3-4 13.1-9.4 22-8.6 0.7 0.1 1.1 0.6 1.1 1.2-0.1 0.7-0.6 1.1-1.3 1.1-8.3-0.8-17.3 4.6-19.9 7.7-0.3 0.3-0.6 0.5-1 0.5z"/><path class="g" d="m263.9 759.9q-0.4 0-0.7-0.2c-0.6-0.4-0.7-1.1-0.3-1.6 4.6-5.7 15.2-9.6 24.1-8.8 0.7 0.1 1.2 0.6 1.1 1.3-0.1 0.6-0.6 1-1.3 1-8-0.7-17.9 2.8-21.9 7.9-0.3 0.3-0.6 0.4-1 0.4z"/><path class="q" d="m189.2 638.4l-54.2-11.7c-1.5 33.5-0.6 78.9-1.7 110.4-0.3 5.9-3.3 46-1.6 58.3 2.5 18.5 27.3 17.3 29.4 6.4 2-10.9 3.8-57.4 4.2-62.2 1.2-20.2 12.7-54.1 20.7-90 0.4-1.7 2.8-9.5 3.2-11.2z"/><path class="f" d="m169.8 809.9c-0.2 10.8-1.8 18-5.8 24.4-4 6.5-12.1 8.8-20.4 7.2-8.4-1.5-19.2-6-22-15.2-2.8-9.2-2.6-15.6-1.2-25.6z"/><path class="e" d="m133.4 733.3c-3.4 0.3-3.8 14.8-5.1 29.3-1.4 15.6-6.3 22.2-7.6 35-1.5 14.6-0.3 21 5.8 29.6 6.2 8.5 27 16.4 36.5 3.4 7.7-10.5 7.5-21.9 6.1-36.3-1.4-15-2.6-25.5-2.4-36.9 0.1-10.9 2-21-1-22.1-0.1 1.6-0.3 3.6-0.4 5.2-0.2 1.2-0.2 7.1-2.1 7.2-0.3-1.4-0.3-2.7-0.3-4.1 0.1-1.2-0.1-2.5-1.1-3.4-0.9-1-3.9-1.6-5.3-1.8-3.4-0.5-6.8-0.9-10.2-1q-2.6-0.1-5.1 0c-1.4 0-3 0.2-4.3 0.7-0.8 0.3-1.5 0.8-1.8 1.5-0.2 0.6-0.1 1.1-0.1 1.7q0.1 1.5-0.3 3c-0.1 0.4-0.4 1-0.9 0.9-0.4-0.1-0.6-0.5-0.6-0.9-0.1-1.7 0.1-3 0.1-5.1 0-0.9 0.1-2.2 0.1-3.1 0-1-0.1-1.9 0-2.8z"/><path class="h" d="m120.1 806c-0.1 9 0.7 15.2 5.6 21.9 6.1 8.6 28.6 16.4 38.1 3.4 4.7-6.4 5.7-13.8 6-21.4-6.5-9.5-40.5-12.5-49.7-3.9z"/><path class="g" d="m160.4 794.4q-0.3 0-0.5-0.1c-0.1 0-14.3-5.2-29.5-1.5-0.6 0.1-1.3-0.2-1.5-0.8-0.2-0.6 0.2-1.2 0.9-1.4 16-3.9 30.5 1.5 31.1 1.7 0.7 0.2 1 0.9 0.7 1.5-0.2 0.4-0.7 0.7-1.2 0.6z"/><path class="g" d="m130.8 781.9c-0.5 0-0.9-0.3-1.1-0.7-0.3-0.6 0-1.2 0.7-1.4 15-5.2 30.4 1.1 31.1 1.4 0.6 0.3 0.9 0.9 0.6 1.5-0.3 0.5-1.1 0.8-1.7 0.5-0.1-0.1-15.1-6.1-29.1-1.4q-0.3 0.1-0.5 0.1z"/><path class="g" d="m131.2 771.7c-0.5 0-0.9-0.3-1.1-0.7-0.3-0.6 0-1.2 0.7-1.5 16.5-5.9 31.1 1.1 31.7 1.4 0.6 0.3 0.8 0.9 0.5 1.5-0.3 0.5-1.1 0.7-1.7 0.4-0.2-0.1-14.2-6.7-29.6-1.2q-0.2 0.1-0.5 0.1z"/><path class="r" d="m131.7 760.2c-0.5 0-0.9-0.3-1.1-0.7-0.3-0.6 0-1.2 0.7-1.4 15.5-5.8 31.3 1.3 31.9 1.6 0.7 0.3 0.9 0.9 0.6 1.5-0.4 0.5-1.1 0.7-1.7 0.5-0.2-0.1-15.5-7-29.8-1.6q-0.3 0.1-0.6 0.1z"/><path class="d" d="m157.7 363.6c-1.3 61-12.2 196.6-12.2 196.6-0.9 7.5-11.7 39.4-12.1 66.5-0.7 42.6-1.6 74.8-1.6 74.8 0 0 23.8 9.4 41.3 2.9 0 0 22.7-90.5 29-118.7 7.6-33.6 26.5-96.1 26.5-96.1l-1.3 88.8c0 0-3.8 27.5-0.7 53.8 2 17.9 9.2 67.8 9.2 67.8 0 0 21.9 4.4 40.9-1.2 0 0 11.4-107.2 12.3-123.7 1.1-18.8 6.9-207.8 6.9-207.8z"/><path class="e" d="m228.6 489.6l8.5-56.6c0 0 20.8-0.9 35-14.2 0 0-1.8 13.3-27.7 21.3l-9.8 47.8-7.6 88.9z"/><path class="q" d="m265.7 185.6c11-0.5 31.5-1.2 46.3 16.9 10.3 12.8 38.6 43.5 54.6 63.8 10.7-11.2 36.8-38.3 41-46.2 5.4-9.3 8.1-18.5 9.8-23.3 2-6.2 2.8-10.9 3.4-14.6 1.3-8.6 0.4-15 0.3-18.2-0.1-5.5 8-2.7 11.2 6.1 2.3 6.4 2.1 11 2.4 14.9 3-1.4 11.8-5.7 13.2-6.4 4.8-2.2 20-7.5 21.5 1 0.3 2-0.3 4.1 0.5 5.8 0.4 0.9 1.1 1.5 1.7 2.3 2.2 2.7 2.6 6.7 1.2 9.9-0.7 1.5-1.1 2.8-0.8 4.5 0.2 1.7 0.6 3.3 0.2 5-0.4 1.3-1.3 2.3-2 3.5-0.8 1.6-1 3.3-1.3 5.1-0.2 1.7-0.4 3.5-1.1 5.1-1.7 3.8-6.3 4.7-9.9 5.9-4.7 1.7-10.9 3.9-15.8 6.3-8.5 5.6-31.4 47-54.6 73.5-7.9 9.1-15.1 14.8-22.6 13.8h0.1c-6.1-0.2-13.7-5.7-20.9-12-23.1-19.9-60.2-59.1-60.2-59.1-15.6-18.8-20-51-18.2-63.6z"/><path class="d" d="m275.9 182.6c7.3 1.1 12.4 0.9 21.7 6.2 8.2 4.6 11.1 8.6 20.6 19.2 9.5 10.6 32.2 38.2 32.2 38.2 0 0-9.6 23.1-39.6 31.5l-33.1-32.1z"/><path class="s" d="m440.8 185.9c-4.7 1.6-5.9 4.8-5.6 11.7 0.2 4-0.7 11.6-5 14.7 0 0 3.6-0.4 5.6-2.7 2-2.2 2.6-2.4 3.8-1.2 1.2 1.1 3.1 1.6 3.1 1.6 0 0-2.5 2.9-0.3 6.3 2.3 3.5 11.8 3.2 19.4-1.1 0 0-12.5 4.4-15.5 0.5-3.1-4 3.4-9.2 8.4-10.7 0 0-12.1 3.3-14.1-0.7-2-3.9 2.9-7.1 10-9.2 0 0-10 2.2-11.8-1.2-2.3-4.1 0.7-6.6 2-8z"/><path class="j" d="m163.5 188.8c0 0-11.7 10.3-14.7 21.5-1.5 5.5-2.9 10.1 1.8 40.5 4.4 29.1 4.4 37.8 5.4 60.4l1.1 60.7c17.4 20.4 101.8 31.4 142.4 4 0 0 0.2-105.2-2.7-139.9-1.9-23.6-9.1-45.7-17.2-52.9-11.1-1.9-21.7-3.2-21.7-3.2l-40.6-2.4z"/><path class="e" d="m278.3 104.4c5.5-12.4 0.2-28.8-6.3-36.5-9.3-11.2-23.9-16-45.8-14.7-16.7 1.1-33.1 8-36.2 25.1-13.4 4-11.8 26-8.5 35.7 6.7 19.7 20 36.8 20.3 46.9z"/><path class="q" d="m278.3 150.8c-2.6 9.5-8.1 16.4-16.9 17.8-5.2 0.8-13.9 0.1-13.9 0.1l0.4 12.1c11.8 10.1 7.5 23.4-0.4 35.4-9.8-10.9-21.1-14.8-30.9-19.1-9.7-4.3-14.2-13.8-14.2-13.8l-1.3-40.9c0 0-5.4 6.1-14.2 0.3-6.1-4-10.5-14.2-6.1-23.7 4.4-9.2 13.2-5.4 15.9-2.6 2.7 2.8 5.9 8.1 8.2 7.4 3.4-1.2 4.5-3.3 5.4-5.6 1.6-4 2.7-9.1 2.9-18 2.4-1.2 4.8-3 6.9-5.3 3.7-4.2 5.8-9.2 5.9-13.7 19-6 40.9-3.2 48.8 2.9 4.5 8 4.7 26.6 5.5 37.4 0.8 11.6 0.2 21.3-2 29.3z"/><path class="s" d="m247.5 168.7c-9.7-0.6-29.3-5.1-34.5-10.5-5.2-5.5-7.4-16.6-7.4-16.6 0 0 0.8 14.1 4.8 20.2 4 6.2 14.2 8.9 20.4 10.5 6.2 1.5 16.9 2.5 16.9 2.5z"/><path class="d" d="m247.5 216.2c-5.1-3.1-16.3-15.9-21.9-9.9-5.6 5.9-8.6 7.5-12.3 6.4-3.7-1.1-11.8-9.1-17.2-15-5.3-5.9-7-14.3-7-14.3 0 0 5.2-6.3 7.5-10.5 2.6-4.4 2-5.7 5.3-5.9l0.2 8.4c0 0 2.1 4.6 11.2 10.9 9.2 6.2 27.6 15.5 34.2 29.9z"/><path class="d" d="m247.5 216.2c3-2.8 7.9-15.7 9.2-15.3 2 0.6 5.5 9.5 7.1 7.4 2.7-3.3 1.9-18.2-2.5-23.7-4.3-5.2-10.3-11.2-13.7-11.8l0.3 8c0 0 3.3 6.5 3.3 12.9-0.1 4.5-3.1 18.2-3.7 22.5z"/><path class="f" d="m241.4 115.2c0 2.3-1.8 4.1-3.9 4.1-2.2 0-4-1.8-4-4.1 0-2.2 1.8-4 3.9-4 2.2 0 4 1.8 4 4z"/><path class="f" d="m235.9 102.7l-8 5.3c-1.4-2.2-0.8-5.3 1.4-6.8 2.2-1.5 5.1-0.8 6.6 1.5z"/><path class="f" d="m274 106.4l-8.7-4.2c1.1-2.5 3.9-3.6 6.3-2.4 2.4 1.1 3.5 4.1 2.4 6.6z"/><path class="f" d="m271.1 115c0 2.3-1.8 4.1-3.9 4.1-2.2 0-4-1.8-4-4.1 0-2.3 1.8-4.1 3.9-4.1 2.2 0 4 1.8 4 4.1z"/><path class="s" d="m250.4 106.8l2.8 28.3 15.2-4.6z"/><path class="t" d="m241.4 141.6l16.2 3.6c-0.9 4.7-5.2 7.6-9.7 6.6-4.5-0.9-7.4-5.5-6.5-10.2z"/><path class="s" d="m247.9 151.8c0.3 0.1 0.6 0.1 1 0.2-0.1-4.1-3.5-7.4-7.6-7.4 0.5 3.5 3 6.5 6.6 7.2z"/><path class="f" d="m379.1 279l-106.3 20.8-39.2 127.8 101.2-22.5z"/><path class="i" d="m290.5 375.2c-0.7 3.4-5 14.5-17.2 17.7-14 3.7-28.6-1.6-28.6-1.6l3.3-10.7z"/><path class="i" d="m347.3 295.9c0 0 0.5-1.8 1.1-4 0.6-2.1-5.5-2.6-13.7-1.1l-15.6 3c-8.2 1.6-15.3 4.6-15.9 6.8l-1.2 3.9z"/><path class="j" d="m355.5 281.3c0.4-1.4-2-1.9-5.5-1.2l-6.2 1.3c0 0 2.4-8.5-11.3-6.4-13.8 2.2-17.4 11.8-17.4 11.8 0 0-2.9 0.6-6.6 1.4-3.6 0.8-7 2.5-7.5 3.9l-1 2.4 54.8-10.7c0 0 0.3-1.2 0.7-2.5z"/><path class="o" d="m355.5 281.3c0.4-1.4-2-1.9-5.5-1.2l-6.2 1.3c0 0 2.4-8.5-11.3-6.4-13.8 2.2-17.4 11.8-17.4 11.8 0 0-2.9 0.6-6.6 1.4-3.6 0.8-7 2.5-7.5 3.9l-1 2.4 54.8-10.7c0 0 0.3-1.2 0.7-2.5z"/><path class="j" d="m303.8 301c0.5-1.8 5.5-4.2 11.9-5.8q0.1-0.4 0.2-0.7c0.5-1.8-0.3-3.1-4.1-2.3l-0.3-1.5 38-7.1-1.7 1.5c-5 0.9-7.1 1.4-8 4.8-0.1 0.2-0.2 0.5-0.2 0.7 5.9-0.7 10 0 9.5 1.7-0.7 2.2-1.2 4-1.2 4l-45.2 8.7z"/><path class="u" d="m303.8 301c0.5-1.8 5.5-4.2 11.9-5.8q0.1-0.4 0.2-0.7c0.5-1.8-0.3-3.1-4.1-2.3l-0.3-1.5 38-7.1-1.7 1.5c-5 0.9-7.1 1.4-8 4.8-0.1 0.2-0.2 0.5-0.2 0.7 5.9-0.7 10 0 9.5 1.7-0.7 2.2-1.2 4-1.2 4l-45.2 8.7z"/><path class="q" d="m256.4 353.3c13 4.4 26 4.7 39.5 4.7 3.3 0 5.8 0.5 6.8 3.6 0.3 1.1 0.8 2.7-3.5 3.9-1.1 0.4-2.6 0.8-3.3 1.8-1 1.5-0.5 3.1-0.7 4.9-0.4 2.7-2.3 4.9-4.1 6.9-2 2.3-4.1 4.6-6.7 6.2-8.2 5.2-20.9 5.9-30.3 4.3-6.3-1-12.7-3.3-18.7-5.5-5.7-2.1-40.6-12.4-44.7-13.8-30.8-10.8-73.1-23.9-75.6-38.5-2.5-14.6 5.3-60.1 10.9-97.1 4.5-29.9 16.7-40.6 36.3-44.7 21.6 24.5 8 66.9 8 66.9l-7.9 56.5c3.4 2.8 53.7 31 62.4 33.9 3.2 1 9.1-0.3 12.2-1.3 8.4-2.9 14.2-2.7 22.3-2.3"/><path class="d" d="m163.5 188.8c-20.9 2.9-33.3 13.6-37.5 33.8-3.5 17-10.1 71.9-10.1 71.9 13.9 12.3 36.7 11.6 49 7.3l6.4-44.1c5.1-11.3 13.1-44.9-7.8-68.9z"/><path class="d" d="m150.1 367.2l-10.6 5.8c-1.2 0.7-2.3 2.5-2.4 3.9-0.2 9.5-1 41.9 0.5 59.7 0.2 1.5 1.3 3.2 2.6 4 6 3.3 22.3 12.3 29.7 14.3 1.4 0.4 3.7 0 5.1-0.5l7.5-3.1c1.4-0.5 2.5-2.1 2.5-3.6 0-18.9 3.3-39.6 6.4-60.2 0.2-1.4-0.6-3.1-2-3.8l-34.6-16.7c-1.3-0.6-3.4-0.5-4.7 0.2z"/><path class="e" d="m137.6 436.6c-1.5-17.8-0.7-50.2-0.5-59.7 0.1-1.4 1.2-2.1 2.5-1.4l32.2 16c1.3 0.6 2.3 2.3 2.2 3.8-0.7 8.4-2.6 35.2-1.6 57.4 0.1 1.5-1.1 2.6-2.5 2.2-7.4-2-23.7-11-29.7-14.3-1.3-0.8-2.4-2.5-2.6-4z"/><path class="f" d="m170.3 455c1.4 0.3 3.5-0.1 4.7-0.6l7.5-3.1c1.4-0.5 2.3-2.1 2.4-3.6 1.5-19.4 3.4-39.6 6.5-60.2 0.1-0.7 0-1.4-0.4-2l-17.4 7.9c0.3 0.6 0.4 1.3 0.4 1.9-0.7 8.4-2.7 35.2-1.6 57.4 0.1 1.3-0.9 2.4-2.1 2.3z"/><path class="f" d="m143.4 383.6l23.7 11.5-1.3 19.2-23.1-10.1c0 0 0.2-12.4 0.7-20.6z"/><path class="j" d="m165.9 412.9l-21.8-9.6c0 0 0.1-11 0.5-19.1l22.5 10.9z"/><path class="u" d="m165.9 412.9l-21.8-9.6c0 0 0.1-11 0.5-19.1l22.5 10.9z"/><path class="f" d="m177 382.4l-5.9 2.8-21.2-10.3 5.7-2.9z"/><path class="j" d="m176.1 382.8l-5 2.4-20.3-9.9 4.9-2.5z"/><path class="u" d="m176.1 382.8l-5 2.4-20.3-9.9 4.9-2.5z"/><path class="u" d="m173.1 381.4l-5 2.3-0.7-0.3 5-2.4z"/><path class="u" d="m168.6 379.1l-5 2.4-0.7-0.3 5-2.4z"/><path class="u" d="m164.1 377l-5 2.3-0.7-0.3 5-2.4z"/><path class="u" d="m160 375l-5 2.3-0.7-0.3 5-2.4z"/><path class="f" d="m166.8 420.9l-0.1 2.4c-0.1 0.7-0.7 1.1-1.4 0.8l-4.2-1.7c-0.7-0.3-1.2-1.1-1.2-1.9l0.2-2.4c0-0.7 0.6-1.1 1.3-0.8l4.3 1.8c0.7 0.3 1.2 1.1 1.1 1.8z"/><path class="f" d="m166.9 428.7l-0.2 2.4c0 0.7-0.6 1.1-1.3 0.8l-4.3-1.7c-0.6-0.3-1.2-1.1-1.1-1.8l0.1-2.4c0-0.8 0.6-1.1 1.2-0.9l4.4 1.8c0.7 0.2 1.2 1 1.2 1.8z"/><path class="f" d="m166.9 436.4l-0.1 2.4c0 0.7-0.6 1.1-1.3 0.9l-4.3-1.7c-0.7-0.2-1.2-1-1.2-1.8l0.1-2.4c0-0.7 0.6-1.1 1.2-0.8l4.4 1.6c0.7 0.3 1.2 1.1 1.2 1.8z"/><path class="f" d="m167 444.2l-0.1 2.3c0 0.8-0.6 1.2-1.3 0.9l-4.3-1.5c-0.7-0.3-1.3-1.1-1.3-1.8l0.1-2.4c0-0.8 0.5-1.2 1.2-0.9l4.4 1.6c0.7 0.2 1.3 1 1.3 1.8z"/><path class="f" d="m157.3 416.6l-0.2 2.4c0 0.8-0.6 1.1-1.3 0.9l-4.2-1.8c-0.7-0.3-1.2-1.1-1.2-1.8l0.1-2.6c0-0.7 0.6-1.1 1.3-0.8l4.3 1.8c0.7 0.3 1.2 1.1 1.2 1.9z"/><path class="f" d="m157.2 424.3l-0.1 2.4c0 0.8-0.6 1.1-1.3 0.9l-4.2-1.8c-0.7-0.3-1.3-1.1-1.2-1.8l0.1-2.6c0-0.7 0.6-1 1.2-0.8l4.4 1.8c0.6 0.3 1.2 1.1 1.1 1.9z"/><path class="f" d="m157.2 431.9l-0.1 2.5c0 0.8-0.6 1.1-1.3 0.8l-4.3-1.7c-0.6-0.2-1.2-1.1-1.2-1.8l0.1-2.5c0-0.8 0.6-1.1 1.3-0.9l4.3 1.8c0.7 0.3 1.2 1.1 1.2 1.8z"/><path class="f" d="m157.2 439.6l-0.1 2.5c-0.1 0.7-0.6 1.1-1.3 0.8l-4.3-1.7c-0.7-0.2-1.2-1-1.2-1.8l0.1-2.5c0-0.7 0.6-1.1 1.2-0.8l4.4 1.7c0.7 0.3 1.2 1.1 1.2 1.8z"/><path class="f" d="m147.7 412.2l-0.1 2.6c0 0.7-0.6 1.1-1.3 0.8l-4.2-1.8c-0.7-0.3-1.2-1.1-1.2-1.8l0.1-2.7c0-0.7 0.5-1 1.2-0.8l4.3 1.8c0.7 0.3 1.2 1.2 1.2 1.9z"/><path class="f" d="m147.7 419.7l-0.1 2.6c0 0.7-0.6 1-1.3 0.8l-4.2-1.8c-0.7-0.3-1.2-1.1-1.2-1.8l0.1-2.7c0-0.7 0.6-1.1 1.2-0.8l4.3 1.8c0.7 0.3 1.2 1.1 1.2 1.9z"/><path class="f" d="m147.7 427.1l-0.1 2.6c0 0.8-0.6 1.1-1.2 0.8l-4.3-1.7c-0.6-0.3-1.2-1.1-1.1-1.9v-2.6c0-0.7 0.6-1.1 1.3-0.8l4.2 1.8c0.7 0.3 1.2 1.1 1.2 1.8z"/><path class="f" d="m147.7 434.6v2.6c-0.1 0.7-0.6 1.1-1.3 0.8l-4.2-1.7c-0.7-0.3-1.2-1.1-1.2-1.9v-2.6c0.1-0.8 0.6-1.1 1.3-0.8l4.3 1.8c0.6 0.3 1.2 1.1 1.1 1.8z"/><path class="j" d="m576.1 178.2l-24.8 14.3 9.8 22.1c0.3 0.5 0.6 0.8 1 1 1.2 0.7 8.1 4.7 8.5 4.9 1.2 0.7 2.8 0.2 3.3-1.3l10.7-36.1z"/><path class="i" d="m576.1 178.2l-24.8 14.3 9.8 22.1c0.3 0.5 0.6 0.8 1 1 1.2 0.7 8.1 4.7 8.5 4.9 1.2 0.7 2.8 0.2 3.3-1.3l10.7-36.1z"/><path class="j" d="m559.8 197.4l9.9 22.1c0.8 1.9 3.6 1.7 4.2-0.3l10.7-36.1z"/><path class="j" d="m607.2 39l-93.3 53.9c-1.2 0.7-2.1 2.3-2.1 3.7v115.8c0 1.3 0.9 3 2.1 3.6l7.7 4.3c1.2 0.7 3.1 0.7 4.3 0l93.3-53.8c1.2-0.7 2.1-2.4 2.1-3.7v-115.8c0-1.4-1-3-2.1-3.7l-7.7-4.3c-1.2-0.6-3.1-0.6-4.3 0z"/><path class="m" d="m621.3 46.6c-0.2-1.1-1.1-1.4-2.1-0.8l-93.3 53.8c-0.6 0.4-1.1 1-1.5 1.6l-12-6.8c0.4-0.6 0.9-1.2 1.5-1.5l93.3-53.9c1.2-0.6 3.1-0.7 4.3 0l7.7 4.3c1 0.6 1.9 2 2.1 3.3z"/><path class="j" d="m523.8 219.1v-115.8c0-1.3 0.9-3 2.1-3.7l93.3-53.8c1.2-0.7 2.1-0.2 2.1 1.2v115.8c0 1.3-0.9 3-2.1 3.7l-93.3 53.8c-1.2 0.7-2.1 0.1-2.1-1.2z"/><path class="i" d="m525.9 220.3c-1.1 0.7-3.2 0.7-4.3 0l-7.7-4.3c-1.2-0.6-2.1-2.3-2.1-3.6v-115.8c0-0.7 0.2-1.5 0.7-2.2l11.9 6.8c-0.4 0.7-0.7 1.4-0.7 2.1v115.8c0.1 1.2 0.9 1.9 2.2 1.2z"/><path fill-rule="evenodd" class="h" d="m533.7 135.6q-0.2 0-0.5-0.2c-0.3-0.2-0.5-0.5-0.5-0.9v-20.2c0-0.3 0.2-0.7 0.5-0.9l17.5-10.1c0.3-0.2 0.7-0.2 1 0 0.4 0.2 0.6 0.6 0.6 1v20.1c0 0.4-0.2 0.8-0.6 0.9l-17.4 10.1q-0.3 0.2-0.6 0.2zm1.1-20.6v17.6l15.3-8.8v-17.7z"/><path class="d" d="m553.2 99.2c-1-0.4-2.3 0.1-2.7 1.1l-8 19.1-1.9-1.9c-0.9-0.8-2.2-0.8-3 0.1-0.8 0.8-0.8 2.1 0 3l4.1 4c0.4 0.4 1 0.6 1.5 0.6q0.2 0 0.4-0.1c0.7-0.1 1.3-0.6 1.6-1.2l9.2-21.9c0.4-1.1-0.1-2.3-1.2-2.8z"/><path class="d" d="m566 102.7l44.5-25.7c1.6-0.9 2.8-0.2 2.8 1.5 0 1.6-1.2 3.7-2.8 4.6l-44.5 25.7c-1.5 0.9-2.8 0.3-2.8-1.4 0-1.7 1.3-3.8 2.8-4.7z"/><path fill-rule="evenodd" class="h" d="m533.7 165.8q-0.2 0-0.5-0.1c-0.3-0.2-0.5-0.6-0.5-1v-20.1c0-0.4 0.2-0.8 0.5-1l17.5-10c0.3-0.2 0.7-0.2 1 0 0.4 0.2 0.6 0.5 0.6 0.9v20.1c0 0.4-0.2 0.8-0.6 1l-17.4 10.1q-0.3 0.1-0.6 0.1zm1.1-20.6v17.7l15.3-8.9v-17.6z"/><path class="d" d="m553.2 129.4c-1-0.4-2.3 0.1-2.7 1.2l-8 19-1.9-1.8c-0.9-0.9-2.2-0.8-3 0-0.8 0.8-0.8 2.2 0 3l4.1 4c0.4 0.4 1 0.6 1.5 0.6q0.2 0 0.4 0c0.7-0.2 1.3-0.6 1.6-1.3l9.2-21.9c0.4-1.1-0.1-2.3-1.2-2.8z"/><path class="d" d="m566 132.9l44.5-25.7c1.6-0.9 2.8-0.3 2.8 1.4 0 1.7-1.2 3.8-2.8 4.6l-44.5 25.8c-1.5 0.8-2.8 0.2-2.8-1.5 0-1.7 1.3-3.7 2.8-4.6z"/><path fill-rule="evenodd" class="h" d="m533.7 196q-0.2 0-0.5-0.1c-0.3-0.2-0.5-0.6-0.5-0.9v-20.2c0-0.4 0.2-0.7 0.5-0.9l17.5-10.1c0.3-0.2 0.7-0.2 1 0 0.4 0.2 0.6 0.5 0.6 0.9v20.2c0 0.4-0.2 0.7-0.6 0.9l-17.4 10.1q-0.3 0.1-0.6 0.1zm1.1-20.6v17.7l15.3-8.8v-17.7z"/><path class="d" d="m553.2 159.7c-1-0.5-2.3 0-2.7 1.1l-8 19-1.9-1.8c-0.9-0.8-2.2-0.8-3 0-0.8 0.9-0.8 2.2 0 3l4.1 4c0.4 0.4 1 0.6 1.5 0.6q0.2 0 0.4 0c0.7-0.1 1.3-0.6 1.6-1.3l9.2-21.9c0.4-1-0.1-2.3-1.2-2.7z"/><path class="d" d="m566 163l44.5-25.7c1.6-0.9 2.8-0.2 2.8 1.4 0 1.7-1.2 3.8-2.8 4.7l-44.5 25.7c-1.5 0.9-2.8 0.2-2.8-1.4 0-1.7 1.3-3.8 2.8-4.7z"/></svg>