<svg width="1000" height="1000" viewBox="0 0 1000 1000" fill="none" xmlns="http://www.w3.org/2000/svg">
<path opacity="0.4" d="M153.6 910.6C-37.7 813.8 -37.7 656.9 153.6 560.2C344.9 463.4 655.1 463.4 846.4 560.2C1037.7 656.9 1037.7 813.8 846.4 910.6C655.1 1007.4 344.9 1007.4 153.6 910.6Z" fill="#F5F5F5"/>
<path opacity="0.6" d="M325.4 741.6C381.5 774 381.5 826.4 325.4 858.8C269.4 891.1 178.5 891.1 122.5 858.8C66.5 826.4 66.5 774 122.5 741.6C178.5 709.2 269.4 709.2 325.4 741.6Z" fill="#E0E0E0"/>
<path opacity="0.6" d="M930.9 710L695.2 574.3C691.2 572 684.8 572 680.8 574.3L331.9 775.8C327.9 778.1 327.9 781.8 331.9 784.1L567.6 919.7C571.6 922 578 922 582 919.7L930.9 718.3C934.8 716 934.8 712.3 930.9 710Z" fill="#E0E0E0"/>
<path d="M714.3 228.1L854.3 309C864.3 314.8 872.4 328.8 872.4 340.3V616.7L884.3 623.6V339.2C884.3 323 872.8 303.2 858.8 295.1L713.7 211.3C699.7 203.2 688.2 209.8 688.2 226V510.4L700.2 517.3V236.3C700.2 227.3 706.5 223.7 714.3 228.1Z" fill="#E0E0E0"/>
<path d="M606.3 845.8C606.3 831.2 616.5 813.5 629.1 806.2C635.7 802.4 641.7 802.3 645.9 805L661.3 813.8L628.5 869.5L613.2 860.7C609 858.4 606.3 853.2 606.3 845.8Z" fill="#455A64"/>
<path d="M645.1 815.5C632.5 822.7 622.3 840.5 622.3 855C622.3 869.6 632.5 875.5 645.1 868.2C657.7 860.9 668 843.2 668 828.6C668 814.1 657.7 808.2 645.1 815.5Z" fill="#37474F"/>
<path d="M652.9 837.4C652.9 831.7 649.4 829.1 645.1 831.5C640.8 834 637.4 840.6 637.4 846.3C637.4 852 640.8 854.6 645.1 852.1C649.4 849.7 652.9 843.1 652.9 837.4Z" fill="#263238"/>
<path d="M618.3 791.1C618.3 791.1 618.3 817.2 630.8 826.4C633.1 828.2 635.6 829.4 637.1 830.6C640.2 833.2 638.1 838.1 634.3 840.2C628.7 843.2 598.2 835 585.3 810.2L618.3 791.1Z" fill="#F0F0F0"/>
<path d="M630.2 797.9C630.2 797.9 630.2 824 642.6 833.2C645 835 647.4 836.2 648.9 837.4C652.1 840 650 844.9 646.1 847C640.5 850 610 841.8 597.1 817L630.2 797.9Z" fill="#FAFAFA"/>
<path d="M645.1 839.3C643.9 840 642.9 841.7 642.9 843.1C642.9 844.5 643.9 845.1 645.1 844.4C646.3 843.7 647.3 842 647.3 840.6C647.3 839.2 646.3 838.6 645.1 839.3Z" fill="#263238"/>
<path d="M854.3 702.6C854.3 688 864.6 670.3 877.2 663C883.8 659.2 889.8 659 893.9 661.8L909.3 670.6L876.6 726.3L861.3 717.5C857 715.2 854.3 710 854.3 702.6Z" fill="#455A64"/>
<path d="M893.2 672.2C880.6 679.5 870.3 697.2 870.3 711.8C870.3 726.4 880.6 732.3 893.2 725C905.8 717.7 916 700 916 685.4C916 670.8 905.8 664.9 893.2 672.2Z" fill="#37474F"/>
<path d="M900.9 694.1C900.9 688.4 897.5 685.8 893.2 688.3C888.9 690.8 885.5 697.4 885.5 703.1C885.5 708.8 888.9 711.4 893.2 708.9C897.5 706.5 900.9 699.8 900.9 694.1Z" fill="#263238"/>
<path d="M866.4 647.9C866.4 647.9 866.4 674 878.9 683.2C881.2 684.9 883.7 686.1 885.1 687.4C888.3 690 886.2 694.9 882.4 696.9C876.8 699.9 846.3 691.8 833.3 667L866.4 647.9Z" fill="#F0F0F0"/>
<path d="M878.3 654.7C878.3 654.7 878.3 680.8 890.7 690C893 691.7 895.5 692.9 897 694.2C900.2 696.8 898.1 701.7 894.2 703.7C888.6 706.7 858.1 698.6 845.2 673.8L878.3 654.7Z" fill="#FAFAFA"/>
<path d="M893.2 696.1C892 696.8 891 698.5 891 699.9C891 701.3 892 701.8 893.2 701.1C894.4 700.4 895.4 698.7 895.4 697.3C895.4 695.9 894.4 695.4 893.2 696.1Z" fill="#263238"/>
<path d="M896.3 630.5L676.3 503.5L316.8 711L536.8 838L896.3 630.5Z" fill="#455A64"/>
<path d="M896.3 630.5L896.2 644.3L536.8 851.8V838L896.3 630.5Z" fill="#37474F"/>
<path d="M316.8 711V724.8L536.8 851.8V838L316.8 711Z" fill="#263238"/>
<path opacity="0.1" d="M864.3 631.1L675.6 740.1L483.2 629.1L672.4 520.4L864.3 631.1Z" fill="black"/>
<path d="M857.9 501.5L685.1 401.6L502.4 507.3L675.2 607.2L857.9 501.5Z" fill="#FF9E22"/>
<path opacity="0.7" d="M857.9 501.5L685.1 401.6L502.4 507.3L675.2 607.2L857.9 501.5Z" fill="white"/>
<path d="M675.2 728L857.9 622.3V501.5L675.2 607.2V728Z" fill="#FF9E22"/>
<path opacity="0.6" d="M675.2 728L857.9 622.3V501.5L675.2 607.2V728Z" fill="white"/>
<path fill-rule="evenodd" clip-rule="evenodd" d="M695.4 687.9C694.8 687.9 694.267 687.767 693.8 687.5C692.6 686.8 691.9 685.2 691.9 683.2V670.4V669.4L692.5 669.5L702.5 663.6V677.9C702.5 681.6 700.4 685.7 697.6 687.3C696.867 687.7 696.133 687.9 695.4 687.9ZM693.5 671.3V683.2C693.5 684.6 693.9 685.7 694.6 686.1C695.4 686.5 696.2 686.2 696.8 685.9C699 684.6 700.9 681 700.9 677.9V676.9H697.2L696.5 671.9L693.5 671.3ZM698.6 675.2H701V666.4L695 669.9L697.9 670.4L698.6 675.2Z" fill="#455A64"/>
<path d="M697.2 698.1C696.8 698.1 696.4 697.8 696.4 697.3V686.6C696.4 686.1 696.8 685.8 697.2 685.8C697.6 685.8 698 686.1 698 686.6V697.3C698 697.8 697.6 698.1 697.2 698.1Z" fill="#455A64"/>
<path d="M692.5 700.8C692.3 700.8 692 700.7 691.8 700.4C691.6 700.1 691.7 699.6 692.1 699.3L701.5 693.9C701.9 693.7 702.4 693.8 702.6 694.2C702.8 694.6 702.7 695.1 702.3 695.3L692.9 700.7C692.767 700.767 692.633 700.8 692.5 700.8Z" fill="#455A64"/>
<path d="M725.8 682.3C725.533 682.3 725.233 682.233 724.9 682.1C724.3 681.7 724 681 724 680.2V678C724 677.5 724.3 677.2 724.8 677.2C725.2 677.2 725.6 677.5 725.6 678V680.2C725.6 680.5 725.7 680.7 725.8 680.7C725.8 680.7 726 680.7 726.3 680.6C727 680.1 727.8 678.5 727.8 676.9V662.6C727.8 662.2 728.1 661.8 728.6 661.8C729 661.8 729.4 662.2 729.4 662.6V676.9C729.4 679 728.4 681.2 727.1 681.9C726.633 682.167 726.2 682.3 725.8 682.3Z" fill="#455A64"/>
<path fill-rule="evenodd" clip-rule="evenodd" d="M717.4 669.8V668.4C717.4 661.9 722 653.9 727.6 650.6C730.5 648.9 733.3 648.7 735.4 649.9C737.6 651.1 738.7 653.7 738.7 657V657.5L717.4 669.8ZM732.6 650.7C731.3 650.7 730 651.1 728.5 651.9C723.7 654.7 719.7 661.2 719.1 666.9L737.2 656.5C737.1 654 736.2 652.1 734.7 651.2C734.1 650.867 733.4 650.7 732.6 650.7Z" fill="#455A64"/>
<path d="M754.7 665.8C754.3 665.8 753.9 665.5 753.9 665V637.7C753.9 637.2 754.3 636.9 754.7 636.9C755.2 636.9 755.5 637.2 755.5 637.7V665C755.5 665.5 755.2 665.8 754.7 665.8Z" fill="#455A64"/>
<path d="M752.4 643.9C752.267 643.9 752.167 643.867 752.1 643.8C751.6 643.7 751.5 643.2 751.6 642.8L754.5 636.2L757.7 639.9C758 640.2 758 640.7 757.6 641C757.3 641.3 756.8 641.2 756.5 640.9L755 639.2L753.1 643.4C753 643.7 752.7 643.9 752.4 643.9Z" fill="#455A64"/>
<path d="M762.2 661.6C761.7 661.6 761.4 661.2 761.4 660.8V633.4C761.4 633 761.7 632.6 762.2 632.6C762.6 632.6 763 633 763 633.4V660.8C763 661.2 762.6 661.6 762.2 661.6Z" fill="#455A64"/>
<path d="M759.8 639.7C759.733 639.7 759.633 639.667 759.5 639.6C759.1 639.4 758.9 638.9 759.1 638.5L761.9 631.9L765.1 635.6C765.4 635.9 765.4 636.5 765.1 636.7C764.7 637 764.2 637 763.9 636.7L762.4 634.9L760.6 639.2C760.4 639.5 760.1 639.7 759.8 639.7Z" fill="#455A64"/>
<path d="M675.2 728L502.4 628.1V507.3L675.2 607.2V728Z" fill="#FF9E22"/>
<path opacity="0.5" d="M675.2 728L502.4 628.1V507.3L675.2 607.2V728Z" fill="white"/>
<path d="M575 567.5L586.8 574.3V556L575 549.2V567.5Z" fill="#37474F"/>
<path d="M586.8 556L769.4 450.3L757.6 443.5L575 549.2L586.8 556Z" fill="#455A64"/>
<path d="M580.3 546L592.2 552.9L598.8 549.1L586.9 542.2L580.3 546Z" fill="#37474F"/>
<path d="M769.9 465.7L721.5 493.6C720.6 494.1 720.9 495 722 495.7L776.7 527.2C777.8 527.9 779.5 528 780.4 527.5L828.7 499.7C829.6 499.2 829.4 498.2 828.2 497.5L773.6 466C772.4 465.3 770.8 465.2 769.9 465.7Z" fill="#FAFAFA"/>
<path d="M794.3 513.1C794.7 513.1 795 512.9 795.2 512.6C795.5 512.1 795.3 511.5 794.8 511.3L749.5 485.1C749 484.8 748.4 485 748.1 485.4C747.8 485.9 748 486.5 748.5 486.8L793.8 513C794 513.067 794.167 513.1 794.3 513.1Z" fill="#E0E0E0"/>
<path d="M789.3 516C789.6 516 790 515.8 790.2 515.5C790.4 515 790.3 514.4 789.8 514.1L744.5 488C744 487.7 743.4 487.8 743.1 488.3C742.8 488.8 743 489.4 743.5 489.7L788.8 515.9C788.933 515.967 789.1 516 789.3 516Z" fill="#E0E0E0"/>
<path d="M784.3 518.9C784.6 518.9 784.9 518.7 785.1 518.4C785.4 517.9 785.2 517.3 784.8 517L739.4 490.8C738.9 490.6 738.3 490.7 738.1 491.2C737.8 491.7 737.9 492.3 738.4 492.6L783.8 518.8C783.933 518.867 784.1 518.9 784.3 518.9Z" fill="#E0E0E0"/>
<path d="M779.2 521.8C779.6 521.8 779.9 521.6 780.1 521.3C780.4 520.8 780.2 520.2 779.7 519.9L734.4 493.7C733.9 493.5 733.3 493.6 733 494.1C732.7 494.6 732.9 495.2 733.4 495.5L778.7 521.6C778.9 521.733 779.067 521.8 779.2 521.8Z" fill="#E0E0E0"/>
<path d="M824.2 498.4L822.4 497.4L801.8 509.3L803.5 510.3L824.2 498.4Z" fill="#455A64"/>
<path d="M817 494.2L813.9 492.5L793.3 504.4L796.3 506.2L817 494.2Z" fill="#455A64"/>
<path d="M809.8 490.1L808.1 489.1L787.4 501L789.2 502L809.8 490.1Z" fill="#455A64"/>
<path d="M804.4 487L800.9 484.9L780.2 496.9L783.8 498.9L804.4 487Z" fill="#455A64"/>
<path d="M795.5 481.8L793.7 480.8L773 492.7L774.8 493.7L795.5 481.8Z" fill="#455A64"/>
<path d="M790.3 478.8L786.5 476.7L765.9 488.6L769.7 490.7L790.3 478.8Z" fill="#455A64"/>
<path d="M781.1 473.5L779.3 472.5L758.7 484.4L760.5 485.4L781.1 473.5Z" fill="#455A64"/>
<path d="M777 471.1L776.2 470.6L755.5 482.6L756.4 483.1L777 471.1Z" fill="#455A64"/>
<path d="M784.3 475.5L783.4 475L762.7 486.9L763.6 487.4L784.3 475.5Z" fill="#455A64"/>
<path d="M798.8 483.8L797.9 483.3L777.3 495.2L778.2 495.7L798.8 483.8Z" fill="#455A64"/>
<path d="M806.7 488.4L805.8 487.8L785.2 499.8L786.1 500.3L806.7 488.4Z" fill="#455A64"/>
<path d="M812.3 491.7L811.4 491.2L790.8 503.1L791.7 503.6L812.3 491.7Z" fill="#455A64"/>
<path d="M820.2 496.1L819.3 495.6L798.6 507.5L799.5 508L820.2 496.1Z" fill="#455A64"/>
<path d="M773.9 469.4L772.2 468.4L751.5 480.3L753.3 481.3L773.9 469.4Z" fill="#455A64"/>
<path d="M801.8 610.3L801.7 640.6C801.7 641.8 802.6 642.2 803.6 641.7L850.9 614.3C851.9 613.8 852.7 612.3 852.7 611.2V580.9C852.7 579.7 851.9 579.2 850.9 579.8L803.6 607.1C802.6 607.7 801.8 609.1 801.8 610.3Z" fill="#FAFAFA"/>
<path d="M849.8 584.1L848.3 585V612.6L849.8 611.7V584.1Z" fill="#455A64"/>
<path d="M843.6 587.7L840.9 589.3V616.8L843.6 615.3V587.7Z" fill="#455A64"/>
<path d="M837.3 591.3L835.8 592.2V619.7L837.3 618.9V591.3Z" fill="#455A64"/>
<path d="M832.7 594L829.6 595.8V623.3L832.7 621.5V594Z" fill="#455A64"/>
<path d="M824.9 598.5L823.4 599.4V626.9L824.9 626V598.5Z" fill="#455A64"/>
<path d="M820.4 601L817.2 603V630.5L820.4 628.6V601Z" fill="#455A64"/>
<path d="M812.5 605.7L810.9 606.6L811 634.1L812.5 633.2V605.7Z" fill="#455A64"/>
<path d="M808.9 607.7L808.2 608.1V635.7L808.9 635.2V607.7Z" fill="#455A64"/>
<path d="M815.3 604.2L814.5 604.6V632.2L815.3 631.7V604.2Z" fill="#455A64"/>
<path d="M827.8 596.8L827.1 597.3V624.8L827.8 624.4V596.8Z" fill="#455A64"/>
<path d="M834.7 592.9L833.9 593.3V620.9L834.7 620.4V592.9Z" fill="#455A64"/>
<path d="M839.6 590.2L838.9 590.6V618.2L839.6 617.7V590.2Z" fill="#455A64"/>
<path d="M846.3 586.1L845.5 586.6V614.1L846.3 613.7V586.1Z" fill="#455A64"/>
<path d="M806.3 609.3L804.7 610.1V637.7L806.3 636.8V609.3Z" fill="#455A64"/>
<path opacity="0.1" d="M846.1 499L678.5 595.9L501.1 493.3L668.8 396.4L846.1 499Z" fill="black"/>
<path d="M496.5 362L657.3 269L839.3 374.3L678.5 467.3L496.5 362Z" fill="#FF9E22"/>
<path opacity="0.3" d="M496.5 362L657.3 269L839.3 374.3L678.5 467.3L496.5 362Z" fill="white"/>
<path d="M573.6 329.1L622 357C622.8 357.5 622.6 358.4 621.4 359.1L566.8 390.6C565.7 391.3 564 391.4 563.1 390.9L514.7 363.1C513.9 362.5 514.1 361.6 515.3 360.9L569.9 329.4C571.1 328.7 572.7 328.6 573.6 329.1Z" fill="#FAFAFA"/>
<path d="M549.2 376.5C548.8 376.5 548.5 376.3 548.3 376C548 375.5 548.2 374.9 548.7 374.7L594 348.5C594.5 348.2 595.1 348.4 595.4 348.8C595.6 349.3 595.5 349.9 595 350.2L549.7 376.4C549.5 376.467 549.333 376.5 549.2 376.5Z" fill="#E0E0E0"/>
<path d="M554.2 379.4C553.8 379.4 553.5 379.2 553.3 378.9C553 378.4 553.2 377.8 553.7 377.5L599 351.4C599.5 351.1 600.1 351.2 600.4 351.7C600.7 352.2 600.5 352.8 600 353.1L554.7 379.3C554.5 379.367 554.333 379.4 554.2 379.4Z" fill="#E0E0E0"/>
<path d="M559.2 382.3C558.9 382.3 558.5 382.1 558.4 381.8C558.1 381.3 558.2 380.7 558.7 380.4L604.1 354.2C604.5 354 605.2 354.1 605.4 354.6C605.7 355.1 605.5 355.7 605.1 356L559.7 382.2C559.567 382.267 559.4 382.3 559.2 382.3Z" fill="#E0E0E0"/>
<path d="M564.3 385.2C563.9 385.2 563.6 385 563.4 384.7C563.1 384.2 563.3 383.6 563.8 383.3L609.1 357.1C609.6 356.8 610.2 357 610.5 357.5C610.7 358 610.6 358.6 610.1 358.9L564.8 385C564.6 385.133 564.433 385.2 564.3 385.2Z" fill="#E0E0E0"/>
<path d="M519.3 361.8L521.1 360.8L541.7 372.7L540 373.7L519.3 361.8Z" fill="#455A64"/>
<path d="M526.5 357.6L529.6 355.9L550.2 367.8L547.1 369.6L526.5 357.6Z" fill="#455A64"/>
<path d="M533.7 353.5L535.4 352.5L556.1 364.4L554.3 365.4L533.7 353.5Z" fill="#455A64"/>
<path d="M539 350.4L542.6 348.3L563.3 360.3L559.7 362.3L539 350.4Z" fill="#455A64"/>
<path d="M548 345.2L549.8 344.2L570.4 356.1L568.7 357.1L548 345.2Z" fill="#455A64"/>
<path d="M553.1 342.2L557 340L577.6 352L573.8 354.1L553.1 342.2Z" fill="#455A64"/>
<path d="M562.4 336.9L564.1 335.9L584.8 347.8L583 348.8L562.4 336.9Z" fill="#455A64"/>
<path d="M566.4 334.5L567.3 334L588 346L587.1 346.5L566.4 334.5Z" fill="#455A64"/>
<path d="M559.2 338.9L560.1 338.4L580.7 350.3L579.9 350.8L559.2 338.9Z" fill="#455A64"/>
<path d="M544.7 347.2L545.5 346.7L566.2 358.6L565.3 359.1L544.7 347.2Z" fill="#455A64"/>
<path d="M536.8 351.8L537.6 351.2L558.3 363.2L557.4 363.7L536.8 351.8Z" fill="#455A64"/>
<path d="M531.2 355.1L532.1 354.6L552.7 366.5L551.8 367L531.2 355.1Z" fill="#455A64"/>
<path d="M523.3 359.5L524.2 358.9L544.8 370.9L544 371.4L523.3 359.5Z" fill="#455A64"/>
<path d="M569.6 332.8L571.3 331.8L592 343.7L590.2 344.7L569.6 332.8Z" fill="#455A64"/>
<path d="M678.5 588.1L496.5 482.8V362L678.5 467.3V588.1Z" fill="#FF9E22"/>
<path d="M678.5 588.1L839.3 495.1V374.3L678.5 467.3V588.1Z" fill="#FF9E22"/>
<path opacity="0.1" d="M678.5 588.1L839.3 495.1V374.3L678.5 467.3V588.1Z" fill="black"/>
<path d="M766.8 434.6L755 441.4V423L766.8 416.2V434.6Z" fill="#37474F"/>
<path d="M755 423L573 317.7L584.8 310.9L766.8 416.2L755 423Z" fill="#455A64"/>
<path fill-rule="evenodd" clip-rule="evenodd" d="M611.8 530.4C609.4 529 607.6 525.5 607.6 522.4V510.1L616.1 515.2L616.7 515.1V515.9V526.9C616.7 528.6 616.1 529.9 615 530.6C614.6 530.8 614.167 530.9 613.7 530.9C613.1 530.9 612.467 530.733 611.8 530.4ZM612.7 517.2L612.1 521.5H608.9V522.4C608.9 524.9 610.6 528.1 612.5 529.2C613 529.5 613.7 529.7 614.3 529.4C615 529 615.3 528.1 615.3 526.9V516.7L612.7 517.2ZM611.5 516L614 515.6L608.9 512.6V520.1H610.9L611.5 516Z" fill="#455A64"/>
<path d="M612.1 539.6C612.5 539.6 612.8 539.3 612.8 539V529.8C612.8 529.4 612.5 529.1 612.1 529.1C611.8 529.1 611.4 529.4 611.4 529.8V539C611.4 539.3 611.8 539.6 612.1 539.6Z" fill="#455A64"/>
<path d="M616.1 541.9C616.4 541.9 616.6 541.8 616.7 541.6C616.9 541.3 616.8 540.8 616.5 540.7L608.5 536C608.2 535.9 607.7 536 607.5 536.3C607.4 536.6 607.5 537 607.8 537.2L615.8 541.8C615.867 541.867 615.967 541.9 616.1 541.9Z" fill="#455A64"/>
<path d="M640.1 556.1C640.367 556.1 640.6 556.067 640.8 556C641.3 555.7 641.6 555 641.6 554.3V552.4C641.6 552 641.3 551.7 641 551.7C640.6 551.7 640.3 552 640.3 552.4V554.3C640.3 554.6 640.2 554.7 640.1 554.8C640.1 554.8 639.9 554.8 639.7 554.6C639.1 554.3 638.4 552.9 638.4 551.5V539.3C638.4 538.9 638.1 538.6 637.7 538.6C637.3 538.6 637 538.9 637 539.3V551.5C637 553.3 637.9 555.2 639 555.8C639.333 556 639.7 556.1 640.1 556.1Z" fill="#455A64"/>
<path fill-rule="evenodd" clip-rule="evenodd" d="M629 534.9V534.5C629 531.6 630 529.5 631.8 528.4C633.7 527.4 636 527.6 638.5 529C643.4 531.8 647.3 538.7 647.3 544.3V545.5L629 534.9ZM632.5 529.6C631.2 530.3 630.5 531.9 630.4 534.1L645.8 543C645.3 538.1 641.9 532.6 637.8 530.2C636.6 529.5 635.4 529.1 634.4 529.1C633.667 529.1 633.033 529.267 632.5 529.6Z" fill="#455A64"/>
<path d="M667.7 571.6C668.1 571.6 668.4 571.3 668.4 570.9V547.5C668.4 547.1 668.1 546.8 667.7 546.8C667.3 546.8 667 547.1 667 547.5V570.9C667 571.3 667.3 571.6 667.7 571.6Z" fill="#455A64"/>
<path d="M669.7 552.8C669.833 552.8 669.933 552.8 670 552.8C670.3 552.6 670.5 552.2 670.4 551.9L667.9 546.2L665.2 549.4C664.9 549.6 665 550.1 665.2 550.3C665.5 550.6 666 550.5 666.2 550.3L667.5 548.8L669.1 552.4C669.2 552.7 669.5 552.8 669.7 552.8Z" fill="#455A64"/>
<path d="M661.3 567.9C661.7 567.9 662 567.6 662 567.3V543.9C662 543.5 661.7 543.2 661.3 543.2C661 543.2 660.7 543.5 660.7 543.9V567.3C660.7 567.6 661 567.9 661.3 567.9Z" fill="#455A64"/>
<path d="M663.4 549.2C663.467 549.2 663.533 549.167 663.6 549.1C664 549 664.1 548.6 664 548.2L661.5 542.6L658.8 545.7C658.6 546 658.6 546.4 658.9 546.7C659.2 546.9 659.6 546.9 659.9 546.6L661.2 545.1L662.7 548.8C662.8 549 663.1 549.2 663.4 549.2Z" fill="#455A64"/>
<path d="M552.1 471.9V502.2C552.1 503.4 551.3 503.8 550.2 503.3L502.9 476C501.9 475.4 501.1 473.9 501.1 472.8V442.5C501.1 441.3 501.9 440.8 503 441.4L550.2 468.7C551.3 469.3 552.1 470.7 552.1 471.9Z" fill="#FAFAFA"/>
<path d="M504 445.8L505.6 446.6V474.2L504 473.3V445.8Z" fill="#455A64"/>
<path d="M510.3 449.3L512.9 450.9V478.4L510.3 476.9V449.3Z" fill="#455A64"/>
<path d="M516.5 452.9L518 453.8V481.3L516.5 480.5V452.9Z" fill="#455A64"/>
<path d="M521.2 455.6L524.2 457.4V484.9L521.2 483.1V455.6Z" fill="#455A64"/>
<path d="M528.9 460.1L530.4 461V488.5L528.9 487.6V460.1Z" fill="#455A64"/>
<path d="M533.4 462.6L536.7 464.6V492.1L533.4 490.2V462.6Z" fill="#455A64"/>
<path d="M541.4 467.3L542.9 468.2V495.7L541.3 494.8L541.4 467.3Z" fill="#455A64"/>
<path d="M544.9 469.3L545.7 469.7V497.3L544.9 496.8V469.3Z" fill="#455A64"/>
<path d="M538.5 465.8L539.3 466.2V493.8L538.5 493.3V465.8Z" fill="#455A64"/>
<path d="M526 458.4L526.8 458.9V486.4L526 486V458.4Z" fill="#455A64"/>
<path d="M519.1 454.5L519.9 454.9V482.5L519.1 482V454.5Z" fill="#455A64"/>
<path d="M514.2 451.8L515 452.2V479.8L514.2 479.3V451.8Z" fill="#455A64"/>
<path d="M507.5 447.7L508.3 448.2V475.7L507.5 475.3V447.7Z" fill="#455A64"/>
<path d="M547.6 470.9L549.1 471.7V499.3L547.6 498.4V470.9Z" fill="#455A64"/>
<path opacity="0.1" d="M493.6 360.4L667.9 461.2L804.5 382.4L629.9 281.6L493.6 360.4Z" fill="black"/>
<path d="M485.6 305.3L631.8 220.9L802.4 319.4L656.2 403.8L485.6 305.3Z" fill="#FF9E22"/>
<path opacity="0.1" d="M485.6 305.3L631.8 220.9L802.4 319.4L656.2 403.8L485.6 305.3Z" fill="black"/>
<path d="M562.7 272.4L611 300.2C611.9 300.8 611.7 301.7 610.5 302.4L555.9 333.9C554.7 334.6 553.1 334.7 552.2 334.2L503.8 306.3C502.9 305.8 503.2 304.9 504.3 304.2L559 272.7C560.1 272 561.8 271.9 562.7 272.4Z" fill="#FAFAFA"/>
<path d="M538.2 319.8C537.9 319.8 537.5 319.6 537.4 319.3C537.1 318.8 537.2 318.2 537.7 317.9L583.1 291.8C583.5 291.5 584.1 291.6 584.4 292.1C584.7 292.6 584.5 293.2 584.1 293.5L538.7 319.7C538.567 319.767 538.4 319.8 538.2 319.8Z" fill="#E0E0E0"/>
<path d="M543.3 322.7C542.9 322.7 542.6 322.5 542.4 322.2C542.1 321.7 542.3 321.1 542.8 320.8L588.1 294.6C588.6 294.4 589.2 294.5 589.5 295C589.7 295.5 589.6 296.1 589.1 296.4L543.8 322.5C543.6 322.633 543.433 322.7 543.3 322.7Z" fill="#E0E0E0"/>
<path d="M548.3 325.6C547.9 325.6 547.6 325.4 547.4 325.1C547.1 324.6 547.3 324 547.8 323.7L593.1 297.5C593.6 297.2 594.2 297.4 594.5 297.9C594.8 298.4 594.6 299 594.1 299.3L548.8 325.4C548.6 325.533 548.433 325.6 548.3 325.6Z" fill="#E0E0E0"/>
<path d="M553.3 328.5C553 328.5 552.6 328.3 552.5 328C552.2 327.5 552.3 326.9 552.8 326.6L598.2 300.4C598.6 300.1 599.3 300.3 599.5 300.8C599.8 301.3 599.6 301.9 599.2 302.1L553.8 328.3C553.667 328.433 553.5 328.5 553.3 328.5Z" fill="#E0E0E0"/>
<path d="M508.4 305.1L510.1 304.1L530.8 316L529 317L508.4 305.1Z" fill="#455A64"/>
<path d="M515.6 300.9L518.6 299.2L539.3 311.1L536.2 312.9L515.6 300.9Z" fill="#455A64"/>
<path d="M522.7 296.8L524.5 295.8L545.1 307.7L543.4 308.7L522.7 296.8Z" fill="#455A64"/>
<path d="M528.1 293.6L531.7 291.6L552.3 303.5L548.8 305.6L528.1 293.6Z" fill="#455A64"/>
<path d="M537.1 288.5L538.8 287.5L559.5 299.4L557.7 300.4L537.1 288.5Z" fill="#455A64"/>
<path d="M542.2 285.5L546 283.3L566.7 295.3L562.9 297.4L542.2 285.5Z" fill="#455A64"/>
<path d="M551.4 280.2L553.2 279.2L573.9 291.1L572.1 292.1L551.4 280.2Z" fill="#455A64"/>
<path d="M555.5 277.8L556.4 277.3L577 289.2L576.2 289.8L555.5 277.8Z" fill="#455A64"/>
<path d="M548.3 282.2L549.1 281.6L569.8 293.6L568.9 294.1L548.3 282.2Z" fill="#455A64"/>
<path d="M533.7 290.5L534.6 289.9L555.3 301.9L554.4 302.4L533.7 290.5Z" fill="#455A64"/>
<path d="M525.8 295L526.7 294.5L547.4 306.5L546.5 307L525.8 295Z" fill="#455A64"/>
<path d="M520.2 298.4L521.1 297.9L541.8 309.8L540.9 310.3L520.2 298.4Z" fill="#455A64"/>
<path d="M512.4 302.7L513.3 302.2L533.9 314.2L533 314.7L512.4 302.7Z" fill="#455A64"/>
<path d="M558.6 276.1L560.4 275L581 287L579.3 288L558.6 276.1Z" fill="#455A64"/>
<path d="M656.2 460.1L485.6 361.6V305.3L656.2 403.8V460.1Z" fill="#FF9E22"/>
<g opacity="0.2">
<path d="M656.2 460.1L485.6 361.6V305.3L656.2 403.8V460.1Z" fill="black"/>
</g>
<path d="M656.2 460.1L802.4 375.7V319.4L656.2 403.8V460.1Z" fill="#FF9E22"/>
<path opacity="0.3" d="M656.2 460.1L802.4 375.7V319.4L656.2 403.8V460.1Z" fill="black"/>
<path d="M744.5 371L732.6 377.9V359.5L744.5 352.7V371Z" fill="#37474F"/>
<path d="M732.6 359.5L562 261L573.8 254.2L744.5 352.7L732.6 359.5Z" fill="#455A64"/>
<path fill-rule="evenodd" clip-rule="evenodd" d="M589.5 402.3C587.1 401 585.2 397.5 585.2 394.3V382.1L593.8 387.2L594.4 387.1V387.9V398.8C594.4 400.6 593.8 401.9 592.7 402.5C592.3 402.767 591.867 402.9 591.4 402.9C590.733 402.9 590.1 402.7 589.5 402.3ZM590.4 389.2L589.8 393.4H586.6V394.3C586.6 396.9 588.2 400 590.2 401.1C590.7 401.4 591.4 401.7 592 401.3C592.6 401 593 400.1 593 398.8V388.7L590.4 389.2ZM589.2 388L591.7 387.6L586.6 384.6V392.1H588.6L589.2 388Z" fill="#455A64"/>
<path d="M589.8 411.6C590.2 411.6 590.5 411.3 590.5 410.9V401.7C590.5 401.4 590.2 401 589.8 401C589.4 401 589.1 401.4 589.1 401.7V410.9C589.1 411.3 589.4 411.6 589.8 411.6Z" fill="#455A64"/>
<path d="M593.8 413.9C594 413.9 594.3 413.8 594.4 413.6C594.6 413.2 594.5 412.8 594.1 412.6L586.2 408C585.8 407.8 585.4 407.9 585.2 408.3C585 408.6 585.1 409 585.5 409.2L593.5 413.8C593.567 413.867 593.667 413.9 593.8 413.9Z" fill="#455A64"/>
<path d="M617.7 428.1C617.967 428.1 618.233 428.033 618.5 427.9C619 427.6 619.3 427 619.3 426.3V424.4C619.3 424 619 423.7 618.6 423.7C618.2 423.7 617.9 424 617.9 424.4V426.3C617.9 426.5 617.9 426.7 617.8 426.7C617.8 426.8 617.6 426.7 617.4 426.6C616.8 426.3 616.1 424.9 616.1 423.5V411.3C616.1 410.9 615.8 410.6 615.4 410.6C615 410.6 614.7 410.9 614.7 411.3V423.5C614.7 425.3 615.5 427.1 616.7 427.8C617.033 428 617.367 428.1 617.7 428.1Z" fill="#455A64"/>
<path fill-rule="evenodd" clip-rule="evenodd" d="M606.7 406.9V406.5C606.7 403.6 607.7 401.5 609.5 400.4C611.3 399.4 613.7 399.6 616.2 401C621 403.8 625 410.6 625 416.2V417.4L606.7 406.9ZM610.2 401.7C608.9 402.4 608.1 404 608.1 406.1L623.5 415.1C623 410.2 619.6 404.6 615.5 402.3C614.3 401.5 613.1 401.2 612 401.2C611.333 401.2 610.733 401.367 610.2 401.7Z" fill="#455A64"/>
<path d="M645.4 443.5C645.8 443.5 646.1 443.2 646.1 442.9V419.4C646.1 419.1 645.8 418.8 645.4 418.8C645 418.8 644.7 419.1 644.7 419.4V442.9C644.7 443.2 645 443.5 645.4 443.5Z" fill="#455A64"/>
<path d="M647.4 424.8C647.467 424.8 647.567 424.767 647.7 424.7C648 424.6 648.2 424.2 648 423.8L645.6 418.2L642.8 421.3C642.6 421.6 642.6 422 642.9 422.3C643.2 422.5 643.6 422.5 643.9 422.2L645.2 420.7L646.8 424.4C646.9 424.6 647.1 424.8 647.4 424.8Z" fill="#455A64"/>
<path d="M639 439.9C639.4 439.9 639.7 439.6 639.7 439.2V415.8C639.7 415.4 639.4 415.1 639 415.1C638.6 415.1 638.3 415.4 638.3 415.8V439.2C638.3 439.6 638.6 439.9 639 439.9Z" fill="#455A64"/>
<path d="M641 421.2C641.133 421.2 641.233 421.167 641.3 421.1C641.7 421 641.8 420.5 641.7 420.2L639.2 414.5L636.5 417.7C636.2 418 636.3 418.4 636.6 418.7C636.9 418.9 637.3 418.9 637.5 418.6L638.8 417.1L640.4 420.7C640.5 421 640.8 421.2 641 421.2Z" fill="#455A64"/>
<path d="M541.1 350.7V381C541.1 382.1 540.3 382.6 539.3 382L492 354.7C491 354.1 490.2 352.7 490.2 351.6V321.2C490.2 320.1 491 319.6 492 320.2L539.3 347.5C540.3 348.1 541.1 349.5 541.1 350.7Z" fill="#FAFAFA"/>
<path d="M493.1 324.5L494.6 325.4V352.9L493.1 352.1V324.5Z" fill="#455A64"/>
<path d="M499.3 328.1L502 329.7V357.2L499.3 355.7V328.1Z" fill="#455A64"/>
<path d="M505.5 331.7L507.1 332.6V360.1L505.5 359.2V331.7Z" fill="#455A64"/>
<path d="M510.2 334.4L513.3 336.2V363.7L510.2 361.9V334.4Z" fill="#455A64"/>
<path d="M518 338.9L519.5 339.8V367.3L518 366.4V338.9Z" fill="#455A64"/>
<path d="M522.5 341.4L525.7 343.3V370.9L522.5 368.9V341.4Z" fill="#455A64"/>
<path d="M530.4 346L531.9 346.9V374.5L530.4 373.6V346Z" fill="#455A64"/>
<path d="M534 348.1L534.7 348.5V376L534 375.6V348.1Z" fill="#455A64"/>
<path d="M527.6 344.5L528.3 345V372.5L527.6 372.1V344.5Z" fill="#455A64"/>
<path d="M515.1 337.2L515.8 337.7V365.2L515.1 364.8V337.2Z" fill="#455A64"/>
<path d="M508.2 333.3L509 333.7V361.3L508.2 360.8V333.3Z" fill="#455A64"/>
<path d="M503.3 330.6L504 331V358.5L503.3 358.1V330.6Z" fill="#455A64"/>
<path d="M496.6 326.5L497.4 326.9V354.5L496.6 354V326.5Z" fill="#455A64"/>
<path d="M536.6 349.6L538.2 350.5V378.1L536.6 377.2V349.6Z" fill="#455A64"/>
<path opacity="0.1" d="M567.1 689.5L433.4 766.6L333.4 708.8L467.3 631.9L567.1 689.5Z" fill="black"/>
<path d="M345.6 462.5L467.5 392.1L556.9 443.7L435 514.1L345.6 462.5Z" fill="#FF9E22"/>
<path opacity="0.1" d="M345.6 462.5L467.5 392.1L556.9 443.7L435 514.1L345.6 462.5Z" fill="black"/>
<path d="M466.3 402.2L428.9 423.8C428.2 424.2 428.4 424.9 429.3 425.4L471.5 449.8C472.4 450.3 473.7 450.4 474.4 450.1L511.8 428.5C512.5 428.1 512.3 427.4 511.4 426.8L469.2 402.5C468.3 402 467 401.9 466.3 402.2Z" fill="#FAFAFA"/>
<path d="M485.2 438.9C485.5 438.9 485.7 438.8 485.9 438.5C486.1 438.2 485.9 437.7 485.6 437.5L450.5 417.2C450.2 417 449.7 417.1 449.5 417.5C449.3 417.9 449.4 418.4 449.7 418.6L484.8 438.8C484.933 438.867 485.067 438.9 485.2 438.9Z" fill="#E0E0E0"/>
<path d="M481.3 441.1C481.6 441.1 481.8 441 482 440.8C482.2 440.4 482.1 439.9 481.7 439.7L446.6 419.5C446.3 419.2 445.8 419.4 445.6 419.7C445.4 420.1 445.5 420.6 445.9 420.8L480.9 441C481.033 441.067 481.167 441.1 481.3 441.1Z" fill="#E0E0E0"/>
<path d="M477.4 443.4C477.7 443.4 477.9 443.2 478.1 443C478.3 442.6 478.2 442.1 477.8 441.9L442.7 421.7C442.4 421.5 441.9 421.6 441.7 422C441.5 422.3 441.6 422.8 442 423L477 443.3C477.133 443.367 477.267 443.4 477.4 443.4Z" fill="#E0E0E0"/>
<path d="M473.5 445.6C473.8 445.6 474 445.5 474.2 445.2C474.4 444.8 474.3 444.4 473.9 444.2L438.8 423.9C438.5 423.7 438 423.8 437.8 424.2C437.6 424.6 437.7 425 438.1 425.3L473.1 445.5C473.233 445.567 473.367 445.6 473.5 445.6Z" fill="#E0E0E0"/>
<path d="M508.3 427.5L506.9 426.7L490.9 436L492.3 436.7L508.3 427.5Z" fill="#455A64"/>
<path d="M502.7 424.3L500.3 423L484.4 432.2L486.7 433.5L502.7 424.3Z" fill="#455A64"/>
<path d="M497.2 421.1L495.8 420.3L479.8 429.5L481.2 430.3L497.2 421.1Z" fill="#455A64"/>
<path d="M493 418.7L490.3 417.1L474.3 426.3L477 427.9L493 418.7Z" fill="#455A64"/>
<path d="M486.1 414.7L484.7 413.9L468.7 423.1L470.1 423.9L486.1 414.7Z" fill="#455A64"/>
<path d="M482.1 412.4L479.2 410.7L463.2 419.9L466.1 421.6L482.1 412.4Z" fill="#455A64"/>
<path d="M475 408.3L473.6 407.5L457.6 416.7L459 417.5L475 408.3Z" fill="#455A64"/>
<path d="M471.8 406.5L471.1 406.1L455.2 415.3L455.9 415.7L471.8 406.5Z" fill="#455A64"/>
<path d="M477.4 409.8L476.7 409.4L460.8 418.6L461.5 419L477.4 409.8Z" fill="#455A64"/>
<path d="M488.7 416.2L488 415.8L472 425L472.7 425.4L488.7 416.2Z" fill="#455A64"/>
<path d="M494.8 419.8L494.1 419.4L478.1 428.6L478.8 429L494.8 419.8Z" fill="#455A64"/>
<path d="M499.1 422.3L498.4 422L482.4 431.2L483.1 431.6L499.1 422.3Z" fill="#455A64"/>
<path d="M505.2 425.7L504.5 425.3L488.5 434.5L489.2 434.9L505.2 425.7Z" fill="#455A64"/>
<path d="M469.4 405.1L468.1 404.3L452.1 413.5L453.5 414.3L469.4 405.1Z" fill="#455A64"/>
<path d="M435 758L345.6 706.4V462.5L435 514.1V758Z" fill="#FF9E22"/>
<g opacity="0.2">
<path d="M435 758L345.6 706.4V462.5L435 514.1V758Z" fill="black"/>
</g>
<path d="M435 758L556.9 687.7V443.7L435 514.1V758Z" fill="#FF9E22"/>
<path opacity="0.3" d="M435 758L556.9 687.7V443.7L435 514.1V758Z" fill="black"/>
<path d="M500 494.9L488.2 501.7V483.4L500 476.6V494.9Z" fill="#37474F"/>
<path d="M488.2 483.4L398.8 431.8L410.6 425L500 476.6L488.2 483.4Z" fill="#455A64"/>
<path fill-rule="evenodd" clip-rule="evenodd" d="M368.3 700.2C365.9 698.9 364.1 695.4 364.1 692.3V680L372.6 685.1L373.2 685V685.8V696.7C373.2 698.5 372.6 699.8 371.5 700.4C371.1 700.667 370.667 700.8 370.2 700.8C369.6 700.8 368.967 700.6 368.3 700.2ZM369.2 687.1L368.6 691.4H365.4V692.3C365.4 694.8 367.1 697.9 369 699C369.5 699.3 370.2 699.6 370.8 699.3C371.5 698.9 371.8 698 371.8 696.7V686.6L369.2 687.1ZM368 685.9L370.5 685.5L365.4 682.5V690H367.4L368 685.9Z" fill="#455A64"/>
<path d="M368.6 709.5C369 709.5 369.3 709.2 369.3 708.8V699.6C369.3 699.3 369 699 368.6 699C368.3 699 367.9 699.3 367.9 699.6V708.8C367.9 709.2 368.3 709.5 368.6 709.5Z" fill="#455A64"/>
<path d="M372.6 711.8C372.9 711.8 373.1 711.7 373.2 711.5C373.4 711.1 373.3 710.7 373 710.5L365 705.9C364.7 705.7 364.2 705.8 364 706.2C363.9 706.5 364 706.9 364.3 707.1L372.3 711.7C372.367 711.767 372.467 711.8 372.6 711.8Z" fill="#455A64"/>
<path d="M396.6 726C396.867 726 397.1 725.933 397.3 725.8C397.8 725.5 398.1 724.9 398.1 724.2V722.3C398.1 721.9 397.8 721.6 397.5 721.6C397.1 721.6 396.8 721.9 396.8 722.3V724.2C396.8 724.5 396.7 724.6 396.6 724.6C396.6 724.7 396.4 724.7 396.2 724.5C395.6 724.2 394.9 722.8 394.9 721.4V709.2C394.9 708.8 394.6 708.5 394.2 708.5C393.8 708.5 393.5 708.8 393.5 709.2V721.4C393.5 723.2 394.4 725 395.5 725.7C395.833 725.9 396.2 726 396.6 726Z" fill="#455A64"/>
<path fill-rule="evenodd" clip-rule="evenodd" d="M385.5 704.8V704.4C385.5 701.5 386.5 699.4 388.3 698.3C390.2 697.3 392.5 697.5 395 698.9C399.9 701.7 403.8 708.5 403.8 714.1V715.3L385.5 704.8ZM389 699.6C387.7 700.3 387 701.9 386.9 704.1L402.3 713C401.8 708.1 398.4 702.5 394.3 700.2C393.1 699.5 391.9 699.1 390.9 699.1C390.167 699.1 389.533 699.267 389 699.6Z" fill="#455A64"/>
<path d="M424.2 741.4C424.6 741.4 424.9 741.1 424.9 740.8V717.4C424.9 717 424.6 716.7 424.2 716.7C423.8 716.7 423.5 717 423.5 717.4V740.8C423.5 741.1 423.8 741.4 424.2 741.4Z" fill="#455A64"/>
<path d="M426.2 722.7C426.333 722.7 426.433 722.667 426.5 722.6C426.8 722.5 427 722.1 426.8 721.7L424.4 716.1L421.7 719.2C421.4 719.5 421.5 720 421.7 720.2C422 720.4 422.5 720.4 422.7 720.1L424 718.6L425.6 722.3C425.7 722.5 426 722.7 426.2 722.7Z" fill="#455A64"/>
<path d="M417.8 737.8C418.2 737.8 418.5 737.5 418.5 737.1V713.7C418.5 713.4 418.2 713 417.8 713C417.5 713 417.2 713.4 417.2 713.7V737.1C417.2 737.5 417.5 737.8 417.8 737.8Z" fill="#455A64"/>
<path d="M419.9 719.1C419.967 719.1 420.033 719.067 420.1 719C420.5 718.9 420.6 718.5 420.5 718.1L418 712.5L415.3 715.6C415.1 715.9 415.1 716.3 415.4 716.6C415.7 716.8 416.1 716.8 416.4 716.5L417.7 715L419.2 718.7C419.3 718.9 419.6 719.1 419.9 719.1Z" fill="#455A64"/>
<path d="M426.9 666.8V697C426.9 698.2 426 698.7 425 698.1L377.7 670.8C376.7 670.2 375.9 668.8 375.9 667.6V637.3C375.9 636.1 376.7 635.7 377.7 636.3L425 663.6C426 664.2 426.9 665.6 426.9 666.8Z" fill="#FAFAFA"/>
<path d="M378.8 640.6L380.4 641.5V669L378.8 668.1V640.6Z" fill="#455A64"/>
<path d="M385.1 644.2L387.7 645.7V673.3L385.1 671.7V644.2Z" fill="#455A64"/>
<path d="M391.3 647.8L392.8 648.7V676.2L391.3 675.3V647.8Z" fill="#455A64"/>
<path d="M396 650.4L399 652.2V679.8L396 678V650.4Z" fill="#455A64"/>
<path d="M403.7 654.9L405.2 655.8V683.4L403.7 682.5V654.9Z" fill="#455A64"/>
<path d="M408.2 657.5L411.4 659.4V687L408.2 685V657.5Z" fill="#455A64"/>
<path d="M416.1 662.1L417.7 663V690.5L416.1 689.7V662.1Z" fill="#455A64"/>
<path d="M419.7 664.1L420.4 664.6V692.1L419.7 691.7V664.1Z" fill="#455A64"/>
<path d="M413.3 660.6L414.1 661.1V688.6L413.3 688.2V660.6Z" fill="#455A64"/>
<path d="M400.8 653.3L401.5 653.7V681.3L400.8 680.8V653.3Z" fill="#455A64"/>
<path d="M393.9 649.4L394.7 649.8V677.3L393.9 676.9V649.4Z" fill="#455A64"/>
<path d="M389 646.6L389.8 647.1V674.6L389 674.2V646.6Z" fill="#455A64"/>
<path d="M382.3 642.6L383.1 643V670.6L382.3 670.1V642.6Z" fill="#455A64"/>
<path d="M422.4 665.7L423.9 666.6V694.1L422.4 693.3V665.7Z" fill="#455A64"/>
<path opacity="0.1" d="M676.3 752.5L542.7 829.6L440.1 770.5L574 693.6L676.3 752.5Z" fill="black"/>
<path d="M455.6 651.2L577.5 580.9L666.9 632.5L545 702.8L455.6 651.2Z" fill="#FF9E22"/>
<g opacity="0.3">
<path d="M455.6 651.2L577.5 580.9L666.9 632.5L545 702.8L455.6 651.2Z" fill="white"/>
</g>
<path d="M576.3 591L538.9 612.5C538.2 612.9 538.4 613.7 539.3 614.2L581.5 638.6C582.4 639.1 583.7 639.2 584.4 638.8L621.8 617.3C622.5 616.9 622.3 616.1 621.4 615.6L579.2 591.2C578.3 590.7 577 590.6 576.3 591Z" fill="#FAFAFA"/>
<path d="M595.2 627.7C595.5 627.7 595.7 627.5 595.9 627.3C596.1 626.9 596 626.4 595.6 626.2L560.5 606C560.2 605.8 559.7 605.9 559.5 606.3C559.3 606.6 559.4 607.1 559.8 607.3L594.8 627.6C594.933 627.667 595.067 627.7 595.2 627.7Z" fill="#E0E0E0"/>
<path d="M591.3 629.9C591.6 629.9 591.8 629.8 592 629.5C592.2 629.1 592.1 628.7 591.7 628.4L556.6 608.2C556.3 608 555.8 608.1 555.6 608.5C555.4 608.9 555.5 609.3 555.9 609.5L590.9 629.8C591.033 629.867 591.167 629.9 591.3 629.9Z" fill="#E0E0E0"/>
<path d="M587.4 632.1C587.7 632.1 587.9 632 588.1 631.7C588.3 631.4 588.2 630.9 587.8 630.7L552.7 610.4C552.4 610.2 551.9 610.4 551.7 610.7C551.5 611.1 551.6 611.6 552 611.8L587 632C587.133 632.067 587.267 632.1 587.4 632.1Z" fill="#E0E0E0"/>
<path d="M583.5 634.4C583.8 634.4 584 634.2 584.2 634C584.4 633.6 584.3 633.1 583.9 632.9L548.8 612.7C548.5 612.5 548 612.6 547.8 613C547.6 613.3 547.7 613.8 548.1 614L583.1 634.2C583.233 634.333 583.367 634.4 583.5 634.4Z" fill="#E0E0E0"/>
<path d="M618.3 616.3L616.9 615.5L600.9 624.7L602.3 625.5L618.3 616.3Z" fill="#455A64"/>
<path d="M612.7 613.1L610.4 611.7L594.4 620.9L596.7 622.3L612.7 613.1Z" fill="#455A64"/>
<path d="M607.2 609.9L605.8 609.1L589.8 618.3L591.2 619.1L607.2 609.9Z" fill="#455A64"/>
<path d="M603 607.4L600.3 605.9L584.3 615.1L587 616.7L603 607.4Z" fill="#455A64"/>
<path d="M596.1 603.5L594.7 602.7L578.7 611.9L580.1 612.7L596.1 603.5Z" fill="#455A64"/>
<path d="M592.1 601.1L589.2 599.5L573.2 608.7L576.1 610.3L592.1 601.1Z" fill="#455A64"/>
<path d="M585 597L583.6 596.3L567.6 605.5L569 606.3L585 597Z" fill="#455A64"/>
<path d="M581.8 595.2L581.1 594.8L565.2 604L565.9 604.4L581.8 595.2Z" fill="#455A64"/>
<path d="M587.4 598.6L586.7 598.2L570.8 607.4L571.5 607.8L587.4 598.6Z" fill="#455A64"/>
<path d="M598.7 605L598 604.6L582 613.8L582.7 614.2L598.7 605Z" fill="#455A64"/>
<path d="M604.8 608.5L604.1 608.1L588.1 617.3L588.8 617.7L604.8 608.5Z" fill="#455A64"/>
<path d="M609.1 611.1L608.4 610.7L592.4 619.9L593.1 620.3L609.1 611.1Z" fill="#455A64"/>
<path d="M615.2 614.5L614.5 614.1L598.5 623.3L599.2 623.7L615.2 614.5Z" fill="#455A64"/>
<path d="M579.4 593.8L578.1 593.1L562.1 602.3L563.5 603.1L579.4 593.8Z" fill="#455A64"/>
<path d="M545 821.5L455.6 769.9V651.2L545 702.8V821.5Z" fill="#FF9E22"/>
<path d="M545 821.5L455.6 769.9V651.2L545 702.8V821.5Z" fill="#FF9E22"/>
<path d="M545 821.5L666.9 751.2V632.5L545 702.8V821.5Z" fill="#FF9E22"/>
<path opacity="0.1" d="M545 821.5L666.9 751.2V632.5L545 702.8V821.5Z" fill="black"/>
<path d="M610 683.7L598.2 690.5V672.1L610 665.3V683.7Z" fill="#37474F"/>
<path d="M598.2 672.1L508.8 620.5L520.6 613.7L610 665.3L598.2 672.1Z" fill="#455A64"/>
<path fill-rule="evenodd" clip-rule="evenodd" d="M655.6 739.8C655.267 739.8 654.967 739.7 654.7 739.5C654 739.1 653.6 738.2 653.6 737.1V729.9V729.3L654 729.4L659.6 726.1V734.1C659.6 736.2 658.4 738.5 656.8 739.4C656.4 739.667 656 739.8 655.6 739.8ZM654.5 730.4V737.1C654.5 737.9 654.7 738.5 655.2 738.7C655.6 739 656 738.8 656.4 738.6C657.6 737.9 658.7 735.8 658.7 734.1V733.5H656.6L656.2 730.7L654.5 730.4ZM657.4 732.6H658.7V727.7L655.3 729.6L657 729.9L657.4 732.6Z" fill="#455A64"/>
<path d="M656.6 745.5C656.4 745.5 656.2 745.3 656.2 745.1V739C656.2 738.8 656.4 738.5 656.6 738.5C656.9 738.5 657.1 738.8 657.1 739V745.1C657.1 745.3 656.9 745.5 656.6 745.5Z" fill="#455A64"/>
<path d="M654 747C653.8 747 653.7 746.9 653.6 746.8C653.5 746.6 653.5 746.3 653.7 746.2L659 743.1C659.2 743 659.5 743.1 659.6 743.3C659.8 743.5 659.7 743.8 659.5 743.9L654.2 747C654.133 747 654.067 747 654 747Z" fill="#455A64"/>
<path d="M638.2 756.4C638 756.4 637.833 756.367 637.7 756.3C637.4 756.1 637.2 755.7 637.2 755.2V753.9C637.2 753.7 637.4 753.5 637.6 753.5C637.9 753.5 638.1 753.7 638.1 753.9V755.2C638.1 755.4 638.1 755.4 638.2 755.5C638.2 755.5 638.3 755.467 638.5 755.4C638.9 755.2 639.3 754.3 639.3 753.3V745.3C639.3 745 639.5 744.8 639.7 744.8C640 744.8 640.2 745 640.2 745.3V753.3C640.2 754.5 639.6 755.7 638.9 756.2C638.7 756.333 638.467 756.4 638.2 756.4Z" fill="#455A64"/>
<path fill-rule="evenodd" clip-rule="evenodd" d="M633.4 749.3V748.6C633.4 744.9 636 740.4 639.2 738.5C640.9 737.6 642.4 737.4 643.6 738.1C644.8 738.8 645.5 740.2 645.5 742.1V742.4L633.4 749.3ZM641.9 738.5C641.167 738.5 640.4 738.733 639.6 739.2C636.9 740.8 634.7 744.5 634.3 747.7L644.5 741.8C644.5 740.4 644 739.4 643.1 738.9C642.767 738.633 642.367 738.5 641.9 738.5Z" fill="#455A64"/>
<path d="M620 766.5C619.7 766.5 619.5 766.3 619.5 766.1V750.7C619.5 750.4 619.7 750.2 620 750.2C620.2 750.2 620.4 750.4 620.4 750.7V766.1C620.4 766.3 620.2 766.5 620 766.5Z" fill="#455A64"/>
<path d="M618.7 754.2C618.633 754.2 618.567 754.2 618.5 754.2C618.3 754.1 618.2 753.8 618.2 753.6L619.9 749.8L621.7 751.9C621.8 752.1 621.8 752.4 621.6 752.5C621.4 752.7 621.1 752.7 621 752.5L620.1 751.5L619.1 753.9C619 754.1 618.8 754.2 618.7 754.2Z" fill="#455A64"/>
<path d="M624.2 764.2C623.9 764.2 623.7 764 623.7 763.7V748.3C623.7 748 623.9 747.8 624.2 747.8C624.4 747.8 624.6 748 624.6 748.3V763.7C624.6 764 624.4 764.2 624.2 764.2Z" fill="#455A64"/>
<path d="M622.9 751.8C622.833 751.8 622.767 751.8 622.7 751.8C622.4 751.7 622.3 751.4 622.4 751.2L624.1 747.4L625.8 749.5C626 749.7 626 750 625.8 750.2C625.6 750.3 625.3 750.3 625.2 750.1L624.3 749.1L623.3 751.5C623.2 751.7 623 751.8 622.9 751.8Z" fill="#455A64"/>
<path d="M554.6 772.5V802.8C554.6 803.9 555.4 804.4 556.4 803.8L603.7 776.5C604.7 775.9 605.6 774.5 605.6 773.4V743C605.6 741.9 604.7 741.4 603.7 742L556.4 769.3C555.4 769.9 554.6 771.3 554.6 772.5Z" fill="#FAFAFA"/>
<path d="M602.6 746.3L601.1 747.2V774.8L602.6 773.9V746.3Z" fill="#455A64"/>
<path d="M596.4 749.9L593.8 751.5V779L596.4 777.5V749.9Z" fill="#455A64"/>
<path d="M590.2 753.5L588.7 754.4V781.9L590.2 781V753.5Z" fill="#455A64"/>
<path d="M585.5 756.2L582.4 758V785.5L585.5 783.7V756.2Z" fill="#455A64"/>
<path d="M577.8 760.7L576.2 761.6V789.1L577.8 788.2V760.7Z" fill="#455A64"/>
<path d="M573.3 763.2L570 765.2V792.7L573.3 790.7V763.2Z" fill="#455A64"/>
<path d="M565.3 767.9L563.8 768.7V796.3L565.3 795.4V767.9Z" fill="#455A64"/>
<path d="M561.8 769.9L561 770.3V797.9L561.8 797.4V769.9Z" fill="#455A64"/>
<path d="M568.2 766.4L567.4 766.8V794.3L568.2 793.9V766.4Z" fill="#455A64"/>
<path d="M580.7 759L579.9 759.5V787L580.7 786.6V759Z" fill="#455A64"/>
<path d="M587.5 755.1L586.8 755.5V783.1L587.5 782.6V755.1Z" fill="#455A64"/>
<path d="M592.5 752.4L591.7 752.8V780.3L592.5 779.9V752.4Z" fill="#455A64"/>
<path d="M599.1 748.3L598.4 748.8V776.3L599.1 775.9V748.3Z" fill="#455A64"/>
<path d="M559.1 771.4L557.6 772.3V799.9L559.1 799V771.4Z" fill="#455A64"/>
<path d="M274.8 724.5C275.5 713.9 281.2 606.9 281.2 606.9L229.2 643.6C238.3 704.7 240.3 723.2 240.7 733.4C240.6 733.6 240.4 734.5 240.4 736C240.7 748.1 255.2 754.4 266.6 762.4C271.1 765.5 284.2 774.7 297.3 780.8C305.6 784.5 322.1 784.7 324.1 779.6C310.2 769.9 294.2 759.3 283.1 748.1C277.8 742.8 274 737.2 274.8 724.5Z" fill="#FFA8A7"/>
<path d="M347.6 792.3C348.3 792.3 349.5 799.7 345.8 802.8C341.4 806.5 328.7 812.6 311.6 810.7C294.5 808.9 285.2 804 278.3 798.7C271.4 793.4 261.7 785.8 253.9 784.3C246.8 782.9 238.9 780 236.6 777.9C234.3 775.8 234.4 766.5 234.4 766.5L347.6 792.3Z" fill="#263238"/>
<path d="M240.5 730.4C240.5 730.4 238.4 730.5 238 732.6C237.5 735.2 237.1 742.7 236 747C234.6 752.9 233.8 764.9 234.8 769.7C235.8 774.5 247.5 777.6 255.1 780.2C262.7 782.9 271.6 788.4 279.5 794.4C287.6 800.5 304.6 806.6 315.7 806.6C332.6 806.6 343.5 802.1 346.8 796.2C350.8 789 347.5 784.9 327.8 776.6C324.1 775 311 767.9 306.6 765.3C294.5 758.4 282.5 748.6 276.7 736C276.1 734.6 275.4 732.9 273.9 732.2C272.7 731.6 271.4 731.7 270.1 731.9C266.8 732.4 263.7 733.4 260.8 734.8C258.2 736 254.5 737.4 254.6 740.6C254.6 741.7 255 742.8 255.4 743.8C255.6 744.5 255.8 745.3 255.3 745.7C254.7 746.1 253.9 745.7 253.4 745.3C251.4 743.5 249.8 741.3 248.1 739.3C247.1 738.3 246.1 737.2 244.9 736.4C243.9 735.6 242.5 735.3 241.5 734.4C240.3 733.3 240.6 731.9 240.5 730.4Z" fill="#37474F"/>
<path d="M331 778C306.5 779.9 299 794.4 298.2 803.4C304.3 805.3 310.6 806.6 315.7 806.6C332.6 806.6 344.2 802.1 347.5 796.2C351.3 789.4 348.5 784 331 778Z" fill="#FAFAFA"/>
<path d="M294.2 778.7C293.933 778.7 293.7 778.633 293.5 778.5C292.9 778.1 292.9 777.4 293.3 776.9C296.6 772.9 306.4 767.5 315.3 768.2C316 768.3 316.4 768.9 316.4 769.5C316.3 770.1 315.8 770.6 315.1 770.5C306.7 769.8 297.8 775.1 295.1 778.3C294.9 778.6 294.6 778.7 294.2 778.7Z" fill="#F0F0F0"/>
<path d="M283.6 773C283.267 773 283 772.933 282.8 772.8C282.3 772.4 282.2 771.7 282.6 771.2C285.9 767.1 295.7 761.7 304.6 762.5C305.3 762.6 305.8 763.2 305.7 763.8C305.6 764.4 305.1 764.9 304.4 764.8C296.1 764.1 287.1 769.4 284.5 772.6C284.2 772.9 283.9 773 283.6 773Z" fill="#F0F0F0"/>
<path d="M273.6 766.5C273.333 766.5 273.1 766.4 272.9 766.2C272.4 765.8 272.3 765.1 272.7 764.6C276 760.6 285.8 755.2 294.7 756C295.4 756.1 295.8 756.6 295.8 757.2C295.7 757.9 295.2 758.3 294.5 758.3C286.2 757.5 277.2 762.9 274.6 766C274.3 766.3 274 766.5 273.6 766.5Z" fill="#F0F0F0"/>
<path d="M263.9 759.9C263.633 759.9 263.4 759.833 263.2 759.7C262.6 759.3 262.5 758.6 262.9 758.1C267.5 752.4 278.1 748.5 287 749.3C287.7 749.4 288.2 749.9 288.1 750.6C288 751.2 287.5 751.6 286.8 751.6C278.8 750.9 268.9 754.4 264.9 759.5C264.6 759.8 264.3 759.9 263.9 759.9Z" fill="#F0F0F0"/>
<path d="M189.2 638.4L135 626.7C133.5 660.2 134.4 705.6 133.3 737.1C133 743 130 783.1 131.7 795.4C134.2 813.9 159 812.7 161.1 801.8C163.1 790.9 164.9 744.4 165.3 739.6C166.5 719.4 178 685.5 186 649.6C186.4 647.9 188.8 640.1 189.2 638.4Z" fill="#FFA8A7"/>
<path d="M169.8 809.9C169.6 820.7 168 827.9 164 834.3C160 840.8 151.9 843.1 143.6 841.5C135.2 840 124.4 835.5 121.6 826.3C118.8 817.1 119 810.7 120.4 800.7L169.8 809.9Z" fill="#263238"/>
<path d="M133.4 733.3C130 733.6 129.6 748.1 128.3 762.6C126.9 778.2 122 784.8 120.7 797.6C119.2 812.2 120.4 818.6 126.5 827.2C132.7 835.7 153.5 843.6 163 830.6C170.7 820.1 170.5 808.7 169.1 794.3C167.7 779.3 166.5 768.8 166.7 757.4C166.8 746.5 168.7 736.4 165.7 735.3C165.6 736.9 165.4 738.9 165.3 740.5C165.1 741.7 165.1 747.6 163.2 747.7C162.9 746.3 162.9 745 162.9 743.6C163 742.4 162.8 741.1 161.8 740.2C160.9 739.2 157.9 738.6 156.5 738.4C153.1 737.9 149.7 737.5 146.3 737.4C144.567 737.333 142.867 737.333 141.2 737.4C139.8 737.4 138.2 737.6 136.9 738.1C136.1 738.4 135.4 738.9 135.1 739.6C134.9 740.2 135 740.7 135 741.3C135.067 742.3 134.967 743.3 134.7 744.3C134.6 744.7 134.3 745.3 133.8 745.2C133.4 745.1 133.2 744.7 133.2 744.3C133.1 742.6 133.3 741.3 133.3 739.2C133.3 738.3 133.4 737 133.4 736.1C133.4 735.1 133.3 734.2 133.4 733.3Z" fill="#37474F"/>
<path d="M120.1 806C120 815 120.8 821.2 125.7 827.9C131.8 836.5 154.3 844.3 163.8 831.3C168.5 824.9 169.5 817.5 169.8 809.9C163.3 800.4 129.3 797.4 120.1 806Z" fill="#FAFAFA"/>
<path d="M160.4 794.4C160.2 794.4 160.033 794.367 159.9 794.3C159.8 794.3 145.6 789.1 130.4 792.8C129.8 792.9 129.1 792.6 128.9 792C128.7 791.4 129.1 790.8 129.8 790.6C145.8 786.7 160.3 792.1 160.9 792.3C161.6 792.5 161.9 793.2 161.6 793.8C161.4 794.2 160.9 794.5 160.4 794.4Z" fill="#F0F0F0"/>
<path d="M130.8 781.9C130.3 781.9 129.9 781.6 129.7 781.2C129.4 780.6 129.7 780 130.4 779.8C145.4 774.6 160.8 780.9 161.5 781.2C162.1 781.5 162.4 782.1 162.1 782.7C161.8 783.2 161 783.5 160.4 783.2C160.3 783.1 145.3 777.1 131.3 781.8C131.1 781.867 130.933 781.9 130.8 781.9Z" fill="#F0F0F0"/>
<path d="M131.2 771.7C130.7 771.7 130.3 771.4 130.1 771C129.8 770.4 130.1 769.8 130.8 769.5C147.3 763.6 161.9 770.6 162.5 770.9C163.1 771.2 163.3 771.8 163 772.4C162.7 772.9 161.9 773.1 161.3 772.8C161.1 772.7 147.1 766.1 131.7 771.6C131.567 771.667 131.4 771.7 131.2 771.7Z" fill="#F0F0F0"/>
<path d="M131.7 760.2C131.2 760.2 130.8 759.9 130.6 759.5C130.3 758.9 130.6 758.3 131.3 758.1C146.8 752.3 162.6 759.4 163.2 759.7C163.9 760 164.1 760.6 163.8 761.2C163.4 761.7 162.7 761.9 162.1 761.7C161.9 761.6 146.6 754.7 132.3 760.1C132.1 760.167 131.9 760.2 131.7 760.2Z" fill="#EBEBEB"/>
<path d="M157.7 363.6C156.4 424.6 145.5 560.2 145.5 560.2C144.6 567.7 133.8 599.6 133.4 626.7C132.7 669.3 131.8 701.5 131.8 701.5C131.8 701.5 155.6 710.9 173.1 704.4C173.1 704.4 195.8 613.9 202.1 585.7C209.7 552.1 228.6 489.6 228.6 489.6L227.3 578.4C227.3 578.4 223.5 605.9 226.6 632.2C228.6 650.1 235.8 700 235.8 700C235.8 700 257.7 704.4 276.7 698.8C276.7 698.8 288.1 591.6 289 575.1C290.1 556.3 295.9 367.3 295.9 367.3L157.7 363.6Z" fill="#455A64"/>
<path d="M228.6 489.6L237.1 433C237.1 433 257.9 432.1 272.1 418.8C272.1 418.8 270.3 432.1 244.4 440.1L234.6 487.9L227 576.8L228.6 489.6Z" fill="#37474F"/>
<path d="M265.7 185.6C276.7 185.1 297.2 184.4 312 202.5C322.3 215.3 350.6 246 366.6 266.3C377.3 255.1 403.4 228 407.6 220.1C413 210.8 415.7 201.6 417.4 196.8C419.4 190.6 420.2 185.9 420.8 182.2C422.1 173.6 421.2 167.2 421.1 164C421 158.5 429.1 161.3 432.3 170.1C434.6 176.5 434.4 181.1 434.7 185C437.7 183.6 446.5 179.3 447.9 178.6C452.7 176.4 467.9 171.1 469.4 179.6C469.7 181.6 469.1 183.7 469.9 185.4C470.3 186.3 471 186.9 471.6 187.7C473.8 190.4 474.2 194.4 472.8 197.6C472.1 199.1 471.7 200.4 472 202.1C472.2 203.8 472.6 205.4 472.2 207.1C471.8 208.4 470.9 209.4 470.2 210.6C469.4 212.2 469.2 213.9 468.9 215.7C468.7 217.4 468.5 219.2 467.8 220.8C466.1 224.6 461.5 225.5 457.9 226.7C453.2 228.4 447 230.6 442.1 233C433.6 238.6 410.7 280 387.5 306.5C379.6 315.6 372.4 321.3 364.9 320.3H365C358.9 320.1 351.3 314.6 344.1 308.3C321 288.4 283.9 249.2 283.9 249.2C268.3 230.4 263.9 198.2 265.7 185.6Z" fill="#FFA8A7"/>
<path d="M275.9 182.6C283.2 183.7 288.3 183.5 297.6 188.8C305.8 193.4 308.7 197.4 318.2 208C327.7 218.6 350.4 246.2 350.4 246.2C350.4 246.2 340.8 269.3 310.8 277.7L277.7 245.6L275.9 182.6Z" fill="#455A64"/>
<path d="M440.8 185.9C436.1 187.5 434.9 190.7 435.2 197.6C435.4 201.6 434.5 209.2 430.2 212.3C430.2 212.3 433.8 211.9 435.8 209.6C437.8 207.4 438.4 207.2 439.6 208.4C440.8 209.5 442.7 210 442.7 210C442.7 210 440.2 212.9 442.4 216.3C444.7 219.8 454.2 219.5 461.8 215.2C461.8 215.2 449.3 219.6 446.3 215.7C443.2 211.7 449.7 206.5 454.7 205C454.7 205 442.6 208.3 440.6 204.3C438.6 200.4 443.5 197.2 450.6 195.1C450.6 195.1 440.6 197.3 438.8 193.9C436.5 189.8 439.5 187.3 440.8 185.9Z" fill="#F28F8F"/>
<path d="M163.5 188.8C163.5 188.8 151.8 199.1 148.8 210.3C147.3 215.8 145.9 220.4 150.6 250.8C155 279.9 155 288.6 156 311.2L157.1 371.9C174.5 392.3 258.9 403.3 299.5 375.9C299.5 375.9 299.7 270.7 296.8 236C294.9 212.4 287.7 190.3 279.6 183.1C268.5 181.2 257.9 179.9 257.9 179.9L217.3 177.5L163.5 188.8Z" fill="#FF9E22"/>
<path d="M278.3 104.4C283.8 92 278.5 75.6 272 67.9C262.7 56.7 248.1 51.9 226.2 53.2C209.5 54.3 193.1 61.2 190 78.3C176.6 82.3 178.2 104.3 181.5 114C188.2 133.7 201.5 150.8 201.8 160.9L278.3 104.4Z" fill="#37474F"/>
<path d="M278.3 150.8C275.7 160.3 270.2 167.2 261.4 168.6C256.2 169.4 247.5 168.7 247.5 168.7L247.9 180.8C259.7 190.9 255.4 204.2 247.5 216.2C237.7 205.3 226.4 201.4 216.6 197.1C206.9 192.8 202.4 183.3 202.4 183.3L201.1 142.4C201.1 142.4 195.7 148.5 186.9 142.7C180.8 138.7 176.4 128.5 180.8 119C185.2 109.8 194 113.6 196.7 116.4C199.4 119.2 202.6 124.5 204.9 123.8C208.3 122.6 209.4 120.5 210.3 118.2C211.9 114.2 213 109.1 213.2 100.2C215.6 99 218 97.2 220.1 94.9C223.8 90.7 225.9 85.7 226 81.2C245 75.2 266.9 78 274.8 84.1C279.3 92.1 279.5 110.7 280.3 121.5C281.1 133.1 280.5 142.8 278.3 150.8Z" fill="#FFA8A7"/>
<path d="M247.5 168.7C237.8 168.1 218.2 163.6 213 158.2C207.8 152.7 205.6 141.6 205.6 141.6C205.6 141.6 206.4 155.7 210.4 161.8C214.4 168 224.6 170.7 230.8 172.3C237 173.8 247.7 174.8 247.7 174.8L247.5 168.7Z" fill="#F28F8F"/>
<path d="M247.5 216.2C242.4 213.1 231.2 200.3 225.6 206.3C220 212.2 217 213.8 213.3 212.7C209.6 211.6 201.5 203.6 196.1 197.7C190.8 191.8 189.1 183.4 189.1 183.4C189.1 183.4 194.3 177.1 196.6 172.9C199.2 168.5 198.6 167.2 201.9 167L202.1 175.4C202.1 175.4 204.2 180 213.3 186.3C222.5 192.5 240.9 201.8 247.5 216.2Z" fill="#455A64"/>
<path d="M247.5 216.2C250.5 213.4 255.4 200.5 256.7 200.9C258.7 201.5 262.2 210.4 263.8 208.3C266.5 205 265.7 190.1 261.3 184.6C257 179.4 251 173.4 247.6 172.8L247.9 180.8C247.9 180.8 251.2 187.3 251.2 193.7C251.1 198.2 248.1 211.9 247.5 216.2Z" fill="#455A64"/>
<path d="M241.4 115.2C241.4 117.5 239.6 119.3 237.5 119.3C235.3 119.3 233.5 117.5 233.5 115.2C233.5 113 235.3 111.2 237.4 111.2C239.6 111.2 241.4 113 241.4 115.2Z" fill="#263238"/>
<path d="M235.9 102.7L227.9 108C226.5 105.8 227.1 102.7 229.3 101.2C231.5 99.7 234.4 100.4 235.9 102.7Z" fill="#263238"/>
<path d="M274 106.4L265.3 102.2C266.4 99.7 269.2 98.6 271.6 99.8C274 100.9 275.1 103.9 274 106.4Z" fill="#263238"/>
<path d="M271.1 115C271.1 117.3 269.3 119.1 267.2 119.1C265 119.1 263.2 117.3 263.2 115C263.2 112.7 265 110.9 267.1 110.9C269.3 110.9 271.1 112.7 271.1 115Z" fill="#263238"/>
<path d="M250.4 106.8L253.2 135.1L268.4 130.5L250.4 106.8Z" fill="#F28F8F"/>
<path d="M241.4 141.6L257.6 145.2C256.7 149.9 252.4 152.8 247.9 151.8C243.4 150.9 240.5 146.3 241.4 141.6Z" fill="#B16668"/>
<path d="M247.9 151.8C248.2 151.9 248.5 151.9 248.9 152C248.8 147.9 245.4 144.6 241.3 144.6C241.8 148.1 244.3 151.1 247.9 151.8Z" fill="#F28F8F"/>
<path d="M379.1 279L272.8 299.8L233.6 427.6L334.8 405.1L379.1 279Z" fill="#263238"/>
<path opacity="0.1" d="M290.5 375.2C289.8 378.6 285.5 389.7 273.3 392.9C259.3 396.6 244.7 391.3 244.7 391.3L248 380.6L290.5 375.2Z" fill="black"/>
<path opacity="0.1" d="M347.3 295.9C347.3 295.9 347.8 294.1 348.4 291.9C349 289.8 342.9 289.3 334.7 290.8L319.1 293.8C310.9 295.4 303.8 298.4 303.2 300.6L302 304.5L347.3 295.9Z" fill="black"/>
<path d="M355.5 281.3C355.9 279.9 353.5 279.4 350 280.1L343.8 281.4C343.8 281.4 346.2 272.9 332.5 275C318.7 277.2 315.1 286.8 315.1 286.8C315.1 286.8 312.2 287.4 308.5 288.2C304.9 289 301.5 290.7 301 292.1L300 294.5L354.8 283.8C354.8 283.8 355.1 282.6 355.5 281.3Z" fill="#FF9E22"/>
<path opacity="0.3" d="M355.5 281.3C355.9 279.9 353.5 279.4 350 280.1L343.8 281.4C343.8 281.4 346.2 272.9 332.5 275C318.7 277.2 315.1 286.8 315.1 286.8C315.1 286.8 312.2 287.4 308.5 288.2C304.9 289 301.5 290.7 301 292.1L300 294.5L354.8 283.8C354.8 283.8 355.1 282.6 355.5 281.3Z" fill="black"/>
<path d="M303.8 301C304.3 299.2 309.3 296.8 315.7 295.2C315.767 294.933 315.833 294.7 315.9 294.5C316.4 292.7 315.6 291.4 311.8 292.2L311.5 290.7L349.5 283.6L347.8 285.1C342.8 286 340.7 286.5 339.8 289.9C339.7 290.1 339.6 290.4 339.6 290.6C345.5 289.9 349.6 290.6 349.1 292.3C348.4 294.5 347.9 296.3 347.9 296.3L302.7 305L303.8 301Z" fill="#FF9E22"/>
<path opacity="0.4" d="M303.8 301C304.3 299.2 309.3 296.8 315.7 295.2C315.767 294.933 315.833 294.7 315.9 294.5C316.4 292.7 315.6 291.4 311.8 292.2L311.5 290.7L349.5 283.6L347.8 285.1C342.8 286 340.7 286.5 339.8 289.9C339.7 290.1 339.6 290.4 339.6 290.6C345.5 289.9 349.6 290.6 349.1 292.3C348.4 294.5 347.9 296.3 347.9 296.3L302.7 305L303.8 301Z" fill="black"/>
<path d="M256.4 353.3C269.4 357.7 282.4 358 295.9 358C299.2 358 301.7 358.5 302.7 361.6C303 362.7 303.5 364.3 299.2 365.5C298.1 365.9 296.6 366.3 295.9 367.3C294.9 368.8 295.4 370.4 295.2 372.2C294.8 374.9 292.9 377.1 291.1 379.1C289.1 381.4 287 383.7 284.4 385.3C276.2 390.5 263.5 391.2 254.1 389.6C247.8 388.6 241.4 386.3 235.4 384.1C229.7 382 194.8 371.7 190.7 370.3C159.9 359.5 117.6 346.4 115.1 331.8C112.6 317.2 120.4 271.7 126 234.7C130.5 204.8 142.7 194.1 162.3 190C183.9 214.5 170.3 256.9 170.3 256.9L162.4 313.4C165.8 316.2 216.1 344.4 224.8 347.3C228 348.3 233.9 347 237 346C245.4 343.1 251.2 343.3 259.3 343.7" fill="#FFA8A7"/>
<path d="M163.5 188.8C142.6 191.7 130.2 202.4 126 222.6C122.5 239.6 115.9 294.5 115.9 294.5C129.8 306.8 152.6 306.1 164.9 301.8L171.3 257.7C176.4 246.4 184.4 212.8 163.5 188.8Z" fill="#455A64"/>
<path d="M150.1 367.2L139.5 373C138.3 373.7 137.2 375.5 137.1 376.9C136.9 386.4 136.1 418.8 137.6 436.6C137.8 438.1 138.9 439.8 140.2 440.6C146.2 443.9 162.5 452.9 169.9 454.9C171.3 455.3 173.6 454.9 175 454.4L182.5 451.3C183.9 450.8 185 449.2 185 447.7C185 428.8 188.3 408.1 191.4 387.5C191.6 386.1 190.8 384.4 189.4 383.7L154.8 367C153.5 366.4 151.4 366.5 150.1 367.2Z" fill="#455A64"/>
<path d="M137.6 436.6C136.1 418.8 136.9 386.4 137.1 376.9C137.2 375.5 138.3 374.8 139.6 375.5L171.8 391.5C173.1 392.1 174.1 393.8 174 395.3C173.3 403.7 171.4 430.5 172.4 452.7C172.5 454.2 171.3 455.3 169.9 454.9C162.5 452.9 146.2 443.9 140.2 440.6C138.9 439.8 137.8 438.1 137.6 436.6Z" fill="#37474F"/>
<path d="M170.3 455C171.7 455.3 173.8 454.9 175 454.4L182.5 451.3C183.9 450.8 184.8 449.2 184.9 447.7C186.4 428.3 188.3 408.1 191.4 387.5C191.5 386.8 191.4 386.1 191 385.5L173.6 393.4C173.9 394 174 394.7 174 395.3C173.3 403.7 171.3 430.5 172.4 452.7C172.5 454 171.5 455.1 170.3 455Z" fill="#263238"/>
<path d="M143.4 383.6L167.1 395.1L165.8 414.3L142.7 404.2C142.7 404.2 142.9 391.8 143.4 383.6Z" fill="#263238"/>
<path d="M165.9 412.9L144.1 403.3C144.1 403.3 144.2 392.3 144.6 384.2L167.1 395.1L165.9 412.9Z" fill="#FF9E22"/>
<path opacity="0.4" d="M165.9 412.9L144.1 403.3C144.1 403.3 144.2 392.3 144.6 384.2L167.1 395.1L165.9 412.9Z" fill="black"/>
<path d="M177 382.4L171.1 385.2L149.9 374.9L155.6 372L177 382.4Z" fill="#263238"/>
<path d="M176.1 382.8L171.1 385.2L150.8 375.3L155.7 372.8L176.1 382.8Z" fill="#FF9E22"/>
<path opacity="0.4" d="M176.1 382.8L171.1 385.2L150.8 375.3L155.7 372.8L176.1 382.8Z" fill="black"/>
<path opacity="0.4" d="M173.1 381.4L168.1 383.7L167.4 383.4L172.4 381L173.1 381.4Z" fill="black"/>
<path opacity="0.4" d="M168.6 379.1L163.6 381.5L162.9 381.2L167.9 378.8L168.6 379.1Z" fill="black"/>
<path opacity="0.4" d="M164.1 377L159.1 379.3L158.4 379L163.4 376.6L164.1 377Z" fill="black"/>
<path opacity="0.4" d="M160 375L155 377.3L154.3 377L159.3 374.6L160 375Z" fill="black"/>
<path d="M166.8 420.9L166.7 423.3C166.6 424 166 424.4 165.3 424.1L161.1 422.4C160.4 422.1 159.9 421.3 159.9 420.5L160.1 418.1C160.1 417.4 160.7 417 161.4 417.3L165.7 419.1C166.4 419.4 166.9 420.2 166.8 420.9Z" fill="#263238"/>
<path d="M166.9 428.7L166.7 431.1C166.7 431.8 166.1 432.2 165.4 431.9L161.1 430.2C160.5 429.9 159.9 429.1 160 428.4L160.1 426C160.1 425.2 160.7 424.9 161.3 425.1L165.7 426.9C166.4 427.1 166.9 427.9 166.9 428.7Z" fill="#263238"/>
<path d="M166.9 436.4L166.8 438.8C166.8 439.5 166.2 439.9 165.5 439.7L161.2 438C160.5 437.8 160 437 160 436.2L160.1 433.8C160.1 433.1 160.7 432.7 161.3 433L165.7 434.6C166.4 434.9 166.9 435.7 166.9 436.4Z" fill="#263238"/>
<path d="M167 444.2L166.9 446.5C166.9 447.3 166.3 447.7 165.6 447.4L161.3 445.9C160.6 445.6 160 444.8 160 444.1L160.1 441.7C160.1 440.9 160.6 440.5 161.3 440.8L165.7 442.4C166.4 442.6 167 443.4 167 444.2Z" fill="#263238"/>
<path d="M157.3 416.6L157.1 419C157.1 419.8 156.5 420.1 155.8 419.9L151.6 418.1C150.9 417.8 150.4 417 150.4 416.3L150.5 413.7C150.5 413 151.1 412.6 151.8 412.9L156.1 414.7C156.8 415 157.3 415.8 157.3 416.6Z" fill="#263238"/>
<path d="M157.2 424.3L157.1 426.7C157.1 427.5 156.5 427.8 155.8 427.6L151.6 425.8C150.9 425.5 150.3 424.7 150.4 424L150.5 421.4C150.5 420.7 151.1 420.4 151.7 420.6L156.1 422.4C156.7 422.7 157.3 423.5 157.2 424.3Z" fill="#263238"/>
<path d="M157.2 431.9L157.1 434.4C157.1 435.2 156.5 435.5 155.8 435.2L151.5 433.5C150.9 433.3 150.3 432.4 150.3 431.7L150.4 429.2C150.4 428.4 151 428.1 151.7 428.3L156 430.1C156.7 430.4 157.2 431.2 157.2 431.9Z" fill="#263238"/>
<path d="M157.2 439.6L157.1 442.1C157 442.8 156.5 443.2 155.8 442.9L151.5 441.2C150.8 441 150.3 440.2 150.3 439.4L150.4 436.9C150.4 436.2 151 435.8 151.6 436.1L156 437.8C156.7 438.1 157.2 438.9 157.2 439.6Z" fill="#263238"/>
<path d="M147.7 412.2L147.6 414.8C147.6 415.5 147 415.9 146.3 415.6L142.1 413.8C141.4 413.5 140.9 412.7 140.9 412L141 409.3C141 408.6 141.5 408.3 142.2 408.5L146.5 410.3C147.2 410.6 147.7 411.5 147.7 412.2Z" fill="#263238"/>
<path d="M147.7 419.7L147.6 422.3C147.6 423 147 423.3 146.3 423.1L142.1 421.3C141.4 421 140.9 420.2 140.9 419.5L141 416.8C141 416.1 141.6 415.7 142.2 416L146.5 417.8C147.2 418.1 147.7 418.9 147.7 419.7Z" fill="#263238"/>
<path d="M147.7 427.1L147.6 429.7C147.6 430.5 147 430.8 146.4 430.5L142.1 428.8C141.5 428.5 140.9 427.7 141 426.9V424.3C141 423.6 141.6 423.2 142.3 423.5L146.5 425.3C147.2 425.6 147.7 426.4 147.7 427.1Z" fill="#263238"/>
<path d="M147.7 434.6V437.2C147.6 437.9 147.1 438.3 146.4 438L142.2 436.3C141.5 436 141 435.2 141 434.4V431.8C141.1 431 141.6 430.7 142.3 431L146.6 432.8C147.2 433.1 147.8 433.9 147.7 434.6Z" fill="#263238"/>
<path d="M576.1 178.2L551.3 192.5L561.1 214.6C561.4 215.1 561.7 215.4 562.1 215.6C563.3 216.3 570.2 220.3 570.6 220.5C571.8 221.2 573.4 220.7 573.9 219.2L584.6 183.1L576.1 178.2Z" fill="#FF9E22"/>
<path opacity="0.1" d="M576.1 178.2L551.3 192.5L561.1 214.6C561.4 215.1 561.7 215.4 562.1 215.6C563.3 216.3 570.2 220.3 570.6 220.5C571.8 221.2 573.4 220.7 573.9 219.2L584.6 183.1L576.1 178.2Z" fill="black"/>
<path d="M559.8 197.4L569.7 219.5C570.5 221.4 573.3 221.2 573.9 219.2L584.6 183.1L559.8 197.4Z" fill="#FF9E22"/>
<path d="M607.2 39L513.9 92.9C512.7 93.6 511.8 95.2 511.8 96.6V212.4C511.8 213.7 512.7 215.4 513.9 216L521.6 220.3C522.8 221 524.7 221 525.9 220.3L619.2 166.5C620.4 165.8 621.3 164.1 621.3 162.8V47C621.3 45.6 620.3 44 619.2 43.3L611.5 39C610.3 38.4 608.4 38.4 607.2 39Z" fill="#FF9E22"/>
<path opacity="0.5" d="M621.3 46.6C621.1 45.5 620.2 45.2 619.2 45.8L525.9 99.6C525.3 100 524.8 100.6 524.4 101.2L512.4 94.4C512.8 93.8 513.3 93.2 513.9 92.9L607.2 39C608.4 38.4 610.3 38.3 611.5 39L619.2 43.3C620.2 43.9 621.1 45.3 621.3 46.6Z" fill="white"/>
<path d="M523.8 219.1V103.3C523.8 102 524.7 100.3 525.9 99.6L619.2 45.8C620.4 45.1 621.3 45.6 621.3 47V162.8C621.3 164.1 620.4 165.8 619.2 166.5L525.9 220.3C524.7 221 523.8 220.4 523.8 219.1Z" fill="#FF9E22"/>
<path opacity="0.1" d="M525.9 220.3C524.8 221 522.7 221 521.6 220.3L513.9 216C512.7 215.4 511.8 213.7 511.8 212.4V96.6C511.8 95.9 512 95.1 512.5 94.4L524.4 101.2C524 101.9 523.7 102.6 523.7 103.3V219.1C523.8 220.3 524.6 221 525.9 220.3Z" fill="black"/>
<path fill-rule="evenodd" clip-rule="evenodd" d="M533.7 135.6C533.567 135.6 533.4 135.533 533.2 135.4C532.9 135.2 532.7 134.9 532.7 134.5V114.3C532.7 114 532.9 113.6 533.2 113.4L550.7 103.3C551 103.1 551.4 103.1 551.7 103.3C552.1 103.5 552.3 103.9 552.3 104.3V124.4C552.3 124.8 552.1 125.2 551.7 125.3L534.3 135.4C534.1 135.533 533.9 135.6 533.7 135.6ZM534.8 115V132.6L550.1 123.8V106.1L534.8 115Z" fill="#FAFAFA"/>
<path d="M553.2 99.2C552.2 98.8 550.9 99.3 550.5 100.3L542.5 119.4L540.6 117.5C539.7 116.7 538.4 116.7 537.6 117.6C536.8 118.4 536.8 119.7 537.6 120.6L541.7 124.6C542.1 125 542.7 125.2 543.2 125.2C543.333 125.2 543.467 125.167 543.6 125.1C544.3 125 544.9 124.5 545.2 123.9L554.4 102C554.8 100.9 554.3 99.7 553.2 99.2Z" fill="#455A64"/>
<path d="M566 102.7L610.5 77C612.1 76.1 613.3 76.8 613.3 78.5C613.3 80.1 612.1 82.2 610.5 83.1L566 108.8C564.5 109.7 563.2 109.1 563.2 107.4C563.2 105.7 564.5 103.6 566 102.7Z" fill="#455A64"/>
<path fill-rule="evenodd" clip-rule="evenodd" d="M533.7 165.8C533.567 165.8 533.4 165.767 533.2 165.7C532.9 165.5 532.7 165.1 532.7 164.7V144.6C532.7 144.2 532.9 143.8 533.2 143.6L550.7 133.6C551 133.4 551.4 133.4 551.7 133.6C552.1 133.8 552.3 134.1 552.3 134.5V154.6C552.3 155 552.1 155.4 551.7 155.6L534.3 165.7C534.1 165.767 533.9 165.8 533.7 165.8ZM534.8 145.2V162.9L550.1 154V136.4L534.8 145.2Z" fill="#FAFAFA"/>
<path d="M553.2 129.4C552.2 129 550.9 129.5 550.5 130.6L542.5 149.6L540.6 147.8C539.7 146.9 538.4 147 537.6 147.8C536.8 148.6 536.8 150 537.6 150.8L541.7 154.8C542.1 155.2 542.7 155.4 543.2 155.4C543.333 155.4 543.467 155.4 543.6 155.4C544.3 155.2 544.9 154.8 545.2 154.1L554.4 132.2C554.8 131.1 554.3 129.9 553.2 129.4Z" fill="#455A64"/>
<path d="M566 132.9L610.5 107.2C612.1 106.3 613.3 106.9 613.3 108.6C613.3 110.3 612.1 112.4 610.5 113.2L566 139C564.5 139.8 563.2 139.2 563.2 137.5C563.2 135.8 564.5 133.8 566 132.9Z" fill="#455A64"/>
<path fill-rule="evenodd" clip-rule="evenodd" d="M533.7 196C533.567 196 533.4 195.967 533.2 195.9C532.9 195.7 532.7 195.3 532.7 195V174.8C532.7 174.4 532.9 174.1 533.2 173.9L550.7 163.8C551 163.6 551.4 163.6 551.7 163.8C552.1 164 552.3 164.3 552.3 164.7V184.9C552.3 185.3 552.1 185.6 551.7 185.8L534.3 195.9C534.1 195.967 533.9 196 533.7 196ZM534.8 175.4V193.1L550.1 184.3V166.6L534.8 175.4Z" fill="#FAFAFA"/>
<path d="M553.2 159.7C552.2 159.2 550.9 159.7 550.5 160.8L542.5 179.8L540.6 178C539.7 177.2 538.4 177.2 537.6 178C536.8 178.9 536.8 180.2 537.6 181L541.7 185C542.1 185.4 542.7 185.6 543.2 185.6C543.333 185.6 543.467 185.6 543.6 185.6C544.3 185.5 544.9 185 545.2 184.3L554.4 162.4C554.8 161.4 554.3 160.1 553.2 159.7Z" fill="#455A64"/>
<path d="M566 163L610.5 137.3C612.1 136.4 613.3 137.1 613.3 138.7C613.3 140.4 612.1 142.5 610.5 143.4L566 169.1C564.5 170 563.2 169.3 563.2 167.7C563.2 166 564.5 163.9 566 163Z" fill="#455A64"/>
</svg>
