<svg version="1.2" xmlns="http://www.w3.org/2000/svg" viewBox="0 0 850 850" width="850" height="850"><defs><clipPath clipPathUnits="userSpaceOnUse" id="cp1"><path d="m850 0v850h-850v-850z"/></clipPath></defs><style>.a{mix-blend-mode:soft-light;fill:#fefefe}.b{fill:#fff0db}.c{fill:none;stroke:#3a3f63;stroke-linecap:round;stroke-linejoin:round;stroke-width:3}.d{mix-blend-mode:multiply;fill:#fff0e0}.e{fill:#41486e}.f{fill:#cccdcf}.g{fill:#ffd9a9}.h{mix-blend-mode:multiply;fill:#fbd5b4}.i{fill:none;stroke:#000;stroke-linecap:round;stroke-linejoin:round;stroke-width:3}.j{mix-blend-mode:multiply;fill:#f9e3b9}.k{fill:#fed03e}.l{fill:none;stroke:#3d4368;stroke-linecap:round;stroke-linejoin:round;stroke-width:3}.m{fill:#3d4368}.n{mix-blend-mode:soft-light;fill:#f5fbfd}.o{fill:#ffd9a9;stroke:#3a3f63;stroke-linecap:round;stroke-linejoin:round;stroke-width:3}.p{fill:#ff9e22}.q{fill:#3a3f63}.r{mix-blend-mode:multiply;fill:#fbe8ce}.s{fill:#fefefe}.t{mix-blend-mode:multiply;fill:#dfcfd8}</style><g clip-path="url(#cp1)"><g style="opacity:.3"><path class="a" d="m450.7 788.5c-206.4 0-373.2-166.8-373.2-373.2 0-206.3 166.8-373.2 373.2-373.2 206.3 0 373.1 166.9 373.1 373.2 0 206.4-166.8 373.2-373.1 373.2z"/></g><path class="b" d="m678.5 697.3h-374.4v-475h325.3l49.1 50.6z"/><path fill-rule="evenodd" class="c" d="m678.5 697.3h-374.4v-475h325.3l49.1 50.6z"/><path class="d" d="m660.2 254.3c-0.2 7.8 1.5 314.7 1.3 341.9-0.2 13 1 60.8-2.8 70.7-2.2 6-6.1 9.6-12.4 10.7-9.9 1.5-238.3 1.2-342.2 1.2v18.5h374.4v-424.4z"/><path fill-rule="evenodd" class="e" d="m420.3 319.2c0.8 1.7-0.1 3.6-1.8 4.3-1.7 0.7-3.6 0-4.4-1.9l-4.7-11.4h-16l-4.7 11.4c-0.6 1.3-1.8 2.1-3.2 2.1q-0.7 0-1.2-0.2c-1.8-0.7-2.6-2.6-1.9-4.3l5.5-13.7 9.1-22.1c0.6-1.3 1.7-2.1 3.2-2.1h2.4c1.3 0 2.6 0.8 3.2 2.1l9.1 22.1zm-13.8-15.6l-5.2-12.8-5.4 12.8z"/><path class="e" d="m454 281.9c-1.6-1.2-3.7-0.8-4.7 0.6l-10.5 14.3-9.5-14.2c-1.2-1.5-3.3-1.9-4.8-0.9-1.6 1.1-2 3.2-0.9 4.7l11 16.3-11.7 15.8c-1.2 1.6-0.8 3.7 0.7 4.8 0.6 0.4 1.3 0.7 2 0.7 1.1 0 2.1-0.5 2.8-1.4l10.2-14.1 9.4 13.9c0.7 1.1 1.7 1.6 2.7 1.6 0.7 0 1.3-0.3 2-0.7 1.5-1 1.9-3.1 0.9-4.6l-10.8-15.9 12-16.3c1-1.5 0.7-3.6-0.8-4.6z"/><path class="e" d="m385.7 288.4c1.9 0 3.4-1.5 3.4-3.4 0-1.8-1.5-3.4-3.4-3.4h-23.5c-1.9 0-3.4 1.6-3.4 3.4 0 1.9 1.5 3.4 3.4 3.4h8.3v31.4c0 2 1.6 3.4 3.4 3.4 2 0 3.4-1.4 3.4-3.4v-31.4z"/><path class="e" d="m613.8 328.4v4.9h-257.2v-4.9z"/><path class="e" d="m613.8 270.7v4.9h-257.2v-4.9z"/><path class="f" d="m629 222.2l-0.2 50.4 49.7 0.3z"/><path fill-rule="evenodd" class="c" d="m629 222.2l-0.2 50.4 49.7 0.3z"/><path class="g" d="m642.5 605.3v16.4h-305.3v-16.4z"/><path fill-rule="evenodd" class="c" d="m642.5 605.3v16.4h-305.3v-16.4z"/><path class="h" d="m642.5 614.4v7.3h-305.3v-7.3z"/><path class="g" d="m642.5 639v16.4h-305.3v-16.4z"/><path fill-rule="evenodd" class="c" d="m642.5 639v16.4h-305.3v-16.4z"/><path class="h" d="m642.5 648.3v7.1h-305.3v-7.1z"/><path fill-rule="evenodd" class="c" d="m640.8 364.9v220.5h-302v-220.5z"/><path fill-rule="evenodd" class="c" d="m449.6 377.9v207.9"/><path class="e" d="m640.9 363.9v26.1h-302.1v-26.1z"/><path fill-rule="evenodd" class="i" d="m640.9 363.9v26.1h-302.1v-26.1z"/><path class="j" d="m640.9 376.6v13.4h-302.1v-13.4z"/><path fill-rule="evenodd" class="c" d="m339.6 426.2h300.5"/><path fill-rule="evenodd" class="c" d="m339.6 465.4h300.5"/><path fill-rule="evenodd" class="c" d="m339.6 504.7h300.5"/><path fill-rule="evenodd" class="c" d="m339.6 543.9h300.5"/><path class="k" d="m212.3 194.6c-32.8 0-59.4-26.5-59.4-59.4 0-32.8 26.6-59.4 59.4-59.4 32.9 0 59.4 26.6 59.4 59.4 0 32.9-26.5 59.4-59.4 59.4z"/><path fill-rule="evenodd" class="l" d="m212.3 194.6c-32.8 0-59.4-26.5-59.4-59.4 0-32.8 26.6-59.4 59.4-59.4 32.9 0 59.4 26.6 59.4 59.4 0 32.9-26.5 59.4-59.4 59.4z"/><path class="m" d="m212.3 180.3c-24.9 0-45.1-20.1-45.1-45.1 0-24.9 20.2-45.1 45.1-45.1 25 0 45.1 20.2 45.1 45.1 0 25-20.1 45.1-45.1 45.1z"/><path class="k" d="m213.9 130.5c-4.6-0.2-9.9-1.4-9.9-5.3 0-4.3 3-6.7 8.3-6.7 4.6 0 8.3 2.9 8.3 6.7h13.3c0-7.5-6.8-14-16-15.8v-5.1h-11.2v4.9c-9.7 1.7-16.1 7.8-16.1 16 0 8.3 8.7 14.2 22.2 15 6.5 0.2 7.8 2.2 7.8 5.2 0 3.1-3.9 6.9-8.3 6.9-4.7 0-8.3-3.2-8.3-6.9h-13.4c0 7.6 6.9 14 16.1 16v4.8h11.2v-5c9-1.9 16-8.6 16-15.8 0-8.7-7.3-14.2-20-14.9z"/><path class="n" d="m250.7 89.9c-7.6-6-12.9-8.4-12.9-8.4 0 0-64.1 90.4-68 95.2 2.7 2.9 7.3 6.2 10.5 8.4 2.2-3.6 70.4-95.2 70.4-95.2z"/><path class="n" d="m260.9 101.2c0 0-1.7-3.4-5.6-7.6 0 0-65.2 88.4-69.2 94.4 5.8 3 8.4 3.5 8.4 3.5z"/><path class="o" d="m389 620.3c24.6 139.2-86.6 152.6-175.6 152.6-89.1 0-187.6-26.9-167.1-160.3 14-90.4 65.9-241.9 168.1-241.9 102.2 0 158.9 159.5 174.6 249.6z"/><path class="h" d="m389 620.3c-14.6-82.9-63.5-224.2-150.6-246.5 1.3 2.3 2.8 4.7 4.1 7 18.6 32.6 37.3 65.9 50.7 101 22.5 59 33.8 127 8.8 186.9-22.2 53.2-71 84.5-127.4 89.2-24.6 2-50.8-0.2-74.7-8.2 32.1 17.8 73.7 23.2 113.5 23.2 89 0 200.2-13.4 175.6-152.6z"/><path class="o" d="m178.6 376c0 0-63.4-45.4-54-123.1 11.1-92.6 69.6 54.3 148.3-27.5 54.7-56.8 25.2 128.2-24.4 149.8z"/><path class="h" d="m287.2 215.2c-0.3 33.9-2.6 71.2-24.1 97.6-26 32.1-73.4 45-112.7 33.9 13.9 19 28.2 29.3 28.2 29.3l69.9-0.8c44.5-19.4 72.9-170.4 38.7-160z"/><path class="p" d="m278.4 379.8c0 4.8-3.9 8.7-8.8 8.7h-118c-4.8 0-8.6-3.9-8.6-8.7v-12c0-4.8 3.8-8.7 8.6-8.7h118c4.9 0 8.8 3.9 8.8 8.7z"/><path fill-rule="evenodd" class="l" d="m278.4 379.8c0 4.8-3.9 8.7-8.8 8.7h-118c-4.8 0-8.6-3.9-8.6-8.7v-12c0-4.8 3.8-8.7 8.6-8.7h118c4.9 0 8.8 3.9 8.8 8.7z"/><path  d="m224 560.8c-17-1-37.3-5.2-37.3-19.7 0-16.5 11.4-25.9 31.5-25.9 17.3 0 31.3 11.6 31.3 25.9h50.3c0-28.7-25.7-53.1-60.4-60.1v-19.1h-42.3v18.7c-36.5 6.3-60.6 29.4-60.6 60.5 0 31.2 32.8 53.2 83.6 55.9 24.6 1.4 29.4 8.3 29.4 19.7 0 11.7-14.4 25.9-31.3 25.9-17.3 0-31.5-11.6-31.5-25.9h-50.2c0 28.9 25.8 53.1 60.6 60.2v18.1h42.3v-18.3c33.9-7.6 60.4-32.3 60.4-60 0-32.8-27.7-53.3-75.8-55.9z"/><path class="o" d="m828.8 567.3v167.5h-253.8v-167.5z"/><path class="p" d="m797.8 597.5v41.3h-61.6v-41.3z"/><path fill-rule="evenodd" class="l" d="m797.8 597.5v41.3h-61.6v-41.3z"/><path class="q" d="m716.6 600.5v8.1h-117.8v-8.1z"/><path class="q" d="m716.6 614.1v8.2h-117.8v-8.2z"/><path class="q" d="m716.6 627.9v8.1h-117.8v-8.1z"/><path class="p" d="m829 666v49.8h-254.4v-49.8z"/><path fill-rule="evenodd" class="l" d="m829 666v49.8h-254.4v-49.8z"/><path class="r" d="m808.6 567.3c0 0 6 117-10.1 131.9-11.8 10.8-65.3 6.5-80 6.5l-143.5-1.5v30.6h253.8v-167.5z"/><path class="s" d="m699.2 340.5c-69.2 0-125.2-56-125.2-125.3 0-69.3 56-125.3 125.2-125.3 69.3 0 125.3 56 125.3 125.3 0 69.3-56 125.3-125.3 125.3z"/><path class="p" d="m699 353.1c-76.8 0-138.9-62.1-138.9-139 0-76.9 62.1-139.1 138.9-139.1 76.9 0 139 62.2 139 139.1 0 76.9-62.1 139-139 139z"/><path fill-rule="evenodd" class="c" d="m699 353.1c-76.8 0-138.9-62.1-138.9-139 0-76.9 62.1-139.1 138.9-139.1 76.9 0 139 62.2 139 139.1 0 76.9-62.1 139-139 139z"/><path class="s" d="m699 330.5c-64.4 0-116.4-52.1-116.4-116.5 0-64.4 52-116.5 116.4-116.5 64.5 0 116.5 52.1 116.5 116.5 0 64.4-52 116.5-116.5 116.5z"/><path fill-rule="evenodd" class="l" d="m699 330.5c-64.4 0-116.4-52.1-116.4-116.5 0-64.4 52-116.5 116.4-116.5 64.5 0 116.5 52.1 116.5 116.5 0 64.4-52 116.5-116.5 116.5z"/><path fill-rule="evenodd" class="r" d="m699 330.4c-64.3 0-116.3-52-116.3-116.4 0-64.3 52-116.3 116.3-116.3 64.4 0 116.4 52 116.4 116.3 0 64.4-52 116.4-116.4 116.4zm102.6-116.4c0-56.7-45.8-102.6-102.6-102.6-56.7 0-102.5 45.9-102.5 102.6 0 56.7 45.8 102.6 102.5 102.6 56.8 0 102.6-45.9 102.6-102.6z"/><path fill-rule="evenodd" class="t" d="m699 353c-76.7 0-138.8-62.1-138.8-138.9 0-76.8 62.1-138.9 138.8-138.9 76.8 0 138.9 62.1 138.9 138.9 0 76.8-62.1 138.9-138.9 138.9zm129-138.9c0-71.4-57.7-129.1-129-129.1-71.4 0-129.1 57.7-129.1 129.1 0 71.3 57.7 129 129.1 129 71.3 0 129-57.7 129-129z"/><path class="e" d="m699 136.4c-1.5 0-2.8-1.3-2.8-2.9v-22.2c0-1.6 1.3-2.9 2.8-2.9 1.6 0 2.9 1.3 2.9 2.9v22.2c0 1.6-1.3 2.9-2.9 2.9z"/><path class="e" d="m699 319.7c-1.5 0-2.8-1.3-2.8-2.9v-22.2c0-1.7 1.3-2.9 2.8-2.9 1.6 0 2.9 1.2 2.9 2.9v22.2c0 1.6-1.3 2.9-2.9 2.9z"/><path class="e" d="m618.6 216.9h-22.4c-1.6 0-2.9-1.3-2.9-2.9 0-1.6 1.3-2.9 2.9-2.9h22.4c1.5 0 2.8 1.3 2.8 2.9 0 1.6-1.3 2.9-2.8 2.9z"/><path class="e" d="m801.9 216.9h-22.4c-1.6 0-2.9-1.3-2.9-2.9 0-1.6 1.3-2.9 2.9-2.9h22.4c1.5 0 2.7 1.3 2.7 2.9 0 1.6-1.2 2.9-2.7 2.9z"/><path class="q" d="m773.7 211.9v1.5h-76.2v-1.5z"/><path class="q" d="m708.1 212.6c0-5.4-4.3-9.6-9.6-9.6q-1.3 0-2.5 0.2l-29.9-47-5.9 3.7 30.1 47.6c-0.9 1.4-1.5 3.3-1.5 5.1 0 4.7 3.5 8.7 7.9 9.5v67.6h4.3v-67.8c4-1.1 7.1-4.9 7.1-9.3z"/><path class="k" d="m88.9 274.5c-32.8 0-59.4-26.6-59.4-59.5 0-32.8 26.6-59.4 59.4-59.4 32.9 0 59.5 26.6 59.5 59.4 0 32.9-26.6 59.5-59.5 59.5z"/><path fill-rule="evenodd" class="l" d="m88.9 274.5c-32.8 0-59.4-26.6-59.4-59.5 0-32.8 26.6-59.4 59.4-59.4 32.9 0 59.5 26.6 59.5 59.4 0 32.9-26.6 59.5-59.5 59.5z"/><path class="m" d="m88.9 260.2c-24.9 0-45.1-20.2-45.1-45.2 0-24.9 20.2-45.1 45.1-45.1 25 0 45.2 20.2 45.2 45.1 0 25-20.2 45.2-45.2 45.2z"/><path class="k" d="m90.5 210.4c-4.5-0.3-9.9-1.5-9.9-5.4 0-4.3 3-6.7 8.3-6.7 4.6 0 8.4 3 8.4 6.7h13.4c0-7.5-6.9-14-16.2-15.8v-5.1h-11.1v4.9c-9.8 1.7-16.2 7.8-16.2 16 0 8.4 8.7 14.2 22.3 15 6.5 0.2 7.8 2.2 7.8 5.2 0 3.1-3.9 6.9-8.4 6.9-4.5 0-8.3-3.1-8.3-6.9h-13.4c0 7.7 6.9 14 16.2 16v4.8h11.1v-5c9-1.9 16.2-8.5 16.2-15.8 0-8.7-7.5-14.2-20.2-14.8z"/><path class="n" d="m127.3 169.7c-7.5-6-12.9-8.3-12.9-8.3 0 0-64.1 90.3-68 95.1 2.8 2.9 7.3 6.3 10.6 8.5 2.2-3.7 70.3-95.3 70.3-95.3z"/><path class="n" d="m137.6 181c0 0-1.7-3.4-5.6-7.6 0 0-65.3 88.4-69.3 94.4 5.8 3 8.4 3.5 8.4 3.5z"/><path class="k" d="m319 274.5c-32.8 0-59.4-26.6-59.4-59.5 0-32.8 26.6-59.4 59.4-59.4 32.9 0 59.5 26.6 59.5 59.4 0 32.9-26.6 59.5-59.5 59.5z"/><path fill-rule="evenodd" class="l" d="m319 274.5c-32.8 0-59.4-26.6-59.4-59.5 0-32.8 26.6-59.4 59.4-59.4 32.9 0 59.5 26.6 59.5 59.4 0 32.9-26.6 59.5-59.5 59.5z"/><path class="m" d="m319 260.2c-24.9 0-45.1-20.2-45.1-45.2 0-24.9 20.2-45.1 45.1-45.1 25 0 45.2 20.2 45.2 45.1 0 25-20.2 45.2-45.2 45.2z"/><path class="k" d="m320.6 210.4c-4.5-0.3-9.9-1.5-9.9-5.4 0-4.3 3-6.7 8.3-6.7 4.6 0 8.4 3 8.4 6.7h13.4c0-7.5-6.9-14-16.2-15.8v-5.1h-11.1v4.9c-9.7 1.7-16.2 7.8-16.2 16 0 8.4 8.7 14.2 22.3 15 6.5 0.2 7.8 2.2 7.8 5.2 0 3.1-3.8 6.9-8.4 6.9-4.5 0-8.3-3.1-8.3-6.9h-13.4c0 7.7 6.9 14 16.2 16v4.8h11.1v-5c9.1-1.9 16.2-8.5 16.2-15.8 0-8.7-7.5-14.2-20.2-14.8z"/><path class="n" d="m357.5 169.7c-7.6-6-12.8-8.3-12.8-8.3 0 0-64.3 90.3-68.2 95.1 2.8 2.9 7.3 6.3 10.6 8.5 2.2-3.7 70.4-95.3 70.4-95.3z"/><path class="n" d="m367.7 181c0 0-1.7-3.4-5.6-7.6 0 0-65.3 88.4-69.2 94.4 5.9 3 8.3 3.5 8.3 3.5z"/><path fill-rule="evenodd" class="l" d="m21.5 291.1l9.1 16.4"/><path fill-rule="evenodd" class="l" d="m38.8 322.2l9.2 16.3"/><path fill-rule="evenodd" class="l" d="m12.4 327.2l16.4-9.1"/><path fill-rule="evenodd" class="l" d="m40.6 311.5l16.4-9.1"/><path fill-rule="evenodd" class="l" d="m489.1 86.1l9.2 16.2"/><path fill-rule="evenodd" class="l" d="m506.5 117.2l9.2 16.2"/><path fill-rule="evenodd" class="l" d="m480.1 122.2l16.4-9.2"/><path fill-rule="evenodd" class="l" d="m508.3 106.4l16.4-9.1"/><path fill-rule="evenodd" class="l" d="m802 346.5l9.1 16.2"/><path fill-rule="evenodd" class="l" d="m819.4 377.5l9.1 16.3"/><path fill-rule="evenodd" class="l" d="m793 382.6l16.4-9.1"/><path fill-rule="evenodd" class="l" d="m821.2 366.9l16.3-9.2"/><path fill-rule="evenodd" class="l" d="m531.6 760.8l9.1 16.2"/><path fill-rule="evenodd" class="l" d="m549 791.9l9.1 16.2"/><path fill-rule="evenodd" class="l" d="m522.6 796.9l16.4-9.2"/><path fill-rule="evenodd" class="l" d="m550.8 781.1l16.3-9.1"/><path fill-rule="evenodd" class="l" d="m379.1 777.7l5.5 10"/><path fill-rule="evenodd" class="l" d="m389.6 796.7l5.6 10"/><path fill-rule="evenodd" class="l" d="m373.5 799.8l10-5.6"/><path fill-rule="evenodd" class="l" d="m390.8 790.2l9.9-5.6"/><path fill-rule="evenodd" class="l" d="m341.7 44.1l5.6 10"/><path fill-rule="evenodd" class="l" d="m352.3 63.1l5.6 10"/><path fill-rule="evenodd" class="l" d="m336.2 66.2l10-5.6"/><path fill-rule="evenodd" class="l" d="m353.5 56.6l9.9-5.6"/><path fill-rule="evenodd" class="l" d="m771.3 506.9l5.6 10"/><path fill-rule="evenodd" class="l" d="m782 525.9l5.6 10"/><path fill-rule="evenodd" class="l" d="m765.9 529l10-5.6"/><path fill-rule="evenodd" class="l" d="m783.1 519.4l9.9-5.6"/><path fill-rule="evenodd" class="l" d="m18 541.7l5.6 9.9"/><path fill-rule="evenodd" class="l" d="m28.6 560.7l5.6 9.9"/><path fill-rule="evenodd" class="l" d="m12.5 563.7l10-5.5"/><path fill-rule="evenodd" class="l" d="m29.7 554.1l10-5.6"/></g></svg>