<svg width="501" height="409" viewBox="0 0 501 409" fill="none" xmlns="http://www.w3.org/2000/svg">
<path fill-rule="evenodd" clip-rule="evenodd" d="M490.081 209.404C488.839 214.209 486.896 218.743 484.467 222.954L491.863 230.35L472.374 249.784L464.979 242.388C460.822 244.872 456.287 246.761 451.483 248.003V258.475H423.951V248.003C419.146 246.761 414.611 244.872 410.401 242.388L403.005 249.784L383.571 230.35L390.912 222.954C388.483 218.743 386.594 214.209 385.298 209.404H374.879V181.872H385.298C386.594 177.068 388.483 172.533 390.912 168.376L383.571 160.98L403.005 141.492L410.401 148.888C414.611 146.459 419.146 144.515 423.951 143.274V132.855H451.483V143.274C456.287 144.515 460.822 146.459 464.979 148.888L472.374 141.492L491.863 160.98L484.467 168.376C486.896 172.533 488.839 177.068 490.081 181.872H500.5V209.404H490.081ZM461.577 195.638C461.577 182.466 450.889 171.777 437.717 171.777C424.544 171.777 413.856 182.466 413.856 195.638C413.856 208.81 424.544 219.499 437.717 219.499C450.889 219.499 461.577 208.81 461.577 195.638Z" fill="#FF9E22"/>
<path fill-rule="evenodd" clip-rule="evenodd" d="M412.182 280.339C412.452 282.984 412.398 285.575 411.966 288.113L417.041 290.38L411.048 303.768L406.028 301.501C404.408 303.498 402.519 305.334 400.36 306.845L402.357 312.028L388.699 317.264L386.702 312.082C384.11 312.352 381.465 312.298 378.928 311.866L376.661 316.94L363.327 311.002L365.594 305.927C363.543 304.308 361.761 302.418 360.196 300.259L355.067 302.257L349.831 288.599L354.959 286.655C354.689 284.01 354.743 281.419 355.175 278.881L350.1 276.614L356.093 263.226L361.167 265.493C362.733 263.496 364.622 261.661 366.782 260.149L364.784 254.967L378.442 249.73L380.44 254.913C383.031 254.589 385.676 254.697 388.213 255.128L390.481 250.054L403.815 255.992L401.547 261.067C403.599 262.686 405.38 264.576 406.946 266.681L412.128 264.738L417.365 278.396L412.182 280.339ZM395.393 278.935C392.91 272.403 385.568 269.11 379.036 271.648C372.504 274.131 369.211 281.473 371.748 288.005C374.231 294.537 381.573 297.776 388.105 295.293C394.637 292.755 397.876 285.467 395.393 278.935Z" stroke="#FF9E22" stroke-width="2" stroke-miterlimit="10"/>
<path fill-rule="evenodd" clip-rule="evenodd" d="M369.103 231.807C369.319 233.589 369.265 235.37 368.995 237.098L372.396 238.609L368.401 247.625L364.946 246.113C363.866 247.463 362.625 248.704 361.167 249.73L362.517 253.239L353.286 256.748L351.936 253.293C350.155 253.455 348.373 253.401 346.646 253.131L345.134 256.532L336.119 252.537L337.63 249.136C336.281 248.003 335.039 246.761 334.013 245.303L330.504 246.653L326.995 237.422L330.504 236.072C330.288 234.291 330.342 232.563 330.612 230.836L327.211 229.27L331.206 220.255L334.661 221.82C335.741 220.417 336.982 219.229 338.44 218.149L337.144 214.694L346.322 211.131L347.671 214.64C349.453 214.425 351.234 214.479 352.962 214.802L354.473 211.347L363.489 215.396L361.977 218.797C363.327 219.877 364.568 221.173 365.594 222.63L369.103 221.281L372.612 230.512L369.103 231.807ZM357.766 230.836C356.093 226.409 351.126 224.25 346.754 225.923C342.327 227.597 340.113 232.563 341.787 236.99C343.514 241.363 348.427 243.576 352.854 241.902C357.28 240.229 359.494 235.262 357.766 230.836Z" stroke="#FF9E22" stroke-width="2" stroke-miterlimit="10"/>
<path d="M369.427 68.9915C369.427 82.8654 362.949 95.1738 352.908 103.163C345.512 108.994 336.119 112.503 325.916 112.503C315.767 112.503 306.373 108.994 298.978 103.163C288.883 95.1738 282.459 82.8654 282.459 68.9915C282.459 45.0226 301.893 25.5344 325.916 25.5344C349.939 25.5344 369.427 45.0226 369.427 68.9915Z" fill="#FF9E22" stroke="#FF9E22" stroke-width="2" stroke-miterlimit="10"/>
<path d="M325.916 68.9376C318.034 68.9376 311.664 62.5675 311.664 54.6858C311.664 46.8041 318.034 40.488 325.916 40.488C333.797 40.488 340.167 46.8041 340.167 54.6858C340.167 62.5675 333.797 68.9376 325.916 68.9376Z" fill="white"/>
<path d="M352.908 97.6571C345.512 103.541 336.119 106.996 325.916 106.996C315.767 106.996 306.373 103.541 298.978 97.6571C301.731 85.4027 304.322 74.8759 306.967 72.1767C310.746 68.3978 320.733 66.2384 325.916 66.2384C331.098 66.2384 341.571 68.8836 343.514 70.8271C347.455 74.7679 350.856 85.6187 352.908 97.6571Z" fill="white"/>
<path d="M263.402 176.204V154.718C263.402 148.888 268.153 144.137 274.037 144.137H341.679C347.563 144.137 352.314 148.888 352.314 154.718V176.204C352.314 182.088 347.563 186.839 341.679 186.839H274.037C268.207 186.839 263.402 182.088 263.402 176.204Z" fill="#FF9E22"/>
<path d="M292.014 175.07L259.245 206.975L312.312 180.199" fill="#FF9E22"/>
<path d="M271.662 154.232V154.124C271.662 153.207 272.364 152.505 273.227 152.505H306.643C307.561 152.505 308.263 153.207 308.263 154.124V154.232C308.263 155.096 307.561 155.798 306.643 155.798H273.227C272.364 155.798 271.662 155.096 271.662 154.232Z" fill="white"/>
<path d="M309.72 154.232V154.124C309.72 153.207 310.476 152.505 311.34 152.505H340.545C341.409 152.505 342.111 153.207 342.111 154.124V154.232C342.111 155.096 341.409 155.798 340.545 155.798H311.34C310.476 155.798 309.72 155.096 309.72 154.232Z" fill="white"/>
<path d="M296.98 161.412V161.304C296.98 160.44 297.682 159.685 298.6 159.685H340.545C341.409 159.685 342.111 160.44 342.111 161.304V161.412C342.111 162.276 341.409 162.978 340.545 162.978H298.6C297.682 162.978 296.98 162.276 296.98 161.412Z" fill="white"/>
<path d="M271.662 161.412V161.304C271.662 160.44 272.364 159.685 273.227 159.685H291.96C292.823 159.685 293.525 160.44 293.525 161.304V161.412C293.525 162.276 292.823 162.978 291.96 162.978H273.227C272.364 162.978 271.662 162.276 271.662 161.412Z" fill="white"/>
<path d="M302.811 168.592V168.484C302.811 167.62 303.512 166.919 304.43 166.919H340.545C341.409 166.919 342.111 167.62 342.111 168.484V168.592C342.111 169.456 341.409 170.158 340.545 170.158H304.43C303.512 170.158 302.811 169.456 302.811 168.592Z" fill="white"/>
<path d="M271.662 168.592V168.484C271.662 167.62 272.364 166.919 273.227 166.919H298.168C299.032 166.919 299.733 167.62 299.733 168.484V168.592C299.733 169.456 299.032 170.158 298.168 170.158H273.227C272.364 170.158 271.662 169.456 271.662 168.592Z" fill="white"/>
<path d="M271.662 175.772V175.664C271.662 174.8 272.364 174.098 273.227 174.098H282.459C283.322 174.098 284.078 174.8 284.078 175.664V175.772C284.078 176.636 283.322 177.338 282.459 177.338H273.227C272.364 177.338 271.662 176.636 271.662 175.772Z" fill="white"/>
<path d="M287.317 175.772V175.664C287.317 174.8 288.019 174.098 288.883 174.098H340.545C341.409 174.098 342.111 174.8 342.111 175.664V175.772C342.111 176.636 341.409 177.338 340.545 177.338H288.883C288.019 177.338 287.317 176.636 287.317 175.772Z" fill="white"/>
<path d="M43.6332 89.0736C65.2268 80.8681 89.4117 91.7189 97.6172 113.312C105.769 134.906 94.918 159.091 73.3244 167.296C51.7308 175.502 27.546 164.597 19.3404 143.004C11.1348 121.41 22.0396 97.2792 43.6332 89.0736Z" fill="#FF9E22"/>
<path d="M57.777 153.099C55.3478 158.119 49.3015 160.279 44.227 157.849C39.2065 155.42 37.0472 149.374 39.4764 144.299C41.9057 139.279 47.9519 137.119 53.0264 139.549C58.047 141.978 60.2063 148.024 57.777 153.099Z" fill="white"/>
<path d="M43.3093 152.343L42.8235 145.919L48.1139 142.248L53.9442 145.055L54.43 151.479L49.0856 155.15L43.3093 152.343Z" fill="#FF9E22"/>
<path d="M77.4812 112.017C75.0519 117.091 69.0057 119.197 63.9312 116.767C58.9107 114.338 56.7513 108.292 59.1806 103.271C61.6099 98.1969 67.6561 96.0916 72.7306 98.5208C77.7511 100.896 79.9105 106.996 77.4812 112.017Z" fill="white"/>
<path d="M63.2834 110.667L63.6613 102.462L69.8155 97.1172L75.6458 99.8704L75.2679 108.076L69.1137 113.474L63.2834 110.667Z" fill="#FF9E22"/>
<path d="M55.6177 144.029L47.8979 140.304L53.6202 127.078C53.9801 126.251 54.376 125.423 54.8079 124.595L61.5559 111.855L69.2756 115.58L63.7692 128.59C63.3374 129.598 62.8695 130.587 62.3657 131.559L55.6177 144.029Z" fill="white"/>
<path d="M87.5222 150.669C89.0338 149.968 113.057 151.101 113.057 151.101L95.7278 135.176L87.5222 150.669Z" fill="#FF9E22"/>
<path d="M155.758 82.2177C132.977 82.2177 114.622 63.8631 114.622 41.0818C114.622 18.3546 132.977 0 155.758 0C178.485 0 196.84 18.3546 196.84 41.0818C196.84 63.8631 178.485 82.2177 155.758 82.2177Z" fill="#FF9E22"/>
<path d="M157.108 6.0462V40.596H154.354V6.0462H157.108Z" fill="white"/>
<path d="M154.193 40.596L155.758 42.8633L126.931 62.7834L125.419 60.5161L154.193 40.596Z" fill="white"/>
<path d="M155.758 44.8607C153.653 44.8607 151.979 43.1872 151.979 41.0818C151.979 39.0304 153.653 37.3029 155.758 37.3029C157.809 37.3029 159.537 39.0304 159.537 41.0818C159.537 43.1872 157.809 44.8607 155.758 44.8607Z" fill="white"/>
<path d="M230.364 325.308C230.364 325.308 233.117 350.68 236.194 352.732C241.755 356.349 305.78 364.824 305.78 364.824L303.674 381.451C303.674 381.451 215.95 389.333 212.225 384.96C205.747 377.348 194.411 340.693 194.411 340.693L230.364 325.308Z" fill="#E06A58"/>
<path d="M188.04 260.041L195.112 243.036C195.112 243.036 214.385 252.051 220.701 263.226C227.503 275.157 235.762 338.534 235.762 338.534C235.762 338.534 201.86 346.361 195.598 343.068C189.336 339.721 188.04 260.041 188.04 260.041Z" fill="#F2AE30"/>
<path d="M134.056 181.062C129.09 179.281 123.854 177.661 118.509 178.093C113.219 178.471 107.766 181.278 105.985 185.975C104.689 189.268 105.283 193.209 103.232 196.178C101.288 199.039 97.4553 200.227 93.8384 200.443C90.2215 200.713 86.5506 200.227 82.9336 200.713C71.8129 202.17 63.8773 214.263 67.5482 224.142C69.0057 228.082 71.9749 231.861 71.3271 235.964C70.5713 240.337 65.9826 243.252 64.0932 247.301C61.556 252.753 64.5791 259.339 69.5456 263.01C74.5121 266.735 80.9362 268.139 87.1984 269.056C95.8358 270.352 104.743 270.946 113.273 269.11C121.802 267.329 129.954 262.794 134.38 255.776C136.324 252.699 137.511 249.19 139.779 246.275C144.475 240.229 152.789 237.908 159.375 233.643C166.501 228.946 171.791 219.823 167.581 212.697C163.478 205.841 152.897 204.276 148.686 197.528C146.905 194.72 146.473 191.427 145.339 188.35C144.205 185.327 141.398 183.762 134.056 181.062Z" fill="#0A2240"/>
<path d="M162.992 265.223C164.234 266.681 165.745 268.247 167.796 268.409C169.956 268.517 171.737 267.005 173.141 265.547C180.321 257.936 185.017 248.596 186.961 238.987C185.179 238.016 183.452 237.044 181.886 236.126C180.483 235.262 179.403 234.075 178.755 232.671C178.323 231.627 178.161 230.53 178.269 229.378C179.295 219.877 180.213 214.586 183.56 204.977C167.689 201.36 152.735 197.15 144.151 189.97C143.126 194.396 141.884 203.034 139.239 211.617C136.432 220.687 132.005 229.702 124.555 233.535C139.185 242.172 152.249 252.915 162.992 265.223Z" fill="#F9A07B"/>
<path d="M178.269 229.378C178.161 230.512 178.323 231.645 178.755 232.671C169.416 244.008 148.416 229.162 139.239 211.617C141.884 203.034 143.126 194.396 144.152 189.97C152.735 197.15 167.689 201.414 183.56 204.977C180.213 214.586 179.295 219.877 178.269 229.378Z" fill="#E06A58"/>
<path d="M204.398 366.821C202.346 380.533 217.138 395.325 217.516 402.667C186.043 402.667 120.183 404.556 86.6585 400.022C85.147 391.546 101.666 372.49 101.666 353.703C101.666 351.22 101.558 348.521 101.396 345.552C100.856 337.184 99.6147 327.197 98.2111 316.994C94.4862 289.516 89.5197 260.149 93.1906 254.049C100.37 242.226 117.213 234.129 125.581 230.674C128.442 229.486 130.332 228.838 130.44 228.784C140.912 246.653 162.236 261.876 170.28 261.175C172.547 261.013 179.133 258.691 183.56 236.666C185.233 237.638 186.961 238.501 188.634 239.365C196.948 243.738 204.776 247.301 207.043 252.861C212.981 267.545 218.757 304.524 217.516 317.642C216.166 330.922 210.876 341.071 207.097 354.351C206.233 357.482 205.477 360.775 204.83 364.338C204.668 365.148 204.506 365.958 204.398 366.821Z" fill="#FFC73C"/>
<path d="M217.516 402.667C186.043 402.667 120.183 404.556 86.6585 400.022C85.147 391.546 101.666 372.49 101.666 353.703C101.666 351.22 101.558 348.521 101.396 345.552C100.856 337.184 99.6147 327.197 98.2111 316.994C104.203 323.256 112.841 296.696 116.728 304.47C137.457 346.415 153.869 357.428 182.318 357.428C190.848 357.428 198.675 356.295 207.097 354.351C206.233 357.482 205.477 360.775 204.83 364.338C204.65 365.166 204.506 366.012 204.398 366.875C202.346 380.533 217.138 395.325 217.516 402.667Z" fill="#FFBB33"/>
<path d="M188.634 239.365C187.285 249.19 183.29 262.416 171.629 265.925C155.92 270.622 133.139 241.201 125.581 230.674C128.442 229.486 130.332 228.838 130.44 228.784C140.912 246.653 162.236 261.876 170.28 261.175C172.547 261.013 179.133 258.691 183.56 236.666C185.233 237.584 186.961 238.501 188.634 239.365Z" fill="#FCE172"/>
<path d="M195.112 387.875L195.004 398.834L390.804 400.022L391.182 387.605L195.112 387.875Z" fill="#325F73"/>
<path d="M475.667 290.164L471.295 285.737L328.669 284.82L257.14 388.307L260.865 391.276L475.667 290.164Z" fill="#325F73"/>
<path d="M331.422 288.653L260.865 391.276L395.663 391.978L475.667 290.164L331.422 288.653Z" fill="#0B2D50"/>
<path d="M365.486 354.189C356.795 354.189 349.831 350.68 349.831 346.307C349.831 341.989 356.795 338.48 365.486 338.48C374.177 338.48 381.195 341.989 381.195 346.307C381.195 350.68 374.177 354.189 365.486 354.189Z" fill="#3C738C"/>
<path d="M198.028 187.325C200.241 175.394 208.392 166.919 216.274 168.376C224.156 169.834 228.69 180.685 226.477 192.615C224.264 204.545 216.112 213.021 208.231 211.563C200.349 210.106 195.76 199.255 198.028 187.325Z" fill="#FFD9A9"/>
<path d="M226.531 155.204C225.074 165.569 220.431 177.014 213.629 189.646C211.254 179.281 209.742 166.703 207.691 154.07C205.531 141.438 202.832 128.752 198.081 118.441C197.056 116.174 195.868 113.96 194.627 111.963C197.434 111.693 200.241 111.963 202.94 112.665C207.151 113.798 211.092 116.012 214.331 118.873C219.675 123.677 223.292 130.155 225.397 137.011C227.179 142.68 227.449 148.726 226.531 155.204Z" fill="#0B2D50"/>
<path d="M218.595 165.947C218.487 167.944 218.38 170.05 218.164 172.101C215.302 205.733 201.159 228.784 179.619 228.784C149.118 228.784 129.36 194.612 129.36 161.088C129.36 128.104 149.604 104.189 173.303 106.942C186.961 108.508 196.894 113.043 204.02 119.683C208.662 124.109 212.063 129.454 214.385 135.5C217.03 142.302 218.326 150.022 218.541 158.335L218.595 158.389C218.703 160.872 218.649 163.356 218.595 165.947Z" fill="#F9A07B"/>
<path d="M218.595 165.947C217.678 162.654 216.328 159.523 214.493 156.662C196.516 166.055 175.084 169.672 154.786 166.271C150.899 169.456 147.121 172.641 143.342 175.826C143.396 160.548 143.612 150.184 149.55 142.788C155.164 135.824 164.503 133.233 173.357 132.099C183.29 130.803 193.439 130.857 203.372 132.261C207.151 132.801 211.092 133.61 214.385 135.554C217.03 142.356 218.326 150.076 218.595 158.335C218.595 158.389 218.595 158.389 218.595 158.443C218.703 160.872 218.649 163.356 218.595 165.947Z" fill="#E06A58"/>
<path d="M222.968 145.217C218.811 148.78 213.575 151.695 207.691 154.07C190.902 160.818 169.146 163.086 152.195 162.222C143.828 180.577 140.481 187.109 138.321 203.088C130.17 195.476 123.584 181.494 121.586 170.482C119.643 159.523 119.859 148.024 122.882 137.227C127.686 120.222 139.833 111.153 148.254 106.726C150.36 105.593 152.249 104.783 153.707 104.189C164.449 100.032 176.596 100.41 187.609 103.811C193.601 105.647 198.675 108.832 202.94 112.719C211.524 120.492 216.868 131.019 220.323 138.901C221.403 141.276 222.266 143.49 222.968 145.217Z" fill="#0B2D50"/>
<path d="M226.531 155.204C225.829 151.533 224.804 147.97 223.292 144.515C222.5 142.572 221.511 140.682 220.323 138.847C216.49 132.855 210.93 127.888 204.182 125.729C202.274 123.03 200.259 120.6 198.135 118.441C190.47 110.667 181.508 106.241 172.007 104.675C164.072 103.433 155.866 104.135 148.308 106.726C150.36 105.539 152.249 104.783 153.761 104.189C164.503 100.032 176.596 100.41 187.609 103.757C193.655 105.647 198.729 108.778 202.94 112.665C207.151 113.798 211.092 116.012 214.331 118.873C219.675 123.677 223.292 130.155 225.397 137.011C227.179 142.68 227.449 148.726 226.531 155.204Z" fill="#225570"/>
<path d="M161.912 175.772C167.527 172.587 173.357 171.129 181.562 174.098" stroke="#0B2D50" stroke-width="4" stroke-miterlimit="10" stroke-linecap="round"/>
<path d="M200.457 175.556C205.315 171.939 212.441 171.615 216.166 175.556" stroke="#0B2D50" stroke-width="4" stroke-miterlimit="10" stroke-linecap="round"/>
<path d="M194.681 193.911C195.166 196.502 194.896 202.116 193.655 204.653" stroke="#CC454E" stroke-width="4" stroke-miterlimit="10" stroke-linecap="round"/>
<path d="M175.624 195.638C174.329 195.638 173.303 194.019 173.303 191.967C173.303 189.97 174.329 188.296 175.624 188.296C176.92 188.296 177.945 189.97 177.945 191.967C177.945 194.019 176.92 195.638 175.624 195.638Z" fill="#262D40"/>
<path d="M206.017 193.965C204.722 193.965 203.696 192.291 203.696 190.294C203.696 188.242 204.722 186.623 206.017 186.623C207.259 186.623 208.338 188.242 208.338 190.294C208.338 192.291 207.259 193.965 206.017 193.965Z" fill="#262D40"/>
<path d="M191.765 209.674C191.765 209.674 191.334 210.538 190.47 211.725C189.066 213.561 186.745 216.098 183.614 217.07H183.56C182.21 217.502 180.807 217.664 179.187 217.394C174.437 216.53 173.141 212.157 172.925 208.756C172.871 208.108 172.871 207.515 172.925 206.975C172.925 205.571 173.087 204.653 173.087 204.653C180.645 208.864 191.765 209.674 191.765 209.674Z" fill="#CC454E"/>
<path d="M191.765 209.674C191.765 209.674 191.334 210.538 190.47 211.725C186.583 211.671 178.701 209.728 172.925 206.975C172.925 205.571 173.087 204.653 173.087 204.653C180.645 208.864 191.765 209.674 191.765 209.674Z" fill="white"/>
<path d="M183.56 217.07C182.21 217.502 180.807 217.664 179.187 217.34C174.437 216.53 173.141 212.157 172.925 208.756C175.246 209.026 177.46 209.944 179.295 211.347C181.239 212.805 182.696 214.802 183.56 217.07Z" fill="#E8729B"/>
<path d="M138.429 169.996C138.429 169.996 138.159 154.232 144.691 138.577C152.951 118.927 169.686 110.559 185.935 109.965C205.531 109.264 217.786 122.436 217.786 122.436C217.786 122.436 211.416 111.153 198.837 107.968C190.578 105.809 178.107 105.485 168.12 109.534C157.809 113.744 144.961 125.351 140.319 137.605C135.676 149.86 133.409 168.97 133.409 168.97L138.429 169.996Z" fill="#FF9E22"/>
<path d="M133.301 164.975C141.668 164.111 149.55 173.721 150.899 186.407C152.195 199.147 146.473 210.16 138.105 211.024C129.684 211.887 121.802 202.278 120.506 189.592C119.211 176.852 124.933 165.839 133.301 164.975Z" fill="#FFD9A9"/>
<path d="M129.036 172.425C134.434 171.615 139.995 178.687 141.452 188.188C142.856 197.743 139.671 206.111 134.218 206.921C128.82 207.731 123.26 200.659 121.856 191.157C120.399 181.602 123.638 173.235 129.036 172.425Z" fill="#FF9E22"/>
<path d="M186.097 229.27C181.562 229.27 177.945 227.003 177.945 224.196C177.945 221.388 181.562 219.121 186.097 219.121C190.578 219.121 194.195 221.388 194.195 224.196C194.195 227.003 190.578 229.27 186.097 229.27Z" fill="#FFD9A9"/>
<path d="M145.231 207.245C145.231 207.245 157.162 222.63 177.945 224.196" stroke="#FFD9A9" stroke-width="4" stroke-miterlimit="10" stroke-linecap="round"/>
<path d="M195.004 358.616L194.195 378.86C194.195 378.86 121.154 400.723 109.116 393.813C103.232 390.412 97.7252 371.788 93.6224 353.649C89.3037 334.539 86.5505 315.914 86.5505 315.914L129.36 307.547C129.36 307.547 129.414 333.675 130.871 348.737C131.357 354.351 132.113 358.454 133.139 359.156C136.918 361.639 195.004 358.616 195.004 358.616Z" fill="#F9A07B"/>
<path d="M130.871 348.737C123.098 351.274 108.036 355.161 93.6224 353.595C89.3037 334.539 86.5505 315.914 86.5505 315.914L129.36 307.547C129.36 307.493 129.414 333.621 130.871 348.737Z" fill="#E06A58"/>
<path d="M192.899 358.832C203.75 356.51 222.158 350.95 229.824 349.007C235.222 347.657 249.312 354.945 253.037 361.855C254.657 364.824 256.222 381.883 250.554 380.101C247.747 379.238 248.233 371.95 247.315 368.927C246.613 366.498 244.292 364.176 240.837 362.179C243.158 367.955 243.05 373.03 242.834 379.346C242.78 380.749 242.672 382.207 242.024 383.395C241.323 384.582 239.865 385.446 238.57 384.906C237.328 384.366 236.842 382.801 236.572 381.397C235.546 376.539 234.575 371.68 234.143 366.174C234.251 371.572 234.143 376.97 233.819 382.369C233.549 386.472 231.498 388.739 229.014 388.037C227.881 387.713 227.395 386.688 226.909 385.338C226.153 387.983 224.264 390.898 221.834 389.765C220.323 389.117 219.405 383.718 219.675 378.158C214.978 381.127 209.688 382.315 203.534 382.639C198.082 382.855 192.467 381.829 189.174 378.104C189.498 372.274 191.441 363.69 192.899 358.832Z" fill="#F9A07B"/>
<path d="M227.017 384.474C227.395 380.101 227.017 375.675 225.937 371.464" stroke="#CC454E" stroke-width="2" stroke-miterlimit="10" stroke-linecap="round"/>
<path d="M124.555 265.17C121.478 256.424 110.088 238.501 110.088 238.501C110.088 238.501 92.7047 245.735 86.5505 257.99C76.1316 278.773 81.422 338.372 81.422 338.372C95.4579 344.256 123.692 344.364 135.73 342.691C135.73 342.691 130.817 282.66 124.555 265.17Z" fill="#FFC73C"/>
<path d="M126.769 268.84C131.519 291.514 134.056 312.675 134.866 333.351" stroke="#F2AE30" stroke-width="2" stroke-miterlimit="10" stroke-linecap="round"/>
<path d="M498.557 396.405V408.875H0.5V396.405H498.557Z" fill="#0B2D50"/>
</svg>
