<svg version="1.2" xmlns="http://www.w3.org/2000/svg" viewBox="0 0 1000 1000" width="1000" height="1000"><style>.a{display:none;fill:#fff}.b{display:none;fill:#dff3fc}.c{fill:#0097d8}.d{fill:none;stroke:#0097d8;stroke-miterlimit:10;stroke-width:2}.e{fill:#0097d8;stroke:#0097d8;stroke-miterlimit:10;stroke-width:2}.f{fill:#fff}.g{fill:#a2c7eb}.h{fill:none;stroke:#6f8bbf;stroke-linecap:round;stroke-miterlimit:10;stroke-width:2}.i{fill:#e06a58}.j{fill:#f2ae30}.k{fill:#0a2240}.l{fill:#f9a07b}.m{fill:#ffc73c}.n{fill:#fb3}.o{fill:#fce172}.p{fill:#325f73}.q{fill:#0b2d50}.r{fill:#3c738c}.s{fill:#56c4f9}.t{fill:#225570}.u{fill:none;stroke:#0b2d50;stroke-linecap:round;stroke-miterlimit:10;stroke-width:4}.v{fill:none;stroke:#cc454e;stroke-linecap:round;stroke-miterlimit:10;stroke-width:4}.w{fill:#262d40}.x{fill:#cc454e}.y{fill:#e8729b}.z{fill:#3d86e0}.A{fill:#3a92c9}.B{fill:none;stroke:#3a92c9;stroke-linecap:round;stroke-miterlimit:10;stroke-width:4}.C{fill:none;stroke:#cc454e;stroke-linecap:round;stroke-miterlimit:10;stroke-width:2}.D{fill:none;stroke:#f2ae30;stroke-linecap:round;stroke-miterlimit:10;stroke-width:2}</style><path class="a" d="m1000 1000h-1000v-1000h1000z"/><path class="b" d="m914.5 873.4c111.1-84.5 160.6-318.8-19.8-433.7-119.5-76-193.8-32.7-328.2-83-164-61.4-188.5-246.9-388-155.6-105.8 48.3-179.1 184.6-192 339.5-12.6 151.6 41.2 255.7 151 326.9 257.9 11 516.4 9 777 5.9z"/><path class="b" d="m457.9 206.9c-16.7 67.4 45.6 134.1 111.3 161.8 65.6 27.7 140.9 24.4 211.3 11.2 30.3-5.7 61.5-13.7 85.1-33.1 23.6-19.3 37.3-52.9 24.3-80.1-11.4-23.9-39.1-36.2-65.6-42.4-26.5-6.3-54.6-8.9-78.2-22.2-22.3-12.5-38.2-33.3-57.6-49.8-36-30.4-86.4-45.5-133.2-35.9-46.7 9.7-83.1 33.3-97.4 90.5z"/><path fill-rule="evenodd" class="c" d="m941.4 516.9c-2.3 8.9-5.9 17.3-10.4 25.1l13.7 13.7-36.1 36-13.7-13.7c-7.7 4.6-16.1 8.1-25 10.4v19.4h-51v-19.4c-8.9-2.3-17.3-5.8-25.1-10.4l-13.7 13.7-36-36 13.6-13.7c-4.5-7.8-8-16.2-10.4-25.1h-19.3v-51h19.3c2.4-8.9 5.9-17.3 10.4-25l-13.6-13.7 36-36.1 13.7 13.7c7.8-4.5 16.2-8.1 25.1-10.4v-19.3h51v19.3c8.9 2.3 17.3 5.9 25 10.4l13.7-13.7 36.1 36.1-13.7 13.7c4.5 7.7 8.1 16.1 10.4 25h19.3v51zm-52.8-25.5c0-24.4-19.8-44.2-44.2-44.2-24.4 0-44.2 19.8-44.2 44.2 0 24.4 19.8 44.2 44.2 44.2 24.4 0 44.2-19.8 44.2-44.2z"/><path fill-rule="evenodd" class="d" d="m797.1 648.3c0.5 4.9 0.4 9.7-0.4 14.4l9.4 4.2-11.1 24.8-9.3-4.2c-3 3.7-6.5 7.1-10.5 9.9l3.7 9.6-25.3 9.7-3.7-9.6c-4.8 0.5-9.7 0.4-14.4-0.4l-4.2 9.4-24.7-11 4.2-9.4c-3.8-3-7.1-6.5-10-10.5l-9.5 3.7-9.7-25.3 9.5-3.6c-0.5-4.9-0.4-9.7 0.4-14.4l-9.4-4.2 11.1-24.8 9.4 4.2c2.9-3.7 6.4-7.1 10.4-9.9l-3.7-9.6 25.3-9.7 3.7 9.6c4.8-0.6 9.7-0.4 14.4 0.4l4.2-9.4 24.7 11-4.2 9.4c3.8 3 7.1 6.5 10 10.4l9.6-3.6 9.7 25.3zm-31.1-2.6c-4.6-12.1-18.2-18.2-30.3-13.5-12.1 4.6-18.2 18.2-13.5 30.3 4.6 12.1 18.2 18.1 30.3 13.5 12.1-4.7 18.1-18.2 13.5-30.3z"/><path fill-rule="evenodd" class="d" d="m717.3 558.4c0.4 3.3 0.3 6.6-0.2 9.8l6.3 2.8-7.4 16.7-6.4-2.8c-2 2.5-4.3 4.8-7 6.7l2.5 6.5-17.1 6.5-2.5-6.4c-3.3 0.3-6.6 0.2-9.8-0.3l-2.8 6.3-16.7-7.4 2.8-6.3c-2.5-2.1-4.8-4.4-6.7-7.1l-6.5 2.5-6.5-17.1 6.5-2.5c-0.4-3.3-0.3-6.5 0.2-9.7l-6.3-2.9 7.4-16.7 6.4 2.9c2-2.6 4.3-4.8 7-6.8l-2.4-6.4 17-6.6 2.5 6.5c3.3-0.4 6.6-0.3 9.8 0.3l2.8-6.4 16.7 7.5-2.8 6.3c2.5 2 4.8 4.4 6.7 7.1l6.5-2.5 6.5 17.1zm-21-1.8c-3.1-8.2-12.3-12.2-20.4-9.1-8.2 3.1-12.3 12.3-9.2 20.5 3.2 8.1 12.3 12.2 20.5 9.1 8.2-3.1 12.3-12.3 9.1-20.5z"/><path class="e" d="m717.9 256.8c0 25.7-12 48.5-30.6 63.3-13.7 10.8-31.1 17.3-50 17.3-18.8 0-36.2-6.5-49.9-17.3-18.7-14.8-30.6-37.6-30.6-63.3 0-44.4 36-80.5 80.5-80.5 44.5 0 80.6 36.1 80.6 80.5z"/><path class="f" d="m637.3 256.7c-14.6 0-26.4-11.8-26.4-26.4 0-14.6 11.8-26.3 26.4-26.3 14.6 0 26.4 11.7 26.4 26.3 0 14.6-11.8 26.4-26.4 26.4z"/><path class="f" d="m687.3 309.9c-13.7 10.9-31.1 17.3-50 17.3-18.8 0-36.2-6.4-49.9-17.3 5.1-22.7 9.9-42.2 14.8-47.2 7-7 25.5-11 35.1-11 9.6 0 29 4.9 32.6 8.5 7.3 7.3 13.6 27.4 17.4 49.7z"/><path class="c" d="m521.5 455.4v-39.8c0-10.8 8.8-19.6 19.7-19.6h125.3c10.9 0 19.7 8.8 19.7 19.6v39.8c0 10.9-8.8 19.7-19.7 19.7h-125.3c-10.8 0-19.7-8.8-19.7-19.7z"/><path class="c" d="m574.5 453.3l-60.7 59.1 98.3-49.6"/><path class="f" d="m536.8 414.7v-0.2c0-1.7 1.3-3 2.9-3h61.9c1.7 0 3 1.3 3 3v0.2c0 1.6-1.3 2.9-3 2.9h-61.9c-1.6 0-2.9-1.3-2.9-2.9z"/><path class="f" d="m607.3 414.7v-0.2c0-1.7 1.4-3 3-3h54.1c1.6 0 2.9 1.3 2.9 3v0.2c0 1.6-1.3 2.9-2.9 2.9h-54.1c-1.6 0-3-1.3-3-2.9z"/><path class="f" d="m583.7 428v-0.2c0-1.6 1.3-3 3-3h77.7c1.6 0 2.9 1.4 2.9 3v0.2c0 1.6-1.3 2.9-2.9 2.9h-77.7c-1.7 0-3-1.3-3-2.9z"/><path class="f" d="m536.8 428v-0.2c0-1.6 1.3-3 2.9-3h34.7c1.6 0 2.9 1.4 2.9 3v0.2c0 1.6-1.3 2.9-2.9 2.9h-34.7c-1.6 0-2.9-1.3-2.9-2.9z"/><path class="f" d="m594.5 441.3v-0.2c0-1.6 1.3-2.9 3-2.9h66.9c1.6 0 2.9 1.3 2.9 2.9v0.2c0 1.6-1.3 2.9-2.9 2.9h-66.9c-1.7 0-3-1.3-3-2.9z"/><path class="f" d="m536.8 441.3v-0.2c0-1.6 1.3-2.9 2.9-2.9h46.2c1.6 0 2.9 1.3 2.9 2.9v0.2c0 1.6-1.3 2.9-2.9 2.9h-46.2c-1.6 0-2.9-1.3-2.9-2.9z"/><path class="f" d="m536.8 454.6v-0.2c0-1.6 1.3-2.9 2.9-2.9h17.1c1.6 0 3 1.3 3 2.9v0.2c0 1.6-1.4 2.9-3 2.9h-17.1c-1.6 0-2.9-1.3-2.9-2.9z"/><path class="f" d="m565.8 454.6v-0.2c0-1.6 1.3-2.9 2.9-2.9h95.7c1.6 0 2.9 1.3 2.9 2.9v0.2c0 1.6-1.3 2.9-2.9 2.9h-95.7c-1.6 0-2.9-1.3-2.9-2.9z"/><path class="c" d="m114.4 294c40-15.2 84.8 4.9 100 44.9 15.1 40-5 84.8-45 100-40 15.2-84.8-5-100-45-15.2-40 5-84.7 45-99.9z"/><path class="f" d="m140.6 412.6c-4.5 9.3-15.7 13.3-25.1 8.8-9.3-4.5-13.3-15.7-8.8-25.1 4.5-9.3 15.7-13.3 25.1-8.8 9.3 4.5 13.3 15.7 8.8 25.1z"/><path class="c" d="m113.8 411.2l-0.9-11.9 9.8-6.8 10.8 5.2 0.9 11.9-9.9 6.8z"/><path class="f" d="m177.1 336.5c-4.5 9.4-15.7 13.3-25.1 8.8-9.3-4.5-13.3-15.7-8.8-25 4.5-9.4 15.7-13.3 25.1-8.8 9.3 4.4 13.3 15.7 8.8 25z"/><path class="c" d="m150.8 334l0.7-15.2 11.4-9.9 10.8 5.1-0.7 15.2-11.4 10z"/><path class="f" d="m136.6 395.8l-14.3-6.9 10.6-24.5q1-2.3 2.2-4.6l12.5-23.6 14.3 6.9-10.2 24.1q-1.2 2.8-2.6 5.5z"/><path class="c" d="m195.7 408.1c2.8-1.3 47.3 0.8 47.3 0.8l-32.1-29.5z"/><path class="c" d="m322.1 281.3c-42.2 0-76.2-34-76.2-76.2 0-42.1 34-76.1 76.2-76.1 42.1 0 76.1 34 76.1 76.1 0 42.2-34 76.2-76.1 76.2z"/><path class="f" d="m324.6 140.2v64h-5.1v-64z"/><path class="f" d="m319.2 204.2l2.9 4.2-53.4 36.9-2.8-4.2z"/><path class="f" d="m322.1 212.1c-3.9 0-7-3.1-7-7 0-3.8 3.1-7 7-7 3.8 0 7 3.2 7 7 0 3.9-3.2 7-7 7z"/><g style="display:none"><path class="g" d="m528.9 720.9c-4.6-69.6 25.9-141.7 77.2-182.9 1.6 70-28.5 140.8-77.2 182.9z"/><path class="h" d="m597.8 556.7c-21.7 40.3-40.4 82.5-55.9 126-18.9 52.8-33.7 108.9-66.1 153.2"/><path class="g" d="m512.7 764.7c25.9-58.1 77.5-102 134.3-114.4-24.2 62.3-78.6 109.8-134.3 114.4z"/><path class="h" d="m633.1 663.1q-58.2 51.3-118.4 99.6"/><path class="g" d="m497.3 815.3c34.7-51.8 98.8-78.8 151.7-64-38.9 51.1-103.1 78.2-151.7 64z"/><path class="h" d="m636.3 755c-45.4 28.4-94.5 49.5-145.1 62.1"/><path class="g" d="m516.1 747.1c11.1-58.4-5.6-123.4-42.6-166.4-15.2 57.3-0.7 124.5 42.6 166.4z"/><path class="h" d="m477.3 595.5c7.3 54.3 20.3 105.2 40.4 154.9"/><path class="g" d="m497 796.8c-4.7-60-35.4-116.3-80.4-147.4 2.6 31.7 11 62.4 24.4 90.2 15.5 32 38.1 52.3 56 57.2z"/><path class="h" d="m423.3 661.5c17.7 50 43.1 96.4 74.9 136.6"/><path class="g" d="m844.4 782.4c24.5-63.8 81-115.6 143.2-131.4-27.2 63-82.9 113.8-143.2 131.4z"/><path class="h" d="m972.6 664.2c-35.7 27.1-69.5 57.1-101 89.5-38.4 39.3-74.5 83.2-121.3 109.5"/><path class="g" d="m812.1 814.8c46.8-41.1 110.3-59.2 165.6-47.1-46.8 45.6-114.4 65.7-165.6 47.1z"/><path class="h" d="m960.2 773.5q-72.5 21.9-145.5 40.3"/><path class="g" d="m777.8 853.7c51.9-32 119.6-30 160.4 4.8-55.5 29.7-123.3 27.6-160.4-4.8z"/><path class="h" d="m925.4 856.6c-51.9 6.8-103.9 5.5-153.7-3.9"/><path class="g" d="m822.3 800.5c33.8-47.4 45.7-112.2 30.6-165.6-36.9 44.9-51.7 110.6-30.6 165.6z"/><path class="h" d="m850.2 649.7c-15.8 51.3-25.2 101.9-27.7 154.4"/><path class="g" d="m785.1 837c20.4-55.3 16.4-118.1-10.6-164.1-10.7 29.3-15.8 60.1-15.4 90.3 0.5 34.8 12.2 62.1 26 73.8z"/><path class="h" d="m775.4 686.4c-4.9 51.8-1.4 103.5 10.2 152.2"/><path class="g" d="m148.7 670.8c-25-76.6-94.9-138.4-176.1-156 34.1 66.3 96.1 118.9 176.1 156z"/><path class="g" d="m152.9 682.6c-54.8-31-123.5-37.8-183-18.2 55.2 27.6 120.6 35.3 183 18.2z"/><path class="g" d="m168.1 699.2c-59.3-8.2-121.3 6.4-169.4 39.9 54.5 19.8 120 7 169.4-39.9z"/><path class="g" d="m186.5 735.5c-58.6-0.2-116.3 27.6-150.8 72.9 26.1 5.2 53.9 2.1 77.8-8.7 24-10.9 44-29.4 73-64.2z"/><path class="g" d="m227.9 796.2c-57.8-10-119.5 8-161.2 46.8 24.9 9.5 52.8 11 78.3 4.3 25.4-6.7 48.4-21.6 82.9-51.1z"/><path class="g" d="m165.5 674.4c-38.2-51.5-48.6-120.9-26.9-179.9 16.6 28.1 30.9 57.7 37.5 89.3 6.7 31.5 5.4 65.1-10.6 90.6z"/><path class="g" d="m188.8 724.1c-9.1-54.7 9.7-112.7 49.2-152.3 4.5 56.6-12.8 114.2-49.2 152.3z"/><path class="h" d="m-9.6 528.6c116.2 74.3 207.2 185.2 255.1 311.2"/><path class="h" d="m142.2 521.6c14.1 57.5 22.7 116.1 25.7 174.9"/><path class="h" d="m229.3 594c-4.7 46.3-19 91.6-41.9 132.4"/><path class="h" d="m-5.6 665.7c53.3 10.2 107.4 15.7 161.6 16.5"/><path class="h" d="m26.5 734.6c49.1-3.6 97.5-15.5 142.2-35.1"/><path class="h" d="m55.9 800.1q68-33.9 136.1-67.8"/><path class="h" d="m85.4 840.1c59.2-11.4 76.8-25.1 142.5-43.9"/></g><path class="i" d="m460.3 731.6c0 0 5.1 47 10.8 50.8 10.3 6.7 128.9 22.4 128.9 22.4l-3.9 30.8c0 0-162.5 14.6-169.4 6.5-12-14.1-33-82-33-82z"/><path class="j" d="m381.9 610.7l13.1-31.5c0 0 35.7 16.7 47.4 37.4 12.6 22.1 27.9 139.5 27.9 139.5 0 0-62.8 14.5-74.4 8.4-11.6-6.2-14-153.8-14-153.8z"/><path class="k" d="m281.9 464.4c-9.2-3.3-18.9-6.3-28.8-5.5-9.8 0.7-19.9 5.9-23.2 14.6-2.4 6.1-1.3 13.4-5.1 18.9-3.6 5.3-10.7 7.5-17.4 7.9-6.7 0.5-13.5-0.4-20.2 0.5-20.6 2.7-35.3 25.1-28.5 43.4 2.7 7.3 8.2 14.3 7 21.9-1.4 8.1-9.9 13.5-13.4 21-4.7 10.1 0.9 22.3 10.1 29.1 9.2 6.9 21.1 9.5 32.7 11.2 16 2.4 32.5 3.5 48.3 0.1 15.8-3.3 30.9-11.7 39.1-24.7 3.6-5.7 5.8-12.2 10-17.6 8.7-11.2 24.1-15.5 36.3-23.4 13.2-8.7 23-25.6 15.2-38.8-7.6-12.7-27.2-15.6-35-28.1-3.3-5.2-4.1-11.3-6.2-17-2.1-5.6-7.3-8.5-20.9-13.5z"/><path class="l" d="m335.5 620.3c2.3 2.7 5.1 5.6 8.9 5.9 4 0.2 7.3-2.6 9.9-5.3 13.3-14.1 22-31.4 25.6-49.2-3.3-1.8-6.5-3.6-9.4-5.3-2.6-1.6-4.6-3.8-5.8-6.4q-1.2-2.9-0.9-6.1c1.9-17.6 3.6-27.4 9.8-45.2-29.4-6.7-57.1-14.5-73-27.8-1.9 8.2-4.2 24.2-9.1 40.1-5.2 16.8-13.4 33.5-27.2 40.6 27.1 16 51.3 35.9 71.2 58.7z"/><path class="i" d="m363.8 553.9c-0.2 2.1 0.1 4.2 0.9 6.1-17.3 21-56.2-6.5-73.2-39 4.9-15.9 7.2-31.9 9.1-40.1 15.9 13.3 43.6 21.2 73 27.8-6.2 17.8-7.9 27.6-9.8 45.2z"/><path class="m" d="m412.2 808.5c-3.8 25.4 23.6 52.8 24.3 66.4-58.3 0-180.3 3.5-242.4-4.9-2.8-15.7 27.8-51 27.8-85.8 0-4.6-0.2-9.6-0.5-15.1-1-15.5-3.3-34-5.9-52.9-6.9-50.9-16.1-105.3-9.3-116.6 13.3-21.9 44.5-36.9 60-43.3 5.3-2.2 8.8-3.4 9-3.5 19.4 33.1 58.9 61.3 73.8 60 4.2-0.3 16.4-4.6 24.6-45.4 3.1 1.8 6.3 3.4 9.4 5 15.4 8.1 29.9 14.7 34.1 25 11 27.2 21.7 95.7 19.4 120-2.5 24.6-12.3 43.4-19.3 68-1.6 5.8-3 11.9-4.2 18.5-0.3 1.5-0.6 3-0.8 4.6z"/><path class="n" d="m436.5 874.9c-58.3 0-180.3 3.5-242.4-4.9-2.8-15.7 27.8-51 27.8-85.8 0-4.6-0.2-9.6-0.5-15.1-1-15.5-3.3-34-5.9-52.9 11.1 11.6 27.1-37.6 34.3-23.2 38.4 77.7 68.8 98.1 121.5 98.1 15.8 0 30.3-2.1 45.9-5.7-1.6 5.8-3 11.9-4.2 18.5q-0.5 2.3-0.8 4.7c-3.8 25.3 23.6 52.7 24.3 66.3z"/><path class="o" d="m383 572.4c-2.5 18.2-9.9 42.7-31.5 49.2-29.1 8.7-71.3-45.8-85.3-65.3 5.3-2.2 8.8-3.4 9-3.5 19.4 33.1 58.9 61.3 73.8 60 4.2-0.3 16.4-4.6 24.6-45.4 3.1 1.7 6.3 3.4 9.4 5z"/><path class="p" d="m395 847.5l-0.2 20.3 362.7 2.2 0.7-23z"/><path class="p" d="m914.7 666.5l-8.1-8.2-264.2-1.7-132.5 191.7 6.9 5.5z"/><path class="q" d="m647.5 663.7l-130.7 190.1 249.7 1.3 148.2-188.6z"/><path class="r" d="m710.6 785.1c-16.1 0-29-6.5-29-14.6 0-8 12.9-14.5 29-14.5 16.1 0 29.1 6.5 29.1 14.5 0 8.1-13 14.6-29.1 14.6z"/><path class="s" d="m400.4 476c4.1-22.1 19.2-37.8 33.8-35.1 14.6 2.7 23 22.8 18.9 44.9-4.1 22.1-19.2 37.8-33.8 35.1-14.6-2.7-23.1-22.8-18.9-44.9z"/><path class="q" d="m453.2 416.5c-2.7 19.2-11.3 40.4-23.9 63.8-4.4-19.2-7.2-42.5-11-65.9-4-23.4-9-46.9-17.8-66-1.9-4.2-4.1-8.3-6.4-12 5.2-0.5 10.4 0 15.4 1.3 7.8 2.1 15.1 6.2 21.1 11.5 9.9 8.9 16.6 20.9 20.5 33.6 3.3 10.5 3.8 21.7 2.1 33.7z"/><path class="l" d="m438.5 436.4c-0.2 3.7-0.4 7.6-0.8 11.4-5.3 62.3-31.5 105-71.4 105-56.5 0-93.1-63.3-93.1-125.4 0-61.1 37.5-105.4 81.4-100.3 25.3 2.9 43.7 11.3 56.9 23.6 8.6 8.2 14.9 18.1 19.2 29.3 4.9 12.6 7.3 26.9 7.7 42.3 0 0 0.1 0.1 0.1 0.1 0.2 4.6 0.1 9.2 0 14z"/><path class="i" d="m438.5 436.4c-1.7-6.1-4.2-11.9-7.6-17.2-33.3 17.4-73 24.1-110.6 17.8-7.2 5.9-14.2 11.8-21.2 17.7 0.1-28.3 0.5-47.5 11.5-61.2 10.4-12.9 27.7-17.7 44.1-19.8 18.4-2.4 37.2-2.3 55.6 0.3 7 1 14.3 2.5 20.4 6.1 4.9 12.6 7.3 26.9 7.8 42.2 0 0.1 0 0.1 0 0.2 0.2 4.5 0.1 9.1 0 13.9z"/><path class="q" d="m446.6 398c-7.7 6.6-17.4 12-28.3 16.4-31.1 12.5-71.4 16.7-102.8 15.1-15.5 34-21.7 46.1-25.7 75.7-15.1-14.1-27.3-40-31-60.4-3.6-20.3-3.2-41.6 2.4-61.6 8.9-31.5 31.4-48.3 47-56.5 3.9-2.1 7.4-3.6 10.1-4.7 19.9-7.7 42.4-7 62.8-0.7 11.1 3.4 20.5 9.3 28.4 16.5 15.9 14.4 25.8 33.9 32.2 48.5 2 4.4 3.6 8.5 4.9 11.7z"/><path class="t" d="m453.2 416.5c-1.3-6.8-3.2-13.4-6-19.8q-2.2-5.4-5.5-10.5c-7.1-11.1-17.4-20.3-29.9-24.3q-5.3-7.5-11.2-13.5c-14.2-14.4-30.8-22.6-48.4-25.5-14.7-2.3-29.9-1-43.9 3.8 3.8-2.2 7.3-3.6 10.1-4.7 19.9-7.7 42.3-7 62.7-0.8 11.2 3.5 20.6 9.3 28.4 16.5 7.8 2.1 15.1 6.2 21.1 11.5 9.9 8.9 16.6 20.9 20.5 33.6 3.3 10.5 3.8 21.7 2.1 33.7z"/><path class="u" d="m333.5 454.6c10.4-5.9 21.2-8.6 36.4-3.1"/><path class="u" d="m404.9 454.2c9-6.7 22.2-7.3 29.1 0"/><path class="v" d="m394.2 488.2c0.9 4.8 0.4 15.2-1.9 19.9"/><path class="w" d="m358.9 491.4c-2.4 0-4.3-3-4.3-6.8 0-3.7 1.9-6.8 4.3-6.8 2.4 0 4.3 3.1 4.3 6.8 0 3.8-1.9 6.8-4.3 6.8z"/><path class="w" d="m415.2 488.3c-2.4 0-4.3-3.1-4.3-6.8 0-3.8 1.9-6.8 4.3-6.8 2.3 0 4.3 3 4.3 6.8 0 3.7-2 6.8-4.3 6.8z"/><path class="x" d="m388.8 517.4c0 0-0.8 1.6-2.4 3.8-2.6 3.4-6.9 8.1-12.7 9.9h-0.1c-2.5 0.8-5.1 1.1-8.1 0.6-8.8-1.6-11.2-9.7-11.6-16-0.1-1.2-0.1-2.3 0-3.3 0-2.6 0.3-4.3 0.3-4.3 14 7.8 34.6 9.3 34.6 9.3z"/><path class="f" d="m388.8 517.4c0 0-0.8 1.6-2.4 3.8-7.2-0.1-21.8-3.7-32.5-8.8 0-2.6 0.3-4.3 0.3-4.3 14 7.8 34.6 9.3 34.6 9.3z"/><path class="y" d="m373.6 531.1c-2.5 0.8-5.1 1.1-8.1 0.5-8.8-1.5-11.2-9.6-11.6-15.9 4.3 0.5 8.4 2.2 11.8 4.8 3.6 2.7 6.3 6.4 7.9 10.6z"/><path class="z" d="m290 443.9c0 0-0.5-29.2 11.6-58.2 15.3-36.4 46.3-51.9 76.4-53 36.3-1.3 59 23.1 59 23.1 0 0-11.8-20.9-35.1-26.8-15.3-4-38.4-4.6-56.9 2.9-19.1 7.8-42.9 29.3-51.5 52-8.6 22.7-12.8 58.1-12.8 58.1z"/><path class="s" d="m280.5 434.6c15.5-1.6 30.1 16.2 32.6 39.7 2.4 23.6-8.2 44-23.7 45.6-15.6 1.6-30.2-16.2-32.6-39.7-2.4-23.6 8.2-44 23.7-45.6z"/><path class="z" d="m272.6 448.4c10-1.5 20.3 11.6 23 29.2 2.6 17.7-3.3 33.2-13.4 34.7-10 1.5-20.3-11.6-22.9-29.2-2.7-17.7 3.3-33.2 13.3-34.7z"/><path class="A" d="m378.3 553.7c-8.4 0-15.1-4.2-15.1-9.4 0-5.2 6.7-9.4 15.1-9.4 8.3 0 15 4.2 15 9.4 0 5.2-6.7 9.4-15 9.4z"/><path class="B" d="m302.6 512.9c0 0 22.1 28.5 60.6 31.4"/><path class="l" d="m394.8 793.3l-1.5 37.5c0 0-135.3 40.5-157.6 27.7-10.9-6.3-21.1-40.8-28.7-74.4-8-35.4-13.1-69.9-13.1-69.9l79.3-15.5c0 0 0.1 48.4 2.8 76.3 0.9 10.4 2.3 18 4.2 19.3 7 4.6 114.6-1 114.6-1z"/><path class="i" d="m276 775c-14.4 4.7-42.3 11.9-69 9-8-35.3-13.1-69.8-13.1-69.8l79.3-15.5c0-0.1 0.1 48.3 2.8 76.3z"/><path class="l" d="m390.9 793.7c20.1-4.3 54.2-14.6 68.4-18.2 10-2.5 36.1 11 43 23.8 3 5.5 5.9 37.1-4.6 33.8-5.2-1.6-4.3-15.1-6-20.7-1.3-4.5-5.6-8.8-12-12.5 4.3 10.7 4.1 20.1 3.7 31.8-0.1 2.6-0.3 5.3-1.5 7.5-1.3 2.2-4 3.8-6.4 2.8-2.3-1-3.2-3.9-3.7-6.5-1.9-9-3.7-18-4.5-28.2 0.2 10 0 20-0.6 30-0.5 7.6-4.3 11.8-8.9 10.5-2.1-0.6-3-2.5-3.9-5-1.4 4.9-4.9 10.3-9.4 8.2-2.8-1.2-4.5-11.2-4-21.5-8.7 5.5-18.5 7.7-29.9 8.3-10.1 0.4-20.5-1.5-26.6-8.4 0.6-10.8 4.2-26.7 6.9-35.7z"/><path class="C" d="m454.1 841.2c0.7-8.1 0-16.3-2-24.1"/><path class="m" d="m264.3 620.2c-5.7-16.2-26.8-49.4-26.8-49.4 0 0-32.2 13.4-43.6 36.1-19.3 38.5-9.5 148.9-9.5 148.9 26 10.9 78.3 11.1 100.6 8 0 0-9.1-111.2-20.7-143.6z"/><path class="D" d="m268.4 627c8.8 42 13.5 81.2 15 119.5"/><path class="q" d="m957.1 863.3v23.1h-922.6v-23.1z"/></svg>