<?xml version="1.0" encoding="utf-8"?>
<!-- Generator: Adobe Illustrator 24.3.0, SVG Export Plug-In . SVG Version: 6.00 Build 0)  -->
<svg version="1.1" id="Layer_1" xmlns="http://www.w3.org/2000/svg" xmlns:xlink="http://www.w3.org/1999/xlink" x="0px" y="0px"
	 viewBox="0 0 1080 1080" style="enable-background:new 0 0 1080 1080;" xml:space="preserve">
<style type="text/css">
	.st0{fill:none;}
	.st1{fill:#3DB6F3;}
	.st2{fill:#72CFFF;}
	.st3{fill:#A0D7EF;}
	.st4{fill:#BEE1F4;}
	.st5{fill:#FF9E22;}
	.st6{fill:#F9773D;}
	.st7{fill:#EA5F21;}
	.st8{fill:#EABE32;}
	.st9{fill:#BCE2E8;}
	.st10{fill:#D2F3F8;}
	.st11{fill:#4A938A;}
	.st12{fill:#E8CA4D;}
	.st13{fill-rule:evenodd;clip-rule:evenodd;fill:#DDE5ED;}
	.st14{fill:#545057;}
	.st15{fill:#E4F4FF;}
	.st16{fill:#4D4D4D;}
	.st17{fill:#D0D5D8;}
	.st18{fill:#1893D1;}
	.st19{fill-rule:evenodd;clip-rule:evenodd;fill:#455256;}
	.st20{fill:#4DB5EA;}
	.st21{fill:#DDE5ED;}
	.st22{fill:#A4B5BC;}
	.st23{fill:#58595B;}
	.st24{fill-rule:evenodd;clip-rule:evenodd;fill:#B0B4B7;}
	.st25{fill-rule:evenodd;clip-rule:evenodd;fill:#C0D1E1;}
	.st26{fill:#C0D1E1;}
	.st27{fill:#B0B4B7;}
	.st28{fill:#185377;}
	.st29{fill:#074B68;}
	.st30{fill-rule:evenodd;clip-rule:evenodd;fill:#EA5F21;}
	.st31{fill:#333333;}
	.st32{fill-rule:evenodd;clip-rule:evenodd;fill:#333333;}
	.st33{fill:#F7DC54;}
	.st34{fill-rule:evenodd;clip-rule:evenodd;fill:#074B68;}
	.st35{fill-rule:evenodd;clip-rule:evenodd;fill:#E6E6E6;}
	.st36{fill-rule:evenodd;clip-rule:evenodd;fill:#C1DAEC;}
	.st37{fill:#C1DAEC;}
	.st38{fill:#E6E6E6;}
</style>
<rect class="st0" width="1080" height="1080"/>
<path class="st1" d="M769.8,449.8c4.2,22.8,2.8,48.9-4.3,77c-5.3,20.7-13.4,41.7-24.1,62.3l51.8,52.6
	C811.4,578.1,803.6,508.4,769.8,449.8z"/>
<path class="st1" d="M575.3,755.7l53,53.8c34.9-10.6,68-29.2,96.3-55.8l-61.1-62.2C636,717.7,606,739.5,575.3,755.7z"/>
<path class="st1" d="M555.7,581.9l-76.9,75.6l87.6,89.1c30.2-15.5,60.5-36.9,88.6-63.7L555.7,581.9z"/>
<path class="st1" d="M727.5,395.9c-39.4-35-106.8-32.6-175.5,0.7l86,87.4L727.5,395.9z"/>
<path class="st1" d="M736,404.5l-89.5,88.1l85.9,87.4C766.8,511.9,770.3,444.5,736,404.5z"/>
<path class="st1" d="M672.1,683l61.2,62.2c25.7-26.5,44.3-57.5,55.7-90.4l-53.7-54.6C718.9,629.1,697.5,657.3,672.1,683z"/>
<path class="st1" d="M456.5,463.8l99.3,101l73.5-72.4l-88.6-90.1C511.9,417.6,483.2,438.3,456.5,463.8z"/>
<path class="st1" d="M663.6,674.4c26-26.3,47.1-54.7,62.9-83.2l-88.7-90.1l-73.5,72.3L663.6,674.4z"/>
<path class="st1" d="M448,455.2c26.2-25,54.6-46,83.8-61.9l-53.6-54.6c-33.2,10.9-64.4,29-91.4,54.3L448,455.2z"/>
<path class="st2" d="M378.2,401.5c-27.1,27.8-46.2,60.6-57.4,95.4l52.9,53.9c16.7-30.5,39-60.1,65.7-87.1L378.2,401.5z"/>
<path class="st1" d="M447.9,472.3c-27.3,27.6-49.3,57.5-65.3,87.5l87.7,89.1l76.9-75.6L447.9,472.3z"/>
<path class="st2" d="M375.5,742.2l86.1-84.8l-84.8-86.2C344.5,637.7,341.9,703.1,375.5,742.2z"/>
<path class="st2" d="M341.7,696.9c-4.2-22.9-2.8-48.9,4.3-77c4.9-19.3,12.2-38.7,21.8-57.9l-50.9-51.8
	C300.5,572.4,308.8,639.9,341.7,696.9z"/>
<path class="st2" d="M554.9,752.3L470.1,666l-86.2,84.8C422.5,785,487.8,783.5,554.9,752.3z"/>
<path class="st2" d="M428.6,785.3c56.5,33.9,123.8,43.2,186.3,27.9l-51-51.8c-19.3,9.3-38.9,16.3-58.2,20.9
	C477.5,788.9,451.4,789.9,428.6,785.3z"/>
<path class="st1" d="M684.1,361.1c-22.8-4.7-48.9-4-77.1,2.5c-20.9,4.7-42,12.4-62.9,22.6l-51.4-53
	C556.8,316.5,626.2,325.9,684.1,361.1z"/>
<path class="st3" d="M238.2,614.3l-4.3,0.5c0.9,5.3,2,10.6,3.3,15.8l4.3-0.7C240.3,624.7,239.2,619.5,238.2,614.3z"/>
<path class="st3" d="M269.3,702.4l-3.8,1.8c2.5,4.5,5.1,9,7.8,13.3l3.6-2C274.3,711.3,271.7,706.9,269.3,702.4z"/>
<path class="st3" d="M235.8,598.6c-0.7-5.3-1.3-10.6-1.7-15.9l-4.4,0.1c0.4,5.3,1,10.7,1.7,16.1L235.8,598.6z"/>
<path class="st3" d="M262.3,688.8c-2.2-4.6-4.3-9.4-6.3-14.1l-4,1.4c2,4.8,4.2,9.6,6.4,14.3L262.3,688.8z"/>
<path class="st3" d="M231.5,518.7c-0.7,5.2-1.3,10.6-1.7,15.8l4.4,0.7c0.4-5.2,1-10.5,1.7-15.7L231.5,518.7z"/>
<path class="st3" d="M250.5,459.8l-4.1-1.7c-1.8,4.8-3.4,9.7-4.9,14.6l4.2,1.5C247.2,469.3,248.8,464.5,250.5,459.8z"/>
<path class="st3" d="M241.3,646.1c1.5,5.1,3.2,10.2,5,15.2l4.1-1.2c-1.7-4.9-3.4-9.9-4.9-15L241.3,646.1z"/>
<path class="st3" d="M238.3,504.1c1-5.1,2.1-10.2,3.3-15.1l-4.3-1.3c-1.2,5-2.3,10.2-3.3,15.3L238.3,504.1z"/>
<path class="st3" d="M228.9,550.6c-0.07,2.8-0.1,5.63-0.1,8.5c0,2.53,0.03,5.07,0.1,7.6l4.4,0.1c-0.07-2.47-0.1-4.93-0.1-7.4
	c0-2.8,0.03-5.6,0.1-8.4L228.9,550.6z"/>
<path class="st3" d="M262.3,432.6l-3.9-2.1c-2.2,4.4-4.4,8.9-6.4,13.5l4,1.9C258,441.4,260.1,436.9,262.3,432.6z"/>
<path class="st3" d="M332.5,781.1c-3.4-3-6.9-6.1-10.2-9.3l-2.9,2.6c3.4,3.3,6.9,6.4,10.4,9.4L332.5,781.1z"/>
<path class="st3" d="M353.7,797.4c-3.6-2.4-7.2-5.1-10.7-7.8l-2.5,2.8c3.5,2.8,7.2,5.4,10.9,7.9L353.7,797.4z"/>
<path class="st3" d="M299.6,753.7c3.2,3.6,6.5,7.2,9.8,10.7l3-2.5c-3.3-3.4-6.5-7-9.6-10.7L299.6,753.7z"/>
<path class="st3" d="M281.6,730.2c2.8,4,5.7,8.1,8.8,12l3.3-2.2c-3-3.9-5.9-7.9-8.7-12L281.6,730.2z"/>
<path class="st3" d="M386.9,816.6l-1.9,3c3.8,1.8,7.7,3.5,11.5,5l1.6-3C394.4,820,390.6,818.4,386.9,816.6z"/>
<path class="st3" d="M362.5,807.5c3.6,2.2,7.4,4.4,11.2,6.4l2-2.9c-3.7-2.1-7.4-4.2-11.1-6.4L362.5,807.5z"/>
<path class="st3" d="M235.5,390.8l-4-2.5c-2.7,4.3-5.3,8.7-7.7,13.1l4.1,2.3C230.3,399.4,232.9,395,235.5,390.8z"/>
<path class="st3" d="M200.3,476.4l-4.7-1.4c-1.3,5.3-2.4,10.6-3.4,16l4.7,1.1C197.9,486.9,199,481.6,200.3,476.4z"/>
<path class="st3" d="M194.4,508.2l-4.8-0.9c-0.7,5.4-1.3,10.9-1.8,16.5l4.8,0.6C193.1,519,193.7,513.5,194.4,508.2z"/>
<path class="st3" d="M191.5,551.4c0-3.53,0.07-7.03,0.2-10.5l-4.8-0.5c-0.13,3.53-0.2,7.07-0.2,10.6c0,2.07,0.03,4.13,0.1,6.2
	l4.8,0.2C191.53,555.4,191.5,553.4,191.5,551.4z"/>
<path class="st3" d="M319.9,815.7c3.7,2.7,7.6,5.2,11.5,7.7l2.4-3c-3.8-2.4-7.6-5-11.3-7.6L319.9,815.7z"/>
<path class="st3" d="M276.3,777.9c3.4,3.5,6.9,7.1,10.5,10.5l3.1-2.7c-3.5-3.4-6.9-6.9-10.3-10.4L276.3,777.9z"/>
<path class="st3" d="M343,830.4c3.8,2.2,7.8,4.3,11.7,6.2l2.1-3.1c-3.9-1.9-7.8-4-11.6-6.2L343,830.4z"/>
<path class="st3" d="M297.6,798.2c3.6,3.1,7.3,6.2,11,9.1l2.8-2.9c-3.7-2.9-7.3-5.9-10.9-9L297.6,798.2z"/>
<path class="st3" d="M222.6,701.5c2.4,4.7,5,9.5,7.7,14.2l4-1.9c-2.6-4.6-5.1-9.3-7.5-14.1L222.6,701.5z"/>
<path class="st3" d="M238.5,729.3c2.8,4.4,5.7,8.8,8.8,13.1l3.7-2.2c-3-4.2-5.9-8.6-8.6-12.9L238.5,729.3z"/>
<path class="st3" d="M256.5,754.9c3.1,4,6.4,8,9.7,11.8l3.5-2.5c-3.3-3.8-6.5-7.7-9.6-11.7L256.5,754.9z"/>
<path class="st3" d="M210.4,429.4l4.4,1.9c1.9-4.7,4-9.4,6.2-14l-4.3-2.2C214.5,419.8,212.4,424.6,210.4,429.4z"/>
<path class="st3" d="M192.3,573.9h-4.8c0.4,5.6,0.9,11.2,1.6,16.8l4.7-0.2C193.2,585,192.7,579.4,192.3,573.9z"/>
<path class="st3" d="M196.2,606.9l-4.7,0.4c0.9,5.5,2,11.1,3.2,16.5l4.7-0.7C198.2,617.8,197.1,612.3,196.2,606.9z"/>
<path class="st3" d="M203.4,639.1l-4.6,1l0.8,3c1.27,4.33,2.6,8.63,4,12.9l4.5-1.1c-1.4-4.2-2.7-8.43-3.9-12.7L203.4,639.1z"/>
<path class="st3" d="M209.2,671.6c2,5.1,4.2,10.2,6.4,15.2l4.3-1.6c-2.2-4.9-4.3-9.9-6.3-15L209.2,671.6z"/>
<path class="st3" d="M199.8,459.4l4.6,1.6c1.4-5.1,3.1-10.2,4.8-15.1l-4.5-1.7C203,449.1,201.3,454.2,199.8,459.4z"/>
<path class="st4" d="M688.4,784.8l1.6,4.2c4.8-2.2,9.6-4.6,14.2-7.1l-1.8-4.1C697.8,780.2,693.1,782.6,688.4,784.8z"/>
<path class="st4" d="M764.2,732.8l2.7,3.2c3.6-3.4,7.1-7.1,10.5-10.7l-2.8-3.1C771.2,725.8,767.8,729.4,764.2,732.8z"/>
<path class="st4" d="M674,791.1c-4.9,1.9-9.9,3.8-14.8,5.5l1.2,4.4c4.9-1.7,10-3.6,14.9-5.6L674,791.1z"/>
<path class="st4" d="M753.1,742.9c-3.8,3.3-7.7,6.5-11.7,9.6l2.4,3.6c4-3.1,8-6.4,11.9-9.8L753.1,742.9z"/>
<path class="st4" d="M598.6,814.8c5.1-0.6,10.4-1.3,15.5-2.1l-0.4-4.6c-5,0.8-10.2,1.5-15.3,2.1L598.6,814.8z"/>
<path class="st4" d="M538.4,809.9l-0.8,4.6c4.9,0.6,9.9,1.1,14.9,1.4l0.5-4.6C548.1,811,543.2,810.5,538.4,809.9z"/>
<path class="st4" d="M718,774c4.5-2.8,8.9-5.7,13.2-8.6l-2.2-3.8c-4.2,2.9-8.6,5.7-13,8.4L718,774z"/>
<path class="st4" d="M583.1,811.4c-5,0.3-10.1,0.4-15.1,0.4l-0.3,4.6c5,0.1,10.2-0.1,15.3-0.3L583.1,811.4z"/>
<path class="st4" d="M629.7,809.7c2.73-0.67,5.47-1.33,8.2-2c2.4-0.6,4.8-1.23,7.2-1.9l-0.9-4.6c-2.33,0.67-4.7,1.3-7.1,1.9
	c-2.67,0.73-5.37,1.4-8.1,2L629.7,809.7z"/>
<path class="st4" d="M510.1,804.7l-1.2,4.4c4.6,1.2,9.3,2.2,14.1,3.1l1-4.5C519.3,806.9,514.6,805.9,510.1,804.7z"/>
<path class="st4" d="M820.8,653.5c-1.8,4-3.7,7.9-5.7,11.8l3.2,2.1c2.1-4,4-8,5.8-12L820.8,653.5z"/>
<path class="st4" d="M830.1,629.9c-1.3,3.9-2.7,7.9-4.2,11.8l3.3,1.7c1.5-4,3-8,4.3-12L830.1,629.9z"/>
<path class="st4" d="M804.3,691.2c2.6-3.9,5.1-7.9,7.4-11.9l-3.2-2.2c-2.3,3.9-4.8,7.8-7.3,11.6L804.3,691.2z"/>
<path class="st4" d="M787.1,714.2c3.1-3.7,6.1-7.5,9-11.4l-3-2.7c-2.9,3.8-5.9,7.6-8.9,11.2L787.1,714.2z"/>
<path class="st4" d="M838.6,595l3.2,1c0.6-3.9,1.1-7.7,1.4-11.5l-3.2-0.8C839.6,587.4,839.2,591.2,838.6,595z"/>
<path class="st4" d="M837,619.5c1-4,2-7.9,2.8-11.8l-3.3-1.2c-0.8,3.9-1.8,7.8-2.8,11.6L837,619.5z"/>
<path class="st4" d="M475.4,841.8l-1.6,4.7c4.6,1.7,9.3,3.3,14,4.7l1.4-4.8C484.6,845,480,843.5,475.4,841.8z"/>
<path class="st4" d="M564.7,857l-0.3,5.2c5.4,0,10.8-0.2,16.2-0.5l0.1-5.1C575.4,856.9,570,857,564.7,857z"/>
<path class="st4" d="M596.7,855.3l0.2,5.1c5.4-0.6,10.9-1.3,16.4-2.2l-0.4-5.1C607.5,853.9,602.1,854.7,596.7,855.3z"/>
<path class="st4" d="M639.2,847.6c-3.4,0.87-6.8,1.67-10.2,2.4l0.7,5.1c3.4-0.8,6.83-1.63,10.3-2.5c2-0.47,3.97-0.97,5.9-1.5
	L645,846C643.07,846.53,641.13,847.07,639.2,847.6z"/>
<path class="st4" d="M856.7,657.2c1.4-4.2,2.7-8.4,3.8-12.6l-3.4-1.6c-1.2,4.2-2.5,8.3-3.9,12.4L856.7,657.2z"/>
<path class="st4" d="M833.6,707.8c2.4-4.1,4.8-8.4,7-12.6l-3.5-2.4c-2.2,4.2-4.5,8.4-6.9,12.5L833.6,707.8z"/>
<path class="st4" d="M863.7,632.1c0.9-4.1,1.7-8.2,2.4-12.3l-3.5-1.2c-0.7,4-1.5,8.1-2.4,12.1L863.7,632.1z"/>
<path class="st4" d="M846.7,682.5c1.9-4.2,3.7-8.4,5.4-12.7l-3.5-1.9c-1.7,4.1-3.5,8.3-5.4,12.5L846.7,682.5z"/>
<path class="st4" d="M775.9,779.2c3.9-3.6,7.8-7.3,11.5-11.1l-2.9-3.5c-3.7,3.7-7.5,7.3-11.4,10.9L775.9,779.2z"/>
<path class="st4" d="M798.2,756.6c3.4-3.8,6.8-7.8,10-11.8l-3.2-3.2c-3.1,3.9-6.5,7.9-9.9,11.6L798.2,756.6z"/>
<path class="st4" d="M817.5,732.6c2.9-4,5.7-8.1,8.4-12.3l-3.3-2.8c-2.7,4.1-5.5,8.2-8.4,12.2L817.5,732.6z"/>
<path class="st4" d="M517.3,858.1l1-5c-4.9-0.8-9.9-1.8-14.7-3l-1.2,5C507.3,856.2,512.3,857.2,517.3,858.1z"/>
<path class="st4" d="M660.8,841.2l1.2,5c5.3-1.8,10.6-3.7,15.8-5.8l-1.4-4.8C671.3,837.6,666,839.5,660.8,841.2z"/>
<path class="st4" d="M691.7,829.1l1.7,4.8c5-2.4,10.1-4.8,15.1-7.4l-1.9-4.6C701.7,824.4,696.7,826.8,691.7,829.1z"/>
<path class="st4" d="M721.1,813.9l2,4.5l2.8-1.7c3.8-2.33,7.6-4.73,11.4-7.2l-2.3-4.3c-3.67,2.47-7.4,4.83-11.2,7.1L721.1,813.9z"/>
<path class="st4" d="M750.8,800c4.4-3.3,8.7-6.7,12.9-10.1l-2.7-4c-4.1,3.4-8.4,6.8-12.7,10L750.8,800z"/>
<path class="st4" d="M548.4,861.7l0.6-5.1c-5.2-0.3-10.4-0.8-15.5-1.3l-0.8,5C537.8,860.9,543.1,861.4,548.4,861.7z"/>
<path class="st5" d="M532.7,636.4c-3.47,3.67-7.3,7.27-11.5,10.8c14.4,0.7,51.6-6.3,86.6-21.2c35.3-14.1,68.4-36.1,80.6-47.1
	c-0.6-0.3-11.9,16.2-41.8,36.2c-29.1,19.7-76.8,43-133.7,48c1,3.47,2.23,6.87,3.7,10.2c-24.3-4.9-41.8-14.6-53-26.4
	C487.5,648.3,511.9,644,532.7,636.4z"/>
<path class="st5" d="M353,524.5c-4.2-2.07-8.27-4.43-12.2-7.1c-3.5,11.5-0.9,39.5,12.3,64.4c12.2,25.2,35.2,47.3,47.6,54.9
	c0.5-0.5-19.2-6.5-40.1-26.4c-20.7-19.4-42.7-52.7-39.1-96.6c-4.73,1.4-9.47,2.97-14.2,4.7c10.8-19.9,26.7-35.4,44.1-46.3
	C345.4,491.1,346.7,509.5,353,524.5z"/>
<path class="st5" d="M711.4,475.1c4.2,2.07,8.27,4.43,12.2,7.1c3.5-11.5,0.9-39.5-12.3-64.4c-12.2-25.2-35.2-47.3-47.6-54.9
	c-0.5,0.4,19.2,6.4,40.1,26.3c20.7,19.5,42.7,52.8,39.1,96.7c4.73-1.4,9.47-3,14.2-4.8c-10.8,20-26.7,35.5-44.1,46.4
	C719,508.5,717.7,490.1,711.4,475.1z"/>
<g>
	<path class="st6" d="M551.9,364.4c0-23.3,19-42.3,42.3-42.3v-36.2c-43.3,0-78.5,35.1-78.5,78.5c0,53.4,78.5,159,78.5,159V406.7
		C570.9,406.7,551.9,387.8,551.9,364.4z"/>
	<path class="st7" d="M632.8,381.6c-6.6,14.8-21.3,25.1-38.6,25.1v116.7c0,0,73.5-95.1,78.3-153.3c-4.3,0.5-8.6,1.2-13,2.3
		C650.6,374.4,641.7,377.6,632.8,381.6z"/>
	<path class="st7" d="M634.8,352.8c12.7,0.1,25.4,2.1,37.6,6c-2.8-40.7-36.7-72.9-78.2-72.9v36.2
		C613.6,322.1,629.8,335.1,634.8,352.8z"/>
	<path class="st7" d="M672.4,358.8c-12.2-3.9-24.9-5.9-37.6-6c1.1,3.7,1.7,7.6,1.7,11.6c0,6.1-1.4,12-3.7,17.2
		c8.9-4,17.8-7.2,26.7-9.2c4.4-1.1,8.7-1.8,13-2.3c0.13-1.93,0.2-3.83,0.2-5.7C672.7,362.5,672.6,360.7,672.4,358.8z"/>
</g>
<path class="st8" d="M826.1,701.2h81c4.6,0,8.3-3.8,8.3-8.4v-44.4h-89.3V701.2z"/>
<path class="st8" d="M915.4,637.3v3.3h-89.3v-3.3H915.4z"/>
<path class="st9" d="M915.6,648.4v-7.8h-0.2v7.8H915.6z"/>
<path class="st10" d="M826.1,640.6v7.8h-84.6v-7.8H826.1z"/>
<path class="st9" d="M915.4,640.6v7.8h-89.3v-7.8H915.4z"/>
<path class="st9" d="M915.6,637.3v-7.8h-0.2v7.8H915.6z"/>
<path class="st9" d="M915.4,629.5v7.8h-89.3v-7.8H915.4z"/>
<path class="st10" d="M826.1,629.5v7.8h-84.6v-7.8H826.1z"/>
<path class="st11" d="M915,557.9l0.2-0.4l-0.3,0.4H915z"/>
<path class="st8" d="M915.4,557.9v71.6h-89.3v-71.6H915.4z"/>
<path class="st5" d="M741.4,557.9v134.9c0,4.6,3.7,8.4,8.3,8.4h76.4v-52.8h-84.6v-7.8h84.6v-3.3h-84.6v-7.8h84.6v-71.6H741.4z"/>
<path class="st8" d="M914.9,555.5h-88.8V542h71.4L914.9,555.5z"/>
<path class="st12" d="M826.1,542v13.5h-83.9l17.4-13.5H826.1z"/>
<path class="st13" d="M894.8,660.2v28.5h-48.2v-28.5H894.8z M847.9,662.3v23.6h1.6v-23.6H847.9z M849.7,662.3v23.6h1.6v-23.6H849.7z
	 M854.4,662.3v23.6h3v-23.6H854.4z M858.9,662.3v23.6h1.6v-23.6H858.9z M861.7,662.3v23.6h1.6v-23.6H861.7z M865.6,662.3v23.6h3.2
	v-23.6H865.6z M870,662.3v23.6h1.7v-23.6H870z M873.7,662.3v23.6h1.6v-23.6H873.7z M875.5,662.3v23.6h1.6v-23.6H875.5z M879.3,662.3
	v23.6h1.6v-23.6H879.3z M881.1,662.3v23.6h1.6v-23.6H881.1z M882.9,662.3v23.6h1.6v-23.6H882.9z M887.1,662.3v23.6h1.7v-23.6H887.1z
	 M889.3,662.3v23.6h1.7v-23.6H889.3z M892,662.3v23.6h1.7v-23.6H892z"/>
<path class="st14" d="M849.5,662.3v23.6h-1.6v-23.6H849.5z"/>
<path class="st14" d="M851.3,662.3v23.6h-1.7v-23.6H851.3z"/>
<path class="st14" d="M857.3,662.3v23.6h-3v-23.6H857.3z"/>
<path class="st14" d="M860.5,662.3v23.6h-1.6v-23.6H860.5z"/>
<path class="st14" d="M863.3,662.3v23.6h-1.7v-23.6H863.3z"/>
<path class="st14" d="M868.8,662.3v23.6h-3.3v-23.6H868.8z"/>
<path class="st14" d="M871.5,662.3v23.6h-1.6v-23.6H871.5z"/>
<path class="st14" d="M875.3,662.3v23.6h-1.7v-23.6H875.3z"/>
<path class="st14" d="M877,662.3v23.6h-1.6v-23.6H877z"/>
<path class="st14" d="M880.8,662.3v23.6h-1.7v-23.6H880.8z"/>
<path class="st14" d="M882.6,662.3v23.6h-1.7v-23.6H882.6z"/>
<path class="st14" d="M884.3,662.3v23.6h-1.6v-23.6H884.3z"/>
<path class="st14" d="M888.6,662.3v23.6h-1.7v-23.6H888.6z"/>
<path class="st14" d="M890.8,662.3v23.6h-1.6v-23.6H890.8z"/>
<path class="st14" d="M893.6,662.3v23.6h-1.7v-23.6H893.6z"/>
<path class="st7" d="M889.7,598.1V609c-3.2,0.3-5.7,1.4-6.2,2.8h15.4c-0.5-1.4-3-2.5-6.2-2.8v-10.9c3.6-0.8,6.3-4.7,6.3-9.3
	c0-0.13,0-0.23,0-0.3h-15.6c0,0.07,0,0.17,0,0.3C883.4,593.4,886.1,597.3,889.7,598.1z"/>
<path class="st7" d="M866,598.6c0.4-0.2,1-0.4,1.7-0.5c1.3-0.1,2.8,0.1,3.3,0.4c0.1,4.3,0.1,10.6,0,11.7c-0.1,0.9-0.2,1.8-0.9,2.6
	c-0.7,0.9-2.1,1.4-3.2,0.8c-0.6-0.3-0.9-0.8-1.1-1.2c-0.2-0.5-0.2-1-0.2-1.5c-0.6-0.1-1.2,0-1.6,0.3c-1.1,0.7-0.4,2.1,0.4,2.9
	c0.5,0.5,1.2,1,2,1.3c0.47,0.13,0.9,0.2,1.3,0.2c1.7,0,3.5-0.9,4.3-2c1.2-1.6,1-3.9,1-5.7c0-1.87,0-3.73,0-5.6c0-1.2,0-2.43,0-3.7
	c0.5-0.2,1.3-0.5,2.4-0.5c1.1,0,2,0.3,2.6,0.5c0.2-0.2,1-0.7,2.1-0.6c0.8,0,1.5,0.4,1.8,0.6c-0.9-4.4-4.5-7.6-8.8-8.2
	c-0.2-0.5-0.8-0.9-1.4-0.9c-0.6,0-1.1,0.4-1.4,0.9c-4.5,0.6-8.1,3.9-8.7,8.2c0.3-0.2,1.1-0.6,2-0.6
	C864.8,597.9,865.6,598.4,866,598.6z"/>
<path class="st7" d="M868.1,589.9h0.2c1.1,0,1.1-1.7,0-1.7h-0.2C867,588.2,867,589.9,868.1,589.9z"/>
<path class="st7" d="M871.3,587.3c1.1,0,1.1-1.7,0-1.7C870.2,585.6,870.2,587.3,871.3,587.3z"/>
<path class="st7" d="M875,588.9v-0.1c0-1.1-1.7-1.1-1.7,0v0.1C873.3,590,875,590,875,588.9z"/>
<path class="st7" d="M876.8,585.6v-0.1c0-1.1-1.7-1.1-1.7,0v0.1C875.1,586.7,876.8,586.7,876.8,585.6z"/>
<path class="st7" d="M879.5,588.9c1.1,0,1.1-1.7,0-1.7S878.4,588.9,879.5,588.9z"/>
<path class="st7" d="M848.6,595c0.13,0.07,0.3,0.1,0.5,0.1c0.3,0,0.6-0.1,0.8-0.3l2-2.5v18.3c0,0.5,0.4,0.8,1,0.8
	c0.5,0,0.9-0.3,0.9-0.8V592l2.5,2.8c0.3,0.4,1,0.4,1.4,0.2c0.4-0.3,0.5-0.8,0.2-1.2l-4.3-4.7c-0.2-0.2-0.5-0.3-0.8-0.3
	s-0.6,0.1-0.8,0.4l-3.7,4.7C848,594.3,848.1,594.8,848.6,595z"/>
<path class="st7" d="M836.4,595c0.2,0.07,0.4,0.1,0.6,0.1c0.3,0,0.6-0.1,0.8-0.3l2-2.5v18.3c0,0.5,0.4,0.8,0.9,0.8
	c0.6,0,1-0.3,1-0.8V592l2.5,2.8c0.3,0.4,0.9,0.4,1.4,0.2c0.4-0.3,0.5-0.8,0.2-1.2l-4.3-4.7c-0.2-0.2-0.5-0.3-0.8-0.3
	s-0.6,0.1-0.8,0.4l-3.7,4.7C835.9,594.3,836,594.8,836.4,595z"/>
<path class="st7" d="M855.9,612.3h-17.7c-0.6,0-1,0.5-1,1c0,0.6,0.4,1,1,1h17.7c0.5,0,1-0.4,1-1
	C856.9,612.8,856.4,612.3,855.9,612.3z"/>
<path class="st10" d="M826.3,541.9v13.5h-7v-13.5H826.3z"/>
<path class="st9" d="M833.4,541.9h-7.1v13.5h7.4L833.4,541.9z"/>
<path class="st10" d="M819.1,557.8v11.6l2-2.3l2.8,2.3l2.4-2.8v-8.8H819.1z"/>
<path class="st9" d="M826.3,557.8v8.8l2.3,4.2l3.3-2.2l2.4,2.2v-13H826.3z"/>
<path class="st10" d="M741.4,665.4v6.3v5.7h7.3v-12H741.4z"/>
<path class="st9" d="M756.5,671.7l1.9-1.8l-1.2-2.6l0.2-1.9h-8.7v12h7.8l-1.5-1.6l3.4-2.2L756.5,671.7z"/>
<path class="st14" d="M811.3,585.1v1.6h-49.8v-1.6H811.3z"/>
<path class="st14" d="M811.3,590.2v1.6h-49.8v-1.6H811.3z"/>
<path class="st14" d="M811.3,595.3v1.5h-49.8v-1.5H811.3z"/>
<path class="st14" d="M811.3,600.3v1.6h-49.8v-1.6H811.3z"/>
<path class="st14" d="M811.3,605.4v1.5h-49.8v-1.5H811.3z"/>
<path class="st15" d="M707.4,715.5l-20.1-10.9c-1.5,2.2-4.6,2.9-7.2,1.5l-54.5-29.7c-2.5-1.4-3.6-4.4-2.6-6.9l-20.1-10.9
	c-6.1-3.4-13.7-1.3-16.9,4.5l-72.1,132.4c-3.2,5.8-0.9,13.3,5.3,16.7l104.5,56.9c6.2,3.4,13.8,1.3,17-4.5l72.1-132.4
	C716,726.4,713.6,718.9,707.4,715.5z"/>
<path class="st16" d="M711.3,708.4l-20.1-10.9c-0.07,0.13-0.13,0.3-0.2,0.5l-3.3,6c-0.13,0.2-0.27,0.4-0.4,0.6l20.1,10.9
	c6.2,3.4,8.6,10.9,5.4,16.7l-72.1,132.4c-3.2,5.8-10.8,7.9-17,4.5l-104.5-56.9c-6.2-3.4-8.5-10.9-5.3-16.7L586,663.1
	c3.2-5.8,10.8-7.9,16.9-4.5l20.1,10.9c0.07-0.2,0.17-0.4,0.3-0.6l3.2-6c0.1-0.2,0.3-0.3,0.4-0.5l-20.1-11
	c-10.3-5.6-22.9-2.1-28.3,7.7l-72.1,132.3c-5.3,9.8-1.3,22.3,8.9,27.9l104.5,57c10.3,5.6,23,2.2,28.3-7.7l72.2-132.3
	C725.6,726.5,721.6,714,711.3,708.4z"/>
<path class="st16" d="M688.6,690.6l-4.8-2.7l1.6-3c1.4-2.6,0.3-6-2.4-7.4l-34.8-19c-2.8-1.5-6.2-0.6-7.6,2l-1.7,3l-4.8-2.6
	c-2.5-1.4-5.6-0.7-7.2,1.5c-0.1,0.2-0.3,0.3-0.4,0.5l-3.2,6c-0.13,0.2-0.23,0.4-0.3,0.6c-1,2.5,0.1,5.5,2.6,6.9l54.5,29.7
	c2.6,1.4,5.7,0.7,7.2-1.5c0.13-0.2,0.27-0.4,0.4-0.6l3.3-6c0.07-0.2,0.13-0.37,0.2-0.5C692.2,694.9,691.1,692,688.6,690.6z"/>
<path class="st17" d="M684.5,693.3l-50.4-27.5c-2.2-1.2-4.9-0.4-6.1,1.8l-0.1,0.2c-1.2,2.2-0.4,5,1.8,6.2l50.3,27.4
	c2.2,1.2,5,0.4,6.2-1.8l0.1-0.2C687.5,697.2,686.6,694.5,684.5,693.3z"/>
<path class="st17" d="M680.6,678.5l-32-17.4c-1.5-0.8-3.3-0.3-4.1,1.2l-0.1,0.1c-0.8,1.5-0.2,3.3,1.2,4.1l32,17.4
	c1.5,0.8,3.3,0.3,4.1-1.2l0.1-0.1C682.6,681.1,682,679.3,680.6,678.5z"/>
<path class="st18" d="M674.1,761.5l-62.8-34.3c-1.1-0.6-2.5-0.1-3.1,1l-0.1,0.1c-0.6,1.1-0.2,2.4,0.9,3l62.9,34.3
	c1.1,0.6,2.5,0.2,3.1-0.9v-0.1C675.6,763.5,675.2,762.1,674.1,761.5z"/>
<path class="st19" d="M588.5,695.4l20.5,11.1l-10.9,20.1l-20.5-11.2L588.5,695.4z M581.4,714.3l15.5,8.5l8.3-15.1l-15.5-8.5
	L581.4,714.3z"/>
<path class="st18" d="M655.9,795L593,760.7c-1.1-0.6-2.5-0.2-3.1,0.9v0.1c-0.6,1.1-0.2,2.5,0.9,3.1l62.8,34.3
	c1.1,0.6,2.5,0.2,3.1-0.9l0.1-0.1C657.4,797,657,795.6,655.9,795z"/>
<path class="st19" d="M570.3,728.9l20.4,11.1l-10.9,20l-20.4-11.1L570.3,728.9z M563.2,747.8l15.5,8.5l8.2-15.1l-15.5-8.5
	L563.2,747.8z"/>
<path class="st18" d="M637.6,828.4l-62.8-34.2c-1.1-0.6-2.5-0.2-3.1,0.9l-0.1,0.1c-0.6,1.1-0.1,2.5,1,3.1l62.8,34.3
	c1.1,0.5,2.5,0.1,3.1-1v-0.1C639.1,830.4,638.7,829.1,637.6,828.4z"/>
<path class="st19" d="M552.1,762.4l20.4,11.1l-10.9,20l-20.5-11.1L552.1,762.4z M545,781.3l15.5,8.4l8.3-15.1l-15.5-8.4L545,781.3z"
	/>
<path class="st7" d="M579.7,762c-0.9-1-2.3-1.1-3.3-0.3l-21.2,18.4l0.4-20c0.1-1.3-0.9-2.3-2.2-2.4c-1.3,0-2.4,1-2.4,2.3l-0.6,25.3
	c0,0.9,0.5,1.7,1.3,2.1c0,0,0.03,0.03,0.1,0.1c0.8,0.4,1.8,0.2,2.5-0.4l25.2-21.8C580.4,764.4,580.5,763,579.7,762z"/>
<path class="st7" d="M594.5,734.7c-0.8-0.9-2.3-1-3.3-0.2l-21.1,18.4l0.4-20c0-1.3-1-2.4-2.3-2.4s-2.4,1-2.4,2.3l-0.5,25.3
	c0,0.9,0.4,1.7,1.2,2.1c0.07,0,0.1,0,0.1,0c0.9,0.4,1.8,0.3,2.5-0.3l25.2-21.9C595.3,737.2,595.4,735.7,594.5,734.7z"/>
<path class="st7" d="M614.9,697.3c-0.8-1-2.3-1.1-3.3-0.2l-21.1,18.4l0.4-20.1c0-1.3-1-2.3-2.3-2.3c-1.3-0.1-2.3,0.9-2.4,2.2
	l-0.5,25.3c0,0.9,0.4,1.7,1.2,2.1c0.07,0.07,0.1,0.1,0.1,0.1c0.9,0.4,1.9,0.3,2.6-0.4l25.1-21.8
	C615.7,699.8,615.8,698.3,614.9,697.3z"/>
<path class="st20" d="M755,700.7l-4.5-5.4c-1.7-2-4.5-2.4-6.2-1l-4.5,3.8l7.4,9.1L755,700.7z"/>
<path class="st18" d="M758.5,711.5c1.8-1.5,1.9-4.4,0.1-6.5l-3.6-4.3l-7.8,6.5l6.8,8.2L758.5,711.5z"/>
<path class="st7" d="M594.1,820.2l-0.6,0.6l0.1,0.3L594.1,820.2z"/>
<path class="st6" d="M606,840.4l-0.9,0.3l0.2,0.3L606,840.4z"/>
<path class="st20" d="M729.3,722.3l11.4-9.6l-7.4-9.1l-8.1,6.7L594.1,820.2l6.3,10.6L729.3,722.3z"/>
<path class="st18" d="M739.2,727.8l8.2-6.9l-6.7-8.2l-11.4,9.6L600.4,830.8l5.6,9.6L739.2,727.8z"/>
<path class="st15" d="M752.6,716.5l1.4-1.1l-6.8-8.2l-1.3,1.2l-5.2,4.3l6.7,8.2L752.6,716.5z"/>
<path class="st21" d="M745.9,708.4l1.3-1.2l-7.4-9.1l-1.4,1.2l-5.1,4.3l7.4,9.1L745.9,708.4z"/>
<path class="st22" d="M592.1,837.8l-4.1-7.1l-11.1,19l1.8-0.6L592.1,837.8z"/>
<path class="st23" d="M592.1,837.8l-13.4,11.3l16.8-5.4L592.1,837.8z"/>
<path class="st21" d="M599.7,831.4l0.7-0.6l-6.3-10.6l-0.5,0.9l-5.6,9.6l4.1,7.1L599.7,831.4z"/>
<path class="st15" d="M605.1,840.7l0.9-0.3l-5.6-9.6l-0.7,0.6l-7.6,6.4l3.4,5.9L605.1,840.7z"/>
<path class="st16" d="M753.2,421.7c-0.47-0.07-0.93-0.07-1.4,0h1.6H753.2z"/>
<g>
	<path class="st24" d="M856.3,349h-63.6v-60.4h6.7c2.3,0,4.4-0.9,6-2.5c1.5-1.6,2.4-3.7,2.4-6.1c0-1.2,1-2.2,2.2-2.2h30.6
		c7,0,12.9,5.8,13.2,12.8L856.3,349z M794.6,299.7v33.8c0,5.3,4.2,9.6,9.3,9.6h37.8c5.1,0,9-4.3,8.8-9.6l-1.3-33.8
		c-0.2-5-4.4-9.1-9.3-9.1h-36.4C798.6,290.6,794.6,294.7,794.6,299.7z"/>
	<path class="st25" d="M792.7,349h-64.4l2.5-58.4c0.4-7,6.3-12.8,13.2-12.8h30.7c0.6,0,1.1,0.3,1.5,0.7c0.4,0.4,0.7,0.9,0.7,1.5
		c-0.1,4.8,3.7,8.6,8.4,8.6h7.4V349z M790,333.5l0.1-33.8c0-5-4-9.1-8.9-9.1h-36.5c-4.9,0-9.1,4.1-9.3,9.1l-1.3,33.8
		c-0.2,5.3,3.8,9.6,8.8,9.6h37.9C785.8,343.1,790,338.8,790,333.5z"/>
	<path class="st26" d="M792.7,360.9h-64.9l-0.6,13.9h65.5V360.9z"/>
	<path class="st27" d="M792.7,374.8h64.7l-0.6-13.9h-64.1V374.8z"/>
	<path class="st24" d="M845.5,418.5h-52.8v-31.1H858l0.7,15.9C859,411.6,853.1,418.5,845.5,418.5z M841.3,397.7
		c0-1.2-1.1-2.3-2.3-2.3h-27.1c-1.2,0-2.2,1.1-2.2,2.3v9.2c0,1.2,1,2.3,2.2,2.3H839c1.2,0,2.3-1.1,2.3-2.3V397.7z"/>
	<path class="st25" d="M792.7,387.4v31.1h-53.5c-7.6,0-13.6-6.9-13.2-15.2l0.7-15.9H792.7z M774.9,406.9v-9.2c0-1.2-1-2.3-2.2-2.3
		h-27.1c-1.2,0-2.3,1.1-2.3,2.3v9.2c0,1.2,1.1,2.3,2.3,2.3h27.1C773.9,409.2,774.9,408.1,774.9,406.9z"/>
	<path class="st6" d="M784.4,268.4c-2.1,0.4-4.9,2.6-5.6,4.7c-0.87,2.87-0.9,5.73-0.1,8.6c0.7,2.1,3.5,4.4,5.5,4.8
		c2.87,0.53,5.7,0.77,8.5,0.7v-19.5C789.9,267.63,787.13,267.87,784.4,268.4z"/>
	<path class="st7" d="M806,281.7c0.8-2.87,0.77-5.73-0.1-8.6c-0.8-2.1-3.6-4.3-5.6-4.7c-2.53-0.47-5.07-0.7-7.6-0.7v19.5
		c2.6,0,5.17-0.23,7.7-0.7C802.5,286.1,805.3,283.8,806,281.7z"/>
	<path class="st18" d="M794.7,333.5c0,5.2,4.1,9.6,9.2,9.6h37.8c5.1,0,9.1-4.4,8.9-9.6l-1.4-33.8c-0.2-5-4.3-9.1-9.2-9.1h-36.5
		c-4.9,0-8.9,4.1-8.9,9.1L794.7,333.5z"/>
	<path class="st20" d="M781.2,290.6h-36.5c-4.9,0-9.1,4.1-9.3,9.1l-1.3,33.8c-0.2,5.2,3.8,9.6,8.8,9.6h37.9c5,0,9.2-4.4,9.2-9.6
		l0.1-33.8C790.1,294.7,786.1,290.6,781.2,290.6z"/>
	<path class="st7" d="M792.7,349v11.9h64.1v-0.4l-0.5-11.5H792.7z"/>
	<path class="st6" d="M792.7,349h-64.4l-0.5,11.9h64.9V349z"/>
	<path class="st7" d="M792.7,387.4H858h1.3v-12.6h-1.9h-64.7V387.4z"/>
	<path class="st6" d="M792.7,374.8h-65.5h-1.9v12.6h1.4h66V374.8z"/>
	<path class="st7" d="M772.7,395.4h-27c-1.3,0-2.3,1.1-2.3,2.3v9.2c0,1.2,1,2.3,2.3,2.3h27c1.3,0,2.3-1.1,2.3-2.3v-9.2
		C775,396.5,774,395.4,772.7,395.4z"/>
	<path class="st7" d="M839,395.4h-27.1c-1.2,0-2.2,1.1-2.2,2.3v9.2c0,1.2,1,2.3,2.2,2.3H839c1.2,0,2.3-1.1,2.3-2.3v-9.2
		C841.3,396.5,840.2,395.4,839,395.4z"/>
	<path class="st28" d="M747,445.1l8.3-12.2h-13.5l-23.6,29.6c-0.13,0.13-0.27,0.27-0.4,0.4H735l4.4-6.4h53.3v-11.4H747z"/>
	<path class="st29" d="M866.5,462.5l-23.7-29.6h-13.4l8.2,12.2h-44.9v11.4h52.6l4.3,6.4h17.2
		C866.73,462.77,866.63,462.63,866.5,462.5z"/>
	<path class="st16" d="M831.5,421.7h-0.3h1.6C832.33,421.63,831.9,421.63,831.5,421.7z"/>
	<path class="st20" d="M792.7,432.9v-11.2h-39.3h-1.6h-14.9c-1.3,0-2.3,1.1-2.3,2.3v6.6c0,1.3,1,2.3,2.3,2.3h4.9h13.5H792.7z"/>
	<path class="st18" d="M829.4,432.9h13.4h5c1.3,0,2.3-1,2.3-2.3V424c0-1.2-1-2.3-2.3-2.3h-15h-1.6h-38.5v11.2H829.4z"/>
</g>
<path class="st8" d="M402.6,645.7v125.5h-81.7V645.7H402.6z"/>
<path class="st5" d="M320.9,645.7v125.5h-81.6V645.7H320.9z"/>
<path class="st7" d="M495,754.8h-0.4v14.7c0,0.13-0.03,0.27-0.1,0.4h0.5c1.5,0,2.7-1.2,2.7-2.7v-9.7
	C497.7,756,496.5,754.8,495,754.8z"/>
<path class="st20" d="M493,771.2h-0.1C492.9,771.27,492.93,771.27,493,771.2z"/>
<path class="st30" d="M492.8,753.1h-83.1v-67.9h30.2c24.8,0,51.4,63.6,52.2,65.6C492.37,751.47,492.6,752.23,492.8,753.1z
	 M417.3,741.2v4.8H435v-4.8H417.3z M473.8,733.4c0,0-3.7-9.3-9.8-18.5c-6.3-9.4-15.1-18.8-25.3-18.5H419v37H473.8z"/>
<path class="st20" d="M494.6,754.8v-1.1l-0.8-0.6h-1h-83.1v18.1h83.2h0.1c0.7,0,1.4-0.6,1.5-1.3c0.07-0.13,0.1-0.27,0.1-0.4V754.8z"
	/>
<path class="st21" d="M438.7,696.4H419v18.5h45C457.8,705.5,448.9,696.1,438.7,696.4z"/>
<path class="st31" d="M256,785.3v-4.6h-17.4v15.6H256v-3.9V785.3z"/>
<path class="st7" d="M467.8,802.8h28.7v-10.4h-32.2C466.2,795.5,467.4,799,467.8,802.8z"/>
<path class="st7" d="M326.3,802.8h92.2c0.4-3.8,1.6-7.3,3.5-10.4h-99.2C324.7,795.5,325.9,799,326.3,802.8z"/>
<path class="st7" d="M256,780.7v4.6h31.2c4-3,9-4.7,14.5-4.7c5.4,0,10.4,1.7,14.4,4.7h112.5c4.1-3,9.1-4.7,14.5-4.7
	c5.5,0,10.5,1.7,14.5,4.7h38.9v-10.1H256V780.7z"/>
<path class="st7" d="M256,792.4v3.9v6.5h21c0.4-3.8,1.6-7.3,3.5-10.4H256z"/>
<path class="st32" d="M462.9,799.3c0.6,1.9,0.9,4,0.9,6.1c0,11.4-9.3,20.6-20.7,20.6c-11.3,0-20.6-9.2-20.6-20.6
	c0-2.1,0.3-4.2,0.9-6.1c0.47-1.33,1-2.57,1.6-3.7c1-1.8,2.2-3.4,3.6-4.8c3.7-3.7,8.9-6,14.5-6c5.7,0,10.9,2.3,14.6,6
	c1.4,1.4,2.6,3,3.6,4.8C461.9,796.73,462.43,797.97,462.9,799.3z M430.2,805.4c0,7.2,5.8,13,12.9,13c3.6,0,6.9-1.5,9.2-3.8
	c2.4-2.4,3.8-5.6,3.8-9.2c0-7.2-5.8-13-13-13c-3.5,0-6.8,1.5-9.1,3.8C431.6,798.6,430.2,801.8,430.2,805.4z"/>
<path class="st33" d="M443.1,818.4c3.6,0,6.9-1.5,9.2-3.8L434,796.2c-2.4,2.4-3.8,5.6-3.8,9.2C430.2,812.6,436,818.4,443.1,818.4z"
	/>
<path class="st8" d="M456.1,805.4c0-7.2-5.8-13-13-13c-3.5,0-6.8,1.5-9.1,3.8l18.3,18.4C454.7,812.2,456.1,809,456.1,805.4z"/>
<path class="st31" d="M435,741.2v4.8h-17.7v-4.8H435z"/>
<path class="st15" d="M419,714.9v18.5h54.8c0,0-3.7-9.3-9.8-18.5H419z"/>
<path class="st29" d="M256,785.3v7.1h24.5c1.7-2.8,4-5.2,6.7-7.1H256z"/>
<path class="st29" d="M322.8,792.4H422c1.7-2.8,4-5.2,6.6-7.1H316.1C318.8,787.2,321.1,789.6,322.8,792.4z"/>
<path class="st29" d="M464.3,792.4h32.2v-7.1h-38.9C460.3,787.2,462.6,789.6,464.3,792.4z"/>
<path class="st32" d="M321.4,799.3c0.6,1.9,0.9,4,0.9,6.1c0,11.4-9.3,20.6-20.7,20.6c-11.3,0-20.6-9.2-20.6-20.6
	c0-2.1,0.3-4.2,0.9-6.1c0.47-1.33,1-2.57,1.6-3.7c1-1.8,2.2-3.4,3.6-4.8c3.7-3.7,8.9-6,14.5-6c5.7,0,10.9,2.3,14.6,6
	c1.4,1.4,2.6,3,3.6,4.8C320.4,796.73,320.93,797.97,321.4,799.3z M288.7,805.4c0,7.2,5.8,13,12.9,13c3.6,0,6.9-1.5,9.2-3.8
	c2.4-2.4,3.8-5.6,3.8-9.2c0-7.2-5.8-13-13-13c-3.5,0-6.8,1.5-9.1,3.8C290.1,798.6,288.7,801.8,288.7,805.4z"/>
<path class="st33" d="M301.6,818.4c3.6,0,6.9-1.5,9.2-3.8l-18.3-18.4c-2.4,2.4-3.8,5.6-3.8,9.2C288.7,812.6,294.5,818.4,301.6,818.4
	z"/>
<path class="st8" d="M314.6,805.4c0-7.2-5.8-13-13-13c-3.5,0-6.8,1.5-9.1,3.8l18.3,18.4C313.2,812.2,314.6,809,314.6,805.4z"/>
<path class="st29" d="M357.4,721.2c-1.6,0-3.2-0.13-4.8-0.4c-6.2-1.2-11.6-4.6-15.2-9.6c-3.5-4.9-4.7-10.9-3.5-16.7
	c1.8-8.1,8.3-14.5,16.7-16.9l-3.9,2.9c-1.2,0.9-1.6,2.4-0.8,3.6c0.3,0.4,0.8,0.8,1.4,1c0.2,0.07,0.4,0.1,0.6,0.1
	c0.7,0.1,1.4-0.1,2-0.5l11.5-8.5c0.7-0.5,1.1-1.4,1-2.2c0-0.9-0.5-1.6-1.3-2l-11.8-6.5c-0.27-0.13-0.57-0.2-0.9-0.2
	c-1-0.2-2,0.3-2.6,1.1c-0.8,1.1-0.5,2.5,0.6,3.2l4.1,2.4c-11.2,2.5-19.9,10.7-22.3,21.4c-1.6,7.3,0,14.7,4.4,20.8
	c4.4,6.2,11.1,10.4,18.9,11.9c1.93,0.4,3.9,0.6,5.9,0.6c11,0,21.3-5.9,26.4-14.9H377C372.5,717.7,365.2,721.2,357.4,721.2z"/>
<path class="st29" d="M340.5,706.9v2.3h14.9v-3.4H350c-1.1,0-2.6,0.1-3.7,0.2c4.4-4.6,8-8.6,8-12.5c0-4.1-2.7-6.8-7-6.8
	c-3,0-5,1.3-7,3.4l2.2,2.2c1.2-1.3,2.6-2.4,4.3-2.4c2.4,0,3.7,1.5,3.7,3.8C350.5,697.1,346.6,700.9,340.5,706.9z"/>
<path class="st34" d="M357.6,700.8l8.7-13.7h4.8v13.3h2.8v3.1h-2.8v5.7h-3.8v-5.7h-9.7V700.8z M361.5,700.4h5.8v-5
	c0-1.3,0.2-3.3,0.2-4.6h-0.1c-0.6,1.2-1.2,2.3-1.8,3.5L361.5,700.4z"/>
<path class="st29" d="M381.5,695.1c-1.7,0-3,1-4,2.1l0.1-2.7v-5.1h-3v19.7h3v-9.5c1-1.2,1.7-1.7,2.8-1.7c1.4,0,2,0.8,2,3.1v8.1h3
	v-8.6C385.4,697.1,384.2,695.1,381.5,695.1z"/>
<path class="st18" d="M193.8,482.5v30.7h-15.3v-30.7H193.8z"/>
<path class="st20" d="M178.5,482.5v30.7h-15.4v-30.7H178.5z"/>
<path class="st18" d="M155.2,482.5v30.7h-15.4v-30.7H155.2z"/>
<path class="st20" d="M139.8,482.5v30.7h-15.3v-30.7H139.8z"/>
<path class="st18" d="M214,514.1v29.7h-15.3v-29.7H214z"/>
<path class="st20" d="M198.7,514.1v29.7h-15.3v-29.7H198.7z"/>
<path class="st18" d="M175.4,514.1v29.7h-15.3v-29.7H175.4z"/>
<path class="st20" d="M160.1,514.1v29.7h-15.3v-29.7H160.1z"/>
<path class="st18" d="M136.8,514.1v29.7h-15.3v-29.7H136.8z"/>
<path class="st20" d="M121.5,514.1v29.7h-15.3v-29.7H121.5z"/>
<path class="st35" d="M228.3,520.4c0,0-0.03,0-0.1,0h-0.5v-17.5c0-1.9,0.6-3.6,1.7-5c0.1-0.2,0.1-0.3,0.2-0.4h71.6
	c0.1,0.1,0.1,0.2,0.2,0.4c1,1.4,1.6,3.1,1.6,5v17.5H228.3z M286.8,503.5c-0.7,0.9-1.1,2-1.1,3.2c0,1.3,0.5,2.5,1.3,3.4
	c0.9,1,2.2,1.7,3.7,1.7c1.8,0,3.3-0.9,4.2-2.2v-0.1c0.33-0.4,0.57-0.83,0.7-1.3c0.13-0.47,0.2-0.97,0.2-1.5c0-0.7-0.2-1.4-0.5-2
	c-0.2-0.4-0.4-0.8-0.6-1.1c-0.07-0.07-0.17-0.17-0.3-0.3c-0.13-0.13-0.3-0.3-0.5-0.5c-0.4-0.33-0.87-0.6-1.4-0.8
	c-0.6-0.2-1.2-0.3-1.8-0.3c-0.7,0-1.4,0.2-2.1,0.5c-0.2,0.1-0.5,0.2-0.7,0.3c-0.33,0.27-0.63,0.53-0.9,0.8
	C286.93,503.37,286.87,503.43,286.8,503.5z M269.4,504.3c-0.4,0.7-0.7,1.6-0.7,2.4c0,2.8,2.3,5.1,5.1,5.1c1.8,0,3.3-0.9,4.2-2.2
	c0.6-0.9,0.9-1.8,0.9-2.9c0-0.9-0.3-1.7-0.7-2.4c-0.2-0.2-0.3-0.5-0.4-0.7c-0.2-0.27-0.43-0.5-0.7-0.7c0,0-0.03-0.03-0.1-0.1
	c-0.8-0.7-2-1.1-3.2-1.1c-0.6,0-1.2,0.1-1.8,0.3c-0.3,0.2-0.7,0.3-1,0.5C270.3,503,269.7,503.6,269.4,504.3z M252.5,504.3
	c-0.07,0.13-0.13,0.23-0.2,0.3c-0.3,0.7-0.5,1.4-0.5,2.1c0,1.4,0.6,2.7,1.5,3.6c0.9,0.9,2.2,1.5,3.6,1.5c1.3,0,2.5-0.5,3.4-1.3
	c0.33-0.27,0.6-0.6,0.8-1c0.6-0.8,0.9-1.7,0.9-2.8c0-0.8-0.3-1.6-0.6-2.2c-0.2-0.3-0.3-0.6-0.5-0.9c-0.27-0.27-0.53-0.53-0.8-0.8
	c-0.8-0.7-2-1.1-3.2-1.1c-0.7,0-1.4,0.2-2.1,0.5c-0.2,0.1-0.5,0.2-0.7,0.3c-0.33,0.2-0.6,0.43-0.8,0.7
	C252.97,503.53,252.7,503.9,252.5,504.3z M235.6,504.2c-0.4,0.8-0.7,1.6-0.7,2.5c0,2.8,2.3,5.1,5.1,5.1c1.8,0,3.3-0.9,4.2-2.2
	c0.6-0.9,0.9-1.8,0.9-2.9c0-0.8-0.3-1.5-0.6-2.2c-0.2-0.3-0.3-0.6-0.5-0.9c-0.27-0.27-0.53-0.53-0.8-0.8c-0.9-0.7-2-1.1-3.2-1.1
	c-0.7,0-1.3,0.1-1.9,0.4c-0.3,0.1-0.6,0.2-0.9,0.4C236.5,503,236,503.6,235.6,504.2z"/>
<path class="st36" d="M325.3,543.8H222v-17c0-3.5,2.8-6.4,6.2-6.4c0.07,0,0.1,0,0.1,0h89.9c3.9,0,7.1,3.1,7.1,7V543.8z M240.5,532.8
	c0-0.07,0-0.1,0-0.1c0-1.8-0.9-3.3-2.2-4.2c-0.47-0.33-0.93-0.57-1.4-0.7c-0.47-0.13-0.97-0.2-1.5-0.2c-2.8,0-5.1,2.3-5.1,5.1
	c0,1.2,0.5,2.3,1.3,3.2c0.2,0.27,0.43,0.5,0.7,0.7c0,0,0,0.03,0,0.1c0.9,0.6,2,1,3.1,1c0.47,0,0.93-0.07,1.4-0.2
	c0.9-0.2,1.8-0.8,2.4-1.5c0.07-0.07,0.13-0.13,0.2-0.2s0.1-0.13,0.1-0.2c0.07-0.07,0.13-0.13,0.2-0.2c0,0,0.03-0.03,0.1-0.1
	c0-0.07,0-0.13,0-0.2c0.13-0.27,0.27-0.5,0.4-0.7c0-0.07,0.03-0.13,0.1-0.2c0-0.13,0-0.23,0-0.3c0.07-0.13,0.1-0.27,0.1-0.4
	c0,0,0-0.03,0-0.1C240.47,533.2,240.5,533,240.5,532.8z M257.4,532.7c0-0.9-0.2-1.7-0.6-2.4c-0.27-0.47-0.57-0.87-0.9-1.2
	c-0.2-0.2-0.43-0.4-0.7-0.6c-0.4-0.3-0.7-0.4-1.1-0.5c-0.6-0.3-1.1-0.4-1.8-0.4c-1.4,0-2.6,0.6-3.6,1.5c-0.9,0.9-1.5,2.2-1.5,3.6
	c0,1.2,0.5,2.3,1.3,3.2c0.47,0.6,1.03,1.03,1.7,1.3c0.67,0.33,1.37,0.5,2.1,0.5C255.1,537.7,257.4,535.5,257.4,532.7z M274.3,532.7
	c0-1.7-0.8-3.1-2-4.1c-0.07,0-0.13-0.03-0.2-0.1c-0.1-0.1-0.3-0.1-0.4-0.2c-0.7-0.4-1.6-0.7-2.5-0.7c-2.8,0-5,2.3-5,5.1
	c0,1.2,0.4,2.3,1.2,3.2c0.13,0.2,0.3,0.37,0.5,0.5c0.9,0.8,2,1.3,3.3,1.3c0.27,0,0.53,0,0.8,0c0.07,0,0.13-0.03,0.2-0.1
	c0.07,0,0.13,0,0.2,0c0.13,0,0.23-0.03,0.3-0.1c0.13,0,0.27-0.03,0.4-0.1c0,0,0.03,0,0.1,0c0-0.07,0.03-0.1,0.1-0.1
	c0.13-0.07,0.23-0.13,0.3-0.2c0.13-0.07,0.23-0.1,0.3-0.1c0.13-0.13,0.27-0.23,0.4-0.3c0.07-0.07,0.1-0.1,0.1-0.1
	c0.2-0.2,0.4-0.4,0.6-0.6c0.07-0.07,0.17-0.13,0.3-0.2c0-0.07,0-0.13,0-0.2c0.07,0,0.1,0,0.1,0c0-0.07,0-0.1,0-0.1
	c0.13-0.13,0.23-0.27,0.3-0.4c0.07-0.13,0.1-0.23,0.1-0.3c0.07-0.13,0.13-0.23,0.2-0.3c0-0.07,0-0.13,0-0.2
	c0.07-0.13,0.13-0.27,0.2-0.4c0-0.07,0-0.13,0-0.2c0,0,0-0.03,0-0.1l0.1-0.3C274.3,533.1,274.3,532.9,274.3,532.7z M291.2,532.7
	c0-0.9-0.2-1.7-0.6-2.4c-0.4-0.8-0.9-1.4-1.6-1.8c-0.8-0.6-1.8-0.9-2.9-0.9c-1.5,0-2.8,0.7-3.7,1.7c-0.8,0.9-1.3,2.1-1.3,3.4
	c0,1.2,0.4,2.3,1.2,3.2c0.2,0.27,0.47,0.53,0.8,0.8c0.47,0.4,1.03,0.67,1.7,0.8c0.4,0.13,0.83,0.2,1.3,0.2
	C288.9,537.7,291.2,535.5,291.2,532.7z M308.1,532.7c0-0.47-0.03-0.9-0.1-1.3c-0.13-0.4-0.3-0.77-0.5-1.1c-0.3-0.6-0.7-1-1.2-1.4
	c-0.1-0.2-0.2-0.3-0.4-0.4c-0.2-0.2-0.4-0.2-0.6-0.3c-0.7-0.4-1.4-0.6-2.2-0.6c-2.9,0-5.1,2.3-5.1,5.1c0,1.2,0.4,2.3,1.2,3.2
	c0.2,0.27,0.4,0.5,0.6,0.7c0.9,0.7,2,1.1,3.2,1.1h0.1C305.9,537.7,308.1,535.5,308.1,532.7z"/>
<path class="st18" d="M333.3,543.8h-8H222v9.8h115.1l1-3.5C339.2,546.7,337,543.8,333.3,543.8z"/>
<path class="st20" d="M222,543.8h-0.1h-3.3H214h-15.3h-15.3h-8h-15.3h-15.3h-8h-15.3h-15.3H101c-3.7,0-4.8,2.9-2.5,6.3l2.4,3.5H222
	V543.8z"/>
<path class="st20" d="M118.6,579.8l20.5,30.2c1.3,1.9,4.6,3.5,7.3,3.5l75.6-0.1v-33.6H118.6z"/>
<path class="st18" d="M222,613.4l92.4-0.1c2.7,0,5.3-1.6,5.9-3.5l9-30H222V613.4z"/>
<path class="st20" d="M222,561.8H106.5l6.7,10H222V561.8z"/>
<path class="st18" d="M222,571.8h109.6l3-10H222V571.8z"/>
<path class="st7" d="M222,561.8h112.6l2.5-8.2H222V561.8z"/>
<path class="st6" d="M222,553.6H100.9l5.6,8.2H222V553.6z"/>
<path class="st6" d="M222,571.8H113.2l5.4,8H222V571.8z"/>
<path class="st7" d="M222,579.8h107.3l2.3-8H222V579.8z"/>
<path class="st18" d="M240,511.8c1.8,0,3.3-0.9,4.2-2.3c0.6-0.8,0.9-1.7,0.9-2.8c0-0.8-0.3-1.5-0.7-2.2c-0.1-0.3-0.2-0.6-0.4-0.9
	c-0.27-0.27-0.53-0.53-0.8-0.8c-0.9-0.7-2-1.1-3.2-1.1c-0.7,0-1.3,0.1-1.9,0.4c-0.3,0.1-0.6,0.2-0.9,0.4c-0.7,0.5-1.2,1.1-1.6,1.7
	c-0.4,0.8-0.7,1.6-0.7,2.5C234.9,509.5,237.2,511.8,240,511.8z"/>
<path class="st18" d="M252.3,504.6c-0.3,0.7-0.5,1.4-0.5,2.1c0,1.4,0.6,2.7,1.5,3.6c0.9,0.9,2.2,1.5,3.6,1.5c1.3,0,2.5-0.5,3.4-1.3
	c0.33-0.27,0.6-0.6,0.8-1c0.6-0.8,0.9-1.7,0.9-2.8c0-0.8-0.3-1.6-0.7-2.2c-0.1-0.3-0.2-0.6-0.4-0.9c-0.27-0.27-0.53-0.53-0.8-0.8
	c-0.9-0.7-2-1.1-3.2-1.1c-0.7,0-1.4,0.2-2.1,0.5c-0.2,0.1-0.5,0.2-0.7,0.3c-0.33,0.2-0.6,0.43-0.8,0.7c-0.33,0.33-0.6,0.7-0.8,1.1
	h-0.1C252.4,504.43,252.37,504.53,252.3,504.6z"/>
<path class="st18" d="M273.8,511.8c1.8,0,3.3-0.9,4.2-2.3c0.6-0.8,0.9-1.7,0.9-2.8c0-0.9-0.3-1.7-0.7-2.4c-0.2-0.2-0.3-0.5-0.4-0.7
	c-0.2-0.27-0.43-0.5-0.7-0.7c0,0-0.03-0.03-0.1-0.1c-0.8-0.7-2-1.1-3.2-1.1c-0.6,0-1.2,0.1-1.8,0.3c-0.4,0.2-0.7,0.3-1,0.5
	c-0.7,0.5-1.3,1.1-1.6,1.8c-0.4,0.7-0.7,1.6-0.7,2.4C268.7,509.5,271,511.8,273.8,511.8z"/>
<path class="st18" d="M287,510.1c0.9,1,2.2,1.7,3.7,1.7c1.8,0,3.3-0.9,4.2-2.2v-0.1c0.27-0.4,0.5-0.83,0.7-1.3
	c0.13-0.47,0.2-0.97,0.2-1.5c0-0.7-0.2-1.4-0.5-2c-0.2-0.4-0.4-0.8-0.6-1.1c-0.07-0.07-0.17-0.17-0.3-0.3
	c-0.13-0.13-0.3-0.3-0.5-0.5c-0.4-0.33-0.87-0.6-1.4-0.8c-0.6-0.2-1.2-0.3-1.8-0.3c-0.7,0-1.4,0.2-2.1,0.5c-0.2,0.1-0.5,0.2-0.7,0.3
	c-0.33,0.27-0.63,0.53-0.9,0.8c-0.07,0.07-0.13,0.13-0.2,0.2c-0.7,0.9-1.2,2-1.2,3.2C285.6,508,286.2,509.2,287,510.1z"/>
<path class="st18" d="M238.3,528.4c-0.47-0.27-0.93-0.47-1.4-0.6c-0.47-0.13-0.97-0.2-1.5-0.2c-2.8,0-5.1,2.2-5.1,5
	c0,1.3,0.5,2.4,1.3,3.3c0.2,0.27,0.43,0.5,0.7,0.7c0.9,0.7,2,1.1,3.1,1.1c0.47,0,0.93-0.07,1.4-0.2c0.9-0.3,1.8-0.8,2.4-1.5
	c0.13-0.13,0.23-0.27,0.3-0.4c0.07-0.07,0.13-0.13,0.2-0.2c0.07-0.13,0.1-0.23,0.1-0.3c0.13-0.27,0.27-0.53,0.4-0.8
	c0.07-0.13,0.1-0.3,0.1-0.5c0.07-0.07,0.1-0.17,0.1-0.3c0.07-0.27,0.1-0.53,0.1-0.8c0,0,0-0.03,0-0.1
	C240.5,530.9,239.6,529.3,238.3,528.4z"/>
<path class="st18" d="M257.4,532.6c0-0.8-0.2-1.7-0.6-2.4c-0.27-0.4-0.57-0.77-0.9-1.1c-0.2-0.27-0.43-0.5-0.7-0.7
	c-0.4-0.2-0.7-0.3-1.1-0.5c-0.6-0.2-1.1-0.3-1.8-0.3c-1.4,0-2.6,0.5-3.6,1.4c-0.9,1-1.4,2.2-1.4,3.6c0,1.3,0.4,2.4,1.2,3.3
	c0.47,0.53,1.03,0.97,1.7,1.3c0.67,0.33,1.37,0.5,2.1,0.5C255.1,537.7,257.4,535.4,257.4,532.6z"/>
<path class="st18" d="M272.3,528.6c-0.07-0.07-0.13-0.13-0.2-0.2c-0.1-0.1-0.3-0.1-0.4-0.2c-0.7-0.4-1.6-0.6-2.5-0.6
	c-2.8,0-5,2.2-5,5c0,1.3,0.4,2.4,1.2,3.3c0.13,0.2,0.3,0.37,0.5,0.5c0.9,0.8,2,1.3,3.3,1.3c0.33,0,0.67-0.03,1-0.1
	c0.07,0,0.13-0.03,0.2-0.1c0.27,0,0.53-0.07,0.8-0.2c0,0,0.03-0.03,0.1-0.1c0.2-0.07,0.4-0.17,0.6-0.3c0.13-0.07,0.27-0.17,0.4-0.3
	c0,0,0.03,0,0.1,0c0.2-0.2,0.4-0.4,0.6-0.6c0.13-0.13,0.27-0.27,0.4-0.4c0-0.07,0-0.1,0-0.1c0.2-0.27,0.33-0.53,0.4-0.8
	c0.07-0.07,0.13-0.13,0.2-0.2c0.07-0.27,0.13-0.53,0.2-0.8c0-0.07,0-0.1,0-0.1c0.07-0.27,0.1-0.57,0.1-0.9c0-0.07,0-0.1,0-0.1
	C274.3,531,273.5,529.5,272.3,528.6z"/>
<path class="st18" d="M291.2,532.6c0-0.8-0.2-1.7-0.6-2.4s-0.9-1.3-1.6-1.8c-0.8-0.5-1.8-0.8-2.9-0.8c-1.5,0-2.8,0.6-3.7,1.7
	c-0.8,0.9-1.3,2-1.3,3.3c0,1.3,0.4,2.4,1.2,3.3c0.2,0.27,0.47,0.5,0.8,0.7c0.47,0.4,1.03,0.7,1.7,0.9c0.4,0.13,0.83,0.2,1.3,0.2
	C288.9,537.7,291.2,535.4,291.2,532.6z"/>
<path class="st18" d="M307.5,530.2c-0.3-0.5-0.7-1-1.2-1.4c-0.1-0.1-0.2-0.3-0.4-0.4c-0.2-0.1-0.4-0.2-0.6-0.3
	c-0.7-0.3-1.4-0.5-2.2-0.5c-2.9,0-5.1,2.2-5.1,5c0,1.3,0.4,2.4,1.2,3.3c0.2,0.2,0.4,0.4,0.6,0.6c0.9,0.7,2,1.2,3.3,1.2
	c2.8,0,5-2.3,5-5.1c0-0.4-0.03-0.8-0.1-1.2C307.87,531,307.7,530.6,307.5,530.2z"/>
<path class="st37" d="M290.5,468.2v3.1h-18.8v-3.1H290.5z"/>
<path class="st37" d="M290.5,461.7v3.2h-18.8v-3.2H290.5z"/>
<path class="st38" d="M290.5,456.2c0-1.5-1.2-2.6-2.6-2.6h-13.6c-1.5,0-2.6,1.1-2.6,2.6v2.2h18.8V456.2z"/>
<path class="st38" d="M290.5,474.7v19.4h-18.8v-19.4H290.5z"/>
<path class="st7" d="M290.5,458.4v3.3h-18.8v-3.3H290.5z"/>
<path class="st7" d="M290.5,464.9v3.3h-18.8v-3.3H290.5z"/>
<path class="st7" d="M290.5,471.3v3.4h-18.8v-3.4H290.5z"/>
<path class="st7" d="M294.2,494.1h-3.7h-18.8h-35.1c-2.8,0-5.4,1.3-7,3.4h71.6C299.5,495.4,297,494.1,294.2,494.1z"/>
<path class="st31" d="M401.4,427.8c0,0-14.8,5.1-31.1-5.3c2.3-21.1,3.4-29.5,3.4-29.5s19.5,0.2,31.3,3.6
	C406,411.7,401.4,427.8,401.4,427.8z"/>
<path class="st33" d="M395.8,411.3c-1,8.6,1.5,16,5.6,16.5c4.1,0.4,8.2-6.1,9.2-14.7s-1.5-16-5.6-16.5
	C400.9,396.2,396.7,402.7,395.8,411.3z"/>
<path class="st7" d="M337.2,202.3l1.2,5.9l44.3,53.8c1.47-1.27,2.93-2.5,4.4-3.7L337.2,202.3z"/>
<path class="st20" d="M424.7,233.7l-62.8-35c-3.1-1.9-6.6-2.3-10.1-1.2l-14.6,4.8l49.9,56C399.3,248.4,411.7,239.6,424.7,233.7z"/>
<path class="st31" d="M434.3,379.8c0,0-11.3,3.9-23.8-4c1.8-16.1,2.6-22.5,2.6-22.5s15,0.1,23.9,2.7
	C437.8,367.6,434.3,379.8,434.3,379.8z"/>
<path class="st33" d="M430,367.3c-0.8,6.6,1.2,12.2,4.3,12.5c3.2,0.4,6.3-4.6,7.1-11.2c0.7-6.6-1.2-12.2-4.4-12.6
	C433.9,355.7,430.8,360.7,430,367.3z"/>
<path class="st6" d="M424.7,233.7c-13,5.9-25.4,14.7-37.6,24.6c-1.47,1.2-2.93,2.43-4.4,3.7c-0.27,0.2-0.57,0.47-0.9,0.8
	c18.4,0.7,55.6-4.3,96.6-33.4C459.2,223.3,441.5,226,424.7,233.7z"/>
<path class="st7" d="M524.1,243.7l-20-2.3c-3.6-0.4-7.1-1.7-10.2-3.8c-0.2-0.13-0.43-0.3-0.7-0.5c-0.67-0.4-1.37-0.83-2.1-1.3
	c-2.3-1.4-5.2-3.1-8.9-5.1c-1.27-0.47-2.53-0.9-3.8-1.3c-41,29.1-78.2,34.1-96.6,33.4c-10.6,8.5-66.8,49.3-95.9,56.4
	c-17.2-0.4-45-21.7-64.4-37.5l-19.2,2.4c1.73,2.33,3.57,4.7,5.5,7.1c0.07,0,0.1,0.03,0.1,0.1c0.73,0.87,1.47,1.77,2.2,2.7
	c0.07,0.07,0.17,0.17,0.3,0.3c0.67,0.8,1.37,1.63,2.1,2.5c0.13,0.13,0.27,0.3,0.4,0.5c0.73,0.73,1.43,1.5,2.1,2.3
	c0.2,0.27,0.4,0.5,0.6,0.7c0.67,0.73,1.33,1.43,2,2.1c0.27,0.33,0.53,0.63,0.8,0.9c0.67,0.67,1.3,1.33,1.9,2
	c0.33,0.33,0.67,0.63,1,0.9c0.6,0.67,1.2,1.3,1.8,1.9c0.4,0.33,0.77,0.7,1.1,1.1c0.6,0.53,1.2,1.1,1.8,1.7
	c0.47,0.4,0.9,0.77,1.3,1.1c0.53,0.53,1.1,1.07,1.7,1.6c0.47,0.47,0.97,0.9,1.5,1.3c0.53,0.47,1.07,0.93,1.6,1.4
	c0.53,0.47,1.07,0.9,1.6,1.3c0.53,0.47,1.07,0.93,1.6,1.4c0.53,0.4,1.1,0.83,1.7,1.3c0.53,0.4,1.07,0.83,1.6,1.3
	c0.6,0.4,1.2,0.83,1.8,1.3c0.53,0.4,1.07,0.8,1.6,1.2c0.6,0.4,1.23,0.83,1.9,1.3c0.47,0.33,0.97,0.7,1.5,1.1
	c0.67,0.4,1.33,0.83,2,1.3c0.53,0.33,1.07,0.67,1.6,1c0.67,0.4,1.37,0.8,2.1,1.2c0.53,0.33,1.07,0.67,1.6,1
	c0.67,0.4,1.37,0.8,2.1,1.2c0.53,0.27,1.07,0.53,1.6,0.8c0.73,0.4,1.47,0.8,2.2,1.2c0.53,0.27,1.07,0.53,1.6,0.8
	c0.8,0.33,1.57,0.67,2.3,1c0.53,0.27,1.1,0.53,1.7,0.8c0.73,0.33,1.5,0.63,2.3,0.9c0.53,0.27,1.1,0.5,1.7,0.7
	c0.8,0.27,1.6,0.57,2.4,0.9c0.53,0.2,1.1,0.4,1.7,0.6c0.8,0.27,1.67,0.53,2.6,0.8c0.47,0.13,0.97,0.27,1.5,0.4
	c0.93,0.27,1.87,0.53,2.8,0.8c0.47,0.13,0.97,0.27,1.5,0.4c1.4,0.33,2.83,0.63,4.3,0.9c15.7,2.8,32.9,1.7,51.6-5.5
	c32.5-12.6,64.3-22.8,93.2-32.9c5.8-2,11.47-4,17-6c1.47-0.53,2.9-1.07,4.3-1.6c1.33-0.47,2.63-0.93,3.9-1.4
	c16.2-6.1,31-12.3,43.9-19c1.87-1,3.7-2,5.5-3c0.27-0.13,0.53-0.3,0.8-0.5c1.6-0.87,3.13-1.73,4.6-2.6c0.47-0.33,0.93-0.63,1.4-0.9
	c1.3-0.8,2.4-1.5,3.6-2.3c0.7-0.5,1.4-0.9,2.1-1.4c0.9-0.6,1.8-1.3,2.7-1.9c0.8-0.6,1.7-1.2,2.6-1.8c0.7-0.6,1.3-1.1,2-1.7
	c1-0.8,1.9-1.5,2.9-2.3c0.5-0.4,1-0.9,1.5-1.4c1-0.9,2-1.8,3-2.7c0.4-0.4,0.7-0.8,1.1-1.1c1-1.1,2-2.1,3-3.2
	C532.6,246.4,528.5,244.2,524.1,243.7z"/>
<path class="st6" d="M202.3,284.1l19.2-2.4c-7.3-5.8-13.3-10.9-17.2-13.9c-2.6-1.9-5.6-2.5-8.6-1.6l-4.8,1.5
	c0.13,0.2,0.27,0.4,0.4,0.6c0,0.07,0,0.1,0,0.1C194.3,272.9,198,278.3,202.3,284.1z"/>
<path class="st18" d="M539.3,255.7l-2.3-5.2c-0.3-0.7-1-0.8-1.5-0.3c-0.9,1-1.8,2-2.8,3c-0.4,0.3-0.7,0.7-1.1,1.1
	c-1,0.9-2,1.8-3,2.7c-0.5,0.5-1,1-1.5,1.4c-1,0.8-1.9,1.5-2.9,2.3c-0.7,0.6-1.3,1.1-2,1.7c-0.9,0.6-1.7,1.2-2.6,1.8
	c-0.9,0.6-1.8,1.3-2.7,1.9c-0.7,0.5-1.4,0.9-2.1,1.4c-1.2,0.8-2.3,1.5-3.6,2.3c-0.47,0.27-0.93,0.57-1.4,0.9
	c-1.47,0.87-3,1.73-4.6,2.6c-0.27,0.2-0.53,0.37-0.8,0.5c-1.8,1-3.63,2-5.5,3c-12.9,6.7-27.7,12.9-43.9,19
	c-1.27,0.47-2.57,0.93-3.9,1.4c-1.4,0.53-2.83,1.07-4.3,1.6c-5.53,2-11.2,4-17,6c-28.9,10.1-60.7,20.3-93.2,32.9
	c-18.7,7.2-35.9,8.3-51.6,5.5c-1.47-0.27-2.9-0.57-4.3-0.9c-0.53-0.13-1.03-0.27-1.5-0.4c-0.93-0.27-1.87-0.53-2.8-0.8
	c-0.53-0.13-1.03-0.27-1.5-0.4c-0.93-0.27-1.8-0.53-2.6-0.8c-0.6-0.2-1.17-0.4-1.7-0.6c-0.8-0.33-1.6-0.63-2.4-0.9
	c-0.6-0.2-1.17-0.43-1.7-0.7c-0.8-0.27-1.57-0.57-2.3-0.9c-0.6-0.27-1.17-0.53-1.7-0.8c-0.73-0.33-1.5-0.67-2.3-1
	c-0.53-0.27-1.07-0.53-1.6-0.8c-0.73-0.4-1.47-0.8-2.2-1.2c-0.53-0.27-1.07-0.53-1.6-0.8c-0.73-0.4-1.43-0.8-2.1-1.2
	c-0.53-0.33-1.07-0.67-1.6-1c-0.73-0.4-1.43-0.8-2.1-1.2c-0.53-0.33-1.07-0.67-1.6-1c-0.67-0.47-1.33-0.9-2-1.3
	c-0.53-0.4-1.03-0.77-1.5-1.1c-0.67-0.47-1.3-0.9-1.9-1.3c-0.53-0.4-1.07-0.8-1.6-1.2c-0.6-0.47-1.2-0.9-1.8-1.3
	c-0.53-0.47-1.07-0.9-1.6-1.3c-0.6-0.47-1.17-0.9-1.7-1.3c-0.53-0.47-1.07-0.93-1.6-1.4c-0.53-0.4-1.07-0.83-1.6-1.3
	c-0.53-0.47-1.07-0.93-1.6-1.4c-0.53-0.4-1.03-0.83-1.5-1.3c-0.6-0.53-1.17-1.07-1.7-1.6c-0.4-0.33-0.83-0.7-1.3-1.1
	c-0.6-0.6-1.2-1.17-1.8-1.7c-0.33-0.4-0.7-0.77-1.1-1.1c-0.6-0.6-1.2-1.23-1.8-1.9c-0.33-0.27-0.67-0.57-1-0.9
	c-0.6-0.67-1.23-1.33-1.9-2c-0.27-0.27-0.53-0.57-0.8-0.9c-0.67-0.67-1.33-1.37-2-2.1c-0.2-0.2-0.4-0.43-0.6-0.7
	c-0.67-0.8-1.37-1.57-2.1-2.3c-0.13-0.2-0.27-0.37-0.4-0.5c-0.73-0.87-1.43-1.7-2.1-2.5c-0.13-0.13-0.23-0.23-0.3-0.3
	c-0.73-0.93-1.47-1.83-2.2-2.7c0-0.07-0.03-0.1-0.1-0.1c-1.93-2.4-3.77-4.77-5.5-7.1l-15.6,2c13,17,38,48.3,61.8,70.1
	c10,9.2,19.8,16.6,28.3,20.6c15.9,7.4,37.6,11.6,70,2.5c1.4-0.4,2.8-0.8,4.3-1.2c13.5-4.2,29.4-9.7,48.8-16.6
	c128.8-38.9,136.6-75.9,141-96.4C541.6,261.8,540.5,258.5,539.3,255.7z"/>
<path class="st20" d="M191.3,268.3c-0.3-0.4-0.7-0.5-1.1-0.4l-11.9,3.6c-0.9,0.3-1.3,1.7-0.6,2.6c0,0,3.3,4.6,9,12l15.6-2
	C197.9,278.3,194.3,272.9,191.3,268.3z"/>
<path class="st31" d="M520.6,243.3c-0.1,0.7-0.4,1.4-0.9,2c-14.7,21-33.4,24.4-45.4,24.3c-6.2,0-15.4-4.2-19.2-8.4
	c-0.8-0.9-1.5-2-1.2-3.3c0.2-1.4,1.2-2.4,2.3-2.5c17.5-1.9,29.2-8.5,34.9-19.6c0.73,0.47,1.43,0.9,2.1,1.3
	c0.27,0.2,0.5,0.37,0.7,0.5c3.1,2.1,6.6,3.4,10.2,3.8L520.6,243.3z"/>
<path class="st7" d="M478.5,296.8L362,426.5c-6.3,7.1-14.8,10.2-22.9,8.6l-13.6-2.6l4,5.9l12.2,1.7c7.7,1,15.6-2.1,21.5-8.7
	l118.1-129.1L478.5,296.8z"/>
<path class="st20" d="M478.5,296.8L398,320.9l-72.5,111.6l16,3.1c6.6,1.3,13.5-1.3,18.6-7L478.5,296.8z"/>
<path class="st21" d="M456.3,258.4c13,8.1,30.4,9.1,48.2-3.2l-11.3-18.1C488.8,246,479.1,255.9,456.3,258.4z"/>
<path class="st15" d="M518.2,243l-14.1-1.6c-3.6-0.4-7.1-1.7-10.2-3.8c-0.2-0.13-0.43-0.3-0.7-0.5l11.3,18.1
	C509,252.1,513.6,248.1,518.2,243z"/>
<path class="st31" d="M346.8,379.3c-32.4,9.1-54.1,4.9-70-2.5c-8.5-4-18.3-11.4-28.3-20.6C268.7,351.2,322.4,356.3,346.8,379.3z"/>
<path class="st31" d="M326.1,323l-0.3-2.5c-0.4-4-3.3-6.7-6.5-6l-0.5,0.2c-3.2,0.6-5.5,4.4-5.1,8.4l0.3,3.1l0.3,2.7
	c0.4,4,3.3,6.7,6.5,6l0.5-0.2c3.2-0.7,5.5-4.5,5.1-8.4L326.1,323z"/>
<path class="st31" d="M349.3,314.6l-0.2-1.9c-0.5-3.9-3.4-6.5-6.6-5.7l-1,0.3c-3.2,0.8-5.4,4.6-5,8.6l0.5,3.5l0.4,3
	c0.4,4,3.4,6.6,6.6,5.8l0.9-0.3c3.2-0.8,5.5-4.7,5-8.6L349.3,314.6z"/>
<path class="st31" d="M374,303.9l-0.2-1.3c-0.6-3.9-3.6-6.5-6.8-5.6l-1.4,0.5c-3.2,0.9-5.3,4.8-4.8,8.7l0.5,3.4l0.6,3.9
	c0.5,3.9,3.5,6.5,6.7,5.6l1.4-0.5c3.2-0.9,5.4-4.8,4.9-8.7L374,303.9z"/>
<path class="st31" d="M398.3,292.2l-0.4-2.1c-0.6-4-3.7-6.4-6.8-5.4l-1.9,0.7c-3.2,0.9-5.3,4.9-4.7,8.8l0.7,4.4l0.7,3.7
	c0.5,3.9,3.6,6.3,6.8,5.3l1.9-0.7c3.2-0.9,5.3-4.9,4.7-8.8L398.3,292.2z"/>
<path class="st31" d="M419.7,281.1l-0.8-4.5c-0.7-3.9-3.8-6.2-7-5.2l-2.3,0.9c-3.2,1-5.2,5.1-4.6,8.9l1.3,6.9l0.3,2
	c0.7,3.8,3.8,6.2,7,5.1l2.4-0.8c3.1-1.1,5.2-5.1,4.5-9L419.7,281.1z"/>
<path class="st31" d="M328.2,320c-0.4-4.6-3.3-8.2-7-8.6c-0.73-0.07-1.47-0.03-2.2,0.1c-0.07,0-0.17,0.03-0.3,0.1l-0.3,0.1
	c-4.5,1-7.7,6.3-7.1,12l0.6,5.7c0.4,4.6,3.3,8.1,7,8.6c0.73,0.07,1.47,0.03,2.2-0.1c0.07-0.07,0.17-0.1,0.3-0.1l0.3-0.1
	c4.5-1.1,7.7-6.4,7.1-12L328.2,320z"/>
<path class="st31" d="M351.5,312.2c-0.5-4.5-3.4-8-7.1-8.4c-0.7-0.1-1.5,0-2.5,0.2l-0.7,0.3c-2.2,0.5-4.2,2.1-5.5,4.4
	c-1.3,2.3-1.9,5-1.6,7.8l0.9,6.5c0.5,4.5,3.4,7.9,7,8.3c0.8,0.1,1.6,0.1,2.6-0.2l0.7-0.3c4.5-1,7.7-6.5,7-12.2L351.5,312.2z"/>
<path class="st31" d="M376.2,301.9c-0.6-4.4-3.4-7.7-7-8.1c-0.9-0.1-1.7,0-2.7,0.3l-1.3,0.4c-2.2,0.6-4.1,2.2-5.4,4.6
	c-1.3,2.3-1.8,5.1-1.4,7.8l1.1,7.3c0.6,4.4,3.4,7.6,7,8.1c0.8,0.1,1.7,0,2.7-0.3l1.2-0.4c2.2-0.6,4.1-2.2,5.4-4.6
	c1.3-2.3,1.8-5.1,1.5-7.8L376.2,301.9z"/>
<path class="st31" d="M400.3,289.3c-0.7-4.3-3.5-7.4-7-7.8c-0.9-0.1-1.8,0-2.8,0.3l-1.8,0.6c-2.2,0.7-4,2.3-5.3,4.7
	c-1.2,2.4-1.7,5.1-1.3,7.9l1.4,8c0.6,4.3,3.4,7.4,6.9,7.8c0.9,0.1,1.8,0.1,2.9-0.2l1.7-0.7c2.2-0.6,4.1-2.3,5.3-4.7
	c1.3-2.3,1.8-5.1,1.3-7.9L400.3,289.3z"/>
<path class="st31" d="M421.3,275.8c-0.8-4.2-3.6-7.2-7-7.6c-0.93-0.13-1.9-0.03-2.9,0.3l-2.4,0.8c-2.1,0.8-4,2.5-5.2,4.9
	c-1.2,2.4-1.6,5.2-1.1,7.9l1.6,8.7c0.7,4.2,3.5,7.3,6.9,7.7c1,0.07,2-0.07,3-0.4l2.3-0.8c4.5-1.5,7.3-7.2,6.4-12.7L421.3,275.8z"/>
<path class="st31" d="M445.4,274.5l-2.6-13.3c-0.7-4-3.5-7-6.9-7.4c-1-0.13-2.03,0-3.1,0.4l-2.8,1c-4.5,1.6-7.2,7.4-6.1,12.9
	l2.5,13.2c0.8,4.1,3.6,7.1,6.9,7.4c1.07,0.13,2.1,0.03,3.1-0.3l2.9-1.1c2.1-0.7,3.9-2.5,5.1-5C445.6,279.9,445.9,277.1,445.4,274.5z
	"/>
<path class="st31" d="M443,275.3l-1.1-6.1l-1.4-7.1c-0.8-3.9-4-6.1-7.1-5l-2.8,1c-3.2,1.2-5.1,5.3-4.4,9.1l1.8,9.5l0.8,3.8
	c0.7,3.9,3.9,6.1,7,4.9l2.9-1C441.8,283.3,443.8,279.2,443,275.3z"/>
<path class="st15" d="M320.7,313.1l-0.5,0.2c-3.2,0.7-5.5,4.5-5.1,8.4l0.3,3.1c3-0.6,7-1.6,12.1-3.1l-0.3-2.6
	C326.8,315.1,323.9,312.4,320.7,313.1z"/>
<path class="st21" d="M315.7,327.5c0.3,4,3.3,6.7,6.5,6l0.4-0.2c3.2-0.6,5.6-4.4,5.2-8.4l-0.3-3.2c-5.1,1.5-9.1,2.5-12.1,3.1
	L315.7,327.5z"/>
<path class="st21" d="M338.8,321c0.4,4,3.4,6.6,6.6,5.8l0.9-0.3c3.2-0.8,5.5-4.6,5-8.6l-0.6-4.6c-4.53,1.8-8.63,3.37-12.3,4.7
	L338.8,321z"/>
<path class="st15" d="M343.8,305.6l-0.9,0.3c-3.2,0.8-5.4,4.6-5,8.6l0.5,3.5c3.67-1.33,7.77-2.9,12.3-4.7l-0.3-1.9
	C350,307.4,347,304.8,343.8,305.6z"/>
<path class="st15" d="M368.4,295.6l-1.4,0.5c-3.2,0.9-5.4,4.8-4.8,8.7l0.5,3.4c3.93-1.73,8.13-3.63,12.6-5.7l-0.2-1.3
	C374.6,297.3,371.6,294.8,368.4,295.6z"/>
<path class="st21" d="M363.3,312.1c0.5,4,3.5,6.5,6.7,5.6l1.4-0.5c3.2-0.9,5.4-4.8,4.8-8.7l-0.9-6c-4.47,2.07-8.67,3.97-12.6,5.7
	L363.3,312.1z"/>
<path class="st15" d="M392.4,283.3l-1.9,0.7c-3.1,0.9-5.2,4.9-4.6,8.8l0.7,4.4c4.1-2,8.5-4.1,13-6.4l-0.3-2.1
	C398.7,284.8,395.6,282.4,392.4,283.3z"/>
<path class="st21" d="M387.2,300.9c0.6,3.9,3.7,6.3,6.9,5.4l1.9-0.7c3.1-1,5.2-5,4.6-8.9l-1-5.9c-4.5,2.3-8.9,4.4-13,6.4
	L387.2,300.9z"/>
<path class="st21" d="M408,288.7c0.7,3.9,3.8,6.2,7,5.2l2.3-0.9c3.2-1.1,5.2-5.1,4.6-9l-0.8-4.2c-4.7,2.4-9.1,4.7-13.4,6.9
	L408,288.7z"/>
<path class="st15" d="M413.3,270l-2.4,0.9c-3.1,1-5.2,5.1-4.5,9l1.3,6.8c4.3-2.2,8.7-4.5,13.4-6.9l-0.8-4.6
	C419.6,271.3,416.5,269,413.3,270z"/>
<path class="st21" d="M443.2,267.8c-4.73,2.67-9.33,5.17-13.8,7.5l0.8,3.8c0.7,3.9,3.9,6.1,7,5l2.9-1.1c3.1-1.1,5.1-5.2,4.3-9.1
	L443.2,267.8z"/>
<path class="st15" d="M441.9,260.7c-0.8-3.9-4-6.1-7.1-5l-2.9,1.1c-3.1,1.1-5.1,5.2-4.3,9.1l1.8,9.4c4.47-2.33,9.07-4.83,13.8-7.5
	L441.9,260.7z"/>
<path class="st7" d="M307,359.1l1.7,4.7l-40.3,42.5c-2.7,2.8-6.2,4.3-9.6,3.9c-1.7-0.2-3.3-0.6-4.9-1.4l-6.9-2.2l-1.8-3.9L307,359.1
	z"/>
<path class="st20" d="M307,359.1l-39.7,43.8c-2.4,2.7-5.6,4.2-8.8,4c-1.6-0.1-3.1-0.4-4.2-0.7l-9.1-3.5l33-44.4L307,359.1z"/>
<path class="st5" d="M659.9,248.5c4.67-3,9.57-5.67,14.7-8c-11.2-11.1-44.5-26.8-80.1-29.3c-35.4-3.8-73,5.6-88.4,13.5
	c0.3,0.8,17.8-15.7,51.8-24.5c33.4-8.7,83.3-9.8,131.5,22.6c0.93-5.8,1.63-11.73,2.1-17.8c17,24.3,26,51,29,76.2
	C702.1,262.5,680.4,251.8,659.9,248.5z"/>
</svg>
