<svg width="800" height="800" viewBox="0 0 800 800" fill="none" xmlns="http://www.w3.org/2000/svg">
<path d="M355.005 168.775C494.122 168.786 606.988 283.299 607 424.768L355.005 168.775ZM355.005 168.775C215.877 168.786 103.01 283.298 103 424.769C103.01 566.25 215.878 680.763 355.005 680.775C494.12 680.763 606.988 566.252 607 424.769L355.005 168.775ZM509.665 267.81L509.666 267.811C513.778 271.986 517.587 276.396 521.254 280.752L528.174 288.972H517.429H481.962H478.513L477.288 285.748C470.449 267.75 462.278 251.357 452.943 236.839L459.571 229.761C478.025 239.978 494.898 252.827 509.665 267.81ZM542.49 315.635H545.473L546.89 318.26C561.163 344.701 570.137 374.429 572.752 406.019L573.2 411.431H567.769H505.361H500.562L500.365 406.636C499.134 376.652 495.171 348.076 488.476 321.872L486.882 315.635H493.32H542.49ZM546.866 531.292L545.449 533.915H542.467H493.346H486.903L488.502 527.674C495.226 501.425 499.389 472.921 500.617 442.889L500.814 438.094H505.613H567.771H573.202L572.753 443.506C570.137 475.107 561.163 504.837 546.866 531.292ZM517.415 560.576H528.134L521.246 568.788C517.582 573.157 513.775 577.552 509.666 581.725C494.864 596.758 477.978 609.621 459.457 619.852L452.842 612.758C455.502 608.648 458.068 604.625 460.459 600.359C466.711 589.108 472.315 576.862 477.273 563.801L478.497 560.576H481.948H517.415ZM373.453 645.839L368.05 646.277V640.855V565.576V560.576H373.05H442.894H450.562L447.469 567.592C434.405 597.231 417.365 620.458 399.011 634.303C392.836 638.977 386.618 642.425 380.368 645.033L379.718 645.304L379.017 645.385C377.709 645.536 376.294 645.635 375.032 645.723C374.467 645.763 373.933 645.8 373.453 645.839ZM373.05 533.915H368.05V528.915V443.094V438.094H373.05H469.262H474.488L474.257 443.314C472.878 474.558 468.209 503.986 460.638 530.297L459.597 533.915H455.833H373.05ZM373.05 411.431H368.05V406.431V320.635V315.635H373.05H455.953H459.721L460.76 319.256C468.298 345.546 473.14 374.959 474.521 406.211L474.751 411.431H469.525H373.05ZM373.05 288.974H368.05V283.974V208.694V203.233L373.489 203.713C374.002 203.759 374.611 203.803 375.264 203.851C376.475 203.939 377.837 204.039 379.025 204.175L379.729 204.256L380.383 204.53C386.615 207.135 392.831 210.568 399.01 215.233L399.018 215.239C413.089 225.906 426.458 242.002 437.756 262.353C441.207 268.524 444.372 275.147 447.374 281.957L450.467 288.974H442.799H373.05ZM163.109 318.26L164.526 315.635H167.508H216.667H223.109L221.511 321.875C214.787 348.126 210.624 376.617 209.394 406.636L209.197 411.431H204.398H142.231H136.8L137.248 406.019C139.863 374.429 148.836 344.701 163.109 318.26ZM200.335 267.811L200.337 267.809C215.149 252.789 232.046 239.928 250.537 229.687L257.17 236.757L257.12 236.835C254.482 240.957 251.928 244.948 249.566 249.175C243.3 260.44 237.684 272.687 232.738 285.745L231.515 288.974H228.062H192.572H181.832L188.746 280.755C192.413 276.396 196.222 271.986 200.335 267.811ZM336.522 203.713L341.962 203.233V208.694V283.974V288.974H336.962H267.105H259.432L262.531 281.955C275.605 252.335 292.631 229.08 311.002 215.234C317.181 210.566 323.411 207.134 329.625 204.531L330.281 204.256L330.987 204.175C332.176 204.039 333.537 203.939 334.747 203.851C335.4 203.803 336.009 203.759 336.522 203.713ZM336.962 315.635H341.962V320.635V406.431V411.431H336.962H240.751H235.525L235.756 406.211C237.134 374.991 241.803 345.562 249.362 319.254L250.401 315.635H254.167H336.962ZM310.997 634.301L314.016 630.314L310.997 634.3C296.922 623.643 283.552 607.532 272.244 587.184C268.789 581.02 265.636 574.38 262.629 567.603L259.512 560.576H267.2H336.962H341.962V565.576V640.855V646.281L336.554 645.839C336.069 645.799 335.525 645.761 334.948 645.721C333.695 645.633 332.287 645.534 330.996 645.385L330.293 645.304L329.641 645.031C323.406 642.425 317.175 638.978 310.997 634.301ZM341.962 528.915V533.915H336.962H254.06H250.292L249.253 530.293C241.713 504.004 236.871 474.578 235.492 443.314L235.262 438.094H240.487H336.962H341.962V443.094V528.915ZM257.057 612.698L250.432 619.777C231.975 609.572 215.101 596.734 200.332 581.724C196.222 577.551 192.415 573.156 188.754 568.787L181.873 560.576H192.586H228.051H231.5L232.725 563.8C239.562 581.798 247.734 598.193 257.057 612.698ZM167.534 533.915H164.553L163.135 531.292C148.836 504.837 139.863 475.107 137.248 443.506L136.8 438.094H142.231H204.65H209.449L209.646 442.889C210.877 472.911 214.83 501.485 221.535 527.674L223.133 533.915H216.691H167.534Z" stroke="black" stroke-width="10"/>
<path d="M525.49 663.458C476.337 692.781 422.08 706.716 368.42 706.716C266.986 706.705 168.015 656.874 111.171 566.451C81.069 518.569 66.7659 465.712 66.7659 413.439C66.7782 314.616 117.931 218.236 210.764 162.837L196.265 139.775C94.9132 200.248 38.9769 305.599 39 413.439C38.9877 470.518 54.6705 528.369 87.496 580.574C149.561 679.285 257.72 733.787 368.42 733.775C427.012 733.775 486.398 718.509 540 686.532L525.49 663.47V663.458Z" fill="black"/>
<path d="M349.584 106.727C355.031 121.049 363.93 136.112 371.538 143.93C371.545 143.936 371.551 143.942 371.557 143.948L439.723 214.291L380.477 414.205L380.372 414.558L380.288 414.916C378.75 421.44 378.784 428.233 380.388 434.741C381.992 441.249 385.118 447.281 389.503 452.352L389.744 452.631L390.001 452.896L408.14 471.614C410.665 474.508 413.845 476.755 417.41 478.172C421.16 479.663 425.223 480.192 429.227 479.715C433.231 479.238 437.059 477.767 440.355 475.429C443.488 473.207 446.047 470.266 447.812 466.848L526.551 332.214L540.801 318.627L595.161 374.722L595.42 374.989L595.694 375.241C601.09 380.206 606.921 384.671 613.113 388.586L601.086 425.248L600.975 425.587L600.882 425.931C599.135 432.441 599.012 439.277 600.524 445.846C602.036 452.414 605.134 458.509 609.541 463.61L609.784 463.891L610.042 464.158L615.7 469.996L615.718 470.014L615.735 470.032C621.002 475.426 628.182 478.518 635.704 478.672C643.225 478.825 650.525 476.03 656.009 470.855L656.024 470.84L656.04 470.825L690.823 437.783L690.827 437.779L691.497 437.142L691.503 437.136L691.509 437.13L717.571 412.285L717.973 411.941L718.235 411.717L718.485 411.48L753.269 378.372L753.285 378.357L753.301 378.342C758.749 373.122 761.915 365.954 762.069 358.392C762.224 350.831 759.353 343.54 754.123 338.101L754.093 338.07L754.063 338.039L748.404 332.233L748.17 331.993L747.924 331.765C742.975 327.184 736.984 323.873 730.474 322.106C723.965 320.34 717.122 320.169 710.532 321.607L710.168 321.686L709.809 321.786L672.134 332.3C668.424 325.973 664.137 319.988 659.325 314.421L659.083 314.142L658.826 313.876L604.631 257.952L618.757 244.538L757.796 172.099C761.283 170.508 764.351 168.107 766.732 165.082C769.237 161.899 770.9 158.133 771.555 154.127C772.21 150.121 771.835 146.017 770.468 142.198C769.168 138.568 767.015 135.315 764.203 132.701L746.063 113.983L745.809 113.721L745.541 113.473C740.611 108.927 734.678 105.604 728.227 103.764C721.777 101.924 714.983 101.617 708.393 102.866L708.041 102.933L707.693 103.019L503.442 153.533L435.164 83.0769C427.597 75.268 412.79 65.8524 398.583 59.8766C391.371 56.8427 383.436 54.3136 375.924 53.5387C368.845 52.8084 359.176 53.3613 351.93 60.2143L351.905 60.2384L351.88 60.2626C344.634 67.1896 343.658 76.8324 344.106 83.9382C344.581 91.4554 346.816 99.4497 349.584 106.727Z" fill="#FF9103" stroke="white" stroke-width="26"/>
</svg>
