<svg version="1.2" xmlns="http://www.w3.org/2000/svg" viewBox="0 0 2000 2000" width="2000" height="2000"><style>.a{fill:#eaeff8}.b{fill:#d2ddee}.c{fill:#fff}.d{fill:#c5d8f8}.e{fill:#d2e0f7}.f{fill:#eff4fc}.g{fill:#6191e0}.h{fill:#1e61d1}.i{fill:#a4c5fc}.j{fill:#e1eafa}.k{fill:#fbbc05}.l{fill:#34a853}.m{fill:#4576c6}.n{fill:#3b68b3}.o{fill:#4f7ecc}.p{fill:#f06c61}.q{fill:#d2d3d5}.r{fill:#a9abae}.s{fill:#bbd3fa}.t{fill:#1249a3}.u{fill:none;stroke:#fc7e74;stroke-linecap:round;stroke-linejoin:round;stroke-width:.4}.v{fill:#f2f2f2}.w{fill:#a94037}.x{fill:#99baf2}.y{fill:#dfe9fa}.z{fill:#386abc}.A{fill:#4285f4}.B{fill:#fc7e74}.C{fill:#fbe6a8}.D{fill:#dce9ff}.E{fill:#71a0ed}.F{fill:#87b0f5}.G{fill:none;stroke:#6191e0;stroke-linecap:round;stroke-linejoin:round;stroke-width:.4;stroke-dasharray:0.8699999999999999}.H{fill:#ea4335}</style><path fill-rule="evenodd" class="a" d="m382.2 1511.7c-157-23.2-375.7-311.6-231.7-612.2 144-300.8 410.6-162.6 686.9-558.6 203.6-291.6 695.8-160.3 904.1 205.2 149.8 262.8 294 727.2-122.8 965.5-170.3-5.8-384.9-9.3-618.2-9.3-233.2 0-447.9 3.5-618.3 9.4zm253-1023.3c-106.7 81.2-283.2 144.2-341.8 57.9-43.8-64.5 10.2-185.6 115.8-277.4 105.6-91.7 247-147.1 324.1-79.6 91.4 80.1-15.9 236.7-98.1 299.1z"/><path fill-rule="evenodd" class="b" d="m1000.5 1502.3c553.8 0 1002.7 19.7 1002.7 43.9 0 24.2-448.9 43.9-1002.7 43.9-553.8 0-1002.7-19.7-1002.7-43.9 0-24.2 448.9-43.9 1002.7-43.9z"/><path fill-rule="evenodd" class="c" d="m1323.8 290.1c250.5 55.8 409.8 286.1 425.5 397.3 6.4 45.6-5.5-61.2-133.2-158.5-114.2-86.9-203.1-102.9-338.9-113.5-96-7.4-196.6-19.2-189.4-76.5 5.6-45 74.4-84.8 236-48.8zm-654.8-93.2c43.1 2.7 69.3 38 71.1 78.8 0.7 17.3-12.9-28.1-60.7-34.4-29.6-3.9-34.2 4.8-44.8-7.4-10.4-12.1-0.4-39 34.4-37z"/><path fill-rule="evenodd" class="b" d="m354.5 1401.2c-11.4-14.3-27.5-26.1-32.2-43.9-5.6-20.9 6.6-42.9 3.6-64.3-3.8-27-29.7-44.4-43.9-67.8-13.8-22.8-7.3-30.5-8.5-57-1.9-40.2-34.8-90.9-78.7-77.2-44.5 13.8-37.2 55.2-29.3 86.3 5.6 22.2 1.8 25.3-3.5 47.5-6.6 26.9-27.8 52.9-18.9 78.9 5.4 16.2 21.4 27.1 27.1 43.2 6.6 18.2-1.3 38-4.4 57.1-6.4 40.2 2.8 73.7 32 106.8q4.7 4.5 9.8 8.3c40.9-2.2 87.1-4.4 137.5-6.4l0.4-0.4c26.8-28.8 34.7-79 9-111.1z"/><path fill-rule="evenodd" class="c" d="m215.1 1127.3c-0.7-1.8-2.7-2.8-4.5-2-1.7 0.7-2.7 2.7-2 4.5 3.5 9 6.4 18.5 8.9 28.4-1-0.8-2-1.7-3.1-2.6-4.8-3.9-10.2-7.1-16.3-10-1.8-0.9-3.9-0.2-4.7 1.6-0.8 1.8-0.1 3.9 1.7 4.6 5.5 2.7 10.5 5.7 14.9 9.2 4.1 3.3 7.6 7 10.7 11 4.5 21.5 7.4 44.6 10 68.9-4-6.3-8.4-12-13.1-17.1q-12-13.1-26.7-20.3c-1.7-0.9-3.9-0.1-4.6 1.7-0.9 1.7-0.1 3.8 1.6 4.6 8.9 4.4 17.2 10.7 24.6 18.8 7.4 8 14.2 17.9 20.1 29.6l0.6 6.7c1.5 14.5 3 29.3 4.9 44.5q0 0.2 0 0.4c1.9 15.9 4.1 32.1 6.9 48.5-7.7-11.8-15.8-22.1-24.6-31.1-12.8-13.2-27-23.5-42.3-30.9-1.7-0.8-3.9-0.1-4.6 1.7-0.9 1.7-0.1 3.9 1.6 4.6 14.6 7 28 16.8 40.3 29.5 12.2 12.5 23.3 28 33.2 46 4.4 21.9 9.8 44.1 17.2 66.6v0.2c3.7 11 7.7 22 12.2 33.2q-16-13.7-33.9-23.7c-16.7-9.3-34.5-16.2-53.7-20.6-1.9-0.5-3.7 0.8-4.2 2.7-0.5 1.8 0.7 3.7 2.6 4.2 18.6 4.3 35.7 10.9 51.8 19.8 15.9 8.8 30.6 20 44.2 33.4 3.1 6.9 6.3 13.8 10 20.8l7.8-0.4c-12.5-23.9-22.2-47.7-29.9-71.3-1.4-17.2 0.8-34.4 6.2-51.5 5.5-17.4 14.4-34.7 26.7-52.1 1.1-1.7 0.7-3.8-0.9-4.9-1.6-1.2-3.8-0.8-4.9 0.9-12.8 18-22.1 36.1-27.7 54.1-3.3 10.3-5.3 20.6-6.3 30.9-10.5-38.1-16.4-75.4-20.7-110.9 4.2-15 8.8-27.8 13.8-38.2 5-10.5 10.6-18.5 16.6-24 1.4-1.4 1.5-3.5 0.1-5-1.4-1.4-3.5-1.5-5-0.1q-9.8 9.4-18.1 25.9c-3.4 6.9-6.5 14.8-9.5 23.7-1-9.4-2-18.7-2.9-27.7l-0.8-7.1q0-0.2 0-0.4c-4.8-48.1-9.9-92-24.2-129.3z"/><path fill-rule="evenodd" class="d" d="m236.8 1420c-12.1-6.5-26.9-10-35.5-20.9-10-12.9-8-31.9-16.5-45.9-10.7-17.7-33.9-22.1-50.6-34.2-16.3-11.7-14.1-19-22.9-37.2-13.2-27.4-51.2-52.9-77.7-30.5-26.9 22.8-9.5 49.4 5.2 68.9 10.4 13.8 8.9 17 11.6 34.1 3.4 20.6-3.6 44.9 10.3 60.6 8.7 9.6 22.9 12.5 31.6 22.1 9.9 10.7 10.3 26.8 13.8 41 4.8 18.8 13 34 26 46.3 35.1-2.7 76.3-5.2 122.8-7.4 3.5-5.2 6.5-10.7 8.5-16.6 10.2-28.2 0.8-65.5-26.6-80.3z"/><path fill-rule="evenodd" class="c" d="m58.5 1270.6c-1-1-2.8-1.1-3.8-0.1-1 1-1.1 2.8-0.1 3.8 5.1 5.2 9.9 11 14.7 17.2-1-0.4-2-0.7-3.1-0.9-4.5-1.3-9.2-2-14.2-2.2-1.6 0-2.8 1.2-2.8 2.6 0 1.5 1.1 2.7 2.5 2.7 4.6 0.1 9 0.9 13 2 3.9 1.1 7.4 2.7 10.8 4.5 9.6 13.7 18.3 28.9 27.5 45.1-4.8-3.3-9.4-5.9-14.2-8.1-8.1-3.7-16.4-5.7-24.6-6.2-1.5-0.2-2.7 1-2.7 2.5-0.1 1.5 1 2.7 2.5 2.7 7.5 0.4 15.2 2.4 22.7 5.8 7.5 3.4 15.2 8.3 22.7 14.7l2.4 4.4c5.4 9.6 10.8 19.5 16.5 29.6 0 0.1 0.2 0.2 0.2 0.2 6 10.6 12.4 21.1 19.2 31.8-8.8-5.9-17.6-10.7-26.4-14.5-12.8-5.4-25.7-8.4-38.5-9-1.5-0.1-2.8 1-2.8 2.5-0.1 1.5 1.2 2.8 2.6 2.8 12.1 0.6 24.4 3.4 36.7 8.5 12.3 5.1 24.5 12.5 36.8 22.2 9.5 13.9 19.9 27.8 31.7 41.3 5.8 6.6 11.9 13.1 18.3 19.5-10.2-3.2-20.3-5.4-30.6-6.4-14.3-1.5-28.8-1-43.5 1.7-1.5 0.2-2.4 1.6-2.2 3.1 0.3 1.5 1.7 2.4 3.2 2.1 14.2-2.5 28.2-3 42-1.5q20.5 2.3 40.6 10.2c4.7 4.3 9.4 8.5 14.5 12.5l7.9-0.3c-17.5-14-32.5-28.8-45.9-44.1-6.1-11.5-9.7-24.1-11.1-37.6-1.4-13.7-0.2-28.5 3.2-44.3 0.3-1.4-0.7-2.9-2.1-3.1-1.3-0.3-2.8 0.6-3.1 2-3.5 16.3-4.6 31.6-3.2 45.9 0.7 8.2 2.3 15.9 4.7 23.3-18.7-23.4-33.7-47.6-47.3-71.1-1.6-11.7-2.1-21.9-1.6-30.7 0.5-8.8 1.9-15.9 4.4-21.6 0.6-1.4 0-2.9-1.4-3.5-1.4-0.6-2.9 0-3.5 1.4-2.8 6.2-4.4 14-4.9 23.4-0.2 5.8-0.1 12.3 0.4 19.3-3.5-6.2-6.9-12.4-10.3-18.4l-2.6-4.8c0-0.1-0.2-0.1-0.2-0.2-17.4-31.9-34-61-55-82.7z"/><path fill-rule="evenodd" class="b" d="m1602.2 1387.5c12.4-15.6 29.9-28.4 35.2-47.8 6-22.8-7.3-46.7-4-70.1 4.1-29.3 32.5-48.4 47.9-73.9 15.1-24.8 8-33.2 9.4-62.3 2-43.8 38-99.1 85.8-84.2 48.6 15.1 40.7 60.3 32.1 94.2-6.1 24.3-2.1 27.8 3.8 52 7.1 29.2 30.2 57.5 20.6 86.1-6.1 17.7-23.4 29.6-29.5 47.2-7.2 19.9 1.5 41.5 4.8 62.3 7 43.9-3.1 80.4-34.9 116.7q-5.8 5.5-12.1 10.2c-44.1-2.3-93.3-4.3-146.8-6.2-0.8-0.7-1.5-1.5-2.2-2.2-29.4-32.2-38.2-86.8-10.1-122z"/><path fill-rule="evenodd" class="c" d="m1754.3 1088.8c0.8-2.1 3-3.1 5-2.3 2 0.7 3 3 2.3 5-3.8 9.9-7 20.3-9.7 31.1 1.2-1 2.3-2 3.4-2.9 5.3-4.1 11.2-7.9 17.7-11 1.9-0.9 4.3-0.1 5.1 1.9 0.9 1.9 0.2 4.1-1.8 5.1-6.1 2.9-11.6 6.3-16.2 10.1q-6.8 5.4-11.7 12c-4.9 23.5-8.1 48.7-11 75.1 4.4-6.9 9.1-13.1 14.3-18.5 8.8-9.6 18.4-17 29.1-22.2 1.9-0.9 4.1-0.2 5.1 1.7 0.9 1.9 0.2 4.2-1.7 5.2-9.8 4.9-18.7 11.6-26.9 20.5q-12.2 13.2-21.8 32.4l-0.8 7.1c-1.6 15.9-3.2 32.2-5.2 48.7 0 0.1 0 0.4 0 0.5-2.2 17.3-4.5 35-7.5 53.1 8.2-12.8 17.1-24.1 26.7-34 14-14.4 29.3-25.6 46-33.8 1.9-0.8 4.3-0.1 5.1 1.8 0.9 1.9 0.2 4.3-1.7 5.1-15.9 7.7-30.5 18.4-43.9 32.2-13.3 13.6-25.5 30.4-36.3 50.2-4.7 23.9-10.7 48.2-18.6 72.7v0.1c-3.9 12-8.3 24.1-13.3 36.2 11.6-9.9 23.9-18.5 37-25.8 18.1-10.1 37.7-17.6 58.5-22.4 2-0.5 4.2 0.7 4.7 2.8 0.5 2-0.8 4.2-2.9 4.7-20.2 4.6-39 11.9-56.6 21.7-17.3 9.6-33.3 21.8-48.1 36.4-3.7 8-7.6 16.1-11.7 24.2l-8.5-0.4c14-26.6 24.8-53.2 33.5-79.5 1.3-18.7-0.8-37.4-6.7-56.2-6-19-15.7-38-29.2-57-1.3-1.7-0.9-4.1 0.9-5.4 1.7-1.2 4.1-0.8 5.3 0.9 14 19.7 24.1 39.4 30.3 59.1 3.5 11.2 5.7 22.4 6.8 33.6 11.5-41.5 17.9-82.2 22.5-121q-6.7-24.7-15-41.8c-5.5-11.3-11.6-20.1-18.1-26.2-1.5-1.5-1.6-3.9-0.1-5.4 1.5-1.5 3.9-1.6 5.4-0.1 7.1 6.7 13.7 16.3 19.7 28.3 3.6 7.5 7.1 16.2 10.4 25.8 1.1-10.2 2.1-20.3 3.1-30.2l0.8-7.8q0-0.1 0-0.3c5.2-52.5 10.8-100.4 26.3-141.1z"/><path fill-rule="evenodd" class="d" d="m1730.6 1408.2c13.3-7.1 29.4-10.9 38.6-22.9 11.1-14.1 8.8-34.8 18.1-50.1 11.7-19.2 37-24.1 55.2-37.2 17.8-12.9 15.4-20.8 25-40.7 14.4-29.8 55.8-57.7 84.6-33.2 29.4 24.8 10.4 53.9-5.5 75.1-11.4 15.1-9.7 18.7-12.7 37.3-3.6 22.4 4 49-11.1 66.1-9.4 10.5-25 13.7-34.5 24.1-10.8 11.8-11.3 29.3-15.1 44.7-5.2 20.9-14.4 37.7-28.9 51.1-38.3-2.6-82.8-5-132.5-7.3-4.4-5.9-7.9-12.5-10.4-19.4-10.8-30.7-0.8-71.5 29.2-87.6z"/><path fill-rule="evenodd" class="c" d="m1925.2 1245c1.1-1.1 3-1.1 4.1-0.1 1.1 1.1 1.1 3 0.1 4.2-5.6 5.7-10.9 12-15.9 18.8 1-0.4 2.1-0.8 3.3-1 4.8-1.4 10-2.2 15.5-2.4 1.6-0.1 3 1.1 3 2.7 0 1.7-1.1 2.9-2.7 3.1-5.2 0.2-9.8 0.8-14.3 2.1-4.2 1.1-8.2 2.9-11.7 5-10.4 14.9-20.1 31.5-30 49 5.2-3.5 10.3-6.3 15.4-8.7 8.9-4 18-6.3 26.9-6.9 1.6-0.2 3 1.1 3 2.7 0.1 1.7-1.1 3-2.8 3-8.2 0.5-16.4 2.7-24.8 6.4-8.3 3.8-16.6 9.1-24.8 16.1l-2.7 4.8q-8.6 15.8-18 32.3c0 0.1-0.2 0.3-0.2 0.4-6.5 11.4-13.5 23.1-20.9 34.7 9.5-6.5 19.2-11.6 28.7-15.6 14.1-5.9 28.1-9.2 42-9.8 1.7-0.1 3 1.1 3 2.7 0.2 1.7-1.1 3-2.7 3-13.3 0.7-26.7 3.8-40.1 9.5-13.3 5.6-26.8 13.6-40.2 24.3-10.4 15.2-21.7 30.3-34.6 45-6.3 7.3-12.9 14.3-19.9 21.3 11-3.5 22.2-5.9 33.3-7 15.7-1.6 31.5-1.1 47.4 1.8 1.7 0.2 2.7 1.7 2.4 3.4-0.2 1.6-1.7 2.6-3.4 2.3-15.4-2.7-30.7-3.2-45.8-1.6-14.9 1.6-29.7 5.3-44.2 11.2-5.6 5-11.2 10-17.2 14.9l-8.8-0.4c19.7-15.5 36.6-32.1 51.7-49.3q9.8-19 12-41c1.5-14.9 0.4-31.1-3.4-48.4-0.3-1.5 0.7-3.1 2.3-3.5 1.5-0.4 3.1 0.6 3.5 2.2 3.9 17.9 5 34.7 3.5 50.2-0.9 8.9-2.6 17.3-5.3 25.5 20.4-25.6 36.9-51.9 51.6-77.7q2.6-19.2 1.9-33.5c-0.5-9.5-2.2-17.4-4.8-23.5-0.6-1.5 0-3.2 1.5-3.8 1.5-0.6 3.2 0 3.8 1.5q4.5 10.4 5.3 25.6c0.3 6.4 0.1 13.4-0.4 21.1 3.7-6.8 7.5-13.6 11.1-20.2l2.9-5.2c0-0.1 0.1-0.2 0.1-0.2 19.2-35.4 37.3-67.1 60.3-91z"/><path fill-rule="evenodd" class="c" d="m985.5 510.5c-46.9 3.8-54.1 10.5-57.8 59.8-3.6-49.3-10.9-56-57.8-59.8 46.9-3.8 54.2-10.5 57.8-59.8 3.5 49.1 10.8 55.9 57.8 59.8zm164 102c-25.1 2-29 5.6-30.9 32-1.9-26.4-5.7-30-30.8-32 25.1-2 28.9-5.7 30.8-32 1.9 26.3 5.8 30 30.9 32zm-83.3-202c-25.3 2-29.4 5.8-31.2 32.4-1.9-26.6-5.9-30.4-31.3-32.4 25.4-2 29.4-5.7 31.3-32.3 1.8 26.6 5.9 30.2 31.2 32.3z"/><path fill-rule="evenodd" class="c" d="m858.5 1258.2c2.9 39.9 8.8 45.4 46.8 48.6-38 3.1-43.9 8.5-46.8 48.5-2.9-39.9-8.8-45.4-46.8-48.5 38-3.2 43.9-8.7 46.8-48.6zm-154.7 105.3c1.5 21.3 4.7 24.2 25 25.8-20.3 1.6-23.5 4.6-25 25.8-1.5-21.3-4.6-24.2-24.9-25.8 20.2-1.6 23.3-4.5 24.9-25.8zm67.8-164c1.6 21.6 4.7 24.6 25.3 26.2-20.6 1.7-23.7 4.7-25.3 26.2-1.7-21.5-4.8-24.5-25.4-26.2 20.6-1.7 23.7-4.6 25.4-26.2z"/><path fill-rule="evenodd" class="c" d="m1502.1 1197c-29.1 2.4-33.6 6.5-35.9 37.1-2.3-30.6-6.8-34.7-35.9-37.1 29.1-2.4 33.6-6.5 35.9-37.1 2.3 30.5 6.8 34.7 35.9 37.1zm101.7 63.2c-15.6 1.3-18.1 3.5-19.2 19.8-1.2-16.3-3.6-18.5-19.2-19.8 15.6-1.2 18.1-3.5 19.2-19.8 1.3 16.3 3.6 18.6 19.2 19.8zm-51.6-125.3c-15.8 1.3-18.1 3.5-19.4 20.1-1.3-16.6-3.6-18.8-19.4-20.1 15.8-1.2 18.1-3.5 19.4-20.1 1.1 16.6 3.6 18.9 19.4 20.1z"/><path fill-rule="evenodd" class="e" d="m903.8 615.7c0-209 170-379.1 379-379.1 209.1 0 379.1 170.1 379.1 379.1 0 209.1-170.1 379.1-379.1 379.1-209 0-379-170.1-379-379.1z"/><path fill-rule="evenodd" class="f" d="m1282.9 824.3c-158.1 0-285.9-127.8-285.9-285.9 0-158.2 127.8-286 285.9-286 158.2 0 286 127.8 286 286 0 158.1-127.8 285.9-286 285.9z"/><path fill-rule="evenodd" class="g" d="m1282.8 994.8c-209.1 0-379-170.1-379-379.1 0-209 170-379.1 379-379.1 209.1 0 379.1 170.1 379.1 379.1 0.1 209-170 379.1-379.1 379.1zm350.2-379.1c0-193.6-156.5-350.2-350.2-350.2-193.6 0-350.2 156.6-350.2 350.2 0 193.7 156.6 350.3 350.2 350.3 193.7 0 350.2-156.6 350.2-350.3z"/><path fill-rule="evenodd" class="g" d="m1282.8 994.8c-129.4 0-234-169.5-234-379.1 0-209.7 104.6-379.1 234-379.1 129.5 0 234.1 169.4 234.1 379.1 0 209.6-104.6 379.1-234.1 379.1zm205.1-379.1c0-193.6-91.7-350.2-205.1-350.2-113.5 0-205.2 156.6-205.2 350.2 0 193.7 91.7 350.3 205.2 350.3 113.4 0 205.1-156.6 205.1-350.3z"/><path fill-rule="evenodd" class="g" d="m1282.8 994.8c-69.5 0-87.8-248-87.8-379.1 0-131 18.3-379.1 87.8-379.1 69.5 0 87.8 247.9 87.8 379.1 0 131.1-18.3 379.1-87.8 379.1zm0-729.3c-17.5 0-58.9 119.2-58.9 350.2 0 231.1 41.2 350.3 58.9 350.3 17.6 0 59-119.2 59-350.3 0-231-41.3-350.2-59-350.2z"/><path class="g" d="m1647.6 601.3v28.9h-729.4v-28.9z"/><path fill-rule="evenodd" class="g" d="m1282.8 496.7c-119.3 0-231.8-32.1-300.9-85.9l17.8-22.8c64.2 50 170.1 79.9 283.1 79.9 114.4 0 220.9-30.4 284.9-81.3l17.9 22.6c-68.9 54.8-182.1 87.5-302.8 87.5z"/><path fill-rule="evenodd" class="g" d="m1567.7 844.3c-64.1-50.9-170.6-81.3-284.9-81.3-113 0-218.9 29.9-283.1 79.9l-17.8-22.8c69.1-53.8 181.6-85.9 300.9-85.9 120.7 0 233.8 32.7 302.8 87.5z"/><path fill-rule="evenodd" class="g" d="m1289.5 374.5c-85.8 0-175.6-27.8-181.3-81l28.7-3.1c2.9 26.1 66.3 55.3 152.6 55.3 86.3 0 148.5-28.2 152.5-54.6l28.6 4.3c-7 45.9-83.2 79.1-181.1 79.1z"/><path fill-rule="evenodd" class="g" d="m1131.3 940.5l-28.7-3.1c5.7-53.2 95.6-81.1 181.2-81.1 98 0 174.1 33.3 181 79.2l-28.6 4.2c-4-26.3-66.2-54.5-152.5-54.5-86.2 0-149.6 29.2-152.4 55.3z"/><path fill-rule="evenodd" class="g" d="m589.4 371.5h609.1c18 0 5 55.8 5.5 73.5l32 1049.7c0.9 30.3-34.1 60.8-67.7 60.8h-609.2c-18 0-32.5-14.7-32.4-32.5l3.1-1078c0.2-17.8 41.7-73.5 59.6-73.5z"/><path fill-rule="evenodd" class="h" d="m589.7 369.8h609.1c14.5 0 11.1 30.3 8.5 54-1 8.6-1.7 16.2-1.6 20.9l32 1049.6c0 0.9 0 1.9-0.3 2.9-1.9 9.4-3.4 26.3-16.9 38.3-13.4 12-39.2 19.1-49.1 21.2-1.3 0.3-2.5 0.5-3.6 0.5h-609c-9.4 0-17.8-3.7-23.9-9.9-6.2-6.1-9.9-14.5-9.9-23.9l3.1-1078c0-1 0.1-2.2 0.4-3.5 2-10.2 12-27.2 23.8-42.1 11.9-15.1 25.7-28 35.1-29.8 0.9-0.1 1.7-0.2 2.3-0.2zm608.5 3.5h-609.1c-0.6 0-1.1 0-1.6 0.1-8.2 1.5-21.2 13.8-32.4 28.1-11.5 14.4-21.2 30.9-23.1 40.4-0.3 1-0.4 2-0.4 2.8l-3.1 1077.9c0 8.6 3.5 16.3 9.1 22 5.7 5.6 13.4 9.1 22 9.1h609.1c0.9 0 1.9-0.1 2.9-0.3 9.1-2.1 34-8.8 47-20.2 12.9-11.5 13.8-27.6 15.5-36 0.2-0.8 0.3-1.5 0.3-2.3l-32-1049.6c-0.1-5 0.8-12.7 1.6-21.3 2.4-22.1 5.6-50.7-5.8-50.7z"/><path fill-rule="evenodd" class="i" d="m600.2 371.5h609.2c18 0 32.5 14.7 32.4 32.5l-3.1 1099.9c0 18-14.7 32.5-32.6 32.5h-609.3c-17.8 0-32.5-14.7-32.3-32.5l3.1-1099.9c0.1-17.8 14.8-32.5 32.6-32.5z"/><path fill-rule="evenodd" class="h" d="m600.6 369.8h609.1c9.4 0 17.8 3.7 23.9 9.9 6.2 6.1 10 14.5 10 23.9l-3.2 1099.7c0 2.3-0.2 4.4-0.6 6.5-1.4 6.9-4.8 13.2-9.7 18-4.9 4.7-11.1 8.2-18 9.5-2 0.4-4.2 0.6-6.3 0.6h-609.2c-9.4 0-17.8-3.7-24-9.9-6.1-6.1-9.9-14.7-9.9-23.9l3.1-1099.7c0-2.3 0.3-4.4 0.7-6.5 1.4-6.9 4.7-13.2 9.6-18 4.9-4.7 11.2-8.2 18.1-9.5 2.1-0.4 4.3-0.6 6.4-0.6zm608.5 3.5h-609.1c-1.9 0-3.8 0.1-5.7 0.5-6.1 1.1-11.6 4.1-15.8 8.3-4.2 4.2-7.3 9.6-8.5 15.8-0.4 1.9-0.6 3.9-0.6 5.9l-3.2 1099.6c0 8.6 3.5 16.3 9.2 22 5.6 5.6 13.4 9.1 21.9 9.1h609.1c1.9 0 3.8-0.1 5.7-0.5 6.1-1.1 11.6-4.1 15.8-8.2 4.2-4.3 7.3-9.7 8.5-15.8 0.4-1.9 0.6-3.9 0.6-5.9l3.2-1099.7c0-8.5-3.5-16.3-9.2-22-5.6-5.6-13.4-9.1-21.9-9.1z"/><path fill-rule="evenodd" class="f" d="m637.6 440h527.8c14.4 0 26.4 11.8 26.4 26.4v977.5c0 14.4-11.8 26.3-26.4 26.3h-527.8c-14.4 0-26.3-11.8-26.3-26.3v-977.5c0-14.5 11.7-26.4 26.3-26.4z"/><path fill-rule="evenodd" class="j" d="m1145.2 448.5c14.4 0 26.4 11.8 26.4 26.4v977.5c0 6.9-2.7 13.2-7.1 17.8h0.8c14.4 0 26.3-11.8 26.3-26.3v-977.5c0-14.5-11.8-26.4-26.3-26.4h-527.7c-7.7 0-14.4 3.3-19.3 8.4h526.9z"/><path fill-rule="evenodd" class="e" d="m903.1 430.1c-11.2 0-20.3-9.1-20.3-20.3 0-11.2 9.1-20.3 20.3-20.3 11.3 0 20.4 9.1 20.4 20.3 0 11.2-9.1 20.3-20.4 20.3z"/><path fill-rule="evenodd" class="k" d="m1535.1 1243.2c0 0-1.9 2.2-3 3.6-1.2 1.4-2.6 6.5-1.8 7.4 0.7 0.9 5.3 2.1 5.4-0.5 0.2-2.8-0.6-10.5-0.6-10.5z"/><path fill-rule="evenodd" class="k" d="m1367.2 1222c0 0-4.1 9.4-12 11.3-9.7 2.2-13.9 14.4-13.9 17.3 0 2.7 12.4-6.3 17.3-6.4 4.9-0.2 7.5 2.2 10.8-4.2 3.2-6.5 7.5-12.8 7.5-12.8z"/><path fill-rule="evenodd" class="h" d="m1490.8 1225.9c-4.4 0-8.3-0.9-11.7-2.6-41.9-20.8-3-163.5-3-163.5 0 0 1.8-7.2 9.5-9.9 2.9-1 9.4-0.9 17.1-1.5 25.1-1.9 26.2 12.8 27.1 17.9 1.1 5.1 21.1 159.3-39 159.6z"/><path fill-rule="evenodd" class="h" d="m1479.2 1223.2c-41.9-20.8-3-163.5-3-163.5 0 0 2-6.4 9.6-10 16.1 4.3 19.5 12 20.4 16.5 0.8 5 17.9 137.2-27 157z"/><path fill-rule="evenodd" class="l" d="m1448.4 1542.2c0 0 2.4 18.6-1.9 20.7-4.1 2.1-54.2 1.4-54.2 1.4 0 0 0-6.3 8.7-7.7 8.6-1.4 23.7-6.5 26.3-17.9 2.4-11.3 21.1 3.5 21.1 3.5z"/><path fill-rule="evenodd" class="m" d="m1403.1 1258.1c0 0 2.9 35.2 6.2 77.6 4.5 57.6 9.9 128.3 10.5 141.8 0.9 23.3 4.6 60.4 4.6 60.4 0 0 8.8 8.8 26.5 5.2 0 0 15.8-53.2 20.3-109.4 0.1-0.9 0.1-1.9 0.3-2.8 4.1-57.2 10.6-177.7 10.6-177.7z"/><path fill-rule="evenodd" class="n" d="m1403.1 1258.1c0 0 2.9 35.2 6.2 77.6l61.9 98c0.1-0.9 0.1-1.9 0.3-2.8 4.1-57.2 10.6-177.7 10.6-177.7z"/><path fill-rule="evenodd" class="m" d="m1416 1262.2c0 0 51 127.7 84.4 187.8 33.5 60 44.1 76.8 44.1 76.8 0 0 19.2-7.7 20.9-13 0 0-12.8-115.9-35.2-144.1-12.7-15.9-27.6-63.8-28.3-80.6-0.7-16.8-4.5-50-4.5-50z"/><path fill-rule="evenodd" class="k" d="m1428.7 1075.5c19.9 6.2 54.3-10.7 54.3-10.7 0 0-12.9-9.7-16.5-29.6-0.8-3.9-1.1-8.2-0.9-12.8l-18.6 15.1-7.3 5.7c0 0 0 2 0.4 5.7 0.3 3.6 0.9 9 2 15.6-8.5 4.7-13.4 11-13.4 11z"/><path fill-rule="evenodd" class="g" d="m1367 1233.4c-4.4-3.7-5.4-6.5-5.4-6.5 0 0 36-49.3 39-54.2 3-4.8 25.7-82.1 25.7-82.1l57.3-11.6c0 0-47.9 98.8-55.8 110.9-13.2 19.9-54.3 47-54.3 47 0 0-3.3-0.8-6.5-3.5z"/><path fill-rule="evenodd" class="g" d="m1501.2 1245.2c0.1 1.1-1.3 2.5-2.8 3.5-1.2 0.9-2.7 1.5-3.6 2-4.4 2-8.7 3.7-12.9 5.3-10.2 3.7-20.2 6.4-31.1 7.4-11.7 1.1-24.6 0-34.5-1-5.5-0.7-10.1-1.2-12.9-1.2h-0.4c-0.8 0-1.5-0.2-2.2-0.7-0.3-0.3-0.7-17.7-0.6-41.2 0-3.2 0.1-6.6 0.1-10.1 0-1.2 0-2.4 0.2-3.4v-0.4c0.1-11 0.5-22.6 1-34.1v-0.3c1.1-25.6 3.1-50.1 6.5-63.8 3.1-12.7 15.6-26.9 24.8-36.1 4.3-4.3 9.4-7.4 15.1-9.2 9.9-3.1 25.1-7.1 28.2-4.4 2.4 1.9 4.6 4.3 6.5 7.2 0.2 0.1 0.2 0.1 0.2 0.1h0.1q2.4 3.6 4.5 7.9c2.3 4.6 4.1 9.9 5.9 15.9 4.5 16.1 6.6 36.3 6.6 57.9 0 5.5-0.1 11-0.5 16.6-0.1 1.7-0.1 3.2-0.2 4.7-0.6 13.9-0.6 26.9-0.3 38.2v0.4c0.4 11.5 1 21.2 1.5 28.5 0.4 4.4 0.7 7.9 0.8 10.3z"/><path fill-rule="evenodd" class="o" d="m1500.6 1234.9c-1-15.3-2.9-41.5-1.2-71.8 0.4-5.6 0.5-11.3 0.5-16.6-6.7-16.6-12.4-28.5-12.4-28.5h-17.2c0.2-0.1-12.4 85.8 30.3 116.9z"/><path fill-rule="evenodd" class="p" d="m1439.7 1043.2c0 0 0 2 0.4 5.7 14.8-1.8 26.1-13.2 26.5-13.7l-19.6 2.3z"/><path fill-rule="evenodd" class="k" d="m1433.7 1042.7c0 0 32.9 5.5 36-15 3.1-20.6 9.4-33.6-11.4-38-20.8-4.4-26.1 2.8-28.9 9.4-2.7 6.6-4.2 41.7 4.3 43.6z"/><path fill-rule="evenodd" class="l" d="m1466.6 1035.2c0 0-0.3-10 0.4-14.7 0.5-4.6 0.5-10.6-3.3-9.5-3.8 1.1-4 4.1-5.5 2.4-1.5-1.8-1.7-9.2-12.8-9.8-11.3-0.5-15.8 3.4-21.1 1.1-5.3-2.2-5.5-10.1-5.5-10.1 0 0 1.5 2.8 3.7 3.7 0 0-8.7-11.9 1.4-20.1 6.7-5.3 10.9-3.6 13.8-3 1.8 0.4-7.8 3.2 2.5 1.9 10.9-1.4 23.1-3.1 26 2 2.1 3.9 9 2.8 9.3 6.7 4.2 8.3-0.6 41.2-8.9 49.4z"/><path fill-rule="evenodd" class="g" d="m1542.6 1241.8c-6.2 1.2-12.9 0.7-12.9 0.7 0 0-18.3-56.7-20.7-61.8-2.4-5.1-54.6-62.7-54.6-62.7l33-45.2c0 0 45.2 81.3 50.8 94.6 9.4 21.8 12.8 70.9 12.8 70.9 0 0-3.5 2.5-8.4 3.5z"/><path fill-rule="evenodd" class="h" d="m1499.1 1206v0.4c-9.4-2.1-17.3-6.5-24.2-12.2-12.8-10.4-21.6-25.7-27-41.7-8.5-25-9.2-51.7-4.9-64.9 0.6-1.6 1.2-3.2 2-4.4 1.8-2.9 3.8-5.4 6-7.4 7.2-6.7 16.3-9.4 23.1-10.4 2-0.2 3.8-0.4 5.1-0.4 2.1-0.1 3.4 0 3.8 0h0.1c4.3 1.3 7.6 4.2 4.5 7.9-1.3-0.1-2.5-0.1-3.7-0.1-5.2-0.1-9.7 0.5-13.4 1.9-6.4 2-10.9 5.9-14.2 10.4-9 12.7-7.2 31-7.2 31 0.8 9.5 2.2 18.2 4.2 25.7 4.2 17.3 11.1 29.6 18.2 38.3 13 16.3 27.3 19.8 27.3 19.8 0 0 0.4 1.2 0.5 3.5 0.1 1.4-0.2 2.6-0.2 2.6z"/><path fill-rule="evenodd" class="k" d="m1368.6 1241c0 0-2.6 4.2-5.5 5.3-2.9 1.1-7.4 4.9-7.9 3.9-0.4-1 0.2-2.8 2-4 1.8-1.3 2.3-2.8 1.8-3.7-0.4-1 9.6-1.5 9.6-1.5z"/><path fill-rule="evenodd" class="l" d="m1469 986.5c-1.7-2.4-1.8-4.4-0.4-6.1 3.9-0.8 7 0.1 9.5 2.7-1.9-0.3-4.9 0.8-9.1 3.4z"/><path fill-rule="evenodd" class="l" d="m1464.9 979.4c1.7 1.7 3.2 2.1 4.4 1.1 0.9-3.4 0.4-6.4-1.5-8.9 0.3 1.8-0.7 4.3-2.9 7.8z"/><path fill-rule="evenodd" class="l" d="m1462.8 1009.7c-2-2.9-4-3.6-6-2.5-1.8 4.7-1.6 8.9 0.5 12.9-0.1-2.3 1.7-5.9 5.5-10.4z"/><path fill-rule="evenodd" class="g" d="m1568.9 1347.3l72.9 1.1c10.7 0.1 18.7 8.8 19.4 19.4 4.6 59.6 4.9 109.7 0 162.2-1 10.7-8.7 21.1-19.4 22.1-24.5 2.1-48.8 3.5-72.9 2.6-10.6-0.3-18.8-8.7-19.4-19.4-3.8-55.7-3.7-111.9 0-168.5 0.6-10.7 8.8-19.8 19.4-19.5z"/><path fill-rule="evenodd" class="o" d="m1516.4 1343.8l99.1-0.9c8.9-0.1 29.4 1.9 36.7 8.6-2.9-1.8-6.4-3.1-10.3-3.1l-72.8-1.1c-10.7-0.2-18.9 8.8-19.5 19.4-3.6 56.7-3.8 112.9 0 168.5 0.8 10.6 8.8 19 19.5 19.4 7.1 0.3 14.1 0.4 21.3 0.3-24.5 2.1-58.5-2.4-73.7-6.2-10.4-2.6-18.4-10.1-19.1-20.8-3.8-55.7-4.3-108-0.7-164.7 0.7-10.7 8.7-19.3 19.5-19.4z"/><path fill-rule="evenodd" class="o" d="m1570.3 1367.6c3 0 5.4 2.5 5.4 5.6-0.2 26.1-0.2 52.2-0.2 78.3 0 26.1 0.2 52.2 0.3 78.3 0 3-2.5 5.5-5.5 5.6-3 0-5.5-2.4-5.6-5.5-0.4-26.1-0.8-52.3-0.8-78.4 0-26.1 0.3-52.3 0.8-78.4 0.1-3 2.6-5.5 5.6-5.5zm69 1.5c3 0 5.6 2.5 5.8 5.5 1.2 25.5 2.2 50.8 2.5 76.2 0.2 25.3-0.5 50.8-1.5 76.2-0.2 3-2.8 5.4-5.8 5.5-3 0-5.4-2.4-5.4-5.2 0.8-25.5 1.4-51 1.1-76.4-0.1-25.5-1-50.9-2.1-76.3 0-3 2.4-5.5 5.4-5.5zm-23-0.4c3.1 0.1 5.6 2.7 5.7 5.7 0.7 25.6 1.4 51.1 1.6 76.6 0.1 25.6-0.2 51.1-0.9 76.6-0.1 3.1-2.6 5.6-5.6 5.8-3 0.1-5.5-2.1-5.4-5.1 0.4-25.7 0.6-51.5 0.5-77.2-0.1-25.7-0.6-51.4-1.1-77-0.2-3 2.2-5.5 5.2-5.4zm-23-0.6c3 0.1 5.5 2.6 5.5 5.6 0.2 25.9 0.6 51.7 0.6 77.6 0.1 25.8 0 51.6-0.2 77.5 0 3-2.6 5.6-5.6 5.7-3 0.2-5.5-2.2-5.5-5.2 0-26 0-52-0.1-78-0.1-26-0.1-52-0.3-77.9 0.2-2.9 2.7-5.4 5.6-5.3z"/><path fill-rule="evenodd" class="g" d="m1527.4 1530.9c-3.8-56.3-4.3-109.4-0.6-166.8 0.6-10.8 8.8-19.6 19.4-19.7l81.9-0.8c-5-0.6-9.6-0.8-12.8-0.7l-87 0.7c-7.9 2.4-13.6 10.1-14.2 19.1-3.6 57.7-3.1 111 0.6 167.6 0.8 10.9 8.8 18.5 19.2 21.2 2.2 0.5 4.5 1.1 7.3 1.6 6.5 0.9 13.6 1.5 20.6 1.9-6-1-11.3-2-15.3-3-10.3-2.7-18.3-10.3-19.1-21.1z"/><path fill-rule="evenodd" class="q" d="m1540.6 1268.1v75.4l-7.3 0.1v-75.5zm47.3 0v75l-7.3 0.2v-75.2z"/><path fill-rule="evenodd" class="o" d="m1536.4 1248.2l48.1 1.1c3 0.1 5.5 2.5 5.5 5.5v13.2h-11.9v-2.5c0-3.5-2.9-6.4-6.4-6.4h-21.1c-3.5 0-6.4 2.9-6.4 6.4v2.5h-13.2v-14.3c-0.1-3 2.4-5.5 5.4-5.5z"/><path fill-rule="evenodd" class="r" d="m1580.5 1343.3v-75.2h3.4v75zm-43.9-75.1v75.4h-3.3v-75.4z"/><path fill-rule="evenodd" class="o" d="m1554 1555.7c4.1 0 10.7 0 10.9 11.8 0.3 11.9-6.8 10.9-10.9 10.9-4.1 0-7.4-5.1-7.4-11.4 0-6.2 3.4-11.3 7.4-11.3z"/><path fill-rule="evenodd" class="o" d="m1526.9 1551.7c3.1 0 8.2 0 8.3 9.1 0.1 9-5.2 8.2-8.3 8.2-3.1 0-5.6-3.9-5.6-8.6 0-4.8 2.5-8.7 5.6-8.7z"/><path fill-rule="evenodd" class="o" d="m1608.9 1554.4c0.7 1.1 1 2.7 1 5 0.2 8.1-4.6 7.5-7.4 7.5-2.7 0-5-3.5-5-7.8 0-1.6 0.4-3.1 0.9-4.2 3.4-0.3 7-0.4 10.5-0.5z"/><path fill-rule="evenodd" class="o" d="m1627.1 1553c3.9 0 10.2 0 10.3 11.3 0.1 11.3-6.4 10.4-10.3 10.4-3.9 0-7-4.9-7-10.8 0-6 3.1-10.9 7-10.9z"/><path fill-rule="evenodd" class="g" d="m1554 1573.4c-2.2 0-4-2.8-4-6.2 0-3.5 1.8-6.3 4-6.3 2.2 0 4 2.8 4 6.3 0 3.4-1.8 6.2-4 6.2z"/><path fill-rule="evenodd" class="g" d="m1526.9 1565.3c-1.7 0-3.1-2.2-3.1-4.8 0-2.6 1.4-4.8 3.1-4.8 1.7 0 3.1 2.2 3.1 4.8 0 2.6-1.4 4.8-3.1 4.8z"/><path fill-rule="evenodd" class="g" d="m1602.5 1563.3c-1.5 0-2.7-1.9-2.7-4.3 0-2.4 1.2-4.3 2.7-4.3 1.6 0 2.8 1.9 2.8 4.3 0 2.4-1.2 4.3-2.8 4.3z"/><path fill-rule="evenodd" class="g" d="m1627.1 1569.7c-2.1 0-3.9-2.7-3.9-5.9 0-3.3 1.8-5.9 3.9-5.9 2.2 0 3.9 2.6 3.9 5.9 0 3.2-1.7 5.9-3.9 5.9z"/><path fill-rule="evenodd" class="g" d="m1533.3 1268.2h-2.5v-1.7h12.9v-2.5c0-3.5 2.9-6.4 6.5-6.4h21.4c3.6 0 6.5 2.9 6.5 6.4v1.5c-0.1-3.5-2.9-6.3-6.4-6.3h-21.1c-3.5 0-6.4 2.9-6.4 6.4v2.5h-10.9zm56.7-1.9v1.8h-11.9v-1.8z"/><path fill-rule="evenodd" class="k" d="m1535.1 1242.5q0.1 1.9-0.4 3.8c-1.4 4.5-2.4 13.4 8.1 19.8 0 0 6.4 3.2 7.4-1.7 1-5.1-0.1-3.2 1.5-10.2 1.4-6.1-1.7-9.9-3.8-14-1.4 0.6-3.3 1.3-5.3 1.7-2.5 0.4-5.3 0.5-7.5 0.6z"/><path fill-rule="evenodd" class="s" d="m1444.8 1014.9c-0.9 0-1.7-1-1.7-2.2 0-1.1 0.8-2.1 1.7-2.1 0.9 0 1.6 1 1.6 2.1 0 1.2-0.7 2.2-1.6 2.2z"/><path fill-rule="evenodd" class="t" d="m1445 1014.7c0.9-0.1 1.5-1.1 1.5-2.3-0.1-1.2-0.9-2-1.7-1.9-0.4 0-0.8 0.2-1.1 0.6h0.2c0.2 0 0.5 0.3 0.6 0.6 0 0.4-0.1 0.8-0.5 0.8-0.3 0-0.5-0.3-0.6-0.6v-0.2c-0.2 0.4-0.2 0.8-0.2 1.2 0 1.2 0.9 2 1.8 1.8z"/><path fill-rule="evenodd" class="t" d="m1441.7 1009.2c-0.1-0.1 0.2-0.3 0.3-0.5-0.1 0.2-0.1 0.2-0.3 0.3-0.1 0.1-0.1 0.2-0.2 0.4q0-0.2 0-0.4c-0.1 0.1-0.1 0.2-0.1 0.4 0-0.4 0-0.4 0.1-0.8-0.1 0.1-0.3 0.5-0.4 0.8q0-0.2 0-0.4c-0.1 0.1-0.1 0.2-0.1 0.4l-0.1-0.2c0 0.2 0 0.2 0.1 0.3-0.3-0.1-0.6-0.8-0.5-1 0 0.1 0.1 0.4 0.2 0.4 0-0.3-0.1-0.4-0.1-0.7 0 0.2 0 0.4 0.1 0.5 0 0.2 0.2 0.4 0.3 0.5-0.1-0.3-0.1-0.6-0.1-1v0.2c0 0.1 0 0.3 0 0.5 0-0.4 0-0.7 0.2-0.9 0 0.1-0.1 0.2-0.1 0.4 0.1-0.2 0.2-0.4 0.4-0.5-0.2 0.1-0.3 0.2-0.3 0.3-0.1 0.2-0.2 0.4-0.1 0.5 0.1-0.6 0.5-0.8 0.9-1-0.2 0-0.5 0.3-0.5 0.5 0 0.2 0-0.1 0 0-0.2 0-0.2 0.2-0.3 0.3 0 0-0.1 0.1-0.1 0.2v0.2c0.1-0.4 0.2-0.7 0.5-0.9 0.1-0.1 0.5-0.4 0.7-0.4l-0.1 0.1c-0.5 0.3-0.9 0.5-1 1 0.1-0.1 0.3-0.3 0.4-0.5 0.1-0.1 0.4-0.2 0.5-0.3 0.2-0.2 0.9-0.4 1.1-0.4-0.1 0-0.7 0.1-0.7 0.2-0.3 0.2-0.5 0.3-0.7 0.5 0.2 0 0.3-0.1 0.3-0.1 0.5-0.2 1.5-0.6 2.1-0.6-0.4 0.1-0.9 0.2-1.1 0.4h0.2l-0.1 0.1c-0.1 0-0.1 0-0.1 0.1-0.3 0.1-0.8 0.5-0.9 0.8 0.1-0.2 0.1-0.2 0.3-0.3 0.1-0.1 0.1-0.1 0.2-0.2 0.3-0.2 0.4-0.3 0.6-0.4 0.5-0.3 0.9-0.4 1.4-0.5-0.1 0-0.1 0-0.2 0.1 0.4 0 1.1-0.4 2.1-0.4-0.2 0.1-0.6 0.1-0.9 0.1l-0.2 0.2c0.1 0 0.6-0.2 0.7-0.2 0.9-0.1 1.4-0.2 2.4-0.2 0.6 0 1.1 0 1.8 0.2 0.3 0.2 0.7 0.4 1.1 0.7 0.1 0.1 0.1 0.1 0.2 0.2-0.2-0.1-0.7-0.6-1.3-0.7 0.8 0.5 1.5 0.9 2.1 1.5-0.1-0.1-0.4-0.3-0.5-0.5-0.3-0.1-0.4-0.3-0.6-0.4-0.4-0.2-1-0.6-1.4-0.8 0.1 0.2 0.4 0.3 0.5 0.4 1 0.7 2 1.3 2.9 2 0.1 0.2 0.4 0.4 0.4 0.4-0.2 0-0.5-0.4-0.7-0.4-0.6-0.5-1.2-0.8-2.1-1.1 0.2 0.1 1.6 0.8 2.1 1.1l-1.2-0.6c-0.4-0.1-1-0.5-1.5-0.5 0.5 0.1 2.4 1 2.7 1.3q-0.3-0.2-0.7-0.4c-0.3-0.1-0.5-0.3-0.8-0.3-0.5-0.2-1.1-0.3-1.6-0.3-0.8-0.2-1.5-0.2-2.1 0-0.3 0-0.5 0.1-0.8 0.1 0.1-0.1 0.5-0.1 0.6-0.1 0.4 0 0.9-0.2 1.3-0.2 0.1 0 0.5 0 0.6 0-0.5-0.1-0.9-0.1-1.4-0.1-0.2 0-0.7 0.1-1 0.1-0.2 0.2-0.8 0.3-0.8 0.3 0.1 0 0.1-0.1 0.2-0.1l-0.7 0.1 0.8-0.4c-0.1 0-0.3 0.1-0.6 0.1-0.2 0-0.6 0.2-0.9 0.3-0.2 0.1-0.6 0.1-0.9 0.1 0.2 0 0.4-0.1 0.6-0.1l0.5-0.1c0.1 0 0.1 0 0.2-0.2 0.3-0.1 0.5-0.2 0.8-0.2 0.3-0.1 1.6-0.5 2.1-0.4-0.6-0.1-1.8 0.1-2.1 0.4l-1 0.4c-0.2 0-0.2 0.1-0.3 0.1-0.2 0.1-0.5 0.2-0.8 0.2-0.1 0-0.3 0.2-0.5 0.2 0.3-0.3 0.8-0.4 1.1-0.7-0.3 0.2-0.4 0.3-0.7 0.4-0.1 0-0.1 0.1-0.2 0.1 0.1-0.2 0.5-0.5 0.7-0.7l0.3-0.1c-0.3 0-0.5 0.2-0.8 0.3-0.1 0.2-0.4 0.4-0.5 0.5l0.3-0.3c0 0.1-0.4 0.3-0.4 0.5 0-0.3 0.1-0.4 0.2-0.5l-0.1 0.1c0.3-0.4 0.8-0.6 1.2-0.9-0.4 0-0.9 0.5-1.2 0.8-0.1 0.1-0.1 0.3-0.2 0.5l0.1-0.3-0.1 0.1c0.1-0.3 0.2-0.6 0.5-0.7-0.2 0-0.2 0.1-0.3 0.1-0.1 0.1-0.1 0.1-0.2 0.3-0.2 0.1-0.3 0.3-0.4 0.6 0-0.1 0-0.3 0.1-0.4-0.1 0 0 0-0.1 0-0.1 0.1-0.1 0.3-0.3 0.3v-0.3l-0.1 0.3c0-0.3 0.1-0.4 0.1-0.5-0.1 0.1-0.1 0.2-0.2 0.3 0-0.1 0-0.1 0-0.2l-0.1 0.1c0 0-0.2 0.1-0.2 0.3 0-0.3 0.2-0.3 0.3-0.5-0.1 0.1-0.3 0.2-0.4 0.5 0-0.3 0.3-0.5 0.4-0.8-0.3 0-0.4 0.6-0.4 0.6v-0.2l-0.1 0.2v-0.2c-0.1 0.1-0.1 0.1-0.1 0.2 0 0 0-0.2 0-0.3 0.1 0.2 0 0.3-0.2 0.3l0.2-0.1c0 0 0 0-0.2 0.1z"/><path fill-rule="evenodd" class="s" d="m1430.3 1014.4c-0.8 0-1.5-1-1.5-2.2 0-1.1 0.7-2.1 1.5-2.1 0.9 0 1.5 1 1.5 2.1 0 1.2-0.6 2.2-1.5 2.2z"/><path fill-rule="evenodd" class="t" d="m1430.5 1014.4c-0.9 0.1-1.7-0.8-1.7-1.9-0.1-1.1 0.5-2.3 1.4-2.4 0.4 0 0.6 0.1 1 0.3h-0.1c-0.3 0-0.5 0.3-0.5 0.7 0 0.4 0.2 0.6 0.5 0.6 0.2 0 0.5-0.3 0.5-0.7v-0.1c0.1 0.2 0.2 0.6 0.2 1 0.2 1.2-0.5 2.3-1.3 2.5z"/><path fill-rule="evenodd" class="t" d="m1433.7 1009.5c0-0.1-0.1-0.4-0.1-0.5 0.1 0.1 0.1 0.1 0.1 0.2 0 0.2 0.1 0.3 0.1 0.4q0-0.2 0-0.4c0 0.2 0.2 0.3 0.2 0.4 0-0.4 0-0.4-0.2-0.7 0.2 0.1 0.3 0.5 0.3 0.7q0-0.2 0-0.4 0 0.2 0 0.4l0.1-0.1c0 0.1 0 0.1 0 0.2 0.1-0.1 0.4-0.7 0.4-1 0 0.2-0.1 0.4-0.1 0.4 0-0.2 0.1-0.4 0-0.6 0 0.1 0 0.4 0 0.5 0 0.1-0.2 0.4-0.2 0.5 0-0.4 0.2-0.6 0-1v0.1c0 0.1 0 0.4 0 0.5 0-0.4 0-0.6-0.2-0.9 0 0.2 0.1 0.3 0.1 0.4-0.1-0.1-0.1-0.4-0.4-0.5 0.2 0.1 0.2 0.3 0.3 0.4 0.1 0.1 0.1 0.4 0.1 0.5-0.1-0.6-0.4-0.9-0.6-1 0.1 0 0.4 0.2 0.4 0.5 0 0.1 0-0.1 0 0 0 0 0.1 0.1 0.1 0.2 0 0 0 0.2 0.1 0.3v0.1c-0.1-0.4-0.1-0.6-0.4-0.9-0.1-0.1-0.3-0.3-0.5-0.3l0.2 0.1c0.3 0.2 0.6 0.5 0.7 1-0.1-0.1-0.1-0.4-0.2-0.5q-0.2-0.2-0.4-0.4c-0.1-0.1-0.6-0.4-0.9-0.4 0.1 0 0.5 0.2 0.6 0.3 0.2 0.1 0.4 0.2 0.5 0.5-0.1 0-0.1-0.1-0.2-0.1-0.4-0.3-1.1-0.7-1.5-0.7 0.2 0.2 0.6 0.3 0.9 0.4h-0.2l0.2 0.1c0 0 0.1 0 0.1 0.2 0.2 0.1 0.5 0.5 0.6 0.7 0-0.1-0.1-0.1-0.2-0.2-0.2-0.2-0.2-0.2-0.3-0.3-0.1-0.1-0.2-0.2-0.5-0.4-0.4-0.2-0.6-0.3-1-0.5 0 0 0.1 0 0.1 0.2-0.2 0-0.7-0.4-1.5-0.4 0.2 0.1 0.4 0.1 0.7 0.1l0.1 0.1c-0.1 0-0.4-0.1-0.5-0.1-0.7-0.1-1-0.3-1.8-0.3-0.4 0-0.9 0-1.2 0.3-0.3 0.1-0.5 0.4-0.8 0.6-0.1 0.2-0.1 0.2-0.1 0.3 0.1-0.1 0.5-0.6 0.9-0.8-0.7 0.5-1 0.9-1.5 1.5 0.1-0.1 0.2-0.2 0.3-0.5q0.2-0.2 0.4-0.3c0.3-0.3 0.6-0.7 1-0.8q-0.2 0.2-0.4 0.4c-0.7 0.6-1.3 1.2-2 2-0.1 0.1-0.2 0.4-0.2 0.4 0.1 0 0.4-0.4 0.4-0.4 0.5-0.5 0.8-0.9 1.5-1.1-0.2 0.1-1.2 0.7-1.5 1.1l0.8-0.6c0.3-0.2 0.8-0.5 1-0.5-0.3 0.1-1.6 1-1.8 1.2 0.1-0.1 0.3-0.2 0.5-0.4 0.1-0.1 0.3-0.2 0.5-0.2q0.5-0.4 1.1-0.4c0.5-0.1 1-0.1 1.6 0 0.1 0 0.4 0.1 0.5 0.1-0.1-0.1-0.4-0.1-0.4-0.1-0.2 0-0.6-0.1-0.8-0.1-0.2 0-0.4 0-0.5 0 0.3-0.1 0.6-0.1 1-0.1 0.2 0 0.6 0.1 0.7 0.1 0.3 0.1 0.7 0.2 0.7 0.2l-0.2-0.1 0.5 0.1-0.6-0.3c0.1 0 0.3 0.1 0.4 0.1 0.1 0 0.5 0.1 0.6 0.2 0.1 0.2 0.5 0.2 0.6 0.2 0 0-0.2-0.2-0.3-0.2l-0.4-0.1c-0.1 0-0.1 0-0.1-0.1-0.2-0.1-0.4-0.3-0.5-0.3-0.3-0.1-1.2-0.5-1.6-0.3 0.4-0.2 1.3 0.1 1.6 0.3l0.7 0.4c0.1 0 0.1 0.1 0.1 0.1 0.2 0.2 0.4 0.3 0.5 0.3 0 0 0.3 0.1 0.4 0.1-0.1-0.2-0.6-0.4-0.7-0.6 0.1 0.1 0.3 0.2 0.5 0.4l0.1 0.1c-0.1-0.3-0.4-0.5-0.5-0.8l-0.3-0.1c0.2 0 0.4 0.3 0.5 0.4 0.2 0.1 0.3 0.4 0.4 0.5l-0.1-0.4c0 0.1 0.2 0.4 0.2 0.5 0-0.2-0.1-0.4-0.1-0.5l0.1 0.1c-0.1-0.3-0.5-0.6-0.7-0.8 0.2 0 0.6 0.5 0.9 0.7 0.1 0.1 0.1 0.4 0.2 0.5l-0.1-0.2 0.1 0.1q-0.2-0.6-0.4-0.8c0.2 0 0.2 0.2 0.2 0.2 0 0.1 0.1 0.1 0.1 0.2 0.1 0.1 0.1 0.4 0.2 0.6 0-0.1 0-0.2-0.1-0.3 0.1 0.1 0.1 0.2 0.1 0.2v-0.2l0.2 0.2c0-0.2-0.2-0.4-0.2-0.5 0.2 0.1 0.2 0.3 0.2 0.4 0-0.1 0-0.1 0-0.3l0.1 0.2c0 0 0.1 0.1 0.1 0.2 0-0.2-0.1-0.2-0.1-0.5 0.1 0.1 0.1 0.3 0.2 0.5 0-0.2-0.1-0.5-0.2-0.7 0.1 0 0.2 0.5 0.4 0.6v-0.3l0.1 0.3v-0.3c0 0.2 0.1 0.2 0.1 0.3 0 0 0-0.3 0-0.4q-0.2 0.4 0 0.4-0.2-0.2 0 0z"/><path fill-rule="evenodd" class="u" d="m1436.1 1013.9c-0.6 0.6-3.3 8.6-3.3 9.3 0.3 2.5 2.8 1.6 3.3 2"/><path fill-rule="evenodd" class="c" d="m1445.8 1029.2c-7.7 5.2-12.2 5.6-13.5 1 5.7 0.5 10.1 0.2 13.5-1z"/><path fill-rule="evenodd" class="i" d="m656.3 561.6c0 10.9 8.8 19.7 19.7 19.7h440.7c11 0 19.7-8.8 19.7-19.7v-59.5c0-10.9-8.7-19.7-19.7-19.7h-440.7c-10.9 0-19.7 8.8-19.7 19.7z"/><path fill-rule="evenodd" class="g" d="m1136.4 561.6c0 10.9-8.7 19.7-19.7 19.7h-59.4c-10.9 0-19.7-8.8-19.7-19.7v-59.5c0-10.9 8.8-19.7 19.7-19.7h59.4c11 0 19.7 8.8 19.7 19.7z"/><path fill-rule="evenodd" class="v" d="m1090.8 505.5c8.4 6.6 11.1 17.9 7.6 27.5l21.5 17c3.4 2.7 3.9 7.5 1.2 10.8-1.3 1.6-3.1 2.5-5.1 2.8-2 0.1-4-0.4-5.7-1.7l-21.4-16.9c-8.5 5.5-20.1 5.4-28.5-1.4-10.5-8.4-12.3-23.7-3.9-34.2 8.4-10.6 23.7-12.3 34.3-3.9zm-28.6 8.1c-5.9 7.6-4.8 18.5 2.7 24.4 5.3 4.2 12.3 4.9 18.1 2.1 2.3-1.1 4.4-2.7 6.1-4.9 1.8-2.1 2.9-4.5 3.4-7 1.3-6.3-0.8-12.9-6.1-17.2-7.5-6-18.3-4.8-24.2 2.6z"/><path fill-rule="evenodd" class="c" d="m685.6 550.8c2.9 2.7 6.9 4.6 10.7 4.6 4.6 0 7.1-2 7.1-5.3 0-3.3-2.6-4.3-6.2-6l-5.7-2.4c-4-1.6-8.2-4.8-8.2-10.7 0-6.6 5.7-11.6 13.6-11.6 4.8 0 9.4 2 12.6 5.2l-3.7 4.6c-2.6-2.1-5.4-3.5-8.9-3.5-3.9 0-6.4 1.7-6.4 4.8 0 3.1 3.2 4.3 6.5 5.7l5.6 2.3c4.7 2 8.1 5.1 8.1 11 0 6.7-5.5 12.1-14.7 12.1-5.5 0-10.9-2.2-14.6-6.1zm219.8 11c-2.5 0-4.6-2.2-4.6-4.9 0-2.7 2.1-4.9 4.6-4.9 2.6 0 4.7 2.2 4.7 4.9 0 2.7-2.1 4.9-4.7 4.9zm-17.1 0c-2.6 0-4.7-2.2-4.7-4.9 0-2.7 2.1-4.9 4.7-4.9 2.5 0 4.6 2.2 4.6 4.9 0 2.7-2.1 4.9-4.6 4.9zm-17.1 0c-2.6 0-4.6-2.2-4.6-4.9 0-2.7 2-4.9 4.6-4.9 2.6 0 4.7 2.2 4.7 4.9 0 2.7-2.1 4.9-4.7 4.9zm-31.7-44.8v11.3l-0.3 5.9c2.5-2.4 5.7-4.7 9.8-4.7 6.5 0 9.4 4.4 9.4 12.2v19.2h-7.1v-18.3c0-5.1-1.5-6.9-4.8-6.9-2.6 0-4.4 1.2-7 3.7v21.4h-7.2v-43.8zm-22.6 12.6c3.9 0 6.9 1.5 9.1 3.6l-3.4 4.5c-1.6-1.4-3.3-2.3-5.2-2.3-4.8 0-8.4 4-8.4 10.2 0 6.1 3.4 10.1 8.2 10.1 2.5 0 4.6-1.2 6.3-2.6l3 4.5c-2.9 2.5-6.5 3.9-10.1 3.9-8.4 0-14.8-5.9-14.8-16.1 0-9.9 7.2-15.8 15.3-15.8zm-36 0.8h5.9l0.5 5.4h0.3c2.1-4 5.4-6.2 8.7-6.2 1.5 0 2.5 0.3 3.5 0.7l-1.3 6.2c-1-0.3-1.9-0.5-3.1-0.5-2.4 0-5.4 1.7-7.3 6.3v18.7h-7.2zm-15.8 11c0-3.2-1.3-6-5.5-6-3 0-5.9 1.4-8.6 3l-2.7-4.7c3.4-2.2 7.7-4.1 12.6-4.1 7.6 0 11.4 4.7 11.4 13.2v18.2h-5.9l-0.6-3.4h-0.2c-2.7 2.3-5.8 4.2-9.5 4.2-5.4 0-9.1-3.7-9.1-9.1 0.1-6.5 5.6-9.9 18.1-11.3zm-6.7 14.7c2.5 0 4.4-1.2 6.6-3.4v-6.9c-8.3 1-11 3.3-11 6.3 0.1 2.9 1.9 4 4.4 4zm-28.8-26.5c8.3 0 12.7 6.1 12.7 14.6 0 1.4-0.1 2.6-0.4 3.4h-19.4c0.6 5.5 4.1 8.6 9 8.6 2.7 0 4.9-0.8 7.2-2.2l2.4 4.5c-2.9 1.9-6.7 3.3-10.6 3.3-8.5 0-15-5.9-15-16.1 0.1-9.9 7-16.1 14.1-16.1zm6.4 13.3c0-4.8-2-7.7-6.2-7.7-3.7 0-6.8 2.6-7.4 7.7z"/><path fill-rule="evenodd" class="c" d="m271 659.4h348.8c18.7 0 34 15.3 34 34v277.2c0 18.7-15.3 34-34 34h-348.8c-18.7 0-34-15.3-34-34v-277.2c0-18.7 15.3-34 34-34z"/><path fill-rule="evenodd" class="h" d="m271 657.3h95.2c-0.9 1.2-1.4 2.7-1.3 4.2h-93.8c-17.6 0-31.9 14.3-31.9 31.9v73.4c-1.4-0.9-2.7-1.3-4.2-1.2v-72.1c-0.2-19.9 16-36.2 36-36.2zm-31.9 184.7v128.7c0 17.6 14.3 31.9 31.9 31.9h234c1.5 1 2.5 2.4 3 4.1l-0.2 0.1h-236.8c-20 0-36.3-16.3-36.3-36.2v-128.6c1.5 0.4 3 0.4 4.4 0zm269.2 160.6h111.7c17.6 0 31.9-14.3 31.9-31.9v-192.4c1.6-0.2 3.1-1.1 4.3-2.2v194.5c0 19.9-16.3 36.2-36.3 36.2h-111.9q0 0 0-0.1l1-0.7c-0.2-1.2-0.6-2.3-0.7-3.4zm143.1-313.7c-2.3-15.5-15.6-27.4-31.6-27.4h-138.6c0.6-1.3 0.7-2.9 0.5-4.2h138.1c18.3 0 33.6 13.8 35.9 31.6-1.4-0.1-3.1-0.1-4.3 0z"/><path class="w" d="m606.6 935.7v21.4h-323.4v-21.4z"/><path class="x" d="m601.8 763v10.7h-313.8v-10.7z"/><path class="i" d="m606.6 752.3v10.7h-323.4v-10.7z"/><path class="x" d="m522.7 717.7v10.7h-155.5v-10.7z"/><path class="i" d="m527.3 707.1v10.6h-164.7v-10.6z"/><path class="x" d="m525.1 935.7v21.4h-160.3v-21.4z"/><path class="i" d="m599.1 773.7v162.2h-308.3v-162.2z"/><path class="s" d="m599.1 779.9v156h-308.3v-156z"/><path class="y" d="m520.3 728.4v207.5h-150.6v-207.5z"/><path class="s" d="m354.7 782.7v44.5h-48.9v-44.5z"/><path class="x" d="m350.4 787.1v35.6h-40.1v-35.6z"/><path fill-rule="evenodd" class="i" d="m350.4 788.7v-1.6h-40.1v33.7c12.1-12.3 25.6-22.8 40.1-32.1z"/><path class="s" d="m354.7 839.9v44.5h-48.9v-44.5z"/><path class="x" d="m350.4 844.3v35.6h-40.1v-35.6z"/><path fill-rule="evenodd" class="i" d="m350.4 845.9v-1.6h-40.1v33.7c12.1-12.3 25.6-22.8 40.1-32.1z"/><path class="s" d="m432.9 839.9v44.5h-48.9v-44.5z"/><path class="x" d="m428.4 844.3v35.6h-40v-35.6z"/><path fill-rule="evenodd" class="i" d="m428.4 845.9v-1.6h-40v33.7c12-12.3 25.5-22.8 40-32.1z"/><path class="s" d="m506 839.9v44.5h-48.9v-44.5z"/><path class="x" d="m501.6 844.3v35.6h-40v-35.6z"/><path fill-rule="evenodd" class="i" d="m501.5 845.9v-1.6h-40v33.7c12.2-12.3 25.6-22.8 40-32.1z"/><path class="s" d="m432.9 740.4v86.8h-48.9v-86.8z"/><path class="z" d="m428.4 744.8v77.9h-40v-77.9z"/><path fill-rule="evenodd" class="A" d="m428.4 788.7v-43.9h-40v76c12-12.3 25.5-22.8 40-32.1z"/><path class="x" d="m428.4 744.8v77.9h-40v-77.9z"/><path fill-rule="evenodd" class="i" d="m428.4 788.7v-43.9h-40v76c12-12.3 25.5-22.8 40-32.1z"/><path class="s" d="m506 740.4v86.8h-48.9v-86.8z"/><path class="x" d="m501.6 744.8v77.9h-40v-77.9z"/><path fill-rule="evenodd" class="i" d="m501.5 788.7v-43.9h-40v76c12.2-12.3 25.6-22.8 40-32.1z"/><path class="s" d="m584.9 782.7v44.5h-48.9v-44.5z"/><path class="x" d="m580.5 787.1v35.6h-40v-35.6z"/><path fill-rule="evenodd" class="i" d="m580.4 788.7v-1.6h-40v33.7c12.2-12.3 25.6-22.8 40-32.1z"/><path class="s" d="m584.9 839.9v44.5h-48.9v-44.5z"/><path class="x" d="m580.5 844.3v35.6h-40v-35.6z"/><path fill-rule="evenodd" class="i" d="m580.4 845.9v-1.6h-40v33.7c12.2-12.3 25.6-22.8 40-32.1z"/><path class="i" d="m520.3 728.4v7.8h-150.6v-7.8z"/><path class="s" d="m403.5 896.1v1.2 59.8h82.9v-59.8l-0.1-1.2z"/><path class="x" d="m409.1 896.1v1.2 59.8h71.8v-59.8l-0.1-1.2z"/><path fill-rule="evenodd" class="i" d="m409.1 896.1v1.2 47.5c16.9-17 34.6-33.3 52.8-48.7z"/><path class="s" d="m486.4 895.3v5.4h-82.9v-5.4z"/><path fill-rule="evenodd" class="y" d="m439.2 942.9c-1.7 0-3.1-3.7-3.1-8.3 0-4.6 1.4-8.3 3.1-8.3 1.6 0 3 3.7 3 8.3 0 4.6-1.4 8.3-3 8.3z"/><path fill-rule="evenodd" class="y" d="m450.8 942.9c-1.6 0-3-3.7-3-8.3 0-4.6 1.4-8.3 3-8.3 1.7 0 3 3.7 3 8.3 0 4.6-1.3 8.3-3 8.3z"/><path fill-rule="evenodd" class="x" d="m311.5 957.1c1.6-2.7 2.6-5.8 2.6-9.2 0-9.9-8-17.9-17.9-17.9-9.9 0-18 8-18 17.9 0 3.4 1 6.4 2.7 9.2z"/><path fill-rule="evenodd" class="x" d="m379.5 957.1c2-3.3 3.1-7.2 3.1-11.3 0-12.3-9.9-22.2-22.2-22.2-12.3 0-22.2 9.9-22.2 22.2 0 4.1 1.2 8 3.1 11.3z"/><path fill-rule="evenodd" class="x" d="m352.7 957.1c2.4-4.1 3.9-8.7 3.9-13.7 0-14.9-12-27-26.9-27-15 0-27 12.1-27 27 0 5 1.5 9.6 3.9 13.7z"/><path fill-rule="evenodd" class="x" d="m541.5 957.1c1.6-2.7 2.6-5.8 2.6-9.2 0-9.9-8-17.9-17.9-17.9-9.9 0-17.9 8-17.9 17.9 0 3.4 1 6.4 2.5 9.2z"/><path fill-rule="evenodd" class="x" d="m609.5 957.1c2-3.3 3.1-7.2 3.1-11.3 0-12.3-9.9-22.2-22.2-22.2-12.3 0-22.2 9.9-22.2 22.2 0 4.1 1.3 8 3.2 11.3z"/><path fill-rule="evenodd" class="x" d="m582.9 957.1c2.4-4.1 3.9-8.7 3.9-13.7 0-14.9-12-27-27-27-14.9 0-26.9 12.1-26.9 27 0 5 1.5 9.6 3.8 13.7z"/><path class="c" d="m479.5 892.2v12.2h-68.3v-12.2z"/><path fill-rule="evenodd" class="g" d="m428.6 902.7h-1.6v-3.7h-3v3.7h-1.6v-8.7h1.6v3.5h3v-3.5h1.6zm8.1 0.1c-2 0-3.7-2-3.7-4.5 0-2.5 1.7-4.5 3.7-4.5 2.1 0 3.7 2 3.7 4.5 0 2.5-1.6 4.5-3.7 4.5zm2-4.5c0-1.8-0.9-3.2-1.9-3.2-1.1 0-1.9 1.4-1.9 3.2 0 1.7 0.8 3.1 1.9 3.1 1 0 1.9-1.4 1.9-3.1zm11.4-4.4v1.5h-2.2v7.3h-1.6v-7.3h-2.1v-1.5zm9.1 8.8h-4.9v-8.8h4.7v1.4h-3v2.1h2.9v1.4h-2.9v2.4h3.2zm9.3 0h-4.8v-8.8h1.7v7.2h3.1z"/><path fill-rule="evenodd" class="c" d="m1206.2 481.7h348.8c18.7 0 34 15.3 34 34v277.2c0 18.6-15.3 34-34 34h-348.8c-18.7 0-34-15.4-34-34v-277.2c0-18.7 15.3-34 34-34z"/><path fill-rule="evenodd" class="h" d="m1206.2 479.5h95.2c-0.9 1.3-1.4 2.8-1.3 4.3h-93.8c-17.6 0-31.9 14.3-31.9 31.9v73.3c-1.3-0.8-2.7-1.2-4.2-1.1v-72.1c-0.1-20 16-36.3 36-36.3zm-31.9 184.8v128.7c0 17.5 14.3 31.8 31.9 31.8h237.3q0 0.1 0 0.2h-3.2c1.4 1 2.3 2.4 2.8 4l-0.1 0.1h-236.9c-20 0-36.3-16.3-36.3-36.2v-128.6q2.4 0.7 4.5 0zm269.2 160.7h111.6c17.6 0 31.9-14.3 31.9-31.9v-192.4c1.6-0.3 3.1-1.1 4.3-2.3v194.5c0 19.9-16.4 36.2-36.3 36.2h-111.9q0 0 0-0.1l1.1-0.8c-0.2-1.1-0.6-2.1-0.7-3.2zm-3.4 0h0.2q-0.1-0.1-0.2-0.2zm146.5-313.7c-2.2-15.4-15.5-27.3-31.6-27.3h-138.6c0.6-1.4 0.8-2.9 0.5-4.3h138.1c18.3 0 33.6 13.8 35.9 31.6-1.4-0.1-3-0.2-4.3 0z"/><path fill-rule="evenodd" class="c" d="m436.8 1093.8h348.8c18.7 0 34 15.3 34 34v277.2c0 18.7-15.3 34-34 34h-348.8c-18.7 0-34-15.3-34-34v-277.2c0-18.7 15.3-34 34-34z"/><path fill-rule="evenodd" class="B" d="m703.1 1206l0.6-3.5 1.9 4.4 0.7-2.6 2.3-7.4 2.2 7.4 0.7 2 0.3-0.6 1.6-3.3 0.7 4.8 1.4-2.4 4.1-6.7 0.3 7.8v2.1l0.5-0.5 2.2-2.7-0.5 4.7 2-1.8 5.7-5.4-1.8 7.5-0.5 2 0.7-0.4 2.8-2-1.7 4.5 2.4-1.2 6.9-3.7-3.7 6.9-1 1.9 0.8-0.1 3.4-1.3-2.9 3.9 2.6-0.6 7.5-1.8-5.4 5.7-1.5 1.5h0.8l3.5-0.4-3.8 3 2.8 0.2 7.8 0.2-6.7 4.1-1.7 1.2 0.7 0.2 3.5 0.7-4.3 1.8 2.6 0.8 7.4 2.2-7.4 2.3-2 0.6 0.6 0.4 3.3 1.5-4.8 0.8 2.4 1.3 6.6 4.2-7.7 0.2h-2.2l0.5 0.5 2.8 2.3-4.8-0.5 1.9 2 5.4 5.6-7.5-1.7-2-0.5 0.3 0.6 2 2.9-4.5-1.8 1.3 2.4 3.6 6.9-6.9-3.6-1.9-1 0.2 0.7 1.2 3.4-3.9-2.9 0.7 2.7 1.7 7.5-5.6-5.4-1.5-1.5v0.8l0.3 3.5-3-3.8-0.1 2.8-0.2 7.7-4.2-6.6-1.1-1.8-0.3 0.8-0.6 3.5-1.9-4.4-0.7 2.6-2.3 7.4-2.2-7.4-0.7-2-0.3 0.7-1.6 3.2-0.7-4.7-1.4 2.3-4.1 6.7-0.3-7.8v-2.1l-0.5 0.5-2.2 2.7 0.5-4.7-2 1.9-5.7 5.3 1.8-7.5 0.5-2-0.7 0.4-2.8 2 1.7-4.5-2.4 1.2-6.9 3.7 3.7-6.9 1-1.9-0.8 0.1-3.4 1.3 2.9-3.9-2.6 0.6-7.5 1.8 5.4-5.7 1.5-1.5h-0.8l-3.5 0.4 3.8-3-2.8-0.1-7.8-0.3 6.7-4.1 1.7-1.2-0.7-0.2-3.5-0.6 4.4-1.9-2.7-0.8-7.4-2.2 7.4-2.3 2-0.6-0.6-0.4-3.3-1.5 4.8-0.7-2.4-1.4-6.6-4.2 7.7-0.2h2.2l-0.5-0.5-2.8-2.3 4.8 0.5-1.9-2-5.4-5.6 7.5 1.7 2 0.5-0.3-0.6-2-2.9 4.5 1.8-1.3-2.4-3.6-6.9 6.9 3.6 1.9 1-0.3-0.7-1.2-3.4 3.8 2.9-0.6-2.7-1.7-7.5 5.6 5.4 1.5 1.5v-0.7l-0.4-3.5 3 3.7 0.2-2.7 0.2-7.8 4.2 6.6 1.1 1.8zm10.8 6.1v0.9l-2.8-0.6-2.4-0.6h-2l0.3 0.8h-5.4l-1.9 0.5 0.5 0.8-2.8 0.7-2.3 0.8-1.8 1 0.6 0.6-2.3 1.5-2.2 1.3-1.4 1.4 0.8 0.3-3.8 3.8-1 1.8 0.9 0.1-1.4 2.5-1.2 2.1-0.5 1.9h0.8l-0.6 2.8-0.6 2.3v2.1l0.9-0.3v5.4l0.5 1.9 0.7-0.5 0.8 2.7 0.7 2.4 1 1.8 0.7-0.7 1.5 2.4 1.2 2.2 1.4 1.3 0.4-0.7 3.7 3.8 1.8 1 0.1-0.9 2.5 1.4 2.2 1.2 1.8 0.5v-0.9l2.8 0.7 2.4 0.6h2l-0.3-0.9h5.4l1.9-0.5-0.5-0.7 2.8-0.8 2.4-0.7 1.7-1-0.6-0.7 2.4-1.5 2.1-1.2 1.4-1.4-0.8-0.4 3.8-3.8 1-1.7-0.9-0.1 1.4-2.5 1.3-2.2 0.5-1.9h-0.9l0.6-2.7 0.6-2.4v-2l-0.8 0.2v-5.3l-0.5-1.9-0.8 0.5-0.8-2.8-0.7-2.4-1-1.7-0.6 0.6-1.5-2.4-1.3-2.1-1.4-1.4-0.4 0.8-3.7-3.8-1.8-1-0.1 0.9-2.5-1.4-2.1-1.3z"/><path class="C" d="m708.6 1269c-16.6 0-30-13.4-30-30 0-16.6 13.4-30 30-30 16.6 0 30 13.4 30 30 0 16.6-13.4 30-30 30z"/><path fill-rule="evenodd" class="D" d="m706.7 1268.5c-13.3 0-24.1-10.8-24.1-24.1 0-13.3 10.8-24.1 24.1-24.1 13.3 0 24.1 10.8 24.1 24.1 0 13.3-10.8 24.1-24.1 24.1z"/><path fill-rule="evenodd" class="y" d="m819.7 1284.7v120.4c0 18.7-15.3 34-34 34h-348.9c-18.7 0-34-15.3-34-34v-120.4z"/><path fill-rule="evenodd" class="g" d="m710.6 1439.1h-273.8c-18.7 0-34-15.3-34-34v-56.1c18.4 0.3 40.9-2.7 71.6-17.3 46.8-22.2 21.2 44.4 100.5 41.3 7-0.3 84.1 47.1 115.8 49 7.5 0.4 17.9 8.6 19.9 17.1z"/><path fill-rule="evenodd" class="h" d="m436.8 1091.6h95.2c-0.9 1.3-1.4 2.8-1.3 4.3h-93.9c-17.6 0-31.9 14.3-31.9 31.9v73.3c-1.4-0.8-2.7-1.2-4.2-1.1v-72.1c0-20.1 16.3-36.3 36.1-36.3zm-31.9 184.7v128.7c0 17.5 14.3 31.8 31.9 31.8h237.3q0 0.1 0 0.2h-3.3c1.5 0.9 2.4 2.3 3 4l-0.2 0.1h-236.8c-20 0-36.3-16.3-36.3-36.3v-128.7c1.5 0.7 3 0.7 4.4 0.2zm269.2 160.7h111.8c17.5 0 31.8-14.3 31.8-31.9v-192.4c1.6-0.3 3.2-1.1 4.3-2.3v194.6c0 19.9-16.3 36.2-36.3 36.2h-111.9q0-0.1 0-0.2l1-0.8c-0.2-1.1-0.6-2.2-0.7-3.2zm143.1-313.8c-2.2-15.4-15.5-27.3-31.6-27.3h-138.6c0.6-1.4 0.8-2.9 0.5-4.3h138.1c18.3 0 33.6 13.8 35.9 31.6-1.3-0.1-3-0.2-4.3 0z"/><path fill-rule="evenodd" class="g" d="m549.5 1255.7q-4.3 3.2-8.6 6.8l-2.6-2.2 1.8 2.8c-1.8 1.5-3.7 3.1-5.6 4.8l-4.5-3.9 3.1 5c-1.5 1.4-3.1 2.8-4.6 4.1l-3.2-1.6 2.4 2.3c-2.4 2.2-4.8 4.5-7.1 6.9l-3.3-2.5 2.1 3.7c-2.1 2.3-4.4 4.5-6.5 6.8-0.6-11 3.5-19.7 12.3-26 5.3-3.6 12.2-6.5 20.7-8.5h-0.5l-0.5-3.4-0.5 3.4c-2.4-0.1-4.9-0.3-7.4-0.3l-0.8-5.8-1 5.8c-2.1 0-4.1 0-6.2 0l-1.3-3.2 0.1 3.2c-3.2 0-6.5 0.2-9.9 0.3l-0.7-4.1-1 4.1c-3.2 0.1-6.3 0.4-9.4 0.6 6.6-8.1 14.7-11.8 24.5-11.2q-2.9-0.9-5.8-1.8l-0.2-3.5-0.8 3.1c-3.2-1-6.3-1.9-9.6-2.8l0.6-4.1-2.1 3.6c-3-0.7-6-1.5-9.1-2.2 9.4-6 18.9-6.9 28.7-2.4 4.2 2 8.6 5 13.2 9.2-0.4-1.2-0.9-2.3-1.3-3.4l5.3-2.5-5.9 1c-0.7-1.8-1.4-3.7-2.2-5.4l2.7-2.2-3 1.3c-1.2-2.9-2.4-5.6-3.8-8.5l3.5-1.9-4.3 0.5c-1.2-2.6-2.5-5.3-3.8-7.9 10.5 3.2 17 9.6 19.7 19.3 0.8 3.1 1.2 6.4 1.2 10.2 1.3-4.2 2.8-7.8 4.6-10.7 5.1-7.9 12.6-11 22.5-9.5q-2.8 2.8-5.6 5.6l-3.4-2.2 2.5 3.2c-2 2-3.9 4.2-5.8 6.3l-2.2-2.4 1.6 3.1c-1.3 1.3-2.4 2.7-3.5 4.1l-4.7-3.4 3.8 4.6c-1.4 1.6-2.8 3.4-4 5l-2.7-2 2.2 2.7c-0.2 0.2-0.4 0.6-0.7 0.8q7.8-5.4 14.3-7.1 13.6-3.4 23 8.3c-2.8 0.1-5.4 0.2-8 0.3l-1-4-0.4 4.2c-2.9 0.2-5.8 0.5-8.5 0.7v-3.2l-0.9 3.3c-1.8 0.2-3.5 0.4-5.3 0.7l-1.1-5.7-0.4 5.9c-2.1 0.3-4.1 0.6-6.3 1l-0.5-3.2-0.2 3.3c-1.8 0.4-3.4 0.7-5.2 1l0.3 0.2c7.3 0.6 13.2 2 17.8 4.4 8.4 4.2 12.3 11.4 11.8 21.4-2.1-1.6-4.1-3.4-6.3-5l1.9-3.6-3 2.7c-2.3-1.6-4.5-3.4-6.8-5l2.2-2.4-2.9 1.9c-1.5-1-2.9-2-4.4-3l3-5-4.1 4.1c-1.8-1.1-3.7-2.2-5.4-3.4l1.7-2.7-2.5 2.3c-1.7-1-3.4-2-5.1-3 2.6 33.3 1 79.7-10.8 120.7-9.9-0.1-14.1-4.5-12.7-13 12.4-25.3 17.9-61.6 16.4-109.8zm-18-12v-0.1q-0.1 0-0.2 0 0.1 0 0.2 0.1zm0-0.1q0.9 0.1 1.7 0.2l1-5.4zm19.3 2l-1.5 0.3c0 0.1 0.2 0.2 0.3 0.4zm-8.9-1.4l-0.9 1.7c0.1 0 0.4 0.2 0.5 0.2z"/><path fill-rule="evenodd" class="g" d="m512.4 1346.4c1.4 8.5-2.7 12.9-12.7 13-11.7-41-13.4-87.4-10.7-120.6-1.8 1-3.4 2-5.2 3l-2.5-2.4 1.8 2.8c-1.8 1.1-3.7 2.2-5.4 3.3l-4.2-4.1 3 5c-1.5 1-2.8 2-4.4 3l-2.8-1.8 2.1 2.3c-2.3 1.7-4.5 3.4-6.8 5.1l-3-2.8 1.9 3.6c-2.1 1.7-4.1 3.4-6.3 5-0.5-10 3.4-17.1 11.8-21.4 4.7-2.4 10.5-3.8 17.8-4.4l0.3-0.1c-1.8-0.4-3.4-0.6-5.2-1l-0.2-3.4-0.5 3.3c-2.2-0.4-4.2-0.8-6.3-1l-0.4-5.9-1.1 5.6c-1.8-0.3-3.5-0.5-5.3-0.6l-0.8-3.4v3.2c-2.8-0.2-5.7-0.5-8.6-0.7l-0.3-4.1-1.1 4c-2.6-0.2-5.2-0.3-8-0.4q9.4-11.7 23-8.3 6.6 1.7 14.3 7.2c-0.3-0.3-0.5-0.7-0.7-0.9l2.2-2.6-2.7 2c-1.2-1.7-2.6-3.4-4-5.1l3.8-4.6-4.6 3.4c-1.2-1.4-2.3-2.8-3.6-4l1.7-3.2-2.3 2.4c-1.9-2.1-3.7-4.1-5.8-6.3l2.6-3.3-3.4 2.2q-2.9-2.8-5.7-5.6c9.9-1.5 17.5 1.6 22.5 9.5 1.9 2.9 3.4 6.5 4.6 10.7 0-3.8 0.4-7.1 1.3-10.2 2.6-9.6 9.1-16 19.7-19.3-1.4 2.6-2.7 5.3-3.9 7.9l-4.3-0.5 3.5 1.9c-1.4 2.9-2.6 5.6-3.7 8.5l-3.1-1.2 2.7 2.1c-0.8 1.7-1.5 3.6-2.2 5.4l-5.8-1 5.2 2.5c-0.4 1.1-0.9 2.2-1.2 3.4 4.5-4.2 8.9-7.2 13.1-9.2 9.8-4.5 19.4-3.6 28.8 2.4-3.2 0.7-6.2 1.5-9.2 2.3l-2.1-3.7 0.6 4.2c-3.3 0.8-6.4 1.7-9.5 2.7l-0.9-3.1-0.1 3.5c-2 0.6-3.9 1.2-5.8 1.8q-0.1 0-0.2 0l0.1 0.1q0-0.1 0.1-0.1 0 0 0 0c9.8-0.6 18 3.1 24.6 11.2-3.2-0.2-6.3-0.5-9.4-0.6l-1-4.1-0.8 4.1c-3.4-0.1-6.6-0.2-9.9-0.2l0.1-3.3-1.2 3.3c-2.2 0-4.2 0-6.3 0l-1-5.9-0.8 5.9c-2.5 0-5 0.1-7.4 0.2l-0.5-3.4-0.5 3.4h-0.5c8.6 2 15.5 4.9 20.7 8.5 8.8 6.3 13 15 12.3 26-2.1-2.3-4.4-4.5-6.5-6.8l2.1-3.7-3.2 2.5c-2.4-2.4-4.8-4.7-7.2-6.9l2.4-2.3-3.1 1.6c-1.5-1.3-3.2-2.7-4.7-4.1l3.2-5-4.5 3.9c-1.9-1.7-3.8-3.3-5.7-4.8l1.9-2.7-2.6 2.1q-4.4-3.6-8.7-6.8c-1.6 48.3 3.9 84.7 16.3 109.9zm-1-127.2l1 5.4q0.9-0.1 1.7-0.2zm-15.4 8.2c0.1-0.1 0.3-0.3 0.3-0.4l-1.5-0.2zm7.9-0.3c0.1 0 0.3-0.1 0.5-0.1l-0.9-1.8z"/><path fill-rule="evenodd" class="a" d="m747.3 1176.2h-96.9c0.7-2.9 3.4-5.2 6.5-5.2 0.1 0 0.3 0 0.5 0 1.5-3.7 5.3-6.4 9.5-6.4 1.9 0 3.7 0.5 5.2 1.4 1.9-6.1 7.5-10.5 14.2-10.5 1.3 0 2.6 0.1 3.8 0.5 3.3-7.2 10.5-12.2 18.9-12.2 9.9 0 18.2 7 20.2 16.3 0.1 0 0.3 0 0.5 0 6.4 0 11.6 4.8 12.4 10.9 2.6 0.7 4.7 2.7 5.2 5.2z"/><path fill-rule="evenodd" class="a" d="m562.5 1165.6h-97c0.8-2.8 3.4-5.1 6.5-5.1 0.1 0 0.3 0 0.5 0 1.5-3.8 5.3-6.4 9.6-6.4 1.8 0 3.6 0.5 5.1 1.4 1.9-6.2 7.5-10.6 14.2-10.6 1.4 0 2.6 0.2 3.9 0.5 3.2-7.1 10.4-12.1 18.8-12.1 9.9 0 18.2 7 20.2 16.3 0.1 0 0.3 0 0.5 0 6.4 0 11.6 4.8 12.4 10.9 2.6 0.6 4.6 2.6 5.3 5.1z"/><path fill-rule="evenodd" class="a" d="m629.3 1211.2h-96.9c0.7-2.9 3.3-5.2 6.5-5.2 0.1 0 0.2 0 0.5 0 1.5-3.7 5.2-6.4 9.5-6.4 1.9 0 3.7 0.5 5.2 1.4 1.8-6.1 7.5-10.5 14.1-10.5 1.4 0 2.7 0.1 3.9 0.5 3.3-7.2 10.4-12.2 18.8-12.2 9.9 0 18.2 7 20.2 16.3 0.2 0 0.4 0 0.5 0 6.4 0 11.7 4.8 12.4 10.9 2.7 0.5 4.8 2.5 5.3 5.2z"/><path class="c" d="m1441.6 646.9v14.3h-29.2v-14.3z"/><path class="E" d="m1399.7 639.5v25.7h21.5v-14.3h11.4v14.3h21.4v-25.7z"/><path class="g" d="m1456.5 633.9v8.7h-59.3v-8.7z"/><path class="E" d="m1451.3 628.7v7h-48.8v-7z"/><path class="E" d="m1403.9 780.1h-89.7l6.2-17.3h84z"/><path class="F" d="m1404.7 762.6h-80.6l5.9-16.5h75.2z"/><path class="E" d="m1405.5 746.1h-71.9l5.5-15.8h66.9z"/><path class="F" d="m1406.4 730.1h-63.9l5.3-15h59.1z"/><path class="E" d="m1407.1 715.1h-55.9l4.9-14.4h51.5z"/><path class="F" d="m1407.9 700.7h-48.6l4.7-13.8h44.2z"/><path class="E" d="m1408.5 686.9h-41.3l4.4-13.2h37.4z"/><path class="F" d="m1426.8 780.1h-29.6l15.2-119.1h14.4z"/><path class="F" d="m1409.3 673.7h-34.5l4-12.7h30.8z"/><path class="g" d="m1409.6 661l-19.9 119.1h11.3l11.4-119.1z"/><path class="E" d="m1449.9 780.1h89.6l-6.3-17.3h-83.9z"/><path class="F" d="m1449 762.6h80.5l-5.9-16.5h-75.2z"/><path class="E" d="m1448.1 746.1h72l-5.6-15.8h-66.9z"/><path class="F" d="m1447.4 730.1h63.7l-5.3-15h-58.9z"/><path class="E" d="m1446.5 715.1h55.9l-4.8-14.4h-51.5z"/><path class="F" d="m1445.9 700.7h48.4l-4.6-13.8h-44.3z"/><path class="E" d="m1445.1 686.9h41.4l-4.4-13.2h-37.3z"/><path class="F" d="m1426.8 780.1h29.7l-15.3-119.1h-14.4z"/><path class="F" d="m1444.5 673.7h34.5l-4.1-12.7h-30.8z"/><path class="g" d="m1444.1 661l19.8 119.1h-11.2l-11.5-119.1z"/><path class="F" d="m1479 699l-6.7 83.3 56.1 1.7 5.8-75.2z"/><path fill-rule="evenodd" class="F" d="m1483.8 620.9c20.3 0.6 40.7 2.4 60.8 5.4 0.6-7.5 1.2-14.9 2-22.5-20.2-3-40.5-4.7-60.8-5.4-0.8 7.6-1.4 15-2 22.5z"/><path fill-rule="evenodd" class="c" d="m1515.7 605c2.7 0.2 2.4 4.9 2.4 4.9-0.2 3.5-0.6 7-0.8 10.6-0.9-0.1-1.9-0.1-2.8-0.2-0.9-0.2-1.9-0.2-2.8-0.3 0.3-3.5 0.7-7 0.9-10.6-0.1 0 0.4-4.7 3.1-4.4z"/><path fill-rule="evenodd" class="c" d="m1525.2 605.8c2.3 0.3 2.1 4.9 2.1 4.9-0.3 3.5-0.6 7.1-0.9 10.7-0.9-0.1-1.6-0.1-2.5-0.3-0.9-0.1-1.6-0.1-2.5-0.2 0.2-3.5 0.6-7 0.9-10.7 0 0 0.5-4.6 2.9-4.4z"/><path fill-rule="evenodd" class="c" d="m1533.7 606.7c2.1 0.3 1.7 4.9 1.7 4.9-0.2 3.5-0.6 7-0.8 10.7-0.8-0.2-1.5-0.2-2.2-0.3-0.7-0.1-1.5-0.1-2.1-0.2 0.2-3.5 0.6-7.1 0.9-10.7 0 0 0.3-4.6 2.5-4.4z"/><path fill-rule="evenodd" class="c" d="m1541.3 607.6c1.8 0.2 1.5 4.9 1.5 4.9-0.2 3.5-0.6 7-0.8 10.6-0.7-0.1-1.3-0.1-1.9-0.2-0.6-0.1-1.3-0.1-1.9-0.3 0.2-3.5 0.6-7 0.9-10.6 0 0 0.4-4.7 2.2-4.4z"/><path fill-rule="evenodd" class="c" d="m1506.3 604.2c-2.3-0.1-2.8 4.5-2.8 4.5-0.3 3.5-0.7 7-0.9 10.7 0.9 0 1.6 0.1 2.5 0.2 0.9 0 1.6 0.2 2.5 0.3 0.2-3.5 0.6-7 0.9-10.7-0.2-0.1 0.2-4.9-2.2-5z"/><path fill-rule="evenodd" class="c" d="m1497.7 603.6c-2.1-0.1-2.7 4.5-2.7 4.5-0.2 3.5-0.6 7-0.8 10.7 0.7 0 1.5 0.1 2.2 0.1 0.8 0 1.5 0.1 2.2 0.1 0.3-3.5 0.6-7 0.8-10.7 0.2 0 0.4-4.6-1.7-4.7z"/><path fill-rule="evenodd" class="c" d="m1490.2 603.1c-1.8-0.1-2.3 4.5-2.3 4.5-0.3 3.5-0.6 7-0.9 10.7 0.6 0 1.3 0.1 1.9 0.1 0.6 0 1.3 0.1 1.9 0.1 0.2-3.5 0.6-7 0.9-10.7-0.2 0 0.2-4.6-1.5-4.7z"/><path fill-rule="evenodd" class="F" d="m1492.8 596.6c15.8 0.2 31.6 1.6 47.2 4.1 0.6-7.5 1.2-14.9 2-22.5-15.6-2.5-31.4-3.8-47.2-4.1-0.8 7.5-1.4 15.1-2 22.5z"/><path fill-rule="evenodd" class="c" d="m1518 579.2c3 0.3 2.6 5.6 2.6 5.6-0.3 3.9-0.7 10.9-1 14.8-1-0.2-2.1-0.2-3.1-0.3-1-0.1-2.1-0.1-3.1-0.2 0.3-3.9 0.6-10.9 1-14.8 0.1-0.2 0.7-5.3 3.6-5.1z"/><path fill-rule="evenodd" class="c" d="m1527.5 580.1c2.7 0.3 2.3 5.5 2.3 5.5-0.4 3.9-0.6 11-1 14.8-0.9-0.1-1.9-0.2-2.8-0.2-0.8-0.1-1.9-0.3-2.7-0.3 0.3-3.8 0.6-10.9 1-14.8 0-0.1 0.5-5.2 3.2-5z"/><path fill-rule="evenodd" class="c" d="m1536.1 581c2.3 0.3 2 5.5 2 5.5-0.4 3.9-0.7 10.9-1 14.8-0.8-0.1-1.7-0.1-2.4-0.2-0.8-0.2-1.6-0.2-2.4-0.3 0.4-3.9 0.6-10.9 1-14.8-0.1-0.1 0.4-5.2 2.8-5z"/><path fill-rule="evenodd" class="c" d="m1508.6 578.5c-2.6-0.3-3.3 5-3.3 5-0.3 3.9-0.6 10.9-1 14.8 0.9 0.1 1.9 0.1 2.8 0.3 0.9 0.1 1.9 0.1 2.7 0.2 0.4-3.9 0.7-10.9 1.1-14.8 0.1-0.1 0.3-5.4-2.3-5.5z"/><path fill-rule="evenodd" class="c" d="m1500.1 577.9c-2.4-0.2-2.9 5-2.9 5-0.4 3.9-0.8 10.9-1 14.8 0.7 0 1.6 0.1 2.4 0.1 0.7 0 1.6 0.1 2.3 0.1 0.4-3.9 0.8-10.9 1-14.8 0.2 0 0.5-5.1-1.8-5.2z"/><path fill-rule="evenodd" class="F" d="m1481.6 644.5c20.3 0.6 40.8 2.4 60.9 5.4 0.6-7.6 1.2-15 2-22.5-20.2-3-40.5-4.8-61-5.4-0.5 7.5-1.1 14.9-1.9 22.5z"/><path fill-rule="evenodd" class="c" d="m1513.6 628.5c2.6 0.3 2.4 4.9 2.4 4.9-0.3 3.5-0.6 7.1-0.9 10.6-0.9-0.2-1.9-0.2-2.7-0.3-0.9-0.1-1.9-0.1-2.8-0.2 0.4-3.5 0.6-7.1 0.9-10.6 0 0.2 0.5-4.6 3.1-4.4z"/><path fill-rule="evenodd" class="c" d="m1523.1 629.4c2.4 0.3 2.2 4.9 2.2 4.9-0.4 3.5-0.6 7-0.9 10.7-0.9-0.2-1.6-0.2-2.5-0.3-0.9-0.1-1.6-0.1-2.5-0.2 0.2-3.5 0.6-7.1 0.9-10.7 0 0.1 0.5-4.6 2.8-4.4z"/><path fill-rule="evenodd" class="c" d="m1531.7 630.3c2.1 0.2 1.7 4.9 1.7 4.9-0.3 3.5-0.6 7-0.8 10.7-0.8-0.2-1.6-0.2-2.2-0.3-0.7-0.1-1.5-0.1-2.1-0.2 0.2-3.6 0.6-7.1 0.9-10.6-0.2 0 0.3-4.8 2.5-4.5z"/><path fill-rule="evenodd" class="c" d="m1539.2 631.2c1.8 0.2 1.5 4.9 1.5 4.9-0.2 3.5-0.6 7-0.9 10.6-0.6-0.1-1.2-0.1-1.9-0.2-0.6-0.1-1.2-0.1-1.8-0.3 0.2-3.5 0.6-7 0.8-10.6 0 0 0.5-4.7 2.3-4.4z"/><path fill-rule="evenodd" class="c" d="m1504.2 627.8c-2.4-0.1-2.9 4.5-2.9 4.5-0.2 3.5-0.6 7-0.9 10.7 0.9 0.1 1.7 0.1 2.6 0.2 0.8 0.1 1.6 0.1 2.5 0.3 0.2-3.5 0.6-7.1 0.8-10.7 0-0.1 0.3-4.9-2.1-5z"/><path fill-rule="evenodd" class="c" d="m1495.7 627.2c-2.2-0.2-2.7 4.5-2.7 4.5-0.2 3.5-0.6 7-0.8 10.6 0.7 0 1.5 0.2 2.2 0.2 0.8 0 1.5 0.1 2.2 0.1 0.2-3.5 0.6-7 0.8-10.7 0 0 0.4-4.6-1.7-4.7z"/><path fill-rule="evenodd" class="c" d="m1488 626.7c-1.7-0.2-2.2 4.5-2.2 4.5-0.4 3.5-0.7 7-0.9 10.6 0.6 0 1.2 0.2 1.9 0.2 0.6 0 1.2 0.1 1.9 0.1 0.2-3.5 0.6-7 0.8-10.7 0 0 0.4-4.6-1.5-4.7z"/><path fill-rule="evenodd" class="F" d="m1479.6 668.1c20.3 0.6 40.8 2.3 60.9 5.3 0.6-7.5 1.2-14.9 2-22.4-20.2-3-40.6-4.8-60.9-5.4-0.7 7.5-1.4 15.1-2 22.5z"/><path fill-rule="evenodd" class="c" d="m1511.6 652.1c2.6 0.3 2.4 4.9 2.4 4.9-0.3 3.5-0.6 7-0.9 10.6-0.9-0.2-1.9-0.2-2.7-0.3-0.9-0.1-1.9-0.1-2.8-0.2 0.4-3.6 0.6-7.1 0.9-10.6-0.2 0.1 0.5-4.5 3.1-4.4z"/><path fill-rule="evenodd" class="c" d="m1521 653c2.4 0.3 2.1 4.9 2.1 4.9-0.2 3.5-0.6 7-0.8 10.7-0.9-0.2-1.7-0.2-2.5-0.3-0.9-0.1-1.7-0.1-2.5-0.2 0.2-3.6 0.6-7.1 0.8-10.7 0 0.1 0.5-4.6 2.9-4.4z"/><path fill-rule="evenodd" class="c" d="m1529.5 653.9c2.2 0.2 1.8 4.9 1.8 4.9-0.3 3.5-0.6 7-0.9 10.6-0.7-0.1-1.5-0.1-2.1-0.2-0.8-0.1-1.5-0.1-2.1-0.3 0.2-3.5 0.6-7 0.8-10.5 0 0 0.5-4.6 2.5-4.5z"/><path fill-rule="evenodd" class="c" d="m1537.2 654.8c1.8 0.2 1.5 4.9 1.5 4.9-0.3 3.5-0.6 7-0.9 10.6-0.6-0.1-1.2-0.1-1.9-0.2-0.6-0.2-1.2-0.2-1.8-0.3 0.2-3.5 0.6-7 0.8-10.5 0 0 0.5-4.8 2.3-4.5z"/><path fill-rule="evenodd" class="c" d="m1502.2 651.4c-2.4-0.2-2.9 4.5-2.9 4.5-0.2 3.5-0.6 7-0.9 10.6 0.9 0.2 1.7 0.2 2.5 0.2 0.9 0.1 1.7 0.1 2.6 0.2 0.2-3.5 0.6-7 0.8-10.6-0.1 0 0.3-4.7-2.1-4.9z"/><path fill-rule="evenodd" class="c" d="m1493.7 650.7c-2.2-0.1-2.7 4.6-2.7 4.6-0.2 3.5-0.6 7-0.8 10.6 0.7 0 1.5 0.1 2.2 0.1 0.8 0 1.5 0.2 2.1 0.2 0.4-3.5 0.7-7.1 0.9-10.7 0 0.1 0.3-4.6-1.7-4.8z"/><path fill-rule="evenodd" class="c" d="m1486 650.2c-1.7-0.1-2.2 4.6-2.2 4.6-0.4 3.5-0.7 7-0.9 10.6 0.6 0 1.2 0.1 1.9 0.1 0.6 0 1.2 0.2 1.8 0.2 0.3-3.5 0.7-7.1 0.9-10.7-0.1 0 0.3-4.6-1.5-4.8z"/><path fill-rule="evenodd" class="F" d="m1477.6 691.6c20.5 0.7 40.8 2.4 61 5.4 0.6-7.4 1.2-14.9 2-22.4-20.2-3-40.5-4.8-60.9-5.4-0.8 7.5-1.5 15-2.1 22.4z"/><path fill-rule="evenodd" class="c" d="m1509.6 675.7c2.6 0.3 2.4 4.9 2.4 4.9-0.3 3.5-0.6 7-0.9 10.5-0.9-0.1-1.9-0.1-2.8-0.2-0.8-0.1-1.8-0.1-2.7-0.3 0.2-3.5 0.6-7 0.9-10.6-0.2 0.2 0.3-4.4 3.1-4.3z"/><path fill-rule="evenodd" class="c" d="m1519 676.6c2.4 0.2 2.1 4.9 2.1 4.9-0.2 3.5-0.6 7-0.8 10.6-0.9-0.1-1.7-0.1-2.5-0.2-0.9-0.1-1.7-0.1-2.6-0.3 0.3-3.5 0.7-7 0.9-10.6 0 0.1 0.5-4.5 2.9-4.4z"/><path fill-rule="evenodd" class="c" d="m1527.5 677.5c2.2 0.2 1.8 4.9 1.8 4.9-0.3 3.5-0.6 7-0.9 10.6-0.7-0.1-1.5-0.1-2.1-0.2-0.8-0.2-1.5-0.2-2.2-0.3 0.3-3.5 0.7-7 0.9-10.6-0.1 0.1 0.4-4.6 2.5-4.4z"/><path fill-rule="evenodd" class="c" d="m1535.2 678.3c1.7 0.3 1.5 4.9 1.5 4.9-0.3 3.5-0.6 7.1-0.9 10.7-0.6-0.1-1.2-0.1-1.9-0.3-0.6-0.1-1.2-0.1-1.8-0.2 0.2-3.5 0.6-7 0.8-10.7-0.1 0.2 0.4-4.5 2.3-4.4z"/><path fill-rule="evenodd" class="c" d="m1500.1 675c-2.4-0.2-2.9 4.5-2.9 4.5-0.3 3.5-0.6 7-0.9 10.6 0.9 0.2 1.6 0.2 2.5 0.3 0.9 0 1.6 0.1 2.5 0.2 0.3-3.5 0.6-7 0.9-10.6 0-0.2 0.2-4.8-2.1-5z"/><path fill-rule="evenodd" class="c" d="m1491.5 674.3c-2.1-0.1-2.6 4.5-2.6 4.5-0.2 3.6-0.6 7.1-0.9 10.7 0.8 0 1.5 0.1 2.2 0.1 0.7 0 1.5 0.2 2.2 0.2 0.3-3.6 0.6-7.1 0.9-10.7 0 0.1 0.4-4.6-1.8-4.8z"/><path fill-rule="evenodd" class="c" d="m1483.9 673.8c-1.8-0.1-2.3 4.5-2.3 4.5-0.2 3.6-0.6 7.1-0.9 10.7 0.7 0 1.3 0.1 1.9 0.1 0.7 0 1.3 0.2 1.9 0.2 0.3-3.6 0.6-7.1 0.9-10.6 0-0.1 0.4-4.8-1.5-4.9z"/><path fill-rule="evenodd" class="F" d="m1475.5 715.2c20.3 0.6 40.7 2.4 60.8 5.4 0.6-7.5 1.3-14.9 2-22.4-20.2-3.1-40.5-4.8-60.8-5.4-0.6 7.5-1.4 15-2 22.4z"/><path fill-rule="evenodd" class="c" d="m1507.5 699.4c2.6 0.3 2.3 4.9 2.3 4.9-0.2 3.5-0.6 7-0.8 10.7-0.9-0.2-1.9-0.2-2.8-0.3-0.9-0.1-1.9-0.1-2.7-0.2 0.2-3.5 0.6-7.1 0.8-10.7 0 0 0.5-4.6 3.2-4.4z"/><path fill-rule="evenodd" class="c" d="m1516.9 700.3c2.4 0.2 2.1 4.9 2.1 4.9-0.2 3.5-0.6 7-0.9 10.6-0.8-0.1-1.6-0.1-2.5-0.2-0.9-0.1-1.6-0.1-2.5-0.3 0.3-3.5 0.6-7 0.9-10.6 0 0 0.5-4.7 2.9-4.4z"/><path fill-rule="evenodd" class="c" d="m1525.4 701.2c2.1 0.2 1.8 4.9 1.8 4.9-0.3 3.5-0.7 7-0.9 10.6-0.8-0.1-1.5-0.1-2.2-0.2-0.7-0.2-1.5-0.2-2.1-0.3 0.3-3.5 0.6-7 0.9-10.6 0 0 0.5-4.7 2.5-4.4z"/><path fill-rule="evenodd" class="c" d="m1533.1 701.9c1.7 0.3 1.5 4.9 1.5 4.9-0.3 3.5-0.7 7-0.9 10.5-0.6-0.1-1.3-0.1-1.9-0.2-0.6-0.1-1.3-0.1-1.9-0.3 0.3-3.5 0.6-7 0.9-10.6 0 0.2 0.5-4.4 2.3-4.3z"/><path fill-rule="evenodd" class="c" d="m1498.1 698.5c-2.4-0.1-2.9 4.5-2.9 4.5-0.3 3.6-0.7 7.1-0.9 10.7 0.9 0 1.6 0.1 2.5 0.1 0.9 0.2 1.6 0.2 2.5 0.3 0.3-3.5 0.6-7 0.9-10.7 0 0 0.2-4.6-2.1-4.9z"/><path fill-rule="evenodd" class="c" d="m1489.5 697.9c-2.1-0.1-2.6 4.5-2.6 4.5-0.3 3.5-0.6 7-0.9 10.6 0.8 0 1.5 0.1 2.3 0.1 0.7 0 1.5 0.1 2.1 0.1 0.3-3.5 0.6-7 0.9-10.7 0 0.3 0.2-4.5-1.8-4.6z"/><path fill-rule="evenodd" class="c" d="m1481.9 697.4c-1.8-0.1-2.3 4.5-2.3 4.5-0.2 3.5-0.6 7-0.9 10.7 0.7 0 1.3 0.1 1.9 0.1 0.7 0 1.3 0.1 1.9 0.1 0.3-3.5 0.6-7 0.9-10.6 0 0 0.2-4.7-1.5-4.8z"/><path fill-rule="evenodd" class="F" d="m1473.5 738.8c20.3 0.6 40.7 2.4 60.8 5.4 0.6-7.5 1.3-14.9 2-22.5-20.2-3-40.5-4.7-60.8-5.4-0.8 7.6-1.4 15.1-2 22.5z"/><path fill-rule="evenodd" class="c" d="m1505.5 723c2.6 0.2 2.3 4.9 2.3 4.9-0.2 3.5-0.6 7-0.8 10.6-0.9-0.1-1.9-0.1-2.8-0.2-0.9-0.1-1.9-0.1-2.8-0.3 0.3-3.5 0.7-7 0.9-10.5-0.1-0.1 0.4-4.8 3.2-4.5z"/><path fill-rule="evenodd" class="c" d="m1514.9 723.9c2.4 0.2 2.1 4.9 2.1 4.9-0.3 3.5-0.6 7-0.9 10.6-0.9-0.1-1.6-0.1-2.5-0.2-0.9-0.2-1.6-0.2-2.5-0.3 0.3-3.5 0.6-7 0.9-10.6 0 0 0.5-4.7 2.9-4.4z"/><path fill-rule="evenodd" class="c" d="m1523.4 724.7c2.1 0.3 1.8 4.9 1.8 4.9-0.3 3.6-0.7 7.1-0.9 10.7-0.8-0.1-1.5-0.1-2.2-0.2-0.7-0.2-1.5-0.2-2.1-0.3 0.3-3.5 0.6-7 0.9-10.7-0.1 0 0.4-4.6 2.5-4.4z"/><path fill-rule="evenodd" class="c" d="m1531 725.5c1.8 0.3 1.6 4.9 1.6 4.9-0.3 3.5-0.7 7-0.9 10.5-0.7-0.1-1.3-0.1-1.9-0.2-0.6-0.1-1.3-0.1-1.9-0.3 0.3-3.5 0.6-7 0.9-10.6-0.1 0.2 0.4-4.4 2.2-4.3z"/><path fill-rule="evenodd" class="c" d="m1495.9 722.2c-2.4-0.1-2.9 4.6-2.9 4.6-0.2 3.5-0.6 7-0.8 10.5 0.8 0.1 1.6 0.1 2.5 0.2 0.9 0.2 1.6 0.2 2.5 0.3 0.2-3.5 0.6-7 0.9-10.7 0-0.1 0.3-4.7-2.2-4.9z"/><path fill-rule="evenodd" class="c" d="m1487.4 721.5c-2.1-0.1-2.6 4.5-2.6 4.5-0.3 3.5-0.7 7-0.9 10.7 0.7 0 1.5 0.1 2.2 0.1 0.8 0 1.5 0.1 2.3 0.1 0.3-3.5 0.6-7 0.9-10.6-0.1 0.1 0.2-4.6-1.9-4.8z"/><path fill-rule="evenodd" class="c" d="m1479.7 721c-1.7-0.1-2.2 4.5-2.2 4.5-0.3 3.5-0.6 7-0.9 10.7 0.6 0 1.3 0.1 1.9 0.1 0.6 0 1.2 0.1 1.9 0.1 0.2-3.5 0.6-7 0.9-10.6 0 0.1 0.3-4.7-1.6-4.8z"/><path fill-rule="evenodd" class="g" d="m1480.5 597.3c-0.1 1.1 0.8 2.1 2 2.3q33.9 1.3 67.4 6c1.1 0.1 2.2-0.6 2.2-1.9 0.1-1.1-0.7-2.3-1.9-2.4q-33.5-4.7-67.3-6c-1.3-0.1-2.3 0.9-2.4 2z"/><path fill-rule="evenodd" class="g" d="m1478.4 622.3c-0.2 1.1 0.7 2.1 2 2.2q33.8 1.3 67.3 6c1.2 0.2 2.3-0.6 2.3-1.8 0.1-1.2-0.8-2.3-1.9-2.4q-33.5-4.7-67.4-6c-1.2-0.2-2.3 0.7-2.3 2z"/><path fill-rule="evenodd" class="g" d="m1476.2 646.1c-0.1 1.1 0.8 2.1 2 2.3q33.9 1.3 67.4 6c1.1 0.1 2.3-0.6 2.3-1.9 0.1-1.1-0.8-2.3-1.9-2.4q-33.5-4.7-67.4-6c-1.2 0-2.2 0.9-2.4 2z"/><path fill-rule="evenodd" class="g" d="m1474.2 669.1c-0.1 1.1 0.8 2.1 2 2.2q33.9 1.3 67.4 6c1.1 0.2 2.2-0.6 2.2-1.8 0.2-1.2-0.7-2.3-1.8-2.4q-33.5-4.7-67.4-6c-1.2-0.2-2.2 0.8-2.4 2z"/><path fill-rule="evenodd" class="g" d="m1472.1 693c-0.1 1.1 0.7 2.1 2 2.3q33.9 1.3 67.4 6c1.1 0.1 2.2-0.6 2.2-1.9 0.1-1.1-0.7-2.2-1.9-2.4q-33.5-4.7-67.3-6c-1.3-0.1-2.3 0.8-2.4 2z"/><path fill-rule="evenodd" class="g" d="m1470.1 716.8c-0.1 1.2 0.7 2.2 2 2.3q33.9 1.3 67.4 6c1.1 0.2 2.2-0.6 2.2-1.9 0.1-1.1-0.7-2.2-1.9-2.3q-33.5-4.7-67.3-6.1c-1.3 0-2.4 0.9-2.4 2z"/><path fill-rule="evenodd" class="g" d="m1468 740.2c-0.2 1.1 0.7 2.1 2 2.2q33.8 1.4 67.3 6.1c1.1 0.1 2.3-0.7 2.3-1.9 0.1-1.2-0.8-2.3-1.9-2.4q-33.5-4.7-67.4-6c-1.2 0-2.2 0.8-2.3 2z"/><path fill-rule="evenodd" class="g" d="m1492.3 573.2c-0.1 0.9 0.6 1.7 1.4 1.7 16.4 0.6 32.7 2 49 4.3 0.9 0.2 1.6-0.5 1.6-1.3 0.2-0.9-0.5-1.7-1.3-1.8-16.2-2.2-32.6-3.8-49.1-4.4-0.7 0-1.5 0.6-1.6 1.5z"/><path fill-rule="evenodd" class="c" d="m1506.6 753c0 0 0.4-5.8-3-6-3.4-0.3-4 5.5-4 5.5-0.3 3.4-1.8 18-2.5 26.3h7c0.9-8.5 2.2-22.6 2.5-25.8z"/><path fill-rule="evenodd" class="c" d="m1516.7 753.8c0 0 0.4-5.7-2.6-6.1-3-0.2-3.6 5.5-3.6 5.5-0.3 3.3-1.7 17-2.5 25.4h6.2c1-8.4 2.3-21.5 2.5-24.8z"/><path fill-rule="evenodd" class="c" d="m1525.9 754.9c0 0 0.4-5.8-2.3-6.1-2.6-0.2-3.2 5.6-3.2 5.6-0.3 3.1-1.5 15.9-2.4 24.3h5.5c0.9-8.5 2-20.7 2.4-23.8z"/><path fill-rule="evenodd" class="c" d="m1495.8 752c0 0 0.4-5.8-2.6-6.1-3-0.2-3.7 5.6-3.7 5.6-0.2 3.5-1.9 19-2.6 27.1h6.3c0.7-8.2 2.2-23.1 2.6-26.6z"/><path fill-rule="evenodd" class="c" d="m1485.9 751.2c0 0 0.4-5.8-2.3-6-2.6-0.1-3.2 5.6-3.2 5.6-0.4 3.7-1.9 20-2.7 27.9h5.4c0.9-8 2.5-23.8 2.8-27.5z"/><path fill-rule="evenodd" class="g" d="m1465.9 781.4c0 1.6 1.4 2.8 3.1 2.8h65.6c1.6 0 3-1.2 3-2.8 0-1.5-1.4-2.7-3-2.7h-65.6c-1.7 0-3.1 1.2-3.1 2.7z"/><path fill-rule="evenodd" class="g" d="m1314.3 771.7v5.6h-21.2v-5.6h1.1c-0.8-1.8-1.8-3.8-3-6.2-12-18.2-27.4-16.9-27.4-16.9 0 0-15.5-1.3-27.5 16.9-1 2.4-2 4.4-3 6.2h1.1v5.6h-21.2v-5.6h3.5c2.9-6.7 9.5-22.2 16.1-37.7h-5v-9.9h9.1c5.5-13.3 10.4-25.1 11.8-29.5l-3.1-1.3v-5.1h5.1c5.4-11.1 8.9-116.7 9.7-143.6l-3.7-3.5h2.8c-0.1-0.2-0.1-0.6-0.1-1 0-2.6 1.6-5 3.6-5.4 0.1-0.7 0.1-1.5 0.1-2.4-0.4-0.2-0.6-0.6-0.6-1.1 0-0.5 0.4-0.9 0.7-1.1q0-0.6 0-1.2c-0.5-0.1-0.8-0.6-0.8-1.2 0-0.6 0.5-1.3 1-1.4 0-0.2 0-0.6 0-0.9-0.4-0.1-0.7-0.5-0.7-0.8 0-0.5 0.4-0.9 0.8-1 0.1-2.7 0.3-5.3 0.4-7.7 0.1 2.4 0.2 5 0.4 7.7 0.5 0.2 0.7 0.5 0.7 1 0 0.3-0.2 0.7-0.6 0.8 0 0.3 0 0.7 0 0.9 0.6 0.3 1 0.8 1 1.4 0 0.5-0.4 1-0.9 1.2q0 0.6 0 1.2 0.8 0.4 0.8 1.1c0 0.5-0.3 0.9-0.7 1.1 0.2 0.9 0.2 1.7 0.2 2.4 2 0.4 3.6 2.7 3.6 5.4 0 0.4-0.1 0.6-0.1 1h2.7l-3.6 3.5c0.9 26.9 4.4 132.5 9.6 143.6h5.2v5.1l-3.1 1.3c1.3 4.4 6.2 16.2 11.7 29.5h9.2v9.9h-5c6.5 15.6 13.2 31 16 37.7zm-23.3-45.3v5.5h1.5v-5.5zm6.3 0.1v5.5h1.2v-5.5zm-9.4-0.1v5.5h1.5v-5.5zm0.4 29.8l-3.9-9.5h-11.3c0 0 7.6 1.9 15.2 9.5zm-42.5-13.6v1.1h36.4v-1.1zm9.1 4.1h-11.3l-3.9 9.5c7.7-7.6 15.2-9.5 15.2-9.5zm-16.7-20.2v5.5h1.5v-5.5zm3.2 0v5.5h1.5v-5.5zm3.1 0v5.5h1.5v-5.5zm3.2 0v5.5h1.5v-5.5zm1.9-34.1h0.7v-2.8h-0.7zm1.1 34.1v5.6h1.5v-5.6zm0.4-34.1h0.7v-2.7h-0.7zm2.7 34.1v5.5h1.5v-5.5zm3.2 0v5.5h1.5v-5.5zm3.1 0v5.5h1.5v-5.5zm3 0v5.5h1.5v-5.5zm3.2 0v5.5h1.5v-5.5zm3.1 0v5.5h1.5v-5.5zm3 0v5.5h1.5v-5.5zm-20.2-2.3h23.7c-5.2-15.3-9.4-28.4-10.1-30.8h-3.4c-0.8 2.5-4.9 15.7-10.2 30.8zm0.5-31.8h0.8v-2.8h-0.8zm1.5 0h0.8v-2.8h-0.8zm1.7 0h0.7v-2.7h-0.7zm1.5 0h0.7v-2.8h-0.7zm1.6 0h0.8v-2.7h-0.8zm1.5 0h0.8v-2.8h-0.8zm1.5-2.7v2.7h0.8v-2.7zm3.1 2.7h0.8v-2.7h-0.8zm-1.5-2.8v2.8h0.7v-2.8zm1.7-3.4c0 0-1-11.3-1.3-19.9-0.2 8.6-1.2 19.9-1.2 19.9zm1.5 3.4v2.8h0.7v-2.8zm1.5 2.8h0.8v-2.8h-0.8zm1.7 0h0.7v-2.8h-0.7zm1.5 0h0.7v-2.7h-0.7zm1.6 0h0.8v-2.8h-0.8zm1.5 0h0.8v-2.7h-0.8zm1 34.1v5.5h1.5v-5.5zm0.6-34.1h0.8v-2.8h-0.8zm1.5 0h0.8v-2.8h-0.8zm1 34.2v5.5h1.6v-5.5zm3.1 0v5.5h1.5v-5.5zm3.1 0v5.5h1.5v-5.5zm-49.6-0.2v5.5h1.5v-5.5zm-3.2 0v5.5h1.5v-5.5zm-1.6 0h-1v5.5h1zm18.2-36.7h-0.8v2.8h0.8zm-1.5 0h-0.5v2.7h0.5zm32 2.8h0.7v-2.8h-0.7zm1.6 0h0.6v-2.7h-0.6zm13.4 33.9v5.6h1.5v-5.6z"/><path fill-rule="evenodd" class="G" d="m1159.4 667.6c-87.7 24.7-30 49.5-242.6 49.5-63.6 0-375 56.8-197.5 151.6 150.6 80.6 328.8 24 381 191.2 49.9 159.8-150.6 158.8-252.5 158.8"/><path fill-rule="evenodd" class="H" d="m1135.3 613.7c20 20 18.7 51.5 0 72.4l-36.2 40.8-36.3-40.8c-18.7-21.1-19.9-52.5 0-72.4 20-19.8 52.6-19.8 72.5 0z"/><path fill-rule="evenodd" class="c" d="m1099.1 680.2c-17.2 0-31-13.8-31-31 0-17.1 13.8-30.9 31-30.9 17.1 0 30.9 13.8 30.9 30.9 0 17.2-13.8 31-30.9 31z"/><path fill-rule="evenodd" class="B" d="m1099.1 673.2c-13.3 0-24-10.7-24-24 0-13.2 10.7-23.9 24-23.9 13.2 0 23.9 10.7 23.9 23.9 0 13.3-10.7 24-23.9 24z"/><path fill-rule="evenodd" class="H" d="m767 769.7c20 19.9 18.7 51.4 0 72.3l-36.2 40.8-36.3-40.8c-18.6-21-19.9-52.5 0-72.3 20-20 52.6-20 72.5 0z"/><path fill-rule="evenodd" class="c" d="m730.8 836c-17.1 0-31-13.8-31-31 0-17.1 13.9-31 31-31 17.1 0 31 13.9 31 31 0 17.2-13.9 31-31 31z"/><path fill-rule="evenodd" class="B" d="m730.8 829c-13.3 0-24-10.7-24-24 0-13.2 10.7-23.9 24-23.9 13.2 0 23.9 10.7 23.9 23.9 0 13.3-10.7 24-23.9 24z"/><path fill-rule="evenodd" class="H" d="m1095.5 884.2c20 19.9 18.7 51.4 0 72.3l-36.2 40.8-36.3-40.8c-18.6-21-19.9-52.5 0-72.3 20-20 52.6-20 72.5 0z"/><path fill-rule="evenodd" class="c" d="m1059.3 950.5c-17.1 0-31-13.8-31-31 0-17.1 13.9-30.9 31-30.9 17.1 0 31 13.8 31 30.9 0 17.2-13.9 31-31 31z"/><path fill-rule="evenodd" class="B" d="m1059.3 943.5c-13.3 0-24-10.7-24-24 0-13.2 10.7-23.9 24-23.9 13.2 0 24 10.7 24 23.9 0 13.3-10.8 24-24 24z"/><path fill-rule="evenodd" class="H" d="m896.9 1117.6c19.9 19.9 18.7 51.3 0 72.4l-36.3 40.7-36.2-40.7c-18.7-21.1-20-52.6 0-72.4 19.9-19.8 52.5-19.8 72.5 0z"/><path fill-rule="evenodd" class="c" d="m860.6 1184.1c-17.1 0-31-13.9-31-31 0-17.1 13.9-31 31-31 17.1 0 31 13.9 31 31 0 17.1-13.9 31-31 31z"/><path fill-rule="evenodd" class="B" d="m860.6 1177.1c-13.2 0-23.9-10.8-23.9-24 0-13.2 10.7-24 23.9-24 13.3 0 24 10.8 24 24 0 13.2-10.7 24-24 24z"/><path fill-rule="evenodd" class="c" d="m1734.7 850.7c-4.7 65.5-14.4 74.5-76.7 79.5 62.3 5 72 14.1 76.7 79.5 4.8-65.4 14.5-74.5 76.8-79.5-62.3-5.1-72-14.2-76.8-79.5z"/><path  d="m98.4 1649.8h109.7l-4.2 29.9h-39.9l-15.3 109.8h-30l15.4-109.8h-39.9zm129.2 139.7h-30l13.9-99.8h29.9l-0.8 6.3q5.6-4.3 12.3-6.7 6.8-2.4 13.9-2.4 5.4 0 10.7 1.6l-16 30.4q-3.2-1.6-7-1.6-4.7 0-8.9 2.3-4.1 2.1-6.9 6-2.6 3.8-3.3 8.5zm127.4-90.2l-0.1-9.5h30l-14 99.7h-30l-0.2-9q-4.5 5.2-10.6 8.4-6 3.2-13.5 3.2-11.1 0-20.3-4.2-9.1-4.2-15.5-11.5-6.3-7.5-9.1-17.2-2.8-9.8-1.2-21 1.5-10.6 6.7-19.9 5.3-9.3 13.2-16.3 8-7 17.8-11 9.8-4 20.4-4 8.6 0 15.1 3.6 6.5 3.5 11.3 8.7zm-35.2 64.1q6.2 0 11.7-3.2 5.6-3.2 9.4-8.6 3.8-5.4 4.7-12 0.9-6.5-1.4-11.9-2.2-5.4-6.9-8.6-4.6-3.2-10.8-3.2-6.2 0-11.7 3.2-5.5 3.2-9.1 8.6-3.7 5.4-4.6 11.9-0.9 6.6 1.3 12 2.2 5.4 6.7 8.6 4.6 3.2 10.7 3.2zm184.4-73.6l-50.3 99.7h-38.7l-22.4-99.7h32l14.5 65.4 32.9-65.4zm39.5 102.3q-13.7 0-24.1-7.1-10.3-7.1-15.4-19-4.9-12-3-26.5 1.5-10.8 6.7-20.3 5.3-9.6 13.2-16.8 7.9-7.2 17.5-11.3 9.6-4.1 19.9-4.1 12 0 21.2 5.3 9.1 5.1 14.7 14.1 5.7 8.9 6.9 20.1 1.3 11.1-2.6 23h-66.5q0.9 3.5 2.8 6.4 2 2.8 5.1 4.5 3.2 1.7 7.8 1.8 4.4 0.1 8.4-1.9 4.1-2 7.3-5.4l29.5 7.1q-7.9 13.3-21.1 21.7-13.3 8.4-28.3 8.4zm-9.5-64.5h37.4q-0.8-4.3-3.2-7.6-2.3-3.3-5.8-5.2-3.4-1.9-7.7-1.9-4.2 0-8.2 1.9-4 1.9-7.2 5.2-3.2 3.3-5.3 7.6zm102.8 61.9h-29.9l20.9-149.6h30zm102.3 0h-30.5l46.7-139.7h25.5l19.7 82.4 42.9-82.4h25.6l7.6 139.7h-30.6l-4-75.4-39.1 75.4h-20.7l-18-75.4zm235.1-90.2l-0.1-9.6h30l-14 99.8h-30l-0.2-9q-4.5 5.2-10.6 8.4-6 3.2-13.5 3.2-11.1 0-20.3-4.2-9.1-4.2-15.5-11.6-6.3-7.5-9-17.1-2.8-9.8-1.2-21 1.5-10.7 6.6-19.9 5.3-9.3 13.2-16.3 8-7.1 17.8-11.1 9.8-4 20.4-4 8.6 0 15.1 3.6 6.6 3.5 11.3 8.8zm-35.2 64q6.2 0 11.7-3.1 5.6-3.2 9.4-8.6 3.8-5.4 4.7-12 0.9-6.6-1.4-12-2.2-5.4-6.9-8.5-4.6-3.2-10.8-3.2-6.2 0-11.7 3.2-5.4 3.1-9.1 8.5-3.7 5.4-4.6 12-0.9 6.6 1.3 12 2.2 5.4 6.8 8.6 4.5 3.1 10.6 3.1zm173.6-37.6l-8.9 63.8h-29.9l7.8-55.4q0.7-4.7-1.1-8.5-1.8-3.8-5.3-6-3.5-2.3-8.2-2.3-4.7 0-8.9 2.3-4.1 2.2-6.8 6-2.7 3.8-3.4 8.5l-7.8 55.4h-29.9l13.8-99.8h29.9l-0.8 6.3q5.6-4.3 12.3-6.7 6.8-2.4 13.9-2.4 10.8 0 18.7 5.3 8.1 5.2 12.1 14 4.1 8.8 2.5 19.5zm94.8-26.4l-0.1-9.6h29.9l-14 99.8h-30l-0.2-9q-4.5 5.2-10.6 8.4-6 3.2-13.4 3.2-11.2 0-20.4-4.2-9.1-4.2-15.5-11.6-6.2-7.5-9-17.1-2.8-9.8-1.2-21 1.5-10.7 6.7-19.9 5.2-9.3 13.1-16.3 8-7.1 17.8-11.1 9.9-4 20.4-4 8.6 0 15.1 3.6 6.6 3.5 11.4 8.8zm-35.3 64q6.2 0 11.7-3.1 5.6-3.2 9.4-8.6 3.8-5.4 4.7-12 0.9-6.6-1.4-12-2.2-5.4-6.9-8.5-4.6-3.2-10.8-3.2-6.2 0-11.6 3.2-5.5 3.1-9.2 8.5-3.7 5.4-4.6 12-0.9 6.6 1.3 12 2.2 5.4 6.8 8.6 4.6 3.1 10.6 3.1zm153.1-64.8l1.2-8.8h29.9l-14.2 100.8q-1.6 11.4-7.5 20.4-5.7 9-14.5 15.4-8.8 6.4-19.5 9.8-10.6 3.3-22 3.3-10.6 0-19.7-4-9-4.1-15.6-11.3-6.6-7.2-9.7-16.7l29.1-12.3q1.5 4.5 4.4 7.6 3 3.1 7 4.8 4.1 1.7 8.8 1.7 5.2 0 10-1.1 5-1.1 9.1-3.4 4.1-2.3 6.8-5.7 2.7-3.6 3.4-8.5l1.4-9.8q-5.2 5.1-11.8 8.3-6.6 3.1-14.5 3.1-10.9 0-19.9-4.1-8.9-4.1-15.1-11.3-6.1-7.3-8.9-16.7-2.7-9.5-1.2-20.4 1.5-10.9 6.9-20.3 5.4-9.5 13.6-16.7 8.3-7.3 18.4-11.4 10.1-4.1 20.9-4.1 8 0 13.7 3.2 5.7 3.1 9.5 8.2zm-33.5 64.8q6.1 0 11.6-3.1 5.6-3.2 9.4-8.6 3.8-5.4 4.7-12 0.9-6.6-1.4-12-2.2-5.4-6.9-8.5-4.6-3.2-10.8-3.2-6.1 0-11.5 3.2-5.5 3.1-9.3 8.5-3.7 5.4-4.6 12-0.9 6.6 1.3 12 2.2 5.4 6.8 8.6 4.6 3.1 10.7 3.1zm115.1 28.8q-13.8 0-24.2-7.1-10.3-7.1-15.3-19.1-5-11.9-3-26.4 1.5-10.9 6.7-20.3 5.2-9.6 13.1-16.8 7.9-7.3 17.5-11.4 9.7-4.1 19.9-4.1 12 0 21.2 5.3 9.1 5.2 14.7 14.2 5.7 8.9 6.9 20 1.3 11.2-2.6 23.1h-66.5q0.9 3.5 2.8 6.4 2 2.8 5.2 4.5 3.2 1.7 7.8 1.7 4.3 0.1 8.3-1.8 4.1-2 7.3-5.4l29.5 7.1q-7.8 13.2-21.1 21.7-13.3 8.4-28.2 8.4zm-9.6-64.6h37.4q-0.8-4.3-3.2-7.5-2.3-3.3-5.8-5.2-3.4-1.9-7.7-1.9-4.2 0-8.1 1.9-4 1.9-7.3 5.2-3.2 3.2-5.3 7.5zm104.7 62h-29.9l14-99.8h29.9l-0.9 6.3q5.6-4.3 12.3-6.7 6.7-2.4 13.8-2.4 10 0 17.7 4.6 7.8 4.5 12 12.1 6.2-7.6 15.2-12.1 9-4.6 18.9-4.6 10.7 0 18.7 5.3 8.1 5.2 12.1 14 4.1 8.8 2.5 19.5l-8.9 63.8h-29.9l7.8-55.4q0.7-4.7-1.1-8.5-1.8-3.7-5.3-6-3.5-2.3-8.2-2.3-4.7 0-8.9 2.3-4.1 2.3-6.9 6-2.8 3.8-3.5 8.5l-7.7 55.4h-30l7.8-55.4q0.7-4.7-1.1-8.5-1.7-3.7-5.3-6-3.5-2.3-8.1-2.3-4.6 0-8.8 2.3-4.1 2.3-6.9 6-2.8 3.8-3.5 8.5zm188.8 2.6q-13.7 0-24.1-7.1-10.3-7.1-15.4-19-5-12-3-26.5 1.5-10.8 6.7-20.3 5.3-9.6 13.2-16.8 7.9-7.2 17.4-11.3 9.7-4.1 20-4.1 12 0 21.1 5.3 9.2 5.2 14.8 14.1 5.7 8.9 6.9 20.1 1.3 11.2-2.6 23h-66.5q0.9 3.5 2.8 6.4 1.9 2.8 5.1 4.5 3.2 1.7 7.8 1.8 4.4 0.1 8.4-1.9 4.1-2 7.3-5.4l29.5 7.1q-7.9 13.3-21.1 21.7-13.3 8.4-28.3 8.4zm-9.5-64.5h37.4q-0.8-4.3-3.2-7.6-2.3-3.3-5.8-5.2-3.4-1.9-7.7-1.9-4.2 0-8.2 1.9-4 1.9-7.3 5.2-3.2 3.3-5.2 7.6zm177.3-1.8l-8.9 63.7h-29.9l7.8-55.3q0.7-4.7-1.1-8.5-1.8-3.9-5.3-6.1-3.5-2.3-8.2-2.3-4.7 0-8.9 2.3-4 2.2-6.8 6.1-2.7 3.8-3.4 8.5l-7.8 55.3h-29.9l13.8-99.7h30l-0.8 6.3q5.5-4.3 12.2-6.7 6.8-2.4 13.9-2.4 10.8 0 18.7 5.3 8.1 5.2 12.1 13.9 4.1 8.8 2.5 19.6zm79.9-36l-4.2 29.9h-16.9l-9.8 69.8h-29.9l9.7-69.8h-12.9l4.2-29.9h12.9l4.4-31.4h29.9l-4.3 31.4z"/></svg>