<?xml version="1.0" encoding="utf-8"?>
<!-- Generator: Adobe Illustrator 21.0.0, SVG Export Plug-In . SVG Version: 6.00 Build 0)  -->
<svg version="1.1" id="Layer_1" xmlns="http://www.w3.org/2000/svg" xmlns:xlink="http://www.w3.org/1999/xlink" x="0px" y="0px"
	 viewBox="0 0 450 426.4" style="enable-background:new 0 0 450 426.4;" xml:space="preserve">
<style type="text/css">
	.st0{fill:#E5F3F9;}
	.st1{fill:#BEE1F4;}
	.st2{fill:#043059;}
	.st3{fill:#83BDF0;}
	.st4{fill:#0569BD;}
	.st5{opacity:0.38;fill:#001C41;}
	.st6{opacity:0.46;fill:#2374B8;}
	.st7{fill:#F8AC9B;}
	.st8{opacity:0.39;fill:#1D547B;}
	.st9{fill:#76BBF5;}
	.st10{fill:#003F8C;}
	.st11{fill:#64BB46;}
	.st12{fill:#000005;}
	.st13{fill:#FFFFFF;}
	.st14{fill:#EEEEEE;}
	.st15{fill:#4B9B2D;}
	.st16{fill:#00424C;}
	.st17{fill:#51D5F4;}
	.st18{opacity:0.57;}
	.st19{fill:#00B0EF;}
	.st20{fill:#7F3100;}
	.st21{display:none;}
	.st22{display:inline;fill:#043059;}
	.st23{display:inline;fill:#83BDF0;}
	.st24{display:inline;fill:#0569BD;}
	.st25{display:inline;fill:#64BB46;}
	.st26{display:inline;fill:#4B9B2D;}
	.st27{display:inline;fill:#F8AC9B;}
</style>
<g>
	<g>
		<path class="st0" d="M318.8,176.4c3.2,3.1,7.8,4.7,12.3,4.6c5.2-0.2,10.2-2.5,14.2-5.8c0.1-0.1,0.2-0.2,0.3-0.3
			c-1,0-1.9-0.1-2.9-0.2c-4.4-0.4-9-0.9-12.8-2.9c6.7,1.1,13.8,0.5,20.2-1.7c2.4-3,4.2-6.4,5.5-10c-0.8,0.5-1.7,1-2.5,1.3
			c-5.8,2.7-12.4,2.7-18.7,1.7c8.1-2,15.8-5.1,23-9.3c0.5-3,0.7-6,0.4-9c-0.8,0.8-1.5,1.7-2.2,2.6c-1.3,1.8-2.3,3.8-4,5.2
			c-2.3,1.9-5.5,2.1-8.5,2.2c-1.5,0-3,0.1-4.6,0c1.8-0.6,3.6-1.3,5.4-2.1c1.6-0.6,3.1-1.3,4.6-2.2c3.7-2.2,6.4-5.5,8.9-9.1
			c-0.3-1.9-0.8-3.7-1.5-5.5c-3.9,3.7-8.5,6.7-13.5,8.7c4.5-3.4,8.7-7.3,12.2-11.6c-0.7-1.6-1.6-3-2.6-4.5
			c-3.3,4.1-7.7,7.3-12.5,9.4c4.1-3.4,7.6-7.7,10.2-12.4c-0.9-1-1.8-2-2.7-2.9c-0.8,1-1.7,1.9-2.7,2.7c-0.8,0.7-1.8,1.3-2.7,1.8
			c1.4-1.9,2.6-4,3.6-6.2c-1.3-1.1-2.6-2.2-4-3.1L318.8,176.4z"/>
		<path class="st0" d="M318.8,176.4c-2.3,0.6-6.5,0.1-8.7-0.9c-2.4-1.1-4.7-2.7-6.5-4.7c-3.5-3.9-4.9-9.3-5.4-14.5
			c1.9,1.7,3.9,3.2,6.2,4.4c2.3,1.2,4.8,2,7.3,2.9c-2.5-2.5-4.7-5.3-7.5-7.4c-1-0.8-2-1.5-2.9-2.3c-1.3-1.1-2.3-2.4-3.2-3.9
			c0.3-4.1,1.2-8.2,2.9-12c0.6,1.9,1.5,3.7,2.3,5.5c1,2,2.1,4,3.6,5.5c1.2,1.2,2.6,2.1,4.1,2.8c-0.9-0.9-1.7-1.9-2.4-3
			c-3.1-4.7-4-10.4-4.7-16c1.2-1.7,2.7-3.2,4.2-4.6c0.4,3.6,1.4,7.1,3,10.4c1.5,3,3.5,5.7,5.9,8c-0.5-0.9-0.9-1.8-1.3-2.7
			c-1.3-2.8-2.5-5.7-3.3-8.7c-0.5-1.8-0.8-3.7-1-5.6c-0.1-0.9-0.2-1.9-0.2-2.8c0-0.4,0-0.7,0.1-1.1c1.7-1.2,3.5-2.3,5.4-3.2
			c-0.4,2.5-0.5,4.9,0,7.4c0.3,1.5,0.8,2.9,1.4,4.3c1.2,2.9,2.7,5.6,4.7,8.1c-3.2-6.7-4.1-14.6-1.8-21.6c1.4-0.5,2.8-0.9,4.2-1.2
			c-0.5,2.9-0.5,5.9,0.1,8.8c0.2-3.2,1.1-6.4,2.6-9.2c1.6-0.2,3.3-0.4,4.9-0.5c-0.3,1.8-0.4,3.7-0.2,5.6c0.4-2,1.1-3.9,2.1-5.7
			c2-0.1,4.1-0.3,6.3-0.5L318.8,176.4z"/>
		<path class="st1" d="M326,167.3c1.2,0.1,2.3,0.2,3.5,0.2c2.3,0.1,4.7,0.2,7,0.1c2.3-0.1,4.7-0.2,7-0.4c2.3-0.3,4.6-0.6,6.9-1.1
			c-2.3,0.5-4.6,0.8-6.9,1s-4.6,0.2-6.9,0.2s-4.6-0.1-6.9-0.3c-1.2-0.1-2.3-0.2-3.5-0.3l-2.6-0.3l2.5-6.9c1.5,0.1,3.1,0.2,4.6,0.1
			c1.7-0.1,3.4-0.2,5.1-0.4c3.4-0.4,6.7-1.1,10-2.1c-3.3,0.9-6.6,1.5-10,1.8c-1.7,0.2-3.4,0.2-5.1,0.2c-1.5,0-2.9-0.1-4.3-0.3
			l2.4-6.5c2.1-0.1,4.1-0.2,6.1-0.7c2.1-0.5,4.3-1.1,6.3-1.9c2-0.8,4-1.7,5.9-2.8s3.7-2.3,5.5-3.6c-1.7,1.3-3.6,2.5-5.5,3.5
			s-3.9,1.9-5.9,2.7s-4.1,1.3-6.3,1.7c-1.9,0.4-3.9,0.5-5.8,0.5l2.5-6.9c1.7-0.4,3.5-0.8,5.1-1.5c1.7-0.7,3.4-1.4,5-2.4
			c1.6-0.9,3.2-1.9,4.6-3c1.5-1.1,2.9-2.3,4.2-3.6c-1.3,1.3-2.8,2.4-4.3,3.5s-3.1,2-4.7,2.9s-3.3,1.6-5,2.2
			c-1.5,0.6-3.1,0.9-4.7,1.2l2.6-7.2c2.1-1.1,4.1-2.4,6-3.9s3.7-3.2,5.2-5c-1.6,1.8-3.4,3.4-5.3,4.9c-1.8,1.4-3.7,2.5-5.7,3.6
			l4.6-12.5l-6.6,16.5c-0.6-1.2-1.2-2.4-1.6-3.7c-0.3-0.7-0.5-1.5-0.7-2.2c-0.2-0.8-0.4-1.5-0.5-2.3c-0.2-1.5-0.4-3.1-0.4-4.6
			c0-1.5,0.1-3.1,0.4-4.6c-0.3,1.5-0.4,3.1-0.5,4.6c0,1.6,0.1,3.1,0.3,4.6c0.1,0.8,0.3,1.5,0.4,2.3c0.2,0.8,0.4,1.5,0.6,2.2
			c0.4,1.4,1.1,2.8,1.7,4.1l-2.6,6.5c-1.2-1.6-2.3-3.2-3.1-5c-1-1.9-1.8-4-2.4-6.1s-1-4.3-1.2-6.4c-0.2-2.2-0.2-4.4,0.1-6.6
			c-0.4,2.2-0.4,4.4-0.3,6.6s0.5,4.4,1.1,6.5s1.3,4.2,2.3,6.2c0.9,1.9,2.1,3.7,3.3,5.4l-2.4,6l-0.8-0.8l-0.6-0.7l-0.6-0.7l-1.2-1.4
			l-1.1-1.5c-1.4-2-2.7-4.1-3.8-6.3c-1.1-2.2-2-4.5-2.8-6.9s-1.4-4.8-1.8-7.2c0.3,2.5,0.9,4.9,1.6,7.3c0.7,2.4,1.6,4.7,2.6,7
			s2.3,4.4,3.7,6.5l1.1,1.5l1.2,1.5l0.6,0.7l0.6,0.7l1,1l-1.5,3.6c-1.7-1.1-3.4-2.2-4.9-3.5c-1.7-1.5-3.3-3-4.7-4.8
			c-1.5-1.7-2.8-3.5-4.1-5.4c-1.2-1.9-2.4-3.8-3.4-5.9c0.9,2.1,2,4,3.2,6c1.2,1.9,2.5,3.8,3.9,5.5c1.4,1.8,3,3.4,4.7,4.9
			c1.5,1.4,3.2,2.7,5,3.8l-1.7,4.1c-0.8-0.3-1.6-0.7-2.3-1c-1-0.5-2-0.9-2.9-1.5c-1.9-1-3.8-2.1-5.6-3.3c-1.8-1.2-3.6-2.5-5.2-3.9
			c-1.7-1.4-3.3-2.9-4.7-4.5c1.4,1.7,3,3.2,4.6,4.6c1.6,1.4,3.4,2.8,5.2,4.1c1.8,1.2,3.6,2.5,5.5,3.5c0.9,0.6,1.9,1,2.9,1.6
			c0.8,0.4,1.6,0.8,2.3,1.1l-3.4,8.5c-1.6-0.2-3.3-0.6-4.8-1.1c-1.8-0.7-3.5-1.6-5.1-2.7c-1.6-1.1-3.1-2.3-4.6-3.6
			c-1.4-1.3-2.8-2.7-4-4.2c1.2,1.6,2.5,3,3.9,4.4s2.9,2.6,4.5,3.8c1.6,1.1,3.3,2.1,5.1,2.9c1.5,0.6,3.1,1.1,4.8,1.3l-6,14.8l2.1,0.8
			l5.5-15.1c1.2,0.6,2.4,1.1,3.6,1.5c1.5,0.5,3.1,0.9,4.6,1.2c1.6,0.3,3.2,0.5,4.7,0.6c1.6,0.1,3.2,0,4.8-0.2
			c-1.6,0.1-3.2,0.1-4.7,0c-1.6-0.1-3.1-0.4-4.7-0.7c-1.5-0.4-3.1-0.8-4.5-1.4c-1.2-0.5-2.4-1-3.5-1.7l2.1-5.9L326,167.3z"/>
	</g>
	<g>
		<path class="st0" d="M58.8,260.7c3.1-3.2,4.6-7.9,4.4-12.3c-0.2-5.2-2.6-10.2-6.1-14.1c-0.1-0.1-0.2-0.2-0.3-0.3
			c0,1-0.1,1.9-0.1,2.9c-0.3,4.4-0.7,9-2.7,12.8c1-6.8,0.3-13.8-2-20.2c-3.1-2.3-6.5-4.1-10.1-5.4c0.5,0.8,1,1.6,1.4,2.5
			c2.8,5.7,2.9,12.3,2.1,18.7c-2.1-8-5.4-15.7-9.7-22.8c-3-0.5-6-0.6-9-0.3c0.8,0.8,1.7,1.5,2.6,2.2c1.8,1.3,3.9,2.2,5.3,3.9
			c1.9,2.3,2.2,5.5,2.3,8.5c0.1,1.5,0.1,3,0.1,4.6c-0.7-1.8-1.4-3.6-2.1-5.3c-0.7-1.6-1.4-3.1-2.3-4.6c-2.3-3.6-5.7-6.3-9.2-8.7
			c-1.9,0.4-3.7,0.9-5.5,1.6c3.8,3.8,6.8,8.4,9,13.3c-3.4-4.5-7.4-8.5-11.8-12c-1.6,0.8-3,1.7-4.4,2.7c4.1,3.3,7.5,7.5,9.6,12.4
			c-3.5-4.1-7.8-7.5-12.6-9.9c-1,0.9-2,1.8-2.9,2.8c1,0.8,1.9,1.7,2.7,2.6c0.7,0.8,1.3,1.7,1.9,2.7c-1.9-1.4-4-2.6-6.2-3.5
			c-1.1,1.3-2.1,2.6-3,4L58.8,260.7z"/>
		<path class="st0" d="M58.8,260.7c0.7,2.3,0.2,6.5-0.8,8.7c-1.1,2.5-2.6,4.7-4.6,6.6c-3.9,3.6-9.2,5.1-14.4,5.6
			c1.7-1.9,3.2-4,4.3-6.3c1.2-2.4,2-4.9,2.7-7.4c-2.4,2.5-5.2,4.8-7.3,7.6c-0.8,1-1.4,2-2.2,3c-1.1,1.3-2.4,2.4-3.8,3.3
			c-4.2-0.2-8.3-1-12-2.7c1.9-0.6,3.7-1.5,5.4-2.4c2-1,3.9-2.1,5.5-3.7c1.2-1.2,2-2.7,2.7-4.2c-0.9,0.9-1.9,1.7-2.9,2.4
			c-4.6,3.2-10.3,4.2-15.9,5c-1.7-1.2-3.2-2.6-4.6-4.1c3.6-0.4,7.1-1.5,10.3-3.2c2.9-1.5,5.6-3.6,7.9-6c-0.9,0.5-1.8,0.9-2.6,1.3
			c-2.8,1.3-5.6,2.6-8.6,3.5c-1.8,0.5-3.7,0.9-5.6,1.1c-0.9,0.1-1.9,0.3-2.8,0.3c-0.4,0-0.7,0-1.1-0.1c-1.2-1.7-2.3-3.5-3.3-5.3
			c2.5,0.4,4.9,0.4,7.4-0.2c1.5-0.3,2.9-0.9,4.3-1.5c2.8-1.3,5.6-2.8,8-4.8c-6.6,3.3-14.5,4.3-21.6,2.2c-0.5-1.4-0.9-2.8-1.3-4.2
			c2.9,0.5,5.9,0.4,8.8-0.2c-3.2-0.2-6.4-1-9.3-2.5c-0.3-1.6-0.4-3.2-0.6-4.9c1.8,0.3,3.7,0.3,5.6,0.1c-2-0.3-3.9-1-5.7-2
			c-0.2-2-0.3-4.1-0.6-6.3L58.8,260.7z"/>
		<path class="st1" d="M49.7,253.7c0.1-1.2,0.2-2.3,0.2-3.5c0.1-2.3,0.1-4.7,0-7s-0.3-4.6-0.5-7c-0.3-2.3-0.7-4.6-1.3-6.9
			c0.5,2.3,0.8,4.6,1.1,6.9c0.2,2.3,0.3,4.6,0.4,6.9c0,2.3,0,4.6-0.2,6.9c-0.1,1.2-0.2,2.3-0.3,3.5l-0.3,2.6l-6.9-2.4
			c0.1-1.5,0.1-3.1,0.1-4.6c-0.1-1.7-0.2-3.4-0.5-5.1c-0.5-3.4-1.3-6.7-2.3-9.9c0.9,3.3,1.6,6.6,1.9,10c0.2,1.7,0.3,3.4,0.3,5.1
			c0,1.5-0.1,2.9-0.2,4.3l-6.6-2.3c-0.1-2.1-0.3-4.1-0.8-6.1c-0.5-2.1-1.1-4.2-2-6.3c-0.8-2-1.8-4-2.9-5.9s-2.3-3.7-3.7-5.4
			c1.3,1.7,2.5,3.6,3.6,5.5s2,3.9,2.8,5.9s1.4,4.1,1.8,6.2c0.4,1.9,0.6,3.9,0.6,5.8l-6.9-2.4c-0.4-1.7-0.9-3.4-1.5-5.1
			c-0.7-1.7-1.5-3.4-2.4-5s-2-3.1-3.1-4.6s-2.3-2.8-3.7-4.1c1.3,1.3,2.5,2.7,3.6,4.2s2.1,3,3,4.6s1.7,3.3,2.3,5
			c0.6,1.5,1,3.1,1.3,4.7l-7.2-2.5c-1.2-2.1-2.5-4.1-4-5.9c-1.6-1.9-3.2-3.6-5.1-5.1c1.8,1.6,3.5,3.3,5,5.2c1.4,1.8,2.6,3.6,3.7,5.6
			l-12.6-4.4l16.6,6.4c-1.2,0.7-2.4,1.3-3.7,1.7c-0.7,0.3-1.5,0.5-2.2,0.7c-0.8,0.2-1.5,0.4-2.3,0.5c-1.5,0.3-3.1,0.4-4.6,0.5
			c-1.5,0-3.1-0.1-4.6-0.3c1.5,0.3,3.1,0.4,4.6,0.4c1.6,0,3.1-0.1,4.6-0.4c0.8-0.1,1.5-0.3,2.3-0.5c0.7-0.2,1.5-0.4,2.2-0.7
			c1.4-0.5,2.7-1.1,4.1-1.8l6.6,2.5c-1.6,1.2-3.2,2.3-4.9,3.2c-1.9,1.1-3.9,1.9-6,2.5c-2.1,0.7-4.2,1.1-6.4,1.3s-4.4,0.3-6.6,0
			c2.2,0.3,4.4,0.3,6.6,0.2c2.2-0.2,4.4-0.6,6.5-1.2s4.2-1.4,6.2-2.4c1.9-0.9,3.6-2.1,5.3-3.4l6,2.3l-0.8,0.8l-0.6,0.7l-0.7,0.6
			l-1.4,1.2l-1.5,1.1c-2,1.5-4.1,2.8-6.3,3.9s-4.5,2.1-6.8,2.9s-4.7,1.5-7.2,1.9c2.5-0.4,4.9-1,7.2-1.7c2.4-0.8,4.7-1.7,6.9-2.8
			c2.2-1.1,4.4-2.3,6.4-3.8l1.5-1.1l1.4-1.2l0.7-0.6l0.7-0.7l1-1l3.6,1.4c-1,1.7-2.2,3.4-3.5,4.9c-1.4,1.7-3,3.3-4.7,4.8
			s-3.4,2.9-5.3,4.2c-1.9,1.3-3.8,2.4-5.8,3.5c2-1,4-2.1,5.9-3.3c1.9-1.2,3.7-2.6,5.4-4c1.7-1.4,3.4-3,4.9-4.7
			c1.4-1.5,2.6-3.3,3.7-5l4.2,1.6c-0.3,0.8-0.7,1.6-1,2.3c-0.5,1-0.9,2-1.4,2.9c-1,1.9-2.1,3.8-3.2,5.7c-1.2,1.8-2.4,3.6-3.8,5.3
			c-1.4,1.7-2.8,3.3-4.4,4.8c1.7-1.4,3.1-3,4.6-4.7c1.4-1.7,2.7-3.4,4-5.2c1.2-1.8,2.4-3.7,3.4-5.6c0.5-0.9,1-1.9,1.5-2.9
			c0.4-0.8,0.7-1.6,1.1-2.4l8.5,3.3c-0.2,1.6-0.5,3.3-1.1,4.8c-0.7,1.8-1.6,3.5-2.6,5.2c-1.1,1.6-2.2,3.2-3.5,4.6s-2.7,2.8-4.2,4.1
			c1.5-1.2,3-2.5,4.3-3.9s2.6-2.9,3.7-4.5c1.1-1.6,2-3.3,2.8-5.2c0.6-1.5,1-3.1,1.2-4.8l14.9,5.7l0.8-2.1L56,258.8
			c0.6-1.2,1.1-2.4,1.5-3.6c0.5-1.5,0.9-3.1,1.2-4.6c0.3-1.6,0.4-3.2,0.5-4.8c0-1.6,0-3.2-0.2-4.8c0.2,1.6,0.2,3.2,0.1,4.7
			c-0.1,1.6-0.3,3.1-0.7,4.7c-0.3,1.5-0.8,3.1-1.3,4.5c-0.4,1.2-1,2.4-1.6,3.6l-5.9-2L49.7,253.7z"/>
	</g>
	<path id="XMLID_1957_" class="st0" d="M250.7,344.1c-47.4,27.4-124.6,27.2-172.3-0.3s-48-72.1-0.5-99.5s124.6-27.2,172.3,0.3
		C297.9,272.2,298.2,316.7,250.7,344.1z"/>
	<path id="XMLID_1956_" class="st0" d="M374.3,295.2c-47.4,27.4-124.6,27.2-172.3-0.3c-47.7-27.6-48-72.1-0.5-99.5
		s124.6-27.2,172.3,0.3C421.5,223.3,421.7,267.9,374.3,295.2z"/>
	<g>
		<path class="st0" d="M174.5,74.3L174.5,74.3L174.5,74.3c-1.4-0.7-2.8-1.2-4.3-1.7c-0.1,0-0.2,0-0.2-0.1c-0.4-0.1-0.8-0.2-1.2-0.3
			c-0.1,0-0.3-0.1-0.4-0.1c-0.3-0.1-0.7-0.2-1.1-0.2c-0.2,0-0.3-0.1-0.5-0.1c-0.3-0.1-0.7-0.1-1-0.1c-0.2,0-0.3,0-0.5-0.1
			c-0.4,0-0.7-0.1-1.1-0.1c-0.2,0-0.3,0-0.5,0c-0.5,0-1,0-1.5,0l0,0l0,0c-5.7,0-11,1.7-15.4,4.7c-1.1,0.7-2.1,1.6-3.1,2.5
			s-1.9,1.9-2.7,2.9c-0.3,0.3-0.6,0.7-0.8,1c-0.5,0.7-1,1.4-1.5,2.2c-0.2,0.4-0.5,0.8-0.7,1.2c-0.3,0.5-0.5,1-0.8,1.6
			s-0.5,1.1-0.7,1.7c-0.4,1-0.7,1.9-0.9,2.9c-0.6,2.2-0.9,4.5-0.9,6.9c0,0.4,0,0.9,0,1.3c0,0.1,0,0.3,0,0.4c0,0.3,0,0.6,0.1,0.9
			c0,0.2,0,0.3,0,0.5c0,0.3,0.1,0.6,0.1,0.8c0,0.1,0,0.3,0.1,0.4c0.1,0.3,0.1,0.7,0.2,1c0,0.1,0,0.2,0.1,0.3
			c0.1,0.4,0.2,0.7,0.2,1.1c0,0.2,0.1,0.3,0.1,0.5c0.1,0.2,0.1,0.5,0.2,0.7c0.1,0.2,0.1,0.4,0.2,0.6c0.1,0.2,0.1,0.4,0.2,0.6
			c0.1,0.2,0.1,0.4,0.2,0.6c0.1,0.2,0.2,0.4,0.2,0.6c0.1,0.4,0.3,0.7,0.5,1.1c0.1,0.2,0.1,0.3,0.2,0.5c0.1,0.2,0.2,0.4,0.3,0.6
			c0.1,0.1,0.1,0.3,0.2,0.4c0.1,0.2,0.2,0.4,0.3,0.6c0.1,0.1,0.1,0.3,0.2,0.4c0.1,0.2,0.3,0.4,0.4,0.7c0.1,0.1,0.1,0.2,0.2,0.3
			c0.3,0.5,0.7,1,1,1.5l0,0l0,0c5,6.8,13.1,11.2,22.2,11.2c15.2,0,27.6-12.3,27.6-27.6C189.9,88.2,183.6,78.9,174.5,74.3z"/>
		<path class="st0" d="M93,65.4L93,65.4L93,65.4c-1.9-0.9-3.8-1.7-5.8-2.3c-0.1,0-0.2-0.1-0.3-0.1c-0.5-0.2-1.1-0.3-1.6-0.4
			c-0.2,0-0.4-0.1-0.5-0.1c-0.5-0.1-1-0.2-1.4-0.3c-0.2,0-0.4-0.1-0.7-0.1c-0.5-0.1-0.9-0.1-1.4-0.2c-0.2,0-0.5-0.1-0.7-0.1
			c-0.5-0.1-1-0.1-1.5-0.1c-0.2,0-0.4,0-0.6,0c-0.7,0-1.4-0.1-2.1-0.1c-20.7,0-37.6,16.8-37.6,37.6c0,0.6,0,1.2,0,1.8
			c0,0.2,0,0.4,0,0.6c0,0.4,0.1,0.8,0.1,1.2c0,0.2,0,0.4,0.1,0.6c0,0.4,0.1,0.8,0.1,1.1c0,0.2,0.1,0.4,0.1,0.6
			c0.1,0.5,0.2,0.9,0.2,1.4c0,0.2,0.1,0.3,0.1,0.5c0.1,0.5,0.2,1,0.3,1.5c0.1,0.2,0.1,0.5,0.2,0.7c0.1,0.3,0.2,0.6,0.3,0.9
			s0.2,0.5,0.2,0.8c0.1,0.3,0.2,0.6,0.3,0.8c0.1,0.3,0.2,0.5,0.3,0.8s0.2,0.5,0.3,0.8c0.2,0.5,0.4,1,0.6,1.5
			c0.1,0.2,0.2,0.4,0.3,0.6c0.1,0.3,0.3,0.6,0.4,0.9c0.1,0.2,0.2,0.4,0.3,0.6c0.2,0.3,0.3,0.6,0.5,0.9c0.1,0.2,0.2,0.3,0.3,0.5
			c0.2,0.3,0.4,0.6,0.5,0.9c0.1,0.1,0.2,0.2,0.2,0.4c6.7,10.5,18.4,17.4,31.7,17.4c20.7,0,37.6-16.8,37.6-37.6
			C113.9,84.3,105.4,71.5,93,65.4z"/>
		<path class="st0" d="M138.1,2.1c-0.1,0-0.3-0.1-0.4-0.1c-0.7-0.2-1.4-0.4-2.1-0.6c-0.2-0.1-0.5-0.1-0.7-0.2
			c-0.6-0.1-1.2-0.3-1.8-0.4c-0.3-0.1-0.6-0.1-0.8-0.1c-0.6-0.1-1.2-0.2-1.8-0.3c-0.3,0-0.6-0.1-0.9-0.1c-0.6-0.1-1.2-0.1-1.9-0.2
			c-0.3,0-0.5,0-0.8-0.1c-0.9,0-1.8-0.1-2.7-0.1l0,0l0,0c-9.1,0-17.6,2.5-24.9,6.9C98.6,7.2,98,7.6,97.4,8
			c-3.8,2.6-7.3,5.7-10.2,9.3c-6.8,8.3-11,18.9-11,30.5c0,0.8,0,1.5,0.1,2.3c0,0.2,0,0.5,0,0.7c0,0.5,0.1,1,0.1,1.5
			c0,0.3,0.1,0.5,0.1,0.8c0.1,0.5,0.1,1,0.2,1.5c0,0.3,0.1,0.5,0.1,0.8c0.1,0.6,0.2,1.2,0.3,1.8c0,0.2,0.1,0.4,0.1,0.6
			c0.1,0.6,0.3,1.2,0.4,1.9c0.1,0.3,0.2,0.6,0.2,0.9c0.1,0.4,0.2,0.8,0.3,1.2c0.1,0.3,0.2,0.6,0.3,1c0.1,0.4,0.2,0.7,0.4,1.1
			c0.1,0.3,0.2,0.7,0.4,1c0.1,0.3,0.3,0.7,0.4,1c0.3,0.6,0.5,1.3,0.8,1.9c0.1,0.3,0.2,0.5,0.4,0.8c0.2,0.4,0.4,0.7,0.6,1.1
			c0.1,0.2,0.2,0.5,0.4,0.7c0.2,0.4,0.4,0.8,0.6,1.1c0.1,0.2,0.2,0.4,0.4,0.6c0.2,0.4,0.4,0.8,0.7,1.1c0.1,0.2,0.2,0.3,0.3,0.5
			C92.3,87.1,107.3,96,124.3,96c26.5,0,48-21.5,48-48C172.3,26.4,157.9,8.1,138.1,2.1z"/>
		<polygon class="st1" points="162.3,101.7 126.4,121.2 124.3,61.9 121.8,132.9 78.3,99.1 121.6,139.1 119.8,242.1 128.8,242.1 
			126.6,126.8 		"/>
	</g>
	<path id="XMLID_1954_" class="st0" d="M404.6,372c-27.1,15.6-71.1,15.5-98.3-0.2s-27.4-41.1-0.3-56.8c27.1-15.6,71.1-15.5,98.3,0.2
		C431.5,330.9,431.6,356.4,404.6,372z"/>
	<g>
		<path class="st0" d="M412.9,299.4c-1.2,2-2.4,3.9-3.7,5.8c-0.3,0.5-0.9,0.9-0.9,1.5c0.1,0.7,1.2,1.7,1.6,2.3
			c0.6,0.7,1.5,2.4,2.3,2.9c-1-0.5-3.1-2-4.5-2c0.1,0.9,0.7,1.9,1,2.8c-0.9-0.7-1.6-1.1-2.7-1.3c0.2,0.9-0.4,2.1-0.5,3
			c-0.9,4.5-1.6,9.9,0.4,14.1c2.2,4.6,8.4,3.9,12.5,2.9c2.1-0.5,4.2-1.4,6-2.6c0.6-0.5,2.8-2.7,3.7-2c-0.3-0.9-0.6-1.8-0.7-2.7
			c0.6,0.4,1.5,0.3,1.9,0.8c1-0.7,1.6-2,2.8-2.6c-0.9-1-1.2-2.6-2-3.7c1.1,0.1,2.4,0.4,3.5,0.9c0.3-0.7,0.8-1.4,1.3-2
			c2-2.7,3.7-5.8,5.2-8.8c0.9-1.9,2-3.6,3.1-5.3c-0.9-0.7-1.6-2-2.5-2.8c-1.1-1.1-2.2-2.2-3.2-3.3c0.6,0,1.1,0.3,1.7,0.5
			c1.9,0.5,4,1,5.9,1.5c0.1-0.8,3.8-7.7,3.4-7.9c-1.2-0.7-2.7-1.5-3.7-2.3c1.2,0.3,2.6,0,3.8,0c-0.6-1.4-3.3-2.7-4.3-3.8
			c1-0.3,2,0.2,3,0.3c0.7,0.1,1.4-0.1,2,0.2c0.3-2.1,0.3-4.1,0.4-6.2c0.1-1.3,0.5-3.7,0-4.9c-0.4-0.9-1.8-1.3-2.2-2.1
			c0.6-0.3,1.2-0.2,1.8-0.1c0-0.5-0.4-7.3-0.8-7.2c-4.2,0.6-8,1.3-11.7,3.4c-0.7,0.4-1.5,0.6-1.7,1.3c-0.4,1.4,0.7,3.4,0.8,4.8
			c-1.2-1.3-2.9-2.2-4.3-3.3c-1.5,1.4-2.9,2.5-4.1,4.3c-1,1.5-2.2,2.9-3.1,4.4c-0.3,0.6-1.1,1.5-1.3,2.1c-0.3,1.6,2.8,4.9,3.9,6.1
			c-1.7-0.1-3.3-1.7-5.1-2c-1.9-0.3-1.9,1.8-3.1,2.4c0.7,0.1,1.6,1.3,2.1,1.9c-0.8-0.1-1.7-0.6-2.5-0.3c0.7,1.6,1.5,3.1,2.6,4.5
			c-1.1,0-2.1-0.8-3.1-1c-0.5-0.1-1.1-0.1-1.5-0.2c-0.8,2-2.2,3.7-3.3,5.5C413,299.2,413,299.3,412.9,299.4z"/>
		<g>
			<path class="st1" d="M445.6,270.2c-2.3,2.2-3.6,6.2-4.9,9c-1.4,3.1-2.8,6.3-4.2,9.4c-2.7,5.8-5.5,11.4-9.2,16.7
				c-7.4,10.7-14.1,22.2-23.1,31.7c-0.6,0.6-1.8-0.3-1.2-1c8.4-10.4,16.5-20.9,24.1-31.9c3.9-5.6,6.8-11.8,9.7-18
				c2.6-5.5,5-11.4,8.2-16.5C445.3,269.1,446,269.7,445.6,270.2L445.6,270.2z"/>
		</g>
	</g>
	<path id="XMLID_1953_" class="st0" d="M220.5,414.8c-27.1,15.6-71.1,15.5-98.3-0.2s-27.4-41.1-0.3-56.8
		c27.1-15.6,71.1-15.5,98.3,0.2S247.5,399.2,220.5,414.8z"/>
	<path id="XMLID_1952_" class="st0" d="M362.2,405.6c-6,3.5-15.7,3.4-21.7,0c-6-3.5-6-9.1-0.1-12.5c6-3.5,15.7-3.4,21.7,0
		S368.1,402.1,362.2,405.6z"/>
	<path id="XMLID_1951_" class="st0" d="M421.2,278.1c-2.6,1.5-6.9,1.5-9.5,0s-2.7-4,0-5.5c2.6-1.5,6.9-1.5,9.5,0
		C423.8,274.1,423.8,276.6,421.2,278.1z"/>
	<g>
		<path class="st0" d="M85.6,345.1c2.3,0.1,4.6,0.2,6.9,0.2c0.6,0,1.3-0.2,1.7,0.1c0.6,0.4,0.8,1.9,1,2.6c0.3,0.9,1.1,2.6,1,3.5
			c0.1-1.1,0.1-3.7,0.9-4.9c0.7,0.7,1.2,1.7,1.8,2.4c-0.1-1.1,0-1.9,0.4-2.9c0.6,0.7,1.9,0.9,2.8,1.2c4.2,1.7,9,4.3,11.4,8.3
			c2.6,4.4-1.5,9.1-4.7,12c-1.6,1.4-3.5,2.7-5.5,3.5c-0.7,0.3-3.8,0.7-3.8,1.9c-0.6-0.7-1.1-1.5-1.8-2.1c0,0.7-0.6,1.4-0.4,2
			c-1.2,0.4-2.5,0.2-3.7,0.8c-0.3-1.3-1.5-2.4-1.9-3.7c-0.5,1-1,2.2-1.2,3.4c-0.8-0.2-1.6-0.1-2.4-0.1c-3.4,0.1-6.9-0.2-10.2-0.7
			c-2.1-0.3-4.1-0.3-6.1-0.4c-0.1-1.2-0.7-2.5-1-3.6c-0.3-1.5-0.6-3-1-4.5c-0.4,0.5-0.4,1.1-0.6,1.7c-0.6,1.9-1.4,3.9-2.1,5.7
			c-0.7-0.4-8.5-1.2-8.4-1.7c0.1-1.3,0.3-3.1,0.1-4.3c-0.5,1.2-1.4,2.1-2.2,3.2c-0.8-1.3-0.3-4.2-0.6-5.7c-0.8,0.6-1,1.8-1.5,2.6
			c-0.3,0.6-0.9,1.1-0.9,1.8c-1.9-0.9-3.6-2.1-5.3-3.2c-1.1-0.7-3.3-1.6-4-2.8c-0.5-0.8-0.1-2.2-0.5-3c-0.6,0.3-0.8,0.9-1.1,1.4
			c-0.4-0.3-5.8-4.4-5.5-4.8c2.8-3.1,5.6-5.9,9.4-7.8c0.7-0.3,1.4-0.9,2.1-0.7c1.4,0.5,2.4,2.5,3.5,3.3c-0.4-1.7-0.2-3.7-0.3-5.4
			c2-0.5,3.7-0.9,5.8-1c1.8,0,3.7-0.2,5.4-0.1c0.6,0.1,1.9-0.1,2.5,0.2c1.5,0.6,2.5,5.1,2.9,6.7c0.8-1.5,0.5-3.7,1.3-5.4
			c0.9-1.7,2.5-0.6,3.7-1.1c-0.4,0.7,0.2,2.1,0.4,2.8c0.4-0.7,0.4-1.8,1.1-2.3c0.9,1.5,1.7,3,2.2,4.7c0.6-0.9,0.5-2.1,0.9-3.1
			c0.2-0.5,0.5-0.9,0.7-1.4c2.1,0.4,4.3,0.3,6.4,0.4C85.4,345.1,85.5,345.1,85.6,345.1z"/>
		<g>
			<path class="st1" d="M43.1,355.5c3.1-0.7,7.1,0.5,10.2,1.1c3.4,0.6,6.7,1.2,10.1,1.8c6.3,1.1,12.6,1.9,18.9,1.9
				c13,0,26.3,0.9,39.2-1.2c0.9-0.1,0.8-1.7-0.1-1.6c-13.3,1-26.6,1.8-39.9,1.9c-6.8,0-13.6-1-20.3-2.1c-6-1-12.2-2.3-18.3-2.5
				C42.4,354.7,42.4,355.7,43.1,355.5L43.1,355.5z"/>
		</g>
	</g>
</g>
<g>
	<g>
		<g>
			<rect x="55.1" y="273" class="st2" width="171.8" height="101.4"/>
			<rect x="41.6" y="266.6" class="st2" width="190.5" height="16.9"/>
			<rect x="87.5" y="272" class="st3" width="169.8" height="101.4"/>
			<ellipse class="st4" cx="167.6" cy="330.7" rx="61.2" ry="22.7"/>
			<path class="st5" d="M167.6,308c-28.3,0-52.1,7.1-59.1,16.8c9.9-7.6,30.9-12.9,55.1-12.9c33.8,0,61.2,10.2,61.2,22.7
				c0,2-0.7,4-2.1,5.9c3.9-3,6-6.3,6-9.8C228.7,318.2,201.3,308,167.6,308z"/>
			<path class="st6" d="M87.5,273v28.6c10-10.7,169.8-15.5,169.8-15.5V273H87.5z"/>
			<g>
				<path class="st7" d="M203.2,236.1c7.4-3.2,13-10.8,17.2-15.7c0.1-0.1,1.4-4.4,2.7-4.7c0.3-0.1,0.5,0.1,0.6,0.3
					c0.1,0.4-0.1,0.6-0.4,1.3c-0.2,0.7-0.2,1.6,0,1.5c0.5-0.1,3.2-4.9,4.2-5.9c0.5-0.5,1.1-0.3-0.1,1.6c-0.3,0.6-0.8,1.2-1.1,1.7
					c-0.9,1.3-1.3,2.2-1,1.9c0.9-0.8,4.3-5.8,5.2-5.4c0.4,0.2-3.7,5.2-4.6,6.6c1.6-1,4.9-6,5-4.8c0.1,0.7-3.1,4.7-4,5.5
					c-1.1,1,0.3,0.2,1.1-0.2c0.6-0.3,2.4-2.1,2.2-0.9c-0.2,1.1-5.9,4.5-7.7,6.1v0c-1.6,1.5-8,14.3-14.9,18.1
					c-4.5,2.5-17.6,2.9-24.4,3.5c-1.4,0.1-2.8-0.4-3.8-1.4l-0.2-0.2c-1.9-1.9-1.8-5,0.2-6.8l0,0c1-0.9,2.4-1.3,3.7-1.2
					C186.6,237.4,201.1,237.1,203.2,236.1z"/>
				<path class="st4" d="M195.4,236c-0.5-0.3-6.9,1.4-10,1c-3.1-0.4,1.4,10.8,1.4,10.8s7.8-0.1,9.8-0.6
					C198.7,246.7,197.7,237.1,195.4,236z"/>
				<path class="st8" d="M190.7,247.7c2.2-0.1,4.8-0.2,5.8-0.5c0.6-0.1,0.9-0.9,1.1-1.9c-0.8,0-1.6,0-1.8,0c-3-0.3-7.5-3.7-8.8-6.6
					c-0.3-0.6-0.6-1.2-1-1.6c-0.2,0-0.5,0-0.7-0.1c-3.1-0.4,1.4,10.8,1.4,10.8l2.9-0.5C189.7,247.3,190.1,247.5,190.7,247.7z"/>
				<polygon class="st7" points="156.6,250.4 149.2,266.9 155.3,267.3 165.2,250.8 				"/>
				<path class="st4" d="M161.5,238.8l8.4,28.3l21.6,0.3c0,0,3.2-16.9,3.2-18.2c0-1.3-8.4-10.4-10-12
					C183.1,235.6,163.8,235.5,161.5,238.8z"/>
				<polygon class="st8" points="175,267.2 161.5,238.8 169.8,267.1 				"/>
				<path class="st4" d="M161.5,238.8l-6.8,13.1l8.7,4.4l1.8-5.5C165.2,250.8,165.9,243.2,161.5,238.8z"/>
				<ellipse class="st2" cx="160" cy="223.7" rx="4.9" ry="5.5"/>
				<path class="st2" d="M179,236.5c-2.3-1.4-9-1.4-10.7,0.4c-1.7,1.7,11.6,13.4,17.6,13.4C186.5,250.2,182.3,238.4,179,236.5z"/>
				<path class="st7" d="M178.4,228.7c0,0-1.7,8.9,0,10.6c1.3,1.3,4.2,6.1,5.5,8.1c1.8,2.6-0.4,1.7-1.2,1.4
					c-3.7-1.1-12.3-10-12.3-10l-0.3-11.8L178.4,228.7z"/>
				<path class="st7" d="M170.9,227.2c1.1,3.3,2.9,6.2,4.8,7.3c0.6,0.4,1.2,0.7,1.9,1c0-3.1,0.7-6.8,0.7-6.8L170.9,227.2z"/>
				<path class="st2" d="M186.5,249.3c0,0,0.1-0.2,1.2-0.2c1.1,0,2.8,1.6,2.8,1.6s-0.5,1.2-2.2,0.4
					C186.6,250.2,186.5,249.3,186.5,249.3z"/>
				<path class="st7" d="M176.1,213.2c0,0,8.4,8.8,7.8,15.4c-0.6,6.6-9.2,3-12.7,0.3C167.7,226.2,166.8,212.4,176.1,213.2z"/>
				<path class="st2" d="M178.1,209c1.4,1.2,2,3.5,1.2,5.2c-1.1,2.3-4.1,2.1-6.7,4.1c-2.6,1.9-2.5,10-2.5,10s-10.3,1.9-7.9-7.8
					c2.4-9.7,3.8-7.3,6.8-9.3C171.5,209.3,175,206.4,178.1,209z"/>
				<path class="st2" d="M170.3,235c0,0,4.1,3.7,6.8,7.2c1.5,1.9,3.2,3.6,5.1,5.1l3.6,2.9c0,0-4.1-0.2-5.9-1.1c-1.8-1-1.5-2-3.7-2
					c-2.2,0-3.4-0.8-4.7-2.1c-1.2-1.2-2.2-1.6-3.3-2.6c-1-1-3.3-5.2-2.6-5.9C166.6,235.8,170.3,235,170.3,235z"/>
				
					<ellipse transform="matrix(0.4123 -0.911 0.911 0.4123 -118.2633 315.8138)" class="st2" cx="185.7" cy="249.6" rx="1.5" ry="1.5"/>
				<path class="st2" d="M184.9,250.1c0,0-1.9,0.5-1.9,1.8c0,1.3-0.8,1.8-0.8,1.8s1.8,0.2,2.7-0.6
					C185.8,252.3,184.9,250.1,184.9,250.1z"/>
			</g>
			<rect x="69.2" y="266.6" class="st9" width="193.4" height="16.9"/>
			<rect x="69.2" y="266.6" class="st9" width="193.4" height="3.6"/>
			<g>
				<polygon class="st4" points="147.4,256.7 99.9,255.5 90.6,228.3 137.5,227.5 				"/>
				<path class="st2" d="M99.9,255.5l47.6,1.1l-0.8-2.4c-6-0.3-18.8-1.6-30.6-6.7c-10.2-4.5-17.7-13.1-21.8-19.2l-3.6,0.1
					L99.9,255.5z"/>
				<path class="st4" d="M119.1,242.3c-4.6,4.5-7.9,11.7-7.3,21.2l-6.9-1c1.9-10.8,7.5-18,13.3-21.7L119.1,242.3z"/>
				<path class="st10" d="M127.1,266.6h-26.8v-4.9h21.9C124.9,261.6,127.1,263.9,127.1,266.6L127.1,266.6z"/>
				<path class="st2" d="M125.5,266.6H98.6v-4.9h21.9C123.3,261.6,125.5,263.9,125.5,266.6L125.5,266.6z"/>
			</g>
			<g>
				<path class="st7" d="M289.7,359.7v9.3l-2.4,3l-3.9-1.7c0,0,0.5-1.7,0.5-3.1c0-1.4-0.4-6-0.4-6L289.7,359.7z"/>
				<path class="st2" d="M290.1,367.7c0,0,1.1,1.3,1.5,3.6c0.4,2.3-0.1,4.6-0.1,4.6s-11.3,1.3-15.8,0.8c-4.5-0.5-4.9-1.3-4.9-2.6
					c0-1.3,6.1-1.3,7.8-2.9c1.7-1.6,4-5,5.1-4.6c1.1,0.5,1,2.5,2.5,2.5C287.6,369.3,289.4,367,290.1,367.7z"/>
				<path class="st7" d="M309.4,362.7v9.3l-2.4,3l-3.9-1.7c0,0,0.5-1.7,0.5-3.1c0-1.4-0.4-6-0.4-6L309.4,362.7z"/>
				<path class="st2" d="M309.8,370.7c0,0,1.1,1.3,1.5,3.6c0.4,2.3-0.1,4.6-0.1,4.6s-11.3,1.3-15.8,0.8c-4.5-0.5-4.9-1.3-4.9-2.6
					c0-1.3,6.1-1.3,7.8-2.9c1.7-1.6,4-5,5.1-4.6c1.1,0.5,1,2.5,2.5,2.5C307.3,372.3,309.1,370,309.8,370.7z"/>
				<rect x="251.6" y="305.7" class="st11" width="32.7" height="22.2"/>
				<path class="st5" d="M275.1,328h9.2v-22.2h-6.1C277.4,310.4,275.6,320.7,275.1,328z"/>
				<g>
					<path class="st11" d="M273.4,307.8h-1.8v-5.1c0-1.1-0.9-2-2-2h-4c-1.1,0-2,0.9-2,2v5.1h-1.8v-5.1c0-2.1,1.7-3.9,3.9-3.9h4
						c2.1,0,3.9,1.7,3.9,3.9V307.8z"/>
				</g>
				<path class="st7" d="M265.8,291.4c0,0-2.2,3.9-2.2,5.5c0,1.6-0.9,5.8,1.1,6.2c2,0.4,5.7-0.8,5.7-0.8s0.5-2.3-1.2-5
					c-1.7-2.7,0.5-6.5,0.5-6.5L265.8,291.4z"/>
				<path class="st2" d="M285.1,225.7c0,0-11.2,2.7-12.8,21.1c-1.5,18.4-8.5,45.8-8.5,45.8s6.2,3.9,8.1,2.9
					c5.6-3.1,3.9-17.5,7.1-24.4L285.1,225.7z"/>
				<path class="st5" d="M281.4,253.4c-3.9,16.9-9,37-12.5,41.8c1.3,0.5,2.5,0.7,3.1,0.4c5.6-3.1,3.9-17.5,7.1-24.4L281.4,253.4z"/>
				<path class="st12" d="M288.2,224.8c0,0-4.8-0.3-9.2,7.5c-4.4,7.8-5.2,54-3,59.5c2.5,6.3,7.6,2.5,7.6,2.5s2.7-30,1.4-45.3
					C283.9,233.7,288.2,224.8,288.2,224.8z"/>
				<path class="st2" d="M286.9,277.6c0,0,2.3,1.7,4,4.8c6.1,10.8,0,82.1,0,82.1l-8.7-0.2c0,0,0-29.4,0-44.2
					c0-14.9-0.3-36.5-0.3-36.5L286.9,277.6z"/>
				<path class="st2" d="M282,283c0,0,5.2,6.2,8.5,14.4c1,2.6,11.8,30.6,11.8,71.4h7.6c0,0,0.4-29.8,0-45.5
					c-0.3-13-3.2-39.8-3.2-44.4l-24.8-1.1L282,283z"/>
				<path class="st5" d="M306.8,280.7L306.8,280.7c-1.2,0-13.1,1.4-13.1,1.4s0.7,10.9,3.5,16.1c1.9,3.4,7.7,4.8,11.5,5.4
					C307.9,294.3,307,285,306.8,280.7z"/>
				<path class="st4" d="M286.7,225.4c-2.7,3.4-5.9,9.3-6.5,15.9c-0.5,6.1,1.8,42.2,1.8,42.2H310c0,0,2.7-54.1,0-56.7
					c-1.2-1.2-7.7-2.6-9.5-2.8C294.9,223.4,288,223.7,286.7,225.4z"/>
				<path class="st2" d="M300.5,224c0,0,0,4.6-2.3,15c-2.3,10.4-2.5,50.7,0,55.3c2.5,4.6,17.5,2.3,17.5,2.3s-1.5-65.3-5.8-69.9
					c-0.6-0.6-1-1-1.8-1.4C304.9,223.7,300.5,224,300.5,224z"/>
				<path class="st5" d="M311.8,233.2l-5.1-6.6c0,0-4.1,9.1-2.8,14.2c1.3,5.1,6.3,17.7,4.6,19.4c-1.7,1.7,3.9-1.1,3.9-1.1
					L311.8,233.2z"/>
				<path class="st5" d="M296.6,256.8c0,0.7-0.1,1.5-0.1,2.3c-0.1,4.2,1.8,8.3,5.3,10.8c4.6,3.4,10.1,6.9,13.3,7
					c-0.2-5.3-0.5-11.1-0.8-16.9C308.7,259,296.6,256.8,296.6,256.8L296.6,256.8z"/>
				<path class="st13" d="M283.7,238.4c0,0,3.2,7.2,3.7,10.6c0.5,3.4,1.3,9.2,1.3,9.2l10.6-0.8l0.8-19H283.7z"/>
				<path class="st7" d="M286.2,245c0,0-1.3,5.9,1.6,7.4c1.6,0.8,4.6,0,5.9,1.3c1.3,1.3,2.9,3,2.9,3l2.6-3.9l-4.8-5
					c0,0-2.1-3.5-2.9-2.8c-0.7,0.7,2,3,0.9,3C291.4,248.1,286.2,245,286.2,245z"/>
				<path class="st2" d="M308,225.3c0,0-1.9,0.3-3.1,6.3c-1.5,7.5,5.7,20.8,4,24.7c-1.7,4-12.6-7.5-12.6-7.5l-0.8,2.1l-1.9,5.2
					c0,0,14.8,17.8,22,16.4C322.9,271.3,316.9,226.9,308,225.3z"/>
				<polygon class="st7" points="286.9,216.2 288.7,230.3 299.6,224 293.7,213.7 				"/>
				<path class="st7" d="M295.1,216.1l-1.3-2.4l-6.8,2.5l1,7.8c0.9-0.2,1.7-0.6,2.3-1C292,221.7,293.8,219,295.1,216.1z"/>
				<path class="st7" d="M287.5,198.8c0,0-0.3-0.1-2.3,2.5c-1.4,1.9-2.2,4.2-3.1,6.3c-1.3,3.2-2.4,6.7-1.4,10.2
					c0.5,1.8,7.8,2.3,10.7,0.7c2.9-1.6,5.7-6.6,5.5-10.2C296.8,204.9,288.8,198.1,287.5,198.8z"/>
				<path class="st2" d="M292.3,216.2c0.4,1,1.2,1.2,3.5,1.3c2.9,0.1,5.9-2.2,6.6-6.2c2.3-12.4-9.5-15.5-12.5-16.7
					c-1.1-0.4-2-0.1-2.7,0.6c-1.1,1-2.5,1.5-4,1.3c-0.6-0.1-2.3-0.1-2.8,0.8c-1.3,2.8-1.4,5.7,3.6,5.7
					C295.3,202.9,291.5,214.4,292.3,216.2z"/>
				<path class="st7" d="M291,210c0,0,0.2-3.1,1.9-2.6c1.7,0.5,2.3,3.9,0.8,4.6C292.1,212.7,291,210,291,210z"/>
			</g>
			<path class="st3" d="M270.2,165.6c0-4.1-3.4-7.5-7.7-7.5h-47.1c-4.2,0-7.7,3.4-7.7,7.5v12c0,4.1,3.4,7.5,7.7,7.5h45.7l4.7,16.7
				c0,0,4.4-23.2,4.4-24.2V165.6z"/>
			<path class="st1" d="M210,187.4c-3.6,0-6.8-2-8.4-4.9h-7.2c-2.7,0-5,2.4-5,5.5c0,12.3-0.9,6.6,3.6,21.1l2.3-6.9h29.7
				c2.7,0,5-2.4,5-5.5v-8.7c0-0.2,0-0.4,0-0.5H210z"/>
			<g>
				<path class="st14" d="M262.5,166.7h-49.7c-0.5,0-1-0.4-1-1s0.4-1,1-1h49.7c0.5,0,1,0.4,1,1S263.1,166.7,262.5,166.7z"/>
			</g>
			<g>
				<path class="st14" d="M262.5,172h-49.7c-0.5,0-1-0.4-1-1c0-0.5,0.4-1,1-1h49.7c0.5,0,1,0.4,1,1C263.5,171.6,263.1,172,262.5,172
					z"/>
			</g>
			<g>
				<path class="st14" d="M262.5,178h-49.7c-0.5,0-1-0.4-1-1s0.4-1,1-1h49.7c0.5,0,1,0.4,1,1S263.1,178,262.5,178z"/>
			</g>
			<g>
				<g>
					<path class="st2" d="M368.7,202.3c-0.9,0.2-8.7,0.3-8.7,6s0.1,8-1.4,10.5c-1.5,2.5-1.9,13.1,4.3,10.1c1.7-0.8,0.5,5.2,0.5,5.2
						s10.6,4.8,13.6,3.5c3-1.3,7.5,1.6,7.5,1.6s4.5-7.2,0-11.8c-4.5-4.5-4-4.2-4-9.3c0-5.1-0.9-3.6-3.1-6.7
						C375.4,208.3,374.1,201.2,368.7,202.3z"/>
					<polygon class="st15" points="389.9,293.6 386.2,247.5 383.3,248.4 389,293.6 					"/>
					<path class="st7" d="M358.2,315.7c0,0,4,42,2,47.2c-2,5.2-5.4,14.2-5.4,14.2h3.7l7.6-10.1c0,0-0.2-0.5,0.5-2.5
						c0.6-2,5.2-23.9,3.6-34.2c-0.5-2.9-1.1-17-2.5-19.4C364.1,304.8,358.2,312.6,358.2,315.7z"/>
					<path class="st16" d="M366.5,365c0,0,0.9-0.4,1.8,1.6c0.8,2-1.5,11.7-1.5,11.7l-1.9,0.1c0,0,1.3-7.2,0.9-7.2s-2.6,7.4-3.7,7.7
						c-1.1,0.3-8.2,0.8-9.3-0.3c-1.1-1.1,2.9-3.4,2.9-3.4s3.6,0.5,4,0C360.1,374.6,366.5,365,366.5,365z"/>
					<path class="st7" d="M372.8,315.7c0,0,4,42,2,47.2c-2,5.2-5.4,14.2-5.4,14.2h3.7l7.6-10.1c0,0-0.2-0.5,0.5-2.5
						c0.6-2,5.2-23.9,3.6-34.2c-0.5-2.9-1.1-17-2.5-19.4C378.7,304.8,372.8,312.6,372.8,315.7z"/>
					<path class="st7" d="M383.9,320.1c-2-0.4-6.2-1.1-10.9-1.9c0.2,2.1,0.5,5.3,0.8,9.1c2.2,0.3,7.2,0.9,10.7,0.3
						C384.3,325.5,384.1,322.8,383.9,320.1z"/>
					<path class="st7" d="M369.1,317.5c-3.9-0.6-7.8-1.3-10.9-1.7c0.1,0.9,0.5,5.4,1,11.2c1.1,0.3,2.4,0.6,4.1,0.8
						c2.7,0.4,5,0.2,6.7-0.1C369.7,325.1,369.5,321,369.1,317.5z"/>
					<path class="st2" d="M387.6,324.4c0-8.7,0-21.4,0-25.1c0-6.6-2.5-24-6.6-32.6c-4.1-8.6-20.9,0-20.9,0s-3.8,8.4-4.8,20.6
						l-1,37.8C366.4,327,375.9,327.1,387.6,324.4z"/>
					<path class="st5" d="M387.6,303l-6-2.2l-0.3,7.8c0,0,0.1,3.6,6.3,5.8V303z"/>
					<path class="st4" d="M357.1,230.1c-0.4,0.7-2.8,6.7-2.2,13.1c0.9,9.5,5.1,21.6,4.2,25.4c-1.5,6.4,21.4,7.3,22.4-0.7
						c0.4-2.9-0.4-10,0.3-16.5c1.1-10.3,3.5-20.4,3.1-20.7C374.9,224.6,358,228.4,357.1,230.1z"/>
					<path class="st17" d="M368,232.3c0,0-0.5,4.6,2.9,8c3.1,3.1,7.7,5.1,11.9,3.7c1.1-7.2,2.4-13,2.1-13.2
						c-2.8-1.7-6.2-2.7-9.7-3.1l-7.8,0.5L368,232.3z"/>
					<g class="st18">
						<path class="st19" d="M358.4,261.3c0.4,2.2,0.8,4.1,0.8,5.5c1.5-0.2,3.1-0.4,4.3-0.2c2.6,0.3,12.9,0.9,18.1,0.8
							c0.1-1.2,0.1-3,0-5.1l-20.2-3L358.4,261.3z"/>
					</g>
					<path class="st4" d="M384.9,230.8c0,0,2.2-0.1,4.2,10.4c2,10.5-1.3,23.4-3.6,24.5c-2.2,1.1-22.5-1.4-22.5-1.4l0.7-7.3
						c0,0,15.7-0.8,17.4-2.6c0.4-0.4,0-2.5,0.3-4.7C382.5,242.8,384.9,230.8,384.9,230.8z"/>
					<path class="st17" d="M388.3,237.6c-1.7-6.9-3.4-6.8-3.4-6.8s-1.4,7-2.6,13.4c0.7-0.2,1.4-0.5,2.1-0.9
						C386.6,242,387.7,239.7,388.3,237.6z"/>
					<path class="st7" d="M381.8,253.3c0,0,2.3-1.2,3.1-2.1c0.9-0.9,2.6-2,2.6-1.3c0,0.7-0.8,1.6-0.8,1.6s3.1-1.7,3.4-1.4
						c0.3,0.3,0.5,2.5,0,4.9c-0.5,2.4-7.4,3.4-7.4,3.4L381.8,253.3z"/>
					<path class="st16" d="M381.1,365c0,0,0.9-0.4,1.8,1.6c0.8,2-1.5,11.7-1.5,11.7l-1.9,0.1c0,0,1.3-7.2,0.9-7.2
						c-0.4,0-2.6,7.4-3.7,7.7c-1.1,0.3-8.2,0.8-9.3-0.3c-1.1-1.1,2.9-3.4,2.9-3.4s3.6,0.5,4,0C374.7,374.6,381.1,365,381.1,365z"/>
					<path class="st11" d="M384.4,230.1c-5.1,16.3-3.6,32.9-1.6,66.2l-1,0.1c-3.5-33.9-5.8-50.5-1.3-67.4L384.4,230.1z"/>
					<path class="st4" d="M353.5,264.4c7.2,2,23.3-1.9,29.8-3.2l-1.5-8.4c0,0-19,3.2-21.3,1.9c-1.1-0.7-3.6-6.7-4.2-12.6
						c-0.5-6,0.9-12,0.9-12s-6.5,5.8-6.5,20.7C350.6,262.2,350.3,263.6,353.5,264.4z"/>
					<path class="st7" d="M357.1,247.9c0,0,1.6,1.6,2.8,2.9c1.2,1.2,3.1,4.4,3.1,4.4s-2.6,0.3-3.5,0.3c-0.9,0-3.6-1.9-4.6-1.9
						c-1,0-0.6-1.5,0.6-1.1c1.2,0.4,2.4,0.6,2.4,0.6s-2.7-2.2-3.9-3.4c-1.2-1.2-0.1-2,1-0.9c1,1,2.2,1.6,2.2,1.6s-3.6-3.7-2.9-4.3
						C354.8,245.5,357.1,247.9,357.1,247.9z"/>
					<g>
						<path class="st7" d="M365.9,217.1l-0.9,10.4c0,0-3.5,12.3-0.7,13.3c2.8,1,6.8-12.8,6.8-12.8v-13.3L365.9,217.1z"/>
					</g>
					<path class="st7" d="M365.4,223.5c1.9-0.1,4.1-1.9,5.8-4.3v-4.6l-5.3,2.4L365.4,223.5z"/>
					<path class="st7" d="M365.9,205.1c0,0-3.1-1.4-4.1,4.8c-1,6.1-0.2,10.5,2.8,10.9c3,0.5,7.2-3.2,8.7-7.3
						C374.8,209.4,368.4,204.5,365.9,205.1z"/>
					<path class="st2" d="M386.5,230.1c-0.5-1-1.1-2-2-2.8c-4.5-4.5-4-4.2-4-9.3c0-5.1-0.9-3.6-3.1-6.7c-2.2-3.1-3.4-10.2-8.8-9.1
						c-0.1,0-6.1,1.1-5,3.3c0,0,1.1-0.8,3.2,1.8c2,2.6,0.9,2.8,2.9,3.7c2,0.9,1.3,4.4,1.3,6.8c0,2.3-0.7,9.4-2.6,12.4
						c-1.9,3,1.7,8.9,5.9,10.7C386.8,246,388.8,234.7,386.5,230.1z"/>
					<path class="st20" d="M383.8,307.5h-0.2c-1.2,0-2.2-1-2.2-2.3l0.2-12h3.4l1,11.9C386.1,306.4,385.1,307.5,383.8,307.5z"/>
					<path class="st11" d="M387.8,308.4h-0.6c-3.5,0.1-5.9-1.5-5.8-2.8l0.6-12.4h6.8c1.3,0,2.5,0.9,2.7,2.2l2.1,10.4
						C393.9,307.2,391.2,308.4,387.8,308.4z"/>
					<path class="st15" d="M381.3,305.2l0.2-12h1.1c1.3,0,2.4,1,2.6,2.4l0.8,9.6C386.2,308.2,381.3,308.3,381.3,305.2z"/>
				</g>
				<path class="st3" d="M358.5,162.7c0-4.1,3.4-7.5,7.7-7.5h47.1c4.2,0,7.7,3.4,7.7,7.5v12c0,4.1-3.4,7.5-7.7,7.5h-45.7l-4.7,16.7
					c0,0-4.4-23.2-4.4-24.2V162.7z"/>
				<g>
					<path class="st14" d="M366.1,163.8h49.7c0.5,0,1-0.4,1-1c0-0.5-0.4-1-1-1h-49.7c-0.5,0-1,0.4-1,1
						C365.1,163.4,365.6,163.8,366.1,163.8z"/>
				</g>
				<g>
					<path class="st14" d="M366.1,169.1h49.7c0.5,0,1-0.4,1-1s-0.4-1-1-1h-49.7c-0.5,0-1,0.4-1,1S365.6,169.1,366.1,169.1z"/>
				</g>
				<g>
					<path class="st14" d="M366.1,175.1h49.7c0.5,0,1-0.4,1-1s-0.4-1-1-1h-49.7c-0.5,0-1,0.4-1,1S365.6,175.1,366.1,175.1z"/>
				</g>
			</g>
			<g>
				<ellipse class="st3" cx="38.7" cy="374.1" rx="19.1" ry="3.9"/>
				<polygon class="st11" points="57.8,374.1 34.1,374.1 29.6,345 62.4,345 				"/>
				<ellipse class="st15" cx="46" cy="345" rx="16.3" ry="1.5"/>
				<g>
					<path class="st11" d="M69.5,280c-0.1,0.1-3.2,3.3-7.1,8.1c-6.1,7.6-14.2,18.9-16.2,26.2c-0.2,0.6-0.3,1.2-0.4,1.8
						c-0.1,0.4-0.1,0.9-0.2,1.4c-1.2,9.8-2.1,24.5-2.4,29c-0.3,0-0.6,0-0.9,0c0.3-4.6,1.3-20.7,2.5-30.5c0.1-0.6,0.2-1.1,0.3-1.7
						c0.2-0.7,0.4-1.3,0.6-2c4.5-12.3,22-31.9,22.9-32.8L69.5,280z"/>
				</g>
				<g>
					<path class="st11" d="M47.1,346.5c-0.3,0-0.6,0-0.9,0c0.3-1.8,1.5-11.8-0.5-29c-0.1-1-0.2-2.1-0.4-3.2
						c-0.1-0.8-0.2-1.7-0.3-2.5c-3.2-22.8,1.1-66.4,1.1-66.9l0.9,0.1c0,0.4-4.3,44-1.1,66.7c0,0.2,0.1,0.4,0.1,0.6
						c0.1,0.7,0.2,1.4,0.3,2.1C48.6,333.1,47.4,344.2,47.1,346.5z"/>
				</g>
				<g>
					<path class="st11" d="M49.8,347.4l-0.9-0.2c4.2-17.8,4.5-58.4,4.5-58.8l0.9,0C54.3,288.8,54,329.5,49.8,347.4z"/>
				</g>
				<g>
					<path class="st15" d="M45.9,347.3H45c0-11.2-11.9-47.2-12-47.5l0.5,0.6C34.1,301.9,45.9,336,45.9,347.3z"/>
				</g>
				<path class="st15" d="M33.8,301.6c0,0,1.8-6.2,1.8-9.7c-0.1-2.1-0.1-5.1-0.7-7.2c-0.3-0.9-1.3-0.9-1.6,0l0,0
					c0,0-2.3-8.5-3.4-9.1c-0.4-0.2-1.5,0.9-1.7,0.5c-2-4.4-8.6-11-8.6-11.1c0,3.9,0.1,7.7,0.2,11.6
					C24.5,284.5,29.4,292.2,33.8,301.6z"/>
				<path class="st11" d="M33.8,301.7c0-0.1-1.2-16.4-3.4-20.3c-0.7-1.3-1.3-2.3-2.1-2.8c-0.6-0.5-1.4-0.2-1.4,0.8
					c0,0.1,0,0.1,0,0.2c0,1.1-1.2,1.5-1.5,0.6c-1.9-5-3.9-9.9-5.8-15.1c0,0.1-1.9,16.7,5,23.8C31.4,296.1,33.8,301.7,33.8,301.7z"/>
				<path class="st15" d="M45,274.3c0,0,4.5-4.4,5.7-7.4c0.7-1.8,1.7-4.4,1.9-6.5c0.1-1-1-1.5-1.8-0.9l0,0c0,0,0.8-8.8-0.2-10
					c-0.3-0.4-2-0.1-2-0.6c-0.3-5.1-4.8-15.1-4.8-15.1l-4.3,10.2L45,274.3z"/>
				<path class="st11" d="M45,274.3c0,0,4.7-14.7,4-19.5c-0.2-1.5-0.5-2.8-1.2-3.8c-0.5-0.8-1.4-1.1-1.8-0.2l-0.1,0.2
					c-0.4,0.9-1.8,0.6-1.8-0.4l-0.2-16.9c0,0-8.4,13.3-4,24.1C44.1,268.6,45,274.3,45,274.3z"/>
				<path class="st15" d="M62.8,286.5c0.1,0-1-4.1,0.9-6.7c2.2-3,5.3-4.5,8.7-3.4c1.2,0.4,1.9,2,1.5,2.7c1.1,0.1,4.5,0.1,9.4,1.9
					c0.7,0.3,1.4,1,1.7,1.8c0,0,0,0,0,0c1,2.5,4.2,2.3,7.9,8.5c4.6,4.9,4.6,22,3.5,22.1c-1.5-4.4-3.9-8-6.7-10.7
					C85.1,287.8,71.8,282.4,62.8,286.5z"/>
				<path class="st11" d="M62.4,287.9c0.2-0.4,0-3.6,5.5-5.1c4.2-1.1,10-1.7,13.1,0.2c1.9,1,3.4,2,4.5,2.9c1.1,0.9,1.3,2.6,0.3,2.4
					c-0.1,0-0.1,0-0.2,0c-1-0.2-0.7,1.6,0.3,2.5c5.7,4.6,10.3,12.5,10.5,22.7c0-0.2-7.2-12.8-17.4-20.5
					C68,284.8,62.5,287.8,62.4,287.9z"/>
				<path class="st15" d="M56.8,270.5l-0.6-1.8c0,0-7.2,11.8-6.5,16.6c0.7,4.9,4.2,7,4.2,7L56.8,270.5z"/>
				<path class="st11" d="M57.2,266.6c0,0,0.6,0.4,0.6,2.3s-4,23.9-4,23.9s-3-5.4-2.6-9.4C51.7,279.3,56.4,267.3,57.2,266.6z"/>
				<g>
					<path class="st15" d="M52.8,347.3l-0.7-0.1c3.7-20.1-3.9-30.6-4.4-31.2l-4-3.3l0.4-0.6l3.8,3.2C48,315.4,56.6,326.3,52.8,347.3
						z"/>
				</g>
				<path class="st15" d="M47.9,315.3c-0.1,0,0.3-4.8-1-7.2c-0.8-1.4-2-3.5-3.8-4.6c-0.8-0.5-2.2,0-2.3,0.8l0,0
					c0.2-0.2-7.7-4-10.1-3c-0.7,0.2-1.6,1.9-2.1,1.8c-5.9-1.3-19.8,6.8-19.5,7.5c3.3,0.5,6.5,1.2,9.5,2.2
					C30,308.8,40.8,310.5,47.9,315.3z"/>
				<path class="st11" d="M48,315.5c0-0.2-3.3-11.1-12.7-11.5c-1.7-0.1-3.2-0.3-4.7,0.1c-1.2,0.3-2.1,1.2-1.4,1.7
					c0,0,0.1,0.1,0.1,0.1c0.7,0.6-0.4,1.8-1.5,1.7c-5.8-0.5-12.2,0.4-18.6,2.8c0.1,0.4,11.8,5.7,23.2,4
					C44.2,313.5,47,315.7,48,315.5z"/>
				<g>
					<path class="st15" d="M41.4,347.5l0.4-0.1c-2.3-12.4,2.4-18.9,2.7-19.3l2.5-2.1l-0.3-0.4l-2.5,2.1
						C44.1,327.9,39,334.5,41.4,347.5z"/>
				</g>
				<path class="st11" d="M44.2,327.8c0,0,0-3.1,0.8-4.6c0.5-0.9,1.2-2.2,2.3-2.9c0.5-0.3,1.4,0,1.4,0.5l0,0
					c-0.1-0.1,4.8-2.5,6.2-1.9c0.4,0.1,1,1.1,1.3,1.1c3.6-0.8,12.2,4.2,12.1,4.6c-2,0.3-4,0.7-5.9,1.3
					C55.5,323.7,48.6,324.8,44.2,327.8z"/>
				<path class="st11" d="M44.2,327.9c-0.3-0.1,4.4-6.8,8-7.1c1-0.2,2-0.2,2.9,0.1c0.7,0.2,1.3,0.7,0.9,1c0,0-0.1,0-0.1,0.1
					c-0.4,0.3,0.3,1.1,0.9,1.1c3.6-0.3,7.5,0.2,11.5,1.8c0,0.2-7.5,2.4-14.5,1.3C46.5,325.4,44.2,328.1,44.2,327.9z"/>
			</g>
			<path class="st7" d="M170.6,223c0,0-2-2.3-2.7-0.7c-0.8,1.6-0.4,4.7,1.6,3.3C171.4,224.3,170.6,223,170.6,223z"/>
		</g>
	</g>
</g>
<g id="color" class="st21">
	<circle class="st22" cx="-172.3" cy="105.7" r="31.2"/>
	<circle class="st23" cx="-172.3" cy="147.2" r="31.2"/>
	<circle class="st24" cx="-172.3" cy="179.1" r="31.2"/>
	<circle class="st25" cx="-172.3" cy="211.1" r="31.2"/>
	<circle class="st26" cx="-172.3" cy="249.3" r="31.2"/>
	<circle class="st27" cx="-172.3" cy="287.5" r="31.2"/>
</g>
</svg>
