<svg width="50" height="50" viewBox="0 0 50 50" fill="none" xmlns="http://www.w3.org/2000/svg">
<g clip-path="url(#clip0_23_43)">
<path d="M8 33.3251C8 28.5103 11.9032 24.6071 16.7179 24.6071C21.5327 24.6071 25.4359 28.5103 25.4359 33.3251V36.75H8V33.3251Z" fill="black"/>
<path d="M24.5641 33.3251C24.5641 28.5103 28.4673 24.6071 33.2821 24.6071C38.0968 24.6071 42 28.5103 42 33.3251V36.75H24.5641V33.3251Z" fill="black"/>
<path d="M15.8461 29.2775C15.8461 24.4627 19.7493 20.5595 24.5641 20.5595C29.3789 20.5595 33.282 24.4627 33.282 29.2775V36.75H15.8461V29.2775Z" fill="#FF9103"/>
<ellipse cx="24.5641" cy="13.4762" rx="6.97436" ry="6.47619" fill="#FF9103"/>
<ellipse cx="35.0256" cy="20.5595" rx="3.48718" ry="3.23809" fill="black"/>
<ellipse cx="14.1026" cy="20.5595" rx="3.48718" ry="3.23809" fill="black"/>
<path d="M47.9319 32.0802C49.6177 26.6201 49.2999 20.7376 47.0358 15.4908C44.7716 10.244 40.7096 5.97729 35.5804 3.45806C30.4512 0.938836 24.5914 0.332445 19.055 1.74796C13.5187 3.16347 8.66902 6.50799 5.37842 11.18L6.55572 12.0092C9.64888 7.61752 14.2075 4.47367 19.4117 3.14308C24.6159 1.8125 30.1241 2.38251 34.9456 4.75058C39.767 7.11865 43.5853 11.1294 45.7136 16.0614C47.8419 20.9933 48.1406 26.5229 46.5559 31.6554L47.9319 32.0802Z" fill="black"/>
<path d="M44.5552 40.0674C41.1112 44.6275 36.1531 47.809 30.5727 49.0397C24.9924 50.2705 19.156 49.4697 14.1133 46.7814C9.07064 44.0932 5.15267 39.6938 3.0641 34.3747C0.97553 29.0556 0.853433 23.1658 2.71977 17.7646L4.0808 18.2349C2.32645 23.312 2.44122 28.8484 4.40448 33.8484C6.36773 38.8484 10.0506 42.9838 14.7907 45.5107C19.5308 48.0377 25.017 48.7904 30.2626 47.6335C35.5081 46.4766 40.1687 43.486 43.4061 39.1996L44.5552 40.0674Z" fill="black"/>
<path d="M4.30894 15.9574L5.15828 19.5583L1.15908 17.898L4.30894 15.9574Z" fill="black"/>
<path d="M45.9933 34.2743L45.3298 30.6346L49.2385 32.4978L45.9933 34.2743Z" fill="black"/>
</g>
<defs>
<clipPath id="clip0_23_43">
<rect width="50" height="50" fill="white"/>
</clipPath>
</defs>
</svg>
