<svg width="450" height="427" viewBox="0 0 450 427" fill="none" xmlns="http://www.w3.org/2000/svg">
<g clip-path="url(#clip0_4_691)">
<path opacity="0.8" d="M318.8 176.4C322 179.5 326.6 181.1 331.1 181C336.3 180.8 341.3 178.5 345.3 175.2C345.4 175.1 345.5 175 345.6 174.9C344.6 174.9 343.7 174.8 342.7 174.7C338.3 174.3 333.7 173.8 329.9 171.8C336.6 172.9 343.7 172.3 350.1 170.1C352.5 167.1 354.3 163.7 355.6 160.1C354.8 160.6 353.9 161.1 353.1 161.4C347.3 164.1 340.7 164.1 334.4 163.1C342.5 161.1 350.2 158 357.4 153.8C357.9 150.8 358.1 147.8 357.8 144.8C357 145.6 356.3 146.5 355.6 147.4C354.3 149.2 353.3 151.2 351.6 152.6C349.3 154.5 346.1 154.7 343.1 154.8C341.6 154.8 340.1 154.9 338.5 154.8C340.3 154.2 342.1 153.5 343.9 152.7C345.5 152.1 347 151.4 348.5 150.5C352.2 148.3 354.9 145 357.4 141.4C357.1 139.5 356.6 137.7 355.9 135.9C352 139.6 347.4 142.6 342.4 144.6C346.9 141.2 351.1 137.3 354.6 133C353.9 131.4 353 130 352 128.5C348.7 132.6 344.3 135.8 339.5 137.9C343.6 134.5 347.1 130.2 349.7 125.5C348.8 124.5 347.9 123.5 347 122.6C346.2 123.6 345.3 124.5 344.3 125.3C343.5 126 342.5 126.6 341.6 127.1C343 125.2 344.2 123.1 345.2 120.9C343.9 119.8 342.6 118.7 341.2 117.8L318.8 176.4Z" fill="#FFD9A9"/>
<path opacity="0.8" d="M318.8 176.4C316.5 177 312.3 176.5 310.1 175.5C307.7 174.4 305.4 172.8 303.6 170.8C300.1 166.9 298.7 161.5 298.2 156.3C300.1 158 302.1 159.5 304.4 160.7C306.7 161.9 309.2 162.7 311.7 163.6C309.2 161.1 307 158.3 304.2 156.2C303.2 155.4 302.2 154.7 301.3 153.9C300 152.8 299 151.5 298.1 150C298.4 145.9 299.3 141.8 301 138C301.6 139.9 302.5 141.7 303.3 143.5C304.3 145.5 305.4 147.5 306.9 149C308.1 150.2 309.5 151.1 311 151.8C310.1 150.9 309.3 149.9 308.6 148.8C305.5 144.1 304.6 138.4 303.9 132.8C305.1 131.1 306.6 129.6 308.1 128.2C308.5 131.8 309.5 135.3 311.1 138.6C312.6 141.6 314.6 144.3 317 146.6C316.5 145.7 316.1 144.8 315.7 143.9C314.4 141.1 313.2 138.2 312.4 135.2C311.9 133.4 311.6 131.5 311.4 129.6C311.3 128.7 311.2 127.7 311.2 126.8C311.2 126.4 311.2 126.1 311.3 125.7C313 124.5 314.8 123.4 316.7 122.5C316.3 125 316.2 127.4 316.7 129.9C317 131.4 317.5 132.8 318.1 134.2C319.3 137.1 320.8 139.8 322.8 142.3C319.6 135.6 318.7 127.7 321 120.7C322.4 120.2 323.8 119.8 325.2 119.5C324.7 122.4 324.7 125.4 325.3 128.3C325.5 125.1 326.4 121.9 327.9 119.1C329.5 118.9 331.2 118.7 332.8 118.6C332.5 120.4 332.4 122.3 332.6 124.2C333 122.2 333.7 120.3 334.7 118.5C336.7 118.4 338.8 118.2 341 118L318.8 176.4Z" fill="#FFD9A9"/>
<path d="M326 167.3C327.2 167.4 328.3 167.5 329.5 167.5C331.8 167.6 334.2 167.7 336.5 167.6C338.8 167.5 341.2 167.4 343.5 167.2C345.8 166.9 348.1 166.6 350.4 166.1C348.1 166.6 345.8 166.9 343.5 167.1C341.2 167.3 338.9 167.3 336.6 167.3C334.3 167.3 332 167.2 329.7 167C328.5 166.9 327.4 166.8 326.2 166.7L323.6 166.4L326.1 159.5C327.6 159.6 329.2 159.7 330.7 159.6C332.4 159.5 334.1 159.4 335.8 159.2C339.2 158.8 342.5 158.1 345.8 157.1C342.5 158 339.2 158.6 335.8 158.9C334.1 159.1 332.4 159.1 330.7 159.1C329.2 159.1 327.8 159 326.4 158.8L328.8 152.3C330.9 152.2 332.9 152.1 334.9 151.6C337 151.1 339.2 150.5 341.2 149.7C343.2 148.9 345.2 148 347.1 146.9C349 145.8 350.8 144.6 352.6 143.3C350.9 144.6 349 145.8 347.1 146.8C345.2 147.8 343.2 148.7 341.2 149.5C339.2 150.3 337.1 150.8 334.9 151.2C333 151.6 331 151.7 329.1 151.7L331.6 144.8C333.3 144.4 335.1 144 336.7 143.3C338.4 142.6 340.1 141.9 341.7 140.9C343.3 140 344.9 139 346.3 137.9C347.8 136.8 349.2 135.6 350.5 134.3C349.2 135.6 347.7 136.7 346.2 137.8C344.7 138.9 343.1 139.8 341.5 140.7C339.9 141.6 338.2 142.3 336.5 142.9C335 143.5 333.4 143.8 331.8 144.1L334.4 136.9C336.5 135.8 338.5 134.5 340.4 133C342.3 131.5 344.1 129.8 345.6 128C344 129.8 342.2 131.4 340.3 132.9C338.5 134.3 336.6 135.4 334.6 136.5L339.2 124L332.6 140.5C332 139.3 331.4 138.1 331 136.8C330.7 136.1 330.5 135.3 330.3 134.6C330.1 133.8 329.9 133.1 329.8 132.3C329.6 130.8 329.4 129.2 329.4 127.7C329.4 126.2 329.5 124.6 329.8 123.1C329.5 124.6 329.4 126.2 329.3 127.7C329.3 129.3 329.4 130.8 329.6 132.3C329.7 133.1 329.9 133.8 330 134.6C330.2 135.4 330.4 136.1 330.6 136.8C331 138.2 331.7 139.6 332.3 140.9L329.7 147.4C328.5 145.8 327.4 144.2 326.6 142.4C325.6 140.5 324.8 138.4 324.2 136.3C323.6 134.2 323.2 132 323 129.9C322.8 127.7 322.8 125.5 323.1 123.3C322.7 125.5 322.7 127.7 322.8 129.9C322.9 132.1 323.3 134.3 323.9 136.4C324.5 138.5 325.2 140.6 326.2 142.6C327.1 144.5 328.3 146.3 329.5 148L327.1 154L326.3 153.2L325.7 152.5L325.1 151.8L323.9 150.4L322.8 148.9C321.4 146.9 320.1 144.8 319 142.6C317.9 140.4 317 138.1 316.2 135.7C315.4 133.3 314.8 130.9 314.4 128.5C314.7 131 315.3 133.4 316 135.8C316.7 138.2 317.6 140.5 318.6 142.8C319.6 145.1 320.9 147.2 322.3 149.3L323.4 150.8L324.6 152.3L325.2 153L325.8 153.7L326.8 154.7L325.3 158.3C323.6 157.2 321.9 156.1 320.4 154.8C318.7 153.3 317.1 151.8 315.7 150C314.2 148.3 312.9 146.5 311.6 144.6C310.4 142.7 309.2 140.8 308.2 138.7C309.1 140.8 310.2 142.7 311.4 144.7C312.6 146.6 313.9 148.5 315.3 150.2C316.7 152 318.3 153.6 320 155.1C321.5 156.5 323.2 157.8 325 158.9L323.3 163C322.5 162.7 321.7 162.3 321 162C320 161.5 319 161.1 318.1 160.5C316.2 159.5 314.3 158.4 312.5 157.2C310.7 156 308.9 154.7 307.3 153.3C305.6 151.9 304 150.4 302.6 148.8C304 150.5 305.6 152 307.2 153.4C308.8 154.8 310.6 156.2 312.4 157.5C314.2 158.7 316 160 317.9 161C318.8 161.6 319.8 162 320.8 162.6C321.6 163 322.4 163.4 323.1 163.7L319.7 172.2C318.1 172 316.4 171.6 314.9 171.1C313.1 170.4 311.4 169.5 309.8 168.4C308.2 167.3 306.7 166.1 305.2 164.8C303.8 163.5 302.4 162.1 301.2 160.6C302.4 162.2 303.7 163.6 305.1 165C306.5 166.4 308 167.6 309.6 168.8C311.2 169.9 312.9 170.9 314.7 171.7C316.2 172.3 317.8 172.8 319.5 173L313.5 187.8L315.6 188.6L321.1 173.5C322.3 174.1 323.5 174.6 324.7 175C326.2 175.5 327.8 175.9 329.3 176.2C330.9 176.5 332.5 176.7 334 176.8C335.6 176.9 337.2 176.8 338.8 176.6C337.2 176.7 335.6 176.7 334.1 176.6C332.5 176.5 331 176.2 329.4 175.9C327.9 175.5 326.3 175.1 324.9 174.5C323.7 174 322.5 173.5 321.4 172.8L323.5 166.9L326 167.3Z" fill="#FF9E22"/>
<path opacity="0.8" d="M58.8 260.7C61.9 257.5 63.4 252.8 63.2 248.4C63 243.2 60.6 238.2 57.1 234.3C57 234.2 56.9 234.1 56.8 234C56.8 235 56.7 235.9 56.7 236.9C56.4 241.3 56 245.9 54 249.7C55 242.9 54.3 235.9 52 229.5C48.9 227.2 45.5 225.4 41.9 224.1C42.4 224.9 42.9 225.7 43.3 226.6C46.1 232.3 46.2 238.9 45.4 245.3C43.3 237.3 40 229.6 35.7 222.5C32.7 222 29.7 221.9 26.7 222.2C27.5 223 28.4 223.7 29.3 224.4C31.1 225.7 33.2 226.6 34.6 228.3C36.5 230.6 36.8 233.8 36.9 236.8C37 238.3 37 239.8 37 241.4C36.3 239.6 35.6 237.8 34.9 236.1C34.2 234.5 33.5 233 32.6 231.5C30.3 227.9 26.9 225.2 23.4 222.8C21.5 223.2 19.7 223.7 17.9 224.4C21.7 228.2 24.7 232.8 26.9 237.7C23.5 233.2 19.5 229.2 15.1 225.7C13.5 226.5 12.1 227.4 10.7 228.4C14.8 231.7 18.2 235.9 20.3 240.8C16.8 236.7 12.5 233.3 7.70001 230.9C6.70001 231.8 5.70001 232.7 4.80001 233.7C5.80001 234.5 6.70001 235.4 7.50001 236.3C8.20001 237.1 8.80001 238 9.40001 239C7.50001 237.6 5.40001 236.4 3.20001 235.5C2.10001 236.8 1.10001 238.1 0.200012 239.5L58.8 260.7Z" fill="#FFD9A9"/>
<path opacity="0.8" d="M58.8 260.7C59.5 263 59 267.2 58 269.4C56.9 271.9 55.4 274.1 53.4 276C49.5 279.6 44.2 281.1 39 281.6C40.7 279.7 42.2 277.6 43.3 275.3C44.5 272.9 45.3 270.4 46 267.9C43.6 270.4 40.8 272.7 38.7 275.5C37.9 276.5 37.3 277.5 36.5 278.5C35.4 279.8 34.1 280.9 32.7 281.8C28.5 281.6 24.4 280.8 20.7 279.1C22.6 278.5 24.4 277.6 26.1 276.7C28.1 275.7 30 274.6 31.6 273C32.8 271.8 33.6 270.3 34.3 268.8C33.4 269.7 32.4 270.5 31.4 271.2C26.8 274.4 21.1 275.4 15.5 276.2C13.8 275 12.3 273.6 10.9 272.1C14.5 271.7 18 270.6 21.2 268.9C24.1 267.4 26.8 265.3 29.1 262.9C28.2 263.4 27.3 263.8 26.5 264.2C23.7 265.5 20.9 266.8 17.9 267.7C16.1 268.2 14.2 268.6 12.3 268.8C11.4 268.9 10.4 269.1 9.50001 269.1C9.10001 269.1 8.80001 269.1 8.40001 269C7.20001 267.3 6.10001 265.5 5.10001 263.7C7.60001 264.1 10 264.1 12.5 263.5C14 263.2 15.4 262.6 16.8 262C19.6 260.7 22.4 259.2 24.8 257.2C18.2 260.5 10.3 261.5 3.20001 259.4C2.70001 258 2.30001 256.6 1.90001 255.2C4.80001 255.7 7.80001 255.6 10.7 255C7.50001 254.8 4.30001 254 1.40001 252.5C1.10001 250.9 1.00001 249.3 0.800006 247.6C2.60001 247.9 4.50001 247.9 6.40001 247.7C4.40001 247.4 2.50001 246.7 0.700006 245.7C0.500006 243.7 0.400006 241.6 0.100006 239.4L58.8 260.7Z" fill="#FFD9A9"/>
<path d="M49.7 253.7C49.8 252.5 49.9 251.4 49.9 250.2C50 247.9 50 245.5 49.9 243.2C49.8 240.9 49.6 238.6 49.4 236.2C49.1 233.9 48.7 231.6 48.1 229.3C48.6 231.6 48.9 233.9 49.2 236.2C49.4 238.5 49.5 240.8 49.6 243.1C49.6 245.4 49.6 247.7 49.4 250C49.3 251.2 49.2 252.3 49.1 253.5L48.8 256.1L41.9 253.7C42 252.2 42 250.6 42 249.1C41.9 247.4 41.8 245.7 41.5 244C41 240.6 40.2 237.3 39.2 234.1C40.1 237.4 40.8 240.7 41.1 244.1C41.3 245.8 41.4 247.5 41.4 249.2C41.4 250.7 41.3 252.1 41.2 253.5L34.6 251.2C34.5 249.1 34.3 247.1 33.8 245.1C33.3 243 32.7 240.9 31.8 238.8C31 236.8 30 234.8 28.9 232.9C27.8 231 26.6 229.2 25.2 227.5C26.5 229.2 27.7 231.1 28.8 233C29.9 234.9 30.8 236.9 31.6 238.9C32.4 240.9 33 243 33.4 245.1C33.8 247 34 249 34 250.9L27.1 248.5C26.7 246.8 26.2 245.1 25.6 243.4C24.9 241.7 24.1 240 23.2 238.4C22.3 236.8 21.2 235.3 20.1 233.8C19 232.3 17.8 231 16.4 229.7C17.7 231 18.9 232.4 20 233.9C21.1 235.4 22.1 236.9 23 238.5C23.9 240.1 24.7 241.8 25.3 243.5C25.9 245 26.3 246.6 26.6 248.2L19.4 245.7C18.2 243.6 16.9 241.6 15.4 239.8C13.8 237.9 12.2 236.2 10.3 234.7C12.1 236.3 13.8 238 15.3 239.9C16.7 241.7 17.9 243.5 19 245.5L6.40001 241.1L23 247.5C21.8 248.2 20.6 248.8 19.3 249.2C18.6 249.5 17.8 249.7 17.1 249.9C16.3 250.1 15.6 250.3 14.8 250.4C13.3 250.7 11.7 250.8 10.2 250.9C8.70001 250.9 7.10001 250.8 5.60001 250.6C7.10001 250.9 8.70001 251 10.2 251C11.8 251 13.3 250.9 14.8 250.6C15.6 250.5 16.3 250.3 17.1 250.1C17.8 249.9 18.6 249.7 19.3 249.4C20.7 248.9 22 248.3 23.4 247.6L30 250.1C28.4 251.3 26.8 252.4 25.1 253.3C23.2 254.4 21.2 255.2 19.1 255.8C17 256.5 14.9 256.9 12.7 257.1C10.5 257.3 8.30001 257.4 6.10001 257.1C8.30001 257.4 10.5 257.4 12.7 257.3C14.9 257.1 17.1 256.7 19.2 256.1C21.3 255.5 23.4 254.7 25.4 253.7C27.3 252.8 29 251.6 30.7 250.3L36.7 252.6L35.9 253.4L35.3 254.1L34.6 254.7L33.2 255.9L31.7 257C29.7 258.5 27.6 259.8 25.4 260.9C23.2 262 20.9 263 18.6 263.8C16.3 264.6 13.9 265.3 11.4 265.7C13.9 265.3 16.3 264.7 18.6 264C21 263.2 23.3 262.3 25.5 261.2C27.7 260.1 29.9 258.9 31.9 257.4L33.4 256.3L34.8 255.1L35.5 254.5L36.2 253.8L37.2 252.8L40.8 254.2C39.8 255.9 38.6 257.6 37.3 259.1C35.9 260.8 34.3 262.4 32.6 263.9C30.9 265.4 29.2 266.8 27.3 268.1C25.4 269.4 23.5 270.5 21.5 271.6C23.5 270.6 25.5 269.5 27.4 268.3C29.3 267.1 31.1 265.7 32.8 264.3C34.5 262.9 36.2 261.3 37.7 259.6C39.1 258.1 40.3 256.3 41.4 254.6L45.6 256.2C45.3 257 44.9 257.8 44.6 258.5C44.1 259.5 43.7 260.5 43.2 261.4C42.2 263.3 41.1 265.2 40 267.1C38.8 268.9 37.6 270.7 36.2 272.4C34.8 274.1 33.4 275.7 31.8 277.2C33.5 275.8 34.9 274.2 36.4 272.5C37.8 270.8 39.1 269.1 40.4 267.3C41.6 265.5 42.8 263.6 43.8 261.7C44.3 260.8 44.8 259.8 45.3 258.8C45.7 258 46 257.2 46.4 256.4L54.9 259.7C54.7 261.3 54.4 263 53.8 264.5C53.1 266.3 52.2 268 51.2 269.7C50.1 271.3 49 272.9 47.7 274.3C46.4 275.7 45 277.1 43.5 278.4C45 277.2 46.5 275.9 47.8 274.5C49.1 273.1 50.4 271.6 51.5 270C52.6 268.4 53.5 266.7 54.3 264.8C54.9 263.3 55.3 261.7 55.5 260L70.4 265.7L71.2 263.6L56 258.8C56.6 257.6 57.1 256.4 57.5 255.2C58 253.7 58.4 252.1 58.7 250.6C59 249 59.1 247.4 59.2 245.8C59.2 244.2 59.2 242.6 59 241C59.2 242.6 59.2 244.2 59.1 245.7C59 247.3 58.8 248.8 58.4 250.4C58.1 251.9 57.6 253.5 57.1 254.9C56.7 256.1 56.1 257.3 55.5 258.5L49.6 256.5L49.7 253.7Z" fill="#FF9E22"/>
<path opacity="0.8" d="M250.7 344.1C203.3 371.5 126.1 371.3 78.4 343.8C30.7 316.3 30.4 271.7 77.9 244.3C125.4 216.9 202.5 217.1 250.2 244.6C297.9 272.2 298.2 316.7 250.7 344.1Z" fill="#FFD9A9"/>
<path opacity="0.8" d="M374.3 295.2C326.9 322.6 249.7 322.4 202 294.9C154.3 267.3 154 222.8 201.5 195.4C249 168 326.1 168.2 373.8 195.7C421.5 223.3 421.7 267.9 374.3 295.2Z" fill="#FFD9A9"/>
<path opacity="0.8" d="M174.5 74.3C173.1 73.6 171.7 73.1 170.2 72.6C170.1 72.6 170 72.6 170 72.5C169.6 72.4 169.2 72.3 168.8 72.2C168.7 72.2 168.5 72.1 168.4 72.1C168.1 72 167.7 71.9 167.3 71.9C167.1 71.9 167 71.8 166.8 71.8C166.5 71.7 166.1 71.7 165.8 71.7C165.6 71.7 165.5 71.7 165.3 71.6C164.9 71.6 164.6 71.5 164.2 71.5C164 71.5 163.9 71.5 163.7 71.5C163.2 71.5 162.7 71.5 162.2 71.5C156.5 71.5 151.2 73.2 146.8 76.2C145.7 76.9 144.7 77.8 143.7 78.7C142.7 79.6 141.8 80.6 141 81.6C140.7 81.9 140.4 82.3 140.2 82.6C139.7 83.3 139.2 84 138.7 84.8C138.5 85.2 138.2 85.6 138 86C137.7 86.5 137.5 87 137.2 87.6C136.9 88.2 136.7 88.7 136.5 89.3C136.1 90.3 135.8 91.2 135.6 92.2C135 94.4 134.7 96.7 134.7 99.1C134.7 99.5 134.7 100 134.7 100.4C134.7 100.5 134.7 100.7 134.7 100.8C134.7 101.1 134.7 101.4 134.8 101.7C134.8 101.9 134.8 102 134.8 102.2C134.8 102.5 134.9 102.8 134.9 103C134.9 103.1 134.9 103.3 135 103.4C135.1 103.7 135.1 104.1 135.2 104.4C135.2 104.5 135.2 104.6 135.3 104.7C135.4 105.1 135.5 105.4 135.5 105.8C135.5 106 135.6 106.1 135.6 106.3C135.7 106.5 135.7 106.8 135.8 107C135.9 107.2 135.9 107.4 136 107.6C136.1 107.8 136.1 108 136.2 108.2C136.3 108.4 136.3 108.6 136.4 108.8C136.5 109 136.6 109.2 136.6 109.4C136.7 109.8 136.9 110.1 137.1 110.5C137.2 110.7 137.2 110.8 137.3 111C137.4 111.2 137.5 111.4 137.6 111.6C137.7 111.7 137.7 111.9 137.8 112C137.9 112.2 138 112.4 138.1 112.6C138.2 112.7 138.2 112.9 138.3 113C138.4 113.2 138.6 113.4 138.7 113.7C138.8 113.8 138.8 113.9 138.9 114C139.2 114.5 139.6 115 139.9 115.5C144.9 122.3 153 126.7 162.1 126.7C177.3 126.7 189.7 114.4 189.7 99.1C189.9 88.2 183.6 78.9 174.5 74.3Z" fill="#FFD9A9"/>
<path opacity="0.8" d="M93 65.4C91.1 64.5 89.2 63.7 87.2 63.1C87.1 63.1 87 63 86.9 63C86.4 62.8 85.8 62.7 85.3 62.6C85.1 62.6 84.9 62.5 84.8 62.5C84.3 62.4 83.8 62.3 83.4 62.2C83.2 62.2 83 62.1 82.7 62.1C82.2 62 81.8 62 81.3 61.9C81.1 61.9 80.8 61.8 80.6 61.8C80.1 61.7 79.6 61.7 79.1 61.7C78.9 61.7 78.7 61.7 78.5 61.7C77.8 61.7 77.1 61.6 76.4 61.6C55.7 61.6 38.8 78.4 38.8 99.2C38.8 99.8 38.8 100.4 38.8 101C38.8 101.2 38.8 101.4 38.8 101.6C38.8 102 38.9 102.4 38.9 102.8C38.9 103 38.9 103.2 39 103.4C39 103.8 39.1 104.2 39.1 104.5C39.1 104.7 39.2 104.9 39.2 105.1C39.3 105.6 39.4 106 39.4 106.5C39.4 106.7 39.5 106.8 39.5 107C39.6 107.5 39.7 108 39.8 108.5C39.9 108.7 39.9 109 40 109.2C40.1 109.5 40.2 109.8 40.3 110.1C40.4 110.4 40.5 110.6 40.5 110.9C40.6 111.2 40.7 111.5 40.8 111.7C40.9 112 41 112.2 41.1 112.5C41.2 112.8 41.3 113 41.4 113.3C41.6 113.8 41.8 114.3 42 114.8C42.1 115 42.2 115.2 42.3 115.4C42.4 115.7 42.6 116 42.7 116.3C42.8 116.5 42.9 116.7 43 116.9C43.2 117.2 43.3 117.5 43.5 117.8C43.6 118 43.7 118.1 43.8 118.3C44 118.6 44.2 118.9 44.3 119.2C44.4 119.3 44.5 119.4 44.5 119.6C51.2 130.1 62.9 137 76.2 137C96.9 137 113.8 120.2 113.8 99.4C113.9 84.3 105.4 71.5 93 65.4Z" fill="#FFD9A9"/>
<path opacity="0.8" d="M138.1 2.09999C138 2.09999 137.8 1.99999 137.7 1.99999C137 1.79999 136.3 1.59999 135.6 1.39999C135.4 1.29999 135.1 1.29999 134.9 1.19999C134.3 1.09999 133.7 0.899994 133.1 0.799994C132.8 0.699994 132.5 0.699994 132.3 0.699994C131.7 0.599994 131.1 0.499994 130.5 0.399994C130.2 0.399994 129.9 0.299994 129.6 0.299994C129 0.199994 128.4 0.199994 127.7 0.0999939C127.4 0.0999939 127.2 0.0999939 126.9 -6.10203e-06C126 -6.10203e-06 125.1 -0.100006 124.2 -0.100006C115.1 -0.100006 106.6 2.39999 99.3 6.79999C98.6 7.19999 98 7.59999 97.4 7.99999C93.6 10.6 90.1 13.7 87.2 17.3C80.4 25.6 76.2 36.2 76.2 47.8C76.2 48.6 76.2 49.3 76.3 50.1C76.3 50.3 76.3 50.6 76.3 50.8C76.3 51.3 76.4 51.8 76.4 52.3C76.4 52.6 76.5 52.8 76.5 53.1C76.6 53.6 76.6 54.1 76.7 54.6C76.7 54.9 76.8 55.1 76.8 55.4C76.9 56 77 56.6 77.1 57.2C77.1 57.4 77.2 57.6 77.2 57.8C77.3 58.4 77.5 59 77.6 59.7C77.7 60 77.8 60.3 77.8 60.6C77.9 61 78 61.4 78.1 61.8C78.2 62.1 78.3 62.4 78.4 62.8C78.5 63.2 78.6 63.5 78.8 63.9C78.9 64.2 79 64.6 79.2 64.9C79.3 65.2 79.5 65.6 79.6 65.9C79.9 66.5 80.1 67.2 80.4 67.8C80.5 68.1 80.6 68.3 80.8 68.6C81 69 81.2 69.3 81.4 69.7C81.5 69.9 81.6 70.2 81.8 70.4C82 70.8 82.2 71.2 82.4 71.5C82.5 71.7 82.6 71.9 82.8 72.1C83 72.5 83.2 72.9 83.5 73.2C83.6 73.4 83.7 73.5 83.8 73.7C92.3 87.1 107.3 96 124.3 96C150.8 96 172.3 74.5 172.3 48C172.3 26.4 157.9 8.09999 138.1 2.09999Z" fill="#FFD9A9"/>
<path d="M162.3 101.7L126.4 121.2L124.3 61.9L121.8 132.9L78.3 99.1L121.6 139.1L119.8 242.1H128.8L126.6 126.8L162.3 101.7Z" fill="#FF9E22"/>
<path opacity="0.8" d="M404.6 372C377.5 387.6 333.5 387.5 306.3 371.8C279.1 356.1 278.9 330.7 306 315C333.1 299.4 377.1 299.5 404.3 315.2C431.5 330.9 431.6 356.4 404.6 372Z" fill="#FFD9A9"/>
<path opacity="0.8" d="M412.9 299.4C411.7 301.4 410.5 303.3 409.2 305.2C408.9 305.7 408.3 306.1 408.3 306.7C408.4 307.4 409.5 308.4 409.9 309C410.5 309.7 411.4 311.4 412.2 311.9C411.2 311.4 409.1 309.9 407.7 309.9C407.8 310.8 408.4 311.8 408.7 312.7C407.8 312 407.1 311.6 406 311.4C406.2 312.3 405.6 313.5 405.5 314.4C404.6 318.9 403.9 324.3 405.9 328.5C408.1 333.1 414.3 332.4 418.4 331.4C420.5 330.9 422.6 330 424.4 328.8C425 328.3 427.2 326.1 428.1 326.8C427.8 325.9 427.5 325 427.4 324.1C428 324.5 428.9 324.4 429.3 324.9C430.3 324.2 430.9 322.9 432.1 322.3C431.2 321.3 430.9 319.7 430.1 318.6C431.2 318.7 432.5 319 433.6 319.5C433.9 318.8 434.4 318.1 434.9 317.5C436.9 314.8 438.6 311.7 440.1 308.7C441 306.8 442.1 305.1 443.2 303.4C442.3 302.7 441.6 301.4 440.7 300.6C439.6 299.5 438.5 298.4 437.5 297.3C438.1 297.3 438.6 297.6 439.2 297.8C441.1 298.3 443.2 298.8 445.1 299.3C445.2 298.5 448.9 291.6 448.5 291.4C447.3 290.7 445.8 289.9 444.8 289.1C446 289.4 447.4 289.1 448.6 289.1C448 287.7 445.3 286.4 444.3 285.3C445.3 285 446.3 285.5 447.3 285.6C448 285.7 448.7 285.5 449.3 285.8C449.6 283.7 449.6 281.7 449.7 279.6C449.8 278.3 450.2 275.9 449.7 274.7C449.3 273.8 447.9 273.4 447.5 272.6C448.1 272.3 448.7 272.4 449.3 272.5C449.3 272 448.9 265.2 448.5 265.3C444.3 265.9 440.5 266.6 436.8 268.7C436.1 269.1 435.3 269.3 435.1 270C434.7 271.4 435.8 273.4 435.9 274.8C434.7 273.5 433 272.6 431.6 271.5C430.1 272.9 428.7 274 427.5 275.8C426.5 277.3 425.3 278.7 424.4 280.2C424.1 280.8 423.3 281.7 423.1 282.3C422.8 283.9 425.9 287.2 427 288.4C425.3 288.3 423.7 286.7 421.9 286.4C420 286.1 420 288.2 418.8 288.8C419.5 288.9 420.4 290.1 420.9 290.7C420.1 290.6 419.2 290.1 418.4 290.4C419.1 292 419.9 293.5 421 294.9C419.9 294.9 418.9 294.1 417.9 293.9C417.4 293.8 416.8 293.8 416.4 293.7C415.6 295.7 414.2 297.4 413.1 299.2C413 299.2 413 299.3 412.9 299.4Z" fill="#FFD9A9"/>
<path d="M445.6 270.2C443.3 272.4 442 276.4 440.7 279.2C439.3 282.3 437.9 285.5 436.5 288.6C433.8 294.4 431 300 427.3 305.3C419.9 316 413.2 327.5 404.2 337C403.6 337.6 402.4 336.7 403 336C411.4 325.6 419.5 315.1 427.1 304.1C431 298.5 433.9 292.3 436.8 286.1C439.4 280.6 441.8 274.7 445 269.6C445.3 269.1 446 269.7 445.6 270.2Z" fill="#FF9E22"/>
<path opacity="0.8" d="M220.5 414.8C193.4 430.4 149.4 430.3 122.2 414.6C95 398.9 94.8 373.5 121.9 357.8C149 342.2 193 342.3 220.2 358C247.4 373.7 247.5 399.2 220.5 414.8Z" fill="#FFD9A9"/>
<path opacity="0.8" d="M362.2 405.6C356.2 409.1 346.5 409 340.5 405.6C334.5 402.1 334.5 396.5 340.4 393.1C346.4 389.6 356.1 389.7 362.1 393.1C368.1 396.5 368.1 402.1 362.2 405.6Z" fill="#FFD9A9"/>
<path opacity="0.8" d="M421.2 278.1C418.6 279.6 414.3 279.6 411.7 278.1C409.1 276.6 409 274.1 411.7 272.6C414.3 271.1 418.6 271.1 421.2 272.6C423.8 274.1 423.8 276.6 421.2 278.1Z" fill="#FFD9A9"/>
<path d="M85.6 345.1C87.9 345.2 90.2 345.3 92.5 345.3C93.1 345.3 93.8 345.1 94.2 345.4C94.8 345.8 95 347.3 95.2 348C95.5 348.9 96.3 350.6 96.2 351.5C96.3 350.4 96.3 347.8 97.1 346.6C97.8 347.3 98.3 348.3 98.9 349C98.8 347.9 98.9 347.1 99.3 346.1C99.9 346.8 101.2 347 102.1 347.3C106.3 349 111.1 351.6 113.5 355.6C116.1 360 112 364.7 108.8 367.6C107.2 369 105.3 370.3 103.3 371.1C102.6 371.4 99.5 371.8 99.5 373C98.9 372.3 98.4 371.5 97.7 370.9C97.7 371.6 97.1 372.3 97.3 372.9C96.1 373.3 94.8 373.1 93.6 373.7C93.3 372.4 92.1 371.3 91.7 370C91.2 371 90.7 372.2 90.5 373.4C89.7 373.2 88.9 373.3 88.1 373.3C84.7 373.4 81.2 373.1 77.9 372.6C75.8 372.3 73.8 372.3 71.8 372.2C71.7 371 71.1 369.7 70.8 368.6C70.5 367.1 70.2 365.6 69.8 364.1C69.4 364.6 69.4 365.2 69.2 365.8C68.6 367.7 67.8 369.7 67.1 371.5C66.4 371.1 58.6 370.3 58.7 369.8C58.8 368.5 59 366.7 58.8 365.5C58.3 366.7 57.4 367.6 56.6 368.7C55.8 367.4 56.3 364.5 56 363C55.2 363.6 55 364.8 54.5 365.6C54.2 366.2 53.6 366.7 53.6 367.4C51.7 366.5 50 365.3 48.3 364.2C47.2 363.5 45 362.6 44.3 361.4C43.8 360.6 44.2 359.2 43.8 358.4C43.2 358.7 43 359.3 42.7 359.8C42.3 359.5 36.9 355.4 37.2 355C40 351.9 42.8 349.1 46.6 347.2C47.3 346.9 48 346.3 48.7 346.5C50.1 347 51.1 349 52.2 349.8C51.8 348.1 52 346.1 51.9 344.4C53.9 343.9 55.6 343.5 57.7 343.4C59.5 343.4 61.4 343.2 63.1 343.3C63.7 343.4 65 343.2 65.6 343.5C67.1 344.1 68.1 348.6 68.5 350.2C69.3 348.7 69 346.5 69.8 344.8C70.7 343.1 72.3 344.2 73.5 343.7C73.1 344.4 73.7 345.8 73.9 346.5C74.3 345.8 74.3 344.7 75 344.2C75.9 345.7 76.7 347.2 77.2 348.9C77.8 348 77.7 346.8 78.1 345.8C78.3 345.3 78.6 344.9 78.8 344.4C80.9 344.8 83.1 344.7 85.2 344.8C85.4 345.1 85.5 345.1 85.6 345.1Z" fill="#E5F3F9"/>
<path d="M43.1 355.5C46.2 354.8 50.2 356 53.3 356.6C56.7 357.2 60 357.8 63.4 358.4C69.7 359.5 76 360.3 82.3 360.3C95.3 360.3 108.6 361.2 121.5 359.1C122.4 359 122.3 357.4 121.4 357.5C108.1 358.5 94.8 359.3 81.5 359.4C74.7 359.4 67.9 358.4 61.2 357.3C55.2 356.3 49 355 42.9 354.8C42.4 354.7 42.4 355.7 43.1 355.5Z" fill="#BEE1F4"/>
<path d="M226.9 273H55.1V374.4H226.9V273Z" fill="#FFB246"/>
<path d="M232.1 266.6H41.6V283.5H232.1V266.6Z" fill="#DC9600"/>
<path d="M257.3 272H87.5V373.4H257.3V272Z" fill="#FFBE64"/>
<path d="M167.6 353.4C201.4 353.4 228.8 343.237 228.8 330.7C228.8 318.163 201.4 308 167.6 308C133.8 308 106.4 318.163 106.4 330.7C106.4 343.237 133.8 353.4 167.6 353.4Z" fill="#FDDFB8"/>
<path opacity="0.38" d="M167.6 308C139.3 308 115.5 315.1 108.5 324.8C118.4 317.2 139.4 311.9 163.6 311.9C197.4 311.9 224.8 322.1 224.8 334.6C224.8 336.6 224.1 338.6 222.7 340.5C226.6 337.5 228.7 334.2 228.7 330.7C228.7 318.2 201.3 308 167.6 308Z" fill="#8E8E8E" fill-opacity="0.38"/>
<path opacity="0.46" d="M87.5 273V301.6C97.5 290.9 257.3 286.1 257.3 286.1V273H87.5Z" fill="#B88423"/>
<path d="M203.2 236.1C210.6 232.9 216.2 225.3 220.4 220.4C220.5 220.3 221.8 216 223.1 215.7C223.4 215.6 223.6 215.8 223.7 216C223.8 216.4 223.6 216.6 223.3 217.3C223.1 218 223.1 218.9 223.3 218.8C223.8 218.7 226.5 213.9 227.5 212.9C228 212.4 228.6 212.6 227.4 214.5C227.1 215.1 226.6 215.7 226.3 216.2C225.4 217.5 225 218.4 225.3 218.1C226.2 217.3 229.6 212.3 230.5 212.7C230.9 212.9 226.8 217.9 225.9 219.3C227.5 218.3 230.8 213.3 230.9 214.5C231 215.2 227.8 219.2 226.9 220C225.8 221 227.2 220.2 228 219.8C228.6 219.5 230.4 217.7 230.2 218.9C230 220 224.3 223.4 222.5 225C220.9 226.5 214.5 239.3 207.6 243.1C203.1 245.6 190 246 183.2 246.6C181.8 246.7 180.4 246.2 179.4 245.2L179.2 245C177.3 243.1 177.4 240 179.4 238.2C180.4 237.3 181.8 236.9 183.1 237C186.6 237.4 201.1 237.1 203.2 236.1Z" fill="#F8AC9B"/>
<path d="M195.4 236C194.9 235.7 188.5 237.4 185.4 237C182.3 236.6 186.8 247.8 186.8 247.8C186.8 247.8 194.6 247.7 196.6 247.2C198.7 246.7 197.7 237.1 195.4 236Z" fill="#0569BD"/>
<path opacity="0.39" d="M190.7 247.7C192.9 247.6 195.5 247.5 196.5 247.2C197.1 247.1 197.4 246.3 197.6 245.3C196.8 245.3 196 245.3 195.8 245.3C192.8 245 188.3 241.6 187 238.7C186.7 238.1 186.4 237.5 186 237.1C185.8 237.1 185.5 237.1 185.3 237C182.2 236.6 186.7 247.8 186.7 247.8L189.6 247.3C189.7 247.3 190.1 247.5 190.7 247.7Z" fill="#1D547B"/>
<path d="M156.6 250.4L149.2 266.9L155.3 267.3L165.2 250.8L156.6 250.4Z" fill="#F8AC9B"/>
<path d="M161.5 238.8L169.9 267.1L191.5 267.4C191.5 267.4 194.7 250.5 194.7 249.2C194.7 247.9 186.3 238.8 184.7 237.2C183.1 235.6 163.8 235.5 161.5 238.8Z" fill="#0569BD"/>
<path opacity="0.39" d="M175 267.2L161.5 238.8L169.8 267.1L175 267.2Z" fill="#1D547B"/>
<path d="M161.5 238.8L154.7 251.9L163.4 256.3L165.2 250.8C165.2 250.8 165.9 243.2 161.5 238.8Z" fill="#0569BD"/>
<path d="M160 229.2C162.706 229.2 164.9 226.738 164.9 223.7C164.9 220.662 162.706 218.2 160 218.2C157.294 218.2 155.1 220.662 155.1 223.7C155.1 226.738 157.294 229.2 160 229.2Z" fill="#043059"/>
<path d="M179 236.5C176.7 235.1 170 235.1 168.3 236.9C166.6 238.6 179.9 250.3 185.9 250.3C186.5 250.2 182.3 238.4 179 236.5Z" fill="#043059"/>
<path d="M178.4 228.7C178.4 228.7 176.7 237.6 178.4 239.3C179.7 240.6 182.6 245.4 183.9 247.4C185.7 250 183.5 249.1 182.7 248.8C179 247.7 170.4 238.8 170.4 238.8L170.1 227L178.4 228.7Z" fill="#F8AC9B"/>
<path d="M170.9 227.2C172 230.5 173.8 233.4 175.7 234.5C176.3 234.9 176.9 235.2 177.6 235.5C177.6 232.4 178.3 228.7 178.3 228.7L170.9 227.2Z" fill="#F8AC9B"/>
<path d="M186.5 249.3C186.5 249.3 186.6 249.1 187.7 249.1C188.8 249.1 190.5 250.7 190.5 250.7C190.5 250.7 190 251.9 188.3 251.1C186.6 250.2 186.5 249.3 186.5 249.3Z" fill="#043059"/>
<path d="M176.1 213.2C176.1 213.2 184.5 222 183.9 228.6C183.3 235.2 174.7 231.6 171.2 228.9C167.7 226.2 166.8 212.4 176.1 213.2Z" fill="#F8AC9B"/>
<path d="M178.1 209C179.5 210.2 180.1 212.5 179.3 214.2C178.2 216.5 175.2 216.3 172.6 218.3C170 220.2 170.1 228.3 170.1 228.3C170.1 228.3 159.8 230.2 162.2 220.5C164.6 210.8 166 213.2 169 211.2C171.5 209.3 175 206.4 178.1 209Z" fill="#043059"/>
<path d="M170.3 235C170.3 235 174.4 238.7 177.1 242.2C178.6 244.1 180.3 245.8 182.2 247.3L185.8 250.2C185.8 250.2 181.7 250 179.9 249.1C178.1 248.1 178.4 247.1 176.2 247.1C174 247.1 172.8 246.3 171.5 245C170.3 243.8 169.3 243.4 168.2 242.4C167.2 241.4 164.9 237.2 165.6 236.5C166.6 235.8 170.3 235 170.3 235Z" fill="#043059"/>
<path d="M187.053 250.17C187.394 249.415 187.06 248.526 186.305 248.185C185.55 247.843 184.661 248.178 184.32 248.933C183.978 249.687 184.313 250.576 185.068 250.918C185.823 251.259 186.711 250.924 187.053 250.17Z" fill="#043059"/>
<path d="M184.9 250.1C184.9 250.1 183 250.6 183 251.9C183 253.2 182.2 253.7 182.2 253.7C182.2 253.7 184 253.9 184.9 253.1C185.8 252.3 184.9 250.1 184.9 250.1Z" fill="#043059"/>
<path d="M262.6 266.6H69.2V283.5H262.6V266.6Z" fill="#F5C476"/>
<path d="M262.6 266.6H69.2V270.2H262.6V266.6Z" fill="#FFEBBF"/>
<path d="M147.4 256.7L99.9 255.5L90.6 228.3L137.5 227.5L147.4 256.7Z" fill="#0569BD"/>
<path d="M99.9 255.5L147.5 256.6L146.7 254.2C140.7 253.9 127.9 252.6 116.1 247.5C105.9 243 98.4 234.4 94.3 228.3L90.7 228.4L99.9 255.5Z" fill="#043059"/>
<path d="M119.1 242.3C114.5 246.8 111.2 254 111.8 263.5L104.9 262.5C106.8 251.7 112.4 244.5 118.2 240.8L119.1 242.3Z" fill="#0569BD"/>
<path d="M127.1 266.6H100.3V261.7H122.2C124.9 261.6 127.1 263.9 127.1 266.6Z" fill="#003F8C"/>
<path d="M125.5 266.6H98.6V261.7H120.5C123.3 261.6 125.5 263.9 125.5 266.6Z" fill="#043059"/>
<path d="M289.7 359.7V369L287.3 372L283.4 370.3C283.4 370.3 283.9 368.6 283.9 367.2C283.9 365.8 283.5 361.2 283.5 361.2L289.7 359.7Z" fill="#F8AC9B"/>
<path d="M290.1 367.7C290.1 367.7 291.2 369 291.6 371.3C292 373.6 291.5 375.9 291.5 375.9C291.5 375.9 280.2 377.2 275.7 376.7C271.2 376.2 270.8 375.4 270.8 374.1C270.8 372.8 276.9 372.8 278.6 371.2C280.3 369.6 282.6 366.2 283.7 366.6C284.8 367.1 284.7 369.1 286.2 369.1C287.6 369.3 289.4 367 290.1 367.7Z" fill="#043059"/>
<path d="M309.4 362.7V372L307 375L303.1 373.3C303.1 373.3 303.6 371.6 303.6 370.2C303.6 368.8 303.2 364.2 303.2 364.2L309.4 362.7Z" fill="#F8AC9B"/>
<path d="M309.8 370.7C309.8 370.7 310.9 372 311.3 374.3C311.7 376.6 311.2 378.9 311.2 378.9C311.2 378.9 299.9 380.2 295.4 379.7C290.9 379.2 290.5 378.4 290.5 377.1C290.5 375.8 296.6 375.8 298.3 374.2C300 372.6 302.3 369.2 303.4 369.6C304.5 370.1 304.4 372.1 305.9 372.1C307.3 372.3 309.1 370 309.8 370.7Z" fill="#043059"/>
<path d="M284.3 305.7H251.6V327.9H284.3V305.7Z" fill="#64BB46"/>
<path opacity="0.38" d="M275.1 328H284.3V305.8H278.2C277.4 310.4 275.6 320.7 275.1 328Z" fill="#001C41"/>
<path d="M273.4 307.8H271.6V302.7C271.6 301.6 270.7 300.7 269.6 300.7H265.6C264.5 300.7 263.6 301.6 263.6 302.7V307.8H261.8V302.7C261.8 300.6 263.5 298.8 265.7 298.8H269.7C271.8 298.8 273.6 300.5 273.6 302.7V307.8H273.4Z" fill="#64BB46"/>
<path d="M265.8 291.4C265.8 291.4 263.6 295.3 263.6 296.9C263.6 298.5 262.7 302.7 264.7 303.1C266.7 303.5 270.4 302.3 270.4 302.3C270.4 302.3 270.9 300 269.2 297.3C267.5 294.6 269.7 290.8 269.7 290.8L265.8 291.4Z" fill="#F8AC9B"/>
<path d="M285.1 225.7C285.1 225.7 273.9 228.4 272.3 246.8C270.8 265.2 263.8 292.6 263.8 292.6C263.8 292.6 270 296.5 271.9 295.5C277.5 292.4 275.8 278 279 271.1L285.1 225.7Z" fill="#043059"/>
<path opacity="0.38" d="M281.4 253.4C277.5 270.3 272.4 290.4 268.9 295.2C270.2 295.7 271.4 295.9 272 295.6C277.6 292.5 275.9 278.1 279.1 271.2L281.4 253.4Z" fill="#001C41"/>
<path d="M288.2 224.8C288.2 224.8 283.4 224.5 279 232.3C274.6 240.1 273.8 286.3 276 291.8C278.5 298.1 283.6 294.3 283.6 294.3C283.6 294.3 286.3 264.3 285 249C283.9 233.7 288.2 224.8 288.2 224.8Z" fill="#000005"/>
<path d="M286.9 277.6C286.9 277.6 289.2 279.3 290.9 282.4C297 293.2 290.9 364.5 290.9 364.5L282.2 364.3C282.2 364.3 282.2 334.9 282.2 320.1C282.2 305.2 281.9 283.6 281.9 283.6L286.9 277.6Z" fill="#043059"/>
<path d="M282 283C282 283 287.2 289.2 290.5 297.4C291.5 300 302.3 328 302.3 368.8H309.9C309.9 368.8 310.3 339 309.9 323.3C309.6 310.3 306.7 283.5 306.7 278.9L281.9 277.8L282 283Z" fill="#043059"/>
<path opacity="0.38" d="M306.8 280.7C305.6 280.7 293.7 282.1 293.7 282.1C293.7 282.1 294.4 293 297.2 298.2C299.1 301.6 304.9 303 308.7 303.6C307.9 294.3 307 285 306.8 280.7Z" fill="#001C41"/>
<path d="M286.7 225.4C284 228.8 280.8 234.7 280.2 241.3C279.7 247.4 282 283.5 282 283.5H310C310 283.5 312.7 229.4 310 226.8C308.8 225.6 302.3 224.2 300.5 224C294.9 223.4 288 223.7 286.7 225.4Z" fill="#0569BD"/>
<path d="M300.5 224C300.5 224 300.5 228.6 298.2 239C295.9 249.4 295.7 289.7 298.2 294.3C300.7 298.9 315.7 296.6 315.7 296.6C315.7 296.6 314.2 231.3 309.9 226.7C309.3 226.1 308.9 225.7 308.1 225.3C304.9 223.7 300.5 224 300.5 224Z" fill="#043059"/>
<path opacity="0.38" d="M311.8 233.2L306.7 226.6C306.7 226.6 302.6 235.7 303.9 240.8C305.2 245.9 310.2 258.5 308.5 260.2C306.8 261.9 312.4 259.1 312.4 259.1L311.8 233.2Z" fill="#001C41"/>
<path opacity="0.38" d="M296.6 256.8C296.6 257.5 296.5 258.3 296.5 259.1C296.4 263.3 298.3 267.4 301.8 269.9C306.4 273.3 311.9 276.8 315.1 276.9C314.9 271.6 314.6 265.8 314.3 260C308.7 259 296.6 256.8 296.6 256.8Z" fill="#001C41"/>
<path d="M283.7 238.4C283.7 238.4 286.9 245.6 287.4 249C287.9 252.4 288.7 258.2 288.7 258.2L299.3 257.4L300.1 238.4H283.7Z" fill="white"/>
<path d="M286.2 245C286.2 245 284.9 250.9 287.8 252.4C289.4 253.2 292.4 252.4 293.7 253.7C295 255 296.6 256.7 296.6 256.7L299.2 252.8L294.4 247.8C294.4 247.8 292.3 244.3 291.5 245C290.8 245.7 293.5 248 292.4 248C291.4 248.1 286.2 245 286.2 245Z" fill="#F8AC9B"/>
<path d="M308 225.3C308 225.3 306.1 225.6 304.9 231.6C303.4 239.1 310.6 252.4 308.9 256.3C307.2 260.3 296.3 248.8 296.3 248.8L295.5 250.9L293.6 256.1C293.6 256.1 308.4 273.9 315.6 272.5C322.9 271.3 316.9 226.9 308 225.3Z" fill="#043059"/>
<path d="M286.9 216.2L288.7 230.3L299.6 224L293.7 213.7L286.9 216.2Z" fill="#F8AC9B"/>
<path d="M295.1 216.1L293.8 213.7L287 216.2L288 224C288.9 223.8 289.7 223.4 290.3 223C292 221.7 293.8 219 295.1 216.1Z" fill="#F8AC9B"/>
<path d="M287.5 198.8C287.5 198.8 287.2 198.7 285.2 201.3C283.8 203.2 283 205.5 282.1 207.6C280.8 210.8 279.7 214.3 280.7 217.8C281.2 219.6 288.5 220.1 291.4 218.5C294.3 216.9 297.1 211.9 296.9 208.3C296.8 204.9 288.8 198.1 287.5 198.8Z" fill="#F8AC9B"/>
<path d="M292.3 216.2C292.7 217.2 293.5 217.4 295.8 217.5C298.7 217.6 301.7 215.3 302.4 211.3C304.7 198.9 292.9 195.8 289.9 194.6C288.8 194.2 287.9 194.5 287.2 195.2C286.1 196.2 284.7 196.7 283.2 196.5C282.6 196.4 280.9 196.4 280.4 197.3C279.1 200.1 279 203 284 203C295.3 202.9 291.5 214.4 292.3 216.2Z" fill="#043059"/>
<path d="M291 210C291 210 291.2 206.9 292.9 207.4C294.6 207.9 295.2 211.3 293.7 212C292.1 212.7 291 210 291 210Z" fill="#F8AC9B"/>
<path d="M270.2 165.6C270.2 161.5 266.8 158.1 262.5 158.1H215.4C211.2 158.1 207.7 161.5 207.7 165.6V177.6C207.7 181.7 211.1 185.1 215.4 185.1H261.1L265.8 201.8C265.8 201.8 270.2 178.6 270.2 177.6V165.6Z" fill="#FF9E22"/>
<path d="M210 187.4C206.4 187.4 203.2 185.4 201.6 182.5H194.4C191.7 182.5 189.4 184.9 189.4 188C189.4 200.3 188.5 194.6 193 209.1L195.3 202.2H225C227.7 202.2 230 199.8 230 196.7V188C230 187.8 230 187.6 230 187.5H210V187.4Z" fill="#FF9E22"/>
<path d="M262.5 166.7H212.8C212.3 166.7 211.8 166.3 211.8 165.7C211.8 165.1 212.2 164.7 212.8 164.7H262.5C263 164.7 263.5 165.1 263.5 165.7C263.5 166.3 263.1 166.7 262.5 166.7Z" fill="#EEEEEE"/>
<path d="M262.5 172H212.8C212.3 172 211.8 171.6 211.8 171C211.8 170.5 212.2 170 212.8 170H262.5C263 170 263.5 170.4 263.5 171C263.5 171.6 263.1 172 262.5 172Z" fill="#EEEEEE"/>
<path d="M262.5 178H212.8C212.3 178 211.8 177.6 211.8 177C211.8 176.4 212.2 176 212.8 176H262.5C263 176 263.5 176.4 263.5 177C263.5 177.6 263.1 178 262.5 178Z" fill="#EEEEEE"/>
<path d="M368.7 202.3C367.8 202.5 360 202.6 360 208.3C360 214 360.1 216.3 358.6 218.8C357.1 221.3 356.7 231.9 362.9 228.9C364.6 228.1 363.4 234.1 363.4 234.1C363.4 234.1 374 238.9 377 237.6C380 236.3 384.5 239.2 384.5 239.2C384.5 239.2 389 232 384.5 227.4C380 222.9 380.5 223.2 380.5 218.1C380.5 213 379.6 214.5 377.4 211.4C375.4 208.3 374.1 201.2 368.7 202.3Z" fill="#043059"/>
<path d="M389.9 293.6L386.2 247.5L383.3 248.4L389 293.6H389.9Z" fill="#4B9B2D"/>
<path d="M358.2 315.7C358.2 315.7 362.2 357.7 360.2 362.9C358.2 368.1 354.8 377.1 354.8 377.1H358.5L366.1 367C366.1 367 365.9 366.5 366.6 364.5C367.2 362.5 371.8 340.6 370.2 330.3C369.7 327.4 369.1 313.3 367.7 310.9C364.1 304.8 358.2 312.6 358.2 315.7Z" fill="#F8AC9B"/>
<path d="M366.5 365C366.5 365 367.4 364.6 368.3 366.6C369.1 368.6 366.8 378.3 366.8 378.3L364.9 378.4C364.9 378.4 366.2 371.2 365.8 371.2C365.4 371.2 363.2 378.6 362.1 378.9C361 379.2 353.9 379.7 352.8 378.6C351.7 377.5 355.7 375.2 355.7 375.2C355.7 375.2 359.3 375.7 359.7 375.2C360.1 374.6 366.5 365 366.5 365Z" fill="#00424C"/>
<path d="M372.8 315.7C372.8 315.7 376.8 357.7 374.8 362.9C372.8 368.1 369.4 377.1 369.4 377.1H373.1L380.7 367C380.7 367 380.5 366.5 381.2 364.5C381.8 362.5 386.4 340.6 384.8 330.3C384.3 327.4 383.7 313.3 382.3 310.9C378.7 304.8 372.8 312.6 372.8 315.7Z" fill="#F8AC9B"/>
<path d="M383.9 320.1C381.9 319.7 377.7 319 373 318.2C373.2 320.3 373.5 323.5 373.8 327.3C376 327.6 381 328.2 384.5 327.6C384.3 325.5 384.1 322.8 383.9 320.1Z" fill="#F8AC9B"/>
<path d="M369.1 317.5C365.2 316.9 361.3 316.2 358.2 315.8C358.3 316.7 358.7 321.2 359.2 327C360.3 327.3 361.6 327.6 363.3 327.8C366 328.2 368.3 328 370 327.7C369.7 325.1 369.5 321 369.1 317.5Z" fill="#F8AC9B"/>
<path d="M387.6 324.4C387.6 315.7 387.6 303 387.6 299.3C387.6 292.7 385.1 275.3 381 266.7C376.9 258.1 360.1 266.7 360.1 266.7C360.1 266.7 356.3 275.1 355.3 287.3L354.3 325.1C366.4 327 375.9 327.1 387.6 324.4Z" fill="#043059"/>
<path opacity="0.38" d="M387.6 303L381.6 300.8L381.3 308.6C381.3 308.6 381.4 312.2 387.6 314.4V303Z" fill="#001C41"/>
<path d="M357.1 230.1C356.7 230.8 354.3 236.8 354.9 243.2C355.8 252.7 360 264.8 359.1 268.6C357.6 275 380.5 275.9 381.5 267.9C381.9 265 381.1 257.9 381.8 251.4C382.9 241.1 385.3 231 384.9 230.7C374.9 224.6 358 228.4 357.1 230.1Z" fill="#0569BD"/>
<path d="M368 232.3C368 232.3 367.5 236.9 370.9 240.3C374 243.4 378.6 245.4 382.8 244C383.9 236.8 385.2 231 384.9 230.8C382.1 229.1 378.7 228.1 375.2 227.7L367.4 228.2L368 232.3Z" fill="#51D5F4"/>
<g opacity="0.57">
<path d="M358.4 261.3C358.8 263.5 359.2 265.4 359.2 266.8C360.7 266.6 362.3 266.4 363.5 266.6C366.1 266.9 376.4 267.5 381.6 267.4C381.7 266.2 381.7 264.4 381.6 262.3L361.4 259.3L358.4 261.3Z" fill="#00B0EF"/>
</g>
<path d="M384.9 230.8C384.9 230.8 387.1 230.7 389.1 241.2C391.1 251.7 387.8 264.6 385.5 265.7C383.3 266.8 363 264.3 363 264.3L363.7 257C363.7 257 379.4 256.2 381.1 254.4C381.5 254 381.1 251.9 381.4 249.7C382.5 242.8 384.9 230.8 384.9 230.8Z" fill="#0569BD"/>
<path d="M388.3 237.6C386.6 230.7 384.9 230.8 384.9 230.8C384.9 230.8 383.5 237.8 382.3 244.2C383 244 383.7 243.7 384.4 243.3C386.6 242 387.7 239.7 388.3 237.6Z" fill="#51D5F4"/>
<path d="M381.8 253.3C381.8 253.3 384.1 252.1 384.9 251.2C385.8 250.3 387.5 249.2 387.5 249.9C387.5 250.6 386.7 251.5 386.7 251.5C386.7 251.5 389.8 249.8 390.1 250.1C390.4 250.4 390.6 252.6 390.1 255C389.6 257.4 382.7 258.4 382.7 258.4L381.8 253.3Z" fill="#F8AC9B"/>
<path d="M381.1 365C381.1 365 382 364.6 382.9 366.6C383.7 368.6 381.4 378.3 381.4 378.3L379.5 378.4C379.5 378.4 380.8 371.2 380.4 371.2C380 371.2 377.8 378.6 376.7 378.9C375.6 379.2 368.5 379.7 367.4 378.6C366.3 377.5 370.3 375.2 370.3 375.2C370.3 375.2 373.9 375.7 374.3 375.2C374.7 374.6 381.1 365 381.1 365Z" fill="#00424C"/>
<path d="M384.4 230.1C379.3 246.4 380.8 263 382.8 296.3L381.8 296.4C378.3 262.5 376 245.9 380.5 229L384.4 230.1Z" fill="#64BB46"/>
<path d="M353.5 264.4C360.7 266.4 376.8 262.5 383.3 261.2L381.8 252.8C381.8 252.8 362.8 256 360.5 254.7C359.4 254 356.9 248 356.3 242.1C355.8 236.1 357.2 230.1 357.2 230.1C357.2 230.1 350.7 235.9 350.7 250.8C350.6 262.2 350.3 263.6 353.5 264.4Z" fill="#0569BD"/>
<path d="M357.1 247.9C357.1 247.9 358.7 249.5 359.9 250.8C361.1 252 363 255.2 363 255.2C363 255.2 360.4 255.5 359.5 255.5C358.6 255.5 355.9 253.6 354.9 253.6C353.9 253.6 354.3 252.1 355.5 252.5C356.7 252.9 357.9 253.1 357.9 253.1C357.9 253.1 355.2 250.9 354 249.7C352.8 248.5 353.9 247.7 355 248.8C356 249.8 357.2 250.4 357.2 250.4C357.2 250.4 353.6 246.7 354.3 246.1C354.8 245.5 357.1 247.9 357.1 247.9Z" fill="#F8AC9B"/>
<path d="M365.9 217.1L365 227.5C365 227.5 361.5 239.8 364.3 240.8C367.1 241.8 371.1 228 371.1 228V214.7L365.9 217.1Z" fill="#F8AC9B"/>
<path d="M365.4 223.5C367.3 223.4 369.5 221.6 371.2 219.2V214.6L365.9 217L365.4 223.5Z" fill="#F8AC9B"/>
<path d="M365.9 205.1C365.9 205.1 362.8 203.7 361.8 209.9C360.8 216 361.6 220.4 364.6 220.8C367.6 221.3 371.8 217.6 373.3 213.5C374.8 209.4 368.4 204.5 365.9 205.1Z" fill="#F8AC9B"/>
<path d="M386.5 230.1C386 229.1 385.4 228.1 384.5 227.3C380 222.8 380.5 223.1 380.5 218C380.5 212.9 379.6 214.4 377.4 211.3C375.2 208.2 374 201.1 368.6 202.2C368.5 202.2 362.5 203.3 363.6 205.5C363.6 205.5 364.7 204.7 366.8 207.3C368.8 209.9 367.7 210.1 369.7 211C371.7 211.9 371 215.4 371 217.8C371 220.1 370.3 227.2 368.4 230.2C366.5 233.2 370.1 239.1 374.3 240.9C386.8 246 388.8 234.7 386.5 230.1Z" fill="#043059"/>
<path d="M383.8 307.5H383.6C382.4 307.5 381.4 306.5 381.4 305.2L381.6 293.2H385L386 305.1C386.1 306.4 385.1 307.5 383.8 307.5Z" fill="#7F3100"/>
<path d="M387.8 308.4H387.2C383.7 308.5 381.3 306.9 381.4 305.6L382 293.2H388.8C390.1 293.2 391.3 294.1 391.5 295.4L393.6 305.8C393.9 307.2 391.2 308.4 387.8 308.4Z" fill="#64BB46"/>
<path d="M381.3 305.2L381.5 293.2H382.6C383.9 293.2 385 294.2 385.2 295.6L386 305.2C386.2 308.2 381.3 308.3 381.3 305.2Z" fill="#4B9B2D"/>
<path d="M358.5 162.7C358.5 158.6 361.9 155.2 366.2 155.2H413.3C417.5 155.2 421 158.6 421 162.7V174.7C421 178.8 417.6 182.2 413.3 182.2H367.6L362.9 198.9C362.9 198.9 358.5 175.7 358.5 174.7V162.7Z" fill="#FF9E22"/>
<path d="M366.1 163.8H415.8C416.3 163.8 416.8 163.4 416.8 162.8C416.8 162.3 416.4 161.8 415.8 161.8H366.1C365.6 161.8 365.1 162.2 365.1 162.8C365.1 163.4 365.6 163.8 366.1 163.8Z" fill="#EEEEEE"/>
<path d="M366.1 169.1H415.8C416.3 169.1 416.8 168.7 416.8 168.1C416.8 167.5 416.4 167.1 415.8 167.1H366.1C365.6 167.1 365.1 167.5 365.1 168.1C365.1 168.7 365.6 169.1 366.1 169.1Z" fill="#EEEEEE"/>
<path d="M366.1 175.1H415.8C416.3 175.1 416.8 174.7 416.8 174.1C416.8 173.5 416.4 173.1 415.8 173.1H366.1C365.6 173.1 365.1 173.5 365.1 174.1C365.1 174.7 365.6 175.1 366.1 175.1Z" fill="#EEEEEE"/>
<path d="M38.7 378C49.2486 378 57.8 376.254 57.8 374.1C57.8 371.946 49.2486 370.2 38.7 370.2C28.1514 370.2 19.6 371.946 19.6 374.1C19.6 376.254 28.1514 378 38.7 378Z" fill="#FFD9A9"/>
<path d="M57.8 374.1H34.1L29.6 345H62.4L57.8 374.1Z" fill="#FFCC8B"/>
<path d="M46 346.5C55.0022 346.5 62.3 345.828 62.3 345C62.3 344.172 55.0022 343.5 46 343.5C36.9978 343.5 29.7 344.172 29.7 345C29.7 345.828 36.9978 346.5 46 346.5Z" fill="#FFA600"/>
<path d="M69.5 280C69.4 280.1 66.3 283.3 62.4 288.1C56.3 295.7 48.2 307 46.2 314.3C46 314.9 45.9 315.5 45.8 316.1C45.7 316.5 45.7 317 45.6 317.5C44.4 327.3 43.5 342 43.2 346.5C42.9 346.5 42.6 346.5 42.3 346.5C42.6 341.9 43.6 325.8 44.8 316C44.9 315.4 45 314.9 45.1 314.3C45.3 313.6 45.5 313 45.7 312.3C50.2 300 67.7 280.4 68.6 279.5L69.5 280Z" fill="#FFCC8B"/>
<path d="M47.1 346.5C46.8 346.5 46.5 346.5 46.2 346.5C46.5 344.7 47.7 334.7 45.7 317.5C45.6 316.5 45.5 315.4 45.3 314.3C45.2 313.5 45.1 312.6 45 311.8C41.8 289 46.1 245.4 46.1 244.9L47 245C47 245.4 42.7 289 45.9 311.7C45.9 311.9 46 312.1 46 312.3C46.1 313 46.2 313.7 46.3 314.4C48.6 333.1 47.4 344.2 47.1 346.5Z" fill="#FFCC8B"/>
<path d="M49.8 347.4L48.9 347.2C53.1 329.4 53.4 288.8 53.4 288.4H54.3C54.3 288.8 54 329.5 49.8 347.4Z" fill="#FFCC8B"/>
<path d="M45.9 347.3H45C45 336.1 33.1 300.1 33 299.8L33.5 300.4C34.1 301.9 45.9 336 45.9 347.3Z" fill="#FFA600"/>
<path d="M33.8 301.6C33.8 301.6 35.6 295.4 35.6 291.9C35.5 289.8 35.5 286.8 34.9 284.7C34.6 283.8 33.6 283.8 33.3 284.7C33.3 284.7 31 276.2 29.9 275.6C29.5 275.4 28.4 276.5 28.2 276.1C26.2 271.7 19.6 265.1 19.6 265C19.6 268.9 19.7 272.7 19.8 276.6C24.5 284.5 29.4 292.2 33.8 301.6Z" fill="#FFA600"/>
<path d="M33.8 301.7C33.8 301.6 32.6 285.3 30.4 281.4C29.7 280.1 29.1 279.1 28.3 278.6C27.7 278.1 26.9 278.4 26.9 279.4C26.9 279.5 26.9 279.5 26.9 279.6C26.9 280.7 25.7 281.1 25.4 280.2C23.5 275.2 21.5 270.3 19.6 265.1C19.6 265.2 17.7 281.8 24.6 288.9C31.4 296.1 33.8 301.7 33.8 301.7Z" fill="#FFCC8B"/>
<path d="M45 274.3C45 274.3 49.5 269.9 50.7 266.9C51.4 265.1 52.4 262.5 52.6 260.4C52.7 259.4 51.6 258.9 50.8 259.5C50.8 259.5 51.6 250.7 50.6 249.5C50.3 249.1 48.6 249.4 48.6 248.9C48.3 243.8 43.8 233.8 43.8 233.8L39.5 244L45 274.3Z" fill="#FFA600"/>
<path d="M45 274.3C45 274.3 49.7 259.6 49 254.8C48.8 253.3 48.5 252 47.8 251C47.3 250.2 46.4 249.9 46 250.8L45.9 251C45.5 251.9 44.1 251.6 44.1 250.6L43.9 233.7C43.9 233.7 35.5 247 39.9 257.8C44.1 268.6 45 274.3 45 274.3Z" fill="#FFCC8B"/>
<path d="M62.8 286.5C62.9 286.5 61.8 282.4 63.7 279.8C65.9 276.8 69 275.3 72.4 276.4C73.6 276.8 74.3 278.4 73.9 279.1C75 279.2 78.4 279.2 83.3 281C84 281.3 84.7 282 85 282.8C86 285.3 89.2 285.1 92.9 291.3C97.5 296.2 97.5 313.3 96.4 313.4C94.9 309 92.5 305.4 89.7 302.7C85.1 287.8 71.8 282.4 62.8 286.5Z" fill="#FFA600"/>
<path d="M62.4 287.9C62.6 287.5 62.4 284.3 67.9 282.8C72.1 281.7 77.9 281.1 81 283C82.9 284 84.4 285 85.5 285.9C86.6 286.8 86.8 288.5 85.8 288.3C85.7 288.3 85.7 288.3 85.6 288.3C84.6 288.1 84.9 289.9 85.9 290.8C91.6 295.4 96.2 303.3 96.4 313.5C96.4 313.3 89.2 300.7 79 293C68 284.8 62.5 287.8 62.4 287.9Z" fill="#FFCC8B"/>
<path d="M56.8 270.5L56.2 268.7C56.2 268.7 49 280.5 49.7 285.3C50.4 290.2 53.9 292.3 53.9 292.3L56.8 270.5Z" fill="#FFA600"/>
<path d="M57.2 266.6C57.2 266.6 57.8 267 57.8 268.9C57.8 270.8 53.8 292.8 53.8 292.8C53.8 292.8 50.8 287.4 51.2 283.4C51.7 279.3 56.4 267.3 57.2 266.6Z" fill="#FFCC8B"/>
<path d="M52.8 347.3L52.1 347.2C55.8 327.1 48.2 316.6 47.7 316L43.7 312.7L44.1 312.1L47.9 315.3C48 315.4 56.6 326.3 52.8 347.3Z" fill="#FFA600"/>
<path d="M47.9 315.3C47.8 315.3 48.2 310.5 46.9 308.1C46.1 306.7 44.9 304.6 43.1 303.5C42.3 303 40.9 303.5 40.8 304.3C41 304.1 33.1 300.3 30.7 301.3C30 301.5 29.1 303.2 28.6 303.1C22.7 301.8 8.79999 309.9 9.09999 310.6C12.4 311.1 15.6 311.8 18.6 312.8C30 308.8 40.8 310.5 47.9 315.3Z" fill="#FFA600"/>
<path d="M48 315.5C48 315.3 44.7 304.4 35.3 304C33.6 303.9 32.1 303.7 30.6 304.1C29.4 304.4 28.5 305.3 29.2 305.8L29.3 305.9C30 306.5 28.9 307.7 27.8 307.6C22 307.1 15.6 308 9.2 310.4C9.3 310.8 21 316.1 32.4 314.4C44.2 313.5 47 315.7 48 315.5Z" fill="#FFCC8B"/>
<path d="M41.4 347.5L41.8 347.4C39.5 335 44.2 328.5 44.5 328.1L47 326L46.7 325.6L44.2 327.7C44.1 327.9 39 334.5 41.4 347.5Z" fill="#FFA600"/>
<path d="M44.2 327.8C44.2 327.8 44.2 324.7 45 323.2C45.5 322.3 46.2 321 47.3 320.3C47.8 320 48.7 320.3 48.7 320.8C48.6 320.7 53.5 318.3 54.9 318.9C55.3 319 55.9 320 56.2 320C59.8 319.2 68.4 324.2 68.3 324.6C66.3 324.9 64.3 325.3 62.4 325.9C55.5 323.7 48.6 324.8 44.2 327.8Z" fill="#FFCC8B"/>
<path d="M44.2 327.9C43.9 327.8 48.6 321.1 52.2 320.8C53.2 320.6 54.2 320.6 55.1 320.9C55.8 321.1 56.4 321.6 56 321.9C56 321.9 55.9 321.9 55.9 322C55.5 322.3 56.2 323.1 56.8 323.1C60.4 322.8 64.3 323.3 68.3 324.9C68.3 325.1 60.8 327.3 53.8 326.2C46.5 325.4 44.2 328.1 44.2 327.9Z" fill="#FFCC8B"/>
<path d="M170.6 223C170.6 223 168.6 220.7 167.9 222.3C167.1 223.9 167.5 227 169.5 225.6C171.4 224.3 170.6 223 170.6 223Z" fill="#F8AC9B"/>
</g>
<defs>
<clipPath id="clip0_4_691">
<rect width="450" height="426.4" fill="white"/>
</clipPath>
</defs>
</svg>
