<svg width="500" height="330" viewBox="0 0 500 330" fill="none" xmlns="http://www.w3.org/2000/svg">
<path d="M449.901 300.494H416.779V300.744H449.901V300.494Z" fill="#EBEBEB"/>
<path d="M331.22 303.208H322.527V303.458H331.22V303.208Z" fill="#EBEBEB"/>
<path d="M415.778 291.208H396.586V291.458H415.778V291.208Z" fill="#EBEBEB"/>
<path d="M95.652 292.888H52.459V293.138H95.652V292.888Z" fill="#EBEBEB"/>
<path d="M110.889 292.888H104.556V293.138H110.889V292.888Z" fill="#EBEBEB"/>
<path d="M225.147 297.111H131.471V297.361H225.147V297.111Z" fill="#EBEBEB"/>
<path d="M500 284.398H0V284.648H500V284.398Z" fill="#EBEBEB"/>
<path d="M119.331 216.75C118.486 207.092 108.627 203.477 96.944 204.499C85.262 205.521 76.18 210.794 77.025 220.452L119.331 216.75Z" fill="#FFD9A9"/>
<path d="M96.558 200.085C101.98 199.611 103.711 195.031 103.236 189.609C102.762 184.187 100.262 179.977 94.84 180.452C89.418 180.926 87.687 185.506 88.162 190.928C88.636 196.35 91.136 200.56 96.558 200.085Z" fill="#FFD9A9"/>
<path d="M340.1 10.971C340.362 13.961 338.15 16.597 335.16 16.858C332.17 17.12 329.534 14.908 329.273 11.918C329.011 8.92799 331.223 6.29199 334.213 6.02999C337.203 5.76899 339.839 7.981 340.1 10.971Z" fill="#F5F5F5"/>
<path d="M370.173 8.33999C370.435 11.33 368.223 13.966 365.233 14.227C362.243 14.489 359.607 12.277 359.345 9.287C359.083 6.297 361.295 3.661 364.285 3.399C367.276 3.138 369.911 5.34999 370.173 8.33999Z" fill="#F5F5F5"/>
<path d="M400.246 5.709C400.508 8.699 398.296 11.335 395.306 11.597C392.316 11.859 389.68 9.64699 389.418 6.65699C389.156 3.66699 391.368 1.03099 394.358 0.768993C397.348 0.506993 399.984 2.719 400.246 5.709Z" fill="#F5F5F5"/>
<path d="M342.782 41.624C343.044 44.614 340.832 47.25 337.842 47.512C334.852 47.774 332.216 45.562 331.954 42.572C331.692 39.582 333.904 36.946 336.894 36.685C339.885 36.422 342.521 38.633 342.782 41.624Z" fill="#F5F5F5"/>
<path d="M372.855 38.992C373.117 41.982 370.905 44.618 367.915 44.88C364.925 45.142 362.289 42.93 362.027 39.94C361.765 36.95 363.977 34.314 366.967 34.052C369.957 33.791 372.593 36.003 372.855 38.992Z" fill="#F5F5F5"/>
<path d="M402.928 36.361C403.19 39.351 400.978 41.987 397.988 42.248C394.998 42.51 392.362 40.298 392.1 37.308C391.838 34.318 394.05 31.682 397.04 31.42C400.03 31.16 402.666 33.372 402.928 36.361Z" fill="#F5F5F5"/>
<path d="M345.464 72.276C345.726 75.266 343.514 77.902 340.524 78.164C337.534 78.426 334.898 76.214 334.637 73.224C334.375 70.234 336.587 67.598 339.577 67.336C342.566 67.074 345.202 69.286 345.464 72.276Z" fill="#F5F5F5"/>
<path d="M375.537 69.645C375.799 72.635 373.587 75.271 370.597 75.533C367.607 75.795 364.971 73.583 364.709 70.593C364.447 67.603 366.659 64.967 369.649 64.706C372.639 64.443 375.275 66.655 375.537 69.645Z" fill="#F5F5F5"/>
<path d="M405.609 67.014C405.871 70.004 403.659 72.64 400.669 72.901C397.679 73.162 395.043 70.951 394.781 67.961C394.519 64.971 396.731 62.335 399.721 62.074C402.712 61.812 405.348 64.024 405.609 67.014Z" fill="#F5F5F5"/>
<path d="M399.112 68.779L337.326 74.185L392.108 7.61798L335.978 12.529C335.322 12.586 334.744 12.101 334.687 11.445C334.63 10.789 335.115 10.211 335.771 10.154L397.557 4.74799L342.775 71.315L398.905 66.404C399.561 66.347 400.139 66.832 400.196 67.487C400.253 68.143 399.768 68.722 399.112 68.779Z" fill="#FFD9A9"/>
<path d="M400.059 187.606C399.855 187.017 399.328 186.58 398.706 186.539C395.872 186.349 393.478 185.289 391.583 183.386C389.112 180.905 387.659 177.129 387.424 172.646C387.38 171.811 386.68 171.16 385.844 171.155C384.918 171.149 384.18 171.931 384.23 172.855C384.515 178.113 386.293 182.61 389.315 185.645C391.676 188.016 394.721 189.405 398.191 189.708C398.251 189.713 398.329 189.72 398.419 189.727C399.57 189.818 400.437 188.696 400.059 187.606Z" fill="#FFD9A9"/>
<path d="M396.864 206.8C383.61 205.64 374.053 196.607 371.028 182.511C370.835 181.612 371.408 180.727 372.314 180.57C373.151 180.425 373.969 180.955 374.146 181.786C376.856 194.463 385.364 202.581 397.142 203.612C410.059 204.742 423.932 196.244 426.417 174.82C426.518 173.952 427.275 173.311 428.145 173.387C429.036 173.465 429.704 174.26 429.599 175.148C427.218 195.347 413.937 208.294 396.864 206.8Z" fill="#FFD9A9"/>
<path d="M371.86 168.462C370.969 168.384 370.301 167.589 370.406 166.701C372.788 146.501 386.07 133.555 403.142 135.048C418.101 136.357 428.187 147.556 429.758 164.426C429.841 165.317 429.15 166.093 428.257 166.146H428.254C427.383 166.198 426.648 165.54 426.565 164.672C425.123 149.473 416.147 139.398 402.862 138.236C389.945 137.106 376.072 145.603 373.587 167.028C373.487 167.897 372.73 168.538 371.86 168.462Z" fill="#FFD9A9"/>
<path d="M397.515 198.232C395.051 198.016 392.74 197.441 390.619 196.514C389.756 196.137 389.4 195.098 389.851 194.271C390.244 193.55 391.121 193.238 391.872 193.569C393.866 194.445 396.07 194.96 398.445 195.09C408.242 195.651 418.582 188.712 419.595 171.946C420.219 161.62 416.682 153.279 410.078 149.29C409.37 148.862 409.107 147.967 409.472 147.225C409.887 146.382 410.939 146.071 411.743 146.556C419.385 151.17 423.489 160.584 422.79 172.139C421.813 188.306 411.726 199.058 398.261 198.287C398.012 198.271 397.762 198.253 397.515 198.232Z" fill="#FFD9A9"/>
<path d="M383.266 188.258C382.492 188.787 381.434 188.54 380.964 187.728C378.129 182.824 376.803 176.501 377.214 169.71C378.149 154.245 387.421 143.734 400.012 143.527C400.946 143.512 401.701 144.293 401.648 145.226V145.23C401.6 146.061 400.923 146.715 400.091 146.731C390.754 146.915 381.373 153.973 380.41 169.903C380.036 176.087 381.219 181.794 383.755 186.158C384.171 186.875 383.951 187.79 383.266 188.258Z" fill="#FFD9A9"/>
<path d="M405.13 186.95C404.804 186.209 405.089 185.353 405.783 184.935C409.988 182.403 412.571 177.089 412.615 170.684C412.65 165.553 411.161 161.213 408.422 158.463C406.31 156.341 403.579 155.273 400.306 155.279C395.376 155.292 391.384 157.993 389.172 162.746C388.824 163.494 387.958 163.848 387.183 163.563C386.302 163.239 385.883 162.224 386.281 161.374C389.017 155.535 394.15 152.094 400.297 152.077C404.396 152.071 407.991 153.494 410.69 156.204C414.036 159.564 415.856 164.713 415.815 170.705C415.764 178.264 412.58 184.6 407.394 187.701C406.578 188.189 405.513 187.821 405.13 186.95Z" fill="#FFD9A9"/>
<path d="M393.609 175.193C392.7 175.558 391.683 175.03 391.45 174.078C391.344 173.645 391.256 173.199 391.187 172.74C390.282 166.756 393.499 161.545 398.67 160.621C401.339 160.142 403.719 160.77 405.538 162.394C406.276 163.054 406.219 164.231 405.414 164.808L405.314 164.879C404.708 165.313 403.909 165.215 403.344 164.729C402.259 163.798 400.881 163.476 399.233 163.771C395.292 164.476 393.794 168.576 394.352 172.261C394.406 172.62 394.474 172.968 394.556 173.302C394.746 174.087 394.358 174.891 393.609 175.193Z" fill="#FFD9A9"/>
<path d="M398.897 181.35C398.893 181.35 398.888 181.349 398.884 181.349C397.781 181.251 397.172 180.015 397.76 179.076L397.896 178.859C398.191 178.389 398.718 178.13 399.272 178.169C399.746 178.201 400.248 178.171 400.773 178.077C404.214 177.461 405.793 174.257 405.766 171.001C405.759 170.188 406.322 169.486 407.125 169.365C408.064 169.223 408.951 169.921 408.969 170.871C409.064 176.089 405.992 180.396 401.336 181.228C400.496 181.378 399.679 181.419 398.897 181.35Z" fill="#FFD9A9"/>
<path d="M399.608 175.442C397.904 175.293 396.634 174.145 396.173 172.506C395.906 171.556 396.703 170.636 397.685 170.722L398.052 170.754C398.622 170.804 399.092 171.194 399.282 171.734C399.375 171.998 399.553 172.224 399.886 172.253C400.655 172.32 400.79 171.217 400.81 170.995C400.824 170.837 400.857 170.224 400.595 169.863C400.338 169.509 400.162 169.104 400.2 168.668C400.325 167.245 402.123 166.673 403.03 167.777C403.751 168.655 404.121 169.884 403.999 171.274C403.77 173.891 401.923 175.645 399.608 175.442Z" fill="#FFD9A9"/>
<path d="M369.534 139.653C368.653 139.576 368.002 138.8 368.079 137.919L369.292 124.053L383.158 125.266C384.039 125.343 384.69 126.119 384.613 127C384.536 127.881 383.76 128.532 382.879 128.455L372.202 127.521L371.268 138.198C371.191 139.079 370.414 139.73 369.534 139.653Z" fill="#FFD9A9"/>
<path d="M435.462 145.421C434.581 145.344 433.93 144.568 434.007 143.687L434.941 133.01L424.264 132.076C423.383 131.999 422.732 131.223 422.809 130.342C422.886 129.461 423.662 128.81 424.543 128.887L438.409 130.1L437.196 143.966C437.119 144.847 436.343 145.498 435.462 145.421Z" fill="#FFD9A9"/>
<path d="M430.547 219.97L416.681 218.757C415.8 218.68 415.149 217.904 415.226 217.023C415.303 216.142 416.079 215.491 416.96 215.568L427.637 216.502L428.571 205.825C428.648 204.944 429.424 204.293 430.305 204.37C431.186 204.447 431.837 205.223 431.76 206.104L430.547 219.97Z" fill="#FFD9A9"/>
<path d="M375.295 215.136L361.429 213.923L362.642 200.057C362.719 199.176 363.495 198.525 364.376 198.602C365.257 198.679 365.908 199.455 365.831 200.336L364.897 211.013L375.574 211.947C376.455 212.024 377.106 212.8 377.029 213.681C376.952 214.562 376.176 215.213 375.295 215.136Z" fill="#FFD9A9"/>
<path d="M74.73 185.126C74.189 185.173 73.711 184.773 73.664 184.231L72.918 175.706L81.443 174.96C81.985 174.913 82.462 175.313 82.509 175.855C82.556 176.396 82.156 176.874 81.614 176.921L75.049 177.495L75.623 184.06C75.672 184.602 75.271 185.079 74.73 185.126Z" fill="#FFD9A9"/>
<path d="M115.266 181.58C114.725 181.627 114.247 181.227 114.2 180.685L113.626 174.12L107.061 174.694C106.52 174.741 106.042 174.341 105.995 173.799C105.948 173.258 106.348 172.78 106.89 172.733L115.415 171.987L116.161 180.512C116.208 181.055 115.808 181.533 115.266 181.58Z" fill="#FFD9A9"/>
<path d="M119.466 218.29L110.941 219.036C110.4 219.083 109.922 218.683 109.875 218.141C109.828 217.6 110.228 217.122 110.77 217.075L117.335 216.501L116.761 209.936C116.714 209.394 117.114 208.917 117.656 208.87C118.197 208.823 118.675 209.223 118.722 209.765L119.466 218.29Z" fill="#FFD9A9"/>
<path d="M85.494 221.262L76.969 222.008L76.223 213.482C76.176 212.941 76.576 212.463 77.118 212.416C77.659 212.369 78.137 212.769 78.184 213.311L78.758 219.876L85.323 219.302C85.864 219.255 86.342 219.655 86.389 220.197C86.436 220.737 86.035 221.214 85.494 221.262Z" fill="#FFD9A9"/>
<path d="M114.583 42.948L81.952 45.803L81.284 38.167C80.591 30.245 86.472 23.237 94.393 22.544C102.315 21.851 109.323 27.732 110.016 35.653L110.404 40.09L115.112 39.678L114.724 35.241C113.804 24.723 104.499 16.916 93.981 17.836C83.463 18.756 75.656 28.061 76.576 38.579L77.248 46.259C73.451 46.999 70.748 50.501 71.092 54.44L73.423 81.083C73.792 85.296 77.506 88.412 81.719 88.044L118.249 84.848C122.462 84.48 125.578 80.766 125.21 76.553L122.879 49.91C122.51 45.696 118.796 42.579 114.583 42.948ZM100.722 63.478L101.525 72.652C101.657 74.158 100.543 75.485 99.037 75.617C97.531 75.749 96.204 74.635 96.072 73.129L95.269 63.955C94.071 63.217 93.216 61.954 93.084 60.444C92.862 57.909 94.738 55.674 97.273 55.452C99.808 55.23 102.043 57.106 102.265 59.641C102.396 61.15 101.773 62.543 100.722 63.478Z" fill="#FFD9A9"/>
<path d="M170.445 58.393L167.146 53.015C165.359 53.262 163.897 53.262 162.11 53.015L158.811 58.393L158.178 58.225C156.052 57.66 154.001 56.808 152.083 55.695L151.516 55.366L152.915 49.528C153.028 49.055 153.503 48.764 153.976 48.877C154.449 48.99 154.74 49.465 154.626 49.938L153.534 54.492C154.959 55.268 156.457 55.89 158.001 56.348L161.223 51.094L161.806 51.189C163.674 51.494 165.58 51.494 167.448 51.189L168.031 51.094L171.253 56.348C172.797 55.889 174.295 55.268 175.72 54.492L174.286 48.507L174.766 48.163C176.074 47.223 177.24 46.112 178.241 44.855C178.538 44.481 179.067 44.393 179.454 44.672C179.856 44.961 179.95 45.531 179.643 45.919C178.659 47.161 177.529 48.273 176.271 49.237L177.74 55.366L177.174 55.695C175.256 56.808 173.205 57.66 171.079 58.225L170.445 58.393ZM150.225 46.652C149.948 46.335 149.68 46.009 149.423 45.674L143.293 47.142L142.964 46.576C141.851 44.658 140.999 42.607 140.434 40.481L140.266 39.848L145.644 36.549C145.52 35.653 145.46 34.825 145.46 34.031C145.46 33.238 145.521 32.409 145.644 31.513L140.266 28.215L140.434 27.582C140.999 25.456 141.851 23.405 142.964 21.487L143.293 20.921L149.422 22.389C150.449 21.049 151.644 19.855 152.984 18.827L151.872 14.189C151.759 13.717 152.05 13.243 152.521 13.13L152.524 13.129C152.996 13.016 153.47 13.307 153.583 13.778L154.967 19.556L154.483 19.904C152.947 21.01 151.6 22.357 150.495 23.893L150.15 24.372L144.165 22.938C143.39 24.363 142.769 25.861 142.31 27.405L147.562 30.626L147.467 31.209C147.299 32.24 147.217 33.163 147.217 34.03C147.217 34.899 147.299 35.821 147.467 36.851L147.562 37.433L142.309 40.656C142.767 42.201 143.389 43.698 144.164 45.123L150.149 43.689L150.494 44.168C150.819 44.62 151.168 45.059 151.536 45.48C151.842 45.83 151.834 46.353 151.499 46.676L151.467 46.707C151.115 47.05 150.549 47.022 150.225 46.652ZM185.962 47.143L183.702 46.602C183.229 46.489 182.938 46.014 183.051 45.541C183.164 45.069 183.639 44.777 184.112 44.89L185.088 45.124C185.863 43.699 186.484 42.201 186.943 40.657L181.69 37.434L181.785 36.852C181.953 35.822 182.035 34.899 182.035 34.031C182.035 33.163 181.953 32.241 181.785 31.21L181.69 30.627L186.942 27.406C186.484 25.861 185.862 24.364 185.087 22.939L179.102 24.373L178.757 23.894C177.652 22.358 176.305 21.011 174.769 19.905L174.285 19.557L175.719 13.572C174.294 12.797 172.796 12.175 171.252 11.716L168.03 16.969L167.447 16.875C165.578 16.572 163.672 16.572 161.803 16.875L161.221 16.969L157.999 11.717C157.799 11.776 157.599 11.839 157.399 11.904C156.953 12.05 156.473 11.81 156.312 11.37C156.142 10.907 156.383 10.385 156.851 10.232C157.29 10.088 157.733 9.95699 158.174 9.83999L158.808 9.67099L162.107 15.05C163.902 14.801 165.347 14.801 167.142 15.05L170.441 9.67099L171.075 9.83899C173.201 10.405 175.252 11.257 177.17 12.369L177.736 12.698L176.267 18.828C177.607 19.856 178.802 21.05 179.829 22.39L185.958 20.922L186.287 21.488C187.4 23.406 188.252 25.457 188.817 27.583L188.985 28.216L183.607 31.514C183.731 32.41 183.791 33.239 183.791 34.032C183.791 34.826 183.73 35.654 183.607 36.55L188.985 39.849L188.817 40.482C188.252 42.608 187.4 44.659 186.287 46.577L185.962 47.143ZM164.381 42.6C159.913 42.474 156.187 38.75 156.059 34.282C155.93 29.779 159.295 26.018 163.638 25.517C164.163 25.456 164.628 25.867 164.628 26.396C164.628 26.84 164.297 27.213 163.856 27.263C160.026 27.697 157.149 31.319 157.951 35.403C158.472 38.055 160.609 40.192 163.262 40.71C167.615 41.561 171.441 38.235 171.441 34.031C171.441 32.624 171.007 31.262 170.208 30.121C169.956 29.761 170.024 29.269 170.354 28.978C170.749 28.629 171.365 28.702 171.666 29.135C172.661 30.565 173.201 32.27 173.201 34.031C173.199 38.84 169.22 42.736 164.381 42.6Z" fill="#FFD9A9"/>
<path d="M108.314 131.592L106.183 128.118C105.029 128.278 104.084 128.278 102.93 128.118L100.799 131.592L100.39 131.483C99.016 131.118 97.691 130.568 96.452 129.848L96.086 129.635L96.99 125.863C97.063 125.558 97.37 125.369 97.675 125.443C97.98 125.516 98.168 125.823 98.095 126.128L97.39 129.07C98.311 129.571 99.278 129.973 100.276 130.269L102.357 126.875L102.734 126.937C103.941 127.134 105.172 127.134 106.379 126.937L106.756 126.875L108.838 130.269C109.836 129.973 110.803 129.571 111.724 129.07L110.797 125.204L111.107 124.981C111.952 124.374 112.705 123.656 113.352 122.844C113.544 122.603 113.886 122.546 114.136 122.726C114.395 122.913 114.456 123.281 114.258 123.532C113.622 124.334 112.892 125.053 112.079 125.676L113.028 129.635L112.662 129.848C111.423 130.567 110.098 131.117 108.724 131.483L108.314 131.592ZM95.251 124.008C95.072 123.803 94.899 123.593 94.733 123.376L90.773 124.325L90.561 123.959C89.842 122.72 89.292 121.395 88.927 120.021L88.818 119.612L92.292 117.481C92.212 116.902 92.173 116.367 92.173 115.854C92.173 115.342 92.212 114.806 92.292 114.227L88.818 112.096L88.927 111.687C89.292 110.313 89.842 108.989 90.561 107.749L90.773 107.383L94.733 108.332C95.396 107.466 96.168 106.695 97.034 106.031L96.316 103.035C96.243 102.73 96.431 102.424 96.735 102.351L96.737 102.35C97.042 102.277 97.348 102.465 97.421 102.77L98.315 106.503L98.002 106.728C97.01 107.442 96.14 108.312 95.426 109.305L95.203 109.615L91.336 108.689C90.836 109.61 90.434 110.577 90.138 111.575L93.531 113.656L93.47 114.033C93.361 114.699 93.309 115.295 93.309 115.856C93.309 116.417 93.362 117.013 93.47 117.679L93.532 118.055L90.139 120.137C90.435 121.135 90.837 122.102 91.337 123.023L95.204 122.097L95.427 122.407C95.637 122.699 95.862 122.983 96.1 123.255C96.298 123.481 96.292 123.819 96.076 124.027L96.055 124.047C95.826 124.264 95.461 124.246 95.251 124.008ZM118.338 124.324L116.878 123.975C116.573 123.902 116.384 123.595 116.457 123.29C116.53 122.985 116.837 122.797 117.142 122.87L117.773 123.021C118.273 122.1 118.675 121.133 118.971 120.135L115.578 118.053L115.64 117.677C115.748 117.012 115.801 116.415 115.801 115.854C115.801 115.293 115.748 114.697 115.64 114.031L115.579 113.654L118.972 111.573C118.676 110.575 118.274 109.608 117.774 108.687L113.907 109.613L113.684 109.303C112.97 108.311 112.1 107.44 111.108 106.726L110.795 106.501L111.722 102.634C110.801 102.133 109.834 101.732 108.836 101.435L106.755 104.828L106.379 104.767C105.172 104.571 103.941 104.571 102.733 104.767L102.357 104.828L100.276 101.435C100.147 101.473 100.017 101.514 99.889 101.556C99.601 101.65 99.291 101.495 99.187 101.211C99.077 100.912 99.233 100.575 99.535 100.476C99.819 100.383 100.105 100.298 100.389 100.223L100.799 100.114L102.93 103.589C104.09 103.428 105.023 103.428 106.183 103.589L108.314 100.114L108.723 100.223C110.096 100.589 111.421 101.139 112.661 101.857L113.027 102.07L112.078 106.03C112.944 106.694 113.715 107.465 114.379 108.331L118.339 107.382L118.551 107.748C119.27 108.987 119.82 110.312 120.185 111.686L120.294 112.095L116.82 114.226C116.9 114.805 116.939 115.34 116.939 115.853C116.939 116.366 116.9 116.901 116.82 117.48L120.294 119.611L120.185 120.02C119.82 121.394 119.27 122.719 118.551 123.958L118.338 124.324ZM104.397 121.389C101.51 121.308 99.104 118.902 99.021 116.015C98.937 113.106 101.111 110.676 103.917 110.352C104.256 110.313 104.556 110.579 104.556 110.92C104.556 111.207 104.342 111.448 104.057 111.48C101.583 111.76 99.724 114.1 100.242 116.739C100.578 118.452 101.959 119.833 103.673 120.168C106.485 120.718 108.957 118.569 108.957 115.853C108.957 114.944 108.677 114.064 108.161 113.327C107.998 113.095 108.042 112.776 108.255 112.588C108.511 112.362 108.908 112.41 109.103 112.69C109.746 113.614 110.095 114.715 110.095 115.853C110.093 118.96 107.522 121.478 104.397 121.389Z" fill="#FFD9A9"/>
<path d="M250 329.016C357.082 329.016 443.889 323.947 443.889 317.693C443.889 311.439 357.082 306.37 250 306.37C142.918 306.37 56.111 311.439 56.111 317.693C56.111 323.947 142.918 329.016 250 329.016Z" fill="#F5F5F5"/>
<path d="M363.45 47.827H330.889L307.858 311.076H340.419C349.679 311.076 357.871 303.543 358.681 294.283L378.774 64.62C379.584 55.36 372.71 47.827 363.45 47.827Z" fill="#FF9E22"/>
<path d="M356.806 47.827H246.607C237.347 47.827 229.155 55.36 228.345 64.62L208.252 294.283C207.442 303.543 214.316 311.076 223.576 311.076H333.775C343.035 311.076 351.227 303.543 352.037 294.283L372.13 64.62C372.94 55.36 366.066 47.827 356.806 47.827Z" fill="#FF9E22"/>
<path opacity="0.3" d="M356.806 47.827H246.607C237.347 47.827 229.155 55.36 228.345 64.62L208.252 294.283C207.442 303.543 214.316 311.076 223.576 311.076H333.775C343.035 311.076 351.227 303.543 352.037 294.283L372.13 64.62C372.94 55.36 366.066 47.827 356.806 47.827Z" fill="white"/>
<path opacity="0.4" d="M356.335 53.207H327.281C325.567 53.207 323.958 54.332 323.323 55.974C320.974 62.044 315.026 66.201 308.69 66.201H291.509C285.173 66.201 279.951 62.043 278.664 55.974C278.316 54.332 276.904 53.208 275.19 53.208H246.136C239.833 53.208 234.277 58.317 233.725 64.62L213.632 294.283C213.081 300.586 217.743 305.695 224.046 305.695H334.245C340.548 305.695 346.104 300.586 346.656 294.283L366.749 64.62C367.3 58.317 362.638 53.207 356.335 53.207Z" fill="white"/>
<path d="M328.883 177.958H251.759C249.472 177.958 247.781 176.104 247.981 173.818L248.367 169.405C248.567 167.118 250.583 165.265 252.87 165.265H329.994C332.281 165.265 333.972 167.119 333.772 169.405L333.386 173.818C333.186 176.104 331.17 177.958 328.883 177.958Z" fill="white"/>
<path d="M327.217 196.998H250.093C247.806 196.998 246.115 195.144 246.315 192.858L246.701 188.445C246.901 186.158 248.917 184.305 251.204 184.305H328.328C330.615 184.305 332.306 186.159 332.106 188.445L331.72 192.858C331.52 195.144 329.504 196.998 327.217 196.998Z" fill="white"/>
<path opacity="0.1" d="M305.45 57.509C305.228 60.045 302.993 62.1 300.457 62.1C297.921 62.1 296.046 60.045 296.268 57.509C296.49 54.973 298.725 52.918 301.261 52.918C303.796 52.918 305.672 54.973 305.45 57.509Z" fill="black"/>
<path opacity="0.1" d="M303.367 57.509C303.246 58.894 302.025 60.017 300.639 60.017C299.254 60.017 298.229 58.894 298.35 57.509C298.471 56.124 299.692 55.001 301.078 55.001C302.464 55.001 303.488 56.124 303.367 57.509Z" fill="black"/>
<g opacity="0.8">
<path d="M342.769 65.167C342.026 65.167 341.476 64.565 341.541 63.822L341.756 61.363C341.821 60.62 342.476 60.018 343.219 60.018C343.962 60.018 344.512 60.62 344.447 61.363L344.232 63.822C344.167 64.565 343.512 65.167 342.769 65.167Z" fill="white"/>
<path d="M353.531 65.167C352.788 65.167 352.238 64.565 352.303 63.822L352.808 58.051C352.873 57.308 353.528 56.706 354.271 56.706C355.014 56.706 355.564 57.308 355.499 58.051L354.994 63.822C354.929 64.565 354.274 65.167 353.531 65.167Z" fill="white"/>
<path d="M348.15 65.167C347.407 65.167 346.857 64.565 346.922 63.822L347.282 59.707C347.347 58.964 348.002 58.362 348.745 58.362C349.488 58.362 350.038 58.964 349.973 59.707L349.613 63.822C349.548 64.565 348.893 65.167 348.15 65.167Z" fill="white"/>
</g>
<g opacity="0.8">
<path d="M250.635 65.167H243.88C243.459 65.167 243.148 64.826 243.185 64.405L243.502 60.778C243.539 60.357 243.91 60.016 244.33 60.016H251.085C251.506 60.016 251.817 60.357 251.78 60.778L251.463 64.405C251.426 64.826 251.056 65.167 250.635 65.167Z" fill="white"/>
<path d="M253.767 64.183C253.346 64.183 253.035 63.842 253.072 63.421L253.217 61.762C253.254 61.341 253.625 61 254.045 61C254.466 61 254.777 61.341 254.74 61.762L254.595 63.421C254.559 63.842 254.188 64.183 253.767 64.183Z" fill="white"/>
</g>
<path d="M316.188 148.951C329.644 136.07 330.985 115.633 319.183 103.303C307.38 90.9734 286.904 91.4201 273.448 104.301C259.991 117.182 258.65 137.619 270.453 149.949C282.255 162.279 302.731 161.832 316.188 148.951Z" fill="white"/>
<path d="M294.921 125.379C286.436 125.379 279.274 128.607 278.661 135.622L277.98 143.407H308.709L309.39 135.622C310.003 128.607 303.407 125.379 294.921 125.379Z" fill="#FF9E22"/>
<path d="M295.202 122.173C299.14 122.173 300.956 118.981 301.3 115.043C301.645 111.105 300.387 107.913 296.449 107.913C292.511 107.913 290.695 111.105 290.35 115.043C290.006 118.981 291.264 122.173 295.202 122.173Z" fill="#FF9E22"/>
<path d="M325.363 171.384C323.267 171.384 321.498 172.181 321.347 173.914L321.179 175.837H328.769L328.937 173.914C329.088 172.181 327.459 171.384 325.363 171.384Z" fill="#FF9E22"/>
<path d="M325.432 170.592C326.405 170.592 326.853 169.803 326.938 168.831C327.023 167.858 326.713 167.07 325.74 167.07C324.767 167.07 324.319 167.859 324.234 168.831C324.149 169.804 324.46 170.592 325.432 170.592Z" fill="#FF9E22"/>
<path d="M301.994 216.038H271.985C268.48 216.038 265.887 213.197 266.194 209.691C266.501 206.186 269.591 203.344 273.096 203.344H303.105C306.61 203.344 309.203 206.186 308.896 209.691C308.589 213.197 305.499 216.038 301.994 216.038Z" fill="#FF9E22"/>
<path d="M298.374 286.818H266.257C262.553 286.818 259.813 283.815 260.137 280.111L262.186 256.686C262.51 252.982 265.775 249.979 269.479 249.979H301.596C305.3 249.979 308.04 252.982 307.716 256.686L305.667 280.111C305.343 283.815 302.078 286.818 298.374 286.818Z" fill="#FF9E22"/>
<g opacity="0.6">
<path d="M288.469 262.603C288.664 260.374 287.015 258.567 284.786 258.567C282.557 258.567 280.592 260.374 280.397 262.603C280.281 263.93 280.828 265.098 281.753 265.833L281.047 273.899C280.931 275.223 281.91 276.296 283.234 276.296C284.558 276.296 285.725 275.223 285.841 273.899L286.547 265.833C287.602 265.098 288.353 263.931 288.469 262.603Z" fill="white"/>
</g>
<path d="M301.881 254.855H297.742L298.756 243.265C299.365 236.3 294.195 230.634 287.23 230.634C280.265 230.634 274.103 236.3 273.494 243.265L272.48 254.855H268.341L269.355 243.265C270.164 234.018 278.345 226.495 287.592 226.495C296.839 226.495 303.704 234.018 302.895 243.265L301.881 254.855Z" fill="#FF9E22"/>
<path d="M325.871 189.134L325.968 188.022C326.068 186.885 325.224 185.961 324.087 185.961C322.95 185.961 321.945 186.886 321.846 188.022L321.749 189.134C321.295 189.134 320.895 189.502 320.856 189.956L320.597 192.912C320.557 193.366 320.893 193.734 321.347 193.734H325.467C325.921 193.734 326.321 193.366 326.361 192.912L326.62 189.956C326.66 189.502 326.325 189.134 325.871 189.134ZM324.043 186.469C324.899 186.469 325.534 187.165 325.46 188.021L325.363 189.133H322.258L322.355 188.021C322.43 187.165 323.187 186.469 324.043 186.469Z" fill="#FF9E22"/>
<path d="M263.847 190.318L262.409 190.021C262.239 189.986 262.151 189.807 262.222 189.639L262.821 188.223C262.95 187.919 262.58 187.694 262.347 187.935L261.26 189.055C261.131 189.188 260.924 189.188 260.819 189.055L259.928 187.935C259.737 187.695 259.328 187.919 259.403 188.223L259.754 189.639C259.796 189.807 259.677 189.986 259.5 190.021L258.01 190.318C257.69 190.382 257.651 190.831 257.96 190.895L259.398 191.192C259.568 191.227 259.656 191.406 259.585 191.574L258.986 192.99C258.857 193.294 259.227 193.519 259.46 193.278L260.547 192.158C260.676 192.025 260.883 192.025 260.988 192.158L261.879 193.278C262.07 193.519 262.479 193.294 262.404 192.99L262.053 191.574C262.011 191.406 262.13 191.227 262.307 191.192L263.797 190.895C264.117 190.831 264.156 190.381 263.847 190.318Z" fill="#263238"/>
<path d="M273.31 190.318L271.872 190.021C271.702 189.986 271.614 189.807 271.685 189.639L272.284 188.223C272.413 187.919 272.043 187.694 271.81 187.935L270.723 189.055C270.594 189.188 270.388 189.188 270.282 189.055L269.391 187.935C269.2 187.695 268.791 187.919 268.866 188.223L269.217 189.639C269.259 189.807 269.139 189.986 268.963 190.021L267.473 190.318C267.153 190.382 267.114 190.831 267.422 190.895L268.86 191.192C269.03 191.227 269.118 191.406 269.047 191.574L268.448 192.99C268.319 193.294 268.689 193.519 268.922 193.278L270.009 192.158C270.138 192.025 270.344 192.025 270.45 192.158L271.341 193.278C271.532 193.519 271.941 193.294 271.866 192.99L271.515 191.574C271.473 191.406 271.593 191.227 271.769 191.192L273.259 190.895C273.58 190.831 273.619 190.381 273.31 190.318Z" fill="#263238"/>
<path d="M282.773 190.318L281.335 190.021C281.165 189.986 281.077 189.807 281.148 189.639L281.747 188.223C281.876 187.919 281.506 187.694 281.273 187.935L280.186 189.055C280.057 189.188 279.85 189.188 279.745 189.055L278.854 187.935C278.663 187.695 278.254 187.919 278.329 188.223L278.68 189.639C278.722 189.807 278.603 189.986 278.426 190.021L276.936 190.318C276.616 190.382 276.577 190.831 276.885 190.895L278.323 191.192C278.493 191.227 278.581 191.406 278.51 191.574L277.911 192.99C277.782 193.294 278.152 193.519 278.385 193.278L279.472 192.158C279.601 192.025 279.808 192.025 279.913 192.158L280.804 193.278C280.995 193.519 281.404 193.294 281.329 192.99L280.978 191.574C280.936 191.406 281.055 191.227 281.232 191.192L282.722 190.895C283.043 190.831 283.082 190.381 282.773 190.318Z" fill="#263238"/>
<path d="M292.237 190.318L290.799 190.021C290.629 189.986 290.541 189.807 290.612 189.639L291.211 188.223C291.34 187.919 290.97 187.694 290.737 187.935L289.65 189.055C289.521 189.188 289.314 189.188 289.209 189.055L288.318 187.935C288.127 187.695 287.718 187.919 287.793 188.223L288.144 189.639C288.186 189.807 288.067 189.986 287.89 190.021L286.4 190.318C286.08 190.382 286.041 190.831 286.35 190.895L287.788 191.192C287.958 191.227 288.046 191.406 287.975 191.574L287.376 192.99C287.247 193.294 287.617 193.519 287.85 193.278L288.937 192.158C289.066 192.025 289.273 192.025 289.378 192.158L290.269 193.278C290.46 193.519 290.869 193.294 290.794 192.99L290.443 191.574C290.401 191.406 290.52 191.227 290.697 191.192L292.187 190.895C292.506 190.831 292.546 190.381 292.237 190.318Z" fill="#263238"/>
<path d="M301.7 190.318L300.262 190.021C300.092 189.986 300.004 189.807 300.075 189.639L300.674 188.223C300.803 187.919 300.433 187.694 300.2 187.935L299.113 189.055C298.984 189.188 298.777 189.188 298.672 189.055L297.781 187.935C297.59 187.695 297.181 187.919 297.256 188.223L297.607 189.639C297.649 189.807 297.53 189.986 297.353 190.021L295.863 190.318C295.543 190.382 295.504 190.831 295.812 190.895L297.25 191.192C297.42 191.227 297.508 191.406 297.437 191.574L296.838 192.99C296.71 193.294 297.079 193.519 297.312 193.278L298.399 192.158C298.528 192.025 298.734 192.025 298.84 192.158L299.731 193.278C299.922 193.519 300.331 193.294 300.256 192.99L299.905 191.574C299.863 191.406 299.983 191.227 300.159 191.192L301.649 190.895C301.969 190.831 302.009 190.381 301.7 190.318Z" fill="#263238"/>
<path d="M311.163 190.318L309.725 190.021C309.555 189.986 309.467 189.807 309.538 189.639L310.137 188.223C310.265 187.919 309.896 187.694 309.663 187.935L308.576 189.055C308.447 189.188 308.241 189.188 308.135 189.055L307.244 187.935C307.053 187.695 306.644 187.919 306.719 188.223L307.07 189.639C307.112 189.807 306.992 189.986 306.816 190.021L305.326 190.318C305.006 190.382 304.967 190.831 305.275 190.895L306.713 191.192C306.883 191.227 306.971 191.406 306.9 191.574L306.301 192.99C306.172 193.294 306.542 193.519 306.775 193.278L307.862 192.158C307.991 192.025 308.198 192.025 308.303 192.158L309.194 193.278C309.385 193.519 309.794 193.294 309.719 192.99L309.368 191.574C309.326 191.406 309.445 191.227 309.622 191.192L311.112 190.895C311.432 190.831 311.472 190.381 311.163 190.318Z" fill="#263238"/>
<path d="M288.353 169.612H270.585C269.481 169.612 268.508 170.507 268.411 171.611C268.314 172.715 269.131 173.61 270.235 173.61H288.003C289.107 173.61 290.08 172.715 290.177 171.611C290.274 170.507 289.457 169.612 288.353 169.612Z" fill="#263238"/>
<path d="M306.39 169.612H296.08C294.976 169.612 294.003 170.507 293.906 171.611C293.809 172.715 294.626 173.61 295.73 173.61H306.04C307.144 173.61 308.117 172.715 308.214 171.611C308.311 170.507 307.494 169.612 306.39 169.612Z" fill="#263238"/>
<path d="M320.001 260.264C313.302 262.939 307.429 266.841 303.409 271.278C301.052 269.272 297.701 267.879 293.684 267.242L293.213 267.167L293.007 269.526L293.27 269.625C297.235 271.123 300.462 273.781 302.603 277.31L302.939 277.865L303.311 277.27C307.431 270.674 313.439 265.148 320.227 261.71L320.457 261.593L320.594 260.025L320.001 260.264Z" fill="#263238"/>
<path opacity="0.2" d="M230.645 63.374C229.396 65.571 228.572 68.022 228.344 70.619L213.452 240.84H259.529L268.787 205.347L265.74 169.854L274.998 134.361L271.951 98.868L281.209 63.375H230.645V63.374Z" fill="black"/>
<path d="M267.951 88.868L277.208 53.374H160.684L151.426 88.868L154.474 124.361L145.216 159.854L148.263 195.348L139.005 230.841H255.529L264.787 195.348L261.74 159.854L270.997 124.361L267.951 88.868Z" fill="#FF9E22"/>
<path opacity="0.7" d="M267.951 88.868L277.208 53.374H160.684L151.426 88.868L154.474 124.361L145.216 159.854L148.263 195.348L139.005 230.841H255.529L264.787 195.348L261.74 159.854L270.997 124.361L267.951 88.868Z" fill="white"/>
<path opacity="0.5" d="M267.95 88.868H151.426L160.684 53.374H277.208L267.95 88.868Z" fill="white"/>
<path opacity="0.5" d="M261.74 159.854H145.216L154.474 124.361H270.998L261.74 159.854Z" fill="white"/>
<path opacity="0.5" d="M255.529 230.841H139.005L148.263 195.348H264.787L255.529 230.841Z" fill="white"/>
<path opacity="0.2" d="M252.358 103.7C251.357 104.013 250.075 104.201 248.678 104.201C246.621 104.201 244.813 103.794 243.785 103.181C243.503 103.012 243.193 102.928 242.883 102.928C242.595 102.928 242.308 103.009 242.042 103.154C242.022 103.165 242 103.169 241.981 103.181C241.97 103.188 241.956 103.193 241.945 103.2C241.564 103.422 241.084 103.617 240.524 103.774C239.563 104.043 238.375 104.202 237.089 104.202C236.74 104.202 236.397 104.19 236.065 104.168C235.068 104.1 234.159 103.936 233.409 103.702C233.278 103.661 233.146 103.637 233.017 103.628C232.11 103.568 231.295 104.264 231.295 105.226V106.31H186.004C182.499 106.31 179.657 109.151 179.657 112.657V119.053C179.657 122.558 182.499 125.4 186.004 125.4H237.531C237.645 125.4 237.755 125.389 237.868 125.383C238.424 125.843 239.003 126.302 239.616 126.767C240.35 127.323 241.123 127.887 241.933 128.475C242.497 128.884 243.271 128.884 243.835 128.475C250.314 123.776 254.474 120.535 254.474 111.63V105.227C254.473 104.126 253.408 103.372 252.358 103.7Z" fill="black"/>
<path d="M236.546 121.875H185.019C181.514 121.875 178.672 119.034 178.672 115.528V109.132C178.672 105.627 181.513 102.785 185.019 102.785H236.546C240.051 102.785 242.893 105.626 242.893 109.132V115.528C242.893 119.033 240.051 121.875 236.546 121.875Z" fill="#FF9E22"/>
<path d="M247.694 100.677C245.637 100.677 243.83 100.27 242.801 99.657C242.236 99.32 241.562 99.32 240.997 99.657C239.969 100.27 238.162 100.677 236.104 100.677C234.706 100.677 233.425 100.489 232.424 100.177C231.375 99.849 230.309 100.602 230.309 101.702V108.105C230.309 117.01 234.469 120.251 240.948 124.95C241.512 125.359 242.286 125.359 242.85 124.95C249.329 120.251 253.489 117.01 253.489 108.105V101.702C253.489 100.602 252.424 99.849 251.374 100.177C250.373 100.489 249.092 100.677 247.694 100.677Z" fill="#FF9E22"/>
<path opacity="0.3" d="M247.694 100.677C245.637 100.677 243.83 100.27 242.801 99.657C242.236 99.32 241.562 99.32 240.997 99.657C239.969 100.27 238.162 100.677 236.104 100.677C234.706 100.677 233.425 100.489 232.424 100.177C231.375 99.849 230.309 100.602 230.309 101.702V108.105C230.309 117.01 234.469 120.251 240.948 124.95C241.512 125.359 242.286 125.359 242.85 124.95C249.329 120.251 253.489 117.01 253.489 108.105V101.702C253.489 100.602 252.424 99.849 251.374 100.177C250.373 100.489 249.092 100.677 247.694 100.677Z" fill="white"/>
<path opacity="0.2" d="M240.997 99.657C239.969 100.27 238.162 100.677 236.104 100.677C234.706 100.677 233.425 100.489 232.424 100.177C231.375 99.849 230.309 100.602 230.309 101.701V108.105C230.309 117.01 234.469 120.251 240.948 124.95C241.23 125.154 241.564 125.257 241.899 125.257V99.404C241.589 99.404 241.279 99.488 240.997 99.657Z" fill="white"/>
<path d="M251.186 106.357C246.999 108.089 243.416 110.616 241.065 113.49C239.425 112.191 237.176 111.289 234.538 110.876L234.229 110.828V112.356L234.405 112.42C237.058 113.39 239.298 115.112 240.885 117.397L241.134 117.756L241.341 117.371C243.636 113.099 247.214 109.52 251.415 107.294L251.558 107.218V106.203L251.186 106.357Z" fill="#263238"/>
<path d="M275.151 63.355H270.73C268.278 63.355 266.465 61.368 266.679 58.916L267.066 54.495C267.281 52.043 269.442 50.056 271.894 50.056H276.315C278.767 50.056 280.58 52.044 280.366 54.495L279.979 58.916C279.764 61.368 277.603 63.355 275.151 63.355Z" fill="#FF9E22"/>
<path d="M276.988 54.486L276.029 53.434L273.614 55.654L271.588 53.434L270.444 54.486L272.47 56.706L270.056 58.926L271.016 59.978L273.43 57.758L275.456 59.978L276.6 58.926L274.574 56.706L276.988 54.486Z" fill="white"/>
<path d="M176.372 101.494C178.935 104.281 181.384 107.168 183.802 110.082C186.223 112.993 188.584 115.956 190.916 118.945C191.018 119.075 190.977 119.022 191.001 119.061C191.012 119.078 191.014 119.106 191.028 119.12C191.054 119.149 191.068 119.197 191.099 119.223C191.145 119.297 191.212 119.35 191.279 119.42C191.421 119.547 191.615 119.644 191.831 119.684C191.938 119.7 192.051 119.716 192.166 119.704C192.228 119.712 192.283 119.693 192.348 119.691C192.382 119.692 192.407 119.674 192.44 119.67C192.491 119.648 192.459 119.693 192.597 119.611L195.102 118.253C198.462 116.474 201.849 114.735 205.352 113.174L208.28 116.8C205.458 119.397 202.519 122.645 199.553 125.025L197.313 126.786C197.256 126.838 197.015 126.996 196.864 127.097C196.691 127.208 196.522 127.328 196.339 127.426C195.976 127.626 195.61 127.826 195.221 127.98C194.453 128.312 193.633 128.523 192.802 128.651C191.135 128.899 189.403 128.731 187.786 128.152C186.98 127.862 186.199 127.475 185.488 126.981C185.124 126.745 184.791 126.468 184.459 126.189C184.292 126.05 184.143 125.895 183.987 125.744L183.589 125.341C180.943 122.627 178.326 119.887 175.768 117.095C173.208 114.305 170.678 111.49 168.262 108.574L176.372 101.494Z" fill="#B55B52"/>
<path d="M203.99 115.382L206.321 107.895L212.457 110.953C212.457 110.953 211.563 116.416 207.096 117.363L203.99 115.382Z" fill="#B55B52"/>
<path d="M208.783 105.818L214.317 107.342L212.458 110.952L206.322 107.894L208.783 105.818Z" fill="#B55B52"/>
<path d="M144.094 103.534C143.426 106.715 142.61 109.86 141.755 112.996C140.904 116.133 139.975 119.251 139.009 122.36L138.649 123.526L138.469 124.109C138.431 124.236 138.406 124.268 138.372 124.353C138.262 124.648 138.196 124.968 138.183 125.304C138.166 125.97 138.324 126.711 138.76 127.355C138.796 127.459 139.141 127.821 139.41 128.113L140.24 129.015L141.877 130.848C142.955 132.085 144.029 133.326 145.049 134.631L141.564 138.665C140.125 137.846 138.741 136.963 137.36 136.076L135.309 134.723L134.295 134.032C133.95 133.792 133.673 133.631 133.121 133.174C131.219 131.561 129.798 129.271 129.277 126.728C129.011 125.459 128.946 124.136 129.094 122.826C129.133 122.512 129.192 122.146 129.24 121.877L129.346 121.276L129.558 120.074C130.119 116.867 130.717 113.669 131.392 110.489C132.064 107.309 132.775 104.138 133.633 101.003L144.094 103.534Z" fill="#B55B52"/>
<path d="M141.625 134.346L145.751 132.236L147.571 139.249C147.571 139.249 144.26 140.518 141.697 138.888L141.625 134.346Z" fill="#B55B52"/>
<path d="M151.452 129.993L151.639 136.426L147.032 139.439L145.434 132.372L151.452 129.993Z" fill="#B55B52"/>
<path d="M164.942 70.469C165.043 70.965 165.387 71.313 165.711 71.247C166.035 71.181 166.216 70.726 166.115 70.23C166.014 69.734 165.67 69.386 165.346 69.452C165.023 69.518 164.842 69.973 164.942 70.469Z" fill="#263238"/>
<path d="M165.342 71.322C165.342 71.322 167.05 73.952 168.571 75.079C167.86 76.076 166.294 76.005 166.294 76.005L165.342 71.322Z" fill="#A02724"/>
<path d="M162.568 68.085C162.496 68.085 162.423 68.059 162.366 68.006C162.246 67.895 162.238 67.707 162.35 67.586C163.465 66.379 164.818 66.594 164.877 66.603C165.039 66.631 165.147 66.784 165.12 66.946C165.092 67.107 164.937 67.215 164.779 67.189C164.734 67.182 163.676 67.027 162.787 67.989C162.728 68.053 162.648 68.085 162.568 68.085Z" fill="#263238"/>
<path d="M150.521 77.44C151.624 82.027 152.725 90.432 148.788 93.492C148.788 93.492 150.326 98.145 160.783 98.145C172.281 98.145 166.278 95.148 166.278 95.148C160.003 93.927 160.164 88.476 161.257 84.912L150.521 77.44Z" fill="#B55B52"/>
<path d="M147.563 94.343C146.878 93.068 146.123 91.61 147.684 91.153C149.401 90.65 160.432 89.718 163.672 90.662C162.676 92.433 164.362 94.61 164.362 94.61L147.563 94.343Z" fill="#263238"/>
<path d="M156.696 308.919H163.911L164.629 294.398H157.415L156.696 308.919Z" fill="#B55B52"/>
<path d="M110.913 306.919L118.22 307.305L122.661 293L115.353 292.613L110.913 306.919Z" fill="#B55B52"/>
<path d="M117.997 306.727L111.112 305.236C110.862 305.182 110.607 305.309 110.5 305.542L108.11 310.727C107.862 311.265 108.19 311.896 108.771 312.011C111.183 312.49 112.382 312.602 115.409 313.257C117.272 313.66 121.476 314.685 124.049 315.242C126.565 315.787 127.508 313.328 126.505 312.87C122.007 310.815 120.128 309.005 118.91 307.319C118.691 307.016 118.364 306.807 117.997 306.727Z" fill="#263238"/>
<path d="M163.529 308.193H156.682C156.426 308.193 156.204 308.371 156.148 308.621L154.909 314.194C154.781 314.772 155.219 315.319 155.811 315.309C158.281 315.267 161.85 315.122 164.955 315.122C168.585 315.122 171.72 315.32 175.977 315.32C178.551 315.32 179.265 312.718 178.188 312.482C173.283 311.409 169.278 311.294 165.039 308.681C164.579 308.397 164.07 308.193 163.529 308.193Z" fill="#263238"/>
<path d="M135.725 95.612C130.28 98.201 128.8 113.896 128.8 113.896L142.27 120.12C142.27 120.12 145.613 115.195 145.869 107.451C146.137 99.338 141.292 92.965 135.725 95.612Z" fill="#263238"/>
<path opacity="0.4" d="M143.032 105.291C140.6 109.066 140.83 114.907 141.672 119.843L142.267 120.122C142.267 120.122 145.614 115.191 145.871 107.449C145.886 106.965 145.884 106.484 145.867 106.016L143.032 105.291Z" fill="black"/>
<path d="M173.313 95.233C173.313 95.233 179.987 102.771 173.684 149.428C163.579 149.428 145.064 149.428 140.147 149.428C139.916 144.28 143.151 119.167 138.185 94.91C138.185 94.91 143.934 93.756 149.412 93.492C153.697 93.286 159.901 93.149 163.668 93.492C168.635 93.946 173.313 95.233 173.313 95.233Z" fill="#FF9E22"/>
<path opacity="0.6" d="M173.313 95.233C173.313 95.233 179.987 102.771 173.684 149.428C163.579 149.428 145.064 149.428 140.147 149.428C139.916 144.28 143.151 119.167 138.185 94.91C138.185 94.91 143.934 93.756 149.412 93.492C153.697 93.286 159.901 93.149 163.668 93.492C168.635 93.946 173.313 95.233 173.313 95.233Z" fill="#FAFAFA"/>
<path opacity="0.2" d="M176.244 109.493L176.116 109.382L169.446 105.818C168.768 116.088 173.359 122.526 176.09 125.342C176.466 118.762 176.457 113.572 176.244 109.493Z" fill="black"/>
<path opacity="0.2" d="M164.628 294.402L164.259 301.887H157.041L157.41 294.402H164.628Z" fill="black"/>
<path opacity="0.2" d="M115.351 292.617L122.661 293.004L120.368 300.377L113.058 299.991L115.351 292.617Z" fill="black"/>
<path d="M148.199 72.778C149.81 78.789 150.447 82.389 154.157 84.888C159.736 88.647 166.683 84.333 166.9 77.962C167.096 72.228 164.428 63.362 157.978 62.15C151.623 60.957 146.588 66.767 148.199 72.778Z" fill="#B55B52"/>
<path d="M161.787 149.428C161.787 149.428 154.671 197.345 150.765 215.297C146.487 234.955 123.549 299.995 123.549 299.995L112.325 297.565C112.325 297.565 126.709 244.562 130.299 217.079C131.7 206.354 133.391 189.066 135.531 174.652C137.603 160.693 140.147 149.428 140.147 149.428H161.787Z" fill="#263238"/>
<path d="M126.236 296.247C126.284 296.257 124.144 300.306 124.144 300.306L111.516 297.572L112.581 293.776L126.236 296.247Z" fill="#FF9E22"/>
<path opacity="0.6" d="M126.236 296.247C126.284 296.257 124.144 300.306 124.144 300.306L111.516 297.572L112.581 293.776L126.236 296.247Z" fill="white"/>
<path opacity="0.6" d="M157.29 166.5C149.062 168.113 149.933 198.796 150.923 214.578C153.296 203.423 156.769 181.957 159.142 166.722C158.596 166.449 157.981 166.364 157.29 166.5Z" fill="black"/>
<path d="M173.684 149.428C173.684 149.428 177.031 196.308 176.349 215.429C175.64 235.317 166.21 300.438 166.21 300.438H155.588C155.588 300.438 155.198 236.479 154.726 216.947C154.211 195.653 151.64 149.428 151.64 149.428H173.684Z" fill="#263238"/>
<path d="M168.253 296.207C168.302 296.207 167.654 300.617 167.654 300.617H154.733L154.384 296.681L168.253 296.207Z" fill="#FF9E22"/>
<path opacity="0.6" d="M168.253 296.207C168.302 296.207 167.654 300.617 167.654 300.617H154.733L154.384 296.681L168.253 296.207Z" fill="white"/>
<path d="M169.399 104.015C169.399 116.596 176.094 121.776 176.094 121.776L186.976 111.138C186.976 111.138 183.276 104.763 178.188 98.911C171.901 91.681 169.399 95.925 169.399 104.015Z" fill="#263238"/>
<path opacity="0.2" d="M166.519 80.239C166.243 81.01 165.518 82.317 163.697 82.838C161.041 83.598 161.006 85.849 161.006 85.849L161.039 85.891C163.573 85.054 165.683 82.96 166.519 80.239Z" fill="black"/>
<path d="M163.698 60.831C165.94 58.004 162.491 57.869 162.491 57.869C163.387 54.494 159.353 56.311 159.353 56.311C156.931 52.973 155.565 57.035 155.565 57.035C153.053 54.207 152.591 58.829 152.591 58.829C150.072 55.242 148.789 60.416 148.789 60.416C146.469 56.691 145.049 61.544 145.049 61.544C140.259 59.829 142.536 64.807 142.536 64.807C138.447 64.922 141.727 68.085 141.727 68.085C136.829 68.097 141.148 70.902 141.148 70.902C137.258 73.454 142.141 74.141 142.141 74.141C138.967 79.104 144.417 77.263 144.417 77.263C142.209 82.175 147.105 80.011 147.105 80.011C146.787 84.751 149.525 83.461 150.841 82.583C151.095 83.538 151.569 84.549 152.449 84.664C154.157 84.887 154.489 81.663 154.489 81.663C154.489 81.663 156.074 82.896 157.403 82.228C158.732 81.56 158.231 79.869 158.231 79.869C158.231 79.869 159.248 80.628 160.18 79.904C160.75 79.461 160.753 76.278 160.026 75.159L162.629 74.14C162.629 74.14 164.561 73.868 163.698 71.321C162.836 68.775 163.567 66.764 163.567 66.764C166.505 65.387 164.095 63.731 164.095 63.731C167.492 61.53 163.698 60.831 163.698 60.831Z" fill="#263238"/>
<path d="M158.425 73.03C158.834 74.608 159.871 75.964 160.955 76.771C162.587 77.985 163.805 76.79 163.689 74.944C163.585 73.282 162.61 70.648 160.81 70.155C159.038 69.669 157.958 71.226 158.425 73.03Z" fill="#B55B52"/>
</svg>
