<svg width="50" height="50" viewBox="0 0 50 50" fill="none" xmlns="http://www.w3.org/2000/svg">
<path fill-rule="evenodd" clip-rule="evenodd" d="M23.9524 3L44.9048 7.2345V25.9128C44.9048 33.248 39.4345 41.785 24.6801 46.7548L23.9524 47L23.2246 46.7548C8.47028 41.785 3 33.248 3 25.9128V7.2345L23.9524 3ZM7.19048 10.2916V25.9128C7.19048 31.1834 11.0063 38.3573 23.9524 42.9301C36.8984 38.3573 40.7143 31.1834 40.7143 25.9128V10.2916L23.9524 6.904L7.19048 10.2916Z" fill="black"/>
<path d="M7 28.2727L8.0625 31L9.65625 33.7273L12.3125 36.4545L15.5 38.6364L21.3438 41.9091L24 43L30.375 40.2727L35.6875 36.4545L38.3438 33.7273L39.9375 31L41 28.2727V24.4545V20.6364V17.3636V14.0909V11.9091V10.2727L38.3438 9.72727L35.6875 9.18182L29.8438 8.09091L24.5 7H24L22 7.5L19 8L16 8.5L13 9L10.5 9.5L8.5 10L7 10.2727V28.2727Z" fill="#FF9103" stroke="white" stroke-width="2.5"/>
<path d="M46.5 36C46.5 41.8223 42.0108 46.5 36.5238 46.5C31.0368 46.5 26.5476 41.8223 26.5476 36C26.5476 30.1777 31.0368 25.5 36.5238 25.5C42.0108 25.5 46.5 30.1777 46.5 36Z" fill="white" stroke="black"/>
<path d="M36.5238 27.75V37.1H44.3809" stroke="black" stroke-width="1.5"/>
</svg>
