<svg width="440" height="388" viewBox="0 0 440 388" fill="none" xmlns="http://www.w3.org/2000/svg">
<g opacity="0.45">
<path d="M341.5 388C387.063 388 424 351.063 424 305.5C424 259.937 387.063 223 341.5 223C295.937 223 259 259.937 259 305.5C259 351.063 295.937 388 341.5 388Z" fill="#FFEDD7"/>
<path d="M159.5 282C237.096 282 300 219.096 300 141.5C300 63.904 237.096 1 159.5 1C81.904 1 19 63.904 19 141.5C19 219.096 81.904 282 159.5 282Z" fill="#FFEDD7"/>
</g>
<path d="M415.913 127.421L411.719 131.261C411.579 131.389 411.457 131.528 411.345 131.673C408.681 129.816 405.752 128.482 402.704 127.677C402.744 127.494 402.774 127.307 402.781 127.115L403.004 121.433C403.073 119.665 401.691 118.17 399.923 118.101L394.241 117.878C392.474 117.809 390.978 119.191 390.909 120.959L390.686 126.641C390.679 126.832 390.694 127.02 390.719 127.205C387.701 127.753 384.754 128.811 382.014 130.383C381.915 130.229 381.805 130.08 381.678 129.94L377.838 125.746C376.643 124.441 374.609 124.351 373.304 125.546L369.11 129.386C367.805 130.581 367.715 132.615 368.911 133.92L372.751 138.114C372.879 138.253 373.018 138.376 373.163 138.488C371.306 141.152 369.972 144.081 369.167 147.129C368.984 147.089 368.797 147.059 368.606 147.052L362.924 146.829C362.073 146.795 361.259 147.093 360.631 147.668C360.627 147.671 360.623 147.675 360.62 147.679C359.991 148.261 359.625 149.053 359.592 149.91L359.369 155.592C359.3 157.36 360.682 158.855 362.45 158.924L368.132 159.147C368.324 159.155 368.511 159.138 368.696 159.112C369.244 162.131 370.302 165.078 371.874 167.818C371.72 167.916 371.571 168.026 371.431 168.154L367.237 171.994C365.932 173.189 365.842 175.223 367.038 176.528L370.878 180.722C372.073 182.027 374.107 182.117 375.412 180.921L379.606 177.081C379.746 176.953 379.868 176.814 379.98 176.669C382.645 178.527 385.574 179.861 388.623 180.666C388.583 180.848 388.552 181.034 388.544 181.227L388.321 186.909C388.287 187.766 388.589 188.584 389.171 189.213C389.753 189.843 390.545 190.208 391.401 190.241L397.083 190.464C397.962 190.498 398.772 190.174 399.375 189.623C399.985 189.065 400.381 188.273 400.416 187.383L400.639 181.701C400.647 181.509 400.63 181.321 400.604 181.137C403.623 180.589 406.57 179.531 409.31 177.959C409.409 178.113 409.519 178.263 409.647 178.402L413.487 182.596C414.682 183.901 416.716 183.991 418.021 182.796L422.215 178.956C423.52 177.761 423.61 175.727 422.414 174.422L418.574 170.228C418.446 170.088 418.307 169.966 418.162 169.854C420.02 167.19 421.354 164.26 422.159 161.211C422.341 161.251 422.527 161.282 422.72 161.29L428.402 161.513C429.281 161.547 430.092 161.223 430.694 160.672C431.304 160.114 431.7 159.322 431.734 158.432L431.958 152.75C432.027 150.982 430.645 149.487 428.877 149.418L423.195 149.195C423.004 149.187 422.816 149.202 422.63 149.227C422.082 146.209 421.024 143.263 419.452 140.523C419.606 140.425 419.756 140.315 419.895 140.187L424.089 136.347C425.394 135.152 425.484 133.118 424.288 131.813L420.448 127.619C419.251 126.315 417.218 126.226 415.913 127.421ZM405.839 165.287C399.71 170.899 390.158 170.479 384.545 164.35C378.933 158.221 379.353 148.669 385.482 143.056C391.611 137.444 401.163 137.864 406.776 143.993C412.388 150.123 411.968 159.675 405.839 165.287Z" stroke="black" stroke-miterlimit="10"/>
<path d="M84.387 347.756H82.177C81.769 347.756 81.438 347.425 81.438 347.017C81.438 346.609 81.769 346.278 82.177 346.278H84.387C84.795 346.278 85.126 346.609 85.126 347.017C85.126 347.425 84.795 347.756 84.387 347.756ZM77.253 347.756H72.328C71.92 347.756 71.589 347.425 71.589 347.017C71.589 346.609 71.92 346.278 72.328 346.278H77.253C77.661 346.278 77.992 346.609 77.992 347.017C77.992 347.425 77.661 347.756 77.253 347.756ZM67.403 347.756H62.478C62.07 347.756 61.739 347.425 61.739 347.017C61.739 346.609 62.07 346.278 62.478 346.278H67.403C67.811 346.278 68.142 346.609 68.142 347.017C68.142 347.425 67.811 347.756 67.403 347.756ZM57.553 347.756H52.628C52.22 347.756 51.889 347.425 51.889 347.017C51.889 346.609 52.22 346.278 52.628 346.278H57.553C57.961 346.278 58.292 346.609 58.292 347.017C58.292 347.425 57.961 347.756 57.553 347.756ZM47.703 347.756H42.778C42.37 347.756 42.039 347.425 42.039 347.017C42.039 346.609 42.37 346.278 42.778 346.278H47.703C48.111 346.278 48.442 346.609 48.442 347.017C48.442 347.425 48.111 347.756 47.703 347.756ZM37.853 347.756H32.928C32.52 347.756 32.189 347.425 32.189 347.017C32.189 346.609 32.52 346.278 32.928 346.278H37.853C38.261 346.278 38.592 346.609 38.592 347.017C38.592 347.425 38.261 347.756 37.853 347.756ZM28.003 347.749C27.996 347.749 27.99 347.749 27.983 347.748C26.266 347.7 24.57 347.42 22.942 346.914C22.552 346.793 22.335 346.379 22.456 345.989C22.577 345.6 22.987 345.382 23.38 345.503C24.88 345.969 26.442 346.227 28.024 346.272C28.431 346.283 28.753 346.623 28.742 347.031C28.731 347.431 28.403 347.749 28.003 347.749ZM18.717 344.862C18.579 344.862 18.44 344.823 18.316 344.743C16.884 343.814 15.581 342.692 14.446 341.407C14.177 341.101 14.206 340.634 14.511 340.364C14.815 340.094 15.282 340.122 15.554 340.428C16.6 341.612 17.799 342.646 19.12 343.502C19.462 343.724 19.56 344.182 19.337 344.524C19.196 344.743 18.96 344.862 18.717 344.862ZM12.28 337.57C12.005 337.57 11.741 337.417 11.613 337.153C10.869 335.609 10.339 333.973 10.039 332.291C9.96799 331.889 10.235 331.506 10.637 331.434C11.036 331.367 11.422 331.63 11.493 332.032C11.769 333.582 12.257 335.088 12.944 336.51C13.121 336.877 12.967 337.319 12.6 337.496C12.497 337.547 12.388 337.57 12.28 337.57ZM10.488 327.993C10.08 327.993 9.74899 327.662 9.74899 327.254V322.329C9.74899 321.921 10.08 321.59 10.488 321.59C10.896 321.59 11.227 321.921 11.227 322.329V327.254C11.227 327.662 10.896 327.993 10.488 327.993ZM10.488 318.143C10.08 318.143 9.74899 317.812 9.74899 317.404V312.479C9.74899 312.071 10.08 311.74 10.488 311.74C10.896 311.74 11.227 312.071 11.227 312.479V317.404C11.227 317.812 10.896 318.143 10.488 318.143ZM10.488 308.293C10.08 308.293 9.74899 307.962 9.74899 307.554V302.629C9.74899 302.221 10.08 301.89 10.488 301.89C10.896 301.89 11.227 302.221 11.227 302.629V307.554C11.227 307.962 10.896 308.293 10.488 308.293ZM10.488 298.443C10.08 298.443 9.74899 298.112 9.74899 297.704V292.779C9.74899 292.371 10.08 292.04 10.488 292.04C10.896 292.04 11.227 292.371 11.227 292.779V297.704C11.227 298.112 10.896 298.443 10.488 298.443ZM10.488 288.593C10.08 288.593 9.74899 288.262 9.74899 287.854V282.929C9.74899 282.521 10.08 282.19 10.488 282.19C10.896 282.19 11.227 282.521 11.227 282.929V287.854C11.227 288.262 10.896 288.593 10.488 288.593ZM10.488 278.743C10.08 278.743 9.74899 278.412 9.74899 278.004V273.079C9.74899 272.671 10.08 272.34 10.488 272.34C10.896 272.34 11.227 272.671 11.227 273.079V278.004C11.227 278.413 10.896 278.743 10.488 278.743ZM10.488 268.893C10.08 268.893 9.74899 268.562 9.74899 268.154V263.229C9.74899 262.821 10.08 262.49 10.488 262.49C10.896 262.49 11.227 262.821 11.227 263.229V268.154C11.227 268.563 10.896 268.893 10.488 268.893ZM10.488 259.044C10.08 259.044 9.74899 258.713 9.74899 258.305V253.38C9.74899 252.972 10.08 252.641 10.488 252.641C10.896 252.641 11.227 252.972 11.227 253.38V258.305C11.227 258.713 10.896 259.044 10.488 259.044ZM10.488 249.194C10.08 249.194 9.74899 248.863 9.74899 248.455V243.53C9.74899 243.122 10.08 242.791 10.488 242.791C10.896 242.791 11.227 243.122 11.227 243.53V248.455C11.227 248.863 10.896 249.194 10.488 249.194ZM10.488 239.344C10.08 239.344 9.74899 239.013 9.74899 238.605V233.68C9.74899 233.272 10.08 232.941 10.488 232.941C10.896 232.941 11.227 233.272 11.227 233.68V238.605C11.227 239.013 10.896 239.344 10.488 239.344ZM10.488 229.494C10.08 229.494 9.74899 229.163 9.74899 228.755V223.83C9.74899 223.422 10.08 223.091 10.488 223.091C10.896 223.091 11.227 223.422 11.227 223.83V228.755C11.227 229.163 10.896 229.494 10.488 229.494ZM10.488 219.644C10.08 219.644 9.74899 219.313 9.74899 218.905V213.98C9.74899 213.572 10.08 213.241 10.488 213.241C10.896 213.241 11.227 213.572 11.227 213.98V218.905C11.227 219.313 10.896 219.644 10.488 219.644ZM10.488 209.794C10.08 209.794 9.74899 209.463 9.74899 209.055V208.557C9.74899 207.014 9.93699 205.479 10.307 203.997C10.406 203.601 10.815 203.361 11.203 203.459C11.599 203.558 11.84 203.959 11.741 204.354C11.401 205.719 11.227 207.133 11.227 208.556V209.054C11.227 209.463 10.896 209.794 10.488 209.794ZM12.854 200.361C12.73 200.361 12.604 200.33 12.488 200.264C12.134 200.062 12.011 199.61 12.213 199.256C13.06 197.773 14.108 196.41 15.327 195.205C15.618 194.919 16.085 194.921 16.372 195.211C16.659 195.501 16.657 195.969 16.366 196.256C15.243 197.366 14.277 198.622 13.497 199.988C13.36 200.227 13.111 200.361 12.854 200.361ZM19.773 193.524C19.513 193.524 19.261 193.387 19.127 193.144C18.929 192.787 19.057 192.338 19.414 192.139C20.912 191.307 22.515 190.686 24.18 190.291C24.581 190.199 24.974 190.442 25.069 190.84C25.163 191.237 24.918 191.635 24.521 191.729C22.988 192.092 21.511 192.664 20.132 193.431C20.018 193.494 19.895 193.524 19.773 193.524ZM142.51 191.265H137.585C137.177 191.265 136.846 190.934 136.846 190.526C136.846 190.118 137.177 189.787 137.585 189.787H142.51C142.918 189.787 143.249 190.118 143.249 190.526C143.249 190.934 142.918 191.265 142.51 191.265ZM132.661 191.265H127.736C127.328 191.265 126.997 190.934 126.997 190.526C126.997 190.118 127.328 189.787 127.736 189.787H132.661C133.069 189.787 133.4 190.118 133.4 190.526C133.399 190.934 133.068 191.265 132.661 191.265ZM122.811 191.265H117.886C117.478 191.265 117.147 190.934 117.147 190.526C117.147 190.118 117.478 189.787 117.886 189.787H122.811C123.219 189.787 123.55 190.118 123.55 190.526C123.549 190.934 123.219 191.265 122.811 191.265ZM112.961 191.265H108.036C107.628 191.265 107.297 190.934 107.297 190.526C107.297 190.118 107.628 189.787 108.036 189.787H112.961C113.369 189.787 113.7 190.118 113.7 190.526C113.7 190.934 113.369 191.265 112.961 191.265ZM103.111 191.265H98.186C97.778 191.265 97.447 190.934 97.447 190.526C97.447 190.118 97.778 189.787 98.186 189.787H103.111C103.519 189.787 103.85 190.118 103.85 190.526C103.85 190.934 103.519 191.265 103.111 191.265ZM93.261 191.265H88.336C87.928 191.265 87.597 190.934 87.597 190.526C87.597 190.118 87.928 189.787 88.336 189.787H93.261C93.669 189.787 94 190.118 94 190.526C94 190.934 93.669 191.265 93.261 191.265ZM83.411 191.265H78.486C78.078 191.265 77.747 190.934 77.747 190.526C77.747 190.118 78.078 189.787 78.486 189.787H83.411C83.819 189.787 84.15 190.118 84.15 190.526C84.15 190.934 83.819 191.265 83.411 191.265ZM73.561 191.265H68.636C68.228 191.265 67.897 190.934 67.897 190.526C67.897 190.118 68.228 189.787 68.636 189.787H73.561C73.969 189.787 74.3 190.118 74.3 190.526C74.3 190.934 73.969 191.265 73.561 191.265ZM63.711 191.265H58.786C58.378 191.265 58.047 190.934 58.047 190.526C58.047 190.118 58.378 189.787 58.786 189.787H63.711C64.119 189.787 64.45 190.118 64.45 190.526C64.45 190.934 64.119 191.265 63.711 191.265ZM53.861 191.265H48.936C48.528 191.265 48.197 190.934 48.197 190.526C48.197 190.118 48.528 189.787 48.936 189.787H53.861C54.269 189.787 54.6 190.118 54.6 190.526C54.6 190.934 54.269 191.265 53.861 191.265ZM44.011 191.265H39.086C38.678 191.265 38.347 190.934 38.347 190.526C38.347 190.118 38.678 189.787 39.086 189.787H44.011C44.419 189.787 44.75 190.118 44.75 190.526C44.75 190.934 44.419 191.265 44.011 191.265ZM34.161 191.265H29.236C28.828 191.265 28.497 190.934 28.497 190.526C28.497 190.118 28.828 189.787 29.236 189.787H34.161C34.569 189.787 34.9 190.118 34.9 190.526C34.9 190.934 34.569 191.265 34.161 191.265Z" fill="#FF9E22"/>
<path d="M10.488 272.209C12.2658 272.209 13.707 270.768 13.707 268.99C13.707 267.212 12.2658 265.771 10.488 265.771C8.71019 265.771 7.269 267.212 7.269 268.99C7.269 270.768 8.71019 272.209 10.488 272.209Z" fill="#FF9E22"/>
<path d="M10.488 275.024C7.162 275.024 4.455 272.318 4.455 268.991C4.455 265.664 7.162 262.958 10.488 262.958C13.814 262.958 16.521 265.664 16.521 268.991C16.521 272.317 13.814 275.024 10.488 275.024ZM10.488 263.696C7.569 263.696 5.194 266.071 5.194 268.99C5.194 271.909 7.569 274.284 10.488 274.284C13.407 274.284 15.782 271.909 15.782 268.99C15.782 266.071 13.408 263.696 10.488 263.696Z" fill="#FF9E22"/>
<path d="M176.296 168.753C175.8 168.753 175.397 168.35 175.397 167.854V161.862C175.397 161.366 175.8 160.963 176.296 160.963C176.792 160.963 177.195 161.366 177.195 161.862V167.854C177.195 168.35 176.792 168.753 176.296 168.753ZM176.296 156.769C175.8 156.769 175.397 156.366 175.397 155.87V149.878C175.397 149.382 175.8 148.979 176.296 148.979C176.792 148.979 177.195 149.382 177.195 149.878V155.87C177.195 156.366 176.792 156.769 176.296 156.769ZM176.296 144.784C175.8 144.784 175.397 144.381 175.397 143.885V137.893C175.397 137.397 175.8 136.994 176.296 136.994C176.792 136.994 177.195 137.397 177.195 137.893V143.885C177.195 144.382 176.792 144.784 176.296 144.784ZM176.296 132.8C175.8 132.8 175.397 132.397 175.397 131.901V125.909C175.397 125.413 175.8 125.01 176.296 125.01C176.792 125.01 177.195 125.413 177.195 125.909V131.901C177.195 132.398 176.792 132.8 176.296 132.8ZM176.296 120.816C175.8 120.816 175.397 120.413 175.397 119.917V113.925C175.397 113.429 175.8 113.026 176.296 113.026C176.792 113.026 177.195 113.429 177.195 113.925V119.917C177.195 120.413 176.792 120.816 176.296 120.816ZM176.296 108.832C175.8 108.832 175.397 108.429 175.397 107.933V101.941C175.397 101.445 175.8 101.042 176.296 101.042C176.792 101.042 177.195 101.445 177.195 101.941V107.933C177.195 108.429 176.792 108.832 176.296 108.832ZM271.458 98.037C270.962 98.037 270.559 97.634 270.559 97.138V93.812C270.559 93.316 270.962 92.913 271.458 92.913C271.954 92.913 272.357 93.316 272.357 93.812V97.138C272.357 97.634 271.954 98.037 271.458 98.037ZM176.296 96.848C175.8 96.848 175.397 96.446 175.397 95.949V89.957C175.397 89.461 175.8 89.058 176.296 89.058C176.792 89.058 177.195 89.461 177.195 89.957V95.949C177.195 96.445 176.792 96.848 176.296 96.848ZM271.458 88.719C270.962 88.719 270.559 88.317 270.559 87.82V81.828C270.559 81.332 270.962 80.929 271.458 80.929C271.954 80.929 272.357 81.332 272.357 81.828V87.82C272.357 88.316 271.954 88.719 271.458 88.719ZM176.296 84.864C175.8 84.864 175.397 84.461 175.397 83.965V77.973C175.397 77.477 175.8 77.074 176.296 77.074C176.792 77.074 177.195 77.477 177.195 77.973V83.965C177.195 84.461 176.792 84.864 176.296 84.864ZM271.458 76.734C270.962 76.734 270.559 76.331 270.559 75.835V69.843C270.559 69.347 270.962 68.944 271.458 68.944C271.954 68.944 272.357 69.347 272.357 69.843V75.835C272.357 76.332 271.954 76.734 271.458 76.734ZM176.296 72.879C175.8 72.879 175.397 72.476 175.397 71.98V65.988C175.397 65.492 175.8 65.089 176.296 65.089C176.792 65.089 177.195 65.492 177.195 65.988V71.98C177.195 72.477 176.792 72.879 176.296 72.879ZM271.458 64.75C270.962 64.75 270.559 64.347 270.559 63.851V57.859C270.559 57.363 270.962 56.96 271.458 56.96C271.954 56.96 272.357 57.363 272.357 57.859V63.851C272.357 64.348 271.954 64.75 271.458 64.75ZM176.296 60.895C175.8 60.895 175.397 60.492 175.397 59.996V54.004C175.397 53.508 175.8 53.105 176.296 53.105C176.792 53.105 177.195 53.508 177.195 54.004V59.996C177.195 60.493 176.792 60.895 176.296 60.895ZM271.458 52.766C270.962 52.766 270.559 52.363 270.559 51.867V45.875C270.559 45.379 270.962 44.976 271.458 44.976C271.954 44.976 272.357 45.379 272.357 45.875V51.867C272.357 52.364 271.954 52.766 271.458 52.766ZM176.296 48.911C175.8 48.911 175.397 48.508 175.397 48.012V42.02C175.397 41.524 175.8 41.121 176.296 41.121C176.792 41.121 177.195 41.524 177.195 42.02V48.012C177.195 48.508 176.792 48.911 176.296 48.911ZM271.458 40.782C270.962 40.782 270.559 40.379 270.559 39.883V33.891C270.559 33.395 270.962 32.992 271.458 32.992C271.954 32.992 272.357 33.395 272.357 33.891V39.883C272.357 40.379 271.954 40.782 271.458 40.782ZM176.296 36.927C175.8 36.927 175.397 36.524 175.397 36.028V30.036C175.397 29.54 175.8 29.137 176.296 29.137C176.792 29.137 177.195 29.54 177.195 30.036V36.028C177.195 36.524 176.792 36.927 176.296 36.927ZM271.419 28.799C270.946 28.799 270.55 28.429 270.523 27.951C270.414 26.03 270.044 24.14 269.424 22.331C269.264 21.862 269.514 21.35 269.983 21.189C270.448 21.029 270.965 21.278 271.124 21.748C271.798 23.712 272.2 25.765 272.318 27.849C272.346 28.345 271.967 28.769 271.472 28.798C271.454 28.798 271.437 28.799 271.419 28.799ZM176.887 24.99C176.818 24.99 176.749 24.982 176.679 24.966C176.196 24.851 175.897 24.367 176.012 23.884C176.492 21.856 177.249 19.905 178.261 18.085C178.501 17.651 179.05 17.495 179.483 17.737C179.917 17.978 180.073 18.526 179.832 18.96C178.899 20.635 178.203 22.432 177.761 24.299C177.663 24.712 177.294 24.99 176.887 24.99ZM267.586 17.61C267.3 17.61 267.02 17.475 266.845 17.223C265.753 15.643 264.453 14.22 262.979 12.993C262.599 12.675 262.546 12.108 262.864 11.727C263.182 11.344 263.748 11.295 264.13 11.612C265.728 12.943 267.138 14.487 268.323 16.2C268.605 16.609 268.503 17.168 268.095 17.451C267.941 17.559 267.762 17.61 267.586 17.61ZM182.629 14.643C182.401 14.643 182.173 14.556 181.997 14.383C181.644 14.034 181.641 13.465 181.99 13.112C183.456 11.629 185.114 10.354 186.917 9.32299C187.346 9.07699 187.897 9.22699 188.144 9.65799C188.39 10.089 188.24 10.638 187.809 10.885C186.147 11.834 184.62 13.009 183.268 14.377C183.092 14.554 182.86 14.643 182.629 14.643ZM258.492 10.035C258.369 10.035 258.244 10.01 258.125 9.95699C256.374 9.17199 254.524 8.63199 252.627 8.35099C252.135 8.27899 251.796 7.82099 251.869 7.32999C251.942 6.83899 252.394 6.48899 252.89 6.57299C254.951 6.87699 256.959 7.46399 258.861 8.31599C259.314 8.51899 259.516 9.05099 259.314 9.50399C259.163 9.83699 258.835 10.035 258.492 10.035ZM192.902 8.77599C192.499 8.77599 192.133 8.50299 192.031 8.09499C191.911 7.61299 192.203 7.12499 192.685 7.00499C194.488 6.55499 196.355 6.32599 198.233 6.32599H198.839C199.335 6.32599 199.738 6.72899 199.738 7.22499C199.738 7.72099 199.335 8.12399 198.839 8.12399H198.233C196.502 8.12399 194.782 8.33399 193.12 8.74899C193.048 8.76699 192.974 8.77599 192.902 8.77599ZM246.777 8.12399H240.785C240.289 8.12399 239.886 7.72099 239.886 7.22499C239.886 6.72899 240.289 6.32599 240.785 6.32599H246.777C247.273 6.32599 247.676 6.72899 247.676 7.22499C247.676 7.72099 247.273 8.12399 246.777 8.12399ZM234.793 8.12399H228.801C228.305 8.12399 227.902 7.72099 227.902 7.22499C227.902 6.72899 228.305 6.32599 228.801 6.32599H234.793C235.289 6.32599 235.692 6.72899 235.692 7.22499C235.691 7.72099 235.289 8.12399 234.793 8.12399ZM222.808 8.12399H216.816C216.32 8.12399 215.917 7.72099 215.917 7.22499C215.917 6.72899 216.32 6.32599 216.816 6.32599H222.808C223.304 6.32599 223.707 6.72899 223.707 7.22499C223.707 7.72099 223.305 8.12399 222.808 8.12399ZM210.824 8.12399H204.832C204.336 8.12399 203.933 7.72099 203.933 7.22499C203.933 6.72899 204.336 6.32599 204.832 6.32599H210.824C211.32 6.32599 211.723 6.72899 211.723 7.22499C211.723 7.72099 211.321 8.12399 210.824 8.12399Z" fill="#FF9E22"/>
<path d="M223.877 10.602C225.742 10.602 227.254 9.09006 227.254 7.22499C227.254 5.35993 225.742 3.84799 223.877 3.84799C222.012 3.84799 220.5 5.35993 220.5 7.22499C220.5 9.09006 222.012 10.602 223.877 10.602Z" fill="#FF9E22"/>
<path d="M223.877 13.554C220.387 13.554 217.548 10.715 217.548 7.22499C217.548 3.73499 220.388 0.895996 223.877 0.895996C227.367 0.895996 230.206 3.73499 230.206 7.22499C230.206 10.715 227.367 13.554 223.877 13.554ZM223.877 1.67099C220.814 1.67099 218.323 4.16299 218.323 7.22499C218.323 10.288 220.815 12.779 223.877 12.779C226.94 12.779 229.431 10.287 229.431 7.22499C229.431 4.16299 226.94 1.67099 223.877 1.67099Z" fill="#FF9E22"/>
<path d="M227.912 55.914H169.958V65.822H227.912V55.914Z" fill="#C1C1C1"/>
<path d="M274.733 52.185H233.306C230.291 52.185 227.431 53.197 225.493 54.95L214.239 63.371H169.904C168.051 63.371 166.548 64.874 166.548 66.727V128.09C166.548 129.943 168.051 131.446 169.904 131.446H277.929C279.782 131.446 281.285 129.944 281.285 128.09V68.804V66.727V59.643C281.285 55.701 278.352 52.185 274.733 52.185Z" fill="#FFC655"/>
<path d="M103.516 237.616L97.372 243.572C97.168 243.77 96.989 243.985 96.827 244.208C92.74 241.528 88.277 239.647 83.658 238.567C83.71 238.289 83.747 238.007 83.75 237.719L83.842 229.162C83.87 226.5 81.728 224.31 79.065 224.282L70.508 224.19C67.847 224.162 65.656 226.304 65.628 228.967L65.536 237.524C65.533 237.812 65.564 238.094 65.609 238.372C61.092 239.326 56.706 241.043 52.652 243.525C52.497 243.297 52.325 243.077 52.127 242.873L46.171 236.729C44.317 234.817 41.254 234.769 39.342 236.623L33.198 242.579C31.286 244.433 31.239 247.496 33.092 249.408L39.048 255.552C39.246 255.756 39.461 255.935 39.683 256.097C37.003 260.184 35.122 264.647 34.042 269.266C33.765 269.214 33.483 269.177 33.194 269.174L24.637 269.082C23.355 269.068 22.144 269.551 21.224 270.443C21.218 270.448 21.213 270.454 21.208 270.46C20.286 271.362 19.771 272.57 19.757 273.859L19.665 282.416C19.637 285.078 21.779 287.268 24.442 287.296L32.999 287.388C33.289 287.391 33.569 287.358 33.846 287.312C34.8 291.83 36.517 296.217 39 300.271C38.772 300.426 38.552 300.598 38.348 300.796L32.204 306.752C30.292 308.606 30.245 311.669 32.098 313.58L38.054 319.724C39.908 321.636 42.971 321.683 44.883 319.83L51.027 313.874C51.231 313.676 51.41 313.461 51.572 313.239C55.66 315.919 60.124 317.8 64.744 318.88C64.692 319.156 64.652 319.437 64.649 319.727L64.557 328.284C64.543 329.574 65.032 330.792 65.935 331.714C66.837 332.636 68.045 333.151 69.334 333.165L77.891 333.257C79.214 333.271 80.42 332.749 81.302 331.894C82.195 331.028 82.757 329.82 82.771 328.481L82.863 319.924C82.866 319.634 82.833 319.354 82.787 319.077C87.305 318.123 91.692 316.406 95.747 313.923C95.902 314.151 96.074 314.371 96.272 314.575L102.228 320.719C104.082 322.631 107.145 322.678 109.057 320.825L115.201 314.869C117.113 313.015 117.16 309.952 115.307 308.04L109.351 301.896C109.153 301.692 108.938 301.513 108.715 301.351C111.395 297.263 113.276 292.8 114.356 288.179C114.632 288.231 114.913 288.271 115.203 288.274L123.76 288.366C125.083 288.38 126.289 287.858 127.172 287.003C128.065 286.137 128.627 284.929 128.641 283.59L128.734 275.033C128.762 272.37 126.619 270.181 123.957 270.152L115.4 270.06C115.112 270.057 114.83 270.087 114.552 270.133C113.598 265.616 111.881 261.23 109.399 257.176C109.627 257.021 109.847 256.849 110.051 256.651L116.195 250.695C118.107 248.841 118.154 245.778 116.301 243.867L110.345 237.723C108.49 235.81 105.427 235.762 103.516 237.616ZM89.986 295.006C81.007 303.711 66.621 303.488 57.916 294.51C49.211 285.531 49.434 271.145 58.413 262.44C67.392 253.735 81.778 253.958 90.483 262.937C99.187 271.915 98.964 286.301 89.986 295.006Z" stroke="black" stroke-miterlimit="10"/>
<path d="M266.483 307.757H174.512V351.845H266.483V307.757Z" fill="#F9900A"/>
<path d="M373.278 99.604V300.446C373.278 306.897 368.049 312.126 361.589 312.126H79.405C72.954 312.126 67.716 306.897 67.716 300.446V99.604C67.716 93.153 72.954 87.915 79.405 87.915H361.589C368.049 87.915 373.278 93.153 373.278 99.604Z" fill="#FF9E22"/>
<path opacity="0.5" d="M226 298C226 301.314 223.314 304 220 304C216.686 304 214 301.314 214 298C214 294.686 216.686 292 220 292C223.314 292 226 294.686 226 298Z" fill="white"/>
<path d="M369.608 284.765V101.854C369.608 96.31 365.268 91.816 359.915 91.816H81.08C75.727 91.816 71.387 96.31 71.387 101.854V284.765H369.608Z" fill="#FFEDD7"/>
<path d="M284.579 356.595H156.416V356.288C156.416 351.21 160.533 347.094 165.61 347.094H275.384C280.462 347.094 284.578 351.21 284.578 356.288V356.595H284.579Z" fill="#FF9E22"/>
<path d="M95.432 89.939C95.432 81.086 88.758 73.801 80.169 72.817C80.235 72.238 80.277 71.652 80.277 71.056C80.277 62.568 73.396 55.688 64.909 55.688C62.635 55.688 60.484 56.195 58.542 57.081C54.45 50.702 47.302 46.472 39.16 46.472C26.448 46.472 16.143 56.777 16.143 69.489C16.143 70.608 16.227 71.708 16.382 72.784C7.683 73.664 0.893997 81.009 0.893997 89.94C0.893997 99.464 8.615 107.185 18.139 107.185H79.042V107.142C88.166 106.692 95.432 99.174 95.432 89.939Z" fill="#060606"/>
<path d="M59.208 120.343V93.549H37.118V120.343H30.213L48.163 137.16L66.114 120.343H59.208Z" fill="#FFC655"/>
<path d="M303.235 102.609H248.998C243.983 102.609 239.917 98.543 239.917 93.528V75.49C239.917 70.475 243.983 66.409 248.998 66.409H303.235C308.25 66.409 312.316 70.475 312.316 75.49V93.527C312.316 98.543 308.25 102.609 303.235 102.609Z" fill="#FFB872"/>
<path d="M100.776 363.104H46.54C41.525 363.104 37.459 359.038 37.459 354.023V335.986C37.459 330.971 41.525 326.905 46.54 326.905H100.777C105.792 326.905 109.858 330.971 109.858 335.986V354.023C109.858 359.038 105.792 363.104 100.776 363.104Z" fill="#FFB872"/>
<path d="M126.857 209.965H72.62C67.605 209.965 63.539 205.899 63.539 200.884V182.847C63.539 177.832 67.605 173.766 72.62 173.766H126.857C131.872 173.766 135.938 177.832 135.938 182.847V200.884C135.938 205.899 131.872 209.965 126.857 209.965Z" fill="#FFB872"/>
<path d="M317.967 325.867H315.384C314.956 325.867 314.609 325.52 314.609 325.092C314.609 324.664 314.956 324.317 315.384 324.317H317.967C318.395 324.317 318.742 324.664 318.742 325.092C318.742 325.52 318.395 325.867 317.967 325.867Z" fill="#FF9E22"/>
<path d="M379.98 325.867H374.812C374.384 325.867 374.037 325.52 374.037 325.092C374.037 324.664 374.384 324.317 374.812 324.317H379.98C380.408 324.317 380.755 324.664 380.755 325.092C380.755 325.52 380.408 325.867 379.98 325.867ZM369.644 325.867H364.477C364.049 325.867 363.702 325.52 363.702 325.092C363.702 324.664 364.049 324.317 364.477 324.317H369.644C370.072 324.317 370.419 324.664 370.419 325.092C370.419 325.52 370.072 325.867 369.644 325.867ZM359.309 325.867H354.141C353.713 325.867 353.366 325.52 353.366 325.092C353.366 324.664 353.713 324.317 354.141 324.317H359.309C359.737 324.317 360.084 324.664 360.084 325.092C360.084 325.52 359.737 325.867 359.309 325.867ZM348.973 325.867H343.805C343.377 325.867 343.03 325.52 343.03 325.092C343.03 324.664 343.377 324.317 343.805 324.317H348.973C349.401 324.317 349.748 324.664 349.748 325.092C349.749 325.52 349.401 325.867 348.973 325.867ZM338.638 325.867H333.471C333.043 325.867 332.696 325.52 332.696 325.092C332.696 324.664 333.043 324.317 333.471 324.317H338.638C339.066 324.317 339.413 324.664 339.413 325.092C339.413 325.52 339.066 325.867 338.638 325.867ZM328.303 325.867H323.135C322.707 325.867 322.36 325.52 322.36 325.092C322.36 324.664 322.707 324.317 323.135 324.317H328.303C328.731 324.317 329.078 324.664 329.078 325.092C329.078 325.52 328.731 325.867 328.303 325.867ZM385.097 325.266C384.748 325.266 384.431 325.028 384.345 324.673C384.244 324.257 384.499 323.838 384.915 323.737C386.529 323.346 388.094 322.759 389.565 321.991C389.945 321.793 390.413 321.94 390.61 322.32C390.808 322.699 390.661 323.167 390.281 323.365C388.698 324.191 387.015 324.823 385.28 325.243C385.219 325.259 385.158 325.266 385.097 325.266ZM394.175 320.54C393.96 320.54 393.746 320.451 393.593 320.277C393.31 319.956 393.342 319.466 393.664 319.183C394.912 318.086 396.027 316.84 396.978 315.48C397.222 315.129 397.705 315.043 398.057 315.289C398.408 315.534 398.493 316.018 398.248 316.368C397.227 317.829 396.029 319.168 394.688 320.347C394.54 320.476 394.357 320.54 394.175 320.54ZM400.034 312.152C399.941 312.152 399.846 312.135 399.755 312.1C399.356 311.946 399.157 311.497 399.312 311.098C399.91 309.55 400.318 307.93 400.525 306.283C400.578 305.858 400.952 305.556 401.391 305.611C401.816 305.664 402.117 306.052 402.063 306.477C401.84 308.249 401.401 309.991 400.757 311.657C400.639 311.964 400.345 312.152 400.034 312.152ZM401.464 301.996C401.036 301.996 400.689 301.649 400.689 301.221V296.053C400.689 295.625 401.036 295.278 401.464 295.278C401.892 295.278 402.239 295.625 402.239 296.053V301.221C402.24 301.649 401.892 301.996 401.464 301.996ZM401.464 291.66C401.036 291.66 400.689 291.313 400.689 290.885V285.718C400.689 285.29 401.036 284.943 401.464 284.943C401.892 284.943 402.239 285.29 402.239 285.718V290.885C402.24 291.313 401.892 291.66 401.464 291.66ZM401.464 281.325C401.036 281.325 400.689 280.978 400.689 280.55V275.383C400.689 274.955 401.036 274.608 401.464 274.608C401.892 274.608 402.239 274.955 402.239 275.383V280.55C402.24 280.978 401.892 281.325 401.464 281.325ZM401.464 270.99C401.036 270.99 400.689 270.643 400.689 270.215V265.047C400.689 264.619 401.036 264.272 401.464 264.272C401.892 264.272 402.239 264.619 402.239 265.047V270.215C402.24 270.642 401.892 270.99 401.464 270.99ZM401.464 260.655C401.036 260.655 400.689 260.308 400.689 259.88V254.712C400.689 254.284 401.036 253.937 401.464 253.937C401.892 253.937 402.239 254.284 402.239 254.712V259.88C402.24 260.307 401.892 260.655 401.464 260.655ZM401.464 250.319C401.036 250.319 400.689 249.972 400.689 249.544V244.377C400.689 243.949 401.036 243.602 401.464 243.602C401.892 243.602 402.239 243.949 402.239 244.377V249.544C402.24 249.972 401.892 250.319 401.464 250.319ZM401.464 239.983C401.036 239.983 400.689 239.636 400.689 239.208V234.04C400.689 233.612 401.036 233.265 401.464 233.265C401.892 233.265 402.239 233.612 402.239 234.04V239.208C402.24 239.636 401.892 239.983 401.464 239.983Z" fill="#FF9E22"/>
<path d="M401.464 229.625C401.036 229.625 400.689 229.278 400.689 228.85V227.042H400.039C399.611 227.042 399.264 226.695 399.264 226.267C399.264 225.839 399.611 225.492 400.039 225.492H401.464C401.892 225.492 402.239 225.839 402.239 226.267V228.85C402.24 229.278 401.892 229.625 401.464 229.625Z" fill="#FF9E22"/>
<path d="M377.411 147.995H309.606C305.53 147.995 302.226 151.299 302.226 155.375V296.284C302.226 300.36 305.53 303.664 309.606 303.664H377.411C381.487 303.664 384.791 300.36 384.791 296.284V155.375C384.791 151.299 381.487 147.995 377.411 147.995Z" fill="#060606"/>
<path d="M358.67 156.115H321.373C320.726 156.115 320.201 155.59 320.201 154.943V154.792C320.201 154.145 320.726 153.62 321.373 153.62H358.67C359.317 153.62 359.842 154.145 359.842 154.792V154.943C359.842 155.59 359.317 156.115 358.67 156.115Z" fill="black"/>
<path d="M366.816 154.867C366.816 155.556 366.257 156.115 365.568 156.115C364.879 156.115 364.32 155.556 364.32 154.867C364.32 154.178 364.879 153.619 365.568 153.619C366.257 153.619 366.816 154.178 366.816 154.867Z" fill="black"/>
<path d="M380.246 162.131H306.771V207.28H380.246V162.131Z" fill="white"/>
<path d="M357.448 180.997L352.061 187.441L338.122 170.766L314.816 198.645H342.695H361.426H372.201L357.448 180.997Z" fill="#FFC655"/>
<path d="M341.46 267.083H306.771V287.429H341.46V267.083Z" fill="white"/>
<path d="M330.697 274.99L328.153 278.032L321.572 270.159L310.569 283.322H323.731H332.575H337.662L330.697 274.99Z" fill="#FFC655"/>
<path d="M341.46 218.893H306.771V220.842H341.46V218.893Z" fill="white"/>
<path d="M341.46 214.809H306.771V216.758H341.46V214.809Z" fill="white"/>
<path d="M328.705 222.883H306.771V224.832H328.705V222.883Z" fill="white"/>
<path d="M341.459 222.883H330.264V224.832H341.459V222.883Z" fill="white"/>
<path d="M337.461 226.868H306.771V228.817H337.461V226.868Z" fill="white"/>
<path d="M317.43 230.962H306.771V232.911H317.43V230.962Z" fill="white"/>
<path d="M326.946 230.962H319.269V232.911H326.946V230.962Z" fill="white"/>
<path d="M380.246 246.188H345.557V248.137H380.246V246.188Z" fill="white"/>
<path d="M380.246 242.103H345.557V244.052H380.246V242.103Z" fill="#060606"/>
<path d="M367.491 250.177H345.557V252.126H367.491V250.177Z" fill="white"/>
<path d="M380.245 250.177H369.05V252.126H380.245V250.177Z" fill="white"/>
<path d="M376.247 254.162H345.557V256.111H376.247V254.162Z" fill="white"/>
<path d="M356.216 258.256H345.557V260.205H356.216V258.256Z" fill="white"/>
<path d="M365.732 258.256H358.055V260.205H365.732V258.256Z" fill="white"/>
<path d="M380.246 218.893H345.557V220.842H380.246V218.893Z" fill="white"/>
<path d="M380.246 214.809H345.557V216.758H380.246V214.809Z" fill="white"/>
<path d="M367.491 222.883H345.557V224.832H367.491V222.883Z" fill="white"/>
<path d="M380.245 222.883H369.05V224.832H380.245V222.883Z" fill="white"/>
<path d="M380.246 226.868H345.557V228.817H380.246V226.868Z" fill="white"/>
<path d="M356.216 230.962H345.557V232.911H356.216V230.962Z" fill="white"/>
<path d="M380.246 230.962H358.055V232.911H380.246V230.962Z" fill="white"/>
<path d="M341.46 246.188H306.771V248.137H341.46V246.188Z" fill="white"/>
<path d="M341.46 242.103H306.771V244.052H341.46V242.103Z" fill="white"/>
<path d="M341.46 250.177H306.771V252.126H341.46V250.177Z" fill="white"/>
<path d="M341.46 254.162H306.771V256.111H341.46V254.162Z" fill="white"/>
<path d="M341.46 258.256H306.771V260.205H341.46V258.256Z" fill="white"/>
<path d="M380.246 271.833H345.557V273.782H380.246V271.833Z" fill="white"/>
<path d="M380.246 267.749H345.557V269.698H380.246V267.749Z" fill="white"/>
<path d="M380.245 275.822H358.311V277.771H380.245V275.822Z" fill="white"/>
<path d="M356.752 275.822H345.557V277.771H356.752V275.822Z" fill="white"/>
<path d="M372.193 279.807H345.557V281.756H372.193V279.807Z" fill="white"/>
<path d="M380.245 279.807H374.043V281.756H380.245V279.807Z" fill="white"/>
<path d="M380.246 283.901H354.658V285.85H380.246V283.901Z" fill="#060606"/>
<path d="M353.234 283.901H345.557V285.85H353.234V283.901Z" fill="white"/>
<path d="M318.653 339.864H264.416C259.401 339.864 255.335 335.798 255.335 330.783V312.746C255.335 307.731 259.401 303.665 264.416 303.665H318.653C323.668 303.665 327.734 307.731 327.734 312.746V330.783C327.734 335.798 323.668 339.864 318.653 339.864Z" fill="#FFB872"/>
<path d="M404.258 279.825C404.258 281.69 402.746 283.202 400.881 283.202C399.016 283.202 397.504 281.69 397.504 279.825C397.504 277.96 399.016 276.448 400.881 276.448C402.746 276.448 404.258 277.96 404.258 279.825Z" fill="#FF9E22"/>
<path d="M400.88 286.154C397.39 286.154 394.551 283.315 394.551 279.825C394.551 276.335 397.391 273.496 400.88 273.496C404.37 273.496 407.209 276.335 407.209 279.825C407.21 283.315 404.37 286.154 400.88 286.154ZM400.88 274.27C397.817 274.27 395.326 276.762 395.326 279.824C395.326 282.886 397.818 285.378 400.88 285.378C403.943 285.378 406.434 282.886 406.434 279.824C406.434 276.762 403.943 274.27 400.88 274.27Z" fill="#FF9E22"/>
<path d="M430.024 230.274H375.787C370.772 230.274 366.706 226.208 366.706 221.193V203.156C366.706 198.141 370.772 194.075 375.787 194.075H430.024C435.039 194.075 439.105 198.141 439.105 203.156V221.193C439.105 226.208 435.039 230.274 430.024 230.274Z" fill="#FFB872"/>
<path d="M235.307 236.901H212.526V238.968H235.307V236.901Z" fill="black"/>
<path d="M293.908 236.901H241.151V238.968H293.908V236.901Z" fill="black"/>
<path d="M266.869 254.686C257.813 254.686 248.737 254.675 239.703 254.653L239.707 252.586C257.773 252.629 276.007 252.629 293.905 252.586L293.91 254.653C284.96 254.675 275.925 254.686 266.869 254.686Z" fill="black"/>
<path d="M293.908 244.744H231.403V246.811H293.908V244.744Z" fill="black"/>
<path d="M293.909 260.462H228.003V262.529H293.909V260.462Z" fill="black"/>
<path d="M293.909 268.305H218.862V270.372H293.909V268.305Z" fill="black"/>
<path d="M124.688 118.717H89.403V120.784H124.688V118.717Z" fill="#060606"/>
<path d="M206.697 118.717H170.285V120.784H206.697V118.717Z" fill="#060606"/>
<path d="M206.697 126.56H181.439V128.627H206.697V126.56Z" fill="#FFC655"/>
<path d="M206.697 142.279H171.049V144.346H206.697V142.279Z" fill="#FFC655"/>
<path d="M206.697 150.121H164.067V152.188H206.697V150.121Z" fill="#FFC655"/>
<path d="M206.697 159.291H151.862V161.358H206.697V159.291Z" fill="#FFC655"/>
<path d="M165.692 118.717H130.407V120.784H165.692V118.717Z" fill="#FFC655"/>
<path d="M178.212 136.502C172.822 136.502 167.413 136.494 156.595 136.479L149.562 136.469L149.564 134.402L156.598 134.412C178.23 134.442 178.232 134.442 199.711 134.412L206.697 134.402V136.469L199.714 136.479C188.973 136.495 183.602 136.502 178.212 136.502Z" fill="#FFC655"/>
<path d="M116.442 136.502C107.386 136.502 98.351 136.491 89.401 136.47L89.405 134.403C107.303 134.446 125.539 134.446 143.605 134.403L143.609 136.47C134.574 136.492 125.497 136.502 116.442 136.502Z" fill="#060606"/>
<path d="M176.428 126.56H89.403V128.627H176.428V126.56Z" fill="#060606"/>
<path d="M147.031 159.291H89.403V161.358H147.031V159.291Z" fill="#060606"/>
<path d="M166.549 142.279H89.403V144.346H166.549V142.279Z" fill="#060606"/>
<path d="M159.32 150.121H89.403V152.188H159.32V150.121Z" fill="#060606"/>
<path d="M82.017 121.176C82.804 121.176 83.442 120.538 83.442 119.751C83.442 118.964 82.804 118.326 82.017 118.326C81.23 118.326 80.592 118.964 80.592 119.751C80.592 120.538 81.23 121.176 82.017 121.176Z" fill="#FF9E22"/>
<path d="M83.442 127.594C83.442 128.381 82.804 129.019 82.017 129.019C81.23 129.019 80.592 128.381 80.592 127.594C80.592 126.807 81.23 126.169 82.017 126.169C82.804 126.168 83.442 126.806 83.442 127.594Z" fill="#FF9E22"/>
<path d="M82.017 136.861C82.804 136.861 83.442 136.223 83.442 135.436C83.442 134.649 82.804 134.011 82.017 134.011C81.23 134.011 80.592 134.649 80.592 135.436C80.592 136.223 81.23 136.861 82.017 136.861Z" fill="#FF9E22"/>
<path d="M83.442 143.279C83.442 144.066 82.804 144.704 82.017 144.704C81.23 144.704 80.592 144.066 80.592 143.279C80.592 142.492 81.23 141.854 82.017 141.854C82.804 141.854 83.442 142.492 83.442 143.279Z" fill="#FF9E22"/>
<path d="M82.017 152.58C82.804 152.58 83.442 151.942 83.442 151.155C83.442 150.368 82.804 149.73 82.017 149.73C81.23 149.73 80.592 150.368 80.592 151.155C80.592 151.942 81.23 152.58 82.017 152.58Z" fill="#FF9E22"/>
<path d="M83.442 160.324C83.442 161.111 82.804 161.749 82.017 161.749C81.23 161.749 80.592 161.111 80.592 160.324C80.592 159.537 81.23 158.899 82.017 158.899C82.804 158.899 83.442 159.537 83.442 160.324Z" fill="#FF9E22"/>
<path d="M216.103 164.997C215.817 164.997 215.586 164.766 215.586 164.48V118.59C215.586 118.304 215.817 118.073 216.103 118.073C216.389 118.073 216.62 118.304 216.62 118.59V164.481C216.619 164.766 216.388 164.997 216.103 164.997Z" fill="#FF9E22"/>
<path d="M128.137 263.986H124.96C124.667 263.986 124.431 263.749 124.431 263.457C124.431 263.164 124.668 262.928 124.96 262.928H128.137C128.43 262.928 128.666 263.165 128.666 263.457C128.667 263.749 128.43 263.986 128.137 263.986ZM121.784 263.986H118.608C118.315 263.986 118.079 263.749 118.079 263.457C118.079 263.164 118.316 262.928 118.608 262.928H121.784C122.077 262.928 122.313 263.165 122.313 263.457C122.314 263.749 122.077 263.986 121.784 263.986ZM115.431 263.986H114.145C113.422 263.986 112.707 263.801 112.078 263.452C111.821 263.31 111.73 262.988 111.871 262.732C112.014 262.475 112.339 262.385 112.591 262.526C113.064 262.788 113.601 262.927 114.145 262.927H115.431C115.724 262.927 115.96 263.164 115.96 263.456C115.961 263.749 115.724 263.986 115.431 263.986ZM110.493 261.048C110.25 261.048 110.031 260.879 109.977 260.631C109.912 260.332 109.879 260.025 109.879 259.72V257.349C109.879 257.056 110.116 256.82 110.408 256.82C110.7 256.82 110.937 257.057 110.937 257.349V259.72C110.937 259.949 110.962 260.181 111.011 260.407C111.073 260.693 110.892 260.975 110.607 261.037C110.568 261.044 110.53 261.048 110.493 261.048ZM110.408 254.702C110.115 254.702 109.879 254.465 109.879 254.173V250.996C109.879 250.703 110.116 250.467 110.408 250.467C110.7 250.467 110.937 250.704 110.937 250.996V254.173C110.937 254.465 110.701 254.702 110.408 254.702ZM110.408 248.349C110.115 248.349 109.879 248.112 109.879 247.819V244.642C109.879 244.349 110.116 244.113 110.408 244.113C110.7 244.113 110.937 244.35 110.937 244.642V247.819C110.937 248.112 110.701 248.349 110.408 248.349ZM110.408 241.995C110.115 241.995 109.879 241.758 109.879 241.466V238.289C109.879 237.996 110.116 237.76 110.408 237.76C110.7 237.76 110.937 237.997 110.937 238.289V241.466C110.937 241.759 110.701 241.995 110.408 241.995ZM110.408 235.642C110.115 235.642 109.879 235.405 109.879 235.113V234.726C109.879 233.649 110.281 232.62 111.012 231.83C111.211 231.616 111.545 231.602 111.761 231.801C111.975 231.999 111.989 232.335 111.79 232.549C111.241 233.143 110.938 233.916 110.938 234.727V235.114C110.937 235.406 110.701 235.642 110.408 235.642ZM130.121 231.519H126.945C126.652 231.519 126.416 231.282 126.416 230.99C126.416 230.698 126.653 230.461 126.945 230.461H130.121C130.414 230.461 130.651 230.698 130.651 230.99C130.651 231.282 130.414 231.519 130.121 231.519ZM123.768 231.519H120.592C120.299 231.519 120.063 231.282 120.063 230.99C120.063 230.698 120.3 230.461 120.592 230.461H123.768C124.061 230.461 124.297 230.698 124.297 230.99C124.297 231.282 124.061 231.519 123.768 231.519ZM117.415 231.519H114.239C113.946 231.519 113.71 231.282 113.71 230.99C113.71 230.698 113.947 230.461 114.239 230.461H117.415C117.708 230.461 117.944 230.698 117.944 230.99C117.944 231.282 117.708 231.519 117.415 231.519Z" fill="black"/>
<path d="M139.66 250.238H122.655V252.356H139.66V250.238Z" fill="black"/>
<path d="M171.583 250.238H144.111V252.356H171.583V250.238Z" fill="black"/>
<path d="M171.582 268.254H154.578V270.372H171.582V268.254Z" fill="black"/>
<path d="M150.128 268.254H122.655V270.372H150.128V268.254Z" fill="black"/>
<path d="M152.564 256.374H122.655V258.492H152.564V256.374Z" fill="black"/>
<path d="M171.582 256.374H157.014V258.492H171.582V256.374Z" fill="black"/>
<path d="M147.268 262.398H122.655V264.516H147.268V262.398Z" fill="black"/>
<path d="M171.582 262.398H154.881V264.516H171.582V262.398Z" fill="black"/>
<path d="M131.557 224.654H122.655V241.23H131.557V224.654Z" fill="#FFC655"/>
<path d="M145.523 218.361H136.621V241.229H145.523V218.361Z" fill="#FF9E22"/>
<path d="M159.029 205.315H150.127V241.229H159.029V205.315Z" fill="#FFB872"/>
<path d="M152.815 262.398H149.62V264.516H152.815V262.398Z" fill="black"/>
<path d="M293.107 149.052H226.468V223.402H293.107V149.052Z" fill="#525252"/>
<path d="M278.314 162.266H231.848V163.816H278.314V162.266Z" fill="white"/>
<path d="M255.032 175.098C247.052 175.098 239.087 175.09 231.847 175.072L231.851 173.522C246.329 173.558 263.7 173.558 278.313 173.522L278.317 175.072C271.008 175.09 263.012 175.098 255.032 175.098Z" fill="white"/>
<path d="M278.314 167.894H231.848V169.444H278.314V167.894Z" fill="white"/>
<path d="M265.722 179.176H231.848V180.726H265.722V179.176Z" fill="white"/>
<path d="M278.314 217.061H231.848V218.611H278.314V217.061Z" fill="white"/>
<path d="M278.313 207.356C263.698 207.321 246.328 207.321 231.851 207.356L231.847 205.806C246.328 205.772 263.701 205.772 278.317 205.806L278.313 207.356Z" fill="white"/>
<path d="M278.314 211.434H231.848V212.984H278.314V211.434Z" fill="white"/>
<path d="M265.722 200.152H231.848V201.702H265.722V200.152Z" fill="white"/>
<path d="M294.14 224.435H225.434V147.995H294.14V224.435ZM226.468 223.402H293.107V149.028H226.468V223.402Z" fill="#FFB872"/>
<path d="M293.624 148.511H225.951V157.417H293.624V148.511Z" fill="#FFB872"/>
<path d="M274.298 196.192C274.115 196.192 273.933 196.128 273.784 195.998L268.577 191.397C268.41 191.25 268.316 191.038 268.316 190.816C268.316 190.594 268.411 190.382 268.577 190.235L273.784 185.634C274.105 185.351 274.594 185.379 274.879 185.702C275.162 186.023 275.131 186.512 274.811 186.796L270.261 190.816L274.811 194.836C275.131 195.12 275.161 195.609 274.879 195.93C274.726 196.104 274.512 196.192 274.298 196.192Z" fill="white"/>
<path d="M282.331 196.192C282.117 196.192 281.903 196.104 281.75 195.93C281.467 195.609 281.498 195.12 281.818 194.836L286.368 190.816L281.818 186.796C281.498 186.512 281.468 186.023 281.75 185.702C282.034 185.381 282.523 185.352 282.845 185.634L288.052 190.235C288.219 190.382 288.313 190.594 288.313 190.816C288.313 191.038 288.218 191.249 288.052 191.397L282.845 195.998C282.697 196.128 282.514 196.192 282.331 196.192Z" fill="white"/>
<path d="M232.36 152.965L234.165 151.16C234.336 150.989 234.336 150.713 234.165 150.542C233.994 150.371 233.718 150.371 233.547 150.542L231.742 152.347L229.937 150.542C229.766 150.371 229.49 150.371 229.319 150.542C229.148 150.713 229.148 150.989 229.319 151.16L231.124 152.965L229.319 154.77C229.148 154.941 229.148 155.217 229.319 155.388C229.404 155.473 229.516 155.516 229.628 155.516C229.74 155.516 229.852 155.473 229.937 155.388L231.742 153.583L233.547 155.388C233.632 155.473 233.744 155.516 233.856 155.516C233.968 155.516 234.08 155.473 234.165 155.388C234.336 155.217 234.336 154.941 234.165 154.77L232.36 152.965Z" fill="white"/>
<path d="M240.103 155.516C238.696 155.516 237.551 154.371 237.551 152.965C237.551 151.558 238.696 150.414 240.103 150.414C241.51 150.414 242.654 151.559 242.654 152.965C242.654 154.372 241.51 155.516 240.103 155.516ZM240.103 151.23C239.147 151.23 238.369 152.008 238.369 152.964C238.369 153.92 239.147 154.698 240.103 154.698C241.059 154.698 241.837 153.92 241.837 152.964C241.837 152.008 241.059 151.23 240.103 151.23Z" fill="white"/>
<path d="M249.974 155.516H245.816C245.574 155.516 245.379 155.32 245.379 155.079C245.379 154.838 245.574 154.642 245.816 154.642H249.974C250.216 154.642 250.411 154.838 250.411 155.079C250.411 155.32 250.215 155.516 249.974 155.516Z" fill="white"/>
<path d="M205.172 48.956L199.154 50.86C198.954 50.923 198.765 51.006 198.585 51.1C196.772 47.984 194.448 45.271 191.757 43.035C191.883 42.869 192 42.695 192.097 42.506L194.98 36.891C195.877 35.144 195.185 32.993 193.438 32.095L187.823 29.212C186.076 28.316 183.924 29.007 183.027 30.754L180.144 36.369C180.047 36.558 179.974 36.754 179.913 36.952C176.618 36.091 173.158 35.778 169.664 36.079C169.637 35.878 169.596 35.676 169.533 35.476L167.629 29.458C167.037 27.585 165.031 26.543 163.158 27.136L157.14 29.04C155.267 29.632 154.226 31.638 154.818 33.511L156.722 39.529C156.785 39.729 156.868 39.918 156.962 40.098C153.846 41.911 151.133 44.235 148.897 46.926C148.731 46.8 148.557 46.683 148.368 46.586L142.753 43.703C141.912 43.271 140.953 43.19 140.052 43.475C140.047 43.477 140.041 43.478 140.036 43.481C139.13 43.772 138.392 44.399 137.957 45.245L135.074 50.86C134.177 52.607 134.869 54.758 136.616 55.656L142.231 58.539C142.421 58.637 142.617 58.707 142.815 58.768C141.954 62.063 141.64 65.524 141.941 69.018C141.74 69.045 141.538 69.086 141.338 69.149L135.32 71.053C133.447 71.645 132.406 73.651 132.998 75.524L134.902 81.542C135.494 83.415 137.5 84.456 139.373 83.864L145.391 81.96C145.591 81.897 145.78 81.814 145.96 81.72C147.773 84.837 150.098 87.55 152.79 89.787C152.665 89.952 152.546 90.124 152.448 90.314L149.565 95.929C149.13 96.775 149.051 97.741 149.342 98.646C149.633 99.552 150.26 100.29 151.106 100.724L156.721 103.607C157.589 104.053 158.557 104.106 159.421 103.832C160.296 103.555 161.065 102.943 161.516 102.064L164.399 96.449C164.497 96.259 164.567 96.063 164.628 95.865C167.923 96.726 171.384 97.039 174.879 96.739C174.906 96.94 174.947 97.142 175.01 97.343L176.914 103.361C177.506 105.234 179.512 106.275 181.385 105.683L187.403 103.779C189.276 103.187 190.317 101.181 189.725 99.308L187.821 93.29C187.758 93.09 187.675 92.901 187.581 92.721C190.698 90.908 193.411 88.583 195.648 85.891C195.813 86.017 195.985 86.135 196.176 86.233L201.791 89.116C202.659 89.562 203.627 89.615 204.492 89.342C205.367 89.065 206.136 88.453 206.587 87.574L209.471 81.959C210.368 80.212 209.676 78.06 207.929 77.163L202.314 74.28C202.125 74.183 201.929 74.11 201.73 74.048C202.59 70.753 202.904 67.293 202.603 63.8C202.804 63.773 203.006 63.732 203.207 63.669L209.225 61.765C211.098 61.173 212.139 59.167 211.547 57.295L209.643 51.277C209.05 49.406 207.045 48.364 205.172 48.956ZM177.317 82.359C168.522 85.141 159.103 80.249 156.321 71.454C153.539 62.659 158.431 53.24 167.226 50.458C176.021 47.676 185.439 52.568 188.221 61.363C191.003 70.159 186.111 79.577 177.317 82.359Z" fill="black"/>
<path d="M197.573 188.675L196.11 192.257C196.061 192.376 196.026 192.497 196 192.619C193.821 192.251 191.631 192.283 189.522 192.674C189.493 192.55 189.457 192.426 189.406 192.306L187.89 188.746C187.418 187.638 186.134 187.121 185.026 187.592L181.466 189.107C180.359 189.578 179.841 190.864 180.312 191.971L181.828 195.531C181.879 195.651 181.943 195.762 182.012 195.869C180.315 197.084 178.81 198.592 177.582 200.356C177.477 200.29 177.366 200.23 177.246 200.181L173.664 198.718C172.549 198.263 171.272 198.799 170.817 199.914L169.354 203.496C168.899 204.611 169.435 205.888 170.55 206.343L174.132 207.806C174.251 207.855 174.372 207.89 174.494 207.916C174.126 210.095 174.158 212.285 174.549 214.394C174.425 214.423 174.301 214.459 174.181 214.51L170.621 216.026C170.087 216.253 169.674 216.673 169.455 217.209C169.454 217.212 169.452 217.216 169.451 217.219C169.233 217.76 169.239 218.354 169.467 218.89L170.983 222.45C171.455 223.557 172.74 224.075 173.847 223.604L177.407 222.088C177.527 222.037 177.638 221.972 177.744 221.903C178.959 223.601 180.467 225.106 182.232 226.334C182.166 226.439 182.106 226.551 182.057 226.67L180.594 230.252C180.139 231.367 180.675 232.644 181.79 233.099L185.372 234.562C186.487 235.017 187.764 234.481 188.219 233.366L189.682 229.784C189.731 229.665 189.766 229.544 189.792 229.422C191.971 229.79 194.162 229.758 196.271 229.366C196.3 229.49 196.334 229.613 196.386 229.734L197.902 233.294C198.13 233.831 198.554 234.246 199.095 234.464C199.636 234.682 200.23 234.676 200.766 234.448L204.326 232.932C204.876 232.698 205.281 232.263 205.491 231.748C205.704 231.227 205.717 230.625 205.48 230.068L203.965 226.508C203.914 226.387 203.849 226.277 203.779 226.171C205.477 224.956 206.982 223.448 208.21 221.683C208.316 221.749 208.427 221.809 208.546 221.858L212.128 223.321C213.243 223.776 214.52 223.24 214.975 222.125L216.438 218.543C216.893 217.428 216.357 216.151 215.242 215.696L211.66 214.233C211.541 214.184 211.42 214.149 211.298 214.123C211.666 211.944 211.634 209.753 211.242 207.644C211.366 207.615 211.489 207.581 211.61 207.529L215.17 206.013C215.72 205.779 216.125 205.343 216.335 204.829C216.548 204.308 216.561 203.706 216.323 203.149L214.808 199.588C214.336 198.48 213.051 197.963 211.944 198.434L208.384 199.95C208.264 200.001 208.153 200.065 208.046 200.134C206.831 198.437 205.323 196.932 203.559 195.704C203.625 195.599 203.685 195.487 203.734 195.368L205.197 191.786C205.652 190.671 205.116 189.394 204.001 188.939L200.419 187.476C199.305 187.023 198.028 187.56 197.573 188.675ZM202.391 214.898C200.253 220.133 194.255 222.653 189.02 220.516C183.785 218.378 181.265 212.38 183.402 207.145C185.54 201.91 191.538 199.39 196.773 201.528C202.008 203.665 204.528 209.663 202.391 214.898Z" fill="#060606"/>
<path d="M173.848 170.489L171.944 172.418C171.881 172.482 171.826 172.551 171.776 172.623C170.463 171.803 169.037 171.238 167.566 170.929C167.581 170.841 167.59 170.751 167.589 170.66L167.559 167.95C167.549 167.107 166.855 166.428 166.012 166.438L163.301 166.469C162.458 166.479 161.779 167.172 161.789 168.016L161.82 170.726C161.821 170.817 161.833 170.906 161.849 170.994C160.425 171.328 159.048 171.902 157.782 172.717C157.731 172.646 157.676 172.578 157.611 172.514L155.682 170.61C155.082 170.018 154.111 170.024 153.519 170.624L151.615 172.553C151.023 173.153 151.029 174.124 151.629 174.716L153.558 176.62C153.622 176.683 153.691 176.738 153.763 176.788C152.943 178.101 152.378 179.528 152.069 180.998C151.981 180.983 151.891 180.974 151.8 180.975L149.09 181.006C148.684 181.011 148.304 181.172 148.019 181.461C148.017 181.463 148.015 181.464 148.014 181.466C147.728 181.758 147.574 182.144 147.578 182.553L147.609 185.263C147.619 186.106 148.313 186.785 149.156 186.775L151.867 186.744C151.959 186.743 152.047 186.731 152.135 186.714C152.469 188.138 153.043 189.515 153.858 190.782C153.787 190.833 153.719 190.889 153.655 190.953L151.751 192.882C151.159 193.482 151.165 194.453 151.765 195.045L153.694 196.949C154.294 197.541 155.265 197.535 155.857 196.935L157.761 195.006C157.824 194.942 157.879 194.873 157.929 194.801C159.242 195.621 160.669 196.186 162.14 196.495C162.125 196.583 162.115 196.672 162.116 196.764L162.147 199.474C162.152 199.883 162.315 200.265 162.607 200.551C162.899 200.837 163.285 200.991 163.694 200.987L166.405 200.957C166.824 200.952 167.202 200.778 167.476 200.501C167.753 200.221 167.922 199.834 167.917 199.41L167.886 196.7C167.885 196.608 167.872 196.52 167.856 196.432C169.28 196.098 170.657 195.524 171.924 194.709C171.975 194.78 172.031 194.849 172.095 194.912L174.024 196.816C174.624 197.409 175.595 197.402 176.187 196.802L178.091 194.873C178.683 194.273 178.677 193.302 178.077 192.71L176.148 190.806C176.084 190.743 176.015 190.688 175.943 190.638C176.763 189.325 177.328 187.898 177.638 186.427C177.726 186.442 177.815 186.452 177.907 186.451L180.617 186.42C181.036 186.415 181.415 186.242 181.688 185.964C181.965 185.683 182.134 185.297 182.129 184.873L182.099 182.162C182.089 181.319 181.395 180.64 180.552 180.65L177.842 180.681C177.751 180.682 177.662 180.694 177.574 180.71C177.24 179.286 176.666 177.909 175.851 176.643C175.922 176.592 175.991 176.536 176.054 176.472L177.958 174.543C178.55 173.943 178.544 172.972 177.944 172.38L176.015 170.476C175.411 169.883 174.441 169.889 173.848 170.489ZM169.965 188.758C167.182 191.578 162.625 191.608 159.805 188.825C156.985 186.042 156.955 181.485 159.738 178.665C162.52 175.846 167.078 175.816 169.898 178.598C172.717 181.382 172.747 185.939 169.965 188.758Z" stroke="#FF9E22" stroke-width="0.5" stroke-miterlimit="10"/>
<path d="M21.604 145.29H9.24899V147.357H21.604V145.29Z" fill="black"/>
<path d="M58.224 145.29H26.71V147.357H58.224V145.29Z" fill="black"/>
<path d="M58.224 167.479H38.717V169.546H58.224V167.479Z" fill="black"/>
<path d="M33.612 167.479H9.24899V169.546H33.612V167.479Z" fill="black"/>
<path d="M36.407 152.846H9.24899V154.913H36.407V152.846Z" fill="black"/>
<path d="M58.224 152.846H41.512V154.913H58.224V152.846Z" fill="black"/>
<path d="M30.331 160.266H9.24899V162.333H30.331V160.266Z" fill="black"/>
<path d="M58.224 160.266H39.065V162.333H58.224V160.266Z" fill="black"/>
<path d="M36.694 160.266H33.029V162.333H36.694V160.266Z" fill="black"/>
<path d="M347.232 338.848H334.877V340.915H347.232V338.848Z" fill="black"/>
<path d="M383.851 338.848H352.337V340.915H383.851V338.848Z" fill="black"/>
<path d="M383.851 361.037H364.344V363.104H383.851V361.037Z" fill="black"/>
<path d="M359.239 361.037H334.877V363.104H359.239V361.037Z" fill="black"/>
<path d="M362.034 346.405H334.877V348.472H362.034V346.405Z" fill="black"/>
<path d="M383.851 346.405H367.139V348.472H383.851V346.405Z" fill="black"/>
<path d="M355.959 353.824H334.877V355.891H355.959V353.824Z" fill="black"/>
<path d="M383.851 353.824H364.692V355.891H383.851V353.824Z" fill="black"/>
<path d="M362.321 353.824H358.656V355.891H362.321V353.824Z" fill="black"/>
<path d="M375.94 83.791L371.088 84.83C370.927 84.865 370.773 84.915 370.625 84.975C369.44 82.401 367.824 80.104 365.885 78.152C365.996 78.032 366.101 77.904 366.191 77.763L368.868 73.585C369.701 72.285 369.321 70.55 368.021 69.717L363.843 67.04C362.543 66.208 360.808 66.587 359.975 67.888L357.298 72.066C357.208 72.206 357.136 72.354 357.073 72.505C354.559 71.585 351.875 71.08 349.118 71.054C349.112 70.894 349.095 70.734 349.061 70.572L348.022 65.72C347.699 64.21 346.208 63.245 344.698 63.568L339.846 64.607C338.336 64.93 337.371 66.422 337.694 67.932L338.733 72.784C338.768 72.945 338.818 73.099 338.878 73.247C336.304 74.432 334.007 76.048 332.055 77.986C331.935 77.875 331.807 77.77 331.667 77.68L327.489 75.003C326.863 74.602 326.119 74.467 325.393 74.622C325.389 74.623 325.384 74.624 325.38 74.625C324.649 74.785 324.025 75.22 323.621 75.85L320.944 80.028C320.112 81.328 320.491 83.063 321.792 83.896L325.97 86.573C326.112 86.664 326.26 86.734 326.41 86.796C325.49 89.31 324.985 91.995 324.958 94.752C324.799 94.758 324.638 94.775 324.476 94.809L319.624 95.848C318.114 96.171 317.149 97.662 317.472 99.173L318.511 104.025C318.834 105.535 320.325 106.5 321.835 106.177L326.687 105.138C326.848 105.103 327.002 105.053 327.15 104.993C328.335 107.568 329.951 109.865 331.891 111.817C331.78 111.937 331.675 112.062 331.584 112.204L328.907 116.382C328.503 117.012 328.369 117.761 328.529 118.492C328.689 119.223 329.124 119.847 329.754 120.25L333.932 122.927C334.578 123.341 335.331 123.455 336.028 123.306C336.733 123.155 337.381 122.734 337.8 122.08L340.477 117.902C340.568 117.761 340.638 117.612 340.7 117.462C343.214 118.382 345.899 118.887 348.656 118.914C348.662 119.074 348.679 119.235 348.714 119.396L349.753 124.248C350.076 125.758 351.567 126.723 353.077 126.4L357.929 125.361C359.439 125.038 360.404 123.547 360.081 122.037L359.042 117.185C359.007 117.024 358.957 116.87 358.897 116.722C361.472 115.537 363.769 113.921 365.721 111.981C365.841 112.092 365.967 112.197 366.108 112.288L370.286 114.965C370.932 115.379 371.686 115.493 372.383 115.344C373.088 115.193 373.736 114.772 374.155 114.118L376.832 109.94C377.665 108.64 377.284 106.905 375.985 106.072L371.807 103.395C371.667 103.305 371.518 103.233 371.368 103.17C372.288 100.656 372.793 97.972 372.819 95.216C372.979 95.21 373.14 95.193 373.301 95.159L378.153 94.12C379.663 93.797 380.628 92.306 380.305 90.796L379.266 85.944C378.941 84.433 377.45 83.468 375.94 83.791ZM351.641 107.844C344.55 109.362 337.546 104.829 336.028 97.738C334.51 90.647 339.043 83.643 346.134 82.125C353.225 80.607 360.229 85.14 361.747 92.231C363.265 99.322 358.731 106.326 351.641 107.844Z" fill="black"/>
<path d="M268.681 88.9649L256.78 84.4399V81.1899L268.681 76.6649V79.7899L257.955 83.6899V81.9399L268.681 85.8399V88.9649ZM269.371 94.0649L277.621 70.5149H281.096L272.846 94.0649H269.371ZM281.536 88.9649V85.8399L292.261 81.9399V83.6899L281.536 79.7899V76.6649L293.436 81.1899V84.4399L281.536 88.9649Z" fill="white"/>
<path d="M54.3138 339.411C55.0818 339.411 55.7658 339.567 56.3658 339.879C56.9778 340.179 57.4578 340.647 57.8058 341.283C58.1538 341.907 58.3278 342.711 58.3278 343.695V349.239H55.5198V344.127C55.5198 343.347 55.3458 342.771 54.9978 342.399C54.6618 342.027 54.1818 341.841 53.5578 341.841C53.1138 341.841 52.7118 341.937 52.3518 342.129C52.0038 342.309 51.7278 342.591 51.5238 342.975C51.3318 343.359 51.2358 343.851 51.2358 344.451V349.239H48.4278V335.883H51.2358V342.237L50.6058 341.427C50.9538 340.779 51.4518 340.281 52.0998 339.933C52.7478 339.585 53.4858 339.411 54.3138 339.411ZM64.8331 349.383C63.6931 349.383 62.8051 349.095 62.1691 348.519C61.5331 347.931 61.2151 347.061 61.2151 345.909V337.413H64.0231V345.873C64.0231 346.281 64.1311 346.599 64.3471 346.827C64.5631 347.043 64.8571 347.151 65.2291 347.151C65.6731 347.151 66.0511 347.031 66.3631 346.791L67.1191 348.771C66.8311 348.975 66.4831 349.131 66.0751 349.239C65.6791 349.335 65.2651 349.383 64.8331 349.383ZM59.7211 341.931V339.771H66.4351V341.931H59.7211ZM81.0974 339.411C81.8654 339.411 82.5434 339.567 83.1314 339.879C83.7314 340.179 84.1994 340.647 84.5354 341.283C84.8834 341.907 85.0574 342.711 85.0574 343.695V349.239H82.2494V344.127C82.2494 343.347 82.0874 342.771 81.7634 342.399C81.4394 342.027 80.9834 341.841 80.3954 341.841C79.9874 341.841 79.6214 341.937 79.2974 342.129C78.9734 342.309 78.7214 342.585 78.5414 342.957C78.3614 343.329 78.2714 343.803 78.2714 344.379V349.239H75.4634V344.127C75.4634 343.347 75.3014 342.771 74.9774 342.399C74.6654 342.027 74.2154 341.841 73.6274 341.841C73.2194 341.841 72.8534 341.937 72.5294 342.129C72.2054 342.309 71.9534 342.585 71.7734 342.957C71.5934 343.329 71.5034 343.803 71.5034 344.379V349.239H68.6954V339.555H71.3774V342.201L70.8734 341.427C71.2094 340.767 71.6834 340.269 72.2954 339.933C72.9194 339.585 73.6274 339.411 74.4194 339.411C75.3074 339.411 76.0814 339.639 76.7414 340.095C77.4134 340.539 77.8574 341.223 78.0734 342.147L77.0834 341.877C77.4074 341.121 77.9234 340.521 78.6314 340.077C79.3514 339.633 80.1734 339.411 81.0974 339.411ZM87.5743 349.239V335.883H90.3823V349.239H87.5743Z" fill="white"/>
<path d="M90.0324 201.539C89.5694 201.539 89.1256 201.488 88.7011 201.385C88.2766 201.295 87.9165 201.154 87.6206 200.961L88.431 198.78C88.7783 199.025 89.2028 199.147 89.7044 199.147C90.0775 199.147 90.3733 199.018 90.592 198.761C90.8235 198.517 90.9393 198.144 90.9393 197.642V187.261H93.9492V197.623C93.9492 198.819 93.6084 199.771 92.9266 200.478C92.2449 201.186 91.2802 201.539 90.0324 201.539ZM92.4443 185.814C91.8911 185.814 91.4409 185.654 91.0936 185.332C90.7463 185.01 90.5727 184.612 90.5727 184.136C90.5727 183.66 90.7463 183.261 91.0936 182.939C91.4409 182.618 91.8911 182.457 92.4443 182.457C92.9974 182.457 93.4476 182.611 93.7949 182.92C94.1422 183.216 94.3158 183.602 94.3158 184.078C94.3158 184.579 94.1422 184.998 93.7949 185.332C93.4604 185.654 93.0102 185.814 92.4443 185.814ZM100.213 197.796C99.3255 197.796 98.4701 197.693 97.6469 197.488C96.8365 197.269 96.1933 196.999 95.7174 196.677L96.7207 194.516C97.1967 194.812 97.7562 195.056 98.3994 195.249C99.0554 195.429 99.6985 195.52 100.329 195.52C101.023 195.52 101.512 195.436 101.795 195.269C102.091 195.101 102.239 194.87 102.239 194.574C102.239 194.33 102.123 194.15 101.892 194.034C101.673 193.905 101.377 193.809 101.004 193.744C100.631 193.68 100.219 193.616 99.7693 193.551C99.3319 193.487 98.8882 193.404 98.4379 193.301C97.9877 193.185 97.5761 193.018 97.2031 192.799C96.8301 192.58 96.5278 192.284 96.2962 191.911C96.0776 191.538 95.9682 191.056 95.9682 190.464C95.9682 189.808 96.1548 189.229 96.5278 188.728C96.9137 188.226 97.4668 187.834 98.1871 187.551C98.9074 187.255 99.7693 187.107 100.773 187.107C101.48 187.107 102.2 187.184 102.934 187.339C103.667 187.493 104.278 187.718 104.767 188.014L103.763 190.156C103.262 189.86 102.754 189.66 102.239 189.557C101.737 189.442 101.249 189.384 100.773 189.384C100.104 189.384 99.6149 189.474 99.3062 189.654C98.9975 189.834 98.8431 190.066 98.8431 190.349C98.8431 190.606 98.9525 190.799 99.1711 190.927C99.4027 191.056 99.705 191.159 100.078 191.236C100.451 191.313 100.856 191.384 101.294 191.448C101.744 191.5 102.194 191.583 102.644 191.699C103.094 191.815 103.5 191.982 103.86 192.201C104.233 192.407 104.535 192.696 104.767 193.069C104.998 193.429 105.114 193.905 105.114 194.497C105.114 195.14 104.921 195.712 104.535 196.214C104.149 196.703 103.59 197.089 102.856 197.372C102.136 197.655 101.255 197.796 100.213 197.796Z" fill="white"/>
<path d="M283.083 330.195C281.671 330.195 280.413 329.911 279.309 329.343C278.206 328.758 277.337 327.955 276.704 326.932C276.087 325.91 275.779 324.749 275.779 323.451C275.779 322.136 276.087 320.976 276.704 319.969C277.337 318.947 278.206 318.151 279.309 317.583C280.413 316.999 281.671 316.707 283.083 316.707C284.463 316.707 285.664 316.999 286.686 317.583C287.709 318.151 288.464 318.971 288.95 320.042L286.005 321.625C285.664 321.008 285.234 320.554 284.714 320.261C284.211 319.969 283.659 319.823 283.059 319.823C282.409 319.823 281.825 319.969 281.306 320.261C280.786 320.554 280.372 320.967 280.064 321.503C279.772 322.039 279.626 322.688 279.626 323.451C279.626 324.214 279.772 324.863 280.064 325.399C280.372 325.934 280.786 326.348 281.306 326.64C281.825 326.932 282.409 327.078 283.059 327.078C283.659 327.078 284.211 326.94 284.714 326.665C285.234 326.372 285.664 325.91 286.005 325.277L288.95 326.884C288.464 327.939 287.709 328.758 286.686 329.343C285.664 329.911 284.463 330.195 283.083 330.195ZM298.879 330L300.998 312.958H303.724L301.631 330H298.879ZM289.871 326.105V323.451H305.599V326.105H289.871ZM292.574 330L294.692 312.958H297.419L295.301 330H292.574ZM290.699 319.507V316.853H306.402L306.427 319.507H290.699Z" fill="white"/>
<path d="M379.139 221.675C378.701 221.675 378.281 221.626 377.879 221.529C377.477 221.443 377.137 221.31 376.857 221.127L377.623 219.064C377.952 219.295 378.354 219.411 378.829 219.411C379.182 219.411 379.462 219.289 379.669 219.045C379.888 218.814 379.997 218.461 379.997 217.986V208.163H382.846V217.968C382.846 219.1 382.523 220.001 381.878 220.67C381.233 221.34 380.32 221.675 379.139 221.675ZM381.421 206.793C380.898 206.793 380.472 206.641 380.143 206.337C379.815 206.032 379.65 205.655 379.65 205.204C379.65 204.754 379.815 204.377 380.143 204.072C380.472 203.768 380.898 203.616 381.421 203.616C381.945 203.616 382.371 203.762 382.7 204.054C383.028 204.334 383.193 204.699 383.193 205.15C383.193 205.624 383.028 206.02 382.7 206.337C382.383 206.641 381.957 206.793 381.421 206.793ZM391.494 217.986V216.069L391.312 215.649V212.216C391.312 211.608 391.123 211.133 390.746 210.792C390.38 210.451 389.814 210.281 389.048 210.281C388.524 210.281 388.007 210.366 387.495 210.536C386.996 210.695 386.57 210.914 386.217 211.194L385.195 209.203C385.73 208.826 386.375 208.534 387.13 208.327C387.885 208.12 388.652 208.016 389.431 208.016C390.928 208.016 392.091 208.369 392.919 209.076C393.746 209.782 394.16 210.883 394.16 212.381V217.986H391.494ZM388.5 218.132C387.733 218.132 387.075 218.005 386.528 217.749C385.98 217.481 385.56 217.122 385.268 216.672C384.976 216.221 384.829 215.716 384.829 215.156C384.829 214.572 384.969 214.06 385.249 213.622C385.542 213.184 385.998 212.843 386.619 212.6C387.24 212.344 388.049 212.216 389.048 212.216H391.659V213.878H389.358C388.688 213.878 388.226 213.987 387.97 214.207C387.727 214.426 387.605 214.7 387.605 215.028C387.605 215.393 387.745 215.686 388.025 215.905C388.317 216.112 388.713 216.215 389.212 216.215C389.687 216.215 390.113 216.106 390.49 215.886C390.867 215.655 391.141 215.32 391.312 214.882L391.75 216.197C391.543 216.83 391.166 217.311 390.618 217.639C390.07 217.968 389.364 218.132 388.5 218.132ZM399.226 217.986L395.099 208.163H398.039L401.472 216.617H400.011L403.572 208.163H406.311L402.166 217.986H399.226ZM413.178 217.986V216.069L412.995 215.649V212.216C412.995 211.608 412.807 211.133 412.429 210.792C412.064 210.451 411.498 210.281 410.731 210.281C410.208 210.281 409.69 210.366 409.179 210.536C408.68 210.695 408.254 210.914 407.901 211.194L406.878 209.203C407.414 208.826 408.059 208.534 408.814 208.327C409.568 208.12 410.335 208.016 411.114 208.016C412.612 208.016 413.774 208.369 414.602 209.076C415.43 209.782 415.844 210.883 415.844 212.381V217.986H413.178ZM410.183 218.132C409.416 218.132 408.759 218.005 408.211 217.749C407.663 217.481 407.243 217.122 406.951 216.672C406.659 216.221 406.513 215.716 406.513 215.156C406.513 214.572 406.653 214.06 406.933 213.622C407.225 213.184 407.682 212.843 408.302 212.6C408.923 212.344 409.733 212.216 410.731 212.216H413.342V213.878H411.041C410.372 213.878 409.909 213.987 409.654 214.207C409.41 214.426 409.288 214.7 409.288 215.028C409.288 215.393 409.428 215.686 409.708 215.905C410.001 216.112 410.396 216.215 410.895 216.215C411.37 216.215 411.796 216.106 412.174 215.886C412.551 215.655 412.825 215.32 412.995 214.882L413.433 216.197C413.227 216.83 412.849 217.311 412.301 217.639C411.754 217.968 411.048 218.132 410.183 218.132Z" fill="white"/>
</svg>
