<svg version="1.2" xmlns="http://www.w3.org/2000/svg" viewBox="0 0 32 32" width="32" height="32"><style>.a{fill:#fff}</style><path fill-rule="evenodd" class="a" d="m28.1 19.4q0.6 0.2 1 0.7 0.4 0.4 0.7 0.9 0.2 0.6 0.2 1.2v4q0 0.6-0.2 1.1-0.3 0.6-0.7 1-0.4 0.4-1 0.7-0.5 0.2-1.1 0.2h-22q-0.6 0-1.1-0.2-0.6-0.3-1-0.7-0.4-0.4-0.7-1-0.2-0.5-0.2-1.1v-4q0-0.6 0.2-1.2 0.3-0.5 0.7-0.9 0.4-0.5 1-0.7 0.5-0.2 1.1-0.2h22q0.6 0 1.1 0.2zm-0.1 2.8q0-0.2-0.1-0.4-0.1-0.2-0.2-0.3-0.1-0.2-0.3-0.2-0.2-0.1-0.4-0.1h-22q-0.2 0-0.4 0.1-0.2 0-0.3 0.2-0.1 0.1-0.2 0.3-0.1 0.2-0.1 0.4v4q0 0.2 0.1 0.4 0.1 0.1 0.2 0.3 0.1 0.1 0.3 0.2 0.2 0.1 0.4 0.1h22q0.2 0 0.4-0.1 0.2-0.1 0.3-0.2 0.1-0.2 0.2-0.3 0.1-0.2 0.1-0.4zm-5 2q0 0.2-0.1 0.4-0.1 0.1-0.2 0.3-0.1 0.1-0.3 0.2-0.2 0.1-0.4 0.1h-12q-0.4 0-0.7-0.3-0.3-0.3-0.3-0.7 0-0.4 0.3-0.7 0.3-0.3 0.7-0.3h12q0.2 0 0.4 0.1 0.2 0 0.3 0.2 0.1 0.1 0.2 0.3 0.1 0.2 0.1 0.4zm4 0q0 0.2-0.1 0.4-0.1 0.1-0.2 0.3-0.1 0.1-0.3 0.2-0.2 0.1-0.4 0.1h-1q-0.4 0-0.7-0.3-0.3-0.3-0.3-0.7 0-0.4 0.3-0.7 0.3-0.3 0.7-0.3h1q0.2 0 0.4 0.1 0.2 0 0.3 0.2 0.1 0.1 0.2 0.3 0.1 0.2 0.1 0.4zm-19 0q0 0.2-0.1 0.4-0.1 0.1-0.2 0.3-0.1 0.1-0.3 0.2-0.2 0.1-0.4 0.1h-1q-0.4 0-0.7-0.3-0.3-0.3-0.3-0.7 0-0.4 0.3-0.7 0.3-0.3 0.7-0.3h1q0.2 0 0.4 0.1 0.2 0 0.3 0.2 0.1 0.1 0.2 0.3 0.1 0.2 0.1 0.4zm8-9.8q0.6 0 1.2 0.1 0.6 0.1 1.1 0.3 0.6 0.2 1.1 0.4 0.6 0.3 1 0.7 0.3 0.2 0.4 0.5 0.1 0.3 0 0.6-0.1 0.3-0.4 0.5-0.2 0.2-0.6 0.2 0 0-0.1 0-0.1 0-0.2-0.1-0.1 0-0.1 0-0.1-0.1-0.2-0.1-0.7-0.5-1.5-0.8-0.8-0.3-1.7-0.3-0.9 0-1.7 0.3-0.8 0.3-1.5 0.8c-0.2 0.2-0.5 0.2-0.8 0.2-0.3 0-0.5-0.2-0.7-0.4-0.1-0.2-0.2-0.5-0.2-0.7 0.1-0.3 0.2-0.6 0.4-0.7q0.5-0.4 1.1-0.7 0.5-0.2 1.1-0.4 0.5-0.2 1.1-0.3 0.6-0.1 1.2-0.1zm5.8-1.6q-1.2-1-2.7-1.5-1.5-0.5-3.1-0.5-1.6 0-3.1 0.5-1.5 0.5-2.7 1.5-0.2 0.1-0.4 0.1-0.2 0.1-0.4 0.1-0.2-0.1-0.3-0.2-0.2-0.1-0.3-0.2-0.1-0.2-0.2-0.4 0-0.2 0-0.4 0-0.2 0.1-0.3 0.1-0.2 0.3-0.3 1.5-1.2 3.3-1.8 1.8-0.6 3.7-0.6 1.9 0 3.7 0.6 1.8 0.6 3.3 1.8 0.2 0.1 0.3 0.3 0.1 0.1 0.1 0.3 0 0.2 0 0.4-0.1 0.2-0.2 0.4 0 0.1-0.1 0.1-0.1 0.1-0.2 0.2-0.1 0-0.2 0-0.2 0.1-0.3 0.1-0.1 0-0.1 0-0.1-0.1-0.2-0.1-0.1 0-0.1 0-0.1-0.1-0.2-0.1zm-15.6-5.4q-0.1-0.1-0.2-0.3 0-0.2 0-0.4 0-0.2 0.1-0.4 0.1-0.2 0.3-0.3c1.4-1 2.9-1.8 4.5-2.4 1.7-0.5 3.4-0.8 5.1-0.8 1.7 0 3.4 0.3 5.1 0.8 1.6 0.6 3.1 1.4 4.5 2.4q0.2 0.1 0.3 0.3 0.1 0.2 0.1 0.4 0 0.2 0 0.3-0.1 0.2-0.2 0.4-0.1 0.1-0.2 0.2 0 0-0.2 0.1-0.1 0-0.2 0.1-0.1 0-0.2 0-0.1 0-0.2 0 0 0-0.1-0.1-0.1 0-0.2 0 0-0.1-0.1-0.1-1.8-1.4-4-2.1-2.1-0.7-4.4-0.7-2.3 0-4.4 0.7-2.2 0.7-4 2.1-0.2 0.1-0.3 0.2-0.2 0-0.4 0-0.2 0-0.4-0.1-0.2-0.1-0.3-0.3z"/></svg>