<svg width="50" height="50" viewBox="0 0 50 50" fill="none" xmlns="http://www.w3.org/2000/svg">
<path d="M34.7955 42.2491C34.8096 42.3761 34.8096 42.5181 34.7971 42.6661L32.4378 40.4893L32.2533 40.3191L32.0838 40.5043L29.6472 43.1665L29.4777 43.3517L29.6635 43.5204L32.0621 45.6984C31.9129 45.7299 31.7676 45.7476 31.622 45.7476V45.7475L31.6135 45.7478C30.7343 45.7775 29.994 45.5133 29.3557 44.9343C28.7126 44.3193 28.3745 43.6177 28.3441 42.7478C28.3444 42.4335 28.3752 42.084 28.4435 41.7905L28.4758 41.6514L28.3724 41.5529L27.7156 40.9272L27.7156 40.9271L27.7119 40.9237L23.7815 37.3279L23.5962 37.1584L23.4276 37.3444L16.7744 44.684L16.7663 44.6929L16.7591 44.7026C16.3968 45.1894 15.8419 45.5141 15.2116 45.5141C14.1846 45.5141 13.3535 44.6822 13.3535 43.6535C13.3535 43.0949 13.5696 42.5942 13.9854 42.2427L13.9952 42.2344L14.004 42.2252L20.9115 35.0549L21.0892 34.8704L20.9005 34.6972L16.7261 30.8681L16.6045 30.7566L16.4542 30.8245C16.1584 30.9581 15.8228 31.0251 15.5401 31.0251V31.0249L15.5317 31.0252C14.6515 31.055 13.9104 30.7902 13.2716 30.2097C12.6309 29.6276 12.2916 28.9267 12.2622 28.0527L12.2618 28.0431L12.2608 28.0335C12.2465 27.9053 12.2467 27.7616 12.2596 27.6119L14.6518 29.7842L14.8366 29.952L15.0047 29.7674L17.4203 27.1157L17.5889 26.9306L17.4035 26.7623L15.0027 24.5822C15.1508 24.5523 15.3014 24.5351 15.4451 24.5351V24.5352L15.4535 24.5349C16.3338 24.5052 17.0748 24.77 17.7136 25.3504L17.7152 25.3518C18.3514 25.9201 18.6935 26.6613 18.7231 27.5391L18.7233 27.5473L18.7242 27.5555C18.7527 27.84 18.7248 28.1194 18.6552 28.4179L18.6221 28.5602L18.7297 28.6589L23.031 32.6048L23.2145 32.7732L23.3836 32.5902L26.53 29.1855L26.7037 28.9975L26.5117 28.8283L21.9949 24.846L25.9348 20.3532L37.6476 30.6721L33.708 35.1646L29.0651 31.0666L28.8736 30.8976L28.7087 31.0926L25.6682 34.6884L25.513 34.8719L25.6902 35.0342L30.4153 39.3617L30.5238 39.461L30.6633 39.4145C30.9699 39.3122 31.2479 39.247 31.5271 39.247V39.2472L31.5356 39.2469C32.4158 39.2171 33.1569 39.482 33.7957 40.0624L33.7972 40.0637C34.4351 40.634 34.7743 41.3329 34.794 42.227L34.7943 42.2381L34.7955 42.2491Z" fill="#FF9103" stroke="black" stroke-width="0.5"/>
<path d="M5.35486 47.5923H44.2296" stroke="black"/>
<line x1="43.5" y1="17.9952" x2="43.7903" y2="48.0875" stroke="black"/>
<line x1="5.49997" y1="16.9943" x2="5.85483" y2="48.0866" stroke="black"/>
<path d="M7.92908 4C7.92908 2.89543 8.82451 2 9.92908 2H39.8C40.9046 2 41.8 2.89543 41.8 4V6.30769H7.92908V4Z" fill="black"/>
<path d="M11.98 5.99931L9.04004 16.6811H14.096C14.2011 17.3041 14.8203 17.8861 15.8297 18.3108C16.839 18.7354 18.1642 18.9713 19.54 18.9713C20.9159 18.9713 22.241 18.7354 23.2504 18.3108C24.2598 17.8861 24.879 17.3041 24.9841 16.6811H25C25 17.2881 25.531 17.8703 26.4762 18.2996C27.4214 18.7289 28.7033 18.97 30.04 18.97C31.3767 18.97 32.6587 18.7289 33.6038 18.2996C34.549 17.8703 35.08 17.2881 35.08 16.6811H35.096C35.2011 17.3041 35.8203 17.8861 36.8296 18.3108C37.839 18.7354 39.1642 18.9713 40.54 18.9713C41.9159 18.9713 43.241 18.7354 44.2504 18.3108C45.2598 17.8861 45.8789 17.3041 45.9841 16.6811H46V16.2996L45.9622 16.1954C45.9494 16.1461 45.9331 16.097 45.9135 16.0482L45.8942 16.0032L45.8774 15.965L42.6879 7.27463C42.5573 6.91832 42.1526 6.59461 41.5458 6.36109C40.939 6.12756 40.1695 5.99937 39.3741 5.99931H11.98Z" fill="black"/>
<path d="M16.007 6.03815L16.0524 5.74931H15.76H10.2588C9.42871 5.74929 8.61764 5.88437 7.97259 6.13712C7.34109 6.38457 6.85083 6.75336 6.69728 7.22419C6.69728 7.2242 6.69728 7.2242 6.69728 7.22421L3.76232 16.222L3.75 16.2598V16.2996V16.6811C3.75 17.4436 4.40622 18.0882 5.3728 18.5272C6.35837 18.9748 7.67751 19.22 9.04 19.22C10.4025 19.22 11.7216 18.9748 12.7072 18.5272C13.6651 18.0922 14.3182 17.4552 14.3298 16.7016L16.007 6.03815ZM33.647 5.96046L33.6137 5.74931H33.4H25H24.75V5.99931V16.6811C24.75 17.4436 25.4062 18.0882 26.3728 18.5272C27.3584 18.9748 28.6775 19.22 30.04 19.22C31.4025 19.22 32.7216 18.9748 33.7072 18.5272C34.6738 18.0882 35.33 17.4436 35.33 16.6811V16.6615L35.327 16.6422L33.647 5.96046Z" fill="black" stroke="#FF9103" stroke-width="0.5"/>
<path d="M33.9251 6.00912L33.8866 5.72014L34.179 5.7216L39.6798 5.74899C40.5099 5.75311 41.3177 5.89222 41.9566 6.14817C42.5821 6.39875 43.0634 6.76997 43.2056 7.2415C43.2056 7.2415 43.2056 7.24151 43.2056 7.24152L45.9232 16.2534L45.9346 16.2912L45.9336 16.331L45.9244 16.7124C45.906 17.4748 45.2343 18.1162 44.2572 18.5503C43.2608 18.993 41.9359 19.2316 40.5734 19.2248C39.211 19.2181 37.8979 18.9663 36.9232 18.5138C35.9758 18.074 35.3382 17.4338 35.3447 16.6803L33.9251 6.00912ZM16.288 5.84365L16.3263 5.63271L16.5401 5.63378L24.9396 5.6756L25.1895 5.67684L25.1835 5.92677L24.9257 16.6079C24.9073 17.3703 24.2356 18.0116 23.2584 18.4458C22.2621 18.8885 20.9371 19.1271 19.5747 19.1203C18.2123 19.1135 16.8991 18.8618 15.9244 18.4093C14.9685 17.9655 14.3279 17.3176 14.3463 16.5552L14.3468 16.5357L14.3503 16.5164L16.288 5.84365Z" fill="black" stroke="#FF9103" stroke-width="0.5"/>
<path d="M14.08 16.6811C14.08 17.2882 13.549 17.8704 12.6038 18.2996C11.6586 18.7289 10.3767 18.97 9.04 18.97C7.70331 18.97 6.42136 18.7289 5.47618 18.2996C4.531 17.8704 4 17.2882 4 16.6811H14.08ZM35.08 16.6811C35.08 17.2882 34.549 17.8704 33.6038 18.2996C32.6586 18.7289 31.3767 18.97 30.04 18.97C28.7033 18.97 27.4214 18.7289 26.4762 18.2996C25.531 17.8704 25 17.2882 25 16.6811H35.08Z" fill="#FF9103"/>
<path d="M14.0968 16.6811C14.2032 17.3036 14.8229 17.885 15.832 18.3092C16.8412 18.7333 18.1655 18.9688 19.5404 18.9688C20.9153 18.9688 22.2397 18.7333 23.2488 18.3092C24.2579 17.885 24.8776 17.3036 24.984 16.6811H14.0968ZM35.0968 16.6811C35.2032 17.3036 35.8229 17.885 36.832 18.3092C37.8412 18.7333 39.1655 18.9688 40.5404 18.9688C41.9153 18.9688 43.2397 18.7333 44.2488 18.3092C45.2579 17.885 45.8776 17.3036 45.984 16.6811H35.0968Z" fill="#FF9103"/>
</svg>
